<?xml version="1.0" standalone="no"?><!DOCTYPE svg PUBLIC "-//W3C//DTD SVG 1.1//EN" "http://www.w3.org/Graphics/SVG/1.1/DTD/svg11.dtd"><svg xmlns="http://www.w3.org/2000/svg" xmlns:xlink="http://www.w3.org/1999/xlink" version="1.1" width="177px" height="30.1px" viewBox="0 -9 177 30.1" style="top:-9px">  <desc>￼</desc>  <defs/>  <g class="svg-textframe-underlines">    <rect class="svg-underline" x="0" y="9.3" width="144.2" height="0.5" style="fill:#f4774c;"/>  </g>  <g id="Polygon11109">    <path d="M 1.6 8.9 C 1.1 8.9 0.7 8.7 0.4 8.4 C 0.1 8.1 0 7.7 0 7.2 C 0 6.4 0.3 5.5 1 4.5 C 1.7 3.6 2.3 3.1 3 3.1 C 3.3 3.1 3.5 3.3 3.8 3.6 C 4 3.9 4.1 4.2 4.1 4.5 C 4.1 4.8 4 5 3.9 5.2 C 3.8 5.3 3.7 5.3 3.6 5.3 C 3.3 5.3 3.1 5.1 3 4.7 C 3 4.3 2.9 4.2 2.8 4.2 C 2.5 4.2 2.2 4.5 1.8 5.3 C 1.4 6 1.2 6.6 1.2 7.2 C 1.2 7.6 1.4 7.8 1.9 7.8 C 2.4 7.8 2.9 7.6 3.5 7.3 C 3.7 7.1 3.9 7 4 7 C 4.2 7 4.3 7.1 4.3 7.3 C 4.3 7.5 4 7.8 3.5 8.2 C 2.9 8.7 2.3 8.9 1.6 8.9 Z M 9.9 6.1 C 9.7 6.9 9.2 7.5 8.6 8 C 8 8.6 7.4 8.8 6.8 8.8 C 6.3 8.8 5.9 8.6 5.6 8.3 C 5.3 7.9 5.1 7.5 5.1 7 C 5.1 6.1 5.4 5.3 6 4.5 C 6.6 3.7 7.3 3.3 8.1 3.3 C 8.6 3.3 9.1 3.5 9.4 3.9 C 9.8 4.3 10 4.8 10 5.4 C 10 5.6 9.9 5.9 9.9 6.1 C 9.9 6.1 9.9 6.1 9.9 6.1 Z M 7.3 4.6 C 7.1 4.8 6.9 5.1 6.7 5.5 C 6.4 6 6.3 6.4 6.3 6.9 C 6.3 7.1 6.4 7.4 6.5 7.5 C 6.6 7.7 6.7 7.8 6.9 7.8 C 7.3 7.8 7.7 7.6 8.1 7.1 C 8.6 6.6 8.8 6.1 8.8 5.5 C 8.8 5.1 8.7 4.9 8.6 4.6 C 8.4 4.4 8.2 4.3 8 4.3 C 7.7 4.3 7.5 4.4 7.3 4.6 C 7.3 4.6 7.3 4.6 7.3 4.6 Z M 15 7.9 C 14.8 7.6 14.7 7 14.6 6.2 C 14.6 5.4 14.4 5 14.2 5 C 13.9 5 13.5 5.4 13 6.3 C 12.4 7.1 12 7.8 11.9 8.2 C 11.9 8.3 11.8 8.4 11.7 8.5 C 11.6 8.6 11.6 8.6 11.5 8.6 C 11 8.6 10.7 8.4 10.7 8 C 10.7 7.8 10.8 7.5 10.9 6.9 C 11 6.2 11.1 5.3 11.1 4.3 C 11.1 4.2 11.2 4 11.3 3.8 C 11.4 3.7 11.6 3.6 11.7 3.6 C 11.9 3.6 12 3.6 12.1 3.7 C 12.2 3.8 12.3 4.1 12.3 4.5 C 12.3 4.8 12.2 5.4 12 6.3 C 12.7 4.6 13.5 3.8 14.4 3.8 C 15.1 3.8 15.6 4.4 15.7 5.6 C 15.8 6.8 16 7.4 16.2 7.4 C 16.2 7.4 16.3 7.4 16.4 7.3 C 16.5 7.3 16.6 7.3 16.7 7.3 C 16.9 7.3 16.9 7.4 16.9 7.6 C 16.9 7.7 16.8 7.9 16.6 8.1 C 16.4 8.3 16.1 8.4 15.8 8.4 C 15.4 8.4 15.1 8.2 15 7.9 C 15 7.9 15 7.9 15 7.9 Z M 19.5 4.6 C 19.5 4.6 19.4 5 19.2 5.7 C 19.1 6.4 19 6.9 19 7 C 19 7.3 19 7.5 19.1 7.6 C 19.1 7.7 19.2 7.7 19.4 7.7 C 19.5 7.7 19.7 7.7 19.9 7.6 C 20 7.6 20.3 7.4 20.5 7.2 C 20.7 7.1 20.8 7 21 7 C 21.1 7 21.1 7 21.2 7.1 C 21.3 7.1 21.3 7.2 21.3 7.3 C 21.3 7.6 21 7.9 20.6 8.3 C 20.1 8.6 19.6 8.8 19.1 8.8 C 18.7 8.8 18.4 8.7 18.1 8.4 C 17.9 8.2 17.8 7.8 17.8 7.3 C 17.8 6.9 18 6 18.3 4.7 C 18.1 4.7 17.9 4.7 17.9 4.7 C 17.9 4.7 17.8 4.7 17.8 4.7 C 17.6 4.7 17.5 4.7 17.3 4.6 C 17.1 4.5 17.1 4.3 17.1 4.1 C 17.1 3.8 17.2 3.7 17.5 3.7 C 17.5 3.7 18.6 3.7 18.6 3.7 C 18.7 3.3 18.9 2.8 19 2.1 C 19.1 1.7 19.3 1.5 19.6 1.5 C 19.8 1.5 19.9 1.6 20 1.7 C 20.1 1.8 20.2 1.9 20.2 2 C 20.2 2.1 20.1 2.6 19.8 3.6 C 20.8 3.5 21.4 3.4 21.5 3.4 C 21.7 3.4 21.8 3.4 21.8 3.5 C 21.9 3.5 21.9 3.6 21.9 3.8 C 21.9 4.1 21.7 4.3 21.2 4.3 C 21.2 4.3 19.5 4.6 19.5 4.6 Z M 26.3 8.8 C 25.7 8.8 25.5 8.2 25.5 6.9 C 24.7 8.1 23.8 8.6 23 8.6 C 22.7 8.6 22.5 8.5 22.3 8.3 C 22.1 8.1 22 7.8 22 7.4 C 22 6.5 22.3 5.6 23.1 4.7 C 23.9 3.7 24.7 3.2 25.4 3.2 C 25.8 3.2 26.1 3.4 26.2 3.8 C 26.6 3.8 26.8 3.9 26.8 4.2 C 26.8 4.4 26.7 4.6 26.7 5 C 26.5 5.6 26.5 6.2 26.5 6.6 C 26.5 7 26.5 7.3 26.6 7.5 C 26.6 7.6 26.7 7.7 26.7 7.8 C 26.7 7.8 26.8 7.9 26.9 7.9 C 27 8 27.1 8.1 27.1 8.2 C 27.1 8.4 27 8.5 26.9 8.6 C 26.7 8.7 26.5 8.8 26.3 8.8 C 26.3 8.8 26.3 8.8 26.3 8.8 Z M 25.2 4.2 C 24.9 4.2 24.5 4.6 23.9 5.3 C 23.4 6.1 23.1 6.7 23.1 7.2 C 23.1 7.4 23.2 7.6 23.3 7.6 C 23.7 7.6 24.2 7.2 24.7 6.6 C 25.3 5.9 25.6 5.3 25.6 4.8 C 25.6 4.6 25.5 4.5 25.5 4.4 C 25.4 4.3 25.3 4.2 25.2 4.2 Z M 30 4.6 C 30 4.6 29.9 5 29.7 5.7 C 29.6 6.4 29.5 6.9 29.5 7 C 29.5 7.3 29.5 7.5 29.6 7.6 C 29.6 7.7 29.7 7.7 29.9 7.7 C 30.1 7.7 30.2 7.7 30.4 7.6 C 30.6 7.6 30.8 7.4 31.1 7.2 C 31.2 7.1 31.4 7 31.5 7 C 31.6 7 31.7 7 31.7 7.1 C 31.8 7.1 31.8 7.2 31.8 7.3 C 31.8 7.6 31.6 7.9 31.1 8.3 C 30.6 8.6 30.2 8.8 29.6 8.8 C 29.2 8.8 28.9 8.7 28.7 8.4 C 28.4 8.2 28.3 7.8 28.3 7.3 C 28.3 6.9 28.5 6 28.8 4.7 C 28.6 4.7 28.5 4.7 28.4 4.7 C 28.4 4.7 28.3 4.7 28.3 4.7 C 28.1 4.7 28 4.7 27.8 4.6 C 27.7 4.5 27.6 4.3 27.6 4.1 C 27.6 3.8 27.7 3.7 28 3.7 C 28 3.7 29.1 3.7 29.1 3.7 C 29.2 3.3 29.4 2.8 29.5 2.1 C 29.6 1.7 29.8 1.5 30.1 1.5 C 30.3 1.5 30.5 1.6 30.6 1.7 C 30.7 1.8 30.7 1.9 30.7 2 C 30.7 2.1 30.6 2.6 30.3 3.6 C 31.3 3.5 31.9 3.4 32 3.4 C 32.2 3.4 32.3 3.4 32.3 3.5 C 32.4 3.5 32.4 3.6 32.4 3.8 C 32.4 4.1 32.2 4.3 31.7 4.3 C 31.7 4.3 30 4.6 30 4.6 Z M 37.3 6.1 C 37.1 6.9 36.7 7.5 36.1 8 C 35.4 8.6 34.8 8.8 34.2 8.8 C 33.7 8.8 33.3 8.6 33 8.3 C 32.7 7.9 32.6 7.5 32.6 7 C 32.6 6.1 32.9 5.3 33.4 4.5 C 34 3.7 34.7 3.3 35.5 3.3 C 36.1 3.3 36.5 3.5 36.9 3.9 C 37.2 4.3 37.4 4.8 37.4 5.4 C 37.4 5.6 37.4 5.9 37.3 6.1 C 37.3 6.1 37.3 6.1 37.3 6.1 Z M 34.8 4.6 C 34.5 4.8 34.3 5.1 34.1 5.5 C 33.9 6 33.8 6.4 33.8 6.9 C 33.8 7.1 33.8 7.4 33.9 7.5 C 34 7.7 34.1 7.8 34.3 7.8 C 34.7 7.8 35.1 7.6 35.6 7.1 C 36 6.6 36.2 6.1 36.2 5.5 C 36.2 5.1 36.1 4.9 36 4.6 C 35.9 4.4 35.7 4.3 35.4 4.3 C 35.2 4.3 35 4.4 34.8 4.6 C 34.8 4.6 34.8 4.6 34.8 4.6 Z M 43.5 6.6 C 43.2 6.6 43 6.5 42.7 6.2 C 42.5 6.4 42.2 6.5 41.9 6.6 C 41.6 6.8 41.4 6.8 41.2 6.8 C 40.9 6.8 40.6 6.7 40.4 6.5 C 40.2 6.3 40.1 6.1 40.1 5.9 C 40.1 5.4 40.3 4.8 40.8 4.2 C 41.3 3.6 41.7 3.3 42.1 3.3 C 42.5 3.3 42.8 3.4 43 3.5 C 43.2 3.6 43.3 3.7 43.3 3.8 C 43.3 3.8 43.3 3.9 43.3 3.9 C 43.3 3.9 43.3 3.9 43.4 3.9 C 43.7 3.9 43.8 4 43.8 4.3 C 43.8 4.3 43.8 4.6 43.6 4.9 C 43.5 5.1 43.5 5.3 43.5 5.5 C 43.5 5.5 43.5 5.6 43.6 5.6 C 43.8 5.6 44 5.4 44.2 5.2 C 44.4 4.9 44.6 4.7 44.6 4.4 C 44.6 4.1 44.4 3.7 44.2 3.3 C 44.1 3.2 44.1 3.1 44 3 C 43.9 2.7 43.7 2.5 43.4 2.4 C 43.1 2.2 42.9 2.1 42.7 2.1 C 42.2 2.1 41.7 2.3 41 2.8 C 40.4 3.2 39.9 3.8 39.6 4.6 C 39.3 5.3 39.2 5.9 39.2 6.3 C 39.2 6.6 39.5 7 40 7.4 C 40.5 7.7 41.1 7.9 41.8 7.9 C 42.1 7.9 42.5 7.8 43.1 7.7 C 43.6 7.5 44 7.4 44.4 7.1 C 44.6 6.9 44.8 6.8 44.9 6.8 C 45 6.8 45.1 6.8 45.2 6.9 C 45.3 7 45.4 7.1 45.4 7.1 C 45.4 7.3 45.3 7.5 45.2 7.6 C 44.9 8 44.3 8.3 43.6 8.5 C 42.9 8.7 42.1 8.8 41.4 8.8 C 40.6 8.8 39.9 8.5 39.2 8.1 C 38.5 7.6 38.2 7 38.2 6.3 C 38.2 5.8 38.4 5.2 38.7 4.3 C 39 3.5 39.6 2.7 40.3 2.1 C 41.1 1.6 41.8 1.3 42.7 1.3 C 43.2 1.3 43.7 1.5 44.2 1.8 C 44.6 2.1 45 2.5 45.2 3 C 45.4 3.5 45.5 4 45.5 4.3 C 45.5 4.8 45.4 5.2 45.1 5.6 C 44.9 6 44.6 6.3 44.2 6.4 C 43.8 6.5 43.6 6.6 43.5 6.6 C 43.5 6.6 43.5 6.6 43.5 6.6 Z M 42.6 4.3 C 42.5 4.3 42.5 4.3 42.5 4.3 C 42.5 4.2 42.4 4.2 42.4 4.2 C 42.1 4.2 41.8 4.5 41.6 4.9 C 41.3 5.3 41.2 5.6 41.2 5.7 C 41.2 5.8 41.2 5.8 41.2 5.9 C 41.3 5.9 41.4 5.9 41.5 5.9 C 41.6 5.9 41.8 5.8 42 5.7 C 42.3 5.5 42.4 5.4 42.4 5.4 C 42.4 5.4 42.4 4.9 42.4 4.9 C 42.3 4.8 42.4 4.7 42.4 4.5 C 42.5 4.4 42.5 4.3 42.6 4.3 Z M 48.1 9 C 47.9 9 47.6 8.8 47.4 8.5 C 47.4 8.3 47.3 7.9 47 7.1 C 46.5 5.7 46.3 4.7 46.3 4.2 C 46.3 3.6 46.5 3.3 46.9 3.3 C 47.3 3.3 47.5 3.6 47.5 4.1 C 47.5 4.4 47.5 4.6 47.5 4.7 C 47.5 4.9 47.6 5.1 47.7 5.5 C 47.8 5.8 47.8 6.1 47.9 6.3 C 48 6.5 48 6.7 48.1 6.9 C 48.1 7 48.2 7.1 48.2 7.2 C 48.2 7.1 48.3 7 48.4 6.8 C 48.5 6.7 48.7 6.3 49.1 5.6 C 49.5 5 49.9 4.5 50.1 4.1 C 50.4 3.7 50.7 3.5 50.8 3.4 C 51 3.3 51.1 3.3 51.3 3.3 C 51.4 3.3 51.6 3.3 51.7 3.4 C 51.8 3.5 51.9 3.7 51.9 3.8 C 51.9 4 51.7 4.2 51.5 4.4 C 51.2 4.6 50.8 5 50.4 5.6 C 49.9 6.3 49.4 7.1 48.9 8.1 C 48.6 8.7 48.3 9 48.1 9 C 48.1 9 48.1 9 48.1 9 Z M 56.6 6.1 C 56.4 6.9 56 7.5 55.3 8 C 54.7 8.6 54.1 8.8 53.5 8.8 C 53 8.8 52.6 8.6 52.3 8.3 C 52 7.9 51.9 7.5 51.9 7 C 51.9 6.1 52.1 5.3 52.7 4.5 C 53.3 3.7 54 3.3 54.8 3.3 C 55.4 3.3 55.8 3.5 56.2 3.9 C 56.5 4.3 56.7 4.8 56.7 5.4 C 56.7 5.6 56.6 5.9 56.6 6.1 C 56.6 6.1 56.6 6.1 56.6 6.1 Z M 54 4.6 C 53.8 4.8 53.6 5.1 53.4 5.5 C 53.2 6 53.1 6.4 53.1 6.9 C 53.1 7.1 53.1 7.4 53.2 7.5 C 53.3 7.7 53.4 7.8 53.6 7.8 C 54 7.8 54.4 7.6 54.9 7.1 C 55.3 6.6 55.5 6.1 55.5 5.5 C 55.5 5.1 55.4 4.9 55.3 4.6 C 55.2 4.4 55 4.3 54.7 4.3 C 54.5 4.3 54.2 4.4 54.1 4.6 C 54.1 4.6 54 4.6 54 4.6 Z M 59.6 4.6 C 59.6 4.6 59.5 5 59.3 5.7 C 59.2 6.4 59.1 6.9 59.1 7 C 59.1 7.3 59.1 7.5 59.2 7.6 C 59.2 7.7 59.3 7.7 59.5 7.7 C 59.6 7.7 59.8 7.7 60 7.6 C 60.2 7.6 60.4 7.4 60.6 7.2 C 60.8 7.1 61 7 61.1 7 C 61.2 7 61.2 7 61.3 7.1 C 61.4 7.1 61.4 7.2 61.4 7.3 C 61.4 7.6 61.2 7.9 60.7 8.3 C 60.2 8.6 59.7 8.8 59.2 8.8 C 58.8 8.8 58.5 8.7 58.2 8.4 C 58 8.2 57.9 7.8 57.9 7.3 C 57.9 6.9 58.1 6 58.4 4.7 C 58.2 4.7 58 4.7 58 4.7 C 58 4.7 57.9 4.7 57.9 4.7 C 57.7 4.7 57.6 4.7 57.4 4.6 C 57.3 4.5 57.2 4.3 57.2 4.1 C 57.2 3.8 57.3 3.7 57.6 3.7 C 57.6 3.7 58.7 3.7 58.7 3.7 C 58.8 3.3 59 2.8 59.1 2.1 C 59.2 1.7 59.4 1.5 59.7 1.5 C 59.9 1.5 60.1 1.6 60.2 1.7 C 60.3 1.8 60.3 1.9 60.3 2 C 60.3 2.1 60.2 2.6 59.9 3.6 C 60.9 3.5 61.5 3.4 61.6 3.4 C 61.8 3.4 61.9 3.4 61.9 3.5 C 62 3.5 62 3.6 62 3.8 C 62 4.1 61.8 4.3 61.3 4.3 C 61.3 4.3 59.6 4.6 59.6 4.6 Z M 66.9 6.1 C 66.7 6.9 66.3 7.5 65.6 8 C 65 8.6 64.4 8.8 63.8 8.8 C 63.3 8.8 62.9 8.6 62.6 8.3 C 62.3 7.9 62.2 7.5 62.2 7 C 62.2 6.1 62.4 5.3 63 4.5 C 63.6 3.7 64.3 3.3 65.1 3.3 C 65.7 3.3 66.1 3.5 66.5 3.9 C 66.8 4.3 67 4.8 67 5.4 C 67 5.6 66.9 5.9 66.9 6.1 C 66.9 6.1 66.9 6.1 66.9 6.1 Z M 64.4 4.6 C 64.1 4.8 63.9 5.1 63.7 5.5 C 63.5 6 63.4 6.4 63.4 6.9 C 63.4 7.1 63.4 7.4 63.5 7.5 C 63.6 7.7 63.7 7.8 63.9 7.8 C 64.3 7.8 64.7 7.6 65.2 7.1 C 65.6 6.6 65.8 6.1 65.8 5.5 C 65.8 5.1 65.7 4.9 65.6 4.6 C 65.5 4.4 65.3 4.3 65 4.3 C 64.8 4.3 64.5 4.4 64.4 4.6 C 64.4 4.6 64.4 4.6 64.4 4.6 Z M 71.4 7 C 70.5 8.1 69.7 8.7 68.8 8.7 C 68.5 8.7 68.2 8.6 68 8.3 C 67.8 8.1 67.7 7.7 67.7 7.3 C 67.7 6.5 68 5.6 68.7 4.8 C 69.4 3.9 70.1 3.5 70.8 3.5 C 71.2 3.5 71.5 3.6 71.7 3.8 C 71.9 2.8 72.1 2.1 72.1 1.8 C 72.2 1.3 72.3 1 72.4 0.8 C 72.4 0.7 72.5 0.6 72.7 0.5 C 72.8 0.4 72.9 0.3 73 0.3 C 73.2 0.3 73.3 0.4 73.4 0.5 C 73.5 0.7 73.5 0.8 73.5 1 C 73.5 1.1 73.5 1.4 73.3 1.8 C 73.1 2.5 72.9 3.4 72.7 4.4 C 72.5 5.4 72.4 6.2 72.4 6.8 C 72.4 7.3 72.5 7.6 72.7 7.6 C 72.9 7.6 73 7.6 73.1 7.5 C 73.3 7.4 73.4 7.4 73.4 7.4 C 73.6 7.4 73.7 7.5 73.7 7.7 C 73.7 7.9 73.5 8.1 73.2 8.4 C 72.9 8.6 72.6 8.7 72.3 8.7 C 72 8.7 71.7 8.5 71.6 8.2 C 71.4 7.9 71.3 7.4 71.4 7 Z M 70.8 4.4 C 70.4 4.4 69.9 4.8 69.5 5.4 C 69 6.1 68.8 6.7 68.8 7.2 C 68.8 7.5 68.9 7.7 69.1 7.7 C 69.5 7.7 70 7.3 70.6 6.6 C 71.1 5.9 71.4 5.4 71.4 5 C 71.4 4.8 71.3 4.7 71.2 4.6 C 71.1 4.5 71 4.4 70.8 4.4 Z M 77.2 1.3 C 77.2 1.6 77.1 1.8 76.9 1.9 C 76.7 2.1 76.5 2.2 76.4 2.2 C 76.2 2.2 76 2.1 75.8 2 C 75.7 1.8 75.6 1.6 75.6 1.5 C 75.6 1.2 75.7 1 75.8 0.9 C 76 0.8 76.2 0.7 76.5 0.7 C 76.7 0.7 76.9 0.7 77 0.9 C 77.1 1 77.2 1.2 77.2 1.3 Z M 74.8 5.8 C 74.8 5.7 74.8 5.5 74.8 5.3 C 74.8 5.3 74.8 5.3 74.8 5.3 C 75 4.8 75 4.4 75 4.3 C 75 4.1 75.1 3.9 75.2 3.7 C 75.3 3.6 75.4 3.5 75.6 3.5 C 75.8 3.5 76 3.5 76.1 3.6 C 76.2 3.7 76.3 3.9 76.3 4 C 76.3 4.1 76.2 4.4 76.1 4.8 C 76.1 4.8 76.1 4.9 76.1 4.9 C 75.9 5.5 75.8 6 75.8 6.4 C 75.7 6.8 75.7 7.2 75.7 7.4 C 75.7 7.6 75.8 7.9 75.8 8.2 C 75.8 8.3 75.8 8.3 75.8 8.3 C 75.8 8.4 75.8 8.5 75.6 8.6 C 75.5 8.8 75.3 8.8 75.2 8.8 C 74.7 8.8 74.5 8.5 74.5 7.9 C 74.5 7.3 74.6 6.6 74.8 5.8 C 74.8 5.8 74.8 5.8 74.8 5.8 Z M 79.7 7.3 C 79.7 7.2 79.4 7 78.8 6.7 C 78.2 6.4 77.7 6.1 77.5 5.9 C 77.4 5.6 77.3 5.4 77.3 5.1 C 77.3 4.5 77.6 4 78.2 3.6 C 78.9 3.2 79.5 2.9 80 2.9 C 80.6 2.9 80.9 3.2 80.9 3.7 C 80.9 3.8 80.8 3.9 80.7 4 C 80.6 4.1 80.5 4.2 80.4 4.2 C 80.3 4.2 80.3 4.1 80.2 4.1 C 80.1 4 80 4 80 4 C 79.7 4 79.4 4.1 79 4.3 C 78.7 4.5 78.5 4.7 78.5 5 C 78.5 5.1 78.5 5.2 78.7 5.4 C 78.8 5.5 79 5.6 79.4 5.8 C 80 6.1 80.4 6.3 80.5 6.5 C 80.7 6.8 80.8 7 80.8 7.3 C 80.8 7.7 80.5 8.1 79.8 8.4 C 79.2 8.8 78.5 8.9 77.7 8.9 C 77.1 8.9 76.8 8.7 76.8 8.3 C 76.8 8.1 76.9 8 77 7.9 C 77.1 7.8 77.2 7.7 77.4 7.7 C 77.5 7.7 77.6 7.7 77.7 7.8 C 77.8 7.8 77.9 7.9 78 7.9 C 78.4 7.9 78.7 7.8 79 7.7 C 79.3 7.6 79.6 7.5 79.7 7.3 Z M 83.6 4.6 C 83.6 4.6 83.5 5 83.3 5.7 C 83.2 6.4 83.1 6.9 83.1 7 C 83.1 7.3 83.1 7.5 83.2 7.6 C 83.2 7.7 83.3 7.7 83.4 7.7 C 83.6 7.7 83.8 7.7 84 7.6 C 84.1 7.6 84.4 7.4 84.6 7.2 C 84.8 7.1 84.9 7 85.1 7 C 85.2 7 85.2 7 85.3 7.1 C 85.3 7.1 85.4 7.2 85.4 7.3 C 85.4 7.6 85.1 7.9 84.7 8.3 C 84.2 8.6 83.7 8.8 83.2 8.8 C 82.8 8.8 82.5 8.7 82.2 8.4 C 82 8.2 81.9 7.8 81.9 7.3 C 81.9 6.9 82.1 6 82.4 4.7 C 82.2 4.7 82 4.7 82 4.7 C 82 4.7 81.9 4.7 81.9 4.7 C 81.7 4.7 81.5 4.7 81.4 4.6 C 81.2 4.5 81.2 4.3 81.2 4.1 C 81.2 3.8 81.3 3.7 81.6 3.7 C 81.6 3.7 82.7 3.7 82.7 3.7 C 82.8 3.3 83 2.8 83.1 2.1 C 83.2 1.7 83.4 1.5 83.7 1.5 C 83.9 1.5 84 1.6 84.1 1.7 C 84.2 1.8 84.3 1.9 84.3 2 C 84.3 2.1 84.2 2.6 83.9 3.6 C 84.9 3.5 85.5 3.4 85.6 3.4 C 85.8 3.4 85.9 3.4 85.9 3.5 C 86 3.5 86 3.6 86 3.8 C 86 4.1 85.8 4.3 85.3 4.3 C 85.3 4.3 83.6 4.6 83.6 4.6 Z M 87.5 6.2 C 87.5 6.2 87.57 6.01 87.6 6 C 88 5.2 88.4 4.6 88.8 4.1 C 89.3 3.6 89.7 3.3 90.2 3.3 C 90.5 3.3 90.8 3.4 91 3.6 C 91.2 3.8 91.3 4 91.3 4.3 C 91.3 4.4 91.3 4.6 91.2 4.7 C 91.1 4.8 91 4.8 90.9 4.8 C 90.7 4.8 90.5 4.8 90.3 4.6 C 90.2 4.5 90.1 4.4 90.1 4.4 C 89.8 4.4 89.4 4.8 88.8 5.6 C 88.3 6.3 87.9 7.2 87.8 8.1 C 87.8 8.4 87.7 8.6 87.6 8.7 C 87.4 8.8 87.3 8.9 87.1 8.9 C 86.8 8.9 86.7 8.7 86.6 8.5 C 86.5 8.2 86.4 7.8 86.4 7.2 C 86.4 7 86.4 6.7 86.5 6.3 C 86.5 5.9 86.5 5.4 86.6 4.9 C 86.6 4.7 86.6 4.6 86.6 4.5 C 86.6 4.2 86.7 4 86.7 3.9 C 86.7 3.8 86.8 3.6 87 3.5 C 87.1 3.4 87.3 3.4 87.4 3.4 C 87.6 3.4 87.7 3.4 87.8 3.5 C 87.9 3.6 88 3.7 88 3.9 C 88 4 87.9 4.3 87.7 4.8 C 87.7 5 87.6 5.2 87.6 5.4 C 87.61 5.41 87.5 6.2 87.5 6.2 Z M 94.1 1.3 C 94.1 1.6 94 1.8 93.8 1.9 C 93.6 2.1 93.4 2.2 93.3 2.2 C 93.1 2.2 92.9 2.1 92.8 2 C 92.6 1.8 92.5 1.6 92.5 1.5 C 92.5 1.2 92.6 1 92.8 0.9 C 92.9 0.8 93.1 0.7 93.4 0.7 C 93.6 0.7 93.8 0.7 93.9 0.9 C 94.1 1 94.1 1.2 94.1 1.3 Z M 91.7 5.8 C 91.7 5.7 91.8 5.5 91.8 5.3 C 91.8 5.3 91.8 5.3 91.8 5.3 C 91.9 4.8 91.9 4.4 91.9 4.3 C 91.9 4.1 92 3.9 92.1 3.7 C 92.2 3.6 92.4 3.5 92.5 3.5 C 92.8 3.5 92.9 3.5 93.1 3.6 C 93.2 3.7 93.2 3.9 93.2 4 C 93.2 4.1 93.2 4.4 93.1 4.8 C 93.1 4.8 93 4.9 93 4.9 C 92.9 5.5 92.7 6 92.7 6.4 C 92.7 6.8 92.7 7.2 92.7 7.4 C 92.7 7.6 92.7 7.9 92.8 8.2 C 92.8 8.3 92.8 8.3 92.8 8.3 C 92.8 8.4 92.7 8.5 92.6 8.6 C 92.4 8.8 92.3 8.8 92.1 8.8 C 91.7 8.8 91.5 8.5 91.5 7.9 C 91.5 7.3 91.5 6.6 91.7 5.8 C 91.7 5.8 91.7 5.8 91.7 5.8 Z M 96.3 4.6 C 96.3 4.6 96.2 5 96 5.7 C 95.9 6.4 95.8 6.9 95.8 7 C 95.8 7.3 95.8 7.5 95.9 7.6 C 95.9 7.7 96 7.7 96.2 7.7 C 96.3 7.7 96.5 7.7 96.7 7.6 C 96.8 7.6 97.1 7.4 97.3 7.2 C 97.5 7.1 97.7 7 97.8 7 C 97.9 7 97.9 7 98 7.1 C 98.1 7.1 98.1 7.2 98.1 7.3 C 98.1 7.6 97.9 7.9 97.4 8.3 C 96.9 8.6 96.4 8.8 95.9 8.8 C 95.5 8.8 95.2 8.7 94.9 8.4 C 94.7 8.2 94.6 7.8 94.6 7.3 C 94.6 6.9 94.8 6 95.1 4.7 C 94.9 4.7 94.7 4.7 94.7 4.7 C 94.7 4.7 94.6 4.7 94.6 4.7 C 94.4 4.7 94.3 4.7 94.1 4.6 C 93.9 4.5 93.9 4.3 93.9 4.1 C 93.9 3.8 94 3.7 94.3 3.7 C 94.3 3.7 95.4 3.7 95.4 3.7 C 95.5 3.3 95.7 2.8 95.8 2.1 C 95.9 1.7 96.1 1.5 96.4 1.5 C 96.6 1.5 96.8 1.6 96.9 1.7 C 97 1.8 97 1.9 97 2 C 97 2.1 96.9 2.6 96.6 3.6 C 97.6 3.5 98.2 3.4 98.3 3.4 C 98.5 3.4 98.6 3.4 98.6 3.5 C 98.7 3.5 98.7 3.6 98.7 3.8 C 98.7 4.1 98.5 4.3 98 4.3 C 98 4.3 96.3 4.6 96.3 4.6 Z M 103.1 8.8 C 102.5 8.8 102.3 8.2 102.3 6.9 C 101.5 8.1 100.6 8.6 99.8 8.6 C 99.5 8.6 99.3 8.5 99.1 8.3 C 98.9 8.1 98.8 7.8 98.8 7.4 C 98.8 6.5 99.1 5.6 99.9 4.7 C 100.7 3.7 101.5 3.2 102.2 3.2 C 102.6 3.2 102.9 3.4 103 3.8 C 103.4 3.8 103.6 3.9 103.6 4.2 C 103.6 4.4 103.5 4.6 103.5 5 C 103.3 5.6 103.3 6.2 103.3 6.6 C 103.3 7 103.3 7.3 103.4 7.5 C 103.4 7.6 103.5 7.7 103.5 7.8 C 103.5 7.8 103.6 7.9 103.7 7.9 C 103.9 8 103.9 8.1 103.9 8.2 C 103.9 8.4 103.8 8.5 103.7 8.6 C 103.5 8.7 103.3 8.8 103.1 8.8 C 103.1 8.8 103.1 8.8 103.1 8.8 Z M 102 4.2 C 101.7 4.2 101.3 4.6 100.7 5.3 C 100.2 6.1 100 6.7 100 7.2 C 100 7.4 100 7.6 100.1 7.6 C 100.5 7.6 101 7.2 101.5 6.6 C 102.1 5.9 102.4 5.3 102.4 4.8 C 102.4 4.6 102.3 4.5 102.3 4.4 C 102.2 4.3 102.1 4.2 102 4.2 Z M 106.6 0.3 C 107 0.3 107.1 0.5 107.1 0.9 C 107.1 1.1 107.1 1.3 107.1 1.5 C 107 1.7 106.9 2.2 106.7 3 C 106.5 3.6 106.4 4.2 106.3 4.9 C 106.2 5.6 106.2 6.1 106.2 6.5 C 106.2 6.9 106.2 7.4 106.3 8 C 106.3 8.1 106.3 8.2 106.3 8.3 C 106.3 8.5 106.2 8.6 106.1 8.8 C 105.9 8.9 105.8 9 105.6 9 C 105.4 9 105.2 8.9 105.1 8.6 C 105 8.4 105 8.1 105 7.5 C 105 6.4 105.1 5 105.4 3.5 C 105.7 1.9 105.9 1 106 0.7 C 106.2 0.5 106.4 0.3 106.6 0.3 Z M 108.1 8.5 C 108 8.5 107.8 8.4 107.7 8.3 C 107.6 8.3 107.6 8.1 107.6 7.7 C 107.6 7.6 107.6 7.4 107.6 7.3 C 107.6 7.2 107.7 7.2 107.8 7.1 C 108 7 108.2 7 108.5 7 C 108.7 7 108.8 7.1 108.9 7.2 C 109 7.2 109.1 7.3 109.1 7.5 C 109.1 7.6 109 7.8 109 7.9 C 108.9 8 108.8 8.1 108.6 8.2 C 108.4 8.4 108.3 8.5 108.1 8.5 Z M 111.6 8.9 C 111.1 8.9 110.7 8.7 110.4 8.4 C 110.1 8.1 110 7.7 110 7.2 C 110 6.4 110.3 5.5 111 4.5 C 111.6 3.6 112.3 3.1 112.9 3.1 C 113.2 3.1 113.5 3.3 113.7 3.6 C 113.9 3.9 114 4.2 114 4.5 C 114 4.8 114 5 113.9 5.2 C 113.7 5.3 113.6 5.3 113.5 5.3 C 113.2 5.3 113 5.1 113 4.7 C 112.9 4.3 112.9 4.2 112.7 4.2 C 112.5 4.2 112.1 4.5 111.7 5.3 C 111.3 6 111.1 6.6 111.1 7.2 C 111.1 7.6 111.3 7.8 111.8 7.8 C 112.3 7.8 112.9 7.6 113.4 7.3 C 113.7 7.1 113.9 7 114 7 C 114.2 7 114.3 7.1 114.3 7.3 C 114.3 7.5 114 7.8 113.4 8.2 C 112.8 8.7 112.2 8.9 111.6 8.9 Z M 119.8 6.1 C 119.6 6.9 119.2 7.5 118.6 8 C 118 8.6 117.4 8.8 116.7 8.8 C 116.3 8.8 115.9 8.6 115.6 8.3 C 115.2 7.9 115.1 7.5 115.1 7 C 115.1 6.1 115.4 5.3 115.9 4.5 C 116.5 3.7 117.2 3.3 118 3.3 C 118.6 3.3 119 3.5 119.4 3.9 C 119.7 4.3 119.9 4.8 119.9 5.4 C 119.9 5.6 119.9 5.9 119.8 6.1 C 119.8 6.1 119.8 6.1 119.8 6.1 Z M 117.3 4.6 C 117.1 4.8 116.8 5.1 116.6 5.5 C 116.4 6 116.3 6.4 116.3 6.9 C 116.3 7.1 116.3 7.4 116.4 7.5 C 116.5 7.7 116.7 7.8 116.8 7.8 C 117.2 7.8 117.6 7.6 118.1 7.1 C 118.5 6.6 118.7 6.1 118.7 5.5 C 118.7 5.1 118.7 4.9 118.5 4.6 C 118.4 4.4 118.2 4.3 117.9 4.3 C 117.7 4.3 117.5 4.4 117.3 4.6 C 117.3 4.6 117.3 4.6 117.3 4.6 Z M 122.1 8.3 C 122.1 8.6 121.9 8.8 121.6 8.8 C 121.1 8.8 120.9 8.5 120.9 7.9 C 120.9 6.9 121 6 121.1 5.3 C 121.2 4.8 121.2 4.2 121.2 3.7 C 121.2 3.6 121.3 3.5 121.3 3.4 C 121.4 3.3 121.5 3.3 121.7 3.3 C 122.2 3.3 122.4 3.5 122.4 4.1 C 122.4 4.3 122.3 4.8 122.2 5.6 C 122 6.1 122 6.4 122 6.6 C 122.9 4.6 123.8 3.6 124.5 3.6 C 124.8 3.6 125.1 3.7 125.2 3.9 C 125.4 4.2 125.5 4.7 125.5 5.5 C 125.5 6.3 125.6 6.7 125.6 6.7 C 125.7 6.7 125.9 6.3 126.3 5.6 C 126.6 4.8 127 4.2 127.3 4 C 127.5 3.7 127.8 3.6 128.1 3.6 C 128.5 3.6 128.7 3.7 128.9 4 C 129.1 4.3 129.2 4.9 129.2 5.6 C 129.3 6.2 129.4 6.6 129.4 6.9 C 129.5 7.2 129.7 7.4 129.9 7.5 C 130 7.6 130.1 7.7 130.1 7.9 C 130.1 8 130 8.2 129.8 8.3 C 129.7 8.4 129.5 8.5 129.3 8.5 C 128.9 8.5 128.7 8.4 128.5 8 C 128.3 7.7 128.2 7 128.1 6.1 C 128.1 5.6 128 5.3 128 5.1 C 128 5 127.9 4.9 127.8 4.9 C 127.7 4.9 127.6 5 127.5 5.2 C 127.4 5.5 127.1 5.9 126.8 6.6 C 126.5 7.2 126.2 7.7 126 7.9 C 125.8 8.2 125.6 8.3 125.3 8.3 C 125.2 8.3 125 8.2 124.8 8.1 C 124.6 7.9 124.5 7.3 124.5 6.3 C 124.5 5.4 124.4 4.9 124.3 4.9 C 124.2 4.9 123.8 5.3 123.3 6.1 C 122.8 6.9 122.4 7.7 122.1 8.3 Z M 131.3 8.5 C 131.1 8.5 131 8.4 130.9 8.3 C 130.8 8.3 130.8 8.1 130.8 7.7 C 130.8 7.6 130.8 7.4 130.8 7.3 C 130.8 7.2 130.9 7.2 131 7.1 C 131.2 7 131.4 7 131.6 7 C 131.8 7 132 7.1 132.1 7.2 C 132.2 7.2 132.2 7.3 132.2 7.5 C 132.2 7.6 132.2 7.8 132.2 7.9 C 132.1 8 132 8.1 131.8 8.2 C 131.6 8.4 131.4 8.5 131.3 8.5 Z M 133.8 3.8 C 134.1 2 134.4 0.9 134.5 0.5 C 134.6 0.2 134.9 0 135.2 0 C 135.5 0 135.6 0.2 135.6 0.7 C 135.6 1 135.5 1.7 135.2 2.7 C 135.1 3.2 134.9 4 134.7 5 C 135.1 4.5 135.6 4 136 3.7 C 136.5 3.4 136.9 3.2 137.3 3.2 C 137.6 3.2 137.9 3.3 138.1 3.6 C 138.3 3.8 138.4 4.2 138.4 4.5 C 138.4 5.5 138 6.5 137.2 7.3 C 136.5 8.2 135.6 8.7 134.8 8.7 C 134.5 8.7 134.3 8.6 134 8.4 C 133.8 8.3 133.7 8.1 133.7 7.9 C 133.7 7.8 133.6 7.7 133.6 7.7 C 133.6 7.6 133.5 7.6 133.5 7.5 C 133.4 7.4 133.3 7.3 133.3 7.1 C 133.3 6.9 133.4 6.5 133.5 5.9 C 133.5 5.9 133.8 3.8 133.8 3.8 Z M 134.4 7.3 C 134.5 7.5 134.7 7.7 134.9 7.7 C 135.2 7.7 135.5 7.5 135.9 7.2 C 136.2 6.9 136.6 6.6 136.8 6 C 137.1 5.5 137.3 5.1 137.3 4.8 C 137.3 4.4 137.2 4.3 137.1 4.3 C 136.6 4.3 136 4.7 135.4 5.4 C 134.7 6.2 134.4 6.8 134.4 7.3 Z M 140.4 6.2 C 140.4 6.2 140.43 6.01 140.4 6 C 140.8 5.2 141.3 4.6 141.7 4.1 C 142.2 3.6 142.6 3.3 143 3.3 C 143.4 3.3 143.6 3.4 143.9 3.6 C 144.1 3.8 144.2 4 144.2 4.3 C 144.2 4.4 144.1 4.6 144.1 4.7 C 144 4.8 143.9 4.8 143.8 4.8 C 143.6 4.8 143.4 4.8 143.2 4.6 C 143.1 4.5 143 4.4 142.9 4.4 C 142.7 4.4 142.3 4.8 141.7 5.6 C 141.1 6.3 140.8 7.2 140.7 8.1 C 140.6 8.4 140.6 8.6 140.4 8.7 C 140.3 8.8 140.1 8.9 139.9 8.9 C 139.7 8.9 139.5 8.7 139.4 8.5 C 139.4 8.2 139.3 7.8 139.3 7.2 C 139.3 7 139.3 6.7 139.3 6.3 C 139.3 5.9 139.4 5.4 139.4 4.9 C 139.5 4.7 139.5 4.6 139.5 4.5 C 139.5 4.2 139.5 4 139.6 3.9 C 139.6 3.8 139.7 3.6 139.8 3.5 C 140 3.4 140.1 3.4 140.3 3.4 C 140.5 3.4 140.6 3.4 140.7 3.5 C 140.8 3.6 140.8 3.7 140.8 3.9 C 140.8 4 140.8 4.3 140.6 4.8 C 140.6 5 140.5 5.2 140.5 5.4 C 140.47 5.41 140.4 6.2 140.4 6.2 Z " stroke="none" fill="#f4774c"/>    <a xlink:href="mailto:contato@votodistrital.com.br?subject=Voto%20Distrital%20-%20Informa%C3%A7%C3%B5es" xlink:title="contato@votodistrital.com.br">      <rect style="fill:transparent;" x="-1" y="-1" width="145" height="10"/>    </a>  </g></svg>