<?xml version="1.0" standalone="no"?><!DOCTYPE svg PUBLIC "-//W3C//DTD SVG 1.1//EN" "http://www.w3.org/Graphics/SVG/1.1/DTD/svg11.dtd"><svg xmlns="http://www.w3.org/2000/svg" version="1.1" width="289.4px" height="39.6px" viewBox="0 -9 289.4 39.6" style="top:-9px">  <desc>clique aqui para virar a p gina</desc>  <defs/>  <g id="Polygon10627">    <path d="M 14 15.8 C 13 15.8 12.3 15.5 11.8 15 C 11.3 14.5 11.1 13.7 11.1 12.8 C 11.1 11.3 11.7 9.7 12.9 8 C 14.1 6.3 15.2 5.4 16.4 5.4 C 16.9 5.4 17.4 5.7 17.8 6.3 C 18.2 6.8 18.4 7.4 18.4 8 C 18.4 8.5 18.3 8.9 18.1 9.1 C 17.9 9.3 17.7 9.4 17.5 9.4 C 16.9 9.4 16.6 9 16.5 8.2 C 16.4 7.7 16.3 7.4 16.1 7.4 C 15.6 7.4 15 8 14.3 9.3 C 13.5 10.6 13.1 11.8 13.1 12.7 C 13.1 13.5 13.6 13.9 14.4 13.9 C 15.4 13.9 16.3 13.6 17.3 12.9 C 17.7 12.6 18.1 12.4 18.3 12.4 C 18.7 12.4 18.8 12.6 18.8 12.9 C 18.8 13.4 18.3 14 17.3 14.7 C 16.2 15.4 15.2 15.8 14 15.8 Z M 23.7 0.4 C 24.4 0.4 24.7 0.8 24.7 1.5 C 24.7 1.8 24.6 2.1 24.5 2.5 C 24.5 2.8 24.2 3.7 23.8 5.2 C 23.5 6.2 23.3 7.4 23.2 8.6 C 23 9.9 22.9 10.8 22.9 11.5 C 22.9 12.3 23 13.2 23.1 14.2 C 23.1 14.5 23.2 14.6 23.2 14.7 C 23.2 15.1 23 15.4 22.8 15.6 C 22.5 15.9 22.2 16 21.9 16 C 21.5 16 21.2 15.8 21 15.4 C 20.9 15 20.8 14.3 20.8 13.4 C 20.8 11.3 21 8.9 21.5 6.1 C 22 3.3 22.4 1.7 22.7 1.2 C 23 0.7 23.4 0.4 23.7 0.4 Z M 30.5 2.2 C 30.5 2.6 30.3 3 29.9 3.3 C 29.6 3.6 29.2 3.8 29 3.8 C 28.6 3.8 28.3 3.7 28 3.4 C 27.7 3.1 27.6 2.8 27.6 2.5 C 27.6 2.1 27.7 1.7 28 1.5 C 28.3 1.2 28.7 1.1 29.2 1.1 C 29.6 1.1 29.9 1.2 30.1 1.4 C 30.4 1.6 30.5 1.9 30.5 2.2 Z M 26.1 10.4 C 26.1 10 26.2 9.7 26.2 9.5 C 26.2 9.5 26.2 9.5 26.2 9.5 C 26.4 8.4 26.5 7.8 26.5 7.6 C 26.5 7.2 26.6 6.8 26.8 6.5 C 27 6.3 27.3 6.1 27.6 6.1 C 28 6.1 28.3 6.2 28.5 6.4 C 28.8 6.6 28.9 6.8 28.9 7 C 28.9 7.3 28.8 7.7 28.6 8.5 C 28.6 8.5 28.5 8.7 28.5 8.7 C 28.2 9.8 28 10.7 27.9 11.4 C 27.9 12.1 27.8 12.7 27.8 13.2 C 27.8 13.5 27.9 14 28 14.6 C 28 14.7 28 14.8 28 14.9 C 28 15 27.9 15.2 27.7 15.4 C 27.4 15.6 27.1 15.8 26.8 15.8 C 26.1 15.8 25.7 15.2 25.7 14 C 25.7 13 25.8 11.8 26.1 10.4 C 26.1 10.4 26.1 10.4 26.1 10.4 Z M 36.2 14.2 C 36.3 13.7 36.4 13.3 36.5 13 C 35 14.6 33.6 15.4 32.4 15.4 C 31.8 15.4 31.3 15.1 30.9 14.6 C 30.5 14.1 30.4 13.5 30.4 12.8 C 30.4 11.2 31.1 9.5 32.6 7.8 C 34 6.1 35.5 5.2 37.1 5.2 C 37.8 5.2 38.2 5.6 38.4 6.3 C 38.4 6.4 38.5 6.4 38.5 6.4 C 39.2 6.6 39.5 7 39.5 7.6 C 39.5 7.9 39.4 8.5 39.2 9.5 C 39 10.1 38.8 11.3 38.4 13 C 38.1 14.8 37.9 16 37.8 16.7 C 37.7 17.4 37.7 18.2 37.6 19.1 C 37.6 19.6 37.6 19.9 37.6 20.1 C 37.5 20.3 37.4 20.5 37.2 20.6 C 37 20.8 36.7 20.9 36.4 20.9 C 36.1 20.9 35.8 20.8 35.6 20.5 C 35.4 20.3 35.3 20 35.3 19.6 C 35.3 19.4 35.4 18.6 35.6 17.2 C 35.9 15.8 36.1 14.8 36.2 14.2 C 36.2 14.2 36.2 14.2 36.2 14.2 Z M 36.7 10.3 C 37.1 9.5 37.4 8.8 37.4 8.2 C 37.4 7.9 37.3 7.7 37.2 7.5 C 37 7.3 36.8 7.2 36.6 7.2 C 35.9 7.2 35 7.8 34 9.1 C 32.9 10.4 32.4 11.6 32.4 12.7 C 32.4 13.2 32.5 13.5 32.8 13.5 C 33.3 13.5 34 13.2 34.8 12.5 C 35.7 11.8 36.3 11.1 36.7 10.3 C 36.7 10.3 36.7 10.3 36.7 10.3 Z M 47.3 12.1 C 46.7 13.1 46 13.9 45.3 14.5 C 44.6 15.1 43.8 15.4 43.1 15.4 C 42.6 15.4 42.1 15.2 41.7 14.7 C 41.2 14.2 41 13.5 41 12.5 C 41 11.8 41.2 10.8 41.5 9.4 C 41.8 8.2 42 7.3 42 6.7 C 42.2 6.2 42.6 6 43.1 6 C 43.4 6 43.7 6.1 43.9 6.3 C 44.1 6.5 44.2 6.8 44.2 7 C 44.2 7.4 44.1 8 43.8 8.8 C 43.6 9.2 43.4 9.9 43.2 10.7 C 43 11.6 42.9 12.1 42.9 12.3 C 42.9 13.1 43.1 13.5 43.4 13.5 C 43.9 13.5 44.6 13 45.5 12 C 46.3 11 46.9 10 47.2 9 C 47.4 8 47.7 7.4 47.9 7 C 48.1 6.7 48.4 6.6 48.7 6.6 C 49.3 6.6 49.6 6.9 49.6 7.6 C 49.6 7.7 49.6 7.9 49.5 8.2 C 49.2 9.2 49 10.4 49 11.7 C 49 13.2 49.2 14.1 49.8 14.4 C 49.9 14.5 50 14.7 50 14.8 C 50 15 49.9 15.2 49.6 15.4 C 49.3 15.6 49 15.7 48.7 15.7 C 48.2 15.7 47.9 15.4 47.6 14.7 C 47.4 14.1 47.3 13.2 47.3 12.1 Z M 59.4 11.7 C 59.7 11.7 59.9 11.9 59.9 12.3 C 59.9 12.9 59.4 13.6 58.3 14.5 C 57.3 15.3 56.2 15.7 54.9 15.7 C 53.9 15.7 53.1 15.4 52.5 14.8 C 52 14.2 51.7 13.3 51.7 12.2 C 51.7 10.5 52.3 9 53.4 7.6 C 54.6 6.1 55.8 5.4 57.1 5.4 C 57.8 5.4 58.3 5.6 58.7 6 C 59.1 6.5 59.3 6.9 59.3 7.5 C 59.3 8.5 58.8 9.5 57.9 10.4 C 56.9 11.4 55.6 12 54.1 12.3 C 53.9 12.4 53.8 12.5 53.8 12.7 C 53.8 12.9 54 13.2 54.2 13.5 C 54.5 13.7 54.8 13.9 55.2 13.9 C 56.4 13.9 57.5 13.2 58.7 12 C 58.9 11.8 59.1 11.7 59.4 11.7 C 59.4 11.7 59.4 11.7 59.4 11.7 Z M 54 10.7 C 54.9 10.5 55.7 10.1 56.4 9.5 C 57.1 8.9 57.5 8.4 57.5 7.9 C 57.5 7.7 57.4 7.5 57.3 7.4 C 57.2 7.3 57.1 7.2 56.9 7.2 C 56.4 7.2 55.8 7.6 55.2 8.3 C 54.6 9.1 54.2 9.9 54 10.7 Z M 76 15.7 C 74.9 15.7 74.5 14.6 74.6 12.3 C 73 14.4 71.5 15.4 70.1 15.4 C 69.6 15.4 69.1 15.2 68.7 14.8 C 68.4 14.4 68.2 13.8 68.2 13.2 C 68.2 11.6 68.9 10 70.2 8.2 C 71.6 6.5 73 5.6 74.4 5.6 C 75.1 5.6 75.6 6 75.8 6.7 C 76.5 6.7 76.8 6.9 76.8 7.4 C 76.8 7.7 76.8 8.1 76.6 8.8 C 76.4 10 76.3 11 76.3 11.7 C 76.3 12.4 76.3 12.9 76.4 13.3 C 76.6 13.6 76.6 13.8 76.7 13.9 C 76.7 13.9 76.9 14 77.1 14.2 C 77.3 14.3 77.4 14.4 77.4 14.6 C 77.4 14.9 77.3 15.2 77 15.4 C 76.7 15.6 76.4 15.7 76 15.7 C 76 15.7 76 15.7 76 15.7 Z M 74 7.5 C 73.4 7.5 72.7 8.1 71.7 9.4 C 70.8 10.7 70.3 11.9 70.3 12.8 C 70.3 13.3 70.4 13.5 70.6 13.5 C 71.3 13.5 72.2 12.9 73.2 11.6 C 74.2 10.4 74.7 9.3 74.7 8.4 C 74.7 8.1 74.6 7.9 74.5 7.7 C 74.3 7.6 74.2 7.5 74 7.5 Z M 84.5 14.2 C 84.6 13.7 84.7 13.3 84.8 13 C 83.2 14.6 81.9 15.4 80.7 15.4 C 80.1 15.4 79.6 15.1 79.2 14.6 C 78.8 14.1 78.6 13.5 78.6 12.8 C 78.6 11.2 79.4 9.5 80.8 7.8 C 82.3 6.1 83.8 5.2 85.3 5.2 C 86.1 5.2 86.5 5.6 86.7 6.3 C 86.7 6.4 86.7 6.4 86.8 6.4 C 87.5 6.6 87.8 7 87.8 7.6 C 87.8 7.9 87.7 8.5 87.4 9.5 C 87.3 10.1 87 11.3 86.7 13 C 86.4 14.8 86.2 16 86.1 16.7 C 86 17.4 86 18.2 85.9 19.1 C 85.9 19.6 85.9 19.9 85.8 20.1 C 85.8 20.3 85.7 20.5 85.5 20.6 C 85.3 20.8 85 20.9 84.7 20.9 C 84.3 20.9 84.1 20.8 83.9 20.5 C 83.7 20.3 83.6 20 83.6 19.6 C 83.6 19.4 83.7 18.6 83.9 17.2 C 84.1 15.8 84.3 14.8 84.5 14.2 C 84.5 14.2 84.5 14.2 84.5 14.2 Z M 85 10.3 C 85.4 9.5 85.6 8.8 85.6 8.2 C 85.6 7.9 85.6 7.7 85.4 7.5 C 85.3 7.3 85.1 7.2 84.9 7.2 C 84.2 7.2 83.3 7.8 82.3 9.1 C 81.2 10.4 80.7 11.6 80.7 12.7 C 80.7 13.2 80.8 13.5 81 13.5 C 81.6 13.5 82.3 13.2 83.1 12.5 C 83.9 11.8 84.6 11.1 85 10.3 C 85 10.3 85 10.3 85 10.3 Z M 95.5 12.1 C 95 13.1 94.3 13.9 93.6 14.5 C 92.8 15.1 92.1 15.4 91.3 15.4 C 90.9 15.4 90.4 15.2 90 14.7 C 89.5 14.2 89.3 13.5 89.3 12.5 C 89.3 11.8 89.5 10.8 89.8 9.4 C 90.1 8.2 90.3 7.3 90.3 6.7 C 90.5 6.2 90.9 6 91.4 6 C 91.7 6 92 6.1 92.2 6.3 C 92.4 6.5 92.5 6.8 92.5 7 C 92.5 7.4 92.3 8 92 8.8 C 91.9 9.2 91.7 9.9 91.5 10.7 C 91.3 11.6 91.2 12.1 91.2 12.3 C 91.2 13.1 91.4 13.5 91.7 13.5 C 92.2 13.5 92.9 13 93.7 12 C 94.6 11 95.2 10 95.4 9 C 95.7 8 95.9 7.4 96.1 7 C 96.3 6.7 96.6 6.6 97 6.6 C 97.6 6.6 97.9 6.9 97.9 7.6 C 97.9 7.7 97.9 7.9 97.8 8.2 C 97.4 9.2 97.3 10.4 97.3 11.7 C 97.3 13.2 97.5 14.1 98 14.4 C 98.2 14.5 98.3 14.7 98.3 14.8 C 98.3 15 98.1 15.2 97.8 15.4 C 97.5 15.6 97.3 15.7 97 15.7 C 96.5 15.7 96.2 15.4 95.9 14.7 C 95.7 14.1 95.5 13.2 95.5 12.1 Z M 105.2 2.2 C 105.2 2.6 105 3 104.6 3.3 C 104.2 3.6 103.9 3.8 103.6 3.8 C 103.3 3.8 103 3.7 102.7 3.4 C 102.4 3.1 102.3 2.8 102.3 2.5 C 102.3 2.1 102.4 1.7 102.7 1.5 C 103 1.2 103.3 1.1 103.8 1.1 C 104.2 1.1 104.6 1.2 104.8 1.4 C 105 1.6 105.2 1.9 105.2 2.2 Z M 100.8 10.4 C 100.8 10 100.9 9.7 100.9 9.5 C 100.9 9.5 100.9 9.5 100.9 9.5 C 101.1 8.4 101.2 7.8 101.2 7.6 C 101.2 7.2 101.3 6.8 101.5 6.5 C 101.7 6.3 101.9 6.1 102.3 6.1 C 102.7 6.1 103 6.2 103.2 6.4 C 103.4 6.6 103.5 6.8 103.5 7 C 103.5 7.3 103.4 7.7 103.2 8.5 C 103.2 8.5 103.2 8.7 103.2 8.7 C 102.8 9.8 102.7 10.7 102.6 11.4 C 102.5 12.1 102.5 12.7 102.5 13.2 C 102.5 13.5 102.6 14 102.7 14.6 C 102.7 14.7 102.7 14.8 102.7 14.9 C 102.7 15 102.6 15.2 102.3 15.4 C 102.1 15.6 101.8 15.8 101.5 15.8 C 100.7 15.8 100.3 15.2 100.3 14 C 100.3 13 100.5 11.8 100.8 10.4 C 100.8 10.4 100.8 10.4 100.8 10.4 Z M 116 15.5 C 115.3 15.5 114.9 15.2 114.7 14.7 C 114.6 15.1 114.5 15.7 114.4 16.5 C 114.4 16.5 114 20 114 20 C 113.9 20.5 113.8 20.9 113.6 21.2 C 113.4 21.4 113.1 21.5 112.8 21.5 C 112.6 21.5 112.3 21.4 112.1 21.2 C 111.8 21 111.7 20.8 111.7 20.5 C 111.7 20.1 111.8 19.5 111.9 18.9 C 112.8 15.4 113.3 11.8 113.4 8 C 113.4 8 113.4 7.9 113.4 7.9 C 113.4 7.1 113.4 6.5 113.4 6.3 C 113.5 6 113.6 5.8 113.8 5.6 C 114 5.4 114.3 5.3 114.7 5.3 C 115.3 5.3 115.7 5.8 115.7 6.8 C 115.7 7.2 115.6 7.8 115.4 8.8 C 115.4 8.8 115.4 9.4 115.4 9.4 C 116 8.3 116.8 7.4 117.7 6.6 C 118.7 5.9 119.5 5.5 120.2 5.5 C 120.9 5.5 121.4 5.8 121.9 6.2 C 122.3 6.7 122.6 7.3 122.6 8 C 122.6 9.9 121.8 11.6 120.4 13.2 C 118.9 14.7 117.4 15.5 116 15.5 C 116 15.5 116 15.5 116 15.5 Z M 119.9 7.5 C 119.1 7.5 118.2 8.2 117.1 9.6 C 115.9 11 115.4 12.1 115.4 12.9 C 115.4 13.1 115.5 13.3 115.7 13.5 C 115.9 13.6 116.1 13.7 116.4 13.7 C 117.1 13.7 118 13.1 118.9 11.9 C 119.9 10.8 120.4 9.6 120.4 8.6 C 120.4 8.2 120.3 7.9 120.2 7.8 C 120.1 7.6 120 7.5 119.9 7.5 Z M 131.8 15.7 C 130.7 15.7 130.2 14.6 130.3 12.3 C 128.7 14.4 127.3 15.4 125.8 15.4 C 125.3 15.4 124.8 15.2 124.5 14.8 C 124.1 14.4 123.9 13.8 123.9 13.2 C 123.9 11.6 124.6 10 126 8.2 C 127.3 6.5 128.7 5.6 130.1 5.6 C 130.9 5.6 131.3 6 131.6 6.7 C 132.2 6.7 132.6 6.9 132.6 7.4 C 132.6 7.7 132.5 8.1 132.4 8.8 C 132.1 10 132 11 132 11.7 C 132 12.4 132.1 12.9 132.2 13.3 C 132.3 13.6 132.3 13.8 132.4 13.9 C 132.4 13.9 132.6 14 132.8 14.2 C 133.1 14.3 133.2 14.4 133.2 14.6 C 133.2 14.9 133 15.2 132.7 15.4 C 132.4 15.6 132.1 15.7 131.8 15.7 C 131.8 15.7 131.8 15.7 131.8 15.7 Z M 129.8 7.5 C 129.2 7.5 128.4 8.1 127.5 9.4 C 126.5 10.7 126 11.9 126 12.8 C 126 13.3 126.1 13.5 126.3 13.5 C 127 13.5 127.9 12.9 128.9 11.6 C 129.9 10.4 130.4 9.3 130.4 8.4 C 130.4 8.1 130.3 7.9 130.2 7.7 C 130.1 7.6 129.9 7.5 129.8 7.5 Z M 137 10.9 C 137 10.9 137.14 10.65 137.1 10.7 C 137.8 9.2 138.6 8.1 139.4 7.2 C 140.2 6.3 141 5.9 141.8 5.9 C 142.4 5.9 142.9 6 143.3 6.3 C 143.7 6.7 143.9 7.1 143.9 7.5 C 143.9 7.8 143.8 8 143.7 8.2 C 143.5 8.4 143.4 8.5 143.1 8.5 C 142.8 8.5 142.4 8.4 142.1 8.1 C 141.9 7.9 141.8 7.8 141.6 7.8 C 141.2 7.8 140.5 8.5 139.4 9.9 C 138.4 11.2 137.8 12.8 137.6 14.5 C 137.5 15 137.4 15.3 137.1 15.5 C 136.9 15.7 136.6 15.8 136.2 15.8 C 135.8 15.8 135.5 15.6 135.4 15.1 C 135.2 14.6 135.1 13.9 135.1 12.8 C 135.1 12.4 135.1 11.8 135.1 11.1 C 135.2 10.4 135.2 9.6 135.3 8.6 C 135.4 8.3 135.4 8.1 135.4 8 C 135.5 7.4 135.5 7 135.6 6.8 C 135.7 6.6 135.8 6.4 136.1 6.2 C 136.3 6 136.6 5.9 136.9 5.9 C 137.2 5.9 137.4 6 137.6 6.2 C 137.8 6.4 137.8 6.6 137.8 6.8 C 137.8 7.1 137.7 7.6 137.4 8.5 C 137.4 8.8 137.3 9.2 137.2 9.6 C 137.21 9.58 137 10.9 137 10.9 Z M 151.4 15.7 C 150.3 15.7 149.8 14.6 149.9 12.3 C 148.4 14.4 146.9 15.4 145.5 15.4 C 145 15.4 144.5 15.2 144.1 14.8 C 143.7 14.4 143.5 13.8 143.5 13.2 C 143.5 11.6 144.2 10 145.6 8.2 C 147 6.5 148.4 5.6 149.8 5.6 C 150.5 5.6 151 6 151.2 6.7 C 151.9 6.7 152.2 6.9 152.2 7.4 C 152.2 7.7 152.2 8.1 152 8.8 C 151.8 10 151.7 11 151.7 11.7 C 151.7 12.4 151.7 12.9 151.8 13.3 C 151.9 13.6 152 13.8 152.1 13.9 C 152.1 13.9 152.2 14 152.5 14.2 C 152.7 14.3 152.8 14.4 152.8 14.6 C 152.8 14.9 152.7 15.2 152.4 15.4 C 152.1 15.6 151.8 15.7 151.4 15.7 C 151.4 15.7 151.4 15.7 151.4 15.7 Z M 149.4 7.5 C 148.8 7.5 148.1 8.1 147.1 9.4 C 146.2 10.7 145.7 11.9 145.7 12.8 C 145.7 13.3 145.8 13.5 146 13.5 C 146.7 13.5 147.5 12.9 148.5 11.6 C 149.6 10.4 150.1 9.3 150.1 8.4 C 150.1 8.1 150 7.9 149.9 7.7 C 149.7 7.6 149.6 7.5 149.4 7.5 Z M 164.4 16 C 164 16 163.7 15.7 163.3 15.2 C 163.3 14.8 163 14 162.6 12.7 C 161.6 10.2 161.2 8.4 161.2 7.3 C 161.2 6.4 161.5 5.9 162.3 5.9 C 163 5.9 163.4 6.3 163.4 7.2 C 163.4 7.8 163.4 8.2 163.4 8.4 C 163.5 8.6 163.6 9.1 163.7 9.7 C 163.9 10.3 164 10.8 164.2 11.2 C 164.3 11.5 164.4 11.8 164.5 12.2 C 164.6 12.5 164.6 12.7 164.7 12.8 C 164.7 12.7 164.8 12.5 165 12.1 C 165.2 11.8 165.6 11.1 166.3 10 C 167 8.8 167.6 7.9 168.2 7.2 C 168.7 6.5 169.1 6.1 169.4 6 C 169.6 5.8 169.9 5.7 170.2 5.7 C 170.5 5.7 170.8 5.8 170.9 6 C 171.1 6.2 171.2 6.5 171.2 6.8 C 171.2 7.1 171 7.4 170.5 7.8 C 170 8.1 169.4 8.8 168.5 10 C 167.7 11.2 166.8 12.7 165.9 14.4 C 165.3 15.4 164.8 16 164.4 16 C 164.4 16 164.4 16 164.4 16 Z M 176.3 2.2 C 176.3 2.6 176.1 3 175.8 3.3 C 175.4 3.6 175.1 3.8 174.8 3.8 C 174.4 3.8 174.1 3.7 173.8 3.4 C 173.6 3.1 173.4 2.8 173.4 2.5 C 173.4 2.1 173.6 1.7 173.8 1.5 C 174.1 1.2 174.5 1.1 175 1.1 C 175.4 1.1 175.7 1.2 175.9 1.4 C 176.2 1.6 176.3 1.9 176.3 2.2 Z M 171.9 10.4 C 172 10 172 9.7 172.1 9.5 C 172.1 9.5 172.1 9.5 172.1 9.5 C 172.3 8.4 172.4 7.8 172.4 7.6 C 172.4 7.2 172.4 6.8 172.6 6.5 C 172.8 6.3 173.1 6.1 173.4 6.1 C 173.8 6.1 174.1 6.2 174.4 6.4 C 174.6 6.6 174.7 6.8 174.7 7 C 174.7 7.3 174.6 7.7 174.4 8.5 C 174.4 8.5 174.3 8.7 174.3 8.7 C 174 9.8 173.8 10.7 173.7 11.4 C 173.7 12.1 173.6 12.7 173.6 13.2 C 173.6 13.5 173.7 14 173.8 14.6 C 173.8 14.7 173.9 14.8 173.9 14.9 C 173.9 15 173.7 15.2 173.5 15.4 C 173.2 15.6 172.9 15.8 172.6 15.8 C 171.9 15.8 171.5 15.2 171.5 14 C 171.5 13 171.6 11.8 171.9 10.4 C 171.9 10.4 171.9 10.4 171.9 10.4 Z M 178.8 10.9 C 178.8 10.9 178.96 10.65 179 10.7 C 179.7 9.2 180.4 8.1 181.2 7.2 C 182.1 6.3 182.9 5.9 183.6 5.9 C 184.2 5.9 184.7 6 185.1 6.3 C 185.5 6.7 185.7 7.1 185.7 7.5 C 185.7 7.8 185.6 8 185.5 8.2 C 185.4 8.4 185.2 8.5 184.9 8.5 C 184.6 8.5 184.3 8.4 184 8.1 C 183.7 7.9 183.6 7.8 183.5 7.8 C 183 7.8 182.3 8.5 181.2 9.9 C 180.2 11.2 179.6 12.8 179.4 14.5 C 179.3 15 179.2 15.3 179 15.5 C 178.7 15.7 178.4 15.8 178 15.8 C 177.6 15.8 177.4 15.6 177.2 15.1 C 177 14.6 176.9 13.9 176.9 12.8 C 176.9 12.4 176.9 11.8 177 11.1 C 177 10.4 177.1 9.6 177.2 8.6 C 177.2 8.3 177.2 8.1 177.2 8 C 177.3 7.4 177.3 7 177.4 6.8 C 177.5 6.6 177.6 6.4 177.9 6.2 C 178.1 6 178.4 5.9 178.7 5.9 C 179 5.9 179.3 6 179.4 6.2 C 179.6 6.4 179.7 6.6 179.7 6.8 C 179.7 7.1 179.5 7.6 179.3 8.5 C 179.2 8.8 179.1 9.2 179 9.6 C 179.03 9.58 178.8 10.9 178.8 10.9 Z M 193.3 15.7 C 192.1 15.7 191.7 14.6 191.8 12.3 C 190.2 14.4 188.7 15.4 187.3 15.4 C 186.8 15.4 186.3 15.2 185.9 14.8 C 185.6 14.4 185.4 13.8 185.4 13.2 C 185.4 11.6 186.1 10 187.4 8.2 C 188.8 6.5 190.2 5.6 191.6 5.6 C 192.3 5.6 192.8 6 193 6.7 C 193.7 6.7 194 6.9 194 7.4 C 194 7.7 194 8.1 193.8 8.8 C 193.6 10 193.5 11 193.5 11.7 C 193.5 12.4 193.5 12.9 193.7 13.3 C 193.8 13.6 193.8 13.8 193.9 13.9 C 193.9 13.9 194.1 14 194.3 14.2 C 194.5 14.3 194.6 14.4 194.6 14.6 C 194.6 14.9 194.5 15.2 194.2 15.4 C 193.9 15.6 193.6 15.7 193.3 15.7 C 193.3 15.7 193.3 15.7 193.3 15.7 Z M 191.2 7.5 C 190.6 7.5 189.9 8.1 188.9 9.4 C 188 10.7 187.5 11.9 187.5 12.8 C 187.5 13.3 187.6 13.5 187.8 13.5 C 188.5 13.5 189.4 12.9 190.4 11.6 C 191.4 10.4 191.9 9.3 191.9 8.4 C 191.9 8.1 191.8 7.9 191.7 7.7 C 191.5 7.6 191.4 7.5 191.2 7.5 Z M 198.5 10.9 C 198.5 10.9 198.62 10.65 198.6 10.7 C 199.3 9.2 200.1 8.1 200.9 7.2 C 201.7 6.3 202.5 5.9 203.3 5.9 C 203.9 5.9 204.4 6 204.8 6.3 C 205.1 6.7 205.3 7.1 205.3 7.5 C 205.3 7.8 205.3 8 205.1 8.2 C 205 8.4 204.8 8.5 204.6 8.5 C 204.2 8.5 203.9 8.4 203.6 8.1 C 203.4 7.9 203.2 7.8 203.1 7.8 C 202.7 7.8 201.9 8.5 200.9 9.9 C 199.9 11.2 199.3 12.8 199 14.5 C 199 15 198.8 15.3 198.6 15.5 C 198.4 15.7 198.1 15.8 197.7 15.8 C 197.3 15.8 197 15.6 196.8 15.1 C 196.7 14.6 196.6 13.9 196.6 12.8 C 196.6 12.4 196.6 11.8 196.6 11.1 C 196.6 10.4 196.7 9.6 196.8 8.6 C 196.9 8.3 196.9 8.1 196.9 8 C 196.9 7.4 197 7 197.1 6.8 C 197.1 6.6 197.3 6.4 197.5 6.2 C 197.8 6 198.1 5.9 198.4 5.9 C 198.7 5.9 198.9 6 199.1 6.2 C 199.2 6.4 199.3 6.6 199.3 6.8 C 199.3 7.1 199.2 7.6 198.9 8.5 C 198.8 8.8 198.8 9.2 198.7 9.6 C 198.69 9.58 198.5 10.9 198.5 10.9 Z M 220.1 15.7 C 219 15.7 218.5 14.6 218.6 12.3 C 217.1 14.4 215.6 15.4 214.2 15.4 C 213.6 15.4 213.2 15.2 212.8 14.8 C 212.4 14.4 212.2 13.8 212.2 13.2 C 212.2 11.6 212.9 10 214.3 8.2 C 215.7 6.5 217.1 5.6 218.5 5.6 C 219.2 5.6 219.7 6 219.9 6.7 C 220.6 6.7 220.9 6.9 220.9 7.4 C 220.9 7.7 220.8 8.1 220.7 8.8 C 220.5 10 220.4 11 220.4 11.7 C 220.4 12.4 220.4 12.9 220.5 13.3 C 220.6 13.6 220.7 13.8 220.7 13.9 C 220.8 13.9 220.9 14 221.2 14.2 C 221.4 14.3 221.5 14.4 221.5 14.6 C 221.5 14.9 221.4 15.2 221.1 15.4 C 220.8 15.6 220.4 15.7 220.1 15.7 C 220.1 15.7 220.1 15.7 220.1 15.7 Z M 218.1 7.5 C 217.5 7.5 216.7 8.1 215.8 9.4 C 214.8 10.7 214.4 11.9 214.4 12.8 C 214.4 13.3 214.5 13.5 214.7 13.5 C 215.4 13.5 216.2 12.9 217.2 11.6 C 218.2 10.4 218.7 9.3 218.7 8.4 C 218.7 8.1 218.7 7.9 218.5 7.7 C 218.4 7.6 218.3 7.5 218.1 7.5 Z M 233.7 15.5 C 233 15.5 232.6 15.2 232.4 14.7 C 232.3 15.1 232.2 15.7 232.1 16.5 C 232.1 16.5 231.6 20 231.6 20 C 231.6 20.5 231.4 20.9 231.2 21.2 C 231 21.4 230.8 21.5 230.5 21.5 C 230.2 21.5 230 21.4 229.7 21.2 C 229.5 21 229.4 20.8 229.4 20.5 C 229.4 20.1 229.5 19.5 229.6 18.9 C 230.5 15.4 231 11.8 231 8 C 231 8 231 7.9 231 7.9 C 231 7.1 231.1 6.5 231.1 6.3 C 231.2 6 231.3 5.8 231.5 5.6 C 231.7 5.4 232 5.3 232.4 5.3 C 233 5.3 233.3 5.8 233.3 6.8 C 233.3 7.2 233.3 7.8 233.1 8.8 C 233.1 8.8 233 9.4 233 9.4 C 233.7 8.3 234.5 7.4 235.4 6.6 C 236.3 5.9 237.1 5.5 237.9 5.5 C 238.5 5.5 239.1 5.8 239.5 6.2 C 240 6.7 240.2 7.3 240.2 8 C 240.2 9.9 239.5 11.6 238 13.2 C 236.6 14.7 235.1 15.5 233.7 15.5 C 233.7 15.5 233.7 15.5 233.7 15.5 Z M 237.5 7.5 C 236.8 7.5 235.9 8.2 234.7 9.6 C 233.6 11 233 12.1 233 12.9 C 233 13.1 233.1 13.3 233.3 13.5 C 233.5 13.6 233.8 13.7 234 13.7 C 234.8 13.7 235.6 13.1 236.6 11.9 C 237.6 10.8 238.1 9.6 238.1 8.6 C 238.1 8.2 238 7.9 237.9 7.8 C 237.8 7.6 237.7 7.5 237.5 7.5 Z M 249.4 15.7 C 248.3 15.7 247.8 14.6 247.9 12.3 C 246.4 14.4 244.9 15.4 243.5 15.4 C 243 15.4 242.5 15.2 242.1 14.8 C 241.7 14.4 241.5 13.8 241.5 13.2 C 241.5 11.6 242.2 10 243.6 8.2 C 245 6.5 246.4 5.6 247.8 5.6 C 248.5 5.6 249 6 249.2 6.7 C 249.9 6.7 250.2 6.9 250.2 7.4 C 250.2 7.7 250.2 8.1 250 8.8 C 249.8 10 249.7 11 249.7 11.7 C 249.7 12.4 249.7 12.9 249.8 13.3 C 249.9 13.6 250 13.8 250.1 13.9 C 250.1 13.9 250.2 14 250.5 14.2 C 250.7 14.3 250.8 14.4 250.8 14.6 C 250.8 14.9 250.7 15.2 250.4 15.4 C 250.1 15.6 249.8 15.7 249.4 15.7 C 249.4 15.7 249.4 15.7 249.4 15.7 Z M 247.4 7.5 C 246.8 7.5 246.1 8.1 245.1 9.4 C 244.2 10.7 243.7 11.9 243.7 12.8 C 243.7 13.3 243.8 13.5 244 13.5 C 244.7 13.5 245.5 12.9 246.5 11.6 C 247.6 10.4 248.1 9.3 248.1 8.4 C 248.1 8.1 248 7.9 247.9 7.7 C 247.7 7.6 247.6 7.5 247.4 7.5 Z M 250 2.6 C 249.7 2.7 249.2 3 248.6 3.5 C 248.6 3.5 248.6 3.5 248.6 3.5 C 248.5 3.6 248 4 247.2 4.6 C 246.8 4.8 246.7 4.9 246.6 4.9 C 246.6 5 246.5 5 246.4 5 C 246.1 5 246 4.9 245.8 4.8 C 245.7 4.7 245.6 4.5 245.6 4.3 C 245.6 3.9 246 3.4 246.9 2.8 C 246.9 2.8 246.9 2.8 246.9 2.8 C 247.1 2.6 247.3 2.4 247.5 2.3 C 248.5 1.5 249.2 1 249.4 0.8 C 249.7 0.6 249.9 0.5 250 0.5 C 250.2 0.5 250.4 0.7 250.6 1 C 250.7 1.3 250.8 1.5 250.8 1.6 C 250.8 1.7 250.8 1.9 250.6 2.1 C 250.4 2.3 250.2 2.5 250 2.6 C 250 2.6 250 2.6 250 2.6 Z M 258.5 12.6 C 257.8 13.3 257.1 13.9 256.2 14.4 C 255.3 14.9 254.6 15.1 254 15.1 C 253.4 15.1 252.9 14.9 252.5 14.6 C 252.2 14.2 252 13.7 252 13.1 C 252 12.2 252.4 11.2 253 10 C 253.7 8.9 254.7 8 255.9 7.1 C 257.1 6.3 258.2 5.9 259.2 5.9 C 259.8 5.9 260.2 6 260.6 6.3 C 260.7 6.4 260.8 6.5 260.9 6.5 C 261 6.6 261.1 6.8 261.2 7.1 C 261.4 7.3 261.4 7.5 261.4 7.7 C 261.4 7.8 261.3 8.2 261.1 8.8 C 260.9 9.4 260.7 10 260.6 10.6 C 260.5 11.2 260.3 12.7 260.1 15 C 259.8 17 259.3 18.5 258.4 19.5 C 257.5 20.4 256.5 20.9 255.4 20.9 C 254.2 20.9 253.1 20.5 252 19.7 C 250.9 19 250.4 18.3 250.4 17.8 C 250.4 17.4 250.6 17.1 251 17.1 C 251.2 17.1 251.5 17.3 252 17.7 C 253.4 18.5 254.5 19 255.5 19 C 256.2 19 256.8 18.5 257.3 17.6 C 257.8 16.7 258.2 15 258.5 12.6 Z M 258.7 7.7 C 258.3 7.7 257.7 8 257 8.5 C 256.3 9 255.6 9.7 255 10.6 C 254.4 11.5 254.1 12.2 254.1 12.8 C 254.1 13.1 254.3 13.2 254.5 13.2 C 255.2 13.2 256 12.9 256.7 12.3 C 257.5 11.7 258.1 11 258.5 10.2 C 259 9.4 259.2 8.8 259.2 8.4 C 259.2 8.2 259.2 8 259.1 7.9 C 259 7.8 258.8 7.7 258.7 7.7 Z M 267.6 2.2 C 267.6 2.6 267.4 3 267.1 3.3 C 266.7 3.6 266.4 3.8 266.1 3.8 C 265.7 3.8 265.4 3.7 265.2 3.4 C 264.9 3.1 264.7 2.8 264.7 2.5 C 264.7 2.1 264.9 1.7 265.2 1.5 C 265.4 1.2 265.8 1.1 266.3 1.1 C 266.7 1.1 267 1.2 267.3 1.4 C 267.5 1.6 267.6 1.9 267.6 2.2 Z M 263.2 10.4 C 263.3 10 263.3 9.7 263.4 9.5 C 263.4 9.5 263.4 9.5 263.4 9.5 C 263.6 8.4 263.7 7.8 263.7 7.6 C 263.7 7.2 263.8 6.8 264 6.5 C 264.1 6.3 264.4 6.1 264.7 6.1 C 265.1 6.1 265.5 6.2 265.7 6.4 C 265.9 6.6 266 6.8 266 7 C 266 7.3 265.9 7.7 265.7 8.5 C 265.7 8.5 265.6 8.7 265.6 8.7 C 265.3 9.8 265.1 10.7 265.1 11.4 C 265 12.1 265 12.7 265 13.2 C 265 13.5 265 14 265.1 14.6 C 265.2 14.7 265.2 14.8 265.2 14.9 C 265.2 15 265 15.2 264.8 15.4 C 264.5 15.6 264.3 15.8 264 15.8 C 263.2 15.8 262.8 15.2 262.8 14 C 262.8 13 262.9 11.8 263.2 10.4 C 263.2 10.4 263.2 10.4 263.2 10.4 Z M 275.3 14 C 275 13.5 274.8 12.5 274.7 11.1 C 274.6 9.6 274.3 8.8 273.8 8.8 C 273.4 8.8 272.7 9.6 271.6 11.1 C 270.6 12.7 270 13.9 269.7 14.6 C 269.7 14.8 269.6 15 269.4 15.2 C 269.3 15.3 269.2 15.4 269 15.4 C 268.1 15.4 267.7 15 267.7 14.2 C 267.7 13.9 267.8 13.3 267.9 12.3 C 268.2 11 268.3 9.5 268.3 7.6 C 268.3 7.4 268.4 7.1 268.6 6.8 C 268.9 6.4 269.1 6.3 269.4 6.3 C 269.7 6.3 270 6.4 270.2 6.5 C 270.4 6.7 270.5 7.2 270.5 7.9 C 270.5 8.4 270.3 9.5 270 11.1 C 271.2 8.2 272.7 6.7 274.2 6.7 C 275.6 6.7 276.4 7.7 276.6 9.9 C 276.8 12 277.1 13.1 277.4 13.1 C 277.5 13.1 277.7 13.1 277.9 13.1 C 278.1 13 278.3 12.9 278.4 12.9 C 278.7 12.9 278.8 13.1 278.8 13.4 C 278.8 13.7 278.6 14.1 278.2 14.4 C 277.8 14.7 277.3 14.9 276.8 14.9 C 276.1 14.9 275.6 14.6 275.3 14 C 275.3 14 275.3 14 275.3 14 Z M 287.3 15.7 C 286.2 15.7 285.7 14.6 285.9 12.3 C 284.3 14.4 282.8 15.4 281.4 15.4 C 280.9 15.4 280.4 15.2 280 14.8 C 279.6 14.4 279.5 13.8 279.5 13.2 C 279.5 11.6 280.1 10 281.5 8.2 C 282.9 6.5 284.3 5.6 285.7 5.6 C 286.4 5.6 286.9 6 287.1 6.7 C 287.8 6.7 288.1 6.9 288.1 7.4 C 288.1 7.7 288.1 8.1 287.9 8.8 C 287.7 10 287.6 11 287.6 11.7 C 287.6 12.4 287.6 12.9 287.7 13.3 C 287.8 13.6 287.9 13.8 288 13.9 C 288 13.9 288.1 14 288.4 14.2 C 288.6 14.3 288.7 14.4 288.7 14.6 C 288.7 14.9 288.6 15.2 288.3 15.4 C 288 15.6 287.7 15.7 287.3 15.7 C 287.3 15.7 287.3 15.7 287.3 15.7 Z M 285.3 7.5 C 284.7 7.5 284 8.1 283 9.4 C 282.1 10.7 281.6 11.9 281.6 12.8 C 281.6 13.3 281.7 13.5 281.9 13.5 C 282.6 13.5 283.4 12.9 284.5 11.6 C 285.5 10.4 286 9.3 286 8.4 C 286 8.1 285.9 7.9 285.8 7.7 C 285.6 7.6 285.5 7.5 285.3 7.5 Z " stroke="none" fill="#fff200"/>  </g></svg>