<?xml version="1.0" standalone="no"?><!DOCTYPE svg PUBLIC "-//W3C//DTD SVG 1.1//EN" "http://www.w3.org/Graphics/SVG/1.1/DTD/svg11.dtd"><svg xmlns="http://www.w3.org/2000/svg" version="1.1" width="230px" height="61.9px" viewBox="0 -10 230 61.9" style="top:-10px">  <desc>Saiba Mais</desc>  <defs/>  <g id="Polygon16720">    <path d="M 13.4 5.3 C 13.4 6.5 12.8 7.1 11.4 7.1 C 11.4 6.4 11.2 5.9 10.8 5.7 C 10.5 5.4 9.9 5.3 9.2 5.3 C 8 5.3 6.9 5.5 5.8 6.1 C 4.8 6.7 4.3 7.4 4.3 8.1 C 4.3 8.5 4.5 8.9 4.9 9.2 C 5.3 9.6 6.3 10 7.9 10.4 C 9.6 10.9 10.9 11.5 11.7 12.1 C 12.5 12.6 12.9 13.4 12.9 14.2 C 12.9 15.6 11.9 16.8 9.8 18 C 7.7 19.1 5.5 19.7 3.2 19.7 C 2.5 19.7 1.9 19.6 1.5 19.3 C 1 18.9 0.8 18.6 0.8 18.1 C 0.8 17.8 0.9 17.4 1.1 17.1 C 1.3 16.8 1.5 16.7 1.8 16.7 C 2 16.7 2.1 16.7 2.3 16.7 C 3 17.1 3.7 17.2 4.4 17.2 C 5.5 17.2 6.8 16.9 8.1 16.3 C 9.5 15.7 10.2 15 10.2 14.4 C 10.2 14.2 10.1 13.9 9.7 13.7 C 9.4 13.5 8.7 13.2 7.6 12.8 C 6 12.3 4.9 11.9 4.1 11.6 C 3.3 11.3 2.7 10.8 2.3 10.3 C 1.9 9.8 1.7 9.1 1.7 8.4 C 1.7 7 2.5 5.8 4 4.6 C 5.6 3.5 7.4 2.9 9.5 2.9 C 10.7 2.9 11.7 3.1 12.4 3.6 C 13.1 4.1 13.4 4.6 13.4 5.3 C 13.4 5.3 13.4 5.3 13.4 5.3 Z M 24.2 19.1 C 22.8 19.1 22.2 17.8 22.4 15.1 C 20.5 17.6 18.7 18.8 16.9 18.8 C 16.3 18.8 15.7 18.6 15.2 18.1 C 14.8 17.5 14.5 16.9 14.5 16.1 C 14.5 14.2 15.4 12.2 17.1 10 C 18.8 7.9 20.5 6.8 22.2 6.8 C 23.1 6.8 23.6 7.3 23.9 8.2 C 24.7 8.2 25.1 8.5 25.1 9.1 C 25.1 9.4 25.1 9.9 24.9 10.7 C 24.6 12.2 24.5 13.4 24.5 14.3 C 24.5 15.2 24.5 15.8 24.7 16.2 C 24.8 16.6 24.9 16.8 24.9 16.9 C 25 17 25.2 17.2 25.5 17.3 C 25.7 17.4 25.9 17.6 25.9 17.9 C 25.9 18.2 25.7 18.5 25.3 18.8 C 25 19 24.6 19.1 24.2 19.1 C 24.2 19.1 24.2 19.1 24.2 19.1 Z M 21.7 9.1 C 21 9.1 20.1 9.9 18.9 11.5 C 17.7 13.1 17.2 14.5 17.2 15.6 C 17.2 16.2 17.3 16.5 17.5 16.5 C 18.4 16.5 19.4 15.7 20.7 14.2 C 21.9 12.7 22.5 11.4 22.5 10.3 C 22.5 9.9 22.4 9.7 22.3 9.4 C 22.1 9.2 21.9 9.1 21.7 9.1 Z M 33.8 2.7 C 33.8 3.2 33.6 3.7 33.1 4.1 C 32.7 4.4 32.3 4.6 31.9 4.6 C 31.5 4.6 31.1 4.5 30.8 4.1 C 30.5 3.7 30.3 3.4 30.3 3 C 30.3 2.5 30.5 2.1 30.8 1.8 C 31.1 1.5 31.6 1.3 32.2 1.3 C 32.7 1.3 33.1 1.4 33.4 1.7 C 33.7 2 33.8 2.3 33.8 2.7 Z M 28.4 12.7 C 28.5 12.3 28.6 11.9 28.6 11.6 C 28.6 11.6 28.6 11.6 28.6 11.6 C 28.9 10.3 29 9.5 29 9.3 C 29 8.8 29.1 8.4 29.3 8 C 29.6 7.6 29.9 7.5 30.3 7.5 C 30.8 7.5 31.2 7.6 31.4 7.8 C 31.7 8 31.9 8.3 31.9 8.6 C 31.9 8.9 31.7 9.5 31.5 10.4 C 31.5 10.4 31.4 10.6 31.4 10.6 C 31 12 30.8 13.1 30.7 14 C 30.6 14.8 30.6 15.6 30.6 16.1 C 30.6 16.5 30.6 17.1 30.8 17.8 C 30.8 18 30.8 18.1 30.8 18.2 C 30.8 18.3 30.7 18.6 30.4 18.8 C 30 19.1 29.7 19.3 29.3 19.3 C 28.4 19.3 27.9 18.5 27.9 17.1 C 27.9 15.9 28.1 14.4 28.4 12.7 C 28.4 12.7 28.4 12.7 28.4 12.7 Z M 35.3 8.3 C 36 4.1 36.5 1.7 36.8 0.9 C 37.1 0.2 37.6 -0.2 38.4 -0.2 C 38.9 -0.2 39.2 0.3 39.2 1.4 C 39.2 2.1 38.9 3.5 38.4 5.8 C 38.1 6.9 37.7 8.6 37.2 10.8 C 38.1 9.6 39.1 8.6 40.1 7.9 C 41.2 7.2 42.1 6.8 43 6.8 C 43.6 6.8 44.2 7.1 44.6 7.7 C 45.1 8.3 45.3 8.9 45.3 9.7 C 45.3 11.9 44.5 14 42.8 15.9 C 41.1 17.9 39.3 18.9 37.4 18.9 C 36.8 18.9 36.3 18.7 35.8 18.4 C 35.3 18.1 35 17.7 34.9 17.2 C 34.9 16.9 34.9 16.7 34.8 16.7 C 34.7 16.6 34.6 16.5 34.5 16.4 C 34.3 16.2 34.2 15.9 34.2 15.5 C 34.2 15 34.3 14.1 34.5 12.7 C 34.5 12.7 35.3 8.3 35.3 8.3 Z M 36.5 15.9 C 36.8 16.4 37.2 16.6 37.5 16.6 C 38.2 16.6 39 16.3 39.8 15.7 C 40.6 15.1 41.3 14.2 41.9 13.1 C 42.5 12 42.8 11 42.8 10.3 C 42.8 9.6 42.7 9.2 42.5 9.2 C 41.4 9.2 40.1 10.1 38.7 11.7 C 37.2 13.4 36.5 14.8 36.5 15.9 Z M 56.1 19.1 C 54.8 19.1 54.2 17.8 54.3 15.1 C 52.4 17.6 50.6 18.8 48.9 18.8 C 48.2 18.8 47.7 18.6 47.2 18.1 C 46.7 17.5 46.5 16.9 46.5 16.1 C 46.5 14.2 47.3 12.2 49 10 C 50.7 7.9 52.4 6.8 54.1 6.8 C 55 6.8 55.6 7.3 55.9 8.2 C 56.7 8.2 57.1 8.5 57.1 9.1 C 57.1 9.4 57 9.9 56.9 10.7 C 56.6 12.2 56.4 13.4 56.4 14.3 C 56.4 15.2 56.5 15.8 56.6 16.2 C 56.7 16.6 56.8 16.8 56.9 16.9 C 56.9 17 57.1 17.2 57.4 17.3 C 57.7 17.4 57.8 17.6 57.8 17.9 C 57.8 18.2 57.7 18.5 57.3 18.8 C 56.9 19 56.5 19.1 56.1 19.1 C 56.1 19.1 56.1 19.1 56.1 19.1 Z M 53.7 9.1 C 52.9 9.1 52 9.9 50.8 11.5 C 49.7 13.1 49.1 14.5 49.1 15.6 C 49.1 16.2 49.2 16.5 49.5 16.5 C 50.3 16.5 51.4 15.7 52.6 14.2 C 53.8 12.7 54.5 11.4 54.5 10.3 C 54.5 9.9 54.4 9.7 54.2 9.4 C 54 9.2 53.9 9.1 53.7 9.1 Z M 83.9 7.6 C 84 7.3 84 7 84.1 6.9 C 84.1 6.9 80.5 11.7 80.5 11.7 C 78.8 14 77.6 15.2 76.7 15.2 C 76.3 15.2 75.9 14.9 75.6 14.5 C 75.2 14 74.9 13.3 74.6 12.3 C 74.2 11.3 74 10.6 73.9 10.1 C 73.6 8.9 73.3 8.2 73.2 8.1 C 73.2 8.1 72.7 10.9 72.7 10.9 C 72.5 11.8 72.3 12.6 72.2 13.4 C 72 14.1 71.8 15 71.6 16.1 C 71.4 17.2 71.2 18 71.2 18.5 C 71.2 18.7 71 18.9 70.7 19.1 C 70.4 19.3 70.1 19.4 69.9 19.4 C 69.6 19.4 69.3 19.2 69 18.9 C 68.7 18.6 68.5 18.3 68.5 18 C 68.5 17.3 68.7 16.4 69 15.4 C 70.1 11 70.8 8.3 71 7.2 C 71.1 6 71.2 5.1 71.2 4.4 C 71.2 4 71.4 3.7 71.7 3.5 C 72.1 3.3 72.5 3.2 73.1 3.2 C 73.4 3.2 73.6 3.4 73.9 3.7 C 74.2 4.1 74.4 4.5 74.5 4.8 C 74.52 4.81 74.5 4.8 74.5 4.8 C 74.5 4.8 76 8.97 76 9 C 76.6 10.6 77 11.7 77.2 12.1 C 78 11.3 79.1 9.9 80.6 7.8 C 82.1 5.7 83.2 4.4 83.7 3.8 C 84.3 3.2 84.7 2.9 84.9 2.9 C 85.3 2.9 85.7 3 86.1 3.3 C 86.5 3.6 86.7 3.9 86.7 4.1 C 86.7 4.2 86.6 5.3 86.3 7.3 C 86.1 8.7 86 10.3 85.8 12.1 C 85.6 13.8 85.6 14.8 85.6 15.1 C 85.6 15.5 85.6 15.9 85.7 16.3 C 85.8 16.7 85.8 17 85.8 17.2 C 85.8 17.9 85.7 18.4 85.4 18.7 C 85.2 18.9 84.8 19.1 84.3 19.1 C 83.4 19.1 82.9 18.4 82.9 17 C 82.9 15.6 83 14 83.3 12.1 C 83.5 10.1 83.7 8.7 83.9 7.6 C 83.9 7.6 83.9 7.6 83.9 7.6 Z M 98.6 19.1 C 97.2 19.1 96.6 17.8 96.8 15.1 C 94.9 17.6 93.1 18.8 91.3 18.8 C 90.7 18.8 90.1 18.6 89.6 18.1 C 89.2 17.5 88.9 16.9 88.9 16.1 C 88.9 14.2 89.8 12.2 91.5 10 C 93.2 7.9 94.9 6.8 96.6 6.8 C 97.5 6.8 98 7.3 98.3 8.2 C 99.1 8.2 99.5 8.5 99.5 9.1 C 99.5 9.4 99.5 9.9 99.3 10.7 C 99 12.2 98.9 13.4 98.9 14.3 C 98.9 15.2 98.9 15.8 99.1 16.2 C 99.2 16.6 99.3 16.8 99.3 16.9 C 99.4 17 99.6 17.2 99.8 17.3 C 100.1 17.4 100.3 17.6 100.3 17.9 C 100.3 18.2 100.1 18.5 99.7 18.8 C 99.4 19 99 19.1 98.6 19.1 C 98.6 19.1 98.6 19.1 98.6 19.1 Z M 96.1 9.1 C 95.4 9.1 94.4 9.9 93.3 11.5 C 92.1 13.1 91.6 14.5 91.6 15.6 C 91.6 16.2 91.7 16.5 91.9 16.5 C 92.8 16.5 93.8 15.7 95 14.2 C 96.3 12.7 96.9 11.4 96.9 10.3 C 96.9 9.9 96.8 9.7 96.7 9.4 C 96.5 9.2 96.3 9.1 96.1 9.1 Z M 108.2 2.7 C 108.2 3.2 108 3.7 107.5 4.1 C 107.1 4.4 106.7 4.6 106.3 4.6 C 105.9 4.6 105.5 4.5 105.2 4.1 C 104.9 3.7 104.7 3.4 104.7 3 C 104.7 2.5 104.9 2.1 105.2 1.8 C 105.5 1.5 106 1.3 106.6 1.3 C 107.1 1.3 107.5 1.4 107.8 1.7 C 108.1 2 108.2 2.3 108.2 2.7 Z M 102.8 12.7 C 102.9 12.3 103 11.9 103 11.6 C 103 11.6 103 11.6 103 11.6 C 103.3 10.3 103.4 9.5 103.4 9.3 C 103.4 8.8 103.5 8.4 103.7 8 C 104 7.6 104.3 7.5 104.7 7.5 C 105.2 7.5 105.6 7.6 105.8 7.8 C 106.1 8 106.2 8.3 106.2 8.6 C 106.2 8.9 106.1 9.5 105.8 10.4 C 105.8 10.4 105.8 10.6 105.8 10.6 C 105.4 12 105.1 13.1 105.1 14 C 105 14.8 105 15.6 105 16.1 C 105 16.5 105 17.1 105.2 17.8 C 105.2 18 105.2 18.1 105.2 18.2 C 105.2 18.3 105.1 18.6 104.7 18.8 C 104.4 19.1 104.1 19.3 103.7 19.3 C 102.8 19.3 102.3 18.5 102.3 17.1 C 102.3 15.9 102.5 14.4 102.8 12.7 C 102.8 12.7 102.8 12.7 102.8 12.7 Z M 113.6 16 C 113.6 15.6 113 15.1 111.8 14.5 C 110.3 13.8 109.4 13.2 109 12.7 C 108.6 12.2 108.4 11.6 108.4 11 C 108.4 9.8 109.1 8.7 110.5 7.7 C 111.9 6.8 113.2 6.3 114.5 6.3 C 115.7 6.3 116.3 6.8 116.3 7.9 C 116.3 8.2 116.1 8.4 115.9 8.6 C 115.6 8.8 115.4 9 115.2 9 C 115.1 9 114.9 8.9 114.7 8.8 C 114.5 8.7 114.4 8.7 114.3 8.7 C 113.6 8.7 112.9 8.9 112.2 9.3 C 111.4 9.7 111 10.2 111 10.8 C 111 11.1 111.2 11.4 111.4 11.6 C 111.7 11.9 112.3 12.2 113.1 12.6 C 114.3 13.2 115.2 13.7 115.6 14.2 C 115.9 14.7 116.1 15.2 116.1 15.8 C 116.1 16.8 115.4 17.7 114 18.4 C 112.6 19.1 111 19.4 109.3 19.4 C 108 19.4 107.3 19 107.3 18 C 107.3 17.7 107.5 17.4 107.7 17.1 C 108 16.9 108.3 16.8 108.6 16.8 C 108.8 16.8 109 16.8 109.3 16.9 C 109.6 17 109.8 17.1 110.1 17.1 C 110.7 17.1 111.4 17 112.2 16.8 C 112.9 16.5 113.4 16.3 113.6 16 Z " stroke="none" fill="#273582"/>  </g></svg>