<?xml version="1.0" standalone="no"?><!DOCTYPE svg PUBLIC "-//W3C//DTD SVG 1.1//EN" "http://www.w3.org/Graphics/SVG/1.1/DTD/svg11.dtd"><svg xmlns="http://www.w3.org/2000/svg" version="1.1" width="66px" height="25.1px" viewBox="0 -2 66 25.1" style="top:-2px">  <desc>O DINHEIRO SERIA COLOCADO PARA MELHORAR A SEGURAN A P BLICA, EDUCA O, SA DE E AT NA REDU O DE IMPOSTOS.</desc>  <defs/>  <g id="Polygon14900">    <path d="M 23.5 17.3 C 23.5 17.4 23.5 17.5 23.5 17.5 C 23.5 17.6 23.5 17.6 23.5 17.8 C 23.4 18 23.4 18.2 23.4 18.3 C 23.4 18.4 23.4 18.6 23.4 18.7 C 23.4 18.8 23.4 18.9 23.4 19 C 23.3 19 23.3 19 23.2 19 C 23.1 19 23.1 19 23 18.9 C 23 18.9 23 18.7 23 18.6 C 23 18.5 23 18.2 23.1 17.8 C 23.1 17.8 23.1 17.1 23.1 17.1 C 23.2 17 23.2 16.9 23.2 16.9 C 23.2 16.7 23.2 16.6 23.2 16.6 C 23.3 16.6 23.3 16.6 23.3 16.5 C 23.4 16.5 23.4 16.5 23.5 16.5 C 23.5 16.5 23.6 16.5 23.6 16.6 C 23.7 16.6 23.7 16.7 23.7 16.8 C 23.7 16.8 23.5 17.3 23.5 17.3 Z M 26.4 17.2 C 26.4 17.2 26.4 17.1 26.4 17.1 C 26.4 17.1 25.8 17.9 25.8 17.9 C 25.6 18.2 25.3 18.4 25.2 18.4 C 25.1 18.4 25.1 18.4 25 18.3 C 25 18.2 24.9 18.1 24.9 18 C 24.8 17.8 24.8 17.7 24.8 17.6 C 24.7 17.4 24.7 17.3 24.7 17.3 C 24.7 17.3 24.6 17.7 24.6 17.7 C 24.5 17.9 24.5 18 24.5 18.1 C 24.5 18.2 24.4 18.4 24.4 18.6 C 24.4 18.7 24.3 18.9 24.3 18.9 C 24.3 19 24.3 19 24.3 19 C 24.2 19.1 24.2 19.1 24.1 19.1 C 24.1 19.1 24 19.1 24 19 C 23.9 19 23.9 18.9 23.9 18.9 C 23.9 18.8 23.9 18.6 24 18.4 C 24.2 17.8 24.3 17.3 24.3 17.1 C 24.3 17 24.3 16.8 24.3 16.7 C 24.3 16.6 24.4 16.6 24.4 16.6 C 24.5 16.5 24.5 16.5 24.6 16.5 C 24.7 16.5 24.7 16.5 24.8 16.6 C 24.8 16.7 24.8 16.7 24.9 16.8 C 24.86 16.77 24.9 16.8 24.9 16.8 C 24.9 16.8 25.1 17.43 25.1 17.4 C 25.2 17.7 25.3 17.9 25.3 17.9 C 25.4 17.8 25.6 17.6 25.8 17.2 C 26.1 16.9 26.2 16.7 26.3 16.6 C 26.4 16.5 26.5 16.5 26.5 16.5 C 26.6 16.5 26.6 16.5 26.7 16.5 C 26.8 16.6 26.8 16.6 26.8 16.6 C 26.8 16.7 26.8 16.8 26.7 17.2 C 26.7 17.4 26.7 17.6 26.7 17.9 C 26.6 18.2 26.6 18.4 26.6 18.4 C 26.6 18.5 26.6 18.5 26.6 18.6 C 26.7 18.6 26.7 18.7 26.7 18.7 C 26.7 18.9 26.6 18.9 26.6 19 C 26.6 19 26.5 19 26.4 19 C 26.3 19 26.2 18.9 26.2 18.7 C 26.2 18.5 26.2 18.2 26.3 17.9 C 26.3 17.6 26.3 17.4 26.4 17.2 C 26.4 17.2 26.4 17.2 26.4 17.2 Z M 28 18.1 C 27.9 18.2 27.8 18.2 27.8 18.2 C 27.7 18.5 27.7 18.7 27.7 18.8 C 27.7 18.9 27.7 19 27.7 19 C 27.6 19.1 27.6 19.1 27.5 19.1 C 27.4 19.1 27.3 19 27.3 18.8 C 27.3 18.7 27.3 18.4 27.4 17.9 C 27.4 17.5 27.5 17.2 27.5 17.2 C 27.5 17.1 27.5 17 27.5 17 C 27.4 17 27.3 16.9 27.3 16.8 C 27.3 16.7 27.5 16.6 27.8 16.6 C 28.1 16.5 28.4 16.5 28.6 16.5 C 28.9 16.5 29.1 16.5 29.2 16.6 C 29.4 16.7 29.4 16.9 29.4 17 C 29.4 17.3 29.3 17.5 29 17.7 C 28.7 17.9 28.4 18.1 28 18.1 C 28 18.1 28 18.1 28 18.1 Z M 28.6 16.8 C 28.4 16.8 28.2 16.8 27.9 16.9 C 27.9 16.9 27.8 17.8 27.8 17.8 C 28.1 17.8 28.4 17.7 28.7 17.5 C 28.9 17.4 29 17.2 29 17.1 C 29 16.9 28.9 16.8 28.6 16.8 C 28.6 16.8 28.6 16.8 28.6 16.8 Z M 30.3 19.1 C 30.1 19.1 29.9 19 29.8 18.8 C 29.6 18.6 29.5 18.4 29.5 18.2 C 29.5 18 29.6 17.7 29.8 17.5 C 29.9 17.2 30.1 16.9 30.3 16.7 C 30.5 16.6 30.8 16.5 31 16.5 C 31.2 16.5 31.4 16.5 31.5 16.5 C 31.6 16.6 31.7 16.7 31.8 16.7 C 31.9 16.8 32 16.9 32 17 C 32.1 17.1 32.1 17.2 32.1 17.4 C 32.1 17.5 32 17.7 31.9 17.9 C 31.8 18.1 31.7 18.3 31.5 18.5 C 31.4 18.7 31.2 18.8 31 18.9 C 30.8 19 30.6 19.1 30.3 19.1 Z M 30 18.2 C 30 18.4 30 18.5 30.1 18.6 C 30.2 18.7 30.3 18.7 30.4 18.7 C 30.7 18.7 31 18.6 31.2 18.3 C 31.5 18 31.6 17.7 31.6 17.3 C 31.6 17.2 31.6 17.1 31.6 17.1 C 31.5 17 31.5 16.9 31.3 16.9 C 31.2 16.8 31.1 16.8 31 16.8 C 30.8 16.8 30.6 17 30.3 17.3 C 30.1 17.6 30 17.9 30 18.2 Z M 34.2 16.8 C 34.2 17 34.1 17.1 33.9 17.1 C 33.9 17 33.9 16.9 33.8 16.9 C 33.8 16.9 33.7 16.8 33.6 16.8 C 33.4 16.8 33.2 16.9 33 17 C 32.9 17.1 32.8 17.2 32.8 17.3 C 32.8 17.4 32.8 17.4 32.9 17.5 C 32.9 17.5 33.1 17.6 33.4 17.7 C 33.6 17.7 33.8 17.8 34 17.9 C 34.1 18 34.2 18.1 34.2 18.3 C 34.2 18.5 34 18.7 33.7 18.9 C 33.3 19 33 19.1 32.6 19.1 C 32.5 19.1 32.4 19.1 32.3 19.1 C 32.3 19 32.2 19 32.2 18.9 C 32.2 18.8 32.2 18.8 32.3 18.7 C 32.3 18.7 32.3 18.6 32.4 18.6 C 32.4 18.6 32.4 18.7 32.5 18.7 C 32.6 18.7 32.7 18.7 32.8 18.7 C 33 18.7 33.2 18.7 33.4 18.6 C 33.6 18.5 33.7 18.4 33.7 18.3 C 33.7 18.3 33.7 18.2 33.6 18.2 C 33.6 18.1 33.5 18.1 33.3 18 C 33.1 18 32.9 17.9 32.8 17.8 C 32.6 17.8 32.5 17.7 32.5 17.6 C 32.4 17.6 32.4 17.4 32.4 17.3 C 32.4 17.1 32.5 16.9 32.7 16.7 C 33 16.6 33.3 16.5 33.6 16.5 C 33.8 16.5 34 16.5 34.1 16.6 C 34.2 16.7 34.2 16.7 34.2 16.8 C 34.2 16.8 34.2 16.8 34.2 16.8 Z M 36.4 16.9 C 36.1 16.9 35.9 16.9 35.8 16.9 C 35.8 17 35.8 17 35.8 17 C 35.8 17.1 35.7 17.3 35.7 17.6 C 35.7 18 35.6 18.2 35.6 18.5 C 35.6 18.5 35.7 18.6 35.7 18.7 C 35.7 18.8 35.7 18.8 35.7 18.8 C 35.7 18.9 35.7 18.9 35.6 19 C 35.6 19 35.5 19 35.5 19 C 35.5 19 35.4 19 35.3 19 C 35.3 18.9 35.3 18.9 35.2 18.8 C 35.2 18.7 35.2 18.6 35.2 18.4 C 35.2 18.2 35.3 18 35.3 17.6 C 35.3 17.2 35.4 17 35.4 17 C 35.3 17 35.2 17 35 17 C 34.8 17 34.6 17 34.6 17 C 34.5 17 34.4 17 34.4 17 C 34.3 17 34.3 16.9 34.3 16.8 C 34.3 16.8 34.3 16.7 34.4 16.7 C 34.4 16.7 34.5 16.7 34.7 16.7 C 35.1 16.7 35.4 16.6 35.7 16.6 C 36.1 16.5 36.3 16.5 36.5 16.5 C 36.7 16.5 36.8 16.5 36.9 16.6 C 36.9 16.6 36.9 16.7 36.9 16.7 C 36.9 16.8 36.9 16.9 36.8 16.9 C 36.8 16.9 36.7 16.9 36.6 16.9 C 36.6 16.9 36.5 16.9 36.4 16.9 C 36.4 16.9 36.4 16.9 36.4 16.9 Z M 37.4 19.1 C 37.2 19.1 37.1 19 36.9 18.8 C 36.8 18.6 36.7 18.4 36.7 18.2 C 36.7 18 36.8 17.7 36.9 17.5 C 37.1 17.2 37.2 16.9 37.5 16.7 C 37.7 16.6 37.9 16.5 38.2 16.5 C 38.4 16.5 38.5 16.5 38.6 16.5 C 38.8 16.6 38.9 16.7 39 16.7 C 39.1 16.8 39.2 16.9 39.2 17 C 39.2 17.1 39.2 17.2 39.2 17.4 C 39.2 17.5 39.2 17.7 39.1 17.9 C 39 18.1 38.9 18.3 38.7 18.5 C 38.5 18.7 38.3 18.8 38.2 18.9 C 38 19 37.7 19.1 37.4 19.1 Z M 37.1 18.2 C 37.1 18.4 37.2 18.5 37.3 18.6 C 37.3 18.7 37.4 18.7 37.6 18.7 C 37.9 18.7 38.1 18.6 38.4 18.3 C 38.7 18 38.8 17.7 38.8 17.3 C 38.8 17.2 38.8 17.1 38.7 17.1 C 38.7 17 38.6 16.9 38.5 16.9 C 38.4 16.8 38.3 16.8 38.2 16.8 C 38 16.8 37.7 17 37.5 17.3 C 37.3 17.6 37.1 17.9 37.1 18.2 Z M 41.4 16.8 C 41.4 17 41.3 17.1 41.1 17.1 C 41.1 17 41.1 16.9 41 16.9 C 40.9 16.9 40.8 16.8 40.7 16.8 C 40.5 16.8 40.4 16.9 40.2 17 C 40 17.1 40 17.2 40 17.3 C 40 17.4 40 17.4 40 17.5 C 40.1 17.5 40.3 17.6 40.5 17.7 C 40.8 17.7 41 17.8 41.1 17.9 C 41.3 18 41.3 18.1 41.3 18.3 C 41.3 18.5 41.2 18.7 40.8 18.9 C 40.5 19 40.1 19.1 39.8 19.1 C 39.7 19.1 39.6 19.1 39.5 19.1 C 39.4 19 39.4 19 39.4 18.9 C 39.4 18.8 39.4 18.8 39.4 18.7 C 39.5 18.7 39.5 18.6 39.6 18.6 C 39.6 18.6 39.6 18.7 39.6 18.7 C 39.8 18.7 39.9 18.7 40 18.7 C 40.1 18.7 40.3 18.7 40.6 18.6 C 40.8 18.5 40.9 18.4 40.9 18.3 C 40.9 18.3 40.9 18.2 40.8 18.2 C 40.8 18.1 40.6 18.1 40.5 18 C 40.2 18 40 17.9 39.9 17.8 C 39.8 17.8 39.7 17.7 39.6 17.6 C 39.6 17.6 39.5 17.4 39.5 17.3 C 39.5 17.1 39.7 16.9 39.9 16.7 C 40.2 16.6 40.5 16.5 40.8 16.5 C 41 16.5 41.1 16.5 41.2 16.6 C 41.4 16.7 41.4 16.7 41.4 16.8 C 41.4 16.8 41.4 16.8 41.4 16.8 Z M 41.8 18.9 C 41.7 18.9 41.7 18.9 41.6 18.9 C 41.6 18.9 41.6 18.8 41.6 18.7 C 41.6 18.6 41.6 18.6 41.6 18.5 C 41.6 18.5 41.6 18.5 41.7 18.5 C 41.7 18.4 41.8 18.4 41.9 18.4 C 42 18.4 42 18.4 42.1 18.5 C 42.1 18.5 42.1 18.5 42.1 18.6 C 42.1 18.6 42.1 18.7 42.1 18.7 C 42.1 18.8 42 18.8 42 18.9 C 41.9 18.9 41.8 18.9 41.8 18.9 Z " stroke="none" fill="#000"/>  </g>  <g id="Polygon14899">    <path d="M 6.3 12.8 C 6.3 13 6.2 13.1 6 13.1 C 6 13 5.9 12.9 5.9 12.9 C 5.8 12.9 5.7 12.8 5.6 12.8 C 5.4 12.8 5.3 12.9 5.1 13 C 4.9 13.1 4.8 13.2 4.8 13.3 C 4.8 13.4 4.9 13.4 4.9 13.5 C 5 13.5 5.2 13.6 5.4 13.7 C 5.7 13.7 5.9 13.8 6 13.9 C 6.2 14 6.2 14.1 6.2 14.3 C 6.2 14.5 6 14.7 5.7 14.9 C 5.4 15 5 15.1 4.7 15.1 C 4.6 15.1 4.5 15.1 4.4 15.1 C 4.3 15 4.3 15 4.3 14.9 C 4.3 14.8 4.3 14.8 4.3 14.7 C 4.4 14.7 4.4 14.6 4.4 14.6 C 4.5 14.6 4.5 14.7 4.5 14.7 C 4.6 14.7 4.8 14.7 4.9 14.7 C 5 14.7 5.2 14.7 5.5 14.6 C 5.7 14.5 5.8 14.4 5.8 14.3 C 5.8 14.3 5.8 14.2 5.7 14.2 C 5.6 14.1 5.5 14.1 5.4 14 C 5.1 14 4.9 13.9 4.8 13.8 C 4.7 13.8 4.6 13.7 4.5 13.6 C 4.5 13.6 4.4 13.4 4.4 13.3 C 4.4 13.1 4.6 12.9 4.8 12.7 C 5 12.6 5.3 12.5 5.7 12.5 C 5.9 12.5 6 12.5 6.1 12.6 C 6.2 12.7 6.3 12.7 6.3 12.8 C 6.3 12.8 6.3 12.8 6.3 12.8 Z M 7.1 14.5 C 7.1 14.5 7 14.4 7 14.4 C 7 14.5 6.9 14.6 6.8 14.7 C 6.7 14.9 6.7 15 6.6 15 C 6.6 15 6.5 15 6.5 15 C 6.5 15 6.4 15 6.4 15 C 6.3 14.9 6.3 14.9 6.3 14.8 C 6.3 14.8 6.4 14.5 6.7 14.1 C 6.9 13.9 7 13.6 7.1 13.4 C 7.4 12.9 7.6 12.7 7.6 12.6 C 7.7 12.5 7.7 12.5 7.8 12.5 C 7.9 12.5 8 12.5 8 12.5 C 8 12.6 8 12.6 8 12.7 C 8 12.7 8 12.7 8 12.8 C 8.2 13.4 8.4 13.9 8.5 14.1 C 8.6 14.4 8.7 14.6 8.9 14.7 C 8.9 14.7 9 14.8 9 14.8 C 9 14.8 9 14.9 9 14.9 C 9 15 9 15 8.9 15 C 8.9 15.1 8.8 15.1 8.8 15.1 C 8.7 15.1 8.6 15.1 8.5 15 C 8.4 14.9 8.3 14.7 8.2 14.5 C 8.2 14.4 8.1 14.3 8.1 14.3 C 8.1 14.2 8.1 14.2 8.1 14.2 C 8.1 14.2 7.9 14.3 7.7 14.3 C 7.5 14.4 7.3 14.4 7.2 14.4 C 7.2 14.4 7.1 14.5 7.1 14.5 C 7.1 14.5 7.1 14.5 7.1 14.5 Z M 7.8 13.9 C 7.9 13.9 7.9 13.9 8 13.9 C 8 13.8 7.9 13.6 7.7 13.2 C 7.7 13.1 7.7 13.1 7.7 13.1 C 7.7 13.1 7.2 14 7.2 14 C 7.3 14 7.4 14 7.5 14 C 7.5 14 7.6 14 7.8 13.9 C 7.8 13.9 7.8 13.9 7.8 13.9 Z M 10.1 15.1 C 10 15.1 9.9 15 9.7 15 C 9.5 14.9 9.4 14.8 9.3 14.6 C 9.2 14.4 9.2 14.2 9.2 14 C 9.2 13.9 9.2 13.7 9.2 13.6 C 9.2 13.6 9.3 13.2 9.3 13.2 C 9.3 13.2 9.3 13.1 9.3 13.1 C 9.3 13 9.3 12.9 9.3 12.9 C 9.4 12.7 9.4 12.6 9.4 12.6 C 9.5 12.5 9.5 12.5 9.6 12.5 C 9.6 12.5 9.7 12.5 9.7 12.6 C 9.8 12.6 9.8 12.7 9.8 12.7 C 9.8 12.8 9.8 12.9 9.7 13.1 C 9.7 13.2 9.7 13.3 9.6 13.5 C 9.6 13.7 9.6 13.9 9.6 14 C 9.6 14.3 9.7 14.5 9.8 14.6 C 9.9 14.7 10 14.7 10.1 14.7 C 10.4 14.7 10.6 14.7 10.7 14.5 C 10.8 14.4 10.9 14.2 10.9 13.9 C 10.9 13.9 10.9 13.8 10.9 13.8 C 10.9 13.7 11 13.6 11 13.4 C 11 13 11 12.8 11.1 12.7 C 11.1 12.6 11.2 12.5 11.3 12.5 C 11.4 12.5 11.5 12.6 11.5 12.8 C 11.5 12.9 11.5 13 11.4 13.3 C 11.4 13.4 11.4 13.6 11.4 13.7 C 11.3 14.1 11.3 14.3 11.2 14.5 C 11.1 14.6 11 14.8 10.8 14.9 C 10.6 15 10.4 15.1 10.1 15.1 Z M 11.1 11.7 C 11.1 11.8 11 11.8 10.9 11.9 C 10.9 11.9 10.9 11.9 10.9 11.9 C 10.9 12 10.8 12 10.6 12.1 C 10.5 12.2 10.5 12.2 10.5 12.2 C 10.5 12.2 10.5 12.2 10.4 12.2 C 10.4 12.2 10.4 12.2 10.3 12.2 C 10.3 12.2 10.3 12.1 10.3 12.1 C 10.3 12 10.4 11.9 10.5 11.8 C 10.5 11.8 10.5 11.8 10.5 11.8 C 10.6 11.8 10.6 11.7 10.7 11.7 C 10.9 11.5 11 11.4 11 11.4 C 11.1 11.4 11.1 11.4 11.2 11.4 C 11.2 11.4 11.2 11.4 11.3 11.4 C 11.3 11.5 11.3 11.5 11.3 11.6 C 11.3 11.6 11.3 11.6 11.3 11.7 C 11.2 11.7 11.2 11.7 11.1 11.7 C 11.1 11.7 11.1 11.7 11.1 11.7 Z M 11.9 14.7 C 11.9 14.6 11.9 14.5 11.9 14.4 C 11.9 14 12 13.6 12 13.2 C 12 13.1 12.1 13 12.1 12.9 C 12.1 12.9 12 12.9 12 12.9 C 11.9 12.9 11.8 12.8 11.8 12.7 C 11.8 12.7 11.9 12.6 11.9 12.6 C 12 12.5 12 12.5 12.1 12.5 C 12.1 12.5 12.3 12.5 12.3 12.5 C 12.4 12.5 12.6 12.5 12.7 12.5 C 12.9 12.5 13 12.5 13.1 12.5 C 13.4 12.5 13.7 12.6 13.9 12.8 C 14.1 12.9 14.2 13.2 14.2 13.5 C 14.2 13.8 14 14.1 13.7 14.4 C 13.4 14.6 13.1 14.8 12.6 14.9 C 12.5 14.9 12.4 14.9 12.4 15 C 12.3 15 12.3 15 12.2 15 C 12.2 15.1 12.1 15.1 12 15.1 C 11.9 15.1 11.9 15.1 11.8 15 C 11.8 15 11.8 14.9 11.8 14.9 C 11.8 14.9 11.8 14.8 11.8 14.8 C 11.8 14.8 11.9 14.7 11.9 14.7 Z M 12.3 14.5 C 12.3 14.5 12.3 14.6 12.3 14.6 C 12.4 14.6 12.5 14.6 12.8 14.5 C 13.1 14.4 13.3 14.3 13.5 14.1 C 13.7 13.9 13.8 13.7 13.8 13.4 C 13.8 13.3 13.7 13.1 13.6 13 C 13.5 12.9 13.3 12.8 13.1 12.8 C 12.9 12.8 12.7 12.8 12.5 12.9 C 12.5 12.9 12.5 12.9 12.5 12.9 C 12.4 13.6 12.3 14.2 12.3 14.5 C 12.3 14.5 12.3 14.5 12.3 14.5 Z M 16.4 12.9 C 16.4 12.9 15.9 12.9 15.9 12.9 C 15.7 12.9 15.5 12.9 15.4 12.9 C 15.3 13 15.2 13 15.2 13 C 15.2 13 15.2 13 15.2 13.1 C 15.2 13.1 15.2 13.2 15.1 13.4 C 15.1 13.5 15.1 13.6 15.1 13.7 C 15.1 13.7 15.2 13.6 15.4 13.6 C 15.5 13.6 15.6 13.6 15.7 13.6 C 15.8 13.6 16 13.5 16.1 13.5 C 16.2 13.5 16.3 13.6 16.3 13.7 C 16.3 13.8 16.3 13.8 16.2 13.9 C 16.2 13.9 16.1 13.9 16 13.9 C 15.9 13.9 15.9 13.9 15.8 13.9 C 15.7 14 15.7 14 15.6 14 C 15.3 14 15.1 14 15.1 14.1 C 15.1 14.1 15.1 14.1 15.1 14.1 C 15 14.1 15 14.1 15 14.1 C 15 14.1 15 14.2 15 14.3 C 14.9 14.5 14.9 14.6 14.9 14.7 C 14.9 14.7 15 14.7 15 14.7 C 15.1 14.7 15.2 14.7 15.4 14.7 C 15.7 14.6 15.8 14.6 15.9 14.6 C 16 14.6 16.1 14.6 16.2 14.6 C 16.3 14.6 16.4 14.7 16.4 14.8 C 16.4 14.8 16.4 14.9 16.3 14.9 C 16.2 14.9 16.1 15 15.9 15 C 15.7 15 15.5 15 15.3 15 C 15.1 15.1 14.9 15.1 14.7 15.1 C 14.7 15.1 14.6 15.1 14.5 15 C 14.5 15 14.5 14.9 14.5 14.9 C 14.5 14.9 14.5 14.8 14.5 14.8 C 14.5 14.8 14.5 14.8 14.5 14.7 C 14.5 14.6 14.6 14.2 14.7 13.8 C 14.7 13.3 14.8 13 14.8 13 C 14.8 13 14.8 13 14.8 12.9 C 14.7 12.9 14.7 12.9 14.7 12.9 C 14.7 12.8 14.7 12.8 14.7 12.8 C 14.7 12.7 14.7 12.7 14.7 12.7 C 14.7 12.7 14.7 12.7 14.8 12.6 C 14.8 12.6 14.9 12.6 14.9 12.6 C 14.9 12.6 15 12.6 15.1 12.6 C 15.1 12.6 15.5 12.6 16 12.5 C 16.1 12.5 16.2 12.5 16.2 12.5 C 16.2 12.5 16.3 12.5 16.3 12.5 C 16.5 12.5 16.6 12.5 16.6 12.7 C 16.6 12.7 16.6 12.7 16.5 12.8 C 16.5 12.8 16.4 12.8 16.4 12.9 Z M 20.1 12.9 C 20.1 12.9 19.5 12.9 19.5 12.9 C 19.4 12.9 19.2 12.9 19.1 12.9 C 18.9 13 18.9 13 18.8 13 C 18.8 13 18.8 13 18.8 13.1 C 18.8 13.1 18.8 13.2 18.8 13.4 C 18.7 13.5 18.7 13.6 18.7 13.7 C 18.8 13.7 18.9 13.6 19 13.6 C 19.2 13.6 19.3 13.6 19.3 13.6 C 19.5 13.6 19.6 13.5 19.7 13.5 C 19.9 13.5 20 13.6 20 13.7 C 20 13.8 19.9 13.8 19.9 13.9 C 19.8 13.9 19.8 13.9 19.7 13.9 C 19.6 13.9 19.5 13.9 19.4 13.9 C 19.4 14 19.3 14 19.3 14 C 19 14 18.8 14 18.7 14.1 C 18.7 14.1 18.7 14.1 18.7 14.1 C 18.7 14.1 18.7 14.1 18.7 14.1 C 18.7 14.1 18.6 14.2 18.6 14.3 C 18.6 14.5 18.6 14.6 18.6 14.7 C 18.6 14.7 18.6 14.7 18.7 14.7 C 18.7 14.7 18.9 14.7 19.1 14.7 C 19.3 14.6 19.5 14.6 19.5 14.6 C 19.7 14.6 19.8 14.6 19.8 14.6 C 20 14.6 20 14.7 20 14.8 C 20 14.8 20 14.9 20 14.9 C 19.9 14.9 19.7 15 19.5 15 C 19.4 15 19.2 15 19 15 C 18.8 15.1 18.6 15.1 18.4 15.1 C 18.3 15.1 18.2 15.1 18.2 15 C 18.2 15 18.1 14.9 18.1 14.9 C 18.1 14.9 18.1 14.8 18.1 14.8 C 18.1 14.8 18.1 14.8 18.1 14.7 C 18.2 14.6 18.2 14.2 18.3 13.8 C 18.4 13.3 18.4 13 18.4 13 C 18.4 13 18.4 13 18.4 12.9 C 18.4 12.9 18.4 12.9 18.4 12.9 C 18.3 12.8 18.3 12.8 18.3 12.8 C 18.3 12.7 18.3 12.7 18.3 12.7 C 18.3 12.7 18.4 12.7 18.4 12.6 C 18.5 12.6 18.5 12.6 18.5 12.6 C 18.6 12.6 18.6 12.6 18.7 12.6 C 18.8 12.6 19.1 12.6 19.6 12.5 C 19.8 12.5 19.9 12.5 19.9 12.5 C 19.9 12.5 19.9 12.5 19.9 12.5 C 20.1 12.5 20.2 12.5 20.2 12.7 C 20.2 12.7 20.2 12.7 20.2 12.8 C 20.1 12.8 20.1 12.8 20.1 12.9 Z M 22.3 14.5 C 22.3 14.5 22.2 14.4 22.2 14.4 C 22.2 14.5 22.1 14.6 22 14.7 C 21.9 14.9 21.9 15 21.8 15 C 21.8 15 21.8 15 21.7 15 C 21.7 15 21.6 15 21.6 15 C 21.5 14.9 21.5 14.9 21.5 14.8 C 21.5 14.8 21.6 14.5 21.9 14.1 C 22.1 13.9 22.2 13.6 22.3 13.4 C 22.6 12.9 22.8 12.7 22.8 12.6 C 22.9 12.5 22.9 12.5 23 12.5 C 23.1 12.5 23.2 12.5 23.2 12.5 C 23.2 12.6 23.2 12.6 23.2 12.7 C 23.2 12.7 23.2 12.7 23.2 12.8 C 23.4 13.4 23.6 13.9 23.7 14.1 C 23.8 14.4 24 14.6 24.1 14.7 C 24.1 14.7 24.2 14.8 24.2 14.8 C 24.2 14.8 24.2 14.9 24.2 14.9 C 24.2 15 24.2 15 24.1 15 C 24.1 15.1 24 15.1 24 15.1 C 23.9 15.1 23.8 15.1 23.7 15 C 23.6 14.9 23.5 14.7 23.5 14.5 C 23.4 14.4 23.3 14.3 23.3 14.3 C 23.3 14.2 23.3 14.2 23.3 14.2 C 23.3 14.2 23.1 14.3 22.9 14.3 C 22.7 14.4 22.5 14.4 22.4 14.4 C 22.4 14.4 22.3 14.5 22.3 14.5 C 22.3 14.5 22.3 14.5 22.3 14.5 Z M 23 13.9 C 23.1 13.9 23.1 13.9 23.2 13.9 C 23.2 13.8 23.1 13.6 23 13.2 C 22.9 13.1 22.9 13.1 22.9 13.1 C 22.9 13.1 22.4 14 22.4 14 C 22.5 14 22.6 14 22.7 14 C 22.7 14 22.8 14 23 13.9 C 23 13.9 23 13.9 23 13.9 Z M 26.1 12.9 C 25.8 12.9 25.6 12.9 25.5 12.9 C 25.5 13 25.5 13 25.5 13 C 25.5 13.1 25.4 13.3 25.4 13.6 C 25.4 14 25.3 14.2 25.3 14.5 C 25.3 14.5 25.4 14.6 25.4 14.7 C 25.4 14.8 25.4 14.8 25.4 14.8 C 25.4 14.9 25.4 14.9 25.3 15 C 25.3 15 25.3 15 25.2 15 C 25.2 15 25.1 15 25.1 15 C 25 14.9 25 14.9 25 14.8 C 24.9 14.7 24.9 14.6 24.9 14.4 C 24.9 14.2 25 14 25 13.6 C 25 13.2 25.1 13 25.1 13 C 25.1 13 24.9 13 24.7 13 C 24.5 13 24.3 13 24.3 13 C 24.2 13 24.1 13 24.1 13 C 24 13 24 12.9 24 12.8 C 24 12.8 24 12.7 24.1 12.7 C 24.1 12.7 24.2 12.7 24.4 12.7 C 24.8 12.7 25.1 12.6 25.4 12.6 C 25.8 12.5 26 12.5 26.2 12.5 C 26.4 12.5 26.5 12.5 26.6 12.6 C 26.6 12.6 26.7 12.7 26.7 12.7 C 26.7 12.8 26.6 12.9 26.5 12.9 C 26.5 12.9 26.4 12.9 26.4 12.9 C 26.3 12.9 26.2 12.9 26.1 12.9 C 26.1 12.9 26.1 12.9 26.1 12.9 Z M 28.4 12.9 C 28.4 12.9 27.9 12.9 27.9 12.9 C 27.7 12.9 27.6 12.9 27.4 12.9 C 27.3 13 27.2 13 27.2 13 C 27.2 13 27.2 13 27.2 13.1 C 27.2 13.1 27.2 13.2 27.1 13.4 C 27.1 13.5 27.1 13.6 27.1 13.7 C 27.1 13.7 27.2 13.6 27.4 13.6 C 27.5 13.6 27.6 13.6 27.7 13.6 C 27.8 13.6 28 13.5 28.1 13.5 C 28.2 13.5 28.3 13.6 28.3 13.7 C 28.3 13.8 28.3 13.8 28.3 13.9 C 28.2 13.9 28.1 13.9 28 13.9 C 28 13.9 27.9 13.9 27.8 13.9 C 27.8 14 27.7 14 27.6 14 C 27.3 14 27.1 14 27.1 14.1 C 27.1 14.1 27.1 14.1 27.1 14.1 C 27.1 14.1 27 14.1 27 14.1 C 27 14.1 27 14.2 27 14.3 C 27 14.5 26.9 14.6 26.9 14.7 C 26.9 14.7 27 14.7 27 14.7 C 27.1 14.7 27.2 14.7 27.4 14.7 C 27.7 14.6 27.8 14.6 27.9 14.6 C 28 14.6 28.1 14.6 28.2 14.6 C 28.3 14.6 28.4 14.7 28.4 14.8 C 28.4 14.8 28.4 14.9 28.4 14.9 C 28.2 14.9 28.1 15 27.9 15 C 27.7 15 27.5 15 27.3 15 C 27.1 15.1 26.9 15.1 26.8 15.1 C 26.7 15.1 26.6 15.1 26.6 15 C 26.5 15 26.5 14.9 26.5 14.9 C 26.5 14.9 26.5 14.8 26.5 14.8 C 26.5 14.8 26.5 14.8 26.5 14.7 C 26.5 14.6 26.6 14.2 26.7 13.8 C 26.7 13.3 26.8 13 26.8 13 C 26.8 13 26.8 13 26.8 12.9 C 26.8 12.9 26.7 12.9 26.7 12.9 C 26.7 12.8 26.7 12.8 26.7 12.8 C 26.7 12.7 26.7 12.7 26.7 12.7 C 26.7 12.7 26.7 12.7 26.8 12.6 C 26.8 12.6 26.9 12.6 26.9 12.6 C 26.9 12.6 27 12.6 27.1 12.6 C 27.2 12.6 27.5 12.6 28 12.5 C 28.2 12.5 28.2 12.5 28.3 12.5 C 28.3 12.5 28.3 12.5 28.3 12.5 C 28.5 12.5 28.6 12.5 28.6 12.7 C 28.6 12.7 28.6 12.7 28.5 12.8 C 28.5 12.8 28.5 12.8 28.4 12.9 Z M 28.4 11.8 C 28.3 11.8 28.2 11.9 28.1 12 C 28.1 12 28.1 12 28.1 12 C 28.1 12 28 12.1 27.8 12.2 C 27.7 12.2 27.7 12.2 27.7 12.3 C 27.7 12.3 27.7 12.3 27.7 12.3 C 27.6 12.3 27.6 12.3 27.6 12.2 C 27.5 12.2 27.5 12.2 27.5 12.1 C 27.5 12.1 27.6 12 27.8 11.8 C 27.8 11.8 27.8 11.8 27.8 11.8 C 27.8 11.8 27.8 11.8 27.9 11.7 C 28.1 11.6 28.2 11.5 28.3 11.4 C 28.3 11.4 28.3 11.4 28.4 11.4 C 28.4 11.4 28.4 11.4 28.5 11.5 C 28.5 11.5 28.5 11.6 28.5 11.6 C 28.5 11.6 28.5 11.7 28.5 11.7 C 28.4 11.7 28.4 11.8 28.4 11.8 C 28.4 11.8 28.4 11.8 28.4 11.8 Z M 30.2 14.4 C 30.2 14.4 30.31 13.83 30.3 13.8 C 30.4 13.4 30.5 13.1 30.5 12.9 C 30.5 12.8 30.5 12.7 30.5 12.7 C 30.5 12.7 30.5 12.6 30.6 12.6 C 30.6 12.6 30.7 12.6 30.7 12.6 C 30.7 12.6 30.8 12.6 30.8 12.6 C 30.9 12.6 30.9 12.7 30.9 12.8 C 31 13 31.1 13.3 31.3 13.6 C 31.5 13.9 31.7 14.2 31.8 14.4 C 31.9 14.2 31.9 13.9 32 13.6 C 32 13.4 32.1 13.2 32.1 13 C 32.1 12.9 32.1 12.8 32.1 12.7 C 32.1 12.6 32.2 12.5 32.2 12.5 C 32.3 12.4 32.3 12.4 32.4 12.4 C 32.4 12.4 32.5 12.5 32.5 12.5 C 32.5 12.6 32.6 12.6 32.6 12.7 C 32.6 12.8 32.5 12.9 32.5 13 C 32.4 13.2 32.4 13.6 32.3 14 C 32.2 14.4 32.2 14.6 32.2 14.7 C 32.2 14.7 32.2 14.7 32.2 14.7 C 32.2 14.8 32.2 14.9 32.2 14.9 C 32.2 14.9 32.1 14.9 32.1 15 C 32.1 15 32 15 31.9 15 C 31.9 15 31.9 15 31.8 15 C 31.8 15 31.8 15 31.8 14.9 C 31.7 14.9 31.7 14.8 31.7 14.8 C 31.6 14.7 31.6 14.6 31.5 14.6 C 31.3 14.2 31 13.8 30.8 13.4 C 30.7 13.5 30.7 13.9 30.6 14.4 C 30.6 14.4 30.6 14.5 30.6 14.5 C 30.6 14.6 30.6 14.7 30.6 14.8 C 30.5 14.9 30.5 15 30.5 15 C 30.4 15.1 30.4 15.1 30.3 15.1 C 30.2 15.1 30.2 15.1 30.2 15 C 30.1 15 30.1 14.9 30.1 14.8 C 30.1 14.7 30.1 14.6 30.2 14.4 C 30.18 14.42 30.2 14.4 30.2 14.4 Z M 33.4 14.5 C 33.4 14.5 33.4 14.4 33.3 14.4 C 33.3 14.5 33.2 14.6 33.1 14.7 C 33 14.9 33 15 32.9 15 C 32.9 15 32.9 15 32.8 15 C 32.8 15 32.7 15 32.7 15 C 32.6 14.9 32.6 14.9 32.6 14.8 C 32.6 14.8 32.7 14.5 33 14.1 C 33.2 13.9 33.3 13.6 33.5 13.4 C 33.7 12.9 33.9 12.7 33.9 12.6 C 34 12.5 34.1 12.5 34.1 12.5 C 34.2 12.5 34.3 12.5 34.3 12.5 C 34.3 12.6 34.4 12.6 34.4 12.7 C 34.4 12.7 34.3 12.7 34.3 12.8 C 34.5 13.4 34.7 13.9 34.8 14.1 C 34.9 14.4 35.1 14.6 35.2 14.7 C 35.2 14.7 35.3 14.8 35.3 14.8 C 35.3 14.8 35.3 14.9 35.3 14.9 C 35.3 15 35.3 15 35.2 15 C 35.2 15.1 35.1 15.1 35.1 15.1 C 35 15.1 34.9 15.1 34.8 15 C 34.7 14.9 34.6 14.7 34.6 14.5 C 34.5 14.4 34.4 14.3 34.4 14.3 C 34.4 14.2 34.4 14.2 34.4 14.2 C 34.4 14.2 34.2 14.3 34 14.3 C 33.8 14.4 33.6 14.4 33.5 14.4 C 33.5 14.4 33.5 14.5 33.4 14.5 C 33.4 14.5 33.4 14.5 33.4 14.5 Z M 34.2 13.9 C 34.2 13.9 34.3 13.9 34.3 13.9 C 34.3 13.8 34.2 13.6 34.1 13.2 C 34.1 13.1 34 13.1 34 13.1 C 34 13.1 33.6 14 33.6 14 C 33.6 14 33.7 14 33.8 14 C 33.8 14 34 14 34.2 13.9 C 34.2 13.9 34.2 13.9 34.2 13.9 Z M 37.1 12.9 C 37.1 12.9 37.06 12.88 37.1 12.9 C 37 12.8 37 12.8 37 12.7 C 37 12.7 37 12.6 37.1 12.6 C 37.1 12.6 37.2 12.5 37.2 12.5 C 37.3 12.5 37.3 12.5 37.3 12.6 C 37.4 12.6 37.4 12.6 37.4 12.6 C 37.7 12.5 38 12.5 38.1 12.5 C 38.3 12.5 38.5 12.5 38.7 12.7 C 38.8 12.8 38.9 12.9 38.9 13.1 C 38.9 13.3 38.8 13.4 38.7 13.6 C 38.5 13.7 38.4 13.9 38.1 14 C 38.5 14.3 38.8 14.5 39 14.6 C 39.1 14.7 39.1 14.7 39.1 14.8 C 39.1 14.9 39.1 14.9 39.1 14.9 C 39 15 39 15 38.9 15 C 38.9 15 38.8 15 38.7 14.9 C 38.6 14.9 38.5 14.8 38.3 14.7 C 38.2 14.5 38.1 14.5 38.1 14.4 C 37.9 14.3 37.7 14.1 37.6 14.1 C 37.5 14.1 37.4 14 37.4 13.9 C 37.4 13.8 37.4 13.8 37.5 13.8 C 37.6 13.7 37.6 13.7 37.7 13.7 C 37.7 13.7 37.7 13.7 37.7 13.7 C 37.8 13.7 37.8 13.7 37.8 13.7 C 37.9 13.7 38 13.6 38.2 13.5 C 38.4 13.4 38.5 13.3 38.5 13.1 C 38.5 13 38.5 13 38.4 12.9 C 38.3 12.8 38.2 12.8 38.1 12.8 C 37.9 12.8 37.8 12.8 37.7 12.8 C 37.6 12.9 37.5 12.9 37.5 12.9 C 37.5 12.9 37.5 12.9 37.5 12.9 C 37.5 13 37.5 13.1 37.4 13.3 C 37.4 13.5 37.4 13.7 37.3 14 C 37.3 14.2 37.3 14.4 37.3 14.5 C 37.3 14.6 37.3 14.6 37.3 14.7 C 37.3 14.8 37.3 14.8 37.3 14.9 C 37.3 14.9 37.3 14.9 37.2 15 C 37.2 15 37.1 15.1 37.1 15.1 C 36.9 15.1 36.8 15 36.8 14.7 C 36.8 14.6 36.9 14.3 36.9 14 C 36.9 13.7 37 13.4 37 13.1 C 37 13.1 37.1 13.1 37.1 13 C 37.06 13.04 37.1 12.9 37.1 12.9 Z M 41.3 12.9 C 41.3 12.9 40.7 12.9 40.7 12.9 C 40.6 12.9 40.4 12.9 40.3 12.9 C 40.1 13 40.1 13 40.1 13 C 40 13 40 13 40 13.1 C 40 13.1 40 13.2 40 13.4 C 39.9 13.5 39.9 13.6 39.9 13.7 C 40 13.7 40.1 13.6 40.2 13.6 C 40.4 13.6 40.5 13.6 40.5 13.6 C 40.7 13.6 40.8 13.5 40.9 13.5 C 41.1 13.5 41.2 13.6 41.2 13.7 C 41.2 13.8 41.2 13.8 41.1 13.9 C 41.1 13.9 41 13.9 40.9 13.9 C 40.8 13.9 40.7 13.9 40.6 13.9 C 40.6 14 40.5 14 40.5 14 C 40.2 14 40 14 39.9 14.1 C 39.9 14.1 39.9 14.1 39.9 14.1 C 39.9 14.1 39.9 14.1 39.9 14.1 C 39.9 14.1 39.8 14.2 39.8 14.3 C 39.8 14.5 39.8 14.6 39.8 14.7 C 39.8 14.7 39.8 14.7 39.9 14.7 C 39.9 14.7 40.1 14.7 40.3 14.7 C 40.5 14.6 40.7 14.6 40.7 14.6 C 40.9 14.6 41 14.6 41 14.6 C 41.2 14.6 41.3 14.7 41.3 14.8 C 41.3 14.8 41.2 14.9 41.2 14.9 C 41.1 14.9 40.9 15 40.7 15 C 40.6 15 40.4 15 40.2 15 C 40 15.1 39.8 15.1 39.6 15.1 C 39.5 15.1 39.4 15.1 39.4 15 C 39.4 15 39.3 14.9 39.3 14.9 C 39.3 14.9 39.3 14.8 39.3 14.8 C 39.3 14.8 39.3 14.8 39.4 14.7 C 39.4 14.6 39.5 14.2 39.5 13.8 C 39.6 13.3 39.6 13 39.6 13 C 39.6 13 39.6 13 39.6 12.9 C 39.6 12.9 39.6 12.9 39.6 12.9 C 39.5 12.8 39.5 12.8 39.5 12.8 C 39.5 12.7 39.5 12.7 39.5 12.7 C 39.6 12.7 39.6 12.7 39.6 12.6 C 39.7 12.6 39.7 12.6 39.7 12.6 C 39.8 12.6 39.9 12.6 39.9 12.6 C 40 12.6 40.3 12.6 40.8 12.5 C 41 12.5 41.1 12.5 41.1 12.5 C 41.1 12.5 41.1 12.5 41.1 12.5 C 41.3 12.5 41.4 12.5 41.4 12.7 C 41.4 12.7 41.4 12.7 41.4 12.8 C 41.3 12.8 41.3 12.8 41.3 12.9 Z M 41.7 14.7 C 41.7 14.6 41.8 14.5 41.8 14.4 C 41.8 14 41.8 13.6 41.9 13.2 C 41.9 13.1 41.9 13 41.9 12.9 C 41.9 12.9 41.9 12.9 41.9 12.9 C 41.8 12.9 41.7 12.8 41.7 12.7 C 41.7 12.7 41.7 12.6 41.8 12.6 C 41.8 12.5 41.9 12.5 42 12.5 C 42 12.5 42.2 12.5 42.2 12.5 C 42.3 12.5 42.4 12.5 42.6 12.5 C 42.8 12.5 42.9 12.5 43 12.5 C 43.3 12.5 43.6 12.6 43.8 12.8 C 44 12.9 44.1 13.2 44.1 13.5 C 44.1 13.8 43.9 14.1 43.6 14.4 C 43.3 14.6 42.9 14.8 42.5 14.9 C 42.4 14.9 42.3 14.9 42.3 15 C 42.2 15 42.2 15 42.1 15 C 42 15.1 42 15.1 41.9 15.1 C 41.8 15.1 41.8 15.1 41.7 15 C 41.7 15 41.7 14.9 41.7 14.9 C 41.7 14.9 41.7 14.8 41.7 14.8 C 41.7 14.8 41.7 14.7 41.7 14.7 Z M 42.2 14.5 C 42.2 14.5 42.2 14.6 42.2 14.6 C 42.2 14.6 42.4 14.6 42.7 14.5 C 43 14.4 43.2 14.3 43.4 14.1 C 43.6 13.9 43.7 13.7 43.7 13.4 C 43.7 13.3 43.6 13.1 43.5 13 C 43.3 12.9 43.2 12.8 42.9 12.8 C 42.8 12.8 42.6 12.8 42.4 12.9 C 42.4 12.9 42.4 12.9 42.4 12.9 C 42.2 13.6 42.2 14.2 42.2 14.5 C 42.2 14.5 42.2 14.5 42.2 14.5 Z M 45.3 15.1 C 45.2 15.1 45.1 15 44.9 15 C 44.7 14.9 44.6 14.8 44.5 14.6 C 44.4 14.4 44.4 14.2 44.4 14 C 44.4 13.9 44.4 13.7 44.4 13.6 C 44.4 13.6 44.5 13.2 44.5 13.2 C 44.5 13.2 44.5 13.1 44.5 13.1 C 44.5 13 44.5 12.9 44.6 12.9 C 44.6 12.7 44.6 12.6 44.6 12.6 C 44.7 12.5 44.7 12.5 44.8 12.5 C 44.9 12.5 44.9 12.5 44.9 12.6 C 45 12.6 45 12.7 45 12.7 C 45 12.8 45 12.9 44.9 13.1 C 44.9 13.2 44.9 13.3 44.9 13.5 C 44.8 13.7 44.8 13.9 44.8 14 C 44.8 14.3 44.9 14.5 45 14.6 C 45.1 14.7 45.2 14.7 45.3 14.7 C 45.6 14.7 45.8 14.7 45.9 14.5 C 46 14.4 46.1 14.2 46.1 13.9 C 46.1 13.9 46.1 13.8 46.2 13.8 C 46.2 13.7 46.2 13.6 46.2 13.4 C 46.2 13 46.2 12.8 46.3 12.7 C 46.4 12.6 46.4 12.5 46.5 12.5 C 46.6 12.5 46.7 12.6 46.7 12.8 C 46.7 12.9 46.7 13 46.6 13.3 C 46.6 13.4 46.6 13.6 46.6 13.7 C 46.6 14.1 46.5 14.3 46.4 14.5 C 46.4 14.6 46.2 14.8 46 14.9 C 45.8 15 45.6 15.1 45.3 15.1 Z M 47.6 15.1 C 47.6 15.1 47.6 15.1 47.6 15.1 C 47.6 15.2 47.6 15.2 47.6 15.2 C 47.6 15.2 47.7 15.2 47.7 15.2 C 47.8 15.3 47.9 15.3 47.9 15.3 C 48 15.4 48 15.5 48 15.6 C 48 15.7 47.9 15.8 47.8 15.9 C 47.7 16 47.6 16 47.4 16 C 47.3 16 47.3 16 47.2 16 C 47.1 16 47.1 16 47.1 15.9 C 47 15.9 47 15.8 47 15.8 C 47 15.7 47 15.7 47 15.7 C 47 15.6 47.1 15.6 47.1 15.6 C 47.2 15.6 47.2 15.7 47.3 15.7 C 47.3 15.7 47.3 15.7 47.3 15.7 C 47.4 15.8 47.4 15.8 47.4 15.8 C 47.5 15.8 47.5 15.7 47.6 15.7 C 47.6 15.7 47.7 15.6 47.7 15.6 C 47.7 15.5 47.6 15.5 47.6 15.5 C 47.6 15.5 47.5 15.5 47.5 15.5 C 47.4 15.5 47.4 15.5 47.4 15.5 C 47.3 15.5 47.2 15.5 47.2 15.4 C 47.2 15.3 47.3 15.2 47.3 15.2 C 47.3 15.1 47.3 15.1 47.3 15 C 47.1 14.9 46.9 14.7 46.9 14.3 C 46.9 13.9 47.1 13.4 47.5 13 C 47.9 12.6 48.3 12.4 48.7 12.4 C 48.8 12.4 48.9 12.4 49 12.5 C 49.1 12.6 49.2 12.7 49.2 12.8 C 49.2 13 49.1 13.1 49.1 13.1 C 49.1 13.2 49 13.2 49 13.2 C 48.9 13.3 48.9 13.3 48.8 13.3 C 48.8 13.3 48.7 13.3 48.7 13.3 C 48.7 13.2 48.7 13.2 48.7 13.1 C 48.7 13.1 48.7 13 48.7 13 C 48.7 12.9 48.7 12.8 48.7 12.8 C 48.7 12.7 48.7 12.7 48.6 12.7 C 48.5 12.7 48.3 12.8 48.1 12.9 C 47.9 13.1 47.7 13.3 47.6 13.6 C 47.4 13.8 47.3 14.1 47.3 14.3 C 47.3 14.4 47.4 14.5 47.5 14.6 C 47.5 14.7 47.7 14.8 47.8 14.8 C 47.9 14.8 48 14.7 48.1 14.7 C 48.3 14.6 48.4 14.6 48.5 14.5 C 48.6 14.4 48.7 14.4 48.7 14.4 C 48.8 14.4 48.9 14.4 48.9 14.5 C 48.9 14.6 48.7 14.7 48.4 14.9 C 48.2 15.1 47.9 15.1 47.6 15.1 Z M 49.9 14.5 C 49.8 14.5 49.8 14.4 49.8 14.4 C 49.7 14.5 49.7 14.6 49.6 14.7 C 49.5 14.9 49.4 15 49.4 15 C 49.3 15 49.3 15 49.3 15 C 49.2 15 49.2 15 49.1 15 C 49.1 14.9 49 14.9 49 14.8 C 49 14.8 49.2 14.5 49.5 14.1 C 49.6 13.9 49.8 13.6 49.9 13.4 C 50.2 12.9 50.3 12.7 50.4 12.6 C 50.4 12.5 50.5 12.5 50.6 12.5 C 50.6 12.5 50.7 12.5 50.8 12.5 C 50.8 12.6 50.8 12.6 50.8 12.7 C 50.8 12.7 50.8 12.7 50.8 12.8 C 51 13.4 51.2 13.9 51.3 14.1 C 51.4 14.4 51.5 14.6 51.6 14.7 C 51.7 14.7 51.7 14.8 51.7 14.8 C 51.7 14.8 51.8 14.9 51.8 14.9 C 51.8 15 51.7 15 51.7 15 C 51.6 15.1 51.6 15.1 51.5 15.1 C 51.4 15.1 51.3 15.1 51.3 15 C 51.2 14.9 51.1 14.7 51 14.5 C 50.9 14.4 50.9 14.3 50.9 14.3 C 50.9 14.2 50.9 14.2 50.9 14.2 C 50.8 14.2 50.7 14.3 50.5 14.3 C 50.3 14.4 50.1 14.4 50 14.4 C 49.9 14.4 49.9 14.5 49.9 14.5 C 49.9 14.5 49.9 14.5 49.9 14.5 Z M 50.6 13.9 C 50.6 13.9 50.7 13.9 50.8 13.9 C 50.7 13.8 50.6 13.6 50.5 13.2 C 50.5 13.1 50.5 13.1 50.5 13.1 C 50.5 13.1 50 14 50 14 C 50.1 14 50.1 14 50.2 14 C 50.3 14 50.4 14 50.6 13.9 C 50.6 13.9 50.6 13.9 50.6 13.9 Z M 51 12.1 C 50.9 12.1 50.8 12.1 50.8 12.1 C 50.7 12.1 50.7 12 50.6 12 C 50.6 12 50.6 11.9 50.6 11.9 C 50.6 11.9 50.6 11.9 50.5 11.9 C 50.5 11.8 50.4 11.8 50.4 11.8 C 50.3 11.8 50.3 11.9 50.2 12 C 50.2 12 50.2 12 50.2 12 C 50.1 12.1 50.1 12.1 50 12.1 C 50 12.1 50 12.2 49.9 12.2 C 49.9 12.2 49.8 12.1 49.8 12 C 49.8 11.9 49.9 11.8 50 11.7 C 50.1 11.5 50.3 11.5 50.4 11.5 C 50.4 11.5 50.5 11.5 50.6 11.5 C 50.6 11.5 50.6 11.6 50.7 11.6 C 50.8 11.7 50.8 11.7 50.9 11.8 C 50.9 11.8 51 11.8 51 11.8 C 51 11.8 51.1 11.8 51.1 11.7 C 51.1 11.7 51.1 11.6 51.2 11.6 C 51.2 11.6 51.2 11.6 51.2 11.6 C 51.2 11.5 51.3 11.5 51.3 11.5 C 51.4 11.5 51.4 11.6 51.4 11.7 C 51.4 11.7 51.4 11.8 51.3 11.9 C 51.2 12.1 51.1 12.1 51 12.1 C 51 12.1 51 12.1 51 12.1 Z M 52.6 15.1 C 52.4 15.1 52.2 15 52.1 14.8 C 51.9 14.6 51.9 14.4 51.9 14.2 C 51.9 14 51.9 13.7 52.1 13.5 C 52.2 13.2 52.4 12.9 52.6 12.7 C 52.8 12.6 53.1 12.5 53.3 12.5 C 53.5 12.5 53.7 12.5 53.8 12.5 C 53.9 12.6 54 12.7 54.1 12.7 C 54.2 12.8 54.3 12.9 54.3 13 C 54.4 13.1 54.4 13.2 54.4 13.4 C 54.4 13.5 54.4 13.7 54.3 13.9 C 54.2 14.1 54 14.3 53.9 14.5 C 53.7 14.7 53.5 14.8 53.3 14.9 C 53.1 15 52.9 15.1 52.6 15.1 Z M 52.3 14.2 C 52.3 14.4 52.3 14.5 52.4 14.6 C 52.5 14.7 52.6 14.7 52.7 14.7 C 53 14.7 53.3 14.6 53.6 14.3 C 53.8 14 54 13.7 54 13.3 C 54 13.2 53.9 13.1 53.9 13.1 C 53.9 13 53.8 12.9 53.7 12.9 C 53.6 12.8 53.5 12.8 53.3 12.8 C 53.1 12.8 52.9 13 52.6 13.3 C 52.4 13.6 52.3 13.9 52.3 14.2 Z M 56.1 14.7 C 56.1 14.6 56.1 14.5 56.1 14.4 C 56.1 14 56.2 13.6 56.3 13.2 C 56.3 13.1 56.3 13 56.3 12.9 C 56.3 12.9 56.3 12.9 56.3 12.9 C 56.1 12.9 56.1 12.8 56.1 12.7 C 56.1 12.7 56.1 12.6 56.1 12.6 C 56.2 12.5 56.3 12.5 56.3 12.5 C 56.3 12.5 56.5 12.5 56.5 12.5 C 56.6 12.5 56.8 12.5 57 12.5 C 57.1 12.5 57.3 12.5 57.4 12.5 C 57.7 12.5 57.9 12.6 58.1 12.8 C 58.3 12.9 58.4 13.2 58.4 13.5 C 58.4 13.8 58.3 14.1 58 14.4 C 57.7 14.6 57.3 14.8 56.9 14.9 C 56.7 14.9 56.7 14.9 56.6 15 C 56.6 15 56.5 15 56.5 15 C 56.4 15.1 56.3 15.1 56.2 15.1 C 56.2 15.1 56.1 15.1 56.1 15 C 56 15 56 14.9 56 14.9 C 56 14.9 56 14.8 56 14.8 C 56 14.8 56.1 14.7 56.1 14.7 Z M 56.5 14.5 C 56.5 14.5 56.5 14.6 56.5 14.6 C 56.6 14.6 56.8 14.6 57 14.5 C 57.3 14.4 57.6 14.3 57.7 14.1 C 57.9 13.9 58 13.7 58 13.4 C 58 13.3 57.9 13.1 57.8 13 C 57.7 12.9 57.5 12.8 57.3 12.8 C 57.1 12.8 57 12.8 56.8 12.9 C 56.7 12.9 56.7 12.9 56.7 12.9 C 56.6 13.6 56.5 14.2 56.5 14.5 C 56.5 14.5 56.5 14.5 56.5 14.5 Z M 60.6 12.9 C 60.6 12.9 60.1 12.9 60.1 12.9 C 59.9 12.9 59.8 12.9 59.6 12.9 C 59.5 13 59.4 13 59.4 13 C 59.4 13 59.4 13 59.4 13.1 C 59.4 13.1 59.4 13.2 59.3 13.4 C 59.3 13.5 59.3 13.6 59.3 13.7 C 59.4 13.7 59.5 13.6 59.6 13.6 C 59.7 13.6 59.8 13.6 59.9 13.6 C 60.1 13.6 60.2 13.5 60.3 13.5 C 60.5 13.5 60.5 13.6 60.5 13.7 C 60.5 13.8 60.5 13.8 60.5 13.9 C 60.4 13.9 60.3 13.9 60.2 13.9 C 60.2 13.9 60.1 13.9 60 13.9 C 60 14 59.9 14 59.9 14 C 59.5 14 59.4 14 59.3 14.1 C 59.3 14.1 59.3 14.1 59.3 14.1 C 59.3 14.1 59.3 14.1 59.2 14.1 C 59.2 14.1 59.2 14.2 59.2 14.3 C 59.2 14.5 59.2 14.6 59.2 14.7 C 59.2 14.7 59.2 14.7 59.2 14.7 C 59.3 14.7 59.4 14.7 59.7 14.7 C 59.9 14.6 60 14.6 60.1 14.6 C 60.3 14.6 60.4 14.6 60.4 14.6 C 60.6 14.6 60.6 14.7 60.6 14.8 C 60.6 14.8 60.6 14.9 60.6 14.9 C 60.5 14.9 60.3 15 60.1 15 C 59.9 15 59.8 15 59.5 15 C 59.3 15.1 59.1 15.1 59 15.1 C 58.9 15.1 58.8 15.1 58.8 15 C 58.7 15 58.7 14.9 58.7 14.9 C 58.7 14.9 58.7 14.8 58.7 14.8 C 58.7 14.8 58.7 14.8 58.7 14.7 C 58.8 14.6 58.8 14.2 58.9 13.8 C 59 13.3 59 13 59 13 C 59 13 59 13 59 12.9 C 59 12.9 59 12.9 58.9 12.9 C 58.9 12.8 58.9 12.8 58.9 12.8 C 58.9 12.7 58.9 12.7 58.9 12.7 C 58.9 12.7 58.9 12.7 59 12.6 C 59 12.6 59.1 12.6 59.1 12.6 C 59.2 12.6 59.2 12.6 59.3 12.6 C 59.4 12.6 59.7 12.6 60.2 12.5 C 60.4 12.5 60.5 12.5 60.5 12.5 C 60.5 12.5 60.5 12.5 60.5 12.5 C 60.7 12.5 60.8 12.5 60.8 12.7 C 60.8 12.7 60.8 12.7 60.7 12.8 C 60.7 12.8 60.7 12.8 60.6 12.9 Z " stroke="none" fill="#000"/>  </g>  <g id="Polygon14898">    <path d="M 3.4 8.8 C 3.4 9 3.3 9.1 3.1 9.1 C 3.1 9 3.1 8.9 3 8.9 C 3 8.9 2.9 8.8 2.8 8.8 C 2.6 8.8 2.4 8.9 2.2 9 C 2.1 9.1 2 9.2 2 9.3 C 2 9.4 2 9.4 2.1 9.5 C 2.1 9.5 2.3 9.6 2.6 9.7 C 2.8 9.7 3 9.8 3.2 9.9 C 3.3 10 3.4 10.1 3.4 10.3 C 3.4 10.5 3.2 10.7 2.9 10.9 C 2.5 11 2.2 11.1 1.8 11.1 C 1.7 11.1 1.6 11.1 1.5 11.1 C 1.5 11 1.4 11 1.4 10.9 C 1.4 10.8 1.4 10.8 1.5 10.7 C 1.5 10.7 1.5 10.6 1.6 10.6 C 1.6 10.6 1.6 10.7 1.7 10.7 C 1.8 10.7 1.9 10.7 2 10.7 C 2.2 10.7 2.4 10.7 2.6 10.6 C 2.8 10.5 2.9 10.4 2.9 10.3 C 2.9 10.3 2.9 10.2 2.9 10.2 C 2.8 10.1 2.7 10.1 2.5 10 C 2.3 10 2.1 9.9 2 9.8 C 1.8 9.8 1.7 9.7 1.7 9.6 C 1.6 9.6 1.6 9.4 1.6 9.3 C 1.6 9.1 1.7 8.9 1.9 8.7 C 2.2 8.6 2.5 8.5 2.8 8.5 C 3 8.5 3.2 8.5 3.3 8.6 C 3.4 8.7 3.4 8.7 3.4 8.8 C 3.4 8.8 3.4 8.8 3.4 8.8 Z M 5.7 8.9 C 5.7 8.9 5.1 8.9 5.1 8.9 C 4.9 8.9 4.8 8.9 4.7 8.9 C 4.5 9 4.4 9 4.4 9 C 4.4 9 4.4 9 4.4 9.1 C 4.4 9.1 4.4 9.2 4.4 9.4 C 4.3 9.5 4.3 9.6 4.3 9.7 C 4.4 9.7 4.5 9.6 4.6 9.6 C 4.8 9.6 4.8 9.6 4.9 9.6 C 5.1 9.6 5.2 9.5 5.3 9.5 C 5.5 9.5 5.6 9.6 5.6 9.7 C 5.6 9.8 5.5 9.8 5.5 9.9 C 5.4 9.9 5.4 9.9 5.2 9.9 C 5.2 9.9 5.1 9.9 5 9.9 C 5 10 4.9 10 4.9 10 C 4.5 10 4.4 10 4.3 10.1 C 4.3 10.1 4.3 10.1 4.3 10.1 C 4.3 10.1 4.3 10.1 4.3 10.1 C 4.2 10.1 4.2 10.2 4.2 10.3 C 4.2 10.5 4.2 10.6 4.2 10.7 C 4.2 10.7 4.2 10.7 4.2 10.7 C 4.3 10.7 4.4 10.7 4.7 10.7 C 4.9 10.6 5.1 10.6 5.1 10.6 C 5.3 10.6 5.4 10.6 5.4 10.6 C 5.6 10.6 5.6 10.7 5.6 10.8 C 5.6 10.8 5.6 10.9 5.6 10.9 C 5.5 10.9 5.3 11 5.1 11 C 5 11 4.8 11 4.5 11 C 4.3 11.1 4.2 11.1 4 11.1 C 3.9 11.1 3.8 11.1 3.8 11 C 3.7 11 3.7 10.9 3.7 10.9 C 3.7 10.9 3.7 10.8 3.7 10.8 C 3.7 10.8 3.7 10.8 3.7 10.7 C 3.8 10.6 3.8 10.2 3.9 9.8 C 4 9.3 4 9 4 9 C 4 9 4 9 4 8.9 C 4 8.9 4 8.9 3.9 8.9 C 3.9 8.8 3.9 8.8 3.9 8.8 C 3.9 8.7 3.9 8.7 3.9 8.7 C 3.9 8.7 4 8.7 4 8.6 C 4 8.6 4.1 8.6 4.1 8.6 C 4.2 8.6 4.2 8.6 4.3 8.6 C 4.4 8.6 4.7 8.6 5.2 8.5 C 5.4 8.5 5.5 8.5 5.5 8.5 C 5.5 8.5 5.5 8.5 5.5 8.5 C 5.7 8.5 5.8 8.5 5.8 8.7 C 5.8 8.7 5.8 8.7 5.8 8.8 C 5.7 8.8 5.7 8.8 5.7 8.9 Z M 8.2 9.9 C 8.2 9.9 8.1 10 8.1 10.1 C 8.1 10.1 8.1 10.1 8.1 10.1 C 8.1 10.2 8.1 10.3 8 10.5 C 8 10.7 8 10.8 8 10.8 C 8 11 8 11.1 8 11.1 C 8 11.2 8 11.2 8 11.2 C 7.9 11.3 7.9 11.3 7.9 11.3 C 7.9 11.3 7.8 11.3 7.8 11.3 C 7.7 11.3 7.7 11.3 7.6 11.3 C 7.6 11.2 7.5 11.2 7.5 11.1 C 7.5 11.1 7.6 11 7.6 10.9 C 7.6 10.7 7.6 10.6 7.7 10.5 C 7.3 10.8 6.9 11 6.6 11 C 6.4 11 6.3 10.9 6.1 10.8 C 6 10.7 6 10.5 6 10.3 C 6 10 6.1 9.7 6.3 9.4 C 6.3 9.4 6.3 9.4 6.3 9.4 C 6.5 9.1 6.7 8.8 7 8.6 C 7.3 8.4 7.6 8.4 7.8 8.4 C 8 8.4 8.1 8.4 8.2 8.4 C 8.3 8.5 8.3 8.6 8.3 8.6 C 8.3 8.7 8.3 8.8 8.2 8.9 C 8.2 9 8.1 9 8.1 9 C 8 9 8 9 8 9 C 8 9 7.9 8.9 7.9 8.9 C 7.9 8.8 7.9 8.8 7.8 8.8 C 7.8 8.8 7.8 8.7 7.7 8.7 C 7.6 8.7 7.4 8.8 7.1 9 C 6.9 9.2 6.7 9.4 6.6 9.6 C 6.4 9.8 6.4 10.1 6.4 10.3 C 6.4 10.5 6.5 10.6 6.7 10.6 C 6.8 10.6 6.9 10.6 7 10.5 C 7.2 10.5 7.3 10.4 7.5 10.3 C 7.6 10.2 7.7 10.1 7.7 10 C 7.8 9.9 7.8 9.8 7.8 9.7 C 7.8 9.6 7.8 9.6 7.9 9.6 C 7.9 9.5 8 9.5 8 9.5 C 8.2 9.5 8.3 9.6 8.3 9.7 C 8.3 9.7 8.2 9.8 8.2 9.9 C 8.2 9.9 8.2 9.9 8.2 9.9 Z M 9.6 11.1 C 9.5 11.1 9.4 11 9.2 11 C 9 10.9 8.9 10.8 8.8 10.6 C 8.7 10.4 8.7 10.2 8.7 10 C 8.7 9.9 8.7 9.7 8.8 9.6 C 8.8 9.6 8.8 9.2 8.8 9.2 C 8.8 9.2 8.8 9.1 8.8 9.1 C 8.8 9 8.9 8.9 8.9 8.9 C 8.9 8.7 8.9 8.6 9 8.6 C 9 8.5 9.1 8.5 9.1 8.5 C 9.2 8.5 9.2 8.5 9.3 8.6 C 9.3 8.6 9.3 8.7 9.3 8.7 C 9.3 8.8 9.3 8.9 9.2 9.1 C 9.2 9.2 9.2 9.3 9.2 9.5 C 9.1 9.7 9.1 9.9 9.1 10 C 9.1 10.3 9.2 10.5 9.3 10.6 C 9.4 10.7 9.5 10.7 9.6 10.7 C 9.9 10.7 10.1 10.7 10.2 10.5 C 10.3 10.4 10.4 10.2 10.4 9.9 C 10.5 9.9 10.5 9.8 10.5 9.8 C 10.5 9.7 10.5 9.6 10.5 9.4 C 10.5 9 10.6 8.8 10.6 8.7 C 10.7 8.6 10.7 8.5 10.8 8.5 C 11 8.5 11 8.6 11 8.8 C 11 8.9 11 9 10.9 9.3 C 10.9 9.4 10.9 9.6 10.9 9.7 C 10.9 10.1 10.8 10.3 10.8 10.5 C 10.7 10.6 10.5 10.8 10.3 10.9 C 10.2 11 9.9 11.1 9.6 11.1 Z M 11.5 8.9 C 11.5 8.9 11.51 8.88 11.5 8.9 C 11.5 8.8 11.5 8.8 11.5 8.7 C 11.5 8.7 11.5 8.6 11.5 8.6 C 11.6 8.6 11.6 8.5 11.7 8.5 C 11.7 8.5 11.7 8.5 11.8 8.6 C 11.8 8.6 11.8 8.6 11.8 8.6 C 12.2 8.5 12.4 8.5 12.5 8.5 C 12.8 8.5 13 8.5 13.1 8.7 C 13.3 8.8 13.4 8.9 13.4 9.1 C 13.4 9.3 13.3 9.4 13.1 9.6 C 13 9.7 12.8 9.9 12.6 10 C 13 10.3 13.3 10.5 13.5 10.6 C 13.6 10.7 13.6 10.7 13.6 10.8 C 13.6 10.9 13.6 10.9 13.5 10.9 C 13.5 11 13.4 11 13.4 11 C 13.3 11 13.2 11 13.1 10.9 C 13.1 10.9 12.9 10.8 12.8 10.7 C 12.6 10.5 12.5 10.5 12.5 10.4 C 12.3 10.3 12.1 10.1 12 10.1 C 11.9 10.1 11.9 10 11.9 9.9 C 11.9 9.8 11.9 9.8 11.9 9.8 C 12 9.7 12.1 9.7 12.1 9.7 C 12.2 9.7 12.2 9.7 12.2 9.7 C 12.2 9.7 12.2 9.7 12.2 9.7 C 12.3 9.7 12.4 9.6 12.6 9.5 C 12.8 9.4 12.9 9.3 12.9 9.1 C 12.9 9 12.9 9 12.8 8.9 C 12.7 8.8 12.6 8.8 12.5 8.8 C 12.4 8.8 12.2 8.8 12.1 8.8 C 12 8.9 12 8.9 12 8.9 C 12 8.9 12 8.9 12 8.9 C 11.9 9 11.9 9.1 11.9 9.3 C 11.8 9.5 11.8 9.7 11.8 10 C 11.7 10.2 11.7 10.4 11.7 10.5 C 11.7 10.6 11.7 10.6 11.7 10.7 C 11.8 10.8 11.8 10.8 11.8 10.9 C 11.8 10.9 11.7 10.9 11.7 11 C 11.6 11 11.6 11.1 11.5 11.1 C 11.4 11.1 11.3 11 11.3 10.7 C 11.3 10.6 11.3 10.3 11.3 10 C 11.4 9.7 11.4 9.4 11.5 9.1 C 11.5 9.1 11.5 9.1 11.5 9 C 11.51 9.04 11.5 8.9 11.5 8.9 Z M 14.3 10.5 C 14.3 10.5 14.2 10.4 14.2 10.4 C 14.2 10.5 14.1 10.6 14 10.7 C 13.9 10.9 13.9 11 13.8 11 C 13.8 11 13.8 11 13.7 11 C 13.7 11 13.6 11 13.6 11 C 13.5 10.9 13.5 10.9 13.5 10.8 C 13.5 10.8 13.6 10.5 13.9 10.1 C 14.1 9.9 14.2 9.6 14.4 9.4 C 14.6 8.9 14.8 8.7 14.8 8.6 C 14.9 8.5 14.9 8.5 15 8.5 C 15.1 8.5 15.2 8.5 15.2 8.5 C 15.2 8.6 15.2 8.6 15.2 8.7 C 15.2 8.7 15.2 8.7 15.2 8.8 C 15.4 9.4 15.6 9.9 15.7 10.1 C 15.8 10.4 16 10.6 16.1 10.7 C 16.1 10.7 16.2 10.8 16.2 10.8 C 16.2 10.8 16.2 10.9 16.2 10.9 C 16.2 11 16.2 11 16.1 11 C 16.1 11.1 16 11.1 16 11.1 C 15.9 11.1 15.8 11.1 15.7 11 C 15.6 10.9 15.5 10.7 15.5 10.5 C 15.4 10.4 15.3 10.3 15.3 10.3 C 15.3 10.2 15.3 10.2 15.3 10.2 C 15.3 10.2 15.1 10.3 14.9 10.3 C 14.7 10.4 14.5 10.4 14.4 10.4 C 14.4 10.4 14.3 10.5 14.3 10.5 C 14.3 10.5 14.3 10.5 14.3 10.5 Z M 15.1 9.9 C 15.1 9.9 15.2 9.9 15.2 9.9 C 15.2 9.8 15.1 9.6 15 9.2 C 15 9.1 14.9 9.1 14.9 9.1 C 14.9 9.1 14.5 10 14.5 10 C 14.5 10 14.6 10 14.7 10 C 14.7 10 14.9 10 15.1 9.9 C 15.1 9.9 15.1 9.9 15.1 9.9 Z M 16.5 10.4 C 16.5 10.4 16.6 9.83 16.6 9.8 C 16.7 9.4 16.7 9.1 16.8 8.9 C 16.8 8.8 16.8 8.7 16.8 8.7 C 16.8 8.7 16.8 8.6 16.8 8.6 C 16.9 8.6 16.9 8.6 17 8.6 C 17 8.6 17.1 8.6 17.1 8.6 C 17.2 8.6 17.2 8.7 17.2 8.8 C 17.3 9 17.4 9.3 17.6 9.6 C 17.8 9.9 18 10.2 18.1 10.4 C 18.2 10.2 18.2 9.9 18.3 9.6 C 18.3 9.4 18.4 9.2 18.4 9 C 18.4 8.9 18.4 8.8 18.4 8.7 C 18.4 8.6 18.5 8.5 18.5 8.5 C 18.6 8.4 18.6 8.4 18.7 8.4 C 18.7 8.4 18.8 8.5 18.8 8.5 C 18.8 8.6 18.9 8.6 18.9 8.7 C 18.9 8.8 18.8 8.9 18.8 9 C 18.7 9.2 18.7 9.6 18.6 10 C 18.5 10.4 18.5 10.6 18.5 10.7 C 18.5 10.7 18.5 10.7 18.5 10.7 C 18.5 10.8 18.5 10.9 18.5 10.9 C 18.5 10.9 18.4 10.9 18.4 11 C 18.3 11 18.3 11 18.2 11 C 18.2 11 18.1 11 18.1 11 C 18.1 11 18.1 11 18.1 10.9 C 18 10.9 18 10.8 18 10.8 C 17.9 10.7 17.9 10.6 17.8 10.6 C 17.6 10.2 17.3 9.8 17 9.4 C 17 9.5 17 9.9 16.9 10.4 C 16.9 10.4 16.9 10.5 16.9 10.5 C 16.9 10.6 16.9 10.7 16.8 10.8 C 16.8 10.9 16.8 11 16.8 11 C 16.7 11.1 16.7 11.1 16.6 11.1 C 16.5 11.1 16.5 11.1 16.5 11 C 16.4 11 16.4 10.9 16.4 10.8 C 16.4 10.7 16.4 10.6 16.5 10.4 C 16.47 10.42 16.5 10.4 16.5 10.4 Z M 19.8 11.1 C 19.8 11.1 19.8 11.1 19.8 11.1 C 19.7 11.2 19.7 11.2 19.7 11.2 C 19.8 11.2 19.9 11.2 19.9 11.2 C 20 11.3 20.1 11.3 20.1 11.3 C 20.2 11.4 20.2 11.5 20.2 11.6 C 20.2 11.7 20.1 11.8 20 11.9 C 19.9 12 19.7 12 19.6 12 C 19.5 12 19.4 12 19.4 12 C 19.3 12 19.3 12 19.3 11.9 C 19.2 11.9 19.1 11.8 19.1 11.8 C 19.1 11.7 19.2 11.7 19.2 11.7 C 19.2 11.6 19.3 11.6 19.3 11.6 C 19.4 11.6 19.4 11.7 19.5 11.7 C 19.5 11.7 19.5 11.7 19.5 11.7 C 19.6 11.8 19.6 11.8 19.6 11.8 C 19.7 11.8 19.7 11.7 19.8 11.7 C 19.8 11.7 19.8 11.6 19.8 11.6 C 19.8 11.5 19.8 11.5 19.8 11.5 C 19.8 11.5 19.7 11.5 19.7 11.5 C 19.6 11.5 19.6 11.5 19.5 11.5 C 19.4 11.5 19.4 11.5 19.4 11.4 C 19.4 11.3 19.4 11.2 19.5 11.2 C 19.5 11.1 19.5 11.1 19.5 11 C 19.2 10.9 19.1 10.7 19.1 10.3 C 19.1 9.9 19.3 9.4 19.7 9 C 20.1 8.6 20.5 8.4 20.8 8.4 C 21 8.4 21.1 8.4 21.2 8.5 C 21.3 8.6 21.3 8.7 21.3 8.8 C 21.3 9 21.3 9.1 21.3 9.1 C 21.3 9.2 21.2 9.2 21.2 9.2 C 21.1 9.3 21.1 9.3 21 9.3 C 21 9.3 20.9 9.3 20.9 9.3 C 20.9 9.2 20.9 9.2 20.9 9.1 C 20.9 9.1 20.9 9 20.9 9 C 20.9 8.9 20.9 8.8 20.9 8.8 C 20.9 8.7 20.9 8.7 20.8 8.7 C 20.7 8.7 20.5 8.8 20.3 8.9 C 20.1 9.1 19.9 9.3 19.8 9.6 C 19.6 9.8 19.5 10.1 19.5 10.3 C 19.5 10.4 19.6 10.5 19.6 10.6 C 19.7 10.7 19.8 10.8 20 10.8 C 20.1 10.8 20.2 10.7 20.3 10.7 C 20.4 10.6 20.6 10.6 20.7 10.5 C 20.8 10.4 20.9 10.4 20.9 10.4 C 21 10.4 21 10.4 21 10.5 C 21 10.6 20.9 10.7 20.6 10.9 C 20.4 11.1 20.1 11.1 19.8 11.1 Z M 22.1 10.5 C 22 10.5 22 10.4 22 10.4 C 21.9 10.5 21.9 10.6 21.8 10.7 C 21.7 10.9 21.6 11 21.6 11 C 21.5 11 21.5 11 21.5 11 C 21.4 11 21.4 11 21.3 11 C 21.3 10.9 21.2 10.9 21.2 10.8 C 21.2 10.8 21.4 10.5 21.7 10.1 C 21.8 9.9 22 9.6 22.1 9.4 C 22.3 8.9 22.5 8.7 22.6 8.6 C 22.6 8.5 22.7 8.5 22.7 8.5 C 22.8 8.5 22.9 8.5 22.9 8.5 C 23 8.6 23 8.6 23 8.7 C 23 8.7 23 8.7 23 8.8 C 23.2 9.4 23.3 9.9 23.5 10.1 C 23.6 10.4 23.7 10.6 23.8 10.7 C 23.9 10.7 23.9 10.8 23.9 10.8 C 23.9 10.8 23.9 10.9 23.9 10.9 C 23.9 11 23.9 11 23.9 11 C 23.8 11.1 23.8 11.1 23.7 11.1 C 23.6 11.1 23.5 11.1 23.4 11 C 23.4 10.9 23.3 10.7 23.2 10.5 C 23.1 10.4 23.1 10.3 23.1 10.3 C 23.1 10.2 23.1 10.2 23.1 10.2 C 23 10.2 22.9 10.3 22.7 10.3 C 22.4 10.4 22.3 10.4 22.1 10.4 C 22.1 10.4 22.1 10.5 22.1 10.5 C 22.1 10.5 22.1 10.5 22.1 10.5 Z M 22.8 9.9 C 22.8 9.9 22.9 9.9 22.9 9.9 C 22.9 9.8 22.8 9.6 22.7 9.2 C 22.7 9.1 22.7 9.1 22.7 9.1 C 22.7 9.1 22.2 10 22.2 10 C 22.3 10 22.3 10 22.4 10 C 22.5 10 22.6 10 22.8 9.9 C 22.8 9.9 22.8 9.9 22.8 9.9 Z M 26.3 10.1 C 26.1 10.2 26 10.2 26 10.2 C 26 10.5 26 10.7 26 10.8 C 26 10.9 26 11 25.9 11 C 25.9 11.1 25.8 11.1 25.8 11.1 C 25.6 11.1 25.6 11 25.6 10.8 C 25.6 10.7 25.6 10.4 25.7 9.9 C 25.7 9.5 25.7 9.2 25.7 9.2 C 25.7 9.1 25.7 9 25.7 9 C 25.6 9 25.6 8.9 25.6 8.8 C 25.6 8.7 25.8 8.6 26.1 8.6 C 26.4 8.5 26.6 8.5 26.9 8.5 C 27.1 8.5 27.3 8.5 27.5 8.6 C 27.6 8.7 27.7 8.9 27.7 9 C 27.7 9.3 27.6 9.5 27.3 9.7 C 27 9.9 26.7 10.1 26.3 10.1 C 26.3 10.1 26.3 10.1 26.3 10.1 Z M 26.9 8.8 C 26.6 8.8 26.4 8.8 26.2 8.9 C 26.2 8.9 26.1 9.8 26.1 9.8 C 26.4 9.8 26.7 9.7 26.9 9.5 C 27.2 9.4 27.3 9.2 27.3 9.1 C 27.3 8.9 27.2 8.8 26.9 8.8 C 26.9 8.8 26.9 8.8 26.9 8.8 Z M 28.9 11.1 C 28.7 11.1 28.6 11 28.4 11 C 28.3 10.9 28.1 10.8 28 10.6 C 28 10.4 27.9 10.2 27.9 10 C 27.9 9.9 27.9 9.7 28 9.6 C 28 9.6 28 9.2 28 9.2 C 28 9.2 28 9.1 28 9.1 C 28.1 9 28.1 8.9 28.1 8.9 C 28.1 8.7 28.1 8.6 28.2 8.6 C 28.2 8.5 28.3 8.5 28.3 8.5 C 28.4 8.5 28.4 8.5 28.5 8.6 C 28.5 8.6 28.5 8.7 28.5 8.7 C 28.5 8.8 28.5 8.9 28.5 9.1 C 28.4 9.2 28.4 9.3 28.4 9.5 C 28.3 9.7 28.3 9.9 28.3 10 C 28.3 10.3 28.4 10.5 28.5 10.6 C 28.6 10.7 28.8 10.7 28.8 10.7 C 29.1 10.7 29.3 10.7 29.4 10.5 C 29.6 10.4 29.6 10.2 29.7 9.9 C 29.7 9.9 29.7 9.8 29.7 9.8 C 29.7 9.7 29.7 9.6 29.7 9.4 C 29.7 9 29.8 8.8 29.8 8.7 C 29.9 8.6 29.9 8.5 30 8.5 C 30.2 8.5 30.2 8.6 30.2 8.8 C 30.2 8.9 30.2 9 30.2 9.3 C 30.1 9.4 30.1 9.6 30.1 9.7 C 30.1 10.1 30 10.3 30 10.5 C 29.9 10.6 29.8 10.8 29.6 10.9 C 29.4 11 29.1 11.1 28.9 11.1 Z M 29.9 7.7 C 29.8 7.8 29.7 7.8 29.6 7.9 C 29.6 7.9 29.6 7.9 29.6 7.9 C 29.6 8 29.5 8 29.3 8.1 C 29.3 8.2 29.2 8.2 29.2 8.2 C 29.2 8.2 29.2 8.2 29.2 8.2 C 29.1 8.2 29.1 8.2 29.1 8.2 C 29.1 8.2 29 8.1 29 8.1 C 29 8 29.1 7.9 29.3 7.8 C 29.3 7.8 29.3 7.8 29.3 7.8 C 29.3 7.8 29.4 7.7 29.4 7.7 C 29.6 7.5 29.7 7.4 29.8 7.4 C 29.8 7.4 29.9 7.4 29.9 7.4 C 29.9 7.4 30 7.4 30 7.4 C 30 7.5 30.1 7.5 30.1 7.6 C 30.1 7.6 30 7.6 30 7.7 C 30 7.7 29.9 7.7 29.9 7.7 C 29.9 7.7 29.9 7.7 29.9 7.7 Z M 32.1 9.6 C 32.4 9.7 32.5 9.7 32.6 9.9 C 32.6 10 32.7 10.1 32.7 10.2 C 32.7 10.4 32.5 10.6 32.2 10.8 C 32 11.1 31.7 11.2 31.4 11.2 C 31.2 11.2 31.1 11.1 31.1 11 C 31.1 10.9 31.2 10.8 31.5 10.8 C 31.5 10.8 31.5 10.8 31.5 10.8 C 31.7 10.8 31.8 10.7 32 10.6 C 32.1 10.4 32.2 10.3 32.2 10.2 C 32.2 10.1 32.2 10 32.1 10 C 32 9.9 32 9.9 31.8 9.9 C 31.8 9.9 31.8 9.9 31.7 9.9 C 31.6 10 31.6 10 31.5 10 C 31.4 10 31.3 10 31.3 9.9 C 31.3 9.9 31.3 9.9 31.3 9.8 C 31.3 9.7 31.4 9.6 31.6 9.5 C 31.7 9.5 31.9 9.4 32 9.3 C 32.1 9.2 32.2 9 32.2 9 C 32.2 8.8 32.1 8.8 32 8.8 C 31.8 8.8 31.7 8.8 31.5 8.8 C 31.4 8.9 31.3 8.9 31.3 9 C 31.2 9 31.2 9.3 31.1 9.7 C 31.1 10.2 31 10.5 31 10.6 C 31 10.6 31 10.8 31 10.8 C 31 10.9 31 11 30.9 11 C 30.9 11.1 30.8 11.1 30.8 11.1 C 30.6 11.1 30.6 11 30.6 10.8 C 30.6 10.7 30.6 10.7 30.6 10.6 C 30.6 10.4 30.7 10.1 30.7 9.7 C 30.8 9.4 30.8 9.2 30.8 9.2 C 30.8 9.1 30.8 9.1 30.8 9.1 C 30.8 9.1 30.7 9.1 30.7 9.1 C 30.7 9.1 30.7 9.1 30.6 9 C 30.6 9 30.6 9 30.6 9 C 30.6 9 30.6 8.9 30.6 8.9 C 30.6 8.8 30.7 8.7 31 8.6 C 31.4 8.5 31.7 8.4 32 8.4 C 32.2 8.4 32.4 8.5 32.5 8.6 C 32.6 8.7 32.7 8.8 32.7 8.9 C 32.7 9 32.6 9.1 32.6 9.2 C 32.5 9.3 32.3 9.4 32.1 9.6 Z M 34.7 10.9 C 34.6 10.9 34.6 10.9 34.5 10.9 C 34.4 10.9 34.4 10.9 34.4 10.9 C 34.1 10.9 33.7 10.9 33.5 11 C 33.3 11 33.2 11.1 33.2 11.1 C 33.1 11.1 33.1 11 33 11 C 33 10.9 33 10.9 33 10.8 C 33 10.8 33 10.8 33 10.7 C 33 10.6 33.1 10.4 33.1 10.3 C 33.1 10.3 33.2 8.9 33.2 8.9 C 33.2 8.8 33.2 8.7 33.3 8.6 C 33.3 8.6 33.3 8.6 33.3 8.5 C 33.4 8.5 33.4 8.5 33.5 8.5 C 33.6 8.5 33.6 8.5 33.6 8.5 C 33.7 8.6 33.7 8.6 33.7 8.7 C 33.7 8.7 33.7 8.8 33.7 8.9 C 33.6 9.1 33.6 9.4 33.5 9.8 C 33.5 10.3 33.5 10.5 33.5 10.5 C 33.5 10.6 33.5 10.6 33.5 10.6 C 33.5 10.6 33.6 10.6 33.8 10.5 C 33.9 10.5 34 10.5 34.1 10.5 C 34.4 10.5 34.6 10.5 34.7 10.5 C 34.7 10.5 34.7 10.5 34.8 10.5 C 34.8 10.5 34.9 10.5 34.9 10.5 C 34.9 10.5 35 10.6 35 10.6 C 35 10.7 34.9 10.8 34.9 10.8 C 34.8 10.9 34.7 10.9 34.7 10.9 Z M 35.7 9.3 C 35.7 9.4 35.7 9.5 35.7 9.5 C 35.7 9.6 35.7 9.6 35.7 9.8 C 35.6 10 35.6 10.2 35.6 10.3 C 35.6 10.4 35.6 10.6 35.6 10.7 C 35.6 10.8 35.6 10.9 35.6 11 C 35.5 11 35.4 11 35.4 11 C 35.3 11 35.2 11 35.2 10.9 C 35.2 10.9 35.2 10.7 35.2 10.6 C 35.2 10.5 35.2 10.2 35.2 9.8 C 35.2 9.8 35.3 9.1 35.3 9.1 C 35.4 9 35.4 8.9 35.4 8.9 C 35.4 8.7 35.4 8.6 35.4 8.6 C 35.4 8.6 35.5 8.6 35.5 8.5 C 35.6 8.5 35.6 8.5 35.7 8.5 C 35.7 8.5 35.8 8.5 35.8 8.6 C 35.8 8.6 35.9 8.7 35.9 8.8 C 35.9 8.8 35.7 9.3 35.7 9.3 Z M 37.7 10.5 C 37.8 10.4 37.9 10.4 37.9 10.4 C 38 10.4 38 10.4 38 10.5 C 38 10.6 37.9 10.7 37.7 10.9 C 37.4 11 37.2 11.1 36.9 11.1 C 36.7 11.1 36.5 11.1 36.4 10.9 C 36.2 10.8 36.1 10.6 36.1 10.3 C 36.1 10.1 36.2 9.8 36.4 9.4 C 36.5 9.1 36.8 8.9 37 8.7 C 37.3 8.5 37.6 8.4 37.8 8.4 C 38 8.4 38.1 8.4 38.2 8.5 C 38.3 8.6 38.3 8.7 38.3 8.8 C 38.3 8.9 38.3 9 38.3 9.1 C 38.3 9.2 38.2 9.2 38.2 9.2 C 38.1 9.3 38 9.3 38 9.3 C 38 9.3 37.9 9.3 37.9 9.3 C 37.9 9.2 37.8 9.2 37.8 9.1 C 37.8 9.1 37.9 9 37.9 9 C 37.9 8.9 37.9 8.8 37.9 8.8 C 37.9 8.7 37.9 8.7 37.8 8.7 C 37.7 8.7 37.5 8.8 37.3 8.9 C 37.1 9.1 36.9 9.3 36.7 9.6 C 36.6 9.9 36.5 10.1 36.5 10.3 C 36.5 10.4 36.6 10.5 36.6 10.6 C 36.7 10.7 36.8 10.8 37 10.8 C 37.1 10.8 37.2 10.7 37.3 10.7 C 37.4 10.6 37.6 10.6 37.7 10.5 C 37.7 10.5 37.7 10.5 37.7 10.5 Z M 39 10.5 C 39 10.5 39 10.4 38.9 10.4 C 38.9 10.5 38.9 10.6 38.8 10.7 C 38.7 10.9 38.6 11 38.6 11 C 38.5 11 38.5 11 38.5 11 C 38.4 11 38.4 11 38.3 11 C 38.3 10.9 38.2 10.9 38.2 10.8 C 38.2 10.8 38.4 10.5 38.7 10.1 C 38.8 9.9 39 9.6 39.1 9.4 C 39.3 8.9 39.5 8.7 39.6 8.6 C 39.6 8.5 39.7 8.5 39.7 8.5 C 39.8 8.5 39.9 8.5 39.9 8.5 C 40 8.6 40 8.6 40 8.7 C 40 8.7 40 8.7 40 8.8 C 40.2 9.4 40.3 9.9 40.5 10.1 C 40.6 10.4 40.7 10.6 40.8 10.7 C 40.9 10.7 40.9 10.8 40.9 10.8 C 40.9 10.8 40.9 10.9 40.9 10.9 C 40.9 11 40.9 11 40.9 11 C 40.8 11.1 40.8 11.1 40.7 11.1 C 40.6 11.1 40.5 11.1 40.4 11 C 40.3 10.9 40.3 10.7 40.2 10.5 C 40.1 10.4 40.1 10.3 40.1 10.3 C 40.1 10.2 40.1 10.2 40.1 10.2 C 40 10.2 39.9 10.3 39.6 10.3 C 39.4 10.4 39.3 10.4 39.1 10.4 C 39.1 10.4 39.1 10.5 39 10.5 C 39 10.5 39 10.5 39 10.5 Z M 39.8 9.9 C 39.8 9.9 39.9 9.9 39.9 9.9 C 39.9 9.8 39.8 9.6 39.7 9.2 C 39.7 9.1 39.7 9.1 39.7 9.1 C 39.7 9.1 39.2 10 39.2 10 C 39.2 10 39.3 10 39.4 10 C 39.4 10 39.6 10 39.8 9.9 C 39.8 9.9 39.8 9.9 39.8 9.9 Z M 41.2 11.3 C 41.2 11.2 41.2 11.2 41.2 11.2 C 41.3 11.2 41.3 11.2 41.4 11.1 C 41.5 11.1 41.6 11 41.6 10.9 C 41.6 10.9 41.7 10.8 41.7 10.8 C 41.7 10.7 41.6 10.6 41.6 10.6 C 41.6 10.6 41.6 10.6 41.6 10.5 C 41.6 10.5 41.6 10.5 41.6 10.4 C 41.7 10.4 41.7 10.4 41.7 10.4 C 41.8 10.4 41.8 10.4 41.9 10.4 C 41.9 10.4 42 10.5 42 10.5 C 42 10.5 42 10.5 42 10.6 C 42.1 10.7 42.1 10.7 42.1 10.8 C 42.1 10.8 42 10.9 42 11 C 41.9 11.1 41.9 11.2 41.8 11.2 C 41.7 11.3 41.7 11.3 41.6 11.3 C 41.6 11.3 41.6 11.3 41.5 11.3 C 41.4 11.4 41.3 11.4 41.3 11.4 C 41.2 11.4 41.2 11.4 41.2 11.3 C 41.2 11.3 41.2 11.3 41.2 11.3 Z M 45.6 8.9 C 45.6 8.9 45.1 8.9 45.1 8.9 C 44.9 8.9 44.7 8.9 44.6 8.9 C 44.5 9 44.4 9 44.4 9 C 44.4 9 44.4 9 44.4 9.1 C 44.4 9.1 44.3 9.2 44.3 9.4 C 44.3 9.5 44.3 9.6 44.3 9.7 C 44.3 9.7 44.4 9.6 44.6 9.6 C 44.7 9.6 44.8 9.6 44.9 9.6 C 45 9.6 45.2 9.5 45.2 9.5 C 45.4 9.5 45.5 9.6 45.5 9.7 C 45.5 9.8 45.5 9.8 45.4 9.9 C 45.4 9.9 45.3 9.9 45.2 9.9 C 45.1 9.9 45.1 9.9 45 9.9 C 44.9 10 44.9 10 44.8 10 C 44.5 10 44.3 10 44.3 10.1 C 44.3 10.1 44.3 10.1 44.3 10.1 C 44.2 10.1 44.2 10.1 44.2 10.1 C 44.2 10.1 44.2 10.2 44.2 10.3 C 44.1 10.5 44.1 10.6 44.1 10.7 C 44.1 10.7 44.2 10.7 44.2 10.7 C 44.3 10.7 44.4 10.7 44.6 10.7 C 44.9 10.6 45 10.6 45.1 10.6 C 45.2 10.6 45.3 10.6 45.4 10.6 C 45.5 10.6 45.6 10.7 45.6 10.8 C 45.6 10.8 45.6 10.9 45.5 10.9 C 45.4 10.9 45.3 11 45.1 11 C 44.9 11 44.7 11 44.5 11 C 44.3 11.1 44.1 11.1 43.9 11.1 C 43.8 11.1 43.8 11.1 43.7 11 C 43.7 11 43.7 10.9 43.7 10.9 C 43.7 10.9 43.7 10.8 43.7 10.8 C 43.7 10.8 43.7 10.8 43.7 10.7 C 43.7 10.6 43.8 10.2 43.9 9.8 C 43.9 9.3 44 9 44 9 C 44 9 44 9 43.9 8.9 C 43.9 8.9 43.9 8.9 43.9 8.9 C 43.9 8.8 43.9 8.8 43.9 8.8 C 43.9 8.7 43.9 8.7 43.9 8.7 C 43.9 8.7 43.9 8.7 44 8.6 C 44 8.6 44 8.6 44.1 8.6 C 44.1 8.6 44.2 8.6 44.2 8.6 C 44.3 8.6 44.6 8.6 45.2 8.5 C 45.3 8.5 45.4 8.5 45.4 8.5 C 45.4 8.5 45.5 8.5 45.5 8.5 C 45.7 8.5 45.8 8.5 45.8 8.7 C 45.8 8.7 45.8 8.7 45.7 8.8 C 45.7 8.8 45.6 8.8 45.6 8.9 Z M 46.1 10.7 C 46.1 10.6 46.1 10.5 46.1 10.4 C 46.1 10 46.2 9.6 46.2 9.2 C 46.3 9.1 46.3 9 46.3 8.9 C 46.3 8.9 46.3 8.9 46.2 8.9 C 46.1 8.9 46.1 8.8 46.1 8.7 C 46.1 8.7 46.1 8.6 46.1 8.6 C 46.2 8.5 46.2 8.5 46.3 8.5 C 46.3 8.5 46.5 8.5 46.5 8.5 C 46.6 8.5 46.8 8.5 47 8.5 C 47.1 8.5 47.2 8.5 47.3 8.5 C 47.7 8.5 47.9 8.6 48.1 8.8 C 48.3 8.9 48.4 9.2 48.4 9.5 C 48.4 9.8 48.3 10.1 48 10.4 C 47.7 10.6 47.3 10.8 46.9 10.9 C 46.7 10.9 46.7 10.9 46.6 11 C 46.6 11 46.5 11 46.4 11 C 46.4 11.1 46.3 11.1 46.2 11.1 C 46.2 11.1 46.1 11.1 46.1 11 C 46 11 46 10.9 46 10.9 C 46 10.9 46 10.8 46 10.8 C 46 10.8 46.1 10.7 46.1 10.7 Z M 46.5 10.5 C 46.5 10.5 46.5 10.6 46.5 10.6 C 46.6 10.6 46.8 10.6 47 10.5 C 47.3 10.4 47.6 10.3 47.7 10.1 C 47.9 9.9 48 9.7 48 9.4 C 48 9.3 47.9 9.1 47.8 9 C 47.7 8.9 47.5 8.8 47.3 8.8 C 47.1 8.8 47 8.8 46.8 8.9 C 46.7 8.9 46.7 8.9 46.7 8.9 C 46.6 9.6 46.5 10.2 46.5 10.5 C 46.5 10.5 46.5 10.5 46.5 10.5 Z M 49.7 11.1 C 49.6 11.1 49.4 11 49.2 11 C 49.1 10.9 48.9 10.8 48.9 10.6 C 48.8 10.4 48.7 10.2 48.7 10 C 48.7 9.9 48.7 9.7 48.8 9.6 C 48.8 9.6 48.8 9.2 48.8 9.2 C 48.8 9.2 48.8 9.1 48.9 9.1 C 48.9 9 48.9 8.9 48.9 8.9 C 48.9 8.7 48.9 8.6 49 8.6 C 49 8.5 49.1 8.5 49.2 8.5 C 49.2 8.5 49.2 8.5 49.3 8.6 C 49.3 8.6 49.4 8.7 49.4 8.7 C 49.4 8.8 49.3 8.9 49.3 9.1 C 49.3 9.2 49.2 9.3 49.2 9.5 C 49.2 9.7 49.1 9.9 49.1 10 C 49.1 10.3 49.2 10.5 49.3 10.6 C 49.5 10.7 49.6 10.7 49.7 10.7 C 49.9 10.7 50.1 10.7 50.3 10.5 C 50.4 10.4 50.4 10.2 50.5 9.9 C 50.5 9.9 50.5 9.8 50.5 9.8 C 50.5 9.7 50.5 9.6 50.5 9.4 C 50.5 9 50.6 8.8 50.6 8.7 C 50.7 8.6 50.8 8.5 50.9 8.5 C 51 8.5 51 8.6 51 8.8 C 51 8.9 51 9 51 9.3 C 50.9 9.4 50.9 9.6 50.9 9.7 C 50.9 10.1 50.9 10.3 50.8 10.5 C 50.7 10.6 50.6 10.8 50.4 10.9 C 50.2 11 49.9 11.1 49.7 11.1 Z M 52.8 10.5 C 52.9 10.4 53 10.4 53.1 10.4 C 53.1 10.4 53.2 10.4 53.2 10.5 C 53.2 10.6 53.1 10.7 52.8 10.9 C 52.6 11 52.3 11.1 52.1 11.1 C 51.9 11.1 51.7 11.1 51.5 10.9 C 51.3 10.8 51.3 10.6 51.3 10.3 C 51.3 10.1 51.3 9.8 51.5 9.4 C 51.7 9.1 51.9 8.9 52.2 8.7 C 52.5 8.5 52.7 8.4 53 8.4 C 53.1 8.4 53.3 8.4 53.4 8.5 C 53.4 8.6 53.5 8.7 53.5 8.8 C 53.5 8.9 53.5 9 53.5 9.1 C 53.4 9.2 53.4 9.2 53.3 9.2 C 53.3 9.3 53.2 9.3 53.2 9.3 C 53.1 9.3 53.1 9.3 53.1 9.3 C 53 9.2 53 9.2 53 9.1 C 53 9.1 53 9 53 9 C 53.1 8.9 53.1 8.8 53.1 8.8 C 53.1 8.7 53 8.7 53 8.7 C 52.8 8.7 52.6 8.8 52.4 8.9 C 52.2 9.1 52.1 9.3 51.9 9.6 C 51.8 9.9 51.7 10.1 51.7 10.3 C 51.7 10.4 51.7 10.5 51.8 10.6 C 51.9 10.7 52 10.8 52.1 10.8 C 52.2 10.8 52.3 10.7 52.5 10.7 C 52.6 10.6 52.7 10.6 52.8 10.5 C 52.8 10.5 52.8 10.5 52.8 10.5 Z M 54.2 10.5 C 54.2 10.5 54.1 10.4 54.1 10.4 C 54.1 10.5 54 10.6 53.9 10.7 C 53.8 10.9 53.8 11 53.7 11 C 53.7 11 53.6 11 53.6 11 C 53.6 11 53.5 11 53.5 11 C 53.4 10.9 53.4 10.9 53.4 10.8 C 53.4 10.8 53.5 10.5 53.8 10.1 C 54 9.9 54.1 9.6 54.2 9.4 C 54.5 8.9 54.7 8.7 54.7 8.6 C 54.8 8.5 54.8 8.5 54.9 8.5 C 55 8.5 55.1 8.5 55.1 8.5 C 55.1 8.6 55.1 8.6 55.1 8.7 C 55.1 8.7 55.1 8.7 55.1 8.8 C 55.3 9.4 55.5 9.9 55.6 10.1 C 55.7 10.4 55.8 10.6 56 10.7 C 56 10.7 56.1 10.8 56.1 10.8 C 56.1 10.8 56.1 10.9 56.1 10.9 C 56.1 11 56.1 11 56 11 C 56 11.1 55.9 11.1 55.9 11.1 C 55.8 11.1 55.7 11.1 55.6 11 C 55.5 10.9 55.4 10.7 55.3 10.5 C 55.3 10.4 55.2 10.3 55.2 10.3 C 55.2 10.2 55.2 10.2 55.2 10.2 C 55.2 10.2 55 10.3 54.8 10.3 C 54.6 10.4 54.4 10.4 54.3 10.4 C 54.3 10.4 54.2 10.5 54.2 10.5 C 54.2 10.5 54.2 10.5 54.2 10.5 Z M 54.9 9.9 C 55 9.9 55 9.9 55.1 9.9 C 55.1 9.8 55 9.6 54.9 9.2 C 54.8 9.1 54.8 9.1 54.8 9.1 C 54.8 9.1 54.3 10 54.3 10 C 54.4 10 54.5 10 54.6 10 C 54.6 10 54.7 10 54.9 9.9 C 54.9 9.9 54.9 9.9 54.9 9.9 Z M 56.9 11.1 C 56.9 11.1 56.9 11.1 56.9 11.1 C 56.9 11.2 56.8 11.2 56.8 11.2 C 56.9 11.2 57 11.2 57 11.2 C 57.1 11.3 57.2 11.3 57.2 11.3 C 57.3 11.4 57.3 11.5 57.3 11.6 C 57.3 11.7 57.2 11.8 57.1 11.9 C 57 12 56.8 12 56.7 12 C 56.6 12 56.5 12 56.5 12 C 56.4 12 56.4 12 56.4 11.9 C 56.3 11.9 56.2 11.8 56.2 11.8 C 56.2 11.7 56.3 11.7 56.3 11.7 C 56.3 11.6 56.4 11.6 56.4 11.6 C 56.5 11.6 56.5 11.7 56.6 11.7 C 56.6 11.7 56.6 11.7 56.6 11.7 C 56.7 11.8 56.7 11.8 56.7 11.8 C 56.8 11.8 56.8 11.7 56.9 11.7 C 56.9 11.7 56.9 11.6 56.9 11.6 C 56.9 11.5 56.9 11.5 56.9 11.5 C 56.9 11.5 56.8 11.5 56.8 11.5 C 56.7 11.5 56.7 11.5 56.6 11.5 C 56.5 11.5 56.5 11.5 56.5 11.4 C 56.5 11.3 56.5 11.2 56.6 11.2 C 56.6 11.1 56.6 11.1 56.6 11 C 56.3 10.9 56.2 10.7 56.2 10.3 C 56.2 9.9 56.4 9.4 56.8 9 C 57.2 8.6 57.6 8.4 57.9 8.4 C 58.1 8.4 58.2 8.4 58.3 8.5 C 58.4 8.6 58.4 8.7 58.4 8.8 C 58.4 9 58.4 9.1 58.4 9.1 C 58.4 9.2 58.3 9.2 58.3 9.2 C 58.2 9.3 58.2 9.3 58.1 9.3 C 58.1 9.3 58 9.3 58 9.3 C 58 9.2 58 9.2 58 9.1 C 58 9.1 58 9 58 9 C 58 8.9 58 8.8 58 8.8 C 58 8.7 58 8.7 57.9 8.7 C 57.8 8.7 57.6 8.8 57.4 8.9 C 57.2 9.1 57 9.3 56.9 9.6 C 56.7 9.8 56.6 10.1 56.6 10.3 C 56.6 10.4 56.7 10.5 56.8 10.6 C 56.8 10.7 56.9 10.8 57.1 10.8 C 57.2 10.8 57.3 10.7 57.4 10.7 C 57.5 10.6 57.7 10.6 57.8 10.5 C 57.9 10.4 58 10.4 58 10.4 C 58.1 10.4 58.1 10.4 58.1 10.5 C 58.1 10.6 58 10.7 57.7 10.9 C 57.5 11.1 57.2 11.1 56.9 11.1 Z M 59.2 10.5 C 59.1 10.5 59.1 10.4 59.1 10.4 C 59 10.5 59 10.6 58.9 10.7 C 58.8 10.9 58.7 11 58.7 11 C 58.6 11 58.6 11 58.6 11 C 58.5 11 58.5 11 58.4 11 C 58.4 10.9 58.3 10.9 58.3 10.8 C 58.3 10.8 58.5 10.5 58.8 10.1 C 58.9 9.9 59.1 9.6 59.2 9.4 C 59.4 8.9 59.6 8.7 59.7 8.6 C 59.7 8.5 59.8 8.5 59.8 8.5 C 59.9 8.5 60 8.5 60 8.5 C 60.1 8.6 60.1 8.6 60.1 8.7 C 60.1 8.7 60.1 8.7 60.1 8.8 C 60.3 9.4 60.4 9.9 60.6 10.1 C 60.7 10.4 60.8 10.6 60.9 10.7 C 61 10.7 61 10.8 61 10.8 C 61 10.8 61 10.9 61 10.9 C 61 11 61 11 61 11 C 60.9 11.1 60.9 11.1 60.8 11.1 C 60.7 11.1 60.6 11.1 60.5 11 C 60.5 10.9 60.4 10.7 60.3 10.5 C 60.2 10.4 60.2 10.3 60.2 10.3 C 60.2 10.2 60.2 10.2 60.2 10.2 C 60.1 10.2 60 10.3 59.8 10.3 C 59.5 10.4 59.4 10.4 59.2 10.4 C 59.2 10.4 59.2 10.5 59.2 10.5 C 59.2 10.5 59.2 10.5 59.2 10.5 Z M 59.9 9.9 C 59.9 9.9 60 9.9 60 9.9 C 60 9.8 59.9 9.6 59.8 9.2 C 59.8 9.1 59.8 9.1 59.8 9.1 C 59.8 9.1 59.3 10 59.3 10 C 59.4 10 59.4 10 59.5 10 C 59.6 10 59.7 10 59.9 9.9 C 59.9 9.9 59.9 9.9 59.9 9.9 Z M 60.3 8.1 C 60.2 8.1 60.1 8.1 60 8.1 C 60 8.1 60 8 59.9 8 C 59.9 8 59.9 7.9 59.9 7.9 C 59.9 7.9 59.8 7.9 59.8 7.9 C 59.8 7.8 59.7 7.8 59.7 7.8 C 59.6 7.8 59.6 7.9 59.5 8 C 59.5 8 59.5 8 59.5 8 C 59.4 8.1 59.4 8.1 59.3 8.1 C 59.3 8.1 59.3 8.2 59.2 8.2 C 59.1 8.2 59.1 8.1 59.1 8 C 59.1 7.9 59.2 7.8 59.3 7.7 C 59.4 7.5 59.5 7.5 59.6 7.5 C 59.7 7.5 59.8 7.5 59.8 7.5 C 59.9 7.5 59.9 7.6 60 7.6 C 60.1 7.7 60.1 7.7 60.2 7.8 C 60.2 7.8 60.2 7.8 60.3 7.8 C 60.3 7.8 60.3 7.8 60.4 7.7 C 60.4 7.7 60.4 7.6 60.4 7.6 C 60.5 7.6 60.5 7.6 60.5 7.6 C 60.5 7.5 60.5 7.5 60.6 7.5 C 60.7 7.5 60.7 7.6 60.7 7.7 C 60.7 7.7 60.7 7.8 60.6 7.9 C 60.5 8.1 60.4 8.1 60.3 8.1 C 60.3 8.1 60.3 8.1 60.3 8.1 Z M 61.9 11.1 C 61.7 11.1 61.5 11 61.4 10.8 C 61.2 10.6 61.1 10.4 61.1 10.2 C 61.1 10 61.2 9.7 61.4 9.5 C 61.5 9.2 61.7 8.9 61.9 8.7 C 62.1 8.6 62.4 8.5 62.6 8.5 C 62.8 8.5 63 8.5 63.1 8.5 C 63.2 8.6 63.3 8.7 63.4 8.7 C 63.5 8.8 63.6 8.9 63.6 9 C 63.7 9.1 63.7 9.2 63.7 9.4 C 63.7 9.5 63.6 9.7 63.5 9.9 C 63.5 10.1 63.3 10.3 63.1 10.5 C 63 10.7 62.8 10.8 62.6 10.9 C 62.4 11 62.2 11.1 61.9 11.1 Z M 61.6 10.2 C 61.6 10.4 61.6 10.5 61.7 10.6 C 61.8 10.7 61.9 10.7 62 10.7 C 62.3 10.7 62.6 10.6 62.8 10.3 C 63.1 10 63.3 9.7 63.3 9.3 C 63.3 9.2 63.2 9.1 63.2 9.1 C 63.1 9 63.1 8.9 63 8.9 C 62.9 8.8 62.7 8.8 62.6 8.8 C 62.4 8.8 62.2 9 61.9 9.3 C 61.7 9.6 61.6 9.9 61.6 10.2 Z M 63.7 11.3 C 63.7 11.2 63.7 11.2 63.7 11.2 C 63.8 11.2 63.9 11.2 64 11.1 C 64.1 11.1 64.1 11 64.1 10.9 C 64.2 10.9 64.2 10.8 64.2 10.8 C 64.2 10.7 64.2 10.6 64.2 10.6 C 64.1 10.6 64.1 10.6 64.1 10.5 C 64.1 10.5 64.1 10.5 64.2 10.4 C 64.2 10.4 64.2 10.4 64.3 10.4 C 64.3 10.4 64.3 10.4 64.4 10.4 C 64.5 10.4 64.5 10.5 64.5 10.5 C 64.5 10.5 64.5 10.5 64.6 10.6 C 64.6 10.7 64.6 10.7 64.6 10.8 C 64.6 10.8 64.6 10.9 64.5 11 C 64.5 11.1 64.4 11.2 64.3 11.2 C 64.3 11.3 64.2 11.3 64.1 11.3 C 64.1 11.3 64.1 11.3 64.1 11.3 C 63.9 11.4 63.9 11.4 63.8 11.4 C 63.7 11.4 63.7 11.4 63.7 11.3 C 63.7 11.3 63.7 11.3 63.7 11.3 Z " stroke="none" fill="#000"/>  </g>  <g id="Polygon14897">    <path d="M 5.3 6.5 C 5.4 6.4 5.5 6.4 5.5 6.4 C 5.6 6.4 5.7 6.4 5.7 6.5 C 5.7 6.6 5.5 6.7 5.3 6.9 C 5 7 4.8 7.1 4.6 7.1 C 4.4 7.1 4.2 7.1 4 6.9 C 3.8 6.8 3.7 6.6 3.7 6.3 C 3.7 6.1 3.8 5.8 4 5.4 C 4.2 5.1 4.4 4.9 4.7 4.7 C 5 4.5 5.2 4.4 5.5 4.4 C 5.6 4.4 5.7 4.4 5.8 4.5 C 5.9 4.6 6 4.7 6 4.8 C 6 4.9 6 5 5.9 5.1 C 5.9 5.2 5.9 5.2 5.8 5.2 C 5.7 5.3 5.7 5.3 5.6 5.3 C 5.6 5.3 5.6 5.3 5.5 5.3 C 5.5 5.2 5.5 5.2 5.5 5.1 C 5.5 5.1 5.5 5 5.5 5 C 5.5 4.9 5.5 4.8 5.5 4.8 C 5.5 4.7 5.5 4.7 5.5 4.7 C 5.3 4.7 5.1 4.8 4.9 4.9 C 4.7 5.1 4.5 5.3 4.4 5.6 C 4.2 5.9 4.2 6.1 4.2 6.3 C 4.2 6.4 4.2 6.5 4.3 6.6 C 4.4 6.7 4.5 6.8 4.6 6.8 C 4.7 6.8 4.8 6.7 4.9 6.7 C 5.1 6.6 5.2 6.6 5.3 6.5 C 5.3 6.5 5.3 6.5 5.3 6.5 Z M 6.8 7.1 C 6.6 7.1 6.5 7 6.3 6.8 C 6.2 6.6 6.1 6.4 6.1 6.2 C 6.1 6 6.2 5.7 6.3 5.5 C 6.5 5.2 6.6 4.9 6.9 4.7 C 7.1 4.6 7.3 4.5 7.6 4.5 C 7.8 4.5 7.9 4.5 8 4.5 C 8.2 4.6 8.3 4.7 8.4 4.7 C 8.5 4.8 8.6 4.9 8.6 5 C 8.6 5.1 8.6 5.2 8.6 5.4 C 8.6 5.5 8.6 5.7 8.5 5.9 C 8.4 6.1 8.3 6.3 8.1 6.5 C 7.9 6.7 7.7 6.8 7.6 6.9 C 7.4 7 7.1 7.1 6.8 7.1 Z M 6.5 6.2 C 6.5 6.4 6.6 6.5 6.7 6.6 C 6.7 6.7 6.8 6.7 6.9 6.7 C 7.3 6.7 7.5 6.6 7.8 6.3 C 8.1 6 8.2 5.7 8.2 5.3 C 8.2 5.2 8.2 5.1 8.1 5.1 C 8.1 5 8 4.9 7.9 4.9 C 7.8 4.8 7.7 4.8 7.6 4.8 C 7.4 4.8 7.1 5 6.9 5.3 C 6.7 5.6 6.5 5.9 6.5 6.2 Z M 10.6 6.9 C 10.5 6.9 10.5 6.9 10.4 6.9 C 10.3 6.9 10.3 6.9 10.3 6.9 C 10 6.9 9.7 6.9 9.4 7 C 9.2 7 9.2 7.1 9.1 7.1 C 9 7.1 9 7 8.9 7 C 8.9 6.9 8.9 6.9 8.9 6.8 C 8.9 6.8 8.9 6.8 8.9 6.7 C 8.9 6.6 9 6.4 9 6.3 C 9 6.3 9.1 4.9 9.1 4.9 C 9.1 4.8 9.2 4.7 9.2 4.6 C 9.2 4.6 9.2 4.6 9.2 4.5 C 9.3 4.5 9.3 4.5 9.4 4.5 C 9.5 4.5 9.5 4.5 9.5 4.5 C 9.6 4.6 9.6 4.6 9.6 4.7 C 9.6 4.7 9.6 4.8 9.6 4.9 C 9.5 5.1 9.5 5.4 9.5 5.8 C 9.4 6.3 9.4 6.5 9.4 6.5 C 9.4 6.6 9.4 6.6 9.4 6.6 C 9.4 6.6 9.5 6.6 9.7 6.5 C 9.8 6.5 9.9 6.5 10 6.5 C 10.3 6.5 10.5 6.5 10.6 6.5 C 10.6 6.5 10.6 6.5 10.7 6.5 C 10.7 6.5 10.8 6.5 10.8 6.5 C 10.8 6.5 10.9 6.6 10.9 6.6 C 10.9 6.7 10.8 6.8 10.8 6.8 C 10.7 6.9 10.6 6.9 10.6 6.9 Z M 11.7 7.1 C 11.5 7.1 11.3 7 11.2 6.8 C 11 6.6 11 6.4 11 6.2 C 11 6 11 5.7 11.2 5.5 C 11.3 5.2 11.5 4.9 11.7 4.7 C 12 4.6 12.2 4.5 12.4 4.5 C 12.6 4.5 12.8 4.5 12.9 4.5 C 13 4.6 13.1 4.7 13.2 4.7 C 13.4 4.8 13.4 4.9 13.5 5 C 13.5 5.1 13.5 5.2 13.5 5.4 C 13.5 5.5 13.5 5.7 13.4 5.9 C 13.3 6.1 13.1 6.3 13 6.5 C 12.8 6.7 12.6 6.8 12.4 6.9 C 12.2 7 12 7.1 11.7 7.1 Z M 11.4 6.2 C 11.4 6.4 11.4 6.5 11.5 6.6 C 11.6 6.7 11.7 6.7 11.8 6.7 C 12.1 6.7 12.4 6.6 12.7 6.3 C 12.9 6 13.1 5.7 13.1 5.3 C 13.1 5.2 13 5.1 13 5.1 C 13 5 12.9 4.9 12.8 4.9 C 12.7 4.8 12.6 4.8 12.4 4.8 C 12.2 4.8 12 5 11.8 5.3 C 11.5 5.6 11.4 5.9 11.4 6.2 Z M 15.3 6.5 C 15.4 6.4 15.5 6.4 15.5 6.4 C 15.6 6.4 15.6 6.4 15.6 6.5 C 15.6 6.6 15.5 6.7 15.3 6.9 C 15 7 14.8 7.1 14.5 7.1 C 14.3 7.1 14.1 7.1 14 6.9 C 13.8 6.8 13.7 6.6 13.7 6.3 C 13.7 6.1 13.8 5.8 14 5.4 C 14.2 5.1 14.4 4.9 14.7 4.7 C 14.9 4.5 15.2 4.4 15.4 4.4 C 15.6 4.4 15.7 4.4 15.8 4.5 C 15.9 4.6 15.9 4.7 15.9 4.8 C 15.9 4.9 15.9 5 15.9 5.1 C 15.9 5.2 15.8 5.2 15.8 5.2 C 15.7 5.3 15.7 5.3 15.6 5.3 C 15.6 5.3 15.5 5.3 15.5 5.3 C 15.5 5.2 15.5 5.2 15.5 5.1 C 15.5 5.1 15.5 5 15.5 5 C 15.5 4.9 15.5 4.8 15.5 4.8 C 15.5 4.7 15.5 4.7 15.4 4.7 C 15.3 4.7 15.1 4.8 14.9 4.9 C 14.7 5.1 14.5 5.3 14.4 5.6 C 14.2 5.9 14.1 6.1 14.1 6.3 C 14.1 6.4 14.2 6.5 14.3 6.6 C 14.3 6.7 14.4 6.8 14.6 6.8 C 14.7 6.8 14.8 6.7 14.9 6.7 C 15 6.6 15.2 6.6 15.3 6.5 C 15.3 6.5 15.3 6.5 15.3 6.5 Z M 16.7 6.5 C 16.6 6.5 16.6 6.4 16.6 6.4 C 16.5 6.5 16.5 6.6 16.4 6.7 C 16.3 6.9 16.2 7 16.2 7 C 16.1 7 16.1 7 16.1 7 C 16 7 16 7 15.9 7 C 15.9 6.9 15.8 6.9 15.8 6.8 C 15.8 6.8 16 6.5 16.3 6.1 C 16.4 5.9 16.6 5.6 16.7 5.4 C 16.9 4.9 17.1 4.7 17.2 4.6 C 17.2 4.5 17.3 4.5 17.3 4.5 C 17.4 4.5 17.5 4.5 17.5 4.5 C 17.6 4.6 17.6 4.6 17.6 4.7 C 17.6 4.7 17.6 4.7 17.6 4.8 C 17.8 5.4 17.9 5.9 18.1 6.1 C 18.2 6.4 18.3 6.6 18.4 6.7 C 18.5 6.7 18.5 6.8 18.5 6.8 C 18.5 6.8 18.5 6.9 18.5 6.9 C 18.5 7 18.5 7 18.5 7 C 18.4 7.1 18.4 7.1 18.3 7.1 C 18.2 7.1 18.1 7.1 18 7 C 18 6.9 17.9 6.7 17.8 6.5 C 17.7 6.4 17.7 6.3 17.7 6.3 C 17.7 6.2 17.7 6.2 17.7 6.2 C 17.6 6.2 17.5 6.3 17.3 6.3 C 17 6.4 16.9 6.4 16.7 6.4 C 16.7 6.4 16.7 6.5 16.7 6.5 C 16.7 6.5 16.7 6.5 16.7 6.5 Z M 17.4 5.9 C 17.4 5.9 17.5 5.9 17.5 5.9 C 17.5 5.8 17.4 5.6 17.3 5.2 C 17.3 5.1 17.3 5.1 17.3 5.1 C 17.3 5.1 16.8 6 16.8 6 C 16.9 6 16.9 6 17 6 C 17.1 6 17.2 6 17.4 5.9 C 17.4 5.9 17.4 5.9 17.4 5.9 Z M 18.8 6.7 C 18.8 6.6 18.9 6.5 18.9 6.4 C 18.9 6 18.9 5.6 19 5.2 C 19 5.1 19 5 19 4.9 C 19 4.9 19 4.9 19 4.9 C 18.9 4.9 18.8 4.8 18.8 4.7 C 18.8 4.7 18.9 4.6 18.9 4.6 C 19 4.5 19 4.5 19.1 4.5 C 19.1 4.5 19.3 4.5 19.3 4.5 C 19.4 4.5 19.5 4.5 19.7 4.5 C 19.9 4.5 20 4.5 20.1 4.5 C 20.4 4.5 20.7 4.6 20.9 4.8 C 21.1 4.9 21.2 5.2 21.2 5.5 C 21.2 5.8 21 6.1 20.7 6.4 C 20.4 6.6 20 6.8 19.6 6.9 C 19.5 6.9 19.4 6.9 19.4 7 C 19.3 7 19.3 7 19.2 7 C 19.1 7.1 19.1 7.1 19 7.1 C 18.9 7.1 18.9 7.1 18.8 7 C 18.8 7 18.8 6.9 18.8 6.9 C 18.8 6.9 18.8 6.8 18.8 6.8 C 18.8 6.8 18.8 6.7 18.8 6.7 Z M 19.3 6.5 C 19.3 6.5 19.3 6.6 19.3 6.6 C 19.3 6.6 19.5 6.6 19.8 6.5 C 20.1 6.4 20.3 6.3 20.5 6.1 C 20.7 5.9 20.8 5.7 20.8 5.4 C 20.8 5.3 20.7 5.1 20.6 5 C 20.4 4.9 20.3 4.8 20 4.8 C 19.9 4.8 19.7 4.8 19.5 4.9 C 19.5 4.9 19.5 4.9 19.5 4.9 C 19.3 5.6 19.3 6.2 19.3 6.5 C 19.3 6.5 19.3 6.5 19.3 6.5 Z M 22.1 7.1 C 21.9 7.1 21.8 7 21.6 6.8 C 21.5 6.6 21.4 6.4 21.4 6.2 C 21.4 6 21.5 5.7 21.6 5.5 C 21.7 5.2 21.9 4.9 22.1 4.7 C 22.4 4.6 22.6 4.5 22.9 4.5 C 23 4.5 23.2 4.5 23.3 4.5 C 23.4 4.6 23.6 4.7 23.7 4.7 C 23.8 4.8 23.8 4.9 23.9 5 C 23.9 5.1 23.9 5.2 23.9 5.4 C 23.9 5.5 23.9 5.7 23.8 5.9 C 23.7 6.1 23.6 6.3 23.4 6.5 C 23.2 6.7 23 6.8 22.8 6.9 C 22.7 7 22.4 7.1 22.1 7.1 Z M 21.8 6.2 C 21.8 6.4 21.9 6.5 21.9 6.6 C 22 6.7 22.1 6.7 22.2 6.7 C 22.5 6.7 22.8 6.6 23.1 6.3 C 23.4 6 23.5 5.7 23.5 5.3 C 23.5 5.2 23.5 5.1 23.4 5.1 C 23.4 5 23.3 4.9 23.2 4.9 C 23.1 4.8 23 4.8 22.9 4.8 C 22.6 4.8 22.4 5 22.2 5.3 C 21.9 5.6 21.8 5.9 21.8 6.2 Z M 26.3 6.1 C 26.2 6.2 26.1 6.2 26.1 6.2 C 26 6.5 26 6.7 26 6.8 C 26 6.9 26 7 26 7 C 25.9 7.1 25.9 7.1 25.8 7.1 C 25.7 7.1 25.6 7 25.6 6.8 C 25.6 6.7 25.6 6.4 25.7 5.9 C 25.7 5.5 25.8 5.2 25.8 5.2 C 25.8 5.1 25.8 5 25.8 5 C 25.7 5 25.7 4.9 25.7 4.8 C 25.7 4.7 25.8 4.6 26.1 4.6 C 26.4 4.5 26.7 4.5 26.9 4.5 C 27.2 4.5 27.4 4.5 27.5 4.6 C 27.7 4.7 27.8 4.9 27.8 5 C 27.8 5.3 27.6 5.5 27.3 5.7 C 27.1 5.9 26.7 6.1 26.3 6.1 C 26.3 6.1 26.3 6.1 26.3 6.1 Z M 26.9 4.8 C 26.7 4.8 26.5 4.8 26.2 4.9 C 26.2 4.9 26.1 5.8 26.1 5.8 C 26.4 5.8 26.7 5.7 27 5.5 C 27.2 5.4 27.3 5.2 27.3 5.1 C 27.3 4.9 27.2 4.8 26.9 4.8 C 26.9 4.8 26.9 4.8 26.9 4.8 Z M 28.3 6.5 C 28.3 6.5 28.3 6.4 28.2 6.4 C 28.2 6.5 28.2 6.6 28.1 6.7 C 28 6.9 27.9 7 27.9 7 C 27.8 7 27.8 7 27.8 7 C 27.7 7 27.7 7 27.6 7 C 27.6 6.9 27.5 6.9 27.5 6.8 C 27.5 6.8 27.7 6.5 28 6.1 C 28.1 5.9 28.2 5.6 28.4 5.4 C 28.6 4.9 28.8 4.7 28.9 4.6 C 28.9 4.5 29 4.5 29 4.5 C 29.1 4.5 29.2 4.5 29.2 4.5 C 29.3 4.6 29.3 4.6 29.3 4.7 C 29.3 4.7 29.3 4.7 29.3 4.8 C 29.5 5.4 29.6 5.9 29.7 6.1 C 29.9 6.4 30 6.6 30.1 6.7 C 30.2 6.7 30.2 6.8 30.2 6.8 C 30.2 6.8 30.2 6.9 30.2 6.9 C 30.2 7 30.2 7 30.2 7 C 30.1 7.1 30.1 7.1 30 7.1 C 29.9 7.1 29.8 7.1 29.7 7 C 29.6 6.9 29.6 6.7 29.5 6.5 C 29.4 6.4 29.4 6.3 29.4 6.3 C 29.4 6.2 29.4 6.2 29.4 6.2 C 29.3 6.2 29.2 6.3 28.9 6.3 C 28.7 6.4 28.6 6.4 28.4 6.4 C 28.4 6.4 28.4 6.5 28.3 6.5 C 28.3 6.5 28.3 6.5 28.3 6.5 Z M 29.1 5.9 C 29.1 5.9 29.2 5.9 29.2 5.9 C 29.2 5.8 29.1 5.6 29 5.2 C 29 5.1 29 5.1 29 5.1 C 29 5.1 28.5 6 28.5 6 C 28.5 6 28.6 6 28.7 6 C 28.7 6 28.9 6 29.1 5.9 C 29.1 5.9 29.1 5.9 29.1 5.9 Z M 30.7 4.9 C 30.7 4.9 30.65 4.88 30.7 4.9 C 30.6 4.8 30.6 4.8 30.6 4.7 C 30.6 4.7 30.6 4.6 30.7 4.6 C 30.7 4.6 30.8 4.5 30.8 4.5 C 30.9 4.5 30.9 4.5 30.9 4.6 C 30.9 4.6 31 4.6 31 4.6 C 31.3 4.5 31.5 4.5 31.7 4.5 C 31.9 4.5 32.1 4.5 32.3 4.7 C 32.4 4.8 32.5 4.9 32.5 5.1 C 32.5 5.3 32.4 5.4 32.3 5.6 C 32.1 5.7 31.9 5.9 31.7 6 C 32.1 6.3 32.4 6.5 32.6 6.6 C 32.7 6.7 32.7 6.7 32.7 6.8 C 32.7 6.9 32.7 6.9 32.7 6.9 C 32.6 7 32.6 7 32.5 7 C 32.4 7 32.4 7 32.3 6.9 C 32.2 6.9 32.1 6.8 31.9 6.7 C 31.8 6.5 31.7 6.5 31.7 6.4 C 31.4 6.3 31.3 6.1 31.2 6.1 C 31.1 6.1 31 6 31 5.9 C 31 5.8 31 5.8 31.1 5.8 C 31.1 5.7 31.2 5.7 31.3 5.7 C 31.3 5.7 31.3 5.7 31.3 5.7 C 31.4 5.7 31.4 5.7 31.4 5.7 C 31.5 5.7 31.6 5.6 31.8 5.5 C 32 5.4 32.1 5.3 32.1 5.1 C 32.1 5 32 5 32 4.9 C 31.9 4.8 31.8 4.8 31.6 4.8 C 31.5 4.8 31.4 4.8 31.3 4.8 C 31.2 4.9 31.1 4.9 31.1 4.9 C 31.1 4.9 31.1 4.9 31.1 4.9 C 31.1 5 31.1 5.1 31 5.3 C 31 5.5 30.9 5.7 30.9 6 C 30.9 6.2 30.9 6.4 30.9 6.5 C 30.9 6.6 30.9 6.6 30.9 6.7 C 30.9 6.8 30.9 6.8 30.9 6.9 C 30.9 6.9 30.9 6.9 30.8 7 C 30.8 7 30.7 7.1 30.7 7.1 C 30.5 7.1 30.4 7 30.4 6.7 C 30.4 6.6 30.5 6.3 30.5 6 C 30.5 5.7 30.6 5.4 30.6 5.1 C 30.6 5.1 30.6 5.1 30.6 5 C 30.65 5.04 30.7 4.9 30.7 4.9 Z M 33.5 6.5 C 33.4 6.5 33.4 6.4 33.4 6.4 C 33.3 6.5 33.3 6.6 33.2 6.7 C 33.1 6.9 33 7 33 7 C 32.9 7 32.9 7 32.9 7 C 32.8 7 32.8 7 32.7 7 C 32.7 6.9 32.6 6.9 32.6 6.8 C 32.6 6.8 32.8 6.5 33.1 6.1 C 33.2 5.9 33.4 5.6 33.5 5.4 C 33.8 4.9 33.9 4.7 34 4.6 C 34 4.5 34.1 4.5 34.1 4.5 C 34.2 4.5 34.3 4.5 34.4 4.5 C 34.4 4.6 34.4 4.6 34.4 4.7 C 34.4 4.7 34.4 4.7 34.4 4.8 C 34.6 5.4 34.7 5.9 34.9 6.1 C 35 6.4 35.1 6.6 35.2 6.7 C 35.3 6.7 35.3 6.8 35.3 6.8 C 35.3 6.8 35.4 6.9 35.4 6.9 C 35.4 7 35.3 7 35.3 7 C 35.2 7.1 35.2 7.1 35.1 7.1 C 35 7.1 34.9 7.1 34.9 7 C 34.8 6.9 34.7 6.7 34.6 6.5 C 34.5 6.4 34.5 6.3 34.5 6.3 C 34.5 6.2 34.5 6.2 34.5 6.2 C 34.4 6.2 34.3 6.3 34.1 6.3 C 33.9 6.4 33.7 6.4 33.6 6.4 C 33.5 6.4 33.5 6.5 33.5 6.5 C 33.5 6.5 33.5 6.5 33.5 6.5 Z M 34.2 5.9 C 34.2 5.9 34.3 5.9 34.3 5.9 C 34.3 5.8 34.2 5.6 34.1 5.2 C 34.1 5.1 34.1 5.1 34.1 5.1 C 34.1 5.1 33.6 6 33.6 6 C 33.7 6 33.7 6 33.8 6 C 33.9 6 34 6 34.2 5.9 C 34.2 5.9 34.2 5.9 34.2 5.9 Z M 39.3 5.2 C 39.3 5.2 39.3 5.1 39.3 5.1 C 39.3 5.1 38.7 5.9 38.7 5.9 C 38.5 6.2 38.3 6.4 38.1 6.4 C 38.1 6.4 38 6.4 37.9 6.3 C 37.9 6.2 37.8 6.1 37.8 6 C 37.7 5.8 37.7 5.7 37.7 5.6 C 37.6 5.4 37.6 5.3 37.6 5.3 C 37.6 5.3 37.5 5.7 37.5 5.7 C 37.5 5.9 37.4 6 37.4 6.1 C 37.4 6.2 37.3 6.4 37.3 6.6 C 37.3 6.7 37.3 6.9 37.2 6.9 C 37.2 7 37.2 7 37.2 7 C 37.1 7.1 37.1 7.1 37 7.1 C 37 7.1 36.9 7.1 36.9 7 C 36.8 7 36.8 6.9 36.8 6.9 C 36.8 6.8 36.8 6.6 36.9 6.4 C 37.1 5.8 37.2 5.3 37.2 5.1 C 37.2 5 37.3 4.8 37.3 4.7 C 37.3 4.6 37.3 4.6 37.3 4.6 C 37.4 4.5 37.5 4.5 37.5 4.5 C 37.6 4.5 37.6 4.5 37.7 4.6 C 37.7 4.7 37.8 4.7 37.8 4.8 C 37.78 4.77 37.8 4.8 37.8 4.8 C 37.8 4.8 38.01 5.43 38 5.4 C 38.1 5.7 38.2 5.9 38.2 5.9 C 38.3 5.8 38.5 5.6 38.7 5.2 C 39 4.9 39.2 4.7 39.2 4.6 C 39.3 4.5 39.4 4.5 39.4 4.5 C 39.5 4.5 39.6 4.5 39.6 4.5 C 39.7 4.6 39.7 4.6 39.7 4.6 C 39.7 4.7 39.7 4.8 39.7 5.2 C 39.6 5.4 39.6 5.6 39.6 5.9 C 39.5 6.2 39.5 6.4 39.5 6.4 C 39.5 6.5 39.5 6.5 39.6 6.6 C 39.6 6.6 39.6 6.7 39.6 6.7 C 39.6 6.9 39.6 6.9 39.5 7 C 39.5 7 39.4 7 39.3 7 C 39.2 7 39.1 6.9 39.1 6.7 C 39.1 6.5 39.1 6.2 39.2 5.9 C 39.2 5.6 39.2 5.4 39.3 5.2 C 39.3 5.2 39.3 5.2 39.3 5.2 Z M 42.1 4.9 C 42.1 4.9 41.5 4.9 41.5 4.9 C 41.4 4.9 41.2 4.9 41.1 4.9 C 40.9 5 40.9 5 40.9 5 C 40.8 5 40.8 5 40.8 5.1 C 40.8 5.1 40.8 5.2 40.8 5.4 C 40.7 5.5 40.7 5.6 40.7 5.7 C 40.8 5.7 40.9 5.6 41 5.6 C 41.2 5.6 41.3 5.6 41.3 5.6 C 41.5 5.6 41.6 5.5 41.7 5.5 C 41.9 5.5 42 5.6 42 5.7 C 42 5.8 41.9 5.8 41.9 5.9 C 41.8 5.9 41.8 5.9 41.7 5.9 C 41.6 5.9 41.5 5.9 41.4 5.9 C 41.4 6 41.3 6 41.3 6 C 41 6 40.8 6 40.7 6.1 C 40.7 6.1 40.7 6.1 40.7 6.1 C 40.7 6.1 40.7 6.1 40.7 6.1 C 40.7 6.1 40.6 6.2 40.6 6.3 C 40.6 6.5 40.6 6.6 40.6 6.7 C 40.6 6.7 40.6 6.7 40.7 6.7 C 40.7 6.7 40.9 6.7 41.1 6.7 C 41.3 6.6 41.5 6.6 41.5 6.6 C 41.7 6.6 41.8 6.6 41.8 6.6 C 42 6.6 42.1 6.7 42.1 6.8 C 42.1 6.8 42 6.9 42 6.9 C 41.9 6.9 41.7 7 41.5 7 C 41.4 7 41.2 7 41 7 C 40.8 7.1 40.6 7.1 40.4 7.1 C 40.3 7.1 40.2 7.1 40.2 7 C 40.2 7 40.1 6.9 40.1 6.9 C 40.1 6.9 40.1 6.8 40.1 6.8 C 40.1 6.8 40.1 6.8 40.1 6.7 C 40.2 6.6 40.2 6.2 40.3 5.8 C 40.4 5.3 40.4 5 40.4 5 C 40.4 5 40.4 5 40.4 4.9 C 40.4 4.9 40.4 4.9 40.4 4.9 C 40.3 4.8 40.3 4.8 40.3 4.8 C 40.3 4.7 40.3 4.7 40.3 4.7 C 40.3 4.7 40.4 4.7 40.4 4.6 C 40.5 4.6 40.5 4.6 40.5 4.6 C 40.6 4.6 40.6 4.6 40.7 4.6 C 40.8 4.6 41.1 4.6 41.6 4.5 C 41.8 4.5 41.9 4.5 41.9 4.5 C 41.9 4.5 41.9 4.5 41.9 4.5 C 42.1 4.5 42.2 4.5 42.2 4.7 C 42.2 4.7 42.2 4.7 42.2 4.8 C 42.1 4.8 42.1 4.8 42.1 4.9 Z M 44.1 6.9 C 44.1 6.9 44 6.9 43.9 6.9 C 43.9 6.9 43.8 6.9 43.8 6.9 C 43.5 6.9 43.2 6.9 42.9 7 C 42.8 7 42.7 7.1 42.6 7.1 C 42.6 7.1 42.5 7 42.5 7 C 42.4 6.9 42.4 6.9 42.4 6.8 C 42.4 6.8 42.4 6.8 42.4 6.7 C 42.5 6.6 42.5 6.4 42.5 6.3 C 42.5 6.3 42.7 4.9 42.7 4.9 C 42.7 4.8 42.7 4.7 42.7 4.6 C 42.7 4.6 42.7 4.6 42.8 4.5 C 42.8 4.5 42.9 4.5 42.9 4.5 C 43 4.5 43 4.5 43.1 4.5 C 43.1 4.6 43.1 4.6 43.1 4.7 C 43.1 4.7 43.1 4.8 43.1 4.9 C 43.1 5.1 43 5.4 43 5.8 C 42.9 6.3 42.9 6.5 42.9 6.5 C 42.9 6.6 42.9 6.6 42.9 6.6 C 43 6.6 43.1 6.6 43.3 6.5 C 43.4 6.5 43.5 6.5 43.6 6.5 C 43.8 6.5 44 6.5 44.1 6.5 C 44.1 6.5 44.2 6.5 44.2 6.5 C 44.3 6.5 44.3 6.5 44.3 6.5 C 44.4 6.5 44.4 6.6 44.4 6.6 C 44.4 6.7 44.4 6.8 44.3 6.8 C 44.2 6.9 44.2 6.9 44.1 6.9 Z M 45.1 6 C 45.1 6.1 45.1 6.2 45 6.5 C 45 6.7 45 6.8 45 6.9 C 44.9 7 44.9 7.1 44.8 7.1 C 44.8 7.1 44.7 7.1 44.6 7 C 44.6 7 44.6 6.9 44.6 6.8 C 44.6 6.8 44.6 6.7 44.6 6.5 C 44.7 6.2 44.8 5.6 44.9 4.6 C 44.9 4.6 44.9 4.6 44.9 4.5 C 45 4.5 45 4.5 45.1 4.5 C 45.2 4.5 45.3 4.6 45.3 4.8 C 45.3 4.8 45.3 5 45.2 5.2 C 45.2 5.4 45.2 5.5 45.2 5.6 C 45.2 5.6 45.2 5.6 45.3 5.6 C 45.5 5.6 45.7 5.6 46 5.6 C 46.3 5.6 46.4 5.5 46.4 5.5 C 46.5 5.5 46.5 5.3 46.5 5.2 C 46.5 5 46.6 4.8 46.6 4.5 C 46.6 4.5 46.6 4.5 46.6 4.4 C 46.7 4.4 46.7 4.4 46.8 4.4 C 46.8 4.4 46.9 4.4 46.9 4.4 C 47 4.5 47 4.5 47 4.6 C 47 4.7 47 4.8 46.9 5 C 46.9 5.3 46.8 5.6 46.8 6 C 46.8 6.4 46.8 6.7 46.8 6.8 C 46.8 6.9 46.7 6.9 46.7 7 C 46.6 7 46.6 7.1 46.5 7.1 C 46.5 7.1 46.4 7.1 46.4 7 C 46.3 7 46.3 6.9 46.3 6.9 C 46.3 6.8 46.3 6.7 46.4 6.5 C 46.4 6.2 46.4 6.1 46.4 6 C 46.4 5.9 46.4 5.9 46.4 5.9 C 46.3 5.9 46.2 5.9 46 5.9 C 45.9 6 45.8 6 45.7 6 C 45.7 6 45.6 6 45.4 6 C 45.2 6 45.1 6 45.1 6 Z M 48 7.1 C 47.8 7.1 47.6 7 47.5 6.8 C 47.3 6.6 47.2 6.4 47.2 6.2 C 47.2 6 47.3 5.7 47.5 5.5 C 47.6 5.2 47.8 4.9 48 4.7 C 48.2 4.6 48.5 4.5 48.7 4.5 C 48.9 4.5 49.1 4.5 49.2 4.5 C 49.3 4.6 49.4 4.7 49.5 4.7 C 49.6 4.8 49.7 4.9 49.7 5 C 49.8 5.1 49.8 5.2 49.8 5.4 C 49.8 5.5 49.7 5.7 49.6 5.9 C 49.6 6.1 49.4 6.3 49.2 6.5 C 49.1 6.7 48.9 6.8 48.7 6.9 C 48.5 7 48.3 7.1 48 7.1 Z M 47.7 6.2 C 47.7 6.4 47.7 6.5 47.8 6.6 C 47.9 6.7 48 6.7 48.1 6.7 C 48.4 6.7 48.7 6.6 48.9 6.3 C 49.2 6 49.3 5.7 49.3 5.3 C 49.3 5.2 49.3 5.1 49.3 5.1 C 49.2 5 49.2 4.9 49.1 4.9 C 48.9 4.8 48.8 4.8 48.7 4.8 C 48.5 4.8 48.3 5 48 5.3 C 47.8 5.6 47.7 5.9 47.7 6.2 Z M 50.3 4.9 C 50.3 4.9 50.26 4.88 50.3 4.9 C 50.2 4.8 50.2 4.8 50.2 4.7 C 50.2 4.7 50.2 4.6 50.3 4.6 C 50.3 4.6 50.4 4.5 50.4 4.5 C 50.5 4.5 50.5 4.5 50.5 4.6 C 50.5 4.6 50.6 4.6 50.6 4.6 C 50.9 4.5 51.1 4.5 51.3 4.5 C 51.5 4.5 51.7 4.5 51.9 4.7 C 52 4.8 52.1 4.9 52.1 5.1 C 52.1 5.3 52 5.4 51.9 5.6 C 51.7 5.7 51.5 5.9 51.3 6 C 51.7 6.3 52 6.5 52.2 6.6 C 52.3 6.7 52.3 6.7 52.3 6.8 C 52.3 6.9 52.3 6.9 52.3 6.9 C 52.2 7 52.2 7 52.1 7 C 52 7 52 7 51.9 6.9 C 51.8 6.9 51.7 6.8 51.5 6.7 C 51.4 6.5 51.3 6.5 51.3 6.4 C 51 6.3 50.9 6.1 50.8 6.1 C 50.7 6.1 50.6 6 50.6 5.9 C 50.6 5.8 50.6 5.8 50.7 5.8 C 50.7 5.7 50.8 5.7 50.9 5.7 C 50.9 5.7 50.9 5.7 50.9 5.7 C 51 5.7 51 5.7 51 5.7 C 51.1 5.7 51.2 5.6 51.4 5.5 C 51.6 5.4 51.7 5.3 51.7 5.1 C 51.7 5 51.6 5 51.6 4.9 C 51.5 4.8 51.4 4.8 51.2 4.8 C 51.1 4.8 51 4.8 50.9 4.8 C 50.8 4.9 50.7 4.9 50.7 4.9 C 50.7 4.9 50.7 4.9 50.7 4.9 C 50.7 5 50.7 5.1 50.6 5.3 C 50.6 5.5 50.6 5.7 50.5 6 C 50.5 6.2 50.5 6.4 50.5 6.5 C 50.5 6.6 50.5 6.6 50.5 6.7 C 50.5 6.8 50.5 6.8 50.5 6.9 C 50.5 6.9 50.5 6.9 50.4 7 C 50.4 7 50.3 7.1 50.3 7.1 C 50.1 7.1 50 7 50 6.7 C 50 6.6 50.1 6.3 50.1 6 C 50.1 5.7 50.2 5.4 50.2 5.1 C 50.2 5.1 50.2 5.1 50.3 5 C 50.26 5.04 50.3 4.9 50.3 4.9 Z M 53.1 6.5 C 53 6.5 53 6.4 53 6.4 C 52.9 6.5 52.9 6.6 52.8 6.7 C 52.7 6.9 52.6 7 52.6 7 C 52.5 7 52.5 7 52.5 7 C 52.4 7 52.4 7 52.3 7 C 52.3 6.9 52.2 6.9 52.2 6.8 C 52.2 6.8 52.4 6.5 52.7 6.1 C 52.8 5.9 53 5.6 53.1 5.4 C 53.4 4.9 53.5 4.7 53.6 4.6 C 53.6 4.5 53.7 4.5 53.8 4.5 C 53.9 4.5 53.9 4.5 54 4.5 C 54 4.6 54 4.6 54 4.7 C 54 4.7 54 4.7 54 4.8 C 54.2 5.4 54.4 5.9 54.5 6.1 C 54.6 6.4 54.7 6.6 54.8 6.7 C 54.9 6.7 54.9 6.8 54.9 6.8 C 55 6.8 55 6.9 55 6.9 C 55 7 54.9 7 54.9 7 C 54.8 7.1 54.8 7.1 54.7 7.1 C 54.6 7.1 54.6 7.1 54.5 7 C 54.4 6.9 54.3 6.7 54.2 6.5 C 54.1 6.4 54.1 6.3 54.1 6.3 C 54.1 6.2 54.1 6.2 54.1 6.2 C 54 6.2 53.9 6.3 53.7 6.3 C 53.5 6.4 53.3 6.4 53.2 6.4 C 53.1 6.4 53.1 6.5 53.1 6.5 C 53.1 6.5 53.1 6.5 53.1 6.5 Z M 53.8 5.9 C 53.9 5.9 53.9 5.9 54 5.9 C 53.9 5.8 53.8 5.6 53.7 5.2 C 53.7 5.1 53.7 5.1 53.7 5.1 C 53.7 5.1 53.2 6 53.2 6 C 53.3 6 53.3 6 53.4 6 C 53.5 6 53.6 6 53.8 5.9 C 53.8 5.9 53.8 5.9 53.8 5.9 Z M 55.4 4.9 C 55.4 4.9 55.38 4.88 55.4 4.9 C 55.3 4.8 55.3 4.8 55.3 4.7 C 55.3 4.7 55.3 4.6 55.4 4.6 C 55.5 4.6 55.5 4.5 55.6 4.5 C 55.6 4.5 55.6 4.5 55.6 4.6 C 55.7 4.6 55.7 4.6 55.7 4.6 C 56 4.5 56.3 4.5 56.4 4.5 C 56.7 4.5 56.9 4.5 57 4.7 C 57.2 4.8 57.2 4.9 57.2 5.1 C 57.2 5.3 57.2 5.4 57 5.6 C 56.9 5.7 56.7 5.9 56.4 6 C 56.8 6.3 57.1 6.5 57.3 6.6 C 57.4 6.7 57.5 6.7 57.5 6.8 C 57.5 6.9 57.4 6.9 57.4 6.9 C 57.3 7 57.3 7 57.2 7 C 57.2 7 57.1 7 57 6.9 C 56.9 6.9 56.8 6.8 56.7 6.7 C 56.5 6.5 56.4 6.5 56.4 6.4 C 56.2 6.3 56 6.1 55.9 6.1 C 55.8 6.1 55.7 6 55.7 5.9 C 55.7 5.8 55.8 5.8 55.8 5.8 C 55.9 5.7 55.9 5.7 56 5.7 C 56 5.7 56 5.7 56.1 5.7 C 56.1 5.7 56.1 5.7 56.1 5.7 C 56.2 5.7 56.3 5.6 56.5 5.5 C 56.7 5.4 56.8 5.3 56.8 5.1 C 56.8 5 56.8 5 56.7 4.9 C 56.6 4.8 56.5 4.8 56.4 4.8 C 56.2 4.8 56.1 4.8 56 4.8 C 55.9 4.9 55.9 4.9 55.8 4.9 C 55.8 4.9 55.8 4.9 55.8 4.9 C 55.8 5 55.8 5.1 55.7 5.3 C 55.7 5.5 55.7 5.7 55.6 6 C 55.6 6.2 55.6 6.4 55.6 6.5 C 55.6 6.6 55.6 6.6 55.6 6.7 C 55.6 6.8 55.6 6.8 55.6 6.9 C 55.6 6.9 55.6 6.9 55.6 7 C 55.5 7 55.4 7.1 55.4 7.1 C 55.2 7.1 55.2 7 55.2 6.7 C 55.2 6.6 55.2 6.3 55.2 6 C 55.3 5.7 55.3 5.4 55.4 5.1 C 55.4 5.1 55.4 5.1 55.4 5 C 55.37 5.04 55.4 4.9 55.4 4.9 Z M 59.5 6.5 C 59.5 6.5 59.4 6.4 59.4 6.4 C 59.4 6.5 59.3 6.6 59.2 6.7 C 59.1 6.9 59.1 7 59 7 C 59 7 59 7 58.9 7 C 58.9 7 58.8 7 58.8 7 C 58.7 6.9 58.7 6.9 58.7 6.8 C 58.7 6.8 58.8 6.5 59.1 6.1 C 59.3 5.9 59.4 5.6 59.6 5.4 C 59.8 4.9 60 4.7 60 4.6 C 60.1 4.5 60.1 4.5 60.2 4.5 C 60.3 4.5 60.4 4.5 60.4 4.5 C 60.4 4.6 60.4 4.6 60.4 4.7 C 60.4 4.7 60.4 4.7 60.4 4.8 C 60.6 5.4 60.8 5.9 60.9 6.1 C 61 6.4 61.2 6.6 61.3 6.7 C 61.3 6.7 61.4 6.8 61.4 6.8 C 61.4 6.8 61.4 6.9 61.4 6.9 C 61.4 7 61.4 7 61.3 7 C 61.3 7.1 61.2 7.1 61.2 7.1 C 61.1 7.1 61 7.1 60.9 7 C 60.8 6.9 60.7 6.7 60.7 6.5 C 60.6 6.4 60.5 6.3 60.5 6.3 C 60.5 6.2 60.5 6.2 60.5 6.2 C 60.5 6.2 60.3 6.3 60.1 6.3 C 59.9 6.4 59.7 6.4 59.6 6.4 C 59.6 6.4 59.5 6.5 59.5 6.5 C 59.5 6.5 59.5 6.5 59.5 6.5 Z M 60.3 5.9 C 60.3 5.9 60.4 5.9 60.4 5.9 C 60.4 5.8 60.3 5.6 60.2 5.2 C 60.1 5.1 60.1 5.1 60.1 5.1 C 60.1 5.1 59.6 6 59.6 6 C 59.7 6 59.8 6 59.9 6 C 59.9 6 60 6 60.3 5.9 C 60.3 5.9 60.3 5.9 60.3 5.9 Z " stroke="none" fill="#000"/>  </g>  <g id="Polygon14896">    <path d="M 17 3.1 C 16.8 3.1 16.6 3 16.5 2.8 C 16.3 2.6 16.2 2.4 16.2 2.2 C 16.2 2 16.3 1.7 16.4 1.5 C 16.6 1.2 16.8 0.9 17 0.7 C 17.2 0.6 17.5 0.5 17.7 0.5 C 17.9 0.5 18 0.5 18.2 0.5 C 18.3 0.6 18.4 0.7 18.5 0.7 C 18.6 0.8 18.7 0.9 18.7 1 C 18.8 1.1 18.8 1.2 18.8 1.4 C 18.8 1.5 18.7 1.7 18.6 1.9 C 18.5 2.1 18.4 2.3 18.2 2.5 C 18.1 2.7 17.9 2.8 17.7 2.9 C 17.5 3 17.3 3.1 17 3.1 Z M 16.7 2.2 C 16.7 2.4 16.7 2.5 16.8 2.6 C 16.9 2.7 17 2.7 17.1 2.7 C 17.4 2.7 17.7 2.6 17.9 2.3 C 18.2 2 18.3 1.7 18.3 1.3 C 18.3 1.2 18.3 1.1 18.3 1.1 C 18.2 1 18.1 0.9 18 0.9 C 17.9 0.8 17.8 0.8 17.7 0.8 C 17.5 0.8 17.3 1 17 1.3 C 16.8 1.6 16.7 1.9 16.7 2.2 Z M 20.5 2.7 C 20.5 2.6 20.5 2.5 20.5 2.4 C 20.5 2 20.6 1.6 20.6 1.2 C 20.6 1.1 20.7 1 20.7 0.9 C 20.7 0.9 20.6 0.9 20.6 0.9 C 20.5 0.9 20.4 0.8 20.4 0.7 C 20.4 0.7 20.5 0.6 20.5 0.6 C 20.6 0.5 20.6 0.5 20.7 0.5 C 20.7 0.5 20.9 0.5 20.9 0.5 C 21 0.5 21.2 0.5 21.3 0.5 C 21.5 0.5 21.6 0.5 21.7 0.5 C 22 0.5 22.3 0.6 22.5 0.8 C 22.7 0.9 22.8 1.2 22.8 1.5 C 22.8 1.8 22.6 2.1 22.3 2.4 C 22 2.6 21.7 2.8 21.2 2.9 C 21.1 2.9 21 2.9 21 3 C 20.9 3 20.9 3 20.8 3 C 20.8 3.1 20.7 3.1 20.6 3.1 C 20.5 3.1 20.5 3.1 20.4 3 C 20.4 3 20.4 2.9 20.4 2.9 C 20.4 2.9 20.4 2.8 20.4 2.8 C 20.4 2.8 20.5 2.7 20.5 2.7 Z M 20.9 2.5 C 20.9 2.5 20.9 2.6 20.9 2.6 C 21 2.6 21.1 2.6 21.4 2.5 C 21.7 2.4 21.9 2.3 22.1 2.1 C 22.3 1.9 22.4 1.7 22.4 1.4 C 22.4 1.3 22.3 1.1 22.2 1 C 22 0.9 21.9 0.8 21.7 0.8 C 21.5 0.8 21.3 0.8 21.1 0.9 C 21.1 0.9 21.1 0.9 21.1 0.9 C 21 1.6 20.9 2.2 20.9 2.5 C 20.9 2.5 20.9 2.5 20.9 2.5 Z M 23.7 1.3 C 23.6 1.4 23.6 1.5 23.6 1.5 C 23.6 1.6 23.6 1.6 23.6 1.8 C 23.6 2 23.5 2.2 23.5 2.3 C 23.5 2.4 23.5 2.6 23.6 2.7 C 23.6 2.8 23.6 2.9 23.5 3 C 23.4 3 23.4 3 23.3 3 C 23.2 3 23.2 3 23.2 2.9 C 23.1 2.9 23.1 2.7 23.1 2.6 C 23.1 2.5 23.1 2.2 23.2 1.8 C 23.2 1.8 23.3 1.1 23.3 1.1 C 23.3 1 23.3 0.9 23.3 0.9 C 23.3 0.7 23.4 0.6 23.4 0.6 C 23.4 0.6 23.4 0.6 23.5 0.5 C 23.5 0.5 23.6 0.5 23.6 0.5 C 23.7 0.5 23.7 0.5 23.7 0.6 C 23.8 0.6 23.8 0.7 23.8 0.8 C 23.8 0.8 23.7 1.3 23.7 1.3 Z M 24.2 2.4 C 24.2 2.4 24.29 1.83 24.3 1.8 C 24.4 1.4 24.4 1.1 24.4 0.9 C 24.4 0.8 24.4 0.7 24.5 0.7 C 24.5 0.7 24.5 0.6 24.5 0.6 C 24.6 0.6 24.6 0.6 24.7 0.6 C 24.7 0.6 24.8 0.6 24.8 0.6 C 24.8 0.6 24.9 0.7 24.9 0.8 C 25 1 25.1 1.3 25.3 1.6 C 25.5 1.9 25.7 2.2 25.8 2.4 C 25.9 2.2 25.9 1.9 26 1.6 C 26 1.4 26 1.2 26.1 1 C 26.1 0.9 26.1 0.8 26.1 0.7 C 26.1 0.6 26.2 0.5 26.2 0.5 C 26.3 0.4 26.3 0.4 26.4 0.4 C 26.4 0.4 26.5 0.5 26.5 0.5 C 26.5 0.6 26.5 0.6 26.5 0.7 C 26.5 0.8 26.5 0.9 26.5 1 C 26.4 1.2 26.4 1.6 26.3 2 C 26.2 2.4 26.2 2.6 26.2 2.7 C 26.2 2.7 26.2 2.7 26.2 2.7 C 26.2 2.8 26.2 2.9 26.2 2.9 C 26.2 2.9 26.1 2.9 26.1 3 C 26 3 26 3 25.9 3 C 25.9 3 25.8 3 25.8 3 C 25.8 3 25.8 3 25.7 2.9 C 25.7 2.9 25.7 2.8 25.6 2.8 C 25.6 2.7 25.5 2.6 25.5 2.6 C 25.2 2.2 25 1.8 24.7 1.4 C 24.7 1.5 24.6 1.9 24.6 2.4 C 24.6 2.4 24.6 2.5 24.6 2.5 C 24.5 2.6 24.5 2.7 24.5 2.8 C 24.5 2.9 24.5 3 24.4 3 C 24.4 3.1 24.3 3.1 24.3 3.1 C 24.2 3.1 24.2 3.1 24.1 3 C 24.1 3 24.1 2.9 24.1 2.8 C 24.1 2.7 24.1 2.6 24.2 2.4 C 24.16 2.42 24.2 2.4 24.2 2.4 Z M 27.4 2 C 27.4 2.1 27.3 2.2 27.3 2.5 C 27.3 2.7 27.3 2.8 27.3 2.9 C 27.2 3 27.2 3.1 27.1 3.1 C 27 3.1 27 3.1 26.9 3 C 26.9 3 26.9 2.9 26.9 2.8 C 26.9 2.8 26.9 2.7 26.9 2.5 C 27 2.2 27.1 1.6 27.2 0.6 C 27.2 0.6 27.2 0.6 27.2 0.5 C 27.3 0.5 27.3 0.5 27.3 0.5 C 27.5 0.5 27.6 0.6 27.6 0.8 C 27.6 0.8 27.6 1 27.5 1.2 C 27.5 1.4 27.5 1.5 27.5 1.6 C 27.5 1.6 27.5 1.6 27.6 1.6 C 27.7 1.6 28 1.6 28.3 1.6 C 28.6 1.6 28.7 1.5 28.7 1.5 C 28.8 1.5 28.8 1.3 28.8 1.2 C 28.8 1 28.8 0.8 28.8 0.5 C 28.8 0.5 28.9 0.5 28.9 0.4 C 29 0.4 29 0.4 29.1 0.4 C 29.1 0.4 29.2 0.4 29.2 0.4 C 29.3 0.5 29.3 0.5 29.3 0.6 C 29.3 0.7 29.3 0.8 29.2 1 C 29.2 1.3 29.1 1.6 29.1 2 C 29.1 2.4 29.1 2.7 29.1 2.8 C 29.1 2.9 29 2.9 29 3 C 28.9 3 28.9 3.1 28.8 3.1 C 28.8 3.1 28.7 3.1 28.7 3 C 28.6 3 28.6 2.9 28.6 2.9 C 28.6 2.8 28.6 2.7 28.6 2.5 C 28.7 2.2 28.7 2.1 28.7 2 C 28.7 1.9 28.7 1.9 28.7 1.9 C 28.6 1.9 28.5 1.9 28.3 1.9 C 28.2 2 28.1 2 28 2 C 28 2 27.9 2 27.7 2 C 27.5 2 27.4 2 27.4 2 Z M 31.5 0.9 C 31.5 0.9 31 0.9 31 0.9 C 30.8 0.9 30.7 0.9 30.5 0.9 C 30.4 1 30.3 1 30.3 1 C 30.3 1 30.3 1 30.3 1.1 C 30.3 1.1 30.3 1.2 30.2 1.4 C 30.2 1.5 30.2 1.6 30.2 1.7 C 30.3 1.7 30.4 1.6 30.5 1.6 C 30.6 1.6 30.7 1.6 30.8 1.6 C 31 1.6 31.1 1.5 31.2 1.5 C 31.4 1.5 31.4 1.6 31.4 1.7 C 31.4 1.8 31.4 1.8 31.4 1.9 C 31.3 1.9 31.2 1.9 31.1 1.9 C 31.1 1.9 31 1.9 30.9 1.9 C 30.9 2 30.8 2 30.8 2 C 30.4 2 30.2 2 30.2 2.1 C 30.2 2.1 30.2 2.1 30.2 2.1 C 30.2 2.1 30.2 2.1 30.1 2.1 C 30.1 2.1 30.1 2.2 30.1 2.3 C 30.1 2.5 30.1 2.6 30.1 2.7 C 30.1 2.7 30.1 2.7 30.1 2.7 C 30.2 2.7 30.3 2.7 30.6 2.7 C 30.8 2.6 30.9 2.6 31 2.6 C 31.2 2.6 31.3 2.6 31.3 2.6 C 31.5 2.6 31.5 2.7 31.5 2.8 C 31.5 2.8 31.5 2.9 31.5 2.9 C 31.4 2.9 31.2 3 31 3 C 30.8 3 30.7 3 30.4 3 C 30.2 3.1 30 3.1 29.9 3.1 C 29.8 3.1 29.7 3.1 29.7 3 C 29.6 3 29.6 2.9 29.6 2.9 C 29.6 2.9 29.6 2.8 29.6 2.8 C 29.6 2.8 29.6 2.8 29.6 2.7 C 29.7 2.6 29.7 2.2 29.8 1.8 C 29.9 1.3 29.9 1 29.9 1 C 29.9 1 29.9 1 29.9 0.9 C 29.9 0.9 29.9 0.9 29.8 0.9 C 29.8 0.8 29.8 0.8 29.8 0.8 C 29.8 0.7 29.8 0.7 29.8 0.7 C 29.8 0.7 29.8 0.7 29.9 0.6 C 29.9 0.6 30 0.6 30 0.6 C 30.1 0.6 30.1 0.6 30.2 0.6 C 30.3 0.6 30.6 0.6 31.1 0.5 C 31.3 0.5 31.4 0.5 31.4 0.5 C 31.4 0.5 31.4 0.5 31.4 0.5 C 31.6 0.5 31.7 0.5 31.7 0.7 C 31.7 0.7 31.7 0.7 31.6 0.8 C 31.6 0.8 31.6 0.8 31.5 0.9 Z M 32.5 1.3 C 32.5 1.4 32.5 1.5 32.5 1.5 C 32.5 1.6 32.5 1.6 32.4 1.8 C 32.4 2 32.4 2.2 32.4 2.3 C 32.4 2.4 32.4 2.6 32.4 2.7 C 32.4 2.8 32.4 2.9 32.3 3 C 32.3 3 32.2 3 32.2 3 C 32.1 3 32 3 32 2.9 C 32 2.9 31.9 2.7 31.9 2.6 C 31.9 2.5 32 2.2 32 1.8 C 32 1.8 32.1 1.1 32.1 1.1 C 32.1 1 32.2 0.9 32.2 0.9 C 32.2 0.7 32.2 0.6 32.2 0.6 C 32.2 0.6 32.3 0.6 32.3 0.5 C 32.4 0.5 32.4 0.5 32.4 0.5 C 32.5 0.5 32.6 0.5 32.6 0.6 C 32.6 0.6 32.6 0.7 32.6 0.8 C 32.6 0.8 32.5 1.3 32.5 1.3 Z M 33.2 0.9 C 33.2 0.9 33.16 0.88 33.2 0.9 C 33.1 0.8 33.1 0.8 33.1 0.7 C 33.1 0.7 33.1 0.6 33.2 0.6 C 33.2 0.6 33.3 0.5 33.3 0.5 C 33.4 0.5 33.4 0.5 33.4 0.6 C 33.4 0.6 33.5 0.6 33.5 0.6 C 33.8 0.5 34 0.5 34.2 0.5 C 34.4 0.5 34.6 0.5 34.8 0.7 C 34.9 0.8 35 0.9 35 1.1 C 35 1.3 34.9 1.4 34.8 1.6 C 34.6 1.7 34.4 1.9 34.2 2 C 34.6 2.3 34.9 2.5 35.1 2.6 C 35.2 2.7 35.2 2.7 35.2 2.8 C 35.2 2.9 35.2 2.9 35.2 2.9 C 35.1 3 35.1 3 35 3 C 34.9 3 34.9 3 34.8 2.9 C 34.7 2.9 34.6 2.8 34.4 2.7 C 34.3 2.5 34.2 2.5 34.2 2.4 C 33.9 2.3 33.8 2.1 33.7 2.1 C 33.6 2.1 33.5 2 33.5 1.9 C 33.5 1.8 33.5 1.8 33.6 1.8 C 33.7 1.7 33.7 1.7 33.8 1.7 C 33.8 1.7 33.8 1.7 33.8 1.7 C 33.9 1.7 33.9 1.7 33.9 1.7 C 34 1.7 34.1 1.6 34.3 1.5 C 34.5 1.4 34.6 1.3 34.6 1.1 C 34.6 1 34.5 1 34.5 0.9 C 34.4 0.8 34.3 0.8 34.2 0.8 C 34 0.8 33.9 0.8 33.8 0.8 C 33.7 0.9 33.6 0.9 33.6 0.9 C 33.6 0.9 33.6 0.9 33.6 0.9 C 33.6 1 33.6 1.1 33.5 1.3 C 33.5 1.5 33.5 1.7 33.4 2 C 33.4 2.2 33.4 2.4 33.4 2.5 C 33.4 2.6 33.4 2.6 33.4 2.7 C 33.4 2.8 33.4 2.8 33.4 2.9 C 33.4 2.9 33.4 2.9 33.3 3 C 33.3 3 33.2 3.1 33.2 3.1 C 33 3.1 32.9 3 32.9 2.7 C 32.9 2.6 33 2.3 33 2 C 33 1.7 33.1 1.4 33.1 1.1 C 33.1 1.1 33.1 1.1 33.2 1 C 33.16 1.04 33.2 0.9 33.2 0.9 Z M 36.1 3.1 C 35.9 3.1 35.7 3 35.6 2.8 C 35.4 2.6 35.4 2.4 35.4 2.2 C 35.4 2 35.4 1.7 35.6 1.5 C 35.7 1.2 35.9 0.9 36.1 0.7 C 36.3 0.6 36.6 0.5 36.8 0.5 C 37 0.5 37.2 0.5 37.3 0.5 C 37.4 0.6 37.5 0.7 37.6 0.7 C 37.7 0.8 37.8 0.9 37.8 1 C 37.9 1.1 37.9 1.2 37.9 1.4 C 37.9 1.5 37.8 1.7 37.8 1.9 C 37.7 2.1 37.5 2.3 37.4 2.5 C 37.2 2.7 37 2.8 36.8 2.9 C 36.6 3 36.4 3.1 36.1 3.1 Z M 35.8 2.2 C 35.8 2.4 35.8 2.5 35.9 2.6 C 36 2.7 36.1 2.7 36.2 2.7 C 36.5 2.7 36.8 2.6 37.1 2.3 C 37.3 2 37.5 1.7 37.5 1.3 C 37.5 1.2 37.4 1.1 37.4 1.1 C 37.3 1 37.3 0.9 37.2 0.9 C 37.1 0.8 36.9 0.8 36.8 0.8 C 36.6 0.8 36.4 1 36.1 1.3 C 35.9 1.6 35.8 1.9 35.8 2.2 Z M 41.4 0.8 C 41.4 1 41.3 1.1 41.1 1.1 C 41.1 1 41 0.9 41 0.9 C 40.9 0.9 40.8 0.8 40.7 0.8 C 40.5 0.8 40.3 0.9 40.2 1 C 40 1.1 39.9 1.2 39.9 1.3 C 39.9 1.4 40 1.4 40 1.5 C 40.1 1.5 40.2 1.6 40.5 1.7 C 40.8 1.7 41 1.8 41.1 1.9 C 41.2 2 41.3 2.1 41.3 2.3 C 41.3 2.5 41.1 2.7 40.8 2.9 C 40.5 3 40.1 3.1 39.8 3.1 C 39.6 3.1 39.5 3.1 39.5 3.1 C 39.4 3 39.4 3 39.4 2.9 C 39.4 2.8 39.4 2.8 39.4 2.7 C 39.4 2.7 39.5 2.6 39.5 2.6 C 39.6 2.6 39.6 2.7 39.6 2.7 C 39.7 2.7 39.8 2.7 39.9 2.7 C 40.1 2.7 40.3 2.7 40.5 2.6 C 40.8 2.5 40.9 2.4 40.9 2.3 C 40.9 2.3 40.8 2.2 40.8 2.2 C 40.7 2.1 40.6 2.1 40.5 2 C 40.2 2 40 1.9 39.9 1.8 C 39.8 1.8 39.7 1.7 39.6 1.6 C 39.5 1.6 39.5 1.4 39.5 1.3 C 39.5 1.1 39.6 0.9 39.9 0.7 C 40.1 0.6 40.4 0.5 40.8 0.5 C 41 0.5 41.1 0.5 41.2 0.6 C 41.3 0.7 41.4 0.7 41.4 0.8 C 41.4 0.8 41.4 0.8 41.4 0.8 Z M 43.6 0.9 C 43.6 0.9 43.1 0.9 43.1 0.9 C 42.9 0.9 42.7 0.9 42.6 0.9 C 42.5 1 42.4 1 42.4 1 C 42.4 1 42.4 1 42.4 1.1 C 42.3 1.1 42.3 1.2 42.3 1.4 C 42.3 1.5 42.2 1.6 42.2 1.7 C 42.3 1.7 42.4 1.6 42.6 1.6 C 42.7 1.6 42.8 1.6 42.8 1.6 C 43 1.6 43.1 1.5 43.2 1.5 C 43.4 1.5 43.5 1.6 43.5 1.7 C 43.5 1.8 43.5 1.8 43.4 1.9 C 43.4 1.9 43.3 1.9 43.2 1.9 C 43.1 1.9 43 1.9 43 1.9 C 42.9 2 42.9 2 42.8 2 C 42.5 2 42.3 2 42.2 2.1 C 42.2 2.1 42.2 2.1 42.2 2.1 C 42.2 2.1 42.2 2.1 42.2 2.1 C 42.2 2.1 42.2 2.2 42.1 2.3 C 42.1 2.5 42.1 2.6 42.1 2.7 C 42.1 2.7 42.1 2.7 42.2 2.7 C 42.2 2.7 42.4 2.7 42.6 2.7 C 42.8 2.6 43 2.6 43 2.6 C 43.2 2.6 43.3 2.6 43.4 2.6 C 43.5 2.6 43.6 2.7 43.6 2.8 C 43.6 2.8 43.6 2.9 43.5 2.9 C 43.4 2.9 43.2 3 43 3 C 42.9 3 42.7 3 42.5 3 C 42.3 3.1 42.1 3.1 41.9 3.1 C 41.8 3.1 41.8 3.1 41.7 3 C 41.7 3 41.7 2.9 41.6 2.9 C 41.6 2.9 41.6 2.8 41.6 2.8 C 41.6 2.8 41.6 2.8 41.7 2.7 C 41.7 2.6 41.8 2.2 41.8 1.8 C 41.9 1.3 41.9 1 41.9 1 C 41.9 1 41.9 1 41.9 0.9 C 41.9 0.9 41.9 0.9 41.9 0.9 C 41.9 0.8 41.9 0.8 41.9 0.8 C 41.9 0.7 41.9 0.7 41.9 0.7 C 41.9 0.7 41.9 0.7 41.9 0.6 C 42 0.6 42 0.6 42.1 0.6 C 42.1 0.6 42.2 0.6 42.2 0.6 C 42.3 0.6 42.6 0.6 43.1 0.5 C 43.3 0.5 43.4 0.5 43.4 0.5 C 43.4 0.5 43.4 0.5 43.4 0.5 C 43.6 0.5 43.8 0.5 43.8 0.7 C 43.8 0.7 43.7 0.7 43.7 0.8 C 43.7 0.8 43.6 0.8 43.6 0.9 Z M 44.2 0.9 C 44.2 0.9 44.17 0.88 44.2 0.9 C 44.1 0.8 44.1 0.8 44.1 0.7 C 44.1 0.7 44.1 0.6 44.2 0.6 C 44.3 0.6 44.3 0.5 44.4 0.5 C 44.4 0.5 44.4 0.5 44.4 0.6 C 44.5 0.6 44.5 0.6 44.5 0.6 C 44.8 0.5 45.1 0.5 45.2 0.5 C 45.5 0.5 45.7 0.5 45.8 0.7 C 45.9 0.8 46 0.9 46 1.1 C 46 1.3 46 1.4 45.8 1.6 C 45.7 1.7 45.5 1.9 45.2 2 C 45.6 2.3 45.9 2.5 46.1 2.6 C 46.2 2.7 46.3 2.7 46.3 2.8 C 46.3 2.9 46.2 2.9 46.2 2.9 C 46.1 3 46.1 3 46 3 C 46 3 45.9 3 45.8 2.9 C 45.7 2.9 45.6 2.8 45.4 2.7 C 45.3 2.5 45.2 2.5 45.2 2.4 C 45 2.3 44.8 2.1 44.7 2.1 C 44.6 2.1 44.5 2 44.5 1.9 C 44.5 1.8 44.6 1.8 44.6 1.8 C 44.7 1.7 44.7 1.7 44.8 1.7 C 44.8 1.7 44.8 1.7 44.9 1.7 C 44.9 1.7 44.9 1.7 44.9 1.7 C 45 1.7 45.1 1.6 45.3 1.5 C 45.5 1.4 45.6 1.3 45.6 1.1 C 45.6 1 45.6 1 45.5 0.9 C 45.4 0.8 45.3 0.8 45.2 0.8 C 45 0.8 44.9 0.8 44.8 0.8 C 44.7 0.9 44.7 0.9 44.6 0.9 C 44.6 0.9 44.6 0.9 44.6 0.9 C 44.6 1 44.6 1.1 44.5 1.3 C 44.5 1.5 44.5 1.7 44.4 2 C 44.4 2.2 44.4 2.4 44.4 2.5 C 44.4 2.6 44.4 2.6 44.4 2.7 C 44.4 2.8 44.4 2.8 44.4 2.9 C 44.4 2.9 44.4 2.9 44.3 3 C 44.3 3 44.2 3.1 44.2 3.1 C 44 3.1 44 3 44 2.7 C 44 2.6 44 2.3 44 2 C 44.1 1.7 44.1 1.4 44.2 1.1 C 44.2 1.1 44.2 1.1 44.2 1 C 44.17 1.04 44.2 0.9 44.2 0.9 Z M 47 1.3 C 47 1.4 47 1.5 47 1.5 C 47 1.6 47 1.6 47 1.8 C 46.9 2 46.9 2.2 46.9 2.3 C 46.9 2.4 46.9 2.6 46.9 2.7 C 46.9 2.8 46.9 2.9 46.9 3 C 46.8 3 46.8 3 46.7 3 C 46.6 3 46.6 3 46.5 2.9 C 46.5 2.9 46.5 2.7 46.5 2.6 C 46.5 2.5 46.5 2.2 46.6 1.8 C 46.6 1.8 46.6 1.1 46.6 1.1 C 46.7 1 46.7 0.9 46.7 0.9 C 46.7 0.7 46.7 0.6 46.7 0.6 C 46.8 0.6 46.8 0.6 46.8 0.5 C 46.9 0.5 46.9 0.5 47 0.5 C 47 0.5 47.1 0.5 47.1 0.6 C 47.1 0.6 47.2 0.7 47.2 0.8 C 47.2 0.8 47 1.3 47 1.3 Z M 48 2.5 C 48 2.5 47.9 2.4 47.9 2.4 C 47.9 2.5 47.8 2.6 47.7 2.7 C 47.6 2.9 47.6 3 47.5 3 C 47.5 3 47.5 3 47.4 3 C 47.4 3 47.3 3 47.3 3 C 47.2 2.9 47.2 2.9 47.2 2.8 C 47.2 2.8 47.3 2.5 47.6 2.1 C 47.8 1.9 47.9 1.6 48.1 1.4 C 48.3 0.9 48.5 0.7 48.5 0.6 C 48.6 0.5 48.6 0.5 48.7 0.5 C 48.8 0.5 48.9 0.5 48.9 0.5 C 48.9 0.6 48.9 0.6 48.9 0.7 C 48.9 0.7 48.9 0.7 48.9 0.8 C 49.1 1.4 49.3 1.9 49.4 2.1 C 49.5 2.4 49.7 2.6 49.8 2.7 C 49.8 2.7 49.9 2.8 49.9 2.8 C 49.9 2.8 49.9 2.9 49.9 2.9 C 49.9 3 49.9 3 49.8 3 C 49.8 3.1 49.7 3.1 49.7 3.1 C 49.6 3.1 49.5 3.1 49.4 3 C 49.3 2.9 49.2 2.7 49.2 2.5 C 49.1 2.4 49 2.3 49 2.3 C 49 2.2 49 2.2 49 2.2 C 49 2.2 48.8 2.3 48.6 2.3 C 48.4 2.4 48.2 2.4 48.1 2.4 C 48.1 2.4 48 2.5 48 2.5 C 48 2.5 48 2.5 48 2.5 Z M 48.8 1.9 C 48.8 1.9 48.9 1.9 48.9 1.9 C 48.9 1.8 48.8 1.6 48.7 1.2 C 48.6 1.1 48.6 1.1 48.6 1.1 C 48.6 1.1 48.1 2 48.1 2 C 48.2 2 48.3 2 48.4 2 C 48.4 2 48.5 2 48.8 1.9 C 48.8 1.9 48.8 1.9 48.8 1.9 Z " stroke="none" fill="#000"/>  </g></svg>