<?xml version="1.0" standalone="no"?><!DOCTYPE svg PUBLIC "-//W3C//DTD SVG 1.1//EN" "http://www.w3.org/Graphics/SVG/1.1/DTD/svg11.dtd"><svg xmlns="http://www.w3.org/2000/svg" version="1.1" width="54px" height="26.9px" viewBox="0 -1 54 26.9" style="top:-1px">  <desc>DEPOIS QUE S O ELEITOS... SE ESQUECEM DE CUMPRIR AS PROMESSAS! S PENSAM EM SI MESMOS, NOS SEUS PR PRIOS INTERESSES!!!</desc>  <defs/>  <g id="Polygon12682">    <path d="M 16.4 20.1 C 16.4 20.2 16.4 20.2 16.4 20.3 C 16.4 20.3 16.4 20.4 16.4 20.5 C 16.3 20.7 16.3 20.8 16.3 20.9 C 16.3 21 16.3 21.2 16.3 21.3 C 16.3 21.4 16.3 21.5 16.3 21.5 C 16.2 21.5 16.2 21.6 16.1 21.6 C 16.1 21.6 16 21.5 16 21.5 C 15.9 21.4 15.9 21.3 15.9 21.2 C 15.9 21.1 16 20.8 16 20.5 C 16 20.5 16.1 19.9 16.1 19.9 C 16.1 19.8 16.1 19.8 16.1 19.7 C 16.1 19.6 16.1 19.5 16.2 19.5 C 16.2 19.5 16.2 19.4 16.3 19.4 C 16.3 19.4 16.3 19.4 16.4 19.4 C 16.4 19.4 16.5 19.4 16.5 19.4 C 16.5 19.5 16.5 19.5 16.5 19.6 C 16.5 19.6 16.4 20.1 16.4 20.1 Z M 16.8 21 C 16.8 21 16.95 20.54 16.9 20.5 C 17 20.1 17.1 19.9 17.1 19.7 C 17.1 19.6 17.1 19.6 17.1 19.6 C 17.1 19.5 17.1 19.5 17.2 19.5 C 17.2 19.5 17.2 19.5 17.3 19.5 C 17.3 19.5 17.4 19.5 17.4 19.5 C 17.4 19.5 17.5 19.6 17.5 19.7 C 17.5 19.8 17.6 20.1 17.8 20.3 C 18 20.6 18.1 20.8 18.3 21 C 18.3 20.9 18.3 20.6 18.4 20.4 C 18.4 20.2 18.4 20 18.5 19.9 C 18.5 19.7 18.5 19.6 18.5 19.6 C 18.5 19.5 18.5 19.4 18.6 19.4 C 18.6 19.4 18.7 19.3 18.7 19.3 C 18.8 19.3 18.8 19.4 18.8 19.4 C 18.9 19.4 18.9 19.5 18.9 19.6 C 18.9 19.6 18.9 19.7 18.8 19.8 C 18.8 20 18.7 20.3 18.7 20.7 C 18.6 21 18.6 21.2 18.6 21.3 C 18.6 21.3 18.6 21.3 18.6 21.3 C 18.6 21.4 18.6 21.4 18.6 21.4 C 18.5 21.5 18.5 21.5 18.5 21.5 C 18.4 21.5 18.4 21.6 18.3 21.6 C 18.3 21.6 18.3 21.6 18.3 21.5 C 18.2 21.5 18.2 21.5 18.2 21.5 C 18.2 21.5 18.1 21.4 18.1 21.4 C 18.1 21.3 18 21.2 18 21.2 C 17.8 20.9 17.5 20.5 17.3 20.2 C 17.3 20.3 17.3 20.6 17.2 21 C 17.2 21 17.2 21.1 17.2 21.1 C 17.2 21.2 17.2 21.2 17.2 21.3 C 17.2 21.4 17.1 21.5 17.1 21.6 C 17 21.6 17 21.6 17 21.6 C 16.9 21.6 16.8 21.6 16.8 21.6 C 16.8 21.5 16.8 21.5 16.8 21.4 C 16.8 21.3 16.8 21.2 16.8 21 C 16.84 21.04 16.8 21 16.8 21 Z M 20.8 19.7 C 20.5 19.7 20.4 19.7 20.3 19.8 C 20.3 19.8 20.2 19.8 20.2 19.8 C 20.2 19.9 20.2 20 20.2 20.3 C 20.1 20.6 20.1 20.9 20.1 21.1 C 20.1 21.1 20.1 21.2 20.2 21.3 C 20.2 21.3 20.2 21.3 20.2 21.4 C 20.2 21.4 20.1 21.5 20.1 21.5 C 20.1 21.5 20 21.6 20 21.6 C 20 21.6 19.9 21.6 19.9 21.5 C 19.8 21.5 19.8 21.4 19.8 21.4 C 19.8 21.3 19.8 21.2 19.8 21.1 C 19.8 20.9 19.8 20.6 19.8 20.3 C 19.9 20 19.9 19.8 19.9 19.8 C 19.9 19.8 19.8 19.8 19.6 19.8 C 19.4 19.8 19.3 19.9 19.2 19.9 C 19.1 19.9 19.1 19.8 19 19.8 C 19 19.8 19 19.7 19 19.7 C 19 19.6 19 19.6 19 19.6 C 19.1 19.6 19.2 19.5 19.3 19.5 C 19.6 19.5 19.9 19.5 20.2 19.5 C 20.5 19.4 20.7 19.4 20.9 19.4 C 21 19.4 21.2 19.4 21.2 19.5 C 21.2 19.5 21.2 19.6 21.2 19.6 C 21.2 19.7 21.2 19.7 21.1 19.7 C 21.1 19.7 21 19.7 21 19.7 C 20.9 19.7 20.9 19.7 20.8 19.7 C 20.8 19.7 20.8 19.7 20.8 19.7 Z M 22.8 19.7 C 22.8 19.7 22.3 19.7 22.3 19.7 C 22.2 19.7 22 19.7 21.9 19.8 C 21.8 19.8 21.7 19.8 21.7 19.8 C 21.7 19.8 21.7 19.8 21.7 19.9 C 21.7 19.9 21.7 20 21.7 20.2 C 21.6 20.2 21.6 20.3 21.6 20.4 C 21.7 20.4 21.8 20.4 21.9 20.4 C 22 20.4 22.1 20.3 22.1 20.3 C 22.3 20.3 22.4 20.3 22.5 20.3 C 22.6 20.3 22.7 20.3 22.7 20.4 C 22.7 20.5 22.7 20.5 22.6 20.6 C 22.6 20.6 22.5 20.6 22.4 20.6 C 22.4 20.6 22.3 20.6 22.2 20.6 C 22.2 20.6 22.1 20.6 22.1 20.7 C 21.8 20.7 21.7 20.7 21.6 20.7 C 21.6 20.7 21.6 20.7 21.6 20.7 C 21.6 20.7 21.6 20.7 21.6 20.8 C 21.6 20.8 21.5 20.9 21.5 21 C 21.5 21.1 21.5 21.2 21.5 21.2 C 21.5 21.3 21.5 21.3 21.6 21.3 C 21.6 21.3 21.7 21.3 21.9 21.3 C 22.1 21.2 22.3 21.2 22.3 21.2 C 22.4 21.2 22.5 21.2 22.6 21.2 C 22.7 21.2 22.7 21.2 22.7 21.3 C 22.7 21.4 22.7 21.4 22.7 21.4 C 22.6 21.5 22.5 21.5 22.3 21.5 C 22.2 21.5 22 21.5 21.8 21.6 C 21.6 21.6 21.5 21.6 21.3 21.6 C 21.3 21.6 21.2 21.6 21.2 21.6 C 21.1 21.5 21.1 21.5 21.1 21.4 C 21.1 21.4 21.1 21.4 21.1 21.4 C 21.1 21.4 21.1 21.3 21.1 21.3 C 21.2 21.2 21.2 20.9 21.3 20.5 C 21.3 20.1 21.3 19.8 21.3 19.8 C 21.3 19.8 21.3 19.8 21.3 19.8 C 21.3 19.8 21.3 19.8 21.3 19.7 C 21.3 19.7 21.3 19.7 21.3 19.6 C 21.3 19.6 21.3 19.6 21.3 19.6 C 21.3 19.6 21.3 19.5 21.3 19.5 C 21.4 19.5 21.4 19.5 21.5 19.5 C 21.5 19.5 21.5 19.5 21.6 19.5 C 21.7 19.5 21.9 19.5 22.4 19.4 C 22.5 19.4 22.6 19.4 22.6 19.4 C 22.6 19.4 22.6 19.4 22.6 19.4 C 22.8 19.4 22.9 19.4 22.9 19.5 C 22.9 19.6 22.9 19.6 22.9 19.6 C 22.8 19.7 22.8 19.7 22.8 19.7 Z M 23.3 19.8 C 23.3 19.8 23.27 19.72 23.3 19.7 C 23.2 19.7 23.2 19.6 23.2 19.6 C 23.2 19.6 23.2 19.5 23.3 19.5 C 23.3 19.5 23.4 19.4 23.4 19.4 C 23.4 19.4 23.5 19.4 23.5 19.4 C 23.5 19.4 23.5 19.4 23.5 19.4 C 23.8 19.4 24 19.4 24.1 19.4 C 24.4 19.4 24.5 19.4 24.7 19.5 C 24.8 19.6 24.9 19.8 24.9 19.9 C 24.9 20.1 24.8 20.2 24.7 20.3 C 24.5 20.5 24.4 20.6 24.2 20.6 C 24.5 20.9 24.8 21.1 25 21.2 C 25 21.3 25 21.3 25 21.4 C 25 21.4 25 21.4 25 21.5 C 24.9 21.5 24.9 21.5 24.9 21.5 C 24.8 21.5 24.7 21.5 24.7 21.5 C 24.6 21.4 24.5 21.3 24.4 21.2 C 24.2 21.1 24.2 21.1 24.1 21.1 C 23.9 20.9 23.8 20.8 23.7 20.7 C 23.6 20.7 23.6 20.7 23.6 20.6 C 23.6 20.5 23.6 20.5 23.6 20.5 C 23.7 20.4 23.7 20.4 23.8 20.4 C 23.8 20.4 23.8 20.4 23.9 20.4 C 23.9 20.4 23.9 20.4 23.9 20.4 C 24 20.4 24.1 20.4 24.2 20.3 C 24.4 20.2 24.5 20 24.5 19.9 C 24.5 19.8 24.5 19.8 24.4 19.7 C 24.3 19.7 24.2 19.7 24.1 19.7 C 24 19.7 23.9 19.7 23.8 19.7 C 23.7 19.7 23.7 19.7 23.7 19.7 C 23.7 19.7 23.7 19.7 23.6 19.8 C 23.6 19.8 23.6 19.9 23.6 20.1 C 23.5 20.2 23.5 20.4 23.5 20.6 C 23.5 20.9 23.5 21 23.5 21.1 C 23.5 21.2 23.5 21.2 23.5 21.3 C 23.5 21.3 23.5 21.4 23.5 21.4 C 23.5 21.5 23.5 21.5 23.4 21.5 C 23.4 21.6 23.3 21.6 23.3 21.6 C 23.1 21.6 23.1 21.5 23.1 21.3 C 23.1 21.2 23.1 20.9 23.1 20.7 C 23.2 20.4 23.2 20.2 23.2 19.9 C 23.3 19.9 23.3 19.9 23.3 19.9 C 23.26 19.86 23.3 19.8 23.3 19.8 Z M 26.9 19.7 C 26.9 19.7 26.4 19.7 26.4 19.7 C 26.3 19.7 26.1 19.7 26 19.8 C 25.9 19.8 25.8 19.8 25.8 19.8 C 25.8 19.8 25.8 19.8 25.8 19.9 C 25.8 19.9 25.8 20 25.8 20.2 C 25.7 20.2 25.7 20.3 25.7 20.4 C 25.8 20.4 25.9 20.4 26 20.4 C 26.1 20.4 26.2 20.3 26.2 20.3 C 26.4 20.3 26.5 20.3 26.6 20.3 C 26.7 20.3 26.8 20.3 26.8 20.4 C 26.8 20.5 26.8 20.5 26.7 20.6 C 26.7 20.6 26.6 20.6 26.5 20.6 C 26.5 20.6 26.4 20.6 26.3 20.6 C 26.3 20.6 26.3 20.6 26.2 20.7 C 25.9 20.7 25.8 20.7 25.7 20.7 C 25.7 20.7 25.7 20.7 25.7 20.7 C 25.7 20.7 25.7 20.7 25.7 20.8 C 25.7 20.8 25.7 20.9 25.6 21 C 25.6 21.1 25.6 21.2 25.6 21.2 C 25.6 21.3 25.6 21.3 25.7 21.3 C 25.7 21.3 25.8 21.3 26 21.3 C 26.2 21.2 26.4 21.2 26.4 21.2 C 26.5 21.2 26.6 21.2 26.7 21.2 C 26.8 21.2 26.9 21.2 26.9 21.3 C 26.9 21.4 26.8 21.4 26.8 21.4 C 26.7 21.5 26.6 21.5 26.4 21.5 C 26.3 21.5 26.1 21.5 25.9 21.6 C 25.8 21.6 25.6 21.6 25.4 21.6 C 25.4 21.6 25.3 21.6 25.3 21.6 C 25.2 21.5 25.2 21.5 25.2 21.4 C 25.2 21.4 25.2 21.4 25.2 21.4 C 25.2 21.4 25.2 21.3 25.2 21.3 C 25.3 21.2 25.3 20.9 25.4 20.5 C 25.4 20.1 25.5 19.8 25.5 19.8 C 25.5 19.8 25.5 19.8 25.4 19.8 C 25.4 19.8 25.4 19.8 25.4 19.7 C 25.4 19.7 25.4 19.7 25.4 19.6 C 25.4 19.6 25.4 19.6 25.4 19.6 C 25.4 19.6 25.4 19.5 25.5 19.5 C 25.5 19.5 25.5 19.5 25.6 19.5 C 25.6 19.5 25.7 19.5 25.7 19.5 C 25.8 19.5 26 19.5 26.5 19.4 C 26.6 19.4 26.7 19.4 26.7 19.4 C 26.7 19.4 26.7 19.4 26.7 19.4 C 26.9 19.4 27 19.4 27 19.5 C 27 19.6 27 19.6 27 19.6 C 26.9 19.7 26.9 19.7 26.9 19.7 Z M 28.8 19.7 C 28.8 19.9 28.7 19.9 28.5 19.9 C 28.5 19.8 28.5 19.8 28.5 19.7 C 28.4 19.7 28.3 19.7 28.2 19.7 C 28.1 19.7 27.9 19.7 27.8 19.8 C 27.6 19.9 27.6 20 27.6 20.1 C 27.6 20.1 27.6 20.2 27.7 20.2 C 27.7 20.3 27.8 20.3 28.1 20.4 C 28.3 20.5 28.5 20.5 28.6 20.6 C 28.7 20.7 28.7 20.8 28.7 20.9 C 28.7 21.1 28.6 21.3 28.3 21.4 C 28 21.6 27.7 21.7 27.4 21.7 C 27.3 21.7 27.2 21.6 27.2 21.6 C 27.1 21.5 27.1 21.5 27.1 21.4 C 27.1 21.4 27.1 21.3 27.1 21.3 C 27.2 21.3 27.2 21.2 27.2 21.2 C 27.3 21.2 27.3 21.2 27.3 21.2 C 27.4 21.3 27.5 21.3 27.6 21.3 C 27.7 21.3 27.9 21.3 28.1 21.2 C 28.3 21.1 28.4 21 28.4 20.9 C 28.4 20.9 28.4 20.9 28.3 20.8 C 28.3 20.8 28.2 20.8 28 20.7 C 27.8 20.6 27.6 20.6 27.5 20.5 C 27.4 20.5 27.4 20.4 27.3 20.4 C 27.2 20.3 27.2 20.2 27.2 20.1 C 27.2 19.9 27.3 19.8 27.5 19.6 C 27.7 19.4 28 19.4 28.3 19.4 C 28.5 19.4 28.6 19.4 28.7 19.5 C 28.8 19.5 28.8 19.6 28.8 19.7 C 28.8 19.7 28.8 19.7 28.8 19.7 Z M 30.7 19.7 C 30.7 19.9 30.6 19.9 30.4 19.9 C 30.4 19.8 30.4 19.8 30.3 19.7 C 30.3 19.7 30.2 19.7 30.1 19.7 C 29.9 19.7 29.8 19.7 29.6 19.8 C 29.5 19.9 29.4 20 29.4 20.1 C 29.4 20.1 29.4 20.2 29.5 20.2 C 29.6 20.3 29.7 20.3 29.9 20.4 C 30.1 20.5 30.3 20.5 30.4 20.6 C 30.5 20.7 30.6 20.8 30.6 20.9 C 30.6 21.1 30.5 21.3 30.2 21.4 C 29.9 21.6 29.6 21.7 29.3 21.7 C 29.2 21.7 29.1 21.6 29 21.6 C 29 21.5 28.9 21.5 28.9 21.4 C 28.9 21.4 29 21.3 29 21.3 C 29 21.3 29 21.2 29.1 21.2 C 29.1 21.2 29.1 21.2 29.1 21.2 C 29.2 21.3 29.3 21.3 29.4 21.3 C 29.6 21.3 29.8 21.3 29.9 21.2 C 30.1 21.1 30.2 21 30.2 20.9 C 30.2 20.9 30.2 20.9 30.2 20.8 C 30.1 20.8 30 20.8 29.9 20.7 C 29.7 20.6 29.5 20.6 29.4 20.5 C 29.3 20.5 29.2 20.4 29.1 20.4 C 29.1 20.3 29.1 20.2 29.1 20.1 C 29.1 19.9 29.2 19.8 29.4 19.6 C 29.6 19.4 29.8 19.4 30.1 19.4 C 30.3 19.4 30.4 19.4 30.5 19.5 C 30.6 19.5 30.7 19.6 30.7 19.7 C 30.7 19.7 30.7 19.7 30.7 19.7 Z M 32.6 19.7 C 32.6 19.7 32.1 19.7 32.1 19.7 C 32 19.7 31.8 19.7 31.7 19.8 C 31.6 19.8 31.5 19.8 31.5 19.8 C 31.5 19.8 31.5 19.8 31.5 19.9 C 31.5 19.9 31.5 20 31.4 20.2 C 31.4 20.2 31.4 20.3 31.4 20.4 C 31.5 20.4 31.6 20.4 31.7 20.4 C 31.8 20.4 31.9 20.3 31.9 20.3 C 32.1 20.3 32.2 20.3 32.2 20.3 C 32.4 20.3 32.5 20.3 32.5 20.4 C 32.5 20.5 32.5 20.5 32.4 20.6 C 32.4 20.6 32.3 20.6 32.2 20.6 C 32.2 20.6 32.1 20.6 32 20.6 C 32 20.6 31.9 20.6 31.9 20.7 C 31.6 20.7 31.5 20.7 31.4 20.7 C 31.4 20.7 31.4 20.7 31.4 20.7 C 31.4 20.7 31.4 20.7 31.4 20.8 C 31.4 20.8 31.3 20.9 31.3 21 C 31.3 21.1 31.3 21.2 31.3 21.2 C 31.3 21.3 31.3 21.3 31.4 21.3 C 31.4 21.3 31.5 21.3 31.7 21.3 C 31.9 21.2 32 21.2 32.1 21.2 C 32.2 21.2 32.3 21.2 32.4 21.2 C 32.5 21.2 32.5 21.2 32.5 21.3 C 32.5 21.4 32.5 21.4 32.5 21.4 C 32.4 21.5 32.3 21.5 32.1 21.5 C 32 21.5 31.8 21.5 31.6 21.6 C 31.4 21.6 31.3 21.6 31.1 21.6 C 31 21.6 31 21.6 31 21.6 C 30.9 21.5 30.9 21.5 30.9 21.4 C 30.9 21.4 30.9 21.4 30.9 21.4 C 30.9 21.4 30.9 21.3 30.9 21.3 C 31 21.2 31 20.9 31.1 20.5 C 31.1 20.1 31.1 19.8 31.1 19.8 C 31.1 19.8 31.1 19.8 31.1 19.8 C 31.1 19.8 31.1 19.8 31.1 19.7 C 31.1 19.7 31.1 19.7 31.1 19.6 C 31.1 19.6 31.1 19.6 31.1 19.6 C 31.1 19.6 31.1 19.5 31.1 19.5 C 31.2 19.5 31.2 19.5 31.3 19.5 C 31.3 19.5 31.3 19.5 31.4 19.5 C 31.5 19.5 31.7 19.5 32.2 19.4 C 32.3 19.4 32.4 19.4 32.4 19.4 C 32.4 19.4 32.4 19.4 32.4 19.4 C 32.6 19.4 32.7 19.4 32.7 19.5 C 32.7 19.6 32.7 19.6 32.7 19.6 C 32.6 19.7 32.6 19.7 32.6 19.7 Z M 34.5 19.7 C 34.5 19.9 34.4 19.9 34.2 19.9 C 34.2 19.8 34.2 19.8 34.1 19.7 C 34.1 19.7 34 19.7 33.9 19.7 C 33.8 19.7 33.6 19.7 33.5 19.8 C 33.3 19.9 33.3 20 33.3 20.1 C 33.3 20.1 33.3 20.2 33.3 20.2 C 33.4 20.3 33.5 20.3 33.7 20.4 C 34 20.5 34.2 20.5 34.3 20.6 C 34.4 20.7 34.4 20.8 34.4 20.9 C 34.4 21.1 34.3 21.3 34 21.4 C 33.7 21.6 33.4 21.7 33.1 21.7 C 33 21.7 32.9 21.6 32.9 21.6 C 32.8 21.5 32.8 21.5 32.8 21.4 C 32.8 21.4 32.8 21.3 32.8 21.3 C 32.8 21.3 32.9 21.2 32.9 21.2 C 32.9 21.2 33 21.2 33 21.2 C 33.1 21.3 33.2 21.3 33.3 21.3 C 33.4 21.3 33.6 21.3 33.8 21.2 C 34 21.1 34.1 21 34.1 20.9 C 34.1 20.9 34 20.9 34 20.8 C 33.9 20.8 33.9 20.8 33.7 20.7 C 33.5 20.6 33.3 20.6 33.2 20.5 C 33.1 20.5 33 20.4 33 20.4 C 32.9 20.3 32.9 20.2 32.9 20.1 C 32.9 19.9 33 19.8 33.2 19.6 C 33.4 19.4 33.7 19.4 34 19.4 C 34.1 19.4 34.3 19.4 34.4 19.5 C 34.5 19.5 34.5 19.6 34.5 19.7 C 34.5 19.7 34.5 19.7 34.5 19.7 Z M 35.1 20.6 C 35.1 20.7 35.1 20.8 35.1 20.8 C 35 20.8 34.9 20.8 34.8 20.8 C 34.8 20.6 34.8 20.4 34.9 20.2 C 34.9 19.9 34.9 19.8 34.9 19.7 C 34.9 19.7 34.9 19.6 35 19.6 C 35 19.5 35 19.4 35 19.4 C 35.1 19.4 35.1 19.3 35.2 19.3 C 35.2 19.3 35.3 19.4 35.3 19.4 C 35.3 19.4 35.3 19.4 35.3 19.5 C 35.3 19.5 35.3 19.6 35.3 19.8 C 35.2 20 35.2 20.1 35.2 20.3 C 35.1 20.4 35.1 20.5 35.1 20.6 C 35.1 20.6 35.1 20.6 35.1 20.6 Z M 34.8 21.5 C 34.7 21.5 34.7 21.4 34.7 21.3 C 34.7 21.3 34.7 21.2 34.7 21.2 C 34.8 21.1 34.8 21.1 34.9 21.1 C 34.9 21.1 35 21.1 35 21.1 C 35.1 21.1 35.1 21.2 35.1 21.2 C 35.1 21.2 35.1 21.3 35.1 21.3 C 35.1 21.4 35 21.4 35 21.4 C 34.9 21.5 34.9 21.5 34.8 21.5 Z M 36 20.6 C 36 20.7 36 20.8 36 20.8 C 35.9 20.8 35.8 20.8 35.7 20.8 C 35.7 20.6 35.7 20.4 35.8 20.2 C 35.8 19.9 35.8 19.8 35.8 19.7 C 35.8 19.7 35.8 19.6 35.9 19.6 C 35.9 19.5 35.9 19.4 36 19.4 C 36 19.4 36 19.3 36.1 19.3 C 36.1 19.3 36.2 19.4 36.2 19.4 C 36.2 19.4 36.3 19.4 36.3 19.5 C 36.3 19.5 36.2 19.6 36.2 19.8 C 36.2 20 36.1 20.1 36.1 20.3 C 36 20.4 36 20.5 36 20.6 C 36 20.6 36 20.6 36 20.6 Z M 35.8 21.5 C 35.6 21.5 35.6 21.4 35.6 21.3 C 35.6 21.3 35.6 21.2 35.7 21.2 C 35.7 21.1 35.7 21.1 35.8 21.1 C 35.8 21.1 35.9 21.1 35.9 21.1 C 36 21.1 36 21.2 36 21.2 C 36 21.2 36 21.3 36 21.3 C 36 21.4 35.9 21.4 35.9 21.4 C 35.8 21.5 35.8 21.5 35.8 21.5 Z M 36.9 20.6 C 36.9 20.7 36.9 20.8 36.9 20.8 C 36.8 20.8 36.7 20.8 36.6 20.8 C 36.6 20.6 36.6 20.4 36.7 20.2 C 36.7 19.9 36.8 19.8 36.8 19.7 C 36.8 19.7 36.8 19.6 36.8 19.6 C 36.8 19.5 36.8 19.4 36.9 19.4 C 36.9 19.4 37 19.3 37 19.3 C 37 19.3 37.1 19.4 37.1 19.4 C 37.1 19.4 37.2 19.4 37.2 19.5 C 37.2 19.5 37.1 19.6 37.1 19.8 C 37.1 20 37 20.1 37 20.3 C 36.9 20.4 36.9 20.5 36.9 20.6 C 36.9 20.6 36.9 20.6 36.9 20.6 Z M 36.7 21.5 C 36.6 21.5 36.5 21.4 36.5 21.3 C 36.5 21.3 36.5 21.2 36.6 21.2 C 36.6 21.1 36.7 21.1 36.7 21.1 C 36.7 21.1 36.8 21.1 36.8 21.1 C 36.9 21.1 36.9 21.2 36.9 21.2 C 36.9 21.2 36.9 21.3 36.9 21.3 C 36.9 21.4 36.8 21.4 36.8 21.4 C 36.7 21.5 36.7 21.5 36.7 21.5 Z " stroke="none" fill="#000"/>  </g>  <g id="Polygon12681">    <path d="M 4.6 16 C 4.6 16 4.6 15.9 4.6 15.9 C 4.6 15.9 4.1 16.6 4.1 16.6 C 3.9 16.9 3.7 17 3.6 17 C 3.6 17 3.5 17 3.5 16.9 C 3.4 16.9 3.4 16.8 3.3 16.6 C 3.3 16.5 3.3 16.4 3.2 16.3 C 3.2 16.2 3.2 16.1 3.1 16.1 C 3.1 16.1 3.1 16.5 3.1 16.5 C 3.1 16.6 3 16.7 3 16.8 C 3 16.9 3 17 2.9 17.2 C 2.9 17.3 2.9 17.4 2.9 17.5 C 2.9 17.5 2.8 17.5 2.8 17.6 C 2.8 17.6 2.7 17.6 2.7 17.6 C 2.7 17.6 2.6 17.6 2.6 17.5 C 2.5 17.5 2.5 17.5 2.5 17.4 C 2.5 17.3 2.5 17.2 2.6 17.1 C 2.7 16.5 2.8 16.1 2.8 15.9 C 2.9 15.8 2.9 15.7 2.9 15.6 C 2.9 15.5 2.9 15.5 2.9 15.4 C 3 15.4 3.1 15.4 3.1 15.4 C 3.2 15.4 3.2 15.4 3.2 15.5 C 3.3 15.5 3.3 15.6 3.3 15.6 C 3.32 15.62 3.3 15.6 3.3 15.6 C 3.3 15.6 3.53 16.19 3.5 16.2 C 3.6 16.4 3.7 16.6 3.7 16.6 C 3.8 16.5 4 16.3 4.2 16 C 4.4 15.7 4.5 15.6 4.6 15.5 C 4.7 15.4 4.7 15.4 4.7 15.4 C 4.8 15.4 4.8 15.4 4.9 15.4 C 5 15.5 5 15.5 5 15.5 C 5 15.5 5 15.7 4.9 16 C 4.9 16.2 4.9 16.4 4.9 16.6 C 4.8 16.8 4.8 17 4.8 17 C 4.8 17.1 4.8 17.1 4.9 17.2 C 4.9 17.2 4.9 17.3 4.9 17.3 C 4.9 17.4 4.8 17.5 4.8 17.5 C 4.8 17.5 4.7 17.6 4.7 17.6 C 4.5 17.6 4.5 17.5 4.5 17.3 C 4.5 17.1 4.5 16.9 4.5 16.6 C 4.5 16.4 4.6 16.1 4.6 16 C 4.6 16 4.6 16 4.6 16 Z M 7 15.7 C 7 15.7 6.5 15.7 6.5 15.7 C 6.4 15.7 6.3 15.7 6.1 15.8 C 6 15.8 6 15.8 6 15.8 C 6 15.8 5.9 15.8 5.9 15.9 C 5.9 15.9 5.9 16 5.9 16.2 C 5.9 16.2 5.8 16.3 5.8 16.4 C 5.9 16.4 6 16.4 6.1 16.4 C 6.2 16.4 6.3 16.3 6.4 16.3 C 6.5 16.3 6.6 16.3 6.7 16.3 C 6.8 16.3 6.9 16.3 6.9 16.4 C 6.9 16.5 6.9 16.5 6.9 16.6 C 6.8 16.6 6.7 16.6 6.7 16.6 C 6.6 16.6 6.5 16.6 6.5 16.6 C 6.4 16.6 6.4 16.6 6.3 16.7 C 6.1 16.7 5.9 16.7 5.8 16.7 C 5.8 16.7 5.8 16.7 5.8 16.7 C 5.8 16.7 5.8 16.7 5.8 16.8 C 5.8 16.8 5.8 16.9 5.8 17 C 5.7 17.1 5.7 17.2 5.7 17.2 C 5.7 17.3 5.8 17.3 5.8 17.3 C 5.8 17.3 6 17.3 6.2 17.3 C 6.4 17.2 6.5 17.2 6.5 17.2 C 6.7 17.2 6.8 17.2 6.8 17.2 C 6.9 17.2 7 17.2 7 17.3 C 7 17.4 7 17.4 6.9 17.4 C 6.8 17.5 6.7 17.5 6.5 17.5 C 6.4 17.5 6.2 17.5 6.1 17.6 C 5.9 17.6 5.7 17.6 5.6 17.6 C 5.5 17.6 5.4 17.6 5.4 17.6 C 5.4 17.5 5.3 17.5 5.3 17.4 C 5.3 17.4 5.3 17.4 5.3 17.4 C 5.3 17.4 5.3 17.3 5.4 17.3 C 5.4 17.2 5.4 16.9 5.5 16.5 C 5.6 16.1 5.6 15.8 5.6 15.8 C 5.6 15.8 5.6 15.8 5.6 15.8 C 5.6 15.8 5.6 15.8 5.5 15.7 C 5.5 15.7 5.5 15.7 5.5 15.6 C 5.5 15.6 5.5 15.6 5.5 15.6 C 5.5 15.6 5.5 15.5 5.6 15.5 C 5.6 15.5 5.7 15.5 5.7 15.5 C 5.7 15.5 5.8 15.5 5.8 15.5 C 5.9 15.5 6.2 15.5 6.6 15.4 C 6.8 15.4 6.8 15.4 6.9 15.4 C 6.9 15.4 6.9 15.4 6.9 15.4 C 7.1 15.4 7.1 15.4 7.1 15.5 C 7.1 15.6 7.1 15.6 7.1 15.6 C 7.1 15.7 7 15.7 7 15.7 Z M 8.9 15.7 C 8.9 15.9 8.9 15.9 8.7 15.9 C 8.7 15.8 8.6 15.8 8.6 15.7 C 8.5 15.7 8.5 15.7 8.4 15.7 C 8.2 15.7 8.1 15.7 7.9 15.8 C 7.8 15.9 7.7 16 7.7 16.1 C 7.7 16.1 7.7 16.2 7.8 16.2 C 7.8 16.3 8 16.3 8.2 16.4 C 8.4 16.5 8.6 16.5 8.7 16.6 C 8.8 16.7 8.9 16.8 8.9 16.9 C 8.9 17.1 8.7 17.3 8.4 17.4 C 8.2 17.6 7.9 17.7 7.6 17.7 C 7.5 17.7 7.4 17.6 7.3 17.6 C 7.3 17.5 7.2 17.5 7.2 17.4 C 7.2 17.4 7.2 17.3 7.3 17.3 C 7.3 17.3 7.3 17.2 7.4 17.2 C 7.4 17.2 7.4 17.2 7.4 17.2 C 7.5 17.3 7.6 17.3 7.7 17.3 C 7.9 17.3 8 17.3 8.2 17.2 C 8.4 17.1 8.5 17 8.5 16.9 C 8.5 16.9 8.5 16.9 8.4 16.8 C 8.4 16.8 8.3 16.8 8.1 16.7 C 7.9 16.6 7.8 16.6 7.7 16.5 C 7.6 16.5 7.5 16.4 7.4 16.4 C 7.4 16.3 7.3 16.2 7.3 16.1 C 7.3 15.9 7.5 15.8 7.7 15.6 C 7.9 15.4 8.1 15.4 8.4 15.4 C 8.6 15.4 8.7 15.4 8.8 15.5 C 8.9 15.5 8.9 15.6 8.9 15.7 C 8.9 15.7 8.9 15.7 8.9 15.7 Z M 11.2 16 C 11.2 16 11.2 15.9 11.2 15.9 C 11.2 15.9 10.7 16.6 10.7 16.6 C 10.5 16.9 10.3 17 10.2 17 C 10.2 17 10.1 17 10.1 16.9 C 10 16.9 10 16.8 9.9 16.6 C 9.9 16.5 9.9 16.4 9.8 16.3 C 9.8 16.2 9.8 16.1 9.8 16.1 C 9.8 16.1 9.7 16.5 9.7 16.5 C 9.7 16.6 9.6 16.7 9.6 16.8 C 9.6 16.9 9.6 17 9.5 17.2 C 9.5 17.3 9.5 17.4 9.5 17.5 C 9.5 17.5 9.5 17.5 9.4 17.6 C 9.4 17.6 9.3 17.6 9.3 17.6 C 9.3 17.6 9.2 17.6 9.2 17.5 C 9.1 17.5 9.1 17.5 9.1 17.4 C 9.1 17.3 9.1 17.2 9.2 17.1 C 9.3 16.5 9.4 16.1 9.5 15.9 C 9.5 15.8 9.5 15.7 9.5 15.6 C 9.5 15.5 9.5 15.5 9.6 15.4 C 9.6 15.4 9.7 15.4 9.7 15.4 C 9.8 15.4 9.8 15.4 9.9 15.5 C 9.9 15.5 9.9 15.6 9.9 15.6 C 9.93 15.62 9.9 15.6 9.9 15.6 C 9.9 15.6 10.14 16.19 10.1 16.2 C 10.2 16.4 10.3 16.6 10.3 16.6 C 10.4 16.5 10.6 16.3 10.8 16 C 11 15.7 11.1 15.6 11.2 15.5 C 11.3 15.4 11.3 15.4 11.4 15.4 C 11.4 15.4 11.5 15.4 11.5 15.4 C 11.6 15.5 11.6 15.5 11.6 15.5 C 11.6 15.5 11.6 15.7 11.5 16 C 11.5 16.2 11.5 16.4 11.5 16.6 C 11.5 16.8 11.4 17 11.4 17 C 11.4 17.1 11.4 17.1 11.5 17.2 C 11.5 17.2 11.5 17.3 11.5 17.3 C 11.5 17.4 11.5 17.5 11.4 17.5 C 11.4 17.5 11.3 17.6 11.3 17.6 C 11.1 17.6 11.1 17.5 11.1 17.3 C 11.1 17.1 11.1 16.9 11.1 16.6 C 11.2 16.4 11.2 16.1 11.2 16 C 11.2 16 11.2 16 11.2 16 Z M 12.5 17.6 C 12.4 17.6 12.2 17.5 12.1 17.4 C 11.9 17.2 11.9 17.1 11.9 16.9 C 11.9 16.7 11.9 16.5 12.1 16.2 C 12.2 16 12.3 15.8 12.5 15.6 C 12.7 15.5 12.9 15.4 13.1 15.4 C 13.3 15.4 13.4 15.4 13.5 15.4 C 13.7 15.5 13.8 15.5 13.8 15.6 C 13.9 15.7 14 15.8 14 15.8 C 14 15.9 14.1 16 14.1 16.2 C 14.1 16.3 14 16.4 13.9 16.6 C 13.9 16.8 13.7 17 13.6 17.1 C 13.4 17.3 13.3 17.4 13.1 17.5 C 13 17.6 12.8 17.6 12.5 17.6 Z M 12.3 16.9 C 12.3 17 12.3 17.1 12.4 17.2 C 12.4 17.3 12.5 17.3 12.6 17.3 C 12.9 17.3 13.1 17.2 13.3 16.9 C 13.6 16.7 13.7 16.4 13.7 16.1 C 13.7 16 13.7 15.9 13.6 15.9 C 13.6 15.8 13.5 15.8 13.4 15.7 C 13.3 15.7 13.2 15.7 13.1 15.7 C 13 15.7 12.8 15.8 12.6 16.1 C 12.4 16.3 12.3 16.6 12.3 16.9 Z M 15.9 15.7 C 15.9 15.9 15.8 15.9 15.6 15.9 C 15.6 15.8 15.6 15.8 15.6 15.7 C 15.5 15.7 15.4 15.7 15.3 15.7 C 15.2 15.7 15 15.7 14.9 15.8 C 14.7 15.9 14.7 16 14.7 16.1 C 14.7 16.1 14.7 16.2 14.7 16.2 C 14.8 16.3 14.9 16.3 15.2 16.4 C 15.4 16.5 15.6 16.5 15.7 16.6 C 15.8 16.7 15.8 16.8 15.8 16.9 C 15.8 17.1 15.7 17.3 15.4 17.4 C 15.1 17.6 14.8 17.7 14.5 17.7 C 14.4 17.7 14.3 17.6 14.3 17.6 C 14.2 17.5 14.2 17.5 14.2 17.4 C 14.2 17.4 14.2 17.3 14.2 17.3 C 14.3 17.3 14.3 17.2 14.3 17.2 C 14.4 17.2 14.4 17.2 14.4 17.2 C 14.5 17.3 14.6 17.3 14.7 17.3 C 14.8 17.3 15 17.3 15.2 17.2 C 15.4 17.1 15.5 17 15.5 16.9 C 15.5 16.9 15.5 16.9 15.4 16.8 C 15.4 16.8 15.3 16.8 15.1 16.7 C 14.9 16.6 14.7 16.6 14.6 16.5 C 14.5 16.5 14.5 16.4 14.4 16.4 C 14.3 16.3 14.3 16.2 14.3 16.1 C 14.3 15.9 14.4 15.8 14.6 15.6 C 14.8 15.4 15.1 15.4 15.4 15.4 C 15.5 15.4 15.7 15.4 15.8 15.5 C 15.9 15.5 15.9 15.6 15.9 15.7 C 15.9 15.7 15.9 15.7 15.9 15.7 Z M 16.1 17.8 C 16.1 17.8 16.1 17.7 16.1 17.7 C 16.2 17.7 16.2 17.7 16.3 17.6 C 16.4 17.6 16.5 17.5 16.5 17.5 C 16.5 17.4 16.5 17.4 16.5 17.4 C 16.5 17.3 16.5 17.2 16.5 17.2 C 16.5 17.2 16.5 17.2 16.5 17.1 C 16.5 17.1 16.5 17.1 16.5 17 C 16.5 17 16.5 17 16.6 17 C 16.6 17 16.7 17 16.7 17 C 16.8 17 16.8 17.1 16.8 17.1 C 16.8 17.1 16.8 17.1 16.8 17.2 C 16.9 17.3 16.9 17.3 16.9 17.3 C 16.9 17.4 16.8 17.4 16.8 17.5 C 16.8 17.6 16.7 17.7 16.6 17.7 C 16.6 17.8 16.5 17.8 16.4 17.8 C 16.4 17.8 16.4 17.8 16.4 17.8 C 16.3 17.9 16.2 17.9 16.2 17.9 C 16.1 17.9 16.1 17.8 16.1 17.8 C 16.1 17.8 16.1 17.8 16.1 17.8 Z M 18.3 17 C 18.3 17 18.4 16.54 18.4 16.5 C 18.5 16.1 18.5 15.9 18.5 15.7 C 18.5 15.6 18.5 15.6 18.5 15.6 C 18.6 15.5 18.6 15.5 18.6 15.5 C 18.6 15.5 18.7 15.5 18.7 15.5 C 18.8 15.5 18.8 15.5 18.8 15.5 C 18.9 15.5 18.9 15.6 18.9 15.7 C 19 15.8 19.1 16.1 19.3 16.3 C 19.4 16.6 19.6 16.8 19.7 17 C 19.8 16.9 19.8 16.6 19.8 16.4 C 19.9 16.2 19.9 16 19.9 15.9 C 19.9 15.7 20 15.6 20 15.6 C 20 15.5 20 15.4 20 15.4 C 20.1 15.4 20.1 15.3 20.2 15.3 C 20.2 15.3 20.3 15.4 20.3 15.4 C 20.3 15.4 20.3 15.5 20.3 15.6 C 20.3 15.6 20.3 15.7 20.3 15.8 C 20.2 16 20.2 16.3 20.1 16.7 C 20 17 20 17.2 20 17.3 C 20 17.3 20 17.3 20 17.3 C 20 17.4 20 17.4 20 17.4 C 20 17.5 20 17.5 19.9 17.5 C 19.9 17.5 19.8 17.6 19.8 17.6 C 19.8 17.6 19.7 17.6 19.7 17.5 C 19.7 17.5 19.7 17.5 19.6 17.5 C 19.6 17.5 19.6 17.4 19.6 17.4 C 19.5 17.3 19.5 17.2 19.5 17.2 C 19.2 16.9 19 16.5 18.8 16.2 C 18.7 16.3 18.7 16.6 18.6 17 C 18.6 17 18.6 17.1 18.6 17.1 C 18.6 17.2 18.6 17.2 18.6 17.3 C 18.6 17.4 18.6 17.5 18.5 17.6 C 18.5 17.6 18.4 17.6 18.4 17.6 C 18.3 17.6 18.3 17.6 18.3 17.6 C 18.2 17.5 18.2 17.5 18.2 17.4 C 18.2 17.3 18.2 17.2 18.3 17 C 18.29 17.04 18.3 17 18.3 17 Z M 21.2 17.6 C 21 17.6 20.9 17.5 20.7 17.4 C 20.6 17.2 20.5 17.1 20.5 16.9 C 20.5 16.7 20.6 16.5 20.7 16.2 C 20.8 16 21 15.8 21.2 15.6 C 21.4 15.5 21.6 15.4 21.8 15.4 C 22 15.4 22.1 15.4 22.2 15.4 C 22.3 15.5 22.4 15.5 22.5 15.6 C 22.6 15.7 22.6 15.8 22.7 15.8 C 22.7 15.9 22.7 16 22.7 16.2 C 22.7 16.3 22.7 16.4 22.6 16.6 C 22.5 16.8 22.4 17 22.3 17.1 C 22.1 17.3 21.9 17.4 21.8 17.5 C 21.6 17.6 21.4 17.6 21.2 17.6 Z M 20.9 16.9 C 20.9 17 20.9 17.1 21 17.2 C 21.1 17.3 21.2 17.3 21.3 17.3 C 21.5 17.3 21.8 17.2 22 16.9 C 22.2 16.7 22.3 16.4 22.3 16.1 C 22.3 16 22.3 15.9 22.3 15.9 C 22.2 15.8 22.2 15.8 22.1 15.7 C 22 15.7 21.9 15.7 21.8 15.7 C 21.6 15.7 21.4 15.8 21.2 16.1 C 21 16.3 20.9 16.6 20.9 16.9 Z M 24.6 15.7 C 24.6 15.9 24.5 15.9 24.3 15.9 C 24.3 15.8 24.3 15.8 24.2 15.7 C 24.2 15.7 24.1 15.7 24 15.7 C 23.8 15.7 23.7 15.7 23.5 15.8 C 23.4 15.9 23.3 16 23.3 16.1 C 23.3 16.1 23.3 16.2 23.4 16.2 C 23.5 16.3 23.6 16.3 23.8 16.4 C 24 16.5 24.2 16.5 24.3 16.6 C 24.4 16.7 24.5 16.8 24.5 16.9 C 24.5 17.1 24.4 17.3 24.1 17.4 C 23.8 17.6 23.5 17.7 23.2 17.7 C 23.1 17.7 23 17.6 22.9 17.6 C 22.9 17.5 22.8 17.5 22.8 17.4 C 22.8 17.4 22.9 17.3 22.9 17.3 C 22.9 17.3 22.9 17.2 23 17.2 C 23 17.2 23 17.2 23 17.2 C 23.1 17.3 23.2 17.3 23.3 17.3 C 23.5 17.3 23.7 17.3 23.8 17.2 C 24 17.1 24.1 17 24.1 16.9 C 24.1 16.9 24.1 16.9 24.1 16.8 C 24 16.8 23.9 16.8 23.8 16.7 C 23.6 16.6 23.4 16.6 23.3 16.5 C 23.2 16.5 23.1 16.4 23 16.4 C 23 16.3 23 16.2 23 16.1 C 23 15.9 23.1 15.8 23.3 15.6 C 23.5 15.4 23.7 15.4 24 15.4 C 24.2 15.4 24.3 15.4 24.4 15.5 C 24.5 15.5 24.6 15.6 24.6 15.7 C 24.6 15.7 24.6 15.7 24.6 15.7 Z M 27.6 15.7 C 27.6 15.9 27.5 15.9 27.3 15.9 C 27.3 15.8 27.3 15.8 27.2 15.7 C 27.2 15.7 27.1 15.7 27 15.7 C 26.8 15.7 26.7 15.7 26.5 15.8 C 26.4 15.9 26.3 16 26.3 16.1 C 26.3 16.1 26.3 16.2 26.4 16.2 C 26.4 16.3 26.6 16.3 26.8 16.4 C 27 16.5 27.2 16.5 27.3 16.6 C 27.4 16.7 27.5 16.8 27.5 16.9 C 27.5 17.1 27.3 17.3 27.1 17.4 C 26.8 17.6 26.5 17.7 26.2 17.7 C 26.1 17.7 26 17.6 25.9 17.6 C 25.9 17.5 25.8 17.5 25.8 17.4 C 25.8 17.4 25.8 17.3 25.9 17.3 C 25.9 17.3 25.9 17.2 26 17.2 C 26 17.2 26 17.2 26 17.2 C 26.1 17.3 26.2 17.3 26.3 17.3 C 26.5 17.3 26.6 17.3 26.8 17.2 C 27 17.1 27.1 17 27.1 16.9 C 27.1 16.9 27.1 16.9 27.1 16.8 C 27 16.8 26.9 16.8 26.8 16.7 C 26.5 16.6 26.4 16.6 26.3 16.5 C 26.2 16.5 26.1 16.4 26 16.4 C 26 16.3 26 16.2 26 16.1 C 26 15.9 26.1 15.8 26.3 15.6 C 26.5 15.4 26.7 15.4 27 15.4 C 27.2 15.4 27.3 15.4 27.4 15.5 C 27.5 15.5 27.6 15.6 27.6 15.7 C 27.6 15.7 27.6 15.7 27.6 15.7 Z M 29.4 15.7 C 29.4 15.7 29 15.7 29 15.7 C 28.8 15.7 28.7 15.7 28.6 15.8 C 28.5 15.8 28.4 15.8 28.4 15.8 C 28.4 15.8 28.4 15.8 28.4 15.9 C 28.4 15.9 28.4 16 28.3 16.2 C 28.3 16.2 28.3 16.3 28.3 16.4 C 28.4 16.4 28.4 16.4 28.6 16.4 C 28.7 16.4 28.8 16.3 28.8 16.3 C 29 16.3 29.1 16.3 29.1 16.3 C 29.3 16.3 29.4 16.3 29.4 16.4 C 29.4 16.5 29.3 16.5 29.3 16.6 C 29.3 16.6 29.2 16.6 29.1 16.6 C 29 16.6 29 16.6 28.9 16.6 C 28.9 16.6 28.8 16.6 28.8 16.7 C 28.5 16.7 28.3 16.7 28.3 16.7 C 28.3 16.7 28.3 16.7 28.3 16.7 C 28.3 16.7 28.3 16.7 28.3 16.8 C 28.2 16.8 28.2 16.9 28.2 17 C 28.2 17.1 28.2 17.2 28.2 17.2 C 28.2 17.3 28.2 17.3 28.2 17.3 C 28.3 17.3 28.4 17.3 28.6 17.3 C 28.8 17.2 28.9 17.2 29 17.2 C 29.1 17.2 29.2 17.2 29.2 17.2 C 29.4 17.2 29.4 17.2 29.4 17.3 C 29.4 17.4 29.4 17.4 29.4 17.4 C 29.3 17.5 29.2 17.5 29 17.5 C 28.9 17.5 28.7 17.5 28.5 17.6 C 28.3 17.6 28.2 17.6 28 17.6 C 27.9 17.6 27.9 17.6 27.8 17.6 C 27.8 17.5 27.8 17.5 27.8 17.4 C 27.8 17.4 27.8 17.4 27.8 17.4 C 27.8 17.4 27.8 17.3 27.8 17.3 C 27.8 17.2 27.9 16.9 27.9 16.5 C 28 16.1 28 15.8 28 15.8 C 28 15.8 28 15.8 28 15.8 C 28 15.8 28 15.8 28 15.7 C 28 15.7 28 15.7 28 15.6 C 28 15.6 28 15.6 28 15.6 C 28 15.6 28 15.5 28 15.5 C 28.1 15.5 28.1 15.5 28.1 15.5 C 28.2 15.5 28.2 15.5 28.3 15.5 C 28.4 15.5 28.6 15.5 29.1 15.4 C 29.2 15.4 29.3 15.4 29.3 15.4 C 29.3 15.4 29.3 15.4 29.3 15.4 C 29.5 15.4 29.6 15.4 29.6 15.5 C 29.6 15.6 29.6 15.6 29.5 15.6 C 29.5 15.7 29.5 15.7 29.4 15.7 Z M 30.6 17.6 C 30.5 17.6 30.4 17.6 30.2 17.5 C 30.1 17.4 30 17.3 29.9 17.2 C 29.8 17 29.8 16.9 29.8 16.7 C 29.8 16.6 29.8 16.5 29.8 16.3 C 29.8 16.3 29.9 16 29.9 16 C 29.9 16 29.9 15.9 29.9 15.9 C 29.9 15.8 29.9 15.8 29.9 15.7 C 30 15.6 30 15.5 30 15.5 C 30 15.4 30.1 15.4 30.2 15.4 C 30.2 15.4 30.2 15.4 30.3 15.5 C 30.3 15.5 30.3 15.6 30.3 15.6 C 30.3 15.6 30.3 15.7 30.3 15.9 C 30.3 16 30.2 16.1 30.2 16.3 C 30.2 16.5 30.2 16.6 30.2 16.7 C 30.2 16.9 30.2 17.1 30.3 17.2 C 30.4 17.2 30.5 17.3 30.6 17.3 C 30.8 17.3 31 17.2 31.1 17.1 C 31.2 17 31.3 16.9 31.3 16.6 C 31.3 16.6 31.3 16.5 31.3 16.5 C 31.3 16.4 31.3 16.3 31.3 16.2 C 31.4 15.9 31.4 15.6 31.4 15.6 C 31.5 15.5 31.5 15.4 31.6 15.4 C 31.7 15.4 31.8 15.5 31.8 15.6 C 31.8 15.7 31.8 15.8 31.7 16.1 C 31.7 16.2 31.7 16.3 31.7 16.4 C 31.7 16.7 31.6 16.9 31.6 17.1 C 31.5 17.2 31.4 17.3 31.2 17.5 C 31 17.6 30.8 17.6 30.6 17.6 Z M 33.7 15.7 C 33.7 15.9 33.6 15.9 33.4 15.9 C 33.4 15.8 33.3 15.8 33.3 15.7 C 33.2 15.7 33.2 15.7 33.1 15.7 C 32.9 15.7 32.8 15.7 32.6 15.8 C 32.5 15.9 32.4 16 32.4 16.1 C 32.4 16.1 32.4 16.2 32.5 16.2 C 32.5 16.3 32.7 16.3 32.9 16.4 C 33.1 16.5 33.3 16.5 33.4 16.6 C 33.5 16.7 33.6 16.8 33.6 16.9 C 33.6 17.1 33.4 17.3 33.2 17.4 C 32.9 17.6 32.6 17.7 32.3 17.7 C 32.2 17.7 32.1 17.6 32 17.6 C 32 17.5 31.9 17.5 31.9 17.4 C 31.9 17.4 31.9 17.3 32 17.3 C 32 17.3 32 17.2 32.1 17.2 C 32.1 17.2 32.1 17.2 32.1 17.2 C 32.2 17.3 32.3 17.3 32.4 17.3 C 32.6 17.3 32.7 17.3 32.9 17.2 C 33.1 17.1 33.2 17 33.2 16.9 C 33.2 16.9 33.2 16.9 33.1 16.8 C 33.1 16.8 33 16.8 32.9 16.7 C 32.6 16.6 32.5 16.6 32.4 16.5 C 32.3 16.5 32.2 16.4 32.1 16.4 C 32.1 16.3 32.1 16.2 32.1 16.1 C 32.1 15.9 32.2 15.8 32.4 15.6 C 32.6 15.4 32.8 15.4 33.1 15.4 C 33.3 15.4 33.4 15.4 33.5 15.5 C 33.6 15.5 33.7 15.6 33.7 15.7 C 33.7 15.7 33.7 15.7 33.7 15.7 Z M 35.7 16.8 C 35.6 16.8 35.5 16.8 35.5 16.9 C 35.5 17.1 35.4 17.3 35.4 17.4 C 35.4 17.5 35.4 17.5 35.4 17.5 C 35.4 17.6 35.3 17.6 35.3 17.6 C 35.1 17.6 35.1 17.5 35.1 17.4 C 35.1 17.3 35.1 17.1 35.2 16.6 C 35.2 16.3 35.2 16 35.2 16 C 35.2 15.9 35.2 15.8 35.2 15.8 C 35.2 15.8 35.1 15.7 35.1 15.7 C 35.1 15.6 35.3 15.5 35.5 15.4 C 35.8 15.4 36 15.4 36.2 15.4 C 36.4 15.4 36.6 15.4 36.7 15.5 C 36.9 15.6 36.9 15.7 36.9 15.9 C 36.9 16.1 36.8 16.3 36.6 16.4 C 36.3 16.6 36 16.7 35.7 16.8 C 35.7 16.8 35.7 16.8 35.7 16.8 Z M 36.2 15.6 C 36 15.6 35.8 15.7 35.6 15.8 C 35.6 15.8 35.5 16.5 35.5 16.5 C 35.8 16.5 36.1 16.4 36.3 16.3 C 36.5 16.2 36.6 16 36.6 15.9 C 36.6 15.7 36.5 15.6 36.2 15.6 C 36.2 15.6 36.2 15.6 36.2 15.6 Z M 37.3 15.8 C 37.3 15.8 37.25 15.72 37.3 15.7 C 37.2 15.7 37.2 15.6 37.2 15.6 C 37.2 15.6 37.2 15.5 37.3 15.5 C 37.3 15.5 37.4 15.4 37.4 15.4 C 37.4 15.4 37.4 15.4 37.5 15.4 C 37.5 15.4 37.5 15.4 37.5 15.4 C 37.8 15.4 38 15.4 38.1 15.4 C 38.3 15.4 38.5 15.4 38.6 15.5 C 38.8 15.6 38.8 15.8 38.8 15.9 C 38.8 16.1 38.8 16.2 38.7 16.3 C 38.5 16.5 38.4 16.6 38.2 16.6 C 38.5 16.9 38.8 17.1 38.9 17.2 C 39 17.3 39 17.3 39 17.4 C 39 17.4 39 17.4 39 17.5 C 38.9 17.5 38.9 17.5 38.8 17.5 C 38.8 17.5 38.7 17.5 38.7 17.5 C 38.6 17.4 38.5 17.3 38.3 17.2 C 38.2 17.1 38.1 17.1 38.1 17.1 C 37.9 16.9 37.8 16.8 37.7 16.7 C 37.6 16.7 37.6 16.7 37.6 16.6 C 37.6 16.5 37.6 16.5 37.6 16.5 C 37.7 16.4 37.7 16.4 37.8 16.4 C 37.8 16.4 37.8 16.4 37.8 16.4 C 37.9 16.4 37.9 16.4 37.9 16.4 C 37.9 16.4 38.1 16.4 38.2 16.3 C 38.4 16.2 38.5 16 38.5 15.9 C 38.5 15.8 38.4 15.8 38.4 15.7 C 38.3 15.7 38.2 15.7 38.1 15.7 C 38 15.7 37.9 15.7 37.8 15.7 C 37.7 15.7 37.7 15.7 37.7 15.7 C 37.7 15.7 37.6 15.7 37.6 15.8 C 37.6 15.8 37.6 15.9 37.6 16.1 C 37.5 16.2 37.5 16.4 37.5 16.6 C 37.5 16.9 37.4 17 37.4 17.1 C 37.4 17.2 37.4 17.2 37.5 17.3 C 37.5 17.3 37.5 17.4 37.5 17.4 C 37.5 17.5 37.4 17.5 37.4 17.5 C 37.4 17.6 37.3 17.6 37.3 17.6 C 37.1 17.6 37.1 17.5 37.1 17.3 C 37.1 17.2 37.1 16.9 37.1 16.7 C 37.1 16.4 37.2 16.2 37.2 15.9 C 37.2 15.9 37.2 15.9 37.3 15.9 C 37.25 15.86 37.3 15.8 37.3 15.8 Z M 39.8 17.6 C 39.6 17.6 39.5 17.5 39.3 17.4 C 39.2 17.2 39.1 17.1 39.1 16.9 C 39.1 16.7 39.2 16.5 39.3 16.2 C 39.4 16 39.6 15.8 39.8 15.6 C 40 15.5 40.2 15.4 40.4 15.4 C 40.6 15.4 40.7 15.4 40.8 15.4 C 40.9 15.5 41 15.5 41.1 15.6 C 41.2 15.7 41.2 15.8 41.3 15.8 C 41.3 15.9 41.3 16 41.3 16.2 C 41.3 16.3 41.3 16.4 41.2 16.6 C 41.1 16.8 41 17 40.8 17.1 C 40.7 17.3 40.5 17.4 40.4 17.5 C 40.2 17.6 40 17.6 39.8 17.6 Z M 39.5 16.9 C 39.5 17 39.5 17.1 39.6 17.2 C 39.7 17.3 39.8 17.3 39.9 17.3 C 40.1 17.3 40.4 17.2 40.6 16.9 C 40.8 16.7 40.9 16.4 40.9 16.1 C 40.9 16 40.9 15.9 40.9 15.9 C 40.8 15.8 40.8 15.8 40.7 15.7 C 40.6 15.7 40.5 15.7 40.4 15.7 C 40.2 15.7 40 15.8 39.8 16.1 C 39.6 16.3 39.5 16.6 39.5 16.9 Z M 41 14.7 C 41 14.8 40.9 14.8 40.8 14.9 C 40.8 14.9 40.8 14.9 40.8 14.9 C 40.8 14.9 40.7 15 40.6 15.1 C 40.5 15.1 40.5 15.1 40.5 15.1 C 40.5 15.1 40.5 15.1 40.4 15.1 C 40.4 15.1 40.4 15.1 40.4 15.1 C 40.3 15.1 40.3 15.1 40.3 15 C 40.3 15 40.4 14.9 40.5 14.8 C 40.5 14.8 40.5 14.8 40.5 14.8 C 40.6 14.7 40.6 14.7 40.6 14.7 C 40.8 14.6 40.9 14.5 41 14.4 C 41 14.4 41 14.4 41.1 14.4 C 41.1 14.4 41.1 14.4 41.1 14.5 C 41.2 14.5 41.2 14.6 41.2 14.6 C 41.2 14.6 41.2 14.6 41.1 14.7 C 41.1 14.7 41.1 14.7 41 14.7 C 41 14.7 41 14.7 41 14.7 Z M 42.2 16.8 C 42.1 16.8 42 16.8 42 16.9 C 42 17.1 42 17.3 42 17.4 C 42 17.5 41.9 17.5 41.9 17.5 C 41.9 17.6 41.8 17.6 41.8 17.6 C 41.7 17.6 41.6 17.5 41.6 17.4 C 41.6 17.3 41.6 17.1 41.7 16.6 C 41.7 16.3 41.8 16 41.8 16 C 41.8 15.9 41.8 15.8 41.7 15.8 C 41.7 15.8 41.7 15.7 41.7 15.7 C 41.7 15.6 41.8 15.5 42 15.4 C 42.3 15.4 42.5 15.4 42.7 15.4 C 43 15.4 43.1 15.4 43.3 15.5 C 43.4 15.6 43.5 15.7 43.5 15.9 C 43.5 16.1 43.3 16.3 43.1 16.4 C 42.9 16.6 42.6 16.7 42.2 16.8 C 42.2 16.8 42.2 16.8 42.2 16.8 Z M 42.7 15.6 C 42.5 15.6 42.3 15.7 42.1 15.8 C 42.1 15.8 42 16.5 42 16.5 C 42.3 16.5 42.6 16.4 42.8 16.3 C 43 16.2 43.1 16 43.1 15.9 C 43.1 15.7 43 15.6 42.7 15.6 C 42.7 15.6 42.7 15.6 42.7 15.6 Z M 43.8 15.8 C 43.8 15.8 43.77 15.72 43.8 15.7 C 43.7 15.7 43.7 15.6 43.7 15.6 C 43.7 15.6 43.7 15.5 43.8 15.5 C 43.8 15.5 43.9 15.4 43.9 15.4 C 43.9 15.4 44 15.4 44 15.4 C 44 15.4 44 15.4 44 15.4 C 44.3 15.4 44.5 15.4 44.7 15.4 C 44.9 15.4 45 15.4 45.2 15.5 C 45.3 15.6 45.4 15.8 45.4 15.9 C 45.4 16.1 45.3 16.2 45.2 16.3 C 45 16.5 44.9 16.6 44.7 16.6 C 45 16.9 45.3 17.1 45.5 17.2 C 45.5 17.3 45.6 17.3 45.6 17.4 C 45.6 17.4 45.5 17.4 45.5 17.5 C 45.4 17.5 45.4 17.5 45.4 17.5 C 45.3 17.5 45.2 17.5 45.2 17.5 C 45.1 17.4 45 17.3 44.9 17.2 C 44.7 17.1 44.7 17.1 44.6 17.1 C 44.5 16.9 44.3 16.8 44.2 16.7 C 44.1 16.7 44.1 16.7 44.1 16.6 C 44.1 16.5 44.1 16.5 44.1 16.5 C 44.2 16.4 44.2 16.4 44.3 16.4 C 44.3 16.4 44.3 16.4 44.4 16.4 C 44.4 16.4 44.4 16.4 44.4 16.4 C 44.5 16.4 44.6 16.4 44.7 16.3 C 44.9 16.2 45 16 45 15.9 C 45 15.8 45 15.8 44.9 15.7 C 44.8 15.7 44.7 15.7 44.6 15.7 C 44.5 15.7 44.4 15.7 44.3 15.7 C 44.2 15.7 44.2 15.7 44.2 15.7 C 44.2 15.7 44.2 15.7 44.2 15.8 C 44.1 15.8 44.1 15.9 44.1 16.1 C 44.1 16.2 44 16.4 44 16.6 C 44 16.9 44 17 44 17.1 C 44 17.2 44 17.2 44 17.3 C 44 17.3 44 17.4 44 17.4 C 44 17.5 44 17.5 43.9 17.5 C 43.9 17.6 43.8 17.6 43.8 17.6 C 43.7 17.6 43.6 17.5 43.6 17.3 C 43.6 17.2 43.6 16.9 43.6 16.7 C 43.7 16.4 43.7 16.2 43.8 15.9 C 43.8 15.9 43.8 15.9 43.8 15.9 C 43.77 15.86 43.8 15.8 43.8 15.8 Z M 46.2 16.1 C 46.2 16.2 46.2 16.2 46.2 16.3 C 46.2 16.3 46.2 16.4 46.2 16.5 C 46.1 16.7 46.1 16.8 46.1 16.9 C 46.1 17 46.1 17.2 46.1 17.3 C 46.1 17.4 46.1 17.5 46.1 17.5 C 46 17.5 46 17.6 45.9 17.6 C 45.9 17.6 45.8 17.5 45.8 17.5 C 45.8 17.4 45.7 17.3 45.7 17.2 C 45.7 17.1 45.8 16.8 45.8 16.5 C 45.8 16.5 45.9 15.9 45.9 15.9 C 45.9 15.8 45.9 15.8 45.9 15.7 C 45.9 15.6 46 15.5 46 15.5 C 46 15.5 46 15.4 46.1 15.4 C 46.1 15.4 46.1 15.4 46.2 15.4 C 46.2 15.4 46.3 15.4 46.3 15.4 C 46.3 15.5 46.3 15.5 46.3 15.6 C 46.3 15.6 46.2 16.1 46.2 16.1 Z M 47.2 17.6 C 47 17.6 46.9 17.5 46.7 17.4 C 46.6 17.2 46.5 17.1 46.5 16.9 C 46.5 16.7 46.6 16.5 46.7 16.2 C 46.8 16 47 15.8 47.2 15.6 C 47.4 15.5 47.6 15.4 47.8 15.4 C 48 15.4 48.1 15.4 48.2 15.4 C 48.3 15.5 48.4 15.5 48.5 15.6 C 48.6 15.7 48.6 15.8 48.7 15.8 C 48.7 15.9 48.7 16 48.7 16.2 C 48.7 16.3 48.7 16.4 48.6 16.6 C 48.5 16.8 48.4 17 48.3 17.1 C 48.1 17.3 47.9 17.4 47.8 17.5 C 47.6 17.6 47.4 17.6 47.2 17.6 Z M 46.9 16.9 C 46.9 17 46.9 17.1 47 17.2 C 47.1 17.3 47.2 17.3 47.3 17.3 C 47.5 17.3 47.8 17.2 48 16.9 C 48.2 16.7 48.3 16.4 48.3 16.1 C 48.3 16 48.3 15.9 48.3 15.9 C 48.2 15.8 48.2 15.8 48.1 15.7 C 48 15.7 47.9 15.7 47.8 15.7 C 47.6 15.7 47.4 15.8 47.2 16.1 C 47 16.3 46.9 16.6 46.9 16.9 Z M 50.6 15.7 C 50.6 15.9 50.5 15.9 50.3 15.9 C 50.3 15.8 50.3 15.8 50.2 15.7 C 50.2 15.7 50.1 15.7 50 15.7 C 49.8 15.7 49.7 15.7 49.5 15.8 C 49.4 15.9 49.3 16 49.3 16.1 C 49.3 16.1 49.3 16.2 49.4 16.2 C 49.5 16.3 49.6 16.3 49.8 16.4 C 50 16.5 50.2 16.5 50.3 16.6 C 50.4 16.7 50.5 16.8 50.5 16.9 C 50.5 17.1 50.4 17.3 50.1 17.4 C 49.8 17.6 49.5 17.7 49.2 17.7 C 49.1 17.7 49 17.6 48.9 17.6 C 48.9 17.5 48.8 17.5 48.8 17.4 C 48.8 17.4 48.9 17.3 48.9 17.3 C 48.9 17.3 48.9 17.2 49 17.2 C 49 17.2 49 17.2 49 17.2 C 49.1 17.3 49.2 17.3 49.3 17.3 C 49.5 17.3 49.7 17.3 49.8 17.2 C 50 17.1 50.1 17 50.1 16.9 C 50.1 16.9 50.1 16.9 50.1 16.8 C 50 16.8 49.9 16.8 49.8 16.7 C 49.6 16.6 49.4 16.6 49.3 16.5 C 49.2 16.5 49.1 16.4 49 16.4 C 49 16.3 49 16.2 49 16.1 C 49 15.9 49.1 15.8 49.3 15.6 C 49.5 15.4 49.7 15.4 50 15.4 C 50.2 15.4 50.3 15.4 50.4 15.5 C 50.5 15.5 50.6 15.6 50.6 15.7 C 50.6 15.7 50.6 15.7 50.6 15.7 Z " stroke="none" fill="#000"/>  </g>  <g id="Polygon12680">    <path d="M 2.6 12.8 C 2.5 12.8 2.4 12.8 2.4 12.9 C 2.3 13.1 2.3 13.3 2.3 13.4 C 2.3 13.5 2.3 13.5 2.3 13.5 C 2.3 13.6 2.2 13.6 2.2 13.6 C 2 13.6 2 13.5 2 13.4 C 2 13.3 2 13.1 2.1 12.6 C 2.1 12.3 2.1 12 2.1 12 C 2.1 11.9 2.1 11.8 2.1 11.8 C 2.1 11.8 2 11.7 2 11.7 C 2 11.6 2.2 11.5 2.4 11.4 C 2.7 11.4 2.9 11.4 3.1 11.4 C 3.3 11.4 3.5 11.4 3.6 11.5 C 3.8 11.6 3.8 11.7 3.8 11.9 C 3.8 12.1 3.7 12.3 3.5 12.4 C 3.2 12.6 2.9 12.7 2.6 12.8 C 2.6 12.8 2.6 12.8 2.6 12.8 Z M 3.1 11.6 C 2.9 11.6 2.7 11.7 2.5 11.8 C 2.5 11.8 2.4 12.5 2.4 12.5 C 2.7 12.5 2.9 12.4 3.2 12.3 C 3.4 12.2 3.5 12 3.5 11.9 C 3.5 11.7 3.3 11.6 3.1 11.6 C 3.1 11.6 3.1 11.6 3.1 11.6 Z M 4.2 11.8 C 4.2 11.8 4.14 11.72 4.1 11.7 C 4.1 11.7 4.1 11.6 4.1 11.6 C 4.1 11.6 4.1 11.5 4.2 11.5 C 4.2 11.5 4.3 11.4 4.3 11.4 C 4.3 11.4 4.3 11.4 4.4 11.4 C 4.4 11.4 4.4 11.4 4.4 11.4 C 4.7 11.4 4.9 11.4 5 11.4 C 5.2 11.4 5.4 11.4 5.5 11.5 C 5.7 11.6 5.7 11.8 5.7 11.9 C 5.7 12.1 5.7 12.2 5.5 12.3 C 5.4 12.5 5.2 12.6 5 12.6 C 5.4 12.9 5.7 13.1 5.8 13.2 C 5.9 13.3 5.9 13.3 5.9 13.4 C 5.9 13.4 5.9 13.4 5.9 13.5 C 5.8 13.5 5.8 13.5 5.7 13.5 C 5.7 13.5 5.6 13.5 5.5 13.5 C 5.5 13.4 5.4 13.3 5.2 13.2 C 5.1 13.1 5 13.1 5 13.1 C 4.8 12.9 4.7 12.8 4.6 12.7 C 4.5 12.7 4.4 12.7 4.4 12.6 C 4.4 12.5 4.5 12.5 4.5 12.5 C 4.6 12.4 4.6 12.4 4.7 12.4 C 4.7 12.4 4.7 12.4 4.7 12.4 C 4.7 12.4 4.8 12.4 4.8 12.4 C 4.8 12.4 4.9 12.4 5.1 12.3 C 5.3 12.2 5.4 12 5.4 11.9 C 5.4 11.8 5.3 11.8 5.3 11.7 C 5.2 11.7 5.1 11.7 5 11.7 C 4.9 11.7 4.8 11.7 4.7 11.7 C 4.6 11.7 4.6 11.7 4.5 11.7 C 4.5 11.7 4.5 11.7 4.5 11.8 C 4.5 11.8 4.5 11.9 4.5 12.1 C 4.4 12.2 4.4 12.4 4.4 12.6 C 4.3 12.9 4.3 13 4.3 13.1 C 4.3 13.2 4.3 13.2 4.3 13.3 C 4.4 13.3 4.4 13.4 4.4 13.4 C 4.4 13.5 4.3 13.5 4.3 13.5 C 4.3 13.6 4.2 13.6 4.2 13.6 C 4 13.6 4 13.5 4 13.3 C 4 13.2 4 12.9 4 12.7 C 4 12.4 4.1 12.2 4.1 11.9 C 4.1 11.9 4.1 11.9 4.1 11.9 C 4.14 11.86 4.2 11.8 4.2 11.8 Z M 6.7 13.6 C 6.5 13.6 6.3 13.5 6.2 13.4 C 6.1 13.2 6 13.1 6 12.9 C 6 12.7 6.1 12.5 6.2 12.2 C 6.3 12 6.5 11.8 6.7 11.6 C 6.9 11.5 7.1 11.4 7.3 11.4 C 7.4 11.4 7.6 11.4 7.7 11.4 C 7.8 11.5 7.9 11.5 8 11.6 C 8.1 11.7 8.1 11.8 8.2 11.8 C 8.2 11.9 8.2 12 8.2 12.2 C 8.2 12.3 8.2 12.4 8.1 12.6 C 8 12.8 7.9 13 7.7 13.1 C 7.6 13.3 7.4 13.4 7.3 13.5 C 7.1 13.6 6.9 13.6 6.7 13.6 Z M 6.4 12.9 C 6.4 13 6.4 13.1 6.5 13.2 C 6.6 13.3 6.7 13.3 6.7 13.3 C 7 13.3 7.3 13.2 7.5 12.9 C 7.7 12.7 7.8 12.4 7.8 12.1 C 7.8 12 7.8 11.9 7.8 11.9 C 7.7 11.8 7.7 11.8 7.6 11.7 C 7.5 11.7 7.4 11.7 7.3 11.7 C 7.1 11.7 6.9 11.8 6.7 12.1 C 6.5 12.3 6.4 12.6 6.4 12.9 Z M 10.5 12 C 10.5 12 10.5 11.9 10.5 11.9 C 10.5 11.9 10 12.6 10 12.6 C 9.8 12.9 9.6 13 9.5 13 C 9.4 13 9.4 13 9.3 12.9 C 9.3 12.9 9.2 12.8 9.2 12.6 C 9.2 12.5 9.1 12.4 9.1 12.3 C 9.1 12.2 9 12.1 9 12.1 C 9 12.1 8.9 12.5 8.9 12.5 C 8.9 12.6 8.9 12.7 8.9 12.8 C 8.8 12.9 8.8 13 8.8 13.2 C 8.8 13.3 8.7 13.4 8.7 13.5 C 8.7 13.5 8.7 13.5 8.7 13.6 C 8.6 13.6 8.6 13.6 8.6 13.6 C 8.5 13.6 8.5 13.6 8.4 13.5 C 8.4 13.5 8.4 13.5 8.4 13.4 C 8.4 13.3 8.4 13.2 8.4 13.1 C 8.6 12.5 8.7 12.1 8.7 11.9 C 8.7 11.8 8.7 11.7 8.7 11.6 C 8.7 11.5 8.8 11.5 8.8 11.4 C 8.9 11.4 8.9 11.4 9 11.4 C 9 11.4 9.1 11.4 9.1 11.5 C 9.2 11.5 9.2 11.6 9.2 11.6 C 9.19 11.62 9.2 11.6 9.2 11.6 C 9.2 11.6 9.39 12.19 9.4 12.2 C 9.5 12.4 9.5 12.6 9.6 12.6 C 9.7 12.5 9.8 12.3 10 12 C 10.2 11.7 10.4 11.6 10.4 11.5 C 10.5 11.4 10.6 11.4 10.6 11.4 C 10.7 11.4 10.7 11.4 10.8 11.4 C 10.8 11.5 10.9 11.5 10.9 11.5 C 10.9 11.5 10.8 11.7 10.8 12 C 10.8 12.2 10.7 12.4 10.7 12.6 C 10.7 12.8 10.7 13 10.7 13 C 10.7 13.1 10.7 13.1 10.7 13.2 C 10.7 13.2 10.7 13.3 10.7 13.3 C 10.7 13.4 10.7 13.5 10.7 13.5 C 10.6 13.5 10.6 13.6 10.5 13.6 C 10.4 13.6 10.3 13.5 10.3 13.3 C 10.3 13.1 10.3 12.9 10.4 12.6 C 10.4 12.4 10.4 12.1 10.5 12 C 10.5 12 10.5 12 10.5 12 Z M 12.9 11.7 C 12.9 11.7 12.4 11.7 12.4 11.7 C 12.3 11.7 12.1 11.7 12 11.8 C 11.9 11.8 11.8 11.8 11.8 11.8 C 11.8 11.8 11.8 11.8 11.8 11.9 C 11.8 11.9 11.8 12 11.8 12.2 C 11.7 12.2 11.7 12.3 11.7 12.4 C 11.8 12.4 11.9 12.4 12 12.4 C 12.1 12.4 12.2 12.3 12.2 12.3 C 12.4 12.3 12.5 12.3 12.6 12.3 C 12.7 12.3 12.8 12.3 12.8 12.4 C 12.8 12.5 12.8 12.5 12.7 12.6 C 12.7 12.6 12.6 12.6 12.5 12.6 C 12.5 12.6 12.4 12.6 12.3 12.6 C 12.3 12.6 12.2 12.6 12.2 12.7 C 11.9 12.7 11.8 12.7 11.7 12.7 C 11.7 12.7 11.7 12.7 11.7 12.7 C 11.7 12.7 11.7 12.7 11.7 12.8 C 11.7 12.8 11.6 12.9 11.6 13 C 11.6 13.1 11.6 13.2 11.6 13.2 C 11.6 13.3 11.6 13.3 11.7 13.3 C 11.7 13.3 11.8 13.3 12 13.3 C 12.2 13.2 12.4 13.2 12.4 13.2 C 12.5 13.2 12.6 13.2 12.7 13.2 C 12.8 13.2 12.9 13.2 12.9 13.3 C 12.9 13.4 12.8 13.4 12.8 13.4 C 12.7 13.5 12.6 13.5 12.4 13.5 C 12.3 13.5 12.1 13.5 11.9 13.6 C 11.7 13.6 11.6 13.6 11.4 13.6 C 11.4 13.6 11.3 13.6 11.3 13.6 C 11.2 13.5 11.2 13.5 11.2 13.4 C 11.2 13.4 11.2 13.4 11.2 13.4 C 11.2 13.4 11.2 13.3 11.2 13.3 C 11.3 13.2 11.3 12.9 11.4 12.5 C 11.4 12.1 11.5 11.8 11.5 11.8 C 11.5 11.8 11.4 11.8 11.4 11.8 C 11.4 11.8 11.4 11.8 11.4 11.7 C 11.4 11.7 11.4 11.7 11.4 11.6 C 11.4 11.6 11.4 11.6 11.4 11.6 C 11.4 11.6 11.4 11.5 11.5 11.5 C 11.5 11.5 11.5 11.5 11.6 11.5 C 11.6 11.5 11.7 11.5 11.7 11.5 C 11.8 11.5 12 11.5 12.5 11.4 C 12.6 11.4 12.7 11.4 12.7 11.4 C 12.7 11.4 12.7 11.4 12.7 11.4 C 12.9 11.4 13 11.4 13 11.5 C 13 11.6 13 11.6 13 11.6 C 12.9 11.7 12.9 11.7 12.9 11.7 Z M 14.8 11.7 C 14.8 11.9 14.7 11.9 14.5 11.9 C 14.5 11.8 14.5 11.8 14.5 11.7 C 14.4 11.7 14.3 11.7 14.2 11.7 C 14.1 11.7 13.9 11.7 13.8 11.8 C 13.6 11.9 13.6 12 13.6 12.1 C 13.6 12.1 13.6 12.2 13.6 12.2 C 13.7 12.3 13.8 12.3 14.1 12.4 C 14.3 12.5 14.5 12.5 14.6 12.6 C 14.7 12.7 14.7 12.8 14.7 12.9 C 14.7 13.1 14.6 13.3 14.3 13.4 C 14 13.6 13.7 13.7 13.4 13.7 C 13.3 13.7 13.2 13.6 13.2 13.6 C 13.1 13.5 13.1 13.5 13.1 13.4 C 13.1 13.4 13.1 13.3 13.1 13.3 C 13.2 13.3 13.2 13.2 13.2 13.2 C 13.2 13.2 13.3 13.2 13.3 13.2 C 13.4 13.3 13.5 13.3 13.6 13.3 C 13.7 13.3 13.9 13.3 14.1 13.2 C 14.3 13.1 14.4 13 14.4 12.9 C 14.4 12.9 14.4 12.9 14.3 12.8 C 14.3 12.8 14.2 12.8 14 12.7 C 13.8 12.6 13.6 12.6 13.5 12.5 C 13.4 12.5 13.3 12.4 13.3 12.4 C 13.2 12.3 13.2 12.2 13.2 12.1 C 13.2 11.9 13.3 11.8 13.5 11.6 C 13.7 11.4 14 11.4 14.3 11.4 C 14.4 11.4 14.6 11.4 14.7 11.5 C 14.8 11.5 14.8 11.6 14.8 11.7 C 14.8 11.7 14.8 11.7 14.8 11.7 Z M 16.7 11.7 C 16.7 11.9 16.6 11.9 16.4 11.9 C 16.4 11.8 16.4 11.8 16.3 11.7 C 16.3 11.7 16.2 11.7 16.1 11.7 C 15.9 11.7 15.8 11.7 15.6 11.8 C 15.5 11.9 15.4 12 15.4 12.1 C 15.4 12.1 15.4 12.2 15.5 12.2 C 15.5 12.3 15.7 12.3 15.9 12.4 C 16.1 12.5 16.3 12.5 16.4 12.6 C 16.5 12.7 16.6 12.8 16.6 12.9 C 16.6 13.1 16.5 13.3 16.2 13.4 C 15.9 13.6 15.6 13.7 15.3 13.7 C 15.2 13.7 15.1 13.6 15 13.6 C 15 13.5 14.9 13.5 14.9 13.4 C 14.9 13.4 15 13.3 15 13.3 C 15 13.3 15 13.2 15.1 13.2 C 15.1 13.2 15.1 13.2 15.1 13.2 C 15.2 13.3 15.3 13.3 15.4 13.3 C 15.6 13.3 15.8 13.3 15.9 13.2 C 16.1 13.1 16.2 13 16.2 12.9 C 16.2 12.9 16.2 12.9 16.2 12.8 C 16.1 12.8 16 12.8 15.9 12.7 C 15.7 12.6 15.5 12.6 15.4 12.5 C 15.3 12.5 15.2 12.4 15.1 12.4 C 15.1 12.3 15.1 12.2 15.1 12.1 C 15.1 11.9 15.2 11.8 15.4 11.6 C 15.6 11.4 15.8 11.4 16.1 11.4 C 16.3 11.4 16.4 11.4 16.5 11.5 C 16.6 11.5 16.7 11.6 16.7 11.7 C 16.7 11.7 16.7 11.7 16.7 11.7 Z M 17.4 13.1 C 17.3 13.1 17.3 13.1 17.3 13 C 17.3 13.1 17.2 13.2 17.1 13.3 C 17 13.5 17 13.5 16.9 13.5 C 16.9 13.6 16.9 13.6 16.9 13.6 C 16.8 13.6 16.8 13.6 16.7 13.5 C 16.7 13.5 16.7 13.4 16.7 13.4 C 16.7 13.4 16.8 13.2 17 12.8 C 17.2 12.6 17.3 12.4 17.4 12.2 C 17.6 11.8 17.7 11.5 17.8 11.5 C 17.8 11.4 17.9 11.4 17.9 11.4 C 18 11.4 18.1 11.4 18.1 11.4 C 18.1 11.4 18.2 11.5 18.2 11.5 C 18.2 11.6 18.1 11.6 18.1 11.6 C 18.3 12.2 18.5 12.6 18.6 12.8 C 18.7 13 18.8 13.2 18.9 13.3 C 18.9 13.3 18.9 13.4 19 13.4 C 19 13.4 19 13.4 19 13.4 C 19 13.5 19 13.5 18.9 13.6 C 18.9 13.6 18.8 13.6 18.8 13.6 C 18.7 13.6 18.6 13.6 18.6 13.5 C 18.5 13.4 18.4 13.3 18.3 13.2 C 18.3 13 18.2 12.9 18.2 12.9 C 18.2 12.9 18.2 12.9 18.2 12.9 C 18.2 12.9 18.1 12.9 17.9 12.9 C 17.7 13 17.5 13 17.4 13.1 C 17.4 13.1 17.4 13.1 17.4 13.1 C 17.4 13.1 17.4 13.1 17.4 13.1 Z M 18 12.6 C 18 12.6 18.1 12.6 18.1 12.6 C 18.1 12.5 18 12.3 17.9 12 C 17.9 11.9 17.9 11.9 17.9 11.9 C 17.9 11.9 17.5 12.7 17.5 12.7 C 17.5 12.7 17.6 12.7 17.7 12.7 C 17.7 12.7 17.8 12.7 18 12.6 C 18 12.6 18 12.6 18 12.6 Z M 20.8 11.7 C 20.8 11.9 20.7 11.9 20.5 11.9 C 20.5 11.8 20.5 11.8 20.4 11.7 C 20.4 11.7 20.3 11.7 20.2 11.7 C 20 11.7 19.9 11.7 19.7 11.8 C 19.6 11.9 19.5 12 19.5 12.1 C 19.5 12.1 19.6 12.2 19.6 12.2 C 19.7 12.3 19.8 12.3 20 12.4 C 20.3 12.5 20.4 12.5 20.5 12.6 C 20.7 12.7 20.7 12.8 20.7 12.9 C 20.7 13.1 20.6 13.3 20.3 13.4 C 20 13.6 19.7 13.7 19.4 13.7 C 19.3 13.7 19.2 13.6 19.1 13.6 C 19.1 13.5 19.1 13.5 19.1 13.4 C 19.1 13.4 19.1 13.3 19.1 13.3 C 19.1 13.3 19.2 13.2 19.2 13.2 C 19.2 13.2 19.2 13.2 19.3 13.2 C 19.4 13.3 19.5 13.3 19.5 13.3 C 19.7 13.3 19.9 13.3 20.1 13.2 C 20.2 13.1 20.3 13 20.3 12.9 C 20.3 12.9 20.3 12.9 20.3 12.8 C 20.2 12.8 20.1 12.8 20 12.7 C 19.8 12.6 19.6 12.6 19.5 12.5 C 19.4 12.5 19.3 12.4 19.3 12.4 C 19.2 12.3 19.2 12.2 19.2 12.1 C 19.2 11.9 19.3 11.8 19.5 11.6 C 19.7 11.4 20 11.4 20.2 11.4 C 20.4 11.4 20.5 11.4 20.6 11.5 C 20.7 11.5 20.8 11.6 20.8 11.7 C 20.8 11.7 20.8 11.7 20.8 11.7 Z M 21.4 12.6 C 21.4 12.7 21.4 12.8 21.3 12.8 C 21.2 12.8 21.2 12.8 21.1 12.8 C 21.1 12.6 21.1 12.4 21.1 12.2 C 21.2 11.9 21.2 11.8 21.2 11.7 C 21.2 11.7 21.2 11.6 21.2 11.6 C 21.2 11.5 21.3 11.4 21.3 11.4 C 21.4 11.4 21.4 11.3 21.5 11.3 C 21.5 11.3 21.5 11.4 21.6 11.4 C 21.6 11.4 21.6 11.4 21.6 11.5 C 21.6 11.5 21.6 11.6 21.6 11.8 C 21.5 12 21.5 12.1 21.4 12.3 C 21.4 12.4 21.4 12.5 21.4 12.6 C 21.4 12.6 21.4 12.6 21.4 12.6 Z M 21.1 13.5 C 21 13.5 21 13.4 21 13.3 C 21 13.3 21 13.2 21 13.2 C 21.1 13.1 21.1 13.1 21.2 13.1 C 21.2 13.1 21.2 13.1 21.3 13.1 C 21.3 13.1 21.4 13.2 21.4 13.2 C 21.4 13.2 21.4 13.3 21.4 13.3 C 21.3 13.4 21.3 13.4 21.3 13.4 C 21.2 13.5 21.2 13.5 21.1 13.5 Z M 24.7 11.7 C 24.7 11.9 24.6 11.9 24.4 11.9 C 24.4 11.8 24.4 11.8 24.3 11.7 C 24.3 11.7 24.2 11.7 24.1 11.7 C 23.9 11.7 23.8 11.7 23.6 11.8 C 23.5 11.9 23.4 12 23.4 12.1 C 23.4 12.1 23.5 12.2 23.5 12.2 C 23.6 12.3 23.7 12.3 23.9 12.4 C 24.2 12.5 24.3 12.5 24.4 12.6 C 24.6 12.7 24.6 12.8 24.6 12.9 C 24.6 13.1 24.5 13.3 24.2 13.4 C 23.9 13.6 23.6 13.7 23.3 13.7 C 23.2 13.7 23.1 13.6 23 13.6 C 23 13.5 22.9 13.5 22.9 13.4 C 22.9 13.4 23 13.3 23 13.3 C 23 13.3 23.1 13.2 23.1 13.2 C 23.1 13.2 23.1 13.2 23.2 13.2 C 23.3 13.3 23.4 13.3 23.4 13.3 C 23.6 13.3 23.8 13.3 24 13.2 C 24.1 13.1 24.2 13 24.2 12.9 C 24.2 12.9 24.2 12.9 24.2 12.8 C 24.1 12.8 24 12.8 23.9 12.7 C 23.7 12.6 23.5 12.6 23.4 12.5 C 23.3 12.5 23.2 12.4 23.2 12.4 C 23.1 12.3 23.1 12.2 23.1 12.1 C 23.1 11.9 23.2 11.8 23.4 11.6 C 23.6 11.4 23.9 11.4 24.1 11.4 C 24.3 11.4 24.4 11.4 24.5 11.5 C 24.6 11.5 24.7 11.6 24.7 11.7 C 24.7 11.7 24.7 11.7 24.7 11.7 Z M 25.5 13.6 C 25.3 13.6 25.2 13.5 25 13.4 C 24.9 13.2 24.8 13.1 24.8 12.9 C 24.8 12.7 24.9 12.5 25 12.2 C 25.1 12 25.3 11.8 25.5 11.6 C 25.7 11.5 25.9 11.4 26.1 11.4 C 26.3 11.4 26.4 11.4 26.5 11.4 C 26.6 11.5 26.7 11.5 26.8 11.6 C 26.9 11.7 26.9 11.8 27 11.8 C 27 11.9 27 12 27 12.2 C 27 12.3 27 12.4 26.9 12.6 C 26.8 12.8 26.7 13 26.6 13.1 C 26.4 13.3 26.2 13.4 26.1 13.5 C 25.9 13.6 25.7 13.6 25.5 13.6 Z M 25.2 12.9 C 25.2 13 25.2 13.1 25.3 13.2 C 25.4 13.3 25.5 13.3 25.6 13.3 C 25.8 13.3 26.1 13.2 26.3 12.9 C 26.5 12.7 26.6 12.4 26.6 12.1 C 26.6 12 26.6 11.9 26.6 11.9 C 26.5 11.8 26.5 11.8 26.4 11.7 C 26.3 11.7 26.2 11.7 26.1 11.7 C 25.9 11.7 25.7 11.8 25.5 12.1 C 25.3 12.3 25.2 12.6 25.2 12.9 Z M 26.8 10.7 C 26.7 10.8 26.6 10.8 26.5 10.9 C 26.5 10.9 26.5 10.9 26.5 10.9 C 26.5 10.9 26.4 11 26.3 11.1 C 26.2 11.1 26.2 11.1 26.2 11.1 C 26.2 11.1 26.2 11.1 26.2 11.1 C 26.1 11.1 26.1 11.1 26.1 11.1 C 26 11.1 26 11.1 26 11 C 26 11 26.1 10.9 26.2 10.8 C 26.2 10.8 26.2 10.8 26.2 10.8 C 26.3 10.7 26.3 10.7 26.3 10.7 C 26.5 10.6 26.6 10.5 26.7 10.4 C 26.7 10.4 26.7 10.4 26.8 10.4 C 26.8 10.4 26.8 10.4 26.8 10.5 C 26.9 10.5 26.9 10.6 26.9 10.6 C 26.9 10.6 26.9 10.6 26.9 10.7 C 26.8 10.7 26.8 10.7 26.8 10.7 C 26.8 10.7 26.8 10.7 26.8 10.7 Z M 29.1 12.8 C 28.9 12.8 28.9 12.8 28.8 12.9 C 28.8 13.1 28.8 13.3 28.8 13.4 C 28.8 13.5 28.8 13.5 28.8 13.5 C 28.7 13.6 28.7 13.6 28.6 13.6 C 28.5 13.6 28.5 13.5 28.5 13.4 C 28.5 13.3 28.5 13.1 28.5 12.6 C 28.6 12.3 28.6 12 28.6 12 C 28.6 11.9 28.6 11.8 28.6 11.8 C 28.5 11.8 28.5 11.7 28.5 11.7 C 28.5 11.6 28.6 11.5 28.9 11.4 C 29.2 11.4 29.4 11.4 29.6 11.4 C 29.8 11.4 30 11.4 30.1 11.5 C 30.2 11.6 30.3 11.7 30.3 11.9 C 30.3 12.1 30.2 12.3 29.9 12.4 C 29.7 12.6 29.4 12.7 29.1 12.8 C 29.1 12.8 29.1 12.8 29.1 12.8 Z M 29.6 11.6 C 29.4 11.6 29.2 11.7 29 11.8 C 29 11.8 28.9 12.5 28.9 12.5 C 29.2 12.5 29.4 12.4 29.6 12.3 C 29.8 12.2 30 12 30 11.9 C 30 11.7 29.8 11.6 29.6 11.6 C 29.6 11.6 29.6 11.6 29.6 11.6 Z M 32.1 11.7 C 32.1 11.7 31.7 11.7 31.7 11.7 C 31.5 11.7 31.4 11.7 31.2 11.8 C 31.1 11.8 31.1 11.8 31.1 11.8 C 31.1 11.8 31 11.8 31 11.9 C 31 11.9 31 12 31 12.2 C 31 12.2 31 12.3 30.9 12.4 C 31 12.4 31.1 12.4 31.2 12.4 C 31.3 12.4 31.4 12.3 31.5 12.3 C 31.6 12.3 31.7 12.3 31.8 12.3 C 31.9 12.3 32 12.3 32 12.4 C 32 12.5 32 12.5 32 12.6 C 31.9 12.6 31.9 12.6 31.8 12.6 C 31.7 12.6 31.6 12.6 31.6 12.6 C 31.5 12.6 31.5 12.6 31.4 12.7 C 31.2 12.7 31 12.7 30.9 12.7 C 30.9 12.7 30.9 12.7 30.9 12.7 C 30.9 12.7 30.9 12.7 30.9 12.8 C 30.9 12.8 30.9 12.9 30.9 13 C 30.8 13.1 30.8 13.2 30.8 13.2 C 30.8 13.3 30.9 13.3 30.9 13.3 C 30.9 13.3 31.1 13.3 31.3 13.3 C 31.5 13.2 31.6 13.2 31.6 13.2 C 31.8 13.2 31.9 13.2 31.9 13.2 C 32 13.2 32.1 13.2 32.1 13.3 C 32.1 13.4 32.1 13.4 32 13.4 C 31.9 13.5 31.8 13.5 31.6 13.5 C 31.5 13.5 31.3 13.5 31.2 13.6 C 31 13.6 30.8 13.6 30.7 13.6 C 30.6 13.6 30.5 13.6 30.5 13.6 C 30.5 13.5 30.4 13.5 30.4 13.4 C 30.4 13.4 30.4 13.4 30.4 13.4 C 30.4 13.4 30.4 13.3 30.5 13.3 C 30.5 13.2 30.5 12.9 30.6 12.5 C 30.7 12.1 30.7 11.8 30.7 11.8 C 30.7 11.8 30.7 11.8 30.7 11.8 C 30.7 11.8 30.7 11.8 30.6 11.7 C 30.6 11.7 30.6 11.7 30.6 11.6 C 30.6 11.6 30.6 11.6 30.6 11.6 C 30.6 11.6 30.7 11.5 30.7 11.5 C 30.7 11.5 30.8 11.5 30.8 11.5 C 30.8 11.5 30.9 11.5 30.9 11.5 C 31 11.5 31.3 11.5 31.7 11.4 C 31.9 11.4 32 11.4 32 11.4 C 32 11.4 32 11.4 32 11.4 C 32.2 11.4 32.2 11.4 32.2 11.5 C 32.2 11.6 32.2 11.6 32.2 11.6 C 32.2 11.7 32.1 11.7 32.1 11.7 Z M 32.5 13 C 32.5 13 32.58 12.54 32.6 12.5 C 32.7 12.1 32.7 11.9 32.7 11.7 C 32.7 11.6 32.7 11.6 32.7 11.6 C 32.7 11.5 32.8 11.5 32.8 11.5 C 32.8 11.5 32.9 11.5 32.9 11.5 C 33 11.5 33 11.5 33 11.5 C 33.1 11.5 33.1 11.6 33.1 11.7 C 33.2 11.8 33.3 12.1 33.4 12.3 C 33.6 12.6 33.8 12.8 33.9 13 C 33.9 12.9 34 12.6 34 12.4 C 34.1 12.2 34.1 12 34.1 11.9 C 34.1 11.7 34.1 11.6 34.2 11.6 C 34.2 11.5 34.2 11.4 34.2 11.4 C 34.3 11.4 34.3 11.3 34.4 11.3 C 34.4 11.3 34.4 11.4 34.5 11.4 C 34.5 11.4 34.5 11.5 34.5 11.6 C 34.5 11.6 34.5 11.7 34.5 11.8 C 34.4 12 34.4 12.3 34.3 12.7 C 34.2 13 34.2 13.2 34.2 13.3 C 34.2 13.3 34.2 13.3 34.2 13.3 C 34.2 13.4 34.2 13.4 34.2 13.4 C 34.2 13.5 34.2 13.5 34.1 13.5 C 34.1 13.5 34 13.6 34 13.6 C 33.9 13.6 33.9 13.6 33.9 13.5 C 33.9 13.5 33.9 13.5 33.8 13.5 C 33.8 13.5 33.8 13.4 33.7 13.4 C 33.7 13.3 33.7 13.2 33.6 13.2 C 33.4 12.9 33.2 12.5 33 12.2 C 32.9 12.3 32.9 12.6 32.8 13 C 32.8 13 32.8 13.1 32.8 13.1 C 32.8 13.2 32.8 13.2 32.8 13.3 C 32.8 13.4 32.8 13.5 32.7 13.6 C 32.7 13.6 32.6 13.6 32.6 13.6 C 32.5 13.6 32.5 13.6 32.5 13.6 C 32.4 13.5 32.4 13.5 32.4 13.4 C 32.4 13.3 32.4 13.2 32.5 13 C 32.47 13.04 32.5 13 32.5 13 Z M 36.4 11.7 C 36.4 11.9 36.3 11.9 36.1 11.9 C 36.1 11.8 36.1 11.8 36.1 11.7 C 36 11.7 35.9 11.7 35.8 11.7 C 35.7 11.7 35.5 11.7 35.4 11.8 C 35.2 11.9 35.2 12 35.2 12.1 C 35.2 12.1 35.2 12.2 35.2 12.2 C 35.3 12.3 35.4 12.3 35.7 12.4 C 35.9 12.5 36.1 12.5 36.2 12.6 C 36.3 12.7 36.3 12.8 36.3 12.9 C 36.3 13.1 36.2 13.3 35.9 13.4 C 35.6 13.6 35.3 13.7 35 13.7 C 34.9 13.7 34.8 13.6 34.8 13.6 C 34.7 13.5 34.7 13.5 34.7 13.4 C 34.7 13.4 34.7 13.3 34.7 13.3 C 34.8 13.3 34.8 13.2 34.8 13.2 C 34.8 13.2 34.9 13.2 34.9 13.2 C 35 13.3 35.1 13.3 35.2 13.3 C 35.3 13.3 35.5 13.3 35.7 13.2 C 35.9 13.1 36 13 36 12.9 C 36 12.9 35.9 12.9 35.9 12.8 C 35.9 12.8 35.8 12.8 35.6 12.7 C 35.4 12.6 35.2 12.6 35.1 12.5 C 35 12.5 34.9 12.4 34.9 12.4 C 34.8 12.3 34.8 12.2 34.8 12.1 C 34.8 11.9 34.9 11.8 35.1 11.6 C 35.3 11.4 35.6 11.4 35.9 11.4 C 36 11.4 36.2 11.4 36.3 11.5 C 36.4 11.5 36.4 11.6 36.4 11.7 C 36.4 11.7 36.4 11.7 36.4 11.7 Z M 37.1 13.1 C 37.1 13.1 37 13.1 37 13 C 37 13.1 37 13.2 36.9 13.3 C 36.8 13.5 36.7 13.5 36.7 13.5 C 36.7 13.6 36.6 13.6 36.6 13.6 C 36.6 13.6 36.5 13.6 36.5 13.5 C 36.4 13.5 36.4 13.4 36.4 13.4 C 36.4 13.4 36.5 13.2 36.8 12.8 C 36.9 12.6 37 12.4 37.1 12.2 C 37.4 11.8 37.5 11.5 37.5 11.5 C 37.6 11.4 37.6 11.4 37.7 11.4 C 37.8 11.4 37.8 11.4 37.9 11.4 C 37.9 11.4 37.9 11.5 37.9 11.5 C 37.9 11.6 37.9 11.6 37.9 11.6 C 38.1 12.2 38.2 12.6 38.3 12.8 C 38.4 13 38.5 13.2 38.6 13.3 C 38.7 13.3 38.7 13.4 38.7 13.4 C 38.7 13.4 38.7 13.4 38.7 13.4 C 38.7 13.5 38.7 13.5 38.7 13.6 C 38.6 13.6 38.6 13.6 38.5 13.6 C 38.5 13.6 38.4 13.6 38.3 13.5 C 38.2 13.4 38.1 13.3 38.1 13.2 C 38 13 38 12.9 38 12.9 C 38 12.9 38 12.9 38 12.9 C 37.9 12.9 37.8 12.9 37.6 12.9 C 37.4 13 37.3 13 37.2 13.1 C 37.2 13.1 37.1 13.1 37.1 13.1 C 37.1 13.1 37.1 13.1 37.1 13.1 Z M 37.7 12.6 C 37.8 12.6 37.8 12.6 37.9 12.6 C 37.8 12.5 37.8 12.3 37.7 12 C 37.6 11.9 37.6 11.9 37.6 11.9 C 37.6 11.9 37.2 12.7 37.2 12.7 C 37.3 12.7 37.3 12.7 37.4 12.7 C 37.4 12.7 37.6 12.7 37.7 12.6 C 37.7 12.6 37.7 12.6 37.7 12.6 Z M 40.9 12 C 41 12 41 11.9 41 11.9 C 41 11.9 40.5 12.6 40.5 12.6 C 40.3 12.9 40.1 13 40 13 C 39.9 13 39.8 13 39.8 12.9 C 39.8 12.9 39.7 12.8 39.7 12.6 C 39.6 12.5 39.6 12.4 39.6 12.3 C 39.5 12.2 39.5 12.1 39.5 12.1 C 39.5 12.1 39.4 12.5 39.4 12.5 C 39.4 12.6 39.4 12.7 39.3 12.8 C 39.3 12.9 39.3 13 39.3 13.2 C 39.2 13.3 39.2 13.4 39.2 13.5 C 39.2 13.5 39.2 13.5 39.1 13.6 C 39.1 13.6 39.1 13.6 39 13.6 C 39 13.6 38.9 13.6 38.9 13.5 C 38.9 13.5 38.8 13.5 38.8 13.4 C 38.8 13.3 38.9 13.2 38.9 13.1 C 39.1 12.5 39.2 12.1 39.2 11.9 C 39.2 11.8 39.2 11.7 39.2 11.6 C 39.2 11.5 39.2 11.5 39.3 11.4 C 39.3 11.4 39.4 11.4 39.5 11.4 C 39.5 11.4 39.5 11.4 39.6 11.5 C 39.6 11.5 39.7 11.6 39.7 11.6 C 39.66 11.62 39.7 11.6 39.7 11.6 C 39.7 11.6 39.86 12.19 39.9 12.2 C 39.9 12.4 40 12.6 40 12.6 C 40.1 12.5 40.3 12.3 40.5 12 C 40.7 11.7 40.8 11.6 40.9 11.5 C 41 11.4 41.1 11.4 41.1 11.4 C 41.1 11.4 41.2 11.4 41.2 11.4 C 41.3 11.5 41.3 11.5 41.3 11.5 C 41.3 11.5 41.3 11.7 41.3 12 C 41.2 12.2 41.2 12.4 41.2 12.6 C 41.2 12.8 41.2 13 41.2 13 C 41.2 13.1 41.2 13.1 41.2 13.2 C 41.2 13.2 41.2 13.3 41.2 13.3 C 41.2 13.4 41.2 13.5 41.2 13.5 C 41.1 13.5 41.1 13.6 41 13.6 C 40.9 13.6 40.8 13.5 40.8 13.3 C 40.8 13.1 40.8 12.9 40.9 12.6 C 40.9 12.4 40.9 12.1 40.9 12 C 40.9 12 40.9 12 40.9 12 Z M 44.5 11.7 C 44.5 11.7 44 11.7 44 11.7 C 43.9 11.7 43.7 11.7 43.6 11.8 C 43.5 11.8 43.4 11.8 43.4 11.8 C 43.4 11.8 43.4 11.8 43.4 11.9 C 43.4 11.9 43.4 12 43.4 12.2 C 43.3 12.2 43.3 12.3 43.3 12.4 C 43.4 12.4 43.5 12.4 43.6 12.4 C 43.7 12.4 43.8 12.3 43.8 12.3 C 44 12.3 44.1 12.3 44.2 12.3 C 44.3 12.3 44.4 12.3 44.4 12.4 C 44.4 12.5 44.4 12.5 44.3 12.6 C 44.3 12.6 44.2 12.6 44.1 12.6 C 44.1 12.6 44 12.6 43.9 12.6 C 43.9 12.6 43.9 12.6 43.8 12.7 C 43.5 12.7 43.4 12.7 43.3 12.7 C 43.3 12.7 43.3 12.7 43.3 12.7 C 43.3 12.7 43.3 12.7 43.3 12.8 C 43.3 12.8 43.3 12.9 43.2 13 C 43.2 13.1 43.2 13.2 43.2 13.2 C 43.2 13.3 43.2 13.3 43.3 13.3 C 43.3 13.3 43.4 13.3 43.6 13.3 C 43.8 13.2 44 13.2 44 13.2 C 44.2 13.2 44.2 13.2 44.3 13.2 C 44.4 13.2 44.5 13.2 44.5 13.3 C 44.5 13.4 44.4 13.4 44.4 13.4 C 44.3 13.5 44.2 13.5 44 13.5 C 43.9 13.5 43.7 13.5 43.5 13.6 C 43.4 13.6 43.2 13.6 43 13.6 C 43 13.6 42.9 13.6 42.9 13.6 C 42.8 13.5 42.8 13.5 42.8 13.4 C 42.8 13.4 42.8 13.4 42.8 13.4 C 42.8 13.4 42.8 13.3 42.8 13.3 C 42.9 13.2 42.9 12.9 43 12.5 C 43 12.1 43.1 11.8 43.1 11.8 C 43.1 11.8 43.1 11.8 43.1 11.8 C 43 11.8 43 11.8 43 11.7 C 43 11.7 43 11.7 43 11.6 C 43 11.6 43 11.6 43 11.6 C 43 11.6 43 11.5 43.1 11.5 C 43.1 11.5 43.1 11.5 43.2 11.5 C 43.2 11.5 43.3 11.5 43.3 11.5 C 43.4 11.5 43.7 11.5 44.1 11.4 C 44.2 11.4 44.3 11.4 44.3 11.4 C 44.3 11.4 44.4 11.4 44.4 11.4 C 44.5 11.4 44.6 11.4 44.6 11.5 C 44.6 11.6 44.6 11.6 44.6 11.6 C 44.5 11.7 44.5 11.7 44.5 11.7 Z M 46.8 12 C 46.9 12 46.9 11.9 46.9 11.9 C 46.9 11.9 46.4 12.6 46.4 12.6 C 46.2 12.9 46 13 45.9 13 C 45.8 13 45.7 13 45.7 12.9 C 45.7 12.9 45.6 12.8 45.6 12.6 C 45.5 12.5 45.5 12.4 45.5 12.3 C 45.4 12.2 45.4 12.1 45.4 12.1 C 45.4 12.1 45.3 12.5 45.3 12.5 C 45.3 12.6 45.3 12.7 45.2 12.8 C 45.2 12.9 45.2 13 45.2 13.2 C 45.1 13.3 45.1 13.4 45.1 13.5 C 45.1 13.5 45.1 13.5 45 13.6 C 45 13.6 45 13.6 44.9 13.6 C 44.9 13.6 44.8 13.6 44.8 13.5 C 44.8 13.5 44.7 13.5 44.7 13.4 C 44.7 13.3 44.8 13.2 44.8 13.1 C 45 12.5 45.1 12.1 45.1 11.9 C 45.1 11.8 45.1 11.7 45.1 11.6 C 45.1 11.5 45.1 11.5 45.2 11.4 C 45.2 11.4 45.3 11.4 45.4 11.4 C 45.4 11.4 45.4 11.4 45.5 11.5 C 45.5 11.5 45.5 11.6 45.6 11.6 C 45.56 11.62 45.6 11.6 45.6 11.6 C 45.6 11.6 45.76 12.19 45.8 12.2 C 45.8 12.4 45.9 12.6 45.9 12.6 C 46 12.5 46.2 12.3 46.4 12 C 46.6 11.7 46.7 11.6 46.8 11.5 C 46.9 11.4 47 11.4 47 11.4 C 47 11.4 47.1 11.4 47.1 11.4 C 47.2 11.5 47.2 11.5 47.2 11.5 C 47.2 11.5 47.2 11.7 47.2 12 C 47.1 12.2 47.1 12.4 47.1 12.6 C 47.1 12.8 47.1 13 47.1 13 C 47.1 13.1 47.1 13.1 47.1 13.2 C 47.1 13.2 47.1 13.3 47.1 13.3 C 47.1 13.4 47.1 13.5 47.1 13.5 C 47 13.5 47 13.6 46.9 13.6 C 46.8 13.6 46.7 13.5 46.7 13.3 C 46.7 13.1 46.7 12.9 46.8 12.6 C 46.8 12.4 46.8 12.1 46.8 12 C 46.8 12 46.8 12 46.8 12 Z M 50.3 11.7 C 50.3 11.9 50.2 11.9 50.1 11.9 C 50.1 11.8 50 11.8 50 11.7 C 49.9 11.7 49.9 11.7 49.8 11.7 C 49.6 11.7 49.4 11.7 49.3 11.8 C 49.2 11.9 49.1 12 49.1 12.1 C 49.1 12.1 49.1 12.2 49.2 12.2 C 49.2 12.3 49.4 12.3 49.6 12.4 C 49.8 12.5 50 12.5 50.1 12.6 C 50.2 12.7 50.3 12.8 50.3 12.9 C 50.3 13.1 50.1 13.3 49.8 13.4 C 49.6 13.6 49.3 13.7 48.9 13.7 C 48.8 13.7 48.8 13.6 48.7 13.6 C 48.6 13.5 48.6 13.5 48.6 13.4 C 48.6 13.4 48.6 13.3 48.7 13.3 C 48.7 13.3 48.7 13.2 48.8 13.2 C 48.8 13.2 48.8 13.2 48.8 13.2 C 48.9 13.3 49 13.3 49.1 13.3 C 49.3 13.3 49.4 13.3 49.6 13.2 C 49.8 13.1 49.9 13 49.9 12.9 C 49.9 12.9 49.9 12.9 49.8 12.8 C 49.8 12.8 49.7 12.8 49.5 12.7 C 49.3 12.6 49.2 12.6 49.1 12.5 C 49 12.5 48.9 12.4 48.8 12.4 C 48.8 12.3 48.7 12.2 48.7 12.1 C 48.7 11.9 48.8 11.8 49.1 11.6 C 49.3 11.4 49.5 11.4 49.8 11.4 C 50 11.4 50.1 11.4 50.2 11.5 C 50.3 11.5 50.3 11.6 50.3 11.7 C 50.3 11.7 50.3 11.7 50.3 11.7 Z M 51.1 12.1 C 51.1 12.2 51 12.2 51 12.3 C 51 12.3 51 12.4 51 12.5 C 51 12.7 51 12.8 51 12.9 C 51 13 51 13.2 51 13.3 C 51 13.4 51 13.5 50.9 13.5 C 50.9 13.5 50.8 13.6 50.8 13.6 C 50.7 13.6 50.7 13.5 50.6 13.5 C 50.6 13.4 50.6 13.3 50.6 13.2 C 50.6 13.1 50.6 12.8 50.7 12.5 C 50.7 12.5 50.7 11.9 50.7 11.9 C 50.8 11.8 50.8 11.8 50.8 11.7 C 50.8 11.6 50.8 11.5 50.8 11.5 C 50.8 11.5 50.9 11.4 50.9 11.4 C 51 11.4 51 11.4 51 11.4 C 51.1 11.4 51.1 11.4 51.1 11.4 C 51.2 11.5 51.2 11.5 51.2 11.6 C 51.2 11.6 51.1 12.1 51.1 12.1 Z " stroke="none" fill="#000"/>  </g>  <g id="Polygon12679">    <path d="M 4.2 7.7 C 4.2 7.9 4.1 7.9 3.9 7.9 C 3.9 7.8 3.8 7.8 3.8 7.7 C 3.7 7.7 3.7 7.7 3.6 7.7 C 3.4 7.7 3.3 7.7 3.1 7.8 C 3 7.9 2.9 8 2.9 8.1 C 2.9 8.1 2.9 8.2 3 8.2 C 3 8.3 3.2 8.3 3.4 8.4 C 3.6 8.5 3.8 8.5 3.9 8.6 C 4 8.7 4.1 8.8 4.1 8.9 C 4.1 9.1 3.9 9.3 3.7 9.4 C 3.4 9.6 3.1 9.7 2.8 9.7 C 2.7 9.7 2.6 9.6 2.5 9.6 C 2.5 9.5 2.4 9.5 2.4 9.4 C 2.4 9.4 2.4 9.3 2.5 9.3 C 2.5 9.3 2.5 9.2 2.6 9.2 C 2.6 9.2 2.6 9.2 2.6 9.2 C 2.7 9.3 2.8 9.3 2.9 9.3 C 3.1 9.3 3.2 9.3 3.4 9.2 C 3.6 9.1 3.7 9 3.7 8.9 C 3.7 8.9 3.7 8.9 3.6 8.8 C 3.6 8.8 3.5 8.8 3.4 8.7 C 3.1 8.6 3 8.6 2.9 8.5 C 2.8 8.5 2.7 8.4 2.6 8.4 C 2.6 8.3 2.6 8.2 2.6 8.1 C 2.6 7.9 2.7 7.8 2.9 7.6 C 3.1 7.4 3.3 7.4 3.6 7.4 C 3.8 7.4 3.9 7.4 4 7.5 C 4.1 7.5 4.2 7.6 4.2 7.7 C 4.2 7.7 4.2 7.7 4.2 7.7 Z M 6 7.7 C 6 7.7 5.6 7.7 5.6 7.7 C 5.4 7.7 5.3 7.7 5.2 7.8 C 5.1 7.8 5 7.8 5 7.8 C 5 7.8 5 7.8 5 7.9 C 5 7.9 5 8 4.9 8.2 C 4.9 8.2 4.9 8.3 4.9 8.4 C 5 8.4 5 8.4 5.2 8.4 C 5.3 8.4 5.4 8.3 5.4 8.3 C 5.5 8.3 5.7 8.3 5.7 8.3 C 5.9 8.3 6 8.3 6 8.4 C 6 8.5 5.9 8.5 5.9 8.6 C 5.9 8.6 5.8 8.6 5.7 8.6 C 5.6 8.6 5.6 8.6 5.5 8.6 C 5.5 8.6 5.4 8.6 5.4 8.7 C 5.1 8.7 4.9 8.7 4.9 8.7 C 4.9 8.7 4.9 8.7 4.9 8.7 C 4.9 8.7 4.9 8.7 4.9 8.8 C 4.8 8.8 4.8 8.9 4.8 9 C 4.8 9.1 4.8 9.2 4.8 9.2 C 4.8 9.3 4.8 9.3 4.8 9.3 C 4.9 9.3 5 9.3 5.2 9.3 C 5.4 9.2 5.5 9.2 5.6 9.2 C 5.7 9.2 5.8 9.2 5.8 9.2 C 6 9.2 6 9.2 6 9.3 C 6 9.4 6 9.4 6 9.4 C 5.9 9.5 5.8 9.5 5.6 9.5 C 5.4 9.5 5.3 9.5 5.1 9.6 C 4.9 9.6 4.8 9.6 4.6 9.6 C 4.5 9.6 4.5 9.6 4.4 9.6 C 4.4 9.5 4.4 9.5 4.4 9.4 C 4.4 9.4 4.4 9.4 4.4 9.4 C 4.4 9.4 4.4 9.3 4.4 9.3 C 4.4 9.2 4.5 8.9 4.5 8.5 C 4.6 8.1 4.6 7.8 4.6 7.8 C 4.6 7.8 4.6 7.8 4.6 7.8 C 4.6 7.8 4.6 7.8 4.6 7.7 C 4.6 7.7 4.6 7.7 4.6 7.6 C 4.6 7.6 4.6 7.6 4.6 7.6 C 4.6 7.6 4.6 7.5 4.6 7.5 C 4.7 7.5 4.7 7.5 4.7 7.5 C 4.8 7.5 4.8 7.5 4.9 7.5 C 5 7.5 5.2 7.5 5.7 7.4 C 5.8 7.4 5.9 7.4 5.9 7.4 C 5.9 7.4 5.9 7.4 5.9 7.4 C 6.1 7.4 6.2 7.4 6.2 7.5 C 6.2 7.6 6.2 7.6 6.1 7.6 C 6.1 7.7 6.1 7.7 6 7.7 Z M 9.2 7.7 C 9.2 7.7 8.7 7.7 8.7 7.7 C 8.6 7.7 8.4 7.7 8.3 7.8 C 8.2 7.8 8.1 7.8 8.1 7.8 C 8.1 7.8 8.1 7.8 8.1 7.9 C 8.1 7.9 8.1 8 8.1 8.2 C 8 8.2 8 8.3 8 8.4 C 8.1 8.4 8.2 8.4 8.3 8.4 C 8.4 8.4 8.5 8.3 8.5 8.3 C 8.7 8.3 8.8 8.3 8.9 8.3 C 9 8.3 9.1 8.3 9.1 8.4 C 9.1 8.5 9.1 8.5 9 8.6 C 9 8.6 8.9 8.6 8.8 8.6 C 8.8 8.6 8.7 8.6 8.6 8.6 C 8.6 8.6 8.6 8.6 8.5 8.7 C 8.2 8.7 8.1 8.7 8 8.7 C 8 8.7 8 8.7 8 8.7 C 8 8.7 8 8.7 8 8.8 C 8 8.8 8 8.9 7.9 9 C 7.9 9.1 7.9 9.2 7.9 9.2 C 7.9 9.3 7.9 9.3 8 9.3 C 8 9.3 8.1 9.3 8.3 9.3 C 8.5 9.2 8.7 9.2 8.7 9.2 C 8.8 9.2 8.9 9.2 9 9.2 C 9.1 9.2 9.2 9.2 9.2 9.3 C 9.2 9.4 9.1 9.4 9.1 9.4 C 9 9.5 8.9 9.5 8.7 9.5 C 8.6 9.5 8.4 9.5 8.2 9.6 C 8.1 9.6 7.9 9.6 7.7 9.6 C 7.7 9.6 7.6 9.6 7.6 9.6 C 7.5 9.5 7.5 9.5 7.5 9.4 C 7.5 9.4 7.5 9.4 7.5 9.4 C 7.5 9.4 7.5 9.3 7.5 9.3 C 7.6 9.2 7.6 8.9 7.7 8.5 C 7.7 8.1 7.8 7.8 7.8 7.8 C 7.8 7.8 7.8 7.8 7.7 7.8 C 7.7 7.8 7.7 7.8 7.7 7.7 C 7.7 7.7 7.7 7.7 7.7 7.6 C 7.7 7.6 7.7 7.6 7.7 7.6 C 7.7 7.6 7.7 7.5 7.8 7.5 C 7.8 7.5 7.8 7.5 7.9 7.5 C 7.9 7.5 8 7.5 8 7.5 C 8.1 7.5 8.3 7.5 8.8 7.4 C 8.9 7.4 9 7.4 9 7.4 C 9 7.4 9 7.4 9 7.4 C 9.2 7.4 9.3 7.4 9.3 7.5 C 9.3 7.6 9.3 7.6 9.3 7.6 C 9.2 7.7 9.2 7.7 9.2 7.7 Z M 11.1 7.7 C 11.1 7.9 11 7.9 10.8 7.9 C 10.8 7.8 10.8 7.8 10.8 7.7 C 10.7 7.7 10.6 7.7 10.5 7.7 C 10.4 7.7 10.2 7.7 10.1 7.8 C 9.9 7.9 9.9 8 9.9 8.1 C 9.9 8.1 9.9 8.2 10 8.2 C 10 8.3 10.1 8.3 10.4 8.4 C 10.6 8.5 10.8 8.5 10.9 8.6 C 11 8.7 11.1 8.8 11.1 8.9 C 11.1 9.1 10.9 9.3 10.6 9.4 C 10.3 9.6 10 9.7 9.7 9.7 C 9.6 9.7 9.5 9.6 9.5 9.6 C 9.4 9.5 9.4 9.5 9.4 9.4 C 9.4 9.4 9.4 9.3 9.4 9.3 C 9.5 9.3 9.5 9.2 9.5 9.2 C 9.6 9.2 9.6 9.2 9.6 9.2 C 9.7 9.3 9.8 9.3 9.9 9.3 C 10 9.3 10.2 9.3 10.4 9.2 C 10.6 9.1 10.7 9 10.7 8.9 C 10.7 8.9 10.7 8.9 10.6 8.8 C 10.6 8.8 10.5 8.8 10.3 8.7 C 10.1 8.6 9.9 8.6 9.8 8.5 C 9.7 8.5 9.7 8.4 9.6 8.4 C 9.5 8.3 9.5 8.2 9.5 8.1 C 9.5 7.9 9.6 7.8 9.8 7.6 C 10 7.4 10.3 7.4 10.6 7.4 C 10.8 7.4 10.9 7.4 11 7.5 C 11.1 7.5 11.1 7.6 11.1 7.7 C 11.1 7.7 11.1 7.7 11.1 7.7 Z M 13 7.6 C 13.1 7.7 13.2 7.8 13.3 8 C 13.4 8.1 13.4 8.3 13.4 8.4 C 13.4 8.6 13.3 8.7 13.2 8.9 C 13.1 9 13 9.2 12.9 9.3 C 13 9.5 13.1 9.7 13.2 9.7 C 13.2 9.8 13.2 9.8 13.2 9.8 C 13.2 9.8 13.2 9.9 13.1 9.9 C 13.1 10 13 10 13 10 C 13 10 12.9 10 12.9 9.9 C 12.8 9.8 12.8 9.7 12.7 9.6 C 12.6 9.5 12.6 9.5 12.6 9.5 C 12.5 9.5 12.5 9.5 12.5 9.5 C 12.3 9.5 12.2 9.5 12 9.5 C 11.8 9.5 11.6 9.5 11.5 9.4 C 11.3 9.2 11.3 9.1 11.3 8.9 C 11.3 8.7 11.3 8.5 11.5 8.2 C 11.7 8 11.9 7.7 12.1 7.6 C 12.3 7.4 12.5 7.3 12.7 7.3 C 12.8 7.3 12.8 7.3 12.9 7.4 C 13 7.5 13 7.5 13 7.6 Z M 12 9.2 C 12.1 9.2 12.2 9.2 12.3 9.2 C 12.3 9.2 12.3 9.2 12.3 9.1 C 12.2 9 12.1 9 12.1 9 C 12.1 8.9 12.2 8.9 12.2 8.8 C 12.3 8.8 12.3 8.8 12.4 8.8 C 12.5 8.8 12.5 8.8 12.5 8.9 C 12.5 8.9 12.6 9 12.6 9 C 12.6 9 12.6 9.1 12.7 9.1 C 12.7 9.1 12.8 9 12.9 8.9 C 13 8.7 13.1 8.6 13.1 8.4 C 13.1 8.3 13 8.1 12.9 7.9 C 12.8 7.7 12.7 7.7 12.6 7.7 C 12.5 7.7 12.3 7.7 12.2 7.9 C 12 8 11.9 8.2 11.8 8.4 C 11.7 8.6 11.6 8.7 11.6 8.9 C 11.6 9 11.7 9.1 11.7 9.1 C 11.8 9.2 11.9 9.2 12 9.2 C 12 9.2 12 9.2 12 9.2 Z M 14.5 9.6 C 14.4 9.6 14.3 9.6 14.2 9.5 C 14 9.4 13.9 9.3 13.9 9.2 C 13.8 9 13.7 8.9 13.7 8.7 C 13.7 8.6 13.8 8.5 13.8 8.3 C 13.8 8.3 13.8 8 13.8 8 C 13.8 8 13.8 7.9 13.8 7.9 C 13.9 7.8 13.9 7.8 13.9 7.7 C 13.9 7.6 13.9 7.5 14 7.5 C 14 7.4 14 7.4 14.1 7.4 C 14.1 7.4 14.2 7.4 14.2 7.5 C 14.3 7.5 14.3 7.6 14.3 7.6 C 14.3 7.6 14.2 7.7 14.2 7.9 C 14.2 8 14.2 8.1 14.1 8.3 C 14.1 8.5 14.1 8.6 14.1 8.7 C 14.1 8.9 14.2 9.1 14.3 9.2 C 14.4 9.2 14.5 9.3 14.5 9.3 C 14.8 9.3 15 9.2 15.1 9.1 C 15.1 9 15.2 8.9 15.2 8.6 C 15.2 8.6 15.2 8.5 15.3 8.5 C 15.3 8.4 15.3 8.3 15.3 8.2 C 15.3 7.9 15.3 7.6 15.4 7.6 C 15.4 7.5 15.5 7.4 15.6 7.4 C 15.7 7.4 15.7 7.5 15.7 7.6 C 15.7 7.7 15.7 7.8 15.7 8.1 C 15.6 8.2 15.6 8.3 15.6 8.4 C 15.6 8.7 15.6 8.9 15.5 9.1 C 15.4 9.2 15.3 9.3 15.2 9.5 C 15 9.6 14.8 9.6 14.5 9.6 Z M 17.6 7.7 C 17.6 7.7 17.2 7.7 17.2 7.7 C 17 7.7 16.9 7.7 16.8 7.8 C 16.7 7.8 16.6 7.8 16.6 7.8 C 16.6 7.8 16.6 7.8 16.6 7.9 C 16.6 7.9 16.5 8 16.5 8.2 C 16.5 8.2 16.5 8.3 16.5 8.4 C 16.5 8.4 16.6 8.4 16.7 8.4 C 16.9 8.4 16.9 8.3 17 8.3 C 17.1 8.3 17.2 8.3 17.3 8.3 C 17.5 8.3 17.5 8.3 17.5 8.4 C 17.5 8.5 17.5 8.5 17.5 8.6 C 17.4 8.6 17.4 8.6 17.3 8.6 C 17.2 8.6 17.2 8.6 17.1 8.6 C 17.1 8.6 17 8.6 17 8.7 C 16.7 8.7 16.5 8.7 16.5 8.7 C 16.5 8.7 16.5 8.7 16.5 8.7 C 16.5 8.7 16.4 8.7 16.4 8.8 C 16.4 8.8 16.4 8.9 16.4 9 C 16.4 9.1 16.4 9.2 16.4 9.2 C 16.4 9.3 16.4 9.3 16.4 9.3 C 16.5 9.3 16.6 9.3 16.8 9.3 C 17 9.2 17.1 9.2 17.2 9.2 C 17.3 9.2 17.4 9.2 17.4 9.2 C 17.6 9.2 17.6 9.2 17.6 9.3 C 17.6 9.4 17.6 9.4 17.6 9.4 C 17.5 9.5 17.3 9.5 17.2 9.5 C 17 9.5 16.9 9.5 16.7 9.6 C 16.5 9.6 16.3 9.6 16.2 9.6 C 16.1 9.6 16.1 9.6 16 9.6 C 16 9.5 16 9.5 16 9.4 C 16 9.4 16 9.4 16 9.4 C 16 9.4 16 9.3 16 9.3 C 16 9.2 16.1 8.9 16.1 8.5 C 16.2 8.1 16.2 7.8 16.2 7.8 C 16.2 7.8 16.2 7.8 16.2 7.8 C 16.2 7.8 16.2 7.8 16.2 7.7 C 16.2 7.7 16.1 7.7 16.1 7.6 C 16.1 7.6 16.1 7.6 16.2 7.6 C 16.2 7.6 16.2 7.5 16.2 7.5 C 16.3 7.5 16.3 7.5 16.3 7.5 C 16.4 7.5 16.4 7.5 16.5 7.5 C 16.5 7.5 16.8 7.5 17.3 7.4 C 17.4 7.4 17.5 7.4 17.5 7.4 C 17.5 7.4 17.5 7.4 17.5 7.4 C 17.7 7.4 17.8 7.4 17.8 7.5 C 17.8 7.6 17.8 7.6 17.7 7.6 C 17.7 7.7 17.7 7.7 17.6 7.7 Z M 19.2 9.1 C 19.3 9 19.4 9 19.4 9 C 19.5 9 19.6 9 19.6 9.1 C 19.6 9.2 19.4 9.3 19.2 9.4 C 19 9.6 18.8 9.6 18.6 9.6 C 18.4 9.6 18.3 9.6 18.1 9.5 C 18 9.4 17.9 9.2 17.9 9 C 17.9 8.7 18 8.5 18.1 8.2 C 18.3 7.9 18.5 7.7 18.7 7.5 C 18.9 7.4 19.2 7.3 19.4 7.3 C 19.5 7.3 19.6 7.3 19.7 7.4 C 19.8 7.5 19.8 7.6 19.8 7.7 C 19.8 7.8 19.8 7.9 19.8 7.9 C 19.8 8 19.7 8 19.7 8 C 19.6 8.1 19.6 8.1 19.5 8.1 C 19.5 8.1 19.5 8.1 19.4 8 C 19.4 8 19.4 8 19.4 7.9 C 19.4 7.9 19.4 7.9 19.4 7.8 C 19.4 7.7 19.4 7.7 19.4 7.7 C 19.4 7.6 19.4 7.6 19.4 7.6 C 19.2 7.6 19.1 7.6 18.9 7.8 C 18.7 7.9 18.6 8.1 18.5 8.3 C 18.3 8.6 18.3 8.8 18.3 8.9 C 18.3 9 18.3 9.1 18.4 9.2 C 18.4 9.3 18.5 9.3 18.6 9.3 C 18.7 9.3 18.8 9.3 18.9 9.3 C 19 9.2 19.1 9.2 19.2 9.1 C 19.2 9.1 19.2 9.1 19.2 9.1 Z M 21.6 7.7 C 21.6 7.7 21.2 7.7 21.2 7.7 C 21 7.7 20.9 7.7 20.8 7.8 C 20.7 7.8 20.6 7.8 20.6 7.8 C 20.6 7.8 20.6 7.8 20.6 7.9 C 20.6 7.9 20.6 8 20.5 8.2 C 20.5 8.2 20.5 8.3 20.5 8.4 C 20.6 8.4 20.6 8.4 20.8 8.4 C 20.9 8.4 21 8.3 21 8.3 C 21.1 8.3 21.3 8.3 21.3 8.3 C 21.5 8.3 21.6 8.3 21.6 8.4 C 21.6 8.5 21.5 8.5 21.5 8.6 C 21.5 8.6 21.4 8.6 21.3 8.6 C 21.2 8.6 21.2 8.6 21.1 8.6 C 21.1 8.6 21 8.6 21 8.7 C 20.7 8.7 20.5 8.7 20.5 8.7 C 20.5 8.7 20.5 8.7 20.5 8.7 C 20.5 8.7 20.5 8.7 20.5 8.8 C 20.4 8.8 20.4 8.9 20.4 9 C 20.4 9.1 20.4 9.2 20.4 9.2 C 20.4 9.3 20.4 9.3 20.4 9.3 C 20.5 9.3 20.6 9.3 20.8 9.3 C 21 9.2 21.1 9.2 21.2 9.2 C 21.3 9.2 21.4 9.2 21.4 9.2 C 21.6 9.2 21.6 9.2 21.6 9.3 C 21.6 9.4 21.6 9.4 21.6 9.4 C 21.5 9.5 21.4 9.5 21.2 9.5 C 21 9.5 20.9 9.5 20.7 9.6 C 20.5 9.6 20.4 9.6 20.2 9.6 C 20.1 9.6 20.1 9.6 20 9.6 C 20 9.5 20 9.5 20 9.4 C 20 9.4 20 9.4 20 9.4 C 20 9.4 20 9.3 20 9.3 C 20 9.2 20.1 8.9 20.1 8.5 C 20.2 8.1 20.2 7.8 20.2 7.8 C 20.2 7.8 20.2 7.8 20.2 7.8 C 20.2 7.8 20.2 7.8 20.2 7.7 C 20.2 7.7 20.2 7.7 20.2 7.6 C 20.2 7.6 20.2 7.6 20.2 7.6 C 20.2 7.6 20.2 7.5 20.2 7.5 C 20.3 7.5 20.3 7.5 20.3 7.5 C 20.4 7.5 20.4 7.5 20.5 7.5 C 20.6 7.5 20.8 7.5 21.3 7.4 C 21.4 7.4 21.5 7.4 21.5 7.4 C 21.5 7.4 21.5 7.4 21.5 7.4 C 21.7 7.4 21.8 7.4 21.8 7.5 C 21.8 7.6 21.8 7.6 21.7 7.6 C 21.7 7.7 21.7 7.7 21.6 7.7 Z M 24 8 C 24 8 24 7.9 24 7.9 C 24 7.9 23.5 8.6 23.5 8.6 C 23.3 8.9 23.1 9 23 9 C 23 9 22.9 9 22.9 8.9 C 22.8 8.9 22.8 8.8 22.7 8.6 C 22.7 8.5 22.7 8.4 22.6 8.3 C 22.6 8.2 22.6 8.1 22.6 8.1 C 22.6 8.1 22.5 8.5 22.5 8.5 C 22.5 8.6 22.4 8.7 22.4 8.8 C 22.4 8.9 22.4 9 22.3 9.2 C 22.3 9.3 22.3 9.4 22.3 9.5 C 22.3 9.5 22.3 9.5 22.2 9.6 C 22.2 9.6 22.1 9.6 22.1 9.6 C 22.1 9.6 22 9.6 22 9.5 C 21.9 9.5 21.9 9.5 21.9 9.4 C 21.9 9.3 21.9 9.2 22 9.1 C 22.1 8.5 22.2 8.1 22.2 7.9 C 22.3 7.8 22.3 7.7 22.3 7.6 C 22.3 7.5 22.3 7.5 22.4 7.4 C 22.4 7.4 22.5 7.4 22.5 7.4 C 22.6 7.4 22.6 7.4 22.7 7.5 C 22.7 7.5 22.7 7.6 22.7 7.6 C 22.73 7.62 22.7 7.6 22.7 7.6 C 22.7 7.6 22.93 8.19 22.9 8.2 C 23 8.4 23.1 8.6 23.1 8.6 C 23.2 8.5 23.4 8.3 23.6 8 C 23.8 7.7 23.9 7.6 24 7.5 C 24.1 7.4 24.1 7.4 24.1 7.4 C 24.2 7.4 24.3 7.4 24.3 7.4 C 24.4 7.5 24.4 7.5 24.4 7.5 C 24.4 7.5 24.4 7.7 24.3 8 C 24.3 8.2 24.3 8.4 24.3 8.6 C 24.2 8.8 24.2 9 24.2 9 C 24.2 9.1 24.2 9.1 24.3 9.2 C 24.3 9.2 24.3 9.3 24.3 9.3 C 24.3 9.4 24.3 9.5 24.2 9.5 C 24.2 9.5 24.1 9.6 24.1 9.6 C 23.9 9.6 23.9 9.5 23.9 9.3 C 23.9 9.1 23.9 8.9 23.9 8.6 C 24 8.4 24 8.1 24 8 C 24 8 24 8 24 8 Z M 26 9.3 C 26 9.2 26 9.1 26 9 C 26 8.7 26 8.3 26.1 8 C 26.1 7.9 26.1 7.8 26.1 7.8 C 26.1 7.8 26.1 7.7 26.1 7.7 C 26 7.7 25.9 7.7 25.9 7.6 C 25.9 7.6 26 7.5 26 7.5 C 26.1 7.4 26.1 7.4 26.1 7.4 C 26.1 7.4 26.3 7.4 26.3 7.4 C 26.4 7.4 26.6 7.4 26.7 7.4 C 26.9 7.4 27 7.4 27 7.4 C 27.3 7.4 27.5 7.5 27.7 7.6 C 27.9 7.8 28 8 28 8.2 C 28 8.5 27.8 8.8 27.6 9 C 27.3 9.2 27 9.4 26.6 9.4 C 26.5 9.5 26.5 9.5 26.4 9.5 C 26.4 9.5 26.3 9.5 26.3 9.6 C 26.2 9.6 26.1 9.6 26.1 9.6 C 26 9.6 26 9.6 25.9 9.6 C 25.9 9.5 25.9 9.5 25.9 9.5 C 25.9 9.4 25.9 9.4 25.9 9.4 C 25.9 9.4 26 9.3 26 9.3 Z M 26.3 9.1 C 26.3 9.2 26.3 9.2 26.3 9.2 C 26.4 9.2 26.5 9.2 26.8 9.1 C 27 9 27.2 8.9 27.4 8.7 C 27.5 8.6 27.6 8.4 27.6 8.2 C 27.6 8 27.5 7.9 27.4 7.8 C 27.3 7.7 27.2 7.7 27 7.7 C 26.9 7.7 26.7 7.7 26.5 7.7 C 26.5 7.7 26.5 7.7 26.5 7.7 C 26.4 8.4 26.3 8.8 26.3 9.1 C 26.3 9.1 26.3 9.1 26.3 9.1 Z M 29.9 7.7 C 29.9 7.7 29.4 7.7 29.4 7.7 C 29.3 7.7 29.1 7.7 29 7.8 C 28.9 7.8 28.8 7.8 28.8 7.8 C 28.8 7.8 28.8 7.8 28.8 7.9 C 28.8 7.9 28.8 8 28.8 8.2 C 28.7 8.2 28.7 8.3 28.7 8.4 C 28.8 8.4 28.9 8.4 29 8.4 C 29.1 8.4 29.2 8.3 29.2 8.3 C 29.4 8.3 29.5 8.3 29.6 8.3 C 29.7 8.3 29.8 8.3 29.8 8.4 C 29.8 8.5 29.8 8.5 29.7 8.6 C 29.7 8.6 29.6 8.6 29.5 8.6 C 29.5 8.6 29.4 8.6 29.3 8.6 C 29.3 8.6 29.2 8.6 29.2 8.7 C 28.9 8.7 28.8 8.7 28.7 8.7 C 28.7 8.7 28.7 8.7 28.7 8.7 C 28.7 8.7 28.7 8.7 28.7 8.8 C 28.7 8.8 28.6 8.9 28.6 9 C 28.6 9.1 28.6 9.2 28.6 9.2 C 28.6 9.3 28.6 9.3 28.7 9.3 C 28.7 9.3 28.8 9.3 29 9.3 C 29.2 9.2 29.4 9.2 29.4 9.2 C 29.5 9.2 29.6 9.2 29.7 9.2 C 29.8 9.2 29.8 9.2 29.8 9.3 C 29.8 9.4 29.8 9.4 29.8 9.4 C 29.7 9.5 29.6 9.5 29.4 9.5 C 29.3 9.5 29.1 9.5 28.9 9.6 C 28.7 9.6 28.6 9.6 28.4 9.6 C 28.4 9.6 28.3 9.6 28.3 9.6 C 28.2 9.5 28.2 9.5 28.2 9.4 C 28.2 9.4 28.2 9.4 28.2 9.4 C 28.2 9.4 28.2 9.3 28.2 9.3 C 28.3 9.2 28.3 8.9 28.4 8.5 C 28.4 8.1 28.4 7.8 28.4 7.8 C 28.4 7.8 28.4 7.8 28.4 7.8 C 28.4 7.8 28.4 7.8 28.4 7.7 C 28.4 7.7 28.4 7.7 28.4 7.6 C 28.4 7.6 28.4 7.6 28.4 7.6 C 28.4 7.6 28.4 7.5 28.4 7.5 C 28.5 7.5 28.5 7.5 28.6 7.5 C 28.6 7.5 28.6 7.5 28.7 7.5 C 28.8 7.5 29 7.5 29.5 7.4 C 29.6 7.4 29.7 7.4 29.7 7.4 C 29.7 7.4 29.7 7.4 29.7 7.4 C 29.9 7.4 30 7.4 30 7.5 C 30 7.6 30 7.6 30 7.6 C 29.9 7.7 29.9 7.7 29.9 7.7 Z M 32.6 9.1 C 32.7 9 32.8 9 32.8 9 C 32.9 9 32.9 9 32.9 9.1 C 32.9 9.2 32.8 9.3 32.6 9.4 C 32.4 9.6 32.2 9.6 32 9.6 C 31.8 9.6 31.6 9.6 31.5 9.5 C 31.3 9.4 31.3 9.2 31.3 9 C 31.3 8.7 31.3 8.5 31.5 8.2 C 31.7 7.9 31.8 7.7 32.1 7.5 C 32.3 7.4 32.5 7.3 32.8 7.3 C 32.9 7.3 33 7.3 33.1 7.4 C 33.1 7.5 33.2 7.6 33.2 7.7 C 33.2 7.8 33.2 7.9 33.2 7.9 C 33.1 8 33.1 8 33 8 C 33 8.1 32.9 8.1 32.9 8.1 C 32.9 8.1 32.8 8.1 32.8 8 C 32.8 8 32.8 8 32.8 7.9 C 32.8 7.9 32.8 7.9 32.8 7.8 C 32.8 7.7 32.8 7.7 32.8 7.7 C 32.8 7.6 32.8 7.6 32.7 7.6 C 32.6 7.6 32.4 7.6 32.3 7.8 C 32.1 7.9 31.9 8.1 31.8 8.3 C 31.7 8.6 31.6 8.8 31.6 8.9 C 31.6 9 31.7 9.1 31.7 9.2 C 31.8 9.3 31.9 9.3 32 9.3 C 32.1 9.3 32.2 9.3 32.3 9.3 C 32.4 9.2 32.5 9.2 32.6 9.1 C 32.6 9.1 32.6 9.1 32.6 9.1 Z M 34.2 9.6 C 34.1 9.6 34 9.6 33.8 9.5 C 33.7 9.4 33.6 9.3 33.5 9.2 C 33.4 9 33.4 8.9 33.4 8.7 C 33.4 8.6 33.4 8.5 33.4 8.3 C 33.4 8.3 33.5 8 33.5 8 C 33.5 8 33.5 7.9 33.5 7.9 C 33.5 7.8 33.5 7.8 33.5 7.7 C 33.5 7.6 33.6 7.5 33.6 7.5 C 33.6 7.4 33.7 7.4 33.8 7.4 C 33.8 7.4 33.8 7.4 33.9 7.5 C 33.9 7.5 33.9 7.6 33.9 7.6 C 33.9 7.6 33.9 7.7 33.9 7.9 C 33.8 8 33.8 8.1 33.8 8.3 C 33.8 8.5 33.7 8.6 33.7 8.7 C 33.7 8.9 33.8 9.1 33.9 9.2 C 34 9.2 34.1 9.3 34.2 9.3 C 34.4 9.3 34.6 9.2 34.7 9.1 C 34.8 9 34.9 8.9 34.9 8.6 C 34.9 8.6 34.9 8.5 34.9 8.5 C 34.9 8.4 34.9 8.3 34.9 8.2 C 35 7.9 35 7.6 35 7.6 C 35.1 7.5 35.1 7.4 35.2 7.4 C 35.3 7.4 35.4 7.5 35.4 7.6 C 35.4 7.7 35.4 7.8 35.3 8.1 C 35.3 8.2 35.3 8.3 35.3 8.4 C 35.3 8.7 35.2 8.9 35.1 9.1 C 35.1 9.2 35 9.3 34.8 9.5 C 34.6 9.6 34.4 9.6 34.2 9.6 Z M 37.7 8 C 37.7 8 37.7 7.9 37.7 7.9 C 37.7 7.9 37.2 8.6 37.2 8.6 C 37 8.9 36.8 9 36.7 9 C 36.6 9 36.6 9 36.5 8.9 C 36.5 8.9 36.4 8.8 36.4 8.6 C 36.3 8.5 36.3 8.4 36.3 8.3 C 36.2 8.2 36.2 8.1 36.2 8.1 C 36.2 8.1 36.1 8.5 36.1 8.5 C 36.1 8.6 36.1 8.7 36.1 8.8 C 36 8.9 36 9 36 9.2 C 35.9 9.3 35.9 9.4 35.9 9.5 C 35.9 9.5 35.9 9.5 35.9 9.6 C 35.8 9.6 35.8 9.6 35.8 9.6 C 35.7 9.6 35.7 9.6 35.6 9.5 C 35.6 9.5 35.6 9.5 35.6 9.4 C 35.6 9.3 35.6 9.2 35.6 9.1 C 35.8 8.5 35.9 8.1 35.9 7.9 C 35.9 7.8 35.9 7.7 35.9 7.6 C 35.9 7.5 36 7.5 36 7.4 C 36 7.4 36.1 7.4 36.2 7.4 C 36.2 7.4 36.3 7.4 36.3 7.5 C 36.3 7.5 36.4 7.6 36.4 7.6 C 36.38 7.62 36.4 7.6 36.4 7.6 C 36.4 7.6 36.58 8.19 36.6 8.2 C 36.7 8.4 36.7 8.6 36.7 8.6 C 36.8 8.5 37 8.3 37.2 8 C 37.4 7.7 37.6 7.6 37.6 7.5 C 37.7 7.4 37.8 7.4 37.8 7.4 C 37.8 7.4 37.9 7.4 38 7.4 C 38 7.5 38 7.5 38 7.5 C 38 7.5 38 7.7 38 8 C 38 8.2 37.9 8.4 37.9 8.6 C 37.9 8.8 37.9 9 37.9 9 C 37.9 9.1 37.9 9.1 37.9 9.2 C 37.9 9.2 37.9 9.3 37.9 9.3 C 37.9 9.4 37.9 9.5 37.9 9.5 C 37.8 9.5 37.8 9.6 37.7 9.6 C 37.6 9.6 37.5 9.5 37.5 9.3 C 37.5 9.1 37.5 8.9 37.6 8.6 C 37.6 8.4 37.6 8.1 37.7 8 C 37.7 8 37.7 8 37.7 8 Z M 39.1 8.8 C 38.9 8.8 38.9 8.8 38.9 8.9 C 38.8 9.1 38.8 9.3 38.8 9.4 C 38.8 9.5 38.8 9.5 38.8 9.5 C 38.7 9.6 38.7 9.6 38.6 9.6 C 38.5 9.6 38.5 9.5 38.5 9.4 C 38.5 9.3 38.5 9.1 38.5 8.6 C 38.6 8.3 38.6 8 38.6 8 C 38.6 7.9 38.6 7.8 38.6 7.8 C 38.5 7.8 38.5 7.7 38.5 7.7 C 38.5 7.6 38.6 7.5 38.9 7.4 C 39.2 7.4 39.4 7.4 39.6 7.4 C 39.8 7.4 40 7.4 40.1 7.5 C 40.2 7.6 40.3 7.7 40.3 7.9 C 40.3 8.1 40.2 8.3 39.9 8.4 C 39.7 8.6 39.4 8.7 39.1 8.8 C 39.1 8.8 39.1 8.8 39.1 8.8 Z M 39.6 7.6 C 39.4 7.6 39.2 7.7 39 7.8 C 39 7.8 38.9 8.5 38.9 8.5 C 39.2 8.5 39.4 8.4 39.6 8.3 C 39.8 8.2 40 8 40 7.9 C 40 7.7 39.8 7.6 39.6 7.6 C 39.6 7.6 39.6 7.6 39.6 7.6 Z M 40.6 7.8 C 40.6 7.8 40.62 7.72 40.6 7.7 C 40.6 7.7 40.6 7.6 40.6 7.6 C 40.6 7.6 40.6 7.5 40.6 7.5 C 40.7 7.5 40.7 7.4 40.8 7.4 C 40.8 7.4 40.8 7.4 40.8 7.4 C 40.9 7.4 40.9 7.4 40.9 7.4 C 41.2 7.4 41.4 7.4 41.5 7.4 C 41.7 7.4 41.9 7.4 42 7.5 C 42.1 7.6 42.2 7.8 42.2 7.9 C 42.2 8.1 42.1 8.2 42 8.3 C 41.9 8.5 41.7 8.6 41.5 8.6 C 41.9 8.9 42.1 9.1 42.3 9.2 C 42.4 9.3 42.4 9.3 42.4 9.4 C 42.4 9.4 42.4 9.4 42.3 9.5 C 42.3 9.5 42.3 9.5 42.2 9.5 C 42.2 9.5 42.1 9.5 42 9.5 C 41.9 9.4 41.8 9.3 41.7 9.2 C 41.6 9.1 41.5 9.1 41.5 9.1 C 41.3 8.9 41.2 8.8 41.1 8.7 C 41 8.7 40.9 8.7 40.9 8.6 C 40.9 8.5 41 8.5 41 8.5 C 41 8.4 41.1 8.4 41.2 8.4 C 41.2 8.4 41.2 8.4 41.2 8.4 C 41.2 8.4 41.2 8.4 41.2 8.4 C 41.3 8.4 41.4 8.4 41.6 8.3 C 41.8 8.2 41.8 8 41.8 7.9 C 41.8 7.8 41.8 7.8 41.7 7.7 C 41.7 7.7 41.6 7.7 41.5 7.7 C 41.3 7.7 41.2 7.7 41.2 7.7 C 41.1 7.7 41 7.7 41 7.7 C 41 7.7 41 7.7 41 7.8 C 41 7.8 41 7.9 40.9 8.1 C 40.9 8.2 40.9 8.4 40.8 8.6 C 40.8 8.9 40.8 9 40.8 9.1 C 40.8 9.2 40.8 9.2 40.8 9.3 C 40.8 9.3 40.8 9.4 40.8 9.4 C 40.8 9.5 40.8 9.5 40.8 9.5 C 40.7 9.6 40.7 9.6 40.6 9.6 C 40.5 9.6 40.4 9.5 40.4 9.3 C 40.4 9.2 40.5 8.9 40.5 8.7 C 40.5 8.4 40.6 8.2 40.6 7.9 C 40.6 7.9 40.6 7.9 40.6 7.9 C 40.62 7.86 40.6 7.8 40.6 7.8 Z M 43.1 8.1 C 43.1 8.2 43 8.2 43 8.3 C 43 8.3 43 8.4 43 8.5 C 43 8.7 43 8.8 43 8.9 C 43 9 43 9.2 43 9.3 C 43 9.4 43 9.5 42.9 9.5 C 42.9 9.5 42.8 9.6 42.8 9.6 C 42.7 9.6 42.7 9.5 42.6 9.5 C 42.6 9.4 42.6 9.3 42.6 9.2 C 42.6 9.1 42.6 8.8 42.7 8.5 C 42.7 8.5 42.7 7.9 42.7 7.9 C 42.8 7.8 42.8 7.8 42.8 7.7 C 42.8 7.6 42.8 7.5 42.8 7.5 C 42.8 7.5 42.9 7.4 42.9 7.4 C 43 7.4 43 7.4 43 7.4 C 43.1 7.4 43.1 7.4 43.1 7.4 C 43.2 7.5 43.2 7.5 43.2 7.6 C 43.2 7.6 43.1 8.1 43.1 8.1 Z M 43.6 7.8 C 43.6 7.8 43.63 7.72 43.6 7.7 C 43.6 7.7 43.6 7.6 43.6 7.6 C 43.6 7.6 43.6 7.5 43.7 7.5 C 43.7 7.5 43.7 7.4 43.8 7.4 C 43.8 7.4 43.8 7.4 43.9 7.4 C 43.9 7.4 43.9 7.4 43.9 7.4 C 44.2 7.4 44.4 7.4 44.5 7.4 C 44.7 7.4 44.9 7.4 45 7.5 C 45.1 7.6 45.2 7.8 45.2 7.9 C 45.2 8.1 45.2 8.2 45 8.3 C 44.9 8.5 44.7 8.6 44.5 8.6 C 44.9 8.9 45.1 9.1 45.3 9.2 C 45.4 9.3 45.4 9.3 45.4 9.4 C 45.4 9.4 45.4 9.4 45.3 9.5 C 45.3 9.5 45.3 9.5 45.2 9.5 C 45.2 9.5 45.1 9.5 45 9.5 C 45 9.4 44.9 9.3 44.7 9.2 C 44.6 9.1 44.5 9.1 44.5 9.1 C 44.3 8.9 44.2 8.8 44.1 8.7 C 44 8.7 43.9 8.7 43.9 8.6 C 43.9 8.5 44 8.5 44 8.5 C 44.1 8.4 44.1 8.4 44.2 8.4 C 44.2 8.4 44.2 8.4 44.2 8.4 C 44.2 8.4 44.2 8.4 44.3 8.4 C 44.3 8.4 44.4 8.4 44.6 8.3 C 44.8 8.2 44.9 8 44.9 7.9 C 44.9 7.8 44.8 7.8 44.7 7.7 C 44.7 7.7 44.6 7.7 44.5 7.7 C 44.3 7.7 44.2 7.7 44.2 7.7 C 44.1 7.7 44 7.7 44 7.7 C 44 7.7 44 7.7 44 7.8 C 44 7.8 44 7.9 43.9 8.1 C 43.9 8.2 43.9 8.4 43.9 8.6 C 43.8 8.9 43.8 9 43.8 9.1 C 43.8 9.2 43.8 9.2 43.8 9.3 C 43.8 9.3 43.8 9.4 43.8 9.4 C 43.8 9.5 43.8 9.5 43.8 9.5 C 43.7 9.6 43.7 9.6 43.6 9.6 C 43.5 9.6 43.4 9.5 43.4 9.3 C 43.4 9.2 43.5 8.9 43.5 8.7 C 43.5 8.4 43.6 8.2 43.6 7.9 C 43.6 7.9 43.6 7.9 43.6 7.9 C 43.63 7.86 43.6 7.8 43.6 7.8 Z M 47.2 9.1 C 47.1 9.1 47.1 9.1 47.1 9 C 47.1 9.1 47 9.2 46.9 9.3 C 46.9 9.5 46.8 9.5 46.8 9.5 C 46.7 9.6 46.7 9.6 46.7 9.6 C 46.6 9.6 46.6 9.6 46.5 9.5 C 46.5 9.5 46.5 9.4 46.5 9.4 C 46.5 9.4 46.6 9.2 46.8 8.8 C 47 8.6 47.1 8.4 47.2 8.2 C 47.4 7.8 47.6 7.5 47.6 7.5 C 47.7 7.4 47.7 7.4 47.8 7.4 C 47.8 7.4 47.9 7.4 47.9 7.4 C 48 7.4 48 7.5 48 7.5 C 48 7.6 48 7.6 48 7.6 C 48.1 8.2 48.3 8.6 48.4 8.8 C 48.5 9 48.6 9.2 48.7 9.3 C 48.7 9.3 48.8 9.4 48.8 9.4 C 48.8 9.4 48.8 9.4 48.8 9.4 C 48.8 9.5 48.8 9.5 48.7 9.6 C 48.7 9.6 48.7 9.6 48.6 9.6 C 48.5 9.6 48.4 9.6 48.4 9.5 C 48.3 9.4 48.2 9.3 48.2 9.2 C 48.1 9 48.1 8.9 48.1 8.9 C 48.1 8.9 48.1 8.9 48 8.9 C 48 8.9 47.9 8.9 47.7 8.9 C 47.5 9 47.4 9 47.3 9.1 C 47.2 9.1 47.2 9.1 47.2 9.1 C 47.2 9.1 47.2 9.1 47.2 9.1 Z M 47.8 8.6 C 47.9 8.6 47.9 8.6 47.9 8.6 C 47.9 8.5 47.8 8.3 47.7 8 C 47.7 7.9 47.7 7.9 47.7 7.9 C 47.7 7.9 47.3 8.7 47.3 8.7 C 47.4 8.7 47.4 8.7 47.5 8.7 C 47.5 8.7 47.6 8.7 47.8 8.6 C 47.8 8.6 47.8 8.6 47.8 8.6 Z M 50.6 7.7 C 50.6 7.9 50.5 7.9 50.3 7.9 C 50.3 7.8 50.3 7.8 50.2 7.7 C 50.2 7.7 50.1 7.7 50 7.7 C 49.9 7.7 49.7 7.7 49.6 7.8 C 49.4 7.9 49.4 8 49.4 8.1 C 49.4 8.1 49.4 8.2 49.4 8.2 C 49.5 8.3 49.6 8.3 49.8 8.4 C 50.1 8.5 50.3 8.5 50.4 8.6 C 50.5 8.7 50.5 8.8 50.5 8.9 C 50.5 9.1 50.4 9.3 50.1 9.4 C 49.8 9.6 49.5 9.7 49.2 9.7 C 49.1 9.7 49 9.6 49 9.6 C 48.9 9.5 48.9 9.5 48.9 9.4 C 48.9 9.4 48.9 9.3 48.9 9.3 C 48.9 9.3 49 9.2 49 9.2 C 49 9.2 49.1 9.2 49.1 9.2 C 49.2 9.3 49.3 9.3 49.4 9.3 C 49.5 9.3 49.7 9.3 49.9 9.2 C 50.1 9.1 50.2 9 50.2 8.9 C 50.2 8.9 50.1 8.9 50.1 8.8 C 50 8.8 49.9 8.8 49.8 8.7 C 49.6 8.6 49.4 8.6 49.3 8.5 C 49.2 8.5 49.1 8.4 49.1 8.4 C 49 8.3 49 8.2 49 8.1 C 49 7.9 49.1 7.8 49.3 7.6 C 49.5 7.4 49.8 7.4 50.1 7.4 C 50.2 7.4 50.4 7.4 50.5 7.5 C 50.6 7.5 50.6 7.6 50.6 7.7 C 50.6 7.7 50.6 7.7 50.6 7.7 Z " stroke="none" fill="#000"/>  </g>  <g id="Polygon12678">    <path d="M 5.4 5.3 C 5.4 5.2 5.4 5.1 5.4 5 C 5.4 4.7 5.4 4.3 5.5 4 C 5.5 3.9 5.5 3.8 5.5 3.8 C 5.5 3.8 5.5 3.7 5.5 3.7 C 5.4 3.7 5.4 3.7 5.4 3.6 C 5.4 3.6 5.4 3.5 5.4 3.5 C 5.5 3.4 5.5 3.4 5.6 3.4 C 5.6 3.4 5.8 3.4 5.8 3.4 C 5.8 3.4 6 3.4 6.1 3.4 C 6.3 3.4 6.4 3.4 6.4 3.4 C 6.7 3.4 6.9 3.5 7.1 3.6 C 7.3 3.8 7.4 4 7.4 4.2 C 7.4 4.5 7.2 4.8 7 5 C 6.7 5.2 6.4 5.4 6 5.4 C 5.9 5.5 5.9 5.5 5.8 5.5 C 5.8 5.5 5.7 5.5 5.7 5.6 C 5.6 5.6 5.6 5.6 5.5 5.6 C 5.4 5.6 5.4 5.6 5.4 5.6 C 5.3 5.5 5.3 5.5 5.3 5.5 C 5.3 5.4 5.3 5.4 5.3 5.4 C 5.3 5.4 5.4 5.3 5.4 5.3 Z M 5.7 5.1 C 5.7 5.2 5.7 5.2 5.7 5.2 C 5.8 5.2 5.9 5.2 6.2 5.1 C 6.4 5 6.6 4.9 6.8 4.7 C 6.9 4.6 7 4.4 7 4.2 C 7 4 7 3.9 6.8 3.8 C 6.7 3.7 6.6 3.7 6.4 3.7 C 6.3 3.7 6.1 3.7 5.9 3.7 C 5.9 3.7 5.9 3.7 5.9 3.7 C 5.8 4.4 5.7 4.8 5.7 5.1 C 5.7 5.1 5.7 5.1 5.7 5.1 Z M 9.3 3.7 C 9.3 3.7 8.8 3.7 8.8 3.7 C 8.7 3.7 8.5 3.7 8.4 3.8 C 8.3 3.8 8.2 3.8 8.2 3.8 C 8.2 3.8 8.2 3.8 8.2 3.9 C 8.2 3.9 8.2 4 8.2 4.2 C 8.1 4.2 8.1 4.3 8.1 4.4 C 8.2 4.4 8.3 4.4 8.4 4.4 C 8.5 4.4 8.6 4.3 8.6 4.3 C 8.8 4.3 8.9 4.3 9 4.3 C 9.1 4.3 9.2 4.3 9.2 4.4 C 9.2 4.5 9.2 4.5 9.1 4.6 C 9.1 4.6 9 4.6 8.9 4.6 C 8.9 4.6 8.8 4.6 8.7 4.6 C 8.7 4.6 8.6 4.6 8.6 4.7 C 8.3 4.7 8.2 4.7 8.1 4.7 C 8.1 4.7 8.1 4.7 8.1 4.7 C 8.1 4.7 8.1 4.7 8.1 4.8 C 8.1 4.8 8.1 4.9 8 5 C 8 5.1 8 5.2 8 5.2 C 8 5.3 8 5.3 8.1 5.3 C 8.1 5.3 8.2 5.3 8.4 5.3 C 8.6 5.2 8.8 5.2 8.8 5.2 C 8.9 5.2 9 5.2 9.1 5.2 C 9.2 5.2 9.3 5.2 9.3 5.3 C 9.3 5.4 9.2 5.4 9.2 5.4 C 9.1 5.5 9 5.5 8.8 5.5 C 8.7 5.5 8.5 5.5 8.3 5.6 C 8.1 5.6 8 5.6 7.8 5.6 C 7.8 5.6 7.7 5.6 7.7 5.6 C 7.6 5.5 7.6 5.5 7.6 5.4 C 7.6 5.4 7.6 5.4 7.6 5.4 C 7.6 5.4 7.6 5.3 7.6 5.3 C 7.7 5.2 7.7 4.9 7.8 4.5 C 7.8 4.1 7.9 3.8 7.9 3.8 C 7.9 3.8 7.9 3.8 7.8 3.8 C 7.8 3.8 7.8 3.8 7.8 3.7 C 7.8 3.7 7.8 3.7 7.8 3.6 C 7.8 3.6 7.8 3.6 7.8 3.6 C 7.8 3.6 7.8 3.5 7.9 3.5 C 7.9 3.5 7.9 3.5 8 3.5 C 8 3.5 8.1 3.5 8.1 3.5 C 8.2 3.5 8.4 3.5 8.9 3.4 C 9 3.4 9.1 3.4 9.1 3.4 C 9.1 3.4 9.1 3.4 9.1 3.4 C 9.3 3.4 9.4 3.4 9.4 3.5 C 9.4 3.6 9.4 3.6 9.4 3.6 C 9.3 3.7 9.3 3.7 9.3 3.7 Z M 10.3 4.8 C 10.1 4.8 10.1 4.8 10.1 4.9 C 10 5.1 10 5.3 10 5.4 C 10 5.5 10 5.5 10 5.5 C 9.9 5.6 9.9 5.6 9.8 5.6 C 9.7 5.6 9.7 5.5 9.7 5.4 C 9.7 5.3 9.7 5.1 9.7 4.6 C 9.8 4.3 9.8 4 9.8 4 C 9.8 3.9 9.8 3.8 9.8 3.8 C 9.7 3.8 9.7 3.7 9.7 3.7 C 9.7 3.6 9.8 3.5 10.1 3.4 C 10.4 3.4 10.6 3.4 10.8 3.4 C 11 3.4 11.2 3.4 11.3 3.5 C 11.4 3.6 11.5 3.7 11.5 3.9 C 11.5 4.1 11.4 4.3 11.1 4.4 C 10.9 4.6 10.6 4.7 10.3 4.8 C 10.3 4.8 10.3 4.8 10.3 4.8 Z M 10.8 3.6 C 10.6 3.6 10.4 3.7 10.2 3.8 C 10.2 3.8 10.1 4.5 10.1 4.5 C 10.4 4.5 10.6 4.4 10.8 4.3 C 11.1 4.2 11.2 4 11.2 3.9 C 11.2 3.7 11 3.6 10.8 3.6 C 10.8 3.6 10.8 3.6 10.8 3.6 Z M 12.2 5.6 C 12.1 5.6 11.9 5.5 11.8 5.4 C 11.6 5.2 11.6 5.1 11.6 4.9 C 11.6 4.7 11.6 4.5 11.8 4.2 C 11.9 4 12 3.8 12.2 3.6 C 12.4 3.5 12.6 3.4 12.8 3.4 C 13 3.4 13.1 3.4 13.2 3.4 C 13.4 3.5 13.5 3.5 13.5 3.6 C 13.6 3.7 13.7 3.8 13.7 3.8 C 13.7 3.9 13.8 4 13.8 4.2 C 13.8 4.3 13.7 4.4 13.6 4.6 C 13.6 4.8 13.4 5 13.3 5.1 C 13.1 5.3 13 5.4 12.8 5.5 C 12.7 5.6 12.5 5.6 12.2 5.6 Z M 12 4.9 C 12 5 12 5.1 12.1 5.2 C 12.1 5.3 12.2 5.3 12.3 5.3 C 12.6 5.3 12.8 5.2 13 4.9 C 13.3 4.7 13.4 4.4 13.4 4.1 C 13.4 4 13.4 3.9 13.3 3.9 C 13.3 3.8 13.2 3.8 13.1 3.7 C 13 3.7 12.9 3.7 12.8 3.7 C 12.7 3.7 12.5 3.8 12.3 4.1 C 12.1 4.3 12 4.6 12 4.9 Z M 14.5 4.1 C 14.5 4.2 14.5 4.2 14.5 4.3 C 14.5 4.3 14.5 4.4 14.4 4.5 C 14.4 4.7 14.4 4.8 14.4 4.9 C 14.4 5 14.4 5.2 14.4 5.3 C 14.4 5.4 14.4 5.5 14.4 5.5 C 14.3 5.5 14.3 5.6 14.2 5.6 C 14.1 5.6 14.1 5.5 14.1 5.5 C 14 5.4 14 5.3 14 5.2 C 14 5.1 14 4.8 14.1 4.5 C 14.1 4.5 14.2 3.9 14.2 3.9 C 14.2 3.8 14.2 3.8 14.2 3.7 C 14.2 3.6 14.2 3.5 14.2 3.5 C 14.3 3.5 14.3 3.4 14.3 3.4 C 14.4 3.4 14.4 3.4 14.4 3.4 C 14.5 3.4 14.5 3.4 14.6 3.4 C 14.6 3.5 14.6 3.5 14.6 3.6 C 14.6 3.6 14.5 4.1 14.5 4.1 Z M 16.5 3.7 C 16.5 3.9 16.4 3.9 16.2 3.9 C 16.2 3.8 16.2 3.8 16.1 3.7 C 16.1 3.7 16 3.7 15.9 3.7 C 15.8 3.7 15.6 3.7 15.5 3.8 C 15.3 3.9 15.3 4 15.3 4.1 C 15.3 4.1 15.3 4.2 15.3 4.2 C 15.4 4.3 15.5 4.3 15.7 4.4 C 16 4.5 16.1 4.5 16.3 4.6 C 16.4 4.7 16.4 4.8 16.4 4.9 C 16.4 5.1 16.3 5.3 16 5.4 C 15.7 5.6 15.4 5.7 15.1 5.7 C 15 5.7 14.9 5.6 14.9 5.6 C 14.8 5.5 14.8 5.5 14.8 5.4 C 14.8 5.4 14.8 5.3 14.8 5.3 C 14.8 5.3 14.9 5.2 14.9 5.2 C 14.9 5.2 15 5.2 15 5.2 C 15.1 5.3 15.2 5.3 15.3 5.3 C 15.4 5.3 15.6 5.3 15.8 5.2 C 16 5.1 16.1 5 16.1 4.9 C 16.1 4.9 16 4.9 16 4.8 C 15.9 4.8 15.8 4.8 15.7 4.7 C 15.5 4.6 15.3 4.6 15.2 4.5 C 15.1 4.5 15 4.4 15 4.4 C 14.9 4.3 14.9 4.2 14.9 4.1 C 14.9 3.9 15 3.8 15.2 3.6 C 15.4 3.4 15.7 3.4 16 3.4 C 16.1 3.4 16.3 3.4 16.4 3.5 C 16.5 3.5 16.5 3.6 16.5 3.7 C 16.5 3.7 16.5 3.7 16.5 3.7 Z M 19.5 3.6 C 19.6 3.7 19.7 3.8 19.8 4 C 19.9 4.1 19.9 4.3 19.9 4.4 C 19.9 4.6 19.9 4.7 19.8 4.9 C 19.7 5 19.5 5.2 19.4 5.3 C 19.6 5.5 19.7 5.7 19.7 5.7 C 19.7 5.8 19.8 5.8 19.8 5.8 C 19.8 5.8 19.7 5.9 19.7 5.9 C 19.6 6 19.6 6 19.5 6 C 19.5 6 19.4 6 19.4 5.9 C 19.4 5.8 19.3 5.7 19.2 5.6 C 19.1 5.5 19.1 5.5 19.1 5.5 C 19.1 5.5 19 5.5 19 5.5 C 18.8 5.5 18.7 5.5 18.5 5.5 C 18.3 5.5 18.2 5.5 18 5.4 C 17.9 5.2 17.8 5.1 17.8 4.9 C 17.8 4.7 17.9 4.5 18 4.2 C 18.2 4 18.4 3.7 18.6 3.6 C 18.8 3.4 19.1 3.3 19.2 3.3 C 19.3 3.3 19.4 3.3 19.4 3.4 C 19.5 3.5 19.5 3.5 19.5 3.6 Z M 18.5 5.2 C 18.6 5.2 18.7 5.2 18.8 5.2 C 18.8 5.2 18.8 5.2 18.8 5.1 C 18.7 5 18.7 5 18.7 5 C 18.7 4.9 18.7 4.9 18.7 4.8 C 18.8 4.8 18.9 4.8 18.9 4.8 C 19 4.8 19 4.8 19 4.9 C 19.1 4.9 19.1 5 19.1 5 C 19.1 5 19.2 5.1 19.2 5.1 C 19.2 5.1 19.3 5 19.4 4.9 C 19.5 4.7 19.6 4.6 19.6 4.4 C 19.6 4.3 19.5 4.1 19.4 3.9 C 19.3 3.7 19.2 3.7 19.1 3.7 C 19 3.7 18.9 3.7 18.7 3.9 C 18.6 4 18.4 4.2 18.3 4.4 C 18.2 4.6 18.2 4.7 18.2 4.9 C 18.2 5 18.2 5.1 18.3 5.1 C 18.3 5.2 18.4 5.2 18.5 5.2 C 18.5 5.2 18.5 5.2 18.5 5.2 Z M 21.1 5.6 C 21 5.6 20.8 5.6 20.7 5.5 C 20.6 5.4 20.4 5.3 20.4 5.2 C 20.3 5 20.3 4.9 20.3 4.7 C 20.3 4.6 20.3 4.5 20.3 4.3 C 20.3 4.3 20.3 4 20.3 4 C 20.4 4 20.4 3.9 20.4 3.9 C 20.4 3.8 20.4 3.8 20.4 3.7 C 20.4 3.6 20.4 3.5 20.5 3.5 C 20.5 3.4 20.6 3.4 20.6 3.4 C 20.7 3.4 20.7 3.4 20.7 3.5 C 20.8 3.5 20.8 3.6 20.8 3.6 C 20.8 3.6 20.8 3.7 20.7 3.9 C 20.7 4 20.7 4.1 20.7 4.3 C 20.6 4.5 20.6 4.6 20.6 4.7 C 20.6 4.9 20.7 5.1 20.8 5.2 C 20.9 5.2 21 5.3 21.1 5.3 C 21.3 5.3 21.5 5.2 21.6 5.1 C 21.7 5 21.7 4.9 21.8 4.6 C 21.8 4.6 21.8 4.5 21.8 4.5 C 21.8 4.4 21.8 4.3 21.8 4.2 C 21.8 3.9 21.9 3.6 21.9 3.6 C 21.9 3.5 22 3.4 22.1 3.4 C 22.2 3.4 22.2 3.5 22.2 3.6 C 22.2 3.7 22.2 3.8 22.2 4.1 C 22.2 4.2 22.1 4.3 22.1 4.4 C 22.1 4.7 22.1 4.9 22 5.1 C 22 5.2 21.8 5.3 21.7 5.5 C 21.5 5.6 21.3 5.6 21.1 5.6 Z M 24.2 3.7 C 24.2 3.7 23.7 3.7 23.7 3.7 C 23.5 3.7 23.4 3.7 23.3 3.8 C 23.2 3.8 23.1 3.8 23.1 3.8 C 23.1 3.8 23.1 3.8 23.1 3.9 C 23.1 3.9 23.1 4 23 4.2 C 23 4.2 23 4.3 23 4.4 C 23.1 4.4 23.1 4.4 23.3 4.4 C 23.4 4.4 23.5 4.3 23.5 4.3 C 23.7 4.3 23.8 4.3 23.8 4.3 C 24 4.3 24.1 4.3 24.1 4.4 C 24.1 4.5 24 4.5 24 4.6 C 24 4.6 23.9 4.6 23.8 4.6 C 23.7 4.6 23.7 4.6 23.6 4.6 C 23.6 4.6 23.5 4.6 23.5 4.7 C 23.2 4.7 23 4.7 23 4.7 C 23 4.7 23 4.7 23 4.7 C 23 4.7 23 4.7 23 4.8 C 22.9 4.8 22.9 4.9 22.9 5 C 22.9 5.1 22.9 5.2 22.9 5.2 C 22.9 5.3 22.9 5.3 22.9 5.3 C 23 5.3 23.1 5.3 23.3 5.3 C 23.5 5.2 23.6 5.2 23.7 5.2 C 23.8 5.2 23.9 5.2 23.9 5.2 C 24.1 5.2 24.1 5.2 24.1 5.3 C 24.1 5.4 24.1 5.4 24.1 5.4 C 24 5.5 23.9 5.5 23.7 5.5 C 23.6 5.5 23.4 5.5 23.2 5.6 C 23 5.6 22.9 5.6 22.7 5.6 C 22.6 5.6 22.6 5.6 22.5 5.6 C 22.5 5.5 22.5 5.5 22.5 5.4 C 22.5 5.4 22.5 5.4 22.5 5.4 C 22.5 5.4 22.5 5.3 22.5 5.3 C 22.5 5.2 22.6 4.9 22.6 4.5 C 22.7 4.1 22.7 3.8 22.7 3.8 C 22.7 3.8 22.7 3.8 22.7 3.8 C 22.7 3.8 22.7 3.8 22.7 3.7 C 22.7 3.7 22.7 3.7 22.7 3.6 C 22.7 3.6 22.7 3.6 22.7 3.6 C 22.7 3.6 22.7 3.5 22.7 3.5 C 22.8 3.5 22.8 3.5 22.8 3.5 C 22.9 3.5 22.9 3.5 23 3.5 C 23.1 3.5 23.3 3.5 23.8 3.4 C 23.9 3.4 24 3.4 24 3.4 C 24 3.4 24 3.4 24 3.4 C 24.2 3.4 24.3 3.4 24.3 3.5 C 24.3 3.6 24.3 3.6 24.2 3.6 C 24.2 3.7 24.2 3.7 24.2 3.7 Z M 27.2 3.7 C 27.2 3.9 27.1 3.9 27 3.9 C 27 3.8 26.9 3.8 26.9 3.7 C 26.8 3.7 26.8 3.7 26.7 3.7 C 26.5 3.7 26.3 3.7 26.2 3.8 C 26.1 3.9 26 4 26 4.1 C 26 4.1 26 4.2 26.1 4.2 C 26.1 4.3 26.3 4.3 26.5 4.4 C 26.7 4.5 26.9 4.5 27 4.6 C 27.1 4.7 27.2 4.8 27.2 4.9 C 27.2 5.1 27 5.3 26.7 5.4 C 26.5 5.6 26.2 5.7 25.8 5.7 C 25.7 5.7 25.7 5.6 25.6 5.6 C 25.5 5.5 25.5 5.5 25.5 5.4 C 25.5 5.4 25.5 5.3 25.6 5.3 C 25.6 5.3 25.6 5.2 25.6 5.2 C 25.7 5.2 25.7 5.2 25.7 5.2 C 25.8 5.3 25.9 5.3 26 5.3 C 26.2 5.3 26.3 5.3 26.5 5.2 C 26.7 5.1 26.8 5 26.8 4.9 C 26.8 4.9 26.8 4.9 26.7 4.8 C 26.7 4.8 26.6 4.8 26.4 4.7 C 26.2 4.6 26.1 4.6 26 4.5 C 25.9 4.5 25.8 4.4 25.7 4.4 C 25.7 4.3 25.6 4.2 25.6 4.1 C 25.6 3.9 25.7 3.8 26 3.6 C 26.2 3.4 26.4 3.4 26.7 3.4 C 26.9 3.4 27 3.4 27.1 3.5 C 27.2 3.5 27.2 3.6 27.2 3.7 C 27.2 3.7 27.2 3.7 27.2 3.7 Z M 27.9 5.1 C 27.9 5.1 27.9 5.1 27.8 5 C 27.8 5.1 27.8 5.2 27.7 5.3 C 27.6 5.5 27.5 5.5 27.5 5.5 C 27.5 5.6 27.4 5.6 27.4 5.6 C 27.4 5.6 27.3 5.6 27.3 5.5 C 27.2 5.5 27.2 5.4 27.2 5.4 C 27.2 5.4 27.3 5.2 27.6 4.8 C 27.7 4.6 27.8 4.4 28 4.2 C 28.2 3.8 28.3 3.5 28.4 3.5 C 28.4 3.4 28.5 3.4 28.5 3.4 C 28.6 3.4 28.7 3.4 28.7 3.4 C 28.7 3.4 28.7 3.5 28.7 3.5 C 28.7 3.6 28.7 3.6 28.7 3.6 C 28.9 4.2 29 4.6 29.1 4.8 C 29.2 5 29.3 5.2 29.4 5.3 C 29.5 5.3 29.5 5.4 29.5 5.4 C 29.5 5.4 29.5 5.4 29.5 5.4 C 29.5 5.5 29.5 5.5 29.5 5.6 C 29.4 5.6 29.4 5.6 29.3 5.6 C 29.3 5.6 29.2 5.6 29.1 5.5 C 29 5.4 29 5.3 28.9 5.2 C 28.8 5 28.8 4.9 28.8 4.9 C 28.8 4.9 28.8 4.9 28.8 4.9 C 28.7 4.9 28.6 4.9 28.4 4.9 C 28.3 5 28.1 5 28 5.1 C 28 5.1 28 5.1 27.9 5.1 C 27.9 5.1 27.9 5.1 27.9 5.1 Z M 28.6 4.6 C 28.6 4.6 28.6 4.6 28.7 4.6 C 28.7 4.5 28.6 4.3 28.5 4 C 28.5 3.9 28.5 3.9 28.5 3.9 C 28.5 3.9 28 4.7 28 4.7 C 28.1 4.7 28.2 4.7 28.2 4.7 C 28.3 4.7 28.4 4.7 28.6 4.6 C 28.6 4.6 28.6 4.6 28.6 4.6 Z M 28.9 3.1 C 28.8 3.1 28.7 3.1 28.7 3 C 28.7 3 28.6 3 28.6 2.9 C 28.6 2.9 28.5 2.9 28.5 2.9 C 28.5 2.9 28.5 2.9 28.5 2.9 C 28.5 2.8 28.4 2.8 28.4 2.8 C 28.3 2.8 28.3 2.8 28.2 2.9 C 28.2 2.9 28.2 2.9 28.2 2.9 C 28.1 3 28.1 3.1 28.1 3.1 C 28.1 3.1 28 3.1 28 3.1 C 27.9 3.1 27.9 3.1 27.9 3 C 27.9 2.9 27.9 2.8 28.1 2.7 C 28.2 2.6 28.3 2.5 28.4 2.5 C 28.4 2.5 28.5 2.5 28.5 2.5 C 28.6 2.6 28.6 2.6 28.6 2.6 C 28.7 2.7 28.8 2.7 28.8 2.8 C 28.8 2.8 28.9 2.8 28.9 2.8 C 28.9 2.8 28.9 2.8 29 2.7 C 29 2.7 29 2.7 29 2.6 C 29 2.6 29.1 2.6 29.1 2.6 C 29.1 2.6 29.1 2.6 29.2 2.6 C 29.2 2.6 29.3 2.6 29.3 2.7 C 29.3 2.7 29.2 2.8 29.2 2.9 C 29.1 3 29 3.1 28.9 3.1 C 28.9 3.1 28.9 3.1 28.9 3.1 Z M 30.3 5.6 C 30.1 5.6 30 5.5 29.8 5.4 C 29.7 5.2 29.6 5.1 29.6 4.9 C 29.6 4.7 29.7 4.5 29.8 4.2 C 29.9 4 30.1 3.8 30.3 3.6 C 30.5 3.5 30.7 3.4 30.9 3.4 C 31.1 3.4 31.2 3.4 31.3 3.4 C 31.4 3.5 31.5 3.5 31.6 3.6 C 31.7 3.7 31.7 3.8 31.8 3.8 C 31.8 3.9 31.8 4 31.8 4.2 C 31.8 4.3 31.8 4.4 31.7 4.6 C 31.6 4.8 31.5 5 31.4 5.1 C 31.2 5.3 31 5.4 30.9 5.5 C 30.7 5.6 30.5 5.6 30.3 5.6 Z M 30 4.9 C 30 5 30 5.1 30.1 5.2 C 30.2 5.3 30.3 5.3 30.4 5.3 C 30.6 5.3 30.9 5.2 31.1 4.9 C 31.3 4.7 31.4 4.4 31.4 4.1 C 31.4 4 31.4 3.9 31.4 3.9 C 31.3 3.8 31.3 3.8 31.2 3.7 C 31.1 3.7 31 3.7 30.9 3.7 C 30.7 3.7 30.5 3.8 30.3 4.1 C 30.1 4.3 30 4.6 30 4.9 Z M 34.8 3.7 C 34.8 3.7 34.4 3.7 34.4 3.7 C 34.2 3.7 34.1 3.7 34 3.8 C 33.9 3.8 33.8 3.8 33.8 3.8 C 33.8 3.8 33.8 3.8 33.8 3.9 C 33.8 3.9 33.8 4 33.7 4.2 C 33.7 4.2 33.7 4.3 33.7 4.4 C 33.8 4.4 33.8 4.4 34 4.4 C 34.1 4.4 34.2 4.3 34.2 4.3 C 34.4 4.3 34.5 4.3 34.5 4.3 C 34.7 4.3 34.8 4.3 34.8 4.4 C 34.8 4.5 34.7 4.5 34.7 4.6 C 34.7 4.6 34.6 4.6 34.5 4.6 C 34.4 4.6 34.4 4.6 34.3 4.6 C 34.3 4.6 34.2 4.6 34.2 4.7 C 33.9 4.7 33.7 4.7 33.7 4.7 C 33.7 4.7 33.7 4.7 33.7 4.7 C 33.7 4.7 33.7 4.7 33.7 4.8 C 33.6 4.8 33.6 4.9 33.6 5 C 33.6 5.1 33.6 5.2 33.6 5.2 C 33.6 5.3 33.6 5.3 33.6 5.3 C 33.7 5.3 33.8 5.3 34 5.3 C 34.2 5.2 34.3 5.2 34.4 5.2 C 34.5 5.2 34.6 5.2 34.6 5.2 C 34.8 5.2 34.8 5.2 34.8 5.3 C 34.8 5.4 34.8 5.4 34.8 5.4 C 34.7 5.5 34.6 5.5 34.4 5.5 C 34.3 5.5 34.1 5.5 33.9 5.6 C 33.7 5.6 33.6 5.6 33.4 5.6 C 33.3 5.6 33.3 5.6 33.2 5.6 C 33.2 5.5 33.2 5.5 33.2 5.4 C 33.2 5.4 33.2 5.4 33.2 5.4 C 33.2 5.4 33.2 5.3 33.2 5.3 C 33.2 5.2 33.3 4.9 33.3 4.5 C 33.4 4.1 33.4 3.8 33.4 3.8 C 33.4 3.8 33.4 3.8 33.4 3.8 C 33.4 3.8 33.4 3.8 33.4 3.7 C 33.4 3.7 33.4 3.7 33.4 3.6 C 33.4 3.6 33.4 3.6 33.4 3.6 C 33.4 3.6 33.4 3.5 33.4 3.5 C 33.5 3.5 33.5 3.5 33.5 3.5 C 33.6 3.5 33.6 3.5 33.7 3.5 C 33.8 3.5 34 3.5 34.5 3.4 C 34.6 3.4 34.7 3.4 34.7 3.4 C 34.7 3.4 34.7 3.4 34.7 3.4 C 34.9 3.4 35 3.4 35 3.5 C 35 3.6 35 3.6 34.9 3.6 C 34.9 3.7 34.9 3.7 34.8 3.7 Z M 36.6 5.4 C 36.6 5.4 36.5 5.4 36.5 5.4 C 36.4 5.4 36.4 5.4 36.3 5.4 C 36.1 5.4 35.8 5.5 35.6 5.5 C 35.5 5.6 35.4 5.6 35.3 5.6 C 35.3 5.6 35.2 5.6 35.2 5.5 C 35.2 5.5 35.1 5.4 35.1 5.4 C 35.1 5.4 35.2 5.3 35.2 5.3 C 35.2 5.2 35.2 5.1 35.2 4.9 C 35.2 4.9 35.4 3.7 35.4 3.7 C 35.4 3.6 35.4 3.5 35.4 3.5 C 35.4 3.5 35.4 3.4 35.5 3.4 C 35.5 3.4 35.5 3.4 35.6 3.4 C 35.6 3.4 35.7 3.4 35.7 3.4 C 35.7 3.5 35.8 3.5 35.8 3.5 C 35.8 3.6 35.8 3.6 35.7 3.7 C 35.7 3.9 35.7 4.1 35.6 4.5 C 35.6 4.9 35.6 5.1 35.6 5.1 C 35.6 5.2 35.6 5.2 35.6 5.2 C 35.6 5.2 35.7 5.2 35.9 5.2 C 36 5.1 36 5.1 36.1 5.1 C 36.4 5.1 36.5 5.1 36.6 5.1 C 36.6 5.1 36.7 5.1 36.7 5.1 C 36.7 5.1 36.8 5.1 36.8 5.1 C 36.8 5.1 36.8 5.2 36.8 5.2 C 36.8 5.3 36.8 5.3 36.8 5.4 C 36.7 5.4 36.6 5.4 36.6 5.4 Z M 38.7 3.7 C 38.7 3.7 38.2 3.7 38.2 3.7 C 38 3.7 37.9 3.7 37.8 3.8 C 37.7 3.8 37.6 3.8 37.6 3.8 C 37.6 3.8 37.6 3.8 37.6 3.9 C 37.6 3.9 37.6 4 37.5 4.2 C 37.5 4.2 37.5 4.3 37.5 4.4 C 37.6 4.4 37.7 4.4 37.8 4.4 C 37.9 4.4 38 4.3 38 4.3 C 38.2 4.3 38.3 4.3 38.3 4.3 C 38.5 4.3 38.6 4.3 38.6 4.4 C 38.6 4.5 38.6 4.5 38.5 4.6 C 38.5 4.6 38.4 4.6 38.3 4.6 C 38.3 4.6 38.2 4.6 38.1 4.6 C 38.1 4.6 38 4.6 38 4.7 C 37.7 4.7 37.6 4.7 37.5 4.7 C 37.5 4.7 37.5 4.7 37.5 4.7 C 37.5 4.7 37.5 4.7 37.5 4.8 C 37.5 4.8 37.4 4.9 37.4 5 C 37.4 5.1 37.4 5.2 37.4 5.2 C 37.4 5.3 37.4 5.3 37.5 5.3 C 37.5 5.3 37.6 5.3 37.8 5.3 C 38 5.2 38.1 5.2 38.2 5.2 C 38.3 5.2 38.4 5.2 38.5 5.2 C 38.6 5.2 38.6 5.2 38.6 5.3 C 38.6 5.4 38.6 5.4 38.6 5.4 C 38.5 5.5 38.4 5.5 38.2 5.5 C 38.1 5.5 37.9 5.5 37.7 5.6 C 37.5 5.6 37.4 5.6 37.2 5.6 C 37.1 5.6 37.1 5.6 37.1 5.6 C 37 5.5 37 5.5 37 5.4 C 37 5.4 37 5.4 37 5.4 C 37 5.4 37 5.3 37 5.3 C 37.1 5.2 37.1 4.9 37.2 4.5 C 37.2 4.1 37.2 3.8 37.2 3.8 C 37.2 3.8 37.2 3.8 37.2 3.8 C 37.2 3.8 37.2 3.8 37.2 3.7 C 37.2 3.7 37.2 3.7 37.2 3.6 C 37.2 3.6 37.2 3.6 37.2 3.6 C 37.2 3.6 37.2 3.5 37.2 3.5 C 37.3 3.5 37.3 3.5 37.3 3.5 C 37.4 3.5 37.4 3.5 37.5 3.5 C 37.6 3.5 37.8 3.5 38.3 3.4 C 38.4 3.4 38.5 3.4 38.5 3.4 C 38.5 3.4 38.5 3.4 38.5 3.4 C 38.7 3.4 38.8 3.4 38.8 3.5 C 38.8 3.6 38.8 3.6 38.7 3.6 C 38.7 3.7 38.7 3.7 38.7 3.7 Z M 39.5 4.1 C 39.5 4.2 39.5 4.2 39.5 4.3 C 39.5 4.3 39.4 4.4 39.4 4.5 C 39.4 4.7 39.4 4.8 39.4 4.9 C 39.4 5 39.4 5.2 39.4 5.3 C 39.4 5.4 39.4 5.5 39.3 5.5 C 39.3 5.5 39.2 5.6 39.2 5.6 C 39.1 5.6 39.1 5.5 39 5.5 C 39 5.4 39 5.3 39 5.2 C 39 5.1 39 4.8 39.1 4.5 C 39.1 4.5 39.2 3.9 39.2 3.9 C 39.2 3.8 39.2 3.8 39.2 3.7 C 39.2 3.6 39.2 3.5 39.2 3.5 C 39.3 3.5 39.3 3.4 39.3 3.4 C 39.4 3.4 39.4 3.4 39.4 3.4 C 39.5 3.4 39.5 3.4 39.6 3.4 C 39.6 3.5 39.6 3.5 39.6 3.6 C 39.6 3.6 39.5 4.1 39.5 4.1 Z M 41.5 3.7 C 41.2 3.7 41.1 3.7 41 3.8 C 41 3.8 41 3.8 41 3.8 C 40.9 3.9 40.9 4 40.9 4.3 C 40.9 4.6 40.8 4.9 40.8 5.1 C 40.8 5.1 40.9 5.2 40.9 5.3 C 40.9 5.3 40.9 5.3 40.9 5.4 C 40.9 5.4 40.9 5.5 40.8 5.5 C 40.8 5.5 40.8 5.6 40.7 5.6 C 40.7 5.6 40.6 5.6 40.6 5.5 C 40.5 5.5 40.5 5.4 40.5 5.4 C 40.5 5.3 40.5 5.2 40.5 5.1 C 40.5 4.9 40.5 4.6 40.5 4.3 C 40.6 4 40.6 3.8 40.6 3.8 C 40.6 3.8 40.5 3.8 40.3 3.8 C 40.1 3.8 40 3.9 40 3.9 C 39.9 3.9 39.8 3.8 39.7 3.8 C 39.7 3.8 39.7 3.7 39.7 3.7 C 39.7 3.6 39.7 3.6 39.7 3.6 C 39.8 3.6 39.9 3.5 40.1 3.5 C 40.3 3.5 40.6 3.5 40.9 3.5 C 41.2 3.4 41.4 3.4 41.6 3.4 C 41.8 3.4 41.9 3.4 41.9 3.5 C 41.9 3.5 42 3.6 42 3.6 C 42 3.7 41.9 3.7 41.8 3.7 C 41.8 3.7 41.8 3.7 41.7 3.7 C 41.6 3.7 41.6 3.7 41.5 3.7 C 41.5 3.7 41.5 3.7 41.5 3.7 Z M 42.4 5.6 C 42.2 5.6 42.1 5.5 41.9 5.4 C 41.8 5.2 41.8 5.1 41.8 4.9 C 41.8 4.7 41.8 4.5 41.9 4.2 C 42.1 4 42.2 3.8 42.4 3.6 C 42.6 3.5 42.8 3.4 43 3.4 C 43.2 3.4 43.3 3.4 43.4 3.4 C 43.5 3.5 43.6 3.5 43.7 3.6 C 43.8 3.7 43.9 3.8 43.9 3.8 C 43.9 3.9 43.9 4 43.9 4.2 C 43.9 4.3 43.9 4.4 43.8 4.6 C 43.7 4.8 43.6 5 43.5 5.1 C 43.3 5.3 43.2 5.4 43 5.5 C 42.8 5.6 42.6 5.6 42.4 5.6 Z M 42.1 4.9 C 42.1 5 42.2 5.1 42.2 5.2 C 42.3 5.3 42.4 5.3 42.5 5.3 C 42.7 5.3 43 5.2 43.2 4.9 C 43.4 4.7 43.6 4.4 43.6 4.1 C 43.6 4 43.5 3.9 43.5 3.9 C 43.5 3.8 43.4 3.8 43.3 3.7 C 43.2 3.7 43.1 3.7 43 3.7 C 42.8 3.7 42.6 3.8 42.4 4.1 C 42.2 4.3 42.1 4.6 42.1 4.9 Z M 45.8 3.7 C 45.8 3.9 45.7 3.9 45.5 3.9 C 45.5 3.8 45.5 3.8 45.4 3.7 C 45.4 3.7 45.3 3.7 45.2 3.7 C 45 3.7 44.9 3.7 44.7 3.8 C 44.6 3.9 44.5 4 44.5 4.1 C 44.5 4.1 44.6 4.2 44.6 4.2 C 44.7 4.3 44.8 4.3 45 4.4 C 45.3 4.5 45.4 4.5 45.5 4.6 C 45.7 4.7 45.7 4.8 45.7 4.9 C 45.7 5.1 45.6 5.3 45.3 5.4 C 45 5.6 44.7 5.7 44.4 5.7 C 44.3 5.7 44.2 5.6 44.1 5.6 C 44.1 5.5 44.1 5.5 44.1 5.4 C 44.1 5.4 44.1 5.3 44.1 5.3 C 44.1 5.3 44.2 5.2 44.2 5.2 C 44.2 5.2 44.2 5.2 44.3 5.2 C 44.4 5.3 44.5 5.3 44.5 5.3 C 44.7 5.3 44.9 5.3 45.1 5.2 C 45.3 5.1 45.3 5 45.3 4.9 C 45.3 4.9 45.3 4.9 45.3 4.8 C 45.2 4.8 45.1 4.8 45 4.7 C 44.8 4.6 44.6 4.6 44.5 4.5 C 44.4 4.5 44.3 4.4 44.3 4.4 C 44.2 4.3 44.2 4.2 44.2 4.1 C 44.2 3.9 44.3 3.8 44.5 3.6 C 44.7 3.4 45 3.4 45.3 3.4 C 45.4 3.4 45.5 3.4 45.6 3.5 C 45.7 3.5 45.8 3.6 45.8 3.7 C 45.8 3.7 45.8 3.7 45.8 3.7 Z M 46.1 5.5 C 46.1 5.5 46 5.5 46 5.4 C 46 5.4 45.9 5.4 45.9 5.3 C 45.9 5.2 45.9 5.2 45.9 5.1 C 46 5.1 46 5.1 46 5.1 C 46.1 5.1 46.1 5 46.2 5 C 46.3 5 46.3 5.1 46.3 5.1 C 46.4 5.1 46.4 5.1 46.4 5.2 C 46.4 5.2 46.4 5.3 46.4 5.3 C 46.3 5.3 46.3 5.4 46.2 5.4 C 46.2 5.5 46.1 5.5 46.1 5.5 Z M 46.8 5.5 C 46.7 5.5 46.7 5.5 46.7 5.4 C 46.6 5.4 46.6 5.4 46.6 5.3 C 46.6 5.2 46.6 5.2 46.6 5.1 C 46.6 5.1 46.7 5.1 46.7 5.1 C 46.7 5.1 46.8 5 46.9 5 C 46.9 5 47 5.1 47 5.1 C 47.1 5.1 47.1 5.1 47.1 5.2 C 47.1 5.2 47.1 5.3 47 5.3 C 47 5.3 47 5.4 46.9 5.4 C 46.9 5.5 46.8 5.5 46.8 5.5 Z M 47.5 5.5 C 47.4 5.5 47.4 5.5 47.4 5.4 C 47.3 5.4 47.3 5.4 47.3 5.3 C 47.3 5.2 47.3 5.2 47.3 5.1 C 47.3 5.1 47.3 5.1 47.4 5.1 C 47.4 5.1 47.5 5 47.6 5 C 47.6 5 47.7 5.1 47.7 5.1 C 47.7 5.1 47.8 5.1 47.8 5.2 C 47.8 5.2 47.7 5.3 47.7 5.3 C 47.7 5.3 47.7 5.4 47.6 5.4 C 47.6 5.5 47.5 5.5 47.5 5.5 Z " stroke="none" fill="#000"/>  </g></svg>