<?xml version="1.0" standalone="no"?><!DOCTYPE svg PUBLIC "-//W3C//DTD SVG 1.1//EN" "http://www.w3.org/Graphics/SVG/1.1/DTD/svg11.dtd"><svg xmlns="http://www.w3.org/2000/svg" version="1.1" width="320px" height="107.2px" viewBox="0 -14 320 107.2" style="top:-14px">  <desc>VOTO DISTRITAL PURO A VERDADEIRA DEMOCRACIA</desc>  <defs/>  <g id="Polygon12401">    <path d="M 7.3 72.2 C 7.1 72.2 6.9 72.2 6.8 72 C 6.6 72.3 6.3 72.9 5.7 73.8 C 5.2 74.8 4.8 75.3 4.6 75.4 C 4.3 75.5 4.1 75.6 4 75.6 C 3.7 75.6 3.4 75.4 3.1 75.2 C 2.8 74.9 2.6 74.7 2.6 74.4 C 2.6 74.1 3.4 72.8 5.1 70.3 C 6 68.9 6.8 67.6 7.5 66.2 C 9 63.5 9.9 62 10.2 61.5 C 10.6 61.1 10.9 60.9 11.2 60.9 C 11.8 60.9 12.2 61 12.4 61.3 C 12.6 61.4 12.6 61.6 12.6 62 C 12.6 62.2 12.6 62.4 12.6 62.6 C 13.8 66.2 14.7 68.8 15.4 70.3 C 16 71.8 16.7 72.9 17.4 73.6 C 17.7 73.9 17.9 74.1 18 74.2 C 18.1 74.4 18.1 74.5 18.1 74.7 C 18.1 75.1 18 75.4 17.7 75.6 C 17.5 75.9 17.2 76 16.8 76 C 16.3 76 15.8 75.7 15.3 75.1 C 14.8 74.5 14.3 73.8 13.8 72.8 C 13.4 71.8 13.2 71.2 13.2 71.1 C 13.2 71 13.1 71 13.1 71 C 12.8 71 12 71.2 10.8 71.4 C 9.6 71.6 8.6 71.9 7.8 72.1 C 7.7 72.2 7.5 72.2 7.3 72.2 C 7.3 72.2 7.3 72.2 7.3 72.2 Z M 11.5 69.2 C 11.8 69.1 12.1 69.1 12.4 69 C 12.2 68.7 11.8 67.3 11 64.9 C 10.9 64.7 10.9 64.6 10.8 64.5 C 10.8 64.5 8.1 69.8 8.1 69.8 C 8.5 69.7 8.9 69.7 9.3 69.6 C 9.6 69.6 10.4 69.4 11.5 69.2 C 11.5 69.2 11.5 69.2 11.5 69.2 Z M 42.1 61.7 C 42.1 61.7 42.1 61.8 42.1 61.8 C 42.2 61.8 41.9 62.2 41.4 62.9 C 40.7 64 40.1 64.9 39.6 65.6 C 39.2 66.3 38.3 67.7 37.1 69.7 C 36.4 71 35.9 71.8 35.7 72.1 C 35.1 73 34.7 73.7 34.6 74.2 C 34.5 74.5 34.2 74.8 33.9 75 C 33.5 75.2 33.1 75.3 32.6 75.3 C 32.4 75.3 32.2 75.1 32 74.8 C 31.8 74.4 31.6 73.8 31.2 72.9 C 30.8 71.8 30.3 70.4 29.6 68.6 C 28 64.8 27.3 62.9 27.3 62.7 C 27.3 62.5 27.4 62.2 27.6 61.8 C 27.9 61.4 28.2 61.2 28.6 61.2 C 28.9 61.2 29.2 61.3 29.5 61.5 C 29.7 61.8 29.9 62.4 30.1 63.5 C 30.3 64.2 30.8 65.6 31.5 67.6 C 32.3 69.6 32.9 71.1 33.4 72.1 C 33.5 71.9 33.7 71.6 34 70.9 C 34.1 70.8 34.2 70.7 34.2 70.7 C 35.1 69.2 35.8 67.9 36.4 66.8 C 37.5 64.7 38.5 63.1 39.2 62.1 C 39.9 61.1 40.6 60.6 41.1 60.6 C 41.8 60.6 42.1 60.9 42.1 61.6 C 42.15 61.63 42.1 61.7 42.1 61.7 C 42.1 61.7 42.15 61.71 42.1 61.7 Z M 53.1 63.1 C 53.1 63.1 50.1 63.2 50.1 63.2 C 49.1 63.3 48.2 63.4 47.4 63.5 C 46.6 63.6 46.2 63.7 46.2 63.8 C 46.1 63.9 46.1 64.1 46 64.4 C 46 64.7 45.9 65.3 45.7 66.1 C 45.5 66.8 45.4 67.3 45.4 67.7 C 45.8 67.7 46.4 67.6 47.2 67.5 C 48 67.4 48.5 67.4 48.9 67.3 C 49.8 67.1 50.5 66.9 51 66.9 C 52.1 66.9 52.6 67.3 52.6 67.9 C 52.6 68.3 52.4 68.6 52.1 68.8 C 51.9 69 51.4 69.1 50.8 69.2 C 50.4 69.2 50 69.3 49.5 69.3 C 49.3 69.4 49 69.4 48.6 69.4 C 46.8 69.7 45.7 69.8 45.4 69.9 C 45.4 69.9 45.4 69.9 45.4 69.9 C 45.3 70 45.2 70 45.2 70.2 C 45.1 70.3 45 70.8 44.9 71.6 C 44.7 72.5 44.6 73.1 44.6 73.4 C 44.7 73.6 44.8 73.8 45.1 73.8 C 45.4 73.8 46.2 73.7 47.6 73.5 C 48.9 73.3 49.7 73.2 50 73.1 C 50.9 72.9 51.5 72.9 51.8 72.9 C 52.6 73 53 73.4 53 74 C 53 74.3 52.9 74.5 52.7 74.7 C 52.1 75 51.2 75.2 50 75.2 C 49.1 75.3 48 75.4 46.8 75.6 C 45.6 75.8 44.6 75.9 43.6 75.9 C 43 75.9 42.7 75.8 42.4 75.6 C 42.2 75.4 42.1 75 42 74.5 C 42 74.5 42 74.2 42 74.2 C 42 74.2 42 74 42.1 73.6 C 42.4 72.8 42.7 71 43.1 68.3 C 43.5 65.5 43.7 64 43.7 63.7 C 43.7 63.7 43.7 63.6 43.6 63.6 C 43.6 63.6 43.5 63.4 43.4 63.2 C 43.3 63 43.2 62.8 43.2 62.6 C 43.2 62.5 43.2 62.4 43.3 62.3 C 43.3 62.2 43.4 62 43.7 61.9 C 43.9 61.7 44.2 61.7 44.4 61.7 C 44.7 61.7 45 61.7 45.3 61.7 C 45.9 61.7 47.6 61.5 50.6 61.1 C 51.6 61 52.1 60.9 52.1 60.9 C 52.1 60.9 52.3 60.9 52.3 60.9 C 53.5 60.9 54 61.2 54 62.1 C 54 62.2 53.9 62.4 53.7 62.7 C 53.5 62.9 53.3 63 53.1 63.1 Z M 57 63.4 C 57 63.4 56.86 63.2 56.9 63.2 C 56.6 62.9 56.5 62.6 56.5 62.5 C 56.5 62.2 56.7 61.9 57 61.7 C 57.3 61.4 57.6 61.3 57.9 61.3 C 58 61.3 58.2 61.3 58.3 61.3 C 58.5 61.4 58.6 61.4 58.7 61.4 C 60.6 61.1 61.9 60.9 62.7 60.9 C 64.2 60.9 65.3 61.3 66.2 62 C 67 62.6 67.4 63.5 67.4 64.5 C 67.4 65.5 67 66.4 66.2 67.2 C 65.3 68.1 64.2 68.8 62.8 69.4 C 65.2 71.3 66.9 72.5 68.1 73.2 C 68.5 73.5 68.8 73.8 68.8 74.2 C 68.8 74.5 68.6 74.7 68.3 75 C 68 75.3 67.7 75.4 67.5 75.4 C 67.1 75.4 66.7 75.2 66.2 74.9 C 65.7 74.6 65 74.1 64.1 73.4 C 63.3 72.7 62.8 72.2 62.6 72.1 C 61.4 71.1 60.5 70.4 59.9 70.1 C 59.3 70.1 58.9 69.7 58.9 69 C 58.9 68.7 59.1 68.4 59.4 68.2 C 59.7 68 60 67.9 60.4 67.9 C 60.5 67.9 60.6 67.9 60.8 67.9 C 60.9 67.9 61 68 61 68 C 61.5 68 62.2 67.6 63.3 66.9 C 64.5 66.2 65 65.4 65 64.5 C 65 64 64.8 63.7 64.3 63.3 C 63.9 63 63.3 62.8 62.5 62.8 C 61.7 62.8 61 62.9 60.4 63 C 59.9 63.1 59.6 63.2 59.6 63.2 C 59.5 63.3 59.5 63.4 59.4 63.5 C 59.3 63.7 59.2 64.4 59 65.5 C 58.7 66.7 58.5 68 58.4 69.4 C 58.2 70.8 58.1 71.8 58.1 72.5 C 58.1 72.9 58.1 73.3 58.2 73.6 C 58.2 74 58.3 74.3 58.3 74.5 C 58.3 74.8 58.1 75 57.9 75.3 C 57.6 75.6 57.3 75.7 57 75.7 C 56 75.7 55.6 75.1 55.6 73.8 C 55.6 72.8 55.7 71.4 55.9 69.5 C 56.2 67.7 56.4 66.1 56.7 64.7 C 56.8 64.5 56.8 64.3 56.8 64.1 C 56.85 64.12 57 63.4 57 63.4 Z M 70.7 73.6 C 70.8 73.3 70.8 72.7 70.8 71.9 C 71 69.6 71.3 67.3 71.7 64.8 C 71.8 64.3 71.8 63.9 71.8 63.6 C 71.8 63.5 71.8 63.4 71.7 63.4 C 71 63.2 70.7 62.9 70.7 62.5 C 70.7 62.2 70.8 61.9 71.1 61.6 C 71.4 61.3 71.7 61.2 72 61.2 C 72 61.2 73.3 61.2 73.3 61.2 C 73.9 61.2 74.7 61.2 75.8 61.1 C 76.7 61 77.4 61 77.9 61 C 79.8 61 81.2 61.5 82.4 62.5 C 83.5 63.5 84 64.9 84 66.5 C 84 68.4 83.2 70.1 81.4 71.6 C 79.7 73.1 77.6 74.2 75.2 74.7 C 74.5 74.9 74 75 73.8 75.1 C 73.5 75.2 73.2 75.4 72.8 75.6 C 72.4 75.9 72 76.1 71.5 76.1 C 71.2 76.1 70.9 75.9 70.6 75.6 C 70.4 75.3 70.3 75 70.3 74.8 C 70.3 74.7 70.3 74.5 70.5 74.2 C 70.5 74.2 70.7 73.6 70.7 73.6 Z M 73.2 72.4 C 73.2 72.8 73.2 73 73.2 73.1 C 73.6 73.1 74.6 72.9 76.2 72.4 C 77.8 71.9 79.2 71.1 80.2 70 C 81.2 69 81.7 67.8 81.7 66.5 C 81.7 65.4 81.3 64.5 80.6 63.9 C 79.8 63.3 78.8 62.9 77.6 62.9 C 76.8 62.9 75.8 63 74.6 63.2 C 74.4 63.2 74.3 63.2 74.2 63.2 C 73.5 67.6 73.2 70.6 73.2 72.4 C 73.2 72.4 73.2 72.4 73.2 72.4 Z M 88.4 72.2 C 88.2 72.2 88 72.2 87.8 72 C 87.7 72.3 87.4 72.9 86.8 73.8 C 86.2 74.8 85.8 75.3 85.6 75.4 C 85.4 75.5 85.2 75.6 85 75.6 C 84.8 75.6 84.5 75.4 84.2 75.2 C 83.9 74.9 83.7 74.7 83.7 74.4 C 83.7 74.1 84.5 72.8 86.1 70.3 C 87 68.9 87.8 67.6 88.6 66.2 C 90.1 63.5 91 62 91.3 61.5 C 91.6 61.1 92 60.9 92.3 60.9 C 92.9 60.9 93.3 61 93.5 61.3 C 93.6 61.4 93.7 61.6 93.7 62 C 93.7 62.2 93.7 62.4 93.6 62.6 C 94.8 66.2 95.7 68.8 96.4 70.3 C 97.1 71.8 97.8 72.9 98.4 73.6 C 98.8 73.9 99 74.1 99.1 74.2 C 99.1 74.4 99.2 74.5 99.2 74.7 C 99.2 75.1 99 75.4 98.8 75.6 C 98.5 75.9 98.2 76 97.9 76 C 97.4 76 96.9 75.7 96.4 75.1 C 95.8 74.5 95.4 73.8 94.9 72.8 C 94.5 71.8 94.2 71.2 94.2 71.1 C 94.2 71 94.2 71 94.2 71 C 93.8 71 93 71.2 91.8 71.4 C 90.6 71.6 89.6 71.9 88.9 72.1 C 88.7 72.2 88.6 72.2 88.4 72.2 C 88.4 72.2 88.4 72.2 88.4 72.2 Z M 92.6 69.2 C 92.9 69.1 93.2 69.1 93.4 69 C 93.3 68.7 92.8 67.3 92.1 64.9 C 92 64.7 91.9 64.6 91.9 64.5 C 91.9 64.5 89.1 69.8 89.1 69.8 C 89.6 69.7 90 69.7 90.4 69.6 C 90.7 69.6 91.4 69.4 92.6 69.2 C 92.6 69.2 92.6 69.2 92.6 69.2 Z M 101.3 73.6 C 101.3 73.3 101.4 72.7 101.4 71.9 C 101.6 69.6 101.9 67.3 102.3 64.8 C 102.4 64.3 102.4 63.9 102.4 63.6 C 102.4 63.5 102.4 63.4 102.3 63.4 C 101.6 63.2 101.2 62.9 101.2 62.5 C 101.2 62.2 101.4 61.9 101.7 61.6 C 101.9 61.3 102.2 61.2 102.6 61.2 C 102.6 61.2 103.9 61.2 103.9 61.2 C 104.5 61.2 105.3 61.2 106.3 61.1 C 107.2 61 108 61 108.5 61 C 110.3 61 111.8 61.5 112.9 62.5 C 114.1 63.5 114.6 64.9 114.6 66.5 C 114.6 68.4 113.8 70.1 112 71.6 C 110.3 73.1 108.2 74.2 105.7 74.7 C 105.1 74.9 104.6 75 104.4 75.1 C 104.1 75.2 103.8 75.4 103.4 75.6 C 103 75.9 102.5 76.1 102.1 76.1 C 101.8 76.1 101.5 75.9 101.2 75.6 C 101 75.3 100.8 75 100.8 74.8 C 100.8 74.7 100.9 74.5 101 74.2 C 101 74.2 101.3 73.6 101.3 73.6 Z M 103.8 72.4 C 103.8 72.8 103.8 73 103.8 73.1 C 104.2 73.1 105.1 72.9 106.8 72.4 C 108.4 71.9 109.7 71.1 110.7 70 C 111.8 69 112.3 67.8 112.3 66.5 C 112.3 65.4 111.9 64.5 111.1 63.9 C 110.4 63.3 109.4 62.9 108.2 62.9 C 107.4 62.9 106.3 63 105.2 63.2 C 105 63.2 104.9 63.2 104.8 63.2 C 104.1 67.6 103.8 70.6 103.8 72.4 C 103.8 72.4 103.8 72.4 103.8 72.4 Z M 127.7 63.1 C 127.7 63.1 124.7 63.2 124.7 63.2 C 123.7 63.3 122.8 63.4 122 63.5 C 121.3 63.6 120.8 63.7 120.8 63.8 C 120.7 63.9 120.7 64.1 120.7 64.4 C 120.6 64.7 120.5 65.3 120.3 66.1 C 120.1 66.8 120 67.3 120 67.7 C 120.4 67.7 121 67.6 121.8 67.5 C 122.6 67.4 123.1 67.4 123.5 67.3 C 124.4 67.1 125.1 66.9 125.6 66.9 C 126.7 66.9 127.2 67.3 127.2 67.9 C 127.2 68.3 127 68.6 126.8 68.8 C 126.5 69 126 69.1 125.4 69.2 C 125 69.2 124.6 69.3 124.1 69.3 C 123.9 69.4 123.6 69.4 123.2 69.4 C 121.4 69.7 120.3 69.8 120 69.9 C 120 69.9 120 69.9 120 69.9 C 119.9 70 119.8 70 119.8 70.2 C 119.7 70.3 119.6 70.8 119.5 71.6 C 119.3 72.5 119.2 73.1 119.2 73.4 C 119.3 73.6 119.4 73.8 119.7 73.8 C 120 73.8 120.8 73.7 122.2 73.5 C 123.5 73.3 124.3 73.2 124.6 73.1 C 125.5 72.9 126.1 72.9 126.4 72.9 C 127.2 73 127.6 73.4 127.6 74 C 127.6 74.3 127.5 74.5 127.3 74.7 C 126.7 75 125.8 75.2 124.6 75.2 C 123.7 75.3 122.7 75.4 121.4 75.6 C 120.3 75.8 119.2 75.9 118.2 75.9 C 117.7 75.9 117.3 75.8 117 75.6 C 116.8 75.4 116.7 75 116.6 74.5 C 116.6 74.5 116.6 74.2 116.6 74.2 C 116.6 74.2 116.6 74 116.8 73.6 C 117 72.8 117.3 71 117.7 68.3 C 118.1 65.5 118.3 64 118.3 63.7 C 118.3 63.7 118.3 63.6 118.2 63.6 C 118.2 63.6 118.1 63.4 118 63.2 C 117.9 63 117.8 62.8 117.8 62.6 C 117.8 62.5 117.8 62.4 117.9 62.3 C 117.9 62.2 118 62 118.3 61.9 C 118.5 61.7 118.8 61.7 119 61.7 C 119.3 61.7 119.6 61.7 119.9 61.7 C 120.5 61.7 122.2 61.5 125.2 61.1 C 126.2 61 126.7 60.9 126.8 60.9 C 126.8 60.9 126.9 60.9 126.9 60.9 C 128.1 60.9 128.7 61.2 128.7 62.1 C 128.7 62.2 128.5 62.4 128.3 62.7 C 128.1 62.9 127.9 63 127.7 63.1 Z M 133.7 65.5 C 133.6 66.1 133.5 66.6 133.4 66.9 C 133.4 67.1 133.4 67.6 133.2 68.4 C 133 69.8 132.9 70.7 132.9 71.2 C 132.9 72.1 133 72.9 133.1 73.8 C 133.2 74.4 133 74.8 132.7 75.1 C 132.4 75.4 132.1 75.5 131.7 75.5 C 131.3 75.5 130.9 75.3 130.7 74.9 C 130.5 74.5 130.4 73.8 130.4 72.8 C 130.4 72.2 130.6 70.7 130.9 68.4 C 130.9 68.4 131.4 64.6 131.4 64.6 C 131.6 64.1 131.6 63.5 131.7 63.1 C 131.8 62.3 131.9 61.9 132 61.7 C 132.1 61.6 132.3 61.4 132.6 61.2 C 132.9 61 133.1 60.9 133.3 60.9 C 133.6 60.9 133.9 61.1 134.1 61.4 C 134.3 61.7 134.4 62.1 134.4 62.5 C 134.4 62.5 133.7 65.5 133.7 65.5 Z M 137.9 63.4 C 137.9 63.4 137.76 63.2 137.8 63.2 C 137.6 62.9 137.5 62.6 137.5 62.5 C 137.5 62.2 137.6 61.9 137.9 61.7 C 138.2 61.4 138.5 61.3 138.8 61.3 C 138.9 61.3 139.1 61.3 139.2 61.3 C 139.4 61.4 139.5 61.4 139.6 61.4 C 141.5 61.1 142.8 60.9 143.6 60.9 C 145.1 60.9 146.2 61.3 147.1 62 C 147.9 62.6 148.3 63.5 148.3 64.5 C 148.3 65.5 147.9 66.4 147.1 67.2 C 146.3 68.1 145.1 68.8 143.8 69.4 C 146.1 71.3 147.8 72.5 149 73.2 C 149.4 73.5 149.7 73.8 149.7 74.2 C 149.7 74.5 149.5 74.7 149.2 75 C 148.9 75.3 148.6 75.4 148.4 75.4 C 148 75.4 147.6 75.2 147.1 74.9 C 146.6 74.6 145.9 74.1 145 73.4 C 144.2 72.7 143.7 72.2 143.5 72.1 C 142.3 71.1 141.4 70.4 140.8 70.1 C 140.2 70.1 139.8 69.7 139.8 69 C 139.8 68.7 140 68.4 140.3 68.2 C 140.6 68 140.9 67.9 141.3 67.9 C 141.4 67.9 141.5 67.9 141.7 67.9 C 141.8 67.9 141.9 68 141.9 68 C 142.4 68 143.1 67.6 144.3 66.9 C 145.4 66.2 145.9 65.4 145.9 64.5 C 145.9 64 145.7 63.7 145.2 63.3 C 144.8 63 144.2 62.8 143.4 62.8 C 142.6 62.8 141.9 62.9 141.3 63 C 140.8 63.1 140.5 63.2 140.5 63.2 C 140.4 63.3 140.4 63.4 140.3 63.5 C 140.2 63.7 140.1 64.4 139.9 65.5 C 139.6 66.7 139.4 68 139.3 69.4 C 139.1 70.8 139 71.8 139 72.5 C 139 72.9 139 73.3 139.1 73.6 C 139.2 74 139.2 74.3 139.2 74.5 C 139.2 74.8 139 75 138.8 75.3 C 138.5 75.6 138.2 75.7 137.9 75.7 C 137 75.7 136.5 75.1 136.5 73.8 C 136.5 72.8 136.6 71.4 136.8 69.5 C 137.1 67.7 137.3 66.1 137.6 64.7 C 137.7 64.5 137.7 64.3 137.8 64.1 C 137.75 64.12 137.9 63.4 137.9 63.4 Z M 154.2 72.2 C 154 72.2 153.8 72.2 153.7 72 C 153.6 72.3 153.2 72.9 152.6 73.8 C 152.1 74.8 151.7 75.3 151.5 75.4 C 151.2 75.5 151 75.6 150.9 75.6 C 150.6 75.6 150.4 75.4 150 75.2 C 149.7 74.9 149.5 74.7 149.5 74.4 C 149.5 74.1 150.3 72.8 152 70.3 C 152.9 68.9 153.7 67.6 154.4 66.2 C 155.9 63.5 156.8 62 157.1 61.5 C 157.5 61.1 157.8 60.9 158.1 60.9 C 158.7 60.9 159.1 61 159.3 61.3 C 159.5 61.4 159.5 61.6 159.5 62 C 159.5 62.2 159.5 62.4 159.5 62.6 C 160.7 66.2 161.6 68.8 162.3 70.3 C 162.9 71.8 163.6 72.9 164.3 73.6 C 164.6 73.9 164.8 74.1 164.9 74.2 C 165 74.4 165 74.5 165 74.7 C 165 75.1 164.9 75.4 164.6 75.6 C 164.4 75.9 164.1 76 163.7 76 C 163.2 76 162.7 75.7 162.2 75.1 C 161.7 74.5 161.2 73.8 160.7 72.8 C 160.3 71.8 160.1 71.2 160.1 71.1 C 160.1 71 160.1 71 160 71 C 159.7 71 158.9 71.2 157.7 71.4 C 156.5 71.6 155.5 71.9 154.7 72.1 C 154.6 72.2 154.4 72.2 154.2 72.2 C 154.2 72.2 154.2 72.2 154.2 72.2 Z M 158.4 69.2 C 158.7 69.1 159 69.1 159.3 69 C 159.1 68.7 158.7 67.3 157.9 64.9 C 157.8 64.7 157.8 64.6 157.8 64.5 C 157.8 64.5 155 69.8 155 69.8 C 155.4 69.7 155.8 69.7 156.2 69.6 C 156.5 69.6 157.3 69.4 158.4 69.2 C 158.4 69.2 158.4 69.2 158.4 69.2 Z M 175.1 73.6 C 175.2 73.3 175.2 72.7 175.3 71.9 C 175.4 69.6 175.7 67.3 176.1 64.8 C 176.2 64.3 176.3 63.9 176.3 63.6 C 176.3 63.5 176.2 63.4 176.1 63.4 C 175.4 63.2 175.1 62.9 175.1 62.5 C 175.1 62.2 175.2 61.9 175.5 61.6 C 175.8 61.3 176.1 61.2 176.4 61.2 C 176.4 61.2 177.7 61.2 177.7 61.2 C 178.3 61.2 179.1 61.2 180.2 61.1 C 181.1 61 181.8 61 182.4 61 C 184.2 61 185.6 61.5 186.8 62.5 C 187.9 63.5 188.5 64.9 188.5 66.5 C 188.5 68.4 187.6 70.1 185.9 71.6 C 184.1 73.1 182 74.2 179.6 74.7 C 178.9 74.9 178.5 75 178.2 75.1 C 177.9 75.2 177.6 75.4 177.3 75.6 C 176.8 75.9 176.4 76.1 175.9 76.1 C 175.6 76.1 175.3 75.9 175.1 75.6 C 174.8 75.3 174.7 75 174.7 74.8 C 174.7 74.7 174.7 74.5 174.9 74.2 C 174.9 74.2 175.1 73.6 175.1 73.6 Z M 177.6 72.4 C 177.6 72.8 177.6 73 177.6 73.1 C 178 73.1 179 72.9 180.6 72.4 C 182.2 71.9 183.6 71.1 184.6 70 C 185.6 69 186.1 67.8 186.1 66.5 C 186.1 65.4 185.7 64.5 185 63.9 C 184.2 63.3 183.2 62.9 182 62.9 C 181.2 62.9 180.2 63 179 63.2 C 178.9 63.2 178.7 63.2 178.7 63.2 C 177.9 67.6 177.6 70.6 177.6 72.4 C 177.6 72.4 177.6 72.4 177.6 72.4 Z M 201.6 63.1 C 201.6 63.1 198.6 63.2 198.6 63.2 C 197.5 63.3 196.6 63.4 195.8 63.5 C 195.1 63.6 194.7 63.7 194.6 63.8 C 194.6 63.9 194.5 64.1 194.5 64.4 C 194.5 64.7 194.3 65.3 194.1 66.1 C 194 66.8 193.9 67.3 193.8 67.7 C 194.3 67.7 194.9 67.6 195.6 67.5 C 196.4 67.4 197 67.4 197.3 67.3 C 198.2 67.1 199 66.9 199.5 66.9 C 200.5 66.9 201 67.3 201 67.9 C 201 68.3 200.9 68.6 200.6 68.8 C 200.3 69 199.9 69.1 199.2 69.2 C 198.9 69.2 198.4 69.3 198 69.3 C 197.7 69.4 197.4 69.4 197.1 69.4 C 195.2 69.7 194.2 69.8 193.9 69.9 C 193.9 69.9 193.8 69.9 193.8 69.9 C 193.7 70 193.7 70 193.6 70.2 C 193.5 70.3 193.4 70.8 193.3 71.6 C 193.2 72.5 193.1 73.1 193.1 73.4 C 193.1 73.6 193.3 73.8 193.5 73.8 C 193.8 73.8 194.7 73.7 196 73.5 C 197.3 73.3 198.2 73.2 198.5 73.1 C 199.4 72.9 200 72.9 200.2 72.9 C 201.1 73 201.5 73.4 201.5 74 C 201.5 74.3 201.4 74.5 201.2 74.7 C 200.5 75 199.6 75.2 198.5 75.2 C 197.6 75.3 196.5 75.4 195.2 75.6 C 194.1 75.8 193 75.9 192 75.9 C 191.5 75.9 191.1 75.8 190.9 75.6 C 190.6 75.4 190.5 75 190.5 74.5 C 190.5 74.5 190.4 74.2 190.4 74.2 C 190.4 74.2 190.5 74 190.6 73.6 C 190.9 72.8 191.2 71 191.6 68.3 C 191.9 65.5 192.1 64 192.1 63.7 C 192.1 63.7 192.1 63.6 192.1 63.6 C 192 63.6 191.9 63.4 191.8 63.2 C 191.7 63 191.7 62.8 191.7 62.6 C 191.7 62.5 191.7 62.4 191.7 62.3 C 191.7 62.2 191.9 62 192.1 61.9 C 192.4 61.7 192.6 61.7 192.8 61.7 C 193.1 61.7 193.5 61.7 193.8 61.7 C 194.3 61.7 196.1 61.5 199 61.1 C 200 61 200.6 60.9 200.6 60.9 C 200.6 60.9 200.7 60.9 200.7 60.9 C 201.9 60.9 202.5 61.2 202.5 62.1 C 202.5 62.2 202.4 62.4 202.2 62.7 C 202 62.9 201.8 63 201.6 63.1 Z M 217.7 65.1 C 217.8 64.8 217.8 64.6 217.9 64.4 C 217.9 64.4 214.6 68.8 214.6 68.8 C 213.1 70.9 211.9 72 211.1 72 C 210.8 72 210.4 71.8 210.1 71.3 C 209.8 70.9 209.5 70.2 209.2 69.4 C 208.9 68.5 208.7 67.8 208.6 67.3 C 208.3 66.3 208.1 65.7 208 65.5 C 208 65.5 207.5 68.1 207.5 68.1 C 207.4 68.9 207.2 69.7 207 70.3 C 206.9 71 206.7 71.9 206.5 72.8 C 206.3 73.8 206.2 74.5 206.2 75 C 206.1 75.2 206 75.3 205.7 75.5 C 205.4 75.7 205.2 75.8 205 75.8 C 204.7 75.8 204.4 75.7 204.1 75.4 C 203.9 75.1 203.7 74.8 203.7 74.5 C 203.7 73.9 203.9 73.1 204.1 72.2 C 205.2 68.2 205.8 65.7 206 64.7 C 206.1 63.7 206.2 62.8 206.2 62.2 C 206.2 61.8 206.3 61.5 206.7 61.3 C 207 61.2 207.4 61.1 207.9 61.1 C 208.1 61.1 208.4 61.2 208.7 61.6 C 208.9 61.9 209.1 62.3 209.2 62.6 C 209.18 62.57 209.2 62.6 209.2 62.6 C 209.2 62.6 210.53 66.35 210.5 66.3 C 211.1 67.9 211.4 68.8 211.6 69.2 C 212.3 68.5 213.4 67.2 214.7 65.3 C 216.1 63.4 217.1 62.2 217.6 61.6 C 218.1 61.1 218.4 60.8 218.6 60.8 C 219 60.8 219.3 61 219.7 61.2 C 220.1 61.5 220.3 61.7 220.3 61.9 C 220.3 62 220.2 63 219.9 64.8 C 219.7 66.1 219.6 67.6 219.4 69.2 C 219.3 70.7 219.2 71.7 219.2 72 C 219.2 72.3 219.3 72.7 219.4 73 C 219.4 73.3 219.5 73.6 219.5 73.9 C 219.5 74.5 219.3 74.9 219.1 75.2 C 218.9 75.4 218.5 75.5 218.1 75.5 C 217.2 75.5 216.8 74.9 216.8 73.6 C 216.8 72.4 216.9 70.9 217.1 69.2 C 217.4 67.4 217.6 66.1 217.7 65.1 C 217.7 65.1 217.7 65.1 217.7 65.1 Z M 226.8 75.9 C 225.7 75.9 224.7 75.3 223.9 74.3 C 223 73.2 222.6 72.1 222.6 71 C 222.6 69.7 223 68.2 223.8 66.5 C 224.6 64.9 225.7 63.5 227 62.5 C 228.2 61.4 229.6 60.9 231 60.9 C 232.1 60.9 233 61 233.7 61.3 C 234.4 61.6 235 61.9 235.6 62.4 C 236.2 62.9 236.6 63.5 236.8 64 C 237 64.5 237.1 65.3 237.1 66.2 C 237.1 67 236.9 68 236.3 69.2 C 235.8 70.4 235 71.5 234 72.6 C 233 73.6 232 74.4 230.9 75 C 229.9 75.6 228.5 75.9 226.8 75.9 Z M 225.1 70.9 C 225.1 71.7 225.3 72.4 225.8 72.9 C 226.2 73.4 226.8 73.7 227.4 73.7 C 229.2 73.7 230.8 72.9 232.3 71.2 C 233.9 69.5 234.6 67.7 234.6 65.9 C 234.6 65.2 234.5 64.7 234.2 64.3 C 234 63.8 233.6 63.5 232.9 63.2 C 232.3 63 231.7 62.8 231 62.8 C 229.7 62.8 228.4 63.7 227.1 65.6 C 225.7 67.4 225.1 69.2 225.1 70.9 Z M 247.6 72.5 C 248.3 72 248.7 71.8 249 71.8 C 249.4 71.8 249.7 72 249.7 72.5 C 249.7 73.1 249 73.9 247.5 74.7 C 246.1 75.6 244.7 76 243.4 76 C 242.2 76 241.1 75.7 240.1 74.9 C 239.1 74.1 238.6 73 238.6 71.5 C 238.6 70 239.1 68.3 240.2 66.5 C 241.2 64.6 242.5 63.1 244 62 C 245.6 60.8 247.1 60.2 248.6 60.2 C 249.4 60.2 250.1 60.5 250.6 61 C 251.2 61.5 251.4 62.1 251.4 62.8 C 251.4 63.6 251.4 64.1 251.3 64.5 C 251.1 64.8 250.9 65.1 250.5 65.3 C 250.1 65.5 249.8 65.7 249.6 65.7 C 249.3 65.7 249.1 65.6 248.9 65.4 C 248.7 65.2 248.6 65 248.6 64.7 C 248.6 64.5 248.7 64.2 248.8 63.8 C 248.9 63.4 249 63 249 62.8 C 249 62.3 248.8 62.1 248.5 62.1 C 247.6 62.1 246.5 62.6 245.4 63.6 C 244.2 64.6 243.2 65.9 242.4 67.3 C 241.5 68.8 241.1 70.1 241.1 71.3 C 241.1 72 241.3 72.7 241.8 73.2 C 242.2 73.7 242.8 74 243.7 74 C 244.2 74 244.8 73.8 245.6 73.6 C 246.3 73.3 247 72.9 247.6 72.5 C 247.6 72.5 247.6 72.5 247.6 72.5 Z M 254.3 63.4 C 254.3 63.4 254.17 63.2 254.2 63.2 C 254 62.9 253.9 62.6 253.9 62.5 C 253.9 62.2 254 61.9 254.3 61.7 C 254.7 61.4 254.9 61.3 255.2 61.3 C 255.3 61.3 255.5 61.3 255.7 61.3 C 255.8 61.4 255.9 61.4 256 61.4 C 257.9 61.1 259.3 60.9 260 60.9 C 261.5 60.9 262.6 61.3 263.5 62 C 264.3 62.6 264.7 63.5 264.7 64.5 C 264.7 65.5 264.3 66.4 263.5 67.2 C 262.7 68.1 261.5 68.8 260.2 69.4 C 262.5 71.3 264.2 72.5 265.4 73.2 C 265.9 73.5 266.1 73.8 266.1 74.2 C 266.1 74.5 265.9 74.7 265.6 75 C 265.3 75.3 265 75.4 264.8 75.4 C 264.4 75.4 264 75.2 263.5 74.9 C 263 74.6 262.3 74.1 261.5 73.4 C 260.6 72.7 260.1 72.2 259.9 72.1 C 258.7 71.1 257.8 70.4 257.3 70.1 C 256.6 70.1 256.2 69.7 256.2 69 C 256.2 68.7 256.4 68.4 256.7 68.2 C 257 68 257.3 67.9 257.7 67.9 C 257.8 67.9 258 67.9 258.1 67.9 C 258.2 67.9 258.3 68 258.3 68 C 258.8 68 259.5 67.6 260.7 66.9 C 261.8 66.2 262.4 65.4 262.4 64.5 C 262.4 64 262.1 63.7 261.6 63.3 C 261.2 63 260.6 62.8 259.8 62.8 C 259 62.8 258.3 62.9 257.7 63 C 257.2 63.1 256.9 63.2 256.9 63.2 C 256.8 63.3 256.8 63.4 256.7 63.5 C 256.6 63.7 256.5 64.4 256.3 65.5 C 256.1 66.7 255.9 68 255.7 69.4 C 255.5 70.8 255.4 71.8 255.4 72.5 C 255.4 72.9 255.4 73.3 255.5 73.6 C 255.6 74 255.6 74.3 255.6 74.5 C 255.6 74.8 255.4 75 255.2 75.3 C 254.9 75.6 254.6 75.7 254.3 75.7 C 253.4 75.7 252.9 75.1 252.9 73.8 C 252.9 72.8 253 71.4 253.2 69.5 C 253.5 67.7 253.7 66.1 254 64.7 C 254.1 64.5 254.1 64.3 254.2 64.1 C 254.16 64.12 254.3 63.4 254.3 63.4 Z M 270.7 72.2 C 270.4 72.2 270.2 72.2 270.1 72 C 270 72.3 269.6 72.9 269 73.8 C 268.5 74.8 268.1 75.3 267.9 75.4 C 267.6 75.5 267.4 75.6 267.3 75.6 C 267 75.6 266.8 75.4 266.4 75.2 C 266.1 74.9 265.9 74.7 265.9 74.4 C 265.9 74.1 266.8 72.8 268.4 70.3 C 269.3 68.9 270.1 67.6 270.8 66.2 C 272.3 63.5 273.2 62 273.5 61.5 C 273.9 61.1 274.2 60.9 274.6 60.9 C 275.1 60.9 275.5 61 275.8 61.3 C 275.9 61.4 275.9 61.6 275.9 62 C 275.9 62.2 275.9 62.4 275.9 62.6 C 277.1 66.2 278 68.8 278.7 70.3 C 279.3 71.8 280 72.9 280.7 73.6 C 281 73.9 281.2 74.1 281.3 74.2 C 281.4 74.4 281.4 74.5 281.4 74.7 C 281.4 75.1 281.3 75.4 281 75.6 C 280.8 75.9 280.5 76 280.1 76 C 279.6 76 279.1 75.7 278.6 75.1 C 278.1 74.5 277.6 73.8 277.2 72.8 C 276.7 71.8 276.5 71.2 276.5 71.1 C 276.5 71 276.5 71 276.4 71 C 276.1 71 275.3 71.2 274.1 71.4 C 272.9 71.6 271.9 71.9 271.2 72.1 C 271 72.2 270.8 72.2 270.7 72.2 C 270.7 72.2 270.7 72.2 270.7 72.2 Z M 274.8 69.2 C 275.1 69.1 275.4 69.1 275.7 69 C 275.5 68.7 275.1 67.3 274.3 64.9 C 274.2 64.7 274.2 64.6 274.2 64.5 C 274.2 64.5 271.4 69.8 271.4 69.8 C 271.8 69.7 272.2 69.7 272.6 69.6 C 272.9 69.6 273.7 69.4 274.8 69.2 C 274.8 69.2 274.8 69.2 274.8 69.2 Z M 291.4 72.5 C 292.1 72 292.5 71.8 292.8 71.8 C 293.2 71.8 293.5 72 293.5 72.5 C 293.5 73.1 292.8 73.9 291.3 74.7 C 289.9 75.6 288.5 76 287.2 76 C 286 76 284.9 75.7 283.9 74.9 C 282.9 74.1 282.4 73 282.4 71.5 C 282.4 70 282.9 68.3 284 66.5 C 285 64.6 286.3 63.1 287.8 62 C 289.4 60.8 290.9 60.2 292.4 60.2 C 293.2 60.2 293.9 60.5 294.4 61 C 295 61.5 295.2 62.1 295.2 62.8 C 295.2 63.6 295.2 64.1 295 64.5 C 294.9 64.8 294.7 65.1 294.3 65.3 C 293.9 65.5 293.6 65.7 293.4 65.7 C 293.1 65.7 292.9 65.6 292.7 65.4 C 292.5 65.2 292.4 65 292.4 64.7 C 292.4 64.5 292.5 64.2 292.6 63.8 C 292.7 63.4 292.8 63 292.8 62.8 C 292.8 62.3 292.6 62.1 292.3 62.1 C 291.4 62.1 290.3 62.6 289.2 63.6 C 288 64.6 287 65.9 286.2 67.3 C 285.3 68.8 284.9 70.1 284.9 71.3 C 284.9 72 285.1 72.7 285.6 73.2 C 286 73.7 286.6 74 287.5 74 C 288 74 288.6 73.8 289.4 73.6 C 290.1 73.3 290.8 72.9 291.4 72.5 C 291.4 72.5 291.4 72.5 291.4 72.5 Z M 300.2 65.5 C 300.1 66.1 300 66.6 299.9 66.9 C 299.9 67.1 299.9 67.6 299.7 68.4 C 299.5 69.8 299.4 70.7 299.4 71.2 C 299.4 72.1 299.5 72.9 299.6 73.8 C 299.7 74.4 299.5 74.8 299.2 75.1 C 298.9 75.4 298.6 75.5 298.2 75.5 C 297.8 75.5 297.4 75.3 297.2 74.9 C 297.1 74.5 297 73.8 297 72.8 C 297 72.2 297.1 70.7 297.4 68.4 C 297.4 68.4 297.9 64.6 297.9 64.6 C 298.1 64.1 298.1 63.5 298.2 63.1 C 298.3 62.3 298.4 61.9 298.5 61.7 C 298.6 61.6 298.8 61.4 299.1 61.2 C 299.4 61 299.6 60.9 299.8 60.9 C 300.1 60.9 300.4 61.1 300.6 61.4 C 300.8 61.7 300.9 62.1 300.9 62.5 C 300.9 62.5 300.2 65.5 300.2 65.5 Z M 306.2 72.2 C 306 72.2 305.8 72.2 305.6 72 C 305.5 72.3 305.2 72.9 304.6 73.8 C 304 74.8 303.6 75.3 303.4 75.4 C 303.2 75.5 303 75.6 302.8 75.6 C 302.6 75.6 302.3 75.4 302 75.2 C 301.7 74.9 301.5 74.7 301.5 74.4 C 301.5 74.1 302.3 72.8 303.9 70.3 C 304.8 68.9 305.7 67.6 306.4 66.2 C 307.9 63.5 308.8 62 309.1 61.5 C 309.4 61.1 309.8 60.9 310.1 60.9 C 310.7 60.9 311.1 61 311.3 61.3 C 311.4 61.4 311.5 61.6 311.5 62 C 311.5 62.2 311.5 62.4 311.4 62.6 C 312.6 66.2 313.5 68.8 314.2 70.3 C 314.9 71.8 315.6 72.9 316.3 73.6 C 316.6 73.9 316.8 74.1 316.9 74.2 C 316.9 74.4 317 74.5 317 74.7 C 317 75.1 316.9 75.4 316.6 75.6 C 316.3 75.9 316 76 315.7 76 C 315.2 76 314.7 75.7 314.2 75.1 C 313.6 74.5 313.2 73.8 312.7 72.8 C 312.3 71.8 312 71.2 312 71.1 C 312 71 312 71 312 71 C 311.6 71 310.8 71.2 309.6 71.4 C 308.4 71.6 307.4 71.9 306.7 72.1 C 306.5 72.2 306.4 72.2 306.2 72.2 C 306.2 72.2 306.2 72.2 306.2 72.2 Z M 310.4 69.2 C 310.7 69.1 311 69.1 311.3 69 C 311.1 68.7 310.6 67.3 309.9 64.9 C 309.8 64.7 309.7 64.6 309.7 64.5 C 309.7 64.5 306.9 69.8 306.9 69.8 C 307.4 69.7 307.8 69.7 308.2 69.6 C 308.5 69.6 309.2 69.4 310.4 69.2 C 310.4 69.2 310.4 69.2 310.4 69.2 Z " stroke="none" fill="#fff"/>  </g>  <g id="Polygon12400">    <path d="M 21 9.7 C 21 9.7 21 9.7 21 9.8 C 21 9.8 20.7 10.3 20 11.3 C 19 12.6 18.3 13.8 17.7 14.7 C 17.1 15.7 16 17.5 14.4 20.1 C 13.5 21.7 12.8 22.7 12.6 23.2 C 11.8 24.4 11.3 25.3 11.1 25.9 C 11 26.3 10.7 26.6 10.2 26.9 C 9.8 27.1 9.2 27.3 8.6 27.3 C 8.3 27.3 8.1 27.1 7.8 26.6 C 7.6 26.2 7.2 25.4 6.8 24.2 C 6.3 22.8 5.5 20.9 4.6 18.6 C 2.6 13.7 1.7 11.2 1.7 11 C 1.7 10.7 1.8 10.3 2.1 9.8 C 2.4 9.3 2.8 9 3.3 9 C 3.8 9 4.1 9.1 4.5 9.5 C 4.8 9.8 5.1 10.6 5.4 12 C 5.6 13 6.2 14.7 7.2 17.4 C 8.2 20 9 21.9 9.6 23.2 C 9.7 23 10 22.5 10.4 21.7 C 10.5 21.5 10.6 21.4 10.6 21.3 C 11.8 19.4 12.8 17.8 13.6 16.3 C 15 13.5 16.2 11.5 17.1 10.2 C 18.1 8.8 18.9 8.2 19.6 8.2 C 20.5 8.2 21 8.6 21 9.6 C 20.97 9.57 21 9.7 21 9.7 C 21 9.7 20.97 9.67 21 9.7 Z M 25.5 28.1 C 24.1 28.1 22.8 27.4 21.7 26 C 20.6 24.6 20 23.2 20 21.7 C 20 20 20.6 18.1 21.6 15.9 C 22.7 13.8 24 12 25.7 10.7 C 27.4 9.3 29.1 8.6 30.9 8.6 C 32.4 8.6 33.5 8.8 34.4 9.1 C 35.4 9.5 36.2 10 37 10.6 C 37.8 11.3 38.3 11.9 38.5 12.6 C 38.8 13.3 38.9 14.3 38.9 15.5 C 38.9 16.6 38.6 17.9 37.9 19.4 C 37.2 21 36.2 22.4 34.9 23.8 C 33.6 25.1 32.2 26.2 30.9 26.9 C 29.5 27.7 27.7 28.1 25.5 28.1 Z M 23.2 21.6 C 23.2 22.7 23.5 23.5 24.2 24.2 C 24.8 24.9 25.5 25.3 26.3 25.3 C 28.6 25.3 30.7 24.2 32.7 22 C 34.7 19.8 35.7 17.5 35.7 15.1 C 35.7 14.2 35.5 13.5 35.2 13 C 34.8 12.4 34.3 12 33.5 11.7 C 32.7 11.3 31.8 11.1 30.9 11.1 C 29.3 11.1 27.6 12.3 25.9 14.7 C 24.1 17 23.2 19.4 23.2 21.6 Z M 55.5 11.7 C 53.4 11.7 51.9 11.8 51.1 12.1 C 51 12.2 50.9 12.4 50.9 12.7 C 50.8 13 50.7 14.5 50.4 17.1 C 50.1 19.7 49.9 21.7 49.9 23.3 C 49.9 23.9 50 24.7 50.2 25.5 C 50.2 25.6 50.2 25.7 50.2 25.9 C 50.2 26.3 50.1 26.7 49.8 27.1 C 49.6 27.5 49.2 27.6 48.8 27.6 C 48.5 27.6 48.2 27.5 47.8 27.2 C 47.3 27 47.1 26.5 47 25.8 C 46.9 25.2 46.9 24.3 46.9 23.3 C 46.9 21.8 47 19.7 47.4 16.8 C 47.7 13.9 47.9 12.5 48 12.4 C 47.7 12.4 46.8 12.5 45.1 12.6 C 43.5 12.7 42.5 12.8 42.2 12.8 C 41.4 12.8 40.7 12.7 40.4 12.5 C 40.1 12.2 39.9 11.9 39.9 11.4 C 39.9 11 40.1 10.6 40.4 10.4 C 40.8 10.2 41.7 10.1 43.2 10.1 C 45.6 10.1 48 9.9 50.4 9.6 C 53 9.2 55 9 56.4 9 C 57.9 9 58.8 9.1 59.1 9.5 C 59.5 9.9 59.6 10.2 59.6 10.6 C 59.6 11.4 59.3 11.8 58.5 11.8 C 58.3 11.8 57.9 11.8 57.4 11.7 C 56.9 11.7 56.2 11.7 55.5 11.7 C 55.5 11.7 55.5 11.7 55.5 11.7 Z M 63.8 28.1 C 62.4 28.1 61.1 27.4 60 26 C 58.9 24.6 58.3 23.2 58.3 21.7 C 58.3 20 58.9 18.1 59.9 15.9 C 61 13.8 62.4 12 64 10.7 C 65.7 9.3 67.4 8.6 69.3 8.6 C 70.7 8.6 71.8 8.8 72.8 9.1 C 73.7 9.5 74.5 10 75.3 10.6 C 76.1 11.3 76.6 11.9 76.9 12.6 C 77.1 13.3 77.2 14.3 77.2 15.5 C 77.2 16.6 76.9 17.9 76.2 19.4 C 75.5 21 74.5 22.4 73.2 23.8 C 71.9 25.1 70.5 26.2 69.2 26.9 C 67.8 27.7 66 28.1 63.8 28.1 Z M 61.6 21.6 C 61.6 22.7 61.9 23.5 62.5 24.2 C 63.1 24.9 63.8 25.3 64.6 25.3 C 66.9 25.3 69 24.2 71 22 C 73 19.8 74 17.5 74 15.1 C 74 14.2 73.8 13.5 73.5 13 C 73.2 12.4 72.6 12 71.8 11.7 C 71 11.3 70.2 11.1 69.3 11.1 C 67.6 11.1 65.9 12.3 64.2 14.7 C 62.4 17 61.6 19.4 61.6 21.6 Z M 90.7 25.1 C 90.8 24.7 90.9 24 91 22.9 C 91.2 20 91.5 16.9 92.1 13.7 C 92.2 13 92.3 12.5 92.3 12.1 C 92.3 12 92.2 11.9 92.1 11.8 C 91.2 11.6 90.7 11.2 90.7 10.7 C 90.7 10.3 90.9 9.9 91.3 9.5 C 91.6 9.1 92 9 92.4 9 C 92.4 9 94.1 9 94.1 9 C 94.9 9 96 9 97.4 8.9 C 98.5 8.8 99.5 8.7 100.2 8.7 C 102.6 8.7 104.5 9.4 105.9 10.7 C 107.4 12 108.1 13.8 108.1 16 C 108.1 18.4 107 20.6 104.7 22.6 C 102.5 24.5 99.8 25.9 96.6 26.6 C 95.7 26.8 95.1 26.9 94.8 27.1 C 94.4 27.2 94 27.4 93.6 27.7 C 93 28.1 92.4 28.3 91.9 28.3 C 91.4 28.3 91 28.1 90.7 27.7 C 90.4 27.3 90.2 26.9 90.2 26.7 C 90.2 26.5 90.3 26.2 90.5 25.9 C 90.5 25.9 90.7 25.1 90.7 25.1 Z M 94 23.6 C 94 24 94 24.3 94.1 24.5 C 94.5 24.5 95.8 24.2 97.9 23.5 C 100 22.9 101.8 21.9 103.1 20.5 C 104.4 19.1 105.1 17.6 105.1 15.8 C 105.1 14.4 104.6 13.3 103.6 12.5 C 102.6 11.7 101.3 11.3 99.7 11.3 C 98.7 11.3 97.4 11.4 95.8 11.6 C 95.6 11.6 95.5 11.6 95.4 11.6 C 94.4 17.3 94 21.3 94 23.6 C 94 23.6 94 23.6 94 23.6 Z M 115.2 14.6 C 115 15.4 114.9 16 114.8 16.4 C 114.8 16.7 114.8 17.3 114.6 18.3 C 114.3 20.1 114.2 21.4 114.2 22 C 114.2 23.2 114.2 24.3 114.4 25.3 C 114.5 26.1 114.3 26.7 113.9 27.1 C 113.5 27.4 113 27.6 112.6 27.6 C 112 27.6 111.6 27.3 111.3 26.8 C 111.1 26.3 111 25.4 111 24.1 C 111 23.3 111.2 21.4 111.6 18.4 C 111.6 18.4 112.3 13.5 112.3 13.5 C 112.4 12.7 112.5 12 112.6 11.4 C 112.7 10.5 112.8 9.9 112.9 9.7 C 113.1 9.5 113.4 9.3 113.7 9 C 114.1 8.8 114.4 8.7 114.6 8.7 C 115.1 8.7 115.5 8.9 115.7 9.3 C 116 9.7 116.1 10.1 116.1 10.7 C 116.1 10.7 115.2 14.6 115.2 14.6 Z M 133 11.3 C 133 12.8 132.2 13.5 130.5 13.5 C 130.5 12.7 130.3 12.1 129.9 11.8 C 129.5 11.5 128.8 11.3 128 11.3 C 126.6 11.3 125.2 11.7 124 12.4 C 122.8 13.1 122.2 13.8 122.2 14.7 C 122.2 15.2 122.4 15.6 122.9 16 C 123.3 16.4 124.5 16.9 126.4 17.4 C 128.5 18 130 18.6 130.9 19.3 C 131.9 20 132.4 20.9 132.4 21.9 C 132.4 23.5 131.2 25 128.7 26.4 C 126.2 27.7 123.6 28.4 120.9 28.4 C 120 28.4 119.3 28.2 118.8 27.8 C 118.3 27.5 118 27 118 26.5 C 118 26.1 118.1 25.7 118.4 25.3 C 118.6 25 118.9 24.8 119.2 24.8 C 119.4 24.8 119.6 24.8 119.8 24.9 C 120.7 25.3 121.5 25.4 122.3 25.4 C 123.6 25.4 125.1 25.1 126.7 24.3 C 128.4 23.6 129.2 22.9 129.2 22.2 C 129.2 21.9 129 21.6 128.6 21.3 C 128.2 21 127.3 20.7 126.1 20.3 C 124.2 19.7 122.9 19.2 121.9 18.8 C 121 18.4 120.3 17.9 119.8 17.3 C 119.3 16.6 119.1 15.9 119.1 15 C 119.1 13.4 120 11.9 121.9 10.6 C 123.7 9.2 125.9 8.5 128.4 8.5 C 129.8 8.5 130.9 8.8 131.8 9.4 C 132.6 9.9 133 10.6 133 11.3 C 133 11.3 133 11.3 133 11.3 Z M 149.5 11.7 C 147.4 11.7 145.9 11.8 145.1 12.1 C 145 12.2 145 12.4 144.9 12.7 C 144.8 13 144.7 14.5 144.4 17.1 C 144.1 19.7 144 21.7 144 23.3 C 144 23.9 144 24.7 144.2 25.5 C 144.2 25.6 144.2 25.7 144.2 25.9 C 144.2 26.3 144.1 26.7 143.8 27.1 C 143.6 27.5 143.2 27.6 142.8 27.6 C 142.5 27.6 142.2 27.5 141.8 27.2 C 141.3 27 141.1 26.5 141 25.8 C 140.9 25.2 140.9 24.3 140.9 23.3 C 140.9 21.8 141 19.7 141.4 16.8 C 141.7 13.9 141.9 12.5 142 12.4 C 141.7 12.4 140.8 12.5 139.1 12.6 C 137.5 12.7 136.5 12.8 136.2 12.8 C 135.4 12.8 134.8 12.7 134.4 12.5 C 134.1 12.2 133.9 11.9 133.9 11.4 C 133.9 11 134.1 10.6 134.5 10.4 C 134.8 10.2 135.7 10.1 137.2 10.1 C 139.6 10.1 142 9.9 144.4 9.6 C 147 9.2 149 9 150.4 9 C 151.9 9 152.8 9.1 153.1 9.5 C 153.5 9.9 153.6 10.2 153.6 10.6 C 153.6 11.4 153.3 11.8 152.5 11.8 C 152.3 11.8 151.9 11.8 151.4 11.7 C 150.9 11.7 150.3 11.7 149.5 11.7 C 149.5 11.7 149.5 11.7 149.5 11.7 Z M 154.6 11.9 C 154.6 11.9 154.44 11.6 154.4 11.6 C 154.2 11.2 154 10.9 154 10.7 C 154 10.3 154.2 9.9 154.7 9.6 C 155.1 9.3 155.4 9.1 155.8 9.1 C 155.9 9.1 156.1 9.2 156.4 9.2 C 156.6 9.2 156.8 9.2 156.8 9.2 C 159.3 8.8 161 8.7 162.1 8.7 C 163.9 8.7 165.4 9.1 166.5 10 C 167.6 10.9 168.2 12 168.2 13.3 C 168.2 14.6 167.6 15.7 166.6 16.9 C 165.5 18 164 18.9 162.2 19.6 C 165.2 22.1 167.5 23.7 169.1 24.7 C 169.6 25 169.9 25.4 169.9 25.9 C 169.9 26.3 169.7 26.6 169.3 26.9 C 168.9 27.3 168.6 27.5 168.2 27.5 C 167.7 27.5 167.2 27.2 166.6 26.8 C 165.9 26.4 165.1 25.7 163.9 24.8 C 162.8 23.9 162.1 23.4 161.9 23.2 C 160.3 21.8 159.2 20.9 158.5 20.5 C 157.6 20.5 157.1 20.1 157.1 19.2 C 157.1 18.8 157.3 18.4 157.7 18.1 C 158.1 17.8 158.6 17.7 159.1 17.7 C 159.2 17.7 159.4 17.7 159.5 17.7 C 159.7 17.8 159.8 17.8 159.9 17.8 C 160.4 17.8 161.4 17.3 162.9 16.4 C 164.3 15.5 165.1 14.5 165.1 13.3 C 165.1 12.7 164.8 12.2 164.2 11.8 C 163.5 11.4 162.8 11.1 161.8 11.1 C 160.7 11.1 159.8 11.2 159.1 11.3 C 158.4 11.5 158 11.6 158 11.6 C 157.9 11.7 157.8 11.8 157.7 12 C 157.6 12.2 157.5 13.1 157.2 14.6 C 156.9 16.2 156.6 17.8 156.4 19.7 C 156.2 21.5 156 22.8 156 23.7 C 156 24.2 156.1 24.7 156.2 25.2 C 156.2 25.6 156.3 26 156.3 26.3 C 156.3 26.6 156.1 27 155.7 27.3 C 155.4 27.7 155 27.8 154.6 27.8 C 153.4 27.8 152.8 27 152.8 25.4 C 152.8 24.1 152.9 22.2 153.2 19.8 C 153.5 17.5 153.9 15.4 154.3 13.6 C 154.3 13.3 154.4 13 154.4 12.8 C 154.43 12.8 154.6 11.9 154.6 11.9 Z M 176.3 14.6 C 176.1 15.4 176 16 175.9 16.4 C 175.9 16.7 175.8 17.3 175.7 18.3 C 175.4 20.1 175.2 21.4 175.2 22 C 175.2 23.2 175.3 24.3 175.4 25.3 C 175.5 26.1 175.4 26.7 175 27.1 C 174.5 27.4 174.1 27.6 173.7 27.6 C 173.1 27.6 172.7 27.3 172.4 26.8 C 172.1 26.3 172 25.4 172 24.1 C 172 23.3 172.2 21.4 172.6 18.4 C 172.6 18.4 173.3 13.5 173.3 13.5 C 173.5 12.7 173.6 12 173.6 11.4 C 173.7 10.5 173.9 9.9 174 9.7 C 174.2 9.5 174.4 9.3 174.8 9 C 175.2 8.8 175.5 8.7 175.7 8.7 C 176.2 8.7 176.5 8.9 176.8 9.3 C 177 9.7 177.2 10.1 177.2 10.7 C 177.2 10.7 176.3 14.6 176.3 14.6 Z M 194 11.7 C 191.9 11.7 190.4 11.8 189.6 12.1 C 189.5 12.2 189.5 12.4 189.4 12.7 C 189.3 13 189.2 14.5 188.9 17.1 C 188.6 19.7 188.5 21.7 188.5 23.3 C 188.5 23.9 188.5 24.7 188.7 25.5 C 188.7 25.6 188.8 25.7 188.8 25.9 C 188.8 26.3 188.6 26.7 188.4 27.1 C 188.1 27.5 187.7 27.6 187.3 27.6 C 187.1 27.6 186.7 27.5 186.3 27.2 C 185.8 27 185.6 26.5 185.5 25.8 C 185.4 25.2 185.4 24.3 185.4 23.3 C 185.4 21.8 185.5 19.7 185.9 16.8 C 186.2 13.9 186.4 12.5 186.5 12.4 C 186.3 12.4 185.3 12.5 183.7 12.6 C 182 12.7 181 12.8 180.7 12.8 C 179.9 12.8 179.3 12.7 178.9 12.5 C 178.6 12.2 178.4 11.9 178.4 11.4 C 178.4 11 178.6 10.6 179 10.4 C 179.3 10.2 180.2 10.1 181.7 10.1 C 184.1 10.1 186.5 9.9 188.9 9.6 C 191.5 9.2 193.5 9 194.9 9 C 196.4 9 197.3 9.1 197.7 9.5 C 198 9.9 198.1 10.2 198.1 10.6 C 198.1 11.4 197.8 11.8 197.1 11.8 C 196.8 11.8 196.4 11.8 195.9 11.7 C 195.4 11.7 194.8 11.7 194 11.7 C 194 11.7 194 11.7 194 11.7 Z M 200.5 23.3 C 200.1 23.3 199.9 23.2 199.7 23.1 C 199.6 23.4 199.1 24.2 198.4 25.4 C 197.6 26.7 197.1 27.3 196.8 27.5 C 196.5 27.6 196.3 27.7 196.1 27.7 C 195.8 27.7 195.4 27.5 195 27.2 C 194.5 26.8 194.3 26.5 194.3 26.1 C 194.3 25.8 195.4 24 197.5 20.8 C 198.7 19 199.7 17.3 200.7 15.5 C 202.6 12 203.8 10 204.2 9.4 C 204.6 8.9 205.1 8.6 205.5 8.6 C 206.2 8.6 206.8 8.8 207.1 9.1 C 207.2 9.3 207.3 9.5 207.3 10 C 207.3 10.3 207.3 10.6 207.2 10.8 C 208.8 15.5 210 18.8 210.9 20.8 C 211.8 22.8 212.6 24.2 213.5 25.1 C 214 25.5 214.2 25.8 214.3 26 C 214.4 26.1 214.5 26.3 214.5 26.6 C 214.5 27 214.3 27.4 214 27.7 C 213.6 28.1 213.2 28.2 212.7 28.2 C 212.1 28.2 211.5 27.8 210.8 27.1 C 210.1 26.4 209.5 25.3 208.9 24 C 208.3 22.7 208 22 208 21.8 C 208 21.8 208 21.8 208 21.8 C 207.5 21.8 206.5 21.9 204.9 22.3 C 203.3 22.6 202.1 22.9 201.1 23.2 C 200.9 23.3 200.6 23.3 200.5 23.3 C 200.5 23.3 200.5 23.3 200.5 23.3 Z M 205.9 19.4 C 206.3 19.3 206.6 19.3 207 19.2 C 206.8 18.7 206.2 16.9 205.2 13.9 C 205.1 13.6 205.1 13.4 205 13.3 C 205 13.3 201.4 20.2 201.4 20.2 C 201.9 20.1 202.5 20 203 19.9 C 203.4 19.9 204.4 19.7 205.9 19.4 C 205.9 19.4 205.9 19.4 205.9 19.4 Z M 228.8 26.6 C 228.6 26.6 228.2 26.6 227.7 26.5 C 227.2 26.5 226.9 26.4 226.6 26.4 C 224.3 26.4 222.1 26.8 219.9 27.5 C 219 27.8 218.4 27.9 218 27.9 C 217.5 27.9 217.1 27.7 216.8 27.3 C 216.5 26.9 216.3 26.5 216.3 26.1 C 216.3 26 216.4 25.6 216.6 25 C 216.8 24.2 216.9 23.3 217 22.3 C 217 22.3 218.2 11.8 218.2 11.8 C 218.3 10.8 218.4 10.1 218.4 9.8 C 218.5 9.5 218.7 9.3 219 9 C 219.3 8.8 219.7 8.7 220.2 8.7 C 220.6 8.7 221 8.8 221.3 9.1 C 221.6 9.4 221.7 9.8 221.7 10.1 C 221.7 10.4 221.6 11 221.5 11.8 C 221.3 13 221 15.3 220.6 18.7 C 220.2 22 220 23.8 220 24 C 220 24.3 220 24.4 220.1 24.4 C 220.4 24.4 221.3 24.3 222.7 24 C 223.4 23.9 224.1 23.9 224.8 23.8 C 226.8 23.7 228.2 23.6 229 23.4 C 229.2 23.3 229.4 23.3 229.5 23.3 C 230 23.3 230.3 23.4 230.6 23.7 C 230.9 24 231 24.3 231 24.7 C 231 25.3 230.8 25.7 230.3 26.1 C 229.9 26.4 229.4 26.6 228.8 26.6 Z M 249.1 21 C 248 21.2 247.4 21.4 247.3 21.4 C 247 23.4 246.9 25 246.9 26.2 C 246.9 26.6 246.8 27 246.5 27.4 C 246.2 27.8 245.9 27.9 245.4 27.9 C 244.3 27.9 243.8 27.3 243.8 26.1 C 243.8 25.5 244.1 23.2 244.6 19.4 C 244.9 16.2 245.1 14.4 245.1 13.8 C 245.1 13.1 245.1 12.7 245.1 12.6 C 244.5 12.3 244.2 11.8 244.2 11.1 C 244.2 10.4 245.4 9.8 247.7 9.2 C 250 8.7 251.9 8.4 253.6 8.4 C 255.5 8.4 257 8.8 258.1 9.6 C 259.3 10.4 259.8 11.5 259.8 12.8 C 259.8 14.7 258.8 16.4 256.7 17.9 C 254.6 19.4 252.1 20.4 249.1 21 C 249.1 21 249.1 21 249.1 21 Z M 253.5 11 C 251.9 11 250.2 11.3 248.4 11.9 C 248.4 11.9 247.6 18.6 247.6 18.6 C 250.1 18.2 252.2 17.5 254.1 16.4 C 255.9 15.4 256.8 14.3 256.8 13.1 C 256.8 11.7 255.7 11 253.5 11 C 253.5 11 253.5 11 253.5 11 Z M 268.8 28 C 268 28 266.9 27.8 265.7 27.2 C 264.4 26.6 263.5 25.7 262.8 24.3 C 262.2 22.9 261.9 21.5 261.9 19.9 C 261.9 19.1 262 18 262.2 16.7 C 262.2 16.7 262.6 14.4 262.6 14.4 C 262.7 14 262.7 13.6 262.8 13.2 C 262.9 12.6 263 12.1 263.1 11.5 C 263.2 10.6 263.4 9.9 263.7 9.4 C 264 8.9 264.4 8.7 265.1 8.7 C 265.4 8.7 265.7 8.9 266 9.4 C 266.3 9.9 266.5 10.3 266.5 10.5 C 266.5 10.7 266.3 11.6 265.9 13.3 C 265.8 13.7 265.6 14.8 265.3 16.4 C 265.1 18.1 265 19.2 265 19.8 C 265 21.9 265.4 23.4 266.4 24.1 C 267.3 24.9 268.1 25.3 268.8 25.3 C 270.9 25.3 272.4 24.8 273.2 23.9 C 274.1 23 274.6 21.5 274.8 19.4 C 274.8 19 274.9 18.6 275 18.3 C 275 17.4 275.1 16.6 275.2 15.8 C 275.4 12.8 275.7 11 276.1 10.2 C 276.4 9.5 277 9.1 277.7 9.1 C 278.6 9.1 279 9.7 279 10.8 C 279 11.5 278.9 12.7 278.5 14.6 C 278.3 15.7 278.2 16.8 278.1 17.8 C 278 20.4 277.6 22.3 277.1 23.5 C 276.5 24.7 275.5 25.7 274.1 26.7 C 272.6 27.6 270.9 28 268.8 28 Z M 283.4 11.9 C 283.4 11.9 283.22 11.6 283.2 11.6 C 282.9 11.2 282.8 10.9 282.8 10.7 C 282.8 10.3 283 9.9 283.4 9.6 C 283.9 9.3 284.2 9.1 284.6 9.1 C 284.7 9.1 284.9 9.2 285.2 9.2 C 285.4 9.2 285.5 9.2 285.6 9.2 C 288.1 8.8 289.8 8.7 290.8 8.7 C 292.7 8.7 294.2 9.1 295.3 10 C 296.4 10.9 297 12 297 13.3 C 297 14.6 296.4 15.7 295.3 16.9 C 294.3 18 292.8 18.9 291 19.6 C 294 22.1 296.3 23.7 297.9 24.7 C 298.4 25 298.7 25.4 298.7 25.9 C 298.7 26.3 298.5 26.6 298.1 26.9 C 297.7 27.3 297.4 27.5 297 27.5 C 296.5 27.5 296 27.2 295.3 26.8 C 294.7 26.4 293.8 25.7 292.7 24.8 C 291.5 23.9 290.9 23.4 290.7 23.2 C 289.1 21.8 287.9 20.9 287.2 20.5 C 286.3 20.5 285.9 20.1 285.9 19.2 C 285.9 18.8 286.1 18.4 286.5 18.1 C 286.9 17.8 287.3 17.7 287.8 17.7 C 288 17.7 288.1 17.7 288.3 17.7 C 288.5 17.8 288.6 17.8 288.7 17.8 C 289.2 17.8 290.2 17.3 291.7 16.4 C 293.1 15.5 293.9 14.5 293.9 13.3 C 293.9 12.7 293.6 12.2 292.9 11.8 C 292.3 11.4 291.5 11.1 290.6 11.1 C 289.5 11.1 288.6 11.2 287.9 11.3 C 287.2 11.5 286.8 11.6 286.7 11.6 C 286.7 11.7 286.6 11.8 286.5 12 C 286.4 12.2 286.2 13.1 286 14.6 C 285.7 16.2 285.4 17.8 285.2 19.7 C 284.9 21.5 284.8 22.8 284.8 23.7 C 284.8 24.2 284.9 24.7 284.9 25.2 C 285 25.6 285.1 26 285.1 26.3 C 285.1 26.6 284.9 27 284.5 27.3 C 284.2 27.7 283.8 27.8 283.3 27.8 C 282.2 27.8 281.6 27 281.6 25.4 C 281.6 24.1 281.7 22.2 282 19.8 C 282.3 17.5 282.7 15.4 283.1 13.6 C 283.1 13.3 283.2 13 283.2 12.8 C 283.21 12.8 283.4 11.9 283.4 11.9 Z M 305.5 28.1 C 304.1 28.1 302.8 27.4 301.7 26 C 300.6 24.6 300 23.2 300 21.7 C 300 20 300.6 18.1 301.6 15.9 C 302.7 13.8 304.1 12 305.7 10.7 C 307.4 9.3 309.1 8.6 311 8.6 C 312.4 8.6 313.5 8.8 314.5 9.1 C 315.4 9.5 316.2 10 317 10.6 C 317.8 11.3 318.3 11.9 318.5 12.6 C 318.8 13.3 318.9 14.3 318.9 15.5 C 318.9 16.6 318.6 17.9 317.9 19.4 C 317.2 21 316.2 22.4 314.9 23.8 C 313.6 25.1 312.2 26.2 310.9 26.9 C 309.5 27.7 307.7 28.1 305.5 28.1 Z M 303.3 21.6 C 303.3 22.7 303.6 23.5 304.2 24.2 C 304.8 24.9 305.5 25.3 306.3 25.3 C 308.6 25.3 310.7 24.2 312.7 22 C 314.7 19.8 315.7 17.5 315.7 15.1 C 315.7 14.2 315.5 13.5 315.2 13 C 314.9 12.4 314.3 12 313.5 11.7 C 312.7 11.3 311.9 11.1 311 11.1 C 309.3 11.1 307.6 12.3 305.9 14.7 C 304.1 17 303.3 19.4 303.3 21.6 Z " stroke="none" fill="#fff"/>  </g></svg>