<?xml version="1.0" standalone="no"?><!DOCTYPE svg PUBLIC "-//W3C//DTD SVG 1.1//EN" "http://www.w3.org/Graphics/SVG/1.1/DTD/svg11.dtd"><svg xmlns="http://www.w3.org/2000/svg" version="1.1" width="72px" height="20.9px" viewBox="0 -1 72 20.9" style="top:-1px">  <desc>A GENTE TEM DE MUDAR ESSE SISTEMA ELEITORAL E TER UM REPRESENTANTE DE VERDADE! E ISSO SE CHAMA VOTO DISTRITAL PURO!!!</desc>  <defs/>  <g id="Polygon13525">    <path d="M 21.5 16 C 21.5 16 21.5 15.9 21.5 15.8 C 21.5 15.4 21.6 15.1 21.6 14.7 C 21.6 14.6 21.6 14.6 21.6 14.5 C 21.6 14.5 21.6 14.5 21.6 14.5 C 21.5 14.5 21.5 14.4 21.5 14.4 C 21.5 14.3 21.5 14.3 21.5 14.2 C 21.6 14.2 21.6 14.2 21.7 14.2 C 21.7 14.2 21.9 14.2 21.9 14.2 C 21.9 14.2 22.1 14.2 22.2 14.2 C 22.4 14.1 22.5 14.1 22.6 14.1 C 22.8 14.1 23 14.2 23.2 14.4 C 23.4 14.5 23.5 14.7 23.5 15 C 23.5 15.3 23.3 15.5 23.1 15.7 C 22.8 16 22.5 16.1 22.1 16.2 C 22 16.2 22 16.2 21.9 16.3 C 21.9 16.3 21.8 16.3 21.8 16.3 C 21.7 16.4 21.7 16.4 21.6 16.4 C 21.5 16.4 21.5 16.4 21.5 16.3 C 21.4 16.3 21.4 16.2 21.4 16.2 C 21.4 16.2 21.4 16.2 21.4 16.1 C 21.4 16.1 21.5 16 21.5 16 Z M 21.8 15.9 C 21.8 15.9 21.8 15.9 21.8 16 C 21.9 16 22 15.9 22.3 15.9 C 22.5 15.8 22.7 15.7 22.9 15.5 C 23 15.3 23.1 15.2 23.1 15 C 23.1 14.8 23.1 14.7 22.9 14.6 C 22.8 14.5 22.7 14.4 22.5 14.4 C 22.4 14.4 22.2 14.4 22.1 14.5 C 22 14.5 22 14.5 22 14.5 C 21.9 15.1 21.8 15.6 21.8 15.9 C 21.8 15.9 21.8 15.9 21.8 15.9 Z M 24.2 14.8 C 24.2 14.9 24.2 15 24.2 15 C 24.2 15.1 24.2 15.1 24.2 15.3 C 24.1 15.5 24.1 15.6 24.1 15.7 C 24.1 15.8 24.1 15.9 24.1 16.1 C 24.1 16.2 24.1 16.2 24.1 16.3 C 24 16.3 24 16.3 23.9 16.3 C 23.9 16.3 23.8 16.3 23.8 16.2 C 23.8 16.2 23.7 16.1 23.7 15.9 C 23.7 15.8 23.8 15.6 23.8 15.3 C 23.8 15.3 23.9 14.7 23.9 14.7 C 23.9 14.6 23.9 14.5 23.9 14.5 C 23.9 14.3 24 14.3 24 14.3 C 24 14.2 24 14.2 24.1 14.2 C 24.1 14.2 24.1 14.1 24.2 14.1 C 24.2 14.1 24.3 14.2 24.3 14.2 C 24.3 14.3 24.3 14.3 24.3 14.4 C 24.3 14.4 24.2 14.8 24.2 14.8 Z M 26.2 14.4 C 26.2 14.6 26.1 14.7 25.9 14.7 C 25.9 14.6 25.9 14.5 25.9 14.5 C 25.8 14.5 25.7 14.4 25.6 14.4 C 25.5 14.4 25.3 14.5 25.2 14.6 C 25 14.6 25 14.7 25 14.8 C 25 14.9 25 14.9 25.1 15 C 25.1 15 25.2 15.1 25.5 15.1 C 25.7 15.2 25.9 15.3 26 15.4 C 26.1 15.5 26.2 15.5 26.2 15.7 C 26.2 15.8 26 16 25.7 16.2 C 25.4 16.3 25.1 16.4 24.8 16.4 C 24.7 16.4 24.6 16.4 24.6 16.4 C 24.5 16.3 24.5 16.3 24.5 16.2 C 24.5 16.1 24.5 16.1 24.5 16.1 C 24.6 16 24.6 16 24.6 16 C 24.7 16 24.7 16 24.7 16 C 24.8 16.1 24.9 16.1 25 16.1 C 25.1 16.1 25.3 16 25.5 15.9 C 25.7 15.9 25.8 15.8 25.8 15.7 C 25.8 15.7 25.8 15.6 25.7 15.6 C 25.7 15.6 25.6 15.5 25.4 15.5 C 25.2 15.4 25.1 15.3 24.9 15.3 C 24.8 15.3 24.8 15.2 24.7 15.1 C 24.6 15.1 24.6 15 24.6 14.9 C 24.6 14.7 24.7 14.5 24.9 14.4 C 25.2 14.2 25.4 14.1 25.7 14.1 C 25.9 14.1 26 14.2 26.1 14.2 C 26.2 14.3 26.2 14.4 26.2 14.4 C 26.2 14.4 26.2 14.4 26.2 14.4 Z M 28.1 14.5 C 27.8 14.5 27.7 14.5 27.6 14.5 C 27.5 14.5 27.5 14.6 27.5 14.6 C 27.5 14.6 27.5 14.8 27.5 15.1 C 27.4 15.4 27.4 15.6 27.4 15.8 C 27.4 15.9 27.4 16 27.5 16.1 C 27.5 16.1 27.5 16.1 27.5 16.1 C 27.5 16.2 27.4 16.2 27.4 16.3 C 27.4 16.3 27.3 16.3 27.3 16.3 C 27.3 16.3 27.2 16.3 27.2 16.3 C 27.1 16.2 27.1 16.2 27.1 16.1 C 27.1 16 27.1 15.9 27.1 15.8 C 27.1 15.7 27.1 15.4 27.1 15.1 C 27.2 14.7 27.2 14.6 27.2 14.6 C 27.2 14.6 27.1 14.6 26.9 14.6 C 26.7 14.6 26.6 14.6 26.5 14.6 C 26.4 14.6 26.4 14.6 26.3 14.6 C 26.3 14.5 26.3 14.5 26.3 14.5 C 26.3 14.4 26.3 14.4 26.3 14.3 C 26.4 14.3 26.5 14.3 26.6 14.3 C 26.9 14.3 27.2 14.3 27.5 14.2 C 27.8 14.2 28 14.2 28.2 14.2 C 28.3 14.2 28.4 14.2 28.5 14.2 C 28.5 14.3 28.5 14.3 28.5 14.4 C 28.5 14.5 28.5 14.5 28.4 14.5 C 28.4 14.5 28.3 14.5 28.3 14.5 C 28.2 14.5 28.2 14.5 28.1 14.5 C 28.1 14.5 28.1 14.5 28.1 14.5 Z M 28.6 14.5 C 28.6 14.5 28.58 14.48 28.6 14.5 C 28.5 14.4 28.5 14.4 28.5 14.4 C 28.5 14.3 28.6 14.3 28.6 14.2 C 28.6 14.2 28.7 14.2 28.7 14.2 C 28.7 14.2 28.8 14.2 28.8 14.2 C 28.8 14.2 28.8 14.2 28.8 14.2 C 29.1 14.2 29.3 14.1 29.5 14.1 C 29.7 14.1 29.8 14.2 30 14.3 C 30.1 14.4 30.2 14.5 30.2 14.7 C 30.2 14.8 30.1 15 30 15.1 C 29.8 15.2 29.7 15.3 29.5 15.4 C 29.8 15.7 30.1 15.9 30.3 16 C 30.3 16 30.4 16.1 30.4 16.1 C 30.4 16.2 30.3 16.2 30.3 16.2 C 30.2 16.3 30.2 16.3 30.2 16.3 C 30.1 16.3 30 16.3 30 16.2 C 29.9 16.2 29.8 16.1 29.7 16 C 29.5 15.9 29.5 15.8 29.4 15.8 C 29.3 15.7 29.1 15.6 29 15.5 C 28.9 15.5 28.9 15.5 28.9 15.4 C 28.9 15.3 28.9 15.3 29 15.2 C 29 15.2 29.1 15.2 29.1 15.2 C 29.1 15.2 29.1 15.2 29.2 15.2 C 29.2 15.2 29.2 15.2 29.2 15.2 C 29.3 15.2 29.4 15.1 29.6 15 C 29.7 14.9 29.8 14.8 29.8 14.7 C 29.8 14.6 29.8 14.5 29.7 14.5 C 29.6 14.4 29.5 14.4 29.4 14.4 C 29.3 14.4 29.2 14.4 29.1 14.4 C 29 14.5 29 14.5 29 14.5 C 29 14.5 29 14.5 29 14.5 C 28.9 14.5 28.9 14.7 28.9 14.8 C 28.9 15 28.8 15.2 28.8 15.4 C 28.8 15.6 28.8 15.8 28.8 15.9 C 28.8 15.9 28.8 16 28.8 16 C 28.8 16.1 28.8 16.1 28.8 16.2 C 28.8 16.2 28.8 16.2 28.7 16.3 C 28.7 16.3 28.6 16.3 28.6 16.3 C 28.5 16.3 28.4 16.3 28.4 16.1 C 28.4 15.9 28.4 15.7 28.4 15.4 C 28.5 15.2 28.5 14.9 28.6 14.7 C 28.6 14.7 28.6 14.6 28.6 14.6 C 28.57 14.61 28.6 14.5 28.6 14.5 Z M 31 14.8 C 31 14.9 31 15 31 15 C 31 15.1 31 15.1 31 15.3 C 30.9 15.5 30.9 15.6 30.9 15.7 C 30.9 15.8 30.9 15.9 30.9 16.1 C 31 16.2 30.9 16.2 30.9 16.3 C 30.8 16.3 30.8 16.3 30.7 16.3 C 30.7 16.3 30.6 16.3 30.6 16.2 C 30.6 16.2 30.5 16.1 30.5 15.9 C 30.5 15.8 30.6 15.6 30.6 15.3 C 30.6 15.3 30.7 14.7 30.7 14.7 C 30.7 14.6 30.7 14.5 30.7 14.5 C 30.7 14.3 30.8 14.3 30.8 14.3 C 30.8 14.2 30.8 14.2 30.9 14.2 C 30.9 14.2 30.9 14.1 31 14.1 C 31 14.1 31.1 14.2 31.1 14.2 C 31.1 14.3 31.1 14.3 31.1 14.4 C 31.1 14.4 31 14.8 31 14.8 Z M 33 14.5 C 32.8 14.5 32.6 14.5 32.5 14.5 C 32.5 14.5 32.5 14.6 32.5 14.6 C 32.5 14.6 32.5 14.8 32.4 15.1 C 32.4 15.4 32.4 15.6 32.4 15.8 C 32.4 15.9 32.4 16 32.4 16.1 C 32.4 16.1 32.4 16.1 32.4 16.1 C 32.4 16.2 32.4 16.2 32.4 16.3 C 32.3 16.3 32.3 16.3 32.3 16.3 C 32.2 16.3 32.2 16.3 32.1 16.3 C 32.1 16.2 32.1 16.2 32 16.1 C 32 16 32 15.9 32 15.8 C 32 15.7 32 15.4 32.1 15.1 C 32.1 14.7 32.1 14.6 32.2 14.6 C 32.1 14.6 32 14.6 31.8 14.6 C 31.6 14.6 31.5 14.6 31.5 14.6 C 31.4 14.6 31.3 14.6 31.3 14.6 C 31.2 14.5 31.2 14.5 31.2 14.5 C 31.2 14.4 31.2 14.4 31.3 14.3 C 31.3 14.3 31.4 14.3 31.6 14.3 C 31.9 14.3 32.2 14.3 32.4 14.2 C 32.7 14.2 33 14.2 33.1 14.2 C 33.3 14.2 33.4 14.2 33.4 14.2 C 33.5 14.3 33.5 14.3 33.5 14.4 C 33.5 14.5 33.5 14.5 33.4 14.5 C 33.3 14.5 33.3 14.5 33.2 14.5 C 33.2 14.5 33.1 14.5 33 14.5 C 33 14.5 33 14.5 33 14.5 Z M 33.7 15.8 C 33.7 15.8 33.6 15.8 33.6 15.8 C 33.6 15.8 33.6 15.9 33.5 16.1 C 33.4 16.2 33.3 16.3 33.3 16.3 C 33.3 16.3 33.2 16.3 33.2 16.3 C 33.2 16.3 33.1 16.3 33.1 16.3 C 33 16.2 33 16.2 33 16.2 C 33 16.1 33.1 15.9 33.4 15.5 C 33.5 15.3 33.6 15.1 33.7 14.9 C 34 14.5 34.1 14.3 34.1 14.2 C 34.2 14.2 34.2 14.1 34.3 14.1 C 34.4 14.1 34.4 14.1 34.5 14.2 C 34.5 14.2 34.5 14.2 34.5 14.3 C 34.5 14.3 34.5 14.4 34.5 14.4 C 34.7 14.9 34.8 15.3 34.9 15.5 C 35 15.8 35.1 15.9 35.2 16 C 35.3 16.1 35.3 16.1 35.3 16.1 C 35.3 16.1 35.3 16.2 35.3 16.2 C 35.3 16.3 35.3 16.3 35.3 16.3 C 35.2 16.4 35.2 16.4 35.1 16.4 C 35 16.4 35 16.4 34.9 16.3 C 34.8 16.2 34.7 16.1 34.7 15.9 C 34.6 15.8 34.6 15.7 34.6 15.7 C 34.6 15.7 34.6 15.7 34.6 15.7 C 34.5 15.7 34.4 15.7 34.2 15.7 C 34 15.7 33.9 15.8 33.8 15.8 C 33.8 15.8 33.7 15.8 33.7 15.8 C 33.7 15.8 33.7 15.8 33.7 15.8 Z M 34.3 15.4 C 34.4 15.4 34.4 15.4 34.5 15.4 C 34.4 15.3 34.4 15.1 34.3 14.7 C 34.2 14.7 34.2 14.7 34.2 14.7 C 34.2 14.7 33.8 15.5 33.8 15.5 C 33.9 15.5 33.9 15.4 34 15.4 C 34 15.4 34.2 15.4 34.3 15.4 C 34.3 15.4 34.3 15.4 34.3 15.4 Z M 36.9 16.2 C 36.9 16.2 36.9 16.2 36.8 16.2 C 36.7 16.2 36.7 16.2 36.7 16.2 C 36.4 16.2 36.1 16.2 35.9 16.3 C 35.8 16.3 35.7 16.4 35.7 16.4 C 35.6 16.4 35.6 16.3 35.5 16.3 C 35.5 16.2 35.5 16.2 35.5 16.2 C 35.5 16.1 35.5 16.1 35.5 16 C 35.5 15.9 35.5 15.8 35.6 15.7 C 35.6 15.7 35.7 14.5 35.7 14.5 C 35.7 14.4 35.7 14.3 35.7 14.3 C 35.7 14.2 35.7 14.2 35.8 14.2 C 35.8 14.2 35.9 14.1 35.9 14.1 C 36 14.1 36 14.2 36 14.2 C 36.1 14.2 36.1 14.3 36.1 14.3 C 36.1 14.3 36.1 14.4 36.1 14.5 C 36 14.6 36 14.9 36 15.3 C 35.9 15.7 35.9 15.9 35.9 15.9 C 35.9 15.9 35.9 16 35.9 16 C 35.9 16 36.1 15.9 36.2 15.9 C 36.3 15.9 36.4 15.9 36.5 15.9 C 36.7 15.9 36.8 15.9 36.9 15.8 C 37 15.8 37 15.8 37 15.8 C 37.1 15.8 37.1 15.8 37.1 15.9 C 37.2 15.9 37.2 15.9 37.2 16 C 37.2 16.1 37.1 16.1 37.1 16.1 C 37 16.2 37 16.2 36.9 16.2 Z M 39.1 15.6 C 39 15.6 38.9 15.6 38.9 15.6 C 38.9 15.8 38.9 16 38.9 16.2 C 38.9 16.2 38.9 16.3 38.8 16.3 C 38.8 16.3 38.8 16.4 38.7 16.4 C 38.6 16.4 38.5 16.3 38.5 16.2 C 38.5 16.1 38.6 15.8 38.6 15.4 C 38.7 15 38.7 14.8 38.7 14.7 C 38.7 14.6 38.7 14.6 38.7 14.6 C 38.6 14.6 38.6 14.5 38.6 14.4 C 38.6 14.3 38.7 14.3 39 14.2 C 39.2 14.1 39.5 14.1 39.7 14.1 C 39.9 14.1 40.1 14.2 40.2 14.2 C 40.3 14.3 40.4 14.5 40.4 14.6 C 40.4 14.8 40.3 15 40 15.2 C 39.8 15.4 39.5 15.5 39.1 15.6 C 39.1 15.6 39.1 15.6 39.1 15.6 Z M 39.6 14.4 C 39.5 14.4 39.3 14.4 39.1 14.5 C 39.1 14.5 39 15.3 39 15.3 C 39.3 15.2 39.5 15.2 39.7 15 C 39.9 14.9 40 14.8 40 14.6 C 40 14.5 39.9 14.4 39.6 14.4 C 39.6 14.4 39.6 14.4 39.6 14.4 Z M 41.4 16.4 C 41.3 16.4 41.1 16.3 41 16.3 C 40.8 16.2 40.7 16.1 40.7 15.9 C 40.6 15.8 40.6 15.6 40.6 15.4 C 40.6 15.3 40.6 15.2 40.6 15.1 C 40.6 15.1 40.6 14.8 40.6 14.8 C 40.6 14.7 40.7 14.7 40.7 14.7 C 40.7 14.6 40.7 14.5 40.7 14.5 C 40.7 14.4 40.7 14.3 40.8 14.2 C 40.8 14.2 40.8 14.1 40.9 14.1 C 41 14.1 41 14.2 41 14.2 C 41.1 14.3 41.1 14.3 41.1 14.4 C 41.1 14.4 41.1 14.5 41 14.7 C 41 14.7 41 14.8 41 15 C 40.9 15.2 40.9 15.4 40.9 15.4 C 40.9 15.7 41 15.8 41.1 15.9 C 41.2 16 41.3 16.1 41.3 16.1 C 41.6 16.1 41.8 16 41.9 15.9 C 42 15.8 42 15.6 42 15.4 C 42 15.3 42.1 15.3 42.1 15.2 C 42.1 15.1 42.1 15.1 42.1 15 C 42.1 14.6 42.1 14.4 42.2 14.3 C 42.2 14.2 42.3 14.2 42.4 14.2 C 42.5 14.2 42.5 14.3 42.5 14.4 C 42.5 14.5 42.5 14.6 42.5 14.8 C 42.5 14.9 42.4 15.1 42.4 15.2 C 42.4 15.5 42.4 15.7 42.3 15.8 C 42.2 16 42.1 16.1 42 16.2 C 41.8 16.3 41.6 16.4 41.4 16.4 Z M 43 14.5 C 43 14.5 42.96 14.48 43 14.5 C 42.9 14.4 42.9 14.4 42.9 14.4 C 42.9 14.3 42.9 14.3 43 14.2 C 43 14.2 43.1 14.2 43.1 14.2 C 43.1 14.2 43.2 14.2 43.2 14.2 C 43.2 14.2 43.2 14.2 43.2 14.2 C 43.5 14.2 43.7 14.1 43.8 14.1 C 44.1 14.1 44.2 14.2 44.4 14.3 C 44.5 14.4 44.5 14.5 44.5 14.7 C 44.5 14.8 44.5 15 44.4 15.1 C 44.2 15.2 44.1 15.3 43.9 15.4 C 44.2 15.7 44.5 15.9 44.6 16 C 44.7 16 44.7 16.1 44.7 16.1 C 44.7 16.2 44.7 16.2 44.7 16.2 C 44.6 16.3 44.6 16.3 44.5 16.3 C 44.5 16.3 44.4 16.3 44.4 16.2 C 44.3 16.2 44.2 16.1 44 16 C 43.9 15.9 43.8 15.8 43.8 15.8 C 43.6 15.7 43.5 15.6 43.4 15.5 C 43.3 15.5 43.3 15.5 43.3 15.4 C 43.3 15.3 43.3 15.3 43.3 15.2 C 43.4 15.2 43.4 15.2 43.5 15.2 C 43.5 15.2 43.5 15.2 43.5 15.2 C 43.6 15.2 43.6 15.2 43.6 15.2 C 43.6 15.2 43.8 15.1 43.9 15 C 44.1 14.9 44.2 14.8 44.2 14.7 C 44.2 14.6 44.1 14.5 44.1 14.5 C 44 14.4 43.9 14.4 43.8 14.4 C 43.7 14.4 43.6 14.4 43.5 14.4 C 43.4 14.5 43.4 14.5 43.4 14.5 C 43.4 14.5 43.3 14.5 43.3 14.5 C 43.3 14.5 43.3 14.7 43.3 14.8 C 43.2 15 43.2 15.2 43.2 15.4 C 43.2 15.6 43.1 15.8 43.1 15.9 C 43.1 15.9 43.1 16 43.2 16 C 43.2 16.1 43.2 16.1 43.2 16.2 C 43.2 16.2 43.1 16.2 43.1 16.3 C 43.1 16.3 43 16.3 43 16.3 C 42.8 16.3 42.8 16.3 42.8 16.1 C 42.8 15.9 42.8 15.7 42.8 15.4 C 42.9 15.2 42.9 14.9 42.9 14.7 C 42.9 14.7 42.9 14.6 43 14.6 C 42.95 14.61 43 14.5 43 14.5 Z M 45.5 16.4 C 45.3 16.4 45.2 16.3 45 16.1 C 44.9 16 44.8 15.8 44.8 15.6 C 44.8 15.4 44.9 15.2 45 15 C 45.1 14.7 45.3 14.5 45.5 14.4 C 45.7 14.2 45.9 14.1 46.1 14.1 C 46.3 14.1 46.4 14.2 46.5 14.2 C 46.6 14.2 46.7 14.3 46.8 14.4 C 46.9 14.4 46.9 14.5 47 14.6 C 47 14.7 47 14.8 47 14.9 C 47 15.1 47 15.2 46.9 15.4 C 46.8 15.6 46.7 15.7 46.5 15.9 C 46.4 16 46.2 16.2 46.1 16.2 C 45.9 16.3 45.7 16.4 45.5 16.4 Z M 45.2 15.6 C 45.2 15.8 45.2 15.9 45.3 15.9 C 45.4 16 45.5 16.1 45.6 16.1 C 45.8 16.1 46.1 15.9 46.3 15.7 C 46.5 15.4 46.6 15.2 46.6 14.9 C 46.6 14.8 46.6 14.7 46.6 14.6 C 46.5 14.6 46.5 14.5 46.4 14.5 C 46.3 14.4 46.2 14.4 46.1 14.4 C 45.9 14.4 45.7 14.6 45.5 14.8 C 45.3 15.1 45.2 15.4 45.2 15.6 Z M 47.6 15.4 C 47.6 15.5 47.6 15.5 47.6 15.6 C 47.5 15.6 47.4 15.6 47.3 15.5 C 47.3 15.3 47.3 15.1 47.4 14.9 C 47.4 14.7 47.4 14.5 47.4 14.4 C 47.4 14.4 47.5 14.4 47.5 14.3 C 47.5 14.2 47.5 14.2 47.6 14.2 C 47.6 14.1 47.7 14.1 47.7 14.1 C 47.7 14.1 47.8 14.1 47.8 14.1 C 47.8 14.2 47.9 14.2 47.9 14.2 C 47.9 14.3 47.8 14.4 47.8 14.5 C 47.8 14.7 47.7 14.9 47.7 15 C 47.6 15.2 47.6 15.3 47.6 15.4 C 47.6 15.4 47.6 15.4 47.6 15.4 Z M 47.4 16.2 C 47.2 16.2 47.2 16.2 47.2 16.1 C 47.2 16 47.2 16 47.3 15.9 C 47.3 15.9 47.4 15.8 47.4 15.8 C 47.4 15.8 47.5 15.8 47.5 15.9 C 47.6 15.9 47.6 15.9 47.6 16 C 47.6 16 47.6 16 47.6 16 C 47.6 16.1 47.5 16.2 47.5 16.2 C 47.4 16.2 47.4 16.2 47.4 16.2 Z M 48.5 15.4 C 48.5 15.5 48.5 15.5 48.5 15.6 C 48.4 15.6 48.3 15.6 48.2 15.5 C 48.2 15.3 48.2 15.1 48.3 14.9 C 48.3 14.7 48.4 14.5 48.4 14.4 C 48.4 14.4 48.4 14.4 48.4 14.3 C 48.4 14.2 48.4 14.2 48.5 14.2 C 48.5 14.1 48.6 14.1 48.6 14.1 C 48.6 14.1 48.7 14.1 48.7 14.1 C 48.7 14.2 48.8 14.2 48.8 14.2 C 48.8 14.3 48.7 14.4 48.7 14.5 C 48.7 14.7 48.6 14.9 48.6 15 C 48.5 15.2 48.5 15.3 48.5 15.4 C 48.5 15.4 48.5 15.4 48.5 15.4 Z M 48.3 16.2 C 48.2 16.2 48.1 16.2 48.1 16.1 C 48.1 16 48.1 16 48.2 15.9 C 48.2 15.9 48.3 15.8 48.3 15.8 C 48.3 15.8 48.4 15.8 48.4 15.9 C 48.5 15.9 48.5 15.9 48.5 16 C 48.5 16 48.5 16 48.5 16 C 48.5 16.1 48.5 16.2 48.4 16.2 C 48.3 16.2 48.3 16.2 48.3 16.2 Z M 49.4 15.4 C 49.4 15.5 49.4 15.5 49.4 15.6 C 49.3 15.6 49.2 15.6 49.2 15.5 C 49.1 15.3 49.1 15.1 49.2 14.9 C 49.2 14.7 49.3 14.5 49.3 14.4 C 49.3 14.4 49.3 14.4 49.3 14.3 C 49.3 14.2 49.3 14.2 49.4 14.2 C 49.4 14.1 49.5 14.1 49.5 14.1 C 49.5 14.1 49.6 14.1 49.6 14.1 C 49.7 14.2 49.7 14.2 49.7 14.2 C 49.7 14.3 49.6 14.4 49.6 14.5 C 49.6 14.7 49.5 14.9 49.5 15 C 49.5 15.2 49.4 15.3 49.4 15.4 C 49.4 15.4 49.4 15.4 49.4 15.4 Z M 49.2 16.2 C 49.1 16.2 49 16.2 49 16.1 C 49 16 49 16 49.1 15.9 C 49.1 15.9 49.2 15.8 49.2 15.8 C 49.2 15.8 49.3 15.8 49.3 15.9 C 49.4 15.9 49.4 15.9 49.4 16 C 49.4 16 49.4 16 49.4 16 C 49.4 16.1 49.4 16.2 49.3 16.2 C 49.3 16.2 49.2 16.2 49.2 16.2 Z " stroke="none" fill="#000"/>  </g>  <g id="Polygon13524">    <path d="M 5.7 12 C 5.7 12 5.7 11.9 5.7 11.8 C 5.7 11.4 5.8 11.1 5.8 10.7 C 5.8 10.6 5.8 10.6 5.8 10.5 C 5.8 10.5 5.8 10.5 5.8 10.5 C 5.7 10.5 5.7 10.4 5.7 10.4 C 5.7 10.3 5.7 10.3 5.7 10.2 C 5.8 10.2 5.8 10.2 5.9 10.2 C 5.9 10.2 6.1 10.2 6.1 10.2 C 6.2 10.2 6.3 10.2 6.4 10.2 C 6.6 10.1 6.7 10.1 6.8 10.1 C 7 10.1 7.3 10.2 7.4 10.4 C 7.6 10.5 7.7 10.7 7.7 11 C 7.7 11.3 7.5 11.5 7.3 11.7 C 7 12 6.7 12.1 6.3 12.2 C 6.2 12.2 6.2 12.2 6.1 12.3 C 6.1 12.3 6 12.3 6 12.3 C 5.9 12.4 5.9 12.4 5.8 12.4 C 5.7 12.4 5.7 12.4 5.7 12.3 C 5.6 12.3 5.6 12.2 5.6 12.2 C 5.6 12.2 5.6 12.2 5.6 12.1 C 5.6 12.1 5.7 12 5.7 12 Z M 6 11.9 C 6 11.9 6 11.9 6.1 12 C 6.1 12 6.3 11.9 6.5 11.9 C 6.7 11.8 6.9 11.7 7.1 11.5 C 7.2 11.3 7.3 11.2 7.3 11 C 7.3 10.8 7.3 10.7 7.2 10.6 C 7 10.5 6.9 10.4 6.7 10.4 C 6.6 10.4 6.4 10.4 6.3 10.5 C 6.2 10.5 6.2 10.5 6.2 10.5 C 6.1 11.1 6 11.6 6 11.9 C 6 11.9 6 11.9 6 11.9 Z M 9.6 10.5 C 9.6 10.5 9.1 10.5 9.1 10.5 C 9 10.5 8.8 10.5 8.7 10.5 C 8.6 10.5 8.6 10.6 8.5 10.6 C 8.5 10.6 8.5 10.6 8.5 10.7 C 8.5 10.7 8.5 10.8 8.5 10.9 C 8.4 11 8.4 11.1 8.4 11.1 C 8.5 11.1 8.6 11.1 8.7 11.1 C 8.8 11.1 8.9 11.1 8.9 11.1 C 9.1 11.1 9.2 11 9.3 11 C 9.4 11 9.5 11.1 9.5 11.2 C 9.5 11.2 9.5 11.3 9.4 11.3 C 9.4 11.3 9.3 11.4 9.2 11.4 C 9.2 11.4 9.1 11.4 9 11.4 C 9 11.4 9 11.4 8.9 11.4 C 8.6 11.4 8.5 11.5 8.4 11.5 C 8.4 11.5 8.4 11.5 8.4 11.5 C 8.4 11.5 8.4 11.5 8.4 11.5 C 8.4 11.5 8.4 11.6 8.3 11.7 C 8.3 11.9 8.3 12 8.3 12 C 8.3 12 8.3 12.1 8.4 12.1 C 8.4 12.1 8.5 12 8.7 12 C 8.9 12 9.1 12 9.1 12 C 9.3 11.9 9.3 11.9 9.4 11.9 C 9.5 11.9 9.6 12 9.6 12.1 C 9.6 12.1 9.6 12.2 9.5 12.2 C 9.4 12.2 9.3 12.3 9.1 12.3 C 9 12.3 8.8 12.3 8.6 12.3 C 8.5 12.4 8.3 12.4 8.2 12.4 C 8.1 12.4 8 12.4 8 12.3 C 7.9 12.3 7.9 12.2 7.9 12.2 C 7.9 12.2 7.9 12.1 7.9 12.1 C 7.9 12.1 7.9 12.1 7.9 12 C 8 11.9 8 11.7 8.1 11.2 C 8.1 10.8 8.2 10.6 8.2 10.5 C 8.2 10.5 8.2 10.5 8.2 10.5 C 8.1 10.5 8.1 10.5 8.1 10.5 C 8.1 10.4 8.1 10.4 8.1 10.4 C 8.1 10.4 8.1 10.4 8.1 10.3 C 8.1 10.3 8.1 10.3 8.2 10.3 C 8.2 10.3 8.2 10.2 8.3 10.2 C 8.3 10.2 8.4 10.3 8.4 10.3 C 8.5 10.3 8.8 10.2 9.2 10.2 C 9.4 10.1 9.4 10.1 9.4 10.1 C 9.4 10.1 9.5 10.1 9.5 10.1 C 9.6 10.1 9.7 10.2 9.7 10.3 C 9.7 10.3 9.7 10.4 9.7 10.4 C 9.6 10.4 9.6 10.5 9.6 10.5 Z M 13.2 10.3 C 13.2 10.3 13.2 10.3 13.2 10.3 C 13.2 10.3 13.2 10.3 13.1 10.4 C 13 10.6 12.9 10.7 12.8 10.8 C 12.8 10.9 12.6 11.2 12.5 11.5 C 12.3 11.6 12.3 11.8 12.2 11.8 C 12.1 11.9 12.1 12.1 12.1 12.1 C 12.1 12.2 12 12.2 12 12.2 C 11.9 12.3 11.9 12.3 11.8 12.3 C 11.7 12.3 11.7 12.3 11.7 12.2 C 11.7 12.2 11.6 12.1 11.6 11.9 C 11.5 11.8 11.4 11.6 11.3 11.3 C 11.1 10.7 11 10.4 11 10.4 C 11 10.4 11 10.3 11 10.3 C 11.1 10.2 11.1 10.2 11.2 10.2 C 11.2 10.2 11.3 10.2 11.3 10.2 C 11.3 10.3 11.4 10.4 11.4 10.5 C 11.4 10.6 11.5 10.8 11.6 11.1 C 11.7 11.4 11.8 11.7 11.9 11.8 C 11.9 11.8 11.9 11.7 12 11.6 C 12 11.6 12 11.6 12 11.6 C 12.2 11.4 12.3 11.2 12.4 11 C 12.5 10.7 12.7 10.5 12.8 10.3 C 12.9 10.2 13 10.1 13 10.1 C 13.2 10.1 13.2 10.1 13.2 10.2 C 13.21 10.24 13.2 10.3 13.2 10.3 C 13.2 10.3 13.21 10.25 13.2 10.3 Z M 14.8 10.5 C 14.8 10.5 14.3 10.5 14.3 10.5 C 14.2 10.5 14.1 10.5 13.9 10.5 C 13.8 10.5 13.8 10.6 13.8 10.6 C 13.7 10.6 13.7 10.6 13.7 10.7 C 13.7 10.7 13.7 10.8 13.7 10.9 C 13.7 11 13.6 11.1 13.6 11.1 C 13.7 11.1 13.8 11.1 13.9 11.1 C 14 11.1 14.1 11.1 14.2 11.1 C 14.3 11.1 14.4 11 14.5 11 C 14.6 11 14.7 11.1 14.7 11.2 C 14.7 11.2 14.7 11.3 14.6 11.3 C 14.6 11.3 14.5 11.4 14.4 11.4 C 14.4 11.4 14.3 11.4 14.3 11.4 C 14.2 11.4 14.2 11.4 14.1 11.4 C 13.8 11.4 13.7 11.5 13.6 11.5 C 13.6 11.5 13.6 11.5 13.6 11.5 C 13.6 11.5 13.6 11.5 13.6 11.5 C 13.6 11.5 13.6 11.6 13.6 11.7 C 13.5 11.9 13.5 12 13.5 12 C 13.5 12 13.5 12.1 13.6 12.1 C 13.6 12.1 13.8 12 14 12 C 14.2 12 14.3 12 14.3 12 C 14.5 11.9 14.6 11.9 14.6 11.9 C 14.7 11.9 14.8 12 14.8 12.1 C 14.8 12.1 14.8 12.2 14.7 12.2 C 14.6 12.2 14.5 12.3 14.3 12.3 C 14.2 12.3 14 12.3 13.8 12.3 C 13.7 12.4 13.5 12.4 13.4 12.4 C 13.3 12.4 13.2 12.4 13.2 12.3 C 13.2 12.3 13.1 12.2 13.1 12.2 C 13.1 12.2 13.1 12.1 13.1 12.1 C 13.1 12.1 13.1 12.1 13.1 12 C 13.2 11.9 13.2 11.7 13.3 11.2 C 13.3 10.8 13.4 10.6 13.4 10.5 C 13.4 10.5 13.4 10.5 13.4 10.5 C 13.4 10.5 13.4 10.5 13.3 10.5 C 13.3 10.4 13.3 10.4 13.3 10.4 C 13.3 10.4 13.3 10.4 13.3 10.3 C 13.3 10.3 13.3 10.3 13.4 10.3 C 13.4 10.3 13.5 10.2 13.5 10.2 C 13.5 10.2 13.6 10.3 13.6 10.3 C 13.7 10.3 14 10.2 14.4 10.2 C 14.6 10.1 14.6 10.1 14.6 10.1 C 14.6 10.1 14.7 10.1 14.7 10.1 C 14.8 10.1 14.9 10.2 14.9 10.3 C 14.9 10.3 14.9 10.4 14.9 10.4 C 14.9 10.4 14.8 10.5 14.8 10.5 Z M 15.3 10.5 C 15.3 10.5 15.29 10.48 15.3 10.5 C 15.3 10.4 15.2 10.4 15.2 10.4 C 15.2 10.3 15.3 10.3 15.3 10.2 C 15.4 10.2 15.4 10.2 15.5 10.2 C 15.5 10.2 15.5 10.2 15.5 10.2 C 15.5 10.2 15.6 10.2 15.6 10.2 C 15.9 10.2 16.1 10.1 16.2 10.1 C 16.4 10.1 16.6 10.2 16.7 10.3 C 16.8 10.4 16.9 10.5 16.9 10.7 C 16.9 10.8 16.8 11 16.7 11.1 C 16.6 11.2 16.4 11.3 16.2 11.4 C 16.5 11.7 16.8 11.9 17 12 C 17 12 17.1 12.1 17.1 12.1 C 17.1 12.2 17.1 12.2 17 12.2 C 17 12.3 16.9 12.3 16.9 12.3 C 16.8 12.3 16.8 12.3 16.7 12.2 C 16.6 12.2 16.5 12.1 16.4 12 C 16.3 11.9 16.2 11.8 16.2 11.8 C 16 11.7 15.8 11.6 15.8 11.5 C 15.7 11.5 15.6 11.5 15.6 11.4 C 15.6 11.3 15.6 11.3 15.7 11.2 C 15.7 11.2 15.8 11.2 15.8 11.2 C 15.8 11.2 15.9 11.2 15.9 11.2 C 15.9 11.2 15.9 11.2 15.9 11.2 C 16 11.2 16.1 11.1 16.3 11 C 16.4 10.9 16.5 10.8 16.5 10.7 C 16.5 10.6 16.5 10.5 16.4 10.5 C 16.3 10.4 16.3 10.4 16.1 10.4 C 16 10.4 15.9 10.4 15.8 10.4 C 15.8 10.5 15.7 10.5 15.7 10.5 C 15.7 10.5 15.7 10.5 15.7 10.5 C 15.7 10.5 15.6 10.7 15.6 10.8 C 15.6 11 15.5 11.2 15.5 11.4 C 15.5 11.6 15.5 11.8 15.5 11.9 C 15.5 11.9 15.5 12 15.5 12 C 15.5 12.1 15.5 12.1 15.5 12.2 C 15.5 12.2 15.5 12.2 15.4 12.3 C 15.4 12.3 15.4 12.3 15.3 12.3 C 15.2 12.3 15.1 12.3 15.1 12.1 C 15.1 11.9 15.1 11.7 15.2 11.4 C 15.2 11.2 15.2 10.9 15.3 10.7 C 15.3 10.7 15.3 10.6 15.3 10.6 C 15.29 10.61 15.3 10.5 15.3 10.5 Z M 17.3 12 C 17.3 12 17.3 11.9 17.3 11.8 C 17.4 11.4 17.4 11.1 17.5 10.7 C 17.5 10.6 17.5 10.6 17.5 10.5 C 17.5 10.5 17.5 10.5 17.5 10.5 C 17.4 10.5 17.3 10.4 17.3 10.4 C 17.3 10.3 17.3 10.3 17.4 10.2 C 17.4 10.2 17.5 10.2 17.5 10.2 C 17.5 10.2 17.7 10.2 17.7 10.2 C 17.8 10.2 17.9 10.2 18.1 10.2 C 18.2 10.1 18.3 10.1 18.4 10.1 C 18.7 10.1 18.9 10.2 19.1 10.4 C 19.2 10.5 19.3 10.7 19.3 11 C 19.3 11.3 19.2 11.5 18.9 11.7 C 18.7 12 18.3 12.1 18 12.2 C 17.9 12.2 17.8 12.2 17.8 12.3 C 17.7 12.3 17.7 12.3 17.6 12.3 C 17.6 12.4 17.5 12.4 17.4 12.4 C 17.4 12.4 17.3 12.4 17.3 12.3 C 17.3 12.3 17.2 12.2 17.2 12.2 C 17.2 12.2 17.3 12.2 17.3 12.1 C 17.3 12.1 17.3 12 17.3 12 Z M 17.7 11.9 C 17.7 11.9 17.7 11.9 17.7 12 C 17.7 12 17.9 11.9 18.1 11.9 C 18.4 11.8 18.6 11.7 18.7 11.5 C 18.9 11.3 19 11.2 19 11 C 19 10.8 18.9 10.7 18.8 10.6 C 18.7 10.5 18.5 10.4 18.3 10.4 C 18.2 10.4 18.1 10.4 17.9 10.5 C 17.9 10.5 17.9 10.5 17.8 10.5 C 17.7 11.1 17.7 11.6 17.7 11.9 C 17.7 11.9 17.7 11.9 17.7 11.9 Z M 19.9 11.8 C 19.9 11.8 19.8 11.8 19.8 11.8 C 19.8 11.8 19.8 11.9 19.7 12.1 C 19.6 12.2 19.5 12.3 19.5 12.3 C 19.5 12.3 19.4 12.3 19.4 12.3 C 19.4 12.3 19.3 12.3 19.3 12.3 C 19.2 12.2 19.2 12.2 19.2 12.2 C 19.2 12.1 19.3 11.9 19.6 11.5 C 19.7 11.3 19.8 11.1 19.9 10.9 C 20.2 10.5 20.3 10.3 20.3 10.2 C 20.4 10.2 20.4 10.1 20.5 10.1 C 20.6 10.1 20.6 10.1 20.7 10.2 C 20.7 10.2 20.7 10.2 20.7 10.3 C 20.7 10.3 20.7 10.4 20.7 10.4 C 20.9 10.9 21 11.3 21.1 11.5 C 21.2 11.8 21.3 11.9 21.4 12 C 21.5 12.1 21.5 12.1 21.5 12.1 C 21.5 12.1 21.5 12.2 21.5 12.2 C 21.5 12.3 21.5 12.3 21.5 12.3 C 21.4 12.4 21.4 12.4 21.3 12.4 C 21.3 12.4 21.2 12.4 21.1 12.3 C 21 12.2 21 12.1 20.9 11.9 C 20.8 11.8 20.8 11.7 20.8 11.7 C 20.8 11.7 20.8 11.7 20.8 11.7 C 20.7 11.7 20.6 11.7 20.4 11.7 C 20.2 11.7 20.1 11.8 20 11.8 C 20 11.8 19.9 11.8 19.9 11.8 C 19.9 11.8 19.9 11.8 19.9 11.8 Z M 20.5 11.4 C 20.6 11.4 20.6 11.4 20.7 11.4 C 20.6 11.3 20.6 11.1 20.5 10.7 C 20.4 10.7 20.4 10.7 20.4 10.7 C 20.4 10.7 20 11.5 20 11.5 C 20.1 11.5 20.1 11.4 20.2 11.4 C 20.2 11.4 20.4 11.4 20.5 11.4 C 20.5 11.4 20.5 11.4 20.5 11.4 Z M 21.8 12 C 21.8 12 21.8 11.9 21.8 11.8 C 21.8 11.4 21.9 11.1 21.9 10.7 C 21.9 10.6 21.9 10.6 21.9 10.5 C 21.9 10.5 21.9 10.5 21.9 10.5 C 21.8 10.5 21.8 10.4 21.8 10.4 C 21.8 10.3 21.8 10.3 21.8 10.2 C 21.9 10.2 21.9 10.2 22 10.2 C 22 10.2 22.2 10.2 22.2 10.2 C 22.3 10.2 22.4 10.2 22.5 10.2 C 22.7 10.1 22.8 10.1 22.9 10.1 C 23.1 10.1 23.4 10.2 23.5 10.4 C 23.7 10.5 23.8 10.7 23.8 11 C 23.8 11.3 23.6 11.5 23.4 11.7 C 23.1 12 22.8 12.1 22.4 12.2 C 22.3 12.2 22.3 12.2 22.2 12.3 C 22.2 12.3 22.2 12.3 22.1 12.3 C 22 12.4 22 12.4 21.9 12.4 C 21.9 12.4 21.8 12.4 21.8 12.3 C 21.7 12.3 21.7 12.2 21.7 12.2 C 21.7 12.2 21.7 12.2 21.7 12.1 C 21.7 12.1 21.8 12 21.8 12 Z M 22.1 11.9 C 22.1 11.9 22.2 11.9 22.2 12 C 22.2 12 22.4 11.9 22.6 11.9 C 22.8 11.8 23 11.7 23.2 11.5 C 23.4 11.3 23.4 11.2 23.4 11 C 23.4 10.8 23.4 10.7 23.3 10.6 C 23.1 10.5 23 10.4 22.8 10.4 C 22.7 10.4 22.5 10.4 22.4 10.5 C 22.3 10.5 22.3 10.5 22.3 10.5 C 22.2 11.1 22.1 11.6 22.1 11.9 C 22.1 11.9 22.1 11.9 22.1 11.9 Z M 25.7 10.5 C 25.7 10.5 25.2 10.5 25.2 10.5 C 25.1 10.5 24.9 10.5 24.8 10.5 C 24.7 10.5 24.7 10.6 24.6 10.6 C 24.6 10.6 24.6 10.6 24.6 10.7 C 24.6 10.7 24.6 10.8 24.6 10.9 C 24.5 11 24.5 11.1 24.5 11.1 C 24.6 11.1 24.7 11.1 24.8 11.1 C 24.9 11.1 25 11.1 25 11.1 C 25.2 11.1 25.3 11 25.4 11 C 25.5 11 25.6 11.1 25.6 11.2 C 25.6 11.2 25.6 11.3 25.5 11.3 C 25.5 11.3 25.4 11.4 25.3 11.4 C 25.3 11.4 25.2 11.4 25.1 11.4 C 25.1 11.4 25.1 11.4 25 11.4 C 24.7 11.4 24.6 11.5 24.5 11.5 C 24.5 11.5 24.5 11.5 24.5 11.5 C 24.5 11.5 24.5 11.5 24.5 11.5 C 24.5 11.5 24.5 11.6 24.4 11.7 C 24.4 11.9 24.4 12 24.4 12 C 24.4 12 24.4 12.1 24.5 12.1 C 24.5 12.1 24.7 12 24.9 12 C 25.1 12 25.2 12 25.2 12 C 25.4 11.9 25.4 11.9 25.5 11.9 C 25.6 11.9 25.7 12 25.7 12.1 C 25.7 12.1 25.7 12.2 25.6 12.2 C 25.5 12.2 25.4 12.3 25.2 12.3 C 25.1 12.3 24.9 12.3 24.7 12.3 C 24.6 12.4 24.4 12.4 24.3 12.4 C 24.2 12.4 24.1 12.4 24.1 12.3 C 24 12.3 24 12.2 24 12.2 C 24 12.2 24 12.1 24 12.1 C 24 12.1 24 12.1 24 12 C 24.1 11.9 24.1 11.7 24.2 11.2 C 24.2 10.8 24.3 10.6 24.3 10.5 C 24.3 10.5 24.3 10.5 24.3 10.5 C 24.3 10.5 24.2 10.5 24.2 10.5 C 24.2 10.4 24.2 10.4 24.2 10.4 C 24.2 10.4 24.2 10.4 24.2 10.3 C 24.2 10.3 24.2 10.3 24.3 10.3 C 24.3 10.3 24.3 10.2 24.4 10.2 C 24.4 10.2 24.5 10.3 24.5 10.3 C 24.6 10.3 24.9 10.2 25.3 10.2 C 25.5 10.1 25.5 10.1 25.5 10.1 C 25.5 10.1 25.6 10.1 25.6 10.1 C 25.7 10.1 25.8 10.2 25.8 10.3 C 25.8 10.3 25.8 10.4 25.8 10.4 C 25.7 10.4 25.7 10.5 25.7 10.5 Z M 26.4 11.4 C 26.4 11.5 26.4 11.5 26.3 11.6 C 26.2 11.6 26.2 11.6 26.1 11.5 C 26.1 11.3 26.1 11.1 26.1 10.9 C 26.2 10.7 26.2 10.5 26.2 10.4 C 26.2 10.4 26.2 10.4 26.2 10.3 C 26.2 10.2 26.3 10.2 26.3 10.2 C 26.4 10.1 26.4 10.1 26.5 10.1 C 26.5 10.1 26.5 10.1 26.6 10.1 C 26.6 10.2 26.6 10.2 26.6 10.2 C 26.6 10.3 26.6 10.4 26.6 10.5 C 26.5 10.7 26.5 10.9 26.4 11 C 26.4 11.2 26.4 11.3 26.4 11.4 C 26.4 11.4 26.4 11.4 26.4 11.4 Z M 26.1 12.2 C 26 12.2 26 12.2 26 12.1 C 26 12 26 12 26 11.9 C 26.1 11.9 26.1 11.8 26.2 11.8 C 26.2 11.8 26.2 11.8 26.3 11.9 C 26.3 11.9 26.4 11.9 26.4 12 C 26.4 12 26.4 12 26.4 12 C 26.3 12.1 26.3 12.2 26.3 12.2 C 26.2 12.2 26.2 12.2 26.1 12.2 Z M 29.7 10.5 C 29.7 10.5 29.3 10.5 29.3 10.5 C 29.1 10.5 29 10.5 28.9 10.5 C 28.7 10.5 28.7 10.6 28.7 10.6 C 28.7 10.6 28.7 10.6 28.7 10.7 C 28.7 10.7 28.6 10.8 28.6 10.9 C 28.6 11 28.6 11.1 28.6 11.1 C 28.6 11.1 28.7 11.1 28.8 11.1 C 28.9 11.1 29 11.1 29.1 11.1 C 29.2 11.1 29.3 11 29.4 11 C 29.6 11 29.6 11.1 29.6 11.2 C 29.6 11.2 29.6 11.3 29.6 11.3 C 29.5 11.3 29.5 11.4 29.4 11.4 C 29.3 11.4 29.3 11.4 29.2 11.4 C 29.1 11.4 29.1 11.4 29 11.4 C 28.8 11.4 28.6 11.5 28.6 11.5 C 28.6 11.5 28.6 11.5 28.6 11.5 C 28.5 11.5 28.5 11.5 28.5 11.5 C 28.5 11.5 28.5 11.6 28.5 11.7 C 28.5 11.9 28.4 12 28.4 12 C 28.5 12 28.5 12.1 28.5 12.1 C 28.6 12.1 28.7 12 28.9 12 C 29.1 12 29.2 12 29.3 12 C 29.4 11.9 29.5 11.9 29.5 11.9 C 29.6 11.9 29.7 12 29.7 12.1 C 29.7 12.1 29.7 12.2 29.7 12.2 C 29.6 12.2 29.4 12.3 29.3 12.3 C 29.1 12.3 29 12.3 28.8 12.3 C 28.6 12.4 28.4 12.4 28.3 12.4 C 28.2 12.4 28.2 12.4 28.1 12.3 C 28.1 12.3 28.1 12.2 28.1 12.2 C 28.1 12.2 28 12.1 28 12.1 C 28 12.1 28.1 12.1 28.1 12 C 28.1 11.9 28.2 11.7 28.2 11.2 C 28.3 10.8 28.3 10.6 28.3 10.5 C 28.3 10.5 28.3 10.5 28.3 10.5 C 28.3 10.5 28.3 10.5 28.3 10.5 C 28.2 10.4 28.2 10.4 28.2 10.4 C 28.2 10.4 28.2 10.4 28.2 10.3 C 28.2 10.3 28.3 10.3 28.3 10.3 C 28.3 10.3 28.4 10.2 28.4 10.2 C 28.5 10.2 28.5 10.3 28.5 10.3 C 28.6 10.3 28.9 10.2 29.3 10.2 C 29.5 10.1 29.6 10.1 29.6 10.1 C 29.6 10.1 29.6 10.1 29.6 10.1 C 29.8 10.1 29.9 10.2 29.9 10.3 C 29.9 10.3 29.8 10.4 29.8 10.4 C 29.8 10.4 29.7 10.5 29.7 10.5 Z M 31.7 10.8 C 31.7 10.9 31.7 11 31.7 11 C 31.7 11.1 31.6 11.1 31.6 11.3 C 31.6 11.5 31.6 11.6 31.6 11.7 C 31.6 11.8 31.6 11.9 31.6 12.1 C 31.6 12.2 31.6 12.2 31.5 12.3 C 31.5 12.3 31.4 12.3 31.4 12.3 C 31.3 12.3 31.3 12.3 31.3 12.2 C 31.2 12.2 31.2 12.1 31.2 11.9 C 31.2 11.8 31.2 11.6 31.3 11.3 C 31.3 11.3 31.4 10.7 31.4 10.7 C 31.4 10.6 31.4 10.5 31.4 10.5 C 31.4 10.3 31.4 10.3 31.4 10.3 C 31.5 10.2 31.5 10.2 31.5 10.2 C 31.6 10.2 31.6 10.1 31.6 10.1 C 31.7 10.1 31.7 10.2 31.8 10.2 C 31.8 10.3 31.8 10.3 31.8 10.4 C 31.8 10.4 31.7 10.8 31.7 10.8 Z M 33.7 10.4 C 33.7 10.6 33.6 10.7 33.4 10.7 C 33.4 10.6 33.4 10.5 33.3 10.5 C 33.3 10.5 33.2 10.4 33.1 10.4 C 32.9 10.4 32.8 10.5 32.7 10.6 C 32.5 10.6 32.4 10.7 32.4 10.8 C 32.4 10.9 32.5 10.9 32.5 11 C 32.6 11 32.7 11.1 32.9 11.1 C 33.2 11.2 33.3 11.3 33.5 11.4 C 33.6 11.5 33.6 11.5 33.6 11.7 C 33.6 11.8 33.5 12 33.2 12.2 C 32.9 12.3 32.6 12.4 32.3 12.4 C 32.2 12.4 32.1 12.4 32.1 12.4 C 32 12.3 32 12.3 32 12.2 C 32 12.1 32 12.1 32 12.1 C 32 12 32.1 12 32.1 12 C 32.1 12 32.1 12 32.2 12 C 32.3 12.1 32.4 12.1 32.5 12.1 C 32.6 12.1 32.8 12 33 11.9 C 33.2 11.9 33.3 11.8 33.3 11.7 C 33.3 11.7 33.2 11.6 33.2 11.6 C 33.1 11.6 33 11.5 32.9 11.5 C 32.7 11.4 32.5 11.3 32.4 11.3 C 32.3 11.3 32.2 11.2 32.2 11.1 C 32.1 11.1 32.1 11 32.1 10.9 C 32.1 10.7 32.2 10.5 32.4 10.4 C 32.6 10.2 32.9 10.1 33.2 10.1 C 33.3 10.1 33.5 10.2 33.5 10.2 C 33.6 10.3 33.7 10.4 33.7 10.4 C 33.7 10.4 33.7 10.4 33.7 10.4 Z M 35.5 10.4 C 35.5 10.6 35.4 10.7 35.3 10.7 C 35.3 10.6 35.2 10.5 35.2 10.5 C 35.1 10.5 35.1 10.4 35 10.4 C 34.8 10.4 34.6 10.5 34.5 10.6 C 34.4 10.6 34.3 10.7 34.3 10.8 C 34.3 10.9 34.3 10.9 34.4 11 C 34.4 11 34.6 11.1 34.8 11.1 C 35 11.2 35.2 11.3 35.3 11.4 C 35.4 11.5 35.5 11.5 35.5 11.7 C 35.5 11.8 35.3 12 35 12.2 C 34.8 12.3 34.5 12.4 34.1 12.4 C 34 12.4 34 12.4 33.9 12.4 C 33.8 12.3 33.8 12.3 33.8 12.2 C 33.8 12.1 33.8 12.1 33.9 12.1 C 33.9 12 33.9 12 34 12 C 34 12 34 12 34 12 C 34.1 12.1 34.2 12.1 34.3 12.1 C 34.5 12.1 34.6 12 34.8 11.9 C 35 11.9 35.1 11.8 35.1 11.7 C 35.1 11.7 35.1 11.6 35 11.6 C 35 11.6 34.9 11.5 34.7 11.5 C 34.5 11.4 34.4 11.3 34.3 11.3 C 34.2 11.3 34.1 11.2 34 11.1 C 34 11.1 33.9 11 33.9 10.9 C 33.9 10.7 34 10.5 34.3 10.4 C 34.5 10.2 34.7 10.1 35 10.1 C 35.2 10.1 35.3 10.2 35.4 10.2 C 35.5 10.3 35.5 10.4 35.5 10.4 C 35.5 10.4 35.5 10.4 35.5 10.4 Z M 36.3 12.4 C 36.2 12.4 36 12.3 35.9 12.1 C 35.8 12 35.7 11.8 35.7 11.6 C 35.7 11.4 35.8 11.2 35.9 11 C 36 10.7 36.2 10.5 36.4 10.4 C 36.6 10.2 36.8 10.1 37 10.1 C 37.1 10.1 37.3 10.2 37.4 10.2 C 37.5 10.2 37.6 10.3 37.7 10.4 C 37.7 10.4 37.8 10.5 37.8 10.6 C 37.9 10.7 37.9 10.8 37.9 10.9 C 37.9 11.1 37.8 11.2 37.8 11.4 C 37.7 11.6 37.6 11.7 37.4 11.9 C 37.3 12 37.1 12.2 37 12.2 C 36.8 12.3 36.6 12.4 36.3 12.4 Z M 36.1 11.6 C 36.1 11.8 36.1 11.9 36.2 11.9 C 36.3 12 36.3 12.1 36.4 12.1 C 36.7 12.1 36.9 11.9 37.2 11.7 C 37.4 11.4 37.5 11.2 37.5 10.9 C 37.5 10.8 37.5 10.7 37.5 10.6 C 37.4 10.6 37.3 10.5 37.3 10.5 C 37.2 10.4 37.1 10.4 37 10.4 C 36.8 10.4 36.6 10.6 36.4 10.8 C 36.2 11.1 36.1 11.4 36.1 11.6 Z M 40.9 10.4 C 40.9 10.6 40.8 10.7 40.6 10.7 C 40.6 10.6 40.6 10.5 40.5 10.5 C 40.5 10.5 40.4 10.4 40.3 10.4 C 40.1 10.4 40 10.5 39.8 10.6 C 39.7 10.6 39.6 10.7 39.6 10.8 C 39.6 10.9 39.7 10.9 39.7 11 C 39.8 11 39.9 11.1 40.1 11.1 C 40.4 11.2 40.5 11.3 40.6 11.4 C 40.7 11.5 40.8 11.5 40.8 11.7 C 40.8 11.8 40.7 12 40.4 12.2 C 40.1 12.3 39.8 12.4 39.5 12.4 C 39.4 12.4 39.3 12.4 39.2 12.4 C 39.2 12.3 39.1 12.3 39.1 12.2 C 39.1 12.1 39.2 12.1 39.2 12.1 C 39.2 12 39.2 12 39.3 12 C 39.3 12 39.3 12 39.4 12 C 39.5 12.1 39.5 12.1 39.6 12.1 C 39.8 12.1 40 12 40.2 11.9 C 40.3 11.9 40.4 11.8 40.4 11.7 C 40.4 11.7 40.4 11.6 40.4 11.6 C 40.3 11.6 40.2 11.5 40.1 11.5 C 39.9 11.4 39.7 11.3 39.6 11.3 C 39.5 11.3 39.4 11.2 39.4 11.1 C 39.3 11.1 39.3 11 39.3 10.9 C 39.3 10.7 39.4 10.5 39.6 10.4 C 39.8 10.2 40.1 10.1 40.3 10.1 C 40.5 10.1 40.6 10.2 40.7 10.2 C 40.8 10.3 40.9 10.4 40.9 10.4 C 40.9 10.4 40.9 10.4 40.9 10.4 Z M 42.8 10.5 C 42.8 10.5 42.3 10.5 42.3 10.5 C 42.2 10.5 42 10.5 41.9 10.5 C 41.8 10.5 41.7 10.6 41.7 10.6 C 41.7 10.6 41.7 10.6 41.7 10.7 C 41.7 10.7 41.7 10.8 41.7 10.9 C 41.6 11 41.6 11.1 41.6 11.1 C 41.7 11.1 41.8 11.1 41.9 11.1 C 42 11.1 42.1 11.1 42.1 11.1 C 42.3 11.1 42.4 11 42.5 11 C 42.6 11 42.7 11.1 42.7 11.2 C 42.7 11.2 42.7 11.3 42.6 11.3 C 42.6 11.3 42.5 11.4 42.4 11.4 C 42.4 11.4 42.3 11.4 42.2 11.4 C 42.2 11.4 42.1 11.4 42.1 11.4 C 41.8 11.4 41.7 11.5 41.6 11.5 C 41.6 11.5 41.6 11.5 41.6 11.5 C 41.6 11.5 41.6 11.5 41.6 11.5 C 41.6 11.5 41.5 11.6 41.5 11.7 C 41.5 11.9 41.5 12 41.5 12 C 41.5 12 41.5 12.1 41.6 12.1 C 41.6 12.1 41.7 12 41.9 12 C 42.1 12 42.3 12 42.3 12 C 42.4 11.9 42.5 11.9 42.6 11.9 C 42.7 11.9 42.7 12 42.7 12.1 C 42.7 12.1 42.7 12.2 42.7 12.2 C 42.6 12.2 42.5 12.3 42.3 12.3 C 42.2 12.3 42 12.3 41.8 12.3 C 41.6 12.4 41.5 12.4 41.3 12.4 C 41.3 12.4 41.2 12.4 41.2 12.3 C 41.1 12.3 41.1 12.2 41.1 12.2 C 41.1 12.2 41.1 12.1 41.1 12.1 C 41.1 12.1 41.1 12.1 41.1 12 C 41.2 11.9 41.2 11.7 41.3 11.2 C 41.3 10.8 41.3 10.6 41.3 10.5 C 41.3 10.5 41.3 10.5 41.3 10.5 C 41.3 10.5 41.3 10.5 41.3 10.5 C 41.3 10.4 41.3 10.4 41.3 10.4 C 41.3 10.4 41.3 10.4 41.3 10.3 C 41.3 10.3 41.3 10.3 41.3 10.3 C 41.4 10.3 41.4 10.2 41.5 10.2 C 41.5 10.2 41.5 10.3 41.6 10.3 C 41.7 10.3 41.9 10.2 42.4 10.2 C 42.5 10.1 42.6 10.1 42.6 10.1 C 42.6 10.1 42.6 10.1 42.6 10.1 C 42.8 10.1 42.9 10.2 42.9 10.3 C 42.9 10.3 42.9 10.4 42.9 10.4 C 42.8 10.4 42.8 10.5 42.8 10.5 Z M 45.5 11.9 C 45.6 11.8 45.7 11.8 45.7 11.8 C 45.8 11.8 45.8 11.8 45.8 11.9 C 45.8 12 45.7 12.1 45.5 12.2 C 45.3 12.3 45.1 12.4 44.9 12.4 C 44.7 12.4 44.5 12.3 44.4 12.2 C 44.2 12.1 44.2 11.9 44.2 11.7 C 44.2 11.5 44.2 11.2 44.4 11 C 44.6 10.7 44.7 10.5 45 10.3 C 45.2 10.1 45.4 10 45.7 10 C 45.8 10 45.9 10.1 46 10.1 C 46 10.2 46.1 10.3 46.1 10.4 C 46.1 10.5 46.1 10.6 46.1 10.7 C 46 10.7 46 10.8 45.9 10.8 C 45.9 10.8 45.8 10.8 45.8 10.8 C 45.8 10.8 45.7 10.8 45.7 10.8 C 45.7 10.8 45.7 10.7 45.7 10.7 C 45.7 10.7 45.7 10.6 45.7 10.6 C 45.7 10.5 45.7 10.5 45.7 10.4 C 45.7 10.3 45.7 10.3 45.6 10.3 C 45.5 10.3 45.3 10.4 45.2 10.5 C 45 10.7 44.8 10.9 44.7 11.1 C 44.6 11.3 44.5 11.5 44.5 11.7 C 44.5 11.8 44.6 11.9 44.6 12 C 44.7 12.1 44.8 12.1 44.9 12.1 C 45 12.1 45.1 12.1 45.2 12 C 45.3 12 45.4 11.9 45.5 11.9 C 45.5 11.9 45.5 11.9 45.5 11.9 Z M 46.7 11.5 C 46.7 11.5 46.7 11.6 46.7 11.9 C 46.7 12 46.6 12.1 46.6 12.2 C 46.6 12.3 46.5 12.4 46.5 12.4 C 46.4 12.4 46.4 12.4 46.3 12.3 C 46.3 12.3 46.3 12.2 46.3 12.2 C 46.3 12.1 46.3 12 46.3 11.9 C 46.4 11.6 46.4 11.1 46.5 10.3 C 46.5 10.2 46.5 10.2 46.6 10.2 C 46.6 10.2 46.6 10.1 46.7 10.1 C 46.8 10.1 46.9 10.2 46.9 10.4 C 46.9 10.4 46.9 10.6 46.8 10.7 C 46.8 10.9 46.8 11 46.8 11.1 C 46.8 11.1 46.8 11.1 46.9 11.1 C 47 11.1 47.2 11.1 47.5 11.1 C 47.7 11.1 47.9 11.1 47.9 11 C 47.9 11 47.9 10.9 47.9 10.7 C 48 10.6 48 10.4 48 10.2 C 48 10.2 48 10.1 48 10.1 C 48.1 10.1 48.1 10 48.2 10 C 48.2 10 48.3 10.1 48.3 10.1 C 48.3 10.1 48.3 10.2 48.3 10.2 C 48.3 10.3 48.3 10.4 48.3 10.6 C 48.2 10.8 48.2 11.1 48.2 11.4 C 48.2 11.8 48.1 12 48.1 12.1 C 48.1 12.2 48.1 12.2 48.1 12.3 C 48 12.3 48 12.4 47.9 12.4 C 47.9 12.4 47.8 12.3 47.8 12.3 C 47.8 12.3 47.7 12.2 47.7 12.2 C 47.7 12.2 47.8 12 47.8 11.8 C 47.8 11.6 47.8 11.5 47.8 11.4 C 47.8 11.4 47.8 11.4 47.8 11.4 C 47.8 11.4 47.7 11.4 47.5 11.4 C 47.4 11.4 47.3 11.4 47.2 11.4 C 47.2 11.4 47.1 11.4 47 11.4 C 46.8 11.4 46.7 11.4 46.7 11.5 Z M 49.1 11.8 C 49 11.8 49 11.8 49 11.8 C 49 11.8 48.9 11.9 48.8 12.1 C 48.8 12.2 48.7 12.3 48.7 12.3 C 48.6 12.3 48.6 12.3 48.6 12.3 C 48.5 12.3 48.5 12.3 48.4 12.3 C 48.4 12.2 48.4 12.2 48.4 12.2 C 48.4 12.1 48.5 11.9 48.7 11.5 C 48.9 11.3 49 11.1 49.1 10.9 C 49.3 10.5 49.5 10.3 49.5 10.2 C 49.6 10.2 49.6 10.1 49.7 10.1 C 49.7 10.1 49.8 10.1 49.8 10.2 C 49.9 10.2 49.9 10.2 49.9 10.3 C 49.9 10.3 49.9 10.4 49.9 10.4 C 50 10.9 50.2 11.3 50.3 11.5 C 50.4 11.8 50.5 11.9 50.6 12 C 50.6 12.1 50.7 12.1 50.7 12.1 C 50.7 12.1 50.7 12.2 50.7 12.2 C 50.7 12.3 50.7 12.3 50.6 12.3 C 50.6 12.4 50.6 12.4 50.5 12.4 C 50.4 12.4 50.3 12.4 50.3 12.3 C 50.2 12.2 50.1 12.1 50.1 11.9 C 50 11.8 50 11.7 50 11.7 C 50 11.7 50 11.7 49.9 11.7 C 49.9 11.7 49.8 11.7 49.6 11.7 C 49.4 11.7 49.3 11.8 49.2 11.8 C 49.1 11.8 49.1 11.8 49.1 11.8 C 49.1 11.8 49.1 11.8 49.1 11.8 Z M 49.7 11.4 C 49.7 11.4 49.8 11.4 49.8 11.4 C 49.8 11.3 49.7 11.1 49.6 10.7 C 49.6 10.7 49.6 10.7 49.6 10.7 C 49.6 10.7 49.2 11.5 49.2 11.5 C 49.3 11.5 49.3 11.4 49.4 11.4 C 49.4 11.4 49.5 11.4 49.7 11.4 C 49.7 11.4 49.7 11.4 49.7 11.4 Z M 52.9 10.8 C 52.9 10.7 52.9 10.7 52.9 10.7 C 52.9 10.7 52.5 11.3 52.5 11.3 C 52.2 11.6 52.1 11.8 51.9 11.8 C 51.9 11.8 51.8 11.8 51.8 11.7 C 51.7 11.6 51.7 11.5 51.6 11.4 C 51.6 11.3 51.6 11.2 51.5 11.1 C 51.5 10.9 51.5 10.9 51.5 10.8 C 51.5 10.8 51.4 11.2 51.4 11.2 C 51.4 11.3 51.3 11.4 51.3 11.5 C 51.3 11.7 51.3 11.8 51.2 11.9 C 51.2 12.1 51.2 12.2 51.2 12.2 C 51.2 12.3 51.2 12.3 51.1 12.3 C 51.1 12.4 51 12.4 51 12.4 C 51 12.4 50.9 12.3 50.9 12.3 C 50.8 12.3 50.8 12.2 50.8 12.2 C 50.8 12.1 50.8 12 50.9 11.8 C 51 11.2 51.1 10.9 51.2 10.7 C 51.2 10.5 51.2 10.4 51.2 10.3 C 51.2 10.3 51.2 10.2 51.3 10.2 C 51.3 10.2 51.4 10.2 51.4 10.2 C 51.5 10.2 51.5 10.2 51.6 10.2 C 51.6 10.3 51.6 10.3 51.6 10.4 C 51.64 10.38 51.6 10.4 51.6 10.4 C 51.6 10.4 51.84 10.95 51.8 10.9 C 51.9 11.2 52 11.3 52 11.4 C 52.1 11.3 52.3 11.1 52.5 10.8 C 52.7 10.5 52.8 10.3 52.9 10.2 C 53 10.2 53 10.1 53.1 10.1 C 53.1 10.1 53.2 10.1 53.2 10.2 C 53.3 10.2 53.3 10.3 53.3 10.3 C 53.3 10.3 53.3 10.5 53.2 10.7 C 53.2 10.9 53.2 11.1 53.2 11.4 C 53.2 11.6 53.1 11.7 53.1 11.8 C 53.1 11.8 53.1 11.9 53.2 12 C 53.2 12 53.2 12 53.2 12.1 C 53.2 12.2 53.2 12.2 53.1 12.3 C 53.1 12.3 53 12.3 53 12.3 C 52.8 12.3 52.8 12.2 52.8 12 C 52.8 11.9 52.8 11.6 52.8 11.4 C 52.9 11.1 52.9 10.9 52.9 10.8 C 52.9 10.8 52.9 10.8 52.9 10.8 Z M 54.1 11.8 C 54.1 11.8 54.1 11.8 54 11.8 C 54 11.8 54 11.9 53.9 12.1 C 53.8 12.2 53.7 12.3 53.7 12.3 C 53.7 12.3 53.6 12.3 53.6 12.3 C 53.6 12.3 53.5 12.3 53.5 12.3 C 53.4 12.2 53.4 12.2 53.4 12.2 C 53.4 12.1 53.5 11.9 53.8 11.5 C 53.9 11.3 54 11.1 54.1 10.9 C 54.4 10.5 54.5 10.3 54.6 10.2 C 54.6 10.2 54.7 10.1 54.7 10.1 C 54.8 10.1 54.8 10.1 54.9 10.2 C 54.9 10.2 54.9 10.2 54.9 10.3 C 54.9 10.3 54.9 10.4 54.9 10.4 C 55.1 10.9 55.2 11.3 55.3 11.5 C 55.4 11.8 55.5 11.9 55.6 12 C 55.7 12.1 55.7 12.1 55.7 12.1 C 55.7 12.1 55.7 12.2 55.7 12.2 C 55.7 12.3 55.7 12.3 55.7 12.3 C 55.6 12.4 55.6 12.4 55.5 12.4 C 55.5 12.4 55.4 12.4 55.3 12.3 C 55.2 12.2 55.2 12.1 55.1 11.9 C 55 11.8 55 11.7 55 11.7 C 55 11.7 55 11.7 55 11.7 C 54.9 11.7 54.8 11.7 54.6 11.7 C 54.5 11.7 54.3 11.8 54.2 11.8 C 54.2 11.8 54.1 11.8 54.1 11.8 C 54.1 11.8 54.1 11.8 54.1 11.8 Z M 54.7 11.4 C 54.8 11.4 54.8 11.4 54.9 11.4 C 54.9 11.3 54.8 11.1 54.7 10.7 C 54.7 10.7 54.6 10.7 54.6 10.7 C 54.6 10.7 54.2 11.5 54.2 11.5 C 54.3 11.5 54.4 11.4 54.4 11.4 C 54.5 11.4 54.6 11.4 54.7 11.4 C 54.7 11.4 54.7 11.4 54.7 11.4 Z M 59.2 10.3 C 59.2 10.3 59.2 10.3 59.2 10.3 C 59.2 10.3 59.2 10.3 59.1 10.4 C 59 10.6 58.9 10.7 58.8 10.8 C 58.8 10.9 58.6 11.2 58.5 11.5 C 58.4 11.6 58.3 11.8 58.2 11.8 C 58.2 11.9 58.1 12.1 58.1 12.1 C 58.1 12.2 58 12.2 58 12.2 C 57.9 12.3 57.9 12.3 57.8 12.3 C 57.8 12.3 57.7 12.3 57.7 12.2 C 57.7 12.2 57.6 12.1 57.6 11.9 C 57.5 11.8 57.4 11.6 57.3 11.3 C 57.1 10.7 57 10.4 57 10.4 C 57 10.4 57 10.3 57 10.3 C 57.1 10.2 57.1 10.2 57.2 10.2 C 57.2 10.2 57.3 10.2 57.3 10.2 C 57.4 10.3 57.4 10.4 57.4 10.5 C 57.4 10.6 57.5 10.8 57.6 11.1 C 57.7 11.4 57.8 11.7 57.9 11.8 C 57.9 11.8 58 11.7 58 11.6 C 58 11.6 58 11.6 58 11.6 C 58.2 11.4 58.3 11.2 58.4 11 C 58.5 10.7 58.7 10.5 58.8 10.3 C 58.9 10.2 59 10.1 59.1 10.1 C 59.2 10.1 59.2 10.1 59.2 10.2 C 59.22 10.24 59.2 10.3 59.2 10.3 C 59.2 10.3 59.22 10.25 59.2 10.3 Z M 59.7 12.4 C 59.5 12.4 59.4 12.3 59.2 12.1 C 59.1 12 59 11.8 59 11.6 C 59 11.4 59.1 11.2 59.2 11 C 59.4 10.7 59.5 10.5 59.7 10.4 C 59.9 10.2 60.1 10.1 60.3 10.1 C 60.5 10.1 60.6 10.2 60.7 10.2 C 60.8 10.2 60.9 10.3 61 10.4 C 61.1 10.4 61.2 10.5 61.2 10.6 C 61.2 10.7 61.2 10.8 61.2 10.9 C 61.2 11.1 61.2 11.2 61.1 11.4 C 61 11.6 60.9 11.7 60.8 11.9 C 60.6 12 60.5 12.2 60.3 12.2 C 60.1 12.3 59.9 12.4 59.7 12.4 Z M 59.4 11.6 C 59.4 11.8 59.5 11.9 59.5 11.9 C 59.6 12 59.7 12.1 59.8 12.1 C 60 12.1 60.3 11.9 60.5 11.7 C 60.7 11.4 60.9 11.2 60.9 10.9 C 60.9 10.8 60.8 10.7 60.8 10.6 C 60.8 10.6 60.7 10.5 60.6 10.5 C 60.5 10.4 60.4 10.4 60.3 10.4 C 60.1 10.4 59.9 10.6 59.7 10.8 C 59.5 11.1 59.4 11.4 59.4 11.6 Z M 63.1 10.5 C 62.8 10.5 62.7 10.5 62.6 10.5 C 62.6 10.5 62.6 10.6 62.6 10.6 C 62.5 10.6 62.5 10.8 62.5 11.1 C 62.5 11.4 62.4 11.6 62.4 11.8 C 62.4 11.9 62.5 12 62.5 12.1 C 62.5 12.1 62.5 12.1 62.5 12.1 C 62.5 12.2 62.5 12.2 62.4 12.3 C 62.4 12.3 62.4 12.3 62.3 12.3 C 62.3 12.3 62.2 12.3 62.2 12.3 C 62.1 12.2 62.1 12.2 62.1 12.1 C 62.1 12 62.1 11.9 62.1 11.8 C 62.1 11.7 62.1 11.4 62.1 11.1 C 62.2 10.7 62.2 10.6 62.2 10.6 C 62.2 10.6 62.1 10.6 61.9 10.6 C 61.7 10.6 61.6 10.6 61.6 10.6 C 61.5 10.6 61.4 10.6 61.3 10.6 C 61.3 10.5 61.3 10.5 61.3 10.5 C 61.3 10.4 61.3 10.4 61.3 10.3 C 61.4 10.3 61.5 10.3 61.7 10.3 C 61.9 10.3 62.2 10.3 62.5 10.2 C 62.8 10.2 63 10.2 63.2 10.2 C 63.4 10.2 63.5 10.2 63.5 10.2 C 63.5 10.3 63.6 10.3 63.6 10.4 C 63.6 10.5 63.5 10.5 63.4 10.5 C 63.4 10.5 63.4 10.5 63.3 10.5 C 63.2 10.5 63.2 10.5 63.1 10.5 C 63.1 10.5 63.1 10.5 63.1 10.5 Z M 64 12.4 C 63.8 12.4 63.7 12.3 63.5 12.1 C 63.4 12 63.4 11.8 63.4 11.6 C 63.4 11.4 63.4 11.2 63.5 11 C 63.7 10.7 63.8 10.5 64 10.4 C 64.2 10.2 64.4 10.1 64.6 10.1 C 64.8 10.1 64.9 10.2 65 10.2 C 65.1 10.2 65.2 10.3 65.3 10.4 C 65.4 10.4 65.5 10.5 65.5 10.6 C 65.5 10.7 65.5 10.8 65.5 10.9 C 65.5 11.1 65.5 11.2 65.4 11.4 C 65.3 11.6 65.2 11.7 65.1 11.9 C 64.9 12 64.8 12.2 64.6 12.2 C 64.4 12.3 64.2 12.4 64 12.4 Z M 63.7 11.6 C 63.7 11.8 63.8 11.9 63.8 11.9 C 63.9 12 64 12.1 64.1 12.1 C 64.3 12.1 64.6 11.9 64.8 11.7 C 65 11.4 65.2 11.2 65.2 10.9 C 65.2 10.8 65.1 10.7 65.1 10.6 C 65.1 10.6 65 10.5 64.9 10.5 C 64.8 10.4 64.7 10.4 64.6 10.4 C 64.4 10.4 64.2 10.6 64 10.8 C 63.8 11.1 63.7 11.4 63.7 11.6 Z " stroke="none" fill="#000"/>  </g>  <g id="Polygon13523">    <path d="M 6.5 6.5 C 6.5 6.5 6.1 6.5 6.1 6.5 C 5.9 6.5 5.8 6.5 5.6 6.5 C 5.5 6.5 5.5 6.6 5.5 6.6 C 5.5 6.6 5.4 6.6 5.4 6.7 C 5.4 6.7 5.4 6.8 5.4 6.9 C 5.4 7 5.4 7.1 5.3 7.1 C 5.4 7.1 5.5 7.1 5.6 7.1 C 5.7 7.1 5.8 7.1 5.9 7.1 C 6 7.1 6.1 7 6.2 7 C 6.3 7 6.4 7.1 6.4 7.2 C 6.4 7.2 6.4 7.3 6.4 7.3 C 6.3 7.3 6.3 7.4 6.2 7.4 C 6.1 7.4 6 7.4 6 7.4 C 5.9 7.4 5.9 7.4 5.8 7.4 C 5.6 7.4 5.4 7.5 5.3 7.5 C 5.3 7.5 5.3 7.5 5.3 7.5 C 5.3 7.5 5.3 7.5 5.3 7.5 C 5.3 7.5 5.3 7.6 5.3 7.7 C 5.2 7.9 5.2 8 5.2 8 C 5.2 8 5.3 8.1 5.3 8.1 C 5.3 8.1 5.5 8 5.7 8 C 5.9 8 6 8 6 8 C 6.2 7.9 6.3 7.9 6.3 7.9 C 6.4 7.9 6.5 8 6.5 8.1 C 6.5 8.1 6.5 8.2 6.4 8.2 C 6.3 8.2 6.2 8.3 6 8.3 C 5.9 8.3 5.7 8.3 5.6 8.3 C 5.4 8.4 5.2 8.4 5.1 8.4 C 5 8.4 4.9 8.4 4.9 8.3 C 4.9 8.3 4.8 8.2 4.8 8.2 C 4.8 8.2 4.8 8.1 4.8 8.1 C 4.8 8.1 4.8 8.1 4.9 8 C 4.9 7.9 4.9 7.7 5 7.2 C 5.1 6.8 5.1 6.6 5.1 6.5 C 5.1 6.5 5.1 6.5 5.1 6.5 C 5.1 6.5 5.1 6.5 5 6.5 C 5 6.4 5 6.4 5 6.4 C 5 6.4 5 6.4 5 6.3 C 5 6.3 5.1 6.3 5.1 6.3 C 5.1 6.3 5.2 6.2 5.2 6.2 C 5.2 6.2 5.3 6.3 5.3 6.3 C 5.4 6.3 5.7 6.2 6.1 6.2 C 6.3 6.1 6.4 6.1 6.4 6.1 C 6.4 6.1 6.4 6.1 6.4 6.1 C 6.6 6.1 6.6 6.2 6.6 6.3 C 6.6 6.3 6.6 6.4 6.6 6.4 C 6.6 6.4 6.5 6.5 6.5 6.5 Z M 8.2 8.2 C 8.2 8.2 8.2 8.2 8.1 8.2 C 8.1 8.2 8 8.2 8 8.2 C 7.7 8.2 7.5 8.2 7.2 8.3 C 7.1 8.3 7 8.4 7 8.4 C 6.9 8.4 6.9 8.3 6.9 8.3 C 6.8 8.2 6.8 8.2 6.8 8.2 C 6.8 8.1 6.8 8.1 6.8 8 C 6.9 7.9 6.9 7.8 6.9 7.7 C 6.9 7.7 7 6.5 7 6.5 C 7 6.4 7 6.3 7 6.3 C 7.1 6.2 7.1 6.2 7.1 6.2 C 7.1 6.2 7.2 6.1 7.2 6.1 C 7.3 6.1 7.3 6.2 7.4 6.2 C 7.4 6.2 7.4 6.3 7.4 6.3 C 7.4 6.3 7.4 6.4 7.4 6.5 C 7.4 6.6 7.3 6.9 7.3 7.3 C 7.2 7.7 7.2 7.9 7.2 7.9 C 7.2 7.9 7.2 8 7.2 8 C 7.3 8 7.4 7.9 7.5 7.9 C 7.6 7.9 7.7 7.9 7.8 7.9 C 8 7.9 8.2 7.9 8.3 7.8 C 8.3 7.8 8.3 7.8 8.3 7.8 C 8.4 7.8 8.4 7.8 8.5 7.9 C 8.5 7.9 8.5 7.9 8.5 8 C 8.5 8.1 8.5 8.1 8.4 8.1 C 8.4 8.2 8.3 8.2 8.2 8.2 Z M 10.3 6.5 C 10.3 6.5 9.9 6.5 9.9 6.5 C 9.7 6.5 9.6 6.5 9.5 6.5 C 9.3 6.5 9.3 6.6 9.3 6.6 C 9.3 6.6 9.3 6.6 9.3 6.7 C 9.2 6.7 9.2 6.8 9.2 6.9 C 9.2 7 9.2 7.1 9.2 7.1 C 9.2 7.1 9.3 7.1 9.4 7.1 C 9.5 7.1 9.6 7.1 9.7 7.1 C 9.8 7.1 9.9 7 10 7 C 10.2 7 10.2 7.1 10.2 7.2 C 10.2 7.2 10.2 7.3 10.2 7.3 C 10.1 7.3 10.1 7.4 10 7.4 C 9.9 7.4 9.8 7.4 9.8 7.4 C 9.7 7.4 9.7 7.4 9.6 7.4 C 9.4 7.4 9.2 7.5 9.2 7.5 C 9.2 7.5 9.2 7.5 9.2 7.5 C 9.1 7.5 9.1 7.5 9.1 7.5 C 9.1 7.5 9.1 7.6 9.1 7.7 C 9.1 7.9 9 8 9 8 C 9 8 9.1 8.1 9.1 8.1 C 9.2 8.1 9.3 8 9.5 8 C 9.7 8 9.8 8 9.9 8 C 10 7.9 10.1 7.9 10.1 7.9 C 10.2 7.9 10.3 8 10.3 8.1 C 10.3 8.1 10.3 8.2 10.3 8.2 C 10.2 8.2 10 8.3 9.8 8.3 C 9.7 8.3 9.6 8.3 9.4 8.3 C 9.2 8.4 9 8.4 8.9 8.4 C 8.8 8.4 8.7 8.4 8.7 8.3 C 8.7 8.3 8.7 8.2 8.6 8.2 C 8.6 8.2 8.6 8.1 8.6 8.1 C 8.6 8.1 8.7 8.1 8.7 8 C 8.7 7.9 8.8 7.7 8.8 7.2 C 8.9 6.8 8.9 6.6 8.9 6.5 C 8.9 6.5 8.9 6.5 8.9 6.5 C 8.9 6.5 8.9 6.5 8.9 6.5 C 8.8 6.4 8.8 6.4 8.8 6.4 C 8.8 6.4 8.8 6.4 8.8 6.3 C 8.8 6.3 8.9 6.3 8.9 6.3 C 8.9 6.3 9 6.2 9 6.2 C 9.1 6.2 9.1 6.3 9.1 6.3 C 9.2 6.3 9.5 6.2 9.9 6.2 C 10.1 6.1 10.2 6.1 10.2 6.1 C 10.2 6.1 10.2 6.1 10.2 6.1 C 10.4 6.1 10.5 6.2 10.5 6.3 C 10.5 6.3 10.4 6.4 10.4 6.4 C 10.4 6.4 10.3 6.5 10.3 6.5 Z M 11.2 6.8 C 11.1 6.9 11.1 7 11.1 7 C 11.1 7.1 11.1 7.1 11.1 7.3 C 11 7.5 11 7.6 11 7.7 C 11 7.8 11 7.9 11.1 8.1 C 11.1 8.2 11.1 8.2 11 8.3 C 11 8.3 10.9 8.3 10.9 8.3 C 10.8 8.3 10.7 8.3 10.7 8.2 C 10.7 8.2 10.7 8.1 10.7 7.9 C 10.7 7.8 10.7 7.6 10.7 7.3 C 10.7 7.3 10.8 6.7 10.8 6.7 C 10.8 6.6 10.8 6.5 10.8 6.5 C 10.9 6.3 10.9 6.3 10.9 6.3 C 10.9 6.2 10.9 6.2 11 6.2 C 11 6.2 11.1 6.1 11.1 6.1 C 11.1 6.1 11.2 6.2 11.2 6.2 C 11.2 6.3 11.3 6.3 11.3 6.4 C 11.3 6.4 11.2 6.8 11.2 6.8 Z M 13.1 6.5 C 12.9 6.5 12.7 6.5 12.6 6.5 C 12.6 6.5 12.6 6.6 12.6 6.6 C 12.6 6.6 12.6 6.8 12.5 7.1 C 12.5 7.4 12.5 7.6 12.5 7.8 C 12.5 7.9 12.5 8 12.5 8.1 C 12.5 8.1 12.5 8.1 12.5 8.1 C 12.5 8.2 12.5 8.2 12.5 8.3 C 12.5 8.3 12.4 8.3 12.4 8.3 C 12.3 8.3 12.3 8.3 12.2 8.3 C 12.2 8.2 12.2 8.2 12.2 8.1 C 12.1 8 12.1 7.9 12.1 7.8 C 12.1 7.7 12.2 7.4 12.2 7.1 C 12.2 6.7 12.3 6.6 12.3 6.6 C 12.2 6.6 12.1 6.6 11.9 6.6 C 11.8 6.6 11.6 6.6 11.6 6.6 C 11.5 6.6 11.4 6.6 11.4 6.6 C 11.4 6.5 11.3 6.5 11.3 6.5 C 11.3 6.4 11.4 6.4 11.4 6.3 C 11.4 6.3 11.6 6.3 11.7 6.3 C 12 6.3 12.3 6.3 12.5 6.2 C 12.9 6.2 13.1 6.2 13.2 6.2 C 13.4 6.2 13.5 6.2 13.6 6.2 C 13.6 6.3 13.6 6.3 13.6 6.4 C 13.6 6.5 13.6 6.5 13.5 6.5 C 13.5 6.5 13.4 6.5 13.4 6.5 C 13.3 6.5 13.2 6.5 13.1 6.5 C 13.1 6.5 13.1 6.5 13.1 6.5 Z M 14 8.4 C 13.9 8.4 13.7 8.3 13.6 8.1 C 13.5 8 13.4 7.8 13.4 7.6 C 13.4 7.4 13.5 7.2 13.6 7 C 13.7 6.7 13.9 6.5 14.1 6.4 C 14.3 6.2 14.5 6.1 14.7 6.1 C 14.8 6.1 15 6.2 15.1 6.2 C 15.2 6.2 15.3 6.3 15.4 6.4 C 15.5 6.4 15.5 6.5 15.5 6.6 C 15.6 6.7 15.6 6.8 15.6 6.9 C 15.6 7.1 15.5 7.2 15.5 7.4 C 15.4 7.6 15.3 7.7 15.1 7.9 C 15 8 14.8 8.2 14.7 8.2 C 14.5 8.3 14.3 8.4 14 8.4 Z M 13.8 7.6 C 13.8 7.8 13.8 7.9 13.9 7.9 C 14 8 14 8.1 14.1 8.1 C 14.4 8.1 14.6 7.9 14.9 7.7 C 15.1 7.4 15.2 7.2 15.2 6.9 C 15.2 6.8 15.2 6.7 15.2 6.6 C 15.1 6.6 15.1 6.5 15 6.5 C 14.9 6.4 14.8 6.4 14.7 6.4 C 14.5 6.4 14.3 6.6 14.1 6.8 C 13.9 7.1 13.8 7.4 13.8 7.6 Z M 16 6.5 C 16 6.5 16 6.48 16 6.5 C 16 6.4 15.9 6.4 15.9 6.4 C 15.9 6.3 16 6.3 16 6.2 C 16.1 6.2 16.1 6.2 16.2 6.2 C 16.2 6.2 16.2 6.2 16.2 6.2 C 16.2 6.2 16.3 6.2 16.3 6.2 C 16.6 6.2 16.8 6.1 16.9 6.1 C 17.1 6.1 17.3 6.2 17.4 6.3 C 17.5 6.4 17.6 6.5 17.6 6.7 C 17.6 6.8 17.5 7 17.4 7.1 C 17.3 7.2 17.1 7.3 16.9 7.4 C 17.2 7.7 17.5 7.9 17.7 8 C 17.7 8 17.8 8.1 17.8 8.1 C 17.8 8.2 17.8 8.2 17.7 8.2 C 17.7 8.3 17.6 8.3 17.6 8.3 C 17.5 8.3 17.5 8.3 17.4 8.2 C 17.3 8.2 17.2 8.1 17.1 8 C 17 7.9 16.9 7.8 16.9 7.8 C 16.7 7.7 16.5 7.6 16.5 7.5 C 16.4 7.5 16.3 7.5 16.3 7.4 C 16.3 7.3 16.3 7.3 16.4 7.2 C 16.4 7.2 16.5 7.2 16.5 7.2 C 16.5 7.2 16.6 7.2 16.6 7.2 C 16.6 7.2 16.6 7.2 16.6 7.2 C 16.7 7.2 16.8 7.1 17 7 C 17.1 6.9 17.2 6.8 17.2 6.7 C 17.2 6.6 17.2 6.5 17.1 6.5 C 17 6.4 17 6.4 16.8 6.4 C 16.7 6.4 16.6 6.4 16.5 6.4 C 16.5 6.5 16.4 6.5 16.4 6.5 C 16.4 6.5 16.4 6.5 16.4 6.5 C 16.4 6.5 16.3 6.7 16.3 6.8 C 16.3 7 16.2 7.2 16.2 7.4 C 16.2 7.6 16.2 7.8 16.2 7.9 C 16.2 7.9 16.2 8 16.2 8 C 16.2 8.1 16.2 8.1 16.2 8.2 C 16.2 8.2 16.2 8.2 16.1 8.3 C 16.1 8.3 16.1 8.3 16 8.3 C 15.9 8.3 15.8 8.3 15.8 8.1 C 15.8 7.9 15.8 7.7 15.9 7.4 C 15.9 7.2 15.9 6.9 16 6.7 C 16 6.7 16 6.6 16 6.6 C 15.99 6.61 16 6.5 16 6.5 Z M 18.4 7.8 C 18.4 7.8 18.3 7.8 18.3 7.8 C 18.3 7.8 18.3 7.9 18.2 8.1 C 18.1 8.2 18 8.3 18 8.3 C 18 8.3 17.9 8.3 17.9 8.3 C 17.9 8.3 17.8 8.3 17.8 8.3 C 17.7 8.2 17.7 8.2 17.7 8.2 C 17.7 8.1 17.8 7.9 18.1 7.5 C 18.2 7.3 18.3 7.1 18.4 6.9 C 18.7 6.5 18.8 6.3 18.8 6.2 C 18.9 6.2 18.9 6.1 19 6.1 C 19.1 6.1 19.1 6.1 19.2 6.2 C 19.2 6.2 19.2 6.2 19.2 6.3 C 19.2 6.3 19.2 6.4 19.2 6.4 C 19.4 6.9 19.5 7.3 19.6 7.5 C 19.7 7.8 19.8 7.9 19.9 8 C 20 8.1 20 8.1 20 8.1 C 20 8.1 20 8.2 20 8.2 C 20 8.3 20 8.3 20 8.3 C 19.9 8.4 19.9 8.4 19.8 8.4 C 19.8 8.4 19.7 8.4 19.6 8.3 C 19.5 8.2 19.5 8.1 19.4 7.9 C 19.3 7.8 19.3 7.7 19.3 7.7 C 19.3 7.7 19.3 7.7 19.3 7.7 C 19.2 7.7 19.1 7.7 18.9 7.7 C 18.7 7.7 18.6 7.8 18.5 7.8 C 18.5 7.8 18.4 7.8 18.4 7.8 C 18.4 7.8 18.4 7.8 18.4 7.8 Z M 19 7.4 C 19.1 7.4 19.1 7.4 19.2 7.4 C 19.1 7.3 19.1 7.1 19 6.7 C 18.9 6.7 18.9 6.7 18.9 6.7 C 18.9 6.7 18.5 7.5 18.5 7.5 C 18.6 7.5 18.6 7.4 18.7 7.4 C 18.7 7.4 18.9 7.4 19 7.4 C 19 7.4 19 7.4 19 7.4 Z M 21.6 8.2 C 21.6 8.2 21.6 8.2 21.5 8.2 C 21.4 8.2 21.4 8.2 21.4 8.2 C 21.1 8.2 20.8 8.2 20.6 8.3 C 20.5 8.3 20.4 8.4 20.4 8.4 C 20.3 8.4 20.3 8.3 20.2 8.3 C 20.2 8.2 20.2 8.2 20.2 8.2 C 20.2 8.1 20.2 8.1 20.2 8 C 20.2 7.9 20.2 7.8 20.3 7.7 C 20.3 7.7 20.4 6.5 20.4 6.5 C 20.4 6.4 20.4 6.3 20.4 6.3 C 20.4 6.2 20.5 6.2 20.5 6.2 C 20.5 6.2 20.6 6.1 20.6 6.1 C 20.7 6.1 20.7 6.2 20.7 6.2 C 20.8 6.2 20.8 6.3 20.8 6.3 C 20.8 6.3 20.8 6.4 20.8 6.5 C 20.7 6.6 20.7 6.9 20.7 7.3 C 20.6 7.7 20.6 7.9 20.6 7.9 C 20.6 7.9 20.6 8 20.6 8 C 20.6 8 20.8 7.9 20.9 7.9 C 21 7.9 21.1 7.9 21.2 7.9 C 21.4 7.9 21.5 7.9 21.6 7.8 C 21.7 7.8 21.7 7.8 21.7 7.8 C 21.8 7.8 21.8 7.8 21.8 7.9 C 21.9 7.9 21.9 7.9 21.9 8 C 21.9 8.1 21.8 8.1 21.8 8.1 C 21.7 8.2 21.7 8.2 21.6 8.2 Z M 24.8 6.5 C 24.8 6.5 24.4 6.5 24.4 6.5 C 24.2 6.5 24.1 6.5 24 6.5 C 23.9 6.5 23.8 6.6 23.8 6.6 C 23.8 6.6 23.8 6.6 23.8 6.7 C 23.8 6.7 23.7 6.8 23.7 6.9 C 23.7 7 23.7 7.1 23.7 7.1 C 23.7 7.1 23.8 7.1 23.9 7.1 C 24.1 7.1 24.1 7.1 24.2 7.1 C 24.3 7.1 24.4 7 24.5 7 C 24.7 7 24.7 7.1 24.7 7.2 C 24.7 7.2 24.7 7.3 24.7 7.3 C 24.6 7.3 24.6 7.4 24.5 7.4 C 24.4 7.4 24.4 7.4 24.3 7.4 C 24.3 7.4 24.2 7.4 24.2 7.4 C 23.9 7.4 23.7 7.5 23.7 7.5 C 23.7 7.5 23.7 7.5 23.7 7.5 C 23.7 7.5 23.6 7.5 23.6 7.5 C 23.6 7.5 23.6 7.6 23.6 7.7 C 23.6 7.9 23.6 8 23.6 8 C 23.6 8 23.6 8.1 23.6 8.1 C 23.7 8.1 23.8 8 24 8 C 24.2 8 24.3 8 24.4 8 C 24.5 7.9 24.6 7.9 24.6 7.9 C 24.8 7.9 24.8 8 24.8 8.1 C 24.8 8.1 24.8 8.2 24.8 8.2 C 24.7 8.2 24.5 8.3 24.4 8.3 C 24.2 8.3 24.1 8.3 23.9 8.3 C 23.7 8.4 23.5 8.4 23.4 8.4 C 23.3 8.4 23.3 8.4 23.2 8.3 C 23.2 8.3 23.2 8.2 23.2 8.2 C 23.2 8.2 23.2 8.1 23.2 8.1 C 23.2 8.1 23.2 8.1 23.2 8 C 23.2 7.9 23.3 7.7 23.3 7.2 C 23.4 6.8 23.4 6.6 23.4 6.5 C 23.4 6.5 23.4 6.5 23.4 6.5 C 23.4 6.5 23.4 6.5 23.4 6.5 C 23.4 6.4 23.3 6.4 23.3 6.4 C 23.3 6.4 23.3 6.4 23.4 6.3 C 23.4 6.3 23.4 6.3 23.4 6.3 C 23.5 6.3 23.5 6.2 23.5 6.2 C 23.6 6.2 23.6 6.3 23.7 6.3 C 23.7 6.3 24 6.2 24.5 6.2 C 24.6 6.1 24.7 6.1 24.7 6.1 C 24.7 6.1 24.7 6.1 24.7 6.1 C 24.9 6.1 25 6.2 25 6.3 C 25 6.3 25 6.4 24.9 6.4 C 24.9 6.4 24.9 6.5 24.8 6.5 Z M 27.9 6.5 C 27.7 6.5 27.5 6.5 27.4 6.5 C 27.4 6.5 27.4 6.6 27.4 6.6 C 27.4 6.6 27.4 6.8 27.3 7.1 C 27.3 7.4 27.3 7.6 27.3 7.8 C 27.3 7.9 27.3 8 27.3 8.1 C 27.3 8.1 27.3 8.1 27.3 8.1 C 27.3 8.2 27.3 8.2 27.3 8.3 C 27.2 8.3 27.2 8.3 27.1 8.3 C 27.1 8.3 27.1 8.3 27 8.3 C 27 8.2 26.9 8.2 26.9 8.1 C 26.9 8 26.9 7.9 26.9 7.8 C 26.9 7.7 26.9 7.4 27 7.1 C 27 6.7 27 6.6 27 6.6 C 27 6.6 26.9 6.6 26.7 6.6 C 26.5 6.6 26.4 6.6 26.4 6.6 C 26.3 6.6 26.2 6.6 26.2 6.6 C 26.1 6.5 26.1 6.5 26.1 6.5 C 26.1 6.4 26.1 6.4 26.2 6.3 C 26.2 6.3 26.3 6.3 26.5 6.3 C 26.8 6.3 27 6.3 27.3 6.2 C 27.6 6.2 27.9 6.2 28 6.2 C 28.2 6.2 28.3 6.2 28.3 6.2 C 28.4 6.3 28.4 6.3 28.4 6.4 C 28.4 6.5 28.3 6.5 28.3 6.5 C 28.2 6.5 28.2 6.5 28.1 6.5 C 28.1 6.5 28 6.5 27.9 6.5 C 27.9 6.5 27.9 6.5 27.9 6.5 Z M 29.9 6.5 C 29.9 6.5 29.5 6.5 29.5 6.5 C 29.3 6.5 29.2 6.5 29 6.5 C 28.9 6.5 28.9 6.6 28.9 6.6 C 28.9 6.6 28.8 6.6 28.8 6.7 C 28.8 6.7 28.8 6.8 28.8 6.9 C 28.8 7 28.8 7.1 28.7 7.1 C 28.8 7.1 28.9 7.1 29 7.1 C 29.1 7.1 29.2 7.1 29.3 7.1 C 29.4 7.1 29.5 7 29.6 7 C 29.7 7 29.8 7.1 29.8 7.2 C 29.8 7.2 29.8 7.3 29.8 7.3 C 29.7 7.3 29.7 7.4 29.6 7.4 C 29.5 7.4 29.4 7.4 29.4 7.4 C 29.3 7.4 29.3 7.4 29.2 7.4 C 29 7.4 28.8 7.5 28.7 7.5 C 28.7 7.5 28.7 7.5 28.7 7.5 C 28.7 7.5 28.7 7.5 28.7 7.5 C 28.7 7.5 28.7 7.6 28.7 7.7 C 28.6 7.9 28.6 8 28.6 8 C 28.6 8 28.7 8.1 28.7 8.1 C 28.7 8.1 28.9 8 29.1 8 C 29.3 8 29.4 8 29.4 8 C 29.6 7.9 29.7 7.9 29.7 7.9 C 29.8 7.9 29.9 8 29.9 8.1 C 29.9 8.1 29.9 8.2 29.8 8.2 C 29.7 8.2 29.6 8.3 29.4 8.3 C 29.3 8.3 29.1 8.3 29 8.3 C 28.8 8.4 28.6 8.4 28.5 8.4 C 28.4 8.4 28.3 8.4 28.3 8.3 C 28.3 8.3 28.2 8.2 28.2 8.2 C 28.2 8.2 28.2 8.1 28.2 8.1 C 28.2 8.1 28.2 8.1 28.3 8 C 28.3 7.9 28.3 7.7 28.4 7.2 C 28.5 6.8 28.5 6.6 28.5 6.5 C 28.5 6.5 28.5 6.5 28.5 6.5 C 28.5 6.5 28.5 6.5 28.4 6.5 C 28.4 6.4 28.4 6.4 28.4 6.4 C 28.4 6.4 28.4 6.4 28.4 6.3 C 28.4 6.3 28.5 6.3 28.5 6.3 C 28.5 6.3 28.6 6.2 28.6 6.2 C 28.6 6.2 28.7 6.3 28.7 6.3 C 28.8 6.3 29.1 6.2 29.5 6.2 C 29.7 6.1 29.8 6.1 29.8 6.1 C 29.8 6.1 29.8 6.1 29.8 6.1 C 30 6.1 30 6.2 30 6.3 C 30 6.3 30 6.4 30 6.4 C 30 6.4 29.9 6.5 29.9 6.5 Z M 30.4 6.5 C 30.4 6.5 30.41 6.48 30.4 6.5 C 30.4 6.4 30.4 6.4 30.4 6.4 C 30.4 6.3 30.4 6.3 30.4 6.2 C 30.5 6.2 30.5 6.2 30.6 6.2 C 30.6 6.2 30.6 6.2 30.6 6.2 C 30.7 6.2 30.7 6.2 30.7 6.2 C 31 6.2 31.2 6.1 31.3 6.1 C 31.5 6.1 31.7 6.2 31.8 6.3 C 31.9 6.4 32 6.5 32 6.7 C 32 6.8 31.9 7 31.8 7.1 C 31.7 7.2 31.5 7.3 31.3 7.4 C 31.7 7.7 31.9 7.9 32.1 8 C 32.2 8 32.2 8.1 32.2 8.1 C 32.2 8.2 32.2 8.2 32.1 8.2 C 32.1 8.3 32 8.3 32 8.3 C 31.9 8.3 31.9 8.3 31.8 8.2 C 31.7 8.2 31.6 8.1 31.5 8 C 31.4 7.9 31.3 7.8 31.3 7.8 C 31.1 7.7 31 7.6 30.9 7.5 C 30.8 7.5 30.7 7.5 30.7 7.4 C 30.7 7.3 30.7 7.3 30.8 7.2 C 30.8 7.2 30.9 7.2 30.9 7.2 C 31 7.2 31 7.2 31 7.2 C 31 7.2 31 7.2 31 7.2 C 31.1 7.2 31.2 7.1 31.4 7 C 31.5 6.9 31.6 6.8 31.6 6.7 C 31.6 6.6 31.6 6.5 31.5 6.5 C 31.5 6.4 31.4 6.4 31.3 6.4 C 31.1 6.4 31 6.4 30.9 6.4 C 30.9 6.5 30.8 6.5 30.8 6.5 C 30.8 6.5 30.8 6.5 30.8 6.5 C 30.8 6.5 30.8 6.7 30.7 6.8 C 30.7 7 30.7 7.2 30.6 7.4 C 30.6 7.6 30.6 7.8 30.6 7.9 C 30.6 7.9 30.6 8 30.6 8 C 30.6 8.1 30.6 8.1 30.6 8.2 C 30.6 8.2 30.6 8.2 30.6 8.3 C 30.5 8.3 30.5 8.3 30.4 8.3 C 30.3 8.3 30.2 8.3 30.2 8.1 C 30.2 7.9 30.2 7.7 30.3 7.4 C 30.3 7.2 30.3 6.9 30.4 6.7 C 30.4 6.7 30.4 6.6 30.4 6.6 C 30.41 6.61 30.4 6.5 30.4 6.5 Z M 34.3 8.4 C 34.2 8.4 34.1 8.3 34 8.3 C 33.8 8.2 33.7 8.1 33.6 7.9 C 33.6 7.8 33.5 7.6 33.5 7.4 C 33.5 7.3 33.5 7.2 33.6 7.1 C 33.6 7.1 33.6 6.8 33.6 6.8 C 33.6 6.7 33.6 6.7 33.6 6.7 C 33.6 6.6 33.7 6.5 33.7 6.5 C 33.7 6.4 33.7 6.3 33.7 6.2 C 33.8 6.2 33.8 6.1 33.9 6.1 C 33.9 6.1 34 6.2 34 6.2 C 34 6.3 34.1 6.3 34.1 6.4 C 34.1 6.4 34 6.5 34 6.7 C 34 6.7 34 6.8 33.9 7 C 33.9 7.2 33.9 7.4 33.9 7.4 C 33.9 7.7 33.9 7.8 34 7.9 C 34.2 8 34.2 8.1 34.3 8.1 C 34.6 8.1 34.7 8 34.8 7.9 C 34.9 7.8 35 7.6 35 7.4 C 35 7.3 35 7.3 35 7.2 C 35 7.1 35.1 7.1 35.1 7 C 35.1 6.6 35.1 6.4 35.2 6.3 C 35.2 6.2 35.3 6.2 35.3 6.2 C 35.5 6.2 35.5 6.3 35.5 6.4 C 35.5 6.5 35.5 6.6 35.4 6.8 C 35.4 6.9 35.4 7.1 35.4 7.2 C 35.4 7.5 35.3 7.7 35.3 7.8 C 35.2 8 35.1 8.1 34.9 8.2 C 34.8 8.3 34.6 8.4 34.3 8.4 Z M 37.8 6.8 C 37.8 6.7 37.8 6.7 37.8 6.7 C 37.8 6.7 37.3 7.3 37.3 7.3 C 37.1 7.6 36.9 7.8 36.8 7.8 C 36.7 7.8 36.7 7.8 36.6 7.7 C 36.6 7.6 36.6 7.5 36.5 7.4 C 36.5 7.3 36.4 7.2 36.4 7.1 C 36.4 6.9 36.3 6.9 36.3 6.8 C 36.3 6.8 36.3 7.2 36.3 7.2 C 36.2 7.3 36.2 7.4 36.2 7.5 C 36.2 7.7 36.1 7.8 36.1 7.9 C 36.1 8.1 36.1 8.2 36.1 8.2 C 36.1 8.3 36 8.3 36 8.3 C 35.9 8.4 35.9 8.4 35.9 8.4 C 35.8 8.4 35.8 8.3 35.8 8.3 C 35.7 8.3 35.7 8.2 35.7 8.2 C 35.7 8.1 35.7 8 35.7 7.8 C 35.9 7.2 36 6.9 36 6.7 C 36 6.5 36.1 6.4 36.1 6.3 C 36.1 6.3 36.1 6.2 36.1 6.2 C 36.2 6.2 36.2 6.2 36.3 6.2 C 36.3 6.2 36.4 6.2 36.4 6.2 C 36.5 6.3 36.5 6.3 36.5 6.4 C 36.51 6.38 36.5 6.4 36.5 6.4 C 36.5 6.4 36.71 6.95 36.7 6.9 C 36.8 7.2 36.8 7.3 36.9 7.4 C 37 7.3 37.1 7.1 37.3 6.8 C 37.5 6.5 37.7 6.3 37.8 6.2 C 37.8 6.2 37.9 6.1 37.9 6.1 C 38 6.1 38 6.1 38.1 6.2 C 38.1 6.2 38.2 6.3 38.2 6.3 C 38.2 6.3 38.2 6.5 38.1 6.7 C 38.1 6.9 38.1 7.1 38 7.4 C 38 7.6 38 7.7 38 7.8 C 38 7.8 38 7.9 38 8 C 38 8 38 8 38 8.1 C 38 8.2 38 8.2 38 8.3 C 38 8.3 37.9 8.3 37.8 8.3 C 37.7 8.3 37.7 8.2 37.7 8 C 37.7 7.9 37.7 7.6 37.7 7.4 C 37.7 7.1 37.8 6.9 37.8 6.8 C 37.8 6.8 37.8 6.8 37.8 6.8 Z M 39.9 6.5 C 39.9 6.5 39.84 6.48 39.8 6.5 C 39.8 6.4 39.8 6.4 39.8 6.4 C 39.8 6.3 39.8 6.3 39.9 6.2 C 39.9 6.2 40 6.2 40 6.2 C 40 6.2 40 6.2 40.1 6.2 C 40.1 6.2 40.1 6.2 40.1 6.2 C 40.4 6.2 40.6 6.1 40.7 6.1 C 40.9 6.1 41.1 6.2 41.2 6.3 C 41.4 6.4 41.4 6.5 41.4 6.7 C 41.4 6.8 41.4 7 41.2 7.1 C 41.1 7.2 40.9 7.3 40.7 7.4 C 41.1 7.7 41.3 7.9 41.5 8 C 41.6 8 41.6 8.1 41.6 8.1 C 41.6 8.2 41.6 8.2 41.6 8.2 C 41.5 8.3 41.5 8.3 41.4 8.3 C 41.4 8.3 41.3 8.3 41.2 8.2 C 41.2 8.2 41.1 8.1 40.9 8 C 40.8 7.9 40.7 7.8 40.7 7.8 C 40.5 7.7 40.4 7.6 40.3 7.5 C 40.2 7.5 40.1 7.5 40.1 7.4 C 40.1 7.3 40.2 7.3 40.2 7.2 C 40.3 7.2 40.3 7.2 40.4 7.2 C 40.4 7.2 40.4 7.2 40.4 7.2 C 40.4 7.2 40.5 7.2 40.5 7.2 C 40.5 7.2 40.6 7.1 40.8 7 C 41 6.9 41.1 6.8 41.1 6.7 C 41.1 6.6 41 6.5 41 6.5 C 40.9 6.4 40.8 6.4 40.7 6.4 C 40.6 6.4 40.5 6.4 40.4 6.4 C 40.3 6.5 40.3 6.5 40.2 6.5 C 40.2 6.5 40.2 6.5 40.2 6.5 C 40.2 6.5 40.2 6.7 40.2 6.8 C 40.1 7 40.1 7.2 40.1 7.4 C 40 7.6 40 7.8 40 7.9 C 40 7.9 40 8 40 8 C 40 8.1 40.1 8.1 40.1 8.2 C 40.1 8.2 40 8.2 40 8.3 C 39.9 8.3 39.9 8.3 39.9 8.3 C 39.7 8.3 39.7 8.3 39.7 8.1 C 39.7 7.9 39.7 7.7 39.7 7.4 C 39.7 7.2 39.8 6.9 39.8 6.7 C 39.8 6.7 39.8 6.6 39.8 6.6 C 39.84 6.61 39.9 6.5 39.9 6.5 Z M 43.4 6.5 C 43.4 6.5 43 6.5 43 6.5 C 42.8 6.5 42.7 6.5 42.6 6.5 C 42.5 6.5 42.4 6.6 42.4 6.6 C 42.4 6.6 42.4 6.6 42.4 6.7 C 42.4 6.7 42.4 6.8 42.3 6.9 C 42.3 7 42.3 7.1 42.3 7.1 C 42.4 7.1 42.4 7.1 42.6 7.1 C 42.7 7.1 42.8 7.1 42.8 7.1 C 42.9 7.1 43.1 7 43.1 7 C 43.3 7 43.4 7.1 43.4 7.2 C 43.4 7.2 43.3 7.3 43.3 7.3 C 43.3 7.3 43.2 7.4 43.1 7.4 C 43 7.4 43 7.4 42.9 7.4 C 42.9 7.4 42.8 7.4 42.8 7.4 C 42.5 7.4 42.3 7.5 42.3 7.5 C 42.3 7.5 42.3 7.5 42.3 7.5 C 42.3 7.5 42.3 7.5 42.3 7.5 C 42.2 7.5 42.2 7.6 42.2 7.7 C 42.2 7.9 42.2 8 42.2 8 C 42.2 8 42.2 8.1 42.2 8.1 C 42.3 8.1 42.4 8 42.6 8 C 42.8 8 42.9 8 43 8 C 43.1 7.9 43.2 7.9 43.2 7.9 C 43.4 7.9 43.4 8 43.4 8.1 C 43.4 8.1 43.4 8.2 43.4 8.2 C 43.3 8.2 43.2 8.3 43 8.3 C 42.8 8.3 42.7 8.3 42.5 8.3 C 42.3 8.4 42.2 8.4 42 8.4 C 41.9 8.4 41.9 8.4 41.8 8.3 C 41.8 8.3 41.8 8.2 41.8 8.2 C 41.8 8.2 41.8 8.1 41.8 8.1 C 41.8 8.1 41.8 8.1 41.8 8 C 41.8 7.9 41.9 7.7 41.9 7.2 C 42 6.8 42 6.6 42 6.5 C 42 6.5 42 6.5 42 6.5 C 42 6.5 42 6.5 42 6.5 C 42 6.4 42 6.4 42 6.4 C 42 6.4 42 6.4 42 6.3 C 42 6.3 42 6.3 42 6.3 C 42.1 6.3 42.1 6.2 42.1 6.2 C 42.2 6.2 42.2 6.3 42.3 6.3 C 42.4 6.3 42.6 6.2 43.1 6.2 C 43.2 6.1 43.3 6.1 43.3 6.1 C 43.3 6.1 43.3 6.1 43.3 6.1 C 43.5 6.1 43.6 6.2 43.6 6.3 C 43.6 6.3 43.6 6.4 43.5 6.4 C 43.5 6.4 43.5 6.5 43.4 6.5 Z M 44.4 7.6 C 44.3 7.6 44.2 7.6 44.2 7.6 C 44.2 7.8 44.2 8 44.2 8.2 C 44.2 8.2 44.2 8.3 44.1 8.3 C 44.1 8.3 44.1 8.4 44 8.4 C 43.9 8.4 43.8 8.3 43.8 8.2 C 43.8 8.1 43.9 7.8 43.9 7.4 C 44 7 44 6.8 44 6.7 C 44 6.6 44 6.6 44 6.6 C 43.9 6.6 43.9 6.5 43.9 6.4 C 43.9 6.3 44 6.3 44.3 6.2 C 44.5 6.1 44.8 6.1 45 6.1 C 45.2 6.1 45.4 6.2 45.5 6.2 C 45.6 6.3 45.7 6.5 45.7 6.6 C 45.7 6.8 45.6 7 45.3 7.2 C 45.1 7.4 44.8 7.5 44.4 7.6 C 44.4 7.6 44.4 7.6 44.4 7.6 Z M 44.9 6.4 C 44.8 6.4 44.6 6.4 44.4 6.5 C 44.4 6.5 44.3 7.3 44.3 7.3 C 44.6 7.2 44.8 7.2 45 7 C 45.2 6.9 45.3 6.8 45.3 6.6 C 45.3 6.5 45.2 6.4 44.9 6.4 C 44.9 6.4 44.9 6.4 44.9 6.4 Z M 46 6.5 C 46 6.5 46 6.48 46 6.5 C 46 6.4 46 6.4 46 6.4 C 46 6.3 46 6.3 46 6.2 C 46.1 6.2 46.1 6.2 46.2 6.2 C 46.2 6.2 46.2 6.2 46.2 6.2 C 46.3 6.2 46.3 6.2 46.3 6.2 C 46.6 6.2 46.8 6.1 46.9 6.1 C 47.1 6.1 47.3 6.2 47.4 6.3 C 47.5 6.4 47.6 6.5 47.6 6.7 C 47.6 6.8 47.5 7 47.4 7.1 C 47.3 7.2 47.1 7.3 46.9 7.4 C 47.2 7.7 47.5 7.9 47.7 8 C 47.8 8 47.8 8.1 47.8 8.1 C 47.8 8.2 47.8 8.2 47.7 8.2 C 47.7 8.3 47.6 8.3 47.6 8.3 C 47.5 8.3 47.5 8.3 47.4 8.2 C 47.3 8.2 47.2 8.1 47.1 8 C 47 7.9 46.9 7.8 46.9 7.8 C 46.7 7.7 46.5 7.6 46.5 7.5 C 46.4 7.5 46.3 7.5 46.3 7.4 C 46.3 7.3 46.3 7.3 46.4 7.2 C 46.4 7.2 46.5 7.2 46.5 7.2 C 46.6 7.2 46.6 7.2 46.6 7.2 C 46.6 7.2 46.6 7.2 46.6 7.2 C 46.7 7.2 46.8 7.1 47 7 C 47.1 6.9 47.2 6.8 47.2 6.7 C 47.2 6.6 47.2 6.5 47.1 6.5 C 47.1 6.4 47 6.4 46.9 6.4 C 46.7 6.4 46.6 6.4 46.5 6.4 C 46.5 6.5 46.4 6.5 46.4 6.5 C 46.4 6.5 46.4 6.5 46.4 6.5 C 46.4 6.5 46.3 6.7 46.3 6.8 C 46.3 7 46.3 7.2 46.2 7.4 C 46.2 7.6 46.2 7.8 46.2 7.9 C 46.2 7.9 46.2 8 46.2 8 C 46.2 8.1 46.2 8.1 46.2 8.2 C 46.2 8.2 46.2 8.2 46.2 8.3 C 46.1 8.3 46.1 8.3 46 8.3 C 45.9 8.3 45.8 8.3 45.8 8.1 C 45.8 7.9 45.8 7.7 45.9 7.4 C 45.9 7.2 45.9 6.9 46 6.7 C 46 6.7 46 6.6 46 6.6 C 46 6.61 46 6.5 46 6.5 Z M 49.6 6.5 C 49.6 6.5 49.2 6.5 49.2 6.5 C 49 6.5 48.9 6.5 48.7 6.5 C 48.6 6.5 48.6 6.6 48.6 6.6 C 48.6 6.6 48.6 6.6 48.5 6.7 C 48.5 6.7 48.5 6.8 48.5 6.9 C 48.5 7 48.5 7.1 48.4 7.1 C 48.5 7.1 48.6 7.1 48.7 7.1 C 48.8 7.1 48.9 7.1 49 7.1 C 49.1 7.1 49.2 7 49.3 7 C 49.4 7 49.5 7.1 49.5 7.2 C 49.5 7.2 49.5 7.3 49.5 7.3 C 49.4 7.3 49.4 7.4 49.3 7.4 C 49.2 7.4 49.1 7.4 49.1 7.4 C 49 7.4 49 7.4 48.9 7.4 C 48.7 7.4 48.5 7.5 48.5 7.5 C 48.5 7.5 48.4 7.5 48.4 7.5 C 48.4 7.5 48.4 7.5 48.4 7.5 C 48.4 7.5 48.4 7.6 48.4 7.7 C 48.3 7.9 48.3 8 48.3 8 C 48.3 8 48.4 8.1 48.4 8.1 C 48.4 8.1 48.6 8 48.8 8 C 49 8 49.1 8 49.1 8 C 49.3 7.9 49.4 7.9 49.4 7.9 C 49.5 7.9 49.6 8 49.6 8.1 C 49.6 8.1 49.6 8.2 49.5 8.2 C 49.5 8.2 49.3 8.3 49.1 8.3 C 49 8.3 48.8 8.3 48.7 8.3 C 48.5 8.4 48.3 8.4 48.2 8.4 C 48.1 8.4 48 8.4 48 8.3 C 48 8.3 47.9 8.2 47.9 8.2 C 47.9 8.2 47.9 8.1 47.9 8.1 C 47.9 8.1 47.9 8.1 48 8 C 48 7.9 48 7.7 48.1 7.2 C 48.2 6.8 48.2 6.6 48.2 6.5 C 48.2 6.5 48.2 6.5 48.2 6.5 C 48.2 6.5 48.2 6.5 48.1 6.5 C 48.1 6.4 48.1 6.4 48.1 6.4 C 48.1 6.4 48.1 6.4 48.1 6.3 C 48.1 6.3 48.2 6.3 48.2 6.3 C 48.2 6.3 48.3 6.2 48.3 6.2 C 48.3 6.2 48.4 6.3 48.4 6.3 C 48.5 6.3 48.8 6.2 49.2 6.2 C 49.4 6.1 49.5 6.1 49.5 6.1 C 49.5 6.1 49.5 6.1 49.5 6.1 C 49.7 6.1 49.7 6.2 49.7 6.3 C 49.7 6.3 49.7 6.4 49.7 6.4 C 49.7 6.4 49.6 6.5 49.6 6.5 Z M 51.6 6.4 C 51.6 6.6 51.5 6.7 51.3 6.7 C 51.3 6.6 51.2 6.5 51.2 6.5 C 51.1 6.5 51.1 6.4 51 6.4 C 50.8 6.4 50.7 6.5 50.5 6.6 C 50.4 6.6 50.3 6.7 50.3 6.8 C 50.3 6.9 50.3 6.9 50.4 7 C 50.4 7 50.6 7.1 50.8 7.1 C 51 7.2 51.2 7.3 51.3 7.4 C 51.4 7.5 51.5 7.5 51.5 7.7 C 51.5 7.8 51.3 8 51.1 8.2 C 50.8 8.3 50.5 8.4 50.2 8.4 C 50.1 8.4 50 8.4 49.9 8.4 C 49.9 8.3 49.8 8.3 49.8 8.2 C 49.8 8.1 49.8 8.1 49.9 8.1 C 49.9 8 49.9 8 50 8 C 50 8 50 8 50 8 C 50.1 8.1 50.2 8.1 50.3 8.1 C 50.5 8.1 50.6 8 50.8 7.9 C 51 7.9 51.1 7.8 51.1 7.7 C 51.1 7.7 51.1 7.6 51 7.6 C 51 7.6 50.9 7.5 50.8 7.5 C 50.5 7.4 50.4 7.3 50.3 7.3 C 50.2 7.3 50.1 7.2 50 7.1 C 50 7.1 50 7 50 6.9 C 50 6.7 50.1 6.5 50.3 6.4 C 50.5 6.2 50.7 6.1 51 6.1 C 51.2 6.1 51.3 6.2 51.4 6.2 C 51.5 6.3 51.6 6.4 51.6 6.4 C 51.6 6.4 51.6 6.4 51.6 6.4 Z M 53.4 6.5 C 53.4 6.5 53 6.5 53 6.5 C 52.8 6.5 52.7 6.5 52.6 6.5 C 52.5 6.5 52.4 6.6 52.4 6.6 C 52.4 6.6 52.4 6.6 52.4 6.7 C 52.4 6.7 52.4 6.8 52.3 6.9 C 52.3 7 52.3 7.1 52.3 7.1 C 52.3 7.1 52.4 7.1 52.6 7.1 C 52.7 7.1 52.8 7.1 52.8 7.1 C 52.9 7.1 53.1 7 53.1 7 C 53.3 7 53.4 7.1 53.4 7.2 C 53.4 7.2 53.3 7.3 53.3 7.3 C 53.3 7.3 53.2 7.4 53.1 7.4 C 53 7.4 53 7.4 52.9 7.4 C 52.9 7.4 52.8 7.4 52.8 7.4 C 52.5 7.4 52.3 7.5 52.3 7.5 C 52.3 7.5 52.3 7.5 52.3 7.5 C 52.3 7.5 52.3 7.5 52.2 7.5 C 52.2 7.5 52.2 7.6 52.2 7.7 C 52.2 7.9 52.2 8 52.2 8 C 52.2 8 52.2 8.1 52.2 8.1 C 52.3 8.1 52.4 8 52.6 8 C 52.8 8 52.9 8 53 8 C 53.1 7.9 53.2 7.9 53.2 7.9 C 53.4 7.9 53.4 8 53.4 8.1 C 53.4 8.1 53.4 8.2 53.4 8.2 C 53.3 8.2 53.2 8.3 53 8.3 C 52.8 8.3 52.7 8.3 52.5 8.3 C 52.3 8.4 52.2 8.4 52 8.4 C 51.9 8.4 51.9 8.4 51.8 8.3 C 51.8 8.3 51.8 8.2 51.8 8.2 C 51.8 8.2 51.8 8.1 51.8 8.1 C 51.8 8.1 51.8 8.1 51.8 8 C 51.8 7.9 51.9 7.7 51.9 7.2 C 52 6.8 52 6.6 52 6.5 C 52 6.5 52 6.5 52 6.5 C 52 6.5 52 6.5 52 6.5 C 52 6.4 52 6.4 52 6.4 C 52 6.4 52 6.4 52 6.3 C 52 6.3 52 6.3 52 6.3 C 52.1 6.3 52.1 6.2 52.1 6.2 C 52.2 6.2 52.2 6.3 52.3 6.3 C 52.4 6.3 52.6 6.2 53.1 6.2 C 53.2 6.1 53.3 6.1 53.3 6.1 C 53.3 6.1 53.3 6.1 53.3 6.1 C 53.5 6.1 53.6 6.2 53.6 6.3 C 53.6 6.3 53.6 6.4 53.5 6.4 C 53.5 6.4 53.5 6.5 53.4 6.5 Z M 53.8 7.8 C 53.8 7.8 53.92 7.3 53.9 7.3 C 54 6.9 54 6.6 54 6.5 C 54.1 6.4 54.1 6.4 54.1 6.3 C 54.1 6.3 54.1 6.3 54.1 6.3 C 54.2 6.2 54.2 6.2 54.3 6.2 C 54.3 6.2 54.3 6.2 54.4 6.2 C 54.4 6.3 54.4 6.3 54.5 6.4 C 54.5 6.6 54.6 6.8 54.8 7.1 C 55 7.4 55.1 7.6 55.2 7.8 C 55.3 7.6 55.3 7.4 55.4 7.1 C 55.4 6.9 55.4 6.8 55.5 6.6 C 55.5 6.5 55.5 6.4 55.5 6.3 C 55.5 6.2 55.5 6.2 55.6 6.1 C 55.6 6.1 55.7 6.1 55.7 6.1 C 55.7 6.1 55.8 6.1 55.8 6.2 C 55.8 6.2 55.9 6.3 55.9 6.3 C 55.9 6.4 55.8 6.5 55.8 6.6 C 55.8 6.8 55.7 7.1 55.6 7.4 C 55.6 7.8 55.5 8 55.5 8 C 55.5 8 55.5 8.1 55.5 8.1 C 55.5 8.1 55.5 8.2 55.5 8.2 C 55.5 8.2 55.5 8.3 55.5 8.3 C 55.4 8.3 55.4 8.3 55.3 8.3 C 55.3 8.3 55.2 8.3 55.2 8.3 C 55.2 8.3 55.2 8.3 55.2 8.2 C 55.1 8.2 55.1 8.2 55.1 8.1 C 55 8 55 8 55 7.9 C 54.7 7.7 54.5 7.3 54.3 6.9 C 54.3 7 54.2 7.3 54.2 7.8 C 54.2 7.8 54.2 7.9 54.2 7.9 C 54.1 7.9 54.1 8 54.1 8.1 C 54.1 8.2 54.1 8.3 54.1 8.3 C 54 8.4 54 8.4 53.9 8.4 C 53.9 8.4 53.8 8.4 53.8 8.3 C 53.8 8.3 53.8 8.2 53.8 8.1 C 53.8 8.1 53.8 7.9 53.8 7.8 C 53.81 7.8 53.8 7.8 53.8 7.8 Z M 57.7 6.5 C 57.5 6.5 57.3 6.5 57.2 6.5 C 57.2 6.5 57.2 6.6 57.2 6.6 C 57.2 6.6 57.2 6.8 57.2 7.1 C 57.1 7.4 57.1 7.6 57.1 7.8 C 57.1 7.9 57.1 8 57.1 8.1 C 57.1 8.1 57.1 8.1 57.1 8.1 C 57.1 8.2 57.1 8.2 57.1 8.3 C 57.1 8.3 57 8.3 57 8.3 C 56.9 8.3 56.9 8.3 56.9 8.3 C 56.8 8.2 56.8 8.2 56.8 8.1 C 56.8 8 56.7 7.9 56.7 7.8 C 56.7 7.7 56.8 7.4 56.8 7.1 C 56.8 6.7 56.9 6.6 56.9 6.6 C 56.8 6.6 56.7 6.6 56.5 6.6 C 56.4 6.6 56.2 6.6 56.2 6.6 C 56.1 6.6 56 6.6 56 6.6 C 56 6.5 55.9 6.5 55.9 6.5 C 55.9 6.4 56 6.4 56 6.3 C 56 6.3 56.2 6.3 56.3 6.3 C 56.6 6.3 56.9 6.3 57.1 6.2 C 57.5 6.2 57.7 6.2 57.8 6.2 C 58 6.2 58.1 6.2 58.2 6.2 C 58.2 6.3 58.2 6.3 58.2 6.4 C 58.2 6.5 58.2 6.5 58.1 6.5 C 58.1 6.5 58 6.5 58 6.5 C 57.9 6.5 57.8 6.5 57.7 6.5 C 57.7 6.5 57.7 6.5 57.7 6.5 Z M 58.4 7.8 C 58.4 7.8 58.4 7.8 58.3 7.8 C 58.3 7.8 58.3 7.9 58.2 8.1 C 58.1 8.2 58 8.3 58 8.3 C 58 8.3 57.9 8.3 57.9 8.3 C 57.9 8.3 57.8 8.3 57.8 8.3 C 57.7 8.2 57.7 8.2 57.7 8.2 C 57.7 8.1 57.8 7.9 58.1 7.5 C 58.2 7.3 58.3 7.1 58.5 6.9 C 58.7 6.5 58.8 6.3 58.9 6.2 C 58.9 6.2 59 6.1 59 6.1 C 59.1 6.1 59.2 6.1 59.2 6.2 C 59.2 6.2 59.2 6.2 59.2 6.3 C 59.2 6.3 59.2 6.4 59.2 6.4 C 59.4 6.9 59.5 7.3 59.6 7.5 C 59.7 7.8 59.8 7.9 59.9 8 C 60 8.1 60 8.1 60 8.1 C 60 8.1 60 8.2 60 8.2 C 60 8.3 60 8.3 60 8.3 C 59.9 8.4 59.9 8.4 59.8 8.4 C 59.8 8.4 59.7 8.4 59.6 8.3 C 59.5 8.2 59.5 8.1 59.4 7.9 C 59.3 7.8 59.3 7.7 59.3 7.7 C 59.3 7.7 59.3 7.7 59.3 7.7 C 59.2 7.7 59.1 7.7 58.9 7.7 C 58.8 7.7 58.6 7.8 58.5 7.8 C 58.5 7.8 58.4 7.8 58.4 7.8 C 58.4 7.8 58.4 7.8 58.4 7.8 Z M 59.1 7.4 C 59.1 7.4 59.1 7.4 59.2 7.4 C 59.2 7.3 59.1 7.1 59 6.7 C 59 6.7 59 6.7 59 6.7 C 59 6.7 58.5 7.5 58.5 7.5 C 58.6 7.5 58.7 7.4 58.7 7.4 C 58.8 7.4 58.9 7.4 59.1 7.4 C 59.1 7.4 59.1 7.4 59.1 7.4 Z M 60.3 7.8 C 60.3 7.8 60.38 7.3 60.4 7.3 C 60.5 6.9 60.5 6.6 60.5 6.5 C 60.5 6.4 60.5 6.4 60.5 6.3 C 60.5 6.3 60.6 6.3 60.6 6.3 C 60.6 6.2 60.7 6.2 60.7 6.2 C 60.7 6.2 60.8 6.2 60.8 6.2 C 60.9 6.3 60.9 6.3 60.9 6.4 C 61 6.6 61.1 6.8 61.2 7.1 C 61.4 7.4 61.6 7.6 61.7 7.8 C 61.7 7.6 61.8 7.4 61.8 7.1 C 61.9 6.9 61.9 6.8 61.9 6.6 C 61.9 6.5 61.9 6.4 61.9 6.3 C 62 6.2 62 6.2 62 6.1 C 62.1 6.1 62.1 6.1 62.2 6.1 C 62.2 6.1 62.2 6.1 62.3 6.2 C 62.3 6.2 62.3 6.3 62.3 6.3 C 62.3 6.4 62.3 6.5 62.3 6.6 C 62.2 6.8 62.1 7.1 62.1 7.4 C 62 7.8 62 8 62 8 C 62 8 62 8.1 62 8.1 C 62 8.1 62 8.2 62 8.2 C 62 8.2 62 8.3 61.9 8.3 C 61.9 8.3 61.8 8.3 61.8 8.3 C 61.7 8.3 61.7 8.3 61.7 8.3 C 61.7 8.3 61.7 8.3 61.6 8.2 C 61.6 8.2 61.6 8.2 61.5 8.1 C 61.5 8 61.5 8 61.4 7.9 C 61.2 7.7 61 7.3 60.8 6.9 C 60.7 7 60.7 7.3 60.6 7.8 C 60.6 7.8 60.6 7.9 60.6 7.9 C 60.6 7.9 60.6 8 60.6 8.1 C 60.6 8.2 60.6 8.3 60.5 8.3 C 60.5 8.4 60.4 8.4 60.4 8.4 C 60.3 8.4 60.3 8.4 60.3 8.3 C 60.2 8.3 60.2 8.2 60.2 8.1 C 60.2 8.1 60.2 7.9 60.3 7.8 C 60.27 7.8 60.3 7.8 60.3 7.8 Z M 64.2 6.5 C 64 6.5 63.8 6.5 63.7 6.5 C 63.7 6.5 63.7 6.6 63.7 6.6 C 63.7 6.6 63.6 6.8 63.6 7.1 C 63.6 7.4 63.6 7.6 63.6 7.8 C 63.6 7.9 63.6 8 63.6 8.1 C 63.6 8.1 63.6 8.1 63.6 8.1 C 63.6 8.2 63.6 8.2 63.5 8.3 C 63.5 8.3 63.5 8.3 63.4 8.3 C 63.4 8.3 63.4 8.3 63.3 8.3 C 63.3 8.2 63.2 8.2 63.2 8.1 C 63.2 8 63.2 7.9 63.2 7.8 C 63.2 7.7 63.2 7.4 63.3 7.1 C 63.3 6.7 63.3 6.6 63.3 6.6 C 63.3 6.6 63.2 6.6 63 6.6 C 62.8 6.6 62.7 6.6 62.7 6.6 C 62.6 6.6 62.5 6.6 62.5 6.6 C 62.4 6.5 62.4 6.5 62.4 6.5 C 62.4 6.4 62.4 6.4 62.5 6.3 C 62.5 6.3 62.6 6.3 62.8 6.3 C 63.1 6.3 63.3 6.3 63.6 6.2 C 63.9 6.2 64.1 6.2 64.3 6.2 C 64.5 6.2 64.6 6.2 64.6 6.2 C 64.7 6.3 64.7 6.3 64.7 6.4 C 64.7 6.5 64.6 6.5 64.6 6.5 C 64.5 6.5 64.5 6.5 64.4 6.5 C 64.4 6.5 64.3 6.5 64.2 6.5 C 64.2 6.5 64.2 6.5 64.2 6.5 Z M 66.2 6.5 C 66.2 6.5 65.7 6.5 65.7 6.5 C 65.6 6.5 65.5 6.5 65.3 6.5 C 65.2 6.5 65.2 6.6 65.2 6.6 C 65.1 6.6 65.1 6.6 65.1 6.7 C 65.1 6.7 65.1 6.8 65.1 6.9 C 65.1 7 65 7.1 65 7.1 C 65.1 7.1 65.2 7.1 65.3 7.1 C 65.4 7.1 65.5 7.1 65.6 7.1 C 65.7 7.1 65.8 7 65.9 7 C 66 7 66.1 7.1 66.1 7.2 C 66.1 7.2 66.1 7.3 66.1 7.3 C 66 7.3 65.9 7.4 65.8 7.4 C 65.8 7.4 65.7 7.4 65.7 7.4 C 65.6 7.4 65.6 7.4 65.5 7.4 C 65.2 7.4 65.1 7.5 65 7.5 C 65 7.5 65 7.5 65 7.5 C 65 7.5 65 7.5 65 7.5 C 65 7.5 65 7.6 65 7.7 C 64.9 7.9 64.9 8 64.9 8 C 64.9 8 65 8.1 65 8.1 C 65 8.1 65.2 8 65.4 8 C 65.6 8 65.7 8 65.7 8 C 65.9 7.9 66 7.9 66 7.9 C 66.1 7.9 66.2 8 66.2 8.1 C 66.2 8.1 66.2 8.2 66.1 8.2 C 66 8.2 65.9 8.3 65.7 8.3 C 65.6 8.3 65.4 8.3 65.2 8.3 C 65.1 8.4 64.9 8.4 64.8 8.4 C 64.7 8.4 64.6 8.4 64.6 8.3 C 64.6 8.3 64.5 8.2 64.5 8.2 C 64.5 8.2 64.5 8.1 64.5 8.1 C 64.5 8.1 64.5 8.1 64.6 8 C 64.6 7.9 64.6 7.7 64.7 7.2 C 64.8 6.8 64.8 6.6 64.8 6.5 C 64.8 6.5 64.8 6.5 64.8 6.5 C 64.8 6.5 64.8 6.5 64.7 6.5 C 64.7 6.4 64.7 6.4 64.7 6.4 C 64.7 6.4 64.7 6.4 64.7 6.3 C 64.7 6.3 64.7 6.3 64.8 6.3 C 64.8 6.3 64.9 6.2 64.9 6.2 C 64.9 6.2 65 6.3 65 6.3 C 65.1 6.3 65.4 6.2 65.8 6.2 C 66 6.1 66 6.1 66.1 6.1 C 66.1 6.1 66.1 6.1 66.1 6.1 C 66.2 6.1 66.3 6.2 66.3 6.3 C 66.3 6.3 66.3 6.4 66.3 6.4 C 66.3 6.4 66.2 6.5 66.2 6.5 Z " stroke="none" fill="#000"/>  </g>  <g id="Polygon13522">    <path d="M 4.4 3.8 C 4.4 3.8 4.3 3.8 4.3 3.8 C 4.3 3.8 4.2 3.9 4.2 4.1 C 4.1 4.2 4 4.3 4 4.3 C 3.9 4.3 3.9 4.3 3.9 4.3 C 3.9 4.3 3.8 4.3 3.8 4.3 C 3.7 4.2 3.7 4.2 3.7 4.2 C 3.7 4.1 3.8 3.9 4.1 3.5 C 4.2 3.3 4.3 3.1 4.4 2.9 C 4.6 2.5 4.8 2.3 4.8 2.2 C 4.9 2.2 4.9 2.1 5 2.1 C 5.1 2.1 5.1 2.1 5.2 2.2 C 5.2 2.2 5.2 2.2 5.2 2.3 C 5.2 2.3 5.2 2.4 5.2 2.4 C 5.4 2.9 5.5 3.3 5.6 3.5 C 5.7 3.8 5.8 3.9 5.9 4 C 5.9 4.1 6 4.1 6 4.1 C 6 4.1 6 4.2 6 4.2 C 6 4.3 6 4.3 6 4.3 C 5.9 4.4 5.9 4.4 5.8 4.4 C 5.7 4.4 5.7 4.4 5.6 4.3 C 5.5 4.2 5.4 4.1 5.4 3.9 C 5.3 3.8 5.3 3.7 5.3 3.7 C 5.3 3.7 5.3 3.7 5.3 3.7 C 5.2 3.7 5.1 3.7 4.9 3.7 C 4.7 3.7 4.6 3.8 4.5 3.8 C 4.4 3.8 4.4 3.8 4.4 3.8 C 4.4 3.8 4.4 3.8 4.4 3.8 Z M 5 3.4 C 5.1 3.4 5.1 3.4 5.1 3.4 C 5.1 3.3 5.1 3.1 4.9 2.7 C 4.9 2.7 4.9 2.7 4.9 2.7 C 4.9 2.7 4.5 3.5 4.5 3.5 C 4.6 3.5 4.6 3.4 4.7 3.4 C 4.7 3.4 4.8 3.4 5 3.4 C 5 3.4 5 3.4 5 3.4 Z M 9.2 3.3 C 9.2 3.4 9.1 3.5 9.1 3.6 C 9.1 3.6 9.1 3.6 9.1 3.6 C 9.1 3.6 9.1 3.7 9.1 3.9 C 9 4 9 4.1 9 4.2 C 9 4.3 9 4.4 9 4.4 C 9 4.4 9 4.5 9 4.5 C 9 4.5 9 4.6 8.9 4.6 C 8.9 4.6 8.9 4.6 8.8 4.6 C 8.8 4.6 8.7 4.6 8.7 4.5 C 8.6 4.5 8.6 4.5 8.6 4.4 C 8.6 4.4 8.6 4.3 8.7 4.2 C 8.7 4.1 8.7 4 8.7 3.9 C 8.4 4.1 8.1 4.3 7.8 4.3 C 7.7 4.3 7.5 4.2 7.4 4.1 C 7.3 4 7.3 3.9 7.3 3.7 C 7.3 3.4 7.4 3.1 7.5 2.9 C 7.5 2.9 7.5 2.9 7.5 2.9 C 7.7 2.6 7.9 2.4 8.2 2.3 C 8.4 2.1 8.6 2 8.9 2 C 9 2 9.1 2.1 9.2 2.1 C 9.3 2.1 9.3 2.2 9.3 2.3 C 9.3 2.3 9.3 2.4 9.2 2.5 C 9.2 2.5 9.1 2.6 9.1 2.6 C 9 2.6 9 2.6 9 2.6 C 9 2.5 9 2.5 9 2.5 C 8.9 2.4 8.9 2.4 8.9 2.4 C 8.9 2.4 8.8 2.4 8.8 2.4 C 8.6 2.4 8.5 2.4 8.3 2.6 C 8.1 2.7 7.9 2.9 7.8 3.1 C 7.7 3.3 7.6 3.5 7.6 3.7 C 7.6 3.9 7.7 4 7.9 4 C 8 4 8.1 3.9 8.2 3.9 C 8.3 3.9 8.4 3.8 8.6 3.7 C 8.7 3.6 8.8 3.5 8.8 3.4 C 8.8 3.4 8.8 3.3 8.9 3.2 C 8.9 3.1 8.9 3.1 8.9 3.1 C 9 3.1 9 3 9.1 3 C 9.2 3 9.2 3.1 9.2 3.2 C 9.2 3.2 9.2 3.3 9.2 3.3 C 9.2 3.3 9.2 3.3 9.2 3.3 Z M 11.3 2.5 C 11.3 2.5 10.8 2.5 10.8 2.5 C 10.6 2.5 10.5 2.5 10.4 2.5 C 10.3 2.5 10.2 2.6 10.2 2.6 C 10.2 2.6 10.2 2.6 10.2 2.7 C 10.2 2.7 10.2 2.8 10.1 2.9 C 10.1 3 10.1 3.1 10.1 3.1 C 10.2 3.1 10.2 3.1 10.4 3.1 C 10.5 3.1 10.6 3.1 10.6 3.1 C 10.8 3.1 10.9 3 10.9 3 C 11.1 3 11.2 3.1 11.2 3.2 C 11.2 3.2 11.2 3.3 11.1 3.3 C 11.1 3.3 11 3.4 10.9 3.4 C 10.9 3.4 10.8 3.4 10.7 3.4 C 10.7 3.4 10.6 3.4 10.6 3.4 C 10.3 3.4 10.1 3.5 10.1 3.5 C 10.1 3.5 10.1 3.5 10.1 3.5 C 10.1 3.5 10.1 3.5 10.1 3.5 C 10.1 3.5 10 3.6 10 3.7 C 10 3.9 10 4 10 4 C 10 4 10 4.1 10.1 4.1 C 10.1 4.1 10.2 4 10.4 4 C 10.6 4 10.7 4 10.8 4 C 10.9 3.9 11 3.9 11.1 3.9 C 11.2 3.9 11.2 4 11.2 4.1 C 11.2 4.1 11.2 4.2 11.2 4.2 C 11.1 4.2 11 4.3 10.8 4.3 C 10.7 4.3 10.5 4.3 10.3 4.3 C 10.1 4.4 10 4.4 9.8 4.4 C 9.7 4.4 9.7 4.4 9.7 4.3 C 9.6 4.3 9.6 4.2 9.6 4.2 C 9.6 4.2 9.6 4.1 9.6 4.1 C 9.6 4.1 9.6 4.1 9.6 4 C 9.6 3.9 9.7 3.7 9.8 3.2 C 9.8 2.8 9.8 2.6 9.8 2.5 C 9.8 2.5 9.8 2.5 9.8 2.5 C 9.8 2.5 9.8 2.5 9.8 2.5 C 9.8 2.4 9.8 2.4 9.8 2.4 C 9.8 2.4 9.8 2.4 9.8 2.3 C 9.8 2.3 9.8 2.3 9.8 2.3 C 9.9 2.3 9.9 2.2 9.9 2.2 C 10 2.2 10 2.3 10.1 2.3 C 10.2 2.3 10.4 2.2 10.9 2.2 C 11 2.1 11.1 2.1 11.1 2.1 C 11.1 2.1 11.1 2.1 11.1 2.1 C 11.3 2.1 11.4 2.2 11.4 2.3 C 11.4 2.3 11.4 2.4 11.3 2.4 C 11.3 2.4 11.3 2.5 11.3 2.5 Z M 11.6 3.8 C 11.6 3.8 11.73 3.3 11.7 3.3 C 11.8 2.9 11.9 2.6 11.9 2.5 C 11.9 2.4 11.9 2.4 11.9 2.3 C 11.9 2.3 11.9 2.3 11.9 2.3 C 12 2.2 12 2.2 12.1 2.2 C 12.1 2.2 12.1 2.2 12.2 2.2 C 12.2 2.3 12.2 2.3 12.3 2.4 C 12.3 2.6 12.4 2.8 12.6 3.1 C 12.8 3.4 12.9 3.6 13.1 3.8 C 13.1 3.6 13.1 3.4 13.2 3.1 C 13.2 2.9 13.2 2.8 13.3 2.6 C 13.3 2.5 13.3 2.4 13.3 2.3 C 13.3 2.2 13.3 2.2 13.4 2.1 C 13.4 2.1 13.5 2.1 13.5 2.1 C 13.6 2.1 13.6 2.1 13.6 2.2 C 13.7 2.2 13.7 2.3 13.7 2.3 C 13.7 2.4 13.7 2.5 13.6 2.6 C 13.6 2.8 13.5 3.1 13.4 3.4 C 13.4 3.8 13.4 4 13.4 4 C 13.4 4 13.4 4.1 13.4 4.1 C 13.4 4.1 13.4 4.2 13.3 4.2 C 13.3 4.2 13.3 4.3 13.3 4.3 C 13.2 4.3 13.2 4.3 13.1 4.3 C 13.1 4.3 13.1 4.3 13 4.3 C 13 4.3 13 4.3 13 4.2 C 13 4.2 12.9 4.2 12.9 4.1 C 12.8 4 12.8 4 12.8 3.9 C 12.6 3.7 12.3 3.3 12.1 2.9 C 12.1 3 12 3.3 12 3.8 C 12 3.8 12 3.9 12 3.9 C 12 3.9 11.9 4 11.9 4.1 C 11.9 4.2 11.9 4.3 11.9 4.3 C 11.8 4.4 11.8 4.4 11.7 4.4 C 11.7 4.4 11.6 4.4 11.6 4.3 C 11.6 4.3 11.6 4.2 11.6 4.1 C 11.6 4.1 11.6 3.9 11.6 3.8 C 11.62 3.8 11.6 3.8 11.6 3.8 Z M 15.6 2.5 C 15.3 2.5 15.1 2.5 15 2.5 C 15 2.5 15 2.6 15 2.6 C 15 2.6 15 2.8 15 3.1 C 14.9 3.4 14.9 3.6 14.9 3.8 C 14.9 3.9 14.9 4 14.9 4.1 C 14.9 4.1 14.9 4.1 14.9 4.1 C 14.9 4.2 14.9 4.2 14.9 4.3 C 14.9 4.3 14.8 4.3 14.8 4.3 C 14.8 4.3 14.7 4.3 14.7 4.3 C 14.6 4.2 14.6 4.2 14.6 4.1 C 14.6 4 14.6 3.9 14.6 3.8 C 14.6 3.7 14.6 3.4 14.6 3.1 C 14.7 2.7 14.7 2.6 14.7 2.6 C 14.7 2.6 14.6 2.6 14.4 2.6 C 14.2 2.6 14.1 2.6 14 2.6 C 13.9 2.6 13.9 2.6 13.8 2.6 C 13.8 2.5 13.8 2.5 13.8 2.5 C 13.8 2.4 13.8 2.4 13.8 2.3 C 13.9 2.3 14 2.3 14.1 2.3 C 14.4 2.3 14.7 2.3 15 2.2 C 15.3 2.2 15.5 2.2 15.7 2.2 C 15.8 2.2 15.9 2.2 16 2.2 C 16 2.3 16 2.3 16 2.4 C 16 2.5 16 2.5 15.9 2.5 C 15.9 2.5 15.8 2.5 15.8 2.5 C 15.7 2.5 15.6 2.5 15.6 2.5 C 15.6 2.5 15.6 2.5 15.6 2.5 Z M 17.5 2.5 C 17.5 2.5 17.1 2.5 17.1 2.5 C 16.9 2.5 16.8 2.5 16.7 2.5 C 16.6 2.5 16.5 2.6 16.5 2.6 C 16.5 2.6 16.5 2.6 16.5 2.7 C 16.5 2.7 16.5 2.8 16.4 2.9 C 16.4 3 16.4 3.1 16.4 3.1 C 16.5 3.1 16.5 3.1 16.7 3.1 C 16.8 3.1 16.9 3.1 16.9 3.1 C 17.1 3.1 17.2 3 17.2 3 C 17.4 3 17.5 3.1 17.5 3.2 C 17.5 3.2 17.4 3.3 17.4 3.3 C 17.4 3.3 17.3 3.4 17.2 3.4 C 17.1 3.4 17.1 3.4 17 3.4 C 17 3.4 16.9 3.4 16.9 3.4 C 16.6 3.4 16.4 3.5 16.4 3.5 C 16.4 3.5 16.4 3.5 16.4 3.5 C 16.4 3.5 16.4 3.5 16.4 3.5 C 16.3 3.5 16.3 3.6 16.3 3.7 C 16.3 3.9 16.3 4 16.3 4 C 16.3 4 16.3 4.1 16.3 4.1 C 16.4 4.1 16.5 4 16.7 4 C 16.9 4 17 4 17.1 4 C 17.2 3.9 17.3 3.9 17.3 3.9 C 17.5 3.9 17.5 4 17.5 4.1 C 17.5 4.1 17.5 4.2 17.5 4.2 C 17.4 4.2 17.3 4.3 17.1 4.3 C 17 4.3 16.8 4.3 16.6 4.3 C 16.4 4.4 16.3 4.4 16.1 4.4 C 16 4.4 16 4.4 15.9 4.3 C 15.9 4.3 15.9 4.2 15.9 4.2 C 15.9 4.2 15.9 4.1 15.9 4.1 C 15.9 4.1 15.9 4.1 15.9 4 C 15.9 3.9 16 3.7 16 3.2 C 16.1 2.8 16.1 2.6 16.1 2.5 C 16.1 2.5 16.1 2.5 16.1 2.5 C 16.1 2.5 16.1 2.5 16.1 2.5 C 16.1 2.4 16.1 2.4 16.1 2.4 C 16.1 2.4 16.1 2.4 16.1 2.3 C 16.1 2.3 16.1 2.3 16.1 2.3 C 16.2 2.3 16.2 2.2 16.2 2.2 C 16.3 2.2 16.3 2.3 16.4 2.3 C 16.5 2.3 16.7 2.2 17.2 2.2 C 17.3 2.1 17.4 2.1 17.4 2.1 C 17.4 2.1 17.4 2.1 17.4 2.1 C 17.6 2.1 17.7 2.2 17.7 2.3 C 17.7 2.3 17.7 2.4 17.6 2.4 C 17.6 2.4 17.6 2.5 17.5 2.5 Z M 20.6 2.5 C 20.4 2.5 20.2 2.5 20.1 2.5 C 20.1 2.5 20.1 2.6 20.1 2.6 C 20.1 2.6 20.1 2.8 20 3.1 C 20 3.4 20 3.6 20 3.8 C 20 3.9 20 4 20 4.1 C 20 4.1 20 4.1 20 4.1 C 20 4.2 20 4.2 20 4.3 C 19.9 4.3 19.9 4.3 19.9 4.3 C 19.8 4.3 19.8 4.3 19.7 4.3 C 19.7 4.2 19.7 4.2 19.6 4.1 C 19.6 4 19.6 3.9 19.6 3.8 C 19.6 3.7 19.7 3.4 19.7 3.1 C 19.7 2.7 19.8 2.6 19.8 2.6 C 19.7 2.6 19.6 2.6 19.4 2.6 C 19.2 2.6 19.1 2.6 19.1 2.6 C 19 2.6 18.9 2.6 18.9 2.6 C 18.9 2.5 18.8 2.5 18.8 2.5 C 18.8 2.4 18.9 2.4 18.9 2.3 C 18.9 2.3 19 2.3 19.2 2.3 C 19.5 2.3 19.8 2.3 20 2.2 C 20.3 2.2 20.6 2.2 20.7 2.2 C 20.9 2.2 21 2.2 21.1 2.2 C 21.1 2.3 21.1 2.3 21.1 2.4 C 21.1 2.5 21.1 2.5 21 2.5 C 21 2.5 20.9 2.5 20.8 2.5 C 20.8 2.5 20.7 2.5 20.6 2.5 C 20.6 2.5 20.6 2.5 20.6 2.5 Z M 22.6 2.5 C 22.6 2.5 22.2 2.5 22.2 2.5 C 22 2.5 21.9 2.5 21.8 2.5 C 21.7 2.5 21.6 2.6 21.6 2.6 C 21.6 2.6 21.6 2.6 21.6 2.7 C 21.6 2.7 21.5 2.8 21.5 2.9 C 21.5 3 21.5 3.1 21.5 3.1 C 21.5 3.1 21.6 3.1 21.7 3.1 C 21.9 3.1 21.9 3.1 22 3.1 C 22.1 3.1 22.2 3 22.3 3 C 22.5 3 22.5 3.1 22.5 3.2 C 22.5 3.2 22.5 3.3 22.5 3.3 C 22.4 3.3 22.4 3.4 22.3 3.4 C 22.2 3.4 22.2 3.4 22.1 3.4 C 22.1 3.4 22 3.4 21.9 3.4 C 21.7 3.4 21.5 3.5 21.5 3.5 C 21.5 3.5 21.5 3.5 21.5 3.5 C 21.5 3.5 21.4 3.5 21.4 3.5 C 21.4 3.5 21.4 3.6 21.4 3.7 C 21.4 3.9 21.4 4 21.4 4 C 21.4 4 21.4 4.1 21.4 4.1 C 21.5 4.1 21.6 4 21.8 4 C 22 4 22.1 4 22.2 4 C 22.3 3.9 22.4 3.9 22.4 3.9 C 22.5 3.9 22.6 4 22.6 4.1 C 22.6 4.1 22.6 4.2 22.6 4.2 C 22.5 4.2 22.3 4.3 22.2 4.3 C 22 4.3 21.9 4.3 21.7 4.3 C 21.5 4.4 21.3 4.4 21.2 4.4 C 21.1 4.4 21.1 4.4 21 4.3 C 21 4.3 21 4.2 21 4.2 C 21 4.2 21 4.1 21 4.1 C 21 4.1 21 4.1 21 4 C 21 3.9 21.1 3.7 21.1 3.2 C 21.2 2.8 21.2 2.6 21.2 2.5 C 21.2 2.5 21.2 2.5 21.2 2.5 C 21.2 2.5 21.2 2.5 21.2 2.5 C 21.1 2.4 21.1 2.4 21.1 2.4 C 21.1 2.4 21.1 2.4 21.1 2.3 C 21.2 2.3 21.2 2.3 21.2 2.3 C 21.2 2.3 21.3 2.2 21.3 2.2 C 21.4 2.2 21.4 2.3 21.5 2.3 C 21.5 2.3 21.8 2.2 22.2 2.2 C 22.4 2.1 22.5 2.1 22.5 2.1 C 22.5 2.1 22.5 2.1 22.5 2.1 C 22.7 2.1 22.8 2.2 22.8 2.3 C 22.8 2.3 22.7 2.4 22.7 2.4 C 22.7 2.4 22.7 2.5 22.6 2.5 Z M 25 2.8 C 25 2.7 25 2.7 25 2.7 C 25 2.7 24.5 3.3 24.5 3.3 C 24.3 3.6 24.1 3.8 24 3.8 C 23.9 3.8 23.9 3.8 23.8 3.7 C 23.8 3.6 23.8 3.5 23.7 3.4 C 23.7 3.3 23.6 3.2 23.6 3.1 C 23.6 2.9 23.5 2.9 23.5 2.8 C 23.5 2.8 23.5 3.2 23.5 3.2 C 23.4 3.3 23.4 3.4 23.4 3.5 C 23.4 3.7 23.3 3.8 23.3 3.9 C 23.3 4.1 23.3 4.2 23.3 4.2 C 23.3 4.3 23.2 4.3 23.2 4.3 C 23.1 4.4 23.1 4.4 23.1 4.4 C 23 4.4 23 4.3 23 4.3 C 22.9 4.3 22.9 4.2 22.9 4.2 C 22.9 4.1 22.9 4 22.9 3.8 C 23.1 3.2 23.2 2.9 23.2 2.7 C 23.2 2.5 23.3 2.4 23.3 2.3 C 23.3 2.3 23.3 2.2 23.3 2.2 C 23.4 2.2 23.4 2.2 23.5 2.2 C 23.5 2.2 23.6 2.2 23.6 2.2 C 23.7 2.3 23.7 2.3 23.7 2.4 C 23.71 2.38 23.7 2.4 23.7 2.4 C 23.7 2.4 23.91 2.95 23.9 2.9 C 24 3.2 24 3.3 24.1 3.4 C 24.2 3.3 24.3 3.1 24.5 2.8 C 24.7 2.5 24.9 2.3 25 2.2 C 25 2.2 25.1 2.1 25.1 2.1 C 25.2 2.1 25.2 2.1 25.3 2.2 C 25.3 2.2 25.4 2.3 25.4 2.3 C 25.4 2.3 25.4 2.5 25.3 2.7 C 25.3 2.9 25.3 3.1 25.2 3.4 C 25.2 3.6 25.2 3.7 25.2 3.8 C 25.2 3.8 25.2 3.9 25.2 4 C 25.2 4 25.2 4 25.2 4.1 C 25.2 4.2 25.2 4.2 25.2 4.3 C 25.2 4.3 25.1 4.3 25 4.3 C 24.9 4.3 24.9 4.2 24.9 4 C 24.9 3.9 24.9 3.6 24.9 3.4 C 24.9 3.1 25 2.9 25 2.8 C 25 2.8 25 2.8 25 2.8 Z M 26.9 4 C 26.9 4 27 3.9 27 3.8 C 27 3.4 27 3.1 27.1 2.7 C 27.1 2.6 27.1 2.6 27.1 2.5 C 27.1 2.5 27.1 2.5 27.1 2.5 C 27 2.5 26.9 2.4 26.9 2.4 C 26.9 2.3 26.9 2.3 27 2.2 C 27 2.2 27.1 2.2 27.1 2.2 C 27.1 2.2 27.3 2.2 27.3 2.2 C 27.4 2.2 27.5 2.2 27.7 2.2 C 27.8 2.1 27.9 2.1 28 2.1 C 28.3 2.1 28.5 2.2 28.7 2.4 C 28.9 2.5 28.9 2.7 28.9 3 C 28.9 3.3 28.8 3.5 28.5 3.7 C 28.3 4 28 4.1 27.6 4.2 C 27.5 4.2 27.4 4.2 27.4 4.3 C 27.4 4.3 27.3 4.3 27.3 4.3 C 27.2 4.4 27.1 4.4 27.1 4.4 C 27 4.4 27 4.4 26.9 4.3 C 26.9 4.3 26.9 4.2 26.9 4.2 C 26.9 4.2 26.9 4.2 26.9 4.1 C 26.9 4.1 26.9 4 26.9 4 Z M 27.3 3.9 C 27.3 3.9 27.3 3.9 27.3 4 C 27.4 4 27.5 3.9 27.8 3.9 C 28 3.8 28.2 3.7 28.4 3.5 C 28.5 3.3 28.6 3.2 28.6 3 C 28.6 2.8 28.5 2.7 28.4 2.6 C 28.3 2.5 28.2 2.4 28 2.4 C 27.8 2.4 27.7 2.4 27.5 2.5 C 27.5 2.5 27.5 2.5 27.5 2.5 C 27.4 3.1 27.3 3.6 27.3 3.9 C 27.3 3.9 27.3 3.9 27.3 3.9 Z M 30.8 2.5 C 30.8 2.5 30.4 2.5 30.4 2.5 C 30.2 2.5 30.1 2.5 30 2.5 C 29.9 2.5 29.8 2.6 29.8 2.6 C 29.8 2.6 29.8 2.6 29.8 2.7 C 29.8 2.7 29.8 2.8 29.7 2.9 C 29.7 3 29.7 3.1 29.7 3.1 C 29.7 3.1 29.8 3.1 30 3.1 C 30.1 3.1 30.2 3.1 30.2 3.1 C 30.3 3.1 30.5 3 30.5 3 C 30.7 3 30.8 3.1 30.8 3.2 C 30.8 3.2 30.7 3.3 30.7 3.3 C 30.7 3.3 30.6 3.4 30.5 3.4 C 30.4 3.4 30.4 3.4 30.3 3.4 C 30.3 3.4 30.2 3.4 30.2 3.4 C 29.9 3.4 29.7 3.5 29.7 3.5 C 29.7 3.5 29.7 3.5 29.7 3.5 C 29.7 3.5 29.7 3.5 29.6 3.5 C 29.6 3.5 29.6 3.6 29.6 3.7 C 29.6 3.9 29.6 4 29.6 4 C 29.6 4 29.6 4.1 29.6 4.1 C 29.7 4.1 29.8 4 30 4 C 30.2 4 30.3 4 30.4 4 C 30.5 3.9 30.6 3.9 30.6 3.9 C 30.8 3.9 30.8 4 30.8 4.1 C 30.8 4.1 30.8 4.2 30.8 4.2 C 30.7 4.2 30.6 4.3 30.4 4.3 C 30.2 4.3 30.1 4.3 29.9 4.3 C 29.7 4.4 29.6 4.4 29.4 4.4 C 29.3 4.4 29.3 4.4 29.2 4.3 C 29.2 4.3 29.2 4.2 29.2 4.2 C 29.2 4.2 29.2 4.1 29.2 4.1 C 29.2 4.1 29.2 4.1 29.2 4 C 29.2 3.9 29.3 3.7 29.3 3.2 C 29.4 2.8 29.4 2.6 29.4 2.5 C 29.4 2.5 29.4 2.5 29.4 2.5 C 29.4 2.5 29.4 2.5 29.4 2.5 C 29.4 2.4 29.4 2.4 29.4 2.4 C 29.4 2.4 29.4 2.4 29.4 2.3 C 29.4 2.3 29.4 2.3 29.4 2.3 C 29.5 2.3 29.5 2.2 29.5 2.2 C 29.6 2.2 29.6 2.3 29.7 2.3 C 29.8 2.3 30 2.2 30.5 2.2 C 30.6 2.1 30.7 2.1 30.7 2.1 C 30.7 2.1 30.7 2.1 30.7 2.1 C 30.9 2.1 31 2.2 31 2.3 C 31 2.3 31 2.4 30.9 2.4 C 30.9 2.4 30.9 2.5 30.8 2.5 Z M 34.3 2.8 C 34.4 2.7 34.4 2.7 34.4 2.7 C 34.4 2.7 33.9 3.3 33.9 3.3 C 33.7 3.6 33.5 3.8 33.4 3.8 C 33.3 3.8 33.2 3.8 33.2 3.7 C 33.2 3.6 33.1 3.5 33.1 3.4 C 33 3.3 33 3.2 33 3.1 C 32.9 2.9 32.9 2.9 32.9 2.8 C 32.9 2.8 32.8 3.2 32.8 3.2 C 32.8 3.3 32.8 3.4 32.7 3.5 C 32.7 3.7 32.7 3.8 32.7 3.9 C 32.6 4.1 32.6 4.2 32.6 4.2 C 32.6 4.3 32.6 4.3 32.5 4.3 C 32.5 4.4 32.5 4.4 32.4 4.4 C 32.4 4.4 32.3 4.3 32.3 4.3 C 32.3 4.3 32.2 4.2 32.2 4.2 C 32.2 4.1 32.3 4 32.3 3.8 C 32.5 3.2 32.6 2.9 32.6 2.7 C 32.6 2.5 32.6 2.4 32.6 2.3 C 32.6 2.3 32.6 2.2 32.7 2.2 C 32.7 2.2 32.8 2.2 32.9 2.2 C 32.9 2.2 32.9 2.2 33 2.2 C 33 2.3 33.1 2.3 33.1 2.4 C 33.06 2.38 33.1 2.4 33.1 2.4 C 33.1 2.4 33.27 2.95 33.3 2.9 C 33.3 3.2 33.4 3.3 33.4 3.4 C 33.5 3.3 33.7 3.1 33.9 2.8 C 34.1 2.5 34.2 2.3 34.3 2.2 C 34.4 2.2 34.5 2.1 34.5 2.1 C 34.5 2.1 34.6 2.1 34.6 2.2 C 34.7 2.2 34.7 2.3 34.7 2.3 C 34.7 2.3 34.7 2.5 34.7 2.7 C 34.6 2.9 34.6 3.1 34.6 3.4 C 34.6 3.6 34.6 3.7 34.6 3.8 C 34.6 3.8 34.6 3.9 34.6 4 C 34.6 4 34.6 4 34.6 4.1 C 34.6 4.2 34.6 4.2 34.6 4.3 C 34.5 4.3 34.5 4.3 34.4 4.3 C 34.3 4.3 34.2 4.2 34.2 4 C 34.2 3.9 34.2 3.6 34.3 3.4 C 34.3 3.1 34.3 2.9 34.3 2.8 C 34.3 2.8 34.3 2.8 34.3 2.8 Z M 35.9 4.4 C 35.8 4.4 35.7 4.3 35.5 4.3 C 35.4 4.2 35.3 4.1 35.2 3.9 C 35.1 3.8 35.1 3.6 35.1 3.4 C 35.1 3.3 35.1 3.2 35.1 3.1 C 35.1 3.1 35.2 2.8 35.2 2.8 C 35.2 2.7 35.2 2.7 35.2 2.7 C 35.2 2.6 35.2 2.5 35.2 2.5 C 35.3 2.4 35.3 2.3 35.3 2.2 C 35.4 2.2 35.4 2.1 35.5 2.1 C 35.5 2.1 35.6 2.2 35.6 2.2 C 35.6 2.3 35.6 2.3 35.6 2.4 C 35.6 2.4 35.6 2.5 35.6 2.7 C 35.6 2.7 35.5 2.8 35.5 3 C 35.5 3.2 35.5 3.4 35.5 3.4 C 35.5 3.7 35.5 3.8 35.6 3.9 C 35.7 4 35.8 4.1 35.9 4.1 C 36.2 4.1 36.3 4 36.4 3.9 C 36.5 3.8 36.6 3.6 36.6 3.4 C 36.6 3.3 36.6 3.3 36.6 3.2 C 36.6 3.1 36.6 3.1 36.6 3 C 36.7 2.6 36.7 2.4 36.7 2.3 C 36.8 2.2 36.9 2.2 36.9 2.2 C 37 2.2 37.1 2.3 37.1 2.4 C 37.1 2.5 37.1 2.6 37 2.8 C 37 2.9 37 3.1 37 3.2 C 37 3.5 36.9 3.7 36.9 3.8 C 36.8 4 36.7 4.1 36.5 4.2 C 36.4 4.3 36.2 4.4 35.9 4.4 Z M 37.4 4 C 37.4 4 37.4 3.9 37.4 3.8 C 37.5 3.4 37.5 3.1 37.6 2.7 C 37.6 2.6 37.6 2.6 37.6 2.5 C 37.6 2.5 37.6 2.5 37.6 2.5 C 37.5 2.5 37.4 2.4 37.4 2.4 C 37.4 2.3 37.4 2.3 37.5 2.2 C 37.5 2.2 37.6 2.2 37.6 2.2 C 37.6 2.2 37.8 2.2 37.8 2.2 C 37.9 2.2 38 2.2 38.2 2.2 C 38.3 2.1 38.4 2.1 38.5 2.1 C 38.8 2.1 39 2.2 39.2 2.4 C 39.3 2.5 39.4 2.7 39.4 3 C 39.4 3.3 39.3 3.5 39 3.7 C 38.8 4 38.4 4.1 38.1 4.2 C 38 4.2 37.9 4.2 37.9 4.3 C 37.8 4.3 37.8 4.3 37.7 4.3 C 37.7 4.4 37.6 4.4 37.5 4.4 C 37.5 4.4 37.4 4.4 37.4 4.3 C 37.4 4.3 37.3 4.2 37.3 4.2 C 37.3 4.2 37.4 4.2 37.4 4.1 C 37.4 4.1 37.4 4 37.4 4 Z M 37.8 3.9 C 37.8 3.9 37.8 3.9 37.8 4 C 37.8 4 38 3.9 38.2 3.9 C 38.5 3.8 38.7 3.7 38.8 3.5 C 39 3.3 39.1 3.2 39.1 3 C 39.1 2.8 39 2.7 38.9 2.6 C 38.8 2.5 38.6 2.4 38.4 2.4 C 38.3 2.4 38.2 2.4 38 2.5 C 38 2.5 38 2.5 37.9 2.5 C 37.8 3.1 37.8 3.6 37.8 3.9 C 37.8 3.9 37.8 3.9 37.8 3.9 Z M 40 3.8 C 40 3.8 39.9 3.8 39.9 3.8 C 39.9 3.8 39.9 3.9 39.8 4.1 C 39.7 4.2 39.6 4.3 39.6 4.3 C 39.6 4.3 39.5 4.3 39.5 4.3 C 39.5 4.3 39.4 4.3 39.4 4.3 C 39.3 4.2 39.3 4.2 39.3 4.2 C 39.3 4.1 39.4 3.9 39.7 3.5 C 39.8 3.3 39.9 3.1 40 2.9 C 40.3 2.5 40.4 2.3 40.4 2.2 C 40.5 2.2 40.5 2.1 40.6 2.1 C 40.7 2.1 40.7 2.1 40.8 2.2 C 40.8 2.2 40.8 2.2 40.8 2.3 C 40.8 2.3 40.8 2.4 40.8 2.4 C 41 2.9 41.1 3.3 41.2 3.5 C 41.3 3.8 41.4 3.9 41.5 4 C 41.6 4.1 41.6 4.1 41.6 4.1 C 41.6 4.1 41.6 4.2 41.6 4.2 C 41.6 4.3 41.6 4.3 41.6 4.3 C 41.5 4.4 41.5 4.4 41.4 4.4 C 41.3 4.4 41.3 4.4 41.2 4.3 C 41.1 4.2 41 4.1 41 3.9 C 40.9 3.8 40.9 3.7 40.9 3.7 C 40.9 3.7 40.9 3.7 40.9 3.7 C 40.8 3.7 40.7 3.7 40.5 3.7 C 40.3 3.7 40.2 3.8 40.1 3.8 C 40.1 3.8 40 3.8 40 3.8 C 40 3.8 40 3.8 40 3.8 Z M 40.6 3.4 C 40.7 3.4 40.7 3.4 40.8 3.4 C 40.7 3.3 40.7 3.1 40.6 2.7 C 40.5 2.7 40.5 2.7 40.5 2.7 C 40.5 2.7 40.1 3.5 40.1 3.5 C 40.2 3.5 40.2 3.4 40.3 3.4 C 40.3 3.4 40.5 3.4 40.6 3.4 C 40.6 3.4 40.6 3.4 40.6 3.4 Z M 42 2.5 C 42 2.5 41.98 2.48 42 2.5 C 41.9 2.4 41.9 2.4 41.9 2.4 C 41.9 2.3 42 2.3 42 2.2 C 42.1 2.2 42.1 2.2 42.1 2.2 C 42.2 2.2 42.2 2.2 42.2 2.2 C 42.2 2.2 42.2 2.2 42.3 2.2 C 42.5 2.2 42.7 2.1 42.9 2.1 C 43.1 2.1 43.2 2.2 43.4 2.3 C 43.5 2.4 43.6 2.5 43.6 2.7 C 43.6 2.8 43.5 3 43.4 3.1 C 43.3 3.2 43.1 3.3 42.9 3.4 C 43.2 3.7 43.5 3.9 43.7 4 C 43.7 4 43.8 4.1 43.8 4.1 C 43.8 4.2 43.7 4.2 43.7 4.2 C 43.7 4.3 43.6 4.3 43.6 4.3 C 43.5 4.3 43.5 4.3 43.4 4.2 C 43.3 4.2 43.2 4.1 43.1 4 C 42.9 3.9 42.9 3.8 42.8 3.8 C 42.7 3.7 42.5 3.6 42.4 3.5 C 42.3 3.5 42.3 3.5 42.3 3.4 C 42.3 3.3 42.3 3.3 42.4 3.2 C 42.4 3.2 42.5 3.2 42.5 3.2 C 42.5 3.2 42.5 3.2 42.6 3.2 C 42.6 3.2 42.6 3.2 42.6 3.2 C 42.7 3.2 42.8 3.1 43 3 C 43.1 2.9 43.2 2.8 43.2 2.7 C 43.2 2.6 43.2 2.5 43.1 2.5 C 43 2.4 42.9 2.4 42.8 2.4 C 42.7 2.4 42.6 2.4 42.5 2.4 C 42.4 2.5 42.4 2.5 42.4 2.5 C 42.4 2.5 42.4 2.5 42.4 2.5 C 42.4 2.5 42.3 2.7 42.3 2.8 C 42.3 3 42.2 3.2 42.2 3.4 C 42.2 3.6 42.2 3.8 42.2 3.9 C 42.2 3.9 42.2 4 42.2 4 C 42.2 4.1 42.2 4.1 42.2 4.2 C 42.2 4.2 42.2 4.2 42.1 4.3 C 42.1 4.3 42 4.3 42 4.3 C 41.9 4.3 41.8 4.3 41.8 4.1 C 41.8 3.9 41.8 3.7 41.8 3.4 C 41.9 3.2 41.9 2.9 42 2.7 C 42 2.7 42 2.6 42 2.6 C 41.98 2.61 42 2.5 42 2.5 Z M 46.7 2.5 C 46.7 2.5 46.3 2.5 46.3 2.5 C 46.1 2.5 46 2.5 45.9 2.5 C 45.8 2.5 45.7 2.6 45.7 2.6 C 45.7 2.6 45.7 2.6 45.7 2.7 C 45.7 2.7 45.6 2.8 45.6 2.9 C 45.6 3 45.6 3.1 45.6 3.1 C 45.6 3.1 45.7 3.1 45.8 3.1 C 46 3.1 46 3.1 46.1 3.1 C 46.2 3.1 46.3 3 46.4 3 C 46.6 3 46.6 3.1 46.6 3.2 C 46.6 3.2 46.6 3.3 46.6 3.3 C 46.5 3.3 46.5 3.4 46.4 3.4 C 46.3 3.4 46.3 3.4 46.2 3.4 C 46.2 3.4 46.1 3.4 46.1 3.4 C 45.8 3.4 45.6 3.5 45.6 3.5 C 45.6 3.5 45.6 3.5 45.6 3.5 C 45.6 3.5 45.5 3.5 45.5 3.5 C 45.5 3.5 45.5 3.6 45.5 3.7 C 45.5 3.9 45.5 4 45.5 4 C 45.5 4 45.5 4.1 45.5 4.1 C 45.6 4.1 45.7 4 45.9 4 C 46.1 4 46.2 4 46.3 4 C 46.4 3.9 46.5 3.9 46.5 3.9 C 46.7 3.9 46.7 4 46.7 4.1 C 46.7 4.1 46.7 4.2 46.7 4.2 C 46.6 4.2 46.4 4.3 46.3 4.3 C 46.1 4.3 46 4.3 45.8 4.3 C 45.6 4.4 45.4 4.4 45.3 4.4 C 45.2 4.4 45.2 4.4 45.1 4.3 C 45.1 4.3 45.1 4.2 45.1 4.2 C 45.1 4.2 45.1 4.1 45.1 4.1 C 45.1 4.1 45.1 4.1 45.1 4 C 45.1 3.9 45.2 3.7 45.2 3.2 C 45.3 2.8 45.3 2.6 45.3 2.5 C 45.3 2.5 45.3 2.5 45.3 2.5 C 45.3 2.5 45.3 2.5 45.3 2.5 C 45.3 2.4 45.2 2.4 45.2 2.4 C 45.2 2.4 45.2 2.4 45.2 2.3 C 45.3 2.3 45.3 2.3 45.3 2.3 C 45.3 2.3 45.4 2.2 45.4 2.2 C 45.5 2.2 45.5 2.3 45.6 2.3 C 45.6 2.3 45.9 2.2 46.3 2.2 C 46.5 2.1 46.6 2.1 46.6 2.1 C 46.6 2.1 46.6 2.1 46.6 2.1 C 46.8 2.1 46.9 2.2 46.9 2.3 C 46.9 2.3 46.9 2.4 46.8 2.4 C 46.8 2.4 46.8 2.5 46.7 2.5 Z M 48.7 2.4 C 48.7 2.6 48.6 2.7 48.4 2.7 C 48.4 2.6 48.4 2.5 48.3 2.5 C 48.3 2.5 48.2 2.4 48.1 2.4 C 47.9 2.4 47.8 2.5 47.6 2.6 C 47.5 2.6 47.4 2.7 47.4 2.8 C 47.4 2.9 47.5 2.9 47.5 3 C 47.6 3 47.7 3.1 47.9 3.1 C 48.2 3.2 48.3 3.3 48.4 3.4 C 48.5 3.5 48.6 3.5 48.6 3.7 C 48.6 3.8 48.5 4 48.2 4.2 C 47.9 4.3 47.6 4.4 47.3 4.4 C 47.2 4.4 47.1 4.4 47 4.4 C 47 4.3 46.9 4.3 46.9 4.2 C 46.9 4.1 47 4.1 47 4.1 C 47 4 47 4 47.1 4 C 47.1 4 47.1 4 47.2 4 C 47.3 4.1 47.3 4.1 47.4 4.1 C 47.6 4.1 47.8 4 48 3.9 C 48.1 3.9 48.2 3.8 48.2 3.7 C 48.2 3.7 48.2 3.6 48.2 3.6 C 48.1 3.6 48 3.5 47.9 3.5 C 47.7 3.4 47.5 3.3 47.4 3.3 C 47.3 3.3 47.2 3.2 47.2 3.1 C 47.1 3.1 47.1 3 47.1 2.9 C 47.1 2.7 47.2 2.5 47.4 2.4 C 47.6 2.2 47.9 2.1 48.1 2.1 C 48.3 2.1 48.4 2.2 48.5 2.2 C 48.6 2.3 48.7 2.4 48.7 2.4 C 48.7 2.4 48.7 2.4 48.7 2.4 Z M 50.5 2.4 C 50.5 2.6 50.4 2.7 50.2 2.7 C 50.2 2.6 50.2 2.5 50.2 2.5 C 50.1 2.5 50 2.4 49.9 2.4 C 49.8 2.4 49.6 2.5 49.5 2.6 C 49.3 2.6 49.3 2.7 49.3 2.8 C 49.3 2.9 49.3 2.9 49.4 3 C 49.4 3 49.5 3.1 49.8 3.1 C 50 3.2 50.2 3.3 50.3 3.4 C 50.4 3.5 50.5 3.5 50.5 3.7 C 50.5 3.8 50.3 4 50 4.2 C 49.7 4.3 49.4 4.4 49.1 4.4 C 49 4.4 48.9 4.4 48.9 4.4 C 48.8 4.3 48.8 4.3 48.8 4.2 C 48.8 4.1 48.8 4.1 48.8 4.1 C 48.9 4 48.9 4 48.9 4 C 49 4 49 4 49 4 C 49.1 4.1 49.2 4.1 49.3 4.1 C 49.4 4.1 49.6 4 49.8 3.9 C 50 3.9 50.1 3.8 50.1 3.7 C 50.1 3.7 50.1 3.6 50 3.6 C 50 3.6 49.9 3.5 49.7 3.5 C 49.5 3.4 49.4 3.3 49.2 3.3 C 49.1 3.3 49.1 3.2 49 3.1 C 48.9 3.1 48.9 3 48.9 2.9 C 48.9 2.7 49 2.5 49.2 2.4 C 49.5 2.2 49.7 2.1 50 2.1 C 50.2 2.1 50.3 2.2 50.4 2.2 C 50.5 2.3 50.5 2.4 50.5 2.4 C 50.5 2.4 50.5 2.4 50.5 2.4 Z M 52.4 2.5 C 52.4 2.5 52 2.5 52 2.5 C 51.8 2.5 51.7 2.5 51.6 2.5 C 51.4 2.5 51.4 2.6 51.4 2.6 C 51.4 2.6 51.4 2.6 51.4 2.7 C 51.3 2.7 51.3 2.8 51.3 2.9 C 51.3 3 51.3 3.1 51.3 3.1 C 51.3 3.1 51.4 3.1 51.5 3.1 C 51.6 3.1 51.7 3.1 51.8 3.1 C 51.9 3.1 52 3 52.1 3 C 52.3 3 52.3 3.1 52.3 3.2 C 52.3 3.2 52.3 3.3 52.3 3.3 C 52.2 3.3 52.2 3.4 52.1 3.4 C 52 3.4 51.9 3.4 51.9 3.4 C 51.8 3.4 51.8 3.4 51.7 3.4 C 51.5 3.4 51.3 3.5 51.3 3.5 C 51.3 3.5 51.3 3.5 51.3 3.5 C 51.2 3.5 51.2 3.5 51.2 3.5 C 51.2 3.5 51.2 3.6 51.2 3.7 C 51.2 3.9 51.1 4 51.1 4 C 51.1 4 51.2 4.1 51.2 4.1 C 51.3 4.1 51.4 4 51.6 4 C 51.8 4 51.9 4 52 4 C 52.1 3.9 52.2 3.9 52.2 3.9 C 52.3 3.9 52.4 4 52.4 4.1 C 52.4 4.1 52.4 4.2 52.4 4.2 C 52.3 4.2 52.1 4.3 51.9 4.3 C 51.8 4.3 51.7 4.3 51.5 4.3 C 51.3 4.4 51.1 4.4 51 4.4 C 50.9 4.4 50.8 4.4 50.8 4.3 C 50.8 4.3 50.8 4.2 50.7 4.2 C 50.7 4.2 50.7 4.1 50.7 4.1 C 50.7 4.1 50.8 4.1 50.8 4 C 50.8 3.9 50.9 3.7 50.9 3.2 C 51 2.8 51 2.6 51 2.5 C 51 2.5 51 2.5 51 2.5 C 51 2.5 51 2.5 51 2.5 C 50.9 2.4 50.9 2.4 50.9 2.4 C 50.9 2.4 50.9 2.4 50.9 2.3 C 50.9 2.3 51 2.3 51 2.3 C 51 2.3 51.1 2.2 51.1 2.2 C 51.2 2.2 51.2 2.3 51.2 2.3 C 51.3 2.3 51.6 2.2 52 2.2 C 52.2 2.1 52.3 2.1 52.3 2.1 C 52.3 2.1 52.3 2.1 52.3 2.1 C 52.5 2.1 52.6 2.2 52.6 2.3 C 52.6 2.3 52.5 2.4 52.5 2.4 C 52.5 2.4 52.4 2.5 52.4 2.5 Z M 55.5 2.4 C 55.5 2.6 55.4 2.7 55.2 2.7 C 55.2 2.6 55.2 2.5 55.1 2.5 C 55.1 2.5 55 2.4 54.9 2.4 C 54.8 2.4 54.6 2.5 54.5 2.6 C 54.3 2.6 54.3 2.7 54.3 2.8 C 54.3 2.9 54.3 2.9 54.3 3 C 54.4 3 54.5 3.1 54.7 3.1 C 55 3.2 55.1 3.3 55.3 3.4 C 55.4 3.5 55.4 3.5 55.4 3.7 C 55.4 3.8 55.3 4 55 4.2 C 54.7 4.3 54.4 4.4 54.1 4.4 C 54 4.4 53.9 4.4 53.9 4.4 C 53.8 4.3 53.8 4.3 53.8 4.2 C 53.8 4.1 53.8 4.1 53.8 4.1 C 53.8 4 53.9 4 53.9 4 C 53.9 4 54 4 54 4 C 54.1 4.1 54.2 4.1 54.3 4.1 C 54.4 4.1 54.6 4 54.8 3.9 C 55 3.9 55.1 3.8 55.1 3.7 C 55.1 3.7 55 3.6 55 3.6 C 54.9 3.6 54.8 3.5 54.7 3.5 C 54.5 3.4 54.3 3.3 54.2 3.3 C 54.1 3.3 54 3.2 54 3.1 C 53.9 3.1 53.9 3 53.9 2.9 C 53.9 2.7 54 2.5 54.2 2.4 C 54.4 2.2 54.7 2.1 55 2.1 C 55.1 2.1 55.3 2.2 55.4 2.2 C 55.5 2.3 55.5 2.4 55.5 2.4 C 55.5 2.4 55.5 2.4 55.5 2.4 Z M 56.2 2.8 C 56.2 2.9 56.2 3 56.2 3 C 56.2 3.1 56.2 3.1 56.2 3.3 C 56.1 3.5 56.1 3.6 56.1 3.7 C 56.1 3.8 56.1 3.9 56.1 4.1 C 56.2 4.2 56.1 4.2 56.1 4.3 C 56 4.3 56 4.3 55.9 4.3 C 55.9 4.3 55.8 4.3 55.8 4.2 C 55.8 4.2 55.8 4.1 55.8 3.9 C 55.8 3.8 55.8 3.6 55.8 3.3 C 55.8 3.3 55.9 2.7 55.9 2.7 C 55.9 2.6 55.9 2.5 55.9 2.5 C 55.9 2.3 56 2.3 56 2.3 C 56 2.2 56 2.2 56.1 2.2 C 56.1 2.2 56.2 2.1 56.2 2.1 C 56.2 2.1 56.3 2.2 56.3 2.2 C 56.3 2.3 56.3 2.3 56.3 2.4 C 56.3 2.4 56.2 2.8 56.2 2.8 Z M 58.2 2.4 C 58.2 2.6 58.1 2.7 58 2.7 C 58 2.6 57.9 2.5 57.9 2.5 C 57.8 2.5 57.8 2.4 57.7 2.4 C 57.5 2.4 57.3 2.5 57.2 2.6 C 57.1 2.6 57 2.7 57 2.8 C 57 2.9 57 2.9 57.1 3 C 57.1 3 57.3 3.1 57.5 3.1 C 57.7 3.2 57.9 3.3 58 3.4 C 58.1 3.5 58.2 3.5 58.2 3.7 C 58.2 3.8 58 4 57.7 4.2 C 57.4 4.3 57.2 4.4 56.8 4.4 C 56.7 4.4 56.7 4.4 56.6 4.4 C 56.5 4.3 56.5 4.3 56.5 4.2 C 56.5 4.1 56.5 4.1 56.5 4.1 C 56.6 4 56.6 4 56.6 4 C 56.7 4 56.7 4 56.7 4 C 56.8 4.1 56.9 4.1 57 4.1 C 57.2 4.1 57.3 4 57.5 3.9 C 57.7 3.9 57.8 3.8 57.8 3.7 C 57.8 3.7 57.8 3.6 57.7 3.6 C 57.7 3.6 57.6 3.5 57.4 3.5 C 57.2 3.4 57.1 3.3 57 3.3 C 56.9 3.3 56.8 3.2 56.7 3.1 C 56.7 3.1 56.6 3 56.6 2.9 C 56.6 2.7 56.7 2.5 57 2.4 C 57.2 2.2 57.4 2.1 57.7 2.1 C 57.9 2.1 58 2.2 58.1 2.2 C 58.2 2.3 58.2 2.4 58.2 2.4 C 58.2 2.4 58.2 2.4 58.2 2.4 Z M 60.1 2.5 C 59.8 2.5 59.7 2.5 59.6 2.5 C 59.6 2.5 59.6 2.6 59.5 2.6 C 59.5 2.6 59.5 2.8 59.5 3.1 C 59.5 3.4 59.4 3.6 59.4 3.8 C 59.4 3.9 59.4 4 59.5 4.1 C 59.5 4.1 59.5 4.1 59.5 4.1 C 59.5 4.2 59.5 4.2 59.4 4.3 C 59.4 4.3 59.4 4.3 59.3 4.3 C 59.3 4.3 59.2 4.3 59.2 4.3 C 59.1 4.2 59.1 4.2 59.1 4.1 C 59.1 4 59.1 3.9 59.1 3.8 C 59.1 3.7 59.1 3.4 59.1 3.1 C 59.2 2.7 59.2 2.6 59.2 2.6 C 59.2 2.6 59.1 2.6 58.9 2.6 C 58.7 2.6 58.6 2.6 58.5 2.6 C 58.4 2.6 58.4 2.6 58.3 2.6 C 58.3 2.5 58.3 2.5 58.3 2.5 C 58.3 2.4 58.3 2.4 58.3 2.3 C 58.4 2.3 58.5 2.3 58.7 2.3 C 58.9 2.3 59.2 2.3 59.5 2.2 C 59.8 2.2 60 2.2 60.2 2.2 C 60.4 2.2 60.5 2.2 60.5 2.2 C 60.5 2.3 60.6 2.3 60.6 2.4 C 60.6 2.5 60.5 2.5 60.4 2.5 C 60.4 2.5 60.4 2.5 60.3 2.5 C 60.2 2.5 60.2 2.5 60.1 2.5 C 60.1 2.5 60.1 2.5 60.1 2.5 Z M 62.1 2.5 C 62.1 2.5 61.6 2.5 61.6 2.5 C 61.5 2.5 61.3 2.5 61.2 2.5 C 61.1 2.5 61 2.6 61 2.6 C 61 2.6 61 2.6 61 2.7 C 61 2.7 61 2.8 61 2.9 C 60.9 3 60.9 3.1 60.9 3.1 C 61 3.1 61.1 3.1 61.2 3.1 C 61.3 3.1 61.4 3.1 61.4 3.1 C 61.6 3.1 61.7 3 61.8 3 C 61.9 3 62 3.1 62 3.2 C 62 3.2 62 3.3 61.9 3.3 C 61.9 3.3 61.8 3.4 61.7 3.4 C 61.7 3.4 61.6 3.4 61.5 3.4 C 61.5 3.4 61.5 3.4 61.4 3.4 C 61.1 3.4 61 3.5 60.9 3.5 C 60.9 3.5 60.9 3.5 60.9 3.5 C 60.9 3.5 60.9 3.5 60.9 3.5 C 60.9 3.5 60.9 3.6 60.8 3.7 C 60.8 3.9 60.8 4 60.8 4 C 60.8 4 60.8 4.1 60.9 4.1 C 60.9 4.1 61 4 61.2 4 C 61.4 4 61.6 4 61.6 4 C 61.7 3.9 61.8 3.9 61.9 3.9 C 62 3.9 62.1 4 62.1 4.1 C 62.1 4.1 62 4.2 62 4.2 C 61.9 4.2 61.8 4.3 61.6 4.3 C 61.5 4.3 61.3 4.3 61.1 4.3 C 61 4.4 60.8 4.4 60.6 4.4 C 60.6 4.4 60.5 4.4 60.5 4.3 C 60.4 4.3 60.4 4.2 60.4 4.2 C 60.4 4.2 60.4 4.1 60.4 4.1 C 60.4 4.1 60.4 4.1 60.4 4 C 60.5 3.9 60.5 3.7 60.6 3.2 C 60.6 2.8 60.7 2.6 60.7 2.5 C 60.7 2.5 60.7 2.5 60.6 2.5 C 60.6 2.5 60.6 2.5 60.6 2.5 C 60.6 2.4 60.6 2.4 60.6 2.4 C 60.6 2.4 60.6 2.4 60.6 2.3 C 60.6 2.3 60.6 2.3 60.7 2.3 C 60.7 2.3 60.7 2.2 60.8 2.2 C 60.8 2.2 60.9 2.3 60.9 2.3 C 61 2.3 61.3 2.2 61.7 2.2 C 61.8 2.1 61.9 2.1 61.9 2.1 C 61.9 2.1 62 2.1 62 2.1 C 62.1 2.1 62.2 2.2 62.2 2.3 C 62.2 2.3 62.2 2.4 62.2 2.4 C 62.1 2.4 62.1 2.5 62.1 2.5 Z M 64.4 2.8 C 64.5 2.7 64.5 2.7 64.5 2.7 C 64.5 2.7 64 3.3 64 3.3 C 63.7 3.6 63.6 3.8 63.5 3.8 C 63.4 3.8 63.3 3.8 63.3 3.7 C 63.3 3.6 63.2 3.5 63.2 3.4 C 63.1 3.3 63.1 3.2 63.1 3.1 C 63 2.9 63 2.9 63 2.8 C 63 2.8 62.9 3.2 62.9 3.2 C 62.9 3.3 62.9 3.4 62.8 3.5 C 62.8 3.7 62.8 3.8 62.8 3.9 C 62.7 4.1 62.7 4.2 62.7 4.2 C 62.7 4.3 62.7 4.3 62.6 4.3 C 62.6 4.4 62.6 4.4 62.5 4.4 C 62.5 4.4 62.4 4.3 62.4 4.3 C 62.4 4.3 62.3 4.2 62.3 4.2 C 62.3 4.1 62.4 4 62.4 3.8 C 62.6 3.2 62.7 2.9 62.7 2.7 C 62.7 2.5 62.7 2.4 62.7 2.3 C 62.7 2.3 62.7 2.2 62.8 2.2 C 62.8 2.2 62.9 2.2 63 2.2 C 63 2.2 63 2.2 63.1 2.2 C 63.1 2.3 63.1 2.3 63.2 2.4 C 63.16 2.38 63.2 2.4 63.2 2.4 C 63.2 2.4 63.36 2.95 63.4 2.9 C 63.4 3.2 63.5 3.3 63.5 3.4 C 63.6 3.3 63.8 3.1 64 2.8 C 64.2 2.5 64.3 2.3 64.4 2.2 C 64.5 2.2 64.5 2.1 64.6 2.1 C 64.6 2.1 64.7 2.1 64.7 2.2 C 64.8 2.2 64.8 2.3 64.8 2.3 C 64.8 2.3 64.8 2.5 64.8 2.7 C 64.7 2.9 64.7 3.1 64.7 3.4 C 64.7 3.6 64.7 3.7 64.7 3.8 C 64.7 3.8 64.7 3.9 64.7 4 C 64.7 4 64.7 4 64.7 4.1 C 64.7 4.2 64.7 4.2 64.6 4.3 C 64.6 4.3 64.6 4.3 64.5 4.3 C 64.4 4.3 64.3 4.2 64.3 4 C 64.3 3.9 64.3 3.6 64.3 3.4 C 64.4 3.1 64.4 2.9 64.4 2.8 C 64.4 2.8 64.4 2.8 64.4 2.8 Z M 65.6 3.8 C 65.6 3.8 65.6 3.8 65.6 3.8 C 65.5 3.8 65.5 3.9 65.4 4.1 C 65.3 4.2 65.3 4.3 65.2 4.3 C 65.2 4.3 65.2 4.3 65.1 4.3 C 65.1 4.3 65.1 4.3 65 4.3 C 65 4.2 64.9 4.2 64.9 4.2 C 64.9 4.1 65.1 3.9 65.3 3.5 C 65.4 3.3 65.6 3.1 65.7 2.9 C 65.9 2.5 66 2.3 66.1 2.2 C 66.1 2.2 66.2 2.1 66.2 2.1 C 66.3 2.1 66.4 2.1 66.4 2.2 C 66.4 2.2 66.4 2.2 66.4 2.3 C 66.4 2.3 66.4 2.4 66.4 2.4 C 66.6 2.9 66.7 3.3 66.8 3.5 C 66.9 3.8 67 3.9 67.1 4 C 67.2 4.1 67.2 4.1 67.2 4.1 C 67.3 4.1 67.3 4.2 67.3 4.2 C 67.3 4.3 67.2 4.3 67.2 4.3 C 67.2 4.4 67.1 4.4 67.1 4.4 C 67 4.4 66.9 4.4 66.8 4.3 C 66.8 4.2 66.7 4.1 66.6 3.9 C 66.5 3.8 66.5 3.7 66.5 3.7 C 66.5 3.7 66.5 3.7 66.5 3.7 C 66.5 3.7 66.3 3.7 66.2 3.7 C 66 3.7 65.8 3.8 65.7 3.8 C 65.7 3.8 65.7 3.8 65.6 3.8 C 65.6 3.8 65.6 3.8 65.6 3.8 Z M 66.3 3.4 C 66.3 3.4 66.4 3.4 66.4 3.4 C 66.4 3.3 66.3 3.1 66.2 2.7 C 66.2 2.7 66.2 2.7 66.2 2.7 C 66.2 2.7 65.7 3.5 65.7 3.5 C 65.8 3.5 65.9 3.4 65.9 3.4 C 66 3.4 66.1 3.4 66.3 3.4 C 66.3 3.4 66.3 3.4 66.3 3.4 Z " stroke="none" fill="#000"/>  </g></svg>