<?xml version="1.0" standalone="no"?><!DOCTYPE svg PUBLIC "-//W3C//DTD SVG 1.1//EN" "http://www.w3.org/Graphics/SVG/1.1/DTD/svg11.dtd"><svg xmlns="http://www.w3.org/2000/svg" version="1.1" width="56px" height="36.5px" viewBox="0 -2 56 36.5" style="top:-2px">  <desc>Voto DistritaL Puro HOJE O VOTO DISTRITAL CRESCE NO CORA O DOS BRASILEIROS. SAIBA MAIS</desc>  <defs/>  <g id="Polygon13841">    <path d="M 16.4 23 C 16.4 23.3 16.2 23.4 15.9 23.4 C 15.9 23.3 15.9 23.2 15.8 23.1 C 15.7 23 15.6 23 15.5 23 C 15.2 23 15 23.1 14.7 23.2 C 14.5 23.3 14.4 23.5 14.4 23.6 C 14.4 23.7 14.5 23.8 14.5 23.9 C 14.6 23.9 14.8 24 15.2 24.1 C 15.6 24.2 15.8 24.3 16 24.5 C 16.2 24.6 16.3 24.8 16.3 24.9 C 16.3 25.2 16 25.5 15.6 25.8 C 15.1 26 14.7 26.1 14.2 26.1 C 14 26.1 13.9 26.1 13.8 26 C 13.7 26 13.7 25.9 13.7 25.8 C 13.7 25.7 13.7 25.6 13.7 25.6 C 13.8 25.5 13.8 25.5 13.9 25.5 C 13.9 25.5 13.9 25.5 14 25.5 C 14.1 25.6 14.3 25.6 14.4 25.6 C 14.7 25.6 14.9 25.5 15.2 25.4 C 15.5 25.2 15.7 25.1 15.7 25 C 15.7 24.9 15.7 24.9 15.6 24.8 C 15.5 24.8 15.3 24.7 15.1 24.6 C 14.8 24.5 14.5 24.4 14.4 24.4 C 14.2 24.3 14.1 24.2 14 24.1 C 13.9 24 13.8 23.8 13.8 23.7 C 13.8 23.4 14 23.1 14.4 22.9 C 14.7 22.6 15.1 22.5 15.5 22.5 C 15.8 22.5 16 22.6 16.2 22.7 C 16.3 22.8 16.4 22.9 16.4 23 C 16.4 23 16.4 23 16.4 23 Z M 17.5 25.2 C 17.4 25.2 17.4 25.2 17.3 25.2 C 17.3 25.2 17.2 25.4 17.1 25.6 C 17 25.8 16.9 25.9 16.8 26 C 16.8 26 16.7 26 16.7 26 C 16.6 26 16.6 26 16.5 25.9 C 16.4 25.8 16.4 25.8 16.4 25.7 C 16.4 25.7 16.6 25.3 16.9 24.7 C 17.2 24.4 17.3 24.1 17.5 23.8 C 17.9 23.1 18.1 22.8 18.2 22.7 C 18.2 22.6 18.3 22.5 18.4 22.5 C 18.5 22.5 18.6 22.5 18.7 22.6 C 18.7 22.6 18.7 22.7 18.7 22.8 C 18.7 22.8 18.7 22.9 18.7 22.9 C 19 23.8 19.2 24.4 19.4 24.7 C 19.5 25.1 19.7 25.4 19.9 25.5 C 19.9 25.6 20 25.7 20 25.7 C 20 25.7 20 25.7 20 25.8 C 20 25.9 20 25.9 19.9 26 C 19.9 26.1 19.8 26.1 19.7 26.1 C 19.6 26.1 19.5 26 19.4 25.9 C 19.2 25.8 19.1 25.6 19 25.3 C 18.9 25.1 18.9 25 18.9 24.9 C 18.9 24.9 18.9 24.9 18.8 24.9 C 18.8 24.9 18.6 24.9 18.3 25 C 18 25.1 17.8 25.1 17.6 25.2 C 17.6 25.2 17.5 25.2 17.5 25.2 C 17.5 25.2 17.5 25.2 17.5 25.2 Z M 18.5 24.5 C 18.5 24.5 18.6 24.5 18.7 24.4 C 18.6 24.4 18.5 24 18.3 23.5 C 18.3 23.4 18.3 23.4 18.3 23.4 C 18.3 23.4 17.7 24.6 17.7 24.6 C 17.8 24.6 17.9 24.6 18 24.6 C 18 24.6 18.2 24.5 18.5 24.5 C 18.5 24.5 18.5 24.5 18.5 24.5 Z M 21.1 23.6 C 21.1 23.7 21.1 23.9 21.1 23.9 C 21.1 24 21.1 24.1 21 24.3 C 21 24.6 20.9 24.8 20.9 25 C 20.9 25.2 21 25.4 21 25.6 C 21 25.7 21 25.8 20.9 25.9 C 20.8 25.9 20.7 26 20.7 26 C 20.6 26 20.5 25.9 20.4 25.8 C 20.4 25.7 20.4 25.6 20.4 25.3 C 20.4 25.2 20.4 24.9 20.5 24.3 C 20.5 24.3 20.6 23.4 20.6 23.4 C 20.6 23.3 20.6 23.1 20.7 23 C 20.7 22.9 20.7 22.8 20.7 22.7 C 20.7 22.7 20.8 22.6 20.9 22.6 C 20.9 22.5 21 22.5 21 22.5 C 21.1 22.5 21.2 22.6 21.2 22.6 C 21.3 22.7 21.3 22.8 21.3 22.9 C 21.3 22.9 21.1 23.6 21.1 23.6 Z M 23.9 24 C 24.2 24.1 24.4 24.2 24.5 24.4 C 24.6 24.5 24.6 24.7 24.6 24.8 C 24.6 25.1 24.4 25.4 24 25.7 C 23.7 26 23.3 26.2 22.9 26.2 C 22.6 26.2 22.5 26.1 22.5 26 C 22.5 25.7 22.7 25.6 23 25.6 C 23 25.6 23.1 25.6 23.1 25.6 C 23.3 25.6 23.5 25.5 23.7 25.4 C 23.9 25.2 24 25 24 24.8 C 24 24.7 24 24.6 23.9 24.5 C 23.8 24.4 23.7 24.4 23.5 24.4 C 23.5 24.4 23.4 24.4 23.3 24.5 C 23.2 24.5 23.1 24.6 23.1 24.6 C 22.9 24.6 22.8 24.5 22.8 24.5 C 22.8 24.5 22.7 24.4 22.7 24.3 C 22.7 24.2 22.9 24.1 23.2 24 C 23.4 23.9 23.6 23.8 23.7 23.6 C 23.9 23.4 24 23.3 24 23.2 C 24 23 23.9 22.9 23.7 22.9 C 23.5 22.9 23.3 23 23.1 23 C 22.9 23.1 22.8 23.1 22.7 23.2 C 22.7 23.3 22.6 23.6 22.6 24.2 C 22.5 24.9 22.4 25.3 22.4 25.4 C 22.4 25.4 22.4 25.7 22.4 25.7 C 22.4 25.8 22.3 25.9 22.3 26 C 22.2 26 22.2 26 22.1 26 C 21.9 26 21.8 25.9 21.8 25.6 C 21.8 25.6 21.8 25.5 21.8 25.4 C 21.9 25.1 21.9 24.7 22 24.2 C 22.1 23.7 22.1 23.5 22.1 23.4 C 22.1 23.4 22.1 23.3 22.1 23.3 C 22.1 23.3 22 23.3 22 23.3 C 21.9 23.3 21.9 23.3 21.9 23.3 C 21.8 23.3 21.8 23.2 21.8 23.2 C 21.8 23.2 21.8 23.1 21.8 23.1 C 21.8 23 22 22.8 22.4 22.7 C 22.9 22.5 23.3 22.5 23.8 22.5 C 24 22.5 24.2 22.5 24.4 22.7 C 24.5 22.8 24.6 23 24.6 23.1 C 24.6 23.3 24.6 23.4 24.5 23.5 C 24.4 23.7 24.2 23.8 23.9 24 Z M 25.8 25.2 C 25.8 25.2 25.7 25.2 25.7 25.2 C 25.7 25.2 25.6 25.4 25.5 25.6 C 25.3 25.8 25.2 25.9 25.2 26 C 25.1 26 25.1 26 25 26 C 25 26 24.9 26 24.8 25.9 C 24.8 25.8 24.7 25.8 24.7 25.7 C 24.7 25.7 24.9 25.3 25.3 24.7 C 25.5 24.4 25.7 24.1 25.9 23.8 C 26.2 23.1 26.4 22.8 26.5 22.7 C 26.6 22.6 26.7 22.5 26.8 22.5 C 26.9 22.5 27 22.5 27 22.6 C 27.1 22.6 27.1 22.7 27.1 22.8 C 27.1 22.8 27.1 22.9 27.1 22.9 C 27.4 23.8 27.6 24.4 27.7 24.7 C 27.9 25.1 28.1 25.4 28.2 25.5 C 28.3 25.6 28.3 25.7 28.4 25.7 C 28.4 25.7 28.4 25.7 28.4 25.8 C 28.4 25.9 28.4 25.9 28.3 26 C 28.2 26.1 28.2 26.1 28.1 26.1 C 28 26.1 27.8 26 27.7 25.9 C 27.6 25.8 27.5 25.6 27.4 25.3 C 27.3 25.1 27.2 25 27.2 24.9 C 27.2 24.9 27.2 24.9 27.2 24.9 C 27.1 24.9 26.9 24.9 26.6 25 C 26.4 25.1 26.1 25.1 26 25.2 C 25.9 25.2 25.9 25.2 25.8 25.2 C 25.8 25.2 25.8 25.2 25.8 25.2 Z M 26.8 24.5 C 26.9 24.5 27 24.5 27 24.4 C 27 24.4 26.9 24 26.7 23.5 C 26.7 23.4 26.7 23.4 26.7 23.4 C 26.7 23.4 26 24.6 26 24.6 C 26.1 24.6 26.2 24.6 26.3 24.6 C 26.4 24.6 26.5 24.5 26.8 24.5 C 26.8 24.5 26.8 24.5 26.8 24.5 Z M 33.7 23.5 C 33.7 23.4 33.7 23.4 33.7 23.4 C 33.7 23.4 33 24.4 33 24.4 C 32.6 24.9 32.3 25.1 32.1 25.1 C 32 25.1 32 25.1 31.9 25 C 31.8 24.9 31.8 24.7 31.7 24.5 C 31.6 24.3 31.6 24.2 31.5 24 C 31.5 23.8 31.4 23.7 31.4 23.6 C 31.4 23.6 31.3 24.2 31.3 24.2 C 31.2 24.4 31.2 24.6 31.2 24.8 C 31.1 24.9 31.1 25.1 31 25.3 C 31 25.6 31 25.7 31 25.9 C 31 25.9 30.9 25.9 30.8 26 C 30.8 26 30.7 26.1 30.7 26.1 C 30.6 26.1 30.5 26 30.5 25.9 C 30.4 25.9 30.4 25.8 30.4 25.8 C 30.4 25.6 30.4 25.4 30.5 25.2 C 30.7 24.3 30.9 23.7 30.9 23.4 C 30.9 23.2 31 23 31 22.8 C 31 22.7 31 22.7 31.1 22.6 C 31.1 22.6 31.2 22.6 31.4 22.6 C 31.4 22.6 31.5 22.6 31.5 22.7 C 31.6 22.8 31.7 22.8 31.7 22.9 C 31.67 22.91 31.7 22.9 31.7 22.9 C 31.7 22.9 31.99 23.81 32 23.8 C 32.1 24.2 32.2 24.4 32.2 24.5 C 32.4 24.3 32.7 24 33 23.6 C 33.3 23.1 33.5 22.8 33.7 22.7 C 33.8 22.6 33.9 22.5 33.9 22.5 C 34 22.5 34.1 22.5 34.2 22.6 C 34.3 22.7 34.3 22.7 34.3 22.8 C 34.3 22.8 34.3 23 34.2 23.5 C 34.2 23.8 34.1 24.1 34.1 24.5 C 34.1 24.9 34.1 25.1 34.1 25.1 C 34.1 25.2 34.1 25.3 34.1 25.4 C 34.1 25.5 34.1 25.5 34.1 25.6 C 34.1 25.7 34.1 25.8 34 25.9 C 34 26 33.9 26 33.8 26 C 33.6 26 33.5 25.8 33.5 25.5 C 33.5 25.2 33.5 24.9 33.6 24.5 C 33.6 24.1 33.7 23.7 33.7 23.5 C 33.7 23.5 33.7 23.5 33.7 23.5 Z M 35.6 25.2 C 35.5 25.2 35.5 25.2 35.5 25.2 C 35.4 25.2 35.3 25.4 35.2 25.6 C 35.1 25.8 35 25.9 34.9 26 C 34.9 26 34.8 26 34.8 26 C 34.7 26 34.7 26 34.6 25.9 C 34.5 25.8 34.5 25.8 34.5 25.7 C 34.5 25.7 34.7 25.3 35.1 24.7 C 35.3 24.4 35.5 24.1 35.6 23.8 C 36 23.1 36.2 22.8 36.3 22.7 C 36.4 22.6 36.4 22.5 36.5 22.5 C 36.6 22.5 36.7 22.5 36.8 22.6 C 36.8 22.6 36.8 22.7 36.8 22.8 C 36.8 22.8 36.8 22.9 36.8 22.9 C 37.1 23.8 37.3 24.4 37.5 24.7 C 37.7 25.1 37.8 25.4 38 25.5 C 38.1 25.6 38.1 25.7 38.1 25.7 C 38.1 25.7 38.1 25.7 38.1 25.8 C 38.1 25.9 38.1 25.9 38.1 26 C 38 26.1 37.9 26.1 37.8 26.1 C 37.7 26.1 37.6 26 37.5 25.9 C 37.4 25.8 37.2 25.6 37.1 25.3 C 37 25.1 37 25 37 24.9 C 37 24.9 37 24.9 37 24.9 C 36.9 24.9 36.7 24.9 36.4 25 C 36.1 25.1 35.9 25.1 35.7 25.2 C 35.7 25.2 35.6 25.2 35.6 25.2 C 35.6 25.2 35.6 25.2 35.6 25.2 Z M 36.6 24.5 C 36.7 24.5 36.7 24.5 36.8 24.4 C 36.8 24.4 36.6 24 36.5 23.5 C 36.4 23.4 36.4 23.4 36.4 23.4 C 36.4 23.4 35.8 24.6 35.8 24.6 C 35.9 24.6 36 24.6 36.1 24.6 C 36.1 24.6 36.3 24.5 36.6 24.5 C 36.6 24.5 36.6 24.5 36.6 24.5 Z M 39.2 23.6 C 39.2 23.7 39.2 23.9 39.2 23.9 C 39.2 24 39.2 24.1 39.1 24.3 C 39.1 24.6 39.1 24.8 39.1 25 C 39.1 25.2 39.1 25.4 39.1 25.6 C 39.1 25.7 39.1 25.8 39 25.9 C 38.9 25.9 38.9 26 38.8 26 C 38.7 26 38.6 25.9 38.5 25.8 C 38.5 25.7 38.5 25.6 38.5 25.3 C 38.5 25.2 38.5 24.9 38.6 24.3 C 38.6 24.3 38.7 23.4 38.7 23.4 C 38.7 23.3 38.8 23.1 38.8 23 C 38.8 22.9 38.8 22.8 38.8 22.7 C 38.9 22.7 38.9 22.6 39 22.6 C 39 22.5 39.1 22.5 39.1 22.5 C 39.2 22.5 39.3 22.6 39.3 22.6 C 39.4 22.7 39.4 22.8 39.4 22.9 C 39.4 22.9 39.2 23.6 39.2 23.6 Z M 42.4 23 C 42.4 23.3 42.2 23.4 41.9 23.4 C 41.9 23.3 41.9 23.2 41.8 23.1 C 41.8 23 41.6 23 41.5 23 C 41.2 23 41 23.1 40.8 23.2 C 40.5 23.3 40.4 23.5 40.4 23.6 C 40.4 23.7 40.5 23.8 40.6 23.9 C 40.6 23.9 40.9 24 41.2 24.1 C 41.6 24.2 41.8 24.3 42 24.5 C 42.2 24.6 42.3 24.8 42.3 24.9 C 42.3 25.2 42.1 25.5 41.6 25.8 C 41.2 26 40.7 26.1 40.2 26.1 C 40 26.1 39.9 26.1 39.8 26 C 39.7 26 39.7 25.9 39.7 25.8 C 39.7 25.7 39.7 25.6 39.7 25.6 C 39.8 25.5 39.8 25.5 39.9 25.5 C 39.9 25.5 40 25.5 40 25.5 C 40.2 25.6 40.3 25.6 40.4 25.6 C 40.7 25.6 41 25.5 41.3 25.4 C 41.6 25.2 41.7 25.1 41.7 25 C 41.7 24.9 41.7 24.9 41.6 24.8 C 41.5 24.8 41.4 24.7 41.1 24.6 C 40.8 24.5 40.5 24.4 40.4 24.4 C 40.2 24.3 40.1 24.2 40 24.1 C 39.9 24 39.9 23.8 39.9 23.7 C 39.9 23.4 40 23.1 40.4 22.9 C 40.7 22.6 41.1 22.5 41.6 22.5 C 41.8 22.5 42 22.6 42.2 22.7 C 42.3 22.8 42.4 22.9 42.4 23 C 42.4 23 42.4 23 42.4 23 Z " stroke="none" fill="#000"/>  </g>  <g id="Polygon13840">    <path d="M 6.2 17.9 C 6.3 17.7 6.3 17.4 6.4 17.1 C 6.5 16.8 6.5 16.6 6.5 16.5 C 6.5 16.4 6.5 16.4 6.5 16.3 C 6.5 16.3 6.5 16.3 6.6 16.3 C 6.6 16.3 6.6 16.2 6.7 16.2 C 6.7 16.2 6.7 16.3 6.7 16.3 C 6.7 16.3 6.8 16.4 6.8 16.4 C 6.8 16.5 6.7 16.5 6.7 16.6 C 6.7 16.8 6.6 17.1 6.5 17.4 C 6.5 17.7 6.5 17.9 6.5 17.9 C 6.5 18 6.5 18.1 6.5 18.1 C 6.5 18.2 6.5 18.2 6.4 18.2 C 6.4 18.3 6.3 18.3 6.3 18.3 C 6.3 18.3 6.2 18.3 6.2 18.3 C 6.2 18.2 6.2 18.2 6.2 18.2 C 6.1 18.1 6.1 18.1 6.1 18.1 C 6.1 18 6.1 18 6 17.9 C 5.8 17.6 5.5 17.3 5.3 16.9 C 5.3 17.1 5.2 17.4 5.2 17.7 C 5.2 17.7 5.1 17.9 5.1 17.9 C 5.1 18 5.1 18 5.1 18.1 C 5.1 18.1 5.1 18.2 5.1 18.2 C 5.1 18.2 5.1 18.3 5.1 18.3 C 5 18.3 5 18.3 5 18.3 C 4.9 18.3 4.9 18.3 4.9 18.3 C 4.9 18.2 4.9 18.2 4.9 18.1 C 4.9 18.1 4.9 18 4.9 17.8 C 5 17.7 5 17.5 5.1 17.1 C 5.1 16.8 5.1 16.7 5.1 16.6 C 5.1 16.6 5.1 16.5 5.1 16.5 C 5.1 16.5 5.1 16.4 5.2 16.4 C 5.2 16.4 5.2 16.4 5.2 16.4 C 5.2 16.4 5.3 16.4 5.3 16.4 C 5.3 16.4 5.3 16.4 5.4 16.4 C 5.4 16.4 5.4 16.4 5.4 16.4 C 5.4 16.4 5.4 16.5 5.4 16.5 C 5.5 16.7 5.6 16.9 5.8 17.2 C 5.9 17.5 6.1 17.7 6.2 17.9 Z M 7.5 18.3 C 7.4 18.3 7.3 18.3 7.1 18.1 C 7 18 7 17.8 7 17.7 C 7 17.5 7 17.3 7.1 17.1 C 7.2 16.8 7.4 16.6 7.6 16.5 C 7.7 16.3 7.9 16.3 8.1 16.3 C 8.3 16.3 8.4 16.3 8.5 16.3 C 8.6 16.4 8.7 16.4 8.7 16.5 C 8.8 16.6 8.9 16.6 8.9 16.7 C 8.9 16.8 8.9 16.9 8.9 17 C 8.9 17.1 8.9 17.3 8.8 17.4 C 8.8 17.6 8.6 17.7 8.5 17.9 C 8.3 18 8.2 18.2 8 18.2 C 7.9 18.3 7.7 18.3 7.5 18.3 Z M 7.2 17.7 C 7.2 17.8 7.3 17.9 7.3 18 C 7.4 18.1 7.5 18.1 7.6 18.1 C 7.9 18.1 8.1 18 8.4 17.7 C 8.6 17.5 8.7 17.2 8.7 16.9 C 8.7 16.8 8.7 16.8 8.6 16.7 C 8.6 16.6 8.5 16.6 8.4 16.5 C 8.3 16.5 8.2 16.5 8.1 16.5 C 7.9 16.5 7.7 16.6 7.5 16.9 C 7.3 17.1 7.2 17.4 7.2 17.7 Z M 11.4 17.9 C 11.5 17.9 11.6 17.8 11.6 17.8 C 11.6 17.8 11.6 17.9 11.6 17.9 C 11.6 17.9 11.6 18 11.5 18.1 C 11.4 18.2 11.3 18.2 11.1 18.3 C 11 18.3 10.9 18.4 10.8 18.4 C 10.6 18.4 10.5 18.3 10.4 18.2 C 10.2 18.1 10.2 17.9 10.2 17.7 C 10.2 17.4 10.3 17 10.6 16.7 C 10.9 16.4 11.2 16.2 11.5 16.2 C 11.6 16.2 11.7 16.2 11.8 16.3 C 11.9 16.3 11.9 16.4 11.9 16.5 C 11.9 16.6 11.9 16.7 11.9 16.7 C 11.9 16.8 11.8 16.8 11.8 16.8 C 11.7 16.9 11.7 16.9 11.7 16.9 C 11.7 16.9 11.6 16.9 11.6 16.8 C 11.6 16.8 11.6 16.8 11.6 16.8 C 11.6 16.8 11.6 16.7 11.6 16.6 C 11.6 16.6 11.6 16.5 11.6 16.5 C 11.6 16.4 11.6 16.4 11.5 16.4 C 11.4 16.4 11.2 16.4 11.1 16.6 C 10.9 16.7 10.7 16.9 10.6 17.1 C 10.5 17.3 10.4 17.5 10.4 17.7 C 10.4 17.8 10.5 17.9 10.5 18 C 10.6 18.1 10.7 18.1 10.8 18.1 C 10.9 18.1 11 18.1 11.1 18.1 C 11.2 18 11.3 18 11.4 17.9 C 11.4 17.9 11.4 17.9 11.4 17.9 Z M 12.6 18.3 C 12.4 18.3 12.3 18.3 12.2 18.1 C 12.1 18 12 17.8 12 17.7 C 12 17.5 12.1 17.3 12.2 17.1 C 12.3 16.8 12.4 16.6 12.6 16.5 C 12.8 16.3 13 16.3 13.2 16.3 C 13.3 16.3 13.4 16.3 13.5 16.3 C 13.6 16.4 13.7 16.4 13.8 16.5 C 13.9 16.6 13.9 16.6 13.9 16.7 C 14 16.8 14 16.9 14 17 C 14 17.1 14 17.3 13.9 17.4 C 13.8 17.6 13.7 17.7 13.5 17.9 C 13.4 18 13.2 18.2 13.1 18.2 C 13 18.3 12.8 18.3 12.6 18.3 Z M 12.3 17.7 C 12.3 17.8 12.3 17.9 12.4 18 C 12.5 18.1 12.6 18.1 12.7 18.1 C 12.9 18.1 13.2 18 13.4 17.7 C 13.6 17.5 13.7 17.2 13.7 16.9 C 13.7 16.8 13.7 16.8 13.7 16.7 C 13.6 16.6 13.6 16.6 13.5 16.5 C 13.4 16.5 13.3 16.5 13.2 16.5 C 13 16.5 12.8 16.6 12.6 16.9 C 12.4 17.1 12.3 17.4 12.3 17.7 Z M 14.6 16.3 C 14.9 16.3 15.1 16.3 15.2 16.3 C 15.4 16.3 15.5 16.3 15.6 16.4 C 15.7 16.5 15.8 16.6 15.8 16.7 C 15.8 16.9 15.7 17 15.6 17.1 C 15.5 17.2 15.4 17.3 15.2 17.4 C 15.2 17.4 15.1 17.4 15.1 17.4 C 15.1 17.5 15.2 17.5 15.4 17.7 C 15.6 17.8 15.8 17.9 15.9 18 C 16 18.1 16 18.1 16 18.1 C 16 18.2 16 18.2 15.9 18.2 C 15.9 18.2 15.9 18.3 15.9 18.3 C 15.8 18.3 15.7 18.2 15.6 18.1 C 15.5 18 15.4 17.9 15.2 17.8 C 15 17.6 14.8 17.5 14.8 17.5 C 14.7 17.5 14.7 17.5 14.7 17.5 C 14.6 17.5 14.6 17.4 14.6 17.4 C 14.6 17.4 14.6 17.3 14.7 17.3 C 14.7 17.3 14.8 17.3 14.8 17.3 C 14.8 17.3 14.8 17.3 14.9 17.3 C 14.9 17.3 14.9 17.3 14.9 17.3 C 15 17.3 15.1 17.2 15.3 17.1 C 15.5 17 15.6 16.9 15.6 16.7 C 15.6 16.7 15.5 16.6 15.5 16.6 C 15.4 16.5 15.3 16.5 15.2 16.5 C 15.1 16.5 15 16.5 14.9 16.5 C 14.8 16.5 14.7 16.5 14.7 16.5 C 14.7 16.5 14.7 16.6 14.7 16.6 C 14.6 16.6 14.6 16.7 14.6 16.9 C 14.5 17.1 14.5 17.3 14.5 17.5 C 14.5 17.7 14.5 17.8 14.5 17.9 C 14.5 18 14.5 18 14.5 18.1 C 14.5 18.1 14.5 18.2 14.5 18.2 C 14.5 18.2 14.5 18.2 14.5 18.3 C 14.4 18.3 14.4 18.3 14.4 18.3 C 14.3 18.3 14.2 18.2 14.2 18.1 C 14.2 17.7 14.3 17.2 14.4 16.7 C 14.4 16.6 14.4 16.6 14.4 16.6 C 14.4 16.6 14.4 16.6 14.4 16.6 C 14.4 16.5 14.4 16.5 14.4 16.5 C 14.4 16.4 14.4 16.4 14.4 16.4 C 14.4 16.3 14.5 16.3 14.5 16.3 C 14.5 16.3 14.6 16.3 14.6 16.3 Z M 17.1 16.3 C 17.2 16.3 17.2 16.3 17.3 16.3 C 17.3 16.3 17.3 16.3 17.3 16.4 C 17.3 16.4 17.3 16.5 17.3 16.5 C 17.3 16.5 17.3 16.5 17.3 16.5 C 17.3 16.6 17.3 16.7 17.4 16.8 C 17.4 16.9 17.4 17 17.5 17.1 C 17.5 17.3 17.6 17.5 17.7 17.7 C 17.8 17.9 17.9 18 17.9 18.1 C 18 18.1 18 18.1 18 18.1 C 18 18.2 18.1 18.2 18.1 18.2 C 18.1 18.2 18 18.3 18 18.3 C 18 18.3 18 18.3 17.9 18.3 C 17.8 18.3 17.7 18.2 17.5 17.8 C 17.4 17.7 17.4 17.6 17.4 17.6 C 17.3 17.6 17.2 17.6 17.1 17.6 C 17 17.7 16.8 17.7 16.7 17.7 C 16.7 17.7 16.6 17.8 16.6 17.8 C 16.6 17.8 16.5 17.7 16.5 17.7 C 16.5 17.7 16.5 17.7 16.5 17.7 C 16.5 17.7 16.4 17.8 16.4 17.9 C 16.3 18.1 16.2 18.2 16.2 18.2 C 16.2 18.3 16.1 18.3 16.1 18.3 C 16.1 18.3 16 18.3 16 18.2 C 16 18.2 15.9 18.2 15.9 18.2 C 15.9 18.1 16 18.1 16 18 C 16 18 16.1 17.9 16.2 17.8 C 16.4 17.5 16.5 17.2 16.6 17 C 16.8 16.7 17 16.4 17 16.4 C 17.1 16.3 17.1 16.3 17.1 16.3 C 17.1 16.3 17.1 16.3 17.1 16.3 Z M 16.9 17.5 C 17.2 17.4 17.3 17.4 17.3 17.4 C 17.3 17.3 17.3 17.2 17.2 17 C 17.1 16.8 17.1 16.7 17.1 16.6 C 17 16.7 16.9 16.9 16.8 17.1 C 16.8 17.1 16.6 17.5 16.6 17.5 C 16.6 17.5 16.7 17.5 16.8 17.5 C 16.8 17.5 16.9 17.5 16.9 17.5 C 16.9 17.5 16.9 17.5 16.9 17.5 Z M 18.8 18.4 C 18.7 18.4 18.7 18.4 18.7 18.3 C 18.6 18.4 18.6 18.4 18.6 18.4 C 18.7 18.5 18.7 18.5 18.7 18.5 C 18.8 18.5 18.9 18.5 18.9 18.5 C 18.9 18.6 19 18.7 19 18.8 C 19 18.8 18.9 18.9 18.8 18.9 C 18.7 19 18.6 19.1 18.5 19.1 C 18.5 19.1 18.4 19 18.4 19 C 18.4 19 18.3 19 18.3 19 C 18.3 19 18.3 19 18.3 19 C 18.2 19 18.2 18.9 18.2 18.9 C 18.2 18.9 18.2 18.8 18.2 18.8 C 18.3 18.8 18.3 18.8 18.3 18.8 C 18.3 18.8 18.3 18.8 18.4 18.8 C 18.4 18.9 18.5 18.9 18.5 18.9 C 18.6 18.9 18.7 18.9 18.7 18.8 C 18.7 18.8 18.7 18.8 18.7 18.7 C 18.7 18.7 18.7 18.7 18.7 18.6 C 18.7 18.6 18.6 18.6 18.6 18.6 C 18.6 18.6 18.6 18.6 18.6 18.6 C 18.5 18.6 18.5 18.6 18.5 18.6 C 18.4 18.6 18.4 18.6 18.4 18.6 C 18.4 18.6 18.5 18.3 18.5 18.3 C 18.3 18.2 18.2 18 18.2 17.7 C 18.2 17.4 18.3 17 18.6 16.7 C 18.9 16.4 19.2 16.2 19.5 16.2 C 19.6 16.2 19.7 16.2 19.8 16.3 C 19.9 16.3 19.9 16.4 19.9 16.5 C 19.9 16.6 19.9 16.7 19.9 16.7 C 19.9 16.8 19.8 16.8 19.8 16.8 C 19.7 16.9 19.7 16.9 19.7 16.9 C 19.6 16.9 19.6 16.9 19.6 16.8 C 19.6 16.8 19.6 16.8 19.6 16.8 C 19.6 16.8 19.6 16.7 19.6 16.6 C 19.6 16.6 19.6 16.5 19.6 16.5 C 19.6 16.4 19.6 16.4 19.5 16.4 C 19.4 16.4 19.2 16.4 19.1 16.6 C 18.9 16.7 18.7 16.9 18.6 17.1 C 18.5 17.3 18.4 17.5 18.4 17.7 C 18.4 17.8 18.4 17.9 18.5 18 C 18.6 18.1 18.7 18.1 18.8 18.1 C 18.9 18.1 19 18.1 19.1 18.1 C 19.2 18 19.3 18 19.4 17.9 C 19.5 17.9 19.6 17.8 19.6 17.8 C 19.6 17.8 19.6 17.9 19.6 17.9 C 19.6 17.9 19.6 18 19.5 18.1 C 19.4 18.2 19.3 18.2 19.1 18.3 C 19 18.3 18.9 18.4 18.8 18.4 C 18.8 18.4 18.8 18.4 18.8 18.4 Z M 21 16.3 C 21.1 16.3 21.1 16.3 21.1 16.3 C 21.1 16.3 21.1 16.3 21.1 16.4 C 21.1 16.4 21.1 16.5 21.1 16.5 C 21.1 16.5 21.2 16.5 21.2 16.5 C 21.2 16.6 21.2 16.7 21.2 16.8 C 21.3 16.9 21.3 17 21.3 17.1 C 21.4 17.3 21.5 17.5 21.6 17.7 C 21.7 17.9 21.8 18 21.8 18.1 C 21.9 18.1 21.9 18.1 21.9 18.1 C 21.9 18.2 21.9 18.2 21.9 18.2 C 21.9 18.2 21.9 18.3 21.9 18.3 C 21.9 18.3 21.8 18.3 21.8 18.3 C 21.7 18.3 21.5 18.2 21.4 17.8 C 21.3 17.7 21.3 17.6 21.3 17.6 C 21.2 17.6 21.1 17.6 21 17.6 C 20.8 17.7 20.7 17.7 20.6 17.7 C 20.5 17.7 20.5 17.8 20.5 17.8 C 20.5 17.8 20.4 17.7 20.4 17.7 C 20.4 17.7 20.4 17.7 20.4 17.7 C 20.4 17.7 20.3 17.8 20.3 17.9 C 20.2 18.1 20.1 18.2 20.1 18.2 C 20 18.3 20 18.3 20 18.3 C 19.9 18.3 19.9 18.3 19.9 18.2 C 19.8 18.2 19.8 18.2 19.8 18.2 C 19.8 18.1 19.8 18.1 19.9 18 C 19.9 18 20 17.9 20.1 17.8 C 20.3 17.5 20.4 17.2 20.5 17 C 20.7 16.7 20.8 16.4 20.9 16.4 C 20.9 16.3 21 16.3 21 16.3 C 21 16.3 21 16.3 21 16.3 Z M 20.8 17.5 C 21 17.4 21.2 17.4 21.2 17.4 C 21.2 17.3 21.1 17.2 21.1 17 C 21 16.8 21 16.7 21 16.6 C 20.9 16.7 20.8 16.9 20.7 17.1 C 20.7 17.1 20.5 17.5 20.5 17.5 C 20.5 17.5 20.6 17.5 20.6 17.5 C 20.7 17.5 20.7 17.5 20.8 17.5 C 20.8 17.5 20.8 17.5 20.8 17.5 Z M 21.1 15.9 C 21.1 15.9 21 15.8 21 15.8 C 21 15.8 21 15.8 21 15.8 C 21 15.8 20.9 15.7 20.9 15.7 C 20.8 15.7 20.8 15.7 20.8 15.8 C 20.8 15.8 20.7 15.8 20.7 15.9 C 20.6 15.9 20.6 16 20.6 16 C 20.6 16 20.5 16 20.5 16 C 20.5 16 20.4 16 20.4 15.9 C 20.4 15.9 20.5 15.8 20.6 15.7 C 20.7 15.6 20.8 15.6 20.8 15.6 C 20.9 15.6 20.9 15.6 21 15.6 C 21 15.6 21 15.6 21.1 15.6 C 21.1 15.7 21.1 15.7 21.2 15.7 C 21.2 15.7 21.2 15.8 21.2 15.8 C 21.3 15.8 21.3 15.8 21.3 15.8 C 21.4 15.8 21.4 15.8 21.4 15.8 C 21.4 15.8 21.5 15.7 21.5 15.7 C 21.5 15.6 21.6 15.6 21.6 15.6 C 21.6 15.6 21.7 15.6 21.7 15.7 C 21.7 15.7 21.6 15.8 21.6 15.9 C 21.5 16 21.4 16 21.4 16 C 21.3 16 21.2 16 21.2 16 C 21.1 15.9 21.1 15.9 21.1 15.9 C 21.1 15.9 21.1 15.9 21.1 15.9 Z M 22.6 18.3 C 22.4 18.3 22.3 18.3 22.2 18.1 C 22.1 18 22 17.8 22 17.7 C 22 17.5 22.1 17.3 22.2 17.1 C 22.3 16.8 22.5 16.6 22.6 16.5 C 22.8 16.3 23 16.3 23.2 16.3 C 23.3 16.3 23.5 16.3 23.5 16.3 C 23.6 16.4 23.7 16.4 23.8 16.5 C 23.9 16.6 23.9 16.6 24 16.7 C 24 16.8 24 16.9 24 17 C 24 17.1 24 17.3 23.9 17.4 C 23.8 17.6 23.7 17.7 23.6 17.9 C 23.4 18 23.3 18.2 23.1 18.2 C 23 18.3 22.8 18.3 22.6 18.3 Z M 22.3 17.7 C 22.3 17.8 22.3 17.9 22.4 18 C 22.5 18.1 22.6 18.1 22.7 18.1 C 22.9 18.1 23.2 18 23.4 17.7 C 23.6 17.5 23.8 17.2 23.8 16.9 C 23.8 16.8 23.7 16.8 23.7 16.7 C 23.7 16.6 23.6 16.6 23.5 16.5 C 23.4 16.5 23.3 16.5 23.2 16.5 C 23 16.5 22.8 16.6 22.6 16.9 C 22.4 17.1 22.3 17.4 22.3 17.7 Z M 25.5 16.8 C 25.5 16.7 25.5 16.7 25.5 16.6 C 25.5 16.6 25.5 16.6 25.5 16.6 C 25.4 16.5 25.3 16.5 25.3 16.5 C 25.3 16.4 25.4 16.4 25.4 16.4 C 25.4 16.3 25.5 16.3 25.5 16.3 C 25.5 16.3 25.7 16.3 25.7 16.3 C 25.8 16.3 25.9 16.3 26 16.3 C 26.2 16.3 26.3 16.3 26.3 16.3 C 26.6 16.3 26.8 16.4 26.9 16.5 C 27.1 16.6 27.2 16.8 27.2 17 C 27.2 17.3 27 17.5 26.8 17.7 C 26.6 17.9 26.3 18.1 25.9 18.2 C 25.8 18.2 25.7 18.2 25.6 18.3 C 25.5 18.3 25.5 18.4 25.4 18.4 C 25.4 18.4 25.4 18.3 25.3 18.3 C 25.3 18.3 25.3 18.2 25.3 18.2 C 25.3 18.2 25.3 18.2 25.3 18.1 C 25.3 18.1 25.4 18.1 25.4 18 C 25.4 18 25.4 17.9 25.4 17.8 C 25.4 17.7 25.4 17.5 25.4 17.3 C 25.5 17.1 25.5 16.9 25.5 16.8 C 25.5 16.8 25.5 16.8 25.5 16.8 Z M 25.9 16.5 C 25.8 16.5 25.8 16.5 25.8 16.5 C 25.7 17.2 25.6 17.6 25.6 17.9 C 25.6 17.9 25.6 18 25.6 18 C 25.6 18 25.6 18 25.7 18 C 25.7 18 25.9 18 26.1 17.9 C 26.4 17.8 26.5 17.7 26.7 17.6 C 26.8 17.4 26.9 17.2 26.9 17 C 26.9 16.9 26.9 16.7 26.7 16.6 C 26.6 16.5 26.5 16.5 26.3 16.5 C 26.2 16.5 26 16.5 25.9 16.5 C 25.9 16.5 25.9 16.5 25.9 16.5 Z M 27.9 18.3 C 27.8 18.3 27.6 18.3 27.5 18.1 C 27.4 18 27.3 17.8 27.3 17.7 C 27.3 17.5 27.4 17.3 27.5 17.1 C 27.6 16.8 27.8 16.6 27.9 16.5 C 28.1 16.3 28.3 16.3 28.5 16.3 C 28.6 16.3 28.8 16.3 28.9 16.3 C 29 16.4 29 16.4 29.1 16.5 C 29.2 16.6 29.3 16.6 29.3 16.7 C 29.3 16.8 29.3 16.9 29.3 17 C 29.3 17.1 29.3 17.3 29.2 17.4 C 29.1 17.6 29 17.7 28.9 17.9 C 28.7 18 28.6 18.2 28.4 18.2 C 28.3 18.3 28.1 18.3 27.9 18.3 Z M 27.6 17.7 C 27.6 17.8 27.6 17.9 27.7 18 C 27.8 18.1 27.9 18.1 28 18.1 C 28.3 18.1 28.5 18 28.7 17.7 C 29 17.5 29.1 17.2 29.1 16.9 C 29.1 16.8 29 16.8 29 16.7 C 29 16.6 28.9 16.6 28.8 16.5 C 28.7 16.5 28.6 16.5 28.5 16.5 C 28.3 16.5 28.1 16.6 27.9 16.9 C 27.7 17.1 27.6 17.4 27.6 17.7 Z M 30.8 16.7 C 30.8 16.6 30.8 16.6 30.7 16.5 C 30.7 16.5 30.6 16.5 30.5 16.5 C 30.3 16.5 30.2 16.5 30 16.6 C 29.9 16.7 29.8 16.8 29.8 16.9 C 29.8 16.9 29.8 17 29.9 17.1 C 29.9 17.1 30.1 17.2 30.3 17.2 C 30.5 17.3 30.7 17.4 30.8 17.4 C 30.9 17.5 30.9 17.6 30.9 17.7 C 30.9 17.8 30.9 17.9 30.7 18 C 30.6 18.1 30.5 18.2 30.3 18.3 C 30.1 18.3 29.9 18.4 29.8 18.4 C 29.7 18.4 29.6 18.3 29.5 18.3 C 29.5 18.3 29.5 18.3 29.5 18.2 C 29.5 18.2 29.5 18.2 29.5 18.1 C 29.5 18.1 29.5 18.1 29.5 18.1 C 29.6 18.1 29.6 18.1 29.6 18.1 C 29.7 18.1 29.8 18.1 29.9 18.1 C 30 18.1 30.2 18.1 30.4 18 C 30.6 17.9 30.7 17.8 30.7 17.7 C 30.7 17.7 30.7 17.6 30.6 17.6 C 30.6 17.6 30.4 17.5 30.2 17.4 C 29.9 17.3 29.7 17.3 29.6 17.2 C 29.6 17.1 29.5 17 29.5 16.9 C 29.5 16.7 29.6 16.6 29.9 16.4 C 30.1 16.3 30.3 16.3 30.5 16.3 C 30.7 16.3 30.8 16.3 30.9 16.3 C 31 16.4 31 16.5 31 16.5 C 31 16.6 31 16.6 31 16.7 C 31 16.7 30.9 16.7 30.8 16.7 Z M 33.5 17.1 C 33.5 17.2 33.5 17.2 33.6 17.2 C 33.7 17.2 33.7 17.2 33.8 17.3 C 33.9 17.4 33.9 17.5 33.9 17.6 C 33.9 17.8 33.8 18 33.6 18.1 C 33.4 18.3 33.2 18.4 32.9 18.4 C 32.9 18.4 32.8 18.4 32.8 18.4 C 32.7 18.4 32.7 18.3 32.7 18.3 C 32.7 18.2 32.8 18.1 33 18.1 C 33 18.1 33 18.1 33.1 18.1 C 33.1 18.2 33.2 18.1 33.2 18.1 C 33.3 18.1 33.3 18.1 33.4 18 C 33.5 18 33.5 17.9 33.5 17.9 C 33.6 17.9 33.6 17.8 33.6 17.8 C 33.7 17.7 33.7 17.7 33.7 17.6 C 33.7 17.6 33.7 17.5 33.6 17.4 C 33.5 17.4 33.4 17.3 33.3 17.3 C 33.3 17.3 33.3 17.3 33.2 17.4 C 33.1 17.4 33.1 17.4 33.1 17.4 C 33 17.4 32.9 17.4 32.9 17.4 C 32.9 17.4 32.9 17.3 32.9 17.3 C 32.9 17.3 33 17.2 33.1 17.2 C 33.3 17.1 33.4 17 33.5 16.9 C 33.6 16.8 33.7 16.7 33.7 16.6 C 33.7 16.6 33.7 16.5 33.6 16.5 C 33.6 16.5 33.5 16.5 33.4 16.5 C 33.3 16.5 33.2 16.5 33 16.5 C 32.9 16.5 32.8 16.6 32.8 16.6 C 32.8 16.6 32.8 16.8 32.7 17.2 C 32.6 17.6 32.6 17.9 32.6 17.9 C 32.6 18 32.6 18.1 32.6 18.1 C 32.6 18.2 32.6 18.2 32.6 18.3 C 32.6 18.3 32.5 18.3 32.5 18.3 C 32.4 18.3 32.4 18.3 32.4 18.3 C 32.3 18.2 32.3 18.2 32.3 18.1 C 32.3 18.1 32.3 18.1 32.3 18 C 32.4 17.9 32.4 17.6 32.5 17.3 C 32.5 17 32.5 16.8 32.5 16.8 C 32.5 16.8 32.5 16.7 32.5 16.7 C 32.5 16.7 32.5 16.7 32.4 16.7 C 32.4 16.7 32.4 16.7 32.4 16.7 C 32.4 16.7 32.4 16.7 32.4 16.7 C 32.3 16.6 32.3 16.6 32.3 16.6 C 32.3 16.5 32.5 16.4 32.7 16.4 C 33 16.3 33.2 16.2 33.5 16.2 C 33.6 16.2 33.7 16.3 33.8 16.4 C 33.9 16.4 33.9 16.5 33.9 16.6 C 33.9 16.7 33.9 16.8 33.8 16.9 C 33.8 17 33.7 17 33.5 17.1 Z M 34.6 16.3 C 34.9 16.3 35.1 16.3 35.2 16.3 C 35.4 16.3 35.5 16.3 35.7 16.4 C 35.8 16.5 35.8 16.6 35.8 16.7 C 35.8 16.9 35.8 17 35.6 17.1 C 35.5 17.2 35.4 17.3 35.2 17.4 C 35.2 17.4 35.2 17.4 35.2 17.4 C 35.2 17.5 35.3 17.5 35.4 17.7 C 35.6 17.8 35.8 17.9 35.9 18 C 36 18.1 36 18.1 36 18.1 C 36 18.2 36 18.2 36 18.2 C 35.9 18.2 35.9 18.3 35.9 18.3 C 35.8 18.3 35.7 18.2 35.6 18.1 C 35.5 18 35.4 17.9 35.3 17.8 C 35 17.6 34.8 17.5 34.8 17.5 C 34.8 17.5 34.7 17.5 34.7 17.5 C 34.7 17.5 34.7 17.4 34.7 17.4 C 34.7 17.4 34.7 17.3 34.7 17.3 C 34.7 17.3 34.8 17.3 34.8 17.3 C 34.8 17.3 34.9 17.3 34.9 17.3 C 34.9 17.3 34.9 17.3 35 17.3 C 35 17.3 35.2 17.2 35.3 17.1 C 35.5 17 35.6 16.9 35.6 16.7 C 35.6 16.7 35.5 16.6 35.5 16.6 C 35.4 16.5 35.3 16.5 35.2 16.5 C 35.1 16.5 35 16.5 34.9 16.5 C 34.8 16.5 34.8 16.5 34.7 16.5 C 34.7 16.5 34.7 16.6 34.7 16.6 C 34.7 16.6 34.6 16.7 34.6 16.9 C 34.6 17.1 34.5 17.3 34.5 17.5 C 34.5 17.7 34.5 17.8 34.5 17.9 C 34.5 18 34.5 18 34.5 18.1 C 34.5 18.1 34.5 18.2 34.5 18.2 C 34.5 18.2 34.5 18.2 34.5 18.3 C 34.4 18.3 34.4 18.3 34.4 18.3 C 34.3 18.3 34.2 18.2 34.2 18.1 C 34.2 17.7 34.3 17.2 34.4 16.7 C 34.4 16.6 34.4 16.6 34.4 16.6 C 34.4 16.6 34.4 16.6 34.4 16.6 C 34.4 16.5 34.4 16.5 34.4 16.5 C 34.4 16.4 34.4 16.4 34.4 16.4 C 34.5 16.3 34.5 16.3 34.5 16.3 C 34.5 16.3 34.6 16.3 34.6 16.3 Z M 37.1 16.3 C 37.2 16.3 37.2 16.3 37.3 16.3 C 37.3 16.3 37.3 16.3 37.3 16.4 C 37.3 16.4 37.3 16.5 37.3 16.5 C 37.3 16.5 37.3 16.5 37.3 16.5 C 37.3 16.6 37.4 16.7 37.4 16.8 C 37.4 16.9 37.4 17 37.5 17.1 C 37.6 17.3 37.6 17.5 37.7 17.7 C 37.8 17.9 37.9 18 38 18.1 C 38 18.1 38 18.1 38.1 18.1 C 38.1 18.2 38.1 18.2 38.1 18.2 C 38.1 18.2 38.1 18.3 38 18.3 C 38 18.3 38 18.3 37.9 18.3 C 37.8 18.3 37.7 18.2 37.5 17.8 C 37.5 17.7 37.4 17.6 37.4 17.6 C 37.4 17.6 37.3 17.6 37.1 17.6 C 37 17.7 36.9 17.7 36.7 17.7 C 36.7 17.7 36.6 17.8 36.6 17.8 C 36.6 17.8 36.6 17.7 36.5 17.7 C 36.5 17.7 36.5 17.7 36.5 17.7 C 36.5 17.7 36.5 17.8 36.4 17.9 C 36.3 18.1 36.2 18.2 36.2 18.2 C 36.2 18.3 36.1 18.3 36.1 18.3 C 36.1 18.3 36.1 18.3 36 18.2 C 36 18.2 36 18.2 36 18.2 C 36 18.1 36 18.1 36 18 C 36 18 36.1 17.9 36.2 17.8 C 36.4 17.5 36.5 17.2 36.7 17 C 36.8 16.7 37 16.4 37 16.4 C 37.1 16.3 37.1 16.3 37.1 16.3 C 37.1 16.3 37.1 16.3 37.1 16.3 Z M 36.9 17.5 C 37.2 17.4 37.3 17.4 37.4 17.4 C 37.3 17.3 37.3 17.2 37.2 17 C 37.2 16.8 37.1 16.7 37.1 16.6 C 37 16.7 37 16.9 36.9 17.1 C 36.9 17.1 36.6 17.5 36.6 17.5 C 36.6 17.5 36.7 17.5 36.8 17.5 C 36.8 17.5 36.9 17.5 36.9 17.5 C 36.9 17.5 36.9 17.5 36.9 17.5 Z M 39.5 16.7 C 39.5 16.6 39.5 16.6 39.5 16.5 C 39.4 16.5 39.3 16.5 39.2 16.5 C 39 16.5 38.9 16.5 38.7 16.6 C 38.6 16.7 38.5 16.8 38.5 16.9 C 38.5 16.9 38.5 17 38.6 17.1 C 38.7 17.1 38.8 17.2 39 17.2 C 39.3 17.3 39.4 17.4 39.5 17.4 C 39.6 17.5 39.6 17.6 39.6 17.7 C 39.6 17.8 39.6 17.9 39.4 18 C 39.3 18.1 39.2 18.2 39 18.3 C 38.8 18.3 38.6 18.4 38.5 18.4 C 38.4 18.4 38.3 18.3 38.3 18.3 C 38.2 18.3 38.2 18.3 38.2 18.2 C 38.2 18.2 38.2 18.2 38.2 18.1 C 38.2 18.1 38.2 18.1 38.2 18.1 C 38.3 18.1 38.3 18.1 38.3 18.1 C 38.4 18.1 38.5 18.1 38.6 18.1 C 38.8 18.1 38.9 18.1 39.1 18 C 39.3 17.9 39.4 17.8 39.4 17.7 C 39.4 17.7 39.4 17.6 39.3 17.6 C 39.3 17.6 39.1 17.5 38.9 17.4 C 38.6 17.3 38.4 17.3 38.4 17.2 C 38.3 17.1 38.3 17 38.3 16.9 C 38.3 16.7 38.4 16.6 38.6 16.4 C 38.8 16.3 39 16.3 39.2 16.3 C 39.4 16.3 39.5 16.3 39.6 16.3 C 39.7 16.4 39.7 16.5 39.7 16.5 C 39.7 16.6 39.7 16.6 39.7 16.7 C 39.7 16.7 39.6 16.7 39.5 16.7 Z M 40.5 16.5 C 40.5 16.5 40.4 16.6 40.4 16.8 C 40.4 16.9 40.3 17 40.3 17.1 C 40.3 17.1 40.3 17.2 40.3 17.2 C 40.3 17.5 40.3 17.6 40.3 17.7 C 40.3 17.8 40.3 18 40.3 18.1 C 40.3 18.1 40.3 18.2 40.2 18.2 C 40.2 18.3 40.2 18.3 40.1 18.3 C 40.1 18.3 40.1 18.3 40 18.2 C 40 18.1 40 18.1 40 17.9 C 40 17.8 40 17.6 40.1 17.4 C 40.1 17.3 40.1 17.3 40.1 17.3 C 40.1 17.2 40.1 17.2 40.1 17.2 C 40.1 17.1 40.1 17.1 40.1 17.1 C 40.1 17 40.1 16.9 40.2 16.8 C 40.2 16.7 40.2 16.6 40.2 16.5 C 40.2 16.4 40.2 16.4 40.2 16.4 C 40.2 16.4 40.2 16.3 40.3 16.3 C 40.3 16.3 40.3 16.3 40.4 16.3 C 40.4 16.3 40.4 16.3 40.4 16.3 C 40.5 16.4 40.5 16.4 40.5 16.5 Z M 40.8 18 C 40.8 18 40.8 17.9 40.8 17.9 C 40.8 17.8 40.8 17.7 40.9 17.5 C 40.9 17.3 40.9 17.1 40.9 16.8 C 41 16.6 41 16.4 41 16.4 C 41 16.4 41 16.3 41 16.3 C 41 16.3 41.1 16.3 41.1 16.3 C 41.2 16.3 41.2 16.3 41.2 16.3 C 41.2 16.3 41.2 16.4 41.2 16.4 C 41.2 16.4 41.2 16.5 41.2 16.6 C 41.2 16.7 41.2 16.9 41.1 17.3 C 41.1 17.7 41 17.9 41 17.9 C 41 18 41.1 18 41.1 18 C 41.1 18 41.1 18 41.1 18 C 41.2 18 41.3 18 41.4 18 C 41.5 18 41.7 17.9 42 17.9 C 42 17.9 42.1 17.9 42.1 17.9 C 42.1 17.9 42.2 17.9 42.2 17.9 C 42.2 17.9 42.2 17.9 42.2 17.9 C 42.3 17.9 42.3 18 42.3 18 C 42.3 18.1 42.3 18.1 42.2 18.1 C 42.2 18.2 42.1 18.2 42.1 18.2 C 42.1 18.2 42 18.2 42 18.2 C 41.9 18.2 41.9 18.2 41.8 18.2 C 41.6 18.2 41.3 18.2 41 18.3 C 41 18.3 40.9 18.3 40.9 18.3 C 40.8 18.3 40.8 18.3 40.8 18.3 C 40.8 18.2 40.8 18.2 40.8 18.2 C 40.8 18.1 40.8 18.1 40.8 18 C 40.8 18 40.8 18 40.8 18 Z M 44 16.5 C 44 16.5 43.9 16.5 43.9 16.5 C 43.8 16.5 43.8 16.5 43.7 16.5 C 43.7 16.5 43.7 16.5 43.6 16.5 C 43.6 16.5 43.6 16.5 43.5 16.6 C 43.5 16.6 43.4 16.6 43.3 16.6 C 43.1 16.6 43 16.6 43 16.6 C 42.9 16.6 42.9 16.7 42.9 16.7 C 42.9 16.8 42.9 16.8 42.9 16.9 C 42.8 17.1 42.8 17.2 42.8 17.2 C 42.8 17.2 42.8 17.2 42.8 17.2 C 42.9 17.2 43 17.2 43.1 17.2 C 43.2 17.2 43.3 17.2 43.4 17.2 C 43.5 17.1 43.6 17.1 43.7 17.1 C 43.8 17.1 43.8 17.2 43.8 17.2 C 43.8 17.3 43.8 17.3 43.7 17.4 C 43.7 17.4 43.5 17.4 43.3 17.4 C 43 17.5 42.8 17.5 42.8 17.5 C 42.8 17.5 42.8 17.6 42.7 17.8 C 42.7 17.9 42.7 18 42.7 18 C 42.7 18 42.7 18 42.7 18 C 42.7 18.1 42.7 18.1 42.8 18.1 C 42.8 18.1 42.8 18.1 42.8 18.1 C 42.9 18.1 42.9 18.1 43 18.1 C 43 18.1 43.3 18.1 43.3 18.1 C 43.3 18 43.4 18 43.5 18 C 43.7 18 43.7 18 43.8 18 C 43.8 18 43.8 18 43.9 18 C 43.9 18 43.9 18.1 43.9 18.1 C 43.9 18.1 43.9 18.2 43.9 18.2 C 43.8 18.2 43.7 18.2 43.5 18.2 C 43.4 18.2 43.2 18.3 42.9 18.3 C 42.8 18.3 42.7 18.3 42.7 18.3 C 42.6 18.3 42.5 18.3 42.5 18.3 C 42.5 18.3 42.4 18.3 42.4 18.2 C 42.44 18.19 42.4 18.1 42.4 18.1 C 42.4 18.1 42.44 18.14 42.4 18.1 C 42.4 18.1 42.4 18.1 42.5 18 C 42.5 18 42.5 17.9 42.5 17.7 C 42.6 17.5 42.6 17.4 42.6 17.3 C 42.6 17.2 42.6 17.2 42.6 17.1 C 42.7 16.9 42.7 16.8 42.7 16.6 C 42.7 16.6 42.7 16.6 42.7 16.6 C 42.6 16.6 42.6 16.6 42.6 16.6 C 42.6 16.5 42.6 16.5 42.6 16.5 C 42.6 16.5 42.6 16.5 42.6 16.5 C 42.6 16.5 42.6 16.5 42.6 16.5 C 42.6 16.4 42.6 16.4 42.7 16.4 C 42.7 16.4 42.7 16.4 42.7 16.4 C 42.7 16.4 42.7 16.4 42.7 16.4 C 42.8 16.4 42.8 16.4 42.9 16.4 C 42.9 16.4 42.9 16.4 42.9 16.4 C 42.9 16.4 43 16.4 43.2 16.4 C 43.3 16.4 43.5 16.3 43.8 16.3 C 43.8 16.3 43.8 16.3 43.8 16.3 C 43.8 16.3 43.9 16.3 43.9 16.3 C 43.9 16.3 44 16.3 44 16.3 C 44 16.3 44 16.3 44.1 16.4 C 44.1 16.4 44 16.4 44 16.5 C 44 16.5 44 16.5 44 16.5 Z M 44.8 16.5 C 44.8 16.5 44.7 16.6 44.7 16.8 C 44.7 16.9 44.6 17 44.6 17.1 C 44.6 17.1 44.6 17.2 44.6 17.2 C 44.6 17.5 44.6 17.6 44.6 17.7 C 44.6 17.8 44.6 18 44.6 18.1 C 44.6 18.1 44.6 18.2 44.5 18.2 C 44.5 18.3 44.5 18.3 44.4 18.3 C 44.4 18.3 44.4 18.3 44.3 18.2 C 44.3 18.1 44.3 18.1 44.3 17.9 C 44.3 17.8 44.3 17.6 44.4 17.4 C 44.4 17.3 44.4 17.3 44.4 17.3 C 44.4 17.2 44.4 17.2 44.4 17.2 C 44.4 17.1 44.4 17.1 44.4 17.1 C 44.4 17 44.4 16.9 44.5 16.8 C 44.5 16.7 44.5 16.6 44.5 16.5 C 44.5 16.4 44.5 16.4 44.5 16.4 C 44.5 16.4 44.5 16.3 44.6 16.3 C 44.6 16.3 44.6 16.3 44.7 16.3 C 44.7 16.3 44.7 16.3 44.7 16.3 C 44.8 16.4 44.8 16.4 44.8 16.5 Z M 45.5 16.3 C 45.7 16.3 45.9 16.3 46 16.3 C 46.2 16.3 46.4 16.3 46.5 16.4 C 46.6 16.5 46.6 16.6 46.6 16.7 C 46.6 16.9 46.6 17 46.5 17.1 C 46.3 17.2 46.2 17.3 46 17.4 C 46 17.4 46 17.4 46 17.4 C 46 17.5 46.1 17.5 46.3 17.7 C 46.4 17.8 46.6 17.9 46.8 18 C 46.8 18.1 46.8 18.1 46.8 18.1 C 46.8 18.2 46.8 18.2 46.8 18.2 C 46.8 18.2 46.7 18.3 46.7 18.3 C 46.7 18.3 46.6 18.2 46.5 18.1 C 46.3 18 46.2 17.9 46.1 17.8 C 45.8 17.6 45.7 17.5 45.6 17.5 C 45.6 17.5 45.5 17.5 45.5 17.5 C 45.5 17.5 45.5 17.4 45.5 17.4 C 45.5 17.4 45.5 17.3 45.5 17.3 C 45.6 17.3 45.6 17.3 45.6 17.3 C 45.7 17.3 45.7 17.3 45.7 17.3 C 45.7 17.3 45.8 17.3 45.8 17.3 C 45.9 17.3 46 17.2 46.2 17.1 C 46.3 17 46.4 16.9 46.4 16.7 C 46.4 16.7 46.4 16.6 46.3 16.6 C 46.2 16.5 46.1 16.5 46 16.5 C 45.9 16.5 45.8 16.5 45.7 16.5 C 45.6 16.5 45.6 16.5 45.6 16.5 C 45.5 16.5 45.5 16.6 45.5 16.6 C 45.5 16.6 45.5 16.7 45.4 16.9 C 45.4 17.1 45.4 17.3 45.3 17.5 C 45.3 17.7 45.3 17.8 45.3 17.9 C 45.3 18 45.3 18 45.3 18.1 C 45.3 18.1 45.3 18.2 45.3 18.2 C 45.3 18.2 45.3 18.2 45.3 18.3 C 45.3 18.3 45.2 18.3 45.2 18.3 C 45.1 18.3 45.1 18.2 45.1 18.1 C 45.1 17.7 45.1 17.2 45.3 16.7 C 45.3 16.6 45.3 16.6 45.3 16.6 C 45.3 16.6 45.3 16.6 45.3 16.6 C 45.2 16.5 45.2 16.5 45.2 16.5 C 45.2 16.4 45.2 16.4 45.2 16.4 C 45.3 16.3 45.3 16.3 45.3 16.3 C 45.3 16.3 45.5 16.3 45.5 16.3 Z M 47.5 18.3 C 47.4 18.3 47.2 18.3 47.1 18.1 C 47 18 47 17.8 47 17.7 C 47 17.5 47 17.3 47.1 17.1 C 47.2 16.8 47.4 16.6 47.5 16.5 C 47.7 16.3 47.9 16.3 48.1 16.3 C 48.2 16.3 48.4 16.3 48.5 16.3 C 48.6 16.4 48.7 16.4 48.7 16.5 C 48.8 16.6 48.9 16.6 48.9 16.7 C 48.9 16.8 48.9 16.9 48.9 17 C 48.9 17.1 48.9 17.3 48.8 17.4 C 48.7 17.6 48.6 17.7 48.5 17.9 C 48.3 18 48.2 18.2 48 18.2 C 47.9 18.3 47.7 18.3 47.5 18.3 Z M 47.2 17.7 C 47.2 17.8 47.2 17.9 47.3 18 C 47.4 18.1 47.5 18.1 47.6 18.1 C 47.9 18.1 48.1 18 48.3 17.7 C 48.6 17.5 48.7 17.2 48.7 16.9 C 48.7 16.8 48.7 16.8 48.6 16.7 C 48.6 16.6 48.5 16.6 48.4 16.5 C 48.3 16.5 48.2 16.5 48.1 16.5 C 47.9 16.5 47.7 16.6 47.5 16.9 C 47.3 17.1 47.2 17.4 47.2 17.7 Z M 50.4 16.7 C 50.4 16.6 50.4 16.6 50.4 16.5 C 50.3 16.5 50.2 16.5 50.1 16.5 C 49.9 16.5 49.8 16.5 49.6 16.6 C 49.5 16.7 49.4 16.8 49.4 16.9 C 49.4 16.9 49.4 17 49.5 17.1 C 49.6 17.1 49.7 17.2 49.9 17.2 C 50.2 17.3 50.3 17.4 50.4 17.4 C 50.5 17.5 50.5 17.6 50.5 17.7 C 50.5 17.8 50.5 17.9 50.3 18 C 50.2 18.1 50.1 18.2 49.9 18.3 C 49.7 18.3 49.5 18.4 49.4 18.4 C 49.3 18.4 49.2 18.3 49.2 18.3 C 49.1 18.3 49.1 18.3 49.1 18.2 C 49.1 18.2 49.1 18.2 49.1 18.1 C 49.1 18.1 49.1 18.1 49.1 18.1 C 49.2 18.1 49.2 18.1 49.2 18.1 C 49.3 18.1 49.4 18.1 49.5 18.1 C 49.7 18.1 49.8 18.1 50 18 C 50.2 17.9 50.3 17.8 50.3 17.7 C 50.3 17.7 50.3 17.6 50.2 17.6 C 50.2 17.6 50 17.5 49.8 17.4 C 49.5 17.3 49.3 17.3 49.2 17.2 C 49.2 17.1 49.1 17 49.1 16.9 C 49.1 16.7 49.3 16.6 49.5 16.4 C 49.7 16.3 49.9 16.3 50.1 16.3 C 50.3 16.3 50.4 16.3 50.5 16.3 C 50.6 16.4 50.6 16.5 50.6 16.5 C 50.6 16.6 50.6 16.6 50.6 16.7 C 50.6 16.7 50.5 16.7 50.4 16.7 Z M 51 17.9 C 51 17.9 51 17.9 51 17.9 C 51.1 17.9 51.1 17.9 51.1 17.9 C 51.1 17.9 51.1 17.9 51.1 18 C 51.1 18 51.1 18 51.1 18.1 C 51.1 18.1 51.1 18.1 51 18.2 C 51 18.2 50.9 18.2 50.9 18.2 C 50.9 18.2 50.9 18.2 50.8 18.2 C 50.8 18.2 50.8 18.1 50.8 18 C 50.8 18 50.8 17.9 50.8 17.9 C 50.8 17.9 50.9 17.9 50.9 17.9 C 50.9 17.9 51 17.9 51 17.9 Z " stroke="none" fill="#000"/>  </g>  <g id="Polygon13839">    <path d="M 6.2 12.4 C 6.2 12.4 6.2 12.4 6.3 12.4 C 6.3 12.4 6.3 12.4 6.3 12.5 C 6.3 12.5 6.3 12.7 6.2 12.9 C 6.2 13.2 6.2 13.4 6.1 13.7 C 6.1 14 6.1 14.2 6.1 14.3 C 6.1 14.3 6.1 14.4 6 14.4 C 6 14.5 6 14.5 5.9 14.5 C 5.9 14.5 5.9 14.5 5.9 14.4 C 5.8 14.4 5.8 14.4 5.8 14.4 C 5.8 14.3 5.8 14.2 5.9 14 C 5.9 13.8 5.9 13.7 5.9 13.7 C 5.9 13.6 5.9 13.6 5.9 13.6 C 5.9 13.5 5.9 13.5 5.8 13.5 C 5.8 13.5 5.7 13.5 5.6 13.6 C 5.4 13.6 5.3 13.6 5.3 13.6 C 5.3 13.6 5.2 13.6 5 13.6 C 4.9 13.6 4.8 13.6 4.8 13.6 C 4.8 13.6 4.7 13.7 4.7 13.8 C 4.7 13.9 4.7 14 4.7 14.1 C 4.7 14.2 4.7 14.3 4.6 14.4 C 4.6 14.5 4.6 14.5 4.6 14.5 C 4.5 14.5 4.5 14.5 4.5 14.4 C 4.4 14.4 4.4 14.4 4.4 14.3 C 4.4 14.3 4.4 14.2 4.4 14.1 C 4.5 14 4.5 13.8 4.5 13.5 C 4.6 13.2 4.6 12.9 4.7 12.5 C 4.7 12.5 4.7 12.5 4.7 12.5 C 4.7 12.5 4.7 12.4 4.8 12.4 C 4.8 12.4 4.9 12.5 4.9 12.6 C 4.9 12.7 4.9 12.8 4.8 13 C 4.8 13.1 4.8 13.2 4.8 13.3 C 4.8 13.3 4.8 13.4 4.8 13.4 C 4.8 13.4 4.9 13.4 5 13.4 C 5.1 13.4 5.3 13.4 5.5 13.4 C 5.8 13.3 5.9 13.3 5.9 13.3 C 6 13.2 6 13.1 6 13 C 6 12.8 6 12.6 6 12.5 C 6 12.4 6 12.4 6.1 12.4 C 6.1 12.4 6.1 12.4 6.2 12.4 Z M 7.1 14.5 C 6.9 14.5 6.8 14.4 6.7 14.3 C 6.6 14.1 6.5 14 6.5 13.8 C 6.5 13.7 6.6 13.5 6.7 13.2 C 6.8 13 6.9 12.8 7.1 12.7 C 7.3 12.5 7.5 12.4 7.7 12.4 C 7.8 12.4 7.9 12.5 8 12.5 C 8.1 12.5 8.2 12.6 8.3 12.7 C 8.4 12.7 8.4 12.8 8.4 12.9 C 8.5 12.9 8.5 13 8.5 13.2 C 8.5 13.3 8.4 13.4 8.4 13.6 C 8.3 13.7 8.2 13.9 8 14.1 C 7.9 14.2 7.7 14.3 7.6 14.4 C 7.4 14.5 7.3 14.5 7.1 14.5 Z M 6.8 13.8 C 6.8 14 6.8 14.1 6.9 14.1 C 6.9 14.2 7 14.3 7.1 14.3 C 7.4 14.3 7.7 14.1 7.9 13.9 C 8.1 13.6 8.2 13.4 8.2 13.1 C 8.2 13 8.2 12.9 8.2 12.9 C 8.1 12.8 8.1 12.7 8 12.7 C 7.9 12.7 7.8 12.6 7.7 12.6 C 7.5 12.6 7.3 12.8 7.1 13 C 6.9 13.3 6.8 13.6 6.8 13.8 Z M 9.8 12.4 C 9.9 12.4 9.9 12.4 9.9 12.4 C 9.9 12.4 9.9 12.5 9.9 12.5 C 9.9 12.7 9.9 13 9.9 13.3 C 9.8 13.7 9.7 14 9.6 14.2 C 9.5 14.3 9.4 14.4 9.2 14.4 C 9 14.4 8.9 14.4 8.7 14.3 C 8.5 14.1 8.5 14.1 8.5 14 C 8.5 13.9 8.5 13.9 8.6 13.9 C 8.6 13.9 8.7 13.9 8.7 13.9 C 8.9 14.1 9 14.2 9.2 14.2 C 9.3 14.2 9.4 14.1 9.5 14 C 9.5 13.9 9.6 13.6 9.6 13.3 C 9.7 13 9.7 12.8 9.7 12.5 C 9.7 12.5 9.7 12.4 9.8 12.4 C 9.8 12.4 9.8 12.4 9.8 12.4 Z M 11.8 12.7 C 11.8 12.7 11.8 12.7 11.7 12.7 C 11.7 12.7 11.6 12.7 11.6 12.7 C 11.5 12.7 11.5 12.7 11.4 12.7 C 11.4 12.7 11.4 12.7 11.4 12.7 C 11.3 12.7 11.2 12.7 11.1 12.7 C 11 12.7 10.9 12.7 10.8 12.8 C 10.8 12.8 10.7 12.8 10.7 12.9 C 10.7 12.9 10.7 13 10.7 13.1 C 10.7 13.2 10.6 13.3 10.6 13.4 C 10.6 13.4 10.7 13.4 10.7 13.4 C 10.7 13.4 10.8 13.4 10.9 13.4 C 11 13.4 11.1 13.4 11.2 13.3 C 11.3 13.3 11.4 13.3 11.5 13.3 C 11.6 13.3 11.7 13.3 11.7 13.4 C 11.7 13.5 11.6 13.5 11.6 13.5 C 11.5 13.5 11.3 13.6 11.1 13.6 C 10.8 13.6 10.6 13.6 10.6 13.7 C 10.6 13.7 10.6 13.8 10.6 13.9 C 10.5 14.1 10.5 14.1 10.5 14.2 C 10.5 14.2 10.5 14.2 10.5 14.2 C 10.5 14.2 10.6 14.3 10.6 14.3 C 10.6 14.3 10.6 14.3 10.6 14.3 C 10.7 14.3 10.8 14.3 10.8 14.3 C 10.8 14.3 11.1 14.2 11.1 14.2 C 11.2 14.2 11.3 14.2 11.4 14.2 C 11.5 14.2 11.6 14.1 11.6 14.1 C 11.6 14.1 11.7 14.2 11.7 14.2 C 11.7 14.2 11.7 14.2 11.7 14.3 C 11.7 14.3 11.7 14.3 11.7 14.3 C 11.6 14.4 11.5 14.4 11.4 14.4 C 11.2 14.4 11 14.4 10.8 14.5 C 10.6 14.5 10.6 14.5 10.5 14.5 C 10.4 14.5 10.3 14.5 10.3 14.5 C 10.3 14.5 10.3 14.4 10.3 14.4 C 10.27 14.35 10.3 14.3 10.3 14.3 C 10.3 14.3 10.26 14.3 10.3 14.3 C 10.3 14.3 10.3 14.3 10.3 14.2 C 10.3 14.2 10.3 14 10.4 13.9 C 10.4 13.7 10.4 13.5 10.4 13.4 C 10.4 13.4 10.4 13.4 10.4 13.3 C 10.5 13.1 10.5 12.9 10.5 12.8 C 10.5 12.8 10.5 12.8 10.5 12.7 C 10.5 12.7 10.5 12.7 10.5 12.7 C 10.5 12.7 10.5 12.7 10.4 12.7 C 10.4 12.7 10.4 12.7 10.4 12.6 C 10.4 12.6 10.4 12.6 10.4 12.6 C 10.4 12.6 10.5 12.6 10.5 12.6 C 10.5 12.6 10.5 12.6 10.5 12.6 C 10.5 12.6 10.5 12.6 10.5 12.6 C 10.6 12.6 10.6 12.6 10.7 12.6 C 10.7 12.6 10.7 12.6 10.7 12.6 C 10.7 12.6 10.8 12.6 11 12.5 C 11.2 12.5 11.4 12.5 11.6 12.4 C 11.6 12.4 11.7 12.4 11.7 12.4 C 11.7 12.4 11.7 12.4 11.7 12.4 C 11.8 12.4 11.8 12.4 11.8 12.5 C 11.9 12.5 11.9 12.5 11.9 12.6 C 11.9 12.6 11.9 12.6 11.8 12.6 C 11.8 12.7 11.8 12.7 11.8 12.7 Z M 13.6 14.5 C 13.5 14.5 13.3 14.4 13.2 14.3 C 13.1 14.1 13.1 14 13.1 13.8 C 13.1 13.7 13.1 13.5 13.2 13.2 C 13.3 13 13.5 12.8 13.7 12.7 C 13.8 12.5 14 12.4 14.2 12.4 C 14.4 12.4 14.5 12.5 14.6 12.5 C 14.7 12.5 14.8 12.6 14.8 12.7 C 14.9 12.7 15 12.8 15 12.9 C 15 12.9 15 13 15 13.2 C 15 13.3 15 13.4 14.9 13.6 C 14.8 13.7 14.7 13.9 14.6 14.1 C 14.4 14.2 14.3 14.3 14.1 14.4 C 14 14.5 13.8 14.5 13.6 14.5 Z M 13.3 13.8 C 13.3 14 13.3 14.1 13.4 14.1 C 13.5 14.2 13.6 14.3 13.7 14.3 C 14 14.3 14.2 14.1 14.4 13.9 C 14.7 13.6 14.8 13.4 14.8 13.1 C 14.8 13 14.8 12.9 14.7 12.9 C 14.7 12.8 14.6 12.7 14.5 12.7 C 14.4 12.7 14.3 12.6 14.2 12.6 C 14 12.6 13.8 12.8 13.6 13 C 13.4 13.3 13.3 13.6 13.3 13.8 Z M 16.4 13.1 C 16.3 12.8 16.2 12.7 16.2 12.7 C 16.3 12.6 16.3 12.6 16.3 12.5 C 16.3 12.5 16.4 12.5 16.4 12.5 C 16.5 12.5 16.5 12.6 16.5 12.7 C 16.6 12.9 16.7 13.4 17.1 14.1 C 17.1 14 17.1 14 17.2 13.9 C 17.3 13.6 17.5 13.4 17.5 13.3 C 17.9 12.7 18.1 12.4 18.2 12.4 C 18.2 12.4 18.3 12.4 18.3 12.5 C 18.3 12.5 18.3 12.5 18.3 12.5 C 18.2 12.6 18.2 12.6 18.2 12.7 C 18 12.9 17.8 13.2 17.7 13.5 C 17.5 13.7 17.4 13.8 17.3 14 C 17.3 14.1 17.2 14.2 17.2 14.3 C 17.2 14.3 17.1 14.4 17.1 14.4 C 17.1 14.4 17 14.4 17 14.4 C 16.9 14.4 16.9 14.3 16.8 14.1 C 16.8 14 16.6 13.6 16.4 13.1 C 16.4 13.1 16.4 13.1 16.4 13.1 Z M 18.7 14.5 C 18.5 14.5 18.4 14.4 18.3 14.3 C 18.2 14.1 18.1 14 18.1 13.8 C 18.1 13.7 18.2 13.5 18.3 13.2 C 18.4 13 18.6 12.8 18.7 12.7 C 18.9 12.5 19.1 12.4 19.3 12.4 C 19.4 12.4 19.5 12.5 19.6 12.5 C 19.7 12.5 19.8 12.6 19.9 12.7 C 20 12.7 20 12.8 20.1 12.9 C 20.1 12.9 20.1 13 20.1 13.2 C 20.1 13.3 20.1 13.4 20 13.6 C 19.9 13.7 19.8 13.9 19.6 14.1 C 19.5 14.2 19.3 14.3 19.2 14.4 C 19.1 14.5 18.9 14.5 18.7 14.5 Z M 18.4 13.8 C 18.4 14 18.4 14.1 18.5 14.1 C 18.6 14.2 18.7 14.3 18.8 14.3 C 19 14.3 19.3 14.1 19.5 13.9 C 19.7 13.6 19.9 13.4 19.9 13.1 C 19.9 13 19.8 12.9 19.8 12.9 C 19.7 12.8 19.7 12.7 19.6 12.7 C 19.5 12.7 19.4 12.6 19.3 12.6 C 19.1 12.6 18.9 12.8 18.7 13 C 18.5 13.3 18.4 13.6 18.4 13.8 Z M 20.4 12.8 C 20.3 12.8 20.2 12.8 20.2 12.8 C 20.2 12.8 20.2 12.7 20.2 12.7 C 20.2 12.7 20.2 12.6 20.2 12.6 C 20.2 12.6 20.3 12.6 20.5 12.6 C 20.7 12.6 20.8 12.6 21 12.6 C 21.1 12.6 21.3 12.5 21.6 12.5 C 21.7 12.5 21.8 12.5 21.9 12.5 C 22 12.5 22 12.5 22.1 12.5 C 22.1 12.5 22.2 12.5 22.2 12.5 C 22.2 12.5 22.2 12.5 22.2 12.6 C 22.2 12.6 22.2 12.6 22.2 12.6 C 22.2 12.7 22.2 12.7 22.2 12.7 C 22.1 12.7 22.1 12.7 22 12.7 C 22 12.7 21.9 12.7 21.8 12.7 C 21.7 12.7 21.6 12.7 21.5 12.7 C 21.4 12.7 21.3 12.8 21.3 12.8 C 21.3 12.8 21.3 13 21.2 13.3 C 21.2 13.6 21.2 13.9 21.2 14 C 21.2 14.1 21.2 14.2 21.2 14.3 C 21.2 14.3 21.2 14.3 21.2 14.3 C 21.2 14.3 21.2 14.4 21.2 14.4 C 21.2 14.4 21.1 14.4 21.1 14.4 C 21.1 14.4 21 14.4 21 14.4 C 21 14.3 20.9 14.2 20.9 14 C 20.9 13.8 21 13.4 21.1 12.9 C 21.1 12.8 21.1 12.8 21.1 12.8 C 21.1 12.8 21 12.8 21 12.8 C 21 12.8 20.9 12.8 20.7 12.8 C 20.6 12.8 20.4 12.8 20.4 12.8 C 20.4 12.8 20.4 12.8 20.4 12.8 Z M 22.6 14.5 C 22.5 14.5 22.4 14.4 22.2 14.3 C 22.1 14.1 22.1 14 22.1 13.8 C 22.1 13.7 22.1 13.5 22.2 13.2 C 22.3 13 22.5 12.8 22.7 12.7 C 22.8 12.5 23 12.4 23.2 12.4 C 23.4 12.4 23.5 12.5 23.6 12.5 C 23.7 12.5 23.8 12.6 23.8 12.7 C 23.9 12.7 24 12.8 24 12.9 C 24 12.9 24 13 24 13.2 C 24 13.3 24 13.4 23.9 13.6 C 23.9 13.7 23.7 13.9 23.6 14.1 C 23.4 14.2 23.3 14.3 23.1 14.4 C 23 14.5 22.8 14.5 22.6 14.5 Z M 22.3 13.8 C 22.3 14 22.4 14.1 22.4 14.1 C 22.5 14.2 22.6 14.3 22.7 14.3 C 23 14.3 23.2 14.1 23.5 13.9 C 23.7 13.6 23.8 13.4 23.8 13.1 C 23.8 13 23.8 12.9 23.7 12.9 C 23.7 12.8 23.6 12.7 23.5 12.7 C 23.4 12.7 23.3 12.6 23.2 12.6 C 23 12.6 22.8 12.8 22.6 13 C 22.4 13.3 22.3 13.6 22.3 13.8 Z M 25.5 13 C 25.5 12.9 25.6 12.8 25.6 12.8 C 25.6 12.8 25.5 12.7 25.5 12.7 C 25.4 12.7 25.4 12.7 25.4 12.6 C 25.4 12.6 25.4 12.6 25.4 12.5 C 25.5 12.5 25.5 12.5 25.5 12.5 C 25.5 12.5 25.7 12.5 25.7 12.5 C 25.8 12.5 25.9 12.5 26.1 12.5 C 26.2 12.5 26.3 12.5 26.4 12.5 C 26.6 12.5 26.8 12.5 27 12.7 C 27.1 12.8 27.2 13 27.2 13.2 C 27.2 13.5 27.1 13.7 26.9 13.9 C 26.7 14.1 26.3 14.2 26 14.3 C 25.8 14.4 25.7 14.4 25.6 14.4 C 25.6 14.5 25.5 14.5 25.5 14.5 C 25.4 14.5 25.4 14.5 25.4 14.5 C 25.3 14.4 25.3 14.4 25.3 14.4 C 25.3 14.4 25.3 14.4 25.4 14.3 C 25.4 14.3 25.4 14.2 25.4 14.2 C 25.4 14.2 25.4 14.1 25.4 14 C 25.4 13.9 25.4 13.7 25.5 13.5 C 25.5 13.2 25.5 13.1 25.5 13 C 25.5 13 25.5 13 25.5 13 Z M 25.9 12.7 C 25.9 12.7 25.8 12.7 25.8 12.7 C 25.7 13.3 25.6 13.8 25.6 14 C 25.6 14.1 25.6 14.1 25.7 14.2 C 25.7 14.2 25.7 14.2 25.7 14.2 C 25.8 14.2 25.9 14.1 26.1 14.1 C 26.4 14 26.6 13.9 26.7 13.7 C 26.9 13.6 27 13.4 27 13.2 C 27 13 26.9 12.9 26.8 12.8 C 26.7 12.7 26.5 12.7 26.3 12.7 C 26.2 12.7 26.1 12.7 25.9 12.7 C 25.9 12.7 25.9 12.7 25.9 12.7 Z M 28 12.6 C 27.9 12.7 27.9 12.8 27.9 13 C 27.8 13.1 27.8 13.2 27.8 13.3 C 27.8 13.3 27.8 13.4 27.8 13.4 C 27.8 13.6 27.7 13.8 27.7 13.9 C 27.7 14 27.7 14.1 27.8 14.2 C 27.8 14.3 27.8 14.4 27.7 14.4 C 27.7 14.4 27.7 14.4 27.6 14.4 C 27.6 14.4 27.5 14.4 27.5 14.4 C 27.5 14.3 27.5 14.2 27.5 14.1 C 27.5 14 27.5 13.8 27.5 13.6 C 27.6 13.5 27.6 13.4 27.6 13.4 C 27.6 13.4 27.6 13.4 27.6 13.3 C 27.6 13.3 27.6 13.3 27.6 13.2 C 27.6 13.2 27.6 13 27.6 12.9 C 27.7 12.8 27.7 12.7 27.7 12.6 C 27.7 12.6 27.7 12.6 27.7 12.5 C 27.7 12.5 27.7 12.5 27.8 12.5 C 27.8 12.5 27.8 12.4 27.8 12.4 C 27.9 12.4 27.9 12.5 27.9 12.5 C 27.9 12.5 28 12.6 28 12.6 Z M 29.5 12.9 C 29.5 12.8 29.5 12.7 29.4 12.7 C 29.4 12.7 29.3 12.6 29.2 12.6 C 29 12.6 28.9 12.7 28.7 12.8 C 28.6 12.8 28.5 12.9 28.5 13 C 28.5 13.1 28.5 13.2 28.6 13.2 C 28.6 13.3 28.8 13.3 29 13.4 C 29.2 13.5 29.4 13.5 29.5 13.6 C 29.6 13.7 29.6 13.8 29.6 13.9 C 29.6 14 29.6 14.1 29.4 14.2 C 29.3 14.3 29.2 14.4 29 14.4 C 28.8 14.5 28.6 14.5 28.5 14.5 C 28.4 14.5 28.3 14.5 28.2 14.5 C 28.2 14.5 28.2 14.4 28.2 14.4 C 28.2 14.4 28.2 14.3 28.2 14.3 C 28.2 14.2 28.2 14.2 28.2 14.2 C 28.3 14.2 28.3 14.2 28.3 14.2 C 28.4 14.3 28.5 14.3 28.6 14.3 C 28.7 14.3 28.9 14.2 29.1 14.1 C 29.3 14 29.4 13.9 29.4 13.9 C 29.4 13.8 29.4 13.8 29.3 13.8 C 29.3 13.7 29.1 13.7 28.9 13.6 C 28.6 13.5 28.4 13.4 28.3 13.3 C 28.3 13.2 28.2 13.2 28.2 13.1 C 28.2 12.9 28.3 12.7 28.6 12.6 C 28.8 12.5 29 12.4 29.2 12.4 C 29.4 12.4 29.5 12.5 29.6 12.5 C 29.7 12.6 29.7 12.6 29.7 12.7 C 29.7 12.7 29.7 12.8 29.7 12.8 C 29.7 12.9 29.6 12.9 29.5 12.9 Z M 30 12.8 C 29.9 12.8 29.8 12.8 29.8 12.8 C 29.8 12.8 29.8 12.7 29.8 12.7 C 29.8 12.7 29.8 12.6 29.8 12.6 C 29.9 12.6 29.9 12.6 30.1 12.6 C 30.3 12.6 30.4 12.6 30.6 12.6 C 30.7 12.6 30.9 12.5 31.2 12.5 C 31.3 12.5 31.4 12.5 31.5 12.5 C 31.6 12.5 31.6 12.5 31.7 12.5 C 31.7 12.5 31.8 12.5 31.8 12.5 C 31.8 12.5 31.8 12.5 31.8 12.6 C 31.8 12.6 31.8 12.6 31.8 12.6 C 31.8 12.7 31.8 12.7 31.8 12.7 C 31.7 12.7 31.7 12.7 31.7 12.7 C 31.6 12.7 31.5 12.7 31.4 12.7 C 31.4 12.7 31.2 12.7 31.1 12.7 C 31 12.7 30.9 12.8 30.9 12.8 C 30.9 12.8 30.9 13 30.8 13.3 C 30.8 13.6 30.8 13.9 30.8 14 C 30.8 14.1 30.8 14.2 30.8 14.3 C 30.8 14.3 30.8 14.3 30.8 14.3 C 30.8 14.3 30.8 14.4 30.8 14.4 C 30.8 14.4 30.7 14.4 30.7 14.4 C 30.7 14.4 30.6 14.4 30.6 14.4 C 30.6 14.3 30.5 14.2 30.5 14 C 30.5 13.8 30.6 13.4 30.7 12.9 C 30.7 12.8 30.7 12.8 30.7 12.8 C 30.7 12.8 30.6 12.8 30.6 12.8 C 30.6 12.8 30.5 12.8 30.3 12.8 C 30.2 12.8 30 12.8 30 12.8 C 30 12.8 30 12.8 30 12.8 Z M 32.1 12.5 C 32.4 12.5 32.6 12.4 32.7 12.4 C 32.9 12.4 33 12.5 33.1 12.6 C 33.3 12.7 33.3 12.8 33.3 12.9 C 33.3 13 33.2 13.2 33.1 13.3 C 33 13.4 32.9 13.5 32.7 13.6 C 32.7 13.6 32.6 13.6 32.6 13.6 C 32.6 13.6 32.7 13.7 32.9 13.8 C 33.1 14 33.3 14.1 33.4 14.2 C 33.5 14.2 33.5 14.3 33.5 14.3 C 33.5 14.3 33.5 14.4 33.5 14.4 C 33.4 14.4 33.4 14.4 33.4 14.4 C 33.3 14.4 33.2 14.4 33.1 14.3 C 33 14.2 32.9 14.1 32.8 14 C 32.5 13.8 32.3 13.7 32.3 13.7 C 32.2 13.7 32.2 13.7 32.2 13.6 C 32.2 13.6 32.1 13.6 32.1 13.6 C 32.1 13.5 32.2 13.5 32.2 13.5 C 32.2 13.4 32.3 13.4 32.3 13.4 C 32.3 13.4 32.3 13.4 32.4 13.4 C 32.4 13.4 32.4 13.4 32.4 13.4 C 32.5 13.4 32.6 13.4 32.8 13.3 C 33 13.2 33.1 13.1 33.1 12.9 C 33.1 12.8 33 12.8 33 12.7 C 32.9 12.7 32.8 12.6 32.7 12.6 C 32.6 12.6 32.5 12.6 32.4 12.7 C 32.3 12.7 32.2 12.7 32.2 12.7 C 32.2 12.7 32.2 12.7 32.2 12.8 C 32.1 12.8 32.1 12.9 32.1 13.1 C 32.1 13.3 32 13.5 32 13.7 C 32 13.9 32 14 32 14.1 C 32 14.1 32 14.2 32 14.2 C 32 14.3 32 14.3 32 14.3 C 32 14.4 32 14.4 32 14.4 C 31.9 14.5 31.9 14.5 31.9 14.5 C 31.8 14.5 31.7 14.4 31.7 14.2 C 31.7 13.9 31.8 13.4 31.9 12.8 C 31.9 12.8 31.9 12.8 31.9 12.8 C 31.9 12.8 31.9 12.7 31.9 12.7 C 31.9 12.7 31.9 12.6 31.9 12.6 C 31.9 12.6 31.9 12.6 31.9 12.5 C 31.9 12.5 32 12.5 32 12.5 C 32 12.5 32.1 12.5 32.1 12.5 Z M 34.2 12.6 C 34.2 12.7 34.2 12.8 34.1 13 C 34.1 13.1 34.1 13.2 34 13.3 C 34 13.3 34 13.4 34 13.4 C 34 13.6 34 13.8 34 13.9 C 34 14 34 14.1 34 14.2 C 34 14.3 34 14.4 34 14.4 C 33.9 14.4 33.9 14.4 33.9 14.4 C 33.8 14.4 33.8 14.4 33.8 14.4 C 33.7 14.3 33.7 14.2 33.7 14.1 C 33.7 14 33.7 13.8 33.8 13.6 C 33.8 13.5 33.8 13.4 33.8 13.4 C 33.8 13.4 33.8 13.4 33.8 13.3 C 33.8 13.3 33.8 13.3 33.8 13.2 C 33.8 13.2 33.8 13 33.9 12.9 C 33.9 12.8 33.9 12.7 33.9 12.6 C 33.9 12.6 33.9 12.6 33.9 12.5 C 33.9 12.5 34 12.5 34 12.5 C 34 12.5 34.1 12.4 34.1 12.4 C 34.1 12.4 34.1 12.5 34.2 12.5 C 34.2 12.5 34.2 12.6 34.2 12.6 Z M 34.5 12.8 C 34.4 12.8 34.4 12.8 34.3 12.8 C 34.3 12.8 34.3 12.7 34.3 12.7 C 34.3 12.7 34.3 12.6 34.4 12.6 C 34.4 12.6 34.5 12.6 34.6 12.6 C 34.8 12.6 35 12.6 35.1 12.6 C 35.2 12.6 35.5 12.5 35.8 12.5 C 35.9 12.5 36 12.5 36.1 12.5 C 36.1 12.5 36.2 12.5 36.2 12.5 C 36.3 12.5 36.3 12.5 36.3 12.5 C 36.3 12.5 36.4 12.5 36.4 12.6 C 36.4 12.6 36.4 12.6 36.4 12.6 C 36.4 12.7 36.4 12.7 36.3 12.7 C 36.3 12.7 36.2 12.7 36.2 12.7 C 36.1 12.7 36.1 12.7 36 12.7 C 35.9 12.7 35.8 12.7 35.7 12.7 C 35.5 12.7 35.4 12.8 35.4 12.8 C 35.4 12.8 35.4 13 35.4 13.3 C 35.3 13.6 35.3 13.9 35.3 14 C 35.3 14.1 35.3 14.2 35.3 14.3 C 35.4 14.3 35.4 14.3 35.4 14.3 C 35.4 14.3 35.3 14.4 35.3 14.4 C 35.3 14.4 35.3 14.4 35.2 14.4 C 35.2 14.4 35.2 14.4 35.1 14.4 C 35.1 14.3 35.1 14.2 35.1 14 C 35.1 13.8 35.1 13.4 35.2 12.9 C 35.2 12.8 35.2 12.8 35.2 12.8 C 35.2 12.8 35.2 12.8 35.2 12.8 C 35.1 12.8 35 12.8 34.8 12.8 C 34.7 12.8 34.6 12.8 34.5 12.8 C 34.5 12.8 34.5 12.8 34.5 12.8 Z M 37.1 12.4 C 37.2 12.4 37.2 12.5 37.3 12.5 C 37.3 12.5 37.3 12.5 37.3 12.6 C 37.3 12.6 37.3 12.6 37.3 12.6 C 37.3 12.6 37.3 12.7 37.3 12.7 C 37.3 12.8 37.3 12.9 37.4 13 C 37.4 13 37.4 13.1 37.5 13.2 C 37.5 13.5 37.6 13.7 37.7 13.9 C 37.8 14 37.9 14.2 37.9 14.2 C 38 14.3 38 14.3 38 14.3 C 38 14.3 38 14.3 38 14.4 C 38 14.4 38 14.4 38 14.5 C 38 14.5 38 14.5 37.9 14.5 C 37.8 14.5 37.7 14.3 37.5 14 C 37.4 13.8 37.4 13.8 37.4 13.8 C 37.3 13.8 37.2 13.8 37.1 13.8 C 37 13.8 36.8 13.9 36.7 13.9 C 36.7 13.9 36.6 13.9 36.6 13.9 C 36.6 13.9 36.5 13.9 36.5 13.9 C 36.5 13.9 36.5 13.9 36.5 13.9 C 36.5 13.9 36.4 13.9 36.4 14.1 C 36.3 14.2 36.2 14.4 36.2 14.4 C 36.1 14.4 36.1 14.5 36.1 14.5 C 36.1 14.5 36 14.4 36 14.4 C 36 14.4 35.9 14.4 35.9 14.3 C 35.9 14.3 36 14.3 36 14.2 C 36 14.2 36.1 14.1 36.2 13.9 C 36.4 13.7 36.5 13.4 36.6 13.2 C 36.8 12.8 37 12.6 37 12.5 C 37.1 12.5 37.1 12.4 37.1 12.4 C 37.1 12.4 37.1 12.4 37.1 12.4 Z M 36.9 13.6 C 37.2 13.6 37.3 13.6 37.3 13.5 C 37.3 13.5 37.3 13.3 37.2 13.2 C 37.1 13 37.1 12.8 37.1 12.8 C 37 12.9 36.9 13 36.8 13.2 C 36.8 13.2 36.6 13.7 36.6 13.7 C 36.6 13.7 36.7 13.7 36.8 13.7 C 36.8 13.6 36.9 13.6 36.9 13.6 C 36.9 13.6 36.9 13.6 36.9 13.6 Z M 38.3 14.2 C 38.3 14.1 38.3 14.1 38.3 14 C 38.3 14 38.3 13.9 38.3 13.7 C 38.4 13.5 38.4 13.3 38.4 13 C 38.4 12.7 38.4 12.6 38.5 12.6 C 38.5 12.5 38.5 12.5 38.5 12.5 C 38.5 12.5 38.5 12.4 38.6 12.4 C 38.6 12.4 38.7 12.5 38.7 12.5 C 38.7 12.5 38.7 12.5 38.7 12.6 C 38.7 12.6 38.7 12.7 38.7 12.8 C 38.7 12.9 38.6 13.1 38.6 13.5 C 38.5 13.8 38.5 14 38.5 14.1 C 38.5 14.1 38.5 14.1 38.5 14.2 C 38.5 14.2 38.6 14.2 38.6 14.2 C 38.6 14.2 38.7 14.2 38.9 14.1 C 39 14.1 39.2 14.1 39.4 14.1 C 39.5 14.1 39.5 14.1 39.6 14.1 C 39.6 14.1 39.6 14.1 39.6 14.1 C 39.7 14.1 39.7 14.1 39.7 14.1 C 39.7 14.1 39.7 14.1 39.7 14.2 C 39.7 14.2 39.7 14.3 39.7 14.3 C 39.6 14.3 39.6 14.3 39.6 14.3 C 39.5 14.3 39.5 14.3 39.4 14.3 C 39.4 14.3 39.3 14.3 39.3 14.3 C 39 14.3 38.7 14.4 38.5 14.5 C 38.4 14.5 38.4 14.5 38.4 14.5 C 38.3 14.5 38.3 14.5 38.3 14.4 C 38.2 14.4 38.2 14.4 38.2 14.3 C 38.2 14.3 38.2 14.3 38.3 14.2 C 38.3 14.2 38.3 14.2 38.3 14.2 Z M 42.2 14.1 C 42.2 14 42.3 14 42.3 14 C 42.4 14 42.4 14 42.4 14.1 C 42.4 14.1 42.3 14.2 42.2 14.3 C 42.1 14.3 42 14.4 41.9 14.4 C 41.8 14.5 41.6 14.5 41.5 14.5 C 41.4 14.5 41.2 14.5 41.1 14.4 C 41 14.3 40.9 14.1 40.9 13.9 C 40.9 13.6 41.1 13.2 41.4 12.9 C 41.7 12.5 42 12.3 42.3 12.3 C 42.4 12.3 42.5 12.4 42.5 12.4 C 42.6 12.5 42.6 12.6 42.6 12.7 C 42.6 12.8 42.6 12.8 42.6 12.9 C 42.6 12.9 42.6 13 42.5 13 C 42.5 13 42.4 13 42.4 13 C 42.4 13 42.4 13 42.4 13 C 42.3 13 42.3 13 42.3 12.9 C 42.3 12.9 42.3 12.9 42.4 12.8 C 42.4 12.7 42.4 12.7 42.4 12.7 C 42.4 12.6 42.3 12.5 42.3 12.5 C 42.1 12.5 42 12.6 41.8 12.7 C 41.6 12.9 41.5 13.1 41.3 13.3 C 41.2 13.5 41.1 13.7 41.1 13.9 C 41.1 14 41.2 14.1 41.3 14.2 C 41.3 14.3 41.4 14.3 41.6 14.3 C 41.6 14.3 41.7 14.3 41.8 14.2 C 42 14.2 42.1 14.2 42.2 14.1 C 42.2 14.1 42.2 14.1 42.2 14.1 Z M 43.2 12.5 C 43.5 12.5 43.6 12.4 43.8 12.4 C 44 12.4 44.1 12.5 44.2 12.6 C 44.3 12.7 44.4 12.8 44.4 12.9 C 44.4 13 44.3 13.2 44.2 13.3 C 44.1 13.4 43.9 13.5 43.8 13.6 C 43.7 13.6 43.7 13.6 43.7 13.6 C 43.7 13.6 43.8 13.7 44 13.8 C 44.2 14 44.4 14.1 44.5 14.2 C 44.6 14.2 44.6 14.3 44.6 14.3 C 44.6 14.3 44.6 14.4 44.5 14.4 C 44.5 14.4 44.5 14.4 44.4 14.4 C 44.4 14.4 44.3 14.4 44.2 14.3 C 44.1 14.2 44 14.1 43.8 14 C 43.6 13.8 43.4 13.7 43.4 13.7 C 43.3 13.7 43.3 13.7 43.3 13.6 C 43.2 13.6 43.2 13.6 43.2 13.6 C 43.2 13.5 43.2 13.5 43.3 13.5 C 43.3 13.4 43.3 13.4 43.4 13.4 C 43.4 13.4 43.4 13.4 43.5 13.4 C 43.5 13.4 43.5 13.4 43.5 13.4 C 43.6 13.4 43.7 13.4 43.9 13.3 C 44.1 13.2 44.2 13.1 44.2 12.9 C 44.2 12.8 44.1 12.8 44 12.7 C 44 12.7 43.9 12.6 43.7 12.6 C 43.7 12.6 43.6 12.6 43.5 12.7 C 43.4 12.7 43.3 12.7 43.3 12.7 C 43.3 12.7 43.3 12.7 43.2 12.8 C 43.2 12.8 43.2 12.9 43.2 13.1 C 43.1 13.3 43.1 13.5 43.1 13.7 C 43.1 13.9 43.1 14 43.1 14.1 C 43.1 14.1 43.1 14.2 43.1 14.2 C 43.1 14.3 43.1 14.3 43.1 14.3 C 43.1 14.4 43.1 14.4 43 14.4 C 43 14.5 43 14.5 42.9 14.5 C 42.9 14.5 42.8 14.4 42.8 14.2 C 42.8 13.9 42.9 13.4 43 12.8 C 43 12.8 43 12.8 43 12.8 C 43 12.8 43 12.7 43 12.7 C 43 12.7 42.9 12.6 42.9 12.6 C 42.9 12.6 43 12.6 43 12.5 C 43 12.5 43.1 12.5 43.1 12.5 C 43.1 12.5 43.2 12.5 43.2 12.5 Z M 46.3 12.7 C 46.3 12.7 46.2 12.7 46.2 12.7 C 46.2 12.7 46.1 12.7 46.1 12.7 C 46 12.7 46 12.7 45.9 12.7 C 45.9 12.7 45.9 12.7 45.8 12.7 C 45.8 12.7 45.7 12.7 45.6 12.7 C 45.5 12.7 45.3 12.7 45.3 12.8 C 45.3 12.8 45.2 12.8 45.2 12.9 C 45.2 12.9 45.2 13 45.2 13.1 C 45.2 13.2 45.1 13.3 45.1 13.4 C 45.1 13.4 45.2 13.4 45.2 13.4 C 45.2 13.4 45.3 13.4 45.4 13.4 C 45.5 13.4 45.6 13.4 45.7 13.3 C 45.8 13.3 45.9 13.3 46 13.3 C 46.1 13.3 46.2 13.3 46.2 13.4 C 46.2 13.5 46.1 13.5 46 13.5 C 46 13.5 45.8 13.6 45.6 13.6 C 45.3 13.6 45.1 13.6 45.1 13.7 C 45.1 13.7 45.1 13.8 45.1 13.9 C 45 14.1 45 14.1 45 14.2 C 45 14.2 45 14.2 45 14.2 C 45 14.2 45.1 14.3 45.1 14.3 C 45.1 14.3 45.1 14.3 45.1 14.3 C 45.2 14.3 45.2 14.3 45.3 14.3 C 45.3 14.3 45.6 14.2 45.6 14.2 C 45.7 14.2 45.8 14.2 45.9 14.2 C 46 14.2 46.1 14.1 46.1 14.1 C 46.1 14.1 46.1 14.2 46.2 14.2 C 46.2 14.2 46.2 14.2 46.2 14.3 C 46.2 14.3 46.2 14.3 46.2 14.3 C 46.1 14.4 46 14.4 45.8 14.4 C 45.7 14.4 45.5 14.4 45.3 14.5 C 45.1 14.5 45 14.5 45 14.5 C 44.9 14.5 44.8 14.5 44.8 14.5 C 44.8 14.5 44.8 14.4 44.8 14.4 C 44.76 14.35 44.8 14.3 44.8 14.3 C 44.8 14.3 44.75 14.3 44.8 14.3 C 44.8 14.3 44.8 14.3 44.8 14.2 C 44.8 14.2 44.8 14 44.9 13.9 C 44.9 13.7 44.9 13.5 44.9 13.4 C 44.9 13.4 44.9 13.4 44.9 13.3 C 45 13.1 45 12.9 45 12.8 C 45 12.8 45 12.8 45 12.7 C 45 12.7 45 12.7 45 12.7 C 45 12.7 44.9 12.7 44.9 12.7 C 44.9 12.7 44.9 12.7 44.9 12.6 C 44.9 12.6 44.9 12.6 44.9 12.6 C 44.9 12.6 44.9 12.6 45 12.6 C 45 12.6 45 12.6 45 12.6 C 45 12.6 45 12.6 45 12.6 C 45.1 12.6 45.1 12.6 45.2 12.6 C 45.2 12.6 45.2 12.6 45.2 12.6 C 45.2 12.6 45.3 12.6 45.5 12.5 C 45.6 12.5 45.9 12.5 46.1 12.4 C 46.1 12.4 46.1 12.4 46.2 12.4 C 46.2 12.4 46.2 12.4 46.2 12.4 C 46.2 12.4 46.3 12.4 46.3 12.5 C 46.3 12.5 46.4 12.5 46.4 12.6 C 46.4 12.6 46.4 12.6 46.3 12.6 C 46.3 12.7 46.3 12.7 46.3 12.7 Z M 47.9 12.9 C 47.9 12.8 47.8 12.7 47.8 12.7 C 47.7 12.7 47.6 12.6 47.5 12.6 C 47.3 12.6 47.2 12.7 47 12.8 C 46.9 12.8 46.8 12.9 46.8 13 C 46.8 13.1 46.8 13.2 46.9 13.2 C 47 13.3 47.1 13.3 47.3 13.4 C 47.6 13.5 47.7 13.5 47.8 13.6 C 47.9 13.7 48 13.8 48 13.9 C 48 14 47.9 14.1 47.8 14.2 C 47.6 14.3 47.5 14.4 47.3 14.4 C 47.1 14.5 46.9 14.5 46.8 14.5 C 46.7 14.5 46.6 14.5 46.6 14.5 C 46.5 14.5 46.5 14.4 46.5 14.4 C 46.5 14.4 46.5 14.3 46.5 14.3 C 46.5 14.2 46.5 14.2 46.6 14.2 C 46.6 14.2 46.6 14.2 46.6 14.2 C 46.7 14.3 46.8 14.3 46.9 14.3 C 47.1 14.3 47.2 14.2 47.4 14.1 C 47.6 14 47.7 13.9 47.7 13.9 C 47.7 13.8 47.7 13.8 47.6 13.8 C 47.6 13.7 47.4 13.7 47.2 13.6 C 46.9 13.5 46.7 13.4 46.7 13.3 C 46.6 13.2 46.6 13.2 46.6 13.1 C 46.6 12.9 46.7 12.7 46.9 12.6 C 47.1 12.5 47.3 12.4 47.6 12.4 C 47.7 12.4 47.8 12.5 47.9 12.5 C 48 12.6 48 12.6 48 12.7 C 48 12.7 48 12.8 48 12.8 C 48 12.9 47.9 12.9 47.9 12.9 Z M 49.5 14.1 C 49.6 14 49.6 14 49.6 14 C 49.7 14 49.7 14 49.7 14.1 C 49.7 14.1 49.6 14.2 49.5 14.3 C 49.4 14.3 49.3 14.4 49.2 14.4 C 49.1 14.5 48.9 14.5 48.8 14.5 C 48.7 14.5 48.5 14.5 48.4 14.4 C 48.3 14.3 48.2 14.1 48.2 13.9 C 48.2 13.6 48.4 13.2 48.7 12.9 C 49 12.5 49.3 12.3 49.6 12.3 C 49.7 12.3 49.8 12.4 49.8 12.4 C 49.9 12.5 49.9 12.6 49.9 12.7 C 49.9 12.8 49.9 12.8 49.9 12.9 C 49.9 12.9 49.9 13 49.8 13 C 49.8 13 49.8 13 49.7 13 C 49.7 13 49.7 13 49.7 13 C 49.7 13 49.6 13 49.6 12.9 C 49.6 12.9 49.7 12.9 49.7 12.8 C 49.7 12.7 49.7 12.7 49.7 12.7 C 49.7 12.6 49.7 12.5 49.6 12.5 C 49.4 12.5 49.3 12.6 49.1 12.7 C 48.9 12.9 48.8 13.1 48.7 13.3 C 48.5 13.5 48.5 13.7 48.5 13.9 C 48.5 14 48.5 14.1 48.6 14.2 C 48.6 14.3 48.7 14.3 48.9 14.3 C 49 14.3 49.1 14.3 49.2 14.2 C 49.3 14.2 49.4 14.2 49.5 14.1 C 49.5 14.1 49.5 14.1 49.5 14.1 Z M 51.7 12.7 C 51.6 12.7 51.6 12.7 51.6 12.7 C 51.5 12.7 51.5 12.7 51.4 12.7 C 51.4 12.7 51.3 12.7 51.3 12.7 C 51.3 12.7 51.3 12.7 51.2 12.7 C 51.2 12.7 51.1 12.7 51 12.7 C 50.8 12.7 50.7 12.7 50.7 12.8 C 50.6 12.8 50.6 12.8 50.6 12.9 C 50.6 12.9 50.6 13 50.6 13.1 C 50.5 13.2 50.5 13.3 50.5 13.4 C 50.5 13.4 50.5 13.4 50.5 13.4 C 50.6 13.4 50.7 13.4 50.8 13.4 C 50.9 13.4 51 13.4 51.1 13.3 C 51.2 13.3 51.3 13.3 51.4 13.3 C 51.5 13.3 51.5 13.3 51.5 13.4 C 51.5 13.5 51.5 13.5 51.4 13.5 C 51.3 13.5 51.2 13.6 51 13.6 C 50.7 13.6 50.5 13.6 50.5 13.7 C 50.5 13.7 50.5 13.8 50.4 13.9 C 50.4 14.1 50.4 14.1 50.4 14.2 C 50.4 14.2 50.4 14.2 50.4 14.2 C 50.4 14.2 50.4 14.3 50.5 14.3 C 50.5 14.3 50.5 14.3 50.5 14.3 C 50.6 14.3 50.6 14.3 50.7 14.3 C 50.7 14.3 50.9 14.2 50.9 14.2 C 51 14.2 51.1 14.2 51.2 14.2 C 51.4 14.2 51.4 14.1 51.5 14.1 C 51.5 14.1 51.5 14.2 51.5 14.2 C 51.6 14.2 51.6 14.2 51.6 14.3 C 51.6 14.3 51.6 14.3 51.6 14.3 C 51.5 14.4 51.4 14.4 51.2 14.4 C 51.1 14.4 50.9 14.4 50.6 14.5 C 50.5 14.5 50.4 14.5 50.4 14.5 C 50.3 14.5 50.2 14.5 50.2 14.5 C 50.2 14.5 50.1 14.4 50.1 14.4 C 50.13 14.35 50.1 14.3 50.1 14.3 C 50.1 14.3 50.13 14.3 50.1 14.3 C 50.1 14.3 50.1 14.3 50.2 14.2 C 50.2 14.2 50.2 14 50.2 13.9 C 50.3 13.7 50.3 13.5 50.3 13.4 C 50.3 13.4 50.3 13.4 50.3 13.3 C 50.3 13.1 50.4 12.9 50.4 12.8 C 50.4 12.8 50.4 12.8 50.3 12.7 C 50.3 12.7 50.3 12.7 50.3 12.7 C 50.3 12.7 50.3 12.7 50.3 12.7 C 50.3 12.7 50.3 12.7 50.3 12.6 C 50.3 12.6 50.3 12.6 50.3 12.6 C 50.3 12.6 50.3 12.6 50.3 12.6 C 50.4 12.6 50.4 12.6 50.4 12.6 C 50.4 12.6 50.4 12.6 50.4 12.6 C 50.5 12.6 50.5 12.6 50.5 12.6 C 50.5 12.6 50.5 12.6 50.5 12.6 C 50.6 12.6 50.7 12.6 50.8 12.5 C 51 12.5 51.2 12.5 51.5 12.4 C 51.5 12.4 51.5 12.4 51.5 12.4 C 51.5 12.4 51.5 12.4 51.5 12.4 C 51.6 12.4 51.7 12.4 51.7 12.5 C 51.7 12.5 51.7 12.5 51.7 12.6 C 51.7 12.6 51.7 12.6 51.7 12.6 C 51.7 12.7 51.7 12.7 51.7 12.7 Z " stroke="none" fill="#000"/>  </g>  <g id="Polygon13838">    <path d="M 8.2 3.4 C 8.2 3.4 8.2 3.4 8.2 3.4 C 8.2 3.4 8.1 3.5 8 3.7 C 7.8 3.9 7.6 4.2 7.5 4.3 C 7.4 4.5 7.2 4.9 6.9 5.4 C 6.7 5.7 6.6 5.9 6.5 6 C 6.4 6.2 6.3 6.4 6.3 6.5 C 6.2 6.6 6.2 6.6 6.1 6.7 C 6 6.7 5.9 6.7 5.8 6.7 C 5.7 6.7 5.7 6.7 5.6 6.6 C 5.6 6.5 5.5 6.4 5.4 6.2 C 5.3 5.9 5.2 5.5 5 5.1 C 4.6 4.1 4.4 3.6 4.4 3.6 C 4.4 3.6 4.5 3.5 4.5 3.4 C 4.6 3.3 4.7 3.2 4.8 3.2 C 4.8 3.2 4.9 3.3 5 3.3 C 5 3.4 5.1 3.5 5.2 3.8 C 5.2 4 5.3 4.3 5.5 4.8 C 5.7 5.3 5.9 5.7 6 6 C 6 5.9 6 5.8 6.1 5.7 C 6.1 5.6 6.2 5.6 6.2 5.6 C 6.4 5.2 6.6 4.9 6.7 4.6 C 7 4.1 7.2 3.7 7.4 3.5 C 7.6 3.2 7.8 3.1 7.9 3.1 C 8.1 3.1 8.2 3.2 8.2 3.3 C 8.16 3.34 8.2 3.4 8.2 3.4 C 8.2 3.4 8.16 3.36 8.2 3.4 Z M 10.1 5.5 C 10 5.9 9.8 6.2 9.5 6.5 C 9.2 6.7 8.9 6.8 8.6 6.8 C 8.3 6.8 8.1 6.8 8 6.6 C 7.8 6.4 7.7 6.2 7.7 5.9 C 7.7 5.5 7.9 5.1 8.2 4.7 C 8.4 4.3 8.8 4.1 9.2 4.1 C 9.5 4.1 9.7 4.2 9.9 4.4 C 10 4.6 10.1 4.8 10.1 5.1 C 10.1 5.2 10.1 5.4 10.1 5.5 C 10.1 5.5 10.1 5.5 10.1 5.5 Z M 8.8 4.7 C 8.7 4.8 8.6 5 8.5 5.2 C 8.4 5.4 8.3 5.6 8.3 5.9 C 8.3 6 8.3 6.1 8.4 6.2 C 8.4 6.3 8.5 6.3 8.6 6.3 C 8.8 6.3 9 6.2 9.2 6 C 9.4 5.7 9.5 5.5 9.5 5.2 C 9.5 5 9.5 4.9 9.4 4.8 C 9.4 4.6 9.3 4.6 9.1 4.6 C 9 4.6 8.9 4.6 8.8 4.7 C 8.8 4.7 8.8 4.7 8.8 4.7 Z M 11.5 4.7 C 11.5 4.7 11.4 4.9 11.4 5.3 C 11.3 5.7 11.2 5.9 11.2 6 C 11.2 6.1 11.3 6.2 11.3 6.2 C 11.3 6.3 11.4 6.3 11.4 6.3 C 11.5 6.3 11.6 6.3 11.7 6.3 C 11.8 6.2 11.9 6.2 12 6 C 12.1 6 12.2 5.9 12.2 5.9 C 12.3 5.9 12.3 6 12.3 6 C 12.4 6 12.4 6 12.4 6.1 C 12.4 6.2 12.3 6.4 12 6.6 C 11.8 6.7 11.6 6.8 11.3 6.8 C 11.1 6.8 10.9 6.8 10.8 6.6 C 10.7 6.5 10.6 6.3 10.6 6.1 C 10.6 5.9 10.7 5.4 10.9 4.8 C 10.8 4.8 10.7 4.8 10.7 4.8 C 10.7 4.8 10.6 4.8 10.6 4.8 C 10.5 4.8 10.5 4.8 10.4 4.7 C 10.3 4.7 10.3 4.6 10.3 4.5 C 10.3 4.4 10.4 4.3 10.5 4.3 C 10.5 4.3 11 4.3 11 4.3 C 11.1 4.1 11.2 3.8 11.3 3.5 C 11.3 3.3 11.4 3.2 11.6 3.2 C 11.7 3.2 11.7 3.2 11.8 3.3 C 11.8 3.3 11.8 3.4 11.8 3.5 C 11.8 3.5 11.8 3.7 11.6 4.2 C 12.2 4.2 12.4 4.1 12.5 4.1 C 12.6 4.1 12.6 4.2 12.7 4.2 C 12.7 4.2 12.7 4.3 12.7 4.3 C 12.7 4.5 12.6 4.6 12.3 4.6 C 12.3 4.6 11.5 4.7 11.5 4.7 Z M 15 5.5 C 14.9 5.9 14.7 6.2 14.4 6.5 C 14.1 6.7 13.8 6.8 13.5 6.8 C 13.3 6.8 13.1 6.8 12.9 6.6 C 12.8 6.4 12.7 6.2 12.7 5.9 C 12.7 5.5 12.8 5.1 13.1 4.7 C 13.4 4.3 13.7 4.1 14.1 4.1 C 14.4 4.1 14.6 4.2 14.8 4.4 C 15 4.6 15.1 4.8 15.1 5.1 C 15.1 5.2 15.1 5.4 15 5.5 C 15 5.5 15 5.5 15 5.5 Z M 13.8 4.7 C 13.7 4.8 13.5 5 13.4 5.2 C 13.3 5.4 13.3 5.6 13.3 5.9 C 13.3 6 13.3 6.1 13.3 6.2 C 13.4 6.3 13.5 6.3 13.5 6.3 C 13.7 6.3 14 6.2 14.2 6 C 14.4 5.7 14.5 5.5 14.5 5.2 C 14.5 5 14.5 4.9 14.4 4.8 C 14.3 4.6 14.2 4.6 14.1 4.6 C 14 4.6 13.9 4.6 13.8 4.7 C 13.8 4.7 13.8 4.7 13.8 4.7 Z M 17.5 6.3 C 17.6 6.3 17.6 6.1 17.6 5.9 C 17.6 5.3 17.7 4.7 17.8 4.1 C 17.8 4 17.8 3.9 17.8 3.8 C 17.8 3.8 17.8 3.8 17.8 3.8 C 17.6 3.7 17.5 3.7 17.5 3.6 C 17.5 3.5 17.6 3.4 17.6 3.3 C 17.7 3.3 17.8 3.2 17.9 3.2 C 17.9 3.2 18.2 3.2 18.2 3.2 C 18.3 3.2 18.6 3.2 18.8 3.2 C 19 3.2 19.2 3.2 19.4 3.2 C 19.8 3.2 20.2 3.3 20.5 3.6 C 20.7 3.8 20.9 4.1 20.9 4.6 C 20.9 5 20.7 5.5 20.2 5.8 C 19.8 6.2 19.3 6.5 18.7 6.6 C 18.5 6.7 18.4 6.7 18.3 6.7 C 18.2 6.7 18.2 6.8 18.1 6.8 C 18 6.9 17.9 6.9 17.8 6.9 C 17.7 6.9 17.6 6.9 17.5 6.8 C 17.5 6.7 17.4 6.7 17.4 6.6 C 17.4 6.6 17.5 6.5 17.5 6.5 C 17.5 6.5 17.5 6.3 17.5 6.3 Z M 18.2 6 C 18.2 6.1 18.2 6.2 18.2 6.2 C 18.3 6.2 18.5 6.2 18.9 6 C 19.3 5.9 19.7 5.7 19.9 5.4 C 20.2 5.2 20.3 4.9 20.3 4.5 C 20.3 4.3 20.2 4.1 20 3.9 C 19.8 3.7 19.6 3.7 19.3 3.7 C 19.1 3.7 18.8 3.7 18.5 3.7 C 18.5 3.7 18.5 3.7 18.4 3.7 C 18.3 4.8 18.2 5.6 18.2 6 C 18.2 6 18.2 6 18.2 6 Z M 22.6 3.1 C 22.6 3.2 22.5 3.3 22.4 3.4 C 22.3 3.5 22.2 3.5 22.1 3.5 C 22 3.5 22 3.5 21.9 3.4 C 21.8 3.3 21.8 3.3 21.8 3.2 C 21.8 3.1 21.8 3 21.9 2.9 C 21.9 2.8 22.1 2.8 22.2 2.8 C 22.3 2.8 22.4 2.8 22.5 2.9 C 22.5 2.9 22.6 3 22.6 3.1 Z M 21.3 5.4 C 21.4 5.3 21.4 5.2 21.4 5.1 C 21.4 5.1 21.4 5.1 21.4 5.1 C 21.4 4.8 21.5 4.6 21.5 4.6 C 21.5 4.5 21.5 4.4 21.5 4.3 C 21.6 4.2 21.7 4.2 21.8 4.2 C 21.9 4.2 22 4.2 22 4.3 C 22.1 4.3 22.1 4.4 22.1 4.4 C 22.1 4.5 22.1 4.6 22 4.8 C 22 4.8 22 4.9 22 4.9 C 21.9 5.2 21.9 5.5 21.8 5.7 C 21.8 5.9 21.8 6 21.8 6.1 C 21.8 6.2 21.8 6.4 21.9 6.5 C 21.9 6.6 21.9 6.6 21.9 6.6 C 21.9 6.6 21.8 6.7 21.8 6.8 C 21.7 6.8 21.6 6.9 21.5 6.9 C 21.3 6.9 21.2 6.7 21.2 6.4 C 21.2 6.1 21.3 5.8 21.3 5.4 C 21.3 5.4 21.3 5.4 21.3 5.4 Z M 23.7 6.1 C 23.7 6 23.5 5.9 23.3 5.8 C 22.9 5.6 22.7 5.5 22.6 5.4 C 22.5 5.3 22.5 5.1 22.5 5 C 22.5 4.7 22.7 4.5 23 4.2 C 23.3 4 23.6 3.9 23.9 3.9 C 24.2 3.9 24.3 4 24.3 4.3 C 24.3 4.3 24.3 4.4 24.2 4.4 C 24.1 4.5 24.1 4.5 24 4.5 C 24 4.5 24 4.5 23.9 4.5 C 23.9 4.5 23.9 4.4 23.8 4.4 C 23.7 4.4 23.5 4.5 23.4 4.6 C 23.2 4.7 23.1 4.8 23.1 4.9 C 23.1 5 23.1 5.1 23.2 5.1 C 23.3 5.2 23.4 5.3 23.6 5.3 C 23.9 5.5 24 5.6 24.1 5.7 C 24.2 5.8 24.3 5.9 24.3 6.1 C 24.3 6.3 24.1 6.5 23.8 6.7 C 23.5 6.8 23.1 6.9 22.7 6.9 C 22.4 6.9 22.3 6.8 22.3 6.6 C 22.3 6.5 22.3 6.4 22.4 6.4 C 22.4 6.3 22.5 6.3 22.6 6.3 C 22.6 6.3 22.6 6.3 22.7 6.3 C 22.8 6.4 22.8 6.4 22.9 6.4 C 23 6.4 23.2 6.3 23.4 6.3 C 23.5 6.2 23.6 6.2 23.7 6.1 Z M 25.6 4.7 C 25.5 4.7 25.5 4.9 25.4 5.3 C 25.3 5.7 25.3 5.9 25.3 6 C 25.3 6.1 25.3 6.2 25.3 6.2 C 25.4 6.3 25.4 6.3 25.5 6.3 C 25.6 6.3 25.7 6.3 25.7 6.3 C 25.8 6.2 25.9 6.2 26.1 6 C 26.2 6 26.2 5.9 26.3 5.9 C 26.3 5.9 26.4 6 26.4 6 C 26.4 6 26.4 6 26.4 6.1 C 26.4 6.2 26.3 6.4 26.1 6.6 C 25.9 6.7 25.6 6.8 25.4 6.8 C 25.2 6.8 25 6.8 24.9 6.6 C 24.8 6.5 24.7 6.3 24.7 6.1 C 24.7 5.9 24.8 5.4 25 4.8 C 24.8 4.8 24.8 4.8 24.7 4.8 C 24.7 4.8 24.7 4.8 24.7 4.8 C 24.6 4.8 24.5 4.8 24.5 4.7 C 24.4 4.7 24.3 4.6 24.3 4.5 C 24.3 4.4 24.4 4.3 24.6 4.3 C 24.6 4.3 25.1 4.3 25.1 4.3 C 25.2 4.1 25.2 3.8 25.3 3.5 C 25.4 3.3 25.5 3.2 25.6 3.2 C 25.7 3.2 25.8 3.2 25.8 3.3 C 25.9 3.3 25.9 3.4 25.9 3.5 C 25.9 3.5 25.8 3.7 25.7 4.2 C 26.2 4.2 26.5 4.1 26.6 4.1 C 26.6 4.1 26.7 4.2 26.7 4.2 C 26.8 4.2 26.8 4.3 26.8 4.3 C 26.8 4.5 26.6 4.6 26.4 4.6 C 26.4 4.6 25.6 4.7 25.6 4.7 Z M 27.4 5.5 C 27.4 5.5 27.44 5.44 27.4 5.4 C 27.6 5 27.9 4.7 28.1 4.5 C 28.3 4.2 28.5 4.1 28.7 4.1 C 28.9 4.1 29 4.2 29.2 4.2 C 29.3 4.3 29.3 4.4 29.3 4.6 C 29.3 4.6 29.3 4.7 29.3 4.8 C 29.2 4.8 29.2 4.9 29.1 4.9 C 29 4.9 28.9 4.8 28.8 4.7 C 28.8 4.7 28.7 4.6 28.7 4.6 C 28.6 4.6 28.4 4.8 28.1 5.2 C 27.8 5.6 27.6 6 27.6 6.5 C 27.5 6.6 27.5 6.7 27.4 6.8 C 27.4 6.8 27.3 6.9 27.2 6.9 C 27.1 6.9 27 6.8 27 6.7 C 26.9 6.5 26.9 6.3 26.9 6 C 26.9 5.9 26.9 5.8 26.9 5.6 C 26.9 5.4 26.9 5.1 26.9 4.9 C 27 4.8 27 4.7 27 4.7 C 27 4.5 27 4.4 27 4.4 C 27 4.3 27.1 4.3 27.1 4.2 C 27.2 4.2 27.3 4.1 27.4 4.1 C 27.5 4.1 27.5 4.2 27.6 4.2 C 27.6 4.3 27.6 4.3 27.6 4.4 C 27.6 4.4 27.6 4.6 27.5 4.8 C 27.5 4.9 27.5 5 27.5 5.1 C 27.46 5.14 27.4 5.5 27.4 5.5 Z M 30.6 3.1 C 30.6 3.2 30.6 3.3 30.5 3.4 C 30.4 3.5 30.3 3.5 30.2 3.5 C 30.1 3.5 30 3.5 29.9 3.4 C 29.9 3.3 29.8 3.3 29.8 3.2 C 29.8 3.1 29.9 3 29.9 2.9 C 30 2.8 30.1 2.8 30.3 2.8 C 30.4 2.8 30.5 2.8 30.5 2.9 C 30.6 2.9 30.6 3 30.6 3.1 Z M 29.4 5.4 C 29.4 5.3 29.4 5.2 29.5 5.1 C 29.5 5.1 29.5 5.1 29.5 5.1 C 29.5 4.8 29.5 4.6 29.5 4.6 C 29.5 4.5 29.6 4.4 29.6 4.3 C 29.7 4.2 29.7 4.2 29.8 4.2 C 29.9 4.2 30 4.2 30.1 4.3 C 30.1 4.3 30.2 4.4 30.2 4.4 C 30.2 4.5 30.2 4.6 30.1 4.8 C 30.1 4.8 30.1 4.9 30.1 4.9 C 30 5.2 29.9 5.5 29.9 5.7 C 29.9 5.9 29.9 6 29.9 6.1 C 29.9 6.2 29.9 6.4 29.9 6.5 C 29.9 6.6 29.9 6.6 29.9 6.6 C 29.9 6.6 29.9 6.7 29.8 6.8 C 29.8 6.8 29.7 6.9 29.6 6.9 C 29.4 6.9 29.3 6.7 29.3 6.4 C 29.3 6.1 29.3 5.8 29.4 5.4 C 29.4 5.4 29.4 5.4 29.4 5.4 Z M 31.6 4.7 C 31.6 4.7 31.5 4.9 31.5 5.3 C 31.4 5.7 31.4 5.9 31.4 6 C 31.4 6.1 31.4 6.2 31.4 6.2 C 31.4 6.3 31.5 6.3 31.5 6.3 C 31.6 6.3 31.7 6.3 31.8 6.3 C 31.9 6.2 32 6.2 32.1 6 C 32.2 6 32.3 5.9 32.3 5.9 C 32.4 5.9 32.4 6 32.5 6 C 32.5 6 32.5 6 32.5 6.1 C 32.5 6.2 32.4 6.4 32.2 6.6 C 31.9 6.7 31.7 6.8 31.4 6.8 C 31.2 6.8 31 6.8 30.9 6.6 C 30.8 6.5 30.8 6.3 30.8 6.1 C 30.8 5.9 30.8 5.4 31 4.8 C 30.9 4.8 30.8 4.8 30.8 4.8 C 30.8 4.8 30.7 4.8 30.7 4.8 C 30.7 4.8 30.6 4.8 30.5 4.7 C 30.4 4.7 30.4 4.6 30.4 4.5 C 30.4 4.4 30.5 4.3 30.6 4.3 C 30.6 4.3 31.1 4.3 31.1 4.3 C 31.2 4.1 31.3 3.8 31.4 3.5 C 31.4 3.3 31.5 3.2 31.7 3.2 C 31.8 3.2 31.8 3.2 31.9 3.3 C 31.9 3.3 32 3.4 32 3.5 C 32 3.5 31.9 3.7 31.8 4.2 C 32.3 4.2 32.6 4.1 32.6 4.1 C 32.7 4.1 32.8 4.2 32.8 4.2 C 32.8 4.2 32.8 4.3 32.8 4.3 C 32.8 4.5 32.7 4.6 32.5 4.6 C 32.5 4.6 31.6 4.7 31.6 4.7 Z M 34.9 6.8 C 34.6 6.8 34.5 6.5 34.5 5.9 C 34.1 6.5 33.7 6.8 33.3 6.8 C 33.1 6.8 33 6.7 32.9 6.6 C 32.8 6.5 32.7 6.3 32.7 6.1 C 32.7 5.7 32.9 5.3 33.3 4.8 C 33.7 4.3 34.1 4 34.5 4 C 34.7 4 34.8 4.1 34.9 4.3 C 35.1 4.3 35.2 4.4 35.2 4.5 C 35.2 4.6 35.1 4.7 35.1 4.9 C 35 5.3 35 5.5 35 5.7 C 35 5.9 35 6.1 35 6.2 C 35.1 6.2 35.1 6.3 35.1 6.3 C 35.1 6.4 35.2 6.4 35.2 6.4 C 35.3 6.4 35.3 6.5 35.3 6.5 C 35.3 6.6 35.3 6.7 35.2 6.7 C 35.1 6.8 35 6.8 34.9 6.8 C 34.9 6.8 34.9 6.8 34.9 6.8 Z M 34.4 4.6 C 34.2 4.6 34 4.7 33.7 5.1 C 33.5 5.5 33.3 5.8 33.3 6 C 33.3 6.2 33.4 6.2 33.4 6.2 C 33.6 6.2 33.8 6.1 34.1 5.7 C 34.4 5.4 34.6 5.1 34.6 4.8 C 34.6 4.7 34.5 4.7 34.5 4.6 C 34.5 4.6 34.4 4.6 34.4 4.6 Z M 38.1 6.6 C 38.1 6.6 38 6.6 37.9 6.6 C 37.8 6.6 37.7 6.6 37.7 6.6 C 37.2 6.6 36.8 6.7 36.4 6.8 C 36.2 6.8 36.1 6.9 36 6.9 C 35.9 6.9 35.8 6.8 35.8 6.7 C 35.7 6.7 35.7 6.6 35.7 6.5 C 35.7 6.5 35.7 6.4 35.7 6.3 C 35.8 6.2 35.8 6 35.8 5.8 C 35.8 5.8 36.1 3.8 36.1 3.8 C 36.1 3.6 36.1 3.4 36.1 3.4 C 36.1 3.3 36.2 3.3 36.2 3.2 C 36.3 3.2 36.3 3.2 36.4 3.2 C 36.5 3.2 36.6 3.2 36.7 3.3 C 36.7 3.3 36.7 3.4 36.7 3.4 C 36.7 3.5 36.7 3.6 36.7 3.8 C 36.7 4 36.6 4.4 36.5 5.1 C 36.4 5.7 36.4 6.1 36.4 6.1 C 36.4 6.2 36.4 6.2 36.4 6.2 C 36.5 6.2 36.7 6.2 36.9 6.1 C 37.1 6.1 37.2 6.1 37.3 6.1 C 37.7 6.1 38 6 38.1 6 C 38.2 6 38.2 6 38.2 6 C 38.3 6 38.4 6 38.4 6.1 C 38.5 6.1 38.5 6.2 38.5 6.3 C 38.5 6.4 38.5 6.4 38.4 6.5 C 38.3 6.6 38.2 6.6 38.1 6.6 Z M 41.8 5.5 C 41.6 5.6 41.5 5.6 41.5 5.6 C 41.4 6 41.4 6.3 41.4 6.5 C 41.4 6.6 41.4 6.7 41.3 6.8 C 41.3 6.8 41.2 6.9 41.1 6.9 C 40.9 6.9 40.8 6.8 40.8 6.5 C 40.8 6.4 40.8 6 40.9 5.2 C 41 4.6 41 4.3 41 4.2 C 41 4 41 3.9 41 3.9 C 40.9 3.9 40.9 3.8 40.9 3.6 C 40.9 3.5 41.1 3.4 41.5 3.3 C 42 3.2 42.3 3.1 42.7 3.1 C 43 3.1 43.3 3.2 43.5 3.4 C 43.8 3.5 43.9 3.7 43.9 4 C 43.9 4.3 43.7 4.7 43.3 4.9 C 42.9 5.2 42.4 5.4 41.8 5.5 C 41.8 5.5 41.8 5.5 41.8 5.5 Z M 42.6 3.6 C 42.3 3.6 42 3.7 41.7 3.8 C 41.7 3.8 41.5 5.1 41.5 5.1 C 42 5 42.4 4.9 42.8 4.7 C 43.1 4.5 43.3 4.2 43.3 4 C 43.3 3.7 43.1 3.6 42.6 3.6 C 42.6 3.6 42.6 3.6 42.6 3.6 Z M 45.6 5.8 C 45.4 6.1 45.3 6.3 45.1 6.5 C 44.9 6.7 44.6 6.8 44.4 6.8 C 44.3 6.8 44.2 6.7 44.1 6.6 C 43.9 6.4 43.9 6.2 43.9 6 C 43.9 5.8 43.9 5.5 44 5.1 C 44.1 4.8 44.1 4.5 44.1 4.3 C 44.2 4.2 44.3 4.1 44.4 4.1 C 44.5 4.1 44.6 4.2 44.7 4.2 C 44.7 4.3 44.8 4.4 44.8 4.4 C 44.8 4.5 44.7 4.7 44.6 4.9 C 44.6 5 44.5 5.2 44.5 5.5 C 44.4 5.7 44.4 5.8 44.4 5.9 C 44.4 6.1 44.4 6.2 44.5 6.2 C 44.7 6.2 44.9 6.1 45.1 5.8 C 45.3 5.5 45.5 5.3 45.6 5 C 45.6 4.7 45.7 4.5 45.8 4.4 C 45.8 4.4 45.9 4.3 46 4.3 C 46.2 4.3 46.3 4.4 46.3 4.6 C 46.3 4.6 46.3 4.7 46.2 4.8 C 46.1 5 46.1 5.4 46.1 5.7 C 46.1 6.2 46.2 6.4 46.3 6.5 C 46.3 6.5 46.4 6.6 46.4 6.6 C 46.4 6.7 46.3 6.7 46.2 6.8 C 46.2 6.8 46.1 6.8 46 6.8 C 45.9 6.8 45.8 6.7 45.7 6.6 C 45.6 6.4 45.6 6.1 45.6 5.8 Z M 47.4 5.5 C 47.4 5.5 47.48 5.44 47.5 5.4 C 47.7 5 47.9 4.7 48.1 4.5 C 48.3 4.2 48.6 4.1 48.8 4.1 C 48.9 4.1 49.1 4.2 49.2 4.2 C 49.3 4.3 49.3 4.4 49.3 4.6 C 49.3 4.6 49.3 4.7 49.3 4.8 C 49.3 4.8 49.2 4.9 49.1 4.9 C 49 4.9 48.9 4.8 48.9 4.7 C 48.8 4.7 48.8 4.6 48.7 4.6 C 48.6 4.6 48.4 4.8 48.1 5.2 C 47.8 5.6 47.7 6 47.6 6.5 C 47.6 6.6 47.5 6.7 47.5 6.8 C 47.4 6.8 47.3 6.9 47.2 6.9 C 47.1 6.9 47 6.8 47 6.7 C 46.9 6.5 46.9 6.3 46.9 6 C 46.9 5.9 46.9 5.8 46.9 5.6 C 46.9 5.4 46.9 5.1 47 4.9 C 47 4.8 47 4.7 47 4.7 C 47 4.5 47 4.4 47 4.4 C 47.1 4.3 47.1 4.3 47.2 4.2 C 47.2 4.2 47.3 4.1 47.4 4.1 C 47.5 4.1 47.6 4.2 47.6 4.2 C 47.6 4.3 47.7 4.3 47.7 4.4 C 47.7 4.4 47.6 4.6 47.6 4.8 C 47.5 4.9 47.5 5 47.5 5.1 C 47.5 5.14 47.4 5.5 47.4 5.5 Z M 51.6 5.5 C 51.5 5.9 51.3 6.2 50.9 6.5 C 50.6 6.7 50.3 6.8 50 6.8 C 49.8 6.8 49.6 6.8 49.4 6.6 C 49.3 6.4 49.2 6.2 49.2 5.9 C 49.2 5.5 49.3 5.1 49.6 4.7 C 49.9 4.3 50.3 4.1 50.7 4.1 C 51 4.1 51.2 4.2 51.4 4.4 C 51.5 4.6 51.6 4.8 51.6 5.1 C 51.6 5.2 51.6 5.4 51.6 5.5 C 51.6 5.5 51.6 5.5 51.6 5.5 Z M 50.3 4.7 C 50.2 4.8 50.1 5 50 5.2 C 49.9 5.4 49.8 5.6 49.8 5.9 C 49.8 6 49.8 6.1 49.9 6.2 C 49.9 6.3 50 6.3 50.1 6.3 C 50.3 6.3 50.5 6.2 50.7 6 C 50.9 5.7 51 5.5 51 5.2 C 51 5 51 4.9 50.9 4.8 C 50.9 4.6 50.8 4.6 50.6 4.6 C 50.5 4.6 50.4 4.6 50.3 4.7 C 50.3 4.7 50.3 4.7 50.3 4.7 Z " stroke="none" fill="#000"/>  </g></svg>