<?xml version="1.0" standalone="no"?><!DOCTYPE svg PUBLIC "-//W3C//DTD SVG 1.1//EN" "http://www.w3.org/Graphics/SVG/1.1/DTD/svg11.dtd"><svg xmlns="http://www.w3.org/2000/svg" version="1.1" width="65px" height="24.9px" viewBox="0 -1 65 24.9" style="top:-1px">  <desc>SIM, PORQUE FAVORECE PRIVIL GIOS PARA POUCOS, ENQUANTO O VOTO DISTRITAL FAVORECE A IGUALDADE DE INTERESSES, COMO N S</desc>  <defs/>  <g id="Polygon15277">    <path d="M 13.6 18.4 C 13.6 18.5 13.6 18.6 13.6 18.6 C 13.6 18.7 13.6 18.7 13.6 18.9 C 13.5 19.1 13.5 19.2 13.5 19.3 C 13.5 19.4 13.5 19.5 13.5 19.7 C 13.6 19.8 13.5 19.8 13.5 19.9 C 13.4 19.9 13.4 19.9 13.3 19.9 C 13.3 19.9 13.2 19.9 13.2 19.8 C 13.2 19.8 13.1 19.7 13.1 19.5 C 13.1 19.4 13.2 19.2 13.2 18.9 C 13.2 18.9 13.3 18.3 13.3 18.3 C 13.3 18.2 13.3 18.1 13.3 18.1 C 13.3 17.9 13.4 17.9 13.4 17.9 C 13.4 17.8 13.4 17.8 13.5 17.8 C 13.5 17.8 13.5 17.7 13.6 17.7 C 13.6 17.7 13.7 17.8 13.7 17.8 C 13.7 17.9 13.7 17.9 13.7 18 C 13.7 18 13.6 18.4 13.6 18.4 Z M 14.1 19.4 C 14.1 19.4 14.16 18.9 14.2 18.9 C 14.2 18.5 14.3 18.2 14.3 18.1 C 14.3 18 14.3 18 14.3 17.9 C 14.3 17.9 14.3 17.9 14.4 17.9 C 14.4 17.8 14.5 17.8 14.5 17.8 C 14.5 17.8 14.6 17.8 14.6 17.8 C 14.6 17.9 14.7 17.9 14.7 18 C 14.7 18.2 14.9 18.4 15 18.7 C 15.2 19 15.3 19.2 15.5 19.4 C 15.5 19.2 15.6 19 15.6 18.7 C 15.6 18.5 15.7 18.4 15.7 18.2 C 15.7 18.1 15.7 18 15.7 17.9 C 15.7 17.8 15.8 17.8 15.8 17.7 C 15.9 17.7 15.9 17.7 16 17.7 C 16 17.7 16 17.7 16.1 17.8 C 16.1 17.8 16.1 17.9 16.1 17.9 C 16.1 18 16.1 18.1 16.1 18.2 C 16 18.4 15.9 18.7 15.9 19 C 15.8 19.4 15.8 19.6 15.8 19.6 C 15.8 19.6 15.8 19.7 15.8 19.7 C 15.8 19.7 15.8 19.8 15.8 19.8 C 15.8 19.8 15.7 19.9 15.7 19.9 C 15.7 19.9 15.6 19.9 15.6 19.9 C 15.5 19.9 15.5 19.9 15.5 19.9 C 15.5 19.9 15.4 19.9 15.4 19.8 C 15.4 19.8 15.4 19.8 15.3 19.7 C 15.3 19.6 15.2 19.6 15.2 19.5 C 15 19.3 14.8 18.9 14.5 18.5 C 14.5 18.6 14.5 18.9 14.4 19.4 C 14.4 19.4 14.4 19.5 14.4 19.5 C 14.4 19.5 14.4 19.6 14.4 19.7 C 14.4 19.8 14.3 19.9 14.3 19.9 C 14.3 20 14.2 20 14.2 20 C 14.1 20 14.1 20 14 19.9 C 14 19.9 14 19.8 14 19.7 C 14 19.7 14 19.5 14.1 19.4 C 14.06 19.4 14.1 19.4 14.1 19.4 Z M 18 18.1 C 17.7 18.1 17.6 18.1 17.5 18.1 C 17.5 18.1 17.5 18.2 17.5 18.2 C 17.4 18.2 17.4 18.4 17.4 18.7 C 17.4 19 17.3 19.2 17.3 19.4 C 17.3 19.5 17.4 19.6 17.4 19.7 C 17.4 19.7 17.4 19.7 17.4 19.7 C 17.4 19.8 17.4 19.8 17.3 19.9 C 17.3 19.9 17.3 19.9 17.2 19.9 C 17.2 19.9 17.1 19.9 17.1 19.9 C 17 19.8 17 19.8 17 19.7 C 17 19.6 17 19.5 17 19.4 C 17 19.3 17 19 17 18.7 C 17.1 18.3 17.1 18.2 17.1 18.2 C 17.1 18.2 17 18.2 16.8 18.2 C 16.6 18.2 16.5 18.2 16.5 18.2 C 16.4 18.2 16.3 18.2 16.2 18.2 C 16.2 18.1 16.2 18.1 16.2 18.1 C 16.2 18 16.2 18 16.2 17.9 C 16.3 17.9 16.4 17.9 16.6 17.9 C 16.8 17.9 17.1 17.9 17.4 17.8 C 17.7 17.8 17.9 17.8 18.1 17.8 C 18.3 17.8 18.4 17.8 18.4 17.8 C 18.4 17.9 18.5 17.9 18.5 18 C 18.5 18.1 18.4 18.1 18.3 18.1 C 18.3 18.1 18.3 18.1 18.2 18.1 C 18.1 18.1 18.1 18.1 18 18.1 C 18 18.1 18 18.1 18 18.1 Z M 20 18.1 C 20 18.1 19.5 18.1 19.5 18.1 C 19.4 18.1 19.2 18.1 19.1 18.1 C 19 18.1 18.9 18.2 18.9 18.2 C 18.9 18.2 18.9 18.2 18.9 18.3 C 18.9 18.3 18.9 18.4 18.9 18.5 C 18.8 18.6 18.8 18.7 18.8 18.7 C 18.9 18.7 19 18.7 19.1 18.7 C 19.2 18.7 19.3 18.7 19.3 18.7 C 19.5 18.7 19.6 18.6 19.7 18.6 C 19.8 18.6 19.9 18.7 19.9 18.8 C 19.9 18.8 19.9 18.9 19.8 18.9 C 19.8 18.9 19.7 19 19.6 19 C 19.6 19 19.5 19 19.4 19 C 19.4 19 19.4 19 19.3 19 C 19 19 18.9 19.1 18.8 19.1 C 18.8 19.1 18.8 19.1 18.8 19.1 C 18.8 19.1 18.8 19.1 18.8 19.1 C 18.8 19.1 18.8 19.2 18.7 19.3 C 18.7 19.5 18.7 19.6 18.7 19.6 C 18.7 19.6 18.7 19.7 18.8 19.7 C 18.8 19.7 18.9 19.6 19.1 19.6 C 19.3 19.6 19.5 19.6 19.5 19.6 C 19.7 19.5 19.7 19.5 19.8 19.5 C 19.9 19.5 20 19.6 20 19.7 C 20 19.7 20 19.8 19.9 19.8 C 19.8 19.8 19.7 19.9 19.5 19.9 C 19.4 19.9 19.2 19.9 19 19.9 C 18.9 20 18.7 20 18.5 20 C 18.5 20 18.4 20 18.4 19.9 C 18.3 19.9 18.3 19.8 18.3 19.8 C 18.3 19.8 18.3 19.7 18.3 19.7 C 18.3 19.7 18.3 19.7 18.3 19.6 C 18.4 19.5 18.4 19.3 18.5 18.8 C 18.5 18.4 18.6 18.2 18.6 18.1 C 18.6 18.1 18.6 18.1 18.6 18.1 C 18.5 18.1 18.5 18.1 18.5 18.1 C 18.5 18 18.5 18 18.5 18 C 18.5 18 18.5 18 18.5 17.9 C 18.5 17.9 18.5 17.9 18.6 17.9 C 18.6 17.9 18.6 17.8 18.7 17.8 C 18.7 17.8 18.8 17.9 18.8 17.9 C 18.9 17.9 19.2 17.8 19.6 17.8 C 19.8 17.7 19.8 17.7 19.8 17.7 C 19.8 17.7 19.9 17.7 19.9 17.7 C 20 17.7 20.1 17.8 20.1 17.9 C 20.1 17.9 20.1 18 20.1 18 C 20 18 20 18.1 20 18.1 Z M 20.5 18.1 C 20.5 18.1 20.48 18.08 20.5 18.1 C 20.5 18 20.4 18 20.4 18 C 20.4 17.9 20.5 17.9 20.5 17.8 C 20.6 17.8 20.6 17.8 20.6 17.8 C 20.7 17.8 20.7 17.8 20.7 17.8 C 20.7 17.8 20.7 17.8 20.8 17.8 C 21 17.8 21.2 17.7 21.4 17.7 C 21.6 17.7 21.8 17.8 21.9 17.9 C 22 18 22.1 18.1 22.1 18.3 C 22.1 18.4 22 18.6 21.9 18.7 C 21.8 18.8 21.6 18.9 21.4 19 C 21.7 19.3 22 19.5 22.2 19.6 C 22.2 19.6 22.3 19.7 22.3 19.7 C 22.3 19.8 22.2 19.8 22.2 19.8 C 22.2 19.9 22.1 19.9 22.1 19.9 C 22 19.9 22 19.9 21.9 19.8 C 21.8 19.8 21.7 19.7 21.6 19.6 C 21.4 19.5 21.4 19.4 21.3 19.4 C 21.2 19.3 21 19.2 20.9 19.1 C 20.8 19.1 20.8 19.1 20.8 19 C 20.8 18.9 20.8 18.9 20.9 18.8 C 20.9 18.8 21 18.8 21 18.8 C 21 18.8 21 18.8 21.1 18.8 C 21.1 18.8 21.1 18.8 21.1 18.8 C 21.2 18.8 21.3 18.7 21.5 18.6 C 21.6 18.5 21.7 18.4 21.7 18.3 C 21.7 18.2 21.7 18.1 21.6 18.1 C 21.5 18 21.4 18 21.3 18 C 21.2 18 21.1 18 21 18 C 20.9 18.1 20.9 18.1 20.9 18.1 C 20.9 18.1 20.9 18.1 20.9 18.1 C 20.9 18.2 20.8 18.3 20.8 18.4 C 20.8 18.6 20.7 18.8 20.7 19 C 20.7 19.2 20.7 19.4 20.7 19.5 C 20.7 19.5 20.7 19.6 20.7 19.6 C 20.7 19.7 20.7 19.7 20.7 19.8 C 20.7 19.8 20.7 19.8 20.6 19.9 C 20.6 19.9 20.5 19.9 20.5 19.9 C 20.4 19.9 20.3 19.9 20.3 19.7 C 20.3 19.5 20.3 19.3 20.3 19 C 20.4 18.8 20.4 18.5 20.5 18.3 C 20.5 18.3 20.5 18.2 20.5 18.2 C 20.48 18.21 20.5 18.1 20.5 18.1 Z M 24.1 18.1 C 24.1 18.1 23.6 18.1 23.6 18.1 C 23.5 18.1 23.3 18.1 23.2 18.1 C 23.1 18.1 23.1 18.2 23 18.2 C 23 18.2 23 18.2 23 18.3 C 23 18.3 23 18.4 23 18.5 C 23 18.6 22.9 18.7 22.9 18.7 C 23 18.7 23.1 18.7 23.2 18.7 C 23.3 18.7 23.4 18.7 23.4 18.7 C 23.6 18.7 23.7 18.6 23.8 18.6 C 23.9 18.6 24 18.7 24 18.8 C 24 18.8 24 18.9 23.9 18.9 C 23.9 18.9 23.8 19 23.7 19 C 23.7 19 23.6 19 23.6 19 C 23.5 19 23.5 19 23.4 19 C 23.1 19 23 19.1 22.9 19.1 C 22.9 19.1 22.9 19.1 22.9 19.1 C 22.9 19.1 22.9 19.1 22.9 19.1 C 22.9 19.1 22.9 19.2 22.8 19.3 C 22.8 19.5 22.8 19.6 22.8 19.6 C 22.8 19.6 22.8 19.7 22.9 19.7 C 22.9 19.7 23.1 19.6 23.3 19.6 C 23.5 19.6 23.6 19.6 23.6 19.6 C 23.8 19.5 23.8 19.5 23.9 19.5 C 24 19.5 24.1 19.6 24.1 19.7 C 24.1 19.7 24.1 19.8 24 19.8 C 23.9 19.8 23.8 19.9 23.6 19.9 C 23.5 19.9 23.3 19.9 23.1 19.9 C 23 20 22.8 20 22.7 20 C 22.6 20 22.5 20 22.5 19.9 C 22.5 19.9 22.4 19.8 22.4 19.8 C 22.4 19.8 22.4 19.7 22.4 19.7 C 22.4 19.7 22.4 19.7 22.4 19.6 C 22.5 19.5 22.5 19.3 22.6 18.8 C 22.6 18.4 22.7 18.2 22.7 18.1 C 22.7 18.1 22.7 18.1 22.7 18.1 C 22.7 18.1 22.6 18.1 22.6 18.1 C 22.6 18 22.6 18 22.6 18 C 22.6 18 22.6 18 22.6 17.9 C 22.6 17.9 22.6 17.9 22.7 17.9 C 22.7 17.9 22.7 17.8 22.8 17.8 C 22.8 17.8 22.9 17.9 22.9 17.9 C 23 17.9 23.3 17.8 23.7 17.8 C 23.9 17.7 23.9 17.7 23.9 17.7 C 23.9 17.7 24 17.7 24 17.7 C 24.1 17.7 24.2 17.8 24.2 17.9 C 24.2 17.9 24.2 18 24.2 18 C 24.1 18 24.1 18.1 24.1 18.1 Z M 26 18 C 26 18.2 25.9 18.3 25.8 18.3 C 25.8 18.2 25.7 18.1 25.7 18.1 C 25.6 18.1 25.6 18 25.5 18 C 25.3 18 25.1 18.1 25 18.2 C 24.9 18.2 24.8 18.3 24.8 18.4 C 24.8 18.5 24.8 18.5 24.9 18.6 C 24.9 18.6 25.1 18.7 25.3 18.7 C 25.5 18.8 25.7 18.9 25.8 19 C 25.9 19.1 26 19.1 26 19.3 C 26 19.4 25.8 19.6 25.5 19.8 C 25.2 19.9 24.9 20 24.6 20 C 24.5 20 24.5 20 24.4 20 C 24.3 19.9 24.3 19.9 24.3 19.8 C 24.3 19.7 24.3 19.7 24.3 19.7 C 24.4 19.6 24.4 19.6 24.4 19.6 C 24.5 19.6 24.5 19.6 24.5 19.6 C 24.6 19.7 24.7 19.7 24.8 19.7 C 25 19.7 25.1 19.6 25.3 19.5 C 25.5 19.5 25.6 19.4 25.6 19.3 C 25.6 19.3 25.6 19.2 25.5 19.2 C 25.5 19.2 25.4 19.1 25.2 19.1 C 25 19 24.9 18.9 24.8 18.9 C 24.7 18.9 24.6 18.8 24.5 18.7 C 24.5 18.7 24.4 18.6 24.4 18.5 C 24.4 18.3 24.5 18.1 24.8 18 C 25 17.8 25.2 17.7 25.5 17.7 C 25.7 17.7 25.8 17.8 25.9 17.8 C 26 17.9 26 18 26 18 C 26 18 26 18 26 18 Z M 27.9 18 C 27.9 18.2 27.8 18.3 27.6 18.3 C 27.6 18.2 27.6 18.1 27.5 18.1 C 27.5 18.1 27.4 18 27.3 18 C 27.1 18 27 18.1 26.8 18.2 C 26.7 18.2 26.6 18.3 26.6 18.4 C 26.6 18.5 26.7 18.5 26.7 18.6 C 26.8 18.6 26.9 18.7 27.1 18.7 C 27.4 18.8 27.5 18.9 27.6 19 C 27.8 19.1 27.8 19.1 27.8 19.3 C 27.8 19.4 27.7 19.6 27.4 19.8 C 27.1 19.9 26.8 20 26.5 20 C 26.4 20 26.3 20 26.2 20 C 26.2 19.9 26.2 19.9 26.2 19.8 C 26.2 19.7 26.2 19.7 26.2 19.7 C 26.2 19.6 26.3 19.6 26.3 19.6 C 26.3 19.6 26.3 19.6 26.4 19.6 C 26.5 19.7 26.6 19.7 26.6 19.7 C 26.8 19.7 27 19.6 27.2 19.5 C 27.4 19.5 27.4 19.4 27.4 19.3 C 27.4 19.3 27.4 19.2 27.4 19.2 C 27.3 19.2 27.2 19.1 27.1 19.1 C 26.9 19 26.7 18.9 26.6 18.9 C 26.5 18.9 26.4 18.8 26.4 18.7 C 26.3 18.7 26.3 18.6 26.3 18.5 C 26.3 18.3 26.4 18.1 26.6 18 C 26.8 17.8 27.1 17.7 27.4 17.7 C 27.5 17.7 27.6 17.8 27.7 17.8 C 27.8 17.9 27.9 18 27.9 18 C 27.9 18 27.9 18 27.9 18 Z M 29.8 18.1 C 29.8 18.1 29.3 18.1 29.3 18.1 C 29.2 18.1 29 18.1 28.9 18.1 C 28.8 18.1 28.7 18.2 28.7 18.2 C 28.7 18.2 28.7 18.2 28.7 18.3 C 28.7 18.3 28.7 18.4 28.7 18.5 C 28.6 18.6 28.6 18.7 28.6 18.7 C 28.7 18.7 28.8 18.7 28.9 18.7 C 29 18.7 29.1 18.7 29.1 18.7 C 29.3 18.7 29.4 18.6 29.5 18.6 C 29.6 18.6 29.7 18.7 29.7 18.8 C 29.7 18.8 29.7 18.9 29.6 18.9 C 29.6 18.9 29.5 19 29.4 19 C 29.4 19 29.3 19 29.2 19 C 29.2 19 29.2 19 29.1 19 C 28.8 19 28.7 19.1 28.6 19.1 C 28.6 19.1 28.6 19.1 28.6 19.1 C 28.6 19.1 28.6 19.1 28.6 19.1 C 28.6 19.1 28.6 19.2 28.5 19.3 C 28.5 19.5 28.5 19.6 28.5 19.6 C 28.5 19.6 28.5 19.7 28.6 19.7 C 28.6 19.7 28.7 19.6 28.9 19.6 C 29.1 19.6 29.3 19.6 29.3 19.6 C 29.4 19.5 29.5 19.5 29.6 19.5 C 29.7 19.5 29.8 19.6 29.8 19.7 C 29.8 19.7 29.7 19.8 29.7 19.8 C 29.6 19.8 29.5 19.9 29.3 19.9 C 29.2 19.9 29 19.9 28.8 19.9 C 28.7 20 28.5 20 28.3 20 C 28.3 20 28.2 20 28.2 19.9 C 28.1 19.9 28.1 19.8 28.1 19.8 C 28.1 19.8 28.1 19.7 28.1 19.7 C 28.1 19.7 28.1 19.7 28.1 19.6 C 28.2 19.5 28.2 19.3 28.3 18.8 C 28.3 18.4 28.4 18.2 28.4 18.1 C 28.4 18.1 28.4 18.1 28.3 18.1 C 28.3 18.1 28.3 18.1 28.3 18.1 C 28.3 18 28.3 18 28.3 18 C 28.3 18 28.3 18 28.3 17.9 C 28.3 17.9 28.3 17.9 28.4 17.9 C 28.4 17.9 28.4 17.8 28.5 17.8 C 28.5 17.8 28.6 17.9 28.6 17.9 C 28.7 17.9 29 17.8 29.4 17.8 C 29.5 17.7 29.6 17.7 29.6 17.7 C 29.6 17.7 29.7 17.7 29.7 17.7 C 29.8 17.7 29.9 17.8 29.9 17.9 C 29.9 17.9 29.9 18 29.9 18 C 29.8 18 29.8 18.1 29.8 18.1 Z M 31.7 18 C 31.7 18.2 31.6 18.3 31.4 18.3 C 31.4 18.2 31.4 18.1 31.4 18.1 C 31.3 18.1 31.2 18 31.1 18 C 31 18 30.8 18.1 30.7 18.2 C 30.5 18.2 30.5 18.3 30.5 18.4 C 30.5 18.5 30.5 18.5 30.6 18.6 C 30.6 18.6 30.7 18.7 31 18.7 C 31.2 18.8 31.4 18.9 31.5 19 C 31.6 19.1 31.7 19.1 31.7 19.3 C 31.7 19.4 31.5 19.6 31.2 19.8 C 30.9 19.9 30.6 20 30.3 20 C 30.2 20 30.1 20 30.1 20 C 30 19.9 30 19.9 30 19.8 C 30 19.7 30 19.7 30 19.7 C 30.1 19.6 30.1 19.6 30.1 19.6 C 30.2 19.6 30.2 19.6 30.2 19.6 C 30.3 19.7 30.4 19.7 30.5 19.7 C 30.6 19.7 30.8 19.6 31 19.5 C 31.2 19.5 31.3 19.4 31.3 19.3 C 31.3 19.3 31.3 19.2 31.2 19.2 C 31.2 19.2 31.1 19.1 30.9 19.1 C 30.7 19 30.6 18.9 30.4 18.9 C 30.3 18.9 30.3 18.8 30.2 18.7 C 30.1 18.7 30.1 18.6 30.1 18.5 C 30.1 18.3 30.2 18.1 30.4 18 C 30.7 17.8 30.9 17.7 31.2 17.7 C 31.4 17.7 31.5 17.8 31.6 17.8 C 31.7 17.9 31.7 18 31.7 18 C 31.7 18 31.7 18 31.7 18 Z M 31.9 20.1 C 31.9 20.1 31.9 20.1 31.9 20.1 C 32 20.1 32 20 32.1 20 C 32.2 20 32.3 19.9 32.3 19.8 C 32.3 19.8 32.3 19.7 32.3 19.7 C 32.3 19.7 32.3 19.6 32.3 19.6 C 32.3 19.5 32.3 19.5 32.3 19.5 C 32.3 19.5 32.3 19.4 32.3 19.4 C 32.3 19.4 32.3 19.4 32.4 19.4 C 32.4 19.4 32.5 19.4 32.5 19.4 C 32.6 19.4 32.6 19.4 32.6 19.4 C 32.6 19.5 32.6 19.5 32.6 19.6 C 32.7 19.6 32.7 19.7 32.7 19.7 C 32.7 19.7 32.6 19.8 32.6 19.9 C 32.6 20 32.5 20 32.4 20.1 C 32.4 20.1 32.3 20.2 32.3 20.2 C 32.2 20.2 32.2 20.2 32.2 20.2 C 32.1 20.2 32 20.2 32 20.2 C 31.9 20.2 31.9 20.2 31.9 20.1 C 31.9 20.1 31.9 20.1 31.9 20.1 Z M 35.3 19.5 C 35.4 19.4 35.5 19.4 35.5 19.4 C 35.6 19.4 35.6 19.4 35.6 19.5 C 35.6 19.6 35.5 19.7 35.3 19.8 C 35.1 19.9 34.9 20 34.7 20 C 34.5 20 34.4 19.9 34.2 19.8 C 34.1 19.7 34 19.5 34 19.3 C 34 19.1 34.1 18.8 34.2 18.6 C 34.4 18.3 34.6 18.1 34.8 17.9 C 35 17.7 35.3 17.6 35.5 17.6 C 35.6 17.6 35.7 17.7 35.8 17.7 C 35.9 17.8 35.9 17.9 35.9 18 C 35.9 18.1 35.9 18.2 35.9 18.3 C 35.9 18.3 35.8 18.4 35.8 18.4 C 35.7 18.4 35.7 18.4 35.6 18.4 C 35.6 18.4 35.6 18.4 35.5 18.4 C 35.5 18.4 35.5 18.3 35.5 18.3 C 35.5 18.3 35.5 18.2 35.5 18.2 C 35.5 18.1 35.5 18.1 35.5 18 C 35.5 17.9 35.5 17.9 35.5 17.9 C 35.3 17.9 35.2 18 35 18.1 C 34.8 18.3 34.7 18.5 34.5 18.7 C 34.4 18.9 34.4 19.1 34.4 19.3 C 34.4 19.4 34.4 19.5 34.5 19.6 C 34.5 19.7 34.6 19.7 34.7 19.7 C 34.8 19.7 34.9 19.7 35 19.6 C 35.1 19.6 35.2 19.5 35.3 19.5 C 35.3 19.5 35.3 19.5 35.3 19.5 Z M 36.6 20 C 36.5 20 36.3 19.9 36.2 19.7 C 36.1 19.6 36 19.4 36 19.2 C 36 19 36.1 18.8 36.2 18.6 C 36.3 18.3 36.5 18.1 36.7 18 C 36.9 17.8 37.1 17.7 37.3 17.7 C 37.4 17.7 37.6 17.8 37.7 17.8 C 37.8 17.8 37.9 17.9 38 18 C 38.1 18 38.1 18.1 38.2 18.2 C 38.2 18.3 38.2 18.4 38.2 18.5 C 38.2 18.7 38.2 18.8 38.1 19 C 38 19.2 37.9 19.3 37.7 19.5 C 37.6 19.6 37.4 19.8 37.3 19.8 C 37.1 19.9 36.9 20 36.6 20 Z M 36.4 19.2 C 36.4 19.4 36.4 19.5 36.5 19.5 C 36.6 19.6 36.6 19.7 36.7 19.7 C 37 19.7 37.2 19.5 37.5 19.3 C 37.7 19 37.8 18.8 37.8 18.5 C 37.8 18.4 37.8 18.3 37.8 18.2 C 37.7 18.2 37.7 18.1 37.6 18.1 C 37.5 18 37.4 18 37.3 18 C 37.1 18 36.9 18.2 36.7 18.4 C 36.5 18.7 36.4 19 36.4 19.2 Z M 40.5 18.4 C 40.5 18.3 40.5 18.3 40.5 18.3 C 40.5 18.3 40 18.9 40 18.9 C 39.8 19.2 39.6 19.4 39.5 19.4 C 39.4 19.4 39.4 19.4 39.3 19.3 C 39.3 19.2 39.2 19.1 39.2 19 C 39.1 18.9 39.1 18.8 39.1 18.7 C 39.1 18.5 39 18.5 39 18.4 C 39 18.4 38.9 18.8 38.9 18.8 C 38.9 18.9 38.9 19 38.9 19.1 C 38.8 19.3 38.8 19.4 38.8 19.5 C 38.8 19.7 38.7 19.8 38.7 19.8 C 38.7 19.9 38.7 19.9 38.7 19.9 C 38.6 20 38.6 20 38.6 20 C 38.5 20 38.5 19.9 38.4 19.9 C 38.4 19.9 38.4 19.8 38.4 19.8 C 38.4 19.7 38.4 19.6 38.4 19.4 C 38.6 18.8 38.7 18.5 38.7 18.3 C 38.7 18.1 38.7 18 38.7 17.9 C 38.7 17.9 38.8 17.8 38.8 17.8 C 38.9 17.8 38.9 17.8 39 17.8 C 39 17.8 39.1 17.8 39.1 17.8 C 39.1 17.9 39.2 17.9 39.2 18 C 39.18 17.98 39.2 18 39.2 18 C 39.2 18 39.39 18.55 39.4 18.5 C 39.5 18.8 39.5 18.9 39.5 19 C 39.7 18.9 39.8 18.7 40 18.4 C 40.2 18.1 40.4 17.9 40.4 17.8 C 40.5 17.8 40.6 17.7 40.6 17.7 C 40.7 17.7 40.7 17.7 40.8 17.8 C 40.8 17.8 40.9 17.9 40.9 17.9 C 40.9 17.9 40.8 18.1 40.8 18.3 C 40.8 18.5 40.7 18.7 40.7 19 C 40.7 19.2 40.7 19.3 40.7 19.4 C 40.7 19.4 40.7 19.5 40.7 19.6 C 40.7 19.6 40.7 19.6 40.7 19.7 C 40.7 19.8 40.7 19.8 40.7 19.9 C 40.6 19.9 40.6 19.9 40.5 19.9 C 40.4 19.9 40.3 19.8 40.3 19.6 C 40.3 19.5 40.3 19.2 40.4 19 C 40.4 18.7 40.4 18.5 40.5 18.4 C 40.5 18.4 40.5 18.4 40.5 18.4 Z M 41.8 20 C 41.6 20 41.5 19.9 41.3 19.7 C 41.2 19.6 41.1 19.4 41.1 19.2 C 41.1 19 41.2 18.8 41.3 18.6 C 41.4 18.3 41.6 18.1 41.8 18 C 42 17.8 42.2 17.7 42.4 17.7 C 42.6 17.7 42.7 17.8 42.8 17.8 C 42.9 17.8 43 17.9 43.1 18 C 43.2 18 43.2 18.1 43.3 18.2 C 43.3 18.3 43.3 18.4 43.3 18.5 C 43.3 18.7 43.3 18.8 43.2 19 C 43.1 19.2 43 19.3 42.8 19.5 C 42.7 19.6 42.5 19.8 42.4 19.8 C 42.2 19.9 42 20 41.8 20 Z M 41.5 19.2 C 41.5 19.4 41.5 19.5 41.6 19.5 C 41.7 19.6 41.8 19.7 41.9 19.7 C 42.1 19.7 42.4 19.5 42.6 19.3 C 42.8 19 42.9 18.8 42.9 18.5 C 42.9 18.4 42.9 18.3 42.9 18.2 C 42.8 18.2 42.8 18.1 42.7 18.1 C 42.6 18 42.5 18 42.4 18 C 42.2 18 42 18.2 41.8 18.4 C 41.6 18.7 41.5 19 41.5 19.2 Z M 44.7 19.4 C 44.7 19.4 44.84 18.9 44.8 18.9 C 44.9 18.5 45 18.2 45 18.1 C 45 18 45 18 45 17.9 C 45 17.9 45 17.9 45 17.9 C 45.1 17.8 45.1 17.8 45.2 17.8 C 45.2 17.8 45.2 17.8 45.3 17.8 C 45.3 17.9 45.4 17.9 45.4 18 C 45.4 18.2 45.5 18.4 45.7 18.7 C 45.9 19 46 19.2 46.2 19.4 C 46.2 19.2 46.2 19 46.3 18.7 C 46.3 18.5 46.3 18.4 46.4 18.2 C 46.4 18.1 46.4 18 46.4 17.9 C 46.4 17.8 46.4 17.8 46.5 17.7 C 46.5 17.7 46.6 17.7 46.6 17.7 C 46.7 17.7 46.7 17.7 46.7 17.8 C 46.8 17.8 46.8 17.9 46.8 17.9 C 46.8 18 46.8 18.1 46.7 18.2 C 46.7 18.4 46.6 18.7 46.5 19 C 46.5 19.4 46.5 19.6 46.5 19.6 C 46.5 19.6 46.5 19.7 46.5 19.7 C 46.5 19.7 46.5 19.8 46.4 19.8 C 46.4 19.8 46.4 19.9 46.4 19.9 C 46.3 19.9 46.3 19.9 46.2 19.9 C 46.2 19.9 46.2 19.9 46.1 19.9 C 46.1 19.9 46.1 19.9 46.1 19.8 C 46.1 19.8 46 19.8 46 19.7 C 46 19.6 45.9 19.6 45.9 19.5 C 45.7 19.3 45.4 18.9 45.2 18.5 C 45.2 18.6 45.1 18.9 45.1 19.4 C 45.1 19.4 45.1 19.5 45.1 19.5 C 45.1 19.5 45.1 19.6 45 19.7 C 45 19.8 45 19.9 45 19.9 C 44.9 20 44.9 20 44.8 20 C 44.8 20 44.7 20 44.7 19.9 C 44.7 19.9 44.7 19.8 44.7 19.7 C 44.7 19.7 44.7 19.5 44.7 19.4 C 44.73 19.4 44.7 19.4 44.7 19.4 Z M 47.6 20 C 47.4 20 47.3 19.9 47.2 19.7 C 47 19.6 47 19.4 47 19.2 C 47 19 47 18.8 47.2 18.6 C 47.3 18.3 47.4 18.1 47.6 18 C 47.8 17.8 48 17.7 48.2 17.7 C 48.4 17.7 48.5 17.8 48.6 17.8 C 48.7 17.8 48.8 17.9 48.9 18 C 49 18 49.1 18.1 49.1 18.2 C 49.1 18.3 49.2 18.4 49.2 18.5 C 49.2 18.7 49.1 18.8 49 19 C 49 19.2 48.8 19.3 48.7 19.5 C 48.5 19.6 48.4 19.8 48.2 19.8 C 48.1 19.9 47.9 20 47.6 20 Z M 47.3 19.2 C 47.3 19.4 47.4 19.5 47.5 19.5 C 47.5 19.6 47.6 19.7 47.7 19.7 C 48 19.7 48.2 19.5 48.4 19.3 C 48.7 19 48.8 18.8 48.8 18.5 C 48.8 18.4 48.8 18.3 48.7 18.2 C 48.7 18.2 48.6 18.1 48.5 18.1 C 48.4 18 48.3 18 48.2 18 C 48 18 47.9 18.2 47.7 18.4 C 47.4 18.7 47.3 19 47.3 19.2 Z M 48.9 17.1 C 48.8 17.1 48.8 17.2 48.7 17.3 C 48.7 17.3 48.7 17.3 48.7 17.3 C 48.6 17.3 48.6 17.3 48.4 17.4 C 48.4 17.5 48.3 17.5 48.3 17.5 C 48.3 17.5 48.3 17.5 48.3 17.5 C 48.3 17.5 48.2 17.5 48.2 17.5 C 48.2 17.4 48.2 17.4 48.2 17.4 C 48.2 17.3 48.2 17.2 48.4 17.1 C 48.4 17.1 48.4 17.1 48.4 17.1 C 48.4 17.1 48.4 17.1 48.5 17.1 C 48.6 16.9 48.8 16.8 48.8 16.8 C 48.8 16.8 48.9 16.8 48.9 16.8 C 48.9 16.8 49 16.8 49 16.8 C 49 16.9 49 16.9 49 16.9 C 49 17 49 17 49 17 C 49 17.1 48.9 17.1 48.9 17.1 C 48.9 17.1 48.9 17.1 48.9 17.1 Z M 51 18 C 51 18.2 50.9 18.3 50.7 18.3 C 50.7 18.2 50.7 18.1 50.7 18.1 C 50.6 18.1 50.5 18 50.4 18 C 50.3 18 50.1 18.1 50 18.2 C 49.8 18.2 49.8 18.3 49.8 18.4 C 49.8 18.5 49.8 18.5 49.8 18.6 C 49.9 18.6 50 18.7 50.3 18.7 C 50.5 18.8 50.7 18.9 50.8 19 C 50.9 19.1 50.9 19.1 50.9 19.3 C 50.9 19.4 50.8 19.6 50.5 19.8 C 50.2 19.9 49.9 20 49.6 20 C 49.5 20 49.4 20 49.4 20 C 49.3 19.9 49.3 19.9 49.3 19.8 C 49.3 19.7 49.3 19.7 49.3 19.7 C 49.4 19.6 49.4 19.6 49.4 19.6 C 49.4 19.6 49.5 19.6 49.5 19.6 C 49.6 19.7 49.7 19.7 49.8 19.7 C 49.9 19.7 50.1 19.6 50.3 19.5 C 50.5 19.5 50.6 19.4 50.6 19.3 C 50.6 19.3 50.5 19.2 50.5 19.2 C 50.5 19.2 50.4 19.1 50.2 19.1 C 50 19 49.8 18.9 49.7 18.9 C 49.6 18.9 49.5 18.8 49.5 18.7 C 49.4 18.7 49.4 18.6 49.4 18.5 C 49.4 18.3 49.5 18.1 49.7 18 C 49.9 17.8 50.2 17.7 50.5 17.7 C 50.6 17.7 50.8 17.8 50.9 17.8 C 51 17.9 51 18 51 18 C 51 18 51 18 51 18 Z " stroke="none" fill="#000"/>  </g>  <g id="Polygon15276">    <path d="M 1.9 14.6 C 1.9 14.6 1.9 14.5 2 14.4 C 2 14 2 13.7 2.1 13.3 C 2.1 13.2 2.1 13.2 2.1 13.1 C 2.1 13.1 2.1 13.1 2.1 13.1 C 2 13.1 1.9 13 1.9 13 C 1.9 12.9 1.9 12.9 2 12.8 C 2 12.8 2.1 12.8 2.1 12.8 C 2.1 12.8 2.3 12.8 2.3 12.8 C 2.4 12.8 2.5 12.8 2.7 12.8 C 2.8 12.7 2.9 12.7 3 12.7 C 3.3 12.7 3.5 12.8 3.7 13 C 3.8 13.1 3.9 13.3 3.9 13.6 C 3.9 13.9 3.8 14.1 3.5 14.3 C 3.3 14.6 3 14.7 2.6 14.8 C 2.5 14.8 2.4 14.8 2.4 14.9 C 2.4 14.9 2.3 14.9 2.3 14.9 C 2.2 15 2.1 15 2.1 15 C 2 15 2 15 1.9 14.9 C 1.9 14.9 1.9 14.8 1.9 14.8 C 1.9 14.8 1.9 14.8 1.9 14.7 C 1.9 14.7 1.9 14.6 1.9 14.6 Z M 2.3 14.5 C 2.3 14.5 2.3 14.5 2.3 14.6 C 2.4 14.6 2.5 14.5 2.8 14.5 C 3 14.4 3.2 14.3 3.4 14.1 C 3.5 13.9 3.6 13.8 3.6 13.6 C 3.6 13.4 3.5 13.3 3.4 13.2 C 3.3 13.1 3.1 13 3 13 C 2.8 13 2.7 13 2.5 13.1 C 2.5 13.1 2.5 13.1 2.5 13.1 C 2.4 13.7 2.3 14.2 2.3 14.5 C 2.3 14.5 2.3 14.5 2.3 14.5 Z M 4.7 13.4 C 4.7 13.5 4.7 13.6 4.6 13.6 C 4.6 13.7 4.6 13.7 4.6 13.9 C 4.6 14.1 4.6 14.2 4.6 14.3 C 4.6 14.4 4.6 14.5 4.6 14.7 C 4.6 14.8 4.6 14.8 4.5 14.9 C 4.5 14.9 4.4 14.9 4.4 14.9 C 4.3 14.9 4.3 14.9 4.2 14.8 C 4.2 14.8 4.2 14.7 4.2 14.5 C 4.2 14.4 4.2 14.2 4.3 13.9 C 4.3 13.9 4.3 13.3 4.3 13.3 C 4.4 13.2 4.4 13.1 4.4 13.1 C 4.4 12.9 4.4 12.9 4.4 12.9 C 4.4 12.8 4.5 12.8 4.5 12.8 C 4.6 12.8 4.6 12.7 4.6 12.7 C 4.7 12.7 4.7 12.8 4.8 12.8 C 4.8 12.9 4.8 12.9 4.8 13 C 4.8 13 4.7 13.4 4.7 13.4 Z M 6.7 13 C 6.7 13.2 6.6 13.3 6.4 13.3 C 6.4 13.2 6.4 13.1 6.3 13.1 C 6.3 13.1 6.2 13 6.1 13 C 5.9 13 5.8 13.1 5.6 13.2 C 5.5 13.2 5.4 13.3 5.4 13.4 C 5.4 13.5 5.5 13.5 5.5 13.6 C 5.6 13.6 5.7 13.7 5.9 13.7 C 6.2 13.8 6.3 13.9 6.4 14 C 6.6 14.1 6.6 14.1 6.6 14.3 C 6.6 14.4 6.5 14.6 6.2 14.8 C 5.9 14.9 5.6 15 5.3 15 C 5.2 15 5.1 15 5 15 C 5 14.9 5 14.9 5 14.8 C 5 14.7 5 14.7 5 14.7 C 5 14.6 5.1 14.6 5.1 14.6 C 5.1 14.6 5.1 14.6 5.2 14.6 C 5.3 14.7 5.4 14.7 5.4 14.7 C 5.6 14.7 5.8 14.6 6 14.5 C 6.2 14.5 6.2 14.4 6.2 14.3 C 6.2 14.3 6.2 14.2 6.2 14.2 C 6.1 14.2 6 14.1 5.9 14.1 C 5.7 14 5.5 13.9 5.4 13.9 C 5.3 13.9 5.2 13.8 5.2 13.7 C 5.1 13.7 5.1 13.6 5.1 13.5 C 5.1 13.3 5.2 13.1 5.4 13 C 5.6 12.8 5.9 12.7 6.2 12.7 C 6.3 12.7 6.4 12.8 6.5 12.8 C 6.6 12.9 6.7 13 6.7 13 C 6.7 13 6.7 13 6.7 13 Z M 8.5 13.1 C 8.3 13.1 8.1 13.1 8 13.1 C 8 13.1 8 13.2 8 13.2 C 8 13.2 8 13.4 7.9 13.7 C 7.9 14 7.9 14.2 7.9 14.4 C 7.9 14.5 7.9 14.6 7.9 14.7 C 7.9 14.7 7.9 14.7 7.9 14.7 C 7.9 14.8 7.9 14.8 7.9 14.9 C 7.8 14.9 7.8 14.9 7.8 14.9 C 7.7 14.9 7.7 14.9 7.6 14.9 C 7.6 14.8 7.6 14.8 7.5 14.7 C 7.5 14.6 7.5 14.5 7.5 14.4 C 7.5 14.3 7.6 14 7.6 13.7 C 7.6 13.3 7.7 13.2 7.7 13.2 C 7.6 13.2 7.5 13.2 7.3 13.2 C 7.1 13.2 7 13.2 7 13.2 C 6.9 13.2 6.8 13.2 6.8 13.2 C 6.7 13.1 6.7 13.1 6.7 13.1 C 6.7 13 6.7 13 6.8 12.9 C 6.8 12.9 6.9 12.9 7.1 12.9 C 7.4 12.9 7.7 12.9 7.9 12.8 C 8.2 12.8 8.5 12.8 8.6 12.8 C 8.8 12.8 8.9 12.8 8.9 12.8 C 9 12.9 9 12.9 9 13 C 9 13.1 9 13.1 8.9 13.1 C 8.9 13.1 8.8 13.1 8.7 13.1 C 8.7 13.1 8.6 13.1 8.5 13.1 C 8.5 13.1 8.5 13.1 8.5 13.1 Z M 9.1 13.1 C 9.1 13.1 9.04 13.08 9 13.1 C 9 13 9 13 9 13 C 9 12.9 9 12.9 9.1 12.8 C 9.1 12.8 9.2 12.8 9.2 12.8 C 9.2 12.8 9.2 12.8 9.3 12.8 C 9.3 12.8 9.3 12.8 9.3 12.8 C 9.6 12.8 9.8 12.7 9.9 12.7 C 10.1 12.7 10.3 12.8 10.4 12.9 C 10.6 13 10.6 13.1 10.6 13.3 C 10.6 13.4 10.6 13.6 10.4 13.7 C 10.3 13.8 10.1 13.9 9.9 14 C 10.3 14.3 10.5 14.5 10.7 14.6 C 10.8 14.6 10.8 14.7 10.8 14.7 C 10.8 14.8 10.8 14.8 10.8 14.8 C 10.7 14.9 10.7 14.9 10.6 14.9 C 10.6 14.9 10.5 14.9 10.4 14.8 C 10.4 14.8 10.3 14.7 10.1 14.6 C 10 14.5 9.9 14.4 9.9 14.4 C 9.7 14.3 9.6 14.2 9.5 14.1 C 9.4 14.1 9.3 14.1 9.3 14 C 9.3 13.9 9.4 13.9 9.4 13.8 C 9.5 13.8 9.5 13.8 9.6 13.8 C 9.6 13.8 9.6 13.8 9.6 13.8 C 9.6 13.8 9.7 13.8 9.7 13.8 C 9.7 13.8 9.8 13.7 10 13.6 C 10.2 13.5 10.3 13.4 10.3 13.3 C 10.3 13.2 10.2 13.1 10.2 13.1 C 10.1 13 10 13 9.9 13 C 9.8 13 9.7 13 9.6 13 C 9.5 13.1 9.5 13.1 9.4 13.1 C 9.4 13.1 9.4 13.1 9.4 13.1 C 9.4 13.2 9.4 13.3 9.4 13.4 C 9.3 13.6 9.3 13.8 9.3 14 C 9.2 14.2 9.2 14.4 9.2 14.5 C 9.2 14.5 9.2 14.6 9.2 14.6 C 9.2 14.7 9.3 14.7 9.3 14.8 C 9.3 14.8 9.2 14.8 9.2 14.9 C 9.1 14.9 9.1 14.9 9.1 14.9 C 8.9 14.9 8.8 14.9 8.8 14.7 C 8.8 14.5 8.9 14.3 8.9 14 C 8.9 13.8 9 13.5 9 13.3 C 9 13.3 9 13.2 9 13.2 C 9.04 13.21 9.1 13.1 9.1 13.1 Z M 11.5 13.4 C 11.5 13.5 11.5 13.6 11.5 13.6 C 11.5 13.7 11.4 13.7 11.4 13.9 C 11.4 14.1 11.4 14.2 11.4 14.3 C 11.4 14.4 11.4 14.5 11.4 14.7 C 11.4 14.8 11.4 14.8 11.3 14.9 C 11.3 14.9 11.2 14.9 11.2 14.9 C 11.1 14.9 11.1 14.9 11.1 14.8 C 11 14.8 11 14.7 11 14.5 C 11 14.4 11 14.2 11.1 13.9 C 11.1 13.9 11.2 13.3 11.2 13.3 C 11.2 13.2 11.2 13.1 11.2 13.1 C 11.2 12.9 11.2 12.9 11.2 12.9 C 11.3 12.8 11.3 12.8 11.3 12.8 C 11.4 12.8 11.4 12.7 11.4 12.7 C 11.5 12.7 11.5 12.8 11.6 12.8 C 11.6 12.9 11.6 12.9 11.6 13 C 11.6 13 11.5 13.4 11.5 13.4 Z M 13.5 13.1 C 13.2 13.1 13.1 13.1 13 13.1 C 13 13.1 13 13.2 13 13.2 C 12.9 13.2 12.9 13.4 12.9 13.7 C 12.9 14 12.8 14.2 12.8 14.4 C 12.8 14.5 12.9 14.6 12.9 14.7 C 12.9 14.7 12.9 14.7 12.9 14.7 C 12.9 14.8 12.9 14.8 12.8 14.9 C 12.8 14.9 12.8 14.9 12.7 14.9 C 12.7 14.9 12.6 14.9 12.6 14.9 C 12.5 14.8 12.5 14.8 12.5 14.7 C 12.5 14.6 12.5 14.5 12.5 14.4 C 12.5 14.3 12.5 14 12.5 13.7 C 12.6 13.3 12.6 13.2 12.6 13.2 C 12.6 13.2 12.5 13.2 12.3 13.2 C 12.1 13.2 12 13.2 12 13.2 C 11.9 13.2 11.8 13.2 11.7 13.2 C 11.7 13.1 11.7 13.1 11.7 13.1 C 11.7 13 11.7 13 11.7 12.9 C 11.8 12.9 11.9 12.9 12.1 12.9 C 12.3 12.9 12.6 12.9 12.9 12.8 C 13.2 12.8 13.4 12.8 13.6 12.8 C 13.8 12.8 13.9 12.8 13.9 12.8 C 13.9 12.9 14 12.9 14 13 C 14 13.1 13.9 13.1 13.8 13.1 C 13.8 13.1 13.8 13.1 13.7 13.1 C 13.6 13.1 13.6 13.1 13.5 13.1 C 13.5 13.1 13.5 13.1 13.5 13.1 Z M 14.2 14.4 C 14.1 14.4 14.1 14.4 14.1 14.4 C 14.1 14.4 14 14.5 13.9 14.7 C 13.8 14.8 13.8 14.9 13.7 14.9 C 13.7 14.9 13.7 14.9 13.7 14.9 C 13.6 14.9 13.6 14.9 13.5 14.9 C 13.5 14.8 13.5 14.8 13.5 14.8 C 13.5 14.7 13.6 14.5 13.8 14.1 C 14 13.9 14.1 13.7 14.2 13.5 C 14.4 13.1 14.6 12.9 14.6 12.8 C 14.6 12.8 14.7 12.7 14.8 12.7 C 14.8 12.7 14.9 12.7 14.9 12.8 C 15 12.8 15 12.8 15 12.9 C 15 12.9 15 13 14.9 13 C 15.1 13.5 15.3 13.9 15.4 14.1 C 15.5 14.4 15.6 14.5 15.7 14.6 C 15.7 14.7 15.8 14.7 15.8 14.7 C 15.8 14.8 15.8 14.8 15.8 14.8 C 15.8 14.9 15.8 14.9 15.7 14.9 C 15.7 15 15.6 15 15.6 15 C 15.5 15 15.4 15 15.4 14.9 C 15.3 14.8 15.2 14.7 15.1 14.5 C 15.1 14.4 15 14.3 15 14.3 C 15 14.3 15 14.3 15 14.3 C 15 14.3 14.9 14.3 14.7 14.3 C 14.5 14.3 14.4 14.4 14.2 14.4 C 14.2 14.4 14.2 14.4 14.2 14.4 C 14.2 14.4 14.2 14.4 14.2 14.4 Z M 14.8 14 C 14.8 14 14.9 14 14.9 14 C 14.9 13.9 14.8 13.7 14.7 13.3 C 14.7 13.3 14.7 13.3 14.7 13.3 C 14.7 13.3 14.3 14.1 14.3 14.1 C 14.3 14.1 14.4 14 14.5 14 C 14.5 14 14.6 14 14.8 14 C 14.8 14 14.8 14 14.8 14 Z M 17.4 14.8 C 17.4 14.8 17.3 14.8 17.3 14.8 C 17.2 14.8 17.2 14.8 17.1 14.8 C 16.9 14.8 16.6 14.8 16.4 14.9 C 16.2 14.9 16.2 15 16.1 15 C 16.1 15 16 14.9 16 14.9 C 16 14.8 15.9 14.8 15.9 14.8 C 15.9 14.7 15.9 14.7 16 14.6 C 16 14.5 16 14.4 16 14.3 C 16 14.3 16.2 13.1 16.2 13.1 C 16.2 13 16.2 12.9 16.2 12.9 C 16.2 12.8 16.2 12.8 16.2 12.8 C 16.3 12.8 16.3 12.7 16.4 12.7 C 16.4 12.7 16.5 12.8 16.5 12.8 C 16.5 12.8 16.6 12.9 16.6 12.9 C 16.6 12.9 16.6 13 16.5 13.1 C 16.5 13.2 16.5 13.5 16.4 13.9 C 16.4 14.3 16.4 14.5 16.4 14.5 C 16.4 14.5 16.4 14.6 16.4 14.6 C 16.4 14.6 16.5 14.5 16.7 14.5 C 16.8 14.5 16.8 14.5 16.9 14.5 C 17.1 14.5 17.3 14.5 17.4 14.4 C 17.4 14.4 17.4 14.4 17.5 14.4 C 17.5 14.4 17.6 14.4 17.6 14.5 C 17.6 14.5 17.6 14.5 17.6 14.6 C 17.6 14.7 17.6 14.7 17.6 14.7 C 17.5 14.8 17.4 14.8 17.4 14.8 Z M 20.5 13 C 20.5 13.1 20.5 13.1 20.4 13.1 C 20.4 13.1 20.4 13.1 20.4 13.1 C 20.4 13.1 20.3 13.1 20.3 13.1 C 20.1 13.1 20 13.1 19.8 13.1 C 19.7 13.1 19.6 13.1 19.5 13.1 C 19.5 13.3 19.4 13.6 19.4 13.8 C 19.4 13.8 19.5 13.8 19.5 13.8 C 19.7 13.8 19.8 13.8 19.9 13.7 C 20.1 13.7 20.1 13.7 20.2 13.7 C 20.4 13.7 20.4 13.8 20.4 13.9 C 20.4 13.9 20.4 13.9 20.4 13.9 C 20.4 14 20.3 14 20.3 14 C 20.3 14 20.2 14 20.1 14 C 20.1 14 19.7 14.1 19.7 14.1 C 19.6 14.1 19.5 14.1 19.4 14.1 C 19.4 14.2 19.4 14.2 19.4 14.2 C 19.4 14.2 19.4 14.2 19.3 14.3 C 19.3 14.5 19.3 14.6 19.3 14.6 C 19.3 14.6 19.3 14.8 19.3 14.8 C 19.3 14.9 19.3 15 19.2 15 C 19.1 15 19.1 15 19 14.9 C 19 14.9 18.9 14.8 18.9 14.8 C 18.9 14.6 19 14.5 19 14.2 C 19 14.2 19 13.9 19.1 13.1 C 19.1 13.1 19.1 13.1 19.1 13.1 C 19.1 13 19.1 13 19.1 13 C 19.1 12.9 19.1 12.9 19.2 12.9 C 19.2 12.8 19.2 12.8 19.3 12.8 C 19.3 12.8 19.3 12.8 19.4 12.8 C 19.4 12.8 19.4 12.8 19.5 12.8 C 19.5 12.8 19.7 12.8 19.9 12.8 C 20.1 12.7 20.2 12.7 20.3 12.7 C 20.4 12.7 20.5 12.8 20.6 12.8 C 20.6 12.8 20.6 12.8 20.6 12.9 C 20.6 12.9 20.6 13 20.5 13 C 20.5 13 20.5 13 20.5 13 Z M 21 14.4 C 21 14.4 21 14.4 21 14.4 C 20.9 14.4 20.9 14.5 20.8 14.7 C 20.7 14.8 20.7 14.9 20.6 14.9 C 20.6 14.9 20.6 14.9 20.5 14.9 C 20.5 14.9 20.5 14.9 20.4 14.9 C 20.4 14.8 20.3 14.8 20.3 14.8 C 20.3 14.7 20.5 14.5 20.7 14.1 C 20.8 13.9 21 13.7 21.1 13.5 C 21.3 13.1 21.4 12.9 21.5 12.8 C 21.5 12.8 21.6 12.7 21.6 12.7 C 21.7 12.7 21.8 12.7 21.8 12.8 C 21.8 12.8 21.8 12.8 21.8 12.9 C 21.8 12.9 21.8 13 21.8 13 C 22 13.5 22.2 13.9 22.3 14.1 C 22.4 14.4 22.5 14.5 22.6 14.6 C 22.6 14.7 22.6 14.7 22.6 14.7 C 22.7 14.8 22.7 14.8 22.7 14.8 C 22.7 14.9 22.6 14.9 22.6 14.9 C 22.6 15 22.5 15 22.5 15 C 22.4 15 22.3 15 22.2 14.9 C 22.2 14.8 22.1 14.7 22 14.5 C 22 14.4 21.9 14.3 21.9 14.3 C 21.9 14.3 21.9 14.3 21.9 14.3 C 21.9 14.3 21.7 14.3 21.6 14.3 C 21.4 14.3 21.2 14.4 21.1 14.4 C 21.1 14.4 21.1 14.4 21 14.4 C 21 14.4 21 14.4 21 14.4 Z M 21.7 14 C 21.7 14 21.8 14 21.8 14 C 21.8 13.9 21.7 13.7 21.6 13.3 C 21.6 13.3 21.6 13.3 21.6 13.3 C 21.6 13.3 21.2 14.1 21.2 14.1 C 21.2 14.1 21.3 14 21.3 14 C 21.4 14 21.5 14 21.7 14 C 21.7 14 21.7 14 21.7 14 Z M 24.9 12.9 C 24.9 12.9 24.9 12.9 24.9 12.9 C 24.9 12.9 24.9 12.9 24.8 13 C 24.7 13.2 24.6 13.3 24.5 13.4 C 24.5 13.5 24.3 13.8 24.2 14.1 C 24 14.2 24 14.4 23.9 14.4 C 23.8 14.5 23.8 14.7 23.8 14.7 C 23.8 14.8 23.7 14.8 23.7 14.8 C 23.6 14.9 23.6 14.9 23.5 14.9 C 23.4 14.9 23.4 14.9 23.4 14.8 C 23.4 14.8 23.3 14.7 23.3 14.5 C 23.2 14.4 23.1 14.2 23 13.9 C 22.8 13.3 22.7 13 22.7 13 C 22.7 13 22.7 12.9 22.7 12.9 C 22.8 12.8 22.8 12.8 22.9 12.8 C 22.9 12.8 23 12.8 23 12.8 C 23 12.9 23.1 13 23.1 13.1 C 23.1 13.2 23.2 13.4 23.3 13.7 C 23.4 14 23.5 14.3 23.6 14.4 C 23.6 14.4 23.6 14.3 23.7 14.2 C 23.7 14.2 23.7 14.2 23.7 14.2 C 23.9 14 24 13.8 24.1 13.6 C 24.2 13.3 24.4 13.1 24.5 12.9 C 24.6 12.8 24.7 12.7 24.7 12.7 C 24.9 12.7 24.9 12.7 24.9 12.8 C 24.91 12.84 24.9 12.9 24.9 12.9 C 24.9 12.9 24.91 12.85 24.9 12.9 Z M 25.4 15 C 25.2 15 25.1 14.9 24.9 14.7 C 24.8 14.6 24.7 14.4 24.7 14.2 C 24.7 14 24.8 13.8 24.9 13.6 C 25 13.3 25.2 13.1 25.4 13 C 25.6 12.8 25.8 12.7 26 12.7 C 26.2 12.7 26.3 12.8 26.4 12.8 C 26.5 12.8 26.6 12.9 26.7 13 C 26.8 13 26.8 13.1 26.9 13.2 C 26.9 13.3 26.9 13.4 26.9 13.5 C 26.9 13.7 26.9 13.8 26.8 14 C 26.7 14.2 26.6 14.3 26.5 14.5 C 26.3 14.6 26.1 14.8 26 14.8 C 25.8 14.9 25.6 15 25.4 15 Z M 25.1 14.2 C 25.1 14.4 25.1 14.5 25.2 14.5 C 25.3 14.6 25.4 14.7 25.5 14.7 C 25.7 14.7 26 14.5 26.2 14.3 C 26.4 14 26.5 13.8 26.5 13.5 C 26.5 13.4 26.5 13.3 26.5 13.2 C 26.4 13.2 26.4 13.1 26.3 13.1 C 26.2 13 26.1 13 26 13 C 25.8 13 25.6 13.2 25.4 13.4 C 25.2 13.7 25.1 14 25.1 14.2 Z M 27.3 13.1 C 27.3 13.1 27.32 13.08 27.3 13.1 C 27.3 13 27.3 13 27.3 13 C 27.3 12.9 27.3 12.9 27.3 12.8 C 27.4 12.8 27.4 12.8 27.5 12.8 C 27.5 12.8 27.5 12.8 27.5 12.8 C 27.6 12.8 27.6 12.8 27.6 12.8 C 27.9 12.8 28.1 12.7 28.2 12.7 C 28.4 12.7 28.6 12.8 28.7 12.9 C 28.8 13 28.9 13.1 28.9 13.3 C 28.9 13.4 28.8 13.6 28.7 13.7 C 28.6 13.8 28.4 13.9 28.2 14 C 28.6 14.3 28.8 14.5 29 14.6 C 29.1 14.6 29.1 14.7 29.1 14.7 C 29.1 14.8 29.1 14.8 29 14.8 C 29 14.9 29 14.9 28.9 14.9 C 28.9 14.9 28.8 14.9 28.7 14.8 C 28.7 14.8 28.5 14.7 28.4 14.6 C 28.3 14.5 28.2 14.4 28.2 14.4 C 28 14.3 27.9 14.2 27.8 14.1 C 27.7 14.1 27.6 14.1 27.6 14 C 27.6 13.9 27.7 13.9 27.7 13.8 C 27.7 13.8 27.8 13.8 27.9 13.8 C 27.9 13.8 27.9 13.8 27.9 13.8 C 27.9 13.8 27.9 13.8 28 13.8 C 28 13.8 28.1 13.7 28.3 13.6 C 28.5 13.5 28.6 13.4 28.6 13.3 C 28.6 13.2 28.5 13.1 28.4 13.1 C 28.4 13 28.3 13 28.2 13 C 28 13 27.9 13 27.9 13 C 27.8 13.1 27.7 13.1 27.7 13.1 C 27.7 13.1 27.7 13.1 27.7 13.1 C 27.7 13.2 27.7 13.3 27.6 13.4 C 27.6 13.6 27.6 13.8 27.5 14 C 27.5 14.2 27.5 14.4 27.5 14.5 C 27.5 14.5 27.5 14.6 27.5 14.6 C 27.5 14.7 27.5 14.7 27.5 14.8 C 27.5 14.8 27.5 14.8 27.5 14.9 C 27.4 14.9 27.4 14.9 27.3 14.9 C 27.2 14.9 27.1 14.9 27.1 14.7 C 27.1 14.5 27.2 14.3 27.2 14 C 27.2 13.8 27.3 13.5 27.3 13.3 C 27.3 13.3 27.3 13.2 27.3 13.2 C 27.32 13.21 27.3 13.1 27.3 13.1 Z M 30.9 13.1 C 30.9 13.1 30.5 13.1 30.5 13.1 C 30.3 13.1 30.2 13.1 30.1 13.1 C 30 13.1 29.9 13.2 29.9 13.2 C 29.9 13.2 29.9 13.2 29.9 13.3 C 29.9 13.3 29.8 13.4 29.8 13.5 C 29.8 13.6 29.8 13.7 29.8 13.7 C 29.8 13.7 29.9 13.7 30 13.7 C 30.2 13.7 30.2 13.7 30.3 13.7 C 30.4 13.7 30.5 13.6 30.6 13.6 C 30.8 13.6 30.8 13.7 30.8 13.8 C 30.8 13.8 30.8 13.9 30.8 13.9 C 30.7 13.9 30.7 14 30.6 14 C 30.5 14 30.5 14 30.4 14 C 30.4 14 30.3 14 30.3 14 C 30 14 29.8 14.1 29.8 14.1 C 29.8 14.1 29.8 14.1 29.8 14.1 C 29.8 14.1 29.7 14.1 29.7 14.1 C 29.7 14.1 29.7 14.2 29.7 14.3 C 29.7 14.5 29.7 14.6 29.7 14.6 C 29.7 14.6 29.7 14.7 29.7 14.7 C 29.8 14.7 29.9 14.6 30.1 14.6 C 30.3 14.6 30.4 14.6 30.5 14.6 C 30.6 14.5 30.7 14.5 30.7 14.5 C 30.9 14.5 30.9 14.6 30.9 14.7 C 30.9 14.7 30.9 14.8 30.9 14.8 C 30.8 14.8 30.6 14.9 30.5 14.9 C 30.3 14.9 30.2 14.9 30 14.9 C 29.8 15 29.6 15 29.5 15 C 29.4 15 29.4 15 29.3 14.9 C 29.3 14.9 29.3 14.8 29.3 14.8 C 29.3 14.8 29.3 14.7 29.3 14.7 C 29.3 14.7 29.3 14.7 29.3 14.6 C 29.3 14.5 29.4 14.3 29.4 13.8 C 29.5 13.4 29.5 13.2 29.5 13.1 C 29.5 13.1 29.5 13.1 29.5 13.1 C 29.5 13.1 29.5 13.1 29.5 13.1 C 29.5 13 29.4 13 29.4 13 C 29.4 13 29.4 13 29.5 12.9 C 29.5 12.9 29.5 12.9 29.5 12.9 C 29.6 12.9 29.6 12.8 29.6 12.8 C 29.7 12.8 29.7 12.9 29.8 12.9 C 29.8 12.9 30.1 12.8 30.6 12.8 C 30.7 12.7 30.8 12.7 30.8 12.7 C 30.8 12.7 30.8 12.7 30.8 12.7 C 31 12.7 31.1 12.8 31.1 12.9 C 31.1 12.9 31.1 13 31 13 C 31 13 31 13.1 30.9 13.1 Z M 32.5 14.5 C 32.6 14.4 32.7 14.4 32.7 14.4 C 32.8 14.4 32.9 14.4 32.9 14.5 C 32.9 14.6 32.7 14.7 32.5 14.8 C 32.3 14.9 32.1 15 31.9 15 C 31.7 15 31.6 14.9 31.4 14.8 C 31.3 14.7 31.2 14.5 31.2 14.3 C 31.2 14.1 31.3 13.8 31.4 13.6 C 31.6 13.3 31.8 13.1 32 12.9 C 32.2 12.7 32.5 12.6 32.7 12.6 C 32.8 12.6 32.9 12.7 33 12.7 C 33.1 12.8 33.1 12.9 33.1 13 C 33.1 13.1 33.1 13.2 33.1 13.3 C 33.1 13.3 33 13.4 33 13.4 C 32.9 13.4 32.9 13.4 32.8 13.4 C 32.8 13.4 32.8 13.4 32.7 13.4 C 32.7 13.4 32.7 13.3 32.7 13.3 C 32.7 13.3 32.7 13.2 32.7 13.2 C 32.7 13.1 32.7 13.1 32.7 13 C 32.7 12.9 32.7 12.9 32.7 12.9 C 32.5 12.9 32.4 13 32.2 13.1 C 32 13.3 31.9 13.5 31.8 13.7 C 31.6 13.9 31.6 14.1 31.6 14.3 C 31.6 14.4 31.6 14.5 31.7 14.6 C 31.7 14.7 31.8 14.7 31.9 14.7 C 32 14.7 32.1 14.7 32.2 14.6 C 32.3 14.6 32.4 14.5 32.5 14.5 C 32.5 14.5 32.5 14.5 32.5 14.5 Z M 34.9 13.1 C 34.9 13.1 34.5 13.1 34.5 13.1 C 34.3 13.1 34.2 13.1 34.1 13.1 C 34 13.1 33.9 13.2 33.9 13.2 C 33.9 13.2 33.9 13.2 33.9 13.3 C 33.9 13.3 33.9 13.4 33.8 13.5 C 33.8 13.6 33.8 13.7 33.8 13.7 C 33.9 13.7 33.9 13.7 34.1 13.7 C 34.2 13.7 34.3 13.7 34.3 13.7 C 34.5 13.7 34.6 13.6 34.6 13.6 C 34.8 13.6 34.9 13.7 34.9 13.8 C 34.9 13.8 34.8 13.9 34.8 13.9 C 34.8 13.9 34.7 14 34.6 14 C 34.5 14 34.5 14 34.4 14 C 34.4 14 34.3 14 34.3 14 C 34 14 33.8 14.1 33.8 14.1 C 33.8 14.1 33.8 14.1 33.8 14.1 C 33.8 14.1 33.8 14.1 33.8 14.1 C 33.7 14.1 33.7 14.2 33.7 14.3 C 33.7 14.5 33.7 14.6 33.7 14.6 C 33.7 14.6 33.7 14.7 33.7 14.7 C 33.8 14.7 33.9 14.6 34.1 14.6 C 34.3 14.6 34.4 14.6 34.5 14.6 C 34.6 14.5 34.7 14.5 34.7 14.5 C 34.9 14.5 34.9 14.6 34.9 14.7 C 34.9 14.7 34.9 14.8 34.9 14.8 C 34.8 14.8 34.7 14.9 34.5 14.9 C 34.4 14.9 34.2 14.9 34 14.9 C 33.8 15 33.7 15 33.5 15 C 33.4 15 33.4 15 33.3 14.9 C 33.3 14.9 33.3 14.8 33.3 14.8 C 33.3 14.8 33.3 14.7 33.3 14.7 C 33.3 14.7 33.3 14.7 33.3 14.6 C 33.3 14.5 33.4 14.3 33.4 13.8 C 33.5 13.4 33.5 13.2 33.5 13.1 C 33.5 13.1 33.5 13.1 33.5 13.1 C 33.5 13.1 33.5 13.1 33.5 13.1 C 33.5 13 33.5 13 33.5 13 C 33.5 13 33.5 13 33.5 12.9 C 33.5 12.9 33.5 12.9 33.5 12.9 C 33.6 12.9 33.6 12.8 33.6 12.8 C 33.7 12.8 33.7 12.9 33.8 12.9 C 33.9 12.9 34.1 12.8 34.6 12.8 C 34.7 12.7 34.8 12.7 34.8 12.7 C 34.8 12.7 34.8 12.7 34.8 12.7 C 35 12.7 35.1 12.8 35.1 12.9 C 35.1 12.9 35.1 13 35 13 C 35 13 35 13.1 34.9 13.1 Z M 36.9 14.4 C 36.8 14.4 36.8 14.4 36.8 14.4 C 36.8 14.4 36.7 14.5 36.6 14.7 C 36.6 14.8 36.5 14.9 36.5 14.9 C 36.4 14.9 36.4 14.9 36.4 14.9 C 36.3 14.9 36.3 14.9 36.2 14.9 C 36.2 14.8 36.2 14.8 36.2 14.8 C 36.2 14.7 36.3 14.5 36.5 14.1 C 36.7 13.9 36.8 13.7 36.9 13.5 C 37.1 13.1 37.3 12.9 37.3 12.8 C 37.4 12.8 37.4 12.7 37.5 12.7 C 37.5 12.7 37.6 12.7 37.6 12.8 C 37.7 12.8 37.7 12.8 37.7 12.9 C 37.7 12.9 37.7 13 37.7 13 C 37.8 13.5 38 13.9 38.1 14.1 C 38.2 14.4 38.3 14.5 38.4 14.6 C 38.4 14.7 38.5 14.7 38.5 14.7 C 38.5 14.8 38.5 14.8 38.5 14.8 C 38.5 14.9 38.5 14.9 38.4 14.9 C 38.4 15 38.4 15 38.3 15 C 38.2 15 38.1 15 38.1 14.9 C 38 14.8 37.9 14.7 37.9 14.5 C 37.8 14.4 37.8 14.3 37.8 14.3 C 37.8 14.3 37.8 14.3 37.7 14.3 C 37.7 14.3 37.6 14.3 37.4 14.3 C 37.2 14.3 37.1 14.4 37 14.4 C 36.9 14.4 36.9 14.4 36.9 14.4 C 36.9 14.4 36.9 14.4 36.9 14.4 Z M 37.5 14 C 37.6 14 37.6 14 37.6 14 C 37.6 13.9 37.5 13.7 37.4 13.3 C 37.4 13.3 37.4 13.3 37.4 13.3 C 37.4 13.3 37 14.1 37 14.1 C 37.1 14.1 37.1 14 37.2 14 C 37.2 14 37.3 14 37.5 14 C 37.5 14 37.5 14 37.5 14 Z M 40.3 13.4 C 40.3 13.5 40.3 13.6 40.3 13.6 C 40.3 13.7 40.3 13.7 40.3 13.9 C 40.2 14.1 40.2 14.2 40.2 14.3 C 40.2 14.4 40.2 14.5 40.2 14.7 C 40.2 14.8 40.2 14.8 40.2 14.9 C 40.1 14.9 40.1 14.9 40 14.9 C 40 14.9 39.9 14.9 39.9 14.8 C 39.9 14.8 39.8 14.7 39.8 14.5 C 39.8 14.4 39.9 14.2 39.9 13.9 C 39.9 13.9 40 13.3 40 13.3 C 40 13.2 40 13.1 40 13.1 C 40 12.9 40.1 12.9 40.1 12.9 C 40.1 12.8 40.1 12.8 40.2 12.8 C 40.2 12.8 40.2 12.7 40.3 12.7 C 40.3 12.7 40.4 12.8 40.4 12.8 C 40.4 12.9 40.4 12.9 40.4 13 C 40.4 13 40.3 13.4 40.3 13.4 Z M 42.6 13.9 C 42.5 14 42.5 14.1 42.5 14.2 C 42.5 14.2 42.5 14.2 42.5 14.2 C 42.5 14.2 42.5 14.3 42.4 14.5 C 42.4 14.6 42.4 14.7 42.4 14.8 C 42.4 14.9 42.4 15 42.4 15 C 42.4 15 42.4 15.1 42.4 15.1 C 42.3 15.1 42.3 15.2 42.3 15.2 C 42.3 15.2 42.2 15.2 42.2 15.2 C 42.2 15.2 42.1 15.2 42.1 15.1 C 42 15.1 42 15.1 42 15 C 42 15 42 14.9 42 14.8 C 42.1 14.7 42.1 14.6 42.1 14.5 C 41.8 14.7 41.5 14.9 41.2 14.9 C 41 14.9 40.9 14.8 40.8 14.7 C 40.7 14.6 40.6 14.5 40.6 14.3 C 40.6 14 40.7 13.8 40.9 13.5 C 40.9 13.5 40.9 13.5 40.9 13.5 C 41.1 13.2 41.3 13 41.5 12.9 C 41.8 12.7 42 12.6 42.3 12.6 C 42.4 12.6 42.5 12.7 42.6 12.7 C 42.6 12.7 42.7 12.8 42.7 12.9 C 42.7 12.9 42.6 13 42.6 13.1 C 42.5 13.1 42.5 13.2 42.4 13.2 C 42.4 13.2 42.4 13.2 42.4 13.2 C 42.4 13.1 42.3 13.1 42.3 13.1 C 42.3 13 42.3 13 42.3 13 C 42.2 13 42.2 13 42.2 13 C 42 13 41.8 13 41.6 13.2 C 41.5 13.3 41.3 13.5 41.2 13.7 C 41.1 13.9 41 14.1 41 14.3 C 41 14.5 41.1 14.6 41.3 14.6 C 41.3 14.6 41.4 14.5 41.6 14.5 C 41.7 14.5 41.8 14.4 41.9 14.3 C 42.1 14.2 42.1 14.1 42.2 14 C 42.2 14 42.2 13.9 42.2 13.8 C 42.2 13.7 42.3 13.7 42.3 13.7 C 42.3 13.7 42.4 13.6 42.4 13.6 C 42.6 13.6 42.6 13.7 42.6 13.8 C 42.6 13.8 42.6 13.9 42.6 13.9 C 42.6 13.9 42.6 13.9 42.6 13.9 Z M 43.8 15 C 43.7 15 43.6 14.9 43.4 14.9 C 43.3 14.8 43.2 14.7 43.1 14.5 C 43 14.4 43 14.2 43 14 C 43 13.9 43 13.8 43 13.7 C 43 13.7 43.1 13.4 43.1 13.4 C 43.1 13.3 43.1 13.3 43.1 13.3 C 43.1 13.2 43.1 13.1 43.1 13.1 C 43.1 13 43.2 12.9 43.2 12.8 C 43.2 12.8 43.3 12.7 43.4 12.7 C 43.4 12.7 43.4 12.8 43.5 12.8 C 43.5 12.9 43.5 12.9 43.5 13 C 43.5 13 43.5 13.1 43.5 13.3 C 43.4 13.3 43.4 13.4 43.4 13.6 C 43.4 13.8 43.4 14 43.4 14 C 43.4 14.3 43.4 14.4 43.5 14.5 C 43.6 14.6 43.7 14.7 43.8 14.7 C 44 14.7 44.2 14.6 44.3 14.5 C 44.4 14.4 44.5 14.2 44.5 14 C 44.5 13.9 44.5 13.9 44.5 13.8 C 44.5 13.7 44.5 13.7 44.5 13.6 C 44.6 13.2 44.6 13 44.6 12.9 C 44.7 12.8 44.7 12.8 44.8 12.8 C 44.9 12.8 45 12.9 45 13 C 45 13.1 45 13.2 44.9 13.4 C 44.9 13.5 44.9 13.7 44.9 13.8 C 44.9 14.1 44.8 14.3 44.8 14.4 C 44.7 14.6 44.6 14.7 44.4 14.8 C 44.2 14.9 44 15 43.8 15 Z M 45.7 14.4 C 45.6 14.4 45.6 14.4 45.6 14.4 C 45.6 14.4 45.5 14.5 45.4 14.7 C 45.3 14.8 45.3 14.9 45.3 14.9 C 45.2 14.9 45.2 14.9 45.2 14.9 C 45.1 14.9 45.1 14.9 45 14.9 C 45 14.8 45 14.8 45 14.8 C 45 14.7 45.1 14.5 45.3 14.1 C 45.5 13.9 45.6 13.7 45.7 13.5 C 45.9 13.1 46.1 12.9 46.1 12.8 C 46.2 12.8 46.2 12.7 46.3 12.7 C 46.3 12.7 46.4 12.7 46.4 12.8 C 46.5 12.8 46.5 12.8 46.5 12.9 C 46.5 12.9 46.5 13 46.5 13 C 46.6 13.5 46.8 13.9 46.9 14.1 C 47 14.4 47.1 14.5 47.2 14.6 C 47.2 14.7 47.3 14.7 47.3 14.7 C 47.3 14.8 47.3 14.8 47.3 14.8 C 47.3 14.9 47.3 14.9 47.2 14.9 C 47.2 15 47.1 15 47.1 15 C 47 15 46.9 15 46.9 14.9 C 46.8 14.8 46.7 14.7 46.6 14.5 C 46.6 14.4 46.5 14.3 46.5 14.3 C 46.5 14.3 46.5 14.3 46.5 14.3 C 46.5 14.3 46.4 14.3 46.2 14.3 C 46 14.3 45.9 14.4 45.7 14.4 C 45.7 14.4 45.7 14.4 45.7 14.4 C 45.7 14.4 45.7 14.4 45.7 14.4 Z M 46.3 14 C 46.3 14 46.4 14 46.4 14 C 46.4 13.9 46.3 13.7 46.2 13.3 C 46.2 13.3 46.2 13.3 46.2 13.3 C 46.2 13.3 45.8 14.1 45.8 14.1 C 45.8 14.1 45.9 14 46 14 C 46 14 46.1 14 46.3 14 C 46.3 14 46.3 14 46.3 14 Z M 48.9 14.8 C 48.9 14.8 48.8 14.8 48.8 14.8 C 48.7 14.8 48.7 14.8 48.6 14.8 C 48.4 14.8 48.1 14.8 47.9 14.9 C 47.7 14.9 47.7 15 47.6 15 C 47.6 15 47.5 14.9 47.5 14.9 C 47.5 14.8 47.4 14.8 47.4 14.8 C 47.4 14.7 47.5 14.7 47.5 14.6 C 47.5 14.5 47.5 14.4 47.5 14.3 C 47.5 14.3 47.7 13.1 47.7 13.1 C 47.7 13 47.7 12.9 47.7 12.9 C 47.7 12.8 47.7 12.8 47.7 12.8 C 47.8 12.8 47.8 12.7 47.9 12.7 C 47.9 12.7 48 12.8 48 12.8 C 48 12.8 48.1 12.9 48.1 12.9 C 48.1 12.9 48.1 13 48 13.1 C 48 13.2 48 13.5 47.9 13.9 C 47.9 14.3 47.9 14.5 47.9 14.5 C 47.9 14.5 47.9 14.6 47.9 14.6 C 47.9 14.6 48 14.5 48.2 14.5 C 48.3 14.5 48.3 14.5 48.4 14.5 C 48.6 14.5 48.8 14.5 48.9 14.4 C 48.9 14.4 48.9 14.4 49 14.4 C 49 14.4 49.1 14.4 49.1 14.5 C 49.1 14.5 49.1 14.5 49.1 14.6 C 49.1 14.7 49.1 14.7 49.1 14.7 C 49 14.8 48.9 14.8 48.9 14.8 Z M 49.4 14.6 C 49.4 14.6 49.4 14.5 49.4 14.4 C 49.4 14 49.4 13.7 49.5 13.3 C 49.5 13.2 49.5 13.2 49.5 13.1 C 49.5 13.1 49.5 13.1 49.5 13.1 C 49.4 13.1 49.4 13 49.4 13 C 49.4 12.9 49.4 12.9 49.4 12.8 C 49.5 12.8 49.5 12.8 49.6 12.8 C 49.6 12.8 49.8 12.8 49.8 12.8 C 49.8 12.8 50 12.8 50.1 12.8 C 50.3 12.7 50.4 12.7 50.5 12.7 C 50.7 12.7 50.9 12.8 51.1 13 C 51.3 13.1 51.4 13.3 51.4 13.6 C 51.4 13.9 51.2 14.1 51 14.3 C 50.7 14.6 50.4 14.7 50 14.8 C 49.9 14.8 49.9 14.8 49.8 14.9 C 49.8 14.9 49.7 14.9 49.7 14.9 C 49.6 15 49.6 15 49.5 15 C 49.4 15 49.4 15 49.4 14.9 C 49.3 14.9 49.3 14.8 49.3 14.8 C 49.3 14.8 49.3 14.8 49.3 14.7 C 49.3 14.7 49.4 14.6 49.4 14.6 Z M 49.7 14.5 C 49.7 14.5 49.7 14.5 49.7 14.6 C 49.8 14.6 49.9 14.5 50.2 14.5 C 50.4 14.4 50.6 14.3 50.8 14.1 C 50.9 13.9 51 13.8 51 13.6 C 51 13.4 51 13.3 50.8 13.2 C 50.7 13.1 50.6 13 50.4 13 C 50.3 13 50.1 13 49.9 13.1 C 49.9 13.1 49.9 13.1 49.9 13.1 C 49.8 13.7 49.7 14.2 49.7 14.5 C 49.7 14.5 49.7 14.5 49.7 14.5 Z M 52 14.4 C 51.9 14.4 51.9 14.4 51.9 14.4 C 51.9 14.4 51.8 14.5 51.7 14.7 C 51.6 14.8 51.6 14.9 51.5 14.9 C 51.5 14.9 51.5 14.9 51.5 14.9 C 51.4 14.9 51.4 14.9 51.3 14.9 C 51.3 14.8 51.3 14.8 51.3 14.8 C 51.3 14.7 51.4 14.5 51.6 14.1 C 51.8 13.9 51.9 13.7 52 13.5 C 52.2 13.1 52.3 12.9 52.4 12.8 C 52.4 12.8 52.5 12.7 52.5 12.7 C 52.6 12.7 52.7 12.7 52.7 12.8 C 52.7 12.8 52.8 12.8 52.8 12.9 C 52.8 12.9 52.7 13 52.7 13 C 52.9 13.5 53.1 13.9 53.2 14.1 C 53.3 14.4 53.4 14.5 53.5 14.6 C 53.5 14.7 53.5 14.7 53.6 14.7 C 53.6 14.8 53.6 14.8 53.6 14.8 C 53.6 14.9 53.6 14.9 53.5 14.9 C 53.5 15 53.4 15 53.4 15 C 53.3 15 53.2 15 53.2 14.9 C 53.1 14.8 53 14.7 52.9 14.5 C 52.9 14.4 52.8 14.3 52.8 14.3 C 52.8 14.3 52.8 14.3 52.8 14.3 C 52.8 14.3 52.7 14.3 52.5 14.3 C 52.3 14.3 52.1 14.4 52 14.4 C 52 14.4 52 14.4 52 14.4 C 52 14.4 52 14.4 52 14.4 Z M 52.6 14 C 52.6 14 52.7 14 52.7 14 C 52.7 13.9 52.6 13.7 52.5 13.3 C 52.5 13.3 52.5 13.3 52.5 13.3 C 52.5 13.3 52.1 14.1 52.1 14.1 C 52.1 14.1 52.2 14 52.3 14 C 52.3 14 52.4 14 52.6 14 C 52.6 14 52.6 14 52.6 14 Z M 53.8 14.6 C 53.8 14.6 53.8 14.5 53.9 14.4 C 53.9 14 53.9 13.7 54 13.3 C 54 13.2 54 13.2 54 13.1 C 54 13.1 54 13.1 54 13.1 C 53.9 13.1 53.8 13 53.8 13 C 53.8 12.9 53.8 12.9 53.9 12.8 C 53.9 12.8 54 12.8 54 12.8 C 54 12.8 54.2 12.8 54.2 12.8 C 54.3 12.8 54.4 12.8 54.6 12.8 C 54.7 12.7 54.8 12.7 54.9 12.7 C 55.2 12.7 55.4 12.8 55.6 13 C 55.7 13.1 55.8 13.3 55.8 13.6 C 55.8 13.9 55.7 14.1 55.4 14.3 C 55.2 14.6 54.9 14.7 54.5 14.8 C 54.4 14.8 54.3 14.8 54.3 14.9 C 54.3 14.9 54.2 14.9 54.2 14.9 C 54.1 15 54 15 54 15 C 53.9 15 53.9 15 53.8 14.9 C 53.8 14.9 53.8 14.8 53.8 14.8 C 53.8 14.8 53.8 14.8 53.8 14.7 C 53.8 14.7 53.8 14.6 53.8 14.6 Z M 54.2 14.5 C 54.2 14.5 54.2 14.5 54.2 14.6 C 54.3 14.6 54.4 14.5 54.7 14.5 C 54.9 14.4 55.1 14.3 55.2 14.1 C 55.4 13.9 55.5 13.8 55.5 13.6 C 55.5 13.4 55.4 13.3 55.3 13.2 C 55.2 13.1 55 13 54.9 13 C 54.7 13 54.6 13 54.4 13.1 C 54.4 13.1 54.4 13.1 54.4 13.1 C 54.3 13.7 54.2 14.2 54.2 14.5 C 54.2 14.5 54.2 14.5 54.2 14.5 Z M 57.7 13.1 C 57.7 13.1 57.3 13.1 57.3 13.1 C 57.1 13.1 57 13.1 56.9 13.1 C 56.8 13.1 56.7 13.2 56.7 13.2 C 56.7 13.2 56.7 13.2 56.7 13.3 C 56.7 13.3 56.7 13.4 56.6 13.5 C 56.6 13.6 56.6 13.7 56.6 13.7 C 56.6 13.7 56.7 13.7 56.8 13.7 C 57 13.7 57 13.7 57.1 13.7 C 57.2 13.7 57.3 13.6 57.4 13.6 C 57.6 13.6 57.7 13.7 57.7 13.8 C 57.7 13.8 57.6 13.9 57.6 13.9 C 57.5 13.9 57.5 14 57.4 14 C 57.3 14 57.3 14 57.2 14 C 57.2 14 57.1 14 57.1 14 C 56.8 14 56.6 14.1 56.6 14.1 C 56.6 14.1 56.6 14.1 56.6 14.1 C 56.6 14.1 56.6 14.1 56.5 14.1 C 56.5 14.1 56.5 14.2 56.5 14.3 C 56.5 14.5 56.5 14.6 56.5 14.6 C 56.5 14.6 56.5 14.7 56.5 14.7 C 56.6 14.7 56.7 14.6 56.9 14.6 C 57.1 14.6 57.2 14.6 57.3 14.6 C 57.4 14.5 57.5 14.5 57.5 14.5 C 57.7 14.5 57.7 14.6 57.7 14.7 C 57.7 14.7 57.7 14.8 57.7 14.8 C 57.6 14.8 57.4 14.9 57.3 14.9 C 57.1 14.9 57 14.9 56.8 14.9 C 56.6 15 56.5 15 56.3 15 C 56.2 15 56.2 15 56.1 14.9 C 56.1 14.9 56.1 14.8 56.1 14.8 C 56.1 14.8 56.1 14.7 56.1 14.7 C 56.1 14.7 56.1 14.7 56.1 14.6 C 56.1 14.5 56.2 14.3 56.2 13.8 C 56.3 13.4 56.3 13.2 56.3 13.1 C 56.3 13.1 56.3 13.1 56.3 13.1 C 56.3 13.1 56.3 13.1 56.3 13.1 C 56.3 13 56.3 13 56.3 13 C 56.3 13 56.3 13 56.3 12.9 C 56.3 12.9 56.3 12.9 56.3 12.9 C 56.4 12.9 56.4 12.8 56.4 12.8 C 56.5 12.8 56.5 12.9 56.6 12.9 C 56.6 12.9 56.9 12.8 57.4 12.8 C 57.5 12.7 57.6 12.7 57.6 12.7 C 57.6 12.7 57.6 12.7 57.6 12.7 C 57.8 12.7 57.9 12.8 57.9 12.9 C 57.9 12.9 57.9 13 57.8 13 C 57.8 13 57.8 13.1 57.7 13.1 Z M 59.3 14.6 C 59.3 14.6 59.3 14.5 59.3 14.4 C 59.3 14 59.4 13.7 59.4 13.3 C 59.4 13.2 59.4 13.2 59.4 13.1 C 59.4 13.1 59.4 13.1 59.4 13.1 C 59.3 13.1 59.3 13 59.3 13 C 59.3 12.9 59.3 12.9 59.3 12.8 C 59.4 12.8 59.4 12.8 59.5 12.8 C 59.5 12.8 59.7 12.8 59.7 12.8 C 59.8 12.8 59.9 12.8 60 12.8 C 60.2 12.7 60.3 12.7 60.4 12.7 C 60.6 12.7 60.9 12.8 61 13 C 61.2 13.1 61.3 13.3 61.3 13.6 C 61.3 13.9 61.1 14.1 60.9 14.3 C 60.6 14.6 60.3 14.7 59.9 14.8 C 59.8 14.8 59.8 14.8 59.7 14.9 C 59.7 14.9 59.6 14.9 59.6 14.9 C 59.5 15 59.5 15 59.4 15 C 59.3 15 59.3 15 59.3 14.9 C 59.2 14.9 59.2 14.8 59.2 14.8 C 59.2 14.8 59.2 14.8 59.2 14.7 C 59.2 14.7 59.3 14.6 59.3 14.6 Z M 59.6 14.5 C 59.6 14.5 59.6 14.5 59.7 14.6 C 59.7 14.6 59.9 14.5 60.1 14.5 C 60.3 14.4 60.5 14.3 60.7 14.1 C 60.8 13.9 60.9 13.8 60.9 13.6 C 60.9 13.4 60.9 13.3 60.8 13.2 C 60.6 13.1 60.5 13 60.3 13 C 60.2 13 60 13 59.9 13.1 C 59.8 13.1 59.8 13.1 59.8 13.1 C 59.7 13.7 59.6 14.2 59.6 14.5 C 59.6 14.5 59.6 14.5 59.6 14.5 Z M 63.2 13.1 C 63.2 13.1 62.7 13.1 62.7 13.1 C 62.6 13.1 62.4 13.1 62.3 13.1 C 62.2 13.1 62.1 13.2 62.1 13.2 C 62.1 13.2 62.1 13.2 62.1 13.3 C 62.1 13.3 62.1 13.4 62.1 13.5 C 62 13.6 62 13.7 62 13.7 C 62.1 13.7 62.2 13.7 62.3 13.7 C 62.4 13.7 62.5 13.7 62.5 13.7 C 62.7 13.7 62.8 13.6 62.9 13.6 C 63 13.6 63.1 13.7 63.1 13.8 C 63.1 13.8 63.1 13.9 63 13.9 C 63 13.9 62.9 14 62.8 14 C 62.8 14 62.7 14 62.6 14 C 62.6 14 62.6 14 62.5 14 C 62.2 14 62.1 14.1 62 14.1 C 62 14.1 62 14.1 62 14.1 C 62 14.1 62 14.1 62 14.1 C 62 14.1 62 14.2 61.9 14.3 C 61.9 14.5 61.9 14.6 61.9 14.6 C 61.9 14.6 61.9 14.7 62 14.7 C 62 14.7 62.1 14.6 62.3 14.6 C 62.5 14.6 62.7 14.6 62.7 14.6 C 62.9 14.5 62.9 14.5 63 14.5 C 63.1 14.5 63.2 14.6 63.2 14.7 C 63.2 14.7 63.2 14.8 63.1 14.8 C 63 14.8 62.9 14.9 62.7 14.9 C 62.6 14.9 62.4 14.9 62.2 14.9 C 62.1 15 61.9 15 61.7 15 C 61.7 15 61.6 15 61.6 14.9 C 61.5 14.9 61.5 14.8 61.5 14.8 C 61.5 14.8 61.5 14.7 61.5 14.7 C 61.5 14.7 61.5 14.7 61.5 14.6 C 61.6 14.5 61.6 14.3 61.7 13.8 C 61.7 13.4 61.8 13.2 61.8 13.1 C 61.8 13.1 61.8 13.1 61.8 13.1 C 61.7 13.1 61.7 13.1 61.7 13.1 C 61.7 13 61.7 13 61.7 13 C 61.7 13 61.7 13 61.7 12.9 C 61.7 12.9 61.7 12.9 61.8 12.9 C 61.8 12.9 61.8 12.8 61.9 12.8 C 61.9 12.8 62 12.9 62 12.9 C 62.1 12.9 62.4 12.8 62.8 12.8 C 63 12.7 63 12.7 63 12.7 C 63 12.7 63.1 12.7 63.1 12.7 C 63.2 12.7 63.3 12.8 63.3 12.9 C 63.3 12.9 63.3 13 63.3 13 C 63.2 13 63.2 13.1 63.2 13.1 Z " stroke="none" fill="#000"/>  </g>  <g id="Polygon15275">    <path d="M 4.9 9.2 C 4.8 9.2 4.7 9.2 4.7 9.2 C 4.7 9.4 4.6 9.6 4.6 9.8 C 4.6 9.8 4.6 9.9 4.6 9.9 C 4.6 9.9 4.5 10 4.5 10 C 4.3 10 4.3 9.9 4.3 9.8 C 4.3 9.7 4.3 9.4 4.4 9 C 4.4 8.6 4.4 8.4 4.4 8.3 C 4.4 8.2 4.4 8.2 4.4 8.2 C 4.4 8.2 4.3 8.1 4.3 8 C 4.3 7.9 4.5 7.9 4.7 7.8 C 5 7.7 5.2 7.7 5.4 7.7 C 5.6 7.7 5.8 7.8 5.9 7.8 C 6.1 7.9 6.1 8.1 6.1 8.2 C 6.1 8.4 6 8.6 5.8 8.8 C 5.5 9 5.2 9.1 4.9 9.2 C 4.9 9.2 4.9 9.2 4.9 9.2 Z M 5.4 8 C 5.2 8 5 8 4.8 8.1 C 4.8 8.1 4.7 8.9 4.7 8.9 C 5 8.8 5.3 8.8 5.5 8.6 C 5.7 8.5 5.8 8.4 5.8 8.2 C 5.8 8.1 5.7 8 5.4 8 C 5.4 8 5.4 8 5.4 8 Z M 6.6 9.4 C 6.6 9.4 6.6 9.4 6.6 9.4 C 6.5 9.4 6.5 9.5 6.4 9.7 C 6.3 9.8 6.3 9.9 6.2 9.9 C 6.2 9.9 6.2 9.9 6.1 9.9 C 6.1 9.9 6.1 9.9 6 9.9 C 6 9.8 5.9 9.8 5.9 9.8 C 5.9 9.7 6.1 9.5 6.3 9.1 C 6.4 8.9 6.6 8.7 6.7 8.5 C 6.9 8.1 7 7.9 7.1 7.8 C 7.1 7.8 7.2 7.7 7.2 7.7 C 7.3 7.7 7.4 7.7 7.4 7.8 C 7.4 7.8 7.4 7.8 7.4 7.9 C 7.4 7.9 7.4 8 7.4 8 C 7.6 8.5 7.7 8.9 7.8 9.1 C 7.9 9.4 8 9.5 8.1 9.6 C 8.2 9.7 8.2 9.7 8.2 9.7 C 8.3 9.8 8.3 9.8 8.3 9.8 C 8.3 9.9 8.2 9.9 8.2 9.9 C 8.2 10 8.1 10 8.1 10 C 8 10 7.9 10 7.8 9.9 C 7.8 9.8 7.7 9.7 7.6 9.5 C 7.5 9.4 7.5 9.3 7.5 9.3 C 7.5 9.3 7.5 9.3 7.5 9.3 C 7.5 9.3 7.3 9.3 7.2 9.3 C 7 9.3 6.8 9.4 6.7 9.4 C 6.7 9.4 6.7 9.4 6.6 9.4 C 6.6 9.4 6.6 9.4 6.6 9.4 Z M 7.3 9 C 7.3 9 7.4 9 7.4 9 C 7.4 8.9 7.3 8.7 7.2 8.3 C 7.2 8.3 7.2 8.3 7.2 8.3 C 7.2 8.3 6.8 9.1 6.8 9.1 C 6.8 9.1 6.9 9 6.9 9 C 7 9 7.1 9 7.3 9 C 7.3 9 7.3 9 7.3 9 Z M 8.6 8.1 C 8.6 8.1 8.62 8.08 8.6 8.1 C 8.6 8 8.6 8 8.6 8 C 8.6 7.9 8.6 7.9 8.6 7.8 C 8.7 7.8 8.7 7.8 8.8 7.8 C 8.8 7.8 8.8 7.8 8.8 7.8 C 8.9 7.8 8.9 7.8 8.9 7.8 C 9.2 7.8 9.4 7.7 9.5 7.7 C 9.7 7.7 9.9 7.8 10 7.9 C 10.1 8 10.2 8.1 10.2 8.3 C 10.2 8.4 10.1 8.6 10 8.7 C 9.9 8.8 9.7 8.9 9.5 9 C 9.9 9.3 10.1 9.5 10.3 9.6 C 10.4 9.6 10.4 9.7 10.4 9.7 C 10.4 9.8 10.4 9.8 10.3 9.8 C 10.3 9.9 10.2 9.9 10.2 9.9 C 10.2 9.9 10.1 9.9 10 9.8 C 9.9 9.8 9.8 9.7 9.7 9.6 C 9.6 9.5 9.5 9.4 9.5 9.4 C 9.3 9.3 9.2 9.2 9.1 9.1 C 9 9.1 8.9 9.1 8.9 9 C 8.9 8.9 8.9 8.9 9 8.8 C 9 8.8 9.1 8.8 9.1 8.8 C 9.2 8.8 9.2 8.8 9.2 8.8 C 9.2 8.8 9.2 8.8 9.2 8.8 C 9.3 8.8 9.4 8.7 9.6 8.6 C 9.8 8.5 9.8 8.4 9.8 8.3 C 9.8 8.2 9.8 8.1 9.7 8.1 C 9.7 8 9.6 8 9.5 8 C 9.3 8 9.2 8 9.2 8 C 9.1 8.1 9 8.1 9 8.1 C 9 8.1 9 8.1 9 8.1 C 9 8.2 9 8.3 8.9 8.4 C 8.9 8.6 8.9 8.8 8.8 9 C 8.8 9.2 8.8 9.4 8.8 9.5 C 8.8 9.5 8.8 9.6 8.8 9.6 C 8.8 9.7 8.8 9.7 8.8 9.8 C 8.8 9.8 8.8 9.8 8.8 9.9 C 8.7 9.9 8.7 9.9 8.6 9.9 C 8.5 9.9 8.4 9.9 8.4 9.7 C 8.4 9.5 8.4 9.3 8.5 9 C 8.5 8.8 8.6 8.5 8.6 8.3 C 8.6 8.3 8.6 8.2 8.6 8.2 C 8.61 8.21 8.6 8.1 8.6 8.1 Z M 11 9.4 C 11 9.4 11 9.4 10.9 9.4 C 10.9 9.4 10.9 9.5 10.8 9.7 C 10.7 9.8 10.6 9.9 10.6 9.9 C 10.6 9.9 10.5 9.9 10.5 9.9 C 10.5 9.9 10.4 9.9 10.4 9.9 C 10.3 9.8 10.3 9.8 10.3 9.8 C 10.3 9.7 10.4 9.5 10.7 9.1 C 10.8 8.9 10.9 8.7 11.1 8.5 C 11.3 8.1 11.4 7.9 11.5 7.8 C 11.5 7.8 11.6 7.7 11.6 7.7 C 11.7 7.7 11.8 7.7 11.8 7.8 C 11.8 7.8 11.8 7.8 11.8 7.9 C 11.8 7.9 11.8 8 11.8 8 C 12 8.5 12.1 8.9 12.2 9.1 C 12.3 9.4 12.4 9.5 12.5 9.6 C 12.6 9.7 12.6 9.7 12.6 9.7 C 12.6 9.8 12.6 9.8 12.6 9.8 C 12.6 9.9 12.6 9.9 12.6 9.9 C 12.5 10 12.5 10 12.4 10 C 12.4 10 12.3 10 12.2 9.9 C 12.1 9.8 12.1 9.7 12 9.5 C 11.9 9.4 11.9 9.3 11.9 9.3 C 11.9 9.3 11.9 9.3 11.9 9.3 C 11.8 9.3 11.7 9.3 11.5 9.3 C 11.4 9.3 11.2 9.4 11.1 9.4 C 11.1 9.4 11 9.4 11 9.4 C 11 9.4 11 9.4 11 9.4 Z M 11.7 9 C 11.7 9 11.7 9 11.8 9 C 11.8 8.9 11.7 8.7 11.6 8.3 C 11.6 8.3 11.6 8.3 11.6 8.3 C 11.6 8.3 11.1 9.1 11.1 9.1 C 11.2 9.1 11.3 9 11.3 9 C 11.4 9 11.5 9 11.7 9 C 11.7 9 11.7 9 11.7 9 Z M 14.6 9.2 C 14.5 9.2 14.4 9.2 14.4 9.2 C 14.4 9.4 14.4 9.6 14.4 9.8 C 14.4 9.8 14.4 9.9 14.3 9.9 C 14.3 9.9 14.3 10 14.2 10 C 14.1 10 14 9.9 14 9.8 C 14 9.7 14.1 9.4 14.1 9 C 14.2 8.6 14.2 8.4 14.2 8.3 C 14.2 8.2 14.2 8.2 14.2 8.2 C 14.1 8.2 14.1 8.1 14.1 8 C 14.1 7.9 14.2 7.9 14.5 7.8 C 14.7 7.7 15 7.7 15.2 7.7 C 15.4 7.7 15.5 7.8 15.7 7.8 C 15.8 7.9 15.9 8.1 15.9 8.2 C 15.9 8.4 15.8 8.6 15.5 8.8 C 15.3 9 15 9.1 14.6 9.2 C 14.6 9.2 14.6 9.2 14.6 9.2 Z M 15.1 8 C 15 8 14.8 8 14.6 8.1 C 14.6 8.1 14.5 8.9 14.5 8.9 C 14.8 8.8 15 8.8 15.2 8.6 C 15.4 8.5 15.5 8.4 15.5 8.2 C 15.5 8.1 15.4 8 15.1 8 C 15.1 8 15.1 8 15.1 8 Z M 16.6 10 C 16.4 10 16.3 9.9 16.1 9.7 C 16 9.6 16 9.4 16 9.2 C 16 9 16 8.8 16.1 8.6 C 16.3 8.3 16.4 8.1 16.6 8 C 16.8 7.8 17 7.7 17.2 7.7 C 17.4 7.7 17.5 7.8 17.6 7.8 C 17.7 7.8 17.8 7.9 17.9 8 C 18 8 18.1 8.1 18.1 8.2 C 18.1 8.3 18.1 8.4 18.1 8.5 C 18.1 8.7 18.1 8.8 18 9 C 17.9 9.2 17.8 9.3 17.7 9.5 C 17.5 9.6 17.4 9.8 17.2 9.8 C 17 9.9 16.8 10 16.6 10 Z M 16.3 9.2 C 16.3 9.4 16.4 9.5 16.4 9.5 C 16.5 9.6 16.6 9.7 16.7 9.7 C 16.9 9.7 17.2 9.5 17.4 9.3 C 17.6 9 17.8 8.8 17.8 8.5 C 17.8 8.4 17.7 8.3 17.7 8.2 C 17.7 8.2 17.6 8.1 17.5 8.1 C 17.4 8 17.3 8 17.2 8 C 17 8 16.8 8.2 16.6 8.4 C 16.4 8.7 16.3 9 16.3 9.2 Z M 19.2 10 C 19.1 10 19 9.9 18.8 9.9 C 18.7 9.8 18.6 9.7 18.5 9.5 C 18.4 9.4 18.4 9.2 18.4 9 C 18.4 8.9 18.4 8.8 18.4 8.7 C 18.4 8.7 18.5 8.4 18.5 8.4 C 18.5 8.3 18.5 8.3 18.5 8.3 C 18.5 8.2 18.5 8.1 18.5 8.1 C 18.5 8 18.6 7.9 18.6 7.8 C 18.6 7.8 18.7 7.7 18.8 7.7 C 18.8 7.7 18.8 7.8 18.9 7.8 C 18.9 7.9 18.9 7.9 18.9 8 C 18.9 8 18.9 8.1 18.9 8.3 C 18.8 8.3 18.8 8.4 18.8 8.6 C 18.8 8.8 18.8 9 18.8 9 C 18.8 9.3 18.8 9.4 18.9 9.5 C 19 9.6 19.1 9.7 19.2 9.7 C 19.4 9.7 19.6 9.6 19.7 9.5 C 19.8 9.4 19.9 9.2 19.9 9 C 19.9 8.9 19.9 8.9 19.9 8.8 C 19.9 8.7 19.9 8.7 19.9 8.6 C 20 8.2 20 8 20 7.9 C 20.1 7.8 20.1 7.8 20.2 7.8 C 20.3 7.8 20.4 7.9 20.4 8 C 20.4 8.1 20.4 8.2 20.3 8.4 C 20.3 8.5 20.3 8.7 20.3 8.8 C 20.3 9.1 20.2 9.3 20.2 9.4 C 20.1 9.6 20 9.7 19.8 9.8 C 19.6 9.9 19.4 10 19.2 10 Z M 21.9 9.5 C 22 9.4 22.1 9.4 22.1 9.4 C 22.2 9.4 22.2 9.4 22.2 9.5 C 22.2 9.6 22.1 9.7 21.9 9.8 C 21.7 9.9 21.5 10 21.3 10 C 21.1 10 20.9 9.9 20.8 9.8 C 20.6 9.7 20.6 9.5 20.6 9.3 C 20.6 9.1 20.6 8.8 20.8 8.6 C 20.9 8.3 21.1 8.1 21.4 7.9 C 21.6 7.7 21.8 7.6 22 7.6 C 22.2 7.6 22.3 7.7 22.4 7.7 C 22.4 7.8 22.5 7.9 22.5 8 C 22.5 8.1 22.5 8.2 22.5 8.3 C 22.4 8.3 22.4 8.4 22.3 8.4 C 22.3 8.4 22.2 8.4 22.2 8.4 C 22.2 8.4 22.1 8.4 22.1 8.4 C 22.1 8.4 22.1 8.3 22.1 8.3 C 22.1 8.3 22.1 8.2 22.1 8.2 C 22.1 8.1 22.1 8.1 22.1 8 C 22.1 7.9 22.1 7.9 22 7.9 C 21.9 7.9 21.7 8 21.6 8.1 C 21.4 8.3 21.2 8.5 21.1 8.7 C 21 8.9 20.9 9.1 20.9 9.3 C 20.9 9.4 21 9.5 21 9.6 C 21.1 9.7 21.2 9.7 21.3 9.7 C 21.4 9.7 21.5 9.7 21.6 9.6 C 21.7 9.6 21.8 9.5 21.9 9.5 C 21.9 9.5 21.9 9.5 21.9 9.5 Z M 23.2 10 C 23.1 10 22.9 9.9 22.8 9.7 C 22.7 9.6 22.6 9.4 22.6 9.2 C 22.6 9 22.7 8.8 22.8 8.6 C 22.9 8.3 23.1 8.1 23.2 8 C 23.4 7.8 23.6 7.7 23.9 7.7 C 24 7.7 24.1 7.8 24.3 7.8 C 24.4 7.8 24.5 7.9 24.5 8 C 24.6 8 24.7 8.1 24.7 8.2 C 24.8 8.3 24.8 8.4 24.8 8.5 C 24.8 8.7 24.7 8.8 24.7 9 C 24.6 9.2 24.5 9.3 24.3 9.5 C 24.2 9.6 24 9.8 23.8 9.8 C 23.7 9.9 23.5 10 23.2 10 Z M 23 9.2 C 23 9.4 23 9.5 23.1 9.5 C 23.1 9.6 23.2 9.7 23.3 9.7 C 23.6 9.7 23.8 9.5 24.1 9.3 C 24.3 9 24.4 8.8 24.4 8.5 C 24.4 8.4 24.4 8.3 24.3 8.2 C 24.3 8.2 24.2 8.1 24.1 8.1 C 24.1 8 24 8 23.9 8 C 23.7 8 23.5 8.2 23.3 8.4 C 23.1 8.7 23 9 23 9.2 Z M 26.6 8 C 26.6 8.2 26.5 8.3 26.3 8.3 C 26.3 8.2 26.3 8.1 26.3 8.1 C 26.2 8.1 26.1 8 26 8 C 25.9 8 25.7 8.1 25.6 8.2 C 25.4 8.2 25.4 8.3 25.4 8.4 C 25.4 8.5 25.4 8.5 25.5 8.6 C 25.5 8.6 25.6 8.7 25.9 8.7 C 26.1 8.8 26.3 8.9 26.4 9 C 26.5 9.1 26.6 9.1 26.6 9.3 C 26.6 9.4 26.4 9.6 26.1 9.8 C 25.8 9.9 25.5 10 25.2 10 C 25.1 10 25 10 25 10 C 24.9 9.9 24.9 9.9 24.9 9.8 C 24.9 9.7 24.9 9.7 24.9 9.7 C 25 9.6 25 9.6 25 9.6 C 25.1 9.6 25.1 9.6 25.1 9.6 C 25.2 9.7 25.3 9.7 25.4 9.7 C 25.5 9.7 25.7 9.6 25.9 9.5 C 26.1 9.5 26.2 9.4 26.2 9.3 C 26.2 9.3 26.2 9.2 26.1 9.2 C 26.1 9.2 26 9.1 25.8 9.1 C 25.6 9 25.5 8.9 25.3 8.9 C 25.2 8.9 25.2 8.8 25.1 8.7 C 25 8.7 25 8.6 25 8.5 C 25 8.3 25.1 8.1 25.3 8 C 25.6 7.8 25.8 7.7 26.1 7.7 C 26.3 7.7 26.4 7.8 26.5 7.8 C 26.6 7.9 26.6 8 26.6 8 C 26.6 8 26.6 8 26.6 8 Z M 26.8 10.1 C 26.8 10.1 26.8 10.1 26.8 10.1 C 26.9 10.1 26.9 10 27 10 C 27.1 10 27.2 9.9 27.2 9.8 C 27.2 9.8 27.2 9.7 27.2 9.7 C 27.2 9.7 27.2 9.6 27.2 9.6 C 27.2 9.5 27.2 9.5 27.2 9.5 C 27.2 9.5 27.2 9.4 27.2 9.4 C 27.2 9.4 27.3 9.4 27.3 9.4 C 27.3 9.4 27.4 9.4 27.4 9.4 C 27.5 9.4 27.5 9.4 27.5 9.4 C 27.5 9.5 27.5 9.5 27.5 9.6 C 27.6 9.6 27.6 9.7 27.6 9.7 C 27.6 9.7 27.5 9.8 27.5 9.9 C 27.5 10 27.4 10 27.3 10.1 C 27.3 10.1 27.2 10.2 27.2 10.2 C 27.1 10.2 27.1 10.2 27.1 10.2 C 27 10.2 26.9 10.2 26.9 10.2 C 26.8 10.2 26.8 10.2 26.8 10.1 C 26.8 10.1 26.8 10.1 26.8 10.1 Z M 30.6 8.1 C 30.6 8.1 30.2 8.1 30.2 8.1 C 30 8.1 29.9 8.1 29.8 8.1 C 29.6 8.1 29.6 8.2 29.6 8.2 C 29.6 8.2 29.6 8.2 29.6 8.3 C 29.5 8.3 29.5 8.4 29.5 8.5 C 29.5 8.6 29.5 8.7 29.5 8.7 C 29.5 8.7 29.6 8.7 29.7 8.7 C 29.8 8.7 29.9 8.7 30 8.7 C 30.1 8.7 30.2 8.6 30.3 8.6 C 30.5 8.6 30.5 8.7 30.5 8.8 C 30.5 8.8 30.5 8.9 30.5 8.9 C 30.4 8.9 30.4 9 30.3 9 C 30.2 9 30.1 9 30.1 9 C 30 9 30 9 29.9 9 C 29.7 9 29.5 9.1 29.5 9.1 C 29.5 9.1 29.5 9.1 29.5 9.1 C 29.4 9.1 29.4 9.1 29.4 9.1 C 29.4 9.1 29.4 9.2 29.4 9.3 C 29.4 9.5 29.3 9.6 29.3 9.6 C 29.3 9.6 29.4 9.7 29.4 9.7 C 29.5 9.7 29.6 9.6 29.8 9.6 C 30 9.6 30.1 9.6 30.1 9.6 C 30.3 9.5 30.4 9.5 30.4 9.5 C 30.5 9.5 30.6 9.6 30.6 9.7 C 30.6 9.7 30.6 9.8 30.6 9.8 C 30.5 9.8 30.3 9.9 30.1 9.9 C 30 9.9 29.9 9.9 29.7 9.9 C 29.5 10 29.3 10 29.2 10 C 29.1 10 29 10 29 9.9 C 29 9.9 29 9.8 28.9 9.8 C 28.9 9.8 28.9 9.7 28.9 9.7 C 28.9 9.7 28.9 9.7 29 9.6 C 29 9.5 29.1 9.3 29.1 8.8 C 29.2 8.4 29.2 8.2 29.2 8.1 C 29.2 8.1 29.2 8.1 29.2 8.1 C 29.2 8.1 29.2 8.1 29.2 8.1 C 29.1 8 29.1 8 29.1 8 C 29.1 8 29.1 8 29.1 7.9 C 29.1 7.9 29.2 7.9 29.2 7.9 C 29.2 7.9 29.3 7.8 29.3 7.8 C 29.3 7.8 29.4 7.9 29.4 7.9 C 29.5 7.9 29.8 7.8 30.2 7.8 C 30.4 7.7 30.5 7.7 30.5 7.7 C 30.5 7.7 30.5 7.7 30.5 7.7 C 30.7 7.7 30.8 7.8 30.8 7.9 C 30.8 7.9 30.7 8 30.7 8 C 30.7 8 30.6 8.1 30.6 8.1 Z M 31 9.4 C 31 9.4 31.09 8.9 31.1 8.9 C 31.2 8.5 31.2 8.2 31.2 8.1 C 31.2 8 31.2 8 31.2 7.9 C 31.2 7.9 31.3 7.9 31.3 7.9 C 31.3 7.8 31.4 7.8 31.4 7.8 C 31.5 7.8 31.5 7.8 31.5 7.8 C 31.6 7.9 31.6 7.9 31.6 8 C 31.7 8.2 31.8 8.4 31.9 8.7 C 32.1 9 32.3 9.2 32.4 9.4 C 32.4 9.2 32.5 9 32.5 8.7 C 32.6 8.5 32.6 8.4 32.6 8.2 C 32.6 8.1 32.7 8 32.7 7.9 C 32.7 7.8 32.7 7.8 32.7 7.7 C 32.8 7.7 32.8 7.7 32.9 7.7 C 32.9 7.7 33 7.7 33 7.8 C 33 7.8 33 7.9 33 7.9 C 33 8 33 8.1 33 8.2 C 32.9 8.4 32.9 8.7 32.8 9 C 32.7 9.4 32.7 9.6 32.7 9.6 C 32.7 9.6 32.7 9.7 32.7 9.7 C 32.7 9.7 32.7 9.8 32.7 9.8 C 32.7 9.8 32.7 9.9 32.6 9.9 C 32.6 9.9 32.5 9.9 32.5 9.9 C 32.4 9.9 32.4 9.9 32.4 9.9 C 32.4 9.9 32.4 9.9 32.3 9.8 C 32.3 9.8 32.3 9.8 32.2 9.7 C 32.2 9.6 32.2 9.6 32.1 9.5 C 31.9 9.3 31.7 8.9 31.5 8.5 C 31.4 8.6 31.4 8.9 31.3 9.4 C 31.3 9.4 31.3 9.5 31.3 9.5 C 31.3 9.5 31.3 9.6 31.3 9.7 C 31.3 9.8 31.3 9.9 31.2 9.9 C 31.2 10 31.1 10 31.1 10 C 31 10 31 10 31 9.9 C 30.9 9.9 30.9 9.8 30.9 9.7 C 30.9 9.7 30.9 9.5 31 9.4 C 30.98 9.4 31 9.4 31 9.4 Z M 34.9 8 C 35.1 8.1 35.2 8.2 35.2 8.3 C 35.3 8.5 35.3 8.6 35.3 8.8 C 35.3 8.9 35.3 9.1 35.2 9.2 C 35.1 9.4 35 9.5 34.8 9.7 C 35 9.9 35.1 10 35.1 10.1 C 35.2 10.1 35.2 10.2 35.2 10.2 C 35.2 10.2 35.1 10.2 35.1 10.3 C 35 10.3 35 10.4 35 10.4 C 34.9 10.4 34.9 10.3 34.8 10.3 C 34.8 10.2 34.7 10.1 34.6 10 C 34.5 9.9 34.5 9.8 34.5 9.8 C 34.5 9.8 34.5 9.8 34.4 9.8 C 34.3 9.9 34.1 9.9 34 9.9 C 33.8 9.9 33.6 9.8 33.4 9.7 C 33.3 9.6 33.2 9.5 33.2 9.3 C 33.2 9 33.3 8.8 33.5 8.6 C 33.6 8.3 33.8 8.1 34 7.9 C 34.3 7.8 34.5 7.7 34.7 7.7 C 34.7 7.7 34.8 7.7 34.9 7.8 C 34.9 7.8 34.9 7.9 34.9 8 Z M 34 9.6 C 34.1 9.6 34.2 9.6 34.3 9.6 C 34.2 9.5 34.2 9.5 34.2 9.5 C 34.1 9.4 34.1 9.3 34.1 9.3 C 34.1 9.3 34.1 9.3 34.2 9.2 C 34.2 9.2 34.3 9.1 34.4 9.1 C 34.4 9.1 34.5 9.2 34.5 9.2 C 34.5 9.3 34.5 9.3 34.5 9.4 C 34.6 9.4 34.6 9.4 34.6 9.4 C 34.7 9.4 34.8 9.4 34.9 9.2 C 35 9.1 35 8.9 35 8.8 C 35 8.6 34.9 8.4 34.8 8.3 C 34.7 8.1 34.6 8 34.5 8 C 34.4 8 34.3 8.1 34.1 8.2 C 34 8.4 33.8 8.5 33.7 8.7 C 33.6 8.9 33.6 9.1 33.6 9.2 C 33.6 9.4 33.6 9.4 33.7 9.5 C 33.8 9.6 33.9 9.6 34 9.6 C 34 9.6 34 9.6 34 9.6 Z M 36.5 10 C 36.4 10 36.3 9.9 36.1 9.9 C 36 9.8 35.9 9.7 35.8 9.5 C 35.7 9.4 35.7 9.2 35.7 9 C 35.7 8.9 35.7 8.8 35.7 8.7 C 35.7 8.7 35.8 8.4 35.8 8.4 C 35.8 8.3 35.8 8.3 35.8 8.3 C 35.8 8.2 35.8 8.1 35.8 8.1 C 35.8 8 35.9 7.9 35.9 7.8 C 35.9 7.8 36 7.7 36.1 7.7 C 36.1 7.7 36.1 7.8 36.2 7.8 C 36.2 7.9 36.2 7.9 36.2 8 C 36.2 8 36.2 8.1 36.1 8.3 C 36.1 8.3 36.1 8.4 36.1 8.6 C 36.1 8.8 36 9 36 9 C 36 9.3 36.1 9.4 36.2 9.5 C 36.3 9.6 36.4 9.7 36.5 9.7 C 36.7 9.7 36.9 9.6 37 9.5 C 37.1 9.4 37.2 9.2 37.2 9 C 37.2 8.9 37.2 8.9 37.2 8.8 C 37.2 8.7 37.2 8.7 37.2 8.6 C 37.2 8.2 37.3 8 37.3 7.9 C 37.4 7.8 37.4 7.8 37.5 7.8 C 37.6 7.8 37.7 7.9 37.7 8 C 37.7 8.1 37.6 8.2 37.6 8.4 C 37.6 8.5 37.6 8.7 37.6 8.8 C 37.5 9.1 37.5 9.3 37.4 9.4 C 37.4 9.6 37.3 9.7 37.1 9.8 C 36.9 9.9 36.7 10 36.5 10 Z M 38.4 9.4 C 38.3 9.4 38.3 9.4 38.3 9.4 C 38.3 9.4 38.2 9.5 38.1 9.7 C 38 9.8 38 9.9 37.9 9.9 C 37.9 9.9 37.9 9.9 37.9 9.9 C 37.8 9.9 37.8 9.9 37.7 9.9 C 37.7 9.8 37.7 9.8 37.7 9.8 C 37.7 9.7 37.8 9.5 38 9.1 C 38.2 8.9 38.3 8.7 38.4 8.5 C 38.6 8.1 38.7 7.9 38.8 7.8 C 38.8 7.8 38.9 7.7 38.9 7.7 C 39 7.7 39.1 7.7 39.1 7.8 C 39.1 7.8 39.2 7.8 39.2 7.9 C 39.2 7.9 39.2 8 39.1 8 C 39.3 8.5 39.5 8.9 39.6 9.1 C 39.7 9.4 39.8 9.5 39.9 9.6 C 39.9 9.7 39.9 9.7 40 9.7 C 40 9.8 40 9.8 40 9.8 C 40 9.9 40 9.9 39.9 9.9 C 39.9 10 39.8 10 39.8 10 C 39.7 10 39.6 10 39.6 9.9 C 39.5 9.8 39.4 9.7 39.3 9.5 C 39.3 9.4 39.2 9.3 39.2 9.3 C 39.2 9.3 39.2 9.3 39.2 9.3 C 39.2 9.3 39.1 9.3 38.9 9.3 C 38.7 9.3 38.5 9.4 38.4 9.4 C 38.4 9.4 38.4 9.4 38.4 9.4 C 38.4 9.4 38.4 9.4 38.4 9.4 Z M 39 9 C 39 9 39.1 9 39.1 9 C 39.1 8.9 39 8.7 38.9 8.3 C 38.9 8.3 38.9 8.3 38.9 8.3 C 38.9 8.3 38.5 9.1 38.5 9.1 C 38.5 9.1 38.6 9 38.7 9 C 38.7 9 38.8 9 39 9 C 39 9 39 9 39 9 Z M 40.2 9.4 C 40.2 9.4 40.31 8.9 40.3 8.9 C 40.4 8.5 40.4 8.2 40.4 8.1 C 40.4 8 40.4 8 40.5 7.9 C 40.5 7.9 40.5 7.9 40.5 7.9 C 40.6 7.8 40.6 7.8 40.7 7.8 C 40.7 7.8 40.7 7.8 40.8 7.8 C 40.8 7.9 40.8 7.9 40.9 8 C 40.9 8.2 41 8.4 41.2 8.7 C 41.3 9 41.5 9.2 41.6 9.4 C 41.7 9.2 41.7 9 41.8 8.7 C 41.8 8.5 41.8 8.4 41.8 8.2 C 41.9 8.1 41.9 8 41.9 7.9 C 41.9 7.8 41.9 7.8 42 7.7 C 42 7.7 42.1 7.7 42.1 7.7 C 42.1 7.7 42.2 7.7 42.2 7.8 C 42.2 7.8 42.2 7.9 42.2 7.9 C 42.2 8 42.2 8.1 42.2 8.2 C 42.1 8.4 42.1 8.7 42 9 C 42 9.4 41.9 9.6 41.9 9.6 C 41.9 9.6 41.9 9.7 41.9 9.7 C 41.9 9.7 41.9 9.8 41.9 9.8 C 41.9 9.8 41.9 9.9 41.8 9.9 C 41.8 9.9 41.8 9.9 41.7 9.9 C 41.7 9.9 41.6 9.9 41.6 9.9 C 41.6 9.9 41.6 9.9 41.6 9.8 C 41.5 9.8 41.5 9.8 41.5 9.7 C 41.4 9.6 41.4 9.6 41.4 9.5 C 41.1 9.3 40.9 8.9 40.7 8.5 C 40.7 8.6 40.6 8.9 40.6 9.4 C 40.6 9.4 40.5 9.5 40.5 9.5 C 40.5 9.5 40.5 9.6 40.5 9.7 C 40.5 9.8 40.5 9.9 40.4 9.9 C 40.4 10 40.4 10 40.3 10 C 40.3 10 40.2 10 40.2 9.9 C 40.2 9.9 40.1 9.8 40.1 9.7 C 40.1 9.7 40.2 9.5 40.2 9.4 C 40.2 9.4 40.2 9.4 40.2 9.4 Z M 44.1 8.1 C 43.9 8.1 43.7 8.1 43.6 8.1 C 43.6 8.1 43.6 8.2 43.6 8.2 C 43.6 8.2 43.6 8.4 43.5 8.7 C 43.5 9 43.5 9.2 43.5 9.4 C 43.5 9.5 43.5 9.6 43.5 9.7 C 43.5 9.7 43.5 9.7 43.5 9.7 C 43.5 9.8 43.5 9.8 43.5 9.9 C 43.5 9.9 43.4 9.9 43.4 9.9 C 43.3 9.9 43.3 9.9 43.2 9.9 C 43.2 9.8 43.2 9.8 43.2 9.7 C 43.1 9.6 43.1 9.5 43.1 9.4 C 43.1 9.3 43.2 9 43.2 8.7 C 43.2 8.3 43.3 8.2 43.3 8.2 C 43.2 8.2 43.1 8.2 42.9 8.2 C 42.7 8.2 42.6 8.2 42.6 8.2 C 42.5 8.2 42.4 8.2 42.4 8.2 C 42.4 8.1 42.3 8.1 42.3 8.1 C 42.3 8 42.4 8 42.4 7.9 C 42.4 7.9 42.5 7.9 42.7 7.9 C 43 7.9 43.3 7.9 43.5 7.8 C 43.8 7.8 44.1 7.8 44.2 7.8 C 44.4 7.8 44.5 7.8 44.6 7.8 C 44.6 7.9 44.6 7.9 44.6 8 C 44.6 8.1 44.6 8.1 44.5 8.1 C 44.5 8.1 44.4 8.1 44.4 8.1 C 44.3 8.1 44.2 8.1 44.1 8.1 C 44.1 8.1 44.1 8.1 44.1 8.1 Z M 45 10 C 44.9 10 44.7 9.9 44.6 9.7 C 44.5 9.6 44.4 9.4 44.4 9.2 C 44.4 9 44.5 8.8 44.6 8.6 C 44.7 8.3 44.9 8.1 45.1 8 C 45.3 7.8 45.5 7.7 45.7 7.7 C 45.8 7.7 46 7.8 46.1 7.8 C 46.2 7.8 46.3 7.9 46.4 8 C 46.4 8 46.5 8.1 46.5 8.2 C 46.6 8.3 46.6 8.4 46.6 8.5 C 46.6 8.7 46.5 8.8 46.5 9 C 46.4 9.2 46.3 9.3 46.1 9.5 C 46 9.6 45.8 9.8 45.7 9.8 C 45.5 9.9 45.3 10 45 10 Z M 44.8 9.2 C 44.8 9.4 44.8 9.5 44.9 9.5 C 45 9.6 45 9.7 45.1 9.7 C 45.4 9.7 45.6 9.5 45.9 9.3 C 46.1 9 46.2 8.8 46.2 8.5 C 46.2 8.4 46.2 8.3 46.2 8.2 C 46.1 8.2 46 8.1 46 8.1 C 45.9 8 45.8 8 45.7 8 C 45.5 8 45.3 8.2 45.1 8.4 C 44.9 8.7 44.8 9 44.8 9.2 Z M 48.5 10 C 48.4 10 48.2 9.9 48.1 9.7 C 48 9.6 47.9 9.4 47.9 9.2 C 47.9 9 47.9 8.8 48.1 8.6 C 48.2 8.3 48.4 8.1 48.5 8 C 48.7 7.8 48.9 7.7 49.1 7.7 C 49.3 7.7 49.4 7.8 49.6 7.8 C 49.7 7.8 49.8 7.9 49.8 8 C 49.9 8 50 8.1 50 8.2 C 50.1 8.3 50.1 8.4 50.1 8.5 C 50.1 8.7 50 8.8 49.9 9 C 49.9 9.2 49.8 9.3 49.6 9.5 C 49.5 9.6 49.3 9.8 49.1 9.8 C 49 9.9 48.8 10 48.5 10 Z M 48.3 9.2 C 48.3 9.4 48.3 9.5 48.4 9.5 C 48.4 9.6 48.5 9.7 48.6 9.7 C 48.9 9.7 49.1 9.5 49.3 9.3 C 49.6 9 49.7 8.8 49.7 8.5 C 49.7 8.4 49.7 8.3 49.6 8.2 C 49.6 8.2 49.5 8.1 49.4 8.1 C 49.4 8 49.3 8 49.1 8 C 49 8 48.8 8.2 48.6 8.4 C 48.4 8.7 48.3 9 48.3 9.2 Z M 53.6 7.9 C 53.6 7.9 53.6 7.9 53.6 7.9 C 53.6 7.9 53.6 7.9 53.5 8 C 53.4 8.2 53.3 8.3 53.2 8.4 C 53.2 8.5 53 8.8 52.8 9.1 C 52.7 9.2 52.7 9.4 52.6 9.4 C 52.5 9.5 52.5 9.7 52.5 9.7 C 52.4 9.8 52.4 9.8 52.4 9.8 C 52.3 9.9 52.2 9.9 52.2 9.9 C 52.1 9.9 52.1 9.9 52.1 9.8 C 52.1 9.8 52 9.7 52 9.5 C 51.9 9.4 51.8 9.2 51.7 8.9 C 51.5 8.3 51.4 8 51.4 8 C 51.4 8 51.4 7.9 51.4 7.9 C 51.5 7.8 51.5 7.8 51.6 7.8 C 51.6 7.8 51.7 7.8 51.7 7.8 C 51.7 7.9 51.8 8 51.8 8.1 C 51.8 8.2 51.9 8.4 52 8.7 C 52.1 9 52.2 9.3 52.3 9.4 C 52.3 9.4 52.3 9.3 52.4 9.2 C 52.4 9.2 52.4 9.2 52.4 9.2 C 52.5 9 52.7 8.8 52.7 8.6 C 52.9 8.3 53 8.1 53.2 7.9 C 53.3 7.8 53.4 7.7 53.4 7.7 C 53.5 7.7 53.6 7.7 53.6 7.8 C 53.6 7.84 53.6 7.9 53.6 7.9 C 53.6 7.9 53.6 7.85 53.6 7.9 Z M 54.1 10 C 53.9 10 53.8 9.9 53.6 9.7 C 53.5 9.6 53.4 9.4 53.4 9.2 C 53.4 9 53.5 8.8 53.6 8.6 C 53.7 8.3 53.9 8.1 54.1 8 C 54.3 7.8 54.5 7.7 54.7 7.7 C 54.9 7.7 55 7.8 55.1 7.8 C 55.2 7.8 55.3 7.9 55.4 8 C 55.5 8 55.5 8.1 55.6 8.2 C 55.6 8.3 55.6 8.4 55.6 8.5 C 55.6 8.7 55.6 8.8 55.5 9 C 55.4 9.2 55.3 9.3 55.1 9.5 C 55 9.6 54.8 9.8 54.7 9.8 C 54.5 9.9 54.3 10 54.1 10 Z M 53.8 9.2 C 53.8 9.4 53.8 9.5 53.9 9.5 C 54 9.6 54.1 9.7 54.2 9.7 C 54.4 9.7 54.7 9.5 54.9 9.3 C 55.1 9 55.2 8.8 55.2 8.5 C 55.2 8.4 55.2 8.3 55.2 8.2 C 55.1 8.2 55.1 8.1 55 8.1 C 54.9 8 54.8 8 54.7 8 C 54.5 8 54.3 8.2 54.1 8.4 C 53.9 8.7 53.8 9 53.8 9.2 Z M 57.5 8.1 C 57.2 8.1 57 8.1 57 8.1 C 56.9 8.1 56.9 8.2 56.9 8.2 C 56.9 8.2 56.9 8.4 56.9 8.7 C 56.8 9 56.8 9.2 56.8 9.4 C 56.8 9.5 56.8 9.6 56.8 9.7 C 56.9 9.7 56.9 9.7 56.9 9.7 C 56.9 9.8 56.8 9.8 56.8 9.9 C 56.8 9.9 56.7 9.9 56.7 9.9 C 56.7 9.9 56.6 9.9 56.6 9.9 C 56.5 9.8 56.5 9.8 56.5 9.7 C 56.5 9.6 56.5 9.5 56.5 9.4 C 56.5 9.3 56.5 9 56.5 8.7 C 56.6 8.3 56.6 8.2 56.6 8.2 C 56.6 8.2 56.5 8.2 56.3 8.2 C 56.1 8.2 56 8.2 55.9 8.2 C 55.8 8.2 55.8 8.2 55.7 8.2 C 55.7 8.1 55.7 8.1 55.7 8.1 C 55.7 8 55.7 8 55.7 7.9 C 55.8 7.9 55.9 7.9 56 7.9 C 56.3 7.9 56.6 7.9 56.9 7.8 C 57.2 7.8 57.4 7.8 57.6 7.8 C 57.7 7.8 57.8 7.8 57.9 7.8 C 57.9 7.9 57.9 7.9 57.9 8 C 57.9 8.1 57.9 8.1 57.8 8.1 C 57.8 8.1 57.7 8.1 57.7 8.1 C 57.6 8.1 57.5 8.1 57.5 8.1 C 57.5 8.1 57.5 8.1 57.5 8.1 Z M 58.4 10 C 58.2 10 58.1 9.9 57.9 9.7 C 57.8 9.6 57.7 9.4 57.7 9.2 C 57.7 9 57.8 8.8 57.9 8.6 C 58 8.3 58.2 8.1 58.4 8 C 58.6 7.8 58.8 7.7 59 7.7 C 59.2 7.7 59.3 7.8 59.4 7.8 C 59.5 7.8 59.6 7.9 59.7 8 C 59.8 8 59.8 8.1 59.9 8.2 C 59.9 8.3 59.9 8.4 59.9 8.5 C 59.9 8.7 59.9 8.8 59.8 9 C 59.7 9.2 59.6 9.3 59.4 9.5 C 59.3 9.6 59.1 9.8 59 9.8 C 58.8 9.9 58.6 10 58.4 10 Z M 58.1 9.2 C 58.1 9.4 58.1 9.5 58.2 9.5 C 58.3 9.6 58.4 9.7 58.5 9.7 C 58.7 9.7 59 9.5 59.2 9.3 C 59.4 9 59.5 8.8 59.5 8.5 C 59.5 8.4 59.5 8.3 59.5 8.2 C 59.4 8.2 59.4 8.1 59.3 8.1 C 59.2 8 59.1 8 59 8 C 58.8 8 58.6 8.2 58.4 8.4 C 58.2 8.7 58.1 9 58.1 9.2 Z " stroke="none" fill="#000"/>  </g>  <g id="Polygon15274">    <path d="M 4.5 3 C 4.5 3.2 4.4 3.3 4.3 3.3 C 4.3 3.2 4.2 3.1 4.2 3.1 C 4.1 3.1 4.1 3 4 3 C 3.8 3 3.6 3.1 3.5 3.2 C 3.4 3.2 3.3 3.3 3.3 3.4 C 3.3 3.5 3.3 3.5 3.4 3.6 C 3.4 3.6 3.6 3.7 3.8 3.7 C 4 3.8 4.2 3.9 4.3 4 C 4.4 4.1 4.5 4.1 4.5 4.3 C 4.5 4.4 4.3 4.6 4 4.8 C 3.7 4.9 3.4 5 3.1 5 C 3 5 3 5 2.9 5 C 2.8 4.9 2.8 4.9 2.8 4.8 C 2.8 4.7 2.8 4.7 2.8 4.7 C 2.9 4.6 2.9 4.6 2.9 4.6 C 3 4.6 3 4.6 3 4.6 C 3.1 4.7 3.2 4.7 3.3 4.7 C 3.5 4.7 3.6 4.6 3.8 4.5 C 4 4.5 4.1 4.4 4.1 4.3 C 4.1 4.3 4.1 4.2 4 4.2 C 4 4.2 3.9 4.1 3.7 4.1 C 3.5 4 3.4 3.9 3.3 3.9 C 3.2 3.9 3.1 3.8 3 3.7 C 3 3.7 2.9 3.6 2.9 3.5 C 2.9 3.3 3 3.1 3.3 3 C 3.5 2.8 3.7 2.7 4 2.7 C 4.2 2.7 4.3 2.8 4.4 2.8 C 4.5 2.9 4.5 3 4.5 3 C 4.5 3 4.5 3 4.5 3 Z M 5.3 3.4 C 5.3 3.5 5.2 3.6 5.2 3.6 C 5.2 3.7 5.2 3.7 5.2 3.9 C 5.2 4.1 5.2 4.2 5.2 4.3 C 5.2 4.4 5.2 4.5 5.2 4.7 C 5.2 4.8 5.2 4.8 5.1 4.9 C 5.1 4.9 5 4.9 5 4.9 C 4.9 4.9 4.9 4.9 4.8 4.8 C 4.8 4.8 4.8 4.7 4.8 4.5 C 4.8 4.4 4.8 4.2 4.9 3.9 C 4.9 3.9 4.9 3.3 4.9 3.3 C 5 3.2 5 3.1 5 3.1 C 5 2.9 5 2.9 5 2.9 C 5 2.8 5.1 2.8 5.1 2.8 C 5.2 2.8 5.2 2.7 5.2 2.7 C 5.3 2.7 5.3 2.8 5.3 2.8 C 5.4 2.9 5.4 2.9 5.4 3 C 5.4 3 5.3 3.4 5.3 3.4 Z M 7.7 3.4 C 7.7 3.3 7.7 3.3 7.7 3.3 C 7.7 3.3 7.2 3.9 7.2 3.9 C 7 4.2 6.8 4.4 6.7 4.4 C 6.6 4.4 6.6 4.4 6.5 4.3 C 6.5 4.2 6.5 4.1 6.4 4 C 6.4 3.9 6.3 3.8 6.3 3.7 C 6.3 3.5 6.2 3.5 6.2 3.4 C 6.2 3.4 6.2 3.8 6.2 3.8 C 6.1 3.9 6.1 4 6.1 4.1 C 6.1 4.3 6 4.4 6 4.5 C 6 4.7 6 4.8 6 4.8 C 5.9 4.9 5.9 4.9 5.9 4.9 C 5.8 5 5.8 5 5.8 5 C 5.7 5 5.7 4.9 5.6 4.9 C 5.6 4.9 5.6 4.8 5.6 4.8 C 5.6 4.7 5.6 4.6 5.6 4.4 C 5.8 3.8 5.9 3.5 5.9 3.3 C 5.9 3.1 6 3 6 2.9 C 6 2.9 6 2.8 6 2.8 C 6.1 2.8 6.1 2.8 6.2 2.8 C 6.2 2.8 6.3 2.8 6.3 2.8 C 6.4 2.9 6.4 2.9 6.4 3 C 6.4 2.98 6.4 3 6.4 3 C 6.4 3 6.61 3.55 6.6 3.5 C 6.7 3.8 6.7 3.9 6.8 4 C 6.9 3.9 7 3.7 7.2 3.4 C 7.4 3.1 7.6 2.9 7.7 2.8 C 7.7 2.8 7.8 2.7 7.8 2.7 C 7.9 2.7 7.9 2.7 8 2.8 C 8 2.8 8.1 2.9 8.1 2.9 C 8.1 2.9 8.1 3.1 8 3.3 C 8 3.5 8 3.7 7.9 4 C 7.9 4.2 7.9 4.3 7.9 4.4 C 7.9 4.4 7.9 4.5 7.9 4.6 C 7.9 4.6 7.9 4.6 7.9 4.7 C 7.9 4.8 7.9 4.8 7.9 4.9 C 7.9 4.9 7.8 4.9 7.7 4.9 C 7.6 4.9 7.5 4.8 7.5 4.6 C 7.5 4.5 7.6 4.2 7.6 4 C 7.6 3.7 7.7 3.5 7.7 3.4 C 7.7 3.4 7.7 3.4 7.7 3.4 Z M 8.4 5.1 C 8.4 5.1 8.4 5.1 8.4 5.1 C 8.5 5.1 8.5 5 8.6 5 C 8.7 5 8.7 4.9 8.8 4.8 C 8.8 4.8 8.8 4.7 8.8 4.7 C 8.8 4.7 8.8 4.6 8.8 4.6 C 8.7 4.5 8.7 4.5 8.7 4.5 C 8.7 4.5 8.7 4.4 8.8 4.4 C 8.8 4.4 8.8 4.4 8.9 4.4 C 8.9 4.4 8.9 4.4 9 4.4 C 9 4.4 9.1 4.4 9.1 4.4 C 9.1 4.5 9.1 4.5 9.1 4.6 C 9.1 4.6 9.1 4.7 9.1 4.7 C 9.1 4.7 9.1 4.8 9.1 4.9 C 9 5 9 5 8.9 5.1 C 8.9 5.1 8.8 5.2 8.7 5.2 C 8.7 5.2 8.7 5.2 8.7 5.2 C 8.6 5.2 8.5 5.2 8.5 5.2 C 8.4 5.2 8.4 5.2 8.4 5.1 C 8.4 5.1 8.4 5.1 8.4 5.1 Z M 11.2 4.2 C 11.1 4.2 11 4.2 11 4.2 C 11 4.4 10.9 4.6 10.9 4.8 C 10.9 4.8 10.9 4.9 10.9 4.9 C 10.9 4.9 10.8 5 10.8 5 C 10.6 5 10.6 4.9 10.6 4.8 C 10.6 4.7 10.6 4.4 10.7 4 C 10.7 3.6 10.7 3.4 10.7 3.3 C 10.7 3.2 10.7 3.2 10.7 3.2 C 10.7 3.2 10.6 3.1 10.6 3 C 10.6 2.9 10.8 2.9 11 2.8 C 11.3 2.7 11.5 2.7 11.7 2.7 C 11.9 2.7 12.1 2.8 12.2 2.8 C 12.4 2.9 12.4 3.1 12.4 3.2 C 12.4 3.4 12.3 3.6 12.1 3.8 C 11.8 4 11.5 4.1 11.2 4.2 C 11.2 4.2 11.2 4.2 11.2 4.2 Z M 11.7 3 C 11.5 3 11.3 3 11.1 3.1 C 11.1 3.1 11 3.9 11 3.9 C 11.3 3.8 11.6 3.8 11.8 3.6 C 12 3.5 12.1 3.4 12.1 3.2 C 12.1 3.1 12 3 11.7 3 C 11.7 3 11.7 3 11.7 3 Z M 13.1 5 C 13 5 12.8 4.9 12.7 4.7 C 12.6 4.6 12.5 4.4 12.5 4.2 C 12.5 4 12.6 3.8 12.7 3.6 C 12.8 3.3 13 3.1 13.2 3 C 13.4 2.8 13.6 2.7 13.8 2.7 C 13.9 2.7 14.1 2.8 14.2 2.8 C 14.3 2.8 14.4 2.9 14.5 3 C 14.6 3 14.6 3.1 14.6 3.2 C 14.7 3.3 14.7 3.4 14.7 3.5 C 14.7 3.7 14.6 3.8 14.6 4 C 14.5 4.2 14.4 4.3 14.2 4.5 C 14.1 4.6 13.9 4.8 13.8 4.8 C 13.6 4.9 13.4 5 13.1 5 Z M 12.9 4.2 C 12.9 4.4 12.9 4.5 13 4.5 C 13.1 4.6 13.1 4.7 13.2 4.7 C 13.5 4.7 13.7 4.5 14 4.3 C 14.2 4 14.3 3.8 14.3 3.5 C 14.3 3.4 14.3 3.3 14.3 3.2 C 14.2 3.2 14.2 3.1 14.1 3.1 C 14 3 13.9 3 13.8 3 C 13.6 3 13.4 3.2 13.2 3.4 C 13 3.7 12.9 4 12.9 4.2 Z M 15.1 3.1 C 15.1 3.1 15.09 3.08 15.1 3.1 C 15.1 3 15 3 15 3 C 15 2.9 15.1 2.9 15.1 2.8 C 15.2 2.8 15.2 2.8 15.2 2.8 C 15.3 2.8 15.3 2.8 15.3 2.8 C 15.3 2.8 15.4 2.8 15.4 2.8 C 15.7 2.8 15.9 2.7 16 2.7 C 16.2 2.7 16.4 2.8 16.5 2.9 C 16.6 3 16.7 3.1 16.7 3.3 C 16.7 3.4 16.6 3.6 16.5 3.7 C 16.4 3.8 16.2 3.9 16 4 C 16.3 4.3 16.6 4.5 16.8 4.6 C 16.8 4.6 16.9 4.7 16.9 4.7 C 16.9 4.8 16.9 4.8 16.8 4.8 C 16.8 4.9 16.7 4.9 16.7 4.9 C 16.6 4.9 16.6 4.9 16.5 4.8 C 16.4 4.8 16.3 4.7 16.2 4.6 C 16.1 4.5 16 4.4 16 4.4 C 15.8 4.3 15.6 4.2 15.6 4.1 C 15.5 4.1 15.4 4.1 15.4 4 C 15.4 3.9 15.4 3.9 15.5 3.8 C 15.5 3.8 15.6 3.8 15.6 3.8 C 15.6 3.8 15.7 3.8 15.7 3.8 C 15.7 3.8 15.7 3.8 15.7 3.8 C 15.8 3.8 15.9 3.7 16.1 3.6 C 16.2 3.5 16.3 3.4 16.3 3.3 C 16.3 3.2 16.3 3.1 16.2 3.1 C 16.1 3 16.1 3 15.9 3 C 15.8 3 15.7 3 15.6 3 C 15.6 3.1 15.5 3.1 15.5 3.1 C 15.5 3.1 15.5 3.1 15.5 3.1 C 15.5 3.2 15.4 3.3 15.4 3.4 C 15.4 3.6 15.3 3.8 15.3 4 C 15.3 4.2 15.3 4.4 15.3 4.5 C 15.3 4.5 15.3 4.6 15.3 4.6 C 15.3 4.7 15.3 4.7 15.3 4.8 C 15.3 4.8 15.3 4.8 15.2 4.9 C 15.2 4.9 15.2 4.9 15.1 4.9 C 15 4.9 14.9 4.9 14.9 4.7 C 14.9 4.5 14.9 4.3 15 4 C 15 3.8 15 3.5 15.1 3.3 C 15.1 3.3 15.1 3.2 15.1 3.2 C 15.09 3.21 15.1 3.1 15.1 3.1 Z M 18.7 3 C 18.8 3.1 18.9 3.2 19 3.3 C 19.1 3.5 19.1 3.6 19.1 3.8 C 19.1 3.9 19 4.1 18.9 4.2 C 18.8 4.4 18.7 4.5 18.5 4.7 C 18.7 4.9 18.8 5 18.9 5.1 C 18.9 5.1 18.9 5.2 18.9 5.2 C 18.9 5.2 18.9 5.2 18.8 5.3 C 18.8 5.3 18.7 5.4 18.7 5.4 C 18.7 5.4 18.6 5.3 18.6 5.3 C 18.5 5.2 18.5 5.1 18.4 5 C 18.3 4.9 18.2 4.8 18.2 4.8 C 18.2 4.8 18.2 4.8 18.2 4.8 C 18 4.9 17.9 4.9 17.7 4.9 C 17.5 4.9 17.3 4.8 17.2 4.7 C 17 4.6 17 4.5 17 4.3 C 17 4 17 3.8 17.2 3.6 C 17.4 3.3 17.5 3.1 17.8 2.9 C 18 2.8 18.2 2.7 18.4 2.7 C 18.5 2.7 18.5 2.7 18.6 2.8 C 18.7 2.8 18.7 2.9 18.7 3 Z M 17.7 4.6 C 17.8 4.6 17.9 4.6 18 4.6 C 18 4.5 18 4.5 18 4.5 C 17.9 4.4 17.8 4.3 17.8 4.3 C 17.8 4.3 17.9 4.3 17.9 4.2 C 18 4.2 18 4.1 18.1 4.1 C 18.2 4.1 18.2 4.2 18.2 4.2 C 18.2 4.3 18.2 4.3 18.3 4.4 C 18.3 4.4 18.3 4.4 18.3 4.4 C 18.4 4.4 18.5 4.4 18.6 4.2 C 18.7 4.1 18.8 3.9 18.8 3.8 C 18.8 3.6 18.7 3.4 18.6 3.3 C 18.4 3.1 18.4 3 18.3 3 C 18.2 3 18 3.1 17.9 3.2 C 17.7 3.4 17.6 3.5 17.5 3.7 C 17.4 3.9 17.3 4.1 17.3 4.2 C 17.3 4.4 17.4 4.4 17.4 4.5 C 17.5 4.6 17.6 4.6 17.7 4.6 C 17.7 4.6 17.7 4.6 17.7 4.6 Z M 20.2 5 C 20.1 5 20 4.9 19.9 4.9 C 19.7 4.8 19.6 4.7 19.5 4.5 C 19.5 4.4 19.4 4.2 19.4 4 C 19.4 3.9 19.4 3.8 19.5 3.7 C 19.5 3.7 19.5 3.4 19.5 3.4 C 19.5 3.3 19.5 3.3 19.5 3.3 C 19.6 3.2 19.6 3.1 19.6 3.1 C 19.6 3 19.6 2.9 19.6 2.8 C 19.7 2.8 19.7 2.7 19.8 2.7 C 19.8 2.7 19.9 2.8 19.9 2.8 C 19.9 2.9 20 2.9 20 3 C 20 3 19.9 3.1 19.9 3.3 C 19.9 3.3 19.9 3.4 19.8 3.6 C 19.8 3.8 19.8 4 19.8 4 C 19.8 4.3 19.8 4.4 20 4.5 C 20.1 4.6 20.2 4.7 20.2 4.7 C 20.5 4.7 20.6 4.6 20.7 4.5 C 20.8 4.4 20.9 4.2 20.9 4 C 20.9 3.9 20.9 3.9 20.9 3.8 C 21 3.7 21 3.7 21 3.6 C 21 3.2 21 3 21.1 2.9 C 21.1 2.8 21.2 2.8 21.3 2.8 C 21.4 2.8 21.4 2.9 21.4 3 C 21.4 3.1 21.4 3.2 21.4 3.4 C 21.3 3.5 21.3 3.7 21.3 3.8 C 21.3 4.1 21.3 4.3 21.2 4.4 C 21.1 4.6 21 4.7 20.8 4.8 C 20.7 4.9 20.5 5 20.2 5 Z M 23.3 3.1 C 23.3 3.1 22.9 3.1 22.9 3.1 C 22.7 3.1 22.6 3.1 22.5 3.1 C 22.4 3.1 22.3 3.2 22.3 3.2 C 22.3 3.2 22.3 3.2 22.3 3.3 C 22.3 3.3 22.2 3.4 22.2 3.5 C 22.2 3.6 22.2 3.7 22.2 3.7 C 22.2 3.7 22.3 3.7 22.4 3.7 C 22.6 3.7 22.6 3.7 22.7 3.7 C 22.8 3.7 22.9 3.6 23 3.6 C 23.2 3.6 23.2 3.7 23.2 3.8 C 23.2 3.8 23.2 3.9 23.2 3.9 C 23.1 3.9 23.1 4 23 4 C 22.9 4 22.9 4 22.8 4 C 22.7 4 22.7 4 22.6 4 C 22.4 4 22.2 4.1 22.2 4.1 C 22.2 4.1 22.2 4.1 22.2 4.1 C 22.1 4.1 22.1 4.1 22.1 4.1 C 22.1 4.1 22.1 4.2 22.1 4.3 C 22.1 4.5 22 4.6 22 4.6 C 22.1 4.6 22.1 4.7 22.1 4.7 C 22.2 4.7 22.3 4.6 22.5 4.6 C 22.7 4.6 22.8 4.6 22.9 4.6 C 23 4.5 23.1 4.5 23.1 4.5 C 23.2 4.5 23.3 4.6 23.3 4.7 C 23.3 4.7 23.3 4.8 23.3 4.8 C 23.2 4.8 23 4.9 22.9 4.9 C 22.7 4.9 22.6 4.9 22.4 4.9 C 22.2 5 22 5 21.9 5 C 21.8 5 21.8 5 21.7 4.9 C 21.7 4.9 21.7 4.8 21.7 4.8 C 21.7 4.8 21.7 4.7 21.7 4.7 C 21.7 4.7 21.7 4.7 21.7 4.6 C 21.7 4.5 21.8 4.3 21.8 3.8 C 21.9 3.4 21.9 3.2 21.9 3.1 C 21.9 3.1 21.9 3.1 21.9 3.1 C 21.9 3.1 21.9 3.1 21.9 3.1 C 21.8 3 21.8 3 21.8 3 C 21.8 3 21.8 3 21.8 2.9 C 21.8 2.9 21.9 2.9 21.9 2.9 C 21.9 2.9 22 2.8 22 2.8 C 22.1 2.8 22.1 2.9 22.2 2.9 C 22.2 2.9 22.5 2.8 22.9 2.8 C 23.1 2.7 23.2 2.7 23.2 2.7 C 23.2 2.7 23.2 2.7 23.2 2.7 C 23.4 2.7 23.5 2.8 23.5 2.9 C 23.5 2.9 23.4 3 23.4 3 C 23.4 3 23.4 3.1 23.3 3.1 Z M 26.4 3 C 26.4 3.1 26.3 3.1 26.3 3.1 C 26.3 3.1 26.3 3.1 26.2 3.1 C 26.2 3.1 26.2 3.1 26.1 3.1 C 26 3.1 25.9 3.1 25.7 3.1 C 25.5 3.1 25.4 3.1 25.4 3.1 C 25.3 3.3 25.3 3.6 25.3 3.8 C 25.3 3.8 25.3 3.8 25.4 3.8 C 25.5 3.8 25.7 3.8 25.8 3.7 C 25.9 3.7 26 3.7 26.1 3.7 C 26.2 3.7 26.3 3.8 26.3 3.9 C 26.3 3.9 26.3 3.9 26.3 3.9 C 26.2 4 26.2 4 26.2 4 C 26.1 4 26.1 4 26 4 C 26 4 25.6 4.1 25.6 4.1 C 25.4 4.1 25.3 4.1 25.2 4.1 C 25.2 4.2 25.2 4.2 25.2 4.2 C 25.2 4.2 25.2 4.2 25.2 4.3 C 25.2 4.5 25.2 4.6 25.2 4.6 C 25.2 4.6 25.2 4.8 25.2 4.8 C 25.2 4.9 25.1 5 25 5 C 25 5 24.9 5 24.9 4.9 C 24.8 4.9 24.8 4.8 24.8 4.8 C 24.8 4.6 24.8 4.5 24.8 4.2 C 24.8 4.2 24.9 3.9 25 3.1 C 25 3.1 25 3.1 25 3.1 C 25 3 25 3 25 3 C 25 2.9 25 2.9 25 2.9 C 25.1 2.8 25.1 2.8 25.1 2.8 C 25.2 2.8 25.2 2.8 25.2 2.8 C 25.3 2.8 25.3 2.8 25.3 2.8 C 25.4 2.8 25.5 2.8 25.8 2.8 C 26 2.7 26.1 2.7 26.2 2.7 C 26.3 2.7 26.4 2.8 26.4 2.8 C 26.5 2.8 26.5 2.8 26.5 2.9 C 26.5 2.9 26.5 3 26.4 3 C 26.4 3 26.4 3 26.4 3 Z M 26.9 4.4 C 26.9 4.4 26.8 4.4 26.8 4.4 C 26.8 4.4 26.8 4.5 26.7 4.7 C 26.6 4.8 26.5 4.9 26.5 4.9 C 26.5 4.9 26.4 4.9 26.4 4.9 C 26.4 4.9 26.3 4.9 26.3 4.9 C 26.2 4.8 26.2 4.8 26.2 4.8 C 26.2 4.7 26.3 4.5 26.6 4.1 C 26.7 3.9 26.8 3.7 26.9 3.5 C 27.2 3.1 27.3 2.9 27.3 2.8 C 27.4 2.8 27.4 2.7 27.5 2.7 C 27.6 2.7 27.6 2.7 27.7 2.8 C 27.7 2.8 27.7 2.8 27.7 2.9 C 27.7 2.9 27.7 3 27.7 3 C 27.9 3.5 28 3.9 28.1 4.1 C 28.2 4.4 28.3 4.5 28.4 4.6 C 28.5 4.7 28.5 4.7 28.5 4.7 C 28.5 4.8 28.5 4.8 28.5 4.8 C 28.5 4.9 28.5 4.9 28.5 4.9 C 28.4 5 28.4 5 28.3 5 C 28.3 5 28.2 5 28.1 4.9 C 28 4.8 28 4.7 27.9 4.5 C 27.8 4.4 27.8 4.3 27.8 4.3 C 27.8 4.3 27.8 4.3 27.8 4.3 C 27.7 4.3 27.6 4.3 27.4 4.3 C 27.2 4.3 27.1 4.4 27 4.4 C 27 4.4 26.9 4.4 26.9 4.4 C 26.9 4.4 26.9 4.4 26.9 4.4 Z M 27.5 4 C 27.6 4 27.6 4 27.7 4 C 27.6 3.9 27.6 3.7 27.5 3.3 C 27.4 3.3 27.4 3.3 27.4 3.3 C 27.4 3.3 27 4.1 27 4.1 C 27.1 4.1 27.1 4 27.2 4 C 27.2 4 27.4 4 27.5 4 C 27.5 4 27.5 4 27.5 4 Z M 30.8 2.9 C 30.8 2.9 30.8 2.9 30.8 2.9 C 30.8 2.9 30.7 2.9 30.7 3 C 30.5 3.2 30.5 3.3 30.4 3.4 C 30.3 3.5 30.2 3.8 30 4.1 C 29.9 4.2 29.8 4.4 29.8 4.4 C 29.7 4.5 29.6 4.7 29.6 4.7 C 29.6 4.8 29.6 4.8 29.5 4.8 C 29.5 4.9 29.4 4.9 29.3 4.9 C 29.3 4.9 29.3 4.9 29.2 4.8 C 29.2 4.8 29.2 4.7 29.1 4.5 C 29.1 4.4 29 4.2 28.9 3.9 C 28.7 3.3 28.5 3 28.5 3 C 28.5 3 28.6 2.9 28.6 2.9 C 28.6 2.8 28.7 2.8 28.7 2.8 C 28.8 2.8 28.8 2.8 28.9 2.8 C 28.9 2.9 28.9 3 29 3.1 C 29 3.2 29.1 3.4 29.2 3.7 C 29.3 4 29.4 4.3 29.5 4.4 C 29.5 4.4 29.5 4.3 29.5 4.2 C 29.6 4.2 29.6 4.2 29.6 4.2 C 29.7 4 29.8 3.8 29.9 3.6 C 30.1 3.3 30.2 3.1 30.3 2.9 C 30.4 2.8 30.5 2.7 30.6 2.7 C 30.7 2.7 30.8 2.7 30.8 2.8 C 30.77 2.84 30.8 2.9 30.8 2.9 C 30.8 2.9 30.77 2.85 30.8 2.9 Z M 31.2 5 C 31.1 5 30.9 4.9 30.8 4.7 C 30.7 4.6 30.6 4.4 30.6 4.2 C 30.6 4 30.7 3.8 30.8 3.6 C 30.9 3.3 31.1 3.1 31.3 3 C 31.4 2.8 31.6 2.7 31.9 2.7 C 32 2.7 32.2 2.8 32.3 2.8 C 32.4 2.8 32.5 2.9 32.6 3 C 32.6 3 32.7 3.1 32.7 3.2 C 32.8 3.3 32.8 3.4 32.8 3.5 C 32.8 3.7 32.7 3.8 32.7 4 C 32.6 4.2 32.5 4.3 32.3 4.5 C 32.2 4.6 32 4.8 31.8 4.8 C 31.7 4.9 31.5 5 31.2 5 Z M 31 4.2 C 31 4.4 31 4.5 31.1 4.5 C 31.1 4.6 31.2 4.7 31.3 4.7 C 31.6 4.7 31.8 4.5 32.1 4.3 C 32.3 4 32.4 3.8 32.4 3.5 C 32.4 3.4 32.4 3.3 32.3 3.2 C 32.3 3.2 32.2 3.1 32.1 3.1 C 32.1 3 32 3 31.9 3 C 31.7 3 31.5 3.2 31.3 3.4 C 31.1 3.7 31 4 31 4.2 Z M 33.2 3.1 C 33.2 3.1 33.18 3.08 33.2 3.1 C 33.2 3 33.1 3 33.1 3 C 33.1 2.9 33.2 2.9 33.2 2.8 C 33.3 2.8 33.3 2.8 33.3 2.8 C 33.4 2.8 33.4 2.8 33.4 2.8 C 33.4 2.8 33.4 2.8 33.5 2.8 C 33.7 2.8 33.9 2.7 34.1 2.7 C 34.3 2.7 34.5 2.8 34.6 2.9 C 34.7 3 34.8 3.1 34.8 3.3 C 34.8 3.4 34.7 3.6 34.6 3.7 C 34.5 3.8 34.3 3.9 34.1 4 C 34.4 4.3 34.7 4.5 34.9 4.6 C 34.9 4.6 35 4.7 35 4.7 C 35 4.8 34.9 4.8 34.9 4.8 C 34.9 4.9 34.8 4.9 34.8 4.9 C 34.7 4.9 34.7 4.9 34.6 4.8 C 34.5 4.8 34.4 4.7 34.3 4.6 C 34.1 4.5 34.1 4.4 34 4.4 C 33.9 4.3 33.7 4.2 33.6 4.1 C 33.5 4.1 33.5 4.1 33.5 4 C 33.5 3.9 33.5 3.9 33.6 3.8 C 33.6 3.8 33.7 3.8 33.7 3.8 C 33.7 3.8 33.7 3.8 33.8 3.8 C 33.8 3.8 33.8 3.8 33.8 3.8 C 33.9 3.8 34 3.7 34.2 3.6 C 34.3 3.5 34.4 3.4 34.4 3.3 C 34.4 3.2 34.4 3.1 34.3 3.1 C 34.2 3 34.1 3 34 3 C 33.9 3 33.8 3 33.7 3 C 33.6 3.1 33.6 3.1 33.6 3.1 C 33.6 3.1 33.6 3.1 33.6 3.1 C 33.6 3.2 33.5 3.3 33.5 3.4 C 33.5 3.6 33.4 3.8 33.4 4 C 33.4 4.2 33.4 4.4 33.4 4.5 C 33.4 4.5 33.4 4.6 33.4 4.6 C 33.4 4.7 33.4 4.7 33.4 4.8 C 33.4 4.8 33.4 4.8 33.3 4.9 C 33.3 4.9 33.2 4.9 33.2 4.9 C 33.1 4.9 33 4.9 33 4.7 C 33 4.5 33 4.3 33 4 C 33.1 3.8 33.1 3.5 33.2 3.3 C 33.2 3.3 33.2 3.2 33.2 3.2 C 33.18 3.21 33.2 3.1 33.2 3.1 Z M 36.8 3.1 C 36.8 3.1 36.3 3.1 36.3 3.1 C 36.2 3.1 36 3.1 35.9 3.1 C 35.8 3.1 35.8 3.2 35.7 3.2 C 35.7 3.2 35.7 3.2 35.7 3.3 C 35.7 3.3 35.7 3.4 35.7 3.5 C 35.7 3.6 35.6 3.7 35.6 3.7 C 35.7 3.7 35.8 3.7 35.9 3.7 C 36 3.7 36.1 3.7 36.1 3.7 C 36.3 3.7 36.4 3.6 36.5 3.6 C 36.6 3.6 36.7 3.7 36.7 3.8 C 36.7 3.8 36.7 3.9 36.6 3.9 C 36.6 3.9 36.5 4 36.4 4 C 36.4 4 36.3 4 36.3 4 C 36.2 4 36.2 4 36.1 4 C 35.8 4 35.7 4.1 35.6 4.1 C 35.6 4.1 35.6 4.1 35.6 4.1 C 35.6 4.1 35.6 4.1 35.6 4.1 C 35.6 4.1 35.6 4.2 35.5 4.3 C 35.5 4.5 35.5 4.6 35.5 4.6 C 35.5 4.6 35.5 4.7 35.6 4.7 C 35.6 4.7 35.8 4.6 36 4.6 C 36.2 4.6 36.3 4.6 36.3 4.6 C 36.5 4.5 36.5 4.5 36.6 4.5 C 36.7 4.5 36.8 4.6 36.8 4.7 C 36.8 4.7 36.8 4.8 36.7 4.8 C 36.6 4.8 36.5 4.9 36.3 4.9 C 36.2 4.9 36 4.9 35.8 4.9 C 35.7 5 35.5 5 35.4 5 C 35.3 5 35.2 5 35.2 4.9 C 35.2 4.9 35.1 4.8 35.1 4.8 C 35.1 4.8 35.1 4.7 35.1 4.7 C 35.1 4.7 35.1 4.7 35.1 4.6 C 35.2 4.5 35.2 4.3 35.3 3.8 C 35.3 3.4 35.4 3.2 35.4 3.1 C 35.4 3.1 35.4 3.1 35.4 3.1 C 35.4 3.1 35.3 3.1 35.3 3.1 C 35.3 3 35.3 3 35.3 3 C 35.3 3 35.3 3 35.3 2.9 C 35.3 2.9 35.3 2.9 35.4 2.9 C 35.4 2.9 35.4 2.8 35.5 2.8 C 35.5 2.8 35.6 2.9 35.6 2.9 C 35.7 2.9 36 2.8 36.4 2.8 C 36.6 2.7 36.6 2.7 36.6 2.7 C 36.6 2.7 36.7 2.7 36.7 2.7 C 36.8 2.7 36.9 2.8 36.9 2.9 C 36.9 2.9 36.9 3 36.9 3 C 36.8 3 36.8 3.1 36.8 3.1 Z M 38.4 4.5 C 38.5 4.4 38.6 4.4 38.6 4.4 C 38.7 4.4 38.7 4.4 38.7 4.5 C 38.7 4.6 38.6 4.7 38.4 4.8 C 38.2 4.9 38 5 37.8 5 C 37.6 5 37.4 4.9 37.3 4.8 C 37.1 4.7 37 4.5 37 4.3 C 37 4.1 37.1 3.8 37.3 3.6 C 37.4 3.3 37.6 3.1 37.9 2.9 C 38.1 2.7 38.3 2.6 38.5 2.6 C 38.7 2.6 38.8 2.7 38.9 2.7 C 38.9 2.8 39 2.9 39 3 C 39 3.1 39 3.2 38.9 3.3 C 38.9 3.3 38.9 3.4 38.8 3.4 C 38.8 3.4 38.7 3.4 38.7 3.4 C 38.7 3.4 38.6 3.4 38.6 3.4 C 38.6 3.4 38.6 3.3 38.6 3.3 C 38.6 3.3 38.6 3.2 38.6 3.2 C 38.6 3.1 38.6 3.1 38.6 3 C 38.6 2.9 38.6 2.9 38.5 2.9 C 38.4 2.9 38.2 3 38.1 3.1 C 37.9 3.3 37.7 3.5 37.6 3.7 C 37.5 3.9 37.4 4.1 37.4 4.3 C 37.4 4.4 37.5 4.5 37.5 4.6 C 37.6 4.7 37.7 4.7 37.8 4.7 C 37.9 4.7 38 4.7 38.1 4.6 C 38.2 4.6 38.3 4.5 38.4 4.5 C 38.4 4.5 38.4 4.5 38.4 4.5 Z M 40.8 3.1 C 40.8 3.1 40.4 3.1 40.4 3.1 C 40.2 3.1 40.1 3.1 39.9 3.1 C 39.8 3.1 39.8 3.2 39.8 3.2 C 39.8 3.2 39.7 3.2 39.7 3.3 C 39.7 3.3 39.7 3.4 39.7 3.5 C 39.7 3.6 39.7 3.7 39.6 3.7 C 39.7 3.7 39.8 3.7 39.9 3.7 C 40 3.7 40.1 3.7 40.2 3.7 C 40.3 3.7 40.4 3.6 40.5 3.6 C 40.6 3.6 40.7 3.7 40.7 3.8 C 40.7 3.8 40.7 3.9 40.7 3.9 C 40.6 3.9 40.6 4 40.5 4 C 40.4 4 40.3 4 40.3 4 C 40.2 4 40.2 4 40.1 4 C 39.9 4 39.7 4.1 39.7 4.1 C 39.7 4.1 39.6 4.1 39.6 4.1 C 39.6 4.1 39.6 4.1 39.6 4.1 C 39.6 4.1 39.6 4.2 39.6 4.3 C 39.5 4.5 39.5 4.6 39.5 4.6 C 39.5 4.6 39.6 4.7 39.6 4.7 C 39.6 4.7 39.8 4.6 40 4.6 C 40.2 4.6 40.3 4.6 40.3 4.6 C 40.5 4.5 40.6 4.5 40.6 4.5 C 40.7 4.5 40.8 4.6 40.8 4.7 C 40.8 4.7 40.8 4.8 40.7 4.8 C 40.6 4.8 40.5 4.9 40.3 4.9 C 40.2 4.9 40 4.9 39.9 4.9 C 39.7 5 39.5 5 39.4 5 C 39.3 5 39.2 5 39.2 4.9 C 39.2 4.9 39.1 4.8 39.1 4.8 C 39.1 4.8 39.1 4.7 39.1 4.7 C 39.1 4.7 39.1 4.7 39.2 4.6 C 39.2 4.5 39.2 4.3 39.3 3.8 C 39.4 3.4 39.4 3.2 39.4 3.1 C 39.4 3.1 39.4 3.1 39.4 3.1 C 39.4 3.1 39.4 3.1 39.3 3.1 C 39.3 3 39.3 3 39.3 3 C 39.3 3 39.3 3 39.3 2.9 C 39.3 2.9 39.4 2.9 39.4 2.9 C 39.4 2.9 39.5 2.8 39.5 2.8 C 39.5 2.8 39.6 2.9 39.6 2.9 C 39.7 2.9 40 2.8 40.4 2.8 C 40.6 2.7 40.7 2.7 40.7 2.7 C 40.7 2.7 40.7 2.7 40.7 2.7 C 40.9 2.7 40.9 2.8 40.9 2.9 C 40.9 2.9 40.9 3 40.9 3 C 40.9 3 40.8 3.1 40.8 3.1 Z M 42.9 4.2 C 42.8 4.2 42.7 4.2 42.7 4.2 C 42.7 4.4 42.7 4.6 42.7 4.8 C 42.7 4.8 42.7 4.9 42.6 4.9 C 42.6 4.9 42.6 5 42.5 5 C 42.4 5 42.3 4.9 42.3 4.8 C 42.3 4.7 42.4 4.4 42.4 4 C 42.5 3.6 42.5 3.4 42.5 3.3 C 42.5 3.2 42.5 3.2 42.5 3.2 C 42.4 3.2 42.4 3.1 42.4 3 C 42.4 2.9 42.5 2.9 42.8 2.8 C 43 2.7 43.3 2.7 43.5 2.7 C 43.7 2.7 43.9 2.8 44 2.8 C 44.1 2.9 44.2 3.1 44.2 3.2 C 44.2 3.4 44.1 3.6 43.8 3.8 C 43.6 4 43.3 4.1 42.9 4.2 C 42.9 4.2 42.9 4.2 42.9 4.2 Z M 43.4 3 C 43.3 3 43.1 3 42.9 3.1 C 42.9 3.1 42.8 3.9 42.8 3.9 C 43.1 3.8 43.3 3.8 43.5 3.6 C 43.7 3.5 43.8 3.4 43.8 3.2 C 43.8 3.1 43.7 3 43.4 3 C 43.4 3 43.4 3 43.4 3 Z M 44.5 3.1 C 44.5 3.1 44.5 3.08 44.5 3.1 C 44.5 3 44.5 3 44.5 3 C 44.5 2.9 44.5 2.9 44.5 2.8 C 44.6 2.8 44.6 2.8 44.7 2.8 C 44.7 2.8 44.7 2.8 44.7 2.8 C 44.8 2.8 44.8 2.8 44.8 2.8 C 45.1 2.8 45.3 2.7 45.4 2.7 C 45.6 2.7 45.8 2.8 45.9 2.9 C 46 3 46.1 3.1 46.1 3.3 C 46.1 3.4 46 3.6 45.9 3.7 C 45.8 3.8 45.6 3.9 45.4 4 C 45.7 4.3 46 4.5 46.2 4.6 C 46.3 4.6 46.3 4.7 46.3 4.7 C 46.3 4.8 46.3 4.8 46.2 4.8 C 46.2 4.9 46.1 4.9 46.1 4.9 C 46 4.9 46 4.9 45.9 4.8 C 45.8 4.8 45.7 4.7 45.6 4.6 C 45.5 4.5 45.4 4.4 45.4 4.4 C 45.2 4.3 45 4.2 45 4.1 C 44.9 4.1 44.8 4.1 44.8 4 C 44.8 3.9 44.8 3.9 44.9 3.8 C 44.9 3.8 45 3.8 45 3.8 C 45.1 3.8 45.1 3.8 45.1 3.8 C 45.1 3.8 45.1 3.8 45.1 3.8 C 45.2 3.8 45.3 3.7 45.5 3.6 C 45.6 3.5 45.7 3.4 45.7 3.3 C 45.7 3.2 45.7 3.1 45.6 3.1 C 45.6 3 45.5 3 45.4 3 C 45.2 3 45.1 3 45 3 C 45 3.1 44.9 3.1 44.9 3.1 C 44.9 3.1 44.9 3.1 44.9 3.1 C 44.9 3.2 44.8 3.3 44.8 3.4 C 44.8 3.6 44.8 3.8 44.7 4 C 44.7 4.2 44.7 4.4 44.7 4.5 C 44.7 4.5 44.7 4.6 44.7 4.6 C 44.7 4.7 44.7 4.7 44.7 4.8 C 44.7 4.8 44.7 4.8 44.7 4.9 C 44.6 4.9 44.6 4.9 44.5 4.9 C 44.4 4.9 44.3 4.9 44.3 4.7 C 44.3 4.5 44.3 4.3 44.4 4 C 44.4 3.8 44.4 3.5 44.5 3.3 C 44.5 3.3 44.5 3.2 44.5 3.2 C 44.5 3.21 44.5 3.1 44.5 3.1 Z M 47 3.4 C 46.9 3.5 46.9 3.6 46.9 3.6 C 46.9 3.7 46.9 3.7 46.9 3.9 C 46.9 4.1 46.8 4.2 46.8 4.3 C 46.8 4.4 46.8 4.5 46.9 4.7 C 46.9 4.8 46.9 4.8 46.8 4.9 C 46.8 4.9 46.7 4.9 46.7 4.9 C 46.6 4.9 46.5 4.9 46.5 4.8 C 46.5 4.8 46.5 4.7 46.5 4.5 C 46.5 4.4 46.5 4.2 46.5 3.9 C 46.5 3.9 46.6 3.3 46.6 3.3 C 46.6 3.2 46.6 3.1 46.7 3.1 C 46.7 2.9 46.7 2.9 46.7 2.9 C 46.7 2.8 46.7 2.8 46.8 2.8 C 46.8 2.8 46.9 2.7 46.9 2.7 C 46.9 2.7 47 2.8 47 2.8 C 47 2.9 47.1 2.9 47.1 3 C 47.1 3 47 3.4 47 3.4 Z M 49.5 2.9 C 49.5 2.9 49.5 2.9 49.5 2.9 C 49.5 2.9 49.5 2.9 49.4 3 C 49.3 3.2 49.2 3.3 49.1 3.4 C 49 3.5 48.9 3.8 48.7 4.1 C 48.6 4.2 48.6 4.4 48.5 4.4 C 48.4 4.5 48.4 4.7 48.4 4.7 C 48.3 4.8 48.3 4.8 48.3 4.8 C 48.2 4.9 48.1 4.9 48.1 4.9 C 48 4.9 48 4.9 48 4.8 C 47.9 4.8 47.9 4.7 47.9 4.5 C 47.8 4.4 47.7 4.2 47.6 3.9 C 47.4 3.3 47.3 3 47.3 3 C 47.3 3 47.3 2.9 47.3 2.9 C 47.3 2.8 47.4 2.8 47.5 2.8 C 47.5 2.8 47.6 2.8 47.6 2.8 C 47.6 2.9 47.7 3 47.7 3.1 C 47.7 3.2 47.8 3.4 47.9 3.7 C 48 4 48.1 4.3 48.2 4.4 C 48.2 4.4 48.2 4.3 48.3 4.2 C 48.3 4.2 48.3 4.2 48.3 4.2 C 48.4 4 48.5 3.8 48.6 3.6 C 48.8 3.3 48.9 3.1 49.1 2.9 C 49.2 2.8 49.3 2.7 49.3 2.7 C 49.4 2.7 49.5 2.7 49.5 2.8 C 49.49 2.84 49.5 2.9 49.5 2.9 C 49.5 2.9 49.49 2.85 49.5 2.9 Z M 49.9 3.4 C 49.9 3.5 49.9 3.6 49.9 3.6 C 49.9 3.7 49.9 3.7 49.9 3.9 C 49.8 4.1 49.8 4.2 49.8 4.3 C 49.8 4.4 49.8 4.5 49.8 4.7 C 49.8 4.8 49.8 4.8 49.8 4.9 C 49.7 4.9 49.7 4.9 49.6 4.9 C 49.6 4.9 49.5 4.9 49.5 4.8 C 49.5 4.8 49.4 4.7 49.4 4.5 C 49.4 4.4 49.5 4.2 49.5 3.9 C 49.5 3.9 49.6 3.3 49.6 3.3 C 49.6 3.2 49.6 3.1 49.6 3.1 C 49.6 2.9 49.7 2.9 49.7 2.9 C 49.7 2.8 49.7 2.8 49.8 2.8 C 49.8 2.8 49.8 2.7 49.9 2.7 C 49.9 2.7 50 2.8 50 2.8 C 50 2.9 50 2.9 50 3 C 50 3 49.9 3.4 49.9 3.4 Z M 51.7 4.8 C 51.7 4.8 51.6 4.8 51.6 4.8 C 51.5 4.8 51.5 4.8 51.5 4.8 C 51.2 4.8 50.9 4.8 50.7 4.9 C 50.6 4.9 50.5 5 50.5 5 C 50.4 5 50.4 4.9 50.3 4.9 C 50.3 4.8 50.3 4.8 50.3 4.8 C 50.3 4.7 50.3 4.7 50.3 4.6 C 50.3 4.5 50.3 4.4 50.4 4.3 C 50.4 4.3 50.5 3.1 50.5 3.1 C 50.5 3 50.5 2.9 50.5 2.9 C 50.5 2.8 50.5 2.8 50.6 2.8 C 50.6 2.8 50.7 2.7 50.7 2.7 C 50.8 2.7 50.8 2.8 50.8 2.8 C 50.9 2.8 50.9 2.9 50.9 2.9 C 50.9 2.9 50.9 3 50.9 3.1 C 50.8 3.2 50.8 3.5 50.8 3.9 C 50.7 4.3 50.7 4.5 50.7 4.5 C 50.7 4.5 50.7 4.6 50.7 4.6 C 50.7 4.6 50.8 4.5 51 4.5 C 51.1 4.5 51.2 4.5 51.3 4.5 C 51.5 4.5 51.6 4.5 51.7 4.4 C 51.8 4.4 51.8 4.4 51.8 4.4 C 51.8 4.4 51.9 4.4 51.9 4.5 C 52 4.5 52 4.5 52 4.6 C 52 4.7 51.9 4.7 51.9 4.7 C 51.8 4.8 51.8 4.8 51.7 4.8 Z M 53.8 3.1 C 53.8 3.1 53.3 3.1 53.3 3.1 C 53.2 3.1 53 3.1 52.9 3.1 C 52.8 3.1 52.8 3.2 52.7 3.2 C 52.7 3.2 52.7 3.2 52.7 3.3 C 52.7 3.3 52.7 3.4 52.7 3.5 C 52.6 3.6 52.6 3.7 52.6 3.7 C 52.7 3.7 52.8 3.7 52.9 3.7 C 53 3.7 53.1 3.7 53.1 3.7 C 53.3 3.7 53.4 3.6 53.5 3.6 C 53.6 3.6 53.7 3.7 53.7 3.8 C 53.7 3.8 53.7 3.9 53.6 3.9 C 53.6 3.9 53.5 4 53.4 4 C 53.4 4 53.3 4 53.2 4 C 53.2 4 53.2 4 53.1 4 C 52.8 4 52.7 4.1 52.6 4.1 C 52.6 4.1 52.6 4.1 52.6 4.1 C 52.6 4.1 52.6 4.1 52.6 4.1 C 52.6 4.1 52.6 4.2 52.5 4.3 C 52.5 4.5 52.5 4.6 52.5 4.6 C 52.5 4.6 52.5 4.7 52.6 4.7 C 52.6 4.7 52.7 4.6 52.9 4.6 C 53.1 4.6 53.3 4.6 53.3 4.6 C 53.5 4.5 53.5 4.5 53.6 4.5 C 53.7 4.5 53.8 4.6 53.8 4.7 C 53.8 4.7 53.8 4.8 53.7 4.8 C 53.6 4.8 53.5 4.9 53.3 4.9 C 53.2 4.9 53 4.9 52.8 4.9 C 52.7 5 52.5 5 52.4 5 C 52.3 5 52.2 5 52.2 4.9 C 52.1 4.9 52.1 4.8 52.1 4.8 C 52.1 4.8 52.1 4.7 52.1 4.7 C 52.1 4.7 52.1 4.7 52.1 4.6 C 52.2 4.5 52.2 4.3 52.3 3.8 C 52.3 3.4 52.4 3.2 52.4 3.1 C 52.4 3.1 52.4 3.1 52.4 3.1 C 52.4 3.1 52.3 3.1 52.3 3.1 C 52.3 3 52.3 3 52.3 3 C 52.3 3 52.3 3 52.3 2.9 C 52.3 2.9 52.3 2.9 52.4 2.9 C 52.4 2.9 52.4 2.8 52.5 2.8 C 52.5 2.8 52.6 2.9 52.6 2.9 C 52.7 2.9 53 2.8 53.4 2.8 C 53.6 2.7 53.6 2.7 53.6 2.7 C 53.6 2.7 53.7 2.7 53.7 2.7 C 53.8 2.7 53.9 2.8 53.9 2.9 C 53.9 2.9 53.9 3 53.9 3 C 53.8 3 53.8 3.1 53.8 3.1 Z M 53.7 2.2 C 53.7 2.2 53.6 2.2 53.5 2.3 C 53.5 2.3 53.5 2.3 53.5 2.3 C 53.5 2.3 53.4 2.4 53.3 2.5 C 53.2 2.5 53.2 2.5 53.2 2.5 C 53.2 2.6 53.1 2.6 53.1 2.6 C 53.1 2.6 53.1 2.5 53 2.5 C 53 2.5 53 2.5 53 2.4 C 53 2.4 53.1 2.3 53.2 2.2 C 53.2 2.2 53.2 2.2 53.2 2.2 C 53.2 2.2 53.3 2.1 53.3 2.1 C 53.5 2 53.6 1.9 53.6 1.9 C 53.7 1.8 53.7 1.8 53.7 1.8 C 53.8 1.8 53.8 1.8 53.8 1.9 C 53.9 1.9 53.9 2 53.9 2 C 53.9 2 53.9 2 53.8 2.1 C 53.8 2.1 53.8 2.1 53.7 2.2 C 53.7 2.2 53.7 2.2 53.7 2.2 Z M 56 3.9 C 56 4 55.9 4.1 55.9 4.2 C 55.9 4.2 55.9 4.2 55.9 4.2 C 55.9 4.2 55.9 4.3 55.8 4.5 C 55.8 4.6 55.8 4.7 55.8 4.8 C 55.8 4.9 55.8 5 55.8 5 C 55.8 5 55.8 5.1 55.8 5.1 C 55.8 5.1 55.7 5.2 55.7 5.2 C 55.7 5.2 55.6 5.2 55.6 5.2 C 55.6 5.2 55.5 5.2 55.5 5.1 C 55.4 5.1 55.4 5.1 55.4 5 C 55.4 5 55.4 4.9 55.4 4.8 C 55.5 4.7 55.5 4.6 55.5 4.5 C 55.2 4.7 54.9 4.9 54.6 4.9 C 54.4 4.9 54.3 4.8 54.2 4.7 C 54.1 4.6 54.1 4.5 54.1 4.3 C 54.1 4 54.1 3.8 54.3 3.5 C 54.3 3.5 54.3 3.5 54.3 3.5 C 54.5 3.2 54.7 3 54.9 2.9 C 55.2 2.7 55.4 2.6 55.7 2.6 C 55.8 2.6 55.9 2.7 56 2.7 C 56 2.7 56.1 2.8 56.1 2.9 C 56.1 2.9 56.1 3 56 3.1 C 56 3.1 55.9 3.2 55.9 3.2 C 55.8 3.2 55.8 3.2 55.8 3.2 C 55.8 3.1 55.7 3.1 55.7 3.1 C 55.7 3 55.7 3 55.7 3 C 55.6 3 55.6 3 55.6 3 C 55.4 3 55.2 3 55.1 3.2 C 54.9 3.3 54.7 3.5 54.6 3.7 C 54.5 3.9 54.4 4.1 54.4 4.3 C 54.4 4.5 54.5 4.6 54.7 4.6 C 54.7 4.6 54.8 4.5 55 4.5 C 55.1 4.5 55.2 4.4 55.3 4.3 C 55.5 4.2 55.6 4.1 55.6 4 C 55.6 4 55.6 3.9 55.6 3.8 C 55.6 3.7 55.7 3.7 55.7 3.7 C 55.7 3.7 55.8 3.6 55.8 3.6 C 56 3.6 56 3.7 56 3.8 C 56 3.8 56 3.9 56 3.9 C 56 3.9 56 3.9 56 3.9 Z M 56.9 3.4 C 56.9 3.5 56.8 3.6 56.8 3.6 C 56.8 3.7 56.8 3.7 56.8 3.9 C 56.8 4.1 56.8 4.2 56.8 4.3 C 56.8 4.4 56.8 4.5 56.8 4.7 C 56.8 4.8 56.8 4.8 56.7 4.9 C 56.7 4.9 56.6 4.9 56.6 4.9 C 56.5 4.9 56.5 4.9 56.4 4.8 C 56.4 4.8 56.4 4.7 56.4 4.5 C 56.4 4.4 56.4 4.2 56.5 3.9 C 56.5 3.9 56.5 3.3 56.5 3.3 C 56.6 3.2 56.6 3.1 56.6 3.1 C 56.6 2.9 56.6 2.9 56.6 2.9 C 56.6 2.8 56.7 2.8 56.7 2.8 C 56.8 2.8 56.8 2.7 56.8 2.7 C 56.9 2.7 56.9 2.8 56.9 2.8 C 57 2.9 57 2.9 57 3 C 57 3 56.9 3.4 56.9 3.4 Z M 57.8 5 C 57.7 5 57.5 4.9 57.4 4.7 C 57.3 4.6 57.2 4.4 57.2 4.2 C 57.2 4 57.3 3.8 57.4 3.6 C 57.5 3.3 57.7 3.1 57.8 3 C 58 2.8 58.2 2.7 58.5 2.7 C 58.6 2.7 58.7 2.8 58.9 2.8 C 59 2.8 59.1 2.9 59.1 3 C 59.2 3 59.3 3.1 59.3 3.2 C 59.4 3.3 59.4 3.4 59.4 3.5 C 59.4 3.7 59.3 3.8 59.3 4 C 59.2 4.2 59.1 4.3 58.9 4.5 C 58.8 4.6 58.6 4.8 58.4 4.8 C 58.3 4.9 58.1 5 57.8 5 Z M 57.6 4.2 C 57.6 4.4 57.6 4.5 57.7 4.5 C 57.7 4.6 57.8 4.7 57.9 4.7 C 58.2 4.7 58.4 4.5 58.7 4.3 C 58.9 4 59 3.8 59 3.5 C 59 3.4 59 3.3 58.9 3.2 C 58.9 3.2 58.8 3.1 58.7 3.1 C 58.7 3 58.6 3 58.5 3 C 58.3 3 58.1 3.2 57.9 3.4 C 57.7 3.7 57.6 4 57.6 4.2 Z M 61.2 3 C 61.2 3.2 61.1 3.3 60.9 3.3 C 60.9 3.2 60.9 3.1 60.9 3.1 C 60.8 3.1 60.7 3 60.6 3 C 60.5 3 60.3 3.1 60.2 3.2 C 60 3.2 60 3.3 60 3.4 C 60 3.5 60 3.5 60.1 3.6 C 60.1 3.6 60.2 3.7 60.5 3.7 C 60.7 3.8 60.9 3.9 61 4 C 61.1 4.1 61.2 4.1 61.2 4.3 C 61.2 4.4 61 4.6 60.7 4.8 C 60.4 4.9 60.1 5 59.8 5 C 59.7 5 59.6 5 59.6 5 C 59.5 4.9 59.5 4.9 59.5 4.8 C 59.5 4.7 59.5 4.7 59.5 4.7 C 59.6 4.6 59.6 4.6 59.6 4.6 C 59.7 4.6 59.7 4.6 59.7 4.6 C 59.8 4.7 59.9 4.7 60 4.7 C 60.1 4.7 60.3 4.6 60.5 4.5 C 60.7 4.5 60.8 4.4 60.8 4.3 C 60.8 4.3 60.8 4.2 60.7 4.2 C 60.7 4.2 60.6 4.1 60.4 4.1 C 60.2 4 60.1 3.9 59.9 3.9 C 59.8 3.9 59.8 3.8 59.7 3.7 C 59.6 3.7 59.6 3.6 59.6 3.5 C 59.6 3.3 59.7 3.1 59.9 3 C 60.2 2.8 60.4 2.7 60.7 2.7 C 60.9 2.7 61 2.8 61.1 2.8 C 61.2 2.9 61.2 3 61.2 3 C 61.2 3 61.2 3 61.2 3 Z " stroke="none" fill="#000"/>  </g></svg>