<?xml version="1.0" standalone="no"?><!DOCTYPE svg PUBLIC "-//W3C//DTD SVG 1.1//EN" "http://www.w3.org/Graphics/SVG/1.1/DTD/svg11.dtd"><svg xmlns="http://www.w3.org/2000/svg" version="1.1" width="43.3px" height="26.9px" viewBox="0 -1 43.3 26.9" style="top:-1px">  <desc>INEFICI NCIA DO GOVERNO... SOBRARIA 2 VEZES MAIS DINHEIRO NO BOLSO DE CADA UM!</desc>  <defs/>  <g id="Polygon14110">    <path d="M 6.1 18.3 C 6.3 18.3 6.4 18.4 6.5 18.5 C 6.5 18.6 6.6 18.7 6.6 18.8 C 6.6 19 6.4 19.2 6.2 19.4 C 6 19.6 5.7 19.7 5.5 19.7 C 5.3 19.7 5.2 19.6 5.2 19.5 C 5.2 19.4 5.3 19.3 5.5 19.3 C 5.5 19.3 5.6 19.3 5.6 19.3 C 5.7 19.3 5.8 19.2 6 19.1 C 6.1 19 6.2 18.9 6.2 18.8 C 6.2 18.7 6.2 18.7 6.1 18.6 C 6 18.6 6 18.5 5.9 18.5 C 5.9 18.5 5.8 18.5 5.8 18.6 C 5.7 18.6 5.6 18.6 5.6 18.6 C 5.5 18.6 5.4 18.6 5.4 18.6 C 5.4 18.6 5.4 18.5 5.4 18.4 C 5.4 18.4 5.5 18.3 5.7 18.3 C 5.8 18.2 5.9 18.1 6 18 C 6.1 17.9 6.2 17.8 6.2 17.7 C 6.2 17.7 6.1 17.6 6 17.6 C 5.8 17.6 5.7 17.6 5.6 17.6 C 5.5 17.7 5.4 17.7 5.4 17.8 C 5.4 17.8 5.3 18 5.3 18.4 C 5.2 18.8 5.2 19.1 5.2 19.1 C 5.2 19.1 5.2 19.3 5.2 19.3 C 5.2 19.4 5.1 19.5 5.1 19.5 C 5.1 19.5 5 19.6 5 19.6 C 4.8 19.6 4.8 19.5 4.8 19.3 C 4.8 19.3 4.8 19.2 4.8 19.2 C 4.8 19 4.9 18.7 4.9 18.4 C 5 18.1 5 17.9 5 17.9 C 5 17.9 5 17.8 4.9 17.8 C 4.9 17.8 4.9 17.8 4.9 17.8 C 4.9 17.8 4.9 17.8 4.8 17.8 C 4.8 17.8 4.8 17.8 4.8 17.8 C 4.8 17.7 4.8 17.7 4.8 17.7 C 4.8 17.6 4.9 17.5 5.2 17.4 C 5.5 17.3 5.7 17.3 6 17.3 C 6.2 17.3 6.3 17.3 6.4 17.4 C 6.5 17.5 6.6 17.6 6.6 17.7 C 6.6 17.8 6.5 17.9 6.5 18 C 6.4 18 6.3 18.2 6.1 18.3 Z M 7.4 19.6 C 7.3 19.6 7.1 19.5 7 19.3 C 6.9 19.2 6.8 19 6.8 18.8 C 6.8 18.6 6.9 18.4 7 18.2 C 7.1 17.9 7.3 17.7 7.5 17.6 C 7.7 17.4 7.9 17.3 8.1 17.3 C 8.2 17.3 8.4 17.4 8.5 17.4 C 8.6 17.4 8.7 17.5 8.8 17.6 C 8.9 17.6 8.9 17.7 8.9 17.8 C 9 17.9 9 18 9 18.1 C 9 18.3 8.9 18.4 8.9 18.6 C 8.8 18.8 8.7 18.9 8.5 19.1 C 8.4 19.2 8.2 19.4 8.1 19.4 C 7.9 19.5 7.7 19.6 7.4 19.6 Z M 7.2 18.8 C 7.2 19 7.2 19.1 7.3 19.1 C 7.4 19.2 7.4 19.3 7.5 19.3 C 7.8 19.3 8 19.1 8.3 18.9 C 8.5 18.6 8.6 18.4 8.6 18.1 C 8.6 18 8.6 17.9 8.6 17.8 C 8.5 17.8 8.5 17.7 8.4 17.7 C 8.3 17.6 8.2 17.6 8.1 17.6 C 7.9 17.6 7.7 17.8 7.5 18 C 7.3 18.3 7.2 18.6 7.2 18.8 Z M 10.6 19.4 C 10.6 19.4 10.6 19.4 10.5 19.4 C 10.4 19.4 10.4 19.4 10.4 19.4 C 10.1 19.4 9.9 19.4 9.6 19.5 C 9.5 19.5 9.4 19.6 9.4 19.6 C 9.3 19.6 9.3 19.5 9.2 19.5 C 9.2 19.4 9.2 19.4 9.2 19.4 C 9.2 19.3 9.2 19.3 9.2 19.2 C 9.2 19.1 9.3 19 9.3 18.9 C 9.3 18.9 9.4 17.7 9.4 17.7 C 9.4 17.6 9.4 17.5 9.4 17.5 C 9.4 17.4 9.5 17.4 9.5 17.4 C 9.5 17.4 9.6 17.3 9.6 17.3 C 9.7 17.3 9.7 17.4 9.8 17.4 C 9.8 17.4 9.8 17.5 9.8 17.5 C 9.8 17.5 9.8 17.6 9.8 17.7 C 9.8 17.8 9.7 18.1 9.7 18.5 C 9.6 18.9 9.6 19.1 9.6 19.1 C 9.6 19.1 9.6 19.2 9.6 19.2 C 9.7 19.2 9.8 19.1 9.9 19.1 C 10 19.1 10.1 19.1 10.2 19.1 C 10.4 19.1 10.6 19.1 10.6 19 C 10.7 19 10.7 19 10.7 19 C 10.8 19 10.8 19 10.8 19.1 C 10.9 19.1 10.9 19.1 10.9 19.2 C 10.9 19.3 10.9 19.3 10.8 19.3 C 10.8 19.4 10.7 19.4 10.6 19.4 Z M 12.7 17.6 C 12.7 17.8 12.6 17.9 12.4 17.9 C 12.4 17.8 12.4 17.7 12.3 17.7 C 12.3 17.7 12.2 17.6 12.1 17.6 C 11.9 17.6 11.8 17.7 11.6 17.8 C 11.5 17.8 11.4 17.9 11.4 18 C 11.4 18.1 11.4 18.1 11.5 18.2 C 11.5 18.2 11.7 18.3 11.9 18.3 C 12.1 18.4 12.3 18.5 12.4 18.6 C 12.5 18.7 12.6 18.7 12.6 18.9 C 12.6 19 12.4 19.2 12.2 19.4 C 11.9 19.5 11.6 19.6 11.3 19.6 C 11.2 19.6 11.1 19.6 11 19.6 C 11 19.5 10.9 19.5 10.9 19.4 C 10.9 19.3 10.9 19.3 11 19.3 C 11 19.2 11 19.2 11.1 19.2 C 11.1 19.2 11.1 19.2 11.1 19.2 C 11.2 19.3 11.3 19.3 11.4 19.3 C 11.6 19.3 11.7 19.2 11.9 19.1 C 12.1 19.1 12.2 19 12.2 18.9 C 12.2 18.9 12.2 18.8 12.2 18.8 C 12.1 18.8 12 18.7 11.9 18.7 C 11.7 18.6 11.5 18.6 11.4 18.5 C 11.3 18.5 11.2 18.4 11.1 18.3 C 11.1 18.3 11.1 18.2 11.1 18.1 C 11.1 17.9 11.2 17.7 11.4 17.6 C 11.6 17.4 11.8 17.3 12.1 17.3 C 12.3 17.3 12.4 17.4 12.5 17.4 C 12.6 17.5 12.7 17.6 12.7 17.6 C 12.7 17.6 12.7 17.6 12.7 17.6 Z M 13.5 19.6 C 13.3 19.6 13.1 19.5 13 19.3 C 12.9 19.2 12.8 19 12.8 18.8 C 12.8 18.6 12.9 18.4 13 18.2 C 13.1 17.9 13.3 17.7 13.5 17.6 C 13.7 17.4 13.9 17.3 14.1 17.3 C 14.2 17.3 14.4 17.4 14.5 17.4 C 14.6 17.4 14.7 17.5 14.8 17.6 C 14.9 17.6 14.9 17.7 15 17.8 C 15 17.9 15 18 15 18.1 C 15 18.3 15 18.4 14.9 18.6 C 14.8 18.8 14.7 18.9 14.5 19.1 C 14.4 19.2 14.2 19.4 14.1 19.4 C 13.9 19.5 13.7 19.6 13.5 19.6 Z M 13.2 18.8 C 13.2 19 13.2 19.1 13.3 19.1 C 13.4 19.2 13.5 19.3 13.5 19.3 C 13.8 19.3 14.1 19.1 14.3 18.9 C 14.5 18.6 14.6 18.4 14.6 18.1 C 14.6 18 14.6 17.9 14.6 17.8 C 14.5 17.8 14.5 17.7 14.4 17.7 C 14.3 17.6 14.2 17.6 14.1 17.6 C 13.9 17.6 13.7 17.8 13.5 18 C 13.3 18.3 13.2 18.6 13.2 18.8 Z M 16.4 19.2 C 16.5 19.2 16.5 19.1 16.5 19 C 16.5 18.6 16.5 18.3 16.6 17.9 C 16.6 17.8 16.6 17.8 16.6 17.7 C 16.6 17.7 16.6 17.7 16.6 17.7 C 16.5 17.7 16.4 17.6 16.4 17.6 C 16.4 17.5 16.5 17.5 16.5 17.4 C 16.5 17.4 16.6 17.4 16.6 17.4 C 16.6 17.4 16.8 17.4 16.8 17.4 C 16.9 17.4 17 17.4 17.2 17.4 C 17.3 17.3 17.4 17.3 17.5 17.3 C 17.8 17.3 18 17.4 18.2 17.6 C 18.4 17.7 18.4 17.9 18.4 18.2 C 18.4 18.5 18.3 18.7 18.1 18.9 C 17.8 19.2 17.5 19.3 17.1 19.4 C 17 19.4 16.9 19.4 16.9 19.5 C 16.9 19.5 16.8 19.5 16.8 19.5 C 16.7 19.6 16.6 19.6 16.6 19.6 C 16.5 19.6 16.5 19.6 16.4 19.5 C 16.4 19.5 16.4 19.4 16.4 19.4 C 16.4 19.4 16.4 19.4 16.4 19.3 C 16.4 19.3 16.4 19.2 16.4 19.2 Z M 16.8 19.1 C 16.8 19.1 16.8 19.1 16.8 19.2 C 16.9 19.2 17 19.1 17.3 19.1 C 17.5 19 17.7 18.9 17.9 18.7 C 18 18.5 18.1 18.4 18.1 18.2 C 18.1 18 18 17.9 17.9 17.8 C 17.8 17.7 17.7 17.6 17.5 17.6 C 17.4 17.6 17.2 17.6 17 17.7 C 17 17.7 17 17.7 17 17.7 C 16.9 18.3 16.8 18.8 16.8 19.1 C 16.8 19.1 16.8 19.1 16.8 19.1 Z M 20.4 17.7 C 20.4 17.7 19.9 17.7 19.9 17.7 C 19.7 17.7 19.6 17.7 19.5 17.7 C 19.4 17.7 19.3 17.8 19.3 17.8 C 19.3 17.8 19.3 17.8 19.3 17.9 C 19.3 17.9 19.3 18 19.2 18.1 C 19.2 18.2 19.2 18.3 19.2 18.3 C 19.3 18.3 19.3 18.3 19.5 18.3 C 19.6 18.3 19.7 18.3 19.7 18.3 C 19.9 18.3 20 18.2 20 18.2 C 20.2 18.2 20.3 18.3 20.3 18.4 C 20.3 18.4 20.3 18.5 20.2 18.5 C 20.2 18.5 20.1 18.6 20 18.6 C 19.9 18.6 19.9 18.6 19.8 18.6 C 19.8 18.6 19.7 18.6 19.7 18.6 C 19.4 18.6 19.2 18.7 19.2 18.7 C 19.2 18.7 19.2 18.7 19.2 18.7 C 19.2 18.7 19.2 18.7 19.2 18.7 C 19.1 18.7 19.1 18.8 19.1 18.9 C 19.1 19.1 19.1 19.2 19.1 19.2 C 19.1 19.2 19.1 19.3 19.1 19.3 C 19.2 19.3 19.3 19.2 19.5 19.2 C 19.7 19.2 19.8 19.2 19.9 19.2 C 20 19.1 20.1 19.1 20.2 19.1 C 20.3 19.1 20.3 19.2 20.3 19.3 C 20.3 19.3 20.3 19.4 20.3 19.4 C 20.2 19.4 20.1 19.5 19.9 19.5 C 19.8 19.5 19.6 19.5 19.4 19.5 C 19.2 19.6 19.1 19.6 18.9 19.6 C 18.8 19.6 18.8 19.6 18.7 19.5 C 18.7 19.5 18.7 19.4 18.7 19.4 C 18.7 19.4 18.7 19.3 18.7 19.3 C 18.7 19.3 18.7 19.3 18.7 19.2 C 18.7 19.1 18.8 18.9 18.9 18.4 C 18.9 18 18.9 17.8 18.9 17.7 C 18.9 17.7 18.9 17.7 18.9 17.7 C 18.9 17.7 18.9 17.7 18.9 17.7 C 18.9 17.6 18.9 17.6 18.9 17.6 C 18.9 17.6 18.9 17.6 18.9 17.5 C 18.9 17.5 18.9 17.5 18.9 17.5 C 19 17.5 19 17.4 19 17.4 C 19.1 17.4 19.1 17.5 19.2 17.5 C 19.3 17.5 19.5 17.4 20 17.4 C 20.1 17.3 20.2 17.3 20.2 17.3 C 20.2 17.3 20.2 17.3 20.2 17.3 C 20.4 17.3 20.5 17.4 20.5 17.5 C 20.5 17.5 20.5 17.6 20.4 17.6 C 20.4 17.6 20.4 17.7 20.4 17.7 Z M 23.1 19.1 C 23.2 19 23.3 19 23.3 19 C 23.4 19 23.4 19 23.4 19.1 C 23.4 19.2 23.3 19.3 23.1 19.4 C 22.9 19.5 22.7 19.6 22.5 19.6 C 22.3 19.6 22.1 19.5 22 19.4 C 21.8 19.3 21.8 19.1 21.8 18.9 C 21.8 18.7 21.8 18.4 22 18.2 C 22.1 17.9 22.3 17.7 22.6 17.5 C 22.8 17.3 23 17.2 23.2 17.2 C 23.4 17.2 23.5 17.3 23.6 17.3 C 23.6 17.4 23.7 17.5 23.7 17.6 C 23.7 17.7 23.7 17.8 23.6 17.9 C 23.6 17.9 23.6 18 23.5 18 C 23.5 18 23.4 18 23.4 18 C 23.4 18 23.3 18 23.3 18 C 23.3 18 23.3 17.9 23.3 17.9 C 23.3 17.9 23.3 17.8 23.3 17.8 C 23.3 17.7 23.3 17.7 23.3 17.6 C 23.3 17.5 23.3 17.5 23.2 17.5 C 23.1 17.5 22.9 17.6 22.8 17.7 C 22.6 17.9 22.4 18.1 22.3 18.3 C 22.2 18.5 22.1 18.7 22.1 18.9 C 22.1 19 22.2 19.1 22.2 19.2 C 22.3 19.3 22.4 19.3 22.5 19.3 C 22.6 19.3 22.7 19.3 22.8 19.2 C 22.9 19.2 23 19.1 23.1 19.1 C 23.1 19.1 23.1 19.1 23.1 19.1 Z M 24.3 19 C 24.2 19 24.2 19 24.2 19 C 24.2 19 24.1 19.1 24 19.3 C 24 19.4 23.9 19.5 23.9 19.5 C 23.8 19.5 23.8 19.5 23.8 19.5 C 23.7 19.5 23.7 19.5 23.7 19.5 C 23.6 19.4 23.6 19.4 23.6 19.4 C 23.6 19.3 23.7 19.1 23.9 18.7 C 24.1 18.5 24.2 18.3 24.3 18.1 C 24.5 17.7 24.7 17.5 24.7 17.4 C 24.8 17.4 24.8 17.3 24.9 17.3 C 25 17.3 25 17.3 25.1 17.4 C 25.1 17.4 25.1 17.4 25.1 17.5 C 25.1 17.5 25.1 17.6 25.1 17.6 C 25.2 18.1 25.4 18.5 25.5 18.7 C 25.6 19 25.7 19.1 25.8 19.2 C 25.8 19.3 25.9 19.3 25.9 19.3 C 25.9 19.4 25.9 19.4 25.9 19.4 C 25.9 19.5 25.9 19.5 25.8 19.5 C 25.8 19.6 25.8 19.6 25.7 19.6 C 25.6 19.6 25.6 19.6 25.5 19.5 C 25.4 19.4 25.3 19.3 25.3 19.1 C 25.2 19 25.2 18.9 25.2 18.9 C 25.2 18.9 25.2 18.9 25.2 18.9 C 25.1 18.9 25 18.9 24.8 18.9 C 24.6 18.9 24.5 19 24.4 19 C 24.3 19 24.3 19 24.3 19 C 24.3 19 24.3 19 24.3 19 Z M 24.9 18.6 C 25 18.6 25 18.6 25 18.6 C 25 18.5 25 18.3 24.8 17.9 C 24.8 17.9 24.8 17.9 24.8 17.9 C 24.8 17.9 24.4 18.7 24.4 18.7 C 24.5 18.7 24.5 18.6 24.6 18.6 C 24.6 18.6 24.7 18.6 24.9 18.6 C 24.9 18.6 24.9 18.6 24.9 18.6 Z M 26.2 19.2 C 26.2 19.2 26.2 19.1 26.2 19 C 26.2 18.6 26.2 18.3 26.3 17.9 C 26.3 17.8 26.3 17.8 26.3 17.7 C 26.3 17.7 26.3 17.7 26.3 17.7 C 26.2 17.7 26.2 17.6 26.2 17.6 C 26.2 17.5 26.2 17.5 26.2 17.4 C 26.3 17.4 26.3 17.4 26.3 17.4 C 26.3 17.4 26.5 17.4 26.5 17.4 C 26.6 17.4 26.8 17.4 26.9 17.4 C 27.1 17.3 27.2 17.3 27.2 17.3 C 27.5 17.3 27.7 17.4 27.9 17.6 C 28.1 17.7 28.2 17.9 28.2 18.2 C 28.2 18.5 28 18.7 27.8 18.9 C 27.5 19.2 27.2 19.3 26.8 19.4 C 26.7 19.4 26.7 19.4 26.6 19.5 C 26.6 19.5 26.5 19.5 26.5 19.5 C 26.4 19.6 26.3 19.6 26.3 19.6 C 26.2 19.6 26.2 19.6 26.1 19.5 C 26.1 19.5 26.1 19.4 26.1 19.4 C 26.1 19.4 26.1 19.4 26.1 19.3 C 26.1 19.3 26.2 19.2 26.2 19.2 Z M 26.5 19.1 C 26.5 19.1 26.5 19.1 26.5 19.2 C 26.6 19.2 26.7 19.1 27 19.1 C 27.2 19 27.4 18.9 27.6 18.7 C 27.7 18.5 27.8 18.4 27.8 18.2 C 27.8 18 27.7 17.9 27.6 17.8 C 27.5 17.7 27.4 17.6 27.2 17.6 C 27.1 17.6 26.9 17.6 26.7 17.7 C 26.7 17.7 26.7 17.7 26.7 17.7 C 26.6 18.3 26.5 18.8 26.5 19.1 C 26.5 19.1 26.5 19.1 26.5 19.1 Z M 28.8 19 C 28.7 19 28.7 19 28.7 19 C 28.6 19 28.6 19.1 28.5 19.3 C 28.4 19.4 28.4 19.5 28.3 19.5 C 28.3 19.5 28.3 19.5 28.2 19.5 C 28.2 19.5 28.2 19.5 28.1 19.5 C 28.1 19.4 28 19.4 28 19.4 C 28 19.3 28.2 19.1 28.4 18.7 C 28.5 18.5 28.7 18.3 28.8 18.1 C 29 17.7 29.1 17.5 29.2 17.4 C 29.2 17.4 29.3 17.3 29.3 17.3 C 29.4 17.3 29.5 17.3 29.5 17.4 C 29.5 17.4 29.5 17.4 29.5 17.5 C 29.5 17.5 29.5 17.6 29.5 17.6 C 29.7 18.1 29.9 18.5 30 18.7 C 30.1 19 30.2 19.1 30.3 19.2 C 30.3 19.3 30.3 19.3 30.4 19.3 C 30.4 19.4 30.4 19.4 30.4 19.4 C 30.4 19.5 30.3 19.5 30.3 19.5 C 30.3 19.6 30.2 19.6 30.2 19.6 C 30.1 19.6 30 19.6 29.9 19.5 C 29.9 19.4 29.8 19.3 29.7 19.1 C 29.7 19 29.6 18.9 29.6 18.9 C 29.6 18.9 29.6 18.9 29.6 18.9 C 29.6 18.9 29.4 18.9 29.3 18.9 C 29.1 18.9 28.9 19 28.8 19 C 28.8 19 28.8 19 28.8 19 C 28.8 19 28.8 19 28.8 19 Z M 29.4 18.6 C 29.4 18.6 29.5 18.6 29.5 18.6 C 29.5 18.5 29.4 18.3 29.3 17.9 C 29.3 17.9 29.3 17.9 29.3 17.9 C 29.3 17.9 28.9 18.7 28.9 18.7 C 28.9 18.7 29 18.6 29.1 18.6 C 29.1 18.6 29.2 18.6 29.4 18.6 C 29.4 18.6 29.4 18.6 29.4 18.6 Z M 32.5 19.6 C 32.4 19.6 32.3 19.5 32.2 19.5 C 32 19.4 31.9 19.3 31.8 19.1 C 31.8 19 31.7 18.8 31.7 18.6 C 31.7 18.5 31.7 18.4 31.8 18.3 C 31.8 18.3 31.8 18 31.8 18 C 31.8 17.9 31.8 17.9 31.8 17.9 C 31.8 17.8 31.9 17.7 31.9 17.7 C 31.9 17.6 31.9 17.5 31.9 17.4 C 32 17.4 32 17.3 32.1 17.3 C 32.1 17.3 32.2 17.4 32.2 17.4 C 32.2 17.5 32.3 17.5 32.3 17.6 C 32.3 17.6 32.2 17.7 32.2 17.9 C 32.2 17.9 32.2 18 32.1 18.2 C 32.1 18.4 32.1 18.6 32.1 18.6 C 32.1 18.9 32.1 19 32.2 19.1 C 32.4 19.2 32.4 19.3 32.5 19.3 C 32.8 19.3 32.9 19.2 33 19.1 C 33.1 19 33.2 18.8 33.2 18.6 C 33.2 18.5 33.2 18.5 33.2 18.4 C 33.2 18.3 33.3 18.3 33.3 18.2 C 33.3 17.8 33.3 17.6 33.4 17.5 C 33.4 17.4 33.5 17.4 33.5 17.4 C 33.7 17.4 33.7 17.5 33.7 17.6 C 33.7 17.7 33.7 17.8 33.6 18 C 33.6 18.1 33.6 18.3 33.6 18.4 C 33.6 18.7 33.5 18.9 33.5 19 C 33.4 19.2 33.3 19.3 33.1 19.4 C 33 19.5 32.8 19.6 32.5 19.6 Z M 36 18 C 36 17.9 36 17.9 36 17.9 C 36 17.9 35.5 18.5 35.5 18.5 C 35.3 18.8 35.1 19 35 19 C 34.9 19 34.9 19 34.9 18.9 C 34.8 18.8 34.8 18.7 34.7 18.6 C 34.7 18.5 34.6 18.4 34.6 18.3 C 34.6 18.1 34.5 18.1 34.5 18 C 34.5 18 34.5 18.4 34.5 18.4 C 34.4 18.5 34.4 18.6 34.4 18.7 C 34.4 18.9 34.3 19 34.3 19.1 C 34.3 19.3 34.3 19.4 34.3 19.4 C 34.3 19.5 34.2 19.5 34.2 19.5 C 34.1 19.6 34.1 19.6 34.1 19.6 C 34 19.6 34 19.5 34 19.5 C 33.9 19.5 33.9 19.4 33.9 19.4 C 33.9 19.3 33.9 19.2 33.9 19 C 34.1 18.4 34.2 18.1 34.2 17.9 C 34.2 17.7 34.3 17.6 34.3 17.5 C 34.3 17.5 34.3 17.4 34.3 17.4 C 34.4 17.4 34.4 17.4 34.5 17.4 C 34.5 17.4 34.6 17.4 34.6 17.4 C 34.7 17.5 34.7 17.5 34.7 17.6 C 34.71 17.58 34.7 17.6 34.7 17.6 C 34.7 17.6 34.91 18.15 34.9 18.1 C 35 18.4 35 18.5 35.1 18.6 C 35.2 18.5 35.3 18.3 35.5 18 C 35.7 17.7 35.9 17.5 36 17.4 C 36 17.4 36.1 17.3 36.1 17.3 C 36.2 17.3 36.2 17.3 36.3 17.4 C 36.3 17.4 36.4 17.5 36.4 17.5 C 36.4 17.5 36.4 17.7 36.3 17.9 C 36.3 18.1 36.3 18.3 36.2 18.6 C 36.2 18.8 36.2 18.9 36.2 19 C 36.2 19 36.2 19.1 36.2 19.2 C 36.2 19.2 36.2 19.2 36.2 19.3 C 36.2 19.4 36.2 19.4 36.2 19.5 C 36.2 19.5 36.1 19.5 36 19.5 C 35.9 19.5 35.9 19.4 35.9 19.2 C 35.9 19.1 35.9 18.8 35.9 18.6 C 35.9 18.3 36 18.1 36 18 C 36 18 36 18 36 18 Z M 37.1 18.6 C 37.1 18.7 37.1 18.7 37 18.8 C 36.9 18.8 36.9 18.8 36.8 18.7 C 36.8 18.5 36.8 18.3 36.9 18.1 C 36.9 17.9 36.9 17.7 36.9 17.6 C 36.9 17.6 36.9 17.6 36.9 17.5 C 37 17.4 37 17.4 37 17.4 C 37.1 17.3 37.1 17.3 37.2 17.3 C 37.2 17.3 37.2 17.3 37.3 17.3 C 37.3 17.4 37.3 17.4 37.3 17.4 C 37.3 17.5 37.3 17.6 37.3 17.7 C 37.2 17.9 37.2 18.1 37.2 18.2 C 37.1 18.4 37.1 18.5 37.1 18.6 C 37.1 18.6 37.1 18.6 37.1 18.6 Z M 36.8 19.4 C 36.7 19.4 36.7 19.4 36.7 19.3 C 36.7 19.2 36.7 19.2 36.7 19.1 C 36.8 19.1 36.8 19 36.9 19 C 36.9 19 37 19 37 19.1 C 37.1 19.1 37.1 19.1 37.1 19.2 C 37.1 19.2 37.1 19.2 37.1 19.2 C 37.1 19.3 37 19.4 37 19.4 C 36.9 19.4 36.9 19.4 36.8 19.4 Z " stroke="none" fill="#000"/>  </g>  <g id="Polygon14109">    <path d="M 3.2 13.5 C 3.2 13.5 3.2 13.5 3.2 13.5 C 3.2 13.5 3.1 13.5 3.1 13.6 C 2.9 13.8 2.9 13.9 2.8 14 C 2.7 14.1 2.6 14.4 2.4 14.7 C 2.3 14.8 2.2 15 2.2 15 C 2.1 15.1 2.1 15.3 2 15.3 C 2 15.4 2 15.4 1.9 15.4 C 1.9 15.5 1.8 15.5 1.7 15.5 C 1.7 15.5 1.7 15.5 1.7 15.4 C 1.6 15.4 1.6 15.3 1.5 15.1 C 1.5 15 1.4 14.8 1.3 14.5 C 1.1 13.9 0.9 13.6 0.9 13.6 C 0.9 13.6 1 13.5 1 13.5 C 1 13.4 1.1 13.4 1.1 13.4 C 1.2 13.4 1.2 13.4 1.3 13.4 C 1.3 13.5 1.3 13.6 1.4 13.7 C 1.4 13.8 1.5 14 1.6 14.3 C 1.7 14.6 1.8 14.9 1.9 15 C 1.9 15 1.9 14.9 2 14.8 C 2 14.8 2 14.8 2 14.8 C 2.1 14.6 2.2 14.4 2.3 14.2 C 2.5 13.9 2.6 13.7 2.7 13.5 C 2.8 13.4 2.9 13.3 3 13.3 C 3.1 13.3 3.2 13.3 3.2 13.4 C 3.17 13.44 3.2 13.5 3.2 13.5 C 3.2 13.5 3.17 13.45 3.2 13.5 Z M 4.8 13.7 C 4.8 13.7 4.3 13.7 4.3 13.7 C 4.1 13.7 4 13.7 3.9 13.7 C 3.8 13.7 3.7 13.8 3.7 13.8 C 3.7 13.8 3.7 13.8 3.7 13.9 C 3.7 13.9 3.7 14 3.6 14.1 C 3.6 14.2 3.6 14.3 3.6 14.3 C 3.7 14.3 3.8 14.3 3.9 14.3 C 4 14.3 4.1 14.3 4.1 14.3 C 4.3 14.3 4.4 14.2 4.4 14.2 C 4.6 14.2 4.7 14.3 4.7 14.4 C 4.7 14.4 4.7 14.5 4.6 14.5 C 4.6 14.5 4.5 14.6 4.4 14.6 C 4.4 14.6 4.3 14.6 4.2 14.6 C 4.2 14.6 4.1 14.6 4.1 14.6 C 3.8 14.6 3.7 14.7 3.6 14.7 C 3.6 14.7 3.6 14.7 3.6 14.7 C 3.6 14.7 3.6 14.7 3.6 14.7 C 3.6 14.7 3.5 14.8 3.5 14.9 C 3.5 15.1 3.5 15.2 3.5 15.2 C 3.5 15.2 3.5 15.3 3.6 15.3 C 3.6 15.3 3.7 15.2 3.9 15.2 C 4.1 15.2 4.2 15.2 4.3 15.2 C 4.4 15.1 4.5 15.1 4.6 15.1 C 4.7 15.1 4.7 15.2 4.7 15.3 C 4.7 15.3 4.7 15.4 4.7 15.4 C 4.6 15.4 4.5 15.5 4.3 15.5 C 4.2 15.5 4 15.5 3.8 15.5 C 3.6 15.6 3.5 15.6 3.3 15.6 C 3.2 15.6 3.2 15.6 3.2 15.5 C 3.1 15.5 3.1 15.4 3.1 15.4 C 3.1 15.4 3.1 15.3 3.1 15.3 C 3.1 15.3 3.1 15.3 3.1 15.2 C 3.2 15.1 3.2 14.9 3.3 14.4 C 3.3 14 3.3 13.8 3.3 13.7 C 3.3 13.7 3.3 13.7 3.3 13.7 C 3.3 13.7 3.3 13.7 3.3 13.7 C 3.3 13.6 3.3 13.6 3.3 13.6 C 3.3 13.6 3.3 13.6 3.3 13.5 C 3.3 13.5 3.3 13.5 3.3 13.5 C 3.4 13.5 3.4 13.4 3.4 13.4 C 3.5 13.4 3.5 13.5 3.6 13.5 C 3.7 13.5 3.9 13.4 4.4 13.4 C 4.5 13.3 4.6 13.3 4.6 13.3 C 4.6 13.3 4.6 13.3 4.6 13.3 C 4.8 13.3 4.9 13.4 4.9 13.5 C 4.9 13.5 4.9 13.6 4.8 13.6 C 4.8 13.6 4.8 13.7 4.8 13.7 Z M 7.1 13.5 C 7.1 13.5 7.1 13.6 7.1 13.6 C 7.1 13.6 7 13.6 7 13.6 C 7 13.7 7 13.7 6.9 13.7 C 6.9 13.7 6.8 13.8 6.7 13.9 C 6.6 14.1 6.5 14.3 6.3 14.4 C 6.2 14.5 6 14.7 5.7 15 C 5.7 15 5.6 15.1 5.6 15.1 C 5.7 15.1 5.8 15.1 5.9 15.1 C 6.1 15.1 6.2 15.1 6.3 15.1 C 6.3 15.1 6.4 15.1 6.4 15.1 C 6.5 15.1 6.5 15.1 6.6 15.1 C 6.8 15.1 7 15.1 7 15.3 C 7 15.3 7 15.4 6.9 15.4 C 6.9 15.4 6.9 15.4 6.8 15.4 C 6.8 15.4 6.7 15.4 6.7 15.4 C 6.6 15.4 6.5 15.4 6.4 15.4 C 6.3 15.4 6.2 15.4 5.9 15.4 C 5.9 15.4 5.9 15.4 5.9 15.4 C 5.7 15.4 5.5 15.4 5.5 15.4 C 5.4 15.5 5.3 15.5 5.2 15.5 C 5.1 15.5 5.1 15.5 5.1 15.5 C 5 15.5 4.9 15.5 4.9 15.4 C 4.9 15.3 4.9 15.3 5 15.2 C 5.1 15.1 5.3 15 5.5 14.8 C 5.7 14.6 5.9 14.4 6.1 14.2 C 6.1 14.2 6.1 14.1 6.2 14.1 C 6.4 13.9 6.5 13.8 6.5 13.7 C 6.5 13.7 6.3 13.7 6 13.8 C 5.8 13.8 5.6 13.8 5.5 13.8 C 5.5 13.8 5.4 13.8 5.3 13.8 C 5.2 13.7 5.2 13.7 5.2 13.6 C 5.2 13.6 5.2 13.5 5.2 13.5 C 5.3 13.4 5.3 13.4 5.3 13.4 C 5.3 13.4 5.4 13.4 5.4 13.4 C 5.4 13.5 5.5 13.5 5.5 13.5 C 5.5 13.5 5.7 13.5 5.7 13.5 C 5.8 13.5 5.9 13.5 6 13.5 C 6 13.4 6.2 13.4 6.3 13.4 C 6.5 13.4 6.6 13.4 6.6 13.4 C 6.8 13.4 6.9 13.4 7 13.4 C 7 13.4 7.1 13.4 7.1 13.5 C 7.1 13.5 7.1 13.5 7.1 13.5 Z M 9 13.7 C 9 13.7 8.6 13.7 8.6 13.7 C 8.4 13.7 8.3 13.7 8.2 13.7 C 8.1 13.7 8 13.8 8 13.8 C 8 13.8 8 13.8 8 13.9 C 8 13.9 8 14 7.9 14.1 C 7.9 14.2 7.9 14.3 7.9 14.3 C 7.9 14.3 8 14.3 8.1 14.3 C 8.3 14.3 8.3 14.3 8.4 14.3 C 8.5 14.3 8.6 14.2 8.7 14.2 C 8.9 14.2 9 14.3 9 14.4 C 9 14.4 8.9 14.5 8.9 14.5 C 8.8 14.5 8.8 14.6 8.7 14.6 C 8.6 14.6 8.6 14.6 8.5 14.6 C 8.5 14.6 8.4 14.6 8.4 14.6 C 8.1 14.6 7.9 14.7 7.9 14.7 C 7.9 14.7 7.9 14.7 7.9 14.7 C 7.9 14.7 7.8 14.7 7.8 14.7 C 7.8 14.7 7.8 14.8 7.8 14.9 C 7.8 15.1 7.8 15.2 7.8 15.2 C 7.8 15.2 7.8 15.3 7.8 15.3 C 7.9 15.3 8 15.2 8.2 15.2 C 8.4 15.2 8.5 15.2 8.6 15.2 C 8.7 15.1 8.8 15.1 8.8 15.1 C 9 15.1 9 15.2 9 15.3 C 9 15.3 9 15.4 9 15.4 C 8.9 15.4 8.7 15.5 8.6 15.5 C 8.4 15.5 8.3 15.5 8.1 15.5 C 7.9 15.6 7.8 15.6 7.6 15.6 C 7.5 15.6 7.5 15.6 7.4 15.5 C 7.4 15.5 7.4 15.4 7.4 15.4 C 7.4 15.4 7.4 15.3 7.4 15.3 C 7.4 15.3 7.4 15.3 7.4 15.2 C 7.4 15.1 7.5 14.9 7.5 14.4 C 7.6 14 7.6 13.8 7.6 13.7 C 7.6 13.7 7.6 13.7 7.6 13.7 C 7.6 13.7 7.6 13.7 7.6 13.7 C 7.6 13.6 7.5 13.6 7.5 13.6 C 7.5 13.6 7.6 13.6 7.6 13.5 C 7.6 13.5 7.6 13.5 7.6 13.5 C 7.7 13.5 7.7 13.4 7.7 13.4 C 7.8 13.4 7.8 13.5 7.9 13.5 C 7.9 13.5 8.2 13.4 8.7 13.4 C 8.8 13.3 8.9 13.3 8.9 13.3 C 8.9 13.3 8.9 13.3 8.9 13.3 C 9.1 13.3 9.2 13.4 9.2 13.5 C 9.2 13.5 9.2 13.6 9.1 13.6 C 9.1 13.6 9.1 13.7 9 13.7 Z M 11 13.6 C 11 13.8 10.9 13.9 10.7 13.9 C 10.7 13.8 10.7 13.7 10.6 13.7 C 10.6 13.7 10.5 13.6 10.4 13.6 C 10.2 13.6 10.1 13.7 9.9 13.8 C 9.8 13.8 9.7 13.9 9.7 14 C 9.7 14.1 9.8 14.1 9.8 14.2 C 9.9 14.2 10 14.3 10.2 14.3 C 10.5 14.4 10.6 14.5 10.7 14.6 C 10.9 14.7 10.9 14.7 10.9 14.9 C 10.9 15 10.8 15.2 10.5 15.4 C 10.2 15.5 9.9 15.6 9.6 15.6 C 9.5 15.6 9.4 15.6 9.3 15.6 C 9.3 15.5 9.3 15.5 9.3 15.4 C 9.3 15.3 9.3 15.3 9.3 15.3 C 9.3 15.2 9.4 15.2 9.4 15.2 C 9.4 15.2 9.4 15.2 9.5 15.2 C 9.6 15.3 9.7 15.3 9.7 15.3 C 9.9 15.3 10.1 15.2 10.3 15.1 C 10.4 15.1 10.5 15 10.5 14.9 C 10.5 14.9 10.5 14.8 10.5 14.8 C 10.4 14.8 10.3 14.7 10.2 14.7 C 10 14.6 9.8 14.6 9.7 14.5 C 9.6 14.5 9.5 14.4 9.5 14.3 C 9.4 14.3 9.4 14.2 9.4 14.1 C 9.4 13.9 9.5 13.7 9.7 13.6 C 9.9 13.4 10.2 13.3 10.4 13.3 C 10.6 13.3 10.7 13.4 10.8 13.4 C 10.9 13.5 11 13.6 11 13.6 C 11 13.6 11 13.6 11 13.6 Z M 14.4 14 C 14.4 13.9 14.4 13.9 14.4 13.9 C 14.4 13.9 13.9 14.5 13.9 14.5 C 13.7 14.8 13.5 15 13.4 15 C 13.3 15 13.3 15 13.2 14.9 C 13.2 14.8 13.2 14.7 13.1 14.6 C 13.1 14.5 13 14.4 13 14.3 C 13 14.1 12.9 14.1 12.9 14 C 12.9 14 12.9 14.4 12.9 14.4 C 12.8 14.5 12.8 14.6 12.8 14.7 C 12.8 14.9 12.7 15 12.7 15.1 C 12.7 15.3 12.7 15.4 12.7 15.4 C 12.6 15.5 12.6 15.5 12.6 15.5 C 12.5 15.6 12.5 15.6 12.5 15.6 C 12.4 15.6 12.4 15.5 12.3 15.5 C 12.3 15.5 12.3 15.4 12.3 15.4 C 12.3 15.3 12.3 15.2 12.3 15 C 12.5 14.4 12.6 14.1 12.6 13.9 C 12.6 13.7 12.7 13.6 12.7 13.5 C 12.7 13.5 12.7 13.4 12.7 13.4 C 12.8 13.4 12.8 13.4 12.9 13.4 C 12.9 13.4 13 13.4 13 13.4 C 13.1 13.5 13.1 13.5 13.1 13.6 C 13.11 13.58 13.1 13.6 13.1 13.6 C 13.1 13.6 13.31 14.15 13.3 14.1 C 13.4 14.4 13.4 14.5 13.5 14.6 C 13.6 14.5 13.7 14.3 13.9 14 C 14.1 13.7 14.3 13.5 14.4 13.4 C 14.4 13.4 14.5 13.3 14.5 13.3 C 14.6 13.3 14.6 13.3 14.7 13.4 C 14.7 13.4 14.8 13.5 14.8 13.5 C 14.8 13.5 14.8 13.7 14.7 13.9 C 14.7 14.1 14.7 14.3 14.6 14.6 C 14.6 14.8 14.6 14.9 14.6 15 C 14.6 15 14.6 15.1 14.6 15.2 C 14.6 15.2 14.6 15.2 14.6 15.3 C 14.6 15.4 14.6 15.4 14.6 15.5 C 14.6 15.5 14.5 15.5 14.4 15.5 C 14.3 15.5 14.2 15.4 14.2 15.2 C 14.2 15.1 14.3 14.8 14.3 14.6 C 14.3 14.3 14.4 14.1 14.4 14 C 14.4 14 14.4 14 14.4 14 Z M 15.6 15 C 15.6 15 15.5 15 15.5 15 C 15.5 15 15.4 15.1 15.3 15.3 C 15.3 15.4 15.2 15.5 15.2 15.5 C 15.1 15.5 15.1 15.5 15.1 15.5 C 15 15.5 15 15.5 15 15.5 C 14.9 15.4 14.9 15.4 14.9 15.4 C 14.9 15.3 15 15.1 15.2 14.7 C 15.4 14.5 15.5 14.3 15.6 14.1 C 15.8 13.7 16 13.5 16 13.4 C 16.1 13.4 16.1 13.3 16.2 13.3 C 16.3 13.3 16.3 13.3 16.4 13.4 C 16.4 13.4 16.4 13.4 16.4 13.5 C 16.4 13.5 16.4 13.6 16.4 13.6 C 16.5 14.1 16.7 14.5 16.8 14.7 C 16.9 15 17 15.1 17.1 15.2 C 17.1 15.3 17.2 15.3 17.2 15.3 C 17.2 15.4 17.2 15.4 17.2 15.4 C 17.2 15.5 17.2 15.5 17.1 15.5 C 17.1 15.6 17.1 15.6 17 15.6 C 16.9 15.6 16.9 15.6 16.8 15.5 C 16.7 15.4 16.6 15.3 16.6 15.1 C 16.5 15 16.5 14.9 16.5 14.9 C 16.5 14.9 16.5 14.9 16.5 14.9 C 16.4 14.9 16.3 14.9 16.1 14.9 C 15.9 14.9 15.8 15 15.7 15 C 15.6 15 15.6 15 15.6 15 C 15.6 15 15.6 15 15.6 15 Z M 16.2 14.6 C 16.3 14.6 16.3 14.6 16.3 14.6 C 16.3 14.5 16.3 14.3 16.1 13.9 C 16.1 13.9 16.1 13.9 16.1 13.9 C 16.1 13.9 15.7 14.7 15.7 14.7 C 15.8 14.7 15.8 14.6 15.9 14.6 C 15.9 14.6 16 14.6 16.2 14.6 C 16.2 14.6 16.2 14.6 16.2 14.6 Z M 17.9 14 C 17.9 14.1 17.9 14.2 17.9 14.2 C 17.9 14.3 17.8 14.3 17.8 14.5 C 17.8 14.7 17.8 14.8 17.8 14.9 C 17.8 15 17.8 15.1 17.8 15.3 C 17.8 15.4 17.8 15.4 17.7 15.5 C 17.7 15.5 17.7 15.5 17.6 15.5 C 17.5 15.5 17.5 15.5 17.5 15.4 C 17.4 15.4 17.4 15.3 17.4 15.1 C 17.4 15 17.4 14.8 17.5 14.5 C 17.5 14.5 17.6 13.9 17.6 13.9 C 17.6 13.8 17.6 13.7 17.6 13.7 C 17.6 13.5 17.6 13.5 17.6 13.5 C 17.7 13.4 17.7 13.4 17.7 13.4 C 17.8 13.4 17.8 13.3 17.8 13.3 C 17.9 13.3 17.9 13.4 18 13.4 C 18 13.5 18 13.5 18 13.6 C 18 13.6 17.9 14 17.9 14 Z M 19.9 13.6 C 19.9 13.8 19.8 13.9 19.6 13.9 C 19.6 13.8 19.6 13.7 19.5 13.7 C 19.5 13.7 19.4 13.6 19.3 13.6 C 19.2 13.6 19 13.7 18.9 13.8 C 18.7 13.8 18.6 13.9 18.6 14 C 18.6 14.1 18.7 14.1 18.7 14.2 C 18.8 14.2 18.9 14.3 19.1 14.3 C 19.4 14.4 19.5 14.5 19.7 14.6 C 19.8 14.7 19.8 14.7 19.8 14.9 C 19.8 15 19.7 15.2 19.4 15.4 C 19.1 15.5 18.8 15.6 18.5 15.6 C 18.4 15.6 18.3 15.6 18.3 15.6 C 18.2 15.5 18.2 15.5 18.2 15.4 C 18.2 15.3 18.2 15.3 18.2 15.3 C 18.2 15.2 18.3 15.2 18.3 15.2 C 18.3 15.2 18.4 15.2 18.4 15.2 C 18.5 15.3 18.6 15.3 18.7 15.3 C 18.8 15.3 19 15.2 19.2 15.1 C 19.4 15.1 19.5 15 19.5 14.9 C 19.5 14.9 19.4 14.8 19.4 14.8 C 19.3 14.8 19.2 14.7 19.1 14.7 C 18.9 14.6 18.7 14.6 18.6 14.5 C 18.5 14.5 18.4 14.4 18.4 14.3 C 18.3 14.3 18.3 14.2 18.3 14.1 C 18.3 13.9 18.4 13.7 18.6 13.6 C 18.8 13.4 19.1 13.3 19.4 13.3 C 19.5 13.3 19.7 13.4 19.8 13.4 C 19.8 13.5 19.9 13.6 19.9 13.6 C 19.9 13.6 19.9 13.6 19.9 13.6 Z M 21.3 15.2 C 21.3 15.2 21.3 15.1 21.4 15 C 21.4 14.6 21.4 14.3 21.5 13.9 C 21.5 13.8 21.5 13.8 21.5 13.7 C 21.5 13.7 21.5 13.7 21.5 13.7 C 21.4 13.7 21.3 13.6 21.3 13.6 C 21.3 13.5 21.3 13.5 21.4 13.4 C 21.4 13.4 21.5 13.4 21.5 13.4 C 21.5 13.4 21.7 13.4 21.7 13.4 C 21.8 13.4 21.9 13.4 22.1 13.4 C 22.2 13.3 22.3 13.3 22.4 13.3 C 22.7 13.3 22.9 13.4 23.1 13.6 C 23.3 13.7 23.3 13.9 23.3 14.2 C 23.3 14.5 23.2 14.7 22.9 14.9 C 22.7 15.2 22.4 15.3 22 15.4 C 21.9 15.4 21.8 15.4 21.8 15.5 C 21.8 15.5 21.7 15.5 21.7 15.5 C 21.6 15.6 21.5 15.6 21.5 15.6 C 21.4 15.6 21.4 15.6 21.3 15.5 C 21.3 15.5 21.3 15.4 21.3 15.4 C 21.3 15.4 21.3 15.4 21.3 15.3 C 21.3 15.3 21.3 15.2 21.3 15.2 Z M 21.7 15.1 C 21.7 15.1 21.7 15.1 21.7 15.2 C 21.8 15.2 21.9 15.1 22.2 15.1 C 22.4 15 22.6 14.9 22.8 14.7 C 22.9 14.5 23 14.4 23 14.2 C 23 14 22.9 13.9 22.8 13.8 C 22.7 13.7 22.6 13.6 22.4 13.6 C 22.2 13.6 22.1 13.6 21.9 13.7 C 21.9 13.7 21.9 13.7 21.9 13.7 C 21.8 14.3 21.7 14.8 21.7 15.1 C 21.7 15.1 21.7 15.1 21.7 15.1 Z M 24.1 14 C 24.1 14.1 24.1 14.2 24.1 14.2 C 24.1 14.3 24 14.3 24 14.5 C 24 14.7 24 14.8 24 14.9 C 24 15 24 15.1 24 15.3 C 24 15.4 24 15.4 23.9 15.5 C 23.9 15.5 23.8 15.5 23.8 15.5 C 23.7 15.5 23.7 15.5 23.6 15.4 C 23.6 15.4 23.6 15.3 23.6 15.1 C 23.6 15 23.6 14.8 23.7 14.5 C 23.7 14.5 23.8 13.9 23.8 13.9 C 23.8 13.8 23.8 13.7 23.8 13.7 C 23.8 13.5 23.8 13.5 23.8 13.5 C 23.8 13.4 23.9 13.4 23.9 13.4 C 24 13.4 24 13.3 24 13.3 C 24.1 13.3 24.1 13.4 24.2 13.4 C 24.2 13.5 24.2 13.5 24.2 13.6 C 24.2 13.6 24.1 14 24.1 14 Z M 24.5 15 C 24.5 15 24.62 14.5 24.6 14.5 C 24.7 14.1 24.7 13.8 24.7 13.7 C 24.7 13.6 24.8 13.6 24.8 13.5 C 24.8 13.5 24.8 13.5 24.8 13.5 C 24.9 13.4 24.9 13.4 25 13.4 C 25 13.4 25 13.4 25.1 13.4 C 25.1 13.5 25.1 13.5 25.2 13.6 C 25.2 13.8 25.3 14 25.5 14.3 C 25.6 14.6 25.8 14.8 25.9 15 C 26 14.8 26 14.6 26.1 14.3 C 26.1 14.1 26.1 14 26.1 13.8 C 26.2 13.7 26.2 13.6 26.2 13.5 C 26.2 13.4 26.2 13.4 26.3 13.3 C 26.3 13.3 26.4 13.3 26.4 13.3 C 26.4 13.3 26.5 13.3 26.5 13.4 C 26.5 13.4 26.6 13.5 26.6 13.5 C 26.6 13.6 26.5 13.7 26.5 13.8 C 26.4 14 26.4 14.3 26.3 14.6 C 26.3 15 26.2 15.2 26.2 15.2 C 26.2 15.2 26.2 15.3 26.2 15.3 C 26.2 15.3 26.2 15.4 26.2 15.4 C 26.2 15.4 26.2 15.5 26.2 15.5 C 26.1 15.5 26.1 15.5 26 15.5 C 26 15.5 25.9 15.5 25.9 15.5 C 25.9 15.5 25.9 15.5 25.9 15.4 C 25.8 15.4 25.8 15.4 25.8 15.3 C 25.7 15.2 25.7 15.2 25.7 15.1 C 25.4 14.9 25.2 14.5 25 14.1 C 25 14.2 24.9 14.5 24.9 15 C 24.9 15 24.8 15.1 24.8 15.1 C 24.8 15.1 24.8 15.2 24.8 15.3 C 24.8 15.4 24.8 15.5 24.8 15.5 C 24.7 15.6 24.7 15.6 24.6 15.6 C 24.6 15.6 24.5 15.6 24.5 15.5 C 24.5 15.5 24.4 15.4 24.4 15.3 C 24.4 15.3 24.5 15.1 24.5 15 C 24.51 15 24.5 15 24.5 15 Z M 27.3 14.7 C 27.3 14.7 27.2 14.8 27.2 15.1 C 27.2 15.2 27.2 15.3 27.2 15.4 C 27.1 15.5 27.1 15.6 27 15.6 C 27 15.6 26.9 15.6 26.9 15.5 C 26.8 15.5 26.8 15.4 26.8 15.4 C 26.8 15.3 26.8 15.2 26.9 15.1 C 26.9 14.8 27 14.3 27.1 13.5 C 27.1 13.4 27.1 13.4 27.1 13.4 C 27.2 13.4 27.2 13.3 27.2 13.3 C 27.4 13.3 27.4 13.4 27.4 13.6 C 27.4 13.7 27.4 13.8 27.4 13.9 C 27.4 14.1 27.3 14.2 27.3 14.3 C 27.3 14.3 27.4 14.3 27.4 14.3 C 27.6 14.3 27.8 14.3 28 14.3 C 28.3 14.3 28.4 14.3 28.4 14.2 C 28.5 14.2 28.5 14.1 28.5 13.9 C 28.5 13.8 28.5 13.6 28.5 13.4 C 28.5 13.4 28.5 13.3 28.6 13.3 C 28.6 13.3 28.7 13.2 28.7 13.2 C 28.8 13.2 28.8 13.3 28.9 13.3 C 28.9 13.3 28.9 13.4 28.9 13.4 C 28.9 13.5 28.9 13.6 28.9 13.8 C 28.8 14 28.8 14.3 28.7 14.6 C 28.7 15 28.7 15.2 28.7 15.3 C 28.7 15.4 28.7 15.4 28.6 15.5 C 28.6 15.5 28.5 15.6 28.5 15.6 C 28.4 15.6 28.4 15.5 28.4 15.5 C 28.3 15.5 28.3 15.4 28.3 15.4 C 28.3 15.4 28.3 15.2 28.3 15 C 28.4 14.8 28.4 14.7 28.4 14.6 C 28.4 14.6 28.4 14.6 28.4 14.6 C 28.3 14.6 28.2 14.6 28.1 14.6 C 28 14.6 27.9 14.6 27.8 14.6 C 27.8 14.6 27.7 14.6 27.5 14.6 C 27.4 14.6 27.3 14.6 27.3 14.7 Z M 30.8 13.7 C 30.8 13.7 30.4 13.7 30.4 13.7 C 30.2 13.7 30.1 13.7 30 13.7 C 29.9 13.7 29.8 13.8 29.8 13.8 C 29.8 13.8 29.8 13.8 29.8 13.9 C 29.8 13.9 29.8 14 29.7 14.1 C 29.7 14.2 29.7 14.3 29.7 14.3 C 29.7 14.3 29.8 14.3 29.9 14.3 C 30.1 14.3 30.1 14.3 30.2 14.3 C 30.3 14.3 30.4 14.2 30.5 14.2 C 30.7 14.2 30.8 14.3 30.8 14.4 C 30.8 14.4 30.7 14.5 30.7 14.5 C 30.6 14.5 30.6 14.6 30.5 14.6 C 30.4 14.6 30.4 14.6 30.3 14.6 C 30.3 14.6 30.2 14.6 30.2 14.6 C 29.9 14.6 29.7 14.7 29.7 14.7 C 29.7 14.7 29.7 14.7 29.7 14.7 C 29.7 14.7 29.6 14.7 29.6 14.7 C 29.6 14.7 29.6 14.8 29.6 14.9 C 29.6 15.1 29.6 15.2 29.6 15.2 C 29.6 15.2 29.6 15.3 29.6 15.3 C 29.7 15.3 29.8 15.2 30 15.2 C 30.2 15.2 30.3 15.2 30.4 15.2 C 30.5 15.1 30.6 15.1 30.6 15.1 C 30.8 15.1 30.8 15.2 30.8 15.3 C 30.8 15.3 30.8 15.4 30.8 15.4 C 30.7 15.4 30.5 15.5 30.4 15.5 C 30.2 15.5 30.1 15.5 29.9 15.5 C 29.7 15.6 29.6 15.6 29.4 15.6 C 29.3 15.6 29.3 15.6 29.2 15.5 C 29.2 15.5 29.2 15.4 29.2 15.4 C 29.2 15.4 29.2 15.3 29.2 15.3 C 29.2 15.3 29.2 15.3 29.2 15.2 C 29.2 15.1 29.3 14.9 29.3 14.4 C 29.4 14 29.4 13.8 29.4 13.7 C 29.4 13.7 29.4 13.7 29.4 13.7 C 29.4 13.7 29.4 13.7 29.4 13.7 C 29.4 13.6 29.4 13.6 29.4 13.6 C 29.4 13.6 29.4 13.6 29.4 13.5 C 29.4 13.5 29.4 13.5 29.4 13.5 C 29.5 13.5 29.5 13.4 29.5 13.4 C 29.6 13.4 29.6 13.5 29.7 13.5 C 29.7 13.5 30 13.4 30.5 13.4 C 30.6 13.3 30.7 13.3 30.7 13.3 C 30.7 13.3 30.7 13.3 30.7 13.3 C 30.9 13.3 31 13.4 31 13.5 C 31 13.5 31 13.6 30.9 13.6 C 30.9 13.6 30.9 13.7 30.8 13.7 Z M 31.7 14 C 31.7 14.1 31.6 14.2 31.6 14.2 C 31.6 14.3 31.6 14.3 31.6 14.5 C 31.6 14.7 31.6 14.8 31.6 14.9 C 31.6 15 31.6 15.1 31.6 15.3 C 31.6 15.4 31.6 15.4 31.5 15.5 C 31.5 15.5 31.4 15.5 31.4 15.5 C 31.3 15.5 31.3 15.5 31.2 15.4 C 31.2 15.4 31.2 15.3 31.2 15.1 C 31.2 15 31.2 14.8 31.3 14.5 C 31.3 14.5 31.3 13.9 31.3 13.9 C 31.3 13.8 31.4 13.7 31.4 13.7 C 31.4 13.5 31.4 13.5 31.4 13.5 C 31.4 13.4 31.5 13.4 31.5 13.4 C 31.5 13.4 31.6 13.3 31.6 13.3 C 31.7 13.3 31.7 13.4 31.7 13.4 C 31.8 13.5 31.8 13.5 31.8 13.6 C 31.8 13.6 31.7 14 31.7 14 Z M 32.2 13.7 C 32.2 13.7 32.22 13.68 32.2 13.7 C 32.2 13.6 32.2 13.6 32.2 13.6 C 32.2 13.5 32.2 13.5 32.2 13.4 C 32.3 13.4 32.3 13.4 32.4 13.4 C 32.4 13.4 32.4 13.4 32.4 13.4 C 32.5 13.4 32.5 13.4 32.5 13.4 C 32.8 13.4 33 13.3 33.1 13.3 C 33.3 13.3 33.5 13.4 33.6 13.5 C 33.7 13.6 33.8 13.7 33.8 13.9 C 33.8 14 33.7 14.2 33.6 14.3 C 33.5 14.4 33.3 14.5 33.1 14.6 C 33.5 14.9 33.7 15.1 33.9 15.2 C 34 15.2 34 15.3 34 15.3 C 34 15.4 34 15.4 33.9 15.4 C 33.9 15.5 33.9 15.5 33.8 15.5 C 33.8 15.5 33.7 15.5 33.6 15.4 C 33.5 15.4 33.4 15.3 33.3 15.2 C 33.2 15.1 33.1 15 33.1 15 C 32.9 14.9 32.8 14.8 32.7 14.7 C 32.6 14.7 32.5 14.7 32.5 14.6 C 32.5 14.5 32.6 14.5 32.6 14.4 C 32.6 14.4 32.7 14.4 32.8 14.4 C 32.8 14.4 32.8 14.4 32.8 14.4 C 32.8 14.4 32.8 14.4 32.8 14.4 C 32.9 14.4 33 14.3 33.2 14.2 C 33.4 14.1 33.4 14 33.4 13.9 C 33.4 13.8 33.4 13.7 33.3 13.7 C 33.3 13.6 33.2 13.6 33.1 13.6 C 32.9 13.6 32.8 13.6 32.8 13.6 C 32.7 13.7 32.6 13.7 32.6 13.7 C 32.6 13.7 32.6 13.7 32.6 13.7 C 32.6 13.8 32.6 13.9 32.5 14 C 32.5 14.2 32.5 14.4 32.4 14.6 C 32.4 14.8 32.4 15 32.4 15.1 C 32.4 15.1 32.4 15.2 32.4 15.2 C 32.4 15.3 32.4 15.3 32.4 15.4 C 32.4 15.4 32.4 15.4 32.4 15.5 C 32.3 15.5 32.3 15.5 32.2 15.5 C 32.1 15.5 32 15.5 32 15.3 C 32 15.1 32 14.9 32.1 14.6 C 32.1 14.4 32.2 14.1 32.2 13.9 C 32.2 13.9 32.2 13.8 32.2 13.8 C 32.22 13.82 32.2 13.7 32.2 13.7 Z M 34.7 15.6 C 34.6 15.6 34.4 15.5 34.3 15.3 C 34.2 15.2 34.1 15 34.1 14.8 C 34.1 14.6 34.2 14.4 34.3 14.2 C 34.4 13.9 34.6 13.7 34.8 13.6 C 35 13.4 35.2 13.3 35.4 13.3 C 35.5 13.3 35.7 13.4 35.8 13.4 C 35.9 13.4 36 13.5 36.1 13.6 C 36.1 13.6 36.2 13.7 36.2 13.8 C 36.3 13.9 36.3 14 36.3 14.1 C 36.3 14.3 36.2 14.4 36.2 14.6 C 36.1 14.8 36 14.9 35.8 15.1 C 35.7 15.2 35.5 15.4 35.4 15.4 C 35.2 15.5 35 15.6 34.7 15.6 Z M 34.5 14.8 C 34.5 15 34.5 15.1 34.6 15.1 C 34.7 15.2 34.7 15.3 34.8 15.3 C 35.1 15.3 35.3 15.1 35.6 14.9 C 35.8 14.6 35.9 14.4 35.9 14.1 C 35.9 14 35.9 13.9 35.8 13.8 C 35.8 13.8 35.7 13.7 35.7 13.7 C 35.6 13.6 35.5 13.6 35.4 13.6 C 35.2 13.6 35 13.8 34.8 14 C 34.6 14.3 34.5 14.6 34.5 14.8 Z M 37.7 15 C 37.7 15 37.8 14.5 37.8 14.5 C 37.9 14.1 37.9 13.8 37.9 13.7 C 37.9 13.6 37.9 13.6 37.9 13.5 C 38 13.5 38 13.5 38 13.5 C 38.1 13.4 38.1 13.4 38.1 13.4 C 38.2 13.4 38.2 13.4 38.2 13.4 C 38.3 13.5 38.3 13.5 38.3 13.6 C 38.4 13.8 38.5 14 38.7 14.3 C 38.8 14.6 39 14.8 39.1 15 C 39.2 14.8 39.2 14.6 39.2 14.3 C 39.3 14.1 39.3 14 39.3 13.8 C 39.4 13.7 39.4 13.6 39.4 13.5 C 39.4 13.4 39.4 13.4 39.5 13.3 C 39.5 13.3 39.5 13.3 39.6 13.3 C 39.6 13.3 39.7 13.3 39.7 13.4 C 39.7 13.4 39.7 13.5 39.7 13.5 C 39.7 13.6 39.7 13.7 39.7 13.8 C 39.6 14 39.6 14.3 39.5 14.6 C 39.5 15 39.4 15.2 39.4 15.2 C 39.4 15.2 39.4 15.3 39.4 15.3 C 39.4 15.3 39.4 15.4 39.4 15.4 C 39.4 15.4 39.4 15.5 39.3 15.5 C 39.3 15.5 39.3 15.5 39.2 15.5 C 39.2 15.5 39.1 15.5 39.1 15.5 C 39.1 15.5 39.1 15.5 39.1 15.4 C 39 15.4 39 15.4 39 15.3 C 38.9 15.2 38.9 15.2 38.9 15.1 C 38.6 14.9 38.4 14.5 38.2 14.1 C 38.2 14.2 38.1 14.5 38.1 15 C 38.1 15 38 15.1 38 15.1 C 38 15.1 38 15.2 38 15.3 C 38 15.4 38 15.5 37.9 15.5 C 37.9 15.6 37.9 15.6 37.8 15.6 C 37.7 15.6 37.7 15.6 37.7 15.5 C 37.6 15.5 37.6 15.4 37.6 15.3 C 37.6 15.3 37.7 15.1 37.7 15 C 37.7 15 37.7 15 37.7 15 Z M 40.6 15.6 C 40.4 15.6 40.3 15.5 40.1 15.3 C 40 15.2 39.9 15 39.9 14.8 C 39.9 14.6 40 14.4 40.1 14.2 C 40.3 13.9 40.4 13.7 40.6 13.6 C 40.8 13.4 41 13.3 41.2 13.3 C 41.4 13.3 41.5 13.4 41.6 13.4 C 41.7 13.4 41.8 13.5 41.9 13.6 C 42 13.6 42.1 13.7 42.1 13.8 C 42.1 13.9 42.1 14 42.1 14.1 C 42.1 14.3 42.1 14.4 42 14.6 C 41.9 14.8 41.8 14.9 41.7 15.1 C 41.5 15.2 41.4 15.4 41.2 15.4 C 41 15.5 40.8 15.6 40.6 15.6 Z M 40.3 14.8 C 40.3 15 40.4 15.1 40.4 15.1 C 40.5 15.2 40.6 15.3 40.7 15.3 C 40.9 15.3 41.2 15.1 41.4 14.9 C 41.6 14.6 41.7 14.4 41.7 14.1 C 41.7 14 41.7 13.9 41.7 13.8 C 41.7 13.8 41.6 13.7 41.5 13.7 C 41.4 13.6 41.3 13.6 41.2 13.6 C 41 13.6 40.8 13.8 40.6 14 C 40.4 14.3 40.3 14.6 40.3 14.8 Z " stroke="none" fill="#000"/>  </g>  <g id="Polygon14108">    <path d="M 4.7 10.5 C 4.6 10.6 4.6 10.7 4.6 10.8 C 4.6 10.8 4.6 10.8 4.6 10.8 C 4.6 10.8 4.5 10.9 4.5 11.1 C 4.5 11.2 4.5 11.3 4.5 11.4 C 4.5 11.5 4.5 11.6 4.5 11.6 C 4.5 11.6 4.5 11.7 4.4 11.7 C 4.4 11.7 4.4 11.8 4.4 11.8 C 4.4 11.8 4.3 11.8 4.3 11.8 C 4.2 11.8 4.2 11.8 4.1 11.7 C 4.1 11.7 4.1 11.7 4.1 11.6 C 4.1 11.6 4.1 11.5 4.1 11.4 C 4.1 11.3 4.2 11.2 4.2 11.1 C 3.9 11.3 3.6 11.5 3.3 11.5 C 3.1 11.5 3 11.4 2.9 11.3 C 2.8 11.2 2.7 11.1 2.7 10.9 C 2.7 10.6 2.8 10.4 3 10.1 C 3 10.1 3 10.1 3 10.1 C 3.2 9.8 3.4 9.6 3.6 9.5 C 3.9 9.3 4.1 9.2 4.3 9.2 C 4.5 9.2 4.6 9.3 4.6 9.3 C 4.7 9.3 4.8 9.4 4.8 9.5 C 4.8 9.5 4.7 9.6 4.7 9.7 C 4.6 9.7 4.6 9.8 4.5 9.8 C 4.5 9.8 4.5 9.8 4.5 9.8 C 4.4 9.8 4.4 9.7 4.4 9.7 C 4.4 9.6 4.4 9.6 4.3 9.6 C 4.3 9.6 4.3 9.6 4.2 9.6 C 4.1 9.6 3.9 9.6 3.7 9.8 C 3.5 9.9 3.4 10.1 3.3 10.3 C 3.1 10.5 3.1 10.7 3.1 10.9 C 3.1 11.1 3.2 11.2 3.3 11.2 C 3.4 11.2 3.5 11.1 3.6 11.1 C 3.8 11.1 3.9 11 4 10.9 C 4.2 10.8 4.2 10.7 4.3 10.6 C 4.3 10.6 4.3 10.5 4.3 10.4 C 4.3 10.3 4.3 10.3 4.4 10.3 C 4.4 10.3 4.5 10.2 4.5 10.2 C 4.6 10.2 4.7 10.3 4.7 10.4 C 4.7 10.4 4.7 10.5 4.7 10.5 C 4.7 10.5 4.7 10.5 4.7 10.5 Z M 5.6 11.6 C 5.5 11.6 5.3 11.5 5.2 11.3 C 5.1 11.2 5 11 5 10.8 C 5 10.6 5 10.4 5.2 10.2 C 5.3 9.9 5.4 9.7 5.6 9.6 C 5.8 9.4 6 9.3 6.2 9.3 C 6.4 9.3 6.5 9.4 6.6 9.4 C 6.8 9.4 6.9 9.5 6.9 9.6 C 7 9.6 7.1 9.7 7.1 9.8 C 7.2 9.9 7.2 10 7.2 10.1 C 7.2 10.3 7.1 10.4 7 10.6 C 7 10.8 6.9 10.9 6.7 11.1 C 6.5 11.2 6.4 11.4 6.2 11.4 C 6.1 11.5 5.9 11.6 5.6 11.6 Z M 5.4 10.8 C 5.4 11 5.4 11.1 5.5 11.1 C 5.5 11.2 5.6 11.3 5.7 11.3 C 6 11.3 6.2 11.1 6.4 10.9 C 6.7 10.6 6.8 10.4 6.8 10.1 C 6.8 10 6.8 9.9 6.7 9.8 C 6.7 9.8 6.6 9.7 6.5 9.7 C 6.4 9.6 6.4 9.6 6.2 9.6 C 6.1 9.6 5.9 9.8 5.7 10 C 5.5 10.3 5.4 10.6 5.4 10.8 Z M 9.6 9.5 C 9.6 9.5 9.6 9.5 9.6 9.5 C 9.6 9.5 9.5 9.5 9.4 9.6 C 9.3 9.8 9.2 9.9 9.2 10 C 9.1 10.1 9 10.4 8.8 10.7 C 8.7 10.8 8.6 11 8.6 11 C 8.5 11.1 8.4 11.3 8.4 11.3 C 8.4 11.4 8.4 11.4 8.3 11.4 C 8.3 11.5 8.2 11.5 8.1 11.5 C 8.1 11.5 8.1 11.5 8 11.4 C 8 11.4 8 11.3 7.9 11.1 C 7.9 11 7.8 10.8 7.7 10.5 C 7.4 9.9 7.3 9.6 7.3 9.6 C 7.3 9.6 7.3 9.5 7.4 9.5 C 7.4 9.4 7.5 9.4 7.5 9.4 C 7.6 9.4 7.6 9.4 7.7 9.4 C 7.7 9.5 7.7 9.6 7.8 9.7 C 7.8 9.8 7.8 10 8 10.3 C 8.1 10.6 8.2 10.9 8.2 11 C 8.3 11 8.3 10.9 8.3 10.8 C 8.4 10.8 8.4 10.8 8.4 10.8 C 8.5 10.6 8.6 10.4 8.7 10.2 C 8.9 9.9 9 9.7 9.1 9.5 C 9.2 9.4 9.3 9.3 9.4 9.3 C 9.5 9.3 9.6 9.3 9.6 9.4 C 9.56 9.44 9.6 9.5 9.6 9.5 C 9.6 9.5 9.56 9.45 9.6 9.5 Z M 11.1 9.7 C 11.1 9.7 10.7 9.7 10.7 9.7 C 10.5 9.7 10.4 9.7 10.3 9.7 C 10.2 9.7 10.1 9.8 10.1 9.8 C 10.1 9.8 10.1 9.8 10.1 9.9 C 10.1 9.9 10.1 10 10 10.1 C 10 10.2 10 10.3 10 10.3 C 10 10.3 10.1 10.3 10.3 10.3 C 10.4 10.3 10.5 10.3 10.5 10.3 C 10.6 10.3 10.8 10.2 10.8 10.2 C 11 10.2 11.1 10.3 11.1 10.4 C 11.1 10.4 11 10.5 11 10.5 C 11 10.5 10.9 10.6 10.8 10.6 C 10.7 10.6 10.7 10.6 10.6 10.6 C 10.6 10.6 10.5 10.6 10.5 10.6 C 10.2 10.6 10 10.7 10 10.7 C 10 10.7 10 10.7 10 10.7 C 10 10.7 10 10.7 9.9 10.7 C 9.9 10.7 9.9 10.8 9.9 10.9 C 9.9 11.1 9.9 11.2 9.9 11.2 C 9.9 11.2 9.9 11.3 9.9 11.3 C 10 11.3 10.1 11.2 10.3 11.2 C 10.5 11.2 10.6 11.2 10.7 11.2 C 10.8 11.1 10.9 11.1 10.9 11.1 C 11.1 11.1 11.1 11.2 11.1 11.3 C 11.1 11.3 11.1 11.4 11.1 11.4 C 11 11.4 10.9 11.5 10.7 11.5 C 10.5 11.5 10.4 11.5 10.2 11.5 C 10 11.6 9.9 11.6 9.7 11.6 C 9.6 11.6 9.6 11.6 9.5 11.5 C 9.5 11.5 9.5 11.4 9.5 11.4 C 9.5 11.4 9.5 11.3 9.5 11.3 C 9.5 11.3 9.5 11.3 9.5 11.2 C 9.5 11.1 9.6 10.9 9.6 10.4 C 9.7 10 9.7 9.8 9.7 9.7 C 9.7 9.7 9.7 9.7 9.7 9.7 C 9.7 9.7 9.7 9.7 9.7 9.7 C 9.7 9.6 9.7 9.6 9.7 9.6 C 9.7 9.6 9.7 9.6 9.7 9.5 C 9.7 9.5 9.7 9.5 9.7 9.5 C 9.8 9.5 9.8 9.4 9.8 9.4 C 9.9 9.4 9.9 9.5 10 9.5 C 10.1 9.5 10.3 9.4 10.8 9.4 C 10.9 9.3 11 9.3 11 9.3 C 11 9.3 11 9.3 11 9.3 C 11.2 9.3 11.3 9.4 11.3 9.5 C 11.3 9.5 11.3 9.6 11.2 9.6 C 11.2 9.6 11.2 9.7 11.1 9.7 Z M 11.7 9.7 C 11.7 9.7 11.64 9.68 11.6 9.7 C 11.6 9.6 11.6 9.6 11.6 9.6 C 11.6 9.5 11.6 9.5 11.7 9.4 C 11.7 9.4 11.8 9.4 11.8 9.4 C 11.8 9.4 11.8 9.4 11.9 9.4 C 11.9 9.4 11.9 9.4 11.9 9.4 C 12.2 9.4 12.4 9.3 12.5 9.3 C 12.7 9.3 12.9 9.4 13 9.5 C 13.2 9.6 13.2 9.7 13.2 9.9 C 13.2 10 13.2 10.2 13 10.3 C 12.9 10.4 12.8 10.5 12.5 10.6 C 12.9 10.9 13.2 11.1 13.3 11.2 C 13.4 11.2 13.4 11.3 13.4 11.3 C 13.4 11.4 13.4 11.4 13.4 11.4 C 13.3 11.5 13.3 11.5 13.2 11.5 C 13.2 11.5 13.1 11.5 13 11.4 C 13 11.4 12.9 11.3 12.7 11.2 C 12.6 11.1 12.5 11 12.5 11 C 12.3 10.9 12.2 10.8 12.1 10.7 C 12 10.7 12 10.7 12 10.6 C 12 10.5 12 10.5 12 10.4 C 12.1 10.4 12.1 10.4 12.2 10.4 C 12.2 10.4 12.2 10.4 12.2 10.4 C 12.3 10.4 12.3 10.4 12.3 10.4 C 12.3 10.4 12.4 10.3 12.6 10.2 C 12.8 10.1 12.9 10 12.9 9.9 C 12.9 9.8 12.8 9.7 12.8 9.7 C 12.7 9.6 12.6 9.6 12.5 9.6 C 12.4 9.6 12.3 9.6 12.2 9.6 C 12.1 9.7 12.1 9.7 12.1 9.7 C 12 9.7 12 9.7 12 9.7 C 12 9.8 12 9.9 12 10 C 11.9 10.2 11.9 10.4 11.9 10.6 C 11.8 10.8 11.8 11 11.8 11.1 C 11.8 11.1 11.8 11.2 11.8 11.2 C 11.9 11.3 11.9 11.3 11.9 11.4 C 11.9 11.4 11.8 11.4 11.8 11.5 C 11.8 11.5 11.7 11.5 11.7 11.5 C 11.5 11.5 11.5 11.5 11.5 11.3 C 11.5 11.1 11.5 10.9 11.5 10.6 C 11.5 10.4 11.6 10.1 11.6 9.9 C 11.6 9.9 11.6 9.8 11.6 9.8 C 11.64 9.82 11.7 9.7 11.7 9.7 Z M 13.6 11 C 13.6 11 13.74 10.5 13.7 10.5 C 13.8 10.1 13.9 9.8 13.9 9.7 C 13.9 9.6 13.9 9.6 13.9 9.5 C 13.9 9.5 13.9 9.5 14 9.5 C 14 9.4 14 9.4 14.1 9.4 C 14.1 9.4 14.1 9.4 14.2 9.4 C 14.2 9.5 14.3 9.5 14.3 9.6 C 14.3 9.8 14.4 10 14.6 10.3 C 14.8 10.6 14.9 10.8 15.1 11 C 15.1 10.8 15.1 10.6 15.2 10.3 C 15.2 10.1 15.2 10 15.3 9.8 C 15.3 9.7 15.3 9.6 15.3 9.5 C 15.3 9.4 15.3 9.4 15.4 9.3 C 15.4 9.3 15.5 9.3 15.5 9.3 C 15.6 9.3 15.6 9.3 15.6 9.4 C 15.7 9.4 15.7 9.5 15.7 9.5 C 15.7 9.6 15.7 9.7 15.6 9.8 C 15.6 10 15.5 10.3 15.5 10.6 C 15.4 11 15.4 11.2 15.4 11.2 C 15.4 11.2 15.4 11.3 15.4 11.3 C 15.4 11.3 15.4 11.4 15.4 11.4 C 15.3 11.4 15.3 11.5 15.3 11.5 C 15.2 11.5 15.2 11.5 15.1 11.5 C 15.1 11.5 15.1 11.5 15.1 11.5 C 15 11.5 15 11.5 15 11.4 C 15 11.4 14.9 11.4 14.9 11.3 C 14.9 11.2 14.8 11.2 14.8 11.1 C 14.6 10.9 14.3 10.5 14.1 10.1 C 14.1 10.2 14 10.5 14 11 C 14 11 14 11.1 14 11.1 C 14 11.1 14 11.2 14 11.3 C 13.9 11.4 13.9 11.5 13.9 11.5 C 13.8 11.6 13.8 11.6 13.8 11.6 C 13.7 11.6 13.6 11.6 13.6 11.5 C 13.6 11.5 13.6 11.4 13.6 11.3 C 13.6 11.3 13.6 11.1 13.6 11 C 13.63 11 13.6 11 13.6 11 Z M 16.5 11.6 C 16.3 11.6 16.2 11.5 16.1 11.3 C 15.9 11.2 15.9 11 15.9 10.8 C 15.9 10.6 15.9 10.4 16.1 10.2 C 16.2 9.9 16.3 9.7 16.5 9.6 C 16.7 9.4 16.9 9.3 17.1 9.3 C 17.3 9.3 17.4 9.4 17.5 9.4 C 17.7 9.4 17.8 9.5 17.8 9.6 C 17.9 9.6 18 9.7 18 9.8 C 18 9.9 18.1 10 18.1 10.1 C 18.1 10.3 18 10.4 17.9 10.6 C 17.9 10.8 17.7 10.9 17.6 11.1 C 17.4 11.2 17.3 11.4 17.1 11.4 C 17 11.5 16.8 11.6 16.5 11.6 Z M 16.3 10.8 C 16.3 11 16.3 11.1 16.4 11.1 C 16.4 11.2 16.5 11.3 16.6 11.3 C 16.9 11.3 17.1 11.1 17.3 10.9 C 17.6 10.6 17.7 10.4 17.7 10.1 C 17.7 10 17.7 9.9 17.6 9.8 C 17.6 9.8 17.5 9.7 17.4 9.7 C 17.3 9.6 17.2 9.6 17.1 9.6 C 17 9.6 16.8 9.8 16.6 10 C 16.4 10.3 16.3 10.6 16.3 10.8 Z M 18.2 11.4 C 18.2 11.4 18.1 11.4 18.1 11.4 C 18.1 11.4 18 11.3 18 11.2 C 18 11.2 18 11.1 18.1 11.1 C 18.1 11.1 18.1 11 18.1 11 C 18.2 11 18.2 11 18.3 11 C 18.4 11 18.4 11 18.4 11 C 18.5 11.1 18.5 11.1 18.5 11.1 C 18.5 11.2 18.5 11.2 18.5 11.3 C 18.4 11.3 18.4 11.3 18.4 11.4 C 18.3 11.4 18.2 11.4 18.2 11.4 Z M 18.9 11.4 C 18.8 11.4 18.8 11.4 18.8 11.4 C 18.7 11.4 18.7 11.3 18.7 11.2 C 18.7 11.2 18.7 11.1 18.7 11.1 C 18.7 11.1 18.8 11 18.8 11 C 18.9 11 18.9 11 19 11 C 19.1 11 19.1 11 19.1 11 C 19.2 11.1 19.2 11.1 19.2 11.1 C 19.2 11.2 19.2 11.2 19.2 11.3 C 19.1 11.3 19.1 11.3 19 11.4 C 19 11.4 18.9 11.4 18.9 11.4 Z M 19.6 11.4 C 19.5 11.4 19.5 11.4 19.5 11.4 C 19.4 11.4 19.4 11.3 19.4 11.2 C 19.4 11.2 19.4 11.1 19.4 11.1 C 19.4 11.1 19.5 11 19.5 11 C 19.5 11 19.6 11 19.7 11 C 19.7 11 19.8 11 19.8 11 C 19.8 11.1 19.9 11.1 19.9 11.1 C 19.9 11.2 19.9 11.2 19.8 11.3 C 19.8 11.3 19.8 11.3 19.7 11.4 C 19.7 11.4 19.6 11.4 19.6 11.4 Z M 22.9 9.6 C 22.9 9.8 22.8 9.9 22.7 9.9 C 22.7 9.8 22.6 9.7 22.6 9.7 C 22.5 9.7 22.5 9.6 22.4 9.6 C 22.2 9.6 22 9.7 21.9 9.8 C 21.8 9.8 21.7 9.9 21.7 10 C 21.7 10.1 21.7 10.1 21.8 10.2 C 21.8 10.2 22 10.3 22.2 10.3 C 22.4 10.4 22.6 10.5 22.7 10.6 C 22.8 10.7 22.9 10.7 22.9 10.9 C 22.9 11 22.7 11.2 22.4 11.4 C 22.2 11.5 21.9 11.6 21.5 11.6 C 21.4 11.6 21.4 11.6 21.3 11.6 C 21.2 11.5 21.2 11.5 21.2 11.4 C 21.2 11.3 21.2 11.3 21.3 11.3 C 21.3 11.2 21.3 11.2 21.4 11.2 C 21.4 11.2 21.4 11.2 21.4 11.2 C 21.5 11.3 21.6 11.3 21.7 11.3 C 21.9 11.3 22 11.2 22.2 11.1 C 22.4 11.1 22.5 11 22.5 10.9 C 22.5 10.9 22.5 10.8 22.4 10.8 C 22.4 10.8 22.3 10.7 22.1 10.7 C 21.9 10.6 21.8 10.6 21.7 10.5 C 21.6 10.5 21.5 10.4 21.4 10.3 C 21.4 10.3 21.3 10.2 21.3 10.1 C 21.3 9.9 21.4 9.7 21.7 9.6 C 21.9 9.4 22.1 9.3 22.4 9.3 C 22.6 9.3 22.7 9.4 22.8 9.4 C 22.9 9.5 22.9 9.6 22.9 9.6 C 22.9 9.6 22.9 9.6 22.9 9.6 Z M 23.7 11.6 C 23.6 11.6 23.4 11.5 23.3 11.3 C 23.2 11.2 23.1 11 23.1 10.8 C 23.1 10.6 23.2 10.4 23.3 10.2 C 23.4 9.9 23.6 9.7 23.8 9.6 C 24 9.4 24.2 9.3 24.4 9.3 C 24.5 9.3 24.7 9.4 24.8 9.4 C 24.9 9.4 25 9.5 25.1 9.6 C 25.1 9.6 25.2 9.7 25.2 9.8 C 25.3 9.9 25.3 10 25.3 10.1 C 25.3 10.3 25.2 10.4 25.2 10.6 C 25.1 10.8 25 10.9 24.8 11.1 C 24.7 11.2 24.5 11.4 24.4 11.4 C 24.2 11.5 24 11.6 23.7 11.6 Z M 23.5 10.8 C 23.5 11 23.5 11.1 23.6 11.1 C 23.7 11.2 23.7 11.3 23.8 11.3 C 24.1 11.3 24.3 11.1 24.6 10.9 C 24.8 10.6 24.9 10.4 24.9 10.1 C 24.9 10 24.9 9.9 24.9 9.8 C 24.8 9.8 24.7 9.7 24.7 9.7 C 24.6 9.6 24.5 9.6 24.4 9.6 C 24.2 9.6 24 9.8 23.8 10 C 23.6 10.3 23.5 10.6 23.5 10.8 Z M 26.9 10.3 C 27.1 10.3 27.2 10.4 27.3 10.5 C 27.3 10.6 27.3 10.7 27.3 10.8 C 27.3 11 27.2 11.2 27 11.4 C 26.7 11.6 26.5 11.7 26.2 11.7 C 26.1 11.7 26 11.6 26 11.5 C 26 11.4 26.1 11.3 26.3 11.3 C 26.3 11.3 26.4 11.3 26.4 11.3 C 26.5 11.3 26.6 11.2 26.8 11.1 C 26.9 11 27 10.9 27 10.8 C 27 10.7 26.9 10.7 26.9 10.6 C 26.8 10.6 26.7 10.5 26.6 10.5 C 26.6 10.5 26.6 10.5 26.5 10.6 C 26.5 10.6 26.4 10.6 26.4 10.6 C 26.3 10.6 26.2 10.6 26.2 10.6 C 26.2 10.6 26.2 10.5 26.2 10.4 C 26.2 10.4 26.3 10.3 26.5 10.3 C 26.6 10.2 26.7 10.1 26.8 10 C 26.9 9.9 27 9.8 27 9.7 C 27 9.7 26.9 9.6 26.8 9.6 C 26.6 9.6 26.5 9.6 26.4 9.6 C 26.2 9.7 26.2 9.7 26.2 9.8 C 26.1 9.8 26.1 10 26 10.4 C 26 10.8 26 11.1 26 11.1 C 26 11.1 25.9 11.3 25.9 11.3 C 25.9 11.4 25.9 11.5 25.9 11.5 C 25.8 11.5 25.8 11.6 25.7 11.6 C 25.6 11.6 25.5 11.5 25.5 11.3 C 25.5 11.3 25.6 11.2 25.6 11.2 C 25.6 11 25.7 10.7 25.7 10.4 C 25.7 10.1 25.8 9.9 25.8 9.9 C 25.8 9.9 25.7 9.8 25.7 9.8 C 25.7 9.8 25.7 9.8 25.7 9.8 C 25.7 9.8 25.6 9.8 25.6 9.8 C 25.6 9.8 25.6 9.8 25.6 9.8 C 25.6 9.7 25.6 9.7 25.6 9.7 C 25.6 9.6 25.7 9.5 26 9.4 C 26.2 9.3 26.5 9.3 26.8 9.3 C 27 9.3 27.1 9.3 27.2 9.4 C 27.3 9.5 27.4 9.6 27.4 9.7 C 27.4 9.8 27.3 9.9 27.3 10 C 27.2 10 27.1 10.2 26.9 10.3 Z M 27.8 9.7 C 27.8 9.7 27.83 9.68 27.8 9.7 C 27.8 9.6 27.8 9.6 27.8 9.6 C 27.8 9.5 27.8 9.5 27.9 9.4 C 27.9 9.4 27.9 9.4 28 9.4 C 28 9.4 28 9.4 28 9.4 C 28.1 9.4 28.1 9.4 28.1 9.4 C 28.4 9.4 28.6 9.3 28.7 9.3 C 28.9 9.3 29.1 9.4 29.2 9.5 C 29.3 9.6 29.4 9.7 29.4 9.9 C 29.4 10 29.3 10.2 29.2 10.3 C 29.1 10.4 28.9 10.5 28.7 10.6 C 29.1 10.9 29.3 11.1 29.5 11.2 C 29.6 11.2 29.6 11.3 29.6 11.3 C 29.6 11.4 29.6 11.4 29.5 11.4 C 29.5 11.5 29.5 11.5 29.4 11.5 C 29.4 11.5 29.3 11.5 29.2 11.4 C 29.2 11.4 29.1 11.3 28.9 11.2 C 28.8 11.1 28.7 11 28.7 11 C 28.5 10.9 28.4 10.8 28.3 10.7 C 28.2 10.7 28.1 10.7 28.1 10.6 C 28.1 10.5 28.2 10.5 28.2 10.4 C 28.2 10.4 28.3 10.4 28.4 10.4 C 28.4 10.4 28.4 10.4 28.4 10.4 C 28.4 10.4 28.4 10.4 28.5 10.4 C 28.5 10.4 28.6 10.3 28.8 10.2 C 29 10.1 29.1 10 29.1 9.9 C 29.1 9.8 29 9.7 28.9 9.7 C 28.9 9.6 28.8 9.6 28.7 9.6 C 28.5 9.6 28.4 9.6 28.4 9.6 C 28.3 9.7 28.2 9.7 28.2 9.7 C 28.2 9.7 28.2 9.7 28.2 9.7 C 28.2 9.8 28.2 9.9 28.1 10 C 28.1 10.2 28.1 10.4 28.1 10.6 C 28 10.8 28 11 28 11.1 C 28 11.1 28 11.2 28 11.2 C 28 11.3 28 11.3 28 11.4 C 28 11.4 28 11.4 28 11.5 C 27.9 11.5 27.9 11.5 27.8 11.5 C 27.7 11.5 27.6 11.5 27.6 11.3 C 27.6 11.1 27.7 10.9 27.7 10.6 C 27.7 10.4 27.8 10.1 27.8 9.9 C 27.8 9.9 27.8 9.8 27.8 9.8 C 27.83 9.82 27.8 9.7 27.8 9.7 Z M 30.2 11 C 30.2 11 30.2 11 30.2 11 C 30.1 11 30.1 11.1 30 11.3 C 29.9 11.4 29.9 11.5 29.8 11.5 C 29.8 11.5 29.8 11.5 29.7 11.5 C 29.7 11.5 29.7 11.5 29.6 11.5 C 29.6 11.4 29.5 11.4 29.5 11.4 C 29.5 11.3 29.7 11.1 29.9 10.7 C 30 10.5 30.2 10.3 30.3 10.1 C 30.5 9.7 30.6 9.5 30.7 9.4 C 30.7 9.4 30.8 9.3 30.8 9.3 C 30.9 9.3 31 9.3 31 9.4 C 31 9.4 31 9.4 31 9.5 C 31 9.5 31 9.6 31 9.6 C 31.2 10.1 31.3 10.5 31.4 10.7 C 31.5 11 31.6 11.1 31.7 11.2 C 31.8 11.3 31.8 11.3 31.8 11.3 C 31.8 11.4 31.9 11.4 31.9 11.4 C 31.9 11.5 31.8 11.5 31.8 11.5 C 31.8 11.6 31.7 11.6 31.7 11.6 C 31.6 11.6 31.5 11.6 31.4 11.5 C 31.4 11.4 31.3 11.3 31.2 11.1 C 31.1 11 31.1 10.9 31.1 10.9 C 31.1 10.9 31.1 10.9 31.1 10.9 C 31.1 10.9 30.9 10.9 30.8 10.9 C 30.6 10.9 30.4 11 30.3 11 C 30.3 11 30.3 11 30.2 11 C 30.2 11 30.2 11 30.2 11 Z M 30.9 10.6 C 30.9 10.6 31 10.6 31 10.6 C 31 10.5 30.9 10.3 30.8 9.9 C 30.8 9.9 30.8 9.9 30.8 9.9 C 30.8 9.9 30.3 10.7 30.3 10.7 C 30.4 10.7 30.5 10.6 30.5 10.6 C 30.6 10.6 30.7 10.6 30.9 10.6 C 30.9 10.6 30.9 10.6 30.9 10.6 Z M 32.2 9.7 C 32.2 9.7 32.21 9.68 32.2 9.7 C 32.2 9.6 32.2 9.6 32.2 9.6 C 32.2 9.5 32.2 9.5 32.2 9.4 C 32.3 9.4 32.3 9.4 32.4 9.4 C 32.4 9.4 32.4 9.4 32.4 9.4 C 32.5 9.4 32.5 9.4 32.5 9.4 C 32.8 9.4 33 9.3 33.1 9.3 C 33.3 9.3 33.5 9.4 33.6 9.5 C 33.7 9.6 33.8 9.7 33.8 9.9 C 33.8 10 33.7 10.2 33.6 10.3 C 33.5 10.4 33.3 10.5 33.1 10.6 C 33.5 10.9 33.7 11.1 33.9 11.2 C 34 11.2 34 11.3 34 11.3 C 34 11.4 34 11.4 33.9 11.4 C 33.9 11.5 33.8 11.5 33.8 11.5 C 33.7 11.5 33.7 11.5 33.6 11.4 C 33.5 11.4 33.4 11.3 33.3 11.2 C 33.2 11.1 33.1 11 33.1 11 C 32.9 10.9 32.8 10.8 32.7 10.7 C 32.6 10.7 32.5 10.7 32.5 10.6 C 32.5 10.5 32.5 10.5 32.6 10.4 C 32.6 10.4 32.7 10.4 32.7 10.4 C 32.8 10.4 32.8 10.4 32.8 10.4 C 32.8 10.4 32.8 10.4 32.8 10.4 C 32.9 10.4 33 10.3 33.2 10.2 C 33.4 10.1 33.4 10 33.4 9.9 C 33.4 9.8 33.4 9.7 33.3 9.7 C 33.3 9.6 33.2 9.6 33.1 9.6 C 32.9 9.6 32.8 9.6 32.8 9.6 C 32.7 9.7 32.6 9.7 32.6 9.7 C 32.6 9.7 32.6 9.7 32.6 9.7 C 32.6 9.8 32.6 9.9 32.5 10 C 32.5 10.2 32.5 10.4 32.4 10.6 C 32.4 10.8 32.4 11 32.4 11.1 C 32.4 11.1 32.4 11.2 32.4 11.2 C 32.4 11.3 32.4 11.3 32.4 11.4 C 32.4 11.4 32.4 11.4 32.4 11.5 C 32.3 11.5 32.3 11.5 32.2 11.5 C 32.1 11.5 32 11.5 32 11.3 C 32 11.1 32 10.9 32.1 10.6 C 32.1 10.4 32.1 10.1 32.2 9.9 C 32.2 9.9 32.2 9.8 32.2 9.8 C 32.21 9.82 32.2 9.7 32.2 9.7 Z M 34.7 10 C 34.7 10.1 34.6 10.2 34.6 10.2 C 34.6 10.3 34.6 10.3 34.6 10.5 C 34.6 10.7 34.6 10.8 34.6 10.9 C 34.6 11 34.6 11.1 34.6 11.3 C 34.6 11.4 34.6 11.4 34.5 11.5 C 34.5 11.5 34.4 11.5 34.4 11.5 C 34.3 11.5 34.3 11.5 34.2 11.4 C 34.2 11.4 34.2 11.3 34.2 11.1 C 34.2 11 34.2 10.8 34.3 10.5 C 34.3 10.5 34.3 9.9 34.3 9.9 C 34.3 9.8 34.4 9.7 34.4 9.7 C 34.4 9.5 34.4 9.5 34.4 9.5 C 34.4 9.4 34.5 9.4 34.5 9.4 C 34.5 9.4 34.6 9.3 34.6 9.3 C 34.7 9.3 34.7 9.4 34.7 9.4 C 34.8 9.5 34.8 9.5 34.8 9.6 C 34.8 9.6 34.7 10 34.7 10 Z M 35.5 11 C 35.5 11 35.4 11 35.4 11 C 35.4 11 35.4 11.1 35.3 11.3 C 35.2 11.4 35.1 11.5 35.1 11.5 C 35.1 11.5 35 11.5 35 11.5 C 35 11.5 34.9 11.5 34.9 11.5 C 34.8 11.4 34.8 11.4 34.8 11.4 C 34.8 11.3 34.9 11.1 35.2 10.7 C 35.3 10.5 35.4 10.3 35.5 10.1 C 35.8 9.7 35.9 9.5 35.9 9.4 C 36 9.4 36 9.3 36.1 9.3 C 36.2 9.3 36.2 9.3 36.3 9.4 C 36.3 9.4 36.3 9.4 36.3 9.5 C 36.3 9.5 36.3 9.6 36.3 9.6 C 36.5 10.1 36.6 10.5 36.7 10.7 C 36.8 11 36.9 11.1 37 11.2 C 37.1 11.3 37.1 11.3 37.1 11.3 C 37.1 11.4 37.1 11.4 37.1 11.4 C 37.1 11.5 37.1 11.5 37.1 11.5 C 37 11.6 37 11.6 36.9 11.6 C 36.9 11.6 36.8 11.6 36.7 11.5 C 36.6 11.4 36.6 11.3 36.5 11.1 C 36.4 11 36.4 10.9 36.4 10.9 C 36.4 10.9 36.4 10.9 36.4 10.9 C 36.3 10.9 36.2 10.9 36 10.9 C 35.8 10.9 35.7 11 35.6 11 C 35.6 11 35.5 11 35.5 11 C 35.5 11 35.5 11 35.5 11 Z M 36.1 10.6 C 36.2 10.6 36.2 10.6 36.3 10.6 C 36.2 10.5 36.2 10.3 36.1 9.9 C 36 9.9 36 9.9 36 9.9 C 36 9.9 35.6 10.7 35.6 10.7 C 35.7 10.7 35.7 10.6 35.8 10.6 C 35.9 10.6 36 10.6 36.1 10.6 C 36.1 10.6 36.1 10.6 36.1 10.6 Z M 39 11.1 C 39.1 11.1 39.3 11.1 39.6 11.1 C 39.6 11.1 39.7 11.1 39.8 11.1 C 39.9 11.1 40 11.1 40 11.1 C 40 11.1 40.1 11.1 40.1 11.1 C 40.2 11.1 40.2 11.1 40.3 11.1 C 40.3 11.1 40.3 11.1 40.4 11.1 C 40.4 11.2 40.4 11.2 40.4 11.2 C 40.4 11.3 40.4 11.3 40.3 11.4 C 40.2 11.4 40.1 11.4 40 11.4 C 39.9 11.4 39.9 11.4 39.8 11.4 C 39.7 11.4 39.5 11.4 39.3 11.4 C 39.2 11.4 39.1 11.4 39 11.4 C 38.9 11.4 38.8 11.4 38.8 11.5 C 38.7 11.5 38.7 11.5 38.7 11.5 C 38.6 11.6 38.5 11.6 38.5 11.6 C 38.4 11.6 38.3 11.6 38.3 11.5 C 38.3 11.4 38.3 11.3 38.4 11.3 C 38.5 11.2 38.6 11.1 38.7 11 C 39 10.9 39.1 10.8 39.3 10.6 C 39.4 10.5 39.5 10.4 39.6 10.3 C 39.6 10.2 39.7 10.1 39.7 10.1 C 39.7 10 39.6 9.9 39.6 9.9 C 39.5 9.8 39.5 9.8 39.4 9.8 C 39.3 9.8 39.3 9.8 39.2 9.9 C 39.1 10 39 10 38.9 10.1 C 38.9 10.2 38.8 10.2 38.7 10.2 C 38.7 10.2 38.6 10.2 38.6 10.1 C 38.6 10.1 38.6 10 38.6 10 C 38.6 9.9 38.6 9.9 38.7 9.8 C 38.7 9.8 38.7 9.8 38.8 9.8 C 38.9 9.7 39 9.6 39.1 9.5 C 39.2 9.5 39.3 9.5 39.5 9.5 C 39.6 9.5 39.7 9.5 39.9 9.7 C 40 9.8 40 9.9 40 10 C 40 10.2 40 10.4 39.8 10.6 C 39.6 10.8 39.3 11 39 11.1 Z " stroke="none" fill="#000"/>  </g>  <g id="Polygon14107">    <path d="M 8.7 6 C 8.6 6.1 8.6 6.2 8.6 6.2 C 8.6 6.3 8.6 6.3 8.6 6.5 C 8.6 6.7 8.5 6.8 8.5 6.9 C 8.5 7 8.5 7.1 8.6 7.3 C 8.6 7.4 8.6 7.4 8.5 7.5 C 8.5 7.5 8.4 7.5 8.4 7.5 C 8.3 7.5 8.2 7.5 8.2 7.4 C 8.2 7.4 8.2 7.3 8.2 7.1 C 8.2 7 8.2 6.8 8.2 6.5 C 8.2 6.5 8.3 5.9 8.3 5.9 C 8.3 5.8 8.3 5.7 8.4 5.7 C 8.4 5.5 8.4 5.5 8.4 5.5 C 8.4 5.4 8.4 5.4 8.5 5.4 C 8.5 5.4 8.6 5.3 8.6 5.3 C 8.6 5.3 8.7 5.4 8.7 5.4 C 8.7 5.5 8.8 5.5 8.8 5.6 C 8.8 5.6 8.7 6 8.7 6 Z M 9.1 7 C 9.1 7 9.18 6.5 9.2 6.5 C 9.3 6.1 9.3 5.8 9.3 5.7 C 9.3 5.6 9.3 5.6 9.3 5.5 C 9.3 5.5 9.4 5.5 9.4 5.5 C 9.4 5.4 9.5 5.4 9.5 5.4 C 9.6 5.4 9.6 5.4 9.6 5.4 C 9.7 5.5 9.7 5.5 9.7 5.6 C 9.8 5.8 9.9 6 10 6.3 C 10.2 6.6 10.4 6.8 10.5 7 C 10.5 6.8 10.6 6.6 10.6 6.3 C 10.7 6.1 10.7 6 10.7 5.8 C 10.7 5.7 10.7 5.6 10.8 5.5 C 10.8 5.4 10.8 5.4 10.8 5.3 C 10.9 5.3 10.9 5.3 11 5.3 C 11 5.3 11 5.3 11.1 5.4 C 11.1 5.4 11.1 5.5 11.1 5.5 C 11.1 5.6 11.1 5.7 11.1 5.8 C 11 6 11 6.3 10.9 6.6 C 10.8 7 10.8 7.2 10.8 7.2 C 10.8 7.2 10.8 7.3 10.8 7.3 C 10.8 7.3 10.8 7.4 10.8 7.4 C 10.8 7.4 10.8 7.5 10.7 7.5 C 10.7 7.5 10.6 7.5 10.6 7.5 C 10.5 7.5 10.5 7.5 10.5 7.5 C 10.5 7.5 10.5 7.5 10.4 7.4 C 10.4 7.4 10.4 7.4 10.3 7.3 C 10.3 7.2 10.3 7.2 10.2 7.1 C 10 6.9 9.8 6.5 9.6 6.1 C 9.5 6.2 9.5 6.5 9.4 7 C 9.4 7 9.4 7.1 9.4 7.1 C 9.4 7.1 9.4 7.2 9.4 7.3 C 9.4 7.4 9.4 7.5 9.3 7.5 C 9.3 7.6 9.2 7.6 9.2 7.6 C 9.1 7.6 9.1 7.6 9.1 7.5 C 9 7.5 9 7.4 9 7.3 C 9 7.3 9 7.1 9.1 7 C 9.07 7 9.1 7 9.1 7 Z M 13 5.7 C 13 5.7 12.6 5.7 12.6 5.7 C 12.4 5.7 12.3 5.7 12.2 5.7 C 12.1 5.7 12 5.8 12 5.8 C 12 5.8 12 5.8 12 5.9 C 12 5.9 12 6 11.9 6.1 C 11.9 6.2 11.9 6.3 11.9 6.3 C 12 6.3 12 6.3 12.2 6.3 C 12.3 6.3 12.4 6.3 12.4 6.3 C 12.6 6.3 12.7 6.2 12.7 6.2 C 12.9 6.2 13 6.3 13 6.4 C 13 6.4 12.9 6.5 12.9 6.5 C 12.9 6.5 12.8 6.6 12.7 6.6 C 12.6 6.6 12.6 6.6 12.5 6.6 C 12.5 6.6 12.4 6.6 12.4 6.6 C 12.1 6.6 11.9 6.7 11.9 6.7 C 11.9 6.7 11.9 6.7 11.9 6.7 C 11.9 6.7 11.9 6.7 11.9 6.7 C 11.8 6.7 11.8 6.8 11.8 6.9 C 11.8 7.1 11.8 7.2 11.8 7.2 C 11.8 7.2 11.8 7.3 11.8 7.3 C 11.9 7.3 12 7.2 12.2 7.2 C 12.4 7.2 12.5 7.2 12.6 7.2 C 12.7 7.1 12.8 7.1 12.8 7.1 C 13 7.1 13 7.2 13 7.3 C 13 7.3 13 7.4 13 7.4 C 12.9 7.4 12.8 7.5 12.6 7.5 C 12.5 7.5 12.3 7.5 12.1 7.5 C 11.9 7.6 11.8 7.6 11.6 7.6 C 11.5 7.6 11.5 7.6 11.4 7.5 C 11.4 7.5 11.4 7.4 11.4 7.4 C 11.4 7.4 11.4 7.3 11.4 7.3 C 11.4 7.3 11.4 7.3 11.4 7.2 C 11.4 7.1 11.5 6.9 11.5 6.4 C 11.6 6 11.6 5.8 11.6 5.7 C 11.6 5.7 11.6 5.7 11.6 5.7 C 11.6 5.7 11.6 5.7 11.6 5.7 C 11.6 5.6 11.6 5.6 11.6 5.6 C 11.6 5.6 11.6 5.6 11.6 5.5 C 11.6 5.5 11.6 5.5 11.6 5.5 C 11.7 5.5 11.7 5.4 11.7 5.4 C 11.8 5.4 11.8 5.5 11.9 5.5 C 12 5.5 12.2 5.4 12.7 5.4 C 12.8 5.3 12.9 5.3 12.9 5.3 C 12.9 5.3 12.9 5.3 12.9 5.3 C 13.1 5.3 13.2 5.4 13.2 5.5 C 13.2 5.5 13.2 5.6 13.1 5.6 C 13.1 5.6 13.1 5.7 13 5.7 Z M 15 5.6 C 14.9 5.7 14.9 5.7 14.9 5.7 C 14.9 5.7 14.8 5.7 14.8 5.7 C 14.8 5.7 14.8 5.7 14.7 5.7 C 14.6 5.7 14.4 5.7 14.3 5.7 C 14.1 5.7 14 5.7 14 5.7 C 13.9 5.9 13.9 6.2 13.9 6.4 C 13.9 6.4 13.9 6.4 14 6.4 C 14.1 6.4 14.3 6.4 14.4 6.3 C 14.5 6.3 14.6 6.3 14.7 6.3 C 14.8 6.3 14.9 6.4 14.9 6.5 C 14.9 6.5 14.9 6.5 14.8 6.5 C 14.8 6.6 14.8 6.6 14.7 6.6 C 14.7 6.6 14.7 6.6 14.6 6.6 C 14.6 6.6 14.2 6.7 14.2 6.7 C 14 6.7 13.9 6.7 13.8 6.7 C 13.8 6.8 13.8 6.8 13.8 6.8 C 13.8 6.8 13.8 6.8 13.8 6.9 C 13.8 7.1 13.8 7.2 13.8 7.2 C 13.8 7.2 13.8 7.4 13.8 7.4 C 13.8 7.5 13.7 7.6 13.6 7.6 C 13.6 7.6 13.5 7.6 13.5 7.5 C 13.4 7.5 13.4 7.4 13.4 7.4 C 13.4 7.2 13.4 7.1 13.4 6.8 C 13.4 6.8 13.5 6.5 13.6 5.7 C 13.6 5.7 13.6 5.7 13.6 5.7 C 13.6 5.6 13.6 5.6 13.6 5.6 C 13.6 5.5 13.6 5.5 13.6 5.5 C 13.7 5.4 13.7 5.4 13.7 5.4 C 13.8 5.4 13.8 5.4 13.8 5.4 C 13.8 5.4 13.9 5.4 13.9 5.4 C 14 5.4 14.1 5.4 14.4 5.4 C 14.6 5.3 14.7 5.3 14.8 5.3 C 14.9 5.3 14.9 5.4 15 5.4 C 15.1 5.4 15.1 5.4 15.1 5.5 C 15.1 5.5 15 5.6 15 5.6 C 15 5.6 15 5.6 15 5.6 Z M 15.6 6 C 15.6 6.1 15.6 6.2 15.6 6.2 C 15.6 6.3 15.5 6.3 15.5 6.5 C 15.5 6.7 15.5 6.8 15.5 6.9 C 15.5 7 15.5 7.1 15.5 7.3 C 15.5 7.4 15.5 7.4 15.4 7.5 C 15.4 7.5 15.4 7.5 15.3 7.5 C 15.2 7.5 15.2 7.5 15.2 7.4 C 15.1 7.4 15.1 7.3 15.1 7.1 C 15.1 7 15.1 6.8 15.2 6.5 C 15.2 6.5 15.3 5.9 15.3 5.9 C 15.3 5.8 15.3 5.7 15.3 5.7 C 15.3 5.5 15.3 5.5 15.3 5.5 C 15.4 5.4 15.4 5.4 15.4 5.4 C 15.5 5.4 15.5 5.3 15.5 5.3 C 15.6 5.3 15.6 5.4 15.7 5.4 C 15.7 5.5 15.7 5.5 15.7 5.6 C 15.7 5.6 15.6 6 15.6 6 Z M 17.3 7.1 C 17.4 7 17.4 7 17.5 7 C 17.5 7 17.6 7 17.6 7.1 C 17.6 7.2 17.5 7.3 17.2 7.4 C 17 7.5 16.8 7.6 16.6 7.6 C 16.4 7.6 16.3 7.5 16.1 7.4 C 16 7.3 15.9 7.1 15.9 6.9 C 15.9 6.7 16 6.4 16.1 6.2 C 16.3 5.9 16.5 5.7 16.7 5.5 C 17 5.3 17.2 5.2 17.4 5.2 C 17.5 5.2 17.6 5.3 17.7 5.3 C 17.8 5.4 17.8 5.5 17.8 5.6 C 17.8 5.7 17.8 5.8 17.8 5.9 C 17.8 5.9 17.7 6 17.7 6 C 17.6 6 17.6 6 17.5 6 C 17.5 6 17.5 6 17.5 6 C 17.4 6 17.4 5.9 17.4 5.9 C 17.4 5.9 17.4 5.8 17.4 5.8 C 17.5 5.7 17.5 5.7 17.5 5.6 C 17.5 5.5 17.4 5.5 17.4 5.5 C 17.2 5.5 17.1 5.6 16.9 5.7 C 16.7 5.9 16.6 6.1 16.5 6.3 C 16.3 6.5 16.3 6.7 16.3 6.9 C 16.3 7 16.3 7.1 16.4 7.2 C 16.4 7.3 16.5 7.3 16.7 7.3 C 16.7 7.3 16.8 7.3 16.9 7.2 C 17.1 7.2 17.2 7.1 17.3 7.1 C 17.3 7.1 17.3 7.1 17.3 7.1 Z M 18.5 6 C 18.5 6.1 18.5 6.2 18.5 6.2 C 18.5 6.3 18.5 6.3 18.4 6.5 C 18.4 6.7 18.4 6.8 18.4 6.9 C 18.4 7 18.4 7.1 18.4 7.3 C 18.4 7.4 18.4 7.4 18.4 7.5 C 18.3 7.5 18.3 7.5 18.2 7.5 C 18.2 7.5 18.1 7.5 18.1 7.4 C 18 7.4 18 7.3 18 7.1 C 18 7 18.1 6.8 18.1 6.5 C 18.1 6.5 18.2 5.9 18.2 5.9 C 18.2 5.8 18.2 5.7 18.2 5.7 C 18.2 5.5 18.2 5.5 18.3 5.5 C 18.3 5.4 18.3 5.4 18.3 5.4 C 18.4 5.4 18.4 5.3 18.4 5.3 C 18.5 5.3 18.5 5.4 18.6 5.4 C 18.6 5.5 18.6 5.5 18.6 5.6 C 18.6 5.6 18.5 6 18.5 6 Z M 20.5 5.7 C 20.5 5.7 20.1 5.7 20.1 5.7 C 19.9 5.7 19.8 5.7 19.7 5.7 C 19.6 5.7 19.5 5.8 19.5 5.8 C 19.5 5.8 19.5 5.8 19.5 5.9 C 19.5 5.9 19.5 6 19.4 6.1 C 19.4 6.2 19.4 6.3 19.4 6.3 C 19.5 6.3 19.5 6.3 19.7 6.3 C 19.8 6.3 19.9 6.3 19.9 6.3 C 20.1 6.3 20.2 6.2 20.2 6.2 C 20.4 6.2 20.5 6.3 20.5 6.4 C 20.5 6.4 20.4 6.5 20.4 6.5 C 20.4 6.5 20.3 6.6 20.2 6.6 C 20.1 6.6 20.1 6.6 20 6.6 C 20 6.6 19.9 6.6 19.9 6.6 C 19.6 6.6 19.4 6.7 19.4 6.7 C 19.4 6.7 19.4 6.7 19.4 6.7 C 19.4 6.7 19.4 6.7 19.4 6.7 C 19.3 6.7 19.3 6.8 19.3 6.9 C 19.3 7.1 19.3 7.2 19.3 7.2 C 19.3 7.2 19.3 7.3 19.3 7.3 C 19.4 7.3 19.5 7.2 19.7 7.2 C 19.9 7.2 20 7.2 20.1 7.2 C 20.2 7.1 20.3 7.1 20.3 7.1 C 20.5 7.1 20.5 7.2 20.5 7.3 C 20.5 7.3 20.5 7.4 20.5 7.4 C 20.4 7.4 20.3 7.5 20.1 7.5 C 20 7.5 19.8 7.5 19.6 7.5 C 19.4 7.6 19.3 7.6 19.1 7.6 C 19 7.6 19 7.6 18.9 7.5 C 18.9 7.5 18.9 7.4 18.9 7.4 C 18.9 7.4 18.9 7.3 18.9 7.3 C 18.9 7.3 18.9 7.3 18.9 7.2 C 18.9 7.1 19 6.9 19 6.4 C 19.1 6 19.1 5.8 19.1 5.7 C 19.1 5.7 19.1 5.7 19.1 5.7 C 19.1 5.7 19.1 5.7 19.1 5.7 C 19.1 5.6 19.1 5.6 19.1 5.6 C 19.1 5.6 19.1 5.6 19.1 5.5 C 19.1 5.5 19.1 5.5 19.1 5.5 C 19.2 5.5 19.2 5.4 19.2 5.4 C 19.3 5.4 19.3 5.5 19.4 5.5 C 19.5 5.5 19.7 5.4 20.2 5.4 C 20.3 5.3 20.4 5.3 20.4 5.3 C 20.4 5.3 20.4 5.3 20.4 5.3 C 20.6 5.3 20.7 5.4 20.7 5.5 C 20.7 5.5 20.7 5.6 20.6 5.6 C 20.6 5.6 20.6 5.7 20.5 5.7 Z M 20.2 4.8 C 20.1 4.8 20 4.7 20 4.6 C 20 4.7 20 4.7 19.9 4.7 C 19.9 4.8 19.9 4.8 19.9 4.8 C 19.9 4.8 19.9 4.8 19.9 4.8 C 19.8 4.8 19.8 4.8 19.8 4.9 C 19.7 4.9 19.7 5 19.6 5 C 19.6 5.1 19.6 5.1 19.5 5.1 C 19.5 5.1 19.4 5.1 19.4 5.1 C 19.4 5.1 19.4 5 19.4 4.9 C 19.4 4.9 19.4 4.8 19.5 4.8 C 19.5 4.8 19.5 4.8 19.5 4.8 C 19.5 4.8 19.6 4.6 19.6 4.6 C 19.7 4.6 19.8 4.5 19.8 4.5 C 19.9 4.3 20 4.3 20.1 4.3 C 20.1 4.3 20.2 4.4 20.3 4.5 C 20.3 4.6 20.4 4.6 20.4 4.7 C 20.4 4.7 20.4 4.7 20.4 4.7 C 20.5 4.8 20.5 4.8 20.5 4.9 C 20.6 4.9 20.6 4.9 20.6 4.9 C 20.6 5 20.6 5 20.6 5 C 20.6 5 20.6 5.1 20.6 5.1 C 20.5 5.1 20.5 5.1 20.5 5.1 C 20.4 5.1 20.3 5.1 20.3 5 C 20.2 4.9 20.2 4.9 20.2 4.8 C 20.2 4.8 20.2 4.8 20.2 4.8 Z M 20.9 7 C 20.9 7 21.03 6.5 21 6.5 C 21.1 6.1 21.2 5.8 21.2 5.7 C 21.2 5.6 21.2 5.6 21.2 5.5 C 21.2 5.5 21.2 5.5 21.2 5.5 C 21.3 5.4 21.3 5.4 21.4 5.4 C 21.4 5.4 21.4 5.4 21.5 5.4 C 21.5 5.5 21.5 5.5 21.6 5.6 C 21.6 5.8 21.7 6 21.9 6.3 C 22.1 6.6 22.2 6.8 22.3 7 C 22.4 6.8 22.4 6.6 22.5 6.3 C 22.5 6.1 22.5 6 22.6 5.8 C 22.6 5.7 22.6 5.6 22.6 5.5 C 22.6 5.4 22.6 5.4 22.7 5.3 C 22.7 5.3 22.8 5.3 22.8 5.3 C 22.9 5.3 22.9 5.3 22.9 5.4 C 22.9 5.4 23 5.5 23 5.5 C 23 5.6 22.9 5.7 22.9 5.8 C 22.9 6 22.8 6.3 22.7 6.6 C 22.7 7 22.7 7.2 22.7 7.2 C 22.7 7.2 22.7 7.3 22.7 7.3 C 22.7 7.3 22.6 7.4 22.6 7.4 C 22.6 7.4 22.6 7.5 22.6 7.5 C 22.5 7.5 22.5 7.5 22.4 7.5 C 22.4 7.5 22.4 7.5 22.3 7.5 C 22.3 7.5 22.3 7.5 22.3 7.4 C 22.2 7.4 22.2 7.4 22.2 7.3 C 22.1 7.2 22.1 7.2 22.1 7.1 C 21.9 6.9 21.6 6.5 21.4 6.1 C 21.4 6.2 21.3 6.5 21.3 7 C 21.3 7 21.3 7.1 21.3 7.1 C 21.3 7.1 21.2 7.2 21.2 7.3 C 21.2 7.4 21.2 7.5 21.2 7.5 C 21.1 7.6 21.1 7.6 21 7.6 C 21 7.6 20.9 7.6 20.9 7.5 C 20.9 7.5 20.9 7.4 20.9 7.3 C 20.9 7.3 20.9 7.1 20.9 7 C 20.92 7 20.9 7 20.9 7 Z M 24.5 7.1 C 24.6 7 24.7 7 24.7 7 C 24.8 7 24.8 7 24.8 7.1 C 24.8 7.2 24.7 7.3 24.5 7.4 C 24.3 7.5 24.1 7.6 23.9 7.6 C 23.7 7.6 23.5 7.5 23.4 7.4 C 23.2 7.3 23.2 7.1 23.2 6.9 C 23.2 6.7 23.2 6.4 23.4 6.2 C 23.6 5.9 23.8 5.7 24 5.5 C 24.2 5.3 24.4 5.2 24.7 5.2 C 24.8 5.2 24.9 5.3 25 5.3 C 25.1 5.4 25.1 5.5 25.1 5.6 C 25.1 5.7 25.1 5.8 25.1 5.9 C 25 5.9 25 6 25 6 C 24.9 6 24.8 6 24.8 6 C 24.8 6 24.7 6 24.7 6 C 24.7 6 24.7 5.9 24.7 5.9 C 24.7 5.9 24.7 5.8 24.7 5.8 C 24.7 5.7 24.7 5.7 24.7 5.6 C 24.7 5.5 24.7 5.5 24.7 5.5 C 24.5 5.5 24.4 5.6 24.2 5.7 C 24 5.9 23.9 6.1 23.7 6.3 C 23.6 6.5 23.5 6.7 23.5 6.9 C 23.5 7 23.6 7.1 23.6 7.2 C 23.7 7.3 23.8 7.3 23.9 7.3 C 24 7.3 24.1 7.3 24.2 7.2 C 24.3 7.2 24.4 7.1 24.5 7.1 C 24.5 7.1 24.5 7.1 24.5 7.1 Z M 25.8 6 C 25.8 6.1 25.7 6.2 25.7 6.2 C 25.7 6.3 25.7 6.3 25.7 6.5 C 25.7 6.7 25.7 6.8 25.7 6.9 C 25.7 7 25.7 7.1 25.7 7.3 C 25.7 7.4 25.7 7.4 25.6 7.5 C 25.6 7.5 25.5 7.5 25.5 7.5 C 25.4 7.5 25.4 7.5 25.3 7.4 C 25.3 7.4 25.3 7.3 25.3 7.1 C 25.3 7 25.3 6.8 25.4 6.5 C 25.4 6.5 25.4 5.9 25.4 5.9 C 25.5 5.8 25.5 5.7 25.5 5.7 C 25.5 5.5 25.5 5.5 25.5 5.5 C 25.5 5.4 25.6 5.4 25.6 5.4 C 25.7 5.4 25.7 5.3 25.7 5.3 C 25.8 5.3 25.8 5.4 25.8 5.4 C 25.9 5.5 25.9 5.5 25.9 5.6 C 25.9 5.6 25.8 6 25.8 6 Z M 26.6 7 C 26.6 7 26.6 7 26.5 7 C 26.5 7 26.5 7.1 26.4 7.3 C 26.3 7.4 26.2 7.5 26.2 7.5 C 26.2 7.5 26.1 7.5 26.1 7.5 C 26.1 7.5 26 7.5 26 7.5 C 25.9 7.4 25.9 7.4 25.9 7.4 C 25.9 7.3 26 7.1 26.3 6.7 C 26.4 6.5 26.5 6.3 26.6 6.1 C 26.9 5.7 27 5.5 27.1 5.4 C 27.1 5.4 27.2 5.3 27.2 5.3 C 27.3 5.3 27.3 5.3 27.4 5.4 C 27.4 5.4 27.4 5.4 27.4 5.5 C 27.4 5.5 27.4 5.6 27.4 5.6 C 27.6 6.1 27.7 6.5 27.8 6.7 C 27.9 7 28 7.1 28.1 7.2 C 28.2 7.3 28.2 7.3 28.2 7.3 C 28.2 7.4 28.2 7.4 28.2 7.4 C 28.2 7.5 28.2 7.5 28.2 7.5 C 28.1 7.6 28.1 7.6 28 7.6 C 28 7.6 27.9 7.6 27.8 7.5 C 27.7 7.4 27.7 7.3 27.6 7.1 C 27.5 7 27.5 6.9 27.5 6.9 C 27.5 6.9 27.5 6.9 27.5 6.9 C 27.4 6.9 27.3 6.9 27.1 6.9 C 26.9 6.9 26.8 7 26.7 7 C 26.7 7 26.6 7 26.6 7 C 26.6 7 26.6 7 26.6 7 Z M 27.2 6.6 C 27.3 6.6 27.3 6.6 27.4 6.6 C 27.4 6.5 27.3 6.3 27.2 5.9 C 27.2 5.9 27.1 5.9 27.1 5.9 C 27.1 5.9 26.7 6.7 26.7 6.7 C 26.8 6.7 26.9 6.6 26.9 6.6 C 27 6.6 27.1 6.6 27.2 6.6 C 27.2 6.6 27.2 6.6 27.2 6.6 Z M 29.6 7.2 C 29.6 7.2 29.6 7.1 29.7 7 C 29.7 6.6 29.7 6.3 29.8 5.9 C 29.8 5.8 29.8 5.8 29.8 5.7 C 29.8 5.7 29.8 5.7 29.8 5.7 C 29.7 5.7 29.6 5.6 29.6 5.6 C 29.6 5.5 29.6 5.5 29.7 5.4 C 29.7 5.4 29.8 5.4 29.8 5.4 C 29.8 5.4 30 5.4 30 5.4 C 30.1 5.4 30.2 5.4 30.4 5.4 C 30.5 5.3 30.6 5.3 30.7 5.3 C 31 5.3 31.2 5.4 31.4 5.6 C 31.5 5.7 31.6 5.9 31.6 6.2 C 31.6 6.5 31.5 6.7 31.2 6.9 C 31 7.2 30.7 7.3 30.3 7.4 C 30.2 7.4 30.1 7.4 30.1 7.5 C 30 7.5 30 7.5 29.9 7.5 C 29.9 7.6 29.8 7.6 29.8 7.6 C 29.7 7.6 29.7 7.6 29.6 7.5 C 29.6 7.5 29.6 7.4 29.6 7.4 C 29.6 7.4 29.6 7.4 29.6 7.3 C 29.6 7.3 29.6 7.2 29.6 7.2 Z M 30 7.1 C 30 7.1 30 7.1 30 7.2 C 30.1 7.2 30.2 7.1 30.5 7.1 C 30.7 7 30.9 6.9 31 6.7 C 31.2 6.5 31.3 6.4 31.3 6.2 C 31.3 6 31.2 5.9 31.1 5.8 C 31 5.7 30.8 5.6 30.7 5.6 C 30.5 5.6 30.4 5.6 30.2 5.7 C 30.2 5.7 30.2 5.7 30.2 5.7 C 30.1 6.3 30 6.8 30 7.1 C 30 7.1 30 7.1 30 7.1 Z M 32.4 7.6 C 32.3 7.6 32.1 7.5 32 7.3 C 31.9 7.2 31.8 7 31.8 6.8 C 31.8 6.6 31.9 6.4 32 6.2 C 32.1 5.9 32.3 5.7 32.5 5.6 C 32.7 5.4 32.9 5.3 33.1 5.3 C 33.2 5.3 33.4 5.4 33.5 5.4 C 33.6 5.4 33.7 5.5 33.8 5.6 C 33.9 5.6 33.9 5.7 33.9 5.8 C 34 5.9 34 6 34 6.1 C 34 6.3 33.9 6.4 33.9 6.6 C 33.8 6.8 33.7 6.9 33.5 7.1 C 33.4 7.2 33.2 7.4 33.1 7.4 C 32.9 7.5 32.7 7.6 32.4 7.6 Z M 32.2 6.8 C 32.2 7 32.2 7.1 32.3 7.1 C 32.4 7.2 32.4 7.3 32.5 7.3 C 32.8 7.3 33 7.1 33.3 6.9 C 33.5 6.6 33.6 6.4 33.6 6.1 C 33.6 6 33.6 5.9 33.6 5.8 C 33.5 5.8 33.5 5.7 33.4 5.7 C 33.3 5.6 33.2 5.6 33.1 5.6 C 32.9 5.6 32.7 5.8 32.5 6 C 32.3 6.3 32.2 6.6 32.2 6.8 Z " stroke="none" fill="#000"/>  </g></svg>