<?xml version="1.0" standalone="no"?><!DOCTYPE svg PUBLIC "-//W3C//DTD SVG 1.1//EN" "http://www.w3.org/Graphics/SVG/1.1/DTD/svg11.dtd"><svg xmlns="http://www.w3.org/2000/svg" version="1.1" width="61px" height="27.2px" viewBox="0 -2 61 27.2" style="top:-2px">  <desc>O PROBLEMA RAIZ DO BRASIL A CAUSA B SICA A ESTRUTURA DO SISTEMA ELEITORAL ATUAL. SAIBA MAIS</desc>  <defs/>  <g id="Polygon12737">    <path d="M 20.8 19.2 C 20.8 19.5 20.7 19.6 20.4 19.6 C 20.4 19.4 20.4 19.4 20.3 19.3 C 20.3 19.3 20.2 19.2 20 19.2 C 19.8 19.2 19.6 19.3 19.4 19.4 C 19.2 19.5 19.2 19.6 19.2 19.7 C 19.2 19.8 19.2 19.9 19.3 20 C 19.3 20 19.5 20.1 19.8 20.2 C 20.1 20.3 20.3 20.4 20.5 20.5 C 20.6 20.6 20.7 20.7 20.7 20.8 C 20.7 21.1 20.5 21.3 20.1 21.5 C 19.8 21.7 19.4 21.8 19 21.8 C 18.8 21.8 18.7 21.8 18.6 21.8 C 18.6 21.7 18.5 21.6 18.5 21.6 C 18.5 21.5 18.5 21.4 18.6 21.4 C 18.6 21.3 18.7 21.3 18.7 21.3 C 18.7 21.3 18.8 21.3 18.8 21.3 C 18.9 21.4 19.1 21.4 19.2 21.4 C 19.4 21.4 19.6 21.3 19.8 21.2 C 20.1 21.1 20.2 21 20.2 20.9 C 20.2 20.8 20.2 20.8 20.1 20.8 C 20.1 20.7 19.9 20.7 19.7 20.6 C 19.5 20.5 19.3 20.4 19.1 20.4 C 19 20.3 18.9 20.2 18.8 20.1 C 18.7 20 18.7 19.9 18.7 19.8 C 18.7 19.6 18.8 19.3 19.1 19.1 C 19.4 18.9 19.7 18.8 20.1 18.8 C 20.3 18.8 20.5 18.9 20.6 18.9 C 20.7 19 20.8 19.1 20.8 19.2 C 20.8 19.2 20.8 19.2 20.8 19.2 Z M 21.7 21.1 C 21.7 21.1 21.6 21.1 21.6 21 C 21.6 21.1 21.5 21.2 21.4 21.4 C 21.3 21.6 21.2 21.7 21.2 21.7 C 21.1 21.7 21.1 21.7 21.1 21.7 C 21 21.7 20.9 21.7 20.9 21.7 C 20.8 21.6 20.8 21.6 20.8 21.5 C 20.8 21.4 20.9 21.2 21.3 20.7 C 21.4 20.4 21.6 20.1 21.8 19.9 C 22 19.3 22.2 19 22.3 19 C 22.4 18.9 22.4 18.8 22.5 18.8 C 22.6 18.8 22.7 18.8 22.7 18.9 C 22.8 18.9 22.8 19 22.8 19 C 22.8 19.1 22.8 19.1 22.8 19.2 C 23 19.9 23.2 20.4 23.3 20.7 C 23.4 21 23.6 21.2 23.7 21.3 C 23.8 21.4 23.8 21.4 23.8 21.5 C 23.8 21.5 23.9 21.5 23.9 21.6 C 23.9 21.6 23.8 21.7 23.8 21.7 C 23.7 21.8 23.7 21.8 23.6 21.8 C 23.5 21.8 23.4 21.8 23.3 21.6 C 23.2 21.5 23.1 21.4 23 21.2 C 22.9 21 22.9 20.9 22.9 20.8 C 22.9 20.8 22.9 20.8 22.9 20.8 C 22.8 20.8 22.6 20.9 22.4 20.9 C 22.2 21 22 21 21.8 21 C 21.8 21.1 21.7 21.1 21.7 21.1 C 21.7 21.1 21.7 21.1 21.7 21.1 Z M 22.5 20.5 C 22.6 20.5 22.7 20.4 22.7 20.4 C 22.7 20.4 22.6 20.1 22.4 19.6 C 22.4 19.6 22.4 19.6 22.4 19.5 C 22.4 19.5 21.9 20.6 21.9 20.6 C 21.9 20.6 22 20.6 22.1 20.6 C 22.2 20.5 22.3 20.5 22.5 20.5 C 22.5 20.5 22.5 20.5 22.5 20.5 Z M 24.8 19.7 C 24.7 19.9 24.7 19.9 24.7 20 C 24.7 20.1 24.7 20.2 24.7 20.3 C 24.6 20.6 24.6 20.8 24.6 20.9 C 24.6 21 24.6 21.2 24.6 21.4 C 24.7 21.5 24.6 21.6 24.6 21.6 C 24.5 21.7 24.4 21.7 24.4 21.7 C 24.3 21.7 24.2 21.7 24.2 21.6 C 24.1 21.5 24.1 21.4 24.1 21.2 C 24.1 21.1 24.2 20.8 24.2 20.3 C 24.2 20.3 24.3 19.6 24.3 19.6 C 24.3 19.5 24.4 19.3 24.4 19.3 C 24.4 19.1 24.4 19 24.4 19 C 24.5 19 24.5 18.9 24.6 18.9 C 24.6 18.9 24.7 18.8 24.7 18.8 C 24.8 18.8 24.8 18.9 24.9 18.9 C 24.9 19 24.9 19.1 24.9 19.1 C 24.9 19.1 24.8 19.7 24.8 19.7 Z M 27.1 20.1 C 27.4 20.2 27.5 20.3 27.6 20.4 C 27.7 20.5 27.7 20.6 27.7 20.7 C 27.7 21 27.5 21.2 27.2 21.5 C 26.9 21.8 26.6 21.9 26.2 21.9 C 26 21.9 25.9 21.8 25.9 21.7 C 25.9 21.5 26.1 21.4 26.3 21.4 C 26.3 21.4 26.4 21.4 26.4 21.4 C 26.6 21.4 26.7 21.3 26.9 21.2 C 27.1 21.1 27.2 20.9 27.2 20.8 C 27.2 20.7 27.2 20.6 27.1 20.5 C 27 20.4 26.9 20.4 26.8 20.4 C 26.7 20.4 26.7 20.4 26.6 20.5 C 26.5 20.5 26.4 20.5 26.4 20.5 C 26.3 20.5 26.2 20.5 26.2 20.5 C 26.1 20.4 26.1 20.4 26.1 20.3 C 26.1 20.2 26.2 20.2 26.5 20 C 26.7 20 26.8 19.9 27 19.7 C 27.1 19.6 27.2 19.5 27.2 19.4 C 27.2 19.2 27.1 19.2 26.9 19.2 C 26.7 19.2 26.6 19.2 26.4 19.2 C 26.2 19.3 26.1 19.3 26.1 19.4 C 26.1 19.4 26 19.7 26 20.3 C 25.9 20.8 25.8 21.1 25.8 21.2 C 25.8 21.2 25.8 21.5 25.8 21.5 C 25.8 21.6 25.8 21.7 25.7 21.7 C 25.7 21.7 25.6 21.8 25.6 21.8 C 25.4 21.8 25.3 21.7 25.3 21.4 C 25.3 21.4 25.3 21.3 25.3 21.2 C 25.4 21 25.5 20.7 25.5 20.3 C 25.6 19.9 25.6 19.6 25.6 19.6 C 25.6 19.5 25.6 19.5 25.5 19.5 C 25.5 19.5 25.5 19.5 25.5 19.5 C 25.5 19.5 25.4 19.5 25.4 19.5 C 25.4 19.4 25.3 19.4 25.3 19.4 C 25.3 19.4 25.3 19.3 25.3 19.3 C 25.3 19.2 25.5 19.1 25.9 19 C 26.2 18.8 26.6 18.8 27 18.8 C 27.2 18.8 27.4 18.8 27.5 19 C 27.6 19.1 27.7 19.2 27.7 19.3 C 27.7 19.4 27.7 19.6 27.6 19.7 C 27.5 19.8 27.3 19.9 27.1 20.1 Z M 28.7 21.1 C 28.7 21.1 28.6 21.1 28.6 21 C 28.6 21.1 28.5 21.2 28.4 21.4 C 28.3 21.6 28.2 21.7 28.2 21.7 C 28.1 21.7 28.1 21.7 28 21.7 C 28 21.7 27.9 21.7 27.9 21.7 C 27.8 21.6 27.8 21.6 27.8 21.5 C 27.8 21.4 27.9 21.2 28.3 20.7 C 28.4 20.4 28.6 20.1 28.7 19.9 C 29 19.3 29.2 19 29.3 19 C 29.3 18.9 29.4 18.8 29.5 18.8 C 29.6 18.8 29.7 18.8 29.7 18.9 C 29.7 18.9 29.8 19 29.8 19 C 29.8 19.1 29.7 19.1 29.7 19.2 C 30 19.9 30.2 20.4 30.3 20.7 C 30.4 21 30.6 21.2 30.7 21.3 C 30.8 21.4 30.8 21.4 30.8 21.5 C 30.8 21.5 30.8 21.5 30.8 21.6 C 30.8 21.6 30.8 21.7 30.8 21.7 C 30.7 21.8 30.6 21.8 30.6 21.8 C 30.5 21.8 30.4 21.8 30.3 21.6 C 30.2 21.5 30.1 21.4 30 21.2 C 29.9 21 29.9 20.9 29.9 20.8 C 29.9 20.8 29.9 20.8 29.8 20.8 C 29.8 20.8 29.6 20.9 29.4 20.9 C 29.1 21 28.9 21 28.8 21 C 28.8 21.1 28.7 21.1 28.7 21.1 C 28.7 21.1 28.7 21.1 28.7 21.1 Z M 29.5 20.5 C 29.6 20.5 29.6 20.4 29.7 20.4 C 29.7 20.4 29.6 20.1 29.4 19.6 C 29.4 19.6 29.4 19.6 29.4 19.5 C 29.4 19.5 28.8 20.6 28.8 20.6 C 28.9 20.6 29 20.6 29.1 20.6 C 29.2 20.5 29.3 20.5 29.5 20.5 C 29.5 20.5 29.5 20.5 29.5 20.5 Z M 35.3 19.7 C 35.3 19.6 35.3 19.6 35.3 19.5 C 35.3 19.5 34.7 20.4 34.7 20.4 C 34.4 20.8 34.1 21 34 21 C 33.9 21 33.8 21 33.8 20.9 C 33.7 20.8 33.7 20.7 33.6 20.5 C 33.5 20.3 33.5 20.2 33.5 20.1 C 33.4 19.9 33.4 19.8 33.4 19.7 C 33.4 19.7 33.3 20.2 33.3 20.2 C 33.2 20.4 33.2 20.6 33.2 20.7 C 33.1 20.8 33.1 21 33.1 21.2 C 33 21.4 33 21.5 33 21.6 C 33 21.7 33 21.7 32.9 21.7 C 32.8 21.8 32.8 21.8 32.8 21.8 C 32.7 21.8 32.6 21.8 32.6 21.7 C 32.5 21.6 32.5 21.6 32.5 21.5 C 32.5 21.4 32.5 21.2 32.6 21.1 C 32.8 20.3 32.9 19.8 32.9 19.6 C 33 19.4 33 19.2 33 19.1 C 33 19 33 19 33.1 18.9 C 33.1 18.9 33.2 18.9 33.3 18.9 C 33.4 18.9 33.4 18.9 33.5 19 C 33.5 19 33.6 19.1 33.6 19.2 C 33.59 19.16 33.6 19.2 33.6 19.2 C 33.6 19.2 33.85 19.9 33.9 19.9 C 34 20.2 34 20.4 34.1 20.5 C 34.2 20.3 34.4 20.1 34.7 19.7 C 35 19.3 35.1 19.1 35.2 19 C 35.3 18.9 35.4 18.8 35.5 18.8 C 35.5 18.8 35.6 18.8 35.7 18.9 C 35.7 18.9 35.8 19 35.8 19 C 35.8 19.1 35.8 19.2 35.7 19.6 C 35.7 19.9 35.6 20.1 35.6 20.5 C 35.6 20.8 35.6 21 35.6 21 C 35.6 21.1 35.6 21.2 35.6 21.2 C 35.6 21.3 35.6 21.3 35.6 21.4 C 35.6 21.5 35.6 21.6 35.6 21.7 C 35.5 21.7 35.4 21.7 35.3 21.7 C 35.2 21.7 35.1 21.6 35.1 21.3 C 35.1 21.1 35.1 20.8 35.2 20.5 C 35.2 20.1 35.2 19.9 35.3 19.7 C 35.3 19.7 35.3 19.7 35.3 19.7 Z M 36.9 21.1 C 36.8 21.1 36.8 21.1 36.7 21 C 36.7 21.1 36.7 21.2 36.5 21.4 C 36.4 21.6 36.4 21.7 36.3 21.7 C 36.3 21.7 36.2 21.7 36.2 21.7 C 36.1 21.7 36.1 21.7 36 21.7 C 36 21.6 35.9 21.6 35.9 21.5 C 35.9 21.4 36.1 21.2 36.4 20.7 C 36.6 20.4 36.8 20.1 36.9 19.9 C 37.2 19.3 37.4 19 37.4 19 C 37.5 18.9 37.6 18.8 37.6 18.8 C 37.7 18.8 37.8 18.8 37.9 18.9 C 37.9 18.9 37.9 19 37.9 19 C 37.9 19.1 37.9 19.1 37.9 19.2 C 38.1 19.9 38.3 20.4 38.5 20.7 C 38.6 21 38.7 21.2 38.9 21.3 C 38.9 21.4 39 21.4 39 21.5 C 39 21.5 39 21.5 39 21.6 C 39 21.6 39 21.7 38.9 21.7 C 38.9 21.8 38.8 21.8 38.7 21.8 C 38.6 21.8 38.5 21.8 38.4 21.6 C 38.3 21.5 38.2 21.4 38.2 21.2 C 38.1 21 38 20.9 38 20.8 C 38 20.8 38 20.8 38 20.8 C 37.9 20.8 37.8 20.9 37.5 20.9 C 37.3 21 37.1 21 37 21 C 36.9 21.1 36.9 21.1 36.9 21.1 C 36.9 21.1 36.9 21.1 36.9 21.1 Z M 37.7 20.5 C 37.7 20.5 37.8 20.4 37.9 20.4 C 37.8 20.4 37.7 20.1 37.6 19.6 C 37.6 19.6 37.6 19.6 37.6 19.5 C 37.6 19.5 37 20.6 37 20.6 C 37.1 20.6 37.2 20.6 37.3 20.6 C 37.3 20.5 37.5 20.5 37.7 20.5 C 37.7 20.5 37.7 20.5 37.7 20.5 Z M 39.9 19.7 C 39.9 19.9 39.9 19.9 39.9 20 C 39.9 20.1 39.9 20.2 39.8 20.3 C 39.8 20.6 39.8 20.8 39.8 20.9 C 39.8 21 39.8 21.2 39.8 21.4 C 39.8 21.5 39.8 21.6 39.7 21.6 C 39.7 21.7 39.6 21.7 39.5 21.7 C 39.4 21.7 39.4 21.7 39.3 21.6 C 39.3 21.5 39.3 21.4 39.3 21.2 C 39.3 21.1 39.3 20.8 39.4 20.3 C 39.4 20.3 39.5 19.6 39.5 19.6 C 39.5 19.5 39.5 19.3 39.5 19.3 C 39.5 19.1 39.6 19 39.6 19 C 39.6 19 39.6 18.9 39.7 18.9 C 39.8 18.9 39.8 18.8 39.8 18.8 C 39.9 18.8 40 18.9 40 18.9 C 40 19 40.1 19.1 40.1 19.1 C 40.1 19.1 39.9 19.7 39.9 19.7 Z M 42.6 19.2 C 42.6 19.5 42.4 19.6 42.2 19.6 C 42.2 19.4 42.1 19.4 42.1 19.3 C 42 19.3 41.9 19.2 41.8 19.2 C 41.6 19.2 41.4 19.3 41.2 19.4 C 41 19.5 40.9 19.6 40.9 19.7 C 40.9 19.8 40.9 19.9 41 20 C 41.1 20 41.3 20.1 41.6 20.2 C 41.9 20.3 42.1 20.4 42.2 20.5 C 42.4 20.6 42.5 20.7 42.5 20.8 C 42.5 21.1 42.3 21.3 41.9 21.5 C 41.5 21.7 41.1 21.8 40.7 21.8 C 40.6 21.8 40.5 21.8 40.4 21.8 C 40.3 21.7 40.3 21.6 40.3 21.6 C 40.3 21.5 40.3 21.4 40.3 21.4 C 40.4 21.3 40.4 21.3 40.5 21.3 C 40.5 21.3 40.5 21.3 40.5 21.3 C 40.7 21.4 40.8 21.4 40.9 21.4 C 41.1 21.4 41.3 21.3 41.6 21.2 C 41.8 21.1 42 21 42 20.9 C 42 20.8 41.9 20.8 41.9 20.8 C 41.8 20.7 41.7 20.7 41.5 20.6 C 41.2 20.5 41 20.4 40.9 20.4 C 40.7 20.3 40.6 20.2 40.5 20.1 C 40.5 20 40.4 19.9 40.4 19.8 C 40.4 19.6 40.6 19.3 40.9 19.1 C 41.1 18.9 41.5 18.8 41.8 18.8 C 42.1 18.8 42.2 18.9 42.4 18.9 C 42.5 19 42.6 19.1 42.6 19.2 C 42.6 19.2 42.6 19.2 42.6 19.2 Z " stroke="none" fill="#000"/>  </g>  <g id="Polygon12736">    <path d="M 20.7 13.8 C 20.7 13.8 20.7 13.8 20.6 13.8 C 20.6 13.8 20.6 13.8 20.5 13.8 C 20.5 13.8 20.4 13.8 20.4 13.8 C 20.4 13.8 20.4 13.8 20.3 13.8 C 20.3 13.8 20.2 13.8 20.1 13.8 C 20 13.9 19.9 13.9 19.9 13.9 C 19.8 13.9 19.8 13.9 19.8 14 C 19.8 14 19.8 14.1 19.8 14.1 C 19.8 14.3 19.7 14.4 19.7 14.4 C 19.7 14.4 19.8 14.4 19.8 14.4 C 19.8 14.4 19.9 14.4 20 14.4 C 20.1 14.4 20.2 14.4 20.2 14.4 C 20.3 14.3 20.4 14.3 20.5 14.3 C 20.5 14.3 20.6 14.3 20.6 14.4 C 20.6 14.5 20.6 14.5 20.5 14.5 C 20.4 14.5 20.3 14.5 20.1 14.6 C 19.9 14.6 19.7 14.6 19.7 14.6 C 19.7 14.7 19.7 14.7 19.7 14.8 C 19.7 15 19.6 15 19.6 15.1 C 19.6 15.1 19.6 15.1 19.6 15.1 C 19.7 15.1 19.7 15.1 19.7 15.1 C 19.7 15.1 19.7 15.1 19.7 15.1 C 19.8 15.1 19.8 15.1 19.9 15.1 C 19.9 15.1 20.1 15.1 20.1 15.1 C 20.2 15.1 20.3 15.1 20.3 15.1 C 20.4 15 20.5 15 20.5 15 C 20.6 15 20.6 15 20.6 15.1 C 20.6 15.1 20.6 15.1 20.6 15.1 C 20.6 15.2 20.6 15.2 20.6 15.2 C 20.5 15.2 20.5 15.2 20.3 15.2 C 20.2 15.3 20.1 15.3 19.8 15.3 C 19.7 15.3 19.7 15.3 19.6 15.3 C 19.5 15.3 19.5 15.3 19.5 15.3 C 19.4 15.3 19.4 15.3 19.4 15.2 C 19.42 15.2 19.4 15.2 19.4 15.2 C 19.4 15.2 19.42 15.16 19.4 15.2 C 19.4 15.2 19.4 15.1 19.4 15.1 C 19.5 15 19.5 14.9 19.5 14.8 C 19.5 14.6 19.5 14.5 19.6 14.4 C 19.6 14.4 19.6 14.4 19.6 14.3 C 19.6 14.1 19.6 14 19.6 13.9 C 19.6 13.9 19.6 13.9 19.6 13.9 C 19.6 13.9 19.6 13.9 19.6 13.9 C 19.6 13.8 19.6 13.8 19.6 13.8 C 19.6 13.8 19.6 13.8 19.6 13.8 C 19.6 13.8 19.6 13.8 19.6 13.8 C 19.6 13.7 19.6 13.7 19.6 13.7 C 19.6 13.7 19.6 13.7 19.7 13.7 C 19.7 13.7 19.7 13.7 19.7 13.7 C 19.7 13.7 19.7 13.7 19.8 13.7 C 19.8 13.7 19.8 13.7 19.8 13.7 C 19.8 13.7 19.9 13.7 20 13.7 C 20.2 13.7 20.3 13.6 20.6 13.6 C 20.6 13.6 20.6 13.6 20.6 13.6 C 20.6 13.6 20.6 13.6 20.6 13.6 C 20.7 13.6 20.7 13.6 20.7 13.6 C 20.7 13.6 20.8 13.7 20.8 13.7 C 20.8 13.7 20.8 13.8 20.7 13.8 C 20.7 13.8 20.7 13.8 20.7 13.8 Z M 21 15.1 C 21 15 21 15 21 14.9 C 21 14.9 21 14.8 21 14.7 C 21 14.5 21.1 14.3 21.1 14.1 C 21.1 13.8 21.1 13.7 21.1 13.7 C 21.1 13.7 21.1 13.7 21.2 13.6 C 21.2 13.6 21.2 13.6 21.2 13.6 C 21.3 13.6 21.3 13.6 21.3 13.6 C 21.3 13.7 21.3 13.7 21.3 13.7 C 21.3 13.7 21.3 13.8 21.3 13.9 C 21.3 14 21.3 14.2 21.2 14.5 C 21.2 14.8 21.2 14.9 21.2 15 C 21.2 15 21.2 15 21.2 15 C 21.2 15 21.2 15.1 21.2 15.1 C 21.3 15.1 21.3 15 21.5 15 C 21.6 15 21.7 15 21.9 15 C 22 15 22 15 22.1 15 C 22.1 15 22.1 15 22.1 15 C 22.1 15 22.2 15 22.2 15 C 22.2 15 22.2 15 22.2 15 C 22.2 15.1 22.2 15.1 22.1 15.2 C 22.1 15.2 22.1 15.2 22 15.2 C 22 15.2 22 15.2 21.9 15.2 C 21.9 15.2 21.9 15.2 21.8 15.2 C 21.6 15.2 21.4 15.2 21.1 15.3 C 21.1 15.3 21.1 15.3 21 15.3 C 21 15.3 21 15.3 21 15.3 C 20.9 15.2 20.9 15.2 20.9 15.2 C 20.9 15.2 20.9 15.1 21 15.1 C 21 15.1 21 15.1 21 15.1 Z M 23.6 13.8 C 23.6 13.8 23.6 13.8 23.5 13.8 C 23.5 13.8 23.5 13.8 23.4 13.8 C 23.4 13.8 23.4 13.8 23.3 13.8 C 23.3 13.8 23.3 13.8 23.3 13.8 C 23.2 13.8 23.2 13.8 23.1 13.8 C 22.9 13.9 22.8 13.9 22.8 13.9 C 22.8 13.9 22.7 13.9 22.7 14 C 22.7 14 22.7 14.1 22.7 14.1 C 22.7 14.3 22.7 14.4 22.7 14.4 C 22.7 14.4 22.7 14.4 22.7 14.4 C 22.7 14.4 22.8 14.4 22.9 14.4 C 23 14.4 23.1 14.4 23.1 14.4 C 23.2 14.3 23.3 14.3 23.4 14.3 C 23.5 14.3 23.5 14.3 23.5 14.4 C 23.5 14.5 23.5 14.5 23.4 14.5 C 23.4 14.5 23.2 14.5 23 14.6 C 22.8 14.6 22.7 14.6 22.6 14.6 C 22.6 14.7 22.6 14.7 22.6 14.8 C 22.6 15 22.6 15 22.6 15.1 C 22.6 15.1 22.6 15.1 22.6 15.1 C 22.6 15.1 22.6 15.1 22.6 15.1 C 22.6 15.1 22.7 15.1 22.7 15.1 C 22.7 15.1 22.7 15.1 22.8 15.1 C 22.8 15.1 23 15.1 23 15.1 C 23.1 15.1 23.2 15.1 23.3 15.1 C 23.4 15 23.4 15 23.5 15 C 23.5 15 23.5 15 23.5 15.1 C 23.5 15.1 23.6 15.1 23.6 15.1 C 23.6 15.2 23.6 15.2 23.5 15.2 C 23.5 15.2 23.4 15.2 23.2 15.2 C 23.1 15.3 23 15.3 22.8 15.3 C 22.7 15.3 22.6 15.3 22.5 15.3 C 22.5 15.3 22.4 15.3 22.4 15.3 C 22.4 15.3 22.3 15.3 22.3 15.2 C 22.34 15.2 22.3 15.2 22.3 15.2 C 22.3 15.2 22.33 15.16 22.3 15.2 C 22.3 15.2 22.3 15.1 22.4 15.1 C 22.4 15 22.4 14.9 22.4 14.8 C 22.4 14.6 22.5 14.5 22.5 14.4 C 22.5 14.4 22.5 14.4 22.5 14.3 C 22.5 14.1 22.5 14 22.5 13.9 C 22.5 13.9 22.5 13.9 22.5 13.9 C 22.5 13.9 22.5 13.9 22.5 13.9 C 22.5 13.8 22.5 13.8 22.5 13.8 C 22.5 13.8 22.5 13.8 22.5 13.8 C 22.5 13.8 22.5 13.8 22.5 13.8 C 22.5 13.7 22.5 13.7 22.5 13.7 C 22.5 13.7 22.6 13.7 22.6 13.7 C 22.6 13.7 22.6 13.7 22.6 13.7 C 22.6 13.7 22.6 13.7 22.7 13.7 C 22.7 13.7 22.7 13.7 22.7 13.7 C 22.7 13.7 22.8 13.7 22.9 13.7 C 23.1 13.7 23.3 13.6 23.5 13.6 C 23.5 13.6 23.5 13.6 23.5 13.6 C 23.5 13.6 23.5 13.6 23.5 13.6 C 23.6 13.6 23.6 13.6 23.6 13.6 C 23.7 13.6 23.7 13.7 23.7 13.7 C 23.7 13.7 23.7 13.8 23.7 13.8 C 23.6 13.8 23.6 13.8 23.6 13.8 Z M 24.3 13.8 C 24.3 13.8 24.3 13.9 24.2 14.1 C 24.2 14.2 24.2 14.2 24.2 14.3 C 24.2 14.3 24.2 14.4 24.2 14.4 C 24.1 14.6 24.1 14.7 24.1 14.8 C 24.1 14.9 24.1 15 24.1 15.1 C 24.1 15.2 24.1 15.2 24.1 15.2 C 24.1 15.3 24 15.3 24 15.3 C 24 15.3 23.9 15.3 23.9 15.2 C 23.9 15.2 23.9 15.1 23.9 15 C 23.9 14.9 23.9 14.7 23.9 14.6 C 24 14.5 24 14.4 24 14.4 C 24 14.4 24 14.4 24 14.4 C 24 14.3 24 14.3 24 14.3 C 24 14.2 24 14.1 24 14 C 24 13.9 24.1 13.8 24.1 13.8 C 24.1 13.7 24.1 13.7 24.1 13.7 C 24.1 13.7 24.1 13.7 24.1 13.6 C 24.2 13.6 24.2 13.6 24.2 13.6 C 24.2 13.6 24.2 13.6 24.3 13.7 C 24.3 13.7 24.3 13.7 24.3 13.8 Z M 24.6 13.9 C 24.5 13.9 24.4 13.9 24.4 13.9 C 24.4 13.9 24.4 13.9 24.4 13.8 C 24.4 13.8 24.4 13.8 24.4 13.8 C 24.5 13.7 24.5 13.7 24.6 13.7 C 24.8 13.7 24.9 13.7 25 13.7 C 25.2 13.7 25.3 13.7 25.6 13.7 C 25.7 13.6 25.8 13.6 25.9 13.6 C 25.9 13.6 25.9 13.6 26 13.6 C 26 13.7 26 13.7 26.1 13.7 C 26.1 13.7 26.1 13.7 26.1 13.7 C 26.1 13.7 26.1 13.7 26.1 13.8 C 26.1 13.8 26.1 13.8 26.1 13.8 C 26 13.8 26 13.8 26 13.8 C 25.9 13.8 25.9 13.8 25.8 13.8 C 25.7 13.8 25.6 13.8 25.5 13.8 C 25.4 13.8 25.3 13.9 25.3 13.9 C 25.3 13.9 25.3 14.1 25.3 14.3 C 25.2 14.6 25.2 14.8 25.2 14.9 C 25.2 15 25.2 15.1 25.3 15.1 C 25.3 15.1 25.3 15.2 25.3 15.2 C 25.3 15.2 25.3 15.2 25.2 15.2 C 25.2 15.3 25.2 15.3 25.2 15.3 C 25.1 15.3 25.1 15.3 25.1 15.2 C 25 15.2 25 15.1 25 14.9 C 25 14.8 25.1 14.4 25.1 14 C 25.1 13.9 25.1 13.9 25.1 13.9 C 25.1 13.9 25.1 13.9 25.1 13.9 C 25 13.9 25 13.9 24.8 13.9 C 24.7 13.9 24.6 13.9 24.6 13.9 C 24.6 13.9 24.6 13.9 24.6 13.9 Z M 26.4 15.3 C 26.3 15.3 26.2 15.3 26.1 15.1 C 26 15 26 14.9 26 14.8 C 26 14.6 26 14.5 26.1 14.3 C 26.2 14.1 26.3 13.9 26.5 13.8 C 26.6 13.7 26.8 13.6 26.9 13.6 C 27.1 13.6 27.2 13.6 27.2 13.7 C 27.3 13.7 27.4 13.7 27.5 13.8 C 27.5 13.8 27.6 13.9 27.6 14 C 27.6 14 27.6 14.1 27.6 14.2 C 27.6 14.3 27.6 14.4 27.5 14.6 C 27.5 14.7 27.4 14.8 27.2 15 C 27.1 15.1 27 15.2 26.9 15.2 C 26.8 15.3 26.6 15.3 26.4 15.3 Z M 26.2 14.8 C 26.2 14.9 26.2 15 26.3 15 C 26.3 15.1 26.4 15.1 26.5 15.1 C 26.7 15.1 26.9 15 27.1 14.8 C 27.3 14.6 27.4 14.4 27.4 14.2 C 27.4 14.1 27.4 14 27.4 14 C 27.3 13.9 27.3 13.9 27.2 13.8 C 27.1 13.8 27 13.8 26.9 13.8 C 26.8 13.8 26.6 13.9 26.4 14.1 C 26.3 14.3 26.2 14.6 26.2 14.8 Z M 28.1 13.7 C 28.4 13.6 28.5 13.6 28.6 13.6 C 28.8 13.6 28.9 13.6 29 13.7 C 29.1 13.8 29.1 13.9 29.1 14 C 29.1 14.1 29.1 14.2 29 14.3 C 28.9 14.4 28.8 14.5 28.6 14.6 C 28.6 14.6 28.6 14.6 28.6 14.6 C 28.6 14.6 28.7 14.7 28.8 14.8 C 29 14.9 29.1 15 29.2 15.1 C 29.3 15.1 29.3 15.1 29.3 15.2 C 29.3 15.2 29.3 15.2 29.3 15.2 C 29.2 15.3 29.2 15.3 29.2 15.3 C 29.1 15.3 29.1 15.2 29 15.2 C 28.9 15.1 28.8 15 28.7 14.9 C 28.5 14.7 28.3 14.6 28.3 14.6 C 28.3 14.6 28.2 14.6 28.2 14.6 C 28.2 14.6 28.2 14.6 28.2 14.5 C 28.2 14.5 28.2 14.5 28.2 14.5 C 28.2 14.4 28.3 14.4 28.3 14.4 C 28.3 14.4 28.3 14.4 28.4 14.4 C 28.4 14.4 28.4 14.4 28.4 14.4 C 28.5 14.4 28.6 14.4 28.7 14.3 C 28.9 14.2 28.9 14.1 28.9 14 C 28.9 13.9 28.9 13.9 28.8 13.8 C 28.8 13.8 28.7 13.8 28.6 13.8 C 28.5 13.8 28.5 13.8 28.4 13.8 C 28.3 13.8 28.3 13.8 28.2 13.8 C 28.2 13.8 28.2 13.8 28.2 13.9 C 28.2 13.9 28.2 14 28.1 14.2 C 28.1 14.3 28.1 14.5 28.1 14.6 C 28 14.8 28 14.9 28 15 C 28 15 28 15.1 28 15.1 C 28 15.1 28 15.2 28 15.2 C 28 15.2 28 15.2 28 15.3 C 28 15.3 28 15.3 27.9 15.3 C 27.9 15.3 27.8 15.2 27.8 15.1 C 27.8 14.8 27.9 14.4 28 13.9 C 28 13.9 28 13.9 28 13.9 C 28 13.9 28 13.9 28 13.9 C 27.9 13.8 27.9 13.8 27.9 13.8 C 27.9 13.7 27.9 13.7 28 13.7 C 28 13.7 28 13.7 28 13.7 C 28 13.7 28.1 13.7 28.1 13.7 Z M 30.2 13.6 C 30.3 13.6 30.3 13.6 30.4 13.6 C 30.4 13.6 30.4 13.7 30.4 13.7 C 30.4 13.7 30.4 13.8 30.4 13.8 C 30.4 13.8 30.4 13.8 30.4 13.8 C 30.4 13.9 30.4 14 30.4 14 C 30.5 14.1 30.5 14.2 30.5 14.3 C 30.6 14.5 30.7 14.7 30.7 14.8 C 30.8 14.9 30.9 15 30.9 15.1 C 31 15.1 31 15.2 31 15.2 C 31 15.2 31 15.2 31 15.2 C 31 15.3 31 15.3 31 15.3 C 31 15.3 30.9 15.3 30.9 15.3 C 30.8 15.3 30.7 15.2 30.6 14.9 C 30.5 14.8 30.5 14.7 30.5 14.7 C 30.4 14.7 30.4 14.7 30.2 14.7 C 30.1 14.8 30 14.8 29.9 14.8 C 29.9 14.8 29.8 14.8 29.8 14.8 C 29.8 14.8 29.8 14.8 29.7 14.8 C 29.7 14.8 29.7 14.8 29.7 14.8 C 29.7 14.8 29.7 14.9 29.6 15 C 29.5 15.1 29.5 15.2 29.5 15.2 C 29.4 15.3 29.4 15.3 29.4 15.3 C 29.4 15.3 29.3 15.3 29.3 15.3 C 29.3 15.2 29.3 15.2 29.3 15.2 C 29.3 15.2 29.3 15.1 29.3 15.1 C 29.3 15 29.4 15 29.5 14.8 C 29.6 14.6 29.7 14.4 29.8 14.2 C 30 13.9 30.1 13.7 30.1 13.7 C 30.2 13.6 30.2 13.6 30.2 13.6 C 30.2 13.6 30.2 13.6 30.2 13.6 Z M 30.1 14.6 C 30.3 14.6 30.4 14.5 30.4 14.5 C 30.4 14.5 30.4 14.4 30.3 14.2 C 30.3 14 30.2 13.9 30.2 13.9 C 30.2 14 30.1 14.1 30 14.3 C 30 14.3 29.8 14.6 29.8 14.6 C 29.8 14.6 29.9 14.6 29.9 14.6 C 30 14.6 30 14.6 30.1 14.6 C 30.1 14.6 30.1 14.6 30.1 14.6 Z M 31.2 15.1 C 31.2 15 31.2 15 31.2 14.9 C 31.2 14.9 31.2 14.8 31.3 14.7 C 31.3 14.5 31.3 14.3 31.3 14.1 C 31.3 13.8 31.4 13.7 31.4 13.7 C 31.4 13.7 31.4 13.7 31.4 13.6 C 31.4 13.6 31.4 13.6 31.5 13.6 C 31.5 13.6 31.5 13.6 31.5 13.6 C 31.6 13.7 31.6 13.7 31.6 13.7 C 31.6 13.7 31.6 13.8 31.6 13.9 C 31.5 14 31.5 14.2 31.5 14.5 C 31.4 14.8 31.4 14.9 31.4 15 C 31.4 15 31.4 15 31.4 15 C 31.4 15 31.4 15.1 31.5 15.1 C 31.5 15.1 31.6 15 31.7 15 C 31.8 15 32 15 32.2 15 C 32.2 15 32.3 15 32.3 15 C 32.3 15 32.3 15 32.3 15 C 32.4 15 32.4 15 32.4 15 C 32.4 15 32.4 15 32.4 15 C 32.4 15.1 32.4 15.1 32.4 15.2 C 32.4 15.2 32.3 15.2 32.3 15.2 C 32.3 15.2 32.2 15.2 32.2 15.2 C 32.1 15.2 32.1 15.2 32.1 15.2 C 31.8 15.2 31.6 15.2 31.4 15.3 C 31.3 15.3 31.3 15.3 31.3 15.3 C 31.2 15.3 31.2 15.3 31.2 15.3 C 31.2 15.2 31.2 15.2 31.2 15.2 C 31.2 15.2 31.2 15.1 31.2 15.1 C 31.2 15.1 31.2 15.1 31.2 15.1 Z M 34.2 13.6 C 34.3 13.6 34.3 13.6 34.4 13.6 C 34.4 13.6 34.4 13.7 34.4 13.7 C 34.4 13.7 34.4 13.8 34.4 13.8 C 34.4 13.8 34.4 13.8 34.4 13.8 C 34.4 13.9 34.4 14 34.4 14 C 34.5 14.1 34.5 14.2 34.5 14.3 C 34.6 14.5 34.7 14.7 34.7 14.8 C 34.8 14.9 34.9 15 34.9 15.1 C 35 15.1 35 15.2 35 15.2 C 35 15.2 35 15.2 35 15.2 C 35 15.3 35 15.3 35 15.3 C 35 15.3 34.9 15.3 34.9 15.3 C 34.8 15.3 34.7 15.2 34.6 14.9 C 34.5 14.8 34.5 14.7 34.5 14.7 C 34.4 14.7 34.4 14.7 34.2 14.7 C 34.1 14.8 34 14.8 33.9 14.8 C 33.9 14.8 33.8 14.8 33.8 14.8 C 33.8 14.8 33.8 14.8 33.7 14.8 C 33.7 14.8 33.7 14.8 33.7 14.8 C 33.7 14.8 33.7 14.9 33.6 15 C 33.5 15.1 33.5 15.2 33.5 15.2 C 33.4 15.3 33.4 15.3 33.4 15.3 C 33.4 15.3 33.3 15.3 33.3 15.3 C 33.3 15.2 33.3 15.2 33.3 15.2 C 33.3 15.2 33.3 15.1 33.3 15.1 C 33.3 15 33.4 15 33.5 14.8 C 33.6 14.6 33.7 14.4 33.8 14.2 C 34 13.9 34.1 13.7 34.1 13.7 C 34.2 13.6 34.2 13.6 34.2 13.6 C 34.2 13.6 34.2 13.6 34.2 13.6 Z M 34.1 14.6 C 34.3 14.6 34.4 14.5 34.4 14.5 C 34.4 14.5 34.4 14.4 34.3 14.2 C 34.3 14 34.2 13.9 34.2 13.9 C 34.2 14 34.1 14.1 34 14.3 C 34 14.3 33.8 14.6 33.8 14.6 C 33.8 14.6 33.9 14.6 33.9 14.6 C 34 14.6 34 14.6 34.1 14.6 C 34.1 14.6 34.1 14.6 34.1 14.6 Z M 35.1 13.9 C 35 13.9 34.9 13.9 34.9 13.9 C 34.9 13.9 34.9 13.9 34.9 13.8 C 34.9 13.8 34.9 13.8 34.9 13.8 C 35 13.7 35 13.7 35.2 13.7 C 35.3 13.7 35.4 13.7 35.6 13.7 C 35.7 13.7 35.9 13.7 36.1 13.7 C 36.2 13.6 36.3 13.6 36.4 13.6 C 36.4 13.6 36.5 13.6 36.5 13.6 C 36.5 13.7 36.6 13.7 36.6 13.7 C 36.6 13.7 36.6 13.7 36.6 13.7 C 36.6 13.7 36.6 13.7 36.6 13.8 C 36.6 13.8 36.6 13.8 36.6 13.8 C 36.5 13.8 36.5 13.8 36.5 13.8 C 36.4 13.8 36.4 13.8 36.3 13.8 C 36.2 13.8 36.1 13.8 36 13.8 C 35.9 13.8 35.9 13.9 35.8 13.9 C 35.8 13.9 35.8 14.1 35.8 14.3 C 35.8 14.6 35.7 14.8 35.7 14.9 C 35.7 15 35.7 15.1 35.8 15.1 C 35.8 15.1 35.8 15.2 35.8 15.2 C 35.8 15.2 35.8 15.2 35.7 15.2 C 35.7 15.3 35.7 15.3 35.7 15.3 C 35.6 15.3 35.6 15.3 35.6 15.2 C 35.6 15.2 35.5 15.1 35.5 14.9 C 35.5 14.8 35.6 14.4 35.6 14 C 35.6 13.9 35.6 13.9 35.6 13.9 C 35.6 13.9 35.6 13.9 35.6 13.9 C 35.6 13.9 35.5 13.9 35.3 13.9 C 35.2 13.9 35.1 13.9 35.1 13.9 C 35.1 13.9 35.1 13.9 35.1 13.9 Z M 37.2 15.3 C 37.1 15.3 37 15.3 36.9 15.2 C 36.8 15.2 36.7 15.1 36.7 15 C 36.6 14.9 36.6 14.8 36.6 14.6 C 36.6 14.5 36.6 14.4 36.6 14.2 C 36.6 14.1 36.6 14.1 36.7 14 C 36.7 13.8 36.7 13.8 36.7 13.7 C 36.7 13.7 36.7 13.7 36.7 13.6 C 36.8 13.6 36.8 13.6 36.8 13.6 C 36.8 13.6 36.9 13.6 36.9 13.7 C 36.9 13.7 36.9 13.7 36.9 13.7 C 36.9 13.8 36.9 13.8 36.9 14 C 36.8 14 36.8 14.1 36.8 14.3 C 36.8 14.4 36.8 14.5 36.8 14.6 C 36.8 14.8 36.8 14.9 36.9 15 C 37 15.1 37.1 15.1 37.2 15.1 C 37.3 15.1 37.4 15.1 37.5 15.1 C 37.6 15 37.6 15 37.7 14.9 C 37.7 14.8 37.8 14.6 37.8 14.3 C 37.8 14 37.8 13.8 37.9 13.8 C 37.9 13.7 37.9 13.6 38 13.6 C 38 13.6 38.1 13.7 38.1 13.8 C 38.1 13.8 38 14 38 14.1 C 38 14.2 38 14.3 38 14.5 C 38 14.6 37.9 14.7 37.9 14.7 C 37.9 14.8 37.9 14.9 37.9 14.9 C 37.8 15 37.8 15 37.8 15.1 C 37.7 15.1 37.7 15.2 37.6 15.2 C 37.6 15.2 37.5 15.3 37.4 15.3 C 37.3 15.3 37.2 15.3 37.2 15.3 Z M 39.1 13.6 C 39.1 13.6 39.1 13.6 39.2 13.6 C 39.2 13.6 39.2 13.7 39.2 13.7 C 39.2 13.7 39.2 13.8 39.2 13.8 C 39.2 13.8 39.2 13.8 39.2 13.8 C 39.2 13.9 39.2 14 39.2 14 C 39.3 14.1 39.3 14.2 39.3 14.3 C 39.4 14.5 39.5 14.7 39.5 14.8 C 39.6 14.9 39.7 15 39.7 15.1 C 39.8 15.1 39.8 15.2 39.8 15.2 C 39.8 15.2 39.8 15.2 39.8 15.2 C 39.8 15.3 39.8 15.3 39.8 15.3 C 39.8 15.3 39.7 15.3 39.7 15.3 C 39.6 15.3 39.5 15.2 39.4 14.9 C 39.3 14.8 39.3 14.7 39.3 14.7 C 39.2 14.7 39.2 14.7 39 14.7 C 38.9 14.8 38.8 14.8 38.7 14.8 C 38.7 14.8 38.6 14.8 38.6 14.8 C 38.6 14.8 38.6 14.8 38.5 14.8 C 38.5 14.8 38.5 14.8 38.5 14.8 C 38.5 14.8 38.5 14.9 38.4 15 C 38.3 15.1 38.3 15.2 38.3 15.2 C 38.2 15.3 38.2 15.3 38.2 15.3 C 38.2 15.3 38.1 15.3 38.1 15.3 C 38.1 15.2 38.1 15.2 38.1 15.2 C 38.1 15.2 38.1 15.1 38.1 15.1 C 38.1 15 38.2 15 38.3 14.8 C 38.4 14.6 38.5 14.4 38.6 14.2 C 38.8 13.9 38.9 13.7 39 13.7 C 39 13.6 39 13.6 39.1 13.6 C 39.1 13.6 39.1 13.6 39.1 13.6 Z M 38.9 14.6 C 39.1 14.6 39.2 14.5 39.2 14.5 C 39.2 14.5 39.2 14.4 39.1 14.2 C 39.1 14 39 13.9 39 13.9 C 39 14 38.9 14.1 38.8 14.3 C 38.8 14.3 38.6 14.6 38.6 14.6 C 38.6 14.6 38.7 14.6 38.7 14.6 C 38.8 14.6 38.8 14.6 38.9 14.6 C 38.9 14.6 38.9 14.6 38.9 14.6 Z M 40 15.1 C 40 15 40 15 40 14.9 C 40 14.9 40 14.8 40.1 14.7 C 40.1 14.5 40.1 14.3 40.1 14.1 C 40.1 13.8 40.2 13.7 40.2 13.7 C 40.2 13.7 40.2 13.7 40.2 13.6 C 40.2 13.6 40.2 13.6 40.3 13.6 C 40.3 13.6 40.3 13.6 40.3 13.6 C 40.4 13.7 40.4 13.7 40.4 13.7 C 40.4 13.7 40.4 13.8 40.4 13.9 C 40.3 14 40.3 14.2 40.3 14.5 C 40.2 14.8 40.2 14.9 40.2 15 C 40.2 15 40.2 15 40.2 15 C 40.2 15 40.3 15.1 40.3 15.1 C 40.3 15.1 40.4 15 40.5 15 C 40.6 15 40.8 15 41 15 C 41 15 41.1 15 41.1 15 C 41.1 15 41.1 15 41.2 15 C 41.2 15 41.2 15 41.2 15 C 41.2 15 41.2 15 41.2 15 C 41.2 15.1 41.2 15.1 41.2 15.2 C 41.2 15.2 41.1 15.2 41.1 15.2 C 41.1 15.2 41 15.2 41 15.2 C 40.9 15.2 40.9 15.2 40.9 15.2 C 40.6 15.2 40.4 15.2 40.2 15.3 C 40.1 15.3 40.1 15.3 40.1 15.3 C 40 15.3 40 15.3 40 15.3 C 40 15.2 40 15.2 40 15.2 C 40 15.2 40 15.1 40 15.1 C 40 15.1 40 15.1 40 15.1 Z M 41.5 14.9 C 41.5 14.9 41.5 14.9 41.5 14.9 C 41.6 14.9 41.6 14.9 41.6 15 C 41.6 15 41.6 15 41.6 15 C 41.6 15.1 41.6 15.1 41.6 15.1 C 41.6 15.1 41.6 15.2 41.5 15.2 C 41.5 15.2 41.5 15.2 41.4 15.2 C 41.4 15.2 41.4 15.2 41.4 15.2 C 41.4 15.2 41.4 15.1 41.4 15.1 C 41.4 15 41.4 15 41.4 15 C 41.4 15 41.4 15 41.4 14.9 C 41.4 14.9 41.5 14.9 41.5 14.9 Z " stroke="none" fill="#000"/>  </g>  <g id="Polygon12735">    <path d="M 3.3 10.4 C 3.4 10.4 3.4 10.4 3.5 10.4 C 3.5 10.4 3.5 10.5 3.5 10.5 C 3.5 10.5 3.5 10.5 3.5 10.6 C 3.5 10.6 3.5 10.6 3.5 10.6 C 3.5 10.7 3.5 10.8 3.5 10.8 C 3.6 10.9 3.6 11 3.6 11.1 C 3.7 11.3 3.8 11.4 3.8 11.6 C 3.9 11.7 4 11.8 4 11.9 C 4.1 11.9 4.1 12 4.1 12 C 4.1 12 4.1 12 4.1 12 C 4.1 12 4.1 12.1 4.1 12.1 C 4.1 12.1 4 12.1 4 12.1 C 3.9 12.1 3.8 12 3.7 11.7 C 3.6 11.6 3.6 11.5 3.6 11.5 C 3.5 11.5 3.5 11.5 3.3 11.5 C 3.2 11.6 3.1 11.6 3 11.6 C 3 11.6 2.9 11.6 2.9 11.6 C 2.9 11.6 2.9 11.6 2.8 11.6 C 2.8 11.6 2.8 11.6 2.8 11.6 C 2.8 11.6 2.8 11.7 2.7 11.8 C 2.6 11.9 2.6 12 2.6 12 C 2.5 12.1 2.5 12.1 2.5 12.1 C 2.5 12.1 2.4 12.1 2.4 12 C 2.4 12 2.4 12 2.4 12 C 2.4 12 2.4 11.9 2.4 11.9 C 2.4 11.8 2.5 11.8 2.6 11.6 C 2.7 11.4 2.8 11.2 2.9 11 C 3.1 10.7 3.2 10.5 3.3 10.5 C 3.3 10.4 3.3 10.4 3.3 10.4 C 3.3 10.4 3.3 10.4 3.3 10.4 Z M 3.2 11.4 C 3.4 11.4 3.5 11.3 3.5 11.3 C 3.5 11.3 3.5 11.2 3.4 11 C 3.4 10.8 3.3 10.7 3.3 10.7 C 3.3 10.8 3.2 10.9 3.1 11.1 C 3.1 11.1 2.9 11.4 2.9 11.4 C 2.9 11.4 3 11.4 3 11.4 C 3.1 11.4 3.1 11.4 3.2 11.4 C 3.2 11.4 3.2 11.4 3.2 11.4 Z M 6.2 11.8 C 6.2 11.7 6.3 11.7 6.3 11.7 C 6.3 11.7 6.3 11.7 6.3 11.8 C 6.3 11.8 6.3 11.8 6.2 11.9 C 6.1 12 6 12 5.9 12.1 C 5.8 12.1 5.7 12.1 5.6 12.1 C 5.5 12.1 5.4 12.1 5.3 12 C 5.2 11.9 5.1 11.8 5.1 11.6 C 5.1 11.3 5.2 11 5.5 10.7 C 5.8 10.5 6 10.3 6.3 10.3 C 6.3 10.3 6.4 10.3 6.5 10.4 C 6.5 10.5 6.5 10.5 6.5 10.6 C 6.5 10.7 6.5 10.7 6.5 10.8 C 6.5 10.8 6.5 10.8 6.5 10.9 C 6.4 10.9 6.4 10.9 6.4 10.9 C 6.4 10.9 6.3 10.9 6.3 10.9 C 6.3 10.9 6.3 10.8 6.3 10.8 C 6.3 10.8 6.3 10.8 6.3 10.7 C 6.3 10.7 6.3 10.6 6.3 10.6 C 6.3 10.5 6.3 10.5 6.2 10.5 C 6.1 10.5 6 10.5 5.9 10.7 C 5.7 10.8 5.6 10.9 5.5 11.1 C 5.4 11.3 5.3 11.5 5.3 11.6 C 5.3 11.7 5.3 11.8 5.4 11.9 C 5.5 11.9 5.6 12 5.7 12 C 5.7 12 5.8 11.9 5.9 11.9 C 6 11.9 6.1 11.8 6.2 11.8 C 6.2 11.8 6.2 11.8 6.2 11.8 Z M 7.5 10.4 C 7.5 10.4 7.6 10.4 7.6 10.4 C 7.6 10.4 7.6 10.5 7.6 10.5 C 7.6 10.5 7.6 10.5 7.6 10.6 C 7.6 10.6 7.6 10.6 7.6 10.6 C 7.6 10.7 7.7 10.8 7.7 10.8 C 7.7 10.9 7.7 11 7.8 11.1 C 7.8 11.3 7.9 11.4 8 11.6 C 8.1 11.7 8.1 11.8 8.2 11.9 C 8.2 11.9 8.2 12 8.2 12 C 8.3 12 8.3 12 8.3 12 C 8.3 12 8.3 12.1 8.2 12.1 C 8.2 12.1 8.2 12.1 8.2 12.1 C 8.1 12.1 7.9 12 7.8 11.7 C 7.7 11.6 7.7 11.5 7.7 11.5 C 7.7 11.5 7.6 11.5 7.5 11.5 C 7.4 11.6 7.2 11.6 7.2 11.6 C 7.1 11.6 7.1 11.6 7 11.6 C 7 11.6 7 11.6 7 11.6 C 7 11.6 7 11.6 7 11.6 C 7 11.6 6.9 11.7 6.9 11.8 C 6.8 11.9 6.7 12 6.7 12 C 6.7 12.1 6.6 12.1 6.6 12.1 C 6.6 12.1 6.6 12.1 6.5 12 C 6.5 12 6.5 12 6.5 12 C 6.5 12 6.5 11.9 6.5 11.9 C 6.6 11.8 6.6 11.8 6.7 11.6 C 6.9 11.4 7 11.2 7.1 11 C 7.2 10.7 7.3 10.5 7.4 10.5 C 7.4 10.4 7.5 10.4 7.5 10.4 C 7.5 10.4 7.5 10.4 7.5 10.4 Z M 7.3 11.4 C 7.5 11.4 7.6 11.3 7.7 11.3 C 7.6 11.3 7.6 11.2 7.6 11 C 7.5 10.8 7.5 10.7 7.4 10.7 C 7.4 10.8 7.3 10.9 7.3 11.1 C 7.3 11.1 7.1 11.4 7.1 11.4 C 7.1 11.4 7.1 11.4 7.2 11.4 C 7.2 11.4 7.3 11.4 7.3 11.4 C 7.3 11.4 7.3 11.4 7.3 11.4 Z M 9 12.1 C 8.9 12.1 8.8 12.1 8.7 12 C 8.6 12 8.5 11.9 8.5 11.8 C 8.4 11.7 8.4 11.5 8.4 11.4 C 8.4 11.3 8.4 11.2 8.5 11 C 8.5 10.9 8.5 10.9 8.5 10.8 C 8.5 10.6 8.5 10.5 8.5 10.5 C 8.5 10.5 8.6 10.5 8.6 10.4 C 8.6 10.4 8.6 10.4 8.7 10.4 C 8.7 10.4 8.7 10.4 8.7 10.5 C 8.7 10.5 8.7 10.5 8.7 10.5 C 8.7 10.6 8.7 10.6 8.7 10.7 C 8.7 10.8 8.7 10.9 8.6 11.1 C 8.6 11.2 8.6 11.3 8.6 11.4 C 8.6 11.6 8.6 11.7 8.7 11.8 C 8.8 11.9 8.9 11.9 9 11.9 C 9.1 11.9 9.2 11.9 9.3 11.9 C 9.4 11.8 9.5 11.8 9.5 11.7 C 9.6 11.6 9.6 11.4 9.6 11.1 C 9.6 10.8 9.7 10.6 9.7 10.5 C 9.7 10.5 9.8 10.4 9.8 10.4 C 9.9 10.4 9.9 10.5 9.9 10.6 C 9.9 10.6 9.9 10.8 9.8 10.9 C 9.8 11 9.8 11.1 9.8 11.3 C 9.8 11.4 9.8 11.5 9.8 11.5 C 9.8 11.6 9.7 11.7 9.7 11.7 C 9.7 11.8 9.6 11.8 9.6 11.9 C 9.5 11.9 9.5 12 9.4 12 C 9.4 12 9.3 12.1 9.2 12.1 C 9.1 12.1 9.1 12.1 9 12.1 Z M 11.2 10.8 C 11.2 10.7 11.2 10.6 11.1 10.6 C 11.1 10.6 11 10.6 10.9 10.6 C 10.8 10.6 10.6 10.6 10.5 10.7 C 10.4 10.7 10.3 10.8 10.3 10.9 C 10.3 11 10.3 11 10.4 11.1 C 10.4 11.1 10.6 11.2 10.8 11.2 C 10.9 11.3 11.1 11.3 11.1 11.4 C 11.2 11.4 11.3 11.5 11.3 11.6 C 11.3 11.7 11.2 11.8 11.1 11.8 C 11 11.9 10.9 12 10.7 12.1 C 10.5 12.1 10.4 12.1 10.3 12.1 C 10.2 12.1 10.2 12.1 10.1 12.1 C 10.1 12.1 10 12.1 10 12 C 10 12 10 12 10.1 11.9 C 10.1 11.9 10.1 11.9 10.1 11.9 C 10.1 11.9 10.1 11.9 10.1 11.9 C 10.2 11.9 10.3 11.9 10.4 11.9 C 10.5 11.9 10.7 11.9 10.8 11.8 C 11 11.7 11.1 11.7 11.1 11.6 C 11.1 11.6 11 11.5 11 11.5 C 10.9 11.5 10.8 11.4 10.6 11.4 C 10.4 11.3 10.2 11.2 10.2 11.1 C 10.1 11.1 10.1 11 10.1 10.9 C 10.1 10.8 10.2 10.6 10.4 10.5 C 10.5 10.4 10.7 10.4 10.9 10.4 C 11.1 10.4 11.2 10.4 11.2 10.5 C 11.3 10.5 11.3 10.6 11.3 10.6 C 11.3 10.6 11.3 10.7 11.3 10.7 C 11.3 10.8 11.2 10.8 11.2 10.8 Z M 12.3 10.4 C 12.4 10.4 12.4 10.4 12.4 10.4 C 12.4 10.4 12.4 10.5 12.4 10.5 C 12.4 10.5 12.4 10.5 12.4 10.6 C 12.4 10.6 12.4 10.6 12.4 10.6 C 12.5 10.7 12.5 10.8 12.5 10.8 C 12.5 10.9 12.6 11 12.6 11.1 C 12.7 11.3 12.7 11.4 12.8 11.6 C 12.9 11.7 13 11.8 13 11.9 C 13.1 11.9 13.1 12 13.1 12 C 13.1 12 13.1 12 13.1 12 C 13.1 12 13.1 12.1 13.1 12.1 C 13 12.1 13 12.1 13 12.1 C 12.9 12.1 12.8 12 12.6 11.7 C 12.6 11.6 12.6 11.5 12.5 11.5 C 12.5 11.5 12.4 11.5 12.3 11.5 C 12.2 11.6 12.1 11.6 12 11.6 C 11.9 11.6 11.9 11.6 11.9 11.6 C 11.9 11.6 11.8 11.6 11.8 11.6 C 11.8 11.6 11.8 11.6 11.8 11.6 C 11.8 11.6 11.8 11.7 11.7 11.8 C 11.6 11.9 11.6 12 11.5 12 C 11.5 12.1 11.5 12.1 11.5 12.1 C 11.4 12.1 11.4 12.1 11.4 12 C 11.4 12 11.3 12 11.3 12 C 11.3 12 11.4 11.9 11.4 11.9 C 11.4 11.8 11.5 11.8 11.5 11.6 C 11.7 11.4 11.8 11.2 11.9 11 C 12.1 10.7 12.2 10.5 12.2 10.5 C 12.3 10.4 12.3 10.4 12.3 10.4 C 12.3 10.4 12.3 10.4 12.3 10.4 Z M 12.1 11.4 C 12.4 11.4 12.5 11.3 12.5 11.3 C 12.5 11.3 12.4 11.2 12.4 11 C 12.3 10.8 12.3 10.7 12.3 10.7 C 12.2 10.8 12.2 10.9 12.1 11.1 C 12.1 11.1 11.9 11.4 11.9 11.4 C 11.9 11.4 11.9 11.4 12 11.4 C 12.1 11.4 12.1 11.4 12.1 11.4 C 12.1 11.4 12.1 11.4 12.1 11.4 Z M 15.2 11.1 C 15.2 11.1 15.2 11.1 15.2 11.1 C 15.3 11.2 15.3 11.2 15.4 11.3 C 15.5 11.3 15.5 11.4 15.5 11.5 C 15.5 11.7 15.4 11.8 15.2 12 C 15.1 12.1 14.9 12.2 14.7 12.2 C 14.6 12.2 14.6 12.2 14.5 12.2 C 14.5 12.1 14.5 12.1 14.5 12.1 C 14.5 12 14.6 12 14.7 12 C 14.7 12 14.7 12 14.8 12 C 14.8 12 14.9 12 14.9 11.9 C 15 11.9 15 11.9 15.1 11.9 C 15.1 11.8 15.1 11.8 15.2 11.8 C 15.2 11.7 15.2 11.7 15.3 11.6 C 15.3 11.6 15.3 11.6 15.3 11.5 C 15.3 11.5 15.3 11.4 15.2 11.4 C 15.2 11.3 15.1 11.3 15 11.3 C 15 11.3 14.9 11.3 14.9 11.3 C 14.8 11.3 14.8 11.4 14.8 11.4 C 14.7 11.4 14.7 11.3 14.7 11.3 C 14.7 11.3 14.6 11.3 14.6 11.3 C 14.6 11.2 14.7 11.2 14.8 11.1 C 14.9 11.1 15 11 15.1 10.9 C 15.2 10.8 15.3 10.8 15.3 10.7 C 15.3 10.7 15.3 10.6 15.2 10.6 C 15.2 10.6 15.1 10.5 15.1 10.5 C 15 10.5 14.9 10.6 14.7 10.6 C 14.6 10.6 14.6 10.6 14.6 10.7 C 14.6 10.7 14.5 10.9 14.5 11.2 C 14.4 11.5 14.4 11.7 14.4 11.8 C 14.4 11.8 14.4 11.9 14.4 11.9 C 14.4 12 14.4 12 14.4 12.1 C 14.4 12.1 14.3 12.1 14.3 12.1 C 14.2 12.1 14.2 12.1 14.2 12.1 C 14.2 12 14.2 12 14.2 11.9 C 14.2 11.9 14.2 11.9 14.2 11.9 C 14.2 11.7 14.2 11.5 14.3 11.3 C 14.3 11 14.3 10.9 14.3 10.8 C 14.3 10.8 14.3 10.8 14.3 10.8 C 14.3 10.7 14.3 10.7 14.3 10.7 C 14.2 10.7 14.2 10.7 14.2 10.7 C 14.2 10.7 14.2 10.7 14.2 10.7 C 14.2 10.7 14.2 10.7 14.2 10.7 C 14.2 10.6 14.3 10.5 14.5 10.5 C 14.7 10.4 14.9 10.4 15.1 10.4 C 15.2 10.4 15.3 10.4 15.4 10.5 C 15.5 10.5 15.5 10.6 15.5 10.7 C 15.5 10.7 15.5 10.8 15.4 10.9 C 15.4 11 15.3 11 15.2 11.1 Z M 16.6 10.4 C 16.6 10.4 16.6 10.4 16.7 10.4 C 16.7 10.4 16.7 10.5 16.7 10.5 C 16.7 10.5 16.7 10.5 16.7 10.6 C 16.7 10.6 16.7 10.6 16.7 10.6 C 16.7 10.7 16.7 10.8 16.8 10.8 C 16.8 10.9 16.8 11 16.8 11.1 C 16.9 11.3 17 11.4 17.1 11.6 C 17.1 11.7 17.2 11.8 17.3 11.9 C 17.3 11.9 17.3 12 17.3 12 C 17.3 12 17.3 12 17.3 12 C 17.3 12 17.3 12.1 17.3 12.1 C 17.3 12.1 17.3 12.1 17.2 12.1 C 17.1 12.1 17 12 16.9 11.7 C 16.8 11.6 16.8 11.5 16.8 11.5 C 16.7 11.5 16.7 11.5 16.5 11.5 C 16.4 11.6 16.3 11.6 16.2 11.6 C 16.2 11.6 16.1 11.6 16.1 11.6 C 16.1 11.6 16.1 11.6 16.1 11.6 C 16.1 11.6 16.1 11.6 16 11.6 C 16 11.6 16 11.7 15.9 11.8 C 15.9 11.9 15.8 12 15.8 12 C 15.7 12.1 15.7 12.1 15.7 12.1 C 15.7 12.1 15.7 12.1 15.6 12 C 15.6 12 15.6 12 15.6 12 C 15.6 12 15.6 11.9 15.6 11.9 C 15.6 11.8 15.7 11.8 15.8 11.6 C 15.9 11.4 16.1 11.2 16.2 11 C 16.3 10.7 16.4 10.5 16.5 10.5 C 16.5 10.4 16.5 10.4 16.6 10.4 C 16.6 10.4 16.6 10.4 16.6 10.4 Z M 16.4 11.4 C 16.6 11.4 16.7 11.3 16.7 11.3 C 16.7 11.3 16.7 11.2 16.6 11 C 16.6 10.8 16.5 10.7 16.5 10.7 C 16.5 10.8 16.4 10.9 16.3 11.1 C 16.3 11.1 16.1 11.4 16.1 11.4 C 16.1 11.4 16.2 11.4 16.3 11.4 C 16.3 11.4 16.3 11.4 16.4 11.4 C 16.4 11.4 16.4 11.4 16.4 11.4 Z M 17.1 9.8 C 17.1 9.8 17.1 9.8 17.1 9.8 C 17 9.8 17 9.8 17 9.8 C 17 9.9 16.9 9.9 16.7 10.1 C 16.7 10.1 16.6 10.1 16.6 10.2 C 16.6 10.2 16.5 10.2 16.5 10.2 C 16.5 10.2 16.5 10.2 16.5 10.2 C 16.5 10.1 16.5 10.1 16.5 10.1 C 16.5 10.1 16.5 10 16.6 9.9 C 16.8 9.8 16.9 9.8 17 9.7 C 17 9.7 17 9.7 17 9.7 C 17 9.6 17.1 9.6 17.1 9.6 C 17.1 9.6 17.1 9.7 17.1 9.7 C 17.1 9.7 17.1 9.7 17.1 9.7 C 17.1 9.8 17.1 9.8 17.1 9.8 C 17.1 9.8 17.1 9.8 17.1 9.8 Z M 18.6 10.8 C 18.6 10.7 18.5 10.6 18.5 10.6 C 18.4 10.6 18.4 10.6 18.3 10.6 C 18.1 10.6 18 10.6 17.9 10.7 C 17.7 10.7 17.7 10.8 17.7 10.9 C 17.7 11 17.7 11 17.8 11.1 C 17.8 11.1 17.9 11.2 18.1 11.2 C 18.3 11.3 18.5 11.3 18.5 11.4 C 18.6 11.4 18.7 11.5 18.7 11.6 C 18.7 11.7 18.6 11.8 18.5 11.8 C 18.4 11.9 18.2 12 18.1 12.1 C 17.9 12.1 17.8 12.1 17.7 12.1 C 17.6 12.1 17.5 12.1 17.5 12.1 C 17.4 12.1 17.4 12.1 17.4 12 C 17.4 12 17.4 12 17.4 11.9 C 17.5 11.9 17.5 11.9 17.5 11.9 C 17.5 11.9 17.5 11.9 17.5 11.9 C 17.6 11.9 17.7 11.9 17.8 11.9 C 17.9 11.9 18.1 11.9 18.2 11.8 C 18.4 11.7 18.5 11.7 18.5 11.6 C 18.5 11.6 18.4 11.5 18.4 11.5 C 18.3 11.5 18.2 11.4 18 11.4 C 17.8 11.3 17.6 11.2 17.6 11.1 C 17.5 11.1 17.5 11 17.5 10.9 C 17.5 10.8 17.6 10.6 17.8 10.5 C 17.9 10.4 18.1 10.4 18.3 10.4 C 18.4 10.4 18.5 10.4 18.6 10.5 C 18.7 10.5 18.7 10.6 18.7 10.6 C 18.7 10.6 18.7 10.7 18.7 10.7 C 18.7 10.8 18.6 10.8 18.6 10.8 Z M 19.3 10.6 C 19.3 10.6 19.3 10.7 19.3 10.9 C 19.2 11 19.2 11 19.2 11.1 C 19.2 11.1 19.2 11.2 19.2 11.2 C 19.2 11.4 19.2 11.5 19.2 11.6 C 19.2 11.7 19.2 11.8 19.2 11.9 C 19.2 12 19.2 12 19.2 12 C 19.1 12.1 19.1 12.1 19.1 12.1 C 19 12.1 19 12.1 19 12 C 19 12 19 11.9 19 11.8 C 19 11.7 19 11.5 19 11.4 C 19 11.3 19 11.2 19 11.2 C 19 11.2 19 11.2 19 11.1 C 19 11.1 19 11.1 19 11.1 C 19 11 19.1 10.9 19.1 10.8 C 19.1 10.7 19.1 10.6 19.1 10.6 C 19.1 10.5 19.1 10.5 19.1 10.5 C 19.1 10.5 19.2 10.5 19.2 10.4 C 19.2 10.4 19.2 10.4 19.2 10.4 C 19.3 10.4 19.3 10.4 19.3 10.5 C 19.3 10.5 19.3 10.5 19.3 10.6 Z M 20.6 11.8 C 20.7 11.7 20.7 11.7 20.7 11.7 C 20.8 11.7 20.8 11.7 20.8 11.8 C 20.8 11.8 20.7 11.8 20.7 11.9 C 20.6 12 20.5 12 20.4 12.1 C 20.3 12.1 20.2 12.1 20.1 12.1 C 19.9 12.1 19.8 12.1 19.7 12 C 19.6 11.9 19.6 11.8 19.6 11.6 C 19.6 11.3 19.7 11 19.9 10.7 C 20.2 10.5 20.4 10.3 20.7 10.3 C 20.8 10.3 20.9 10.3 20.9 10.4 C 21 10.5 21 10.5 21 10.6 C 21 10.7 21 10.7 21 10.8 C 21 10.8 20.9 10.8 20.9 10.9 C 20.9 10.9 20.8 10.9 20.8 10.9 C 20.8 10.9 20.8 10.9 20.8 10.9 C 20.8 10.9 20.7 10.8 20.7 10.8 C 20.7 10.8 20.8 10.8 20.8 10.7 C 20.8 10.7 20.8 10.6 20.8 10.6 C 20.8 10.5 20.8 10.5 20.7 10.5 C 20.6 10.5 20.5 10.5 20.3 10.7 C 20.2 10.8 20 10.9 19.9 11.1 C 19.8 11.3 19.8 11.5 19.8 11.6 C 19.8 11.7 19.8 11.8 19.8 11.9 C 19.9 11.9 20 12 20.1 12 C 20.2 12 20.3 11.9 20.3 11.9 C 20.4 11.9 20.5 11.8 20.6 11.8 C 20.6 11.8 20.6 11.8 20.6 11.8 Z M 21.9 10.4 C 22 10.4 22 10.4 22 10.4 C 22 10.4 22 10.5 22 10.5 C 22 10.5 22 10.5 22 10.6 C 22 10.6 22.1 10.6 22.1 10.6 C 22.1 10.7 22.1 10.8 22.1 10.8 C 22.2 10.9 22.2 11 22.2 11.1 C 22.3 11.3 22.3 11.4 22.4 11.6 C 22.5 11.7 22.6 11.8 22.6 11.9 C 22.7 11.9 22.7 12 22.7 12 C 22.7 12 22.7 12 22.7 12 C 22.7 12 22.7 12.1 22.7 12.1 C 22.6 12.1 22.6 12.1 22.6 12.1 C 22.5 12.1 22.4 12 22.2 11.7 C 22.2 11.6 22.2 11.5 22.1 11.5 C 22.1 11.5 22 11.5 21.9 11.5 C 21.8 11.6 21.7 11.6 21.6 11.6 C 21.5 11.6 21.5 11.6 21.5 11.6 C 21.5 11.6 21.4 11.6 21.4 11.6 C 21.4 11.6 21.4 11.6 21.4 11.6 C 21.4 11.6 21.4 11.7 21.3 11.8 C 21.2 11.9 21.2 12 21.1 12 C 21.1 12.1 21.1 12.1 21.1 12.1 C 21 12.1 21 12.1 21 12 C 21 12 20.9 12 20.9 12 C 20.9 12 21 11.9 21 11.9 C 21 11.8 21.1 11.8 21.1 11.6 C 21.3 11.4 21.4 11.2 21.5 11 C 21.7 10.7 21.8 10.5 21.8 10.5 C 21.9 10.4 21.9 10.4 21.9 10.4 C 21.9 10.4 21.9 10.4 21.9 10.4 Z M 21.8 11.4 C 22 11.4 22.1 11.3 22.1 11.3 C 22.1 11.3 22 11.2 22 11 C 21.9 10.8 21.9 10.7 21.9 10.7 C 21.8 10.8 21.8 10.9 21.7 11.1 C 21.7 11.1 21.5 11.4 21.5 11.4 C 21.5 11.4 21.5 11.4 21.6 11.4 C 21.7 11.4 21.7 11.4 21.8 11.4 C 21.8 11.4 21.8 11.4 21.8 11.4 Z M 25 10.6 C 25 10.6 25 10.6 24.9 10.6 C 24.9 10.6 24.9 10.6 24.8 10.6 C 24.8 10.6 24.7 10.6 24.7 10.6 C 24.7 10.6 24.7 10.6 24.6 10.6 C 24.6 10.6 24.6 10.6 24.5 10.6 C 24.3 10.6 24.2 10.7 24.2 10.7 C 24.2 10.7 24.1 10.7 24.1 10.8 C 24.1 10.8 24.1 10.9 24.1 10.9 C 24.1 11.1 24 11.2 24 11.2 C 24 11.2 24.1 11.2 24.1 11.2 C 24.1 11.2 24.2 11.2 24.3 11.2 C 24.4 11.2 24.5 11.2 24.5 11.2 C 24.6 11.1 24.7 11.1 24.8 11.1 C 24.9 11.1 24.9 11.1 24.9 11.2 C 24.9 11.3 24.9 11.3 24.8 11.3 C 24.8 11.3 24.6 11.3 24.4 11.4 C 24.2 11.4 24.1 11.4 24 11.4 C 24 11.5 24 11.5 24 11.6 C 24 11.8 24 11.8 24 11.9 C 24 11.9 24 11.9 24 11.9 C 24 11.9 24 11.9 24 11.9 C 24 11.9 24.1 11.9 24.1 11.9 C 24.1 11.9 24.1 11.9 24.2 11.9 C 24.2 11.9 24.4 11.9 24.4 11.9 C 24.5 11.9 24.6 11.9 24.7 11.9 C 24.8 11.8 24.8 11.8 24.8 11.8 C 24.9 11.8 24.9 11.8 24.9 11.8 C 24.9 11.9 25 11.9 25 11.9 C 25 12 25 12 24.9 12 C 24.9 12 24.8 12 24.6 12 C 24.5 12 24.4 12.1 24.2 12.1 C 24 12.1 24 12.1 23.9 12.1 C 23.9 12.1 23.8 12.1 23.8 12.1 C 23.8 12.1 23.7 12.1 23.7 12 C 23.74 12 23.7 12 23.7 12 C 23.7 12 23.73 11.96 23.7 12 C 23.7 11.9 23.7 11.9 23.8 11.9 C 23.8 11.8 23.8 11.7 23.8 11.6 C 23.8 11.4 23.9 11.3 23.9 11.2 C 23.9 11.2 23.9 11.2 23.9 11.1 C 23.9 10.9 23.9 10.8 23.9 10.7 C 23.9 10.7 23.9 10.7 23.9 10.7 C 23.9 10.7 23.9 10.6 23.9 10.6 C 23.9 10.6 23.9 10.6 23.9 10.6 C 23.9 10.6 23.9 10.6 23.9 10.6 C 23.9 10.6 23.9 10.6 23.9 10.6 C 23.9 10.5 23.9 10.5 23.9 10.5 C 23.9 10.5 23.9 10.5 24 10.5 C 24 10.5 24 10.5 24 10.5 C 24 10.5 24 10.5 24.1 10.5 C 24.1 10.5 24.1 10.5 24.1 10.5 C 24.1 10.5 24.2 10.5 24.3 10.5 C 24.5 10.5 24.7 10.4 24.9 10.4 C 24.9 10.4 24.9 10.4 24.9 10.4 C 24.9 10.4 24.9 10.4 24.9 10.4 C 25 10.4 25 10.4 25 10.4 C 25.1 10.4 25.1 10.5 25.1 10.5 C 25.1 10.5 25.1 10.5 25.1 10.6 C 25 10.6 25 10.6 25 10.6 Z M 25 9.9 C 25 9.9 25 9.9 25 9.9 C 25 9.9 25 9.9 25 9.9 C 24.9 10 24.8 10 24.7 10.1 C 24.6 10.2 24.5 10.2 24.5 10.3 C 24.5 10.3 24.5 10.3 24.5 10.3 C 24.5 10.3 24.4 10.3 24.4 10.2 C 24.4 10.2 24.4 10.2 24.4 10.2 C 24.4 10.1 24.5 10.1 24.6 10 C 24.7 9.9 24.8 9.8 24.9 9.8 C 24.9 9.8 24.9 9.8 25 9.7 C 25 9.7 25 9.7 25 9.7 C 25 9.7 25 9.7 25 9.8 C 25 9.8 25.1 9.8 25.1 9.8 C 25.1 9.8 25 9.9 25 9.9 C 25 9.9 25 9.9 25 9.9 Z M 26.9 10.4 C 27 10.4 27 10.4 27 10.4 C 27 10.4 27 10.5 27 10.5 C 27 10.5 27 10.5 27 10.6 C 27 10.6 27 10.6 27 10.6 C 27.1 10.7 27.1 10.8 27.1 10.8 C 27.1 10.9 27.2 11 27.2 11.1 C 27.3 11.3 27.3 11.4 27.4 11.6 C 27.5 11.7 27.6 11.8 27.6 11.9 C 27.6 11.9 27.7 12 27.7 12 C 27.7 12 27.7 12 27.7 12 C 27.7 12 27.7 12.1 27.7 12.1 C 27.6 12.1 27.6 12.1 27.6 12.1 C 27.5 12.1 27.4 12 27.2 11.7 C 27.2 11.6 27.2 11.5 27.1 11.5 C 27.1 11.5 27 11.5 26.9 11.5 C 26.8 11.6 26.7 11.6 26.6 11.6 C 26.5 11.6 26.5 11.6 26.5 11.6 C 26.5 11.6 26.4 11.6 26.4 11.6 C 26.4 11.6 26.4 11.6 26.4 11.6 C 26.4 11.6 26.4 11.7 26.3 11.8 C 26.2 11.9 26.2 12 26.1 12 C 26.1 12.1 26.1 12.1 26.1 12.1 C 26 12.1 26 12.1 26 12 C 26 12 25.9 12 25.9 12 C 25.9 12 26 11.9 26 11.9 C 26 11.8 26.1 11.8 26.1 11.6 C 26.3 11.4 26.4 11.2 26.5 11 C 26.7 10.7 26.8 10.5 26.8 10.5 C 26.9 10.4 26.9 10.4 26.9 10.4 C 26.9 10.4 26.9 10.4 26.9 10.4 Z M 26.7 11.4 C 26.9 11.4 27.1 11.3 27.1 11.3 C 27.1 11.3 27 11.2 27 11 C 26.9 10.8 26.9 10.7 26.9 10.7 C 26.8 10.8 26.8 10.9 26.7 11.1 C 26.7 11.1 26.5 11.4 26.5 11.4 C 26.5 11.4 26.5 11.4 26.6 11.4 C 26.7 11.4 26.7 11.4 26.7 11.4 C 26.7 11.4 26.7 11.4 26.7 11.4 Z M 30 10.6 C 30 10.6 30 10.6 29.9 10.6 C 29.9 10.6 29.9 10.6 29.8 10.6 C 29.8 10.6 29.7 10.6 29.7 10.6 C 29.7 10.6 29.7 10.6 29.6 10.6 C 29.6 10.6 29.5 10.6 29.5 10.6 C 29.3 10.6 29.2 10.7 29.2 10.7 C 29.1 10.7 29.1 10.7 29.1 10.8 C 29.1 10.8 29.1 10.9 29.1 10.9 C 29.1 11.1 29 11.2 29 11.2 C 29 11.2 29.1 11.2 29.1 11.2 C 29.1 11.2 29.2 11.2 29.3 11.2 C 29.4 11.2 29.5 11.2 29.5 11.2 C 29.6 11.1 29.7 11.1 29.8 11.1 C 29.9 11.1 29.9 11.1 29.9 11.2 C 29.9 11.3 29.9 11.3 29.8 11.3 C 29.7 11.3 29.6 11.3 29.4 11.4 C 29.2 11.4 29 11.4 29 11.4 C 29 11.5 29 11.5 29 11.6 C 29 11.8 29 11.8 29 11.9 C 29 11.9 29 11.9 29 11.9 C 29 11.9 29 11.9 29 11.9 C 29 11.9 29 11.9 29 11.9 C 29.1 11.9 29.1 11.9 29.2 11.9 C 29.2 11.9 29.4 11.9 29.4 11.9 C 29.5 11.9 29.6 11.9 29.6 11.9 C 29.8 11.8 29.8 11.8 29.8 11.8 C 29.9 11.8 29.9 11.8 29.9 11.8 C 29.9 11.9 30 11.9 30 11.9 C 30 12 29.9 12 29.9 12 C 29.9 12 29.8 12 29.6 12 C 29.5 12 29.4 12.1 29.2 12.1 C 29 12.1 29 12.1 28.9 12.1 C 28.8 12.1 28.8 12.1 28.8 12.1 C 28.7 12.1 28.7 12.1 28.7 12 C 28.73 12 28.7 12 28.7 12 C 28.7 12 28.73 11.96 28.7 12 C 28.7 11.9 28.7 11.9 28.7 11.9 C 28.8 11.8 28.8 11.7 28.8 11.6 C 28.8 11.4 28.9 11.3 28.9 11.2 C 28.9 11.2 28.9 11.2 28.9 11.1 C 28.9 10.9 28.9 10.8 28.9 10.7 C 28.9 10.7 28.9 10.7 28.9 10.7 C 28.9 10.7 28.9 10.6 28.9 10.6 C 28.9 10.6 28.9 10.6 28.9 10.6 C 28.9 10.6 28.9 10.6 28.9 10.6 C 28.9 10.6 28.9 10.6 28.9 10.6 C 28.9 10.5 28.9 10.5 28.9 10.5 C 28.9 10.5 28.9 10.5 29 10.5 C 29 10.5 29 10.5 29 10.5 C 29 10.5 29 10.5 29.1 10.5 C 29.1 10.5 29.1 10.5 29.1 10.5 C 29.1 10.5 29.2 10.5 29.3 10.5 C 29.5 10.5 29.7 10.4 29.9 10.4 C 29.9 10.4 29.9 10.4 29.9 10.4 C 29.9 10.4 29.9 10.4 29.9 10.4 C 30 10.4 30 10.4 30 10.4 C 30.1 10.4 30.1 10.5 30.1 10.5 C 30.1 10.5 30.1 10.5 30 10.6 C 30 10.6 30 10.6 30 10.6 Z M 31.3 10.8 C 31.3 10.7 31.3 10.6 31.2 10.6 C 31.2 10.6 31.1 10.6 31.1 10.6 C 30.9 10.6 30.8 10.6 30.6 10.7 C 30.5 10.7 30.4 10.8 30.4 10.9 C 30.4 11 30.5 11 30.5 11.1 C 30.6 11.1 30.7 11.2 30.9 11.2 C 31.1 11.3 31.2 11.3 31.3 11.4 C 31.4 11.4 31.4 11.5 31.4 11.6 C 31.4 11.7 31.4 11.8 31.2 11.8 C 31.1 11.9 31 12 30.8 12.1 C 30.7 12.1 30.6 12.1 30.5 12.1 C 30.4 12.1 30.3 12.1 30.2 12.1 C 30.2 12.1 30.2 12.1 30.2 12 C 30.2 12 30.2 12 30.2 11.9 C 30.2 11.9 30.2 11.9 30.2 11.9 C 30.3 11.9 30.3 11.9 30.3 11.9 C 30.4 11.9 30.4 11.9 30.5 11.9 C 30.7 11.9 30.8 11.9 31 11.8 C 31.1 11.7 31.2 11.7 31.2 11.6 C 31.2 11.6 31.2 11.5 31.1 11.5 C 31.1 11.5 31 11.4 30.8 11.4 C 30.5 11.3 30.4 11.2 30.3 11.1 C 30.3 11.1 30.2 11 30.2 10.9 C 30.2 10.8 30.3 10.6 30.5 10.5 C 30.7 10.4 30.9 10.4 31.1 10.4 C 31.2 10.4 31.3 10.4 31.4 10.5 C 31.4 10.5 31.5 10.6 31.5 10.6 C 31.5 10.6 31.5 10.7 31.4 10.7 C 31.4 10.8 31.4 10.8 31.3 10.8 Z M 31.7 10.7 C 31.6 10.7 31.6 10.7 31.5 10.7 C 31.5 10.7 31.5 10.6 31.5 10.6 C 31.5 10.6 31.5 10.6 31.6 10.6 C 31.6 10.5 31.7 10.5 31.8 10.5 C 31.9 10.5 32.1 10.5 32.2 10.5 C 32.3 10.5 32.5 10.5 32.7 10.5 C 32.8 10.4 32.9 10.4 33 10.4 C 33 10.4 33.1 10.4 33.1 10.4 C 33.1 10.4 33.2 10.5 33.2 10.5 C 33.2 10.5 33.2 10.5 33.2 10.5 C 33.2 10.5 33.2 10.5 33.2 10.5 C 33.2 10.6 33.2 10.6 33.2 10.6 C 33.2 10.6 33.1 10.6 33.1 10.6 C 33 10.6 33 10.6 32.9 10.6 C 32.8 10.6 32.7 10.6 32.6 10.6 C 32.5 10.6 32.5 10.7 32.5 10.7 C 32.4 10.7 32.4 10.9 32.4 11.1 C 32.4 11.4 32.4 11.6 32.4 11.7 C 32.4 11.8 32.4 11.8 32.4 11.9 C 32.4 11.9 32.4 11.9 32.4 12 C 32.4 12 32.4 12 32.4 12 C 32.3 12.1 32.3 12.1 32.3 12.1 C 32.3 12.1 32.2 12.1 32.2 12 C 32.2 12 32.2 11.9 32.2 11.7 C 32.2 11.5 32.2 11.2 32.3 10.8 C 32.3 10.7 32.3 10.7 32.3 10.7 C 32.3 10.7 32.2 10.7 32.2 10.7 C 32.2 10.7 32.1 10.7 32 10.7 C 31.8 10.7 31.7 10.7 31.7 10.7 C 31.7 10.7 31.7 10.7 31.7 10.7 Z M 33.5 10.5 C 33.7 10.4 33.9 10.4 34 10.4 C 34.1 10.4 34.2 10.4 34.3 10.5 C 34.4 10.6 34.5 10.7 34.5 10.8 C 34.5 10.9 34.4 11 34.3 11.1 C 34.2 11.2 34.1 11.3 33.9 11.3 C 33.9 11.4 33.9 11.4 33.9 11.4 C 33.9 11.4 34 11.5 34.2 11.6 C 34.3 11.7 34.4 11.8 34.6 11.9 C 34.6 11.9 34.6 11.9 34.6 12 C 34.6 12 34.6 12 34.6 12 C 34.6 12.1 34.5 12.1 34.5 12.1 C 34.5 12.1 34.4 12 34.3 12 C 34.2 11.9 34.1 11.8 34 11.7 C 33.8 11.5 33.7 11.4 33.6 11.4 C 33.6 11.4 33.6 11.4 33.5 11.4 C 33.5 11.4 33.5 11.4 33.5 11.3 C 33.5 11.3 33.5 11.3 33.5 11.3 C 33.6 11.2 33.6 11.2 33.6 11.2 C 33.6 11.2 33.7 11.2 33.7 11.2 C 33.7 11.2 33.7 11.2 33.8 11.2 C 33.8 11.2 33.9 11.2 34.1 11.1 C 34.2 11 34.3 10.9 34.3 10.8 C 34.3 10.7 34.2 10.7 34.2 10.6 C 34.1 10.6 34 10.6 33.9 10.6 C 33.9 10.6 33.8 10.6 33.7 10.6 C 33.6 10.6 33.6 10.6 33.6 10.6 C 33.5 10.6 33.5 10.6 33.5 10.7 C 33.5 10.7 33.5 10.8 33.5 11 C 33.4 11.1 33.4 11.3 33.4 11.4 C 33.4 11.6 33.4 11.7 33.4 11.8 C 33.4 11.8 33.4 11.9 33.4 11.9 C 33.4 11.9 33.4 12 33.4 12 C 33.4 12 33.4 12 33.3 12.1 C 33.3 12.1 33.3 12.1 33.3 12.1 C 33.2 12.1 33.2 12 33.2 11.9 C 33.2 11.6 33.2 11.2 33.3 10.7 C 33.3 10.7 33.3 10.7 33.3 10.7 C 33.3 10.7 33.3 10.7 33.3 10.6 C 33.3 10.6 33.3 10.6 33.3 10.6 C 33.3 10.5 33.3 10.5 33.3 10.5 C 33.3 10.5 33.4 10.4 33.4 10.4 C 33.4 10.4 33.5 10.5 33.5 10.5 Z M 35.4 12.1 C 35.3 12.1 35.2 12.1 35.1 12 C 35 12 34.9 11.9 34.9 11.8 C 34.8 11.7 34.8 11.5 34.8 11.4 C 34.8 11.3 34.8 11.2 34.9 11 C 34.9 10.9 34.9 10.9 34.9 10.8 C 34.9 10.6 34.9 10.5 34.9 10.5 C 35 10.5 35 10.5 35 10.4 C 35 10.4 35 10.4 35.1 10.4 C 35.1 10.4 35.1 10.4 35.1 10.5 C 35.1 10.5 35.1 10.5 35.1 10.5 C 35.1 10.6 35.1 10.6 35.1 10.7 C 35.1 10.8 35.1 10.9 35 11.1 C 35 11.2 35 11.3 35 11.4 C 35 11.6 35.1 11.7 35.2 11.8 C 35.2 11.9 35.3 11.9 35.4 11.9 C 35.5 11.9 35.6 11.9 35.7 11.9 C 35.8 11.8 35.9 11.8 35.9 11.7 C 36 11.6 36 11.4 36 11.1 C 36 10.8 36.1 10.6 36.1 10.5 C 36.1 10.5 36.2 10.4 36.2 10.4 C 36.3 10.4 36.3 10.5 36.3 10.6 C 36.3 10.6 36.3 10.8 36.2 10.9 C 36.2 11 36.2 11.1 36.2 11.3 C 36.2 11.4 36.2 11.5 36.2 11.5 C 36.2 11.6 36.1 11.7 36.1 11.7 C 36.1 11.8 36 11.8 36 11.9 C 35.9 11.9 35.9 12 35.8 12 C 35.8 12 35.7 12.1 35.6 12.1 C 35.5 12.1 35.5 12.1 35.4 12.1 Z M 36.5 10.7 C 36.5 10.7 36.4 10.7 36.4 10.7 C 36.4 10.7 36.4 10.6 36.4 10.6 C 36.4 10.6 36.4 10.6 36.4 10.6 C 36.4 10.5 36.5 10.5 36.6 10.5 C 36.8 10.5 36.9 10.5 37 10.5 C 37.1 10.5 37.3 10.5 37.6 10.5 C 37.7 10.4 37.8 10.4 37.8 10.4 C 37.9 10.4 37.9 10.4 38 10.4 C 38 10.4 38 10.5 38 10.5 C 38.1 10.5 38.1 10.5 38.1 10.5 C 38.1 10.5 38.1 10.5 38.1 10.5 C 38.1 10.6 38.1 10.6 38 10.6 C 38 10.6 38 10.6 37.9 10.6 C 37.9 10.6 37.8 10.6 37.8 10.6 C 37.7 10.6 37.6 10.6 37.5 10.6 C 37.4 10.6 37.3 10.7 37.3 10.7 C 37.3 10.7 37.3 10.9 37.2 11.1 C 37.2 11.4 37.2 11.6 37.2 11.7 C 37.2 11.8 37.2 11.8 37.2 11.9 C 37.2 11.9 37.2 11.9 37.2 12 C 37.2 12 37.2 12 37.2 12 C 37.2 12.1 37.2 12.1 37.1 12.1 C 37.1 12.1 37.1 12.1 37 12 C 37 12 37 11.9 37 11.7 C 37 11.5 37 11.2 37.1 10.8 C 37.1 10.7 37.1 10.7 37.1 10.7 C 37.1 10.7 37.1 10.7 37.1 10.7 C 37 10.7 36.9 10.7 36.8 10.7 C 36.7 10.7 36.6 10.7 36.5 10.7 C 36.5 10.7 36.5 10.7 36.5 10.7 Z M 38.6 12.1 C 38.6 12.1 38.5 12.1 38.4 12 C 38.3 12 38.2 11.9 38.1 11.8 C 38.1 11.7 38 11.5 38 11.4 C 38 11.3 38 11.2 38.1 11 C 38.1 10.9 38.1 10.9 38.1 10.8 C 38.1 10.6 38.2 10.5 38.2 10.5 C 38.2 10.5 38.2 10.5 38.2 10.4 C 38.2 10.4 38.3 10.4 38.3 10.4 C 38.3 10.4 38.3 10.4 38.3 10.5 C 38.4 10.5 38.4 10.5 38.4 10.5 C 38.4 10.6 38.3 10.6 38.3 10.7 C 38.3 10.8 38.3 10.9 38.3 11.1 C 38.2 11.2 38.2 11.3 38.2 11.4 C 38.2 11.6 38.3 11.7 38.4 11.8 C 38.5 11.9 38.6 11.9 38.6 11.9 C 38.7 11.9 38.9 11.9 38.9 11.9 C 39 11.8 39.1 11.8 39.1 11.7 C 39.2 11.6 39.2 11.4 39.2 11.1 C 39.3 10.8 39.3 10.6 39.3 10.5 C 39.3 10.5 39.4 10.4 39.4 10.4 C 39.5 10.4 39.5 10.5 39.5 10.6 C 39.5 10.6 39.5 10.8 39.5 10.9 C 39.5 11 39.4 11.1 39.4 11.3 C 39.4 11.4 39.4 11.5 39.4 11.5 C 39.4 11.6 39.4 11.7 39.3 11.7 C 39.3 11.8 39.3 11.8 39.2 11.9 C 39.2 11.9 39.1 12 39.1 12 C 39 12 38.9 12.1 38.9 12.1 C 38.8 12.1 38.7 12.1 38.6 12.1 Z M 40 10.5 C 40.3 10.4 40.4 10.4 40.5 10.4 C 40.7 10.4 40.8 10.4 40.9 10.5 C 41 10.6 41 10.7 41 10.8 C 41 10.9 41 11 40.9 11.1 C 40.8 11.2 40.7 11.3 40.5 11.3 C 40.5 11.4 40.5 11.4 40.5 11.4 C 40.5 11.4 40.6 11.5 40.7 11.6 C 40.9 11.7 41 11.8 41.2 11.9 C 41.2 11.9 41.2 11.9 41.2 12 C 41.2 12 41.2 12 41.2 12 C 41.1 12.1 41.1 12.1 41.1 12.1 C 41.1 12.1 41 12 40.9 12 C 40.8 11.9 40.7 11.8 40.6 11.7 C 40.4 11.5 40.2 11.4 40.2 11.4 C 40.2 11.4 40.1 11.4 40.1 11.4 C 40.1 11.4 40.1 11.4 40.1 11.3 C 40.1 11.3 40.1 11.3 40.1 11.3 C 40.1 11.2 40.2 11.2 40.2 11.2 C 40.2 11.2 40.2 11.2 40.3 11.2 C 40.3 11.2 40.3 11.2 40.3 11.2 C 40.4 11.2 40.5 11.2 40.6 11.1 C 40.8 11 40.9 10.9 40.9 10.8 C 40.9 10.7 40.8 10.7 40.8 10.6 C 40.7 10.6 40.6 10.6 40.5 10.6 C 40.4 10.6 40.4 10.6 40.3 10.6 C 40.2 10.6 40.2 10.6 40.1 10.6 C 40.1 10.6 40.1 10.6 40.1 10.7 C 40.1 10.7 40.1 10.8 40 11 C 40 11.1 40 11.3 40 11.4 C 39.9 11.6 39.9 11.7 39.9 11.8 C 39.9 11.8 39.9 11.9 39.9 11.9 C 40 11.9 40 12 40 12 C 40 12 39.9 12 39.9 12.1 C 39.9 12.1 39.9 12.1 39.8 12.1 C 39.8 12.1 39.7 12 39.7 11.9 C 39.7 11.6 39.8 11.2 39.9 10.7 C 39.9 10.7 39.9 10.7 39.9 10.7 C 39.9 10.7 39.9 10.7 39.9 10.6 C 39.9 10.6 39.8 10.6 39.8 10.6 C 39.8 10.5 39.9 10.5 39.9 10.5 C 39.9 10.5 39.9 10.4 40 10.4 C 40 10.4 40 10.5 40 10.5 Z M 42.2 10.4 C 42.2 10.4 42.2 10.4 42.3 10.4 C 42.3 10.4 42.3 10.5 42.3 10.5 C 42.3 10.5 42.3 10.5 42.3 10.6 C 42.3 10.6 42.3 10.6 42.3 10.6 C 42.3 10.7 42.3 10.8 42.4 10.8 C 42.4 10.9 42.4 11 42.4 11.1 C 42.5 11.3 42.6 11.4 42.6 11.6 C 42.7 11.7 42.8 11.8 42.8 11.9 C 42.9 11.9 42.9 12 42.9 12 C 42.9 12 42.9 12 42.9 12 C 42.9 12 42.9 12.1 42.9 12.1 C 42.9 12.1 42.8 12.1 42.8 12.1 C 42.7 12.1 42.6 12 42.5 11.7 C 42.4 11.6 42.4 11.5 42.4 11.5 C 42.3 11.5 42.3 11.5 42.1 11.5 C 42 11.6 41.9 11.6 41.8 11.6 C 41.8 11.6 41.7 11.6 41.7 11.6 C 41.7 11.6 41.7 11.6 41.7 11.6 C 41.6 11.6 41.6 11.6 41.6 11.6 C 41.6 11.6 41.6 11.7 41.5 11.8 C 41.4 11.9 41.4 12 41.4 12 C 41.3 12.1 41.3 12.1 41.3 12.1 C 41.3 12.1 41.2 12.1 41.2 12 C 41.2 12 41.2 12 41.2 12 C 41.2 12 41.2 11.9 41.2 11.9 C 41.2 11.8 41.3 11.8 41.4 11.6 C 41.5 11.4 41.6 11.2 41.7 11 C 41.9 10.7 42 10.5 42.1 10.5 C 42.1 10.4 42.1 10.4 42.2 10.4 C 42.2 10.4 42.2 10.4 42.2 10.4 Z M 42 11.4 C 42.2 11.4 42.3 11.3 42.3 11.3 C 42.3 11.3 42.3 11.2 42.2 11 C 42.2 10.8 42.1 10.7 42.1 10.7 C 42.1 10.8 42 10.9 41.9 11.1 C 41.9 11.1 41.7 11.4 41.7 11.4 C 41.7 11.4 41.8 11.4 41.8 11.4 C 41.9 11.4 41.9 11.4 42 11.4 C 42 11.4 42 11.4 42 11.4 Z M 44.1 10.8 C 44.1 10.8 44.2 10.7 44.2 10.7 C 44.2 10.7 44.1 10.6 44.1 10.6 C 44 10.6 44 10.6 44 10.6 C 44 10.5 44 10.5 44 10.5 C 44.1 10.4 44.1 10.4 44.1 10.4 C 44.1 10.4 44.3 10.4 44.3 10.4 C 44.4 10.4 44.5 10.4 44.6 10.4 C 44.7 10.4 44.8 10.4 44.8 10.4 C 45 10.4 45.2 10.5 45.3 10.6 C 45.5 10.7 45.5 10.9 45.5 11 C 45.5 11.2 45.4 11.4 45.3 11.6 C 45.1 11.8 44.8 11.9 44.5 12 C 44.4 12 44.3 12 44.2 12.1 C 44.2 12.1 44.1 12.1 44.1 12.1 C 44 12.1 44 12.1 44 12.1 C 44 12.1 44 12 44 12 C 44 12 44 12 44 12 C 44 11.9 44 11.9 44 11.9 C 44 11.8 44 11.8 44 11.7 C 44 11.6 44.1 11.4 44.1 11.3 C 44.1 11.1 44.1 10.9 44.1 10.8 C 44.1 10.8 44.1 10.8 44.1 10.8 Z M 44.4 10.6 C 44.4 10.6 44.4 10.6 44.4 10.6 C 44.3 11.1 44.2 11.5 44.2 11.7 C 44.2 11.8 44.2 11.8 44.2 11.9 C 44.2 11.9 44.3 11.9 44.3 11.9 C 44.3 11.9 44.4 11.8 44.6 11.8 C 44.8 11.7 45 11.6 45.1 11.5 C 45.3 11.3 45.3 11.2 45.3 11 C 45.3 10.9 45.3 10.8 45.2 10.7 C 45.1 10.6 45 10.6 44.8 10.6 C 44.7 10.6 44.6 10.6 44.4 10.6 C 44.4 10.6 44.4 10.6 44.4 10.6 Z M 46.1 12.1 C 46 12.1 45.9 12.1 45.8 11.9 C 45.7 11.8 45.7 11.7 45.7 11.6 C 45.7 11.4 45.7 11.2 45.8 11.1 C 45.9 10.9 46 10.7 46.2 10.6 C 46.3 10.5 46.5 10.4 46.6 10.4 C 46.8 10.4 46.9 10.4 46.9 10.4 C 47 10.5 47.1 10.5 47.2 10.6 C 47.2 10.6 47.3 10.7 47.3 10.8 C 47.3 10.8 47.3 10.9 47.3 11 C 47.3 11.1 47.3 11.2 47.2 11.4 C 47.2 11.5 47.1 11.6 47 11.8 C 46.8 11.9 46.7 12 46.6 12 C 46.5 12.1 46.3 12.1 46.1 12.1 Z M 45.9 11.6 C 45.9 11.7 45.9 11.8 46 11.8 C 46.1 11.9 46.1 11.9 46.2 11.9 C 46.4 11.9 46.6 11.8 46.8 11.6 C 47 11.4 47.1 11.2 47.1 11 C 47.1 10.9 47.1 10.8 47.1 10.7 C 47 10.7 47 10.7 46.9 10.6 C 46.8 10.6 46.7 10.6 46.6 10.6 C 46.5 10.6 46.3 10.7 46.1 10.9 C 46 11.1 45.9 11.3 45.9 11.6 Z M 49.5 10.8 C 49.5 10.7 49.4 10.6 49.4 10.6 C 49.3 10.6 49.3 10.6 49.2 10.6 C 49 10.6 48.9 10.6 48.8 10.7 C 48.6 10.7 48.6 10.8 48.6 10.9 C 48.6 11 48.6 11 48.7 11.1 C 48.7 11.1 48.8 11.2 49 11.2 C 49.2 11.3 49.4 11.3 49.4 11.4 C 49.5 11.4 49.6 11.5 49.6 11.6 C 49.6 11.7 49.5 11.8 49.4 11.8 C 49.3 11.9 49.1 12 49 12.1 C 48.8 12.1 48.7 12.1 48.6 12.1 C 48.5 12.1 48.4 12.1 48.4 12.1 C 48.3 12.1 48.3 12.1 48.3 12 C 48.3 12 48.3 12 48.3 11.9 C 48.4 11.9 48.4 11.9 48.4 11.9 C 48.4 11.9 48.4 11.9 48.4 11.9 C 48.5 11.9 48.6 11.9 48.7 11.9 C 48.8 11.9 49 11.9 49.1 11.8 C 49.3 11.7 49.4 11.7 49.4 11.6 C 49.4 11.6 49.3 11.5 49.3 11.5 C 49.2 11.5 49.1 11.4 48.9 11.4 C 48.7 11.3 48.5 11.2 48.5 11.1 C 48.4 11.1 48.4 11 48.4 10.9 C 48.4 10.8 48.5 10.6 48.7 10.5 C 48.8 10.4 49 10.4 49.2 10.4 C 49.3 10.4 49.4 10.4 49.5 10.5 C 49.6 10.5 49.6 10.6 49.6 10.6 C 49.6 10.6 49.6 10.7 49.6 10.7 C 49.6 10.8 49.5 10.8 49.5 10.8 Z M 50.2 10.6 C 50.2 10.6 50.2 10.7 50.2 10.9 C 50.1 11 50.1 11 50.1 11.1 C 50.1 11.1 50.1 11.2 50.1 11.2 C 50.1 11.4 50.1 11.5 50.1 11.6 C 50.1 11.7 50.1 11.8 50.1 11.9 C 50.1 12 50.1 12 50.1 12 C 50 12.1 50 12.1 50 12.1 C 49.9 12.1 49.9 12.1 49.9 12 C 49.9 12 49.9 11.9 49.9 11.8 C 49.9 11.7 49.9 11.5 49.9 11.4 C 49.9 11.3 49.9 11.2 49.9 11.2 C 49.9 11.2 49.9 11.2 49.9 11.1 C 49.9 11.1 49.9 11.1 49.9 11.1 C 49.9 11 50 10.9 50 10.8 C 50 10.7 50 10.6 50 10.6 C 50 10.5 50 10.5 50 10.5 C 50 10.5 50.1 10.5 50.1 10.4 C 50.1 10.4 50.1 10.4 50.1 10.4 C 50.2 10.4 50.2 10.4 50.2 10.5 C 50.2 10.5 50.2 10.5 50.2 10.6 Z M 51.6 10.8 C 51.6 10.7 51.5 10.6 51.5 10.6 C 51.4 10.6 51.4 10.6 51.3 10.6 C 51.1 10.6 51 10.6 50.9 10.7 C 50.7 10.7 50.7 10.8 50.7 10.9 C 50.7 11 50.7 11 50.8 11.1 C 50.8 11.1 50.9 11.2 51.1 11.2 C 51.3 11.3 51.5 11.3 51.5 11.4 C 51.6 11.4 51.7 11.5 51.7 11.6 C 51.7 11.7 51.6 11.8 51.5 11.8 C 51.4 11.9 51.2 12 51.1 12.1 C 50.9 12.1 50.8 12.1 50.7 12.1 C 50.6 12.1 50.5 12.1 50.5 12.1 C 50.4 12.1 50.4 12.1 50.4 12 C 50.4 12 50.4 12 50.4 11.9 C 50.5 11.9 50.5 11.9 50.5 11.9 C 50.5 11.9 50.5 11.9 50.5 11.9 C 50.6 11.9 50.7 11.9 50.8 11.9 C 50.9 11.9 51.1 11.9 51.2 11.8 C 51.4 11.7 51.5 11.7 51.5 11.6 C 51.5 11.6 51.4 11.5 51.4 11.5 C 51.3 11.5 51.2 11.4 51 11.4 C 50.8 11.3 50.6 11.2 50.6 11.1 C 50.5 11.1 50.5 11 50.5 10.9 C 50.5 10.8 50.6 10.6 50.8 10.5 C 50.9 10.4 51.1 10.4 51.3 10.4 C 51.4 10.4 51.5 10.4 51.6 10.5 C 51.7 10.5 51.7 10.6 51.7 10.6 C 51.7 10.6 51.7 10.7 51.7 10.7 C 51.7 10.8 51.6 10.8 51.6 10.8 Z M 51.9 10.7 C 51.9 10.7 51.8 10.7 51.8 10.7 C 51.8 10.7 51.8 10.6 51.8 10.6 C 51.8 10.6 51.8 10.6 51.8 10.6 C 51.8 10.5 51.9 10.5 52 10.5 C 52.2 10.5 52.3 10.5 52.4 10.5 C 52.5 10.5 52.7 10.5 53 10.5 C 53.1 10.4 53.2 10.4 53.2 10.4 C 53.3 10.4 53.3 10.4 53.4 10.4 C 53.4 10.4 53.4 10.5 53.4 10.5 C 53.5 10.5 53.5 10.5 53.5 10.5 C 53.5 10.5 53.5 10.5 53.5 10.5 C 53.5 10.6 53.5 10.6 53.4 10.6 C 53.4 10.6 53.4 10.6 53.3 10.6 C 53.3 10.6 53.2 10.6 53.2 10.6 C 53.1 10.6 53 10.6 52.9 10.6 C 52.8 10.6 52.7 10.7 52.7 10.7 C 52.7 10.7 52.7 10.9 52.6 11.1 C 52.6 11.4 52.6 11.6 52.6 11.7 C 52.6 11.8 52.6 11.8 52.6 11.9 C 52.6 11.9 52.6 11.9 52.6 12 C 52.6 12 52.6 12 52.6 12 C 52.6 12.1 52.6 12.1 52.5 12.1 C 52.5 12.1 52.5 12.1 52.4 12 C 52.4 12 52.4 11.9 52.4 11.7 C 52.4 11.5 52.4 11.2 52.5 10.8 C 52.5 10.7 52.5 10.7 52.5 10.7 C 52.5 10.7 52.5 10.7 52.5 10.7 C 52.4 10.7 52.3 10.7 52.2 10.7 C 52.1 10.7 52 10.7 51.9 10.7 C 51.9 10.7 51.9 10.7 51.9 10.7 Z M 54.7 10.6 C 54.7 10.6 54.7 10.6 54.6 10.6 C 54.6 10.6 54.5 10.6 54.5 10.6 C 54.5 10.6 54.4 10.6 54.4 10.6 C 54.4 10.6 54.3 10.6 54.3 10.6 C 54.3 10.6 54.2 10.6 54.1 10.6 C 54 10.6 53.9 10.7 53.9 10.7 C 53.8 10.7 53.8 10.7 53.8 10.8 C 53.8 10.8 53.8 10.9 53.8 10.9 C 53.7 11.1 53.7 11.2 53.7 11.2 C 53.7 11.2 53.7 11.2 53.7 11.2 C 53.8 11.2 53.8 11.2 53.9 11.2 C 54.1 11.2 54.1 11.2 54.2 11.2 C 54.3 11.1 54.4 11.1 54.4 11.1 C 54.5 11.1 54.6 11.1 54.6 11.2 C 54.6 11.3 54.5 11.3 54.5 11.3 C 54.4 11.3 54.3 11.3 54.1 11.4 C 53.9 11.4 53.7 11.4 53.7 11.4 C 53.7 11.5 53.7 11.5 53.7 11.6 C 53.6 11.8 53.6 11.8 53.6 11.9 C 53.6 11.9 53.6 11.9 53.6 11.9 C 53.6 11.9 53.7 11.9 53.7 11.9 C 53.7 11.9 53.7 11.9 53.7 11.9 C 53.8 11.9 53.8 11.9 53.9 11.9 C 53.9 11.9 54.1 11.9 54.1 11.9 C 54.2 11.9 54.2 11.9 54.3 11.9 C 54.4 11.8 54.5 11.8 54.5 11.8 C 54.5 11.8 54.6 11.8 54.6 11.8 C 54.6 11.9 54.6 11.9 54.6 11.9 C 54.6 12 54.6 12 54.6 12 C 54.5 12 54.4 12 54.3 12 C 54.2 12 54 12.1 53.8 12.1 C 53.7 12.1 53.6 12.1 53.6 12.1 C 53.5 12.1 53.5 12.1 53.4 12.1 C 53.4 12.1 53.4 12.1 53.4 12 C 53.41 12 53.4 12 53.4 12 C 53.4 12 53.4 11.96 53.4 12 C 53.4 11.9 53.4 11.9 53.4 11.9 C 53.4 11.8 53.5 11.7 53.5 11.6 C 53.5 11.4 53.5 11.3 53.5 11.2 C 53.5 11.2 53.5 11.2 53.6 11.1 C 53.6 10.9 53.6 10.8 53.6 10.7 C 53.6 10.7 53.6 10.7 53.6 10.7 C 53.6 10.7 53.6 10.6 53.6 10.6 C 53.6 10.6 53.6 10.6 53.6 10.6 C 53.6 10.6 53.6 10.6 53.6 10.6 C 53.6 10.6 53.6 10.6 53.6 10.6 C 53.6 10.5 53.6 10.5 53.6 10.5 C 53.6 10.5 53.6 10.5 53.6 10.5 C 53.6 10.5 53.6 10.5 53.6 10.5 C 53.7 10.5 53.7 10.5 53.7 10.5 C 53.7 10.5 53.8 10.5 53.8 10.5 C 53.8 10.5 53.9 10.5 54 10.5 C 54.2 10.5 54.3 10.4 54.5 10.4 C 54.6 10.4 54.6 10.4 54.6 10.4 C 54.6 10.4 54.6 10.4 54.6 10.4 C 54.6 10.4 54.7 10.4 54.7 10.4 C 54.7 10.4 54.7 10.5 54.8 10.5 C 54.8 10.5 54.7 10.5 54.7 10.6 C 54.7 10.6 54.7 10.6 54.7 10.6 Z M 56.5 10.8 C 56.5 10.7 56.5 10.7 56.5 10.7 C 56.5 10.8 56.3 10.9 56.2 11.2 C 56 11.4 55.9 11.5 55.9 11.6 C 55.8 11.6 55.8 11.7 55.7 11.7 C 55.7 11.7 55.7 11.6 55.6 11.6 C 55.6 11.5 55.6 11.4 55.5 11.3 C 55.4 11 55.4 10.9 55.3 10.8 C 55.3 10.8 55.3 10.9 55.3 10.9 C 55.3 11.1 55.2 11.2 55.2 11.4 C 55.1 11.7 55.1 11.9 55.1 12 C 55.1 12.1 55.1 12.1 55 12.1 C 55 12.1 55 12.1 55 12.1 C 55 12.1 54.9 12.1 54.9 12.1 C 54.9 12 54.9 12 54.9 12 C 54.9 11.9 54.9 11.8 54.9 11.7 C 54.9 11.7 55 11.3 55 11.3 C 55.1 11.1 55.1 10.9 55.1 10.8 C 55.2 10.7 55.2 10.6 55.2 10.5 C 55.2 10.5 55.2 10.4 55.3 10.4 C 55.3 10.4 55.4 10.4 55.4 10.5 C 55.4 10.5 55.4 10.5 55.4 10.6 C 55.4 10.6 55.5 10.6 55.5 10.7 C 55.5 10.7 55.6 11.1 55.6 11.1 C 55.7 11.3 55.7 11.4 55.7 11.4 C 55.7 11.4 55.8 11.4 55.8 11.4 C 55.8 11.4 55.9 11.2 56.2 10.9 C 56.4 10.6 56.6 10.4 56.6 10.4 C 56.6 10.4 56.7 10.4 56.7 10.4 C 56.7 10.4 56.8 10.5 56.8 10.5 C 56.8 10.5 56.7 10.7 56.7 11 C 56.7 11.1 56.7 11.2 56.7 11.4 C 56.6 11.6 56.6 11.7 56.6 11.7 C 56.6 11.7 56.6 11.8 56.7 11.8 C 56.7 11.9 56.7 11.9 56.7 11.9 C 56.7 11.9 56.7 12 56.7 12 C 56.7 12 56.6 12.1 56.6 12.1 C 56.6 12.1 56.6 12.1 56.6 12.1 C 56.5 12.1 56.4 12 56.4 11.9 C 56.4 11.8 56.5 11.5 56.5 11 C 56.5 11 56.5 10.9 56.5 10.9 C 56.5 10.9 56.5 10.9 56.5 10.9 C 56.5 10.8 56.5 10.8 56.5 10.8 C 56.5 10.8 56.5 10.8 56.5 10.8 Z M 57.8 10.4 C 57.9 10.4 57.9 10.4 58 10.4 C 58 10.4 58 10.5 58 10.5 C 58 10.5 58 10.5 58 10.6 C 58 10.6 58 10.6 58 10.6 C 58 10.7 58 10.8 58 10.8 C 58.1 10.9 58.1 11 58.1 11.1 C 58.2 11.3 58.3 11.4 58.3 11.6 C 58.4 11.7 58.5 11.8 58.5 11.9 C 58.6 11.9 58.6 12 58.6 12 C 58.6 12 58.6 12 58.6 12 C 58.6 12 58.6 12.1 58.6 12.1 C 58.6 12.1 58.5 12.1 58.5 12.1 C 58.4 12.1 58.3 12 58.2 11.7 C 58.1 11.6 58.1 11.5 58.1 11.5 C 58 11.5 57.9 11.5 57.8 11.5 C 57.7 11.6 57.6 11.6 57.5 11.6 C 57.5 11.6 57.4 11.6 57.4 11.6 C 57.4 11.6 57.4 11.6 57.3 11.6 C 57.3 11.6 57.3 11.6 57.3 11.6 C 57.3 11.6 57.3 11.7 57.2 11.8 C 57.1 11.9 57.1 12 57.1 12 C 57 12.1 57 12.1 57 12.1 C 57 12.1 56.9 12.1 56.9 12 C 56.9 12 56.9 12 56.9 12 C 56.9 12 56.9 11.9 56.9 11.9 C 56.9 11.8 57 11.8 57.1 11.6 C 57.2 11.4 57.3 11.2 57.4 11 C 57.6 10.7 57.7 10.5 57.7 10.5 C 57.8 10.4 57.8 10.4 57.8 10.4 C 57.8 10.4 57.8 10.4 57.8 10.4 Z M 57.7 11.4 C 57.9 11.4 58 11.3 58 11.3 C 58 11.3 58 11.2 57.9 11 C 57.9 10.8 57.8 10.7 57.8 10.7 C 57.8 10.8 57.7 10.9 57.6 11.1 C 57.6 11.1 57.4 11.4 57.4 11.4 C 57.4 11.4 57.5 11.4 57.5 11.4 C 57.6 11.4 57.6 11.4 57.7 11.4 C 57.7 11.4 57.7 11.4 57.7 11.4 Z " stroke="none" fill="#000"/>  </g>  <g id="Polygon12734">    <path d="M 12.8 8.9 C 12.7 8.9 12.6 8.9 12.5 8.7 C 12.4 8.6 12.4 8.5 12.4 8.4 C 12.4 8.2 12.4 8 12.5 7.8 C 12.6 7.7 12.7 7.5 12.9 7.4 C 13 7.3 13.2 7.2 13.3 7.2 C 13.5 7.2 13.6 7.2 13.6 7.2 C 13.7 7.3 13.8 7.3 13.9 7.4 C 13.9 7.4 14 7.5 14 7.5 C 14 7.6 14 7.7 14 7.8 C 14 7.9 14 8 13.9 8.2 C 13.9 8.3 13.8 8.4 13.6 8.5 C 13.5 8.7 13.4 8.8 13.3 8.8 C 13.2 8.9 13 8.9 12.8 8.9 Z M 12.6 8.4 C 12.6 8.5 12.6 8.5 12.7 8.6 C 12.8 8.7 12.8 8.7 12.9 8.7 C 13.1 8.7 13.3 8.6 13.5 8.4 C 13.7 8.2 13.8 8 13.8 7.8 C 13.8 7.7 13.8 7.6 13.8 7.5 C 13.7 7.5 13.7 7.4 13.6 7.4 C 13.5 7.4 13.4 7.4 13.3 7.4 C 13.2 7.4 13 7.5 12.8 7.7 C 12.7 7.9 12.6 8.1 12.6 8.4 Z M 15.2 7.5 C 15.2 7.5 15.2 7.5 15.2 7.4 C 15.2 7.3 15.3 7.3 15.5 7.2 C 15.7 7.2 15.9 7.2 16 7.2 C 16.2 7.2 16.3 7.2 16.4 7.3 C 16.5 7.3 16.5 7.4 16.5 7.5 C 16.5 7.7 16.4 7.9 16.3 8 C 16.1 8.1 15.8 8.2 15.5 8.3 C 15.4 8.3 15.4 8.3 15.4 8.3 C 15.4 8.3 15.4 8.4 15.4 8.5 C 15.4 8.6 15.4 8.7 15.4 8.8 C 15.4 8.8 15.3 8.8 15.3 8.9 C 15.3 8.9 15.3 8.9 15.2 8.9 C 15.2 8.9 15.1 8.9 15.1 8.8 C 15.1 8.7 15.2 8.6 15.2 8.4 C 15.2 8.4 15.3 7.7 15.3 7.7 C 15.3 7.7 15.3 7.7 15.3 7.6 C 15.3 7.6 15.3 7.5 15.2 7.5 Z M 16 7.3 C 15.8 7.3 15.7 7.4 15.5 7.4 C 15.5 7.5 15.5 7.5 15.5 7.6 C 15.5 7.7 15.4 7.8 15.4 7.9 C 15.4 8 15.4 8 15.4 8.1 C 15.6 8.1 15.9 8 16.1 7.9 C 16.2 7.8 16.3 7.7 16.3 7.6 C 16.3 7.4 16.2 7.3 16 7.3 C 16 7.3 16 7.3 16 7.3 Z M 17 7.3 C 17.2 7.2 17.4 7.2 17.5 7.2 C 17.6 7.2 17.7 7.2 17.8 7.3 C 17.9 7.4 18 7.5 18 7.6 C 18 7.7 17.9 7.8 17.8 7.9 C 17.7 8 17.6 8.1 17.5 8.1 C 17.4 8.2 17.4 8.2 17.4 8.2 C 17.4 8.2 17.5 8.2 17.7 8.4 C 17.8 8.5 18 8.6 18.1 8.7 C 18.1 8.7 18.1 8.7 18.1 8.8 C 18.1 8.8 18.1 8.8 18.1 8.8 C 18.1 8.8 18.1 8.9 18 8.9 C 18 8.9 17.9 8.8 17.8 8.7 C 17.7 8.7 17.6 8.6 17.5 8.5 C 17.3 8.3 17.2 8.2 17.1 8.2 C 17.1 8.2 17.1 8.2 17 8.2 C 17 8.2 17 8.2 17 8.1 C 17 8.1 17 8.1 17 8.1 C 17.1 8 17.1 8 17.1 8 C 17.2 8 17.2 8 17.2 8 C 17.2 8 17.3 8 17.3 8 C 17.3 8 17.4 8 17.6 7.9 C 17.7 7.8 17.8 7.7 17.8 7.6 C 17.8 7.5 17.8 7.5 17.7 7.4 C 17.6 7.4 17.5 7.4 17.4 7.4 C 17.4 7.4 17.3 7.4 17.2 7.4 C 17.1 7.4 17.1 7.4 17.1 7.4 C 17.1 7.4 17 7.4 17 7.5 C 17 7.5 17 7.6 17 7.8 C 16.9 7.9 16.9 8.1 16.9 8.2 C 16.9 8.4 16.9 8.5 16.9 8.6 C 16.9 8.6 16.9 8.7 16.9 8.7 C 16.9 8.7 16.9 8.8 16.9 8.8 C 16.9 8.8 16.9 8.8 16.9 8.9 C 16.8 8.9 16.8 8.9 16.8 8.9 C 16.7 8.9 16.7 8.8 16.7 8.7 C 16.7 8.4 16.7 8 16.8 7.5 C 16.8 7.5 16.8 7.5 16.8 7.5 C 16.8 7.5 16.8 7.5 16.8 7.4 C 16.8 7.4 16.8 7.4 16.8 7.3 C 16.8 7.3 16.8 7.3 16.8 7.3 C 16.8 7.3 16.9 7.2 16.9 7.2 C 16.9 7.2 17 7.3 17 7.3 Z M 18.7 8.9 C 18.6 8.9 18.5 8.9 18.4 8.7 C 18.3 8.6 18.2 8.5 18.2 8.4 C 18.2 8.2 18.3 8 18.4 7.8 C 18.5 7.7 18.6 7.5 18.7 7.4 C 18.9 7.3 19 7.2 19.2 7.2 C 19.3 7.2 19.4 7.2 19.5 7.2 C 19.6 7.3 19.7 7.3 19.7 7.4 C 19.8 7.4 19.8 7.5 19.9 7.5 C 19.9 7.6 19.9 7.7 19.9 7.8 C 19.9 7.9 19.9 8 19.8 8.2 C 19.7 8.3 19.6 8.4 19.5 8.5 C 19.4 8.7 19.3 8.8 19.1 8.8 C 19 8.9 18.9 8.9 18.7 8.9 Z M 18.4 8.4 C 18.4 8.5 18.5 8.5 18.5 8.6 C 18.6 8.7 18.7 8.7 18.8 8.7 C 19 8.7 19.2 8.6 19.4 8.4 C 19.6 8.2 19.7 8 19.7 7.8 C 19.7 7.7 19.7 7.6 19.6 7.5 C 19.6 7.5 19.5 7.4 19.5 7.4 C 19.4 7.4 19.3 7.4 19.2 7.4 C 19 7.4 18.9 7.5 18.7 7.7 C 18.5 7.9 18.4 8.1 18.4 8.4 Z M 21.1 7.9 C 21.1 7.9 21.1 7.9 21.2 7.9 C 21.2 8 21.3 8 21.4 8.1 C 21.4 8.1 21.5 8.2 21.5 8.3 C 21.5 8.5 21.4 8.6 21.2 8.7 C 21 8.9 20.8 9 20.6 9 C 20.6 9 20.5 9 20.5 8.9 C 20.5 8.9 20.4 8.9 20.4 8.9 C 20.4 8.8 20.5 8.8 20.6 8.8 C 20.7 8.8 20.7 8.8 20.7 8.8 C 20.8 8.8 20.8 8.8 20.9 8.7 C 20.9 8.7 21 8.7 21 8.7 C 21.1 8.6 21.1 8.6 21.1 8.6 C 21.2 8.5 21.2 8.5 21.2 8.4 C 21.2 8.4 21.3 8.4 21.3 8.3 C 21.3 8.3 21.2 8.2 21.2 8.2 C 21.1 8.1 21 8.1 20.9 8.1 C 20.9 8.1 20.9 8.1 20.8 8.1 C 20.8 8.1 20.7 8.2 20.7 8.2 C 20.7 8.2 20.6 8.1 20.6 8.1 C 20.6 8.1 20.6 8.1 20.6 8 C 20.6 8 20.7 8 20.8 7.9 C 20.9 7.9 21 7.8 21.1 7.7 C 21.2 7.6 21.2 7.6 21.2 7.5 C 21.2 7.4 21.2 7.4 21.2 7.4 C 21.1 7.4 21.1 7.3 21 7.3 C 20.9 7.3 20.8 7.4 20.7 7.4 C 20.6 7.4 20.5 7.4 20.5 7.5 C 20.5 7.5 20.5 7.7 20.4 8 C 20.4 8.3 20.4 8.5 20.4 8.6 C 20.4 8.6 20.4 8.7 20.4 8.7 C 20.4 8.8 20.4 8.8 20.3 8.9 C 20.3 8.9 20.3 8.9 20.2 8.9 C 20.2 8.9 20.2 8.9 20.1 8.9 C 20.1 8.8 20.1 8.8 20.1 8.7 C 20.1 8.7 20.1 8.7 20.1 8.7 C 20.2 8.5 20.2 8.3 20.2 8.1 C 20.3 7.8 20.3 7.7 20.3 7.6 C 20.3 7.6 20.3 7.6 20.3 7.6 C 20.3 7.5 20.2 7.5 20.2 7.5 C 20.2 7.5 20.2 7.5 20.2 7.5 C 20.2 7.5 20.2 7.5 20.1 7.5 C 20.1 7.5 20.1 7.5 20.1 7.5 C 20.1 7.4 20.2 7.3 20.4 7.3 C 20.7 7.2 20.9 7.2 21.1 7.2 C 21.2 7.2 21.3 7.2 21.4 7.3 C 21.4 7.3 21.5 7.4 21.5 7.5 C 21.5 7.5 21.4 7.6 21.4 7.7 C 21.3 7.8 21.2 7.8 21.1 7.9 Z M 21.7 8.7 C 21.7 8.6 21.8 8.5 21.8 8.5 C 21.8 8.5 21.8 8.4 21.8 8.2 C 21.8 8.1 21.8 7.9 21.9 7.7 C 21.9 7.4 21.9 7.3 21.9 7.3 C 21.9 7.3 21.9 7.2 21.9 7.2 C 21.9 7.2 22 7.2 22 7.2 C 22 7.2 22.1 7.2 22.1 7.2 C 22.1 7.3 22.1 7.3 22.1 7.3 C 22.1 7.3 22.1 7.4 22.1 7.5 C 22.1 7.6 22 7.8 22 8.1 C 22 8.4 22 8.5 22 8.6 C 22 8.6 22 8.6 22 8.6 C 22 8.6 22 8.6 22 8.6 C 22 8.6 22.1 8.6 22.3 8.6 C 22.3 8.6 22.5 8.6 22.7 8.6 C 22.8 8.6 22.8 8.6 22.9 8.5 C 22.9 8.5 22.9 8.5 22.9 8.5 C 22.9 8.5 22.9 8.6 23 8.6 C 23 8.6 23 8.6 23 8.6 C 23 8.7 23 8.7 22.9 8.7 C 22.9 8.8 22.9 8.8 22.8 8.8 C 22.8 8.8 22.8 8.8 22.7 8.8 C 22.7 8.8 22.6 8.8 22.6 8.8 C 22.4 8.8 22.1 8.8 21.9 8.9 C 21.9 8.9 21.8 8.9 21.8 8.9 C 21.8 8.9 21.8 8.9 21.7 8.9 C 21.7 8.8 21.7 8.8 21.7 8.8 C 21.7 8.8 21.7 8.7 21.7 8.7 C 21.7 8.7 21.7 8.7 21.7 8.7 Z M 24.4 7.4 C 24.4 7.4 24.4 7.4 24.3 7.4 C 24.3 7.4 24.2 7.4 24.2 7.4 C 24.2 7.4 24.1 7.4 24.1 7.4 C 24.1 7.4 24.1 7.4 24 7.4 C 24 7.4 23.9 7.4 23.8 7.4 C 23.7 7.4 23.6 7.4 23.6 7.5 C 23.5 7.5 23.5 7.5 23.5 7.6 C 23.5 7.6 23.5 7.7 23.5 7.7 C 23.5 7.9 23.4 8 23.4 8 C 23.4 8 23.4 8 23.4 8 C 23.5 8 23.6 8 23.7 8 C 23.8 8 23.8 8 23.9 8 C 24 7.9 24.1 7.9 24.2 7.9 C 24.2 7.9 24.3 7.9 24.3 8 C 24.3 8 24.3 8.1 24.2 8.1 C 24.1 8.1 24 8.1 23.8 8.2 C 23.6 8.2 23.4 8.2 23.4 8.2 C 23.4 8.2 23.4 8.3 23.4 8.4 C 23.4 8.5 23.3 8.6 23.3 8.7 C 23.3 8.7 23.3 8.7 23.3 8.7 C 23.3 8.7 23.4 8.7 23.4 8.7 C 23.4 8.7 23.4 8.7 23.4 8.7 C 23.5 8.7 23.5 8.7 23.6 8.7 C 23.6 8.7 23.8 8.7 23.8 8.7 C 23.9 8.7 24 8.7 24 8.6 C 24.1 8.6 24.2 8.6 24.2 8.6 C 24.3 8.6 24.3 8.6 24.3 8.6 C 24.3 8.7 24.3 8.7 24.3 8.7 C 24.3 8.8 24.3 8.8 24.3 8.8 C 24.2 8.8 24.1 8.8 24 8.8 C 23.9 8.8 23.8 8.9 23.5 8.9 C 23.4 8.9 23.4 8.9 23.3 8.9 C 23.2 8.9 23.2 8.9 23.2 8.9 C 23.1 8.9 23.1 8.8 23.1 8.8 C 23.12 8.79 23.1 8.8 23.1 8.8 C 23.1 8.8 23.11 8.75 23.1 8.8 C 23.1 8.7 23.1 8.7 23.1 8.7 C 23.2 8.6 23.2 8.5 23.2 8.4 C 23.2 8.2 23.2 8.1 23.2 8 C 23.3 8 23.3 8 23.3 7.9 C 23.3 7.7 23.3 7.6 23.3 7.5 C 23.3 7.5 23.3 7.5 23.3 7.5 C 23.3 7.4 23.3 7.4 23.3 7.4 C 23.3 7.4 23.3 7.4 23.3 7.4 C 23.3 7.4 23.3 7.4 23.3 7.4 C 23.3 7.4 23.3 7.3 23.3 7.3 C 23.3 7.3 23.3 7.3 23.3 7.3 C 23.3 7.3 23.3 7.3 23.4 7.3 C 23.4 7.3 23.4 7.3 23.4 7.3 C 23.4 7.3 23.4 7.3 23.5 7.3 C 23.5 7.3 23.5 7.3 23.5 7.3 C 23.5 7.3 23.6 7.3 23.7 7.3 C 23.9 7.3 24 7.2 24.2 7.2 C 24.3 7.2 24.3 7.2 24.3 7.2 C 24.3 7.2 24.3 7.2 24.3 7.2 C 24.4 7.2 24.4 7.2 24.4 7.2 C 24.4 7.2 24.5 7.3 24.5 7.3 C 24.5 7.3 24.5 7.3 24.4 7.4 C 24.4 7.4 24.4 7.4 24.4 7.4 Z M 26.3 7.6 C 26.3 7.5 26.3 7.5 26.2 7.5 C 26.2 7.6 26.1 7.7 25.9 8 C 25.8 8.2 25.6 8.3 25.6 8.4 C 25.5 8.4 25.5 8.4 25.4 8.4 C 25.4 8.4 25.4 8.4 25.3 8.4 C 25.3 8.3 25.3 8.2 25.2 8.1 C 25.1 7.8 25.1 7.7 25 7.6 C 25 7.6 25 7.7 25 7.7 C 25 7.9 25 8 24.9 8.2 C 24.8 8.5 24.8 8.7 24.8 8.8 C 24.8 8.9 24.8 8.9 24.8 8.9 C 24.7 8.9 24.7 8.9 24.7 8.9 C 24.7 8.9 24.6 8.9 24.6 8.9 C 24.6 8.8 24.6 8.8 24.6 8.8 C 24.6 8.7 24.6 8.6 24.7 8.4 C 24.7 8.4 24.7 8.1 24.7 8.1 C 24.8 7.8 24.8 7.7 24.9 7.6 C 24.9 7.5 24.9 7.4 24.9 7.3 C 24.9 7.2 24.9 7.2 25 7.2 C 25.1 7.2 25.1 7.2 25.1 7.3 C 25.1 7.3 25.1 7.3 25.1 7.4 C 25.2 7.4 25.2 7.4 25.2 7.5 C 25.2 7.5 25.3 7.9 25.3 7.9 C 25.4 8.1 25.4 8.2 25.4 8.2 C 25.5 8.2 25.5 8.2 25.5 8.2 C 25.5 8.2 25.6 8 25.9 7.7 C 26.1 7.4 26.3 7.2 26.3 7.2 C 26.4 7.2 26.4 7.2 26.4 7.2 C 26.5 7.2 26.5 7.3 26.5 7.3 C 26.5 7.3 26.5 7.5 26.4 7.8 C 26.4 7.9 26.4 8 26.4 8.2 C 26.4 8.4 26.3 8.5 26.3 8.5 C 26.3 8.5 26.4 8.6 26.4 8.6 C 26.4 8.6 26.4 8.7 26.4 8.7 C 26.4 8.7 26.4 8.8 26.4 8.8 C 26.4 8.8 26.3 8.9 26.3 8.9 C 26.3 8.9 26.3 8.9 26.3 8.9 C 26.2 8.9 26.1 8.8 26.1 8.7 C 26.1 8.6 26.2 8.3 26.2 7.8 C 26.2 7.8 26.2 7.7 26.2 7.7 C 26.2 7.7 26.2 7.7 26.2 7.7 C 26.2 7.6 26.3 7.6 26.3 7.6 C 26.3 7.6 26.3 7.6 26.3 7.6 Z M 27.6 7.2 C 27.6 7.2 27.6 7.2 27.7 7.2 C 27.7 7.2 27.7 7.3 27.7 7.3 C 27.7 7.3 27.7 7.3 27.7 7.4 C 27.7 7.4 27.7 7.4 27.7 7.4 C 27.7 7.5 27.7 7.6 27.8 7.6 C 27.8 7.7 27.8 7.8 27.8 7.9 C 27.9 8.1 28 8.2 28 8.4 C 28.1 8.5 28.2 8.6 28.2 8.7 C 28.3 8.7 28.3 8.7 28.3 8.8 C 28.3 8.8 28.3 8.8 28.3 8.8 C 28.3 8.8 28.3 8.9 28.3 8.9 C 28.3 8.9 28.2 8.9 28.2 8.9 C 28.1 8.9 28 8.8 27.9 8.5 C 27.8 8.4 27.8 8.3 27.8 8.3 C 27.7 8.3 27.7 8.3 27.5 8.3 C 27.4 8.4 27.3 8.4 27.2 8.4 C 27.2 8.4 27.1 8.4 27.1 8.4 C 27.1 8.4 27.1 8.4 27.1 8.4 C 27.1 8.4 27 8.4 27 8.4 C 27 8.4 27 8.4 26.9 8.5 C 26.8 8.7 26.8 8.8 26.8 8.8 C 26.7 8.9 26.7 8.9 26.7 8.9 C 26.7 8.9 26.6 8.9 26.6 8.8 C 26.6 8.8 26.6 8.8 26.6 8.8 C 26.6 8.7 26.6 8.7 26.6 8.7 C 26.6 8.6 26.7 8.6 26.8 8.4 C 26.9 8.2 27.1 8 27.2 7.8 C 27.3 7.5 27.4 7.3 27.5 7.3 C 27.5 7.2 27.5 7.2 27.6 7.2 C 27.6 7.2 27.6 7.2 27.6 7.2 Z M 27.4 8.2 C 27.6 8.1 27.7 8.1 27.7 8.1 C 27.7 8.1 27.7 8 27.6 7.8 C 27.6 7.6 27.5 7.5 27.5 7.5 C 27.5 7.6 27.4 7.7 27.3 7.9 C 27.3 7.9 27.1 8.2 27.1 8.2 C 27.1 8.2 27.2 8.2 27.2 8.2 C 27.3 8.2 27.3 8.2 27.4 8.2 C 27.4 8.2 27.4 8.2 27.4 8.2 Z M 29.7 7.3 C 29.9 7.2 30.1 7.2 30.2 7.2 C 30.3 7.2 30.4 7.2 30.5 7.3 C 30.6 7.4 30.7 7.5 30.7 7.6 C 30.7 7.7 30.6 7.8 30.5 7.9 C 30.4 8 30.3 8.1 30.2 8.1 C 30.1 8.2 30.1 8.2 30.1 8.2 C 30.1 8.2 30.2 8.2 30.4 8.4 C 30.5 8.5 30.7 8.6 30.8 8.7 C 30.8 8.7 30.8 8.7 30.8 8.8 C 30.8 8.8 30.8 8.8 30.8 8.8 C 30.8 8.8 30.8 8.9 30.7 8.9 C 30.7 8.9 30.6 8.8 30.5 8.7 C 30.4 8.7 30.3 8.6 30.2 8.5 C 30 8.3 29.9 8.2 29.8 8.2 C 29.8 8.2 29.8 8.2 29.7 8.2 C 29.7 8.2 29.7 8.2 29.7 8.1 C 29.7 8.1 29.7 8.1 29.7 8.1 C 29.8 8 29.8 8 29.8 8 C 29.9 8 29.9 8 29.9 8 C 29.9 8 29.9 8 30 8 C 30 8 30.1 8 30.3 7.9 C 30.4 7.8 30.5 7.7 30.5 7.6 C 30.5 7.5 30.5 7.5 30.4 7.4 C 30.3 7.4 30.2 7.4 30.1 7.4 C 30.1 7.4 30 7.4 29.9 7.4 C 29.8 7.4 29.8 7.4 29.8 7.4 C 29.8 7.4 29.7 7.4 29.7 7.5 C 29.7 7.5 29.7 7.6 29.7 7.8 C 29.6 7.9 29.6 8.1 29.6 8.2 C 29.6 8.4 29.6 8.5 29.6 8.6 C 29.6 8.6 29.6 8.7 29.6 8.7 C 29.6 8.7 29.6 8.8 29.6 8.8 C 29.6 8.8 29.6 8.8 29.6 8.9 C 29.5 8.9 29.5 8.9 29.5 8.9 C 29.4 8.9 29.4 8.8 29.4 8.7 C 29.4 8.4 29.4 8 29.5 7.5 C 29.5 7.5 29.5 7.5 29.5 7.5 C 29.5 7.5 29.5 7.5 29.5 7.4 C 29.5 7.4 29.5 7.4 29.5 7.3 C 29.5 7.3 29.5 7.3 29.5 7.3 C 29.5 7.3 29.6 7.2 29.6 7.2 C 29.6 7.2 29.7 7.3 29.7 7.3 Z M 31.8 7.2 C 31.8 7.2 31.9 7.2 31.9 7.2 C 31.9 7.2 31.9 7.3 31.9 7.3 C 31.9 7.3 31.9 7.3 31.9 7.4 C 31.9 7.4 31.9 7.4 31.9 7.4 C 31.9 7.5 32 7.6 32 7.6 C 32 7.7 32 7.8 32.1 7.9 C 32.1 8.1 32.2 8.2 32.3 8.4 C 32.3 8.5 32.4 8.6 32.5 8.7 C 32.5 8.7 32.5 8.7 32.5 8.8 C 32.6 8.8 32.6 8.8 32.6 8.8 C 32.6 8.8 32.5 8.9 32.5 8.9 C 32.5 8.9 32.5 8.9 32.4 8.9 C 32.4 8.9 32.2 8.8 32.1 8.5 C 32 8.4 32 8.3 32 8.3 C 32 8.3 31.9 8.3 31.8 8.3 C 31.7 8.4 31.5 8.4 31.4 8.4 C 31.4 8.4 31.4 8.4 31.3 8.4 C 31.3 8.4 31.3 8.4 31.3 8.4 C 31.3 8.4 31.3 8.4 31.3 8.4 C 31.3 8.4 31.2 8.4 31.2 8.5 C 31.1 8.7 31 8.8 31 8.8 C 31 8.9 30.9 8.9 30.9 8.9 C 30.9 8.9 30.9 8.9 30.8 8.8 C 30.8 8.8 30.8 8.8 30.8 8.8 C 30.8 8.7 30.8 8.7 30.8 8.7 C 30.9 8.6 30.9 8.6 31 8.4 C 31.2 8.2 31.3 8 31.4 7.8 C 31.5 7.5 31.6 7.3 31.7 7.3 C 31.7 7.2 31.8 7.2 31.8 7.2 C 31.8 7.2 31.8 7.2 31.8 7.2 Z M 31.6 8.2 C 31.8 8.1 31.9 8.1 32 8.1 C 31.9 8.1 31.9 8 31.8 7.8 C 31.8 7.6 31.8 7.5 31.7 7.5 C 31.7 7.6 31.6 7.7 31.6 7.9 C 31.6 7.9 31.4 8.2 31.4 8.2 C 31.4 8.2 31.4 8.2 31.5 8.2 C 31.5 8.2 31.6 8.2 31.6 8.2 C 31.6 8.2 31.6 8.2 31.6 8.2 Z M 33.1 7.4 C 33.1 7.4 33.1 7.5 33.1 7.7 C 33.1 7.7 33 7.8 33 7.9 C 33 7.9 33 8 33 8 C 33 8.2 33 8.3 33 8.4 C 33 8.5 33 8.6 33 8.7 C 33 8.8 33 8.8 33 8.8 C 32.9 8.9 32.9 8.9 32.9 8.9 C 32.8 8.9 32.8 8.8 32.8 8.8 C 32.8 8.8 32.8 8.7 32.8 8.6 C 32.8 8.5 32.8 8.3 32.8 8.1 C 32.8 8.1 32.8 8 32.8 8 C 32.8 8 32.8 8 32.8 7.9 C 32.8 7.9 32.8 7.9 32.8 7.9 C 32.8 7.8 32.9 7.7 32.9 7.6 C 32.9 7.5 32.9 7.4 32.9 7.4 C 32.9 7.3 32.9 7.3 32.9 7.3 C 32.9 7.3 33 7.2 33 7.2 C 33 7.2 33 7.2 33.1 7.2 C 33.1 7.2 33.1 7.2 33.1 7.2 C 33.1 7.3 33.1 7.3 33.1 7.4 Z M 34.9 7.3 C 34.9 7.3 34.9 7.3 34.9 7.4 C 34.9 7.4 34.9 7.4 34.8 7.4 C 34.8 7.4 34.8 7.4 34.8 7.5 C 34.7 7.5 34.7 7.5 34.7 7.6 C 34.7 7.6 34.5 7.7 34.5 7.7 C 34.4 7.9 34.2 8.1 34.1 8.2 C 34.1 8.2 34.1 8.2 34 8.3 C 34 8.3 33.7 8.6 33.7 8.6 C 33.7 8.6 33.7 8.6 33.7 8.6 C 33.8 8.6 34 8.6 34.2 8.6 C 34.2 8.6 34.3 8.6 34.3 8.6 C 34.4 8.6 34.4 8.6 34.4 8.6 C 34.5 8.6 34.5 8.6 34.5 8.6 C 34.7 8.6 34.8 8.6 34.8 8.7 C 34.8 8.8 34.8 8.8 34.7 8.8 C 34.7 8.8 34.7 8.8 34.7 8.8 C 34.6 8.8 34.5 8.8 34.4 8.8 C 34.3 8.8 34.2 8.8 33.9 8.8 C 33.9 8.8 33.8 8.8 33.8 8.8 C 33.7 8.8 33.6 8.8 33.5 8.9 C 33.4 8.9 33.4 8.9 33.3 8.9 C 33.3 8.9 33.3 8.9 33.3 8.8 C 33.3 8.7 33.3 8.7 33.3 8.7 C 33.5 8.6 33.7 8.4 34 8.1 C 34.3 7.8 34.5 7.6 34.6 7.4 C 34.6 7.4 34.5 7.4 34.5 7.4 C 34.5 7.4 34.4 7.4 34.2 7.5 C 34.1 7.5 34.1 7.5 34.1 7.5 C 34 7.5 34 7.5 34 7.5 C 33.9 7.5 33.8 7.5 33.7 7.5 C 33.6 7.5 33.6 7.5 33.5 7.5 C 33.5 7.4 33.5 7.4 33.5 7.4 C 33.5 7.4 33.5 7.3 33.5 7.3 C 33.5 7.3 33.5 7.3 33.6 7.3 C 33.6 7.3 33.6 7.3 33.6 7.3 C 33.6 7.3 33.7 7.3 33.7 7.3 C 33.7 7.3 33.8 7.3 33.9 7.3 C 33.9 7.3 34 7.3 34.1 7.3 C 34.2 7.3 34.3 7.3 34.4 7.3 C 34.5 7.3 34.6 7.3 34.7 7.2 C 34.8 7.2 34.8 7.2 34.9 7.2 C 34.9 7.2 34.9 7.2 34.9 7.3 C 34.9 7.3 34.9 7.3 34.9 7.3 Z M 36.2 7.6 C 36.2 7.6 36.2 7.5 36.2 7.5 C 36.2 7.5 36.2 7.4 36.1 7.4 C 36.1 7.4 36 7.4 36 7.3 C 36 7.3 36 7.3 36.1 7.3 C 36.1 7.2 36.1 7.2 36.1 7.2 C 36.1 7.2 36.3 7.2 36.3 7.2 C 36.4 7.2 36.5 7.2 36.6 7.2 C 36.7 7.2 36.8 7.2 36.9 7.2 C 37.1 7.2 37.2 7.3 37.4 7.4 C 37.5 7.5 37.5 7.6 37.5 7.8 C 37.5 8 37.5 8.2 37.3 8.4 C 37.1 8.6 36.8 8.7 36.5 8.8 C 36.4 8.8 36.3 8.8 36.2 8.9 C 36.2 8.9 36.1 8.9 36.1 8.9 C 36.1 8.9 36 8.9 36 8.9 C 36 8.9 36 8.8 36 8.8 C 36 8.8 36 8.8 36 8.8 C 36 8.7 36 8.7 36 8.7 C 36 8.6 36.1 8.6 36.1 8.5 C 36.1 8.4 36.1 8.2 36.1 8 C 36.1 7.9 36.1 7.7 36.2 7.6 C 36.2 7.6 36.2 7.6 36.2 7.6 Z M 36.5 7.4 C 36.4 7.4 36.4 7.4 36.4 7.4 C 36.3 7.9 36.2 8.3 36.2 8.5 C 36.2 8.6 36.2 8.6 36.3 8.6 C 36.3 8.7 36.3 8.7 36.3 8.7 C 36.3 8.7 36.5 8.6 36.7 8.6 C 36.9 8.5 37 8.4 37.2 8.3 C 37.3 8.1 37.3 8 37.3 7.8 C 37.3 7.7 37.3 7.6 37.2 7.5 C 37.1 7.4 37 7.4 36.8 7.4 C 36.7 7.4 36.6 7.4 36.5 7.4 C 36.5 7.4 36.5 7.4 36.5 7.4 Z M 38.2 8.9 C 38 8.9 37.9 8.9 37.8 8.7 C 37.7 8.6 37.7 8.5 37.7 8.4 C 37.7 8.2 37.7 8 37.8 7.8 C 37.9 7.7 38.1 7.5 38.2 7.4 C 38.3 7.3 38.5 7.2 38.7 7.2 C 38.8 7.2 38.9 7.2 39 7.2 C 39 7.3 39.1 7.3 39.2 7.4 C 39.2 7.4 39.3 7.5 39.3 7.5 C 39.3 7.6 39.3 7.7 39.3 7.8 C 39.3 7.9 39.3 8 39.3 8.2 C 39.2 8.3 39.1 8.4 39 8.5 C 38.8 8.7 38.7 8.8 38.6 8.8 C 38.5 8.9 38.3 8.9 38.2 8.9 Z M 37.9 8.4 C 37.9 8.5 37.9 8.5 38 8.6 C 38.1 8.7 38.1 8.7 38.2 8.7 C 38.5 8.7 38.7 8.6 38.9 8.4 C 39 8.2 39.1 8 39.1 7.8 C 39.1 7.7 39.1 7.6 39.1 7.5 C 39.1 7.5 39 7.4 38.9 7.4 C 38.8 7.4 38.8 7.4 38.7 7.4 C 38.5 7.4 38.3 7.5 38.2 7.7 C 38 7.9 37.9 8.1 37.9 8.4 Z M 41.5 7.9 C 41.5 7.9 41.5 7.9 41.5 7.9 C 41.6 8 41.6 8 41.7 8.1 C 41.8 8.1 41.8 8.2 41.8 8.3 C 41.8 8.5 41.7 8.6 41.5 8.7 C 41.3 8.9 41.2 9 41 9 C 40.9 9 40.9 9 40.8 8.9 C 40.8 8.9 40.8 8.9 40.8 8.9 C 40.8 8.8 40.8 8.8 41 8.8 C 41 8.8 41 8.8 41.1 8.8 C 41.1 8.8 41.1 8.8 41.2 8.7 C 41.2 8.7 41.3 8.7 41.3 8.7 C 41.4 8.6 41.4 8.6 41.5 8.6 C 41.5 8.5 41.5 8.5 41.6 8.4 C 41.6 8.4 41.6 8.4 41.6 8.3 C 41.6 8.3 41.6 8.2 41.5 8.2 C 41.4 8.1 41.4 8.1 41.3 8.1 C 41.3 8.1 41.2 8.1 41.2 8.1 C 41.1 8.1 41.1 8.2 41.1 8.2 C 41 8.2 41 8.1 41 8.1 C 40.9 8.1 40.9 8.1 40.9 8 C 40.9 8 41 8 41.1 7.9 C 41.2 7.9 41.3 7.8 41.4 7.7 C 41.5 7.6 41.6 7.6 41.6 7.5 C 41.6 7.4 41.6 7.4 41.5 7.4 C 41.5 7.4 41.4 7.3 41.4 7.3 C 41.3 7.3 41.1 7.4 41 7.4 C 40.9 7.4 40.9 7.4 40.8 7.5 C 40.8 7.5 40.8 7.7 40.8 8 C 40.7 8.3 40.7 8.5 40.7 8.6 C 40.7 8.6 40.7 8.7 40.7 8.7 C 40.7 8.8 40.7 8.8 40.7 8.9 C 40.6 8.9 40.6 8.9 40.6 8.9 C 40.5 8.9 40.5 8.9 40.5 8.9 C 40.5 8.8 40.4 8.8 40.4 8.7 C 40.4 8.7 40.4 8.7 40.5 8.7 C 40.5 8.5 40.5 8.3 40.6 8.1 C 40.6 7.8 40.6 7.7 40.6 7.6 C 40.6 7.6 40.6 7.6 40.6 7.6 C 40.6 7.5 40.6 7.5 40.5 7.5 C 40.5 7.5 40.5 7.5 40.5 7.5 C 40.5 7.5 40.5 7.5 40.5 7.5 C 40.5 7.5 40.5 7.5 40.5 7.5 C 40.5 7.4 40.6 7.3 40.8 7.3 C 41 7.2 41.2 7.2 41.4 7.2 C 41.5 7.2 41.6 7.2 41.7 7.3 C 41.8 7.3 41.8 7.4 41.8 7.5 C 41.8 7.5 41.8 7.6 41.7 7.7 C 41.6 7.8 41.6 7.8 41.5 7.9 Z M 42.4 7.3 C 42.6 7.2 42.7 7.2 42.8 7.2 C 43 7.2 43.1 7.2 43.2 7.3 C 43.3 7.4 43.4 7.5 43.4 7.6 C 43.4 7.7 43.3 7.8 43.2 7.9 C 43.1 8 43 8.1 42.8 8.1 C 42.8 8.2 42.8 8.2 42.8 8.2 C 42.8 8.2 42.9 8.2 43 8.4 C 43.2 8.5 43.3 8.6 43.5 8.7 C 43.5 8.7 43.5 8.7 43.5 8.8 C 43.5 8.8 43.5 8.8 43.5 8.8 C 43.5 8.8 43.4 8.9 43.4 8.9 C 43.4 8.9 43.3 8.8 43.2 8.7 C 43.1 8.7 43 8.6 42.9 8.5 C 42.7 8.3 42.6 8.2 42.5 8.2 C 42.5 8.2 42.4 8.2 42.4 8.2 C 42.4 8.2 42.4 8.2 42.4 8.1 C 42.4 8.1 42.4 8.1 42.4 8.1 C 42.5 8 42.5 8 42.5 8 C 42.5 8 42.6 8 42.6 8 C 42.6 8 42.6 8 42.6 8 C 42.7 8 42.8 8 43 7.9 C 43.1 7.8 43.2 7.7 43.2 7.6 C 43.2 7.5 43.1 7.5 43.1 7.4 C 43 7.4 42.9 7.4 42.8 7.4 C 42.8 7.4 42.7 7.4 42.6 7.4 C 42.5 7.4 42.5 7.4 42.5 7.4 C 42.4 7.4 42.4 7.4 42.4 7.5 C 42.4 7.5 42.4 7.6 42.3 7.8 C 42.3 7.9 42.3 8.1 42.3 8.2 C 42.3 8.4 42.3 8.5 42.3 8.6 C 42.3 8.6 42.3 8.7 42.3 8.7 C 42.3 8.7 42.3 8.8 42.3 8.8 C 42.3 8.8 42.3 8.8 42.2 8.9 C 42.2 8.9 42.2 8.9 42.2 8.9 C 42.1 8.9 42 8.8 42 8.7 C 42 8.4 42.1 8 42.2 7.5 C 42.2 7.5 42.2 7.5 42.2 7.5 C 42.2 7.5 42.2 7.5 42.2 7.4 C 42.2 7.4 42.2 7.4 42.2 7.3 C 42.2 7.3 42.2 7.3 42.2 7.3 C 42.2 7.3 42.3 7.2 42.3 7.2 C 42.3 7.2 42.4 7.3 42.4 7.3 Z M 44.5 7.2 C 44.5 7.2 44.6 7.2 44.6 7.2 C 44.6 7.2 44.6 7.3 44.6 7.3 C 44.6 7.3 44.6 7.3 44.6 7.4 C 44.6 7.4 44.6 7.4 44.6 7.4 C 44.6 7.5 44.6 7.6 44.7 7.6 C 44.7 7.7 44.7 7.8 44.8 7.9 C 44.8 8.1 44.9 8.2 45 8.4 C 45 8.5 45.1 8.6 45.2 8.7 C 45.2 8.7 45.2 8.7 45.2 8.8 C 45.2 8.8 45.2 8.8 45.2 8.8 C 45.2 8.8 45.2 8.9 45.2 8.9 C 45.2 8.9 45.2 8.9 45.1 8.9 C 45 8.9 44.9 8.8 44.8 8.5 C 44.7 8.4 44.7 8.3 44.7 8.3 C 44.7 8.3 44.6 8.3 44.5 8.3 C 44.3 8.4 44.2 8.4 44.1 8.4 C 44.1 8.4 44 8.4 44 8.4 C 44 8.4 44 8.4 44 8.4 C 44 8.4 44 8.4 44 8.4 C 43.9 8.4 43.9 8.4 43.9 8.5 C 43.8 8.7 43.7 8.8 43.7 8.8 C 43.7 8.9 43.6 8.9 43.6 8.9 C 43.6 8.9 43.6 8.9 43.5 8.8 C 43.5 8.8 43.5 8.8 43.5 8.8 C 43.5 8.7 43.5 8.7 43.5 8.7 C 43.6 8.6 43.6 8.6 43.7 8.4 C 43.8 8.2 44 8 44.1 7.8 C 44.2 7.5 44.3 7.3 44.4 7.3 C 44.4 7.2 44.5 7.2 44.5 7.2 C 44.5 7.2 44.5 7.2 44.5 7.2 Z M 44.3 8.2 C 44.5 8.1 44.6 8.1 44.7 8.1 C 44.6 8.1 44.6 8 44.5 7.8 C 44.5 7.6 44.4 7.5 44.4 7.5 C 44.4 7.6 44.3 7.7 44.2 7.9 C 44.2 7.9 44 8.2 44 8.2 C 44.1 8.2 44.1 8.2 44.2 8.2 C 44.2 8.2 44.3 8.2 44.3 8.2 C 44.3 8.2 44.3 8.2 44.3 8.2 Z M 46.5 7.6 C 46.5 7.5 46.5 7.4 46.4 7.4 C 46.4 7.4 46.3 7.4 46.2 7.4 C 46.1 7.4 45.9 7.4 45.8 7.5 C 45.7 7.5 45.6 7.6 45.6 7.7 C 45.6 7.7 45.6 7.8 45.7 7.9 C 45.7 7.9 45.9 7.9 46.1 8 C 46.2 8.1 46.4 8.1 46.4 8.2 C 46.5 8.2 46.6 8.3 46.6 8.4 C 46.6 8.5 46.5 8.5 46.4 8.6 C 46.3 8.7 46.2 8.8 46 8.9 C 45.9 8.9 45.7 8.9 45.6 8.9 C 45.5 8.9 45.5 8.9 45.4 8.9 C 45.4 8.9 45.3 8.8 45.3 8.8 C 45.3 8.8 45.3 8.8 45.4 8.7 C 45.4 8.7 45.4 8.7 45.4 8.7 C 45.4 8.7 45.4 8.7 45.4 8.7 C 45.5 8.7 45.6 8.7 45.7 8.7 C 45.8 8.7 46 8.7 46.1 8.6 C 46.3 8.5 46.4 8.5 46.4 8.4 C 46.4 8.4 46.3 8.3 46.3 8.3 C 46.2 8.3 46.1 8.2 45.9 8.2 C 45.7 8.1 45.5 8 45.5 7.9 C 45.4 7.9 45.4 7.8 45.4 7.7 C 45.4 7.6 45.5 7.4 45.7 7.3 C 45.8 7.2 46 7.2 46.2 7.2 C 46.4 7.2 46.5 7.2 46.5 7.3 C 46.6 7.3 46.6 7.3 46.6 7.4 C 46.6 7.4 46.6 7.5 46.6 7.5 C 46.6 7.6 46.5 7.6 46.5 7.6 Z M 47.3 7.4 C 47.2 7.4 47.2 7.5 47.2 7.7 C 47.2 7.7 47.1 7.8 47.1 7.9 C 47.1 7.9 47.1 8 47.1 8 C 47.1 8.2 47.1 8.3 47.1 8.4 C 47.1 8.5 47.1 8.6 47.1 8.7 C 47.1 8.8 47.1 8.8 47.1 8.8 C 47 8.9 47 8.9 47 8.9 C 46.9 8.9 46.9 8.8 46.9 8.8 C 46.9 8.8 46.9 8.7 46.9 8.6 C 46.9 8.5 46.9 8.3 46.9 8.1 C 46.9 8.1 46.9 8 46.9 8 C 46.9 8 46.9 8 46.9 7.9 C 46.9 7.9 46.9 7.9 47 7.9 C 47 7.8 47 7.7 47 7.6 C 47 7.5 47 7.4 47 7.4 C 47 7.3 47 7.3 47 7.3 C 47.1 7.3 47.1 7.2 47.1 7.2 C 47.1 7.2 47.1 7.2 47.2 7.2 C 47.2 7.2 47.2 7.2 47.2 7.2 C 47.2 7.3 47.3 7.3 47.3 7.4 Z M 47.5 8.7 C 47.5 8.6 47.5 8.5 47.5 8.5 C 47.5 8.5 47.6 8.4 47.6 8.2 C 47.6 8.1 47.6 7.9 47.6 7.7 C 47.7 7.4 47.7 7.3 47.7 7.3 C 47.7 7.3 47.7 7.2 47.7 7.2 C 47.7 7.2 47.8 7.2 47.8 7.2 C 47.8 7.2 47.8 7.2 47.9 7.2 C 47.9 7.3 47.9 7.3 47.9 7.3 C 47.9 7.3 47.9 7.4 47.9 7.5 C 47.9 7.6 47.8 7.8 47.8 8.1 C 47.8 8.4 47.7 8.5 47.7 8.6 C 47.7 8.6 47.7 8.6 47.7 8.6 C 47.8 8.6 47.8 8.6 47.8 8.6 C 47.8 8.6 47.9 8.6 48 8.6 C 48.1 8.6 48.3 8.6 48.5 8.6 C 48.5 8.6 48.6 8.6 48.6 8.5 C 48.7 8.5 48.7 8.5 48.7 8.5 C 48.7 8.5 48.7 8.6 48.7 8.6 C 48.8 8.6 48.8 8.6 48.8 8.6 C 48.8 8.7 48.7 8.7 48.7 8.7 C 48.7 8.8 48.6 8.8 48.6 8.8 C 48.6 8.8 48.6 8.8 48.5 8.8 C 48.5 8.8 48.4 8.8 48.4 8.8 C 48.2 8.8 47.9 8.8 47.7 8.9 C 47.7 8.9 47.6 8.9 47.6 8.9 C 47.6 8.9 47.5 8.9 47.5 8.9 C 47.5 8.8 47.5 8.8 47.5 8.8 C 47.5 8.8 47.5 8.7 47.5 8.7 C 47.5 8.7 47.5 8.7 47.5 8.7 Z " stroke="none" fill="#000"/>  </g></svg>