<?xml version="1.0" standalone="no"?><!DOCTYPE svg PUBLIC "-//W3C//DTD SVG 1.1//EN" "http://www.w3.org/Graphics/SVG/1.1/DTD/svg11.dtd"><svg xmlns="http://www.w3.org/2000/svg" version="1.1" width="41px" height="22.9px" viewBox="0 -1 41 22.9" style="top:-1px">  <desc>AQUI NO CHURRASCO, CADA UM DEU SUA CONTRIBUI O.</desc>  <defs/>  <g id="Polygon15329">    <path d="M 9.4 14.7 C 9.5 14.6 9.6 14.6 9.6 14.6 C 9.7 14.6 9.7 14.6 9.7 14.7 C 9.7 14.8 9.6 14.9 9.4 15 C 9.2 15.1 9 15.2 8.8 15.2 C 8.6 15.2 8.5 15.1 8.3 15 C 8.2 14.9 8.1 14.7 8.1 14.5 C 8.1 14.3 8.2 14 8.3 13.8 C 8.5 13.5 8.7 13.3 8.9 13.1 C 9.1 12.9 9.4 12.8 9.6 12.8 C 9.7 12.8 9.8 12.9 9.9 12.9 C 10 13 10 13.1 10 13.2 C 10 13.3 10 13.4 10 13.5 C 10 13.5 9.9 13.6 9.9 13.6 C 9.8 13.6 9.8 13.6 9.7 13.6 C 9.7 13.6 9.7 13.6 9.6 13.6 C 9.6 13.6 9.6 13.5 9.6 13.5 C 9.6 13.5 9.6 13.4 9.6 13.4 C 9.6 13.3 9.6 13.3 9.6 13.2 C 9.6 13.1 9.6 13.1 9.6 13.1 C 9.4 13.1 9.3 13.2 9.1 13.3 C 8.9 13.5 8.8 13.7 8.6 13.9 C 8.5 14.1 8.5 14.3 8.5 14.5 C 8.5 14.6 8.5 14.7 8.6 14.8 C 8.6 14.9 8.7 14.9 8.8 14.9 C 8.9 14.9 9 14.9 9.1 14.8 C 9.2 14.8 9.3 14.7 9.4 14.7 C 9.4 14.7 9.4 14.7 9.4 14.7 Z M 10.7 15.2 C 10.6 15.2 10.4 15.1 10.3 14.9 C 10.2 14.8 10.1 14.6 10.1 14.4 C 10.1 14.2 10.2 14 10.3 13.8 C 10.4 13.5 10.6 13.3 10.8 13.2 C 11 13 11.2 12.9 11.4 12.9 C 11.5 12.9 11.7 13 11.8 13 C 11.9 13 12 13.1 12.1 13.2 C 12.2 13.2 12.2 13.3 12.3 13.4 C 12.3 13.5 12.3 13.6 12.3 13.7 C 12.3 13.9 12.3 14 12.2 14.2 C 12.1 14.4 12 14.5 11.8 14.7 C 11.7 14.8 11.5 15 11.4 15 C 11.2 15.1 11 15.2 10.7 15.2 Z M 10.5 14.4 C 10.5 14.6 10.5 14.7 10.6 14.7 C 10.7 14.8 10.7 14.9 10.8 14.9 C 11.1 14.9 11.3 14.7 11.6 14.5 C 11.8 14.2 11.9 14 11.9 13.7 C 11.9 13.6 11.9 13.5 11.9 13.4 C 11.8 13.4 11.8 13.3 11.7 13.3 C 11.6 13.2 11.5 13.2 11.4 13.2 C 11.2 13.2 11 13.4 10.8 13.6 C 10.6 13.9 10.5 14.2 10.5 14.4 Z M 12.6 14.6 C 12.6 14.6 12.68 14.1 12.7 14.1 C 12.8 13.7 12.8 13.4 12.8 13.3 C 12.8 13.2 12.8 13.2 12.8 13.1 C 12.8 13.1 12.9 13.1 12.9 13.1 C 12.9 13 13 13 13 13 C 13 13 13.1 13 13.1 13 C 13.2 13.1 13.2 13.1 13.2 13.2 C 13.3 13.4 13.4 13.6 13.5 13.9 C 13.7 14.2 13.9 14.4 14 14.6 C 14 14.4 14.1 14.2 14.1 13.9 C 14.2 13.7 14.2 13.6 14.2 13.4 C 14.2 13.3 14.2 13.2 14.2 13.1 C 14.3 13 14.3 13 14.3 12.9 C 14.4 12.9 14.4 12.9 14.5 12.9 C 14.5 12.9 14.5 12.9 14.6 13 C 14.6 13 14.6 13.1 14.6 13.1 C 14.6 13.2 14.6 13.3 14.6 13.4 C 14.5 13.6 14.4 13.9 14.4 14.2 C 14.3 14.6 14.3 14.8 14.3 14.8 C 14.3 14.8 14.3 14.9 14.3 14.9 C 14.3 14.9 14.3 15 14.3 15 C 14.3 15 14.3 15.1 14.2 15.1 C 14.2 15.1 14.1 15.1 14.1 15.1 C 14 15.1 14 15.1 14 15.1 C 14 15.1 14 15.1 13.9 15 C 13.9 15 13.9 15 13.8 14.9 C 13.8 14.8 13.8 14.8 13.7 14.7 C 13.5 14.5 13.3 14.1 13.1 13.7 C 13 13.8 13 14.1 12.9 14.6 C 12.9 14.6 12.9 14.7 12.9 14.7 C 12.9 14.7 12.9 14.8 12.9 14.9 C 12.9 15 12.9 15.1 12.8 15.1 C 12.8 15.2 12.7 15.2 12.7 15.2 C 12.6 15.2 12.6 15.2 12.6 15.1 C 12.5 15.1 12.5 15 12.5 14.9 C 12.5 14.9 12.5 14.7 12.6 14.6 C 12.57 14.6 12.6 14.6 12.6 14.6 Z M 16.5 13.3 C 16.3 13.3 16.1 13.3 16 13.3 C 16 13.3 16 13.4 16 13.4 C 16 13.4 15.9 13.6 15.9 13.9 C 15.9 14.2 15.9 14.4 15.9 14.6 C 15.9 14.7 15.9 14.8 15.9 14.9 C 15.9 14.9 15.9 14.9 15.9 14.9 C 15.9 15 15.9 15 15.8 15.1 C 15.8 15.1 15.8 15.1 15.7 15.1 C 15.7 15.1 15.7 15.1 15.6 15.1 C 15.6 15 15.5 15 15.5 14.9 C 15.5 14.8 15.5 14.7 15.5 14.6 C 15.5 14.5 15.5 14.2 15.6 13.9 C 15.6 13.5 15.6 13.4 15.6 13.4 C 15.6 13.4 15.5 13.4 15.3 13.4 C 15.1 13.4 15 13.4 15 13.4 C 14.9 13.4 14.8 13.4 14.8 13.4 C 14.7 13.3 14.7 13.3 14.7 13.3 C 14.7 13.2 14.7 13.2 14.8 13.1 C 14.8 13.1 14.9 13.1 15.1 13.1 C 15.4 13.1 15.6 13.1 15.9 13 C 16.2 13 16.4 13 16.6 13 C 16.8 13 16.9 13 16.9 13 C 17 13.1 17 13.1 17 13.2 C 17 13.3 16.9 13.3 16.9 13.3 C 16.8 13.3 16.8 13.3 16.7 13.3 C 16.7 13.3 16.6 13.3 16.5 13.3 C 16.5 13.3 16.5 13.3 16.5 13.3 Z M 17 13.3 C 17 13.3 17.01 13.28 17 13.3 C 17 13.2 17 13.2 17 13.2 C 17 13.1 17 13.1 17 13 C 17.1 13 17.1 13 17.2 13 C 17.2 13 17.2 13 17.2 13 C 17.3 13 17.3 13 17.3 13 C 17.6 13 17.8 12.9 17.9 12.9 C 18.1 12.9 18.3 13 18.4 13.1 C 18.5 13.2 18.6 13.3 18.6 13.5 C 18.6 13.6 18.5 13.8 18.4 13.9 C 18.3 14 18.1 14.1 17.9 14.2 C 18.3 14.5 18.5 14.7 18.7 14.8 C 18.8 14.8 18.8 14.9 18.8 14.9 C 18.8 15 18.8 15 18.7 15 C 18.7 15.1 18.6 15.1 18.6 15.1 C 18.5 15.1 18.5 15.1 18.4 15 C 18.3 15 18.2 14.9 18.1 14.8 C 18 14.7 17.9 14.6 17.9 14.6 C 17.7 14.5 17.6 14.4 17.5 14.3 C 17.4 14.3 17.3 14.3 17.3 14.1 C 17.3 14.1 17.3 14.1 17.4 14 C 17.4 14 17.5 14 17.5 14 C 17.6 14 17.6 14 17.6 14 C 17.6 14 17.6 14 17.6 14 C 17.7 14 17.8 13.9 18 13.8 C 18.2 13.7 18.2 13.6 18.2 13.5 C 18.2 13.4 18.2 13.3 18.1 13.3 C 18.1 13.2 18 13.2 17.9 13.2 C 17.7 13.2 17.6 13.2 17.5 13.2 C 17.5 13.3 17.4 13.3 17.4 13.3 C 17.4 13.3 17.4 13.3 17.4 13.3 C 17.4 13.3 17.4 13.4 17.3 13.6 C 17.3 13.8 17.3 14 17.2 14.2 C 17.2 14.4 17.2 14.6 17.2 14.7 C 17.2 14.7 17.2 14.8 17.2 14.8 C 17.2 14.9 17.2 14.9 17.2 15 C 17.2 15 17.2 15 17.2 15.1 C 17.1 15.1 17.1 15.1 17 15.1 C 16.9 15.1 16.8 15.1 16.8 14.9 C 16.8 14.7 16.8 14.5 16.9 14.2 C 16.9 14 16.9 13.7 17 13.5 C 17 13.5 17 13.4 17 13.4 C 17.01 13.41 17 13.3 17 13.3 Z M 19.5 13.6 C 19.4 13.7 19.4 13.8 19.4 13.8 C 19.4 13.9 19.4 13.9 19.4 14.1 C 19.4 14.3 19.3 14.4 19.3 14.5 C 19.3 14.6 19.4 14.7 19.4 14.9 C 19.4 15 19.4 15 19.3 15.1 C 19.3 15.1 19.2 15.1 19.2 15.1 C 19.1 15.1 19.1 15.1 19 15 C 19 15 19 14.9 19 14.7 C 19 14.6 19 14.4 19 14.1 C 19 14.1 19.1 13.5 19.1 13.5 C 19.1 13.4 19.2 13.3 19.2 13.3 C 19.2 13.1 19.2 13.1 19.2 13.1 C 19.2 13 19.3 13 19.3 13 C 19.3 13 19.4 12.9 19.4 12.9 C 19.5 12.9 19.5 13 19.5 13 C 19.6 13.1 19.6 13.1 19.6 13.2 C 19.6 13.2 19.5 13.6 19.5 13.6 Z M 21.2 13.9 C 21.4 13.9 21.5 14 21.6 14.1 C 21.6 14.2 21.7 14.3 21.7 14.4 C 21.7 14.6 21.6 14.8 21.3 15 C 21.1 15.2 20.8 15.2 20.6 15.2 C 20.4 15.2 20.3 15.2 20.3 15.1 C 20.3 15 20.4 14.9 20.6 14.9 C 20.6 14.9 20.7 14.9 20.7 14.9 C 20.8 14.9 20.9 14.8 21.1 14.7 C 21.2 14.6 21.3 14.5 21.3 14.4 C 21.3 14.3 21.3 14.3 21.2 14.2 C 21.2 14.2 21.1 14.1 21 14.1 C 21 14.1 20.9 14.1 20.9 14.2 C 20.8 14.2 20.7 14.2 20.7 14.2 C 20.6 14.2 20.5 14.2 20.5 14.2 C 20.5 14.2 20.5 14.1 20.5 14 C 20.5 14 20.6 13.9 20.8 13.9 C 20.9 13.8 21 13.7 21.1 13.6 C 21.2 13.5 21.3 13.4 21.3 13.3 C 21.3 13.3 21.2 13.2 21.1 13.2 C 20.9 13.2 20.8 13.2 20.7 13.2 C 20.6 13.3 20.5 13.3 20.5 13.4 C 20.5 13.4 20.4 13.6 20.4 14 C 20.3 14.4 20.3 14.7 20.3 14.7 C 20.3 14.7 20.3 14.9 20.3 14.9 C 20.3 15 20.2 15.1 20.2 15.1 C 20.2 15.1 20.1 15.2 20.1 15.2 C 19.9 15.2 19.9 15.1 19.9 14.9 C 19.9 14.9 19.9 14.8 19.9 14.8 C 19.9 14.6 20 14.3 20 14 C 20.1 13.7 20.1 13.5 20.1 13.5 C 20.1 13.5 20.1 13.4 20.1 13.4 C 20.1 13.4 20 13.4 20 13.4 C 20 13.4 20 13.4 19.9 13.4 C 19.9 13.4 19.9 13.4 19.9 13.4 C 19.9 13.3 19.9 13.3 19.9 13.3 C 19.9 13.2 20 13.1 20.3 13 C 20.6 12.9 20.8 12.9 21.1 12.9 C 21.3 12.9 21.4 12.9 21.5 13 C 21.6 13.1 21.7 13.2 21.7 13.3 C 21.7 13.4 21.6 13.5 21.6 13.6 C 21.5 13.6 21.4 13.8 21.2 13.9 Z M 22.8 15.2 C 22.7 15.2 22.6 15.1 22.4 15.1 C 22.3 15 22.2 14.9 22.1 14.7 C 22 14.6 22 14.4 22 14.2 C 22 14.1 22 14 22 13.9 C 22 13.9 22.1 13.6 22.1 13.6 C 22.1 13.5 22.1 13.5 22.1 13.5 C 22.1 13.4 22.1 13.3 22.1 13.3 C 22.2 13.2 22.2 13.1 22.2 13 C 22.3 13 22.3 12.9 22.4 12.9 C 22.4 12.9 22.4 13 22.5 13 C 22.5 13.1 22.5 13.1 22.5 13.2 C 22.5 13.2 22.5 13.3 22.5 13.5 C 22.5 13.5 22.4 13.6 22.4 13.8 C 22.4 14 22.4 14.1 22.4 14.2 C 22.4 14.5 22.4 14.6 22.5 14.7 C 22.6 14.8 22.7 14.9 22.8 14.9 C 23.1 14.9 23.2 14.8 23.3 14.7 C 23.4 14.6 23.5 14.4 23.5 14.2 C 23.5 14.1 23.5 14.1 23.5 14 C 23.5 13.9 23.5 13.9 23.5 13.8 C 23.6 13.4 23.6 13.2 23.6 13.1 C 23.7 13 23.8 13 23.8 13 C 23.9 13 24 13.1 24 13.2 C 24 13.3 24 13.4 23.9 13.6 C 23.9 13.7 23.9 13.9 23.9 14 C 23.9 14.3 23.8 14.5 23.8 14.6 C 23.7 14.8 23.6 14.9 23.4 15 C 23.3 15.1 23 15.2 22.8 15.2 Z M 24.7 13.6 C 24.7 13.7 24.7 13.8 24.7 13.8 C 24.7 13.9 24.7 13.9 24.7 14.1 C 24.6 14.3 24.6 14.4 24.6 14.5 C 24.6 14.6 24.6 14.7 24.7 14.9 C 24.7 15 24.6 15 24.6 15.1 C 24.5 15.1 24.5 15.1 24.5 15.1 C 24.4 15.1 24.3 15.1 24.3 15 C 24.3 15 24.3 14.9 24.3 14.7 C 24.3 14.6 24.3 14.4 24.3 14.1 C 24.3 14.1 24.4 13.5 24.4 13.5 C 24.4 13.4 24.4 13.3 24.4 13.3 C 24.5 13.1 24.5 13.1 24.5 13.1 C 24.5 13 24.5 13 24.6 13 C 24.6 13 24.7 12.9 24.7 12.9 C 24.7 12.9 24.8 13 24.8 13 C 24.8 13.1 24.9 13.1 24.9 13.2 C 24.9 13.2 24.7 13.6 24.7 13.6 Z M 25.6 15.2 C 25.6 15.2 25.6 15.2 25.6 15.2 C 25.6 15.3 25.6 15.3 25.6 15.3 C 25.7 15.3 25.7 15.3 25.8 15.3 C 25.8 15.3 25.9 15.3 25.9 15.4 C 26 15.4 26 15.5 26 15.6 C 26 15.7 25.9 15.8 25.8 15.8 C 25.7 15.9 25.6 16 25.4 16 C 25.4 16 25.4 16 25.3 15.9 C 25.2 15.9 25.2 15.9 25.2 15.9 C 25.1 15.9 25.1 15.8 25.1 15.8 C 25.1 15.7 25.1 15.7 25.1 15.7 C 25.2 15.6 25.2 15.6 25.2 15.6 C 25.3 15.6 25.3 15.7 25.4 15.7 C 25.4 15.7 25.4 15.7 25.4 15.7 C 25.5 15.7 25.5 15.7 25.5 15.7 C 25.5 15.7 25.6 15.7 25.6 15.7 C 25.7 15.7 25.7 15.6 25.7 15.6 C 25.7 15.6 25.7 15.5 25.7 15.5 C 25.6 15.5 25.6 15.5 25.6 15.5 C 25.5 15.5 25.5 15.5 25.4 15.5 C 25.3 15.5 25.3 15.5 25.3 15.4 C 25.3 15.3 25.4 15.3 25.4 15.2 C 25.4 15.2 25.4 15.2 25.4 15.1 C 25.2 15 25.1 14.8 25.1 14.5 C 25.1 14.1 25.2 13.8 25.6 13.4 C 25.9 13 26.2 12.8 26.5 12.8 C 26.7 12.8 26.8 12.9 26.9 12.9 C 26.9 13 27 13.1 27 13.2 C 27 13.3 27 13.4 26.9 13.5 C 26.9 13.5 26.9 13.6 26.8 13.6 C 26.8 13.6 26.7 13.6 26.7 13.6 C 26.7 13.6 26.6 13.6 26.6 13.6 C 26.6 13.6 26.6 13.5 26.6 13.5 C 26.6 13.5 26.6 13.4 26.6 13.4 C 26.6 13.3 26.6 13.3 26.6 13.2 C 26.6 13.1 26.6 13.1 26.5 13.1 C 26.4 13.1 26.3 13.2 26.1 13.3 C 25.9 13.5 25.7 13.7 25.6 13.9 C 25.5 14.1 25.4 14.3 25.4 14.5 C 25.4 14.6 25.5 14.7 25.5 14.8 C 25.6 14.9 25.7 14.9 25.8 14.9 C 25.9 14.9 26 14.9 26.1 14.8 C 26.2 14.8 26.3 14.7 26.4 14.7 C 26.5 14.6 26.6 14.6 26.6 14.6 C 26.7 14.6 26.7 14.6 26.7 14.7 C 26.7 14.8 26.6 14.9 26.4 15 C 26.1 15.2 25.9 15.2 25.6 15.2 Z M 27.6 14.6 C 27.6 14.6 27.5 14.6 27.5 14.6 C 27.5 14.6 27.4 14.7 27.3 14.9 C 27.3 15 27.2 15.1 27.2 15.1 C 27.1 15.1 27.1 15.1 27.1 15.1 C 27 15.1 27 15.1 27 15.1 C 26.9 15 26.9 15 26.9 15 C 26.9 14.9 27 14.7 27.2 14.3 C 27.4 14.1 27.5 13.9 27.6 13.7 C 27.8 13.3 28 13.1 28 13 C 28.1 13 28.1 12.9 28.2 12.9 C 28.3 12.9 28.3 12.9 28.4 13 C 28.4 13 28.4 13 28.4 13.1 C 28.4 13.1 28.4 13.2 28.4 13.2 C 28.5 13.7 28.7 14.1 28.8 14.3 C 28.9 14.6 29 14.7 29.1 14.8 C 29.1 14.9 29.2 14.9 29.2 14.9 C 29.2 14.9 29.2 15 29.2 15 C 29.2 15.1 29.2 15.1 29.1 15.1 C 29.1 15.2 29.1 15.2 29 15.2 C 28.9 15.2 28.9 15.1 28.8 15.1 C 28.7 15 28.6 14.9 28.6 14.7 C 28.5 14.6 28.5 14.5 28.5 14.5 C 28.5 14.5 28.5 14.4 28.5 14.4 C 28.4 14.4 28.3 14.5 28.1 14.5 C 27.9 14.5 27.8 14.6 27.7 14.6 C 27.6 14.6 27.6 14.6 27.6 14.6 C 27.6 14.6 27.6 14.6 27.6 14.6 Z M 28.2 14.2 C 28.3 14.2 28.3 14.2 28.3 14.2 C 28.3 14.1 28.3 13.9 28.1 13.5 C 28.1 13.5 28.1 13.5 28.1 13.5 C 28.1 13.5 27.7 14.3 27.7 14.3 C 27.8 14.3 27.8 14.2 27.9 14.2 C 27.9 14.2 28 14.2 28.2 14.2 C 28.2 14.2 28.2 14.2 28.2 14.2 Z M 28.6 12.6 C 28.5 12.6 28.4 12.6 28.4 12.6 C 28.3 12.6 28.3 12.5 28.2 12.5 C 28.2 12.5 28.2 12.5 28.2 12.5 C 28.2 12.5 28.2 12.5 28.2 12.4 C 28.1 12.4 28.1 12.4 28 12.4 C 28 12.4 27.9 12.4 27.9 12.5 C 27.9 12.5 27.9 12.5 27.9 12.5 C 27.8 12.6 27.8 12.6 27.7 12.6 C 27.7 12.6 27.7 12.7 27.7 12.7 C 27.6 12.7 27.5 12.6 27.5 12.5 C 27.5 12.5 27.6 12.4 27.7 12.2 C 27.8 12.1 27.9 12.1 28 12.1 C 28.1 12.1 28.1 12.1 28.2 12.1 C 28.2 12.1 28.3 12.1 28.3 12.2 C 28.4 12.3 28.4 12.3 28.5 12.3 C 28.5 12.4 28.5 12.4 28.5 12.4 C 28.6 12.4 28.6 12.3 28.6 12.3 C 28.7 12.2 28.7 12.2 28.7 12.2 C 28.7 12.2 28.7 12.2 28.7 12.2 C 28.7 12.1 28.8 12.1 28.8 12.1 C 28.9 12.1 28.9 12.2 28.9 12.2 C 28.9 12.3 28.9 12.4 28.8 12.5 C 28.7 12.6 28.6 12.6 28.6 12.6 C 28.6 12.6 28.6 12.6 28.6 12.6 Z M 29.9 15.2 C 29.8 15.2 29.6 15.1 29.5 14.9 C 29.4 14.8 29.3 14.6 29.3 14.4 C 29.3 14.2 29.4 14 29.5 13.8 C 29.6 13.5 29.8 13.3 30 13.2 C 30.1 13 30.3 12.9 30.6 12.9 C 30.7 12.9 30.9 13 31 13 C 31.1 13 31.2 13.1 31.3 13.2 C 31.3 13.2 31.4 13.3 31.4 13.4 C 31.5 13.5 31.5 13.6 31.5 13.7 C 31.5 13.9 31.4 14 31.4 14.2 C 31.3 14.4 31.2 14.5 31 14.7 C 30.9 14.8 30.7 15 30.5 15 C 30.4 15.1 30.2 15.2 29.9 15.2 Z M 29.7 14.4 C 29.7 14.6 29.7 14.7 29.8 14.7 C 29.8 14.8 29.9 14.9 30 14.9 C 30.3 14.9 30.5 14.7 30.8 14.5 C 31 14.2 31.1 14 31.1 13.7 C 31.1 13.6 31.1 13.5 31 13.4 C 31 13.4 30.9 13.3 30.8 13.3 C 30.8 13.2 30.7 13.2 30.6 13.2 C 30.4 13.2 30.2 13.4 30 13.6 C 29.8 13.9 29.7 14.2 29.7 14.4 Z M 31.6 15 C 31.6 15 31.5 15 31.5 15 C 31.5 15 31.5 14.9 31.5 14.8 C 31.5 14.8 31.5 14.7 31.5 14.7 C 31.5 14.7 31.5 14.6 31.5 14.6 C 31.6 14.6 31.6 14.6 31.7 14.6 C 31.8 14.6 31.8 14.6 31.9 14.6 C 31.9 14.7 31.9 14.7 31.9 14.7 C 31.9 14.8 31.9 14.8 31.9 14.9 C 31.9 14.9 31.8 14.9 31.8 15 C 31.7 15 31.7 15 31.6 15 Z " stroke="none" fill="#000"/>  </g>  <g id="Polygon15328">    <path d="M 6.9 10.7 C 7 10.6 7.1 10.6 7.1 10.6 C 7.2 10.6 7.2 10.6 7.2 10.7 C 7.2 10.8 7.1 10.9 6.9 11 C 6.7 11.1 6.5 11.2 6.3 11.2 C 6.1 11.2 5.9 11.1 5.8 11 C 5.6 10.9 5.6 10.7 5.6 10.5 C 5.6 10.3 5.6 10 5.8 9.8 C 6 9.5 6.1 9.3 6.4 9.1 C 6.6 8.9 6.8 8.8 7.1 8.8 C 7.2 8.8 7.3 8.9 7.4 8.9 C 7.4 9 7.5 9.1 7.5 9.2 C 7.5 9.3 7.5 9.4 7.5 9.5 C 7.4 9.5 7.4 9.6 7.3 9.6 C 7.3 9.6 7.2 9.6 7.2 9.6 C 7.2 9.6 7.1 9.6 7.1 9.6 C 7.1 9.6 7.1 9.5 7.1 9.5 C 7.1 9.5 7.1 9.4 7.1 9.4 C 7.1 9.3 7.1 9.3 7.1 9.2 C 7.1 9.1 7.1 9.1 7 9.1 C 6.9 9.1 6.8 9.2 6.6 9.3 C 6.4 9.5 6.3 9.7 6.1 9.9 C 6 10.1 5.9 10.3 5.9 10.5 C 5.9 10.6 6 10.7 6 10.8 C 6.1 10.9 6.2 10.9 6.3 10.9 C 6.4 10.9 6.5 10.9 6.6 10.8 C 6.7 10.8 6.8 10.7 6.9 10.7 C 6.9 10.7 6.9 10.7 6.9 10.7 Z M 8.1 10.6 C 8.1 10.6 8 10.6 8 10.6 C 8 10.6 7.9 10.7 7.9 10.9 C 7.8 11 7.7 11.1 7.7 11.1 C 7.6 11.1 7.6 11.1 7.6 11.1 C 7.6 11.1 7.5 11.1 7.5 11.1 C 7.4 11 7.4 11 7.4 11 C 7.4 10.9 7.5 10.7 7.8 10.3 C 7.9 10.1 8 9.9 8.1 9.7 C 8.3 9.3 8.5 9.1 8.5 9 C 8.6 9 8.6 8.9 8.7 8.9 C 8.8 8.9 8.8 8.9 8.9 9 C 8.9 9 8.9 9 8.9 9.1 C 8.9 9.1 8.9 9.2 8.9 9.2 C 9.1 9.7 9.2 10.1 9.3 10.3 C 9.4 10.6 9.5 10.7 9.6 10.8 C 9.7 10.9 9.7 10.9 9.7 10.9 C 9.7 10.9 9.7 11 9.7 11 C 9.7 11.1 9.7 11.1 9.7 11.1 C 9.6 11.2 9.6 11.2 9.5 11.2 C 9.4 11.2 9.4 11.1 9.3 11.1 C 9.2 11 9.1 10.9 9.1 10.7 C 9 10.6 9 10.5 9 10.5 C 9 10.5 9 10.4 9 10.4 C 8.9 10.4 8.8 10.5 8.6 10.5 C 8.4 10.5 8.3 10.6 8.2 10.6 C 8.1 10.6 8.1 10.6 8.1 10.6 C 8.1 10.6 8.1 10.6 8.1 10.6 Z M 8.7 10.2 C 8.8 10.2 8.8 10.2 8.9 10.2 C 8.8 10.1 8.8 9.9 8.6 9.5 C 8.6 9.5 8.6 9.5 8.6 9.5 C 8.6 9.5 8.2 10.3 8.2 10.3 C 8.3 10.3 8.3 10.2 8.4 10.2 C 8.4 10.2 8.6 10.2 8.7 10.2 C 8.7 10.2 8.7 10.2 8.7 10.2 Z M 10 10.8 C 10 10.8 10 10.7 10 10.6 C 10 10.2 10.1 9.9 10.1 9.5 C 10.1 9.4 10.1 9.4 10.1 9.3 C 10.1 9.3 10.1 9.3 10.1 9.3 C 10 9.3 10 9.2 10 9.2 C 10 9.1 10 9.1 10 9 C 10.1 9 10.1 9 10.2 9 C 10.2 9 10.4 9 10.4 9 C 10.5 9 10.6 9 10.7 9 C 10.9 8.9 11 8.9 11.1 8.9 C 11.3 8.9 11.6 9 11.7 9.2 C 11.9 9.3 12 9.5 12 9.8 C 12 10.1 11.8 10.3 11.6 10.5 C 11.3 10.8 11 10.9 10.6 11 C 10.5 11 10.5 11 10.4 11.1 C 10.4 11.1 10.3 11.1 10.3 11.1 C 10.2 11.2 10.2 11.2 10.1 11.2 C 10 11.2 10 11.2 10 11.1 C 9.9 11.1 9.9 11 9.9 11 C 9.9 11 9.9 11 9.9 10.9 C 9.9 10.9 10 10.8 10 10.8 Z M 10.3 10.7 C 10.3 10.7 10.3 10.7 10.4 10.8 C 10.4 10.8 10.6 10.7 10.8 10.7 C 11 10.6 11.2 10.5 11.4 10.3 C 11.5 10.1 11.6 10 11.6 9.8 C 11.6 9.6 11.6 9.5 11.5 9.4 C 11.3 9.3 11.2 9.2 11 9.2 C 10.9 9.2 10.7 9.2 10.6 9.3 C 10.5 9.3 10.5 9.3 10.5 9.3 C 10.4 9.9 10.3 10.4 10.3 10.7 C 10.3 10.7 10.3 10.7 10.3 10.7 Z M 12.6 10.6 C 12.5 10.6 12.5 10.6 12.5 10.6 C 12.5 10.6 12.4 10.7 12.3 10.9 C 12.2 11 12.2 11.1 12.1 11.1 C 12.1 11.1 12.1 11.1 12.1 11.1 C 12 11.1 12 11.1 11.9 11.1 C 11.9 11 11.9 11 11.9 11 C 11.9 10.9 12 10.7 12.2 10.3 C 12.4 10.1 12.5 9.9 12.6 9.7 C 12.8 9.3 13 9.1 13 9 C 13 9 13.1 8.9 13.2 8.9 C 13.2 8.9 13.3 8.9 13.3 9 C 13.4 9 13.4 9 13.4 9.1 C 13.4 9.1 13.4 9.2 13.3 9.2 C 13.5 9.7 13.7 10.1 13.8 10.3 C 13.9 10.6 14 10.7 14.1 10.8 C 14.1 10.9 14.2 10.9 14.2 10.9 C 14.2 10.9 14.2 11 14.2 11 C 14.2 11.1 14.2 11.1 14.1 11.1 C 14.1 11.2 14 11.2 14 11.2 C 13.9 11.2 13.8 11.1 13.8 11.1 C 13.7 11 13.6 10.9 13.5 10.7 C 13.5 10.6 13.4 10.5 13.4 10.5 C 13.4 10.5 13.4 10.4 13.4 10.4 C 13.4 10.4 13.3 10.5 13.1 10.5 C 12.9 10.5 12.8 10.6 12.6 10.6 C 12.6 10.6 12.6 10.6 12.6 10.6 C 12.6 10.6 12.6 10.6 12.6 10.6 Z M 13.2 10.2 C 13.2 10.2 13.3 10.2 13.3 10.2 C 13.3 10.1 13.2 9.9 13.1 9.5 C 13.1 9.5 13.1 9.5 13.1 9.5 C 13.1 9.5 12.7 10.3 12.7 10.3 C 12.7 10.3 12.8 10.2 12.9 10.2 C 12.9 10.2 13 10.2 13.2 10.2 C 13.2 10.2 13.2 10.2 13.2 10.2 Z M 16.3 11.2 C 16.2 11.2 16.1 11.1 16 11.1 C 15.8 11 15.7 10.9 15.6 10.7 C 15.6 10.6 15.5 10.4 15.5 10.2 C 15.5 10.1 15.5 10 15.6 9.9 C 15.6 9.9 15.6 9.6 15.6 9.6 C 15.6 9.5 15.6 9.5 15.6 9.5 C 15.7 9.4 15.7 9.3 15.7 9.3 C 15.7 9.2 15.7 9.1 15.7 9 C 15.8 9 15.8 8.9 15.9 8.9 C 15.9 8.9 16 9 16 9 C 16.1 9.1 16.1 9.1 16.1 9.2 C 16.1 9.2 16 9.3 16 9.5 C 16 9.5 16 9.6 15.9 9.8 C 15.9 10 15.9 10.1 15.9 10.2 C 15.9 10.5 15.9 10.6 16.1 10.7 C 16.2 10.8 16.3 10.9 16.3 10.9 C 16.6 10.9 16.8 10.8 16.8 10.7 C 16.9 10.6 17 10.4 17 10.2 C 17 10.1 17 10.1 17 10 C 17.1 9.9 17.1 9.9 17.1 9.8 C 17.1 9.4 17.1 9.2 17.2 9.1 C 17.2 9 17.3 9 17.4 9 C 17.5 9 17.5 9.1 17.5 9.2 C 17.5 9.3 17.5 9.4 17.5 9.6 C 17.4 9.7 17.4 9.9 17.4 10 C 17.4 10.3 17.4 10.5 17.3 10.6 C 17.2 10.8 17.1 10.9 16.9 11 C 16.8 11.1 16.6 11.2 16.3 11.2 Z M 19.8 9.6 C 19.8 9.5 19.8 9.5 19.8 9.5 C 19.8 9.5 19.3 10.1 19.3 10.1 C 19.1 10.4 18.9 10.6 18.8 10.6 C 18.8 10.6 18.7 10.6 18.7 10.5 C 18.6 10.4 18.6 10.3 18.5 10.2 C 18.5 10.1 18.5 10 18.4 9.9 C 18.4 9.7 18.4 9.6 18.3 9.6 C 18.3 9.6 18.3 10 18.3 10 C 18.2 10.1 18.2 10.2 18.2 10.3 C 18.2 10.5 18.2 10.6 18.1 10.7 C 18.1 10.9 18.1 11 18.1 11 C 18.1 11.1 18 11.1 18 11.1 C 18 11.2 17.9 11.2 17.9 11.2 C 17.9 11.2 17.8 11.1 17.8 11.1 C 17.7 11.1 17.7 11 17.7 11 C 17.7 10.9 17.7 10.8 17.8 10.6 C 17.9 10 18 9.7 18 9.5 C 18.1 9.3 18.1 9.2 18.1 9.1 C 18.1 9.1 18.1 9 18.1 9 C 18.2 9 18.2 9 18.3 9 C 18.4 9 18.4 9 18.4 9 C 18.5 9.1 18.5 9.1 18.5 9.2 C 18.52 9.18 18.5 9.2 18.5 9.2 C 18.5 9.2 18.72 9.75 18.7 9.7 C 18.8 10 18.9 10.1 18.9 10.2 C 19 10.1 19.1 9.9 19.4 9.6 C 19.6 9.3 19.7 9.1 19.8 9 C 19.9 9 19.9 8.9 19.9 8.9 C 20 8.9 20 8.9 20.1 9 C 20.2 9 20.2 9.1 20.2 9.1 C 20.2 9.1 20.2 9.3 20.1 9.5 C 20.1 9.7 20.1 9.9 20.1 10.2 C 20 10.4 20 10.5 20 10.6 C 20 10.6 20 10.7 20 10.8 C 20.1 10.8 20.1 10.8 20.1 10.9 C 20.1 11 20 11 20 11.1 C 20 11.1 19.9 11.1 19.9 11.1 C 19.7 11.1 19.7 11 19.7 10.8 C 19.7 10.7 19.7 10.4 19.7 10.2 C 19.7 9.9 19.8 9.7 19.8 9.6 C 19.8 9.6 19.8 9.6 19.8 9.6 Z M 21.7 10.8 C 21.8 10.8 21.8 10.7 21.8 10.6 C 21.8 10.2 21.8 9.9 21.9 9.5 C 21.9 9.4 21.9 9.4 21.9 9.3 C 21.9 9.3 21.9 9.3 21.9 9.3 C 21.8 9.3 21.7 9.2 21.7 9.2 C 21.7 9.1 21.8 9.1 21.8 9 C 21.8 9 21.9 9 21.9 9 C 21.9 9 22.1 9 22.1 9 C 22.2 9 22.4 9 22.5 9 C 22.6 8.9 22.8 8.9 22.8 8.9 C 23.1 8.9 23.3 9 23.5 9.2 C 23.7 9.3 23.8 9.5 23.8 9.8 C 23.8 10.1 23.6 10.3 23.4 10.5 C 23.1 10.8 22.8 10.9 22.4 11 C 22.3 11 22.3 11 22.2 11.1 C 22.2 11.1 22.1 11.1 22.1 11.1 C 22 11.2 21.9 11.2 21.9 11.2 C 21.8 11.2 21.8 11.2 21.7 11.1 C 21.7 11.1 21.7 11 21.7 11 C 21.7 11 21.7 11 21.7 10.9 C 21.7 10.9 21.7 10.8 21.7 10.8 Z M 22.1 10.7 C 22.1 10.7 22.1 10.7 22.1 10.8 C 22.2 10.8 22.3 10.7 22.6 10.7 C 22.8 10.6 23 10.5 23.2 10.3 C 23.3 10.1 23.4 10 23.4 9.8 C 23.4 9.6 23.3 9.5 23.2 9.4 C 23.1 9.3 23 9.2 22.8 9.2 C 22.7 9.2 22.5 9.2 22.3 9.3 C 22.3 9.3 22.3 9.3 22.3 9.3 C 22.2 9.9 22.1 10.4 22.1 10.7 C 22.1 10.7 22.1 10.7 22.1 10.7 Z M 25.7 9.3 C 25.7 9.3 25.2 9.3 25.2 9.3 C 25 9.3 24.9 9.3 24.8 9.3 C 24.7 9.3 24.6 9.4 24.6 9.4 C 24.6 9.4 24.6 9.4 24.6 9.5 C 24.6 9.5 24.6 9.6 24.5 9.7 C 24.5 9.8 24.5 9.9 24.5 9.9 C 24.6 9.9 24.7 9.9 24.8 9.9 C 24.9 9.9 25 9.9 25 9.9 C 25.2 9.9 25.3 9.8 25.3 9.8 C 25.5 9.8 25.6 9.9 25.6 10 C 25.6 10 25.6 10.1 25.5 10.1 C 25.5 10.1 25.4 10.2 25.3 10.2 C 25.3 10.2 25.2 10.2 25.1 10.2 C 25.1 10.2 25 10.2 25 10.2 C 24.7 10.2 24.5 10.3 24.5 10.3 C 24.5 10.3 24.5 10.3 24.5 10.3 C 24.5 10.3 24.5 10.3 24.5 10.3 C 24.5 10.3 24.4 10.4 24.4 10.5 C 24.4 10.7 24.4 10.8 24.4 10.8 C 24.4 10.8 24.4 10.9 24.5 10.9 C 24.5 10.9 24.6 10.8 24.8 10.8 C 25 10.8 25.1 10.8 25.2 10.8 C 25.3 10.7 25.4 10.7 25.5 10.7 C 25.6 10.7 25.6 10.8 25.6 10.9 C 25.6 10.9 25.6 11 25.6 11 C 25.5 11 25.4 11.1 25.2 11.1 C 25.1 11.1 24.9 11.1 24.7 11.1 C 24.5 11.2 24.4 11.2 24.2 11.2 C 24.1 11.2 24.1 11.2 24.1 11.1 C 24 11.1 24 11 24 11 C 24 11 24 10.9 24 10.9 C 24 10.9 24 10.9 24 10.8 C 24.1 10.7 24.1 10.5 24.2 10 C 24.2 9.6 24.2 9.4 24.2 9.3 C 24.2 9.3 24.2 9.3 24.2 9.3 C 24.2 9.3 24.2 9.3 24.2 9.3 C 24.2 9.2 24.2 9.2 24.2 9.2 C 24.2 9.2 24.2 9.1 24.2 9.1 C 24.2 9.1 24.2 9.1 24.2 9.1 C 24.3 9.1 24.3 9 24.3 9 C 24.4 9 24.4 9 24.5 9.1 C 24.6 9.1 24.8 9 25.3 9 C 25.4 8.9 25.5 8.9 25.5 8.9 C 25.5 8.9 25.5 8.9 25.5 8.9 C 25.7 8.9 25.8 9 25.8 9.1 C 25.8 9.1 25.8 9.2 25.7 9.2 C 25.7 9.2 25.7 9.2 25.7 9.3 Z M 26.8 11.2 C 26.7 11.2 26.6 11.1 26.5 11.1 C 26.3 11 26.2 10.9 26.1 10.7 C 26 10.6 26 10.4 26 10.2 C 26 10.1 26 10 26.1 9.9 C 26.1 9.9 26.1 9.6 26.1 9.6 C 26.1 9.5 26.1 9.5 26.1 9.5 C 26.1 9.4 26.1 9.3 26.2 9.3 C 26.2 9.2 26.2 9.1 26.2 9 C 26.3 9 26.3 8.9 26.4 8.9 C 26.4 8.9 26.5 9 26.5 9 C 26.5 9.1 26.5 9.1 26.5 9.2 C 26.5 9.2 26.5 9.3 26.5 9.5 C 26.5 9.5 26.4 9.6 26.4 9.8 C 26.4 10 26.4 10.1 26.4 10.2 C 26.4 10.5 26.4 10.6 26.5 10.7 C 26.6 10.8 26.7 10.9 26.8 10.9 C 27.1 10.9 27.2 10.8 27.3 10.7 C 27.4 10.6 27.5 10.4 27.5 10.2 C 27.5 10.1 27.5 10.1 27.5 10 C 27.5 9.9 27.5 9.9 27.5 9.8 C 27.6 9.4 27.6 9.2 27.6 9.1 C 27.7 9 27.8 9 27.8 9 C 27.9 9 28 9.1 28 9.2 C 28 9.3 28 9.4 27.9 9.6 C 27.9 9.7 27.9 9.9 27.9 10 C 27.9 10.3 27.8 10.5 27.8 10.6 C 27.7 10.8 27.6 10.9 27.4 11 C 27.3 11.1 27.1 11.2 26.8 11.2 Z M 31 9.2 C 31 9.4 30.9 9.5 30.7 9.5 C 30.7 9.4 30.7 9.3 30.6 9.3 C 30.6 9.3 30.5 9.2 30.4 9.2 C 30.3 9.2 30.1 9.3 30 9.4 C 29.8 9.4 29.8 9.5 29.8 9.6 C 29.8 9.7 29.8 9.7 29.8 9.8 C 29.9 9.8 30 9.9 30.2 9.9 C 30.5 10 30.7 10.1 30.8 10.2 C 30.9 10.2 30.9 10.3 30.9 10.5 C 30.9 10.6 30.8 10.8 30.5 11 C 30.2 11.1 29.9 11.2 29.6 11.2 C 29.5 11.2 29.4 11.2 29.4 11.2 C 29.3 11.1 29.3 11.1 29.3 11 C 29.3 10.9 29.3 10.9 29.3 10.9 C 29.3 10.8 29.4 10.8 29.4 10.8 C 29.4 10.8 29.5 10.8 29.5 10.8 C 29.6 10.9 29.7 10.9 29.8 10.9 C 29.9 10.9 30.1 10.8 30.3 10.7 C 30.5 10.7 30.6 10.6 30.6 10.5 C 30.6 10.5 30.5 10.4 30.5 10.4 C 30.4 10.4 30.3 10.3 30.2 10.3 C 30 10.2 29.8 10.1 29.7 10.1 C 29.6 10.1 29.5 10 29.5 9.9 C 29.4 9.9 29.4 9.8 29.4 9.7 C 29.4 9.5 29.5 9.3 29.7 9.2 C 29.9 9 30.2 8.9 30.5 8.9 C 30.6 8.9 30.8 9 30.9 9 C 31 9.1 31 9.2 31 9.2 C 31 9.2 31 9.2 31 9.2 Z M 32.1 11.2 C 32 11.2 31.8 11.1 31.7 11.1 C 31.6 11 31.4 10.9 31.4 10.7 C 31.3 10.6 31.3 10.4 31.3 10.2 C 31.3 10.1 31.3 10 31.3 9.9 C 31.3 9.9 31.3 9.6 31.3 9.6 C 31.4 9.5 31.4 9.5 31.4 9.5 C 31.4 9.4 31.4 9.3 31.4 9.3 C 31.4 9.2 31.4 9.1 31.5 9 C 31.5 9 31.6 8.9 31.6 8.9 C 31.7 8.9 31.7 9 31.7 9 C 31.8 9.1 31.8 9.1 31.8 9.2 C 31.8 9.2 31.8 9.3 31.7 9.5 C 31.7 9.5 31.7 9.6 31.7 9.8 C 31.6 10 31.6 10.1 31.6 10.2 C 31.6 10.5 31.7 10.6 31.8 10.7 C 31.9 10.8 32 10.9 32.1 10.9 C 32.3 10.9 32.5 10.8 32.6 10.7 C 32.7 10.6 32.7 10.4 32.8 10.2 C 32.8 10.1 32.8 10.1 32.8 10 C 32.8 9.9 32.8 9.9 32.8 9.8 C 32.8 9.4 32.9 9.2 32.9 9.1 C 32.9 9 33 9 33.1 9 C 33.2 9 33.2 9.1 33.2 9.2 C 33.2 9.3 33.2 9.4 33.2 9.6 C 33.2 9.7 33.1 9.9 33.1 10 C 33.1 10.3 33.1 10.5 33 10.6 C 33 10.8 32.8 10.9 32.7 11 C 32.5 11.1 32.3 11.2 32.1 11.2 Z M 33.9 10.6 C 33.9 10.6 33.9 10.6 33.8 10.6 C 33.8 10.6 33.8 10.7 33.7 10.9 C 33.6 11 33.5 11.1 33.5 11.1 C 33.5 11.1 33.5 11.1 33.4 11.1 C 33.4 11.1 33.4 11.1 33.3 11.1 C 33.3 11 33.2 11 33.2 11 C 33.2 10.9 33.3 10.7 33.6 10.3 C 33.7 10.1 33.9 9.9 34 9.7 C 34.2 9.3 34.3 9.1 34.4 9 C 34.4 9 34.5 8.9 34.5 8.9 C 34.6 8.9 34.7 8.9 34.7 9 C 34.7 9 34.7 9 34.7 9.1 C 34.7 9.1 34.7 9.2 34.7 9.2 C 34.9 9.7 35 10.1 35.1 10.3 C 35.2 10.6 35.3 10.7 35.4 10.8 C 35.5 10.9 35.5 10.9 35.5 10.9 C 35.5 10.9 35.6 11 35.6 11 C 35.6 11.1 35.5 11.1 35.5 11.1 C 35.5 11.2 35.4 11.2 35.4 11.2 C 35.3 11.2 35.2 11.1 35.1 11.1 C 35 11 35 10.9 34.9 10.7 C 34.8 10.6 34.8 10.5 34.8 10.5 C 34.8 10.5 34.8 10.4 34.8 10.4 C 34.7 10.4 34.6 10.5 34.4 10.5 C 34.3 10.5 34.1 10.6 34 10.6 C 34 10.6 34 10.6 33.9 10.6 C 33.9 10.6 33.9 10.6 33.9 10.6 Z M 34.6 10.2 C 34.6 10.2 34.6 10.2 34.7 10.2 C 34.7 10.1 34.6 9.9 34.5 9.5 C 34.5 9.5 34.5 9.5 34.5 9.5 C 34.5 9.5 34 10.3 34 10.3 C 34.1 10.3 34.2 10.2 34.2 10.2 C 34.3 10.2 34.4 10.2 34.6 10.2 C 34.6 10.2 34.6 10.2 34.6 10.2 Z " stroke="none" fill="#000"/>  </g>  <g id="Polygon15327">    <path d="M 3.2 6.6 C 3.2 6.6 3.1 6.6 3.1 6.6 C 3.1 6.6 3 6.7 3 6.9 C 2.9 7 2.8 7.1 2.8 7.1 C 2.7 7.1 2.7 7.1 2.7 7.1 C 2.6 7.1 2.6 7.1 2.6 7.1 C 2.5 7 2.5 7 2.5 7 C 2.5 6.9 2.6 6.7 2.9 6.3 C 3 6.1 3.1 5.9 3.2 5.7 C 3.4 5.3 3.6 5.1 3.6 5 C 3.7 5 3.7 4.9 3.8 4.9 C 3.9 4.9 3.9 4.9 4 5 C 4 5 4 5 4 5.1 C 4 5.1 4 5.2 4 5.2 C 4.2 5.7 4.3 6.1 4.4 6.3 C 4.5 6.6 4.6 6.7 4.7 6.8 C 4.7 6.9 4.8 6.9 4.8 6.9 C 4.8 6.9 4.8 7 4.8 7 C 4.8 7.1 4.8 7.1 4.7 7.1 C 4.7 7.2 4.7 7.2 4.6 7.2 C 4.5 7.2 4.5 7.1 4.4 7.1 C 4.3 7 4.2 6.9 4.2 6.7 C 4.1 6.6 4.1 6.5 4.1 6.5 C 4.1 6.5 4.1 6.4 4.1 6.4 C 4 6.4 3.9 6.5 3.7 6.5 C 3.5 6.5 3.4 6.6 3.3 6.6 C 3.2 6.6 3.2 6.6 3.2 6.6 C 3.2 6.6 3.2 6.6 3.2 6.6 Z M 3.8 6.2 C 3.9 6.2 3.9 6.2 3.9 6.2 C 3.9 6.1 3.9 5.9 3.7 5.5 C 3.7 5.5 3.7 5.5 3.7 5.5 C 3.7 5.5 3.3 6.3 3.3 6.3 C 3.4 6.3 3.4 6.2 3.5 6.2 C 3.5 6.2 3.6 6.2 3.8 6.2 C 3.8 6.2 3.8 6.2 3.8 6.2 Z M 6.6 5.2 C 6.8 5.3 6.9 5.4 6.9 5.5 C 7 5.7 7 5.8 7 6 C 7 6.1 7 6.3 6.9 6.4 C 6.8 6.6 6.7 6.7 6.5 6.9 C 6.7 7.1 6.8 7.2 6.8 7.3 C 6.9 7.3 6.9 7.4 6.9 7.4 C 6.9 7.4 6.8 7.4 6.8 7.5 C 6.7 7.5 6.7 7.6 6.7 7.6 C 6.6 7.6 6.6 7.5 6.5 7.5 C 6.5 7.4 6.4 7.3 6.3 7.2 C 6.2 7.1 6.2 7 6.2 7 C 6.2 7 6.2 7 6.1 7 C 6 7.1 5.8 7.1 5.7 7.1 C 5.5 7.1 5.3 7 5.1 6.9 C 5 6.8 4.9 6.7 4.9 6.5 C 4.9 6.2 5 6 5.1 5.8 C 5.3 5.5 5.5 5.3 5.7 5.1 C 6 5 6.2 4.9 6.4 4.9 C 6.4 4.9 6.5 4.9 6.5 5 C 6.6 5 6.6 5.1 6.6 5.2 Z M 5.7 6.8 C 5.7 6.8 5.8 6.8 6 6.8 C 5.9 6.7 5.9 6.7 5.9 6.7 C 5.8 6.6 5.8 6.5 5.8 6.5 C 5.8 6.5 5.8 6.5 5.9 6.4 C 5.9 6.4 6 6.3 6.1 6.3 C 6.1 6.3 6.2 6.4 6.2 6.4 C 6.2 6.5 6.2 6.5 6.2 6.6 C 6.3 6.6 6.3 6.6 6.3 6.6 C 6.4 6.6 6.5 6.6 6.6 6.4 C 6.7 6.3 6.7 6.1 6.7 6 C 6.7 5.8 6.6 5.6 6.5 5.5 C 6.4 5.3 6.3 5.2 6.2 5.2 C 6.1 5.2 6 5.3 5.8 5.4 C 5.7 5.6 5.5 5.7 5.4 5.9 C 5.3 6.1 5.3 6.3 5.3 6.4 C 5.3 6.6 5.3 6.6 5.4 6.7 C 5.5 6.8 5.6 6.8 5.7 6.8 C 5.7 6.8 5.7 6.8 5.7 6.8 Z M 8.2 7.2 C 8.1 7.2 8 7.1 7.8 7.1 C 7.7 7 7.6 6.9 7.5 6.7 C 7.4 6.6 7.4 6.4 7.4 6.2 C 7.4 6.1 7.4 6 7.4 5.9 C 7.4 5.9 7.5 5.6 7.5 5.6 C 7.5 5.5 7.5 5.5 7.5 5.5 C 7.5 5.4 7.5 5.3 7.5 5.3 C 7.5 5.2 7.6 5.1 7.6 5 C 7.6 5 7.7 4.9 7.8 4.9 C 7.8 4.9 7.8 5 7.9 5 C 7.9 5.1 7.9 5.1 7.9 5.2 C 7.9 5.2 7.9 5.3 7.8 5.5 C 7.8 5.5 7.8 5.6 7.8 5.8 C 7.8 6 7.7 6.1 7.7 6.2 C 7.7 6.5 7.8 6.6 7.9 6.7 C 8 6.8 8.1 6.9 8.2 6.9 C 8.4 6.9 8.6 6.8 8.7 6.7 C 8.8 6.6 8.8 6.4 8.9 6.2 C 8.9 6.1 8.9 6.1 8.9 6 C 8.9 5.9 8.9 5.9 8.9 5.8 C 8.9 5.4 9 5.2 9 5.1 C 9.1 5 9.1 5 9.2 5 C 9.3 5 9.4 5.1 9.4 5.2 C 9.4 5.3 9.3 5.4 9.3 5.6 C 9.3 5.7 9.3 5.9 9.3 6 C 9.2 6.3 9.2 6.5 9.1 6.6 C 9.1 6.8 9 6.9 8.8 7 C 8.6 7.1 8.4 7.2 8.2 7.2 Z M 10.1 5.6 C 10.1 5.7 10.1 5.8 10.1 5.8 C 10.1 5.9 10.1 5.9 10.1 6.1 C 10 6.3 10 6.4 10 6.5 C 10 6.6 10 6.7 10 6.9 C 10 7 10 7 10 7.1 C 9.9 7.1 9.9 7.1 9.8 7.1 C 9.8 7.1 9.7 7.1 9.7 7 C 9.6 7 9.6 6.9 9.6 6.7 C 9.6 6.6 9.7 6.4 9.7 6.1 C 9.7 6.1 9.8 5.5 9.8 5.5 C 9.8 5.4 9.8 5.3 9.8 5.3 C 9.8 5.1 9.8 5.1 9.9 5.1 C 9.9 5 9.9 5 10 5 C 10 5 10 4.9 10.1 4.9 C 10.1 4.9 10.2 5 10.2 5 C 10.2 5.1 10.2 5.1 10.2 5.2 C 10.2 5.2 10.1 5.6 10.1 5.6 Z M 11.7 6.6 C 11.7 6.6 11.79 6.1 11.8 6.1 C 11.9 5.7 11.9 5.4 11.9 5.3 C 11.9 5.2 11.9 5.2 11.9 5.1 C 11.9 5.1 12 5.1 12 5.1 C 12 5 12.1 5 12.1 5 C 12.2 5 12.2 5 12.2 5 C 12.3 5.1 12.3 5.1 12.3 5.2 C 12.4 5.4 12.5 5.6 12.6 5.9 C 12.8 6.2 13 6.4 13.1 6.6 C 13.1 6.4 13.2 6.2 13.2 5.9 C 13.3 5.7 13.3 5.6 13.3 5.4 C 13.3 5.3 13.4 5.2 13.4 5.1 C 13.4 5 13.4 5 13.4 4.9 C 13.5 4.9 13.5 4.9 13.6 4.9 C 13.6 4.9 13.6 4.9 13.7 5 C 13.7 5 13.7 5.1 13.7 5.1 C 13.7 5.2 13.7 5.3 13.7 5.4 C 13.6 5.6 13.6 5.9 13.5 6.2 C 13.4 6.6 13.4 6.8 13.4 6.8 C 13.4 6.8 13.4 6.9 13.4 6.9 C 13.4 6.9 13.4 7 13.4 7 C 13.4 7 13.4 7.1 13.3 7.1 C 13.3 7.1 13.2 7.1 13.2 7.1 C 13.1 7.1 13.1 7.1 13.1 7.1 C 13.1 7.1 13.1 7.1 13 7 C 13 7 13 7 12.9 6.9 C 12.9 6.8 12.9 6.8 12.8 6.7 C 12.6 6.5 12.4 6.1 12.2 5.7 C 12.1 5.8 12.1 6.1 12 6.6 C 12 6.6 12 6.7 12 6.7 C 12 6.7 12 6.8 12 6.9 C 12 7 12 7.1 11.9 7.1 C 11.9 7.2 11.8 7.2 11.8 7.2 C 11.7 7.2 11.7 7.2 11.7 7.1 C 11.6 7.1 11.6 7 11.6 6.9 C 11.6 6.9 11.6 6.7 11.7 6.6 C 11.68 6.6 11.7 6.6 11.7 6.6 Z M 14.6 7.2 C 14.4 7.2 14.2 7.1 14.1 6.9 C 14 6.8 13.9 6.6 13.9 6.4 C 13.9 6.2 14 6 14.1 5.8 C 14.2 5.5 14.4 5.3 14.6 5.2 C 14.8 5 15 4.9 15.2 4.9 C 15.4 4.9 15.5 5 15.6 5 C 15.7 5 15.8 5.1 15.9 5.2 C 16 5.2 16 5.3 16.1 5.4 C 16.1 5.5 16.1 5.6 16.1 5.7 C 16.1 5.9 16.1 6 16 6.2 C 15.9 6.4 15.8 6.5 15.6 6.7 C 15.5 6.8 15.3 7 15.2 7 C 15 7.1 14.8 7.2 14.6 7.2 Z M 14.3 6.4 C 14.3 6.6 14.3 6.7 14.4 6.7 C 14.5 6.8 14.6 6.9 14.7 6.9 C 14.9 6.9 15.2 6.7 15.4 6.5 C 15.6 6.2 15.7 6 15.7 5.7 C 15.7 5.6 15.7 5.5 15.7 5.4 C 15.6 5.4 15.6 5.3 15.5 5.3 C 15.4 5.2 15.3 5.2 15.2 5.2 C 15 5.2 14.8 5.4 14.6 5.6 C 14.4 5.9 14.3 6.2 14.3 6.4 Z M 18.8 6.7 C 18.9 6.6 18.9 6.6 19 6.6 C 19 6.6 19.1 6.6 19.1 6.7 C 19.1 6.8 19 6.9 18.8 7 C 18.5 7.1 18.3 7.2 18.1 7.2 C 18 7.2 17.8 7.1 17.6 7 C 17.5 6.9 17.4 6.7 17.4 6.5 C 17.4 6.3 17.5 6 17.6 5.8 C 17.8 5.5 18 5.3 18.2 5.1 C 18.5 4.9 18.7 4.8 18.9 4.8 C 19 4.8 19.1 4.9 19.2 4.9 C 19.3 5 19.3 5.1 19.3 5.2 C 19.3 5.3 19.3 5.4 19.3 5.5 C 19.3 5.5 19.3 5.6 19.2 5.6 C 19.1 5.6 19.1 5.6 19.1 5.6 C 19 5.6 19 5.6 19 5.6 C 18.9 5.6 18.9 5.5 18.9 5.5 C 18.9 5.5 18.9 5.4 18.9 5.4 C 19 5.3 19 5.3 19 5.2 C 19 5.1 18.9 5.1 18.9 5.1 C 18.8 5.1 18.6 5.2 18.4 5.3 C 18.2 5.5 18.1 5.7 18 5.9 C 17.9 6.1 17.8 6.3 17.8 6.5 C 17.8 6.6 17.8 6.7 17.9 6.8 C 18 6.9 18 6.9 18.2 6.9 C 18.2 6.9 18.3 6.9 18.5 6.8 C 18.6 6.8 18.7 6.7 18.8 6.7 C 18.8 6.7 18.8 6.7 18.8 6.7 Z M 20 6.3 C 19.9 6.3 19.9 6.4 19.9 6.7 C 19.9 6.8 19.9 6.9 19.9 7 C 19.8 7.1 19.8 7.2 19.7 7.2 C 19.7 7.2 19.6 7.2 19.6 7.1 C 19.5 7.1 19.5 7 19.5 7 C 19.5 6.9 19.5 6.8 19.6 6.7 C 19.6 6.4 19.7 5.9 19.8 5.1 C 19.8 5 19.8 5 19.8 5 C 19.9 5 19.9 4.9 19.9 4.9 C 20.1 4.9 20.1 5 20.1 5.2 C 20.1 5.2 20.1 5.4 20.1 5.5 C 20 5.7 20 5.8 20 5.9 C 20 5.9 20.1 5.9 20.1 5.9 C 20.3 5.9 20.5 5.9 20.7 5.9 C 21 5.9 21.1 5.8 21.1 5.8 C 21.1 5.8 21.2 5.7 21.2 5.5 C 21.2 5.4 21.2 5.2 21.2 5 C 21.2 5 21.2 4.9 21.3 4.9 C 21.3 4.9 21.4 4.8 21.4 4.8 C 21.5 4.8 21.5 4.9 21.5 4.9 C 21.6 4.9 21.6 5 21.6 5 C 21.6 5.1 21.6 5.2 21.5 5.4 C 21.5 5.6 21.5 5.9 21.4 6.2 C 21.4 6.6 21.4 6.8 21.4 6.9 C 21.4 7 21.4 7 21.3 7.1 C 21.3 7.1 21.2 7.2 21.2 7.2 C 21.1 7.2 21.1 7.1 21.1 7.1 C 21 7.1 21 7 21 7 C 21 6.9 21 6.8 21 6.6 C 21.1 6.4 21.1 6.3 21.1 6.2 C 21.1 6.2 21.1 6.2 21 6.2 C 21 6.2 20.9 6.2 20.8 6.2 C 20.6 6.2 20.5 6.2 20.5 6.2 C 20.5 6.2 20.4 6.2 20.2 6.2 C 20.1 6.2 20 6.2 20 6.3 Z M 22.7 7.2 C 22.6 7.2 22.5 7.1 22.3 7.1 C 22.2 7 22.1 6.9 22 6.7 C 21.9 6.6 21.9 6.4 21.9 6.2 C 21.9 6.1 21.9 6 21.9 5.9 C 21.9 5.9 22 5.6 22 5.6 C 22 5.5 22 5.5 22 5.5 C 22 5.4 22 5.3 22 5.3 C 22 5.2 22.1 5.1 22.1 5 C 22.1 5 22.2 4.9 22.3 4.9 C 22.3 4.9 22.3 5 22.4 5 C 22.4 5.1 22.4 5.1 22.4 5.2 C 22.4 5.2 22.4 5.3 22.4 5.5 C 22.3 5.5 22.3 5.6 22.3 5.8 C 22.3 6 22.3 6.1 22.3 6.2 C 22.3 6.5 22.3 6.6 22.4 6.7 C 22.5 6.8 22.6 6.9 22.7 6.9 C 22.9 6.9 23.1 6.8 23.2 6.7 C 23.3 6.6 23.4 6.4 23.4 6.2 C 23.4 6.1 23.4 6.1 23.4 6 C 23.4 5.9 23.4 5.9 23.4 5.8 C 23.5 5.4 23.5 5.2 23.5 5.1 C 23.6 5 23.6 5 23.7 5 C 23.8 5 23.9 5.1 23.9 5.2 C 23.9 5.3 23.9 5.4 23.8 5.6 C 23.8 5.7 23.8 5.9 23.8 6 C 23.8 6.3 23.7 6.5 23.6 6.6 C 23.6 6.8 23.5 6.9 23.3 7 C 23.1 7.1 22.9 7.2 22.7 7.2 Z M 24.3 5.3 C 24.3 5.3 24.3 5.28 24.3 5.3 C 24.3 5.2 24.2 5.2 24.2 5.2 C 24.2 5.1 24.3 5.1 24.3 5 C 24.4 5 24.4 5 24.5 5 C 24.5 5 24.5 5 24.5 5 C 24.5 5 24.6 5 24.6 5 C 24.9 5 25.1 4.9 25.2 4.9 C 25.4 4.9 25.6 5 25.7 5.1 C 25.8 5.2 25.9 5.3 25.9 5.5 C 25.9 5.6 25.8 5.8 25.7 5.9 C 25.6 6 25.4 6.1 25.2 6.2 C 25.5 6.5 25.8 6.7 26 6.8 C 26 6.8 26.1 6.9 26.1 6.9 C 26.1 7 26.1 7 26 7 C 26 7.1 25.9 7.1 25.9 7.1 C 25.8 7.1 25.8 7.1 25.7 7 C 25.6 7 25.5 6.9 25.4 6.8 C 25.3 6.7 25.2 6.6 25.2 6.6 C 25 6.5 24.8 6.4 24.8 6.3 C 24.7 6.3 24.6 6.3 24.6 6.1 C 24.6 6.1 24.6 6.1 24.7 6 C 24.7 6 24.8 6 24.8 6 C 24.8 6 24.9 6 24.9 6 C 24.9 6 24.9 6 24.9 6 C 25 6 25.1 5.9 25.3 5.8 C 25.4 5.7 25.5 5.6 25.5 5.5 C 25.5 5.4 25.5 5.3 25.4 5.3 C 25.3 5.2 25.3 5.2 25.1 5.2 C 25 5.2 24.9 5.2 24.8 5.2 C 24.8 5.3 24.7 5.3 24.7 5.3 C 24.7 5.3 24.7 5.3 24.7 5.3 C 24.7 5.3 24.6 5.4 24.6 5.6 C 24.6 5.8 24.5 6 24.5 6.2 C 24.5 6.4 24.5 6.6 24.5 6.7 C 24.5 6.7 24.5 6.8 24.5 6.8 C 24.5 6.9 24.5 6.9 24.5 7 C 24.5 7 24.5 7 24.4 7.1 C 24.4 7.1 24.4 7.1 24.3 7.1 C 24.2 7.1 24.1 7.1 24.1 6.9 C 24.1 6.7 24.1 6.5 24.2 6.2 C 24.2 6 24.2 5.7 24.3 5.5 C 24.3 5.5 24.3 5.4 24.3 5.4 C 24.3 5.41 24.3 5.3 24.3 5.3 Z M 26.4 5.3 C 26.4 5.3 26.42 5.28 26.4 5.3 C 26.4 5.2 26.4 5.2 26.4 5.2 C 26.4 5.1 26.4 5.1 26.4 5 C 26.5 5 26.5 5 26.6 5 C 26.6 5 26.6 5 26.6 5 C 26.7 5 26.7 5 26.7 5 C 27 5 27.2 4.9 27.3 4.9 C 27.5 4.9 27.7 5 27.8 5.1 C 27.9 5.2 28 5.3 28 5.5 C 28 5.6 27.9 5.8 27.8 5.9 C 27.7 6 27.5 6.1 27.3 6.2 C 27.7 6.5 27.9 6.7 28.1 6.8 C 28.2 6.8 28.2 6.9 28.2 6.9 C 28.2 7 28.2 7 28.1 7 C 28.1 7.1 28 7.1 28 7.1 C 28 7.1 27.9 7.1 27.8 7 C 27.7 7 27.6 6.9 27.5 6.8 C 27.4 6.7 27.3 6.6 27.3 6.6 C 27.1 6.5 27 6.4 26.9 6.3 C 26.8 6.3 26.7 6.3 26.7 6.1 C 26.7 6.1 26.7 6.1 26.8 6 C 26.8 6 26.9 6 27 6 C 27 6 27 6 27 6 C 27 6 27 6 27 6 C 27.1 6 27.2 5.9 27.4 5.8 C 27.6 5.7 27.6 5.6 27.6 5.5 C 27.6 5.4 27.6 5.3 27.5 5.3 C 27.5 5.2 27.4 5.2 27.3 5.2 C 27.1 5.2 27 5.2 27 5.2 C 26.9 5.3 26.8 5.3 26.8 5.3 C 26.8 5.3 26.8 5.3 26.8 5.3 C 26.8 5.3 26.8 5.4 26.7 5.6 C 26.7 5.8 26.7 6 26.6 6.2 C 26.6 6.4 26.6 6.6 26.6 6.7 C 26.6 6.7 26.6 6.8 26.6 6.8 C 26.6 6.9 26.6 6.9 26.6 7 C 26.6 7 26.6 7 26.6 7.1 C 26.5 7.1 26.5 7.1 26.4 7.1 C 26.3 7.1 26.2 7.1 26.2 6.9 C 26.2 6.7 26.2 6.5 26.3 6.2 C 26.3 6 26.4 5.7 26.4 5.5 C 26.4 5.5 26.4 5.4 26.4 5.4 C 26.42 5.41 26.4 5.3 26.4 5.3 Z M 28.8 6.6 C 28.8 6.6 28.8 6.6 28.7 6.6 C 28.7 6.6 28.7 6.7 28.6 6.9 C 28.5 7 28.4 7.1 28.4 7.1 C 28.4 7.1 28.3 7.1 28.3 7.1 C 28.3 7.1 28.2 7.1 28.2 7.1 C 28.1 7 28.1 7 28.1 7 C 28.1 6.9 28.2 6.7 28.5 6.3 C 28.6 6.1 28.7 5.9 28.9 5.7 C 29.1 5.3 29.2 5.1 29.3 5 C 29.3 5 29.4 4.9 29.4 4.9 C 29.5 4.9 29.6 4.9 29.6 5 C 29.6 5 29.6 5 29.6 5.1 C 29.6 5.1 29.6 5.2 29.6 5.2 C 29.8 5.7 29.9 6.1 30 6.3 C 30.1 6.6 30.2 6.7 30.3 6.8 C 30.4 6.9 30.4 6.9 30.4 6.9 C 30.4 6.9 30.4 7 30.4 7 C 30.4 7.1 30.4 7.1 30.4 7.1 C 30.3 7.2 30.3 7.2 30.2 7.2 C 30.2 7.2 30.1 7.1 30 7.1 C 29.9 7 29.9 6.9 29.8 6.7 C 29.7 6.6 29.7 6.5 29.7 6.5 C 29.7 6.5 29.7 6.4 29.7 6.4 C 29.6 6.4 29.5 6.5 29.3 6.5 C 29.2 6.5 29 6.6 28.9 6.6 C 28.9 6.6 28.9 6.6 28.8 6.6 C 28.8 6.6 28.8 6.6 28.8 6.6 Z M 29.5 6.2 C 29.5 6.2 29.5 6.2 29.6 6.2 C 29.6 6.1 29.5 5.9 29.4 5.5 C 29.4 5.5 29.4 5.5 29.4 5.5 C 29.4 5.5 28.9 6.3 28.9 6.3 C 29 6.3 29.1 6.2 29.1 6.2 C 29.2 6.2 29.3 6.2 29.5 6.2 C 29.5 6.2 29.5 6.2 29.5 6.2 Z M 32.3 5.2 C 32.3 5.4 32.2 5.5 32 5.5 C 32 5.4 31.9 5.3 31.9 5.3 C 31.8 5.3 31.8 5.2 31.7 5.2 C 31.5 5.2 31.4 5.3 31.2 5.4 C 31.1 5.4 31 5.5 31 5.6 C 31 5.7 31 5.7 31.1 5.8 C 31.1 5.8 31.3 5.9 31.5 5.9 C 31.7 6 31.9 6.1 32 6.2 C 32.1 6.2 32.2 6.3 32.2 6.5 C 32.2 6.6 32 6.8 31.8 7 C 31.5 7.1 31.2 7.2 30.9 7.2 C 30.8 7.2 30.7 7.2 30.6 7.2 C 30.6 7.1 30.5 7.1 30.5 7 C 30.5 6.9 30.5 6.9 30.6 6.9 C 30.6 6.8 30.6 6.8 30.7 6.8 C 30.7 6.8 30.7 6.8 30.7 6.8 C 30.8 6.9 30.9 6.9 31 6.9 C 31.2 6.9 31.3 6.8 31.5 6.7 C 31.7 6.7 31.8 6.6 31.8 6.5 C 31.8 6.5 31.8 6.4 31.7 6.4 C 31.7 6.4 31.6 6.3 31.5 6.3 C 31.2 6.2 31.1 6.1 31 6.1 C 30.9 6.1 30.8 6 30.7 5.9 C 30.7 5.9 30.6 5.8 30.6 5.7 C 30.6 5.5 30.8 5.3 31 5.2 C 31.2 5 31.4 4.9 31.7 4.9 C 31.9 4.9 32 5 32.1 5 C 32.2 5.1 32.3 5.2 32.3 5.2 C 32.3 5.2 32.3 5.2 32.3 5.2 Z M 33.8 6.7 C 33.9 6.6 33.9 6.6 34 6.6 C 34 6.6 34.1 6.6 34.1 6.7 C 34.1 6.8 34 6.9 33.8 7 C 33.5 7.1 33.3 7.2 33.1 7.2 C 33 7.2 32.8 7.1 32.6 7 C 32.5 6.9 32.4 6.7 32.4 6.5 C 32.4 6.3 32.5 6 32.6 5.8 C 32.8 5.5 33 5.3 33.2 5.1 C 33.5 4.9 33.7 4.8 33.9 4.8 C 34 4.8 34.1 4.9 34.2 4.9 C 34.3 5 34.3 5.1 34.3 5.2 C 34.3 5.3 34.3 5.4 34.3 5.5 C 34.3 5.5 34.3 5.6 34.2 5.6 C 34.1 5.6 34.1 5.6 34.1 5.6 C 34 5.6 34 5.6 34 5.6 C 33.9 5.6 33.9 5.5 33.9 5.5 C 33.9 5.5 33.9 5.4 33.9 5.4 C 34 5.3 34 5.3 34 5.2 C 34 5.1 33.9 5.1 33.9 5.1 C 33.8 5.1 33.6 5.2 33.4 5.3 C 33.2 5.5 33.1 5.7 33 5.9 C 32.9 6.1 32.8 6.3 32.8 6.5 C 32.8 6.6 32.8 6.7 32.9 6.8 C 33 6.9 33 6.9 33.2 6.9 C 33.2 6.9 33.3 6.9 33.5 6.8 C 33.6 6.8 33.7 6.7 33.8 6.7 C 33.8 6.7 33.8 6.7 33.8 6.7 Z M 35.1 7.2 C 34.9 7.2 34.8 7.1 34.6 6.9 C 34.5 6.8 34.4 6.6 34.4 6.4 C 34.4 6.2 34.5 6 34.6 5.8 C 34.8 5.5 34.9 5.3 35.1 5.2 C 35.3 5 35.5 4.9 35.7 4.9 C 35.9 4.9 36 5 36.1 5 C 36.2 5 36.3 5.1 36.4 5.2 C 36.5 5.2 36.6 5.3 36.6 5.4 C 36.6 5.5 36.6 5.6 36.6 5.7 C 36.6 5.9 36.6 6 36.5 6.2 C 36.4 6.4 36.3 6.5 36.2 6.7 C 36 6.8 35.9 7 35.7 7 C 35.5 7.1 35.3 7.2 35.1 7.2 Z M 34.8 6.4 C 34.8 6.6 34.9 6.7 34.9 6.7 C 35 6.8 35.1 6.9 35.2 6.9 C 35.4 6.9 35.7 6.7 35.9 6.5 C 36.1 6.2 36.3 6 36.3 5.7 C 36.3 5.6 36.2 5.5 36.2 5.4 C 36.2 5.4 36.1 5.3 36 5.3 C 35.9 5.2 35.8 5.2 35.7 5.2 C 35.5 5.2 35.3 5.4 35.1 5.6 C 34.9 5.9 34.8 6.2 34.8 6.4 Z M 36.6 7.3 C 36.6 7.3 36.6 7.3 36.7 7.3 C 36.7 7.3 36.8 7.2 36.9 7.2 C 36.9 7.1 37 7.1 37 7 C 37 7 37.1 6.9 37.1 6.9 C 37.1 6.9 37 6.8 37 6.8 C 37 6.7 37 6.7 37 6.7 C 37 6.7 37 6.6 37 6.6 C 37.1 6.6 37.1 6.5 37.1 6.5 C 37.1 6.5 37.2 6.6 37.2 6.6 C 37.3 6.6 37.3 6.6 37.3 6.6 C 37.3 6.7 37.4 6.7 37.4 6.8 C 37.4 6.8 37.4 6.9 37.4 6.9 C 37.4 6.9 37.4 7 37.3 7.1 C 37.3 7.2 37.2 7.2 37.2 7.3 C 37.1 7.3 37 7.4 37 7.4 C 37 7.4 37 7.4 37 7.4 C 36.8 7.4 36.8 7.4 36.7 7.4 C 36.7 7.4 36.6 7.4 36.6 7.3 C 36.6 7.3 36.6 7.3 36.6 7.3 Z " stroke="none" fill="#000"/>  </g></svg>