<?xml version="1.0" standalone="no"?><!DOCTYPE svg PUBLIC "-//W3C//DTD SVG 1.1//EN" "http://www.w3.org/Graphics/SVG/1.1/DTD/svg11.dtd"><svg xmlns="http://www.w3.org/2000/svg" version="1.1" width="130px" height="19.6px" viewBox="0 -3 130 19.6" style="top:-3px">  <desc>OS 4 AMIGOS SONHAM COM UMA VIDA MELHOR COM O VOTO DISTRITAL PURO.</desc>  <defs/>  <g id="Polygon16506">    <path d="M 2.5 10.6 C 2.7 10.5 2.8 10.4 2.8 10.4 C 3 10.4 3 10.5 3 10.6 C 3 10.7 2.8 10.9 2.5 11.1 C 2.1 11.4 1.8 11.5 1.4 11.5 C 1.1 11.5 0.9 11.4 0.6 11.2 C 0.4 11 0.2 10.7 0.2 10.3 C 0.2 9.9 0.4 9.5 0.6 9.1 C 0.9 8.6 1.2 8.2 1.6 7.9 C 2 7.7 2.4 7.5 2.7 7.5 C 2.9 7.5 3.1 7.6 3.3 7.7 C 3.4 7.8 3.4 8 3.4 8.2 C 3.4 8.3 3.4 8.5 3.4 8.6 C 3.4 8.6 3.3 8.7 3.2 8.8 C 3.1 8.8 3 8.9 3 8.9 C 2.9 8.9 2.9 8.8 2.8 8.8 C 2.8 8.8 2.8 8.7 2.8 8.6 C 2.8 8.6 2.8 8.5 2.8 8.4 C 2.8 8.3 2.8 8.2 2.8 8.1 C 2.8 8 2.8 8 2.7 8 C 2.5 8 2.2 8.1 1.9 8.4 C 1.6 8.6 1.4 8.9 1.2 9.3 C 1 9.7 0.9 10 0.9 10.3 C 0.9 10.5 0.9 10.6 1 10.8 C 1.1 10.9 1.3 10.9 1.5 10.9 C 1.6 10.9 1.8 10.9 2 10.8 C 2.2 10.8 2.3 10.7 2.5 10.6 C 2.5 10.6 2.5 10.6 2.5 10.6 Z M 4.7 11.4 C 4.4 11.4 4.2 11.3 4 11 C 3.7 10.8 3.6 10.5 3.6 10.2 C 3.6 9.9 3.7 9.5 3.9 9.1 C 4.1 8.7 4.4 8.3 4.7 8.1 C 5 7.8 5.4 7.7 5.7 7.7 C 6 7.7 6.2 7.7 6.4 7.8 C 6.6 7.8 6.7 7.9 6.9 8.1 C 7 8.2 7.1 8.3 7.2 8.5 C 7.2 8.6 7.3 8.8 7.3 9 C 7.3 9.2 7.2 9.5 7.1 9.8 C 6.9 10.1 6.7 10.3 6.5 10.6 C 6.2 10.9 6 11.1 5.7 11.2 C 5.5 11.3 5.1 11.4 4.7 11.4 Z M 4.3 10.2 C 4.3 10.4 4.3 10.5 4.4 10.7 C 4.5 10.8 4.7 10.9 4.8 10.9 C 5.3 10.9 5.7 10.7 6.1 10.3 C 6.4 9.8 6.6 9.4 6.6 8.9 C 6.6 8.8 6.6 8.6 6.5 8.5 C 6.5 8.4 6.4 8.3 6.2 8.3 C 6.1 8.2 5.9 8.2 5.7 8.2 C 5.4 8.2 5.1 8.4 4.8 8.8 C 4.4 9.3 4.3 9.7 4.3 10.2 Z M 11.1 8.7 C 11.1 8.7 11.1 8.6 11.1 8.6 C 11.1 8.6 10.3 9.7 10.3 9.7 C 9.9 10.2 9.6 10.4 9.4 10.4 C 9.3 10.4 9.2 10.4 9.1 10.3 C 9.1 10.2 9 10 8.9 9.8 C 8.8 9.6 8.8 9.4 8.8 9.3 C 8.7 9 8.6 8.9 8.6 8.8 C 8.6 8.8 8.5 9.5 8.5 9.5 C 8.5 9.7 8.4 9.9 8.4 10 C 8.3 10.2 8.3 10.4 8.2 10.7 C 8.2 10.9 8.2 11.1 8.2 11.2 C 8.2 11.2 8.1 11.3 8 11.3 C 8 11.4 7.9 11.4 7.9 11.4 C 7.8 11.4 7.7 11.4 7.7 11.3 C 7.6 11.2 7.5 11.2 7.5 11.1 C 7.5 10.9 7.6 10.7 7.6 10.5 C 7.9 9.5 8.1 8.9 8.1 8.6 C 8.1 8.4 8.2 8.2 8.2 8 C 8.2 7.9 8.2 7.8 8.3 7.8 C 8.4 7.7 8.5 7.7 8.6 7.7 C 8.6 7.7 8.7 7.8 8.8 7.8 C 8.8 7.9 8.9 8 8.9 8.1 C 8.91 8.09 8.9 8.1 8.9 8.1 C 8.9 8.1 9.25 9.04 9.2 9 C 9.4 9.4 9.5 9.7 9.5 9.8 C 9.7 9.6 10 9.2 10.3 8.8 C 10.6 8.3 10.9 8 11 7.9 C 11.1 7.7 11.2 7.7 11.3 7.7 C 11.4 7.7 11.4 7.7 11.5 7.8 C 11.6 7.8 11.7 7.9 11.7 7.9 C 11.7 8 11.7 8.2 11.6 8.7 C 11.6 9 11.5 9.3 11.5 9.7 C 11.4 10.1 11.4 10.4 11.4 10.4 C 11.4 10.5 11.4 10.6 11.5 10.7 C 11.5 10.8 11.5 10.9 11.5 10.9 C 11.5 11.1 11.5 11.2 11.4 11.2 C 11.3 11.3 11.3 11.3 11.1 11.3 C 10.9 11.3 10.8 11.2 10.8 10.9 C 10.8 10.5 10.8 10.2 10.9 9.7 C 11 9.3 11 9 11.1 8.7 C 11.1 8.7 11.1 8.7 11.1 8.7 Z M 15.1 11.4 C 14.8 11.4 14.6 11.3 14.4 11 C 14.2 10.8 14.1 10.5 14.1 10.2 C 14.1 9.9 14.2 9.5 14.4 9.1 C 14.6 8.7 14.8 8.3 15.2 8.1 C 15.5 7.8 15.8 7.7 16.2 7.7 C 16.4 7.7 16.7 7.7 16.8 7.8 C 17 7.8 17.2 7.9 17.3 8.1 C 17.5 8.2 17.6 8.3 17.6 8.5 C 17.7 8.6 17.7 8.8 17.7 9 C 17.7 9.2 17.6 9.5 17.5 9.8 C 17.4 10.1 17.2 10.3 16.9 10.6 C 16.7 10.9 16.4 11.1 16.1 11.2 C 15.9 11.3 15.5 11.4 15.1 11.4 Z M 14.7 10.2 C 14.7 10.4 14.7 10.5 14.9 10.7 C 15 10.8 15.1 10.9 15.3 10.9 C 15.7 10.9 16.1 10.7 16.5 10.3 C 16.9 9.8 17.1 9.4 17.1 8.9 C 17.1 8.8 17 8.6 17 8.5 C 16.9 8.4 16.8 8.3 16.7 8.3 C 16.5 8.2 16.3 8.2 16.2 8.2 C 15.8 8.2 15.5 8.4 15.2 8.8 C 14.8 9.3 14.7 9.7 14.7 10.2 Z M 23.6 7.9 C 23.6 7.9 23.6 7.9 23.6 7.9 C 23.6 7.9 23.5 8 23.4 8.2 C 23.2 8.4 23.1 8.7 22.9 8.9 C 22.8 9 22.6 9.4 22.3 9.9 C 22.1 10.2 22 10.4 22 10.5 C 21.8 10.7 21.7 10.9 21.7 11 C 21.7 11.1 21.6 11.1 21.5 11.2 C 21.4 11.2 21.3 11.3 21.2 11.3 C 21.1 11.3 21.1 11.2 21 11.1 C 21 11.1 20.9 10.9 20.9 10.7 C 20.8 10.4 20.6 10 20.4 9.6 C 20.1 8.7 19.9 8.2 19.9 8.1 C 19.9 8.1 19.9 8 20 7.9 C 20 7.8 20.1 7.7 20.2 7.7 C 20.3 7.7 20.3 7.8 20.4 7.8 C 20.5 7.9 20.5 8.1 20.6 8.3 C 20.6 8.5 20.7 8.9 20.9 9.4 C 21.1 9.9 21.3 10.2 21.4 10.5 C 21.4 10.4 21.5 10.3 21.6 10.2 C 21.6 10.1 21.6 10.1 21.6 10.1 C 21.8 9.8 22 9.4 22.2 9.1 C 22.4 8.6 22.7 8.2 22.8 8 C 23 7.7 23.2 7.6 23.3 7.6 C 23.5 7.6 23.6 7.7 23.6 7.9 C 23.58 7.86 23.6 7.9 23.6 7.9 C 23.6 7.9 23.58 7.88 23.6 7.9 Z M 24.4 11.4 C 24.1 11.4 23.8 11.3 23.6 11 C 23.4 10.8 23.3 10.5 23.3 10.2 C 23.3 9.9 23.4 9.5 23.6 9.1 C 23.8 8.7 24.1 8.3 24.4 8.1 C 24.7 7.8 25 7.7 25.4 7.7 C 25.7 7.7 25.9 7.7 26.1 7.8 C 26.2 7.8 26.4 7.9 26.6 8.1 C 26.7 8.2 26.8 8.3 26.9 8.5 C 26.9 8.6 26.9 8.8 26.9 9 C 26.9 9.2 26.9 9.5 26.7 9.8 C 26.6 10.1 26.4 10.3 26.2 10.6 C 25.9 10.9 25.6 11.1 25.4 11.2 C 25.1 11.3 24.8 11.4 24.4 11.4 Z M 23.9 10.2 C 23.9 10.4 24 10.5 24.1 10.7 C 24.2 10.8 24.4 10.9 24.5 10.9 C 24.9 10.9 25.4 10.7 25.7 10.3 C 26.1 9.8 26.3 9.4 26.3 8.9 C 26.3 8.8 26.3 8.6 26.2 8.5 C 26.1 8.4 26 8.3 25.9 8.3 C 25.7 8.2 25.6 8.2 25.4 8.2 C 25.1 8.2 24.8 8.4 24.4 8.8 C 24.1 9.3 23.9 9.7 23.9 10.2 Z M 30 8.3 C 29.6 8.3 29.3 8.3 29.2 8.4 C 29.2 8.4 29.1 8.4 29.1 8.5 C 29.1 8.5 29.1 8.8 29 9.3 C 29 9.8 29 10.2 29 10.5 C 29 10.6 29 10.8 29 10.9 C 29 10.9 29 11 29 11 C 29 11.1 29 11.2 28.9 11.2 C 28.9 11.3 28.8 11.3 28.7 11.3 C 28.7 11.3 28.6 11.3 28.5 11.3 C 28.5 11.2 28.4 11.1 28.4 11 C 28.4 10.9 28.4 10.7 28.4 10.5 C 28.4 10.2 28.4 9.8 28.5 9.2 C 28.5 8.7 28.6 8.4 28.6 8.4 C 28.5 8.4 28.3 8.4 28 8.4 C 27.7 8.5 27.5 8.5 27.5 8.5 C 27.3 8.5 27.2 8.5 27.1 8.4 C 27.1 8.4 27 8.3 27 8.2 C 27 8.1 27.1 8.1 27.1 8 C 27.2 8 27.4 8 27.7 8 C 28.1 8 28.6 7.9 29 7.9 C 29.5 7.8 29.9 7.7 30.2 7.7 C 30.5 7.7 30.7 7.8 30.7 7.8 C 30.8 7.9 30.8 8 30.8 8.1 C 30.8 8.2 30.7 8.3 30.6 8.3 C 30.6 8.3 30.5 8.3 30.4 8.3 C 30.3 8.3 30.2 8.3 30 8.3 C 30 8.3 30 8.3 30 8.3 Z M 31.5 11.4 C 31.2 11.4 31 11.3 30.8 11 C 30.6 10.8 30.5 10.5 30.5 10.2 C 30.5 9.9 30.6 9.5 30.8 9.1 C 31 8.7 31.2 8.3 31.6 8.1 C 31.9 7.8 32.2 7.7 32.6 7.7 C 32.8 7.7 33.1 7.7 33.2 7.8 C 33.4 7.8 33.6 7.9 33.7 8.1 C 33.9 8.2 34 8.3 34 8.5 C 34.1 8.6 34.1 8.8 34.1 9 C 34.1 9.2 34 9.5 33.9 9.8 C 33.8 10.1 33.6 10.3 33.3 10.6 C 33.1 10.9 32.8 11.1 32.6 11.2 C 32.3 11.3 31.9 11.4 31.5 11.4 Z M 31.1 10.2 C 31.1 10.4 31.1 10.5 31.3 10.7 C 31.4 10.8 31.5 10.9 31.7 10.9 C 32.1 10.9 32.5 10.7 32.9 10.3 C 33.3 9.8 33.5 9.4 33.5 8.9 C 33.5 8.8 33.4 8.6 33.4 8.5 C 33.3 8.4 33.2 8.3 33.1 8.3 C 32.9 8.2 32.7 8.2 32.6 8.2 C 32.3 8.2 31.9 8.4 31.6 8.8 C 31.3 9.3 31.1 9.7 31.1 10.2 Z M 36.5 10.9 C 36.5 10.8 36.5 10.6 36.5 10.4 C 36.6 9.9 36.6 9.3 36.8 8.6 C 36.8 8.5 36.8 8.4 36.8 8.4 C 36.8 8.3 36.8 8.3 36.8 8.3 C 36.6 8.3 36.5 8.2 36.5 8.1 C 36.5 8 36.5 7.9 36.6 7.8 C 36.7 7.8 36.7 7.7 36.8 7.7 C 36.8 7.7 37.2 7.8 37.2 7.8 C 37.3 7.8 37.5 7.7 37.8 7.7 C 38 7.7 38.2 7.7 38.3 7.7 C 38.8 7.7 39.1 7.8 39.4 8.1 C 39.7 8.3 39.8 8.7 39.8 9.1 C 39.8 9.6 39.6 10 39.2 10.4 C 38.8 10.7 38.2 11 37.6 11.1 C 37.5 11.2 37.3 11.2 37.3 11.2 C 37.2 11.3 37.1 11.3 37 11.4 C 36.9 11.4 36.8 11.5 36.7 11.5 C 36.6 11.5 36.6 11.4 36.5 11.3 C 36.4 11.3 36.4 11.2 36.4 11.2 C 36.4 11.1 36.4 11.1 36.4 11 C 36.4 11 36.5 10.9 36.5 10.9 Z M 37.1 10.6 C 37.1 10.6 37.1 10.7 37.1 10.7 C 37.2 10.7 37.5 10.7 37.9 10.5 C 38.3 10.4 38.6 10.2 38.9 10 C 39.1 9.7 39.3 9.4 39.3 9.1 C 39.3 8.8 39.2 8.6 39 8.4 C 38.8 8.3 38.5 8.2 38.2 8.2 C 38 8.2 37.8 8.2 37.5 8.2 C 37.4 8.3 37.4 8.3 37.4 8.3 C 37.2 9.3 37.1 10.1 37.1 10.6 C 37.1 10.6 37.1 10.6 37.1 10.6 Z M 41.1 8.8 C 41.1 9 41 9.1 41 9.2 C 41 9.2 41 9.3 41 9.5 C 40.9 9.9 40.9 10.1 40.9 10.3 C 40.9 10.5 40.9 10.7 40.9 10.9 C 41 11 40.9 11.2 40.9 11.2 C 40.8 11.3 40.7 11.3 40.6 11.3 C 40.5 11.3 40.4 11.3 40.4 11.2 C 40.3 11.1 40.3 10.9 40.3 10.7 C 40.3 10.5 40.3 10.1 40.4 9.6 C 40.4 9.6 40.5 8.6 40.5 8.6 C 40.6 8.5 40.6 8.3 40.6 8.2 C 40.6 8 40.6 7.9 40.7 7.9 C 40.7 7.8 40.7 7.8 40.8 7.8 C 40.9 7.7 41 7.7 41 7.7 C 41.1 7.7 41.2 7.7 41.2 7.8 C 41.3 7.9 41.3 8 41.3 8.1 C 41.3 8.1 41.1 8.8 41.1 8.8 Z M 44.4 8.2 C 44.4 8.5 44.3 8.6 44 8.6 C 44 8.5 43.9 8.4 43.8 8.3 C 43.7 8.2 43.6 8.2 43.5 8.2 C 43.2 8.2 42.9 8.3 42.7 8.4 C 42.5 8.5 42.3 8.7 42.3 8.8 C 42.3 8.9 42.4 9 42.5 9.1 C 42.6 9.2 42.8 9.3 43.2 9.4 C 43.6 9.5 43.8 9.6 44 9.7 C 44.2 9.9 44.3 10 44.3 10.2 C 44.3 10.5 44.1 10.8 43.6 11.1 C 43.1 11.3 42.6 11.5 42.1 11.5 C 41.9 11.5 41.8 11.4 41.7 11.4 C 41.6 11.3 41.5 11.2 41.5 11.1 C 41.5 11 41.6 11 41.6 10.9 C 41.7 10.8 41.7 10.8 41.8 10.8 C 41.8 10.8 41.9 10.8 41.9 10.8 C 42.1 10.9 42.2 10.9 42.4 10.9 C 42.6 10.9 42.9 10.8 43.2 10.7 C 43.5 10.6 43.7 10.4 43.7 10.3 C 43.7 10.2 43.7 10.2 43.6 10.1 C 43.5 10.1 43.3 10 43.1 9.9 C 42.7 9.8 42.5 9.7 42.3 9.6 C 42.1 9.6 42 9.5 41.9 9.3 C 41.8 9.2 41.8 9.1 41.8 8.9 C 41.8 8.6 41.9 8.3 42.3 8 C 42.6 7.8 43.1 7.7 43.5 7.7 C 43.8 7.7 44 7.7 44.2 7.8 C 44.3 7.9 44.4 8.1 44.4 8.2 C 44.4 8.2 44.4 8.2 44.4 8.2 Z M 47.5 8.3 C 47.1 8.3 46.8 8.3 46.7 8.4 C 46.6 8.4 46.6 8.4 46.6 8.5 C 46.6 8.5 46.6 8.8 46.5 9.3 C 46.5 9.8 46.4 10.2 46.4 10.5 C 46.4 10.6 46.4 10.8 46.5 10.9 C 46.5 10.9 46.5 11 46.5 11 C 46.5 11.1 46.5 11.2 46.4 11.2 C 46.4 11.3 46.3 11.3 46.2 11.3 C 46.2 11.3 46.1 11.3 46 11.3 C 45.9 11.2 45.9 11.1 45.9 11 C 45.8 10.9 45.8 10.7 45.8 10.5 C 45.8 10.2 45.9 9.8 45.9 9.2 C 46 8.7 46 8.4 46.1 8.4 C 46 8.4 45.8 8.4 45.5 8.4 C 45.2 8.5 45 8.5 44.9 8.5 C 44.8 8.5 44.7 8.5 44.6 8.4 C 44.5 8.4 44.5 8.3 44.5 8.2 C 44.5 8.1 44.5 8.1 44.6 8 C 44.7 8 44.8 8 45.1 8 C 45.6 8 46.1 7.9 46.5 7.9 C 47 7.8 47.4 7.7 47.7 7.7 C 48 7.7 48.1 7.8 48.2 7.8 C 48.3 7.9 48.3 8 48.3 8.1 C 48.3 8.2 48.2 8.3 48.1 8.3 C 48 8.3 48 8.3 47.9 8.3 C 47.8 8.3 47.6 8.3 47.5 8.3 C 47.5 8.3 47.5 8.3 47.5 8.3 Z M 48.4 8.3 C 48.4 8.3 48.35 8.25 48.3 8.3 C 48.3 8.2 48.3 8.1 48.3 8.1 C 48.3 8 48.3 7.9 48.4 7.9 C 48.5 7.8 48.5 7.8 48.6 7.8 C 48.6 7.8 48.7 7.8 48.7 7.8 C 48.8 7.8 48.8 7.8 48.8 7.8 C 49.3 7.7 49.6 7.7 49.8 7.7 C 50.2 7.7 50.5 7.8 50.7 7.9 C 50.9 8.1 51 8.3 51 8.6 C 51 8.8 50.9 9 50.7 9.3 C 50.5 9.5 50.2 9.7 49.8 9.8 C 50.4 10.3 50.9 10.6 51.2 10.8 C 51.3 10.8 51.3 10.9 51.3 11 C 51.3 11.1 51.3 11.1 51.2 11.2 C 51.1 11.3 51.1 11.3 51 11.3 C 50.9 11.3 50.8 11.3 50.7 11.2 C 50.6 11.1 50.4 11 50.2 10.8 C 50 10.6 49.8 10.5 49.8 10.5 C 49.5 10.2 49.3 10 49.1 10 C 48.9 10 48.9 9.9 48.9 9.7 C 48.9 9.6 48.9 9.6 49 9.5 C 49.1 9.4 49.1 9.4 49.2 9.4 C 49.3 9.4 49.3 9.4 49.3 9.4 C 49.4 9.4 49.4 9.4 49.4 9.4 C 49.5 9.4 49.7 9.4 50 9.2 C 50.3 9 50.4 8.8 50.4 8.6 C 50.4 8.5 50.3 8.4 50.2 8.3 C 50.1 8.2 49.9 8.2 49.8 8.2 C 49.6 8.2 49.4 8.2 49.2 8.2 C 49.1 8.2 49 8.2 49 8.3 C 49 8.3 49 8.3 49 8.3 C 49 8.4 48.9 8.5 48.9 8.8 C 48.8 9.1 48.8 9.5 48.7 9.8 C 48.7 10.2 48.7 10.4 48.7 10.6 C 48.7 10.7 48.7 10.8 48.7 10.9 C 48.7 10.9 48.7 11 48.7 11.1 C 48.7 11.1 48.7 11.2 48.6 11.3 C 48.5 11.3 48.5 11.4 48.4 11.4 C 48.1 11.4 48 11.2 48 10.9 C 48 10.6 48.1 10.3 48.1 9.8 C 48.2 9.4 48.2 9 48.3 8.6 C 48.3 8.6 48.3 8.5 48.3 8.5 C 48.35 8.48 48.4 8.3 48.4 8.3 Z M 52.4 8.8 C 52.4 9 52.4 9.1 52.4 9.2 C 52.4 9.2 52.4 9.3 52.3 9.5 C 52.3 9.9 52.2 10.1 52.2 10.3 C 52.2 10.5 52.3 10.7 52.3 10.9 C 52.3 11 52.3 11.2 52.2 11.2 C 52.1 11.3 52 11.3 51.9 11.3 C 51.8 11.3 51.8 11.3 51.7 11.2 C 51.7 11.1 51.6 10.9 51.6 10.7 C 51.6 10.5 51.7 10.1 51.7 9.6 C 51.7 9.6 51.9 8.6 51.9 8.6 C 51.9 8.5 51.9 8.3 51.9 8.2 C 52 8 52 7.9 52 7.9 C 52 7.8 52.1 7.8 52.2 7.8 C 52.2 7.7 52.3 7.7 52.3 7.7 C 52.4 7.7 52.5 7.7 52.5 7.8 C 52.6 7.9 52.6 8 52.6 8.1 C 52.6 8.1 52.4 8.8 52.4 8.8 Z M 55.8 8.3 C 55.4 8.3 55.1 8.3 54.9 8.4 C 54.9 8.4 54.9 8.4 54.9 8.5 C 54.9 8.5 54.8 8.8 54.8 9.3 C 54.7 9.8 54.7 10.2 54.7 10.5 C 54.7 10.6 54.7 10.8 54.7 10.9 C 54.7 10.9 54.7 11 54.7 11 C 54.7 11.1 54.7 11.2 54.7 11.2 C 54.6 11.3 54.6 11.3 54.5 11.3 C 54.4 11.3 54.4 11.3 54.3 11.3 C 54.2 11.2 54.1 11.1 54.1 11 C 54.1 10.9 54.1 10.7 54.1 10.5 C 54.1 10.2 54.1 9.8 54.2 9.2 C 54.3 8.7 54.3 8.4 54.3 8.4 C 54.3 8.4 54.1 8.4 53.8 8.4 C 53.4 8.5 53.3 8.5 53.2 8.5 C 53 8.5 52.9 8.5 52.9 8.4 C 52.8 8.4 52.8 8.3 52.8 8.2 C 52.8 8.1 52.8 8.1 52.9 8 C 52.9 8 53.1 8 53.4 8 C 53.9 8 54.3 7.9 54.8 7.9 C 55.3 7.8 55.7 7.7 55.9 7.7 C 56.2 7.7 56.4 7.8 56.5 7.8 C 56.5 7.9 56.6 8 56.6 8.1 C 56.6 8.2 56.5 8.3 56.3 8.3 C 56.3 8.3 56.2 8.3 56.1 8.3 C 56 8.3 55.9 8.3 55.8 8.3 C 55.8 8.3 55.8 8.3 55.8 8.3 Z M 56.9 10.5 C 56.8 10.5 56.8 10.5 56.8 10.5 C 56.7 10.5 56.6 10.7 56.5 10.9 C 56.4 11.1 56.3 11.3 56.2 11.3 C 56.1 11.3 56.1 11.3 56.1 11.3 C 56 11.3 55.9 11.3 55.8 11.2 C 55.8 11.2 55.7 11.1 55.7 11 C 55.7 11 55.9 10.6 56.3 10 C 56.6 9.7 56.8 9.3 56.9 9 C 57.3 8.3 57.5 7.9 57.6 7.8 C 57.7 7.7 57.8 7.7 57.9 7.7 C 58 7.7 58.1 7.7 58.2 7.8 C 58.2 7.8 58.2 7.9 58.2 7.9 C 58.2 8 58.2 8.1 58.2 8.1 C 58.5 9 58.7 9.6 58.9 10 C 59.1 10.4 59.2 10.7 59.4 10.8 C 59.5 10.9 59.5 11 59.6 11 C 59.6 11 59.6 11.1 59.6 11.1 C 59.6 11.2 59.6 11.3 59.5 11.4 C 59.4 11.4 59.4 11.4 59.3 11.4 C 59.1 11.4 59 11.4 58.9 11.2 C 58.8 11.1 58.6 10.9 58.5 10.6 C 58.4 10.4 58.4 10.2 58.4 10.2 C 58.4 10.2 58.3 10.2 58.3 10.2 C 58.3 10.2 58.1 10.2 57.8 10.3 C 57.5 10.4 57.2 10.4 57 10.5 C 57 10.5 56.9 10.5 56.9 10.5 C 56.9 10.5 56.9 10.5 56.9 10.5 Z M 57.9 9.8 C 58 9.7 58.1 9.7 58.2 9.7 C 58.1 9.6 58 9.3 57.8 8.7 C 57.8 8.6 57.8 8.6 57.8 8.6 C 57.8 8.6 57.1 9.9 57.1 9.9 C 57.2 9.9 57.3 9.9 57.4 9.9 C 57.5 9.8 57.7 9.8 57.9 9.8 C 57.9 9.8 57.9 9.8 57.9 9.8 Z M 62.2 11.1 C 62.2 11.1 62.1 11.1 62 11.1 C 61.9 11.1 61.9 11.1 61.8 11.1 C 61.4 11.1 61 11.2 60.5 11.3 C 60.4 11.4 60.2 11.4 60.2 11.4 C 60.1 11.4 60 11.3 59.9 11.3 C 59.9 11.2 59.9 11.1 59.9 11 C 59.9 11 59.9 10.9 59.9 10.8 C 59.9 10.7 60 10.5 60 10.3 C 60 10.3 60.2 8.3 60.2 8.3 C 60.2 8.1 60.2 8 60.3 7.9 C 60.3 7.9 60.3 7.8 60.4 7.8 C 60.4 7.7 60.5 7.7 60.6 7.7 C 60.7 7.7 60.7 7.7 60.8 7.8 C 60.9 7.8 60.9 7.9 60.9 8 C 60.9 8 60.9 8.1 60.8 8.3 C 60.8 8.5 60.7 9 60.7 9.6 C 60.6 10.3 60.5 10.6 60.5 10.6 C 60.5 10.7 60.6 10.7 60.6 10.7 C 60.6 10.7 60.8 10.7 61.1 10.6 C 61.2 10.6 61.3 10.6 61.5 10.6 C 61.9 10.6 62.1 10.6 62.3 10.5 C 62.3 10.5 62.4 10.5 62.4 10.5 C 62.5 10.5 62.5 10.5 62.6 10.6 C 62.6 10.6 62.7 10.7 62.7 10.8 C 62.7 10.9 62.6 11 62.5 11 C 62.5 11.1 62.4 11.1 62.2 11.1 Z M 66 10.1 C 65.7 10.1 65.6 10.1 65.6 10.1 C 65.6 10.5 65.5 10.8 65.5 11.1 C 65.5 11.1 65.5 11.2 65.5 11.3 C 65.4 11.4 65.3 11.4 65.2 11.4 C 65 11.4 64.9 11.3 64.9 11 C 64.9 10.9 65 10.5 65.1 9.7 C 65.2 9.1 65.2 8.8 65.2 8.7 C 65.2 8.5 65.2 8.5 65.2 8.4 C 65.1 8.4 65 8.3 65 8.2 C 65 8 65.2 7.9 65.7 7.8 C 66.1 7.7 66.5 7.6 66.8 7.6 C 67.2 7.6 67.5 7.7 67.7 7.9 C 67.9 8 68 8.2 68 8.5 C 68 8.9 67.8 9.2 67.4 9.5 C 67 9.7 66.5 9.9 66 10.1 C 66 10.1 66 10.1 66 10.1 Z M 66.8 8.1 C 66.5 8.1 66.2 8.2 65.8 8.3 C 65.8 8.3 65.7 9.6 65.7 9.6 C 66.1 9.5 66.6 9.4 66.9 9.2 C 67.3 9 67.4 8.8 67.4 8.5 C 67.4 8.3 67.2 8.1 66.8 8.1 C 66.8 8.1 66.8 8.1 66.8 8.1 Z M 69.6 11.4 C 69.5 11.4 69.3 11.4 69 11.2 C 68.8 11.1 68.6 11 68.5 10.7 C 68.4 10.4 68.3 10.1 68.3 9.8 C 68.3 9.7 68.3 9.5 68.4 9.2 C 68.4 9.2 68.5 8.8 68.5 8.8 C 68.5 8.7 68.5 8.6 68.5 8.6 C 68.5 8.4 68.5 8.3 68.5 8.2 C 68.6 8.1 68.6 7.9 68.7 7.8 C 68.7 7.7 68.8 7.7 68.9 7.7 C 69 7.7 69 7.7 69.1 7.8 C 69.2 7.9 69.2 8 69.2 8 C 69.2 8.1 69.2 8.3 69.1 8.6 C 69.1 8.7 69 8.9 69 9.2 C 68.9 9.5 68.9 9.7 68.9 9.8 C 68.9 10.2 69 10.5 69.2 10.7 C 69.4 10.8 69.5 10.9 69.6 10.9 C 70 10.9 70.3 10.8 70.5 10.6 C 70.7 10.4 70.8 10.1 70.8 9.7 C 70.8 9.7 70.8 9.6 70.8 9.5 C 70.8 9.4 70.9 9.2 70.9 9.1 C 70.9 8.5 71 8.1 71 8 C 71.1 7.8 71.2 7.8 71.4 7.8 C 71.5 7.8 71.6 7.9 71.6 8.1 C 71.6 8.2 71.6 8.5 71.5 8.8 C 71.5 9 71.4 9.2 71.4 9.5 C 71.4 9.9 71.3 10.3 71.2 10.5 C 71.1 10.8 70.9 11 70.7 11.1 C 70.4 11.3 70 11.4 69.6 11.4 Z M 72.3 8.3 C 72.3 8.3 72.31 8.25 72.3 8.3 C 72.3 8.2 72.2 8.1 72.2 8.1 C 72.2 8 72.3 7.9 72.4 7.9 C 72.4 7.8 72.5 7.8 72.6 7.8 C 72.6 7.8 72.6 7.8 72.7 7.8 C 72.7 7.8 72.8 7.8 72.8 7.8 C 73.2 7.7 73.6 7.7 73.8 7.7 C 74.1 7.7 74.4 7.8 74.6 7.9 C 74.9 8.1 75 8.3 75 8.6 C 75 8.8 74.9 9 74.6 9.3 C 74.4 9.5 74.2 9.7 73.8 9.8 C 74.4 10.3 74.8 10.6 75.1 10.8 C 75.2 10.8 75.3 10.9 75.3 11 C 75.3 11.1 75.3 11.1 75.2 11.2 C 75.1 11.3 75 11.3 75 11.3 C 74.9 11.3 74.8 11.3 74.6 11.2 C 74.5 11.1 74.4 11 74.1 10.8 C 73.9 10.6 73.8 10.5 73.8 10.5 C 73.4 10.2 73.2 10 73.1 10 C 72.9 10 72.8 9.9 72.8 9.7 C 72.8 9.6 72.9 9.6 72.9 9.5 C 73 9.4 73.1 9.4 73.2 9.4 C 73.2 9.4 73.3 9.4 73.3 9.4 C 73.3 9.4 73.3 9.4 73.4 9.4 C 73.5 9.4 73.7 9.4 73.9 9.2 C 74.2 9 74.4 8.8 74.4 8.6 C 74.4 8.5 74.3 8.4 74.2 8.3 C 74.1 8.2 73.9 8.2 73.7 8.2 C 73.5 8.2 73.3 8.2 73.2 8.2 C 73.1 8.2 73 8.2 73 8.3 C 73 8.3 73 8.3 72.9 8.3 C 72.9 8.4 72.9 8.5 72.8 8.8 C 72.8 9.1 72.7 9.5 72.7 9.8 C 72.6 10.2 72.6 10.4 72.6 10.6 C 72.6 10.7 72.6 10.8 72.6 10.9 C 72.7 10.9 72.7 11 72.7 11.1 C 72.7 11.1 72.6 11.2 72.6 11.3 C 72.5 11.3 72.4 11.4 72.3 11.4 C 72.1 11.4 72 11.2 72 10.9 C 72 10.6 72 10.3 72.1 9.8 C 72.1 9.4 72.2 9 72.3 8.6 C 72.3 8.6 72.3 8.5 72.3 8.5 C 72.31 8.48 72.3 8.3 72.3 8.3 Z M 76.5 11.4 C 76.2 11.4 76 11.3 75.8 11 C 75.6 10.8 75.4 10.5 75.4 10.2 C 75.4 9.9 75.6 9.5 75.8 9.1 C 76 8.7 76.2 8.3 76.5 8.1 C 76.9 7.8 77.2 7.7 77.5 7.7 C 77.8 7.7 78 7.7 78.2 7.8 C 78.4 7.8 78.6 7.9 78.7 8.1 C 78.9 8.2 79 8.3 79 8.5 C 79.1 8.6 79.1 8.8 79.1 9 C 79.1 9.2 79 9.5 78.9 9.8 C 78.8 10.1 78.6 10.3 78.3 10.6 C 78.1 10.9 77.8 11.1 77.5 11.2 C 77.3 11.3 76.9 11.4 76.5 11.4 Z M 76.1 10.2 C 76.1 10.4 76.1 10.5 76.2 10.7 C 76.4 10.8 76.5 10.9 76.7 10.9 C 77.1 10.9 77.5 10.7 77.9 10.3 C 78.3 9.8 78.5 9.4 78.5 8.9 C 78.5 8.8 78.4 8.6 78.4 8.5 C 78.3 8.4 78.2 8.3 78 8.3 C 77.9 8.2 77.7 8.2 77.5 8.2 C 77.2 8.2 76.9 8.4 76.6 8.8 C 76.2 9.3 76.1 9.7 76.1 10.2 Z M 79.3 11.2 C 79.2 11.2 79.2 11.2 79.1 11.1 C 79.1 11.1 79.1 11 79.1 10.8 C 79.1 10.7 79.1 10.7 79.1 10.6 C 79.1 10.6 79.1 10.5 79.2 10.5 C 79.3 10.5 79.4 10.5 79.5 10.5 C 79.6 10.5 79.7 10.5 79.7 10.5 C 79.8 10.6 79.8 10.6 79.8 10.7 C 79.8 10.8 79.8 10.8 79.7 10.9 C 79.7 10.9 79.7 11 79.6 11.1 C 79.5 11.1 79.4 11.2 79.3 11.2 Z " stroke="none" fill="#000"/>  </g>  <g id="Polygon16505">    <path d="M 1.3 4.4 C 1 4.4 0.8 4.3 0.6 4 C 0.4 3.8 0.2 3.5 0.2 3.2 C 0.2 2.9 0.3 2.5 0.6 2.1 C 0.8 1.7 1 1.3 1.3 1.1 C 1.7 0.8 2 0.7 2.3 0.7 C 2.6 0.7 2.8 0.7 3 0.8 C 3.2 0.8 3.4 0.9 3.5 1.1 C 3.7 1.2 3.8 1.3 3.8 1.5 C 3.9 1.6 3.9 1.8 3.9 2 C 3.9 2.2 3.8 2.5 3.7 2.8 C 3.5 3.1 3.4 3.3 3.1 3.6 C 2.8 3.9 2.6 4.1 2.3 4.2 C 2.1 4.3 1.7 4.4 1.3 4.4 Z M 0.9 3.2 C 0.9 3.4 0.9 3.5 1 3.7 C 1.2 3.8 1.3 3.9 1.5 3.9 C 1.9 3.9 2.3 3.7 2.7 3.3 C 3.1 2.8 3.3 2.4 3.3 1.9 C 3.3 1.8 3.2 1.6 3.2 1.5 C 3.1 1.4 3 1.3 2.8 1.3 C 2.7 1.2 2.5 1.2 2.3 1.2 C 2 1.2 1.7 1.4 1.4 1.8 C 1 2.3 0.9 2.7 0.9 3.2 Z M 7 1.2 C 7 1.5 6.8 1.6 6.5 1.6 C 6.5 1.5 6.5 1.4 6.4 1.3 C 6.3 1.2 6.2 1.2 6 1.2 C 5.7 1.2 5.5 1.3 5.2 1.4 C 5 1.5 4.9 1.7 4.9 1.8 C 4.9 1.9 4.9 2 5 2.1 C 5.1 2.2 5.3 2.3 5.7 2.4 C 6.1 2.5 6.4 2.6 6.6 2.7 C 6.8 2.9 6.9 3 6.9 3.2 C 6.9 3.5 6.6 3.8 6.1 4.1 C 5.7 4.3 5.2 4.5 4.6 4.5 C 4.5 4.5 4.3 4.4 4.2 4.4 C 4.1 4.3 4.1 4.2 4.1 4.1 C 4.1 4 4.1 4 4.2 3.9 C 4.2 3.8 4.3 3.8 4.3 3.8 C 4.4 3.8 4.4 3.8 4.4 3.8 C 4.6 3.9 4.8 3.9 4.9 3.9 C 5.2 3.9 5.4 3.8 5.8 3.7 C 6.1 3.6 6.2 3.4 6.2 3.3 C 6.2 3.2 6.2 3.2 6.1 3.1 C 6 3.1 5.9 3 5.6 2.9 C 5.3 2.8 5 2.7 4.8 2.6 C 4.7 2.6 4.5 2.5 4.4 2.3 C 4.3 2.2 4.3 2.1 4.3 1.9 C 4.3 1.6 4.5 1.3 4.8 1 C 5.2 0.8 5.6 0.7 6.1 0.7 C 6.4 0.7 6.6 0.7 6.7 0.8 C 6.9 0.9 7 1.1 7 1.2 C 7 1.2 7 1.2 7 1.2 Z M 12.2 3.1 C 12.2 3.1 12.1 3.1 12.1 3.1 C 11.9 3.1 11.7 3 11.5 3 C 11.5 3 11.4 3 11.4 3 C 11.4 3.2 11.4 3.3 11.4 3.5 C 11.4 3.5 11.4 3.6 11.4 3.6 C 11.4 3.7 11.4 3.8 11.4 3.9 C 11.5 4 11.5 4.1 11.5 4.1 C 11.5 4.2 11.5 4.3 11.4 4.3 C 11.3 4.4 11.2 4.4 11.2 4.4 C 11.1 4.4 11 4.4 10.9 4.3 C 10.8 4.3 10.8 4.2 10.8 4 C 10.8 4 10.8 3.9 10.8 3.7 C 10.8 3.7 10.8 3.4 10.8 3.4 C 10.8 3.3 10.8 3.2 10.9 3.1 C 10.5 3.1 10.2 3.1 10 3.1 C 9.8 3.2 9.6 3.2 9.4 3.2 C 9.3 3.2 9.2 3.2 9 3 C 9.1 2.8 9.4 2.5 10.1 1.9 C 10.1 1.9 11.1 1.1 11.1 1.1 C 11.1 1.1 11.1 1.1 11.2 1 C 11.4 0.9 11.5 0.8 11.6 0.8 C 11.8 0.8 11.9 0.8 11.9 0.9 C 11.9 0.9 11.8 1.4 11.8 1.4 C 11.7 1.7 11.6 2 11.5 2.3 C 11.5 2.4 11.5 2.5 11.5 2.6 C 11.5 2.6 12 2.6 12 2.6 C 12.2 2.6 12.3 2.6 12.4 2.7 C 12.4 2.7 12.5 2.8 12.5 2.9 C 12.5 3 12.4 3 12.4 3.1 C 12.4 3.1 12.3 3.1 12.2 3.1 C 12.2 3.1 12.2 3.1 12.2 3.1 Z M 11.2 1.6 C 11.1 1.6 11.1 1.7 11 1.7 C 10.8 1.9 10.6 2 10.5 2.1 C 10.4 2.2 10.2 2.4 9.8 2.7 C 10 2.7 10.2 2.7 10.4 2.6 C 10.7 2.6 10.9 2.6 11 2.6 C 11 2.5 11 2.4 11.1 2.1 C 11.1 2.1 11.2 1.6 11.2 1.6 Z M 15.5 3.5 C 15.4 3.5 15.4 3.5 15.3 3.5 C 15.3 3.5 15.2 3.7 15.1 3.9 C 14.9 4.1 14.8 4.3 14.8 4.3 C 14.7 4.3 14.7 4.3 14.6 4.3 C 14.6 4.3 14.5 4.3 14.4 4.2 C 14.3 4.2 14.3 4.1 14.3 4 C 14.3 4 14.5 3.6 14.9 3 C 15.1 2.7 15.3 2.3 15.5 2 C 15.9 1.3 16.1 0.9 16.2 0.8 C 16.3 0.7 16.4 0.7 16.4 0.7 C 16.6 0.7 16.7 0.7 16.7 0.8 C 16.8 0.8 16.8 0.9 16.8 0.9 C 16.8 1 16.8 1.1 16.8 1.1 C 17.1 2 17.3 2.6 17.5 3 C 17.6 3.4 17.8 3.7 18 3.8 C 18.1 3.9 18.1 4 18.1 4 C 18.2 4 18.2 4.1 18.2 4.1 C 18.2 4.2 18.1 4.3 18.1 4.4 C 18 4.4 17.9 4.4 17.8 4.4 C 17.7 4.4 17.6 4.4 17.5 4.2 C 17.3 4.1 17.2 3.9 17.1 3.6 C 17 3.4 16.9 3.2 16.9 3.2 C 16.9 3.2 16.9 3.2 16.9 3.2 C 16.8 3.2 16.6 3.2 16.3 3.3 C 16 3.4 15.8 3.4 15.6 3.5 C 15.5 3.5 15.5 3.5 15.5 3.5 C 15.5 3.5 15.5 3.5 15.5 3.5 Z M 16.5 2.8 C 16.6 2.7 16.7 2.7 16.7 2.7 C 16.7 2.6 16.6 2.3 16.4 1.7 C 16.4 1.6 16.3 1.6 16.3 1.6 C 16.3 1.6 15.6 2.9 15.6 2.9 C 15.8 2.9 15.9 2.9 16 2.9 C 16 2.8 16.2 2.8 16.5 2.8 C 16.5 2.8 16.5 2.8 16.5 2.8 Z M 21.9 1.7 C 21.9 1.7 21.9 1.6 21.9 1.6 C 21.9 1.6 21.1 2.7 21.1 2.7 C 20.7 3.2 20.4 3.4 20.2 3.4 C 20.1 3.4 20 3.4 20 3.3 C 19.9 3.2 19.8 3 19.7 2.8 C 19.7 2.6 19.6 2.4 19.6 2.3 C 19.5 2 19.5 1.9 19.4 1.8 C 19.4 1.8 19.3 2.5 19.3 2.5 C 19.3 2.7 19.2 2.9 19.2 3 C 19.2 3.2 19.1 3.4 19.1 3.7 C 19 3.9 19 4.1 19 4.2 C 19 4.2 18.9 4.3 18.9 4.3 C 18.8 4.4 18.7 4.4 18.7 4.4 C 18.6 4.4 18.5 4.4 18.5 4.3 C 18.4 4.2 18.4 4.2 18.4 4.1 C 18.4 3.9 18.4 3.7 18.5 3.5 C 18.7 2.5 18.9 1.9 18.9 1.6 C 19 1.4 19 1.2 19 1 C 19 0.9 19 0.8 19.1 0.8 C 19.2 0.7 19.3 0.7 19.4 0.7 C 19.5 0.7 19.5 0.8 19.6 0.8 C 19.7 0.9 19.7 1 19.7 1.1 C 19.73 1.09 19.7 1.1 19.7 1.1 C 19.7 1.1 20.06 2.04 20.1 2 C 20.2 2.4 20.3 2.7 20.3 2.8 C 20.5 2.6 20.8 2.2 21.1 1.8 C 21.5 1.3 21.7 1 21.8 0.9 C 22 0.7 22 0.7 22.1 0.7 C 22.2 0.7 22.3 0.7 22.4 0.8 C 22.5 0.8 22.5 0.9 22.5 0.9 C 22.5 1 22.5 1.2 22.4 1.7 C 22.4 2 22.3 2.3 22.3 2.7 C 22.3 3.1 22.2 3.4 22.2 3.4 C 22.2 3.5 22.2 3.6 22.3 3.7 C 22.3 3.8 22.3 3.9 22.3 3.9 C 22.3 4.1 22.3 4.2 22.2 4.2 C 22.2 4.3 22.1 4.3 22 4.3 C 21.7 4.3 21.6 4.2 21.6 3.9 C 21.6 3.5 21.7 3.2 21.7 2.7 C 21.8 2.3 21.8 2 21.9 1.7 C 21.9 1.7 21.9 1.7 21.9 1.7 Z M 23.9 1.8 C 23.9 2 23.9 2.1 23.9 2.2 C 23.9 2.2 23.9 2.3 23.8 2.5 C 23.8 2.9 23.7 3.1 23.7 3.3 C 23.7 3.5 23.8 3.7 23.8 3.9 C 23.8 4 23.8 4.2 23.7 4.2 C 23.6 4.3 23.5 4.3 23.4 4.3 C 23.3 4.3 23.2 4.3 23.2 4.2 C 23.2 4.1 23.1 3.9 23.1 3.7 C 23.1 3.5 23.2 3.1 23.2 2.6 C 23.2 2.6 23.4 1.6 23.4 1.6 C 23.4 1.5 23.4 1.3 23.4 1.2 C 23.5 1 23.5 0.9 23.5 0.9 C 23.5 0.8 23.6 0.8 23.7 0.8 C 23.7 0.7 23.8 0.7 23.8 0.7 C 23.9 0.7 24 0.7 24 0.8 C 24.1 0.9 24.1 1 24.1 1.1 C 24.1 1.1 23.9 1.8 23.9 1.8 Z M 27.7 2.7 C 27.6 2.8 27.6 2.9 27.5 3 C 27.5 3 27.6 3 27.6 3 C 27.5 3.2 27.5 3.4 27.4 3.6 C 27.4 3.8 27.4 4 27.4 4.1 C 27.4 4.3 27.4 4.4 27.4 4.5 C 27.4 4.5 27.4 4.6 27.3 4.6 C 27.3 4.7 27.3 4.7 27.2 4.7 C 27.2 4.8 27.1 4.8 27.1 4.8 C 27 4.8 26.9 4.7 26.8 4.7 C 26.8 4.6 26.7 4.6 26.7 4.5 C 26.7 4.4 26.7 4.3 26.8 4.1 C 26.8 3.9 26.9 3.8 26.9 3.6 C 26.3 4 25.8 4.2 25.4 4.2 C 25.1 4.2 24.9 4.2 24.7 4 C 24.6 3.8 24.5 3.6 24.5 3.3 C 24.5 2.8 24.6 2.4 24.9 1.9 C 24.9 1.9 24.9 1.9 24.9 1.9 C 25.2 1.5 25.5 1.2 25.9 0.9 C 26.3 0.6 26.8 0.5 27.2 0.5 C 27.4 0.5 27.5 0.5 27.7 0.6 C 27.8 0.7 27.8 0.8 27.8 0.9 C 27.8 1 27.8 1.1 27.7 1.2 C 27.6 1.4 27.5 1.4 27.5 1.4 C 27.4 1.4 27.4 1.4 27.3 1.4 C 27.3 1.4 27.3 1.3 27.3 1.3 C 27.2 1.2 27.2 1.1 27.2 1.1 C 27.1 1.1 27.1 1.1 27 1.1 C 26.7 1.1 26.5 1.2 26.1 1.4 C 25.8 1.7 25.6 2 25.4 2.3 C 25.2 2.6 25.1 2.9 25.1 3.2 C 25.1 3.6 25.2 3.7 25.5 3.7 C 25.6 3.7 25.8 3.7 26 3.6 C 26.2 3.5 26.4 3.4 26.6 3.3 C 26.8 3.1 27 3 27 2.8 C 27.1 2.7 27.1 2.6 27.1 2.4 C 27.1 2.3 27.2 2.3 27.2 2.2 C 27.3 2.2 27.3 2.2 27.4 2.2 C 27.6 2.2 27.8 2.3 27.8 2.4 C 27.8 2.5 27.7 2.6 27.7 2.7 C 27.7 2.7 27.7 2.7 27.7 2.7 Z M 29.3 4.4 C 29 4.4 28.8 4.3 28.5 4 C 28.3 3.8 28.2 3.5 28.2 3.2 C 28.2 2.9 28.3 2.5 28.5 2.1 C 28.7 1.7 29 1.3 29.3 1.1 C 29.6 0.8 30 0.7 30.3 0.7 C 30.6 0.7 30.8 0.7 31 0.8 C 31.2 0.8 31.3 0.9 31.5 1.1 C 31.6 1.2 31.7 1.3 31.8 1.5 C 31.8 1.6 31.9 1.8 31.9 2 C 31.9 2.2 31.8 2.5 31.7 2.8 C 31.5 3.1 31.3 3.3 31.1 3.6 C 30.8 3.9 30.6 4.1 30.3 4.2 C 30 4.3 29.7 4.4 29.3 4.4 Z M 28.8 3.2 C 28.8 3.4 28.9 3.5 29 3.7 C 29.1 3.8 29.3 3.9 29.4 3.9 C 29.9 3.9 30.3 3.7 30.7 3.3 C 31 2.8 31.2 2.4 31.2 1.9 C 31.2 1.8 31.2 1.6 31.1 1.5 C 31.1 1.4 31 1.3 30.8 1.3 C 30.7 1.2 30.5 1.2 30.3 1.2 C 30 1.2 29.7 1.4 29.3 1.8 C 29 2.3 28.8 2.7 28.8 3.2 Z M 34.9 1.2 C 34.9 1.5 34.8 1.6 34.5 1.6 C 34.5 1.5 34.4 1.4 34.3 1.3 C 34.3 1.2 34.1 1.2 34 1.2 C 33.7 1.2 33.5 1.3 33.2 1.4 C 33 1.5 32.9 1.7 32.9 1.8 C 32.9 1.9 32.9 2 33 2.1 C 33.1 2.2 33.3 2.3 33.7 2.4 C 34.1 2.5 34.4 2.6 34.5 2.7 C 34.7 2.9 34.8 3 34.8 3.2 C 34.8 3.5 34.6 3.8 34.1 4.1 C 33.6 4.3 33.1 4.5 32.6 4.5 C 32.5 4.5 32.3 4.4 32.2 4.4 C 32.1 4.3 32.1 4.2 32.1 4.1 C 32.1 4 32.1 4 32.1 3.9 C 32.2 3.8 32.2 3.8 32.3 3.8 C 32.3 3.8 32.4 3.8 32.4 3.8 C 32.6 3.9 32.7 3.9 32.9 3.9 C 33.1 3.9 33.4 3.8 33.7 3.7 C 34.1 3.6 34.2 3.4 34.2 3.3 C 34.2 3.2 34.2 3.2 34.1 3.1 C 34 3.1 33.9 3 33.6 2.9 C 33.3 2.8 33 2.7 32.8 2.6 C 32.6 2.6 32.5 2.5 32.4 2.3 C 32.3 2.2 32.3 2.1 32.3 1.9 C 32.3 1.6 32.4 1.3 32.8 1 C 33.2 0.8 33.6 0.7 34.1 0.7 C 34.3 0.7 34.5 0.7 34.7 0.8 C 34.9 0.9 34.9 1.1 34.9 1.2 C 34.9 1.2 34.9 1.2 34.9 1.2 Z M 39.9 1.2 C 39.9 1.5 39.8 1.6 39.5 1.6 C 39.5 1.5 39.4 1.4 39.3 1.3 C 39.2 1.2 39.1 1.2 39 1.2 C 38.7 1.2 38.4 1.3 38.2 1.4 C 38 1.5 37.8 1.7 37.8 1.8 C 37.8 1.9 37.9 2 38 2.1 C 38.1 2.2 38.3 2.3 38.7 2.4 C 39.1 2.5 39.3 2.6 39.5 2.7 C 39.7 2.9 39.8 3 39.8 3.2 C 39.8 3.5 39.6 3.8 39.1 4.1 C 38.6 4.3 38.1 4.5 37.6 4.5 C 37.4 4.5 37.3 4.4 37.2 4.4 C 37.1 4.3 37 4.2 37 4.1 C 37 4 37.1 4 37.1 3.9 C 37.2 3.8 37.2 3.8 37.3 3.8 C 37.3 3.8 37.4 3.8 37.4 3.8 C 37.6 3.9 37.7 3.9 37.9 3.9 C 38.1 3.9 38.4 3.8 38.7 3.7 C 39 3.6 39.2 3.4 39.2 3.3 C 39.2 3.2 39.2 3.2 39.1 3.1 C 39 3.1 38.8 3 38.6 2.9 C 38.2 2.8 38 2.7 37.8 2.6 C 37.6 2.6 37.5 2.5 37.4 2.3 C 37.3 2.2 37.3 2.1 37.3 1.9 C 37.3 1.6 37.4 1.3 37.8 1 C 38.1 0.8 38.6 0.7 39 0.7 C 39.3 0.7 39.5 0.7 39.7 0.8 C 39.8 0.9 39.9 1.1 39.9 1.2 C 39.9 1.2 39.9 1.2 39.9 1.2 Z M 41.3 4.4 C 41 4.4 40.7 4.3 40.5 4 C 40.3 3.8 40.2 3.5 40.2 3.2 C 40.2 2.9 40.3 2.5 40.5 2.1 C 40.7 1.7 41 1.3 41.3 1.1 C 41.6 0.8 41.9 0.7 42.3 0.7 C 42.6 0.7 42.8 0.7 43 0.8 C 43.1 0.8 43.3 0.9 43.5 1.1 C 43.6 1.2 43.7 1.3 43.8 1.5 C 43.8 1.6 43.8 1.8 43.8 2 C 43.8 2.2 43.8 2.5 43.6 2.8 C 43.5 3.1 43.3 3.3 43.1 3.6 C 42.8 3.9 42.5 4.1 42.3 4.2 C 42 4.3 41.7 4.4 41.3 4.4 Z M 40.8 3.2 C 40.8 3.4 40.9 3.5 41 3.7 C 41.1 3.8 41.3 3.9 41.4 3.9 C 41.8 3.9 42.3 3.7 42.6 3.3 C 43 2.8 43.2 2.4 43.2 1.9 C 43.2 1.8 43.2 1.6 43.1 1.5 C 43 1.4 42.9 1.3 42.8 1.3 C 42.6 1.2 42.5 1.2 42.3 1.2 C 42 1.2 41.7 1.4 41.3 1.8 C 41 2.3 40.8 2.7 40.8 3.2 Z M 44.3 3.4 C 44.3 3.4 44.47 2.62 44.5 2.6 C 44.6 2 44.7 1.5 44.7 1.3 C 44.7 1.1 44.7 1.1 44.7 1 C 44.7 1 44.8 0.9 44.8 0.9 C 44.9 0.8 45 0.8 45 0.8 C 45.1 0.8 45.1 0.8 45.2 0.9 C 45.3 0.9 45.3 1 45.4 1.2 C 45.4 1.5 45.6 1.8 45.9 2.3 C 46.2 2.8 46.4 3.1 46.7 3.4 C 46.7 3.1 46.8 2.8 46.9 2.3 C 46.9 2 47 1.7 47 1.5 C 47.1 1.3 47.1 1.1 47.1 1 C 47.1 0.8 47.1 0.7 47.2 0.7 C 47.3 0.6 47.4 0.6 47.4 0.6 C 47.5 0.6 47.6 0.7 47.6 0.7 C 47.7 0.8 47.7 0.9 47.7 1 C 47.7 1.1 47.7 1.2 47.6 1.4 C 47.5 1.8 47.4 2.2 47.3 2.8 C 47.2 3.4 47.2 3.7 47.2 3.8 C 47.2 3.8 47.2 3.9 47.2 3.9 C 47.2 4 47.2 4.1 47.1 4.1 C 47.1 4.2 47.1 4.2 47 4.3 C 47 4.3 46.9 4.3 46.8 4.3 C 46.7 4.3 46.7 4.3 46.7 4.3 C 46.6 4.3 46.6 4.3 46.5 4.2 C 46.5 4.1 46.5 4.1 46.4 4 C 46.3 3.8 46.3 3.8 46.2 3.7 C 45.8 3.2 45.5 2.6 45.1 2 C 45.1 2.2 45 2.6 44.9 3.4 C 44.9 3.4 44.9 3.6 44.9 3.6 C 44.8 3.7 44.8 3.8 44.8 3.9 C 44.8 4.1 44.8 4.2 44.7 4.3 C 44.6 4.4 44.6 4.4 44.5 4.4 C 44.4 4.4 44.3 4.4 44.3 4.3 C 44.2 4.3 44.2 4.2 44.2 4 C 44.2 3.9 44.2 3.7 44.3 3.5 C 44.29 3.46 44.3 3.4 44.3 3.4 Z M 48.9 2.9 C 48.9 3 48.8 3.2 48.8 3.6 C 48.8 3.8 48.8 4 48.7 4.2 C 48.7 4.3 48.6 4.4 48.5 4.4 C 48.4 4.4 48.3 4.4 48.2 4.3 C 48.2 4.3 48.1 4.2 48.1 4 C 48.1 3.9 48.2 3.8 48.2 3.6 C 48.3 3.2 48.4 2.3 48.6 0.9 C 48.6 0.9 48.6 0.8 48.7 0.8 C 48.7 0.7 48.8 0.7 48.8 0.7 C 49.1 0.7 49.2 0.8 49.2 1.1 C 49.2 1.2 49.1 1.4 49.1 1.7 C 49 2 49 2.2 49 2.3 C 49 2.3 49.1 2.3 49.2 2.3 C 49.4 2.3 49.7 2.3 50.2 2.3 C 50.6 2.3 50.8 2.2 50.8 2.2 C 50.9 2.1 50.9 1.9 50.9 1.7 C 51 1.4 51 1.1 51 0.8 C 51 0.7 51 0.7 51.1 0.6 C 51.2 0.6 51.2 0.5 51.3 0.5 C 51.4 0.5 51.5 0.6 51.5 0.6 C 51.6 0.7 51.6 0.7 51.6 0.8 C 51.6 0.9 51.6 1.2 51.5 1.5 C 51.5 1.8 51.4 2.3 51.4 2.9 C 51.3 3.4 51.3 3.8 51.3 4 C 51.3 4.1 51.2 4.2 51.2 4.3 C 51.1 4.3 51 4.4 50.9 4.4 C 50.9 4.4 50.8 4.4 50.7 4.3 C 50.7 4.3 50.6 4.2 50.6 4.1 C 50.6 4 50.6 3.9 50.7 3.5 C 50.7 3.2 50.8 3 50.8 2.9 C 50.8 2.8 50.7 2.7 50.7 2.7 C 50.6 2.7 50.5 2.8 50.3 2.8 C 50 2.8 49.9 2.8 49.8 2.8 C 49.7 2.8 49.6 2.8 49.3 2.8 C 49.1 2.8 48.9 2.9 48.9 2.9 Z M 52.8 3.5 C 52.8 3.5 52.7 3.5 52.7 3.5 C 52.7 3.5 52.6 3.7 52.4 3.9 C 52.3 4.1 52.2 4.3 52.1 4.3 C 52.1 4.3 52 4.3 52 4.3 C 51.9 4.3 51.9 4.3 51.8 4.2 C 51.7 4.2 51.7 4.1 51.7 4 C 51.7 4 51.9 3.6 52.3 3 C 52.5 2.7 52.7 2.3 52.9 2 C 53.3 1.3 53.5 0.9 53.6 0.8 C 53.6 0.7 53.7 0.7 53.8 0.7 C 54 0.7 54.1 0.7 54.1 0.8 C 54.1 0.8 54.2 0.9 54.2 0.9 C 54.2 1 54.2 1.1 54.1 1.1 C 54.4 2 54.7 2.6 54.8 3 C 55 3.4 55.2 3.7 55.4 3.8 C 55.4 3.9 55.5 4 55.5 4 C 55.5 4 55.5 4.1 55.5 4.1 C 55.5 4.2 55.5 4.3 55.4 4.4 C 55.4 4.4 55.3 4.4 55.2 4.4 C 55.1 4.4 55 4.4 54.8 4.2 C 54.7 4.1 54.6 3.9 54.5 3.6 C 54.4 3.4 54.3 3.2 54.3 3.2 C 54.3 3.2 54.3 3.2 54.3 3.2 C 54.2 3.2 54 3.2 53.7 3.3 C 53.4 3.4 53.2 3.4 53 3.5 C 52.9 3.5 52.9 3.5 52.8 3.5 C 52.8 3.5 52.8 3.5 52.8 3.5 Z M 53.9 2.8 C 54 2.7 54 2.7 54.1 2.7 C 54.1 2.6 53.9 2.3 53.8 1.7 C 53.7 1.6 53.7 1.6 53.7 1.6 C 53.7 1.6 53 2.9 53 2.9 C 53.1 2.9 53.2 2.9 53.3 2.9 C 53.4 2.8 53.6 2.8 53.9 2.8 C 53.9 2.8 53.9 2.8 53.9 2.8 Z M 59.2 1.7 C 59.3 1.7 59.3 1.6 59.3 1.6 C 59.3 1.6 58.5 2.7 58.5 2.7 C 58.1 3.2 57.8 3.4 57.6 3.4 C 57.5 3.4 57.4 3.4 57.3 3.3 C 57.3 3.2 57.2 3 57.1 2.8 C 57 2.6 57 2.4 57 2.3 C 56.9 2 56.8 1.9 56.8 1.8 C 56.8 1.8 56.7 2.5 56.7 2.5 C 56.6 2.7 56.6 2.9 56.6 3 C 56.5 3.2 56.5 3.4 56.4 3.7 C 56.4 3.9 56.4 4.1 56.3 4.2 C 56.3 4.2 56.3 4.3 56.2 4.3 C 56.2 4.4 56.1 4.4 56.1 4.4 C 56 4.4 55.9 4.4 55.8 4.3 C 55.8 4.2 55.7 4.2 55.7 4.1 C 55.7 3.9 55.8 3.7 55.8 3.5 C 56.1 2.5 56.3 1.9 56.3 1.6 C 56.3 1.4 56.4 1.2 56.4 1 C 56.4 0.9 56.4 0.8 56.5 0.8 C 56.5 0.7 56.6 0.7 56.8 0.7 C 56.8 0.7 56.9 0.8 57 0.8 C 57 0.9 57.1 1 57.1 1.1 C 57.1 1.09 57.1 1.1 57.1 1.1 C 57.1 1.1 57.44 2.04 57.4 2 C 57.6 2.4 57.7 2.7 57.7 2.8 C 57.9 2.6 58.1 2.2 58.5 1.8 C 58.8 1.3 59.1 1 59.2 0.9 C 59.3 0.7 59.4 0.7 59.5 0.7 C 59.5 0.7 59.6 0.7 59.7 0.8 C 59.8 0.8 59.9 0.9 59.9 0.9 C 59.9 1 59.9 1.2 59.8 1.7 C 59.7 2 59.7 2.3 59.7 2.7 C 59.6 3.1 59.6 3.4 59.6 3.4 C 59.6 3.5 59.6 3.6 59.6 3.7 C 59.7 3.8 59.7 3.9 59.7 3.9 C 59.7 4.1 59.6 4.2 59.6 4.2 C 59.5 4.3 59.4 4.3 59.3 4.3 C 59.1 4.3 59 4.2 59 3.9 C 59 3.5 59 3.2 59.1 2.7 C 59.1 2.3 59.2 2 59.2 1.7 C 59.2 1.7 59.2 1.7 59.2 1.7 Z M 64.5 3.6 C 64.7 3.5 64.8 3.4 64.8 3.4 C 65 3.4 65 3.5 65 3.6 C 65 3.7 64.8 3.9 64.5 4.1 C 64.1 4.4 63.8 4.5 63.4 4.5 C 63.1 4.5 62.9 4.4 62.6 4.2 C 62.4 4 62.3 3.7 62.3 3.3 C 62.3 2.9 62.4 2.5 62.6 2.1 C 62.9 1.6 63.2 1.2 63.6 0.9 C 64 0.7 64.4 0.5 64.7 0.5 C 65 0.5 65.1 0.6 65.3 0.7 C 65.4 0.8 65.5 1 65.5 1.2 C 65.5 1.3 65.4 1.5 65.4 1.6 C 65.4 1.6 65.3 1.7 65.2 1.8 C 65.1 1.8 65 1.9 65 1.9 C 64.9 1.9 64.9 1.8 64.8 1.8 C 64.8 1.8 64.8 1.7 64.8 1.6 C 64.8 1.6 64.8 1.5 64.8 1.4 C 64.8 1.3 64.8 1.2 64.8 1.1 C 64.8 1 64.8 1 64.7 1 C 64.5 1 64.2 1.1 63.9 1.4 C 63.6 1.6 63.4 1.9 63.2 2.3 C 63 2.7 62.9 3 62.9 3.3 C 62.9 3.5 62.9 3.6 63 3.8 C 63.2 3.9 63.3 3.9 63.5 3.9 C 63.6 3.9 63.8 3.9 64 3.8 C 64.2 3.8 64.3 3.7 64.5 3.6 C 64.5 3.6 64.5 3.6 64.5 3.6 Z M 66.7 4.4 C 66.4 4.4 66.2 4.3 66 4 C 65.7 3.8 65.6 3.5 65.6 3.2 C 65.6 2.9 65.7 2.5 65.9 2.1 C 66.2 1.7 66.4 1.3 66.7 1.1 C 67.1 0.8 67.4 0.7 67.7 0.7 C 68 0.7 68.2 0.7 68.4 0.8 C 68.6 0.8 68.8 0.9 68.9 1.1 C 69.1 1.2 69.2 1.3 69.2 1.5 C 69.2 1.6 69.3 1.8 69.3 2 C 69.3 2.2 69.2 2.5 69.1 2.8 C 68.9 3.1 68.7 3.3 68.5 3.6 C 68.2 3.9 68 4.1 67.7 4.2 C 67.5 4.3 67.1 4.4 66.7 4.4 Z M 66.3 3.2 C 66.3 3.4 66.3 3.5 66.4 3.7 C 66.6 3.8 66.7 3.9 66.8 3.9 C 67.3 3.9 67.7 3.7 68.1 3.3 C 68.5 2.8 68.6 2.4 68.6 1.9 C 68.6 1.8 68.6 1.6 68.6 1.5 C 68.5 1.4 68.4 1.3 68.2 1.3 C 68.1 1.2 67.9 1.2 67.7 1.2 C 67.4 1.2 67.1 1.4 66.8 1.8 C 66.4 2.3 66.3 2.7 66.3 3.2 Z M 73.1 1.7 C 73.1 1.7 73.1 1.6 73.1 1.6 C 73.1 1.6 72.3 2.7 72.3 2.7 C 71.9 3.2 71.6 3.4 71.4 3.4 C 71.3 3.4 71.2 3.4 71.2 3.3 C 71.1 3.2 71 3 70.9 2.8 C 70.9 2.6 70.8 2.4 70.8 2.3 C 70.7 2 70.7 1.9 70.6 1.8 C 70.6 1.8 70.5 2.5 70.5 2.5 C 70.5 2.7 70.4 2.9 70.4 3 C 70.3 3.2 70.3 3.4 70.3 3.7 C 70.2 3.9 70.2 4.1 70.2 4.2 C 70.2 4.2 70.1 4.3 70 4.3 C 70 4.4 69.9 4.4 69.9 4.4 C 69.8 4.4 69.7 4.4 69.7 4.3 C 69.6 4.2 69.6 4.2 69.6 4.1 C 69.6 3.9 69.6 3.7 69.7 3.5 C 69.9 2.5 70.1 1.9 70.1 1.6 C 70.2 1.4 70.2 1.2 70.2 1 C 70.2 0.9 70.2 0.8 70.3 0.8 C 70.4 0.7 70.5 0.7 70.6 0.7 C 70.7 0.7 70.7 0.8 70.8 0.8 C 70.9 0.9 70.9 1 70.9 1.1 C 70.92 1.09 70.9 1.1 70.9 1.1 C 70.9 1.1 71.26 2.04 71.3 2 C 71.4 2.4 71.5 2.7 71.5 2.8 C 71.7 2.6 72 2.2 72.3 1.8 C 72.7 1.3 72.9 1 73 0.9 C 73.1 0.7 73.2 0.7 73.3 0.7 C 73.4 0.7 73.5 0.7 73.6 0.8 C 73.6 0.8 73.7 0.9 73.7 0.9 C 73.7 1 73.7 1.2 73.6 1.7 C 73.6 2 73.5 2.3 73.5 2.7 C 73.4 3.1 73.4 3.4 73.4 3.4 C 73.4 3.5 73.4 3.6 73.5 3.7 C 73.5 3.8 73.5 3.9 73.5 3.9 C 73.5 4.1 73.5 4.2 73.4 4.2 C 73.3 4.3 73.3 4.3 73.1 4.3 C 72.9 4.3 72.8 4.2 72.8 3.9 C 72.8 3.5 72.9 3.2 72.9 2.7 C 73 2.3 73 2 73.1 1.7 C 73.1 1.7 73.1 1.7 73.1 1.7 Z M 77.6 4.4 C 77.4 4.4 77.2 4.4 77 4.2 C 76.7 4.1 76.5 4 76.4 3.7 C 76.3 3.4 76.2 3.1 76.2 2.8 C 76.2 2.7 76.3 2.5 76.3 2.2 C 76.3 2.2 76.4 1.8 76.4 1.8 C 76.4 1.7 76.4 1.6 76.4 1.6 C 76.4 1.4 76.4 1.3 76.5 1.2 C 76.5 1.1 76.5 0.9 76.6 0.8 C 76.6 0.7 76.7 0.7 76.8 0.7 C 76.9 0.7 77 0.7 77 0.8 C 77.1 0.9 77.1 1 77.1 1 C 77.1 1.1 77.1 1.3 77 1.6 C 77 1.7 76.9 1.9 76.9 2.2 C 76.8 2.5 76.8 2.7 76.8 2.8 C 76.8 3.2 76.9 3.5 77.1 3.7 C 77.3 3.8 77.4 3.9 77.6 3.9 C 78 3.9 78.3 3.8 78.4 3.6 C 78.6 3.4 78.7 3.1 78.7 2.7 C 78.7 2.7 78.7 2.6 78.7 2.5 C 78.8 2.4 78.8 2.2 78.8 2.1 C 78.8 1.5 78.9 1.1 79 1 C 79 0.8 79.1 0.8 79.3 0.8 C 79.4 0.8 79.5 0.9 79.5 1.1 C 79.5 1.2 79.5 1.5 79.4 1.8 C 79.4 2 79.4 2.2 79.4 2.5 C 79.3 2.9 79.3 3.3 79.2 3.5 C 79 3.8 78.9 4 78.6 4.1 C 78.3 4.3 78 4.4 77.6 4.4 Z M 83.3 1.7 C 83.4 1.7 83.4 1.6 83.4 1.6 C 83.4 1.6 82.6 2.7 82.6 2.7 C 82.2 3.2 81.9 3.4 81.7 3.4 C 81.6 3.4 81.5 3.4 81.4 3.3 C 81.4 3.2 81.3 3 81.2 2.8 C 81.1 2.6 81.1 2.4 81.1 2.3 C 81 2 80.9 1.9 80.9 1.8 C 80.9 1.8 80.8 2.5 80.8 2.5 C 80.8 2.7 80.7 2.9 80.7 3 C 80.6 3.2 80.6 3.4 80.5 3.7 C 80.5 3.9 80.5 4.1 80.4 4.2 C 80.4 4.2 80.4 4.3 80.3 4.3 C 80.3 4.4 80.2 4.4 80.2 4.4 C 80.1 4.4 80 4.4 79.9 4.3 C 79.9 4.2 79.8 4.2 79.8 4.1 C 79.8 3.9 79.9 3.7 79.9 3.5 C 80.2 2.5 80.4 1.9 80.4 1.6 C 80.4 1.4 80.5 1.2 80.5 1 C 80.5 0.9 80.5 0.8 80.6 0.8 C 80.7 0.7 80.8 0.7 80.9 0.7 C 80.9 0.7 81 0.8 81.1 0.8 C 81.1 0.9 81.2 1 81.2 1.1 C 81.21 1.09 81.2 1.1 81.2 1.1 C 81.2 1.1 81.54 2.04 81.5 2 C 81.7 2.4 81.8 2.7 81.8 2.8 C 82 2.6 82.3 2.2 82.6 1.8 C 82.9 1.3 83.2 1 83.3 0.9 C 83.4 0.7 83.5 0.7 83.6 0.7 C 83.7 0.7 83.7 0.7 83.8 0.8 C 83.9 0.8 84 0.9 84 0.9 C 84 1 84 1.2 83.9 1.7 C 83.8 2 83.8 2.3 83.8 2.7 C 83.7 3.1 83.7 3.4 83.7 3.4 C 83.7 3.5 83.7 3.6 83.7 3.7 C 83.8 3.8 83.8 3.9 83.8 3.9 C 83.8 4.1 83.7 4.2 83.7 4.2 C 83.6 4.3 83.5 4.3 83.4 4.3 C 83.2 4.3 83.1 4.2 83.1 3.9 C 83.1 3.5 83.1 3.2 83.2 2.7 C 83.2 2.3 83.3 2 83.3 1.7 C 83.3 1.7 83.3 1.7 83.3 1.7 Z M 85.3 3.5 C 85.3 3.5 85.2 3.5 85.2 3.5 C 85.2 3.5 85.1 3.7 84.9 3.9 C 84.8 4.1 84.7 4.3 84.6 4.3 C 84.6 4.3 84.5 4.3 84.5 4.3 C 84.4 4.3 84.4 4.3 84.3 4.2 C 84.2 4.2 84.2 4.1 84.2 4 C 84.2 4 84.4 3.6 84.8 3 C 85 2.7 85.2 2.3 85.4 2 C 85.8 1.3 86 0.9 86.1 0.8 C 86.1 0.7 86.2 0.7 86.3 0.7 C 86.5 0.7 86.6 0.7 86.6 0.8 C 86.6 0.8 86.7 0.9 86.7 0.9 C 86.7 1 86.7 1.1 86.6 1.1 C 86.9 2 87.2 2.6 87.3 3 C 87.5 3.4 87.7 3.7 87.9 3.8 C 87.9 3.9 88 4 88 4 C 88 4 88 4.1 88 4.1 C 88 4.2 88 4.3 87.9 4.4 C 87.9 4.4 87.8 4.4 87.7 4.4 C 87.6 4.4 87.5 4.4 87.3 4.2 C 87.2 4.1 87.1 3.9 87 3.6 C 86.9 3.4 86.8 3.2 86.8 3.2 C 86.8 3.2 86.8 3.2 86.8 3.2 C 86.7 3.2 86.5 3.2 86.2 3.3 C 85.9 3.4 85.7 3.4 85.5 3.5 C 85.4 3.5 85.4 3.5 85.3 3.5 C 85.3 3.5 85.3 3.5 85.3 3.5 Z M 86.4 2.8 C 86.5 2.7 86.5 2.7 86.6 2.7 C 86.6 2.6 86.4 2.3 86.3 1.7 C 86.2 1.6 86.2 1.6 86.2 1.6 C 86.2 1.6 85.5 2.9 85.5 2.9 C 85.6 2.9 85.7 2.9 85.8 2.9 C 85.9 2.8 86.1 2.8 86.4 2.8 C 86.4 2.8 86.4 2.8 86.4 2.8 Z M 93.8 0.9 C 93.8 0.9 93.8 0.9 93.8 0.9 C 93.8 0.9 93.8 1 93.7 1.2 C 93.5 1.4 93.3 1.7 93.2 1.9 C 93.1 2 92.9 2.4 92.6 2.9 C 92.4 3.2 92.3 3.4 92.2 3.5 C 92.1 3.7 92 3.9 92 4 C 91.9 4.1 91.9 4.1 91.8 4.2 C 91.7 4.2 91.6 4.3 91.5 4.3 C 91.4 4.3 91.4 4.2 91.3 4.1 C 91.3 4.1 91.2 3.9 91.1 3.7 C 91 3.4 90.9 3 90.7 2.6 C 90.3 1.7 90.1 1.2 90.1 1.1 C 90.1 1.1 90.2 1 90.2 0.9 C 90.3 0.8 90.4 0.7 90.5 0.7 C 90.5 0.7 90.6 0.8 90.7 0.8 C 90.7 0.9 90.8 1.1 90.8 1.3 C 90.9 1.5 91 1.9 91.2 2.4 C 91.4 2.9 91.5 3.2 91.7 3.5 C 91.7 3.4 91.7 3.3 91.8 3.2 C 91.8 3.1 91.9 3.1 91.9 3.1 C 92.1 2.8 92.3 2.4 92.4 2.1 C 92.7 1.6 92.9 1.2 93.1 1 C 93.3 0.7 93.5 0.6 93.6 0.6 C 93.8 0.6 93.8 0.7 93.8 0.9 C 93.85 0.86 93.8 0.9 93.8 0.9 C 93.8 0.9 93.85 0.88 93.8 0.9 Z M 94.6 1.8 C 94.5 2 94.5 2.1 94.5 2.2 C 94.5 2.2 94.5 2.3 94.5 2.5 C 94.4 2.9 94.4 3.1 94.4 3.3 C 94.4 3.5 94.4 3.7 94.4 3.9 C 94.4 4 94.4 4.2 94.3 4.2 C 94.2 4.3 94.2 4.3 94.1 4.3 C 94 4.3 93.9 4.3 93.8 4.2 C 93.8 4.1 93.8 3.9 93.8 3.7 C 93.8 3.5 93.8 3.1 93.9 2.6 C 93.9 2.6 94 1.6 94 1.6 C 94 1.5 94.1 1.3 94.1 1.2 C 94.1 1 94.1 0.9 94.1 0.9 C 94.2 0.8 94.2 0.8 94.3 0.8 C 94.4 0.7 94.4 0.7 94.5 0.7 C 94.6 0.7 94.6 0.7 94.7 0.8 C 94.7 0.9 94.7 1 94.7 1.1 C 94.7 1.1 94.6 1.8 94.6 1.8 Z M 95.3 3.9 C 95.3 3.8 95.3 3.6 95.3 3.4 C 95.4 2.9 95.5 2.3 95.6 1.6 C 95.6 1.5 95.6 1.4 95.6 1.4 C 95.6 1.3 95.6 1.3 95.6 1.3 C 95.4 1.3 95.3 1.2 95.3 1.1 C 95.3 1 95.3 0.9 95.4 0.8 C 95.5 0.8 95.6 0.7 95.6 0.7 C 95.6 0.7 96 0.8 96 0.8 C 96.1 0.8 96.3 0.7 96.6 0.7 C 96.8 0.7 97 0.7 97.1 0.7 C 97.6 0.7 97.9 0.8 98.2 1.1 C 98.5 1.3 98.6 1.7 98.6 2.1 C 98.6 2.6 98.4 3 98 3.4 C 97.6 3.7 97 4 96.4 4.1 C 96.3 4.2 96.1 4.2 96.1 4.2 C 96 4.3 95.9 4.3 95.8 4.4 C 95.7 4.4 95.6 4.5 95.5 4.5 C 95.4 4.5 95.4 4.4 95.3 4.3 C 95.2 4.3 95.2 4.2 95.2 4.2 C 95.2 4.1 95.2 4.1 95.3 4 C 95.3 4 95.3 3.9 95.3 3.9 Z M 95.9 3.6 C 95.9 3.6 95.9 3.7 95.9 3.7 C 96 3.7 96.3 3.7 96.7 3.5 C 97.1 3.4 97.4 3.2 97.7 3 C 97.9 2.7 98.1 2.4 98.1 2.1 C 98.1 1.8 98 1.6 97.8 1.4 C 97.6 1.3 97.3 1.2 97 1.2 C 96.8 1.2 96.6 1.2 96.3 1.2 C 96.2 1.3 96.2 1.3 96.2 1.3 C 96 2.3 95.9 3.1 95.9 3.6 C 95.9 3.6 95.9 3.6 95.9 3.6 Z M 99.6 3.5 C 99.6 3.5 99.5 3.5 99.5 3.5 C 99.5 3.5 99.4 3.7 99.2 3.9 C 99.1 4.1 99 4.3 98.9 4.3 C 98.9 4.3 98.8 4.3 98.8 4.3 C 98.7 4.3 98.7 4.3 98.6 4.2 C 98.5 4.2 98.5 4.1 98.5 4 C 98.5 4 98.7 3.6 99.1 3 C 99.3 2.7 99.5 2.3 99.7 2 C 100.1 1.3 100.3 0.9 100.4 0.8 C 100.4 0.7 100.5 0.7 100.6 0.7 C 100.8 0.7 100.9 0.7 100.9 0.8 C 100.9 0.8 101 0.9 101 0.9 C 101 1 101 1.1 100.9 1.1 C 101.2 2 101.5 2.6 101.6 3 C 101.8 3.4 102 3.7 102.1 3.8 C 102.2 3.9 102.3 4 102.3 4 C 102.3 4 102.3 4.1 102.3 4.1 C 102.3 4.2 102.3 4.3 102.2 4.4 C 102.2 4.4 102.1 4.4 102 4.4 C 101.9 4.4 101.8 4.4 101.6 4.2 C 101.5 4.1 101.4 3.9 101.3 3.6 C 101.2 3.4 101.1 3.2 101.1 3.2 C 101.1 3.2 101.1 3.2 101.1 3.2 C 101 3.2 100.8 3.2 100.5 3.3 C 100.2 3.4 99.9 3.4 99.8 3.5 C 99.7 3.5 99.7 3.5 99.6 3.5 C 99.6 3.5 99.6 3.5 99.6 3.5 Z M 100.7 2.8 C 100.8 2.7 100.8 2.7 100.9 2.7 C 100.9 2.6 100.7 2.3 100.6 1.7 C 100.5 1.6 100.5 1.6 100.5 1.6 C 100.5 1.6 99.8 2.9 99.8 2.9 C 99.9 2.9 100 2.9 100.1 2.9 C 100.2 2.8 100.4 2.8 100.7 2.8 C 100.7 2.8 100.7 2.8 100.7 2.8 Z M 107.9 1.7 C 108 1.7 108 1.6 108 1.6 C 108 1.6 107.2 2.7 107.2 2.7 C 106.8 3.2 106.5 3.4 106.3 3.4 C 106.2 3.4 106.1 3.4 106 3.3 C 106 3.2 105.9 3 105.8 2.8 C 105.7 2.6 105.7 2.4 105.7 2.3 C 105.6 2 105.5 1.9 105.5 1.8 C 105.5 1.8 105.4 2.5 105.4 2.5 C 105.3 2.7 105.3 2.9 105.3 3 C 105.2 3.2 105.2 3.4 105.1 3.7 C 105.1 3.9 105.1 4.1 105 4.2 C 105 4.2 105 4.3 104.9 4.3 C 104.9 4.4 104.8 4.4 104.8 4.4 C 104.7 4.4 104.6 4.4 104.5 4.3 C 104.5 4.2 104.4 4.2 104.4 4.1 C 104.4 3.9 104.5 3.7 104.5 3.5 C 104.8 2.5 105 1.9 105 1.6 C 105 1.4 105.1 1.2 105.1 1 C 105.1 0.9 105.1 0.8 105.2 0.8 C 105.2 0.7 105.3 0.7 105.5 0.7 C 105.5 0.7 105.6 0.8 105.7 0.8 C 105.7 0.9 105.8 1 105.8 1.1 C 105.8 1.09 105.8 1.1 105.8 1.1 C 105.8 1.1 106.14 2.04 106.1 2 C 106.3 2.4 106.4 2.7 106.4 2.8 C 106.6 2.6 106.8 2.2 107.2 1.8 C 107.5 1.3 107.8 1 107.9 0.9 C 108 0.7 108.1 0.7 108.2 0.7 C 108.2 0.7 108.3 0.7 108.4 0.8 C 108.5 0.8 108.6 0.9 108.6 0.9 C 108.6 1 108.5 1.2 108.5 1.7 C 108.4 2 108.4 2.3 108.4 2.7 C 108.3 3.1 108.3 3.4 108.3 3.4 C 108.3 3.5 108.3 3.6 108.3 3.7 C 108.4 3.8 108.4 3.9 108.4 3.9 C 108.4 4.1 108.3 4.2 108.3 4.2 C 108.2 4.3 108.1 4.3 108 4.3 C 107.8 4.3 107.7 4.2 107.7 3.9 C 107.7 3.5 107.7 3.2 107.8 2.7 C 107.8 2.3 107.9 2 107.9 1.7 C 107.9 1.7 107.9 1.7 107.9 1.7 Z M 111.9 1.2 C 111.9 1.2 111.2 1.3 111.2 1.3 C 110.9 1.3 110.7 1.3 110.5 1.3 C 110.3 1.4 110.2 1.4 110.2 1.4 C 110.2 1.4 110.2 1.5 110.2 1.6 C 110.2 1.6 110.1 1.8 110.1 2 C 110 2.1 110 2.3 110 2.4 C 110.1 2.4 110.3 2.4 110.4 2.3 C 110.6 2.3 110.8 2.3 110.9 2.3 C 111.1 2.2 111.3 2.2 111.4 2.2 C 111.7 2.2 111.8 2.3 111.8 2.4 C 111.8 2.5 111.8 2.6 111.7 2.7 C 111.6 2.7 111.5 2.7 111.3 2.7 C 111.3 2.7 111.1 2.8 111 2.8 C 111 2.8 110.9 2.8 110.8 2.8 C 110.3 2.9 110.1 2.9 110 2.9 C 110 2.9 110 2.9 110 2.9 C 110 2.9 109.9 3 109.9 3 C 109.9 3 109.9 3.1 109.9 3.4 C 109.8 3.6 109.8 3.7 109.8 3.8 C 109.8 3.9 109.9 3.9 109.9 3.9 C 110 3.9 110.2 3.9 110.5 3.8 C 110.9 3.8 111.1 3.8 111.2 3.7 C 111.4 3.7 111.5 3.7 111.6 3.7 C 111.8 3.7 111.9 3.8 111.9 4 C 111.9 4 111.9 4.1 111.8 4.1 C 111.7 4.2 111.4 4.2 111.2 4.3 C 110.9 4.3 110.7 4.3 110.3 4.3 C 110.1 4.4 109.8 4.4 109.5 4.4 C 109.4 4.4 109.3 4.4 109.3 4.3 C 109.2 4.3 109.2 4.2 109.2 4.1 C 109.2 4.1 109.1 4 109.1 4 C 109.1 4 109.2 3.9 109.2 3.9 C 109.3 3.7 109.3 3.2 109.4 2.5 C 109.5 1.8 109.6 1.4 109.6 1.4 C 109.6 1.4 109.6 1.4 109.6 1.4 C 109.5 1.3 109.5 1.3 109.5 1.3 C 109.5 1.2 109.5 1.1 109.5 1.1 C 109.5 1.1 109.5 1 109.5 1 C 109.5 1 109.5 1 109.6 0.9 C 109.6 0.9 109.7 0.9 109.7 0.9 C 109.8 0.9 109.9 0.9 110 0.9 C 110.1 0.9 110.6 0.8 111.3 0.7 C 111.5 0.7 111.7 0.7 111.7 0.7 C 111.7 0.7 111.7 0.7 111.7 0.7 C 112 0.7 112.2 0.8 112.2 1 C 112.2 1 112.1 1.1 112.1 1.1 C 112 1.2 112 1.2 111.9 1.2 Z M 114.8 4.1 C 114.8 4.1 114.7 4.1 114.6 4.1 C 114.5 4.1 114.4 4.1 114.4 4.1 C 114 4.1 113.5 4.2 113.1 4.3 C 112.9 4.4 112.8 4.4 112.7 4.4 C 112.6 4.4 112.6 4.3 112.5 4.3 C 112.5 4.2 112.4 4.1 112.4 4 C 112.4 4 112.4 3.9 112.5 3.8 C 112.5 3.7 112.5 3.5 112.6 3.3 C 112.6 3.3 112.8 1.3 112.8 1.3 C 112.8 1.1 112.8 1 112.8 0.9 C 112.8 0.9 112.9 0.8 112.9 0.8 C 113 0.7 113.1 0.7 113.2 0.7 C 113.2 0.7 113.3 0.7 113.4 0.8 C 113.4 0.8 113.5 0.9 113.5 1 C 113.5 1 113.4 1.1 113.4 1.3 C 113.4 1.5 113.3 2 113.2 2.6 C 113.2 3.3 113.1 3.6 113.1 3.6 C 113.1 3.7 113.1 3.7 113.1 3.7 C 113.2 3.7 113.4 3.7 113.7 3.6 C 113.8 3.6 113.9 3.6 114.1 3.6 C 114.4 3.6 114.7 3.6 114.9 3.5 C 114.9 3.5 114.9 3.5 115 3.5 C 115 3.5 115.1 3.5 115.2 3.6 C 115.2 3.6 115.2 3.7 115.2 3.8 C 115.2 3.9 115.2 4 115.1 4 C 115 4.1 114.9 4.1 114.8 4.1 Z M 116.3 2.9 C 116.2 3 116.2 3.2 116.2 3.6 C 116.2 3.8 116.1 4 116.1 4.2 C 116 4.3 116 4.4 115.9 4.4 C 115.8 4.4 115.7 4.4 115.6 4.3 C 115.5 4.3 115.5 4.2 115.5 4 C 115.5 3.9 115.5 3.8 115.6 3.6 C 115.7 3.2 115.8 2.3 115.9 0.9 C 115.9 0.9 116 0.8 116 0.8 C 116.1 0.7 116.1 0.7 116.2 0.7 C 116.4 0.7 116.5 0.8 116.5 1.1 C 116.5 1.2 116.5 1.4 116.5 1.7 C 116.4 2 116.4 2.2 116.4 2.3 C 116.4 2.3 116.4 2.3 116.5 2.3 C 116.8 2.3 117.1 2.3 117.5 2.3 C 117.9 2.3 118.2 2.2 118.2 2.2 C 118.2 2.1 118.3 1.9 118.3 1.7 C 118.3 1.4 118.3 1.1 118.3 0.8 C 118.3 0.7 118.4 0.7 118.4 0.6 C 118.5 0.6 118.6 0.5 118.7 0.5 C 118.8 0.5 118.8 0.6 118.9 0.6 C 118.9 0.7 119 0.7 119 0.8 C 119 0.9 118.9 1.2 118.9 1.5 C 118.8 1.8 118.8 2.3 118.7 2.9 C 118.7 3.4 118.6 3.8 118.6 4 C 118.6 4.1 118.6 4.2 118.5 4.3 C 118.4 4.3 118.4 4.4 118.3 4.4 C 118.2 4.4 118.1 4.4 118.1 4.3 C 118 4.3 118 4.2 118 4.1 C 118 4 118 3.9 118 3.5 C 118.1 3.2 118.1 3 118.1 2.9 C 118.1 2.8 118.1 2.7 118.1 2.7 C 118 2.7 117.8 2.8 117.6 2.8 C 117.4 2.8 117.2 2.8 117.1 2.8 C 117.1 2.8 116.9 2.8 116.7 2.8 C 116.4 2.8 116.3 2.9 116.3 2.9 Z M 120.4 4.4 C 120.1 4.4 119.9 4.3 119.6 4 C 119.4 3.8 119.3 3.5 119.3 3.2 C 119.3 2.9 119.4 2.5 119.6 2.1 C 119.8 1.7 120.1 1.3 120.4 1.1 C 120.7 0.8 121.1 0.7 121.4 0.7 C 121.7 0.7 121.9 0.7 122.1 0.8 C 122.3 0.8 122.4 0.9 122.6 1.1 C 122.7 1.2 122.8 1.3 122.9 1.5 C 122.9 1.6 123 1.8 123 2 C 123 2.2 122.9 2.5 122.8 2.8 C 122.6 3.1 122.4 3.3 122.2 3.6 C 121.9 3.9 121.7 4.1 121.4 4.2 C 121.1 4.3 120.8 4.4 120.4 4.4 Z M 119.9 3.2 C 119.9 3.4 120 3.5 120.1 3.7 C 120.2 3.8 120.4 3.9 120.5 3.9 C 121 3.9 121.4 3.7 121.8 3.3 C 122.1 2.8 122.3 2.4 122.3 1.9 C 122.3 1.8 122.3 1.6 122.2 1.5 C 122.2 1.4 122.1 1.3 121.9 1.3 C 121.8 1.2 121.6 1.2 121.4 1.2 C 121.1 1.2 120.8 1.4 120.4 1.8 C 120.1 2.3 119.9 2.7 119.9 3.2 Z M 123.7 1.3 C 123.7 1.3 123.63 1.25 123.6 1.3 C 123.6 1.2 123.5 1.1 123.5 1.1 C 123.5 1 123.6 0.9 123.7 0.9 C 123.7 0.8 123.8 0.8 123.9 0.8 C 123.9 0.8 124 0.8 124 0.8 C 124 0.8 124.1 0.8 124.1 0.8 C 124.6 0.7 124.9 0.7 125.1 0.7 C 125.5 0.7 125.7 0.8 126 0.9 C 126.2 1.1 126.3 1.3 126.3 1.6 C 126.3 1.8 126.2 2 126 2.3 C 125.7 2.5 125.5 2.7 125.1 2.8 C 125.7 3.3 126.1 3.6 126.4 3.8 C 126.5 3.8 126.6 3.9 126.6 4 C 126.6 4.1 126.6 4.1 126.5 4.2 C 126.4 4.3 126.3 4.3 126.3 4.3 C 126.2 4.3 126.1 4.3 126 4.2 C 125.8 4.1 125.7 4 125.4 3.8 C 125.2 3.6 125.1 3.5 125.1 3.5 C 124.8 3.2 124.5 3 124.4 3 C 124.2 3 124.1 2.9 124.1 2.7 C 124.1 2.6 124.2 2.6 124.3 2.5 C 124.3 2.4 124.4 2.4 124.5 2.4 C 124.5 2.4 124.6 2.4 124.6 2.4 C 124.6 2.4 124.7 2.4 124.7 2.4 C 124.8 2.4 125 2.4 125.3 2.2 C 125.5 2 125.7 1.8 125.7 1.6 C 125.7 1.5 125.6 1.4 125.5 1.3 C 125.4 1.2 125.2 1.2 125 1.2 C 124.8 1.2 124.7 1.2 124.5 1.2 C 124.4 1.2 124.3 1.2 124.3 1.3 C 124.3 1.3 124.3 1.3 124.3 1.3 C 124.2 1.4 124.2 1.5 124.2 1.8 C 124.1 2.1 124 2.5 124 2.8 C 124 3.2 123.9 3.4 123.9 3.6 C 123.9 3.7 123.9 3.8 124 3.9 C 124 3.9 124 4 124 4.1 C 124 4.1 123.9 4.2 123.9 4.3 C 123.8 4.3 123.7 4.4 123.7 4.4 C 123.4 4.4 123.3 4.2 123.3 3.9 C 123.3 3.6 123.3 3.3 123.4 2.8 C 123.5 2.4 123.5 2 123.6 1.6 C 123.6 1.6 123.6 1.5 123.6 1.5 C 123.62 1.48 123.7 1.3 123.7 1.3 Z " stroke="none" fill="#000"/>  </g></svg>