<?xml version="1.0" standalone="no"?><!DOCTYPE svg PUBLIC "-//W3C//DTD SVG 1.1//EN" "http://www.w3.org/Graphics/SVG/1.1/DTD/svg11.dtd"><svg xmlns="http://www.w3.org/2000/svg" version="1.1" width="43px" height="22.9px" viewBox="0 -1 43 22.9" style="top:-1px">  <desc>AQUI NO CHURRASCO, CADA UM DEU SUA CONTRIBUI O.</desc>  <defs/>  <g id="Polygon14691">    <path d="M 10.4 14.7 C 10.5 14.6 10.6 14.6 10.6 14.6 C 10.7 14.6 10.7 14.6 10.7 14.7 C 10.7 14.8 10.6 14.9 10.4 15 C 10.2 15.1 10 15.2 9.8 15.2 C 9.6 15.2 9.5 15.1 9.3 15 C 9.2 14.9 9.1 14.7 9.1 14.5 C 9.1 14.3 9.2 14 9.3 13.8 C 9.5 13.5 9.7 13.3 9.9 13.1 C 10.1 12.9 10.4 12.8 10.6 12.8 C 10.7 12.8 10.8 12.9 10.9 12.9 C 11 13 11 13.1 11 13.2 C 11 13.3 11 13.4 11 13.5 C 11 13.5 10.9 13.6 10.9 13.6 C 10.8 13.6 10.8 13.6 10.7 13.6 C 10.7 13.6 10.7 13.6 10.6 13.6 C 10.6 13.6 10.6 13.5 10.6 13.5 C 10.6 13.5 10.6 13.4 10.6 13.4 C 10.6 13.3 10.6 13.3 10.6 13.2 C 10.6 13.1 10.6 13.1 10.6 13.1 C 10.4 13.1 10.3 13.2 10.1 13.3 C 9.9 13.5 9.8 13.7 9.6 13.9 C 9.5 14.1 9.5 14.3 9.5 14.5 C 9.5 14.6 9.5 14.7 9.6 14.8 C 9.6 14.9 9.7 14.9 9.8 14.9 C 9.9 14.9 10 14.9 10.1 14.8 C 10.2 14.8 10.3 14.7 10.4 14.7 C 10.4 14.7 10.4 14.7 10.4 14.7 Z M 11.7 15.2 C 11.6 15.2 11.4 15.1 11.3 14.9 C 11.2 14.8 11.1 14.6 11.1 14.4 C 11.1 14.2 11.2 14 11.3 13.8 C 11.4 13.5 11.6 13.3 11.8 13.2 C 12 13 12.2 12.9 12.4 12.9 C 12.5 12.9 12.7 13 12.8 13 C 12.9 13 13 13.1 13.1 13.2 C 13.2 13.2 13.2 13.3 13.3 13.4 C 13.3 13.5 13.3 13.6 13.3 13.7 C 13.3 13.9 13.3 14 13.2 14.2 C 13.1 14.4 13 14.5 12.8 14.7 C 12.7 14.8 12.5 15 12.4 15 C 12.2 15.1 12 15.2 11.7 15.2 Z M 11.5 14.4 C 11.5 14.6 11.5 14.7 11.6 14.7 C 11.7 14.8 11.7 14.9 11.8 14.9 C 12.1 14.9 12.3 14.7 12.6 14.5 C 12.8 14.2 12.9 14 12.9 13.7 C 12.9 13.6 12.9 13.5 12.9 13.4 C 12.8 13.4 12.8 13.3 12.7 13.3 C 12.6 13.2 12.5 13.2 12.4 13.2 C 12.2 13.2 12 13.4 11.8 13.6 C 11.6 13.9 11.5 14.2 11.5 14.4 Z M 13.6 14.6 C 13.6 14.6 13.68 14.1 13.7 14.1 C 13.8 13.7 13.8 13.4 13.8 13.3 C 13.8 13.2 13.8 13.2 13.8 13.1 C 13.8 13.1 13.9 13.1 13.9 13.1 C 13.9 13 14 13 14 13 C 14 13 14.1 13 14.1 13 C 14.2 13.1 14.2 13.1 14.2 13.2 C 14.3 13.4 14.4 13.6 14.5 13.9 C 14.7 14.2 14.9 14.4 15 14.6 C 15 14.4 15.1 14.2 15.1 13.9 C 15.2 13.7 15.2 13.6 15.2 13.4 C 15.2 13.3 15.2 13.2 15.2 13.1 C 15.3 13 15.3 13 15.3 12.9 C 15.4 12.9 15.4 12.9 15.5 12.9 C 15.5 12.9 15.5 12.9 15.6 13 C 15.6 13 15.6 13.1 15.6 13.1 C 15.6 13.2 15.6 13.3 15.6 13.4 C 15.5 13.6 15.4 13.9 15.4 14.2 C 15.3 14.6 15.3 14.8 15.3 14.8 C 15.3 14.8 15.3 14.9 15.3 14.9 C 15.3 14.9 15.3 15 15.3 15 C 15.3 15 15.3 15.1 15.2 15.1 C 15.2 15.1 15.1 15.1 15.1 15.1 C 15 15.1 15 15.1 15 15.1 C 15 15.1 15 15.1 14.9 15 C 14.9 15 14.9 15 14.8 14.9 C 14.8 14.8 14.8 14.8 14.7 14.7 C 14.5 14.5 14.3 14.1 14.1 13.7 C 14 13.8 14 14.1 13.9 14.6 C 13.9 14.6 13.9 14.7 13.9 14.7 C 13.9 14.7 13.9 14.8 13.9 14.9 C 13.9 15 13.9 15.1 13.8 15.1 C 13.8 15.2 13.7 15.2 13.7 15.2 C 13.6 15.2 13.6 15.2 13.6 15.1 C 13.5 15.1 13.5 15 13.5 14.9 C 13.5 14.9 13.5 14.7 13.6 14.6 C 13.57 14.6 13.6 14.6 13.6 14.6 Z M 17.5 13.3 C 17.3 13.3 17.1 13.3 17 13.3 C 17 13.3 17 13.4 17 13.4 C 17 13.4 16.9 13.6 16.9 13.9 C 16.9 14.2 16.9 14.4 16.9 14.6 C 16.9 14.7 16.9 14.8 16.9 14.9 C 16.9 14.9 16.9 14.9 16.9 14.9 C 16.9 15 16.9 15 16.8 15.1 C 16.8 15.1 16.8 15.1 16.7 15.1 C 16.7 15.1 16.7 15.1 16.6 15.1 C 16.6 15 16.5 15 16.5 14.9 C 16.5 14.8 16.5 14.7 16.5 14.6 C 16.5 14.5 16.5 14.2 16.6 13.9 C 16.6 13.5 16.6 13.4 16.6 13.4 C 16.6 13.4 16.5 13.4 16.3 13.4 C 16.1 13.4 16 13.4 16 13.4 C 15.9 13.4 15.8 13.4 15.8 13.4 C 15.7 13.3 15.7 13.3 15.7 13.3 C 15.7 13.2 15.7 13.2 15.8 13.1 C 15.8 13.1 15.9 13.1 16.1 13.1 C 16.4 13.1 16.6 13.1 16.9 13 C 17.2 13 17.4 13 17.6 13 C 17.8 13 17.9 13 17.9 13 C 18 13.1 18 13.1 18 13.2 C 18 13.3 17.9 13.3 17.9 13.3 C 17.8 13.3 17.8 13.3 17.7 13.3 C 17.7 13.3 17.6 13.3 17.5 13.3 C 17.5 13.3 17.5 13.3 17.5 13.3 Z M 18 13.3 C 18 13.3 18.01 13.28 18 13.3 C 18 13.2 18 13.2 18 13.2 C 18 13.1 18 13.1 18 13 C 18.1 13 18.1 13 18.2 13 C 18.2 13 18.2 13 18.2 13 C 18.3 13 18.3 13 18.3 13 C 18.6 13 18.8 12.9 18.9 12.9 C 19.1 12.9 19.3 13 19.4 13.1 C 19.5 13.2 19.6 13.3 19.6 13.5 C 19.6 13.6 19.5 13.8 19.4 13.9 C 19.3 14 19.1 14.1 18.9 14.2 C 19.3 14.5 19.5 14.7 19.7 14.8 C 19.8 14.8 19.8 14.9 19.8 14.9 C 19.8 15 19.8 15 19.7 15 C 19.7 15.1 19.6 15.1 19.6 15.1 C 19.5 15.1 19.5 15.1 19.4 15 C 19.3 15 19.2 14.9 19.1 14.8 C 19 14.7 18.9 14.6 18.9 14.6 C 18.7 14.5 18.6 14.4 18.5 14.3 C 18.4 14.3 18.3 14.3 18.3 14.1 C 18.3 14.1 18.3 14.1 18.4 14 C 18.4 14 18.5 14 18.5 14 C 18.6 14 18.6 14 18.6 14 C 18.6 14 18.6 14 18.6 14 C 18.7 14 18.8 13.9 19 13.8 C 19.2 13.7 19.2 13.6 19.2 13.5 C 19.2 13.4 19.2 13.3 19.1 13.3 C 19.1 13.2 19 13.2 18.9 13.2 C 18.7 13.2 18.6 13.2 18.5 13.2 C 18.5 13.3 18.4 13.3 18.4 13.3 C 18.4 13.3 18.4 13.3 18.4 13.3 C 18.4 13.3 18.4 13.4 18.3 13.6 C 18.3 13.8 18.3 14 18.2 14.2 C 18.2 14.4 18.2 14.6 18.2 14.7 C 18.2 14.7 18.2 14.8 18.2 14.8 C 18.2 14.9 18.2 14.9 18.2 15 C 18.2 15 18.2 15 18.2 15.1 C 18.1 15.1 18.1 15.1 18 15.1 C 17.9 15.1 17.8 15.1 17.8 14.9 C 17.8 14.7 17.8 14.5 17.9 14.2 C 17.9 14 17.9 13.7 18 13.5 C 18 13.5 18 13.4 18 13.4 C 18.01 13.41 18 13.3 18 13.3 Z M 20.5 13.6 C 20.4 13.7 20.4 13.8 20.4 13.8 C 20.4 13.9 20.4 13.9 20.4 14.1 C 20.4 14.3 20.3 14.4 20.3 14.5 C 20.3 14.6 20.4 14.7 20.4 14.9 C 20.4 15 20.4 15 20.3 15.1 C 20.3 15.1 20.2 15.1 20.2 15.1 C 20.1 15.1 20.1 15.1 20 15 C 20 15 20 14.9 20 14.7 C 20 14.6 20 14.4 20 14.1 C 20 14.1 20.1 13.5 20.1 13.5 C 20.1 13.4 20.2 13.3 20.2 13.3 C 20.2 13.1 20.2 13.1 20.2 13.1 C 20.2 13 20.3 13 20.3 13 C 20.3 13 20.4 12.9 20.4 12.9 C 20.5 12.9 20.5 13 20.5 13 C 20.6 13.1 20.6 13.1 20.6 13.2 C 20.6 13.2 20.5 13.6 20.5 13.6 Z M 22.2 13.9 C 22.4 13.9 22.5 14 22.6 14.1 C 22.6 14.2 22.7 14.3 22.7 14.4 C 22.7 14.6 22.6 14.8 22.3 15 C 22.1 15.2 21.8 15.2 21.6 15.2 C 21.4 15.2 21.3 15.2 21.3 15.1 C 21.3 15 21.4 14.9 21.6 14.9 C 21.6 14.9 21.7 14.9 21.7 14.9 C 21.8 14.9 21.9 14.8 22.1 14.7 C 22.2 14.6 22.3 14.5 22.3 14.4 C 22.3 14.3 22.3 14.3 22.2 14.2 C 22.2 14.2 22.1 14.1 22 14.1 C 22 14.1 21.9 14.1 21.9 14.2 C 21.8 14.2 21.7 14.2 21.7 14.2 C 21.6 14.2 21.5 14.2 21.5 14.2 C 21.5 14.2 21.5 14.1 21.5 14 C 21.5 14 21.6 13.9 21.8 13.9 C 21.9 13.8 22 13.7 22.1 13.6 C 22.2 13.5 22.3 13.4 22.3 13.3 C 22.3 13.3 22.2 13.2 22.1 13.2 C 21.9 13.2 21.8 13.2 21.7 13.2 C 21.6 13.3 21.5 13.3 21.5 13.4 C 21.5 13.4 21.4 13.6 21.4 14 C 21.3 14.4 21.3 14.7 21.3 14.7 C 21.3 14.7 21.3 14.9 21.3 14.9 C 21.3 15 21.2 15.1 21.2 15.1 C 21.2 15.1 21.1 15.2 21.1 15.2 C 20.9 15.2 20.9 15.1 20.9 14.9 C 20.9 14.9 20.9 14.8 20.9 14.8 C 20.9 14.6 21 14.3 21 14 C 21.1 13.7 21.1 13.5 21.1 13.5 C 21.1 13.5 21.1 13.4 21.1 13.4 C 21.1 13.4 21 13.4 21 13.4 C 21 13.4 21 13.4 20.9 13.4 C 20.9 13.4 20.9 13.4 20.9 13.4 C 20.9 13.3 20.9 13.3 20.9 13.3 C 20.9 13.2 21 13.1 21.3 13 C 21.6 12.9 21.8 12.9 22.1 12.9 C 22.3 12.9 22.4 12.9 22.5 13 C 22.6 13.1 22.7 13.2 22.7 13.3 C 22.7 13.4 22.6 13.5 22.6 13.6 C 22.5 13.6 22.4 13.8 22.2 13.9 Z M 23.8 15.2 C 23.7 15.2 23.6 15.1 23.4 15.1 C 23.3 15 23.2 14.9 23.1 14.7 C 23 14.6 23 14.4 23 14.2 C 23 14.1 23 14 23 13.9 C 23 13.9 23.1 13.6 23.1 13.6 C 23.1 13.5 23.1 13.5 23.1 13.5 C 23.1 13.4 23.1 13.3 23.1 13.3 C 23.2 13.2 23.2 13.1 23.2 13 C 23.3 13 23.3 12.9 23.4 12.9 C 23.4 12.9 23.4 13 23.5 13 C 23.5 13.1 23.5 13.1 23.5 13.2 C 23.5 13.2 23.5 13.3 23.5 13.5 C 23.5 13.5 23.4 13.6 23.4 13.8 C 23.4 14 23.4 14.1 23.4 14.2 C 23.4 14.5 23.4 14.6 23.5 14.7 C 23.6 14.8 23.7 14.9 23.8 14.9 C 24.1 14.9 24.2 14.8 24.3 14.7 C 24.4 14.6 24.5 14.4 24.5 14.2 C 24.5 14.1 24.5 14.1 24.5 14 C 24.5 13.9 24.5 13.9 24.5 13.8 C 24.6 13.4 24.6 13.2 24.6 13.1 C 24.7 13 24.8 13 24.8 13 C 24.9 13 25 13.1 25 13.2 C 25 13.3 25 13.4 24.9 13.6 C 24.9 13.7 24.9 13.9 24.9 14 C 24.9 14.3 24.8 14.5 24.8 14.6 C 24.7 14.8 24.6 14.9 24.4 15 C 24.3 15.1 24 15.2 23.8 15.2 Z M 25.7 13.6 C 25.7 13.7 25.7 13.8 25.7 13.8 C 25.7 13.9 25.7 13.9 25.7 14.1 C 25.6 14.3 25.6 14.4 25.6 14.5 C 25.6 14.6 25.6 14.7 25.7 14.9 C 25.7 15 25.6 15 25.6 15.1 C 25.5 15.1 25.5 15.1 25.5 15.1 C 25.4 15.1 25.3 15.1 25.3 15 C 25.3 15 25.3 14.9 25.3 14.7 C 25.3 14.6 25.3 14.4 25.3 14.1 C 25.3 14.1 25.4 13.5 25.4 13.5 C 25.4 13.4 25.4 13.3 25.4 13.3 C 25.5 13.1 25.5 13.1 25.5 13.1 C 25.5 13 25.5 13 25.6 13 C 25.6 13 25.7 12.9 25.7 12.9 C 25.7 12.9 25.8 13 25.8 13 C 25.8 13.1 25.9 13.1 25.9 13.2 C 25.9 13.2 25.7 13.6 25.7 13.6 Z M 26.6 15.2 C 26.6 15.2 26.6 15.2 26.6 15.2 C 26.6 15.3 26.6 15.3 26.6 15.3 C 26.7 15.3 26.7 15.3 26.8 15.3 C 26.8 15.3 26.9 15.3 26.9 15.4 C 27 15.4 27 15.5 27 15.6 C 27 15.7 26.9 15.8 26.8 15.8 C 26.7 15.9 26.6 16 26.4 16 C 26.4 16 26.4 16 26.3 15.9 C 26.2 15.9 26.2 15.9 26.2 15.9 C 26.1 15.9 26.1 15.8 26.1 15.8 C 26.1 15.7 26.1 15.7 26.1 15.7 C 26.2 15.6 26.2 15.6 26.2 15.6 C 26.3 15.6 26.3 15.7 26.4 15.7 C 26.4 15.7 26.4 15.7 26.4 15.7 C 26.5 15.7 26.5 15.7 26.5 15.7 C 26.5 15.7 26.6 15.7 26.6 15.7 C 26.7 15.7 26.7 15.6 26.7 15.6 C 26.7 15.6 26.7 15.5 26.7 15.5 C 26.6 15.5 26.6 15.5 26.6 15.5 C 26.5 15.5 26.5 15.5 26.4 15.5 C 26.3 15.5 26.3 15.5 26.3 15.4 C 26.3 15.3 26.4 15.3 26.4 15.2 C 26.4 15.2 26.4 15.2 26.4 15.1 C 26.2 15 26.1 14.8 26.1 14.5 C 26.1 14.1 26.2 13.8 26.6 13.4 C 26.9 13 27.2 12.8 27.5 12.8 C 27.7 12.8 27.8 12.9 27.9 12.9 C 27.9 13 28 13.1 28 13.2 C 28 13.3 28 13.4 27.9 13.5 C 27.9 13.5 27.9 13.6 27.8 13.6 C 27.8 13.6 27.7 13.6 27.7 13.6 C 27.7 13.6 27.6 13.6 27.6 13.6 C 27.6 13.6 27.6 13.5 27.6 13.5 C 27.6 13.5 27.6 13.4 27.6 13.4 C 27.6 13.3 27.6 13.3 27.6 13.2 C 27.6 13.1 27.6 13.1 27.5 13.1 C 27.4 13.1 27.3 13.2 27.1 13.3 C 26.9 13.5 26.7 13.7 26.6 13.9 C 26.5 14.1 26.4 14.3 26.4 14.5 C 26.4 14.6 26.5 14.7 26.5 14.8 C 26.6 14.9 26.7 14.9 26.8 14.9 C 26.9 14.9 27 14.9 27.1 14.8 C 27.2 14.8 27.3 14.7 27.4 14.7 C 27.5 14.6 27.6 14.6 27.6 14.6 C 27.7 14.6 27.7 14.6 27.7 14.7 C 27.7 14.8 27.6 14.9 27.4 15 C 27.1 15.2 26.9 15.2 26.6 15.2 Z M 28.6 14.6 C 28.6 14.6 28.5 14.6 28.5 14.6 C 28.5 14.6 28.4 14.7 28.3 14.9 C 28.3 15 28.2 15.1 28.2 15.1 C 28.1 15.1 28.1 15.1 28.1 15.1 C 28 15.1 28 15.1 28 15.1 C 27.9 15 27.9 15 27.9 15 C 27.9 14.9 28 14.7 28.2 14.3 C 28.4 14.1 28.5 13.9 28.6 13.7 C 28.8 13.3 29 13.1 29 13 C 29.1 13 29.1 12.9 29.2 12.9 C 29.3 12.9 29.3 12.9 29.4 13 C 29.4 13 29.4 13 29.4 13.1 C 29.4 13.1 29.4 13.2 29.4 13.2 C 29.5 13.7 29.7 14.1 29.8 14.3 C 29.9 14.6 30 14.7 30.1 14.8 C 30.1 14.9 30.2 14.9 30.2 14.9 C 30.2 14.9 30.2 15 30.2 15 C 30.2 15.1 30.2 15.1 30.1 15.1 C 30.1 15.2 30.1 15.2 30 15.2 C 29.9 15.2 29.9 15.1 29.8 15.1 C 29.7 15 29.6 14.9 29.6 14.7 C 29.5 14.6 29.5 14.5 29.5 14.5 C 29.5 14.5 29.5 14.4 29.5 14.4 C 29.4 14.4 29.3 14.5 29.1 14.5 C 28.9 14.5 28.8 14.6 28.7 14.6 C 28.6 14.6 28.6 14.6 28.6 14.6 C 28.6 14.6 28.6 14.6 28.6 14.6 Z M 29.2 14.2 C 29.3 14.2 29.3 14.2 29.3 14.2 C 29.3 14.1 29.3 13.9 29.1 13.5 C 29.1 13.5 29.1 13.5 29.1 13.5 C 29.1 13.5 28.7 14.3 28.7 14.3 C 28.8 14.3 28.8 14.2 28.9 14.2 C 28.9 14.2 29 14.2 29.2 14.2 C 29.2 14.2 29.2 14.2 29.2 14.2 Z M 29.6 12.6 C 29.5 12.6 29.4 12.6 29.4 12.6 C 29.3 12.6 29.3 12.5 29.2 12.5 C 29.2 12.5 29.2 12.5 29.2 12.5 C 29.2 12.5 29.2 12.5 29.2 12.4 C 29.1 12.4 29.1 12.4 29 12.4 C 29 12.4 28.9 12.4 28.9 12.5 C 28.9 12.5 28.9 12.5 28.9 12.5 C 28.8 12.6 28.8 12.6 28.7 12.6 C 28.7 12.6 28.7 12.7 28.7 12.7 C 28.6 12.7 28.5 12.6 28.5 12.5 C 28.5 12.5 28.6 12.4 28.7 12.2 C 28.8 12.1 28.9 12.1 29 12.1 C 29.1 12.1 29.1 12.1 29.2 12.1 C 29.2 12.1 29.3 12.1 29.3 12.2 C 29.4 12.3 29.4 12.3 29.5 12.3 C 29.5 12.4 29.5 12.4 29.5 12.4 C 29.6 12.4 29.6 12.3 29.6 12.3 C 29.7 12.2 29.7 12.2 29.7 12.2 C 29.7 12.2 29.7 12.2 29.7 12.2 C 29.7 12.1 29.8 12.1 29.8 12.1 C 29.9 12.1 29.9 12.2 29.9 12.2 C 29.9 12.3 29.9 12.4 29.8 12.5 C 29.7 12.6 29.6 12.6 29.6 12.6 C 29.6 12.6 29.6 12.6 29.6 12.6 Z M 30.9 15.2 C 30.8 15.2 30.6 15.1 30.5 14.9 C 30.4 14.8 30.3 14.6 30.3 14.4 C 30.3 14.2 30.4 14 30.5 13.8 C 30.6 13.5 30.8 13.3 31 13.2 C 31.1 13 31.3 12.9 31.6 12.9 C 31.7 12.9 31.9 13 32 13 C 32.1 13 32.2 13.1 32.3 13.2 C 32.3 13.2 32.4 13.3 32.4 13.4 C 32.5 13.5 32.5 13.6 32.5 13.7 C 32.5 13.9 32.4 14 32.4 14.2 C 32.3 14.4 32.2 14.5 32 14.7 C 31.9 14.8 31.7 15 31.5 15 C 31.4 15.1 31.2 15.2 30.9 15.2 Z M 30.7 14.4 C 30.7 14.6 30.7 14.7 30.8 14.7 C 30.8 14.8 30.9 14.9 31 14.9 C 31.3 14.9 31.5 14.7 31.8 14.5 C 32 14.2 32.1 14 32.1 13.7 C 32.1 13.6 32.1 13.5 32 13.4 C 32 13.4 31.9 13.3 31.8 13.3 C 31.8 13.2 31.7 13.2 31.6 13.2 C 31.4 13.2 31.2 13.4 31 13.6 C 30.8 13.9 30.7 14.2 30.7 14.4 Z M 32.6 15 C 32.6 15 32.5 15 32.5 15 C 32.5 15 32.5 14.9 32.5 14.8 C 32.5 14.8 32.5 14.7 32.5 14.7 C 32.5 14.7 32.5 14.6 32.5 14.6 C 32.6 14.6 32.6 14.6 32.7 14.6 C 32.8 14.6 32.8 14.6 32.9 14.6 C 32.9 14.7 32.9 14.7 32.9 14.7 C 32.9 14.8 32.9 14.8 32.9 14.9 C 32.9 14.9 32.8 14.9 32.8 15 C 32.7 15 32.7 15 32.6 15 Z " stroke="none" fill="#000"/>  </g>  <g id="Polygon14690">    <path d="M 7.4 10.7 C 7.5 10.6 7.6 10.6 7.6 10.6 C 7.7 10.6 7.7 10.6 7.7 10.7 C 7.7 10.8 7.6 10.9 7.4 11 C 7.2 11.1 7 11.2 6.8 11.2 C 6.6 11.2 6.4 11.1 6.3 11 C 6.1 10.9 6.1 10.7 6.1 10.5 C 6.1 10.3 6.1 10 6.3 9.8 C 6.5 9.5 6.6 9.3 6.9 9.1 C 7.1 8.9 7.3 8.8 7.6 8.8 C 7.7 8.8 7.8 8.9 7.9 8.9 C 7.9 9 8 9.1 8 9.2 C 8 9.3 8 9.4 8 9.5 C 7.9 9.5 7.9 9.6 7.8 9.6 C 7.8 9.6 7.7 9.6 7.7 9.6 C 7.7 9.6 7.6 9.6 7.6 9.6 C 7.6 9.6 7.6 9.5 7.6 9.5 C 7.6 9.5 7.6 9.4 7.6 9.4 C 7.6 9.3 7.6 9.3 7.6 9.2 C 7.6 9.1 7.6 9.1 7.5 9.1 C 7.4 9.1 7.3 9.2 7.1 9.3 C 6.9 9.5 6.8 9.7 6.6 9.9 C 6.5 10.1 6.4 10.3 6.4 10.5 C 6.4 10.6 6.5 10.7 6.5 10.8 C 6.6 10.9 6.7 10.9 6.8 10.9 C 6.9 10.9 7 10.9 7.1 10.8 C 7.2 10.8 7.3 10.7 7.4 10.7 C 7.4 10.7 7.4 10.7 7.4 10.7 Z M 8.6 10.6 C 8.6 10.6 8.5 10.6 8.5 10.6 C 8.5 10.6 8.4 10.7 8.4 10.9 C 8.3 11 8.2 11.1 8.2 11.1 C 8.1 11.1 8.1 11.1 8.1 11.1 C 8.1 11.1 8 11.1 8 11.1 C 7.9 11 7.9 11 7.9 11 C 7.9 10.9 8 10.7 8.3 10.3 C 8.4 10.1 8.5 9.9 8.6 9.7 C 8.8 9.3 9 9.1 9 9 C 9.1 9 9.1 8.9 9.2 8.9 C 9.3 8.9 9.3 8.9 9.4 9 C 9.4 9 9.4 9 9.4 9.1 C 9.4 9.1 9.4 9.2 9.4 9.2 C 9.6 9.7 9.7 10.1 9.8 10.3 C 9.9 10.6 10 10.7 10.1 10.8 C 10.2 10.9 10.2 10.9 10.2 10.9 C 10.2 10.9 10.2 11 10.2 11 C 10.2 11.1 10.2 11.1 10.2 11.1 C 10.1 11.2 10.1 11.2 10 11.2 C 9.9 11.2 9.9 11.1 9.8 11.1 C 9.7 11 9.6 10.9 9.6 10.7 C 9.5 10.6 9.5 10.5 9.5 10.5 C 9.5 10.5 9.5 10.4 9.5 10.4 C 9.4 10.4 9.3 10.5 9.1 10.5 C 8.9 10.5 8.8 10.6 8.7 10.6 C 8.6 10.6 8.6 10.6 8.6 10.6 C 8.6 10.6 8.6 10.6 8.6 10.6 Z M 9.2 10.2 C 9.3 10.2 9.3 10.2 9.4 10.2 C 9.3 10.1 9.3 9.9 9.1 9.5 C 9.1 9.5 9.1 9.5 9.1 9.5 C 9.1 9.5 8.7 10.3 8.7 10.3 C 8.8 10.3 8.8 10.2 8.9 10.2 C 8.9 10.2 9.1 10.2 9.2 10.2 C 9.2 10.2 9.2 10.2 9.2 10.2 Z M 10.5 10.8 C 10.5 10.8 10.5 10.7 10.5 10.6 C 10.5 10.2 10.6 9.9 10.6 9.5 C 10.6 9.4 10.6 9.4 10.6 9.3 C 10.6 9.3 10.6 9.3 10.6 9.3 C 10.5 9.3 10.5 9.2 10.5 9.2 C 10.5 9.1 10.5 9.1 10.5 9 C 10.6 9 10.6 9 10.7 9 C 10.7 9 10.9 9 10.9 9 C 11 9 11.1 9 11.2 9 C 11.4 8.9 11.5 8.9 11.6 8.9 C 11.8 8.9 12.1 9 12.2 9.2 C 12.4 9.3 12.5 9.5 12.5 9.8 C 12.5 10.1 12.3 10.3 12.1 10.5 C 11.8 10.8 11.5 10.9 11.1 11 C 11 11 11 11 10.9 11.1 C 10.9 11.1 10.8 11.1 10.8 11.1 C 10.7 11.2 10.7 11.2 10.6 11.2 C 10.5 11.2 10.5 11.2 10.5 11.1 C 10.4 11.1 10.4 11 10.4 11 C 10.4 11 10.4 11 10.4 10.9 C 10.4 10.9 10.5 10.8 10.5 10.8 Z M 10.8 10.7 C 10.8 10.7 10.8 10.7 10.9 10.8 C 10.9 10.8 11.1 10.7 11.3 10.7 C 11.5 10.6 11.7 10.5 11.9 10.3 C 12 10.1 12.1 10 12.1 9.8 C 12.1 9.6 12.1 9.5 12 9.4 C 11.8 9.3 11.7 9.2 11.5 9.2 C 11.4 9.2 11.2 9.2 11.1 9.3 C 11 9.3 11 9.3 11 9.3 C 10.9 9.9 10.8 10.4 10.8 10.7 C 10.8 10.7 10.8 10.7 10.8 10.7 Z M 13.1 10.6 C 13 10.6 13 10.6 13 10.6 C 13 10.6 12.9 10.7 12.8 10.9 C 12.7 11 12.7 11.1 12.6 11.1 C 12.6 11.1 12.6 11.1 12.6 11.1 C 12.5 11.1 12.5 11.1 12.4 11.1 C 12.4 11 12.4 11 12.4 11 C 12.4 10.9 12.5 10.7 12.7 10.3 C 12.9 10.1 13 9.9 13.1 9.7 C 13.3 9.3 13.5 9.1 13.5 9 C 13.5 9 13.6 8.9 13.7 8.9 C 13.7 8.9 13.8 8.9 13.8 9 C 13.9 9 13.9 9 13.9 9.1 C 13.9 9.1 13.9 9.2 13.8 9.2 C 14 9.7 14.2 10.1 14.3 10.3 C 14.4 10.6 14.5 10.7 14.6 10.8 C 14.6 10.9 14.7 10.9 14.7 10.9 C 14.7 10.9 14.7 11 14.7 11 C 14.7 11.1 14.7 11.1 14.6 11.1 C 14.6 11.2 14.5 11.2 14.5 11.2 C 14.4 11.2 14.3 11.1 14.3 11.1 C 14.2 11 14.1 10.9 14 10.7 C 14 10.6 13.9 10.5 13.9 10.5 C 13.9 10.5 13.9 10.4 13.9 10.4 C 13.9 10.4 13.8 10.5 13.6 10.5 C 13.4 10.5 13.3 10.6 13.1 10.6 C 13.1 10.6 13.1 10.6 13.1 10.6 C 13.1 10.6 13.1 10.6 13.1 10.6 Z M 13.7 10.2 C 13.7 10.2 13.8 10.2 13.8 10.2 C 13.8 10.1 13.7 9.9 13.6 9.5 C 13.6 9.5 13.6 9.5 13.6 9.5 C 13.6 9.5 13.2 10.3 13.2 10.3 C 13.2 10.3 13.3 10.2 13.4 10.2 C 13.4 10.2 13.5 10.2 13.7 10.2 C 13.7 10.2 13.7 10.2 13.7 10.2 Z M 16.8 11.2 C 16.7 11.2 16.6 11.1 16.5 11.1 C 16.3 11 16.2 10.9 16.1 10.7 C 16.1 10.6 16 10.4 16 10.2 C 16 10.1 16 10 16.1 9.9 C 16.1 9.9 16.1 9.6 16.1 9.6 C 16.1 9.5 16.1 9.5 16.1 9.5 C 16.2 9.4 16.2 9.3 16.2 9.3 C 16.2 9.2 16.2 9.1 16.2 9 C 16.3 9 16.3 8.9 16.4 8.9 C 16.4 8.9 16.5 9 16.5 9 C 16.6 9.1 16.6 9.1 16.6 9.2 C 16.6 9.2 16.5 9.3 16.5 9.5 C 16.5 9.5 16.5 9.6 16.4 9.8 C 16.4 10 16.4 10.1 16.4 10.2 C 16.4 10.5 16.4 10.6 16.6 10.7 C 16.7 10.8 16.8 10.9 16.8 10.9 C 17.1 10.9 17.3 10.8 17.3 10.7 C 17.4 10.6 17.5 10.4 17.5 10.2 C 17.5 10.1 17.5 10.1 17.5 10 C 17.6 9.9 17.6 9.9 17.6 9.8 C 17.6 9.4 17.6 9.2 17.7 9.1 C 17.7 9 17.8 9 17.9 9 C 18 9 18 9.1 18 9.2 C 18 9.3 18 9.4 18 9.6 C 17.9 9.7 17.9 9.9 17.9 10 C 17.9 10.3 17.9 10.5 17.8 10.6 C 17.7 10.8 17.6 10.9 17.4 11 C 17.3 11.1 17.1 11.2 16.8 11.2 Z M 20.3 9.6 C 20.3 9.5 20.3 9.5 20.3 9.5 C 20.3 9.5 19.8 10.1 19.8 10.1 C 19.6 10.4 19.4 10.6 19.3 10.6 C 19.3 10.6 19.2 10.6 19.2 10.5 C 19.1 10.4 19.1 10.3 19 10.2 C 19 10.1 19 10 18.9 9.9 C 18.9 9.7 18.9 9.6 18.8 9.6 C 18.8 9.6 18.8 10 18.8 10 C 18.7 10.1 18.7 10.2 18.7 10.3 C 18.7 10.5 18.7 10.6 18.6 10.7 C 18.6 10.9 18.6 11 18.6 11 C 18.6 11.1 18.5 11.1 18.5 11.1 C 18.5 11.2 18.4 11.2 18.4 11.2 C 18.4 11.2 18.3 11.1 18.3 11.1 C 18.2 11.1 18.2 11 18.2 11 C 18.2 10.9 18.2 10.8 18.3 10.6 C 18.4 10 18.5 9.7 18.5 9.5 C 18.6 9.3 18.6 9.2 18.6 9.1 C 18.6 9.1 18.6 9 18.6 9 C 18.7 9 18.7 9 18.8 9 C 18.9 9 18.9 9 18.9 9 C 19 9.1 19 9.1 19 9.2 C 19.02 9.18 19 9.2 19 9.2 C 19 9.2 19.22 9.75 19.2 9.7 C 19.3 10 19.4 10.1 19.4 10.2 C 19.5 10.1 19.6 9.9 19.9 9.6 C 20.1 9.3 20.2 9.1 20.3 9 C 20.4 9 20.4 8.9 20.4 8.9 C 20.5 8.9 20.5 8.9 20.6 9 C 20.7 9 20.7 9.1 20.7 9.1 C 20.7 9.1 20.7 9.3 20.6 9.5 C 20.6 9.7 20.6 9.9 20.6 10.2 C 20.5 10.4 20.5 10.5 20.5 10.6 C 20.5 10.6 20.5 10.7 20.5 10.8 C 20.6 10.8 20.6 10.8 20.6 10.9 C 20.6 11 20.5 11 20.5 11.1 C 20.5 11.1 20.4 11.1 20.4 11.1 C 20.2 11.1 20.2 11 20.2 10.8 C 20.2 10.7 20.2 10.4 20.2 10.2 C 20.2 9.9 20.3 9.7 20.3 9.6 C 20.3 9.6 20.3 9.6 20.3 9.6 Z M 22.2 10.8 C 22.3 10.8 22.3 10.7 22.3 10.6 C 22.3 10.2 22.3 9.9 22.4 9.5 C 22.4 9.4 22.4 9.4 22.4 9.3 C 22.4 9.3 22.4 9.3 22.4 9.3 C 22.3 9.3 22.2 9.2 22.2 9.2 C 22.2 9.1 22.3 9.1 22.3 9 C 22.3 9 22.4 9 22.4 9 C 22.4 9 22.6 9 22.6 9 C 22.7 9 22.9 9 23 9 C 23.1 8.9 23.3 8.9 23.3 8.9 C 23.6 8.9 23.8 9 24 9.2 C 24.2 9.3 24.3 9.5 24.3 9.8 C 24.3 10.1 24.1 10.3 23.9 10.5 C 23.6 10.8 23.3 10.9 22.9 11 C 22.8 11 22.8 11 22.7 11.1 C 22.7 11.1 22.6 11.1 22.6 11.1 C 22.5 11.2 22.4 11.2 22.4 11.2 C 22.3 11.2 22.3 11.2 22.2 11.1 C 22.2 11.1 22.2 11 22.2 11 C 22.2 11 22.2 11 22.2 10.9 C 22.2 10.9 22.2 10.8 22.2 10.8 Z M 22.6 10.7 C 22.6 10.7 22.6 10.7 22.6 10.8 C 22.7 10.8 22.8 10.7 23.1 10.7 C 23.3 10.6 23.5 10.5 23.7 10.3 C 23.8 10.1 23.9 10 23.9 9.8 C 23.9 9.6 23.8 9.5 23.7 9.4 C 23.6 9.3 23.5 9.2 23.3 9.2 C 23.2 9.2 23 9.2 22.8 9.3 C 22.8 9.3 22.8 9.3 22.8 9.3 C 22.7 9.9 22.6 10.4 22.6 10.7 C 22.6 10.7 22.6 10.7 22.6 10.7 Z M 26.2 9.3 C 26.2 9.3 25.7 9.3 25.7 9.3 C 25.5 9.3 25.4 9.3 25.3 9.3 C 25.2 9.3 25.1 9.4 25.1 9.4 C 25.1 9.4 25.1 9.4 25.1 9.5 C 25.1 9.5 25.1 9.6 25 9.7 C 25 9.8 25 9.9 25 9.9 C 25.1 9.9 25.2 9.9 25.3 9.9 C 25.4 9.9 25.5 9.9 25.5 9.9 C 25.7 9.9 25.8 9.8 25.8 9.8 C 26 9.8 26.1 9.9 26.1 10 C 26.1 10 26.1 10.1 26 10.1 C 26 10.1 25.9 10.2 25.8 10.2 C 25.8 10.2 25.7 10.2 25.6 10.2 C 25.6 10.2 25.5 10.2 25.5 10.2 C 25.2 10.2 25 10.3 25 10.3 C 25 10.3 25 10.3 25 10.3 C 25 10.3 25 10.3 25 10.3 C 25 10.3 24.9 10.4 24.9 10.5 C 24.9 10.7 24.9 10.8 24.9 10.8 C 24.9 10.8 24.9 10.9 25 10.9 C 25 10.9 25.1 10.8 25.3 10.8 C 25.5 10.8 25.6 10.8 25.7 10.8 C 25.8 10.7 25.9 10.7 26 10.7 C 26.1 10.7 26.1 10.8 26.1 10.9 C 26.1 10.9 26.1 11 26.1 11 C 26 11 25.9 11.1 25.7 11.1 C 25.6 11.1 25.4 11.1 25.2 11.1 C 25 11.2 24.9 11.2 24.7 11.2 C 24.6 11.2 24.6 11.2 24.6 11.1 C 24.5 11.1 24.5 11 24.5 11 C 24.5 11 24.5 10.9 24.5 10.9 C 24.5 10.9 24.5 10.9 24.5 10.8 C 24.6 10.7 24.6 10.5 24.7 10 C 24.7 9.6 24.7 9.4 24.7 9.3 C 24.7 9.3 24.7 9.3 24.7 9.3 C 24.7 9.3 24.7 9.3 24.7 9.3 C 24.7 9.2 24.7 9.2 24.7 9.2 C 24.7 9.2 24.7 9.1 24.7 9.1 C 24.7 9.1 24.7 9.1 24.7 9.1 C 24.8 9.1 24.8 9 24.8 9 C 24.9 9 24.9 9 25 9.1 C 25.1 9.1 25.3 9 25.8 9 C 25.9 8.9 26 8.9 26 8.9 C 26 8.9 26 8.9 26 8.9 C 26.2 8.9 26.3 9 26.3 9.1 C 26.3 9.1 26.3 9.2 26.2 9.2 C 26.2 9.2 26.2 9.2 26.2 9.3 Z M 27.3 11.2 C 27.2 11.2 27.1 11.1 27 11.1 C 26.8 11 26.7 10.9 26.6 10.7 C 26.5 10.6 26.5 10.4 26.5 10.2 C 26.5 10.1 26.5 10 26.6 9.9 C 26.6 9.9 26.6 9.6 26.6 9.6 C 26.6 9.5 26.6 9.5 26.6 9.5 C 26.6 9.4 26.6 9.3 26.7 9.3 C 26.7 9.2 26.7 9.1 26.7 9 C 26.8 9 26.8 8.9 26.9 8.9 C 26.9 8.9 27 9 27 9 C 27 9.1 27 9.1 27 9.2 C 27 9.2 27 9.3 27 9.5 C 27 9.5 26.9 9.6 26.9 9.8 C 26.9 10 26.9 10.1 26.9 10.2 C 26.9 10.5 26.9 10.6 27 10.7 C 27.1 10.8 27.2 10.9 27.3 10.9 C 27.6 10.9 27.7 10.8 27.8 10.7 C 27.9 10.6 28 10.4 28 10.2 C 28 10.1 28 10.1 28 10 C 28 9.9 28 9.9 28 9.8 C 28.1 9.4 28.1 9.2 28.1 9.1 C 28.2 9 28.3 9 28.3 9 C 28.4 9 28.5 9.1 28.5 9.2 C 28.5 9.3 28.5 9.4 28.4 9.6 C 28.4 9.7 28.4 9.9 28.4 10 C 28.4 10.3 28.3 10.5 28.3 10.6 C 28.2 10.8 28.1 10.9 27.9 11 C 27.8 11.1 27.6 11.2 27.3 11.2 Z M 31.5 9.2 C 31.5 9.4 31.4 9.5 31.2 9.5 C 31.2 9.4 31.2 9.3 31.1 9.3 C 31.1 9.3 31 9.2 30.9 9.2 C 30.8 9.2 30.6 9.3 30.5 9.4 C 30.3 9.4 30.3 9.5 30.3 9.6 C 30.3 9.7 30.3 9.7 30.3 9.8 C 30.4 9.8 30.5 9.9 30.7 9.9 C 31 10 31.2 10.1 31.3 10.2 C 31.4 10.2 31.4 10.3 31.4 10.5 C 31.4 10.6 31.3 10.8 31 11 C 30.7 11.1 30.4 11.2 30.1 11.2 C 30 11.2 29.9 11.2 29.9 11.2 C 29.8 11.1 29.8 11.1 29.8 11 C 29.8 10.9 29.8 10.9 29.8 10.9 C 29.8 10.8 29.9 10.8 29.9 10.8 C 29.9 10.8 30 10.8 30 10.8 C 30.1 10.9 30.2 10.9 30.3 10.9 C 30.4 10.9 30.6 10.8 30.8 10.7 C 31 10.7 31.1 10.6 31.1 10.5 C 31.1 10.5 31 10.4 31 10.4 C 30.9 10.4 30.8 10.3 30.7 10.3 C 30.5 10.2 30.3 10.1 30.2 10.1 C 30.1 10.1 30 10 30 9.9 C 29.9 9.9 29.9 9.8 29.9 9.7 C 29.9 9.5 30 9.3 30.2 9.2 C 30.4 9 30.7 8.9 31 8.9 C 31.1 8.9 31.3 9 31.4 9 C 31.5 9.1 31.5 9.2 31.5 9.2 C 31.5 9.2 31.5 9.2 31.5 9.2 Z M 32.6 11.2 C 32.5 11.2 32.3 11.1 32.2 11.1 C 32.1 11 31.9 10.9 31.9 10.7 C 31.8 10.6 31.8 10.4 31.8 10.2 C 31.8 10.1 31.8 10 31.8 9.9 C 31.8 9.9 31.8 9.6 31.8 9.6 C 31.9 9.5 31.9 9.5 31.9 9.5 C 31.9 9.4 31.9 9.3 31.9 9.3 C 31.9 9.2 31.9 9.1 32 9 C 32 9 32.1 8.9 32.1 8.9 C 32.2 8.9 32.2 9 32.2 9 C 32.3 9.1 32.3 9.1 32.3 9.2 C 32.3 9.2 32.3 9.3 32.2 9.5 C 32.2 9.5 32.2 9.6 32.2 9.8 C 32.1 10 32.1 10.1 32.1 10.2 C 32.1 10.5 32.2 10.6 32.3 10.7 C 32.4 10.8 32.5 10.9 32.6 10.9 C 32.8 10.9 33 10.8 33.1 10.7 C 33.2 10.6 33.2 10.4 33.3 10.2 C 33.3 10.1 33.3 10.1 33.3 10 C 33.3 9.9 33.3 9.9 33.3 9.8 C 33.3 9.4 33.4 9.2 33.4 9.1 C 33.4 9 33.5 9 33.6 9 C 33.7 9 33.7 9.1 33.7 9.2 C 33.7 9.3 33.7 9.4 33.7 9.6 C 33.7 9.7 33.6 9.9 33.6 10 C 33.6 10.3 33.6 10.5 33.5 10.6 C 33.5 10.8 33.3 10.9 33.2 11 C 33 11.1 32.8 11.2 32.6 11.2 Z M 34.4 10.6 C 34.4 10.6 34.4 10.6 34.3 10.6 C 34.3 10.6 34.3 10.7 34.2 10.9 C 34.1 11 34 11.1 34 11.1 C 34 11.1 34 11.1 33.9 11.1 C 33.9 11.1 33.9 11.1 33.8 11.1 C 33.8 11 33.7 11 33.7 11 C 33.7 10.9 33.8 10.7 34.1 10.3 C 34.2 10.1 34.4 9.9 34.5 9.7 C 34.7 9.3 34.8 9.1 34.9 9 C 34.9 9 35 8.9 35 8.9 C 35.1 8.9 35.2 8.9 35.2 9 C 35.2 9 35.2 9 35.2 9.1 C 35.2 9.1 35.2 9.2 35.2 9.2 C 35.4 9.7 35.5 10.1 35.6 10.3 C 35.7 10.6 35.8 10.7 35.9 10.8 C 36 10.9 36 10.9 36 10.9 C 36 10.9 36.1 11 36.1 11 C 36.1 11.1 36 11.1 36 11.1 C 36 11.2 35.9 11.2 35.9 11.2 C 35.8 11.2 35.7 11.1 35.6 11.1 C 35.5 11 35.5 10.9 35.4 10.7 C 35.3 10.6 35.3 10.5 35.3 10.5 C 35.3 10.5 35.3 10.4 35.3 10.4 C 35.2 10.4 35.1 10.5 34.9 10.5 C 34.8 10.5 34.6 10.6 34.5 10.6 C 34.5 10.6 34.5 10.6 34.4 10.6 C 34.4 10.6 34.4 10.6 34.4 10.6 Z M 35.1 10.2 C 35.1 10.2 35.1 10.2 35.2 10.2 C 35.2 10.1 35.1 9.9 35 9.5 C 35 9.5 35 9.5 35 9.5 C 35 9.5 34.5 10.3 34.5 10.3 C 34.6 10.3 34.7 10.2 34.7 10.2 C 34.8 10.2 34.9 10.2 35.1 10.2 C 35.1 10.2 35.1 10.2 35.1 10.2 Z " stroke="none" fill="#000"/>  </g>  <g id="Polygon14689">    <path d="M 4.2 6.6 C 4.2 6.6 4.1 6.6 4.1 6.6 C 4.1 6.6 4 6.7 4 6.9 C 3.9 7 3.8 7.1 3.8 7.1 C 3.7 7.1 3.7 7.1 3.7 7.1 C 3.6 7.1 3.6 7.1 3.6 7.1 C 3.5 7 3.5 7 3.5 7 C 3.5 6.9 3.6 6.7 3.9 6.3 C 4 6.1 4.1 5.9 4.2 5.7 C 4.4 5.3 4.6 5.1 4.6 5 C 4.7 5 4.7 4.9 4.8 4.9 C 4.9 4.9 4.9 4.9 5 5 C 5 5 5 5 5 5.1 C 5 5.1 5 5.2 5 5.2 C 5.2 5.7 5.3 6.1 5.4 6.3 C 5.5 6.6 5.6 6.7 5.7 6.8 C 5.7 6.9 5.8 6.9 5.8 6.9 C 5.8 6.9 5.8 7 5.8 7 C 5.8 7.1 5.8 7.1 5.7 7.1 C 5.7 7.2 5.7 7.2 5.6 7.2 C 5.5 7.2 5.5 7.1 5.4 7.1 C 5.3 7 5.2 6.9 5.2 6.7 C 5.1 6.6 5.1 6.5 5.1 6.5 C 5.1 6.5 5.1 6.4 5.1 6.4 C 5 6.4 4.9 6.5 4.7 6.5 C 4.5 6.5 4.4 6.6 4.3 6.6 C 4.2 6.6 4.2 6.6 4.2 6.6 C 4.2 6.6 4.2 6.6 4.2 6.6 Z M 4.8 6.2 C 4.9 6.2 4.9 6.2 4.9 6.2 C 4.9 6.1 4.9 5.9 4.7 5.5 C 4.7 5.5 4.7 5.5 4.7 5.5 C 4.7 5.5 4.3 6.3 4.3 6.3 C 4.4 6.3 4.4 6.2 4.5 6.2 C 4.5 6.2 4.6 6.2 4.8 6.2 C 4.8 6.2 4.8 6.2 4.8 6.2 Z M 7.6 5.2 C 7.8 5.3 7.9 5.4 7.9 5.5 C 8 5.7 8 5.8 8 6 C 8 6.1 8 6.3 7.9 6.4 C 7.8 6.6 7.7 6.7 7.5 6.9 C 7.7 7.1 7.8 7.2 7.8 7.3 C 7.9 7.3 7.9 7.4 7.9 7.4 C 7.9 7.4 7.8 7.4 7.8 7.5 C 7.7 7.5 7.7 7.6 7.7 7.6 C 7.6 7.6 7.6 7.5 7.5 7.5 C 7.5 7.4 7.4 7.3 7.3 7.2 C 7.2 7.1 7.2 7 7.2 7 C 7.2 7 7.2 7 7.1 7 C 7 7.1 6.8 7.1 6.7 7.1 C 6.5 7.1 6.3 7 6.1 6.9 C 6 6.8 5.9 6.7 5.9 6.5 C 5.9 6.2 6 6 6.1 5.8 C 6.3 5.5 6.5 5.3 6.7 5.1 C 7 5 7.2 4.9 7.4 4.9 C 7.4 4.9 7.5 4.9 7.5 5 C 7.6 5 7.6 5.1 7.6 5.2 Z M 6.7 6.8 C 6.7 6.8 6.8 6.8 7 6.8 C 6.9 6.7 6.9 6.7 6.9 6.7 C 6.8 6.6 6.8 6.5 6.8 6.5 C 6.8 6.5 6.8 6.5 6.9 6.4 C 6.9 6.4 7 6.3 7.1 6.3 C 7.1 6.3 7.2 6.4 7.2 6.4 C 7.2 6.5 7.2 6.5 7.2 6.6 C 7.3 6.6 7.3 6.6 7.3 6.6 C 7.4 6.6 7.5 6.6 7.6 6.4 C 7.7 6.3 7.7 6.1 7.7 6 C 7.7 5.8 7.6 5.6 7.5 5.5 C 7.4 5.3 7.3 5.2 7.2 5.2 C 7.1 5.2 7 5.3 6.8 5.4 C 6.7 5.6 6.5 5.7 6.4 5.9 C 6.3 6.1 6.3 6.3 6.3 6.4 C 6.3 6.6 6.3 6.6 6.4 6.7 C 6.5 6.8 6.6 6.8 6.7 6.8 C 6.7 6.8 6.7 6.8 6.7 6.8 Z M 9.2 7.2 C 9.1 7.2 9 7.1 8.8 7.1 C 8.7 7 8.6 6.9 8.5 6.7 C 8.4 6.6 8.4 6.4 8.4 6.2 C 8.4 6.1 8.4 6 8.4 5.9 C 8.4 5.9 8.5 5.6 8.5 5.6 C 8.5 5.5 8.5 5.5 8.5 5.5 C 8.5 5.4 8.5 5.3 8.5 5.3 C 8.5 5.2 8.6 5.1 8.6 5 C 8.6 5 8.7 4.9 8.8 4.9 C 8.8 4.9 8.8 5 8.9 5 C 8.9 5.1 8.9 5.1 8.9 5.2 C 8.9 5.2 8.9 5.3 8.8 5.5 C 8.8 5.5 8.8 5.6 8.8 5.8 C 8.8 6 8.7 6.1 8.7 6.2 C 8.7 6.5 8.8 6.6 8.9 6.7 C 9 6.8 9.1 6.9 9.2 6.9 C 9.4 6.9 9.6 6.8 9.7 6.7 C 9.8 6.6 9.8 6.4 9.9 6.2 C 9.9 6.1 9.9 6.1 9.9 6 C 9.9 5.9 9.9 5.9 9.9 5.8 C 9.9 5.4 10 5.2 10 5.1 C 10.1 5 10.1 5 10.2 5 C 10.3 5 10.4 5.1 10.4 5.2 C 10.4 5.3 10.3 5.4 10.3 5.6 C 10.3 5.7 10.3 5.9 10.3 6 C 10.2 6.3 10.2 6.5 10.1 6.6 C 10.1 6.8 10 6.9 9.8 7 C 9.6 7.1 9.4 7.2 9.2 7.2 Z M 11.1 5.6 C 11.1 5.7 11.1 5.8 11.1 5.8 C 11.1 5.9 11.1 5.9 11.1 6.1 C 11 6.3 11 6.4 11 6.5 C 11 6.6 11 6.7 11 6.9 C 11 7 11 7 11 7.1 C 10.9 7.1 10.9 7.1 10.8 7.1 C 10.8 7.1 10.7 7.1 10.7 7 C 10.6 7 10.6 6.9 10.6 6.7 C 10.6 6.6 10.7 6.4 10.7 6.1 C 10.7 6.1 10.8 5.5 10.8 5.5 C 10.8 5.4 10.8 5.3 10.8 5.3 C 10.8 5.1 10.8 5.1 10.9 5.1 C 10.9 5 10.9 5 11 5 C 11 5 11 4.9 11.1 4.9 C 11.1 4.9 11.2 5 11.2 5 C 11.2 5.1 11.2 5.1 11.2 5.2 C 11.2 5.2 11.1 5.6 11.1 5.6 Z M 12.7 6.6 C 12.7 6.6 12.79 6.1 12.8 6.1 C 12.9 5.7 12.9 5.4 12.9 5.3 C 12.9 5.2 12.9 5.2 12.9 5.1 C 12.9 5.1 13 5.1 13 5.1 C 13 5 13.1 5 13.1 5 C 13.2 5 13.2 5 13.2 5 C 13.3 5.1 13.3 5.1 13.3 5.2 C 13.4 5.4 13.5 5.6 13.6 5.9 C 13.8 6.2 14 6.4 14.1 6.6 C 14.1 6.4 14.2 6.2 14.2 5.9 C 14.3 5.7 14.3 5.6 14.3 5.4 C 14.3 5.3 14.4 5.2 14.4 5.1 C 14.4 5 14.4 5 14.4 4.9 C 14.5 4.9 14.5 4.9 14.6 4.9 C 14.6 4.9 14.6 4.9 14.7 5 C 14.7 5 14.7 5.1 14.7 5.1 C 14.7 5.2 14.7 5.3 14.7 5.4 C 14.6 5.6 14.6 5.9 14.5 6.2 C 14.4 6.6 14.4 6.8 14.4 6.8 C 14.4 6.8 14.4 6.9 14.4 6.9 C 14.4 6.9 14.4 7 14.4 7 C 14.4 7 14.4 7.1 14.3 7.1 C 14.3 7.1 14.2 7.1 14.2 7.1 C 14.1 7.1 14.1 7.1 14.1 7.1 C 14.1 7.1 14.1 7.1 14 7 C 14 7 14 7 13.9 6.9 C 13.9 6.8 13.9 6.8 13.8 6.7 C 13.6 6.5 13.4 6.1 13.2 5.7 C 13.1 5.8 13.1 6.1 13 6.6 C 13 6.6 13 6.7 13 6.7 C 13 6.7 13 6.8 13 6.9 C 13 7 13 7.1 12.9 7.1 C 12.9 7.2 12.8 7.2 12.8 7.2 C 12.7 7.2 12.7 7.2 12.7 7.1 C 12.6 7.1 12.6 7 12.6 6.9 C 12.6 6.9 12.6 6.7 12.7 6.6 C 12.68 6.6 12.7 6.6 12.7 6.6 Z M 15.6 7.2 C 15.4 7.2 15.2 7.1 15.1 6.9 C 15 6.8 14.9 6.6 14.9 6.4 C 14.9 6.2 15 6 15.1 5.8 C 15.2 5.5 15.4 5.3 15.6 5.2 C 15.8 5 16 4.9 16.2 4.9 C 16.4 4.9 16.5 5 16.6 5 C 16.7 5 16.8 5.1 16.9 5.2 C 17 5.2 17 5.3 17.1 5.4 C 17.1 5.5 17.1 5.6 17.1 5.7 C 17.1 5.9 17.1 6 17 6.2 C 16.9 6.4 16.8 6.5 16.6 6.7 C 16.5 6.8 16.3 7 16.2 7 C 16 7.1 15.8 7.2 15.6 7.2 Z M 15.3 6.4 C 15.3 6.6 15.3 6.7 15.4 6.7 C 15.5 6.8 15.6 6.9 15.7 6.9 C 15.9 6.9 16.2 6.7 16.4 6.5 C 16.6 6.2 16.7 6 16.7 5.7 C 16.7 5.6 16.7 5.5 16.7 5.4 C 16.6 5.4 16.6 5.3 16.5 5.3 C 16.4 5.2 16.3 5.2 16.2 5.2 C 16 5.2 15.8 5.4 15.6 5.6 C 15.4 5.9 15.3 6.2 15.3 6.4 Z M 19.8 6.7 C 19.9 6.6 19.9 6.6 20 6.6 C 20 6.6 20.1 6.6 20.1 6.7 C 20.1 6.8 20 6.9 19.8 7 C 19.5 7.1 19.3 7.2 19.1 7.2 C 19 7.2 18.8 7.1 18.6 7 C 18.5 6.9 18.4 6.7 18.4 6.5 C 18.4 6.3 18.5 6 18.6 5.8 C 18.8 5.5 19 5.3 19.2 5.1 C 19.5 4.9 19.7 4.8 19.9 4.8 C 20 4.8 20.1 4.9 20.2 4.9 C 20.3 5 20.3 5.1 20.3 5.2 C 20.3 5.3 20.3 5.4 20.3 5.5 C 20.3 5.5 20.3 5.6 20.2 5.6 C 20.1 5.6 20.1 5.6 20.1 5.6 C 20 5.6 20 5.6 20 5.6 C 19.9 5.6 19.9 5.5 19.9 5.5 C 19.9 5.5 19.9 5.4 19.9 5.4 C 20 5.3 20 5.3 20 5.2 C 20 5.1 19.9 5.1 19.9 5.1 C 19.8 5.1 19.6 5.2 19.4 5.3 C 19.2 5.5 19.1 5.7 19 5.9 C 18.9 6.1 18.8 6.3 18.8 6.5 C 18.8 6.6 18.8 6.7 18.9 6.8 C 19 6.9 19 6.9 19.2 6.9 C 19.2 6.9 19.3 6.9 19.5 6.8 C 19.6 6.8 19.7 6.7 19.8 6.7 C 19.8 6.7 19.8 6.7 19.8 6.7 Z M 21 6.3 C 20.9 6.3 20.9 6.4 20.9 6.7 C 20.9 6.8 20.9 6.9 20.9 7 C 20.8 7.1 20.8 7.2 20.7 7.2 C 20.7 7.2 20.6 7.2 20.6 7.1 C 20.5 7.1 20.5 7 20.5 7 C 20.5 6.9 20.5 6.8 20.6 6.7 C 20.6 6.4 20.7 5.9 20.8 5.1 C 20.8 5 20.8 5 20.8 5 C 20.9 5 20.9 4.9 20.9 4.9 C 21.1 4.9 21.1 5 21.1 5.2 C 21.1 5.2 21.1 5.4 21.1 5.5 C 21 5.7 21 5.8 21 5.9 C 21 5.9 21.1 5.9 21.1 5.9 C 21.3 5.9 21.5 5.9 21.7 5.9 C 22 5.9 22.1 5.8 22.1 5.8 C 22.1 5.8 22.2 5.7 22.2 5.5 C 22.2 5.4 22.2 5.2 22.2 5 C 22.2 5 22.2 4.9 22.3 4.9 C 22.3 4.9 22.4 4.8 22.4 4.8 C 22.5 4.8 22.5 4.9 22.5 4.9 C 22.6 4.9 22.6 5 22.6 5 C 22.6 5.1 22.6 5.2 22.5 5.4 C 22.5 5.6 22.5 5.9 22.4 6.2 C 22.4 6.6 22.4 6.8 22.4 6.9 C 22.4 7 22.4 7 22.3 7.1 C 22.3 7.1 22.2 7.2 22.2 7.2 C 22.1 7.2 22.1 7.1 22.1 7.1 C 22 7.1 22 7 22 7 C 22 6.9 22 6.8 22 6.6 C 22.1 6.4 22.1 6.3 22.1 6.2 C 22.1 6.2 22.1 6.2 22 6.2 C 22 6.2 21.9 6.2 21.8 6.2 C 21.6 6.2 21.5 6.2 21.5 6.2 C 21.5 6.2 21.4 6.2 21.2 6.2 C 21.1 6.2 21 6.2 21 6.3 Z M 23.7 7.2 C 23.6 7.2 23.5 7.1 23.3 7.1 C 23.2 7 23.1 6.9 23 6.7 C 22.9 6.6 22.9 6.4 22.9 6.2 C 22.9 6.1 22.9 6 22.9 5.9 C 22.9 5.9 23 5.6 23 5.6 C 23 5.5 23 5.5 23 5.5 C 23 5.4 23 5.3 23 5.3 C 23 5.2 23.1 5.1 23.1 5 C 23.1 5 23.2 4.9 23.3 4.9 C 23.3 4.9 23.3 5 23.4 5 C 23.4 5.1 23.4 5.1 23.4 5.2 C 23.4 5.2 23.4 5.3 23.4 5.5 C 23.3 5.5 23.3 5.6 23.3 5.8 C 23.3 6 23.3 6.1 23.3 6.2 C 23.3 6.5 23.3 6.6 23.4 6.7 C 23.5 6.8 23.6 6.9 23.7 6.9 C 23.9 6.9 24.1 6.8 24.2 6.7 C 24.3 6.6 24.4 6.4 24.4 6.2 C 24.4 6.1 24.4 6.1 24.4 6 C 24.4 5.9 24.4 5.9 24.4 5.8 C 24.5 5.4 24.5 5.2 24.5 5.1 C 24.6 5 24.6 5 24.7 5 C 24.8 5 24.9 5.1 24.9 5.2 C 24.9 5.3 24.9 5.4 24.8 5.6 C 24.8 5.7 24.8 5.9 24.8 6 C 24.8 6.3 24.7 6.5 24.6 6.6 C 24.6 6.8 24.5 6.9 24.3 7 C 24.1 7.1 23.9 7.2 23.7 7.2 Z M 25.3 5.3 C 25.3 5.3 25.3 5.28 25.3 5.3 C 25.3 5.2 25.2 5.2 25.2 5.2 C 25.2 5.1 25.3 5.1 25.3 5 C 25.4 5 25.4 5 25.5 5 C 25.5 5 25.5 5 25.5 5 C 25.5 5 25.6 5 25.6 5 C 25.9 5 26.1 4.9 26.2 4.9 C 26.4 4.9 26.6 5 26.7 5.1 C 26.8 5.2 26.9 5.3 26.9 5.5 C 26.9 5.6 26.8 5.8 26.7 5.9 C 26.6 6 26.4 6.1 26.2 6.2 C 26.5 6.5 26.8 6.7 27 6.8 C 27 6.8 27.1 6.9 27.1 6.9 C 27.1 7 27.1 7 27 7 C 27 7.1 26.9 7.1 26.9 7.1 C 26.8 7.1 26.8 7.1 26.7 7 C 26.6 7 26.5 6.9 26.4 6.8 C 26.3 6.7 26.2 6.6 26.2 6.6 C 26 6.5 25.8 6.4 25.8 6.3 C 25.7 6.3 25.6 6.3 25.6 6.1 C 25.6 6.1 25.6 6.1 25.7 6 C 25.7 6 25.8 6 25.8 6 C 25.8 6 25.9 6 25.9 6 C 25.9 6 25.9 6 25.9 6 C 26 6 26.1 5.9 26.3 5.8 C 26.4 5.7 26.5 5.6 26.5 5.5 C 26.5 5.4 26.5 5.3 26.4 5.3 C 26.3 5.2 26.3 5.2 26.1 5.2 C 26 5.2 25.9 5.2 25.8 5.2 C 25.8 5.3 25.7 5.3 25.7 5.3 C 25.7 5.3 25.7 5.3 25.7 5.3 C 25.7 5.3 25.6 5.4 25.6 5.6 C 25.6 5.8 25.5 6 25.5 6.2 C 25.5 6.4 25.5 6.6 25.5 6.7 C 25.5 6.7 25.5 6.8 25.5 6.8 C 25.5 6.9 25.5 6.9 25.5 7 C 25.5 7 25.5 7 25.4 7.1 C 25.4 7.1 25.4 7.1 25.3 7.1 C 25.2 7.1 25.1 7.1 25.1 6.9 C 25.1 6.7 25.1 6.5 25.2 6.2 C 25.2 6 25.2 5.7 25.3 5.5 C 25.3 5.5 25.3 5.4 25.3 5.4 C 25.3 5.41 25.3 5.3 25.3 5.3 Z M 27.4 5.3 C 27.4 5.3 27.42 5.28 27.4 5.3 C 27.4 5.2 27.4 5.2 27.4 5.2 C 27.4 5.1 27.4 5.1 27.4 5 C 27.5 5 27.5 5 27.6 5 C 27.6 5 27.6 5 27.6 5 C 27.7 5 27.7 5 27.7 5 C 28 5 28.2 4.9 28.3 4.9 C 28.5 4.9 28.7 5 28.8 5.1 C 28.9 5.2 29 5.3 29 5.5 C 29 5.6 28.9 5.8 28.8 5.9 C 28.7 6 28.5 6.1 28.3 6.2 C 28.7 6.5 28.9 6.7 29.1 6.8 C 29.2 6.8 29.2 6.9 29.2 6.9 C 29.2 7 29.2 7 29.1 7 C 29.1 7.1 29 7.1 29 7.1 C 29 7.1 28.9 7.1 28.8 7 C 28.7 7 28.6 6.9 28.5 6.8 C 28.4 6.7 28.3 6.6 28.3 6.6 C 28.1 6.5 28 6.4 27.9 6.3 C 27.8 6.3 27.7 6.3 27.7 6.1 C 27.7 6.1 27.7 6.1 27.8 6 C 27.8 6 27.9 6 28 6 C 28 6 28 6 28 6 C 28 6 28 6 28 6 C 28.1 6 28.2 5.9 28.4 5.8 C 28.6 5.7 28.6 5.6 28.6 5.5 C 28.6 5.4 28.6 5.3 28.5 5.3 C 28.5 5.2 28.4 5.2 28.3 5.2 C 28.1 5.2 28 5.2 28 5.2 C 27.9 5.3 27.8 5.3 27.8 5.3 C 27.8 5.3 27.8 5.3 27.8 5.3 C 27.8 5.3 27.8 5.4 27.7 5.6 C 27.7 5.8 27.7 6 27.6 6.2 C 27.6 6.4 27.6 6.6 27.6 6.7 C 27.6 6.7 27.6 6.8 27.6 6.8 C 27.6 6.9 27.6 6.9 27.6 7 C 27.6 7 27.6 7 27.6 7.1 C 27.5 7.1 27.5 7.1 27.4 7.1 C 27.3 7.1 27.2 7.1 27.2 6.9 C 27.2 6.7 27.2 6.5 27.3 6.2 C 27.3 6 27.4 5.7 27.4 5.5 C 27.4 5.5 27.4 5.4 27.4 5.4 C 27.42 5.41 27.4 5.3 27.4 5.3 Z M 29.8 6.6 C 29.8 6.6 29.8 6.6 29.7 6.6 C 29.7 6.6 29.7 6.7 29.6 6.9 C 29.5 7 29.4 7.1 29.4 7.1 C 29.4 7.1 29.3 7.1 29.3 7.1 C 29.3 7.1 29.2 7.1 29.2 7.1 C 29.1 7 29.1 7 29.1 7 C 29.1 6.9 29.2 6.7 29.5 6.3 C 29.6 6.1 29.7 5.9 29.9 5.7 C 30.1 5.3 30.2 5.1 30.3 5 C 30.3 5 30.4 4.9 30.4 4.9 C 30.5 4.9 30.6 4.9 30.6 5 C 30.6 5 30.6 5 30.6 5.1 C 30.6 5.1 30.6 5.2 30.6 5.2 C 30.8 5.7 30.9 6.1 31 6.3 C 31.1 6.6 31.2 6.7 31.3 6.8 C 31.4 6.9 31.4 6.9 31.4 6.9 C 31.4 6.9 31.4 7 31.4 7 C 31.4 7.1 31.4 7.1 31.4 7.1 C 31.3 7.2 31.3 7.2 31.2 7.2 C 31.2 7.2 31.1 7.1 31 7.1 C 30.9 7 30.9 6.9 30.8 6.7 C 30.7 6.6 30.7 6.5 30.7 6.5 C 30.7 6.5 30.7 6.4 30.7 6.4 C 30.6 6.4 30.5 6.5 30.3 6.5 C 30.2 6.5 30 6.6 29.9 6.6 C 29.9 6.6 29.9 6.6 29.8 6.6 C 29.8 6.6 29.8 6.6 29.8 6.6 Z M 30.5 6.2 C 30.5 6.2 30.5 6.2 30.6 6.2 C 30.6 6.1 30.5 5.9 30.4 5.5 C 30.4 5.5 30.4 5.5 30.4 5.5 C 30.4 5.5 29.9 6.3 29.9 6.3 C 30 6.3 30.1 6.2 30.1 6.2 C 30.2 6.2 30.3 6.2 30.5 6.2 C 30.5 6.2 30.5 6.2 30.5 6.2 Z M 33.3 5.2 C 33.3 5.4 33.2 5.5 33 5.5 C 33 5.4 32.9 5.3 32.9 5.3 C 32.8 5.3 32.8 5.2 32.7 5.2 C 32.5 5.2 32.4 5.3 32.2 5.4 C 32.1 5.4 32 5.5 32 5.6 C 32 5.7 32 5.7 32.1 5.8 C 32.1 5.8 32.3 5.9 32.5 5.9 C 32.7 6 32.9 6.1 33 6.2 C 33.1 6.2 33.2 6.3 33.2 6.5 C 33.2 6.6 33 6.8 32.8 7 C 32.5 7.1 32.2 7.2 31.9 7.2 C 31.8 7.2 31.7 7.2 31.6 7.2 C 31.6 7.1 31.5 7.1 31.5 7 C 31.5 6.9 31.5 6.9 31.6 6.9 C 31.6 6.8 31.6 6.8 31.7 6.8 C 31.7 6.8 31.7 6.8 31.7 6.8 C 31.8 6.9 31.9 6.9 32 6.9 C 32.2 6.9 32.3 6.8 32.5 6.7 C 32.7 6.7 32.8 6.6 32.8 6.5 C 32.8 6.5 32.8 6.4 32.7 6.4 C 32.7 6.4 32.6 6.3 32.5 6.3 C 32.2 6.2 32.1 6.1 32 6.1 C 31.9 6.1 31.8 6 31.7 5.9 C 31.7 5.9 31.6 5.8 31.6 5.7 C 31.6 5.5 31.8 5.3 32 5.2 C 32.2 5 32.4 4.9 32.7 4.9 C 32.9 4.9 33 5 33.1 5 C 33.2 5.1 33.3 5.2 33.3 5.2 C 33.3 5.2 33.3 5.2 33.3 5.2 Z M 34.8 6.7 C 34.9 6.6 34.9 6.6 35 6.6 C 35 6.6 35.1 6.6 35.1 6.7 C 35.1 6.8 35 6.9 34.8 7 C 34.5 7.1 34.3 7.2 34.1 7.2 C 34 7.2 33.8 7.1 33.6 7 C 33.5 6.9 33.4 6.7 33.4 6.5 C 33.4 6.3 33.5 6 33.6 5.8 C 33.8 5.5 34 5.3 34.2 5.1 C 34.5 4.9 34.7 4.8 34.9 4.8 C 35 4.8 35.1 4.9 35.2 4.9 C 35.3 5 35.3 5.1 35.3 5.2 C 35.3 5.3 35.3 5.4 35.3 5.5 C 35.3 5.5 35.3 5.6 35.2 5.6 C 35.1 5.6 35.1 5.6 35.1 5.6 C 35 5.6 35 5.6 35 5.6 C 34.9 5.6 34.9 5.5 34.9 5.5 C 34.9 5.5 34.9 5.4 34.9 5.4 C 35 5.3 35 5.3 35 5.2 C 35 5.1 34.9 5.1 34.9 5.1 C 34.8 5.1 34.6 5.2 34.4 5.3 C 34.2 5.5 34.1 5.7 34 5.9 C 33.9 6.1 33.8 6.3 33.8 6.5 C 33.8 6.6 33.8 6.7 33.9 6.8 C 34 6.9 34 6.9 34.2 6.9 C 34.2 6.9 34.3 6.9 34.5 6.8 C 34.6 6.8 34.7 6.7 34.8 6.7 C 34.8 6.7 34.8 6.7 34.8 6.7 Z M 36.1 7.2 C 35.9 7.2 35.8 7.1 35.6 6.9 C 35.5 6.8 35.4 6.6 35.4 6.4 C 35.4 6.2 35.5 6 35.6 5.8 C 35.8 5.5 35.9 5.3 36.1 5.2 C 36.3 5 36.5 4.9 36.7 4.9 C 36.9 4.9 37 5 37.1 5 C 37.2 5 37.3 5.1 37.4 5.2 C 37.5 5.2 37.6 5.3 37.6 5.4 C 37.6 5.5 37.6 5.6 37.6 5.7 C 37.6 5.9 37.6 6 37.5 6.2 C 37.4 6.4 37.3 6.5 37.2 6.7 C 37 6.8 36.9 7 36.7 7 C 36.5 7.1 36.3 7.2 36.1 7.2 Z M 35.8 6.4 C 35.8 6.6 35.9 6.7 35.9 6.7 C 36 6.8 36.1 6.9 36.2 6.9 C 36.4 6.9 36.7 6.7 36.9 6.5 C 37.1 6.2 37.3 6 37.3 5.7 C 37.3 5.6 37.2 5.5 37.2 5.4 C 37.2 5.4 37.1 5.3 37 5.3 C 36.9 5.2 36.8 5.2 36.7 5.2 C 36.5 5.2 36.3 5.4 36.1 5.6 C 35.9 5.9 35.8 6.2 35.8 6.4 Z M 37.6 7.3 C 37.6 7.3 37.6 7.3 37.7 7.3 C 37.7 7.3 37.8 7.2 37.9 7.2 C 37.9 7.1 38 7.1 38 7 C 38 7 38.1 6.9 38.1 6.9 C 38.1 6.9 38 6.8 38 6.8 C 38 6.7 38 6.7 38 6.7 C 38 6.7 38 6.6 38 6.6 C 38.1 6.6 38.1 6.5 38.1 6.5 C 38.1 6.5 38.2 6.6 38.2 6.6 C 38.3 6.6 38.3 6.6 38.3 6.6 C 38.3 6.7 38.4 6.7 38.4 6.8 C 38.4 6.8 38.4 6.9 38.4 6.9 C 38.4 6.9 38.4 7 38.3 7.1 C 38.3 7.2 38.2 7.2 38.2 7.3 C 38.1 7.3 38 7.4 38 7.4 C 38 7.4 38 7.4 38 7.4 C 37.8 7.4 37.8 7.4 37.7 7.4 C 37.7 7.4 37.6 7.4 37.6 7.3 C 37.6 7.3 37.6 7.3 37.6 7.3 Z " stroke="none" fill="#000"/>  </g></svg>