<?xml version="1.0" standalone="no"?><!DOCTYPE svg PUBLIC "-//W3C//DTD SVG 1.1//EN" "http://www.w3.org/Graphics/SVG/1.1/DTD/svg11.dtd"><svg xmlns="http://www.w3.org/2000/svg" version="1.1" width="99px" height="33.8px" viewBox="0 -7 99 33.8" style="top:-7px">  <desc>JAQUELINE</desc>  <defs/>  <g id="Polygon13268">    <path d="M 7.5 1.7 C 7.7 1.7 7.9 1.8 8.1 2 C 8.2 2.1 8.3 2.3 8.3 2.5 C 8.3 3.6 8.2 5.2 7.9 7.2 C 7.6 9.2 7.2 10.6 6.5 11.6 C 5.9 12.6 5 13.1 3.8 13.1 C 2.9 13.1 2 12.8 1.1 12.2 C 0.2 11.6 -0.2 11 -0.2 10.6 C -0.2 10.3 -0.1 10.1 0.1 9.9 C 0.2 9.8 0.5 9.7 0.8 9.7 C 1 9.7 1.3 9.9 1.6 10.1 C 2.4 11 3.2 11.4 3.8 11.4 C 4.4 11.4 4.8 11.1 5.2 10.5 C 5.5 9.9 5.8 8.7 6.1 7.1 C 6.3 5.5 6.5 4 6.5 2.6 C 6.5 2.3 6.6 2.2 6.8 2 C 7 1.8 7.2 1.7 7.5 1.7 Z M 12 10.7 C 11.9 10.7 11.7 10.7 11.6 10.6 C 11.5 10.8 11.3 11.3 10.8 12 C 10.4 12.7 10.1 13.1 9.9 13.2 C 9.7 13.3 9.6 13.3 9.5 13.3 C 9.3 13.3 9.1 13.2 8.8 13 C 8.6 12.8 8.4 12.6 8.4 12.4 C 8.4 12.2 9.1 11.2 10.3 9.3 C 11 8.2 11.6 7.2 12.2 6.2 C 13.3 4.1 14 2.9 14.3 2.6 C 14.5 2.2 14.8 2.1 15 2.1 C 15.5 2.1 15.8 2.2 16 2.4 C 16 2.5 16.1 2.6 16.1 2.9 C 16.1 3.1 16.1 3.2 16 3.4 C 17 6.1 17.7 8.1 18.2 9.3 C 18.7 10.4 19.2 11.3 19.7 11.8 C 20 12 20.2 12.2 20.2 12.3 C 20.3 12.4 20.3 12.5 20.3 12.7 C 20.3 12.9 20.2 13.2 20 13.4 C 19.8 13.5 19.6 13.6 19.3 13.6 C 18.9 13.6 18.5 13.4 18.1 13 C 17.7 12.5 17.4 11.9 17 11.2 C 16.7 10.4 16.5 10 16.5 9.9 C 16.5 9.8 16.5 9.8 16.5 9.8 C 16.2 9.8 15.6 9.9 14.7 10.1 C 13.7 10.3 13 10.5 12.4 10.7 C 12.3 10.7 12.2 10.7 12 10.7 C 12 10.7 12 10.7 12 10.7 Z M 15.2 8.4 C 15.5 8.4 15.7 8.4 15.9 8.3 C 15.8 8 15.4 7 14.8 5.2 C 14.8 5 14.8 4.9 14.7 4.9 C 14.7 4.9 12.6 8.9 12.6 8.9 C 12.9 8.8 13.2 8.8 13.6 8.8 C 13.8 8.7 14.4 8.6 15.2 8.4 C 15.2 8.4 15.2 8.4 15.2 8.4 Z M 29.6 3.2 C 30.3 3.8 30.8 4.5 31.1 5.2 C 31.5 6 31.7 6.7 31.7 7.4 C 31.7 8.1 31.5 8.9 31 9.8 C 30.4 10.6 29.8 11.3 28.9 11.9 C 29.8 13 30.4 13.7 30.6 14 C 30.8 14.3 30.9 14.4 30.9 14.5 C 30.9 14.7 30.7 14.9 30.4 15.1 C 30.1 15.4 29.9 15.5 29.8 15.5 C 29.5 15.5 29.3 15.3 29 15.1 C 28.8 14.7 28.5 14.2 28.1 13.6 C 27.6 13 27.4 12.7 27.4 12.7 C 27.3 12.7 27.2 12.7 27.1 12.8 C 26.2 13 25.4 13.1 24.7 13.1 C 23.6 13.1 22.7 12.8 22 12.3 C 21.2 11.7 20.8 10.9 20.8 9.9 C 20.8 8.8 21.2 7.6 22 6.3 C 22.8 5 23.8 4 25 3.1 C 26.2 2.2 27.3 1.7 28.3 1.7 C 28.6 1.7 28.9 1.9 29.2 2.2 C 29.5 2.5 29.6 2.9 29.6 3.2 Z M 24.6 11.6 C 25.1 11.6 25.6 11.6 26.2 11.4 C 26.1 11.3 26 11.2 25.9 11.1 C 25.5 10.6 25.3 10.3 25.3 10.2 C 25.3 10 25.4 9.8 25.7 9.6 C 26 9.4 26.4 9.3 26.7 9.3 C 27 9.3 27.2 9.4 27.3 9.8 C 27.3 10 27.4 10.2 27.6 10.4 C 27.7 10.6 27.8 10.7 27.9 10.7 C 28.3 10.7 28.7 10.4 29.2 9.6 C 29.8 8.9 30 8.2 30 7.5 C 30 6.6 29.7 5.7 29.1 4.8 C 28.4 4 28 3.6 27.6 3.6 C 27 3.6 26.3 3.9 25.5 4.6 C 24.7 5.3 24.1 6.1 23.5 7.1 C 23 8.2 22.7 9 22.7 9.8 C 22.7 10.4 22.9 10.8 23.3 11.1 C 23.7 11.5 24.1 11.6 24.6 11.6 C 24.6 11.6 24.6 11.6 24.6 11.6 Z M 37.6 13.5 C 37.1 13.5 36.4 13.4 35.7 13 C 35 12.7 34.4 12.1 34 11.3 C 33.6 10.5 33.5 9.7 33.5 8.7 C 33.5 8.3 33.5 7.6 33.7 6.8 C 33.7 6.8 33.9 5.5 33.9 5.5 C 33.9 5.2 34 5 34 4.8 C 34.1 4.4 34.1 4.1 34.2 3.8 C 34.2 3.2 34.4 2.8 34.5 2.5 C 34.7 2.3 35 2.1 35.3 2.1 C 35.5 2.1 35.7 2.3 35.9 2.5 C 36.1 2.8 36.2 3 36.2 3.2 C 36.2 3.3 36.1 3.9 35.8 4.8 C 35.8 5.1 35.7 5.7 35.5 6.7 C 35.4 7.6 35.3 8.3 35.3 8.6 C 35.3 9.9 35.6 10.8 36.1 11.2 C 36.7 11.7 37.2 11.9 37.5 11.9 C 38.8 11.9 39.7 11.6 40.2 11.1 C 40.6 10.5 41 9.6 41.1 8.4 C 41.1 8.2 41.1 8 41.2 7.8 C 41.2 7.3 41.3 6.8 41.3 6.3 C 41.4 4.6 41.6 3.5 41.8 3 C 42.1 2.6 42.4 2.4 42.8 2.4 C 43.3 2.4 43.6 2.7 43.6 3.4 C 43.6 3.8 43.5 4.5 43.3 5.6 C 43.2 6.2 43.1 6.9 43.1 7.5 C 43 9 42.8 10.1 42.4 10.8 C 42.1 11.5 41.5 12.2 40.7 12.7 C 39.8 13.3 38.8 13.5 37.6 13.5 Z M 53.3 3.7 C 53.3 3.7 51 3.9 51 3.9 C 50.2 3.9 49.5 4 49 4.1 C 48.4 4.2 48.1 4.2 48 4.3 C 48 4.4 47.9 4.5 47.9 4.8 C 47.9 5 47.8 5.4 47.6 6.1 C 47.5 6.6 47.4 6.9 47.4 7.3 C 47.7 7.3 48.2 7.2 48.8 7.2 C 49.4 7.1 49.8 7 50.1 7 C 50.8 6.8 51.3 6.7 51.7 6.7 C 52.5 6.7 52.9 6.9 52.9 7.4 C 52.9 7.8 52.8 8 52.6 8.1 C 52.4 8.3 52 8.3 51.6 8.4 C 51.3 8.4 50.9 8.5 50.6 8.5 C 50.4 8.6 50.2 8.6 49.9 8.6 C 48.5 8.8 47.7 8.9 47.4 9 C 47.4 9 47.4 9 47.4 9 C 47.3 9 47.3 9.1 47.2 9.2 C 47.2 9.3 47.1 9.6 47 10.3 C 46.9 10.9 46.8 11.4 46.8 11.6 C 46.9 11.8 47 11.9 47.2 11.9 C 47.4 11.9 48.1 11.9 49.1 11.7 C 50.1 11.6 50.7 11.5 51 11.5 C 51.7 11.3 52.1 11.2 52.3 11.2 C 52.9 11.3 53.3 11.6 53.3 12.1 C 53.3 12.3 53.2 12.5 53 12.6 C 52.5 12.9 51.8 13 51 13.1 C 50.3 13.1 49.5 13.2 48.5 13.3 C 47.6 13.5 46.8 13.6 46 13.6 C 45.6 13.6 45.3 13.5 45.1 13.3 C 45 13.2 44.9 12.9 44.8 12.5 C 44.8 12.5 44.8 12.3 44.8 12.3 C 44.8 12.2 44.8 12.1 44.9 11.8 C 45.1 11.2 45.4 9.8 45.7 7.7 C 46 5.6 46.1 4.4 46.1 4.2 C 46.1 4.2 46.1 4.2 46.1 4.1 C 46 4.1 46 4 45.9 3.9 C 45.8 3.7 45.8 3.5 45.8 3.4 C 45.8 3.3 45.8 3.2 45.8 3.1 C 45.8 3 45.9 2.9 46.1 2.8 C 46.3 2.7 46.5 2.7 46.7 2.7 C 46.9 2.7 47.1 2.7 47.4 2.7 C 47.8 2.7 49.1 2.6 51.4 2.3 C 52.2 2.2 52.6 2.1 52.6 2.1 C 52.6 2.1 52.7 2.1 52.7 2.1 C 53.6 2 54 2.3 54 3 C 54 3.1 54 3.2 53.8 3.4 C 53.6 3.6 53.5 3.7 53.3 3.7 Z M 62.2 12.7 C 62.1 12.7 61.9 12.7 61.6 12.6 C 61.3 12.6 61.1 12.6 60.9 12.6 C 59.6 12.6 58.2 12.8 57 13.2 C 56.4 13.4 56.1 13.4 55.8 13.4 C 55.5 13.4 55.3 13.3 55.1 13.1 C 55 12.8 54.9 12.6 54.9 12.4 C 54.9 12.3 54.9 12.1 55 11.7 C 55.1 11.2 55.2 10.7 55.3 10.1 C 55.3 10.1 56 3.9 56 3.9 C 56 3.3 56.1 3 56.1 2.8 C 56.1 2.6 56.2 2.5 56.4 2.3 C 56.6 2.2 56.8 2.1 57.1 2.1 C 57.4 2.1 57.6 2.2 57.8 2.4 C 57.9 2.6 58 2.7 58 3 C 58 3.1 58 3.5 57.9 4 C 57.8 4.7 57.6 6 57.4 8 C 57.1 10 57 11 57 11.2 C 57 11.3 57 11.4 57.1 11.4 C 57.3 11.4 57.8 11.3 58.6 11.2 C 59 11.1 59.4 11.1 59.9 11 C 61 11 61.8 10.9 62.3 10.8 C 62.5 10.8 62.6 10.7 62.6 10.7 C 62.9 10.7 63.1 10.8 63.3 11 C 63.4 11.1 63.5 11.3 63.5 11.6 C 63.5 11.9 63.4 12.2 63.1 12.4 C 62.8 12.6 62.5 12.7 62.2 12.7 Z M 66.9 5.6 C 66.8 6.1 66.8 6.4 66.7 6.7 C 66.7 6.8 66.7 7.2 66.6 7.8 C 66.4 8.9 66.3 9.6 66.3 10 C 66.3 10.6 66.4 11.3 66.4 11.9 C 66.5 12.4 66.4 12.7 66.2 12.9 C 65.9 13.2 65.7 13.3 65.4 13.3 C 65.1 13.3 64.8 13.1 64.7 12.8 C 64.5 12.5 64.4 12 64.4 11.2 C 64.4 10.7 64.5 9.6 64.8 7.9 C 64.8 7.9 65.2 4.9 65.2 4.9 C 65.3 4.5 65.3 4.1 65.4 3.7 C 65.4 3.2 65.5 2.8 65.6 2.7 C 65.7 2.6 65.8 2.5 66.1 2.3 C 66.3 2.2 66.5 2.1 66.6 2.1 C 66.9 2.1 67.1 2.2 67.2 2.5 C 67.4 2.7 67.5 3 67.5 3.3 C 67.5 3.3 66.9 5.6 66.9 5.6 Z M 69.1 10.6 C 69.1 10.6 69.61 8.04 69.6 8 C 70 6 70.3 4.7 70.3 3.9 C 70.3 3.5 70.3 3.2 70.4 3.1 C 70.4 3 70.5 2.8 70.7 2.7 C 70.9 2.6 71.1 2.5 71.3 2.5 C 71.5 2.5 71.7 2.6 71.9 2.6 C 72.1 2.7 72.2 3.1 72.4 3.6 C 72.6 4.5 73.1 5.6 74 7 C 74.9 8.5 75.7 9.6 76.4 10.5 C 76.5 9.6 76.8 8.5 77 7.1 C 77.1 6.2 77.3 5.3 77.4 4.6 C 77.5 4 77.6 3.5 77.6 3 C 77.7 2.6 77.8 2.3 78 2.1 C 78.3 2 78.5 1.9 78.7 1.9 C 79 1.9 79.1 2 79.3 2.2 C 79.4 2.5 79.5 2.7 79.5 3.1 C 79.5 3.4 79.4 3.7 79.3 4.2 C 79 5.4 78.7 6.8 78.4 8.7 C 78.1 10.5 77.9 11.5 77.9 11.7 C 77.9 11.7 77.9 12 77.9 12 C 77.9 12.3 77.9 12.5 77.8 12.6 C 77.8 12.8 77.7 12.9 77.5 13 C 77.3 13.2 77 13.2 76.7 13.2 C 76.5 13.2 76.4 13.2 76.3 13.2 C 76.2 13.1 76.1 13 76 12.9 C 75.8 12.7 75.7 12.5 75.5 12.2 C 75.3 11.8 75.1 11.5 75 11.4 C 73.8 9.8 72.7 8.1 71.6 6 C 71.4 6.7 71.2 8.1 70.9 10.4 C 70.9 10.4 70.8 11.1 70.8 11.1 C 70.7 11.3 70.7 11.6 70.7 12.1 C 70.6 12.6 70.5 13 70.3 13.2 C 70.1 13.5 69.9 13.6 69.7 13.6 C 69.3 13.6 69.1 13.5 69 13.3 C 68.8 13.2 68.8 12.8 68.8 12.3 C 68.8 11.9 68.9 11.4 69.1 10.6 C 69.06 10.61 69.1 10.6 69.1 10.6 Z M 89.4 3.7 C 89.4 3.7 87.1 3.9 87.1 3.9 C 86.3 3.9 85.6 4 85 4.1 C 84.4 4.2 84.1 4.2 84.1 4.3 C 84 4.4 84 4.5 84 4.8 C 83.9 5 83.8 5.4 83.7 6.1 C 83.6 6.6 83.5 6.9 83.5 7.3 C 83.8 7.3 84.2 7.2 84.8 7.2 C 85.4 7.1 85.9 7 86.1 7 C 86.8 6.8 87.4 6.7 87.8 6.7 C 88.6 6.7 89 6.9 89 7.4 C 89 7.8 88.9 8 88.6 8.1 C 88.4 8.3 88.1 8.3 87.6 8.4 C 87.3 8.4 87 8.5 86.6 8.5 C 86.4 8.6 86.2 8.6 85.9 8.6 C 84.5 8.8 83.7 8.9 83.5 9 C 83.5 9 83.5 9 83.5 9 C 83.4 9 83.3 9.1 83.3 9.2 C 83.2 9.3 83.2 9.6 83 10.3 C 82.9 10.9 82.9 11.4 82.9 11.6 C 82.9 11.8 83 11.9 83.2 11.9 C 83.5 11.9 84.1 11.9 85.1 11.7 C 86.1 11.6 86.8 11.5 87 11.5 C 87.7 11.3 88.1 11.2 88.4 11.2 C 89 11.3 89.3 11.6 89.3 12.1 C 89.3 12.3 89.2 12.5 89.1 12.6 C 88.6 12.9 87.9 13 87 13.1 C 86.3 13.1 85.5 13.2 84.5 13.3 C 83.6 13.5 82.8 13.6 82.1 13.6 C 81.7 13.6 81.4 13.5 81.2 13.3 C 81 13.2 80.9 12.9 80.9 12.5 C 80.9 12.5 80.8 12.3 80.8 12.3 C 80.8 12.2 80.9 12.1 81 11.8 C 81.2 11.2 81.4 9.8 81.7 7.7 C 82 5.6 82.1 4.4 82.1 4.2 C 82.1 4.2 82.1 4.2 82.1 4.1 C 82.1 4.1 82 4 81.9 3.9 C 81.8 3.7 81.8 3.5 81.8 3.4 C 81.8 3.3 81.8 3.2 81.8 3.1 C 81.8 3 82 2.9 82.1 2.8 C 82.3 2.7 82.5 2.7 82.7 2.7 C 82.9 2.7 83.2 2.7 83.4 2.7 C 83.8 2.7 85.2 2.6 87.4 2.3 C 88.2 2.2 88.6 2.1 88.6 2.1 C 88.6 2.1 88.7 2.1 88.7 2.1 C 89.6 2 90.1 2.3 90.1 3 C 90.1 3.1 90 3.2 89.8 3.4 C 89.7 3.6 89.5 3.7 89.4 3.7 Z " stroke="none" fill="#000"/>  </g></svg>