<?xml version="1.0" standalone="no"?><!DOCTYPE svg PUBLIC "-//W3C//DTD SVG 1.1//EN" "http://www.w3.org/Graphics/SVG/1.1/DTD/svg11.dtd"><svg xmlns="http://www.w3.org/2000/svg" version="1.1" width="58px" height="25.1px" viewBox="0 -2 58 25.1" style="top:-2px">  <desc>Voto DistritaL ESTA A OPORTUNIDADE DE MUDAR A VIDA DE SUA FAM LIA. SAIBA MAIS</desc>  <defs/>  <g id="Polygon14475">    <path d="M 20.4 17 C 20.4 17.2 20.3 17.3 20.1 17.3 C 20.1 17.2 20.1 17.1 20 17.1 C 19.9 17 19.9 17 19.7 17 C 19.5 17 19.4 17.1 19.2 17.1 C 19 17.2 19 17.3 19 17.5 C 19 17.5 19 17.6 19 17.6 C 19.1 17.7 19.3 17.8 19.5 17.8 C 19.8 17.9 20 18 20.1 18.1 C 20.3 18.2 20.3 18.3 20.3 18.4 C 20.3 18.7 20.2 18.9 19.8 19 C 19.5 19.2 19.1 19.3 18.8 19.3 C 18.7 19.3 18.6 19.3 18.5 19.2 C 18.4 19.2 18.4 19.1 18.4 19.1 C 18.4 19 18.4 18.9 18.4 18.9 C 18.5 18.8 18.5 18.8 18.6 18.8 C 18.6 18.8 18.6 18.8 18.6 18.8 C 18.8 18.9 18.9 18.9 19 18.9 C 19.1 18.9 19.3 18.9 19.6 18.8 C 19.8 18.7 19.9 18.6 19.9 18.5 C 19.9 18.4 19.9 18.4 19.8 18.4 C 19.8 18.3 19.6 18.3 19.5 18.2 C 19.2 18.1 19 18.1 18.9 18 C 18.8 18 18.7 17.9 18.6 17.8 C 18.6 17.7 18.5 17.6 18.5 17.5 C 18.5 17.3 18.7 17.1 18.9 16.9 C 19.2 16.7 19.5 16.6 19.8 16.6 C 20 16.6 20.1 16.7 20.2 16.7 C 20.4 16.8 20.4 16.9 20.4 17 C 20.4 17 20.4 17 20.4 17 Z M 21.2 18.6 C 21.2 18.6 21.1 18.6 21.1 18.6 C 21.1 18.6 21 18.7 20.9 18.9 C 20.8 19.1 20.8 19.2 20.7 19.2 C 20.7 19.2 20.7 19.2 20.6 19.2 C 20.6 19.2 20.5 19.2 20.5 19.1 C 20.4 19.1 20.4 19.1 20.4 19 C 20.4 19 20.5 18.7 20.8 18.3 C 21 18 21.1 17.8 21.3 17.6 C 21.5 17.1 21.7 16.8 21.7 16.8 C 21.8 16.7 21.8 16.6 21.9 16.6 C 22 16.6 22.1 16.7 22.1 16.7 C 22.1 16.7 22.1 16.8 22.1 16.8 C 22.1 16.9 22.1 16.9 22.1 16.9 C 22.3 17.6 22.5 18 22.6 18.3 C 22.7 18.6 22.9 18.7 23 18.9 C 23 18.9 23.1 19 23.1 19 C 23.1 19 23.1 19 23.1 19.1 C 23.1 19.1 23.1 19.2 23 19.2 C 23 19.3 22.9 19.3 22.9 19.3 C 22.8 19.3 22.7 19.2 22.6 19.1 C 22.5 19 22.4 18.9 22.4 18.7 C 22.3 18.5 22.2 18.4 22.2 18.4 C 22.2 18.4 22.2 18.4 22.2 18.4 C 22.2 18.4 22 18.4 21.8 18.5 C 21.6 18.5 21.4 18.6 21.3 18.6 C 21.3 18.6 21.2 18.6 21.2 18.6 C 21.2 18.6 21.2 18.6 21.2 18.6 Z M 22 18.1 C 22 18.1 22.1 18.1 22.1 18.1 C 22.1 18 22 17.8 21.9 17.4 C 21.9 17.3 21.8 17.3 21.8 17.3 C 21.8 17.3 21.4 18.2 21.4 18.2 C 21.4 18.2 21.5 18.2 21.6 18.2 C 21.6 18.2 21.8 18.1 22 18.1 C 22 18.1 22 18.1 22 18.1 Z M 23.9 17.5 C 23.9 17.6 23.9 17.6 23.9 17.7 C 23.9 17.7 23.9 17.8 23.8 18 C 23.8 18.2 23.8 18.4 23.8 18.5 C 23.8 18.6 23.8 18.8 23.8 18.9 C 23.8 19 23.8 19.1 23.7 19.1 C 23.7 19.2 23.6 19.2 23.6 19.2 C 23.5 19.2 23.4 19.2 23.4 19.1 C 23.4 19 23.4 18.9 23.4 18.7 C 23.4 18.6 23.4 18.4 23.4 18 C 23.4 18 23.5 17.3 23.5 17.3 C 23.5 17.2 23.6 17.1 23.6 17 C 23.6 16.9 23.6 16.8 23.6 16.8 C 23.6 16.8 23.7 16.7 23.7 16.7 C 23.8 16.7 23.8 16.7 23.8 16.7 C 23.9 16.7 24 16.7 24 16.7 C 24 16.8 24 16.9 24 16.9 C 24 16.9 23.9 17.5 23.9 17.5 Z M 26 17.8 C 26.2 17.8 26.3 17.9 26.4 18 C 26.5 18.1 26.5 18.2 26.5 18.3 C 26.5 18.6 26.4 18.8 26.1 19 C 25.8 19.2 25.5 19.4 25.2 19.4 C 25 19.4 24.9 19.3 24.9 19.2 C 24.9 19 25.1 18.9 25.3 18.9 C 25.3 18.9 25.4 18.9 25.4 18.9 C 25.5 18.9 25.6 18.9 25.8 18.7 C 26 18.6 26.1 18.5 26.1 18.4 C 26.1 18.3 26 18.2 26 18.1 C 25.9 18.1 25.8 18 25.7 18 C 25.7 18 25.6 18.1 25.5 18.1 C 25.5 18.1 25.4 18.1 25.4 18.1 C 25.3 18.1 25.2 18.1 25.2 18.1 C 25.1 18.1 25.1 18 25.1 17.9 C 25.1 17.9 25.2 17.8 25.5 17.7 C 25.6 17.7 25.7 17.6 25.9 17.5 C 26 17.3 26 17.2 26 17.1 C 26 17 26 17 25.8 17 C 25.6 17 25.5 17 25.3 17 C 25.2 17 25.1 17.1 25.1 17.1 C 25.1 17.2 25 17.5 25 17.9 C 24.9 18.4 24.9 18.7 24.9 18.7 C 24.9 18.7 24.9 19 24.9 19 C 24.8 19.1 24.8 19.2 24.8 19.2 C 24.7 19.2 24.7 19.2 24.6 19.2 C 24.5 19.2 24.4 19.1 24.4 19 C 24.4 18.9 24.4 18.9 24.4 18.8 C 24.5 18.6 24.5 18.3 24.6 17.9 C 24.6 17.6 24.6 17.4 24.6 17.3 C 24.6 17.3 24.6 17.2 24.6 17.2 C 24.6 17.2 24.6 17.2 24.6 17.2 C 24.5 17.2 24.5 17.2 24.5 17.2 C 24.4 17.2 24.4 17.2 24.4 17.1 C 24.4 17.1 24.4 17.1 24.4 17.1 C 24.4 17 24.6 16.9 24.9 16.8 C 25.2 16.7 25.5 16.6 25.9 16.6 C 26.1 16.6 26.2 16.7 26.3 16.8 C 26.4 16.9 26.5 17 26.5 17.1 C 26.5 17.2 26.5 17.3 26.4 17.4 C 26.3 17.5 26.2 17.6 26 17.8 Z M 27.4 18.6 C 27.4 18.6 27.3 18.6 27.3 18.6 C 27.3 18.6 27.2 18.7 27.1 18.9 C 27 19.1 26.9 19.2 26.9 19.2 C 26.9 19.2 26.8 19.2 26.8 19.2 C 26.8 19.2 26.7 19.2 26.7 19.1 C 26.6 19.1 26.6 19.1 26.6 19 C 26.6 19 26.7 18.7 27 18.3 C 27.2 18 27.3 17.8 27.4 17.6 C 27.7 17.1 27.8 16.8 27.9 16.8 C 28 16.7 28 16.6 28.1 16.6 C 28.2 16.6 28.2 16.7 28.3 16.7 C 28.3 16.7 28.3 16.8 28.3 16.8 C 28.3 16.9 28.3 16.9 28.3 16.9 C 28.5 17.6 28.7 18 28.8 18.3 C 28.9 18.6 29 18.7 29.2 18.9 C 29.2 18.9 29.3 19 29.3 19 C 29.3 19 29.3 19 29.3 19.1 C 29.3 19.1 29.3 19.2 29.2 19.2 C 29.2 19.3 29.1 19.3 29.1 19.3 C 29 19.3 28.9 19.2 28.8 19.1 C 28.7 19 28.6 18.9 28.5 18.7 C 28.5 18.5 28.4 18.4 28.4 18.4 C 28.4 18.4 28.4 18.4 28.4 18.4 C 28.3 18.4 28.2 18.4 28 18.5 C 27.8 18.5 27.6 18.6 27.5 18.6 C 27.5 18.6 27.4 18.6 27.4 18.6 C 27.4 18.6 27.4 18.6 27.4 18.6 Z M 28.1 18.1 C 28.2 18.1 28.2 18.1 28.3 18.1 C 28.3 18 28.2 17.8 28 17.4 C 28 17.3 28 17.3 28 17.3 C 28 17.3 27.5 18.2 27.5 18.2 C 27.6 18.2 27.7 18.2 27.7 18.2 C 27.8 18.2 27.9 18.1 28.1 18.1 C 28.1 18.1 28.1 18.1 28.1 18.1 Z M 33.2 17.4 C 33.2 17.3 33.2 17.3 33.2 17.3 C 33.2 17.3 32.7 18 32.7 18 C 32.4 18.4 32.2 18.6 32.1 18.6 C 32 18.6 31.9 18.5 31.9 18.5 C 31.8 18.4 31.8 18.3 31.7 18.1 C 31.7 18 31.6 17.9 31.6 17.8 C 31.6 17.6 31.5 17.5 31.5 17.5 C 31.5 17.5 31.4 17.9 31.4 17.9 C 31.4 18 31.4 18.2 31.3 18.3 C 31.3 18.4 31.3 18.6 31.2 18.7 C 31.2 18.9 31.2 19 31.2 19.1 C 31.2 19.1 31.2 19.2 31.1 19.2 C 31.1 19.2 31 19.3 31 19.3 C 30.9 19.3 30.9 19.2 30.8 19.2 C 30.8 19.1 30.8 19.1 30.8 19 C 30.8 18.9 30.8 18.8 30.8 18.6 C 31 17.9 31.1 17.5 31.2 17.3 C 31.2 17.1 31.2 17 31.2 16.9 C 31.2 16.8 31.2 16.8 31.3 16.7 C 31.3 16.7 31.4 16.7 31.5 16.7 C 31.5 16.7 31.6 16.7 31.6 16.8 C 31.7 16.8 31.7 16.9 31.7 16.9 C 31.71 16.94 31.7 16.9 31.7 16.9 C 31.7 16.9 31.95 17.6 32 17.6 C 32 17.9 32.1 18 32.1 18.1 C 32.3 18 32.4 17.7 32.7 17.4 C 32.9 17.1 33.1 16.9 33.2 16.8 C 33.3 16.7 33.3 16.6 33.4 16.6 C 33.4 16.6 33.5 16.7 33.6 16.7 C 33.6 16.7 33.7 16.8 33.7 16.8 C 33.7 16.8 33.6 17 33.6 17.3 C 33.6 17.6 33.5 17.8 33.5 18.1 C 33.5 18.4 33.5 18.5 33.5 18.6 C 33.5 18.6 33.5 18.7 33.5 18.8 C 33.5 18.8 33.5 18.9 33.5 18.9 C 33.5 19 33.5 19.1 33.5 19.1 C 33.4 19.2 33.4 19.2 33.3 19.2 C 33.1 19.2 33 19.1 33 18.9 C 33 18.7 33.1 18.4 33.1 18.1 C 33.1 17.8 33.2 17.6 33.2 17.4 C 33.2 17.4 33.2 17.4 33.2 17.4 Z M 34.6 18.6 C 34.6 18.6 34.5 18.6 34.5 18.6 C 34.5 18.6 34.4 18.7 34.3 18.9 C 34.2 19.1 34.2 19.2 34.1 19.2 C 34.1 19.2 34.1 19.2 34 19.2 C 34 19.2 33.9 19.2 33.9 19.1 C 33.8 19.1 33.8 19.1 33.8 19 C 33.8 19 33.9 18.7 34.2 18.3 C 34.4 18 34.5 17.8 34.6 17.6 C 34.9 17.1 35.1 16.8 35.1 16.8 C 35.2 16.7 35.2 16.6 35.3 16.6 C 35.4 16.6 35.5 16.7 35.5 16.7 C 35.5 16.7 35.5 16.8 35.5 16.8 C 35.5 16.9 35.5 16.9 35.5 16.9 C 35.7 17.6 35.9 18 36 18.3 C 36.1 18.6 36.3 18.7 36.4 18.9 C 36.4 18.9 36.5 19 36.5 19 C 36.5 19 36.5 19 36.5 19.1 C 36.5 19.1 36.5 19.2 36.4 19.2 C 36.4 19.3 36.3 19.3 36.3 19.3 C 36.2 19.3 36.1 19.2 36 19.1 C 35.9 19 35.8 18.9 35.8 18.7 C 35.7 18.5 35.6 18.4 35.6 18.4 C 35.6 18.4 35.6 18.4 35.6 18.4 C 35.6 18.4 35.4 18.4 35.2 18.5 C 35 18.5 34.8 18.6 34.7 18.6 C 34.7 18.6 34.6 18.6 34.6 18.6 C 34.6 18.6 34.6 18.6 34.6 18.6 Z M 35.3 18.1 C 35.4 18.1 35.4 18.1 35.5 18.1 C 35.5 18 35.4 17.8 35.3 17.4 C 35.2 17.3 35.2 17.3 35.2 17.3 C 35.2 17.3 34.7 18.2 34.7 18.2 C 34.8 18.2 34.9 18.2 35 18.2 C 35 18.2 35.1 18.1 35.3 18.1 C 35.3 18.1 35.3 18.1 35.3 18.1 Z M 37.3 17.5 C 37.3 17.6 37.3 17.6 37.3 17.7 C 37.3 17.7 37.3 17.8 37.2 18 C 37.2 18.2 37.2 18.4 37.2 18.5 C 37.2 18.6 37.2 18.8 37.2 18.9 C 37.2 19 37.2 19.1 37.1 19.1 C 37.1 19.2 37 19.2 37 19.2 C 36.9 19.2 36.8 19.2 36.8 19.1 C 36.8 19 36.7 18.9 36.7 18.7 C 36.7 18.6 36.8 18.4 36.8 18 C 36.8 18 36.9 17.3 36.9 17.3 C 36.9 17.2 36.9 17.1 37 17 C 37 16.9 37 16.8 37 16.8 C 37 16.8 37.1 16.7 37.1 16.7 C 37.2 16.7 37.2 16.7 37.2 16.7 C 37.3 16.7 37.3 16.7 37.4 16.7 C 37.4 16.8 37.4 16.9 37.4 16.9 C 37.4 16.9 37.3 17.5 37.3 17.5 Z M 39.6 17 C 39.6 17.2 39.5 17.3 39.3 17.3 C 39.3 17.2 39.3 17.1 39.2 17.1 C 39.2 17 39.1 17 39 17 C 38.8 17 38.6 17.1 38.4 17.1 C 38.3 17.2 38.2 17.3 38.2 17.5 C 38.2 17.5 38.2 17.6 38.3 17.6 C 38.3 17.7 38.5 17.8 38.8 17.8 C 39 17.9 39.2 18 39.4 18.1 C 39.5 18.2 39.6 18.3 39.6 18.4 C 39.6 18.7 39.4 18.9 39.1 19 C 38.7 19.2 38.4 19.3 38 19.3 C 37.9 19.3 37.8 19.3 37.7 19.2 C 37.7 19.2 37.6 19.1 37.6 19.1 C 37.6 19 37.6 18.9 37.7 18.9 C 37.7 18.8 37.7 18.8 37.8 18.8 C 37.8 18.8 37.8 18.8 37.9 18.8 C 38 18.9 38.1 18.9 38.2 18.9 C 38.4 18.9 38.6 18.9 38.8 18.8 C 39 18.7 39.1 18.6 39.1 18.5 C 39.1 18.4 39.1 18.4 39 18.4 C 39 18.3 38.9 18.3 38.7 18.2 C 38.5 18.1 38.3 18.1 38.2 18 C 38 18 37.9 17.9 37.9 17.8 C 37.8 17.7 37.8 17.6 37.8 17.5 C 37.8 17.3 37.9 17.1 38.1 16.9 C 38.4 16.7 38.7 16.6 39 16.6 C 39.2 16.6 39.4 16.7 39.5 16.7 C 39.6 16.8 39.6 16.9 39.6 17 C 39.6 17 39.6 17 39.6 17 Z " stroke="none" fill="#000"/>  </g>  <g id="Polygon14474">    <path d="M 12.9 11.5 C 12.9 11.5 13 11.6 13 11.6 C 13 11.6 13 11.6 13 11.7 C 13 11.7 13 11.7 13 11.7 C 13 11.7 13 11.8 13 11.8 C 13 11.9 13.1 12 13.1 12.1 C 13.1 12.1 13.2 12.2 13.2 12.3 C 13.3 12.6 13.4 12.8 13.5 12.9 C 13.5 13.1 13.6 13.2 13.7 13.3 C 13.7 13.3 13.8 13.4 13.8 13.4 C 13.8 13.4 13.8 13.4 13.8 13.5 C 13.8 13.5 13.8 13.5 13.7 13.5 C 13.7 13.6 13.7 13.6 13.7 13.6 C 13.5 13.6 13.4 13.4 13.2 13.1 C 13.2 12.9 13.1 12.8 13.1 12.8 C 13.1 12.8 13 12.9 12.9 12.9 C 12.7 12.9 12.6 12.9 12.5 13 C 12.4 13 12.4 13 12.3 13 C 12.3 13 12.3 13 12.3 13 C 12.3 13 12.3 13 12.3 13 C 12.2 13 12.2 13 12.1 13.1 C 12 13.3 12 13.4 11.9 13.5 C 11.9 13.5 11.9 13.5 11.8 13.5 C 11.8 13.5 11.8 13.5 11.8 13.5 C 11.7 13.5 11.7 13.4 11.7 13.4 C 11.7 13.4 11.7 13.3 11.8 13.3 C 11.8 13.2 11.9 13.1 12 13 C 12.1 12.7 12.3 12.5 12.4 12.3 C 12.6 11.9 12.7 11.7 12.8 11.6 C 12.8 11.6 12.8 11.5 12.9 11.5 C 12.9 11.5 12.9 11.5 12.9 11.5 Z M 12.7 12.7 C 12.9 12.7 13 12.6 13.1 12.6 C 13.1 12.6 13 12.4 12.9 12.3 C 12.9 12.1 12.8 11.9 12.8 11.9 C 12.8 12 12.7 12.1 12.6 12.3 C 12.6 12.3 12.4 12.8 12.4 12.8 C 12.4 12.8 12.4 12.7 12.5 12.7 C 12.6 12.7 12.6 12.7 12.7 12.7 C 12.7 12.7 12.7 12.7 12.7 12.7 Z M 15.1 12.2 C 15 11.9 14.9 11.8 14.9 11.8 C 14.9 11.7 15 11.7 15 11.6 C 15 11.6 15 11.6 15.1 11.6 C 15.2 11.6 15.2 11.7 15.2 11.8 C 15.3 12 15.4 12.5 15.7 13.2 C 15.8 13.1 15.8 13 15.8 13 C 16 12.7 16.1 12.5 16.2 12.4 C 16.5 11.8 16.7 11.5 16.8 11.5 C 16.9 11.5 16.9 11.5 16.9 11.6 C 16.9 11.6 16.9 11.6 16.9 11.6 C 16.9 11.7 16.9 11.7 16.8 11.8 C 16.7 12 16.5 12.3 16.3 12.6 C 16.2 12.8 16.1 12.9 16 13.1 C 15.9 13.2 15.9 13.3 15.9 13.4 C 15.8 13.4 15.8 13.4 15.8 13.5 C 15.7 13.5 15.7 13.5 15.6 13.5 C 15.6 13.5 15.6 13.4 15.5 13.1 C 15.4 13 15.3 12.7 15.1 12.2 C 15.1 12.2 15.1 12.2 15.1 12.2 Z M 17.4 11.7 C 17.4 11.8 17.4 11.9 17.3 12.1 C 17.3 12.2 17.3 12.3 17.2 12.3 C 17.2 12.4 17.2 12.4 17.2 12.5 C 17.2 12.7 17.2 12.9 17.2 13 C 17.2 13.1 17.2 13.2 17.2 13.3 C 17.2 13.4 17.2 13.4 17.2 13.5 C 17.1 13.5 17.1 13.5 17.1 13.5 C 17 13.5 17 13.5 17 13.4 C 16.9 13.4 16.9 13.3 16.9 13.2 C 16.9 13.1 17 12.9 17 12.7 C 17 12.6 17 12.5 17 12.5 C 17 12.5 17 12.5 17 12.4 C 17 12.4 17 12.4 17 12.3 C 17 12.3 17.1 12.1 17.1 12 C 17.1 11.9 17.1 11.8 17.1 11.8 C 17.1 11.7 17.1 11.7 17.1 11.6 C 17.1 11.6 17.2 11.6 17.2 11.6 C 17.2 11.6 17.3 11.6 17.3 11.6 C 17.3 11.6 17.3 11.6 17.4 11.6 C 17.4 11.6 17.4 11.7 17.4 11.7 Z M 17.9 12.1 C 17.9 12 17.9 11.9 17.9 11.9 C 17.9 11.9 17.9 11.8 17.9 11.8 C 17.8 11.8 17.7 11.8 17.7 11.7 C 17.7 11.7 17.8 11.7 17.8 11.6 C 17.8 11.6 17.8 11.6 17.9 11.6 C 17.9 11.6 18.1 11.6 18.1 11.6 C 18.2 11.6 18.3 11.6 18.4 11.6 C 18.5 11.6 18.7 11.6 18.7 11.6 C 19 11.6 19.2 11.6 19.3 11.8 C 19.5 11.9 19.5 12.1 19.5 12.3 C 19.5 12.5 19.4 12.8 19.2 13 C 19 13.2 18.7 13.3 18.3 13.4 C 18.2 13.5 18.1 13.5 18 13.5 C 17.9 13.6 17.9 13.6 17.8 13.6 C 17.8 13.6 17.8 13.6 17.7 13.5 C 17.7 13.5 17.7 13.5 17.7 13.5 C 17.7 13.5 17.7 13.4 17.7 13.4 C 17.7 13.4 17.7 13.3 17.8 13.3 C 17.8 13.2 17.8 13.2 17.8 13.1 C 17.8 13 17.8 12.8 17.8 12.6 C 17.9 12.3 17.9 12.2 17.9 12.1 C 17.9 12.1 17.9 12.1 17.9 12.1 Z M 18.3 11.8 C 18.2 11.8 18.2 11.8 18.2 11.8 C 18 12.4 18 12.9 18 13.1 C 18 13.2 18 13.2 18 13.3 C 18 13.3 18 13.3 18.1 13.3 C 18.1 13.3 18.3 13.2 18.5 13.2 C 18.7 13.1 18.9 13 19.1 12.8 C 19.2 12.7 19.3 12.5 19.3 12.3 C 19.3 12.1 19.2 12 19.1 11.9 C 19 11.8 18.9 11.8 18.7 11.8 C 18.6 11.8 18.4 11.8 18.3 11.8 C 18.3 11.8 18.3 11.8 18.3 11.8 Z M 20.6 11.5 C 20.7 11.5 20.7 11.6 20.7 11.6 C 20.7 11.6 20.8 11.6 20.8 11.7 C 20.8 11.7 20.7 11.7 20.7 11.7 C 20.7 11.7 20.8 11.8 20.8 11.8 C 20.8 11.9 20.8 12 20.8 12.1 C 20.9 12.1 20.9 12.2 20.9 12.3 C 21 12.6 21.1 12.8 21.2 12.9 C 21.3 13.1 21.4 13.2 21.4 13.3 C 21.5 13.3 21.5 13.4 21.5 13.4 C 21.5 13.4 21.5 13.4 21.5 13.5 C 21.5 13.5 21.5 13.5 21.5 13.5 C 21.5 13.6 21.4 13.6 21.4 13.6 C 21.3 13.6 21.1 13.4 21 13.1 C 20.9 12.9 20.9 12.8 20.9 12.8 C 20.8 12.8 20.7 12.9 20.6 12.9 C 20.5 12.9 20.3 12.9 20.2 13 C 20.1 13 20.1 13 20.1 13 C 20.1 13 20 13 20 13 C 20 13 20 13 20 13 C 20 13 19.9 13 19.9 13.1 C 19.8 13.3 19.7 13.4 19.7 13.5 C 19.7 13.5 19.6 13.5 19.6 13.5 C 19.6 13.5 19.5 13.5 19.5 13.5 C 19.5 13.5 19.5 13.4 19.5 13.4 C 19.5 13.4 19.5 13.3 19.5 13.3 C 19.5 13.2 19.6 13.1 19.7 13 C 19.9 12.7 20 12.5 20.1 12.3 C 20.3 11.9 20.4 11.7 20.5 11.6 C 20.5 11.6 20.6 11.5 20.6 11.5 C 20.6 11.5 20.6 11.5 20.6 11.5 Z M 20.4 12.7 C 20.6 12.7 20.8 12.6 20.8 12.6 C 20.8 12.6 20.7 12.4 20.7 12.3 C 20.6 12.1 20.6 11.9 20.6 11.9 C 20.5 12 20.4 12.1 20.3 12.3 C 20.3 12.3 20.1 12.8 20.1 12.8 C 20.1 12.8 20.2 12.7 20.2 12.7 C 20.3 12.7 20.4 12.7 20.4 12.7 C 20.4 12.7 20.4 12.7 20.4 12.7 Z M 22.9 12.1 C 23 12 23 11.9 23 11.9 C 23 11.9 23 11.8 22.9 11.8 C 22.8 11.8 22.8 11.8 22.8 11.7 C 22.8 11.7 22.8 11.7 22.8 11.6 C 22.9 11.6 22.9 11.6 22.9 11.6 C 22.9 11.6 23.1 11.6 23.1 11.6 C 23.2 11.6 23.3 11.6 23.5 11.6 C 23.6 11.6 23.7 11.6 23.8 11.6 C 24 11.6 24.2 11.6 24.4 11.8 C 24.5 11.9 24.6 12.1 24.6 12.3 C 24.6 12.5 24.5 12.8 24.3 13 C 24.1 13.2 23.8 13.3 23.4 13.4 C 23.2 13.5 23.1 13.5 23.1 13.5 C 23 13.6 22.9 13.6 22.9 13.6 C 22.8 13.6 22.8 13.6 22.8 13.5 C 22.8 13.5 22.7 13.5 22.7 13.5 C 22.7 13.5 22.8 13.4 22.8 13.4 C 22.8 13.4 22.8 13.3 22.8 13.3 C 22.8 13.2 22.8 13.2 22.8 13.1 C 22.8 13 22.9 12.8 22.9 12.6 C 22.9 12.3 22.9 12.2 22.9 12.1 C 22.9 12.1 22.9 12.1 22.9 12.1 Z M 23.3 11.8 C 23.3 11.8 23.2 11.8 23.2 11.8 C 23.1 12.4 23.1 12.9 23.1 13.1 C 23.1 13.2 23.1 13.2 23.1 13.3 C 23.1 13.3 23.1 13.3 23.1 13.3 C 23.2 13.3 23.3 13.2 23.6 13.2 C 23.8 13.1 24 13 24.1 12.8 C 24.3 12.7 24.4 12.5 24.4 12.3 C 24.4 12.1 24.3 12 24.2 11.9 C 24.1 11.8 23.9 11.8 23.7 11.8 C 23.6 11.8 23.5 11.8 23.3 11.8 C 23.3 11.8 23.3 11.8 23.3 11.8 Z M 26.3 11.8 C 26.3 11.8 26.3 11.8 26.3 11.8 C 26.2 11.8 26.2 11.8 26.1 11.8 C 26.1 11.8 26 11.8 26 11.8 C 26 11.8 25.9 11.8 25.9 11.8 C 25.9 11.8 25.8 11.8 25.7 11.8 C 25.5 11.8 25.4 11.8 25.4 11.9 C 25.3 11.9 25.3 11.9 25.3 12 C 25.3 12 25.3 12.1 25.3 12.2 C 25.2 12.3 25.2 12.4 25.2 12.5 C 25.2 12.5 25.2 12.5 25.2 12.5 C 25.3 12.5 25.3 12.5 25.5 12.5 C 25.6 12.5 25.7 12.5 25.8 12.4 C 25.9 12.4 26 12.4 26.1 12.4 C 26.2 12.4 26.2 12.4 26.2 12.5 C 26.2 12.6 26.2 12.6 26.1 12.6 C 26 12.6 25.9 12.7 25.6 12.7 C 25.4 12.7 25.2 12.7 25.2 12.8 C 25.2 12.8 25.2 12.9 25.1 13 C 25.1 13.1 25.1 13.2 25.1 13.3 C 25.1 13.3 25.1 13.3 25.1 13.3 C 25.1 13.3 25.1 13.3 25.2 13.4 C 25.2 13.4 25.2 13.4 25.2 13.4 C 25.3 13.4 25.3 13.4 25.4 13.3 C 25.4 13.3 25.6 13.3 25.6 13.3 C 25.7 13.3 25.8 13.3 25.9 13.3 C 26 13.2 26.1 13.2 26.1 13.2 C 26.2 13.2 26.2 13.2 26.2 13.3 C 26.3 13.3 26.3 13.3 26.3 13.4 C 26.3 13.4 26.3 13.4 26.3 13.4 C 26.2 13.5 26 13.5 25.9 13.5 C 25.8 13.5 25.6 13.5 25.3 13.5 C 25.2 13.6 25.1 13.6 25.1 13.6 C 25 13.6 24.9 13.6 24.9 13.6 C 24.9 13.5 24.8 13.5 24.8 13.4 C 24.84 13.43 24.8 13.4 24.8 13.4 C 24.8 13.4 24.83 13.38 24.8 13.4 C 24.8 13.4 24.8 13.3 24.9 13.3 C 24.9 13.2 24.9 13.1 24.9 12.9 C 25 12.8 25 12.6 25 12.5 C 25 12.5 25 12.4 25 12.4 C 25 12.2 25.1 12 25.1 11.9 C 25.1 11.9 25.1 11.9 25 11.8 C 25 11.8 25 11.8 25 11.8 C 25 11.8 25 11.8 25 11.8 C 25 11.8 25 11.8 25 11.7 C 25 11.7 25 11.7 25 11.7 C 25 11.7 25 11.7 25 11.7 C 25.1 11.7 25.1 11.7 25.1 11.7 C 25.1 11.7 25.1 11.7 25.1 11.7 C 25.2 11.7 25.2 11.7 25.2 11.7 C 25.2 11.7 25.2 11.7 25.2 11.7 C 25.3 11.7 25.4 11.7 25.5 11.6 C 25.7 11.6 25.9 11.6 26.2 11.6 C 26.2 11.5 26.2 11.5 26.2 11.5 C 26.2 11.5 26.2 11.5 26.2 11.5 C 26.3 11.5 26.3 11.5 26.4 11.6 C 26.4 11.6 26.4 11.6 26.4 11.7 C 26.4 11.7 26.4 11.7 26.4 11.7 C 26.4 11.8 26.3 11.8 26.3 11.8 Z M 28.9 12 C 28.9 11.9 28.9 11.8 28.8 11.8 C 28.8 11.8 28.7 11.8 28.6 11.8 C 28.4 11.8 28.2 11.8 28.1 11.9 C 27.9 11.9 27.9 12 27.9 12.1 C 27.9 12.2 27.9 12.3 28 12.3 C 28 12.4 28.2 12.4 28.4 12.5 C 28.6 12.6 28.8 12.6 28.9 12.7 C 29 12.8 29 12.8 29 12.9 C 29 13 28.9 13.1 28.8 13.3 C 28.7 13.4 28.5 13.4 28.4 13.5 C 28.2 13.6 28 13.6 27.9 13.6 C 27.8 13.6 27.7 13.6 27.6 13.6 C 27.6 13.5 27.6 13.5 27.6 13.5 C 27.6 13.4 27.6 13.4 27.6 13.4 C 27.6 13.3 27.6 13.3 27.6 13.3 C 27.7 13.3 27.7 13.3 27.7 13.3 C 27.8 13.4 27.9 13.4 28 13.4 C 28.1 13.4 28.3 13.3 28.5 13.2 C 28.7 13.1 28.8 13 28.8 13 C 28.8 12.9 28.8 12.9 28.7 12.8 C 28.6 12.8 28.5 12.8 28.3 12.7 C 28 12.6 27.8 12.5 27.7 12.4 C 27.7 12.3 27.6 12.2 27.6 12.2 C 27.6 12 27.7 11.8 28 11.7 C 28.2 11.6 28.4 11.5 28.6 11.5 C 28.8 11.5 28.9 11.6 29 11.6 C 29 11.7 29.1 11.7 29.1 11.8 C 29.1 11.8 29.1 11.9 29.1 11.9 C 29 12 29 12 28.9 12 Z M 30.1 13.6 C 30 13.6 29.9 13.5 29.7 13.5 C 29.6 13.4 29.5 13.3 29.5 13.2 C 29.4 13 29.4 12.9 29.4 12.7 C 29.4 12.6 29.4 12.5 29.4 12.2 C 29.4 12.2 29.4 12.1 29.5 12 C 29.5 11.8 29.5 11.7 29.5 11.7 C 29.5 11.6 29.5 11.6 29.6 11.6 C 29.6 11.6 29.6 11.6 29.6 11.6 C 29.7 11.6 29.7 11.6 29.7 11.6 C 29.7 11.7 29.7 11.7 29.7 11.7 C 29.7 11.7 29.7 11.8 29.7 12 C 29.7 12 29.6 12.2 29.6 12.3 C 29.6 12.5 29.6 12.6 29.6 12.7 C 29.6 13 29.6 13.1 29.8 13.2 C 29.9 13.3 30 13.3 30 13.3 C 30.2 13.3 30.3 13.3 30.4 13.3 C 30.5 13.2 30.6 13.1 30.7 13 C 30.7 12.9 30.8 12.7 30.8 12.4 C 30.8 12 30.8 11.8 30.9 11.7 C 30.9 11.6 31 11.6 31 11.6 C 31.1 11.6 31.1 11.6 31.1 11.7 C 31.1 11.8 31.1 12 31.1 12.2 C 31 12.3 31 12.4 31 12.6 C 31 12.7 31 12.8 31 12.9 C 30.9 13 30.9 13.1 30.9 13.1 C 30.9 13.2 30.8 13.2 30.8 13.3 C 30.7 13.3 30.6 13.4 30.6 13.4 C 30.5 13.5 30.4 13.5 30.3 13.5 C 30.2 13.6 30.1 13.6 30.1 13.6 Z M 32.3 11.5 C 32.3 11.5 32.4 11.6 32.4 11.6 C 32.4 11.6 32.4 11.6 32.4 11.7 C 32.4 11.7 32.4 11.7 32.4 11.7 C 32.4 11.7 32.4 11.8 32.4 11.8 C 32.5 11.9 32.5 12 32.5 12.1 C 32.5 12.1 32.6 12.2 32.6 12.3 C 32.7 12.6 32.8 12.8 32.9 12.9 C 32.9 13.1 33 13.2 33.1 13.3 C 33.1 13.3 33.2 13.4 33.2 13.4 C 33.2 13.4 33.2 13.4 33.2 13.5 C 33.2 13.5 33.2 13.5 33.2 13.5 C 33.1 13.6 33.1 13.6 33.1 13.6 C 32.9 13.6 32.8 13.4 32.7 13.1 C 32.6 12.9 32.6 12.8 32.5 12.8 C 32.5 12.8 32.4 12.9 32.3 12.9 C 32.1 12.9 32 12.9 31.9 13 C 31.8 13 31.8 13 31.8 13 C 31.7 13 31.7 13 31.7 13 C 31.7 13 31.7 13 31.7 13 C 31.7 13 31.6 13 31.5 13.1 C 31.4 13.3 31.4 13.4 31.3 13.5 C 31.3 13.5 31.3 13.5 31.3 13.5 C 31.2 13.5 31.2 13.5 31.2 13.5 C 31.1 13.5 31.1 13.4 31.1 13.4 C 31.1 13.4 31.1 13.3 31.2 13.3 C 31.2 13.2 31.3 13.1 31.4 13 C 31.5 12.7 31.7 12.5 31.8 12.3 C 32 11.9 32.1 11.7 32.2 11.6 C 32.2 11.6 32.3 11.5 32.3 11.5 C 32.3 11.5 32.3 11.5 32.3 11.5 Z M 32.1 12.7 C 32.3 12.7 32.5 12.6 32.5 12.6 C 32.5 12.6 32.4 12.4 32.4 12.3 C 32.3 12.1 32.2 11.9 32.2 11.9 C 32.2 12 32.1 12.1 32 12.3 C 32 12.3 31.8 12.8 31.8 12.8 C 31.8 12.8 31.8 12.7 31.9 12.7 C 32 12.7 32 12.7 32.1 12.7 C 32.1 12.7 32.1 12.7 32.1 12.7 Z M 34.9 11.9 C 34.9 11.9 34.8 12 34.8 12.2 C 34.8 12.3 34.8 12.5 34.8 12.6 C 34.8 12.6 34.9 12.5 34.9 12.5 C 34.9 12.5 35.2 12.5 35.2 12.5 C 35.3 12.5 35.3 12.5 35.4 12.5 C 35.5 12.4 35.5 12.4 35.6 12.4 C 35.7 12.4 35.7 12.5 35.7 12.6 C 35.7 12.6 35.7 12.6 35.7 12.6 C 35.7 12.7 35.6 12.7 35.6 12.7 C 35.5 12.7 35.4 12.7 35.2 12.7 C 35 12.8 34.8 12.8 34.8 12.8 C 34.8 12.8 34.7 12.8 34.7 12.8 C 34.7 12.8 34.7 12.9 34.7 13 C 34.7 13.1 34.7 13.2 34.7 13.3 C 34.7 13.3 34.7 13.5 34.7 13.5 C 34.7 13.6 34.7 13.6 34.6 13.6 C 34.6 13.6 34.5 13.6 34.5 13.5 C 34.5 13.5 34.4 13.5 34.4 13.4 C 34.4 13.2 34.5 12.8 34.6 12.1 C 34.6 12 34.6 11.9 34.6 11.9 C 34.6 11.9 34.6 11.8 34.6 11.8 C 34.6 11.8 34.6 11.7 34.6 11.7 C 34.6 11.7 34.6 11.7 34.6 11.6 C 34.7 11.6 34.7 11.6 34.7 11.6 C 34.7 11.6 34.9 11.6 34.9 11.6 C 34.9 11.6 35 11.6 35.2 11.6 C 35.4 11.6 35.6 11.6 35.7 11.6 C 35.8 11.6 35.8 11.6 35.9 11.6 C 35.9 11.6 35.9 11.6 35.9 11.7 C 35.9 11.7 35.9 11.7 35.9 11.8 C 35.8 11.8 35.8 11.8 35.8 11.8 C 35.8 11.8 35.7 11.8 35.7 11.8 C 35.6 11.8 35.6 11.8 35.5 11.8 C 35.4 11.8 35.3 11.8 35.1 11.8 C 35 11.8 34.9 11.8 34.9 11.9 Z M 36.8 11.5 C 36.9 11.5 36.9 11.6 37 11.6 C 37 11.6 37 11.6 37 11.7 C 37 11.7 37 11.7 37 11.7 C 37 11.7 37 11.8 37 11.8 C 37 11.9 37 12 37.1 12.1 C 37.1 12.1 37.1 12.2 37.2 12.3 C 37.3 12.6 37.3 12.8 37.4 12.9 C 37.5 13.1 37.6 13.2 37.7 13.3 C 37.7 13.3 37.7 13.4 37.7 13.4 C 37.8 13.4 37.8 13.4 37.8 13.5 C 37.8 13.5 37.7 13.5 37.7 13.5 C 37.7 13.6 37.7 13.6 37.6 13.6 C 37.5 13.6 37.4 13.4 37.2 13.1 C 37.2 12.9 37.1 12.8 37.1 12.8 C 37.1 12.8 37 12.9 36.8 12.9 C 36.7 12.9 36.6 12.9 36.4 13 C 36.4 13 36.3 13 36.3 13 C 36.3 13 36.3 13 36.3 13 C 36.2 13 36.2 13 36.2 13 C 36.2 13 36.2 13 36.1 13.1 C 36 13.3 35.9 13.4 35.9 13.5 C 35.9 13.5 35.9 13.5 35.8 13.5 C 35.8 13.5 35.8 13.5 35.7 13.5 C 35.7 13.5 35.7 13.4 35.7 13.4 C 35.7 13.4 35.7 13.3 35.7 13.3 C 35.8 13.2 35.8 13.1 35.9 13 C 36.1 12.7 36.2 12.5 36.4 12.3 C 36.6 11.9 36.7 11.7 36.7 11.6 C 36.8 11.6 36.8 11.5 36.8 11.5 C 36.8 11.5 36.8 11.5 36.8 11.5 Z M 36.6 12.7 C 36.9 12.7 37 12.6 37.1 12.6 C 37 12.6 37 12.4 36.9 12.3 C 36.9 12.1 36.8 11.9 36.8 11.9 C 36.7 12 36.7 12.1 36.6 12.3 C 36.6 12.3 36.3 12.8 36.3 12.8 C 36.4 12.8 36.4 12.7 36.5 12.7 C 36.5 12.7 36.6 12.7 36.6 12.7 C 36.6 12.7 36.6 12.7 36.6 12.7 Z M 39.9 12 C 39.9 12 39.9 11.9 39.8 11.9 C 39.8 12 39.6 12.2 39.4 12.4 C 39.3 12.7 39.1 12.8 39.1 12.9 C 39 13 38.9 13 38.9 13 C 38.8 13 38.8 13 38.8 12.9 C 38.7 12.9 38.7 12.8 38.6 12.6 C 38.5 12.3 38.5 12.1 38.4 12 C 38.4 12.1 38.4 12.1 38.4 12.2 C 38.4 12.3 38.3 12.5 38.3 12.7 C 38.2 13.1 38.1 13.4 38.1 13.5 C 38.1 13.5 38.1 13.5 38.1 13.5 C 38.1 13.6 38 13.6 38 13.6 C 38 13.6 38 13.6 37.9 13.5 C 37.9 13.5 37.9 13.5 37.9 13.4 C 37.9 13.3 37.9 13.2 38 13 C 38 13 38.1 12.6 38.1 12.6 C 38.2 12.3 38.2 12.1 38.2 12 C 38.2 11.9 38.2 11.8 38.2 11.7 C 38.2 11.6 38.3 11.6 38.4 11.6 C 38.4 11.6 38.5 11.6 38.5 11.6 C 38.5 11.7 38.5 11.7 38.6 11.8 C 38.6 11.8 38.6 11.8 38.6 11.9 C 38.6 11.9 38.8 12.4 38.8 12.4 C 38.8 12.6 38.9 12.7 38.9 12.7 C 38.9 12.7 38.9 12.7 38.9 12.7 C 39 12.7 39.1 12.5 39.4 12.2 C 39.7 11.7 39.9 11.5 39.9 11.5 C 40 11.5 40 11.5 40.1 11.6 C 40.1 11.6 40.1 11.6 40.1 11.6 C 40.1 11.7 40.1 11.9 40 12.2 C 40 12.4 40 12.5 40 12.7 C 40 12.9 40 13 40 13.1 C 40 13.1 40 13.2 40 13.2 C 40 13.3 40 13.3 40 13.3 C 40 13.4 40 13.4 40 13.4 C 40 13.5 40 13.5 39.9 13.5 C 39.9 13.5 39.9 13.5 39.9 13.5 C 39.8 13.5 39.7 13.4 39.7 13.3 C 39.7 13.2 39.8 12.8 39.8 12.3 C 39.8 12.2 39.8 12.2 39.8 12.2 C 39.8 12.2 39.8 12.1 39.8 12.1 C 39.8 12 39.9 12 39.9 12 C 39.9 12 39.9 12 39.9 12 Z M 41 11.7 C 40.9 11.8 40.9 11.9 40.9 12.1 C 40.8 12.2 40.8 12.3 40.8 12.3 C 40.8 12.4 40.8 12.4 40.8 12.5 C 40.8 12.7 40.7 12.9 40.7 13 C 40.7 13.1 40.8 13.2 40.8 13.3 C 40.8 13.4 40.8 13.4 40.7 13.5 C 40.7 13.5 40.7 13.5 40.6 13.5 C 40.6 13.5 40.5 13.5 40.5 13.4 C 40.5 13.4 40.5 13.3 40.5 13.2 C 40.5 13.1 40.5 12.9 40.6 12.7 C 40.6 12.6 40.6 12.5 40.6 12.5 C 40.6 12.5 40.6 12.5 40.6 12.4 C 40.6 12.4 40.6 12.4 40.6 12.3 C 40.6 12.3 40.6 12.1 40.6 12 C 40.7 11.9 40.7 11.8 40.7 11.8 C 40.7 11.7 40.7 11.7 40.7 11.6 C 40.7 11.6 40.7 11.6 40.8 11.6 C 40.8 11.6 40.8 11.6 40.8 11.6 C 40.9 11.6 40.9 11.6 40.9 11.6 C 40.9 11.6 41 11.7 41 11.7 Z M 41.4 10.9 C 41.4 10.9 41.4 10.9 41.4 10.9 C 41.4 10.9 41.3 10.9 41.3 10.9 C 41.3 10.9 41.2 11 41 11.2 C 40.9 11.2 40.8 11.3 40.8 11.3 C 40.8 11.3 40.8 11.3 40.8 11.3 C 40.7 11.3 40.7 11.3 40.7 11.3 C 40.7 11.2 40.7 11.2 40.7 11.2 C 40.7 11.2 40.7 11.1 40.9 11 C 41 10.9 41.1 10.8 41.2 10.7 C 41.3 10.7 41.3 10.7 41.3 10.7 C 41.4 10.7 41.4 10.7 41.4 10.7 C 41.4 10.7 41.4 10.7 41.4 10.7 C 41.4 10.7 41.4 10.8 41.4 10.8 C 41.4 10.8 41.4 10.8 41.4 10.8 C 41.4 10.9 41.4 10.9 41.4 10.9 Z M 41.3 13.3 C 41.3 13.2 41.3 13.1 41.3 13.1 C 41.3 13.1 41.3 13 41.3 12.8 C 41.4 12.6 41.4 12.4 41.4 12.1 C 41.4 11.8 41.5 11.7 41.5 11.7 C 41.5 11.6 41.5 11.6 41.5 11.6 C 41.5 11.6 41.6 11.6 41.6 11.6 C 41.6 11.6 41.7 11.6 41.7 11.6 C 41.7 11.6 41.7 11.6 41.7 11.7 C 41.7 11.7 41.7 11.8 41.7 11.9 C 41.7 12 41.6 12.2 41.6 12.6 C 41.5 12.9 41.5 13.1 41.5 13.2 C 41.5 13.2 41.5 13.2 41.5 13.2 C 41.5 13.2 41.6 13.3 41.6 13.3 C 41.6 13.3 41.7 13.2 41.9 13.2 C 42 13.2 42.2 13.2 42.4 13.2 C 42.5 13.2 42.5 13.2 42.6 13.1 C 42.6 13.1 42.6 13.1 42.6 13.1 C 42.7 13.1 42.7 13.1 42.7 13.2 C 42.7 13.2 42.7 13.2 42.7 13.2 C 42.7 13.3 42.7 13.3 42.7 13.4 C 42.6 13.4 42.6 13.4 42.5 13.4 C 42.5 13.4 42.5 13.4 42.4 13.4 C 42.4 13.4 42.3 13.4 42.3 13.4 C 42 13.4 41.7 13.4 41.5 13.5 C 41.4 13.5 41.4 13.6 41.4 13.6 C 41.3 13.6 41.3 13.5 41.3 13.5 C 41.2 13.5 41.2 13.4 41.2 13.4 C 41.2 13.4 41.2 13.3 41.3 13.3 C 41.3 13.3 41.3 13.3 41.3 13.3 Z M 43.4 11.7 C 43.4 11.8 43.4 11.9 43.3 12.1 C 43.3 12.2 43.3 12.3 43.3 12.3 C 43.3 12.4 43.3 12.4 43.2 12.5 C 43.2 12.7 43.2 12.9 43.2 13 C 43.2 13.1 43.2 13.2 43.2 13.3 C 43.2 13.4 43.2 13.4 43.2 13.5 C 43.1 13.5 43.1 13.5 43.1 13.5 C 43 13.5 43 13.5 43 13.4 C 43 13.4 42.9 13.3 42.9 13.2 C 42.9 13.1 43 12.9 43 12.7 C 43 12.6 43 12.5 43 12.5 C 43 12.5 43 12.5 43 12.4 C 43 12.4 43 12.4 43 12.3 C 43 12.3 43.1 12.1 43.1 12 C 43.1 11.9 43.1 11.8 43.1 11.8 C 43.1 11.7 43.1 11.7 43.2 11.6 C 43.2 11.6 43.2 11.6 43.2 11.6 C 43.2 11.6 43.3 11.6 43.3 11.6 C 43.3 11.6 43.4 11.6 43.4 11.6 C 43.4 11.6 43.4 11.7 43.4 11.7 Z M 44.6 11.5 C 44.7 11.5 44.7 11.6 44.8 11.6 C 44.8 11.6 44.8 11.6 44.8 11.7 C 44.8 11.7 44.8 11.7 44.8 11.7 C 44.8 11.7 44.8 11.8 44.8 11.8 C 44.8 11.9 44.8 12 44.9 12.1 C 44.9 12.1 44.9 12.2 45 12.3 C 45.1 12.6 45.1 12.8 45.2 12.9 C 45.3 13.1 45.4 13.2 45.5 13.3 C 45.5 13.3 45.5 13.4 45.5 13.4 C 45.5 13.4 45.6 13.4 45.6 13.5 C 45.6 13.5 45.5 13.5 45.5 13.5 C 45.5 13.6 45.5 13.6 45.4 13.6 C 45.3 13.6 45.2 13.4 45 13.1 C 44.9 12.9 44.9 12.8 44.9 12.8 C 44.9 12.8 44.8 12.9 44.6 12.9 C 44.5 12.9 44.4 12.9 44.2 13 C 44.2 13 44.1 13 44.1 13 C 44.1 13 44.1 13 44 13 C 44 13 44 13 44 13 C 44 13 44 13 43.9 13.1 C 43.8 13.3 43.7 13.4 43.7 13.5 C 43.7 13.5 43.6 13.5 43.6 13.5 C 43.6 13.5 43.6 13.5 43.5 13.5 C 43.5 13.5 43.5 13.4 43.5 13.4 C 43.5 13.4 43.5 13.3 43.5 13.3 C 43.6 13.2 43.6 13.1 43.7 13 C 43.9 12.7 44 12.5 44.2 12.3 C 44.4 11.9 44.5 11.7 44.5 11.6 C 44.6 11.6 44.6 11.5 44.6 11.5 C 44.6 11.5 44.6 11.5 44.6 11.5 Z M 44.4 12.7 C 44.7 12.7 44.8 12.6 44.8 12.6 C 44.8 12.6 44.8 12.4 44.7 12.3 C 44.6 12.1 44.6 11.9 44.6 11.9 C 44.5 12 44.5 12.1 44.4 12.3 C 44.4 12.3 44.1 12.8 44.1 12.8 C 44.1 12.8 44.2 12.7 44.3 12.7 C 44.3 12.7 44.4 12.7 44.4 12.7 C 44.4 12.7 44.4 12.7 44.4 12.7 Z M 46 13.1 C 46 13.1 46 13.1 46 13.1 C 46 13.1 46 13.1 46 13.1 C 46.1 13.2 46.1 13.2 46.1 13.2 C 46.1 13.3 46.1 13.3 46.1 13.3 C 46 13.3 46 13.4 46 13.4 C 45.9 13.4 45.9 13.4 45.9 13.4 C 45.8 13.4 45.8 13.4 45.8 13.4 C 45.8 13.4 45.8 13.4 45.8 13.3 C 45.8 13.2 45.8 13.2 45.8 13.2 C 45.8 13.1 45.8 13.1 45.8 13.1 C 45.9 13.1 45.9 13.1 46 13.1 Z " stroke="none" fill="#000"/>  </g>  <g id="Polygon14473">    <path d="M 4.1 8.9 C 4.1 8.9 4.1 8.9 4 8.9 C 4 8.9 3.9 8.9 3.9 9 C 3.8 9 3.8 9 3.8 9 C 3.7 9 3.7 9 3.7 9 C 3.6 9 3.6 9 3.5 9 C 3.3 9 3.2 9 3.1 9 C 3.1 9.1 3.1 9.1 3.1 9.2 C 3.1 9.2 3.1 9.3 3 9.3 C 3 9.5 3 9.6 3 9.7 C 3 9.7 3 9.7 3 9.7 C 3 9.7 3.1 9.7 3.3 9.6 C 3.4 9.6 3.5 9.6 3.5 9.6 C 3.7 9.6 3.8 9.6 3.8 9.6 C 3.9 9.6 4 9.6 4 9.6 C 4 9.7 4 9.8 3.9 9.8 C 3.8 9.8 3.7 9.8 3.4 9.8 C 3.1 9.9 3 9.9 3 9.9 C 2.9 10 2.9 10 2.9 10.2 C 2.9 10.3 2.9 10.4 2.9 10.4 C 2.9 10.4 2.9 10.4 2.9 10.4 C 2.9 10.5 2.9 10.5 3 10.5 C 3 10.5 3 10.5 3 10.5 C 3 10.5 3.1 10.5 3.2 10.5 C 3.2 10.5 3.4 10.5 3.4 10.5 C 3.5 10.5 3.6 10.4 3.7 10.4 C 3.8 10.4 3.9 10.4 3.9 10.4 C 3.9 10.4 4 10.4 4 10.4 C 4 10.4 4.1 10.5 4.1 10.5 C 4.1 10.5 4 10.6 4 10.6 C 3.9 10.6 3.8 10.6 3.7 10.6 C 3.6 10.7 3.4 10.7 3.1 10.7 C 3 10.7 2.9 10.7 2.9 10.7 C 2.7 10.7 2.7 10.7 2.7 10.7 C 2.6 10.7 2.6 10.7 2.6 10.6 C 2.61 10.6 2.6 10.6 2.6 10.6 C 2.6 10.6 2.61 10.55 2.6 10.5 C 2.6 10.5 2.6 10.5 2.6 10.5 C 2.7 10.4 2.7 10.3 2.7 10.1 C 2.7 9.9 2.8 9.8 2.8 9.7 C 2.8 9.7 2.8 9.6 2.8 9.6 C 2.8 9.4 2.8 9.2 2.8 9.1 C 2.8 9.1 2.8 9 2.8 9 C 2.8 9 2.8 9 2.8 9 C 2.8 9 2.8 9 2.8 9 C 2.8 8.9 2.8 8.9 2.8 8.9 C 2.8 8.9 2.8 8.9 2.8 8.9 C 2.8 8.9 2.8 8.9 2.8 8.8 C 2.8 8.8 2.9 8.8 2.9 8.8 C 2.9 8.8 2.9 8.8 2.9 8.8 C 2.9 8.8 3 8.8 3 8.8 C 3 8.8 3 8.8 3 8.8 C 3 8.8 3.1 8.8 3.3 8.8 C 3.5 8.8 3.7 8.8 3.9 8.7 C 4 8.7 4 8.7 4 8.7 C 4 8.7 4 8.7 4 8.7 C 4.1 8.7 4.1 8.7 4.1 8.7 C 4.2 8.7 4.2 8.8 4.2 8.8 C 4.2 8.9 4.2 8.9 4.2 8.9 C 4.1 8.9 4.1 8.9 4.1 8.9 Z M 5.7 9.2 C 5.7 9.1 5.6 9 5.6 9 C 5.5 8.9 5.4 8.9 5.4 8.9 C 5.2 8.9 5 9 4.8 9 C 4.7 9.1 4.6 9.2 4.6 9.3 C 4.6 9.4 4.7 9.4 4.7 9.5 C 4.8 9.5 4.9 9.6 5.2 9.7 C 5.4 9.7 5.5 9.8 5.6 9.9 C 5.7 9.9 5.8 10 5.8 10.1 C 5.8 10.2 5.7 10.3 5.6 10.4 C 5.4 10.5 5.3 10.6 5.1 10.7 C 4.9 10.7 4.8 10.8 4.6 10.8 C 4.5 10.8 4.5 10.7 4.4 10.7 C 4.3 10.7 4.3 10.7 4.3 10.6 C 4.3 10.6 4.3 10.6 4.3 10.5 C 4.4 10.5 4.4 10.5 4.4 10.5 C 4.4 10.5 4.4 10.5 4.4 10.5 C 4.5 10.5 4.6 10.5 4.7 10.5 C 4.9 10.5 5.1 10.5 5.3 10.4 C 5.4 10.3 5.5 10.2 5.5 10.1 C 5.5 10.1 5.5 10 5.4 10 C 5.4 10 5.2 9.9 5 9.9 C 4.7 9.8 4.6 9.7 4.5 9.6 C 4.4 9.5 4.4 9.4 4.4 9.3 C 4.4 9.1 4.5 9 4.7 8.9 C 4.9 8.8 5.1 8.7 5.4 8.7 C 5.5 8.7 5.6 8.7 5.7 8.8 C 5.8 8.8 5.8 8.9 5.8 9 C 5.8 9 5.8 9 5.8 9.1 C 5.8 9.1 5.7 9.2 5.7 9.2 Z M 6.1 9.1 C 6 9.1 5.9 9.1 5.9 9 C 5.9 9 5.9 9 5.9 9 C 5.9 8.9 5.9 8.9 5.9 8.9 C 6 8.9 6.1 8.9 6.2 8.9 C 6.4 8.9 6.5 8.9 6.7 8.9 C 6.8 8.8 7 8.8 7.3 8.8 C 7.4 8.8 7.5 8.8 7.6 8.8 C 7.7 8.8 7.7 8.8 7.8 8.8 C 7.8 8.8 7.9 8.8 7.9 8.8 C 7.9 8.8 7.9 8.8 7.9 8.8 C 7.9 8.9 7.9 8.9 7.9 8.9 C 7.9 8.9 7.9 9 7.9 9 C 7.8 9 7.8 9 7.8 9 C 7.7 9 7.6 9 7.5 9 C 7.5 9 7.3 9 7.2 9 C 7.1 9 7 9 7 9 C 7 9.1 7 9.2 6.9 9.6 C 6.9 9.9 6.9 10.1 6.9 10.3 C 6.9 10.3 6.9 10.4 6.9 10.5 C 6.9 10.5 6.9 10.5 6.9 10.5 C 6.9 10.6 6.9 10.6 6.9 10.6 C 6.9 10.7 6.8 10.7 6.8 10.7 C 6.8 10.7 6.7 10.7 6.7 10.6 C 6.7 10.6 6.7 10.5 6.7 10.3 C 6.7 10.1 6.7 9.7 6.8 9.1 C 6.8 9.1 6.8 9.1 6.8 9.1 C 6.8 9.1 6.8 9 6.7 9 C 6.7 9 6.6 9.1 6.4 9.1 C 6.3 9.1 6.2 9.1 6.1 9.1 C 6.1 9.1 6.1 9.1 6.1 9.1 Z M 8.7 8.7 C 8.7 8.7 8.8 8.7 8.8 8.8 C 8.8 8.8 8.8 8.8 8.8 8.8 C 8.8 8.9 8.8 8.9 8.8 8.9 C 8.8 8.9 8.8 9 8.8 9 C 8.8 9.1 8.9 9.2 8.9 9.2 C 8.9 9.3 9 9.4 9 9.5 C 9.1 9.7 9.2 9.9 9.2 10.1 C 9.3 10.3 9.4 10.4 9.5 10.5 C 9.5 10.5 9.6 10.5 9.6 10.6 C 9.6 10.6 9.6 10.6 9.6 10.6 C 9.6 10.7 9.6 10.7 9.5 10.7 C 9.5 10.7 9.5 10.8 9.4 10.8 C 9.3 10.8 9.2 10.6 9 10.2 C 9 10.1 8.9 10 8.9 10 C 8.9 10 8.8 10 8.7 10.1 C 8.5 10.1 8.4 10.1 8.3 10.1 C 8.2 10.2 8.2 10.2 8.1 10.2 C 8.1 10.2 8.1 10.2 8.1 10.1 C 8.1 10.1 8.1 10.1 8.1 10.1 C 8 10.1 8 10.2 7.9 10.3 C 7.8 10.5 7.8 10.6 7.7 10.6 C 7.7 10.7 7.7 10.7 7.6 10.7 C 7.6 10.7 7.6 10.7 7.6 10.7 C 7.5 10.6 7.5 10.6 7.5 10.6 C 7.5 10.5 7.5 10.5 7.6 10.5 C 7.6 10.4 7.7 10.3 7.7 10.2 C 7.9 9.9 8.1 9.7 8.2 9.4 C 8.4 9.1 8.5 8.9 8.5 8.8 C 8.6 8.7 8.6 8.7 8.7 8.7 C 8.7 8.7 8.7 8.7 8.7 8.7 Z M 8.5 9.9 C 8.7 9.8 8.8 9.8 8.9 9.8 C 8.8 9.7 8.8 9.6 8.7 9.4 C 8.7 9.2 8.6 9.1 8.6 9.1 C 8.6 9.2 8.5 9.3 8.4 9.5 C 8.4 9.5 8.2 9.9 8.2 9.9 C 8.2 9.9 8.2 9.9 8.3 9.9 C 8.4 9.9 8.4 9.9 8.5 9.9 C 8.5 9.9 8.5 9.9 8.5 9.9 Z M 12.3 8.9 C 12.3 8.9 12.3 8.9 12.2 8.9 C 12.2 8.9 12.1 8.9 12.1 9 C 12 9 12 9 12 9 C 11.9 9 11.9 9 11.9 9 C 11.8 9 11.8 9 11.7 9 C 11.5 9 11.4 9 11.3 9 C 11.3 9.1 11.3 9.1 11.3 9.2 C 11.3 9.2 11.2 9.3 11.2 9.3 C 11.2 9.5 11.2 9.6 11.2 9.7 C 11.2 9.7 11.2 9.7 11.2 9.7 C 11.2 9.7 11.3 9.7 11.4 9.6 C 11.6 9.6 11.7 9.6 11.7 9.6 C 11.9 9.6 11.9 9.6 12 9.6 C 12.1 9.6 12.2 9.6 12.2 9.6 C 12.2 9.7 12.1 9.8 12.1 9.8 C 12 9.8 11.8 9.8 11.6 9.8 C 11.3 9.9 11.2 9.9 11.2 9.9 C 11.1 10 11.1 10 11.1 10.2 C 11.1 10.3 11.1 10.4 11.1 10.4 C 11.1 10.4 11.1 10.4 11.1 10.4 C 11.1 10.5 11.1 10.5 11.1 10.5 C 11.1 10.5 11.2 10.5 11.2 10.5 C 11.2 10.5 11.3 10.5 11.3 10.5 C 11.3 10.5 11.6 10.5 11.6 10.5 C 11.7 10.5 11.8 10.4 11.9 10.4 C 12 10.4 12.1 10.4 12.1 10.4 C 12.1 10.4 12.2 10.4 12.2 10.4 C 12.2 10.4 12.2 10.5 12.2 10.5 C 12.2 10.5 12.2 10.6 12.2 10.6 C 12.1 10.6 12 10.6 11.9 10.6 C 11.7 10.7 11.6 10.7 11.3 10.7 C 11.2 10.7 11.1 10.7 11 10.7 C 10.9 10.7 10.9 10.7 10.8 10.7 C 10.8 10.7 10.8 10.7 10.8 10.6 C 10.8 10.6 10.8 10.6 10.8 10.6 C 10.8 10.6 10.8 10.55 10.8 10.5 C 10.8 10.5 10.8 10.5 10.8 10.5 C 10.8 10.4 10.9 10.3 10.9 10.1 C 10.9 9.9 10.9 9.8 11 9.7 C 11 9.7 11 9.6 11 9.6 C 11 9.4 11 9.2 11 9.1 C 11 9.1 11 9 11 9 C 11 9 11 9 11 9 C 11 9 11 9 11 9 C 11 8.9 11 8.9 11 8.9 C 11 8.9 11 8.9 11 8.9 C 11 8.9 11 8.9 11 8.8 C 11 8.8 11.1 8.8 11.1 8.8 C 11.1 8.8 11.1 8.8 11.1 8.8 C 11.1 8.8 11.2 8.8 11.2 8.8 C 11.2 8.8 11.2 8.8 11.2 8.8 C 11.2 8.8 11.3 8.8 11.5 8.8 C 11.7 8.8 11.9 8.8 12.1 8.7 C 12.2 8.7 12.2 8.7 12.2 8.7 C 12.2 8.7 12.2 8.7 12.2 8.7 C 12.3 8.7 12.3 8.7 12.3 8.7 C 12.4 8.7 12.4 8.8 12.4 8.8 C 12.4 8.9 12.4 8.9 12.4 8.9 C 12.3 8.9 12.3 8.9 12.3 8.9 Z M 12.3 8.1 C 12.3 8.1 12.3 8.1 12.3 8.1 C 12.3 8.2 12.3 8.2 12.3 8.2 C 12.2 8.2 12.1 8.3 11.9 8.4 C 11.8 8.5 11.7 8.5 11.7 8.5 C 11.7 8.5 11.7 8.6 11.7 8.6 C 11.7 8.6 11.6 8.5 11.6 8.5 C 11.6 8.5 11.6 8.5 11.6 8.5 C 11.6 8.4 11.7 8.3 11.8 8.2 C 11.9 8.1 12.1 8.1 12.2 8 C 12.2 8 12.2 8 12.2 7.9 C 12.3 7.9 12.3 7.9 12.3 7.9 C 12.3 7.9 12.3 7.9 12.3 8 C 12.3 8 12.4 8 12.4 8 C 12.4 8.1 12.3 8.1 12.3 8.1 C 12.3 8.1 12.3 8.1 12.3 8.1 Z M 14.6 8.7 C 14.6 8.7 14.7 8.7 14.7 8.8 C 14.7 8.8 14.7 8.8 14.7 8.8 C 14.7 8.9 14.7 8.9 14.7 8.9 C 14.7 8.9 14.7 9 14.7 9 C 14.7 9.1 14.8 9.2 14.8 9.2 C 14.8 9.3 14.9 9.4 14.9 9.5 C 15 9.7 15.1 9.9 15.1 10.1 C 15.2 10.3 15.3 10.4 15.4 10.5 C 15.4 10.5 15.4 10.5 15.5 10.6 C 15.5 10.6 15.5 10.6 15.5 10.6 C 15.5 10.7 15.5 10.7 15.4 10.7 C 15.4 10.7 15.4 10.8 15.3 10.8 C 15.2 10.8 15.1 10.6 14.9 10.2 C 14.9 10.1 14.8 10 14.8 10 C 14.8 10 14.7 10 14.5 10.1 C 14.4 10.1 14.3 10.1 14.2 10.1 C 14.1 10.2 14.1 10.2 14 10.2 C 14 10.2 14 10.2 14 10.1 C 14 10.1 14 10.1 13.9 10.1 C 13.9 10.1 13.9 10.2 13.8 10.3 C 13.7 10.5 13.7 10.6 13.6 10.6 C 13.6 10.7 13.6 10.7 13.5 10.7 C 13.5 10.7 13.5 10.7 13.4 10.7 C 13.4 10.6 13.4 10.6 13.4 10.6 C 13.4 10.5 13.4 10.5 13.4 10.5 C 13.5 10.4 13.5 10.3 13.6 10.2 C 13.8 9.9 14 9.7 14.1 9.4 C 14.3 9.1 14.4 8.9 14.4 8.8 C 14.5 8.7 14.5 8.7 14.6 8.7 C 14.6 8.7 14.6 8.7 14.6 8.7 Z M 14.3 9.9 C 14.6 9.8 14.7 9.8 14.8 9.8 C 14.7 9.7 14.7 9.6 14.6 9.4 C 14.6 9.2 14.5 9.1 14.5 9.1 C 14.5 9.2 14.4 9.3 14.3 9.5 C 14.3 9.5 14 9.9 14 9.9 C 14.1 9.9 14.1 9.9 14.2 9.9 C 14.3 9.9 14.3 9.9 14.3 9.9 C 14.3 9.9 14.3 9.9 14.3 9.9 Z M 17.2 10.7 C 17 10.7 16.9 10.7 16.8 10.5 C 16.7 10.4 16.6 10.2 16.6 10.1 C 16.6 9.9 16.7 9.7 16.8 9.5 C 16.9 9.3 17 9.1 17.2 8.9 C 17.4 8.8 17.6 8.7 17.8 8.7 C 17.9 8.7 18 8.7 18.1 8.8 C 18.2 8.8 18.3 8.9 18.4 8.9 C 18.5 9 18.5 9.1 18.5 9.1 C 18.6 9.2 18.6 9.3 18.6 9.4 C 18.6 9.5 18.5 9.7 18.5 9.8 C 18.4 10 18.3 10.2 18.1 10.3 C 18 10.5 17.8 10.6 17.7 10.6 C 17.6 10.7 17.4 10.7 17.2 10.7 Z M 16.9 10.1 C 16.9 10.2 16.9 10.3 17 10.4 C 17.1 10.5 17.2 10.5 17.3 10.5 C 17.5 10.5 17.8 10.4 18 10.1 C 18.2 9.9 18.3 9.6 18.3 9.4 C 18.3 9.3 18.3 9.2 18.3 9.1 C 18.2 9.1 18.2 9 18.1 9 C 18 8.9 17.9 8.9 17.8 8.9 C 17.6 8.9 17.4 9 17.2 9.3 C 17 9.6 16.9 9.8 16.9 10.1 Z M 19 9.1 C 18.9 9.1 18.9 9 18.9 8.9 C 18.9 8.9 19 8.8 19.3 8.8 C 19.5 8.7 19.7 8.7 19.9 8.7 C 20.1 8.7 20.2 8.7 20.3 8.8 C 20.4 8.9 20.5 9 20.5 9.1 C 20.5 9.3 20.4 9.5 20.2 9.7 C 20 9.8 19.7 9.9 19.3 10 C 19.2 10 19.2 10 19.1 10 C 19.1 10.1 19.1 10.1 19.1 10.3 C 19.1 10.4 19.1 10.5 19.1 10.6 C 19.1 10.6 19.1 10.6 19.1 10.7 C 19 10.7 19 10.7 19 10.7 C 18.9 10.7 18.9 10.7 18.9 10.6 C 18.9 10.5 18.9 10.4 18.9 10.1 C 18.9 10.1 19 9.3 19 9.3 C 19 9.3 19 9.3 19 9.2 C 19 9.1 19 9.1 19 9.1 Z M 19.9 8.9 C 19.7 8.9 19.5 8.9 19.3 9 C 19.3 9 19.2 9.1 19.2 9.1 C 19.2 9.3 19.2 9.4 19.2 9.5 C 19.2 9.6 19.2 9.7 19.2 9.8 C 19.5 9.8 19.7 9.7 19.9 9.6 C 20.2 9.4 20.3 9.3 20.3 9.2 C 20.3 9 20.1 8.9 19.9 8.9 C 19.9 8.9 19.9 8.9 19.9 8.9 Z M 21.1 10.7 C 21 10.7 20.9 10.7 20.8 10.5 C 20.7 10.4 20.6 10.2 20.6 10.1 C 20.6 9.9 20.7 9.7 20.8 9.5 C 20.9 9.3 21 9.1 21.2 8.9 C 21.4 8.8 21.5 8.7 21.7 8.7 C 21.9 8.7 22 8.7 22.1 8.8 C 22.2 8.8 22.3 8.9 22.3 8.9 C 22.4 9 22.5 9.1 22.5 9.1 C 22.5 9.2 22.5 9.3 22.5 9.4 C 22.5 9.5 22.5 9.7 22.4 9.8 C 22.4 10 22.2 10.2 22.1 10.3 C 21.9 10.5 21.8 10.6 21.7 10.6 C 21.5 10.7 21.3 10.7 21.1 10.7 Z M 20.8 10.1 C 20.8 10.2 20.9 10.3 21 10.4 C 21 10.5 21.1 10.5 21.2 10.5 C 21.5 10.5 21.7 10.4 22 10.1 C 22.2 9.9 22.3 9.6 22.3 9.4 C 22.3 9.3 22.3 9.2 22.2 9.1 C 22.2 9.1 22.1 9 22 9 C 21.9 8.9 21.8 8.9 21.7 8.9 C 21.5 8.9 21.3 9 21.1 9.3 C 20.9 9.6 20.8 9.8 20.8 10.1 Z M 23.1 8.8 C 23.4 8.7 23.6 8.7 23.7 8.7 C 23.9 8.7 24 8.8 24.2 8.8 C 24.3 8.9 24.3 9 24.3 9.2 C 24.3 9.3 24.3 9.4 24.1 9.6 C 24 9.7 23.9 9.8 23.7 9.8 C 23.7 9.8 23.7 9.8 23.7 9.9 C 23.7 9.9 23.8 10 23.9 10.1 C 24.1 10.2 24.3 10.3 24.4 10.4 C 24.5 10.5 24.5 10.5 24.5 10.5 C 24.5 10.6 24.5 10.6 24.5 10.6 C 24.4 10.7 24.4 10.7 24.4 10.7 C 24.3 10.7 24.2 10.6 24.1 10.5 C 24 10.5 23.9 10.4 23.8 10.3 C 23.5 10 23.4 9.9 23.3 9.9 C 23.3 9.9 23.2 9.9 23.2 9.9 C 23.2 9.9 23.2 9.9 23.2 9.8 C 23.2 9.8 23.2 9.8 23.2 9.7 C 23.3 9.7 23.3 9.7 23.3 9.7 C 23.3 9.7 23.4 9.7 23.4 9.7 C 23.4 9.7 23.5 9.7 23.5 9.7 C 23.5 9.7 23.7 9.7 23.8 9.5 C 24 9.4 24.1 9.3 24.1 9.2 C 24.1 9.1 24.1 9 24 9 C 23.9 8.9 23.8 8.9 23.7 8.9 C 23.6 8.9 23.5 8.9 23.4 8.9 C 23.3 8.9 23.3 8.9 23.3 9 C 23.2 9 23.2 9 23.2 9 C 23.2 9.1 23.2 9.2 23.1 9.4 C 23.1 9.6 23.1 9.8 23 9.9 C 23 10.1 23 10.2 23 10.3 C 23 10.4 23 10.4 23 10.5 C 23 10.5 23 10.6 23 10.6 C 23 10.6 23 10.6 23 10.7 C 23 10.7 22.9 10.7 22.9 10.7 C 22.8 10.7 22.8 10.6 22.8 10.5 C 22.8 10.1 22.8 9.7 23 9.1 C 23 9.1 23 9 23 9 C 23 9 23 9 23 9 C 22.9 8.9 22.9 8.9 22.9 8.9 C 22.9 8.9 22.9 8.8 22.9 8.8 C 23 8.8 23 8.8 23 8.8 C 23 8.8 23.1 8.8 23.1 8.8 Z M 24.7 9.1 C 24.6 9.1 24.6 9.1 24.5 9 C 24.5 9 24.5 9 24.5 9 C 24.5 8.9 24.5 8.9 24.6 8.9 C 24.6 8.9 24.7 8.9 24.8 8.9 C 25 8.9 25.2 8.9 25.3 8.9 C 25.4 8.8 25.6 8.8 25.9 8.8 C 26 8.8 26.1 8.8 26.2 8.8 C 26.3 8.8 26.3 8.8 26.4 8.8 C 26.4 8.8 26.5 8.8 26.5 8.8 C 26.5 8.8 26.5 8.8 26.5 8.8 C 26.5 8.9 26.5 8.9 26.5 8.9 C 26.5 8.9 26.5 9 26.5 9 C 26.5 9 26.4 9 26.4 9 C 26.3 9 26.2 9 26.2 9 C 26.1 9 26 9 25.8 9 C 25.7 9 25.6 9 25.6 9 C 25.6 9.1 25.6 9.2 25.5 9.6 C 25.5 9.9 25.5 10.1 25.5 10.3 C 25.5 10.3 25.5 10.4 25.5 10.5 C 25.5 10.5 25.5 10.5 25.5 10.5 C 25.5 10.6 25.5 10.6 25.5 10.6 C 25.5 10.7 25.5 10.7 25.4 10.7 C 25.4 10.7 25.3 10.7 25.3 10.6 C 25.3 10.6 25.3 10.5 25.3 10.3 C 25.3 10.1 25.3 9.7 25.4 9.1 C 25.4 9.1 25.4 9.1 25.4 9.1 C 25.4 9.1 25.4 9 25.3 9 C 25.3 9 25.2 9.1 25 9.1 C 24.9 9.1 24.8 9.1 24.7 9.1 C 24.7 9.1 24.7 9.1 24.7 9.1 Z M 27.2 10.7 C 27.1 10.7 27 10.7 26.9 10.6 C 26.7 10.6 26.6 10.5 26.6 10.4 C 26.5 10.2 26.5 10.1 26.5 9.9 C 26.5 9.8 26.5 9.6 26.5 9.4 C 26.6 9.3 26.6 9.3 26.6 9.2 C 26.6 9 26.6 8.9 26.6 8.8 C 26.6 8.8 26.7 8.8 26.7 8.8 C 26.7 8.7 26.7 8.7 26.8 8.7 C 26.8 8.7 26.8 8.7 26.8 8.8 C 26.9 8.8 26.9 8.9 26.9 8.9 C 26.9 8.9 26.9 9 26.8 9.1 C 26.8 9.2 26.8 9.3 26.7 9.5 C 26.7 9.7 26.7 9.8 26.7 9.9 C 26.7 10.1 26.8 10.3 26.9 10.4 C 27 10.5 27.1 10.5 27.2 10.5 C 27.3 10.5 27.5 10.5 27.6 10.4 C 27.7 10.4 27.7 10.3 27.8 10.2 C 27.9 10.1 27.9 9.8 27.9 9.5 C 27.9 9.2 28 9 28 8.9 C 28 8.8 28.1 8.8 28.1 8.8 C 28.2 8.8 28.2 8.8 28.2 8.9 C 28.2 9 28.2 9.1 28.2 9.3 C 28.2 9.4 28.1 9.6 28.1 9.7 C 28.1 9.8 28.1 10 28.1 10 C 28.1 10.1 28 10.2 28 10.3 C 28 10.3 27.9 10.4 27.9 10.5 C 27.8 10.5 27.8 10.6 27.7 10.6 C 27.6 10.6 27.6 10.7 27.5 10.7 C 27.4 10.7 27.3 10.7 27.2 10.7 Z M 29.8 10.3 C 29.9 10.1 29.9 9.8 30 9.5 C 30 9.2 30.1 9 30.1 8.9 C 30.1 8.8 30.1 8.8 30.1 8.8 C 30.1 8.7 30.1 8.7 30.1 8.7 C 30.2 8.7 30.2 8.7 30.3 8.7 C 30.3 8.7 30.3 8.7 30.3 8.7 C 30.3 8.8 30.3 8.8 30.3 8.9 C 30.3 8.9 30.3 9 30.3 9.1 C 30.2 9.3 30.2 9.5 30.1 9.8 C 30.1 10.1 30.1 10.3 30.1 10.4 C 30.1 10.4 30.1 10.5 30.1 10.5 C 30.1 10.6 30 10.6 30 10.6 C 30 10.7 29.9 10.7 29.9 10.7 C 29.9 10.7 29.8 10.7 29.8 10.7 C 29.8 10.7 29.8 10.6 29.8 10.6 C 29.7 10.6 29.7 10.5 29.7 10.5 C 29.7 10.5 29.7 10.4 29.6 10.4 C 29.4 10 29.1 9.7 28.9 9.3 C 28.9 9.5 28.8 9.8 28.8 10.1 C 28.8 10.1 28.7 10.4 28.7 10.4 C 28.7 10.4 28.7 10.4 28.7 10.5 C 28.7 10.6 28.7 10.6 28.7 10.6 C 28.7 10.6 28.7 10.7 28.7 10.7 C 28.6 10.7 28.6 10.7 28.6 10.7 C 28.5 10.7 28.5 10.7 28.5 10.7 C 28.5 10.6 28.5 10.6 28.5 10.6 C 28.5 10.5 28.5 10.4 28.5 10.2 C 28.6 10.1 28.6 9.9 28.7 9.6 C 28.7 9.3 28.8 9.1 28.8 9 C 28.8 9 28.7 8.9 28.7 8.9 C 28.7 8.9 28.8 8.9 28.8 8.9 C 28.8 8.8 28.8 8.8 28.8 8.8 C 28.8 8.8 28.9 8.8 28.9 8.8 C 28.9 8.8 28.9 8.8 29 8.8 C 29 8.8 29 8.8 29 8.9 C 29 8.9 29 8.9 29 9 C 29.1 9.1 29.2 9.4 29.4 9.7 C 29.5 9.9 29.7 10.2 29.8 10.3 Z M 31.1 8.9 C 31.1 8.9 31.1 9.1 31 9.3 C 31 9.4 31 9.4 31 9.5 C 31 9.6 31 9.6 31 9.7 C 30.9 9.9 30.9 10 30.9 10.1 C 30.9 10.2 30.9 10.4 30.9 10.5 C 30.9 10.6 30.9 10.6 30.9 10.6 C 30.9 10.7 30.8 10.7 30.8 10.7 C 30.7 10.7 30.7 10.7 30.7 10.6 C 30.7 10.6 30.7 10.5 30.7 10.3 C 30.7 10.2 30.7 10.1 30.7 9.8 C 30.7 9.8 30.7 9.7 30.7 9.7 C 30.7 9.7 30.7 9.6 30.7 9.6 C 30.8 9.6 30.8 9.5 30.8 9.5 C 30.8 9.4 30.8 9.3 30.8 9.2 C 30.8 9.1 30.8 9 30.8 8.9 C 30.9 8.9 30.9 8.8 30.9 8.8 C 30.9 8.8 30.9 8.8 30.9 8.8 C 31 8.7 31 8.7 31 8.7 C 31 8.7 31.1 8.7 31.1 8.8 C 31.1 8.8 31.1 8.8 31.1 8.9 Z M 31.6 9.2 C 31.6 9.1 31.6 9.1 31.6 9.1 C 31.6 9 31.6 9 31.6 9 C 31.5 9 31.5 8.9 31.5 8.9 C 31.5 8.9 31.5 8.8 31.5 8.8 C 31.5 8.8 31.6 8.8 31.6 8.8 C 31.6 8.8 31.8 8.8 31.8 8.8 C 31.9 8.8 32 8.8 32.1 8.7 C 32.3 8.7 32.4 8.7 32.4 8.7 C 32.7 8.7 32.9 8.8 33 8.9 C 33.2 9.1 33.3 9.2 33.3 9.5 C 33.3 9.7 33.2 9.9 32.9 10.1 C 32.7 10.3 32.4 10.5 32 10.6 C 31.9 10.6 31.8 10.7 31.7 10.7 C 31.7 10.7 31.6 10.8 31.5 10.8 C 31.5 10.8 31.5 10.7 31.5 10.7 C 31.4 10.7 31.4 10.6 31.4 10.6 C 31.4 10.6 31.4 10.6 31.4 10.6 C 31.5 10.5 31.5 10.5 31.5 10.4 C 31.5 10.4 31.5 10.3 31.5 10.2 C 31.5 10.1 31.5 10 31.6 9.7 C 31.6 9.5 31.6 9.3 31.6 9.2 C 31.6 9.2 31.6 9.2 31.6 9.2 Z M 32 9 C 32 9 31.9 9 31.9 9 C 31.8 9.6 31.7 10 31.7 10.3 C 31.7 10.4 31.7 10.4 31.7 10.4 C 31.8 10.4 31.8 10.4 31.8 10.4 C 31.8 10.4 32 10.4 32.2 10.3 C 32.5 10.2 32.7 10.1 32.8 10 C 33 9.8 33 9.7 33 9.5 C 33 9.3 33 9.2 32.9 9.1 C 32.7 9 32.6 8.9 32.4 8.9 C 32.3 8.9 32.2 8.9 32 9 C 32 9 32 9 32 9 Z M 34.3 8.7 C 34.4 8.7 34.4 8.7 34.5 8.8 C 34.5 8.8 34.5 8.8 34.5 8.8 C 34.5 8.9 34.5 8.9 34.5 8.9 C 34.5 8.9 34.5 9 34.5 9 C 34.5 9.1 34.5 9.2 34.6 9.2 C 34.6 9.3 34.6 9.4 34.7 9.5 C 34.8 9.7 34.8 9.9 34.9 10.1 C 35 10.3 35.1 10.4 35.2 10.5 C 35.2 10.5 35.2 10.5 35.2 10.6 C 35.2 10.6 35.3 10.6 35.3 10.6 C 35.3 10.7 35.2 10.7 35.2 10.7 C 35.2 10.7 35.2 10.8 35.1 10.8 C 35 10.8 34.9 10.6 34.7 10.2 C 34.6 10.1 34.6 10 34.6 10 C 34.6 10 34.5 10 34.3 10.1 C 34.2 10.1 34.1 10.1 33.9 10.1 C 33.9 10.2 33.8 10.2 33.8 10.2 C 33.8 10.2 33.8 10.2 33.7 10.1 C 33.7 10.1 33.7 10.1 33.7 10.1 C 33.7 10.1 33.7 10.2 33.6 10.3 C 33.5 10.5 33.4 10.6 33.4 10.6 C 33.4 10.7 33.4 10.7 33.3 10.7 C 33.3 10.7 33.3 10.7 33.2 10.7 C 33.2 10.6 33.2 10.6 33.2 10.6 C 33.2 10.5 33.2 10.5 33.2 10.5 C 33.3 10.4 33.3 10.3 33.4 10.2 C 33.6 9.9 33.7 9.7 33.9 9.4 C 34.1 9.1 34.2 8.9 34.2 8.8 C 34.3 8.7 34.3 8.7 34.3 8.7 C 34.3 8.7 34.3 8.7 34.3 8.7 Z M 34.1 9.9 C 34.4 9.8 34.5 9.8 34.6 9.8 C 34.5 9.7 34.5 9.6 34.4 9.4 C 34.4 9.2 34.3 9.1 34.3 9.1 C 34.2 9.2 34.2 9.3 34.1 9.5 C 34.1 9.5 33.8 9.9 33.8 9.9 C 33.8 9.9 33.9 9.9 34 9.9 C 34 9.9 34.1 9.9 34.1 9.9 C 34.1 9.9 34.1 9.9 34.1 9.9 Z M 35.7 9.2 C 35.7 9.1 35.7 9.1 35.7 9.1 C 35.7 9 35.7 9 35.6 9 C 35.5 9 35.5 8.9 35.5 8.9 C 35.5 8.9 35.5 8.8 35.5 8.8 C 35.6 8.8 35.6 8.8 35.6 8.8 C 35.6 8.8 35.8 8.8 35.8 8.8 C 35.9 8.8 36 8.8 36.2 8.7 C 36.3 8.7 36.4 8.7 36.5 8.7 C 36.7 8.7 36.9 8.8 37.1 8.9 C 37.2 9.1 37.3 9.2 37.3 9.5 C 37.3 9.7 37.2 9.9 37 10.1 C 36.8 10.3 36.5 10.5 36.1 10.6 C 35.9 10.6 35.8 10.7 35.8 10.7 C 35.7 10.7 35.6 10.8 35.6 10.8 C 35.5 10.8 35.5 10.7 35.5 10.7 C 35.5 10.7 35.5 10.6 35.5 10.6 C 35.5 10.6 35.5 10.6 35.5 10.6 C 35.5 10.5 35.5 10.5 35.5 10.4 C 35.5 10.4 35.5 10.3 35.5 10.2 C 35.5 10.1 35.6 10 35.6 9.7 C 35.6 9.5 35.6 9.3 35.7 9.2 C 35.7 9.2 35.7 9.2 35.7 9.2 Z M 36 9 C 36 9 35.9 9 35.9 9 C 35.8 9.6 35.8 10 35.8 10.3 C 35.8 10.4 35.8 10.4 35.8 10.4 C 35.8 10.4 35.8 10.4 35.8 10.4 C 35.9 10.4 36 10.4 36.3 10.3 C 36.5 10.2 36.7 10.1 36.8 10 C 37 9.8 37.1 9.7 37.1 9.5 C 37.1 9.3 37 9.2 36.9 9.1 C 36.8 9 36.6 8.9 36.4 8.9 C 36.3 8.9 36.2 8.9 36 9 C 36 9 36 9 36 9 Z M 39 8.9 C 39 8.9 39 8.9 39 8.9 C 38.9 8.9 38.9 8.9 38.8 9 C 38.8 9 38.7 9 38.7 9 C 38.7 9 38.6 9 38.6 9 C 38.6 9 38.5 9 38.4 9 C 38.2 9 38.1 9 38.1 9 C 38 9.1 38 9.1 38 9.2 C 38 9.2 38 9.3 38 9.3 C 37.9 9.5 37.9 9.6 37.9 9.7 C 37.9 9.7 37.9 9.7 37.9 9.7 C 38 9.7 38.1 9.7 38.2 9.6 C 38.3 9.6 38.4 9.6 38.5 9.6 C 38.6 9.6 38.7 9.6 38.8 9.6 C 38.9 9.6 38.9 9.6 38.9 9.6 C 38.9 9.7 38.9 9.8 38.8 9.8 C 38.7 9.8 38.6 9.8 38.3 9.8 C 38.1 9.9 37.9 9.9 37.9 9.9 C 37.9 10 37.9 10 37.8 10.2 C 37.8 10.3 37.8 10.4 37.8 10.4 C 37.8 10.4 37.8 10.4 37.8 10.4 C 37.8 10.5 37.8 10.5 37.9 10.5 C 37.9 10.5 37.9 10.5 37.9 10.5 C 38 10.5 38 10.5 38.1 10.5 C 38.1 10.5 38.3 10.5 38.3 10.5 C 38.4 10.5 38.5 10.4 38.6 10.4 C 38.7 10.4 38.8 10.4 38.9 10.4 C 38.9 10.4 38.9 10.4 38.9 10.4 C 39 10.4 39 10.5 39 10.5 C 39 10.5 39 10.6 39 10.6 C 38.9 10.6 38.8 10.6 38.6 10.6 C 38.5 10.7 38.3 10.7 38 10.7 C 37.9 10.7 37.8 10.7 37.8 10.7 C 37.7 10.7 37.6 10.7 37.6 10.7 C 37.6 10.7 37.5 10.7 37.5 10.6 C 37.54 10.6 37.5 10.6 37.5 10.6 C 37.5 10.6 37.53 10.55 37.5 10.5 C 37.5 10.5 37.5 10.5 37.6 10.5 C 37.6 10.4 37.6 10.3 37.6 10.1 C 37.7 9.9 37.7 9.8 37.7 9.7 C 37.7 9.7 37.7 9.6 37.7 9.6 C 37.8 9.4 37.8 9.2 37.8 9.1 C 37.8 9.1 37.8 9 37.7 9 C 37.7 9 37.7 9 37.7 9 C 37.7 9 37.7 9 37.7 9 C 37.7 8.9 37.7 8.9 37.7 8.9 C 37.7 8.9 37.7 8.9 37.7 8.9 C 37.7 8.9 37.7 8.9 37.7 8.8 C 37.8 8.8 37.8 8.8 37.8 8.8 C 37.8 8.8 37.8 8.8 37.8 8.8 C 37.9 8.8 37.9 8.8 37.9 8.8 C 37.9 8.8 37.9 8.8 37.9 8.8 C 38 8.8 38.1 8.8 38.2 8.8 C 38.4 8.8 38.6 8.8 38.9 8.7 C 38.9 8.7 38.9 8.7 38.9 8.7 C 38.9 8.7 38.9 8.7 38.9 8.7 C 39 8.7 39 8.7 39.1 8.7 C 39.1 8.7 39.1 8.8 39.1 8.8 C 39.1 8.9 39.1 8.9 39.1 8.9 C 39.1 8.9 39 8.9 39 8.9 Z M 40.6 9.2 C 40.6 9.1 40.6 9.1 40.6 9.1 C 40.6 9 40.6 9 40.5 9 C 40.5 9 40.4 8.9 40.4 8.9 C 40.4 8.9 40.4 8.8 40.5 8.8 C 40.5 8.8 40.5 8.8 40.6 8.8 C 40.6 8.8 40.7 8.8 40.7 8.8 C 40.8 8.8 40.9 8.8 41.1 8.7 C 41.2 8.7 41.3 8.7 41.4 8.7 C 41.6 8.7 41.8 8.8 42 8.9 C 42.1 9.1 42.2 9.2 42.2 9.5 C 42.2 9.7 42.1 9.9 41.9 10.1 C 41.7 10.3 41.4 10.5 41 10.6 C 40.8 10.6 40.7 10.7 40.7 10.7 C 40.6 10.7 40.5 10.8 40.5 10.8 C 40.5 10.8 40.4 10.7 40.4 10.7 C 40.4 10.7 40.4 10.6 40.4 10.6 C 40.4 10.6 40.4 10.6 40.4 10.6 C 40.4 10.5 40.4 10.5 40.4 10.4 C 40.4 10.4 40.4 10.3 40.4 10.2 C 40.4 10.1 40.5 10 40.5 9.7 C 40.5 9.5 40.5 9.3 40.6 9.2 C 40.6 9.2 40.6 9.2 40.6 9.2 Z M 40.9 9 C 40.9 9 40.9 9 40.8 9 C 40.7 9.6 40.7 10 40.7 10.3 C 40.7 10.4 40.7 10.4 40.7 10.4 C 40.7 10.4 40.7 10.4 40.7 10.4 C 40.8 10.4 40.9 10.4 41.2 10.3 C 41.4 10.2 41.6 10.1 41.7 10 C 41.9 9.8 42 9.7 42 9.5 C 42 9.3 41.9 9.2 41.8 9.1 C 41.7 9 41.5 8.9 41.3 8.9 C 41.2 8.9 41.1 8.9 40.9 9 C 40.9 9 40.9 9 40.9 9 Z M 43.9 8.9 C 43.9 8.9 43.9 8.9 43.9 8.9 C 43.8 8.9 43.8 8.9 43.7 9 C 43.7 9 43.6 9 43.6 9 C 43.6 9 43.6 9 43.5 9 C 43.5 9 43.4 9 43.3 9 C 43.1 9 43 9 43 9 C 42.9 9.1 42.9 9.1 42.9 9.2 C 42.9 9.2 42.9 9.3 42.9 9.3 C 42.8 9.5 42.8 9.6 42.8 9.7 C 42.8 9.7 42.8 9.7 42.8 9.7 C 42.9 9.7 43 9.7 43.1 9.6 C 43.2 9.6 43.3 9.6 43.4 9.6 C 43.5 9.6 43.6 9.6 43.7 9.6 C 43.8 9.6 43.8 9.6 43.8 9.6 C 43.8 9.7 43.8 9.8 43.7 9.8 C 43.6 9.8 43.5 9.8 43.3 9.8 C 43 9.9 42.8 9.9 42.8 9.9 C 42.8 10 42.8 10 42.7 10.2 C 42.7 10.3 42.7 10.4 42.7 10.4 C 42.7 10.4 42.7 10.4 42.7 10.4 C 42.7 10.5 42.7 10.5 42.8 10.5 C 42.8 10.5 42.8 10.5 42.8 10.5 C 42.9 10.5 42.9 10.5 43 10.5 C 43 10.5 43.2 10.5 43.2 10.5 C 43.3 10.5 43.4 10.4 43.5 10.4 C 43.7 10.4 43.7 10.4 43.8 10.4 C 43.8 10.4 43.8 10.4 43.8 10.4 C 43.9 10.4 43.9 10.5 43.9 10.5 C 43.9 10.5 43.9 10.6 43.9 10.6 C 43.8 10.6 43.7 10.6 43.5 10.6 C 43.4 10.7 43.2 10.7 42.9 10.7 C 42.8 10.7 42.7 10.7 42.7 10.7 C 42.6 10.7 42.5 10.7 42.5 10.7 C 42.5 10.7 42.5 10.7 42.4 10.6 C 42.45 10.6 42.4 10.6 42.4 10.6 C 42.4 10.6 42.44 10.55 42.4 10.5 C 42.4 10.5 42.5 10.5 42.5 10.5 C 42.5 10.4 42.5 10.3 42.5 10.1 C 42.6 9.9 42.6 9.8 42.6 9.7 C 42.6 9.7 42.6 9.6 42.6 9.6 C 42.7 9.4 42.7 9.2 42.7 9.1 C 42.7 9.1 42.7 9 42.7 9 C 42.6 9 42.6 9 42.6 9 C 42.6 9 42.6 9 42.6 9 C 42.6 8.9 42.6 8.9 42.6 8.9 C 42.6 8.9 42.6 8.9 42.6 8.9 C 42.6 8.9 42.6 8.9 42.7 8.8 C 42.7 8.8 42.7 8.8 42.7 8.8 C 42.7 8.8 42.7 8.8 42.7 8.8 C 42.8 8.8 42.8 8.8 42.9 8.8 C 42.9 8.8 42.9 8.8 42.9 8.8 C 42.9 8.8 43 8.8 43.2 8.8 C 43.3 8.8 43.5 8.8 43.8 8.7 C 43.8 8.7 43.8 8.7 43.8 8.7 C 43.8 8.7 43.8 8.7 43.8 8.7 C 43.9 8.7 44 8.7 44 8.7 C 44 8.7 44 8.8 44 8.8 C 44 8.9 44 8.9 44 8.9 C 44 8.9 44 8.9 43.9 8.9 Z M 47.2 9.1 C 47.2 9.1 47.2 9.1 47.2 9.1 C 47.1 9.2 46.9 9.4 46.8 9.6 C 46.6 9.9 46.4 10 46.4 10.1 C 46.3 10.2 46.2 10.2 46.2 10.2 C 46.2 10.2 46.1 10.2 46.1 10.1 C 46.1 10.1 46 9.9 46 9.8 C 45.8 9.4 45.8 9.3 45.7 9.2 C 45.7 9.2 45.7 9.3 45.7 9.4 C 45.7 9.5 45.6 9.7 45.6 9.9 C 45.5 10.3 45.5 10.5 45.4 10.7 C 45.4 10.7 45.4 10.7 45.4 10.7 C 45.4 10.7 45.3 10.7 45.3 10.7 C 45.3 10.7 45.3 10.7 45.2 10.7 C 45.2 10.7 45.2 10.6 45.2 10.6 C 45.2 10.5 45.2 10.4 45.3 10.2 C 45.3 10.2 45.4 9.8 45.4 9.8 C 45.5 9.5 45.5 9.3 45.5 9.2 C 45.5 9 45.6 8.9 45.6 8.9 C 45.6 8.8 45.6 8.7 45.7 8.7 C 45.8 8.7 45.8 8.8 45.8 8.8 C 45.8 8.8 45.9 8.9 45.9 8.9 C 45.9 9 45.9 9 45.9 9 C 45.9 9 46.1 9.5 46.1 9.5 C 46.2 9.7 46.2 9.8 46.2 9.9 C 46.2 9.9 46.2 9.9 46.3 9.9 C 46.3 9.9 46.5 9.7 46.7 9.3 C 47 8.9 47.2 8.7 47.2 8.7 C 47.3 8.7 47.3 8.7 47.4 8.7 C 47.4 8.8 47.4 8.8 47.4 8.8 C 47.4 8.8 47.4 9 47.4 9.4 C 47.3 9.5 47.3 9.7 47.3 9.9 C 47.3 10.1 47.3 10.2 47.3 10.2 C 47.3 10.3 47.3 10.3 47.3 10.4 C 47.3 10.4 47.3 10.5 47.3 10.5 C 47.3 10.5 47.3 10.6 47.3 10.6 C 47.3 10.6 47.3 10.7 47.3 10.7 C 47.2 10.7 47.2 10.7 47.2 10.7 C 47.1 10.7 47 10.6 47 10.5 C 47 10.3 47.1 10 47.1 9.4 C 47.1 9.4 47.1 9.4 47.1 9.3 C 47.1 9.3 47.1 9.3 47.2 9.3 C 47.2 9.2 47.2 9.2 47.2 9.1 C 47.2 9.1 47.2 9.1 47.2 9.1 Z M 48.5 10.7 C 48.4 10.7 48.3 10.7 48.2 10.6 C 48.1 10.6 48 10.5 47.9 10.4 C 47.8 10.2 47.8 10.1 47.8 9.9 C 47.8 9.8 47.8 9.6 47.9 9.4 C 47.9 9.3 47.9 9.3 47.9 9.2 C 47.9 9 47.9 8.9 48 8.8 C 48 8.8 48 8.8 48 8.8 C 48 8.7 48.1 8.7 48.1 8.7 C 48.1 8.7 48.1 8.7 48.2 8.8 C 48.2 8.8 48.2 8.9 48.2 8.9 C 48.2 8.9 48.2 9 48.1 9.1 C 48.1 9.2 48.1 9.3 48.1 9.5 C 48 9.7 48 9.8 48 9.9 C 48 10.1 48.1 10.3 48.2 10.4 C 48.3 10.5 48.4 10.5 48.5 10.5 C 48.6 10.5 48.8 10.5 48.9 10.4 C 49 10.4 49.1 10.3 49.1 10.2 C 49.2 10.1 49.2 9.8 49.2 9.5 C 49.3 9.2 49.3 9 49.3 8.9 C 49.3 8.8 49.4 8.8 49.5 8.8 C 49.5 8.8 49.5 8.8 49.5 8.9 C 49.5 9 49.5 9.1 49.5 9.3 C 49.5 9.4 49.5 9.6 49.4 9.7 C 49.4 9.8 49.4 10 49.4 10 C 49.4 10.1 49.4 10.2 49.3 10.3 C 49.3 10.3 49.2 10.4 49.2 10.5 C 49.1 10.5 49.1 10.6 49 10.6 C 49 10.6 48.9 10.7 48.8 10.7 C 48.7 10.7 48.6 10.7 48.5 10.7 Z M 50 9.2 C 50 9.1 50 9.1 50 9.1 C 50 9 50 9 50 9 C 49.9 9 49.9 8.9 49.9 8.9 C 49.9 8.9 49.9 8.8 49.9 8.8 C 49.9 8.8 50 8.8 50 8.8 C 50 8.8 50.2 8.8 50.2 8.8 C 50.3 8.8 50.4 8.8 50.5 8.7 C 50.7 8.7 50.8 8.7 50.8 8.7 C 51.1 8.7 51.3 8.8 51.4 8.9 C 51.6 9.1 51.6 9.2 51.6 9.5 C 51.6 9.7 51.5 9.9 51.3 10.1 C 51.1 10.3 50.8 10.5 50.4 10.6 C 50.3 10.6 50.2 10.7 50.1 10.7 C 50 10.7 50 10.8 49.9 10.8 C 49.9 10.8 49.9 10.7 49.8 10.7 C 49.8 10.7 49.8 10.6 49.8 10.6 C 49.8 10.6 49.8 10.6 49.8 10.6 C 49.9 10.5 49.9 10.5 49.9 10.4 C 49.9 10.4 49.9 10.3 49.9 10.2 C 49.9 10.1 49.9 10 49.9 9.7 C 50 9.5 50 9.3 50 9.2 C 50 9.2 50 9.2 50 9.2 Z M 50.4 9 C 50.3 9 50.3 9 50.3 9 C 50.2 9.6 50.1 10 50.1 10.3 C 50.1 10.4 50.1 10.4 50.1 10.4 C 50.1 10.4 50.2 10.4 50.2 10.4 C 50.2 10.4 50.4 10.4 50.6 10.3 C 50.9 10.2 51 10.1 51.2 10 C 51.3 9.8 51.4 9.7 51.4 9.5 C 51.4 9.3 51.4 9.2 51.2 9.1 C 51.1 9 51 8.9 50.8 8.9 C 50.7 8.9 50.5 8.9 50.4 9 C 50.4 9 50.4 9 50.4 9 Z M 52.7 8.7 C 52.8 8.7 52.8 8.7 52.9 8.8 C 52.9 8.8 52.9 8.8 52.9 8.8 C 52.9 8.9 52.9 8.9 52.9 8.9 C 52.9 8.9 52.9 9 52.9 9 C 52.9 9.1 52.9 9.2 53 9.2 C 53 9.3 53 9.4 53.1 9.5 C 53.1 9.7 53.2 9.9 53.3 10.1 C 53.4 10.3 53.5 10.4 53.5 10.5 C 53.6 10.5 53.6 10.5 53.6 10.6 C 53.6 10.6 53.6 10.6 53.6 10.6 C 53.6 10.7 53.6 10.7 53.6 10.7 C 53.6 10.7 53.5 10.8 53.5 10.8 C 53.4 10.8 53.3 10.6 53.1 10.2 C 53 10.1 53 10 53 10 C 52.9 10 52.9 10 52.7 10.1 C 52.6 10.1 52.4 10.1 52.3 10.1 C 52.3 10.2 52.2 10.2 52.2 10.2 C 52.2 10.2 52.2 10.2 52.1 10.1 C 52.1 10.1 52.1 10.1 52.1 10.1 C 52.1 10.1 52.1 10.2 52 10.3 C 51.9 10.5 51.8 10.6 51.8 10.6 C 51.8 10.7 51.7 10.7 51.7 10.7 C 51.7 10.7 51.7 10.7 51.6 10.7 C 51.6 10.6 51.6 10.6 51.6 10.6 C 51.6 10.5 51.6 10.5 51.6 10.5 C 51.6 10.4 51.7 10.3 51.8 10.2 C 52 9.9 52.1 9.7 52.3 9.4 C 52.4 9.1 52.6 8.9 52.6 8.8 C 52.7 8.7 52.7 8.7 52.7 8.7 C 52.7 8.7 52.7 8.7 52.7 8.7 Z M 52.5 9.9 C 52.8 9.8 52.9 9.8 52.9 9.8 C 52.9 9.7 52.9 9.6 52.8 9.4 C 52.7 9.2 52.7 9.1 52.7 9.1 C 52.6 9.2 52.6 9.3 52.5 9.5 C 52.5 9.5 52.2 9.9 52.2 9.9 C 52.2 9.9 52.3 9.9 52.4 9.9 C 52.4 9.9 52.5 9.9 52.5 9.9 C 52.5 9.9 52.5 9.9 52.5 9.9 Z M 54.2 8.8 C 54.5 8.7 54.7 8.7 54.8 8.7 C 55 8.7 55.1 8.8 55.2 8.8 C 55.3 8.9 55.4 9 55.4 9.2 C 55.4 9.3 55.3 9.4 55.2 9.6 C 55.1 9.7 54.9 9.8 54.8 9.8 C 54.7 9.8 54.7 9.8 54.7 9.9 C 54.7 9.9 54.8 10 55 10.1 C 55.2 10.2 55.4 10.3 55.5 10.4 C 55.5 10.5 55.6 10.5 55.6 10.5 C 55.6 10.6 55.6 10.6 55.5 10.6 C 55.5 10.7 55.5 10.7 55.4 10.7 C 55.4 10.7 55.3 10.6 55.2 10.5 C 55.1 10.5 55 10.4 54.8 10.3 C 54.6 10 54.4 9.9 54.4 9.9 C 54.3 9.9 54.3 9.9 54.3 9.9 C 54.2 9.9 54.2 9.9 54.2 9.8 C 54.2 9.8 54.3 9.8 54.3 9.7 C 54.3 9.7 54.4 9.7 54.4 9.7 C 54.4 9.7 54.4 9.7 54.5 9.7 C 54.5 9.7 54.5 9.7 54.5 9.7 C 54.6 9.7 54.7 9.7 54.9 9.5 C 55.1 9.4 55.2 9.3 55.2 9.2 C 55.2 9.1 55.1 9 55 9 C 55 8.9 54.9 8.9 54.7 8.9 C 54.7 8.9 54.6 8.9 54.5 8.9 C 54.4 8.9 54.3 8.9 54.3 9 C 54.3 9 54.3 9 54.3 9 C 54.2 9.1 54.2 9.2 54.2 9.4 C 54.1 9.6 54.1 9.8 54.1 9.9 C 54.1 10.1 54.1 10.2 54.1 10.3 C 54.1 10.4 54.1 10.4 54.1 10.5 C 54.1 10.5 54.1 10.6 54.1 10.6 C 54.1 10.6 54.1 10.6 54.1 10.7 C 54 10.7 54 10.7 54 10.7 C 53.9 10.7 53.8 10.6 53.8 10.5 C 53.8 10.1 53.9 9.7 54 9.1 C 54 9.1 54 9 54 9 C 54 9 54 9 54 9 C 54 8.9 54 8.9 54 8.9 C 54 8.9 54 8.8 54 8.8 C 54 8.8 54.1 8.8 54.1 8.8 C 54.1 8.8 54.2 8.8 54.2 8.8 Z " stroke="none" fill="#000"/>  </g>  <g id="Polygon14472">    <path d="M 17.6 2.1 C 17.6 2.1 17.6 2.1 17.6 2.1 C 17.6 2.1 17.6 2.2 17.4 2.3 C 17.3 2.6 17.2 2.8 17.1 2.9 C 17 3.1 16.8 3.4 16.5 3.8 C 16.4 4.1 16.3 4.2 16.2 4.3 C 16.1 4.5 16 4.7 16 4.8 C 16 4.8 15.9 4.9 15.8 4.9 C 15.7 5 15.7 5 15.6 5 C 15.5 5 15.5 5 15.4 4.9 C 15.4 4.8 15.3 4.7 15.3 4.5 C 15.2 4.3 15 3.9 14.9 3.5 C 14.6 2.7 14.4 2.3 14.4 2.3 C 14.4 2.2 14.4 2.2 14.5 2.1 C 14.5 2 14.6 2 14.7 2 C 14.8 2 14.8 2 14.9 2 C 14.9 2.1 15 2.2 15 2.5 C 15 2.6 15.1 2.9 15.3 3.3 C 15.5 3.8 15.6 4.1 15.7 4.3 C 15.7 4.3 15.8 4.2 15.9 4.1 C 15.9 4 15.9 4 15.9 4 C 16.1 3.7 16.2 3.4 16.4 3.2 C 16.6 2.7 16.8 2.4 17 2.2 C 17.1 1.9 17.3 1.8 17.4 1.8 C 17.5 1.8 17.6 1.9 17.6 2.1 C 17.61 2.05 17.6 2.1 17.6 2.1 C 17.6 2.1 17.61 2.07 17.6 2.1 Z M 19.3 3.9 C 19.2 4.2 19 4.5 18.7 4.7 C 18.5 5 18.2 5.1 17.9 5.1 C 17.7 5.1 17.6 5 17.4 4.8 C 17.3 4.7 17.2 4.5 17.2 4.3 C 17.2 3.9 17.4 3.6 17.6 3.2 C 17.8 2.9 18.1 2.7 18.5 2.7 C 18.7 2.7 18.9 2.8 19.1 3 C 19.2 3.1 19.3 3.3 19.3 3.6 C 19.3 3.7 19.3 3.8 19.3 3.9 C 19.3 3.9 19.3 3.9 19.3 3.9 Z M 18.2 3.2 C 18.1 3.3 18 3.5 17.9 3.7 C 17.8 3.8 17.7 4 17.7 4.2 C 17.7 4.3 17.8 4.4 17.8 4.5 C 17.9 4.6 17.9 4.6 18 4.6 C 18.2 4.6 18.3 4.5 18.5 4.3 C 18.7 4.1 18.8 3.9 18.8 3.6 C 18.8 3.5 18.8 3.4 18.7 3.3 C 18.7 3.2 18.6 3.1 18.5 3.1 C 18.4 3.1 18.3 3.2 18.2 3.2 C 18.2 3.2 18.2 3.2 18.2 3.2 Z M 20.5 3.3 C 20.5 3.3 20.4 3.4 20.4 3.7 C 20.3 4 20.3 4.2 20.3 4.3 C 20.3 4.4 20.3 4.5 20.3 4.5 C 20.3 4.6 20.4 4.6 20.4 4.6 C 20.5 4.6 20.6 4.6 20.6 4.6 C 20.7 4.5 20.8 4.5 20.9 4.4 C 21 4.3 21.1 4.3 21.1 4.3 C 21.2 4.3 21.2 4.3 21.2 4.3 C 21.2 4.4 21.3 4.4 21.3 4.4 C 21.3 4.5 21.2 4.7 21 4.8 C 20.8 5 20.5 5.1 20.3 5.1 C 20.1 5.1 20 5 19.9 4.9 C 19.8 4.8 19.8 4.6 19.8 4.4 C 19.8 4.2 19.8 3.9 20 3.3 C 19.9 3.3 19.8 3.3 19.8 3.3 C 19.8 3.3 19.7 3.3 19.7 3.3 C 19.7 3.3 19.6 3.3 19.5 3.2 C 19.5 3.2 19.4 3.1 19.4 3 C 19.4 2.9 19.5 2.9 19.6 2.9 C 19.6 2.9 20.1 2.9 20.1 2.9 C 20.1 2.7 20.2 2.5 20.3 2.2 C 20.3 2 20.4 1.9 20.5 1.9 C 20.6 1.9 20.7 2 20.7 2 C 20.8 2 20.8 2.1 20.8 2.2 C 20.8 2.2 20.7 2.4 20.6 2.8 C 21.1 2.8 21.3 2.7 21.3 2.7 C 21.4 2.7 21.5 2.8 21.5 2.8 C 21.5 2.8 21.5 2.8 21.5 2.9 C 21.5 3 21.4 3.1 21.2 3.1 C 21.2 3.1 20.5 3.3 20.5 3.3 Z M 23.5 3.9 C 23.4 4.2 23.3 4.5 23 4.7 C 22.7 5 22.5 5.1 22.2 5.1 C 22 5.1 21.8 5 21.7 4.8 C 21.6 4.7 21.5 4.5 21.5 4.3 C 21.5 3.9 21.6 3.6 21.9 3.2 C 22.1 2.9 22.4 2.7 22.8 2.7 C 23 2.7 23.2 2.8 23.4 3 C 23.5 3.1 23.6 3.3 23.6 3.6 C 23.6 3.7 23.6 3.8 23.5 3.9 C 23.5 3.9 23.5 3.9 23.5 3.9 Z M 22.4 3.2 C 22.3 3.3 22.3 3.5 22.2 3.7 C 22.1 3.8 22 4 22 4.2 C 22 4.3 22 4.4 22.1 4.5 C 22.1 4.6 22.2 4.6 22.3 4.6 C 22.4 4.6 22.6 4.5 22.8 4.3 C 23 4.1 23.1 3.9 23.1 3.6 C 23.1 3.5 23 3.4 23 3.3 C 22.9 3.2 22.8 3.1 22.7 3.1 C 22.6 3.1 22.5 3.2 22.4 3.2 C 22.4 3.2 22.4 3.2 22.4 3.2 Z M 25.7 4.6 C 25.7 4.6 25.7 4.4 25.7 4.3 C 25.8 3.8 25.8 3.3 25.9 2.7 C 25.9 2.6 26 2.5 26 2.5 C 26 2.4 25.9 2.4 25.9 2.4 C 25.8 2.4 25.7 2.3 25.7 2.2 C 25.7 2.2 25.7 2.1 25.8 2 C 25.8 2 25.9 2 26 2 C 26 2 26.3 2 26.3 2 C 26.4 2 26.6 2 26.8 1.9 C 27 1.9 27.1 1.9 27.3 1.9 C 27.7 1.9 28 2 28.2 2.2 C 28.5 2.5 28.6 2.7 28.6 3.1 C 28.6 3.5 28.4 3.9 28 4.2 C 27.6 4.5 27.2 4.8 26.7 4.9 C 26.5 4.9 26.4 4.9 26.4 5 C 26.3 5 26.2 5 26.2 5.1 C 26.1 5.1 26 5.2 25.9 5.2 C 25.8 5.2 25.7 5.1 25.7 5.1 C 25.6 5 25.6 4.9 25.6 4.9 C 25.6 4.9 25.6 4.8 25.7 4.8 C 25.7 4.8 25.7 4.6 25.7 4.6 Z M 26.2 4.4 C 26.2 4.4 26.2 4.5 26.3 4.5 C 26.3 4.5 26.5 4.5 26.9 4.4 C 27.2 4.3 27.5 4.1 27.7 3.9 C 28 3.6 28.1 3.4 28.1 3.1 C 28.1 2.9 28 2.7 27.8 2.5 C 27.7 2.4 27.5 2.3 27.2 2.3 C 27 2.3 26.8 2.4 26.5 2.4 C 26.5 2.4 26.5 2.4 26.5 2.4 C 26.3 3.3 26.2 4 26.2 4.4 C 26.2 4.4 26.2 4.4 26.2 4.4 Z M 30 1.8 C 30 1.9 30 2 29.9 2.1 C 29.8 2.2 29.7 2.2 29.7 2.2 C 29.6 2.2 29.5 2.2 29.4 2.1 C 29.4 2 29.3 2 29.3 1.9 C 29.3 1.8 29.4 1.7 29.4 1.7 C 29.5 1.6 29.6 1.6 29.7 1.6 C 29.8 1.6 29.9 1.6 29.9 1.6 C 30 1.7 30 1.8 30 1.8 Z M 29 3.8 C 29 3.7 29 3.6 29 3.6 C 29 3.6 29 3.6 29 3.6 C 29.1 3.3 29.1 3.2 29.1 3.1 C 29.1 3 29.1 2.9 29.2 2.9 C 29.2 2.8 29.3 2.8 29.3 2.8 C 29.4 2.8 29.5 2.8 29.6 2.8 C 29.6 2.9 29.6 2.9 29.6 3 C 29.6 3 29.6 3.2 29.6 3.3 C 29.6 3.3 29.6 3.4 29.6 3.4 C 29.5 3.7 29.4 3.9 29.4 4 C 29.4 4.2 29.4 4.4 29.4 4.5 C 29.4 4.6 29.4 4.7 29.4 4.8 C 29.4 4.8 29.4 4.9 29.4 4.9 C 29.4 4.9 29.4 4.9 29.4 5 C 29.3 5.1 29.2 5.1 29.2 5.1 C 29 5.1 28.9 4.9 28.9 4.7 C 28.9 4.4 28.9 4.1 29 3.8 C 29 3.8 29 3.8 29 3.8 Z M 31 4.4 C 31 4.4 30.9 4.3 30.6 4.2 C 30.4 4 30.2 3.9 30.1 3.8 C 30 3.7 30 3.6 30 3.5 C 30 3.2 30.1 3 30.4 2.8 C 30.7 2.6 30.9 2.5 31.2 2.5 C 31.4 2.5 31.5 2.6 31.5 2.9 C 31.5 2.9 31.5 3 31.4 3 C 31.4 3 31.3 3.1 31.3 3.1 C 31.3 3.1 31.3 3.1 31.2 3 C 31.2 3 31.2 3 31.1 3 C 31 3 30.9 3 30.7 3.1 C 30.6 3.2 30.5 3.3 30.5 3.4 C 30.5 3.5 30.5 3.5 30.6 3.6 C 30.6 3.6 30.7 3.7 30.9 3.8 C 31.1 3.9 31.3 4 31.4 4.1 C 31.5 4.2 31.5 4.3 31.5 4.4 C 31.5 4.6 31.4 4.8 31.1 4.9 C 30.8 5 30.5 5.1 30.2 5.1 C 29.9 5.1 29.8 5 29.8 4.8 C 29.8 4.8 29.8 4.7 29.8 4.7 C 29.9 4.6 30 4.6 30 4.6 C 30.1 4.6 30.1 4.6 30.2 4.6 C 30.2 4.6 30.3 4.7 30.3 4.7 C 30.4 4.7 30.6 4.6 30.7 4.6 C 30.9 4.6 31 4.5 31 4.4 Z M 32.6 3.3 C 32.6 3.3 32.6 3.4 32.5 3.7 C 32.4 4 32.4 4.2 32.4 4.3 C 32.4 4.4 32.4 4.5 32.4 4.5 C 32.5 4.6 32.5 4.6 32.6 4.6 C 32.6 4.6 32.7 4.6 32.8 4.6 C 32.9 4.5 32.9 4.5 33.1 4.4 C 33.1 4.3 33.2 4.3 33.2 4.3 C 33.3 4.3 33.3 4.3 33.3 4.3 C 33.4 4.4 33.4 4.4 33.4 4.4 C 33.4 4.5 33.3 4.7 33.1 4.8 C 32.9 5 32.7 5.1 32.5 5.1 C 32.3 5.1 32.1 5 32 4.9 C 31.9 4.8 31.9 4.6 31.9 4.4 C 31.9 4.2 32 3.9 32.1 3.3 C 32 3.3 31.9 3.3 31.9 3.3 C 31.9 3.3 31.9 3.3 31.9 3.3 C 31.8 3.3 31.7 3.3 31.7 3.2 C 31.6 3.2 31.6 3.1 31.6 3 C 31.6 2.9 31.6 2.9 31.8 2.9 C 31.8 2.9 32.2 2.9 32.2 2.9 C 32.3 2.7 32.3 2.5 32.4 2.2 C 32.4 2 32.5 1.9 32.7 1.9 C 32.7 1.9 32.8 2 32.9 2 C 32.9 2 32.9 2.1 32.9 2.2 C 32.9 2.2 32.9 2.4 32.7 2.8 C 33.2 2.8 33.4 2.7 33.5 2.7 C 33.5 2.7 33.6 2.8 33.6 2.8 C 33.6 2.8 33.7 2.8 33.7 2.9 C 33.7 3 33.6 3.1 33.3 3.1 C 33.3 3.1 32.6 3.3 32.6 3.3 Z M 34.2 3.9 C 34.2 3.9 34.24 3.86 34.2 3.9 C 34.4 3.5 34.6 3.2 34.8 3 C 35 2.8 35.2 2.7 35.4 2.7 C 35.5 2.7 35.6 2.8 35.7 2.8 C 35.8 2.9 35.9 3 35.9 3.1 C 35.9 3.2 35.8 3.2 35.8 3.3 C 35.8 3.3 35.7 3.4 35.7 3.4 C 35.6 3.4 35.5 3.3 35.4 3.2 C 35.4 3.2 35.3 3.2 35.3 3.2 C 35.2 3.2 35 3.3 34.8 3.7 C 34.5 4 34.4 4.4 34.3 4.8 C 34.3 4.9 34.3 5 34.2 5 C 34.2 5.1 34.1 5.1 34 5.1 C 33.9 5.1 33.9 5 33.8 4.9 C 33.8 4.8 33.8 4.6 33.8 4.4 C 33.8 4.3 33.8 4.1 33.8 4 C 33.8 3.8 33.8 3.6 33.8 3.4 C 33.8 3.3 33.8 3.3 33.8 3.2 C 33.8 3.1 33.9 3 33.9 2.9 C 33.9 2.9 33.9 2.8 34 2.8 C 34 2.8 34.1 2.7 34.2 2.7 C 34.3 2.7 34.3 2.8 34.4 2.8 C 34.4 2.8 34.4 2.9 34.4 2.9 C 34.4 3 34.4 3.1 34.3 3.3 C 34.3 3.4 34.3 3.5 34.3 3.6 C 34.26 3.61 34.2 3.9 34.2 3.9 Z M 37 1.8 C 37 1.9 36.9 2 36.9 2.1 C 36.8 2.2 36.7 2.2 36.6 2.2 C 36.5 2.2 36.5 2.2 36.4 2.1 C 36.3 2 36.3 2 36.3 1.9 C 36.3 1.8 36.3 1.7 36.4 1.7 C 36.5 1.6 36.6 1.6 36.7 1.6 C 36.8 1.6 36.8 1.6 36.9 1.6 C 37 1.7 37 1.8 37 1.8 Z M 35.9 3.8 C 36 3.7 36 3.6 36 3.6 C 36 3.6 36 3.6 36 3.6 C 36 3.3 36 3.2 36 3.1 C 36 3 36.1 2.9 36.1 2.9 C 36.2 2.8 36.2 2.8 36.3 2.8 C 36.4 2.8 36.5 2.8 36.5 2.8 C 36.6 2.9 36.6 2.9 36.6 3 C 36.6 3 36.6 3.2 36.5 3.3 C 36.5 3.3 36.5 3.4 36.5 3.4 C 36.4 3.7 36.4 3.9 36.4 4 C 36.4 4.2 36.4 4.4 36.4 4.5 C 36.4 4.6 36.4 4.7 36.4 4.8 C 36.4 4.8 36.4 4.9 36.4 4.9 C 36.4 4.9 36.4 4.9 36.3 5 C 36.2 5.1 36.2 5.1 36.1 5.1 C 35.9 5.1 35.8 4.9 35.8 4.7 C 35.8 4.4 35.9 4.1 35.9 3.8 C 35.9 3.8 35.9 3.8 35.9 3.8 Z M 37.8 3.3 C 37.8 3.3 37.8 3.4 37.7 3.7 C 37.7 4 37.6 4.2 37.6 4.3 C 37.6 4.4 37.6 4.5 37.7 4.5 C 37.7 4.6 37.7 4.6 37.8 4.6 C 37.9 4.6 37.9 4.6 38 4.6 C 38.1 4.5 38.2 4.5 38.3 4.4 C 38.4 4.3 38.4 4.3 38.5 4.3 C 38.5 4.3 38.5 4.3 38.6 4.3 C 38.6 4.4 38.6 4.4 38.6 4.4 C 38.6 4.5 38.5 4.7 38.3 4.8 C 38.1 5 37.9 5.1 37.7 5.1 C 37.5 5.1 37.3 5 37.3 4.9 C 37.2 4.8 37.1 4.6 37.1 4.4 C 37.1 4.2 37.2 3.9 37.3 3.3 C 37.2 3.3 37.2 3.3 37.1 3.3 C 37.1 3.3 37.1 3.3 37.1 3.3 C 37 3.3 37 3.3 36.9 3.2 C 36.8 3.2 36.8 3.1 36.8 3 C 36.8 2.9 36.9 2.9 37 2.9 C 37 2.9 37.4 2.9 37.4 2.9 C 37.5 2.7 37.6 2.5 37.6 2.2 C 37.7 2 37.8 1.9 37.9 1.9 C 38 1.9 38 2 38.1 2 C 38.1 2 38.1 2.1 38.1 2.2 C 38.1 2.2 38.1 2.4 38 2.8 C 38.4 2.8 38.7 2.7 38.7 2.7 C 38.8 2.7 38.8 2.8 38.8 2.8 C 38.9 2.8 38.9 2.8 38.9 2.9 C 38.9 3 38.8 3.1 38.6 3.1 C 38.6 3.1 37.8 3.3 37.8 3.3 Z M 40.7 5.1 C 40.4 5.1 40.3 4.8 40.3 4.3 C 40 4.8 39.6 5 39.3 5 C 39.1 5 39 4.9 38.9 4.8 C 38.9 4.8 38.8 4.6 38.8 4.5 C 38.8 4.1 39 3.7 39.3 3.3 C 39.6 2.9 40 2.6 40.3 2.6 C 40.5 2.6 40.6 2.7 40.6 2.9 C 40.8 2.9 40.9 3 40.9 3.1 C 40.9 3.2 40.9 3.3 40.8 3.4 C 40.8 3.7 40.8 3.9 40.8 4.1 C 40.8 4.3 40.8 4.4 40.8 4.5 C 40.8 4.6 40.8 4.6 40.9 4.6 C 40.9 4.7 40.9 4.7 41 4.7 C 41 4.7 41 4.8 41 4.8 C 41 4.9 41 4.9 40.9 5 C 40.9 5 40.8 5.1 40.7 5.1 C 40.7 5.1 40.7 5.1 40.7 5.1 Z M 40.2 3.1 C 40.1 3.1 39.9 3.3 39.7 3.6 C 39.4 3.9 39.3 4.2 39.3 4.4 C 39.3 4.5 39.4 4.5 39.4 4.5 C 39.6 4.5 39.8 4.4 40 4.1 C 40.3 3.8 40.4 3.5 40.4 3.3 C 40.4 3.3 40.4 3.2 40.3 3.2 C 40.3 3.1 40.3 3.1 40.2 3.1 Z M 43.4 4.9 C 43.4 4.9 43.3 4.9 43.3 4.9 C 43.2 4.9 43.1 4.8 43.1 4.8 C 42.7 4.8 42.3 4.9 42 5 C 41.8 5.1 41.7 5.1 41.6 5.1 C 41.6 5.1 41.5 5.1 41.4 5 C 41.4 4.9 41.4 4.9 41.4 4.8 C 41.4 4.8 41.4 4.7 41.4 4.6 C 41.4 4.5 41.5 4.3 41.5 4.2 C 41.5 4.2 41.7 2.4 41.7 2.4 C 41.7 2.2 41.7 2.1 41.7 2.1 C 41.7 2 41.8 2 41.8 2 C 41.9 1.9 41.9 1.9 42 1.9 C 42.1 1.9 42.1 1.9 42.2 2 C 42.2 2 42.3 2.1 42.3 2.1 C 42.3 2.2 42.2 2.3 42.2 2.4 C 42.2 2.6 42.1 3 42.1 3.6 C 42 4.1 42 4.4 42 4.4 C 42 4.5 42 4.5 42 4.5 C 42 4.5 42.2 4.5 42.4 4.5 C 42.5 4.4 42.7 4.4 42.8 4.4 C 43.1 4.4 43.3 4.4 43.5 4.3 C 43.5 4.3 43.5 4.3 43.6 4.3 C 43.6 4.3 43.7 4.4 43.7 4.4 C 43.8 4.4 43.8 4.5 43.8 4.6 C 43.8 4.7 43.8 4.7 43.7 4.8 C 43.6 4.8 43.5 4.9 43.4 4.9 Z " stroke="none" fill="#000"/>  </g></svg>