<?xml version="1.0" standalone="no"?><!DOCTYPE svg PUBLIC "-//W3C//DTD SVG 1.1//EN" "http://www.w3.org/Graphics/SVG/1.1/DTD/svg11.dtd"><svg xmlns="http://www.w3.org/2000/svg" version="1.1" width="81px" height="22.9px" viewBox="0 -1 81 22.9" style="top:-1px">  <desc>S COM O VOTO DISTRITAL PODEMOS TER MAIS SEGURAN A, MAIS SA DE, MAIS OPORTUNIDADES PRA N S E PARA NOSSOS FILHOS!</desc>  <defs/>  <g id="Polygon14216">    <path d="M 14 14.4 C 13.9 14.4 13.8 14.4 13.8 14.4 C 13.7 14.6 13.7 14.8 13.7 15 C 13.7 15 13.7 15.1 13.7 15.1 C 13.6 15.1 13.6 15.2 13.5 15.2 C 13.4 15.2 13.4 15.1 13.4 15 C 13.4 14.9 13.4 14.6 13.5 14.2 C 13.5 13.8 13.5 13.6 13.5 13.5 C 13.5 13.4 13.5 13.4 13.5 13.4 C 13.4 13.4 13.4 13.3 13.4 13.2 C 13.4 13.1 13.5 13.1 13.8 13 C 14.1 12.9 14.3 12.9 14.5 12.9 C 14.7 12.9 14.9 13 15 13 C 15.1 13.1 15.2 13.3 15.2 13.4 C 15.2 13.6 15.1 13.8 14.9 14 C 14.6 14.2 14.3 14.3 14 14.4 C 14 14.4 14 14.4 14 14.4 Z M 14.5 13.2 C 14.3 13.2 14.1 13.2 13.9 13.3 C 13.9 13.3 13.8 14.1 13.8 14.1 C 14.1 14 14.3 14 14.5 13.8 C 14.8 13.7 14.9 13.6 14.9 13.4 C 14.9 13.3 14.7 13.2 14.5 13.2 C 14.5 13.2 14.5 13.2 14.5 13.2 Z M 15.6 13.3 C 15.6 13.3 15.53 13.28 15.5 13.3 C 15.5 13.2 15.5 13.2 15.5 13.2 C 15.5 13.1 15.5 13.1 15.6 13 C 15.6 13 15.6 13 15.7 13 C 15.7 13 15.7 13 15.8 13 C 15.8 13 15.8 13 15.8 13 C 16.1 13 16.3 12.9 16.4 12.9 C 16.6 12.9 16.8 13 16.9 13.1 C 17.1 13.2 17.1 13.3 17.1 13.5 C 17.1 13.6 17.1 13.8 16.9 13.9 C 16.8 14 16.6 14.1 16.4 14.2 C 16.8 14.5 17 14.7 17.2 14.8 C 17.3 14.8 17.3 14.9 17.3 14.9 C 17.3 15 17.3 15 17.3 15 C 17.2 15.1 17.2 15.1 17.1 15.1 C 17.1 15.1 17 15.1 16.9 15 C 16.9 15 16.8 14.9 16.6 14.8 C 16.5 14.7 16.4 14.6 16.4 14.6 C 16.2 14.5 16.1 14.4 16 14.3 C 15.9 14.3 15.8 14.3 15.8 14.1 C 15.8 14.1 15.9 14.1 15.9 14 C 16 14 16 14 16.1 14 C 16.1 14 16.1 14 16.1 14 C 16.1 14 16.2 14 16.2 14 C 16.2 14 16.3 13.9 16.5 13.8 C 16.7 13.7 16.8 13.6 16.8 13.5 C 16.8 13.4 16.7 13.3 16.7 13.3 C 16.6 13.2 16.5 13.2 16.4 13.2 C 16.3 13.2 16.1 13.2 16.1 13.2 C 16 13.3 15.9 13.3 15.9 13.3 C 15.9 13.3 15.9 13.3 15.9 13.3 C 15.9 13.3 15.9 13.4 15.8 13.6 C 15.8 13.8 15.8 14 15.8 14.2 C 15.7 14.4 15.7 14.6 15.7 14.7 C 15.7 14.7 15.7 14.8 15.7 14.8 C 15.7 14.9 15.7 14.9 15.7 15 C 15.7 15 15.7 15 15.7 15.1 C 15.6 15.1 15.6 15.1 15.5 15.1 C 15.4 15.1 15.3 15.1 15.3 14.9 C 15.3 14.7 15.4 14.5 15.4 14.2 C 15.4 14 15.5 13.7 15.5 13.5 C 15.5 13.5 15.5 13.4 15.5 13.4 C 15.53 13.41 15.6 13.3 15.6 13.3 Z M 17.9 14.6 C 17.9 14.6 17.9 14.6 17.9 14.6 C 17.8 14.6 17.8 14.7 17.7 14.9 C 17.6 15 17.6 15.1 17.5 15.1 C 17.5 15.1 17.5 15.1 17.4 15.1 C 17.4 15.1 17.4 15.1 17.3 15.1 C 17.3 15 17.2 15 17.2 15 C 17.2 14.9 17.4 14.7 17.6 14.3 C 17.7 14.1 17.9 13.9 18 13.7 C 18.2 13.3 18.3 13.1 18.4 13 C 18.4 13 18.5 12.9 18.5 12.9 C 18.6 12.9 18.7 12.9 18.7 13 C 18.7 13 18.7 13 18.7 13.1 C 18.7 13.1 18.7 13.2 18.7 13.2 C 18.9 13.7 19 14.1 19.1 14.3 C 19.2 14.6 19.4 14.7 19.5 14.8 C 19.5 14.9 19.5 14.9 19.5 14.9 C 19.6 14.9 19.6 15 19.6 15 C 19.6 15.1 19.5 15.1 19.5 15.1 C 19.5 15.2 19.4 15.2 19.4 15.2 C 19.3 15.2 19.2 15.1 19.1 15.1 C 19.1 15 19 14.9 18.9 14.7 C 18.9 14.6 18.8 14.5 18.8 14.5 C 18.8 14.5 18.8 14.4 18.8 14.4 C 18.8 14.4 18.6 14.5 18.5 14.5 C 18.3 14.5 18.1 14.6 18 14.6 C 18 14.6 18 14.6 17.9 14.6 C 17.9 14.6 17.9 14.6 17.9 14.6 Z M 18.6 14.2 C 18.6 14.2 18.7 14.2 18.7 14.2 C 18.7 14.1 18.6 13.9 18.5 13.5 C 18.5 13.5 18.5 13.5 18.5 13.5 C 18.5 13.5 18.1 14.3 18.1 14.3 C 18.1 14.3 18.2 14.2 18.2 14.2 C 18.3 14.2 18.4 14.2 18.6 14.2 C 18.6 14.2 18.6 14.2 18.6 14.2 Z M 20.9 14.6 C 20.9 14.6 21.04 14.1 21 14.1 C 21.1 13.7 21.2 13.4 21.2 13.3 C 21.2 13.2 21.2 13.2 21.2 13.1 C 21.2 13.1 21.2 13.1 21.3 13.1 C 21.3 13 21.3 13 21.4 13 C 21.4 13 21.4 13 21.5 13 C 21.5 13.1 21.6 13.1 21.6 13.2 C 21.6 13.4 21.7 13.6 21.9 13.9 C 22.1 14.2 22.2 14.4 22.4 14.6 C 22.4 14.4 22.4 14.2 22.5 13.9 C 22.5 13.7 22.5 13.6 22.6 13.4 C 22.6 13.3 22.6 13.2 22.6 13.1 C 22.6 13 22.6 13 22.7 12.9 C 22.7 12.9 22.8 12.9 22.8 12.9 C 22.9 12.9 22.9 12.9 22.9 13 C 23 13 23 13.1 23 13.1 C 23 13.2 23 13.3 22.9 13.4 C 22.9 13.6 22.8 13.9 22.7 14.2 C 22.7 14.6 22.7 14.8 22.7 14.8 C 22.7 14.8 22.7 14.9 22.7 14.9 C 22.7 14.9 22.7 15 22.6 15 C 22.6 15 22.6 15.1 22.6 15.1 C 22.5 15.1 22.5 15.1 22.4 15.1 C 22.4 15.1 22.4 15.1 22.3 15.1 C 22.3 15.1 22.3 15.1 22.3 15 C 22.3 15 22.2 15 22.2 14.9 C 22.2 14.8 22.1 14.8 22.1 14.7 C 21.9 14.5 21.6 14.1 21.4 13.7 C 21.4 13.8 21.3 14.1 21.3 14.6 C 21.3 14.6 21.3 14.7 21.3 14.7 C 21.3 14.7 21.3 14.8 21.2 14.9 C 21.2 15 21.2 15.1 21.2 15.1 C 21.1 15.2 21.1 15.2 21 15.2 C 21 15.2 20.9 15.2 20.9 15.1 C 20.9 15.1 20.9 15 20.9 14.9 C 20.9 14.9 20.9 14.7 20.9 14.6 C 20.93 14.6 20.9 14.6 20.9 14.6 Z M 23.8 15.2 C 23.6 15.2 23.5 15.1 23.4 14.9 C 23.2 14.8 23.2 14.6 23.2 14.4 C 23.2 14.2 23.2 14 23.4 13.8 C 23.5 13.5 23.6 13.3 23.8 13.2 C 24 13 24.2 12.9 24.4 12.9 C 24.6 12.9 24.7 13 24.8 13 C 24.9 13 25 13.1 25.1 13.2 C 25.2 13.2 25.3 13.3 25.3 13.4 C 25.3 13.5 25.4 13.6 25.4 13.7 C 25.4 13.9 25.3 14 25.2 14.2 C 25.2 14.4 25 14.5 24.9 14.7 C 24.7 14.8 24.6 15 24.4 15 C 24.3 15.1 24.1 15.2 23.8 15.2 Z M 23.5 14.4 C 23.5 14.6 23.6 14.7 23.7 14.7 C 23.7 14.8 23.8 14.9 23.9 14.9 C 24.2 14.9 24.4 14.7 24.6 14.5 C 24.9 14.2 25 14 25 13.7 C 25 13.6 25 13.5 24.9 13.4 C 24.9 13.4 24.8 13.3 24.7 13.3 C 24.6 13.2 24.5 13.2 24.4 13.2 C 24.2 13.2 24.1 13.4 23.9 13.6 C 23.6 13.9 23.5 14.2 23.5 14.4 Z M 25.1 12.3 C 25 12.3 25 12.4 24.9 12.5 C 24.9 12.5 24.9 12.5 24.9 12.5 C 24.8 12.5 24.8 12.5 24.6 12.6 C 24.6 12.7 24.5 12.7 24.5 12.7 C 24.5 12.7 24.5 12.7 24.5 12.7 C 24.5 12.7 24.4 12.7 24.4 12.7 C 24.4 12.6 24.4 12.6 24.4 12.6 C 24.4 12.5 24.4 12.4 24.6 12.3 C 24.6 12.3 24.6 12.3 24.6 12.3 C 24.6 12.3 24.6 12.3 24.7 12.3 C 24.8 12.1 25 12 25 12 C 25 12 25.1 12 25.1 12 C 25.1 12 25.2 12 25.2 12 C 25.2 12.1 25.2 12.1 25.2 12.1 C 25.2 12.2 25.2 12.2 25.2 12.2 C 25.2 12.3 25.1 12.3 25.1 12.3 C 25.1 12.3 25.1 12.3 25.1 12.3 Z M 27.2 13.2 C 27.2 13.4 27.1 13.5 26.9 13.5 C 26.9 13.4 26.9 13.3 26.9 13.3 C 26.8 13.3 26.7 13.2 26.6 13.2 C 26.5 13.2 26.3 13.3 26.2 13.4 C 26 13.4 26 13.5 26 13.6 C 26 13.7 26 13.7 26 13.8 C 26.1 13.8 26.2 13.9 26.5 13.9 C 26.7 14 26.9 14.1 27 14.2 C 27.1 14.2 27.1 14.3 27.1 14.5 C 27.1 14.6 27 14.8 26.7 15 C 26.4 15.1 26.1 15.2 25.8 15.2 C 25.7 15.2 25.6 15.2 25.6 15.2 C 25.5 15.1 25.5 15.1 25.5 15 C 25.5 14.9 25.5 14.9 25.5 14.9 C 25.6 14.8 25.6 14.8 25.6 14.8 C 25.6 14.8 25.7 14.8 25.7 14.8 C 25.8 14.9 25.9 14.9 26 14.9 C 26.1 14.9 26.3 14.8 26.5 14.7 C 26.7 14.7 26.8 14.6 26.8 14.5 C 26.8 14.5 26.7 14.4 26.7 14.4 C 26.7 14.4 26.6 14.3 26.4 14.3 C 26.2 14.2 26 14.1 25.9 14.1 C 25.8 14.1 25.7 14 25.7 13.9 C 25.6 13.9 25.6 13.8 25.6 13.7 C 25.6 13.5 25.7 13.3 25.9 13.2 C 26.1 13 26.4 12.9 26.7 12.9 C 26.8 12.9 27 13 27.1 13 C 27.2 13.1 27.2 13.2 27.2 13.2 C 27.2 13.2 27.2 13.2 27.2 13.2 Z M 30.2 13.3 C 30.2 13.3 29.8 13.3 29.8 13.3 C 29.6 13.3 29.5 13.3 29.4 13.3 C 29.3 13.3 29.2 13.4 29.2 13.4 C 29.2 13.4 29.2 13.4 29.2 13.5 C 29.2 13.5 29.2 13.6 29.1 13.7 C 29.1 13.8 29.1 13.9 29.1 13.9 C 29.1 13.9 29.2 13.9 29.4 13.9 C 29.5 13.9 29.6 13.9 29.6 13.9 C 29.7 13.9 29.9 13.8 29.9 13.8 C 30.1 13.8 30.2 13.9 30.2 14 C 30.2 14 30.1 14.1 30.1 14.1 C 30.1 14.1 30 14.2 29.9 14.2 C 29.8 14.2 29.8 14.2 29.7 14.2 C 29.7 14.2 29.6 14.2 29.6 14.2 C 29.3 14.2 29.1 14.3 29.1 14.3 C 29.1 14.3 29.1 14.3 29.1 14.3 C 29.1 14.3 29.1 14.3 29 14.3 C 29 14.3 29 14.4 29 14.5 C 29 14.7 29 14.8 29 14.8 C 29 14.8 29 14.9 29 14.9 C 29.1 14.9 29.2 14.8 29.4 14.8 C 29.6 14.8 29.7 14.8 29.8 14.8 C 29.9 14.7 30 14.7 30 14.7 C 30.2 14.7 30.2 14.8 30.2 14.9 C 30.2 14.9 30.2 15 30.2 15 C 30.1 15 29.9 15.1 29.8 15.1 C 29.6 15.1 29.5 15.1 29.3 15.1 C 29.1 15.2 29 15.2 28.8 15.2 C 28.7 15.2 28.7 15.2 28.6 15.1 C 28.6 15.1 28.6 15 28.6 15 C 28.6 15 28.6 14.9 28.6 14.9 C 28.6 14.9 28.6 14.9 28.6 14.8 C 28.6 14.7 28.7 14.5 28.7 14 C 28.8 13.6 28.8 13.4 28.8 13.3 C 28.8 13.3 28.8 13.3 28.8 13.3 C 28.8 13.3 28.8 13.3 28.8 13.3 C 28.8 13.2 28.8 13.2 28.8 13.2 C 28.8 13.2 28.8 13.1 28.8 13.1 C 28.8 13.1 28.8 13.1 28.8 13.1 C 28.9 13.1 28.9 13 28.9 13 C 29 13 29 13 29.1 13.1 C 29.2 13.1 29.4 13 29.9 13 C 30 12.9 30.1 12.9 30.1 12.9 C 30.1 12.9 30.1 12.9 30.1 12.9 C 30.3 12.9 30.4 13 30.4 13.1 C 30.4 13.1 30.4 13.2 30.3 13.2 C 30.3 13.2 30.3 13.2 30.2 13.3 Z M 32.4 14.4 C 32.3 14.4 32.2 14.4 32.2 14.4 C 32.1 14.6 32.1 14.8 32.1 15 C 32.1 15 32.1 15.1 32.1 15.1 C 32 15.1 32 15.2 31.9 15.2 C 31.8 15.2 31.8 15.1 31.8 15 C 31.8 14.9 31.8 14.6 31.9 14.2 C 31.9 13.8 31.9 13.6 31.9 13.5 C 31.9 13.4 31.9 13.4 31.9 13.4 C 31.8 13.4 31.8 13.3 31.8 13.2 C 31.8 13.1 31.9 13.1 32.2 13 C 32.5 12.9 32.7 12.9 32.9 12.9 C 33.1 12.9 33.3 13 33.4 13 C 33.5 13.1 33.6 13.3 33.6 13.4 C 33.6 13.6 33.5 13.8 33.3 14 C 33 14.2 32.7 14.3 32.4 14.4 C 32.4 14.4 32.4 14.4 32.4 14.4 Z M 32.9 13.2 C 32.7 13.2 32.5 13.2 32.3 13.3 C 32.3 13.3 32.2 14.1 32.2 14.1 C 32.5 14 32.7 14 32.9 13.8 C 33.2 13.7 33.3 13.6 33.3 13.4 C 33.3 13.3 33.1 13.2 32.9 13.2 C 32.9 13.2 32.9 13.2 32.9 13.2 Z M 34.1 14.6 C 34.1 14.6 34.1 14.6 34 14.6 C 34 14.6 34 14.7 33.9 14.9 C 33.8 15 33.7 15.1 33.7 15.1 C 33.7 15.1 33.6 15.1 33.6 15.1 C 33.6 15.1 33.5 15.1 33.5 15.1 C 33.4 15 33.4 15 33.4 15 C 33.4 14.9 33.5 14.7 33.8 14.3 C 33.9 14.1 34 13.9 34.1 13.7 C 34.4 13.3 34.5 13.1 34.6 13 C 34.6 13 34.7 12.9 34.7 12.9 C 34.8 12.9 34.9 12.9 34.9 13 C 34.9 13 34.9 13 34.9 13.1 C 34.9 13.1 34.9 13.2 34.9 13.2 C 35.1 13.7 35.2 14.1 35.3 14.3 C 35.4 14.6 35.5 14.7 35.6 14.8 C 35.7 14.9 35.7 14.9 35.7 14.9 C 35.7 14.9 35.7 15 35.7 15 C 35.7 15.1 35.7 15.1 35.7 15.1 C 35.6 15.2 35.6 15.2 35.5 15.2 C 35.5 15.2 35.4 15.1 35.3 15.1 C 35.2 15 35.2 14.9 35.1 14.7 C 35 14.6 35 14.5 35 14.5 C 35 14.5 35 14.4 35 14.4 C 34.9 14.4 34.8 14.5 34.6 14.5 C 34.5 14.5 34.3 14.6 34.2 14.6 C 34.2 14.6 34.1 14.6 34.1 14.6 C 34.1 14.6 34.1 14.6 34.1 14.6 Z M 34.7 14.2 C 34.8 14.2 34.8 14.2 34.9 14.2 C 34.9 14.1 34.8 13.9 34.7 13.5 C 34.7 13.5 34.7 13.5 34.6 13.5 C 34.6 13.5 34.2 14.3 34.2 14.3 C 34.3 14.3 34.4 14.2 34.4 14.2 C 34.5 14.2 34.6 14.2 34.7 14.2 C 34.7 14.2 34.7 14.2 34.7 14.2 Z M 36.1 13.3 C 36.1 13.3 36.1 13.28 36.1 13.3 C 36.1 13.2 36.1 13.2 36.1 13.2 C 36.1 13.1 36.1 13.1 36.1 13 C 36.2 13 36.2 13 36.3 13 C 36.3 13 36.3 13 36.3 13 C 36.3 13 36.4 13 36.4 13 C 36.7 13 36.9 12.9 37 12.9 C 37.2 12.9 37.4 13 37.5 13.1 C 37.6 13.2 37.7 13.3 37.7 13.5 C 37.7 13.6 37.6 13.8 37.5 13.9 C 37.4 14 37.2 14.1 37 14.2 C 37.3 14.5 37.6 14.7 37.8 14.8 C 37.8 14.8 37.9 14.9 37.9 14.9 C 37.9 15 37.9 15 37.8 15 C 37.8 15.1 37.7 15.1 37.7 15.1 C 37.6 15.1 37.6 15.1 37.5 15 C 37.4 15 37.3 14.9 37.2 14.8 C 37.1 14.7 37 14.6 37 14.6 C 36.8 14.5 36.6 14.4 36.6 14.3 C 36.5 14.3 36.4 14.3 36.4 14.1 C 36.4 14.1 36.4 14.1 36.5 14 C 36.5 14 36.6 14 36.6 14 C 36.6 14 36.7 14 36.7 14 C 36.7 14 36.7 14 36.7 14 C 36.8 14 36.9 13.9 37.1 13.8 C 37.2 13.7 37.3 13.6 37.3 13.5 C 37.3 13.4 37.3 13.3 37.2 13.3 C 37.1 13.2 37.1 13.2 36.9 13.2 C 36.8 13.2 36.7 13.2 36.6 13.2 C 36.6 13.3 36.5 13.3 36.5 13.3 C 36.5 13.3 36.5 13.3 36.5 13.3 C 36.5 13.3 36.4 13.4 36.4 13.6 C 36.4 13.8 36.4 14 36.3 14.2 C 36.3 14.4 36.3 14.6 36.3 14.7 C 36.3 14.7 36.3 14.8 36.3 14.8 C 36.3 14.9 36.3 14.9 36.3 15 C 36.3 15 36.3 15 36.2 15.1 C 36.2 15.1 36.2 15.1 36.1 15.1 C 36 15.1 35.9 15.1 35.9 14.9 C 35.9 14.7 35.9 14.5 36 14.2 C 36 14 36 13.7 36.1 13.5 C 36.1 13.5 36.1 13.4 36.1 13.4 C 36.1 13.41 36.1 13.3 36.1 13.3 Z M 38.5 14.6 C 38.5 14.6 38.4 14.6 38.4 14.6 C 38.4 14.6 38.4 14.7 38.3 14.9 C 38.2 15 38.1 15.1 38.1 15.1 C 38.1 15.1 38 15.1 38 15.1 C 38 15.1 37.9 15.1 37.9 15.1 C 37.8 15 37.8 15 37.8 15 C 37.8 14.9 37.9 14.7 38.2 14.3 C 38.3 14.1 38.4 13.9 38.5 13.7 C 38.8 13.3 38.9 13.1 38.9 13 C 39 13 39 12.9 39.1 12.9 C 39.2 12.9 39.2 12.9 39.3 13 C 39.3 13 39.3 13 39.3 13.1 C 39.3 13.1 39.3 13.2 39.3 13.2 C 39.5 13.7 39.6 14.1 39.7 14.3 C 39.8 14.6 39.9 14.7 40 14.8 C 40.1 14.9 40.1 14.9 40.1 14.9 C 40.1 14.9 40.1 15 40.1 15 C 40.1 15.1 40.1 15.1 40.1 15.1 C 40 15.2 40 15.2 39.9 15.2 C 39.9 15.2 39.8 15.1 39.7 15.1 C 39.6 15 39.6 14.9 39.5 14.7 C 39.4 14.6 39.4 14.5 39.4 14.5 C 39.4 14.5 39.4 14.4 39.4 14.4 C 39.3 14.4 39.2 14.5 39 14.5 C 38.8 14.5 38.7 14.6 38.6 14.6 C 38.6 14.6 38.5 14.6 38.5 14.6 C 38.5 14.6 38.5 14.6 38.5 14.6 Z M 39.1 14.2 C 39.2 14.2 39.2 14.2 39.3 14.2 C 39.2 14.1 39.2 13.9 39.1 13.5 C 39 13.5 39 13.5 39 13.5 C 39 13.5 38.6 14.3 38.6 14.3 C 38.7 14.3 38.7 14.2 38.8 14.2 C 38.9 14.2 39 14.2 39.1 14.2 C 39.1 14.2 39.1 14.2 39.1 14.2 Z M 41.5 14.6 C 41.5 14.6 41.6 14.1 41.6 14.1 C 41.7 13.7 41.7 13.4 41.7 13.3 C 41.7 13.2 41.7 13.2 41.7 13.1 C 41.8 13.1 41.8 13.1 41.8 13.1 C 41.9 13 41.9 13 41.9 13 C 42 13 42 13 42 13 C 42.1 13.1 42.1 13.1 42.1 13.2 C 42.2 13.4 42.3 13.6 42.5 13.9 C 42.6 14.2 42.8 14.4 42.9 14.6 C 43 14.4 43 14.2 43 13.9 C 43.1 13.7 43.1 13.6 43.1 13.4 C 43.2 13.3 43.2 13.2 43.2 13.1 C 43.2 13 43.2 13 43.2 12.9 C 43.3 12.9 43.3 12.9 43.4 12.9 C 43.4 12.9 43.5 12.9 43.5 13 C 43.5 13 43.5 13.1 43.5 13.1 C 43.5 13.2 43.5 13.3 43.5 13.4 C 43.4 13.6 43.4 13.9 43.3 14.2 C 43.3 14.6 43.2 14.8 43.2 14.8 C 43.2 14.8 43.2 14.9 43.2 14.9 C 43.2 14.9 43.2 15 43.2 15 C 43.2 15 43.2 15.1 43.1 15.1 C 43.1 15.1 43.1 15.1 43 15.1 C 43 15.1 42.9 15.1 42.9 15.1 C 42.9 15.1 42.9 15.1 42.8 15 C 42.8 15 42.8 15 42.8 14.9 C 42.7 14.8 42.7 14.8 42.7 14.7 C 42.4 14.5 42.2 14.1 42 13.7 C 42 13.8 41.9 14.1 41.8 14.6 C 41.8 14.6 41.8 14.7 41.8 14.7 C 41.8 14.7 41.8 14.8 41.8 14.9 C 41.8 15 41.8 15.1 41.7 15.1 C 41.7 15.2 41.6 15.2 41.6 15.2 C 41.5 15.2 41.5 15.2 41.5 15.1 C 41.4 15.1 41.4 15 41.4 14.9 C 41.4 14.9 41.5 14.7 41.5 14.6 C 41.49 14.6 41.5 14.6 41.5 14.6 Z M 44.4 15.2 C 44.2 15.2 44.1 15.1 43.9 14.9 C 43.8 14.8 43.7 14.6 43.7 14.4 C 43.7 14.2 43.8 14 43.9 13.8 C 44 13.5 44.2 13.3 44.4 13.2 C 44.6 13 44.8 12.9 45 12.9 C 45.2 12.9 45.3 13 45.4 13 C 45.5 13 45.6 13.1 45.7 13.2 C 45.8 13.2 45.8 13.3 45.9 13.4 C 45.9 13.5 45.9 13.6 45.9 13.7 C 45.9 13.9 45.9 14 45.8 14.2 C 45.7 14.4 45.6 14.5 45.5 14.7 C 45.3 14.8 45.1 15 45 15 C 44.8 15.1 44.6 15.2 44.4 15.2 Z M 44.1 14.4 C 44.1 14.6 44.1 14.7 44.2 14.7 C 44.3 14.8 44.4 14.9 44.5 14.9 C 44.7 14.9 45 14.7 45.2 14.5 C 45.4 14.2 45.5 14 45.5 13.7 C 45.5 13.6 45.5 13.5 45.5 13.4 C 45.5 13.4 45.4 13.3 45.3 13.3 C 45.2 13.2 45.1 13.2 45 13.2 C 44.8 13.2 44.6 13.4 44.4 13.6 C 44.2 13.9 44.1 14.2 44.1 14.4 Z M 47.8 13.2 C 47.8 13.4 47.7 13.5 47.5 13.5 C 47.5 13.4 47.5 13.3 47.4 13.3 C 47.4 13.3 47.3 13.2 47.2 13.2 C 47 13.2 46.9 13.3 46.7 13.4 C 46.6 13.4 46.5 13.5 46.5 13.6 C 46.5 13.7 46.6 13.7 46.6 13.8 C 46.7 13.8 46.8 13.9 47 13.9 C 47.3 14 47.4 14.1 47.5 14.2 C 47.6 14.2 47.7 14.3 47.7 14.5 C 47.7 14.6 47.6 14.8 47.3 15 C 47 15.1 46.7 15.2 46.4 15.2 C 46.3 15.2 46.2 15.2 46.1 15.2 C 46.1 15.1 46 15.1 46 15 C 46 14.9 46.1 14.9 46.1 14.9 C 46.1 14.8 46.1 14.8 46.2 14.8 C 46.2 14.8 46.2 14.8 46.3 14.8 C 46.4 14.9 46.4 14.9 46.5 14.9 C 46.7 14.9 46.9 14.8 47.1 14.7 C 47.2 14.7 47.3 14.6 47.3 14.5 C 47.3 14.5 47.3 14.4 47.3 14.4 C 47.2 14.4 47.1 14.3 47 14.3 C 46.8 14.2 46.6 14.1 46.5 14.1 C 46.4 14.1 46.3 14 46.3 13.9 C 46.2 13.9 46.2 13.8 46.2 13.7 C 46.2 13.5 46.3 13.3 46.5 13.2 C 46.7 13 47 12.9 47.2 12.9 C 47.4 12.9 47.5 13 47.6 13 C 47.7 13.1 47.8 13.2 47.8 13.2 C 47.8 13.2 47.8 13.2 47.8 13.2 Z M 49.6 13.2 C 49.6 13.4 49.5 13.5 49.3 13.5 C 49.3 13.4 49.3 13.3 49.3 13.3 C 49.2 13.3 49.1 13.2 49 13.2 C 48.9 13.2 48.7 13.3 48.6 13.4 C 48.4 13.4 48.4 13.5 48.4 13.6 C 48.4 13.7 48.4 13.7 48.5 13.8 C 48.5 13.8 48.6 13.9 48.9 13.9 C 49.1 14 49.3 14.1 49.4 14.2 C 49.5 14.2 49.6 14.3 49.6 14.5 C 49.6 14.6 49.4 14.8 49.1 15 C 48.8 15.1 48.5 15.2 48.2 15.2 C 48.1 15.2 48 15.2 48 15.2 C 47.9 15.1 47.9 15.1 47.9 15 C 47.9 14.9 47.9 14.9 47.9 14.9 C 48 14.8 48 14.8 48 14.8 C 48.1 14.8 48.1 14.8 48.1 14.8 C 48.2 14.9 48.3 14.9 48.4 14.9 C 48.5 14.9 48.7 14.8 48.9 14.7 C 49.1 14.7 49.2 14.6 49.2 14.5 C 49.2 14.5 49.2 14.4 49.1 14.4 C 49.1 14.4 49 14.3 48.8 14.3 C 48.6 14.2 48.5 14.1 48.3 14.1 C 48.2 14.1 48.2 14 48.1 13.9 C 48 13.9 48 13.8 48 13.7 C 48 13.5 48.1 13.3 48.3 13.2 C 48.6 13 48.8 12.9 49.1 12.9 C 49.3 12.9 49.4 13 49.5 13 C 49.6 13.1 49.6 13.2 49.6 13.2 C 49.6 13.2 49.6 13.2 49.6 13.2 Z M 50.4 15.2 C 50.3 15.2 50.1 15.1 50 14.9 C 49.9 14.8 49.8 14.6 49.8 14.4 C 49.8 14.2 49.8 14 50 13.8 C 50.1 13.5 50.3 13.3 50.4 13.2 C 50.6 13 50.8 12.9 51 12.9 C 51.2 12.9 51.3 13 51.5 13 C 51.6 13 51.7 13.1 51.7 13.2 C 51.8 13.2 51.9 13.3 51.9 13.4 C 52 13.5 52 13.6 52 13.7 C 52 13.9 51.9 14 51.8 14.2 C 51.8 14.4 51.7 14.5 51.5 14.7 C 51.3 14.8 51.2 15 51 15 C 50.9 15.1 50.7 15.2 50.4 15.2 Z M 50.2 14.4 C 50.2 14.6 50.2 14.7 50.3 14.7 C 50.3 14.8 50.4 14.9 50.5 14.9 C 50.8 14.9 51 14.7 51.2 14.5 C 51.5 14.2 51.6 14 51.6 13.7 C 51.6 13.6 51.6 13.5 51.5 13.4 C 51.5 13.4 51.4 13.3 51.3 13.3 C 51.3 13.2 51.2 13.2 51 13.2 C 50.9 13.2 50.7 13.4 50.5 13.6 C 50.3 13.9 50.2 14.2 50.2 14.4 Z M 53.8 13.2 C 53.8 13.4 53.7 13.5 53.5 13.5 C 53.5 13.4 53.5 13.3 53.5 13.3 C 53.4 13.3 53.3 13.2 53.2 13.2 C 53.1 13.2 52.9 13.3 52.8 13.4 C 52.6 13.4 52.6 13.5 52.6 13.6 C 52.6 13.7 52.6 13.7 52.7 13.8 C 52.7 13.8 52.8 13.9 53.1 13.9 C 53.3 14 53.5 14.1 53.6 14.2 C 53.7 14.2 53.8 14.3 53.8 14.5 C 53.8 14.6 53.6 14.8 53.3 15 C 53 15.1 52.7 15.2 52.4 15.2 C 52.3 15.2 52.2 15.2 52.2 15.2 C 52.1 15.1 52.1 15.1 52.1 15 C 52.1 14.9 52.1 14.9 52.1 14.9 C 52.2 14.8 52.2 14.8 52.2 14.8 C 52.3 14.8 52.3 14.8 52.3 14.8 C 52.4 14.9 52.5 14.9 52.6 14.9 C 52.7 14.9 52.9 14.8 53.1 14.7 C 53.3 14.7 53.4 14.6 53.4 14.5 C 53.4 14.5 53.4 14.4 53.3 14.4 C 53.3 14.4 53.2 14.3 53 14.3 C 52.8 14.2 52.7 14.1 52.5 14.1 C 52.4 14.1 52.4 14 52.3 13.9 C 52.2 13.9 52.2 13.8 52.2 13.7 C 52.2 13.5 52.3 13.3 52.5 13.2 C 52.7 13 53 12.9 53.3 12.9 C 53.5 12.9 53.6 13 53.7 13 C 53.8 13.1 53.8 13.2 53.8 13.2 C 53.8 13.2 53.8 13.2 53.8 13.2 Z M 56.8 13.2 C 56.8 13.3 56.7 13.3 56.7 13.3 C 56.7 13.3 56.7 13.3 56.6 13.3 C 56.6 13.3 56.6 13.3 56.5 13.3 C 56.4 13.3 56.3 13.3 56.1 13.3 C 55.9 13.3 55.8 13.3 55.8 13.3 C 55.7 13.5 55.7 13.8 55.7 14 C 55.7 14 55.7 14 55.8 14 C 55.9 14 56.1 14 56.2 13.9 C 56.3 13.9 56.4 13.9 56.5 13.9 C 56.6 13.9 56.7 14 56.7 14.1 C 56.7 14.1 56.7 14.1 56.7 14.1 C 56.6 14.2 56.6 14.2 56.6 14.2 C 56.5 14.2 56.5 14.2 56.4 14.2 C 56.4 14.2 56 14.3 56 14.3 C 55.8 14.3 55.7 14.3 55.6 14.3 C 55.6 14.3 55.6 14.4 55.6 14.4 C 55.6 14.4 55.6 14.4 55.6 14.5 C 55.6 14.7 55.6 14.8 55.6 14.8 C 55.6 14.8 55.6 15 55.6 15 C 55.6 15.1 55.5 15.2 55.4 15.2 C 55.4 15.2 55.3 15.2 55.3 15.1 C 55.2 15.1 55.2 15 55.2 15 C 55.2 14.8 55.2 14.7 55.2 14.4 C 55.3 14.4 55.3 14.1 55.4 13.3 C 55.4 13.3 55.4 13.3 55.4 13.3 C 55.4 13.2 55.4 13.2 55.4 13.2 C 55.4 13.1 55.4 13.1 55.4 13.1 C 55.5 13 55.5 13 55.5 13 C 55.6 13 55.6 13 55.6 13 C 55.7 13 55.7 13 55.7 13 C 55.8 13 55.9 13 56.2 13 C 56.4 12.9 56.5 12.9 56.6 12.9 C 56.7 12.9 56.8 13 56.8 13 C 56.9 13 56.9 13 56.9 13.1 C 56.9 13.1 56.9 13.2 56.8 13.2 C 56.8 13.2 56.8 13.2 56.8 13.2 Z M 57.4 13.6 C 57.4 13.7 57.4 13.8 57.4 13.8 C 57.4 13.9 57.4 13.9 57.3 14.1 C 57.3 14.3 57.3 14.4 57.3 14.5 C 57.3 14.6 57.3 14.7 57.3 14.9 C 57.3 15 57.3 15 57.3 15.1 C 57.2 15.1 57.2 15.1 57.1 15.1 C 57 15.1 57 15.1 57 15 C 56.9 15 56.9 14.9 56.9 14.7 C 56.9 14.6 56.9 14.4 57 14.1 C 57 14.1 57.1 13.5 57.1 13.5 C 57.1 13.4 57.1 13.3 57.1 13.3 C 57.1 13.1 57.1 13.1 57.2 13.1 C 57.2 13 57.2 13 57.2 13 C 57.3 13 57.3 12.9 57.3 12.9 C 57.4 12.9 57.4 13 57.5 13 C 57.5 13.1 57.5 13.1 57.5 13.2 C 57.5 13.2 57.4 13.6 57.4 13.6 Z M 59.2 15 C 59.2 15 59.1 15 59.1 15 C 59 15 59 15 58.9 15 C 58.7 15 58.4 15 58.2 15.1 C 58.1 15.1 58 15.2 57.9 15.2 C 57.9 15.2 57.8 15.1 57.8 15.1 C 57.8 15 57.8 15 57.8 15 C 57.8 14.9 57.8 14.9 57.8 14.8 C 57.8 14.7 57.8 14.6 57.8 14.5 C 57.8 14.5 58 13.3 58 13.3 C 58 13.2 58 13.1 58 13.1 C 58 13 58 13 58.1 13 C 58.1 13 58.1 12.9 58.2 12.9 C 58.2 12.9 58.3 13 58.3 13 C 58.4 13 58.4 13.1 58.4 13.1 C 58.4 13.1 58.4 13.2 58.4 13.3 C 58.3 13.4 58.3 13.7 58.2 14.1 C 58.2 14.5 58.2 14.7 58.2 14.7 C 58.2 14.7 58.2 14.8 58.2 14.8 C 58.2 14.8 58.3 14.7 58.5 14.7 C 58.6 14.7 58.7 14.7 58.7 14.7 C 59 14.7 59.1 14.7 59.2 14.6 C 59.2 14.6 59.3 14.6 59.3 14.6 C 59.3 14.6 59.4 14.6 59.4 14.7 C 59.4 14.7 59.5 14.7 59.5 14.8 C 59.5 14.9 59.4 14.9 59.4 14.9 C 59.3 15 59.3 15 59.2 15 Z M 60.1 14.3 C 60 14.3 60 14.4 60 14.7 C 60 14.8 60 14.9 60 15 C 59.9 15.1 59.9 15.2 59.8 15.2 C 59.8 15.2 59.7 15.2 59.7 15.1 C 59.6 15.1 59.6 15 59.6 15 C 59.6 14.9 59.6 14.8 59.6 14.7 C 59.7 14.4 59.8 13.9 59.9 13.1 C 59.9 13 59.9 13 59.9 13 C 60 13 60 12.9 60 12.9 C 60.2 12.9 60.2 13 60.2 13.2 C 60.2 13.2 60.2 13.4 60.2 13.5 C 60.1 13.7 60.1 13.8 60.1 13.9 C 60.1 13.9 60.2 13.9 60.2 13.9 C 60.4 13.9 60.6 13.9 60.8 13.9 C 61.1 13.9 61.2 13.8 61.2 13.8 C 61.2 13.8 61.3 13.7 61.3 13.5 C 61.3 13.4 61.3 13.2 61.3 13 C 61.3 13 61.3 12.9 61.4 12.9 C 61.4 12.9 61.5 12.8 61.5 12.8 C 61.6 12.8 61.6 12.9 61.6 12.9 C 61.7 12.9 61.7 13 61.7 13 C 61.7 13.1 61.7 13.2 61.6 13.4 C 61.6 13.6 61.6 13.9 61.5 14.2 C 61.5 14.6 61.5 14.8 61.5 14.9 C 61.5 15 61.5 15 61.4 15.1 C 61.4 15.1 61.3 15.2 61.3 15.2 C 61.2 15.2 61.2 15.1 61.2 15.1 C 61.1 15.1 61.1 15 61.1 15 C 61.1 14.9 61.1 14.8 61.1 14.6 C 61.2 14.4 61.2 14.3 61.2 14.2 C 61.2 14.2 61.2 14.2 61.1 14.2 C 61.1 14.2 61 14.2 60.9 14.2 C 60.7 14.2 60.6 14.2 60.6 14.2 C 60.6 14.2 60.5 14.2 60.3 14.2 C 60.2 14.2 60.1 14.2 60.1 14.3 Z M 62.5 15.2 C 62.4 15.2 62.2 15.1 62.1 14.9 C 62 14.8 61.9 14.6 61.9 14.4 C 61.9 14.2 62 14 62.1 13.8 C 62.2 13.5 62.4 13.3 62.5 13.2 C 62.7 13 62.9 12.9 63.2 12.9 C 63.3 12.9 63.5 13 63.6 13 C 63.7 13 63.8 13.1 63.9 13.2 C 63.9 13.2 64 13.3 64 13.4 C 64.1 13.5 64.1 13.6 64.1 13.7 C 64.1 13.9 64 14 64 14.2 C 63.9 14.4 63.8 14.5 63.6 14.7 C 63.5 14.8 63.3 15 63.1 15 C 63 15.1 62.8 15.2 62.5 15.2 Z M 62.3 14.4 C 62.3 14.6 62.3 14.7 62.4 14.7 C 62.4 14.8 62.5 14.9 62.6 14.9 C 62.9 14.9 63.1 14.7 63.4 14.5 C 63.6 14.2 63.7 14 63.7 13.7 C 63.7 13.6 63.7 13.5 63.6 13.4 C 63.6 13.4 63.5 13.3 63.4 13.3 C 63.4 13.2 63.3 13.2 63.2 13.2 C 63 13.2 62.8 13.4 62.6 13.6 C 62.4 13.9 62.3 14.2 62.3 14.4 Z M 65.9 13.2 C 65.9 13.4 65.8 13.5 65.6 13.5 C 65.6 13.4 65.6 13.3 65.6 13.3 C 65.5 13.3 65.4 13.2 65.3 13.2 C 65.2 13.2 65 13.3 64.9 13.4 C 64.7 13.4 64.7 13.5 64.7 13.6 C 64.7 13.7 64.7 13.7 64.8 13.8 C 64.8 13.8 64.9 13.9 65.2 13.9 C 65.4 14 65.6 14.1 65.7 14.2 C 65.8 14.2 65.9 14.3 65.9 14.5 C 65.9 14.6 65.7 14.8 65.4 15 C 65.1 15.1 64.8 15.2 64.5 15.2 C 64.4 15.2 64.3 15.2 64.3 15.2 C 64.2 15.1 64.2 15.1 64.2 15 C 64.2 14.9 64.2 14.9 64.2 14.9 C 64.3 14.8 64.3 14.8 64.3 14.8 C 64.4 14.8 64.4 14.8 64.4 14.8 C 64.5 14.9 64.6 14.9 64.7 14.9 C 64.8 14.9 65 14.8 65.2 14.7 C 65.4 14.7 65.5 14.6 65.5 14.5 C 65.5 14.5 65.5 14.4 65.4 14.4 C 65.4 14.4 65.3 14.3 65.1 14.3 C 64.9 14.2 64.8 14.1 64.6 14.1 C 64.5 14.1 64.5 14 64.4 13.9 C 64.4 13.9 64.3 13.8 64.3 13.7 C 64.3 13.5 64.4 13.3 64.6 13.2 C 64.9 13 65.1 12.9 65.4 12.9 C 65.6 12.9 65.7 13 65.8 13 C 65.9 13.1 65.9 13.2 65.9 13.2 C 65.9 13.2 65.9 13.2 65.9 13.2 Z M 66.5 14.2 C 66.5 14.3 66.5 14.3 66.5 14.4 C 66.4 14.4 66.3 14.4 66.2 14.3 C 66.2 14.1 66.2 13.9 66.3 13.7 C 66.3 13.5 66.4 13.3 66.4 13.2 C 66.4 13.2 66.4 13.2 66.4 13.1 C 66.4 13 66.4 13 66.5 13 C 66.5 12.9 66.6 12.9 66.6 12.9 C 66.6 12.9 66.7 12.9 66.7 12.9 C 66.7 13 66.8 13 66.8 13 C 66.8 13.1 66.7 13.2 66.7 13.3 C 66.7 13.5 66.6 13.7 66.6 13.8 C 66.5 14 66.5 14.1 66.5 14.2 C 66.5 14.2 66.5 14.2 66.5 14.2 Z M 66.3 15 C 66.2 15 66.1 15 66.1 14.9 C 66.1 14.8 66.1 14.8 66.2 14.7 C 66.2 14.7 66.3 14.6 66.3 14.6 C 66.3 14.6 66.4 14.6 66.4 14.7 C 66.5 14.7 66.5 14.7 66.5 14.8 C 66.5 14.8 66.5 14.8 66.5 14.8 C 66.5 14.9 66.5 15 66.4 15 C 66.3 15 66.3 15 66.3 15 Z " stroke="none" fill="#000"/>  </g>  <g id="Polygon14215">    <path d="M 2.3 9.2 C 2.3 9.4 2.2 9.5 2 9.5 C 2 9.4 2 9.3 1.9 9.3 C 1.9 9.3 1.8 9.2 1.7 9.2 C 1.6 9.2 1.4 9.3 1.3 9.4 C 1.1 9.4 1 9.5 1 9.6 C 1 9.7 1.1 9.7 1.1 9.8 C 1.2 9.8 1.3 9.9 1.5 9.9 C 1.8 10 1.9 10.1 2.1 10.2 C 2.2 10.2 2.2 10.3 2.2 10.5 C 2.2 10.6 2.1 10.8 1.8 11 C 1.5 11.1 1.2 11.2 0.9 11.2 C 0.8 11.2 0.7 11.2 0.7 11.2 C 0.6 11.1 0.6 11.1 0.6 11 C 0.6 10.9 0.6 10.9 0.6 10.9 C 0.6 10.8 0.7 10.8 0.7 10.8 C 0.7 10.8 0.8 10.8 0.8 10.8 C 0.9 10.9 1 10.9 1.1 10.9 C 1.2 10.9 1.4 10.8 1.6 10.7 C 1.8 10.7 1.9 10.6 1.9 10.5 C 1.9 10.5 1.8 10.4 1.8 10.4 C 1.7 10.4 1.6 10.3 1.5 10.3 C 1.3 10.2 1.1 10.1 1 10.1 C 0.9 10.1 0.8 10 0.8 9.9 C 0.7 9.9 0.7 9.8 0.7 9.7 C 0.7 9.5 0.8 9.3 1 9.2 C 1.2 9 1.5 8.9 1.8 8.9 C 1.9 8.9 2.1 9 2.2 9 C 2.2 9.1 2.3 9.2 2.3 9.2 C 2.3 9.2 2.3 9.2 2.3 9.2 Z M 4.2 9.3 C 4.2 9.3 3.7 9.3 3.7 9.3 C 3.6 9.3 3.4 9.3 3.3 9.3 C 3.2 9.3 3.2 9.4 3.1 9.4 C 3.1 9.4 3.1 9.4 3.1 9.5 C 3.1 9.5 3.1 9.6 3.1 9.7 C 3 9.8 3 9.9 3 9.9 C 3.1 9.9 3.2 9.9 3.3 9.9 C 3.4 9.9 3.5 9.9 3.5 9.9 C 3.7 9.9 3.8 9.8 3.9 9.8 C 4 9.8 4.1 9.9 4.1 10 C 4.1 10 4.1 10.1 4 10.1 C 4 10.1 3.9 10.2 3.8 10.2 C 3.8 10.2 3.7 10.2 3.6 10.2 C 3.6 10.2 3.6 10.2 3.5 10.2 C 3.2 10.2 3.1 10.3 3 10.3 C 3 10.3 3 10.3 3 10.3 C 3 10.3 3 10.3 3 10.3 C 3 10.3 3 10.4 2.9 10.5 C 2.9 10.7 2.9 10.8 2.9 10.8 C 2.9 10.8 2.9 10.9 3 10.9 C 3 10.9 3.1 10.8 3.3 10.8 C 3.5 10.8 3.7 10.8 3.7 10.8 C 3.9 10.7 3.9 10.7 4 10.7 C 4.1 10.7 4.2 10.8 4.2 10.9 C 4.2 10.9 4.2 11 4.1 11 C 4 11 3.9 11.1 3.7 11.1 C 3.6 11.1 3.4 11.1 3.2 11.1 C 3.1 11.2 2.9 11.2 2.8 11.2 C 2.7 11.2 2.6 11.2 2.6 11.1 C 2.5 11.1 2.5 11 2.5 11 C 2.5 11 2.5 10.9 2.5 10.9 C 2.5 10.9 2.5 10.9 2.5 10.8 C 2.6 10.7 2.6 10.5 2.7 10 C 2.7 9.6 2.8 9.4 2.8 9.3 C 2.8 9.3 2.8 9.3 2.8 9.3 C 2.8 9.3 2.7 9.3 2.7 9.3 C 2.7 9.2 2.7 9.2 2.7 9.2 C 2.7 9.2 2.7 9.1 2.7 9.1 C 2.7 9.1 2.7 9.1 2.8 9.1 C 2.8 9.1 2.8 9 2.9 9 C 2.9 9 3 9 3 9.1 C 3.1 9.1 3.4 9 3.8 9 C 4 8.9 4 8.9 4 8.9 C 4 8.9 4.1 8.9 4.1 8.9 C 4.2 8.9 4.3 9 4.3 9.1 C 4.3 9.1 4.3 9.2 4.3 9.2 C 4.2 9.2 4.2 9.2 4.2 9.3 Z M 6.4 10.1 C 6.3 10.2 6.3 10.3 6.3 10.4 C 6.3 10.4 6.3 10.4 6.3 10.4 C 6.3 10.4 6.3 10.5 6.2 10.7 C 6.2 10.8 6.2 10.9 6.2 11 C 6.2 11.1 6.2 11.2 6.2 11.2 C 6.2 11.2 6.2 11.3 6.2 11.3 C 6.2 11.3 6.1 11.4 6.1 11.4 C 6.1 11.4 6 11.4 6 11.4 C 6 11.4 5.9 11.4 5.9 11.3 C 5.8 11.3 5.8 11.3 5.8 11.2 C 5.8 11.2 5.8 11.1 5.8 11 C 5.9 10.9 5.9 10.8 5.9 10.7 C 5.6 10.9 5.3 11.1 5 11.1 C 4.8 11.1 4.7 11 4.6 10.9 C 4.5 10.8 4.5 10.7 4.5 10.5 C 4.5 10.2 4.5 9.9 4.7 9.7 C 4.7 9.7 4.7 9.7 4.7 9.7 C 4.9 9.4 5.1 9.2 5.3 9.1 C 5.6 8.9 5.8 8.8 6.1 8.8 C 6.2 8.8 6.3 8.9 6.4 8.9 C 6.4 8.9 6.5 9 6.5 9.1 C 6.5 9.1 6.5 9.2 6.4 9.3 C 6.3 9.3 6.3 9.4 6.2 9.4 C 6.2 9.4 6.2 9.4 6.2 9.4 C 6.2 9.3 6.1 9.3 6.1 9.3 C 6.1 9.2 6.1 9.2 6.1 9.2 C 6 9.2 6 9.2 6 9.2 C 5.8 9.2 5.6 9.2 5.5 9.4 C 5.3 9.5 5.1 9.7 5 9.9 C 4.9 10.1 4.8 10.3 4.8 10.5 C 4.8 10.7 4.9 10.8 5.1 10.8 C 5.1 10.8 5.2 10.7 5.4 10.7 C 5.5 10.7 5.6 10.6 5.7 10.5 C 5.9 10.4 6 10.3 6 10.2 C 6 10.2 6 10.1 6 10 C 6 9.9 6.1 9.9 6.1 9.9 C 6.1 9.8 6.2 9.8 6.2 9.8 C 6.4 9.8 6.4 9.9 6.4 10 C 6.4 10 6.4 10.1 6.4 10.1 C 6.4 10.1 6.4 10.1 6.4 10.1 Z M 7.6 11.2 C 7.5 11.2 7.4 11.1 7.2 11.1 C 7.1 11 7 10.9 6.9 10.7 C 6.8 10.6 6.8 10.4 6.8 10.2 C 6.8 10.1 6.8 10 6.8 9.9 C 6.8 9.9 6.9 9.6 6.9 9.6 C 6.9 9.5 6.9 9.5 6.9 9.5 C 6.9 9.4 6.9 9.3 6.9 9.3 C 7 9.2 7 9.1 7 9 C 7 9 7.1 8.9 7.2 8.9 C 7.2 8.9 7.2 9 7.3 9 C 7.3 9.1 7.3 9.1 7.3 9.2 C 7.3 9.2 7.3 9.3 7.3 9.5 C 7.3 9.5 7.2 9.6 7.2 9.8 C 7.2 10 7.2 10.1 7.2 10.2 C 7.2 10.5 7.2 10.6 7.3 10.7 C 7.4 10.8 7.5 10.9 7.6 10.9 C 7.8 10.9 8 10.8 8.1 10.7 C 8.2 10.6 8.3 10.4 8.3 10.2 C 8.3 10.1 8.3 10.1 8.3 10 C 8.3 9.9 8.3 9.9 8.3 9.8 C 8.4 9.4 8.4 9.2 8.4 9.1 C 8.5 9 8.5 9 8.6 9 C 8.7 9 8.8 9.1 8.8 9.2 C 8.8 9.3 8.8 9.4 8.7 9.6 C 8.7 9.7 8.7 9.9 8.7 10 C 8.7 10.3 8.6 10.5 8.6 10.6 C 8.5 10.8 8.4 10.9 8.2 11 C 8 11.1 7.8 11.2 7.6 11.2 Z M 9.2 9.3 C 9.2 9.3 9.2 9.28 9.2 9.3 C 9.2 9.2 9.2 9.2 9.2 9.2 C 9.2 9.1 9.2 9.1 9.2 9 C 9.3 9 9.3 9 9.4 9 C 9.4 9 9.4 9 9.4 9 C 9.5 9 9.5 9 9.5 9 C 9.8 9 10 8.9 10.1 8.9 C 10.3 8.9 10.5 9 10.6 9.1 C 10.7 9.2 10.8 9.3 10.8 9.5 C 10.8 9.6 10.7 9.8 10.6 9.9 C 10.5 10 10.3 10.1 10.1 10.2 C 10.4 10.5 10.7 10.7 10.9 10.8 C 11 10.8 11 10.9 11 10.9 C 11 11 11 11 10.9 11 C 10.9 11.1 10.8 11.1 10.8 11.1 C 10.7 11.1 10.7 11.1 10.6 11 C 10.5 11 10.4 10.9 10.3 10.8 C 10.2 10.7 10.1 10.6 10.1 10.6 C 9.9 10.5 9.7 10.4 9.7 10.3 C 9.6 10.3 9.5 10.3 9.5 10.1 C 9.5 10.1 9.5 10.1 9.6 10 C 9.6 10 9.7 10 9.7 10 C 9.8 10 9.8 10 9.8 10 C 9.8 10 9.8 10 9.8 10 C 9.9 10 10 9.9 10.2 9.8 C 10.3 9.7 10.4 9.6 10.4 9.5 C 10.4 9.4 10.4 9.3 10.3 9.3 C 10.3 9.2 10.2 9.2 10.1 9.2 C 9.9 9.2 9.8 9.2 9.7 9.2 C 9.7 9.3 9.6 9.3 9.6 9.3 C 9.6 9.3 9.6 9.3 9.6 9.3 C 9.6 9.3 9.6 9.4 9.5 9.6 C 9.5 9.8 9.5 10 9.4 10.2 C 9.4 10.4 9.4 10.6 9.4 10.7 C 9.4 10.7 9.4 10.8 9.4 10.8 C 9.4 10.9 9.4 10.9 9.4 11 C 9.4 11 9.4 11 9.4 11.1 C 9.3 11.1 9.3 11.1 9.2 11.1 C 9.1 11.1 9 11.1 9 10.9 C 9 10.7 9 10.5 9.1 10.2 C 9.1 10 9.1 9.7 9.2 9.5 C 9.2 9.5 9.2 9.4 9.2 9.4 C 9.2 9.41 9.2 9.3 9.2 9.3 Z M 11.6 10.6 C 11.6 10.6 11.5 10.6 11.5 10.6 C 11.5 10.6 11.5 10.7 11.4 10.9 C 11.3 11 11.2 11.1 11.2 11.1 C 11.2 11.1 11.1 11.1 11.1 11.1 C 11.1 11.1 11 11.1 11 11.1 C 10.9 11 10.9 11 10.9 11 C 10.9 10.9 11 10.7 11.3 10.3 C 11.4 10.1 11.5 9.9 11.6 9.7 C 11.9 9.3 12 9.1 12 9 C 12.1 9 12.1 8.9 12.2 8.9 C 12.3 8.9 12.3 8.9 12.4 9 C 12.4 9 12.4 9 12.4 9.1 C 12.4 9.1 12.4 9.2 12.4 9.2 C 12.6 9.7 12.7 10.1 12.8 10.3 C 12.9 10.6 13 10.7 13.1 10.8 C 13.2 10.9 13.2 10.9 13.2 10.9 C 13.2 10.9 13.2 11 13.2 11 C 13.2 11.1 13.2 11.1 13.2 11.1 C 13.1 11.2 13.1 11.2 13 11.2 C 13 11.2 12.9 11.1 12.8 11.1 C 12.7 11 12.7 10.9 12.6 10.7 C 12.5 10.6 12.5 10.5 12.5 10.5 C 12.5 10.5 12.5 10.4 12.5 10.4 C 12.4 10.4 12.3 10.5 12.1 10.5 C 11.9 10.5 11.8 10.6 11.7 10.6 C 11.7 10.6 11.6 10.6 11.6 10.6 C 11.6 10.6 11.6 10.6 11.6 10.6 Z M 12.2 10.2 C 12.3 10.2 12.3 10.2 12.4 10.2 C 12.3 10.1 12.3 9.9 12.2 9.5 C 12.2 9.5 12.1 9.5 12.1 9.5 C 12.1 9.5 11.7 10.3 11.7 10.3 C 11.8 10.3 11.9 10.2 11.9 10.2 C 12 10.2 12.1 10.2 12.2 10.2 C 12.2 10.2 12.2 10.2 12.2 10.2 Z M 13.5 10.6 C 13.5 10.6 13.57 10.1 13.6 10.1 C 13.7 9.7 13.7 9.4 13.7 9.3 C 13.7 9.2 13.7 9.2 13.7 9.1 C 13.7 9.1 13.7 9.1 13.8 9.1 C 13.8 9 13.9 9 13.9 9 C 13.9 9 14 9 14 9 C 14 9.1 14.1 9.1 14.1 9.2 C 14.1 9.4 14.3 9.6 14.4 9.9 C 14.6 10.2 14.8 10.4 14.9 10.6 C 14.9 10.4 15 10.2 15 9.9 C 15 9.7 15.1 9.6 15.1 9.4 C 15.1 9.3 15.1 9.2 15.1 9.1 C 15.1 9 15.2 9 15.2 8.9 C 15.3 8.9 15.3 8.9 15.4 8.9 C 15.4 8.9 15.4 8.9 15.5 9 C 15.5 9 15.5 9.1 15.5 9.1 C 15.5 9.2 15.5 9.3 15.5 9.4 C 15.4 9.6 15.3 9.9 15.3 10.2 C 15.2 10.6 15.2 10.8 15.2 10.8 C 15.2 10.8 15.2 10.9 15.2 10.9 C 15.2 10.9 15.2 11 15.2 11 C 15.2 11 15.1 11.1 15.1 11.1 C 15.1 11.1 15 11.1 15 11.1 C 14.9 11.1 14.9 11.1 14.9 11.1 C 14.9 11.1 14.8 11.1 14.8 11 C 14.8 11 14.8 11 14.7 10.9 C 14.7 10.8 14.6 10.8 14.6 10.7 C 14.4 10.5 14.2 10.1 14 9.7 C 13.9 9.8 13.9 10.1 13.8 10.6 C 13.8 10.6 13.8 10.7 13.8 10.7 C 13.8 10.7 13.8 10.8 13.8 10.9 C 13.8 11 13.7 11.1 13.7 11.1 C 13.7 11.2 13.6 11.2 13.6 11.2 C 13.5 11.2 13.5 11.2 13.4 11.1 C 13.4 11.1 13.4 11 13.4 10.9 C 13.4 10.9 13.4 10.7 13.5 10.6 C 13.46 10.6 13.5 10.6 13.5 10.6 Z M 16.3 11.2 C 16.3 11.2 16.3 11.2 16.3 11.2 C 16.3 11.3 16.3 11.3 16.3 11.3 C 16.3 11.3 16.4 11.3 16.4 11.3 C 16.5 11.3 16.5 11.3 16.6 11.4 C 16.6 11.4 16.6 11.5 16.6 11.6 C 16.6 11.7 16.6 11.8 16.5 11.8 C 16.4 11.9 16.3 12 16.1 12 C 16.1 12 16 12 16 11.9 C 15.9 11.9 15.9 11.9 15.8 11.9 C 15.8 11.9 15.7 11.8 15.7 11.8 C 15.7 11.7 15.8 11.7 15.8 11.7 C 15.8 11.6 15.9 11.6 15.9 11.6 C 15.9 11.6 16 11.7 16.1 11.7 C 16.1 11.7 16.1 11.7 16.1 11.7 C 16.1 11.7 16.1 11.7 16.1 11.7 C 16.2 11.7 16.2 11.7 16.3 11.7 C 16.3 11.7 16.4 11.6 16.4 11.6 C 16.4 11.6 16.3 11.5 16.3 11.5 C 16.3 11.5 16.2 11.5 16.2 11.5 C 16.2 11.5 16.1 11.5 16.1 11.5 C 16 11.5 16 11.5 16 11.4 C 16 11.3 16 11.3 16 11.2 C 16 11.2 16.1 11.2 16.1 11.1 C 15.8 11 15.7 10.8 15.7 10.5 C 15.7 10.1 15.9 9.8 16.2 9.4 C 16.5 9 16.9 8.8 17.2 8.8 C 17.3 8.8 17.4 8.9 17.5 8.9 C 17.6 9 17.6 9.1 17.6 9.2 C 17.6 9.3 17.6 9.4 17.6 9.5 C 17.6 9.5 17.5 9.6 17.5 9.6 C 17.4 9.6 17.4 9.6 17.4 9.6 C 17.3 9.6 17.3 9.6 17.3 9.6 C 17.2 9.6 17.2 9.5 17.2 9.5 C 17.2 9.5 17.2 9.4 17.2 9.4 C 17.3 9.3 17.3 9.3 17.3 9.2 C 17.3 9.1 17.2 9.1 17.2 9.1 C 17.1 9.1 16.9 9.2 16.7 9.3 C 16.6 9.5 16.4 9.7 16.3 9.9 C 16.1 10.1 16.1 10.3 16.1 10.5 C 16.1 10.6 16.1 10.7 16.2 10.8 C 16.2 10.9 16.3 10.9 16.5 10.9 C 16.5 10.9 16.6 10.9 16.8 10.8 C 16.9 10.8 17 10.7 17.1 10.7 C 17.2 10.6 17.2 10.6 17.3 10.6 C 17.3 10.6 17.4 10.6 17.4 10.7 C 17.4 10.8 17.3 10.9 17 11 C 16.8 11.2 16.6 11.2 16.3 11.2 Z M 18.2 10.6 C 18.2 10.6 18.2 10.6 18.2 10.6 C 18.1 10.6 18.1 10.7 18 10.9 C 17.9 11 17.9 11.1 17.8 11.1 C 17.8 11.1 17.8 11.1 17.7 11.1 C 17.7 11.1 17.7 11.1 17.6 11.1 C 17.6 11 17.5 11 17.5 11 C 17.5 10.9 17.7 10.7 17.9 10.3 C 18 10.1 18.2 9.9 18.3 9.7 C 18.5 9.3 18.6 9.1 18.7 9 C 18.7 9 18.8 8.9 18.8 8.9 C 18.9 8.9 19 8.9 19 9 C 19 9 19 9 19 9.1 C 19 9.1 19 9.2 19 9.2 C 19.2 9.7 19.3 10.1 19.4 10.3 C 19.5 10.6 19.6 10.7 19.8 10.8 C 19.8 10.9 19.8 10.9 19.8 10.9 C 19.9 10.9 19.9 11 19.9 11 C 19.9 11.1 19.8 11.1 19.8 11.1 C 19.8 11.2 19.7 11.2 19.7 11.2 C 19.6 11.2 19.5 11.1 19.4 11.1 C 19.4 11 19.3 10.9 19.2 10.7 C 19.2 10.6 19.1 10.5 19.1 10.5 C 19.1 10.5 19.1 10.4 19.1 10.4 C 19.1 10.4 18.9 10.5 18.8 10.5 C 18.6 10.5 18.4 10.6 18.3 10.6 C 18.3 10.6 18.3 10.6 18.2 10.6 C 18.2 10.6 18.2 10.6 18.2 10.6 Z M 18.9 10.2 C 18.9 10.2 19 10.2 19 10.2 C 19 10.1 18.9 9.9 18.8 9.5 C 18.8 9.5 18.8 9.5 18.8 9.5 C 18.8 9.5 18.4 10.3 18.4 10.3 C 18.4 10.3 18.5 10.2 18.5 10.2 C 18.6 10.2 18.7 10.2 18.9 10.2 C 18.9 10.2 18.9 10.2 18.9 10.2 Z M 20.1 11.3 C 20.1 11.3 20.1 11.3 20.1 11.3 C 20.1 11.3 20.2 11.2 20.3 11.2 C 20.4 11.1 20.4 11.1 20.4 11 C 20.5 11 20.5 10.9 20.5 10.9 C 20.5 10.9 20.5 10.8 20.5 10.8 C 20.4 10.7 20.4 10.7 20.4 10.7 C 20.4 10.7 20.4 10.6 20.5 10.6 C 20.5 10.6 20.5 10.5 20.5 10.5 C 20.6 10.5 20.6 10.6 20.7 10.6 C 20.7 10.6 20.8 10.6 20.8 10.6 C 20.8 10.7 20.8 10.7 20.8 10.8 C 20.8 10.8 20.8 10.9 20.8 10.9 C 20.8 10.9 20.8 11 20.8 11.1 C 20.7 11.2 20.7 11.2 20.6 11.3 C 20.5 11.3 20.5 11.4 20.4 11.4 C 20.4 11.4 20.4 11.4 20.4 11.4 C 20.3 11.4 20.2 11.4 20.2 11.4 C 20.1 11.4 20.1 11.4 20.1 11.3 C 20.1 11.3 20.1 11.3 20.1 11.3 Z M 24.2 9.6 C 24.3 9.5 24.3 9.5 24.3 9.5 C 24.3 9.5 23.8 10.1 23.8 10.1 C 23.6 10.4 23.4 10.6 23.3 10.6 C 23.2 10.6 23.2 10.6 23.1 10.5 C 23.1 10.4 23 10.3 23 10.2 C 22.9 10.1 22.9 10 22.9 9.9 C 22.8 9.7 22.8 9.6 22.8 9.6 C 22.8 9.6 22.7 10 22.7 10 C 22.7 10.1 22.7 10.2 22.6 10.3 C 22.6 10.5 22.6 10.6 22.6 10.7 C 22.5 10.9 22.5 11 22.5 11 C 22.5 11.1 22.5 11.1 22.4 11.1 C 22.4 11.2 22.4 11.2 22.3 11.2 C 22.3 11.2 22.2 11.1 22.2 11.1 C 22.2 11.1 22.1 11 22.1 11 C 22.1 10.9 22.2 10.8 22.2 10.6 C 22.4 10 22.5 9.7 22.5 9.5 C 22.5 9.3 22.5 9.2 22.5 9.1 C 22.5 9.1 22.5 9 22.6 9 C 22.6 9 22.7 9 22.8 9 C 22.8 9 22.8 9 22.9 9 C 22.9 9.1 23 9.1 23 9.2 C 22.97 9.18 23 9.2 23 9.2 C 23 9.2 23.17 9.75 23.2 9.7 C 23.2 10 23.3 10.1 23.3 10.2 C 23.4 10.1 23.6 9.9 23.8 9.6 C 24 9.3 24.1 9.1 24.2 9 C 24.3 9 24.4 8.9 24.4 8.9 C 24.4 8.9 24.5 8.9 24.5 9 C 24.6 9 24.6 9.1 24.6 9.1 C 24.6 9.1 24.6 9.3 24.6 9.5 C 24.5 9.7 24.5 9.9 24.5 10.2 C 24.5 10.4 24.5 10.5 24.5 10.6 C 24.5 10.6 24.5 10.7 24.5 10.8 C 24.5 10.8 24.5 10.8 24.5 10.9 C 24.5 11 24.5 11 24.5 11.1 C 24.4 11.1 24.4 11.1 24.3 11.1 C 24.2 11.1 24.1 11 24.1 10.8 C 24.1 10.7 24.1 10.4 24.2 10.2 C 24.2 9.9 24.2 9.7 24.2 9.6 C 24.2 9.6 24.2 9.6 24.2 9.6 Z M 25.4 10.6 C 25.4 10.6 25.4 10.6 25.4 10.6 C 25.3 10.6 25.3 10.7 25.2 10.9 C 25.1 11 25.1 11.1 25 11.1 C 25 11.1 25 11.1 24.9 11.1 C 24.9 11.1 24.9 11.1 24.8 11.1 C 24.8 11 24.7 11 24.7 11 C 24.7 10.9 24.9 10.7 25.1 10.3 C 25.2 10.1 25.4 9.9 25.5 9.7 C 25.7 9.3 25.8 9.1 25.9 9 C 25.9 9 26 8.9 26 8.9 C 26.1 8.9 26.2 8.9 26.2 9 C 26.2 9 26.2 9 26.2 9.1 C 26.2 9.1 26.2 9.2 26.2 9.2 C 26.4 9.7 26.5 10.1 26.7 10.3 C 26.8 10.6 26.9 10.7 27 10.8 C 27 10.9 27 10.9 27 10.9 C 27.1 10.9 27.1 11 27.1 11 C 27.1 11.1 27 11.1 27 11.1 C 27 11.2 26.9 11.2 26.9 11.2 C 26.8 11.2 26.7 11.1 26.6 11.1 C 26.6 11 26.5 10.9 26.4 10.7 C 26.4 10.6 26.3 10.5 26.3 10.5 C 26.3 10.5 26.3 10.4 26.3 10.4 C 26.3 10.4 26.1 10.5 26 10.5 C 25.8 10.5 25.6 10.6 25.5 10.6 C 25.5 10.6 25.5 10.6 25.4 10.6 C 25.4 10.6 25.4 10.6 25.4 10.6 Z M 26.1 10.2 C 26.1 10.2 26.2 10.2 26.2 10.2 C 26.2 10.1 26.1 9.9 26 9.5 C 26 9.5 26 9.5 26 9.5 C 26 9.5 25.6 10.3 25.6 10.3 C 25.6 10.3 25.7 10.2 25.7 10.2 C 25.8 10.2 25.9 10.2 26.1 10.2 C 26.1 10.2 26.1 10.2 26.1 10.2 Z M 27.8 9.6 C 27.7 9.7 27.7 9.8 27.7 9.8 C 27.7 9.9 27.7 9.9 27.7 10.1 C 27.7 10.3 27.6 10.4 27.6 10.5 C 27.6 10.6 27.6 10.7 27.7 10.9 C 27.7 11 27.7 11 27.6 11.1 C 27.6 11.1 27.5 11.1 27.5 11.1 C 27.4 11.1 27.3 11.1 27.3 11 C 27.3 11 27.3 10.9 27.3 10.7 C 27.3 10.6 27.3 10.4 27.3 10.1 C 27.3 10.1 27.4 9.5 27.4 9.5 C 27.4 9.4 27.4 9.3 27.5 9.3 C 27.5 9.1 27.5 9.1 27.5 9.1 C 27.5 9 27.5 9 27.6 9 C 27.6 9 27.7 8.9 27.7 8.9 C 27.7 8.9 27.8 9 27.8 9 C 27.9 9.1 27.9 9.1 27.9 9.2 C 27.9 9.2 27.8 9.6 27.8 9.6 Z M 29.8 9.2 C 29.8 9.4 29.7 9.5 29.5 9.5 C 29.5 9.4 29.4 9.3 29.4 9.3 C 29.3 9.3 29.3 9.2 29.2 9.2 C 29 9.2 28.9 9.3 28.7 9.4 C 28.6 9.4 28.5 9.5 28.5 9.6 C 28.5 9.7 28.5 9.7 28.6 9.8 C 28.6 9.8 28.8 9.9 29 9.9 C 29.2 10 29.4 10.1 29.5 10.2 C 29.6 10.2 29.7 10.3 29.7 10.5 C 29.7 10.6 29.5 10.8 29.3 11 C 29 11.1 28.7 11.2 28.4 11.2 C 28.3 11.2 28.2 11.2 28.1 11.2 C 28.1 11.1 28 11.1 28 11 C 28 10.9 28 10.9 28.1 10.9 C 28.1 10.8 28.1 10.8 28.2 10.8 C 28.2 10.8 28.2 10.8 28.2 10.8 C 28.3 10.9 28.4 10.9 28.5 10.9 C 28.7 10.9 28.8 10.8 29 10.7 C 29.2 10.7 29.3 10.6 29.3 10.5 C 29.3 10.5 29.3 10.4 29.2 10.4 C 29.2 10.4 29.1 10.3 29 10.3 C 28.7 10.2 28.6 10.1 28.5 10.1 C 28.4 10.1 28.3 10 28.2 9.9 C 28.2 9.9 28.2 9.8 28.2 9.7 C 28.2 9.5 28.3 9.3 28.5 9.2 C 28.7 9 28.9 8.9 29.2 8.9 C 29.4 8.9 29.5 9 29.6 9 C 29.7 9.1 29.8 9.2 29.8 9.2 C 29.8 9.2 29.8 9.2 29.8 9.2 Z M 32.7 9.2 C 32.7 9.4 32.6 9.5 32.5 9.5 C 32.5 9.4 32.4 9.3 32.4 9.3 C 32.3 9.3 32.3 9.2 32.2 9.2 C 32 9.2 31.8 9.3 31.7 9.4 C 31.6 9.4 31.5 9.5 31.5 9.6 C 31.5 9.7 31.5 9.7 31.6 9.8 C 31.6 9.8 31.8 9.9 32 9.9 C 32.2 10 32.4 10.1 32.5 10.2 C 32.6 10.2 32.7 10.3 32.7 10.5 C 32.7 10.6 32.5 10.8 32.2 11 C 32 11.1 31.7 11.2 31.3 11.2 C 31.2 11.2 31.2 11.2 31.1 11.2 C 31 11.1 31 11.1 31 11 C 31 10.9 31 10.9 31.1 10.9 C 31.1 10.8 31.1 10.8 31.2 10.8 C 31.2 10.8 31.2 10.8 31.2 10.8 C 31.3 10.9 31.4 10.9 31.5 10.9 C 31.7 10.9 31.8 10.8 32 10.7 C 32.2 10.7 32.3 10.6 32.3 10.5 C 32.3 10.5 32.3 10.4 32.2 10.4 C 32.2 10.4 32.1 10.3 31.9 10.3 C 31.7 10.2 31.6 10.1 31.5 10.1 C 31.4 10.1 31.3 10 31.2 9.9 C 31.2 9.9 31.1 9.8 31.1 9.7 C 31.1 9.5 31.2 9.3 31.5 9.2 C 31.7 9 31.9 8.9 32.2 8.9 C 32.4 8.9 32.5 9 32.6 9 C 32.7 9.1 32.7 9.2 32.7 9.2 C 32.7 9.2 32.7 9.2 32.7 9.2 Z M 33.4 10.6 C 33.4 10.6 33.4 10.6 33.4 10.6 C 33.3 10.6 33.3 10.7 33.2 10.9 C 33.1 11 33.1 11.1 33 11.1 C 33 11.1 33 11.1 32.9 11.1 C 32.9 11.1 32.9 11.1 32.8 11.1 C 32.8 11 32.7 11 32.7 11 C 32.7 10.9 32.9 10.7 33.1 10.3 C 33.2 10.1 33.4 9.9 33.5 9.7 C 33.7 9.3 33.8 9.1 33.9 9 C 33.9 9 34 8.9 34 8.9 C 34.1 8.9 34.2 8.9 34.2 9 C 34.2 9 34.2 9 34.2 9.1 C 34.2 9.1 34.2 9.2 34.2 9.2 C 34.4 9.7 34.5 10.1 34.6 10.3 C 34.7 10.6 34.8 10.7 34.9 10.8 C 35 10.9 35 10.9 35 10.9 C 35 10.9 35.1 11 35.1 11 C 35.1 11.1 35 11.1 35 11.1 C 35 11.2 34.9 11.2 34.9 11.2 C 34.8 11.2 34.7 11.1 34.6 11.1 C 34.6 11 34.5 10.9 34.4 10.7 C 34.3 10.6 34.3 10.5 34.3 10.5 C 34.3 10.5 34.3 10.4 34.3 10.4 C 34.3 10.4 34.1 10.5 34 10.5 C 33.8 10.5 33.6 10.6 33.5 10.6 C 33.5 10.6 33.5 10.6 33.4 10.6 C 33.4 10.6 33.4 10.6 33.4 10.6 Z M 34.1 10.2 C 34.1 10.2 34.2 10.2 34.2 10.2 C 34.2 10.1 34.1 9.9 34 9.5 C 34 9.5 34 9.5 34 9.5 C 34 9.5 33.5 10.3 33.5 10.3 C 33.6 10.3 33.7 10.2 33.7 10.2 C 33.8 10.2 33.9 10.2 34.1 10.2 C 34.1 10.2 34.1 10.2 34.1 10.2 Z M 36 11.2 C 35.9 11.2 35.8 11.1 35.6 11.1 C 35.5 11 35.4 10.9 35.3 10.7 C 35.2 10.6 35.2 10.4 35.2 10.2 C 35.2 10.1 35.2 10 35.2 9.9 C 35.2 9.9 35.3 9.6 35.3 9.6 C 35.3 9.5 35.3 9.5 35.3 9.5 C 35.3 9.4 35.3 9.3 35.3 9.3 C 35.4 9.2 35.4 9.1 35.4 9 C 35.5 9 35.5 8.9 35.6 8.9 C 35.6 8.9 35.6 9 35.7 9 C 35.7 9.1 35.7 9.1 35.7 9.2 C 35.7 9.2 35.7 9.3 35.7 9.5 C 35.7 9.5 35.6 9.6 35.6 9.8 C 35.6 10 35.6 10.1 35.6 10.2 C 35.6 10.5 35.6 10.6 35.7 10.7 C 35.8 10.8 35.9 10.9 36 10.9 C 36.3 10.9 36.4 10.8 36.5 10.7 C 36.6 10.6 36.7 10.4 36.7 10.2 C 36.7 10.1 36.7 10.1 36.7 10 C 36.7 9.9 36.7 9.9 36.7 9.8 C 36.8 9.4 36.8 9.2 36.8 9.1 C 36.9 9 37 9 37 9 C 37.1 9 37.2 9.1 37.2 9.2 C 37.2 9.3 37.2 9.4 37.1 9.6 C 37.1 9.7 37.1 9.9 37.1 10 C 37.1 10.3 37 10.5 37 10.6 C 36.9 10.8 36.8 10.9 36.6 11 C 36.5 11.1 36.3 11.2 36 11.2 Z M 36.9 8.3 C 36.9 8.3 36.8 8.4 36.7 8.5 C 36.7 8.5 36.7 8.5 36.7 8.5 C 36.6 8.5 36.6 8.5 36.4 8.6 C 36.4 8.7 36.3 8.7 36.3 8.7 C 36.3 8.7 36.3 8.7 36.3 8.7 C 36.3 8.7 36.2 8.7 36.2 8.7 C 36.2 8.7 36.2 8.6 36.2 8.6 C 36.2 8.5 36.2 8.4 36.4 8.3 C 36.4 8.3 36.4 8.3 36.4 8.3 C 36.4 8.3 36.5 8.3 36.5 8.3 C 36.7 8.1 36.8 8 36.8 8 C 36.9 8 36.9 8 36.9 8 C 36.9 8 37 8 37 8 C 37 8.1 37 8.1 37 8.1 C 37 8.2 37 8.2 37 8.2 C 37 8.3 36.9 8.3 36.9 8.3 C 36.9 8.3 36.9 8.3 36.9 8.3 Z M 37.5 10.8 C 37.5 10.8 37.5 10.7 37.5 10.6 C 37.6 10.2 37.6 9.9 37.7 9.5 C 37.7 9.4 37.7 9.4 37.7 9.3 C 37.7 9.3 37.7 9.3 37.7 9.3 C 37.6 9.3 37.5 9.2 37.5 9.2 C 37.5 9.1 37.5 9.1 37.6 9 C 37.6 9 37.7 9 37.7 9 C 37.7 9 37.9 9 37.9 9 C 38 9 38.1 9 38.3 9 C 38.4 8.9 38.5 8.9 38.6 8.9 C 38.9 8.9 39.1 9 39.3 9.2 C 39.4 9.3 39.5 9.5 39.5 9.8 C 39.5 10.1 39.4 10.3 39.1 10.5 C 38.9 10.8 38.5 10.9 38.2 11 C 38.1 11 38 11 38 11.1 C 37.9 11.1 37.9 11.1 37.8 11.1 C 37.8 11.2 37.7 11.2 37.6 11.2 C 37.6 11.2 37.5 11.2 37.5 11.1 C 37.5 11.1 37.4 11 37.4 11 C 37.4 11 37.5 11 37.5 10.9 C 37.5 10.9 37.5 10.8 37.5 10.8 Z M 37.9 10.7 C 37.9 10.7 37.9 10.7 37.9 10.8 C 37.9 10.8 38.1 10.7 38.3 10.7 C 38.6 10.6 38.8 10.5 38.9 10.3 C 39.1 10.1 39.2 10 39.2 9.8 C 39.2 9.6 39.1 9.5 39 9.4 C 38.9 9.3 38.7 9.2 38.5 9.2 C 38.4 9.2 38.3 9.2 38.1 9.3 C 38.1 9.3 38.1 9.3 38 9.3 C 37.9 9.9 37.9 10.4 37.9 10.7 C 37.9 10.7 37.9 10.7 37.9 10.7 Z M 41.4 9.3 C 41.4 9.3 41 9.3 41 9.3 C 40.8 9.3 40.7 9.3 40.6 9.3 C 40.4 9.3 40.4 9.4 40.4 9.4 C 40.4 9.4 40.4 9.4 40.4 9.5 C 40.4 9.5 40.3 9.6 40.3 9.7 C 40.3 9.8 40.3 9.9 40.3 9.9 C 40.3 9.9 40.4 9.9 40.5 9.9 C 40.6 9.9 40.7 9.9 40.8 9.9 C 40.9 9.9 41 9.8 41.1 9.8 C 41.3 9.8 41.3 9.9 41.3 10 C 41.3 10 41.3 10.1 41.3 10.1 C 41.2 10.1 41.2 10.2 41.1 10.2 C 41 10.2 40.9 10.2 40.9 10.2 C 40.8 10.2 40.8 10.2 40.7 10.2 C 40.5 10.2 40.3 10.3 40.3 10.3 C 40.3 10.3 40.3 10.3 40.3 10.3 C 40.2 10.3 40.2 10.3 40.2 10.3 C 40.2 10.3 40.2 10.4 40.2 10.5 C 40.2 10.7 40.1 10.8 40.1 10.8 C 40.2 10.8 40.2 10.9 40.2 10.9 C 40.3 10.9 40.4 10.8 40.6 10.8 C 40.8 10.8 40.9 10.8 41 10.8 C 41.1 10.7 41.2 10.7 41.2 10.7 C 41.3 10.7 41.4 10.8 41.4 10.9 C 41.4 10.9 41.4 11 41.4 11 C 41.3 11 41.1 11.1 41 11.1 C 40.8 11.1 40.7 11.1 40.5 11.1 C 40.3 11.2 40.1 11.2 40 11.2 C 39.9 11.2 39.8 11.2 39.8 11.1 C 39.8 11.1 39.8 11 39.8 11 C 39.8 11 39.7 10.9 39.7 10.9 C 39.7 10.9 39.8 10.9 39.8 10.8 C 39.8 10.7 39.9 10.5 39.9 10 C 40 9.6 40 9.4 40 9.3 C 40 9.3 40 9.3 40 9.3 C 40 9.3 40 9.3 40 9.3 C 39.9 9.2 39.9 9.2 39.9 9.2 C 39.9 9.2 39.9 9.1 39.9 9.1 C 39.9 9.1 40 9.1 40 9.1 C 40 9.1 40.1 9 40.1 9 C 40.2 9 40.2 9 40.2 9.1 C 40.3 9.1 40.6 9 41 9 C 41.2 8.9 41.3 8.9 41.3 8.9 C 41.3 8.9 41.3 8.9 41.3 8.9 C 41.5 8.9 41.6 9 41.6 9.1 C 41.6 9.1 41.5 9.2 41.5 9.2 C 41.5 9.2 41.4 9.2 41.4 9.3 Z M 41.7 11.3 C 41.7 11.3 41.7 11.3 41.7 11.3 C 41.8 11.3 41.8 11.2 41.9 11.2 C 42 11.1 42.1 11.1 42.1 11 C 42.1 11 42.1 10.9 42.1 10.9 C 42.1 10.9 42.1 10.8 42.1 10.8 C 42.1 10.7 42.1 10.7 42.1 10.7 C 42.1 10.7 42.1 10.6 42.1 10.6 C 42.1 10.6 42.1 10.5 42.2 10.5 C 42.2 10.5 42.3 10.6 42.3 10.6 C 42.4 10.6 42.4 10.6 42.4 10.6 C 42.4 10.7 42.4 10.7 42.4 10.8 C 42.5 10.8 42.5 10.9 42.5 10.9 C 42.5 10.9 42.4 11 42.4 11.1 C 42.4 11.2 42.3 11.2 42.2 11.3 C 42.2 11.3 42.1 11.4 42 11.4 C 42 11.4 42 11.4 42 11.4 C 41.9 11.4 41.8 11.4 41.8 11.4 C 41.7 11.4 41.7 11.4 41.7 11.3 C 41.7 11.3 41.7 11.3 41.7 11.3 Z M 45.9 9.6 C 45.9 9.5 45.9 9.5 45.9 9.5 C 45.9 9.5 45.4 10.1 45.4 10.1 C 45.2 10.4 45 10.6 44.9 10.6 C 44.8 10.6 44.8 10.6 44.7 10.5 C 44.7 10.4 44.7 10.3 44.6 10.2 C 44.6 10.1 44.5 10 44.5 9.9 C 44.5 9.7 44.4 9.6 44.4 9.6 C 44.4 9.6 44.4 10 44.4 10 C 44.3 10.1 44.3 10.2 44.3 10.3 C 44.3 10.5 44.2 10.6 44.2 10.7 C 44.2 10.9 44.2 11 44.1 11 C 44.1 11.1 44.1 11.1 44.1 11.1 C 44 11.2 44 11.2 44 11.2 C 43.9 11.2 43.9 11.1 43.8 11.1 C 43.8 11.1 43.8 11 43.8 11 C 43.8 10.9 43.8 10.8 43.8 10.6 C 44 10 44.1 9.7 44.1 9.5 C 44.1 9.3 44.2 9.2 44.2 9.1 C 44.2 9.1 44.2 9 44.2 9 C 44.3 9 44.3 9 44.4 9 C 44.4 9 44.5 9 44.5 9 C 44.6 9.1 44.6 9.1 44.6 9.2 C 44.6 9.18 44.6 9.2 44.6 9.2 C 44.6 9.2 44.8 9.75 44.8 9.7 C 44.9 10 44.9 10.1 45 10.2 C 45.1 10.1 45.2 9.9 45.4 9.6 C 45.6 9.3 45.8 9.1 45.9 9 C 45.9 9 46 8.9 46 8.9 C 46.1 8.9 46.1 8.9 46.2 9 C 46.2 9 46.3 9.1 46.3 9.1 C 46.3 9.1 46.2 9.3 46.2 9.5 C 46.2 9.7 46.2 9.9 46.1 10.2 C 46.1 10.4 46.1 10.5 46.1 10.6 C 46.1 10.6 46.1 10.7 46.1 10.8 C 46.1 10.8 46.1 10.8 46.1 10.9 C 46.1 11 46.1 11 46.1 11.1 C 46.1 11.1 46 11.1 45.9 11.1 C 45.8 11.1 45.7 11 45.7 10.8 C 45.7 10.7 45.8 10.4 45.8 10.2 C 45.8 9.9 45.9 9.7 45.9 9.6 C 45.9 9.6 45.9 9.6 45.9 9.6 Z M 47.1 10.6 C 47 10.6 47 10.6 47 10.6 C 47 10.6 46.9 10.7 46.8 10.9 C 46.8 11 46.7 11.1 46.7 11.1 C 46.6 11.1 46.6 11.1 46.6 11.1 C 46.5 11.1 46.5 11.1 46.4 11.1 C 46.4 11 46.4 11 46.4 11 C 46.4 10.9 46.5 10.7 46.7 10.3 C 46.9 10.1 47 9.9 47.1 9.7 C 47.3 9.3 47.5 9.1 47.5 9 C 47.6 9 47.6 8.9 47.7 8.9 C 47.7 8.9 47.8 8.9 47.8 9 C 47.9 9 47.9 9 47.9 9.1 C 47.9 9.1 47.9 9.2 47.9 9.2 C 48 9.7 48.2 10.1 48.3 10.3 C 48.4 10.6 48.5 10.7 48.6 10.8 C 48.6 10.9 48.7 10.9 48.7 10.9 C 48.7 10.9 48.7 11 48.7 11 C 48.7 11.1 48.7 11.1 48.6 11.1 C 48.6 11.2 48.6 11.2 48.5 11.2 C 48.4 11.2 48.4 11.1 48.3 11.1 C 48.2 11 48.1 10.9 48.1 10.7 C 48 10.6 48 10.5 48 10.5 C 48 10.5 48 10.4 47.9 10.4 C 47.9 10.4 47.8 10.5 47.6 10.5 C 47.4 10.5 47.3 10.6 47.2 10.6 C 47.1 10.6 47.1 10.6 47.1 10.6 C 47.1 10.6 47.1 10.6 47.1 10.6 Z M 47.7 10.2 C 47.8 10.2 47.8 10.2 47.8 10.2 C 47.8 10.1 47.7 9.9 47.6 9.5 C 47.6 9.5 47.6 9.5 47.6 9.5 C 47.6 9.5 47.2 10.3 47.2 10.3 C 47.3 10.3 47.3 10.2 47.4 10.2 C 47.4 10.2 47.5 10.2 47.7 10.2 C 47.7 10.2 47.7 10.2 47.7 10.2 Z M 49.4 9.6 C 49.4 9.7 49.4 9.8 49.4 9.8 C 49.4 9.9 49.3 9.9 49.3 10.1 C 49.3 10.3 49.3 10.4 49.3 10.5 C 49.3 10.6 49.3 10.7 49.3 10.9 C 49.3 11 49.3 11 49.2 11.1 C 49.2 11.1 49.1 11.1 49.1 11.1 C 49 11.1 49 11.1 48.9 11 C 48.9 11 48.9 10.9 48.9 10.7 C 48.9 10.6 48.9 10.4 49 10.1 C 49 10.1 49.1 9.5 49.1 9.5 C 49.1 9.4 49.1 9.3 49.1 9.3 C 49.1 9.1 49.1 9.1 49.1 9.1 C 49.2 9 49.2 9 49.2 9 C 49.3 9 49.3 8.9 49.3 8.9 C 49.4 8.9 49.4 9 49.5 9 C 49.5 9.1 49.5 9.1 49.5 9.2 C 49.5 9.2 49.4 9.6 49.4 9.6 Z M 51.4 9.2 C 51.4 9.4 51.3 9.5 51.1 9.5 C 51.1 9.4 51.1 9.3 51 9.3 C 51 9.3 50.9 9.2 50.8 9.2 C 50.6 9.2 50.5 9.3 50.4 9.4 C 50.2 9.4 50.1 9.5 50.1 9.6 C 50.1 9.7 50.2 9.7 50.2 9.8 C 50.3 9.8 50.4 9.9 50.6 9.9 C 50.9 10 51 10.1 51.1 10.2 C 51.3 10.2 51.3 10.3 51.3 10.5 C 51.3 10.6 51.2 10.8 50.9 11 C 50.6 11.1 50.3 11.2 50 11.2 C 49.9 11.2 49.8 11.2 49.8 11.2 C 49.7 11.1 49.7 11.1 49.7 11 C 49.7 10.9 49.7 10.9 49.7 10.9 C 49.7 10.8 49.8 10.8 49.8 10.8 C 49.8 10.8 49.8 10.8 49.9 10.8 C 50 10.9 50.1 10.9 50.2 10.9 C 50.3 10.9 50.5 10.8 50.7 10.7 C 50.9 10.7 50.9 10.6 50.9 10.5 C 50.9 10.5 50.9 10.4 50.9 10.4 C 50.8 10.4 50.7 10.3 50.6 10.3 C 50.4 10.2 50.2 10.1 50.1 10.1 C 50 10.1 49.9 10 49.9 9.9 C 49.8 9.9 49.8 9.8 49.8 9.7 C 49.8 9.5 49.9 9.3 50.1 9.2 C 50.3 9 50.6 8.9 50.9 8.9 C 51 8.9 51.1 9 51.2 9 C 51.3 9.1 51.4 9.2 51.4 9.2 C 51.4 9.2 51.4 9.2 51.4 9.2 Z M 53.3 11.2 C 53.2 11.2 53 11.1 52.9 10.9 C 52.8 10.8 52.7 10.6 52.7 10.4 C 52.7 10.2 52.8 10 52.9 9.8 C 53 9.5 53.2 9.3 53.3 9.2 C 53.5 9 53.7 8.9 54 8.9 C 54.1 8.9 54.2 9 54.4 9 C 54.5 9 54.6 9.1 54.6 9.2 C 54.7 9.2 54.8 9.3 54.8 9.4 C 54.9 9.5 54.9 9.6 54.9 9.7 C 54.9 9.9 54.8 10 54.8 10.2 C 54.7 10.4 54.6 10.5 54.4 10.7 C 54.3 10.8 54.1 11 53.9 11 C 53.8 11.1 53.6 11.2 53.3 11.2 Z M 53.1 10.4 C 53.1 10.6 53.1 10.7 53.2 10.7 C 53.2 10.8 53.3 10.9 53.4 10.9 C 53.7 10.9 53.9 10.7 54.2 10.5 C 54.4 10.2 54.5 10 54.5 9.7 C 54.5 9.6 54.5 9.5 54.4 9.4 C 54.4 9.4 54.3 9.3 54.2 9.3 C 54.2 9.2 54.1 9.2 54 9.2 C 53.8 9.2 53.6 9.4 53.4 9.6 C 53.2 9.9 53.1 10.2 53.1 10.4 Z M 55.8 10.4 C 55.6 10.4 55.6 10.4 55.6 10.4 C 55.5 10.6 55.5 10.8 55.5 11 C 55.5 11 55.5 11.1 55.5 11.1 C 55.4 11.1 55.4 11.2 55.3 11.2 C 55.2 11.2 55.2 11.1 55.2 11 C 55.2 10.9 55.2 10.6 55.2 10.2 C 55.3 9.8 55.3 9.6 55.3 9.5 C 55.3 9.4 55.3 9.4 55.3 9.4 C 55.2 9.4 55.2 9.3 55.2 9.2 C 55.2 9.1 55.3 9.1 55.6 9 C 55.9 8.9 56.1 8.9 56.3 8.9 C 56.5 8.9 56.7 9 56.8 9 C 56.9 9.1 57 9.3 57 9.4 C 57 9.6 56.9 9.8 56.7 10 C 56.4 10.2 56.1 10.3 55.8 10.4 C 55.8 10.4 55.8 10.4 55.8 10.4 Z M 56.3 9.2 C 56.1 9.2 55.9 9.2 55.7 9.3 C 55.7 9.3 55.6 10.1 55.6 10.1 C 55.9 10 56.1 10 56.3 9.8 C 56.6 9.7 56.7 9.6 56.7 9.4 C 56.7 9.3 56.5 9.2 56.3 9.2 C 56.3 9.2 56.3 9.2 56.3 9.2 Z M 57.7 11.2 C 57.6 11.2 57.4 11.1 57.3 10.9 C 57.2 10.8 57.1 10.6 57.1 10.4 C 57.1 10.2 57.2 10 57.3 9.8 C 57.4 9.5 57.6 9.3 57.7 9.2 C 57.9 9 58.1 8.9 58.3 8.9 C 58.5 8.9 58.6 9 58.8 9 C 58.9 9 59 9.1 59 9.2 C 59.1 9.2 59.2 9.3 59.2 9.4 C 59.3 9.5 59.3 9.6 59.3 9.7 C 59.3 9.9 59.2 10 59.2 10.2 C 59.1 10.4 59 10.5 58.8 10.7 C 58.7 10.8 58.5 11 58.3 11 C 58.2 11.1 58 11.2 57.7 11.2 Z M 57.5 10.4 C 57.5 10.6 57.5 10.7 57.6 10.7 C 57.6 10.8 57.7 10.9 57.8 10.9 C 58.1 10.9 58.3 10.7 58.6 10.5 C 58.8 10.2 58.9 10 58.9 9.7 C 58.9 9.6 58.9 9.5 58.8 9.4 C 58.8 9.4 58.7 9.3 58.6 9.3 C 58.6 9.2 58.5 9.2 58.3 9.2 C 58.2 9.2 58 9.4 57.8 9.6 C 57.6 9.9 57.5 10.2 57.5 10.4 Z M 59.7 9.3 C 59.7 9.3 59.68 9.28 59.7 9.3 C 59.6 9.2 59.6 9.2 59.6 9.2 C 59.6 9.1 59.7 9.1 59.7 9 C 59.7 9 59.8 9 59.8 9 C 59.8 9 59.9 9 59.9 9 C 59.9 9 59.9 9 59.9 9 C 60.2 9 60.4 8.9 60.6 8.9 C 60.8 8.9 60.9 9 61.1 9.1 C 61.2 9.2 61.3 9.3 61.3 9.5 C 61.3 9.6 61.2 9.8 61.1 9.9 C 60.9 10 60.8 10.1 60.6 10.2 C 60.9 10.5 61.2 10.7 61.4 10.8 C 61.4 10.8 61.5 10.9 61.5 10.9 C 61.5 11 61.4 11 61.4 11 C 61.3 11.1 61.3 11.1 61.3 11.1 C 61.2 11.1 61.1 11.1 61.1 11 C 61 11 60.9 10.9 60.8 10.8 C 60.6 10.7 60.6 10.6 60.5 10.6 C 60.4 10.5 60.2 10.4 60.1 10.3 C 60 10.3 60 10.3 60 10.1 C 60 10.1 60 10.1 60.1 10 C 60.1 10 60.2 10 60.2 10 C 60.2 10 60.2 10 60.3 10 C 60.3 10 60.3 10 60.3 10 C 60.4 10 60.5 9.9 60.6 9.8 C 60.8 9.7 60.9 9.6 60.9 9.5 C 60.9 9.4 60.9 9.3 60.8 9.3 C 60.7 9.2 60.6 9.2 60.5 9.2 C 60.4 9.2 60.3 9.2 60.2 9.2 C 60.1 9.3 60.1 9.3 60.1 9.3 C 60.1 9.3 60.1 9.3 60.1 9.3 C 60 9.3 60 9.4 60 9.6 C 60 9.8 59.9 10 59.9 10.2 C 59.9 10.4 59.9 10.6 59.9 10.7 C 59.9 10.7 59.9 10.8 59.9 10.8 C 59.9 10.9 59.9 10.9 59.9 11 C 59.9 11 59.9 11 59.8 11.1 C 59.8 11.1 59.7 11.1 59.7 11.1 C 59.6 11.1 59.5 11.1 59.5 10.9 C 59.5 10.7 59.5 10.5 59.5 10.2 C 59.6 10 59.6 9.7 59.7 9.5 C 59.7 9.5 59.7 9.4 59.7 9.4 C 59.67 9.41 59.7 9.3 59.7 9.3 Z M 63.2 9.3 C 63 9.3 62.8 9.3 62.7 9.3 C 62.7 9.3 62.7 9.4 62.7 9.4 C 62.7 9.4 62.7 9.6 62.6 9.9 C 62.6 10.2 62.6 10.4 62.6 10.6 C 62.6 10.7 62.6 10.8 62.6 10.9 C 62.6 10.9 62.6 10.9 62.6 10.9 C 62.6 11 62.6 11 62.6 11.1 C 62.6 11.1 62.5 11.1 62.5 11.1 C 62.4 11.1 62.4 11.1 62.3 11.1 C 62.3 11 62.3 11 62.3 10.9 C 62.2 10.8 62.2 10.7 62.2 10.6 C 62.2 10.5 62.3 10.2 62.3 9.9 C 62.3 9.5 62.4 9.4 62.4 9.4 C 62.3 9.4 62.2 9.4 62 9.4 C 61.8 9.4 61.7 9.4 61.7 9.4 C 61.6 9.4 61.5 9.4 61.5 9.4 C 61.5 9.3 61.4 9.3 61.4 9.3 C 61.4 9.2 61.5 9.2 61.5 9.1 C 61.5 9.1 61.6 9.1 61.8 9.1 C 62.1 9.1 62.4 9.1 62.6 9 C 62.9 9 63.2 9 63.3 9 C 63.5 9 63.6 9 63.7 9 C 63.7 9.1 63.7 9.1 63.7 9.2 C 63.7 9.3 63.7 9.3 63.6 9.3 C 63.6 9.3 63.5 9.3 63.5 9.3 C 63.4 9.3 63.3 9.3 63.2 9.3 C 63.2 9.3 63.2 9.3 63.2 9.3 Z M 64.4 11.2 C 64.3 11.2 64.2 11.1 64 11.1 C 63.9 11 63.8 10.9 63.7 10.7 C 63.6 10.6 63.6 10.4 63.6 10.2 C 63.6 10.1 63.6 10 63.6 9.9 C 63.6 9.9 63.7 9.6 63.7 9.6 C 63.7 9.5 63.7 9.5 63.7 9.5 C 63.7 9.4 63.7 9.3 63.7 9.3 C 63.8 9.2 63.8 9.1 63.8 9 C 63.8 9 63.9 8.9 64 8.9 C 64 8.9 64 9 64.1 9 C 64.1 9.1 64.1 9.1 64.1 9.2 C 64.1 9.2 64.1 9.3 64.1 9.5 C 64.1 9.5 64 9.6 64 9.8 C 64 10 64 10.1 64 10.2 C 64 10.5 64 10.6 64.1 10.7 C 64.2 10.8 64.3 10.9 64.4 10.9 C 64.6 10.9 64.8 10.8 64.9 10.7 C 65 10.6 65.1 10.4 65.1 10.2 C 65.1 10.1 65.1 10.1 65.1 10 C 65.1 9.9 65.1 9.9 65.1 9.8 C 65.2 9.4 65.2 9.2 65.2 9.1 C 65.3 9 65.3 9 65.4 9 C 65.5 9 65.6 9.1 65.6 9.2 C 65.6 9.3 65.6 9.4 65.5 9.6 C 65.5 9.7 65.5 9.9 65.5 10 C 65.5 10.3 65.4 10.5 65.4 10.6 C 65.3 10.8 65.2 10.9 65 11 C 64.8 11.1 64.6 11.2 64.4 11.2 Z M 65.9 10.6 C 65.9 10.6 65.98 10.1 66 10.1 C 66.1 9.7 66.1 9.4 66.1 9.3 C 66.1 9.2 66.1 9.2 66.1 9.1 C 66.1 9.1 66.2 9.1 66.2 9.1 C 66.2 9 66.3 9 66.3 9 C 66.4 9 66.4 9 66.4 9 C 66.5 9.1 66.5 9.1 66.5 9.2 C 66.6 9.4 66.7 9.6 66.8 9.9 C 67 10.2 67.2 10.4 67.3 10.6 C 67.3 10.4 67.4 10.2 67.4 9.9 C 67.5 9.7 67.5 9.6 67.5 9.4 C 67.5 9.3 67.5 9.2 67.6 9.1 C 67.6 9 67.6 9 67.6 8.9 C 67.7 8.9 67.7 8.9 67.8 8.9 C 67.8 8.9 67.8 8.9 67.9 9 C 67.9 9 67.9 9.1 67.9 9.1 C 67.9 9.2 67.9 9.3 67.9 9.4 C 67.8 9.6 67.8 9.9 67.7 10.2 C 67.6 10.6 67.6 10.8 67.6 10.8 C 67.6 10.8 67.6 10.9 67.6 10.9 C 67.6 10.9 67.6 11 67.6 11 C 67.6 11 67.6 11.1 67.5 11.1 C 67.5 11.1 67.4 11.1 67.4 11.1 C 67.3 11.1 67.3 11.1 67.3 11.1 C 67.3 11.1 67.3 11.1 67.2 11 C 67.2 11 67.2 11 67.1 10.9 C 67.1 10.8 67.1 10.8 67 10.7 C 66.8 10.5 66.6 10.1 66.4 9.7 C 66.3 9.8 66.3 10.1 66.2 10.6 C 66.2 10.6 66.2 10.7 66.2 10.7 C 66.2 10.7 66.2 10.8 66.2 10.9 C 66.2 11 66.2 11.1 66.1 11.1 C 66.1 11.2 66 11.2 66 11.2 C 65.9 11.2 65.9 11.2 65.9 11.1 C 65.8 11.1 65.8 11 65.8 10.9 C 65.8 10.9 65.8 10.7 65.9 10.6 C 65.87 10.6 65.9 10.6 65.9 10.6 Z M 68.7 9.6 C 68.7 9.7 68.7 9.8 68.7 9.8 C 68.7 9.9 68.7 9.9 68.6 10.1 C 68.6 10.3 68.6 10.4 68.6 10.5 C 68.6 10.6 68.6 10.7 68.6 10.9 C 68.6 11 68.6 11 68.5 11.1 C 68.5 11.1 68.5 11.1 68.4 11.1 C 68.3 11.1 68.3 11.1 68.3 11 C 68.2 11 68.2 10.9 68.2 10.7 C 68.2 10.6 68.2 10.4 68.3 10.1 C 68.3 10.1 68.4 9.5 68.4 9.5 C 68.4 9.4 68.4 9.3 68.4 9.3 C 68.4 9.1 68.4 9.1 68.4 9.1 C 68.5 9 68.5 9 68.5 9 C 68.6 9 68.6 8.9 68.6 8.9 C 68.7 8.9 68.7 9 68.8 9 C 68.8 9.1 68.8 9.1 68.8 9.2 C 68.8 9.2 68.7 9.6 68.7 9.6 Z M 69.1 10.8 C 69.2 10.8 69.2 10.7 69.2 10.6 C 69.2 10.2 69.2 9.9 69.3 9.5 C 69.3 9.4 69.3 9.4 69.3 9.3 C 69.3 9.3 69.3 9.3 69.3 9.3 C 69.2 9.3 69.1 9.2 69.1 9.2 C 69.1 9.1 69.2 9.1 69.2 9 C 69.2 9 69.3 9 69.3 9 C 69.3 9 69.5 9 69.5 9 C 69.6 9 69.7 9 69.9 9 C 70 8.9 70.1 8.9 70.2 8.9 C 70.5 8.9 70.7 9 70.9 9.2 C 71.1 9.3 71.1 9.5 71.1 9.8 C 71.1 10.1 71 10.3 70.8 10.5 C 70.5 10.8 70.2 10.9 69.8 11 C 69.7 11 69.6 11 69.6 11.1 C 69.6 11.1 69.5 11.1 69.5 11.1 C 69.4 11.2 69.3 11.2 69.3 11.2 C 69.2 11.2 69.2 11.2 69.1 11.1 C 69.1 11.1 69.1 11 69.1 11 C 69.1 11 69.1 11 69.1 10.9 C 69.1 10.9 69.1 10.8 69.1 10.8 Z M 69.5 10.7 C 69.5 10.7 69.5 10.7 69.5 10.8 C 69.6 10.8 69.7 10.7 70 10.7 C 70.2 10.6 70.4 10.5 70.6 10.3 C 70.7 10.1 70.8 10 70.8 9.8 C 70.8 9.6 70.7 9.5 70.6 9.4 C 70.5 9.3 70.4 9.2 70.2 9.2 C 70.1 9.2 69.9 9.2 69.7 9.3 C 69.7 9.3 69.7 9.3 69.7 9.3 C 69.6 9.9 69.5 10.4 69.5 10.7 C 69.5 10.7 69.5 10.7 69.5 10.7 Z M 71.7 10.6 C 71.7 10.6 71.7 10.6 71.7 10.6 C 71.6 10.6 71.6 10.7 71.5 10.9 C 71.4 11 71.4 11.1 71.3 11.1 C 71.3 11.1 71.3 11.1 71.2 11.1 C 71.2 11.1 71.2 11.1 71.1 11.1 C 71.1 11 71 11 71 11 C 71 10.9 71.2 10.7 71.4 10.3 C 71.5 10.1 71.7 9.9 71.8 9.7 C 72 9.3 72.1 9.1 72.2 9 C 72.2 9 72.3 8.9 72.3 8.9 C 72.4 8.9 72.5 8.9 72.5 9 C 72.5 9 72.5 9 72.5 9.1 C 72.5 9.1 72.5 9.2 72.5 9.2 C 72.7 9.7 72.8 10.1 72.9 10.3 C 73 10.6 73.1 10.7 73.2 10.8 C 73.3 10.9 73.3 10.9 73.3 10.9 C 73.4 10.9 73.4 11 73.4 11 C 73.4 11.1 73.3 11.1 73.3 11.1 C 73.3 11.2 73.2 11.2 73.2 11.2 C 73.1 11.2 73 11.1 72.9 11.1 C 72.9 11 72.8 10.9 72.7 10.7 C 72.6 10.6 72.6 10.5 72.6 10.5 C 72.6 10.5 72.6 10.4 72.6 10.4 C 72.6 10.4 72.4 10.5 72.3 10.5 C 72.1 10.5 71.9 10.6 71.8 10.6 C 71.8 10.6 71.8 10.6 71.7 10.6 C 71.7 10.6 71.7 10.6 71.7 10.6 Z M 72.4 10.2 C 72.4 10.2 72.5 10.2 72.5 10.2 C 72.5 10.1 72.4 9.9 72.3 9.5 C 72.3 9.5 72.3 9.5 72.3 9.5 C 72.3 9.5 71.9 10.3 71.9 10.3 C 71.9 10.3 72 10.2 72 10.2 C 72.1 10.2 72.2 10.2 72.4 10.2 C 72.4 10.2 72.4 10.2 72.4 10.2 Z M 73.6 10.8 C 73.6 10.8 73.6 10.7 73.6 10.6 C 73.7 10.2 73.7 9.9 73.8 9.5 C 73.8 9.4 73.8 9.4 73.8 9.3 C 73.8 9.3 73.8 9.3 73.8 9.3 C 73.7 9.3 73.6 9.2 73.6 9.2 C 73.6 9.1 73.6 9.1 73.7 9 C 73.7 9 73.8 9 73.8 9 C 73.8 9 74 9 74 9 C 74.1 9 74.2 9 74.4 9 C 74.5 8.9 74.6 8.9 74.7 8.9 C 75 8.9 75.2 9 75.4 9.2 C 75.5 9.3 75.6 9.5 75.6 9.8 C 75.6 10.1 75.5 10.3 75.2 10.5 C 75 10.8 74.6 10.9 74.3 11 C 74.2 11 74.1 11 74.1 11.1 C 74 11.1 74 11.1 73.9 11.1 C 73.9 11.2 73.8 11.2 73.7 11.2 C 73.7 11.2 73.6 11.2 73.6 11.1 C 73.6 11.1 73.5 11 73.5 11 C 73.5 11 73.6 11 73.6 10.9 C 73.6 10.9 73.6 10.8 73.6 10.8 Z M 74 10.7 C 74 10.7 74 10.7 74 10.8 C 74 10.8 74.2 10.7 74.4 10.7 C 74.7 10.6 74.9 10.5 75 10.3 C 75.2 10.1 75.3 10 75.3 9.8 C 75.3 9.6 75.2 9.5 75.1 9.4 C 75 9.3 74.8 9.2 74.6 9.2 C 74.5 9.2 74.4 9.2 74.2 9.3 C 74.2 9.3 74.2 9.3 74.1 9.3 C 74 9.9 74 10.4 74 10.7 C 74 10.7 74 10.7 74 10.7 Z M 77.5 9.3 C 77.5 9.3 77.1 9.3 77.1 9.3 C 76.9 9.3 76.8 9.3 76.7 9.3 C 76.5 9.3 76.5 9.4 76.5 9.4 C 76.5 9.4 76.5 9.4 76.5 9.5 C 76.5 9.5 76.4 9.6 76.4 9.7 C 76.4 9.8 76.4 9.9 76.4 9.9 C 76.4 9.9 76.5 9.9 76.6 9.9 C 76.7 9.9 76.8 9.9 76.9 9.9 C 77 9.9 77.1 9.8 77.2 9.8 C 77.4 9.8 77.4 9.9 77.4 10 C 77.4 10 77.4 10.1 77.4 10.1 C 77.3 10.1 77.3 10.2 77.2 10.2 C 77.1 10.2 77.1 10.2 77 10.2 C 76.9 10.2 76.9 10.2 76.8 10.2 C 76.6 10.2 76.4 10.3 76.4 10.3 C 76.4 10.3 76.4 10.3 76.4 10.3 C 76.3 10.3 76.3 10.3 76.3 10.3 C 76.3 10.3 76.3 10.4 76.3 10.5 C 76.3 10.7 76.2 10.8 76.2 10.8 C 76.3 10.8 76.3 10.9 76.3 10.9 C 76.4 10.9 76.5 10.8 76.7 10.8 C 76.9 10.8 77 10.8 77.1 10.8 C 77.2 10.7 77.3 10.7 77.3 10.7 C 77.4 10.7 77.5 10.8 77.5 10.9 C 77.5 10.9 77.5 11 77.5 11 C 77.4 11 77.2 11.1 77.1 11.1 C 76.9 11.1 76.8 11.1 76.6 11.1 C 76.4 11.2 76.2 11.2 76.1 11.2 C 76 11.2 76 11.2 75.9 11.1 C 75.9 11.1 75.9 11 75.9 11 C 75.9 11 75.8 10.9 75.8 10.9 C 75.8 10.9 75.9 10.9 75.9 10.8 C 75.9 10.7 76 10.5 76 10 C 76.1 9.6 76.1 9.4 76.1 9.3 C 76.1 9.3 76.1 9.3 76.1 9.3 C 76.1 9.3 76.1 9.3 76.1 9.3 C 76 9.2 76 9.2 76 9.2 C 76 9.2 76 9.1 76 9.1 C 76 9.1 76.1 9.1 76.1 9.1 C 76.1 9.1 76.2 9 76.2 9 C 76.3 9 76.3 9 76.3 9.1 C 76.4 9.1 76.7 9 77.1 9 C 77.3 8.9 77.4 8.9 77.4 8.9 C 77.4 8.9 77.4 8.9 77.4 8.9 C 77.6 8.9 77.7 9 77.7 9.1 C 77.7 9.1 77.6 9.2 77.6 9.2 C 77.6 9.2 77.5 9.2 77.5 9.3 Z M 79.5 9.2 C 79.5 9.4 79.4 9.5 79.2 9.5 C 79.2 9.4 79.2 9.3 79.1 9.3 C 79.1 9.3 79 9.2 78.9 9.2 C 78.7 9.2 78.6 9.3 78.4 9.4 C 78.3 9.4 78.2 9.5 78.2 9.6 C 78.2 9.7 78.2 9.7 78.3 9.8 C 78.3 9.8 78.5 9.9 78.7 9.9 C 78.9 10 79.1 10.1 79.2 10.2 C 79.3 10.2 79.4 10.3 79.4 10.5 C 79.4 10.6 79.3 10.8 79 11 C 78.7 11.1 78.4 11.2 78.1 11.2 C 78 11.2 77.9 11.2 77.8 11.2 C 77.8 11.1 77.7 11.1 77.7 11 C 77.7 10.9 77.8 10.9 77.8 10.9 C 77.8 10.8 77.8 10.8 77.9 10.8 C 77.9 10.8 77.9 10.8 77.9 10.8 C 78 10.9 78.1 10.9 78.2 10.9 C 78.4 10.9 78.6 10.8 78.7 10.7 C 78.9 10.7 79 10.6 79 10.5 C 79 10.5 79 10.4 79 10.4 C 78.9 10.4 78.8 10.3 78.7 10.3 C 78.5 10.2 78.3 10.1 78.2 10.1 C 78.1 10.1 78 10 77.9 9.9 C 77.9 9.9 77.9 9.8 77.9 9.7 C 77.9 9.5 78 9.3 78.2 9.2 C 78.4 9 78.6 8.9 78.9 8.9 C 79.1 8.9 79.2 9 79.3 9 C 79.4 9.1 79.5 9.2 79.5 9.2 C 79.5 9.2 79.5 9.2 79.5 9.2 Z " stroke="none" fill="#000"/>  </g>  <g id="Polygon14214">    <path d="M 3.9 5.2 C 3.9 5.4 3.8 5.5 3.6 5.5 C 3.6 5.4 3.6 5.3 3.5 5.3 C 3.5 5.3 3.4 5.2 3.3 5.2 C 3.2 5.2 3 5.3 2.9 5.4 C 2.7 5.4 2.7 5.5 2.7 5.6 C 2.7 5.7 2.7 5.7 2.7 5.8 C 2.8 5.8 2.9 5.9 3.1 5.9 C 3.4 6 3.6 6.1 3.7 6.2 C 3.8 6.2 3.8 6.3 3.8 6.5 C 3.8 6.6 3.7 6.8 3.4 7 C 3.1 7.1 2.8 7.2 2.5 7.2 C 2.4 7.2 2.3 7.2 2.3 7.2 C 2.2 7.1 2.2 7.1 2.2 7 C 2.2 6.9 2.2 6.9 2.2 6.9 C 2.2 6.8 2.3 6.8 2.3 6.8 C 2.3 6.8 2.4 6.8 2.4 6.8 C 2.5 6.9 2.6 6.9 2.7 6.9 C 2.8 6.9 3 6.8 3.2 6.7 C 3.4 6.7 3.5 6.6 3.5 6.5 C 3.5 6.5 3.4 6.4 3.4 6.4 C 3.3 6.4 3.2 6.3 3.1 6.3 C 2.9 6.2 2.7 6.1 2.6 6.1 C 2.5 6.1 2.4 6 2.4 5.9 C 2.3 5.9 2.3 5.8 2.3 5.7 C 2.3 5.5 2.4 5.3 2.6 5.2 C 2.8 5 3.1 4.9 3.4 4.9 C 3.5 4.9 3.7 5 3.8 5 C 3.9 5.1 3.9 5.2 3.9 5.2 C 3.9 5.2 3.9 5.2 3.9 5.2 Z M 4.7 7.2 C 4.5 7.2 4.4 7.1 4.3 6.9 C 4.1 6.8 4.1 6.6 4.1 6.4 C 4.1 6.2 4.1 6 4.2 5.8 C 4.4 5.5 4.5 5.3 4.7 5.2 C 4.9 5 5.1 4.9 5.3 4.9 C 5.5 4.9 5.6 5 5.7 5 C 5.8 5 5.9 5.1 6 5.2 C 6.1 5.2 6.2 5.3 6.2 5.4 C 6.2 5.5 6.2 5.6 6.2 5.7 C 6.2 5.9 6.2 6 6.1 6.2 C 6 6.4 5.9 6.5 5.8 6.7 C 5.6 6.8 5.5 7 5.3 7 C 5.2 7.1 5 7.2 4.7 7.2 Z M 4.4 6.4 C 4.4 6.6 4.5 6.7 4.5 6.7 C 4.6 6.8 4.7 6.9 4.8 6.9 C 5 6.9 5.3 6.7 5.5 6.5 C 5.8 6.2 5.9 6 5.9 5.7 C 5.9 5.6 5.8 5.5 5.8 5.4 C 5.8 5.4 5.7 5.3 5.6 5.3 C 5.5 5.2 5.4 5.2 5.3 5.2 C 5.1 5.2 4.9 5.4 4.7 5.6 C 4.5 5.9 4.4 6.2 4.4 6.4 Z M 6 4.3 C 5.9 4.3 5.9 4.4 5.7 4.5 C 5.7 4.5 5.7 4.5 5.7 4.5 C 5.7 4.5 5.6 4.5 5.5 4.6 C 5.5 4.7 5.4 4.7 5.4 4.7 C 5.4 4.7 5.4 4.7 5.4 4.7 C 5.3 4.7 5.3 4.7 5.3 4.7 C 5.3 4.6 5.3 4.6 5.3 4.6 C 5.3 4.5 5.3 4.4 5.5 4.3 C 5.5 4.3 5.5 4.3 5.5 4.3 C 5.5 4.3 5.5 4.3 5.6 4.3 C 5.7 4.1 5.8 4 5.9 4 C 5.9 4 6 4 6 4 C 6 4 6 4 6.1 4 C 6.1 4.1 6.1 4.1 6.1 4.1 C 6.1 4.2 6.1 4.2 6.1 4.2 C 6.1 4.3 6 4.3 6 4.3 C 6 4.3 6 4.3 6 4.3 Z M 8.9 6.7 C 9 6.6 9.1 6.6 9.1 6.6 C 9.2 6.6 9.2 6.6 9.2 6.7 C 9.2 6.8 9.1 6.9 8.9 7 C 8.7 7.1 8.5 7.2 8.3 7.2 C 8.1 7.2 7.9 7.1 7.8 7 C 7.6 6.9 7.5 6.7 7.5 6.5 C 7.5 6.3 7.6 6 7.8 5.8 C 7.9 5.5 8.1 5.3 8.4 5.1 C 8.6 4.9 8.8 4.8 9 4.8 C 9.2 4.8 9.3 4.9 9.4 4.9 C 9.4 5 9.5 5.1 9.5 5.2 C 9.5 5.3 9.5 5.4 9.4 5.5 C 9.4 5.5 9.4 5.6 9.3 5.6 C 9.3 5.6 9.2 5.6 9.2 5.6 C 9.2 5.6 9.1 5.6 9.1 5.6 C 9.1 5.6 9.1 5.5 9.1 5.5 C 9.1 5.5 9.1 5.4 9.1 5.4 C 9.1 5.3 9.1 5.3 9.1 5.2 C 9.1 5.1 9.1 5.1 9 5.1 C 8.9 5.1 8.7 5.2 8.6 5.3 C 8.4 5.5 8.2 5.7 8.1 5.9 C 8 6.1 7.9 6.3 7.9 6.5 C 7.9 6.6 8 6.7 8 6.8 C 8.1 6.9 8.2 6.9 8.3 6.9 C 8.4 6.9 8.5 6.9 8.6 6.8 C 8.7 6.8 8.8 6.7 8.9 6.7 C 8.9 6.7 8.9 6.7 8.9 6.7 Z M 10.2 7.2 C 10 7.2 9.9 7.1 9.8 6.9 C 9.6 6.8 9.6 6.6 9.6 6.4 C 9.6 6.2 9.6 6 9.8 5.8 C 9.9 5.5 10 5.3 10.2 5.2 C 10.4 5 10.6 4.9 10.8 4.9 C 11 4.9 11.1 5 11.2 5 C 11.4 5 11.4 5.1 11.5 5.2 C 11.6 5.2 11.7 5.3 11.7 5.4 C 11.7 5.5 11.8 5.6 11.8 5.7 C 11.8 5.9 11.7 6 11.6 6.2 C 11.6 6.4 11.4 6.5 11.3 6.7 C 11.1 6.8 11 7 10.8 7 C 10.7 7.1 10.5 7.2 10.2 7.2 Z M 10 6.4 C 10 6.6 10 6.7 10.1 6.7 C 10.1 6.8 10.2 6.9 10.3 6.9 C 10.6 6.9 10.8 6.7 11 6.5 C 11.3 6.2 11.4 6 11.4 5.7 C 11.4 5.6 11.4 5.5 11.3 5.4 C 11.3 5.4 11.2 5.3 11.1 5.3 C 11 5.2 10.9 5.2 10.8 5.2 C 10.7 5.2 10.5 5.4 10.3 5.6 C 10.1 5.9 10 6.2 10 6.4 Z M 14 5.6 C 14 5.5 14 5.5 14.1 5.5 C 14.1 5.5 13.6 6.1 13.6 6.1 C 13.3 6.4 13.2 6.6 13 6.6 C 13 6.6 12.9 6.6 12.9 6.5 C 12.8 6.4 12.8 6.3 12.8 6.2 C 12.7 6.1 12.7 6 12.7 5.9 C 12.6 5.7 12.6 5.6 12.6 5.6 C 12.6 5.6 12.5 6 12.5 6 C 12.5 6.1 12.5 6.2 12.4 6.3 C 12.4 6.5 12.4 6.6 12.3 6.7 C 12.3 6.9 12.3 7 12.3 7 C 12.3 7.1 12.3 7.1 12.2 7.1 C 12.2 7.2 12.1 7.2 12.1 7.2 C 12.1 7.2 12 7.1 12 7.1 C 12 7.1 11.9 7 11.9 7 C 11.9 6.9 12 6.8 12 6.6 C 12.2 6 12.2 5.7 12.3 5.5 C 12.3 5.3 12.3 5.2 12.3 5.1 C 12.3 5.1 12.3 5 12.4 5 C 12.4 5 12.5 5 12.6 5 C 12.6 5 12.6 5 12.7 5 C 12.7 5.1 12.7 5.1 12.7 5.2 C 12.75 5.18 12.7 5.2 12.7 5.2 C 12.7 5.2 12.95 5.75 13 5.7 C 13 6 13.1 6.1 13.1 6.2 C 13.2 6.1 13.4 5.9 13.6 5.6 C 13.8 5.3 13.9 5.1 14 5 C 14.1 5 14.1 4.9 14.2 4.9 C 14.2 4.9 14.3 4.9 14.3 5 C 14.4 5 14.4 5.1 14.4 5.1 C 14.4 5.1 14.4 5.3 14.4 5.5 C 14.3 5.7 14.3 5.9 14.3 6.2 C 14.3 6.4 14.3 6.5 14.3 6.6 C 14.3 6.6 14.3 6.7 14.3 6.8 C 14.3 6.8 14.3 6.8 14.3 6.9 C 14.3 7 14.3 7 14.2 7.1 C 14.2 7.1 14.2 7.1 14.1 7.1 C 14 7.1 13.9 7 13.9 6.8 C 13.9 6.7 13.9 6.4 13.9 6.2 C 14 5.9 14 5.7 14 5.6 C 14 5.6 14 5.6 14 5.6 Z M 16.5 7.2 C 16.3 7.2 16.2 7.1 16 6.9 C 15.9 6.8 15.8 6.6 15.8 6.4 C 15.8 6.2 15.9 6 16 5.8 C 16.1 5.5 16.3 5.3 16.5 5.2 C 16.7 5 16.9 4.9 17.1 4.9 C 17.3 4.9 17.4 5 17.5 5 C 17.6 5 17.7 5.1 17.8 5.2 C 17.9 5.2 17.9 5.3 18 5.4 C 18 5.5 18 5.6 18 5.7 C 18 5.9 18 6 17.9 6.2 C 17.8 6.4 17.7 6.5 17.6 6.7 C 17.4 6.8 17.2 7 17.1 7 C 16.9 7.1 16.7 7.2 16.5 7.2 Z M 16.2 6.4 C 16.2 6.6 16.2 6.7 16.3 6.7 C 16.4 6.8 16.5 6.9 16.6 6.9 C 16.8 6.9 17.1 6.7 17.3 6.5 C 17.5 6.2 17.6 6 17.6 5.7 C 17.6 5.6 17.6 5.5 17.6 5.4 C 17.5 5.4 17.5 5.3 17.4 5.3 C 17.3 5.2 17.2 5.2 17.1 5.2 C 16.9 5.2 16.7 5.4 16.5 5.6 C 16.3 5.9 16.2 6.2 16.2 6.4 Z M 21.6 5.1 C 21.6 5.1 21.6 5.1 21.6 5.1 C 21.6 5.1 21.5 5.1 21.4 5.2 C 21.3 5.4 21.2 5.5 21.2 5.6 C 21.1 5.7 21 6 20.8 6.3 C 20.7 6.4 20.6 6.6 20.6 6.6 C 20.5 6.7 20.4 6.9 20.4 6.9 C 20.4 7 20.4 7 20.3 7 C 20.3 7.1 20.2 7.1 20.1 7.1 C 20.1 7.1 20.1 7.1 20 7 C 20 7 20 6.9 19.9 6.7 C 19.9 6.6 19.8 6.4 19.7 6.1 C 19.4 5.5 19.3 5.2 19.3 5.2 C 19.3 5.2 19.3 5.1 19.4 5.1 C 19.4 5 19.5 5 19.5 5 C 19.6 5 19.6 5 19.6 5 C 19.7 5.1 19.7 5.2 19.8 5.3 C 19.8 5.4 19.8 5.6 20 5.9 C 20.1 6.2 20.2 6.5 20.2 6.6 C 20.3 6.6 20.3 6.5 20.3 6.4 C 20.3 6.4 20.4 6.4 20.4 6.4 C 20.5 6.2 20.6 6 20.7 5.8 C 20.9 5.5 21 5.3 21.1 5.1 C 21.2 5 21.3 4.9 21.4 4.9 C 21.5 4.9 21.6 4.9 21.6 5 C 21.55 5.04 21.6 5.1 21.6 5.1 C 21.6 5.1 21.55 5.05 21.6 5.1 Z M 22 7.2 C 21.8 7.2 21.7 7.1 21.6 6.9 C 21.4 6.8 21.4 6.6 21.4 6.4 C 21.4 6.2 21.4 6 21.6 5.8 C 21.7 5.5 21.8 5.3 22 5.2 C 22.2 5 22.4 4.9 22.6 4.9 C 22.8 4.9 22.9 5 23 5 C 23.2 5 23.2 5.1 23.3 5.2 C 23.4 5.2 23.5 5.3 23.5 5.4 C 23.5 5.5 23.6 5.6 23.6 5.7 C 23.6 5.9 23.5 6 23.4 6.2 C 23.4 6.4 23.2 6.5 23.1 6.7 C 22.9 6.8 22.8 7 22.6 7 C 22.5 7.1 22.3 7.2 22 7.2 Z M 21.8 6.4 C 21.8 6.6 21.8 6.7 21.9 6.7 C 21.9 6.8 22 6.9 22.1 6.9 C 22.4 6.9 22.6 6.7 22.8 6.5 C 23.1 6.2 23.2 6 23.2 5.7 C 23.2 5.6 23.2 5.5 23.1 5.4 C 23.1 5.4 23 5.3 22.9 5.3 C 22.8 5.2 22.7 5.2 22.6 5.2 C 22.5 5.2 22.3 5.4 22.1 5.6 C 21.9 5.9 21.8 6.2 21.8 6.4 Z M 25.4 5.3 C 25.2 5.3 25 5.3 24.9 5.3 C 24.9 5.3 24.9 5.4 24.9 5.4 C 24.9 5.4 24.9 5.6 24.8 5.9 C 24.8 6.2 24.8 6.4 24.8 6.6 C 24.8 6.7 24.8 6.8 24.8 6.9 C 24.8 6.9 24.8 6.9 24.8 6.9 C 24.8 7 24.8 7 24.8 7.1 C 24.7 7.1 24.7 7.1 24.6 7.1 C 24.6 7.1 24.6 7.1 24.5 7.1 C 24.5 7 24.4 7 24.4 6.9 C 24.4 6.8 24.4 6.7 24.4 6.6 C 24.4 6.5 24.4 6.2 24.5 5.9 C 24.5 5.5 24.5 5.4 24.5 5.4 C 24.5 5.4 24.4 5.4 24.2 5.4 C 24 5.4 23.9 5.4 23.9 5.4 C 23.8 5.4 23.7 5.4 23.7 5.4 C 23.6 5.3 23.6 5.3 23.6 5.3 C 23.6 5.2 23.6 5.2 23.7 5.1 C 23.7 5.1 23.8 5.1 24 5.1 C 24.3 5.1 24.6 5.1 24.8 5 C 25.1 5 25.4 5 25.5 5 C 25.7 5 25.8 5 25.8 5 C 25.9 5.1 25.9 5.1 25.9 5.2 C 25.9 5.3 25.9 5.3 25.8 5.3 C 25.7 5.3 25.7 5.3 25.6 5.3 C 25.6 5.3 25.5 5.3 25.4 5.3 C 25.4 5.3 25.4 5.3 25.4 5.3 Z M 26.3 7.2 C 26.2 7.2 26 7.1 25.9 6.9 C 25.7 6.8 25.7 6.6 25.7 6.4 C 25.7 6.2 25.7 6 25.9 5.8 C 26 5.5 26.1 5.3 26.3 5.2 C 26.5 5 26.7 4.9 26.9 4.9 C 27.1 4.9 27.2 5 27.3 5 C 27.5 5 27.6 5.1 27.6 5.2 C 27.7 5.2 27.8 5.3 27.8 5.4 C 27.8 5.5 27.9 5.6 27.9 5.7 C 27.9 5.9 27.8 6 27.7 6.2 C 27.7 6.4 27.5 6.5 27.4 6.7 C 27.2 6.8 27.1 7 26.9 7 C 26.8 7.1 26.6 7.2 26.3 7.2 Z M 26.1 6.4 C 26.1 6.6 26.1 6.7 26.2 6.7 C 26.2 6.8 26.3 6.9 26.4 6.9 C 26.7 6.9 26.9 6.7 27.1 6.5 C 27.4 6.2 27.5 6 27.5 5.7 C 27.5 5.6 27.5 5.5 27.4 5.4 C 27.4 5.4 27.3 5.3 27.2 5.3 C 27.1 5.2 27 5.2 26.9 5.2 C 26.8 5.2 26.6 5.4 26.4 5.6 C 26.2 5.9 26.1 6.2 26.1 6.4 Z M 29.3 6.8 C 29.3 6.8 29.3 6.7 29.3 6.6 C 29.4 6.2 29.4 5.9 29.5 5.5 C 29.5 5.4 29.5 5.4 29.5 5.3 C 29.5 5.3 29.5 5.3 29.5 5.3 C 29.4 5.3 29.3 5.2 29.3 5.2 C 29.3 5.1 29.3 5.1 29.4 5 C 29.4 5 29.4 5 29.5 5 C 29.5 5 29.7 5 29.7 5 C 29.8 5 29.9 5 30.1 5 C 30.2 4.9 30.3 4.9 30.4 4.9 C 30.7 4.9 30.9 5 31.1 5.2 C 31.2 5.3 31.3 5.5 31.3 5.8 C 31.3 6.1 31.2 6.3 30.9 6.5 C 30.7 6.8 30.3 6.9 30 7 C 29.9 7 29.8 7 29.8 7.1 C 29.7 7.1 29.7 7.1 29.6 7.1 C 29.6 7.2 29.5 7.2 29.4 7.2 C 29.4 7.2 29.3 7.2 29.3 7.1 C 29.3 7.1 29.2 7 29.2 7 C 29.2 7 29.2 7 29.3 6.9 C 29.3 6.9 29.3 6.8 29.3 6.8 Z M 29.7 6.7 C 29.7 6.7 29.7 6.7 29.7 6.8 C 29.7 6.8 29.9 6.7 30.1 6.7 C 30.4 6.6 30.6 6.5 30.7 6.3 C 30.9 6.1 31 6 31 5.8 C 31 5.6 30.9 5.5 30.8 5.4 C 30.7 5.3 30.5 5.2 30.3 5.2 C 30.2 5.2 30.1 5.2 29.9 5.3 C 29.9 5.3 29.8 5.3 29.8 5.3 C 29.7 5.9 29.7 6.4 29.7 6.7 C 29.7 6.7 29.7 6.7 29.7 6.7 Z M 32.1 5.6 C 32 5.7 32 5.8 32 5.8 C 32 5.9 32 5.9 32 6.1 C 32 6.3 31.9 6.4 31.9 6.5 C 31.9 6.6 32 6.7 32 6.9 C 32 7 32 7 31.9 7.1 C 31.9 7.1 31.8 7.1 31.8 7.1 C 31.7 7.1 31.6 7.1 31.6 7 C 31.6 7 31.6 6.9 31.6 6.7 C 31.6 6.6 31.6 6.4 31.6 6.1 C 31.6 6.1 31.7 5.5 31.7 5.5 C 31.7 5.4 31.8 5.3 31.8 5.3 C 31.8 5.1 31.8 5.1 31.8 5.1 C 31.8 5 31.9 5 31.9 5 C 31.9 5 32 4.9 32 4.9 C 32.1 4.9 32.1 5 32.1 5 C 32.2 5.1 32.2 5.1 32.2 5.2 C 32.2 5.2 32.1 5.6 32.1 5.6 Z M 34.1 5.2 C 34.1 5.4 34 5.5 33.8 5.5 C 33.8 5.4 33.8 5.3 33.7 5.3 C 33.7 5.3 33.6 5.2 33.5 5.2 C 33.3 5.2 33.2 5.3 33 5.4 C 32.9 5.4 32.8 5.5 32.8 5.6 C 32.8 5.7 32.8 5.7 32.9 5.8 C 32.9 5.8 33.1 5.9 33.3 5.9 C 33.5 6 33.7 6.1 33.8 6.2 C 33.9 6.2 34 6.3 34 6.5 C 34 6.6 33.8 6.8 33.6 7 C 33.3 7.1 33 7.2 32.7 7.2 C 32.6 7.2 32.5 7.2 32.4 7.2 C 32.4 7.1 32.3 7.1 32.3 7 C 32.3 6.9 32.3 6.9 32.4 6.9 C 32.4 6.8 32.4 6.8 32.5 6.8 C 32.5 6.8 32.5 6.8 32.5 6.8 C 32.6 6.9 32.7 6.9 32.8 6.9 C 33 6.9 33.1 6.8 33.3 6.7 C 33.5 6.7 33.6 6.6 33.6 6.5 C 33.6 6.5 33.6 6.4 33.5 6.4 C 33.5 6.4 33.4 6.3 33.3 6.3 C 33 6.2 32.9 6.1 32.8 6.1 C 32.7 6.1 32.6 6 32.5 5.9 C 32.5 5.9 32.5 5.8 32.5 5.7 C 32.5 5.5 32.6 5.3 32.8 5.2 C 33 5 33.2 4.9 33.5 4.9 C 33.7 4.9 33.8 5 33.9 5 C 34 5.1 34.1 5.2 34.1 5.2 C 34.1 5.2 34.1 5.2 34.1 5.2 Z M 35.9 5.3 C 35.7 5.3 35.5 5.3 35.4 5.3 C 35.4 5.3 35.4 5.4 35.4 5.4 C 35.4 5.4 35.3 5.6 35.3 5.9 C 35.3 6.2 35.3 6.4 35.3 6.6 C 35.3 6.7 35.3 6.8 35.3 6.9 C 35.3 6.9 35.3 6.9 35.3 6.9 C 35.3 7 35.3 7 35.2 7.1 C 35.2 7.1 35.2 7.1 35.1 7.1 C 35.1 7.1 35.1 7.1 35 7.1 C 35 7 34.9 7 34.9 6.9 C 34.9 6.8 34.9 6.7 34.9 6.6 C 34.9 6.5 34.9 6.2 35 5.9 C 35 5.5 35 5.4 35 5.4 C 35 5.4 34.9 5.4 34.7 5.4 C 34.5 5.4 34.4 5.4 34.4 5.4 C 34.3 5.4 34.2 5.4 34.2 5.4 C 34.1 5.3 34.1 5.3 34.1 5.3 C 34.1 5.2 34.1 5.2 34.2 5.1 C 34.2 5.1 34.3 5.1 34.5 5.1 C 34.8 5.1 35 5.1 35.3 5 C 35.6 5 35.8 5 36 5 C 36.2 5 36.3 5 36.3 5 C 36.4 5.1 36.4 5.1 36.4 5.2 C 36.4 5.3 36.3 5.3 36.3 5.3 C 36.2 5.3 36.2 5.3 36.1 5.3 C 36.1 5.3 36 5.3 35.9 5.3 C 35.9 5.3 35.9 5.3 35.9 5.3 Z M 36.4 5.3 C 36.4 5.3 36.41 5.28 36.4 5.3 C 36.4 5.2 36.4 5.2 36.4 5.2 C 36.4 5.1 36.4 5.1 36.4 5 C 36.5 5 36.5 5 36.6 5 C 36.6 5 36.6 5 36.6 5 C 36.7 5 36.7 5 36.7 5 C 37 5 37.2 4.9 37.3 4.9 C 37.5 4.9 37.7 5 37.8 5.1 C 37.9 5.2 38 5.3 38 5.5 C 38 5.6 37.9 5.8 37.8 5.9 C 37.7 6 37.5 6.1 37.3 6.2 C 37.7 6.5 37.9 6.7 38.1 6.8 C 38.2 6.8 38.2 6.9 38.2 6.9 C 38.2 7 38.2 7 38.1 7 C 38.1 7.1 38 7.1 38 7.1 C 37.9 7.1 37.9 7.1 37.8 7 C 37.7 7 37.6 6.9 37.5 6.8 C 37.4 6.7 37.3 6.6 37.3 6.6 C 37.1 6.5 37 6.4 36.9 6.3 C 36.8 6.3 36.7 6.3 36.7 6.1 C 36.7 6.1 36.7 6.1 36.8 6 C 36.8 6 36.9 6 36.9 6 C 37 6 37 6 37 6 C 37 6 37 6 37 6 C 37.1 6 37.2 5.9 37.4 5.8 C 37.6 5.7 37.6 5.6 37.6 5.5 C 37.6 5.4 37.6 5.3 37.5 5.3 C 37.5 5.2 37.4 5.2 37.3 5.2 C 37.1 5.2 37 5.2 36.9 5.2 C 36.9 5.3 36.8 5.3 36.8 5.3 C 36.8 5.3 36.8 5.3 36.8 5.3 C 36.8 5.3 36.8 5.4 36.7 5.6 C 36.7 5.8 36.7 6 36.6 6.2 C 36.6 6.4 36.6 6.6 36.6 6.7 C 36.6 6.7 36.6 6.8 36.6 6.8 C 36.6 6.9 36.6 6.9 36.6 7 C 36.6 7 36.6 7 36.6 7.1 C 36.5 7.1 36.5 7.1 36.4 7.1 C 36.3 7.1 36.2 7.1 36.2 6.9 C 36.2 6.7 36.2 6.5 36.3 6.2 C 36.3 6 36.3 5.7 36.4 5.5 C 36.4 5.5 36.4 5.4 36.4 5.4 C 36.41 5.41 36.4 5.3 36.4 5.3 Z M 38.9 5.6 C 38.8 5.7 38.8 5.8 38.8 5.8 C 38.8 5.9 38.8 5.9 38.8 6.1 C 38.8 6.3 38.8 6.4 38.8 6.5 C 38.8 6.6 38.8 6.7 38.8 6.9 C 38.8 7 38.8 7 38.7 7.1 C 38.7 7.1 38.6 7.1 38.6 7.1 C 38.5 7.1 38.5 7.1 38.4 7 C 38.4 7 38.4 6.9 38.4 6.7 C 38.4 6.6 38.4 6.4 38.4 6.1 C 38.4 6.1 38.5 5.5 38.5 5.5 C 38.5 5.4 38.6 5.3 38.6 5.3 C 38.6 5.1 38.6 5.1 38.6 5.1 C 38.6 5 38.7 5 38.7 5 C 38.7 5 38.8 4.9 38.8 4.9 C 38.9 4.9 38.9 5 38.9 5 C 39 5.1 39 5.1 39 5.2 C 39 5.2 38.9 5.6 38.9 5.6 Z M 40.9 5.3 C 40.6 5.3 40.4 5.3 40.3 5.3 C 40.3 5.3 40.3 5.4 40.3 5.4 C 40.3 5.4 40.3 5.6 40.3 5.9 C 40.2 6.2 40.2 6.4 40.2 6.6 C 40.2 6.7 40.2 6.8 40.2 6.9 C 40.2 6.9 40.3 6.9 40.3 6.9 C 40.3 7 40.2 7 40.2 7.1 C 40.2 7.1 40.1 7.1 40.1 7.1 C 40.1 7.1 40 7.1 40 7.1 C 39.9 7 39.9 7 39.9 6.9 C 39.9 6.8 39.9 6.7 39.9 6.6 C 39.9 6.5 39.9 6.2 39.9 5.9 C 40 5.5 40 5.4 40 5.4 C 40 5.4 39.9 5.4 39.7 5.4 C 39.5 5.4 39.4 5.4 39.3 5.4 C 39.2 5.4 39.2 5.4 39.1 5.4 C 39.1 5.3 39.1 5.3 39.1 5.3 C 39.1 5.2 39.1 5.2 39.1 5.1 C 39.2 5.1 39.3 5.1 39.4 5.1 C 39.7 5.1 40 5.1 40.3 5 C 40.6 5 40.8 5 41 5 C 41.1 5 41.2 5 41.3 5 C 41.3 5.1 41.3 5.1 41.3 5.2 C 41.3 5.3 41.3 5.3 41.2 5.3 C 41.2 5.3 41.1 5.3 41.1 5.3 C 41 5.3 40.9 5.3 40.9 5.3 C 40.9 5.3 40.9 5.3 40.9 5.3 Z M 41.5 6.6 C 41.5 6.6 41.5 6.6 41.5 6.6 C 41.4 6.6 41.4 6.7 41.3 6.9 C 41.2 7 41.2 7.1 41.1 7.1 C 41.1 7.1 41.1 7.1 41 7.1 C 41 7.1 41 7.1 40.9 7.1 C 40.9 7 40.8 7 40.8 7 C 40.8 6.9 41 6.7 41.2 6.3 C 41.3 6.1 41.5 5.9 41.6 5.7 C 41.8 5.3 41.9 5.1 42 5 C 42 5 42.1 4.9 42.1 4.9 C 42.2 4.9 42.3 4.9 42.3 5 C 42.3 5 42.3 5 42.3 5.1 C 42.3 5.1 42.3 5.2 42.3 5.2 C 42.5 5.7 42.6 6.1 42.7 6.3 C 42.8 6.6 42.9 6.7 43 6.8 C 43.1 6.9 43.1 6.9 43.1 6.9 C 43.2 6.9 43.2 7 43.2 7 C 43.2 7.1 43.1 7.1 43.1 7.1 C 43.1 7.2 43 7.2 43 7.2 C 42.9 7.2 42.8 7.1 42.7 7.1 C 42.7 7 42.6 6.9 42.5 6.7 C 42.4 6.6 42.4 6.5 42.4 6.5 C 42.4 6.5 42.4 6.4 42.4 6.4 C 42.4 6.4 42.2 6.5 42.1 6.5 C 41.9 6.5 41.7 6.6 41.6 6.6 C 41.6 6.6 41.6 6.6 41.5 6.6 C 41.5 6.6 41.5 6.6 41.5 6.6 Z M 42.2 6.2 C 42.2 6.2 42.3 6.2 42.3 6.2 C 42.3 6.1 42.2 5.9 42.1 5.5 C 42.1 5.5 42.1 5.5 42.1 5.5 C 42.1 5.5 41.7 6.3 41.7 6.3 C 41.7 6.3 41.8 6.2 41.8 6.2 C 41.9 6.2 42 6.2 42.2 6.2 C 42.2 6.2 42.2 6.2 42.2 6.2 Z M 44.7 7 C 44.7 7 44.7 7 44.6 7 C 44.6 7 44.5 7 44.5 7 C 44.2 7 44 7 43.7 7.1 C 43.6 7.1 43.5 7.2 43.5 7.2 C 43.4 7.2 43.4 7.1 43.4 7.1 C 43.3 7 43.3 7 43.3 7 C 43.3 6.9 43.3 6.9 43.3 6.8 C 43.4 6.7 43.4 6.6 43.4 6.5 C 43.4 6.5 43.5 5.3 43.5 5.3 C 43.5 5.2 43.5 5.1 43.6 5.1 C 43.6 5 43.6 5 43.6 5 C 43.7 5 43.7 4.9 43.8 4.9 C 43.8 4.9 43.8 5 43.9 5 C 43.9 5 43.9 5.1 43.9 5.1 C 43.9 5.1 43.9 5.2 43.9 5.3 C 43.9 5.4 43.8 5.7 43.8 6.1 C 43.8 6.5 43.7 6.7 43.7 6.7 C 43.7 6.7 43.7 6.8 43.7 6.8 C 43.8 6.8 43.9 6.7 44.1 6.7 C 44.1 6.7 44.2 6.7 44.3 6.7 C 44.5 6.7 44.7 6.7 44.8 6.6 C 44.8 6.6 44.8 6.6 44.8 6.6 C 44.9 6.6 44.9 6.6 45 6.7 C 45 6.7 45 6.7 45 6.8 C 45 6.9 45 6.9 44.9 6.9 C 44.9 7 44.8 7 44.7 7 Z M 47 6.4 C 46.9 6.4 46.8 6.4 46.8 6.4 C 46.7 6.6 46.7 6.8 46.7 7 C 46.7 7 46.7 7.1 46.7 7.1 C 46.6 7.1 46.6 7.2 46.5 7.2 C 46.4 7.2 46.4 7.1 46.4 7 C 46.4 6.9 46.4 6.6 46.4 6.2 C 46.5 5.8 46.5 5.6 46.5 5.5 C 46.5 5.4 46.5 5.4 46.5 5.4 C 46.4 5.4 46.4 5.3 46.4 5.2 C 46.4 5.1 46.5 5.1 46.8 5 C 47.1 4.9 47.3 4.9 47.5 4.9 C 47.7 4.9 47.9 5 48 5 C 48.1 5.1 48.2 5.3 48.2 5.4 C 48.2 5.6 48.1 5.8 47.9 6 C 47.6 6.2 47.3 6.3 47 6.4 C 47 6.4 47 6.4 47 6.4 Z M 47.5 5.2 C 47.3 5.2 47.1 5.2 46.9 5.3 C 46.9 5.3 46.8 6.1 46.8 6.1 C 47.1 6 47.3 6 47.5 5.8 C 47.8 5.7 47.9 5.6 47.9 5.4 C 47.9 5.3 47.7 5.2 47.5 5.2 C 47.5 5.2 47.5 5.2 47.5 5.2 Z M 48.9 7.2 C 48.8 7.2 48.6 7.1 48.5 6.9 C 48.4 6.8 48.3 6.6 48.3 6.4 C 48.3 6.2 48.4 6 48.5 5.8 C 48.6 5.5 48.8 5.3 48.9 5.2 C 49.1 5 49.3 4.9 49.6 4.9 C 49.7 4.9 49.8 5 50 5 C 50.1 5 50.2 5.1 50.2 5.2 C 50.3 5.2 50.4 5.3 50.4 5.4 C 50.5 5.5 50.5 5.6 50.5 5.7 C 50.5 5.9 50.4 6 50.4 6.2 C 50.3 6.4 50.2 6.5 50 6.7 C 49.9 6.8 49.7 7 49.5 7 C 49.4 7.1 49.2 7.2 48.9 7.2 Z M 48.7 6.4 C 48.7 6.6 48.7 6.7 48.8 6.7 C 48.8 6.8 48.9 6.9 49 6.9 C 49.3 6.9 49.5 6.7 49.8 6.5 C 50 6.2 50.1 6 50.1 5.7 C 50.1 5.6 50.1 5.5 50 5.4 C 50 5.4 49.9 5.3 49.8 5.3 C 49.8 5.2 49.7 5.2 49.6 5.2 C 49.4 5.2 49.2 5.4 49 5.6 C 48.8 5.9 48.7 6.2 48.7 6.4 Z M 50.8 6.8 C 50.8 6.8 50.8 6.7 50.8 6.6 C 50.8 6.2 50.9 5.9 50.9 5.5 C 50.9 5.4 50.9 5.4 50.9 5.3 C 50.9 5.3 50.9 5.3 50.9 5.3 C 50.8 5.3 50.8 5.2 50.8 5.2 C 50.8 5.1 50.8 5.1 50.8 5 C 50.9 5 50.9 5 51 5 C 51 5 51.2 5 51.2 5 C 51.3 5 51.4 5 51.5 5 C 51.7 4.9 51.8 4.9 51.9 4.9 C 52.1 4.9 52.4 5 52.5 5.2 C 52.7 5.3 52.8 5.5 52.8 5.8 C 52.8 6.1 52.6 6.3 52.4 6.5 C 52.1 6.8 51.8 6.9 51.4 7 C 51.3 7 51.3 7 51.2 7.1 C 51.2 7.1 51.1 7.1 51.1 7.1 C 51 7.2 51 7.2 50.9 7.2 C 50.8 7.2 50.8 7.2 50.8 7.1 C 50.7 7.1 50.7 7 50.7 7 C 50.7 7 50.7 7 50.7 6.9 C 50.7 6.9 50.8 6.8 50.8 6.8 Z M 51.1 6.7 C 51.1 6.7 51.1 6.7 51.2 6.8 C 51.2 6.8 51.4 6.7 51.6 6.7 C 51.8 6.6 52 6.5 52.2 6.3 C 52.3 6.1 52.4 6 52.4 5.8 C 52.4 5.6 52.4 5.5 52.3 5.4 C 52.1 5.3 52 5.2 51.8 5.2 C 51.7 5.2 51.5 5.2 51.4 5.3 C 51.3 5.3 51.3 5.3 51.3 5.3 C 51.2 5.9 51.1 6.4 51.1 6.7 C 51.1 6.7 51.1 6.7 51.1 6.7 Z M 54.7 5.3 C 54.7 5.3 54.2 5.3 54.2 5.3 C 54.1 5.3 53.9 5.3 53.8 5.3 C 53.7 5.3 53.6 5.4 53.6 5.4 C 53.6 5.4 53.6 5.4 53.6 5.5 C 53.6 5.5 53.6 5.6 53.6 5.7 C 53.5 5.8 53.5 5.9 53.5 5.9 C 53.6 5.9 53.7 5.9 53.8 5.9 C 53.9 5.9 54 5.9 54 5.9 C 54.2 5.9 54.3 5.8 54.4 5.8 C 54.5 5.8 54.6 5.9 54.6 6 C 54.6 6 54.6 6.1 54.5 6.1 C 54.5 6.1 54.4 6.2 54.3 6.2 C 54.3 6.2 54.2 6.2 54.1 6.2 C 54.1 6.2 54.1 6.2 54 6.2 C 53.7 6.2 53.6 6.3 53.5 6.3 C 53.5 6.3 53.5 6.3 53.5 6.3 C 53.5 6.3 53.5 6.3 53.5 6.3 C 53.5 6.3 53.5 6.4 53.4 6.5 C 53.4 6.7 53.4 6.8 53.4 6.8 C 53.4 6.8 53.4 6.9 53.5 6.9 C 53.5 6.9 53.6 6.8 53.8 6.8 C 54 6.8 54.2 6.8 54.2 6.8 C 54.4 6.7 54.4 6.7 54.5 6.7 C 54.6 6.7 54.7 6.8 54.7 6.9 C 54.7 6.9 54.7 7 54.6 7 C 54.5 7 54.4 7.1 54.2 7.1 C 54.1 7.1 53.9 7.1 53.7 7.1 C 53.6 7.2 53.4 7.2 53.2 7.2 C 53.2 7.2 53.1 7.2 53.1 7.1 C 53 7.1 53 7 53 7 C 53 7 53 6.9 53 6.9 C 53 6.9 53 6.9 53 6.8 C 53.1 6.7 53.1 6.5 53.2 6 C 53.2 5.6 53.3 5.4 53.3 5.3 C 53.3 5.3 53.3 5.3 53.3 5.3 C 53.2 5.3 53.2 5.3 53.2 5.3 C 53.2 5.2 53.2 5.2 53.2 5.2 C 53.2 5.2 53.2 5.1 53.2 5.1 C 53.2 5.1 53.2 5.1 53.3 5.1 C 53.3 5.1 53.3 5 53.4 5 C 53.4 5 53.5 5 53.5 5.1 C 53.6 5.1 53.9 5 54.3 5 C 54.5 4.9 54.5 4.9 54.5 4.9 C 54.5 4.9 54.6 4.9 54.6 4.9 C 54.7 4.9 54.8 5 54.8 5.1 C 54.8 5.1 54.8 5.2 54.8 5.2 C 54.7 5.2 54.7 5.2 54.7 5.3 Z M 57 5.6 C 57.1 5.5 57.1 5.5 57.1 5.5 C 57.1 5.5 56.6 6.1 56.6 6.1 C 56.4 6.4 56.2 6.6 56.1 6.6 C 56 6.6 55.9 6.6 55.9 6.5 C 55.9 6.4 55.8 6.3 55.8 6.2 C 55.7 6.1 55.7 6 55.7 5.9 C 55.6 5.7 55.6 5.6 55.6 5.6 C 55.6 5.6 55.5 6 55.5 6 C 55.5 6.1 55.5 6.2 55.4 6.3 C 55.4 6.5 55.4 6.6 55.4 6.7 C 55.3 6.9 55.3 7 55.3 7 C 55.3 7.1 55.3 7.1 55.2 7.1 C 55.2 7.2 55.2 7.2 55.1 7.2 C 55.1 7.2 55 7.1 55 7.1 C 55 7.1 54.9 7 54.9 7 C 54.9 6.9 55 6.8 55 6.6 C 55.2 6 55.3 5.7 55.3 5.5 C 55.3 5.3 55.3 5.2 55.3 5.1 C 55.3 5.1 55.3 5 55.4 5 C 55.4 5 55.5 5 55.6 5 C 55.6 5 55.6 5 55.7 5 C 55.7 5.1 55.8 5.1 55.8 5.2 C 55.76 5.18 55.8 5.2 55.8 5.2 C 55.8 5.2 55.97 5.75 56 5.7 C 56 6 56.1 6.1 56.1 6.2 C 56.2 6.1 56.4 5.9 56.6 5.6 C 56.8 5.3 56.9 5.1 57 5 C 57.1 5 57.2 4.9 57.2 4.9 C 57.2 4.9 57.3 4.9 57.3 5 C 57.4 5 57.4 5.1 57.4 5.1 C 57.4 5.1 57.4 5.3 57.4 5.5 C 57.3 5.7 57.3 5.9 57.3 6.2 C 57.3 6.4 57.3 6.5 57.3 6.6 C 57.3 6.6 57.3 6.7 57.3 6.8 C 57.3 6.8 57.3 6.8 57.3 6.9 C 57.3 7 57.3 7 57.3 7.1 C 57.2 7.1 57.2 7.1 57.1 7.1 C 57 7.1 56.9 7 56.9 6.8 C 56.9 6.7 56.9 6.4 57 6.2 C 57 5.9 57 5.7 57 5.6 C 57 5.6 57 5.6 57 5.6 Z M 58.3 7.2 C 58.2 7.2 58 7.1 57.9 6.9 C 57.8 6.8 57.7 6.6 57.7 6.4 C 57.7 6.2 57.8 6 57.9 5.8 C 58 5.5 58.2 5.3 58.4 5.2 C 58.6 5 58.8 4.9 59 4.9 C 59.1 4.9 59.3 5 59.4 5 C 59.5 5 59.6 5.1 59.7 5.2 C 59.8 5.2 59.8 5.3 59.8 5.4 C 59.9 5.5 59.9 5.6 59.9 5.7 C 59.9 5.9 59.9 6 59.8 6.2 C 59.7 6.4 59.6 6.5 59.4 6.7 C 59.3 6.8 59.1 7 59 7 C 58.8 7.1 58.6 7.2 58.3 7.2 Z M 58.1 6.4 C 58.1 6.6 58.1 6.7 58.2 6.7 C 58.3 6.8 58.3 6.9 58.4 6.9 C 58.7 6.9 58.9 6.7 59.2 6.5 C 59.4 6.2 59.5 6 59.5 5.7 C 59.5 5.6 59.5 5.5 59.5 5.4 C 59.4 5.4 59.4 5.3 59.3 5.3 C 59.2 5.2 59.1 5.2 59 5.2 C 58.8 5.2 58.6 5.4 58.4 5.6 C 58.2 5.9 58.1 6.2 58.1 6.4 Z M 61.7 5.2 C 61.7 5.4 61.7 5.5 61.5 5.5 C 61.5 5.4 61.4 5.3 61.4 5.3 C 61.3 5.3 61.3 5.2 61.2 5.2 C 61 5.2 60.9 5.3 60.7 5.4 C 60.6 5.4 60.5 5.5 60.5 5.6 C 60.5 5.7 60.5 5.7 60.6 5.8 C 60.6 5.8 60.8 5.9 61 5.9 C 61.2 6 61.4 6.1 61.5 6.2 C 61.6 6.2 61.7 6.3 61.7 6.5 C 61.7 6.6 61.5 6.8 61.2 7 C 61 7.1 60.7 7.2 60.4 7.2 C 60.3 7.2 60.2 7.2 60.1 7.2 C 60 7.1 60 7.1 60 7 C 60 6.9 60 6.9 60.1 6.9 C 60.1 6.8 60.1 6.8 60.2 6.8 C 60.2 6.8 60.2 6.8 60.2 6.8 C 60.3 6.9 60.4 6.9 60.5 6.9 C 60.7 6.9 60.8 6.8 61 6.7 C 61.2 6.7 61.3 6.6 61.3 6.5 C 61.3 6.5 61.3 6.4 61.2 6.4 C 61.2 6.4 61.1 6.3 60.9 6.3 C 60.7 6.2 60.6 6.1 60.5 6.1 C 60.4 6.1 60.3 6 60.2 5.9 C 60.2 5.9 60.1 5.8 60.1 5.7 C 60.1 5.5 60.2 5.3 60.5 5.2 C 60.7 5 60.9 4.9 61.2 4.9 C 61.4 4.9 61.5 5 61.6 5 C 61.7 5.1 61.7 5.2 61.7 5.2 C 61.7 5.2 61.7 5.2 61.7 5.2 Z M 64.7 5.3 C 64.5 5.3 64.3 5.3 64.2 5.3 C 64.2 5.3 64.2 5.4 64.2 5.4 C 64.2 5.4 64.2 5.6 64.1 5.9 C 64.1 6.2 64.1 6.4 64.1 6.6 C 64.1 6.7 64.1 6.8 64.1 6.9 C 64.1 6.9 64.1 6.9 64.1 6.9 C 64.1 7 64.1 7 64.1 7.1 C 64 7.1 64 7.1 64 7.1 C 63.9 7.1 63.9 7.1 63.8 7.1 C 63.8 7 63.8 7 63.7 6.9 C 63.7 6.8 63.7 6.7 63.7 6.6 C 63.7 6.5 63.8 6.2 63.8 5.9 C 63.8 5.5 63.9 5.4 63.9 5.4 C 63.8 5.4 63.7 5.4 63.5 5.4 C 63.3 5.4 63.2 5.4 63.2 5.4 C 63.1 5.4 63 5.4 63 5.4 C 63 5.3 62.9 5.3 62.9 5.3 C 62.9 5.2 63 5.2 63 5.1 C 63 5.1 63.1 5.1 63.3 5.1 C 63.6 5.1 63.9 5.1 64.1 5 C 64.4 5 64.7 5 64.8 5 C 65 5 65.1 5 65.1 5 C 65.2 5.1 65.2 5.1 65.2 5.2 C 65.2 5.3 65.2 5.3 65.1 5.3 C 65.1 5.3 65 5.3 64.9 5.3 C 64.9 5.3 64.8 5.3 64.7 5.3 C 64.7 5.3 64.7 5.3 64.7 5.3 Z M 66.7 5.3 C 66.7 5.3 66.3 5.3 66.3 5.3 C 66.1 5.3 66 5.3 65.9 5.3 C 65.8 5.3 65.7 5.4 65.7 5.4 C 65.7 5.4 65.7 5.4 65.7 5.5 C 65.7 5.5 65.6 5.6 65.6 5.7 C 65.6 5.8 65.6 5.9 65.6 5.9 C 65.6 5.9 65.7 5.9 65.8 5.9 C 66 5.9 66 5.9 66.1 5.9 C 66.2 5.9 66.3 5.8 66.4 5.8 C 66.6 5.8 66.6 5.9 66.6 6 C 66.6 6 66.6 6.1 66.6 6.1 C 66.5 6.1 66.5 6.2 66.4 6.2 C 66.3 6.2 66.3 6.2 66.2 6.2 C 66.1 6.2 66.1 6.2 66 6.2 C 65.8 6.2 65.6 6.3 65.6 6.3 C 65.6 6.3 65.6 6.3 65.6 6.3 C 65.6 6.3 65.5 6.3 65.5 6.3 C 65.5 6.3 65.5 6.4 65.5 6.5 C 65.5 6.7 65.5 6.8 65.5 6.8 C 65.5 6.8 65.5 6.9 65.5 6.9 C 65.6 6.9 65.7 6.8 65.9 6.8 C 66.1 6.8 66.2 6.8 66.3 6.8 C 66.4 6.7 66.5 6.7 66.5 6.7 C 66.6 6.7 66.7 6.8 66.7 6.9 C 66.7 6.9 66.7 7 66.7 7 C 66.6 7 66.4 7.1 66.3 7.1 C 66.1 7.1 66 7.1 65.8 7.1 C 65.6 7.2 65.4 7.2 65.3 7.2 C 65.2 7.2 65.2 7.2 65.1 7.1 C 65.1 7.1 65.1 7 65.1 7 C 65.1 7 65.1 6.9 65.1 6.9 C 65.1 6.9 65.1 6.9 65.1 6.8 C 65.1 6.7 65.2 6.5 65.2 6 C 65.3 5.6 65.3 5.4 65.3 5.3 C 65.3 5.3 65.3 5.3 65.3 5.3 C 65.3 5.3 65.3 5.3 65.3 5.3 C 65.2 5.2 65.2 5.2 65.2 5.2 C 65.2 5.2 65.2 5.1 65.2 5.1 C 65.3 5.1 65.3 5.1 65.3 5.1 C 65.3 5.1 65.4 5 65.4 5 C 65.5 5 65.5 5 65.6 5.1 C 65.6 5.1 65.9 5 66.3 5 C 66.5 4.9 66.6 4.9 66.6 4.9 C 66.6 4.9 66.6 4.9 66.6 4.9 C 66.8 4.9 66.9 5 66.9 5.1 C 66.9 5.1 66.8 5.2 66.8 5.2 C 66.8 5.2 66.8 5.2 66.7 5.3 Z M 67.2 5.3 C 67.2 5.3 67.23 5.28 67.2 5.3 C 67.2 5.2 67.2 5.2 67.2 5.2 C 67.2 5.1 67.2 5.1 67.3 5 C 67.3 5 67.3 5 67.4 5 C 67.4 5 67.4 5 67.4 5 C 67.5 5 67.5 5 67.5 5 C 67.8 5 68 4.9 68.1 4.9 C 68.3 4.9 68.5 5 68.6 5.1 C 68.7 5.2 68.8 5.3 68.8 5.5 C 68.8 5.6 68.7 5.8 68.6 5.9 C 68.5 6 68.3 6.1 68.1 6.2 C 68.5 6.5 68.7 6.7 68.9 6.8 C 69 6.8 69 6.9 69 6.9 C 69 7 69 7 68.9 7 C 68.9 7.1 68.9 7.1 68.8 7.1 C 68.8 7.1 68.7 7.1 68.6 7 C 68.6 7 68.5 6.9 68.3 6.8 C 68.2 6.7 68.1 6.6 68.1 6.6 C 67.9 6.5 67.8 6.4 67.7 6.3 C 67.6 6.3 67.5 6.3 67.5 6.1 C 67.5 6.1 67.6 6.1 67.6 6 C 67.6 6 67.7 6 67.8 6 C 67.8 6 67.8 6 67.8 6 C 67.8 6 67.8 6 67.9 6 C 67.9 6 68 5.9 68.2 5.8 C 68.4 5.7 68.5 5.6 68.5 5.5 C 68.5 5.4 68.4 5.3 68.3 5.3 C 68.3 5.2 68.2 5.2 68.1 5.2 C 67.9 5.2 67.8 5.2 67.8 5.2 C 67.7 5.3 67.6 5.3 67.6 5.3 C 67.6 5.3 67.6 5.3 67.6 5.3 C 67.6 5.3 67.6 5.4 67.5 5.6 C 67.5 5.8 67.5 6 67.5 6.2 C 67.4 6.4 67.4 6.6 67.4 6.7 C 67.4 6.7 67.4 6.8 67.4 6.8 C 67.4 6.9 67.4 6.9 67.4 7 C 67.4 7 67.4 7 67.4 7.1 C 67.3 7.1 67.3 7.1 67.2 7.1 C 67.1 7.1 67 7.1 67 6.9 C 67 6.7 67.1 6.5 67.1 6.2 C 67.1 6 67.2 5.7 67.2 5.5 C 67.2 5.5 67.2 5.4 67.2 5.4 C 67.22 5.41 67.2 5.3 67.2 5.3 Z M 72.4 5.6 C 72.4 5.5 72.4 5.5 72.4 5.5 C 72.4 5.5 71.9 6.1 71.9 6.1 C 71.7 6.4 71.5 6.6 71.4 6.6 C 71.3 6.6 71.3 6.6 71.2 6.5 C 71.2 6.4 71.1 6.3 71.1 6.2 C 71 6.1 71 6 71 5.9 C 70.9 5.7 70.9 5.6 70.9 5.6 C 70.9 5.6 70.8 6 70.8 6 C 70.8 6.1 70.8 6.2 70.7 6.3 C 70.7 6.5 70.7 6.6 70.7 6.7 C 70.6 6.9 70.6 7 70.6 7 C 70.6 7.1 70.6 7.1 70.5 7.1 C 70.5 7.2 70.5 7.2 70.4 7.2 C 70.4 7.2 70.4 7.1 70.3 7.1 C 70.3 7.1 70.3 7 70.3 7 C 70.3 6.9 70.3 6.8 70.3 6.6 C 70.5 6 70.6 5.7 70.6 5.5 C 70.6 5.3 70.6 5.2 70.6 5.1 C 70.6 5.1 70.6 5 70.7 5 C 70.7 5 70.8 5 70.9 5 C 70.9 5 70.9 5 71 5 C 71 5.1 71.1 5.1 71.1 5.2 C 71.07 5.18 71.1 5.2 71.1 5.2 C 71.1 5.2 71.27 5.75 71.3 5.7 C 71.4 6 71.4 6.1 71.4 6.2 C 71.5 6.1 71.7 5.9 71.9 5.6 C 72.1 5.3 72.3 5.1 72.3 5 C 72.4 5 72.5 4.9 72.5 4.9 C 72.5 4.9 72.6 4.9 72.6 5 C 72.7 5 72.7 5.1 72.7 5.1 C 72.7 5.1 72.7 5.3 72.7 5.5 C 72.7 5.7 72.6 5.9 72.6 6.2 C 72.6 6.4 72.6 6.5 72.6 6.6 C 72.6 6.6 72.6 6.7 72.6 6.8 C 72.6 6.8 72.6 6.8 72.6 6.9 C 72.6 7 72.6 7 72.6 7.1 C 72.5 7.1 72.5 7.1 72.4 7.1 C 72.3 7.1 72.2 7 72.2 6.8 C 72.2 6.7 72.2 6.4 72.3 6.2 C 72.3 5.9 72.3 5.7 72.4 5.6 C 72.4 5.6 72.4 5.6 72.4 5.6 Z M 73.6 6.6 C 73.5 6.6 73.5 6.6 73.5 6.6 C 73.4 6.6 73.4 6.7 73.3 6.9 C 73.2 7 73.2 7.1 73.1 7.1 C 73.1 7.1 73.1 7.1 73 7.1 C 73 7.1 73 7.1 72.9 7.1 C 72.9 7 72.8 7 72.8 7 C 72.8 6.9 73 6.7 73.2 6.3 C 73.3 6.1 73.5 5.9 73.6 5.7 C 73.8 5.3 73.9 5.1 74 5 C 74 5 74.1 4.9 74.1 4.9 C 74.2 4.9 74.3 4.9 74.3 5 C 74.3 5 74.3 5 74.3 5.1 C 74.3 5.1 74.3 5.2 74.3 5.2 C 74.5 5.7 74.7 6.1 74.8 6.3 C 74.9 6.6 75 6.7 75.1 6.8 C 75.1 6.9 75.1 6.9 75.1 6.9 C 75.2 6.9 75.2 7 75.2 7 C 75.2 7.1 75.1 7.1 75.1 7.1 C 75.1 7.2 75 7.2 75 7.2 C 74.9 7.2 74.8 7.1 74.7 7.1 C 74.7 7 74.6 6.9 74.5 6.7 C 74.5 6.6 74.4 6.5 74.4 6.5 C 74.4 6.5 74.4 6.4 74.4 6.4 C 74.4 6.4 74.2 6.5 74.1 6.5 C 73.9 6.5 73.7 6.6 73.6 6.6 C 73.6 6.6 73.6 6.6 73.6 6.6 C 73.6 6.6 73.6 6.6 73.6 6.6 Z M 74.2 6.2 C 74.2 6.2 74.3 6.2 74.3 6.2 C 74.3 6.1 74.2 5.9 74.1 5.5 C 74.1 5.5 74.1 5.5 74.1 5.5 C 74.1 5.5 73.7 6.3 73.7 6.3 C 73.7 6.3 73.8 6.2 73.8 6.2 C 73.9 6.2 74 6.2 74.2 6.2 C 74.2 6.2 74.2 6.2 74.2 6.2 Z M 75.9 5.6 C 75.8 5.7 75.8 5.8 75.8 5.8 C 75.8 5.9 75.8 5.9 75.8 6.1 C 75.8 6.3 75.7 6.4 75.7 6.5 C 75.7 6.6 75.8 6.7 75.8 6.9 C 75.8 7 75.8 7 75.7 7.1 C 75.7 7.1 75.6 7.1 75.6 7.1 C 75.5 7.1 75.4 7.1 75.4 7 C 75.4 7 75.4 6.9 75.4 6.7 C 75.4 6.6 75.4 6.4 75.4 6.1 C 75.4 6.1 75.5 5.5 75.5 5.5 C 75.5 5.4 75.6 5.3 75.6 5.3 C 75.6 5.1 75.6 5.1 75.6 5.1 C 75.6 5 75.7 5 75.7 5 C 75.7 5 75.8 4.9 75.8 4.9 C 75.9 4.9 75.9 5 75.9 5 C 76 5.1 76 5.1 76 5.2 C 76 5.2 75.9 5.6 75.9 5.6 Z M 77.9 5.2 C 77.9 5.4 77.8 5.5 77.6 5.5 C 77.6 5.4 77.5 5.3 77.5 5.3 C 77.4 5.3 77.4 5.2 77.3 5.2 C 77.1 5.2 77 5.3 76.8 5.4 C 76.7 5.4 76.6 5.5 76.6 5.6 C 76.6 5.7 76.6 5.7 76.7 5.8 C 76.7 5.8 76.9 5.9 77.1 5.9 C 77.3 6 77.5 6.1 77.6 6.2 C 77.7 6.2 77.8 6.3 77.8 6.5 C 77.8 6.6 77.6 6.8 77.4 7 C 77.1 7.1 76.8 7.2 76.5 7.2 C 76.4 7.2 76.3 7.2 76.2 7.2 C 76.2 7.1 76.1 7.1 76.1 7 C 76.1 6.9 76.1 6.9 76.2 6.9 C 76.2 6.8 76.2 6.8 76.3 6.8 C 76.3 6.8 76.3 6.8 76.3 6.8 C 76.4 6.9 76.5 6.9 76.6 6.9 C 76.8 6.9 76.9 6.8 77.1 6.7 C 77.3 6.7 77.4 6.6 77.4 6.5 C 77.4 6.5 77.4 6.4 77.3 6.4 C 77.3 6.4 77.2 6.3 77.1 6.3 C 76.8 6.2 76.7 6.1 76.6 6.1 C 76.5 6.1 76.4 6 76.3 5.9 C 76.3 5.9 76.3 5.8 76.3 5.7 C 76.3 5.5 76.4 5.3 76.6 5.2 C 76.8 5 77 4.9 77.3 4.9 C 77.5 4.9 77.6 5 77.7 5 C 77.8 5.1 77.9 5.2 77.9 5.2 C 77.9 5.2 77.9 5.2 77.9 5.2 Z " stroke="none" fill="#000"/>  </g></svg>