<?xml version="1.0" standalone="no"?><!DOCTYPE svg PUBLIC "-//W3C//DTD SVG 1.1//EN" "http://www.w3.org/Graphics/SVG/1.1/DTD/svg11.dtd"><svg xmlns="http://www.w3.org/2000/svg" version="1.1" width="72px" height="36.5px" viewBox="0 -2 72 36.5" style="top:-2px">  <desc>Voto DistritaL MUDE O SISTEMA ELEITORAL E TENHA UM REPRESENTANTE DE VERDADE. SAIBA MAIS</desc>  <defs/>  <g id="Polygon12893">    <path d="M 24.3 23 C 24.3 23.3 24.2 23.4 23.9 23.4 C 23.9 23.3 23.8 23.2 23.8 23.1 C 23.7 23 23.6 23 23.4 23 C 23.2 23 22.9 23.1 22.7 23.2 C 22.5 23.3 22.4 23.5 22.4 23.6 C 22.4 23.7 22.4 23.8 22.5 23.9 C 22.6 23.9 22.8 24 23.1 24.1 C 23.5 24.2 23.8 24.3 24 24.5 C 24.1 24.6 24.2 24.8 24.2 24.9 C 24.2 25.2 24 25.5 23.5 25.8 C 23.1 26 22.6 26.1 22.1 26.1 C 22 26.1 21.8 26.1 21.7 26 C 21.6 26 21.6 25.9 21.6 25.8 C 21.6 25.7 21.6 25.6 21.7 25.6 C 21.7 25.5 21.8 25.5 21.8 25.5 C 21.9 25.5 21.9 25.5 21.9 25.5 C 22.1 25.6 22.2 25.6 22.4 25.6 C 22.6 25.6 22.9 25.5 23.2 25.4 C 23.5 25.2 23.6 25.1 23.6 25 C 23.6 24.9 23.6 24.9 23.5 24.8 C 23.4 24.8 23.3 24.7 23.1 24.6 C 22.7 24.5 22.5 24.4 22.3 24.4 C 22.1 24.3 22 24.2 21.9 24.1 C 21.8 24 21.8 23.8 21.8 23.7 C 21.8 23.4 22 23.1 22.3 22.9 C 22.6 22.6 23 22.5 23.5 22.5 C 23.7 22.5 24 22.6 24.1 22.7 C 24.3 22.8 24.3 22.9 24.3 23 C 24.3 23 24.3 23 24.3 23 Z M 25.4 25.2 C 25.4 25.2 25.3 25.2 25.3 25.2 C 25.3 25.2 25.2 25.4 25 25.6 C 24.9 25.8 24.8 25.9 24.8 26 C 24.7 26 24.7 26 24.6 26 C 24.6 26 24.5 26 24.4 25.9 C 24.3 25.8 24.3 25.8 24.3 25.7 C 24.3 25.7 24.5 25.3 24.9 24.7 C 25.1 24.4 25.3 24.1 25.5 23.8 C 25.8 23.1 26 22.8 26.1 22.7 C 26.2 22.6 26.3 22.5 26.4 22.5 C 26.5 22.5 26.6 22.5 26.6 22.6 C 26.7 22.6 26.7 22.7 26.7 22.8 C 26.7 22.8 26.7 22.9 26.7 22.9 C 26.9 23.8 27.2 24.4 27.3 24.7 C 27.5 25.1 27.6 25.4 27.8 25.5 C 27.9 25.6 27.9 25.7 28 25.7 C 28 25.7 28 25.7 28 25.8 C 28 25.9 27.9 25.9 27.9 26 C 27.8 26.1 27.8 26.1 27.7 26.1 C 27.6 26.1 27.4 26 27.3 25.9 C 27.2 25.8 27.1 25.6 27 25.3 C 26.9 25.1 26.8 25 26.8 24.9 C 26.8 24.9 26.8 24.9 26.8 24.9 C 26.7 24.9 26.5 24.9 26.2 25 C 26 25.1 25.7 25.1 25.5 25.2 C 25.5 25.2 25.5 25.2 25.4 25.2 C 25.4 25.2 25.4 25.2 25.4 25.2 Z M 26.4 24.5 C 26.5 24.5 26.6 24.5 26.6 24.4 C 26.6 24.4 26.5 24 26.3 23.5 C 26.3 23.4 26.3 23.4 26.3 23.4 C 26.3 23.4 25.6 24.6 25.6 24.6 C 25.7 24.6 25.8 24.6 25.9 24.6 C 26 24.6 26.1 24.5 26.4 24.5 C 26.4 24.5 26.4 24.5 26.4 24.5 Z M 29.1 23.6 C 29 23.7 29 23.9 29 23.9 C 29 24 29 24.1 29 24.3 C 28.9 24.6 28.9 24.8 28.9 25 C 28.9 25.2 28.9 25.4 28.9 25.6 C 28.9 25.7 28.9 25.8 28.8 25.9 C 28.8 25.9 28.7 26 28.6 26 C 28.5 26 28.4 25.9 28.4 25.8 C 28.3 25.7 28.3 25.6 28.3 25.3 C 28.3 25.2 28.3 24.9 28.4 24.3 C 28.4 24.3 28.5 23.4 28.5 23.4 C 28.6 23.3 28.6 23.1 28.6 23 C 28.6 22.9 28.6 22.8 28.7 22.7 C 28.7 22.7 28.7 22.6 28.8 22.6 C 28.9 22.5 28.9 22.5 29 22.5 C 29.1 22.5 29.1 22.6 29.2 22.6 C 29.2 22.7 29.2 22.8 29.2 22.9 C 29.2 22.9 29.1 23.6 29.1 23.6 Z M 31.9 24 C 32.2 24.1 32.4 24.2 32.4 24.4 C 32.5 24.5 32.6 24.7 32.6 24.8 C 32.6 25.1 32.4 25.4 32 25.7 C 31.6 26 31.2 26.2 30.8 26.2 C 30.6 26.2 30.5 26.1 30.5 26 C 30.5 25.7 30.6 25.6 30.9 25.6 C 30.9 25.6 31.1 25.6 31.1 25.6 C 31.2 25.6 31.4 25.5 31.6 25.4 C 31.9 25.2 32 25 32 24.8 C 32 24.7 31.9 24.6 31.8 24.5 C 31.7 24.4 31.6 24.4 31.5 24.4 C 31.4 24.4 31.4 24.4 31.3 24.5 C 31.2 24.5 31.1 24.6 31 24.6 C 30.9 24.6 30.8 24.5 30.7 24.5 C 30.7 24.5 30.7 24.4 30.7 24.3 C 30.7 24.2 30.8 24.1 31.2 24 C 31.3 23.9 31.5 23.8 31.7 23.6 C 31.9 23.4 32 23.3 32 23.2 C 32 23 31.8 22.9 31.6 22.9 C 31.4 22.9 31.2 23 31 23 C 30.8 23.1 30.7 23.1 30.7 23.2 C 30.7 23.3 30.6 23.6 30.5 24.2 C 30.4 24.9 30.4 25.3 30.4 25.4 C 30.4 25.4 30.3 25.7 30.3 25.7 C 30.3 25.8 30.3 25.9 30.2 26 C 30.2 26 30.1 26 30 26 C 29.8 26 29.7 25.9 29.7 25.6 C 29.7 25.6 29.7 25.5 29.8 25.4 C 29.8 25.1 29.9 24.7 30 24.2 C 30 23.7 30.1 23.5 30.1 23.4 C 30.1 23.4 30 23.3 30 23.3 C 30 23.3 29.9 23.3 29.9 23.3 C 29.9 23.3 29.9 23.3 29.8 23.3 C 29.8 23.3 29.8 23.2 29.8 23.2 C 29.7 23.2 29.7 23.1 29.7 23.1 C 29.7 23 29.9 22.8 30.4 22.7 C 30.8 22.5 31.3 22.5 31.7 22.5 C 32 22.5 32.2 22.5 32.3 22.7 C 32.5 22.8 32.6 23 32.6 23.1 C 32.6 23.3 32.5 23.4 32.4 23.5 C 32.3 23.7 32.1 23.8 31.9 24 Z M 33.8 25.2 C 33.7 25.2 33.7 25.2 33.6 25.2 C 33.6 25.2 33.5 25.4 33.4 25.6 C 33.3 25.8 33.2 25.9 33.1 26 C 33.1 26 33 26 33 26 C 32.9 26 32.9 26 32.8 25.9 C 32.7 25.8 32.7 25.8 32.7 25.7 C 32.7 25.7 32.9 25.3 33.2 24.7 C 33.5 24.4 33.6 24.1 33.8 23.8 C 34.2 23.1 34.4 22.8 34.5 22.7 C 34.5 22.6 34.6 22.5 34.7 22.5 C 34.8 22.5 34.9 22.5 35 22.6 C 35 22.6 35 22.7 35 22.8 C 35 22.8 35 22.9 35 22.9 C 35.3 23.8 35.5 24.4 35.7 24.7 C 35.8 25.1 36 25.4 36.2 25.5 C 36.2 25.6 36.3 25.7 36.3 25.7 C 36.3 25.7 36.3 25.7 36.3 25.8 C 36.3 25.9 36.3 25.9 36.2 26 C 36.2 26.1 36.1 26.1 36 26.1 C 35.9 26.1 35.8 26 35.7 25.9 C 35.5 25.8 35.4 25.6 35.3 25.3 C 35.2 25.1 35.2 25 35.2 24.9 C 35.2 24.9 35.2 24.9 35.1 24.9 C 35.1 24.9 34.9 24.9 34.6 25 C 34.3 25.1 34.1 25.1 33.9 25.2 C 33.9 25.2 33.8 25.2 33.8 25.2 C 33.8 25.2 33.8 25.2 33.8 25.2 Z M 34.8 24.5 C 34.8 24.5 34.9 24.5 35 24.4 C 34.9 24.4 34.8 24 34.6 23.5 C 34.6 23.4 34.6 23.4 34.6 23.4 C 34.6 23.4 34 24.6 34 24.6 C 34.1 24.6 34.2 24.6 34.3 24.6 C 34.3 24.6 34.5 24.5 34.8 24.5 C 34.8 24.5 34.8 24.5 34.8 24.5 Z M 41.6 23.5 C 41.7 23.4 41.7 23.4 41.7 23.4 C 41.7 23.4 40.9 24.4 40.9 24.4 C 40.6 24.9 40.3 25.1 40.1 25.1 C 40 25.1 39.9 25.1 39.8 25 C 39.8 24.9 39.7 24.7 39.6 24.5 C 39.6 24.3 39.5 24.2 39.5 24 C 39.4 23.8 39.4 23.7 39.3 23.6 C 39.3 23.6 39.2 24.2 39.2 24.2 C 39.2 24.4 39.2 24.6 39.1 24.8 C 39.1 24.9 39 25.1 39 25.3 C 38.9 25.6 38.9 25.7 38.9 25.9 C 38.9 25.9 38.9 25.9 38.8 26 C 38.7 26 38.7 26.1 38.6 26.1 C 38.6 26.1 38.5 26 38.4 25.9 C 38.4 25.9 38.3 25.8 38.3 25.8 C 38.3 25.6 38.4 25.4 38.4 25.2 C 38.7 24.3 38.8 23.7 38.9 23.4 C 38.9 23.2 38.9 23 38.9 22.8 C 38.9 22.7 38.9 22.7 39 22.6 C 39.1 22.6 39.2 22.6 39.3 22.6 C 39.4 22.6 39.4 22.6 39.5 22.7 C 39.6 22.8 39.6 22.8 39.6 22.9 C 39.62 22.91 39.6 22.9 39.6 22.9 C 39.6 22.9 39.94 23.81 39.9 23.8 C 40.1 24.2 40.2 24.4 40.2 24.5 C 40.4 24.3 40.6 24 40.9 23.6 C 41.3 23.1 41.5 22.8 41.6 22.7 C 41.7 22.6 41.8 22.5 41.9 22.5 C 41.9 22.5 42 22.5 42.1 22.6 C 42.2 22.7 42.3 22.7 42.3 22.8 C 42.3 22.8 42.2 23 42.2 23.5 C 42.1 23.8 42.1 24.1 42.1 24.5 C 42 24.9 42 25.1 42 25.1 C 42 25.2 42 25.3 42 25.4 C 42 25.5 42.1 25.5 42.1 25.6 C 42.1 25.7 42 25.8 42 25.9 C 41.9 26 41.8 26 41.7 26 C 41.5 26 41.4 25.8 41.4 25.5 C 41.4 25.2 41.5 24.9 41.5 24.5 C 41.6 24.1 41.6 23.7 41.6 23.5 C 41.6 23.5 41.6 23.5 41.6 23.5 Z M 43.5 25.2 C 43.5 25.2 43.4 25.2 43.4 25.2 C 43.4 25.2 43.3 25.4 43.2 25.6 C 43 25.8 42.9 25.9 42.9 26 C 42.8 26 42.8 26 42.7 26 C 42.7 26 42.6 26 42.5 25.9 C 42.5 25.8 42.4 25.8 42.4 25.7 C 42.4 25.7 42.6 25.3 43 24.7 C 43.2 24.4 43.4 24.1 43.6 23.8 C 43.9 23.1 44.1 22.8 44.2 22.7 C 44.3 22.6 44.4 22.5 44.5 22.5 C 44.6 22.5 44.7 22.5 44.8 22.6 C 44.8 22.6 44.8 22.7 44.8 22.8 C 44.8 22.8 44.8 22.9 44.8 22.9 C 45.1 23.8 45.3 24.4 45.4 24.7 C 45.6 25.1 45.8 25.4 45.9 25.5 C 46 25.6 46.1 25.7 46.1 25.7 C 46.1 25.7 46.1 25.7 46.1 25.8 C 46.1 25.9 46.1 25.9 46 26 C 45.9 26.1 45.9 26.1 45.8 26.1 C 45.7 26.1 45.5 26 45.4 25.9 C 45.3 25.8 45.2 25.6 45.1 25.3 C 45 25.1 44.9 25 44.9 24.9 C 44.9 24.9 44.9 24.9 44.9 24.9 C 44.8 24.9 44.6 24.9 44.4 25 C 44.1 25.1 43.8 25.1 43.7 25.2 C 43.6 25.2 43.6 25.2 43.5 25.2 C 43.5 25.2 43.5 25.2 43.5 25.2 Z M 44.5 24.5 C 44.6 24.5 44.7 24.5 44.7 24.4 C 44.7 24.4 44.6 24 44.4 23.5 C 44.4 23.4 44.4 23.4 44.4 23.4 C 44.4 23.4 43.7 24.6 43.7 24.6 C 43.8 24.6 43.9 24.6 44 24.6 C 44.1 24.6 44.3 24.5 44.5 24.5 C 44.5 24.5 44.5 24.5 44.5 24.5 Z M 47.2 23.6 C 47.2 23.7 47.1 23.9 47.1 23.9 C 47.1 24 47.1 24.1 47.1 24.3 C 47 24.6 47 24.8 47 25 C 47 25.2 47 25.4 47 25.6 C 47.1 25.7 47 25.8 47 25.9 C 46.9 25.9 46.8 26 46.7 26 C 46.6 26 46.5 25.9 46.5 25.8 C 46.4 25.7 46.4 25.6 46.4 25.3 C 46.4 25.2 46.5 24.9 46.5 24.3 C 46.5 24.3 46.7 23.4 46.7 23.4 C 46.7 23.3 46.7 23.1 46.7 23 C 46.7 22.9 46.8 22.8 46.8 22.7 C 46.8 22.7 46.9 22.6 46.9 22.6 C 47 22.5 47.1 22.5 47.1 22.5 C 47.2 22.5 47.2 22.6 47.3 22.6 C 47.3 22.7 47.4 22.8 47.4 22.9 C 47.4 22.9 47.2 23.6 47.2 23.6 Z M 50.3 23 C 50.3 23.3 50.2 23.4 49.9 23.4 C 49.9 23.3 49.9 23.2 49.8 23.1 C 49.7 23 49.6 23 49.4 23 C 49.2 23 48.9 23.1 48.7 23.2 C 48.5 23.3 48.4 23.5 48.4 23.6 C 48.4 23.7 48.4 23.8 48.5 23.9 C 48.6 23.9 48.8 24 49.2 24.1 C 49.5 24.2 49.8 24.3 50 24.5 C 50.1 24.6 50.2 24.8 50.2 24.9 C 50.2 25.2 50 25.5 49.6 25.8 C 49.1 26 48.6 26.1 48.1 26.1 C 48 26.1 47.9 26.1 47.8 26 C 47.7 26 47.6 25.9 47.6 25.8 C 47.6 25.7 47.6 25.6 47.7 25.6 C 47.7 25.5 47.8 25.5 47.8 25.5 C 47.9 25.5 47.9 25.5 47.9 25.5 C 48.1 25.6 48.3 25.6 48.4 25.6 C 48.6 25.6 48.9 25.5 49.2 25.4 C 49.5 25.2 49.7 25.1 49.7 25 C 49.7 24.9 49.6 24.9 49.5 24.8 C 49.5 24.8 49.3 24.7 49.1 24.6 C 48.7 24.5 48.5 24.4 48.3 24.4 C 48.2 24.3 48 24.2 47.9 24.1 C 47.9 24 47.8 23.8 47.8 23.7 C 47.8 23.4 48 23.1 48.3 22.9 C 48.7 22.6 49 22.5 49.5 22.5 C 49.8 22.5 50 22.6 50.1 22.7 C 50.3 22.8 50.3 22.9 50.3 23 C 50.3 23 50.3 23 50.3 23 Z " stroke="none" fill="#000"/>  </g>  <g id="Polygon12892">    <path d="M 14 16.3 C 14.3 16.3 14.5 16.3 14.6 16.3 C 14.8 16.3 14.9 16.3 15.1 16.4 C 15.2 16.5 15.2 16.6 15.2 16.7 C 15.2 16.9 15.2 17 15.1 17.1 C 14.9 17.2 14.8 17.3 14.6 17.4 C 14.6 17.4 14.6 17.4 14.6 17.4 C 14.6 17.5 14.7 17.5 14.8 17.7 C 15 17.8 15.2 17.9 15.4 18 C 15.4 18.1 15.4 18.1 15.4 18.1 C 15.4 18.2 15.4 18.2 15.4 18.2 C 15.3 18.2 15.3 18.3 15.3 18.3 C 15.2 18.3 15.2 18.2 15 18.1 C 14.9 18 14.8 17.9 14.7 17.8 C 14.4 17.6 14.3 17.5 14.2 17.5 C 14.2 17.5 14.1 17.5 14.1 17.5 C 14.1 17.5 14.1 17.4 14.1 17.4 C 14.1 17.4 14.1 17.3 14.1 17.3 C 14.1 17.3 14.2 17.3 14.2 17.3 C 14.2 17.3 14.3 17.3 14.3 17.3 C 14.3 17.3 14.4 17.3 14.4 17.3 C 14.4 17.3 14.6 17.2 14.7 17.1 C 14.9 17 15 16.9 15 16.7 C 15 16.7 15 16.6 14.9 16.6 C 14.8 16.5 14.7 16.5 14.6 16.5 C 14.5 16.5 14.4 16.5 14.3 16.5 C 14.2 16.5 14.2 16.5 14.1 16.5 C 14.1 16.5 14.1 16.6 14.1 16.6 C 14.1 16.6 14 16.7 14 16.9 C 14 17.1 13.9 17.3 13.9 17.5 C 13.9 17.7 13.9 17.8 13.9 17.9 C 13.9 18 13.9 18 13.9 18.1 C 13.9 18.1 13.9 18.2 13.9 18.2 C 13.9 18.2 13.9 18.2 13.9 18.3 C 13.9 18.3 13.8 18.3 13.8 18.3 C 13.7 18.3 13.6 18.2 13.6 18.1 C 13.6 17.7 13.7 17.2 13.8 16.7 C 13.8 16.6 13.8 16.6 13.8 16.6 C 13.8 16.6 13.8 16.6 13.8 16.6 C 13.8 16.5 13.8 16.5 13.8 16.5 C 13.8 16.4 13.8 16.4 13.8 16.4 C 13.9 16.3 13.9 16.3 13.9 16.3 C 13.9 16.3 14 16.3 14 16.3 Z M 17.1 16.5 C 17.1 16.5 17.1 16.5 17 16.5 C 17 16.5 17 16.5 16.9 16.5 C 16.9 16.5 16.8 16.5 16.8 16.5 C 16.8 16.5 16.7 16.5 16.7 16.6 C 16.7 16.6 16.6 16.6 16.5 16.6 C 16.3 16.6 16.2 16.6 16.1 16.6 C 16.1 16.6 16.1 16.7 16.1 16.7 C 16.1 16.8 16.1 16.8 16 16.9 C 16 17.1 16 17.2 16 17.2 C 16 17.2 16 17.2 16 17.2 C 16 17.2 16.1 17.2 16.2 17.2 C 16.4 17.2 16.5 17.2 16.5 17.2 C 16.7 17.1 16.8 17.1 16.8 17.1 C 16.9 17.1 17 17.2 17 17.2 C 17 17.3 17 17.3 16.9 17.4 C 16.8 17.4 16.7 17.4 16.4 17.4 C 16.1 17.5 16 17.5 16 17.5 C 15.9 17.5 15.9 17.6 15.9 17.8 C 15.9 17.9 15.9 18 15.9 18 C 15.9 18 15.9 18 15.9 18 C 15.9 18.1 15.9 18.1 16 18.1 C 16 18.1 16 18.1 16 18.1 C 16 18.1 16.1 18.1 16.2 18.1 C 16.2 18.1 16.4 18.1 16.4 18.1 C 16.5 18 16.6 18 16.7 18 C 16.8 18 16.9 18 16.9 18 C 17 18 17 18 17 18 C 17 18 17.1 18.1 17.1 18.1 C 17.1 18.1 17.1 18.2 17 18.2 C 16.9 18.2 16.8 18.2 16.7 18.2 C 16.6 18.2 16.4 18.3 16.1 18.3 C 16 18.3 15.9 18.3 15.8 18.3 C 15.7 18.3 15.7 18.3 15.6 18.3 C 15.6 18.3 15.6 18.3 15.6 18.2 C 15.6 18.19 15.6 18.1 15.6 18.1 C 15.6 18.1 15.6 18.14 15.6 18.1 C 15.6 18.1 15.6 18.1 15.6 18 C 15.6 18 15.7 17.9 15.7 17.7 C 15.7 17.5 15.7 17.4 15.8 17.3 C 15.8 17.2 15.8 17.2 15.8 17.1 C 15.8 16.9 15.8 16.8 15.8 16.6 C 15.8 16.6 15.8 16.6 15.8 16.6 C 15.8 16.6 15.8 16.6 15.8 16.6 C 15.8 16.5 15.8 16.5 15.8 16.5 C 15.8 16.5 15.8 16.5 15.8 16.5 C 15.8 16.5 15.8 16.5 15.8 16.5 C 15.8 16.4 15.8 16.4 15.8 16.4 C 15.8 16.4 15.9 16.4 15.9 16.4 C 15.9 16.4 15.9 16.4 15.9 16.4 C 15.9 16.4 16 16.4 16 16.4 C 16 16.4 16 16.4 16 16.4 C 16 16.4 16.1 16.4 16.3 16.4 C 16.5 16.4 16.7 16.3 16.9 16.3 C 17 16.3 17 16.3 17 16.3 C 17 16.3 17 16.3 17 16.3 C 17.1 16.3 17.1 16.3 17.2 16.3 C 17.2 16.3 17.2 16.3 17.2 16.4 C 17.2 16.4 17.2 16.4 17.2 16.5 C 17.2 16.5 17.1 16.5 17.1 16.5 Z M 17.6 16.6 C 17.6 16.6 17.5 16.6 17.5 16.5 C 17.5 16.5 17.6 16.4 17.9 16.3 C 18.1 16.3 18.3 16.3 18.5 16.3 C 18.7 16.3 18.8 16.3 19 16.4 C 19.1 16.5 19.1 16.6 19.1 16.7 C 19.1 16.9 19 17.1 18.8 17.2 C 18.6 17.4 18.3 17.5 17.9 17.6 C 17.8 17.6 17.8 17.6 17.8 17.6 C 17.8 17.6 17.7 17.7 17.7 17.9 C 17.7 18 17.7 18.1 17.7 18.2 C 17.7 18.2 17.7 18.2 17.7 18.3 C 17.7 18.3 17.6 18.3 17.6 18.3 C 17.5 18.3 17.5 18.3 17.5 18.2 C 17.5 18.1 17.5 17.9 17.5 17.7 C 17.5 17.7 17.6 16.9 17.6 16.9 C 17.6 16.9 17.6 16.8 17.6 16.8 C 17.6 16.7 17.6 16.7 17.6 16.6 Z M 18.5 16.5 C 18.3 16.5 18.1 16.5 17.9 16.6 C 17.9 16.6 17.9 16.6 17.9 16.7 C 17.8 16.8 17.8 17 17.8 17.1 C 17.8 17.2 17.8 17.3 17.8 17.4 C 18.1 17.3 18.3 17.3 18.6 17.1 C 18.8 17 18.9 16.9 18.9 16.7 C 18.9 16.5 18.8 16.5 18.5 16.5 C 18.5 16.5 18.5 16.5 18.5 16.5 Z M 19.7 16.3 C 19.9 16.3 20.1 16.3 20.3 16.3 C 20.4 16.3 20.6 16.3 20.7 16.4 C 20.8 16.5 20.9 16.6 20.9 16.7 C 20.9 16.9 20.8 17 20.7 17.1 C 20.6 17.2 20.4 17.3 20.2 17.4 C 20.2 17.4 20.2 17.4 20.2 17.4 C 20.2 17.5 20.3 17.5 20.5 17.7 C 20.7 17.8 20.8 17.9 21 18 C 21 18.1 21.1 18.1 21.1 18.1 C 21.1 18.2 21 18.2 21 18.2 C 21 18.2 21 18.3 20.9 18.3 C 20.9 18.3 20.8 18.2 20.7 18.1 C 20.6 18 20.4 17.9 20.3 17.8 C 20.1 17.6 19.9 17.5 19.9 17.5 C 19.8 17.5 19.8 17.5 19.7 17.5 C 19.7 17.5 19.7 17.4 19.7 17.4 C 19.7 17.4 19.7 17.3 19.8 17.3 C 19.8 17.3 19.8 17.3 19.9 17.3 C 19.9 17.3 19.9 17.3 19.9 17.3 C 20 17.3 20 17.3 20 17.3 C 20.1 17.3 20.2 17.2 20.4 17.1 C 20.6 17 20.6 16.9 20.6 16.7 C 20.6 16.7 20.6 16.6 20.5 16.6 C 20.4 16.5 20.3 16.5 20.2 16.5 C 20.1 16.5 20 16.5 20 16.5 C 19.9 16.5 19.8 16.5 19.8 16.5 C 19.8 16.5 19.7 16.6 19.7 16.6 C 19.7 16.6 19.7 16.7 19.7 16.9 C 19.6 17.1 19.6 17.3 19.6 17.5 C 19.5 17.7 19.5 17.8 19.5 17.9 C 19.5 18 19.5 18 19.6 18.1 C 19.6 18.1 19.6 18.2 19.6 18.2 C 19.6 18.2 19.5 18.2 19.5 18.3 C 19.5 18.3 19.5 18.3 19.4 18.3 C 19.3 18.3 19.3 18.2 19.3 18.1 C 19.3 17.7 19.4 17.2 19.5 16.7 C 19.5 16.6 19.5 16.6 19.5 16.6 C 19.5 16.6 19.5 16.6 19.5 16.6 C 19.4 16.5 19.4 16.5 19.4 16.5 C 19.4 16.4 19.4 16.4 19.5 16.4 C 19.5 16.3 19.5 16.3 19.6 16.3 C 19.6 16.3 19.7 16.3 19.7 16.3 Z M 22.8 16.5 C 22.8 16.5 22.7 16.5 22.7 16.5 C 22.6 16.5 22.6 16.5 22.5 16.5 C 22.5 16.5 22.5 16.5 22.4 16.5 C 22.4 16.5 22.4 16.5 22.3 16.6 C 22.3 16.6 22.2 16.6 22.1 16.6 C 21.9 16.6 21.8 16.6 21.8 16.6 C 21.7 16.6 21.7 16.7 21.7 16.7 C 21.7 16.8 21.7 16.8 21.7 16.9 C 21.6 17.1 21.6 17.2 21.6 17.2 C 21.6 17.2 21.6 17.2 21.6 17.2 C 21.7 17.2 21.8 17.2 21.9 17.2 C 22 17.2 22.1 17.2 22.2 17.2 C 22.3 17.1 22.4 17.1 22.5 17.1 C 22.6 17.1 22.6 17.2 22.6 17.2 C 22.6 17.3 22.6 17.3 22.5 17.4 C 22.5 17.4 22.3 17.4 22.1 17.4 C 21.8 17.5 21.6 17.5 21.6 17.5 C 21.6 17.5 21.6 17.6 21.5 17.8 C 21.5 17.9 21.5 18 21.5 18 C 21.5 18 21.5 18 21.5 18 C 21.5 18.1 21.5 18.1 21.6 18.1 C 21.6 18.1 21.6 18.1 21.6 18.1 C 21.7 18.1 21.7 18.1 21.8 18.1 C 21.8 18.1 22.1 18.1 22.1 18.1 C 22.1 18 22.2 18 22.3 18 C 22.5 18 22.5 18 22.6 18 C 22.6 18 22.6 18 22.7 18 C 22.7 18 22.7 18.1 22.7 18.1 C 22.7 18.1 22.7 18.2 22.7 18.2 C 22.6 18.2 22.5 18.2 22.3 18.2 C 22.2 18.2 22 18.3 21.7 18.3 C 21.6 18.3 21.5 18.3 21.5 18.3 C 21.4 18.3 21.3 18.3 21.3 18.3 C 21.3 18.3 21.2 18.3 21.2 18.2 C 21.24 18.19 21.2 18.1 21.2 18.1 C 21.2 18.1 21.24 18.14 21.2 18.1 C 21.2 18.1 21.2 18.1 21.3 18 C 21.3 18 21.3 17.9 21.3 17.7 C 21.4 17.5 21.4 17.4 21.4 17.3 C 21.4 17.2 21.4 17.2 21.4 17.1 C 21.5 16.9 21.5 16.8 21.5 16.6 C 21.5 16.6 21.5 16.6 21.5 16.6 C 21.4 16.6 21.4 16.6 21.4 16.6 C 21.4 16.5 21.4 16.5 21.4 16.5 C 21.4 16.5 21.4 16.5 21.4 16.5 C 21.4 16.5 21.4 16.5 21.4 16.5 C 21.4 16.4 21.4 16.4 21.5 16.4 C 21.5 16.4 21.5 16.4 21.5 16.4 C 21.5 16.4 21.5 16.4 21.5 16.4 C 21.6 16.4 21.6 16.4 21.7 16.4 C 21.7 16.4 21.7 16.4 21.7 16.4 C 21.7 16.4 21.8 16.4 22 16.4 C 22.1 16.4 22.3 16.3 22.6 16.3 C 22.6 16.3 22.6 16.3 22.6 16.3 C 22.6 16.3 22.7 16.3 22.7 16.3 C 22.7 16.3 22.8 16.3 22.8 16.3 C 22.8 16.3 22.8 16.3 22.9 16.4 C 22.9 16.4 22.8 16.4 22.8 16.5 C 22.8 16.5 22.8 16.5 22.8 16.5 Z M 24.3 16.7 C 24.3 16.6 24.3 16.6 24.3 16.5 C 24.2 16.5 24.1 16.5 24 16.5 C 23.8 16.5 23.7 16.5 23.5 16.6 C 23.4 16.7 23.3 16.8 23.3 16.9 C 23.3 16.9 23.3 17 23.4 17.1 C 23.4 17.1 23.6 17.2 23.8 17.2 C 24 17.3 24.2 17.4 24.3 17.4 C 24.4 17.5 24.4 17.6 24.4 17.7 C 24.4 17.8 24.4 17.9 24.2 18 C 24.1 18.1 24 18.2 23.8 18.3 C 23.6 18.3 23.4 18.4 23.3 18.4 C 23.2 18.4 23.1 18.3 23.1 18.3 C 23 18.3 23 18.3 23 18.2 C 23 18.2 23 18.2 23 18.1 C 23 18.1 23 18.1 23 18.1 C 23.1 18.1 23.1 18.1 23.1 18.1 C 23.2 18.1 23.3 18.1 23.4 18.1 C 23.6 18.1 23.7 18.1 23.9 18 C 24.1 17.9 24.2 17.8 24.2 17.7 C 24.2 17.7 24.2 17.6 24.1 17.6 C 24.1 17.6 23.9 17.5 23.7 17.4 C 23.4 17.3 23.2 17.3 23.1 17.2 C 23.1 17.1 23 17 23 16.9 C 23 16.7 23.2 16.6 23.4 16.4 C 23.6 16.3 23.8 16.3 24 16.3 C 24.2 16.3 24.3 16.3 24.4 16.3 C 24.5 16.4 24.5 16.5 24.5 16.5 C 24.5 16.6 24.5 16.6 24.5 16.7 C 24.5 16.7 24.4 16.7 24.3 16.7 Z M 26.3 16.5 C 26.3 16.5 26.2 16.5 26.2 16.5 C 26.2 16.5 26.1 16.5 26.1 16.5 C 26 16.5 26 16.5 25.9 16.5 C 25.9 16.5 25.9 16.5 25.8 16.6 C 25.8 16.6 25.7 16.6 25.6 16.6 C 25.4 16.6 25.3 16.6 25.3 16.6 C 25.3 16.6 25.2 16.7 25.2 16.7 C 25.2 16.8 25.2 16.8 25.2 16.9 C 25.2 17.1 25.1 17.2 25.1 17.2 C 25.1 17.2 25.2 17.2 25.2 17.2 C 25.2 17.2 25.3 17.2 25.4 17.2 C 25.5 17.2 25.6 17.2 25.7 17.2 C 25.8 17.1 25.9 17.1 26 17.1 C 26.1 17.1 26.2 17.2 26.2 17.2 C 26.2 17.3 26.1 17.3 26 17.4 C 26 17.4 25.8 17.4 25.6 17.4 C 25.3 17.5 25.1 17.5 25.1 17.5 C 25.1 17.5 25.1 17.6 25.1 17.8 C 25 17.9 25 18 25 18 C 25 18 25 18 25 18 C 25 18.1 25.1 18.1 25.1 18.1 C 25.1 18.1 25.1 18.1 25.1 18.1 C 25.2 18.1 25.2 18.1 25.3 18.1 C 25.3 18.1 25.6 18.1 25.6 18.1 C 25.7 18 25.8 18 25.9 18 C 26 18 26.1 18 26.1 18 C 26.1 18 26.1 18 26.2 18 C 26.2 18 26.2 18.1 26.2 18.1 C 26.2 18.1 26.2 18.2 26.2 18.2 C 26.1 18.2 26 18.2 25.8 18.2 C 25.7 18.2 25.5 18.3 25.3 18.3 C 25.1 18.3 25 18.3 25 18.3 C 24.9 18.3 24.8 18.3 24.8 18.3 C 24.8 18.3 24.8 18.3 24.8 18.2 C 24.76 18.19 24.8 18.1 24.8 18.1 C 24.8 18.1 24.75 18.14 24.8 18.1 C 24.8 18.1 24.8 18.1 24.8 18 C 24.8 18 24.8 17.9 24.9 17.7 C 24.9 17.5 24.9 17.4 24.9 17.3 C 24.9 17.2 24.9 17.2 24.9 17.1 C 25 16.9 25 16.8 25 16.6 C 25 16.6 25 16.6 25 16.6 C 25 16.6 25 16.6 25 16.6 C 24.9 16.5 24.9 16.5 24.9 16.5 C 24.9 16.5 24.9 16.5 24.9 16.5 C 24.9 16.5 24.9 16.5 24.9 16.5 C 24.9 16.4 24.9 16.4 25 16.4 C 25 16.4 25 16.4 25 16.4 C 25 16.4 25 16.4 25 16.4 C 25.1 16.4 25.1 16.4 25.2 16.4 C 25.2 16.4 25.2 16.4 25.2 16.4 C 25.2 16.4 25.3 16.4 25.5 16.4 C 25.6 16.4 25.9 16.3 26.1 16.3 C 26.1 16.3 26.1 16.3 26.2 16.3 C 26.2 16.3 26.2 16.3 26.2 16.3 C 26.2 16.3 26.3 16.3 26.3 16.3 C 26.3 16.3 26.4 16.3 26.4 16.4 C 26.4 16.4 26.4 16.4 26.3 16.5 C 26.3 16.5 26.3 16.5 26.3 16.5 Z M 27.9 17.9 C 28 17.7 28 17.4 28.1 17.1 C 28.2 16.8 28.2 16.6 28.2 16.5 C 28.2 16.4 28.2 16.4 28.2 16.3 C 28.2 16.3 28.2 16.3 28.3 16.3 C 28.3 16.3 28.3 16.2 28.4 16.2 C 28.4 16.2 28.4 16.3 28.4 16.3 C 28.4 16.3 28.5 16.4 28.5 16.4 C 28.5 16.5 28.4 16.5 28.4 16.6 C 28.4 16.8 28.3 17.1 28.2 17.4 C 28.2 17.7 28.2 17.9 28.2 17.9 C 28.2 18 28.2 18.1 28.2 18.1 C 28.2 18.2 28.2 18.2 28.1 18.2 C 28.1 18.3 28 18.3 28 18.3 C 28 18.3 27.9 18.3 27.9 18.3 C 27.9 18.2 27.9 18.2 27.9 18.2 C 27.8 18.1 27.8 18.1 27.8 18.1 C 27.8 18 27.8 18 27.7 17.9 C 27.5 17.6 27.2 17.3 27 16.9 C 27 17.1 26.9 17.4 26.9 17.7 C 26.9 17.7 26.8 17.9 26.8 17.9 C 26.8 18 26.8 18 26.8 18.1 C 26.8 18.1 26.8 18.2 26.8 18.2 C 26.8 18.2 26.8 18.3 26.8 18.3 C 26.7 18.3 26.7 18.3 26.7 18.3 C 26.6 18.3 26.6 18.3 26.6 18.3 C 26.6 18.2 26.6 18.2 26.6 18.1 C 26.6 18.1 26.6 18 26.6 17.8 C 26.6 17.7 26.7 17.5 26.8 17.1 C 26.8 16.8 26.8 16.7 26.8 16.6 C 26.8 16.6 26.8 16.5 26.8 16.5 C 26.8 16.5 26.8 16.4 26.9 16.4 C 26.9 16.4 26.9 16.4 26.9 16.4 C 26.9 16.4 27 16.4 27 16.4 C 27 16.4 27 16.4 27.1 16.4 C 27.1 16.4 27.1 16.4 27.1 16.4 C 27.1 16.4 27.1 16.5 27.1 16.5 C 27.2 16.7 27.3 16.9 27.5 17.2 C 27.6 17.5 27.8 17.7 27.9 17.9 Z M 28.8 16.7 C 28.7 16.7 28.6 16.6 28.6 16.6 C 28.6 16.6 28.6 16.6 28.6 16.5 C 28.6 16.5 28.6 16.5 28.6 16.5 C 28.6 16.4 28.7 16.4 28.9 16.4 C 29 16.4 29.2 16.4 29.3 16.4 C 29.5 16.4 29.7 16.4 30 16.3 C 30.1 16.3 30.2 16.3 30.3 16.3 C 30.4 16.3 30.4 16.3 30.5 16.3 C 30.5 16.3 30.5 16.3 30.6 16.3 C 30.6 16.3 30.6 16.4 30.6 16.4 C 30.6 16.4 30.6 16.4 30.6 16.5 C 30.6 16.5 30.6 16.5 30.6 16.5 C 30.5 16.5 30.5 16.5 30.4 16.5 C 30.4 16.5 30.3 16.5 30.2 16.5 C 30.1 16.5 30 16.5 29.9 16.6 C 29.8 16.6 29.7 16.6 29.7 16.6 C 29.7 16.6 29.6 16.8 29.6 17.1 C 29.6 17.5 29.6 17.7 29.6 17.8 C 29.6 17.9 29.6 18 29.6 18.1 C 29.6 18.1 29.6 18.1 29.6 18.1 C 29.6 18.2 29.6 18.2 29.6 18.2 C 29.5 18.3 29.5 18.3 29.5 18.3 C 29.4 18.3 29.4 18.3 29.4 18.2 C 29.3 18.2 29.3 18 29.3 17.8 C 29.3 17.6 29.4 17.3 29.4 16.7 C 29.4 16.7 29.4 16.7 29.4 16.7 C 29.4 16.6 29.4 16.6 29.4 16.6 C 29.3 16.6 29.2 16.6 29.1 16.6 C 28.9 16.6 28.8 16.7 28.8 16.7 C 28.8 16.7 28.8 16.7 28.8 16.7 Z M 31.4 16.3 C 31.4 16.3 31.5 16.3 31.5 16.3 C 31.5 16.3 31.5 16.3 31.5 16.4 C 31.5 16.4 31.5 16.5 31.5 16.5 C 31.5 16.5 31.5 16.5 31.5 16.5 C 31.5 16.6 31.6 16.7 31.6 16.8 C 31.6 16.9 31.7 17 31.7 17.1 C 31.8 17.3 31.9 17.5 32 17.7 C 32 17.9 32.1 18 32.2 18.1 C 32.2 18.1 32.3 18.1 32.3 18.1 C 32.3 18.2 32.3 18.2 32.3 18.2 C 32.3 18.2 32.3 18.3 32.3 18.3 C 32.2 18.3 32.2 18.3 32.2 18.3 C 32 18.3 31.9 18.2 31.7 17.8 C 31.7 17.7 31.6 17.6 31.6 17.6 C 31.6 17.6 31.5 17.6 31.3 17.6 C 31.2 17.7 31.1 17.7 31 17.7 C 30.9 17.7 30.9 17.8 30.8 17.8 C 30.8 17.8 30.8 17.7 30.8 17.7 C 30.8 17.7 30.8 17.7 30.7 17.7 C 30.7 17.7 30.7 17.8 30.6 17.9 C 30.5 18.1 30.4 18.2 30.4 18.2 C 30.4 18.3 30.4 18.3 30.3 18.3 C 30.3 18.3 30.3 18.3 30.2 18.2 C 30.2 18.2 30.2 18.2 30.2 18.2 C 30.2 18.1 30.2 18.1 30.2 18 C 30.3 18 30.3 17.9 30.4 17.8 C 30.6 17.5 30.8 17.2 30.9 17 C 31.1 16.7 31.2 16.4 31.2 16.4 C 31.3 16.3 31.3 16.3 31.4 16.3 C 31.4 16.3 31.4 16.3 31.4 16.3 Z M 31.2 17.5 C 31.4 17.4 31.5 17.4 31.6 17.4 C 31.5 17.3 31.5 17.2 31.4 17 C 31.4 16.8 31.3 16.7 31.3 16.6 C 31.3 16.7 31.2 16.9 31.1 17.1 C 31.1 17.1 30.8 17.5 30.8 17.5 C 30.9 17.5 30.9 17.5 31 17.5 C 31.1 17.5 31.1 17.5 31.2 17.5 C 31.2 17.5 31.2 17.5 31.2 17.5 Z M 33.9 17.9 C 33.9 17.7 34 17.4 34 17.1 C 34.1 16.8 34.1 16.6 34.1 16.5 C 34.1 16.4 34.1 16.4 34.1 16.3 C 34.1 16.3 34.1 16.3 34.2 16.3 C 34.2 16.3 34.2 16.2 34.3 16.2 C 34.3 16.2 34.3 16.3 34.3 16.3 C 34.4 16.3 34.4 16.4 34.4 16.4 C 34.4 16.5 34.4 16.5 34.3 16.6 C 34.3 16.8 34.2 17.1 34.2 17.4 C 34.1 17.7 34.1 17.9 34.1 17.9 C 34.1 18 34.1 18.1 34.1 18.1 C 34.1 18.2 34.1 18.2 34 18.2 C 34 18.3 34 18.3 33.9 18.3 C 33.9 18.3 33.9 18.3 33.8 18.3 C 33.8 18.2 33.8 18.2 33.8 18.2 C 33.7 18.1 33.7 18.1 33.7 18.1 C 33.7 18 33.7 18 33.6 17.9 C 33.4 17.6 33.1 17.3 32.9 16.9 C 32.9 17.1 32.8 17.4 32.8 17.7 C 32.8 17.7 32.7 17.9 32.7 17.9 C 32.7 18 32.7 18 32.7 18.1 C 32.7 18.1 32.7 18.2 32.7 18.2 C 32.7 18.2 32.7 18.3 32.7 18.3 C 32.6 18.3 32.6 18.3 32.6 18.3 C 32.5 18.3 32.5 18.3 32.5 18.3 C 32.5 18.2 32.5 18.2 32.5 18.1 C 32.5 18.1 32.5 18 32.5 17.8 C 32.6 17.7 32.6 17.5 32.7 17.1 C 32.7 16.8 32.8 16.7 32.8 16.6 C 32.8 16.6 32.8 16.5 32.8 16.5 C 32.8 16.5 32.8 16.4 32.8 16.4 C 32.8 16.4 32.8 16.4 32.8 16.4 C 32.8 16.4 32.9 16.4 32.9 16.4 C 32.9 16.4 32.9 16.4 33 16.4 C 33 16.4 33 16.4 33 16.4 C 33 16.4 33 16.5 33 16.5 C 33.1 16.7 33.2 16.9 33.4 17.2 C 33.6 17.5 33.7 17.7 33.9 17.9 Z M 34.7 16.7 C 34.6 16.7 34.5 16.6 34.5 16.6 C 34.5 16.6 34.5 16.6 34.5 16.5 C 34.5 16.5 34.5 16.5 34.5 16.5 C 34.5 16.4 34.6 16.4 34.8 16.4 C 35 16.4 35.1 16.4 35.3 16.4 C 35.4 16.4 35.6 16.4 35.9 16.3 C 36 16.3 36.1 16.3 36.2 16.3 C 36.3 16.3 36.3 16.3 36.4 16.3 C 36.4 16.3 36.5 16.3 36.5 16.3 C 36.5 16.3 36.5 16.4 36.5 16.4 C 36.5 16.4 36.5 16.4 36.5 16.5 C 36.5 16.5 36.5 16.5 36.5 16.5 C 36.4 16.5 36.4 16.5 36.3 16.5 C 36.3 16.5 36.2 16.5 36.1 16.5 C 36 16.5 35.9 16.5 35.8 16.6 C 35.7 16.6 35.6 16.6 35.6 16.6 C 35.6 16.6 35.6 16.8 35.5 17.1 C 35.5 17.5 35.5 17.7 35.5 17.8 C 35.5 17.9 35.5 18 35.5 18.1 C 35.5 18.1 35.5 18.1 35.5 18.1 C 35.5 18.2 35.5 18.2 35.5 18.2 C 35.5 18.3 35.4 18.3 35.4 18.3 C 35.4 18.3 35.3 18.3 35.3 18.2 C 35.3 18.2 35.2 18 35.2 17.8 C 35.2 17.6 35.3 17.3 35.3 16.7 C 35.4 16.7 35.4 16.7 35.4 16.7 C 35.4 16.6 35.3 16.6 35.3 16.6 C 35.3 16.6 35.1 16.6 35 16.6 C 34.8 16.6 34.7 16.7 34.7 16.7 C 34.7 16.7 34.7 16.7 34.7 16.7 Z M 37.9 16.5 C 37.9 16.5 37.9 16.5 37.9 16.5 C 37.8 16.5 37.8 16.5 37.7 16.5 C 37.7 16.5 37.6 16.5 37.6 16.5 C 37.6 16.5 37.6 16.5 37.5 16.6 C 37.5 16.6 37.4 16.6 37.3 16.6 C 37.1 16.6 37 16.6 37 16.6 C 36.9 16.6 36.9 16.7 36.9 16.7 C 36.9 16.8 36.9 16.8 36.9 16.9 C 36.8 17.1 36.8 17.2 36.8 17.2 C 36.8 17.2 36.8 17.2 36.8 17.2 C 36.9 17.2 37 17.2 37.1 17.2 C 37.2 17.2 37.3 17.2 37.4 17.2 C 37.5 17.1 37.6 17.1 37.7 17.1 C 37.8 17.1 37.8 17.2 37.8 17.2 C 37.8 17.3 37.8 17.3 37.7 17.4 C 37.6 17.4 37.5 17.4 37.3 17.4 C 37 17.5 36.8 17.5 36.8 17.5 C 36.8 17.5 36.8 17.6 36.7 17.8 C 36.7 17.9 36.7 18 36.7 18 C 36.7 18 36.7 18 36.7 18 C 36.7 18.1 36.7 18.1 36.8 18.1 C 36.8 18.1 36.8 18.1 36.8 18.1 C 36.9 18.1 36.9 18.1 37 18.1 C 37 18.1 37.2 18.1 37.2 18.1 C 37.3 18 37.4 18 37.5 18 C 37.7 18 37.7 18 37.8 18 C 37.8 18 37.8 18 37.8 18 C 37.9 18 37.9 18.1 37.9 18.1 C 37.9 18.1 37.9 18.2 37.9 18.2 C 37.8 18.2 37.7 18.2 37.5 18.2 C 37.4 18.2 37.2 18.3 36.9 18.3 C 36.8 18.3 36.7 18.3 36.7 18.3 C 36.6 18.3 36.5 18.3 36.5 18.3 C 36.5 18.3 36.4 18.3 36.4 18.2 C 36.43 18.19 36.4 18.1 36.4 18.1 C 36.4 18.1 36.43 18.14 36.4 18.1 C 36.4 18.1 36.4 18.1 36.5 18 C 36.5 18 36.5 17.9 36.5 17.7 C 36.6 17.5 36.6 17.4 36.6 17.3 C 36.6 17.2 36.6 17.2 36.6 17.1 C 36.6 16.9 36.7 16.8 36.7 16.6 C 36.7 16.6 36.7 16.6 36.6 16.6 C 36.6 16.6 36.6 16.6 36.6 16.6 C 36.6 16.5 36.6 16.5 36.6 16.5 C 36.6 16.5 36.6 16.5 36.6 16.5 C 36.6 16.5 36.6 16.5 36.6 16.5 C 36.6 16.4 36.6 16.4 36.6 16.4 C 36.7 16.4 36.7 16.4 36.7 16.4 C 36.7 16.4 36.7 16.4 36.7 16.4 C 36.8 16.4 36.8 16.4 36.8 16.4 C 36.8 16.4 36.8 16.4 36.8 16.4 C 36.9 16.4 37 16.4 37.1 16.4 C 37.3 16.4 37.5 16.3 37.8 16.3 C 37.8 16.3 37.8 16.3 37.8 16.3 C 37.8 16.3 37.8 16.3 37.8 16.3 C 37.9 16.3 38 16.3 38 16.3 C 38 16.3 38 16.3 38 16.4 C 38 16.4 38 16.4 38 16.5 C 38 16.5 38 16.5 37.9 16.5 Z M 39.5 16.8 C 39.5 16.7 39.5 16.7 39.5 16.6 C 39.5 16.6 39.5 16.6 39.5 16.6 C 39.4 16.5 39.4 16.5 39.4 16.5 C 39.4 16.4 39.4 16.4 39.4 16.4 C 39.4 16.3 39.5 16.3 39.5 16.3 C 39.5 16.3 39.7 16.3 39.7 16.3 C 39.8 16.3 39.9 16.3 40 16.3 C 40.2 16.3 40.3 16.3 40.3 16.3 C 40.6 16.3 40.8 16.4 40.9 16.5 C 41.1 16.6 41.2 16.8 41.2 17 C 41.2 17.3 41 17.5 40.8 17.7 C 40.6 17.9 40.3 18.1 39.9 18.2 C 39.8 18.2 39.7 18.2 39.6 18.3 C 39.5 18.3 39.5 18.4 39.4 18.4 C 39.4 18.4 39.4 18.3 39.3 18.3 C 39.3 18.3 39.3 18.2 39.3 18.2 C 39.3 18.2 39.3 18.2 39.3 18.1 C 39.3 18.1 39.4 18.1 39.4 18 C 39.4 18 39.4 17.9 39.4 17.8 C 39.4 17.7 39.4 17.5 39.4 17.3 C 39.5 17.1 39.5 16.9 39.5 16.8 C 39.5 16.8 39.5 16.8 39.5 16.8 Z M 39.9 16.5 C 39.8 16.5 39.8 16.5 39.8 16.5 C 39.7 17.2 39.6 17.6 39.6 17.9 C 39.6 17.9 39.6 18 39.6 18 C 39.6 18 39.6 18 39.7 18 C 39.7 18 39.9 18 40.1 17.9 C 40.4 17.8 40.5 17.7 40.7 17.6 C 40.9 17.4 40.9 17.2 40.9 17 C 40.9 16.9 40.9 16.7 40.8 16.6 C 40.6 16.5 40.5 16.5 40.3 16.5 C 40.2 16.5 40 16.5 39.9 16.5 C 39.9 16.5 39.9 16.5 39.9 16.5 Z M 42.9 16.5 C 42.9 16.5 42.9 16.5 42.9 16.5 C 42.8 16.5 42.8 16.5 42.7 16.5 C 42.7 16.5 42.6 16.5 42.6 16.5 C 42.6 16.5 42.5 16.5 42.5 16.6 C 42.5 16.6 42.4 16.6 42.3 16.6 C 42.1 16.6 42 16.6 42 16.6 C 41.9 16.6 41.9 16.7 41.9 16.7 C 41.9 16.8 41.9 16.8 41.9 16.9 C 41.8 17.1 41.8 17.2 41.8 17.2 C 41.8 17.2 41.8 17.2 41.8 17.2 C 41.8 17.2 41.9 17.2 42.1 17.2 C 42.2 17.2 42.3 17.2 42.3 17.2 C 42.5 17.1 42.6 17.1 42.6 17.1 C 42.8 17.1 42.8 17.2 42.8 17.2 C 42.8 17.3 42.8 17.3 42.7 17.4 C 42.6 17.4 42.5 17.4 42.2 17.4 C 41.9 17.5 41.8 17.5 41.8 17.5 C 41.8 17.5 41.7 17.6 41.7 17.8 C 41.7 17.9 41.7 18 41.7 18 C 41.7 18 41.7 18 41.7 18 C 41.7 18.1 41.7 18.1 41.8 18.1 C 41.8 18.1 41.8 18.1 41.8 18.1 C 41.8 18.1 41.9 18.1 42 18.1 C 42 18.1 42.2 18.1 42.2 18.1 C 42.3 18 42.4 18 42.5 18 C 42.6 18 42.7 18 42.7 18 C 42.8 18 42.8 18 42.8 18 C 42.9 18 42.9 18.1 42.9 18.1 C 42.9 18.1 42.9 18.2 42.9 18.2 C 42.8 18.2 42.6 18.2 42.5 18.2 C 42.4 18.2 42.2 18.3 41.9 18.3 C 41.8 18.3 41.7 18.3 41.7 18.3 C 41.6 18.3 41.5 18.3 41.5 18.3 C 41.4 18.3 41.4 18.3 41.4 18.2 C 41.41 18.19 41.4 18.1 41.4 18.1 C 41.4 18.1 41.41 18.14 41.4 18.1 C 41.4 18.1 41.4 18.1 41.4 18 C 41.5 18 41.5 17.9 41.5 17.7 C 41.5 17.5 41.6 17.4 41.6 17.3 C 41.6 17.2 41.6 17.2 41.6 17.1 C 41.6 16.9 41.6 16.8 41.6 16.6 C 41.6 16.6 41.6 16.6 41.6 16.6 C 41.6 16.6 41.6 16.6 41.6 16.6 C 41.6 16.5 41.6 16.5 41.6 16.5 C 41.6 16.5 41.6 16.5 41.6 16.5 C 41.6 16.5 41.6 16.5 41.6 16.5 C 41.6 16.4 41.6 16.4 41.6 16.4 C 41.6 16.4 41.7 16.4 41.7 16.4 C 41.7 16.4 41.7 16.4 41.7 16.4 C 41.7 16.4 41.8 16.4 41.8 16.4 C 41.8 16.4 41.8 16.4 41.8 16.4 C 41.8 16.4 41.9 16.4 42.1 16.4 C 42.3 16.4 42.5 16.3 42.8 16.3 C 42.8 16.3 42.8 16.3 42.8 16.3 C 42.8 16.3 42.8 16.3 42.8 16.3 C 42.9 16.3 42.9 16.3 43 16.3 C 43 16.3 43 16.3 43 16.4 C 43 16.4 43 16.4 43 16.5 C 43 16.5 42.9 16.5 42.9 16.5 Z M 44.4 16.9 C 44.3 16.7 44.2 16.5 44.2 16.5 C 44.2 16.5 44.2 16.4 44.3 16.4 C 44.3 16.3 44.3 16.3 44.4 16.3 C 44.4 16.3 44.5 16.4 44.5 16.6 C 44.5 16.8 44.7 17.2 45 17.9 C 45 17.9 45.1 17.8 45.1 17.7 C 45.3 17.5 45.4 17.2 45.5 17.1 C 45.8 16.5 46 16.2 46.1 16.2 C 46.2 16.2 46.2 16.3 46.2 16.3 C 46.2 16.4 46.2 16.4 46.2 16.4 C 46.2 16.4 46.2 16.4 46.1 16.5 C 45.9 16.8 45.8 17 45.6 17.3 C 45.5 17.5 45.4 17.7 45.3 17.8 C 45.2 18 45.2 18.1 45.1 18.1 C 45.1 18.2 45.1 18.2 45.1 18.2 C 45 18.2 45 18.2 44.9 18.2 C 44.9 18.2 44.8 18.1 44.8 17.9 C 44.7 17.8 44.6 17.5 44.4 16.9 C 44.4 16.9 44.4 16.9 44.4 16.9 Z M 47.7 16.5 C 47.7 16.5 47.7 16.5 47.6 16.5 C 47.6 16.5 47.5 16.5 47.5 16.5 C 47.4 16.5 47.4 16.5 47.4 16.5 C 47.3 16.5 47.3 16.5 47.3 16.6 C 47.2 16.6 47.2 16.6 47 16.6 C 46.9 16.6 46.8 16.6 46.7 16.6 C 46.7 16.6 46.7 16.7 46.7 16.7 C 46.6 16.8 46.6 16.8 46.6 16.9 C 46.6 17.1 46.6 17.2 46.6 17.2 C 46.6 17.2 46.6 17.2 46.6 17.2 C 46.6 17.2 46.7 17.2 46.8 17.2 C 47 17.2 47.1 17.2 47.1 17.2 C 47.2 17.1 47.3 17.1 47.4 17.1 C 47.5 17.1 47.6 17.2 47.6 17.2 C 47.6 17.3 47.5 17.3 47.5 17.4 C 47.4 17.4 47.2 17.4 47 17.4 C 46.7 17.5 46.6 17.5 46.5 17.5 C 46.5 17.5 46.5 17.6 46.5 17.8 C 46.5 17.9 46.4 18 46.4 18 C 46.4 18 46.4 18 46.4 18 C 46.5 18.1 46.5 18.1 46.5 18.1 C 46.5 18.1 46.6 18.1 46.6 18.1 C 46.6 18.1 46.7 18.1 46.7 18.1 C 46.7 18.1 47 18.1 47 18.1 C 47.1 18 47.2 18 47.3 18 C 47.4 18 47.5 18 47.5 18 C 47.5 18 47.6 18 47.6 18 C 47.6 18 47.6 18.1 47.6 18.1 C 47.6 18.1 47.6 18.2 47.6 18.2 C 47.5 18.2 47.4 18.2 47.3 18.2 C 47.1 18.2 47 18.3 46.7 18.3 C 46.6 18.3 46.5 18.3 46.4 18.3 C 46.3 18.3 46.3 18.3 46.2 18.3 C 46.2 18.3 46.2 18.3 46.2 18.2 C 46.18 18.19 46.2 18.1 46.2 18.1 C 46.2 18.1 46.18 18.14 46.2 18.1 C 46.2 18.1 46.2 18.1 46.2 18 C 46.2 18 46.2 17.9 46.3 17.7 C 46.3 17.5 46.3 17.4 46.3 17.3 C 46.3 17.2 46.3 17.2 46.4 17.1 C 46.4 16.9 46.4 16.8 46.4 16.6 C 46.4 16.6 46.4 16.6 46.4 16.6 C 46.4 16.6 46.4 16.6 46.4 16.6 C 46.4 16.5 46.4 16.5 46.4 16.5 C 46.4 16.5 46.4 16.5 46.4 16.5 C 46.4 16.5 46.4 16.5 46.4 16.5 C 46.4 16.4 46.4 16.4 46.4 16.4 C 46.4 16.4 46.4 16.4 46.5 16.4 C 46.5 16.4 46.5 16.4 46.5 16.4 C 46.5 16.4 46.5 16.4 46.6 16.4 C 46.6 16.4 46.6 16.4 46.6 16.4 C 46.6 16.4 46.7 16.4 46.9 16.4 C 47.1 16.4 47.3 16.3 47.5 16.3 C 47.6 16.3 47.6 16.3 47.6 16.3 C 47.6 16.3 47.6 16.3 47.6 16.3 C 47.7 16.3 47.7 16.3 47.7 16.3 C 47.8 16.3 47.8 16.3 47.8 16.4 C 47.8 16.4 47.8 16.4 47.8 16.5 C 47.7 16.5 47.7 16.5 47.7 16.5 Z M 48.4 16.3 C 48.6 16.3 48.8 16.3 49 16.3 C 49.1 16.3 49.3 16.3 49.4 16.4 C 49.5 16.5 49.6 16.6 49.6 16.7 C 49.6 16.9 49.5 17 49.4 17.1 C 49.3 17.2 49.1 17.3 48.9 17.4 C 48.9 17.4 48.9 17.4 48.9 17.4 C 48.9 17.5 49 17.5 49.2 17.7 C 49.4 17.8 49.5 17.9 49.7 18 C 49.7 18.1 49.8 18.1 49.8 18.1 C 49.8 18.2 49.7 18.2 49.7 18.2 C 49.7 18.2 49.7 18.3 49.6 18.3 C 49.6 18.3 49.5 18.2 49.4 18.1 C 49.3 18 49.1 17.9 49 17.8 C 48.8 17.6 48.6 17.5 48.6 17.5 C 48.5 17.5 48.5 17.5 48.4 17.5 C 48.4 17.5 48.4 17.4 48.4 17.4 C 48.4 17.4 48.4 17.3 48.5 17.3 C 48.5 17.3 48.5 17.3 48.6 17.3 C 48.6 17.3 48.6 17.3 48.6 17.3 C 48.7 17.3 48.7 17.3 48.7 17.3 C 48.8 17.3 48.9 17.2 49.1 17.1 C 49.3 17 49.3 16.9 49.3 16.7 C 49.3 16.7 49.3 16.6 49.2 16.6 C 49.1 16.5 49 16.5 48.9 16.5 C 48.8 16.5 48.7 16.5 48.7 16.5 C 48.6 16.5 48.5 16.5 48.5 16.5 C 48.5 16.5 48.4 16.6 48.4 16.6 C 48.4 16.6 48.4 16.7 48.4 16.9 C 48.3 17.1 48.3 17.3 48.3 17.5 C 48.2 17.7 48.2 17.8 48.2 17.9 C 48.2 18 48.2 18 48.3 18.1 C 48.3 18.1 48.3 18.2 48.3 18.2 C 48.3 18.2 48.3 18.2 48.2 18.3 C 48.2 18.3 48.2 18.3 48.1 18.3 C 48 18.3 48 18.2 48 18.1 C 48 17.7 48.1 17.2 48.2 16.7 C 48.2 16.6 48.2 16.6 48.2 16.6 C 48.2 16.6 48.2 16.6 48.2 16.6 C 48.1 16.5 48.1 16.5 48.1 16.5 C 48.1 16.4 48.1 16.4 48.2 16.4 C 48.2 16.3 48.2 16.3 48.3 16.3 C 48.3 16.3 48.4 16.3 48.4 16.3 Z M 50.1 16.8 C 50.2 16.7 50.2 16.7 50.2 16.6 C 50.2 16.6 50.2 16.6 50.1 16.6 C 50 16.5 50 16.5 50 16.5 C 50 16.4 50 16.4 50 16.4 C 50.1 16.3 50.1 16.3 50.1 16.3 C 50.1 16.3 50.3 16.3 50.3 16.3 C 50.4 16.3 50.5 16.3 50.7 16.3 C 50.8 16.3 50.9 16.3 51 16.3 C 51.2 16.3 51.4 16.4 51.6 16.5 C 51.7 16.6 51.8 16.8 51.8 17 C 51.8 17.3 51.7 17.5 51.5 17.7 C 51.3 17.9 51 18.1 50.6 18.2 C 50.4 18.2 50.3 18.2 50.3 18.3 C 50.2 18.3 50.1 18.4 50.1 18.4 C 50 18.4 50 18.3 50 18.3 C 50 18.3 49.9 18.2 49.9 18.2 C 49.9 18.2 50 18.2 50 18.1 C 50 18.1 50 18.1 50 18 C 50 18 50 17.9 50 17.8 C 50 17.7 50.1 17.5 50.1 17.3 C 50.1 17.1 50.1 16.9 50.1 16.8 C 50.1 16.8 50.1 16.8 50.1 16.8 Z M 50.5 16.5 C 50.5 16.5 50.5 16.5 50.4 16.5 C 50.3 17.2 50.3 17.6 50.3 17.9 C 50.3 17.9 50.3 18 50.3 18 C 50.3 18 50.3 18 50.3 18 C 50.4 18 50.5 18 50.8 17.9 C 51 17.8 51.2 17.7 51.4 17.6 C 51.5 17.4 51.6 17.2 51.6 17 C 51.6 16.9 51.5 16.7 51.4 16.6 C 51.3 16.5 51.1 16.5 50.9 16.5 C 50.8 16.5 50.7 16.5 50.5 16.5 C 50.5 16.5 50.5 16.5 50.5 16.5 Z M 52.9 16.3 C 53 16.3 53 16.3 53 16.3 C 53 16.3 53.1 16.3 53.1 16.4 C 53.1 16.4 53 16.5 53 16.5 C 53 16.5 53.1 16.5 53.1 16.5 C 53.1 16.6 53.1 16.7 53.1 16.8 C 53.2 16.9 53.2 17 53.3 17.1 C 53.3 17.3 53.4 17.5 53.5 17.7 C 53.6 17.9 53.7 18 53.7 18.1 C 53.8 18.1 53.8 18.1 53.8 18.1 C 53.8 18.2 53.8 18.2 53.8 18.2 C 53.8 18.2 53.8 18.3 53.8 18.3 C 53.8 18.3 53.7 18.3 53.7 18.3 C 53.6 18.3 53.4 18.2 53.3 17.8 C 53.2 17.7 53.2 17.6 53.2 17.6 C 53.1 17.6 53 17.6 52.9 17.6 C 52.8 17.7 52.6 17.7 52.5 17.7 C 52.4 17.7 52.4 17.8 52.4 17.8 C 52.4 17.8 52.3 17.7 52.3 17.7 C 52.3 17.7 52.3 17.7 52.3 17.7 C 52.3 17.7 52.2 17.8 52.2 17.9 C 52.1 18.1 52 18.2 52 18.2 C 51.9 18.3 51.9 18.3 51.9 18.3 C 51.8 18.3 51.8 18.3 51.8 18.2 C 51.7 18.2 51.7 18.2 51.7 18.2 C 51.7 18.1 51.7 18.1 51.8 18 C 51.8 18 51.9 17.9 52 17.8 C 52.2 17.5 52.3 17.2 52.4 17 C 52.6 16.7 52.7 16.4 52.8 16.4 C 52.8 16.3 52.9 16.3 52.9 16.3 C 52.9 16.3 52.9 16.3 52.9 16.3 Z M 52.7 17.5 C 52.9 17.4 53.1 17.4 53.1 17.4 C 53.1 17.3 53 17.2 53 17 C 52.9 16.8 52.9 16.7 52.9 16.6 C 52.8 16.7 52.7 16.9 52.6 17.1 C 52.6 17.1 52.4 17.5 52.4 17.5 C 52.4 17.5 52.5 17.5 52.5 17.5 C 52.6 17.5 52.7 17.5 52.7 17.5 C 52.7 17.5 52.7 17.5 52.7 17.5 Z M 54.2 16.8 C 54.3 16.7 54.3 16.7 54.3 16.6 C 54.3 16.6 54.2 16.6 54.2 16.6 C 54.1 16.5 54.1 16.5 54.1 16.5 C 54.1 16.4 54.1 16.4 54.1 16.4 C 54.2 16.3 54.2 16.3 54.2 16.3 C 54.2 16.3 54.4 16.3 54.4 16.3 C 54.5 16.3 54.6 16.3 54.8 16.3 C 54.9 16.3 55 16.3 55.1 16.3 C 55.3 16.3 55.5 16.4 55.7 16.5 C 55.8 16.6 55.9 16.8 55.9 17 C 55.9 17.3 55.8 17.5 55.6 17.7 C 55.4 17.9 55.1 18.1 54.7 18.2 C 54.5 18.2 54.4 18.2 54.3 18.3 C 54.3 18.3 54.2 18.4 54.2 18.4 C 54.1 18.4 54.1 18.3 54.1 18.3 C 54 18.3 54 18.2 54 18.2 C 54 18.2 54 18.2 54.1 18.1 C 54.1 18.1 54.1 18.1 54.1 18 C 54.1 18 54.1 17.9 54.1 17.8 C 54.1 17.7 54.1 17.5 54.2 17.3 C 54.2 17.1 54.2 16.9 54.2 16.8 C 54.2 16.8 54.2 16.8 54.2 16.8 Z M 54.6 16.5 C 54.6 16.5 54.5 16.5 54.5 16.5 C 54.4 17.2 54.3 17.6 54.3 17.9 C 54.3 17.9 54.4 18 54.4 18 C 54.4 18 54.4 18 54.4 18 C 54.5 18 54.6 18 54.9 17.9 C 55.1 17.8 55.3 17.7 55.4 17.6 C 55.6 17.4 55.7 17.2 55.7 17 C 55.7 16.9 55.6 16.7 55.5 16.6 C 55.4 16.5 55.2 16.5 55 16.5 C 54.9 16.5 54.8 16.5 54.6 16.5 C 54.6 16.5 54.6 16.5 54.6 16.5 Z M 57.7 16.5 C 57.7 16.5 57.6 16.5 57.6 16.5 C 57.6 16.5 57.5 16.5 57.5 16.5 C 57.4 16.5 57.4 16.5 57.3 16.5 C 57.3 16.5 57.3 16.5 57.2 16.6 C 57.2 16.6 57.1 16.6 57 16.6 C 56.8 16.6 56.7 16.6 56.7 16.6 C 56.7 16.6 56.6 16.7 56.6 16.7 C 56.6 16.8 56.6 16.8 56.6 16.9 C 56.5 17.1 56.5 17.2 56.5 17.2 C 56.5 17.2 56.5 17.2 56.5 17.2 C 56.6 17.2 56.7 17.2 56.8 17.2 C 56.9 17.2 57 17.2 57.1 17.2 C 57.2 17.1 57.3 17.1 57.4 17.1 C 57.5 17.1 57.6 17.2 57.6 17.2 C 57.6 17.3 57.5 17.3 57.4 17.4 C 57.4 17.4 57.2 17.4 57 17.4 C 56.7 17.5 56.5 17.5 56.5 17.5 C 56.5 17.5 56.5 17.6 56.5 17.8 C 56.4 17.9 56.4 18 56.4 18 C 56.4 18 56.4 18 56.4 18 C 56.4 18.1 56.5 18.1 56.5 18.1 C 56.5 18.1 56.5 18.1 56.5 18.1 C 56.6 18.1 56.6 18.1 56.7 18.1 C 56.7 18.1 57 18.1 57 18.1 C 57.1 18 57.2 18 57.3 18 C 57.4 18 57.5 18 57.5 18 C 57.5 18 57.5 18 57.6 18 C 57.6 18 57.6 18.1 57.6 18.1 C 57.6 18.1 57.6 18.2 57.6 18.2 C 57.5 18.2 57.4 18.2 57.2 18.2 C 57.1 18.2 56.9 18.3 56.7 18.3 C 56.5 18.3 56.4 18.3 56.4 18.3 C 56.3 18.3 56.2 18.3 56.2 18.3 C 56.2 18.3 56.2 18.3 56.2 18.2 C 56.15 18.19 56.1 18.1 56.1 18.1 C 56.1 18.1 56.15 18.14 56.1 18.1 C 56.1 18.1 56.2 18.1 56.2 18 C 56.2 18 56.2 17.9 56.3 17.7 C 56.3 17.5 56.3 17.4 56.3 17.3 C 56.3 17.2 56.3 17.2 56.3 17.1 C 56.4 16.9 56.4 16.8 56.4 16.6 C 56.4 16.6 56.4 16.6 56.4 16.6 C 56.4 16.6 56.4 16.6 56.4 16.6 C 56.3 16.5 56.3 16.5 56.3 16.5 C 56.3 16.5 56.3 16.5 56.3 16.5 C 56.3 16.5 56.3 16.5 56.3 16.5 C 56.3 16.4 56.3 16.4 56.4 16.4 C 56.4 16.4 56.4 16.4 56.4 16.4 C 56.4 16.4 56.4 16.4 56.4 16.4 C 56.5 16.4 56.5 16.4 56.6 16.4 C 56.6 16.4 56.6 16.4 56.6 16.4 C 56.6 16.4 56.7 16.4 56.9 16.4 C 57 16.4 57.3 16.3 57.5 16.3 C 57.5 16.3 57.5 16.3 57.5 16.3 C 57.5 16.3 57.6 16.3 57.6 16.3 C 57.6 16.3 57.7 16.3 57.7 16.3 C 57.7 16.3 57.8 16.3 57.8 16.4 C 57.8 16.4 57.7 16.4 57.7 16.5 C 57.7 16.5 57.7 16.5 57.7 16.5 Z M 58.1 17.9 C 58.1 17.9 58.2 17.9 58.2 17.9 C 58.2 17.9 58.2 17.9 58.2 17.9 C 58.2 17.9 58.3 17.9 58.3 18 C 58.3 18 58.2 18 58.2 18.1 C 58.2 18.1 58.2 18.1 58.1 18.2 C 58.1 18.2 58.1 18.2 58 18.2 C 58 18.2 58 18.2 58 18.2 C 57.9 18.2 57.9 18.1 57.9 18 C 57.9 18 57.9 17.9 57.9 17.9 C 58 17.9 58 17.9 58 17.9 C 58 17.9 58.1 17.9 58.1 17.9 Z " stroke="none" fill="#000"/>  </g>  <g id="Polygon12891">    <path d="M 7.3 12.9 C 7.3 12.9 7.3 12.8 7.3 12.8 C 7.2 12.9 7.1 13.1 6.9 13.3 C 6.7 13.6 6.6 13.8 6.5 13.8 C 6.4 13.9 6.4 13.9 6.3 13.9 C 6.3 13.9 6.2 13.9 6.2 13.9 C 6.2 13.8 6.1 13.7 6.1 13.5 C 6 13.2 5.9 13 5.9 12.9 C 5.8 13 5.8 13 5.8 13.1 C 5.8 13.2 5.8 13.4 5.7 13.6 C 5.6 14 5.6 14.3 5.6 14.4 C 5.6 14.4 5.5 14.4 5.5 14.5 C 5.5 14.5 5.5 14.5 5.4 14.5 C 5.4 14.5 5.4 14.5 5.4 14.4 C 5.3 14.4 5.3 14.4 5.3 14.3 C 5.3 14.3 5.3 14.1 5.4 13.9 C 5.4 13.9 5.5 13.5 5.5 13.5 C 5.6 13.2 5.6 13 5.6 12.9 C 5.7 12.8 5.7 12.7 5.7 12.6 C 5.7 12.5 5.7 12.5 5.8 12.5 C 5.9 12.5 5.9 12.5 5.9 12.5 C 6 12.6 6 12.6 6 12.6 C 6 12.7 6 12.7 6 12.8 C 6 12.8 6.2 13.3 6.2 13.3 C 6.3 13.5 6.3 13.6 6.3 13.6 C 6.4 13.6 6.4 13.7 6.4 13.7 C 6.4 13.6 6.6 13.4 6.9 13.1 C 7.2 12.6 7.3 12.4 7.4 12.4 C 7.4 12.4 7.5 12.4 7.5 12.5 C 7.5 12.5 7.6 12.5 7.6 12.5 C 7.6 12.6 7.5 12.7 7.5 13.1 C 7.5 13.3 7.5 13.4 7.4 13.6 C 7.4 13.8 7.4 14 7.4 14 C 7.4 14 7.4 14.1 7.4 14.1 C 7.5 14.2 7.5 14.2 7.5 14.2 C 7.5 14.3 7.5 14.3 7.4 14.4 C 7.4 14.4 7.4 14.4 7.4 14.4 C 7.4 14.4 7.3 14.4 7.3 14.4 C 7.2 14.4 7.2 14.4 7.2 14.2 C 7.2 14.1 7.2 13.7 7.3 13.2 C 7.3 13.1 7.3 13.1 7.3 13.1 C 7.3 13.1 7.3 13 7.3 13 C 7.3 12.9 7.3 12.9 7.3 12.9 C 7.3 12.9 7.3 12.9 7.3 12.9 Z M 8.7 14.5 C 8.6 14.5 8.5 14.5 8.3 14.4 C 8.2 14.3 8.1 14.2 8 14.1 C 8 14 7.9 13.8 7.9 13.6 C 7.9 13.5 8 13.4 8 13.1 C 8 13.1 8 13 8 12.9 C 8.1 12.7 8.1 12.6 8.1 12.6 C 8.1 12.5 8.1 12.5 8.2 12.5 C 8.2 12.5 8.2 12.5 8.2 12.5 C 8.3 12.5 8.3 12.5 8.3 12.5 C 8.3 12.6 8.3 12.6 8.3 12.6 C 8.3 12.6 8.3 12.7 8.3 12.9 C 8.3 12.9 8.2 13.1 8.2 13.2 C 8.2 13.4 8.2 13.5 8.2 13.6 C 8.2 13.9 8.2 14 8.4 14.1 C 8.5 14.2 8.6 14.3 8.6 14.3 C 8.8 14.3 8.9 14.2 9 14.2 C 9.1 14.2 9.2 14.1 9.3 13.9 C 9.3 13.8 9.4 13.6 9.4 13.3 C 9.4 12.9 9.5 12.7 9.5 12.6 C 9.5 12.5 9.6 12.5 9.6 12.5 C 9.7 12.5 9.7 12.5 9.7 12.6 C 9.7 12.7 9.7 12.9 9.7 13.1 C 9.6 13.2 9.6 13.3 9.6 13.5 C 9.6 13.6 9.6 13.7 9.6 13.8 C 9.6 13.9 9.5 14 9.5 14 C 9.5 14.1 9.4 14.2 9.4 14.2 C 9.3 14.3 9.2 14.3 9.2 14.4 C 9.1 14.4 9 14.4 8.9 14.5 C 8.8 14.5 8.7 14.5 8.7 14.5 Z M 10.2 13 C 10.2 12.9 10.2 12.8 10.2 12.8 C 10.2 12.8 10.2 12.7 10.2 12.7 C 10.1 12.7 10 12.7 10 12.6 C 10 12.6 10.1 12.6 10.1 12.5 C 10.1 12.5 10.1 12.5 10.2 12.5 C 10.2 12.5 10.4 12.5 10.4 12.5 C 10.5 12.5 10.6 12.5 10.7 12.5 C 10.9 12.5 11 12.5 11 12.5 C 11.3 12.5 11.5 12.5 11.6 12.7 C 11.8 12.8 11.8 13 11.8 13.2 C 11.8 13.5 11.7 13.7 11.5 13.9 C 11.3 14.1 11 14.2 10.6 14.3 C 10.5 14.4 10.4 14.4 10.3 14.4 C 10.2 14.5 10.2 14.5 10.1 14.5 C 10.1 14.5 10.1 14.5 10 14.5 C 10 14.4 10 14.4 10 14.4 C 10 14.4 10 14.4 10 14.3 C 10 14.3 10 14.2 10.1 14.2 C 10.1 14.2 10.1 14.1 10.1 14 C 10.1 13.9 10.1 13.7 10.1 13.5 C 10.1 13.2 10.2 13.1 10.2 13 C 10.2 13 10.2 13 10.2 13 Z M 10.6 12.7 C 10.5 12.7 10.5 12.7 10.5 12.7 C 10.3 13.3 10.3 13.8 10.3 14 C 10.3 14.1 10.3 14.1 10.3 14.2 C 10.3 14.2 10.3 14.2 10.4 14.2 C 10.4 14.2 10.6 14.1 10.8 14.1 C 11 14 11.2 13.9 11.4 13.7 C 11.5 13.6 11.6 13.4 11.6 13.2 C 11.6 13 11.6 12.9 11.4 12.8 C 11.3 12.7 11.2 12.7 11 12.7 C 10.9 12.7 10.7 12.7 10.6 12.7 C 10.6 12.7 10.6 12.7 10.6 12.7 Z M 13.6 12.7 C 13.6 12.7 13.6 12.7 13.5 12.7 C 13.5 12.7 13.5 12.7 13.4 12.7 C 13.4 12.7 13.3 12.7 13.3 12.7 C 13.3 12.7 13.2 12.7 13.2 12.7 C 13.2 12.7 13.1 12.7 13 12.7 C 12.8 12.7 12.7 12.7 12.6 12.8 C 12.6 12.8 12.6 12.8 12.6 12.9 C 12.6 12.9 12.6 13 12.5 13.1 C 12.5 13.2 12.5 13.3 12.5 13.4 C 12.5 13.4 12.5 13.4 12.5 13.4 C 12.5 13.4 12.6 13.4 12.8 13.4 C 12.9 13.4 13 13.4 13 13.3 C 13.2 13.3 13.3 13.3 13.3 13.3 C 13.4 13.3 13.5 13.3 13.5 13.4 C 13.5 13.5 13.5 13.5 13.4 13.5 C 13.3 13.5 13.2 13.6 12.9 13.6 C 12.6 13.6 12.5 13.6 12.5 13.7 C 12.4 13.7 12.4 13.8 12.4 13.9 C 12.4 14.1 12.4 14.1 12.4 14.2 C 12.4 14.2 12.4 14.2 12.4 14.2 C 12.4 14.2 12.4 14.3 12.5 14.3 C 12.5 14.3 12.5 14.3 12.5 14.3 C 12.5 14.3 12.6 14.3 12.7 14.3 C 12.7 14.3 12.9 14.2 12.9 14.2 C 13 14.2 13.1 14.2 13.2 14.2 C 13.3 14.2 13.4 14.1 13.4 14.1 C 13.5 14.1 13.5 14.2 13.5 14.2 C 13.6 14.2 13.6 14.2 13.6 14.3 C 13.6 14.3 13.6 14.3 13.5 14.3 C 13.5 14.4 13.3 14.4 13.2 14.4 C 13.1 14.4 12.9 14.4 12.6 14.5 C 12.5 14.5 12.4 14.5 12.3 14.5 C 12.2 14.5 12.2 14.5 12.2 14.5 C 12.1 14.5 12.1 14.4 12.1 14.4 C 12.1 14.35 12.1 14.3 12.1 14.3 C 12.1 14.3 12.1 14.3 12.1 14.3 C 12.1 14.3 12.1 14.3 12.1 14.2 C 12.1 14.2 12.2 14 12.2 13.9 C 12.2 13.7 12.3 13.5 12.3 13.4 C 12.3 13.4 12.3 13.4 12.3 13.3 C 12.3 13.1 12.3 12.9 12.3 12.8 C 12.3 12.8 12.3 12.8 12.3 12.7 C 12.3 12.7 12.3 12.7 12.3 12.7 C 12.3 12.7 12.3 12.7 12.3 12.7 C 12.3 12.7 12.3 12.7 12.3 12.6 C 12.3 12.6 12.3 12.6 12.3 12.6 C 12.3 12.6 12.3 12.6 12.3 12.6 C 12.3 12.6 12.4 12.6 12.4 12.6 C 12.4 12.6 12.4 12.6 12.4 12.6 C 12.4 12.6 12.5 12.6 12.5 12.6 C 12.5 12.6 12.5 12.6 12.5 12.6 C 12.5 12.6 12.6 12.6 12.8 12.5 C 13 12.5 13.2 12.5 13.5 12.4 C 13.5 12.4 13.5 12.4 13.5 12.4 C 13.5 12.4 13.5 12.4 13.5 12.4 C 13.6 12.4 13.6 12.4 13.7 12.5 C 13.7 12.5 13.7 12.5 13.7 12.6 C 13.7 12.6 13.7 12.6 13.7 12.6 C 13.7 12.7 13.6 12.7 13.6 12.7 Z M 15.4 14.5 C 15.3 14.5 15.2 14.4 15.1 14.3 C 15 14.1 14.9 14 14.9 13.8 C 14.9 13.7 15 13.5 15.1 13.2 C 15.2 13 15.3 12.8 15.5 12.7 C 15.7 12.5 15.9 12.4 16 12.4 C 16.2 12.4 16.3 12.5 16.4 12.5 C 16.5 12.5 16.6 12.6 16.7 12.7 C 16.8 12.7 16.8 12.8 16.8 12.9 C 16.9 12.9 16.9 13 16.9 13.2 C 16.9 13.3 16.8 13.4 16.8 13.6 C 16.7 13.7 16.6 13.9 16.4 14.1 C 16.3 14.2 16.1 14.3 16 14.4 C 15.8 14.5 15.7 14.5 15.4 14.5 Z M 15.1 13.8 C 15.1 14 15.2 14.1 15.3 14.1 C 15.3 14.2 15.4 14.3 15.5 14.3 C 15.8 14.3 16.1 14.1 16.3 13.9 C 16.5 13.6 16.6 13.4 16.6 13.1 C 16.6 13 16.6 12.9 16.6 12.9 C 16.5 12.8 16.4 12.7 16.4 12.7 C 16.3 12.7 16.2 12.6 16 12.6 C 15.8 12.6 15.6 12.8 15.4 13 C 15.2 13.3 15.1 13.6 15.1 13.8 Z M 19.4 12.9 C 19.4 12.8 19.4 12.7 19.3 12.7 C 19.3 12.7 19.2 12.6 19.1 12.6 C 18.9 12.6 18.8 12.7 18.6 12.8 C 18.4 12.8 18.4 12.9 18.4 13 C 18.4 13.1 18.4 13.2 18.5 13.2 C 18.5 13.3 18.7 13.3 18.9 13.4 C 19.1 13.5 19.3 13.5 19.4 13.6 C 19.5 13.7 19.5 13.8 19.5 13.9 C 19.5 14 19.5 14.1 19.3 14.2 C 19.2 14.3 19 14.4 18.9 14.4 C 18.7 14.5 18.5 14.5 18.4 14.5 C 18.3 14.5 18.2 14.5 18.1 14.5 C 18.1 14.5 18.1 14.4 18.1 14.4 C 18.1 14.4 18.1 14.3 18.1 14.3 C 18.1 14.2 18.1 14.2 18.1 14.2 C 18.2 14.2 18.2 14.2 18.2 14.2 C 18.3 14.3 18.4 14.3 18.5 14.3 C 18.6 14.3 18.8 14.2 19 14.1 C 19.2 14 19.3 13.9 19.3 13.9 C 19.3 13.8 19.3 13.8 19.2 13.8 C 19.1 13.7 19 13.7 18.8 13.6 C 18.5 13.5 18.3 13.4 18.2 13.3 C 18.2 13.2 18.1 13.2 18.1 13.1 C 18.1 12.9 18.2 12.7 18.5 12.6 C 18.7 12.5 18.9 12.4 19.1 12.4 C 19.3 12.4 19.4 12.5 19.5 12.5 C 19.6 12.6 19.6 12.6 19.6 12.7 C 19.6 12.7 19.6 12.8 19.6 12.8 C 19.6 12.9 19.5 12.9 19.4 12.9 Z M 20.4 12.6 C 20.3 12.7 20.3 12.8 20.3 13 C 20.2 13.1 20.2 13.2 20.2 13.3 C 20.2 13.3 20.2 13.4 20.2 13.4 C 20.2 13.6 20.1 13.8 20.1 13.9 C 20.1 14 20.1 14.1 20.2 14.2 C 20.2 14.3 20.2 14.4 20.1 14.4 C 20.1 14.4 20.1 14.4 20 14.4 C 20 14.4 19.9 14.4 19.9 14.4 C 19.9 14.3 19.9 14.2 19.9 14.1 C 19.9 14 19.9 13.8 19.9 13.6 C 20 13.5 20 13.4 20 13.4 C 20 13.4 20 13.4 20 13.3 C 20 13.3 20 13.3 20 13.2 C 20 13.2 20 13 20 12.9 C 20.1 12.8 20.1 12.7 20.1 12.6 C 20.1 12.6 20.1 12.6 20.1 12.5 C 20.1 12.5 20.1 12.5 20.2 12.5 C 20.2 12.5 20.2 12.4 20.2 12.4 C 20.3 12.4 20.3 12.5 20.3 12.5 C 20.3 12.5 20.4 12.6 20.4 12.6 Z M 21.9 12.9 C 21.9 12.8 21.9 12.7 21.9 12.7 C 21.8 12.7 21.7 12.6 21.6 12.6 C 21.4 12.6 21.3 12.7 21.1 12.8 C 21 12.8 20.9 12.9 20.9 13 C 20.9 13.1 20.9 13.2 21 13.2 C 21 13.3 21.2 13.3 21.4 13.4 C 21.6 13.5 21.8 13.5 21.9 13.6 C 22 13.7 22 13.8 22 13.9 C 22 14 22 14.1 21.8 14.2 C 21.7 14.3 21.6 14.4 21.4 14.4 C 21.2 14.5 21 14.5 20.9 14.5 C 20.8 14.5 20.7 14.5 20.7 14.5 C 20.6 14.5 20.6 14.4 20.6 14.4 C 20.6 14.4 20.6 14.3 20.6 14.3 C 20.6 14.2 20.6 14.2 20.6 14.2 C 20.7 14.2 20.7 14.2 20.7 14.2 C 20.8 14.3 20.9 14.3 21 14.3 C 21.2 14.3 21.3 14.2 21.5 14.1 C 21.7 14 21.8 13.9 21.8 13.9 C 21.8 13.8 21.8 13.8 21.7 13.8 C 21.7 13.7 21.5 13.7 21.3 13.6 C 21 13.5 20.8 13.4 20.7 13.3 C 20.7 13.2 20.6 13.2 20.6 13.1 C 20.6 12.9 20.8 12.7 21 12.6 C 21.2 12.5 21.4 12.4 21.6 12.4 C 21.8 12.4 21.9 12.5 22 12.5 C 22.1 12.6 22.1 12.6 22.1 12.7 C 22.1 12.7 22.1 12.8 22.1 12.8 C 22.1 12.9 22 12.9 21.9 12.9 Z M 22.4 12.8 C 22.3 12.8 22.2 12.8 22.2 12.8 C 22.2 12.8 22.2 12.7 22.2 12.7 C 22.2 12.7 22.2 12.6 22.2 12.6 C 22.3 12.6 22.3 12.6 22.5 12.6 C 22.7 12.6 22.8 12.6 23 12.6 C 23.1 12.6 23.3 12.5 23.6 12.5 C 23.7 12.5 23.8 12.5 23.9 12.5 C 24 12.5 24 12.5 24.1 12.5 C 24.1 12.5 24.2 12.5 24.2 12.5 C 24.2 12.5 24.2 12.5 24.2 12.6 C 24.2 12.6 24.2 12.6 24.2 12.6 C 24.2 12.7 24.2 12.7 24.2 12.7 C 24.1 12.7 24.1 12.7 24.1 12.7 C 24 12.7 23.9 12.7 23.8 12.7 C 23.8 12.7 23.6 12.7 23.5 12.7 C 23.4 12.7 23.3 12.8 23.3 12.8 C 23.3 12.8 23.3 13 23.2 13.3 C 23.2 13.6 23.2 13.9 23.2 14 C 23.2 14.1 23.2 14.2 23.2 14.3 C 23.2 14.3 23.2 14.3 23.2 14.3 C 23.2 14.3 23.2 14.4 23.2 14.4 C 23.2 14.4 23.1 14.4 23.1 14.4 C 23.1 14.4 23 14.4 23 14.4 C 23 14.3 22.9 14.2 22.9 14 C 22.9 13.8 23 13.4 23.1 12.9 C 23.1 12.8 23.1 12.8 23.1 12.8 C 23.1 12.8 23 12.8 23 12.8 C 23 12.8 22.9 12.8 22.7 12.8 C 22.6 12.8 22.4 12.8 22.4 12.8 C 22.4 12.8 22.4 12.8 22.4 12.8 Z M 25.7 12.7 C 25.7 12.7 25.6 12.7 25.6 12.7 C 25.5 12.7 25.5 12.7 25.4 12.7 C 25.4 12.7 25.4 12.7 25.3 12.7 C 25.3 12.7 25.3 12.7 25.2 12.7 C 25.2 12.7 25.1 12.7 25 12.7 C 24.8 12.7 24.7 12.7 24.7 12.8 C 24.6 12.8 24.6 12.8 24.6 12.9 C 24.6 12.9 24.6 13 24.6 13.1 C 24.5 13.2 24.5 13.3 24.5 13.4 C 24.5 13.4 24.5 13.4 24.5 13.4 C 24.6 13.4 24.7 13.4 24.8 13.4 C 24.9 13.4 25 13.4 25.1 13.3 C 25.2 13.3 25.3 13.3 25.4 13.3 C 25.5 13.3 25.5 13.3 25.5 13.4 C 25.5 13.5 25.5 13.5 25.4 13.5 C 25.4 13.5 25.2 13.6 25 13.6 C 24.7 13.6 24.5 13.6 24.5 13.7 C 24.5 13.7 24.5 13.8 24.4 13.9 C 24.4 14.1 24.4 14.1 24.4 14.2 C 24.4 14.2 24.4 14.2 24.4 14.2 C 24.4 14.2 24.4 14.3 24.5 14.3 C 24.5 14.3 24.5 14.3 24.5 14.3 C 24.6 14.3 24.6 14.3 24.7 14.3 C 24.7 14.3 24.9 14.2 24.9 14.2 C 25 14.2 25.1 14.2 25.2 14.2 C 25.4 14.2 25.4 14.1 25.5 14.1 C 25.5 14.1 25.5 14.2 25.6 14.2 C 25.6 14.2 25.6 14.2 25.6 14.3 C 25.6 14.3 25.6 14.3 25.6 14.3 C 25.5 14.4 25.4 14.4 25.2 14.4 C 25.1 14.4 24.9 14.4 24.6 14.5 C 24.5 14.5 24.4 14.5 24.4 14.5 C 24.3 14.5 24.2 14.5 24.2 14.5 C 24.2 14.5 24.1 14.4 24.1 14.4 C 24.14 14.35 24.1 14.3 24.1 14.3 C 24.1 14.3 24.13 14.3 24.1 14.3 C 24.1 14.3 24.1 14.3 24.2 14.2 C 24.2 14.2 24.2 14 24.2 13.9 C 24.3 13.7 24.3 13.5 24.3 13.4 C 24.3 13.4 24.3 13.4 24.3 13.3 C 24.4 13.1 24.4 12.9 24.4 12.8 C 24.4 12.8 24.4 12.8 24.3 12.7 C 24.3 12.7 24.3 12.7 24.3 12.7 C 24.3 12.7 24.3 12.7 24.3 12.7 C 24.3 12.7 24.3 12.7 24.3 12.6 C 24.3 12.6 24.3 12.6 24.3 12.6 C 24.3 12.6 24.3 12.6 24.3 12.6 C 24.4 12.6 24.4 12.6 24.4 12.6 C 24.4 12.6 24.4 12.6 24.4 12.6 C 24.5 12.6 24.5 12.6 24.6 12.6 C 24.6 12.6 24.6 12.6 24.6 12.6 C 24.6 12.6 24.7 12.6 24.9 12.5 C 25 12.5 25.2 12.5 25.5 12.4 C 25.5 12.4 25.5 12.4 25.5 12.4 C 25.5 12.4 25.6 12.4 25.6 12.4 C 25.6 12.4 25.7 12.4 25.7 12.5 C 25.7 12.5 25.7 12.5 25.7 12.6 C 25.7 12.6 25.7 12.6 25.7 12.6 C 25.7 12.7 25.7 12.7 25.7 12.7 Z M 27.9 12.9 C 27.9 12.9 27.9 12.8 27.9 12.8 C 27.8 12.9 27.7 13.1 27.5 13.3 C 27.3 13.6 27.2 13.8 27.1 13.8 C 27 13.9 26.9 13.9 26.9 13.9 C 26.9 13.9 26.8 13.9 26.8 13.9 C 26.8 13.8 26.7 13.7 26.7 13.5 C 26.5 13.2 26.5 13 26.4 12.9 C 26.4 13 26.4 13 26.4 13.1 C 26.4 13.2 26.3 13.4 26.3 13.6 C 26.2 14 26.1 14.3 26.1 14.4 C 26.1 14.4 26.1 14.4 26.1 14.5 C 26.1 14.5 26 14.5 26 14.5 C 26 14.5 26 14.5 25.9 14.4 C 25.9 14.4 25.9 14.4 25.9 14.3 C 25.9 14.3 25.9 14.1 26 13.9 C 26 13.9 26.1 13.5 26.1 13.5 C 26.2 13.2 26.2 13 26.2 12.9 C 26.2 12.8 26.2 12.7 26.2 12.6 C 26.2 12.5 26.3 12.5 26.4 12.5 C 26.5 12.5 26.5 12.5 26.5 12.5 C 26.5 12.6 26.6 12.6 26.6 12.6 C 26.6 12.7 26.6 12.7 26.6 12.8 C 26.6 12.8 26.8 13.3 26.8 13.3 C 26.9 13.5 26.9 13.6 26.9 13.6 C 26.9 13.6 26.9 13.7 27 13.7 C 27 13.6 27.2 13.4 27.4 13.1 C 27.7 12.6 27.9 12.4 28 12.4 C 28 12.4 28 12.4 28.1 12.5 C 28.1 12.5 28.2 12.5 28.2 12.5 C 28.2 12.6 28.1 12.7 28.1 13.1 C 28.1 13.3 28 13.4 28 13.6 C 28 13.8 28 14 28 14 C 28 14 28 14.1 28 14.1 C 28 14.2 28 14.2 28 14.2 C 28 14.3 28 14.3 28 14.4 C 28 14.4 28 14.4 28 14.4 C 27.9 14.4 27.9 14.4 27.9 14.4 C 27.8 14.4 27.8 14.4 27.8 14.2 C 27.8 14.1 27.8 13.7 27.9 13.2 C 27.9 13.1 27.9 13.1 27.9 13.1 C 27.9 13.1 27.9 13 27.9 13 C 27.9 12.9 27.9 12.9 27.9 12.9 C 27.9 12.9 27.9 12.9 27.9 12.9 Z M 29.4 12.4 C 29.5 12.4 29.5 12.5 29.6 12.5 C 29.6 12.5 29.6 12.5 29.6 12.6 C 29.6 12.6 29.6 12.6 29.6 12.6 C 29.6 12.6 29.6 12.7 29.6 12.7 C 29.6 12.8 29.7 12.9 29.7 13 C 29.7 13 29.8 13.1 29.8 13.2 C 29.9 13.5 30 13.7 30 13.9 C 30.1 14 30.2 14.2 30.3 14.2 C 30.3 14.3 30.3 14.3 30.4 14.3 C 30.4 14.3 30.4 14.3 30.4 14.4 C 30.4 14.4 30.4 14.4 30.3 14.5 C 30.3 14.5 30.3 14.5 30.2 14.5 C 30.1 14.5 30 14.3 29.8 14 C 29.8 13.8 29.7 13.8 29.7 13.8 C 29.7 13.8 29.6 13.8 29.4 13.8 C 29.3 13.8 29.2 13.9 29 13.9 C 29 13.9 28.9 13.9 28.9 13.9 C 28.9 13.9 28.9 13.9 28.8 13.9 C 28.8 13.9 28.8 13.9 28.8 13.9 C 28.8 13.9 28.8 13.9 28.7 14.1 C 28.6 14.2 28.5 14.4 28.5 14.4 C 28.5 14.4 28.4 14.5 28.4 14.5 C 28.4 14.5 28.4 14.4 28.3 14.4 C 28.3 14.4 28.3 14.4 28.3 14.3 C 28.3 14.3 28.3 14.3 28.3 14.2 C 28.4 14.2 28.4 14.1 28.5 13.9 C 28.7 13.7 28.8 13.4 29 13.2 C 29.2 12.8 29.3 12.6 29.3 12.5 C 29.4 12.5 29.4 12.4 29.4 12.4 C 29.4 12.4 29.4 12.4 29.4 12.4 Z M 29.2 13.6 C 29.5 13.6 29.6 13.6 29.7 13.5 C 29.6 13.5 29.6 13.3 29.5 13.2 C 29.5 13 29.4 12.8 29.4 12.8 C 29.3 12.9 29.3 13 29.2 13.2 C 29.2 13.2 28.9 13.7 28.9 13.7 C 28.9 13.7 29 13.7 29.1 13.7 C 29.1 13.6 29.2 13.6 29.2 13.6 C 29.2 13.6 29.2 13.6 29.2 13.6 Z M 33.1 12.7 C 33.1 12.7 33.1 12.7 33.1 12.7 C 33 12.7 33 12.7 32.9 12.7 C 32.9 12.7 32.8 12.7 32.8 12.7 C 32.8 12.7 32.7 12.7 32.7 12.7 C 32.7 12.7 32.6 12.7 32.5 12.7 C 32.3 12.7 32.2 12.7 32.2 12.8 C 32.1 12.8 32.1 12.8 32.1 12.9 C 32.1 12.9 32.1 13 32.1 13.1 C 32 13.2 32 13.3 32 13.4 C 32 13.4 32 13.4 32 13.4 C 32 13.4 32.1 13.4 32.3 13.4 C 32.4 13.4 32.5 13.4 32.5 13.3 C 32.7 13.3 32.8 13.3 32.8 13.3 C 33 13.3 33 13.3 33 13.4 C 33 13.5 33 13.5 32.9 13.5 C 32.8 13.5 32.7 13.6 32.4 13.6 C 32.1 13.6 32 13.6 32 13.7 C 32 13.7 31.9 13.8 31.9 13.9 C 31.9 14.1 31.9 14.1 31.9 14.2 C 31.9 14.2 31.9 14.2 31.9 14.2 C 31.9 14.2 31.9 14.3 32 14.3 C 32 14.3 32 14.3 32 14.3 C 32 14.3 32.1 14.3 32.2 14.3 C 32.2 14.3 32.4 14.2 32.4 14.2 C 32.5 14.2 32.6 14.2 32.7 14.2 C 32.8 14.2 32.9 14.1 32.9 14.1 C 33 14.1 33 14.2 33 14.2 C 33.1 14.2 33.1 14.2 33.1 14.3 C 33.1 14.3 33.1 14.3 33 14.3 C 33 14.4 32.8 14.4 32.7 14.4 C 32.6 14.4 32.4 14.4 32.1 14.5 C 32 14.5 31.9 14.5 31.9 14.5 C 31.8 14.5 31.7 14.5 31.7 14.5 C 31.6 14.5 31.6 14.4 31.6 14.4 C 31.61 14.35 31.6 14.3 31.6 14.3 C 31.6 14.3 31.61 14.3 31.6 14.3 C 31.6 14.3 31.6 14.3 31.6 14.2 C 31.7 14.2 31.7 14 31.7 13.9 C 31.7 13.7 31.8 13.5 31.8 13.4 C 31.8 13.4 31.8 13.4 31.8 13.3 C 31.8 13.1 31.8 12.9 31.8 12.8 C 31.8 12.8 31.8 12.8 31.8 12.7 C 31.8 12.7 31.8 12.7 31.8 12.7 C 31.8 12.7 31.8 12.7 31.8 12.7 C 31.8 12.7 31.8 12.7 31.8 12.6 C 31.8 12.6 31.8 12.6 31.8 12.6 C 31.8 12.6 31.8 12.6 31.8 12.6 C 31.8 12.6 31.9 12.6 31.9 12.6 C 31.9 12.6 31.9 12.6 31.9 12.6 C 31.9 12.6 32 12.6 32 12.6 C 32 12.6 32 12.6 32 12.6 C 32 12.6 32.1 12.6 32.3 12.5 C 32.5 12.5 32.7 12.5 33 12.4 C 33 12.4 33 12.4 33 12.4 C 33 12.4 33 12.4 33 12.4 C 33.1 12.4 33.1 12.4 33.2 12.5 C 33.2 12.5 33.2 12.5 33.2 12.6 C 33.2 12.6 33.2 12.6 33.2 12.6 C 33.2 12.7 33.1 12.7 33.1 12.7 Z M 33.4 14.2 C 33.5 14.1 33.5 14.1 33.5 14 C 33.5 14 33.5 13.9 33.5 13.7 C 33.5 13.5 33.6 13.3 33.6 13 C 33.6 12.7 33.6 12.6 33.6 12.6 C 33.6 12.5 33.7 12.5 33.7 12.5 C 33.7 12.5 33.7 12.4 33.8 12.4 C 33.8 12.4 33.8 12.5 33.9 12.5 C 33.9 12.5 33.9 12.5 33.9 12.6 C 33.9 12.6 33.9 12.7 33.9 12.8 C 33.8 12.9 33.8 13.1 33.8 13.5 C 33.7 13.8 33.7 14 33.7 14.1 C 33.7 14.1 33.7 14.1 33.7 14.2 C 33.7 14.2 33.7 14.2 33.8 14.2 C 33.8 14.2 33.9 14.2 34.1 14.1 C 34.2 14.1 34.3 14.1 34.6 14.1 C 34.7 14.1 34.7 14.1 34.8 14.1 C 34.8 14.1 34.8 14.1 34.8 14.1 C 34.9 14.1 34.9 14.1 34.9 14.1 C 34.9 14.1 34.9 14.1 34.9 14.2 C 34.9 14.2 34.9 14.3 34.9 14.3 C 34.8 14.3 34.8 14.3 34.7 14.3 C 34.7 14.3 34.7 14.3 34.6 14.3 C 34.6 14.3 34.5 14.3 34.5 14.3 C 34.2 14.3 33.9 14.4 33.7 14.5 C 33.6 14.5 33.6 14.5 33.5 14.5 C 33.5 14.5 33.5 14.5 33.4 14.4 C 33.4 14.4 33.4 14.4 33.4 14.3 C 33.4 14.3 33.4 14.3 33.4 14.2 C 33.4 14.2 33.4 14.2 33.4 14.2 Z M 36.6 12.7 C 36.6 12.7 36.6 12.7 36.5 12.7 C 36.5 12.7 36.5 12.7 36.4 12.7 C 36.4 12.7 36.3 12.7 36.3 12.7 C 36.2 12.7 36.2 12.7 36.2 12.7 C 36.2 12.7 36.1 12.7 36 12.7 C 35.8 12.7 35.7 12.7 35.6 12.8 C 35.6 12.8 35.6 12.8 35.6 12.9 C 35.6 12.9 35.6 13 35.5 13.1 C 35.5 13.2 35.5 13.3 35.5 13.4 C 35.5 13.4 35.5 13.4 35.5 13.4 C 35.5 13.4 35.6 13.4 35.7 13.4 C 35.9 13.4 36 13.4 36 13.3 C 36.2 13.3 36.3 13.3 36.3 13.3 C 36.4 13.3 36.5 13.3 36.5 13.4 C 36.5 13.5 36.5 13.5 36.4 13.5 C 36.3 13.5 36.2 13.6 35.9 13.6 C 35.6 13.6 35.5 13.6 35.5 13.7 C 35.4 13.7 35.4 13.8 35.4 13.9 C 35.4 14.1 35.4 14.1 35.4 14.2 C 35.4 14.2 35.4 14.2 35.4 14.2 C 35.4 14.2 35.4 14.3 35.5 14.3 C 35.5 14.3 35.5 14.3 35.5 14.3 C 35.5 14.3 35.6 14.3 35.7 14.3 C 35.7 14.3 35.9 14.2 35.9 14.2 C 36 14.2 36.1 14.2 36.2 14.2 C 36.3 14.2 36.4 14.1 36.4 14.1 C 36.5 14.1 36.5 14.2 36.5 14.2 C 36.5 14.2 36.6 14.2 36.6 14.3 C 36.6 14.3 36.6 14.3 36.5 14.3 C 36.4 14.4 36.3 14.4 36.2 14.4 C 36.1 14.4 35.9 14.4 35.6 14.5 C 35.5 14.5 35.4 14.5 35.3 14.5 C 35.2 14.5 35.2 14.5 35.1 14.5 C 35.1 14.5 35.1 14.4 35.1 14.4 C 35.1 14.35 35.1 14.3 35.1 14.3 C 35.1 14.3 35.09 14.3 35.1 14.3 C 35.1 14.3 35.1 14.3 35.1 14.2 C 35.1 14.2 35.2 14 35.2 13.9 C 35.2 13.7 35.2 13.5 35.3 13.4 C 35.3 13.4 35.3 13.4 35.3 13.3 C 35.3 13.1 35.3 12.9 35.3 12.8 C 35.3 12.8 35.3 12.8 35.3 12.7 C 35.3 12.7 35.3 12.7 35.3 12.7 C 35.3 12.7 35.3 12.7 35.3 12.7 C 35.3 12.7 35.3 12.7 35.3 12.6 C 35.3 12.6 35.3 12.6 35.3 12.6 C 35.3 12.6 35.3 12.6 35.3 12.6 C 35.3 12.6 35.4 12.6 35.4 12.6 C 35.4 12.6 35.4 12.6 35.4 12.6 C 35.4 12.6 35.5 12.6 35.5 12.6 C 35.5 12.6 35.5 12.6 35.5 12.6 C 35.5 12.6 35.6 12.6 35.8 12.5 C 36 12.5 36.2 12.5 36.4 12.4 C 36.5 12.4 36.5 12.4 36.5 12.4 C 36.5 12.4 36.5 12.4 36.5 12.4 C 36.6 12.4 36.6 12.4 36.7 12.5 C 36.7 12.5 36.7 12.5 36.7 12.6 C 36.7 12.6 36.7 12.6 36.7 12.6 C 36.6 12.7 36.6 12.7 36.6 12.7 Z M 37.4 12.6 C 37.4 12.7 37.4 12.8 37.3 13 C 37.3 13.1 37.3 13.2 37.3 13.3 C 37.3 13.3 37.3 13.4 37.3 13.4 C 37.2 13.6 37.2 13.8 37.2 13.9 C 37.2 14 37.2 14.1 37.2 14.2 C 37.2 14.3 37.2 14.4 37.2 14.4 C 37.2 14.4 37.1 14.4 37.1 14.4 C 37 14.4 37 14.4 37 14.4 C 37 14.3 37 14.2 37 14.1 C 37 14 37 13.8 37 13.6 C 37 13.5 37 13.4 37 13.4 C 37 13.4 37 13.4 37.1 13.3 C 37.1 13.3 37.1 13.3 37.1 13.2 C 37.1 13.2 37.1 13 37.1 12.9 C 37.1 12.8 37.1 12.7 37.2 12.6 C 37.2 12.6 37.2 12.6 37.2 12.5 C 37.2 12.5 37.2 12.5 37.2 12.5 C 37.3 12.5 37.3 12.4 37.3 12.4 C 37.4 12.4 37.4 12.5 37.4 12.5 C 37.4 12.5 37.4 12.6 37.4 12.6 Z M 37.8 12.8 C 37.7 12.8 37.6 12.8 37.6 12.8 C 37.6 12.8 37.6 12.7 37.6 12.7 C 37.6 12.7 37.6 12.6 37.6 12.6 C 37.6 12.6 37.7 12.6 37.9 12.6 C 38 12.6 38.2 12.6 38.3 12.6 C 38.5 12.6 38.7 12.5 39 12.5 C 39.1 12.5 39.2 12.5 39.3 12.5 C 39.4 12.5 39.4 12.5 39.5 12.5 C 39.5 12.5 39.5 12.5 39.6 12.5 C 39.6 12.5 39.6 12.5 39.6 12.6 C 39.6 12.6 39.6 12.6 39.6 12.6 C 39.6 12.7 39.6 12.7 39.6 12.7 C 39.5 12.7 39.5 12.7 39.4 12.7 C 39.4 12.7 39.3 12.7 39.2 12.7 C 39.1 12.7 39 12.7 38.9 12.7 C 38.8 12.7 38.7 12.8 38.7 12.8 C 38.7 12.8 38.6 13 38.6 13.3 C 38.6 13.6 38.6 13.9 38.6 14 C 38.6 14.1 38.6 14.2 38.6 14.3 C 38.6 14.3 38.6 14.3 38.6 14.3 C 38.6 14.3 38.6 14.4 38.6 14.4 C 38.5 14.4 38.5 14.4 38.5 14.4 C 38.4 14.4 38.4 14.4 38.4 14.4 C 38.3 14.3 38.3 14.2 38.3 14 C 38.3 13.8 38.4 13.4 38.4 12.9 C 38.4 12.8 38.4 12.8 38.4 12.8 C 38.4 12.8 38.4 12.8 38.4 12.8 C 38.3 12.8 38.2 12.8 38.1 12.8 C 37.9 12.8 37.8 12.8 37.8 12.8 C 37.8 12.8 37.8 12.8 37.8 12.8 Z M 40 14.5 C 39.9 14.5 39.7 14.4 39.6 14.3 C 39.5 14.1 39.5 14 39.5 13.8 C 39.5 13.7 39.5 13.5 39.6 13.2 C 39.7 13 39.9 12.8 40 12.7 C 40.2 12.5 40.4 12.4 40.6 12.4 C 40.7 12.4 40.9 12.5 41 12.5 C 41.1 12.5 41.2 12.6 41.2 12.7 C 41.3 12.7 41.4 12.8 41.4 12.9 C 41.4 12.9 41.4 13 41.4 13.2 C 41.4 13.3 41.4 13.4 41.3 13.6 C 41.2 13.7 41.1 13.9 41 14.1 C 40.8 14.2 40.7 14.3 40.5 14.4 C 40.4 14.5 40.2 14.5 40 14.5 Z M 39.7 13.8 C 39.7 14 39.7 14.1 39.8 14.1 C 39.9 14.2 40 14.3 40.1 14.3 C 40.4 14.3 40.6 14.1 40.8 13.9 C 41.1 13.6 41.2 13.4 41.2 13.1 C 41.2 13 41.2 12.9 41.1 12.9 C 41.1 12.8 41 12.7 40.9 12.7 C 40.8 12.7 40.7 12.6 40.6 12.6 C 40.4 12.6 40.2 12.8 40 13 C 39.8 13.3 39.7 13.6 39.7 13.8 Z M 42 12.5 C 42.3 12.5 42.5 12.4 42.6 12.4 C 42.8 12.4 43 12.5 43.1 12.6 C 43.2 12.7 43.2 12.8 43.2 12.9 C 43.2 13 43.2 13.2 43.1 13.3 C 42.9 13.4 42.8 13.5 42.6 13.6 C 42.6 13.6 42.6 13.6 42.6 13.6 C 42.6 13.6 42.7 13.7 42.8 13.8 C 43 14 43.2 14.1 43.4 14.2 C 43.4 14.2 43.4 14.3 43.4 14.3 C 43.4 14.3 43.4 14.4 43.4 14.4 C 43.3 14.4 43.3 14.4 43.3 14.4 C 43.2 14.4 43.2 14.4 43 14.3 C 42.9 14.2 42.8 14.1 42.7 14 C 42.4 13.8 42.3 13.7 42.2 13.7 C 42.2 13.7 42.1 13.7 42.1 13.6 C 42.1 13.6 42.1 13.6 42.1 13.6 C 42.1 13.5 42.1 13.5 42.1 13.5 C 42.1 13.4 42.2 13.4 42.2 13.4 C 42.2 13.4 42.3 13.4 42.3 13.4 C 42.3 13.4 42.4 13.4 42.4 13.4 C 42.4 13.4 42.6 13.4 42.7 13.3 C 42.9 13.2 43 13.1 43 12.9 C 43 12.8 43 12.8 42.9 12.7 C 42.8 12.7 42.7 12.6 42.6 12.6 C 42.5 12.6 42.4 12.6 42.3 12.7 C 42.2 12.7 42.2 12.7 42.2 12.7 C 42.1 12.7 42.1 12.7 42.1 12.8 C 42.1 12.8 42.1 12.9 42 13.1 C 42 13.3 42 13.5 41.9 13.7 C 41.9 13.9 41.9 14 41.9 14.1 C 41.9 14.1 41.9 14.2 41.9 14.2 C 41.9 14.3 41.9 14.3 41.9 14.3 C 41.9 14.4 41.9 14.4 41.9 14.4 C 41.9 14.5 41.8 14.5 41.8 14.5 C 41.7 14.5 41.7 14.4 41.7 14.2 C 41.7 13.9 41.7 13.4 41.8 12.8 C 41.8 12.8 41.9 12.8 41.9 12.8 C 41.9 12.8 41.8 12.7 41.8 12.7 C 41.8 12.7 41.8 12.6 41.8 12.6 C 41.8 12.6 41.8 12.6 41.8 12.5 C 41.9 12.5 41.9 12.5 41.9 12.5 C 41.9 12.5 42 12.5 42 12.5 Z M 44.6 12.4 C 44.6 12.4 44.7 12.5 44.7 12.5 C 44.7 12.5 44.7 12.5 44.7 12.6 C 44.7 12.6 44.7 12.6 44.7 12.6 C 44.7 12.6 44.7 12.7 44.7 12.7 C 44.7 12.8 44.8 12.9 44.8 13 C 44.8 13 44.9 13.1 44.9 13.2 C 45 13.5 45.1 13.7 45.1 13.9 C 45.2 14 45.3 14.2 45.4 14.2 C 45.4 14.3 45.5 14.3 45.5 14.3 C 45.5 14.3 45.5 14.3 45.5 14.4 C 45.5 14.4 45.5 14.4 45.4 14.5 C 45.4 14.5 45.4 14.5 45.4 14.5 C 45.2 14.5 45.1 14.3 44.9 14 C 44.9 13.8 44.8 13.8 44.8 13.8 C 44.8 13.8 44.7 13.8 44.5 13.8 C 44.4 13.8 44.3 13.9 44.2 13.9 C 44.1 13.9 44 13.9 44 13.9 C 44 13.9 44 13.9 44 13.9 C 44 13.9 43.9 13.9 43.9 13.9 C 43.9 13.9 43.9 13.9 43.8 14.1 C 43.7 14.2 43.6 14.4 43.6 14.4 C 43.6 14.4 43.6 14.5 43.5 14.5 C 43.5 14.5 43.5 14.4 43.4 14.4 C 43.4 14.4 43.4 14.4 43.4 14.3 C 43.4 14.3 43.4 14.3 43.4 14.2 C 43.5 14.2 43.5 14.1 43.6 13.9 C 43.8 13.7 44 13.4 44.1 13.2 C 44.3 12.8 44.4 12.6 44.4 12.5 C 44.5 12.5 44.5 12.4 44.6 12.4 C 44.6 12.4 44.6 12.4 44.6 12.4 Z M 44.3 13.6 C 44.6 13.6 44.7 13.6 44.8 13.5 C 44.7 13.5 44.7 13.3 44.6 13.2 C 44.6 13 44.5 12.8 44.5 12.8 C 44.5 12.9 44.4 13 44.3 13.2 C 44.3 13.2 44 13.7 44 13.7 C 44.1 13.7 44.1 13.7 44.2 13.7 C 44.2 13.6 44.3 13.6 44.3 13.6 C 44.3 13.6 44.3 13.6 44.3 13.6 Z M 45.7 14.2 C 45.7 14.1 45.7 14.1 45.7 14 C 45.7 14 45.7 13.9 45.8 13.7 C 45.8 13.5 45.8 13.3 45.8 13 C 45.9 12.7 45.9 12.6 45.9 12.6 C 45.9 12.5 45.9 12.5 45.9 12.5 C 46 12.5 46 12.4 46 12.4 C 46.1 12.4 46.1 12.5 46.1 12.5 C 46.1 12.5 46.1 12.5 46.1 12.6 C 46.1 12.6 46.1 12.7 46.1 12.8 C 46.1 12.9 46.1 13.1 46 13.5 C 46 13.8 46 14 46 14.1 C 46 14.1 46 14.1 46 14.2 C 46 14.2 46 14.2 46 14.2 C 46.1 14.2 46.2 14.2 46.3 14.1 C 46.4 14.1 46.6 14.1 46.9 14.1 C 46.9 14.1 47 14.1 47 14.1 C 47.1 14.1 47.1 14.1 47.1 14.1 C 47.1 14.1 47.1 14.1 47.2 14.1 C 47.2 14.1 47.2 14.1 47.2 14.2 C 47.2 14.2 47.2 14.3 47.1 14.3 C 47.1 14.3 47 14.3 47 14.3 C 47 14.3 46.9 14.3 46.9 14.3 C 46.8 14.3 46.8 14.3 46.8 14.3 C 46.5 14.3 46.2 14.4 45.9 14.5 C 45.9 14.5 45.8 14.5 45.8 14.5 C 45.7 14.5 45.7 14.5 45.7 14.4 C 45.7 14.4 45.7 14.4 45.7 14.3 C 45.7 14.3 45.7 14.3 45.7 14.2 C 45.7 14.2 45.7 14.2 45.7 14.2 Z M 49.9 12.7 C 49.9 12.7 49.9 12.7 49.8 12.7 C 49.8 12.7 49.7 12.7 49.7 12.7 C 49.6 12.7 49.6 12.7 49.6 12.7 C 49.5 12.7 49.5 12.7 49.5 12.7 C 49.4 12.7 49.4 12.7 49.3 12.7 C 49.1 12.7 49 12.7 48.9 12.8 C 48.9 12.8 48.9 12.8 48.9 12.9 C 48.9 12.9 48.8 13 48.8 13.1 C 48.8 13.2 48.8 13.3 48.8 13.4 C 48.8 13.4 48.8 13.4 48.8 13.4 C 48.8 13.4 48.9 13.4 49 13.4 C 49.2 13.4 49.3 13.4 49.3 13.3 C 49.5 13.3 49.6 13.3 49.6 13.3 C 49.7 13.3 49.8 13.3 49.8 13.4 C 49.8 13.5 49.8 13.5 49.7 13.5 C 49.6 13.5 49.4 13.6 49.2 13.6 C 48.9 13.6 48.8 13.6 48.8 13.7 C 48.7 13.7 48.7 13.8 48.7 13.9 C 48.7 14.1 48.7 14.1 48.7 14.2 C 48.7 14.2 48.7 14.2 48.7 14.2 C 48.7 14.2 48.7 14.3 48.7 14.3 C 48.7 14.3 48.8 14.3 48.8 14.3 C 48.8 14.3 48.9 14.3 48.9 14.3 C 48.9 14.3 49.2 14.2 49.2 14.2 C 49.3 14.2 49.4 14.2 49.5 14.2 C 49.6 14.2 49.7 14.1 49.7 14.1 C 49.7 14.1 49.8 14.2 49.8 14.2 C 49.8 14.2 49.9 14.2 49.9 14.3 C 49.9 14.3 49.8 14.3 49.8 14.3 C 49.7 14.4 49.6 14.4 49.5 14.4 C 49.4 14.4 49.2 14.4 48.9 14.5 C 48.8 14.5 48.7 14.5 48.6 14.5 C 48.5 14.5 48.5 14.5 48.4 14.5 C 48.4 14.5 48.4 14.4 48.4 14.4 C 48.39 14.35 48.4 14.3 48.4 14.3 C 48.4 14.3 48.39 14.3 48.4 14.3 C 48.4 14.3 48.4 14.3 48.4 14.2 C 48.4 14.2 48.5 14 48.5 13.9 C 48.5 13.7 48.5 13.5 48.5 13.4 C 48.6 13.4 48.6 13.4 48.6 13.3 C 48.6 13.1 48.6 12.9 48.6 12.8 C 48.6 12.8 48.6 12.8 48.6 12.7 C 48.6 12.7 48.6 12.7 48.6 12.7 C 48.6 12.7 48.6 12.7 48.6 12.7 C 48.6 12.7 48.6 12.7 48.6 12.6 C 48.6 12.6 48.6 12.6 48.6 12.6 C 48.6 12.6 48.6 12.6 48.6 12.6 C 48.6 12.6 48.6 12.6 48.7 12.6 C 48.7 12.6 48.7 12.6 48.7 12.6 C 48.7 12.6 48.8 12.6 48.8 12.6 C 48.8 12.6 48.8 12.6 48.8 12.6 C 48.8 12.6 48.9 12.6 49.1 12.5 C 49.3 12.5 49.5 12.5 49.7 12.4 C 49.8 12.4 49.8 12.4 49.8 12.4 C 49.8 12.4 49.8 12.4 49.8 12.4 C 49.9 12.4 49.9 12.4 49.9 12.5 C 50 12.5 50 12.5 50 12.6 C 50 12.6 50 12.6 50 12.6 C 49.9 12.7 49.9 12.7 49.9 12.7 Z M 51.3 12.8 C 51.2 12.8 51.1 12.8 51.1 12.8 C 51.1 12.8 51.1 12.7 51.1 12.7 C 51.1 12.7 51.1 12.6 51.1 12.6 C 51.2 12.6 51.2 12.6 51.4 12.6 C 51.6 12.6 51.7 12.6 51.9 12.6 C 52 12.6 52.2 12.5 52.5 12.5 C 52.6 12.5 52.7 12.5 52.8 12.5 C 52.9 12.5 52.9 12.5 53 12.5 C 53 12.5 53.1 12.5 53.1 12.5 C 53.1 12.5 53.1 12.5 53.1 12.6 C 53.1 12.6 53.1 12.6 53.1 12.6 C 53.1 12.7 53.1 12.7 53.1 12.7 C 53 12.7 53 12.7 53 12.7 C 52.9 12.7 52.8 12.7 52.7 12.7 C 52.6 12.7 52.5 12.7 52.4 12.7 C 52.3 12.7 52.2 12.8 52.2 12.8 C 52.2 12.8 52.2 13 52.1 13.3 C 52.1 13.6 52.1 13.9 52.1 14 C 52.1 14.1 52.1 14.2 52.1 14.3 C 52.1 14.3 52.1 14.3 52.1 14.3 C 52.1 14.3 52.1 14.4 52.1 14.4 C 52.1 14.4 52 14.4 52 14.4 C 52 14.4 51.9 14.4 51.9 14.4 C 51.9 14.3 51.8 14.2 51.8 14 C 51.8 13.8 51.9 13.4 52 12.9 C 52 12.8 52 12.8 52 12.8 C 52 12.8 51.9 12.8 51.9 12.8 C 51.9 12.8 51.8 12.8 51.6 12.8 C 51.5 12.8 51.3 12.8 51.3 12.8 C 51.3 12.8 51.3 12.8 51.3 12.8 Z M 54.6 12.7 C 54.6 12.7 54.5 12.7 54.5 12.7 C 54.4 12.7 54.4 12.7 54.3 12.7 C 54.3 12.7 54.2 12.7 54.2 12.7 C 54.2 12.7 54.2 12.7 54.1 12.7 C 54.1 12.7 54 12.7 53.9 12.7 C 53.7 12.7 53.6 12.7 53.6 12.8 C 53.5 12.8 53.5 12.8 53.5 12.9 C 53.5 12.9 53.5 13 53.5 13.1 C 53.4 13.2 53.4 13.3 53.4 13.4 C 53.4 13.4 53.4 13.4 53.4 13.4 C 53.5 13.4 53.6 13.4 53.7 13.4 C 53.8 13.4 53.9 13.4 54 13.3 C 54.1 13.3 54.2 13.3 54.3 13.3 C 54.4 13.3 54.4 13.3 54.4 13.4 C 54.4 13.5 54.4 13.5 54.3 13.5 C 54.3 13.5 54.1 13.6 53.9 13.6 C 53.6 13.6 53.4 13.6 53.4 13.7 C 53.4 13.7 53.4 13.8 53.3 13.9 C 53.3 14.1 53.3 14.1 53.3 14.2 C 53.3 14.2 53.3 14.2 53.3 14.2 C 53.3 14.2 53.3 14.3 53.4 14.3 C 53.4 14.3 53.4 14.3 53.4 14.3 C 53.5 14.3 53.5 14.3 53.6 14.3 C 53.6 14.3 53.8 14.2 53.8 14.2 C 53.9 14.2 54 14.2 54.1 14.2 C 54.3 14.2 54.3 14.1 54.4 14.1 C 54.4 14.1 54.4 14.2 54.5 14.2 C 54.5 14.2 54.5 14.2 54.5 14.3 C 54.5 14.3 54.5 14.3 54.5 14.3 C 54.4 14.4 54.3 14.4 54.1 14.4 C 54 14.4 53.8 14.4 53.5 14.5 C 53.4 14.5 53.3 14.5 53.3 14.5 C 53.2 14.5 53.1 14.5 53.1 14.5 C 53.1 14.5 53 14.4 53 14.4 C 53.04 14.35 53 14.3 53 14.3 C 53 14.3 53.03 14.3 53 14.3 C 53 14.3 53 14.3 53.1 14.2 C 53.1 14.2 53.1 14 53.1 13.9 C 53.2 13.7 53.2 13.5 53.2 13.4 C 53.2 13.4 53.2 13.4 53.2 13.3 C 53.3 13.1 53.3 12.9 53.3 12.8 C 53.3 12.8 53.3 12.8 53.2 12.7 C 53.2 12.7 53.2 12.7 53.2 12.7 C 53.2 12.7 53.2 12.7 53.2 12.7 C 53.2 12.7 53.2 12.7 53.2 12.6 C 53.2 12.6 53.2 12.6 53.2 12.6 C 53.2 12.6 53.2 12.6 53.2 12.6 C 53.3 12.6 53.3 12.6 53.3 12.6 C 53.3 12.6 53.3 12.6 53.3 12.6 C 53.4 12.6 53.4 12.6 53.4 12.6 C 53.4 12.6 53.5 12.6 53.5 12.6 C 53.5 12.6 53.6 12.6 53.7 12.5 C 53.9 12.5 54.1 12.5 54.4 12.4 C 54.4 12.4 54.4 12.4 54.4 12.4 C 54.4 12.4 54.5 12.4 54.5 12.4 C 54.5 12.4 54.6 12.4 54.6 12.5 C 54.6 12.5 54.6 12.5 54.6 12.6 C 54.6 12.6 54.6 12.6 54.6 12.6 C 54.6 12.7 54.6 12.7 54.6 12.7 Z M 56.2 14.1 C 56.3 13.8 56.3 13.6 56.4 13.3 C 56.4 13 56.5 12.7 56.5 12.6 C 56.5 12.6 56.5 12.5 56.5 12.5 C 56.5 12.5 56.5 12.5 56.5 12.4 C 56.6 12.4 56.6 12.4 56.6 12.4 C 56.7 12.4 56.7 12.4 56.7 12.5 C 56.7 12.5 56.7 12.5 56.7 12.6 C 56.7 12.6 56.7 12.7 56.7 12.8 C 56.6 13 56.6 13.3 56.5 13.6 C 56.5 13.9 56.4 14.1 56.4 14.1 C 56.4 14.2 56.4 14.3 56.4 14.3 C 56.5 14.3 56.4 14.4 56.4 14.4 C 56.4 14.4 56.3 14.4 56.3 14.4 C 56.2 14.4 56.2 14.4 56.2 14.4 C 56.2 14.4 56.2 14.4 56.1 14.4 C 56.1 14.3 56.1 14.3 56.1 14.2 C 56.1 14.2 56 14.2 56 14.1 C 55.7 13.8 55.5 13.4 55.3 13 C 55.2 13.2 55.2 13.5 55.1 13.9 C 55.1 13.9 55.1 14.1 55.1 14.1 C 55.1 14.1 55.1 14.2 55.1 14.2 C 55.1 14.3 55.1 14.4 55.1 14.4 C 55.1 14.4 55.1 14.4 55 14.5 C 55 14.5 55 14.5 55 14.5 C 54.9 14.5 54.9 14.5 54.8 14.4 C 54.8 14.4 54.8 14.3 54.8 14.3 C 54.8 14.2 54.9 14.1 54.9 14 C 54.9 13.8 55 13.6 55 13.3 C 55.1 13 55.1 12.8 55.1 12.7 C 55.1 12.7 55.1 12.7 55.1 12.7 C 55.1 12.6 55.1 12.6 55.1 12.6 C 55.1 12.6 55.2 12.6 55.2 12.5 C 55.2 12.5 55.2 12.5 55.3 12.5 C 55.3 12.5 55.3 12.5 55.3 12.5 C 55.4 12.5 55.4 12.6 55.4 12.6 C 55.4 12.6 55.4 12.6 55.4 12.7 C 55.4 12.9 55.6 13.1 55.7 13.4 C 55.9 13.7 56.1 13.9 56.2 14.1 Z M 58.8 12.4 C 58.8 12.4 58.8 12.4 58.9 12.4 C 58.9 12.4 58.9 12.4 58.9 12.5 C 58.9 12.5 58.9 12.7 58.8 12.9 C 58.8 13.2 58.7 13.4 58.7 13.7 C 58.7 14 58.7 14.2 58.7 14.3 C 58.7 14.3 58.7 14.4 58.6 14.4 C 58.6 14.5 58.6 14.5 58.5 14.5 C 58.5 14.5 58.5 14.5 58.5 14.4 C 58.4 14.4 58.4 14.4 58.4 14.4 C 58.4 14.3 58.4 14.2 58.5 14 C 58.5 13.8 58.5 13.7 58.5 13.7 C 58.5 13.6 58.5 13.6 58.5 13.6 C 58.5 13.5 58.4 13.5 58.4 13.5 C 58.4 13.5 58.3 13.5 58.2 13.6 C 58 13.6 57.9 13.6 57.9 13.6 C 57.9 13.6 57.8 13.6 57.6 13.6 C 57.5 13.6 57.4 13.6 57.4 13.6 C 57.4 13.6 57.3 13.7 57.3 13.8 C 57.3 13.9 57.3 14 57.3 14.1 C 57.3 14.2 57.3 14.3 57.2 14.4 C 57.2 14.5 57.2 14.5 57.2 14.5 C 57.1 14.5 57.1 14.5 57.1 14.4 C 57 14.4 57 14.4 57 14.3 C 57 14.3 57 14.2 57 14.1 C 57.1 14 57.1 13.8 57.1 13.5 C 57.2 13.2 57.2 12.9 57.2 12.5 C 57.3 12.5 57.3 12.5 57.3 12.5 C 57.3 12.5 57.3 12.4 57.4 12.4 C 57.4 12.4 57.5 12.5 57.5 12.6 C 57.5 12.7 57.5 12.8 57.4 13 C 57.4 13.1 57.4 13.2 57.4 13.3 C 57.4 13.3 57.4 13.4 57.4 13.4 C 57.4 13.4 57.5 13.4 57.5 13.4 C 57.7 13.4 57.9 13.4 58.1 13.4 C 58.4 13.3 58.5 13.3 58.5 13.3 C 58.6 13.2 58.6 13.1 58.6 13 C 58.6 12.8 58.6 12.6 58.6 12.5 C 58.6 12.4 58.6 12.4 58.7 12.4 C 58.7 12.4 58.7 12.4 58.8 12.4 Z M 60.1 12.4 C 60.2 12.4 60.2 12.5 60.2 12.5 C 60.3 12.5 60.3 12.5 60.3 12.6 C 60.3 12.6 60.3 12.6 60.2 12.6 C 60.2 12.6 60.3 12.7 60.3 12.7 C 60.3 12.8 60.3 12.9 60.4 13 C 60.4 13 60.4 13.1 60.5 13.2 C 60.5 13.5 60.6 13.7 60.7 13.9 C 60.8 14 60.9 14.2 60.9 14.2 C 61 14.3 61 14.3 61 14.3 C 61 14.3 61 14.3 61 14.4 C 61 14.4 61 14.4 61 14.5 C 61 14.5 60.9 14.5 60.9 14.5 C 60.8 14.5 60.7 14.3 60.5 14 C 60.4 13.8 60.4 13.8 60.4 13.8 C 60.3 13.8 60.2 13.8 60.1 13.8 C 60 13.8 59.8 13.9 59.7 13.9 C 59.6 13.9 59.6 13.9 59.6 13.9 C 59.6 13.9 59.5 13.9 59.5 13.9 C 59.5 13.9 59.5 13.9 59.5 13.9 C 59.5 13.9 59.4 13.9 59.4 14.1 C 59.3 14.2 59.2 14.4 59.2 14.4 C 59.1 14.4 59.1 14.5 59.1 14.5 C 59.1 14.5 59 14.4 59 14.4 C 59 14.4 58.9 14.4 58.9 14.3 C 58.9 14.3 59 14.3 59 14.2 C 59 14.2 59.1 14.1 59.2 13.9 C 59.4 13.7 59.5 13.4 59.6 13.2 C 59.8 12.8 59.9 12.6 60 12.5 C 60 12.5 60.1 12.4 60.1 12.4 C 60.1 12.4 60.1 12.4 60.1 12.4 Z M 59.9 13.6 C 60.2 13.6 60.3 13.6 60.3 13.5 C 60.3 13.5 60.3 13.3 60.2 13.2 C 60.1 13 60.1 12.8 60.1 12.8 C 60 12.9 59.9 13 59.8 13.2 C 59.8 13.2 59.6 13.7 59.6 13.7 C 59.6 13.7 59.7 13.7 59.7 13.7 C 59.8 13.6 59.9 13.6 59.9 13.6 C 59.9 13.6 59.9 13.6 59.9 13.6 Z M 63 14.5 C 62.9 14.5 62.8 14.5 62.7 14.4 C 62.6 14.3 62.5 14.2 62.4 14.1 C 62.3 14 62.3 13.8 62.3 13.6 C 62.3 13.5 62.3 13.4 62.4 13.1 C 62.4 13.1 62.4 13 62.4 12.9 C 62.4 12.7 62.5 12.6 62.5 12.6 C 62.5 12.5 62.5 12.5 62.5 12.5 C 62.5 12.5 62.6 12.5 62.6 12.5 C 62.6 12.5 62.7 12.5 62.7 12.5 C 62.7 12.6 62.7 12.6 62.7 12.6 C 62.7 12.6 62.7 12.7 62.7 12.9 C 62.6 12.9 62.6 13.1 62.6 13.2 C 62.6 13.4 62.5 13.5 62.5 13.6 C 62.5 13.9 62.6 14 62.7 14.1 C 62.8 14.2 62.9 14.3 63 14.3 C 63.2 14.3 63.3 14.2 63.4 14.2 C 63.5 14.2 63.6 14.1 63.6 13.9 C 63.7 13.8 63.7 13.6 63.8 13.3 C 63.8 12.9 63.8 12.7 63.9 12.6 C 63.9 12.5 63.9 12.5 64 12.5 C 64.1 12.5 64.1 12.5 64.1 12.6 C 64.1 12.7 64.1 12.9 64 13.1 C 64 13.2 64 13.3 64 13.5 C 64 13.6 64 13.7 63.9 13.8 C 63.9 13.9 63.9 14 63.9 14 C 63.8 14.1 63.8 14.2 63.7 14.2 C 63.7 14.3 63.6 14.3 63.6 14.4 C 63.5 14.4 63.4 14.4 63.3 14.5 C 63.2 14.5 63.1 14.5 63 14.5 Z M 66.3 12.9 C 66.3 12.9 66.3 12.8 66.3 12.8 C 66.2 12.9 66 13.1 65.9 13.3 C 65.7 13.6 65.5 13.8 65.5 13.8 C 65.4 13.9 65.3 13.9 65.3 13.9 C 65.3 13.9 65.2 13.9 65.2 13.9 C 65.1 13.8 65.1 13.7 65 13.5 C 64.9 13.2 64.9 13 64.8 12.9 C 64.8 13 64.8 13 64.8 13.1 C 64.8 13.2 64.7 13.4 64.7 13.6 C 64.6 14 64.5 14.3 64.5 14.4 C 64.5 14.4 64.5 14.4 64.5 14.5 C 64.5 14.5 64.4 14.5 64.4 14.5 C 64.4 14.5 64.4 14.5 64.3 14.4 C 64.3 14.4 64.3 14.4 64.3 14.3 C 64.3 14.3 64.3 14.1 64.4 13.9 C 64.4 13.9 64.5 13.5 64.5 13.5 C 64.5 13.2 64.6 13 64.6 12.9 C 64.6 12.8 64.6 12.7 64.6 12.6 C 64.6 12.5 64.7 12.5 64.8 12.5 C 64.8 12.5 64.9 12.5 64.9 12.5 C 64.9 12.6 64.9 12.6 65 12.6 C 65 12.7 65 12.7 65 12.8 C 65 12.8 65.2 13.3 65.2 13.3 C 65.2 13.5 65.3 13.6 65.3 13.6 C 65.3 13.6 65.3 13.7 65.3 13.7 C 65.4 13.6 65.6 13.4 65.8 13.1 C 66.1 12.6 66.3 12.4 66.4 12.4 C 66.4 12.4 66.4 12.4 66.5 12.5 C 66.5 12.5 66.5 12.5 66.5 12.5 C 66.5 12.6 66.5 12.7 66.5 13.1 C 66.4 13.3 66.4 13.4 66.4 13.6 C 66.4 13.8 66.4 14 66.4 14 C 66.4 14 66.4 14.1 66.4 14.1 C 66.4 14.2 66.4 14.2 66.4 14.2 C 66.4 14.3 66.4 14.3 66.4 14.4 C 66.4 14.4 66.4 14.4 66.4 14.4 C 66.3 14.4 66.3 14.4 66.3 14.4 C 66.2 14.4 66.2 14.4 66.2 14.2 C 66.2 14.1 66.2 13.7 66.2 13.2 C 66.2 13.1 66.2 13.1 66.2 13.1 C 66.2 13.1 66.3 13 66.3 13 C 66.3 12.9 66.3 12.9 66.3 12.9 C 66.3 12.9 66.3 12.9 66.3 12.9 Z " stroke="none" fill="#000"/>  </g>  <g id="Polygon12890">    <path d="M 20.5 2.8 C 20.5 2.8 20.5 2.8 20.5 2.8 C 20.5 2.8 20.5 2.9 20.3 3.2 C 20.1 3.5 19.9 3.7 19.8 3.9 C 19.7 4.1 19.4 4.5 19.1 5.1 C 18.8 5.5 18.7 5.7 18.6 5.8 C 18.5 6.1 18.4 6.3 18.3 6.4 C 18.3 6.5 18.2 6.6 18.1 6.7 C 18 6.7 17.9 6.7 17.8 6.7 C 17.7 6.7 17.6 6.7 17.6 6.6 C 17.5 6.5 17.4 6.3 17.3 6.1 C 17.2 5.8 17.1 5.3 16.9 4.8 C 16.4 3.7 16.2 3.1 16.2 3.1 C 16.2 3 16.2 2.9 16.3 2.8 C 16.4 2.7 16.5 2.6 16.6 2.6 C 16.7 2.6 16.8 2.7 16.8 2.8 C 16.9 2.8 17 3 17 3.3 C 17.1 3.5 17.2 3.9 17.4 4.5 C 17.7 5.1 17.8 5.5 18 5.8 C 18 5.8 18.1 5.7 18.2 5.5 C 18.2 5.4 18.2 5.4 18.2 5.4 C 18.5 5 18.7 4.6 18.9 4.3 C 19.2 3.7 19.5 3.2 19.7 2.9 C 19.9 2.6 20.1 2.5 20.2 2.5 C 20.4 2.5 20.5 2.6 20.5 2.8 C 20.53 2.77 20.5 2.8 20.5 2.8 C 20.5 2.8 20.53 2.8 20.5 2.8 Z M 22.8 5.3 C 22.7 5.7 22.4 6.1 22.1 6.4 C 21.7 6.7 21.3 6.9 21 6.9 C 20.7 6.9 20.5 6.8 20.3 6.6 C 20.1 6.4 20 6.1 20 5.8 C 20 5.3 20.2 4.8 20.5 4.4 C 20.9 3.9 21.3 3.6 21.7 3.6 C 22.1 3.6 22.3 3.8 22.5 4 C 22.7 4.2 22.8 4.5 22.8 4.9 C 22.8 5 22.8 5.1 22.8 5.3 C 22.8 5.3 22.8 5.3 22.8 5.3 Z M 21.3 4.4 C 21.2 4.5 21 4.7 20.9 4.9 C 20.8 5.2 20.7 5.5 20.7 5.7 C 20.7 5.9 20.8 6 20.8 6.1 C 20.9 6.2 20.9 6.3 21 6.3 C 21.3 6.3 21.5 6.1 21.8 5.9 C 22 5.6 22.2 5.3 22.2 4.9 C 22.2 4.7 22.1 4.6 22 4.4 C 21.9 4.3 21.8 4.2 21.7 4.2 C 21.5 4.2 21.4 4.3 21.3 4.4 C 21.3 4.4 21.3 4.4 21.3 4.4 Z M 24.4 4.4 C 24.4 4.4 24.4 4.6 24.3 5.1 C 24.2 5.5 24.1 5.7 24.1 5.8 C 24.1 6 24.1 6.1 24.2 6.1 C 24.2 6.2 24.3 6.2 24.3 6.2 C 24.5 6.2 24.6 6.2 24.7 6.2 C 24.7 6.1 24.9 6.1 25 5.9 C 25.1 5.9 25.2 5.8 25.3 5.8 C 25.3 5.8 25.4 5.8 25.4 5.9 C 25.5 5.9 25.5 5.9 25.5 6 C 25.5 6.1 25.3 6.3 25.1 6.5 C 24.8 6.7 24.5 6.9 24.2 6.9 C 24 6.9 23.8 6.8 23.6 6.6 C 23.5 6.5 23.4 6.3 23.4 6 C 23.4 5.7 23.5 5.2 23.7 4.5 C 23.6 4.5 23.5 4.5 23.5 4.5 C 23.5 4.5 23.4 4.5 23.4 4.5 C 23.3 4.5 23.2 4.5 23.1 4.4 C 23.1 4.3 23 4.2 23 4.1 C 23 4 23.1 3.9 23.3 3.9 C 23.3 3.9 23.9 3.9 23.9 3.9 C 24 3.6 24.1 3.3 24.1 3 C 24.2 2.7 24.3 2.6 24.5 2.6 C 24.6 2.6 24.7 2.6 24.8 2.7 C 24.8 2.8 24.8 2.8 24.8 2.9 C 24.8 2.9 24.8 3.2 24.6 3.8 C 25.2 3.7 25.5 3.7 25.6 3.7 C 25.7 3.7 25.8 3.7 25.8 3.8 C 25.8 3.8 25.8 3.8 25.8 3.9 C 25.8 4.1 25.7 4.2 25.4 4.3 C 25.4 4.3 24.4 4.4 24.4 4.4 Z M 28.6 5.3 C 28.4 5.7 28.2 6.1 27.8 6.4 C 27.5 6.7 27.1 6.9 26.8 6.9 C 26.5 6.9 26.3 6.8 26.1 6.6 C 25.9 6.4 25.8 6.1 25.8 5.8 C 25.8 5.3 26 4.8 26.3 4.4 C 26.6 3.9 27 3.6 27.5 3.6 C 27.8 3.6 28.1 3.8 28.3 4 C 28.5 4.2 28.6 4.5 28.6 4.9 C 28.6 5 28.6 5.1 28.6 5.3 C 28.6 5.3 28.6 5.3 28.6 5.3 Z M 27.1 4.4 C 26.9 4.5 26.8 4.7 26.7 4.9 C 26.6 5.2 26.5 5.5 26.5 5.7 C 26.5 5.9 26.5 6 26.6 6.1 C 26.6 6.2 26.7 6.3 26.8 6.3 C 27.1 6.3 27.3 6.1 27.6 5.9 C 27.8 5.6 27.9 5.3 27.9 4.9 C 27.9 4.7 27.9 4.6 27.8 4.4 C 27.7 4.3 27.6 4.2 27.5 4.2 C 27.3 4.2 27.2 4.3 27.1 4.4 C 27.1 4.4 27.1 4.4 27.1 4.4 Z M 31.5 6.3 C 31.5 6.2 31.5 6 31.5 5.8 C 31.6 5.1 31.7 4.4 31.8 3.7 C 31.8 3.5 31.8 3.4 31.8 3.3 C 31.8 3.3 31.8 3.3 31.8 3.3 C 31.6 3.2 31.5 3.1 31.5 3 C 31.5 2.9 31.5 2.8 31.6 2.8 C 31.7 2.7 31.8 2.6 31.9 2.6 C 31.9 2.6 32.2 2.7 32.2 2.7 C 32.4 2.7 32.7 2.6 33 2.6 C 33.2 2.6 33.4 2.6 33.6 2.6 C 34.1 2.6 34.6 2.7 34.9 3 C 35.2 3.3 35.4 3.7 35.4 4.2 C 35.4 4.8 35.1 5.2 34.6 5.7 C 34.1 6.1 33.5 6.4 32.8 6.6 C 32.6 6.6 32.5 6.7 32.4 6.7 C 32.3 6.7 32.2 6.8 32.1 6.8 C 32 6.9 31.9 7 31.7 7 C 31.6 7 31.5 6.9 31.5 6.8 C 31.4 6.8 31.4 6.7 31.4 6.6 C 31.4 6.6 31.4 6.5 31.4 6.4 C 31.4 6.4 31.5 6.3 31.5 6.3 Z M 32.2 5.9 C 32.2 6 32.2 6.1 32.2 6.1 C 32.3 6.1 32.6 6.1 33.1 5.9 C 33.6 5.8 34 5.5 34.3 5.2 C 34.5 4.9 34.7 4.6 34.7 4.2 C 34.7 3.9 34.6 3.6 34.4 3.4 C 34.1 3.2 33.9 3.2 33.5 3.2 C 33.3 3.2 33 3.2 32.6 3.2 C 32.6 3.2 32.5 3.2 32.5 3.2 C 32.3 4.5 32.2 5.4 32.2 5.9 C 32.2 5.9 32.2 5.9 32.2 5.9 Z M 37.3 2.5 C 37.3 2.6 37.3 2.7 37.2 2.9 C 37 3 36.9 3 36.8 3 C 36.7 3 36.6 3 36.5 2.9 C 36.5 2.8 36.4 2.7 36.4 2.6 C 36.4 2.4 36.5 2.3 36.5 2.2 C 36.6 2.2 36.8 2.1 36.9 2.1 C 37 2.1 37.1 2.2 37.2 2.2 C 37.3 2.3 37.3 2.4 37.3 2.5 Z M 35.9 5.1 C 35.9 5 36 4.9 36 4.8 C 36 4.8 36 4.8 36 4.8 C 36 4.5 36.1 4.3 36.1 4.2 C 36.1 4.1 36.1 4 36.2 3.9 C 36.2 3.8 36.3 3.8 36.4 3.8 C 36.5 3.8 36.6 3.8 36.7 3.8 C 36.8 3.9 36.8 4 36.8 4 C 36.8 4.1 36.8 4.3 36.7 4.5 C 36.7 4.5 36.7 4.6 36.7 4.6 C 36.6 4.9 36.5 5.2 36.5 5.5 C 36.5 5.7 36.5 5.9 36.5 6 C 36.5 6.2 36.5 6.3 36.5 6.5 C 36.5 6.5 36.5 6.6 36.5 6.6 C 36.5 6.6 36.5 6.7 36.4 6.8 C 36.3 6.8 36.3 6.9 36.2 6.9 C 35.9 6.9 35.8 6.7 35.8 6.3 C 35.8 6 35.8 5.6 35.9 5.1 C 35.9 5.1 35.9 5.1 35.9 5.1 Z M 38.7 6 C 38.7 5.9 38.5 5.8 38.2 5.6 C 37.8 5.4 37.5 5.3 37.4 5.1 C 37.3 5 37.3 4.9 37.3 4.7 C 37.3 4.4 37.5 4.1 37.8 3.8 C 38.2 3.6 38.6 3.4 38.9 3.4 C 39.2 3.4 39.4 3.6 39.4 3.9 C 39.4 3.9 39.3 4 39.3 4.1 C 39.2 4.1 39.1 4.1 39.1 4.1 C 39.1 4.1 39 4.1 39 4.1 C 38.9 4.1 38.9 4.1 38.8 4.1 C 38.7 4.1 38.5 4.1 38.3 4.2 C 38.1 4.4 38 4.5 38 4.6 C 38 4.7 38 4.8 38.1 4.9 C 38.2 4.9 38.3 5 38.5 5.1 C 38.9 5.3 39.1 5.4 39.2 5.5 C 39.3 5.7 39.3 5.8 39.3 6 C 39.3 6.2 39.1 6.5 38.8 6.6 C 38.4 6.8 38 6.9 37.5 6.9 C 37.2 6.9 37 6.8 37 6.5 C 37 6.5 37 6.4 37.1 6.3 C 37.2 6.3 37.3 6.2 37.3 6.2 C 37.4 6.2 37.4 6.2 37.5 6.3 C 37.6 6.3 37.7 6.3 37.7 6.3 C 37.9 6.3 38.1 6.3 38.3 6.2 C 38.5 6.2 38.6 6.1 38.7 6 Z M 40.8 4.4 C 40.8 4.4 40.8 4.6 40.7 5.1 C 40.6 5.5 40.5 5.7 40.5 5.8 C 40.5 6 40.6 6.1 40.6 6.1 C 40.6 6.2 40.7 6.2 40.8 6.2 C 40.9 6.2 41 6.2 41.1 6.2 C 41.2 6.1 41.3 6.1 41.4 5.9 C 41.5 5.9 41.6 5.8 41.7 5.8 C 41.8 5.8 41.8 5.8 41.8 5.9 C 41.9 5.9 41.9 5.9 41.9 6 C 41.9 6.1 41.7 6.3 41.5 6.5 C 41.2 6.7 40.9 6.9 40.6 6.9 C 40.4 6.9 40.2 6.8 40 6.6 C 39.9 6.5 39.8 6.3 39.8 6 C 39.8 5.7 39.9 5.2 40.1 4.5 C 40 4.5 39.9 4.5 39.9 4.5 C 39.9 4.5 39.8 4.5 39.8 4.5 C 39.7 4.5 39.6 4.5 39.6 4.4 C 39.5 4.3 39.4 4.2 39.4 4.1 C 39.4 4 39.5 3.9 39.7 3.9 C 39.7 3.9 40.3 3.9 40.3 3.9 C 40.4 3.6 40.5 3.3 40.6 3 C 40.6 2.7 40.7 2.6 40.9 2.6 C 41 2.6 41.1 2.6 41.2 2.7 C 41.2 2.8 41.2 2.8 41.2 2.9 C 41.2 2.9 41.2 3.2 41 3.8 C 41.6 3.7 41.9 3.7 42 3.7 C 42.1 3.7 42.2 3.7 42.2 3.8 C 42.2 3.8 42.2 3.8 42.2 3.9 C 42.2 4.1 42.1 4.2 41.8 4.3 C 41.8 4.3 40.8 4.4 40.8 4.4 Z M 43 5.3 C 43 5.3 43.04 5.23 43 5.2 C 43.3 4.8 43.5 4.4 43.8 4.1 C 44 3.8 44.3 3.7 44.6 3.7 C 44.8 3.7 44.9 3.7 45 3.8 C 45.2 3.9 45.2 4.1 45.2 4.2 C 45.2 4.3 45.2 4.4 45.2 4.4 C 45.1 4.5 45.1 4.5 45 4.5 C 44.9 4.5 44.8 4.5 44.7 4.4 C 44.6 4.3 44.5 4.3 44.5 4.3 C 44.4 4.3 44.1 4.5 43.8 5 C 43.4 5.4 43.2 5.9 43.2 6.5 C 43.2 6.6 43.1 6.7 43 6.8 C 43 6.9 42.9 6.9 42.7 6.9 C 42.6 6.9 42.5 6.8 42.5 6.7 C 42.4 6.5 42.4 6.3 42.4 5.9 C 42.4 5.8 42.4 5.6 42.4 5.4 C 42.4 5.2 42.4 4.9 42.5 4.6 C 42.5 4.5 42.5 4.4 42.5 4.4 C 42.5 4.2 42.5 4 42.5 4 C 42.6 3.9 42.6 3.8 42.7 3.8 C 42.8 3.7 42.9 3.7 43 3.7 C 43.1 3.7 43.1 3.7 43.2 3.8 C 43.2 3.8 43.3 3.9 43.3 4 C 43.3 4.1 43.2 4.2 43.1 4.5 C 43.1 4.6 43.1 4.7 43.1 4.9 C 43.06 4.88 43 5.3 43 5.3 Z M 46.8 2.5 C 46.8 2.6 46.7 2.7 46.6 2.9 C 46.5 3 46.3 3 46.3 3 C 46.1 3 46 3 46 2.9 C 45.9 2.8 45.8 2.7 45.8 2.6 C 45.8 2.4 45.9 2.3 46 2.2 C 46 2.2 46.2 2.1 46.3 2.1 C 46.5 2.1 46.6 2.2 46.6 2.2 C 46.7 2.3 46.8 2.4 46.8 2.5 Z M 45.3 5.1 C 45.4 5 45.4 4.9 45.4 4.8 C 45.4 4.8 45.4 4.8 45.4 4.8 C 45.4 4.5 45.5 4.3 45.5 4.2 C 45.5 4.1 45.5 4 45.6 3.9 C 45.6 3.8 45.7 3.8 45.8 3.8 C 46 3.8 46.1 3.8 46.1 3.8 C 46.2 3.9 46.2 4 46.2 4 C 46.2 4.1 46.2 4.3 46.1 4.5 C 46.1 4.5 46.1 4.6 46.1 4.6 C 46 4.9 45.9 5.2 45.9 5.5 C 45.9 5.7 45.9 5.9 45.9 6 C 45.9 6.2 45.9 6.3 46 6.5 C 46 6.5 46 6.6 46 6.6 C 46 6.6 45.9 6.7 45.8 6.8 C 45.8 6.8 45.7 6.9 45.6 6.9 C 45.3 6.9 45.2 6.7 45.2 6.3 C 45.2 6 45.2 5.6 45.3 5.1 C 45.3 5.1 45.3 5.1 45.3 5.1 Z M 47.9 4.4 C 47.9 4.4 47.8 4.6 47.7 5.1 C 47.7 5.5 47.6 5.7 47.6 5.8 C 47.6 6 47.6 6.1 47.7 6.1 C 47.7 6.2 47.7 6.2 47.8 6.2 C 47.9 6.2 48 6.2 48.1 6.2 C 48.2 6.1 48.4 6.1 48.5 5.9 C 48.6 5.9 48.7 5.8 48.8 5.8 C 48.8 5.8 48.9 5.8 48.9 5.9 C 48.9 5.9 48.9 5.9 48.9 6 C 48.9 6.1 48.8 6.3 48.5 6.5 C 48.3 6.7 48 6.9 47.7 6.9 C 47.4 6.9 47.2 6.8 47.1 6.6 C 47 6.5 46.9 6.3 46.9 6 C 46.9 5.7 47 5.2 47.2 4.5 C 47.1 4.5 47 4.5 46.9 4.5 C 46.9 4.5 46.9 4.5 46.9 4.5 C 46.8 4.5 46.7 4.5 46.6 4.4 C 46.5 4.3 46.5 4.2 46.5 4.1 C 46.5 4 46.6 3.9 46.8 3.9 C 46.8 3.9 47.4 3.9 47.4 3.9 C 47.4 3.6 47.5 3.3 47.6 3 C 47.7 2.7 47.8 2.6 48 2.6 C 48.1 2.6 48.2 2.6 48.2 2.7 C 48.3 2.8 48.3 2.8 48.3 2.9 C 48.3 2.9 48.2 3.2 48.1 3.8 C 48.7 3.7 49 3.7 49.1 3.7 C 49.2 3.7 49.2 3.7 49.3 3.8 C 49.3 3.8 49.3 3.8 49.3 3.9 C 49.3 4.1 49.2 4.2 48.9 4.3 C 48.9 4.3 47.9 4.4 47.9 4.4 Z M 51.8 6.8 C 51.4 6.8 51.3 6.5 51.3 5.8 C 50.8 6.4 50.3 6.8 49.9 6.8 C 49.7 6.8 49.5 6.7 49.4 6.6 C 49.3 6.4 49.2 6.3 49.2 6 C 49.2 5.5 49.4 5 49.9 4.4 C 50.3 3.9 50.8 3.6 51.3 3.6 C 51.5 3.6 51.6 3.7 51.7 3.9 C 51.9 3.9 52 4 52 4.2 C 52 4.3 52 4.4 52 4.6 C 51.9 5 51.9 5.3 51.9 5.6 C 51.9 5.8 51.9 6 51.9 6.1 C 51.9 6.2 52 6.2 52 6.3 C 52 6.3 52 6.3 52.1 6.4 C 52.2 6.4 52.2 6.4 52.2 6.5 C 52.2 6.6 52.2 6.7 52.1 6.8 C 52 6.8 51.9 6.8 51.8 6.8 C 51.8 6.8 51.8 6.8 51.8 6.8 Z M 51.1 4.2 C 50.9 4.2 50.7 4.4 50.4 4.8 C 50.1 5.3 49.9 5.6 49.9 5.9 C 49.9 6.1 50 6.1 50 6.1 C 50.2 6.1 50.5 5.9 50.8 5.5 C 51.2 5.2 51.3 4.8 51.3 4.5 C 51.3 4.4 51.3 4.3 51.3 4.3 C 51.2 4.2 51.2 4.2 51.1 4.2 Z M 55.5 6.6 C 55.4 6.6 55.4 6.6 55.2 6.6 C 55.1 6.6 55 6.6 55 6.6 C 54.5 6.6 54 6.6 53.5 6.8 C 53.3 6.9 53.1 6.9 53.1 6.9 C 52.9 6.9 52.8 6.8 52.8 6.8 C 52.7 6.7 52.7 6.6 52.7 6.5 C 52.7 6.5 52.7 6.4 52.7 6.2 C 52.8 6.1 52.8 5.9 52.8 5.6 C 52.8 5.6 53.1 3.3 53.1 3.3 C 53.1 3 53.1 2.9 53.2 2.8 C 53.2 2.8 53.2 2.7 53.3 2.7 C 53.3 2.6 53.4 2.6 53.5 2.6 C 53.6 2.6 53.7 2.6 53.8 2.7 C 53.9 2.7 53.9 2.8 53.9 2.9 C 53.9 3 53.9 3.1 53.8 3.3 C 53.8 3.6 53.7 4.1 53.6 4.8 C 53.5 5.6 53.5 6 53.5 6 C 53.5 6.1 53.5 6.1 53.5 6.1 C 53.6 6.1 53.8 6.1 54.1 6 C 54.3 6 54.4 6 54.6 6 C 55 6 55.3 5.9 55.5 5.9 C 55.6 5.9 55.6 5.9 55.6 5.9 C 55.7 5.9 55.8 5.9 55.9 6 C 55.9 6 56 6.1 56 6.2 C 56 6.3 55.9 6.4 55.8 6.5 C 55.7 6.6 55.6 6.6 55.5 6.6 Z " stroke="none" fill="#000"/>  </g></svg>