<?xml version="1.0" standalone="no"?><!DOCTYPE svg PUBLIC "-//W3C//DTD SVG 1.1//EN" "http://www.w3.org/Graphics/SVG/1.1/DTD/svg11.dtd"><svg xmlns="http://www.w3.org/2000/svg" version="1.1" width="53px" height="15.9px" viewBox="0 -2 53 15.9" style="top:-2px">  <desc>COMO A GENTE PODE LUTAR POR UMA VIDA MELHOR?!</desc>  <defs/>  <g id="Polygon14370">    <path d="M 1.6 6.5 C 1.6 6.5 1.6 6.5 1.5 6.5 C 1.4 6.5 1.4 6.5 1.4 6.5 C 1.1 6.5 0.8 6.5 0.6 6.6 C 0.5 6.6 0.4 6.6 0.4 6.6 C 0.3 6.6 0.3 6.6 0.2 6.6 C 0.2 6.5 0.2 6.5 0.2 6.4 C 0.2 6.4 0.2 6.4 0.2 6.3 C 0.2 6.2 0.3 6.1 0.3 6 C 0.3 6 0.4 4.8 0.4 4.8 C 0.4 4.7 0.4 4.6 0.4 4.5 C 0.4 4.5 0.5 4.5 0.5 4.5 C 0.5 4.4 0.6 4.4 0.6 4.4 C 0.7 4.4 0.7 4.4 0.8 4.5 C 0.8 4.5 0.8 4.5 0.8 4.6 C 0.8 4.6 0.8 4.7 0.8 4.8 C 0.8 4.9 0.7 5.2 0.7 5.6 C 0.6 6 0.6 6.2 0.6 6.2 C 0.6 6.2 0.6 6.2 0.6 6.2 C 0.7 6.2 0.8 6.2 0.9 6.2 C 1 6.2 1.1 6.2 1.2 6.2 C 1.4 6.1 1.6 6.1 1.6 6.1 C 1.7 6.1 1.7 6.1 1.7 6.1 C 1.8 6.1 1.8 6.1 1.8 6.1 C 1.9 6.2 1.9 6.2 1.9 6.3 C 1.9 6.3 1.9 6.4 1.8 6.4 C 1.7 6.5 1.7 6.5 1.6 6.5 Z M 2.9 6.6 C 2.8 6.6 2.7 6.6 2.6 6.5 C 2.4 6.5 2.3 6.4 2.2 6.2 C 2.2 6.1 2.1 5.9 2.1 5.7 C 2.1 5.6 2.1 5.5 2.2 5.3 C 2.2 5.3 2.2 5.1 2.2 5.1 C 2.2 5 2.2 5 2.2 4.9 C 2.2 4.9 2.3 4.8 2.3 4.7 C 2.3 4.6 2.3 4.6 2.3 4.5 C 2.4 4.4 2.4 4.4 2.5 4.4 C 2.5 4.4 2.6 4.4 2.6 4.5 C 2.6 4.6 2.7 4.6 2.7 4.6 C 2.7 4.6 2.6 4.8 2.6 4.9 C 2.6 5 2.6 5.1 2.5 5.3 C 2.5 5.5 2.5 5.6 2.5 5.7 C 2.5 5.9 2.5 6.1 2.6 6.2 C 2.8 6.3 2.8 6.3 2.9 6.3 C 3.2 6.3 3.3 6.3 3.4 6.2 C 3.5 6.1 3.6 5.9 3.6 5.6 C 3.6 5.6 3.6 5.6 3.6 5.5 C 3.6 5.4 3.7 5.3 3.7 5.2 C 3.7 4.9 3.7 4.7 3.8 4.6 C 3.8 4.5 3.9 4.5 4 4.5 C 4.1 4.5 4.1 4.5 4.1 4.7 C 4.1 4.7 4.1 4.9 4 5.1 C 4 5.2 4 5.3 4 5.5 C 4 5.8 3.9 6 3.9 6.1 C 3.8 6.3 3.7 6.4 3.5 6.5 C 3.4 6.6 3.2 6.6 2.9 6.6 Z M 6 4.8 C 5.7 4.8 5.6 4.8 5.5 4.8 C 5.5 4.8 5.4 4.8 5.4 4.9 C 5.4 4.9 5.4 5.1 5.4 5.4 C 5.3 5.7 5.3 5.9 5.3 6.1 C 5.3 6.2 5.3 6.3 5.4 6.3 C 5.4 6.4 5.4 6.4 5.4 6.4 C 5.4 6.4 5.3 6.5 5.3 6.5 C 5.3 6.6 5.2 6.6 5.2 6.6 C 5.2 6.6 5.1 6.6 5.1 6.6 C 5 6.5 5 6.5 5 6.4 C 5 6.3 5 6.2 5 6.1 C 5 5.9 5 5.7 5 5.3 C 5.1 5 5.1 4.9 5.1 4.8 C 5.1 4.8 5 4.9 4.8 4.9 C 4.6 4.9 4.5 4.9 4.4 4.9 C 4.3 4.9 4.3 4.9 4.2 4.8 C 4.2 4.8 4.2 4.8 4.2 4.7 C 4.2 4.7 4.2 4.6 4.2 4.6 C 4.3 4.6 4.4 4.6 4.5 4.6 C 4.8 4.6 5.1 4.6 5.4 4.5 C 5.7 4.5 5.9 4.4 6.1 4.4 C 6.2 4.4 6.4 4.5 6.4 4.5 C 6.4 4.6 6.4 4.6 6.4 4.6 C 6.4 4.7 6.4 4.8 6.3 4.8 C 6.3 4.8 6.2 4.8 6.2 4.8 C 6.1 4.8 6.1 4.8 6 4.8 C 6 4.8 6 4.8 6 4.8 Z M 6.7 6.1 C 6.6 6.1 6.6 6.1 6.6 6.1 C 6.5 6.1 6.5 6.2 6.4 6.3 C 6.3 6.5 6.3 6.6 6.2 6.6 C 6.2 6.6 6.2 6.6 6.1 6.6 C 6.1 6.6 6.1 6.6 6 6.5 C 6 6.5 5.9 6.5 5.9 6.4 C 5.9 6.4 6.1 6.2 6.3 5.8 C 6.4 5.6 6.6 5.4 6.7 5.2 C 6.9 4.8 7 4.6 7.1 4.5 C 7.1 4.4 7.2 4.4 7.2 4.4 C 7.3 4.4 7.4 4.4 7.4 4.5 C 7.4 4.5 7.4 4.5 7.4 4.6 C 7.4 4.6 7.4 4.6 7.4 4.7 C 7.6 5.2 7.8 5.6 7.9 5.8 C 8 6 8.1 6.2 8.2 6.3 C 8.2 6.4 8.2 6.4 8.3 6.4 C 8.3 6.4 8.3 6.4 8.3 6.5 C 8.3 6.5 8.2 6.6 8.2 6.6 C 8.2 6.6 8.1 6.7 8.1 6.7 C 8 6.7 7.9 6.6 7.8 6.5 C 7.8 6.5 7.7 6.3 7.6 6.2 C 7.6 6 7.5 5.9 7.5 5.9 C 7.5 5.9 7.5 5.9 7.5 5.9 C 7.5 5.9 7.3 5.9 7.2 6 C 7 6 6.8 6.1 6.7 6.1 C 6.7 6.1 6.7 6.1 6.7 6.1 C 6.7 6.1 6.7 6.1 6.7 6.1 Z M 7.3 5.7 C 7.3 5.6 7.4 5.6 7.4 5.6 C 7.4 5.6 7.3 5.4 7.2 5 C 7.2 5 7.2 5 7.2 5 C 7.2 5 6.8 5.7 6.8 5.7 C 6.8 5.7 6.9 5.7 7 5.7 C 7 5.7 7.1 5.7 7.3 5.7 C 7.3 5.7 7.3 5.7 7.3 5.7 Z M 8.6 4.8 C 8.6 4.8 8.63 4.75 8.6 4.8 C 8.6 4.7 8.6 4.7 8.6 4.6 C 8.6 4.6 8.6 4.6 8.7 4.5 C 8.7 4.5 8.7 4.5 8.8 4.5 C 8.8 4.5 8.8 4.5 8.8 4.5 C 8.9 4.5 8.9 4.5 8.9 4.5 C 9.2 4.4 9.4 4.4 9.5 4.4 C 9.7 4.4 9.9 4.5 10 4.6 C 10.1 4.7 10.2 4.8 10.2 4.9 C 10.2 5.1 10.1 5.2 10 5.4 C 9.9 5.5 9.7 5.6 9.5 5.7 C 9.9 6 10.1 6.2 10.3 6.3 C 10.4 6.3 10.4 6.3 10.4 6.4 C 10.4 6.4 10.4 6.5 10.3 6.5 C 10.3 6.6 10.3 6.6 10.2 6.6 C 10.2 6.6 10.1 6.6 10 6.5 C 10 6.5 9.9 6.4 9.7 6.3 C 9.6 6.2 9.5 6.1 9.5 6.1 C 9.3 5.9 9.2 5.8 9.1 5.8 C 9 5.8 8.9 5.7 8.9 5.6 C 8.9 5.6 9 5.5 9 5.5 C 9 5.5 9.1 5.4 9.2 5.4 C 9.2 5.4 9.2 5.5 9.2 5.5 C 9.2 5.5 9.2 5.5 9.3 5.5 C 9.3 5.5 9.4 5.4 9.6 5.3 C 9.8 5.2 9.9 5.1 9.9 4.9 C 9.9 4.9 9.8 4.8 9.7 4.8 C 9.7 4.7 9.6 4.7 9.5 4.7 C 9.3 4.7 9.2 4.7 9.2 4.7 C 9.1 4.7 9 4.7 9 4.8 C 9 4.8 9 4.8 9 4.8 C 9 4.8 9 4.9 8.9 5.1 C 8.9 5.3 8.9 5.5 8.9 5.7 C 8.8 5.9 8.8 6 8.8 6.1 C 8.8 6.2 8.8 6.3 8.8 6.3 C 8.8 6.4 8.8 6.4 8.8 6.4 C 8.8 6.5 8.8 6.5 8.8 6.6 C 8.7 6.6 8.7 6.6 8.6 6.6 C 8.5 6.6 8.4 6.5 8.4 6.3 C 8.4 6.2 8.5 6 8.5 5.7 C 8.5 5.4 8.6 5.2 8.6 5 C 8.6 4.9 8.6 4.9 8.6 4.9 C 8.63 4.89 8.6 4.8 8.6 4.8 Z M 12.4 5.8 C 12.3 5.9 12.2 5.9 12.2 5.9 C 12.1 6.1 12.1 6.3 12.1 6.4 C 12.1 6.5 12.1 6.5 12.1 6.6 C 12 6.6 12 6.6 11.9 6.6 C 11.8 6.6 11.8 6.6 11.8 6.4 C 11.8 6.4 11.8 6.1 11.9 5.6 C 11.9 5.3 11.9 5.1 11.9 5 C 11.9 4.9 11.9 4.9 11.9 4.9 C 11.8 4.8 11.8 4.8 11.8 4.7 C 11.8 4.6 11.9 4.5 12.2 4.5 C 12.5 4.4 12.7 4.4 12.9 4.4 C 13.1 4.4 13.3 4.4 13.4 4.5 C 13.6 4.6 13.6 4.7 13.6 4.9 C 13.6 5.1 13.5 5.3 13.3 5.5 C 13 5.6 12.7 5.8 12.4 5.8 C 12.4 5.8 12.4 5.8 12.4 5.8 Z M 12.9 4.7 C 12.7 4.7 12.5 4.7 12.3 4.8 C 12.3 4.8 12.2 5.6 12.2 5.6 C 12.5 5.5 12.7 5.4 13 5.3 C 13.2 5.2 13.3 5.1 13.3 4.9 C 13.3 4.8 13.1 4.7 12.9 4.7 C 12.9 4.7 12.9 4.7 12.9 4.7 Z M 14.3 6.6 C 14.2 6.6 14 6.6 13.9 6.4 C 13.8 6.3 13.7 6.1 13.7 5.9 C 13.7 5.7 13.8 5.5 13.9 5.2 C 14 5 14.2 4.8 14.4 4.6 C 14.5 4.5 14.7 4.4 15 4.4 C 15.1 4.4 15.3 4.4 15.4 4.5 C 15.5 4.5 15.6 4.6 15.7 4.6 C 15.7 4.7 15.8 4.8 15.8 4.9 C 15.9 5 15.9 5.1 15.9 5.2 C 15.9 5.3 15.8 5.5 15.8 5.7 C 15.7 5.8 15.6 6 15.4 6.2 C 15.3 6.3 15.1 6.4 14.9 6.5 C 14.8 6.6 14.6 6.6 14.3 6.6 Z M 14.1 5.9 C 14.1 6 14.1 6.1 14.2 6.2 C 14.2 6.3 14.3 6.3 14.4 6.3 C 14.7 6.3 14.9 6.2 15.2 6 C 15.4 5.7 15.5 5.4 15.5 5.1 C 15.5 5.1 15.5 5 15.4 4.9 C 15.4 4.8 15.3 4.8 15.2 4.8 C 15.2 4.7 15.1 4.7 15 4.7 C 14.8 4.7 14.6 4.8 14.4 5.1 C 14.2 5.4 14.1 5.6 14.1 5.9 Z M 16.3 4.8 C 16.3 4.8 16.28 4.75 16.3 4.8 C 16.3 4.7 16.2 4.7 16.2 4.6 C 16.2 4.6 16.3 4.6 16.3 4.5 C 16.4 4.5 16.4 4.5 16.4 4.5 C 16.5 4.5 16.5 4.5 16.5 4.5 C 16.5 4.5 16.5 4.5 16.6 4.5 C 16.8 4.4 17 4.4 17.2 4.4 C 17.4 4.4 17.6 4.5 17.7 4.6 C 17.8 4.7 17.9 4.8 17.9 4.9 C 17.9 5.1 17.8 5.2 17.7 5.4 C 17.6 5.5 17.4 5.6 17.2 5.7 C 17.5 6 17.8 6.2 18 6.3 C 18 6.3 18.1 6.3 18.1 6.4 C 18.1 6.4 18 6.5 18 6.5 C 18 6.6 17.9 6.6 17.9 6.6 C 17.8 6.6 17.8 6.6 17.7 6.5 C 17.6 6.5 17.5 6.4 17.4 6.3 C 17.2 6.2 17.2 6.1 17.1 6.1 C 17 5.9 16.8 5.8 16.7 5.8 C 16.6 5.8 16.6 5.7 16.6 5.6 C 16.6 5.6 16.6 5.5 16.7 5.5 C 16.7 5.5 16.8 5.4 16.8 5.4 C 16.8 5.4 16.8 5.5 16.9 5.5 C 16.9 5.5 16.9 5.5 16.9 5.5 C 17 5.5 17.1 5.4 17.3 5.3 C 17.4 5.2 17.5 5.1 17.5 4.9 C 17.5 4.9 17.5 4.8 17.4 4.8 C 17.3 4.7 17.2 4.7 17.1 4.7 C 17 4.7 16.9 4.7 16.8 4.7 C 16.7 4.7 16.7 4.7 16.7 4.8 C 16.7 4.8 16.7 4.8 16.7 4.8 C 16.7 4.8 16.6 4.9 16.6 5.1 C 16.6 5.3 16.5 5.5 16.5 5.7 C 16.5 5.9 16.5 6 16.5 6.1 C 16.5 6.2 16.5 6.3 16.5 6.3 C 16.5 6.4 16.5 6.4 16.5 6.4 C 16.5 6.5 16.5 6.5 16.4 6.6 C 16.4 6.6 16.3 6.6 16.3 6.6 C 16.2 6.6 16.1 6.5 16.1 6.3 C 16.1 6.2 16.1 6 16.1 5.7 C 16.2 5.4 16.2 5.2 16.3 5 C 16.3 4.9 16.3 4.9 16.3 4.9 C 16.28 4.89 16.3 4.8 16.3 4.8 Z M 20.2 6.6 C 20.1 6.6 20 6.6 19.8 6.5 C 19.7 6.5 19.6 6.4 19.5 6.2 C 19.4 6.1 19.4 5.9 19.4 5.7 C 19.4 5.6 19.4 5.5 19.4 5.3 C 19.4 5.3 19.5 5.1 19.5 5.1 C 19.5 5 19.5 5 19.5 4.9 C 19.5 4.9 19.5 4.8 19.5 4.7 C 19.5 4.6 19.6 4.6 19.6 4.5 C 19.6 4.4 19.7 4.4 19.8 4.4 C 19.8 4.4 19.8 4.4 19.9 4.5 C 19.9 4.6 19.9 4.6 19.9 4.6 C 19.9 4.6 19.9 4.8 19.9 4.9 C 19.8 5 19.8 5.1 19.8 5.3 C 19.8 5.5 19.8 5.6 19.8 5.7 C 19.8 5.9 19.8 6.1 19.9 6.2 C 20 6.3 20.1 6.3 20.2 6.3 C 20.4 6.3 20.6 6.3 20.7 6.2 C 20.8 6.1 20.9 5.9 20.9 5.6 C 20.9 5.6 20.9 5.6 20.9 5.5 C 20.9 5.4 20.9 5.3 20.9 5.2 C 21 4.9 21 4.7 21 4.6 C 21.1 4.5 21.1 4.5 21.2 4.5 C 21.3 4.5 21.4 4.5 21.4 4.7 C 21.4 4.7 21.4 4.9 21.3 5.1 C 21.3 5.2 21.3 5.3 21.3 5.5 C 21.3 5.8 21.2 6 21.1 6.1 C 21.1 6.3 21 6.4 20.8 6.5 C 20.6 6.6 20.4 6.6 20.2 6.6 Z M 23.7 5 C 23.7 5 23.7 5 23.7 4.9 C 23.7 4.9 23.2 5.6 23.2 5.6 C 23 5.9 22.8 6.1 22.7 6.1 C 22.6 6.1 22.6 6 22.5 6 C 22.5 5.9 22.4 5.8 22.4 5.7 C 22.3 5.5 22.3 5.4 22.3 5.4 C 22.2 5.2 22.2 5.1 22.2 5.1 C 22.2 5.1 22.1 5.5 22.1 5.5 C 22.1 5.6 22.1 5.7 22.1 5.8 C 22 5.9 22 6 22 6.2 C 21.9 6.3 21.9 6.4 21.9 6.5 C 21.9 6.5 21.9 6.6 21.9 6.6 C 21.8 6.6 21.8 6.6 21.8 6.6 C 21.7 6.6 21.7 6.6 21.6 6.6 C 21.6 6.5 21.6 6.5 21.6 6.5 C 21.6 6.4 21.6 6.2 21.6 6.1 C 21.8 5.5 21.9 5.1 21.9 5 C 21.9 4.8 21.9 4.7 21.9 4.6 C 21.9 4.5 22 4.5 22 4.5 C 22 4.4 22.1 4.4 22.2 4.4 C 22.2 4.4 22.3 4.5 22.3 4.5 C 22.3 4.6 22.4 4.6 22.4 4.7 C 22.38 4.66 22.4 4.7 22.4 4.7 C 22.4 4.7 22.58 5.22 22.6 5.2 C 22.7 5.5 22.7 5.6 22.7 5.7 C 22.8 5.5 23 5.3 23.2 5.1 C 23.4 4.8 23.6 4.6 23.6 4.5 C 23.7 4.4 23.8 4.4 23.8 4.4 C 23.8 4.4 23.9 4.4 24 4.5 C 24 4.5 24 4.5 24 4.6 C 24 4.6 24 4.7 24 5 C 24 5.2 23.9 5.4 23.9 5.6 C 23.9 5.9 23.9 6 23.9 6.1 C 23.9 6.1 23.9 6.2 23.9 6.2 C 23.9 6.3 23.9 6.3 23.9 6.3 C 23.9 6.4 23.9 6.5 23.9 6.5 C 23.8 6.6 23.8 6.6 23.7 6.6 C 23.6 6.6 23.5 6.5 23.5 6.3 C 23.5 6.1 23.5 5.9 23.6 5.6 C 23.6 5.4 23.6 5.2 23.7 5 C 23.7 5 23.7 5 23.7 5 Z M 24.9 6.1 C 24.8 6.1 24.8 6.1 24.8 6.1 C 24.8 6.1 24.7 6.2 24.6 6.3 C 24.5 6.5 24.5 6.6 24.4 6.6 C 24.4 6.6 24.4 6.6 24.4 6.6 C 24.3 6.6 24.3 6.6 24.2 6.5 C 24.2 6.5 24.2 6.5 24.2 6.4 C 24.2 6.4 24.3 6.2 24.5 5.8 C 24.7 5.6 24.8 5.4 24.9 5.2 C 25.1 4.8 25.2 4.6 25.3 4.5 C 25.3 4.4 25.4 4.4 25.4 4.4 C 25.5 4.4 25.6 4.4 25.6 4.5 C 25.6 4.5 25.7 4.5 25.7 4.6 C 25.7 4.6 25.7 4.6 25.6 4.7 C 25.8 5.2 26 5.6 26.1 5.8 C 26.2 6 26.3 6.2 26.4 6.3 C 26.4 6.4 26.4 6.4 26.5 6.4 C 26.5 6.4 26.5 6.4 26.5 6.5 C 26.5 6.5 26.5 6.6 26.4 6.6 C 26.4 6.6 26.3 6.7 26.3 6.7 C 26.2 6.7 26.1 6.6 26.1 6.5 C 26 6.5 25.9 6.3 25.8 6.2 C 25.8 6 25.7 5.9 25.7 5.9 C 25.7 5.9 25.7 5.9 25.7 5.9 C 25.7 5.9 25.6 5.9 25.4 6 C 25.2 6 25 6.1 24.9 6.1 C 24.9 6.1 24.9 6.1 24.9 6.1 C 24.9 6.1 24.9 6.1 24.9 6.1 Z M 25.5 5.7 C 25.5 5.6 25.6 5.6 25.6 5.6 C 25.6 5.6 25.5 5.4 25.4 5 C 25.4 5 25.4 5 25.4 5 C 25.4 5 25 5.7 25 5.7 C 25 5.7 25.1 5.7 25.2 5.7 C 25.2 5.7 25.3 5.7 25.5 5.7 C 25.5 5.7 25.5 5.7 25.5 5.7 Z M 30 4.5 C 30 4.5 30 4.5 30 4.5 C 30 4.5 29.9 4.6 29.8 4.7 C 29.7 4.9 29.6 5 29.6 5.1 C 29.5 5.2 29.4 5.4 29.2 5.7 C 29.1 5.9 29 6 29 6.1 C 28.9 6.2 28.8 6.3 28.8 6.4 C 28.8 6.4 28.8 6.5 28.7 6.5 C 28.7 6.5 28.6 6.6 28.5 6.6 C 28.5 6.6 28.5 6.5 28.4 6.5 C 28.4 6.4 28.4 6.3 28.3 6.2 C 28.3 6 28.2 5.8 28.1 5.6 C 27.8 5 27.7 4.7 27.7 4.7 C 27.7 4.6 27.7 4.6 27.8 4.5 C 27.8 4.5 27.9 4.4 27.9 4.4 C 28 4.4 28 4.5 28.1 4.5 C 28.1 4.5 28.1 4.6 28.2 4.8 C 28.2 4.9 28.2 5.1 28.4 5.4 C 28.5 5.7 28.6 5.9 28.6 6.1 C 28.7 6.1 28.7 6 28.7 5.9 C 28.8 5.9 28.8 5.9 28.8 5.9 C 28.9 5.7 29 5.5 29.1 5.3 C 29.3 5 29.4 4.7 29.5 4.6 C 29.6 4.4 29.7 4.4 29.8 4.4 C 29.9 4.4 30 4.4 30 4.5 C 29.96 4.52 30 4.5 30 4.5 C 30 4.5 29.96 4.53 30 4.5 Z M 30.4 5.1 C 30.4 5.2 30.4 5.3 30.4 5.3 C 30.4 5.3 30.3 5.4 30.3 5.5 C 30.3 5.7 30.3 5.9 30.3 6 C 30.3 6.1 30.3 6.2 30.3 6.3 C 30.3 6.4 30.3 6.5 30.2 6.5 C 30.2 6.6 30.1 6.6 30.1 6.6 C 30 6.6 30 6.6 29.9 6.5 C 29.9 6.4 29.9 6.3 29.9 6.2 C 29.9 6.1 29.9 5.9 30 5.5 C 30 5.5 30.1 5 30.1 5 C 30.1 4.9 30.1 4.8 30.1 4.7 C 30.1 4.6 30.1 4.6 30.1 4.5 C 30.2 4.5 30.2 4.5 30.2 4.5 C 30.3 4.4 30.3 4.4 30.3 4.4 C 30.4 4.4 30.4 4.4 30.5 4.5 C 30.5 4.5 30.5 4.6 30.5 4.6 C 30.5 4.6 30.4 5.1 30.4 5.1 Z M 30.8 6.3 C 30.8 6.3 30.9 6.2 30.9 6.1 C 30.9 5.7 30.9 5.4 31 5 C 31 4.9 31 4.9 31 4.8 C 31 4.8 31 4.8 31 4.8 C 30.9 4.8 30.8 4.7 30.8 4.6 C 30.8 4.6 30.9 4.6 30.9 4.5 C 30.9 4.5 31 4.4 31 4.4 C 31 4.4 31.2 4.5 31.2 4.5 C 31.3 4.5 31.4 4.4 31.6 4.4 C 31.7 4.4 31.8 4.4 31.9 4.4 C 32.2 4.4 32.4 4.5 32.6 4.6 C 32.8 4.8 32.8 5 32.8 5.3 C 32.8 5.5 32.7 5.8 32.4 6 C 32.2 6.2 31.9 6.4 31.5 6.5 C 31.4 6.5 31.3 6.5 31.3 6.5 C 31.3 6.6 31.2 6.6 31.2 6.6 C 31.1 6.7 31 6.7 31 6.7 C 30.9 6.7 30.9 6.7 30.8 6.6 C 30.8 6.6 30.8 6.5 30.8 6.5 C 30.8 6.5 30.8 6.4 30.8 6.4 C 30.8 6.4 30.8 6.3 30.8 6.3 Z M 31.2 6.1 C 31.2 6.2 31.2 6.2 31.2 6.2 C 31.3 6.2 31.4 6.2 31.7 6.1 C 31.9 6.1 32.1 5.9 32.3 5.8 C 32.4 5.6 32.5 5.4 32.5 5.2 C 32.5 5.1 32.4 4.9 32.3 4.9 C 32.2 4.8 32.1 4.7 31.9 4.7 C 31.7 4.7 31.6 4.7 31.4 4.7 C 31.4 4.8 31.4 4.8 31.4 4.8 C 31.3 5.4 31.2 5.9 31.2 6.1 C 31.2 6.1 31.2 6.1 31.2 6.1 Z M 33.4 6.1 C 33.4 6.1 33.4 6.1 33.3 6.1 C 33.3 6.1 33.3 6.2 33.2 6.3 C 33.1 6.5 33 6.6 33 6.6 C 33 6.6 33 6.6 32.9 6.6 C 32.9 6.6 32.8 6.6 32.8 6.5 C 32.8 6.5 32.7 6.5 32.7 6.4 C 32.7 6.4 32.8 6.2 33.1 5.8 C 33.2 5.6 33.3 5.4 33.5 5.2 C 33.7 4.8 33.8 4.6 33.9 4.5 C 33.9 4.4 34 4.4 34 4.4 C 34.1 4.4 34.2 4.4 34.2 4.5 C 34.2 4.5 34.2 4.5 34.2 4.6 C 34.2 4.6 34.2 4.6 34.2 4.7 C 34.4 5.2 34.5 5.6 34.6 5.8 C 34.7 6 34.8 6.2 34.9 6.3 C 35 6.4 35 6.4 35 6.4 C 35 6.4 35 6.4 35 6.5 C 35 6.5 35 6.6 35 6.6 C 35 6.6 34.9 6.7 34.9 6.7 C 34.8 6.7 34.7 6.6 34.6 6.5 C 34.5 6.5 34.5 6.3 34.4 6.2 C 34.3 6 34.3 5.9 34.3 5.9 C 34.3 5.9 34.3 5.9 34.3 5.9 C 34.2 5.9 34.1 5.9 33.9 6 C 33.8 6 33.6 6.1 33.5 6.1 C 33.5 6.1 33.5 6.1 33.4 6.1 C 33.4 6.1 33.4 6.1 33.4 6.1 Z M 34.1 5.7 C 34.1 5.6 34.1 5.6 34.2 5.6 C 34.2 5.6 34.1 5.4 34 5 C 34 5 34 5 34 5 C 34 5 33.5 5.7 33.5 5.7 C 33.6 5.7 33.7 5.7 33.7 5.7 C 33.8 5.7 33.9 5.7 34.1 5.7 C 34.1 5.7 34.1 5.7 34.1 5.7 Z M 38.4 5 C 38.4 5 38.4 5 38.4 4.9 C 38.4 4.9 37.9 5.6 37.9 5.6 C 37.7 5.9 37.5 6.1 37.4 6.1 C 37.4 6.1 37.3 6 37.3 6 C 37.2 5.9 37.2 5.8 37.1 5.7 C 37.1 5.5 37.1 5.4 37 5.4 C 37 5.2 37 5.1 36.9 5.1 C 36.9 5.1 36.9 5.5 36.9 5.5 C 36.9 5.6 36.8 5.7 36.8 5.8 C 36.8 5.9 36.8 6 36.7 6.2 C 36.7 6.3 36.7 6.4 36.7 6.5 C 36.7 6.5 36.6 6.6 36.6 6.6 C 36.6 6.6 36.5 6.6 36.5 6.6 C 36.5 6.6 36.4 6.6 36.4 6.6 C 36.3 6.5 36.3 6.5 36.3 6.5 C 36.3 6.4 36.3 6.2 36.4 6.1 C 36.5 5.5 36.6 5.1 36.6 5 C 36.7 4.8 36.7 4.7 36.7 4.6 C 36.7 4.5 36.7 4.5 36.7 4.5 C 36.8 4.4 36.9 4.4 36.9 4.4 C 37 4.4 37 4.5 37 4.5 C 37.1 4.6 37.1 4.6 37.1 4.7 C 37.12 4.66 37.1 4.7 37.1 4.7 C 37.1 4.7 37.33 5.22 37.3 5.2 C 37.4 5.5 37.5 5.6 37.5 5.7 C 37.6 5.5 37.8 5.3 38 5.1 C 38.2 4.8 38.3 4.6 38.4 4.5 C 38.5 4.4 38.5 4.4 38.5 4.4 C 38.6 4.4 38.6 4.4 38.7 4.5 C 38.8 4.5 38.8 4.5 38.8 4.6 C 38.8 4.6 38.8 4.7 38.7 5 C 38.7 5.2 38.7 5.4 38.7 5.6 C 38.6 5.9 38.6 6 38.6 6.1 C 38.6 6.1 38.6 6.2 38.7 6.2 C 38.7 6.3 38.7 6.3 38.7 6.3 C 38.7 6.4 38.6 6.5 38.6 6.5 C 38.6 6.6 38.5 6.6 38.5 6.6 C 38.3 6.6 38.3 6.5 38.3 6.3 C 38.3 6.1 38.3 5.9 38.3 5.6 C 38.3 5.4 38.4 5.2 38.4 5 C 38.4 5 38.4 5 38.4 5 Z M 40.8 4.7 C 40.8 4.7 40.3 4.8 40.3 4.8 C 40.2 4.8 40.1 4.8 39.9 4.8 C 39.8 4.8 39.8 4.8 39.8 4.8 C 39.8 4.9 39.7 4.9 39.7 4.9 C 39.7 5 39.7 5.1 39.7 5.2 C 39.7 5.3 39.6 5.4 39.6 5.4 C 39.7 5.4 39.8 5.4 39.9 5.4 C 40 5.4 40.1 5.4 40.2 5.4 C 40.3 5.3 40.4 5.3 40.5 5.3 C 40.6 5.3 40.7 5.4 40.7 5.5 C 40.7 5.5 40.7 5.6 40.7 5.6 C 40.6 5.6 40.5 5.6 40.5 5.6 C 40.4 5.6 40.3 5.7 40.3 5.7 C 40.2 5.7 40.2 5.7 40.1 5.7 C 39.9 5.7 39.7 5.7 39.6 5.8 C 39.6 5.8 39.6 5.8 39.6 5.8 C 39.6 5.8 39.6 5.8 39.6 5.8 C 39.6 5.8 39.6 5.9 39.6 6 C 39.5 6.1 39.5 6.2 39.5 6.3 C 39.5 6.3 39.6 6.3 39.6 6.3 C 39.6 6.3 39.8 6.3 40 6.3 C 40.2 6.3 40.3 6.3 40.3 6.2 C 40.5 6.2 40.6 6.2 40.6 6.2 C 40.7 6.2 40.8 6.3 40.8 6.4 C 40.8 6.4 40.8 6.5 40.7 6.5 C 40.6 6.5 40.5 6.5 40.3 6.6 C 40.2 6.6 40 6.6 39.9 6.6 C 39.7 6.6 39.5 6.7 39.4 6.7 C 39.3 6.7 39.2 6.6 39.2 6.6 C 39.2 6.6 39.1 6.5 39.1 6.5 C 39.1 6.5 39.1 6.4 39.1 6.4 C 39.1 6.4 39.1 6.4 39.2 6.3 C 39.2 6.2 39.2 5.9 39.3 5.5 C 39.4 5.1 39.4 4.9 39.4 4.8 C 39.4 4.8 39.4 4.8 39.4 4.8 C 39.4 4.8 39.4 4.8 39.3 4.8 C 39.3 4.7 39.3 4.7 39.3 4.7 C 39.3 4.6 39.3 4.6 39.3 4.6 C 39.3 4.6 39.3 4.6 39.4 4.6 C 39.4 4.5 39.5 4.5 39.5 4.5 C 39.5 4.5 39.6 4.5 39.6 4.5 C 39.7 4.5 40 4.5 40.4 4.4 C 40.6 4.4 40.6 4.4 40.7 4.4 C 40.7 4.4 40.7 4.4 40.7 4.4 C 40.9 4.4 40.9 4.5 40.9 4.6 C 40.9 4.6 40.9 4.6 40.9 4.7 C 40.9 4.7 40.8 4.7 40.8 4.7 Z M 42.5 6.5 C 42.5 6.5 42.5 6.5 42.4 6.5 C 42.4 6.5 42.3 6.5 42.3 6.5 C 42 6.5 41.8 6.5 41.5 6.6 C 41.4 6.6 41.3 6.6 41.3 6.6 C 41.2 6.6 41.2 6.6 41.1 6.6 C 41.1 6.5 41.1 6.5 41.1 6.4 C 41.1 6.4 41.1 6.4 41.1 6.3 C 41.1 6.2 41.2 6.1 41.2 6 C 41.2 6 41.3 4.8 41.3 4.8 C 41.3 4.7 41.3 4.6 41.3 4.5 C 41.3 4.5 41.4 4.5 41.4 4.5 C 41.4 4.4 41.5 4.4 41.5 4.4 C 41.6 4.4 41.6 4.4 41.7 4.5 C 41.7 4.5 41.7 4.5 41.7 4.6 C 41.7 4.6 41.7 4.7 41.7 4.8 C 41.7 4.9 41.6 5.2 41.6 5.6 C 41.5 6 41.5 6.2 41.5 6.2 C 41.5 6.2 41.5 6.2 41.5 6.2 C 41.6 6.2 41.7 6.2 41.8 6.2 C 41.9 6.2 42 6.2 42.1 6.2 C 42.3 6.1 42.5 6.1 42.6 6.1 C 42.6 6.1 42.6 6.1 42.6 6.1 C 42.7 6.1 42.7 6.1 42.7 6.1 C 42.8 6.2 42.8 6.2 42.8 6.3 C 42.8 6.3 42.8 6.4 42.7 6.4 C 42.7 6.5 42.6 6.5 42.5 6.5 Z M 43.4 5.7 C 43.4 5.8 43.4 5.9 43.4 6.2 C 43.3 6.3 43.3 6.4 43.3 6.5 C 43.3 6.6 43.2 6.7 43.2 6.7 C 43.1 6.7 43 6.6 43 6.6 C 43 6.6 42.9 6.5 42.9 6.4 C 42.9 6.4 43 6.3 43 6.2 C 43.1 5.9 43.1 5.4 43.2 4.6 C 43.2 4.5 43.2 4.5 43.3 4.5 C 43.3 4.4 43.3 4.4 43.4 4.4 C 43.5 4.4 43.6 4.5 43.6 4.7 C 43.6 4.7 43.5 4.8 43.5 5 C 43.5 5.2 43.5 5.3 43.5 5.4 C 43.5 5.4 43.5 5.4 43.6 5.4 C 43.7 5.4 43.9 5.4 44.2 5.4 C 44.4 5.4 44.5 5.3 44.6 5.3 C 44.6 5.3 44.6 5.2 44.6 5 C 44.6 4.8 44.6 4.7 44.6 4.5 C 44.6 4.4 44.7 4.4 44.7 4.4 C 44.8 4.3 44.8 4.3 44.8 4.3 C 44.9 4.3 44.9 4.3 45 4.4 C 45 4.4 45 4.4 45 4.5 C 45 4.6 45 4.7 45 4.9 C 44.9 5.1 44.9 5.4 44.9 5.7 C 44.8 6.1 44.8 6.3 44.8 6.4 C 44.8 6.4 44.8 6.5 44.8 6.6 C 44.7 6.6 44.7 6.6 44.6 6.6 C 44.6 6.6 44.5 6.6 44.5 6.6 C 44.5 6.6 44.4 6.5 44.4 6.5 C 44.4 6.4 44.4 6.3 44.5 6.1 C 44.5 5.9 44.5 5.8 44.5 5.7 C 44.5 5.7 44.5 5.6 44.5 5.6 C 44.4 5.6 44.3 5.7 44.2 5.7 C 44.1 5.7 44 5.7 43.9 5.7 C 43.9 5.7 43.8 5.7 43.6 5.7 C 43.5 5.7 43.4 5.7 43.4 5.7 Z M 45.9 6.6 C 45.7 6.6 45.6 6.6 45.4 6.4 C 45.3 6.3 45.2 6.1 45.2 5.9 C 45.2 5.7 45.3 5.5 45.4 5.2 C 45.5 5 45.7 4.8 45.9 4.6 C 46.1 4.5 46.3 4.4 46.5 4.4 C 46.7 4.4 46.8 4.4 46.9 4.5 C 47 4.5 47.1 4.6 47.2 4.6 C 47.3 4.7 47.3 4.8 47.4 4.9 C 47.4 5 47.4 5.1 47.4 5.2 C 47.4 5.3 47.4 5.5 47.3 5.7 C 47.2 5.8 47.1 6 46.9 6.2 C 46.8 6.3 46.6 6.4 46.5 6.5 C 46.3 6.6 46.1 6.6 45.9 6.6 Z M 45.6 5.9 C 45.6 6 45.6 6.1 45.7 6.2 C 45.8 6.3 45.9 6.3 46 6.3 C 46.2 6.3 46.5 6.2 46.7 6 C 46.9 5.7 47 5.4 47 5.1 C 47 5.1 47 5 47 4.9 C 46.9 4.8 46.9 4.8 46.8 4.8 C 46.7 4.7 46.6 4.7 46.5 4.7 C 46.3 4.7 46.1 4.8 45.9 5.1 C 45.7 5.4 45.6 5.6 45.6 5.9 Z M 47.8 4.8 C 47.8 4.8 47.82 4.75 47.8 4.8 C 47.8 4.7 47.8 4.7 47.8 4.6 C 47.8 4.6 47.8 4.6 47.8 4.5 C 47.9 4.5 47.9 4.5 48 4.5 C 48 4.5 48 4.5 48 4.5 C 48.1 4.5 48.1 4.5 48.1 4.5 C 48.4 4.4 48.6 4.4 48.7 4.4 C 48.9 4.4 49.1 4.5 49.2 4.6 C 49.3 4.7 49.4 4.8 49.4 4.9 C 49.4 5.1 49.3 5.2 49.2 5.4 C 49.1 5.5 48.9 5.6 48.7 5.7 C 49.1 6 49.3 6.2 49.5 6.3 C 49.6 6.3 49.6 6.3 49.6 6.4 C 49.6 6.4 49.6 6.5 49.5 6.5 C 49.5 6.6 49.5 6.6 49.4 6.6 C 49.4 6.6 49.3 6.6 49.2 6.5 C 49.1 6.5 49 6.4 48.9 6.3 C 48.8 6.2 48.7 6.1 48.7 6.1 C 48.5 5.9 48.4 5.8 48.3 5.8 C 48.2 5.8 48.1 5.7 48.1 5.6 C 48.1 5.6 48.2 5.5 48.2 5.5 C 48.2 5.5 48.3 5.4 48.4 5.4 C 48.4 5.4 48.4 5.5 48.4 5.5 C 48.4 5.5 48.4 5.5 48.4 5.5 C 48.5 5.5 48.6 5.4 48.8 5.3 C 49 5.2 49 5.1 49 4.9 C 49 4.9 49 4.8 48.9 4.8 C 48.9 4.7 48.8 4.7 48.7 4.7 C 48.5 4.7 48.4 4.7 48.4 4.7 C 48.3 4.7 48.2 4.7 48.2 4.8 C 48.2 4.8 48.2 4.8 48.2 4.8 C 48.2 4.8 48.2 4.9 48.1 5.1 C 48.1 5.3 48.1 5.5 48 5.7 C 48 5.9 48 6 48 6.1 C 48 6.2 48 6.3 48 6.3 C 48 6.4 48 6.4 48 6.4 C 48 6.5 48 6.5 48 6.6 C 47.9 6.6 47.9 6.6 47.8 6.6 C 47.7 6.6 47.6 6.5 47.6 6.3 C 47.6 6.2 47.6 6 47.7 5.7 C 47.7 5.4 47.8 5.2 47.8 5 C 47.8 4.9 47.8 4.9 47.8 4.9 C 47.82 4.89 47.8 4.8 47.8 4.8 Z M 51.1 4.9 C 51.1 5 51.1 5.1 51 5.2 C 51 5.3 50.9 5.4 50.8 5.4 C 50.8 5.5 50.6 5.5 50.3 5.6 C 50.3 5.7 50.3 5.8 50.3 5.9 C 50.3 5.9 50.2 5.9 50.2 6 C 50.2 6 50.1 6 50 6 C 50 6 50 6 50 5.9 C 50 5.9 49.9 5.9 49.9 5.8 C 49.9 5.8 50 5.7 50 5.7 C 50 5.7 50 5.6 50.1 5.5 C 50.1 5.4 50.2 5.4 50.2 5.3 C 50.3 5.3 50.4 5.3 50.5 5.2 C 50.5 5.2 50.7 5.2 50.7 5.2 C 50.7 5.1 50.7 5.1 50.8 5.1 C 50.8 5 50.8 5 50.8 4.9 C 50.8 4.9 50.8 4.8 50.8 4.8 C 50.8 4.7 50.7 4.7 50.7 4.7 C 50.7 4.7 50.7 4.7 50.7 4.6 C 50.6 4.6 50.6 4.6 50.6 4.6 C 50.4 4.6 50.4 4.6 50.3 4.7 C 50.3 4.7 50.3 4.7 50.3 4.7 C 50.3 4.8 50.2 4.9 50 4.9 C 50 4.9 49.9 4.8 49.9 4.7 C 49.9 4.7 49.9 4.6 50 4.6 C 50.1 4.5 50.1 4.4 50.2 4.4 C 50.2 4.4 50.2 4.4 50.2 4.4 C 50.3 4.4 50.4 4.3 50.4 4.3 C 50.5 4.3 50.6 4.3 50.6 4.3 C 50.7 4.3 50.8 4.3 50.9 4.4 C 51 4.5 51 4.5 51.1 4.6 C 51.1 4.6 51.1 4.7 51.1 4.9 C 51.1 4.9 51.1 4.9 51.1 4.9 Z M 50.1 6.3 C 50.2 6.3 50.3 6.3 50.3 6.4 C 50.3 6.5 50.2 6.5 50.2 6.5 C 50.1 6.6 50 6.6 50 6.6 C 49.9 6.6 49.9 6.6 49.8 6.6 C 49.8 6.5 49.8 6.5 49.8 6.4 C 49.8 6.4 49.8 6.3 49.9 6.3 C 49.9 6.3 49.9 6.3 49.9 6.3 C 49.9 6.2 50 6.2 50 6.2 C 50 6.2 50.1 6.2 50.1 6.3 C 50.1 6.3 50.1 6.3 50.1 6.3 Z M 51.6 5.7 C 51.6 5.7 51.6 5.8 51.6 5.8 C 51.5 5.8 51.4 5.8 51.3 5.8 C 51.3 5.6 51.3 5.4 51.4 5.2 C 51.4 5 51.4 4.8 51.4 4.7 C 51.4 4.7 51.5 4.7 51.5 4.6 C 51.5 4.5 51.5 4.5 51.6 4.4 C 51.6 4.4 51.7 4.4 51.7 4.4 C 51.7 4.4 51.8 4.4 51.8 4.4 C 51.8 4.4 51.9 4.5 51.9 4.5 C 51.9 4.5 51.8 4.6 51.8 4.8 C 51.8 5 51.7 5.1 51.7 5.3 C 51.6 5.4 51.6 5.6 51.6 5.7 C 51.6 5.7 51.6 5.7 51.6 5.7 Z M 51.4 6.5 C 51.2 6.5 51.2 6.5 51.2 6.3 C 51.2 6.3 51.2 6.2 51.3 6.2 C 51.3 6.1 51.4 6.1 51.4 6.1 C 51.4 6.1 51.5 6.1 51.5 6.1 C 51.6 6.2 51.6 6.2 51.6 6.2 C 51.6 6.2 51.6 6.3 51.6 6.3 C 51.6 6.4 51.5 6.4 51.5 6.5 C 51.4 6.5 51.4 6.5 51.4 6.5 Z " stroke="none" fill="#000"/>  </g>  <g id="Polygon14369">    <path d="M 10.3 2.1 C 10.4 2.1 10.4 2 10.5 2 C 10.5 2 10.6 2.1 10.6 2.1 C 10.6 2.2 10.5 2.3 10.2 2.5 C 10 2.6 9.8 2.7 9.6 2.7 C 9.4 2.7 9.3 2.6 9.1 2.5 C 9 2.4 8.9 2.2 8.9 2 C 8.9 1.8 9 1.5 9.1 1.2 C 9.3 1 9.5 0.7 9.7 0.6 C 9.9 0.4 10.2 0.3 10.4 0.3 C 10.5 0.3 10.6 0.3 10.7 0.4 C 10.8 0.5 10.8 0.6 10.8 0.7 C 10.8 0.8 10.8 0.9 10.8 0.9 C 10.8 1 10.7 1 10.7 1.1 C 10.6 1.1 10.6 1.1 10.5 1.1 C 10.5 1.1 10.5 1.1 10.4 1.1 C 10.4 1.1 10.4 1 10.4 1 C 10.4 0.9 10.4 0.9 10.4 0.8 C 10.4 0.8 10.5 0.7 10.5 0.7 C 10.5 0.6 10.4 0.6 10.4 0.6 C 10.2 0.6 10.1 0.7 9.9 0.8 C 9.7 1 9.6 1.1 9.5 1.4 C 9.3 1.6 9.3 1.8 9.3 2 C 9.3 2.1 9.3 2.2 9.4 2.3 C 9.4 2.3 9.5 2.4 9.7 2.4 C 9.7 2.4 9.8 2.3 9.9 2.3 C 10.1 2.3 10.2 2.2 10.3 2.1 C 10.3 2.1 10.3 2.1 10.3 2.1 Z M 11.6 2.6 C 11.4 2.6 11.3 2.6 11.1 2.4 C 11 2.3 10.9 2.1 10.9 1.9 C 10.9 1.7 11 1.5 11.1 1.2 C 11.2 1 11.4 0.8 11.6 0.6 C 11.8 0.5 12 0.4 12.2 0.4 C 12.4 0.4 12.5 0.4 12.6 0.5 C 12.7 0.5 12.8 0.6 12.9 0.6 C 13 0.7 13 0.8 13.1 0.9 C 13.1 1 13.1 1.1 13.1 1.2 C 13.1 1.3 13.1 1.5 13 1.7 C 12.9 1.8 12.8 2 12.6 2.2 C 12.5 2.3 12.3 2.4 12.2 2.5 C 12 2.6 11.8 2.6 11.6 2.6 Z M 11.3 1.9 C 11.3 2 11.3 2.1 11.4 2.2 C 11.5 2.3 11.6 2.3 11.7 2.3 C 11.9 2.3 12.2 2.2 12.4 2 C 12.6 1.7 12.7 1.4 12.7 1.1 C 12.7 1.1 12.7 1 12.7 0.9 C 12.6 0.8 12.6 0.8 12.5 0.8 C 12.4 0.7 12.3 0.7 12.2 0.7 C 12 0.7 11.8 0.8 11.6 1.1 C 11.4 1.4 11.3 1.6 11.3 1.9 Z M 15.4 1 C 15.4 1 15.4 1 15.4 0.9 C 15.4 0.9 14.9 1.6 14.9 1.6 C 14.7 1.9 14.5 2.1 14.4 2.1 C 14.3 2.1 14.3 2 14.2 2 C 14.2 1.9 14.2 1.8 14.1 1.7 C 14.1 1.5 14 1.4 14 1.4 C 14 1.2 13.9 1.1 13.9 1.1 C 13.9 1.1 13.9 1.5 13.9 1.5 C 13.8 1.6 13.8 1.7 13.8 1.8 C 13.8 1.9 13.7 2 13.7 2.2 C 13.7 2.3 13.7 2.4 13.6 2.5 C 13.6 2.5 13.6 2.6 13.6 2.6 C 13.5 2.6 13.5 2.6 13.5 2.6 C 13.4 2.6 13.4 2.6 13.3 2.6 C 13.3 2.5 13.3 2.5 13.3 2.5 C 13.3 2.4 13.3 2.2 13.3 2.1 C 13.5 1.5 13.6 1.1 13.6 1 C 13.6 0.8 13.7 0.7 13.7 0.6 C 13.7 0.5 13.7 0.5 13.7 0.5 C 13.8 0.4 13.8 0.4 13.9 0.4 C 13.9 0.4 14 0.5 14 0.5 C 14.1 0.6 14.1 0.6 14.1 0.7 C 14.1 0.66 14.1 0.7 14.1 0.7 C 14.1 0.7 14.31 1.22 14.3 1.2 C 14.4 1.5 14.4 1.6 14.5 1.7 C 14.6 1.5 14.7 1.3 14.9 1.1 C 15.1 0.8 15.3 0.6 15.4 0.5 C 15.4 0.4 15.5 0.4 15.5 0.4 C 15.6 0.4 15.6 0.4 15.7 0.5 C 15.7 0.5 15.8 0.5 15.8 0.6 C 15.8 0.6 15.8 0.7 15.7 1 C 15.7 1.2 15.7 1.4 15.6 1.6 C 15.6 1.9 15.6 2 15.6 2.1 C 15.6 2.1 15.6 2.2 15.6 2.2 C 15.6 2.3 15.6 2.3 15.6 2.3 C 15.6 2.4 15.6 2.5 15.6 2.5 C 15.6 2.6 15.5 2.6 15.4 2.6 C 15.3 2.6 15.2 2.5 15.2 2.3 C 15.2 2.1 15.3 1.9 15.3 1.6 C 15.3 1.4 15.4 1.2 15.4 1 C 15.4 1 15.4 1 15.4 1 Z M 16.7 2.6 C 16.5 2.6 16.4 2.6 16.2 2.4 C 16.1 2.3 16.1 2.1 16.1 1.9 C 16.1 1.7 16.1 1.5 16.2 1.2 C 16.4 1 16.5 0.8 16.7 0.6 C 16.9 0.5 17.1 0.4 17.3 0.4 C 17.5 0.4 17.6 0.4 17.7 0.5 C 17.8 0.5 17.9 0.6 18 0.6 C 18.1 0.7 18.2 0.8 18.2 0.9 C 18.2 1 18.2 1.1 18.2 1.2 C 18.2 1.3 18.2 1.5 18.1 1.7 C 18 1.8 17.9 2 17.8 2.2 C 17.6 2.3 17.5 2.4 17.3 2.5 C 17.1 2.6 16.9 2.6 16.7 2.6 Z M 16.4 1.9 C 16.4 2 16.5 2.1 16.5 2.2 C 16.6 2.3 16.7 2.3 16.8 2.3 C 17 2.3 17.3 2.2 17.5 2 C 17.7 1.7 17.9 1.4 17.9 1.1 C 17.9 1.1 17.8 1 17.8 0.9 C 17.8 0.8 17.7 0.8 17.6 0.8 C 17.5 0.7 17.4 0.7 17.3 0.7 C 17.1 0.7 16.9 0.8 16.7 1.1 C 16.5 1.4 16.4 1.6 16.4 1.9 Z M 20.1 2.1 C 20 2.1 20 2.1 20 2.1 C 20 2.1 19.9 2.2 19.8 2.3 C 19.7 2.5 19.7 2.6 19.7 2.6 C 19.6 2.6 19.6 2.6 19.6 2.6 C 19.5 2.6 19.5 2.6 19.4 2.5 C 19.4 2.5 19.4 2.5 19.4 2.4 C 19.4 2.4 19.5 2.2 19.7 1.8 C 19.9 1.6 20 1.4 20.1 1.2 C 20.3 0.8 20.5 0.6 20.5 0.5 C 20.6 0.4 20.6 0.4 20.7 0.4 C 20.7 0.4 20.8 0.4 20.8 0.5 C 20.9 0.5 20.9 0.5 20.9 0.6 C 20.9 0.6 20.9 0.6 20.9 0.7 C 21 1.2 21.2 1.6 21.3 1.8 C 21.4 2 21.5 2.2 21.6 2.3 C 21.6 2.4 21.7 2.4 21.7 2.4 C 21.7 2.4 21.7 2.4 21.7 2.5 C 21.7 2.5 21.7 2.6 21.6 2.6 C 21.6 2.6 21.5 2.7 21.5 2.7 C 21.4 2.7 21.3 2.6 21.3 2.5 C 21.2 2.5 21.1 2.3 21 2.2 C 21 2 20.9 1.9 20.9 1.9 C 20.9 1.9 20.9 1.9 20.9 1.9 C 20.9 1.9 20.8 1.9 20.6 2 C 20.4 2 20.3 2.1 20.1 2.1 C 20.1 2.1 20.1 2.1 20.1 2.1 C 20.1 2.1 20.1 2.1 20.1 2.1 Z M 20.7 1.7 C 20.7 1.6 20.8 1.6 20.8 1.6 C 20.8 1.6 20.7 1.4 20.6 1 C 20.6 1 20.6 1 20.6 1 C 20.6 1 20.2 1.7 20.2 1.7 C 20.2 1.7 20.3 1.7 20.4 1.7 C 20.4 1.7 20.5 1.7 20.7 1.7 C 20.7 1.7 20.7 1.7 20.7 1.7 Z M 24.9 1.6 C 24.9 1.7 24.8 1.7 24.8 1.8 C 24.8 1.8 24.8 1.8 24.8 1.8 C 24.8 1.9 24.8 2 24.7 2.1 C 24.7 2.3 24.7 2.4 24.7 2.4 C 24.7 2.6 24.7 2.6 24.7 2.7 C 24.7 2.7 24.7 2.8 24.7 2.8 C 24.7 2.8 24.6 2.8 24.6 2.8 C 24.6 2.9 24.5 2.9 24.5 2.9 C 24.5 2.9 24.4 2.8 24.4 2.8 C 24.3 2.8 24.3 2.7 24.3 2.7 C 24.3 2.7 24.3 2.6 24.3 2.5 C 24.4 2.4 24.4 2.3 24.4 2.2 C 24.1 2.4 23.8 2.5 23.5 2.5 C 23.3 2.5 23.2 2.5 23.1 2.4 C 23 2.3 23 2.1 23 2 C 23 1.7 23 1.4 23.2 1.2 C 23.2 1.2 23.2 1.2 23.2 1.2 C 23.4 0.9 23.6 0.7 23.8 0.5 C 24.1 0.4 24.3 0.3 24.6 0.3 C 24.7 0.3 24.8 0.3 24.9 0.4 C 24.9 0.4 25 0.5 25 0.6 C 25 0.6 25 0.7 24.9 0.7 C 24.9 0.8 24.8 0.9 24.8 0.9 C 24.7 0.9 24.7 0.9 24.7 0.8 C 24.7 0.8 24.6 0.8 24.6 0.8 C 24.6 0.7 24.6 0.7 24.6 0.7 C 24.5 0.6 24.5 0.6 24.5 0.6 C 24.3 0.6 24.1 0.7 24 0.9 C 23.8 1 23.6 1.2 23.5 1.4 C 23.4 1.6 23.3 1.8 23.3 1.9 C 23.3 2.1 23.4 2.2 23.6 2.2 C 23.6 2.2 23.7 2.2 23.9 2.2 C 24 2.1 24.1 2.1 24.2 2 C 24.4 1.9 24.5 1.8 24.5 1.7 C 24.5 1.6 24.5 1.5 24.5 1.5 C 24.5 1.4 24.6 1.4 24.6 1.3 C 24.6 1.3 24.7 1.3 24.7 1.3 C 24.9 1.3 24.9 1.4 24.9 1.4 C 24.9 1.5 24.9 1.5 24.9 1.6 C 24.9 1.6 24.9 1.6 24.9 1.6 Z M 26.9 0.7 C 26.9 0.7 26.5 0.8 26.5 0.8 C 26.3 0.8 26.2 0.8 26.1 0.8 C 26 0.8 25.9 0.8 25.9 0.8 C 25.9 0.9 25.9 0.9 25.9 0.9 C 25.9 1 25.9 1.1 25.8 1.2 C 25.8 1.3 25.8 1.4 25.8 1.4 C 25.8 1.4 25.9 1.4 26 1.4 C 26.2 1.4 26.2 1.4 26.3 1.4 C 26.4 1.3 26.5 1.3 26.6 1.3 C 26.8 1.3 26.9 1.4 26.9 1.5 C 26.9 1.5 26.8 1.6 26.8 1.6 C 26.7 1.6 26.7 1.6 26.6 1.6 C 26.5 1.6 26.5 1.7 26.4 1.7 C 26.4 1.7 26.3 1.7 26.3 1.7 C 26 1.7 25.8 1.7 25.8 1.8 C 25.8 1.8 25.8 1.8 25.8 1.8 C 25.8 1.8 25.7 1.8 25.7 1.8 C 25.7 1.8 25.7 1.9 25.7 2 C 25.7 2.1 25.7 2.2 25.7 2.3 C 25.7 2.3 25.7 2.3 25.7 2.3 C 25.8 2.3 25.9 2.3 26.1 2.3 C 26.3 2.3 26.4 2.3 26.5 2.2 C 26.6 2.2 26.7 2.2 26.7 2.2 C 26.9 2.2 26.9 2.3 26.9 2.4 C 26.9 2.4 26.9 2.5 26.9 2.5 C 26.8 2.5 26.6 2.5 26.5 2.6 C 26.3 2.6 26.2 2.6 26 2.6 C 25.8 2.6 25.7 2.7 25.5 2.7 C 25.4 2.7 25.4 2.6 25.3 2.6 C 25.3 2.6 25.3 2.5 25.3 2.5 C 25.3 2.5 25.3 2.4 25.3 2.4 C 25.3 2.4 25.3 2.4 25.3 2.3 C 25.3 2.2 25.4 1.9 25.4 1.5 C 25.5 1.1 25.5 0.9 25.5 0.8 C 25.5 0.8 25.5 0.8 25.5 0.8 C 25.5 0.8 25.5 0.8 25.5 0.8 C 25.5 0.7 25.4 0.7 25.4 0.7 C 25.4 0.6 25.5 0.6 25.5 0.6 C 25.5 0.6 25.5 0.6 25.5 0.6 C 25.6 0.5 25.6 0.5 25.6 0.5 C 25.7 0.5 25.7 0.5 25.8 0.5 C 25.8 0.5 26.1 0.5 26.6 0.4 C 26.7 0.4 26.8 0.4 26.8 0.4 C 26.8 0.4 26.8 0.4 26.8 0.4 C 27 0.4 27.1 0.5 27.1 0.6 C 27.1 0.6 27.1 0.6 27 0.7 C 27 0.7 27 0.7 26.9 0.7 Z M 27.3 2.1 C 27.3 2.1 27.41 1.57 27.4 1.6 C 27.5 1.2 27.5 0.9 27.5 0.8 C 27.5 0.7 27.5 0.6 27.6 0.6 C 27.6 0.6 27.6 0.6 27.6 0.5 C 27.7 0.5 27.7 0.5 27.7 0.5 C 27.8 0.5 27.8 0.5 27.9 0.5 C 27.9 0.5 27.9 0.6 28 0.7 C 28 0.9 28.1 1.1 28.3 1.4 C 28.4 1.7 28.6 1.9 28.7 2.1 C 28.8 1.9 28.8 1.7 28.9 1.4 C 28.9 1.2 28.9 1 28.9 0.9 C 29 0.8 29 0.7 29 0.6 C 29 0.5 29 0.4 29.1 0.4 C 29.1 0.4 29.2 0.4 29.2 0.4 C 29.2 0.4 29.3 0.4 29.3 0.4 C 29.3 0.5 29.3 0.5 29.3 0.6 C 29.3 0.7 29.3 0.7 29.3 0.8 C 29.2 1.1 29.2 1.3 29.1 1.7 C 29.1 2 29 2.2 29 2.3 C 29 2.3 29 2.3 29 2.3 C 29 2.4 29 2.4 29 2.5 C 29 2.5 29 2.5 28.9 2.6 C 28.9 2.6 28.9 2.6 28.8 2.6 C 28.8 2.6 28.7 2.6 28.7 2.6 C 28.7 2.6 28.7 2.6 28.7 2.5 C 28.6 2.5 28.6 2.4 28.6 2.4 C 28.5 2.3 28.5 2.3 28.5 2.2 C 28.2 1.9 28 1.6 27.8 1.2 C 27.8 1.3 27.7 1.6 27.7 2 C 27.7 2 27.6 2.2 27.6 2.2 C 27.6 2.2 27.6 2.3 27.6 2.4 C 27.6 2.5 27.6 2.5 27.5 2.6 C 27.5 2.6 27.5 2.7 27.4 2.7 C 27.4 2.7 27.3 2.6 27.3 2.6 C 27.3 2.6 27.2 2.5 27.2 2.4 C 27.2 2.3 27.3 2.2 27.3 2.1 C 27.3 2.08 27.3 2.1 27.3 2.1 Z M 31.2 0.8 C 31 0.8 30.8 0.8 30.7 0.8 C 30.7 0.8 30.7 0.8 30.7 0.9 C 30.7 0.9 30.7 1.1 30.6 1.4 C 30.6 1.7 30.6 1.9 30.6 2.1 C 30.6 2.2 30.6 2.3 30.6 2.3 C 30.6 2.4 30.6 2.4 30.6 2.4 C 30.6 2.4 30.6 2.5 30.6 2.5 C 30.5 2.6 30.5 2.6 30.5 2.6 C 30.4 2.6 30.4 2.6 30.3 2.6 C 30.3 2.5 30.3 2.5 30.3 2.4 C 30.2 2.3 30.2 2.2 30.2 2.1 C 30.2 1.9 30.3 1.7 30.3 1.3 C 30.3 1 30.4 0.9 30.4 0.8 C 30.3 0.8 30.2 0.9 30 0.9 C 29.8 0.9 29.7 0.9 29.7 0.9 C 29.6 0.9 29.5 0.9 29.5 0.8 C 29.5 0.8 29.4 0.8 29.4 0.7 C 29.4 0.7 29.5 0.6 29.5 0.6 C 29.5 0.6 29.6 0.6 29.8 0.6 C 30.1 0.6 30.4 0.6 30.6 0.5 C 30.9 0.5 31.2 0.4 31.3 0.4 C 31.5 0.4 31.6 0.5 31.7 0.5 C 31.7 0.6 31.7 0.6 31.7 0.6 C 31.7 0.7 31.7 0.8 31.6 0.8 C 31.6 0.8 31.5 0.8 31.5 0.8 C 31.4 0.8 31.3 0.8 31.2 0.8 C 31.2 0.8 31.2 0.8 31.2 0.8 Z M 33.2 0.7 C 33.2 0.7 32.8 0.8 32.8 0.8 C 32.6 0.8 32.5 0.8 32.4 0.8 C 32.3 0.8 32.2 0.8 32.2 0.8 C 32.2 0.9 32.2 0.9 32.2 0.9 C 32.2 1 32.1 1.1 32.1 1.2 C 32.1 1.3 32.1 1.4 32.1 1.4 C 32.1 1.4 32.2 1.4 32.3 1.4 C 32.5 1.4 32.5 1.4 32.6 1.4 C 32.7 1.3 32.8 1.3 32.9 1.3 C 33.1 1.3 33.1 1.4 33.1 1.5 C 33.1 1.5 33.1 1.6 33.1 1.6 C 33 1.6 33 1.6 32.9 1.6 C 32.8 1.6 32.8 1.7 32.7 1.7 C 32.7 1.7 32.6 1.7 32.6 1.7 C 32.3 1.7 32.1 1.7 32.1 1.8 C 32.1 1.8 32.1 1.8 32.1 1.8 C 32.1 1.8 32 1.8 32 1.8 C 32 1.8 32 1.9 32 2 C 32 2.1 32 2.2 32 2.3 C 32 2.3 32 2.3 32 2.3 C 32.1 2.3 32.2 2.3 32.4 2.3 C 32.6 2.3 32.7 2.3 32.8 2.2 C 32.9 2.2 33 2.2 33 2.2 C 33.2 2.2 33.2 2.3 33.2 2.4 C 33.2 2.4 33.2 2.5 33.2 2.5 C 33.1 2.5 32.9 2.5 32.8 2.6 C 32.6 2.6 32.5 2.6 32.3 2.6 C 32.1 2.6 31.9 2.7 31.8 2.7 C 31.7 2.7 31.7 2.6 31.6 2.6 C 31.6 2.6 31.6 2.5 31.6 2.5 C 31.6 2.5 31.6 2.4 31.6 2.4 C 31.6 2.4 31.6 2.4 31.6 2.3 C 31.6 2.2 31.7 1.9 31.7 1.5 C 31.8 1.1 31.8 0.9 31.8 0.8 C 31.8 0.8 31.8 0.8 31.8 0.8 C 31.8 0.8 31.8 0.8 31.8 0.8 C 31.8 0.7 31.7 0.7 31.7 0.7 C 31.7 0.6 31.7 0.6 31.7 0.6 C 31.8 0.6 31.8 0.6 31.8 0.6 C 31.9 0.5 31.9 0.5 31.9 0.5 C 32 0.5 32 0.5 32.1 0.5 C 32.1 0.5 32.4 0.5 32.8 0.4 C 33 0.4 33.1 0.4 33.1 0.4 C 33.1 0.4 33.1 0.4 33.1 0.4 C 33.3 0.4 33.4 0.5 33.4 0.6 C 33.4 0.6 33.4 0.6 33.3 0.7 C 33.3 0.7 33.3 0.7 33.2 0.7 Z M 35.4 1.8 C 35.2 1.9 35.2 1.9 35.2 1.9 C 35.1 2.1 35.1 2.3 35.1 2.4 C 35.1 2.5 35.1 2.5 35.1 2.6 C 35 2.6 35 2.6 34.9 2.6 C 34.8 2.6 34.8 2.6 34.8 2.4 C 34.8 2.4 34.8 2.1 34.8 1.6 C 34.9 1.3 34.9 1.1 34.9 1 C 34.9 0.9 34.9 0.9 34.9 0.9 C 34.8 0.8 34.8 0.8 34.8 0.7 C 34.8 0.6 34.9 0.5 35.2 0.5 C 35.5 0.4 35.7 0.4 35.9 0.4 C 36.1 0.4 36.3 0.4 36.4 0.5 C 36.5 0.6 36.6 0.7 36.6 0.9 C 36.6 1.1 36.5 1.3 36.2 1.5 C 36 1.6 35.7 1.8 35.4 1.8 C 35.4 1.8 35.4 1.8 35.4 1.8 Z M 35.9 0.7 C 35.7 0.7 35.5 0.7 35.3 0.8 C 35.3 0.8 35.2 1.6 35.2 1.6 C 35.5 1.5 35.7 1.4 35.9 1.3 C 36.1 1.2 36.3 1.1 36.3 0.9 C 36.3 0.8 36.1 0.7 35.9 0.7 C 35.9 0.7 35.9 0.7 35.9 0.7 Z M 37.3 2.6 C 37.1 2.6 37 2.6 36.9 2.4 C 36.7 2.3 36.7 2.1 36.7 1.9 C 36.7 1.7 36.7 1.5 36.9 1.2 C 37 1 37.1 0.8 37.3 0.6 C 37.5 0.5 37.7 0.4 37.9 0.4 C 38.1 0.4 38.2 0.4 38.3 0.5 C 38.5 0.5 38.5 0.6 38.6 0.6 C 38.7 0.7 38.8 0.8 38.8 0.9 C 38.8 1 38.9 1.1 38.9 1.2 C 38.9 1.3 38.8 1.5 38.7 1.7 C 38.7 1.8 38.5 2 38.4 2.2 C 38.2 2.3 38.1 2.4 37.9 2.5 C 37.8 2.6 37.6 2.6 37.3 2.6 Z M 37.1 1.9 C 37.1 2 37.1 2.1 37.2 2.2 C 37.2 2.3 37.3 2.3 37.4 2.3 C 37.7 2.3 37.9 2.2 38.1 2 C 38.4 1.7 38.5 1.4 38.5 1.1 C 38.5 1.1 38.5 1 38.4 0.9 C 38.4 0.8 38.3 0.8 38.2 0.8 C 38.1 0.7 38 0.7 37.9 0.7 C 37.8 0.7 37.6 0.8 37.4 1.1 C 37.2 1.4 37.1 1.6 37.1 1.9 Z M 39.2 2.3 C 39.2 2.3 39.2 2.2 39.2 2.1 C 39.2 1.7 39.2 1.4 39.3 1 C 39.3 0.9 39.3 0.9 39.3 0.8 C 39.3 0.8 39.3 0.8 39.3 0.8 C 39.2 0.8 39.2 0.7 39.2 0.6 C 39.2 0.6 39.2 0.6 39.2 0.5 C 39.3 0.5 39.3 0.4 39.4 0.4 C 39.4 0.4 39.6 0.5 39.6 0.5 C 39.6 0.5 39.8 0.4 39.9 0.4 C 40.1 0.4 40.2 0.4 40.3 0.4 C 40.5 0.4 40.7 0.5 40.9 0.6 C 41.1 0.8 41.2 1 41.2 1.3 C 41.2 1.5 41 1.8 40.8 2 C 40.5 2.2 40.2 2.4 39.8 2.5 C 39.7 2.5 39.7 2.5 39.6 2.5 C 39.6 2.6 39.5 2.6 39.5 2.6 C 39.4 2.7 39.4 2.7 39.3 2.7 C 39.2 2.7 39.2 2.7 39.2 2.6 C 39.1 2.6 39.1 2.5 39.1 2.5 C 39.1 2.5 39.1 2.4 39.1 2.4 C 39.1 2.4 39.2 2.3 39.2 2.3 Z M 39.5 2.1 C 39.5 2.2 39.5 2.2 39.5 2.2 C 39.6 2.2 39.7 2.2 40 2.1 C 40.2 2.1 40.4 1.9 40.6 1.8 C 40.7 1.6 40.8 1.4 40.8 1.2 C 40.8 1.1 40.8 0.9 40.6 0.9 C 40.5 0.8 40.4 0.7 40.2 0.7 C 40.1 0.7 39.9 0.7 39.7 0.7 C 39.7 0.8 39.7 0.8 39.7 0.8 C 39.6 1.4 39.5 1.9 39.5 2.1 C 39.5 2.1 39.5 2.1 39.5 2.1 Z M 43.1 0.7 C 43.1 0.7 42.6 0.8 42.6 0.8 C 42.5 0.8 42.3 0.8 42.2 0.8 C 42.1 0.8 42 0.8 42 0.8 C 42 0.9 42 0.9 42 0.9 C 42 1 42 1.1 42 1.2 C 41.9 1.3 41.9 1.4 41.9 1.4 C 42 1.4 42.1 1.4 42.2 1.4 C 42.3 1.4 42.4 1.4 42.4 1.4 C 42.6 1.3 42.7 1.3 42.8 1.3 C 42.9 1.3 43 1.4 43 1.5 C 43 1.5 43 1.6 42.9 1.6 C 42.9 1.6 42.8 1.6 42.7 1.6 C 42.7 1.6 42.6 1.7 42.5 1.7 C 42.5 1.7 42.4 1.7 42.4 1.7 C 42.1 1.7 42 1.7 41.9 1.8 C 41.9 1.8 41.9 1.8 41.9 1.8 C 41.9 1.8 41.9 1.8 41.9 1.8 C 41.9 1.8 41.9 1.9 41.8 2 C 41.8 2.1 41.8 2.2 41.8 2.3 C 41.8 2.3 41.8 2.3 41.9 2.3 C 41.9 2.3 42 2.3 42.2 2.3 C 42.4 2.3 42.6 2.3 42.6 2.2 C 42.7 2.2 42.8 2.2 42.9 2.2 C 43 2.2 43.1 2.3 43.1 2.4 C 43.1 2.4 43 2.5 43 2.5 C 42.9 2.5 42.8 2.5 42.6 2.6 C 42.5 2.6 42.3 2.6 42.1 2.6 C 41.9 2.6 41.8 2.7 41.6 2.7 C 41.6 2.7 41.5 2.6 41.5 2.6 C 41.4 2.6 41.4 2.5 41.4 2.5 C 41.4 2.5 41.4 2.4 41.4 2.4 C 41.4 2.4 41.4 2.4 41.4 2.3 C 41.5 2.2 41.5 1.9 41.6 1.5 C 41.6 1.1 41.7 0.9 41.7 0.8 C 41.7 0.8 41.7 0.8 41.6 0.8 C 41.6 0.8 41.6 0.8 41.6 0.8 C 41.6 0.7 41.6 0.7 41.6 0.7 C 41.6 0.6 41.6 0.6 41.6 0.6 C 41.6 0.6 41.6 0.6 41.7 0.6 C 41.7 0.5 41.7 0.5 41.8 0.5 C 41.8 0.5 41.9 0.5 41.9 0.5 C 42 0.5 42.2 0.5 42.7 0.4 C 42.8 0.4 42.9 0.4 42.9 0.4 C 42.9 0.4 42.9 0.4 42.9 0.4 C 43.1 0.4 43.2 0.5 43.2 0.6 C 43.2 0.6 43.2 0.6 43.2 0.7 C 43.1 0.7 43.1 0.7 43.1 0.7 Z " stroke="none" fill="#000"/>  </g></svg>