<?xml version="1.0" standalone="no"?><!DOCTYPE svg PUBLIC "-//W3C//DTD SVG 1.1//EN" "http://www.w3.org/Graphics/SVG/1.1/DTD/svg11.dtd"><svg xmlns="http://www.w3.org/2000/svg" version="1.1" width="70.1px" height="27.4px" viewBox="0 0 70.1 27.4">  <desc>COM O VOTO DISTRITAL O CONGRESSO NACIONAL VOLTAR A SER O GUARDI O DE NOSSA LIBERDADE DE EXPRESS O. SAIBA MAIS</desc>  <defs/>  <g id="Polygon15758">    <path d="M 23.7 18.3 C 23.7 18.5 23.6 18.7 23.3 18.7 C 23.3 18.5 23.3 18.4 23.2 18.3 C 23.1 18.3 23 18.3 22.8 18.3 C 22.6 18.3 22.3 18.3 22.1 18.4 C 21.9 18.6 21.8 18.7 21.8 18.9 C 21.8 19 21.8 19 21.9 19.1 C 22 19.2 22.2 19.3 22.6 19.3 C 22.9 19.5 23.2 19.6 23.4 19.7 C 23.5 19.8 23.6 20 23.6 20.1 C 23.6 20.4 23.4 20.7 23 20.9 C 22.5 21.2 22.1 21.3 21.6 21.3 C 21.4 21.3 21.3 21.3 21.2 21.2 C 21.1 21.1 21.1 21.1 21.1 21 C 21.1 20.9 21.1 20.8 21.1 20.8 C 21.2 20.7 21.2 20.7 21.3 20.7 C 21.3 20.7 21.3 20.7 21.4 20.7 C 21.5 20.7 21.7 20.8 21.8 20.8 C 22.1 20.8 22.3 20.7 22.6 20.6 C 22.9 20.4 23.1 20.3 23.1 20.2 C 23.1 20.1 23 20.1 22.9 20 C 22.9 20 22.7 19.9 22.5 19.9 C 22.2 19.7 21.9 19.7 21.8 19.6 C 21.6 19.5 21.5 19.4 21.4 19.3 C 21.3 19.2 21.3 19.1 21.3 18.9 C 21.3 18.6 21.4 18.4 21.7 18.1 C 22.1 17.9 22.5 17.8 22.9 17.8 C 23.2 17.8 23.4 17.8 23.5 17.9 C 23.7 18 23.7 18.1 23.7 18.3 C 23.7 18.3 23.7 18.3 23.7 18.3 Z M 24.8 20.4 C 24.7 20.4 24.7 20.4 24.7 20.4 C 24.6 20.4 24.6 20.6 24.4 20.8 C 24.3 21 24.2 21.1 24.2 21.1 C 24.1 21.2 24.1 21.2 24 21.2 C 24 21.2 23.9 21.1 23.8 21.1 C 23.7 21 23.7 21 23.7 20.9 C 23.7 20.8 23.9 20.5 24.3 20 C 24.5 19.6 24.7 19.3 24.8 19 C 25.2 18.4 25.4 18 25.5 17.9 C 25.5 17.8 25.6 17.8 25.7 17.8 C 25.8 17.8 25.9 17.8 26 17.9 C 26 17.9 26 17.9 26 18 C 26 18.1 26 18.1 26 18.2 C 26.3 19 26.5 19.6 26.6 20 C 26.8 20.3 27 20.6 27.1 20.7 C 27.2 20.8 27.2 20.8 27.3 20.9 C 27.3 20.9 27.3 20.9 27.3 21 C 27.3 21.1 27.3 21.1 27.2 21.2 C 27.1 21.2 27.1 21.3 27 21.3 C 26.9 21.3 26.8 21.2 26.6 21.1 C 26.5 20.9 26.4 20.8 26.3 20.5 C 26.2 20.3 26.1 20.2 26.1 20.1 C 26.1 20.1 26.1 20.1 26.1 20.1 C 26.1 20.1 25.9 20.2 25.6 20.2 C 25.3 20.3 25.1 20.3 24.9 20.4 C 24.9 20.4 24.8 20.4 24.8 20.4 C 24.8 20.4 24.8 20.4 24.8 20.4 Z M 25.8 19.7 C 25.8 19.7 25.9 19.7 26 19.7 C 25.9 19.6 25.8 19.3 25.6 18.7 C 25.6 18.7 25.6 18.6 25.6 18.6 C 25.6 18.6 25 19.8 25 19.8 C 25.1 19.8 25.2 19.8 25.3 19.8 C 25.3 19.8 25.5 19.8 25.8 19.7 C 25.8 19.7 25.8 19.7 25.8 19.7 Z M 28.4 18.8 C 28.3 19 28.3 19.1 28.3 19.2 C 28.3 19.2 28.3 19.3 28.3 19.5 C 28.2 19.8 28.2 20.1 28.2 20.2 C 28.2 20.4 28.2 20.6 28.2 20.8 C 28.2 20.9 28.2 21 28.1 21.1 C 28.1 21.1 28 21.2 27.9 21.2 C 27.8 21.2 27.7 21.1 27.7 21 C 27.6 20.9 27.6 20.8 27.6 20.5 C 27.6 20.4 27.6 20.1 27.7 19.5 C 27.7 19.5 27.8 18.6 27.8 18.6 C 27.9 18.5 27.9 18.4 27.9 18.3 C 27.9 18.1 27.9 18 28 18 C 28 17.9 28 17.9 28.1 17.9 C 28.2 17.8 28.2 17.8 28.3 17.8 C 28.3 17.8 28.4 17.8 28.5 17.9 C 28.5 18 28.5 18.1 28.5 18.2 C 28.5 18.2 28.4 18.8 28.4 18.8 Z M 31.1 19.3 C 31.4 19.3 31.5 19.5 31.6 19.6 C 31.7 19.7 31.8 19.9 31.8 20 C 31.8 20.3 31.6 20.6 31.2 20.9 C 30.8 21.2 30.4 21.4 30 21.4 C 29.8 21.4 29.7 21.3 29.7 21.2 C 29.7 20.9 29.9 20.8 30.2 20.8 C 30.2 20.8 30.3 20.8 30.3 20.8 C 30.4 20.8 30.6 20.7 30.8 20.6 C 31.1 20.4 31.2 20.2 31.2 20 C 31.2 19.9 31.1 19.8 31 19.8 C 31 19.7 30.8 19.6 30.7 19.6 C 30.7 19.6 30.6 19.6 30.5 19.7 C 30.4 19.7 30.3 19.8 30.3 19.8 C 30.1 19.8 30 19.7 30 19.7 C 29.9 19.7 29.9 19.6 29.9 19.5 C 29.9 19.4 30.1 19.3 30.4 19.2 C 30.6 19.1 30.7 19 30.9 18.8 C 31.1 18.7 31.2 18.5 31.2 18.4 C 31.2 18.3 31.1 18.2 30.8 18.2 C 30.6 18.2 30.4 18.2 30.2 18.3 C 30 18.3 29.9 18.4 29.9 18.4 C 29.9 18.5 29.8 18.8 29.7 19.5 C 29.7 20.1 29.6 20.5 29.6 20.5 C 29.6 20.5 29.6 20.9 29.6 20.9 C 29.6 21 29.5 21.1 29.5 21.1 C 29.4 21.2 29.4 21.2 29.3 21.2 C 29.1 21.2 29 21.1 29 20.8 C 29 20.8 29 20.7 29 20.6 C 29.1 20.3 29.2 20 29.2 19.5 C 29.3 19 29.3 18.7 29.3 18.7 C 29.3 18.6 29.3 18.6 29.3 18.6 C 29.3 18.6 29.2 18.6 29.2 18.6 C 29.2 18.6 29.1 18.6 29.1 18.5 C 29 18.5 29 18.5 29 18.4 C 29 18.4 29 18.4 29 18.4 C 29 18.2 29.2 18.1 29.6 17.9 C 30 17.8 30.5 17.7 30.9 17.7 C 31.2 17.7 31.4 17.8 31.5 17.9 C 31.7 18.1 31.8 18.2 31.8 18.4 C 31.8 18.5 31.7 18.6 31.6 18.8 C 31.5 18.9 31.3 19.1 31.1 19.3 Z M 32.9 20.4 C 32.9 20.4 32.8 20.4 32.8 20.4 C 32.8 20.4 32.7 20.6 32.6 20.8 C 32.4 21 32.4 21.1 32.3 21.1 C 32.2 21.2 32.2 21.2 32.2 21.2 C 32.1 21.2 32 21.1 32 21.1 C 31.9 21 31.9 21 31.9 20.9 C 31.9 20.8 32 20.5 32.4 20 C 32.6 19.6 32.8 19.3 33 19 C 33.3 18.4 33.5 18 33.6 17.9 C 33.7 17.8 33.8 17.8 33.8 17.8 C 34 17.8 34.1 17.8 34.1 17.9 C 34.2 17.9 34.2 17.9 34.2 18 C 34.2 18.1 34.2 18.1 34.1 18.2 C 34.4 19 34.6 19.6 34.8 20 C 35 20.3 35.1 20.6 35.3 20.7 C 35.3 20.8 35.4 20.8 35.4 20.9 C 35.4 20.9 35.4 20.9 35.4 21 C 35.4 21.1 35.4 21.1 35.3 21.2 C 35.3 21.2 35.2 21.3 35.1 21.3 C 35 21.3 34.9 21.2 34.8 21.1 C 34.7 20.9 34.6 20.8 34.4 20.5 C 34.3 20.3 34.3 20.2 34.3 20.1 C 34.3 20.1 34.3 20.1 34.3 20.1 C 34.2 20.1 34 20.2 33.7 20.2 C 33.5 20.3 33.2 20.3 33.1 20.4 C 33 20.4 33 20.4 32.9 20.4 C 32.9 20.4 32.9 20.4 32.9 20.4 Z M 33.9 19.7 C 34 19.7 34 19.7 34.1 19.7 C 34.1 19.6 34 19.3 33.8 18.7 C 33.8 18.7 33.8 18.6 33.8 18.6 C 33.8 18.6 33.1 19.8 33.1 19.8 C 33.2 19.8 33.3 19.8 33.4 19.8 C 33.5 19.8 33.6 19.8 33.9 19.7 C 33.9 19.7 33.9 19.7 33.9 19.7 Z M 40.6 18.8 C 40.6 18.7 40.6 18.6 40.6 18.6 C 40.6 18.6 39.9 19.6 39.9 19.6 C 39.5 20.1 39.3 20.3 39.1 20.3 C 39 20.3 38.9 20.3 38.9 20.2 C 38.8 20.1 38.7 19.9 38.6 19.7 C 38.6 19.5 38.5 19.4 38.5 19.3 C 38.4 19 38.4 18.9 38.4 18.9 C 38.4 18.9 38.3 19.4 38.3 19.4 C 38.2 19.6 38.2 19.8 38.1 20 C 38.1 20.1 38.1 20.3 38 20.5 C 38 20.8 37.9 20.9 37.9 21 C 37.9 21.1 37.9 21.1 37.8 21.2 C 37.8 21.2 37.7 21.2 37.7 21.2 C 37.6 21.2 37.5 21.2 37.5 21.1 C 37.4 21.1 37.4 21 37.4 20.9 C 37.4 20.8 37.4 20.6 37.5 20.4 C 37.7 19.5 37.9 18.9 37.9 18.7 C 37.9 18.4 37.9 18.2 37.9 18.1 C 37.9 18 38 17.9 38.1 17.9 C 38.1 17.8 38.2 17.8 38.3 17.8 C 38.4 17.8 38.5 17.9 38.5 17.9 C 38.6 18 38.6 18.1 38.6 18.2 C 38.64 18.17 38.6 18.2 38.6 18.2 C 38.6 18.2 38.95 19.04 38.9 19 C 39.1 19.4 39.2 19.6 39.2 19.7 C 39.4 19.5 39.6 19.2 39.9 18.8 C 40.2 18.4 40.5 18.1 40.6 18 C 40.7 17.8 40.8 17.8 40.8 17.8 C 40.9 17.8 41 17.8 41.1 17.9 C 41.2 17.9 41.2 18 41.2 18 C 41.2 18 41.2 18.3 41.1 18.7 C 41.1 19 41 19.3 41 19.7 C 41 20.1 41 20.3 41 20.3 C 41 20.4 41 20.5 41 20.6 C 41 20.7 41 20.7 41 20.8 C 41 20.9 41 21 40.9 21.1 C 40.9 21.1 40.8 21.2 40.7 21.2 C 40.5 21.2 40.4 21 40.4 20.7 C 40.4 20.4 40.4 20.1 40.5 19.7 C 40.5 19.3 40.6 19 40.6 18.8 C 40.6 18.8 40.6 18.8 40.6 18.8 Z M 42.5 20.4 C 42.4 20.4 42.4 20.4 42.3 20.4 C 42.3 20.4 42.2 20.6 42.1 20.8 C 42 21 41.9 21.1 41.8 21.1 C 41.8 21.2 41.7 21.2 41.7 21.2 C 41.6 21.2 41.6 21.1 41.5 21.1 C 41.4 21 41.4 21 41.4 20.9 C 41.4 20.8 41.6 20.5 41.9 20 C 42.1 19.6 42.3 19.3 42.5 19 C 42.8 18.4 43.1 18 43.1 17.9 C 43.2 17.8 43.3 17.8 43.4 17.8 C 43.5 17.8 43.6 17.8 43.6 17.9 C 43.7 17.9 43.7 17.9 43.7 18 C 43.7 18.1 43.7 18.1 43.7 18.2 C 43.9 19 44.2 19.6 44.3 20 C 44.5 20.3 44.6 20.6 44.8 20.7 C 44.9 20.8 44.9 20.8 44.9 20.9 C 44.9 20.9 45 20.9 45 21 C 45 21.1 44.9 21.1 44.9 21.2 C 44.8 21.2 44.7 21.3 44.6 21.3 C 44.5 21.3 44.4 21.2 44.3 21.1 C 44.2 20.9 44.1 20.8 44 20.5 C 43.9 20.3 43.8 20.2 43.8 20.1 C 43.8 20.1 43.8 20.1 43.8 20.1 C 43.7 20.1 43.5 20.2 43.3 20.2 C 43 20.3 42.7 20.3 42.6 20.4 C 42.5 20.4 42.5 20.4 42.5 20.4 C 42.5 20.4 42.5 20.4 42.5 20.4 Z M 43.4 19.7 C 43.5 19.7 43.6 19.7 43.6 19.7 C 43.6 19.6 43.5 19.3 43.3 18.7 C 43.3 18.7 43.3 18.6 43.3 18.6 C 43.3 18.6 42.6 19.8 42.6 19.8 C 42.7 19.8 42.8 19.8 42.9 19.8 C 43 19.8 43.2 19.8 43.4 19.7 C 43.4 19.7 43.4 19.7 43.4 19.7 Z M 46 18.8 C 46 19 46 19.1 46 19.2 C 46 19.2 45.9 19.3 45.9 19.5 C 45.9 19.8 45.8 20.1 45.8 20.2 C 45.8 20.4 45.9 20.6 45.9 20.8 C 45.9 20.9 45.9 21 45.8 21.1 C 45.7 21.1 45.6 21.2 45.6 21.2 C 45.5 21.2 45.4 21.1 45.3 21 C 45.3 20.9 45.3 20.8 45.3 20.5 C 45.3 20.4 45.3 20.1 45.4 19.5 C 45.4 19.5 45.5 18.6 45.5 18.6 C 45.5 18.5 45.5 18.4 45.6 18.3 C 45.6 18.1 45.6 18 45.6 18 C 45.7 17.9 45.7 17.9 45.8 17.9 C 45.8 17.8 45.9 17.8 45.9 17.8 C 46 17.8 46.1 17.8 46.1 17.9 C 46.2 18 46.2 18.1 46.2 18.2 C 46.2 18.2 46 18.8 46 18.8 Z M 49.1 18.3 C 49.1 18.5 49 18.7 48.7 18.7 C 48.7 18.5 48.6 18.4 48.5 18.3 C 48.5 18.3 48.4 18.3 48.2 18.3 C 48 18.3 47.7 18.3 47.5 18.4 C 47.3 18.6 47.2 18.7 47.2 18.9 C 47.2 19 47.2 19 47.3 19.1 C 47.4 19.2 47.6 19.3 47.9 19.3 C 48.3 19.5 48.6 19.6 48.7 19.7 C 48.9 19.8 49 20 49 20.1 C 49 20.4 48.8 20.7 48.3 20.9 C 47.9 21.2 47.4 21.3 46.9 21.3 C 46.8 21.3 46.7 21.3 46.6 21.2 C 46.5 21.1 46.4 21.1 46.4 21 C 46.4 20.9 46.5 20.8 46.5 20.8 C 46.5 20.7 46.6 20.7 46.6 20.7 C 46.7 20.7 46.7 20.7 46.7 20.7 C 46.9 20.7 47.1 20.8 47.2 20.8 C 47.4 20.8 47.7 20.7 48 20.6 C 48.3 20.4 48.4 20.3 48.4 20.2 C 48.4 20.1 48.4 20.1 48.3 20 C 48.2 20 48.1 19.9 47.9 19.9 C 47.5 19.7 47.3 19.7 47.1 19.6 C 47 19.5 46.8 19.4 46.8 19.3 C 46.7 19.2 46.6 19.1 46.6 18.9 C 46.6 18.6 46.8 18.4 47.1 18.1 C 47.4 17.9 47.8 17.8 48.3 17.8 C 48.5 17.8 48.7 17.8 48.9 17.9 C 49 18 49.1 18.1 49.1 18.3 C 49.1 18.3 49.1 18.3 49.1 18.3 Z " stroke="none" fill="#000"/>  </g>  <g id="Polygon15757">    <path d="M 11.9 13.3 C 12 13.1 12 12.8 12.1 12.5 C 12.1 12.2 12.2 12 12.2 11.9 C 12.2 11.8 12.2 11.8 12.2 11.7 C 12.2 11.7 12.2 11.7 12.2 11.7 C 12.3 11.7 12.3 11.7 12.3 11.7 C 12.4 11.7 12.4 11.7 12.4 11.7 C 12.4 11.8 12.4 11.8 12.4 11.8 C 12.4 11.9 12.4 11.9 12.4 12 C 12.3 12.3 12.3 12.5 12.2 12.8 C 12.2 13.1 12.1 13.3 12.1 13.3 C 12.1 13.4 12.2 13.5 12.2 13.5 C 12.2 13.5 12.1 13.6 12.1 13.6 C 12.1 13.6 12 13.6 12 13.6 C 11.9 13.6 11.9 13.6 11.9 13.6 C 11.9 13.6 11.9 13.6 11.8 13.6 C 11.8 13.5 11.8 13.5 11.8 13.4 C 11.8 13.4 11.8 13.4 11.7 13.3 C 11.5 13 11.2 12.6 11 12.3 C 11 12.5 10.9 12.7 10.9 13.1 C 10.9 13.1 10.8 13.3 10.8 13.3 C 10.8 13.3 10.8 13.4 10.8 13.5 C 10.8 13.5 10.8 13.6 10.8 13.6 C 10.8 13.6 10.8 13.6 10.8 13.7 C 10.7 13.7 10.7 13.7 10.7 13.7 C 10.6 13.7 10.6 13.7 10.6 13.6 C 10.6 13.6 10.6 13.5 10.6 13.5 C 10.6 13.5 10.6 13.3 10.6 13.2 C 10.7 13.1 10.7 12.8 10.8 12.5 C 10.8 12.3 10.9 12.1 10.9 12 C 10.9 12 10.9 11.9 10.9 11.9 C 10.9 11.9 10.9 11.9 10.9 11.8 C 10.9 11.8 10.9 11.8 10.9 11.8 C 10.9 11.8 11 11.8 11 11.8 C 11 11.8 11 11.8 11.1 11.8 C 11.1 11.8 11.1 11.8 11.1 11.8 C 11.1 11.9 11.1 11.9 11.1 11.9 C 11.2 12.1 11.3 12.3 11.5 12.6 C 11.6 12.9 11.8 13.1 11.9 13.3 Z M 13.2 13.7 C 13 13.7 12.9 13.6 12.8 13.5 C 12.7 13.4 12.6 13.2 12.6 13.1 C 12.6 12.9 12.7 12.7 12.8 12.5 C 12.9 12.2 13.1 12.1 13.2 11.9 C 13.4 11.8 13.6 11.7 13.8 11.7 C 13.9 11.7 14 11.7 14.1 11.7 C 14.2 11.8 14.3 11.8 14.4 11.9 C 14.4 12 14.5 12 14.5 12.1 C 14.5 12.2 14.6 12.3 14.6 12.4 C 14.6 12.5 14.5 12.7 14.5 12.8 C 14.4 13 14.3 13.1 14.1 13.3 C 14 13.4 13.8 13.5 13.7 13.6 C 13.6 13.7 13.4 13.7 13.2 13.7 Z M 12.9 13 C 12.9 13.2 12.9 13.3 13 13.4 C 13.1 13.4 13.2 13.5 13.3 13.5 C 13.5 13.5 13.8 13.4 14 13.1 C 14.2 12.9 14.3 12.6 14.3 12.3 C 14.3 12.2 14.3 12.2 14.3 12.1 C 14.2 12 14.2 12 14.1 11.9 C 14 11.9 13.9 11.9 13.8 11.9 C 13.6 11.9 13.4 12 13.2 12.3 C 13 12.5 12.9 12.8 12.9 13 Z M 16 12.2 C 16 12 16 12 16 11.9 C 15.9 11.9 15.8 11.9 15.7 11.9 C 15.6 11.9 15.4 11.9 15.2 12 C 15.1 12.1 15 12.2 15 12.3 C 15 12.3 15 12.4 15.1 12.5 C 15.2 12.5 15.3 12.6 15.5 12.6 C 15.8 12.7 15.9 12.8 16 12.8 C 16.1 12.9 16.1 13 16.1 13.1 C 16.1 13.2 16.1 13.3 16 13.4 C 15.8 13.5 15.7 13.6 15.5 13.6 C 15.3 13.7 15.2 13.7 15 13.7 C 14.9 13.7 14.8 13.7 14.8 13.7 C 14.7 13.7 14.7 13.6 14.7 13.6 C 14.7 13.6 14.7 13.5 14.7 13.5 C 14.7 13.5 14.8 13.4 14.8 13.4 C 14.8 13.4 14.8 13.4 14.8 13.4 C 14.9 13.5 15 13.5 15.1 13.5 C 15.3 13.5 15.4 13.4 15.6 13.4 C 15.8 13.3 15.9 13.2 15.9 13.1 C 15.9 13 15.9 13 15.8 13 C 15.8 12.9 15.6 12.9 15.4 12.8 C 15.1 12.7 14.9 12.6 14.9 12.6 C 14.8 12.5 14.8 12.4 14.8 12.3 C 14.8 12.1 14.9 12 15.1 11.9 C 15.3 11.7 15.5 11.7 15.7 11.7 C 15.9 11.7 16 11.7 16.1 11.8 C 16.2 11.8 16.2 11.9 16.2 11.9 C 16.2 12 16.2 12 16.2 12.1 C 16.2 12.1 16.1 12.2 16 12.2 Z M 17.7 12.2 C 17.7 12 17.7 12 17.6 11.9 C 17.6 11.9 17.5 11.9 17.4 11.9 C 17.2 11.9 17 11.9 16.9 12 C 16.7 12.1 16.7 12.2 16.7 12.3 C 16.7 12.3 16.7 12.4 16.8 12.5 C 16.8 12.5 17 12.6 17.2 12.6 C 17.4 12.7 17.6 12.8 17.7 12.8 C 17.7 12.9 17.8 13 17.8 13.1 C 17.8 13.2 17.7 13.3 17.6 13.4 C 17.5 13.5 17.3 13.6 17.1 13.6 C 17 13.7 16.8 13.7 16.7 13.7 C 16.6 13.7 16.5 13.7 16.4 13.7 C 16.4 13.7 16.4 13.6 16.4 13.6 C 16.4 13.6 16.4 13.5 16.4 13.5 C 16.4 13.5 16.4 13.4 16.4 13.4 C 16.5 13.4 16.5 13.4 16.5 13.4 C 16.6 13.5 16.7 13.5 16.8 13.5 C 16.9 13.5 17.1 13.4 17.3 13.4 C 17.5 13.3 17.6 13.2 17.6 13.1 C 17.6 13 17.5 13 17.5 13 C 17.4 12.9 17.3 12.9 17.1 12.8 C 16.8 12.7 16.6 12.6 16.5 12.6 C 16.5 12.5 16.4 12.4 16.4 12.3 C 16.4 12.1 16.5 12 16.7 11.9 C 17 11.7 17.2 11.7 17.4 11.7 C 17.5 11.7 17.7 11.7 17.7 11.8 C 17.8 11.8 17.9 11.9 17.9 11.9 C 17.9 12 17.9 12 17.8 12.1 C 17.8 12.1 17.8 12.2 17.7 12.2 Z M 19 11.7 C 19.1 11.7 19.1 11.7 19.2 11.7 C 19.2 11.7 19.2 11.8 19.2 11.8 C 19.2 11.8 19.2 11.9 19.2 11.9 C 19.2 11.9 19.2 11.9 19.2 11.9 C 19.2 12 19.2 12.1 19.3 12.2 C 19.3 12.3 19.3 12.4 19.4 12.5 C 19.4 12.7 19.5 12.9 19.6 13.1 C 19.7 13.2 19.8 13.4 19.8 13.4 C 19.9 13.5 19.9 13.5 19.9 13.5 C 19.9 13.5 19.9 13.6 19.9 13.6 C 19.9 13.6 19.9 13.6 19.9 13.7 C 19.9 13.7 19.8 13.7 19.8 13.7 C 19.7 13.7 19.6 13.5 19.4 13.2 C 19.3 13.1 19.3 13 19.3 13 C 19.2 13 19.2 13 19 13 C 18.9 13 18.8 13.1 18.6 13.1 C 18.6 13.1 18.5 13.1 18.5 13.1 C 18.5 13.1 18.5 13.1 18.4 13.1 C 18.4 13.1 18.4 13.1 18.4 13.1 C 18.4 13.1 18.4 13.2 18.3 13.3 C 18.2 13.5 18.1 13.6 18.1 13.6 C 18.1 13.6 18.1 13.7 18 13.7 C 18 13.7 18 13.6 17.9 13.6 C 17.9 13.6 17.9 13.6 17.9 13.5 C 17.9 13.5 17.9 13.5 17.9 13.4 C 18 13.4 18 13.3 18.1 13.1 C 18.3 12.9 18.4 12.6 18.6 12.4 C 18.7 12.1 18.9 11.9 18.9 11.8 C 19 11.7 19 11.7 19 11.7 C 19 11.7 19 11.7 19 11.7 Z M 18.8 12.9 C 19.1 12.8 19.2 12.8 19.2 12.8 C 19.2 12.7 19.2 12.6 19.1 12.4 C 19 12.2 19 12.1 19 12 C 18.9 12.1 18.9 12.3 18.8 12.5 C 18.8 12.5 18.5 12.9 18.5 12.9 C 18.5 12.9 18.6 12.9 18.7 12.9 C 18.7 12.9 18.8 12.9 18.8 12.9 C 18.8 12.9 18.8 12.9 18.8 12.9 Z M 21.1 13.4 C 21.2 13.3 21.2 13.3 21.2 13.2 C 21.2 13.2 21.2 13.1 21.2 12.9 C 21.2 12.7 21.3 12.5 21.3 12.2 C 21.3 12 21.3 11.8 21.3 11.8 C 21.3 11.8 21.4 11.7 21.4 11.7 C 21.4 11.7 21.4 11.7 21.5 11.7 C 21.5 11.7 21.5 11.7 21.6 11.7 C 21.6 11.8 21.6 11.8 21.6 11.8 C 21.6 11.9 21.6 11.9 21.6 12 C 21.5 12.1 21.5 12.4 21.5 12.7 C 21.4 13.1 21.4 13.3 21.4 13.3 C 21.4 13.3 21.4 13.4 21.4 13.4 C 21.4 13.4 21.4 13.4 21.5 13.4 C 21.5 13.4 21.6 13.4 21.8 13.3 C 21.9 13.3 22 13.3 22.3 13.3 C 22.3 13.3 22.4 13.3 22.5 13.3 C 22.5 13.3 22.5 13.3 22.5 13.3 C 22.5 13.3 22.6 13.3 22.6 13.3 C 22.6 13.3 22.6 13.3 22.6 13.4 C 22.6 13.4 22.6 13.5 22.5 13.5 C 22.5 13.5 22.5 13.5 22.4 13.5 C 22.4 13.5 22.4 13.5 22.3 13.5 C 22.3 13.5 22.2 13.5 22.2 13.5 C 21.9 13.5 21.6 13.6 21.4 13.7 C 21.3 13.7 21.3 13.7 21.2 13.7 C 21.2 13.7 21.2 13.7 21.2 13.6 C 21.1 13.6 21.1 13.6 21.1 13.5 C 21.1 13.5 21.1 13.5 21.1 13.4 C 21.1 13.4 21.1 13.4 21.1 13.4 Z M 23.3 11.9 C 23.3 11.9 23.2 12 23.2 12.2 C 23.2 12.3 23.1 12.4 23.1 12.5 C 23.1 12.5 23.1 12.6 23.1 12.6 C 23.1 12.9 23.1 13 23.1 13.1 C 23.1 13.2 23.1 13.3 23.1 13.5 C 23.1 13.5 23.1 13.6 23 13.6 C 23 13.6 23 13.6 22.9 13.6 C 22.9 13.6 22.9 13.6 22.8 13.6 C 22.8 13.5 22.8 13.4 22.8 13.3 C 22.8 13.2 22.8 13 22.9 12.8 C 22.9 12.7 22.9 12.7 22.9 12.7 C 22.9 12.6 22.9 12.6 22.9 12.6 C 22.9 12.5 22.9 12.5 22.9 12.5 C 22.9 12.4 22.9 12.3 23 12.2 C 23 12.1 23 12 23 11.9 C 23 11.8 23 11.8 23 11.8 C 23 11.8 23 11.8 23.1 11.7 C 23.1 11.7 23.1 11.7 23.2 11.7 C 23.2 11.7 23.2 11.7 23.2 11.8 C 23.3 11.8 23.3 11.8 23.3 11.9 Z M 24.8 12.5 C 24.8 12.6 24.8 12.6 24.8 12.6 C 24.9 12.6 25 12.6 25.1 12.7 C 25.1 12.8 25.2 12.9 25.2 13 C 25.2 13.2 25.1 13.3 24.8 13.5 C 24.6 13.7 24.4 13.8 24.2 13.8 C 24.1 13.8 24.1 13.8 24 13.7 C 24 13.7 24 13.7 24 13.7 C 24 13.6 24 13.5 24.2 13.5 C 24.2 13.5 24.3 13.5 24.3 13.5 C 24.4 13.5 24.4 13.5 24.5 13.5 C 24.5 13.5 24.6 13.4 24.6 13.4 C 24.7 13.4 24.7 13.3 24.8 13.3 C 24.8 13.2 24.9 13.2 24.9 13.2 C 24.9 13.1 24.9 13.1 24.9 13 C 24.9 12.9 24.9 12.9 24.8 12.8 C 24.8 12.8 24.7 12.7 24.6 12.7 C 24.5 12.7 24.5 12.7 24.4 12.8 C 24.4 12.8 24.3 12.8 24.3 12.8 C 24.2 12.8 24.2 12.8 24.2 12.8 C 24.2 12.8 24.2 12.7 24.2 12.7 C 24.2 12.7 24.2 12.6 24.4 12.6 C 24.5 12.5 24.6 12.4 24.7 12.3 C 24.8 12.2 24.9 12.1 24.9 12 C 24.9 12 24.9 11.9 24.8 11.9 C 24.8 11.9 24.7 11.9 24.7 11.9 C 24.5 11.9 24.4 11.9 24.3 11.9 C 24.1 11.9 24.1 12 24.1 12 C 24.1 12 24 12.2 24 12.6 C 23.9 13 23.9 13.3 23.9 13.3 C 23.9 13.4 23.9 13.4 23.9 13.5 C 23.9 13.5 23.9 13.6 23.8 13.6 C 23.8 13.7 23.8 13.7 23.7 13.7 C 23.7 13.7 23.7 13.7 23.6 13.6 C 23.6 13.6 23.6 13.5 23.6 13.5 C 23.6 13.5 23.6 13.5 23.6 13.4 C 23.6 13.2 23.7 13 23.7 12.7 C 23.8 12.4 23.8 12.2 23.8 12.2 C 23.8 12.2 23.8 12.1 23.8 12.1 C 23.8 12.1 23.7 12.1 23.7 12.1 C 23.7 12.1 23.7 12.1 23.7 12.1 C 23.7 12.1 23.6 12.1 23.6 12.1 C 23.6 12.1 23.6 12 23.6 12 C 23.6 11.9 23.7 11.9 24 11.8 C 24.2 11.7 24.5 11.7 24.7 11.7 C 24.9 11.7 25 11.7 25 11.8 C 25.1 11.8 25.2 11.9 25.2 12 C 25.2 12.1 25.1 12.2 25.1 12.3 C 25 12.4 24.9 12.5 24.8 12.5 Z M 26.9 11.9 C 26.9 11.9 26.9 11.9 26.9 11.9 C 26.8 11.9 26.8 11.9 26.7 11.9 C 26.7 11.9 26.7 12 26.6 12 C 26.6 12 26.6 12 26.5 12 C 26.5 12 26.4 12 26.3 12 C 26.1 12 26 12 26 12 C 26 12 25.9 12.1 25.9 12.1 C 25.9 12.2 25.9 12.2 25.9 12.3 C 25.9 12.5 25.8 12.6 25.8 12.6 C 25.8 12.6 25.9 12.6 25.9 12.6 C 25.9 12.6 26 12.6 26.1 12.6 C 26.2 12.6 26.3 12.6 26.4 12.6 C 26.5 12.5 26.6 12.5 26.7 12.5 C 26.8 12.5 26.8 12.6 26.8 12.6 C 26.8 12.7 26.8 12.7 26.7 12.8 C 26.7 12.8 26.5 12.8 26.3 12.8 C 26 12.8 25.8 12.9 25.8 12.9 C 25.8 12.9 25.8 13 25.8 13.1 C 25.7 13.3 25.7 13.4 25.7 13.4 C 25.7 13.4 25.7 13.4 25.7 13.4 C 25.7 13.5 25.8 13.5 25.8 13.5 C 25.8 13.5 25.8 13.5 25.8 13.5 C 25.9 13.5 25.9 13.5 26 13.5 C 26 13.5 26.3 13.4 26.3 13.4 C 26.4 13.4 26.4 13.4 26.5 13.4 C 26.7 13.4 26.7 13.4 26.8 13.4 C 26.8 13.4 26.8 13.4 26.8 13.4 C 26.9 13.4 26.9 13.4 26.9 13.5 C 26.9 13.5 26.9 13.5 26.9 13.5 C 26.8 13.6 26.7 13.6 26.5 13.6 C 26.4 13.6 26.2 13.6 26 13.7 C 25.8 13.7 25.7 13.7 25.7 13.7 C 25.6 13.7 25.5 13.7 25.5 13.7 C 25.5 13.7 25.5 13.6 25.5 13.6 C 25.47 13.56 25.5 13.5 25.5 13.5 C 25.5 13.5 25.46 13.51 25.5 13.5 C 25.5 13.5 25.5 13.5 25.5 13.4 C 25.5 13.4 25.5 13.2 25.6 13.1 C 25.6 12.9 25.6 12.8 25.6 12.7 C 25.6 12.6 25.6 12.6 25.6 12.5 C 25.7 12.3 25.7 12.2 25.7 12 C 25.7 12 25.7 12 25.7 12 C 25.7 12 25.7 12 25.7 12 C 25.7 12 25.7 11.9 25.6 11.9 C 25.6 11.9 25.6 11.9 25.6 11.9 C 25.6 11.9 25.6 11.9 25.6 11.9 C 25.6 11.9 25.6 11.8 25.7 11.8 C 25.7 11.8 25.7 11.8 25.7 11.8 C 25.7 11.8 25.7 11.8 25.7 11.8 C 25.8 11.8 25.8 11.8 25.9 11.8 C 25.9 11.8 25.9 11.8 25.9 11.8 C 25.9 11.8 26 11.8 26.2 11.8 C 26.3 11.8 26.5 11.7 26.8 11.7 C 26.8 11.7 26.8 11.7 26.8 11.7 C 26.8 11.7 26.8 11.7 26.8 11.7 C 26.9 11.7 27 11.7 27 11.7 C 27 11.7 27 11.8 27 11.8 C 27 11.8 27 11.9 27 11.9 C 27 11.9 27 11.9 26.9 11.9 Z M 27.6 11.8 C 27.9 11.7 28.1 11.7 28.2 11.7 C 28.4 11.7 28.5 11.7 28.6 11.8 C 28.7 11.9 28.8 12 28.8 12.2 C 28.8 12.3 28.7 12.4 28.6 12.5 C 28.5 12.6 28.3 12.7 28.2 12.8 C 28.1 12.8 28.1 12.8 28.1 12.8 C 28.1 12.8 28.2 12.9 28.4 13.1 C 28.6 13.2 28.7 13.3 28.9 13.4 C 28.9 13.4 29 13.5 29 13.5 C 29 13.5 28.9 13.6 28.9 13.6 C 28.9 13.6 28.9 13.6 28.8 13.6 C 28.8 13.6 28.7 13.6 28.6 13.5 C 28.5 13.4 28.4 13.3 28.2 13.2 C 28 13 27.8 12.9 27.8 12.9 C 27.7 12.9 27.7 12.9 27.7 12.9 C 27.6 12.9 27.6 12.8 27.6 12.8 C 27.6 12.8 27.7 12.7 27.7 12.7 C 27.7 12.7 27.8 12.7 27.8 12.7 C 27.8 12.7 27.8 12.7 27.9 12.7 C 27.9 12.7 27.9 12.7 27.9 12.7 C 28 12.7 28.1 12.6 28.3 12.5 C 28.5 12.4 28.5 12.3 28.5 12.2 C 28.5 12.1 28.5 12 28.4 12 C 28.4 11.9 28.3 11.9 28.1 11.9 C 28.1 11.9 28 11.9 27.9 11.9 C 27.8 11.9 27.7 11.9 27.7 11.9 C 27.7 11.9 27.7 12 27.7 12 C 27.6 12 27.6 12.2 27.6 12.3 C 27.6 12.5 27.5 12.7 27.5 12.9 C 27.5 13.1 27.5 13.2 27.5 13.3 C 27.5 13.3 27.5 13.4 27.5 13.4 C 27.5 13.5 27.5 13.5 27.5 13.6 C 27.5 13.6 27.5 13.6 27.5 13.6 C 27.4 13.7 27.4 13.7 27.4 13.7 C 27.3 13.7 27.2 13.6 27.2 13.5 C 27.2 13.1 27.3 12.6 27.4 12.1 C 27.4 12 27.4 12 27.4 12 C 27.4 12 27.4 12 27.4 12 C 27.4 11.9 27.4 11.9 27.4 11.9 C 27.4 11.8 27.4 11.8 27.4 11.8 C 27.4 11.8 27.5 11.8 27.5 11.8 C 27.5 11.8 27.6 11.8 27.6 11.8 Z M 29.3 12.2 C 29.4 12.1 29.4 12.1 29.4 12 C 29.4 12 29.3 12 29.3 12 C 29.2 11.9 29.2 11.9 29.2 11.9 C 29.2 11.8 29.2 11.8 29.2 11.8 C 29.3 11.7 29.3 11.7 29.3 11.7 C 29.3 11.7 29.5 11.7 29.5 11.7 C 29.6 11.7 29.7 11.7 29.8 11.7 C 30 11.7 30.1 11.7 30.2 11.7 C 30.4 11.7 30.6 11.8 30.7 11.9 C 30.9 12 31 12.2 31 12.4 C 31 12.7 30.8 12.9 30.6 13.1 C 30.4 13.3 30.1 13.5 29.8 13.5 C 29.6 13.6 29.5 13.6 29.4 13.7 C 29.4 13.7 29.3 13.7 29.3 13.7 C 29.2 13.7 29.2 13.7 29.2 13.7 C 29.2 13.6 29.1 13.6 29.1 13.6 C 29.1 13.6 29.1 13.6 29.2 13.5 C 29.2 13.5 29.2 13.4 29.2 13.4 C 29.2 13.4 29.2 13.3 29.2 13.2 C 29.2 13.1 29.2 12.9 29.3 12.7 C 29.3 12.5 29.3 12.3 29.3 12.2 C 29.3 12.2 29.3 12.2 29.3 12.2 Z M 29.7 11.9 C 29.7 11.9 29.6 11.9 29.6 11.9 C 29.5 12.6 29.4 13 29.4 13.3 C 29.4 13.3 29.4 13.4 29.5 13.4 C 29.5 13.4 29.5 13.4 29.5 13.4 C 29.6 13.4 29.7 13.4 29.9 13.3 C 30.2 13.2 30.4 13.1 30.5 12.9 C 30.7 12.8 30.7 12.6 30.7 12.4 C 30.7 12.3 30.7 12.1 30.6 12 C 30.4 11.9 30.3 11.9 30.1 11.9 C 30 11.9 29.9 11.9 29.7 11.9 C 29.7 11.9 29.7 11.9 29.7 11.9 Z M 32 11.7 C 32.1 11.7 32.1 11.7 32.2 11.7 C 32.2 11.7 32.2 11.8 32.2 11.8 C 32.2 11.8 32.2 11.9 32.2 11.9 C 32.2 11.9 32.2 11.9 32.2 11.9 C 32.2 12 32.2 12.1 32.3 12.2 C 32.3 12.3 32.3 12.4 32.4 12.5 C 32.4 12.7 32.5 12.9 32.6 13.1 C 32.7 13.2 32.8 13.4 32.8 13.4 C 32.9 13.5 32.9 13.5 32.9 13.5 C 32.9 13.5 32.9 13.6 32.9 13.6 C 32.9 13.6 32.9 13.6 32.9 13.7 C 32.9 13.7 32.8 13.7 32.8 13.7 C 32.7 13.7 32.6 13.5 32.4 13.2 C 32.3 13.1 32.3 13 32.3 13 C 32.2 13 32.2 13 32 13 C 31.9 13 31.7 13.1 31.6 13.1 C 31.6 13.1 31.5 13.1 31.5 13.1 C 31.5 13.1 31.5 13.1 31.4 13.1 C 31.4 13.1 31.4 13.1 31.4 13.1 C 31.4 13.1 31.4 13.2 31.3 13.3 C 31.2 13.5 31.1 13.6 31.1 13.6 C 31.1 13.6 31 13.7 31 13.7 C 31 13.7 31 13.6 30.9 13.6 C 30.9 13.6 30.9 13.6 30.9 13.5 C 30.9 13.5 30.9 13.5 30.9 13.4 C 31 13.4 31 13.3 31.1 13.1 C 31.3 12.9 31.4 12.6 31.6 12.4 C 31.7 12.1 31.9 11.9 31.9 11.8 C 32 11.7 32 11.7 32 11.7 C 32 11.7 32 11.7 32 11.7 Z M 31.8 12.9 C 32.1 12.8 32.2 12.8 32.2 12.8 C 32.2 12.7 32.2 12.6 32.1 12.4 C 32 12.2 32 12.1 32 12 C 31.9 12.1 31.9 12.3 31.8 12.5 C 31.8 12.5 31.5 12.9 31.5 12.9 C 31.5 12.9 31.6 12.9 31.7 12.9 C 31.7 12.9 31.8 12.9 31.8 12.9 C 31.8 12.9 31.8 12.9 31.8 12.9 Z M 33.3 12.2 C 33.3 12.1 33.3 12.1 33.3 12 C 33.3 12 33.3 12 33.3 12 C 33.2 11.9 33.2 11.9 33.2 11.9 C 33.2 11.8 33.2 11.8 33.2 11.8 C 33.3 11.7 33.3 11.7 33.3 11.7 C 33.3 11.7 33.5 11.7 33.5 11.7 C 33.6 11.7 33.7 11.7 33.8 11.7 C 34 11.7 34.1 11.7 34.1 11.7 C 34.4 11.7 34.6 11.8 34.7 11.9 C 34.9 12 34.9 12.2 34.9 12.4 C 34.9 12.7 34.8 12.9 34.6 13.1 C 34.4 13.3 34.1 13.5 33.7 13.5 C 33.6 13.6 33.5 13.6 33.4 13.7 C 33.4 13.7 33.3 13.7 33.3 13.7 C 33.2 13.7 33.2 13.7 33.2 13.7 C 33.1 13.6 33.1 13.6 33.1 13.6 C 33.1 13.6 33.1 13.6 33.2 13.5 C 33.2 13.5 33.2 13.4 33.2 13.4 C 33.2 13.4 33.2 13.3 33.2 13.2 C 33.2 13.1 33.2 12.9 33.3 12.7 C 33.3 12.5 33.3 12.3 33.3 12.2 C 33.3 12.2 33.3 12.2 33.3 12.2 Z M 33.7 11.9 C 33.7 11.9 33.6 11.9 33.6 11.9 C 33.5 12.6 33.4 13 33.4 13.3 C 33.4 13.3 33.4 13.4 33.4 13.4 C 33.5 13.4 33.5 13.4 33.5 13.4 C 33.5 13.4 33.7 13.4 33.9 13.3 C 34.2 13.2 34.3 13.1 34.5 12.9 C 34.6 12.8 34.7 12.6 34.7 12.4 C 34.7 12.3 34.7 12.1 34.5 12 C 34.4 11.9 34.3 11.9 34.1 11.9 C 34 11.9 33.8 11.9 33.7 11.9 C 33.7 11.9 33.7 11.9 33.7 11.9 Z M 36.7 11.9 C 36.7 11.9 36.6 11.9 36.6 11.9 C 36.6 11.9 36.5 11.9 36.5 11.9 C 36.4 11.9 36.4 12 36.3 12 C 36.3 12 36.3 12 36.3 12 C 36.2 12 36.1 12 36 12 C 35.9 12 35.8 12 35.7 12 C 35.7 12 35.7 12.1 35.6 12.1 C 35.6 12.2 35.6 12.2 35.6 12.3 C 35.6 12.5 35.6 12.6 35.6 12.6 C 35.6 12.6 35.6 12.6 35.6 12.6 C 35.6 12.6 35.7 12.6 35.8 12.6 C 35.9 12.6 36 12.6 36.1 12.6 C 36.2 12.5 36.3 12.5 36.4 12.5 C 36.5 12.5 36.6 12.6 36.6 12.6 C 36.6 12.7 36.5 12.7 36.4 12.8 C 36.4 12.8 36.2 12.8 36 12.8 C 35.7 12.8 35.6 12.9 35.5 12.9 C 35.5 12.9 35.5 13 35.5 13.1 C 35.5 13.3 35.5 13.4 35.5 13.4 C 35.5 13.4 35.5 13.4 35.5 13.4 C 35.5 13.5 35.5 13.5 35.5 13.5 C 35.5 13.5 35.6 13.5 35.6 13.5 C 35.6 13.5 35.7 13.5 35.7 13.5 C 35.7 13.5 36 13.4 36 13.4 C 36.1 13.4 36.2 13.4 36.3 13.4 C 36.4 13.4 36.5 13.4 36.5 13.4 C 36.5 13.4 36.5 13.4 36.6 13.4 C 36.6 13.4 36.6 13.4 36.6 13.5 C 36.6 13.5 36.6 13.5 36.6 13.5 C 36.5 13.6 36.4 13.6 36.3 13.6 C 36.1 13.6 35.9 13.6 35.7 13.7 C 35.6 13.7 35.5 13.7 35.4 13.7 C 35.3 13.7 35.3 13.7 35.2 13.7 C 35.2 13.7 35.2 13.6 35.2 13.6 C 35.19 13.56 35.2 13.5 35.2 13.5 C 35.2 13.5 35.19 13.51 35.2 13.5 C 35.2 13.5 35.2 13.5 35.2 13.4 C 35.2 13.4 35.3 13.2 35.3 13.1 C 35.3 12.9 35.3 12.8 35.3 12.7 C 35.3 12.6 35.4 12.6 35.4 12.5 C 35.4 12.3 35.4 12.2 35.4 12 C 35.4 12 35.4 12 35.4 12 C 35.4 12 35.4 12 35.4 12 C 35.4 12 35.4 11.9 35.4 11.9 C 35.4 11.9 35.4 11.9 35.4 11.9 C 35.4 11.9 35.4 11.9 35.4 11.9 C 35.4 11.9 35.4 11.8 35.4 11.8 C 35.4 11.8 35.4 11.8 35.5 11.8 C 35.5 11.8 35.5 11.8 35.5 11.8 C 35.5 11.8 35.5 11.8 35.6 11.8 C 35.6 11.8 35.6 11.8 35.6 11.8 C 35.6 11.8 35.7 11.8 35.9 11.8 C 36.1 11.8 36.3 11.7 36.5 11.7 C 36.5 11.7 36.5 11.7 36.6 11.7 C 36.6 11.7 36.6 11.7 36.6 11.7 C 36.6 11.7 36.7 11.7 36.7 11.7 C 36.7 11.7 36.8 11.8 36.8 11.8 C 36.8 11.8 36.7 11.9 36.7 11.9 C 36.7 11.9 36.7 11.9 36.7 11.9 Z M 38.2 12.2 C 38.2 12.1 38.2 12.1 38.2 12 C 38.2 12 38.2 12 38.1 12 C 38.1 11.9 38 11.9 38 11.9 C 38 11.8 38.1 11.8 38.1 11.8 C 38.1 11.7 38.1 11.7 38.2 11.7 C 38.2 11.7 38.4 11.7 38.4 11.7 C 38.4 11.7 38.6 11.7 38.7 11.7 C 38.8 11.7 38.9 11.7 39 11.7 C 39.2 11.7 39.4 11.8 39.6 11.9 C 39.7 12 39.8 12.2 39.8 12.4 C 39.8 12.7 39.7 12.9 39.5 13.1 C 39.3 13.3 39 13.5 38.6 13.5 C 38.4 13.6 38.3 13.6 38.3 13.7 C 38.2 13.7 38.2 13.7 38.1 13.7 C 38.1 13.7 38 13.7 38 13.7 C 38 13.6 38 13.6 38 13.6 C 38 13.6 38 13.6 38 13.5 C 38 13.5 38 13.4 38 13.4 C 38.1 13.4 38.1 13.3 38.1 13.2 C 38.1 13.1 38.1 12.9 38.1 12.7 C 38.1 12.5 38.2 12.3 38.2 12.2 C 38.2 12.2 38.2 12.2 38.2 12.2 Z M 38.5 11.9 C 38.5 11.9 38.5 11.9 38.4 11.9 C 38.3 12.6 38.3 13 38.3 13.3 C 38.3 13.3 38.3 13.4 38.3 13.4 C 38.3 13.4 38.3 13.4 38.3 13.4 C 38.4 13.4 38.5 13.4 38.8 13.3 C 39 13.2 39.2 13.1 39.4 12.9 C 39.5 12.8 39.6 12.6 39.6 12.4 C 39.6 12.3 39.5 12.1 39.4 12 C 39.3 11.9 39.1 11.9 39 11.9 C 38.8 11.9 38.7 11.9 38.5 11.9 C 38.5 11.9 38.5 11.9 38.5 11.9 Z M 41.5 11.9 C 41.5 11.9 41.5 11.9 41.5 11.9 C 41.4 11.9 41.4 11.9 41.3 11.9 C 41.3 11.9 41.2 12 41.2 12 C 41.2 12 41.1 12 41.1 12 C 41.1 12 41 12 40.9 12 C 40.7 12 40.6 12 40.6 12 C 40.5 12 40.5 12.1 40.5 12.1 C 40.5 12.2 40.5 12.2 40.5 12.3 C 40.4 12.5 40.4 12.6 40.4 12.6 C 40.4 12.6 40.4 12.6 40.4 12.6 C 40.5 12.6 40.6 12.6 40.7 12.6 C 40.8 12.6 40.9 12.6 41 12.6 C 41.1 12.5 41.2 12.5 41.3 12.5 C 41.4 12.5 41.4 12.6 41.4 12.6 C 41.4 12.7 41.4 12.7 41.3 12.8 C 41.2 12.8 41.1 12.8 40.9 12.8 C 40.6 12.8 40.4 12.9 40.4 12.9 C 40.4 12.9 40.4 13 40.3 13.1 C 40.3 13.3 40.3 13.4 40.3 13.4 C 40.3 13.4 40.3 13.4 40.3 13.4 C 40.3 13.5 40.3 13.5 40.4 13.5 C 40.4 13.5 40.4 13.5 40.4 13.5 C 40.5 13.5 40.5 13.5 40.6 13.5 C 40.6 13.5 40.8 13.4 40.8 13.4 C 40.9 13.4 41 13.4 41.1 13.4 C 41.2 13.4 41.3 13.4 41.3 13.4 C 41.4 13.4 41.4 13.4 41.4 13.4 C 41.5 13.4 41.5 13.4 41.5 13.5 C 41.5 13.5 41.5 13.5 41.5 13.5 C 41.4 13.6 41.2 13.6 41.1 13.6 C 41 13.6 40.8 13.6 40.5 13.7 C 40.4 13.7 40.3 13.7 40.3 13.7 C 40.2 13.7 40.1 13.7 40.1 13.7 C 40.1 13.7 40.1 13.6 40 13.6 C 40.05 13.56 40 13.5 40 13.5 C 40 13.5 40.04 13.51 40 13.5 C 40 13.5 40.1 13.5 40.1 13.4 C 40.1 13.4 40.1 13.2 40.1 13.1 C 40.2 12.9 40.2 12.8 40.2 12.7 C 40.2 12.6 40.2 12.6 40.2 12.5 C 40.3 12.3 40.3 12.2 40.3 12 C 40.3 12 40.3 12 40.3 12 C 40.2 12 40.2 12 40.2 12 C 40.2 12 40.2 11.9 40.2 11.9 C 40.2 11.9 40.2 11.9 40.2 11.9 C 40.2 11.9 40.2 11.9 40.2 11.9 C 40.2 11.9 40.2 11.8 40.3 11.8 C 40.3 11.8 40.3 11.8 40.3 11.8 C 40.3 11.8 40.3 11.8 40.3 11.8 C 40.4 11.8 40.4 11.8 40.4 11.8 C 40.4 11.8 40.5 11.8 40.5 11.8 C 40.5 11.8 40.6 11.8 40.7 11.8 C 40.9 11.8 41.1 11.7 41.4 11.7 C 41.4 11.7 41.4 11.7 41.4 11.7 C 41.4 11.7 41.4 11.7 41.4 11.7 C 41.5 11.7 41.5 11.7 41.6 11.7 C 41.6 11.7 41.6 11.8 41.6 11.8 C 41.6 11.8 41.6 11.9 41.6 11.9 C 41.6 11.9 41.5 11.9 41.5 11.9 Z M 44.3 11.9 C 44.3 11.9 44.3 11.9 44.2 11.9 C 44.2 11.9 44.2 11.9 44.1 11.9 C 44.1 11.9 44 12 44 12 C 44 12 43.9 12 43.9 12 C 43.9 12 43.8 12 43.7 12 C 43.5 12 43.4 12 43.4 12 C 43.3 12 43.3 12.1 43.3 12.1 C 43.3 12.2 43.3 12.2 43.3 12.3 C 43.2 12.5 43.2 12.6 43.2 12.6 C 43.2 12.6 43.2 12.6 43.2 12.6 C 43.3 12.6 43.3 12.6 43.5 12.6 C 43.6 12.6 43.7 12.6 43.7 12.6 C 43.9 12.5 44 12.5 44 12.5 C 44.1 12.5 44.2 12.6 44.2 12.6 C 44.2 12.7 44.2 12.7 44.1 12.8 C 44 12.8 43.9 12.8 43.6 12.8 C 43.4 12.8 43.2 12.9 43.2 12.9 C 43.2 12.9 43.2 13 43.1 13.1 C 43.1 13.3 43.1 13.4 43.1 13.4 C 43.1 13.4 43.1 13.4 43.1 13.4 C 43.1 13.5 43.1 13.5 43.2 13.5 C 43.2 13.5 43.2 13.5 43.2 13.5 C 43.3 13.5 43.3 13.5 43.4 13.5 C 43.4 13.5 43.6 13.4 43.6 13.4 C 43.7 13.4 43.8 13.4 43.9 13.4 C 44 13.4 44.1 13.4 44.1 13.4 C 44.2 13.4 44.2 13.4 44.2 13.4 C 44.2 13.4 44.3 13.4 44.3 13.5 C 44.3 13.5 44.3 13.5 44.2 13.5 C 44.2 13.6 44 13.6 43.9 13.6 C 43.8 13.6 43.6 13.6 43.3 13.7 C 43.2 13.7 43.1 13.7 43.1 13.7 C 43 13.7 42.9 13.7 42.9 13.7 C 42.9 13.7 42.8 13.6 42.8 13.6 C 42.84 13.56 42.8 13.5 42.8 13.5 C 42.8 13.5 42.83 13.51 42.8 13.5 C 42.8 13.5 42.8 13.5 42.9 13.4 C 42.9 13.4 42.9 13.2 42.9 13.1 C 43 12.9 43 12.8 43 12.7 C 43 12.6 43 12.6 43 12.5 C 43 12.3 43.1 12.2 43.1 12 C 43.1 12 43.1 12 43 12 C 43 12 43 12 43 12 C 43 12 43 11.9 43 11.9 C 43 11.9 43 11.9 43 11.9 C 43 11.9 43 11.9 43 11.9 C 43 11.9 43 11.8 43 11.8 C 43.1 11.8 43.1 11.8 43.1 11.8 C 43.1 11.8 43.1 11.8 43.1 11.8 C 43.1 11.8 43.2 11.8 43.2 11.8 C 43.2 11.8 43.2 11.8 43.2 11.8 C 43.3 11.8 43.4 11.8 43.5 11.8 C 43.7 11.8 43.9 11.7 44.2 11.7 C 44.2 11.7 44.2 11.7 44.2 11.7 C 44.2 11.7 44.2 11.7 44.2 11.7 C 44.3 11.7 44.3 11.7 44.4 11.7 C 44.4 11.7 44.4 11.8 44.4 11.8 C 44.4 11.8 44.4 11.9 44.4 11.9 C 44.3 11.9 44.3 11.9 44.3 11.9 Z M 44.9 11.8 C 45 12 45.2 12.2 45.4 12.5 C 45.7 12.1 45.9 11.9 46 11.8 C 46.1 11.7 46.2 11.7 46.2 11.7 C 46.2 11.7 46.2 11.7 46.3 11.7 C 46.3 11.7 46.3 11.8 46.3 11.8 C 46.3 11.8 46.3 11.9 46.2 11.9 C 46.1 12 45.9 12.2 45.8 12.3 C 45.6 12.5 45.5 12.6 45.5 12.6 C 45.5 12.7 45.5 12.7 45.5 12.7 C 45.6 12.7 45.6 12.8 45.7 12.9 C 45.8 13 45.9 13.1 45.9 13.1 C 46 13.2 46 13.2 46.1 13.3 C 46.1 13.3 46.2 13.3 46.2 13.4 C 46.2 13.4 46.2 13.4 46.2 13.5 C 46.2 13.5 46.2 13.5 46.2 13.5 C 46.2 13.5 46.2 13.6 46.1 13.6 C 46.1 13.6 46 13.5 45.9 13.4 C 45.8 13.3 45.7 13.2 45.5 12.9 C 45.4 12.9 45.4 12.8 45.4 12.8 C 45.3 12.8 45.3 12.8 45.3 12.9 C 44.9 13.2 44.7 13.4 44.7 13.5 C 44.7 13.6 44.7 13.7 44.6 13.7 C 44.6 13.8 44.5 13.8 44.5 13.8 C 44.4 13.8 44.4 13.7 44.4 13.7 C 44.4 13.5 44.6 13.2 45.1 12.7 C 45.2 12.7 45.2 12.6 45.2 12.6 C 45.2 12.6 45.2 12.6 45.1 12.5 C 44.8 12.1 44.7 11.9 44.7 11.8 C 44.7 11.8 44.7 11.7 44.7 11.7 C 44.7 11.7 44.8 11.7 44.8 11.7 C 44.8 11.7 44.9 11.7 44.9 11.8 C 44.9 11.8 44.9 11.8 44.9 11.8 Z M 46.7 12.1 C 46.6 12 46.6 12 46.6 11.9 C 46.6 11.9 46.7 11.8 47 11.8 C 47.2 11.7 47.4 11.7 47.6 11.7 C 47.8 11.7 47.9 11.7 48 11.8 C 48.1 11.9 48.2 12 48.2 12.1 C 48.2 12.3 48.1 12.5 47.9 12.6 C 47.7 12.8 47.4 12.9 47 13 C 46.9 13 46.9 13 46.9 13 C 46.8 13 46.8 13.1 46.8 13.2 C 46.8 13.4 46.8 13.5 46.8 13.5 C 46.8 13.6 46.8 13.6 46.8 13.6 C 46.8 13.7 46.7 13.7 46.7 13.7 C 46.6 13.7 46.6 13.6 46.6 13.5 C 46.6 13.5 46.6 13.3 46.6 13.1 C 46.6 13.1 46.7 12.3 46.7 12.3 C 46.7 12.3 46.7 12.2 46.7 12.2 C 46.7 12.1 46.7 12.1 46.7 12.1 Z M 47.6 11.9 C 47.4 11.9 47.2 11.9 47 12 C 47 12 47 12.1 46.9 12.1 C 46.9 12.2 46.9 12.4 46.9 12.5 C 46.9 12.6 46.9 12.7 46.9 12.8 C 47.2 12.7 47.4 12.7 47.6 12.5 C 47.9 12.4 48 12.3 48 12.1 C 48 12 47.8 11.9 47.6 11.9 C 47.6 11.9 47.6 11.9 47.6 11.9 Z M 48.7 11.8 C 49 11.7 49.2 11.7 49.3 11.7 C 49.5 11.7 49.6 11.7 49.7 11.8 C 49.8 11.9 49.9 12 49.9 12.2 C 49.9 12.3 49.8 12.4 49.7 12.5 C 49.6 12.6 49.4 12.7 49.3 12.8 C 49.2 12.8 49.2 12.8 49.2 12.8 C 49.2 12.8 49.3 12.9 49.5 13.1 C 49.7 13.2 49.9 13.3 50 13.4 C 50 13.4 50.1 13.5 50.1 13.5 C 50.1 13.5 50.1 13.6 50 13.6 C 50 13.6 50 13.6 49.9 13.6 C 49.9 13.6 49.8 13.6 49.7 13.5 C 49.6 13.4 49.5 13.3 49.3 13.2 C 49.1 13 48.9 12.9 48.9 12.9 C 48.8 12.9 48.8 12.9 48.8 12.9 C 48.8 12.9 48.7 12.8 48.7 12.8 C 48.7 12.8 48.8 12.7 48.8 12.7 C 48.8 12.7 48.9 12.7 48.9 12.7 C 48.9 12.7 48.9 12.7 49 12.7 C 49 12.7 49 12.7 49 12.7 C 49.1 12.7 49.2 12.6 49.4 12.5 C 49.6 12.4 49.7 12.3 49.7 12.2 C 49.7 12.1 49.6 12 49.5 12 C 49.5 11.9 49.4 11.9 49.3 11.9 C 49.2 11.9 49.1 11.9 49 11.9 C 48.9 11.9 48.9 11.9 48.8 11.9 C 48.8 11.9 48.8 12 48.8 12 C 48.8 12 48.7 12.2 48.7 12.3 C 48.7 12.5 48.6 12.7 48.6 12.9 C 48.6 13.1 48.6 13.2 48.6 13.3 C 48.6 13.3 48.6 13.4 48.6 13.4 C 48.6 13.5 48.6 13.5 48.6 13.6 C 48.6 13.6 48.6 13.6 48.6 13.6 C 48.5 13.7 48.5 13.7 48.5 13.7 C 48.4 13.7 48.3 13.6 48.3 13.5 C 48.3 13.1 48.4 12.6 48.5 12.1 C 48.5 12 48.5 12 48.5 12 C 48.5 12 48.5 12 48.5 12 C 48.5 11.9 48.5 11.9 48.5 11.9 C 48.5 11.8 48.5 11.8 48.5 11.8 C 48.6 11.8 48.6 11.8 48.6 11.8 C 48.6 11.8 48.7 11.8 48.7 11.8 Z M 51.7 11.9 C 51.7 11.9 51.7 11.9 51.7 11.9 C 51.6 11.9 51.6 11.9 51.5 11.9 C 51.5 11.9 51.4 12 51.4 12 C 51.4 12 51.3 12 51.3 12 C 51.3 12 51.2 12 51.1 12 C 50.9 12 50.8 12 50.8 12 C 50.7 12 50.7 12.1 50.7 12.1 C 50.7 12.2 50.7 12.2 50.7 12.3 C 50.6 12.5 50.6 12.6 50.6 12.6 C 50.6 12.6 50.6 12.6 50.6 12.6 C 50.7 12.6 50.8 12.6 50.9 12.6 C 51 12.6 51.1 12.6 51.2 12.6 C 51.3 12.5 51.4 12.5 51.4 12.5 C 51.6 12.5 51.6 12.6 51.6 12.6 C 51.6 12.7 51.6 12.7 51.5 12.8 C 51.4 12.8 51.3 12.8 51 12.8 C 50.8 12.8 50.6 12.9 50.6 12.9 C 50.6 12.9 50.6 13 50.5 13.1 C 50.5 13.3 50.5 13.4 50.5 13.4 C 50.5 13.4 50.5 13.4 50.5 13.4 C 50.5 13.5 50.5 13.5 50.6 13.5 C 50.6 13.5 50.6 13.5 50.6 13.5 C 50.7 13.5 50.7 13.5 50.8 13.5 C 50.8 13.5 51 13.4 51 13.4 C 51.1 13.4 51.2 13.4 51.3 13.4 C 51.4 13.4 51.5 13.4 51.5 13.4 C 51.6 13.4 51.6 13.4 51.6 13.4 C 51.7 13.4 51.7 13.4 51.7 13.5 C 51.7 13.5 51.7 13.5 51.6 13.5 C 51.6 13.6 51.4 13.6 51.3 13.6 C 51.2 13.6 51 13.6 50.7 13.7 C 50.6 13.7 50.5 13.7 50.5 13.7 C 50.4 13.7 50.3 13.7 50.3 13.7 C 50.3 13.7 50.2 13.6 50.2 13.6 C 50.24 13.56 50.2 13.5 50.2 13.5 C 50.2 13.5 50.24 13.51 50.2 13.5 C 50.2 13.5 50.2 13.5 50.3 13.4 C 50.3 13.4 50.3 13.2 50.3 13.1 C 50.4 12.9 50.4 12.8 50.4 12.7 C 50.4 12.6 50.4 12.6 50.4 12.5 C 50.5 12.3 50.5 12.2 50.5 12 C 50.5 12 50.5 12 50.4 12 C 50.4 12 50.4 12 50.4 12 C 50.4 12 50.4 11.9 50.4 11.9 C 50.4 11.9 50.4 11.9 50.4 11.9 C 50.4 11.9 50.4 11.9 50.4 11.9 C 50.4 11.9 50.4 11.8 50.4 11.8 C 50.5 11.8 50.5 11.8 50.5 11.8 C 50.5 11.8 50.5 11.8 50.5 11.8 C 50.6 11.8 50.6 11.8 50.6 11.8 C 50.6 11.8 50.7 11.8 50.7 11.8 C 50.7 11.8 50.8 11.8 50.9 11.8 C 51.1 11.8 51.3 11.7 51.6 11.7 C 51.6 11.7 51.6 11.7 51.6 11.7 C 51.6 11.7 51.6 11.7 51.6 11.7 C 51.7 11.7 51.7 11.7 51.8 11.7 C 51.8 11.7 51.8 11.8 51.8 11.8 C 51.8 11.8 51.8 11.9 51.8 11.9 C 51.8 11.9 51.7 11.9 51.7 11.9 Z M 53.3 12.2 C 53.3 12 53.2 12 53.2 11.9 C 53.1 11.9 53 11.9 53 11.9 C 52.8 11.9 52.6 11.9 52.5 12 C 52.3 12.1 52.2 12.2 52.2 12.3 C 52.2 12.3 52.3 12.4 52.3 12.5 C 52.4 12.5 52.5 12.6 52.8 12.6 C 53 12.7 53.1 12.8 53.2 12.8 C 53.3 12.9 53.4 13 53.4 13.1 C 53.4 13.2 53.3 13.3 53.2 13.4 C 53 13.5 52.9 13.6 52.7 13.6 C 52.5 13.7 52.4 13.7 52.3 13.7 C 52.1 13.7 52.1 13.7 52 13.7 C 52 13.7 51.9 13.6 51.9 13.6 C 51.9 13.6 51.9 13.5 52 13.5 C 52 13.5 52 13.4 52 13.4 C 52 13.4 52 13.4 52.1 13.4 C 52.1 13.5 52.2 13.5 52.3 13.5 C 52.5 13.5 52.7 13.4 52.9 13.4 C 53 13.3 53.1 13.2 53.1 13.1 C 53.1 13 53.1 13 53 13 C 53 12.9 52.8 12.9 52.6 12.8 C 52.3 12.7 52.2 12.6 52.1 12.6 C 52 12.5 52 12.4 52 12.3 C 52 12.1 52.1 12 52.3 11.9 C 52.5 11.7 52.7 11.7 53 11.7 C 53.1 11.7 53.2 11.7 53.3 11.8 C 53.4 11.8 53.4 11.9 53.4 11.9 C 53.4 12 53.4 12 53.4 12.1 C 53.4 12.1 53.3 12.2 53.3 12.2 Z M 54.9 12.2 C 54.9 12 54.9 12 54.8 11.9 C 54.8 11.9 54.7 11.9 54.6 11.9 C 54.4 11.9 54.3 11.9 54.1 12 C 54 12.1 53.9 12.2 53.9 12.3 C 53.9 12.3 53.9 12.4 54 12.5 C 54 12.5 54.2 12.6 54.4 12.6 C 54.6 12.7 54.8 12.8 54.9 12.8 C 55 12.9 55 13 55 13.1 C 55 13.2 55 13.3 54.8 13.4 C 54.7 13.5 54.5 13.6 54.4 13.6 C 54.2 13.7 54 13.7 53.9 13.7 C 53.8 13.7 53.7 13.7 53.7 13.7 C 53.6 13.7 53.6 13.6 53.6 13.6 C 53.6 13.6 53.6 13.5 53.6 13.5 C 53.6 13.5 53.6 13.4 53.7 13.4 C 53.7 13.4 53.7 13.4 53.7 13.4 C 53.8 13.5 53.9 13.5 54 13.5 C 54.1 13.5 54.3 13.4 54.5 13.4 C 54.7 13.3 54.8 13.2 54.8 13.1 C 54.8 13 54.8 13 54.7 13 C 54.6 12.9 54.5 12.9 54.3 12.8 C 54 12.7 53.8 12.6 53.8 12.6 C 53.7 12.5 53.7 12.4 53.7 12.3 C 53.7 12.1 53.8 12 54 11.9 C 54.2 11.7 54.4 11.7 54.6 11.7 C 54.8 11.7 54.9 11.7 55 11.8 C 55 11.8 55.1 11.9 55.1 11.9 C 55.1 12 55.1 12 55.1 12.1 C 55 12.1 55 12.2 54.9 12.2 Z M 56.3 11.7 C 56.3 11.7 56.4 11.7 56.4 11.7 C 56.4 11.7 56.4 11.8 56.4 11.8 C 56.4 11.8 56.4 11.9 56.4 11.9 C 56.4 11.9 56.4 11.9 56.4 11.9 C 56.4 12 56.5 12.1 56.5 12.2 C 56.5 12.3 56.6 12.4 56.6 12.5 C 56.7 12.7 56.7 12.9 56.8 13.1 C 56.9 13.2 57 13.4 57.1 13.4 C 57.1 13.5 57.1 13.5 57.1 13.5 C 57.1 13.5 57.2 13.6 57.2 13.6 C 57.2 13.6 57.1 13.6 57.1 13.7 C 57.1 13.7 57.1 13.7 57 13.7 C 56.9 13.7 56.8 13.5 56.6 13.2 C 56.6 13.1 56.5 13 56.5 13 C 56.5 13 56.4 13 56.2 13 C 56.1 13 56 13.1 55.9 13.1 C 55.8 13.1 55.8 13.1 55.7 13.1 C 55.7 13.1 55.7 13.1 55.7 13.1 C 55.7 13.1 55.7 13.1 55.7 13.1 C 55.6 13.1 55.6 13.2 55.5 13.3 C 55.4 13.5 55.4 13.6 55.3 13.6 C 55.3 13.6 55.3 13.7 55.2 13.7 C 55.2 13.7 55.2 13.6 55.2 13.6 C 55.1 13.6 55.1 13.6 55.1 13.5 C 55.1 13.5 55.1 13.5 55.2 13.4 C 55.2 13.4 55.2 13.3 55.3 13.1 C 55.5 12.9 55.7 12.6 55.8 12.4 C 56 12.1 56.1 11.9 56.1 11.8 C 56.2 11.7 56.2 11.7 56.3 11.7 C 56.3 11.7 56.3 11.7 56.3 11.7 Z M 56 12.9 C 56.3 12.8 56.4 12.8 56.5 12.8 C 56.4 12.7 56.4 12.6 56.3 12.4 C 56.3 12.2 56.2 12.1 56.2 12 C 56.2 12.1 56.1 12.3 56 12.5 C 56 12.5 55.7 12.9 55.7 12.9 C 55.8 12.9 55.8 12.9 55.9 12.9 C 55.9 12.9 56 12.9 56 12.9 C 56 12.9 56 12.9 56 12.9 Z M 56.3 11.3 C 56.3 11.3 56.3 11.3 56.3 11.3 C 56.3 11.3 56.3 11.3 56.3 11.2 C 56.2 11.2 56.2 11.2 56.1 11.2 C 56.1 11.2 56.1 11.2 56 11.2 C 56 11.2 56 11.3 55.9 11.3 C 55.9 11.4 55.9 11.4 55.8 11.4 C 55.8 11.4 55.8 11.4 55.8 11.4 C 55.7 11.4 55.7 11.4 55.7 11.4 C 55.7 11.3 55.8 11.2 55.9 11.1 C 55.9 11 56 11 56.1 11 C 56.2 11 56.2 11 56.2 11 C 56.3 11 56.3 11 56.3 11.1 C 56.4 11.1 56.4 11.1 56.4 11.2 C 56.4 11.2 56.4 11.2 56.5 11.2 C 56.5 11.2 56.6 11.3 56.6 11.3 C 56.6 11.3 56.6 11.2 56.6 11.2 C 56.7 11.2 56.7 11.2 56.7 11.1 C 56.8 11.1 56.8 11 56.8 11 C 56.9 11 56.9 11.1 56.9 11.1 C 56.9 11.1 56.9 11.2 56.8 11.3 C 56.7 11.4 56.7 11.4 56.6 11.4 C 56.5 11.4 56.5 11.4 56.4 11.4 C 56.4 11.4 56.3 11.3 56.3 11.3 C 56.3 11.3 56.3 11.3 56.3 11.3 Z M 57.8 13.7 C 57.7 13.7 57.5 13.6 57.4 13.5 C 57.3 13.4 57.3 13.2 57.3 13.1 C 57.3 12.9 57.3 12.7 57.4 12.5 C 57.5 12.2 57.7 12.1 57.8 11.9 C 58 11.8 58.2 11.7 58.4 11.7 C 58.5 11.7 58.6 11.7 58.7 11.7 C 58.8 11.8 58.9 11.8 59 11.9 C 59.1 12 59.1 12 59.1 12.1 C 59.2 12.2 59.2 12.3 59.2 12.4 C 59.2 12.5 59.1 12.7 59.1 12.8 C 59 13 58.9 13.1 58.7 13.3 C 58.6 13.4 58.4 13.5 58.3 13.6 C 58.2 13.7 58 13.7 57.8 13.7 Z M 57.5 13 C 57.5 13.2 57.5 13.3 57.6 13.4 C 57.7 13.4 57.8 13.5 57.9 13.5 C 58.1 13.5 58.4 13.4 58.6 13.1 C 58.8 12.9 58.9 12.6 58.9 12.3 C 58.9 12.2 58.9 12.2 58.9 12.1 C 58.8 12 58.8 12 58.7 11.9 C 58.6 11.9 58.5 11.9 58.4 11.9 C 58.2 11.9 58 12 57.8 12.3 C 57.6 12.5 57.5 12.8 57.5 13 Z M 59.4 13.2 C 59.4 13.2 59.4 13.2 59.4 13.2 C 59.5 13.2 59.5 13.3 59.5 13.3 C 59.5 13.3 59.5 13.3 59.5 13.3 C 59.5 13.4 59.5 13.4 59.5 13.4 C 59.5 13.5 59.5 13.5 59.4 13.5 C 59.4 13.6 59.3 13.6 59.3 13.6 C 59.3 13.6 59.3 13.6 59.2 13.5 C 59.2 13.5 59.2 13.5 59.2 13.4 C 59.2 13.3 59.2 13.3 59.2 13.3 C 59.2 13.3 59.3 13.3 59.3 13.3 C 59.3 13.2 59.4 13.2 59.4 13.2 Z " stroke="none" fill="#000"/>  </g>  <g id="Polygon15756">    <path d="M 5.6 9.5 C 5.7 9.3 5.8 9.1 5.8 8.8 C 5.9 8.5 5.9 8.3 5.9 8.1 C 5.9 8.1 5.9 8 5.9 8 C 5.9 8 5.9 8 6 7.9 C 6 7.9 6 7.9 6.1 7.9 C 6.1 7.9 6.1 7.9 6.1 8 C 6.1 8 6.1 8.1 6.1 8.1 C 6.1 8.1 6.1 8.2 6.1 8.3 C 6.1 8.5 6 8.8 5.9 9.1 C 5.9 9.4 5.9 9.5 5.9 9.6 C 5.9 9.7 5.9 9.7 5.9 9.8 C 5.9 9.8 5.9 9.8 5.8 9.9 C 5.8 9.9 5.8 9.9 5.7 9.9 C 5.7 9.9 5.6 9.9 5.6 9.9 C 5.6 9.9 5.6 9.9 5.6 9.8 C 5.5 9.8 5.5 9.7 5.5 9.7 C 5.5 9.7 5.5 9.6 5.4 9.6 C 5.2 9.3 4.9 8.9 4.7 8.5 C 4.7 8.7 4.6 9 4.6 9.4 C 4.6 9.4 4.6 9.6 4.6 9.6 C 4.6 9.6 4.6 9.6 4.6 9.7 C 4.6 9.8 4.5 9.8 4.5 9.8 C 4.5 9.9 4.5 9.9 4.5 9.9 C 4.5 10 4.4 10 4.4 10 C 4.4 10 4.3 9.9 4.3 9.9 C 4.3 9.8 4.3 9.8 4.3 9.8 C 4.3 9.7 4.3 9.6 4.4 9.5 C 4.4 9.3 4.4 9.1 4.5 8.8 C 4.5 8.5 4.6 8.3 4.6 8.2 C 4.6 8.2 4.6 8.2 4.6 8.2 C 4.6 8.1 4.6 8.1 4.6 8.1 C 4.6 8.1 4.6 8.1 4.6 8.1 C 4.7 8 4.7 8 4.7 8 C 4.7 8 4.8 8 4.8 8 C 4.8 8.1 4.8 8.1 4.8 8.1 C 4.8 8.1 4.8 8.2 4.9 8.2 C 4.9 8.4 5 8.6 5.2 8.9 C 5.4 9.2 5.5 9.4 5.6 9.5 Z M 7.3 8 C 7.4 8 7.4 8 7.5 8 C 7.5 8 7.5 8 7.5 8.1 C 7.5 8.1 7.5 8.1 7.5 8.1 C 7.5 8.1 7.5 8.2 7.5 8.2 C 7.5 8.3 7.6 8.4 7.6 8.5 C 7.6 8.5 7.6 8.6 7.7 8.7 C 7.8 9 7.8 9.2 7.9 9.3 C 8 9.5 8.1 9.6 8.2 9.7 C 8.2 9.7 8.2 9.8 8.2 9.8 C 8.2 9.8 8.3 9.8 8.3 9.8 C 8.3 9.9 8.2 9.9 8.2 9.9 C 8.2 10 8.2 10 8.1 10 C 8 10 7.9 9.8 7.7 9.4 C 7.7 9.3 7.6 9.2 7.6 9.2 C 7.6 9.2 7.5 9.3 7.3 9.3 C 7.2 9.3 7.1 9.3 7 9.4 C 6.9 9.4 6.8 9.4 6.8 9.4 C 6.8 9.4 6.8 9.4 6.8 9.4 C 6.8 9.4 6.8 9.4 6.7 9.4 C 6.7 9.4 6.7 9.4 6.6 9.5 C 6.5 9.7 6.5 9.8 6.4 9.9 C 6.4 9.9 6.4 9.9 6.3 9.9 C 6.3 9.9 6.3 9.9 6.3 9.9 C 6.2 9.9 6.2 9.8 6.2 9.8 C 6.2 9.8 6.2 9.7 6.2 9.7 C 6.3 9.6 6.3 9.5 6.4 9.4 C 6.6 9.1 6.8 8.9 6.9 8.7 C 7.1 8.3 7.2 8.1 7.2 8 C 7.3 8 7.3 8 7.3 8 C 7.3 8 7.3 8 7.3 8 Z M 7.1 9.1 C 7.4 9.1 7.5 9 7.6 9 C 7.5 9 7.5 8.8 7.4 8.7 C 7.4 8.5 7.3 8.3 7.3 8.3 C 7.3 8.4 7.2 8.5 7.1 8.7 C 7.1 8.7 6.8 9.2 6.8 9.2 C 6.9 9.2 6.9 9.1 7 9.1 C 7 9.1 7.1 9.1 7.1 9.1 C 7.1 9.1 7.1 9.1 7.1 9.1 Z M 9.6 9.6 C 9.7 9.5 9.7 9.5 9.7 9.5 C 9.8 9.5 9.8 9.5 9.8 9.5 C 9.8 9.6 9.8 9.6 9.7 9.7 C 9.6 9.8 9.4 9.9 9.3 9.9 C 9.2 10 9.1 10 9 10 C 8.8 10 8.7 9.9 8.6 9.8 C 8.4 9.7 8.4 9.6 8.4 9.4 C 8.4 9 8.5 8.7 8.8 8.4 C 9.1 8 9.4 7.9 9.7 7.9 C 9.8 7.9 9.9 7.9 9.9 8 C 10 8 10 8.1 10 8.2 C 10 8.3 10 8.3 10 8.4 C 10 8.4 10 8.5 9.9 8.5 C 9.9 8.5 9.9 8.5 9.8 8.5 C 9.8 8.5 9.8 8.5 9.8 8.5 C 9.8 8.5 9.8 8.5 9.8 8.4 C 9.8 8.4 9.8 8.4 9.8 8.3 C 9.8 8.3 9.8 8.2 9.8 8.2 C 9.8 8.1 9.8 8 9.7 8 C 9.6 8 9.4 8.1 9.2 8.3 C 9.1 8.4 8.9 8.6 8.8 8.8 C 8.7 9 8.6 9.2 8.6 9.4 C 8.6 9.5 8.6 9.6 8.7 9.7 C 8.8 9.7 8.9 9.8 9 9.8 C 9.1 9.8 9.2 9.8 9.3 9.7 C 9.4 9.7 9.5 9.6 9.6 9.6 C 9.6 9.6 9.6 9.6 9.6 9.6 Z M 10.7 8.1 C 10.7 8.2 10.7 8.3 10.6 8.5 C 10.6 8.6 10.6 8.7 10.6 8.7 C 10.6 8.8 10.6 8.8 10.6 8.9 C 10.5 9.1 10.5 9.3 10.5 9.4 C 10.5 9.5 10.5 9.6 10.5 9.7 C 10.6 9.8 10.5 9.8 10.5 9.9 C 10.5 9.9 10.4 9.9 10.4 9.9 C 10.4 9.9 10.3 9.9 10.3 9.8 C 10.3 9.8 10.3 9.7 10.3 9.6 C 10.3 9.5 10.3 9.3 10.3 9.1 C 10.3 9 10.4 8.9 10.4 8.9 C 10.4 8.9 10.4 8.9 10.4 8.8 C 10.4 8.8 10.4 8.8 10.4 8.7 C 10.4 8.7 10.4 8.5 10.4 8.4 C 10.4 8.3 10.5 8.2 10.5 8.2 C 10.5 8.1 10.5 8.1 10.5 8.1 C 10.5 8 10.5 8 10.5 8 C 10.6 8 10.6 8 10.6 8 C 10.7 8 10.7 8 10.7 8 C 10.7 8 10.7 8.1 10.7 8.1 Z M 11.5 10 C 11.4 10 11.2 9.9 11.1 9.8 C 11 9.6 11 9.5 11 9.3 C 11 9.1 11 8.9 11.1 8.7 C 11.2 8.5 11.4 8.3 11.5 8.2 C 11.7 8 11.9 8 12.1 8 C 12.2 8 12.3 8 12.4 8 C 12.5 8 12.6 8.1 12.7 8.2 C 12.8 8.2 12.8 8.3 12.8 8.4 C 12.9 8.4 12.9 8.5 12.9 8.7 C 12.9 8.8 12.8 8.9 12.8 9.1 C 12.7 9.2 12.6 9.4 12.4 9.5 C 12.3 9.7 12.1 9.8 12 9.9 C 11.9 9.9 11.7 10 11.5 10 Z M 11.2 9.3 C 11.2 9.4 11.2 9.5 11.3 9.6 C 11.4 9.7 11.5 9.7 11.6 9.7 C 11.8 9.7 12.1 9.6 12.3 9.4 C 12.5 9.1 12.6 8.9 12.6 8.6 C 12.6 8.5 12.6 8.4 12.6 8.4 C 12.5 8.3 12.5 8.3 12.4 8.2 C 12.3 8.2 12.2 8.1 12.1 8.1 C 11.9 8.1 11.7 8.3 11.5 8.5 C 11.3 8.8 11.2 9.1 11.2 9.3 Z M 14.5 9.5 C 14.5 9.3 14.6 9.1 14.6 8.8 C 14.7 8.5 14.7 8.3 14.7 8.1 C 14.7 8.1 14.7 8 14.7 8 C 14.7 8 14.7 8 14.8 7.9 C 14.8 7.9 14.8 7.9 14.9 7.9 C 14.9 7.9 14.9 7.9 14.9 8 C 14.9 8 15 8.1 15 8.1 C 15 8.1 14.9 8.2 14.9 8.3 C 14.9 8.5 14.8 8.8 14.7 9.1 C 14.7 9.4 14.7 9.5 14.7 9.6 C 14.7 9.7 14.7 9.7 14.7 9.8 C 14.7 9.8 14.7 9.8 14.6 9.9 C 14.6 9.9 14.6 9.9 14.5 9.9 C 14.5 9.9 14.4 9.9 14.4 9.9 C 14.4 9.9 14.4 9.9 14.4 9.8 C 14.3 9.8 14.3 9.7 14.3 9.7 C 14.3 9.7 14.3 9.6 14.2 9.6 C 14 9.3 13.8 8.9 13.6 8.5 C 13.5 8.7 13.4 9 13.4 9.4 C 13.4 9.4 13.4 9.6 13.4 9.6 C 13.4 9.6 13.4 9.6 13.4 9.7 C 13.4 9.8 13.4 9.8 13.3 9.8 C 13.3 9.9 13.3 9.9 13.3 9.9 C 13.3 10 13.2 10 13.2 10 C 13.2 10 13.1 9.9 13.1 9.9 C 13.1 9.8 13.1 9.8 13.1 9.8 C 13.1 9.7 13.1 9.6 13.2 9.5 C 13.2 9.3 13.2 9.1 13.3 8.8 C 13.4 8.5 13.4 8.3 13.4 8.2 C 13.4 8.2 13.4 8.2 13.4 8.2 C 13.4 8.1 13.4 8.1 13.4 8.1 C 13.4 8.1 13.4 8.1 13.4 8.1 C 13.5 8 13.5 8 13.5 8 C 13.5 8 13.6 8 13.6 8 C 13.6 8.1 13.6 8.1 13.6 8.1 C 13.6 8.1 13.6 8.2 13.7 8.2 C 13.7 8.4 13.8 8.6 14 8.9 C 14.2 9.2 14.3 9.4 14.5 9.5 Z M 16.2 8 C 16.2 8 16.3 8 16.3 8 C 16.3 8 16.3 8 16.3 8.1 C 16.3 8.1 16.3 8.1 16.3 8.1 C 16.3 8.1 16.3 8.2 16.3 8.2 C 16.3 8.3 16.4 8.4 16.4 8.5 C 16.4 8.5 16.5 8.6 16.5 8.7 C 16.6 9 16.6 9.2 16.7 9.3 C 16.8 9.5 16.9 9.6 17 9.7 C 17 9.7 17 9.8 17 9.8 C 17 9.8 17.1 9.8 17.1 9.8 C 17.1 9.9 17 9.9 17 9.9 C 17 10 17 10 16.9 10 C 16.8 10 16.7 9.8 16.5 9.4 C 16.5 9.3 16.4 9.2 16.4 9.2 C 16.4 9.2 16.3 9.3 16.1 9.3 C 16 9.3 15.9 9.3 15.8 9.4 C 15.7 9.4 15.7 9.4 15.6 9.4 C 15.6 9.4 15.6 9.4 15.6 9.4 C 15.6 9.4 15.6 9.4 15.6 9.4 C 15.5 9.4 15.5 9.4 15.4 9.5 C 15.3 9.7 15.3 9.8 15.2 9.9 C 15.2 9.9 15.2 9.9 15.1 9.9 C 15.1 9.9 15.1 9.9 15.1 9.9 C 15 9.9 15 9.8 15 9.8 C 15 9.8 15 9.7 15.1 9.7 C 15.1 9.6 15.1 9.5 15.2 9.4 C 15.4 9.1 15.6 8.9 15.7 8.7 C 15.9 8.3 16 8.1 16 8 C 16.1 8 16.1 8 16.2 8 C 16.2 8 16.2 8 16.2 8 Z M 15.9 9.1 C 16.2 9.1 16.3 9 16.4 9 C 16.3 9 16.3 8.8 16.2 8.7 C 16.2 8.5 16.1 8.3 16.1 8.3 C 16.1 8.4 16 8.5 15.9 8.7 C 15.9 8.7 15.6 9.2 15.6 9.2 C 15.7 9.2 15.7 9.1 15.8 9.1 C 15.8 9.1 15.9 9.1 15.9 9.1 C 15.9 9.1 15.9 9.1 15.9 9.1 Z M 17.3 9.7 C 17.3 9.6 17.3 9.5 17.3 9.5 C 17.3 9.5 17.3 9.4 17.3 9.2 C 17.4 9 17.4 8.8 17.4 8.5 C 17.4 8.2 17.4 8.1 17.4 8.1 C 17.5 8 17.5 8 17.5 8 C 17.5 8 17.5 8 17.6 8 C 17.6 8 17.6 8 17.7 8 C 17.7 8 17.7 8 17.7 8.1 C 17.7 8.1 17.7 8.2 17.7 8.3 C 17.7 8.4 17.6 8.6 17.6 9 C 17.5 9.3 17.5 9.5 17.5 9.6 C 17.5 9.6 17.5 9.6 17.5 9.6 C 17.5 9.6 17.6 9.6 17.6 9.6 C 17.6 9.6 17.7 9.6 17.9 9.6 C 18 9.6 18.1 9.6 18.4 9.6 C 18.4 9.6 18.5 9.6 18.6 9.5 C 18.6 9.5 18.6 9.5 18.6 9.5 C 18.6 9.5 18.7 9.5 18.7 9.6 C 18.7 9.6 18.7 9.6 18.7 9.6 C 18.7 9.7 18.7 9.7 18.7 9.8 C 18.6 9.8 18.6 9.8 18.5 9.8 C 18.5 9.8 18.5 9.8 18.4 9.8 C 18.4 9.8 18.3 9.8 18.3 9.8 C 18 9.8 17.7 9.8 17.5 9.9 C 17.4 9.9 17.4 9.9 17.4 9.9 C 17.3 9.9 17.3 9.9 17.3 9.9 C 17.2 9.9 17.2 9.8 17.2 9.8 C 17.2 9.8 17.2 9.7 17.3 9.7 C 17.3 9.7 17.3 9.7 17.3 9.7 Z M 20 8.6 C 19.9 8.3 19.8 8.2 19.8 8.2 C 19.8 8.1 19.9 8.1 19.9 8.1 C 19.9 8 19.9 8 20 8 C 20 8 20.1 8.1 20.1 8.3 C 20.1 8.4 20.3 8.9 20.6 9.6 C 20.6 9.5 20.7 9.4 20.7 9.4 C 20.9 9.1 21 8.9 21.1 8.8 C 21.4 8.2 21.6 7.9 21.7 7.9 C 21.8 7.9 21.8 7.9 21.8 8 C 21.8 8 21.8 8 21.8 8.1 C 21.8 8.1 21.7 8.1 21.7 8.2 C 21.5 8.4 21.4 8.7 21.2 9 C 21.1 9.2 21 9.3 20.9 9.5 C 20.8 9.6 20.8 9.7 20.7 9.8 C 20.7 9.8 20.7 9.8 20.7 9.8 C 20.6 9.9 20.6 9.9 20.5 9.9 C 20.5 9.9 20.4 9.8 20.4 9.5 C 20.3 9.4 20.2 9.1 20 8.6 C 20 8.6 20 8.6 20 8.6 Z M 22.2 10 C 22.1 10 21.9 9.9 21.8 9.8 C 21.7 9.6 21.7 9.5 21.7 9.3 C 21.7 9.1 21.7 8.9 21.8 8.7 C 21.9 8.5 22.1 8.3 22.2 8.2 C 22.4 8 22.6 8 22.8 8 C 22.9 8 23 8 23.1 8 C 23.2 8 23.3 8.1 23.4 8.2 C 23.5 8.2 23.5 8.3 23.5 8.4 C 23.6 8.4 23.6 8.5 23.6 8.7 C 23.6 8.8 23.5 8.9 23.5 9.1 C 23.4 9.2 23.3 9.4 23.1 9.5 C 23 9.7 22.8 9.8 22.7 9.9 C 22.6 9.9 22.4 10 22.2 10 Z M 21.9 9.3 C 21.9 9.4 21.9 9.5 22 9.6 C 22.1 9.7 22.2 9.7 22.3 9.7 C 22.5 9.7 22.8 9.6 23 9.4 C 23.2 9.1 23.3 8.9 23.3 8.6 C 23.3 8.5 23.3 8.4 23.3 8.4 C 23.2 8.3 23.2 8.3 23.1 8.2 C 23 8.2 22.9 8.1 22.8 8.1 C 22.6 8.1 22.4 8.3 22.2 8.5 C 22 8.8 21.9 9.1 21.9 9.3 Z M 23.8 9.7 C 23.8 9.6 23.9 9.5 23.9 9.5 C 23.9 9.5 23.9 9.4 23.9 9.2 C 23.9 9 24 8.8 24 8.5 C 24 8.2 24 8.1 24 8.1 C 24 8 24 8 24.1 8 C 24.1 8 24.1 8 24.2 8 C 24.2 8 24.2 8 24.2 8 C 24.3 8 24.3 8 24.3 8.1 C 24.3 8.1 24.3 8.2 24.2 8.3 C 24.2 8.4 24.2 8.6 24.1 9 C 24.1 9.3 24.1 9.5 24.1 9.6 C 24.1 9.6 24.1 9.6 24.1 9.6 C 24.1 9.6 24.1 9.6 24.2 9.6 C 24.2 9.6 24.3 9.6 24.4 9.6 C 24.5 9.6 24.7 9.6 25 9.6 C 25 9.6 25.1 9.6 25.1 9.5 C 25.2 9.5 25.2 9.5 25.2 9.5 C 25.2 9.5 25.2 9.5 25.3 9.6 C 25.3 9.6 25.3 9.6 25.3 9.6 C 25.3 9.7 25.3 9.7 25.2 9.8 C 25.2 9.8 25.1 9.8 25.1 9.8 C 25.1 9.8 25 9.8 25 9.8 C 24.9 9.8 24.9 9.8 24.9 9.8 C 24.6 9.8 24.3 9.8 24 9.9 C 24 9.9 24 9.9 23.9 9.9 C 23.9 9.9 23.9 9.9 23.8 9.9 C 23.8 9.9 23.8 9.8 23.8 9.8 C 23.8 9.8 23.8 9.7 23.8 9.7 C 23.8 9.7 23.8 9.7 23.8 9.7 Z M 25.4 8.3 C 25.3 8.3 25.2 8.3 25.2 8.3 C 25.2 8.3 25.2 8.2 25.2 8.2 C 25.2 8.2 25.2 8.1 25.2 8.1 C 25.2 8.1 25.3 8.1 25.5 8.1 C 25.6 8.1 25.8 8.1 25.9 8.1 C 26.1 8.1 26.3 8.1 26.6 8 C 26.7 8 26.8 8 26.9 8 C 26.9 8 27 8 27 8 C 27.1 8 27.1 8 27.1 8 C 27.1 8 27.2 8 27.2 8.1 C 27.2 8.1 27.2 8.1 27.2 8.1 C 27.2 8.2 27.2 8.2 27.1 8.2 C 27.1 8.2 27 8.2 27 8.2 C 26.9 8.2 26.9 8.2 26.8 8.2 C 26.7 8.2 26.6 8.2 26.5 8.2 C 26.3 8.2 26.3 8.3 26.3 8.3 C 26.2 8.3 26.2 8.5 26.2 8.8 C 26.2 9.1 26.1 9.3 26.1 9.5 C 26.1 9.6 26.2 9.6 26.2 9.7 C 26.2 9.8 26.2 9.8 26.2 9.8 C 26.2 9.8 26.2 9.8 26.2 9.9 C 26.1 9.9 26.1 9.9 26.1 9.9 C 26 9.9 26 9.9 26 9.8 C 25.9 9.8 25.9 9.7 25.9 9.5 C 25.9 9.3 26 8.9 26 8.4 C 26 8.3 26 8.3 26 8.3 C 26 8.3 26 8.3 26 8.3 C 25.9 8.3 25.8 8.3 25.7 8.3 C 25.5 8.3 25.4 8.3 25.4 8.3 C 25.4 8.3 25.4 8.3 25.4 8.3 Z M 27.9 8 C 28 8 28 8 28 8 C 28 8 28 8 28 8.1 C 28 8.1 28 8.1 28 8.1 C 28 8.1 28.1 8.2 28.1 8.2 C 28.1 8.3 28.1 8.4 28.1 8.5 C 28.2 8.5 28.2 8.6 28.2 8.7 C 28.3 9 28.4 9.2 28.5 9.3 C 28.6 9.5 28.6 9.6 28.7 9.7 C 28.8 9.7 28.8 9.8 28.8 9.8 C 28.8 9.8 28.8 9.8 28.8 9.8 C 28.8 9.9 28.8 9.9 28.8 9.9 C 28.7 10 28.7 10 28.7 10 C 28.6 10 28.4 9.8 28.3 9.4 C 28.2 9.3 28.2 9.2 28.2 9.2 C 28.1 9.2 28 9.3 27.9 9.3 C 27.8 9.3 27.6 9.3 27.5 9.4 C 27.4 9.4 27.4 9.4 27.4 9.4 C 27.4 9.4 27.3 9.4 27.3 9.4 C 27.3 9.4 27.3 9.4 27.3 9.4 C 27.3 9.4 27.2 9.4 27.2 9.5 C 27.1 9.7 27 9.8 27 9.9 C 27 9.9 26.9 9.9 26.9 9.9 C 26.9 9.9 26.8 9.9 26.8 9.9 C 26.8 9.9 26.8 9.8 26.8 9.8 C 26.8 9.8 26.8 9.7 26.8 9.7 C 26.8 9.6 26.9 9.5 27 9.4 C 27.2 9.1 27.3 8.9 27.4 8.7 C 27.6 8.3 27.7 8.1 27.8 8 C 27.8 8 27.9 8 27.9 8 C 27.9 8 27.9 8 27.9 8 Z M 27.7 9.1 C 27.9 9.1 28.1 9 28.1 9 C 28.1 9 28 8.8 28 8.7 C 27.9 8.5 27.9 8.3 27.9 8.3 C 27.8 8.4 27.7 8.5 27.6 8.7 C 27.6 8.7 27.4 9.2 27.4 9.2 C 27.4 9.2 27.5 9.1 27.5 9.1 C 27.6 9.1 27.7 9.1 27.7 9.1 C 27.7 9.1 27.7 9.1 27.7 9.1 Z M 29.4 8 C 29.6 8 29.8 8 29.9 8 C 30.1 8 30.3 8 30.4 8.1 C 30.5 8.2 30.5 8.3 30.5 8.4 C 30.5 8.5 30.5 8.7 30.4 8.8 C 30.2 8.9 30.1 9 29.9 9.1 C 29.9 9.1 29.9 9.1 29.9 9.1 C 29.9 9.1 30 9.2 30.2 9.3 C 30.3 9.5 30.5 9.6 30.7 9.7 C 30.7 9.7 30.7 9.7 30.7 9.8 C 30.7 9.8 30.7 9.8 30.7 9.9 C 30.6 9.9 30.6 9.9 30.6 9.9 C 30.5 9.9 30.5 9.9 30.3 9.8 C 30.2 9.7 30.1 9.6 30 9.5 C 29.7 9.3 29.6 9.2 29.6 9.2 C 29.5 9.2 29.5 9.1 29.4 9.1 C 29.4 9.1 29.4 9.1 29.4 9 C 29.4 9 29.4 9 29.4 9 C 29.5 8.9 29.5 8.9 29.6 8.9 C 29.6 8.9 29.6 8.9 29.6 8.9 C 29.7 8.9 29.7 8.9 29.7 8.9 C 29.8 8.9 29.9 8.9 30.1 8.8 C 30.2 8.7 30.3 8.6 30.3 8.4 C 30.3 8.3 30.3 8.3 30.2 8.2 C 30.1 8.2 30 8.1 29.9 8.1 C 29.8 8.1 29.7 8.2 29.6 8.2 C 29.6 8.2 29.5 8.2 29.5 8.2 C 29.5 8.2 29.4 8.2 29.4 8.3 C 29.4 8.3 29.4 8.4 29.3 8.6 C 29.3 8.8 29.3 9 29.3 9.2 C 29.2 9.3 29.2 9.5 29.2 9.5 C 29.2 9.6 29.2 9.7 29.2 9.7 C 29.3 9.7 29.3 9.8 29.3 9.8 C 29.3 9.8 29.2 9.9 29.2 9.9 C 29.2 9.9 29.2 9.9 29.1 9.9 C 29 9.9 29 9.9 29 9.7 C 29 9.4 29.1 8.9 29.2 8.3 C 29.2 8.3 29.2 8.3 29.2 8.3 C 29.2 8.3 29.2 8.3 29.2 8.2 C 29.1 8.2 29.1 8.2 29.1 8.1 C 29.1 8.1 29.1 8.1 29.2 8 C 29.2 8 29.2 8 29.3 8 C 29.3 8 29.4 8 29.4 8 Z M 31.8 8 C 31.9 8 31.9 8 32 8 C 32 8 32 8 32 8.1 C 32 8.1 32 8.1 32 8.1 C 32 8.1 32 8.2 32 8.2 C 32 8.3 32 8.4 32.1 8.5 C 32.1 8.5 32.1 8.6 32.2 8.7 C 32.2 9 32.3 9.2 32.4 9.3 C 32.5 9.5 32.6 9.6 32.6 9.7 C 32.7 9.7 32.7 9.8 32.7 9.8 C 32.7 9.8 32.7 9.8 32.7 9.8 C 32.7 9.9 32.7 9.9 32.7 9.9 C 32.7 10 32.6 10 32.6 10 C 32.5 10 32.4 9.8 32.2 9.4 C 32.1 9.3 32.1 9.2 32.1 9.2 C 32 9.2 31.9 9.3 31.8 9.3 C 31.7 9.3 31.5 9.3 31.4 9.4 C 31.4 9.4 31.3 9.4 31.3 9.4 C 31.3 9.4 31.3 9.4 31.2 9.4 C 31.2 9.4 31.2 9.4 31.2 9.4 C 31.2 9.4 31.2 9.4 31.1 9.5 C 31 9.7 30.9 9.8 30.9 9.9 C 30.9 9.9 30.8 9.9 30.8 9.9 C 30.8 9.9 30.8 9.9 30.7 9.9 C 30.7 9.9 30.7 9.8 30.7 9.8 C 30.7 9.8 30.7 9.7 30.7 9.7 C 30.8 9.6 30.8 9.5 30.9 9.4 C 31.1 9.1 31.2 8.9 31.4 8.7 C 31.5 8.3 31.7 8.1 31.7 8 C 31.8 8 31.8 8 31.8 8 C 31.8 8 31.8 8 31.8 8 Z M 31.6 9.1 C 31.9 9.1 32 9 32 9 C 32 9 32 8.8 31.9 8.7 C 31.8 8.5 31.8 8.3 31.8 8.3 C 31.7 8.4 31.7 8.5 31.6 8.7 C 31.6 8.7 31.3 9.2 31.3 9.2 C 31.3 9.2 31.4 9.1 31.5 9.1 C 31.5 9.1 31.6 9.1 31.6 9.1 C 31.6 9.1 31.6 9.1 31.6 9.1 Z M 32.4 7.3 C 32.4 7.3 32.4 7.3 32.4 7.3 C 32.4 7.3 32.4 7.3 32.4 7.3 C 32.3 7.3 32.2 7.4 32 7.6 C 31.9 7.6 31.9 7.7 31.8 7.7 C 31.8 7.7 31.8 7.7 31.8 7.7 C 31.8 7.7 31.8 7.7 31.7 7.7 C 31.7 7.6 31.7 7.6 31.7 7.6 C 31.7 7.6 31.8 7.5 31.9 7.4 C 32.1 7.3 32.2 7.2 32.3 7.1 C 32.3 7.1 32.4 7.1 32.4 7.1 C 32.4 7.1 32.4 7.1 32.4 7.1 C 32.4 7.1 32.4 7.1 32.4 7.1 C 32.5 7.2 32.5 7.2 32.5 7.2 C 32.5 7.2 32.5 7.2 32.5 7.2 C 32.4 7.3 32.4 7.3 32.4 7.3 Z M 34.9 8 C 34.9 8 35 8 35 8 C 35 8 35 8 35 8.1 C 35 8.1 35 8.1 35 8.1 C 35 8.1 35 8.2 35 8.2 C 35 8.3 35.1 8.4 35.1 8.5 C 35.1 8.5 35.2 8.6 35.2 8.7 C 35.3 9 35.4 9.2 35.4 9.3 C 35.5 9.5 35.6 9.6 35.7 9.7 C 35.7 9.7 35.7 9.8 35.7 9.8 C 35.8 9.8 35.8 9.8 35.8 9.8 C 35.8 9.9 35.8 9.9 35.7 9.9 C 35.7 10 35.7 10 35.6 10 C 35.5 10 35.4 9.8 35.2 9.4 C 35.2 9.3 35.1 9.2 35.1 9.2 C 35.1 9.2 35 9.3 34.8 9.3 C 34.7 9.3 34.6 9.3 34.5 9.4 C 34.4 9.4 34.4 9.4 34.3 9.4 C 34.3 9.4 34.3 9.4 34.3 9.4 C 34.3 9.4 34.3 9.4 34.3 9.4 C 34.2 9.4 34.2 9.4 34.1 9.5 C 34 9.7 34 9.8 33.9 9.9 C 33.9 9.9 33.9 9.9 33.8 9.9 C 33.8 9.9 33.8 9.9 33.8 9.9 C 33.7 9.9 33.7 9.8 33.7 9.8 C 33.7 9.8 33.7 9.7 33.8 9.7 C 33.8 9.6 33.9 9.5 34 9.4 C 34.1 9.1 34.3 8.9 34.4 8.7 C 34.6 8.3 34.7 8.1 34.7 8 C 34.8 8 34.8 8 34.9 8 C 34.9 8 34.9 8 34.9 8 Z M 34.7 9.1 C 34.9 9.1 35 9 35.1 9 C 35 9 35 8.8 34.9 8.7 C 34.9 8.5 34.8 8.3 34.8 8.3 C 34.8 8.4 34.7 8.5 34.6 8.7 C 34.6 8.7 34.4 9.2 34.4 9.2 C 34.4 9.2 34.4 9.1 34.5 9.1 C 34.6 9.1 34.6 9.1 34.7 9.1 C 34.7 9.1 34.7 9.1 34.7 9.1 Z M 38.2 8.4 C 38.2 8.3 38.2 8.2 38.1 8.2 C 38.1 8.2 38 8.2 37.9 8.2 C 37.7 8.2 37.6 8.2 37.4 8.3 C 37.3 8.3 37.2 8.4 37.2 8.5 C 37.2 8.6 37.2 8.7 37.3 8.7 C 37.3 8.8 37.5 8.8 37.7 8.9 C 37.9 9 38.1 9 38.2 9.1 C 38.3 9.2 38.3 9.2 38.3 9.3 C 38.3 9.4 38.3 9.5 38.1 9.6 C 38 9.8 37.8 9.8 37.7 9.9 C 37.5 10 37.3 10 37.2 10 C 37.1 10 37 10 37 9.9 C 36.9 9.9 36.9 9.9 36.9 9.8 C 36.9 9.8 36.9 9.8 36.9 9.8 C 36.9 9.7 36.9 9.7 37 9.7 C 37 9.7 37 9.7 37 9.7 C 37.1 9.7 37.2 9.8 37.3 9.8 C 37.5 9.8 37.6 9.7 37.8 9.6 C 38 9.5 38.1 9.4 38.1 9.3 C 38.1 9.3 38.1 9.3 38 9.2 C 37.9 9.2 37.8 9.2 37.6 9.1 C 37.3 9 37.1 8.9 37.1 8.8 C 37 8.7 37 8.6 37 8.6 C 37 8.4 37.1 8.2 37.3 8.1 C 37.5 8 37.7 8 37.9 8 C 38.1 8 38.2 8 38.3 8 C 38.3 8.1 38.4 8.1 38.4 8.2 C 38.4 8.2 38.4 8.3 38.4 8.3 C 38.3 8.4 38.3 8.4 38.2 8.4 Z M 40.1 8.2 C 40.1 8.2 40.1 8.2 40 8.2 C 40 8.2 39.9 8.2 39.9 8.2 C 39.8 8.2 39.8 8.2 39.8 8.2 C 39.7 8.2 39.7 8.2 39.7 8.2 C 39.7 8.2 39.6 8.2 39.5 8.2 C 39.3 8.2 39.2 8.3 39.2 8.3 C 39.1 8.3 39.1 8.3 39.1 8.4 C 39.1 8.4 39.1 8.5 39.1 8.6 C 39 8.7 39 8.8 39 8.9 C 39 8.9 39 8.9 39 8.9 C 39 8.9 39.1 8.9 39.3 8.9 C 39.4 8.9 39.5 8.9 39.5 8.8 C 39.7 8.8 39.8 8.8 39.8 8.8 C 39.9 8.8 40 8.8 40 8.9 C 40 9 40 9 39.9 9 C 39.8 9 39.7 9 39.4 9.1 C 39.1 9.1 39 9.1 39 9.2 C 39 9.2 38.9 9.3 38.9 9.4 C 38.9 9.5 38.9 9.6 38.9 9.7 C 38.9 9.7 38.9 9.7 38.9 9.7 C 38.9 9.7 38.9 9.7 39 9.7 C 39 9.7 39 9.7 39 9.7 C 39 9.7 39.1 9.7 39.2 9.7 C 39.2 9.7 39.4 9.7 39.4 9.7 C 39.5 9.7 39.6 9.7 39.7 9.7 C 39.8 9.6 39.9 9.6 39.9 9.6 C 39.9 9.6 40 9.6 40 9.6 C 40 9.7 40 9.7 40 9.7 C 40 9.8 40 9.8 40 9.8 C 39.9 9.8 39.8 9.9 39.7 9.9 C 39.6 9.9 39.4 9.9 39.1 9.9 C 39 10 38.9 10 38.9 10 C 38.8 10 38.7 10 38.7 9.9 C 38.6 9.9 38.6 9.9 38.6 9.8 C 38.62 9.82 38.6 9.8 38.6 9.8 C 38.6 9.8 38.62 9.77 38.6 9.8 C 38.6 9.8 38.6 9.7 38.6 9.7 C 38.7 9.6 38.7 9.5 38.7 9.3 C 38.7 9.2 38.8 9 38.8 8.9 C 38.8 8.9 38.8 8.8 38.8 8.8 C 38.8 8.6 38.9 8.4 38.9 8.3 C 38.9 8.3 38.8 8.3 38.8 8.3 C 38.8 8.2 38.8 8.2 38.8 8.2 C 38.8 8.2 38.8 8.2 38.8 8.2 C 38.8 8.2 38.8 8.2 38.8 8.1 C 38.8 8.1 38.8 8.1 38.8 8.1 C 38.8 8.1 38.8 8.1 38.8 8.1 C 38.9 8.1 38.9 8.1 38.9 8.1 C 38.9 8.1 38.9 8.1 38.9 8.1 C 38.9 8.1 39 8.1 39 8.1 C 39 8.1 39 8.1 39 8.1 C 39 8.1 39.1 8.1 39.3 8 C 39.5 8 39.7 8 39.9 8 C 40 8 40 8 40 8 C 40 8 40 8 40 8 C 40.1 7.9 40.1 8 40.1 8 C 40.2 8 40.2 8 40.2 8.1 C 40.2 8.1 40.2 8.1 40.2 8.1 C 40.1 8.2 40.1 8.2 40.1 8.2 Z M 40.8 8 C 41 8 41.2 8 41.3 8 C 41.5 8 41.7 8 41.8 8.1 C 41.9 8.2 41.9 8.3 41.9 8.4 C 41.9 8.5 41.9 8.7 41.8 8.8 C 41.6 8.9 41.5 9 41.3 9.1 C 41.3 9.1 41.3 9.1 41.3 9.1 C 41.3 9.1 41.4 9.2 41.6 9.3 C 41.7 9.5 41.9 9.6 42 9.7 C 42.1 9.7 42.1 9.7 42.1 9.8 C 42.1 9.8 42.1 9.8 42.1 9.9 C 42 9.9 42 9.9 42 9.9 C 41.9 9.9 41.9 9.9 41.7 9.8 C 41.6 9.7 41.5 9.6 41.4 9.5 C 41.1 9.3 41 9.2 41 9.2 C 40.9 9.2 40.9 9.1 40.8 9.1 C 40.8 9.1 40.8 9.1 40.8 9 C 40.8 9 40.8 9 40.8 9 C 40.9 8.9 40.9 8.9 40.9 8.9 C 41 8.9 41 8.9 41 8.9 C 41.1 8.9 41.1 8.9 41.1 8.9 C 41.2 8.9 41.3 8.9 41.4 8.8 C 41.6 8.7 41.7 8.6 41.7 8.4 C 41.7 8.3 41.7 8.3 41.6 8.2 C 41.5 8.2 41.4 8.1 41.3 8.1 C 41.2 8.1 41.1 8.2 41 8.2 C 41 8.2 40.9 8.2 40.9 8.2 C 40.8 8.2 40.8 8.2 40.8 8.3 C 40.8 8.3 40.8 8.4 40.7 8.6 C 40.7 8.8 40.7 9 40.7 9.2 C 40.6 9.3 40.6 9.5 40.6 9.5 C 40.6 9.6 40.6 9.7 40.6 9.7 C 40.7 9.7 40.7 9.8 40.7 9.8 C 40.7 9.8 40.6 9.9 40.6 9.9 C 40.6 9.9 40.6 9.9 40.5 9.9 C 40.4 9.9 40.4 9.9 40.4 9.7 C 40.4 9.4 40.4 8.9 40.6 8.3 C 40.6 8.3 40.6 8.3 40.6 8.3 C 40.6 8.3 40.6 8.3 40.6 8.2 C 40.5 8.2 40.5 8.2 40.5 8.1 C 40.5 8.1 40.5 8.1 40.6 8 C 40.6 8 40.6 8 40.7 8 C 40.7 8 40.8 8 40.8 8 Z M 43.8 10 C 43.6 10 43.5 9.9 43.4 9.8 C 43.3 9.6 43.2 9.5 43.2 9.3 C 43.2 9.1 43.3 8.9 43.4 8.7 C 43.5 8.5 43.7 8.3 43.8 8.2 C 44 8 44.2 8 44.4 8 C 44.5 8 44.6 8 44.7 8 C 44.8 8 44.9 8.1 45 8.2 C 45.1 8.2 45.1 8.3 45.1 8.4 C 45.2 8.4 45.2 8.5 45.2 8.7 C 45.2 8.8 45.1 8.9 45.1 9.1 C 45 9.2 44.9 9.4 44.7 9.5 C 44.6 9.7 44.4 9.8 44.3 9.9 C 44.2 9.9 44 10 43.8 10 Z M 43.5 9.3 C 43.5 9.4 43.5 9.5 43.6 9.6 C 43.7 9.7 43.8 9.7 43.9 9.7 C 44.1 9.7 44.4 9.6 44.6 9.4 C 44.8 9.1 44.9 8.9 44.9 8.6 C 44.9 8.5 44.9 8.4 44.9 8.4 C 44.8 8.3 44.8 8.3 44.7 8.2 C 44.6 8.2 44.5 8.1 44.4 8.1 C 44.2 8.1 44 8.3 43.8 8.5 C 43.6 8.8 43.5 9.1 43.5 9.3 Z M 47.7 9.6 C 47.7 9.6 47.7 9.5 47.7 9.5 C 47.4 9.7 47.1 9.9 46.8 9.9 C 46.7 9.9 46.6 9.8 46.5 9.7 C 46.4 9.6 46.4 9.5 46.4 9.4 C 46.4 9 46.5 8.7 46.8 8.3 C 47.1 8 47.5 7.9 47.8 7.9 C 47.9 7.9 48 7.9 48 7.9 C 48.1 8 48.1 8 48.1 8.1 C 48.1 8.1 48.1 8.2 48.1 8.2 C 48 8.3 48 8.3 48 8.3 C 48 8.3 47.9 8.3 47.9 8.2 C 47.9 8.2 47.9 8.1 47.8 8.1 C 47.8 8.1 47.8 8.1 47.7 8.1 C 47.6 8.1 47.4 8.2 47.2 8.3 C 47 8.5 46.9 8.6 46.8 8.8 C 46.6 9 46.6 9.2 46.6 9.3 C 46.6 9.6 46.7 9.7 46.9 9.7 C 47 9.7 47.1 9.6 47.2 9.6 C 47.3 9.5 47.4 9.5 47.5 9.4 C 47.7 9.3 47.7 9.2 47.8 9.2 C 47.8 9.1 47.8 9 47.8 8.9 C 47.8 8.8 47.9 8.8 48 8.8 C 48.1 8.8 48.1 8.8 48.1 8.9 C 48.1 8.9 48.1 8.9 48.1 9 C 48 9.1 48 9.2 48 9.3 C 47.9 9.4 47.9 9.5 47.9 9.6 C 47.9 9.7 47.9 9.8 47.9 9.8 C 47.9 9.8 47.9 9.9 47.9 10 C 47.9 10 47.9 10 47.9 10 C 47.9 10.1 47.9 10.1 47.9 10.1 C 47.8 10.1 47.8 10.2 47.8 10.2 C 47.7 10.2 47.7 10.1 47.7 10.1 C 47.6 10.1 47.6 10.1 47.6 10 C 47.6 10 47.6 9.9 47.7 9.6 C 47.7 9.6 47.7 9.6 47.7 9.6 Z M 49.2 10 C 49.1 10 49 9.9 48.8 9.9 C 48.7 9.8 48.6 9.7 48.6 9.6 C 48.5 9.4 48.5 9.3 48.5 9.1 C 48.5 9 48.5 8.9 48.5 8.6 C 48.5 8.6 48.5 8.5 48.6 8.4 C 48.6 8.2 48.6 8.1 48.6 8.1 C 48.6 8.1 48.6 8 48.7 8 C 48.7 8 48.7 8 48.8 8 C 48.8 8 48.8 8 48.8 8 C 48.8 8.1 48.9 8.1 48.9 8.1 C 48.9 8.1 48.8 8.2 48.8 8.4 C 48.8 8.4 48.8 8.6 48.7 8.7 C 48.7 8.9 48.7 9 48.7 9.1 C 48.7 9.4 48.7 9.5 48.9 9.6 C 49 9.7 49.1 9.7 49.1 9.7 C 49.3 9.7 49.4 9.7 49.5 9.7 C 49.6 9.6 49.7 9.5 49.8 9.4 C 49.8 9.3 49.9 9.1 49.9 8.8 C 49.9 8.4 49.9 8.2 50 8.1 C 50 8 50 8 50.1 8 C 50.2 8 50.2 8.1 50.2 8.2 C 50.2 8.2 50.2 8.4 50.1 8.6 C 50.1 8.7 50.1 8.8 50.1 9 C 50.1 9.1 50.1 9.2 50.1 9.3 C 50 9.4 50 9.4 50 9.5 C 49.9 9.6 49.9 9.6 49.8 9.7 C 49.8 9.7 49.7 9.8 49.7 9.8 C 49.6 9.9 49.5 9.9 49.4 9.9 C 49.3 9.9 49.2 10 49.2 10 Z M 51.4 8 C 51.4 8 51.5 8 51.5 8 C 51.5 8 51.5 8 51.5 8.1 C 51.5 8.1 51.5 8.1 51.5 8.1 C 51.5 8.1 51.5 8.2 51.5 8.2 C 51.5 8.3 51.6 8.4 51.6 8.5 C 51.6 8.5 51.7 8.6 51.7 8.7 C 51.8 9 51.8 9.2 51.9 9.3 C 52 9.5 52.1 9.6 52.2 9.7 C 52.2 9.7 52.2 9.8 52.2 9.8 C 52.3 9.8 52.3 9.8 52.3 9.8 C 52.3 9.9 52.2 9.9 52.2 9.9 C 52.2 10 52.2 10 52.1 10 C 52 10 51.9 9.8 51.7 9.4 C 51.7 9.3 51.6 9.2 51.6 9.2 C 51.6 9.2 51.5 9.3 51.3 9.3 C 51.2 9.3 51.1 9.3 51 9.4 C 50.9 9.4 50.9 9.4 50.8 9.4 C 50.8 9.4 50.8 9.4 50.8 9.4 C 50.8 9.4 50.8 9.4 50.8 9.4 C 50.7 9.4 50.7 9.4 50.6 9.5 C 50.5 9.7 50.5 9.8 50.4 9.9 C 50.4 9.9 50.4 9.9 50.3 9.9 C 50.3 9.9 50.3 9.9 50.3 9.9 C 50.2 9.9 50.2 9.8 50.2 9.8 C 50.2 9.8 50.2 9.7 50.3 9.7 C 50.3 9.6 50.4 9.5 50.5 9.4 C 50.6 9.1 50.8 8.9 50.9 8.7 C 51.1 8.3 51.2 8.1 51.2 8 C 51.3 8 51.3 8 51.4 8 C 51.4 8 51.4 8 51.4 8 Z M 51.2 9.1 C 51.4 9.1 51.5 9 51.6 9 C 51.5 9 51.5 8.8 51.4 8.7 C 51.4 8.5 51.3 8.3 51.3 8.3 C 51.3 8.4 51.2 8.5 51.1 8.7 C 51.1 8.7 50.9 9.2 50.9 9.2 C 50.9 9.2 50.9 9.1 51 9.1 C 51.1 9.1 51.1 9.1 51.2 9.1 C 51.2 9.1 51.2 9.1 51.2 9.1 Z M 52.8 8 C 53.1 8 53.3 8 53.4 8 C 53.6 8 53.7 8 53.8 8.1 C 53.9 8.2 54 8.3 54 8.4 C 54 8.5 53.9 8.7 53.8 8.8 C 53.7 8.9 53.5 9 53.4 9.1 C 53.4 9.1 53.3 9.1 53.3 9.1 C 53.3 9.1 53.4 9.2 53.6 9.3 C 53.8 9.5 54 9.6 54.1 9.7 C 54.1 9.7 54.2 9.7 54.2 9.8 C 54.2 9.8 54.2 9.8 54.1 9.9 C 54.1 9.9 54.1 9.9 54 9.9 C 54 9.9 53.9 9.9 53.8 9.8 C 53.7 9.7 53.6 9.6 53.4 9.5 C 53.2 9.3 53 9.2 53 9.2 C 52.9 9.2 52.9 9.1 52.9 9.1 C 52.9 9.1 52.8 9.1 52.8 9 C 52.8 9 52.9 9 52.9 9 C 52.9 8.9 53 8.9 53 8.9 C 53 8.9 53 8.9 53.1 8.9 C 53.1 8.9 53.1 8.9 53.1 8.9 C 53.2 8.9 53.3 8.9 53.5 8.8 C 53.7 8.7 53.8 8.6 53.8 8.4 C 53.8 8.3 53.7 8.3 53.6 8.2 C 53.6 8.2 53.5 8.1 53.4 8.1 C 53.3 8.1 53.2 8.2 53.1 8.2 C 53 8.2 53 8.2 52.9 8.2 C 52.9 8.2 52.9 8.2 52.9 8.3 C 52.9 8.3 52.8 8.4 52.8 8.6 C 52.8 8.8 52.7 9 52.7 9.2 C 52.7 9.3 52.7 9.5 52.7 9.5 C 52.7 9.6 52.7 9.7 52.7 9.7 C 52.7 9.7 52.7 9.8 52.7 9.8 C 52.7 9.8 52.7 9.9 52.7 9.9 C 52.6 9.9 52.6 9.9 52.6 9.9 C 52.5 9.9 52.4 9.9 52.4 9.7 C 52.4 9.4 52.5 8.9 52.6 8.3 C 52.6 8.3 52.6 8.3 52.6 8.3 C 52.6 8.3 52.6 8.3 52.6 8.2 C 52.6 8.2 52.6 8.2 52.6 8.1 C 52.6 8.1 52.6 8.1 52.6 8 C 52.7 8 52.7 8 52.7 8 C 52.7 8 52.8 8 52.8 8 Z M 54.5 8.5 C 54.6 8.4 54.6 8.3 54.6 8.3 C 54.6 8.3 54.6 8.2 54.5 8.2 C 54.4 8.2 54.4 8.2 54.4 8.1 C 54.4 8.1 54.4 8.1 54.4 8 C 54.5 8 54.5 8 54.5 8 C 54.5 8 54.7 8 54.7 8 C 54.8 8 54.9 8 55.1 8 C 55.2 8 55.3 8 55.4 8 C 55.6 8 55.8 8 55.9 8.2 C 56.1 8.3 56.2 8.5 56.2 8.7 C 56.2 8.9 56.1 9.2 55.9 9.4 C 55.6 9.6 55.3 9.7 55 9.8 C 54.8 9.8 54.7 9.9 54.7 9.9 C 54.6 10 54.5 10 54.5 10 C 54.4 10 54.4 10 54.4 9.9 C 54.4 9.9 54.3 9.9 54.3 9.8 C 54.3 9.8 54.4 9.8 54.4 9.8 C 54.4 9.7 54.4 9.7 54.4 9.7 C 54.4 9.6 54.4 9.6 54.4 9.4 C 54.4 9.3 54.5 9.2 54.5 9 C 54.5 8.7 54.5 8.6 54.5 8.5 C 54.5 8.5 54.5 8.5 54.5 8.5 Z M 54.9 8.2 C 54.9 8.2 54.8 8.2 54.8 8.2 C 54.7 8.8 54.7 9.3 54.7 9.5 C 54.7 9.6 54.7 9.6 54.7 9.6 C 54.7 9.7 54.7 9.7 54.7 9.7 C 54.8 9.7 54.9 9.6 55.1 9.5 C 55.4 9.5 55.6 9.4 55.7 9.2 C 55.9 9.1 55.9 8.9 55.9 8.7 C 55.9 8.5 55.9 8.4 55.8 8.3 C 55.7 8.2 55.5 8.2 55.3 8.2 C 55.2 8.2 55.1 8.2 54.9 8.2 C 54.9 8.2 54.9 8.2 54.9 8.2 Z M 56.9 8.1 C 56.9 8.2 56.9 8.3 56.8 8.5 C 56.8 8.6 56.8 8.7 56.8 8.7 C 56.8 8.8 56.8 8.8 56.8 8.9 C 56.7 9.1 56.7 9.3 56.7 9.4 C 56.7 9.5 56.7 9.6 56.7 9.7 C 56.7 9.8 56.7 9.8 56.7 9.9 C 56.7 9.9 56.6 9.9 56.6 9.9 C 56.5 9.9 56.5 9.9 56.5 9.8 C 56.5 9.8 56.5 9.7 56.5 9.6 C 56.5 9.5 56.5 9.3 56.5 9.1 C 56.5 9 56.5 8.9 56.5 8.9 C 56.5 8.9 56.5 8.9 56.5 8.8 C 56.6 8.8 56.6 8.8 56.6 8.7 C 56.6 8.7 56.6 8.5 56.6 8.4 C 56.6 8.3 56.6 8.2 56.6 8.2 C 56.7 8.1 56.7 8.1 56.7 8.1 C 56.7 8 56.7 8 56.7 8 C 56.8 8 56.8 8 56.8 8 C 56.8 8 56.9 8 56.9 8 C 56.9 8 56.9 8.1 56.9 8.1 Z M 58.1 8 C 58.2 8 58.2 8 58.3 8 C 58.3 8 58.3 8 58.3 8.1 C 58.3 8.1 58.3 8.1 58.3 8.1 C 58.3 8.1 58.3 8.2 58.3 8.2 C 58.3 8.3 58.3 8.4 58.4 8.5 C 58.4 8.5 58.4 8.6 58.5 8.7 C 58.5 9 58.6 9.2 58.7 9.3 C 58.8 9.5 58.9 9.6 58.9 9.7 C 59 9.7 59 9.8 59 9.8 C 59 9.8 59 9.8 59 9.8 C 59 9.9 59 9.9 59 9.9 C 59 10 58.9 10 58.9 10 C 58.8 10 58.7 9.8 58.5 9.4 C 58.4 9.3 58.4 9.2 58.4 9.2 C 58.3 9.2 58.3 9.3 58.1 9.3 C 58 9.3 57.9 9.3 57.7 9.4 C 57.7 9.4 57.6 9.4 57.6 9.4 C 57.6 9.4 57.6 9.4 57.6 9.4 C 57.5 9.4 57.5 9.4 57.5 9.4 C 57.5 9.4 57.5 9.4 57.4 9.5 C 57.3 9.7 57.2 9.8 57.2 9.9 C 57.2 9.9 57.2 9.9 57.1 9.9 C 57.1 9.9 57.1 9.9 57 9.9 C 57 9.9 57 9.8 57 9.8 C 57 9.8 57 9.7 57 9.7 C 57.1 9.6 57.1 9.5 57.2 9.4 C 57.4 9.1 57.5 8.9 57.7 8.7 C 57.9 8.3 58 8.1 58 8 C 58.1 8 58.1 8 58.1 8 C 58.1 8 58.1 8 58.1 8 Z M 57.9 9.1 C 58.2 9.1 58.3 9 58.3 9 C 58.3 9 58.3 8.8 58.2 8.7 C 58.1 8.5 58.1 8.3 58.1 8.3 C 58 8.4 58 8.5 57.9 8.7 C 57.9 8.7 57.6 9.2 57.6 9.2 C 57.6 9.2 57.7 9.1 57.8 9.1 C 57.8 9.1 57.9 9.1 57.9 9.1 C 57.9 9.1 57.9 9.1 57.9 9.1 Z M 58.2 7.6 C 58.2 7.5 58.2 7.5 58.2 7.5 C 58.2 7.5 58.1 7.5 58.1 7.5 C 58.1 7.5 58.1 7.4 58 7.4 C 58 7.4 58 7.4 57.9 7.5 C 57.9 7.5 57.9 7.5 57.8 7.6 C 57.8 7.6 57.7 7.7 57.7 7.7 C 57.7 7.7 57.7 7.7 57.7 7.7 C 57.6 7.7 57.6 7.7 57.6 7.6 C 57.6 7.6 57.6 7.5 57.7 7.4 C 57.8 7.3 57.9 7.2 58 7.2 C 58 7.2 58.1 7.3 58.1 7.3 C 58.1 7.3 58.2 7.3 58.2 7.3 C 58.2 7.4 58.3 7.4 58.3 7.4 C 58.3 7.4 58.3 7.4 58.3 7.5 C 58.4 7.5 58.4 7.5 58.5 7.5 C 58.5 7.5 58.5 7.5 58.5 7.5 C 58.5 7.5 58.6 7.4 58.6 7.4 C 58.7 7.3 58.7 7.3 58.7 7.3 C 58.8 7.3 58.8 7.3 58.8 7.4 C 58.8 7.4 58.7 7.5 58.7 7.6 C 58.6 7.6 58.5 7.7 58.5 7.7 C 58.4 7.7 58.4 7.7 58.3 7.6 C 58.3 7.6 58.2 7.6 58.2 7.6 C 58.2 7.6 58.2 7.6 58.2 7.6 Z M 59.7 10 C 59.5 10 59.4 9.9 59.3 9.8 C 59.2 9.6 59.1 9.5 59.1 9.3 C 59.1 9.1 59.2 8.9 59.3 8.7 C 59.4 8.5 59.6 8.3 59.7 8.2 C 59.9 8 60.1 8 60.3 8 C 60.4 8 60.5 8 60.6 8 C 60.7 8 60.8 8.1 60.9 8.2 C 60.9 8.2 61 8.3 61 8.4 C 61.1 8.4 61.1 8.5 61.1 8.7 C 61.1 8.8 61 8.9 61 9.1 C 60.9 9.2 60.8 9.4 60.6 9.5 C 60.5 9.7 60.3 9.8 60.2 9.9 C 60.1 9.9 59.9 10 59.7 10 Z M 59.4 9.3 C 59.4 9.4 59.4 9.5 59.5 9.6 C 59.6 9.7 59.7 9.7 59.8 9.7 C 60 9.7 60.3 9.6 60.5 9.4 C 60.7 9.1 60.8 8.9 60.8 8.6 C 60.8 8.5 60.8 8.4 60.8 8.4 C 60.7 8.3 60.7 8.3 60.6 8.2 C 60.5 8.2 60.4 8.1 60.3 8.1 C 60.1 8.1 59.9 8.3 59.7 8.5 C 59.5 8.8 59.4 9.1 59.4 9.3 Z M 62.5 8.5 C 62.5 8.4 62.5 8.3 62.5 8.3 C 62.5 8.3 62.5 8.2 62.5 8.2 C 62.4 8.2 62.4 8.2 62.4 8.1 C 62.4 8.1 62.4 8.1 62.4 8 C 62.4 8 62.5 8 62.5 8 C 62.5 8 62.7 8 62.7 8 C 62.8 8 62.9 8 63 8 C 63.2 8 63.3 8 63.3 8 C 63.6 8 63.8 8 63.9 8.2 C 64.1 8.3 64.1 8.5 64.1 8.7 C 64.1 8.9 64 9.2 63.8 9.4 C 63.6 9.6 63.3 9.7 62.9 9.8 C 62.8 9.8 62.7 9.9 62.6 9.9 C 62.5 10 62.5 10 62.4 10 C 62.4 10 62.4 10 62.4 9.9 C 62.3 9.9 62.3 9.9 62.3 9.8 C 62.3 9.8 62.3 9.8 62.3 9.8 C 62.4 9.7 62.4 9.7 62.4 9.7 C 62.4 9.6 62.4 9.6 62.4 9.4 C 62.4 9.3 62.4 9.2 62.4 9 C 62.5 8.7 62.5 8.6 62.5 8.5 C 62.5 8.5 62.5 8.5 62.5 8.5 Z M 62.9 8.2 C 62.8 8.2 62.8 8.2 62.8 8.2 C 62.7 8.8 62.6 9.3 62.6 9.5 C 62.6 9.6 62.6 9.6 62.6 9.6 C 62.6 9.7 62.7 9.7 62.7 9.7 C 62.7 9.7 62.9 9.6 63.1 9.5 C 63.3 9.5 63.5 9.4 63.7 9.2 C 63.8 9.1 63.9 8.9 63.9 8.7 C 63.9 8.5 63.9 8.4 63.7 8.3 C 63.6 8.2 63.5 8.2 63.3 8.2 C 63.2 8.2 63 8.2 62.9 8.2 C 62.9 8.2 62.9 8.2 62.9 8.2 Z M 65.9 8.2 C 65.9 8.2 65.8 8.2 65.8 8.2 C 65.7 8.2 65.7 8.2 65.7 8.2 C 65.6 8.2 65.6 8.2 65.5 8.2 C 65.5 8.2 65.5 8.2 65.4 8.2 C 65.4 8.2 65.3 8.2 65.2 8.2 C 65.1 8.2 65 8.3 64.9 8.3 C 64.9 8.3 64.8 8.3 64.8 8.4 C 64.8 8.4 64.8 8.5 64.8 8.6 C 64.8 8.7 64.7 8.8 64.7 8.9 C 64.7 8.9 64.8 8.9 64.8 8.9 C 64.8 8.9 64.9 8.9 65 8.9 C 65.1 8.9 65.2 8.9 65.3 8.8 C 65.4 8.8 65.5 8.8 65.6 8.8 C 65.7 8.8 65.7 8.8 65.7 8.9 C 65.7 9 65.7 9 65.6 9 C 65.6 9 65.4 9 65.2 9.1 C 64.9 9.1 64.8 9.1 64.7 9.2 C 64.7 9.2 64.7 9.3 64.7 9.4 C 64.7 9.5 64.6 9.6 64.6 9.7 C 64.6 9.7 64.6 9.7 64.6 9.7 C 64.6 9.7 64.7 9.7 64.7 9.7 C 64.7 9.7 64.8 9.7 64.8 9.7 C 64.8 9.7 64.9 9.7 64.9 9.7 C 64.9 9.7 65.2 9.7 65.2 9.7 C 65.3 9.7 65.4 9.7 65.5 9.7 C 65.6 9.6 65.6 9.6 65.7 9.6 C 65.7 9.6 65.7 9.6 65.8 9.6 C 65.8 9.7 65.8 9.7 65.8 9.7 C 65.8 9.8 65.8 9.8 65.8 9.8 C 65.7 9.8 65.6 9.9 65.4 9.9 C 65.3 9.9 65.1 9.9 64.9 9.9 C 64.7 10 64.7 10 64.6 10 C 64.5 10 64.5 10 64.4 9.9 C 64.4 9.9 64.4 9.9 64.4 9.8 C 64.38 9.82 64.4 9.8 64.4 9.8 C 64.4 9.8 64.38 9.77 64.4 9.8 C 64.4 9.8 64.4 9.7 64.4 9.7 C 64.4 9.6 64.4 9.5 64.5 9.3 C 64.5 9.2 64.5 9 64.5 8.9 C 64.5 8.9 64.5 8.8 64.6 8.8 C 64.6 8.6 64.6 8.4 64.6 8.3 C 64.6 8.3 64.6 8.3 64.6 8.3 C 64.6 8.2 64.6 8.2 64.6 8.2 C 64.6 8.2 64.6 8.2 64.6 8.2 C 64.6 8.2 64.6 8.2 64.6 8.1 C 64.6 8.1 64.6 8.1 64.6 8.1 C 64.6 8.1 64.6 8.1 64.6 8.1 C 64.6 8.1 64.6 8.1 64.7 8.1 C 64.7 8.1 64.7 8.1 64.7 8.1 C 64.7 8.1 64.7 8.1 64.8 8.1 C 64.8 8.1 64.8 8.1 64.8 8.1 C 64.8 8.1 64.9 8.1 65.1 8 C 65.3 8 65.5 8 65.7 8 C 65.7 8 65.7 8 65.7 8 C 65.7 8 65.8 8 65.8 8 C 65.8 7.9 65.9 8 65.9 8 C 65.9 8 65.9 8 65.9 8.1 C 65.9 8.1 65.9 8.1 65.9 8.1 C 65.9 8.2 65.9 8.2 65.9 8.2 Z " stroke="none" fill="#000"/>  </g>  <g id="Polygon15755">    <path d="M 9 6.6 C 9.1 6.6 9.2 6.5 9.2 6.5 C 9.2 6.5 9.2 6.6 9.2 6.6 C 9.2 6.7 9.2 6.7 9.1 6.8 C 9 6.9 8.9 6.9 8.8 7 C 8.6 7 8.5 7.1 8.4 7.1 C 8.3 7.1 8.1 7 8 6.9 C 7.9 6.8 7.8 6.7 7.8 6.5 C 7.8 6.1 8 5.8 8.3 5.4 C 8.6 5.1 8.9 4.9 9.1 4.9 C 9.2 4.9 9.3 5 9.4 5 C 9.5 5.1 9.5 5.2 9.5 5.3 C 9.5 5.3 9.5 5.4 9.5 5.4 C 9.5 5.5 9.4 5.5 9.4 5.6 C 9.3 5.6 9.3 5.6 9.3 5.6 C 9.3 5.6 9.2 5.6 9.2 5.6 C 9.2 5.6 9.2 5.5 9.2 5.5 C 9.2 5.5 9.2 5.5 9.2 5.4 C 9.2 5.3 9.2 5.3 9.2 5.3 C 9.2 5.2 9.2 5.1 9.1 5.1 C 9 5.1 8.9 5.2 8.7 5.3 C 8.5 5.5 8.4 5.6 8.2 5.8 C 8.1 6.1 8.1 6.3 8.1 6.4 C 8.1 6.6 8.1 6.7 8.2 6.7 C 8.2 6.8 8.3 6.8 8.5 6.8 C 8.5 6.8 8.6 6.8 8.7 6.8 C 8.8 6.8 8.9 6.7 9 6.6 C 9 6.6 9 6.6 9 6.6 Z M 10.2 7 C 10 7 9.9 7 9.8 6.8 C 9.7 6.7 9.6 6.5 9.6 6.4 C 9.6 6.2 9.7 6 9.8 5.8 C 9.9 5.6 10 5.4 10.2 5.2 C 10.4 5.1 10.6 5 10.7 5 C 10.9 5 11 5 11.1 5.1 C 11.2 5.1 11.3 5.2 11.3 5.2 C 11.4 5.3 11.5 5.4 11.5 5.4 C 11.5 5.5 11.5 5.6 11.5 5.7 C 11.5 5.8 11.5 6 11.4 6.1 C 11.4 6.3 11.2 6.5 11.1 6.6 C 10.9 6.8 10.8 6.9 10.7 6.9 C 10.5 7 10.4 7 10.2 7 Z M 9.9 6.4 C 9.9 6.5 9.9 6.6 10 6.7 C 10.1 6.8 10.1 6.8 10.2 6.8 C 10.5 6.8 10.7 6.7 11 6.5 C 11.2 6.2 11.3 6 11.3 5.7 C 11.3 5.6 11.3 5.5 11.2 5.4 C 11.2 5.4 11.1 5.3 11 5.3 C 10.9 5.2 10.8 5.2 10.7 5.2 C 10.5 5.2 10.3 5.4 10.2 5.6 C 10 5.9 9.9 6.1 9.9 6.4 Z M 13.7 5.5 C 13.7 5.4 13.7 5.4 13.6 5.4 C 13.6 5.5 13.4 5.7 13.2 5.9 C 13.1 6.2 12.9 6.3 12.9 6.4 C 12.8 6.5 12.7 6.5 12.7 6.5 C 12.7 6.5 12.6 6.5 12.6 6.4 C 12.6 6.4 12.5 6.3 12.5 6.1 C 12.3 5.8 12.3 5.6 12.2 5.5 C 12.2 5.5 12.2 5.6 12.2 5.7 C 12.2 5.8 12.1 6 12.1 6.2 C 12 6.6 12 6.8 11.9 6.9 C 11.9 7 11.9 7 11.9 7 C 11.9 7 11.9 7 11.8 7 C 11.8 7 11.8 7 11.8 7 C 11.7 6.9 11.7 6.9 11.7 6.9 C 11.7 6.8 11.7 6.7 11.8 6.5 C 11.8 6.5 11.9 6.1 11.9 6.1 C 12 5.8 12 5.6 12 5.5 C 12 5.3 12.1 5.2 12.1 5.2 C 12.1 5.1 12.1 5.1 12.2 5.1 C 12.3 5.1 12.3 5.1 12.3 5.1 C 12.3 5.2 12.4 5.2 12.4 5.2 C 12.4 5.3 12.4 5.3 12.4 5.3 C 12.4 5.3 12.6 5.8 12.6 5.8 C 12.7 6 12.7 6.1 12.7 6.2 C 12.7 6.2 12.7 6.2 12.7 6.2 C 12.8 6.2 13 6 13.2 5.6 C 13.5 5.2 13.7 5 13.7 5 C 13.8 5 13.8 5 13.8 5.1 C 13.9 5.1 13.9 5.1 13.9 5.1 C 13.9 5.1 13.9 5.3 13.8 5.7 C 13.8 5.8 13.8 6 13.8 6.2 C 13.8 6.4 13.8 6.5 13.8 6.5 C 13.8 6.6 13.8 6.6 13.8 6.7 C 13.8 6.7 13.8 6.8 13.8 6.8 C 13.8 6.8 13.8 6.9 13.8 6.9 C 13.8 6.9 13.8 7 13.7 7 C 13.7 7 13.7 7 13.7 7 C 13.6 7 13.5 6.9 13.5 6.8 C 13.5 6.6 13.6 6.3 13.6 5.7 C 13.6 5.7 13.6 5.7 13.6 5.7 C 13.6 5.6 13.6 5.6 13.6 5.6 C 13.7 5.5 13.7 5.5 13.7 5.5 C 13.7 5.5 13.7 5.5 13.7 5.5 Z M 15.7 7 C 15.6 7 15.5 7 15.4 6.8 C 15.3 6.7 15.2 6.5 15.2 6.4 C 15.2 6.2 15.3 6 15.4 5.8 C 15.5 5.6 15.6 5.4 15.8 5.2 C 16 5.1 16.1 5 16.3 5 C 16.5 5 16.6 5 16.7 5.1 C 16.8 5.1 16.9 5.2 16.9 5.2 C 17 5.3 17.1 5.4 17.1 5.4 C 17.1 5.5 17.1 5.6 17.1 5.7 C 17.1 5.8 17.1 6 17 6.1 C 16.9 6.3 16.8 6.5 16.7 6.6 C 16.5 6.8 16.4 6.9 16.3 6.9 C 16.1 7 15.9 7 15.7 7 Z M 15.4 6.4 C 15.4 6.5 15.5 6.6 15.6 6.7 C 15.6 6.8 15.7 6.8 15.8 6.8 C 16.1 6.8 16.3 6.7 16.5 6.5 C 16.8 6.2 16.9 6 16.9 5.7 C 16.9 5.6 16.9 5.5 16.8 5.4 C 16.8 5.4 16.7 5.3 16.6 5.3 C 16.5 5.2 16.4 5.2 16.3 5.2 C 16.1 5.2 15.9 5.4 15.7 5.6 C 15.5 5.9 15.4 6.1 15.4 6.4 Z M 18.5 5.7 C 18.4 5.4 18.3 5.3 18.3 5.3 C 18.3 5.2 18.3 5.2 18.4 5.1 C 18.4 5.1 18.4 5.1 18.5 5.1 C 18.5 5.1 18.6 5.2 18.6 5.3 C 18.6 5.5 18.8 5.9 19.1 6.6 C 19.1 6.6 19.2 6.5 19.2 6.5 C 19.4 6.2 19.5 6 19.6 5.8 C 19.9 5.3 20.1 5 20.2 5 C 20.2 5 20.3 5 20.3 5.1 C 20.3 5.1 20.3 5.1 20.3 5.1 C 20.3 5.1 20.2 5.2 20.2 5.3 C 20 5.5 19.8 5.8 19.7 6 C 19.6 6.2 19.5 6.4 19.4 6.5 C 19.3 6.7 19.2 6.8 19.2 6.8 C 19.2 6.9 19.2 6.9 19.1 6.9 C 19.1 6.9 19.1 6.9 19 6.9 C 19 6.9 18.9 6.8 18.8 6.6 C 18.8 6.5 18.7 6.2 18.5 5.7 C 18.5 5.7 18.5 5.7 18.5 5.7 Z M 20.7 7 C 20.5 7 20.4 7 20.3 6.8 C 20.2 6.7 20.1 6.5 20.1 6.4 C 20.1 6.2 20.2 6 20.3 5.8 C 20.4 5.6 20.6 5.4 20.7 5.2 C 20.9 5.1 21.1 5 21.3 5 C 21.4 5 21.5 5 21.6 5.1 C 21.7 5.1 21.8 5.2 21.9 5.2 C 22 5.3 22 5.4 22 5.4 C 22.1 5.5 22.1 5.6 22.1 5.7 C 22.1 5.8 22 6 22 6.1 C 21.9 6.3 21.8 6.5 21.6 6.6 C 21.5 6.8 21.3 6.9 21.2 6.9 C 21.1 7 20.9 7 20.7 7 Z M 20.4 6.4 C 20.4 6.5 20.4 6.6 20.5 6.7 C 20.6 6.8 20.7 6.8 20.8 6.8 C 21 6.8 21.3 6.7 21.5 6.5 C 21.7 6.2 21.8 6 21.8 5.7 C 21.8 5.6 21.8 5.5 21.8 5.4 C 21.7 5.4 21.7 5.3 21.6 5.3 C 21.5 5.2 21.4 5.2 21.3 5.2 C 21.1 5.2 20.9 5.4 20.7 5.6 C 20.5 5.9 20.4 6.1 20.4 6.4 Z M 22.3 5.4 C 22.2 5.4 22.2 5.4 22.2 5.4 C 22.1 5.3 22.1 5.3 22.1 5.3 C 22.1 5.2 22.2 5.2 22.2 5.2 C 22.2 5.2 22.3 5.2 22.4 5.2 C 22.6 5.2 22.8 5.2 22.9 5.2 C 23 5.2 23.3 5.1 23.5 5.1 C 23.6 5.1 23.8 5.1 23.8 5.1 C 23.9 5.1 23.9 5.1 24 5.1 C 24 5.1 24.1 5.1 24.1 5.1 C 24.1 5.1 24.1 5.1 24.1 5.1 C 24.1 5.2 24.1 5.2 24.1 5.2 C 24.1 5.3 24.1 5.3 24.1 5.3 C 24.1 5.3 24 5.3 24 5.3 C 23.9 5.3 23.8 5.3 23.8 5.3 C 23.7 5.3 23.6 5.3 23.4 5.3 C 23.3 5.3 23.2 5.3 23.2 5.4 C 23.2 5.4 23.2 5.6 23.2 5.9 C 23.1 6.2 23.1 6.4 23.1 6.6 C 23.1 6.6 23.1 6.7 23.1 6.8 C 23.1 6.8 23.1 6.8 23.1 6.8 C 23.1 6.9 23.1 6.9 23.1 6.9 C 23.1 7 23.1 7 23 7 C 23 7 23 7 22.9 6.9 C 22.9 6.9 22.9 6.8 22.9 6.6 C 22.9 6.4 22.9 6 23 5.4 C 23 5.4 23 5.4 23 5.4 C 23 5.4 23 5.4 22.9 5.4 C 22.9 5.4 22.8 5.4 22.6 5.4 C 22.5 5.4 22.4 5.4 22.3 5.4 C 22.3 5.4 22.3 5.4 22.3 5.4 Z M 24.5 7 C 24.4 7 24.3 7 24.2 6.8 C 24 6.7 24 6.5 24 6.4 C 24 6.2 24 6 24.1 5.8 C 24.3 5.6 24.4 5.4 24.6 5.2 C 24.7 5.1 24.9 5 25.1 5 C 25.2 5 25.4 5 25.5 5.1 C 25.6 5.1 25.6 5.2 25.7 5.2 C 25.8 5.3 25.8 5.4 25.9 5.4 C 25.9 5.5 25.9 5.6 25.9 5.7 C 25.9 5.8 25.9 6 25.8 6.1 C 25.7 6.3 25.6 6.5 25.5 6.6 C 25.3 6.8 25.2 6.9 25 6.9 C 24.9 7 24.7 7 24.5 7 Z M 24.2 6.4 C 24.2 6.5 24.3 6.6 24.3 6.7 C 24.4 6.8 24.5 6.8 24.6 6.8 C 24.9 6.8 25.1 6.7 25.3 6.5 C 25.6 6.2 25.7 6 25.7 5.7 C 25.7 5.6 25.6 5.5 25.6 5.4 C 25.6 5.4 25.5 5.3 25.4 5.3 C 25.3 5.2 25.2 5.2 25.1 5.2 C 24.9 5.2 24.7 5.4 24.5 5.6 C 24.3 5.9 24.2 6.1 24.2 6.4 Z M 27.4 5.5 C 27.4 5.5 27.4 5.4 27.4 5.4 C 27.4 5.3 27.4 5.3 27.3 5.3 C 27.3 5.3 27.2 5.3 27.2 5.2 C 27.2 5.2 27.2 5.1 27.3 5.1 C 27.3 5.1 27.3 5.1 27.3 5.1 C 27.3 5.1 27.5 5.1 27.5 5.1 C 27.6 5.1 27.7 5.1 27.9 5.1 C 28 5 28.1 5 28.2 5 C 28.4 5 28.6 5.1 28.8 5.2 C 28.9 5.4 29 5.6 29 5.8 C 29 6 28.9 6.2 28.7 6.4 C 28.5 6.6 28.2 6.8 27.8 6.9 C 27.6 6.9 27.5 7 27.5 7 C 27.4 7 27.3 7.1 27.3 7.1 C 27.3 7.1 27.2 7 27.2 7 C 27.2 7 27.2 6.9 27.2 6.9 C 27.2 6.9 27.2 6.9 27.2 6.9 C 27.2 6.8 27.2 6.8 27.2 6.7 C 27.2 6.7 27.2 6.6 27.2 6.5 C 27.2 6.4 27.3 6.3 27.3 6 C 27.3 5.8 27.3 5.6 27.4 5.5 C 27.4 5.5 27.4 5.5 27.4 5.5 Z M 27.7 5.3 C 27.7 5.3 27.7 5.3 27.6 5.3 C 27.5 5.9 27.5 6.3 27.5 6.6 C 27.5 6.7 27.5 6.7 27.5 6.7 C 27.5 6.7 27.5 6.7 27.5 6.7 C 27.6 6.7 27.7 6.7 28 6.6 C 28.2 6.5 28.4 6.4 28.5 6.3 C 28.7 6.1 28.7 6 28.7 5.8 C 28.7 5.6 28.7 5.5 28.6 5.4 C 28.5 5.3 28.3 5.2 28.1 5.2 C 28 5.2 27.9 5.2 27.7 5.3 C 27.7 5.3 27.7 5.3 27.7 5.3 Z M 29.7 5.2 C 29.7 5.2 29.7 5.4 29.6 5.6 C 29.6 5.7 29.6 5.8 29.6 5.8 C 29.6 5.9 29.6 5.9 29.6 6 C 29.5 6.2 29.5 6.3 29.5 6.4 C 29.5 6.6 29.5 6.7 29.5 6.8 C 29.5 6.9 29.5 6.9 29.5 6.9 C 29.5 7 29.4 7 29.4 7 C 29.4 7 29.3 7 29.3 6.9 C 29.3 6.9 29.3 6.8 29.3 6.6 C 29.3 6.5 29.3 6.4 29.3 6.1 C 29.3 6.1 29.3 6 29.3 6 C 29.3 6 29.4 5.9 29.4 5.9 C 29.4 5.9 29.4 5.8 29.4 5.8 C 29.4 5.7 29.4 5.6 29.4 5.5 C 29.4 5.4 29.4 5.3 29.5 5.2 C 29.5 5.2 29.5 5.1 29.5 5.1 C 29.5 5.1 29.5 5.1 29.5 5.1 C 29.6 5 29.6 5 29.6 5 C 29.6 5 29.7 5.1 29.7 5.1 C 29.7 5.1 29.7 5.2 29.7 5.2 Z M 31.3 5.5 C 31.3 5.4 31.2 5.3 31.2 5.3 C 31.1 5.2 31 5.2 31 5.2 C 30.8 5.2 30.6 5.3 30.5 5.3 C 30.3 5.4 30.2 5.5 30.2 5.6 C 30.2 5.7 30.3 5.7 30.3 5.8 C 30.4 5.9 30.5 5.9 30.8 6 C 31 6 31.1 6.1 31.2 6.2 C 31.3 6.2 31.4 6.3 31.4 6.4 C 31.4 6.5 31.3 6.6 31.2 6.7 C 31 6.8 30.9 6.9 30.7 7 C 30.5 7 30.4 7.1 30.2 7.1 C 30.1 7.1 30.1 7 30 7 C 30 7 29.9 7 29.9 6.9 C 29.9 6.9 29.9 6.9 30 6.8 C 30 6.8 30 6.8 30 6.8 C 30 6.8 30 6.8 30.1 6.8 C 30.1 6.8 30.2 6.8 30.3 6.8 C 30.5 6.8 30.7 6.8 30.9 6.7 C 31 6.6 31.1 6.5 31.1 6.4 C 31.1 6.4 31.1 6.3 31 6.3 C 31 6.3 30.8 6.2 30.6 6.2 C 30.3 6.1 30.2 6 30.1 5.9 C 30 5.8 30 5.7 30 5.6 C 30 5.4 30.1 5.3 30.3 5.2 C 30.5 5.1 30.7 5 31 5 C 31.1 5 31.2 5.1 31.3 5.1 C 31.4 5.2 31.4 5.2 31.4 5.3 C 31.4 5.3 31.4 5.3 31.4 5.4 C 31.4 5.5 31.3 5.5 31.3 5.5 Z M 31.7 5.4 C 31.6 5.4 31.5 5.4 31.5 5.4 C 31.5 5.3 31.5 5.3 31.5 5.3 C 31.5 5.2 31.5 5.2 31.5 5.2 C 31.6 5.2 31.7 5.2 31.8 5.2 C 32 5.2 32.1 5.2 32.3 5.2 C 32.4 5.2 32.6 5.1 32.9 5.1 C 33 5.1 33.1 5.1 33.2 5.1 C 33.3 5.1 33.3 5.1 33.4 5.1 C 33.4 5.1 33.4 5.1 33.4 5.1 C 33.5 5.1 33.5 5.1 33.5 5.1 C 33.5 5.2 33.5 5.2 33.5 5.2 C 33.5 5.3 33.5 5.3 33.4 5.3 C 33.4 5.3 33.4 5.3 33.3 5.3 C 33.3 5.3 33.2 5.3 33.1 5.3 C 33 5.3 32.9 5.3 32.8 5.3 C 32.7 5.3 32.6 5.3 32.6 5.4 C 32.6 5.4 32.6 5.6 32.5 5.9 C 32.5 6.2 32.5 6.4 32.5 6.6 C 32.5 6.6 32.5 6.7 32.5 6.8 C 32.5 6.8 32.5 6.8 32.5 6.8 C 32.5 6.9 32.5 6.9 32.5 6.9 C 32.5 7 32.4 7 32.4 7 C 32.4 7 32.3 7 32.3 6.9 C 32.3 6.9 32.2 6.8 32.2 6.6 C 32.2 6.4 32.3 6 32.4 5.4 C 32.4 5.4 32.4 5.4 32.4 5.4 C 32.4 5.4 32.3 5.4 32.3 5.4 C 32.3 5.4 32.2 5.4 32 5.4 C 31.9 5.4 31.8 5.4 31.7 5.4 C 31.7 5.4 31.7 5.4 31.7 5.4 Z M 33.8 5.1 C 34 5.1 34.2 5 34.3 5 C 34.5 5 34.7 5.1 34.8 5.2 C 34.9 5.3 34.9 5.4 34.9 5.5 C 34.9 5.6 34.9 5.7 34.8 5.9 C 34.7 6 34.5 6.1 34.3 6.1 C 34.3 6.1 34.3 6.2 34.3 6.2 C 34.3 6.2 34.4 6.3 34.6 6.4 C 34.7 6.5 34.9 6.6 35.1 6.7 C 35.1 6.8 35.1 6.8 35.1 6.8 C 35.1 6.9 35.1 6.9 35.1 6.9 C 35.1 7 35 7 35 7 C 34.9 7 34.9 6.9 34.8 6.8 C 34.6 6.8 34.5 6.7 34.4 6.6 C 34.1 6.3 34 6.2 34 6.2 C 33.9 6.2 33.9 6.2 33.8 6.2 C 33.8 6.2 33.8 6.2 33.8 6.1 C 33.8 6.1 33.8 6.1 33.9 6 C 33.9 6 33.9 6 34 6 C 34 6 34 6 34 6 C 34.1 6 34.1 6 34.1 6 C 34.2 6 34.3 6 34.5 5.9 C 34.6 5.8 34.7 5.6 34.7 5.5 C 34.7 5.4 34.7 5.4 34.6 5.3 C 34.5 5.2 34.4 5.2 34.3 5.2 C 34.2 5.2 34.1 5.2 34.1 5.2 C 34 5.3 33.9 5.3 33.9 5.3 C 33.9 5.3 33.8 5.3 33.8 5.3 C 33.8 5.4 33.8 5.5 33.8 5.7 C 33.7 5.9 33.7 6.1 33.7 6.2 C 33.7 6.4 33.6 6.5 33.6 6.6 C 33.6 6.7 33.6 6.7 33.7 6.8 C 33.7 6.8 33.7 6.9 33.7 6.9 C 33.7 6.9 33.7 6.9 33.6 7 C 33.6 7 33.6 7 33.5 7 C 33.4 7 33.4 6.9 33.4 6.8 C 33.4 6.4 33.5 6 33.6 5.4 C 33.6 5.4 33.6 5.3 33.6 5.3 C 33.6 5.3 33.6 5.3 33.6 5.3 C 33.6 5.3 33.5 5.2 33.5 5.2 C 33.5 5.2 33.5 5.1 33.6 5.1 C 33.6 5.1 33.6 5.1 33.7 5.1 C 33.7 5.1 33.8 5.1 33.8 5.1 Z M 35.8 5.2 C 35.8 5.2 35.8 5.4 35.7 5.6 C 35.7 5.7 35.7 5.8 35.7 5.8 C 35.7 5.9 35.7 5.9 35.6 6 C 35.6 6.2 35.6 6.3 35.6 6.4 C 35.6 6.6 35.6 6.7 35.6 6.8 C 35.6 6.9 35.6 6.9 35.6 6.9 C 35.5 7 35.5 7 35.5 7 C 35.4 7 35.4 7 35.4 6.9 C 35.4 6.9 35.4 6.8 35.4 6.6 C 35.4 6.5 35.4 6.4 35.4 6.1 C 35.4 6.1 35.4 6 35.4 6 C 35.4 6 35.4 5.9 35.4 5.9 C 35.4 5.9 35.4 5.8 35.4 5.8 C 35.5 5.7 35.5 5.6 35.5 5.5 C 35.5 5.4 35.5 5.3 35.5 5.2 C 35.5 5.2 35.5 5.1 35.6 5.1 C 35.6 5.1 35.6 5.1 35.6 5.1 C 35.7 5 35.7 5 35.7 5 C 35.7 5 35.8 5.1 35.8 5.1 C 35.8 5.1 35.8 5.2 35.8 5.2 Z M 36.1 5.4 C 36 5.4 36 5.4 35.9 5.4 C 35.9 5.3 35.9 5.3 35.9 5.3 C 35.9 5.2 35.9 5.2 36 5.2 C 36 5.2 36.1 5.2 36.2 5.2 C 36.4 5.2 36.6 5.2 36.7 5.2 C 36.8 5.2 37 5.1 37.3 5.1 C 37.4 5.1 37.5 5.1 37.6 5.1 C 37.7 5.1 37.7 5.1 37.8 5.1 C 37.8 5.1 37.9 5.1 37.9 5.1 C 37.9 5.1 37.9 5.1 37.9 5.1 C 37.9 5.2 37.9 5.2 37.9 5.2 C 37.9 5.3 37.9 5.3 37.9 5.3 C 37.8 5.3 37.8 5.3 37.8 5.3 C 37.7 5.3 37.6 5.3 37.6 5.3 C 37.5 5.3 37.4 5.3 37.2 5.3 C 37.1 5.3 37 5.3 37 5.4 C 37 5.4 37 5.6 36.9 5.9 C 36.9 6.2 36.9 6.4 36.9 6.6 C 36.9 6.6 36.9 6.7 36.9 6.8 C 36.9 6.8 36.9 6.8 36.9 6.8 C 36.9 6.9 36.9 6.9 36.9 6.9 C 36.9 7 36.9 7 36.8 7 C 36.8 7 36.7 7 36.7 6.9 C 36.7 6.9 36.7 6.8 36.7 6.6 C 36.7 6.4 36.7 6 36.8 5.4 C 36.8 5.4 36.8 5.4 36.8 5.4 C 36.8 5.4 36.8 5.4 36.7 5.4 C 36.7 5.4 36.6 5.4 36.4 5.4 C 36.3 5.4 36.2 5.4 36.1 5.4 C 36.1 5.4 36.1 5.4 36.1 5.4 Z M 38.7 5 C 38.7 5 38.8 5 38.8 5.1 C 38.8 5.1 38.8 5.1 38.8 5.1 C 38.8 5.2 38.8 5.2 38.8 5.2 C 38.8 5.2 38.8 5.3 38.8 5.3 C 38.8 5.4 38.9 5.5 38.9 5.5 C 38.9 5.6 39 5.7 39 5.8 C 39.1 6 39.2 6.2 39.2 6.4 C 39.3 6.6 39.4 6.7 39.5 6.8 C 39.5 6.8 39.5 6.8 39.5 6.9 C 39.6 6.9 39.6 6.9 39.6 6.9 C 39.6 7 39.6 7 39.5 7 C 39.5 7 39.5 7 39.4 7 C 39.3 7 39.2 6.9 39 6.5 C 39 6.4 38.9 6.3 38.9 6.3 C 38.9 6.3 38.8 6.3 38.6 6.4 C 38.5 6.4 38.4 6.4 38.3 6.4 C 38.2 6.5 38.2 6.5 38.1 6.5 C 38.1 6.5 38.1 6.5 38.1 6.4 C 38.1 6.4 38.1 6.4 38.1 6.4 C 38 6.4 38 6.5 37.9 6.6 C 37.8 6.8 37.8 6.9 37.7 6.9 C 37.7 7 37.7 7 37.7 7 C 37.6 7 37.6 7 37.6 7 C 37.5 6.9 37.5 6.9 37.5 6.9 C 37.5 6.8 37.5 6.8 37.6 6.8 C 37.6 6.7 37.7 6.6 37.8 6.5 C 37.9 6.2 38.1 6 38.2 5.8 C 38.4 5.4 38.5 5.2 38.5 5.1 C 38.6 5.1 38.6 5 38.7 5 C 38.7 5 38.7 5 38.7 5 Z M 38.5 6.2 C 38.7 6.1 38.8 6.1 38.9 6.1 C 38.8 6 38.8 5.9 38.7 5.7 C 38.7 5.5 38.6 5.4 38.6 5.4 C 38.6 5.5 38.5 5.6 38.4 5.8 C 38.4 5.8 38.2 6.2 38.2 6.2 C 38.2 6.2 38.2 6.2 38.3 6.2 C 38.4 6.2 38.4 6.2 38.5 6.2 C 38.5 6.2 38.5 6.2 38.5 6.2 Z M 39.8 6.7 C 39.8 6.7 39.8 6.6 39.8 6.6 C 39.8 6.6 39.8 6.4 39.8 6.3 C 39.9 6.1 39.9 5.8 39.9 5.6 C 39.9 5.3 40 5.2 40 5.1 C 40 5.1 40 5.1 40 5.1 C 40 5 40.1 5 40.1 5 C 40.1 5 40.2 5 40.2 5.1 C 40.2 5.1 40.2 5.1 40.2 5.2 C 40.2 5.2 40.2 5.3 40.2 5.3 C 40.2 5.5 40.1 5.7 40.1 6 C 40 6.4 40 6.6 40 6.6 C 40 6.7 40 6.7 40 6.7 C 40 6.7 40.1 6.7 40.1 6.7 C 40.1 6.7 40.2 6.7 40.4 6.7 C 40.5 6.7 40.7 6.7 40.9 6.6 C 41 6.6 41 6.6 41.1 6.6 C 41.1 6.6 41.1 6.6 41.1 6.6 C 41.1 6.6 41.2 6.6 41.2 6.6 C 41.2 6.7 41.2 6.7 41.2 6.7 C 41.2 6.8 41.2 6.8 41.2 6.8 C 41.1 6.9 41.1 6.9 41 6.9 C 41 6.9 41 6.9 40.9 6.9 C 40.9 6.9 40.8 6.9 40.8 6.9 C 40.5 6.9 40.2 6.9 40 7 C 39.9 7 39.9 7 39.9 7 C 39.8 7 39.8 7 39.8 7 C 39.8 6.9 39.7 6.9 39.7 6.9 C 39.7 6.8 39.7 6.8 39.8 6.7 C 39.8 6.7 39.8 6.7 39.8 6.7 Z M 42.9 7 C 42.7 7 42.6 7 42.5 6.8 C 42.4 6.7 42.3 6.5 42.3 6.4 C 42.3 6.2 42.4 6 42.5 5.8 C 42.6 5.6 42.7 5.4 42.9 5.2 C 43.1 5.1 43.3 5 43.5 5 C 43.6 5 43.7 5 43.8 5.1 C 43.9 5.1 44 5.2 44.1 5.2 C 44.1 5.3 44.2 5.4 44.2 5.4 C 44.2 5.5 44.3 5.6 44.3 5.7 C 44.3 5.8 44.2 6 44.2 6.1 C 44.1 6.3 44 6.5 43.8 6.6 C 43.7 6.8 43.5 6.9 43.4 6.9 C 43.3 7 43.1 7 42.9 7 Z M 42.6 6.4 C 42.6 6.5 42.6 6.6 42.7 6.7 C 42.8 6.8 42.9 6.8 43 6.8 C 43.2 6.8 43.5 6.7 43.7 6.5 C 43.9 6.2 44 6 44 5.7 C 44 5.6 44 5.5 44 5.4 C 43.9 5.4 43.8 5.3 43.8 5.3 C 43.7 5.2 43.6 5.2 43.5 5.2 C 43.3 5.2 43.1 5.4 42.9 5.6 C 42.7 5.9 42.6 6.1 42.6 6.4 Z M 46.7 6.6 C 46.8 6.6 46.8 6.5 46.8 6.5 C 46.9 6.5 46.9 6.6 46.9 6.6 C 46.9 6.7 46.8 6.7 46.7 6.8 C 46.6 6.9 46.5 6.9 46.4 7 C 46.3 7 46.2 7.1 46.1 7.1 C 45.9 7.1 45.8 7 45.6 6.9 C 45.5 6.8 45.5 6.7 45.5 6.5 C 45.5 6.1 45.6 5.8 45.9 5.4 C 46.2 5.1 46.5 4.9 46.8 4.9 C 46.9 4.9 47 5 47 5 C 47.1 5.1 47.1 5.2 47.1 5.3 C 47.1 5.3 47.1 5.4 47.1 5.4 C 47.1 5.5 47.1 5.5 47 5.6 C 47 5.6 47 5.6 46.9 5.6 C 46.9 5.6 46.9 5.6 46.9 5.6 C 46.9 5.6 46.8 5.5 46.8 5.5 C 46.8 5.5 46.9 5.5 46.9 5.4 C 46.9 5.3 46.9 5.3 46.9 5.3 C 46.9 5.2 46.9 5.1 46.8 5.1 C 46.7 5.1 46.5 5.2 46.3 5.3 C 46.2 5.5 46 5.6 45.9 5.8 C 45.8 6.1 45.7 6.3 45.7 6.4 C 45.7 6.6 45.7 6.7 45.8 6.7 C 45.9 6.8 46 6.8 46.1 6.8 C 46.2 6.8 46.3 6.8 46.4 6.8 C 46.5 6.8 46.6 6.7 46.7 6.6 C 46.7 6.6 46.7 6.6 46.7 6.6 Z M 47.8 7 C 47.7 7 47.5 7 47.4 6.8 C 47.3 6.7 47.3 6.5 47.3 6.4 C 47.3 6.2 47.3 6 47.4 5.8 C 47.5 5.6 47.7 5.4 47.8 5.2 C 48 5.1 48.2 5 48.4 5 C 48.5 5 48.6 5 48.7 5.1 C 48.8 5.1 48.9 5.2 49 5.2 C 49.1 5.3 49.1 5.4 49.1 5.4 C 49.2 5.5 49.2 5.6 49.2 5.7 C 49.2 5.8 49.1 6 49.1 6.1 C 49 6.3 48.9 6.5 48.7 6.6 C 48.6 6.8 48.4 6.9 48.3 6.9 C 48.2 7 48 7 47.8 7 Z M 47.5 6.4 C 47.5 6.5 47.5 6.6 47.6 6.7 C 47.7 6.8 47.8 6.8 47.9 6.8 C 48.1 6.8 48.4 6.7 48.6 6.5 C 48.8 6.2 48.9 6 48.9 5.7 C 48.9 5.6 48.9 5.5 48.9 5.4 C 48.8 5.4 48.8 5.3 48.7 5.3 C 48.6 5.2 48.5 5.2 48.4 5.2 C 48.2 5.2 48 5.4 47.8 5.6 C 47.6 5.9 47.5 6.1 47.5 6.4 Z M 50.7 6.6 C 50.8 6.4 50.9 6.1 50.9 5.8 C 51 5.5 51 5.3 51 5.2 C 51 5.1 51 5.1 51 5.1 C 51 5.1 51 5 51.1 5 C 51.1 5 51.1 5 51.2 5 C 51.2 5 51.2 5 51.2 5.1 C 51.2 5.1 51.3 5.1 51.3 5.2 C 51.3 5.2 51.2 5.3 51.2 5.4 C 51.2 5.6 51.1 5.8 51 6.1 C 51 6.4 51 6.6 51 6.7 C 51 6.7 51 6.8 51 6.8 C 51 6.9 51 6.9 50.9 6.9 C 50.9 7 50.9 7 50.8 7 C 50.8 7 50.7 7 50.7 7 C 50.7 7 50.7 6.9 50.7 6.9 C 50.6 6.9 50.6 6.8 50.6 6.8 C 50.6 6.7 50.6 6.7 50.5 6.7 C 50.3 6.3 50 6 49.8 5.6 C 49.8 5.8 49.7 6.1 49.7 6.4 C 49.7 6.4 49.7 6.7 49.7 6.7 C 49.7 6.7 49.7 6.7 49.7 6.8 C 49.7 6.9 49.7 6.9 49.6 6.9 C 49.6 6.9 49.6 7 49.6 7 C 49.6 7 49.5 7 49.5 7 C 49.5 7 49.4 7 49.4 7 C 49.4 6.9 49.4 6.9 49.4 6.9 C 49.4 6.8 49.4 6.7 49.5 6.5 C 49.5 6.4 49.5 6.2 49.6 5.9 C 49.6 5.6 49.7 5.4 49.7 5.3 C 49.7 5.3 49.7 5.2 49.7 5.2 C 49.7 5.2 49.7 5.2 49.7 5.2 C 49.7 5.2 49.7 5.1 49.7 5.1 C 49.8 5.1 49.8 5.1 49.8 5.1 C 49.8 5.1 49.9 5.1 49.9 5.1 C 49.9 5.1 49.9 5.1 49.9 5.2 C 49.9 5.2 49.9 5.2 50 5.3 C 50 5.5 50.1 5.7 50.3 6 C 50.5 6.2 50.6 6.5 50.7 6.6 Z M 52.8 6.7 C 52.8 6.6 52.8 6.6 52.8 6.6 C 52.5 6.8 52.2 6.9 51.9 6.9 C 51.8 6.9 51.7 6.9 51.6 6.8 C 51.5 6.7 51.5 6.6 51.5 6.4 C 51.5 6.1 51.6 5.7 51.9 5.4 C 52.3 5.1 52.6 4.9 52.9 4.9 C 53 4.9 53.1 5 53.2 5 C 53.2 5 53.2 5.1 53.2 5.1 C 53.2 5.2 53.2 5.2 53.2 5.3 C 53.2 5.3 53.1 5.4 53.1 5.4 C 53.1 5.4 53 5.4 53 5.3 C 53 5.3 53 5.2 52.9 5.2 C 52.9 5.2 52.9 5.2 52.8 5.2 C 52.7 5.2 52.5 5.2 52.3 5.4 C 52.1 5.5 52 5.7 51.9 5.9 C 51.8 6.1 51.7 6.2 51.7 6.4 C 51.7 6.6 51.8 6.7 52 6.7 C 52.1 6.7 52.2 6.7 52.3 6.7 C 52.4 6.6 52.5 6.6 52.6 6.5 C 52.8 6.4 52.8 6.3 52.9 6.2 C 52.9 6.2 52.9 6.1 52.9 6 C 52.9 5.9 53 5.9 53.1 5.9 C 53.2 5.9 53.2 5.9 53.2 6 C 53.2 6 53.2 6 53.2 6.1 C 53.1 6.2 53.1 6.3 53.1 6.4 C 53 6.4 53 6.5 53 6.6 C 53 6.8 53 6.8 53 6.9 C 53 6.9 53 7 53 7.1 C 53 7.1 53 7.1 53 7.1 C 53 7.1 53 7.2 53 7.2 C 53 7.2 52.9 7.2 52.9 7.2 C 52.9 7.2 52.8 7.2 52.8 7.2 C 52.7 7.2 52.7 7.1 52.7 7.1 C 52.7 7.1 52.7 6.9 52.8 6.7 C 52.8 6.7 52.8 6.7 52.8 6.7 Z M 53.9 5.1 C 54.2 5.1 54.4 5 54.5 5 C 54.7 5 54.8 5.1 54.9 5.2 C 55 5.3 55.1 5.4 55.1 5.5 C 55.1 5.6 55 5.7 54.9 5.9 C 54.8 6 54.6 6.1 54.5 6.1 C 54.4 6.1 54.4 6.2 54.4 6.2 C 54.4 6.2 54.5 6.3 54.7 6.4 C 54.9 6.5 55 6.6 55.2 6.7 C 55.2 6.8 55.3 6.8 55.3 6.8 C 55.3 6.9 55.2 6.9 55.2 6.9 C 55.2 7 55.2 7 55.1 7 C 55.1 7 55 6.9 54.9 6.8 C 54.8 6.8 54.7 6.7 54.5 6.6 C 54.3 6.3 54.1 6.2 54.1 6.2 C 54 6.2 54 6.2 54 6.2 C 53.9 6.2 53.9 6.2 53.9 6.1 C 53.9 6.1 54 6.1 54 6 C 54 6 54 6 54.1 6 C 54.1 6 54.1 6 54.2 6 C 54.2 6 54.2 6 54.2 6 C 54.3 6 54.4 6 54.6 5.9 C 54.8 5.8 54.8 5.6 54.8 5.5 C 54.8 5.4 54.8 5.4 54.7 5.3 C 54.7 5.2 54.6 5.2 54.4 5.2 C 54.4 5.2 54.3 5.2 54.2 5.2 C 54.1 5.3 54 5.3 54 5.3 C 54 5.3 54 5.3 54 5.3 C 53.9 5.4 53.9 5.5 53.9 5.7 C 53.8 5.9 53.8 6.1 53.8 6.2 C 53.8 6.4 53.8 6.5 53.8 6.6 C 53.8 6.7 53.8 6.7 53.8 6.8 C 53.8 6.8 53.8 6.9 53.8 6.9 C 53.8 6.9 53.8 6.9 53.8 7 C 53.7 7 53.7 7 53.7 7 C 53.6 7 53.5 6.9 53.5 6.8 C 53.5 6.4 53.6 6 53.7 5.4 C 53.7 5.4 53.7 5.3 53.7 5.3 C 53.7 5.3 53.7 5.3 53.7 5.3 C 53.7 5.3 53.7 5.2 53.7 5.2 C 53.7 5.2 53.7 5.1 53.7 5.1 C 53.7 5.1 53.8 5.1 53.8 5.1 C 53.8 5.1 53.9 5.1 53.9 5.1 Z M 56.9 5.3 C 56.9 5.3 56.9 5.3 56.8 5.3 C 56.8 5.3 56.8 5.3 56.7 5.3 C 56.7 5.3 56.6 5.3 56.6 5.3 C 56.6 5.3 56.5 5.3 56.5 5.3 C 56.5 5.3 56.4 5.3 56.3 5.3 C 56.1 5.3 56 5.3 56 5.3 C 55.9 5.4 55.9 5.4 55.9 5.5 C 55.9 5.5 55.9 5.6 55.9 5.6 C 55.8 5.8 55.8 5.9 55.8 6 C 55.8 6 55.8 6 55.8 6 C 55.9 6 55.9 6 56.1 6 C 56.2 5.9 56.3 5.9 56.3 5.9 C 56.5 5.9 56.6 5.9 56.6 5.9 C 56.7 5.9 56.8 5.9 56.8 6 C 56.8 6 56.8 6.1 56.7 6.1 C 56.6 6.1 56.5 6.1 56.2 6.1 C 56 6.2 55.8 6.2 55.8 6.2 C 55.8 6.3 55.7 6.3 55.7 6.5 C 55.7 6.6 55.7 6.7 55.7 6.7 C 55.7 6.7 55.7 6.7 55.7 6.7 C 55.7 6.8 55.7 6.8 55.8 6.8 C 55.8 6.8 55.8 6.8 55.8 6.8 C 55.8 6.8 55.9 6.8 56 6.8 C 56 6.8 56.2 6.8 56.2 6.8 C 56.3 6.8 56.4 6.7 56.5 6.7 C 56.6 6.7 56.7 6.7 56.7 6.7 C 56.8 6.7 56.8 6.7 56.8 6.7 C 56.8 6.7 56.9 6.8 56.9 6.8 C 56.9 6.8 56.9 6.9 56.8 6.9 C 56.7 6.9 56.6 6.9 56.5 6.9 C 56.4 7 56.2 7 55.9 7 C 55.8 7 55.7 7 55.7 7 C 55.6 7 55.5 7 55.5 7 C 55.5 7 55.4 7 55.4 6.9 C 55.43 6.89 55.4 6.9 55.4 6.9 C 55.4 6.9 55.43 6.84 55.4 6.8 C 55.4 6.8 55.4 6.8 55.5 6.8 C 55.5 6.7 55.5 6.6 55.5 6.4 C 55.6 6.2 55.6 6.1 55.6 6 C 55.6 6 55.6 5.9 55.6 5.9 C 55.6 5.7 55.7 5.5 55.7 5.4 C 55.7 5.4 55.7 5.4 55.6 5.3 C 55.6 5.3 55.6 5.3 55.6 5.3 C 55.6 5.3 55.6 5.3 55.6 5.3 C 55.6 5.3 55.6 5.2 55.6 5.2 C 55.6 5.2 55.6 5.2 55.6 5.2 C 55.6 5.2 55.6 5.2 55.6 5.2 C 55.7 5.1 55.7 5.1 55.7 5.1 C 55.7 5.1 55.7 5.1 55.7 5.1 C 55.7 5.1 55.8 5.1 55.8 5.1 C 55.8 5.1 55.8 5.1 55.8 5.1 C 55.9 5.1 56 5.1 56.1 5.1 C 56.3 5.1 56.5 5.1 56.7 5 C 56.8 5 56.8 5 56.8 5 C 56.8 5 56.8 5 56.8 5 C 56.9 5 56.9 5 57 5 C 57 5.1 57 5.1 57 5.2 C 57 5.2 57 5.2 57 5.2 C 56.9 5.2 56.9 5.3 56.9 5.3 Z M 58.5 5.5 C 58.5 5.4 58.4 5.3 58.4 5.3 C 58.3 5.2 58.2 5.2 58.1 5.2 C 58 5.2 57.8 5.3 57.6 5.3 C 57.5 5.4 57.4 5.5 57.4 5.6 C 57.4 5.7 57.5 5.7 57.5 5.8 C 57.6 5.9 57.7 5.9 58 6 C 58.2 6 58.3 6.1 58.4 6.2 C 58.5 6.2 58.6 6.3 58.6 6.4 C 58.6 6.5 58.5 6.6 58.4 6.7 C 58.2 6.8 58.1 6.9 57.9 7 C 57.7 7 57.6 7.1 57.4 7.1 C 57.3 7.1 57.3 7 57.2 7 C 57.1 7 57.1 7 57.1 6.9 C 57.1 6.9 57.1 6.9 57.1 6.8 C 57.2 6.8 57.2 6.8 57.2 6.8 C 57.2 6.8 57.2 6.8 57.2 6.8 C 57.3 6.8 57.4 6.8 57.5 6.8 C 57.7 6.8 57.9 6.8 58 6.7 C 58.2 6.6 58.3 6.5 58.3 6.4 C 58.3 6.4 58.3 6.3 58.2 6.3 C 58.2 6.3 58 6.2 57.8 6.2 C 57.5 6.1 57.4 6 57.3 5.9 C 57.2 5.8 57.2 5.7 57.2 5.6 C 57.2 5.4 57.3 5.3 57.5 5.2 C 57.7 5.1 57.9 5 58.2 5 C 58.3 5 58.4 5.1 58.5 5.1 C 58.6 5.2 58.6 5.2 58.6 5.3 C 58.6 5.3 58.6 5.3 58.6 5.4 C 58.6 5.5 58.5 5.5 58.5 5.5 Z M 60.1 5.5 C 60.1 5.4 60.1 5.3 60 5.3 C 60 5.2 59.9 5.2 59.8 5.2 C 59.6 5.2 59.4 5.3 59.3 5.3 C 59.1 5.4 59.1 5.5 59.1 5.6 C 59.1 5.7 59.1 5.7 59.2 5.8 C 59.2 5.9 59.4 5.9 59.6 6 C 59.8 6 60 6.1 60.1 6.2 C 60.2 6.2 60.2 6.3 60.2 6.4 C 60.2 6.5 60.1 6.6 60 6.7 C 59.9 6.8 59.7 6.9 59.6 7 C 59.4 7 59.2 7.1 59.1 7.1 C 59 7.1 58.9 7 58.9 7 C 58.8 7 58.8 7 58.8 6.9 C 58.8 6.9 58.8 6.9 58.8 6.8 C 58.8 6.8 58.8 6.8 58.8 6.8 C 58.9 6.8 58.9 6.8 58.9 6.8 C 59 6.8 59.1 6.8 59.2 6.8 C 59.3 6.8 59.5 6.8 59.7 6.7 C 59.9 6.6 60 6.5 60 6.4 C 60 6.4 59.9 6.3 59.9 6.3 C 59.8 6.3 59.7 6.2 59.5 6.2 C 59.2 6.1 59 6 58.9 5.9 C 58.9 5.8 58.8 5.7 58.8 5.6 C 58.8 5.4 59 5.3 59.2 5.2 C 59.4 5.1 59.6 5 59.8 5 C 60 5 60.1 5.1 60.2 5.1 C 60.2 5.2 60.3 5.2 60.3 5.3 C 60.3 5.3 60.3 5.3 60.3 5.4 C 60.2 5.5 60.2 5.5 60.1 5.5 Z M 61 7 C 60.8 7 60.7 7 60.6 6.8 C 60.5 6.7 60.5 6.5 60.5 6.4 C 60.5 6.2 60.5 6 60.6 5.8 C 60.7 5.6 60.9 5.4 61 5.2 C 61.2 5.1 61.4 5 61.6 5 C 61.7 5 61.8 5 61.9 5.1 C 62 5.1 62.1 5.2 62.2 5.2 C 62.3 5.3 62.3 5.4 62.3 5.4 C 62.4 5.5 62.4 5.6 62.4 5.7 C 62.4 5.8 62.3 6 62.3 6.1 C 62.2 6.3 62.1 6.5 61.9 6.6 C 61.8 6.8 61.6 6.9 61.5 6.9 C 61.4 7 61.2 7 61 7 Z M 60.7 6.4 C 60.7 6.5 60.7 6.6 60.8 6.7 C 60.9 6.8 61 6.8 61.1 6.8 C 61.3 6.8 61.6 6.7 61.8 6.5 C 62 6.2 62.1 6 62.1 5.7 C 62.1 5.6 62.1 5.5 62.1 5.4 C 62 5.4 62 5.3 61.9 5.3 C 61.8 5.2 61.7 5.2 61.6 5.2 C 61.4 5.2 61.2 5.4 61 5.6 C 60.8 5.9 60.7 6.1 60.7 6.4 Z " stroke="none" fill="#000"/>  </g></svg>