<?xml version="1.0" standalone="no"?><!DOCTYPE svg PUBLIC "-//W3C//DTD SVG 1.1//EN" "http://www.w3.org/Graphics/SVG/1.1/DTD/svg11.dtd"><svg xmlns="http://www.w3.org/2000/svg" version="1.1" width="72px" height="15.1px" viewBox="0 -1 72 15.1" style="top:-1px">  <desc>E COMO ISSO? COMO FUNCIONA ESTE TAL DE VOTO DISTRITAL?</desc>  <defs/>  <g id="Polygon13577">    <path d="M 9.3 7.4 C 9.3 7.4 8.7 7.4 8.7 7.4 C 8.6 7.5 8.4 7.5 8.3 7.5 C 8.1 7.5 8.1 7.5 8 7.5 C 8 7.6 8 7.6 8 7.6 C 8 7.7 8 7.8 8 8 C 7.9 8.1 7.9 8.1 7.9 8.2 C 8 8.2 8.1 8.2 8.2 8.2 C 8.4 8.2 8.5 8.2 8.5 8.2 C 8.7 8.1 8.8 8.1 8.9 8.1 C 9.1 8.1 9.2 8.1 9.2 8.3 C 9.2 8.3 9.1 8.4 9.1 8.4 C 9 8.4 9 8.5 8.9 8.5 C 8.8 8.5 8.7 8.5 8.6 8.5 C 8.6 8.5 8.5 8.5 8.5 8.5 C 8.2 8.6 8 8.6 7.9 8.6 C 7.9 8.6 7.9 8.6 7.9 8.6 C 7.9 8.6 7.9 8.6 7.9 8.7 C 7.9 8.7 7.8 8.8 7.8 8.9 C 7.8 9.1 7.8 9.2 7.8 9.2 C 7.8 9.3 7.8 9.3 7.9 9.3 C 7.9 9.3 8.1 9.3 8.3 9.2 C 8.5 9.2 8.7 9.2 8.7 9.2 C 8.9 9.1 9 9.1 9 9.1 C 9.2 9.1 9.2 9.2 9.2 9.3 C 9.2 9.4 9.2 9.4 9.2 9.4 C 9.1 9.5 8.9 9.5 8.7 9.5 C 8.6 9.6 8.4 9.6 8.2 9.6 C 8 9.6 7.8 9.7 7.6 9.7 C 7.5 9.7 7.4 9.6 7.4 9.6 C 7.3 9.6 7.3 9.5 7.3 9.4 C 7.3 9.4 7.3 9.4 7.3 9.4 C 7.3 9.4 7.3 9.3 7.3 9.3 C 7.4 9.1 7.4 8.8 7.5 8.3 C 7.6 7.8 7.6 7.6 7.6 7.5 C 7.6 7.5 7.6 7.5 7.6 7.5 C 7.6 7.5 7.6 7.5 7.6 7.4 C 7.5 7.4 7.5 7.4 7.5 7.3 C 7.5 7.3 7.5 7.3 7.5 7.3 C 7.5 7.3 7.6 7.2 7.6 7.2 C 7.7 7.2 7.7 7.2 7.7 7.2 C 7.8 7.2 7.8 7.2 7.9 7.2 C 8 7.2 8.3 7.1 8.8 7.1 C 9 7.1 9.1 7 9.1 7 C 9.1 7 9.1 7 9.1 7 C 9.3 7 9.4 7.1 9.4 7.2 C 9.4 7.3 9.4 7.3 9.4 7.3 C 9.3 7.4 9.3 7.4 9.3 7.4 Z M 11.5 7.4 C 11.5 7.6 11.4 7.7 11.2 7.7 C 11.2 7.6 11.2 7.5 11.1 7.5 C 11.1 7.4 11 7.4 10.9 7.4 C 10.7 7.4 10.5 7.4 10.3 7.5 C 10.2 7.6 10.1 7.7 10.1 7.8 C 10.1 7.9 10.1 8 10.2 8 C 10.2 8.1 10.4 8.1 10.6 8.2 C 10.9 8.3 11.1 8.4 11.3 8.5 C 11.4 8.6 11.5 8.7 11.5 8.8 C 11.5 9 11.3 9.2 10.9 9.4 C 10.6 9.6 10.3 9.7 9.9 9.7 C 9.8 9.7 9.7 9.7 9.6 9.6 C 9.6 9.6 9.5 9.5 9.5 9.4 C 9.5 9.4 9.5 9.3 9.6 9.3 C 9.6 9.2 9.6 9.2 9.7 9.2 C 9.7 9.2 9.7 9.2 9.8 9.2 C 9.9 9.3 10 9.3 10.1 9.3 C 10.3 9.3 10.5 9.3 10.7 9.2 C 10.9 9.1 11 9 11 8.9 C 11 8.8 11 8.8 10.9 8.7 C 10.9 8.7 10.8 8.7 10.6 8.6 C 10.4 8.5 10.2 8.5 10 8.4 C 9.9 8.4 9.8 8.3 9.8 8.2 C 9.7 8.1 9.7 8 9.7 7.9 C 9.7 7.7 9.8 7.5 10 7.3 C 10.3 7.1 10.6 7 10.9 7 C 11.1 7 11.3 7.1 11.4 7.1 C 11.5 7.2 11.5 7.3 11.5 7.4 C 11.5 7.4 11.5 7.4 11.5 7.4 Z M 13.7 7.4 C 13.4 7.4 13.2 7.5 13.1 7.5 C 13.1 7.5 13.1 7.5 13.1 7.6 C 13.1 7.6 13 7.8 13 8.2 C 13 8.5 12.9 8.8 12.9 9 C 12.9 9.1 12.9 9.2 13 9.3 C 13 9.3 13 9.3 13 9.4 C 13 9.4 13 9.5 12.9 9.5 C 12.9 9.6 12.8 9.6 12.8 9.6 C 12.7 9.6 12.7 9.6 12.6 9.5 C 12.6 9.5 12.5 9.4 12.5 9.4 C 12.5 9.3 12.5 9.1 12.5 9 C 12.5 8.8 12.5 8.5 12.6 8.1 C 12.6 7.8 12.7 7.6 12.7 7.5 C 12.6 7.5 12.5 7.6 12.3 7.6 C 12.1 7.6 11.9 7.6 11.9 7.6 C 11.8 7.6 11.7 7.6 11.7 7.6 C 11.6 7.5 11.6 7.5 11.6 7.4 C 11.6 7.4 11.6 7.3 11.7 7.3 C 11.7 7.2 11.8 7.2 12 7.2 C 12.4 7.2 12.7 7.2 13 7.2 C 13.3 7.1 13.6 7.1 13.8 7.1 C 14 7.1 14.1 7.1 14.2 7.2 C 14.2 7.2 14.2 7.3 14.2 7.3 C 14.2 7.4 14.2 7.5 14.1 7.5 C 14.1 7.5 14 7.5 13.9 7.5 C 13.9 7.5 13.8 7.4 13.7 7.4 C 13.7 7.4 13.7 7.4 13.7 7.4 Z M 16 7.4 C 16 7.4 15.5 7.4 15.5 7.4 C 15.3 7.5 15.1 7.5 15 7.5 C 14.9 7.5 14.8 7.5 14.8 7.5 C 14.8 7.6 14.8 7.6 14.8 7.6 C 14.8 7.7 14.7 7.8 14.7 8 C 14.7 8.1 14.7 8.1 14.7 8.2 C 14.7 8.2 14.8 8.2 15 8.2 C 15.1 8.2 15.2 8.2 15.3 8.2 C 15.4 8.1 15.6 8.1 15.6 8.1 C 15.8 8.1 15.9 8.1 15.9 8.3 C 15.9 8.3 15.9 8.4 15.8 8.4 C 15.8 8.4 15.7 8.5 15.6 8.5 C 15.5 8.5 15.5 8.5 15.4 8.5 C 15.3 8.5 15.3 8.5 15.2 8.5 C 14.9 8.6 14.7 8.6 14.7 8.6 C 14.7 8.6 14.7 8.6 14.7 8.6 C 14.6 8.6 14.6 8.6 14.6 8.7 C 14.6 8.7 14.6 8.8 14.6 8.9 C 14.5 9.1 14.5 9.2 14.5 9.2 C 14.5 9.3 14.6 9.3 14.6 9.3 C 14.7 9.3 14.8 9.3 15 9.2 C 15.3 9.2 15.4 9.2 15.5 9.2 C 15.6 9.1 15.7 9.1 15.8 9.1 C 15.9 9.1 16 9.2 16 9.3 C 16 9.4 16 9.4 15.9 9.4 C 15.8 9.5 15.7 9.5 15.5 9.5 C 15.3 9.6 15.1 9.6 14.9 9.6 C 14.7 9.6 14.5 9.7 14.3 9.7 C 14.2 9.7 14.2 9.6 14.1 9.6 C 14.1 9.6 14.1 9.5 14.1 9.4 C 14.1 9.4 14.1 9.4 14.1 9.4 C 14.1 9.4 14.1 9.3 14.1 9.3 C 14.1 9.1 14.2 8.8 14.3 8.3 C 14.3 7.8 14.4 7.6 14.4 7.5 C 14.4 7.5 14.4 7.5 14.3 7.5 C 14.3 7.5 14.3 7.5 14.3 7.4 C 14.3 7.4 14.3 7.4 14.3 7.3 C 14.3 7.3 14.3 7.3 14.3 7.3 C 14.3 7.3 14.3 7.2 14.4 7.2 C 14.4 7.2 14.4 7.2 14.5 7.2 C 14.5 7.2 14.6 7.2 14.6 7.2 C 14.7 7.2 15 7.1 15.6 7.1 C 15.7 7.1 15.8 7 15.8 7 C 15.8 7 15.9 7 15.9 7 C 16.1 7 16.2 7.1 16.2 7.2 C 16.2 7.3 16.2 7.3 16.1 7.3 C 16.1 7.4 16 7.4 16 7.4 Z M 19.6 7.4 C 19.3 7.4 19.1 7.5 19 7.5 C 19 7.5 19 7.5 19 7.6 C 19 7.6 19 7.8 18.9 8.2 C 18.9 8.5 18.9 8.8 18.9 9 C 18.9 9.1 18.9 9.2 18.9 9.3 C 18.9 9.3 18.9 9.3 18.9 9.4 C 18.9 9.4 18.9 9.5 18.8 9.5 C 18.8 9.6 18.8 9.6 18.7 9.6 C 18.7 9.6 18.6 9.6 18.6 9.5 C 18.5 9.5 18.5 9.4 18.5 9.4 C 18.4 9.3 18.4 9.1 18.4 9 C 18.4 8.8 18.5 8.5 18.5 8.1 C 18.6 7.8 18.6 7.6 18.6 7.5 C 18.6 7.5 18.4 7.6 18.2 7.6 C 18 7.6 17.9 7.6 17.8 7.6 C 17.7 7.6 17.6 7.6 17.6 7.6 C 17.5 7.5 17.5 7.5 17.5 7.4 C 17.5 7.4 17.5 7.3 17.6 7.3 C 17.6 7.2 17.8 7.2 17.9 7.2 C 18.3 7.2 18.6 7.2 18.9 7.2 C 19.3 7.1 19.5 7.1 19.7 7.1 C 19.9 7.1 20.1 7.1 20.1 7.2 C 20.1 7.2 20.2 7.3 20.2 7.3 C 20.2 7.4 20.1 7.5 20 7.5 C 20 7.5 19.9 7.5 19.9 7.5 C 19.8 7.5 19.7 7.4 19.6 7.4 C 19.6 7.4 19.6 7.4 19.6 7.4 Z M 20.4 9 C 20.4 9 20.3 9 20.3 9 C 20.3 9 20.2 9.1 20.1 9.3 C 20 9.5 20 9.6 19.9 9.6 C 19.9 9.6 19.8 9.6 19.8 9.6 C 19.8 9.6 19.7 9.6 19.7 9.5 C 19.6 9.5 19.6 9.4 19.6 9.4 C 19.6 9.4 19.7 9.1 20 8.7 C 20.2 8.4 20.3 8.2 20.4 8 C 20.7 7.5 20.9 7.2 20.9 7.1 C 21 7.1 21 7 21.1 7 C 21.2 7 21.3 7.1 21.3 7.1 C 21.3 7.1 21.3 7.2 21.3 7.2 C 21.3 7.3 21.3 7.3 21.3 7.3 C 21.5 8 21.7 8.4 21.8 8.7 C 21.9 8.9 22 9.1 22.2 9.3 C 22.2 9.3 22.3 9.4 22.3 9.4 C 22.3 9.4 22.3 9.4 22.3 9.5 C 22.3 9.5 22.3 9.6 22.2 9.6 C 22.2 9.7 22.1 9.7 22.1 9.7 C 22 9.7 21.9 9.6 21.8 9.5 C 21.7 9.4 21.6 9.3 21.5 9.1 C 21.5 8.9 21.4 8.8 21.4 8.8 C 21.4 8.8 21.4 8.8 21.4 8.8 C 21.4 8.8 21.2 8.8 21 8.9 C 20.8 8.9 20.6 9 20.5 9 C 20.5 9 20.4 9 20.4 9 C 20.4 9 20.4 9 20.4 9 Z M 21.1 8.5 C 21.2 8.5 21.2 8.5 21.3 8.5 C 21.3 8.4 21.2 8.2 21 7.7 C 21 7.7 21 7.7 21 7.7 C 21 7.7 20.5 8.6 20.5 8.6 C 20.6 8.6 20.7 8.6 20.8 8.6 C 20.8 8.6 20.9 8.5 21.1 8.5 C 21.1 8.5 21.1 8.5 21.1 8.5 Z M 24.1 9.5 C 24.1 9.5 24.1 9.5 24 9.4 C 23.9 9.4 23.9 9.4 23.9 9.4 C 23.5 9.4 23.2 9.5 22.9 9.6 C 22.8 9.6 22.7 9.6 22.7 9.6 C 22.6 9.6 22.6 9.6 22.5 9.5 C 22.5 9.5 22.5 9.4 22.5 9.4 C 22.5 9.4 22.5 9.3 22.5 9.2 C 22.5 9.1 22.5 9 22.6 8.9 C 22.6 8.9 22.7 7.5 22.7 7.5 C 22.7 7.3 22.7 7.2 22.8 7.2 C 22.8 7.2 22.8 7.1 22.8 7.1 C 22.9 7.1 22.9 7 23 7 C 23 7 23.1 7.1 23.1 7.1 C 23.2 7.1 23.2 7.2 23.2 7.2 C 23.2 7.3 23.2 7.4 23.2 7.5 C 23.1 7.6 23.1 7.9 23 8.4 C 23 8.8 23 9.1 23 9.1 C 23 9.1 23 9.2 23 9.2 C 23 9.2 23.1 9.1 23.3 9.1 C 23.4 9.1 23.5 9.1 23.6 9.1 C 23.9 9.1 24.1 9.1 24.2 9 C 24.2 9 24.2 9 24.2 9 C 24.3 9 24.4 9 24.4 9.1 C 24.4 9.1 24.4 9.1 24.4 9.2 C 24.4 9.3 24.4 9.3 24.4 9.4 C 24.3 9.4 24.2 9.5 24.1 9.5 Z M 26 9.3 C 26.1 9.2 26.1 9.1 26.1 9 C 26.1 8.6 26.1 8.1 26.2 7.7 C 26.2 7.6 26.2 7.6 26.2 7.5 C 26.2 7.5 26.2 7.5 26.2 7.5 C 26.1 7.4 26 7.4 26 7.3 C 26 7.3 26.1 7.2 26.1 7.2 C 26.2 7.1 26.2 7.1 26.3 7.1 C 26.3 7.1 26.5 7.1 26.5 7.1 C 26.6 7.1 26.7 7.1 26.9 7.1 C 27.1 7.1 27.2 7 27.3 7 C 27.6 7 27.9 7.1 28.1 7.3 C 28.3 7.5 28.4 7.7 28.4 8 C 28.4 8.4 28.2 8.6 27.9 8.9 C 27.6 9.2 27.3 9.4 26.8 9.5 C 26.7 9.5 26.6 9.5 26.6 9.5 C 26.5 9.5 26.5 9.6 26.4 9.6 C 26.3 9.7 26.3 9.7 26.2 9.7 C 26.1 9.7 26.1 9.7 26 9.6 C 26 9.5 26 9.5 26 9.5 C 26 9.4 26 9.4 26 9.4 C 26 9.4 26 9.3 26 9.3 Z M 26.5 9.1 C 26.5 9.1 26.5 9.2 26.5 9.2 C 26.5 9.2 26.7 9.1 27 9 C 27.3 9 27.5 8.8 27.7 8.6 C 27.9 8.5 28 8.2 28 8 C 28 7.8 27.9 7.7 27.8 7.6 C 27.6 7.4 27.5 7.4 27.2 7.4 C 27.1 7.4 26.9 7.4 26.7 7.4 C 26.7 7.4 26.7 7.4 26.7 7.4 C 26.5 8.2 26.5 8.7 26.5 9.1 C 26.5 9.1 26.5 9.1 26.5 9.1 Z M 30.6 7.4 C 30.6 7.4 30.1 7.4 30.1 7.4 C 29.9 7.5 29.7 7.5 29.6 7.5 C 29.5 7.5 29.4 7.5 29.4 7.5 C 29.4 7.6 29.4 7.6 29.4 7.6 C 29.4 7.7 29.3 7.8 29.3 8 C 29.3 8.1 29.3 8.1 29.2 8.2 C 29.3 8.2 29.4 8.2 29.6 8.2 C 29.7 8.2 29.8 8.2 29.9 8.2 C 30 8.1 30.1 8.1 30.2 8.1 C 30.4 8.1 30.5 8.1 30.5 8.3 C 30.5 8.3 30.5 8.4 30.4 8.4 C 30.4 8.4 30.3 8.5 30.2 8.5 C 30.1 8.5 30.1 8.5 30 8.5 C 29.9 8.5 29.9 8.5 29.8 8.5 C 29.5 8.6 29.3 8.6 29.3 8.6 C 29.3 8.6 29.2 8.6 29.2 8.6 C 29.2 8.6 29.2 8.6 29.2 8.7 C 29.2 8.7 29.2 8.8 29.2 8.9 C 29.1 9.1 29.1 9.2 29.1 9.2 C 29.1 9.3 29.1 9.3 29.2 9.3 C 29.2 9.3 29.4 9.3 29.6 9.2 C 29.9 9.2 30 9.2 30.1 9.2 C 30.2 9.1 30.3 9.1 30.4 9.1 C 30.5 9.1 30.6 9.2 30.6 9.3 C 30.6 9.4 30.6 9.4 30.5 9.4 C 30.4 9.5 30.3 9.5 30.1 9.5 C 29.9 9.6 29.7 9.6 29.5 9.6 C 29.3 9.6 29.1 9.7 28.9 9.7 C 28.8 9.7 28.8 9.6 28.7 9.6 C 28.7 9.6 28.7 9.5 28.7 9.4 C 28.7 9.4 28.7 9.4 28.7 9.4 C 28.6 9.4 28.7 9.3 28.7 9.3 C 28.7 9.1 28.8 8.8 28.8 8.3 C 28.9 7.8 28.9 7.6 28.9 7.5 C 28.9 7.5 28.9 7.5 28.9 7.5 C 28.9 7.5 28.9 7.5 28.9 7.4 C 28.9 7.4 28.9 7.4 28.9 7.3 C 28.9 7.3 28.9 7.3 28.9 7.3 C 28.9 7.3 28.9 7.2 28.9 7.2 C 29 7.2 29 7.2 29.1 7.2 C 29.1 7.2 29.2 7.2 29.2 7.2 C 29.3 7.2 29.6 7.1 30.2 7.1 C 30.3 7.1 30.4 7 30.4 7 C 30.4 7 30.5 7 30.5 7 C 30.7 7 30.8 7.1 30.8 7.2 C 30.8 7.3 30.7 7.3 30.7 7.3 C 30.7 7.4 30.6 7.4 30.6 7.4 Z M 34.8 7.2 C 34.8 7.2 34.8 7.2 34.8 7.2 C 34.8 7.2 34.8 7.3 34.7 7.4 C 34.6 7.6 34.5 7.7 34.4 7.9 C 34.3 8 34.2 8.2 34 8.6 C 33.8 8.8 33.7 8.9 33.7 9 C 33.6 9.2 33.5 9.3 33.5 9.4 C 33.5 9.4 33.4 9.5 33.4 9.5 C 33.3 9.5 33.3 9.5 33.2 9.5 C 33.1 9.5 33.1 9.5 33.1 9.5 C 33 9.4 33 9.3 32.9 9.1 C 32.9 8.9 32.8 8.7 32.6 8.4 C 32.4 7.7 32.2 7.4 32.2 7.4 C 32.2 7.3 32.3 7.3 32.3 7.2 C 32.3 7.1 32.4 7.1 32.5 7.1 C 32.5 7.1 32.6 7.1 32.6 7.1 C 32.7 7.2 32.7 7.3 32.7 7.5 C 32.8 7.6 32.8 7.9 33 8.2 C 33.1 8.6 33.2 8.8 33.3 9 C 33.3 9 33.4 8.9 33.4 8.8 C 33.4 8.8 33.4 8.8 33.4 8.7 C 33.6 8.5 33.7 8.3 33.8 8.1 C 34 7.7 34.2 7.4 34.3 7.2 C 34.4 7.1 34.6 7 34.6 7 C 34.8 7 34.8 7 34.8 7.2 C 34.83 7.16 34.8 7.2 34.8 7.2 C 34.8 7.2 34.83 7.18 34.8 7.2 Z M 35.4 9.7 C 35.2 9.7 35 9.6 34.9 9.4 C 34.7 9.2 34.6 9 34.6 8.8 C 34.6 8.6 34.7 8.3 34.8 8 C 35 7.7 35.2 7.5 35.4 7.3 C 35.6 7.1 35.9 7 36.1 7 C 36.3 7 36.4 7.1 36.6 7.1 C 36.7 7.1 36.8 7.2 36.9 7.3 C 37 7.4 37.1 7.5 37.1 7.6 C 37.2 7.7 37.2 7.8 37.2 8 C 37.2 8.1 37.1 8.3 37 8.5 C 36.9 8.7 36.8 8.9 36.6 9.1 C 36.5 9.3 36.3 9.4 36.1 9.5 C 35.9 9.6 35.7 9.7 35.4 9.7 Z M 35.1 8.8 C 35.1 8.9 35.1 9 35.2 9.1 C 35.3 9.2 35.4 9.3 35.5 9.3 C 35.8 9.3 36.1 9.1 36.3 8.8 C 36.6 8.5 36.7 8.2 36.7 7.9 C 36.7 7.8 36.7 7.7 36.7 7.6 C 36.6 7.6 36.6 7.5 36.4 7.4 C 36.3 7.4 36.2 7.4 36.1 7.4 C 35.9 7.4 35.7 7.5 35.4 7.9 C 35.2 8.2 35.1 8.5 35.1 8.8 Z M 39.3 7.4 C 39.1 7.4 38.9 7.5 38.7 7.5 C 38.7 7.5 38.7 7.5 38.7 7.6 C 38.7 7.6 38.7 7.8 38.6 8.2 C 38.6 8.5 38.6 8.8 38.6 9 C 38.6 9.1 38.6 9.2 38.6 9.3 C 38.6 9.3 38.6 9.3 38.6 9.4 C 38.6 9.4 38.6 9.5 38.6 9.5 C 38.5 9.6 38.5 9.6 38.4 9.6 C 38.4 9.6 38.4 9.6 38.3 9.5 C 38.2 9.5 38.2 9.4 38.2 9.4 C 38.2 9.3 38.2 9.1 38.2 9 C 38.2 8.8 38.2 8.5 38.2 8.1 C 38.3 7.8 38.3 7.6 38.3 7.5 C 38.3 7.5 38.2 7.6 37.9 7.6 C 37.7 7.6 37.6 7.6 37.6 7.6 C 37.4 7.6 37.4 7.6 37.3 7.6 C 37.3 7.5 37.2 7.5 37.2 7.4 C 37.2 7.4 37.3 7.3 37.3 7.3 C 37.4 7.2 37.5 7.2 37.7 7.2 C 38 7.2 38.3 7.2 38.6 7.2 C 39 7.1 39.3 7.1 39.5 7.1 C 39.7 7.1 39.8 7.1 39.8 7.2 C 39.9 7.2 39.9 7.3 39.9 7.3 C 39.9 7.4 39.8 7.5 39.7 7.5 C 39.7 7.5 39.7 7.5 39.6 7.5 C 39.5 7.5 39.4 7.4 39.3 7.4 C 39.3 7.4 39.3 7.4 39.3 7.4 Z M 40.4 9.7 C 40.2 9.7 40 9.6 39.9 9.4 C 39.7 9.2 39.7 9 39.7 8.8 C 39.7 8.6 39.7 8.3 39.9 8 C 40 7.7 40.2 7.5 40.4 7.3 C 40.6 7.1 40.9 7 41.1 7 C 41.3 7 41.5 7.1 41.6 7.1 C 41.7 7.1 41.8 7.2 41.9 7.3 C 42 7.4 42.1 7.5 42.1 7.6 C 42.2 7.7 42.2 7.8 42.2 8 C 42.2 8.1 42.1 8.3 42.1 8.5 C 42 8.7 41.8 8.9 41.7 9.1 C 41.5 9.3 41.3 9.4 41.1 9.5 C 40.9 9.6 40.7 9.7 40.4 9.7 Z M 40.1 8.8 C 40.1 8.9 40.1 9 40.2 9.1 C 40.3 9.2 40.4 9.3 40.5 9.3 C 40.8 9.3 41.1 9.1 41.4 8.8 C 41.6 8.5 41.8 8.2 41.8 7.9 C 41.8 7.8 41.7 7.7 41.7 7.6 C 41.6 7.6 41.6 7.5 41.5 7.4 C 41.4 7.4 41.2 7.4 41.1 7.4 C 40.9 7.4 40.7 7.5 40.4 7.9 C 40.2 8.2 40.1 8.5 40.1 8.8 Z M 43.9 9.3 C 43.9 9.2 43.9 9.1 43.9 9 C 43.9 8.6 44 8.1 44 7.7 C 44.1 7.6 44.1 7.6 44.1 7.5 C 44.1 7.5 44.1 7.5 44 7.5 C 43.9 7.4 43.9 7.4 43.9 7.3 C 43.9 7.3 43.9 7.2 43.9 7.2 C 44 7.1 44 7.1 44.1 7.1 C 44.1 7.1 44.3 7.1 44.3 7.1 C 44.4 7.1 44.6 7.1 44.8 7.1 C 44.9 7.1 45 7 45.1 7 C 45.5 7 45.7 7.1 45.9 7.3 C 46.1 7.5 46.2 7.7 46.2 8 C 46.2 8.4 46.1 8.6 45.8 8.9 C 45.5 9.2 45.1 9.4 44.7 9.5 C 44.5 9.5 44.5 9.5 44.4 9.5 C 44.4 9.5 44.3 9.6 44.3 9.6 C 44.2 9.7 44.1 9.7 44 9.7 C 44 9.7 43.9 9.7 43.9 9.6 C 43.8 9.5 43.8 9.5 43.8 9.5 C 43.8 9.4 43.8 9.4 43.8 9.4 C 43.8 9.4 43.9 9.3 43.9 9.3 Z M 44.3 9.1 C 44.3 9.1 44.3 9.2 44.3 9.2 C 44.4 9.2 44.6 9.1 44.8 9 C 45.1 9 45.4 8.8 45.5 8.6 C 45.7 8.5 45.8 8.2 45.8 8 C 45.8 7.8 45.7 7.7 45.6 7.6 C 45.5 7.4 45.3 7.4 45.1 7.4 C 44.9 7.4 44.8 7.4 44.6 7.4 C 44.5 7.4 44.5 7.4 44.5 7.4 C 44.4 8.2 44.3 8.7 44.3 9.1 C 44.3 9.1 44.3 9.1 44.3 9.1 Z M 47.1 7.8 C 47.1 7.9 47.1 8 47 8.1 C 47 8.1 47 8.2 47 8.3 C 47 8.6 47 8.8 47 8.8 C 47 9 47 9.1 47 9.3 C 47 9.4 47 9.5 46.9 9.5 C 46.9 9.6 46.8 9.6 46.7 9.6 C 46.7 9.6 46.6 9.6 46.6 9.5 C 46.5 9.4 46.5 9.3 46.5 9.1 C 46.5 9 46.6 8.8 46.6 8.4 C 46.6 8.4 46.7 7.7 46.7 7.7 C 46.7 7.6 46.7 7.5 46.7 7.4 C 46.8 7.3 46.8 7.2 46.8 7.2 C 46.8 7.2 46.8 7.1 46.9 7.1 C 46.9 7.1 47 7 47 7 C 47.1 7 47.1 7.1 47.2 7.1 C 47.2 7.2 47.2 7.2 47.2 7.3 C 47.2 7.3 47.1 7.8 47.1 7.8 Z M 49.4 7.4 C 49.4 7.6 49.3 7.7 49.1 7.7 C 49.1 7.6 49.1 7.5 49 7.5 C 48.9 7.4 48.9 7.4 48.7 7.4 C 48.6 7.4 48.4 7.4 48.2 7.5 C 48 7.6 48 7.7 48 7.8 C 48 7.9 48 8 48.1 8 C 48.1 8.1 48.3 8.1 48.5 8.2 C 48.8 8.3 49 8.4 49.1 8.5 C 49.3 8.6 49.3 8.7 49.3 8.8 C 49.3 9 49.2 9.2 48.8 9.4 C 48.5 9.6 48.2 9.7 47.8 9.7 C 47.7 9.7 47.6 9.7 47.5 9.6 C 47.4 9.6 47.4 9.5 47.4 9.4 C 47.4 9.4 47.4 9.3 47.5 9.3 C 47.5 9.2 47.5 9.2 47.6 9.2 C 47.6 9.2 47.6 9.2 47.6 9.2 C 47.8 9.3 47.9 9.3 48 9.3 C 48.2 9.3 48.4 9.3 48.6 9.2 C 48.8 9.1 48.9 9 48.9 8.9 C 48.9 8.8 48.9 8.8 48.8 8.7 C 48.8 8.7 48.7 8.7 48.5 8.6 C 48.2 8.5 48.1 8.5 47.9 8.4 C 47.8 8.4 47.7 8.3 47.6 8.2 C 47.6 8.1 47.6 8 47.6 7.9 C 47.6 7.7 47.7 7.5 47.9 7.3 C 48.2 7.1 48.5 7 48.8 7 C 49 7 49.1 7.1 49.3 7.1 C 49.4 7.2 49.4 7.3 49.4 7.4 C 49.4 7.4 49.4 7.4 49.4 7.4 Z M 51.6 7.4 C 51.3 7.4 51.1 7.5 51 7.5 C 51 7.5 51 7.5 51 7.6 C 50.9 7.6 50.9 7.8 50.9 8.2 C 50.8 8.5 50.8 8.8 50.8 9 C 50.8 9.1 50.8 9.2 50.9 9.3 C 50.9 9.3 50.9 9.3 50.9 9.4 C 50.9 9.4 50.8 9.5 50.8 9.5 C 50.8 9.6 50.7 9.6 50.7 9.6 C 50.6 9.6 50.6 9.6 50.5 9.5 C 50.5 9.5 50.4 9.4 50.4 9.4 C 50.4 9.3 50.4 9.1 50.4 9 C 50.4 8.8 50.4 8.5 50.5 8.1 C 50.5 7.8 50.6 7.6 50.6 7.5 C 50.5 7.5 50.4 7.6 50.2 7.6 C 50 7.6 49.8 7.6 49.8 7.6 C 49.7 7.6 49.6 7.6 49.5 7.6 C 49.5 7.5 49.5 7.5 49.5 7.4 C 49.5 7.4 49.5 7.3 49.5 7.3 C 49.6 7.2 49.7 7.2 49.9 7.2 C 50.2 7.2 50.6 7.2 50.9 7.2 C 51.2 7.1 51.5 7.1 51.7 7.1 C 51.9 7.1 52 7.1 52.1 7.2 C 52.1 7.2 52.1 7.3 52.1 7.3 C 52.1 7.4 52.1 7.5 52 7.5 C 52 7.5 51.9 7.5 51.8 7.5 C 51.8 7.5 51.7 7.4 51.6 7.4 C 51.6 7.4 51.6 7.4 51.6 7.4 Z M 52.2 7.5 C 52.2 7.5 52.17 7.44 52.2 7.4 C 52.1 7.4 52.1 7.3 52.1 7.3 C 52.1 7.3 52.1 7.2 52.2 7.2 C 52.3 7.1 52.3 7.1 52.3 7.1 C 52.4 7.1 52.4 7.1 52.4 7.1 C 52.5 7.1 52.5 7.1 52.5 7.1 C 52.8 7.1 53.1 7 53.2 7 C 53.4 7 53.6 7.1 53.8 7.2 C 53.9 7.3 54 7.5 54 7.7 C 54 7.8 53.9 8 53.8 8.1 C 53.7 8.3 53.5 8.4 53.2 8.5 C 53.6 8.8 53.9 9.1 54.1 9.2 C 54.2 9.2 54.2 9.3 54.2 9.4 C 54.2 9.4 54.2 9.5 54.2 9.5 C 54.1 9.5 54.1 9.6 54 9.6 C 54 9.6 53.9 9.5 53.8 9.5 C 53.7 9.4 53.6 9.3 53.4 9.2 C 53.3 9.1 53.2 9 53.2 9 C 53 8.8 52.8 8.7 52.7 8.6 C 52.6 8.6 52.5 8.6 52.5 8.5 C 52.5 8.4 52.6 8.4 52.6 8.3 C 52.7 8.3 52.7 8.3 52.8 8.3 C 52.8 8.3 52.8 8.3 52.9 8.3 C 52.9 8.3 52.9 8.3 52.9 8.3 C 53 8.3 53.1 8.2 53.3 8.1 C 53.5 8 53.6 7.8 53.6 7.7 C 53.6 7.6 53.6 7.5 53.5 7.5 C 53.4 7.4 53.3 7.4 53.2 7.4 C 53 7.4 52.9 7.4 52.8 7.4 C 52.7 7.4 52.7 7.4 52.6 7.4 C 52.6 7.4 52.6 7.5 52.6 7.5 C 52.6 7.5 52.6 7.6 52.5 7.8 C 52.5 8.1 52.5 8.3 52.4 8.5 C 52.4 8.8 52.4 9 52.4 9.1 C 52.4 9.1 52.4 9.2 52.4 9.3 C 52.4 9.3 52.4 9.4 52.4 9.4 C 52.4 9.5 52.4 9.5 52.3 9.6 C 52.3 9.6 52.2 9.6 52.2 9.6 C 52 9.6 51.9 9.5 51.9 9.3 C 51.9 9.1 52 8.9 52 8.5 C 52 8.2 52.1 7.9 52.1 7.7 C 52.2 7.7 52.2 7.6 52.2 7.6 C 52.17 7.6 52.2 7.5 52.2 7.5 Z M 55 7.8 C 55 7.9 55 8 55 8.1 C 55 8.1 55 8.2 55 8.3 C 54.9 8.6 54.9 8.8 54.9 8.8 C 54.9 9 54.9 9.1 54.9 9.3 C 54.9 9.4 54.9 9.5 54.9 9.5 C 54.8 9.6 54.7 9.6 54.7 9.6 C 54.6 9.6 54.5 9.6 54.5 9.5 C 54.5 9.4 54.5 9.3 54.5 9.1 C 54.5 9 54.5 8.8 54.5 8.4 C 54.5 8.4 54.6 7.7 54.6 7.7 C 54.7 7.6 54.7 7.5 54.7 7.4 C 54.7 7.3 54.7 7.2 54.7 7.2 C 54.8 7.2 54.8 7.1 54.8 7.1 C 54.9 7.1 54.9 7 55 7 C 55 7 55.1 7.1 55.1 7.1 C 55.1 7.2 55.2 7.2 55.2 7.3 C 55.2 7.3 55 7.8 55 7.8 Z M 57.4 7.4 C 57.1 7.4 56.9 7.5 56.8 7.5 C 56.8 7.5 56.7 7.5 56.7 7.6 C 56.7 7.6 56.7 7.8 56.7 8.2 C 56.6 8.5 56.6 8.8 56.6 9 C 56.6 9.1 56.6 9.2 56.6 9.3 C 56.6 9.3 56.6 9.3 56.6 9.4 C 56.6 9.4 56.6 9.5 56.6 9.5 C 56.6 9.6 56.5 9.6 56.5 9.6 C 56.4 9.6 56.4 9.6 56.3 9.5 C 56.3 9.5 56.2 9.4 56.2 9.4 C 56.2 9.3 56.2 9.1 56.2 9 C 56.2 8.8 56.2 8.5 56.3 8.1 C 56.3 7.8 56.3 7.6 56.3 7.5 C 56.3 7.5 56.2 7.6 56 7.6 C 55.7 7.6 55.6 7.6 55.6 7.6 C 55.5 7.6 55.4 7.6 55.3 7.6 C 55.3 7.5 55.3 7.5 55.3 7.4 C 55.3 7.4 55.3 7.3 55.3 7.3 C 55.4 7.2 55.5 7.2 55.7 7.2 C 56 7.2 56.3 7.2 56.7 7.2 C 57 7.1 57.3 7.1 57.5 7.1 C 57.7 7.1 57.8 7.1 57.8 7.2 C 57.9 7.2 57.9 7.3 57.9 7.3 C 57.9 7.4 57.9 7.5 57.8 7.5 C 57.7 7.5 57.7 7.5 57.6 7.5 C 57.5 7.5 57.5 7.4 57.4 7.4 C 57.4 7.4 57.4 7.4 57.4 7.4 Z M 58.2 9 C 58.1 9 58.1 9 58 9 C 58 9 58 9.1 57.9 9.3 C 57.8 9.5 57.7 9.6 57.7 9.6 C 57.6 9.6 57.6 9.6 57.6 9.6 C 57.5 9.6 57.5 9.6 57.4 9.5 C 57.4 9.5 57.3 9.4 57.3 9.4 C 57.3 9.4 57.5 9.1 57.8 8.7 C 57.9 8.4 58.1 8.2 58.2 8 C 58.4 7.5 58.6 7.2 58.7 7.1 C 58.7 7.1 58.8 7 58.8 7 C 58.9 7 59 7.1 59 7.1 C 59.1 7.1 59.1 7.2 59.1 7.2 C 59.1 7.3 59.1 7.3 59.1 7.3 C 59.3 8 59.4 8.4 59.6 8.7 C 59.7 8.9 59.8 9.1 59.9 9.3 C 60 9.3 60 9.4 60 9.4 C 60 9.4 60 9.4 60 9.5 C 60 9.5 60 9.6 60 9.6 C 59.9 9.7 59.9 9.7 59.8 9.7 C 59.7 9.7 59.6 9.6 59.5 9.5 C 59.5 9.4 59.4 9.3 59.3 9.1 C 59.2 8.9 59.2 8.8 59.2 8.8 C 59.2 8.8 59.2 8.8 59.2 8.8 C 59.1 8.8 59 8.8 58.8 8.9 C 58.5 8.9 58.4 9 58.2 9 C 58.2 9 58.2 9 58.2 9 C 58.2 9 58.2 9 58.2 9 Z M 58.9 8.5 C 58.9 8.5 59 8.5 59 8.5 C 59 8.4 58.9 8.2 58.8 7.7 C 58.8 7.7 58.8 7.7 58.8 7.7 C 58.8 7.7 58.3 8.6 58.3 8.6 C 58.4 8.6 58.4 8.6 58.5 8.6 C 58.6 8.6 58.7 8.5 58.9 8.5 C 58.9 8.5 58.9 8.5 58.9 8.5 Z M 61.9 9.5 C 61.9 9.5 61.8 9.5 61.8 9.4 C 61.7 9.4 61.6 9.4 61.6 9.4 C 61.3 9.4 61 9.5 60.7 9.6 C 60.6 9.6 60.5 9.6 60.4 9.6 C 60.4 9.6 60.3 9.6 60.3 9.5 C 60.2 9.5 60.2 9.4 60.2 9.4 C 60.2 9.4 60.2 9.3 60.3 9.2 C 60.3 9.1 60.3 9 60.3 8.9 C 60.3 8.9 60.5 7.5 60.5 7.5 C 60.5 7.3 60.5 7.2 60.5 7.2 C 60.5 7.2 60.5 7.1 60.6 7.1 C 60.6 7.1 60.7 7 60.7 7 C 60.8 7 60.8 7.1 60.9 7.1 C 60.9 7.1 60.9 7.2 60.9 7.2 C 60.9 7.3 60.9 7.4 60.9 7.5 C 60.9 7.6 60.8 7.9 60.8 8.4 C 60.7 8.8 60.7 9.1 60.7 9.1 C 60.7 9.1 60.7 9.2 60.7 9.2 C 60.8 9.2 60.9 9.1 61.1 9.1 C 61.2 9.1 61.3 9.1 61.4 9.1 C 61.6 9.1 61.8 9.1 61.9 9 C 62 9 62 9 62 9 C 62.1 9 62.1 9 62.1 9.1 C 62.2 9.1 62.2 9.1 62.2 9.2 C 62.2 9.3 62.2 9.3 62.1 9.4 C 62 9.4 62 9.5 61.9 9.5 Z M 64 7.6 C 64 7.8 63.9 7.9 63.9 8 C 63.8 8.1 63.7 8.2 63.6 8.2 C 63.5 8.3 63.3 8.3 63.1 8.4 C 63 8.5 63 8.6 63 8.7 C 63 8.8 62.9 8.8 62.9 8.9 C 62.9 8.9 62.8 8.9 62.7 8.9 C 62.7 8.9 62.6 8.9 62.6 8.8 C 62.6 8.8 62.6 8.7 62.6 8.7 C 62.6 8.6 62.6 8.6 62.6 8.5 C 62.6 8.5 62.7 8.4 62.7 8.3 C 62.8 8.2 62.9 8.2 62.9 8.1 C 63 8.1 63.1 8.1 63.2 8 C 63.2 8 63.4 7.9 63.4 7.9 C 63.5 7.9 63.5 7.9 63.5 7.8 C 63.6 7.8 63.6 7.7 63.6 7.6 C 63.6 7.6 63.6 7.6 63.6 7.5 C 63.5 7.4 63.5 7.4 63.5 7.4 C 63.5 7.3 63.5 7.3 63.4 7.3 C 63.4 7.3 63.3 7.3 63.3 7.3 C 63.2 7.3 63.1 7.3 63 7.3 C 63 7.4 63 7.4 63 7.4 C 63 7.5 62.9 7.6 62.7 7.6 C 62.6 7.6 62.5 7.5 62.5 7.4 C 62.5 7.4 62.6 7.3 62.6 7.2 C 62.7 7.1 62.8 7.1 62.9 7 C 62.9 7 62.9 7 62.9 7 C 63 7 63.1 6.9 63.2 6.9 C 63.2 6.9 63.3 6.9 63.4 6.9 C 63.5 6.9 63.6 7 63.7 7 C 63.8 7.1 63.9 7.2 63.9 7.2 C 63.9 7.3 64 7.4 64 7.6 C 64 7.6 64 7.6 64 7.6 Z M 62.8 9.2 C 62.9 9.2 63 9.3 63 9.4 C 63 9.4 62.9 9.5 62.8 9.5 C 62.8 9.6 62.7 9.6 62.6 9.6 C 62.6 9.6 62.5 9.6 62.4 9.6 C 62.4 9.5 62.4 9.5 62.4 9.4 C 62.4 9.3 62.4 9.3 62.5 9.2 C 62.5 9.2 62.5 9.2 62.5 9.2 C 62.6 9.2 62.6 9.2 62.7 9.2 C 62.7 9.2 62.8 9.2 62.8 9.2 C 62.8 9.2 62.8 9.2 62.8 9.2 Z " stroke="none" fill="#000"/>  </g>  <g id="Polygon13576">    <path d="M 6.6 2.9 C 6.6 2.9 6 2.9 6 2.9 C 5.9 3 5.7 3 5.6 3 C 5.4 3 5.4 3 5.4 3 C 5.3 3.1 5.3 3.1 5.3 3.1 C 5.3 3.2 5.3 3.3 5.3 3.5 C 5.2 3.6 5.2 3.6 5.2 3.7 C 5.3 3.7 5.4 3.7 5.5 3.7 C 5.7 3.7 5.8 3.7 5.8 3.7 C 6 3.6 6.1 3.6 6.2 3.6 C 6.4 3.6 6.5 3.6 6.5 3.8 C 6.5 3.8 6.4 3.9 6.4 3.9 C 6.3 3.9 6.3 4 6.2 4 C 6.1 4 6 4 5.9 4 C 5.9 4 5.8 4 5.8 4 C 5.5 4.1 5.3 4.1 5.2 4.1 C 5.2 4.1 5.2 4.1 5.2 4.1 C 5.2 4.1 5.2 4.1 5.2 4.2 C 5.2 4.2 5.1 4.3 5.1 4.4 C 5.1 4.6 5.1 4.7 5.1 4.7 C 5.1 4.8 5.1 4.8 5.2 4.8 C 5.2 4.8 5.4 4.8 5.6 4.7 C 5.8 4.7 6 4.7 6 4.7 C 6.2 4.6 6.3 4.6 6.3 4.6 C 6.5 4.6 6.5 4.7 6.5 4.8 C 6.5 4.9 6.5 4.9 6.5 4.9 C 6.4 5 6.2 5 6 5 C 5.9 5.1 5.7 5.1 5.5 5.1 C 5.3 5.1 5.1 5.2 4.9 5.2 C 4.8 5.2 4.7 5.1 4.7 5.1 C 4.7 5.1 4.6 5 4.6 4.9 C 4.6 4.9 4.6 4.9 4.6 4.9 C 4.6 4.9 4.6 4.8 4.6 4.8 C 4.7 4.6 4.7 4.3 4.8 3.8 C 4.9 3.3 4.9 3.1 4.9 3 C 4.9 3 4.9 3 4.9 3 C 4.9 3 4.9 3 4.9 2.9 C 4.8 2.9 4.8 2.9 4.8 2.8 C 4.8 2.8 4.8 2.8 4.8 2.8 C 4.8 2.8 4.9 2.7 4.9 2.7 C 5 2.7 5 2.7 5 2.7 C 5.1 2.7 5.1 2.7 5.2 2.7 C 5.3 2.7 5.6 2.6 6.1 2.6 C 6.3 2.6 6.4 2.5 6.4 2.5 C 6.4 2.5 6.4 2.5 6.4 2.5 C 6.6 2.5 6.7 2.6 6.7 2.7 C 6.7 2.8 6.7 2.8 6.7 2.8 C 6.6 2.9 6.6 2.9 6.6 2.9 Z M 9.8 4.6 C 9.9 4.5 10 4.4 10 4.4 C 10.1 4.4 10.1 4.5 10.1 4.6 C 10.1 4.7 10 4.8 9.8 5 C 9.5 5.1 9.3 5.2 9 5.2 C 8.8 5.2 8.6 5.1 8.5 5 C 8.3 4.8 8.2 4.7 8.2 4.4 C 8.2 4.1 8.3 3.8 8.5 3.5 C 8.7 3.2 8.9 2.9 9.1 2.7 C 9.4 2.5 9.7 2.4 9.9 2.4 C 10.1 2.4 10.2 2.5 10.3 2.6 C 10.4 2.6 10.4 2.8 10.4 2.9 C 10.4 3 10.4 3.1 10.4 3.2 C 10.4 3.2 10.3 3.3 10.3 3.3 C 10.2 3.3 10.2 3.4 10.1 3.4 C 10.1 3.4 10 3.4 10 3.3 C 10 3.3 10 3.2 10 3.2 C 10 3.2 10 3.1 10 3 C 10 3 10 2.9 10 2.9 C 10 2.8 10 2.7 9.9 2.7 C 9.8 2.7 9.6 2.8 9.4 3 C 9.2 3.2 9 3.4 8.9 3.7 C 8.7 3.9 8.6 4.2 8.6 4.4 C 8.6 4.5 8.7 4.6 8.8 4.7 C 8.8 4.8 8.9 4.8 9.1 4.8 C 9.2 4.8 9.3 4.8 9.4 4.8 C 9.5 4.7 9.7 4.6 9.8 4.6 C 9.8 4.6 9.8 4.6 9.8 4.6 Z M 11.3 5.2 C 11.1 5.2 10.9 5.1 10.8 4.9 C 10.6 4.7 10.6 4.5 10.6 4.3 C 10.6 4.1 10.6 3.8 10.8 3.5 C 10.9 3.2 11.1 3 11.3 2.8 C 11.6 2.6 11.8 2.5 12 2.5 C 12.2 2.5 12.4 2.6 12.5 2.6 C 12.6 2.6 12.7 2.7 12.9 2.8 C 13 2.9 13 3 13.1 3.1 C 13.1 3.2 13.1 3.3 13.1 3.5 C 13.1 3.6 13.1 3.8 13 4 C 12.9 4.2 12.7 4.4 12.6 4.6 C 12.4 4.8 12.2 4.9 12 5 C 11.8 5.1 11.6 5.2 11.3 5.2 Z M 11 4.3 C 11 4.4 11 4.5 11.1 4.6 C 11.2 4.7 11.3 4.8 11.4 4.8 C 11.7 4.8 12 4.6 12.3 4.3 C 12.5 4 12.7 3.7 12.7 3.4 C 12.7 3.3 12.7 3.2 12.6 3.1 C 12.6 3.1 12.5 3 12.4 2.9 C 12.3 2.9 12.2 2.9 12 2.9 C 11.8 2.9 11.6 3 11.4 3.4 C 11.1 3.7 11 4 11 4.3 Z M 15.8 3.3 C 15.8 3.2 15.8 3.2 15.8 3.2 C 15.8 3.2 15.2 3.9 15.2 3.9 C 15 4.3 14.7 4.5 14.6 4.5 C 14.5 4.5 14.5 4.4 14.4 4.4 C 14.4 4.3 14.3 4.2 14.3 4 C 14.2 3.9 14.2 3.7 14.2 3.7 C 14.1 3.5 14.1 3.4 14.1 3.3 C 14.1 3.3 14 3.8 14 3.8 C 13.9 3.9 13.9 4.1 13.9 4.2 C 13.9 4.3 13.8 4.5 13.8 4.6 C 13.8 4.8 13.7 4.9 13.7 5 C 13.7 5 13.7 5.1 13.7 5.1 C 13.6 5.1 13.6 5.1 13.5 5.1 C 13.5 5.1 13.4 5.1 13.4 5.1 C 13.3 5 13.3 5 13.3 4.9 C 13.3 4.8 13.3 4.7 13.4 4.5 C 13.6 3.8 13.7 3.4 13.7 3.2 C 13.7 3 13.7 2.9 13.7 2.8 C 13.7 2.7 13.8 2.6 13.8 2.6 C 13.9 2.6 13.9 2.6 14 2.6 C 14.1 2.6 14.1 2.6 14.2 2.7 C 14.2 2.7 14.3 2.8 14.3 2.8 C 14.27 2.83 14.3 2.8 14.3 2.8 C 14.3 2.8 14.5 3.49 14.5 3.5 C 14.6 3.8 14.7 3.9 14.7 4 C 14.8 3.9 15 3.6 15.2 3.3 C 15.5 3 15.6 2.8 15.7 2.7 C 15.8 2.6 15.9 2.5 15.9 2.5 C 16 2.5 16 2.5 16.1 2.6 C 16.2 2.6 16.2 2.7 16.2 2.7 C 16.2 2.7 16.2 2.9 16.1 3.2 C 16.1 3.5 16.1 3.7 16.1 4 C 16 4.3 16 4.4 16 4.5 C 16 4.5 16 4.6 16 4.7 C 16.1 4.7 16.1 4.8 16.1 4.8 C 16.1 4.9 16 5 16 5 C 16 5.1 15.9 5.1 15.8 5.1 C 15.7 5.1 15.6 5 15.6 4.8 C 15.6 4.5 15.6 4.3 15.7 4 C 15.7 3.7 15.7 3.4 15.8 3.3 C 15.8 3.3 15.8 3.3 15.8 3.3 Z M 17.3 5.2 C 17.1 5.2 16.9 5.1 16.8 4.9 C 16.6 4.7 16.5 4.5 16.5 4.3 C 16.5 4.1 16.6 3.8 16.8 3.5 C 16.9 3.2 17.1 3 17.3 2.8 C 17.5 2.6 17.8 2.5 18 2.5 C 18.2 2.5 18.4 2.6 18.5 2.6 C 18.6 2.6 18.7 2.7 18.8 2.8 C 18.9 2.9 19 3 19 3.1 C 19.1 3.2 19.1 3.3 19.1 3.5 C 19.1 3.6 19 3.8 18.9 4 C 18.9 4.2 18.7 4.4 18.5 4.6 C 18.4 4.8 18.2 4.9 18 5 C 17.8 5.1 17.6 5.2 17.3 5.2 Z M 17 4.3 C 17 4.4 17 4.5 17.1 4.6 C 17.2 4.7 17.3 4.8 17.4 4.8 C 17.7 4.8 18 4.6 18.2 4.3 C 18.5 4 18.6 3.7 18.6 3.4 C 18.6 3.3 18.6 3.2 18.6 3.1 C 18.5 3.1 18.5 3 18.4 2.9 C 18.2 2.9 18.1 2.9 18 2.9 C 17.8 2.9 17.6 3 17.3 3.4 C 17.1 3.7 17 4 17 4.3 Z M 22.6 2.9 C 22.6 2.9 22.1 2.9 22.1 2.9 C 21.9 3 21.8 3 21.6 3 C 21.5 3 21.4 3 21.4 3 C 21.4 3.1 21.4 3.1 21.4 3.1 C 21.4 3.2 21.4 3.3 21.3 3.5 C 21.3 3.6 21.3 3.6 21.3 3.7 C 21.3 3.7 21.4 3.7 21.6 3.7 C 21.7 3.7 21.8 3.7 21.9 3.7 C 22 3.6 22.2 3.6 22.3 3.6 C 22.4 3.6 22.5 3.6 22.5 3.8 C 22.5 3.8 22.5 3.9 22.4 3.9 C 22.4 3.9 22.3 4 22.2 4 C 22.1 4 22.1 4 22 4 C 21.9 4 21.9 4 21.8 4 C 21.5 4.1 21.3 4.1 21.3 4.1 C 21.3 4.1 21.3 4.1 21.3 4.1 C 21.2 4.1 21.2 4.1 21.2 4.2 C 21.2 4.2 21.2 4.3 21.2 4.4 C 21.1 4.6 21.1 4.7 21.1 4.7 C 21.1 4.8 21.2 4.8 21.2 4.8 C 21.3 4.8 21.4 4.8 21.6 4.7 C 21.9 4.7 22 4.7 22.1 4.7 C 22.2 4.6 22.3 4.6 22.4 4.6 C 22.5 4.6 22.6 4.7 22.6 4.8 C 22.6 4.9 22.6 4.9 22.6 4.9 C 22.4 5 22.3 5 22.1 5 C 21.9 5.1 21.7 5.1 21.5 5.1 C 21.3 5.1 21.1 5.2 20.9 5.2 C 20.9 5.2 20.8 5.1 20.7 5.1 C 20.7 5.1 20.7 5 20.7 4.9 C 20.7 4.9 20.7 4.9 20.7 4.9 C 20.7 4.9 20.7 4.8 20.7 4.8 C 20.7 4.6 20.8 4.3 20.9 3.8 C 20.9 3.3 21 3.1 21 3 C 21 3 21 3 21 3 C 20.9 3 20.9 3 20.9 2.9 C 20.9 2.9 20.9 2.9 20.9 2.8 C 20.9 2.8 20.9 2.8 20.9 2.8 C 20.9 2.8 20.9 2.7 21 2.7 C 21 2.7 21.1 2.7 21.1 2.7 C 21.1 2.7 21.2 2.7 21.3 2.7 C 21.3 2.7 21.7 2.6 22.2 2.6 C 22.4 2.6 22.4 2.5 22.4 2.5 C 22.4 2.5 22.5 2.5 22.5 2.5 C 22.7 2.5 22.8 2.6 22.8 2.7 C 22.8 2.8 22.8 2.8 22.7 2.8 C 22.7 2.9 22.7 2.9 22.6 2.9 Z M 22.6 1.9 C 22.5 1.9 22.4 1.9 22.3 2 C 22.3 2 22.3 2 22.3 2 C 22.3 2.1 22.2 2.1 22 2.2 C 21.9 2.3 21.9 2.3 21.9 2.3 C 21.9 2.3 21.9 2.3 21.9 2.3 C 21.8 2.3 21.8 2.3 21.7 2.3 C 21.7 2.3 21.7 2.2 21.7 2.2 C 21.7 2.1 21.8 2 22 1.9 C 22 1.9 22 1.9 22 1.9 C 22 1.9 22 1.8 22.1 1.8 C 22.3 1.6 22.4 1.5 22.4 1.5 C 22.5 1.5 22.5 1.5 22.6 1.5 C 22.6 1.5 22.6 1.5 22.7 1.5 C 22.7 1.6 22.7 1.6 22.7 1.7 C 22.7 1.7 22.7 1.7 22.7 1.8 C 22.6 1.8 22.6 1.8 22.6 1.9 C 22.6 1.9 22.6 1.9 22.6 1.9 Z M 24.9 3.3 C 24.9 3.4 24.9 3.5 24.9 3.6 C 24.9 3.6 24.9 3.7 24.8 3.8 C 24.8 4.1 24.8 4.3 24.8 4.3 C 24.8 4.5 24.8 4.6 24.8 4.8 C 24.8 4.9 24.8 5 24.8 5 C 24.7 5.1 24.6 5.1 24.6 5.1 C 24.5 5.1 24.4 5.1 24.4 5 C 24.4 4.9 24.4 4.8 24.4 4.6 C 24.4 4.5 24.4 4.3 24.4 3.9 C 24.4 3.9 24.5 3.2 24.5 3.2 C 24.6 3.1 24.6 3 24.6 2.9 C 24.6 2.8 24.6 2.7 24.6 2.7 C 24.6 2.7 24.7 2.6 24.7 2.6 C 24.8 2.6 24.8 2.5 24.8 2.5 C 24.9 2.5 25 2.6 25 2.6 C 25 2.7 25.1 2.7 25.1 2.8 C 25.1 2.8 24.9 3.3 24.9 3.3 Z M 27.3 2.9 C 27.3 3.1 27.1 3.2 26.9 3.2 C 26.9 3.1 26.9 3 26.8 3 C 26.8 2.9 26.7 2.9 26.6 2.9 C 26.4 2.9 26.2 2.9 26 3 C 25.9 3.1 25.8 3.2 25.8 3.3 C 25.8 3.4 25.8 3.5 25.9 3.5 C 26 3.6 26.1 3.6 26.4 3.7 C 26.6 3.8 26.8 3.9 27 4 C 27.1 4.1 27.2 4.2 27.2 4.3 C 27.2 4.5 27 4.7 26.7 4.9 C 26.3 5.1 26 5.2 25.6 5.2 C 25.5 5.2 25.4 5.2 25.3 5.1 C 25.3 5.1 25.2 5 25.2 4.9 C 25.2 4.9 25.3 4.8 25.3 4.8 C 25.3 4.7 25.4 4.7 25.4 4.7 C 25.4 4.7 25.5 4.7 25.5 4.7 C 25.6 4.8 25.7 4.8 25.8 4.8 C 26 4.8 26.2 4.8 26.4 4.7 C 26.6 4.6 26.7 4.5 26.7 4.4 C 26.7 4.3 26.7 4.3 26.7 4.2 C 26.6 4.2 26.5 4.2 26.3 4.1 C 26.1 4 25.9 4 25.8 3.9 C 25.6 3.9 25.5 3.8 25.5 3.7 C 25.4 3.6 25.4 3.5 25.4 3.4 C 25.4 3.2 25.5 3 25.8 2.8 C 26 2.6 26.3 2.5 26.6 2.5 C 26.8 2.5 27 2.6 27.1 2.6 C 27.2 2.7 27.3 2.8 27.3 2.9 C 27.3 2.9 27.3 2.9 27.3 2.9 Z M 29.4 2.9 C 29.4 3.1 29.3 3.2 29.1 3.2 C 29.1 3.1 29.1 3 29 3 C 28.9 2.9 28.9 2.9 28.7 2.9 C 28.5 2.9 28.4 2.9 28.2 3 C 28 3.1 28 3.2 28 3.3 C 28 3.4 28 3.5 28 3.5 C 28.1 3.6 28.3 3.6 28.5 3.7 C 28.8 3.8 29 3.9 29.1 4 C 29.3 4.1 29.3 4.2 29.3 4.3 C 29.3 4.5 29.2 4.7 28.8 4.9 C 28.5 5.1 28.1 5.2 27.8 5.2 C 27.7 5.2 27.6 5.2 27.5 5.1 C 27.4 5.1 27.4 5 27.4 4.9 C 27.4 4.9 27.4 4.8 27.4 4.8 C 27.5 4.7 27.5 4.7 27.6 4.7 C 27.6 4.7 27.6 4.7 27.6 4.7 C 27.8 4.8 27.9 4.8 28 4.8 C 28.1 4.8 28.3 4.8 28.6 4.7 C 28.8 4.6 28.9 4.5 28.9 4.4 C 28.9 4.3 28.9 4.3 28.8 4.2 C 28.8 4.2 28.7 4.2 28.5 4.1 C 28.2 4 28 4 27.9 3.9 C 27.8 3.9 27.7 3.8 27.6 3.7 C 27.6 3.6 27.5 3.5 27.5 3.4 C 27.5 3.2 27.7 3 27.9 2.8 C 28.2 2.6 28.5 2.5 28.8 2.5 C 29 2.5 29.1 2.6 29.2 2.6 C 29.4 2.7 29.4 2.8 29.4 2.9 C 29.4 2.9 29.4 2.9 29.4 2.9 Z M 30.3 5.2 C 30.1 5.2 30 5.1 29.8 4.9 C 29.7 4.7 29.6 4.5 29.6 4.3 C 29.6 4.1 29.7 3.8 29.8 3.5 C 30 3.2 30.1 3 30.4 2.8 C 30.6 2.6 30.8 2.5 31.1 2.5 C 31.3 2.5 31.4 2.6 31.5 2.6 C 31.7 2.6 31.8 2.7 31.9 2.8 C 32 2.9 32.1 3 32.1 3.1 C 32.1 3.2 32.1 3.3 32.1 3.5 C 32.1 3.6 32.1 3.8 32 4 C 31.9 4.2 31.8 4.4 31.6 4.6 C 31.4 4.8 31.2 4.9 31.1 5 C 30.9 5.1 30.6 5.2 30.3 5.2 Z M 30 4.3 C 30 4.4 30.1 4.5 30.2 4.6 C 30.2 4.7 30.3 4.8 30.4 4.8 C 30.8 4.8 31 4.6 31.3 4.3 C 31.6 4 31.7 3.7 31.7 3.4 C 31.7 3.3 31.7 3.2 31.6 3.1 C 31.6 3.1 31.5 3 31.4 2.9 C 31.3 2.9 31.2 2.9 31.1 2.9 C 30.9 2.9 30.6 3 30.4 3.4 C 30.2 3.7 30 4 30 4.3 Z M 34 3.1 C 34 3.3 34 3.4 33.9 3.5 C 33.8 3.6 33.8 3.7 33.7 3.7 C 33.6 3.8 33.4 3.8 33.1 3.9 C 33.1 4 33 4.1 33 4.2 C 33 4.3 33 4.3 32.9 4.4 C 32.9 4.4 32.8 4.4 32.7 4.4 C 32.7 4.4 32.7 4.4 32.7 4.3 C 32.6 4.3 32.6 4.2 32.6 4.2 C 32.6 4.1 32.6 4.1 32.6 4 C 32.7 4 32.7 3.9 32.8 3.8 C 32.8 3.7 32.9 3.7 32.9 3.6 C 33 3.6 33.1 3.6 33.2 3.5 C 33.2 3.5 33.5 3.4 33.5 3.4 C 33.5 3.4 33.6 3.4 33.6 3.3 C 33.6 3.3 33.6 3.2 33.6 3.1 C 33.6 3.1 33.6 3.1 33.6 3 C 33.6 2.9 33.6 2.9 33.5 2.9 C 33.5 2.8 33.5 2.8 33.5 2.8 C 33.4 2.8 33.4 2.8 33.3 2.8 C 33.2 2.8 33.1 2.8 33.1 2.8 C 33 2.9 33 2.9 33 2.9 C 33 3 32.9 3.1 32.7 3.1 C 32.6 3.1 32.6 3 32.6 2.9 C 32.6 2.9 32.6 2.8 32.7 2.7 C 32.8 2.6 32.8 2.6 32.9 2.5 C 32.9 2.5 32.9 2.5 32.9 2.5 C 33 2.5 33.1 2.4 33.2 2.4 C 33.3 2.4 33.3 2.4 33.4 2.4 C 33.5 2.4 33.6 2.5 33.7 2.5 C 33.8 2.6 33.9 2.7 33.9 2.7 C 34 2.8 34 2.9 34 3.1 C 34 3.1 34 3.1 34 3.1 Z M 32.8 4.7 C 33 4.7 33 4.8 33 4.9 C 33 4.9 33 5 32.9 5 C 32.8 5.1 32.7 5.1 32.7 5.1 C 32.6 5.1 32.5 5.1 32.5 5.1 C 32.4 5 32.4 5 32.4 4.9 C 32.4 4.8 32.5 4.8 32.5 4.7 C 32.6 4.7 32.6 4.7 32.6 4.7 C 32.6 4.7 32.7 4.7 32.7 4.7 C 32.7 4.7 32.8 4.7 32.8 4.7 C 32.8 4.7 32.8 4.7 32.8 4.7 Z M 37 4.6 C 37.1 4.5 37.2 4.4 37.2 4.4 C 37.3 4.4 37.3 4.5 37.3 4.6 C 37.3 4.7 37.2 4.8 37 5 C 36.7 5.1 36.5 5.2 36.2 5.2 C 36 5.2 35.8 5.1 35.7 5 C 35.5 4.8 35.4 4.7 35.4 4.4 C 35.4 4.1 35.5 3.8 35.7 3.5 C 35.8 3.2 36.1 2.9 36.3 2.7 C 36.6 2.5 36.9 2.4 37.1 2.4 C 37.3 2.4 37.4 2.5 37.5 2.6 C 37.6 2.6 37.6 2.8 37.6 2.9 C 37.6 3 37.6 3.1 37.6 3.2 C 37.6 3.2 37.5 3.3 37.5 3.3 C 37.4 3.3 37.4 3.4 37.3 3.4 C 37.3 3.4 37.2 3.4 37.2 3.3 C 37.2 3.3 37.1 3.2 37.1 3.2 C 37.1 3.2 37.2 3.1 37.2 3 C 37.2 3 37.2 2.9 37.2 2.9 C 37.2 2.8 37.2 2.7 37.1 2.7 C 37 2.7 36.8 2.8 36.6 3 C 36.4 3.2 36.2 3.4 36 3.7 C 35.9 3.9 35.8 4.2 35.8 4.4 C 35.8 4.5 35.9 4.6 35.9 4.7 C 36 4.8 36.1 4.8 36.3 4.8 C 36.4 4.8 36.5 4.8 36.6 4.8 C 36.7 4.7 36.9 4.6 37 4.6 C 37 4.6 37 4.6 37 4.6 Z M 38.5 5.2 C 38.3 5.2 38.1 5.1 38 4.9 C 37.8 4.7 37.8 4.5 37.8 4.3 C 37.8 4.1 37.8 3.8 38 3.5 C 38.1 3.2 38.3 3 38.5 2.8 C 38.8 2.6 39 2.5 39.2 2.5 C 39.4 2.5 39.6 2.6 39.7 2.6 C 39.8 2.6 39.9 2.7 40 2.8 C 40.2 2.9 40.2 3 40.3 3.1 C 40.3 3.2 40.3 3.3 40.3 3.5 C 40.3 3.6 40.3 3.8 40.2 4 C 40.1 4.2 39.9 4.4 39.8 4.6 C 39.6 4.8 39.4 4.9 39.2 5 C 39 5.1 38.8 5.2 38.5 5.2 Z M 38.2 4.3 C 38.2 4.4 38.2 4.5 38.3 4.6 C 38.4 4.7 38.5 4.8 38.6 4.8 C 38.9 4.8 39.2 4.6 39.5 4.3 C 39.7 4 39.9 3.7 39.9 3.4 C 39.9 3.3 39.8 3.2 39.8 3.1 C 39.8 3.1 39.7 3 39.6 2.9 C 39.5 2.9 39.4 2.9 39.2 2.9 C 39 2.9 38.8 3 38.6 3.4 C 38.3 3.7 38.2 4 38.2 4.3 Z M 43 3.3 C 43 3.2 43 3.2 43 3.2 C 43 3.2 42.4 3.9 42.4 3.9 C 42.1 4.3 41.9 4.5 41.8 4.5 C 41.7 4.5 41.7 4.4 41.6 4.4 C 41.6 4.3 41.5 4.2 41.5 4 C 41.4 3.9 41.4 3.7 41.4 3.7 C 41.3 3.5 41.3 3.4 41.3 3.3 C 41.3 3.3 41.2 3.8 41.2 3.8 C 41.1 3.9 41.1 4.1 41.1 4.2 C 41.1 4.3 41 4.5 41 4.6 C 41 4.8 40.9 4.9 40.9 5 C 40.9 5 40.9 5.1 40.9 5.1 C 40.8 5.1 40.8 5.1 40.7 5.1 C 40.7 5.1 40.6 5.1 40.6 5.1 C 40.5 5 40.5 5 40.5 4.9 C 40.5 4.8 40.5 4.7 40.6 4.5 C 40.8 3.8 40.9 3.4 40.9 3.2 C 40.9 3 40.9 2.9 40.9 2.8 C 40.9 2.7 41 2.6 41 2.6 C 41.1 2.6 41.1 2.6 41.2 2.6 C 41.3 2.6 41.3 2.6 41.4 2.7 C 41.4 2.7 41.4 2.8 41.5 2.8 C 41.46 2.83 41.5 2.8 41.5 2.8 C 41.5 2.8 41.7 3.49 41.7 3.5 C 41.8 3.8 41.9 3.9 41.9 4 C 42 3.9 42.2 3.6 42.4 3.3 C 42.7 3 42.8 2.8 42.9 2.7 C 43 2.6 43.1 2.5 43.1 2.5 C 43.2 2.5 43.2 2.5 43.3 2.6 C 43.4 2.6 43.4 2.7 43.4 2.7 C 43.4 2.7 43.4 2.9 43.3 3.2 C 43.3 3.5 43.3 3.7 43.3 4 C 43.2 4.3 43.2 4.4 43.2 4.5 C 43.2 4.5 43.2 4.6 43.2 4.7 C 43.3 4.7 43.3 4.8 43.3 4.8 C 43.3 4.9 43.2 5 43.2 5 C 43.2 5.1 43.1 5.1 43 5.1 C 42.9 5.1 42.8 5 42.8 4.8 C 42.8 4.5 42.8 4.3 42.9 4 C 42.9 3.7 42.9 3.4 43 3.3 C 43 3.3 43 3.3 43 3.3 Z M 44.5 5.2 C 44.3 5.2 44.1 5.1 44 4.9 C 43.8 4.7 43.7 4.5 43.7 4.3 C 43.7 4.1 43.8 3.8 44 3.5 C 44.1 3.2 44.3 3 44.5 2.8 C 44.7 2.6 45 2.5 45.2 2.5 C 45.4 2.5 45.6 2.6 45.7 2.6 C 45.8 2.6 45.9 2.7 46 2.8 C 46.1 2.9 46.2 3 46.2 3.1 C 46.3 3.2 46.3 3.3 46.3 3.5 C 46.3 3.6 46.2 3.8 46.1 4 C 46 4.2 45.9 4.4 45.7 4.6 C 45.6 4.8 45.4 4.9 45.2 5 C 45 5.1 44.8 5.2 44.5 5.2 Z M 44.2 4.3 C 44.2 4.4 44.2 4.5 44.3 4.6 C 44.4 4.7 44.5 4.8 44.6 4.8 C 44.9 4.8 45.2 4.6 45.4 4.3 C 45.7 4 45.8 3.7 45.8 3.4 C 45.8 3.3 45.8 3.2 45.8 3.1 C 45.7 3.1 45.7 3 45.5 2.9 C 45.4 2.9 45.3 2.9 45.2 2.9 C 45 2.9 44.8 3 44.5 3.4 C 44.3 3.7 44.2 4 44.2 4.3 Z M 49.7 2.9 C 49.7 2.9 49.7 2.9 49.6 2.9 C 49.6 2.9 49.6 2.9 49.6 2.9 C 49.5 2.9 49.5 2.9 49.4 2.9 C 49.3 2.9 49.1 2.9 48.9 2.9 C 48.8 3 48.6 3 48.6 3 C 48.5 3.2 48.5 3.5 48.4 3.8 C 48.5 3.8 48.5 3.8 48.6 3.8 C 48.8 3.8 48.9 3.7 49.1 3.7 C 49.2 3.7 49.3 3.7 49.4 3.7 C 49.6 3.7 49.6 3.7 49.6 3.8 C 49.6 3.9 49.6 3.9 49.6 3.9 C 49.6 4 49.5 4 49.5 4 C 49.4 4 49.4 4 49.3 4.1 C 49.3 4.1 48.8 4.1 48.8 4.1 C 48.6 4.1 48.5 4.2 48.4 4.2 C 48.4 4.2 48.4 4.2 48.4 4.2 C 48.4 4.2 48.4 4.3 48.4 4.4 C 48.4 4.5 48.3 4.7 48.3 4.8 C 48.3 4.8 48.4 5 48.4 5 C 48.4 5.1 48.3 5.2 48.2 5.2 C 48.1 5.2 48 5.2 48 5.1 C 47.9 5.1 47.9 5 47.9 4.9 C 47.9 4.8 47.9 4.6 48 4.3 C 48 4.3 48 3.9 48.1 3 C 48.1 3 48.1 2.9 48.1 2.9 C 48.1 2.9 48.1 2.8 48.1 2.8 C 48.1 2.8 48.1 2.7 48.2 2.7 C 48.2 2.6 48.3 2.6 48.3 2.6 C 48.3 2.6 48.3 2.6 48.4 2.6 C 48.4 2.6 48.5 2.6 48.5 2.6 C 48.6 2.6 48.7 2.6 49.1 2.6 C 49.3 2.6 49.4 2.5 49.5 2.5 C 49.6 2.5 49.7 2.6 49.8 2.6 C 49.8 2.6 49.9 2.7 49.9 2.7 C 49.9 2.8 49.8 2.9 49.7 2.9 C 49.7 2.9 49.7 2.9 49.7 2.9 Z M 50.9 5.2 C 50.7 5.2 50.6 5.1 50.4 5 C 50.3 5 50.1 4.8 50 4.6 C 50 4.5 49.9 4.3 49.9 4.1 C 49.9 3.9 49.9 3.8 50 3.6 C 50 3.6 50 3.3 50 3.3 C 50 3.3 50 3.2 50 3.2 C 50.1 3.1 50.1 3 50.1 2.9 C 50.1 2.8 50.1 2.7 50.2 2.6 C 50.2 2.6 50.3 2.5 50.3 2.5 C 50.4 2.5 50.4 2.6 50.5 2.6 C 50.5 2.7 50.5 2.8 50.5 2.8 C 50.5 2.8 50.5 2.9 50.5 3.2 C 50.4 3.2 50.4 3.4 50.4 3.6 C 50.3 3.8 50.3 4 50.3 4 C 50.3 4.3 50.4 4.5 50.5 4.6 C 50.6 4.7 50.8 4.8 50.8 4.8 C 51.1 4.8 51.3 4.7 51.4 4.6 C 51.6 4.5 51.6 4.3 51.7 4 C 51.7 3.9 51.7 3.9 51.7 3.8 C 51.7 3.7 51.7 3.6 51.7 3.5 C 51.7 3.1 51.8 2.9 51.8 2.8 C 51.9 2.7 51.9 2.6 52 2.6 C 52.2 2.6 52.2 2.7 52.2 2.8 C 52.2 2.9 52.2 3.1 52.2 3.3 C 52.1 3.5 52.1 3.6 52.1 3.8 C 52.1 4.1 52 4.4 52 4.5 C 51.9 4.7 51.8 4.8 51.6 5 C 51.4 5.1 51.1 5.2 50.9 5.2 Z M 52.6 4.5 C 52.6 4.5 52.69 3.9 52.7 3.9 C 52.8 3.4 52.8 3.1 52.8 2.9 C 52.8 2.9 52.8 2.8 52.9 2.8 C 52.9 2.7 52.9 2.7 52.9 2.7 C 53 2.6 53 2.6 53.1 2.6 C 53.1 2.6 53.2 2.6 53.2 2.7 C 53.3 2.7 53.3 2.8 53.3 2.9 C 53.4 3.1 53.5 3.3 53.7 3.7 C 53.9 4 54.1 4.3 54.2 4.5 C 54.3 4.3 54.3 4 54.4 3.7 C 54.4 3.5 54.4 3.3 54.5 3.1 C 54.5 3 54.5 2.9 54.5 2.7 C 54.5 2.6 54.6 2.6 54.6 2.5 C 54.7 2.5 54.7 2.5 54.8 2.5 C 54.8 2.5 54.9 2.5 54.9 2.6 C 54.9 2.6 54.9 2.7 54.9 2.8 C 54.9 2.8 54.9 2.9 54.9 3 C 54.8 3.3 54.8 3.6 54.7 4 C 54.6 4.5 54.6 4.7 54.6 4.7 C 54.6 4.7 54.6 4.8 54.6 4.8 C 54.6 4.9 54.6 4.9 54.6 4.9 C 54.6 5 54.5 5 54.5 5 C 54.4 5.1 54.4 5.1 54.3 5.1 C 54.3 5.1 54.2 5.1 54.2 5.1 C 54.2 5.1 54.2 5 54.1 5 C 54.1 5 54.1 4.9 54 4.8 C 54 4.8 53.9 4.7 53.9 4.7 C 53.6 4.3 53.4 3.9 53.1 3.4 C 53.1 3.6 53 3.9 53 4.4 C 53 4.4 53 4.6 53 4.6 C 52.9 4.6 52.9 4.7 52.9 4.8 C 52.9 4.9 52.9 5 52.8 5.1 C 52.8 5.1 52.7 5.2 52.7 5.2 C 52.6 5.2 52.6 5.1 52.5 5.1 C 52.5 5.1 52.5 5 52.5 4.9 C 52.5 4.8 52.5 4.7 52.6 4.5 C 52.56 4.48 52.6 4.5 52.6 4.5 Z M 56.8 4.6 C 56.9 4.5 57 4.4 57 4.4 C 57.1 4.4 57.1 4.5 57.1 4.6 C 57.1 4.7 57 4.8 56.7 5 C 56.5 5.1 56.3 5.2 56 5.2 C 55.8 5.2 55.6 5.1 55.4 5 C 55.3 4.8 55.2 4.7 55.2 4.4 C 55.2 4.1 55.3 3.8 55.5 3.5 C 55.6 3.2 55.9 2.9 56.1 2.7 C 56.4 2.5 56.7 2.4 56.9 2.4 C 57.1 2.4 57.2 2.5 57.3 2.6 C 57.4 2.6 57.4 2.8 57.4 2.9 C 57.4 3 57.4 3.1 57.4 3.2 C 57.4 3.2 57.3 3.3 57.3 3.3 C 57.2 3.3 57.1 3.4 57.1 3.4 C 57.1 3.4 57 3.4 57 3.3 C 57 3.3 56.9 3.2 56.9 3.2 C 56.9 3.2 57 3.1 57 3 C 57 3 57 2.9 57 2.9 C 57 2.8 57 2.7 56.9 2.7 C 56.8 2.7 56.6 2.8 56.4 3 C 56.2 3.2 56 3.4 55.8 3.7 C 55.7 3.9 55.6 4.2 55.6 4.4 C 55.6 4.5 55.7 4.6 55.7 4.7 C 55.8 4.8 55.9 4.8 56.1 4.8 C 56.2 4.8 56.3 4.8 56.4 4.8 C 56.5 4.7 56.7 4.6 56.8 4.6 C 56.8 4.6 56.8 4.6 56.8 4.6 Z M 58.2 3.3 C 58.2 3.4 58.2 3.5 58.2 3.6 C 58.2 3.6 58.2 3.7 58.1 3.8 C 58.1 4.1 58.1 4.3 58.1 4.3 C 58.1 4.5 58.1 4.6 58.1 4.8 C 58.1 4.9 58.1 5 58.1 5 C 58 5.1 57.9 5.1 57.9 5.1 C 57.8 5.1 57.7 5.1 57.7 5 C 57.7 4.9 57.7 4.8 57.7 4.6 C 57.7 4.5 57.7 4.3 57.7 3.9 C 57.7 3.9 57.8 3.2 57.8 3.2 C 57.9 3.1 57.9 3 57.9 2.9 C 57.9 2.8 57.9 2.7 57.9 2.7 C 57.9 2.7 58 2.6 58 2.6 C 58.1 2.6 58.1 2.5 58.2 2.5 C 58.2 2.5 58.3 2.6 58.3 2.6 C 58.3 2.7 58.4 2.7 58.4 2.8 C 58.4 2.8 58.2 3.3 58.2 3.3 Z M 59.3 5.2 C 59.1 5.2 59 5.1 58.8 4.9 C 58.7 4.7 58.6 4.5 58.6 4.3 C 58.6 4.1 58.7 3.8 58.8 3.5 C 58.9 3.2 59.1 3 59.4 2.8 C 59.6 2.6 59.8 2.5 60.1 2.5 C 60.3 2.5 60.4 2.6 60.5 2.6 C 60.7 2.6 60.8 2.7 60.9 2.8 C 61 2.9 61 3 61.1 3.1 C 61.1 3.2 61.1 3.3 61.1 3.5 C 61.1 3.6 61.1 3.8 61 4 C 60.9 4.2 60.8 4.4 60.6 4.6 C 60.4 4.8 60.2 4.9 60 5 C 59.9 5.1 59.6 5.2 59.3 5.2 Z M 59 4.3 C 59 4.4 59.1 4.5 59.1 4.6 C 59.2 4.7 59.3 4.8 59.4 4.8 C 59.7 4.8 60 4.6 60.3 4.3 C 60.6 4 60.7 3.7 60.7 3.4 C 60.7 3.3 60.7 3.2 60.6 3.1 C 60.6 3.1 60.5 3 60.4 2.9 C 60.3 2.9 60.2 2.9 60.1 2.9 C 59.8 2.9 59.6 3 59.4 3.4 C 59.1 3.7 59 4 59 4.3 Z M 61.5 4.5 C 61.5 4.5 61.58 3.9 61.6 3.9 C 61.7 3.4 61.7 3.1 61.7 2.9 C 61.7 2.9 61.7 2.8 61.7 2.8 C 61.8 2.7 61.8 2.7 61.8 2.7 C 61.9 2.6 61.9 2.6 62 2.6 C 62 2.6 62.1 2.6 62.1 2.7 C 62.1 2.7 62.2 2.8 62.2 2.9 C 62.3 3.1 62.4 3.3 62.6 3.7 C 62.8 4 63 4.3 63.1 4.5 C 63.2 4.3 63.2 4 63.3 3.7 C 63.3 3.5 63.3 3.3 63.4 3.1 C 63.4 3 63.4 2.9 63.4 2.7 C 63.4 2.6 63.4 2.6 63.5 2.5 C 63.6 2.5 63.6 2.5 63.7 2.5 C 63.7 2.5 63.8 2.5 63.8 2.6 C 63.8 2.6 63.8 2.7 63.8 2.8 C 63.8 2.8 63.8 2.9 63.8 3 C 63.7 3.3 63.6 3.6 63.6 4 C 63.5 4.5 63.5 4.7 63.5 4.7 C 63.5 4.7 63.5 4.8 63.5 4.8 C 63.5 4.9 63.5 4.9 63.5 4.9 C 63.4 5 63.4 5 63.4 5 C 63.3 5.1 63.3 5.1 63.2 5.1 C 63.2 5.1 63.1 5.1 63.1 5.1 C 63.1 5.1 63.1 5 63 5 C 63 5 63 4.9 62.9 4.8 C 62.9 4.8 62.8 4.7 62.8 4.7 C 62.5 4.3 62.3 3.9 62 3.4 C 62 3.6 61.9 3.9 61.9 4.4 C 61.9 4.4 61.8 4.6 61.8 4.6 C 61.8 4.6 61.8 4.7 61.8 4.8 C 61.8 4.9 61.8 5 61.7 5.1 C 61.7 5.1 61.6 5.2 61.6 5.2 C 61.5 5.2 61.5 5.1 61.4 5.1 C 61.4 5.1 61.4 5 61.4 4.9 C 61.4 4.8 61.4 4.7 61.5 4.5 C 61.45 4.48 61.5 4.5 61.5 4.5 Z M 64.7 4.5 C 64.7 4.5 64.6 4.5 64.6 4.5 C 64.6 4.5 64.5 4.6 64.4 4.8 C 64.3 5 64.2 5.1 64.2 5.1 C 64.2 5.1 64.1 5.1 64.1 5.1 C 64.1 5.1 64 5.1 64 5 C 63.9 5 63.9 4.9 63.9 4.9 C 63.9 4.9 64 4.6 64.3 4.2 C 64.5 3.9 64.6 3.7 64.7 3.5 C 65 3 65.1 2.7 65.2 2.6 C 65.3 2.6 65.3 2.5 65.4 2.5 C 65.5 2.5 65.5 2.6 65.6 2.6 C 65.6 2.6 65.6 2.7 65.6 2.7 C 65.6 2.8 65.6 2.8 65.6 2.8 C 65.8 3.5 66 3.9 66.1 4.2 C 66.2 4.4 66.3 4.6 66.5 4.8 C 66.5 4.8 66.6 4.9 66.6 4.9 C 66.6 4.9 66.6 4.9 66.6 5 C 66.6 5 66.6 5.1 66.5 5.1 C 66.5 5.2 66.4 5.2 66.4 5.2 C 66.3 5.2 66.2 5.1 66.1 5 C 66 4.9 65.9 4.8 65.8 4.6 C 65.8 4.4 65.7 4.3 65.7 4.3 C 65.7 4.3 65.7 4.3 65.7 4.3 C 65.6 4.3 65.5 4.3 65.3 4.4 C 65.1 4.4 64.9 4.5 64.8 4.5 C 64.8 4.5 64.7 4.5 64.7 4.5 C 64.7 4.5 64.7 4.5 64.7 4.5 Z M 65.4 4 C 65.5 4 65.5 4 65.6 4 C 65.6 3.9 65.5 3.7 65.3 3.2 C 65.3 3.2 65.3 3.2 65.3 3.2 C 65.3 3.2 64.8 4.1 64.8 4.1 C 64.9 4.1 65 4.1 65 4.1 C 65.1 4.1 65.2 4 65.4 4 C 65.4 4 65.4 4 65.4 4 Z " stroke="none" fill="#000"/>  </g></svg>