<?xml version="1.0" standalone="no"?><!DOCTYPE svg PUBLIC "-//W3C//DTD SVG 1.1//EN" "http://www.w3.org/Graphics/SVG/1.1/DTD/svg11.dtd"><svg xmlns="http://www.w3.org/2000/svg" version="1.1" width="64px" height="22.9px" viewBox="0 -1 64 22.9" style="top:-1px">  <desc>ENT O QUER DIZER QUE COM O VOTO DISTRITAL CONSEGUIMOS PARTICIPAR E SERMOS CIDAD OS DE VERDADE!!!</desc>  <defs/>  <g id="Polygon15065">    <path d="M 20.2 16.8 C 20.2 16.8 20.2 16.7 20.2 16.6 C 20.2 16.2 20.3 15.9 20.3 15.5 C 20.4 15.4 20.4 15.4 20.4 15.3 C 20.4 15.3 20.4 15.3 20.3 15.3 C 20.2 15.3 20.2 15.2 20.2 15.2 C 20.2 15.1 20.2 15.1 20.2 15 C 20.3 15 20.3 15 20.4 15 C 20.4 15 20.6 15 20.6 15 C 20.7 15 20.8 15 21 15 C 21.1 14.9 21.2 14.9 21.3 14.9 C 21.5 14.9 21.8 15 21.9 15.2 C 22.1 15.3 22.2 15.5 22.2 15.8 C 22.2 16.1 22.1 16.3 21.8 16.5 C 21.5 16.8 21.2 16.9 20.9 17 C 20.8 17 20.7 17 20.7 17.1 C 20.6 17.1 20.6 17.1 20.5 17.1 C 20.4 17.2 20.4 17.2 20.3 17.2 C 20.3 17.2 20.2 17.2 20.2 17.1 C 20.1 17.1 20.1 17 20.1 17 C 20.1 17 20.1 17 20.2 16.9 C 20.2 16.9 20.2 16.8 20.2 16.8 Z M 20.6 16.7 C 20.6 16.7 20.6 16.7 20.6 16.8 C 20.6 16.8 20.8 16.7 21 16.7 C 21.3 16.6 21.5 16.5 21.6 16.3 C 21.8 16.1 21.8 16 21.8 15.8 C 21.8 15.6 21.8 15.5 21.7 15.4 C 21.6 15.3 21.4 15.2 21.2 15.2 C 21.1 15.2 21 15.2 20.8 15.3 C 20.8 15.3 20.7 15.3 20.7 15.3 C 20.6 15.9 20.6 16.4 20.6 16.7 C 20.6 16.7 20.6 16.7 20.6 16.7 Z M 24.1 15.3 C 24.1 15.3 23.6 15.3 23.6 15.3 C 23.5 15.3 23.4 15.3 23.2 15.3 C 23.1 15.3 23.1 15.4 23.1 15.4 C 23 15.4 23 15.4 23 15.5 C 23 15.5 23 15.6 23 15.7 C 23 15.8 22.9 15.9 22.9 15.9 C 23 15.9 23.1 15.9 23.2 15.9 C 23.3 15.9 23.4 15.9 23.5 15.9 C 23.6 15.9 23.7 15.8 23.8 15.8 C 23.9 15.8 24 15.9 24 16 C 24 16 24 16.1 24 16.1 C 23.9 16.1 23.8 16.2 23.7 16.2 C 23.7 16.2 23.6 16.2 23.6 16.2 C 23.5 16.2 23.5 16.2 23.4 16.2 C 23.1 16.2 23 16.3 22.9 16.3 C 22.9 16.3 22.9 16.3 22.9 16.3 C 22.9 16.3 22.9 16.3 22.9 16.3 C 22.9 16.3 22.9 16.4 22.9 16.5 C 22.8 16.7 22.8 16.8 22.8 16.8 C 22.8 16.8 22.9 16.9 22.9 16.9 C 22.9 16.9 23.1 16.8 23.3 16.8 C 23.5 16.8 23.6 16.8 23.6 16.8 C 23.8 16.7 23.9 16.7 23.9 16.7 C 24 16.7 24.1 16.8 24.1 16.9 C 24.1 16.9 24.1 17 24 17 C 23.9 17 23.8 17.1 23.6 17.1 C 23.5 17.1 23.3 17.1 23.1 17.1 C 23 17.2 22.8 17.2 22.7 17.2 C 22.6 17.2 22.5 17.2 22.5 17.1 C 22.5 17.1 22.4 17 22.4 17 C 22.4 17 22.4 16.9 22.4 16.9 C 22.4 16.9 22.4 16.9 22.5 16.8 C 22.5 16.7 22.5 16.5 22.6 16 C 22.7 15.6 22.7 15.4 22.7 15.3 C 22.7 15.3 22.7 15.3 22.7 15.3 C 22.7 15.3 22.7 15.3 22.6 15.3 C 22.6 15.2 22.6 15.2 22.6 15.2 C 22.6 15.2 22.6 15.1 22.6 15.1 C 22.6 15.1 22.6 15.1 22.7 15.1 C 22.7 15.1 22.8 15 22.8 15 C 22.8 15 22.9 15 22.9 15.1 C 23 15.1 23.3 15 23.7 15 C 23.9 14.9 23.9 14.9 24 14.9 C 24 14.9 24 14.9 24 14.9 C 24.1 14.9 24.2 15 24.2 15.1 C 24.2 15.1 24.2 15.2 24.2 15.2 C 24.2 15.2 24.1 15.2 24.1 15.3 Z M 27.7 15.1 C 27.7 15.1 27.7 15.1 27.7 15.1 C 27.7 15.1 27.7 15.1 27.6 15.2 C 27.5 15.4 27.4 15.5 27.3 15.6 C 27.3 15.7 27.2 16 27 16.3 C 26.9 16.4 26.8 16.6 26.8 16.6 C 26.7 16.7 26.6 16.9 26.6 16.9 C 26.6 17 26.5 17 26.5 17 C 26.4 17.1 26.4 17.1 26.3 17.1 C 26.3 17.1 26.2 17.1 26.2 17 C 26.2 17 26.1 16.9 26.1 16.7 C 26 16.6 25.9 16.4 25.8 16.1 C 25.6 15.5 25.5 15.2 25.5 15.2 C 25.5 15.2 25.5 15.1 25.5 15.1 C 25.6 15 25.6 15 25.7 15 C 25.7 15 25.8 15 25.8 15 C 25.9 15.1 25.9 15.2 25.9 15.3 C 25.9 15.4 26 15.6 26.1 15.9 C 26.3 16.2 26.3 16.5 26.4 16.6 C 26.4 16.6 26.5 16.5 26.5 16.4 C 26.5 16.4 26.5 16.4 26.5 16.4 C 26.7 16.2 26.8 16 26.9 15.8 C 27 15.5 27.2 15.3 27.3 15.1 C 27.4 15 27.5 14.9 27.6 14.9 C 27.7 14.9 27.7 14.9 27.7 15 C 27.72 15.04 27.7 15.1 27.7 15.1 C 27.7 15.1 27.72 15.05 27.7 15.1 Z M 29.3 15.3 C 29.3 15.3 28.9 15.3 28.9 15.3 C 28.7 15.3 28.6 15.3 28.5 15.3 C 28.3 15.3 28.3 15.4 28.3 15.4 C 28.3 15.4 28.3 15.4 28.2 15.5 C 28.2 15.5 28.2 15.6 28.2 15.7 C 28.2 15.8 28.2 15.9 28.2 15.9 C 28.2 15.9 28.3 15.9 28.4 15.9 C 28.5 15.9 28.6 15.9 28.7 15.9 C 28.8 15.9 28.9 15.8 29 15.8 C 29.2 15.8 29.2 15.9 29.2 16 C 29.2 16 29.2 16.1 29.2 16.1 C 29.1 16.1 29.1 16.2 29 16.2 C 28.9 16.2 28.8 16.2 28.8 16.2 C 28.7 16.2 28.7 16.2 28.6 16.2 C 28.4 16.2 28.2 16.3 28.2 16.3 C 28.2 16.3 28.2 16.3 28.2 16.3 C 28.1 16.3 28.1 16.3 28.1 16.3 C 28.1 16.3 28.1 16.4 28.1 16.5 C 28 16.7 28 16.8 28 16.8 C 28 16.8 28.1 16.9 28.1 16.9 C 28.2 16.9 28.3 16.8 28.5 16.8 C 28.7 16.8 28.8 16.8 28.8 16.8 C 29 16.7 29.1 16.7 29.1 16.7 C 29.2 16.7 29.3 16.8 29.3 16.9 C 29.3 16.9 29.3 17 29.3 17 C 29.2 17 29 17.1 28.8 17.1 C 28.7 17.1 28.5 17.1 28.4 17.1 C 28.2 17.2 28 17.2 27.9 17.2 C 27.8 17.2 27.7 17.2 27.7 17.1 C 27.7 17.1 27.7 17 27.6 17 C 27.6 17 27.6 16.9 27.6 16.9 C 27.6 16.9 27.6 16.9 27.7 16.8 C 27.7 16.7 27.8 16.5 27.8 16 C 27.9 15.6 27.9 15.4 27.9 15.3 C 27.9 15.3 27.9 15.3 27.9 15.3 C 27.9 15.3 27.9 15.3 27.8 15.3 C 27.8 15.2 27.8 15.2 27.8 15.2 C 27.8 15.2 27.8 15.1 27.8 15.1 C 27.8 15.1 27.9 15.1 27.9 15.1 C 27.9 15.1 28 15 28 15 C 28 15 28.1 15 28.1 15.1 C 28.2 15.1 28.5 15 28.9 15 C 29.1 14.9 29.2 14.9 29.2 14.9 C 29.2 14.9 29.2 14.9 29.2 14.9 C 29.4 14.9 29.4 15 29.4 15.1 C 29.4 15.1 29.4 15.2 29.4 15.2 C 29.4 15.2 29.3 15.2 29.3 15.3 Z M 29.8 15.3 C 29.8 15.3 29.81 15.28 29.8 15.3 C 29.8 15.2 29.8 15.2 29.8 15.2 C 29.8 15.1 29.8 15.1 29.8 15 C 29.9 15 29.9 15 30 15 C 30 15 30 15 30 15 C 30.1 15 30.1 15 30.1 15 C 30.4 15 30.6 14.9 30.7 14.9 C 30.9 14.9 31.1 15 31.2 15.1 C 31.3 15.2 31.4 15.3 31.4 15.5 C 31.4 15.6 31.3 15.8 31.2 15.9 C 31.1 16 30.9 16.1 30.7 16.2 C 31.1 16.5 31.3 16.7 31.5 16.8 C 31.6 16.8 31.6 16.9 31.6 16.9 C 31.6 17 31.6 17 31.5 17 C 31.5 17.1 31.4 17.1 31.4 17.1 C 31.3 17.1 31.3 17.1 31.2 17 C 31.1 17 31 16.9 30.9 16.8 C 30.8 16.7 30.7 16.6 30.7 16.6 C 30.5 16.5 30.4 16.4 30.3 16.3 C 30.2 16.3 30.1 16.3 30.1 16.1 C 30.1 16.1 30.1 16.1 30.2 16 C 30.2 16 30.3 16 30.3 16 C 30.4 16 30.4 16 30.4 16 C 30.4 16 30.4 16 30.4 16 C 30.5 16 30.6 15.9 30.8 15.8 C 31 15.7 31 15.6 31 15.5 C 31 15.4 31 15.3 30.9 15.3 C 30.9 15.2 30.8 15.2 30.7 15.2 C 30.5 15.2 30.4 15.2 30.3 15.2 C 30.3 15.3 30.2 15.3 30.2 15.3 C 30.2 15.3 30.2 15.3 30.2 15.3 C 30.2 15.3 30.2 15.4 30.1 15.6 C 30.1 15.8 30.1 16 30 16.2 C 30 16.4 30 16.6 30 16.7 C 30 16.7 30 16.8 30 16.8 C 30 16.9 30 16.9 30 17 C 30 17 30 17 30 17.1 C 29.9 17.1 29.9 17.1 29.8 17.1 C 29.7 17.1 29.6 17.1 29.6 16.9 C 29.6 16.7 29.6 16.5 29.7 16.2 C 29.7 16 29.7 15.7 29.8 15.5 C 29.8 15.5 29.8 15.4 29.8 15.4 C 29.81 15.41 29.8 15.3 29.8 15.3 Z M 31.8 16.8 C 31.8 16.8 31.8 16.7 31.8 16.6 C 31.9 16.2 31.9 15.9 32 15.5 C 32 15.4 32 15.4 32 15.3 C 32 15.3 32 15.3 32 15.3 C 31.9 15.3 31.8 15.2 31.8 15.2 C 31.8 15.1 31.8 15.1 31.9 15 C 31.9 15 32 15 32 15 C 32 15 32.2 15 32.2 15 C 32.3 15 32.4 15 32.6 15 C 32.7 14.9 32.8 14.9 32.9 14.9 C 33.2 14.9 33.4 15 33.6 15.2 C 33.7 15.3 33.8 15.5 33.8 15.8 C 33.8 16.1 33.7 16.3 33.4 16.5 C 33.2 16.8 32.9 16.9 32.5 17 C 32.4 17 32.3 17 32.3 17.1 C 32.2 17.1 32.2 17.1 32.1 17.1 C 32.1 17.2 32 17.2 32 17.2 C 31.9 17.2 31.9 17.2 31.8 17.1 C 31.8 17.1 31.8 17 31.8 17 C 31.8 17 31.8 17 31.8 16.9 C 31.8 16.9 31.8 16.8 31.8 16.8 Z M 32.2 16.7 C 32.2 16.7 32.2 16.7 32.2 16.8 C 32.3 16.8 32.4 16.7 32.7 16.7 C 32.9 16.6 33.1 16.5 33.2 16.3 C 33.4 16.1 33.5 16 33.5 15.8 C 33.5 15.6 33.4 15.5 33.3 15.4 C 33.2 15.3 33 15.2 32.9 15.2 C 32.7 15.2 32.6 15.2 32.4 15.3 C 32.4 15.3 32.4 15.3 32.4 15.3 C 32.3 15.9 32.2 16.4 32.2 16.7 C 32.2 16.7 32.2 16.7 32.2 16.7 Z M 34.4 16.6 C 34.4 16.6 34.4 16.6 34.3 16.6 C 34.3 16.6 34.3 16.7 34.2 16.9 C 34.1 17 34 17.1 34 17.1 C 34 17.1 33.9 17.1 33.9 17.1 C 33.9 17.1 33.8 17.1 33.8 17.1 C 33.7 17 33.7 17 33.7 17 C 33.7 16.9 33.8 16.7 34.1 16.3 C 34.2 16.1 34.3 15.9 34.4 15.7 C 34.7 15.3 34.8 15.1 34.9 15 C 34.9 15 35 14.9 35 14.9 C 35.1 14.9 35.2 14.9 35.2 15 C 35.2 15 35.2 15 35.2 15.1 C 35.2 15.1 35.2 15.2 35.2 15.2 C 35.4 15.7 35.5 16.1 35.6 16.3 C 35.7 16.6 35.8 16.7 35.9 16.8 C 36 16.9 36 16.9 36 16.9 C 36 16.9 36 17 36 17 C 36 17.1 36 17.1 36 17.1 C 35.9 17.2 35.9 17.2 35.8 17.2 C 35.8 17.2 35.7 17.1 35.6 17.1 C 35.5 17 35.5 16.9 35.4 16.7 C 35.3 16.6 35.3 16.5 35.3 16.5 C 35.3 16.5 35.3 16.4 35.3 16.4 C 35.2 16.4 35.1 16.5 34.9 16.5 C 34.8 16.5 34.6 16.6 34.5 16.6 C 34.5 16.6 34.4 16.6 34.4 16.6 C 34.4 16.6 34.4 16.6 34.4 16.6 Z M 35.1 16.2 C 35.1 16.2 35.1 16.2 35.2 16.2 C 35.2 16.1 35.1 15.9 35 15.5 C 35 15.5 35 15.5 34.9 15.5 C 34.9 15.5 34.5 16.3 34.5 16.3 C 34.6 16.3 34.7 16.2 34.7 16.2 C 34.8 16.2 34.9 16.2 35.1 16.2 C 35.1 16.2 35.1 16.2 35.1 16.2 Z M 36.3 16.8 C 36.3 16.8 36.3 16.7 36.3 16.6 C 36.3 16.2 36.4 15.9 36.4 15.5 C 36.5 15.4 36.5 15.4 36.5 15.3 C 36.5 15.3 36.5 15.3 36.4 15.3 C 36.3 15.3 36.3 15.2 36.3 15.2 C 36.3 15.1 36.3 15.1 36.4 15 C 36.4 15 36.4 15 36.5 15 C 36.5 15 36.7 15 36.7 15 C 36.8 15 36.9 15 37.1 15 C 37.2 14.9 37.3 14.9 37.4 14.9 C 37.7 14.9 37.9 15 38 15.2 C 38.2 15.3 38.3 15.5 38.3 15.8 C 38.3 16.1 38.2 16.3 37.9 16.5 C 37.6 16.8 37.3 16.9 37 17 C 36.9 17 36.8 17 36.8 17.1 C 36.7 17.1 36.7 17.1 36.6 17.1 C 36.5 17.2 36.5 17.2 36.4 17.2 C 36.4 17.2 36.3 17.2 36.3 17.1 C 36.2 17.1 36.2 17 36.2 17 C 36.2 17 36.2 17 36.3 16.9 C 36.3 16.9 36.3 16.8 36.3 16.8 Z M 36.7 16.7 C 36.7 16.7 36.7 16.7 36.7 16.8 C 36.7 16.8 36.9 16.7 37.1 16.7 C 37.4 16.6 37.6 16.5 37.7 16.3 C 37.9 16.1 37.9 16 37.9 15.8 C 37.9 15.6 37.9 15.5 37.8 15.4 C 37.7 15.3 37.5 15.2 37.3 15.2 C 37.2 15.2 37.1 15.2 36.9 15.3 C 36.9 15.3 36.8 15.3 36.8 15.3 C 36.7 15.9 36.7 16.4 36.7 16.7 C 36.7 16.7 36.7 16.7 36.7 16.7 Z M 40.2 15.3 C 40.2 15.3 39.7 15.3 39.7 15.3 C 39.6 15.3 39.5 15.3 39.3 15.3 C 39.2 15.3 39.2 15.4 39.2 15.4 C 39.2 15.4 39.1 15.4 39.1 15.5 C 39.1 15.5 39.1 15.6 39.1 15.7 C 39.1 15.8 39 15.9 39 15.9 C 39.1 15.9 39.2 15.9 39.3 15.9 C 39.4 15.9 39.5 15.9 39.6 15.9 C 39.7 15.9 39.8 15.8 39.9 15.8 C 40 15.8 40.1 15.9 40.1 16 C 40.1 16 40.1 16.1 40.1 16.1 C 40 16.1 39.9 16.2 39.9 16.2 C 39.8 16.2 39.7 16.2 39.7 16.2 C 39.6 16.2 39.6 16.2 39.5 16.2 C 39.3 16.2 39.1 16.3 39 16.3 C 39 16.3 39 16.3 39 16.3 C 39 16.3 39 16.3 39 16.3 C 39 16.3 39 16.4 39 16.5 C 38.9 16.7 38.9 16.8 38.9 16.8 C 38.9 16.8 39 16.9 39 16.9 C 39 16.9 39.2 16.8 39.4 16.8 C 39.6 16.8 39.7 16.8 39.7 16.8 C 39.9 16.7 40 16.7 40 16.7 C 40.1 16.7 40.2 16.8 40.2 16.9 C 40.2 16.9 40.2 17 40.1 17 C 40 17 39.9 17.1 39.7 17.1 C 39.6 17.1 39.4 17.1 39.2 17.1 C 39.1 17.2 38.9 17.2 38.8 17.2 C 38.7 17.2 38.6 17.2 38.6 17.1 C 38.6 17.1 38.5 17 38.5 17 C 38.5 17 38.5 16.9 38.5 16.9 C 38.5 16.9 38.5 16.9 38.6 16.8 C 38.6 16.7 38.6 16.5 38.7 16 C 38.8 15.6 38.8 15.4 38.8 15.3 C 38.8 15.3 38.8 15.3 38.8 15.3 C 38.8 15.3 38.8 15.3 38.7 15.3 C 38.7 15.2 38.7 15.2 38.7 15.2 C 38.7 15.2 38.7 15.1 38.7 15.1 C 38.7 15.1 38.7 15.1 38.8 15.1 C 38.8 15.1 38.9 15 38.9 15 C 38.9 15 39 15 39 15.1 C 39.1 15.1 39.4 15 39.8 15 C 40 14.9 40 14.9 40.1 14.9 C 40.1 14.9 40.1 14.9 40.1 14.9 C 40.3 14.9 40.3 15 40.3 15.1 C 40.3 15.1 40.3 15.2 40.3 15.2 C 40.3 15.2 40.2 15.2 40.2 15.3 Z M 40.9 16.2 C 40.9 16.3 40.9 16.3 40.8 16.4 C 40.7 16.4 40.7 16.4 40.6 16.3 C 40.6 16.1 40.6 15.9 40.7 15.7 C 40.7 15.5 40.7 15.3 40.7 15.2 C 40.7 15.2 40.7 15.2 40.7 15.1 C 40.8 15 40.8 15 40.8 15 C 40.9 14.9 40.9 14.9 41 14.9 C 41 14.9 41 14.9 41.1 14.9 C 41.1 15 41.1 15 41.1 15 C 41.1 15.1 41.1 15.2 41.1 15.3 C 41 15.5 41 15.7 41 15.8 C 40.9 16 40.9 16.1 40.9 16.2 C 40.9 16.2 40.9 16.2 40.9 16.2 Z M 40.6 17 C 40.5 17 40.5 17 40.5 16.9 C 40.5 16.8 40.5 16.8 40.5 16.7 C 40.6 16.7 40.6 16.6 40.7 16.6 C 40.7 16.6 40.8 16.6 40.8 16.7 C 40.9 16.7 40.9 16.7 40.9 16.8 C 40.9 16.8 40.9 16.8 40.9 16.8 C 40.9 16.9 40.8 17 40.8 17 C 40.7 17 40.7 17 40.6 17 Z M 41.8 16.2 C 41.8 16.3 41.8 16.3 41.8 16.4 C 41.7 16.4 41.6 16.4 41.5 16.3 C 41.5 16.1 41.5 15.9 41.6 15.7 C 41.6 15.5 41.6 15.3 41.6 15.2 C 41.6 15.2 41.6 15.2 41.7 15.1 C 41.7 15 41.7 15 41.7 15 C 41.8 14.9 41.8 14.9 41.9 14.9 C 41.9 14.9 42 14.9 42 14.9 C 42 15 42 15 42 15 C 42 15.1 42 15.2 42 15.3 C 41.9 15.5 41.9 15.7 41.9 15.8 C 41.8 16 41.8 16.1 41.8 16.2 C 41.8 16.2 41.8 16.2 41.8 16.2 Z M 41.5 17 C 41.4 17 41.4 17 41.4 16.9 C 41.4 16.8 41.4 16.8 41.4 16.7 C 41.5 16.7 41.5 16.6 41.6 16.6 C 41.6 16.6 41.7 16.6 41.7 16.7 C 41.8 16.7 41.8 16.7 41.8 16.8 C 41.8 16.8 41.8 16.8 41.8 16.8 C 41.8 16.9 41.7 17 41.7 17 C 41.6 17 41.6 17 41.5 17 Z M 42.7 16.2 C 42.7 16.3 42.7 16.3 42.7 16.4 C 42.6 16.4 42.5 16.4 42.4 16.3 C 42.4 16.1 42.4 15.9 42.5 15.7 C 42.5 15.5 42.5 15.3 42.5 15.2 C 42.5 15.2 42.5 15.2 42.6 15.1 C 42.6 15 42.6 15 42.7 15 C 42.7 14.9 42.7 14.9 42.8 14.9 C 42.8 14.9 42.9 14.9 42.9 14.9 C 42.9 15 42.9 15 42.9 15 C 42.9 15.1 42.9 15.2 42.9 15.3 C 42.8 15.5 42.8 15.7 42.8 15.8 C 42.7 16 42.7 16.1 42.7 16.2 C 42.7 16.2 42.7 16.2 42.7 16.2 Z M 42.4 17 C 42.3 17 42.3 17 42.3 16.9 C 42.3 16.8 42.3 16.8 42.4 16.7 C 42.4 16.7 42.4 16.6 42.5 16.6 C 42.5 16.6 42.6 16.6 42.6 16.7 C 42.7 16.7 42.7 16.7 42.7 16.8 C 42.7 16.8 42.7 16.8 42.7 16.8 C 42.7 16.9 42.6 17 42.6 17 C 42.5 17 42.5 17 42.4 17 Z " stroke="none" fill="#000"/>  </g>  <g id="Polygon15064">    <path d="M 6 12.4 C 5.8 12.4 5.8 12.4 5.8 12.4 C 5.7 12.6 5.7 12.8 5.7 13 C 5.7 13 5.7 13.1 5.7 13.1 C 5.6 13.1 5.6 13.2 5.5 13.2 C 5.4 13.2 5.4 13.1 5.4 13 C 5.4 12.9 5.4 12.6 5.4 12.2 C 5.5 11.8 5.5 11.6 5.5 11.5 C 5.5 11.4 5.5 11.4 5.5 11.4 C 5.4 11.4 5.4 11.3 5.4 11.2 C 5.4 11.1 5.5 11.1 5.8 11 C 6.1 10.9 6.3 10.9 6.5 10.9 C 6.7 10.9 6.9 11 7 11 C 7.1 11.1 7.2 11.3 7.2 11.4 C 7.2 11.6 7.1 11.8 6.8 12 C 6.6 12.2 6.3 12.3 6 12.4 C 6 12.4 6 12.4 6 12.4 Z M 6.5 11.2 C 6.3 11.2 6.1 11.2 5.9 11.3 C 5.9 11.3 5.8 12.1 5.8 12.1 C 6.1 12 6.3 12 6.5 11.8 C 6.8 11.7 6.9 11.6 6.9 11.4 C 6.9 11.3 6.7 11.2 6.5 11.2 C 6.5 11.2 6.5 11.2 6.5 11.2 Z M 7.7 12.6 C 7.7 12.6 7.6 12.6 7.6 12.6 C 7.6 12.6 7.6 12.7 7.5 12.9 C 7.4 13 7.3 13.1 7.3 13.1 C 7.3 13.1 7.2 13.1 7.2 13.1 C 7.2 13.1 7.1 13.1 7.1 13.1 C 7 13 7 13 7 13 C 7 12.9 7.1 12.7 7.4 12.3 C 7.5 12.1 7.6 11.9 7.7 11.7 C 8 11.3 8.1 11.1 8.1 11 C 8.2 11 8.2 10.9 8.3 10.9 C 8.4 10.9 8.4 10.9 8.5 11 C 8.5 11 8.5 11 8.5 11.1 C 8.5 11.1 8.5 11.2 8.5 11.2 C 8.7 11.7 8.8 12.1 8.9 12.3 C 9 12.6 9.1 12.7 9.2 12.8 C 9.3 12.9 9.3 12.9 9.3 12.9 C 9.3 12.9 9.3 13 9.3 13 C 9.3 13.1 9.3 13.1 9.3 13.1 C 9.2 13.2 9.2 13.2 9.1 13.2 C 9.1 13.2 9 13.1 8.9 13.1 C 8.8 13 8.8 12.9 8.7 12.7 C 8.6 12.6 8.6 12.5 8.6 12.5 C 8.6 12.5 8.6 12.4 8.6 12.4 C 8.5 12.4 8.4 12.5 8.2 12.5 C 8 12.5 7.9 12.6 7.8 12.6 C 7.8 12.6 7.7 12.6 7.7 12.6 C 7.7 12.6 7.7 12.6 7.7 12.6 Z M 8.3 12.2 C 8.4 12.2 8.4 12.2 8.5 12.2 C 8.4 12.1 8.4 11.9 8.3 11.5 C 8.3 11.5 8.2 11.5 8.2 11.5 C 8.2 11.5 7.8 12.3 7.8 12.3 C 7.9 12.3 7.9 12.2 8 12.2 C 8.1 12.2 8.2 12.2 8.3 12.2 C 8.3 12.2 8.3 12.2 8.3 12.2 Z M 9.7 11.3 C 9.7 11.3 9.69 11.28 9.7 11.3 C 9.7 11.2 9.6 11.2 9.6 11.2 C 9.6 11.1 9.7 11.1 9.7 11 C 9.8 11 9.8 11 9.8 11 C 9.9 11 9.9 11 9.9 11 C 9.9 11 10 11 10 11 C 10.2 11 10.5 10.9 10.6 10.9 C 10.8 10.9 11 11 11.1 11.1 C 11.2 11.2 11.3 11.3 11.3 11.5 C 11.3 11.6 11.2 11.8 11.1 11.9 C 11 12 10.8 12.1 10.6 12.2 C 10.9 12.5 11.2 12.7 11.4 12.8 C 11.4 12.8 11.5 12.9 11.5 12.9 C 11.5 13 11.4 13 11.4 13 C 11.4 13.1 11.3 13.1 11.3 13.1 C 11.2 13.1 11.2 13.1 11.1 13 C 11 13 10.9 12.9 10.8 12.8 C 10.6 12.7 10.6 12.6 10.6 12.6 C 10.4 12.5 10.2 12.4 10.2 12.3 C 10 12.3 10 12.3 10 12.1 C 10 12.1 10 12.1 10.1 12 C 10.1 12 10.2 12 10.2 12 C 10.2 12 10.3 12 10.3 12 C 10.3 12 10.3 12 10.3 12 C 10.4 12 10.5 11.9 10.7 11.8 C 10.8 11.7 10.9 11.6 10.9 11.5 C 10.9 11.4 10.9 11.3 10.8 11.3 C 10.7 11.2 10.6 11.2 10.5 11.2 C 10.4 11.2 10.3 11.2 10.2 11.2 C 10.1 11.3 10.1 11.3 10.1 11.3 C 10.1 11.3 10.1 11.3 10.1 11.3 C 10.1 11.3 10 11.4 10 11.6 C 10 11.8 9.9 12 9.9 12.2 C 9.9 12.4 9.9 12.6 9.9 12.7 C 9.9 12.7 9.9 12.8 9.9 12.8 C 9.9 12.9 9.9 12.9 9.9 13 C 9.9 13 9.9 13 9.8 13.1 C 9.8 13.1 9.8 13.1 9.7 13.1 C 9.6 13.1 9.5 13.1 9.5 12.9 C 9.5 12.7 9.5 12.5 9.5 12.2 C 9.6 12 9.6 11.7 9.7 11.5 C 9.7 11.5 9.7 11.4 9.7 11.4 C 9.69 11.41 9.7 11.3 9.7 11.3 Z M 13.3 11.3 C 13 11.3 12.8 11.3 12.7 11.3 C 12.7 11.3 12.7 11.4 12.7 11.4 C 12.7 11.4 12.7 11.6 12.7 11.9 C 12.6 12.2 12.6 12.4 12.6 12.6 C 12.6 12.7 12.6 12.8 12.6 12.9 C 12.6 12.9 12.6 12.9 12.6 12.9 C 12.6 13 12.6 13 12.6 13.1 C 12.6 13.1 12.5 13.1 12.5 13.1 C 12.4 13.1 12.4 13.1 12.4 13.1 C 12.3 13 12.3 13 12.3 12.9 C 12.3 12.8 12.3 12.7 12.3 12.6 C 12.3 12.5 12.3 12.2 12.3 11.9 C 12.4 11.5 12.4 11.4 12.4 11.4 C 12.4 11.4 12.2 11.4 12.1 11.4 C 11.9 11.4 11.7 11.4 11.7 11.4 C 11.6 11.4 11.5 11.4 11.5 11.4 C 11.5 11.3 11.5 11.3 11.5 11.3 C 11.5 11.2 11.5 11.2 11.5 11.1 C 11.6 11.1 11.7 11.1 11.8 11.1 C 12.1 11.1 12.4 11.1 12.7 11 C 13 11 13.2 11 13.3 11 C 13.5 11 13.6 11 13.7 11 C 13.7 11.1 13.7 11.1 13.7 11.2 C 13.7 11.3 13.7 11.3 13.6 11.3 C 13.6 11.3 13.5 11.3 13.5 11.3 C 13.4 11.3 13.3 11.3 13.3 11.3 C 13.3 11.3 13.3 11.3 13.3 11.3 Z M 14.1 11.6 C 14.1 11.7 14.1 11.8 14.1 11.8 C 14.1 11.9 14 11.9 14 12.1 C 14 12.3 14 12.4 14 12.5 C 14 12.6 14 12.7 14 12.9 C 14 13 14 13 13.9 13.1 C 13.9 13.1 13.8 13.1 13.8 13.1 C 13.7 13.1 13.7 13.1 13.7 13 C 13.6 13 13.6 12.9 13.6 12.7 C 13.6 12.6 13.6 12.4 13.7 12.1 C 13.7 12.1 13.8 11.5 13.8 11.5 C 13.8 11.4 13.8 11.3 13.8 11.3 C 13.8 11.1 13.8 11.1 13.8 11.1 C 13.9 11 13.9 11 13.9 11 C 14 11 14 10.9 14 10.9 C 14.1 10.9 14.1 11 14.2 11 C 14.2 11.1 14.2 11.1 14.2 11.2 C 14.2 11.2 14.1 11.6 14.1 11.6 Z M 15.8 12.7 C 15.9 12.6 15.9 12.6 16 12.6 C 16 12.6 16.1 12.6 16.1 12.7 C 16.1 12.8 16 12.9 15.7 13 C 15.5 13.1 15.3 13.2 15.1 13.2 C 14.9 13.2 14.8 13.1 14.6 13 C 14.5 12.9 14.4 12.7 14.4 12.5 C 14.4 12.3 14.5 12 14.6 11.8 C 14.8 11.5 15 11.3 15.2 11.1 C 15.4 10.9 15.7 10.8 15.9 10.8 C 16 10.8 16.1 10.9 16.2 10.9 C 16.3 11 16.3 11.1 16.3 11.2 C 16.3 11.3 16.3 11.4 16.3 11.5 C 16.3 11.5 16.2 11.6 16.2 11.6 C 16.1 11.6 16.1 11.6 16 11.6 C 16 11.6 16 11.6 15.9 11.6 C 15.9 11.6 15.9 11.5 15.9 11.5 C 15.9 11.5 15.9 11.4 15.9 11.4 C 15.9 11.3 16 11.3 16 11.2 C 16 11.1 15.9 11.1 15.9 11.1 C 15.7 11.1 15.6 11.2 15.4 11.3 C 15.2 11.5 15.1 11.7 15 11.9 C 14.8 12.1 14.8 12.3 14.8 12.5 C 14.8 12.6 14.8 12.7 14.9 12.8 C 14.9 12.9 15 12.9 15.2 12.9 C 15.2 12.9 15.3 12.9 15.4 12.8 C 15.6 12.8 15.7 12.7 15.8 12.7 C 15.8 12.7 15.8 12.7 15.8 12.7 Z M 17 11.6 C 17 11.7 17 11.8 17 11.8 C 17 11.9 17 11.9 16.9 12.1 C 16.9 12.3 16.9 12.4 16.9 12.5 C 16.9 12.6 16.9 12.7 16.9 12.9 C 16.9 13 16.9 13 16.9 13.1 C 16.8 13.1 16.8 13.1 16.7 13.1 C 16.6 13.1 16.6 13.1 16.6 13 C 16.5 13 16.5 12.9 16.5 12.7 C 16.5 12.6 16.5 12.4 16.6 12.1 C 16.6 12.1 16.7 11.5 16.7 11.5 C 16.7 11.4 16.7 11.3 16.7 11.3 C 16.7 11.1 16.7 11.1 16.8 11.1 C 16.8 11 16.8 11 16.8 11 C 16.9 11 16.9 10.9 16.9 10.9 C 17 10.9 17 11 17.1 11 C 17.1 11.1 17.1 11.1 17.1 11.2 C 17.1 11.2 17 11.6 17 11.6 Z M 18.1 12.4 C 17.9 12.4 17.9 12.4 17.8 12.4 C 17.8 12.6 17.8 12.8 17.8 13 C 17.8 13 17.8 13.1 17.8 13.1 C 17.7 13.1 17.7 13.2 17.6 13.2 C 17.5 13.2 17.4 13.1 17.4 13 C 17.4 12.9 17.5 12.6 17.5 12.2 C 17.6 11.8 17.6 11.6 17.6 11.5 C 17.6 11.4 17.6 11.4 17.6 11.4 C 17.5 11.4 17.5 11.3 17.5 11.2 C 17.5 11.1 17.6 11.1 17.9 11 C 18.2 10.9 18.4 10.9 18.6 10.9 C 18.8 10.9 19 11 19.1 11 C 19.2 11.1 19.3 11.3 19.3 11.4 C 19.3 11.6 19.2 11.8 18.9 12 C 18.7 12.2 18.4 12.3 18.1 12.4 C 18.1 12.4 18.1 12.4 18.1 12.4 Z M 18.6 11.2 C 18.4 11.2 18.2 11.2 18 11.3 C 18 11.3 17.9 12.1 17.9 12.1 C 18.2 12 18.4 12 18.6 11.8 C 18.8 11.7 18.9 11.6 18.9 11.4 C 18.9 11.3 18.8 11.2 18.6 11.2 C 18.6 11.2 18.6 11.2 18.6 11.2 Z M 19.8 12.6 C 19.8 12.6 19.7 12.6 19.7 12.6 C 19.7 12.6 19.6 12.7 19.6 12.9 C 19.5 13 19.4 13.1 19.4 13.1 C 19.4 13.1 19.3 13.1 19.3 13.1 C 19.3 13.1 19.2 13.1 19.2 13.1 C 19.1 13 19.1 13 19.1 13 C 19.1 12.9 19.2 12.7 19.5 12.3 C 19.6 12.1 19.7 11.9 19.8 11.7 C 20.1 11.3 20.2 11.1 20.2 11 C 20.3 11 20.3 10.9 20.4 10.9 C 20.5 10.9 20.5 10.9 20.6 11 C 20.6 11 20.6 11 20.6 11.1 C 20.6 11.1 20.6 11.2 20.6 11.2 C 20.8 11.7 20.9 12.1 21 12.3 C 21.1 12.6 21.2 12.7 21.3 12.8 C 21.4 12.9 21.4 12.9 21.4 12.9 C 21.4 12.9 21.4 13 21.4 13 C 21.4 13.1 21.4 13.1 21.4 13.1 C 21.3 13.2 21.3 13.2 21.2 13.2 C 21.1 13.2 21.1 13.1 21 13.1 C 20.9 13 20.8 12.9 20.8 12.7 C 20.7 12.6 20.7 12.5 20.7 12.5 C 20.7 12.5 20.7 12.4 20.7 12.4 C 20.6 12.4 20.5 12.5 20.3 12.5 C 20.1 12.5 20 12.6 19.9 12.6 C 19.8 12.6 19.8 12.6 19.8 12.6 C 19.8 12.6 19.8 12.6 19.8 12.6 Z M 20.4 12.2 C 20.5 12.2 20.5 12.2 20.6 12.2 C 20.5 12.1 20.5 11.9 20.4 11.5 C 20.3 11.5 20.3 11.5 20.3 11.5 C 20.3 11.5 19.9 12.3 19.9 12.3 C 20 12.3 20 12.2 20.1 12.2 C 20.1 12.2 20.3 12.2 20.4 12.2 C 20.4 12.2 20.4 12.2 20.4 12.2 Z M 21.8 11.3 C 21.8 11.3 21.78 11.28 21.8 11.3 C 21.7 11.2 21.7 11.2 21.7 11.2 C 21.7 11.1 21.8 11.1 21.8 11 C 21.9 11 21.9 11 21.9 11 C 22 11 22 11 22 11 C 22 11 22 11 22.1 11 C 22.3 11 22.5 10.9 22.7 10.9 C 22.9 10.9 23 11 23.2 11.1 C 23.3 11.2 23.4 11.3 23.4 11.5 C 23.4 11.6 23.3 11.8 23.2 11.9 C 23.1 12 22.9 12.1 22.7 12.2 C 23 12.5 23.3 12.7 23.5 12.8 C 23.5 12.8 23.6 12.9 23.6 12.9 C 23.6 13 23.5 13 23.5 13 C 23.5 13.1 23.4 13.1 23.4 13.1 C 23.3 13.1 23.2 13.1 23.2 13 C 23.1 13 23 12.9 22.9 12.8 C 22.7 12.7 22.7 12.6 22.6 12.6 C 22.5 12.5 22.3 12.4 22.2 12.3 C 22.1 12.3 22.1 12.3 22.1 12.1 C 22.1 12.1 22.1 12.1 22.2 12 C 22.2 12 22.3 12 22.3 12 C 22.3 12 22.3 12 22.4 12 C 22.4 12 22.4 12 22.4 12 C 22.5 12 22.6 11.9 22.8 11.8 C 22.9 11.7 23 11.6 23 11.5 C 23 11.4 23 11.3 22.9 11.3 C 22.8 11.2 22.7 11.2 22.6 11.2 C 22.5 11.2 22.4 11.2 22.3 11.2 C 22.2 11.3 22.2 11.3 22.2 11.3 C 22.2 11.3 22.2 11.3 22.2 11.3 C 22.1 11.3 22.1 11.4 22.1 11.6 C 22.1 11.8 22 12 22 12.2 C 22 12.4 22 12.6 22 12.7 C 22 12.7 22 12.8 22 12.8 C 22 12.9 22 12.9 22 13 C 22 13 22 13 21.9 13.1 C 21.9 13.1 21.8 13.1 21.8 13.1 C 21.7 13.1 21.6 13.1 21.6 12.9 C 21.6 12.7 21.6 12.5 21.6 12.2 C 21.7 12 21.7 11.7 21.8 11.5 C 21.8 11.5 21.8 11.4 21.8 11.4 C 21.78 11.41 21.8 11.3 21.8 11.3 Z M 26.5 11.3 C 26.5 11.3 26.1 11.3 26.1 11.3 C 25.9 11.3 25.8 11.3 25.7 11.3 C 25.6 11.3 25.5 11.4 25.5 11.4 C 25.5 11.4 25.5 11.4 25.5 11.5 C 25.5 11.5 25.4 11.6 25.4 11.7 C 25.4 11.8 25.4 11.9 25.4 11.9 C 25.4 11.9 25.5 11.9 25.6 11.9 C 25.8 11.9 25.8 11.9 25.9 11.9 C 26 11.9 26.1 11.8 26.2 11.8 C 26.4 11.8 26.4 11.9 26.4 12 C 26.4 12 26.4 12.1 26.4 12.1 C 26.3 12.1 26.3 12.2 26.2 12.2 C 26.1 12.2 26.1 12.2 26 12.2 C 25.9 12.2 25.9 12.2 25.8 12.2 C 25.6 12.2 25.4 12.3 25.4 12.3 C 25.4 12.3 25.4 12.3 25.4 12.3 C 25.3 12.3 25.3 12.3 25.3 12.3 C 25.3 12.3 25.3 12.4 25.3 12.5 C 25.3 12.7 25.3 12.8 25.3 12.8 C 25.3 12.8 25.3 12.9 25.3 12.9 C 25.4 12.9 25.5 12.8 25.7 12.8 C 25.9 12.8 26 12.8 26.1 12.8 C 26.2 12.7 26.3 12.7 26.3 12.7 C 26.4 12.7 26.5 12.8 26.5 12.9 C 26.5 12.9 26.5 13 26.5 13 C 26.4 13 26.2 13.1 26.1 13.1 C 25.9 13.1 25.8 13.1 25.6 13.1 C 25.4 13.2 25.2 13.2 25.1 13.2 C 25 13.2 25 13.2 24.9 13.1 C 24.9 13.1 24.9 13 24.9 13 C 24.9 13 24.9 12.9 24.9 12.9 C 24.9 12.9 24.9 12.9 24.9 12.8 C 24.9 12.7 25 12.5 25 12 C 25.1 11.6 25.1 11.4 25.1 11.3 C 25.1 11.3 25.1 11.3 25.1 11.3 C 25.1 11.3 25.1 11.3 25.1 11.3 C 25 11.2 25 11.2 25 11.2 C 25 11.2 25 11.1 25 11.1 C 25 11.1 25.1 11.1 25.1 11.1 C 25.1 11.1 25.2 11 25.2 11 C 25.3 11 25.3 11 25.4 11.1 C 25.4 11.1 25.7 11 26.1 11 C 26.3 10.9 26.4 10.9 26.4 10.9 C 26.4 10.9 26.4 10.9 26.4 10.9 C 26.6 10.9 26.7 11 26.7 11.1 C 26.7 11.1 26.6 11.2 26.6 11.2 C 26.6 11.2 26.6 11.2 26.5 11.3 Z M 29.6 11.2 C 29.6 11.4 29.5 11.5 29.3 11.5 C 29.3 11.4 29.3 11.3 29.3 11.3 C 29.2 11.3 29.1 11.2 29 11.2 C 28.9 11.2 28.7 11.3 28.6 11.4 C 28.4 11.4 28.4 11.5 28.4 11.6 C 28.4 11.7 28.4 11.7 28.4 11.8 C 28.5 11.8 28.6 11.9 28.9 11.9 C 29.1 12 29.3 12.1 29.4 12.2 C 29.5 12.2 29.5 12.3 29.5 12.5 C 29.5 12.6 29.4 12.8 29.1 13 C 28.8 13.1 28.5 13.2 28.2 13.2 C 28.1 13.2 28 13.2 28 13.2 C 27.9 13.1 27.9 13.1 27.9 13 C 27.9 12.9 27.9 12.9 27.9 12.9 C 28 12.8 28 12.8 28 12.8 C 28 12.8 28.1 12.8 28.1 12.8 C 28.2 12.9 28.3 12.9 28.4 12.9 C 28.5 12.9 28.7 12.8 28.9 12.7 C 29.1 12.7 29.2 12.6 29.2 12.5 C 29.2 12.5 29.1 12.4 29.1 12.4 C 29.1 12.4 29 12.3 28.8 12.3 C 28.6 12.2 28.4 12.1 28.3 12.1 C 28.2 12.1 28.1 12 28.1 11.9 C 28 11.9 28 11.8 28 11.7 C 28 11.5 28.1 11.3 28.3 11.2 C 28.5 11 28.8 10.9 29.1 10.9 C 29.2 10.9 29.4 11 29.5 11 C 29.6 11.1 29.6 11.2 29.6 11.2 C 29.6 11.2 29.6 11.2 29.6 11.2 Z M 31.5 11.3 C 31.5 11.3 31 11.3 31 11.3 C 30.9 11.3 30.8 11.3 30.6 11.3 C 30.5 11.3 30.5 11.4 30.5 11.4 C 30.4 11.4 30.4 11.4 30.4 11.5 C 30.4 11.5 30.4 11.6 30.4 11.7 C 30.4 11.8 30.3 11.9 30.3 11.9 C 30.4 11.9 30.5 11.9 30.6 11.9 C 30.7 11.9 30.8 11.9 30.9 11.9 C 31 11.9 31.1 11.8 31.2 11.8 C 31.3 11.8 31.4 11.9 31.4 12 C 31.4 12 31.4 12.1 31.4 12.1 C 31.3 12.1 31.2 12.2 31.2 12.2 C 31.1 12.2 31 12.2 31 12.2 C 30.9 12.2 30.9 12.2 30.8 12.2 C 30.6 12.2 30.4 12.3 30.3 12.3 C 30.3 12.3 30.3 12.3 30.3 12.3 C 30.3 12.3 30.3 12.3 30.3 12.3 C 30.3 12.3 30.3 12.4 30.3 12.5 C 30.2 12.7 30.2 12.8 30.2 12.8 C 30.2 12.8 30.3 12.9 30.3 12.9 C 30.3 12.9 30.5 12.8 30.7 12.8 C 30.9 12.8 31 12.8 31 12.8 C 31.2 12.7 31.3 12.7 31.3 12.7 C 31.4 12.7 31.5 12.8 31.5 12.9 C 31.5 12.9 31.5 13 31.4 13 C 31.3 13 31.2 13.1 31 13.1 C 30.9 13.1 30.7 13.1 30.5 13.1 C 30.4 13.2 30.2 13.2 30.1 13.2 C 30 13.2 29.9 13.2 29.9 13.1 C 29.9 13.1 29.8 13 29.8 13 C 29.8 13 29.8 12.9 29.8 12.9 C 29.8 12.9 29.8 12.9 29.9 12.8 C 29.9 12.7 29.9 12.5 30 12 C 30.1 11.6 30.1 11.4 30.1 11.3 C 30.1 11.3 30.1 11.3 30.1 11.3 C 30.1 11.3 30.1 11.3 30 11.3 C 30 11.2 30 11.2 30 11.2 C 30 11.2 30 11.1 30 11.1 C 30 11.1 30 11.1 30.1 11.1 C 30.1 11.1 30.2 11 30.2 11 C 30.2 11 30.3 11 30.3 11.1 C 30.4 11.1 30.7 11 31.1 11 C 31.3 10.9 31.3 10.9 31.4 10.9 C 31.4 10.9 31.4 10.9 31.4 10.9 C 31.6 10.9 31.6 11 31.6 11.1 C 31.6 11.1 31.6 11.2 31.6 11.2 C 31.6 11.2 31.5 11.2 31.5 11.3 Z M 32 11.3 C 32 11.3 32 11.28 32 11.3 C 32 11.2 32 11.2 32 11.2 C 32 11.1 32 11.1 32 11 C 32.1 11 32.1 11 32.2 11 C 32.2 11 32.2 11 32.2 11 C 32.3 11 32.3 11 32.3 11 C 32.6 11 32.8 10.9 32.9 10.9 C 33.1 10.9 33.3 11 33.4 11.1 C 33.5 11.2 33.6 11.3 33.6 11.5 C 33.6 11.6 33.5 11.8 33.4 11.9 C 33.3 12 33.1 12.1 32.9 12.2 C 33.2 12.5 33.5 12.7 33.7 12.8 C 33.8 12.8 33.8 12.9 33.8 12.9 C 33.8 13 33.8 13 33.7 13 C 33.7 13.1 33.6 13.1 33.6 13.1 C 33.5 13.1 33.5 13.1 33.4 13 C 33.3 13 33.2 12.9 33.1 12.8 C 33 12.7 32.9 12.6 32.9 12.6 C 32.7 12.5 32.5 12.4 32.5 12.3 C 32.4 12.3 32.3 12.3 32.3 12.1 C 32.3 12.1 32.3 12.1 32.4 12 C 32.4 12 32.5 12 32.5 12 C 32.6 12 32.6 12 32.6 12 C 32.6 12 32.6 12 32.6 12 C 32.7 12 32.8 11.9 33 11.8 C 33.1 11.7 33.2 11.6 33.2 11.5 C 33.2 11.4 33.2 11.3 33.1 11.3 C 33.1 11.2 33 11.2 32.9 11.2 C 32.7 11.2 32.6 11.2 32.5 11.2 C 32.5 11.3 32.4 11.3 32.4 11.3 C 32.4 11.3 32.4 11.3 32.4 11.3 C 32.4 11.3 32.3 11.4 32.3 11.6 C 32.3 11.8 32.3 12 32.2 12.2 C 32.2 12.4 32.2 12.6 32.2 12.7 C 32.2 12.7 32.2 12.8 32.2 12.8 C 32.2 12.9 32.2 12.9 32.2 13 C 32.2 13 32.2 13 32.2 13.1 C 32.1 13.1 32.1 13.1 32 13.1 C 31.9 13.1 31.8 13.1 31.8 12.9 C 31.8 12.7 31.8 12.5 31.9 12.2 C 31.9 12 31.9 11.7 32 11.5 C 32 11.5 32 11.4 32 11.4 C 32 11.41 32 11.3 32 11.3 Z M 36 11.6 C 36 11.5 36 11.5 36 11.5 C 36 11.5 35.5 12.1 35.5 12.1 C 35.3 12.4 35.1 12.6 35 12.6 C 34.9 12.6 34.9 12.6 34.8 12.5 C 34.8 12.4 34.8 12.3 34.7 12.2 C 34.7 12.1 34.6 12 34.6 11.9 C 34.6 11.7 34.5 11.6 34.5 11.6 C 34.5 11.6 34.5 12 34.5 12 C 34.4 12.1 34.4 12.2 34.4 12.3 C 34.4 12.5 34.3 12.6 34.3 12.7 C 34.3 12.9 34.3 13 34.2 13 C 34.2 13.1 34.2 13.1 34.2 13.1 C 34.1 13.2 34.1 13.2 34.1 13.2 C 34 13.2 34 13.1 33.9 13.1 C 33.9 13.1 33.9 13 33.9 13 C 33.9 12.9 33.9 12.8 33.9 12.6 C 34.1 12 34.2 11.7 34.2 11.5 C 34.2 11.3 34.3 11.2 34.3 11.1 C 34.3 11.1 34.3 11 34.3 11 C 34.4 11 34.4 11 34.5 11 C 34.5 11 34.6 11 34.6 11 C 34.7 11.1 34.7 11.1 34.7 11.2 C 34.7 11.18 34.7 11.2 34.7 11.2 C 34.7 11.2 34.91 11.75 34.9 11.7 C 35 12 35 12.1 35.1 12.2 C 35.2 12.1 35.3 11.9 35.5 11.6 C 35.7 11.3 35.9 11.1 36 11 C 36 11 36.1 10.9 36.1 10.9 C 36.2 10.9 36.2 10.9 36.3 11 C 36.3 11 36.4 11.1 36.4 11.1 C 36.4 11.1 36.4 11.3 36.3 11.5 C 36.3 11.7 36.3 11.9 36.2 12.2 C 36.2 12.4 36.2 12.5 36.2 12.6 C 36.2 12.6 36.2 12.7 36.2 12.8 C 36.2 12.8 36.2 12.8 36.2 12.9 C 36.2 13 36.2 13 36.2 13.1 C 36.2 13.1 36.1 13.1 36 13.1 C 35.9 13.1 35.8 13 35.8 12.8 C 35.8 12.7 35.9 12.4 35.9 12.2 C 35.9 11.9 36 11.7 36 11.6 C 36 11.6 36 11.6 36 11.6 Z M 37.3 13.2 C 37.1 13.2 37 13.1 36.8 12.9 C 36.7 12.8 36.7 12.6 36.7 12.4 C 36.7 12.2 36.7 12 36.8 11.8 C 37 11.5 37.1 11.3 37.3 11.2 C 37.5 11 37.7 10.9 37.9 10.9 C 38.1 10.9 38.2 11 38.3 11 C 38.4 11 38.5 11.1 38.6 11.2 C 38.7 11.2 38.8 11.3 38.8 11.4 C 38.8 11.5 38.8 11.6 38.8 11.7 C 38.8 11.9 38.8 12 38.7 12.2 C 38.6 12.4 38.5 12.5 38.4 12.7 C 38.2 12.8 38.1 13 37.9 13 C 37.7 13.1 37.5 13.2 37.3 13.2 Z M 37 12.4 C 37 12.6 37.1 12.7 37.1 12.7 C 37.2 12.8 37.3 12.9 37.4 12.9 C 37.6 12.9 37.9 12.7 38.1 12.5 C 38.3 12.2 38.5 12 38.5 11.7 C 38.5 11.6 38.4 11.5 38.4 11.4 C 38.4 11.4 38.3 11.3 38.2 11.3 C 38.1 11.2 38 11.2 37.9 11.2 C 37.7 11.2 37.5 11.4 37.3 11.6 C 37.1 11.9 37 12.2 37 12.4 Z M 40.7 11.2 C 40.7 11.4 40.6 11.5 40.4 11.5 C 40.4 11.4 40.4 11.3 40.3 11.3 C 40.3 11.3 40.2 11.2 40.1 11.2 C 39.9 11.2 39.8 11.3 39.6 11.4 C 39.5 11.4 39.4 11.5 39.4 11.6 C 39.4 11.7 39.5 11.7 39.5 11.8 C 39.6 11.8 39.7 11.9 39.9 11.9 C 40.2 12 40.3 12.1 40.4 12.2 C 40.6 12.2 40.6 12.3 40.6 12.5 C 40.6 12.6 40.5 12.8 40.2 13 C 39.9 13.1 39.6 13.2 39.3 13.2 C 39.2 13.2 39.1 13.2 39.1 13.2 C 39 13.1 39 13.1 39 13 C 39 12.9 39 12.9 39 12.9 C 39 12.8 39.1 12.8 39.1 12.8 C 39.1 12.8 39.1 12.8 39.2 12.8 C 39.3 12.9 39.4 12.9 39.4 12.9 C 39.6 12.9 39.8 12.8 40 12.7 C 40.2 12.7 40.2 12.6 40.2 12.5 C 40.2 12.5 40.2 12.4 40.2 12.4 C 40.1 12.4 40 12.3 39.9 12.3 C 39.7 12.2 39.5 12.1 39.4 12.1 C 39.3 12.1 39.2 12 39.2 11.9 C 39.1 11.9 39.1 11.8 39.1 11.7 C 39.1 11.5 39.2 11.3 39.4 11.2 C 39.6 11 39.9 10.9 40.2 10.9 C 40.3 10.9 40.4 11 40.5 11 C 40.6 11.1 40.7 11.2 40.7 11.2 C 40.7 11.2 40.7 11.2 40.7 11.2 Z M 43.3 12.7 C 43.4 12.6 43.5 12.6 43.5 12.6 C 43.6 12.6 43.7 12.6 43.7 12.7 C 43.7 12.8 43.5 12.9 43.3 13 C 43.1 13.1 42.9 13.2 42.7 13.2 C 42.5 13.2 42.4 13.1 42.2 13 C 42.1 12.9 42 12.7 42 12.5 C 42 12.3 42.1 12 42.2 11.8 C 42.4 11.5 42.6 11.3 42.8 11.1 C 43 10.9 43.3 10.8 43.5 10.8 C 43.6 10.8 43.7 10.9 43.8 10.9 C 43.9 11 43.9 11.1 43.9 11.2 C 43.9 11.3 43.9 11.4 43.9 11.5 C 43.9 11.5 43.8 11.6 43.8 11.6 C 43.7 11.6 43.7 11.6 43.6 11.6 C 43.6 11.6 43.6 11.6 43.5 11.6 C 43.5 11.6 43.5 11.5 43.5 11.5 C 43.5 11.5 43.5 11.4 43.5 11.4 C 43.5 11.3 43.5 11.3 43.5 11.2 C 43.5 11.1 43.5 11.1 43.5 11.1 C 43.3 11.1 43.2 11.2 43 11.3 C 42.8 11.5 42.7 11.7 42.6 11.9 C 42.4 12.1 42.4 12.3 42.4 12.5 C 42.4 12.6 42.4 12.7 42.5 12.8 C 42.5 12.9 42.6 12.9 42.7 12.9 C 42.8 12.9 42.9 12.9 43 12.8 C 43.1 12.8 43.2 12.7 43.3 12.7 C 43.3 12.7 43.3 12.7 43.3 12.7 Z M 44.6 11.6 C 44.6 11.7 44.6 11.8 44.6 11.8 C 44.6 11.9 44.5 11.9 44.5 12.1 C 44.5 12.3 44.5 12.4 44.5 12.5 C 44.5 12.6 44.5 12.7 44.5 12.9 C 44.5 13 44.5 13 44.4 13.1 C 44.4 13.1 44.4 13.1 44.3 13.1 C 44.2 13.1 44.2 13.1 44.2 13 C 44.1 13 44.1 12.9 44.1 12.7 C 44.1 12.6 44.1 12.4 44.2 12.1 C 44.2 12.1 44.3 11.5 44.3 11.5 C 44.3 11.4 44.3 11.3 44.3 11.3 C 44.3 11.1 44.3 11.1 44.3 11.1 C 44.4 11 44.4 11 44.4 11 C 44.5 11 44.5 10.9 44.5 10.9 C 44.6 10.9 44.6 11 44.7 11 C 44.7 11.1 44.7 11.1 44.7 11.2 C 44.7 11.2 44.6 11.6 44.6 11.6 Z M 45 12.8 C 45.1 12.8 45.1 12.7 45.1 12.6 C 45.1 12.2 45.1 11.9 45.2 11.5 C 45.2 11.4 45.2 11.4 45.2 11.3 C 45.2 11.3 45.2 11.3 45.2 11.3 C 45.1 11.3 45 11.2 45 11.2 C 45 11.1 45.1 11.1 45.1 11 C 45.1 11 45.2 11 45.2 11 C 45.2 11 45.4 11 45.4 11 C 45.5 11 45.6 11 45.8 11 C 45.9 10.9 46 10.9 46.1 10.9 C 46.4 10.9 46.6 11 46.8 11.2 C 47 11.3 47 11.5 47 11.8 C 47 12.1 46.9 12.3 46.7 12.5 C 46.4 12.8 46.1 12.9 45.7 13 C 45.6 13 45.5 13 45.5 13.1 C 45.5 13.1 45.4 13.1 45.4 13.1 C 45.3 13.2 45.2 13.2 45.2 13.2 C 45.1 13.2 45.1 13.2 45 13.1 C 45 13.1 45 13 45 13 C 45 13 45 13 45 12.9 C 45 12.9 45 12.8 45 12.8 Z M 45.4 12.7 C 45.4 12.7 45.4 12.7 45.4 12.8 C 45.5 12.8 45.6 12.7 45.9 12.7 C 46.1 12.6 46.3 12.5 46.5 12.3 C 46.6 12.1 46.7 12 46.7 11.8 C 46.7 11.6 46.6 11.5 46.5 11.4 C 46.4 11.3 46.3 11.2 46.1 11.2 C 46 11.2 45.8 11.2 45.6 11.3 C 45.6 11.3 45.6 11.3 45.6 11.3 C 45.5 11.9 45.4 12.4 45.4 12.7 C 45.4 12.7 45.4 12.7 45.4 12.7 Z M 47.6 12.6 C 47.6 12.6 47.6 12.6 47.6 12.6 C 47.5 12.6 47.5 12.7 47.4 12.9 C 47.3 13 47.3 13.1 47.2 13.1 C 47.2 13.1 47.2 13.1 47.1 13.1 C 47.1 13.1 47.1 13.1 47 13.1 C 47 13 46.9 13 46.9 13 C 46.9 12.9 47.1 12.7 47.3 12.3 C 47.4 12.1 47.6 11.9 47.7 11.7 C 47.9 11.3 48 11.1 48.1 11 C 48.1 11 48.2 10.9 48.2 10.9 C 48.3 10.9 48.4 10.9 48.4 11 C 48.4 11 48.4 11 48.4 11.1 C 48.4 11.1 48.4 11.2 48.4 11.2 C 48.6 11.7 48.7 12.1 48.8 12.3 C 48.9 12.6 49 12.7 49.1 12.8 C 49.2 12.9 49.2 12.9 49.2 12.9 C 49.2 12.9 49.3 13 49.3 13 C 49.3 13.1 49.2 13.1 49.2 13.1 C 49.2 13.2 49.1 13.2 49.1 13.2 C 49 13.2 48.9 13.1 48.8 13.1 C 48.8 13 48.7 12.9 48.6 12.7 C 48.5 12.6 48.5 12.5 48.5 12.5 C 48.5 12.5 48.5 12.4 48.5 12.4 C 48.5 12.4 48.3 12.5 48.2 12.5 C 48 12.5 47.8 12.6 47.7 12.6 C 47.7 12.6 47.7 12.6 47.6 12.6 C 47.6 12.6 47.6 12.6 47.6 12.6 Z M 48.3 12.2 C 48.3 12.2 48.4 12.2 48.4 12.2 C 48.4 12.1 48.3 11.9 48.2 11.5 C 48.2 11.5 48.2 11.5 48.2 11.5 C 48.2 11.5 47.7 12.3 47.7 12.3 C 47.8 12.3 47.9 12.2 47.9 12.2 C 48 12.2 48.1 12.2 48.3 12.2 C 48.3 12.2 48.3 12.2 48.3 12.2 Z M 49.5 12.8 C 49.5 12.8 49.5 12.7 49.5 12.6 C 49.6 12.2 49.6 11.9 49.7 11.5 C 49.7 11.4 49.7 11.4 49.7 11.3 C 49.7 11.3 49.7 11.3 49.7 11.3 C 49.6 11.3 49.5 11.2 49.5 11.2 C 49.5 11.1 49.5 11.1 49.6 11 C 49.6 11 49.7 11 49.7 11 C 49.7 11 49.9 11 49.9 11 C 50 11 50.1 11 50.3 11 C 50.4 10.9 50.5 10.9 50.6 10.9 C 50.9 10.9 51.1 11 51.3 11.2 C 51.4 11.3 51.5 11.5 51.5 11.8 C 51.5 12.1 51.4 12.3 51.1 12.5 C 50.9 12.8 50.5 12.9 50.2 13 C 50.1 13 50 13 50 13.1 C 49.9 13.1 49.9 13.1 49.8 13.1 C 49.8 13.2 49.7 13.2 49.6 13.2 C 49.6 13.2 49.5 13.2 49.5 13.1 C 49.5 13.1 49.4 13 49.4 13 C 49.4 13 49.5 13 49.5 12.9 C 49.5 12.9 49.5 12.8 49.5 12.8 Z M 49.9 12.7 C 49.9 12.7 49.9 12.7 49.9 12.8 C 49.9 12.8 50.1 12.7 50.3 12.7 C 50.6 12.6 50.8 12.5 50.9 12.3 C 51.1 12.1 51.2 12 51.2 11.8 C 51.2 11.6 51.1 11.5 51 11.4 C 50.9 11.3 50.7 11.2 50.5 11.2 C 50.4 11.2 50.3 11.2 50.1 11.3 C 50.1 11.3 50.1 11.3 50 11.3 C 49.9 11.9 49.9 12.4 49.9 12.7 C 49.9 12.7 49.9 12.7 49.9 12.7 Z M 52.1 12.6 C 52.1 12.6 52 12.6 52 12.6 C 52 12.6 51.9 12.7 51.9 12.9 C 51.8 13 51.7 13.1 51.7 13.1 C 51.7 13.1 51.6 13.1 51.6 13.1 C 51.6 13.1 51.5 13.1 51.5 13.1 C 51.4 13 51.4 13 51.4 13 C 51.4 12.9 51.5 12.7 51.8 12.3 C 51.9 12.1 52 11.9 52.1 11.7 C 52.4 11.3 52.5 11.1 52.5 11 C 52.6 11 52.6 10.9 52.7 10.9 C 52.8 10.9 52.8 10.9 52.9 11 C 52.9 11 52.9 11 52.9 11.1 C 52.9 11.1 52.9 11.2 52.9 11.2 C 53.1 11.7 53.2 12.1 53.3 12.3 C 53.4 12.6 53.5 12.7 53.6 12.8 C 53.7 12.9 53.7 12.9 53.7 12.9 C 53.7 12.9 53.7 13 53.7 13 C 53.7 13.1 53.7 13.1 53.7 13.1 C 53.6 13.2 53.6 13.2 53.5 13.2 C 53.4 13.2 53.4 13.1 53.3 13.1 C 53.2 13 53.1 12.9 53.1 12.7 C 53 12.6 53 12.5 53 12.5 C 53 12.5 53 12.4 53 12.4 C 52.9 12.4 52.8 12.5 52.6 12.5 C 52.4 12.5 52.3 12.6 52.2 12.6 C 52.2 12.6 52.1 12.6 52.1 12.6 C 52.1 12.6 52.1 12.6 52.1 12.6 Z M 52.7 12.2 C 52.8 12.2 52.8 12.2 52.9 12.2 C 52.8 12.1 52.8 11.9 52.7 11.5 C 52.6 11.5 52.6 11.5 52.6 11.5 C 52.6 11.5 52.2 12.3 52.2 12.3 C 52.3 12.3 52.3 12.2 52.4 12.2 C 52.4 12.2 52.6 12.2 52.7 12.2 C 52.7 12.2 52.7 12.2 52.7 12.2 Z M 53.1 10.6 C 53 10.6 52.9 10.6 52.9 10.6 C 52.8 10.6 52.8 10.5 52.8 10.5 C 52.8 10.5 52.7 10.5 52.7 10.5 C 52.7 10.5 52.7 10.5 52.7 10.4 C 52.6 10.4 52.6 10.4 52.6 10.4 C 52.5 10.4 52.5 10.4 52.4 10.5 C 52.4 10.5 52.4 10.5 52.4 10.5 C 52.3 10.6 52.3 10.6 52.3 10.6 C 52.2 10.6 52.2 10.7 52.2 10.7 C 52.1 10.7 52.1 10.6 52.1 10.5 C 52.1 10.5 52.1 10.4 52.2 10.2 C 52.3 10.1 52.4 10.1 52.5 10.1 C 52.6 10.1 52.7 10.1 52.7 10.1 C 52.7 10.1 52.8 10.1 52.8 10.2 C 52.9 10.3 52.9 10.3 53 10.3 C 53 10.4 53 10.4 53 10.4 C 53.1 10.4 53.1 10.3 53.2 10.3 C 53.2 10.2 53.2 10.2 53.2 10.2 C 53.2 10.2 53.2 10.2 53.2 10.2 C 53.3 10.1 53.3 10.1 53.3 10.1 C 53.4 10.1 53.4 10.2 53.4 10.2 C 53.4 10.3 53.4 10.4 53.3 10.5 C 53.2 10.6 53.2 10.6 53.1 10.6 C 53.1 10.6 53.1 10.6 53.1 10.6 Z M 54.4 13.2 C 54.3 13.2 54.1 13.1 54 12.9 C 53.9 12.8 53.8 12.6 53.8 12.4 C 53.8 12.2 53.9 12 54 11.8 C 54.1 11.5 54.3 11.3 54.5 11.2 C 54.7 11 54.9 10.9 55.1 10.9 C 55.2 10.9 55.4 11 55.5 11 C 55.6 11 55.7 11.1 55.8 11.2 C 55.9 11.2 55.9 11.3 55.9 11.4 C 56 11.5 56 11.6 56 11.7 C 56 11.9 56 12 55.9 12.2 C 55.8 12.4 55.7 12.5 55.5 12.7 C 55.4 12.8 55.2 13 55.1 13 C 54.9 13.1 54.7 13.2 54.4 13.2 Z M 54.2 12.4 C 54.2 12.6 54.2 12.7 54.3 12.7 C 54.4 12.8 54.4 12.9 54.5 12.9 C 54.8 12.9 55 12.7 55.3 12.5 C 55.5 12.2 55.6 12 55.6 11.7 C 55.6 11.6 55.6 11.5 55.6 11.4 C 55.5 11.4 55.5 11.3 55.4 11.3 C 55.3 11.2 55.2 11.2 55.1 11.2 C 54.9 11.2 54.7 11.4 54.5 11.6 C 54.3 11.9 54.2 12.2 54.2 12.4 Z M 57.8 11.2 C 57.8 11.4 57.7 11.5 57.6 11.5 C 57.6 11.4 57.5 11.3 57.5 11.3 C 57.4 11.3 57.4 11.2 57.3 11.2 C 57.1 11.2 56.9 11.3 56.8 11.4 C 56.7 11.4 56.6 11.5 56.6 11.6 C 56.6 11.7 56.6 11.7 56.7 11.8 C 56.7 11.8 56.9 11.9 57.1 11.9 C 57.3 12 57.5 12.1 57.6 12.2 C 57.7 12.2 57.8 12.3 57.8 12.5 C 57.8 12.6 57.6 12.8 57.3 13 C 57.1 13.1 56.8 13.2 56.4 13.2 C 56.3 13.2 56.3 13.2 56.2 13.2 C 56.1 13.1 56.1 13.1 56.1 13 C 56.1 12.9 56.1 12.9 56.2 12.9 C 56.2 12.8 56.2 12.8 56.3 12.8 C 56.3 12.8 56.3 12.8 56.3 12.8 C 56.4 12.9 56.5 12.9 56.6 12.9 C 56.8 12.9 56.9 12.8 57.1 12.7 C 57.3 12.7 57.4 12.6 57.4 12.5 C 57.4 12.5 57.4 12.4 57.3 12.4 C 57.3 12.4 57.2 12.3 57 12.3 C 56.8 12.2 56.7 12.1 56.6 12.1 C 56.5 12.1 56.4 12 56.3 11.9 C 56.3 11.9 56.2 11.8 56.2 11.7 C 56.2 11.5 56.3 11.3 56.6 11.2 C 56.8 11 57 10.9 57.3 10.9 C 57.5 10.9 57.6 11 57.7 11 C 57.8 11.1 57.8 11.2 57.8 11.2 C 57.8 11.2 57.8 11.2 57.8 11.2 Z " stroke="none" fill="#000"/>  </g>  <g id="Polygon15063">    <path d="M 5.6 9.2 C 5.4 9.2 5.3 9.1 5.1 8.9 C 5 8.8 4.9 8.6 4.9 8.4 C 4.9 8.2 5 8 5.1 7.8 C 5.3 7.5 5.4 7.3 5.6 7.2 C 5.8 7 6 6.9 6.2 6.9 C 6.4 6.9 6.5 7 6.6 7 C 6.7 7 6.8 7.1 6.9 7.2 C 7 7.2 7.1 7.3 7.1 7.4 C 7.1 7.5 7.1 7.6 7.1 7.7 C 7.1 7.9 7.1 8 7 8.2 C 6.9 8.4 6.8 8.5 6.7 8.7 C 6.5 8.8 6.4 9 6.2 9 C 6 9.1 5.8 9.2 5.6 9.2 Z M 5.3 8.4 C 5.3 8.6 5.4 8.7 5.4 8.7 C 5.5 8.8 5.6 8.9 5.7 8.9 C 5.9 8.9 6.2 8.7 6.4 8.5 C 6.6 8.2 6.8 8 6.8 7.7 C 6.8 7.6 6.7 7.5 6.7 7.4 C 6.7 7.4 6.6 7.3 6.5 7.3 C 6.4 7.2 6.3 7.2 6.2 7.2 C 6 7.2 5.8 7.4 5.6 7.6 C 5.4 7.9 5.3 8.2 5.3 8.4 Z M 10.7 7.1 C 10.7 7.1 10.7 7.1 10.7 7.1 C 10.7 7.1 10.6 7.1 10.5 7.2 C 10.4 7.4 10.3 7.5 10.3 7.6 C 10.2 7.7 10.1 8 9.9 8.3 C 9.8 8.4 9.7 8.6 9.7 8.6 C 9.6 8.7 9.5 8.9 9.5 8.9 C 9.5 9 9.5 9 9.4 9 C 9.4 9.1 9.3 9.1 9.2 9.1 C 9.2 9.1 9.2 9.1 9.1 9 C 9.1 9 9.1 8.9 9 8.7 C 9 8.6 8.9 8.4 8.8 8.1 C 8.5 7.5 8.4 7.2 8.4 7.2 C 8.4 7.2 8.4 7.1 8.5 7.1 C 8.5 7 8.6 7 8.6 7 C 8.7 7 8.7 7 8.8 7 C 8.8 7.1 8.8 7.2 8.9 7.3 C 8.9 7.4 8.9 7.6 9.1 7.9 C 9.2 8.2 9.3 8.5 9.3 8.6 C 9.4 8.6 9.4 8.5 9.4 8.4 C 9.5 8.4 9.5 8.4 9.5 8.4 C 9.6 8.2 9.7 8 9.8 7.8 C 10 7.5 10.1 7.3 10.2 7.1 C 10.3 7 10.4 6.9 10.5 6.9 C 10.6 6.9 10.7 6.9 10.7 7 C 10.66 7.04 10.7 7.1 10.7 7.1 C 10.7 7.1 10.66 7.05 10.7 7.1 Z M 11.1 9.2 C 11 9.2 10.8 9.1 10.7 8.9 C 10.6 8.8 10.5 8.6 10.5 8.4 C 10.5 8.2 10.5 8 10.7 7.8 C 10.8 7.5 11 7.3 11.1 7.2 C 11.3 7 11.5 6.9 11.7 6.9 C 11.9 6.9 12 7 12.2 7 C 12.3 7 12.4 7.1 12.4 7.2 C 12.5 7.2 12.6 7.3 12.6 7.4 C 12.7 7.5 12.7 7.6 12.7 7.7 C 12.7 7.9 12.6 8 12.5 8.2 C 12.5 8.4 12.4 8.5 12.2 8.7 C 12 8.8 11.9 9 11.7 9 C 11.6 9.1 11.4 9.2 11.1 9.2 Z M 10.9 8.4 C 10.9 8.6 10.9 8.7 11 8.7 C 11 8.8 11.1 8.9 11.2 8.9 C 11.5 8.9 11.7 8.7 11.9 8.5 C 12.2 8.2 12.3 8 12.3 7.7 C 12.3 7.6 12.3 7.5 12.2 7.4 C 12.2 7.4 12.1 7.3 12 7.3 C 11.9 7.2 11.9 7.2 11.7 7.2 C 11.6 7.2 11.4 7.4 11.2 7.6 C 11 7.9 10.9 8.2 10.9 8.4 Z M 14.5 7.3 C 14.3 7.3 14.1 7.3 14 7.3 C 14 7.3 14 7.4 14 7.4 C 14 7.4 14 7.6 13.9 7.9 C 13.9 8.2 13.9 8.4 13.9 8.6 C 13.9 8.7 13.9 8.8 13.9 8.9 C 13.9 8.9 13.9 8.9 13.9 8.9 C 13.9 9 13.9 9 13.9 9.1 C 13.8 9.1 13.8 9.1 13.7 9.1 C 13.7 9.1 13.7 9.1 13.6 9.1 C 13.6 9 13.5 9 13.5 8.9 C 13.5 8.8 13.5 8.7 13.5 8.6 C 13.5 8.5 13.5 8.2 13.6 7.9 C 13.6 7.5 13.6 7.4 13.7 7.4 C 13.6 7.4 13.5 7.4 13.3 7.4 C 13.1 7.4 13 7.4 13 7.4 C 12.9 7.4 12.8 7.4 12.8 7.4 C 12.7 7.3 12.7 7.3 12.7 7.3 C 12.7 7.2 12.7 7.2 12.8 7.1 C 12.8 7.1 12.9 7.1 13.1 7.1 C 13.4 7.1 13.7 7.1 13.9 7 C 14.2 7 14.5 7 14.6 7 C 14.8 7 14.9 7 14.9 7 C 15 7.1 15 7.1 15 7.2 C 15 7.3 15 7.3 14.9 7.3 C 14.8 7.3 14.8 7.3 14.7 7.3 C 14.7 7.3 14.6 7.3 14.5 7.3 C 14.5 7.3 14.5 7.3 14.5 7.3 Z M 15.4 9.2 C 15.3 9.2 15.1 9.1 15 8.9 C 14.9 8.8 14.8 8.6 14.8 8.4 C 14.8 8.2 14.9 8 15 7.8 C 15.1 7.5 15.3 7.3 15.4 7.2 C 15.6 7 15.8 6.9 16 6.9 C 16.2 6.9 16.3 7 16.5 7 C 16.6 7 16.7 7.1 16.7 7.2 C 16.8 7.2 16.9 7.3 16.9 7.4 C 17 7.5 17 7.6 17 7.7 C 17 7.9 16.9 8 16.9 8.2 C 16.8 8.4 16.7 8.5 16.5 8.7 C 16.4 8.8 16.2 9 16 9 C 15.9 9.1 15.7 9.2 15.4 9.2 Z M 15.2 8.4 C 15.2 8.6 15.2 8.7 15.3 8.7 C 15.3 8.8 15.4 8.9 15.5 8.9 C 15.8 8.9 16 8.7 16.3 8.5 C 16.5 8.2 16.6 8 16.6 7.7 C 16.6 7.6 16.6 7.5 16.5 7.4 C 16.5 7.4 16.4 7.3 16.3 7.3 C 16.3 7.2 16.2 7.2 16 7.2 C 15.9 7.2 15.7 7.4 15.5 7.6 C 15.3 7.9 15.2 8.2 15.2 8.4 Z M 18.4 8.8 C 18.4 8.8 18.4 8.7 18.4 8.6 C 18.5 8.2 18.5 7.9 18.6 7.5 C 18.6 7.4 18.6 7.4 18.6 7.3 C 18.6 7.3 18.6 7.3 18.6 7.3 C 18.5 7.3 18.4 7.2 18.4 7.2 C 18.4 7.1 18.4 7.1 18.5 7 C 18.5 7 18.6 7 18.6 7 C 18.6 7 18.8 7 18.8 7 C 18.9 7 19 7 19.2 7 C 19.3 6.9 19.4 6.9 19.5 6.9 C 19.8 6.9 20 7 20.2 7.2 C 20.3 7.3 20.4 7.5 20.4 7.8 C 20.4 8.1 20.3 8.3 20 8.5 C 19.8 8.8 19.4 8.9 19.1 9 C 19 9 18.9 9 18.9 9.1 C 18.8 9.1 18.8 9.1 18.7 9.1 C 18.7 9.2 18.6 9.2 18.5 9.2 C 18.5 9.2 18.4 9.2 18.4 9.1 C 18.4 9.1 18.3 9 18.3 9 C 18.3 9 18.4 9 18.4 8.9 C 18.4 8.9 18.4 8.8 18.4 8.8 Z M 18.8 8.7 C 18.8 8.7 18.8 8.7 18.8 8.8 C 18.8 8.8 19 8.7 19.2 8.7 C 19.5 8.6 19.7 8.5 19.8 8.3 C 20 8.1 20.1 8 20.1 7.8 C 20.1 7.6 20 7.5 19.9 7.4 C 19.8 7.3 19.6 7.2 19.4 7.2 C 19.3 7.2 19.2 7.2 19 7.3 C 19 7.3 19 7.3 18.9 7.3 C 18.8 7.9 18.8 8.4 18.8 8.7 C 18.8 8.7 18.8 8.7 18.8 8.7 Z M 21.2 7.6 C 21.1 7.7 21.1 7.8 21.1 7.8 C 21.1 7.9 21.1 7.9 21.1 8.1 C 21.1 8.3 21.1 8.4 21.1 8.5 C 21.1 8.6 21.1 8.7 21.1 8.9 C 21.1 9 21.1 9 21 9.1 C 21 9.1 20.9 9.1 20.9 9.1 C 20.8 9.1 20.8 9.1 20.7 9 C 20.7 9 20.7 8.9 20.7 8.7 C 20.7 8.6 20.7 8.4 20.7 8.1 C 20.7 8.1 20.8 7.5 20.8 7.5 C 20.8 7.4 20.9 7.3 20.9 7.3 C 20.9 7.1 20.9 7.1 20.9 7.1 C 20.9 7 21 7 21 7 C 21 7 21.1 6.9 21.1 6.9 C 21.2 6.9 21.2 7 21.2 7 C 21.3 7.1 21.3 7.1 21.3 7.2 C 21.3 7.2 21.2 7.6 21.2 7.6 Z M 23.2 7.2 C 23.2 7.4 23.1 7.5 22.9 7.5 C 22.9 7.4 22.9 7.3 22.8 7.3 C 22.8 7.3 22.7 7.2 22.6 7.2 C 22.4 7.2 22.3 7.3 22.1 7.4 C 22 7.4 21.9 7.5 21.9 7.6 C 21.9 7.7 21.9 7.7 22 7.8 C 22 7.8 22.2 7.9 22.4 7.9 C 22.6 8 22.8 8.1 22.9 8.2 C 23 8.2 23.1 8.3 23.1 8.5 C 23.1 8.6 23 8.8 22.7 9 C 22.4 9.1 22.1 9.2 21.8 9.2 C 21.7 9.2 21.6 9.2 21.5 9.2 C 21.5 9.1 21.4 9.1 21.4 9 C 21.4 8.9 21.4 8.9 21.5 8.9 C 21.5 8.8 21.5 8.8 21.6 8.8 C 21.6 8.8 21.6 8.8 21.6 8.8 C 21.7 8.9 21.8 8.9 21.9 8.9 C 22.1 8.9 22.3 8.8 22.4 8.7 C 22.6 8.7 22.7 8.6 22.7 8.5 C 22.7 8.5 22.7 8.4 22.7 8.4 C 22.6 8.4 22.5 8.3 22.4 8.3 C 22.2 8.2 22 8.1 21.9 8.1 C 21.8 8.1 21.7 8 21.6 7.9 C 21.6 7.9 21.6 7.8 21.6 7.7 C 21.6 7.5 21.7 7.3 21.9 7.2 C 22.1 7 22.3 6.9 22.6 6.9 C 22.8 6.9 22.9 7 23 7 C 23.1 7.1 23.2 7.2 23.2 7.2 C 23.2 7.2 23.2 7.2 23.2 7.2 Z M 25 7.3 C 24.8 7.3 24.6 7.3 24.5 7.3 C 24.5 7.3 24.5 7.4 24.5 7.4 C 24.5 7.4 24.4 7.6 24.4 7.9 C 24.4 8.2 24.4 8.4 24.4 8.6 C 24.4 8.7 24.4 8.8 24.4 8.9 C 24.4 8.9 24.4 8.9 24.4 8.9 C 24.4 9 24.4 9 24.4 9.1 C 24.3 9.1 24.3 9.1 24.2 9.1 C 24.2 9.1 24.2 9.1 24.1 9.1 C 24.1 9 24 9 24 8.9 C 24 8.8 24 8.7 24 8.6 C 24 8.5 24 8.2 24.1 7.9 C 24.1 7.5 24.1 7.4 24.1 7.4 C 24.1 7.4 24 7.4 23.8 7.4 C 23.6 7.4 23.5 7.4 23.5 7.4 C 23.4 7.4 23.3 7.4 23.3 7.4 C 23.2 7.3 23.2 7.3 23.2 7.3 C 23.2 7.2 23.2 7.2 23.3 7.1 C 23.3 7.1 23.4 7.1 23.6 7.1 C 23.9 7.1 24.1 7.1 24.4 7 C 24.7 7 24.9 7 25.1 7 C 25.3 7 25.4 7 25.4 7 C 25.5 7.1 25.5 7.1 25.5 7.2 C 25.5 7.3 25.4 7.3 25.4 7.3 C 25.3 7.3 25.3 7.3 25.2 7.3 C 25.2 7.3 25.1 7.3 25 7.3 C 25 7.3 25 7.3 25 7.3 Z M 25.5 7.3 C 25.5 7.3 25.52 7.28 25.5 7.3 C 25.5 7.2 25.5 7.2 25.5 7.2 C 25.5 7.1 25.5 7.1 25.5 7 C 25.6 7 25.6 7 25.7 7 C 25.7 7 25.7 7 25.7 7 C 25.8 7 25.8 7 25.8 7 C 26.1 7 26.3 6.9 26.4 6.9 C 26.6 6.9 26.8 7 26.9 7.1 C 27 7.2 27.1 7.3 27.1 7.5 C 27.1 7.6 27 7.8 26.9 7.9 C 26.8 8 26.6 8.1 26.4 8.2 C 26.8 8.5 27 8.7 27.2 8.8 C 27.3 8.8 27.3 8.9 27.3 8.9 C 27.3 9 27.3 9 27.2 9 C 27.2 9.1 27.1 9.1 27.1 9.1 C 27.1 9.1 27 9.1 26.9 9 C 26.8 9 26.7 8.9 26.6 8.8 C 26.5 8.7 26.4 8.6 26.4 8.6 C 26.2 8.5 26.1 8.4 26 8.3 C 25.9 8.3 25.8 8.3 25.8 8.1 C 25.8 8.1 25.8 8.1 25.9 8 C 25.9 8 26 8 26.1 8 C 26.1 8 26.1 8 26.1 8 C 26.1 8 26.1 8 26.1 8 C 26.2 8 26.3 7.9 26.5 7.8 C 26.7 7.7 26.7 7.6 26.7 7.5 C 26.7 7.4 26.7 7.3 26.6 7.3 C 26.6 7.2 26.5 7.2 26.4 7.2 C 26.2 7.2 26.1 7.2 26.1 7.2 C 26 7.3 25.9 7.3 25.9 7.3 C 25.9 7.3 25.9 7.3 25.9 7.3 C 25.9 7.3 25.9 7.4 25.8 7.6 C 25.8 7.8 25.8 8 25.7 8.2 C 25.7 8.4 25.7 8.6 25.7 8.7 C 25.7 8.7 25.7 8.8 25.7 8.8 C 25.7 8.9 25.7 8.9 25.7 9 C 25.7 9 25.7 9 25.7 9.1 C 25.6 9.1 25.6 9.1 25.5 9.1 C 25.4 9.1 25.3 9.1 25.3 8.9 C 25.3 8.7 25.3 8.5 25.4 8.2 C 25.4 8 25.5 7.7 25.5 7.5 C 25.5 7.5 25.5 7.4 25.5 7.4 C 25.52 7.41 25.5 7.3 25.5 7.3 Z M 28 7.6 C 28 7.7 27.9 7.8 27.9 7.8 C 27.9 7.9 27.9 7.9 27.9 8.1 C 27.9 8.3 27.9 8.4 27.9 8.5 C 27.9 8.6 27.9 8.7 27.9 8.9 C 27.9 9 27.9 9 27.8 9.1 C 27.8 9.1 27.7 9.1 27.7 9.1 C 27.6 9.1 27.6 9.1 27.5 9 C 27.5 9 27.5 8.9 27.5 8.7 C 27.5 8.6 27.5 8.4 27.6 8.1 C 27.6 8.1 27.6 7.5 27.6 7.5 C 27.7 7.4 27.7 7.3 27.7 7.3 C 27.7 7.1 27.7 7.1 27.7 7.1 C 27.7 7 27.8 7 27.8 7 C 27.9 7 27.9 6.9 27.9 6.9 C 28 6.9 28 7 28 7 C 28.1 7.1 28.1 7.1 28.1 7.2 C 28.1 7.2 28 7.6 28 7.6 Z M 30 7.3 C 29.7 7.3 29.5 7.3 29.5 7.3 C 29.4 7.3 29.4 7.4 29.4 7.4 C 29.4 7.4 29.4 7.6 29.4 7.9 C 29.3 8.2 29.3 8.4 29.3 8.6 C 29.3 8.7 29.3 8.8 29.3 8.9 C 29.4 8.9 29.4 8.9 29.4 8.9 C 29.4 9 29.3 9 29.3 9.1 C 29.3 9.1 29.2 9.1 29.2 9.1 C 29.2 9.1 29.1 9.1 29.1 9.1 C 29 9 29 9 29 8.9 C 29 8.8 29 8.7 29 8.6 C 29 8.5 29 8.2 29 7.9 C 29.1 7.5 29.1 7.4 29.1 7.4 C 29.1 7.4 29 7.4 28.8 7.4 C 28.6 7.4 28.5 7.4 28.4 7.4 C 28.3 7.4 28.3 7.4 28.2 7.4 C 28.2 7.3 28.2 7.3 28.2 7.3 C 28.2 7.2 28.2 7.2 28.2 7.1 C 28.3 7.1 28.4 7.1 28.5 7.1 C 28.8 7.1 29.1 7.1 29.4 7 C 29.7 7 29.9 7 30.1 7 C 30.2 7 30.3 7 30.4 7 C 30.4 7.1 30.4 7.1 30.4 7.2 C 30.4 7.3 30.4 7.3 30.3 7.3 C 30.3 7.3 30.2 7.3 30.2 7.3 C 30.1 7.3 30 7.3 30 7.3 C 30 7.3 30 7.3 30 7.3 Z M 30.6 8.6 C 30.6 8.6 30.6 8.6 30.6 8.6 C 30.5 8.6 30.5 8.7 30.4 8.9 C 30.3 9 30.3 9.1 30.2 9.1 C 30.2 9.1 30.2 9.1 30.1 9.1 C 30.1 9.1 30.1 9.1 30 9.1 C 30 9 29.9 9 29.9 9 C 29.9 8.9 30.1 8.7 30.3 8.3 C 30.4 8.1 30.6 7.9 30.7 7.7 C 30.9 7.3 31 7.1 31.1 7 C 31.1 7 31.2 6.9 31.2 6.9 C 31.3 6.9 31.4 6.9 31.4 7 C 31.4 7 31.4 7 31.4 7.1 C 31.4 7.1 31.4 7.2 31.4 7.2 C 31.6 7.7 31.7 8.1 31.8 8.3 C 32 8.6 32.1 8.7 32.2 8.8 C 32.2 8.9 32.2 8.9 32.2 8.9 C 32.3 8.9 32.3 9 32.3 9 C 32.3 9.1 32.2 9.1 32.2 9.1 C 32.2 9.2 32.1 9.2 32.1 9.2 C 32 9.2 31.9 9.1 31.8 9.1 C 31.8 9 31.7 8.9 31.6 8.7 C 31.6 8.6 31.5 8.5 31.5 8.5 C 31.5 8.5 31.5 8.4 31.5 8.4 C 31.5 8.4 31.3 8.5 31.2 8.5 C 31 8.5 30.8 8.6 30.7 8.6 C 30.7 8.6 30.7 8.6 30.6 8.6 C 30.6 8.6 30.6 8.6 30.6 8.6 Z M 31.3 8.2 C 31.3 8.2 31.4 8.2 31.4 8.2 C 31.4 8.1 31.3 7.9 31.2 7.5 C 31.2 7.5 31.2 7.5 31.2 7.5 C 31.2 7.5 30.8 8.3 30.8 8.3 C 30.8 8.3 30.9 8.2 30.9 8.2 C 31 8.2 31.1 8.2 31.3 8.2 C 31.3 8.2 31.3 8.2 31.3 8.2 Z M 33.9 9 C 33.8 9 33.8 9 33.7 9 C 33.7 9 33.6 9 33.6 9 C 33.3 9 33.1 9 32.8 9.1 C 32.7 9.1 32.7 9.2 32.6 9.2 C 32.5 9.2 32.5 9.1 32.5 9.1 C 32.4 9 32.4 9 32.4 9 C 32.4 8.9 32.4 8.9 32.4 8.8 C 32.5 8.7 32.5 8.6 32.5 8.5 C 32.5 8.5 32.6 7.3 32.6 7.3 C 32.6 7.2 32.7 7.1 32.7 7.1 C 32.7 7 32.7 7 32.7 7 C 32.8 7 32.8 6.9 32.9 6.9 C 32.9 6.9 33 7 33 7 C 33 7 33 7.1 33 7.1 C 33 7.1 33 7.2 33 7.3 C 33 7.4 33 7.7 32.9 8.1 C 32.9 8.5 32.8 8.7 32.8 8.7 C 32.8 8.7 32.8 8.8 32.9 8.8 C 32.9 8.8 33 8.7 33.2 8.7 C 33.2 8.7 33.3 8.7 33.4 8.7 C 33.6 8.7 33.8 8.7 33.9 8.6 C 33.9 8.6 33.9 8.6 33.9 8.6 C 34 8.6 34 8.6 34.1 8.7 C 34.1 8.7 34.1 8.7 34.1 8.8 C 34.1 8.9 34.1 8.9 34 8.9 C 34 9 33.9 9 33.9 9 Z M 36.7 8.7 C 36.8 8.6 36.9 8.6 36.9 8.6 C 37 8.6 37 8.6 37 8.7 C 37 8.8 36.9 8.9 36.7 9 C 36.5 9.1 36.3 9.2 36.1 9.2 C 35.9 9.2 35.7 9.1 35.6 9 C 35.4 8.9 35.3 8.7 35.3 8.5 C 35.3 8.3 35.4 8 35.6 7.8 C 35.7 7.5 35.9 7.3 36.2 7.1 C 36.4 6.9 36.6 6.8 36.8 6.8 C 37 6.8 37.1 6.9 37.1 6.9 C 37.2 7 37.3 7.1 37.3 7.2 C 37.3 7.3 37.3 7.4 37.2 7.5 C 37.2 7.5 37.2 7.6 37.1 7.6 C 37.1 7.6 37 7.6 37 7.6 C 36.9 7.6 36.9 7.6 36.9 7.6 C 36.9 7.6 36.8 7.5 36.8 7.5 C 36.8 7.5 36.9 7.4 36.9 7.4 C 36.9 7.3 36.9 7.3 36.9 7.2 C 36.9 7.1 36.9 7.1 36.8 7.1 C 36.7 7.1 36.5 7.2 36.4 7.3 C 36.2 7.5 36 7.7 35.9 7.9 C 35.8 8.1 35.7 8.3 35.7 8.5 C 35.7 8.6 35.8 8.7 35.8 8.8 C 35.9 8.9 36 8.9 36.1 8.9 C 36.2 8.9 36.3 8.9 36.4 8.8 C 36.5 8.8 36.6 8.7 36.7 8.7 C 36.7 8.7 36.7 8.7 36.7 8.7 Z M 38 9.2 C 37.8 9.2 37.7 9.1 37.6 8.9 C 37.4 8.8 37.4 8.6 37.4 8.4 C 37.4 8.2 37.4 8 37.6 7.8 C 37.7 7.5 37.8 7.3 38 7.2 C 38.2 7 38.4 6.9 38.6 6.9 C 38.8 6.9 38.9 7 39 7 C 39.1 7 39.2 7.1 39.3 7.2 C 39.4 7.2 39.5 7.3 39.5 7.4 C 39.5 7.5 39.6 7.6 39.6 7.7 C 39.6 7.9 39.5 8 39.4 8.2 C 39.4 8.4 39.2 8.5 39.1 8.7 C 38.9 8.8 38.8 9 38.6 9 C 38.5 9.1 38.3 9.2 38 9.2 Z M 37.7 8.4 C 37.7 8.6 37.8 8.7 37.9 8.7 C 37.9 8.8 38 8.9 38.1 8.9 C 38.4 8.9 38.6 8.7 38.8 8.5 C 39.1 8.2 39.2 8 39.2 7.7 C 39.2 7.6 39.2 7.5 39.1 7.4 C 39.1 7.4 39 7.3 38.9 7.3 C 38.8 7.2 38.7 7.2 38.6 7.2 C 38.4 7.2 38.3 7.4 38 7.6 C 37.8 7.9 37.7 8.2 37.7 8.4 Z M 39.8 8.6 C 39.8 8.6 39.94 8.1 39.9 8.1 C 40 7.7 40.1 7.4 40.1 7.3 C 40.1 7.2 40.1 7.2 40.1 7.1 C 40.1 7.1 40.1 7.1 40.2 7.1 C 40.2 7 40.2 7 40.3 7 C 40.3 7 40.3 7 40.4 7 C 40.4 7.1 40.5 7.1 40.5 7.2 C 40.5 7.4 40.6 7.6 40.8 7.9 C 41 8.2 41.1 8.4 41.3 8.6 C 41.3 8.4 41.3 8.2 41.4 7.9 C 41.4 7.7 41.4 7.6 41.5 7.4 C 41.5 7.3 41.5 7.2 41.5 7.1 C 41.5 7 41.5 7 41.6 6.9 C 41.6 6.9 41.7 6.9 41.7 6.9 C 41.8 6.9 41.8 6.9 41.8 7 C 41.9 7 41.9 7.1 41.9 7.1 C 41.9 7.2 41.9 7.3 41.8 7.4 C 41.8 7.6 41.7 7.9 41.6 8.2 C 41.6 8.6 41.6 8.8 41.6 8.8 C 41.6 8.8 41.6 8.9 41.6 8.9 C 41.6 8.9 41.6 9 41.5 9 C 41.5 9 41.5 9.1 41.5 9.1 C 41.4 9.1 41.4 9.1 41.3 9.1 C 41.3 9.1 41.3 9.1 41.2 9.1 C 41.2 9.1 41.2 9.1 41.2 9 C 41.2 9 41.1 9 41.1 8.9 C 41.1 8.8 41 8.8 41 8.7 C 40.8 8.5 40.5 8.1 40.3 7.7 C 40.3 7.8 40.2 8.1 40.2 8.6 C 40.2 8.6 40.2 8.7 40.2 8.7 C 40.2 8.7 40.2 8.8 40.1 8.9 C 40.1 9 40.1 9.1 40.1 9.1 C 40 9.2 40 9.2 39.9 9.2 C 39.9 9.2 39.8 9.2 39.8 9.1 C 39.8 9.1 39.8 9 39.8 8.9 C 39.8 8.9 39.8 8.7 39.8 8.6 C 39.83 8.6 39.8 8.6 39.8 8.6 Z M 43.8 7.2 C 43.8 7.4 43.7 7.5 43.5 7.5 C 43.5 7.4 43.5 7.3 43.4 7.3 C 43.4 7.3 43.3 7.2 43.2 7.2 C 43 7.2 42.9 7.3 42.7 7.4 C 42.6 7.4 42.5 7.5 42.5 7.6 C 42.5 7.7 42.5 7.7 42.6 7.8 C 42.7 7.8 42.8 7.9 43 7.9 C 43.2 8 43.4 8.1 43.5 8.2 C 43.6 8.2 43.7 8.3 43.7 8.5 C 43.7 8.6 43.6 8.8 43.3 9 C 43 9.1 42.7 9.2 42.4 9.2 C 42.3 9.2 42.2 9.2 42.1 9.2 C 42.1 9.1 42 9.1 42 9 C 42 8.9 42.1 8.9 42.1 8.9 C 42.1 8.8 42.1 8.8 42.2 8.8 C 42.2 8.8 42.2 8.8 42.2 8.8 C 42.3 8.9 42.4 8.9 42.5 8.9 C 42.7 8.9 42.9 8.8 43 8.7 C 43.2 8.7 43.3 8.6 43.3 8.5 C 43.3 8.5 43.3 8.4 43.3 8.4 C 43.2 8.4 43.1 8.3 43 8.3 C 42.8 8.2 42.6 8.1 42.5 8.1 C 42.4 8.1 42.3 8 42.2 7.9 C 42.2 7.9 42.2 7.8 42.2 7.7 C 42.2 7.5 42.3 7.3 42.5 7.2 C 42.7 7 42.9 6.9 43.2 6.9 C 43.4 6.9 43.5 7 43.6 7 C 43.7 7.1 43.8 7.2 43.8 7.2 C 43.8 7.2 43.8 7.2 43.8 7.2 Z M 45.7 7.3 C 45.7 7.3 45.2 7.3 45.2 7.3 C 45 7.3 44.9 7.3 44.8 7.3 C 44.7 7.3 44.6 7.4 44.6 7.4 C 44.6 7.4 44.6 7.4 44.6 7.5 C 44.6 7.5 44.6 7.6 44.5 7.7 C 44.5 7.8 44.5 7.9 44.5 7.9 C 44.6 7.9 44.7 7.9 44.8 7.9 C 44.9 7.9 45 7.9 45 7.9 C 45.2 7.9 45.3 7.8 45.3 7.8 C 45.5 7.8 45.6 7.9 45.6 8 C 45.6 8 45.6 8.1 45.5 8.1 C 45.5 8.1 45.4 8.2 45.3 8.2 C 45.3 8.2 45.2 8.2 45.1 8.2 C 45.1 8.2 45 8.2 45 8.2 C 44.7 8.2 44.5 8.3 44.5 8.3 C 44.5 8.3 44.5 8.3 44.5 8.3 C 44.5 8.3 44.5 8.3 44.5 8.3 C 44.5 8.3 44.4 8.4 44.4 8.5 C 44.4 8.7 44.4 8.8 44.4 8.8 C 44.4 8.8 44.4 8.9 44.5 8.9 C 44.5 8.9 44.6 8.8 44.8 8.8 C 45 8.8 45.1 8.8 45.2 8.8 C 45.3 8.7 45.4 8.7 45.5 8.7 C 45.6 8.7 45.6 8.8 45.6 8.9 C 45.6 8.9 45.6 9 45.6 9 C 45.5 9 45.4 9.1 45.2 9.1 C 45.1 9.1 44.9 9.1 44.7 9.1 C 44.5 9.2 44.4 9.2 44.2 9.2 C 44.1 9.2 44.1 9.2 44.1 9.1 C 44 9.1 44 9 44 9 C 44 9 44 8.9 44 8.9 C 44 8.9 44 8.9 44 8.8 C 44 8.7 44.1 8.5 44.2 8 C 44.2 7.6 44.2 7.4 44.2 7.3 C 44.2 7.3 44.2 7.3 44.2 7.3 C 44.2 7.3 44.2 7.3 44.2 7.3 C 44.2 7.2 44.2 7.2 44.2 7.2 C 44.2 7.2 44.2 7.1 44.2 7.1 C 44.2 7.1 44.2 7.1 44.2 7.1 C 44.3 7.1 44.3 7 44.3 7 C 44.4 7 44.4 7 44.5 7.1 C 44.6 7.1 44.8 7 45.3 7 C 45.4 6.9 45.5 6.9 45.5 6.9 C 45.5 6.9 45.5 6.9 45.5 6.9 C 45.7 6.9 45.8 7 45.8 7.1 C 45.8 7.1 45.8 7.2 45.7 7.2 C 45.7 7.2 45.7 7.2 45.7 7.3 Z M 47.8 8.1 C 47.8 8.2 47.8 8.3 47.8 8.4 C 47.8 8.4 47.8 8.4 47.8 8.4 C 47.8 8.4 47.7 8.5 47.7 8.7 C 47.7 8.8 47.7 8.9 47.7 9 C 47.7 9.1 47.7 9.2 47.7 9.2 C 47.7 9.2 47.7 9.3 47.6 9.3 C 47.6 9.3 47.6 9.4 47.6 9.4 C 47.5 9.4 47.5 9.4 47.5 9.4 C 47.4 9.4 47.4 9.4 47.3 9.3 C 47.3 9.3 47.3 9.3 47.3 9.2 C 47.3 9.2 47.3 9.1 47.3 9 C 47.3 8.9 47.4 8.8 47.4 8.7 C 47 8.9 46.8 9.1 46.5 9.1 C 46.3 9.1 46.2 9 46.1 8.9 C 46 8.8 45.9 8.7 45.9 8.5 C 45.9 8.2 46 7.9 46.2 7.7 C 46.2 7.7 46.2 7.7 46.2 7.7 C 46.4 7.4 46.6 7.2 46.8 7.1 C 47.1 6.9 47.3 6.8 47.5 6.8 C 47.7 6.8 47.8 6.9 47.8 6.9 C 47.9 6.9 47.9 7 47.9 7.1 C 47.9 7.1 47.9 7.2 47.9 7.3 C 47.8 7.3 47.8 7.4 47.7 7.4 C 47.7 7.4 47.7 7.4 47.6 7.4 C 47.6 7.3 47.6 7.3 47.6 7.3 C 47.6 7.2 47.6 7.2 47.5 7.2 C 47.5 7.2 47.5 7.2 47.4 7.2 C 47.3 7.2 47.1 7.2 46.9 7.4 C 46.7 7.5 46.6 7.7 46.5 7.9 C 46.3 8.1 46.3 8.3 46.3 8.5 C 46.3 8.7 46.4 8.8 46.5 8.8 C 46.6 8.8 46.7 8.7 46.8 8.7 C 46.9 8.7 47.1 8.6 47.2 8.5 C 47.3 8.4 47.4 8.3 47.5 8.2 C 47.5 8.2 47.5 8.1 47.5 8 C 47.5 7.9 47.5 7.9 47.6 7.9 C 47.6 7.8 47.6 7.8 47.7 7.8 C 47.8 7.8 47.9 7.9 47.9 8 C 47.9 8 47.9 8.1 47.8 8.1 C 47.8 8.1 47.8 8.1 47.8 8.1 Z M 49.1 9.2 C 49 9.2 48.9 9.1 48.7 9.1 C 48.6 9 48.5 8.9 48.4 8.7 C 48.3 8.6 48.3 8.4 48.3 8.2 C 48.3 8.1 48.3 8 48.3 7.9 C 48.3 7.9 48.4 7.6 48.4 7.6 C 48.4 7.5 48.4 7.5 48.4 7.5 C 48.4 7.4 48.4 7.3 48.4 7.3 C 48.4 7.2 48.4 7.1 48.5 7 C 48.5 7 48.6 6.9 48.6 6.9 C 48.7 6.9 48.7 7 48.7 7 C 48.8 7.1 48.8 7.1 48.8 7.2 C 48.8 7.2 48.8 7.3 48.7 7.5 C 48.7 7.5 48.7 7.6 48.7 7.8 C 48.6 8 48.6 8.1 48.6 8.2 C 48.6 8.5 48.7 8.6 48.8 8.7 C 48.9 8.8 49 8.9 49.1 8.9 C 49.3 8.9 49.5 8.8 49.6 8.7 C 49.7 8.6 49.7 8.4 49.8 8.2 C 49.8 8.1 49.8 8.1 49.8 8 C 49.8 7.9 49.8 7.9 49.8 7.8 C 49.8 7.4 49.9 7.2 49.9 7.1 C 50 7 50 7 50.1 7 C 50.2 7 50.3 7.1 50.3 7.2 C 50.3 7.3 50.2 7.4 50.2 7.6 C 50.2 7.7 50.2 7.9 50.1 8 C 50.1 8.3 50.1 8.5 50 8.6 C 50 8.8 49.8 8.9 49.7 9 C 49.5 9.1 49.3 9.2 49.1 9.2 Z M 51 7.6 C 51 7.7 51 7.8 51 7.8 C 51 7.9 51 7.9 50.9 8.1 C 50.9 8.3 50.9 8.4 50.9 8.5 C 50.9 8.6 50.9 8.7 50.9 8.9 C 50.9 9 50.9 9 50.9 9.1 C 50.8 9.1 50.8 9.1 50.7 9.1 C 50.6 9.1 50.6 9.1 50.6 9 C 50.5 9 50.5 8.9 50.5 8.7 C 50.5 8.6 50.5 8.4 50.6 8.1 C 50.6 8.1 50.7 7.5 50.7 7.5 C 50.7 7.4 50.7 7.3 50.7 7.3 C 50.7 7.1 50.7 7.1 50.8 7.1 C 50.8 7 50.8 7 50.8 7 C 50.9 7 50.9 6.9 50.9 6.9 C 51 6.9 51 7 51.1 7 C 51.1 7.1 51.1 7.1 51.1 7.2 C 51.1 7.2 51 7.6 51 7.6 Z M 53.4 7.6 C 53.4 7.5 53.4 7.5 53.4 7.5 C 53.4 7.5 53 8.1 53 8.1 C 52.7 8.4 52.6 8.6 52.4 8.6 C 52.4 8.6 52.3 8.6 52.3 8.5 C 52.2 8.4 52.2 8.3 52.2 8.2 C 52.1 8.1 52.1 8 52.1 7.9 C 52 7.7 52 7.6 52 7.6 C 52 7.6 51.9 8 51.9 8 C 51.9 8.1 51.8 8.2 51.8 8.3 C 51.8 8.5 51.8 8.6 51.7 8.7 C 51.7 8.9 51.7 9 51.7 9 C 51.7 9.1 51.7 9.1 51.6 9.1 C 51.6 9.2 51.5 9.2 51.5 9.2 C 51.5 9.2 51.4 9.1 51.4 9.1 C 51.3 9.1 51.3 9 51.3 9 C 51.3 8.9 51.3 8.8 51.4 8.6 C 51.5 8 51.6 7.7 51.7 7.5 C 51.7 7.3 51.7 7.2 51.7 7.1 C 51.7 7.1 51.7 7 51.8 7 C 51.8 7 51.9 7 51.9 7 C 52 7 52 7 52.1 7 C 52.1 7.1 52.1 7.1 52.1 7.2 C 52.14 7.18 52.1 7.2 52.1 7.2 C 52.1 7.2 52.35 7.75 52.3 7.7 C 52.4 8 52.5 8.1 52.5 8.2 C 52.6 8.1 52.8 7.9 53 7.6 C 53.2 7.3 53.3 7.1 53.4 7 C 53.5 7 53.5 6.9 53.6 6.9 C 53.6 6.9 53.7 6.9 53.7 7 C 53.8 7 53.8 7.1 53.8 7.1 C 53.8 7.1 53.8 7.3 53.8 7.5 C 53.7 7.7 53.7 7.9 53.7 8.2 C 53.7 8.4 53.6 8.5 53.6 8.6 C 53.6 8.6 53.7 8.7 53.7 8.8 C 53.7 8.8 53.7 8.8 53.7 8.9 C 53.7 9 53.7 9 53.6 9.1 C 53.6 9.1 53.5 9.1 53.5 9.1 C 53.3 9.1 53.3 9 53.3 8.8 C 53.3 8.7 53.3 8.4 53.3 8.2 C 53.4 7.9 53.4 7.7 53.4 7.6 C 53.4 7.6 53.4 7.6 53.4 7.6 Z M 54.7 9.2 C 54.6 9.2 54.4 9.1 54.3 8.9 C 54.2 8.8 54.1 8.6 54.1 8.4 C 54.1 8.2 54.2 8 54.3 7.8 C 54.4 7.5 54.6 7.3 54.7 7.2 C 54.9 7 55.1 6.9 55.4 6.9 C 55.5 6.9 55.7 7 55.8 7 C 55.9 7 56 7.1 56.1 7.2 C 56.1 7.2 56.2 7.3 56.2 7.4 C 56.3 7.5 56.3 7.6 56.3 7.7 C 56.3 7.9 56.2 8 56.2 8.2 C 56.1 8.4 56 8.5 55.8 8.7 C 55.7 8.8 55.5 9 55.3 9 C 55.2 9.1 55 9.2 54.7 9.2 Z M 54.5 8.4 C 54.5 8.6 54.5 8.7 54.6 8.7 C 54.6 8.8 54.7 8.9 54.8 8.9 C 55.1 8.9 55.3 8.7 55.6 8.5 C 55.8 8.2 55.9 8 55.9 7.7 C 55.9 7.6 55.9 7.5 55.8 7.4 C 55.8 7.4 55.7 7.3 55.6 7.3 C 55.6 7.2 55.5 7.2 55.4 7.2 C 55.2 7.2 55 7.4 54.8 7.6 C 54.6 7.9 54.5 8.2 54.5 8.4 Z M 58.1 7.2 C 58.1 7.4 58 7.5 57.8 7.5 C 57.8 7.4 57.8 7.3 57.8 7.3 C 57.7 7.3 57.6 7.2 57.5 7.2 C 57.4 7.2 57.2 7.3 57.1 7.4 C 56.9 7.4 56.9 7.5 56.9 7.6 C 56.9 7.7 56.9 7.7 57 7.8 C 57 7.8 57.1 7.9 57.4 7.9 C 57.6 8 57.8 8.1 57.9 8.2 C 58 8.2 58.1 8.3 58.1 8.5 C 58.1 8.6 57.9 8.8 57.6 9 C 57.3 9.1 57 9.2 56.7 9.2 C 56.6 9.2 56.6 9.2 56.5 9.2 C 56.4 9.1 56.4 9.1 56.4 9 C 56.4 8.9 56.4 8.9 56.4 8.9 C 56.5 8.8 56.5 8.8 56.5 8.8 C 56.6 8.8 56.6 8.8 56.6 8.8 C 56.7 8.9 56.8 8.9 56.9 8.9 C 57 8.9 57.2 8.8 57.4 8.7 C 57.6 8.7 57.7 8.6 57.7 8.5 C 57.7 8.5 57.7 8.4 57.6 8.4 C 57.6 8.4 57.5 8.3 57.3 8.3 C 57.1 8.2 57 8.1 56.8 8.1 C 56.7 8.1 56.7 8 56.6 7.9 C 56.6 7.9 56.5 7.8 56.5 7.7 C 56.5 7.5 56.6 7.3 56.8 7.2 C 57.1 7 57.3 6.9 57.6 6.9 C 57.8 6.9 57.9 7 58 7 C 58.1 7.1 58.1 7.2 58.1 7.2 C 58.1 7.2 58.1 7.2 58.1 7.2 Z " stroke="none" fill="#000"/>  </g>  <g id="Polygon15062">    <path d="M 9.6 3.3 C 9.6 3.3 9.2 3.3 9.2 3.3 C 9 3.3 8.9 3.3 8.8 3.3 C 8.7 3.3 8.6 3.4 8.6 3.4 C 8.6 3.4 8.6 3.4 8.6 3.5 C 8.6 3.5 8.6 3.6 8.5 3.7 C 8.5 3.8 8.5 3.9 8.5 3.9 C 8.5 3.9 8.6 3.9 8.8 3.9 C 8.9 3.9 9 3.9 9 3.9 C 9.1 3.9 9.3 3.8 9.3 3.8 C 9.5 3.8 9.6 3.9 9.6 4 C 9.6 4 9.5 4.1 9.5 4.1 C 9.5 4.1 9.4 4.2 9.3 4.2 C 9.2 4.2 9.2 4.2 9.1 4.2 C 9.1 4.2 9 4.2 9 4.2 C 8.7 4.2 8.5 4.3 8.5 4.3 C 8.5 4.3 8.5 4.3 8.5 4.3 C 8.5 4.3 8.5 4.3 8.4 4.3 C 8.4 4.3 8.4 4.4 8.4 4.5 C 8.4 4.7 8.4 4.8 8.4 4.8 C 8.4 4.8 8.4 4.9 8.4 4.9 C 8.5 4.9 8.6 4.8 8.8 4.8 C 9 4.8 9.1 4.8 9.2 4.8 C 9.3 4.7 9.4 4.7 9.4 4.7 C 9.6 4.7 9.6 4.8 9.6 4.9 C 9.6 4.9 9.6 5 9.6 5 C 9.5 5 9.4 5.1 9.2 5.1 C 9 5.1 8.9 5.1 8.7 5.1 C 8.5 5.2 8.4 5.2 8.2 5.2 C 8.1 5.2 8.1 5.2 8 5.1 C 8 5.1 8 5 8 5 C 8 5 8 4.9 8 4.9 C 8 4.9 8 4.9 8 4.8 C 8 4.7 8.1 4.5 8.1 4 C 8.2 3.6 8.2 3.4 8.2 3.3 C 8.2 3.3 8.2 3.3 8.2 3.3 C 8.2 3.3 8.2 3.3 8.2 3.3 C 8.2 3.2 8.2 3.2 8.2 3.2 C 8.2 3.2 8.2 3.1 8.2 3.1 C 8.2 3.1 8.2 3.1 8.2 3.1 C 8.3 3.1 8.3 3 8.3 3 C 8.4 3 8.4 3 8.5 3.1 C 8.6 3.1 8.8 3 9.3 3 C 9.4 2.9 9.5 2.9 9.5 2.9 C 9.5 2.9 9.5 2.9 9.5 2.9 C 9.7 2.9 9.8 3 9.8 3.1 C 9.8 3.1 9.8 3.2 9.7 3.2 C 9.7 3.2 9.7 3.2 9.6 3.3 Z M 10 4.6 C 10 4.6 10.12 4.1 10.1 4.1 C 10.2 3.7 10.2 3.4 10.2 3.3 C 10.3 3.2 10.3 3.2 10.3 3.1 C 10.3 3.1 10.3 3.1 10.3 3.1 C 10.4 3 10.4 3 10.5 3 C 10.5 3 10.5 3 10.6 3 C 10.6 3.1 10.6 3.1 10.7 3.2 C 10.7 3.4 10.8 3.6 11 3.9 C 11.1 4.2 11.3 4.4 11.4 4.6 C 11.5 4.4 11.5 4.2 11.6 3.9 C 11.6 3.7 11.6 3.6 11.6 3.4 C 11.7 3.3 11.7 3.2 11.7 3.1 C 11.7 3 11.7 3 11.8 2.9 C 11.8 2.9 11.9 2.9 11.9 2.9 C 11.9 2.9 12 2.9 12 3 C 12 3 12.1 3.1 12.1 3.1 C 12.1 3.2 12 3.3 12 3.4 C 11.9 3.6 11.9 3.9 11.8 4.2 C 11.8 4.6 11.7 4.8 11.7 4.8 C 11.7 4.8 11.7 4.9 11.7 4.9 C 11.7 4.9 11.7 5 11.7 5 C 11.7 5 11.7 5.1 11.7 5.1 C 11.6 5.1 11.6 5.1 11.5 5.1 C 11.5 5.1 11.4 5.1 11.4 5.1 C 11.4 5.1 11.4 5.1 11.4 5 C 11.3 5 11.3 5 11.3 4.9 C 11.2 4.8 11.2 4.8 11.2 4.7 C 10.9 4.5 10.7 4.1 10.5 3.7 C 10.5 3.8 10.4 4.1 10.4 4.6 C 10.4 4.6 10.3 4.7 10.3 4.7 C 10.3 4.7 10.3 4.8 10.3 4.9 C 10.3 5 10.3 5.1 10.3 5.1 C 10.2 5.2 10.2 5.2 10.1 5.2 C 10.1 5.2 10 5.2 10 5.1 C 10 5.1 10 5 10 4.9 C 10 4.9 10 4.7 10 4.6 C 10.01 4.6 10 4.6 10 4.6 Z M 13.9 3.3 C 13.7 3.3 13.5 3.3 13.4 3.3 C 13.4 3.3 13.4 3.4 13.4 3.4 C 13.4 3.4 13.4 3.6 13.4 3.9 C 13.3 4.2 13.3 4.4 13.3 4.6 C 13.3 4.7 13.3 4.8 13.3 4.9 C 13.3 4.9 13.3 4.9 13.3 4.9 C 13.3 5 13.3 5 13.3 5.1 C 13.3 5.1 13.2 5.1 13.2 5.1 C 13.1 5.1 13.1 5.1 13 5.1 C 13 5 13 5 13 4.9 C 13 4.8 12.9 4.7 12.9 4.6 C 12.9 4.5 13 4.2 13 3.9 C 13 3.5 13.1 3.4 13.1 3.4 C 13 3.4 12.9 3.4 12.7 3.4 C 12.6 3.4 12.4 3.4 12.4 3.4 C 12.3 3.4 12.2 3.4 12.2 3.4 C 12.2 3.3 12.1 3.3 12.1 3.3 C 12.1 3.2 12.2 3.2 12.2 3.1 C 12.2 3.1 12.4 3.1 12.5 3.1 C 12.8 3.1 13.1 3.1 13.3 3 C 13.7 3 13.9 3 14 3 C 14.2 3 14.3 3 14.4 3 C 14.4 3.1 14.4 3.1 14.4 3.2 C 14.4 3.3 14.4 3.3 14.3 3.3 C 14.3 3.3 14.2 3.3 14.2 3.3 C 14.1 3.3 14 3.3 13.9 3.3 C 13.9 3.3 13.9 3.3 13.9 3.3 Z M 14.6 4.6 C 14.6 4.6 14.6 4.6 14.5 4.6 C 14.5 4.6 14.5 4.7 14.4 4.9 C 14.3 5 14.2 5.1 14.2 5.1 C 14.2 5.1 14.1 5.1 14.1 5.1 C 14.1 5.1 14 5.1 14 5.1 C 13.9 5 13.9 5 13.9 5 C 13.9 4.9 14 4.7 14.3 4.3 C 14.4 4.1 14.5 3.9 14.7 3.7 C 14.9 3.3 15 3.1 15.1 3 C 15.1 3 15.2 2.9 15.2 2.9 C 15.3 2.9 15.4 2.9 15.4 3 C 15.4 3 15.4 3 15.4 3.1 C 15.4 3.1 15.4 3.2 15.4 3.2 C 15.6 3.7 15.7 4.1 15.8 4.3 C 15.9 4.6 16 4.7 16.1 4.8 C 16.2 4.9 16.2 4.9 16.2 4.9 C 16.2 4.9 16.2 5 16.2 5 C 16.2 5.1 16.2 5.1 16.2 5.1 C 16.1 5.2 16.1 5.2 16 5.2 C 16 5.2 15.9 5.1 15.8 5.1 C 15.7 5 15.7 4.9 15.6 4.7 C 15.5 4.6 15.5 4.5 15.5 4.5 C 15.5 4.5 15.5 4.4 15.5 4.4 C 15.4 4.4 15.3 4.5 15.1 4.5 C 15 4.5 14.8 4.6 14.7 4.6 C 14.7 4.6 14.6 4.6 14.6 4.6 C 14.6 4.6 14.6 4.6 14.6 4.6 Z M 15.3 4.2 C 15.3 4.2 15.3 4.2 15.4 4.2 C 15.4 4.1 15.3 3.9 15.2 3.5 C 15.2 3.5 15.2 3.5 15.2 3.5 C 15.2 3.5 14.7 4.3 14.7 4.3 C 14.8 4.3 14.9 4.2 14.9 4.2 C 15 4.2 15.1 4.2 15.3 4.2 C 15.3 4.2 15.3 4.2 15.3 4.2 Z M 15.6 2.6 C 15.5 2.6 15.4 2.6 15.4 2.6 C 15.4 2.6 15.3 2.5 15.3 2.5 C 15.3 2.5 15.2 2.5 15.2 2.5 C 15.2 2.5 15.2 2.5 15.2 2.4 C 15.2 2.4 15.1 2.4 15.1 2.4 C 15 2.4 15 2.4 14.9 2.5 C 14.9 2.5 14.9 2.5 14.9 2.5 C 14.8 2.6 14.8 2.6 14.8 2.6 C 14.8 2.6 14.7 2.7 14.7 2.7 C 14.6 2.7 14.6 2.6 14.6 2.5 C 14.6 2.5 14.6 2.4 14.7 2.2 C 14.9 2.1 15 2.1 15 2.1 C 15.1 2.1 15.2 2.1 15.2 2.1 C 15.2 2.1 15.3 2.1 15.3 2.2 C 15.4 2.3 15.4 2.3 15.5 2.3 C 15.5 2.4 15.6 2.4 15.6 2.4 C 15.6 2.4 15.6 2.3 15.7 2.3 C 15.7 2.2 15.7 2.2 15.7 2.2 C 15.7 2.2 15.7 2.2 15.7 2.2 C 15.8 2.1 15.8 2.1 15.9 2.1 C 15.9 2.1 16 2.2 16 2.2 C 16 2.3 15.9 2.4 15.8 2.5 C 15.8 2.6 15.7 2.6 15.6 2.6 C 15.6 2.6 15.6 2.6 15.6 2.6 Z M 17 5.2 C 16.8 5.2 16.7 5.1 16.5 4.9 C 16.4 4.8 16.3 4.6 16.3 4.4 C 16.3 4.2 16.4 4 16.5 3.8 C 16.6 3.5 16.8 3.3 17 3.2 C 17.2 3 17.4 2.9 17.6 2.9 C 17.8 2.9 17.9 3 18 3 C 18.1 3 18.2 3.1 18.3 3.2 C 18.4 3.2 18.4 3.3 18.5 3.4 C 18.5 3.5 18.5 3.6 18.5 3.7 C 18.5 3.9 18.5 4 18.4 4.2 C 18.3 4.4 18.2 4.5 18 4.7 C 17.9 4.8 17.7 5 17.6 5 C 17.4 5.1 17.2 5.2 17 5.2 Z M 16.7 4.4 C 16.7 4.6 16.7 4.7 16.8 4.7 C 16.9 4.8 17 4.9 17.1 4.9 C 17.3 4.9 17.6 4.7 17.8 4.5 C 18 4.2 18.1 4 18.1 3.7 C 18.1 3.6 18.1 3.5 18.1 3.4 C 18 3.4 18 3.3 17.9 3.3 C 17.8 3.2 17.7 3.2 17.6 3.2 C 17.4 3.2 17.2 3.4 17 3.6 C 16.8 3.9 16.7 4.2 16.7 4.4 Z M 21.5 3.2 C 21.6 3.3 21.7 3.4 21.8 3.5 C 21.9 3.7 21.9 3.8 21.9 4 C 21.9 4.1 21.9 4.3 21.8 4.4 C 21.7 4.6 21.5 4.7 21.4 4.9 C 21.6 5.1 21.7 5.2 21.7 5.3 C 21.7 5.3 21.8 5.4 21.8 5.4 C 21.8 5.4 21.7 5.4 21.7 5.5 C 21.6 5.5 21.6 5.6 21.5 5.6 C 21.5 5.6 21.4 5.5 21.4 5.5 C 21.4 5.4 21.3 5.3 21.2 5.2 C 21.1 5.1 21.1 5 21.1 5 C 21.1 5 21.1 5 21 5 C 20.9 5.1 20.7 5.1 20.6 5.1 C 20.3 5.1 20.2 5 20 4.9 C 19.9 4.8 19.8 4.7 19.8 4.5 C 19.8 4.2 19.9 4 20 3.8 C 20.2 3.5 20.4 3.3 20.6 3.1 C 20.9 3 21.1 2.9 21.3 2.9 C 21.3 2.9 21.4 2.9 21.4 3 C 21.5 3 21.5 3.1 21.5 3.2 Z M 20.5 4.8 C 20.6 4.8 20.7 4.8 20.8 4.8 C 20.8 4.7 20.8 4.7 20.8 4.7 C 20.7 4.6 20.7 4.5 20.7 4.5 C 20.7 4.5 20.7 4.5 20.8 4.4 C 20.8 4.4 20.9 4.3 20.9 4.3 C 21 4.3 21 4.4 21.1 4.4 C 21.1 4.5 21.1 4.5 21.1 4.6 C 21.1 4.6 21.2 4.6 21.2 4.6 C 21.3 4.6 21.3 4.6 21.4 4.4 C 21.5 4.3 21.6 4.1 21.6 4 C 21.6 3.8 21.5 3.6 21.4 3.5 C 21.3 3.3 21.2 3.2 21.1 3.2 C 21 3.2 20.9 3.3 20.7 3.4 C 20.6 3.6 20.4 3.7 20.3 3.9 C 20.2 4.1 20.2 4.3 20.2 4.4 C 20.2 4.6 20.2 4.6 20.3 4.7 C 20.4 4.8 20.4 4.8 20.5 4.8 C 20.5 4.8 20.5 4.8 20.5 4.8 Z M 23.1 5.2 C 23 5.2 22.9 5.1 22.7 5.1 C 22.6 5 22.5 4.9 22.4 4.7 C 22.3 4.6 22.3 4.4 22.3 4.2 C 22.3 4.1 22.3 4 22.3 3.9 C 22.3 3.9 22.4 3.6 22.4 3.6 C 22.4 3.5 22.4 3.5 22.4 3.5 C 22.4 3.4 22.4 3.3 22.4 3.3 C 22.4 3.2 22.4 3.1 22.5 3 C 22.5 3 22.6 2.9 22.6 2.9 C 22.7 2.9 22.7 3 22.7 3 C 22.8 3.1 22.8 3.1 22.8 3.2 C 22.8 3.2 22.8 3.3 22.7 3.5 C 22.7 3.5 22.7 3.6 22.7 3.8 C 22.6 4 22.6 4.1 22.6 4.2 C 22.6 4.5 22.7 4.6 22.8 4.7 C 22.9 4.8 23 4.9 23.1 4.9 C 23.3 4.9 23.5 4.8 23.6 4.7 C 23.7 4.6 23.7 4.4 23.8 4.2 C 23.8 4.1 23.8 4.1 23.8 4 C 23.8 3.9 23.8 3.9 23.8 3.8 C 23.8 3.4 23.9 3.2 23.9 3.1 C 24 3 24 3 24.1 3 C 24.2 3 24.3 3.1 24.3 3.2 C 24.3 3.3 24.2 3.4 24.2 3.6 C 24.2 3.7 24.2 3.9 24.1 4 C 24.1 4.3 24.1 4.5 24 4.6 C 24 4.8 23.8 4.9 23.7 5 C 23.5 5.1 23.3 5.2 23.1 5.2 Z M 26.2 3.3 C 26.2 3.3 25.7 3.3 25.7 3.3 C 25.6 3.3 25.4 3.3 25.3 3.3 C 25.2 3.3 25.1 3.4 25.1 3.4 C 25.1 3.4 25.1 3.4 25.1 3.5 C 25.1 3.5 25.1 3.6 25 3.7 C 25 3.8 25 3.9 25 3.9 C 25.1 3.9 25.2 3.9 25.3 3.9 C 25.4 3.9 25.5 3.9 25.5 3.9 C 25.7 3.9 25.8 3.8 25.8 3.8 C 26 3.8 26.1 3.9 26.1 4 C 26.1 4 26.1 4.1 26 4.1 C 26 4.1 25.9 4.2 25.8 4.2 C 25.8 4.2 25.7 4.2 25.6 4.2 C 25.6 4.2 25.5 4.2 25.5 4.2 C 25.2 4.2 25.1 4.3 25 4.3 C 25 4.3 25 4.3 25 4.3 C 25 4.3 25 4.3 25 4.3 C 25 4.3 24.9 4.4 24.9 4.5 C 24.9 4.7 24.9 4.8 24.9 4.8 C 24.9 4.8 24.9 4.9 25 4.9 C 25 4.9 25.1 4.8 25.3 4.8 C 25.5 4.8 25.7 4.8 25.7 4.8 C 25.8 4.7 25.9 4.7 26 4.7 C 26.1 4.7 26.1 4.8 26.1 4.9 C 26.1 4.9 26.1 5 26.1 5 C 26 5 25.9 5.1 25.7 5.1 C 25.6 5.1 25.4 5.1 25.2 5.1 C 25 5.2 24.9 5.2 24.7 5.2 C 24.7 5.2 24.6 5.2 24.6 5.1 C 24.5 5.1 24.5 5 24.5 5 C 24.5 5 24.5 4.9 24.5 4.9 C 24.5 4.9 24.5 4.9 24.5 4.8 C 24.6 4.7 24.6 4.5 24.7 4 C 24.7 3.6 24.7 3.4 24.7 3.3 C 24.7 3.3 24.7 3.3 24.7 3.3 C 24.7 3.3 24.7 3.3 24.7 3.3 C 24.7 3.2 24.7 3.2 24.7 3.2 C 24.7 3.2 24.7 3.1 24.7 3.1 C 24.7 3.1 24.7 3.1 24.7 3.1 C 24.8 3.1 24.8 3 24.9 3 C 24.9 3 24.9 3 25 3.1 C 25.1 3.1 25.3 3 25.8 3 C 25.9 2.9 26 2.9 26 2.9 C 26 2.9 26 2.9 26 2.9 C 26.2 2.9 26.3 3 26.3 3.1 C 26.3 3.1 26.3 3.2 26.3 3.2 C 26.2 3.2 26.2 3.2 26.2 3.3 Z M 26.7 3.3 C 26.7 3.3 26.66 3.28 26.7 3.3 C 26.6 3.2 26.6 3.2 26.6 3.2 C 26.6 3.1 26.6 3.1 26.7 3 C 26.7 3 26.8 3 26.8 3 C 26.8 3 26.9 3 26.9 3 C 26.9 3 26.9 3 26.9 3 C 27.2 3 27.4 2.9 27.5 2.9 C 27.8 2.9 27.9 3 28.1 3.1 C 28.2 3.2 28.2 3.3 28.2 3.5 C 28.2 3.6 28.2 3.8 28.1 3.9 C 27.9 4 27.8 4.1 27.6 4.2 C 27.9 4.5 28.2 4.7 28.4 4.8 C 28.4 4.8 28.4 4.9 28.4 4.9 C 28.4 5 28.4 5 28.4 5 C 28.3 5.1 28.3 5.1 28.3 5.1 C 28.2 5.1 28.1 5.1 28.1 5 C 28 5 27.9 4.9 27.8 4.8 C 27.6 4.7 27.5 4.6 27.5 4.6 C 27.3 4.5 27.2 4.4 27.1 4.3 C 27 4.3 27 4.3 27 4.1 C 27 4.1 27 4.1 27 4 C 27.1 4 27.1 4 27.2 4 C 27.2 4 27.2 4 27.3 4 C 27.3 4 27.3 4 27.3 4 C 27.4 4 27.5 3.9 27.6 3.8 C 27.8 3.7 27.9 3.6 27.9 3.5 C 27.9 3.4 27.9 3.3 27.8 3.3 C 27.7 3.2 27.6 3.2 27.5 3.2 C 27.4 3.2 27.3 3.2 27.2 3.2 C 27.1 3.3 27.1 3.3 27.1 3.3 C 27.1 3.3 27.1 3.3 27 3.3 C 27 3.3 27 3.4 27 3.6 C 26.9 3.8 26.9 4 26.9 4.2 C 26.9 4.4 26.8 4.6 26.8 4.7 C 26.8 4.7 26.9 4.8 26.9 4.8 C 26.9 4.9 26.9 4.9 26.9 5 C 26.9 5 26.9 5 26.8 5.1 C 26.8 5.1 26.7 5.1 26.7 5.1 C 26.5 5.1 26.5 5.1 26.5 4.9 C 26.5 4.7 26.5 4.5 26.5 4.2 C 26.6 4 26.6 3.7 26.6 3.5 C 26.7 3.5 26.7 3.4 26.7 3.4 C 26.66 3.41 26.7 3.3 26.7 3.3 Z M 29.8 4.8 C 29.8 4.8 29.8 4.7 29.8 4.6 C 29.9 4.2 29.9 3.9 30 3.5 C 30 3.4 30 3.4 30 3.3 C 30 3.3 30 3.3 30 3.3 C 29.9 3.3 29.8 3.2 29.8 3.2 C 29.8 3.1 29.8 3.1 29.9 3 C 29.9 3 30 3 30 3 C 30 3 30.2 3 30.2 3 C 30.3 3 30.4 3 30.6 3 C 30.7 2.9 30.8 2.9 30.9 2.9 C 31.2 2.9 31.4 3 31.6 3.2 C 31.7 3.3 31.8 3.5 31.8 3.8 C 31.8 4.1 31.7 4.3 31.4 4.5 C 31.2 4.8 30.9 4.9 30.5 5 C 30.4 5 30.3 5 30.3 5.1 C 30.2 5.1 30.2 5.1 30.1 5.1 C 30.1 5.2 30 5.2 29.9 5.2 C 29.9 5.2 29.9 5.2 29.8 5.1 C 29.8 5.1 29.8 5 29.8 5 C 29.8 5 29.8 5 29.8 4.9 C 29.8 4.9 29.8 4.8 29.8 4.8 Z M 30.2 4.7 C 30.2 4.7 30.2 4.7 30.2 4.8 C 30.3 4.8 30.4 4.7 30.6 4.7 C 30.9 4.6 31.1 4.5 31.2 4.3 C 31.4 4.1 31.5 4 31.5 3.8 C 31.5 3.6 31.4 3.5 31.3 3.4 C 31.2 3.3 31 3.2 30.9 3.2 C 30.7 3.2 30.6 3.2 30.4 3.3 C 30.4 3.3 30.4 3.3 30.4 3.3 C 30.2 3.9 30.2 4.4 30.2 4.7 C 30.2 4.7 30.2 4.7 30.2 4.7 Z M 32.6 3.6 C 32.6 3.7 32.5 3.8 32.5 3.8 C 32.5 3.9 32.5 3.9 32.5 4.1 C 32.5 4.3 32.5 4.4 32.5 4.5 C 32.5 4.6 32.5 4.7 32.5 4.9 C 32.5 5 32.5 5 32.4 5.1 C 32.4 5.1 32.3 5.1 32.3 5.1 C 32.2 5.1 32.2 5.1 32.1 5 C 32.1 5 32.1 4.9 32.1 4.7 C 32.1 4.6 32.1 4.4 32.2 4.1 C 32.2 4.1 32.2 3.5 32.2 3.5 C 32.3 3.4 32.3 3.3 32.3 3.3 C 32.3 3.1 32.3 3.1 32.3 3.1 C 32.3 3 32.4 3 32.4 3 C 32.5 3 32.5 2.9 32.5 2.9 C 32.6 2.9 32.6 3 32.6 3 C 32.7 3.1 32.7 3.1 32.7 3.2 C 32.7 3.2 32.6 3.6 32.6 3.6 Z M 35 3.1 C 35 3.1 34.9 3.2 34.9 3.2 C 34.9 3.2 34.9 3.2 34.9 3.2 C 34.9 3.3 34.8 3.3 34.8 3.3 C 34.8 3.3 34.7 3.4 34.6 3.5 C 34.5 3.7 34.3 3.9 34.2 4 C 34.1 4.1 33.9 4.3 33.6 4.6 C 33.6 4.6 33.4 4.7 33.4 4.7 C 33.5 4.7 33.6 4.7 33.8 4.7 C 34 4.7 34.1 4.7 34.1 4.7 C 34.2 4.7 34.3 4.7 34.3 4.7 C 34.4 4.7 34.4 4.7 34.4 4.7 C 34.7 4.7 34.9 4.7 34.9 4.9 C 34.9 4.9 34.8 5 34.8 5 C 34.8 5 34.7 5 34.7 5 C 34.7 5 34.6 5 34.6 5 C 34.5 5 34.4 5 34.2 5 C 34.2 5 34 5 33.8 5 C 33.8 5 33.8 5 33.8 5 C 33.6 5 33.4 5 33.3 5 C 33.3 5.1 33.2 5.1 33.1 5.1 C 33 5.1 32.9 5.1 32.9 5.1 C 32.8 5.1 32.8 5.1 32.8 5 C 32.8 4.9 32.8 4.9 32.9 4.8 C 33 4.7 33.2 4.6 33.4 4.4 C 33.6 4.2 33.8 4 34 3.8 C 34 3.8 34 3.7 34.1 3.7 C 34.2 3.5 34.3 3.4 34.4 3.3 C 34.4 3.3 34.2 3.3 33.9 3.4 C 33.7 3.4 33.5 3.4 33.4 3.4 C 33.3 3.4 33.3 3.4 33.2 3.4 C 33.1 3.3 33 3.3 33 3.2 C 33 3.2 33.1 3.1 33.1 3.1 C 33.1 3 33.2 3 33.2 3 C 33.2 3 33.2 3 33.3 3 C 33.3 3.1 33.3 3.1 33.3 3.1 C 33.3 3.1 33.6 3.1 33.6 3.1 C 33.7 3.1 33.8 3.1 33.9 3.1 C 33.9 3 34 3 34.2 3 C 34.3 3 34.4 3 34.5 3 C 34.7 3 34.8 3 34.8 3 C 34.9 3 35 3 35 3.1 C 35 3.1 35 3.1 35 3.1 Z M 36.9 3.3 C 36.9 3.3 36.4 3.3 36.4 3.3 C 36.3 3.3 36.2 3.3 36 3.3 C 35.9 3.3 35.9 3.4 35.9 3.4 C 35.9 3.4 35.8 3.4 35.8 3.5 C 35.8 3.5 35.8 3.6 35.8 3.7 C 35.8 3.8 35.7 3.9 35.7 3.9 C 35.8 3.9 35.9 3.9 36 3.9 C 36.1 3.9 36.2 3.9 36.3 3.9 C 36.4 3.9 36.5 3.8 36.6 3.8 C 36.7 3.8 36.8 3.9 36.8 4 C 36.8 4 36.8 4.1 36.8 4.1 C 36.7 4.1 36.6 4.2 36.6 4.2 C 36.5 4.2 36.4 4.2 36.4 4.2 C 36.3 4.2 36.3 4.2 36.2 4.2 C 36 4.2 35.8 4.3 35.7 4.3 C 35.7 4.3 35.7 4.3 35.7 4.3 C 35.7 4.3 35.7 4.3 35.7 4.3 C 35.7 4.3 35.7 4.4 35.7 4.5 C 35.6 4.7 35.6 4.8 35.6 4.8 C 35.6 4.8 35.7 4.9 35.7 4.9 C 35.7 4.9 35.9 4.8 36.1 4.8 C 36.3 4.8 36.4 4.8 36.4 4.8 C 36.6 4.7 36.7 4.7 36.7 4.7 C 36.8 4.7 36.9 4.8 36.9 4.9 C 36.9 4.9 36.9 5 36.8 5 C 36.7 5 36.6 5.1 36.4 5.1 C 36.3 5.1 36.1 5.1 36 5.1 C 35.8 5.2 35.6 5.2 35.5 5.2 C 35.4 5.2 35.3 5.2 35.3 5.1 C 35.3 5.1 35.2 5 35.2 5 C 35.2 5 35.2 4.9 35.2 4.9 C 35.2 4.9 35.2 4.9 35.3 4.8 C 35.3 4.7 35.3 4.5 35.4 4 C 35.5 3.6 35.5 3.4 35.5 3.3 C 35.5 3.3 35.5 3.3 35.5 3.3 C 35.5 3.3 35.5 3.3 35.4 3.3 C 35.4 3.2 35.4 3.2 35.4 3.2 C 35.4 3.2 35.4 3.1 35.4 3.1 C 35.4 3.1 35.4 3.1 35.5 3.1 C 35.5 3.1 35.6 3 35.6 3 C 35.6 3 35.7 3 35.7 3.1 C 35.8 3.1 36.1 3 36.5 3 C 36.7 2.9 36.7 2.9 36.8 2.9 C 36.8 2.9 36.8 2.9 36.8 2.9 C 37 2.9 37 3 37 3.1 C 37 3.1 37 3.2 37 3.2 C 37 3.2 36.9 3.2 36.9 3.3 Z M 37.4 3.3 C 37.4 3.3 37.4 3.28 37.4 3.3 C 37.4 3.2 37.4 3.2 37.4 3.2 C 37.4 3.1 37.4 3.1 37.4 3 C 37.5 3 37.5 3 37.6 3 C 37.6 3 37.6 3 37.6 3 C 37.7 3 37.7 3 37.7 3 C 38 3 38.2 2.9 38.3 2.9 C 38.5 2.9 38.7 3 38.8 3.1 C 38.9 3.2 39 3.3 39 3.5 C 39 3.6 38.9 3.8 38.8 3.9 C 38.7 4 38.5 4.1 38.3 4.2 C 38.6 4.5 38.9 4.7 39.1 4.8 C 39.2 4.8 39.2 4.9 39.2 4.9 C 39.2 5 39.2 5 39.1 5 C 39.1 5.1 39 5.1 39 5.1 C 38.9 5.1 38.9 5.1 38.8 5 C 38.7 5 38.6 4.9 38.5 4.8 C 38.4 4.7 38.3 4.6 38.3 4.6 C 38.1 4.5 37.9 4.4 37.9 4.3 C 37.8 4.3 37.7 4.3 37.7 4.1 C 37.7 4.1 37.7 4.1 37.8 4 C 37.8 4 37.9 4 37.9 4 C 38 4 38 4 38 4 C 38 4 38 4 38 4 C 38.1 4 38.2 3.9 38.4 3.8 C 38.5 3.7 38.6 3.6 38.6 3.5 C 38.6 3.4 38.6 3.3 38.5 3.3 C 38.5 3.2 38.4 3.2 38.3 3.2 C 38.1 3.2 38 3.2 37.9 3.2 C 37.9 3.3 37.8 3.3 37.8 3.3 C 37.8 3.3 37.8 3.3 37.8 3.3 C 37.8 3.3 37.8 3.4 37.7 3.6 C 37.7 3.8 37.7 4 37.6 4.2 C 37.6 4.4 37.6 4.6 37.6 4.7 C 37.6 4.7 37.6 4.8 37.6 4.8 C 37.6 4.9 37.6 4.9 37.6 5 C 37.6 5 37.6 5 37.6 5.1 C 37.5 5.1 37.5 5.1 37.4 5.1 C 37.3 5.1 37.2 5.1 37.2 4.9 C 37.2 4.7 37.2 4.5 37.3 4.2 C 37.3 4 37.3 3.7 37.4 3.5 C 37.4 3.5 37.4 3.4 37.4 3.4 C 37.4 3.41 37.4 3.3 37.4 3.3 Z M 42.1 3.2 C 42.3 3.3 42.4 3.4 42.4 3.5 C 42.5 3.7 42.5 3.8 42.5 4 C 42.5 4.1 42.5 4.3 42.4 4.4 C 42.3 4.6 42.2 4.7 42 4.9 C 42.2 5.1 42.3 5.2 42.3 5.3 C 42.4 5.3 42.4 5.4 42.4 5.4 C 42.4 5.4 42.3 5.4 42.3 5.5 C 42.2 5.5 42.2 5.6 42.2 5.6 C 42.1 5.6 42.1 5.5 42 5.5 C 42 5.4 41.9 5.3 41.8 5.2 C 41.7 5.1 41.7 5 41.7 5 C 41.7 5 41.7 5 41.6 5 C 41.5 5.1 41.3 5.1 41.2 5.1 C 41 5.1 40.8 5 40.6 4.9 C 40.5 4.8 40.4 4.7 40.4 4.5 C 40.4 4.2 40.5 4 40.6 3.8 C 40.8 3.5 41 3.3 41.2 3.1 C 41.5 3 41.7 2.9 41.9 2.9 C 41.9 2.9 42 2.9 42 3 C 42.1 3 42.1 3.1 42.1 3.2 Z M 41.2 4.8 C 41.2 4.8 41.3 4.8 41.5 4.8 C 41.4 4.7 41.4 4.7 41.4 4.7 C 41.3 4.6 41.3 4.5 41.3 4.5 C 41.3 4.5 41.3 4.5 41.4 4.4 C 41.4 4.4 41.5 4.3 41.6 4.3 C 41.6 4.3 41.6 4.4 41.7 4.4 C 41.7 4.5 41.7 4.5 41.7 4.6 C 41.8 4.6 41.8 4.6 41.8 4.6 C 41.9 4.6 42 4.6 42.1 4.4 C 42.2 4.3 42.2 4.1 42.2 4 C 42.2 3.8 42.1 3.6 42 3.5 C 41.9 3.3 41.8 3.2 41.7 3.2 C 41.6 3.2 41.5 3.3 41.3 3.4 C 41.2 3.6 41 3.7 40.9 3.9 C 40.8 4.1 40.8 4.3 40.8 4.4 C 40.8 4.6 40.8 4.6 40.9 4.7 C 41 4.8 41 4.8 41.2 4.8 C 41.2 4.8 41.2 4.8 41.2 4.8 Z M 43.7 5.2 C 43.6 5.2 43.5 5.1 43.3 5.1 C 43.2 5 43.1 4.9 43 4.7 C 42.9 4.6 42.9 4.4 42.9 4.2 C 42.9 4.1 42.9 4 42.9 3.9 C 42.9 3.9 43 3.6 43 3.6 C 43 3.5 43 3.5 43 3.5 C 43 3.4 43 3.3 43 3.3 C 43 3.2 43.1 3.1 43.1 3 C 43.1 3 43.2 2.9 43.2 2.9 C 43.3 2.9 43.3 3 43.4 3 C 43.4 3.1 43.4 3.1 43.4 3.2 C 43.4 3.2 43.4 3.3 43.3 3.5 C 43.3 3.5 43.3 3.6 43.3 3.8 C 43.3 4 43.2 4.1 43.2 4.2 C 43.2 4.5 43.3 4.6 43.4 4.7 C 43.5 4.8 43.6 4.9 43.7 4.9 C 43.9 4.9 44.1 4.8 44.2 4.7 C 44.3 4.6 44.3 4.4 44.4 4.2 C 44.4 4.1 44.4 4.1 44.4 4 C 44.4 3.9 44.4 3.9 44.4 3.8 C 44.4 3.4 44.5 3.2 44.5 3.1 C 44.6 3 44.6 3 44.7 3 C 44.8 3 44.9 3.1 44.9 3.2 C 44.9 3.3 44.8 3.4 44.8 3.6 C 44.8 3.7 44.8 3.9 44.8 4 C 44.7 4.3 44.7 4.5 44.6 4.6 C 44.6 4.8 44.5 4.9 44.3 5 C 44.1 5.1 43.9 5.2 43.7 5.2 Z M 46.8 3.3 C 46.8 3.3 46.3 3.3 46.3 3.3 C 46.2 3.3 46 3.3 45.9 3.3 C 45.8 3.3 45.7 3.4 45.7 3.4 C 45.7 3.4 45.7 3.4 45.7 3.5 C 45.7 3.5 45.7 3.6 45.7 3.7 C 45.6 3.8 45.6 3.9 45.6 3.9 C 45.7 3.9 45.8 3.9 45.9 3.9 C 46 3.9 46.1 3.9 46.1 3.9 C 46.3 3.9 46.4 3.8 46.5 3.8 C 46.6 3.8 46.7 3.9 46.7 4 C 46.7 4 46.7 4.1 46.6 4.1 C 46.6 4.1 46.5 4.2 46.4 4.2 C 46.4 4.2 46.3 4.2 46.2 4.2 C 46.2 4.2 46.1 4.2 46.1 4.2 C 45.8 4.2 45.7 4.3 45.6 4.3 C 45.6 4.3 45.6 4.3 45.6 4.3 C 45.6 4.3 45.6 4.3 45.6 4.3 C 45.6 4.3 45.6 4.4 45.5 4.5 C 45.5 4.7 45.5 4.8 45.5 4.8 C 45.5 4.8 45.5 4.9 45.6 4.9 C 45.6 4.9 45.7 4.8 45.9 4.8 C 46.1 4.8 46.3 4.8 46.3 4.8 C 46.4 4.7 46.5 4.7 46.6 4.7 C 46.7 4.7 46.8 4.8 46.8 4.9 C 46.8 4.9 46.7 5 46.7 5 C 46.6 5 46.5 5.1 46.3 5.1 C 46.2 5.1 46 5.1 45.8 5.1 C 45.6 5.2 45.5 5.2 45.3 5.2 C 45.3 5.2 45.2 5.2 45.2 5.1 C 45.1 5.1 45.1 5 45.1 5 C 45.1 5 45.1 4.9 45.1 4.9 C 45.1 4.9 45.1 4.9 45.1 4.8 C 45.2 4.7 45.2 4.5 45.3 4 C 45.3 3.6 45.4 3.4 45.4 3.3 C 45.4 3.3 45.3 3.3 45.3 3.3 C 45.3 3.3 45.3 3.3 45.3 3.3 C 45.3 3.2 45.3 3.2 45.3 3.2 C 45.3 3.2 45.3 3.1 45.3 3.1 C 45.3 3.1 45.3 3.1 45.4 3.1 C 45.4 3.1 45.4 3 45.5 3 C 45.5 3 45.6 3 45.6 3.1 C 45.7 3.1 45.9 3 46.4 3 C 46.5 2.9 46.6 2.9 46.6 2.9 C 46.6 2.9 46.6 2.9 46.6 2.9 C 46.8 2.9 46.9 3 46.9 3.1 C 46.9 3.1 46.9 3.2 46.9 3.2 C 46.8 3.2 46.8 3.2 46.8 3.3 Z M 49.5 4.7 C 49.6 4.6 49.7 4.6 49.7 4.6 C 49.8 4.6 49.8 4.6 49.8 4.7 C 49.8 4.8 49.7 4.9 49.5 5 C 49.3 5.1 49.1 5.2 48.9 5.2 C 48.7 5.2 48.5 5.1 48.4 5 C 48.2 4.9 48.2 4.7 48.2 4.5 C 48.2 4.3 48.2 4 48.4 3.8 C 48.6 3.5 48.8 3.3 49 3.1 C 49.2 2.9 49.4 2.8 49.7 2.8 C 49.8 2.8 49.9 2.9 50 2.9 C 50.1 3 50.1 3.1 50.1 3.2 C 50.1 3.3 50.1 3.4 50.1 3.5 C 50 3.5 50 3.6 50 3.6 C 49.9 3.6 49.8 3.6 49.8 3.6 C 49.8 3.6 49.7 3.6 49.7 3.6 C 49.7 3.6 49.7 3.5 49.7 3.5 C 49.7 3.5 49.7 3.4 49.7 3.4 C 49.7 3.3 49.7 3.3 49.7 3.2 C 49.7 3.1 49.7 3.1 49.7 3.1 C 49.5 3.1 49.4 3.2 49.2 3.3 C 49 3.5 48.9 3.7 48.7 3.9 C 48.6 4.1 48.5 4.3 48.5 4.5 C 48.5 4.6 48.6 4.7 48.6 4.8 C 48.7 4.9 48.8 4.9 48.9 4.9 C 49 4.9 49.1 4.9 49.2 4.8 C 49.3 4.8 49.4 4.7 49.5 4.7 C 49.5 4.7 49.5 4.7 49.5 4.7 Z M 50.8 5.2 C 50.7 5.2 50.5 5.1 50.4 4.9 C 50.3 4.8 50.2 4.6 50.2 4.4 C 50.2 4.2 50.3 4 50.4 3.8 C 50.5 3.5 50.7 3.3 50.9 3.2 C 51 3 51.3 2.9 51.5 2.9 C 51.6 2.9 51.8 3 51.9 3 C 52 3 52.1 3.1 52.2 3.2 C 52.2 3.2 52.3 3.3 52.3 3.4 C 52.4 3.5 52.4 3.6 52.4 3.7 C 52.4 3.9 52.3 4 52.3 4.2 C 52.2 4.4 52.1 4.5 51.9 4.7 C 51.8 4.8 51.6 5 51.5 5 C 51.3 5.1 51.1 5.2 50.8 5.2 Z M 50.6 4.4 C 50.6 4.6 50.6 4.7 50.7 4.7 C 50.7 4.8 50.8 4.9 50.9 4.9 C 51.2 4.9 51.4 4.7 51.7 4.5 C 51.9 4.2 52 4 52 3.7 C 52 3.6 52 3.5 51.9 3.4 C 51.9 3.4 51.8 3.3 51.8 3.3 C 51.7 3.2 51.6 3.2 51.5 3.2 C 51.3 3.2 51.1 3.4 50.9 3.6 C 50.7 3.9 50.6 4.2 50.6 4.4 Z M 54.7 3.6 C 54.7 3.5 54.7 3.5 54.7 3.5 C 54.7 3.5 54.2 4.1 54.2 4.1 C 54 4.4 53.8 4.6 53.7 4.6 C 53.6 4.6 53.6 4.6 53.5 4.5 C 53.5 4.4 53.4 4.3 53.4 4.2 C 53.3 4.1 53.3 4 53.3 3.9 C 53.2 3.7 53.2 3.6 53.2 3.6 C 53.2 3.6 53.1 4 53.1 4 C 53.1 4.1 53.1 4.2 53 4.3 C 53 4.5 53 4.6 53 4.7 C 52.9 4.9 52.9 5 52.9 5 C 52.9 5.1 52.9 5.1 52.8 5.1 C 52.8 5.2 52.8 5.2 52.7 5.2 C 52.7 5.2 52.7 5.1 52.6 5.1 C 52.6 5.1 52.6 5 52.6 5 C 52.6 4.9 52.6 4.8 52.6 4.6 C 52.8 4 52.9 3.7 52.9 3.5 C 52.9 3.3 52.9 3.2 52.9 3.1 C 52.9 3.1 52.9 3 53 3 C 53 3 53.1 3 53.2 3 C 53.2 3 53.2 3 53.3 3 C 53.3 3.1 53.4 3.1 53.4 3.2 C 53.37 3.18 53.4 3.2 53.4 3.2 C 53.4 3.2 53.57 3.75 53.6 3.7 C 53.7 4 53.7 4.1 53.7 4.2 C 53.8 4.1 54 3.9 54.2 3.6 C 54.4 3.3 54.5 3.1 54.6 3 C 54.7 3 54.8 2.9 54.8 2.9 C 54.8 2.9 54.9 2.9 54.9 3 C 55 3 55 3.1 55 3.1 C 55 3.1 55 3.3 55 3.5 C 55 3.7 54.9 3.9 54.9 4.2 C 54.9 4.4 54.9 4.5 54.9 4.6 C 54.9 4.6 54.9 4.7 54.9 4.8 C 54.9 4.8 54.9 4.8 54.9 4.9 C 54.9 5 54.9 5 54.9 5.1 C 54.8 5.1 54.8 5.1 54.7 5.1 C 54.6 5.1 54.5 5 54.5 4.8 C 54.5 4.7 54.5 4.4 54.6 4.2 C 54.6 3.9 54.6 3.7 54.7 3.6 C 54.7 3.6 54.7 3.6 54.7 3.6 Z " stroke="none" fill="#000"/>  </g></svg>