<?xml version="1.0" standalone="no"?><!DOCTYPE svg PUBLIC "-//W3C//DTD SVG 1.1//EN" "http://www.w3.org/Graphics/SVG/1.1/DTD/svg11.dtd"><svg xmlns="http://www.w3.org/2000/svg" version="1.1" width="106px" height="15.2px" viewBox="0 -1 106 15.2" style="top:-1px">  <desc>DE VOLTA PARA CASA, FRANCISCO DEU CARONA PARA A ADRIANA E JAQUELINE...</desc>  <defs/>  <g id="Polygon15492">    <path d="M 1.2 8.9 C 1 8.9 0.9 8.9 0.9 9 C 0.9 9.3 0.8 9.5 0.8 9.7 C 0.8 9.8 0.8 9.8 0.8 9.9 C 0.7 9.9 0.7 10 0.6 10 C 0.4 10 0.4 9.9 0.4 9.7 C 0.4 9.6 0.4 9.2 0.5 8.6 C 0.5 8.2 0.6 7.9 0.6 7.8 C 0.6 7.7 0.6 7.6 0.6 7.6 C 0.5 7.6 0.4 7.5 0.4 7.4 C 0.4 7.3 0.6 7.2 1 7.1 C 1.3 7 1.6 7 1.9 7 C 2.2 7 2.4 7 2.6 7.1 C 2.7 7.3 2.8 7.4 2.8 7.6 C 2.8 7.9 2.7 8.2 2.3 8.4 C 2 8.6 1.6 8.8 1.2 8.9 C 1.2 8.9 1.2 8.9 1.2 8.9 Z M 1.9 7.3 C 1.6 7.3 1.4 7.4 1.1 7.5 C 1.1 7.5 1 8.5 1 8.5 C 1.3 8.5 1.7 8.3 1.9 8.2 C 2.2 8 2.4 7.9 2.4 7.7 C 2.4 7.5 2.2 7.3 1.9 7.3 C 1.9 7.3 1.9 7.3 1.9 7.3 Z M 3.5 9.2 C 3.5 9.2 3.4 9.2 3.4 9.2 C 3.4 9.3 3.3 9.4 3.2 9.6 C 3.1 9.8 3 9.9 2.9 9.9 C 2.9 9.9 2.9 9.9 2.8 9.9 C 2.8 9.9 2.7 9.9 2.7 9.8 C 2.6 9.8 2.6 9.7 2.6 9.7 C 2.6 9.6 2.7 9.4 3.1 8.9 C 3.2 8.6 3.4 8.3 3.5 8 C 3.8 7.5 4 7.2 4.1 7.1 C 4.2 7 4.2 7 4.3 7 C 4.4 7 4.5 7 4.5 7.1 C 4.6 7.1 4.6 7.1 4.6 7.2 C 4.6 7.2 4.6 7.3 4.6 7.3 C 4.8 8 5 8.6 5.1 8.9 C 5.2 9.2 5.4 9.4 5.5 9.5 C 5.6 9.6 5.6 9.6 5.6 9.7 C 5.7 9.7 5.7 9.7 5.7 9.7 C 5.7 9.8 5.6 9.9 5.6 9.9 C 5.5 10 5.5 10 5.4 10 C 5.3 10 5.2 9.9 5.1 9.8 C 5 9.7 4.9 9.6 4.8 9.4 C 4.7 9.2 4.7 9 4.7 9 C 4.7 9 4.7 9 4.7 9 C 4.6 9 4.4 9 4.2 9.1 C 3.9 9.1 3.8 9.2 3.6 9.2 C 3.6 9.2 3.5 9.2 3.5 9.2 C 3.5 9.2 3.5 9.2 3.5 9.2 Z M 4.3 8.6 C 4.4 8.6 4.5 8.6 4.5 8.6 C 4.5 8.5 4.4 8.3 4.2 7.8 C 4.2 7.7 4.2 7.7 4.2 7.7 C 4.2 7.7 3.7 8.8 3.7 8.8 C 3.7 8.8 3.8 8.7 3.9 8.7 C 4 8.7 4.1 8.7 4.3 8.6 C 4.3 8.6 4.3 8.6 4.3 8.6 Z M 6.2 7.5 C 6.2 7.5 6.14 7.44 6.1 7.4 C 6.1 7.4 6.1 7.3 6.1 7.3 C 6.1 7.2 6.1 7.2 6.2 7.1 C 6.2 7.1 6.3 7.1 6.3 7.1 C 6.4 7.1 6.4 7.1 6.4 7.1 C 6.5 7.1 6.5 7.1 6.5 7.1 C 6.9 7 7.2 7 7.3 7 C 7.6 7 7.8 7.1 8 7.2 C 8.2 7.3 8.3 7.5 8.3 7.7 C 8.3 7.9 8.2 8.1 8 8.3 C 7.8 8.4 7.6 8.6 7.3 8.7 C 7.8 9.1 8.2 9.3 8.4 9.5 C 8.5 9.5 8.5 9.6 8.5 9.6 C 8.5 9.7 8.5 9.8 8.4 9.8 C 8.4 9.9 8.3 9.9 8.3 9.9 C 8.2 9.9 8.1 9.8 8 9.8 C 7.9 9.7 7.8 9.6 7.6 9.5 C 7.4 9.3 7.3 9.3 7.3 9.2 C 7 9 6.9 8.9 6.8 8.8 C 6.6 8.8 6.6 8.7 6.6 8.6 C 6.6 8.5 6.6 8.5 6.6 8.4 C 6.7 8.4 6.8 8.4 6.9 8.4 C 6.9 8.4 6.9 8.4 6.9 8.4 C 6.9 8.4 7 8.4 7 8.4 C 7.1 8.4 7.2 8.3 7.4 8.2 C 7.7 8 7.8 7.9 7.8 7.7 C 7.8 7.6 7.7 7.5 7.6 7.5 C 7.5 7.4 7.4 7.4 7.3 7.4 C 7.1 7.4 7 7.4 6.9 7.4 C 6.8 7.4 6.7 7.4 6.7 7.4 C 6.7 7.5 6.7 7.5 6.6 7.5 C 6.6 7.5 6.6 7.7 6.6 7.9 C 6.5 8.1 6.5 8.4 6.4 8.7 C 6.4 9 6.4 9.2 6.4 9.3 C 6.4 9.4 6.4 9.5 6.4 9.5 C 6.4 9.6 6.4 9.7 6.4 9.7 C 6.4 9.8 6.4 9.8 6.3 9.9 C 6.3 9.9 6.2 9.9 6.2 9.9 C 6 9.9 5.9 9.8 5.9 9.6 C 5.9 9.4 5.9 9.1 6 8.7 C 6 8.3 6.1 8 6.1 7.7 C 6.1 7.7 6.1 7.7 6.1 7.6 C 6.14 7.63 6.2 7.5 6.2 7.5 Z M 9.4 9.2 C 9.3 9.2 9.3 9.2 9.2 9.2 C 9.2 9.3 9.2 9.4 9 9.6 C 8.9 9.8 8.8 9.9 8.8 9.9 C 8.8 9.9 8.7 9.9 8.7 9.9 C 8.6 9.9 8.6 9.9 8.5 9.8 C 8.4 9.8 8.4 9.7 8.4 9.7 C 8.4 9.6 8.6 9.4 8.9 8.9 C 9.1 8.6 9.2 8.3 9.4 8 C 9.7 7.5 9.9 7.2 9.9 7.1 C 10 7 10.1 7 10.1 7 C 10.2 7 10.3 7 10.4 7.1 C 10.4 7.1 10.4 7.1 10.4 7.2 C 10.4 7.2 10.4 7.3 10.4 7.3 C 10.6 8 10.8 8.6 11 8.9 C 11.1 9.2 11.2 9.4 11.4 9.5 C 11.4 9.6 11.5 9.6 11.5 9.7 C 11.5 9.7 11.5 9.7 11.5 9.7 C 11.5 9.8 11.5 9.9 11.4 9.9 C 11.4 10 11.3 10 11.2 10 C 11.1 10 11 9.9 10.9 9.8 C 10.8 9.7 10.7 9.6 10.7 9.4 C 10.6 9.2 10.5 9 10.5 9 C 10.5 9 10.5 9 10.5 9 C 10.4 9 10.3 9 10 9.1 C 9.8 9.1 9.6 9.2 9.5 9.2 C 9.4 9.2 9.4 9.2 9.4 9.2 C 9.4 9.2 9.4 9.2 9.4 9.2 Z M 10.2 8.6 C 10.3 8.6 10.3 8.6 10.4 8.6 C 10.3 8.5 10.2 8.3 10.1 7.8 C 10.1 7.7 10.1 7.7 10.1 7.7 C 10.1 7.7 9.5 8.8 9.5 8.8 C 9.6 8.8 9.7 8.7 9.8 8.7 C 9.8 8.7 10 8.7 10.2 8.6 C 10.2 8.6 10.2 8.6 10.2 8.6 Z M 13.9 9.2 C 13.8 9.2 13.8 9.2 13.8 9.2 C 13.8 9.3 13.7 9.4 13.6 9.6 C 13.5 9.8 13.4 9.9 13.3 9.9 C 13.3 9.9 13.3 9.9 13.2 9.9 C 13.2 9.9 13.1 9.9 13.1 9.8 C 13 9.8 13 9.7 13 9.7 C 13 9.6 13.1 9.4 13.4 8.9 C 13.6 8.6 13.8 8.3 13.9 8 C 14.2 7.5 14.4 7.2 14.5 7.1 C 14.5 7 14.6 7 14.7 7 C 14.8 7 14.9 7 14.9 7.1 C 14.9 7.1 15 7.1 15 7.2 C 15 7.2 15 7.3 14.9 7.3 C 15.2 8 15.4 8.6 15.5 8.9 C 15.6 9.2 15.8 9.4 15.9 9.5 C 16 9.6 16 9.6 16 9.7 C 16 9.7 16.1 9.7 16.1 9.7 C 16.1 9.8 16 9.9 16 9.9 C 15.9 10 15.9 10 15.8 10 C 15.7 10 15.6 9.9 15.5 9.8 C 15.4 9.7 15.3 9.6 15.2 9.4 C 15.1 9.2 15.1 9 15.1 9 C 15.1 9 15.1 9 15.1 9 C 15 9 14.8 9 14.6 9.1 C 14.3 9.1 14.1 9.2 14 9.2 C 14 9.2 13.9 9.2 13.9 9.2 C 13.9 9.2 13.9 9.2 13.9 9.2 Z M 14.7 8.6 C 14.8 8.6 14.8 8.6 14.9 8.6 C 14.9 8.5 14.8 8.3 14.6 7.8 C 14.6 7.7 14.6 7.7 14.6 7.7 C 14.6 7.7 14 8.8 14 8.8 C 14.1 8.8 14.2 8.7 14.3 8.7 C 14.4 8.7 14.5 8.7 14.7 8.6 C 14.7 8.6 14.7 8.6 14.7 8.6 Z M 18.4 9.2 C 18.4 9.2 18.4 9.2 18.3 9.2 C 18.3 9.3 18.2 9.4 18.1 9.6 C 18 9.8 17.9 9.9 17.9 9.9 C 17.8 9.9 17.8 9.9 17.8 9.9 C 17.7 9.9 17.7 9.9 17.6 9.8 C 17.5 9.8 17.5 9.7 17.5 9.7 C 17.5 9.6 17.7 9.4 18 8.9 C 18.2 8.6 18.3 8.3 18.5 8 C 18.8 7.5 19 7.2 19 7.1 C 19.1 7 19.2 7 19.2 7 C 19.3 7 19.4 7 19.5 7.1 C 19.5 7.1 19.5 7.1 19.5 7.2 C 19.5 7.2 19.5 7.3 19.5 7.3 C 19.7 8 19.9 8.6 20 8.9 C 20.2 9.2 20.3 9.4 20.4 9.5 C 20.5 9.6 20.6 9.6 20.6 9.7 C 20.6 9.7 20.6 9.7 20.6 9.7 C 20.6 9.8 20.6 9.9 20.5 9.9 C 20.5 10 20.4 10 20.3 10 C 20.2 10 20.1 9.9 20 9.8 C 19.9 9.7 19.8 9.6 19.7 9.4 C 19.6 9.2 19.6 9 19.6 9 C 19.6 9 19.6 9 19.6 9 C 19.5 9 19.4 9 19.1 9.1 C 18.9 9.1 18.7 9.2 18.5 9.2 C 18.5 9.2 18.5 9.2 18.4 9.2 C 18.4 9.2 18.4 9.2 18.4 9.2 Z M 19.3 8.6 C 19.3 8.6 19.4 8.6 19.4 8.6 C 19.4 8.5 19.3 8.3 19.2 7.8 C 19.2 7.7 19.1 7.7 19.1 7.7 C 19.1 7.7 18.6 8.8 18.6 8.8 C 18.7 8.8 18.8 8.7 18.8 8.7 C 18.9 8.7 19 8.7 19.3 8.6 C 19.3 8.6 19.3 8.6 19.3 8.6 Z M 20.9 9.5 C 20.9 9.5 21 9.3 21 9.2 C 21 8.7 21 8.3 21.1 7.8 C 21.2 7.7 21.2 7.6 21.2 7.5 C 21.2 7.5 21.2 7.5 21.1 7.5 C 21 7.4 20.9 7.4 20.9 7.3 C 20.9 7.2 21 7.2 21 7.1 C 21.1 7.1 21.1 7 21.2 7 C 21.2 7 21.5 7 21.5 7 C 21.6 7 21.7 7 21.9 7 C 22.1 7 22.3 7 22.4 7 C 22.7 7 23 7.1 23.3 7.3 C 23.5 7.5 23.6 7.8 23.6 8.1 C 23.6 8.5 23.4 8.8 23.1 9.1 C 22.7 9.4 22.3 9.6 21.8 9.7 C 21.7 9.8 21.6 9.8 21.5 9.8 C 21.5 9.8 21.4 9.9 21.4 9.9 C 21.3 10 21.2 10 21.1 10 C 21 10 21 10 20.9 9.9 C 20.9 9.9 20.8 9.8 20.8 9.8 C 20.8 9.7 20.9 9.7 20.9 9.6 C 20.9 9.6 20.9 9.5 20.9 9.5 Z M 21.4 9.3 C 21.4 9.4 21.4 9.4 21.4 9.4 C 21.5 9.4 21.7 9.4 22 9.3 C 22.4 9.2 22.6 9 22.8 8.8 C 23 8.6 23.1 8.4 23.1 8.1 C 23.1 7.9 23.1 7.7 22.9 7.6 C 22.8 7.5 22.6 7.4 22.3 7.4 C 22.1 7.4 21.9 7.4 21.7 7.4 C 21.7 7.4 21.7 7.4 21.6 7.4 C 21.5 8.3 21.4 8.9 21.4 9.3 C 21.4 9.3 21.4 9.3 21.4 9.3 Z M 24.2 7.5 C 24.2 7.5 24.16 7.44 24.2 7.4 C 24.1 7.4 24.1 7.3 24.1 7.3 C 24.1 7.2 24.1 7.2 24.2 7.1 C 24.3 7.1 24.3 7.1 24.4 7.1 C 24.4 7.1 24.4 7.1 24.5 7.1 C 24.5 7.1 24.5 7.1 24.5 7.1 C 24.9 7 25.2 7 25.3 7 C 25.6 7 25.9 7.1 26 7.2 C 26.2 7.3 26.3 7.5 26.3 7.7 C 26.3 7.9 26.2 8.1 26 8.3 C 25.9 8.4 25.6 8.6 25.4 8.7 C 25.8 9.1 26.2 9.3 26.4 9.5 C 26.5 9.5 26.5 9.6 26.5 9.6 C 26.5 9.7 26.5 9.8 26.5 9.8 C 26.4 9.9 26.3 9.9 26.3 9.9 C 26.2 9.9 26.1 9.8 26 9.8 C 25.9 9.7 25.8 9.6 25.6 9.5 C 25.4 9.3 25.3 9.3 25.3 9.2 C 25.1 9 24.9 8.9 24.8 8.8 C 24.6 8.8 24.6 8.7 24.6 8.6 C 24.6 8.5 24.6 8.5 24.7 8.4 C 24.7 8.4 24.8 8.4 24.9 8.4 C 24.9 8.4 24.9 8.4 24.9 8.4 C 25 8.4 25 8.4 25 8.4 C 25.1 8.4 25.2 8.3 25.5 8.2 C 25.7 8 25.8 7.9 25.8 7.7 C 25.8 7.6 25.8 7.5 25.7 7.5 C 25.6 7.4 25.4 7.4 25.3 7.4 C 25.1 7.4 25 7.4 24.9 7.4 C 24.8 7.4 24.7 7.4 24.7 7.4 C 24.7 7.5 24.7 7.5 24.7 7.5 C 24.7 7.5 24.6 7.7 24.6 7.9 C 24.5 8.1 24.5 8.4 24.5 8.7 C 24.4 9 24.4 9.2 24.4 9.3 C 24.4 9.4 24.4 9.5 24.4 9.5 C 24.4 9.6 24.4 9.7 24.4 9.7 C 24.4 9.8 24.4 9.8 24.4 9.9 C 24.3 9.9 24.2 9.9 24.2 9.9 C 24 9.9 23.9 9.8 23.9 9.6 C 23.9 9.4 23.9 9.1 24 8.7 C 24 8.3 24.1 8 24.1 7.7 C 24.1 7.7 24.2 7.7 24.2 7.6 C 24.16 7.63 24.2 7.5 24.2 7.5 Z M 27.4 7.9 C 27.4 8 27.4 8.1 27.4 8.2 C 27.4 8.2 27.4 8.3 27.3 8.5 C 27.3 8.8 27.3 8.9 27.3 9 C 27.3 9.2 27.3 9.4 27.3 9.6 C 27.3 9.7 27.3 9.8 27.2 9.8 C 27.2 9.9 27.1 9.9 27 9.9 C 27 9.9 26.9 9.9 26.8 9.8 C 26.8 9.7 26.8 9.6 26.8 9.4 C 26.8 9.2 26.8 9 26.9 8.5 C 26.9 8.5 27 7.7 27 7.7 C 27 7.6 27 7.5 27 7.4 C 27.1 7.3 27.1 7.2 27.1 7.2 C 27.1 7.1 27.2 7.1 27.2 7 C 27.3 7 27.3 7 27.3 7 C 27.4 7 27.5 7 27.5 7.1 C 27.6 7.1 27.6 7.2 27.6 7.3 C 27.6 7.3 27.4 7.9 27.4 7.9 Z M 28.6 9.2 C 28.5 9.2 28.5 9.2 28.4 9.2 C 28.4 9.3 28.4 9.4 28.2 9.6 C 28.1 9.8 28 9.9 28 9.9 C 28 9.9 27.9 9.9 27.9 9.9 C 27.8 9.9 27.8 9.9 27.7 9.8 C 27.6 9.8 27.6 9.7 27.6 9.7 C 27.6 9.6 27.8 9.4 28.1 8.9 C 28.3 8.6 28.4 8.3 28.6 8 C 28.9 7.5 29.1 7.2 29.1 7.1 C 29.2 7 29.3 7 29.3 7 C 29.4 7 29.5 7 29.6 7.1 C 29.6 7.1 29.6 7.1 29.6 7.2 C 29.6 7.2 29.6 7.3 29.6 7.3 C 29.8 8 30 8.6 30.2 8.9 C 30.3 9.2 30.4 9.4 30.6 9.5 C 30.6 9.6 30.7 9.6 30.7 9.7 C 30.7 9.7 30.7 9.7 30.7 9.7 C 30.7 9.8 30.7 9.9 30.6 9.9 C 30.6 10 30.5 10 30.5 10 C 30.4 10 30.3 9.9 30.1 9.8 C 30 9.7 29.9 9.6 29.9 9.4 C 29.8 9.2 29.7 9 29.7 9 C 29.7 9 29.7 9 29.7 9 C 29.6 9 29.5 9 29.2 9.1 C 29 9.1 28.8 9.2 28.7 9.2 C 28.6 9.2 28.6 9.2 28.6 9.2 C 28.6 9.2 28.6 9.2 28.6 9.2 Z M 29.4 8.6 C 29.5 8.6 29.5 8.6 29.6 8.6 C 29.5 8.5 29.4 8.3 29.3 7.8 C 29.3 7.7 29.3 7.7 29.3 7.7 C 29.3 7.7 28.7 8.8 28.7 8.8 C 28.8 8.8 28.9 8.7 29 8.7 C 29 8.7 29.2 8.7 29.4 8.6 C 29.4 8.6 29.4 8.6 29.4 8.6 Z M 31 9.2 C 31 9.2 31.16 8.54 31.2 8.5 C 31.3 8 31.3 7.7 31.3 7.5 C 31.3 7.4 31.3 7.3 31.4 7.2 C 31.4 7.2 31.4 7.2 31.4 7.1 C 31.5 7.1 31.5 7.1 31.6 7.1 C 31.7 7.1 31.7 7.1 31.8 7.1 C 31.8 7.2 31.8 7.2 31.9 7.4 C 31.9 7.6 32.1 7.9 32.3 8.3 C 32.5 8.7 32.7 9 32.9 9.2 C 33 9 33 8.7 33.1 8.3 C 33.1 8.1 33.2 7.8 33.2 7.6 C 33.2 7.5 33.2 7.3 33.3 7.2 C 33.3 7.1 33.3 7 33.4 7 C 33.4 7 33.5 6.9 33.5 6.9 C 33.6 6.9 33.6 7 33.7 7 C 33.7 7.1 33.7 7.2 33.7 7.2 C 33.7 7.3 33.7 7.4 33.7 7.5 C 33.6 7.8 33.5 8.2 33.4 8.7 C 33.4 9.2 33.3 9.4 33.3 9.5 C 33.3 9.5 33.3 9.6 33.3 9.6 C 33.3 9.6 33.3 9.7 33.3 9.7 C 33.3 9.8 33.3 9.8 33.2 9.8 C 33.2 9.9 33.1 9.9 33 9.9 C 33 9.9 32.9 9.9 32.9 9.9 C 32.9 9.9 32.9 9.8 32.8 9.8 C 32.8 9.8 32.7 9.7 32.7 9.6 C 32.6 9.5 32.6 9.4 32.6 9.4 C 32.3 9 32 8.5 31.7 8 C 31.6 8.2 31.6 8.6 31.5 9.2 C 31.5 9.2 31.5 9.3 31.5 9.3 C 31.5 9.4 31.4 9.5 31.4 9.6 C 31.4 9.7 31.4 9.8 31.3 9.9 C 31.3 10 31.2 10 31.2 10 C 31.1 10 31 10 31 9.9 C 31 9.9 30.9 9.8 30.9 9.7 C 30.9 9.6 31 9.4 31 9.2 C 31.02 9.21 31 9.2 31 9.2 Z M 34.7 9.2 C 34.7 9.2 34.6 9.2 34.6 9.2 C 34.6 9.3 34.5 9.4 34.4 9.6 C 34.3 9.8 34.2 9.9 34.2 9.9 C 34.1 9.9 34.1 9.9 34 9.9 C 34 9.9 33.9 9.9 33.9 9.8 C 33.8 9.8 33.8 9.7 33.8 9.7 C 33.8 9.6 33.9 9.4 34.3 8.9 C 34.5 8.6 34.6 8.3 34.8 8 C 35.1 7.5 35.2 7.2 35.3 7.1 C 35.4 7 35.4 7 35.5 7 C 35.6 7 35.7 7 35.7 7.1 C 35.8 7.1 35.8 7.1 35.8 7.2 C 35.8 7.2 35.8 7.3 35.8 7.3 C 36 8 36.2 8.6 36.3 8.9 C 36.5 9.2 36.6 9.4 36.7 9.5 C 36.8 9.6 36.8 9.6 36.9 9.7 C 36.9 9.7 36.9 9.7 36.9 9.7 C 36.9 9.8 36.9 9.9 36.8 9.9 C 36.7 10 36.7 10 36.6 10 C 36.5 10 36.4 9.9 36.3 9.8 C 36.2 9.7 36.1 9.6 36 9.4 C 35.9 9.2 35.9 9 35.9 9 C 35.9 9 35.9 9 35.9 9 C 35.8 9 35.7 9 35.4 9.1 C 35.2 9.1 35 9.2 34.8 9.2 C 34.8 9.2 34.8 9.2 34.7 9.2 C 34.7 9.2 34.7 9.2 34.7 9.2 Z M 35.6 8.6 C 35.6 8.6 35.7 8.6 35.7 8.6 C 35.7 8.5 35.6 8.3 35.5 7.8 C 35.4 7.7 35.4 7.7 35.4 7.7 C 35.4 7.7 34.9 8.8 34.9 8.8 C 35 8.8 35 8.7 35.1 8.7 C 35.2 8.7 35.3 8.7 35.6 8.6 C 35.6 8.6 35.6 8.6 35.6 8.6 Z M 40.9 7.4 C 40.9 7.4 40.3 7.5 40.3 7.5 C 40 7.5 39.9 7.5 39.7 7.5 C 39.6 7.5 39.5 7.6 39.5 7.6 C 39.5 7.6 39.4 7.6 39.4 7.7 C 39.4 7.7 39.4 7.9 39.4 8 C 39.3 8.2 39.3 8.3 39.3 8.3 C 39.4 8.3 39.5 8.3 39.7 8.3 C 39.8 8.3 39.9 8.3 40 8.3 C 40.2 8.2 40.3 8.2 40.4 8.2 C 40.6 8.2 40.8 8.3 40.8 8.4 C 40.8 8.5 40.7 8.5 40.7 8.6 C 40.6 8.6 40.5 8.6 40.4 8.6 C 40.3 8.6 40.2 8.7 40.1 8.7 C 40.1 8.7 40 8.7 40 8.7 C 39.6 8.7 39.4 8.8 39.3 8.8 C 39.3 8.8 39.3 8.8 39.3 8.8 C 39.3 8.8 39.3 8.8 39.3 8.8 C 39.3 8.9 39.2 9 39.2 9.1 C 39.2 9.3 39.2 9.4 39.2 9.5 C 39.2 9.5 39.2 9.6 39.3 9.6 C 39.3 9.6 39.5 9.5 39.7 9.5 C 40 9.5 40.2 9.4 40.2 9.4 C 40.4 9.4 40.5 9.4 40.6 9.4 C 40.8 9.4 40.8 9.5 40.8 9.6 C 40.8 9.7 40.8 9.7 40.8 9.7 C 40.7 9.8 40.5 9.8 40.2 9.9 C 40.1 9.9 39.8 9.9 39.6 9.9 C 39.4 10 39.2 10 39 10 C 38.8 10 38.8 10 38.7 9.9 C 38.7 9.9 38.6 9.8 38.6 9.7 C 38.6 9.7 38.6 9.6 38.6 9.6 C 38.6 9.6 38.6 9.6 38.7 9.5 C 38.7 9.4 38.8 9 38.9 8.5 C 38.9 7.9 39 7.6 39 7.5 C 39 7.5 39 7.5 39 7.5 C 38.9 7.5 38.9 7.5 38.9 7.4 C 38.9 7.4 38.9 7.4 38.9 7.3 C 38.9 7.3 38.9 7.3 38.9 7.3 C 38.9 7.2 38.9 7.2 39 7.2 C 39 7.2 39.1 7.1 39.1 7.1 C 39.2 7.1 39.2 7.1 39.3 7.1 C 39.4 7.1 39.8 7.1 40.4 7 C 40.6 7 40.7 7 40.7 7 C 40.7 7 40.7 7 40.7 7 C 40.9 7 41 7 41 7.2 C 41 7.2 41 7.3 41 7.3 C 40.9 7.4 40.9 7.4 40.9 7.4 Z M 44.5 6.9 C 44.5 6.9 44.6 6.9 44.6 7 C 44.7 7 44.7 7 44.7 7.1 C 44.7 7.4 44.7 7.8 44.6 8.3 C 44.5 8.8 44.4 9.2 44.2 9.5 C 44.1 9.7 43.8 9.9 43.5 9.9 C 43.3 9.9 43.1 9.8 42.8 9.6 C 42.6 9.5 42.5 9.3 42.5 9.2 C 42.5 9.1 42.5 9.1 42.5 9 C 42.6 9 42.7 9 42.7 9 C 42.8 9 42.9 9 42.9 9.1 C 43.2 9.3 43.4 9.4 43.5 9.4 C 43.7 9.4 43.8 9.3 43.9 9.2 C 44 9 44.1 8.7 44.1 8.3 C 44.2 7.9 44.2 7.5 44.2 7.1 C 44.2 7.1 44.2 7 44.3 7 C 44.4 6.9 44.4 6.9 44.5 6.9 Z M 45.7 9.2 C 45.6 9.2 45.6 9.2 45.6 9.2 C 45.5 9.3 45.5 9.4 45.4 9.6 C 45.2 9.8 45.2 9.9 45.1 9.9 C 45.1 9.9 45 9.9 45 9.9 C 44.9 9.9 44.9 9.9 44.8 9.8 C 44.8 9.8 44.7 9.7 44.7 9.7 C 44.7 9.6 44.9 9.4 45.2 8.9 C 45.4 8.6 45.6 8.3 45.7 8 C 46 7.5 46.2 7.2 46.2 7.1 C 46.3 7 46.4 7 46.5 7 C 46.6 7 46.6 7 46.7 7.1 C 46.7 7.1 46.7 7.1 46.7 7.2 C 46.7 7.2 46.7 7.3 46.7 7.3 C 47 8 47.1 8.6 47.3 8.9 C 47.4 9.2 47.5 9.4 47.7 9.5 C 47.7 9.6 47.8 9.6 47.8 9.7 C 47.8 9.7 47.8 9.7 47.8 9.7 C 47.8 9.8 47.8 9.9 47.7 9.9 C 47.7 10 47.6 10 47.6 10 C 47.5 10 47.4 9.9 47.3 9.8 C 47.2 9.7 47.1 9.6 47 9.4 C 46.9 9.2 46.8 9 46.8 9 C 46.8 9 46.8 9 46.8 9 C 46.8 9 46.6 9 46.4 9.1 C 46.1 9.1 45.9 9.2 45.8 9.2 C 45.7 9.2 45.7 9.2 45.7 9.2 C 45.7 9.2 45.7 9.2 45.7 9.2 Z M 46.5 8.6 C 46.6 8.6 46.6 8.6 46.7 8.6 C 46.6 8.5 46.6 8.3 46.4 7.8 C 46.4 7.7 46.4 7.7 46.4 7.7 C 46.4 7.7 45.8 8.8 45.8 8.8 C 45.9 8.8 46 8.7 46.1 8.7 C 46.1 8.7 46.3 8.7 46.5 8.6 C 46.5 8.6 46.5 8.6 46.5 8.6 Z M 50.3 7.3 C 50.4 7.4 50.6 7.6 50.7 7.8 C 50.8 8 50.8 8.2 50.8 8.4 C 50.8 8.6 50.7 8.8 50.6 9 C 50.5 9.2 50.3 9.4 50.1 9.6 C 50.3 9.8 50.5 10 50.5 10.1 C 50.6 10.2 50.6 10.2 50.6 10.2 C 50.6 10.3 50.5 10.3 50.5 10.4 C 50.4 10.5 50.3 10.5 50.3 10.5 C 50.2 10.5 50.2 10.4 50.1 10.4 C 50 10.3 50 10.1 49.9 10 C 49.7 9.8 49.7 9.8 49.7 9.8 C 49.7 9.8 49.6 9.8 49.6 9.8 C 49.4 9.8 49.2 9.9 49 9.9 C 48.7 9.9 48.5 9.8 48.3 9.6 C 48.1 9.5 48 9.3 48 9 C 48 8.7 48.1 8.4 48.3 8.1 C 48.5 7.8 48.7 7.5 49.1 7.2 C 49.4 7 49.7 6.9 49.9 6.9 C 50 6.9 50.1 6.9 50.1 7 C 50.2 7.1 50.3 7.2 50.3 7.3 Z M 49 9.5 C 49.1 9.5 49.2 9.5 49.4 9.4 C 49.3 9.4 49.3 9.4 49.3 9.3 C 49.2 9.2 49.1 9.1 49.1 9.1 C 49.1 9.1 49.2 9 49.2 9 C 49.3 8.9 49.4 8.9 49.5 8.9 C 49.6 8.9 49.6 8.9 49.6 9 C 49.7 9.1 49.7 9.1 49.7 9.2 C 49.8 9.2 49.8 9.2 49.8 9.2 C 49.9 9.2 50 9.1 50.2 9 C 50.3 8.8 50.4 8.6 50.4 8.4 C 50.4 8.2 50.3 7.9 50.1 7.7 C 49.9 7.5 49.8 7.4 49.7 7.4 C 49.6 7.4 49.4 7.5 49.2 7.6 C 49 7.8 48.8 8 48.7 8.3 C 48.5 8.6 48.5 8.8 48.5 9 C 48.5 9.1 48.5 9.3 48.6 9.3 C 48.7 9.4 48.8 9.5 49 9.5 C 49 9.5 49 9.5 49 9.5 Z M 52.3 10 C 52.2 10 52 9.9 51.8 9.8 C 51.7 9.8 51.5 9.6 51.4 9.4 C 51.3 9.2 51.3 9 51.3 8.7 C 51.3 8.6 51.3 8.4 51.3 8.2 C 51.3 8.2 51.4 7.9 51.4 7.9 C 51.4 7.8 51.4 7.7 51.4 7.7 C 51.4 7.6 51.4 7.5 51.4 7.4 C 51.5 7.3 51.5 7.2 51.5 7.1 C 51.6 7 51.7 7 51.8 7 C 51.8 7 51.8 7 51.9 7.1 C 51.9 7.2 52 7.2 52 7.3 C 52 7.3 51.9 7.4 51.9 7.7 C 51.9 7.8 51.8 7.9 51.8 8.2 C 51.8 8.4 51.7 8.6 51.7 8.7 C 51.7 9 51.8 9.3 52 9.4 C 52.1 9.5 52.2 9.5 52.3 9.5 C 52.7 9.5 52.9 9.5 53 9.3 C 53.1 9.2 53.2 9 53.2 8.6 C 53.3 8.6 53.3 8.5 53.3 8.5 C 53.3 8.3 53.3 8.2 53.3 8.1 C 53.3 7.6 53.4 7.3 53.4 7.2 C 53.5 7.1 53.6 7.1 53.7 7.1 C 53.8 7.1 53.9 7.1 53.9 7.3 C 53.9 7.4 53.9 7.6 53.8 7.9 C 53.8 8.1 53.8 8.2 53.8 8.4 C 53.7 8.8 53.7 9.1 53.6 9.3 C 53.5 9.5 53.4 9.6 53.1 9.8 C 52.9 9.9 52.6 10 52.3 10 Z M 56.4 7.4 C 56.4 7.4 55.8 7.5 55.8 7.5 C 55.6 7.5 55.5 7.5 55.3 7.5 C 55.2 7.5 55.1 7.6 55.1 7.6 C 55 7.6 55 7.6 55 7.7 C 55 7.7 55 7.9 55 8 C 54.9 8.2 54.9 8.3 54.9 8.3 C 55 8.3 55.1 8.3 55.3 8.3 C 55.4 8.3 55.5 8.3 55.6 8.3 C 55.8 8.2 55.9 8.2 56 8.2 C 56.2 8.2 56.3 8.3 56.3 8.4 C 56.3 8.5 56.3 8.5 56.3 8.6 C 56.2 8.6 56.1 8.6 56 8.6 C 55.9 8.6 55.8 8.7 55.7 8.7 C 55.7 8.7 55.6 8.7 55.5 8.7 C 55.2 8.7 55 8.8 54.9 8.8 C 54.9 8.8 54.9 8.8 54.9 8.8 C 54.9 8.8 54.9 8.8 54.9 8.8 C 54.8 8.9 54.8 9 54.8 9.1 C 54.8 9.3 54.7 9.4 54.7 9.5 C 54.8 9.5 54.8 9.6 54.8 9.6 C 54.9 9.6 55.1 9.5 55.3 9.5 C 55.6 9.5 55.8 9.4 55.8 9.4 C 56 9.4 56.1 9.4 56.2 9.4 C 56.3 9.4 56.4 9.5 56.4 9.6 C 56.4 9.7 56.4 9.7 56.4 9.7 C 56.2 9.8 56.1 9.8 55.8 9.9 C 55.6 9.9 55.4 9.9 55.2 9.9 C 55 10 54.7 10 54.5 10 C 54.4 10 54.4 10 54.3 9.9 C 54.3 9.9 54.2 9.8 54.2 9.7 C 54.2 9.7 54.2 9.6 54.2 9.6 C 54.2 9.6 54.2 9.6 54.3 9.5 C 54.3 9.4 54.4 9 54.4 8.5 C 54.5 7.9 54.6 7.6 54.6 7.5 C 54.6 7.5 54.6 7.5 54.5 7.5 C 54.5 7.5 54.5 7.5 54.5 7.4 C 54.5 7.4 54.5 7.4 54.5 7.3 C 54.5 7.3 54.5 7.3 54.5 7.3 C 54.5 7.2 54.5 7.2 54.6 7.2 C 54.6 7.2 54.7 7.1 54.7 7.1 C 54.8 7.1 54.8 7.1 54.9 7.1 C 55 7.1 55.3 7.1 55.9 7 C 56.1 7 56.2 7 56.3 7 C 56.3 7 56.3 7 56.3 7 C 56.5 7 56.6 7 56.6 7.2 C 56.6 7.2 56.6 7.3 56.6 7.3 C 56.5 7.4 56.5 7.4 56.4 7.4 Z M 58.8 9.7 C 58.7 9.7 58.7 9.7 58.6 9.7 C 58.5 9.7 58.5 9.7 58.4 9.7 C 58.1 9.7 57.7 9.8 57.4 9.9 C 57.3 9.9 57.2 10 57.1 10 C 57 10 57 9.9 56.9 9.9 C 56.9 9.8 56.8 9.7 56.8 9.7 C 56.8 9.7 56.9 9.6 56.9 9.5 C 56.9 9.4 56.9 9.2 57 9.1 C 57 9.1 57.1 7.5 57.1 7.5 C 57.1 7.3 57.2 7.2 57.2 7.2 C 57.2 7.1 57.2 7.1 57.2 7 C 57.3 7 57.4 7 57.4 7 C 57.5 7 57.6 7 57.6 7.1 C 57.6 7.1 57.7 7.2 57.7 7.2 C 57.7 7.3 57.7 7.4 57.6 7.5 C 57.6 7.7 57.6 8 57.5 8.5 C 57.4 9 57.4 9.3 57.4 9.4 C 57.4 9.4 57.4 9.4 57.4 9.4 C 57.5 9.4 57.6 9.4 57.8 9.4 C 57.9 9.3 58 9.3 58.1 9.3 C 58.4 9.3 58.7 9.3 58.8 9.3 C 58.8 9.2 58.9 9.2 58.9 9.2 C 58.9 9.2 59 9.3 59 9.3 C 59.1 9.3 59.1 9.4 59.1 9.5 C 59.1 9.5 59.1 9.6 59 9.7 C 58.9 9.7 58.8 9.7 58.8 9.7 Z M 60 7.9 C 60 8 59.9 8.1 59.9 8.2 C 59.9 8.2 59.9 8.3 59.9 8.5 C 59.9 8.8 59.8 8.9 59.8 9 C 59.8 9.2 59.8 9.4 59.9 9.6 C 59.9 9.7 59.9 9.8 59.8 9.8 C 59.7 9.9 59.7 9.9 59.6 9.9 C 59.5 9.9 59.4 9.9 59.4 9.8 C 59.4 9.7 59.3 9.6 59.3 9.4 C 59.3 9.2 59.4 9 59.4 8.5 C 59.4 8.5 59.5 7.7 59.5 7.7 C 59.6 7.6 59.6 7.5 59.6 7.4 C 59.6 7.3 59.6 7.2 59.6 7.2 C 59.7 7.1 59.7 7.1 59.8 7 C 59.8 7 59.9 7 59.9 7 C 60 7 60 7 60.1 7.1 C 60.1 7.1 60.1 7.2 60.1 7.3 C 60.1 7.3 60 7.9 60 7.9 Z M 60.5 9.2 C 60.5 9.2 60.69 8.54 60.7 8.5 C 60.8 8 60.9 7.7 60.9 7.5 C 60.9 7.4 60.9 7.3 60.9 7.2 C 60.9 7.2 60.9 7.2 61 7.1 C 61 7.1 61.1 7.1 61.1 7.1 C 61.2 7.1 61.2 7.1 61.3 7.1 C 61.3 7.2 61.4 7.2 61.4 7.4 C 61.5 7.6 61.6 7.9 61.8 8.3 C 62.1 8.7 62.3 9 62.5 9.2 C 62.5 9 62.6 8.7 62.6 8.3 C 62.7 8.1 62.7 7.8 62.7 7.6 C 62.8 7.5 62.8 7.3 62.8 7.2 C 62.8 7.1 62.8 7 62.9 7 C 62.9 7 63 6.9 63.1 6.9 C 63.1 6.9 63.2 7 63.2 7 C 63.3 7.1 63.3 7.2 63.3 7.2 C 63.3 7.3 63.3 7.4 63.2 7.5 C 63.1 7.8 63.1 8.2 63 8.7 C 62.9 9.2 62.9 9.4 62.9 9.5 C 62.9 9.5 62.9 9.6 62.9 9.6 C 62.9 9.6 62.8 9.7 62.8 9.7 C 62.8 9.8 62.8 9.8 62.7 9.8 C 62.7 9.9 62.6 9.9 62.5 9.9 C 62.5 9.9 62.5 9.9 62.4 9.9 C 62.4 9.9 62.4 9.8 62.4 9.8 C 62.3 9.8 62.3 9.7 62.2 9.6 C 62.2 9.5 62.1 9.4 62.1 9.4 C 61.8 9 61.5 8.5 61.2 8 C 61.2 8.2 61.1 8.6 61 9.2 C 61 9.2 61 9.3 61 9.3 C 61 9.4 61 9.5 61 9.6 C 61 9.7 60.9 9.8 60.9 9.9 C 60.8 10 60.8 10 60.7 10 C 60.6 10 60.6 10 60.5 9.9 C 60.5 9.9 60.5 9.8 60.5 9.7 C 60.5 9.6 60.5 9.4 60.5 9.2 C 60.55 9.21 60.5 9.2 60.5 9.2 Z M 65.8 7.4 C 65.8 7.4 65.2 7.5 65.2 7.5 C 65 7.5 64.9 7.5 64.7 7.5 C 64.6 7.5 64.5 7.6 64.5 7.6 C 64.4 7.6 64.4 7.6 64.4 7.7 C 64.4 7.7 64.4 7.9 64.4 8 C 64.3 8.2 64.3 8.3 64.3 8.3 C 64.4 8.3 64.5 8.3 64.7 8.3 C 64.8 8.3 64.9 8.3 65 8.3 C 65.2 8.2 65.3 8.2 65.4 8.2 C 65.6 8.2 65.7 8.3 65.7 8.4 C 65.7 8.5 65.7 8.5 65.7 8.6 C 65.6 8.6 65.5 8.6 65.4 8.6 C 65.3 8.6 65.2 8.7 65.1 8.7 C 65.1 8.7 65 8.7 64.9 8.7 C 64.6 8.7 64.4 8.8 64.3 8.8 C 64.3 8.8 64.3 8.8 64.3 8.8 C 64.3 8.8 64.3 8.8 64.3 8.8 C 64.2 8.9 64.2 9 64.2 9.1 C 64.2 9.3 64.2 9.4 64.2 9.5 C 64.2 9.5 64.2 9.6 64.2 9.6 C 64.3 9.6 64.5 9.5 64.7 9.5 C 65 9.5 65.2 9.4 65.2 9.4 C 65.4 9.4 65.5 9.4 65.6 9.4 C 65.7 9.4 65.8 9.5 65.8 9.6 C 65.8 9.7 65.8 9.7 65.8 9.7 C 65.6 9.8 65.5 9.8 65.2 9.9 C 65.1 9.9 64.8 9.9 64.6 9.9 C 64.4 10 64.1 10 63.9 10 C 63.8 10 63.8 10 63.7 9.9 C 63.7 9.9 63.6 9.8 63.6 9.7 C 63.6 9.7 63.6 9.6 63.6 9.6 C 63.6 9.6 63.6 9.6 63.7 9.5 C 63.7 9.4 63.8 9 63.8 8.5 C 63.9 7.9 64 7.6 64 7.5 C 64 7.5 64 7.5 63.9 7.5 C 63.9 7.5 63.9 7.5 63.9 7.4 C 63.9 7.4 63.9 7.4 63.9 7.3 C 63.9 7.3 63.9 7.3 63.9 7.3 C 63.9 7.2 63.9 7.2 64 7.2 C 64 7.2 64.1 7.1 64.1 7.1 C 64.2 7.1 64.2 7.1 64.3 7.1 C 64.4 7.1 64.7 7.1 65.3 7 C 65.5 7 65.6 7 65.7 7 C 65.7 7 65.7 7 65.7 7 C 65.9 7 66 7 66 7.2 C 66 7.2 66 7.3 66 7.3 C 65.9 7.4 65.9 7.4 65.8 7.4 Z M 66.4 9.8 C 66.3 9.8 66.3 9.8 66.2 9.7 C 66.2 9.7 66.2 9.6 66.2 9.5 C 66.2 9.4 66.2 9.4 66.2 9.3 C 66.2 9.3 66.2 9.3 66.3 9.2 C 66.3 9.2 66.4 9.2 66.5 9.2 C 66.6 9.2 66.7 9.2 66.7 9.3 C 66.8 9.3 66.8 9.3 66.8 9.4 C 66.8 9.5 66.8 9.5 66.7 9.6 C 66.7 9.6 66.7 9.6 66.6 9.7 C 66.5 9.8 66.5 9.8 66.4 9.8 Z M 67.3 9.8 C 67.3 9.8 67.2 9.8 67.2 9.7 C 67.1 9.7 67.1 9.6 67.1 9.5 C 67.1 9.4 67.1 9.4 67.1 9.3 C 67.1 9.3 67.1 9.3 67.2 9.2 C 67.3 9.2 67.3 9.2 67.4 9.2 C 67.5 9.2 67.6 9.2 67.6 9.3 C 67.7 9.3 67.7 9.3 67.7 9.4 C 67.7 9.5 67.7 9.5 67.7 9.6 C 67.6 9.6 67.6 9.6 67.5 9.7 C 67.4 9.8 67.4 9.8 67.3 9.8 Z M 68.2 9.8 C 68.2 9.8 68.1 9.8 68.1 9.7 C 68 9.7 68 9.6 68 9.5 C 68 9.4 68 9.4 68 9.3 C 68 9.3 68.1 9.3 68.1 9.2 C 68.2 9.2 68.3 9.2 68.4 9.2 C 68.4 9.2 68.5 9.2 68.5 9.3 C 68.6 9.3 68.6 9.3 68.6 9.4 C 68.6 9.5 68.6 9.5 68.6 9.6 C 68.6 9.6 68.5 9.6 68.4 9.7 C 68.4 9.8 68.3 9.8 68.2 9.8 Z " stroke="none" fill="#000"/>  </g>  <g id="Polygon15491">    <path d="M 0.4 4.5 C 0.4 4.5 0.4 4.3 0.4 4.2 C 0.4 3.7 0.5 3.3 0.6 2.8 C 0.6 2.7 0.6 2.6 0.6 2.5 C 0.6 2.5 0.6 2.5 0.6 2.5 C 0.4 2.4 0.4 2.4 0.4 2.3 C 0.4 2.2 0.4 2.2 0.5 2.1 C 0.5 2.1 0.6 2 0.6 2 C 0.6 2 0.9 2 0.9 2 C 1 2 1.2 2 1.4 2 C 1.6 2 1.7 2 1.8 2 C 2.2 2 2.5 2.1 2.7 2.3 C 2.9 2.5 3 2.8 3 3.1 C 3 3.5 2.9 3.8 2.5 4.1 C 2.2 4.4 1.8 4.6 1.3 4.7 C 1.1 4.8 1 4.8 1 4.8 C 0.9 4.8 0.9 4.9 0.8 4.9 C 0.7 5 0.6 5 0.5 5 C 0.5 5 0.4 5 0.4 4.9 C 0.3 4.9 0.3 4.8 0.3 4.8 C 0.3 4.7 0.3 4.7 0.3 4.6 C 0.3 4.6 0.4 4.5 0.4 4.5 Z M 0.9 4.3 C 0.9 4.4 0.9 4.4 0.9 4.4 C 1 4.4 1.2 4.4 1.5 4.3 C 1.8 4.2 2.1 4 2.3 3.8 C 2.5 3.6 2.6 3.4 2.6 3.1 C 2.6 2.9 2.5 2.7 2.4 2.6 C 2.2 2.5 2 2.4 1.8 2.4 C 1.6 2.4 1.4 2.4 1.2 2.4 C 1.1 2.4 1.1 2.4 1.1 2.4 C 0.9 3.3 0.9 3.9 0.9 4.3 C 0.9 4.3 0.9 4.3 0.9 4.3 Z M 5.6 2.4 C 5.6 2.4 5 2.5 5 2.5 C 4.8 2.5 4.6 2.5 4.4 2.5 C 4.3 2.5 4.2 2.6 4.2 2.6 C 4.2 2.6 4.2 2.6 4.2 2.7 C 4.2 2.7 4.1 2.9 4.1 3 C 4.1 3.2 4.1 3.3 4 3.3 C 4.1 3.3 4.2 3.3 4.4 3.3 C 4.6 3.3 4.7 3.3 4.7 3.3 C 4.9 3.2 5.1 3.2 5.2 3.2 C 5.4 3.2 5.5 3.3 5.5 3.4 C 5.5 3.5 5.5 3.5 5.4 3.6 C 5.3 3.6 5.2 3.6 5.1 3.6 C 5 3.6 5 3.7 4.9 3.7 C 4.8 3.7 4.8 3.7 4.7 3.7 C 4.3 3.7 4.1 3.8 4 3.8 C 4 3.8 4 3.8 4 3.8 C 4 3.8 4 3.8 4 3.8 C 4 3.9 4 4 3.9 4.1 C 3.9 4.3 3.9 4.4 3.9 4.5 C 3.9 4.5 3.9 4.6 4 4.6 C 4 4.6 4.2 4.5 4.5 4.5 C 4.7 4.5 4.9 4.4 5 4.4 C 5.1 4.4 5.3 4.4 5.3 4.4 C 5.5 4.4 5.6 4.5 5.6 4.6 C 5.6 4.7 5.5 4.7 5.5 4.7 C 5.4 4.8 5.2 4.8 5 4.9 C 4.8 4.9 4.6 4.9 4.3 4.9 C 4.1 5 3.9 5 3.7 5 C 3.6 5 3.5 5 3.5 4.9 C 3.4 4.9 3.4 4.8 3.4 4.7 C 3.4 4.7 3.4 4.6 3.4 4.6 C 3.4 4.6 3.4 4.6 3.4 4.5 C 3.4 4.4 3.5 4 3.6 3.5 C 3.7 2.9 3.7 2.6 3.7 2.5 C 3.7 2.5 3.7 2.5 3.7 2.5 C 3.7 2.5 3.7 2.5 3.6 2.4 C 3.6 2.4 3.6 2.4 3.6 2.3 C 3.6 2.3 3.6 2.3 3.6 2.3 C 3.6 2.2 3.7 2.2 3.7 2.2 C 3.8 2.2 3.8 2.1 3.8 2.1 C 3.9 2.1 4 2.1 4 2.1 C 4.1 2.1 4.5 2.1 5.1 2 C 5.3 2 5.4 2 5.4 2 C 5.4 2 5.4 2 5.4 2 C 5.7 2 5.8 2 5.8 2.2 C 5.8 2.2 5.8 2.3 5.7 2.3 C 5.7 2.4 5.6 2.4 5.6 2.4 Z M 10.4 2.1 C 10.4 2.2 10.4 2.2 10.4 2.2 C 10.4 2.2 10.4 2.2 10.3 2.4 C 10.1 2.6 10 2.8 9.9 2.9 C 9.8 3.1 9.7 3.3 9.4 3.8 C 9.3 4 9.2 4.2 9.1 4.2 C 9 4.4 8.9 4.5 8.9 4.6 C 8.9 4.7 8.8 4.8 8.8 4.8 C 8.7 4.8 8.6 4.9 8.5 4.9 C 8.5 4.9 8.4 4.8 8.4 4.8 C 8.4 4.7 8.3 4.6 8.2 4.4 C 8.2 4.2 8 3.9 7.9 3.5 C 7.6 2.8 7.5 2.4 7.5 2.4 C 7.5 2.3 7.5 2.2 7.5 2.2 C 7.6 2.1 7.6 2 7.7 2 C 7.8 2 7.8 2.1 7.9 2.1 C 7.9 2.2 8 2.3 8 2.5 C 8.1 2.7 8.1 2.9 8.3 3.3 C 8.5 3.7 8.6 4 8.7 4.2 C 8.7 4.2 8.7 4.1 8.8 4 C 8.8 4 8.8 3.9 8.8 3.9 C 9 3.6 9.2 3.4 9.3 3.2 C 9.5 2.7 9.7 2.4 9.8 2.2 C 10 2 10.1 1.9 10.2 1.9 C 10.4 1.9 10.4 2 10.4 2.1 C 10.42 2.13 10.4 2.1 10.4 2.1 C 10.4 2.1 10.42 2.15 10.4 2.1 Z M 11 5 C 10.8 5 10.6 4.9 10.5 4.7 C 10.3 4.4 10.2 4.2 10.2 4 C 10.2 3.7 10.3 3.4 10.4 3.1 C 10.6 2.8 10.8 2.5 11.1 2.3 C 11.3 2.1 11.6 2 11.9 2 C 12.1 2 12.3 2 12.4 2.1 C 12.6 2.1 12.7 2.2 12.8 2.3 C 12.9 2.4 13 2.5 13 2.6 C 13.1 2.7 13.1 2.9 13.1 3 C 13.1 3.2 13.1 3.4 12.9 3.6 C 12.8 3.9 12.7 4.1 12.5 4.3 C 12.3 4.5 12.1 4.7 11.9 4.8 C 11.7 4.9 11.4 5 11 5 Z M 10.7 4 C 10.7 4.1 10.7 4.3 10.8 4.4 C 10.9 4.5 11 4.5 11.2 4.5 C 11.5 4.5 11.8 4.4 12.1 4 C 12.5 3.7 12.6 3.4 12.6 3 C 12.6 2.8 12.6 2.7 12.5 2.7 C 12.5 2.6 12.4 2.5 12.3 2.5 C 12.1 2.4 12 2.4 11.9 2.4 C 11.6 2.4 11.4 2.6 11.1 2.9 C 10.8 3.3 10.7 3.6 10.7 4 Z M 15.3 4.7 C 15.3 4.7 15.2 4.7 15.1 4.7 C 15.1 4.7 15 4.7 15 4.7 C 14.6 4.7 14.3 4.8 13.9 4.9 C 13.8 4.9 13.7 5 13.6 5 C 13.5 5 13.5 4.9 13.4 4.9 C 13.4 4.8 13.4 4.7 13.4 4.7 C 13.4 4.7 13.4 4.6 13.4 4.5 C 13.4 4.4 13.5 4.2 13.5 4.1 C 13.5 4.1 13.7 2.5 13.7 2.5 C 13.7 2.3 13.7 2.2 13.7 2.2 C 13.7 2.1 13.7 2.1 13.8 2 C 13.8 2 13.9 2 14 2 C 14 2 14.1 2 14.1 2.1 C 14.2 2.1 14.2 2.2 14.2 2.2 C 14.2 2.3 14.2 2.4 14.2 2.5 C 14.1 2.7 14.1 3 14 3.5 C 14 4 13.9 4.3 13.9 4.4 C 13.9 4.4 13.9 4.4 14 4.4 C 14 4.4 14.1 4.4 14.4 4.4 C 14.5 4.3 14.6 4.3 14.7 4.3 C 15 4.3 15.2 4.3 15.3 4.3 C 15.4 4.2 15.4 4.2 15.4 4.2 C 15.5 4.2 15.5 4.3 15.6 4.3 C 15.6 4.3 15.6 4.4 15.6 4.5 C 15.6 4.5 15.6 4.6 15.5 4.7 C 15.5 4.7 15.4 4.7 15.3 4.7 Z M 17.8 2.5 C 17.5 2.5 17.3 2.5 17.2 2.5 C 17.1 2.5 17.1 2.6 17.1 2.6 C 17.1 2.7 17.1 2.9 17.1 3.3 C 17 3.7 17 4 17 4.2 C 17 4.3 17 4.5 17 4.6 C 17 4.6 17 4.6 17 4.6 C 17 4.7 17 4.8 17 4.8 C 16.9 4.9 16.9 4.9 16.8 4.9 C 16.8 4.9 16.7 4.9 16.6 4.8 C 16.6 4.8 16.5 4.7 16.5 4.6 C 16.5 4.5 16.5 4.4 16.5 4.2 C 16.5 4 16.5 3.7 16.6 3.2 C 16.6 2.8 16.7 2.6 16.7 2.6 C 16.6 2.6 16.5 2.6 16.2 2.6 C 16 2.6 15.8 2.6 15.8 2.6 C 15.7 2.6 15.6 2.6 15.5 2.6 C 15.5 2.5 15.4 2.5 15.4 2.4 C 15.4 2.3 15.5 2.3 15.5 2.3 C 15.6 2.2 15.7 2.2 15.9 2.2 C 16.3 2.2 16.7 2.2 17 2.1 C 17.5 2.1 17.8 2 18 2 C 18.2 2 18.3 2.1 18.4 2.1 C 18.4 2.2 18.5 2.2 18.5 2.3 C 18.5 2.4 18.4 2.5 18.3 2.5 C 18.3 2.5 18.2 2.5 18.1 2.5 C 18 2.5 18 2.5 17.8 2.5 C 17.8 2.5 17.8 2.5 17.8 2.5 Z M 18.8 4.2 C 18.7 4.2 18.7 4.2 18.6 4.2 C 18.6 4.3 18.5 4.4 18.4 4.6 C 18.3 4.8 18.2 4.9 18.2 4.9 C 18.1 4.9 18.1 4.9 18.1 4.9 C 18 4.9 18 4.9 17.9 4.8 C 17.8 4.8 17.8 4.7 17.8 4.7 C 17.8 4.6 18 4.4 18.3 3.9 C 18.5 3.6 18.6 3.3 18.8 3 C 19.1 2.5 19.3 2.2 19.3 2.1 C 19.4 2 19.5 2 19.5 2 C 19.6 2 19.7 2 19.8 2.1 C 19.8 2.1 19.8 2.1 19.8 2.2 C 19.8 2.2 19.8 2.3 19.8 2.3 C 20 3 20.2 3.6 20.4 3.9 C 20.5 4.2 20.6 4.4 20.8 4.5 C 20.8 4.6 20.9 4.6 20.9 4.7 C 20.9 4.7 20.9 4.7 20.9 4.7 C 20.9 4.8 20.9 4.9 20.8 4.9 C 20.8 5 20.7 5 20.6 5 C 20.5 5 20.4 4.9 20.3 4.8 C 20.2 4.7 20.1 4.6 20.1 4.4 C 20 4.2 19.9 4 19.9 4 C 19.9 4 19.9 4 19.9 4 C 19.8 4 19.7 4 19.4 4.1 C 19.2 4.1 19 4.2 18.9 4.2 C 18.8 4.2 18.8 4.2 18.8 4.2 C 18.8 4.2 18.8 4.2 18.8 4.2 Z M 19.6 3.6 C 19.6 3.6 19.7 3.6 19.8 3.6 C 19.7 3.5 19.6 3.3 19.5 2.8 C 19.5 2.7 19.5 2.7 19.5 2.7 C 19.5 2.7 18.9 3.8 18.9 3.8 C 19 3.8 19.1 3.7 19.1 3.7 C 19.2 3.7 19.4 3.7 19.6 3.6 C 19.6 3.6 19.6 3.6 19.6 3.6 Z M 23.6 3.9 C 23.4 3.9 23.3 3.9 23.3 4 C 23.2 4.3 23.2 4.5 23.2 4.7 C 23.2 4.8 23.2 4.8 23.2 4.9 C 23.1 4.9 23.1 5 23 5 C 22.8 5 22.8 4.9 22.8 4.7 C 22.8 4.6 22.8 4.2 22.9 3.6 C 22.9 3.2 23 2.9 23 2.8 C 23 2.7 23 2.6 22.9 2.6 C 22.9 2.6 22.8 2.5 22.8 2.4 C 22.8 2.3 23 2.2 23.3 2.1 C 23.7 2 24 2 24.3 2 C 24.5 2 24.8 2 25 2.1 C 25.1 2.3 25.2 2.4 25.2 2.6 C 25.2 2.9 25.1 3.2 24.7 3.4 C 24.4 3.6 24 3.8 23.6 3.9 C 23.6 3.9 23.6 3.9 23.6 3.9 Z M 24.2 2.3 C 24 2.3 23.7 2.4 23.5 2.5 C 23.5 2.5 23.3 3.5 23.3 3.5 C 23.7 3.5 24 3.3 24.3 3.2 C 24.6 3 24.8 2.9 24.8 2.7 C 24.8 2.5 24.6 2.3 24.2 2.3 C 24.2 2.3 24.2 2.3 24.2 2.3 Z M 25.9 4.2 C 25.8 4.2 25.8 4.2 25.8 4.2 C 25.8 4.3 25.7 4.4 25.6 4.6 C 25.5 4.8 25.4 4.9 25.3 4.9 C 25.3 4.9 25.3 4.9 25.2 4.9 C 25.2 4.9 25.1 4.9 25 4.8 C 25 4.8 25 4.7 25 4.7 C 25 4.6 25.1 4.4 25.4 3.9 C 25.6 3.6 25.8 3.3 25.9 3 C 26.2 2.5 26.4 2.2 26.5 2.1 C 26.5 2 26.6 2 26.7 2 C 26.8 2 26.9 2 26.9 2.1 C 26.9 2.1 27 2.1 27 2.2 C 27 2.2 26.9 2.3 26.9 2.3 C 27.2 3 27.4 3.6 27.5 3.9 C 27.6 4.2 27.8 4.4 27.9 4.5 C 28 4.6 28 4.6 28 4.7 C 28 4.7 28 4.7 28 4.7 C 28 4.8 28 4.9 28 4.9 C 27.9 5 27.9 5 27.8 5 C 27.7 5 27.6 4.9 27.5 4.8 C 27.4 4.7 27.3 4.6 27.2 4.4 C 27.1 4.2 27.1 4 27.1 4 C 27.1 4 27.1 4 27 4 C 27 4 26.8 4 26.6 4.1 C 26.3 4.1 26.1 4.2 26 4.2 C 26 4.2 25.9 4.2 25.9 4.2 C 25.9 4.2 25.9 4.2 25.9 4.2 Z M 26.7 3.6 C 26.8 3.6 26.8 3.6 26.9 3.6 C 26.9 3.5 26.8 3.3 26.6 2.8 C 26.6 2.7 26.6 2.7 26.6 2.7 C 26.6 2.7 26 3.8 26 3.8 C 26.1 3.8 26.2 3.7 26.3 3.7 C 26.3 3.7 26.5 3.7 26.7 3.6 C 26.7 3.6 26.7 3.6 26.7 3.6 Z M 28.6 2.5 C 28.6 2.5 28.53 2.44 28.5 2.4 C 28.5 2.4 28.5 2.3 28.5 2.3 C 28.5 2.2 28.5 2.2 28.6 2.1 C 28.6 2.1 28.7 2.1 28.7 2.1 C 28.8 2.1 28.8 2.1 28.8 2.1 C 28.9 2.1 28.9 2.1 28.9 2.1 C 29.3 2 29.5 2 29.7 2 C 30 2 30.2 2.1 30.4 2.2 C 30.6 2.3 30.6 2.5 30.6 2.7 C 30.6 2.9 30.6 3.1 30.4 3.3 C 30.2 3.4 30 3.6 29.7 3.7 C 30.2 4.1 30.5 4.3 30.8 4.5 C 30.9 4.5 30.9 4.6 30.9 4.6 C 30.9 4.7 30.9 4.8 30.8 4.8 C 30.8 4.9 30.7 4.9 30.6 4.9 C 30.6 4.9 30.5 4.8 30.4 4.8 C 30.3 4.7 30.2 4.6 30 4.5 C 29.8 4.3 29.7 4.3 29.7 4.2 C 29.4 4 29.3 3.9 29.1 3.8 C 29 3.8 28.9 3.7 28.9 3.6 C 28.9 3.5 29 3.5 29 3.4 C 29.1 3.4 29.2 3.4 29.2 3.4 C 29.3 3.4 29.3 3.4 29.3 3.4 C 29.3 3.4 29.4 3.4 29.4 3.4 C 29.4 3.4 29.6 3.3 29.8 3.2 C 30.1 3 30.2 2.9 30.2 2.7 C 30.2 2.6 30.1 2.5 30 2.5 C 29.9 2.4 29.8 2.4 29.7 2.4 C 29.5 2.4 29.3 2.4 29.2 2.4 C 29.1 2.4 29.1 2.4 29.1 2.4 C 29.1 2.5 29 2.5 29 2.5 C 29 2.5 29 2.7 28.9 2.9 C 28.9 3.1 28.9 3.4 28.8 3.7 C 28.8 4 28.8 4.2 28.8 4.3 C 28.8 4.4 28.8 4.5 28.8 4.5 C 28.8 4.6 28.8 4.7 28.8 4.7 C 28.8 4.8 28.8 4.8 28.7 4.9 C 28.7 4.9 28.6 4.9 28.5 4.9 C 28.4 4.9 28.3 4.8 28.3 4.6 C 28.3 4.4 28.3 4.1 28.3 3.7 C 28.4 3.3 28.4 3 28.5 2.7 C 28.5 2.7 28.5 2.7 28.5 2.6 C 28.52 2.63 28.6 2.5 28.6 2.5 Z M 31.7 4.2 C 31.7 4.2 31.7 4.2 31.6 4.2 C 31.6 4.3 31.5 4.4 31.4 4.6 C 31.3 4.8 31.2 4.9 31.2 4.9 C 31.1 4.9 31.1 4.9 31.1 4.9 C 31 4.9 31 4.9 30.9 4.8 C 30.8 4.8 30.8 4.7 30.8 4.7 C 30.8 4.6 31 4.4 31.3 3.9 C 31.5 3.6 31.6 3.3 31.8 3 C 32.1 2.5 32.3 2.2 32.3 2.1 C 32.4 2 32.5 2 32.5 2 C 32.6 2 32.7 2 32.8 2.1 C 32.8 2.1 32.8 2.1 32.8 2.2 C 32.8 2.2 32.8 2.3 32.8 2.3 C 33 3 33.2 3.6 33.3 3.9 C 33.5 4.2 33.6 4.4 33.8 4.5 C 33.8 4.6 33.9 4.6 33.9 4.7 C 33.9 4.7 33.9 4.7 33.9 4.7 C 33.9 4.8 33.9 4.9 33.8 4.9 C 33.8 5 33.7 5 33.6 5 C 33.5 5 33.4 4.9 33.3 4.8 C 33.2 4.7 33.1 4.6 33 4.4 C 33 4.2 32.9 4 32.9 4 C 32.9 4 32.9 4 32.9 4 C 32.8 4 32.7 4 32.4 4.1 C 32.2 4.1 32 4.2 31.8 4.2 C 31.8 4.2 31.8 4.2 31.7 4.2 C 31.7 4.2 31.7 4.2 31.7 4.2 Z M 32.6 3.6 C 32.6 3.6 32.7 3.6 32.8 3.6 C 32.7 3.5 32.6 3.3 32.5 2.8 C 32.5 2.7 32.4 2.7 32.4 2.7 C 32.4 2.7 31.9 3.8 31.9 3.8 C 32 3.8 32.1 3.7 32.1 3.7 C 32.2 3.7 32.3 3.7 32.6 3.6 C 32.6 3.6 32.6 3.6 32.6 3.6 Z M 37.4 4.3 C 37.5 4.2 37.6 4.2 37.6 4.2 C 37.7 4.2 37.8 4.2 37.8 4.3 C 37.8 4.4 37.6 4.6 37.4 4.7 C 37.1 4.9 36.8 5 36.5 5 C 36.3 5 36.1 4.9 35.9 4.8 C 35.7 4.6 35.6 4.4 35.6 4.1 C 35.6 3.8 35.7 3.5 35.9 3.1 C 36.1 2.7 36.4 2.4 36.7 2.2 C 37 2 37.3 1.8 37.6 1.8 C 37.7 1.8 37.9 1.9 38 2 C 38.1 2.1 38.1 2.2 38.1 2.4 C 38.1 2.5 38.1 2.6 38.1 2.7 C 38.1 2.8 38 2.8 38 2.9 C 37.9 2.9 37.8 2.9 37.8 2.9 C 37.7 2.9 37.7 2.9 37.6 2.9 C 37.6 2.8 37.6 2.8 37.6 2.7 C 37.6 2.7 37.6 2.6 37.6 2.6 C 37.6 2.5 37.6 2.4 37.6 2.4 C 37.6 2.3 37.6 2.2 37.6 2.2 C 37.4 2.2 37.2 2.3 36.9 2.5 C 36.7 2.7 36.5 3 36.3 3.3 C 36.2 3.6 36.1 3.8 36.1 4.1 C 36.1 4.2 36.1 4.3 36.2 4.4 C 36.3 4.5 36.4 4.6 36.6 4.6 C 36.7 4.6 36.8 4.6 37 4.5 C 37.1 4.5 37.3 4.4 37.4 4.3 C 37.4 4.3 37.4 4.3 37.4 4.3 Z M 39 4.2 C 38.9 4.2 38.9 4.2 38.8 4.2 C 38.8 4.3 38.7 4.4 38.6 4.6 C 38.5 4.8 38.4 4.9 38.4 4.9 C 38.4 4.9 38.3 4.9 38.3 4.9 C 38.2 4.9 38.2 4.9 38.1 4.8 C 38 4.8 38 4.7 38 4.7 C 38 4.6 38.2 4.4 38.5 3.9 C 38.7 3.6 38.8 3.3 39 3 C 39.3 2.5 39.5 2.2 39.5 2.1 C 39.6 2 39.7 2 39.7 2 C 39.8 2 39.9 2 40 2.1 C 40 2.1 40 2.1 40 2.2 C 40 2.2 40 2.3 40 2.3 C 40.2 3 40.4 3.6 40.6 3.9 C 40.7 4.2 40.8 4.4 41 4.5 C 41 4.6 41.1 4.6 41.1 4.7 C 41.1 4.7 41.1 4.7 41.1 4.7 C 41.1 4.8 41.1 4.9 41 4.9 C 41 5 40.9 5 40.8 5 C 40.7 5 40.6 4.9 40.5 4.8 C 40.4 4.7 40.3 4.6 40.3 4.4 C 40.2 4.2 40.1 4 40.1 4 C 40.1 4 40.1 4 40.1 4 C 40 4 39.9 4 39.6 4.1 C 39.4 4.1 39.2 4.2 39.1 4.2 C 39 4.2 39 4.2 39 4.2 C 39 4.2 39 4.2 39 4.2 Z M 39.8 3.6 C 39.8 3.6 39.9 3.6 40 3.6 C 39.9 3.5 39.8 3.3 39.7 2.8 C 39.7 2.7 39.7 2.7 39.7 2.7 C 39.7 2.7 39.1 3.8 39.1 3.8 C 39.2 3.8 39.3 3.7 39.4 3.7 C 39.4 3.7 39.6 3.7 39.8 3.6 C 39.8 3.6 39.8 3.6 39.8 3.6 Z M 43.5 2.4 C 43.5 2.6 43.4 2.7 43.1 2.7 C 43.1 2.6 43.1 2.5 43 2.5 C 43 2.4 42.9 2.4 42.7 2.4 C 42.5 2.4 42.3 2.5 42.1 2.6 C 41.9 2.7 41.9 2.8 41.9 2.9 C 41.9 3 41.9 3.1 42 3.1 C 42 3.2 42.2 3.3 42.5 3.3 C 42.8 3.4 43 3.5 43.2 3.6 C 43.3 3.7 43.4 3.9 43.4 4 C 43.4 4.3 43.2 4.5 42.8 4.7 C 42.5 4.9 42.1 5 41.7 5 C 41.5 5 41.4 5 41.3 4.9 C 41.3 4.9 41.2 4.8 41.2 4.7 C 41.2 4.7 41.2 4.6 41.3 4.6 C 41.3 4.5 41.3 4.5 41.4 4.5 C 41.4 4.5 41.5 4.5 41.5 4.5 C 41.6 4.5 41.7 4.6 41.9 4.6 C 42.1 4.6 42.3 4.5 42.6 4.4 C 42.8 4.3 42.9 4.2 42.9 4.1 C 42.9 4 42.9 4 42.8 3.9 C 42.8 3.9 42.6 3.8 42.5 3.8 C 42.2 3.7 42 3.6 41.8 3.5 C 41.7 3.5 41.6 3.4 41.5 3.3 C 41.4 3.2 41.4 3.1 41.4 3 C 41.4 2.7 41.5 2.5 41.8 2.3 C 42.1 2.1 42.4 2 42.8 2 C 43 2 43.2 2 43.3 2.1 C 43.5 2.2 43.5 2.3 43.5 2.4 C 43.5 2.4 43.5 2.4 43.5 2.4 Z M 44.4 4.2 C 44.4 4.2 44.4 4.2 44.3 4.2 C 44.3 4.3 44.2 4.4 44.1 4.6 C 44 4.8 43.9 4.9 43.9 4.9 C 43.8 4.9 43.8 4.9 43.8 4.9 C 43.7 4.9 43.7 4.9 43.6 4.8 C 43.5 4.8 43.5 4.7 43.5 4.7 C 43.5 4.6 43.7 4.4 44 3.9 C 44.2 3.6 44.3 3.3 44.5 3 C 44.8 2.5 45 2.2 45 2.1 C 45.1 2 45.2 2 45.2 2 C 45.3 2 45.4 2 45.5 2.1 C 45.5 2.1 45.5 2.1 45.5 2.2 C 45.5 2.2 45.5 2.3 45.5 2.3 C 45.7 3 45.9 3.6 46 3.9 C 46.2 4.2 46.3 4.4 46.5 4.5 C 46.5 4.6 46.6 4.6 46.6 4.7 C 46.6 4.7 46.6 4.7 46.6 4.7 C 46.6 4.8 46.6 4.9 46.5 4.9 C 46.5 5 46.4 5 46.3 5 C 46.2 5 46.1 4.9 46 4.8 C 45.9 4.7 45.8 4.6 45.7 4.4 C 45.7 4.2 45.6 4 45.6 4 C 45.6 4 45.6 4 45.6 4 C 45.5 4 45.4 4 45.1 4.1 C 44.9 4.1 44.7 4.2 44.5 4.2 C 44.5 4.2 44.5 4.2 44.4 4.2 C 44.4 4.2 44.4 4.2 44.4 4.2 Z M 45.3 3.6 C 45.3 3.6 45.4 3.6 45.5 3.6 C 45.4 3.5 45.3 3.3 45.2 2.8 C 45.2 2.7 45.1 2.7 45.1 2.7 C 45.1 2.7 44.6 3.8 44.6 3.8 C 44.7 3.8 44.8 3.7 44.8 3.7 C 44.9 3.7 45 3.7 45.3 3.6 C 45.3 3.6 45.3 3.6 45.3 3.6 Z M 46.9 5.2 C 46.9 5.2 46.9 5.1 46.9 5.1 C 47 5.1 47.1 5 47.2 5 C 47.3 4.9 47.4 4.9 47.4 4.8 C 47.4 4.7 47.4 4.7 47.4 4.7 C 47.4 4.5 47.4 4.5 47.4 4.4 C 47.4 4.4 47.4 4.4 47.4 4.3 C 47.4 4.3 47.4 4.3 47.4 4.2 C 47.4 4.2 47.5 4.1 47.5 4.1 C 47.5 4.1 47.6 4.2 47.7 4.2 C 47.8 4.2 47.8 4.2 47.8 4.3 C 47.8 4.3 47.8 4.3 47.9 4.4 C 47.9 4.5 47.9 4.6 47.9 4.6 C 47.9 4.6 47.9 4.7 47.8 4.8 C 47.8 5 47.7 5.1 47.6 5.1 C 47.5 5.2 47.4 5.2 47.3 5.2 C 47.3 5.2 47.3 5.2 47.3 5.3 C 47.1 5.3 47 5.3 47 5.3 C 46.9 5.3 46.9 5.3 46.9 5.2 C 46.9 5.2 46.9 5.2 46.9 5.2 Z M 51.8 2.4 C 51.8 2.4 51.8 2.4 51.7 2.4 C 51.7 2.4 51.7 2.4 51.7 2.4 C 51.6 2.4 51.6 2.4 51.5 2.4 C 51.3 2.4 51.1 2.4 50.9 2.5 C 50.7 2.5 50.6 2.5 50.5 2.5 C 50.4 2.8 50.4 3.1 50.4 3.4 C 50.4 3.4 50.5 3.4 50.5 3.4 C 50.7 3.4 50.9 3.3 51.1 3.3 C 51.2 3.3 51.4 3.3 51.4 3.3 C 51.6 3.3 51.7 3.3 51.7 3.5 C 51.7 3.5 51.7 3.5 51.7 3.6 C 51.6 3.6 51.6 3.7 51.6 3.7 C 51.5 3.7 51.4 3.7 51.3 3.7 C 51.3 3.7 50.8 3.8 50.8 3.8 C 50.6 3.8 50.4 3.8 50.3 3.9 C 50.3 3.9 50.3 3.9 50.3 3.9 C 50.3 3.9 50.3 4 50.3 4.1 C 50.3 4.3 50.3 4.4 50.3 4.5 C 50.3 4.5 50.3 4.8 50.3 4.8 C 50.3 4.9 50.2 5 50.1 5 C 50 5 49.9 5 49.9 4.9 C 49.8 4.9 49.8 4.8 49.8 4.7 C 49.8 4.5 49.8 4.3 49.8 4 C 49.8 4 49.9 3.5 50 2.5 C 50 2.5 50 2.5 50 2.4 C 50 2.4 50 2.3 50 2.3 C 50 2.2 50 2.2 50 2.1 C 50.1 2.1 50.2 2.1 50.2 2.1 C 50.2 2.1 50.3 2.1 50.3 2.1 C 50.3 2.1 50.4 2.1 50.4 2.1 C 50.5 2.1 50.7 2.1 51.1 2 C 51.3 2 51.5 2 51.6 2 C 51.7 2 51.8 2 51.9 2 C 52 2.1 52 2.1 52 2.2 C 52 2.3 51.9 2.3 51.8 2.4 C 51.8 2.4 51.8 2.4 51.8 2.4 Z M 52.3 2.5 C 52.3 2.5 52.25 2.44 52.2 2.4 C 52.2 2.4 52.2 2.3 52.2 2.3 C 52.2 2.2 52.2 2.2 52.3 2.1 C 52.3 2.1 52.4 2.1 52.5 2.1 C 52.5 2.1 52.5 2.1 52.5 2.1 C 52.6 2.1 52.6 2.1 52.6 2.1 C 53 2 53.3 2 53.4 2 C 53.7 2 53.9 2.1 54.1 2.2 C 54.3 2.3 54.4 2.5 54.4 2.7 C 54.4 2.9 54.3 3.1 54.1 3.3 C 53.9 3.4 53.7 3.6 53.4 3.7 C 53.9 4.1 54.3 4.3 54.5 4.5 C 54.6 4.5 54.6 4.6 54.6 4.6 C 54.6 4.7 54.6 4.8 54.5 4.8 C 54.5 4.9 54.4 4.9 54.4 4.9 C 54.3 4.9 54.2 4.8 54.1 4.8 C 54 4.7 53.9 4.6 53.7 4.5 C 53.5 4.3 53.4 4.3 53.4 4.2 C 53.2 4 53 3.9 52.9 3.8 C 52.7 3.8 52.7 3.7 52.7 3.6 C 52.7 3.5 52.7 3.5 52.7 3.4 C 52.8 3.4 52.9 3.4 53 3.4 C 53 3.4 53 3.4 53 3.4 C 53.1 3.4 53.1 3.4 53.1 3.4 C 53.2 3.4 53.3 3.3 53.5 3.2 C 53.8 3 53.9 2.9 53.9 2.7 C 53.9 2.6 53.8 2.5 53.7 2.5 C 53.6 2.4 53.5 2.4 53.4 2.4 C 53.2 2.4 53.1 2.4 53 2.4 C 52.9 2.4 52.8 2.4 52.8 2.4 C 52.8 2.5 52.8 2.5 52.8 2.5 C 52.7 2.5 52.7 2.7 52.7 2.9 C 52.6 3.1 52.6 3.4 52.5 3.7 C 52.5 4 52.5 4.2 52.5 4.3 C 52.5 4.4 52.5 4.5 52.5 4.5 C 52.5 4.6 52.5 4.7 52.5 4.7 C 52.5 4.8 52.5 4.8 52.4 4.9 C 52.4 4.9 52.3 4.9 52.3 4.9 C 52.1 4.9 52 4.8 52 4.6 C 52 4.4 52 4.1 52.1 3.7 C 52.1 3.3 52.2 3 52.2 2.7 C 52.2 2.7 52.2 2.7 52.2 2.6 C 52.24 2.63 52.3 2.5 52.3 2.5 Z M 55.5 4.2 C 55.4 4.2 55.4 4.2 55.3 4.2 C 55.3 4.3 55.3 4.4 55.1 4.6 C 55 4.8 54.9 4.9 54.9 4.9 C 54.9 4.9 54.8 4.9 54.8 4.9 C 54.7 4.9 54.7 4.9 54.6 4.8 C 54.6 4.8 54.5 4.7 54.5 4.7 C 54.5 4.6 54.7 4.4 55 3.9 C 55.2 3.6 55.4 3.3 55.5 3 C 55.8 2.5 56 2.2 56 2.1 C 56.1 2 56.2 2 56.2 2 C 56.4 2 56.4 2 56.5 2.1 C 56.5 2.1 56.5 2.1 56.5 2.2 C 56.5 2.2 56.5 2.3 56.5 2.3 C 56.7 3 56.9 3.6 57.1 3.9 C 57.2 4.2 57.3 4.4 57.5 4.5 C 57.5 4.6 57.6 4.6 57.6 4.7 C 57.6 4.7 57.6 4.7 57.6 4.7 C 57.6 4.8 57.6 4.9 57.5 4.9 C 57.5 5 57.4 5 57.4 5 C 57.3 5 57.2 4.9 57.1 4.8 C 56.9 4.7 56.9 4.6 56.8 4.4 C 56.7 4.2 56.6 4 56.6 4 C 56.6 4 56.6 4 56.6 4 C 56.5 4 56.4 4 56.1 4.1 C 55.9 4.1 55.7 4.2 55.6 4.2 C 55.5 4.2 55.5 4.2 55.5 4.2 C 55.5 4.2 55.5 4.2 55.5 4.2 Z M 56.3 3.6 C 56.4 3.6 56.4 3.6 56.5 3.6 C 56.4 3.5 56.3 3.3 56.2 2.8 C 56.2 2.7 56.2 2.7 56.2 2.7 C 56.2 2.7 55.6 3.8 55.6 3.8 C 55.7 3.8 55.8 3.7 55.9 3.7 C 55.9 3.7 56.1 3.7 56.3 3.6 C 56.3 3.6 56.3 3.6 56.3 3.6 Z M 57.9 4.2 C 57.9 4.2 58.06 3.54 58.1 3.5 C 58.2 3 58.2 2.7 58.2 2.5 C 58.2 2.4 58.2 2.3 58.3 2.2 C 58.3 2.2 58.3 2.2 58.3 2.1 C 58.4 2.1 58.5 2.1 58.5 2.1 C 58.6 2.1 58.6 2.1 58.7 2.1 C 58.7 2.2 58.7 2.2 58.8 2.4 C 58.8 2.6 59 2.9 59.2 3.3 C 59.4 3.7 59.6 4 59.8 4.2 C 59.9 4 59.9 3.7 60 3.3 C 60 3.1 60.1 2.8 60.1 2.6 C 60.1 2.5 60.2 2.3 60.2 2.2 C 60.2 2.1 60.2 2 60.3 2 C 60.3 2 60.4 1.9 60.4 1.9 C 60.5 1.9 60.5 2 60.6 2 C 60.6 2.1 60.6 2.2 60.6 2.2 C 60.6 2.3 60.6 2.4 60.6 2.5 C 60.5 2.8 60.4 3.2 60.3 3.7 C 60.3 4.2 60.2 4.4 60.2 4.5 C 60.2 4.5 60.2 4.6 60.2 4.6 C 60.2 4.6 60.2 4.7 60.2 4.7 C 60.2 4.8 60.2 4.8 60.1 4.8 C 60.1 4.9 60 4.9 59.9 4.9 C 59.9 4.9 59.8 4.9 59.8 4.9 C 59.8 4.9 59.8 4.8 59.7 4.8 C 59.7 4.8 59.7 4.7 59.6 4.6 C 59.5 4.5 59.5 4.4 59.5 4.4 C 59.2 4 58.9 3.5 58.6 3 C 58.5 3.2 58.5 3.6 58.4 4.2 C 58.4 4.2 58.4 4.3 58.4 4.3 C 58.4 4.4 58.4 4.5 58.3 4.6 C 58.3 4.7 58.3 4.8 58.2 4.9 C 58.2 5 58.1 5 58.1 5 C 58 5 57.9 5 57.9 4.9 C 57.9 4.9 57.8 4.8 57.8 4.7 C 57.8 4.6 57.9 4.4 57.9 4.2 C 57.92 4.21 57.9 4.2 57.9 4.2 Z M 62.7 4.3 C 62.9 4.2 62.9 4.2 63 4.2 C 63.1 4.2 63.1 4.2 63.1 4.3 C 63.1 4.4 63 4.6 62.7 4.7 C 62.4 4.9 62.1 5 61.9 5 C 61.6 5 61.4 4.9 61.2 4.8 C 61 4.6 60.9 4.4 60.9 4.1 C 60.9 3.8 61 3.5 61.2 3.1 C 61.4 2.7 61.7 2.4 62 2.2 C 62.3 2 62.6 1.8 62.9 1.8 C 63.1 1.8 63.2 1.9 63.3 2 C 63.4 2.1 63.5 2.2 63.5 2.4 C 63.5 2.5 63.5 2.6 63.4 2.7 C 63.4 2.8 63.4 2.8 63.3 2.9 C 63.2 2.9 63.2 2.9 63.1 2.9 C 63.1 2.9 63 2.9 63 2.9 C 62.9 2.8 62.9 2.8 62.9 2.7 C 62.9 2.7 62.9 2.6 63 2.6 C 63 2.5 63 2.4 63 2.4 C 63 2.3 63 2.2 62.9 2.2 C 62.7 2.2 62.5 2.3 62.3 2.5 C 62 2.7 61.8 3 61.7 3.3 C 61.5 3.6 61.4 3.8 61.4 4.1 C 61.4 4.2 61.5 4.3 61.5 4.4 C 61.6 4.5 61.8 4.6 61.9 4.6 C 62 4.6 62.2 4.6 62.3 4.5 C 62.5 4.5 62.6 4.4 62.7 4.3 C 62.7 4.3 62.7 4.3 62.7 4.3 Z M 64.4 2.9 C 64.4 3 64.4 3.1 64.3 3.2 C 64.3 3.2 64.3 3.3 64.3 3.5 C 64.3 3.8 64.2 3.9 64.2 4 C 64.2 4.2 64.3 4.4 64.3 4.6 C 64.3 4.7 64.3 4.8 64.2 4.8 C 64.1 4.9 64.1 4.9 64 4.9 C 63.9 4.9 63.8 4.9 63.8 4.8 C 63.8 4.7 63.7 4.6 63.7 4.4 C 63.7 4.2 63.8 4 63.8 3.5 C 63.8 3.5 63.9 2.7 63.9 2.7 C 64 2.6 64 2.5 64 2.4 C 64 2.3 64 2.2 64.1 2.2 C 64.1 2.1 64.1 2.1 64.2 2 C 64.2 2 64.3 2 64.3 2 C 64.4 2 64.4 2 64.5 2.1 C 64.5 2.1 64.5 2.2 64.5 2.3 C 64.5 2.3 64.4 2.9 64.4 2.9 Z M 67.1 2.4 C 67.1 2.6 66.9 2.7 66.7 2.7 C 66.7 2.6 66.6 2.5 66.6 2.5 C 66.5 2.4 66.4 2.4 66.3 2.4 C 66.1 2.4 65.9 2.5 65.7 2.6 C 65.5 2.7 65.4 2.8 65.4 2.9 C 65.4 3 65.4 3.1 65.5 3.1 C 65.6 3.2 65.8 3.3 66 3.3 C 66.4 3.4 66.6 3.5 66.7 3.6 C 66.9 3.7 67 3.9 67 4 C 67 4.3 66.8 4.5 66.4 4.7 C 66 4.9 65.6 5 65.2 5 C 65.1 5 65 5 64.9 4.9 C 64.8 4.9 64.8 4.8 64.8 4.7 C 64.8 4.7 64.8 4.6 64.8 4.6 C 64.8 4.5 64.9 4.5 64.9 4.5 C 65 4.5 65 4.5 65 4.5 C 65.2 4.5 65.3 4.6 65.4 4.6 C 65.6 4.6 65.8 4.5 66.1 4.4 C 66.3 4.3 66.5 4.2 66.5 4.1 C 66.5 4 66.4 4 66.4 3.9 C 66.3 3.9 66.2 3.8 66 3.8 C 65.7 3.7 65.5 3.6 65.4 3.5 C 65.2 3.5 65.1 3.4 65 3.3 C 65 3.2 64.9 3.1 64.9 3 C 64.9 2.7 65.1 2.5 65.3 2.3 C 65.6 2.1 66 2 66.3 2 C 66.6 2 66.7 2 66.9 2.1 C 67 2.2 67.1 2.3 67.1 2.4 C 67.1 2.4 67.1 2.4 67.1 2.4 Z M 69.1 4.3 C 69.2 4.2 69.3 4.2 69.3 4.2 C 69.4 4.2 69.5 4.2 69.5 4.3 C 69.5 4.4 69.3 4.6 69.1 4.7 C 68.8 4.9 68.5 5 68.2 5 C 68 5 67.8 4.9 67.6 4.8 C 67.4 4.6 67.3 4.4 67.3 4.1 C 67.3 3.8 67.4 3.5 67.6 3.1 C 67.8 2.7 68.1 2.4 68.4 2.2 C 68.7 2 69 1.8 69.3 1.8 C 69.4 1.8 69.6 1.9 69.7 2 C 69.8 2.1 69.8 2.2 69.8 2.4 C 69.8 2.5 69.8 2.6 69.8 2.7 C 69.8 2.8 69.7 2.8 69.7 2.9 C 69.6 2.9 69.5 2.9 69.5 2.9 C 69.4 2.9 69.4 2.9 69.3 2.9 C 69.3 2.8 69.3 2.8 69.3 2.7 C 69.3 2.7 69.3 2.6 69.3 2.6 C 69.3 2.5 69.3 2.4 69.3 2.4 C 69.3 2.3 69.3 2.2 69.3 2.2 C 69.1 2.2 68.9 2.3 68.6 2.5 C 68.4 2.7 68.2 3 68 3.3 C 67.9 3.6 67.8 3.8 67.8 4.1 C 67.8 4.2 67.8 4.3 67.9 4.4 C 68 4.5 68.1 4.6 68.3 4.6 C 68.4 4.6 68.5 4.6 68.7 4.5 C 68.8 4.5 69 4.4 69.1 4.3 C 69.1 4.3 69.1 4.3 69.1 4.3 Z M 70.8 5 C 70.6 5 70.4 4.9 70.2 4.7 C 70.1 4.4 70 4.2 70 4 C 70 3.7 70.1 3.4 70.2 3.1 C 70.4 2.8 70.6 2.5 70.9 2.3 C 71.1 2.1 71.4 2 71.7 2 C 71.9 2 72.1 2 72.2 2.1 C 72.3 2.1 72.5 2.2 72.6 2.3 C 72.7 2.4 72.8 2.5 72.8 2.6 C 72.9 2.7 72.9 2.9 72.9 3 C 72.9 3.2 72.8 3.4 72.7 3.6 C 72.6 3.9 72.5 4.1 72.3 4.3 C 72.1 4.5 71.9 4.7 71.7 4.8 C 71.4 4.9 71.2 5 70.8 5 Z M 70.5 4 C 70.5 4.1 70.5 4.3 70.6 4.4 C 70.7 4.5 70.8 4.5 70.9 4.5 C 71.3 4.5 71.6 4.4 71.9 4 C 72.2 3.7 72.4 3.4 72.4 3 C 72.4 2.8 72.4 2.7 72.3 2.7 C 72.3 2.6 72.2 2.5 72.1 2.5 C 71.9 2.4 71.8 2.4 71.7 2.4 C 71.4 2.4 71.2 2.6 70.9 2.9 C 70.6 3.3 70.5 3.6 70.5 4 Z M 74.8 4.5 C 74.8 4.5 74.8 4.3 74.8 4.2 C 74.9 3.7 74.9 3.3 75 2.8 C 75 2.7 75 2.6 75 2.5 C 75 2.5 75 2.5 75 2.5 C 74.9 2.4 74.8 2.4 74.8 2.3 C 74.8 2.2 74.8 2.2 74.9 2.1 C 74.9 2.1 75 2 75.1 2 C 75.1 2 75.3 2 75.3 2 C 75.5 2 75.6 2 75.8 2 C 76 2 76.2 2 76.3 2 C 76.6 2 76.9 2.1 77.1 2.3 C 77.4 2.5 77.5 2.8 77.5 3.1 C 77.5 3.5 77.3 3.8 77 4.1 C 76.6 4.4 76.2 4.6 75.7 4.7 C 75.6 4.8 75.5 4.8 75.4 4.8 C 75.4 4.8 75.3 4.9 75.2 4.9 C 75.2 5 75.1 5 75 5 C 74.9 5 74.9 5 74.8 4.9 C 74.7 4.9 74.7 4.8 74.7 4.8 C 74.7 4.7 74.7 4.7 74.8 4.6 C 74.8 4.6 74.8 4.5 74.8 4.5 Z M 75.3 4.3 C 75.3 4.4 75.3 4.4 75.3 4.4 C 75.4 4.4 75.6 4.4 75.9 4.3 C 76.2 4.2 76.5 4 76.7 3.8 C 76.9 3.6 77 3.4 77 3.1 C 77 2.9 76.9 2.7 76.8 2.6 C 76.6 2.5 76.4 2.4 76.2 2.4 C 76 2.4 75.8 2.4 75.6 2.4 C 75.6 2.4 75.5 2.4 75.5 2.4 C 75.4 3.3 75.3 3.9 75.3 4.3 C 75.3 4.3 75.3 4.3 75.3 4.3 Z M 80 2.4 C 80 2.4 79.4 2.5 79.4 2.5 C 79.2 2.5 79 2.5 78.9 2.5 C 78.7 2.5 78.6 2.6 78.6 2.6 C 78.6 2.6 78.6 2.6 78.6 2.7 C 78.6 2.7 78.6 2.9 78.5 3 C 78.5 3.2 78.5 3.3 78.5 3.3 C 78.6 3.3 78.7 3.3 78.8 3.3 C 79 3.3 79.1 3.3 79.2 3.3 C 79.4 3.2 79.5 3.2 79.6 3.2 C 79.8 3.2 79.9 3.3 79.9 3.4 C 79.9 3.5 79.9 3.5 79.8 3.6 C 79.8 3.6 79.7 3.6 79.6 3.6 C 79.5 3.6 79.4 3.7 79.3 3.7 C 79.3 3.7 79.2 3.7 79.1 3.7 C 78.8 3.7 78.5 3.8 78.5 3.8 C 78.5 3.8 78.5 3.8 78.5 3.8 C 78.5 3.8 78.4 3.8 78.4 3.8 C 78.4 3.9 78.4 4 78.4 4.1 C 78.3 4.3 78.3 4.4 78.3 4.5 C 78.3 4.5 78.4 4.6 78.4 4.6 C 78.5 4.6 78.6 4.5 78.9 4.5 C 79.2 4.5 79.3 4.4 79.4 4.4 C 79.6 4.4 79.7 4.4 79.8 4.4 C 79.9 4.4 80 4.5 80 4.6 C 80 4.7 80 4.7 79.9 4.7 C 79.8 4.8 79.6 4.8 79.4 4.9 C 79.2 4.9 79 4.9 78.8 4.9 C 78.5 5 78.3 5 78.1 5 C 78 5 77.9 5 77.9 4.9 C 77.8 4.9 77.8 4.8 77.8 4.7 C 77.8 4.7 77.8 4.6 77.8 4.6 C 77.8 4.6 77.8 4.6 77.8 4.5 C 77.9 4.4 77.9 4 78 3.5 C 78.1 2.9 78.1 2.6 78.1 2.5 C 78.1 2.5 78.1 2.5 78.1 2.5 C 78.1 2.5 78.1 2.5 78.1 2.4 C 78.1 2.4 78 2.4 78 2.3 C 78 2.3 78 2.3 78.1 2.3 C 78.1 2.2 78.1 2.2 78.1 2.2 C 78.2 2.2 78.2 2.1 78.3 2.1 C 78.3 2.1 78.4 2.1 78.5 2.1 C 78.6 2.1 78.9 2.1 79.5 2 C 79.7 2 79.8 2 79.8 2 C 79.8 2 79.9 2 79.9 2 C 80.1 2 80.2 2 80.2 2.2 C 80.2 2.2 80.2 2.3 80.1 2.3 C 80.1 2.4 80.1 2.4 80 2.4 Z M 81.6 5 C 81.4 5 81.3 4.9 81.1 4.8 C 80.9 4.8 80.7 4.6 80.6 4.4 C 80.5 4.2 80.5 4 80.5 3.7 C 80.5 3.6 80.5 3.4 80.5 3.2 C 80.5 3.2 80.6 2.9 80.6 2.9 C 80.6 2.8 80.6 2.7 80.6 2.7 C 80.7 2.6 80.7 2.5 80.7 2.4 C 80.7 2.3 80.7 2.2 80.8 2.1 C 80.8 2 80.9 2 81 2 C 81 2 81.1 2 81.1 2.1 C 81.2 2.2 81.2 2.2 81.2 2.3 C 81.2 2.3 81.2 2.4 81.1 2.7 C 81.1 2.8 81.1 2.9 81 3.2 C 81 3.4 81 3.6 81 3.7 C 81 4 81 4.3 81.2 4.4 C 81.3 4.5 81.5 4.5 81.6 4.5 C 81.9 4.5 82.1 4.5 82.2 4.3 C 82.4 4.2 82.5 4 82.5 3.6 C 82.5 3.6 82.5 3.5 82.5 3.5 C 82.5 3.3 82.5 3.2 82.5 3.1 C 82.6 2.6 82.6 2.3 82.7 2.2 C 82.7 2.1 82.8 2.1 82.9 2.1 C 83.1 2.1 83.1 2.1 83.1 2.3 C 83.1 2.4 83.1 2.6 83.1 2.9 C 83 3.1 83 3.2 83 3.4 C 83 3.8 82.9 4.1 82.8 4.3 C 82.8 4.5 82.6 4.6 82.4 4.8 C 82.2 4.9 81.9 5 81.6 5 Z M 86.7 4.3 C 86.8 4.2 86.9 4.2 87 4.2 C 87.1 4.2 87.1 4.2 87.1 4.3 C 87.1 4.4 87 4.6 86.7 4.7 C 86.4 4.9 86.1 5 85.9 5 C 85.6 5 85.4 4.9 85.2 4.8 C 85 4.6 84.9 4.4 84.9 4.1 C 84.9 3.8 85 3.5 85.2 3.1 C 85.4 2.7 85.7 2.4 86 2.2 C 86.3 2 86.6 1.8 86.9 1.8 C 87.1 1.8 87.2 1.9 87.3 2 C 87.4 2.1 87.5 2.2 87.5 2.4 C 87.5 2.5 87.4 2.6 87.4 2.7 C 87.4 2.8 87.4 2.8 87.3 2.9 C 87.2 2.9 87.1 2.9 87.1 2.9 C 87 2.9 87 2.9 87 2.9 C 86.9 2.8 86.9 2.8 86.9 2.7 C 86.9 2.7 86.9 2.6 86.9 2.6 C 87 2.5 87 2.4 87 2.4 C 87 2.3 86.9 2.2 86.9 2.2 C 86.7 2.2 86.5 2.3 86.2 2.5 C 86 2.7 85.8 3 85.6 3.3 C 85.5 3.6 85.4 3.8 85.4 4.1 C 85.4 4.2 85.4 4.3 85.5 4.4 C 85.6 4.5 85.7 4.6 85.9 4.6 C 86 4.6 86.1 4.6 86.3 4.5 C 86.4 4.5 86.6 4.4 86.7 4.3 C 86.7 4.3 86.7 4.3 86.7 4.3 Z M 88.3 4.2 C 88.2 4.2 88.2 4.2 88.2 4.2 C 88.1 4.3 88.1 4.4 88 4.6 C 87.8 4.8 87.8 4.9 87.7 4.9 C 87.7 4.9 87.6 4.9 87.6 4.9 C 87.6 4.9 87.5 4.9 87.4 4.8 C 87.4 4.8 87.3 4.7 87.3 4.7 C 87.3 4.6 87.5 4.4 87.8 3.9 C 88 3.6 88.2 3.3 88.3 3 C 88.6 2.5 88.8 2.2 88.9 2.1 C 88.9 2 89 2 89.1 2 C 89.2 2 89.3 2 89.3 2.1 C 89.3 2.1 89.3 2.1 89.3 2.2 C 89.3 2.2 89.3 2.3 89.3 2.3 C 89.6 3 89.7 3.6 89.9 3.9 C 90 4.2 90.2 4.4 90.3 4.5 C 90.4 4.6 90.4 4.6 90.4 4.7 C 90.4 4.7 90.4 4.7 90.4 4.7 C 90.4 4.8 90.4 4.9 90.4 4.9 C 90.3 5 90.2 5 90.2 5 C 90.1 5 90 4.9 89.9 4.8 C 89.8 4.7 89.7 4.6 89.6 4.4 C 89.5 4.2 89.4 4 89.4 4 C 89.4 4 89.4 4 89.4 4 C 89.4 4 89.2 4 89 4.1 C 88.7 4.1 88.5 4.2 88.4 4.2 C 88.3 4.2 88.3 4.2 88.3 4.2 C 88.3 4.2 88.3 4.2 88.3 4.2 Z M 89.1 3.6 C 89.2 3.6 89.2 3.6 89.3 3.6 C 89.3 3.5 89.2 3.3 89 2.8 C 89 2.7 89 2.7 89 2.7 C 89 2.7 88.4 3.8 88.4 3.8 C 88.5 3.8 88.6 3.7 88.7 3.7 C 88.7 3.7 88.9 3.7 89.1 3.6 C 89.1 3.6 89.1 3.6 89.1 3.6 Z M 90.9 2.5 C 90.9 2.5 90.91 2.44 90.9 2.4 C 90.9 2.4 90.9 2.3 90.9 2.3 C 90.9 2.2 90.9 2.2 90.9 2.1 C 91 2.1 91.1 2.1 91.1 2.1 C 91.1 2.1 91.2 2.1 91.2 2.1 C 91.2 2.1 91.3 2.1 91.3 2.1 C 91.7 2 91.9 2 92.1 2 C 92.4 2 92.6 2.1 92.8 2.2 C 92.9 2.3 93 2.5 93 2.7 C 93 2.9 92.9 3.1 92.8 3.3 C 92.6 3.4 92.4 3.6 92.1 3.7 C 92.6 4.1 92.9 4.3 93.2 4.5 C 93.2 4.5 93.3 4.6 93.3 4.6 C 93.3 4.7 93.3 4.8 93.2 4.8 C 93.1 4.9 93.1 4.9 93 4.9 C 93 4.9 92.9 4.8 92.8 4.8 C 92.7 4.7 92.5 4.6 92.4 4.5 C 92.2 4.3 92.1 4.3 92.1 4.2 C 91.8 4 91.6 3.9 91.5 3.8 C 91.4 3.8 91.3 3.7 91.3 3.6 C 91.3 3.5 91.4 3.5 91.4 3.4 C 91.5 3.4 91.5 3.4 91.6 3.4 C 91.6 3.4 91.7 3.4 91.7 3.4 C 91.7 3.4 91.7 3.4 91.7 3.4 C 91.8 3.4 92 3.3 92.2 3.2 C 92.4 3 92.5 2.9 92.5 2.7 C 92.5 2.6 92.5 2.5 92.4 2.5 C 92.3 2.4 92.2 2.4 92 2.4 C 91.9 2.4 91.7 2.4 91.6 2.4 C 91.5 2.4 91.5 2.4 91.5 2.4 C 91.4 2.5 91.4 2.5 91.4 2.5 C 91.4 2.5 91.4 2.7 91.3 2.9 C 91.3 3.1 91.3 3.4 91.2 3.7 C 91.2 4 91.2 4.2 91.2 4.3 C 91.2 4.4 91.2 4.5 91.2 4.5 C 91.2 4.6 91.2 4.7 91.2 4.7 C 91.2 4.8 91.2 4.8 91.1 4.9 C 91.1 4.9 91 4.9 90.9 4.9 C 90.8 4.9 90.7 4.8 90.7 4.6 C 90.7 4.4 90.7 4.1 90.7 3.7 C 90.8 3.3 90.8 3 90.9 2.7 C 90.9 2.7 90.9 2.7 90.9 2.6 C 90.91 2.63 90.9 2.5 90.9 2.5 Z M 94.3 5 C 94 5 93.8 4.9 93.7 4.7 C 93.5 4.4 93.4 4.2 93.4 4 C 93.4 3.7 93.5 3.4 93.7 3.1 C 93.8 2.8 94 2.5 94.3 2.3 C 94.6 2.1 94.8 2 95.1 2 C 95.3 2 95.5 2 95.6 2.1 C 95.8 2.1 95.9 2.2 96 2.3 C 96.1 2.4 96.2 2.5 96.3 2.6 C 96.3 2.7 96.3 2.9 96.3 3 C 96.3 3.2 96.3 3.4 96.2 3.6 C 96.1 3.9 95.9 4.1 95.7 4.3 C 95.5 4.5 95.3 4.7 95.1 4.8 C 94.9 4.9 94.6 5 94.3 5 Z M 93.9 4 C 93.9 4.1 94 4.3 94.1 4.4 C 94.2 4.5 94.3 4.5 94.4 4.5 C 94.7 4.5 95.1 4.4 95.4 4 C 95.7 3.7 95.8 3.4 95.8 3 C 95.8 2.8 95.8 2.7 95.8 2.7 C 95.7 2.6 95.6 2.5 95.5 2.5 C 95.4 2.4 95.2 2.4 95.1 2.4 C 94.8 2.4 94.6 2.6 94.3 2.9 C 94 3.3 93.9 3.6 93.9 4 Z M 96.7 4.2 C 96.7 4.2 96.84 3.54 96.8 3.5 C 96.9 3 97 2.7 97 2.5 C 97 2.4 97 2.3 97 2.2 C 97 2.2 97.1 2.2 97.1 2.1 C 97.2 2.1 97.2 2.1 97.3 2.1 C 97.3 2.1 97.4 2.1 97.4 2.1 C 97.5 2.2 97.5 2.2 97.6 2.4 C 97.6 2.6 97.8 2.9 98 3.3 C 98.2 3.7 98.4 4 98.6 4.2 C 98.6 4 98.7 3.7 98.8 3.3 C 98.8 3.1 98.8 2.8 98.9 2.6 C 98.9 2.5 98.9 2.3 98.9 2.2 C 98.9 2.1 99 2 99 2 C 99.1 2 99.2 1.9 99.2 1.9 C 99.3 1.9 99.3 2 99.4 2 C 99.4 2.1 99.4 2.2 99.4 2.2 C 99.4 2.3 99.4 2.4 99.4 2.5 C 99.3 2.8 99.2 3.2 99.1 3.7 C 99 4.2 99 4.4 99 4.5 C 99 4.5 99 4.6 99 4.6 C 99 4.6 99 4.7 99 4.7 C 99 4.8 98.9 4.8 98.9 4.8 C 98.8 4.9 98.8 4.9 98.7 4.9 C 98.6 4.9 98.6 4.9 98.6 4.9 C 98.6 4.9 98.5 4.8 98.5 4.8 C 98.5 4.8 98.4 4.7 98.4 4.6 C 98.3 4.5 98.3 4.4 98.2 4.4 C 97.9 4 97.6 3.5 97.3 3 C 97.3 3.2 97.2 3.6 97.2 4.2 C 97.2 4.2 97.1 4.3 97.1 4.3 C 97.1 4.4 97.1 4.5 97.1 4.6 C 97.1 4.7 97.1 4.8 97 4.9 C 97 5 96.9 5 96.8 5 C 96.8 5 96.7 5 96.7 4.9 C 96.6 4.9 96.6 4.8 96.6 4.7 C 96.6 4.6 96.6 4.4 96.7 4.2 C 96.69 4.21 96.7 4.2 96.7 4.2 Z M 100.4 4.2 C 100.4 4.2 100.3 4.2 100.3 4.2 C 100.3 4.3 100.2 4.4 100.1 4.6 C 100 4.8 99.9 4.9 99.8 4.9 C 99.8 4.9 99.8 4.9 99.7 4.9 C 99.7 4.9 99.6 4.9 99.6 4.8 C 99.5 4.8 99.5 4.7 99.5 4.7 C 99.5 4.6 99.6 4.4 99.9 3.9 C 100.1 3.6 100.3 3.3 100.4 3 C 100.7 2.5 100.9 2.2 101 2.1 C 101 2 101.1 2 101.2 2 C 101.3 2 101.4 2 101.4 2.1 C 101.4 2.1 101.5 2.1 101.5 2.2 C 101.5 2.2 101.5 2.3 101.4 2.3 C 101.7 3 101.9 3.6 102 3.9 C 102.1 4.2 102.3 4.4 102.4 4.5 C 102.5 4.6 102.5 4.6 102.5 4.7 C 102.5 4.7 102.6 4.7 102.6 4.7 C 102.6 4.8 102.5 4.9 102.5 4.9 C 102.4 5 102.4 5 102.3 5 C 102.2 5 102.1 4.9 102 4.8 C 101.9 4.7 101.8 4.6 101.7 4.4 C 101.6 4.2 101.6 4 101.6 4 C 101.6 4 101.6 4 101.6 4 C 101.5 4 101.3 4 101.1 4.1 C 100.8 4.1 100.6 4.2 100.5 4.2 C 100.5 4.2 100.4 4.2 100.4 4.2 C 100.4 4.2 100.4 4.2 100.4 4.2 Z M 101.2 3.6 C 101.3 3.6 101.4 3.6 101.4 3.6 C 101.4 3.5 101.3 3.3 101.1 2.8 C 101.1 2.7 101.1 2.7 101.1 2.7 C 101.1 2.7 100.5 3.8 100.5 3.8 C 100.6 3.8 100.7 3.7 100.8 3.7 C 100.9 3.7 101 3.7 101.2 3.6 C 101.2 3.6 101.2 3.6 101.2 3.6 Z " stroke="none" fill="#000"/>  </g></svg>