<?xml version="1.0" standalone="no"?><!DOCTYPE svg PUBLIC "-//W3C//DTD SVG 1.1//EN" "http://www.w3.org/Graphics/SVG/1.1/DTD/svg11.dtd"><svg xmlns="http://www.w3.org/2000/svg" version="1.1" width="99px" height="33.8px" viewBox="0 -7 99 33.8" style="top:-7px">  <desc>FRANCISCO</desc>  <defs/>  <g id="Polygon13317">    <path d="M 9.2 3.7 C 9.1 3.8 8.9 3.8 8.8 3.8 C 8.7 3.8 8.6 3.8 8.5 3.8 C 8.4 3.7 8.1 3.7 7.8 3.7 C 7.2 3.7 6.5 3.8 5.7 3.9 C 4.9 4 4.4 4.1 4.1 4.2 C 3.8 5.1 3.6 6.3 3.5 7.6 C 3.7 7.5 3.9 7.5 4.1 7.5 C 4.9 7.4 5.6 7.3 6.3 7.2 C 6.9 7.1 7.3 7 7.6 7 C 8.4 7 8.8 7.3 8.8 7.8 C 8.8 7.9 8.7 8 8.6 8.2 C 8.4 8.4 8.3 8.5 8.1 8.6 C 7.9 8.6 7.6 8.7 7.1 8.8 C 7.1 8.8 5.1 9 5.1 9 C 4.4 9.1 3.8 9.2 3.4 9.3 C 3.4 9.3 3.3 9.4 3.3 9.4 C 3.3 9.5 3.2 9.8 3.2 10.3 C 3.2 10.9 3.1 11.4 3.1 11.8 C 3.1 11.8 3.2 12.8 3.2 12.8 C 3.2 13.3 2.9 13.6 2.3 13.6 C 2.1 13.6 1.8 13.5 1.6 13.3 C 1.3 13.1 1.2 12.9 1.2 12.5 C 1.2 11.9 1.2 10.9 1.4 9.7 C 1.4 9.7 1.7 7.8 2.2 4.2 C 2.2 4 2.2 3.9 2.1 3.8 C 2 3.5 2 3.4 2 3.2 C 2 3.1 2.1 2.9 2.3 2.7 C 2.5 2.5 2.7 2.4 2.9 2.4 C 3 2.4 3.1 2.4 3.3 2.4 C 3.5 2.5 3.6 2.5 3.8 2.5 C 4 2.5 4.8 2.4 6.2 2.3 C 7.1 2.2 7.8 2.1 8.3 2.1 C 8.7 2.1 9.1 2.2 9.4 2.3 C 9.6 2.5 9.8 2.6 9.8 2.7 C 9.8 3.1 9.6 3.5 9.2 3.7 C 9.2 3.7 9.2 3.7 9.2 3.7 Z M 10.8 4 C 10.8 4 10.72 3.83 10.7 3.8 C 10.6 3.6 10.5 3.4 10.5 3.3 C 10.5 3 10.6 2.8 10.8 2.7 C 11.1 2.5 11.3 2.4 11.5 2.4 C 11.6 2.4 11.7 2.4 11.9 2.4 C 12 2.4 12.1 2.4 12.1 2.4 C 13.6 2.2 14.6 2.1 15.2 2.1 C 16.3 2.1 17.2 2.4 17.8 2.9 C 18.5 3.4 18.8 4.1 18.8 4.8 C 18.8 5.6 18.5 6.3 17.9 6.9 C 17.2 7.6 16.4 8.1 15.3 8.6 C 17.1 10 18.4 11 19.3 11.5 C 19.7 11.7 19.8 12 19.8 12.3 C 19.8 12.5 19.7 12.7 19.5 12.9 C 19.3 13.1 19 13.2 18.8 13.2 C 18.6 13.2 18.2 13 17.9 12.8 C 17.5 12.5 17 12.1 16.3 11.6 C 15.6 11.1 15.2 10.8 15.1 10.7 C 14.2 9.9 13.5 9.3 13.1 9.1 C 12.6 9.1 12.3 8.8 12.3 8.3 C 12.3 8 12.4 7.8 12.6 7.7 C 12.9 7.5 13.1 7.4 13.4 7.4 C 13.5 7.4 13.6 7.4 13.7 7.4 C 13.8 7.5 13.9 7.5 13.9 7.5 C 14.2 7.5 14.8 7.2 15.7 6.7 C 16.6 6.1 17 5.5 17 4.8 C 17 4.5 16.8 4.2 16.4 3.9 C 16.1 3.7 15.6 3.6 15.1 3.6 C 14.4 3.6 13.9 3.6 13.5 3.7 C 13.1 3.8 12.8 3.8 12.8 3.8 C 12.8 3.9 12.7 4 12.7 4.1 C 12.6 4.2 12.5 4.7 12.3 5.6 C 12.2 6.5 12 7.5 11.9 8.6 C 11.7 9.7 11.7 10.4 11.7 11 C 11.7 11.3 11.7 11.6 11.7 11.8 C 11.8 12.1 11.8 12.3 11.8 12.5 C 11.8 12.7 11.7 12.9 11.5 13.1 C 11.3 13.3 11 13.4 10.8 13.4 C 10.1 13.4 9.8 12.9 9.8 12 C 9.8 11.2 9.8 10.1 10 8.7 C 10.2 7.3 10.4 6.1 10.6 5 C 10.7 4.8 10.7 4.7 10.7 4.5 C 10.71 4.54 10.8 4 10.8 4 Z M 23 10.7 C 22.8 10.7 22.7 10.7 22.6 10.6 C 22.5 10.8 22.2 11.3 21.8 12 C 21.4 12.7 21.1 13.1 20.9 13.2 C 20.7 13.3 20.6 13.3 20.4 13.3 C 20.3 13.3 20.1 13.2 19.8 13 C 19.5 12.8 19.4 12.6 19.4 12.4 C 19.4 12.2 20 11.2 21.3 9.2 C 22 8.2 22.6 7.2 23.2 6.2 C 24.3 4.1 25 2.9 25.2 2.6 C 25.5 2.2 25.8 2 26 2 C 26.4 2 26.7 2.2 26.9 2.4 C 27 2.4 27.1 2.6 27.1 2.9 C 27.1 3.1 27.1 3.2 27 3.3 C 27.9 6.1 28.7 8.1 29.2 9.3 C 29.7 10.4 30.2 11.2 30.7 11.8 C 31 12 31.1 12.2 31.2 12.3 C 31.2 12.4 31.3 12.5 31.3 12.6 C 31.3 12.9 31.2 13.1 31 13.3 C 30.8 13.5 30.5 13.6 30.3 13.6 C 29.9 13.6 29.5 13.4 29.1 13 C 28.7 12.5 28.4 11.9 28 11.1 C 27.7 10.4 27.5 9.9 27.5 9.9 C 27.5 9.8 27.5 9.8 27.5 9.8 C 27.2 9.8 26.6 9.9 25.7 10.1 C 24.7 10.3 24 10.5 23.4 10.7 C 23.3 10.7 23.1 10.7 23 10.7 C 23 10.7 23 10.7 23 10.7 Z M 26.2 8.4 C 26.5 8.4 26.7 8.3 26.9 8.3 C 26.8 8 26.4 7 25.8 5.2 C 25.8 5 25.7 4.9 25.7 4.9 C 25.7 4.9 23.6 8.9 23.6 8.9 C 23.9 8.8 24.2 8.8 24.6 8.7 C 24.8 8.7 25.3 8.6 26.2 8.4 C 26.2 8.4 26.2 8.4 26.2 8.4 Z M 32.4 10.5 C 32.4 10.5 32.99 8.03 33 8 C 33.4 6 33.6 4.6 33.6 3.9 C 33.7 3.5 33.7 3.2 33.7 3.1 C 33.8 2.9 33.9 2.8 34.1 2.7 C 34.3 2.6 34.5 2.5 34.7 2.5 C 34.9 2.5 35 2.5 35.2 2.6 C 35.4 2.7 35.6 3.1 35.7 3.6 C 36 4.5 36.5 5.6 37.4 7 C 38.2 8.5 39 9.6 39.7 10.5 C 39.9 9.6 40.1 8.5 40.3 7.1 C 40.5 6.2 40.7 5.3 40.8 4.6 C 40.9 4 41 3.5 41 3 C 41 2.6 41.2 2.3 41.4 2.1 C 41.6 2 41.9 1.9 42.1 1.9 C 42.3 1.9 42.5 2 42.6 2.2 C 42.8 2.5 42.9 2.7 42.9 3.1 C 42.9 3.3 42.8 3.7 42.6 4.2 C 42.3 5.4 42 6.8 41.7 8.6 C 41.4 10.4 41.3 11.5 41.3 11.7 C 41.3 11.7 41.3 12 41.3 12 C 41.3 12.3 41.2 12.5 41.2 12.6 C 41.1 12.8 41 12.9 40.8 13 C 40.6 13.1 40.4 13.2 40.1 13.2 C 39.9 13.2 39.8 13.2 39.7 13.1 C 39.6 13.1 39.5 13 39.4 12.8 C 39.2 12.7 39.1 12.5 38.9 12.2 C 38.7 11.8 38.5 11.5 38.4 11.3 C 37.2 9.8 36 8.1 34.9 6 C 34.8 6.7 34.6 8.1 34.3 10.4 C 34.3 10.4 34.2 11 34.2 11 C 34.1 11.3 34.1 11.6 34.1 12.1 C 34 12.6 33.9 13 33.7 13.2 C 33.5 13.5 33.2 13.6 33 13.6 C 32.7 13.6 32.5 13.5 32.3 13.3 C 32.2 13.2 32.1 12.8 32.1 12.3 C 32.1 11.9 32.2 11.3 32.4 10.6 C 32.44 10.59 32.4 10.5 32.4 10.5 Z M 50.8 10.9 C 51.3 10.6 51.6 10.4 51.8 10.4 C 52.2 10.4 52.4 10.6 52.4 11 C 52.4 11.4 51.8 12 50.7 12.7 C 49.7 13.3 48.6 13.7 47.6 13.7 C 46.7 13.7 45.8 13.4 45.1 12.8 C 44.3 12.2 43.9 11.3 43.9 10.2 C 43.9 9 44.3 7.7 45.1 6.3 C 45.9 4.9 46.9 3.8 48.1 2.9 C 49.3 2 50.4 1.6 51.5 1.6 C 52.2 1.6 52.7 1.8 53.1 2.2 C 53.5 2.6 53.7 3 53.7 3.6 C 53.7 4.1 53.7 4.5 53.6 4.8 C 53.5 5 53.3 5.3 53 5.4 C 52.7 5.6 52.5 5.7 52.3 5.7 C 52.1 5.7 51.9 5.6 51.8 5.5 C 51.7 5.4 51.6 5.2 51.6 5 C 51.6 4.8 51.6 4.6 51.7 4.3 C 51.8 4 51.8 3.7 51.8 3.5 C 51.8 3.2 51.7 3 51.5 3 C 50.8 3 50 3.4 49.1 4.1 C 48.2 4.9 47.4 5.9 46.8 7 C 46.1 8.1 45.8 9.1 45.8 10 C 45.8 10.6 46 11.1 46.3 11.5 C 46.7 11.9 47.1 12.1 47.8 12.1 C 48.2 12.1 48.6 12 49.2 11.8 C 49.8 11.6 50.3 11.3 50.8 10.9 C 50.8 10.9 50.8 10.9 50.8 10.9 Z M 57.2 5.6 C 57.1 6 57.1 6.4 57 6.7 C 57 6.8 57 7.2 56.9 7.8 C 56.7 8.9 56.6 9.6 56.6 10 C 56.6 10.6 56.7 11.3 56.7 11.9 C 56.8 12.4 56.7 12.7 56.5 12.9 C 56.2 13.1 56 13.2 55.7 13.2 C 55.4 13.2 55.1 13.1 55 12.8 C 54.8 12.5 54.7 11.9 54.7 11.2 C 54.7 10.7 54.9 9.6 55.1 7.8 C 55.1 7.8 55.5 4.9 55.5 4.9 C 55.6 4.5 55.6 4.1 55.7 3.7 C 55.7 3.2 55.8 2.8 55.9 2.7 C 56 2.6 56.2 2.5 56.4 2.3 C 56.6 2.2 56.8 2.1 56.9 2.1 C 57.2 2.1 57.4 2.2 57.5 2.5 C 57.7 2.7 57.8 3 57.8 3.3 C 57.8 3.3 57.2 5.6 57.2 5.6 Z M 67.4 3.7 C 67.4 4.5 66.9 5 66 5 C 66 4.5 65.8 4.1 65.6 3.9 C 65.3 3.8 65 3.7 64.5 3.7 C 63.6 3.7 62.8 3.9 62.1 4.3 C 61.4 4.7 61 5.1 61 5.6 C 61 5.9 61.2 6.2 61.4 6.4 C 61.7 6.7 62.4 6.9 63.6 7.3 C 64.7 7.6 65.6 8 66.2 8.4 C 66.8 8.8 67.1 9.3 67.1 9.9 C 67.1 10.8 66.3 11.7 64.9 12.5 C 63.4 13.3 61.9 13.7 60.3 13.7 C 59.8 13.7 59.4 13.6 59.1 13.4 C 58.7 13.2 58.6 12.9 58.6 12.6 C 58.6 12.4 58.7 12.1 58.8 11.9 C 58.9 11.7 59.1 11.6 59.3 11.6 C 59.4 11.6 59.5 11.6 59.6 11.6 C 60.2 11.9 60.6 12 61.1 12 C 61.9 12 62.8 11.8 63.7 11.3 C 64.7 10.9 65.2 10.5 65.2 10 C 65.2 9.9 65.1 9.7 64.8 9.5 C 64.6 9.4 64.1 9.2 63.3 8.9 C 62.3 8.6 61.4 8.3 60.9 8.1 C 60.3 7.8 59.9 7.5 59.7 7.2 C 59.4 6.8 59.2 6.3 59.2 5.8 C 59.2 4.9 59.8 4 60.9 3.2 C 61.9 2.4 63.2 2 64.7 2 C 65.5 2 66.2 2.2 66.7 2.5 C 67.2 2.8 67.4 3.2 67.4 3.7 C 67.4 3.7 67.4 3.7 67.4 3.7 Z M 75.1 10.9 C 75.6 10.6 76 10.4 76.2 10.4 C 76.5 10.4 76.7 10.6 76.7 11 C 76.7 11.4 76.2 12 75.1 12.7 C 74 13.3 72.9 13.7 71.9 13.7 C 71 13.7 70.1 13.4 69.4 12.8 C 68.6 12.2 68.2 11.3 68.2 10.2 C 68.2 9 68.6 7.7 69.4 6.3 C 70.2 4.9 71.2 3.8 72.4 2.9 C 73.6 2 74.7 1.6 75.8 1.6 C 76.5 1.6 77.1 1.8 77.4 2.2 C 77.8 2.6 78 3 78 3.6 C 78 4.1 78 4.5 77.9 4.8 C 77.8 5 77.6 5.3 77.3 5.4 C 77 5.6 76.8 5.7 76.6 5.7 C 76.4 5.7 76.3 5.6 76.1 5.5 C 76 5.4 75.9 5.2 75.9 5 C 75.9 4.8 76 4.6 76 4.3 C 76.1 4 76.2 3.7 76.2 3.5 C 76.2 3.2 76 3 75.8 3 C 75.1 3 74.3 3.4 73.4 4.1 C 72.5 4.9 71.7 5.9 71.1 7 C 70.5 8.1 70.2 9.1 70.2 10 C 70.2 10.6 70.3 11.1 70.7 11.5 C 71 11.9 71.5 12.1 72.1 12.1 C 72.5 12.1 73 12 73.6 11.8 C 74.1 11.6 74.7 11.3 75.1 10.9 C 75.1 10.9 75.1 10.9 75.1 10.9 Z M 81.8 13.5 C 81 13.5 80.2 13.1 79.6 12.3 C 78.9 11.5 78.6 10.7 78.6 9.8 C 78.6 8.8 78.9 7.6 79.6 6.4 C 80.2 5.1 81 4.1 82 3.3 C 82.9 2.5 84 2.1 85 2.1 C 85.9 2.1 86.6 2.2 87.1 2.4 C 87.6 2.6 88.1 2.9 88.6 3.2 C 89.1 3.6 89.4 4 89.5 4.4 C 89.7 4.9 89.7 5.4 89.7 6.1 C 89.7 6.8 89.5 7.5 89.1 8.4 C 88.7 9.3 88.1 10.2 87.4 11 C 86.6 11.8 85.8 12.4 85 12.9 C 84.2 13.3 83.1 13.5 81.8 13.5 Z M 80.5 9.7 C 80.5 10.3 80.7 10.9 81.1 11.3 C 81.4 11.7 81.8 11.9 82.3 11.9 C 83.6 11.9 84.9 11.2 86.1 10 C 87.2 8.7 87.8 7.3 87.8 5.9 C 87.8 5.4 87.7 5 87.5 4.6 C 87.3 4.3 87 4.1 86.5 3.9 C 86.1 3.7 85.6 3.6 85 3.6 C 84.1 3.6 83.1 4.2 82.1 5.6 C 81 7 80.5 8.4 80.5 9.7 Z " stroke="none" fill="#000"/>  </g></svg>