<?xml version="1.0" standalone="no"?><!DOCTYPE svg PUBLIC "-//W3C//DTD SVG 1.1//EN" "http://www.w3.org/Graphics/SVG/1.1/DTD/svg11.dtd"><svg xmlns="http://www.w3.org/2000/svg" version="1.1" width="64px" height="19.9px" viewBox="0 -1 64 19.9" style="top:-1px">  <desc>ENT O QUER DIZER QUE COM O VOTO DISTRITAL CONSEGUIMOS PARTICIPAR E SERMOS CIDAD OS DE VERDADE!!!</desc>  <defs/>  <g id="Polygon14586">    <path d="M 25 13.7 C 25 13.7 25 13.7 25 13.7 C 25 13.7 25 13.7 24.9 13.8 C 24.8 14 24.7 14.1 24.6 14.2 C 24.6 14.3 24.4 14.6 24.2 14.9 C 24.1 15 24.1 15.2 24 15.2 C 23.9 15.3 23.9 15.5 23.9 15.5 C 23.9 15.6 23.8 15.6 23.8 15.6 C 23.7 15.7 23.6 15.7 23.6 15.7 C 23.5 15.7 23.5 15.7 23.5 15.6 C 23.5 15.6 23.4 15.5 23.4 15.3 C 23.3 15.2 23.2 15 23.1 14.7 C 22.9 14.1 22.8 13.8 22.8 13.8 C 22.8 13.8 22.8 13.7 22.8 13.7 C 22.9 13.6 22.9 13.6 23 13.6 C 23 13.6 23.1 13.6 23.1 13.6 C 23.1 13.7 23.2 13.8 23.2 13.9 C 23.2 14 23.3 14.2 23.4 14.5 C 23.5 14.8 23.6 15.1 23.7 15.2 C 23.7 15.2 23.7 15.1 23.8 15 C 23.8 15 23.8 15 23.8 15 C 23.9 14.8 24.1 14.6 24.1 14.4 C 24.3 14.1 24.4 13.9 24.6 13.7 C 24.7 13.6 24.8 13.5 24.8 13.5 C 24.9 13.5 25 13.5 25 13.6 C 25 13.64 25 13.7 25 13.7 C 25 13.7 25 13.65 25 13.7 Z M 26.6 13.9 C 26.6 13.9 26.1 13.9 26.1 13.9 C 26 13.9 25.8 13.9 25.7 13.9 C 25.6 13.9 25.6 14 25.5 14 C 25.5 14 25.5 14 25.5 14.1 C 25.5 14.1 25.5 14.2 25.5 14.3 C 25.4 14.4 25.4 14.5 25.4 14.5 C 25.5 14.5 25.6 14.5 25.7 14.5 C 25.8 14.5 25.9 14.5 25.9 14.5 C 26.1 14.5 26.2 14.4 26.3 14.4 C 26.4 14.4 26.5 14.5 26.5 14.6 C 26.5 14.6 26.5 14.7 26.4 14.7 C 26.4 14.7 26.3 14.8 26.2 14.8 C 26.2 14.8 26.1 14.8 26 14.8 C 26 14.8 26 14.8 25.9 14.8 C 25.6 14.8 25.5 14.9 25.4 14.9 C 25.4 14.9 25.4 14.9 25.4 14.9 C 25.4 14.9 25.4 14.9 25.4 14.9 C 25.4 14.9 25.4 15 25.3 15.1 C 25.3 15.3 25.3 15.4 25.3 15.4 C 25.3 15.4 25.3 15.5 25.4 15.5 C 25.4 15.5 25.6 15.4 25.8 15.4 C 26 15.4 26.1 15.4 26.1 15.4 C 26.3 15.3 26.3 15.3 26.4 15.3 C 26.5 15.3 26.6 15.4 26.6 15.5 C 26.6 15.5 26.6 15.6 26.5 15.6 C 26.4 15.6 26.3 15.7 26.1 15.7 C 26 15.7 25.8 15.7 25.6 15.7 C 25.5 15.8 25.3 15.8 25.2 15.8 C 25.1 15.8 25 15.8 25 15.7 C 24.9 15.7 24.9 15.6 24.9 15.6 C 24.9 15.6 24.9 15.5 24.9 15.5 C 24.9 15.5 24.9 15.5 24.9 15.4 C 25 15.3 25 15.1 25.1 14.6 C 25.1 14.2 25.2 14 25.2 13.9 C 25.2 13.9 25.2 13.9 25.2 13.9 C 25.2 13.9 25.1 13.9 25.1 13.9 C 25.1 13.8 25.1 13.8 25.1 13.8 C 25.1 13.8 25.1 13.8 25.1 13.7 C 25.1 13.7 25.1 13.7 25.2 13.7 C 25.2 13.7 25.2 13.6 25.3 13.6 C 25.3 13.6 25.4 13.7 25.4 13.7 C 25.5 13.7 25.8 13.6 26.2 13.6 C 26.4 13.5 26.4 13.5 26.4 13.5 C 26.4 13.5 26.5 13.5 26.5 13.5 C 26.6 13.5 26.7 13.6 26.7 13.7 C 26.7 13.7 26.7 13.8 26.7 13.8 C 26.6 13.8 26.6 13.9 26.6 13.9 Z M 27.1 13.9 C 27.1 13.9 27.09 13.88 27.1 13.9 C 27.1 13.8 27 13.8 27 13.8 C 27 13.7 27.1 13.7 27.1 13.6 C 27.2 13.6 27.2 13.6 27.2 13.6 C 27.3 13.6 27.3 13.6 27.3 13.6 C 27.3 13.6 27.4 13.6 27.4 13.6 C 27.6 13.6 27.9 13.5 28 13.5 C 28.2 13.5 28.4 13.6 28.5 13.7 C 28.6 13.8 28.7 13.9 28.7 14.1 C 28.7 14.2 28.6 14.4 28.5 14.5 C 28.4 14.6 28.2 14.7 28 14.8 C 28.3 15.1 28.6 15.3 28.8 15.4 C 28.8 15.4 28.9 15.5 28.9 15.5 C 28.9 15.6 28.9 15.6 28.8 15.6 C 28.8 15.7 28.7 15.7 28.7 15.7 C 28.6 15.7 28.6 15.7 28.5 15.6 C 28.4 15.6 28.3 15.5 28.2 15.4 C 28 15.3 28 15.2 28 15.2 C 27.8 15.1 27.6 15 27.6 14.9 C 27.4 14.9 27.4 14.9 27.4 14.8 C 27.4 14.7 27.4 14.7 27.5 14.6 C 27.5 14.6 27.6 14.6 27.6 14.6 C 27.6 14.6 27.7 14.6 27.7 14.6 C 27.7 14.6 27.7 14.6 27.7 14.6 C 27.8 14.6 27.9 14.5 28.1 14.4 C 28.2 14.3 28.3 14.2 28.3 14.1 C 28.3 14 28.3 13.9 28.2 13.9 C 28.1 13.8 28 13.8 27.9 13.8 C 27.8 13.8 27.7 13.8 27.6 13.8 C 27.5 13.9 27.5 13.9 27.5 13.9 C 27.5 13.9 27.5 13.9 27.5 13.9 C 27.5 14 27.4 14.1 27.4 14.2 C 27.4 14.4 27.3 14.6 27.3 14.8 C 27.3 15 27.3 15.2 27.3 15.3 C 27.3 15.3 27.3 15.4 27.3 15.4 C 27.3 15.5 27.3 15.5 27.3 15.6 C 27.3 15.6 27.3 15.6 27.2 15.7 C 27.2 15.7 27.2 15.8 27.1 15.8 C 27 15.8 26.9 15.7 26.9 15.5 C 26.9 15.3 26.9 15.1 27 14.8 C 27 14.6 27 14.3 27.1 14.1 C 27.1 14.1 27.1 14 27.1 14 C 27.09 14.02 27.1 13.9 27.1 13.9 Z M 29.1 15.4 C 29.1 15.4 29.1 15.3 29.1 15.2 C 29.2 14.8 29.2 14.5 29.3 14.1 C 29.3 14 29.3 14 29.3 13.9 C 29.3 13.9 29.3 13.9 29.3 13.9 C 29.2 13.9 29.1 13.8 29.1 13.8 C 29.1 13.7 29.1 13.7 29.2 13.6 C 29.2 13.6 29.2 13.6 29.3 13.6 C 29.3 13.6 29.5 13.6 29.5 13.6 C 29.6 13.6 29.7 13.6 29.9 13.6 C 30 13.5 30.1 13.5 30.2 13.5 C 30.5 13.5 30.7 13.6 30.9 13.8 C 31 13.9 31.1 14.1 31.1 14.4 C 31.1 14.7 31 14.9 30.7 15.1 C 30.5 15.4 30.1 15.5 29.8 15.6 C 29.7 15.6 29.6 15.6 29.6 15.7 C 29.5 15.7 29.5 15.7 29.4 15.7 C 29.4 15.8 29.3 15.8 29.2 15.8 C 29.2 15.8 29.1 15.8 29.1 15.7 C 29.1 15.7 29 15.6 29 15.6 C 29 15.6 29 15.6 29.1 15.5 C 29.1 15.5 29.1 15.4 29.1 15.4 Z M 29.5 15.3 C 29.5 15.3 29.5 15.3 29.5 15.4 C 29.5 15.4 29.7 15.3 29.9 15.3 C 30.2 15.2 30.4 15.1 30.5 14.9 C 30.7 14.7 30.8 14.6 30.8 14.4 C 30.8 14.2 30.7 14.1 30.6 14 C 30.5 13.9 30.3 13.8 30.1 13.8 C 30 13.8 29.9 13.9 29.7 13.9 C 29.7 13.9 29.6 13.9 29.6 13.9 C 29.5 14.5 29.5 15 29.5 15.3 C 29.5 15.3 29.5 15.3 29.5 15.3 Z M 31.7 15.2 C 31.7 15.2 31.6 15.2 31.6 15.2 C 31.6 15.2 31.5 15.3 31.5 15.5 C 31.4 15.6 31.3 15.7 31.3 15.7 C 31.2 15.7 31.2 15.7 31.2 15.7 C 31.2 15.7 31.1 15.7 31.1 15.7 C 31 15.6 31 15.6 31 15.6 C 31 15.5 31.1 15.3 31.4 14.9 C 31.5 14.7 31.6 14.5 31.7 14.3 C 31.9 13.9 32.1 13.7 32.1 13.6 C 32.2 13.6 32.2 13.5 32.3 13.5 C 32.4 13.5 32.4 13.5 32.5 13.6 C 32.5 13.6 32.5 13.6 32.5 13.7 C 32.5 13.7 32.5 13.8 32.5 13.8 C 32.7 14.3 32.8 14.7 32.9 14.9 C 33 15.2 33.1 15.3 33.2 15.4 C 33.3 15.5 33.3 15.5 33.3 15.5 C 33.3 15.6 33.3 15.6 33.3 15.6 C 33.3 15.7 33.3 15.7 33.3 15.7 C 33.2 15.8 33.2 15.8 33.1 15.8 C 33 15.8 33 15.8 32.9 15.7 C 32.8 15.6 32.7 15.5 32.7 15.3 C 32.6 15.2 32.6 15.1 32.6 15.1 C 32.6 15.1 32.6 15.1 32.6 15.1 C 32.5 15.1 32.4 15.1 32.2 15.1 C 32 15.1 31.9 15.2 31.8 15.2 C 31.7 15.2 31.7 15.2 31.7 15.2 C 31.7 15.2 31.7 15.2 31.7 15.2 Z M 32.3 14.8 C 32.4 14.8 32.4 14.8 32.5 14.8 C 32.4 14.7 32.4 14.5 32.2 14.1 C 32.2 14.1 32.2 14.1 32.2 14.1 C 32.2 14.1 31.8 14.9 31.8 14.9 C 31.9 14.9 31.9 14.8 32 14.8 C 32 14.8 32.2 14.8 32.3 14.8 C 32.3 14.8 32.3 14.8 32.3 14.8 Z M 33.6 15.4 C 33.6 15.4 33.6 15.3 33.6 15.2 C 33.6 14.8 33.7 14.5 33.7 14.1 C 33.7 14 33.7 14 33.7 13.9 C 33.7 13.9 33.7 13.9 33.7 13.9 C 33.6 13.9 33.6 13.8 33.6 13.8 C 33.6 13.7 33.6 13.7 33.6 13.6 C 33.7 13.6 33.7 13.6 33.8 13.6 C 33.8 13.6 34 13.6 34 13.6 C 34.1 13.6 34.2 13.6 34.3 13.6 C 34.5 13.5 34.6 13.5 34.7 13.5 C 34.9 13.5 35.2 13.6 35.3 13.8 C 35.5 13.9 35.6 14.1 35.6 14.4 C 35.6 14.7 35.4 14.9 35.2 15.1 C 34.9 15.4 34.6 15.5 34.2 15.6 C 34.1 15.6 34.1 15.6 34 15.7 C 34 15.7 33.9 15.7 33.9 15.7 C 33.8 15.8 33.8 15.8 33.7 15.8 C 33.6 15.8 33.6 15.8 33.6 15.7 C 33.5 15.7 33.5 15.6 33.5 15.6 C 33.5 15.6 33.5 15.6 33.5 15.5 C 33.5 15.5 33.6 15.4 33.6 15.4 Z M 33.9 15.3 C 33.9 15.3 33.9 15.3 34 15.4 C 34 15.4 34.2 15.3 34.4 15.3 C 34.6 15.2 34.8 15.1 35 14.9 C 35.1 14.7 35.2 14.6 35.2 14.4 C 35.2 14.2 35.2 14.1 35.1 14 C 34.9 13.9 34.8 13.8 34.6 13.8 C 34.5 13.8 34.3 13.9 34.2 13.9 C 34.1 13.9 34.1 13.9 34.1 13.9 C 34 14.5 33.9 15 33.9 15.3 C 33.9 15.3 33.9 15.3 33.9 15.3 Z M 37.5 13.9 C 37.5 13.9 37 13.9 37 13.9 C 36.9 13.9 36.7 13.9 36.6 13.9 C 36.5 13.9 36.4 14 36.4 14 C 36.4 14 36.4 14 36.4 14.1 C 36.4 14.1 36.4 14.2 36.4 14.3 C 36.3 14.4 36.3 14.5 36.3 14.5 C 36.4 14.5 36.5 14.5 36.6 14.5 C 36.7 14.5 36.8 14.5 36.8 14.5 C 37 14.5 37.1 14.4 37.2 14.4 C 37.3 14.4 37.4 14.5 37.4 14.6 C 37.4 14.6 37.4 14.7 37.3 14.7 C 37.3 14.7 37.2 14.8 37.1 14.8 C 37.1 14.8 37 14.8 36.9 14.8 C 36.9 14.8 36.9 14.8 36.8 14.8 C 36.5 14.8 36.4 14.9 36.3 14.9 C 36.3 14.9 36.3 14.9 36.3 14.9 C 36.3 14.9 36.3 14.9 36.3 14.9 C 36.3 14.9 36.3 15 36.2 15.1 C 36.2 15.3 36.2 15.4 36.2 15.4 C 36.2 15.4 36.2 15.5 36.3 15.5 C 36.3 15.5 36.4 15.4 36.6 15.4 C 36.8 15.4 37 15.4 37 15.4 C 37.1 15.3 37.2 15.3 37.3 15.3 C 37.4 15.3 37.5 15.4 37.5 15.5 C 37.5 15.5 37.4 15.6 37.4 15.6 C 37.3 15.6 37.2 15.7 37 15.7 C 36.9 15.7 36.7 15.7 36.5 15.7 C 36.4 15.8 36.2 15.8 36 15.8 C 36 15.8 35.9 15.8 35.9 15.7 C 35.8 15.7 35.8 15.6 35.8 15.6 C 35.8 15.6 35.8 15.5 35.8 15.5 C 35.8 15.5 35.8 15.5 35.8 15.4 C 35.9 15.3 35.9 15.1 36 14.6 C 36 14.2 36.1 14 36.1 13.9 C 36.1 13.9 36.1 13.9 36.1 13.9 C 36 13.9 36 13.9 36 13.9 C 36 13.8 36 13.8 36 13.8 C 36 13.8 36 13.8 36 13.7 C 36 13.7 36 13.7 36.1 13.7 C 36.1 13.7 36.1 13.6 36.2 13.6 C 36.2 13.6 36.3 13.7 36.3 13.7 C 36.4 13.7 36.7 13.6 37.1 13.6 C 37.2 13.5 37.3 13.5 37.3 13.5 C 37.3 13.5 37.4 13.5 37.4 13.5 C 37.5 13.5 37.6 13.6 37.6 13.7 C 37.6 13.7 37.6 13.8 37.6 13.8 C 37.5 13.8 37.5 13.9 37.5 13.9 Z M 38.2 14.8 C 38.2 14.9 38.2 14.9 38.1 15 C 38 15 37.9 15 37.9 14.9 C 37.9 14.7 37.9 14.5 37.9 14.3 C 38 14.1 38 13.9 38 13.8 C 38 13.8 38 13.8 38 13.7 C 38 13.6 38.1 13.6 38.1 13.6 C 38.2 13.5 38.2 13.5 38.2 13.5 C 38.3 13.5 38.3 13.5 38.4 13.5 C 38.4 13.6 38.4 13.6 38.4 13.6 C 38.4 13.7 38.4 13.8 38.4 13.9 C 38.3 14.1 38.3 14.3 38.2 14.4 C 38.2 14.6 38.2 14.7 38.2 14.8 C 38.2 14.8 38.2 14.8 38.2 14.8 Z M 37.9 15.6 C 37.8 15.6 37.8 15.6 37.8 15.5 C 37.8 15.4 37.8 15.4 37.8 15.3 C 37.9 15.3 37.9 15.2 38 15.2 C 38 15.2 38 15.2 38.1 15.3 C 38.1 15.3 38.2 15.3 38.2 15.4 C 38.2 15.4 38.1 15.4 38.1 15.4 C 38.1 15.5 38.1 15.6 38.1 15.6 C 38 15.6 38 15.6 37.9 15.6 Z M 39.1 14.8 C 39.1 14.9 39.1 14.9 39 15 C 38.9 15 38.9 15 38.8 14.9 C 38.8 14.7 38.8 14.5 38.8 14.3 C 38.9 14.1 38.9 13.9 38.9 13.8 C 38.9 13.8 38.9 13.8 38.9 13.7 C 38.9 13.6 39 13.6 39 13.6 C 39.1 13.5 39.1 13.5 39.2 13.5 C 39.2 13.5 39.2 13.5 39.3 13.5 C 39.3 13.6 39.3 13.6 39.3 13.6 C 39.3 13.7 39.3 13.8 39.3 13.9 C 39.2 14.1 39.2 14.3 39.1 14.4 C 39.1 14.6 39.1 14.7 39.1 14.8 C 39.1 14.8 39.1 14.8 39.1 14.8 Z M 38.8 15.6 C 38.7 15.6 38.7 15.6 38.7 15.5 C 38.7 15.4 38.7 15.4 38.7 15.3 C 38.8 15.3 38.8 15.2 38.9 15.2 C 38.9 15.2 38.9 15.2 39 15.3 C 39 15.3 39.1 15.3 39.1 15.4 C 39.1 15.4 39.1 15.4 39.1 15.4 C 39 15.5 39 15.6 39 15.6 C 38.9 15.6 38.9 15.6 38.8 15.6 Z M 40 14.8 C 40 14.9 40 14.9 39.9 15 C 39.8 15 39.8 15 39.7 14.9 C 39.7 14.7 39.7 14.5 39.7 14.3 C 39.8 14.1 39.8 13.9 39.8 13.8 C 39.8 13.8 39.8 13.8 39.8 13.7 C 39.8 13.6 39.9 13.6 39.9 13.6 C 40 13.5 40 13.5 40.1 13.5 C 40.1 13.5 40.1 13.5 40.2 13.5 C 40.2 13.6 40.2 13.6 40.2 13.6 C 40.2 13.7 40.2 13.8 40.2 13.9 C 40.1 14.1 40.1 14.3 40 14.4 C 40 14.6 40 14.7 40 14.8 C 40 14.8 40 14.8 40 14.8 Z M 39.7 15.6 C 39.6 15.6 39.6 15.6 39.6 15.5 C 39.6 15.4 39.6 15.4 39.6 15.3 C 39.7 15.3 39.7 15.2 39.8 15.2 C 39.8 15.2 39.8 15.2 39.9 15.3 C 39.9 15.3 40 15.3 40 15.4 C 40 15.4 40 15.4 40 15.4 C 40 15.5 39.9 15.6 39.9 15.6 C 39.8 15.6 39.8 15.6 39.7 15.6 Z " stroke="none" fill="#000"/>  </g>  <g id="Polygon14585">    <path d="M 3.2 11 C 3.1 11 3 11 3 11 C 3 11.2 3 11.4 3 11.6 C 3 11.6 3 11.7 2.9 11.7 C 2.9 11.7 2.9 11.8 2.8 11.8 C 2.7 11.8 2.6 11.7 2.6 11.6 C 2.6 11.5 2.7 11.2 2.7 10.8 C 2.8 10.4 2.8 10.2 2.8 10.1 C 2.8 10 2.8 10 2.8 10 C 2.7 10 2.7 9.9 2.7 9.8 C 2.7 9.7 2.8 9.7 3.1 9.6 C 3.3 9.5 3.6 9.5 3.8 9.5 C 4 9.5 4.2 9.6 4.3 9.6 C 4.4 9.7 4.5 9.9 4.5 10 C 4.5 10.2 4.4 10.4 4.1 10.6 C 3.9 10.8 3.6 10.9 3.2 11 C 3.2 11 3.2 11 3.2 11 Z M 3.7 9.8 C 3.6 9.8 3.4 9.8 3.2 9.9 C 3.2 9.9 3.1 10.7 3.1 10.7 C 3.4 10.6 3.6 10.6 3.8 10.4 C 4 10.3 4.1 10.2 4.1 10 C 4.1 9.9 4 9.8 3.7 9.8 C 3.7 9.8 3.7 9.8 3.7 9.8 Z M 5 11.2 C 5 11.2 4.9 11.2 4.9 11.2 C 4.9 11.2 4.8 11.3 4.8 11.5 C 4.7 11.6 4.6 11.7 4.6 11.7 C 4.5 11.7 4.5 11.7 4.5 11.7 C 4.4 11.7 4.4 11.7 4.4 11.7 C 4.3 11.6 4.3 11.6 4.3 11.6 C 4.3 11.5 4.4 11.3 4.7 10.9 C 4.8 10.7 4.9 10.5 5 10.3 C 5.2 9.9 5.4 9.7 5.4 9.6 C 5.5 9.6 5.5 9.5 5.6 9.5 C 5.7 9.5 5.7 9.5 5.8 9.6 C 5.8 9.6 5.8 9.6 5.8 9.7 C 5.8 9.7 5.8 9.8 5.8 9.8 C 6 10.3 6.1 10.7 6.2 10.9 C 6.3 11.2 6.4 11.3 6.5 11.4 C 6.5 11.5 6.6 11.5 6.6 11.5 C 6.6 11.6 6.6 11.6 6.6 11.6 C 6.6 11.7 6.6 11.7 6.5 11.7 C 6.5 11.8 6.5 11.8 6.4 11.8 C 6.3 11.8 6.3 11.8 6.2 11.7 C 6.1 11.6 6 11.5 6 11.3 C 5.9 11.2 5.9 11.1 5.9 11.1 C 5.9 11.1 5.9 11.1 5.9 11.1 C 5.8 11.1 5.7 11.1 5.5 11.1 C 5.3 11.1 5.2 11.2 5.1 11.2 C 5 11.2 5 11.2 5 11.2 C 5 11.2 5 11.2 5 11.2 Z M 5.6 10.8 C 5.7 10.8 5.7 10.8 5.7 10.8 C 5.7 10.7 5.7 10.5 5.5 10.1 C 5.5 10.1 5.5 10.1 5.5 10.1 C 5.5 10.1 5.1 10.9 5.1 10.9 C 5.2 10.9 5.2 10.8 5.3 10.8 C 5.3 10.8 5.4 10.8 5.6 10.8 C 5.6 10.8 5.6 10.8 5.6 10.8 Z M 7 9.9 C 7 9.9 6.97 9.88 7 9.9 C 6.9 9.8 6.9 9.8 6.9 9.8 C 6.9 9.7 6.9 9.7 7 9.6 C 7 9.6 7.1 9.6 7.1 9.6 C 7.1 9.6 7.2 9.6 7.2 9.6 C 7.2 9.6 7.2 9.6 7.2 9.6 C 7.5 9.6 7.7 9.5 7.8 9.5 C 8.1 9.5 8.2 9.6 8.4 9.7 C 8.5 9.8 8.6 9.9 8.6 10.1 C 8.6 10.2 8.5 10.4 8.4 10.5 C 8.2 10.6 8.1 10.7 7.9 10.8 C 8.2 11.1 8.5 11.3 8.7 11.4 C 8.7 11.4 8.8 11.5 8.8 11.5 C 8.8 11.6 8.7 11.6 8.7 11.6 C 8.6 11.7 8.6 11.7 8.6 11.7 C 8.5 11.7 8.4 11.7 8.4 11.6 C 8.3 11.6 8.2 11.5 8.1 11.4 C 7.9 11.3 7.9 11.2 7.8 11.2 C 7.6 11.1 7.5 11 7.4 10.9 C 7.3 10.9 7.3 10.9 7.3 10.8 C 7.3 10.7 7.3 10.7 7.3 10.6 C 7.4 10.6 7.4 10.6 7.5 10.6 C 7.5 10.6 7.5 10.6 7.6 10.6 C 7.6 10.6 7.6 10.6 7.6 10.6 C 7.7 10.6 7.8 10.5 7.9 10.4 C 8.1 10.3 8.2 10.2 8.2 10.1 C 8.2 10 8.2 9.9 8.1 9.9 C 8 9.8 7.9 9.8 7.8 9.8 C 7.7 9.8 7.6 9.8 7.5 9.8 C 7.4 9.9 7.4 9.9 7.4 9.9 C 7.4 9.9 7.4 9.9 7.3 9.9 C 7.3 10 7.3 10.1 7.3 10.2 C 7.2 10.4 7.2 10.6 7.2 10.8 C 7.2 11 7.2 11.2 7.2 11.3 C 7.2 11.3 7.2 11.4 7.2 11.4 C 7.2 11.5 7.2 11.5 7.2 11.6 C 7.2 11.6 7.2 11.6 7.1 11.7 C 7.1 11.7 7 11.8 7 11.8 C 6.8 11.8 6.8 11.7 6.8 11.5 C 6.8 11.3 6.8 11.1 6.8 10.8 C 6.9 10.6 6.9 10.3 6.9 10.1 C 7 10.1 7 10 7 10 C 6.96 10.02 7 9.9 7 9.9 Z M 10.5 9.9 C 10.3 9.9 10.1 9.9 10 9.9 C 10 9.9 10 10 10 10 C 10 10 10 10.2 9.9 10.5 C 9.9 10.8 9.9 11 9.9 11.2 C 9.9 11.3 9.9 11.4 9.9 11.5 C 9.9 11.5 9.9 11.5 9.9 11.5 C 9.9 11.6 9.9 11.6 9.9 11.7 C 9.8 11.7 9.8 11.7 9.8 11.7 C 9.7 11.7 9.7 11.7 9.6 11.7 C 9.6 11.6 9.6 11.6 9.5 11.5 C 9.5 11.4 9.5 11.3 9.5 11.2 C 9.5 11.1 9.6 10.8 9.6 10.5 C 9.6 10.1 9.7 10 9.7 10 C 9.6 10 9.5 10 9.3 10 C 9.1 10 9 10 9 10 C 8.9 10 8.8 10 8.8 10 C 8.7 9.9 8.7 9.9 8.7 9.9 C 8.7 9.8 8.7 9.8 8.8 9.7 C 8.8 9.7 8.9 9.7 9.1 9.7 C 9.4 9.7 9.7 9.7 9.9 9.6 C 10.2 9.6 10.5 9.6 10.6 9.6 C 10.8 9.6 10.9 9.6 10.9 9.6 C 11 9.7 11 9.7 11 9.8 C 11 9.9 11 9.9 10.9 9.9 C 10.9 9.9 10.8 9.9 10.7 9.9 C 10.7 9.9 10.6 9.9 10.5 9.9 C 10.5 9.9 10.5 9.9 10.5 9.9 Z M 11.4 10.2 C 11.4 10.3 11.3 10.4 11.3 10.4 C 11.3 10.5 11.3 10.5 11.3 10.7 C 11.3 10.9 11.3 11 11.3 11.1 C 11.3 11.2 11.3 11.3 11.3 11.5 C 11.3 11.6 11.3 11.6 11.2 11.7 C 11.2 11.7 11.1 11.7 11.1 11.7 C 11 11.7 11 11.7 10.9 11.6 C 10.9 11.6 10.9 11.5 10.9 11.3 C 10.9 11.2 10.9 11 11 10.7 C 11 10.7 11 10.1 11 10.1 C 11.1 10 11.1 9.9 11.1 9.9 C 11.1 9.7 11.1 9.7 11.1 9.7 C 11.1 9.6 11.2 9.6 11.2 9.6 C 11.2 9.6 11.3 9.5 11.3 9.5 C 11.4 9.5 11.4 9.6 11.4 9.6 C 11.5 9.7 11.5 9.7 11.5 9.8 C 11.5 9.8 11.4 10.2 11.4 10.2 Z M 13 11.3 C 13.1 11.2 13.2 11.2 13.2 11.2 C 13.3 11.2 13.3 11.2 13.3 11.3 C 13.3 11.4 13.2 11.5 13 11.6 C 12.8 11.7 12.6 11.8 12.4 11.8 C 12.2 11.8 12.1 11.7 11.9 11.6 C 11.8 11.5 11.7 11.3 11.7 11.1 C 11.7 10.9 11.8 10.6 11.9 10.4 C 12.1 10.1 12.3 9.9 12.5 9.7 C 12.7 9.5 13 9.4 13.2 9.4 C 13.3 9.4 13.4 9.5 13.5 9.5 C 13.6 9.6 13.6 9.7 13.6 9.8 C 13.6 9.9 13.6 10 13.6 10.1 C 13.6 10.1 13.5 10.2 13.5 10.2 C 13.4 10.2 13.4 10.2 13.3 10.2 C 13.3 10.2 13.3 10.2 13.2 10.2 C 13.2 10.2 13.2 10.1 13.2 10.1 C 13.2 10.1 13.2 10 13.2 10 C 13.2 9.9 13.2 9.9 13.2 9.8 C 13.2 9.7 13.2 9.7 13.2 9.7 C 13 9.7 12.9 9.8 12.7 9.9 C 12.5 10.1 12.4 10.3 12.2 10.5 C 12.1 10.7 12.1 10.9 12.1 11.1 C 12.1 11.2 12.1 11.3 12.2 11.4 C 12.2 11.5 12.3 11.5 12.4 11.5 C 12.5 11.5 12.6 11.5 12.7 11.4 C 12.8 11.4 12.9 11.3 13 11.3 C 13 11.3 13 11.3 13 11.3 Z M 14.3 10.2 C 14.3 10.3 14.3 10.4 14.2 10.4 C 14.2 10.5 14.2 10.5 14.2 10.7 C 14.2 10.9 14.2 11 14.2 11.1 C 14.2 11.2 14.2 11.3 14.2 11.5 C 14.2 11.6 14.2 11.6 14.1 11.7 C 14.1 11.7 14 11.7 14 11.7 C 13.9 11.7 13.9 11.7 13.8 11.6 C 13.8 11.6 13.8 11.5 13.8 11.3 C 13.8 11.2 13.8 11 13.9 10.7 C 13.9 10.7 14 10.1 14 10.1 C 14 10 14 9.9 14 9.9 C 14 9.7 14 9.7 14 9.7 C 14 9.6 14.1 9.6 14.1 9.6 C 14.2 9.6 14.2 9.5 14.2 9.5 C 14.3 9.5 14.3 9.6 14.4 9.6 C 14.4 9.7 14.4 9.7 14.4 9.8 C 14.4 9.8 14.3 10.2 14.3 10.2 Z M 15.3 11 C 15.2 11 15.1 11 15.1 11 C 15.1 11.2 15.1 11.4 15.1 11.6 C 15.1 11.6 15.1 11.7 15 11.7 C 15 11.7 15 11.8 14.9 11.8 C 14.8 11.8 14.7 11.7 14.7 11.6 C 14.7 11.5 14.8 11.2 14.8 10.8 C 14.9 10.4 14.9 10.2 14.9 10.1 C 14.9 10 14.9 10 14.9 10 C 14.8 10 14.8 9.9 14.8 9.8 C 14.8 9.7 14.9 9.7 15.2 9.6 C 15.4 9.5 15.7 9.5 15.8 9.5 C 16.1 9.5 16.2 9.6 16.4 9.6 C 16.5 9.7 16.6 9.9 16.6 10 C 16.6 10.2 16.5 10.4 16.2 10.6 C 16 10.8 15.7 10.9 15.3 11 C 15.3 11 15.3 11 15.3 11 Z M 15.8 9.8 C 15.7 9.8 15.5 9.8 15.3 9.9 C 15.3 9.9 15.2 10.7 15.2 10.7 C 15.4 10.6 15.7 10.6 15.9 10.4 C 16.1 10.3 16.2 10.2 16.2 10 C 16.2 9.9 16.1 9.8 15.8 9.8 C 15.8 9.8 15.8 9.8 15.8 9.8 Z M 17.1 11.2 C 17 11.2 17 11.2 17 11.2 C 17 11.2 16.9 11.3 16.8 11.5 C 16.8 11.6 16.7 11.7 16.7 11.7 C 16.6 11.7 16.6 11.7 16.6 11.7 C 16.5 11.7 16.5 11.7 16.4 11.7 C 16.4 11.6 16.4 11.6 16.4 11.6 C 16.4 11.5 16.5 11.3 16.7 10.9 C 16.9 10.7 17 10.5 17.1 10.3 C 17.3 9.9 17.5 9.7 17.5 9.6 C 17.6 9.6 17.6 9.5 17.7 9.5 C 17.7 9.5 17.8 9.5 17.8 9.6 C 17.9 9.6 17.9 9.6 17.9 9.7 C 17.9 9.7 17.9 9.8 17.9 9.8 C 18 10.3 18.2 10.7 18.3 10.9 C 18.4 11.2 18.5 11.3 18.6 11.4 C 18.6 11.5 18.7 11.5 18.7 11.5 C 18.7 11.6 18.7 11.6 18.7 11.6 C 18.7 11.7 18.7 11.7 18.6 11.7 C 18.6 11.8 18.6 11.8 18.5 11.8 C 18.4 11.8 18.3 11.8 18.3 11.7 C 18.2 11.6 18.1 11.5 18.1 11.3 C 18 11.2 18 11.1 18 11.1 C 18 11.1 18 11.1 17.9 11.1 C 17.9 11.1 17.8 11.1 17.6 11.1 C 17.4 11.1 17.3 11.2 17.2 11.2 C 17.1 11.2 17.1 11.2 17.1 11.2 C 17.1 11.2 17.1 11.2 17.1 11.2 Z M 17.7 10.8 C 17.8 10.8 17.8 10.8 17.8 10.8 C 17.8 10.7 17.7 10.5 17.6 10.1 C 17.6 10.1 17.6 10.1 17.6 10.1 C 17.6 10.1 17.2 10.9 17.2 10.9 C 17.3 10.9 17.3 10.8 17.4 10.8 C 17.4 10.8 17.5 10.8 17.7 10.8 C 17.7 10.8 17.7 10.8 17.7 10.8 Z M 19.1 9.9 C 19.1 9.9 19.06 9.88 19.1 9.9 C 19 9.8 19 9.8 19 9.8 C 19 9.7 19 9.7 19.1 9.6 C 19.1 9.6 19.2 9.6 19.2 9.6 C 19.2 9.6 19.3 9.6 19.3 9.6 C 19.3 9.6 19.3 9.6 19.3 9.6 C 19.6 9.6 19.8 9.5 19.9 9.5 C 20.2 9.5 20.3 9.6 20.5 9.7 C 20.6 9.8 20.6 9.9 20.6 10.1 C 20.6 10.2 20.6 10.4 20.5 10.5 C 20.3 10.6 20.2 10.7 20 10.8 C 20.3 11.1 20.6 11.3 20.7 11.4 C 20.8 11.4 20.8 11.5 20.8 11.5 C 20.8 11.6 20.8 11.6 20.8 11.6 C 20.7 11.7 20.7 11.7 20.6 11.7 C 20.6 11.7 20.5 11.7 20.5 11.6 C 20.4 11.6 20.3 11.5 20.1 11.4 C 20 11.3 19.9 11.2 19.9 11.2 C 19.7 11.1 19.6 11 19.5 10.9 C 19.4 10.9 19.4 10.9 19.4 10.8 C 19.4 10.7 19.4 10.7 19.4 10.6 C 19.5 10.6 19.5 10.6 19.6 10.6 C 19.6 10.6 19.6 10.6 19.6 10.6 C 19.7 10.6 19.7 10.6 19.7 10.6 C 19.7 10.6 19.9 10.5 20 10.4 C 20.2 10.3 20.3 10.2 20.3 10.1 C 20.3 10 20.2 9.9 20.2 9.9 C 20.1 9.8 20 9.8 19.9 9.8 C 19.8 9.8 19.7 9.8 19.6 9.8 C 19.5 9.9 19.5 9.9 19.5 9.9 C 19.5 9.9 19.4 9.9 19.4 9.9 C 19.4 10 19.4 10.1 19.4 10.2 C 19.3 10.4 19.3 10.6 19.3 10.8 C 19.3 11 19.2 11.2 19.2 11.3 C 19.2 11.3 19.2 11.4 19.3 11.4 C 19.3 11.5 19.3 11.5 19.3 11.6 C 19.3 11.6 19.2 11.6 19.2 11.7 C 19.2 11.7 19.1 11.8 19.1 11.8 C 18.9 11.8 18.9 11.7 18.9 11.5 C 18.9 11.3 18.9 11.1 18.9 10.8 C 19 10.6 19 10.3 19 10.1 C 19 10.1 19 10 19.1 10 C 19.05 10.02 19.1 9.9 19.1 9.9 Z M 23.8 9.9 C 23.8 9.9 23.4 9.9 23.4 9.9 C 23.2 9.9 23.1 9.9 22.9 9.9 C 22.8 9.9 22.8 10 22.8 10 C 22.8 10 22.7 10 22.7 10.1 C 22.7 10.1 22.7 10.2 22.7 10.3 C 22.7 10.4 22.6 10.5 22.6 10.5 C 22.7 10.5 22.8 10.5 22.9 10.5 C 23 10.5 23.1 10.5 23.2 10.5 C 23.3 10.5 23.4 10.4 23.5 10.4 C 23.6 10.4 23.7 10.5 23.7 10.6 C 23.7 10.6 23.7 10.7 23.7 10.7 C 23.6 10.7 23.5 10.8 23.5 10.8 C 23.4 10.8 23.3 10.8 23.3 10.8 C 23.2 10.8 23.2 10.8 23.1 10.8 C 22.9 10.8 22.7 10.9 22.6 10.9 C 22.6 10.9 22.6 10.9 22.6 10.9 C 22.6 10.9 22.6 10.9 22.6 10.9 C 22.6 10.9 22.6 11 22.6 11.1 C 22.5 11.3 22.5 11.4 22.5 11.4 C 22.5 11.4 22.6 11.5 22.6 11.5 C 22.6 11.5 22.8 11.4 23 11.4 C 23.2 11.4 23.3 11.4 23.3 11.4 C 23.5 11.3 23.6 11.3 23.6 11.3 C 23.7 11.3 23.8 11.4 23.8 11.5 C 23.8 11.5 23.8 11.6 23.7 11.6 C 23.6 11.6 23.5 11.7 23.3 11.7 C 23.2 11.7 23 11.7 22.9 11.7 C 22.7 11.8 22.5 11.8 22.4 11.8 C 22.3 11.8 22.2 11.8 22.2 11.7 C 22.2 11.7 22.1 11.6 22.1 11.6 C 22.1 11.6 22.1 11.5 22.1 11.5 C 22.1 11.5 22.1 11.5 22.2 11.4 C 22.2 11.3 22.2 11.1 22.3 10.6 C 22.4 10.2 22.4 10 22.4 9.9 C 22.4 9.9 22.4 9.9 22.4 9.9 C 22.4 9.9 22.4 9.9 22.3 9.9 C 22.3 9.8 22.3 9.8 22.3 9.8 C 22.3 9.8 22.3 9.8 22.3 9.7 C 22.3 9.7 22.3 9.7 22.4 9.7 C 22.4 9.7 22.5 9.6 22.5 9.6 C 22.5 9.6 22.6 9.7 22.6 9.7 C 22.7 9.7 23 9.6 23.4 9.6 C 23.6 9.5 23.7 9.5 23.7 9.5 C 23.7 9.5 23.7 9.5 23.7 9.5 C 23.9 9.5 23.9 9.6 23.9 9.7 C 23.9 9.7 23.9 9.8 23.9 9.8 C 23.9 9.8 23.8 9.9 23.8 9.9 Z M 26.9 9.8 C 26.9 10 26.8 10.1 26.6 10.1 C 26.6 10 26.6 9.9 26.5 9.9 C 26.5 9.9 26.4 9.8 26.3 9.8 C 26.1 9.8 26 9.9 25.9 10 C 25.7 10 25.6 10.1 25.6 10.2 C 25.6 10.3 25.7 10.3 25.7 10.4 C 25.8 10.4 25.9 10.5 26.1 10.5 C 26.4 10.6 26.5 10.7 26.7 10.8 C 26.8 10.9 26.8 10.9 26.8 11.1 C 26.8 11.3 26.7 11.4 26.4 11.6 C 26.1 11.7 25.8 11.8 25.5 11.8 C 25.4 11.8 25.3 11.8 25.3 11.8 C 25.2 11.7 25.2 11.7 25.2 11.6 C 25.2 11.5 25.2 11.5 25.2 11.5 C 25.2 11.4 25.3 11.4 25.3 11.4 C 25.3 11.4 25.3 11.4 25.4 11.4 C 25.5 11.5 25.6 11.5 25.7 11.5 C 25.8 11.5 26 11.4 26.2 11.3 C 26.4 11.3 26.5 11.2 26.5 11.1 C 26.5 11.1 26.4 11 26.4 11 C 26.3 11 26.2 10.9 26.1 10.9 C 25.9 10.8 25.7 10.8 25.6 10.7 C 25.5 10.7 25.4 10.6 25.4 10.5 C 25.3 10.5 25.3 10.4 25.3 10.3 C 25.3 10.1 25.4 9.9 25.6 9.8 C 25.8 9.6 26.1 9.5 26.4 9.5 C 26.5 9.5 26.7 9.6 26.7 9.6 C 26.8 9.7 26.9 9.8 26.9 9.8 C 26.9 9.8 26.9 9.8 26.9 9.8 Z M 28.8 9.9 C 28.8 9.9 28.3 9.9 28.3 9.9 C 28.2 9.9 28 9.9 27.9 9.9 C 27.8 9.9 27.7 10 27.7 10 C 27.7 10 27.7 10 27.7 10.1 C 27.7 10.1 27.7 10.2 27.7 10.3 C 27.6 10.4 27.6 10.5 27.6 10.5 C 27.7 10.5 27.8 10.5 27.9 10.5 C 28 10.5 28.1 10.5 28.1 10.5 C 28.3 10.5 28.4 10.4 28.5 10.4 C 28.6 10.4 28.7 10.5 28.7 10.6 C 28.7 10.6 28.7 10.7 28.6 10.7 C 28.6 10.7 28.5 10.8 28.4 10.8 C 28.4 10.8 28.3 10.8 28.2 10.8 C 28.2 10.8 28.2 10.8 28.1 10.8 C 27.8 10.8 27.7 10.9 27.6 10.9 C 27.6 10.9 27.6 10.9 27.6 10.9 C 27.6 10.9 27.6 10.9 27.6 10.9 C 27.6 10.9 27.6 11 27.5 11.1 C 27.5 11.3 27.5 11.4 27.5 11.4 C 27.5 11.4 27.5 11.5 27.6 11.5 C 27.6 11.5 27.7 11.4 27.9 11.4 C 28.1 11.4 28.3 11.4 28.3 11.4 C 28.4 11.3 28.5 11.3 28.6 11.3 C 28.7 11.3 28.8 11.4 28.8 11.5 C 28.8 11.5 28.7 11.6 28.7 11.6 C 28.6 11.6 28.5 11.7 28.3 11.7 C 28.2 11.7 28 11.7 27.8 11.7 C 27.7 11.8 27.5 11.8 27.3 11.8 C 27.3 11.8 27.2 11.8 27.2 11.7 C 27.1 11.7 27.1 11.6 27.1 11.6 C 27.1 11.6 27.1 11.5 27.1 11.5 C 27.1 11.5 27.1 11.5 27.1 11.4 C 27.2 11.3 27.2 11.1 27.3 10.6 C 27.3 10.2 27.4 10 27.4 9.9 C 27.4 9.9 27.4 9.9 27.4 9.9 C 27.3 9.9 27.3 9.9 27.3 9.9 C 27.3 9.8 27.3 9.8 27.3 9.8 C 27.3 9.8 27.3 9.8 27.3 9.7 C 27.3 9.7 27.3 9.7 27.4 9.7 C 27.4 9.7 27.4 9.6 27.5 9.6 C 27.5 9.6 27.6 9.7 27.6 9.7 C 27.7 9.7 28 9.6 28.4 9.6 C 28.5 9.5 28.6 9.5 28.6 9.5 C 28.6 9.5 28.7 9.5 28.7 9.5 C 28.8 9.5 28.9 9.6 28.9 9.7 C 28.9 9.7 28.9 9.8 28.9 9.8 C 28.8 9.8 28.8 9.9 28.8 9.9 Z M 29.3 9.9 C 29.3 9.9 29.28 9.88 29.3 9.9 C 29.2 9.8 29.2 9.8 29.2 9.8 C 29.2 9.7 29.3 9.7 29.3 9.6 C 29.4 9.6 29.4 9.6 29.4 9.6 C 29.5 9.6 29.5 9.6 29.5 9.6 C 29.5 9.6 29.5 9.6 29.6 9.6 C 29.8 9.6 30 9.5 30.2 9.5 C 30.4 9.5 30.5 9.6 30.7 9.7 C 30.8 9.8 30.9 9.9 30.9 10.1 C 30.9 10.2 30.8 10.4 30.7 10.5 C 30.6 10.6 30.4 10.7 30.2 10.8 C 30.5 11.1 30.8 11.3 31 11.4 C 31 11.4 31.1 11.5 31.1 11.5 C 31.1 11.6 31 11.6 31 11.6 C 31 11.7 30.9 11.7 30.9 11.7 C 30.8 11.7 30.8 11.7 30.7 11.6 C 30.6 11.6 30.5 11.5 30.4 11.4 C 30.2 11.3 30.2 11.2 30.1 11.2 C 30 11.1 29.8 11 29.7 10.9 C 29.6 10.9 29.6 10.9 29.6 10.8 C 29.6 10.7 29.6 10.7 29.7 10.6 C 29.7 10.6 29.8 10.6 29.8 10.6 C 29.8 10.6 29.8 10.6 29.9 10.6 C 29.9 10.6 29.9 10.6 29.9 10.6 C 30 10.6 30.1 10.5 30.3 10.4 C 30.4 10.3 30.5 10.2 30.5 10.1 C 30.5 10 30.5 9.9 30.4 9.9 C 30.3 9.8 30.2 9.8 30.1 9.8 C 30 9.8 29.9 9.8 29.8 9.8 C 29.7 9.9 29.7 9.9 29.7 9.9 C 29.7 9.9 29.7 9.9 29.7 9.9 C 29.6 10 29.6 10.1 29.6 10.2 C 29.6 10.4 29.5 10.6 29.5 10.8 C 29.5 11 29.5 11.2 29.5 11.3 C 29.5 11.3 29.5 11.4 29.5 11.4 C 29.5 11.5 29.5 11.5 29.5 11.6 C 29.5 11.6 29.5 11.6 29.4 11.7 C 29.4 11.7 29.3 11.8 29.3 11.8 C 29.2 11.8 29.1 11.7 29.1 11.5 C 29.1 11.3 29.1 11.1 29.1 10.8 C 29.2 10.6 29.2 10.3 29.3 10.1 C 29.3 10.1 29.3 10 29.3 10 C 29.28 10.02 29.3 9.9 29.3 9.9 Z M 33.3 10.2 C 33.3 10.1 33.3 10.1 33.3 10.1 C 33.3 10.1 32.8 10.7 32.8 10.7 C 32.6 11 32.4 11.2 32.3 11.2 C 32.2 11.2 32.2 11.2 32.1 11.1 C 32.1 11 32 10.9 32 10.8 C 31.9 10.7 31.9 10.6 31.9 10.5 C 31.9 10.3 31.8 10.3 31.8 10.2 C 31.8 10.2 31.7 10.6 31.7 10.6 C 31.7 10.7 31.7 10.8 31.7 10.9 C 31.6 11.1 31.6 11.2 31.6 11.3 C 31.6 11.5 31.5 11.6 31.5 11.6 C 31.5 11.7 31.5 11.7 31.5 11.7 C 31.4 11.8 31.4 11.8 31.4 11.8 C 31.3 11.8 31.3 11.7 31.2 11.7 C 31.2 11.7 31.2 11.6 31.2 11.6 C 31.2 11.5 31.2 11.4 31.2 11.2 C 31.4 10.6 31.5 10.3 31.5 10.1 C 31.5 10 31.5 9.8 31.5 9.7 C 31.5 9.7 31.6 9.6 31.6 9.6 C 31.6 9.6 31.7 9.6 31.8 9.6 C 31.8 9.6 31.9 9.6 31.9 9.6 C 31.9 9.7 32 9.7 32 9.8 C 31.98 9.78 32 9.8 32 9.8 C 32 9.8 32.18 10.35 32.2 10.3 C 32.3 10.6 32.3 10.7 32.3 10.8 C 32.5 10.7 32.6 10.5 32.8 10.2 C 33 9.9 33.2 9.7 33.2 9.6 C 33.3 9.6 33.4 9.5 33.4 9.5 C 33.4 9.5 33.5 9.5 33.6 9.6 C 33.6 9.6 33.6 9.7 33.6 9.7 C 33.6 9.7 33.6 9.9 33.6 10.1 C 33.6 10.3 33.5 10.5 33.5 10.8 C 33.5 11 33.5 11.1 33.5 11.2 C 33.5 11.2 33.5 11.3 33.5 11.4 C 33.5 11.4 33.5 11.4 33.5 11.5 C 33.5 11.6 33.5 11.6 33.5 11.7 C 33.4 11.7 33.4 11.7 33.3 11.7 C 33.2 11.7 33.1 11.6 33.1 11.4 C 33.1 11.3 33.1 11 33.2 10.8 C 33.2 10.5 33.2 10.3 33.3 10.2 C 33.3 10.2 33.3 10.2 33.3 10.2 Z M 34.6 11.8 C 34.4 11.8 34.3 11.7 34.1 11.5 C 34 11.4 33.9 11.2 33.9 11 C 33.9 10.8 34 10.6 34.1 10.4 C 34.2 10.1 34.4 9.9 34.6 9.8 C 34.8 9.6 35 9.5 35.2 9.5 C 35.4 9.5 35.5 9.6 35.6 9.6 C 35.7 9.6 35.8 9.7 35.9 9.8 C 36 9.8 36 9.9 36.1 10 C 36.1 10.1 36.1 10.2 36.1 10.3 C 36.1 10.5 36.1 10.6 36 10.8 C 35.9 11 35.8 11.1 35.6 11.3 C 35.5 11.4 35.3 11.6 35.2 11.6 C 35 11.7 34.8 11.8 34.6 11.8 Z M 34.3 11 C 34.3 11.2 34.3 11.3 34.4 11.3 C 34.5 11.4 34.6 11.5 34.7 11.5 C 34.9 11.5 35.2 11.3 35.4 11.1 C 35.6 10.8 35.7 10.6 35.7 10.3 C 35.7 10.2 35.7 10.1 35.7 10 C 35.6 10 35.6 9.9 35.5 9.9 C 35.4 9.8 35.3 9.8 35.2 9.8 C 35 9.8 34.8 10 34.6 10.2 C 34.4 10.5 34.3 10.8 34.3 11 Z M 38 9.8 C 38 10 37.9 10.1 37.7 10.1 C 37.7 10 37.7 9.9 37.6 9.9 C 37.6 9.9 37.5 9.8 37.4 9.8 C 37.2 9.8 37.1 9.9 36.9 10 C 36.8 10 36.7 10.1 36.7 10.2 C 36.7 10.3 36.7 10.3 36.8 10.4 C 36.8 10.4 37 10.5 37.2 10.5 C 37.4 10.6 37.6 10.7 37.7 10.8 C 37.8 10.9 37.9 10.9 37.9 11.1 C 37.9 11.3 37.8 11.4 37.5 11.6 C 37.2 11.7 36.9 11.8 36.6 11.8 C 36.5 11.8 36.4 11.8 36.3 11.8 C 36.3 11.7 36.2 11.7 36.2 11.6 C 36.2 11.5 36.3 11.5 36.3 11.5 C 36.3 11.4 36.3 11.4 36.4 11.4 C 36.4 11.4 36.4 11.4 36.4 11.4 C 36.5 11.5 36.6 11.5 36.7 11.5 C 36.9 11.5 37.1 11.4 37.2 11.3 C 37.4 11.3 37.5 11.2 37.5 11.1 C 37.5 11.1 37.5 11 37.5 11 C 37.4 11 37.3 10.9 37.2 10.9 C 37 10.8 36.8 10.8 36.7 10.7 C 36.6 10.7 36.5 10.6 36.4 10.5 C 36.4 10.5 36.4 10.4 36.4 10.3 C 36.4 10.1 36.5 9.9 36.7 9.8 C 36.9 9.6 37.1 9.5 37.4 9.5 C 37.6 9.5 37.7 9.6 37.8 9.6 C 37.9 9.7 38 9.8 38 9.8 C 38 9.8 38 9.8 38 9.8 Z M 40.6 11.3 C 40.7 11.2 40.8 11.2 40.8 11.2 C 40.9 11.2 40.9 11.2 40.9 11.3 C 40.9 11.4 40.8 11.5 40.6 11.6 C 40.4 11.7 40.2 11.8 40 11.8 C 39.8 11.8 39.6 11.7 39.5 11.6 C 39.3 11.5 39.3 11.3 39.3 11.1 C 39.3 10.9 39.3 10.6 39.5 10.4 C 39.7 10.1 39.9 9.9 40.1 9.7 C 40.3 9.5 40.5 9.4 40.8 9.4 C 40.9 9.4 41 9.5 41.1 9.5 C 41.1 9.6 41.2 9.7 41.2 9.8 C 41.2 9.9 41.2 10 41.2 10.1 C 41.1 10.1 41.1 10.2 41 10.2 C 41 10.2 40.9 10.2 40.9 10.2 C 40.9 10.2 40.8 10.2 40.8 10.2 C 40.8 10.2 40.8 10.1 40.8 10.1 C 40.8 10.1 40.8 10 40.8 10 C 40.8 9.9 40.8 9.9 40.8 9.8 C 40.8 9.7 40.8 9.7 40.8 9.7 C 40.6 9.7 40.5 9.8 40.3 9.9 C 40.1 10.1 40 10.3 39.8 10.5 C 39.7 10.7 39.6 10.9 39.6 11.1 C 39.6 11.2 39.7 11.3 39.7 11.4 C 39.8 11.5 39.9 11.5 40 11.5 C 40.1 11.5 40.2 11.5 40.3 11.4 C 40.4 11.4 40.5 11.3 40.6 11.3 C 40.6 11.3 40.6 11.3 40.6 11.3 Z M 41.9 10.2 C 41.9 10.3 41.8 10.4 41.8 10.4 C 41.8 10.5 41.8 10.5 41.8 10.7 C 41.8 10.9 41.8 11 41.8 11.1 C 41.8 11.2 41.8 11.3 41.8 11.5 C 41.8 11.6 41.8 11.6 41.7 11.7 C 41.7 11.7 41.6 11.7 41.6 11.7 C 41.5 11.7 41.5 11.7 41.4 11.6 C 41.4 11.6 41.4 11.5 41.4 11.3 C 41.4 11.2 41.4 11 41.5 10.7 C 41.5 10.7 41.5 10.1 41.5 10.1 C 41.6 10 41.6 9.9 41.6 9.9 C 41.6 9.7 41.6 9.7 41.6 9.7 C 41.6 9.6 41.7 9.6 41.7 9.6 C 41.8 9.6 41.8 9.5 41.8 9.5 C 41.9 9.5 41.9 9.6 41.9 9.6 C 42 9.7 42 9.7 42 9.8 C 42 9.8 41.9 10.2 41.9 10.2 Z M 42.3 11.4 C 42.3 11.4 42.3 11.3 42.3 11.2 C 42.4 10.8 42.4 10.5 42.5 10.1 C 42.5 10 42.5 10 42.5 9.9 C 42.5 9.9 42.5 9.9 42.5 9.9 C 42.4 9.9 42.3 9.8 42.3 9.8 C 42.3 9.7 42.3 9.7 42.4 9.6 C 42.4 9.6 42.5 9.6 42.5 9.6 C 42.5 9.6 42.7 9.6 42.7 9.6 C 42.8 9.6 42.9 9.6 43.1 9.6 C 43.2 9.5 43.3 9.5 43.4 9.5 C 43.7 9.5 43.9 9.6 44.1 9.8 C 44.2 9.9 44.3 10.1 44.3 10.4 C 44.3 10.7 44.2 10.9 43.9 11.1 C 43.7 11.4 43.4 11.5 43 11.6 C 42.9 11.6 42.8 11.6 42.8 11.7 C 42.7 11.7 42.7 11.7 42.6 11.7 C 42.6 11.8 42.5 11.8 42.4 11.8 C 42.4 11.8 42.4 11.8 42.3 11.7 C 42.3 11.7 42.3 11.6 42.3 11.6 C 42.3 11.6 42.3 11.6 42.3 11.5 C 42.3 11.5 42.3 11.4 42.3 11.4 Z M 42.7 11.3 C 42.7 11.3 42.7 11.3 42.7 11.4 C 42.8 11.4 42.9 11.3 43.1 11.3 C 43.4 11.2 43.6 11.1 43.7 10.9 C 43.9 10.7 44 10.6 44 10.4 C 44 10.2 43.9 10.1 43.8 10 C 43.7 9.9 43.5 9.8 43.4 9.8 C 43.2 9.8 43.1 9.9 42.9 9.9 C 42.9 9.9 42.9 9.9 42.9 9.9 C 42.7 10.5 42.7 11 42.7 11.3 C 42.7 11.3 42.7 11.3 42.7 11.3 Z M 44.9 11.2 C 44.9 11.2 44.8 11.2 44.8 11.2 C 44.8 11.2 44.8 11.3 44.7 11.5 C 44.6 11.6 44.5 11.7 44.5 11.7 C 44.5 11.7 44.4 11.7 44.4 11.7 C 44.4 11.7 44.3 11.7 44.3 11.7 C 44.2 11.6 44.2 11.6 44.2 11.6 C 44.2 11.5 44.3 11.3 44.6 10.9 C 44.7 10.7 44.8 10.5 44.9 10.3 C 45.2 9.9 45.3 9.7 45.3 9.6 C 45.4 9.6 45.4 9.5 45.5 9.5 C 45.6 9.5 45.6 9.5 45.7 9.6 C 45.7 9.6 45.7 9.6 45.7 9.7 C 45.7 9.7 45.7 9.8 45.7 9.8 C 45.9 10.3 46 10.7 46.1 10.9 C 46.2 11.2 46.3 11.3 46.4 11.4 C 46.5 11.5 46.5 11.5 46.5 11.5 C 46.5 11.6 46.5 11.6 46.5 11.6 C 46.5 11.7 46.5 11.7 46.5 11.7 C 46.4 11.8 46.4 11.8 46.3 11.8 C 46.3 11.8 46.2 11.8 46.1 11.7 C 46 11.6 46 11.5 45.9 11.3 C 45.8 11.2 45.8 11.1 45.8 11.1 C 45.8 11.1 45.8 11.1 45.8 11.1 C 45.7 11.1 45.6 11.1 45.4 11.1 C 45.2 11.1 45.1 11.2 45 11.2 C 45 11.2 44.9 11.2 44.9 11.2 C 44.9 11.2 44.9 11.2 44.9 11.2 Z M 45.5 10.8 C 45.6 10.8 45.6 10.8 45.7 10.8 C 45.6 10.7 45.6 10.5 45.5 10.1 C 45.5 10.1 45.4 10.1 45.4 10.1 C 45.4 10.1 45 10.9 45 10.9 C 45.1 10.9 45.2 10.8 45.2 10.8 C 45.3 10.8 45.4 10.8 45.5 10.8 C 45.5 10.8 45.5 10.8 45.5 10.8 Z M 46.8 11.4 C 46.8 11.4 46.8 11.3 46.8 11.2 C 46.8 10.8 46.9 10.5 46.9 10.1 C 47 10 47 10 47 9.9 C 47 9.9 47 9.9 46.9 9.9 C 46.8 9.9 46.8 9.8 46.8 9.8 C 46.8 9.7 46.8 9.7 46.8 9.6 C 46.9 9.6 46.9 9.6 47 9.6 C 47 9.6 47.2 9.6 47.2 9.6 C 47.3 9.6 47.4 9.6 47.5 9.6 C 47.7 9.5 47.8 9.5 47.9 9.5 C 48.1 9.5 48.4 9.6 48.5 9.8 C 48.7 9.9 48.8 10.1 48.8 10.4 C 48.8 10.7 48.7 10.9 48.4 11.1 C 48.1 11.4 47.8 11.5 47.5 11.6 C 47.4 11.6 47.3 11.6 47.2 11.7 C 47.2 11.7 47.2 11.7 47.1 11.7 C 47 11.8 47 11.8 46.9 11.8 C 46.9 11.8 46.8 11.8 46.8 11.7 C 46.7 11.7 46.7 11.6 46.7 11.6 C 46.7 11.6 46.7 11.6 46.8 11.5 C 46.8 11.5 46.8 11.4 46.8 11.4 Z M 47.2 11.3 C 47.2 11.3 47.2 11.3 47.2 11.4 C 47.2 11.4 47.4 11.3 47.6 11.3 C 47.9 11.2 48.1 11.1 48.2 10.9 C 48.4 10.7 48.4 10.6 48.4 10.4 C 48.4 10.2 48.4 10.1 48.3 10 C 48.2 9.9 48 9.8 47.8 9.8 C 47.7 9.8 47.5 9.9 47.4 9.9 C 47.3 9.9 47.3 9.9 47.3 9.9 C 47.2 10.5 47.2 11 47.2 11.3 C 47.2 11.3 47.2 11.3 47.2 11.3 Z M 49.4 11.2 C 49.3 11.2 49.3 11.2 49.3 11.2 C 49.3 11.2 49.2 11.3 49.1 11.5 C 49.1 11.6 49 11.7 49 11.7 C 48.9 11.7 48.9 11.7 48.9 11.7 C 48.8 11.7 48.8 11.7 48.7 11.7 C 48.7 11.6 48.7 11.6 48.7 11.6 C 48.7 11.5 48.8 11.3 49 10.9 C 49.2 10.7 49.3 10.5 49.4 10.3 C 49.6 9.9 49.8 9.7 49.8 9.6 C 49.9 9.6 49.9 9.5 50 9.5 C 50 9.5 50.1 9.5 50.1 9.6 C 50.2 9.6 50.2 9.6 50.2 9.7 C 50.2 9.7 50.2 9.8 50.2 9.8 C 50.3 10.3 50.5 10.7 50.6 10.9 C 50.7 11.2 50.8 11.3 50.9 11.4 C 50.9 11.5 51 11.5 51 11.5 C 51 11.6 51 11.6 51 11.6 C 51 11.7 51 11.7 50.9 11.7 C 50.9 11.8 50.9 11.8 50.8 11.8 C 50.7 11.8 50.7 11.8 50.6 11.7 C 50.5 11.6 50.4 11.5 50.4 11.3 C 50.3 11.2 50.3 11.1 50.3 11.1 C 50.3 11.1 50.3 11.1 50.2 11.1 C 50.2 11.1 50.1 11.1 49.9 11.1 C 49.7 11.1 49.6 11.2 49.5 11.2 C 49.4 11.2 49.4 11.2 49.4 11.2 C 49.4 11.2 49.4 11.2 49.4 11.2 Z M 50 10.8 C 50.1 10.8 50.1 10.8 50.1 10.8 C 50.1 10.7 50 10.5 49.9 10.1 C 49.9 10.1 49.9 10.1 49.9 10.1 C 49.9 10.1 49.5 10.9 49.5 10.9 C 49.6 10.9 49.6 10.8 49.7 10.8 C 49.7 10.8 49.8 10.8 50 10.8 C 50 10.8 50 10.8 50 10.8 Z M 50.3 9.2 C 50.3 9.2 50.2 9.2 50.1 9.2 C 50.1 9.2 50.1 9.1 50 9.1 C 50 9.1 50 9.1 50 9.1 C 50 9.1 50 9.1 50 9 C 49.9 9 49.9 9 49.8 9 C 49.8 9 49.7 9 49.7 9.1 C 49.7 9.1 49.7 9.1 49.7 9.1 C 49.6 9.2 49.6 9.2 49.5 9.2 C 49.5 9.2 49.5 9.3 49.5 9.3 C 49.4 9.3 49.3 9.2 49.3 9.1 C 49.3 9.1 49.4 9 49.5 8.9 C 49.6 8.7 49.7 8.7 49.8 8.7 C 49.9 8.7 49.9 8.7 50 8.7 C 50 8.7 50 8.8 50.1 8.8 C 50.2 8.9 50.2 8.9 50.2 8.9 C 50.3 9 50.3 9 50.3 9 C 50.4 9 50.4 8.9 50.4 8.9 C 50.5 8.8 50.5 8.8 50.5 8.8 C 50.5 8.8 50.5 8.8 50.5 8.8 C 50.5 8.7 50.6 8.7 50.6 8.7 C 50.7 8.7 50.7 8.8 50.7 8.8 C 50.7 8.9 50.7 9 50.6 9.1 C 50.5 9.2 50.4 9.2 50.3 9.2 C 50.3 9.2 50.3 9.2 50.3 9.2 Z M 51.7 11.8 C 51.6 11.8 51.4 11.7 51.3 11.5 C 51.2 11.4 51.1 11.2 51.1 11 C 51.1 10.8 51.1 10.6 51.3 10.4 C 51.4 10.1 51.6 9.9 51.7 9.8 C 51.9 9.6 52.1 9.5 52.3 9.5 C 52.5 9.5 52.6 9.6 52.8 9.6 C 52.9 9.6 53 9.7 53 9.8 C 53.1 9.8 53.2 9.9 53.2 10 C 53.3 10.1 53.3 10.2 53.3 10.3 C 53.3 10.5 53.2 10.6 53.1 10.8 C 53.1 11 53 11.1 52.8 11.3 C 52.6 11.4 52.5 11.6 52.3 11.6 C 52.2 11.7 52 11.8 51.7 11.8 Z M 51.5 11 C 51.5 11.2 51.5 11.3 51.6 11.3 C 51.6 11.4 51.7 11.5 51.8 11.5 C 52.1 11.5 52.3 11.3 52.5 11.1 C 52.8 10.8 52.9 10.6 52.9 10.3 C 52.9 10.2 52.9 10.1 52.8 10 C 52.8 10 52.7 9.9 52.6 9.9 C 52.6 9.8 52.5 9.8 52.3 9.8 C 52.2 9.8 52 10 51.8 10.2 C 51.6 10.5 51.5 10.8 51.5 11 Z M 55.1 9.8 C 55.1 10 55 10.1 54.8 10.1 C 54.8 10 54.8 9.9 54.8 9.9 C 54.7 9.9 54.6 9.8 54.5 9.8 C 54.4 9.8 54.2 9.9 54.1 10 C 53.9 10 53.9 10.1 53.9 10.2 C 53.9 10.3 53.9 10.3 54 10.4 C 54 10.4 54.1 10.5 54.4 10.5 C 54.6 10.6 54.8 10.7 54.9 10.8 C 55 10.9 55.1 10.9 55.1 11.1 C 55.1 11.3 54.9 11.4 54.6 11.6 C 54.3 11.7 54 11.8 53.7 11.8 C 53.6 11.8 53.5 11.8 53.5 11.8 C 53.4 11.7 53.4 11.7 53.4 11.6 C 53.4 11.5 53.4 11.5 53.4 11.5 C 53.5 11.4 53.5 11.4 53.5 11.4 C 53.6 11.4 53.6 11.4 53.6 11.4 C 53.7 11.5 53.8 11.5 53.9 11.5 C 54 11.5 54.2 11.4 54.4 11.3 C 54.6 11.3 54.7 11.2 54.7 11.1 C 54.7 11.1 54.7 11 54.6 11 C 54.6 11 54.5 10.9 54.3 10.9 C 54.1 10.8 54 10.8 53.8 10.7 C 53.7 10.7 53.7 10.6 53.6 10.5 C 53.5 10.5 53.5 10.4 53.5 10.3 C 53.5 10.1 53.6 9.9 53.8 9.8 C 54 9.6 54.3 9.5 54.6 9.5 C 54.8 9.5 54.9 9.6 55 9.6 C 55.1 9.7 55.1 9.8 55.1 9.8 C 55.1 9.8 55.1 9.8 55.1 9.8 Z M 56.6 11.4 C 56.6 11.4 56.6 11.3 56.6 11.2 C 56.6 10.8 56.6 10.5 56.7 10.1 C 56.7 10 56.7 10 56.7 9.9 C 56.7 9.9 56.7 9.9 56.7 9.9 C 56.6 9.9 56.6 9.8 56.6 9.8 C 56.6 9.7 56.6 9.7 56.6 9.6 C 56.7 9.6 56.7 9.6 56.8 9.6 C 56.8 9.6 56.9 9.6 56.9 9.6 C 57 9.6 57.2 9.6 57.3 9.6 C 57.5 9.5 57.6 9.5 57.6 9.5 C 57.9 9.5 58.1 9.6 58.3 9.8 C 58.5 9.9 58.6 10.1 58.6 10.4 C 58.6 10.7 58.4 10.9 58.2 11.1 C 57.9 11.4 57.6 11.5 57.2 11.6 C 57.1 11.6 57.1 11.6 57 11.7 C 57 11.7 56.9 11.7 56.9 11.7 C 56.8 11.8 56.7 11.8 56.7 11.8 C 56.6 11.8 56.6 11.8 56.6 11.7 C 56.5 11.7 56.5 11.6 56.5 11.6 C 56.5 11.6 56.5 11.6 56.5 11.5 C 56.5 11.5 56.6 11.4 56.6 11.4 Z M 56.9 11.3 C 56.9 11.3 56.9 11.3 56.9 11.4 C 57 11.4 57.1 11.3 57.4 11.3 C 57.6 11.2 57.8 11.1 58 10.9 C 58.1 10.7 58.2 10.6 58.2 10.4 C 58.2 10.2 58.2 10.1 58 10 C 57.9 9.9 57.8 9.8 57.6 9.8 C 57.5 9.8 57.3 9.9 57.1 9.9 C 57.1 9.9 57.1 9.9 57.1 9.9 C 57 10.5 56.9 11 56.9 11.3 C 56.9 11.3 56.9 11.3 56.9 11.3 Z M 60.5 9.9 C 60.5 9.9 60 9.9 60 9.9 C 59.9 9.9 59.7 9.9 59.6 9.9 C 59.5 9.9 59.4 10 59.4 10 C 59.4 10 59.4 10 59.4 10.1 C 59.4 10.1 59.4 10.2 59.4 10.3 C 59.3 10.4 59.3 10.5 59.3 10.5 C 59.4 10.5 59.5 10.5 59.6 10.5 C 59.7 10.5 59.8 10.5 59.8 10.5 C 60 10.5 60.1 10.4 60.2 10.4 C 60.3 10.4 60.4 10.5 60.4 10.6 C 60.4 10.6 60.4 10.7 60.3 10.7 C 60.3 10.7 60.2 10.8 60.1 10.8 C 60.1 10.8 60 10.8 59.9 10.8 C 59.9 10.8 59.8 10.8 59.8 10.8 C 59.5 10.8 59.4 10.9 59.3 10.9 C 59.3 10.9 59.3 10.9 59.3 10.9 C 59.3 10.9 59.3 10.9 59.3 10.9 C 59.3 10.9 59.2 11 59.2 11.1 C 59.2 11.3 59.2 11.4 59.2 11.4 C 59.2 11.4 59.2 11.5 59.3 11.5 C 59.3 11.5 59.4 11.4 59.6 11.4 C 59.8 11.4 60 11.4 60 11.4 C 60.1 11.3 60.2 11.3 60.3 11.3 C 60.4 11.3 60.5 11.4 60.5 11.5 C 60.5 11.5 60.4 11.6 60.4 11.6 C 60.3 11.6 60.2 11.7 60 11.7 C 59.9 11.7 59.7 11.7 59.5 11.7 C 59.3 11.8 59.2 11.8 59 11.8 C 59 11.8 58.9 11.8 58.9 11.7 C 58.8 11.7 58.8 11.6 58.8 11.6 C 58.8 11.6 58.8 11.5 58.8 11.5 C 58.8 11.5 58.8 11.5 58.8 11.4 C 58.9 11.3 58.9 11.1 59 10.6 C 59 10.2 59.1 10 59.1 9.9 C 59.1 9.9 59 9.9 59 9.9 C 59 9.9 59 9.9 59 9.9 C 59 9.8 59 9.8 59 9.8 C 59 9.8 59 9.8 59 9.7 C 59 9.7 59 9.7 59.1 9.7 C 59.1 9.7 59.1 9.6 59.2 9.6 C 59.2 9.6 59.3 9.7 59.3 9.7 C 59.4 9.7 59.6 9.6 60.1 9.6 C 60.2 9.5 60.3 9.5 60.3 9.5 C 60.3 9.5 60.3 9.5 60.3 9.5 C 60.5 9.5 60.6 9.6 60.6 9.7 C 60.6 9.7 60.6 9.8 60.6 9.8 C 60.5 9.8 60.5 9.9 60.5 9.9 Z " stroke="none" fill="#000"/>  </g>  <g id="Polygon14584">    <path d="M 5.6 7.8 C 5.4 7.8 5.3 7.7 5.1 7.5 C 5 7.4 4.9 7.2 4.9 7 C 4.9 6.8 5 6.6 5.1 6.4 C 5.3 6.1 5.4 5.9 5.6 5.8 C 5.8 5.6 6 5.5 6.2 5.5 C 6.4 5.5 6.5 5.6 6.6 5.6 C 6.7 5.6 6.8 5.7 6.9 5.8 C 7 5.8 7.1 5.9 7.1 6 C 7.1 6.1 7.1 6.2 7.1 6.3 C 7.1 6.5 7.1 6.6 7 6.8 C 6.9 7 6.8 7.1 6.7 7.3 C 6.5 7.4 6.4 7.6 6.2 7.6 C 6 7.7 5.8 7.8 5.6 7.8 Z M 5.3 7 C 5.3 7.2 5.4 7.3 5.4 7.3 C 5.5 7.4 5.6 7.5 5.7 7.5 C 5.9 7.5 6.2 7.3 6.4 7.1 C 6.6 6.8 6.8 6.6 6.8 6.3 C 6.8 6.2 6.7 6.1 6.7 6 C 6.7 6 6.6 5.9 6.5 5.9 C 6.4 5.8 6.3 5.8 6.2 5.8 C 6 5.8 5.8 6 5.6 6.2 C 5.4 6.5 5.3 6.8 5.3 7 Z M 10.7 5.7 C 10.7 5.7 10.7 5.7 10.7 5.7 C 10.7 5.7 10.6 5.7 10.5 5.8 C 10.4 6 10.3 6.1 10.3 6.2 C 10.2 6.3 10.1 6.6 9.9 6.9 C 9.8 7 9.7 7.2 9.7 7.2 C 9.6 7.3 9.5 7.5 9.5 7.5 C 9.5 7.6 9.5 7.6 9.4 7.6 C 9.4 7.7 9.3 7.7 9.2 7.7 C 9.2 7.7 9.2 7.7 9.1 7.6 C 9.1 7.6 9.1 7.5 9 7.3 C 9 7.2 8.9 7 8.8 6.7 C 8.5 6.1 8.4 5.8 8.4 5.8 C 8.4 5.8 8.4 5.7 8.5 5.7 C 8.5 5.6 8.6 5.6 8.6 5.6 C 8.7 5.6 8.7 5.6 8.8 5.6 C 8.8 5.7 8.8 5.8 8.9 5.9 C 8.9 6 8.9 6.2 9.1 6.5 C 9.2 6.8 9.3 7.1 9.3 7.2 C 9.4 7.2 9.4 7.1 9.4 7 C 9.5 7 9.5 7 9.5 7 C 9.6 6.8 9.7 6.6 9.8 6.4 C 10 6.1 10.1 5.9 10.2 5.7 C 10.3 5.6 10.4 5.5 10.5 5.5 C 10.6 5.5 10.7 5.5 10.7 5.6 C 10.66 5.64 10.7 5.7 10.7 5.7 C 10.7 5.7 10.66 5.65 10.7 5.7 Z M 11.1 7.8 C 11 7.8 10.8 7.7 10.7 7.5 C 10.6 7.4 10.5 7.2 10.5 7 C 10.5 6.8 10.5 6.6 10.7 6.4 C 10.8 6.1 11 5.9 11.1 5.8 C 11.3 5.6 11.5 5.5 11.7 5.5 C 11.9 5.5 12 5.6 12.2 5.6 C 12.3 5.6 12.4 5.7 12.4 5.8 C 12.5 5.8 12.6 5.9 12.6 6 C 12.7 6.1 12.7 6.2 12.7 6.3 C 12.7 6.5 12.6 6.6 12.5 6.8 C 12.5 7 12.4 7.1 12.2 7.3 C 12 7.4 11.9 7.6 11.7 7.6 C 11.6 7.7 11.4 7.8 11.1 7.8 Z M 10.9 7 C 10.9 7.2 10.9 7.3 11 7.3 C 11 7.4 11.1 7.5 11.2 7.5 C 11.5 7.5 11.7 7.3 11.9 7.1 C 12.2 6.8 12.3 6.6 12.3 6.3 C 12.3 6.2 12.3 6.1 12.2 6 C 12.2 6 12.1 5.9 12 5.9 C 11.9 5.8 11.9 5.8 11.7 5.8 C 11.6 5.8 11.4 6 11.2 6.2 C 11 6.5 10.9 6.8 10.9 7 Z M 14.5 5.9 C 14.3 5.9 14.1 5.9 14 5.9 C 14 5.9 14 6 14 6 C 14 6 14 6.2 13.9 6.5 C 13.9 6.8 13.9 7 13.9 7.2 C 13.9 7.3 13.9 7.4 13.9 7.5 C 13.9 7.5 13.9 7.5 13.9 7.5 C 13.9 7.6 13.9 7.6 13.9 7.7 C 13.8 7.7 13.8 7.7 13.7 7.7 C 13.7 7.7 13.7 7.7 13.6 7.7 C 13.6 7.6 13.5 7.6 13.5 7.5 C 13.5 7.4 13.5 7.3 13.5 7.2 C 13.5 7.1 13.5 6.8 13.6 6.5 C 13.6 6.1 13.6 6 13.7 6 C 13.6 6 13.5 6 13.3 6 C 13.1 6 13 6 13 6 C 12.9 6 12.8 6 12.8 6 C 12.7 5.9 12.7 5.9 12.7 5.9 C 12.7 5.8 12.7 5.8 12.8 5.7 C 12.8 5.7 12.9 5.7 13.1 5.7 C 13.4 5.7 13.7 5.7 13.9 5.6 C 14.2 5.6 14.5 5.6 14.6 5.6 C 14.8 5.6 14.9 5.6 14.9 5.6 C 15 5.7 15 5.7 15 5.8 C 15 5.9 15 5.9 14.9 5.9 C 14.8 5.9 14.8 5.9 14.7 5.9 C 14.7 5.9 14.6 5.9 14.5 5.9 C 14.5 5.9 14.5 5.9 14.5 5.9 Z M 15.4 7.8 C 15.3 7.8 15.1 7.7 15 7.5 C 14.9 7.4 14.8 7.2 14.8 7 C 14.8 6.8 14.9 6.6 15 6.4 C 15.1 6.1 15.3 5.9 15.4 5.8 C 15.6 5.6 15.8 5.5 16 5.5 C 16.2 5.5 16.3 5.6 16.5 5.6 C 16.6 5.6 16.7 5.7 16.7 5.8 C 16.8 5.8 16.9 5.9 16.9 6 C 17 6.1 17 6.2 17 6.3 C 17 6.5 16.9 6.6 16.9 6.8 C 16.8 7 16.7 7.1 16.5 7.3 C 16.4 7.4 16.2 7.6 16 7.6 C 15.9 7.7 15.7 7.8 15.4 7.8 Z M 15.2 7 C 15.2 7.2 15.2 7.3 15.3 7.3 C 15.3 7.4 15.4 7.5 15.5 7.5 C 15.8 7.5 16 7.3 16.3 7.1 C 16.5 6.8 16.6 6.6 16.6 6.3 C 16.6 6.2 16.6 6.1 16.5 6 C 16.5 6 16.4 5.9 16.3 5.9 C 16.3 5.8 16.2 5.8 16 5.8 C 15.9 5.8 15.7 6 15.5 6.2 C 15.3 6.5 15.2 6.8 15.2 7 Z M 18.4 7.4 C 18.4 7.4 18.4 7.3 18.4 7.2 C 18.5 6.8 18.5 6.5 18.6 6.1 C 18.6 6 18.6 6 18.6 5.9 C 18.6 5.9 18.6 5.9 18.6 5.9 C 18.5 5.9 18.4 5.8 18.4 5.8 C 18.4 5.7 18.4 5.7 18.5 5.6 C 18.5 5.6 18.6 5.6 18.6 5.6 C 18.6 5.6 18.8 5.6 18.8 5.6 C 18.9 5.6 19 5.6 19.2 5.6 C 19.3 5.5 19.4 5.5 19.5 5.5 C 19.8 5.5 20 5.6 20.2 5.8 C 20.3 5.9 20.4 6.1 20.4 6.4 C 20.4 6.7 20.3 6.9 20 7.1 C 19.8 7.4 19.4 7.5 19.1 7.6 C 19 7.6 18.9 7.6 18.9 7.7 C 18.8 7.7 18.8 7.7 18.7 7.7 C 18.7 7.8 18.6 7.8 18.5 7.8 C 18.5 7.8 18.4 7.8 18.4 7.7 C 18.4 7.7 18.3 7.6 18.3 7.6 C 18.3 7.6 18.4 7.6 18.4 7.5 C 18.4 7.5 18.4 7.4 18.4 7.4 Z M 18.8 7.3 C 18.8 7.3 18.8 7.3 18.8 7.4 C 18.8 7.4 19 7.3 19.2 7.3 C 19.5 7.2 19.7 7.1 19.8 6.9 C 20 6.7 20.1 6.6 20.1 6.4 C 20.1 6.2 20 6.1 19.9 6 C 19.8 5.9 19.6 5.8 19.4 5.8 C 19.3 5.8 19.2 5.9 19 5.9 C 19 5.9 19 5.9 18.9 5.9 C 18.8 6.5 18.8 7 18.8 7.3 C 18.8 7.3 18.8 7.3 18.8 7.3 Z M 21.2 6.2 C 21.1 6.3 21.1 6.4 21.1 6.4 C 21.1 6.5 21.1 6.5 21.1 6.7 C 21.1 6.9 21.1 7 21.1 7.1 C 21.1 7.2 21.1 7.3 21.1 7.5 C 21.1 7.6 21.1 7.6 21 7.7 C 21 7.7 20.9 7.7 20.9 7.7 C 20.8 7.7 20.8 7.7 20.7 7.6 C 20.7 7.6 20.7 7.5 20.7 7.3 C 20.7 7.2 20.7 7 20.7 6.7 C 20.7 6.7 20.8 6.1 20.8 6.1 C 20.8 6 20.9 5.9 20.9 5.9 C 20.9 5.7 20.9 5.7 20.9 5.7 C 20.9 5.6 21 5.6 21 5.6 C 21 5.6 21.1 5.5 21.1 5.5 C 21.2 5.5 21.2 5.6 21.2 5.6 C 21.3 5.7 21.3 5.7 21.3 5.8 C 21.3 5.8 21.2 6.2 21.2 6.2 Z M 23.2 5.8 C 23.2 6 23.1 6.1 22.9 6.1 C 22.9 6 22.9 5.9 22.8 5.9 C 22.8 5.9 22.7 5.8 22.6 5.8 C 22.4 5.8 22.3 5.9 22.1 6 C 22 6 21.9 6.1 21.9 6.2 C 21.9 6.3 21.9 6.3 22 6.4 C 22 6.4 22.2 6.5 22.4 6.5 C 22.6 6.6 22.8 6.7 22.9 6.8 C 23 6.9 23.1 6.9 23.1 7.1 C 23.1 7.3 23 7.4 22.7 7.6 C 22.4 7.7 22.1 7.8 21.8 7.8 C 21.7 7.8 21.6 7.8 21.5 7.8 C 21.5 7.7 21.4 7.7 21.4 7.6 C 21.4 7.5 21.4 7.5 21.5 7.5 C 21.5 7.4 21.5 7.4 21.6 7.4 C 21.6 7.4 21.6 7.4 21.6 7.4 C 21.7 7.5 21.8 7.5 21.9 7.5 C 22.1 7.5 22.3 7.4 22.4 7.3 C 22.6 7.3 22.7 7.2 22.7 7.1 C 22.7 7.1 22.7 7 22.7 7 C 22.6 7 22.5 6.9 22.4 6.9 C 22.2 6.8 22 6.8 21.9 6.7 C 21.8 6.7 21.7 6.6 21.6 6.5 C 21.6 6.5 21.6 6.4 21.6 6.3 C 21.6 6.1 21.7 5.9 21.9 5.8 C 22.1 5.6 22.3 5.5 22.6 5.5 C 22.8 5.5 22.9 5.6 23 5.6 C 23.1 5.7 23.2 5.8 23.2 5.8 C 23.2 5.8 23.2 5.8 23.2 5.8 Z M 25 5.9 C 24.8 5.9 24.6 5.9 24.5 5.9 C 24.5 5.9 24.5 6 24.5 6 C 24.5 6 24.4 6.2 24.4 6.5 C 24.4 6.8 24.4 7 24.4 7.2 C 24.4 7.3 24.4 7.4 24.4 7.5 C 24.4 7.5 24.4 7.5 24.4 7.5 C 24.4 7.6 24.4 7.6 24.4 7.7 C 24.3 7.7 24.3 7.7 24.2 7.7 C 24.2 7.7 24.2 7.7 24.1 7.7 C 24.1 7.6 24 7.6 24 7.5 C 24 7.4 24 7.3 24 7.2 C 24 7.1 24 6.8 24.1 6.5 C 24.1 6.1 24.1 6 24.1 6 C 24.1 6 24 6 23.8 6 C 23.6 6 23.5 6 23.5 6 C 23.4 6 23.3 6 23.3 6 C 23.2 5.9 23.2 5.9 23.2 5.9 C 23.2 5.8 23.2 5.8 23.3 5.7 C 23.3 5.7 23.4 5.7 23.6 5.7 C 23.9 5.7 24.1 5.7 24.4 5.6 C 24.7 5.6 24.9 5.6 25.1 5.6 C 25.3 5.6 25.4 5.6 25.4 5.6 C 25.5 5.7 25.5 5.7 25.5 5.8 C 25.5 5.9 25.4 5.9 25.4 5.9 C 25.3 5.9 25.3 5.9 25.2 5.9 C 25.2 5.9 25.1 5.9 25 5.9 C 25 5.9 25 5.9 25 5.9 Z M 25.5 5.9 C 25.5 5.9 25.52 5.88 25.5 5.9 C 25.5 5.8 25.5 5.8 25.5 5.8 C 25.5 5.7 25.5 5.7 25.5 5.6 C 25.6 5.6 25.6 5.6 25.7 5.6 C 25.7 5.6 25.7 5.6 25.7 5.6 C 25.8 5.6 25.8 5.6 25.8 5.6 C 26.1 5.6 26.3 5.5 26.4 5.5 C 26.6 5.5 26.8 5.6 26.9 5.7 C 27 5.8 27.1 5.9 27.1 6.1 C 27.1 6.2 27 6.4 26.9 6.5 C 26.8 6.6 26.6 6.7 26.4 6.8 C 26.8 7.1 27 7.3 27.2 7.4 C 27.3 7.4 27.3 7.5 27.3 7.5 C 27.3 7.6 27.3 7.6 27.2 7.6 C 27.2 7.7 27.1 7.7 27.1 7.7 C 27.1 7.7 27 7.7 26.9 7.6 C 26.8 7.6 26.7 7.5 26.6 7.4 C 26.5 7.3 26.4 7.2 26.4 7.2 C 26.2 7.1 26.1 7 26 6.9 C 25.9 6.9 25.8 6.9 25.8 6.8 C 25.8 6.7 25.8 6.7 25.9 6.6 C 25.9 6.6 26 6.6 26.1 6.6 C 26.1 6.6 26.1 6.6 26.1 6.6 C 26.1 6.6 26.1 6.6 26.1 6.6 C 26.2 6.6 26.3 6.5 26.5 6.4 C 26.7 6.3 26.7 6.2 26.7 6.1 C 26.7 6 26.7 5.9 26.6 5.9 C 26.6 5.8 26.5 5.8 26.4 5.8 C 26.2 5.8 26.1 5.8 26.1 5.8 C 26 5.9 25.9 5.9 25.9 5.9 C 25.9 5.9 25.9 5.9 25.9 5.9 C 25.9 6 25.9 6.1 25.8 6.2 C 25.8 6.4 25.8 6.6 25.7 6.8 C 25.7 7 25.7 7.2 25.7 7.3 C 25.7 7.3 25.7 7.4 25.7 7.4 C 25.7 7.5 25.7 7.5 25.7 7.6 C 25.7 7.6 25.7 7.6 25.7 7.7 C 25.6 7.7 25.6 7.8 25.5 7.8 C 25.4 7.8 25.3 7.7 25.3 7.5 C 25.3 7.3 25.3 7.1 25.4 6.8 C 25.4 6.6 25.5 6.3 25.5 6.1 C 25.5 6.1 25.5 6 25.5 6 C 25.52 6.02 25.5 5.9 25.5 5.9 Z M 28 6.2 C 28 6.3 27.9 6.4 27.9 6.4 C 27.9 6.5 27.9 6.5 27.9 6.7 C 27.9 6.9 27.9 7 27.9 7.1 C 27.9 7.2 27.9 7.3 27.9 7.5 C 27.9 7.6 27.9 7.6 27.8 7.7 C 27.8 7.7 27.7 7.7 27.7 7.7 C 27.6 7.7 27.6 7.7 27.5 7.6 C 27.5 7.6 27.5 7.5 27.5 7.3 C 27.5 7.2 27.5 7 27.6 6.7 C 27.6 6.7 27.6 6.1 27.6 6.1 C 27.7 6 27.7 5.9 27.7 5.9 C 27.7 5.7 27.7 5.7 27.7 5.7 C 27.7 5.6 27.8 5.6 27.8 5.6 C 27.9 5.6 27.9 5.5 27.9 5.5 C 28 5.5 28 5.6 28 5.6 C 28.1 5.7 28.1 5.7 28.1 5.8 C 28.1 5.8 28 6.2 28 6.2 Z M 30 5.9 C 29.7 5.9 29.5 5.9 29.5 5.9 C 29.4 5.9 29.4 6 29.4 6 C 29.4 6 29.4 6.2 29.4 6.5 C 29.3 6.8 29.3 7 29.3 7.2 C 29.3 7.3 29.3 7.4 29.3 7.5 C 29.4 7.5 29.4 7.5 29.4 7.5 C 29.4 7.6 29.3 7.6 29.3 7.7 C 29.3 7.7 29.2 7.7 29.2 7.7 C 29.2 7.7 29.1 7.7 29.1 7.7 C 29 7.6 29 7.6 29 7.5 C 29 7.4 29 7.3 29 7.2 C 29 7.1 29 6.8 29 6.5 C 29.1 6.1 29.1 6 29.1 6 C 29.1 6 29 6 28.8 6 C 28.6 6 28.5 6 28.4 6 C 28.3 6 28.3 6 28.2 6 C 28.2 5.9 28.2 5.9 28.2 5.9 C 28.2 5.8 28.2 5.8 28.2 5.7 C 28.3 5.7 28.4 5.7 28.5 5.7 C 28.8 5.7 29.1 5.7 29.4 5.6 C 29.7 5.6 29.9 5.6 30.1 5.6 C 30.2 5.6 30.3 5.6 30.4 5.6 C 30.4 5.7 30.4 5.7 30.4 5.8 C 30.4 5.9 30.4 5.9 30.3 5.9 C 30.3 5.9 30.2 5.9 30.2 5.9 C 30.1 5.9 30 5.9 30 5.9 C 30 5.9 30 5.9 30 5.9 Z M 30.6 7.2 C 30.6 7.2 30.6 7.2 30.6 7.2 C 30.5 7.2 30.5 7.3 30.4 7.5 C 30.3 7.6 30.3 7.7 30.2 7.7 C 30.2 7.7 30.2 7.7 30.1 7.7 C 30.1 7.7 30.1 7.7 30 7.7 C 30 7.6 29.9 7.6 29.9 7.6 C 29.9 7.5 30.1 7.3 30.3 6.9 C 30.4 6.7 30.6 6.5 30.7 6.3 C 30.9 5.9 31 5.7 31.1 5.6 C 31.1 5.6 31.2 5.5 31.2 5.5 C 31.3 5.5 31.4 5.5 31.4 5.6 C 31.4 5.6 31.4 5.6 31.4 5.7 C 31.4 5.7 31.4 5.8 31.4 5.8 C 31.6 6.3 31.7 6.7 31.8 6.9 C 32 7.2 32.1 7.3 32.2 7.4 C 32.2 7.5 32.2 7.5 32.2 7.5 C 32.3 7.6 32.3 7.6 32.3 7.6 C 32.3 7.7 32.2 7.7 32.2 7.7 C 32.2 7.8 32.1 7.8 32.1 7.8 C 32 7.8 31.9 7.8 31.8 7.7 C 31.8 7.6 31.7 7.5 31.6 7.3 C 31.6 7.2 31.5 7.1 31.5 7.1 C 31.5 7.1 31.5 7.1 31.5 7.1 C 31.5 7.1 31.3 7.1 31.2 7.1 C 31 7.1 30.8 7.2 30.7 7.2 C 30.7 7.2 30.7 7.2 30.6 7.2 C 30.6 7.2 30.6 7.2 30.6 7.2 Z M 31.3 6.8 C 31.3 6.8 31.4 6.8 31.4 6.8 C 31.4 6.7 31.3 6.5 31.2 6.1 C 31.2 6.1 31.2 6.1 31.2 6.1 C 31.2 6.1 30.8 6.9 30.8 6.9 C 30.8 6.9 30.9 6.8 30.9 6.8 C 31 6.8 31.1 6.8 31.3 6.8 C 31.3 6.8 31.3 6.8 31.3 6.8 Z M 33.9 7.6 C 33.8 7.6 33.8 7.6 33.7 7.6 C 33.7 7.6 33.6 7.6 33.6 7.6 C 33.3 7.6 33.1 7.6 32.8 7.7 C 32.7 7.7 32.7 7.8 32.6 7.8 C 32.5 7.8 32.5 7.7 32.5 7.7 C 32.4 7.6 32.4 7.6 32.4 7.6 C 32.4 7.5 32.4 7.5 32.4 7.4 C 32.5 7.3 32.5 7.2 32.5 7.1 C 32.5 7.1 32.6 5.9 32.6 5.9 C 32.6 5.8 32.7 5.7 32.7 5.7 C 32.7 5.6 32.7 5.6 32.7 5.6 C 32.8 5.6 32.8 5.5 32.9 5.5 C 32.9 5.5 33 5.6 33 5.6 C 33 5.6 33 5.7 33 5.7 C 33 5.7 33 5.8 33 5.9 C 33 6 33 6.3 32.9 6.7 C 32.9 7.1 32.8 7.3 32.8 7.3 C 32.8 7.3 32.8 7.4 32.9 7.4 C 32.9 7.4 33 7.3 33.2 7.3 C 33.2 7.3 33.3 7.3 33.4 7.3 C 33.6 7.3 33.8 7.3 33.9 7.2 C 33.9 7.2 33.9 7.2 33.9 7.2 C 34 7.2 34 7.2 34.1 7.3 C 34.1 7.3 34.1 7.3 34.1 7.4 C 34.1 7.5 34.1 7.5 34 7.5 C 34 7.6 33.9 7.6 33.9 7.6 Z M 36.7 7.3 C 36.8 7.2 36.9 7.2 36.9 7.2 C 37 7.2 37 7.2 37 7.3 C 37 7.4 36.9 7.5 36.7 7.6 C 36.5 7.7 36.3 7.8 36.1 7.8 C 35.9 7.8 35.7 7.7 35.6 7.6 C 35.4 7.5 35.3 7.3 35.3 7.1 C 35.3 6.9 35.4 6.6 35.6 6.4 C 35.7 6.1 35.9 5.9 36.2 5.7 C 36.4 5.5 36.6 5.4 36.8 5.4 C 37 5.4 37.1 5.5 37.1 5.5 C 37.2 5.6 37.3 5.7 37.3 5.8 C 37.3 5.9 37.3 6 37.2 6.1 C 37.2 6.1 37.2 6.2 37.1 6.2 C 37.1 6.2 37 6.2 37 6.2 C 36.9 6.2 36.9 6.2 36.9 6.2 C 36.9 6.2 36.8 6.1 36.8 6.1 C 36.8 6.1 36.9 6 36.9 6 C 36.9 5.9 36.9 5.9 36.9 5.8 C 36.9 5.7 36.9 5.7 36.8 5.7 C 36.7 5.7 36.5 5.8 36.4 5.9 C 36.2 6.1 36 6.3 35.9 6.5 C 35.8 6.7 35.7 6.9 35.7 7.1 C 35.7 7.2 35.8 7.3 35.8 7.4 C 35.9 7.5 36 7.5 36.1 7.5 C 36.2 7.5 36.3 7.5 36.4 7.4 C 36.5 7.4 36.6 7.3 36.7 7.3 C 36.7 7.3 36.7 7.3 36.7 7.3 Z M 38 7.8 C 37.8 7.8 37.7 7.7 37.6 7.5 C 37.4 7.4 37.4 7.2 37.4 7 C 37.4 6.8 37.4 6.6 37.6 6.4 C 37.7 6.1 37.8 5.9 38 5.8 C 38.2 5.6 38.4 5.5 38.6 5.5 C 38.8 5.5 38.9 5.6 39 5.6 C 39.1 5.6 39.2 5.7 39.3 5.8 C 39.4 5.8 39.5 5.9 39.5 6 C 39.5 6.1 39.6 6.2 39.6 6.3 C 39.6 6.5 39.5 6.6 39.4 6.8 C 39.4 7 39.2 7.1 39.1 7.3 C 38.9 7.4 38.8 7.6 38.6 7.6 C 38.5 7.7 38.3 7.8 38 7.8 Z M 37.7 7 C 37.7 7.2 37.8 7.3 37.9 7.3 C 37.9 7.4 38 7.5 38.1 7.5 C 38.4 7.5 38.6 7.3 38.8 7.1 C 39.1 6.8 39.2 6.6 39.2 6.3 C 39.2 6.2 39.2 6.1 39.1 6 C 39.1 6 39 5.9 38.9 5.9 C 38.8 5.8 38.7 5.8 38.6 5.8 C 38.4 5.8 38.3 6 38 6.2 C 37.8 6.5 37.7 6.8 37.7 7 Z M 39.8 7.2 C 39.8 7.2 39.94 6.7 39.9 6.7 C 40 6.3 40.1 6 40.1 5.9 C 40.1 5.8 40.1 5.8 40.1 5.7 C 40.1 5.7 40.1 5.7 40.2 5.7 C 40.2 5.6 40.2 5.6 40.3 5.6 C 40.3 5.6 40.3 5.6 40.4 5.6 C 40.4 5.7 40.5 5.7 40.5 5.8 C 40.5 6 40.6 6.2 40.8 6.5 C 41 6.8 41.1 7 41.3 7.2 C 41.3 7 41.3 6.8 41.4 6.5 C 41.4 6.3 41.4 6.2 41.5 6 C 41.5 5.9 41.5 5.8 41.5 5.7 C 41.5 5.6 41.5 5.6 41.6 5.5 C 41.6 5.5 41.7 5.5 41.7 5.5 C 41.8 5.5 41.8 5.5 41.8 5.6 C 41.9 5.6 41.9 5.7 41.9 5.7 C 41.9 5.8 41.9 5.9 41.8 6 C 41.8 6.2 41.7 6.5 41.6 6.8 C 41.6 7.2 41.6 7.4 41.6 7.4 C 41.6 7.4 41.6 7.5 41.6 7.5 C 41.6 7.5 41.6 7.6 41.5 7.6 C 41.5 7.6 41.5 7.7 41.5 7.7 C 41.4 7.7 41.4 7.7 41.3 7.7 C 41.3 7.7 41.3 7.7 41.2 7.7 C 41.2 7.7 41.2 7.7 41.2 7.6 C 41.2 7.6 41.1 7.6 41.1 7.5 C 41.1 7.4 41 7.4 41 7.3 C 40.8 7.1 40.5 6.7 40.3 6.3 C 40.3 6.4 40.2 6.7 40.2 7.2 C 40.2 7.2 40.2 7.3 40.2 7.3 C 40.2 7.3 40.2 7.4 40.1 7.5 C 40.1 7.6 40.1 7.7 40.1 7.7 C 40 7.8 40 7.8 39.9 7.8 C 39.9 7.8 39.8 7.8 39.8 7.7 C 39.8 7.7 39.8 7.6 39.8 7.5 C 39.8 7.5 39.8 7.3 39.8 7.2 C 39.83 7.2 39.8 7.2 39.8 7.2 Z M 43.8 5.8 C 43.8 6 43.7 6.1 43.5 6.1 C 43.5 6 43.5 5.9 43.4 5.9 C 43.4 5.9 43.3 5.8 43.2 5.8 C 43 5.8 42.9 5.9 42.7 6 C 42.6 6 42.5 6.1 42.5 6.2 C 42.5 6.3 42.5 6.3 42.6 6.4 C 42.7 6.4 42.8 6.5 43 6.5 C 43.2 6.6 43.4 6.7 43.5 6.8 C 43.6 6.9 43.7 6.9 43.7 7.1 C 43.7 7.3 43.6 7.4 43.3 7.6 C 43 7.7 42.7 7.8 42.4 7.8 C 42.3 7.8 42.2 7.8 42.1 7.8 C 42.1 7.7 42 7.7 42 7.6 C 42 7.5 42.1 7.5 42.1 7.5 C 42.1 7.4 42.1 7.4 42.2 7.4 C 42.2 7.4 42.2 7.4 42.2 7.4 C 42.3 7.5 42.4 7.5 42.5 7.5 C 42.7 7.5 42.9 7.4 43 7.3 C 43.2 7.3 43.3 7.2 43.3 7.1 C 43.3 7.1 43.3 7 43.3 7 C 43.2 7 43.1 6.9 43 6.9 C 42.8 6.8 42.6 6.8 42.5 6.7 C 42.4 6.7 42.3 6.6 42.2 6.5 C 42.2 6.5 42.2 6.4 42.2 6.3 C 42.2 6.1 42.3 5.9 42.5 5.8 C 42.7 5.6 42.9 5.5 43.2 5.5 C 43.4 5.5 43.5 5.6 43.6 5.6 C 43.7 5.7 43.8 5.8 43.8 5.8 C 43.8 5.8 43.8 5.8 43.8 5.8 Z M 45.7 5.9 C 45.7 5.9 45.2 5.9 45.2 5.9 C 45 5.9 44.9 5.9 44.8 5.9 C 44.7 5.9 44.6 6 44.6 6 C 44.6 6 44.6 6 44.6 6.1 C 44.6 6.1 44.6 6.2 44.5 6.3 C 44.5 6.4 44.5 6.5 44.5 6.5 C 44.6 6.5 44.7 6.5 44.8 6.5 C 44.9 6.5 45 6.5 45 6.5 C 45.2 6.5 45.3 6.4 45.3 6.4 C 45.5 6.4 45.6 6.5 45.6 6.6 C 45.6 6.6 45.6 6.7 45.5 6.7 C 45.5 6.7 45.4 6.8 45.3 6.8 C 45.3 6.8 45.2 6.8 45.1 6.8 C 45.1 6.8 45 6.8 45 6.8 C 44.7 6.8 44.5 6.9 44.5 6.9 C 44.5 6.9 44.5 6.9 44.5 6.9 C 44.5 6.9 44.5 6.9 44.5 6.9 C 44.5 6.9 44.4 7 44.4 7.1 C 44.4 7.3 44.4 7.4 44.4 7.4 C 44.4 7.4 44.4 7.5 44.5 7.5 C 44.5 7.5 44.6 7.4 44.8 7.4 C 45 7.4 45.1 7.4 45.2 7.4 C 45.3 7.3 45.4 7.3 45.5 7.3 C 45.6 7.3 45.6 7.4 45.6 7.5 C 45.6 7.5 45.6 7.6 45.6 7.6 C 45.5 7.6 45.4 7.7 45.2 7.7 C 45.1 7.7 44.9 7.7 44.7 7.7 C 44.5 7.8 44.4 7.8 44.2 7.8 C 44.1 7.8 44.1 7.8 44.1 7.7 C 44 7.7 44 7.6 44 7.6 C 44 7.6 44 7.5 44 7.5 C 44 7.5 44 7.5 44 7.4 C 44 7.3 44.1 7.1 44.2 6.6 C 44.2 6.2 44.2 6 44.2 5.9 C 44.2 5.9 44.2 5.9 44.2 5.9 C 44.2 5.9 44.2 5.9 44.2 5.9 C 44.2 5.8 44.2 5.8 44.2 5.8 C 44.2 5.8 44.2 5.8 44.2 5.7 C 44.2 5.7 44.2 5.7 44.2 5.7 C 44.3 5.7 44.3 5.6 44.3 5.6 C 44.4 5.6 44.4 5.7 44.5 5.7 C 44.6 5.7 44.8 5.6 45.3 5.6 C 45.4 5.5 45.5 5.5 45.5 5.5 C 45.5 5.5 45.5 5.5 45.5 5.5 C 45.7 5.5 45.8 5.6 45.8 5.7 C 45.8 5.7 45.8 5.8 45.7 5.8 C 45.7 5.8 45.7 5.9 45.7 5.9 Z M 47.8 6.7 C 47.8 6.8 47.8 6.9 47.8 7 C 47.8 7 47.8 7 47.8 7 C 47.8 7 47.7 7.1 47.7 7.3 C 47.7 7.4 47.7 7.5 47.7 7.6 C 47.7 7.7 47.7 7.8 47.7 7.8 C 47.7 7.8 47.7 7.9 47.6 7.9 C 47.6 7.9 47.6 8 47.6 8 C 47.5 8 47.5 8 47.5 8 C 47.4 8 47.4 8 47.3 7.9 C 47.3 7.9 47.3 7.9 47.3 7.8 C 47.3 7.8 47.3 7.7 47.3 7.6 C 47.3 7.5 47.4 7.4 47.4 7.3 C 47 7.5 46.8 7.7 46.5 7.7 C 46.3 7.7 46.2 7.6 46.1 7.5 C 46 7.4 45.9 7.3 45.9 7.1 C 45.9 6.8 46 6.6 46.2 6.3 C 46.2 6.3 46.2 6.3 46.2 6.3 C 46.4 6 46.6 5.8 46.8 5.7 C 47.1 5.5 47.3 5.4 47.5 5.4 C 47.7 5.4 47.8 5.5 47.8 5.5 C 47.9 5.5 47.9 5.6 47.9 5.7 C 47.9 5.7 47.9 5.8 47.9 5.9 C 47.8 5.9 47.8 6 47.7 6 C 47.7 6 47.7 6 47.6 6 C 47.6 6 47.6 5.9 47.6 5.9 C 47.6 5.8 47.6 5.8 47.5 5.8 C 47.5 5.8 47.5 5.8 47.4 5.8 C 47.3 5.8 47.1 5.8 46.9 6 C 46.7 6.1 46.6 6.3 46.5 6.5 C 46.3 6.7 46.3 6.9 46.3 7.1 C 46.3 7.3 46.4 7.4 46.5 7.4 C 46.6 7.4 46.7 7.3 46.8 7.3 C 46.9 7.3 47.1 7.2 47.2 7.1 C 47.3 7 47.4 6.9 47.5 6.8 C 47.5 6.8 47.5 6.7 47.5 6.6 C 47.5 6.5 47.5 6.5 47.6 6.5 C 47.6 6.5 47.6 6.4 47.7 6.4 C 47.8 6.4 47.9 6.5 47.9 6.6 C 47.9 6.6 47.9 6.7 47.8 6.7 C 47.8 6.7 47.8 6.7 47.8 6.7 Z M 49.1 7.8 C 49 7.8 48.9 7.7 48.7 7.7 C 48.6 7.6 48.5 7.5 48.4 7.3 C 48.3 7.2 48.3 7 48.3 6.8 C 48.3 6.7 48.3 6.6 48.3 6.5 C 48.3 6.5 48.4 6.2 48.4 6.2 C 48.4 6.1 48.4 6.1 48.4 6.1 C 48.4 6 48.4 5.9 48.4 5.9 C 48.4 5.8 48.4 5.7 48.5 5.6 C 48.5 5.6 48.6 5.5 48.6 5.5 C 48.7 5.5 48.7 5.6 48.7 5.6 C 48.8 5.7 48.8 5.7 48.8 5.8 C 48.8 5.8 48.8 5.9 48.7 6.1 C 48.7 6.1 48.7 6.2 48.7 6.4 C 48.6 6.6 48.6 6.8 48.6 6.8 C 48.6 7.1 48.7 7.2 48.8 7.3 C 48.9 7.4 49 7.5 49.1 7.5 C 49.3 7.5 49.5 7.4 49.6 7.3 C 49.7 7.2 49.7 7 49.8 6.8 C 49.8 6.7 49.8 6.7 49.8 6.6 C 49.8 6.6 49.8 6.5 49.8 6.4 C 49.8 6 49.9 5.8 49.9 5.7 C 50 5.6 50 5.6 50.1 5.6 C 50.2 5.6 50.3 5.7 50.3 5.8 C 50.3 5.9 50.2 6 50.2 6.2 C 50.2 6.3 50.2 6.5 50.1 6.6 C 50.1 6.9 50.1 7.1 50 7.2 C 50 7.4 49.8 7.5 49.7 7.6 C 49.5 7.7 49.3 7.8 49.1 7.8 Z M 51 6.2 C 51 6.3 51 6.4 51 6.4 C 51 6.5 51 6.5 50.9 6.7 C 50.9 6.9 50.9 7 50.9 7.1 C 50.9 7.2 50.9 7.3 50.9 7.5 C 50.9 7.6 50.9 7.6 50.9 7.7 C 50.8 7.7 50.8 7.7 50.7 7.7 C 50.6 7.7 50.6 7.7 50.6 7.6 C 50.5 7.6 50.5 7.5 50.5 7.3 C 50.5 7.2 50.5 7 50.6 6.7 C 50.6 6.7 50.7 6.1 50.7 6.1 C 50.7 6 50.7 5.9 50.7 5.9 C 50.7 5.7 50.7 5.7 50.8 5.7 C 50.8 5.6 50.8 5.6 50.8 5.6 C 50.9 5.6 50.9 5.5 50.9 5.5 C 51 5.5 51 5.6 51.1 5.6 C 51.1 5.7 51.1 5.7 51.1 5.8 C 51.1 5.8 51 6.2 51 6.2 Z M 53.4 6.2 C 53.4 6.1 53.4 6.1 53.4 6.1 C 53.4 6.1 53 6.7 53 6.7 C 52.7 7 52.6 7.2 52.4 7.2 C 52.4 7.2 52.3 7.2 52.3 7.1 C 52.2 7 52.2 6.9 52.2 6.8 C 52.1 6.7 52.1 6.6 52.1 6.5 C 52 6.3 52 6.3 52 6.2 C 52 6.2 51.9 6.6 51.9 6.6 C 51.9 6.7 51.8 6.8 51.8 6.9 C 51.8 7.1 51.8 7.2 51.7 7.3 C 51.7 7.5 51.7 7.6 51.7 7.6 C 51.7 7.7 51.7 7.7 51.6 7.7 C 51.6 7.8 51.5 7.8 51.5 7.8 C 51.5 7.8 51.4 7.7 51.4 7.7 C 51.3 7.7 51.3 7.6 51.3 7.6 C 51.3 7.5 51.3 7.4 51.4 7.2 C 51.5 6.6 51.6 6.3 51.7 6.1 C 51.7 6 51.7 5.8 51.7 5.7 C 51.7 5.7 51.7 5.6 51.8 5.6 C 51.8 5.6 51.9 5.6 51.9 5.6 C 52 5.6 52 5.6 52.1 5.6 C 52.1 5.7 52.1 5.7 52.1 5.8 C 52.14 5.78 52.1 5.8 52.1 5.8 C 52.1 5.8 52.35 6.35 52.3 6.3 C 52.4 6.6 52.5 6.7 52.5 6.8 C 52.6 6.7 52.8 6.5 53 6.2 C 53.2 5.9 53.3 5.7 53.4 5.6 C 53.5 5.6 53.5 5.5 53.6 5.5 C 53.6 5.5 53.7 5.5 53.7 5.6 C 53.8 5.6 53.8 5.7 53.8 5.7 C 53.8 5.7 53.8 5.9 53.8 6.1 C 53.7 6.3 53.7 6.5 53.7 6.8 C 53.7 7 53.6 7.1 53.6 7.2 C 53.6 7.2 53.7 7.3 53.7 7.4 C 53.7 7.4 53.7 7.4 53.7 7.5 C 53.7 7.6 53.7 7.6 53.6 7.7 C 53.6 7.7 53.5 7.7 53.5 7.7 C 53.3 7.7 53.3 7.6 53.3 7.4 C 53.3 7.3 53.3 7 53.3 6.8 C 53.4 6.5 53.4 6.3 53.4 6.2 C 53.4 6.2 53.4 6.2 53.4 6.2 Z M 54.7 7.8 C 54.6 7.8 54.4 7.7 54.3 7.5 C 54.2 7.4 54.1 7.2 54.1 7 C 54.1 6.8 54.2 6.6 54.3 6.4 C 54.4 6.1 54.6 5.9 54.7 5.8 C 54.9 5.6 55.1 5.5 55.4 5.5 C 55.5 5.5 55.7 5.6 55.8 5.6 C 55.9 5.6 56 5.7 56.1 5.8 C 56.1 5.8 56.2 5.9 56.2 6 C 56.3 6.1 56.3 6.2 56.3 6.3 C 56.3 6.5 56.2 6.6 56.2 6.8 C 56.1 7 56 7.1 55.8 7.3 C 55.7 7.4 55.5 7.6 55.3 7.6 C 55.2 7.7 55 7.8 54.7 7.8 Z M 54.5 7 C 54.5 7.2 54.5 7.3 54.6 7.3 C 54.6 7.4 54.7 7.5 54.8 7.5 C 55.1 7.5 55.3 7.3 55.6 7.1 C 55.8 6.8 55.9 6.6 55.9 6.3 C 55.9 6.2 55.9 6.1 55.8 6 C 55.8 6 55.7 5.9 55.6 5.9 C 55.6 5.8 55.5 5.8 55.4 5.8 C 55.2 5.8 55 6 54.8 6.2 C 54.6 6.5 54.5 6.8 54.5 7 Z M 58.1 5.8 C 58.1 6 58 6.1 57.8 6.1 C 57.8 6 57.8 5.9 57.8 5.9 C 57.7 5.9 57.6 5.8 57.5 5.8 C 57.4 5.8 57.2 5.9 57.1 6 C 56.9 6 56.9 6.1 56.9 6.2 C 56.9 6.3 56.9 6.3 57 6.4 C 57 6.4 57.1 6.5 57.4 6.5 C 57.6 6.6 57.8 6.7 57.9 6.8 C 58 6.9 58.1 6.9 58.1 7.1 C 58.1 7.3 57.9 7.4 57.6 7.6 C 57.3 7.7 57 7.8 56.7 7.8 C 56.6 7.8 56.6 7.8 56.5 7.8 C 56.4 7.7 56.4 7.7 56.4 7.6 C 56.4 7.5 56.4 7.5 56.4 7.5 C 56.5 7.4 56.5 7.4 56.5 7.4 C 56.6 7.4 56.6 7.4 56.6 7.4 C 56.7 7.5 56.8 7.5 56.9 7.5 C 57 7.5 57.2 7.4 57.4 7.3 C 57.6 7.3 57.7 7.2 57.7 7.1 C 57.7 7.1 57.7 7 57.6 7 C 57.6 7 57.5 6.9 57.3 6.9 C 57.1 6.8 57 6.8 56.8 6.7 C 56.7 6.7 56.7 6.6 56.6 6.5 C 56.6 6.5 56.5 6.4 56.5 6.3 C 56.5 6.1 56.6 5.9 56.8 5.8 C 57.1 5.6 57.3 5.5 57.6 5.5 C 57.8 5.5 57.9 5.6 58 5.6 C 58.1 5.7 58.1 5.8 58.1 5.8 C 58.1 5.8 58.1 5.8 58.1 5.8 Z " stroke="none" fill="#000"/>  </g>  <g id="Polygon14583">    <path d="M 9.6 1.9 C 9.6 1.9 9.2 1.9 9.2 1.9 C 9 1.9 8.9 1.9 8.8 1.9 C 8.7 1.9 8.6 2 8.6 2 C 8.6 2 8.6 2 8.6 2.1 C 8.6 2.1 8.6 2.2 8.5 2.3 C 8.5 2.4 8.5 2.5 8.5 2.5 C 8.5 2.5 8.6 2.5 8.8 2.5 C 8.9 2.5 9 2.5 9 2.5 C 9.1 2.5 9.3 2.4 9.3 2.4 C 9.5 2.4 9.6 2.5 9.6 2.6 C 9.6 2.6 9.5 2.7 9.5 2.7 C 9.5 2.7 9.4 2.8 9.3 2.8 C 9.2 2.8 9.2 2.8 9.1 2.8 C 9.1 2.8 9 2.8 9 2.8 C 8.7 2.8 8.5 2.9 8.5 2.9 C 8.5 2.9 8.5 2.9 8.5 2.9 C 8.5 2.9 8.5 2.9 8.4 2.9 C 8.4 2.9 8.4 3 8.4 3.1 C 8.4 3.3 8.4 3.4 8.4 3.4 C 8.4 3.4 8.4 3.5 8.4 3.5 C 8.5 3.5 8.6 3.4 8.8 3.4 C 9 3.4 9.1 3.4 9.2 3.4 C 9.3 3.3 9.4 3.3 9.4 3.3 C 9.6 3.3 9.6 3.4 9.6 3.5 C 9.6 3.5 9.6 3.6 9.6 3.6 C 9.5 3.6 9.4 3.7 9.2 3.7 C 9 3.7 8.9 3.7 8.7 3.7 C 8.5 3.8 8.4 3.8 8.2 3.8 C 8.1 3.8 8.1 3.8 8 3.7 C 8 3.7 8 3.6 8 3.6 C 8 3.6 8 3.5 8 3.5 C 8 3.5 8 3.5 8 3.4 C 8 3.3 8.1 3.1 8.1 2.6 C 8.2 2.2 8.2 2 8.2 1.9 C 8.2 1.9 8.2 1.9 8.2 1.9 C 8.2 1.9 8.2 1.9 8.2 1.9 C 8.2 1.8 8.2 1.8 8.2 1.8 C 8.2 1.8 8.2 1.8 8.2 1.7 C 8.2 1.7 8.2 1.7 8.2 1.7 C 8.3 1.7 8.3 1.6 8.3 1.6 C 8.4 1.6 8.4 1.7 8.5 1.7 C 8.6 1.7 8.8 1.6 9.3 1.6 C 9.4 1.5 9.5 1.5 9.5 1.5 C 9.5 1.5 9.5 1.5 9.5 1.5 C 9.7 1.5 9.8 1.6 9.8 1.7 C 9.8 1.7 9.8 1.8 9.7 1.8 C 9.7 1.8 9.7 1.9 9.6 1.9 Z M 10 3.2 C 10 3.2 10.12 2.7 10.1 2.7 C 10.2 2.3 10.2 2 10.2 1.9 C 10.3 1.8 10.3 1.8 10.3 1.7 C 10.3 1.7 10.3 1.7 10.3 1.7 C 10.4 1.6 10.4 1.6 10.5 1.6 C 10.5 1.6 10.5 1.6 10.6 1.6 C 10.6 1.7 10.6 1.7 10.7 1.8 C 10.7 2 10.8 2.2 11 2.5 C 11.1 2.8 11.3 3 11.4 3.2 C 11.5 3 11.5 2.8 11.6 2.5 C 11.6 2.3 11.6 2.2 11.6 2 C 11.7 1.9 11.7 1.8 11.7 1.7 C 11.7 1.6 11.7 1.6 11.8 1.5 C 11.8 1.5 11.9 1.5 11.9 1.5 C 11.9 1.5 12 1.5 12 1.6 C 12 1.6 12.1 1.7 12.1 1.7 C 12.1 1.8 12 1.9 12 2 C 11.9 2.2 11.9 2.5 11.8 2.8 C 11.8 3.2 11.7 3.4 11.7 3.4 C 11.7 3.4 11.7 3.5 11.7 3.5 C 11.7 3.5 11.7 3.6 11.7 3.6 C 11.7 3.6 11.7 3.7 11.7 3.7 C 11.6 3.7 11.6 3.7 11.5 3.7 C 11.5 3.7 11.4 3.7 11.4 3.7 C 11.4 3.7 11.4 3.7 11.4 3.6 C 11.3 3.6 11.3 3.6 11.3 3.5 C 11.2 3.4 11.2 3.4 11.2 3.3 C 10.9 3.1 10.7 2.7 10.5 2.3 C 10.5 2.4 10.4 2.7 10.4 3.2 C 10.4 3.2 10.3 3.3 10.3 3.3 C 10.3 3.3 10.3 3.4 10.3 3.5 C 10.3 3.6 10.3 3.7 10.3 3.7 C 10.2 3.8 10.2 3.8 10.1 3.8 C 10.1 3.8 10 3.8 10 3.7 C 10 3.7 10 3.6 10 3.5 C 10 3.5 10 3.3 10 3.2 C 10.01 3.2 10 3.2 10 3.2 Z M 13.9 1.9 C 13.7 1.9 13.5 1.9 13.4 1.9 C 13.4 1.9 13.4 2 13.4 2 C 13.4 2 13.4 2.2 13.4 2.5 C 13.3 2.8 13.3 3 13.3 3.2 C 13.3 3.3 13.3 3.4 13.3 3.5 C 13.3 3.5 13.3 3.5 13.3 3.5 C 13.3 3.6 13.3 3.6 13.3 3.7 C 13.3 3.7 13.2 3.7 13.2 3.7 C 13.1 3.7 13.1 3.7 13 3.7 C 13 3.6 13 3.6 13 3.5 C 13 3.4 12.9 3.3 12.9 3.2 C 12.9 3.1 13 2.8 13 2.5 C 13 2.1 13.1 2 13.1 2 C 13 2 12.9 2 12.7 2 C 12.6 2 12.4 2 12.4 2 C 12.3 2 12.2 2 12.2 2 C 12.2 1.9 12.1 1.9 12.1 1.9 C 12.1 1.8 12.2 1.8 12.2 1.7 C 12.2 1.7 12.4 1.7 12.5 1.7 C 12.8 1.7 13.1 1.7 13.3 1.6 C 13.7 1.6 13.9 1.6 14 1.6 C 14.2 1.6 14.3 1.6 14.4 1.6 C 14.4 1.7 14.4 1.7 14.4 1.8 C 14.4 1.9 14.4 1.9 14.3 1.9 C 14.3 1.9 14.2 1.9 14.2 1.9 C 14.1 1.9 14 1.9 13.9 1.9 C 13.9 1.9 13.9 1.9 13.9 1.9 Z M 14.6 3.2 C 14.6 3.2 14.6 3.2 14.5 3.2 C 14.5 3.2 14.5 3.3 14.4 3.5 C 14.3 3.6 14.2 3.7 14.2 3.7 C 14.2 3.7 14.1 3.7 14.1 3.7 C 14.1 3.7 14 3.7 14 3.7 C 13.9 3.6 13.9 3.6 13.9 3.6 C 13.9 3.5 14 3.3 14.3 2.9 C 14.4 2.7 14.5 2.5 14.7 2.3 C 14.9 1.9 15 1.7 15.1 1.6 C 15.1 1.6 15.2 1.5 15.2 1.5 C 15.3 1.5 15.4 1.5 15.4 1.6 C 15.4 1.6 15.4 1.6 15.4 1.7 C 15.4 1.7 15.4 1.8 15.4 1.8 C 15.6 2.3 15.7 2.7 15.8 2.9 C 15.9 3.2 16 3.3 16.1 3.4 C 16.2 3.5 16.2 3.5 16.2 3.5 C 16.2 3.6 16.2 3.6 16.2 3.6 C 16.2 3.7 16.2 3.7 16.2 3.7 C 16.1 3.8 16.1 3.8 16 3.8 C 16 3.8 15.9 3.8 15.8 3.7 C 15.7 3.6 15.7 3.5 15.6 3.3 C 15.5 3.2 15.5 3.1 15.5 3.1 C 15.5 3.1 15.5 3.1 15.5 3.1 C 15.4 3.1 15.3 3.1 15.1 3.1 C 15 3.1 14.8 3.2 14.7 3.2 C 14.7 3.2 14.6 3.2 14.6 3.2 C 14.6 3.2 14.6 3.2 14.6 3.2 Z M 15.3 2.8 C 15.3 2.8 15.3 2.8 15.4 2.8 C 15.4 2.7 15.3 2.5 15.2 2.1 C 15.2 2.1 15.2 2.1 15.2 2.1 C 15.2 2.1 14.7 2.9 14.7 2.9 C 14.8 2.9 14.9 2.8 14.9 2.8 C 15 2.8 15.1 2.8 15.3 2.8 C 15.3 2.8 15.3 2.8 15.3 2.8 Z M 15.6 1.2 C 15.5 1.2 15.4 1.2 15.4 1.2 C 15.4 1.2 15.3 1.1 15.3 1.1 C 15.3 1.1 15.2 1.1 15.2 1.1 C 15.2 1.1 15.2 1.1 15.2 1 C 15.2 1 15.1 1 15.1 1 C 15 1 15 1 14.9 1.1 C 14.9 1.1 14.9 1.1 14.9 1.1 C 14.8 1.2 14.8 1.2 14.8 1.2 C 14.8 1.2 14.7 1.3 14.7 1.3 C 14.6 1.3 14.6 1.2 14.6 1.1 C 14.6 1.1 14.6 1 14.7 0.9 C 14.9 0.7 15 0.7 15 0.7 C 15.1 0.7 15.2 0.7 15.2 0.7 C 15.2 0.7 15.3 0.8 15.3 0.8 C 15.4 0.9 15.4 0.9 15.5 0.9 C 15.5 1 15.6 1 15.6 1 C 15.6 1 15.6 0.9 15.7 0.9 C 15.7 0.8 15.7 0.8 15.7 0.8 C 15.7 0.8 15.7 0.8 15.7 0.8 C 15.8 0.7 15.8 0.7 15.9 0.7 C 15.9 0.7 16 0.8 16 0.8 C 16 0.9 15.9 1 15.8 1.1 C 15.8 1.2 15.7 1.2 15.6 1.2 C 15.6 1.2 15.6 1.2 15.6 1.2 Z M 17 3.8 C 16.8 3.8 16.7 3.7 16.5 3.5 C 16.4 3.4 16.3 3.2 16.3 3 C 16.3 2.8 16.4 2.6 16.5 2.4 C 16.6 2.1 16.8 1.9 17 1.8 C 17.2 1.6 17.4 1.5 17.6 1.5 C 17.8 1.5 17.9 1.6 18 1.6 C 18.1 1.6 18.2 1.7 18.3 1.8 C 18.4 1.8 18.4 1.9 18.5 2 C 18.5 2.1 18.5 2.2 18.5 2.3 C 18.5 2.5 18.5 2.6 18.4 2.8 C 18.3 3 18.2 3.1 18 3.3 C 17.9 3.4 17.7 3.6 17.6 3.6 C 17.4 3.7 17.2 3.8 17 3.8 Z M 16.7 3 C 16.7 3.2 16.7 3.3 16.8 3.3 C 16.9 3.4 17 3.5 17.1 3.5 C 17.3 3.5 17.6 3.3 17.8 3.1 C 18 2.8 18.1 2.6 18.1 2.3 C 18.1 2.2 18.1 2.1 18.1 2 C 18 2 18 1.9 17.9 1.9 C 17.8 1.8 17.7 1.8 17.6 1.8 C 17.4 1.8 17.2 2 17 2.2 C 16.8 2.5 16.7 2.8 16.7 3 Z M 21.5 1.8 C 21.6 1.9 21.7 2 21.8 2.1 C 21.9 2.3 21.9 2.4 21.9 2.6 C 21.9 2.7 21.9 2.9 21.8 3 C 21.7 3.2 21.5 3.3 21.4 3.5 C 21.6 3.7 21.7 3.8 21.7 3.9 C 21.7 3.9 21.8 4 21.8 4 C 21.8 4 21.7 4 21.7 4.1 C 21.6 4.1 21.6 4.2 21.5 4.2 C 21.5 4.2 21.4 4.1 21.4 4.1 C 21.4 4 21.3 3.9 21.2 3.8 C 21.1 3.7 21.1 3.6 21.1 3.6 C 21.1 3.6 21.1 3.6 21 3.6 C 20.9 3.7 20.7 3.7 20.6 3.7 C 20.3 3.7 20.2 3.6 20 3.5 C 19.9 3.4 19.8 3.3 19.8 3.1 C 19.8 2.8 19.9 2.6 20 2.4 C 20.2 2.1 20.4 1.9 20.6 1.7 C 20.9 1.6 21.1 1.5 21.3 1.5 C 21.3 1.5 21.4 1.5 21.4 1.6 C 21.5 1.6 21.5 1.7 21.5 1.8 Z M 20.5 3.4 C 20.6 3.4 20.7 3.4 20.8 3.4 C 20.8 3.3 20.8 3.3 20.8 3.3 C 20.7 3.2 20.7 3.1 20.7 3.1 C 20.7 3.1 20.7 3.1 20.8 3 C 20.8 3 20.9 2.9 20.9 2.9 C 21 2.9 21 3 21.1 3 C 21.1 3.1 21.1 3.1 21.1 3.2 C 21.1 3.2 21.2 3.2 21.2 3.2 C 21.3 3.2 21.3 3.2 21.4 3 C 21.5 2.9 21.6 2.7 21.6 2.6 C 21.6 2.4 21.5 2.2 21.4 2.1 C 21.3 1.9 21.2 1.8 21.1 1.8 C 21 1.8 20.9 1.9 20.7 2 C 20.6 2.2 20.4 2.3 20.3 2.5 C 20.2 2.7 20.2 2.9 20.2 3 C 20.2 3.2 20.2 3.2 20.3 3.3 C 20.4 3.4 20.4 3.4 20.5 3.4 C 20.5 3.4 20.5 3.4 20.5 3.4 Z M 23.1 3.8 C 23 3.8 22.9 3.7 22.7 3.7 C 22.6 3.6 22.5 3.5 22.4 3.3 C 22.3 3.2 22.3 3 22.3 2.8 C 22.3 2.7 22.3 2.6 22.3 2.5 C 22.3 2.5 22.4 2.2 22.4 2.2 C 22.4 2.1 22.4 2.1 22.4 2.1 C 22.4 2 22.4 1.9 22.4 1.9 C 22.4 1.8 22.4 1.7 22.5 1.6 C 22.5 1.6 22.6 1.5 22.6 1.5 C 22.7 1.5 22.7 1.6 22.7 1.6 C 22.8 1.7 22.8 1.7 22.8 1.8 C 22.8 1.8 22.8 1.9 22.7 2.1 C 22.7 2.1 22.7 2.2 22.7 2.4 C 22.6 2.6 22.6 2.8 22.6 2.8 C 22.6 3.1 22.7 3.2 22.8 3.3 C 22.9 3.4 23 3.5 23.1 3.5 C 23.3 3.5 23.5 3.4 23.6 3.3 C 23.7 3.2 23.7 3 23.8 2.8 C 23.8 2.7 23.8 2.7 23.8 2.6 C 23.8 2.6 23.8 2.5 23.8 2.4 C 23.8 2 23.9 1.8 23.9 1.7 C 24 1.6 24 1.6 24.1 1.6 C 24.2 1.6 24.3 1.7 24.3 1.8 C 24.3 1.9 24.2 2 24.2 2.2 C 24.2 2.3 24.2 2.5 24.1 2.6 C 24.1 2.9 24.1 3.1 24 3.2 C 24 3.4 23.8 3.5 23.7 3.6 C 23.5 3.7 23.3 3.8 23.1 3.8 Z M 26.2 1.9 C 26.2 1.9 25.7 1.9 25.7 1.9 C 25.6 1.9 25.4 1.9 25.3 1.9 C 25.2 1.9 25.1 2 25.1 2 C 25.1 2 25.1 2 25.1 2.1 C 25.1 2.1 25.1 2.2 25 2.3 C 25 2.4 25 2.5 25 2.5 C 25.1 2.5 25.2 2.5 25.3 2.5 C 25.4 2.5 25.5 2.5 25.5 2.5 C 25.7 2.5 25.8 2.4 25.8 2.4 C 26 2.4 26.1 2.5 26.1 2.6 C 26.1 2.6 26.1 2.7 26 2.7 C 26 2.7 25.9 2.8 25.8 2.8 C 25.8 2.8 25.7 2.8 25.6 2.8 C 25.6 2.8 25.5 2.8 25.5 2.8 C 25.2 2.8 25.1 2.9 25 2.9 C 25 2.9 25 2.9 25 2.9 C 25 2.9 25 2.9 25 2.9 C 25 2.9 24.9 3 24.9 3.1 C 24.9 3.3 24.9 3.4 24.9 3.4 C 24.9 3.4 24.9 3.5 25 3.5 C 25 3.5 25.1 3.4 25.3 3.4 C 25.5 3.4 25.7 3.4 25.7 3.4 C 25.8 3.3 25.9 3.3 26 3.3 C 26.1 3.3 26.1 3.4 26.1 3.5 C 26.1 3.5 26.1 3.6 26.1 3.6 C 26 3.6 25.9 3.7 25.7 3.7 C 25.6 3.7 25.4 3.7 25.2 3.7 C 25 3.8 24.9 3.8 24.7 3.8 C 24.7 3.8 24.6 3.8 24.6 3.7 C 24.5 3.7 24.5 3.6 24.5 3.6 C 24.5 3.6 24.5 3.5 24.5 3.5 C 24.5 3.5 24.5 3.5 24.5 3.4 C 24.6 3.3 24.6 3.1 24.7 2.6 C 24.7 2.2 24.7 2 24.7 1.9 C 24.7 1.9 24.7 1.9 24.7 1.9 C 24.7 1.9 24.7 1.9 24.7 1.9 C 24.7 1.8 24.7 1.8 24.7 1.8 C 24.7 1.8 24.7 1.8 24.7 1.7 C 24.7 1.7 24.7 1.7 24.7 1.7 C 24.8 1.7 24.8 1.6 24.9 1.6 C 24.9 1.6 24.9 1.7 25 1.7 C 25.1 1.7 25.3 1.6 25.8 1.6 C 25.9 1.5 26 1.5 26 1.5 C 26 1.5 26 1.5 26 1.5 C 26.2 1.5 26.3 1.6 26.3 1.7 C 26.3 1.7 26.3 1.8 26.3 1.8 C 26.2 1.8 26.2 1.9 26.2 1.9 Z M 26.7 1.9 C 26.7 1.9 26.66 1.88 26.7 1.9 C 26.6 1.8 26.6 1.8 26.6 1.8 C 26.6 1.7 26.6 1.7 26.7 1.6 C 26.7 1.6 26.8 1.6 26.8 1.6 C 26.8 1.6 26.9 1.6 26.9 1.6 C 26.9 1.6 26.9 1.6 26.9 1.6 C 27.2 1.6 27.4 1.5 27.5 1.5 C 27.8 1.5 27.9 1.6 28.1 1.7 C 28.2 1.8 28.2 1.9 28.2 2.1 C 28.2 2.2 28.2 2.4 28.1 2.5 C 27.9 2.6 27.8 2.7 27.6 2.8 C 27.9 3.1 28.2 3.3 28.4 3.4 C 28.4 3.4 28.4 3.5 28.4 3.5 C 28.4 3.6 28.4 3.6 28.4 3.6 C 28.3 3.7 28.3 3.7 28.3 3.7 C 28.2 3.7 28.1 3.7 28.1 3.6 C 28 3.6 27.9 3.5 27.8 3.4 C 27.6 3.3 27.5 3.2 27.5 3.2 C 27.3 3.1 27.2 3 27.1 2.9 C 27 2.9 27 2.9 27 2.8 C 27 2.7 27 2.7 27 2.6 C 27.1 2.6 27.1 2.6 27.2 2.6 C 27.2 2.6 27.2 2.6 27.3 2.6 C 27.3 2.6 27.3 2.6 27.3 2.6 C 27.4 2.6 27.5 2.5 27.6 2.4 C 27.8 2.3 27.9 2.2 27.9 2.1 C 27.9 2 27.9 1.9 27.8 1.9 C 27.7 1.8 27.6 1.8 27.5 1.8 C 27.4 1.8 27.3 1.8 27.2 1.8 C 27.1 1.9 27.1 1.9 27.1 1.9 C 27.1 1.9 27.1 1.9 27 1.9 C 27 2 27 2.1 27 2.2 C 26.9 2.4 26.9 2.6 26.9 2.8 C 26.9 3 26.8 3.2 26.8 3.3 C 26.8 3.3 26.9 3.4 26.9 3.4 C 26.9 3.5 26.9 3.5 26.9 3.6 C 26.9 3.6 26.9 3.6 26.8 3.7 C 26.8 3.7 26.7 3.8 26.7 3.8 C 26.5 3.8 26.5 3.7 26.5 3.5 C 26.5 3.3 26.5 3.1 26.5 2.8 C 26.6 2.6 26.6 2.3 26.6 2.1 C 26.7 2.1 26.7 2 26.7 2 C 26.66 2.02 26.7 1.9 26.7 1.9 Z M 29.8 3.4 C 29.8 3.4 29.8 3.3 29.8 3.2 C 29.9 2.8 29.9 2.5 30 2.1 C 30 2 30 2 30 1.9 C 30 1.9 30 1.9 30 1.9 C 29.9 1.9 29.8 1.8 29.8 1.8 C 29.8 1.7 29.8 1.7 29.9 1.6 C 29.9 1.6 30 1.6 30 1.6 C 30 1.6 30.2 1.6 30.2 1.6 C 30.3 1.6 30.4 1.6 30.6 1.6 C 30.7 1.5 30.8 1.5 30.9 1.5 C 31.2 1.5 31.4 1.6 31.6 1.8 C 31.7 1.9 31.8 2.1 31.8 2.4 C 31.8 2.7 31.7 2.9 31.4 3.1 C 31.2 3.4 30.9 3.5 30.5 3.6 C 30.4 3.6 30.3 3.6 30.3 3.7 C 30.2 3.7 30.2 3.7 30.1 3.7 C 30.1 3.8 30 3.8 29.9 3.8 C 29.9 3.8 29.9 3.8 29.8 3.7 C 29.8 3.7 29.8 3.6 29.8 3.6 C 29.8 3.6 29.8 3.6 29.8 3.5 C 29.8 3.5 29.8 3.4 29.8 3.4 Z M 30.2 3.3 C 30.2 3.3 30.2 3.3 30.2 3.4 C 30.3 3.4 30.4 3.3 30.6 3.3 C 30.9 3.2 31.1 3.1 31.2 2.9 C 31.4 2.7 31.5 2.6 31.5 2.4 C 31.5 2.2 31.4 2.1 31.3 2 C 31.2 1.9 31 1.8 30.9 1.8 C 30.7 1.8 30.6 1.9 30.4 1.9 C 30.4 1.9 30.4 1.9 30.4 1.9 C 30.2 2.5 30.2 3 30.2 3.3 C 30.2 3.3 30.2 3.3 30.2 3.3 Z M 32.6 2.2 C 32.6 2.3 32.5 2.4 32.5 2.4 C 32.5 2.5 32.5 2.5 32.5 2.7 C 32.5 2.9 32.5 3 32.5 3.1 C 32.5 3.2 32.5 3.3 32.5 3.5 C 32.5 3.6 32.5 3.6 32.4 3.7 C 32.4 3.7 32.3 3.7 32.3 3.7 C 32.2 3.7 32.2 3.7 32.1 3.6 C 32.1 3.6 32.1 3.5 32.1 3.3 C 32.1 3.2 32.1 3 32.2 2.7 C 32.2 2.7 32.2 2.1 32.2 2.1 C 32.3 2 32.3 1.9 32.3 1.9 C 32.3 1.7 32.3 1.7 32.3 1.7 C 32.3 1.6 32.4 1.6 32.4 1.6 C 32.5 1.6 32.5 1.5 32.5 1.5 C 32.6 1.5 32.6 1.6 32.6 1.6 C 32.7 1.7 32.7 1.7 32.7 1.8 C 32.7 1.8 32.6 2.2 32.6 2.2 Z M 35 1.7 C 35 1.7 34.9 1.8 34.9 1.8 C 34.9 1.8 34.9 1.8 34.9 1.8 C 34.9 1.9 34.8 1.9 34.8 1.9 C 34.8 1.9 34.7 2 34.6 2.1 C 34.5 2.3 34.3 2.5 34.2 2.6 C 34.1 2.7 33.9 2.9 33.6 3.2 C 33.6 3.2 33.4 3.3 33.4 3.3 C 33.5 3.3 33.6 3.3 33.8 3.3 C 34 3.3 34.1 3.3 34.1 3.3 C 34.2 3.3 34.3 3.3 34.3 3.3 C 34.4 3.3 34.4 3.3 34.4 3.3 C 34.7 3.3 34.9 3.3 34.9 3.5 C 34.9 3.5 34.8 3.6 34.8 3.6 C 34.8 3.6 34.7 3.6 34.7 3.6 C 34.7 3.6 34.6 3.6 34.6 3.6 C 34.5 3.6 34.4 3.6 34.2 3.6 C 34.2 3.6 34 3.6 33.8 3.6 C 33.8 3.6 33.8 3.6 33.8 3.6 C 33.6 3.6 33.4 3.6 33.3 3.7 C 33.3 3.7 33.2 3.7 33.1 3.7 C 33 3.7 32.9 3.7 32.9 3.7 C 32.8 3.7 32.8 3.7 32.8 3.6 C 32.8 3.5 32.8 3.5 32.9 3.4 C 33 3.3 33.2 3.2 33.4 3 C 33.6 2.8 33.8 2.6 34 2.4 C 34 2.4 34 2.3 34.1 2.3 C 34.2 2.1 34.3 2 34.4 1.9 C 34.4 1.9 34.2 1.9 33.9 2 C 33.7 2 33.5 2 33.4 2 C 33.3 2 33.3 2 33.2 2 C 33.1 1.9 33 1.9 33 1.8 C 33 1.8 33.1 1.7 33.1 1.7 C 33.1 1.6 33.2 1.6 33.2 1.6 C 33.2 1.6 33.2 1.6 33.3 1.6 C 33.3 1.7 33.3 1.7 33.3 1.7 C 33.3 1.7 33.6 1.7 33.6 1.7 C 33.7 1.7 33.8 1.7 33.9 1.7 C 33.9 1.6 34 1.6 34.2 1.6 C 34.3 1.6 34.4 1.6 34.5 1.6 C 34.7 1.6 34.8 1.6 34.8 1.6 C 34.9 1.6 35 1.6 35 1.7 C 35 1.7 35 1.7 35 1.7 Z M 36.9 1.9 C 36.9 1.9 36.4 1.9 36.4 1.9 C 36.3 1.9 36.2 1.9 36 1.9 C 35.9 1.9 35.9 2 35.9 2 C 35.9 2 35.8 2 35.8 2.1 C 35.8 2.1 35.8 2.2 35.8 2.3 C 35.8 2.4 35.7 2.5 35.7 2.5 C 35.8 2.5 35.9 2.5 36 2.5 C 36.1 2.5 36.2 2.5 36.3 2.5 C 36.4 2.5 36.5 2.4 36.6 2.4 C 36.7 2.4 36.8 2.5 36.8 2.6 C 36.8 2.6 36.8 2.7 36.8 2.7 C 36.7 2.7 36.6 2.8 36.6 2.8 C 36.5 2.8 36.4 2.8 36.4 2.8 C 36.3 2.8 36.3 2.8 36.2 2.8 C 36 2.8 35.8 2.9 35.7 2.9 C 35.7 2.9 35.7 2.9 35.7 2.9 C 35.7 2.9 35.7 2.9 35.7 2.9 C 35.7 2.9 35.7 3 35.7 3.1 C 35.6 3.3 35.6 3.4 35.6 3.4 C 35.6 3.4 35.7 3.5 35.7 3.5 C 35.7 3.5 35.9 3.4 36.1 3.4 C 36.3 3.4 36.4 3.4 36.4 3.4 C 36.6 3.3 36.7 3.3 36.7 3.3 C 36.8 3.3 36.9 3.4 36.9 3.5 C 36.9 3.5 36.9 3.6 36.8 3.6 C 36.7 3.6 36.6 3.7 36.4 3.7 C 36.3 3.7 36.1 3.7 36 3.7 C 35.8 3.8 35.6 3.8 35.5 3.8 C 35.4 3.8 35.3 3.8 35.3 3.7 C 35.3 3.7 35.2 3.6 35.2 3.6 C 35.2 3.6 35.2 3.5 35.2 3.5 C 35.2 3.5 35.2 3.5 35.3 3.4 C 35.3 3.3 35.3 3.1 35.4 2.6 C 35.5 2.2 35.5 2 35.5 1.9 C 35.5 1.9 35.5 1.9 35.5 1.9 C 35.5 1.9 35.5 1.9 35.4 1.9 C 35.4 1.8 35.4 1.8 35.4 1.8 C 35.4 1.8 35.4 1.8 35.4 1.7 C 35.4 1.7 35.4 1.7 35.5 1.7 C 35.5 1.7 35.6 1.6 35.6 1.6 C 35.6 1.6 35.7 1.7 35.7 1.7 C 35.8 1.7 36.1 1.6 36.5 1.6 C 36.7 1.5 36.7 1.5 36.8 1.5 C 36.8 1.5 36.8 1.5 36.8 1.5 C 37 1.5 37 1.6 37 1.7 C 37 1.7 37 1.8 37 1.8 C 37 1.8 36.9 1.9 36.9 1.9 Z M 37.4 1.9 C 37.4 1.9 37.4 1.88 37.4 1.9 C 37.4 1.8 37.4 1.8 37.4 1.8 C 37.4 1.7 37.4 1.7 37.4 1.6 C 37.5 1.6 37.5 1.6 37.6 1.6 C 37.6 1.6 37.6 1.6 37.6 1.6 C 37.7 1.6 37.7 1.6 37.7 1.6 C 38 1.6 38.2 1.5 38.3 1.5 C 38.5 1.5 38.7 1.6 38.8 1.7 C 38.9 1.8 39 1.9 39 2.1 C 39 2.2 38.9 2.4 38.8 2.5 C 38.7 2.6 38.5 2.7 38.3 2.8 C 38.6 3.1 38.9 3.3 39.1 3.4 C 39.2 3.4 39.2 3.5 39.2 3.5 C 39.2 3.6 39.2 3.6 39.1 3.6 C 39.1 3.7 39 3.7 39 3.7 C 38.9 3.7 38.9 3.7 38.8 3.6 C 38.7 3.6 38.6 3.5 38.5 3.4 C 38.4 3.3 38.3 3.2 38.3 3.2 C 38.1 3.1 37.9 3 37.9 2.9 C 37.8 2.9 37.7 2.9 37.7 2.8 C 37.7 2.7 37.7 2.7 37.8 2.6 C 37.8 2.6 37.9 2.6 37.9 2.6 C 38 2.6 38 2.6 38 2.6 C 38 2.6 38 2.6 38 2.6 C 38.1 2.6 38.2 2.5 38.4 2.4 C 38.5 2.3 38.6 2.2 38.6 2.1 C 38.6 2 38.6 1.9 38.5 1.9 C 38.5 1.8 38.4 1.8 38.3 1.8 C 38.1 1.8 38 1.8 37.9 1.8 C 37.9 1.9 37.8 1.9 37.8 1.9 C 37.8 1.9 37.8 1.9 37.8 1.9 C 37.8 2 37.8 2.1 37.7 2.2 C 37.7 2.4 37.7 2.6 37.6 2.8 C 37.6 3 37.6 3.2 37.6 3.3 C 37.6 3.3 37.6 3.4 37.6 3.4 C 37.6 3.5 37.6 3.5 37.6 3.6 C 37.6 3.6 37.6 3.6 37.6 3.7 C 37.5 3.7 37.5 3.8 37.4 3.8 C 37.3 3.8 37.2 3.7 37.2 3.5 C 37.2 3.3 37.2 3.1 37.3 2.8 C 37.3 2.6 37.3 2.3 37.4 2.1 C 37.4 2.1 37.4 2 37.4 2 C 37.4 2.02 37.4 1.9 37.4 1.9 Z M 42.1 1.8 C 42.3 1.9 42.4 2 42.4 2.1 C 42.5 2.3 42.5 2.4 42.5 2.6 C 42.5 2.7 42.5 2.9 42.4 3 C 42.3 3.2 42.2 3.3 42 3.5 C 42.2 3.7 42.3 3.8 42.3 3.9 C 42.4 3.9 42.4 4 42.4 4 C 42.4 4 42.3 4 42.3 4.1 C 42.2 4.1 42.2 4.2 42.2 4.2 C 42.1 4.2 42.1 4.1 42 4.1 C 42 4 41.9 3.9 41.8 3.8 C 41.7 3.7 41.7 3.6 41.7 3.6 C 41.7 3.6 41.7 3.6 41.6 3.6 C 41.5 3.7 41.3 3.7 41.2 3.7 C 41 3.7 40.8 3.6 40.6 3.5 C 40.5 3.4 40.4 3.3 40.4 3.1 C 40.4 2.8 40.5 2.6 40.6 2.4 C 40.8 2.1 41 1.9 41.2 1.7 C 41.5 1.6 41.7 1.5 41.9 1.5 C 41.9 1.5 42 1.5 42 1.6 C 42.1 1.6 42.1 1.7 42.1 1.8 Z M 41.2 3.4 C 41.2 3.4 41.3 3.4 41.5 3.4 C 41.4 3.3 41.4 3.3 41.4 3.3 C 41.3 3.2 41.3 3.1 41.3 3.1 C 41.3 3.1 41.3 3.1 41.4 3 C 41.4 3 41.5 2.9 41.6 2.9 C 41.6 2.9 41.6 3 41.7 3 C 41.7 3.1 41.7 3.1 41.7 3.2 C 41.8 3.2 41.8 3.2 41.8 3.2 C 41.9 3.2 42 3.2 42.1 3 C 42.2 2.9 42.2 2.7 42.2 2.6 C 42.2 2.4 42.1 2.2 42 2.1 C 41.9 1.9 41.8 1.8 41.7 1.8 C 41.6 1.8 41.5 1.9 41.3 2 C 41.2 2.2 41 2.3 40.9 2.5 C 40.8 2.7 40.8 2.9 40.8 3 C 40.8 3.2 40.8 3.2 40.9 3.3 C 41 3.4 41 3.4 41.2 3.4 C 41.2 3.4 41.2 3.4 41.2 3.4 Z M 43.7 3.8 C 43.6 3.8 43.5 3.7 43.3 3.7 C 43.2 3.6 43.1 3.5 43 3.3 C 42.9 3.2 42.9 3 42.9 2.8 C 42.9 2.7 42.9 2.6 42.9 2.5 C 42.9 2.5 43 2.2 43 2.2 C 43 2.1 43 2.1 43 2.1 C 43 2 43 1.9 43 1.9 C 43 1.8 43.1 1.7 43.1 1.6 C 43.1 1.6 43.2 1.5 43.2 1.5 C 43.3 1.5 43.3 1.6 43.4 1.6 C 43.4 1.7 43.4 1.7 43.4 1.8 C 43.4 1.8 43.4 1.9 43.3 2.1 C 43.3 2.1 43.3 2.2 43.3 2.4 C 43.3 2.6 43.2 2.8 43.2 2.8 C 43.2 3.1 43.3 3.2 43.4 3.3 C 43.5 3.4 43.6 3.5 43.7 3.5 C 43.9 3.5 44.1 3.4 44.2 3.3 C 44.3 3.2 44.3 3 44.4 2.8 C 44.4 2.7 44.4 2.7 44.4 2.6 C 44.4 2.6 44.4 2.5 44.4 2.4 C 44.4 2 44.5 1.8 44.5 1.7 C 44.6 1.6 44.6 1.6 44.7 1.6 C 44.8 1.6 44.9 1.7 44.9 1.8 C 44.9 1.9 44.8 2 44.8 2.2 C 44.8 2.3 44.8 2.5 44.8 2.6 C 44.7 2.9 44.7 3.1 44.6 3.2 C 44.6 3.4 44.5 3.5 44.3 3.6 C 44.1 3.7 43.9 3.8 43.7 3.8 Z M 46.8 1.9 C 46.8 1.9 46.3 1.9 46.3 1.9 C 46.2 1.9 46 1.9 45.9 1.9 C 45.8 1.9 45.7 2 45.7 2 C 45.7 2 45.7 2 45.7 2.1 C 45.7 2.1 45.7 2.2 45.7 2.3 C 45.6 2.4 45.6 2.5 45.6 2.5 C 45.7 2.5 45.8 2.5 45.9 2.5 C 46 2.5 46.1 2.5 46.1 2.5 C 46.3 2.5 46.4 2.4 46.5 2.4 C 46.6 2.4 46.7 2.5 46.7 2.6 C 46.7 2.6 46.7 2.7 46.6 2.7 C 46.6 2.7 46.5 2.8 46.4 2.8 C 46.4 2.8 46.3 2.8 46.2 2.8 C 46.2 2.8 46.1 2.8 46.1 2.8 C 45.8 2.8 45.7 2.9 45.6 2.9 C 45.6 2.9 45.6 2.9 45.6 2.9 C 45.6 2.9 45.6 2.9 45.6 2.9 C 45.6 2.9 45.6 3 45.5 3.1 C 45.5 3.3 45.5 3.4 45.5 3.4 C 45.5 3.4 45.5 3.5 45.6 3.5 C 45.6 3.5 45.7 3.4 45.9 3.4 C 46.1 3.4 46.3 3.4 46.3 3.4 C 46.4 3.3 46.5 3.3 46.6 3.3 C 46.7 3.3 46.8 3.4 46.8 3.5 C 46.8 3.5 46.7 3.6 46.7 3.6 C 46.6 3.6 46.5 3.7 46.3 3.7 C 46.2 3.7 46 3.7 45.8 3.7 C 45.6 3.8 45.5 3.8 45.3 3.8 C 45.3 3.8 45.2 3.8 45.2 3.7 C 45.1 3.7 45.1 3.6 45.1 3.6 C 45.1 3.6 45.1 3.5 45.1 3.5 C 45.1 3.5 45.1 3.5 45.1 3.4 C 45.2 3.3 45.2 3.1 45.3 2.6 C 45.3 2.2 45.4 2 45.4 1.9 C 45.4 1.9 45.3 1.9 45.3 1.9 C 45.3 1.9 45.3 1.9 45.3 1.9 C 45.3 1.8 45.3 1.8 45.3 1.8 C 45.3 1.8 45.3 1.8 45.3 1.7 C 45.3 1.7 45.3 1.7 45.4 1.7 C 45.4 1.7 45.4 1.6 45.5 1.6 C 45.5 1.6 45.6 1.7 45.6 1.7 C 45.7 1.7 45.9 1.6 46.4 1.6 C 46.5 1.5 46.6 1.5 46.6 1.5 C 46.6 1.5 46.6 1.5 46.6 1.5 C 46.8 1.5 46.9 1.6 46.9 1.7 C 46.9 1.7 46.9 1.8 46.9 1.8 C 46.8 1.8 46.8 1.9 46.8 1.9 Z M 49.5 3.3 C 49.6 3.2 49.7 3.2 49.7 3.2 C 49.8 3.2 49.8 3.2 49.8 3.3 C 49.8 3.4 49.7 3.5 49.5 3.6 C 49.3 3.7 49.1 3.8 48.9 3.8 C 48.7 3.8 48.5 3.7 48.4 3.6 C 48.2 3.5 48.2 3.3 48.2 3.1 C 48.2 2.9 48.2 2.6 48.4 2.4 C 48.6 2.1 48.8 1.9 49 1.7 C 49.2 1.5 49.4 1.4 49.7 1.4 C 49.8 1.4 49.9 1.5 50 1.5 C 50.1 1.6 50.1 1.7 50.1 1.8 C 50.1 1.9 50.1 2 50.1 2.1 C 50 2.1 50 2.2 50 2.2 C 49.9 2.2 49.8 2.2 49.8 2.2 C 49.8 2.2 49.7 2.2 49.7 2.2 C 49.7 2.2 49.7 2.1 49.7 2.1 C 49.7 2.1 49.7 2 49.7 2 C 49.7 1.9 49.7 1.9 49.7 1.8 C 49.7 1.7 49.7 1.7 49.7 1.7 C 49.5 1.7 49.4 1.8 49.2 1.9 C 49 2.1 48.9 2.3 48.7 2.5 C 48.6 2.7 48.5 2.9 48.5 3.1 C 48.5 3.2 48.6 3.3 48.6 3.4 C 48.7 3.5 48.8 3.5 48.9 3.5 C 49 3.5 49.1 3.5 49.2 3.4 C 49.3 3.4 49.4 3.3 49.5 3.3 C 49.5 3.3 49.5 3.3 49.5 3.3 Z M 50.8 3.8 C 50.7 3.8 50.5 3.7 50.4 3.5 C 50.3 3.4 50.2 3.2 50.2 3 C 50.2 2.8 50.3 2.6 50.4 2.4 C 50.5 2.1 50.7 1.9 50.9 1.8 C 51 1.6 51.3 1.5 51.5 1.5 C 51.6 1.5 51.8 1.6 51.9 1.6 C 52 1.6 52.1 1.7 52.2 1.8 C 52.2 1.8 52.3 1.9 52.3 2 C 52.4 2.1 52.4 2.2 52.4 2.3 C 52.4 2.5 52.3 2.6 52.3 2.8 C 52.2 3 52.1 3.1 51.9 3.3 C 51.8 3.4 51.6 3.6 51.5 3.6 C 51.3 3.7 51.1 3.8 50.8 3.8 Z M 50.6 3 C 50.6 3.2 50.6 3.3 50.7 3.3 C 50.7 3.4 50.8 3.5 50.9 3.5 C 51.2 3.5 51.4 3.3 51.7 3.1 C 51.9 2.8 52 2.6 52 2.3 C 52 2.2 52 2.1 51.9 2 C 51.9 2 51.8 1.9 51.8 1.9 C 51.7 1.8 51.6 1.8 51.5 1.8 C 51.3 1.8 51.1 2 50.9 2.2 C 50.7 2.5 50.6 2.8 50.6 3 Z M 54.7 2.2 C 54.7 2.1 54.7 2.1 54.7 2.1 C 54.7 2.1 54.2 2.7 54.2 2.7 C 54 3 53.8 3.2 53.7 3.2 C 53.6 3.2 53.6 3.2 53.5 3.1 C 53.5 3 53.4 2.9 53.4 2.8 C 53.3 2.7 53.3 2.6 53.3 2.5 C 53.2 2.3 53.2 2.3 53.2 2.2 C 53.2 2.2 53.1 2.6 53.1 2.6 C 53.1 2.7 53.1 2.8 53 2.9 C 53 3.1 53 3.2 53 3.3 C 52.9 3.5 52.9 3.6 52.9 3.6 C 52.9 3.7 52.9 3.7 52.8 3.7 C 52.8 3.8 52.8 3.8 52.7 3.8 C 52.7 3.8 52.7 3.7 52.6 3.7 C 52.6 3.7 52.6 3.6 52.6 3.6 C 52.6 3.5 52.6 3.4 52.6 3.2 C 52.8 2.6 52.9 2.3 52.9 2.1 C 52.9 2 52.9 1.8 52.9 1.7 C 52.9 1.7 52.9 1.6 53 1.6 C 53 1.6 53.1 1.6 53.2 1.6 C 53.2 1.6 53.2 1.6 53.3 1.6 C 53.3 1.7 53.4 1.7 53.4 1.8 C 53.37 1.78 53.4 1.8 53.4 1.8 C 53.4 1.8 53.57 2.35 53.6 2.3 C 53.7 2.6 53.7 2.7 53.7 2.8 C 53.8 2.7 54 2.5 54.2 2.2 C 54.4 1.9 54.5 1.7 54.6 1.6 C 54.7 1.6 54.8 1.5 54.8 1.5 C 54.8 1.5 54.9 1.5 54.9 1.6 C 55 1.6 55 1.7 55 1.7 C 55 1.7 55 1.9 55 2.1 C 55 2.3 54.9 2.5 54.9 2.8 C 54.9 3 54.9 3.1 54.9 3.2 C 54.9 3.2 54.9 3.3 54.9 3.4 C 54.9 3.4 54.9 3.4 54.9 3.5 C 54.9 3.6 54.9 3.6 54.9 3.7 C 54.8 3.7 54.8 3.7 54.7 3.7 C 54.6 3.7 54.5 3.6 54.5 3.4 C 54.5 3.3 54.5 3 54.6 2.8 C 54.6 2.5 54.6 2.3 54.7 2.2 C 54.7 2.2 54.7 2.2 54.7 2.2 Z " stroke="none" fill="#000"/>  </g></svg>