<?xml version="1.0" standalone="no"?><!DOCTYPE svg PUBLIC "-//W3C//DTD SVG 1.1//EN" "http://www.w3.org/Graphics/SVG/1.1/DTD/svg11.dtd"><svg xmlns="http://www.w3.org/2000/svg" version="1.1" width="43px" height="11.4px" viewBox="0 -3 43 11.4" style="top:-3px">  <desc>GEST O P BLICA</desc>  <defs/>  <g id="Polygon13219">    <path d="M 4.7 2.4 C 4.7 2.4 4.6 2.5 4.6 2.7 C 4.6 2.7 4.6 2.7 4.6 2.7 C 4.6 2.8 4.5 2.9 4.5 3.1 C 4.5 3.3 4.4 3.5 4.4 3.6 C 4.4 3.7 4.4 3.8 4.4 3.9 C 4.4 4 4.4 4 4.4 4.1 C 4.4 4.1 4.3 4.1 4.3 4.2 C 4.3 4.2 4.2 4.2 4.2 4.2 C 4.1 4.2 4 4.2 4 4.1 C 3.9 4.1 3.9 4 3.9 3.9 C 3.9 3.9 3.9 3.8 3.9 3.6 C 4 3.4 4 3.3 4 3.2 C 3.5 3.5 3.1 3.7 2.7 3.7 C 2.5 3.7 2.3 3.6 2.1 3.5 C 2 3.3 1.9 3.1 1.9 2.9 C 1.9 2.5 2 2.1 2.2 1.7 C 2.2 1.7 2.2 1.7 2.2 1.7 C 2.5 1.3 2.8 1 3.2 0.8 C 3.5 0.6 3.9 0.4 4.2 0.4 C 4.4 0.4 4.6 0.5 4.7 0.5 C 4.8 0.6 4.8 0.7 4.8 0.8 C 4.8 0.9 4.8 1 4.7 1.1 C 4.7 1.2 4.6 1.3 4.5 1.3 C 4.5 1.3 4.4 1.2 4.4 1.2 C 4.4 1.2 4.4 1.2 4.3 1.1 C 4.3 1 4.3 1 4.2 1 C 4.2 0.9 4.2 0.9 4.1 0.9 C 3.9 0.9 3.6 1 3.3 1.3 C 3.1 1.5 2.8 1.7 2.7 2 C 2.5 2.3 2.4 2.6 2.4 2.8 C 2.4 3.1 2.5 3.3 2.8 3.3 C 2.9 3.3 3 3.2 3.2 3.2 C 3.4 3.1 3.6 3 3.8 2.9 C 4 2.7 4.1 2.6 4.1 2.5 C 4.2 2.4 4.2 2.3 4.2 2.1 C 4.2 2 4.2 2 4.3 2 C 4.3 1.9 4.4 1.9 4.5 1.9 C 4.7 1.9 4.8 2 4.8 2.1 C 4.8 2.2 4.7 2.2 4.7 2.4 C 4.7 2.4 4.7 2.4 4.7 2.4 Z M 7.7 1.1 C 7.7 1.1 7 1.1 7 1.1 C 6.8 1.1 6.6 1.1 6.4 1.2 C 6.3 1.2 6.2 1.2 6.2 1.2 C 6.2 1.2 6.2 1.3 6.2 1.4 C 6.1 1.4 6.1 1.6 6.1 1.7 C 6 1.9 6 2 6 2.1 C 6.1 2.1 6.2 2.1 6.4 2 C 6.6 2 6.7 2 6.8 2 C 7 1.9 7.1 1.9 7.2 1.9 C 7.5 1.9 7.6 2 7.6 2.1 C 7.6 2.2 7.6 2.3 7.5 2.3 C 7.4 2.4 7.3 2.4 7.2 2.4 C 7.1 2.4 7 2.4 6.9 2.4 C 6.9 2.5 6.8 2.5 6.7 2.5 C 6.3 2.5 6.1 2.5 6 2.6 C 6 2.6 6 2.6 6 2.6 C 6 2.6 6 2.6 6 2.6 C 5.9 2.7 5.9 2.8 5.9 2.9 C 5.9 3.1 5.8 3.3 5.8 3.3 C 5.8 3.4 5.9 3.4 5.9 3.4 C 6 3.4 6.2 3.4 6.5 3.4 C 6.8 3.3 7 3.3 7 3.3 C 7.2 3.2 7.3 3.2 7.4 3.2 C 7.6 3.2 7.7 3.3 7.7 3.5 C 7.7 3.5 7.7 3.6 7.6 3.6 C 7.5 3.7 7.3 3.7 7 3.7 C 6.8 3.8 6.6 3.8 6.3 3.8 C 6.1 3.9 5.8 3.9 5.6 3.9 C 5.5 3.9 5.4 3.9 5.4 3.8 C 5.3 3.8 5.3 3.7 5.3 3.6 C 5.3 3.6 5.3 3.5 5.3 3.5 C 5.3 3.5 5.3 3.5 5.3 3.4 C 5.4 3.2 5.4 2.8 5.5 2.2 C 5.6 1.6 5.6 1.3 5.6 1.2 C 5.6 1.2 5.6 1.2 5.6 1.2 C 5.6 1.2 5.6 1.1 5.6 1.1 C 5.5 1.1 5.5 1 5.5 1 C 5.5 0.9 5.5 0.9 5.5 0.9 C 5.5 0.9 5.6 0.8 5.6 0.8 C 5.7 0.8 5.7 0.8 5.8 0.8 C 5.9 0.8 5.9 0.8 6 0.8 C 6.1 0.8 6.5 0.7 7.1 0.6 C 7.4 0.6 7.5 0.6 7.5 0.6 C 7.5 0.6 7.5 0.6 7.5 0.6 C 7.8 0.6 7.9 0.7 7.9 0.9 C 7.9 0.9 7.9 0.9 7.8 1 C 7.8 1 7.7 1.1 7.7 1.1 Z M 10.5 1 C 10.5 1.3 10.4 1.4 10.1 1.4 C 10.1 1.3 10.1 1.2 10 1.1 C 10 1.1 9.8 1 9.7 1 C 9.5 1 9.2 1.1 9 1.2 C 8.8 1.3 8.7 1.5 8.7 1.6 C 8.7 1.7 8.8 1.8 8.8 1.8 C 8.9 1.9 9.1 2 9.4 2.1 C 9.8 2.2 10 2.3 10.2 2.4 C 10.4 2.5 10.4 2.7 10.4 2.8 C 10.4 3.1 10.2 3.4 9.8 3.6 C 9.4 3.8 9 3.9 8.5 3.9 C 8.4 3.9 8.2 3.9 8.2 3.8 C 8.1 3.8 8 3.7 8 3.6 C 8 3.5 8 3.5 8.1 3.4 C 8.1 3.4 8.2 3.3 8.2 3.3 C 8.3 3.3 8.3 3.3 8.3 3.3 C 8.5 3.4 8.6 3.4 8.7 3.4 C 9 3.4 9.2 3.4 9.5 3.2 C 9.8 3.1 9.9 3 9.9 2.9 C 9.9 2.8 9.9 2.8 9.8 2.7 C 9.7 2.7 9.6 2.6 9.4 2.6 C 9.1 2.5 8.8 2.4 8.7 2.3 C 8.5 2.2 8.4 2.2 8.3 2.1 C 8.2 1.9 8.2 1.8 8.2 1.7 C 8.2 1.4 8.4 1.2 8.7 0.9 C 9 0.7 9.3 0.6 9.8 0.6 C 10 0.6 10.2 0.6 10.3 0.7 C 10.5 0.8 10.5 0.9 10.5 1 C 10.5 1 10.5 1 10.5 1 Z M 13.3 1.1 C 12.9 1.1 12.6 1.1 12.5 1.2 C 12.5 1.2 12.5 1.2 12.5 1.3 C 12.5 1.3 12.4 1.6 12.4 2 C 12.3 2.5 12.3 2.8 12.3 3.1 C 12.3 3.2 12.3 3.3 12.3 3.4 C 12.4 3.5 12.4 3.5 12.4 3.5 C 12.4 3.6 12.3 3.7 12.3 3.7 C 12.2 3.8 12.2 3.8 12.1 3.8 C 12.1 3.8 12 3.8 11.9 3.7 C 11.9 3.7 11.8 3.6 11.8 3.5 C 11.8 3.4 11.8 3.2 11.8 3.1 C 11.8 2.8 11.8 2.5 11.9 2 C 11.9 1.5 12 1.2 12 1.2 C 11.9 1.2 11.8 1.2 11.5 1.3 C 11.2 1.3 11.1 1.3 11 1.3 C 10.9 1.3 10.8 1.3 10.7 1.2 C 10.6 1.2 10.6 1.1 10.6 1.1 C 10.6 1 10.6 0.9 10.7 0.9 C 10.8 0.9 10.9 0.8 11.2 0.8 C 11.6 0.8 12 0.8 12.4 0.8 C 12.8 0.7 13.2 0.7 13.4 0.7 C 13.6 0.7 13.8 0.7 13.9 0.7 C 13.9 0.8 13.9 0.9 13.9 0.9 C 13.9 1.1 13.9 1.1 13.8 1.1 C 13.7 1.1 13.7 1.1 13.6 1.1 C 13.5 1.1 13.4 1.1 13.3 1.1 C 13.3 1.1 13.3 1.1 13.3 1.1 Z M 14.2 3.1 C 14.2 3.1 14.1 3.1 14.1 3 C 14.1 3.1 14 3.2 13.9 3.4 C 13.8 3.6 13.7 3.8 13.6 3.8 C 13.6 3.8 13.5 3.8 13.5 3.8 C 13.5 3.8 13.4 3.8 13.3 3.7 C 13.2 3.7 13.2 3.6 13.2 3.6 C 13.2 3.5 13.4 3.2 13.7 2.7 C 13.9 2.4 14.1 2.1 14.3 1.8 C 14.6 1.2 14.8 0.8 14.9 0.7 C 15 0.6 15 0.6 15.1 0.6 C 15.2 0.6 15.3 0.6 15.4 0.7 C 15.4 0.7 15.4 0.7 15.4 0.8 C 15.4 0.9 15.4 0.9 15.4 1 C 15.7 1.8 15.9 2.3 16 2.7 C 16.2 3 16.3 3.2 16.4 3.4 C 16.5 3.4 16.6 3.5 16.6 3.5 C 16.6 3.5 16.6 3.6 16.6 3.6 C 16.6 3.7 16.6 3.8 16.5 3.8 C 16.5 3.9 16.4 3.9 16.3 3.9 C 16.2 3.9 16.1 3.8 16 3.7 C 15.9 3.6 15.8 3.4 15.7 3.2 C 15.6 3 15.5 2.9 15.5 2.8 C 15.5 2.8 15.5 2.8 15.5 2.8 C 15.4 2.8 15.3 2.8 15 2.9 C 14.7 3 14.5 3 14.4 3.1 C 14.3 3.1 14.3 3.1 14.2 3.1 C 14.2 3.1 14.2 3.1 14.2 3.1 Z M 15.2 2.4 C 15.2 2.4 15.3 2.4 15.4 2.4 C 15.3 2.3 15.2 2 15 1.5 C 15 1.4 15 1.4 15 1.4 C 15 1.4 14.4 2.5 14.4 2.5 C 14.5 2.5 14.6 2.5 14.7 2.5 C 14.7 2.5 14.9 2.5 15.2 2.4 C 15.2 2.4 15.2 2.4 15.2 2.4 Z M 15.7 0.2 C 15.5 0.2 15.4 0.1 15.4 0.1 C 15.3 0.1 15.3 0 15.2 0 C 15.2 0 15.1 -0.1 15.1 -0.1 C 15.1 -0.1 15.1 -0.1 15.1 -0.1 C 15 -0.2 15 -0.2 14.9 -0.2 C 14.8 -0.2 14.8 -0.2 14.6 0 C 14.6 0 14.6 -0.1 14.6 -0.1 C 14.6 0.1 14.5 0.1 14.5 0.2 C 14.4 0.2 14.4 0.2 14.3 0.2 C 14.2 0.2 14.2 0.1 14.2 0 C 14.2 -0.1 14.3 -0.2 14.4 -0.4 C 14.6 -0.6 14.7 -0.7 14.9 -0.7 C 15 -0.7 15 -0.6 15.1 -0.6 C 15.2 -0.6 15.2 -0.5 15.3 -0.5 C 15.4 -0.4 15.4 -0.3 15.5 -0.3 C 15.6 -0.3 15.6 -0.2 15.6 -0.2 C 15.7 -0.2 15.7 -0.3 15.8 -0.4 C 15.8 -0.4 15.8 -0.5 15.9 -0.5 C 15.9 -0.5 15.9 -0.5 15.9 -0.5 C 15.9 -0.6 16 -0.6 16 -0.6 C 16.2 -0.6 16.2 -0.5 16.2 -0.4 C 16.2 -0.3 16.1 -0.2 16 -0.1 C 15.9 0.1 15.8 0.2 15.7 0.2 C 15.7 0.2 15.7 0.2 15.7 0.2 Z M 17.7 3.9 C 17.4 3.9 17.2 3.8 17 3.5 C 16.8 3.3 16.7 3.1 16.7 2.8 C 16.7 2.5 16.8 2.2 17 1.8 C 17.2 1.5 17.4 1.2 17.7 0.9 C 18 0.7 18.3 0.6 18.6 0.6 C 18.8 0.6 19 0.6 19.2 0.7 C 19.3 0.7 19.5 0.8 19.6 0.9 C 19.7 1 19.8 1.2 19.9 1.3 C 19.9 1.4 19.9 1.6 19.9 1.8 C 19.9 1.9 19.9 2.2 19.8 2.4 C 19.6 2.7 19.5 2.9 19.2 3.2 C 19 3.4 18.8 3.6 18.6 3.7 C 18.3 3.8 18 3.9 17.7 3.9 Z M 17.3 2.8 C 17.3 3 17.3 3.1 17.4 3.2 C 17.5 3.3 17.7 3.4 17.8 3.4 C 18.2 3.4 18.5 3.2 18.9 2.9 C 19.2 2.5 19.4 2.1 19.4 1.7 C 19.4 1.5 19.4 1.4 19.3 1.3 C 19.2 1.2 19.1 1.2 19 1.1 C 18.9 1 18.7 1 18.6 1 C 18.3 1 18 1.2 17.7 1.6 C 17.4 2 17.3 2.4 17.3 2.8 Z M 22.9 2.7 C 22.7 2.7 22.6 2.7 22.6 2.8 C 22.6 3.1 22.5 3.4 22.5 3.6 C 22.5 3.6 22.5 3.7 22.5 3.8 C 22.4 3.8 22.4 3.9 22.3 3.9 C 22.1 3.9 22 3.8 22 3.6 C 22 3.4 22.1 3.1 22.1 2.4 C 22.2 1.9 22.2 1.6 22.2 1.5 C 22.2 1.3 22.2 1.3 22.2 1.3 C 22.1 1.2 22.1 1.1 22.1 1 C 22.1 0.9 22.3 0.8 22.7 0.7 C 23.1 0.6 23.4 0.6 23.7 0.6 C 24 0.6 24.2 0.6 24.4 0.8 C 24.6 0.9 24.7 1.1 24.7 1.3 C 24.7 1.6 24.6 1.9 24.2 2.2 C 23.8 2.4 23.4 2.6 22.9 2.7 C 22.9 2.7 22.9 2.7 22.9 2.7 Z M 23.7 1 C 23.4 1 23.1 1 22.8 1.1 C 22.8 1.1 22.7 2.3 22.7 2.3 C 23.1 2.2 23.4 2.1 23.8 1.9 C 24.1 1.7 24.2 1.5 24.2 1.3 C 24.2 1.1 24 1 23.7 1 C 23.7 1 23.7 1 23.7 1 Z M 26.2 3.9 C 26 3.9 25.8 3.8 25.6 3.7 C 25.4 3.6 25.3 3.5 25.1 3.2 C 25 3 25 2.8 25 2.5 C 25 2.4 25 2.2 25 2 C 25 2 25.1 1.6 25.1 1.6 C 25.1 1.5 25.1 1.4 25.1 1.4 C 25.2 1.3 25.2 1.2 25.2 1.1 C 25.2 0.9 25.2 0.8 25.3 0.7 C 25.3 0.6 25.4 0.6 25.5 0.6 C 25.6 0.6 25.6 0.6 25.7 0.7 C 25.7 0.8 25.8 0.9 25.8 0.9 C 25.8 0.9 25.7 1.1 25.7 1.4 C 25.6 1.5 25.6 1.6 25.6 1.9 C 25.5 2.2 25.5 2.4 25.5 2.5 C 25.5 2.8 25.6 3.1 25.7 3.2 C 25.9 3.3 26 3.4 26.1 3.4 C 26.5 3.4 26.8 3.3 26.9 3.2 C 27 3 27.1 2.8 27.2 2.4 C 27.2 2.3 27.2 2.3 27.2 2.2 C 27.2 2.1 27.2 1.9 27.2 1.8 C 27.3 1.3 27.3 1 27.4 0.9 C 27.4 0.7 27.5 0.7 27.7 0.7 C 27.8 0.7 27.9 0.8 27.9 1 C 27.9 1.1 27.8 1.3 27.8 1.6 C 27.8 1.8 27.7 2 27.7 2.2 C 27.7 2.6 27.6 2.9 27.5 3.1 C 27.5 3.3 27.3 3.5 27 3.6 C 26.8 3.8 26.5 3.9 26.2 3.9 Z M 27.5 -0.3 C 27.4 -0.3 27.3 -0.2 27.1 -0.1 C 27.1 -0.1 27.1 -0.1 27.1 -0.1 C 27.1 -0.1 27 0 26.8 0.2 C 26.7 0.2 26.6 0.2 26.6 0.3 C 26.6 0.3 26.6 0.3 26.6 0.3 C 26.5 0.3 26.5 0.3 26.4 0.2 C 26.4 0.2 26.4 0.1 26.4 0.1 C 26.4 0 26.5 -0.1 26.7 -0.3 C 26.7 -0.3 26.7 -0.3 26.7 -0.3 C 26.8 -0.3 26.8 -0.3 26.8 -0.4 C 27.1 -0.6 27.3 -0.7 27.3 -0.7 C 27.4 -0.8 27.4 -0.8 27.5 -0.8 C 27.5 -0.8 27.5 -0.8 27.6 -0.7 C 27.6 -0.6 27.7 -0.6 27.7 -0.6 C 27.7 -0.5 27.6 -0.5 27.6 -0.4 C 27.6 -0.4 27.5 -0.3 27.5 -0.3 C 27.5 -0.3 27.5 -0.3 27.5 -0.3 Z M 30.3 2 C 30.6 2.1 30.7 2.2 30.8 2.3 C 30.9 2.5 30.9 2.6 30.9 2.7 C 30.9 3 30.7 3.3 30.4 3.6 C 30 3.8 29.7 4 29.3 4 C 29.1 4 29 3.9 29 3.8 C 29 3.6 29.1 3.5 29.4 3.5 C 29.4 3.5 29.5 3.5 29.5 3.5 C 29.7 3.5 29.8 3.4 30.1 3.2 C 30.3 3.1 30.4 2.9 30.4 2.7 C 30.4 2.6 30.3 2.5 30.2 2.5 C 30.2 2.4 30 2.3 29.9 2.3 C 29.9 2.3 29.8 2.4 29.7 2.4 C 29.6 2.5 29.5 2.5 29.5 2.5 C 29.4 2.5 29.3 2.5 29.2 2.4 C 29.2 2.4 29.2 2.3 29.2 2.2 C 29.2 2.2 29.3 2.1 29.6 1.9 C 29.8 1.9 29.9 1.8 30.1 1.6 C 30.3 1.4 30.4 1.3 30.4 1.2 C 30.4 1.1 30.3 1 30.1 1 C 29.9 1 29.7 1 29.5 1.1 C 29.3 1.1 29.2 1.1 29.2 1.2 C 29.2 1.3 29.1 1.6 29 2.2 C 28.9 2.8 28.9 3.1 28.9 3.2 C 28.9 3.2 28.9 3.5 28.9 3.5 C 28.9 3.7 28.8 3.7 28.8 3.8 C 28.7 3.8 28.6 3.9 28.6 3.9 C 28.4 3.9 28.3 3.7 28.3 3.5 C 28.3 3.4 28.3 3.4 28.3 3.3 C 28.4 3 28.4 2.7 28.5 2.2 C 28.6 1.7 28.6 1.5 28.6 1.4 C 28.6 1.4 28.6 1.3 28.6 1.3 C 28.6 1.3 28.5 1.3 28.5 1.3 C 28.5 1.3 28.4 1.3 28.4 1.3 C 28.3 1.3 28.3 1.2 28.3 1.2 C 28.3 1.2 28.3 1.2 28.3 1.1 C 28.3 1 28.5 0.9 28.9 0.7 C 29.3 0.6 29.7 0.6 30.1 0.6 C 30.4 0.6 30.6 0.6 30.7 0.7 C 30.9 0.9 30.9 1 30.9 1.2 C 30.9 1.3 30.9 1.4 30.8 1.5 C 30.7 1.6 30.5 1.8 30.3 2 Z M 33.4 3.6 C 33.4 3.6 33.3 3.6 33.2 3.6 C 33.2 3.6 33.1 3.6 33.1 3.6 C 32.7 3.6 32.3 3.7 31.9 3.8 C 31.8 3.8 31.7 3.8 31.6 3.8 C 31.5 3.8 31.4 3.8 31.4 3.7 C 31.4 3.7 31.3 3.6 31.3 3.5 C 31.3 3.5 31.3 3.5 31.4 3.4 C 31.4 3.2 31.4 3.1 31.4 2.9 C 31.4 2.9 31.6 1.1 31.6 1.1 C 31.7 1 31.7 0.8 31.7 0.8 C 31.7 0.7 31.7 0.7 31.8 0.7 C 31.8 0.6 31.9 0.6 32 0.6 C 32 0.6 32.1 0.6 32.2 0.7 C 32.2 0.7 32.2 0.8 32.2 0.8 C 32.2 0.9 32.2 1 32.2 1.1 C 32.2 1.3 32.1 1.7 32 2.3 C 32 2.9 31.9 3.2 31.9 3.2 C 31.9 3.2 31.9 3.3 32 3.3 C 32 3.3 32.2 3.2 32.4 3.2 C 32.5 3.2 32.6 3.2 32.8 3.2 C 33.1 3.1 33.3 3.1 33.5 3.1 C 33.5 3.1 33.5 3.1 33.6 3.1 C 33.6 3.1 33.7 3.1 33.7 3.1 C 33.8 3.2 33.8 3.2 33.8 3.3 C 33.8 3.4 33.8 3.5 33.7 3.5 C 33.6 3.6 33.5 3.6 33.4 3.6 Z M 34.8 1.6 C 34.8 1.7 34.7 1.8 34.7 1.9 C 34.7 2 34.7 2.1 34.7 2.2 C 34.6 2.5 34.6 2.7 34.6 2.9 C 34.6 3 34.6 3.2 34.6 3.4 C 34.7 3.5 34.6 3.6 34.6 3.7 C 34.5 3.8 34.4 3.8 34.3 3.8 C 34.2 3.8 34.2 3.8 34.1 3.7 C 34.1 3.6 34.1 3.4 34.1 3.2 C 34.1 3.1 34.1 2.8 34.2 2.2 C 34.2 2.2 34.3 1.4 34.3 1.4 C 34.3 1.3 34.3 1.2 34.3 1.1 C 34.4 0.9 34.4 0.8 34.4 0.8 C 34.4 0.7 34.5 0.7 34.5 0.7 C 34.6 0.6 34.6 0.6 34.7 0.6 C 34.8 0.6 34.8 0.6 34.9 0.7 C 34.9 0.8 34.9 0.9 34.9 0.9 C 34.9 0.9 34.8 1.6 34.8 1.6 Z M 37.2 3.1 C 37.4 3 37.4 3 37.5 3 C 37.6 3 37.7 3 37.7 3.1 C 37.7 3.3 37.5 3.4 37.2 3.6 C 36.9 3.8 36.6 3.9 36.3 3.9 C 36 3.9 35.8 3.8 35.6 3.7 C 35.3 3.5 35.2 3.2 35.2 2.9 C 35.2 2.6 35.3 2.2 35.6 1.8 C 35.8 1.4 36.1 1.1 36.4 0.8 C 36.8 0.6 37.1 0.4 37.4 0.4 C 37.6 0.4 37.8 0.5 37.9 0.6 C 38 0.7 38 0.9 38 1 C 38 1.2 38 1.3 38 1.4 C 38 1.4 37.9 1.5 37.8 1.6 C 37.8 1.6 37.7 1.6 37.6 1.6 C 37.6 1.6 37.5 1.6 37.5 1.6 C 37.4 1.5 37.4 1.5 37.4 1.4 C 37.4 1.4 37.4 1.3 37.5 1.2 C 37.5 1.1 37.5 1.1 37.5 1 C 37.5 0.9 37.5 0.9 37.4 0.9 C 37.2 0.9 37 1 36.7 1.2 C 36.5 1.4 36.2 1.7 36.1 2 C 35.9 2.3 35.8 2.6 35.8 2.9 C 35.8 3 35.8 3.2 35.9 3.3 C 36 3.4 36.2 3.5 36.3 3.5 C 36.4 3.5 36.6 3.4 36.8 3.4 C 36.9 3.3 37.1 3.2 37.2 3.1 C 37.2 3.1 37.2 3.1 37.2 3.1 Z M 38.9 3.1 C 38.9 3.1 38.8 3.1 38.8 3 C 38.8 3.1 38.7 3.2 38.6 3.4 C 38.5 3.6 38.4 3.8 38.3 3.8 C 38.3 3.8 38.2 3.8 38.2 3.8 C 38.1 3.8 38.1 3.8 38 3.7 C 37.9 3.7 37.9 3.6 37.9 3.6 C 37.9 3.5 38.1 3.2 38.4 2.7 C 38.6 2.4 38.8 2.1 39 1.8 C 39.3 1.2 39.5 0.8 39.6 0.7 C 39.6 0.6 39.7 0.6 39.8 0.6 C 39.9 0.6 40 0.6 40.1 0.7 C 40.1 0.7 40.1 0.7 40.1 0.8 C 40.1 0.9 40.1 0.9 40.1 1 C 40.3 1.8 40.5 2.3 40.7 2.7 C 40.8 3 41 3.2 41.1 3.4 C 41.2 3.4 41.3 3.5 41.3 3.5 C 41.3 3.5 41.3 3.6 41.3 3.6 C 41.3 3.7 41.3 3.8 41.2 3.8 C 41.2 3.9 41.1 3.9 41 3.9 C 40.9 3.9 40.8 3.8 40.7 3.7 C 40.6 3.6 40.5 3.4 40.4 3.2 C 40.3 3 40.2 2.9 40.2 2.8 C 40.2 2.8 40.2 2.8 40.2 2.8 C 40.1 2.8 40 2.8 39.7 2.9 C 39.4 3 39.2 3 39 3.1 C 39 3.1 39 3.1 38.9 3.1 C 38.9 3.1 38.9 3.1 38.9 3.1 Z M 39.9 2.4 C 39.9 2.4 40 2.4 40 2.4 C 40 2.3 39.9 2 39.7 1.5 C 39.7 1.4 39.7 1.4 39.7 1.4 C 39.7 1.4 39.1 2.5 39.1 2.5 C 39.2 2.5 39.3 2.5 39.4 2.5 C 39.4 2.5 39.6 2.5 39.9 2.4 C 39.9 2.4 39.9 2.4 39.9 2.4 Z " stroke="none" fill="#000"/>  </g></svg>