<?xml version="1.0" standalone="no"?><!DOCTYPE svg PUBLIC "-//W3C//DTD SVG 1.1//EN" "http://www.w3.org/Graphics/SVG/1.1/DTD/svg11.dtd"><svg xmlns="http://www.w3.org/2000/svg" version="1.1" width="53px" height="13.1px" viewBox="0 -1 53 13.1" style="top:-1px">  <desc>MAS COMO SOBRARIA MAIS $$$ NO BOLSO???</desc>  <defs/>  <g id="Polygon14793">    <path d="M 11.7 6.9 C 11.7 6.9 11.7 7 11.7 7 C 11.7 7.2 11.6 7.3 11.6 7.3 C 11.7 7.4 11.8 7.4 11.9 7.5 C 11.9 7.5 12 7.5 12 7.6 C 12 7.6 12 7.7 12 7.8 C 12 8 11.9 8.1 11.6 8.2 C 11.6 8.2 11.5 8.7 11.5 8.7 C 11.5 8.7 11.5 8.8 11.5 8.8 C 11.5 8.9 11.5 9 11.5 9 C 11.5 9 11.5 9 11.5 9 C 11.5 9.1 11.4 9.1 11.4 9.1 C 11.2 9.1 11.2 9 11.2 8.9 C 11.2 8.9 11.2 8.4 11.2 8.4 C 11.2 8.4 11.1 8.4 11.1 8.4 C 11.1 8.4 11.1 8.4 11 8.4 C 10.9 8.5 10.7 8.5 10.7 8.5 C 10.6 8.5 10.5 8.5 10.5 8.4 C 10.4 8.4 10.4 8.4 10.4 8.3 C 10.4 8.3 10.5 8.2 10.5 8.2 C 10.6 8.1 10.7 8.1 11 8.1 C 11.1 8 11.2 8 11.2 8 C 11.3 7.7 11.3 7.5 11.3 7.5 C 11.2 7.5 11.2 7.4 11.1 7.4 C 11 7.4 10.9 7.3 10.9 7.3 C 10.8 7.3 10.8 7.2 10.7 7.2 C 10.7 7.1 10.7 7 10.7 7 C 10.7 6.9 10.7 6.8 10.9 6.7 C 11 6.7 11.2 6.6 11.4 6.6 C 11.4 6.6 11.4 6.5 11.4 6.5 C 11.4 6.5 11.4 6.1 11.4 6.1 C 11.4 6.1 11.4 6.1 11.5 6 C 11.5 6 11.5 6 11.6 6 C 11.7 6 11.8 6.1 11.8 6.2 C 11.8 6.3 11.7 6.3 11.7 6.5 C 11.7 6.5 11.7 6.5 11.7 6.5 C 11.7 6.5 11.8 6.5 11.8 6.5 C 11.8 6.5 11.9 6.5 11.9 6.5 C 12 6.5 12 6.5 12 6.5 C 12.2 6.5 12.2 6.6 12.2 6.7 C 12.2 6.8 12.2 6.8 12.1 6.8 C 12.1 6.8 11.9 6.9 11.7 6.9 Z M 11.3 6.9 C 11.2 6.9 11.1 7 11.1 7 C 11.1 7 11.1 7.1 11.2 7.1 C 11.3 7.1 11.3 7.2 11.3 7.2 C 11.3 7.2 11.3 6.9 11.3 6.9 Z M 11.6 7.6 C 11.6 7.8 11.6 7.8 11.6 7.9 C 11.6 7.9 11.6 7.8 11.7 7.8 C 11.7 7.8 11.7 7.8 11.7 7.8 C 11.7 7.8 11.7 7.8 11.7 7.8 C 11.7 7.8 11.7 7.8 11.7 7.7 C 11.7 7.7 11.7 7.7 11.7 7.7 C 11.7 7.7 11.7 7.7 11.7 7.7 C 11.7 7.7 11.6 7.7 11.6 7.7 C 11.6 7.7 11.6 7.7 11.6 7.7 C 11.62 7.66 11.6 7.7 11.6 7.7 L 11.6 7.6 C 11.6 7.6 11.61 7.65 11.6 7.6 Z M 13.5 6.9 C 13.5 6.9 13.5 7 13.5 7 C 13.5 7.2 13.5 7.3 13.5 7.3 C 13.5 7.4 13.6 7.4 13.7 7.5 C 13.8 7.5 13.8 7.5 13.9 7.6 C 13.9 7.6 13.9 7.7 13.9 7.8 C 13.9 8 13.7 8.1 13.4 8.2 C 13.4 8.2 13.4 8.7 13.4 8.7 C 13.4 8.7 13.4 8.8 13.4 8.8 C 13.4 8.9 13.4 9 13.4 9 C 13.4 9 13.4 9 13.3 9 C 13.3 9.1 13.3 9.1 13.2 9.1 C 13.1 9.1 13 9 13 8.9 C 13 8.9 13 8.4 13 8.4 C 13 8.4 13 8.4 13 8.4 C 12.9 8.4 12.9 8.4 12.9 8.4 C 12.7 8.5 12.6 8.5 12.5 8.5 C 12.4 8.5 12.4 8.5 12.3 8.4 C 12.3 8.4 12.3 8.4 12.3 8.3 C 12.3 8.3 12.3 8.2 12.4 8.2 C 12.5 8.1 12.6 8.1 12.8 8.1 C 13 8 13.1 8 13.1 8 C 13.1 7.7 13.1 7.5 13.1 7.5 C 13.1 7.5 13 7.4 12.9 7.4 C 12.8 7.4 12.7 7.3 12.7 7.3 C 12.7 7.3 12.6 7.2 12.6 7.2 C 12.5 7.1 12.5 7 12.5 7 C 12.5 6.9 12.6 6.8 12.7 6.7 C 12.9 6.7 13 6.6 13.2 6.6 C 13.2 6.6 13.2 6.5 13.2 6.5 C 13.2 6.5 13.2 6.1 13.2 6.1 C 13.2 6.1 13.2 6.1 13.3 6 C 13.3 6 13.4 6 13.4 6 C 13.5 6 13.6 6.1 13.6 6.2 C 13.6 6.3 13.6 6.3 13.6 6.5 C 13.6 6.5 13.6 6.5 13.6 6.5 C 13.6 6.5 13.6 6.5 13.6 6.5 C 13.7 6.5 13.7 6.5 13.8 6.5 C 13.8 6.5 13.8 6.5 13.9 6.5 C 14 6.5 14.1 6.6 14.1 6.7 C 14.1 6.8 14 6.8 14 6.8 C 13.9 6.8 13.8 6.9 13.5 6.9 Z M 13.2 6.9 C 13.1 6.9 13 7 12.9 7 C 12.9 7 13 7.1 13 7.1 C 13.1 7.1 13.1 7.2 13.2 7.2 C 13.2 7.2 13.2 6.9 13.2 6.9 Z M 13.5 7.6 C 13.4 7.8 13.4 7.8 13.4 7.9 C 13.4 7.9 13.5 7.8 13.5 7.8 C 13.5 7.8 13.6 7.8 13.6 7.8 C 13.6 7.8 13.6 7.8 13.6 7.8 C 13.6 7.8 13.5 7.8 13.5 7.7 C 13.5 7.7 13.5 7.7 13.5 7.7 C 13.5 7.7 13.5 7.7 13.5 7.7 C 13.5 7.7 13.5 7.7 13.5 7.7 C 13.5 7.7 13.5 7.7 13.5 7.7 C 13.47 7.66 13.5 7.7 13.5 7.7 L 13.5 7.6 C 13.5 7.6 13.45 7.65 13.5 7.6 Z M 15.4 6.9 C 15.4 6.9 15.4 7 15.4 7 C 15.3 7.2 15.3 7.3 15.3 7.3 C 15.4 7.4 15.4 7.4 15.6 7.5 C 15.6 7.5 15.7 7.5 15.7 7.6 C 15.7 7.6 15.7 7.7 15.7 7.8 C 15.7 8 15.6 8.1 15.2 8.2 C 15.2 8.2 15.2 8.7 15.2 8.7 C 15.2 8.7 15.2 8.8 15.2 8.8 C 15.2 8.9 15.2 9 15.2 9 C 15.2 9 15.2 9 15.2 9 C 15.1 9.1 15.1 9.1 15.1 9.1 C 14.9 9.1 14.9 9 14.9 8.9 C 14.9 8.9 14.9 8.4 14.9 8.4 C 14.9 8.4 14.8 8.4 14.8 8.4 C 14.8 8.4 14.7 8.4 14.7 8.4 C 14.5 8.5 14.4 8.5 14.4 8.5 C 14.3 8.5 14.2 8.5 14.2 8.4 C 14.1 8.4 14.1 8.4 14.1 8.3 C 14.1 8.3 14.1 8.2 14.2 8.2 C 14.3 8.1 14.4 8.1 14.6 8.1 C 14.8 8 14.9 8 14.9 8 C 14.9 7.7 15 7.5 15 7.5 C 14.9 7.5 14.8 7.4 14.8 7.4 C 14.7 7.4 14.6 7.3 14.5 7.3 C 14.5 7.3 14.5 7.2 14.4 7.2 C 14.4 7.1 14.4 7 14.4 7 C 14.4 6.9 14.4 6.8 14.6 6.7 C 14.7 6.7 14.9 6.6 15 6.6 C 15 6.6 15.1 6.5 15.1 6.5 C 15.1 6.5 15.1 6.1 15.1 6.1 C 15.1 6.1 15.1 6.1 15.1 6 C 15.2 6 15.2 6 15.3 6 C 15.4 6 15.5 6.1 15.5 6.2 C 15.5 6.3 15.4 6.3 15.4 6.5 C 15.4 6.5 15.4 6.5 15.4 6.5 C 15.4 6.5 15.5 6.5 15.5 6.5 C 15.5 6.5 15.6 6.5 15.6 6.5 C 15.6 6.5 15.7 6.5 15.7 6.5 C 15.8 6.5 15.9 6.6 15.9 6.7 C 15.9 6.8 15.9 6.8 15.8 6.8 C 15.8 6.8 15.6 6.9 15.4 6.9 Z M 15 6.9 C 14.9 6.9 14.8 7 14.8 7 C 14.8 7 14.8 7.1 14.9 7.1 C 15 7.1 15 7.2 15 7.2 C 15 7.2 15 6.9 15 6.9 Z M 15.3 7.6 C 15.3 7.8 15.3 7.8 15.3 7.9 C 15.3 7.9 15.3 7.8 15.4 7.8 C 15.4 7.8 15.4 7.8 15.4 7.8 C 15.4 7.8 15.4 7.8 15.4 7.8 C 15.4 7.8 15.4 7.8 15.4 7.7 C 15.4 7.7 15.4 7.7 15.4 7.7 C 15.4 7.7 15.4 7.7 15.4 7.7 C 15.3 7.7 15.3 7.7 15.3 7.7 C 15.3 7.7 15.3 7.7 15.3 7.7 C 15.31 7.66 15.3 7.7 15.3 7.7 L 15.3 7.6 C 15.3 7.6 15.3 7.65 15.3 7.6 Z M 17.6 8.1 C 17.6 8.1 17.7 7.53 17.7 7.5 C 17.8 7.1 17.8 6.8 17.8 6.6 C 17.9 6.5 17.9 6.4 17.9 6.4 C 17.9 6.4 17.9 6.3 17.9 6.3 C 18 6.3 18 6.3 18.1 6.3 C 18.1 6.3 18.2 6.3 18.2 6.3 C 18.3 6.3 18.3 6.4 18.3 6.5 C 18.4 6.7 18.5 7 18.7 7.3 C 18.9 7.6 19.1 7.9 19.2 8.1 C 19.3 7.9 19.3 7.6 19.4 7.3 C 19.4 7.1 19.5 6.9 19.5 6.7 C 19.5 6.6 19.5 6.5 19.5 6.4 C 19.5 6.3 19.6 6.2 19.6 6.2 C 19.7 6.1 19.7 6.1 19.8 6.1 C 19.8 6.1 19.9 6.2 19.9 6.2 C 19.9 6.3 20 6.3 20 6.4 C 20 6.5 19.9 6.6 19.9 6.7 C 19.8 6.9 19.8 7.3 19.7 7.7 C 19.6 8.1 19.6 8.3 19.6 8.4 C 19.6 8.4 19.6 8.4 19.6 8.4 C 19.6 8.5 19.6 8.6 19.6 8.6 C 19.6 8.6 19.5 8.6 19.5 8.7 C 19.4 8.7 19.4 8.7 19.3 8.7 C 19.3 8.7 19.2 8.7 19.2 8.7 C 19.2 8.7 19.2 8.7 19.2 8.6 C 19.1 8.6 19.1 8.5 19.1 8.5 C 19 8.4 19 8.3 18.9 8.3 C 18.7 7.9 18.4 7.5 18.1 7.1 C 18.1 7.2 18.1 7.6 18 8.1 C 18 8.1 18 8.2 18 8.2 C 18 8.3 17.9 8.4 17.9 8.5 C 17.9 8.6 17.9 8.7 17.9 8.7 C 17.8 8.8 17.8 8.8 17.7 8.8 C 17.6 8.8 17.6 8.8 17.6 8.7 C 17.5 8.7 17.5 8.6 17.5 8.5 C 17.5 8.4 17.5 8.3 17.6 8.1 C 17.57 8.12 17.6 8.1 17.6 8.1 Z M 20.9 8.8 C 20.7 8.8 20.6 8.7 20.4 8.5 C 20.3 8.3 20.2 8.1 20.2 7.9 C 20.2 7.7 20.3 7.4 20.4 7.2 C 20.6 6.9 20.7 6.6 21 6.4 C 21.2 6.3 21.4 6.2 21.7 6.2 C 21.9 6.2 22 6.2 22.1 6.2 C 22.3 6.3 22.4 6.4 22.5 6.4 C 22.6 6.5 22.7 6.6 22.7 6.7 C 22.7 6.8 22.7 6.9 22.7 7.1 C 22.7 7.2 22.7 7.4 22.6 7.6 C 22.5 7.8 22.4 8 22.2 8.2 C 22 8.4 21.8 8.5 21.7 8.6 C 21.5 8.7 21.2 8.8 20.9 8.8 Z M 20.6 7.9 C 20.6 8.1 20.7 8.2 20.8 8.3 C 20.8 8.4 20.9 8.4 21 8.4 C 21.3 8.4 21.6 8.3 21.9 8 C 22.2 7.7 22.3 7.4 22.3 7 C 22.3 6.9 22.3 6.8 22.2 6.8 C 22.2 6.7 22.1 6.6 22 6.6 C 21.9 6.5 21.8 6.5 21.7 6.5 C 21.4 6.5 21.2 6.7 21 7 C 20.7 7.3 20.6 7.6 20.6 7.9 Z M 26 7.3 C 26.2 7.4 26.3 7.4 26.4 7.6 C 26.4 7.7 26.5 7.8 26.5 7.9 C 26.5 8.1 26.3 8.3 26.1 8.5 C 25.8 8.8 25.5 8.9 25.2 8.9 C 25 8.9 24.9 8.8 24.9 8.7 C 24.9 8.5 25 8.5 25.3 8.5 C 25.3 8.5 25.4 8.5 25.4 8.5 C 25.5 8.5 25.6 8.4 25.8 8.3 C 26 8.1 26 8 26 7.9 C 26 7.8 26 7.7 25.9 7.7 C 25.9 7.6 25.8 7.6 25.7 7.6 C 25.6 7.6 25.6 7.6 25.5 7.6 C 25.4 7.7 25.4 7.7 25.3 7.7 C 25.2 7.7 25.2 7.7 25.1 7.6 C 25.1 7.6 25.1 7.6 25.1 7.5 C 25.1 7.4 25.2 7.3 25.4 7.2 C 25.6 7.2 25.7 7.1 25.8 7 C 26 6.9 26 6.7 26 6.7 C 26 6.5 25.9 6.5 25.8 6.5 C 25.6 6.5 25.5 6.5 25.3 6.5 C 25.2 6.6 25.1 6.6 25.1 6.7 C 25.1 6.7 25 7 25 7.4 C 24.9 7.9 24.9 8.2 24.9 8.3 C 24.9 8.3 24.8 8.5 24.8 8.5 C 24.8 8.6 24.8 8.7 24.8 8.7 C 24.7 8.8 24.7 8.8 24.6 8.8 C 24.5 8.8 24.4 8.7 24.4 8.5 C 24.4 8.4 24.4 8.4 24.4 8.3 C 24.5 8.1 24.5 7.8 24.6 7.4 C 24.6 7.1 24.6 6.9 24.6 6.9 C 24.6 6.8 24.6 6.8 24.6 6.8 C 24.6 6.8 24.5 6.8 24.5 6.8 C 24.5 6.8 24.5 6.8 24.5 6.7 C 24.4 6.7 24.4 6.7 24.4 6.7 C 24.4 6.6 24.4 6.6 24.4 6.6 C 24.4 6.5 24.5 6.4 24.9 6.3 C 25.2 6.2 25.5 6.1 25.9 6.1 C 26 6.1 26.2 6.2 26.3 6.3 C 26.4 6.4 26.5 6.5 26.5 6.6 C 26.5 6.7 26.4 6.8 26.4 6.9 C 26.3 7 26.2 7.1 26 7.3 Z M 27.5 8.8 C 27.3 8.8 27.1 8.7 27 8.5 C 26.8 8.3 26.8 8.1 26.8 7.9 C 26.8 7.7 26.8 7.4 27 7.2 C 27.1 6.9 27.3 6.6 27.5 6.4 C 27.7 6.3 28 6.2 28.2 6.2 C 28.4 6.2 28.6 6.2 28.7 6.2 C 28.8 6.3 28.9 6.4 29 6.4 C 29.1 6.5 29.2 6.6 29.2 6.7 C 29.3 6.8 29.3 6.9 29.3 7.1 C 29.3 7.2 29.3 7.4 29.2 7.6 C 29.1 7.8 28.9 8 28.8 8.2 C 28.6 8.4 28.4 8.5 28.2 8.6 C 28 8.7 27.8 8.8 27.5 8.8 Z M 27.2 7.9 C 27.2 8.1 27.2 8.2 27.3 8.3 C 27.4 8.4 27.5 8.4 27.6 8.4 C 27.9 8.4 28.2 8.3 28.5 8 C 28.7 7.7 28.9 7.4 28.9 7 C 28.9 6.9 28.8 6.8 28.8 6.8 C 28.8 6.7 28.7 6.6 28.6 6.6 C 28.5 6.5 28.3 6.5 28.2 6.5 C 28 6.5 27.8 6.7 27.5 7 C 27.3 7.3 27.2 7.6 27.2 7.9 Z M 31.2 8.6 C 31.2 8.6 31.1 8.6 31.1 8.6 C 31 8.6 31 8.6 30.9 8.6 C 30.6 8.6 30.3 8.6 30 8.7 C 29.9 8.7 29.8 8.8 29.8 8.8 C 29.7 8.8 29.6 8.7 29.6 8.7 C 29.6 8.6 29.5 8.6 29.5 8.5 C 29.5 8.5 29.5 8.5 29.6 8.4 C 29.6 8.3 29.6 8.1 29.6 8 C 29.6 8 29.8 6.6 29.8 6.6 C 29.8 6.5 29.8 6.4 29.8 6.3 C 29.8 6.3 29.9 6.3 29.9 6.2 C 29.9 6.2 30 6.2 30.1 6.2 C 30.1 6.2 30.2 6.2 30.2 6.2 C 30.2 6.3 30.3 6.3 30.3 6.4 C 30.3 6.4 30.2 6.5 30.2 6.6 C 30.2 6.8 30.2 7.1 30.1 7.5 C 30.1 8 30 8.2 30 8.2 C 30 8.3 30 8.3 30 8.3 C 30.1 8.3 30.2 8.3 30.4 8.2 C 30.5 8.2 30.6 8.2 30.7 8.2 C 30.9 8.2 31.1 8.2 31.2 8.2 C 31.3 8.2 31.3 8.1 31.3 8.1 C 31.4 8.1 31.4 8.2 31.5 8.2 C 31.5 8.2 31.5 8.3 31.5 8.3 C 31.5 8.4 31.5 8.5 31.4 8.5 C 31.4 8.6 31.3 8.6 31.2 8.6 Z M 33.6 6.5 C 33.6 6.7 33.5 6.8 33.3 6.8 C 33.3 6.7 33.2 6.6 33.2 6.6 C 33.1 6.6 33 6.5 32.9 6.5 C 32.7 6.5 32.5 6.6 32.4 6.7 C 32.2 6.8 32.1 6.9 32.1 7 C 32.1 7.1 32.2 7.1 32.2 7.2 C 32.3 7.2 32.4 7.3 32.7 7.4 C 33 7.4 33.2 7.5 33.3 7.6 C 33.4 7.7 33.5 7.8 33.5 8 C 33.5 8.2 33.3 8.4 33 8.6 C 32.7 8.7 32.3 8.8 32 8.8 C 31.8 8.8 31.7 8.8 31.7 8.8 C 31.6 8.7 31.6 8.7 31.6 8.6 C 31.6 8.5 31.6 8.5 31.6 8.4 C 31.7 8.4 31.7 8.3 31.7 8.3 C 31.8 8.3 31.8 8.4 31.8 8.4 C 31.9 8.4 32 8.4 32.1 8.4 C 32.3 8.4 32.5 8.4 32.7 8.3 C 33 8.2 33.1 8.1 33.1 8 C 33.1 8 33 7.9 33 7.9 C 32.9 7.8 32.8 7.8 32.7 7.7 C 32.4 7.7 32.2 7.6 32.1 7.5 C 32 7.5 31.9 7.4 31.8 7.3 C 31.7 7.2 31.7 7.1 31.7 7 C 31.7 6.8 31.8 6.6 32.1 6.4 C 32.3 6.2 32.6 6.2 33 6.2 C 33.2 6.2 33.3 6.2 33.4 6.3 C 33.5 6.3 33.6 6.4 33.6 6.5 C 33.6 6.5 33.6 6.5 33.6 6.5 Z M 34.5 8.8 C 34.3 8.8 34.2 8.7 34 8.5 C 33.9 8.3 33.8 8.1 33.8 7.9 C 33.8 7.7 33.8 7.4 34 7.2 C 34.1 6.9 34.3 6.6 34.5 6.4 C 34.8 6.3 35 6.2 35.2 6.2 C 35.4 6.2 35.6 6.2 35.7 6.2 C 35.8 6.3 36 6.4 36.1 6.4 C 36.2 6.5 36.2 6.6 36.3 6.7 C 36.3 6.8 36.3 6.9 36.3 7.1 C 36.3 7.2 36.3 7.4 36.2 7.6 C 36.1 7.8 36 8 35.8 8.2 C 35.6 8.4 35.4 8.5 35.2 8.6 C 35.1 8.7 34.8 8.8 34.5 8.8 Z M 34.2 7.9 C 34.2 8.1 34.3 8.2 34.3 8.3 C 34.4 8.4 34.5 8.4 34.6 8.4 C 34.9 8.4 35.2 8.3 35.5 8 C 35.7 7.7 35.9 7.4 35.9 7 C 35.9 6.9 35.9 6.8 35.8 6.8 C 35.8 6.7 35.7 6.6 35.6 6.6 C 35.5 6.5 35.4 6.5 35.2 6.5 C 35 6.5 34.8 6.7 34.6 7 C 34.3 7.3 34.2 7.6 34.2 7.9 Z M 38.2 6.7 C 38.2 6.9 38.1 7 38.1 7.1 C 38 7.2 37.9 7.3 37.8 7.4 C 37.7 7.4 37.6 7.5 37.3 7.6 C 37.2 7.7 37.2 7.7 37.2 7.9 C 37.2 7.9 37.1 8 37.1 8 C 37.1 8 37 8 36.9 8 C 36.9 8 36.8 8 36.8 8 C 36.8 7.9 36.8 7.9 36.8 7.8 C 36.8 7.8 36.8 7.7 36.8 7.7 C 36.8 7.6 36.9 7.5 37 7.4 C 37 7.3 37.1 7.3 37.1 7.3 C 37.2 7.2 37.3 7.2 37.4 7.1 C 37.4 7.1 37.6 7.1 37.6 7.1 C 37.7 7 37.7 7 37.8 6.9 C 37.8 6.9 37.8 6.8 37.8 6.8 C 37.8 6.7 37.8 6.7 37.8 6.6 C 37.7 6.6 37.7 6.5 37.7 6.5 C 37.7 6.5 37.7 6.5 37.6 6.5 C 37.6 6.4 37.5 6.4 37.5 6.4 C 37.4 6.4 37.3 6.4 37.3 6.5 C 37.2 6.5 37.2 6.5 37.2 6.6 C 37.2 6.7 37.1 6.7 36.9 6.7 C 36.8 6.7 36.8 6.7 36.8 6.6 C 36.8 6.5 36.8 6.4 36.9 6.4 C 36.9 6.3 37 6.2 37.1 6.2 C 37.1 6.2 37.1 6.2 37.1 6.2 C 37.2 6.1 37.3 6.1 37.4 6.1 C 37.4 6.1 37.5 6.1 37.6 6.1 C 37.7 6.1 37.8 6.1 37.9 6.1 C 38 6.2 38.1 6.3 38.1 6.4 C 38.2 6.5 38.2 6.6 38.2 6.7 C 38.2 6.7 38.2 6.7 38.2 6.7 Z M 37 8.3 C 37.1 8.4 37.2 8.4 37.2 8.5 C 37.2 8.6 37.1 8.6 37.1 8.7 C 37 8.7 36.9 8.7 36.8 8.7 C 36.8 8.7 36.7 8.7 36.7 8.7 C 36.6 8.6 36.6 8.6 36.6 8.5 C 36.6 8.5 36.6 8.4 36.7 8.4 C 36.7 8.3 36.7 8.3 36.8 8.3 C 36.8 8.3 36.8 8.3 36.9 8.3 C 36.9 8.3 37 8.3 37 8.3 C 37 8.3 37 8.3 37 8.3 Z M 39.9 6.7 C 39.9 6.9 39.9 7 39.8 7.1 C 39.7 7.2 39.6 7.3 39.6 7.4 C 39.5 7.4 39.3 7.5 39 7.6 C 39 7.7 38.9 7.7 38.9 7.9 C 38.9 7.9 38.9 8 38.8 8 C 38.8 8 38.7 8 38.6 8 C 38.6 8 38.6 8 38.6 8 C 38.5 7.9 38.5 7.9 38.5 7.8 C 38.5 7.8 38.5 7.7 38.5 7.7 C 38.6 7.6 38.6 7.5 38.7 7.4 C 38.7 7.3 38.8 7.3 38.8 7.3 C 38.9 7.2 39 7.2 39.1 7.1 C 39.1 7.1 39.4 7.1 39.4 7.1 C 39.4 7 39.4 7 39.5 6.9 C 39.5 6.9 39.5 6.8 39.5 6.8 C 39.5 6.7 39.5 6.7 39.5 6.6 C 39.5 6.6 39.5 6.5 39.4 6.5 C 39.4 6.5 39.4 6.5 39.4 6.5 C 39.3 6.4 39.3 6.4 39.2 6.4 C 39.1 6.4 39 6.4 39 6.5 C 38.9 6.5 38.9 6.5 38.9 6.6 C 38.9 6.7 38.8 6.7 38.6 6.7 C 38.5 6.7 38.5 6.7 38.5 6.6 C 38.5 6.5 38.5 6.4 38.6 6.4 C 38.7 6.3 38.7 6.2 38.8 6.2 C 38.8 6.2 38.8 6.2 38.8 6.2 C 38.9 6.1 39 6.1 39.1 6.1 C 39.2 6.1 39.2 6.1 39.3 6.1 C 39.4 6.1 39.5 6.1 39.6 6.1 C 39.7 6.2 39.8 6.3 39.8 6.4 C 39.9 6.5 39.9 6.6 39.9 6.7 C 39.9 6.7 39.9 6.7 39.9 6.7 Z M 38.7 8.3 C 38.9 8.4 38.9 8.4 38.9 8.5 C 38.9 8.6 38.9 8.6 38.8 8.7 C 38.7 8.7 38.6 8.7 38.6 8.7 C 38.5 8.7 38.4 8.7 38.4 8.7 C 38.3 8.6 38.3 8.6 38.3 8.5 C 38.3 8.5 38.4 8.4 38.4 8.4 C 38.5 8.3 38.5 8.3 38.5 8.3 C 38.5 8.3 38.6 8.3 38.6 8.3 C 38.6 8.3 38.7 8.3 38.7 8.3 C 38.7 8.3 38.7 8.3 38.7 8.3 Z M 41.6 6.7 C 41.6 6.9 41.6 7 41.5 7.1 C 41.5 7.2 41.4 7.3 41.3 7.4 C 41.2 7.4 41 7.5 40.7 7.6 C 40.7 7.7 40.7 7.7 40.6 7.9 C 40.6 7.9 40.6 8 40.6 8 C 40.5 8 40.4 8 40.4 8 C 40.3 8 40.3 8 40.3 8 C 40.3 7.9 40.2 7.9 40.2 7.8 C 40.2 7.8 40.3 7.7 40.3 7.7 C 40.3 7.6 40.3 7.5 40.4 7.4 C 40.5 7.3 40.5 7.3 40.6 7.3 C 40.6 7.2 40.7 7.2 40.9 7.1 C 40.9 7.1 41.1 7.1 41.1 7.1 C 41.1 7 41.2 7 41.2 6.9 C 41.2 6.9 41.2 6.8 41.2 6.8 C 41.2 6.7 41.2 6.7 41.2 6.6 C 41.2 6.6 41.2 6.5 41.2 6.5 C 41.2 6.5 41.1 6.5 41.1 6.5 C 41 6.4 41 6.4 41 6.4 C 40.8 6.4 40.8 6.4 40.7 6.5 C 40.7 6.5 40.6 6.5 40.6 6.6 C 40.6 6.7 40.5 6.7 40.4 6.7 C 40.3 6.7 40.2 6.7 40.2 6.6 C 40.2 6.5 40.2 6.4 40.3 6.4 C 40.4 6.3 40.5 6.2 40.6 6.2 C 40.6 6.2 40.6 6.2 40.6 6.2 C 40.6 6.1 40.7 6.1 40.8 6.1 C 40.9 6.1 41 6.1 41 6.1 C 41.2 6.1 41.3 6.1 41.3 6.1 C 41.5 6.2 41.5 6.3 41.6 6.4 C 41.6 6.5 41.6 6.6 41.6 6.7 C 41.6 6.7 41.6 6.7 41.6 6.7 Z M 40.5 8.3 C 40.6 8.4 40.6 8.4 40.6 8.5 C 40.6 8.6 40.6 8.6 40.5 8.7 C 40.4 8.7 40.4 8.7 40.3 8.7 C 40.2 8.7 40.2 8.7 40.1 8.7 C 40.1 8.6 40 8.6 40 8.5 C 40 8.5 40.1 8.4 40.2 8.4 C 40.2 8.3 40.2 8.3 40.2 8.3 C 40.2 8.3 40.3 8.3 40.3 8.3 C 40.4 8.3 40.4 8.3 40.5 8.3 C 40.5 8.3 40.5 8.3 40.5 8.3 Z " stroke="none" fill="#000"/>  </g>  <g id="Polygon14792">    <path d="M 3.2 2.9 C 3.2 2.9 3.2 2.8 3.2 2.8 C 3.2 2.8 2.6 3.6 2.6 3.6 C 2.4 3.9 2.2 4.1 2 4.1 C 2 4.1 1.9 4.1 1.8 4 C 1.8 3.9 1.7 3.8 1.7 3.7 C 1.6 3.5 1.6 3.4 1.6 3.3 C 1.5 3.1 1.5 3 1.5 3 C 1.5 3 1.4 3.4 1.4 3.4 C 1.4 3.6 1.3 3.7 1.3 3.8 C 1.3 3.9 1.2 4.1 1.2 4.3 C 1.2 4.4 1.2 4.6 1.2 4.6 C 1.1 4.7 1.1 4.7 1.1 4.7 C 1 4.8 1 4.8 1 4.8 C 0.9 4.8 0.8 4.8 0.8 4.7 C 0.8 4.7 0.7 4.6 0.7 4.6 C 0.7 4.4 0.7 4.3 0.8 4.1 C 1 3.5 1.1 3 1.1 2.8 C 1.1 2.7 1.2 2.5 1.2 2.4 C 1.2 2.3 1.2 2.3 1.2 2.2 C 1.3 2.2 1.4 2.2 1.4 2.2 C 1.5 2.2 1.5 2.2 1.6 2.3 C 1.6 2.4 1.7 2.4 1.7 2.5 C 1.68 2.46 1.7 2.5 1.7 2.5 C 1.7 2.5 1.92 3.12 1.9 3.1 C 2 3.4 2.1 3.6 2.1 3.6 C 2.2 3.5 2.4 3.3 2.7 2.9 C 2.9 2.6 3.1 2.4 3.1 2.3 C 3.2 2.2 3.3 2.2 3.3 2.2 C 3.4 2.2 3.5 2.2 3.5 2.2 C 3.6 2.3 3.6 2.3 3.6 2.3 C 3.6 2.4 3.6 2.5 3.6 2.9 C 3.5 3.1 3.5 3.3 3.5 3.6 C 3.4 3.9 3.4 4.1 3.4 4.1 C 3.4 4.2 3.4 4.2 3.5 4.3 C 3.5 4.3 3.5 4.4 3.5 4.4 C 3.5 4.6 3.5 4.6 3.4 4.7 C 3.4 4.7 3.3 4.7 3.2 4.7 C 3.1 4.7 3 4.6 3 4.4 C 3 4.2 3 3.9 3.1 3.6 C 3.1 3.3 3.1 3.1 3.2 2.9 C 3.2 2.9 3.2 2.9 3.2 2.9 Z M 4.6 4.2 C 4.5 4.2 4.5 4.1 4.5 4.1 C 4.5 4.2 4.4 4.3 4.3 4.4 C 4.2 4.6 4.1 4.7 4.1 4.7 C 4 4.7 4 4.7 4 4.7 C 3.9 4.7 3.9 4.7 3.8 4.7 C 3.8 4.6 3.8 4.6 3.8 4.5 C 3.8 4.5 3.9 4.2 4.2 3.8 C 4.3 3.6 4.5 3.3 4.6 3.1 C 4.9 2.6 5 2.4 5.1 2.3 C 5.1 2.2 5.2 2.2 5.3 2.2 C 5.4 2.2 5.4 2.2 5.5 2.2 C 5.5 2.3 5.5 2.3 5.5 2.4 C 5.5 2.4 5.5 2.4 5.5 2.5 C 5.7 3.1 5.9 3.5 6 3.8 C 6.1 4.1 6.2 4.3 6.3 4.4 C 6.4 4.4 6.4 4.5 6.4 4.5 C 6.5 4.5 6.5 4.6 6.5 4.6 C 6.5 4.7 6.4 4.7 6.4 4.7 C 6.3 4.8 6.3 4.8 6.2 4.8 C 6.1 4.8 6.1 4.8 6 4.7 C 5.9 4.6 5.8 4.4 5.7 4.2 C 5.6 4.1 5.6 4 5.6 4 C 5.6 3.9 5.6 3.9 5.6 3.9 C 5.5 3.9 5.4 4 5.2 4 C 5 4.1 4.8 4.1 4.7 4.1 C 4.6 4.1 4.6 4.2 4.6 4.2 C 4.6 4.2 4.6 4.2 4.6 4.2 Z M 5.3 3.6 C 5.4 3.6 5.4 3.6 5.5 3.6 C 5.4 3.5 5.4 3.3 5.2 2.9 C 5.2 2.8 5.2 2.8 5.2 2.8 C 5.2 2.8 4.7 3.7 4.7 3.7 C 4.8 3.7 4.9 3.7 4.9 3.7 C 5 3.7 5.1 3.7 5.3 3.6 C 5.3 3.6 5.3 3.6 5.3 3.6 Z M 8.6 2.5 C 8.6 2.7 8.5 2.8 8.2 2.8 C 8.2 2.7 8.2 2.6 8.2 2.6 C 8.1 2.6 8 2.5 7.9 2.5 C 7.7 2.5 7.5 2.6 7.4 2.7 C 7.2 2.8 7.1 2.9 7.1 3 C 7.1 3.1 7.1 3.1 7.2 3.2 C 7.3 3.2 7.4 3.3 7.7 3.4 C 8 3.4 8.2 3.5 8.3 3.6 C 8.4 3.7 8.5 3.8 8.5 4 C 8.5 4.2 8.3 4.4 8 4.6 C 7.7 4.7 7.3 4.8 6.9 4.8 C 6.8 4.8 6.7 4.8 6.7 4.8 C 6.6 4.7 6.6 4.7 6.6 4.6 C 6.6 4.5 6.6 4.5 6.6 4.4 C 6.6 4.4 6.7 4.3 6.7 4.3 C 6.7 4.3 6.8 4.4 6.8 4.4 C 6.9 4.4 7 4.4 7.1 4.4 C 7.3 4.4 7.5 4.4 7.7 4.3 C 7.9 4.2 8.1 4.1 8.1 4 C 8.1 4 8 3.9 8 3.9 C 7.9 3.8 7.8 3.8 7.6 3.7 C 7.4 3.7 7.2 3.6 7.1 3.5 C 7 3.5 6.9 3.4 6.8 3.3 C 6.7 3.2 6.7 3.1 6.7 3 C 6.7 2.8 6.8 2.6 7.1 2.4 C 7.3 2.2 7.6 2.2 7.9 2.2 C 8.1 2.2 8.3 2.2 8.4 2.3 C 8.5 2.3 8.6 2.4 8.6 2.5 C 8.6 2.5 8.6 2.5 8.6 2.5 Z M 11.7 4.2 C 11.8 4.1 11.9 4.1 11.9 4.1 C 12 4.1 12 4.1 12 4.2 C 12 4.3 11.9 4.4 11.7 4.6 C 11.4 4.7 11.2 4.8 10.9 4.8 C 10.7 4.8 10.5 4.8 10.3 4.6 C 10.2 4.5 10.1 4.3 10.1 4 C 10.1 3.8 10.2 3.5 10.4 3.1 C 10.5 2.8 10.8 2.6 11 2.4 C 11.3 2.2 11.6 2.1 11.8 2.1 C 12 2.1 12.1 2.1 12.2 2.2 C 12.3 2.3 12.3 2.4 12.3 2.5 C 12.3 2.6 12.3 2.7 12.3 2.8 C 12.3 2.9 12.2 2.9 12.2 2.9 C 12.1 3 12 3 12 3 C 12 3 11.9 3 11.9 3 C 11.9 2.9 11.8 2.9 11.8 2.8 C 11.8 2.8 11.9 2.7 11.9 2.7 C 11.9 2.6 11.9 2.5 11.9 2.5 C 11.9 2.4 11.9 2.4 11.8 2.4 C 11.7 2.4 11.5 2.5 11.3 2.6 C 11.1 2.8 10.9 3 10.7 3.3 C 10.6 3.6 10.5 3.8 10.5 4 C 10.5 4.1 10.6 4.2 10.6 4.3 C 10.7 4.4 10.8 4.5 11 4.5 C 11.1 4.5 11.2 4.4 11.3 4.4 C 11.4 4.3 11.6 4.3 11.7 4.2 C 11.7 4.2 11.7 4.2 11.7 4.2 Z M 13.2 4.8 C 13 4.8 12.8 4.7 12.7 4.5 C 12.5 4.3 12.5 4.1 12.5 3.9 C 12.5 3.7 12.5 3.4 12.7 3.2 C 12.8 2.9 13 2.6 13.2 2.4 C 13.4 2.3 13.7 2.2 13.9 2.2 C 14.1 2.2 14.3 2.2 14.4 2.2 C 14.5 2.3 14.6 2.4 14.7 2.4 C 14.8 2.5 14.9 2.6 15 2.7 C 15 2.8 15 2.9 15 3.1 C 15 3.2 15 3.4 14.9 3.6 C 14.8 3.8 14.6 4 14.5 4.2 C 14.3 4.4 14.1 4.5 13.9 4.6 C 13.7 4.7 13.5 4.8 13.2 4.8 Z M 12.9 3.9 C 12.9 4.1 12.9 4.2 13 4.3 C 13.1 4.4 13.2 4.4 13.3 4.4 C 13.6 4.4 13.9 4.3 14.2 4 C 14.4 3.7 14.6 3.4 14.6 3 C 14.6 2.9 14.5 2.8 14.5 2.8 C 14.5 2.7 14.4 2.6 14.3 2.6 C 14.2 2.5 14.1 2.5 13.9 2.5 C 13.7 2.5 13.5 2.7 13.2 3 C 13 3.3 12.9 3.6 12.9 3.9 Z M 17.7 2.9 C 17.7 2.9 17.7 2.8 17.7 2.8 C 17.7 2.8 17.1 3.6 17.1 3.6 C 16.8 3.9 16.6 4.1 16.5 4.1 C 16.4 4.1 16.4 4.1 16.3 4 C 16.3 3.9 16.2 3.8 16.2 3.7 C 16.1 3.5 16.1 3.4 16 3.3 C 16 3.1 16 3 16 3 C 16 3 15.9 3.4 15.9 3.4 C 15.8 3.6 15.8 3.7 15.8 3.8 C 15.8 3.9 15.7 4.1 15.7 4.3 C 15.7 4.4 15.6 4.6 15.6 4.6 C 15.6 4.7 15.6 4.7 15.5 4.7 C 15.5 4.8 15.5 4.8 15.4 4.8 C 15.4 4.8 15.3 4.8 15.3 4.7 C 15.2 4.7 15.2 4.6 15.2 4.6 C 15.2 4.4 15.2 4.3 15.3 4.1 C 15.5 3.5 15.6 3 15.6 2.8 C 15.6 2.7 15.6 2.5 15.6 2.4 C 15.6 2.3 15.7 2.3 15.7 2.2 C 15.8 2.2 15.8 2.2 15.9 2.2 C 16 2.2 16 2.2 16.1 2.3 C 16.1 2.4 16.1 2.4 16.2 2.5 C 16.15 2.46 16.2 2.5 16.2 2.5 C 16.2 2.5 16.39 3.12 16.4 3.1 C 16.5 3.4 16.5 3.6 16.6 3.6 C 16.7 3.5 16.9 3.3 17.1 2.9 C 17.4 2.6 17.5 2.4 17.6 2.3 C 17.7 2.2 17.8 2.2 17.8 2.2 C 17.9 2.2 17.9 2.2 18 2.2 C 18.1 2.3 18.1 2.3 18.1 2.3 C 18.1 2.4 18.1 2.5 18 2.9 C 18 3.1 18 3.3 17.9 3.6 C 17.9 3.9 17.9 4.1 17.9 4.1 C 17.9 4.2 17.9 4.2 17.9 4.3 C 17.9 4.3 18 4.4 18 4.4 C 18 4.6 17.9 4.6 17.9 4.7 C 17.9 4.7 17.8 4.7 17.7 4.7 C 17.6 4.7 17.5 4.6 17.5 4.4 C 17.5 4.2 17.5 3.9 17.5 3.6 C 17.6 3.3 17.6 3.1 17.7 2.9 C 17.7 2.9 17.7 2.9 17.7 2.9 Z M 19.2 4.8 C 19 4.8 18.8 4.7 18.7 4.5 C 18.5 4.3 18.4 4.1 18.4 3.9 C 18.4 3.7 18.5 3.4 18.6 3.2 C 18.8 2.9 19 2.6 19.2 2.4 C 19.4 2.3 19.7 2.2 19.9 2.2 C 20.1 2.2 20.2 2.2 20.4 2.2 C 20.5 2.3 20.6 2.4 20.7 2.4 C 20.8 2.5 20.9 2.6 20.9 2.7 C 21 2.8 21 2.9 21 3.1 C 21 3.2 20.9 3.4 20.8 3.6 C 20.7 3.8 20.6 4 20.4 4.2 C 20.3 4.4 20.1 4.5 19.9 4.6 C 19.7 4.7 19.5 4.8 19.2 4.8 Z M 18.9 3.9 C 18.9 4.1 18.9 4.2 19 4.3 C 19.1 4.4 19.2 4.4 19.3 4.4 C 19.6 4.4 19.9 4.3 20.1 4 C 20.4 3.7 20.5 3.4 20.5 3 C 20.5 2.9 20.5 2.8 20.5 2.8 C 20.4 2.7 20.3 2.6 20.2 2.6 C 20.1 2.5 20 2.5 19.9 2.5 C 19.7 2.5 19.5 2.7 19.2 3 C 19 3.3 18.9 3.6 18.9 3.9 Z M 24.5 2.5 C 24.5 2.7 24.4 2.8 24.1 2.8 C 24.1 2.7 24.1 2.6 24 2.6 C 24 2.6 23.9 2.5 23.8 2.5 C 23.6 2.5 23.4 2.6 23.3 2.7 C 23.1 2.8 23 2.9 23 3 C 23 3.1 23 3.1 23.1 3.2 C 23.2 3.2 23.3 3.3 23.6 3.4 C 23.9 3.4 24.1 3.5 24.2 3.6 C 24.3 3.7 24.4 3.8 24.4 4 C 24.4 4.2 24.2 4.4 23.9 4.6 C 23.5 4.7 23.2 4.8 22.8 4.8 C 22.7 4.8 22.6 4.8 22.6 4.8 C 22.5 4.7 22.4 4.7 22.4 4.6 C 22.4 4.5 22.5 4.5 22.5 4.4 C 22.5 4.4 22.6 4.3 22.6 4.3 C 22.6 4.3 22.7 4.4 22.7 4.4 C 22.8 4.4 22.9 4.4 23 4.4 C 23.2 4.4 23.4 4.4 23.6 4.3 C 23.8 4.2 24 4.1 24 4 C 24 4 23.9 3.9 23.9 3.9 C 23.8 3.8 23.7 3.8 23.5 3.7 C 23.3 3.7 23.1 3.6 23 3.5 C 22.8 3.5 22.8 3.4 22.7 3.3 C 22.6 3.2 22.6 3.1 22.6 3 C 22.6 2.8 22.7 2.6 23 2.4 C 23.2 2.2 23.5 2.2 23.8 2.2 C 24 2.2 24.2 2.2 24.3 2.3 C 24.4 2.3 24.5 2.4 24.5 2.5 C 24.5 2.5 24.5 2.5 24.5 2.5 Z M 25.4 4.8 C 25.2 4.8 25 4.7 24.9 4.5 C 24.7 4.3 24.7 4.1 24.7 3.9 C 24.7 3.7 24.7 3.4 24.9 3.2 C 25 2.9 25.2 2.6 25.4 2.4 C 25.6 2.3 25.9 2.2 26.1 2.2 C 26.3 2.2 26.5 2.2 26.6 2.2 C 26.7 2.3 26.8 2.4 26.9 2.4 C 27 2.5 27.1 2.6 27.1 2.7 C 27.2 2.8 27.2 2.9 27.2 3.1 C 27.2 3.2 27.2 3.4 27.1 3.6 C 27 3.8 26.8 4 26.7 4.2 C 26.5 4.4 26.3 4.5 26.1 4.6 C 25.9 4.7 25.7 4.8 25.4 4.8 Z M 25.1 3.9 C 25.1 4.1 25.1 4.2 25.2 4.3 C 25.3 4.4 25.4 4.4 25.5 4.4 C 25.8 4.4 26.1 4.3 26.4 4 C 26.6 3.7 26.8 3.4 26.8 3 C 26.8 2.9 26.7 2.8 26.7 2.8 C 26.6 2.7 26.6 2.6 26.5 2.6 C 26.4 2.5 26.2 2.5 26.1 2.5 C 25.9 2.5 25.7 2.7 25.4 3 C 25.2 3.3 25.1 3.6 25.1 3.9 Z M 29.1 3.3 C 29.3 3.4 29.4 3.4 29.5 3.6 C 29.6 3.7 29.6 3.8 29.6 3.9 C 29.6 4.1 29.5 4.3 29.2 4.5 C 28.9 4.8 28.6 4.9 28.3 4.9 C 28.1 4.9 28.1 4.8 28.1 4.7 C 28.1 4.5 28.2 4.5 28.4 4.5 C 28.4 4.5 28.5 4.5 28.5 4.5 C 28.6 4.5 28.7 4.4 28.9 4.3 C 29.1 4.1 29.2 4 29.2 3.9 C 29.2 3.8 29.1 3.7 29.1 3.7 C 29 3.6 28.9 3.6 28.8 3.6 C 28.8 3.6 28.7 3.6 28.7 3.6 C 28.6 3.7 28.5 3.7 28.5 3.7 C 28.4 3.7 28.3 3.7 28.3 3.6 C 28.2 3.6 28.2 3.6 28.2 3.5 C 28.2 3.4 28.3 3.3 28.6 3.2 C 28.7 3.2 28.8 3.1 29 3 C 29.1 2.9 29.2 2.7 29.2 2.7 C 29.2 2.5 29.1 2.5 28.9 2.5 C 28.8 2.5 28.6 2.5 28.5 2.5 C 28.3 2.6 28.2 2.6 28.2 2.7 C 28.2 2.7 28.2 3 28.1 3.4 C 28 3.9 28 4.2 28 4.3 C 28 4.3 28 4.5 28 4.5 C 28 4.6 27.9 4.7 27.9 4.7 C 27.8 4.8 27.8 4.8 27.7 4.8 C 27.6 4.8 27.5 4.7 27.5 4.5 C 27.5 4.4 27.5 4.4 27.5 4.3 C 27.6 4.1 27.6 3.8 27.7 3.4 C 27.7 3.1 27.8 2.9 27.8 2.9 C 27.8 2.8 27.7 2.8 27.7 2.8 C 27.7 2.8 27.7 2.8 27.7 2.8 C 27.6 2.8 27.6 2.8 27.6 2.7 C 27.6 2.7 27.5 2.7 27.5 2.7 C 27.5 2.6 27.5 2.6 27.5 2.6 C 27.5 2.5 27.7 2.4 28 2.3 C 28.3 2.2 28.6 2.1 29 2.1 C 29.2 2.1 29.3 2.2 29.4 2.3 C 29.6 2.4 29.6 2.5 29.6 2.6 C 29.6 2.7 29.6 2.8 29.5 2.9 C 29.4 3 29.3 3.1 29.1 3.3 Z M 30.2 2.6 C 30.2 2.6 30.16 2.57 30.2 2.6 C 30.1 2.5 30.1 2.5 30.1 2.4 C 30.1 2.4 30.1 2.3 30.2 2.3 C 30.2 2.3 30.3 2.2 30.3 2.2 C 30.4 2.2 30.4 2.2 30.4 2.2 C 30.5 2.3 30.5 2.3 30.5 2.3 C 30.8 2.2 31.1 2.2 31.2 2.2 C 31.4 2.2 31.6 2.2 31.8 2.4 C 31.9 2.5 32 2.6 32 2.8 C 32 3 31.9 3.1 31.8 3.3 C 31.7 3.4 31.5 3.6 31.2 3.7 C 31.6 4 31.9 4.2 32.1 4.3 C 32.2 4.4 32.2 4.4 32.2 4.5 C 32.2 4.5 32.2 4.6 32.2 4.6 C 32.1 4.7 32.1 4.7 32 4.7 C 32 4.7 31.9 4.7 31.8 4.6 C 31.7 4.6 31.6 4.5 31.4 4.4 C 31.3 4.2 31.2 4.2 31.2 4.1 C 31 4 30.8 3.8 30.7 3.8 C 30.6 3.8 30.5 3.7 30.5 3.6 C 30.5 3.5 30.6 3.5 30.6 3.4 C 30.7 3.4 30.7 3.4 30.8 3.4 C 30.8 3.4 30.8 3.4 30.9 3.4 C 30.9 3.4 30.9 3.4 30.9 3.4 C 31 3.4 31.1 3.3 31.3 3.2 C 31.5 3.1 31.6 3 31.6 2.8 C 31.6 2.7 31.6 2.7 31.5 2.6 C 31.4 2.5 31.3 2.5 31.2 2.5 C 31 2.5 30.9 2.5 30.8 2.5 C 30.7 2.6 30.6 2.6 30.6 2.6 C 30.6 2.6 30.6 2.6 30.6 2.6 C 30.6 2.7 30.6 2.8 30.5 3 C 30.5 3.2 30.5 3.4 30.4 3.7 C 30.4 3.9 30.4 4.1 30.4 4.2 C 30.4 4.3 30.4 4.3 30.4 4.4 C 30.4 4.5 30.4 4.5 30.4 4.6 C 30.4 4.6 30.4 4.6 30.3 4.7 C 30.3 4.7 30.2 4.8 30.2 4.8 C 30 4.8 29.9 4.6 29.9 4.4 C 29.9 4.3 30 4 30 3.7 C 30 3.4 30.1 3.1 30.1 2.8 C 30.2 2.8 30.2 2.8 30.2 2.7 C 30.16 2.74 30.2 2.6 30.2 2.6 Z M 33 4.2 C 32.9 4.2 32.9 4.1 32.9 4.1 C 32.9 4.2 32.8 4.3 32.7 4.4 C 32.6 4.6 32.5 4.7 32.5 4.7 C 32.5 4.7 32.4 4.7 32.4 4.7 C 32.3 4.7 32.3 4.7 32.2 4.7 C 32.2 4.6 32.2 4.6 32.2 4.5 C 32.2 4.5 32.3 4.2 32.6 3.8 C 32.7 3.6 32.9 3.3 33 3.1 C 33.3 2.6 33.4 2.4 33.5 2.3 C 33.5 2.2 33.6 2.2 33.7 2.2 C 33.8 2.2 33.8 2.2 33.9 2.2 C 33.9 2.3 33.9 2.3 33.9 2.4 C 33.9 2.4 33.9 2.4 33.9 2.5 C 34.1 3.1 34.3 3.5 34.4 3.8 C 34.5 4.1 34.6 4.3 34.7 4.4 C 34.8 4.4 34.8 4.5 34.8 4.5 C 34.9 4.5 34.9 4.6 34.9 4.6 C 34.9 4.7 34.8 4.7 34.8 4.7 C 34.8 4.8 34.7 4.8 34.6 4.8 C 34.5 4.8 34.5 4.8 34.4 4.7 C 34.3 4.6 34.2 4.4 34.1 4.2 C 34 4.1 34 4 34 4 C 34 3.9 34 3.9 34 3.9 C 33.9 3.9 33.8 4 33.6 4 C 33.4 4.1 33.2 4.1 33.1 4.1 C 33 4.1 33 4.2 33 4.2 C 33 4.2 33 4.2 33 4.2 Z M 33.7 3.6 C 33.8 3.6 33.8 3.6 33.9 3.6 C 33.8 3.5 33.8 3.3 33.6 2.9 C 33.6 2.8 33.6 2.8 33.6 2.8 C 33.6 2.8 33.1 3.7 33.1 3.7 C 33.2 3.7 33.3 3.7 33.3 3.7 C 33.4 3.7 33.5 3.7 33.7 3.6 C 33.7 3.6 33.7 3.6 33.7 3.6 Z M 35.3 2.6 C 35.3 2.6 35.28 2.57 35.3 2.6 C 35.2 2.5 35.2 2.5 35.2 2.4 C 35.2 2.4 35.3 2.3 35.3 2.3 C 35.4 2.3 35.4 2.2 35.5 2.2 C 35.5 2.2 35.5 2.2 35.5 2.2 C 35.6 2.3 35.6 2.3 35.6 2.3 C 35.9 2.2 36.2 2.2 36.3 2.2 C 36.6 2.2 36.8 2.2 36.9 2.4 C 37.1 2.5 37.1 2.6 37.1 2.8 C 37.1 3 37.1 3.1 36.9 3.3 C 36.8 3.4 36.6 3.6 36.3 3.7 C 36.7 4 37 4.2 37.3 4.3 C 37.3 4.4 37.4 4.4 37.4 4.5 C 37.4 4.5 37.3 4.6 37.3 4.6 C 37.2 4.7 37.2 4.7 37.1 4.7 C 37.1 4.7 37 4.7 36.9 4.6 C 36.8 4.6 36.7 4.5 36.6 4.4 C 36.4 4.2 36.3 4.2 36.3 4.1 C 36.1 4 35.9 3.8 35.8 3.8 C 35.7 3.8 35.6 3.7 35.6 3.6 C 35.6 3.5 35.7 3.5 35.7 3.4 C 35.8 3.4 35.8 3.4 35.9 3.4 C 35.9 3.4 35.9 3.4 36 3.4 C 36 3.4 36 3.4 36 3.4 C 36.1 3.4 36.2 3.3 36.4 3.2 C 36.6 3.1 36.7 3 36.7 2.8 C 36.7 2.7 36.7 2.7 36.6 2.6 C 36.5 2.5 36.4 2.5 36.3 2.5 C 36.1 2.5 36 2.5 35.9 2.5 C 35.8 2.6 35.8 2.6 35.8 2.6 C 35.7 2.6 35.7 2.6 35.7 2.6 C 35.7 2.7 35.7 2.8 35.7 3 C 35.6 3.2 35.6 3.4 35.5 3.7 C 35.5 3.9 35.5 4.1 35.5 4.2 C 35.5 4.3 35.5 4.3 35.5 4.4 C 35.5 4.5 35.5 4.5 35.5 4.6 C 35.5 4.6 35.5 4.6 35.5 4.7 C 35.4 4.7 35.4 4.8 35.3 4.8 C 35.1 4.8 35.1 4.6 35.1 4.4 C 35.1 4.3 35.1 4 35.1 3.7 C 35.2 3.4 35.2 3.1 35.3 2.8 C 35.3 2.8 35.3 2.8 35.3 2.7 C 35.28 2.74 35.3 2.6 35.3 2.6 Z M 38.2 3 C 38.1 3.1 38.1 3.2 38.1 3.2 C 38.1 3.3 38.1 3.3 38.1 3.5 C 38 3.7 38 3.9 38 4 C 38 4.1 38 4.3 38 4.4 C 38.1 4.5 38 4.6 38 4.7 C 37.9 4.7 37.9 4.7 37.8 4.7 C 37.7 4.7 37.7 4.7 37.6 4.6 C 37.6 4.6 37.6 4.4 37.6 4.3 C 37.6 4.1 37.6 3.9 37.7 3.5 C 37.7 3.5 37.8 2.8 37.8 2.8 C 37.8 2.7 37.8 2.6 37.8 2.5 C 37.8 2.4 37.8 2.3 37.8 2.3 C 37.9 2.3 37.9 2.3 38 2.2 C 38 2.2 38 2.2 38.1 2.2 C 38.1 2.2 38.2 2.2 38.2 2.3 C 38.3 2.3 38.3 2.4 38.3 2.5 C 38.3 2.5 38.2 3 38.2 3 Z M 39.1 4.2 C 39.1 4.2 39.1 4.1 39 4.1 C 39 4.2 38.9 4.3 38.8 4.4 C 38.7 4.6 38.7 4.7 38.6 4.7 C 38.6 4.7 38.6 4.7 38.5 4.7 C 38.5 4.7 38.4 4.7 38.4 4.7 C 38.3 4.6 38.3 4.6 38.3 4.5 C 38.3 4.5 38.4 4.2 38.7 3.8 C 38.9 3.6 39 3.3 39.2 3.1 C 39.4 2.6 39.6 2.4 39.6 2.3 C 39.7 2.2 39.8 2.2 39.8 2.2 C 39.9 2.2 40 2.2 40 2.2 C 40 2.3 40.1 2.3 40.1 2.4 C 40.1 2.4 40.1 2.4 40 2.5 C 40.3 3.1 40.4 3.5 40.5 3.8 C 40.7 4.1 40.8 4.3 40.9 4.4 C 40.9 4.4 41 4.5 41 4.5 C 41 4.5 41 4.6 41 4.6 C 41 4.7 41 4.7 40.9 4.7 C 40.9 4.8 40.8 4.8 40.8 4.8 C 40.7 4.8 40.6 4.8 40.5 4.7 C 40.4 4.6 40.3 4.4 40.3 4.2 C 40.2 4.1 40.1 4 40.1 4 C 40.1 3.9 40.1 3.9 40.1 3.9 C 40.1 3.9 39.9 4 39.7 4 C 39.5 4.1 39.3 4.1 39.2 4.1 C 39.2 4.1 39.2 4.2 39.1 4.2 C 39.1 4.2 39.1 4.2 39.1 4.2 Z M 39.9 3.6 C 39.9 3.6 40 3.6 40 3.6 C 40 3.5 39.9 3.3 39.8 2.9 C 39.8 2.8 39.7 2.8 39.7 2.8 C 39.7 2.8 39.3 3.7 39.3 3.7 C 39.3 3.7 39.4 3.7 39.5 3.7 C 39.5 3.7 39.7 3.7 39.9 3.6 C 39.9 3.6 39.9 3.6 39.9 3.6 Z M 44.9 2.9 C 45 2.9 45 2.8 45 2.8 C 45 2.8 44.4 3.6 44.4 3.6 C 44.1 3.9 43.9 4.1 43.8 4.1 C 43.7 4.1 43.7 4.1 43.6 4 C 43.6 3.9 43.5 3.8 43.5 3.7 C 43.4 3.5 43.4 3.4 43.3 3.3 C 43.3 3.1 43.3 3 43.2 3 C 43.2 3 43.2 3.4 43.2 3.4 C 43.1 3.6 43.1 3.7 43.1 3.8 C 43 3.9 43 4.1 43 4.3 C 42.9 4.4 42.9 4.6 42.9 4.6 C 42.9 4.7 42.9 4.7 42.8 4.7 C 42.8 4.8 42.7 4.8 42.7 4.8 C 42.7 4.8 42.6 4.8 42.6 4.7 C 42.5 4.7 42.5 4.6 42.5 4.6 C 42.5 4.4 42.5 4.3 42.6 4.1 C 42.7 3.5 42.9 3 42.9 2.8 C 42.9 2.7 42.9 2.5 42.9 2.4 C 42.9 2.3 42.9 2.3 43 2.2 C 43.1 2.2 43.1 2.2 43.2 2.2 C 43.3 2.2 43.3 2.2 43.4 2.3 C 43.4 2.4 43.4 2.4 43.4 2.5 C 43.44 2.46 43.4 2.5 43.4 2.5 C 43.4 2.5 43.68 3.12 43.7 3.1 C 43.8 3.4 43.8 3.6 43.9 3.6 C 44 3.5 44.2 3.3 44.4 2.9 C 44.7 2.6 44.8 2.4 44.9 2.3 C 45 2.2 45.1 2.2 45.1 2.2 C 45.2 2.2 45.2 2.2 45.3 2.2 C 45.4 2.3 45.4 2.3 45.4 2.3 C 45.4 2.4 45.4 2.5 45.3 2.9 C 45.3 3.1 45.3 3.3 45.2 3.6 C 45.2 3.9 45.2 4.1 45.2 4.1 C 45.2 4.2 45.2 4.2 45.2 4.3 C 45.2 4.3 45.2 4.4 45.2 4.4 C 45.2 4.6 45.2 4.6 45.2 4.7 C 45.1 4.7 45.1 4.7 45 4.7 C 44.9 4.7 44.8 4.6 44.8 4.4 C 44.8 4.2 44.8 3.9 44.8 3.6 C 44.9 3.3 44.9 3.1 44.9 2.9 C 44.9 2.9 44.9 2.9 44.9 2.9 Z M 46.3 4.2 C 46.3 4.2 46.3 4.1 46.2 4.1 C 46.2 4.2 46.2 4.3 46.1 4.4 C 46 4.6 45.9 4.7 45.9 4.7 C 45.8 4.7 45.8 4.7 45.7 4.7 C 45.7 4.7 45.7 4.7 45.6 4.7 C 45.5 4.6 45.5 4.6 45.5 4.5 C 45.5 4.5 45.7 4.2 45.9 3.8 C 46.1 3.6 46.2 3.3 46.4 3.1 C 46.6 2.6 46.8 2.4 46.8 2.3 C 46.9 2.2 47 2.2 47 2.2 C 47.1 2.2 47.2 2.2 47.2 2.2 C 47.3 2.3 47.3 2.3 47.3 2.4 C 47.3 2.4 47.3 2.4 47.3 2.5 C 47.5 3.1 47.6 3.5 47.7 3.8 C 47.9 4.1 48 4.3 48.1 4.4 C 48.2 4.4 48.2 4.5 48.2 4.5 C 48.2 4.5 48.2 4.6 48.2 4.6 C 48.2 4.7 48.2 4.7 48.2 4.7 C 48.1 4.8 48.1 4.8 48 4.8 C 47.9 4.8 47.8 4.8 47.7 4.7 C 47.6 4.6 47.6 4.4 47.5 4.2 C 47.4 4.1 47.4 4 47.4 4 C 47.4 3.9 47.4 3.9 47.3 3.9 C 47.3 3.9 47.2 4 46.9 4 C 46.7 4.1 46.6 4.1 46.4 4.1 C 46.4 4.1 46.4 4.2 46.3 4.2 C 46.3 4.2 46.3 4.2 46.3 4.2 Z M 47.1 3.6 C 47.1 3.6 47.2 3.6 47.2 3.6 C 47.2 3.5 47.1 3.3 47 2.9 C 47 2.8 47 2.8 47 2.8 C 47 2.8 46.5 3.7 46.5 3.7 C 46.5 3.7 46.6 3.7 46.7 3.7 C 46.7 3.7 46.9 3.7 47.1 3.6 C 47.1 3.6 47.1 3.6 47.1 3.6 Z M 49 3 C 49 3.1 49 3.2 49 3.2 C 49 3.3 49 3.3 49 3.5 C 48.9 3.7 48.9 3.9 48.9 4 C 48.9 4.1 48.9 4.3 48.9 4.4 C 48.9 4.5 48.9 4.6 48.9 4.7 C 48.8 4.7 48.7 4.7 48.7 4.7 C 48.6 4.7 48.6 4.7 48.5 4.6 C 48.5 4.6 48.5 4.4 48.5 4.3 C 48.5 4.1 48.5 3.9 48.5 3.5 C 48.5 3.5 48.6 2.8 48.6 2.8 C 48.7 2.7 48.7 2.6 48.7 2.5 C 48.7 2.4 48.7 2.3 48.7 2.3 C 48.8 2.3 48.8 2.3 48.8 2.2 C 48.9 2.2 48.9 2.2 49 2.2 C 49 2.2 49.1 2.2 49.1 2.3 C 49.1 2.3 49.2 2.4 49.2 2.5 C 49.2 2.5 49 3 49 3 Z M 51.4 2.5 C 51.4 2.7 51.3 2.8 51 2.8 C 51 2.7 51 2.6 50.9 2.6 C 50.9 2.6 50.8 2.5 50.7 2.5 C 50.5 2.5 50.3 2.6 50.2 2.7 C 50 2.8 49.9 2.9 49.9 3 C 49.9 3.1 49.9 3.1 50 3.2 C 50.1 3.2 50.2 3.3 50.5 3.4 C 50.8 3.4 51 3.5 51.1 3.6 C 51.2 3.7 51.3 3.8 51.3 4 C 51.3 4.2 51.1 4.4 50.8 4.6 C 50.4 4.7 50.1 4.8 49.7 4.8 C 49.6 4.8 49.5 4.8 49.5 4.8 C 49.4 4.7 49.3 4.7 49.3 4.6 C 49.3 4.5 49.4 4.5 49.4 4.4 C 49.4 4.4 49.5 4.3 49.5 4.3 C 49.5 4.3 49.6 4.4 49.6 4.4 C 49.7 4.4 49.8 4.4 49.9 4.4 C 50.1 4.4 50.3 4.4 50.5 4.3 C 50.7 4.2 50.9 4.1 50.9 4 C 50.9 4 50.8 3.9 50.8 3.9 C 50.7 3.8 50.6 3.8 50.4 3.7 C 50.2 3.7 50 3.6 49.9 3.5 C 49.7 3.5 49.7 3.4 49.6 3.3 C 49.5 3.2 49.5 3.1 49.5 3 C 49.5 2.8 49.6 2.6 49.9 2.4 C 50.1 2.2 50.4 2.2 50.7 2.2 C 50.9 2.2 51.1 2.2 51.2 2.3 C 51.3 2.3 51.4 2.4 51.4 2.5 C 51.4 2.5 51.4 2.5 51.4 2.5 Z " stroke="none" fill="#000"/>  </g></svg>