<?xml version="1.0" standalone="no"?><!DOCTYPE svg PUBLIC "-//W3C//DTD SVG 1.1//EN" "http://www.w3.org/Graphics/SVG/1.1/DTD/svg11.dtd"><svg xmlns="http://www.w3.org/2000/svg" version="1.1" width="99px" height="33.8px" viewBox="0 -7 99 33.8" style="top:-7px">  <desc>ADRIANA</desc>  <defs/>  <g id="Polygon13366">    <path d="M 15.8 10.7 C 15.6 10.7 15.4 10.7 15.3 10.6 C 15.2 10.8 15 11.3 14.5 12 C 14.1 12.7 13.8 13.1 13.6 13.2 C 13.5 13.3 13.3 13.3 13.2 13.3 C 13 13.3 12.8 13.2 12.5 13 C 12.3 12.8 12.2 12.6 12.2 12.4 C 12.2 12.2 12.8 11.2 14 9.2 C 14.7 8.2 15.3 7.2 15.9 6.2 C 17 4.1 17.7 2.9 18 2.6 C 18.2 2.2 18.5 2 18.7 2 C 19.2 2 19.5 2.2 19.7 2.4 C 19.8 2.4 19.8 2.6 19.8 2.9 C 19.8 3.1 19.8 3.2 19.8 3.3 C 20.7 6.1 21.4 8.1 21.9 9.3 C 22.4 10.4 22.9 11.2 23.5 11.8 C 23.7 12 23.9 12.2 23.9 12.3 C 24 12.4 24 12.5 24 12.6 C 24 12.9 23.9 13.1 23.7 13.3 C 23.5 13.5 23.3 13.6 23 13.6 C 22.6 13.6 22.2 13.4 21.8 13 C 21.5 12.5 21.1 11.9 20.7 11.1 C 20.4 10.4 20.2 9.9 20.2 9.9 C 20.2 9.8 20.2 9.8 20.2 9.8 C 19.9 9.8 19.3 9.9 18.4 10.1 C 17.5 10.3 16.7 10.5 16.1 10.7 C 16 10.7 15.9 10.7 15.8 10.7 C 15.8 10.7 15.8 10.7 15.8 10.7 Z M 19 8.4 C 19.2 8.4 19.4 8.3 19.6 8.3 C 19.5 8 19.2 7 18.6 5.2 C 18.5 5 18.5 4.9 18.5 4.9 C 18.5 4.9 16.3 8.9 16.3 8.9 C 16.6 8.8 17 8.8 17.3 8.7 C 17.5 8.7 18.1 8.6 19 8.4 C 19 8.4 19 8.4 19 8.4 Z M 25.3 11.8 C 25.4 11.6 25.4 11.1 25.4 10.5 C 25.5 8.8 25.8 6.9 26.1 5 C 26.1 4.6 26.2 4.3 26.2 4.1 C 26.2 4 26.1 4 26.1 4 C 25.5 3.8 25.3 3.6 25.3 3.3 C 25.3 3 25.4 2.8 25.6 2.6 C 25.8 2.4 26 2.3 26.3 2.3 C 26.3 2.3 27.3 2.3 27.3 2.3 C 27.8 2.3 28.4 2.3 29.2 2.2 C 29.9 2.2 30.4 2.1 30.9 2.1 C 32.3 2.1 33.4 2.5 34.2 3.3 C 35.1 4.1 35.5 5.1 35.5 6.4 C 35.5 7.8 34.9 9.1 33.5 10.3 C 32.2 11.4 30.6 12.2 28.7 12.7 C 28.2 12.8 27.9 12.9 27.7 12.9 C 27.5 13 27.2 13.1 27 13.3 C 26.6 13.6 26.3 13.7 25.9 13.7 C 25.7 13.7 25.5 13.6 25.3 13.3 C 25.1 13.1 25 12.9 25 12.7 C 25 12.6 25 12.5 25.1 12.3 C 25.1 12.3 25.3 11.8 25.3 11.8 Z M 27.2 10.9 C 27.2 11.1 27.2 11.3 27.2 11.4 C 27.5 11.4 28.3 11.2 29.5 10.9 C 30.8 10.5 31.8 9.9 32.6 9.1 C 33.3 8.3 33.7 7.4 33.7 6.3 C 33.7 5.5 33.4 4.8 32.9 4.4 C 32.3 3.9 31.5 3.6 30.6 3.6 C 30 3.6 29.2 3.7 28.3 3.8 C 28.2 3.8 28.1 3.8 28 3.8 C 27.5 7.2 27.2 9.5 27.2 10.9 C 27.2 10.9 27.2 10.9 27.2 10.9 Z M 37.8 4 C 37.8 4 37.67 3.83 37.7 3.8 C 37.5 3.6 37.4 3.4 37.4 3.3 C 37.4 3 37.6 2.8 37.8 2.7 C 38 2.5 38.3 2.4 38.5 2.4 C 38.6 2.4 38.7 2.4 38.8 2.4 C 38.9 2.4 39 2.4 39.1 2.4 C 40.5 2.2 41.6 2.1 42.2 2.1 C 43.3 2.1 44.1 2.4 44.8 2.9 C 45.4 3.4 45.8 4.1 45.8 4.8 C 45.8 5.6 45.4 6.3 44.8 6.9 C 44.2 7.6 43.3 8.1 42.3 8.6 C 44 10 45.4 11 46.3 11.5 C 46.6 11.7 46.8 12 46.8 12.3 C 46.8 12.5 46.7 12.7 46.4 12.9 C 46.2 13.1 46 13.2 45.8 13.2 C 45.5 13.2 45.2 13 44.8 12.8 C 44.4 12.5 43.9 12.1 43.2 11.6 C 42.6 11.1 42.2 10.8 42.1 10.7 C 41.1 9.9 40.5 9.3 40 9.1 C 39.5 9.1 39.2 8.8 39.2 8.3 C 39.2 8 39.4 7.8 39.6 7.7 C 39.8 7.5 40.1 7.4 40.4 7.4 C 40.5 7.4 40.6 7.4 40.7 7.4 C 40.8 7.5 40.8 7.5 40.9 7.5 C 41.2 7.5 41.8 7.2 42.6 6.7 C 43.5 6.1 43.9 5.5 43.9 4.8 C 43.9 4.5 43.8 4.2 43.4 3.9 C 43 3.7 42.6 3.6 42 3.6 C 41.4 3.6 40.8 3.6 40.4 3.7 C 40 3.8 39.8 3.8 39.7 3.8 C 39.7 3.9 39.7 4 39.6 4.1 C 39.6 4.2 39.4 4.7 39.3 5.6 C 39.1 6.5 39 7.5 38.8 8.6 C 38.7 9.7 38.6 10.4 38.6 11 C 38.6 11.3 38.6 11.6 38.7 11.8 C 38.7 12.1 38.8 12.3 38.8 12.5 C 38.8 12.7 38.6 12.9 38.4 13.1 C 38.2 13.3 38 13.4 37.7 13.4 C 37.1 13.4 36.7 12.9 36.7 12 C 36.7 11.2 36.8 10.1 37 8.7 C 37.1 7.3 37.3 6.1 37.6 5 C 37.6 4.8 37.6 4.7 37.7 4.5 C 37.66 4.54 37.8 4 37.8 4 Z M 50.2 5.6 C 50.1 6 50 6.4 50 6.7 C 50 6.8 50 7.2 49.9 7.8 C 49.7 8.9 49.6 9.6 49.6 10 C 49.6 10.6 49.6 11.3 49.7 11.9 C 49.8 12.4 49.7 12.7 49.4 12.9 C 49.2 13.1 48.9 13.2 48.7 13.2 C 48.3 13.2 48.1 13.1 47.9 12.8 C 47.8 12.5 47.7 11.9 47.7 11.2 C 47.7 10.7 47.8 9.6 48.1 7.8 C 48.1 7.8 48.5 4.9 48.5 4.9 C 48.6 4.5 48.6 4.1 48.7 3.7 C 48.7 3.2 48.8 2.8 48.9 2.7 C 49 2.6 49.1 2.5 49.4 2.3 C 49.6 2.2 49.7 2.1 49.9 2.1 C 50.2 2.1 50.4 2.2 50.5 2.5 C 50.7 2.7 50.8 3 50.8 3.3 C 50.8 3.3 50.2 5.6 50.2 5.6 Z M 54.5 10.7 C 54.3 10.7 54.2 10.7 54.1 10.6 C 54 10.8 53.7 11.3 53.3 12 C 52.8 12.7 52.5 13.1 52.4 13.2 C 52.2 13.3 52 13.3 51.9 13.3 C 51.7 13.3 51.5 13.2 51.3 13 C 51 12.8 50.9 12.6 50.9 12.4 C 50.9 12.2 51.5 11.2 52.8 9.2 C 53.4 8.2 54.1 7.2 54.6 6.2 C 55.8 4.1 56.5 2.9 56.7 2.6 C 57 2.2 57.2 2 57.5 2 C 57.9 2 58.2 2.2 58.4 2.4 C 58.5 2.4 58.5 2.6 58.5 2.9 C 58.5 3.1 58.5 3.2 58.5 3.3 C 59.4 6.1 60.1 8.1 60.6 9.3 C 61.1 10.4 61.7 11.2 62.2 11.8 C 62.4 12 62.6 12.2 62.7 12.3 C 62.7 12.4 62.7 12.5 62.7 12.6 C 62.7 12.9 62.6 13.1 62.4 13.3 C 62.2 13.5 62 13.6 61.7 13.6 C 61.4 13.6 61 13.4 60.6 13 C 60.2 12.5 59.8 11.9 59.5 11.1 C 59.1 10.4 59 9.9 59 9.9 C 59 9.8 58.9 9.8 58.9 9.8 C 58.6 9.8 58 9.9 57.1 10.1 C 56.2 10.3 55.4 10.5 54.9 10.7 C 54.7 10.7 54.6 10.7 54.5 10.7 C 54.5 10.7 54.5 10.7 54.5 10.7 Z M 57.7 8.4 C 57.9 8.4 58.1 8.3 58.4 8.3 C 58.2 8 57.9 7 57.3 5.2 C 57.2 5 57.2 4.9 57.2 4.9 C 57.2 4.9 55.1 8.9 55.1 8.9 C 55.4 8.8 55.7 8.8 56 8.7 C 56.2 8.7 56.8 8.6 57.7 8.4 C 57.7 8.4 57.7 8.4 57.7 8.4 Z M 63.9 10.5 C 63.9 10.5 64.46 8.03 64.5 8 C 64.9 6 65.1 4.6 65.1 3.9 C 65.1 3.5 65.2 3.2 65.2 3.1 C 65.2 2.9 65.4 2.8 65.5 2.7 C 65.7 2.6 65.9 2.5 66.2 2.5 C 66.3 2.5 66.5 2.5 66.7 2.6 C 66.9 2.7 67.1 3.1 67.2 3.6 C 67.4 4.5 68 5.6 68.8 7 C 69.7 8.5 70.5 9.6 71.2 10.5 C 71.4 9.6 71.6 8.5 71.8 7.1 C 72 6.2 72.1 5.3 72.3 4.6 C 72.4 4 72.4 3.5 72.5 3 C 72.5 2.6 72.6 2.3 72.9 2.1 C 73.1 2 73.3 1.9 73.6 1.9 C 73.8 1.9 74 2 74.1 2.2 C 74.3 2.5 74.3 2.7 74.3 3.1 C 74.3 3.3 74.3 3.7 74.1 4.2 C 73.8 5.4 73.5 6.8 73.2 8.6 C 72.9 10.4 72.7 11.5 72.7 11.7 C 72.7 11.7 72.7 12 72.7 12 C 72.7 12.3 72.7 12.5 72.7 12.6 C 72.6 12.8 72.5 12.9 72.3 13 C 72.1 13.1 71.9 13.2 71.6 13.2 C 71.4 13.2 71.2 13.2 71.2 13.1 C 71.1 13.1 71 13 70.8 12.8 C 70.7 12.7 70.5 12.5 70.4 12.2 C 70.1 11.8 70 11.5 69.8 11.3 C 68.7 9.8 67.5 8.1 66.4 6 C 66.3 6.7 66 8.1 65.7 10.4 C 65.7 10.4 65.6 11 65.6 11 C 65.6 11.3 65.6 11.6 65.5 12.1 C 65.5 12.6 65.4 13 65.1 13.2 C 64.9 13.5 64.7 13.6 64.5 13.6 C 64.2 13.6 63.9 13.5 63.8 13.3 C 63.7 13.2 63.6 12.8 63.6 12.3 C 63.6 11.9 63.7 11.3 63.9 10.6 C 63.9 10.59 63.9 10.5 63.9 10.5 Z M 78.1 10.7 C 77.9 10.7 77.8 10.7 77.7 10.6 C 77.6 10.8 77.3 11.3 76.9 12 C 76.4 12.7 76.1 13.1 76 13.2 C 75.8 13.3 75.6 13.3 75.5 13.3 C 75.3 13.3 75.1 13.2 74.9 13 C 74.6 12.8 74.5 12.6 74.5 12.4 C 74.5 12.2 75.1 11.2 76.4 9.2 C 77 8.2 77.7 7.2 78.2 6.2 C 79.4 4.1 80.1 2.9 80.3 2.6 C 80.6 2.2 80.8 2 81.1 2 C 81.5 2 81.8 2.2 82 2.4 C 82.1 2.4 82.1 2.6 82.1 2.9 C 82.1 3.1 82.1 3.2 82.1 3.3 C 83 6.1 83.7 8.1 84.2 9.3 C 84.7 10.4 85.3 11.2 85.8 11.8 C 86 12 86.2 12.2 86.3 12.3 C 86.3 12.4 86.3 12.5 86.3 12.6 C 86.3 12.9 86.2 13.1 86 13.3 C 85.8 13.5 85.6 13.6 85.3 13.6 C 85 13.6 84.6 13.4 84.2 13 C 83.8 12.5 83.4 11.9 83.1 11.1 C 82.7 10.4 82.6 9.9 82.6 9.9 C 82.6 9.8 82.5 9.8 82.5 9.8 C 82.2 9.8 81.6 9.9 80.7 10.1 C 79.8 10.3 79 10.5 78.5 10.7 C 78.3 10.7 78.2 10.7 78.1 10.7 C 78.1 10.7 78.1 10.7 78.1 10.7 Z M 81.3 8.4 C 81.5 8.4 81.7 8.3 82 8.3 C 81.8 8 81.5 7 80.9 5.2 C 80.8 5 80.8 4.9 80.8 4.9 C 80.8 4.9 78.7 8.9 78.7 8.9 C 79 8.8 79.3 8.8 79.6 8.7 C 79.8 8.7 80.4 8.6 81.3 8.4 C 81.3 8.4 81.3 8.4 81.3 8.4 Z " stroke="none" fill="#000"/>  </g></svg>