<?xml version="1.0" standalone="no"?><!DOCTYPE svg PUBLIC "-//W3C//DTD SVG 1.1//EN" "http://www.w3.org/Graphics/SVG/1.1/DTD/svg11.dtd"><svg xmlns="http://www.w3.org/2000/svg" version="1.1" width="222.2px" height="23.1px" viewBox="0 -5 222.2 23.1" style="top:-5px">  <desc>VANDERLEI@VOTODISTRITAL.COM.BR</desc>  <defs/>  <g class="svg-textframe-underlines">    <rect class="svg-underline" x="0" y="9.2" width="197.7" height="0.5" style="fill:#f4774c;"/>  </g>  <g id="Polygon16347">    <path d="M 7.9 1.8 C 7.9 1.8 7.9 1.8 7.9 1.8 C 7.9 1.8 7.8 2 7.5 2.4 C 7.2 2.9 6.9 3.3 6.6 3.7 C 6.4 4.1 6 4.8 5.4 5.8 C 5 6.4 4.8 6.8 4.7 7 C 4.4 7.4 4.2 7.8 4.1 8 C 4.1 8.2 4 8.3 3.8 8.4 C 3.6 8.5 3.4 8.5 3.2 8.5 C 3 8.5 2.9 8.4 2.8 8.3 C 2.8 8.1 2.6 7.8 2.5 7.4 C 2.3 6.8 2 6.1 1.6 5.2 C 0.9 3.3 0.5 2.3 0.5 2.3 C 0.5 2.2 0.5 2 0.7 1.8 C 0.8 1.6 0.9 1.5 1.1 1.5 C 1.3 1.5 1.4 1.6 1.6 1.7 C 1.7 1.8 1.8 2.1 1.9 2.6 C 2 3 2.2 3.7 2.6 4.7 C 3 5.7 3.3 6.5 3.5 6.9 C 3.6 6.9 3.7 6.7 3.9 6.4 C 3.9 6.3 3.9 6.3 3.9 6.2 C 4.4 5.5 4.8 4.9 5.1 4.3 C 5.6 3.2 6.1 2.5 6.4 2 C 6.8 1.4 7.1 1.2 7.4 1.2 C 7.7 1.2 7.9 1.4 7.9 1.7 C 7.92 1.72 7.9 1.8 7.9 1.8 C 7.9 1.8 7.92 1.76 7.9 1.8 Z M 8.9 7 C 8.8 7 8.7 7 8.6 6.9 C 8.6 7.1 8.4 7.4 8.1 7.8 C 7.8 8.3 7.6 8.6 7.5 8.6 C 7.4 8.7 7.3 8.7 7.2 8.7 C 7.1 8.7 7 8.6 6.8 8.5 C 6.7 8.4 6.6 8.2 6.6 8.1 C 6.6 8 7 7.3 7.8 6 C 8.2 5.4 8.7 4.7 9 4 C 9.8 2.7 10.2 1.9 10.4 1.7 C 10.5 1.4 10.7 1.3 10.9 1.3 C 11.2 1.3 11.4 1.4 11.5 1.6 C 11.5 1.6 11.6 1.7 11.6 1.9 C 11.6 2 11.6 2.1 11.5 2.2 C 12.1 4 12.6 5.3 12.9 6 C 13.3 6.8 13.6 7.3 14 7.7 C 14.1 7.8 14.2 8 14.3 8 C 14.3 8.1 14.3 8.2 14.3 8.3 C 14.3 8.4 14.3 8.6 14.1 8.7 C 14 8.8 13.8 8.9 13.7 8.9 C 13.4 8.9 13.2 8.7 12.9 8.5 C 12.6 8.2 12.4 7.8 12.2 7.3 C 12 6.8 11.8 6.5 11.8 6.4 C 11.8 6.4 11.8 6.4 11.8 6.4 C 11.6 6.4 11.2 6.5 10.6 6.6 C 10 6.7 9.5 6.8 9.2 7 C 9.1 7 9 7 8.9 7 C 8.9 7 8.9 7 8.9 7 Z M 11 5.5 C 11.2 5.5 11.3 5.4 11.5 5.4 C 11.4 5.2 11.1 4.5 10.8 3.4 C 10.7 3.3 10.7 3.2 10.7 3.2 C 10.7 3.2 9.3 5.8 9.3 5.8 C 9.5 5.8 9.7 5.7 9.9 5.7 C 10.1 5.7 10.4 5.6 11 5.5 C 11 5.5 11 5.5 11 5.5 Z M 15.3 6.9 C 15.3 6.9 15.63 5.24 15.6 5.2 C 15.9 3.9 16.1 3 16.1 2.5 C 16.1 2.3 16.1 2.1 16.1 2 C 16.1 1.9 16.2 1.8 16.3 1.8 C 16.5 1.7 16.6 1.6 16.8 1.6 C 16.9 1.6 17 1.7 17.1 1.7 C 17.2 1.8 17.3 2 17.4 2.3 C 17.6 2.9 17.9 3.7 18.5 4.6 C 19.1 5.5 19.6 6.3 20 6.8 C 20.2 6.3 20.3 5.6 20.4 4.7 C 20.5 4 20.6 3.5 20.7 3 C 20.8 2.6 20.9 2.3 20.9 2 C 20.9 1.7 21 1.5 21.1 1.4 C 21.3 1.3 21.4 1.2 21.6 1.2 C 21.7 1.2 21.8 1.3 21.9 1.5 C 22 1.6 22.1 1.8 22.1 2 C 22.1 2.2 22 2.4 21.9 2.8 C 21.7 3.5 21.5 4.5 21.3 5.6 C 21.1 6.8 21 7.5 21 7.7 C 21 7.7 21 7.8 21 7.8 C 21 8 21 8.2 21 8.2 C 21 8.3 20.9 8.4 20.8 8.5 C 20.6 8.6 20.5 8.6 20.3 8.6 C 20.1 8.6 20.1 8.6 20 8.6 C 20 8.6 19.9 8.5 19.8 8.4 C 19.7 8.3 19.6 8.1 19.5 8 C 19.3 7.7 19.2 7.5 19.2 7.4 C 18.4 6.4 17.6 5.3 16.9 3.9 C 16.8 4.3 16.7 5.3 16.5 6.8 C 16.5 6.8 16.4 7.2 16.4 7.2 C 16.4 7.4 16.4 7.6 16.3 7.9 C 16.3 8.2 16.2 8.5 16.1 8.6 C 15.9 8.8 15.8 8.9 15.7 8.9 C 15.5 8.9 15.3 8.8 15.2 8.7 C 15.1 8.6 15.1 8.4 15.1 8 C 15.1 7.8 15.1 7.4 15.3 6.9 C 15.27 6.92 15.3 6.9 15.3 6.9 Z M 23.4 7.7 C 23.5 7.6 23.5 7.3 23.5 6.9 C 23.6 5.7 23.7 4.5 23.9 3.3 C 24 3 24 2.8 24 2.7 C 24 2.6 24 2.6 23.9 2.6 C 23.6 2.5 23.4 2.4 23.4 2.1 C 23.4 2 23.5 1.8 23.6 1.7 C 23.8 1.6 23.9 1.5 24.1 1.5 C 24.1 1.5 24.7 1.5 24.7 1.5 C 25 1.5 25.4 1.5 26 1.4 C 26.4 1.4 26.8 1.4 27.1 1.4 C 28 1.4 28.7 1.6 29.3 2.2 C 29.8 2.7 30.1 3.3 30.1 4.2 C 30.1 5.1 29.7 6 28.8 6.7 C 27.9 7.5 26.9 8 25.7 8.3 C 25.3 8.3 25.1 8.4 25 8.5 C 24.8 8.5 24.7 8.6 24.5 8.7 C 24.3 8.9 24.1 8.9 23.8 8.9 C 23.7 8.9 23.5 8.9 23.4 8.7 C 23.3 8.5 23.2 8.4 23.2 8.3 C 23.2 8.2 23.2 8.1 23.3 8 C 23.3 8 23.4 7.7 23.4 7.7 Z M 24.7 7.1 C 24.7 7.3 24.7 7.4 24.7 7.5 C 24.9 7.5 25.4 7.3 26.2 7.1 C 27 6.8 27.7 6.4 28.2 5.9 C 28.7 5.4 28.9 4.8 28.9 4.1 C 28.9 3.6 28.7 3.2 28.4 2.8 C 28 2.5 27.5 2.4 26.9 2.4 C 26.5 2.4 26 2.4 25.4 2.5 C 25.3 2.5 25.2 2.5 25.2 2.5 C 24.8 4.7 24.7 6.2 24.7 7.1 C 24.7 7.1 24.7 7.1 24.7 7.1 Z M 36.7 2.4 C 36.7 2.4 35.1 2.5 35.1 2.5 C 34.6 2.5 34.2 2.6 33.8 2.7 C 33.4 2.7 33.2 2.8 33.2 2.8 C 33.2 2.8 33.1 2.9 33.1 3.1 C 33.1 3.3 33 3.6 32.9 4 C 32.9 4.3 32.8 4.5 32.8 4.7 C 33 4.7 33.3 4.7 33.7 4.7 C 34.1 4.6 34.4 4.6 34.5 4.5 C 35 4.4 35.4 4.4 35.6 4.4 C 36.1 4.4 36.4 4.5 36.4 4.8 C 36.4 5.1 36.3 5.2 36.2 5.3 C 36 5.4 35.8 5.4 35.5 5.5 C 35.3 5.5 35.1 5.5 34.9 5.6 C 34.7 5.6 34.6 5.6 34.4 5.6 C 33.5 5.7 33 5.8 32.8 5.9 C 32.8 5.9 32.8 5.9 32.8 5.9 C 32.7 5.9 32.7 5.9 32.7 6 C 32.6 6 32.6 6.3 32.5 6.7 C 32.4 7.1 32.4 7.4 32.4 7.6 C 32.4 7.7 32.5 7.8 32.6 7.8 C 32.8 7.8 33.2 7.7 33.9 7.6 C 34.5 7.6 34.9 7.5 35.1 7.5 C 35.6 7.4 35.8 7.3 36 7.3 C 36.4 7.4 36.6 7.6 36.6 7.9 C 36.6 8.1 36.6 8.2 36.5 8.2 C 36.1 8.4 35.7 8.5 35.1 8.5 C 34.7 8.5 34.1 8.6 33.5 8.7 C 32.9 8.8 32.4 8.9 31.9 8.9 C 31.6 8.9 31.4 8.8 31.3 8.7 C 31.2 8.6 31.1 8.4 31.1 8.2 C 31.1 8.2 31.1 8 31.1 8 C 31.1 8 31.1 7.9 31.2 7.7 C 31.3 7.3 31.5 6.4 31.6 5 C 31.8 3.7 31.9 2.9 31.9 2.7 C 31.9 2.7 31.9 2.7 31.9 2.7 C 31.9 2.7 31.8 2.6 31.8 2.5 C 31.7 2.4 31.7 2.3 31.7 2.2 C 31.7 2.1 31.7 2.1 31.7 2 C 31.7 2 31.8 1.9 31.9 1.8 C 32.1 1.8 32.2 1.7 32.3 1.7 C 32.4 1.7 32.6 1.7 32.8 1.8 C 33 1.8 33.9 1.7 35.4 1.5 C 35.9 1.4 36.1 1.4 36.2 1.4 C 36.2 1.4 36.2 1.4 36.2 1.4 C 36.8 1.3 37.1 1.5 37.1 1.9 C 37.1 2 37.1 2.1 37 2.2 C 36.8 2.3 36.7 2.4 36.7 2.4 Z M 38.6 2.6 C 38.6 2.6 38.52 2.5 38.5 2.5 C 38.4 2.3 38.4 2.2 38.4 2.1 C 38.4 2 38.4 1.8 38.6 1.7 C 38.8 1.6 38.9 1.6 39 1.6 C 39.1 1.6 39.2 1.6 39.3 1.6 C 39.4 1.6 39.4 1.6 39.4 1.6 C 40.4 1.4 41.1 1.4 41.5 1.4 C 42.2 1.4 42.7 1.5 43.2 1.9 C 43.6 2.2 43.8 2.6 43.8 3.2 C 43.8 3.6 43.6 4.1 43.2 4.5 C 42.8 5 42.2 5.3 41.5 5.6 C 42.7 6.5 43.6 7.2 44.2 7.5 C 44.4 7.7 44.5 7.8 44.5 8 C 44.5 8.1 44.4 8.3 44.2 8.4 C 44.1 8.5 44 8.6 43.8 8.6 C 43.6 8.6 43.4 8.5 43.2 8.4 C 42.9 8.2 42.6 7.9 42.2 7.6 C 41.7 7.2 41.5 7 41.4 7 C 40.8 6.4 40.3 6.1 40.1 5.9 C 39.7 5.9 39.5 5.8 39.5 5.4 C 39.5 5.3 39.6 5.1 39.8 5 C 39.9 4.9 40.1 4.8 40.3 4.8 C 40.4 4.8 40.4 4.8 40.5 4.9 C 40.5 4.9 40.6 4.9 40.6 4.9 C 40.8 4.9 41.2 4.7 41.8 4.4 C 42.3 4 42.6 3.6 42.6 3.2 C 42.6 2.9 42.5 2.7 42.3 2.6 C 42 2.4 41.7 2.3 41.4 2.3 C 40.9 2.3 40.6 2.4 40.3 2.4 C 40 2.5 39.9 2.5 39.9 2.5 C 39.9 2.5 39.8 2.6 39.8 2.7 C 39.8 2.7 39.7 3.1 39.6 3.7 C 39.5 4.3 39.4 4.9 39.3 5.6 C 39.2 6.3 39.1 6.8 39.1 7.2 C 39.1 7.4 39.2 7.6 39.2 7.7 C 39.2 7.9 39.2 8 39.2 8.2 C 39.2 8.3 39.2 8.4 39 8.5 C 38.9 8.7 38.7 8.7 38.6 8.7 C 38.1 8.7 37.9 8.4 37.9 7.8 C 37.9 7.3 37.9 6.6 38.1 5.7 C 38.2 4.8 38.3 4 38.5 3.3 C 38.5 3.2 38.5 3.1 38.5 3 C 38.52 2.96 38.6 2.6 38.6 2.6 Z M 49.9 8.3 C 49.8 8.3 49.7 8.3 49.5 8.2 C 49.3 8.2 49.2 8.2 49.1 8.2 C 48.2 8.2 47.3 8.3 46.5 8.6 C 46.1 8.7 45.9 8.8 45.7 8.8 C 45.5 8.8 45.4 8.7 45.3 8.5 C 45.2 8.4 45.1 8.2 45.1 8.1 C 45.1 8 45.1 7.9 45.2 7.6 C 45.3 7.3 45.3 7 45.4 6.6 C 45.4 6.6 45.8 2.6 45.8 2.6 C 45.9 2.2 45.9 1.9 45.9 1.8 C 45.9 1.7 46 1.6 46.1 1.5 C 46.2 1.4 46.4 1.4 46.6 1.4 C 46.8 1.4 46.9 1.4 47 1.5 C 47.1 1.7 47.2 1.8 47.2 1.9 C 47.2 2.1 47.2 2.3 47.1 2.6 C 47 3 46.9 3.9 46.7 5.2 C 46.6 6.5 46.5 7.2 46.5 7.3 C 46.5 7.4 46.5 7.4 46.6 7.4 C 46.7 7.4 47 7.4 47.6 7.3 C 47.8 7.2 48.1 7.2 48.4 7.2 C 49.1 7.2 49.7 7.1 50 7 C 50.1 7 50.1 7 50.2 7 C 50.4 7 50.5 7.1 50.6 7.2 C 50.7 7.3 50.8 7.4 50.8 7.5 C 50.8 7.8 50.7 7.9 50.5 8.1 C 50.3 8.2 50.1 8.3 49.9 8.3 Z M 57 2.4 C 57 2.4 55.5 2.5 55.5 2.5 C 55 2.5 54.5 2.6 54.2 2.7 C 53.8 2.7 53.6 2.8 53.5 2.8 C 53.5 2.8 53.5 2.9 53.5 3.1 C 53.5 3.3 53.4 3.6 53.3 4 C 53.2 4.3 53.2 4.5 53.2 4.7 C 53.4 4.7 53.7 4.7 54.1 4.7 C 54.4 4.6 54.7 4.6 54.9 4.5 C 55.4 4.4 55.7 4.4 56 4.4 C 56.5 4.4 56.7 4.5 56.7 4.8 C 56.7 5.1 56.7 5.2 56.5 5.3 C 56.4 5.4 56.2 5.4 55.9 5.5 C 55.7 5.5 55.5 5.5 55.2 5.6 C 55.1 5.6 54.9 5.6 54.8 5.6 C 53.9 5.7 53.3 5.8 53.2 5.9 C 53.2 5.9 53.2 5.9 53.2 5.9 C 53.1 5.9 53.1 5.9 53 6 C 53 6 53 6.3 52.9 6.7 C 52.8 7.1 52.8 7.4 52.8 7.6 C 52.8 7.7 52.9 7.8 53 7.8 C 53.2 7.8 53.6 7.7 54.2 7.6 C 54.9 7.6 55.3 7.5 55.5 7.5 C 55.9 7.4 56.2 7.3 56.3 7.3 C 56.8 7.4 57 7.6 57 7.9 C 57 8.1 56.9 8.2 56.8 8.2 C 56.5 8.4 56 8.5 55.5 8.5 C 55 8.5 54.5 8.6 53.8 8.7 C 53.3 8.8 52.7 8.9 52.2 8.9 C 52 8.9 51.8 8.8 51.7 8.7 C 51.6 8.6 51.5 8.4 51.5 8.2 C 51.5 8.2 51.5 8 51.5 8 C 51.4 8 51.5 7.9 51.5 7.7 C 51.7 7.3 51.8 6.4 52 5 C 52.2 3.7 52.3 2.9 52.3 2.7 C 52.3 2.7 52.3 2.7 52.3 2.7 C 52.2 2.7 52.2 2.6 52.2 2.5 C 52.1 2.4 52.1 2.3 52.1 2.2 C 52.1 2.1 52.1 2.1 52.1 2 C 52.1 2 52.2 1.9 52.3 1.8 C 52.4 1.8 52.5 1.7 52.7 1.7 C 52.8 1.7 53 1.7 53.1 1.8 C 53.4 1.8 54.3 1.7 55.8 1.5 C 56.3 1.4 56.5 1.4 56.5 1.4 C 56.5 1.4 56.6 1.4 56.6 1.4 C 57.2 1.3 57.5 1.5 57.5 1.9 C 57.5 2 57.4 2.1 57.3 2.2 C 57.2 2.3 57.1 2.4 57 2.4 Z M 60 3.7 C 59.9 3.9 59.9 4.2 59.9 4.4 C 59.9 4.5 59.8 4.7 59.8 5.1 C 59.7 5.8 59.6 6.3 59.6 6.5 C 59.6 6.9 59.6 7.4 59.7 7.8 C 59.7 8.1 59.7 8.3 59.5 8.4 C 59.3 8.6 59.2 8.7 59 8.7 C 58.8 8.7 58.6 8.6 58.5 8.4 C 58.4 8.2 58.4 7.8 58.4 7.3 C 58.4 7 58.5 6.3 58.6 5.1 C 58.6 5.1 58.9 3.2 58.9 3.2 C 58.9 2.9 59 2.7 59 2.4 C 59 2.1 59.1 1.9 59.1 1.8 C 59.2 1.7 59.3 1.6 59.4 1.5 C 59.6 1.4 59.7 1.4 59.8 1.4 C 60 1.4 60.1 1.4 60.2 1.6 C 60.3 1.8 60.4 1.9 60.4 2.2 C 60.4 2.2 60 3.7 60 3.7 Z M 66.5 6.5 C 66.2 6.5 65.9 6.4 65.7 6.2 C 65.5 6.3 65.2 6.4 64.9 6.6 C 64.6 6.7 64.3 6.7 64.1 6.7 C 63.9 6.7 63.6 6.6 63.4 6.4 C 63.2 6.2 63 6 63 5.8 C 63 5.3 63.3 4.7 63.8 4.1 C 64.3 3.5 64.7 3.2 65.1 3.2 C 65.5 3.2 65.8 3.3 66 3.4 C 66.1 3.5 66.2 3.6 66.2 3.8 C 66.2 3.8 66.2 3.8 66.2 3.8 C 66.3 3.8 66.3 3.8 66.4 3.8 C 66.7 3.8 66.8 3.9 66.8 4.2 C 66.8 4.3 66.7 4.5 66.6 4.8 C 66.5 5 66.4 5.2 66.4 5.4 C 66.4 5.5 66.5 5.5 66.6 5.5 C 66.8 5.5 67 5.4 67.2 5.1 C 67.4 4.8 67.5 4.6 67.5 4.3 C 67.5 4 67.4 3.6 67.2 3.2 C 67.1 3.1 67 3 67 2.9 C 66.9 2.6 66.6 2.4 66.4 2.3 C 66.1 2.1 65.8 2 65.7 2 C 65.2 2 64.6 2.3 64 2.7 C 63.4 3.2 62.9 3.7 62.6 4.5 C 62.3 5.2 62.2 5.8 62.2 6.2 C 62.2 6.5 62.4 6.9 62.9 7.3 C 63.4 7.6 64 7.8 64.7 7.8 C 65.1 7.8 65.5 7.7 66 7.6 C 66.5 7.5 67 7.3 67.3 7.1 C 67.6 6.8 67.8 6.7 67.9 6.7 C 68 6.7 68.1 6.8 68.2 6.8 C 68.3 6.9 68.3 7 68.3 7 C 68.3 7.2 68.3 7.4 68.2 7.5 C 67.9 7.9 67.3 8.2 66.6 8.4 C 65.8 8.6 65.1 8.7 64.4 8.7 C 63.6 8.7 62.9 8.4 62.2 8 C 61.5 7.5 61.2 6.9 61.2 6.2 C 61.2 5.8 61.3 5.1 61.7 4.2 C 62 3.4 62.6 2.6 63.3 2.1 C 64 1.5 64.8 1.2 65.6 1.2 C 66.2 1.2 66.7 1.4 67.1 1.7 C 67.6 2 67.9 2.5 68.1 2.9 C 68.4 3.4 68.5 3.9 68.5 4.3 C 68.5 4.7 68.3 5.1 68.1 5.5 C 67.8 5.9 67.5 6.2 67.2 6.3 C 66.8 6.4 66.6 6.5 66.5 6.5 C 66.5 6.5 66.5 6.5 66.5 6.5 Z M 65.5 4.2 C 65.5 4.2 65.5 4.2 65.5 4.2 C 65.4 4.2 65.4 4.1 65.4 4.1 C 65.1 4.2 64.8 4.4 64.5 4.8 C 64.3 5.2 64.1 5.5 64.1 5.6 C 64.1 5.7 64.2 5.8 64.2 5.8 C 64.3 5.8 64.4 5.8 64.5 5.8 C 64.6 5.8 64.7 5.7 65 5.6 C 65.2 5.5 65.4 5.3 65.4 5.3 C 65.4 5.3 65.3 4.8 65.3 4.8 C 65.3 4.7 65.4 4.6 65.4 4.5 C 65.5 4.3 65.5 4.2 65.5 4.2 Z M 76.9 1.8 C 76.9 1.8 76.9 1.8 76.9 1.8 C 76.9 1.8 76.8 2 76.5 2.4 C 76.1 2.9 75.8 3.3 75.6 3.7 C 75.4 4.1 75 4.8 74.4 5.8 C 74 6.4 73.7 6.8 73.6 7 C 73.3 7.4 73.1 7.8 73.1 8 C 73 8.2 72.9 8.3 72.7 8.4 C 72.6 8.5 72.4 8.5 72.1 8.5 C 72 8.5 71.9 8.4 71.8 8.3 C 71.7 8.1 71.6 7.8 71.4 7.4 C 71.2 6.8 70.9 6.1 70.6 5.2 C 69.8 3.3 69.4 2.3 69.4 2.3 C 69.4 2.2 69.5 2 69.6 1.8 C 69.7 1.6 69.9 1.5 70.1 1.5 C 70.3 1.5 70.4 1.6 70.5 1.7 C 70.6 1.8 70.8 2.1 70.9 2.6 C 70.9 3 71.2 3.7 71.6 4.7 C 72 5.7 72.3 6.5 72.5 6.9 C 72.5 6.9 72.6 6.7 72.8 6.4 C 72.9 6.3 72.9 6.3 72.9 6.2 C 73.3 5.5 73.7 4.9 74 4.3 C 74.6 3.2 75 2.5 75.4 2 C 75.8 1.4 76.1 1.2 76.3 1.2 C 76.7 1.2 76.9 1.4 76.9 1.7 C 76.87 1.72 76.9 1.8 76.9 1.8 C 76.9 1.8 76.87 1.76 76.9 1.8 Z M 78.6 8.8 C 78.1 8.8 77.6 8.6 77.1 8 C 76.7 7.5 76.5 7 76.5 6.4 C 76.5 5.7 76.7 5 77.1 4.2 C 77.5 3.3 78 2.7 78.7 2.1 C 79.3 1.6 80 1.4 80.7 1.4 C 81.2 1.4 81.7 1.4 82 1.5 C 82.4 1.7 82.7 1.9 83 2.1 C 83.3 2.4 83.5 2.6 83.6 2.9 C 83.7 3.2 83.8 3.5 83.8 4 C 83.8 4.4 83.6 4.9 83.4 5.5 C 83.1 6.1 82.7 6.7 82.2 7.2 C 81.7 7.7 81.2 8.1 80.7 8.4 C 80.1 8.7 79.5 8.8 78.6 8.8 Z M 77.7 6.4 C 77.7 6.8 77.9 7.1 78.1 7.4 C 78.3 7.6 78.6 7.8 78.9 7.8 C 79.8 7.8 80.6 7.3 81.4 6.5 C 82.1 5.7 82.5 4.8 82.5 3.8 C 82.5 3.5 82.5 3.2 82.3 3 C 82.2 2.8 82 2.7 81.7 2.5 C 81.4 2.4 81.1 2.3 80.7 2.3 C 80.1 2.3 79.4 2.8 78.8 3.7 C 78.1 4.6 77.7 5.5 77.7 6.4 Z M 90.2 2.5 C 89.3 2.5 88.8 2.6 88.5 2.7 C 88.4 2.7 88.4 2.8 88.4 2.9 C 88.4 3 88.3 3.6 88.2 4.6 C 88.1 5.6 88 6.4 88 7 C 88 7.2 88 7.5 88.1 7.8 C 88.1 7.9 88.1 7.9 88.1 8 C 88.1 8.2 88.1 8.3 88 8.5 C 87.9 8.6 87.7 8.7 87.6 8.7 C 87.5 8.7 87.3 8.6 87.2 8.5 C 87 8.4 86.9 8.2 86.9 8 C 86.8 7.7 86.8 7.4 86.8 7 C 86.8 6.4 86.9 5.6 87 4.5 C 87.2 3.4 87.2 2.8 87.3 2.8 C 87.2 2.8 86.8 2.8 86.2 2.9 C 85.5 2.9 85.1 3 85 3 C 84.7 3 84.5 2.9 84.3 2.8 C 84.2 2.7 84.2 2.6 84.2 2.4 C 84.2 2.3 84.2 2.1 84.4 2 C 84.5 2 84.8 1.9 85.4 1.9 C 86.3 1.9 87.3 1.8 88.2 1.7 C 89.2 1.6 90 1.5 90.5 1.5 C 91.1 1.5 91.4 1.6 91.5 1.7 C 91.7 1.8 91.7 2 91.7 2.1 C 91.7 2.4 91.6 2.6 91.3 2.6 C 91.2 2.6 91.1 2.6 90.9 2.6 C 90.7 2.5 90.4 2.5 90.2 2.5 C 90.2 2.5 90.2 2.5 90.2 2.5 Z M 93.3 8.8 C 92.8 8.8 92.3 8.6 91.9 8 C 91.5 7.5 91.2 7 91.2 6.4 C 91.2 5.7 91.4 5 91.9 4.2 C 92.3 3.3 92.8 2.7 93.4 2.1 C 94.1 1.6 94.7 1.4 95.4 1.4 C 96 1.4 96.4 1.4 96.8 1.5 C 97.1 1.7 97.5 1.9 97.8 2.1 C 98.1 2.4 98.3 2.6 98.4 2.9 C 98.5 3.2 98.5 3.5 98.5 4 C 98.5 4.4 98.4 4.9 98.1 5.5 C 97.8 6.1 97.5 6.7 97 7.2 C 96.4 7.7 95.9 8.1 95.4 8.4 C 94.9 8.7 94.2 8.8 93.3 8.8 Z M 92.5 6.4 C 92.5 6.8 92.6 7.1 92.8 7.4 C 93.1 7.6 93.3 7.8 93.7 7.8 C 94.5 7.8 95.3 7.3 96.1 6.5 C 96.9 5.7 97.3 4.8 97.3 3.8 C 97.3 3.5 97.2 3.2 97.1 3 C 96.9 2.8 96.7 2.7 96.4 2.5 C 96.1 2.4 95.8 2.3 95.4 2.3 C 94.8 2.3 94.2 2.8 93.5 3.7 C 92.8 4.6 92.5 5.5 92.5 6.4 Z M 99.7 7.7 C 99.7 7.6 99.8 7.3 99.8 6.9 C 99.9 5.7 100 4.5 100.2 3.3 C 100.3 3 100.3 2.8 100.3 2.7 C 100.3 2.6 100.3 2.6 100.2 2.6 C 99.9 2.5 99.7 2.4 99.7 2.1 C 99.7 2 99.8 1.8 99.9 1.7 C 100 1.6 100.2 1.5 100.4 1.5 C 100.4 1.5 101 1.5 101 1.5 C 101.3 1.5 101.7 1.5 102.3 1.4 C 102.7 1.4 103.1 1.4 103.3 1.4 C 104.2 1.4 105 1.6 105.5 2.2 C 106.1 2.7 106.4 3.3 106.4 4.2 C 106.4 5.1 106 6 105.1 6.7 C 104.2 7.5 103.2 8 101.9 8.3 C 101.6 8.3 101.4 8.4 101.3 8.5 C 101.1 8.5 101 8.6 100.8 8.7 C 100.6 8.9 100.3 8.9 100.1 8.9 C 100 8.9 99.8 8.9 99.7 8.7 C 99.6 8.5 99.5 8.4 99.5 8.3 C 99.5 8.2 99.5 8.1 99.6 8 C 99.6 8 99.7 7.7 99.7 7.7 Z M 101 7.1 C 101 7.3 101 7.4 101 7.5 C 101.2 7.5 101.6 7.3 102.5 7.1 C 103.3 6.8 103.9 6.4 104.4 5.9 C 105 5.4 105.2 4.8 105.2 4.1 C 105.2 3.6 105 3.2 104.6 2.8 C 104.3 2.5 103.8 2.4 103.2 2.4 C 102.8 2.4 102.3 2.4 101.7 2.5 C 101.6 2.5 101.5 2.5 101.5 2.5 C 101.1 4.7 101 6.2 101 7.1 C 101 7.1 101 7.1 101 7.1 Z M 109.1 3.7 C 109 3.9 109 4.2 109 4.4 C 109 4.5 108.9 4.7 108.9 5.1 C 108.8 5.8 108.7 6.3 108.7 6.5 C 108.7 6.9 108.7 7.4 108.8 7.8 C 108.8 8.1 108.8 8.3 108.6 8.4 C 108.4 8.6 108.3 8.7 108.1 8.7 C 107.9 8.7 107.7 8.6 107.6 8.4 C 107.5 8.2 107.5 7.8 107.5 7.3 C 107.5 7 107.6 6.3 107.7 5.1 C 107.7 5.1 108 3.2 108 3.2 C 108 2.9 108.1 2.7 108.1 2.4 C 108.1 2.1 108.2 1.9 108.2 1.8 C 108.3 1.7 108.4 1.6 108.5 1.5 C 108.7 1.4 108.8 1.4 108.9 1.4 C 109.1 1.4 109.2 1.4 109.3 1.6 C 109.4 1.8 109.5 1.9 109.5 2.2 C 109.5 2.2 109.1 3.7 109.1 3.7 Z M 116 2.4 C 116 3 115.6 3.2 115 3.2 C 115 2.9 114.9 2.7 114.8 2.6 C 114.6 2.5 114.4 2.4 114 2.4 C 113.5 2.4 113 2.5 112.5 2.8 C 112 3.1 111.8 3.4 111.8 3.7 C 111.8 3.9 111.9 4.1 112.1 4.2 C 112.2 4.3 112.7 4.5 113.4 4.7 C 114.2 5 114.8 5.2 115.2 5.5 C 115.5 5.7 115.7 6.1 115.7 6.5 C 115.7 7.1 115.2 7.7 114.3 8.2 C 113.3 8.7 112.3 9 111.3 9 C 111 9 110.7 8.9 110.5 8.8 C 110.3 8.6 110.2 8.4 110.2 8.2 C 110.2 8.1 110.2 7.9 110.3 7.8 C 110.4 7.6 110.5 7.6 110.7 7.6 C 110.7 7.6 110.8 7.6 110.9 7.6 C 111.2 7.8 111.5 7.8 111.8 7.8 C 112.3 7.8 112.9 7.7 113.5 7.4 C 114.2 7.1 114.5 6.8 114.5 6.6 C 114.5 6.4 114.4 6.3 114.3 6.2 C 114.1 6.1 113.8 6 113.3 5.8 C 112.6 5.6 112.1 5.4 111.7 5.3 C 111.3 5.1 111.1 4.9 110.9 4.7 C 110.7 4.4 110.6 4.1 110.6 3.8 C 110.6 3.2 111 2.6 111.7 2.1 C 112.4 1.6 113.2 1.3 114.2 1.3 C 114.7 1.3 115.2 1.4 115.5 1.6 C 115.8 1.9 116 2.1 116 2.4 C 116 2.4 116 2.4 116 2.4 Z M 122.3 2.5 C 121.5 2.5 120.9 2.6 120.6 2.7 C 120.6 2.7 120.6 2.8 120.5 2.9 C 120.5 3 120.4 3.6 120.3 4.6 C 120.2 5.6 120.2 6.4 120.2 7 C 120.2 7.2 120.2 7.5 120.3 7.8 C 120.3 7.9 120.3 7.9 120.3 8 C 120.3 8.2 120.2 8.3 120.1 8.5 C 120 8.6 119.9 8.7 119.7 8.7 C 119.6 8.7 119.5 8.6 119.3 8.5 C 119.2 8.4 119.1 8.2 119 8 C 119 7.7 119 7.4 119 7 C 119 6.4 119 5.6 119.2 4.5 C 119.3 3.4 119.4 2.8 119.4 2.8 C 119.3 2.8 119 2.8 118.3 2.9 C 117.7 2.9 117.3 3 117.2 3 C 116.9 3 116.6 2.9 116.5 2.8 C 116.4 2.7 116.3 2.6 116.3 2.4 C 116.3 2.3 116.4 2.1 116.5 2 C 116.7 2 117 1.9 117.6 1.9 C 118.5 1.9 119.4 1.8 120.3 1.7 C 121.3 1.6 122.1 1.5 122.6 1.5 C 123.2 1.5 123.6 1.6 123.7 1.7 C 123.8 1.8 123.9 2 123.9 2.1 C 123.9 2.4 123.8 2.6 123.5 2.6 C 123.4 2.6 123.2 2.6 123 2.6 C 122.8 2.5 122.6 2.5 122.3 2.5 C 122.3 2.5 122.3 2.5 122.3 2.5 Z M 124.3 2.6 C 124.3 2.6 124.2 2.5 124.2 2.5 C 124.1 2.3 124 2.2 124 2.1 C 124 2 124.1 1.8 124.3 1.7 C 124.4 1.6 124.6 1.6 124.7 1.6 C 124.8 1.6 124.9 1.6 124.9 1.6 C 125 1.6 125.1 1.6 125.1 1.6 C 126.1 1.4 126.7 1.4 127.1 1.4 C 127.9 1.4 128.4 1.5 128.9 1.9 C 129.3 2.2 129.5 2.6 129.5 3.2 C 129.5 3.6 129.3 4.1 128.9 4.5 C 128.4 5 127.9 5.3 127.2 5.6 C 128.4 6.5 129.2 7.2 129.8 7.5 C 130 7.7 130.2 7.8 130.2 8 C 130.2 8.1 130.1 8.3 129.9 8.4 C 129.8 8.5 129.6 8.6 129.5 8.6 C 129.3 8.6 129.1 8.5 128.9 8.4 C 128.6 8.2 128.3 7.9 127.8 7.6 C 127.4 7.2 127.2 7 127.1 7 C 126.5 6.4 126 6.1 125.7 5.9 C 125.4 5.9 125.2 5.8 125.2 5.4 C 125.2 5.3 125.3 5.1 125.5 5 C 125.6 4.9 125.8 4.8 126 4.8 C 126 4.8 126.1 4.8 126.2 4.9 C 126.2 4.9 126.3 4.9 126.3 4.9 C 126.5 4.9 126.9 4.7 127.5 4.4 C 128 4 128.3 3.6 128.3 3.2 C 128.3 2.9 128.2 2.7 127.9 2.6 C 127.7 2.4 127.4 2.3 127 2.3 C 126.6 2.3 126.3 2.4 126 2.4 C 125.7 2.5 125.6 2.5 125.6 2.5 C 125.5 2.5 125.5 2.6 125.5 2.7 C 125.4 2.7 125.4 3.1 125.3 3.7 C 125.1 4.3 125 4.9 125 5.6 C 124.9 6.3 124.8 6.8 124.8 7.2 C 124.8 7.4 124.8 7.6 124.9 7.7 C 124.9 7.9 124.9 8 124.9 8.2 C 124.9 8.3 124.8 8.4 124.7 8.5 C 124.6 8.7 124.4 8.7 124.3 8.7 C 123.8 8.7 123.6 8.4 123.6 7.8 C 123.6 7.3 123.6 6.6 123.7 5.7 C 123.9 4.8 124 4 124.1 3.3 C 124.2 3.2 124.2 3.1 124.2 3 C 124.2 2.96 124.3 2.6 124.3 2.6 Z M 132.6 3.7 C 132.5 3.9 132.5 4.2 132.5 4.4 C 132.5 4.5 132.4 4.7 132.4 5.1 C 132.3 5.8 132.2 6.3 132.2 6.5 C 132.2 6.9 132.2 7.4 132.3 7.8 C 132.3 8.1 132.3 8.3 132.1 8.4 C 131.9 8.6 131.8 8.7 131.6 8.7 C 131.4 8.7 131.2 8.6 131.1 8.4 C 131 8.2 131 7.8 131 7.3 C 131 7 131 6.3 131.2 5.1 C 131.2 5.1 131.5 3.2 131.5 3.2 C 131.5 2.9 131.6 2.7 131.6 2.4 C 131.6 2.1 131.7 1.9 131.7 1.8 C 131.8 1.7 131.9 1.6 132 1.5 C 132.2 1.4 132.3 1.4 132.4 1.4 C 132.6 1.4 132.7 1.4 132.8 1.6 C 132.9 1.8 132.9 1.9 132.9 2.2 C 132.9 2.2 132.6 3.7 132.6 3.7 Z M 139.4 2.5 C 138.6 2.5 138 2.6 137.7 2.7 C 137.7 2.7 137.7 2.8 137.7 2.9 C 137.6 3 137.6 3.6 137.5 4.6 C 137.3 5.6 137.3 6.4 137.3 7 C 137.3 7.2 137.3 7.5 137.4 7.8 C 137.4 7.9 137.4 7.9 137.4 8 C 137.4 8.2 137.4 8.3 137.2 8.5 C 137.1 8.6 137 8.7 136.9 8.7 C 136.7 8.7 136.6 8.6 136.4 8.5 C 136.3 8.4 136.2 8.2 136.2 8 C 136.1 7.7 136.1 7.4 136.1 7 C 136.1 6.4 136.2 5.6 136.3 4.5 C 136.4 3.4 136.5 2.8 136.5 2.8 C 136.4 2.8 136.1 2.8 135.4 2.9 C 134.8 2.9 134.4 3 134.3 3 C 134 3 133.8 2.9 133.6 2.8 C 133.5 2.7 133.4 2.6 133.4 2.4 C 133.4 2.3 133.5 2.1 133.6 2 C 133.8 2 134.1 1.9 134.7 1.9 C 135.6 1.9 136.5 1.8 137.4 1.7 C 138.5 1.6 139.2 1.5 139.8 1.5 C 140.3 1.5 140.7 1.6 140.8 1.7 C 141 1.8 141 2 141 2.1 C 141 2.4 140.9 2.6 140.6 2.6 C 140.5 2.6 140.4 2.6 140.2 2.6 C 140 2.5 139.7 2.5 139.4 2.5 C 139.4 2.5 139.4 2.5 139.4 2.5 Z M 141.9 7 C 141.8 7 141.7 7 141.6 6.9 C 141.6 7.1 141.4 7.4 141.1 7.8 C 140.8 8.3 140.6 8.6 140.5 8.6 C 140.4 8.7 140.3 8.7 140.2 8.7 C 140.1 8.7 140 8.6 139.8 8.5 C 139.6 8.4 139.5 8.2 139.5 8.1 C 139.5 8 140 7.3 140.8 6 C 141.2 5.4 141.6 4.7 142 4 C 142.7 2.7 143.2 1.9 143.3 1.7 C 143.5 1.4 143.7 1.3 143.9 1.3 C 144.1 1.3 144.3 1.4 144.5 1.6 C 144.5 1.6 144.5 1.7 144.5 1.9 C 144.5 2 144.5 2.1 144.5 2.2 C 145.1 4 145.6 5.3 145.9 6 C 146.2 6.8 146.6 7.3 146.9 7.7 C 147.1 7.8 147.2 8 147.2 8 C 147.3 8.1 147.3 8.2 147.3 8.3 C 147.3 8.4 147.2 8.6 147.1 8.7 C 147 8.8 146.8 8.9 146.6 8.9 C 146.4 8.9 146.1 8.7 145.9 8.5 C 145.6 8.2 145.4 7.8 145.2 7.3 C 144.9 6.8 144.8 6.5 144.8 6.4 C 144.8 6.4 144.8 6.4 144.8 6.4 C 144.6 6.4 144.2 6.5 143.6 6.6 C 143 6.7 142.5 6.8 142.2 7 C 142.1 7 142 7 141.9 7 C 141.9 7 141.9 7 141.9 7 Z M 144 5.5 C 144.1 5.5 144.3 5.4 144.4 5.4 C 144.3 5.2 144.1 4.5 143.7 3.4 C 143.7 3.3 143.7 3.2 143.7 3.2 C 143.7 3.2 142.3 5.8 142.3 5.8 C 142.5 5.8 142.7 5.7 142.9 5.7 C 143 5.7 143.4 5.6 144 5.5 C 144 5.5 144 5.5 144 5.5 Z M 152.8 8.3 C 152.7 8.3 152.6 8.3 152.4 8.2 C 152.2 8.2 152.1 8.2 152 8.2 C 151.1 8.2 150.2 8.3 149.4 8.6 C 149 8.7 148.8 8.8 148.6 8.8 C 148.4 8.8 148.3 8.7 148.2 8.5 C 148.1 8.4 148 8.2 148 8.1 C 148 8 148 7.9 148.1 7.6 C 148.2 7.3 148.2 7 148.3 6.6 C 148.3 6.6 148.7 2.6 148.7 2.6 C 148.8 2.2 148.8 1.9 148.8 1.8 C 148.8 1.7 148.9 1.6 149 1.5 C 149.1 1.4 149.3 1.4 149.5 1.4 C 149.6 1.4 149.8 1.4 149.9 1.5 C 150 1.7 150.1 1.8 150.1 1.9 C 150.1 2.1 150 2.3 150 2.6 C 149.9 3 149.8 3.9 149.6 5.2 C 149.5 6.5 149.4 7.2 149.4 7.3 C 149.4 7.4 149.4 7.4 149.5 7.4 C 149.6 7.4 149.9 7.4 150.5 7.3 C 150.7 7.2 151 7.2 151.3 7.2 C 152 7.2 152.6 7.1 152.9 7 C 153 7 153 7 153.1 7 C 153.3 7 153.4 7.1 153.5 7.2 C 153.6 7.3 153.7 7.4 153.7 7.5 C 153.7 7.8 153.6 7.9 153.4 8.1 C 153.2 8.2 153 8.3 152.8 8.3 Z M 154.7 8.4 C 154.5 8.4 154.4 8.3 154.3 8.3 C 154.2 8.2 154.1 8 154.1 7.7 C 154.1 7.5 154.1 7.3 154.2 7.2 C 154.2 7.1 154.3 7.1 154.4 7 C 154.5 7 154.7 6.9 155 6.9 C 155.2 6.9 155.4 7 155.5 7.1 C 155.6 7.2 155.6 7.3 155.6 7.4 C 155.6 7.6 155.6 7.7 155.5 7.8 C 155.5 7.9 155.3 8 155.2 8.2 C 155 8.3 154.8 8.4 154.7 8.4 Z M 161.2 7.1 C 161.5 6.9 161.7 6.8 161.8 6.8 C 162.1 6.8 162.2 6.9 162.2 7.2 C 162.2 7.5 161.8 7.8 161.1 8.3 C 160.4 8.7 159.7 8.9 159 8.9 C 158.4 8.9 157.9 8.7 157.4 8.3 C 156.9 8 156.6 7.4 156.6 6.7 C 156.6 5.9 156.9 5.1 157.4 4.1 C 157.9 3.2 158.6 2.5 159.4 1.9 C 160.1 1.3 160.9 1 161.6 1 C 162.1 1 162.4 1.1 162.7 1.4 C 162.9 1.7 163.1 2 163.1 2.3 C 163.1 2.7 163 3 163 3.1 C 162.9 3.3 162.8 3.4 162.6 3.6 C 162.4 3.7 162.2 3.7 162.1 3.7 C 162 3.7 161.9 3.7 161.8 3.6 C 161.7 3.5 161.7 3.4 161.7 3.2 C 161.7 3.1 161.7 3 161.7 2.8 C 161.8 2.6 161.8 2.4 161.8 2.3 C 161.8 2.1 161.7 2 161.6 2 C 161.1 2 160.6 2.2 160 2.7 C 159.4 3.2 158.9 3.8 158.5 4.6 C 158.1 5.3 157.9 6 157.9 6.5 C 157.9 6.9 158 7.2 158.2 7.5 C 158.4 7.8 158.8 7.9 159.2 7.9 C 159.4 7.9 159.7 7.8 160.1 7.7 C 160.5 7.6 160.8 7.4 161.2 7.1 C 161.2 7.1 161.2 7.1 161.2 7.1 Z M 165.7 8.8 C 165.2 8.8 164.7 8.6 164.3 8 C 163.8 7.5 163.6 7 163.6 6.4 C 163.6 5.7 163.8 5 164.2 4.2 C 164.6 3.3 165.2 2.7 165.8 2.1 C 166.5 1.6 167.1 1.4 167.8 1.4 C 168.4 1.4 168.8 1.4 169.2 1.5 C 169.5 1.7 169.8 1.9 170.1 2.1 C 170.4 2.4 170.6 2.6 170.7 2.9 C 170.8 3.2 170.9 3.5 170.9 4 C 170.9 4.4 170.8 4.9 170.5 5.5 C 170.2 6.1 169.8 6.7 169.3 7.2 C 168.8 7.7 168.3 8.1 167.8 8.4 C 167.3 8.7 166.6 8.8 165.7 8.8 Z M 164.9 6.4 C 164.9 6.8 165 7.1 165.2 7.4 C 165.5 7.6 165.7 7.8 166 7.8 C 166.9 7.8 167.7 7.3 168.5 6.5 C 169.3 5.7 169.6 4.8 169.6 3.8 C 169.6 3.5 169.6 3.2 169.4 3 C 169.3 2.8 169.1 2.7 168.8 2.5 C 168.5 2.4 168.2 2.3 167.8 2.3 C 167.2 2.3 166.5 2.8 165.9 3.7 C 165.2 4.6 164.9 5.5 164.9 6.4 Z M 178.7 3.5 C 178.7 3.3 178.7 3.2 178.7 3.1 C 178.7 3.1 177.1 5.3 177.1 5.3 C 176.3 6.4 175.8 6.9 175.4 6.9 C 175.2 6.9 175 6.8 174.9 6.6 C 174.7 6.4 174.6 6 174.4 5.6 C 174.3 5.1 174.1 4.8 174.1 4.6 C 173.9 4 173.8 3.7 173.8 3.7 C 173.8 3.7 173.5 4.9 173.5 4.9 C 173.5 5.4 173.4 5.7 173.3 6.1 C 173.2 6.4 173.1 6.8 173 7.3 C 172.9 7.8 172.9 8.2 172.9 8.4 C 172.9 8.5 172.8 8.6 172.6 8.7 C 172.5 8.8 172.4 8.8 172.3 8.8 C 172.1 8.8 172 8.7 171.9 8.6 C 171.7 8.4 171.7 8.3 171.7 8.2 C 171.7 7.9 171.7 7.5 171.9 7 C 172.4 5 172.7 3.8 172.8 3.3 C 172.8 2.7 172.9 2.3 172.9 2 C 172.9 1.8 173 1.7 173.1 1.6 C 173.3 1.5 173.5 1.4 173.7 1.4 C 173.8 1.4 174 1.5 174.1 1.7 C 174.2 1.9 174.3 2 174.4 2.2 C 174.38 2.19 174.4 2.2 174.4 2.2 C 174.4 2.2 175.05 4.08 175.1 4.1 C 175.3 4.8 175.5 5.3 175.6 5.5 C 175.9 5.1 176.5 4.5 177.2 3.5 C 177.8 2.6 178.3 2 178.6 1.7 C 178.8 1.4 179 1.3 179.1 1.3 C 179.3 1.3 179.4 1.4 179.6 1.5 C 179.8 1.6 179.9 1.8 179.9 1.9 C 179.9 1.9 179.9 2.4 179.7 3.3 C 179.7 4 179.6 4.7 179.5 5.5 C 179.4 6.3 179.4 6.7 179.4 6.9 C 179.4 7.1 179.4 7.2 179.5 7.4 C 179.5 7.6 179.5 7.7 179.5 7.8 C 179.5 8.2 179.5 8.4 179.3 8.5 C 179.2 8.6 179.1 8.7 178.8 8.7 C 178.4 8.7 178.2 8.3 178.2 7.7 C 178.2 7.1 178.2 6.4 178.4 5.5 C 178.5 4.6 178.6 3.9 178.7 3.5 C 178.7 3.5 178.7 3.5 178.7 3.5 Z M 181.6 8.4 C 181.4 8.4 181.3 8.3 181.2 8.3 C 181.1 8.2 181.1 8 181.1 7.7 C 181.1 7.5 181.1 7.3 181.1 7.2 C 181.1 7.1 181.2 7.1 181.3 7 C 181.5 7 181.7 6.9 181.9 6.9 C 182.1 6.9 182.3 7 182.4 7.1 C 182.5 7.2 182.5 7.3 182.5 7.4 C 182.5 7.6 182.5 7.7 182.5 7.8 C 182.4 7.9 182.3 8 182.1 8.2 C 181.9 8.3 181.7 8.4 181.6 8.4 Z M 188.4 4.5 C 189.1 4.7 189.5 5 189.6 5.3 C 189.8 5.6 189.9 5.9 189.9 6.2 C 189.9 6.8 189.5 7.4 188.7 8.1 C 187.9 8.8 187.1 9.1 186.2 9.1 C 185.7 9.1 185.5 8.9 185.5 8.6 C 185.5 8.1 185.8 7.9 186.5 7.9 C 186.5 7.9 186.7 7.9 186.7 7.9 C 187 7.9 187.4 7.7 187.9 7.4 C 188.4 7 188.7 6.6 188.7 6.2 C 188.7 6 188.6 5.8 188.4 5.6 C 188.2 5.4 187.9 5.3 187.6 5.3 C 187.5 5.3 187.4 5.4 187.2 5.5 C 186.9 5.6 186.8 5.6 186.7 5.6 C 186.4 5.6 186.2 5.6 186.1 5.5 C 186 5.5 185.9 5.3 185.9 5.1 C 185.9 4.9 186.3 4.7 186.9 4.4 C 187.3 4.3 187.7 4 188.1 3.7 C 188.4 3.3 188.6 3 188.6 2.7 C 188.6 2.4 188.4 2.3 187.9 2.3 C 187.5 2.3 187 2.3 186.6 2.4 C 186.2 2.5 186 2.6 185.9 2.8 C 185.9 2.9 185.8 3.7 185.6 5 C 185.4 6.3 185.3 7.1 185.3 7.3 C 185.3 7.3 185.2 8 185.2 8 C 185.2 8.3 185.1 8.5 185 8.6 C 184.9 8.7 184.7 8.8 184.6 8.8 C 184.1 8.8 183.9 8.5 183.9 7.9 C 183.9 7.8 183.9 7.7 184 7.5 C 184.1 6.9 184.3 6.1 184.4 5 C 184.5 3.9 184.6 3.4 184.6 3.3 C 184.6 3.1 184.6 3.1 184.5 3.1 C 184.5 3.1 184.4 3.1 184.4 3.1 C 184.3 3.1 184.2 3 184.1 3 C 184 2.9 184 2.8 184 2.8 C 183.9 2.7 183.9 2.7 183.9 2.6 C 183.9 2.3 184.4 2 185.3 1.7 C 186.2 1.4 187.1 1.3 188.1 1.3 C 188.7 1.3 189.1 1.4 189.4 1.7 C 189.8 2 189.9 2.3 189.9 2.7 C 189.9 2.9 189.8 3.2 189.6 3.5 C 189.4 3.7 189 4.1 188.4 4.5 Z M 191.8 2.6 C 191.8 2.6 191.7 2.5 191.7 2.5 C 191.6 2.3 191.5 2.2 191.5 2.1 C 191.5 2 191.6 1.8 191.8 1.7 C 191.9 1.6 192.1 1.6 192.2 1.6 C 192.3 1.6 192.4 1.6 192.4 1.6 C 192.5 1.6 192.6 1.6 192.6 1.6 C 193.6 1.4 194.2 1.4 194.6 1.4 C 195.4 1.4 195.9 1.5 196.4 1.9 C 196.8 2.2 197 2.6 197 3.2 C 197 3.6 196.8 4.1 196.4 4.5 C 195.9 5 195.4 5.3 194.7 5.6 C 195.9 6.5 196.7 7.2 197.3 7.5 C 197.5 7.7 197.6 7.8 197.6 8 C 197.6 8.1 197.6 8.3 197.4 8.4 C 197.3 8.5 197.1 8.6 197 8.6 C 196.8 8.6 196.6 8.5 196.4 8.4 C 196.1 8.2 195.8 7.9 195.3 7.6 C 194.9 7.2 194.6 7 194.6 7 C 194 6.4 193.5 6.1 193.2 5.9 C 192.9 5.9 192.7 5.8 192.7 5.4 C 192.7 5.3 192.8 5.1 193 5 C 193.1 4.9 193.3 4.8 193.5 4.8 C 193.5 4.8 193.6 4.8 193.7 4.9 C 193.7 4.9 193.8 4.9 193.8 4.9 C 194 4.9 194.4 4.7 194.9 4.4 C 195.5 4 195.8 3.6 195.8 3.2 C 195.8 2.9 195.7 2.7 195.4 2.6 C 195.2 2.4 194.9 2.3 194.5 2.3 C 194.1 2.3 193.8 2.4 193.5 2.4 C 193.2 2.5 193.1 2.5 193.1 2.5 C 193 2.5 193 2.6 193 2.7 C 192.9 2.7 192.9 3.1 192.8 3.7 C 192.6 4.3 192.5 4.9 192.5 5.6 C 192.4 6.3 192.3 6.8 192.3 7.2 C 192.3 7.4 192.3 7.6 192.4 7.7 C 192.4 7.9 192.4 8 192.4 8.2 C 192.4 8.3 192.3 8.4 192.2 8.5 C 192.1 8.7 191.9 8.7 191.7 8.7 C 191.3 8.7 191.1 8.4 191.1 7.8 C 191.1 7.3 191.1 6.6 191.2 5.7 C 191.4 4.8 191.5 4 191.6 3.3 C 191.7 3.2 191.7 3.1 191.7 3 C 191.69 2.96 191.8 2.6 191.8 2.6 Z " stroke="none" fill="#f4774c"/>  </g></svg>