<?xml version="1.0" standalone="no"?><!DOCTYPE svg PUBLIC "-//W3C//DTD SVG 1.1//EN" "http://www.w3.org/Graphics/SVG/1.1/DTD/svg11.dtd"><svg xmlns="http://www.w3.org/2000/svg" version="1.1" width="235px" height="19.6px" viewBox="0 -3 235 19.6" style="top:-3px">  <desc>NO FINAL DO M S ESSE GRUPO DE AMIGOS MARCOU UM “HAPPY HOUR” NO BOTECO DA VILA.</desc>  <defs/>  <g id="Polygon13951">    <path d="M 0.4 10.4 C 0.4 10.4 0.61 9.62 0.6 9.6 C 0.7 9 0.8 8.5 0.8 8.3 C 0.8 8.1 0.8 8.1 0.9 8 C 0.9 8 0.9 7.9 1 7.9 C 1 7.8 1.1 7.8 1.2 7.8 C 1.2 7.8 1.3 7.8 1.3 7.9 C 1.4 7.9 1.5 8 1.5 8.2 C 1.6 8.5 1.8 8.8 2 9.3 C 2.3 9.8 2.6 10.1 2.8 10.4 C 2.9 10.1 2.9 9.8 3 9.3 C 3.1 9 3.1 8.7 3.2 8.5 C 3.2 8.3 3.2 8.1 3.2 8 C 3.2 7.8 3.3 7.7 3.4 7.7 C 3.4 7.6 3.5 7.6 3.6 7.6 C 3.7 7.6 3.7 7.7 3.8 7.7 C 3.8 7.8 3.8 7.9 3.8 8 C 3.8 8.1 3.8 8.2 3.8 8.4 C 3.7 8.8 3.6 9.2 3.5 9.8 C 3.4 10.4 3.3 10.7 3.3 10.8 C 3.3 10.8 3.3 10.9 3.3 10.9 C 3.3 11 3.3 11.1 3.3 11.1 C 3.3 11.2 3.2 11.2 3.2 11.3 C 3.1 11.3 3 11.3 2.9 11.3 C 2.9 11.3 2.8 11.3 2.8 11.3 C 2.8 11.3 2.7 11.3 2.7 11.2 C 2.6 11.1 2.6 11.1 2.5 11 C 2.5 10.8 2.4 10.8 2.4 10.7 C 2 10.2 1.6 9.6 1.2 9 C 1.2 9.2 1.1 9.6 1 10.4 C 1 10.4 1 10.6 1 10.6 C 1 10.7 1 10.8 1 10.9 C 0.9 11.1 0.9 11.2 0.8 11.3 C 0.8 11.4 0.7 11.4 0.6 11.4 C 0.5 11.4 0.4 11.4 0.4 11.3 C 0.4 11.3 0.3 11.2 0.3 11 C 0.3 10.9 0.4 10.7 0.4 10.5 C 0.43 10.46 0.4 10.4 0.4 10.4 Z M 5.2 11.4 C 5 11.4 4.7 11.3 4.5 11 C 4.3 10.8 4.2 10.5 4.2 10.2 C 4.2 9.9 4.3 9.5 4.5 9.1 C 4.7 8.7 4.9 8.3 5.3 8.1 C 5.6 7.8 5.9 7.7 6.3 7.7 C 6.5 7.7 6.8 7.7 6.9 7.8 C 7.1 7.8 7.3 7.9 7.4 8.1 C 7.6 8.2 7.7 8.3 7.7 8.5 C 7.8 8.6 7.8 8.8 7.8 9 C 7.8 9.2 7.7 9.5 7.6 9.8 C 7.5 10.1 7.3 10.3 7 10.6 C 6.8 10.9 6.5 11.1 6.3 11.2 C 6 11.3 5.7 11.4 5.2 11.4 Z M 4.8 10.2 C 4.8 10.4 4.9 10.5 5 10.7 C 5.1 10.8 5.2 10.9 5.4 10.9 C 5.8 10.9 6.2 10.7 6.6 10.3 C 7 9.8 7.2 9.4 7.2 8.9 C 7.2 8.8 7.2 8.6 7.1 8.5 C 7 8.4 6.9 8.3 6.8 8.3 C 6.6 8.2 6.5 8.2 6.3 8.2 C 6 8.2 5.6 8.4 5.3 8.8 C 5 9.3 4.8 9.7 4.8 10.2 Z M 12.4 9.3 C 12.7 9.4 12.9 9.5 13 9.6 C 13.1 9.8 13.1 9.9 13.1 10.1 C 13.1 10.4 13 10.7 12.6 11 C 12.2 11.4 11.7 11.5 11.3 11.5 C 11.1 11.5 10.9 11.5 10.9 11.3 C 10.9 11.1 11.1 11 11.4 11 C 11.4 11 11.6 11 11.6 11 C 11.7 11 11.9 10.9 12.2 10.7 C 12.4 10.5 12.5 10.3 12.5 10.1 C 12.5 10 12.5 9.9 12.4 9.8 C 12.3 9.7 12.1 9.7 12 9.7 C 12 9.7 11.9 9.7 11.8 9.7 C 11.7 9.8 11.6 9.8 11.5 9.8 C 11.4 9.8 11.3 9.8 11.2 9.8 C 11.2 9.7 11.2 9.7 11.2 9.5 C 11.2 9.5 11.3 9.3 11.7 9.2 C 11.8 9.1 12 9 12.2 8.8 C 12.4 8.6 12.5 8.5 12.5 8.4 C 12.5 8.2 12.4 8.1 12.2 8.1 C 11.9 8.1 11.7 8.2 11.5 8.2 C 11.3 8.3 11.2 8.3 11.2 8.4 C 11.1 8.5 11.1 8.8 11 9.5 C 10.9 10.2 10.8 10.6 10.8 10.7 C 10.8 10.7 10.8 11 10.8 11 C 10.8 11.2 10.8 11.3 10.7 11.3 C 10.6 11.4 10.6 11.4 10.5 11.4 C 10.3 11.4 10.1 11.2 10.1 11 C 10.1 10.9 10.2 10.8 10.2 10.7 C 10.3 10.4 10.3 10 10.4 9.5 C 10.5 9 10.5 8.7 10.5 8.7 C 10.5 8.6 10.5 8.5 10.4 8.5 C 10.4 8.5 10.4 8.5 10.4 8.5 C 10.3 8.5 10.3 8.5 10.3 8.5 C 10.2 8.5 10.2 8.4 10.2 8.4 C 10.2 8.4 10.2 8.3 10.2 8.3 C 10.2 8.1 10.4 8 10.8 7.8 C 11.3 7.7 11.8 7.6 12.3 7.6 C 12.5 7.6 12.7 7.7 12.9 7.8 C 13.1 8 13.2 8.1 13.2 8.3 C 13.2 8.5 13.1 8.6 13 8.7 C 12.9 8.9 12.7 9 12.4 9.3 Z M 14.6 11.4 C 14.3 11.4 14.1 11.3 13.9 11 C 13.7 10.8 13.5 10.5 13.5 10.2 C 13.5 9.9 13.6 9.5 13.9 9.1 C 14.1 8.7 14.3 8.3 14.6 8.1 C 15 7.8 15.3 7.7 15.6 7.7 C 15.9 7.7 16.1 7.7 16.3 7.8 C 16.5 7.8 16.7 7.9 16.8 8.1 C 17 8.2 17.1 8.3 17.1 8.5 C 17.2 8.6 17.2 8.8 17.2 9 C 17.2 9.2 17.1 9.5 17 9.8 C 16.8 10.1 16.7 10.3 16.4 10.6 C 16.1 10.9 15.9 11.1 15.6 11.2 C 15.4 11.3 15 11.4 14.6 11.4 Z M 14.2 10.2 C 14.2 10.4 14.2 10.5 14.3 10.7 C 14.5 10.8 14.6 10.9 14.8 10.9 C 15.2 10.9 15.6 10.7 16 10.3 C 16.4 9.8 16.6 9.4 16.6 8.9 C 16.6 8.8 16.5 8.6 16.5 8.5 C 16.4 8.4 16.3 8.3 16.1 8.3 C 16 8.2 15.8 8.2 15.6 8.2 C 15.3 8.2 15 8.4 14.7 8.8 C 14.3 9.3 14.2 9.7 14.2 10.2 Z M 20.3 8.3 C 19.9 8.3 19.6 8.3 19.4 8.4 C 19.4 8.4 19.4 8.4 19.4 8.5 C 19.4 8.5 19.3 8.8 19.3 9.3 C 19.2 9.8 19.2 10.2 19.2 10.5 C 19.2 10.6 19.2 10.8 19.2 10.9 C 19.3 10.9 19.3 11 19.3 11 C 19.3 11.1 19.2 11.2 19.2 11.2 C 19.1 11.3 19.1 11.3 19 11.3 C 18.9 11.3 18.9 11.3 18.8 11.3 C 18.7 11.2 18.6 11.1 18.6 11 C 18.6 10.9 18.6 10.7 18.6 10.5 C 18.6 10.2 18.6 9.8 18.7 9.2 C 18.8 8.7 18.8 8.4 18.8 8.4 C 18.8 8.4 18.6 8.4 18.3 8.4 C 18 8.5 17.8 8.5 17.7 8.5 C 17.6 8.5 17.4 8.5 17.4 8.4 C 17.3 8.4 17.3 8.3 17.3 8.2 C 17.3 8.1 17.3 8.1 17.4 8 C 17.4 8 17.6 8 17.9 8 C 18.4 8 18.8 7.9 19.3 7.9 C 19.8 7.8 20.2 7.7 20.4 7.7 C 20.7 7.7 20.9 7.8 21 7.8 C 21 7.9 21.1 8 21.1 8.1 C 21.1 8.2 21 8.3 20.9 8.3 C 20.8 8.3 20.7 8.3 20.6 8.3 C 20.5 8.3 20.4 8.3 20.3 8.3 C 20.3 8.3 20.3 8.3 20.3 8.3 Z M 23.6 8.2 C 23.6 8.2 22.8 8.3 22.8 8.3 C 22.6 8.3 22.4 8.3 22.2 8.3 C 22 8.4 21.9 8.4 21.9 8.4 C 21.8 8.4 21.8 8.5 21.8 8.6 C 21.8 8.6 21.8 8.8 21.7 9 C 21.7 9.1 21.7 9.3 21.7 9.4 C 21.8 9.4 21.9 9.4 22.1 9.3 C 22.3 9.3 22.4 9.3 22.5 9.3 C 22.8 9.2 22.9 9.2 23.1 9.2 C 23.3 9.2 23.5 9.3 23.5 9.4 C 23.5 9.5 23.4 9.6 23.4 9.7 C 23.3 9.7 23.2 9.7 23 9.7 C 22.9 9.7 22.8 9.8 22.7 9.8 C 22.6 9.8 22.6 9.8 22.5 9.8 C 22 9.9 21.7 9.9 21.7 9.9 C 21.7 9.9 21.7 9.9 21.7 9.9 C 21.6 9.9 21.6 10 21.6 10 C 21.6 10 21.6 10.1 21.5 10.4 C 21.5 10.6 21.5 10.7 21.5 10.8 C 21.5 10.9 21.5 10.9 21.6 10.9 C 21.7 10.9 21.9 10.9 22.2 10.8 C 22.5 10.8 22.7 10.8 22.8 10.7 C 23 10.7 23.2 10.7 23.3 10.7 C 23.5 10.7 23.6 10.8 23.6 11 C 23.6 11 23.5 11.1 23.5 11.1 C 23.3 11.2 23.1 11.2 22.8 11.3 C 22.6 11.3 22.3 11.3 22 11.3 C 21.7 11.4 21.5 11.4 21.2 11.4 C 21.1 11.4 21 11.4 20.9 11.3 C 20.9 11.3 20.8 11.2 20.8 11.1 C 20.8 11.1 20.8 11 20.8 11 C 20.8 11 20.8 10.9 20.9 10.9 C 20.9 10.7 21 10.2 21.1 9.5 C 21.2 8.8 21.2 8.4 21.2 8.4 C 21.2 8.4 21.2 8.4 21.2 8.4 C 21.2 8.3 21.2 8.3 21.2 8.3 C 21.1 8.2 21.1 8.1 21.1 8.1 C 21.1 8.1 21.1 8 21.1 8 C 21.1 8 21.2 8 21.2 7.9 C 21.3 7.9 21.4 7.9 21.4 7.9 C 21.5 7.9 21.6 7.9 21.6 7.9 C 21.8 7.9 22.2 7.8 23 7.7 C 23.2 7.7 23.3 7.7 23.4 7.7 C 23.4 7.7 23.4 7.7 23.4 7.7 C 23.7 7.7 23.8 7.8 23.8 8 C 23.8 8 23.8 8.1 23.7 8.1 C 23.7 8.2 23.6 8.2 23.6 8.2 Z M 26.3 10.6 C 26.4 10.5 26.6 10.4 26.6 10.4 C 26.7 10.4 26.8 10.5 26.8 10.6 C 26.8 10.7 26.6 10.9 26.3 11.1 C 25.9 11.4 25.6 11.5 25.2 11.5 C 24.9 11.5 24.6 11.4 24.4 11.2 C 24.2 11 24 10.7 24 10.3 C 24 9.9 24.2 9.5 24.4 9.1 C 24.7 8.6 25 8.2 25.4 7.9 C 25.8 7.7 26.1 7.5 26.5 7.5 C 26.7 7.5 26.9 7.6 27 7.7 C 27.2 7.8 27.2 8 27.2 8.2 C 27.2 8.3 27.2 8.5 27.2 8.6 C 27.2 8.6 27.1 8.7 27 8.8 C 26.9 8.8 26.8 8.9 26.8 8.9 C 26.7 8.9 26.6 8.8 26.6 8.8 C 26.6 8.8 26.5 8.7 26.5 8.6 C 26.5 8.6 26.5 8.5 26.6 8.4 C 26.6 8.3 26.6 8.2 26.6 8.1 C 26.6 8 26.6 8 26.5 8 C 26.3 8 26 8.1 25.7 8.4 C 25.4 8.6 25.2 8.9 25 9.3 C 24.8 9.7 24.7 10 24.7 10.3 C 24.7 10.5 24.7 10.6 24.8 10.8 C 24.9 10.9 25.1 10.9 25.3 10.9 C 25.4 10.9 25.6 10.9 25.8 10.8 C 25.9 10.8 26.1 10.7 26.3 10.6 C 26.3 10.6 26.3 10.6 26.3 10.6 Z M 28.5 11.4 C 28.2 11.4 27.9 11.3 27.7 11 C 27.5 10.8 27.4 10.5 27.4 10.2 C 27.4 9.9 27.5 9.5 27.7 9.1 C 27.9 8.7 28.2 8.3 28.5 8.1 C 28.8 7.8 29.2 7.7 29.5 7.7 C 29.8 7.7 30 7.7 30.2 7.8 C 30.4 7.8 30.5 7.9 30.7 8.1 C 30.8 8.2 30.9 8.3 31 8.5 C 31 8.6 31 8.8 31 9 C 31 9.2 31 9.5 30.8 9.8 C 30.7 10.1 30.5 10.3 30.3 10.6 C 30 10.9 29.8 11.1 29.5 11.2 C 29.2 11.3 28.9 11.4 28.5 11.4 Z M 28 10.2 C 28 10.4 28.1 10.5 28.2 10.7 C 28.3 10.8 28.5 10.9 28.6 10.9 C 29.1 10.9 29.5 10.7 29.8 10.3 C 30.2 9.8 30.4 9.4 30.4 8.9 C 30.4 8.8 30.4 8.6 30.3 8.5 C 30.3 8.4 30.2 8.3 30 8.3 C 29.9 8.2 29.7 8.2 29.5 8.2 C 29.2 8.2 28.9 8.4 28.5 8.8 C 28.2 9.3 28 9.7 28 10.2 Z M 33.4 10.9 C 33.5 10.8 33.5 10.6 33.5 10.4 C 33.5 9.9 33.6 9.3 33.7 8.6 C 33.7 8.5 33.7 8.4 33.7 8.4 C 33.7 8.3 33.7 8.3 33.7 8.3 C 33.5 8.3 33.4 8.2 33.4 8.1 C 33.4 8 33.5 7.9 33.5 7.8 C 33.6 7.8 33.7 7.7 33.8 7.7 C 33.8 7.7 34.1 7.8 34.1 7.8 C 34.2 7.8 34.5 7.7 34.7 7.7 C 34.9 7.7 35.1 7.7 35.3 7.7 C 35.7 7.7 36.1 7.8 36.4 8.1 C 36.6 8.3 36.8 8.7 36.8 9.1 C 36.8 9.6 36.6 10 36.1 10.4 C 35.7 10.7 35.2 11 34.6 11.1 C 34.4 11.2 34.3 11.2 34.2 11.2 C 34.2 11.3 34.1 11.3 34 11.4 C 33.9 11.4 33.8 11.5 33.7 11.5 C 33.6 11.5 33.5 11.4 33.4 11.3 C 33.4 11.3 33.3 11.2 33.3 11.2 C 33.3 11.1 33.4 11.1 33.4 11 C 33.4 11 33.4 10.9 33.4 10.9 Z M 34.1 10.6 C 34.1 10.6 34.1 10.7 34.1 10.7 C 34.2 10.7 34.4 10.7 34.8 10.5 C 35.2 10.4 35.6 10.2 35.8 10 C 36.1 9.7 36.2 9.4 36.2 9.1 C 36.2 8.8 36.1 8.6 35.9 8.4 C 35.7 8.3 35.5 8.2 35.2 8.2 C 35 8.2 34.7 8.2 34.4 8.2 C 34.4 8.3 34.4 8.3 34.3 8.3 C 34.2 9.3 34.1 10.1 34.1 10.6 C 34.1 10.6 34.1 10.6 34.1 10.6 Z M 37.8 10.5 C 37.7 10.5 37.7 10.5 37.6 10.5 C 37.6 10.5 37.5 10.7 37.4 10.9 C 37.2 11.1 37.1 11.3 37.1 11.3 C 37 11.3 37 11.3 36.9 11.3 C 36.9 11.3 36.8 11.3 36.7 11.2 C 36.6 11.2 36.6 11.1 36.6 11 C 36.6 11 36.8 10.6 37.2 10 C 37.4 9.7 37.6 9.3 37.8 9 C 38.2 8.3 38.4 7.9 38.5 7.8 C 38.6 7.7 38.7 7.7 38.8 7.7 C 38.9 7.7 39 7.7 39.1 7.8 C 39.1 7.8 39.1 7.9 39.1 7.9 C 39.1 8 39.1 8.1 39.1 8.1 C 39.4 9 39.6 9.6 39.8 10 C 39.9 10.4 40.1 10.7 40.3 10.8 C 40.4 10.9 40.4 11 40.4 11 C 40.5 11 40.5 11.1 40.5 11.1 C 40.5 11.2 40.4 11.3 40.4 11.4 C 40.3 11.4 40.2 11.4 40.1 11.4 C 40 11.4 39.9 11.4 39.8 11.2 C 39.6 11.1 39.5 10.9 39.4 10.6 C 39.3 10.4 39.2 10.2 39.2 10.2 C 39.2 10.2 39.2 10.2 39.2 10.2 C 39.1 10.2 38.9 10.2 38.6 10.3 C 38.3 10.4 38.1 10.4 37.9 10.5 C 37.9 10.5 37.8 10.5 37.8 10.5 C 37.8 10.5 37.8 10.5 37.8 10.5 Z M 38.8 9.8 C 38.9 9.7 39 9.7 39 9.7 C 39 9.6 38.9 9.3 38.7 8.7 C 38.7 8.6 38.7 8.6 38.7 8.6 C 38.7 8.6 38 9.9 38 9.9 C 38.1 9.9 38.2 9.9 38.3 9.9 C 38.3 9.8 38.5 9.8 38.8 9.8 C 38.8 9.8 38.8 9.8 38.8 9.8 Z M 46.3 7.9 C 46.3 7.9 46.3 7.9 46.3 7.9 C 46.3 7.9 46.2 8 46.1 8.2 C 45.9 8.4 45.8 8.7 45.6 8.9 C 45.5 9 45.3 9.4 45 9.9 C 44.8 10.2 44.7 10.4 44.7 10.5 C 44.5 10.7 44.4 10.9 44.4 11 C 44.4 11.1 44.3 11.1 44.2 11.2 C 44.1 11.2 44 11.3 43.9 11.3 C 43.8 11.3 43.8 11.2 43.7 11.1 C 43.7 11.1 43.6 10.9 43.6 10.7 C 43.5 10.4 43.3 10 43.1 9.6 C 42.8 8.7 42.6 8.2 42.6 8.1 C 42.6 8.1 42.6 8 42.6 7.9 C 42.7 7.8 42.8 7.7 42.9 7.7 C 43 7.7 43 7.8 43.1 7.8 C 43.2 7.9 43.2 8.1 43.3 8.3 C 43.3 8.5 43.4 8.9 43.6 9.4 C 43.8 9.9 44 10.2 44.1 10.5 C 44.1 10.4 44.2 10.3 44.3 10.2 C 44.3 10.1 44.3 10.1 44.3 10.1 C 44.5 9.8 44.7 9.4 44.9 9.1 C 45.1 8.6 45.4 8.2 45.5 8 C 45.7 7.7 45.9 7.6 46 7.6 C 46.2 7.6 46.3 7.7 46.3 7.9 C 46.28 7.86 46.3 7.9 46.3 7.9 C 46.3 7.9 46.28 7.88 46.3 7.9 Z M 47 8.8 C 47 9 46.9 9.1 46.9 9.2 C 46.9 9.2 46.9 9.3 46.9 9.5 C 46.8 9.9 46.8 10.1 46.8 10.3 C 46.8 10.5 46.8 10.7 46.8 10.9 C 46.9 11 46.8 11.2 46.8 11.2 C 46.7 11.3 46.6 11.3 46.5 11.3 C 46.4 11.3 46.3 11.3 46.3 11.2 C 46.2 11.1 46.2 10.9 46.2 10.7 C 46.2 10.5 46.2 10.1 46.3 9.6 C 46.3 9.6 46.4 8.6 46.4 8.6 C 46.5 8.5 46.5 8.3 46.5 8.2 C 46.5 8 46.5 7.9 46.6 7.9 C 46.6 7.8 46.7 7.8 46.7 7.8 C 46.8 7.7 46.9 7.7 46.9 7.7 C 47 7.7 47.1 7.7 47.1 7.8 C 47.2 7.9 47.2 8 47.2 8.1 C 47.2 8.1 47 8.8 47 8.8 Z M 50 11.1 C 49.9 11.1 49.9 11.1 49.8 11.1 C 49.7 11.1 49.6 11.1 49.6 11.1 C 49.1 11.1 48.7 11.2 48.3 11.3 C 48.1 11.4 48 11.4 47.9 11.4 C 47.8 11.4 47.7 11.3 47.7 11.3 C 47.6 11.2 47.6 11.1 47.6 11 C 47.6 11 47.6 10.9 47.6 10.8 C 47.7 10.7 47.7 10.5 47.7 10.3 C 47.7 10.3 47.9 8.3 47.9 8.3 C 48 8.1 48 8 48 7.9 C 48 7.9 48 7.8 48.1 7.8 C 48.1 7.7 48.2 7.7 48.3 7.7 C 48.4 7.7 48.5 7.7 48.5 7.8 C 48.6 7.8 48.6 7.9 48.6 8 C 48.6 8 48.6 8.1 48.6 8.3 C 48.5 8.5 48.5 9 48.4 9.6 C 48.3 10.3 48.3 10.6 48.3 10.6 C 48.3 10.7 48.3 10.7 48.3 10.7 C 48.4 10.7 48.5 10.7 48.8 10.6 C 48.9 10.6 49.1 10.6 49.2 10.6 C 49.6 10.6 49.9 10.6 50 10.5 C 50.1 10.5 50.1 10.5 50.1 10.5 C 50.2 10.5 50.3 10.5 50.3 10.6 C 50.4 10.6 50.4 10.7 50.4 10.8 C 50.4 10.9 50.4 11 50.3 11 C 50.2 11.1 50.1 11.1 50 11.1 Z M 51.6 10.5 C 51.6 10.5 51.5 10.5 51.5 10.5 C 51.5 10.5 51.4 10.7 51.2 10.9 C 51.1 11.1 51 11.3 50.9 11.3 C 50.9 11.3 50.8 11.3 50.8 11.3 C 50.7 11.3 50.7 11.3 50.6 11.2 C 50.5 11.2 50.5 11.1 50.5 11 C 50.5 11 50.7 10.6 51.1 10 C 51.3 9.7 51.5 9.3 51.7 9 C 52.1 8.3 52.3 7.9 52.4 7.8 C 52.4 7.7 52.5 7.7 52.6 7.7 C 52.7 7.7 52.8 7.7 52.9 7.8 C 52.9 7.8 53 7.9 53 7.9 C 53 8 53 8.1 52.9 8.1 C 53.2 9 53.5 9.6 53.6 10 C 53.8 10.4 54 10.7 54.1 10.8 C 54.2 10.9 54.3 11 54.3 11 C 54.3 11 54.3 11.1 54.3 11.1 C 54.3 11.2 54.3 11.3 54.2 11.4 C 54.2 11.4 54.1 11.4 54 11.4 C 53.9 11.4 53.8 11.4 53.6 11.2 C 53.5 11.1 53.4 10.9 53.3 10.6 C 53.1 10.4 53.1 10.2 53.1 10.2 C 53.1 10.2 53.1 10.2 53.1 10.2 C 53 10.2 52.8 10.2 52.5 10.3 C 52.2 10.4 51.9 10.4 51.8 10.5 C 51.7 10.5 51.7 10.5 51.6 10.5 C 51.6 10.5 51.6 10.5 51.6 10.5 Z M 52.7 9.8 C 52.8 9.7 52.8 9.7 52.9 9.7 C 52.9 9.6 52.7 9.3 52.6 8.7 C 52.5 8.6 52.5 8.6 52.5 8.6 C 52.5 8.6 51.8 9.9 51.8 9.9 C 51.9 9.9 52 9.9 52.1 9.9 C 52.2 9.8 52.4 9.8 52.7 9.8 C 52.7 9.8 52.7 9.8 52.7 9.8 Z M 54.9 11.2 C 54.8 11.2 54.7 11.2 54.7 11.1 C 54.6 11.1 54.6 11 54.6 10.8 C 54.6 10.7 54.6 10.7 54.6 10.6 C 54.6 10.6 54.7 10.5 54.8 10.5 C 54.8 10.5 54.9 10.5 55.1 10.5 C 55.2 10.5 55.2 10.5 55.3 10.5 C 55.3 10.6 55.4 10.6 55.4 10.7 C 55.4 10.8 55.4 10.8 55.3 10.9 C 55.3 10.9 55.2 11 55.1 11.1 C 55 11.1 55 11.2 54.9 11.2 Z " stroke="none" fill="#000"/>  </g>  <g id="Polygon13950">    <path d="M 0.4 3.4 C 0.4 3.4 0.61 2.62 0.6 2.6 C 0.7 2 0.8 1.5 0.8 1.3 C 0.8 1.1 0.8 1.1 0.9 1 C 0.9 1 0.9 0.9 1 0.9 C 1 0.8 1.1 0.8 1.2 0.8 C 1.2 0.8 1.3 0.8 1.3 0.9 C 1.4 0.9 1.5 1 1.5 1.2 C 1.6 1.5 1.8 1.8 2 2.3 C 2.3 2.8 2.6 3.1 2.8 3.4 C 2.9 3.1 2.9 2.8 3 2.3 C 3.1 2 3.1 1.7 3.2 1.5 C 3.2 1.3 3.2 1.1 3.2 1 C 3.2 0.8 3.3 0.7 3.4 0.7 C 3.4 0.6 3.5 0.6 3.6 0.6 C 3.7 0.6 3.7 0.7 3.8 0.7 C 3.8 0.8 3.8 0.9 3.8 1 C 3.8 1.1 3.8 1.2 3.8 1.4 C 3.7 1.8 3.6 2.2 3.5 2.8 C 3.4 3.4 3.3 3.7 3.3 3.8 C 3.3 3.8 3.3 3.9 3.3 3.9 C 3.3 4 3.3 4.1 3.3 4.1 C 3.3 4.2 3.2 4.2 3.2 4.3 C 3.1 4.3 3 4.3 2.9 4.3 C 2.9 4.3 2.8 4.3 2.8 4.3 C 2.8 4.3 2.7 4.3 2.7 4.2 C 2.6 4.1 2.6 4.1 2.5 4 C 2.5 3.8 2.4 3.8 2.4 3.7 C 2 3.2 1.6 2.6 1.2 2 C 1.2 2.2 1.1 2.6 1 3.4 C 1 3.4 1 3.6 1 3.6 C 1 3.7 1 3.8 1 3.9 C 0.9 4.1 0.9 4.2 0.8 4.3 C 0.8 4.4 0.7 4.4 0.6 4.4 C 0.5 4.4 0.4 4.4 0.4 4.3 C 0.4 4.3 0.3 4.2 0.3 4 C 0.3 3.9 0.4 3.7 0.4 3.5 C 0.43 3.46 0.4 3.4 0.4 3.4 Z M 5.2 4.4 C 5 4.4 4.7 4.3 4.5 4 C 4.3 3.8 4.2 3.5 4.2 3.2 C 4.2 2.9 4.3 2.5 4.5 2.1 C 4.7 1.7 4.9 1.3 5.3 1.1 C 5.6 0.8 5.9 0.7 6.3 0.7 C 6.5 0.7 6.8 0.7 6.9 0.8 C 7.1 0.8 7.3 0.9 7.4 1.1 C 7.6 1.2 7.7 1.3 7.7 1.5 C 7.8 1.6 7.8 1.8 7.8 2 C 7.8 2.2 7.7 2.5 7.6 2.8 C 7.5 3.1 7.3 3.3 7 3.6 C 6.8 3.9 6.5 4.1 6.3 4.2 C 6 4.3 5.7 4.4 5.2 4.4 Z M 4.8 3.2 C 4.8 3.4 4.9 3.5 5 3.7 C 5.1 3.8 5.2 3.9 5.4 3.9 C 5.8 3.9 6.2 3.7 6.6 3.3 C 7 2.8 7.2 2.4 7.2 1.9 C 7.2 1.8 7.2 1.6 7.1 1.5 C 7 1.4 6.9 1.3 6.8 1.3 C 6.6 1.2 6.5 1.2 6.3 1.2 C 6 1.2 5.6 1.4 5.3 1.8 C 5 2.3 4.8 2.7 4.8 3.2 Z M 12.7 1.2 C 12.7 1.2 12.7 1.2 12.6 1.2 C 12.6 1.2 12.5 1.2 12.5 1.2 C 12.5 1.2 12.4 1.2 12.3 1.2 C 12.1 1.2 11.9 1.2 11.6 1.3 C 11.4 1.3 11.2 1.3 11.1 1.4 C 11 1.7 10.9 2 10.9 2.5 C 11 2.5 11 2.5 11.1 2.4 C 11.3 2.4 11.6 2.4 11.8 2.3 C 12 2.3 12.1 2.3 12.2 2.3 C 12.5 2.3 12.6 2.4 12.6 2.6 C 12.6 2.6 12.6 2.6 12.5 2.7 C 12.5 2.7 12.4 2.8 12.4 2.8 C 12.3 2.8 12.2 2.8 12.1 2.9 C 12.1 2.9 11.4 2.9 11.4 2.9 C 11.2 3 11 3 10.9 3 C 10.8 3 10.8 3.1 10.8 3.1 C 10.8 3.1 10.8 3.2 10.8 3.4 C 10.8 3.5 10.8 3.7 10.8 3.9 C 10.8 3.9 10.8 4.2 10.8 4.2 C 10.8 4.4 10.7 4.5 10.5 4.5 C 10.4 4.5 10.3 4.4 10.2 4.4 C 10.2 4.3 10.1 4.2 10.1 4.1 C 10.1 3.9 10.1 3.6 10.2 3.2 C 10.2 3.2 10.3 2.6 10.4 1.4 C 10.4 1.3 10.4 1.3 10.4 1.2 C 10.4 1.2 10.4 1.1 10.4 1.1 C 10.4 1 10.4 0.9 10.5 0.9 C 10.6 0.8 10.6 0.8 10.7 0.8 C 10.7 0.8 10.8 0.8 10.8 0.8 C 10.9 0.8 10.9 0.8 11 0.8 C 11.1 0.8 11.3 0.8 11.8 0.7 C 12.1 0.7 12.3 0.7 12.4 0.7 C 12.6 0.7 12.7 0.7 12.8 0.8 C 12.9 0.8 12.9 0.8 12.9 0.9 C 12.9 1 12.9 1.1 12.7 1.2 C 12.7 1.2 12.7 1.2 12.7 1.2 Z M 13.8 1.8 C 13.8 2 13.7 2.1 13.7 2.2 C 13.7 2.2 13.7 2.3 13.7 2.5 C 13.6 2.9 13.6 3.1 13.6 3.3 C 13.6 3.5 13.6 3.7 13.6 3.9 C 13.7 4 13.6 4.2 13.6 4.2 C 13.5 4.3 13.4 4.3 13.3 4.3 C 13.2 4.3 13.1 4.3 13.1 4.2 C 13 4.1 13 3.9 13 3.7 C 13 3.5 13 3.1 13.1 2.6 C 13.1 2.6 13.2 1.6 13.2 1.6 C 13.3 1.5 13.3 1.3 13.3 1.2 C 13.3 1 13.3 0.9 13.4 0.9 C 13.4 0.8 13.4 0.8 13.5 0.8 C 13.6 0.7 13.6 0.7 13.7 0.7 C 13.8 0.7 13.9 0.7 13.9 0.8 C 14 0.9 14 1 14 1.1 C 14 1.1 13.8 1.8 13.8 1.8 Z M 14.5 3.4 C 14.5 3.4 14.68 2.62 14.7 2.6 C 14.8 2 14.9 1.5 14.9 1.3 C 14.9 1.1 14.9 1.1 14.9 1 C 14.9 1 15 0.9 15 0.9 C 15.1 0.8 15.2 0.8 15.2 0.8 C 15.3 0.8 15.3 0.8 15.4 0.9 C 15.5 0.9 15.5 1 15.6 1.2 C 15.6 1.5 15.8 1.8 16.1 2.3 C 16.4 2.8 16.6 3.1 16.9 3.4 C 16.9 3.1 17 2.8 17.1 2.3 C 17.1 2 17.2 1.7 17.2 1.5 C 17.3 1.3 17.3 1.1 17.3 1 C 17.3 0.8 17.3 0.7 17.4 0.7 C 17.5 0.6 17.6 0.6 17.7 0.6 C 17.7 0.6 17.8 0.7 17.8 0.7 C 17.9 0.8 17.9 0.9 17.9 1 C 17.9 1.1 17.9 1.2 17.8 1.4 C 17.7 1.8 17.6 2.2 17.5 2.8 C 17.4 3.4 17.4 3.7 17.4 3.8 C 17.4 3.8 17.4 3.9 17.4 3.9 C 17.4 4 17.4 4.1 17.4 4.1 C 17.3 4.2 17.3 4.2 17.2 4.3 C 17.2 4.3 17.1 4.3 17 4.3 C 16.9 4.3 16.9 4.3 16.9 4.3 C 16.8 4.3 16.8 4.3 16.8 4.2 C 16.7 4.1 16.7 4.1 16.6 4 C 16.5 3.8 16.5 3.8 16.4 3.7 C 16 3.2 15.7 2.6 15.3 2 C 15.3 2.2 15.2 2.6 15.1 3.4 C 15.1 3.4 15.1 3.6 15.1 3.6 C 15 3.7 15 3.8 15 3.9 C 15 4.1 15 4.2 14.9 4.3 C 14.8 4.4 14.8 4.4 14.7 4.4 C 14.6 4.4 14.5 4.4 14.5 4.3 C 14.4 4.3 14.4 4.2 14.4 4 C 14.4 3.9 14.4 3.7 14.5 3.5 C 14.5 3.46 14.5 3.4 14.5 3.4 Z M 19.1 3.5 C 19.1 3.5 19 3.5 19 3.5 C 19 3.5 18.9 3.7 18.7 3.9 C 18.6 4.1 18.5 4.3 18.4 4.3 C 18.4 4.3 18.3 4.3 18.3 4.3 C 18.2 4.3 18.2 4.3 18.1 4.2 C 18 4.2 18 4.1 18 4 C 18 4 18.2 3.6 18.6 3 C 18.8 2.7 19 2.3 19.2 2 C 19.5 1.3 19.8 0.9 19.9 0.8 C 19.9 0.7 20 0.7 20.1 0.7 C 20.2 0.7 20.3 0.7 20.4 0.8 C 20.4 0.8 20.5 0.9 20.5 0.9 C 20.5 1 20.4 1.1 20.4 1.1 C 20.7 2 21 2.6 21.1 3 C 21.3 3.4 21.5 3.7 21.6 3.8 C 21.7 3.9 21.8 4 21.8 4 C 21.8 4 21.8 4.1 21.8 4.1 C 21.8 4.2 21.8 4.3 21.7 4.4 C 21.7 4.4 21.6 4.4 21.5 4.4 C 21.4 4.4 21.2 4.4 21.1 4.2 C 21 4.1 20.9 3.9 20.8 3.6 C 20.6 3.4 20.6 3.2 20.6 3.2 C 20.6 3.2 20.6 3.2 20.6 3.2 C 20.5 3.2 20.3 3.2 20 3.3 C 19.7 3.4 19.4 3.4 19.3 3.5 C 19.2 3.5 19.2 3.5 19.1 3.5 C 19.1 3.5 19.1 3.5 19.1 3.5 Z M 20.2 2.8 C 20.2 2.7 20.3 2.7 20.4 2.7 C 20.4 2.6 20.2 2.3 20 1.7 C 20 1.6 20 1.6 20 1.6 C 20 1.6 19.3 2.9 19.3 2.9 C 19.4 2.9 19.5 2.9 19.6 2.9 C 19.7 2.8 19.9 2.8 20.2 2.8 C 20.2 2.8 20.2 2.8 20.2 2.8 Z M 24.5 4.1 C 24.4 4.1 24.4 4.1 24.3 4.1 C 24.2 4.1 24.1 4.1 24.1 4.1 C 23.6 4.1 23.2 4.2 22.8 4.3 C 22.6 4.4 22.5 4.4 22.4 4.4 C 22.3 4.4 22.2 4.3 22.2 4.3 C 22.1 4.2 22.1 4.1 22.1 4 C 22.1 4 22.1 3.9 22.1 3.8 C 22.2 3.7 22.2 3.5 22.2 3.3 C 22.2 3.3 22.4 1.3 22.4 1.3 C 22.5 1.1 22.5 1 22.5 0.9 C 22.5 0.9 22.5 0.8 22.6 0.8 C 22.7 0.7 22.7 0.7 22.8 0.7 C 22.9 0.7 23 0.7 23 0.8 C 23.1 0.8 23.1 0.9 23.1 1 C 23.1 1 23.1 1.1 23.1 1.3 C 23 1.5 23 2 22.9 2.6 C 22.8 3.3 22.8 3.6 22.8 3.6 C 22.8 3.7 22.8 3.7 22.8 3.7 C 22.9 3.7 23 3.7 23.3 3.6 C 23.4 3.6 23.6 3.6 23.7 3.6 C 24.1 3.6 24.4 3.6 24.5 3.5 C 24.6 3.5 24.6 3.5 24.6 3.5 C 24.7 3.5 24.8 3.5 24.8 3.6 C 24.9 3.6 24.9 3.7 24.9 3.8 C 24.9 3.9 24.9 4 24.8 4 C 24.7 4.1 24.6 4.1 24.5 4.1 Z M 27.2 3.9 C 27.2 3.8 27.2 3.6 27.2 3.4 C 27.3 2.9 27.3 2.3 27.4 1.6 C 27.5 1.5 27.5 1.4 27.5 1.4 C 27.5 1.3 27.5 1.3 27.4 1.3 C 27.3 1.3 27.2 1.2 27.2 1.1 C 27.2 1 27.2 0.9 27.3 0.8 C 27.4 0.8 27.4 0.7 27.5 0.7 C 27.5 0.7 27.8 0.8 27.8 0.8 C 28 0.8 28.2 0.7 28.5 0.7 C 28.7 0.7 28.9 0.7 29 0.7 C 29.5 0.7 29.8 0.8 30.1 1.1 C 30.4 1.3 30.5 1.7 30.5 2.1 C 30.5 2.6 30.3 3 29.9 3.4 C 29.4 3.7 28.9 4 28.3 4.1 C 28.1 4.2 28 4.2 28 4.2 C 27.9 4.3 27.8 4.3 27.7 4.4 C 27.6 4.4 27.5 4.5 27.4 4.5 C 27.3 4.5 27.2 4.4 27.2 4.3 C 27.1 4.3 27.1 4.2 27.1 4.2 C 27.1 4.1 27.1 4.1 27.1 4 C 27.1 4 27.2 3.9 27.2 3.9 Z M 27.8 3.6 C 27.8 3.6 27.8 3.7 27.8 3.7 C 27.9 3.7 28.2 3.7 28.6 3.5 C 29 3.4 29.3 3.2 29.6 3 C 29.8 2.7 29.9 2.4 29.9 2.1 C 29.9 1.8 29.8 1.6 29.7 1.4 C 29.5 1.3 29.2 1.2 28.9 1.2 C 28.7 1.2 28.5 1.2 28.2 1.2 C 28.1 1.3 28.1 1.3 28.1 1.3 C 27.9 2.3 27.8 3.1 27.8 3.6 C 27.8 3.6 27.8 3.6 27.8 3.6 Z M 31.9 4.4 C 31.6 4.4 31.4 4.3 31.1 4 C 30.9 3.8 30.8 3.5 30.8 3.2 C 30.8 2.9 30.9 2.5 31.1 2.1 C 31.3 1.7 31.6 1.3 31.9 1.1 C 32.2 0.8 32.6 0.7 32.9 0.7 C 33.2 0.7 33.4 0.7 33.6 0.8 C 33.8 0.8 33.9 0.9 34.1 1.1 C 34.2 1.2 34.3 1.3 34.4 1.5 C 34.4 1.6 34.5 1.8 34.5 2 C 34.5 2.2 34.4 2.5 34.3 2.8 C 34.1 3.1 33.9 3.3 33.7 3.6 C 33.4 3.9 33.2 4.1 32.9 4.2 C 32.6 4.3 32.3 4.4 31.9 4.4 Z M 31.4 3.2 C 31.4 3.4 31.5 3.5 31.6 3.7 C 31.7 3.8 31.9 3.9 32 3.9 C 32.5 3.9 32.9 3.7 33.3 3.3 C 33.6 2.8 33.8 2.4 33.8 1.9 C 33.8 1.8 33.8 1.6 33.7 1.5 C 33.7 1.4 33.6 1.3 33.4 1.3 C 33.3 1.2 33.1 1.2 32.9 1.2 C 32.6 1.2 32.3 1.4 31.9 1.8 C 31.6 2.3 31.4 2.7 31.4 3.2 Z M 40.1 1.7 C 40.2 1.7 40.2 1.6 40.2 1.6 C 40.2 1.6 39.4 2.7 39.4 2.7 C 39 3.2 38.7 3.4 38.5 3.4 C 38.4 3.4 38.3 3.4 38.2 3.3 C 38.2 3.2 38.1 3 38 2.8 C 37.9 2.6 37.9 2.4 37.9 2.3 C 37.8 2 37.7 1.9 37.7 1.8 C 37.7 1.8 37.6 2.5 37.6 2.5 C 37.5 2.7 37.5 2.9 37.5 3 C 37.4 3.2 37.4 3.4 37.3 3.7 C 37.3 3.9 37.3 4.1 37.2 4.2 C 37.2 4.2 37.2 4.3 37.1 4.3 C 37.1 4.4 37 4.4 37 4.4 C 36.9 4.4 36.8 4.4 36.7 4.3 C 36.7 4.2 36.6 4.2 36.6 4.1 C 36.6 3.9 36.7 3.7 36.7 3.5 C 37 2.5 37.2 1.9 37.2 1.6 C 37.2 1.4 37.3 1.2 37.3 1 C 37.3 0.9 37.3 0.8 37.4 0.8 C 37.4 0.7 37.5 0.7 37.7 0.7 C 37.7 0.7 37.8 0.8 37.9 0.8 C 37.9 0.9 38 1 38 1.1 C 38 1.09 38 1.1 38 1.1 C 38 1.1 38.34 2.04 38.3 2 C 38.5 2.4 38.6 2.7 38.6 2.8 C 38.8 2.6 39 2.2 39.4 1.8 C 39.7 1.3 40 1 40.1 0.9 C 40.2 0.7 40.3 0.7 40.4 0.7 C 40.4 0.7 40.5 0.7 40.6 0.8 C 40.7 0.8 40.8 0.9 40.8 0.9 C 40.8 1 40.7 1.2 40.7 1.7 C 40.6 2 40.6 2.3 40.6 2.7 C 40.5 3.1 40.5 3.4 40.5 3.4 C 40.5 3.5 40.5 3.6 40.5 3.7 C 40.6 3.8 40.6 3.9 40.6 3.9 C 40.6 4.1 40.5 4.2 40.5 4.2 C 40.4 4.3 40.3 4.3 40.2 4.3 C 40 4.3 39.9 4.2 39.9 3.9 C 39.9 3.5 39.9 3.2 40 2.7 C 40 2.3 40.1 2 40.1 1.7 C 40.1 1.7 40.1 1.7 40.1 1.7 Z M 44.1 1.2 C 44.1 1.2 43.4 1.3 43.4 1.3 C 43.1 1.3 42.9 1.3 42.7 1.3 C 42.5 1.4 42.4 1.4 42.4 1.4 C 42.4 1.4 42.4 1.5 42.4 1.6 C 42.3 1.6 42.3 1.8 42.3 2 C 42.2 2.1 42.2 2.3 42.2 2.4 C 42.3 2.4 42.5 2.4 42.6 2.3 C 42.8 2.3 43 2.3 43.1 2.3 C 43.3 2.2 43.5 2.2 43.6 2.2 C 43.9 2.2 44 2.3 44 2.4 C 44 2.5 44 2.6 43.9 2.7 C 43.8 2.7 43.7 2.7 43.5 2.7 C 43.5 2.7 43.3 2.8 43.2 2.8 C 43.2 2.8 43.1 2.8 43 2.8 C 42.5 2.9 42.3 2.9 42.2 2.9 C 42.2 2.9 42.2 2.9 42.2 2.9 C 42.2 2.9 42.1 3 42.1 3 C 42.1 3 42.1 3.1 42.1 3.4 C 42 3.6 42 3.7 42 3.8 C 42 3.9 42.1 3.9 42.1 3.9 C 42.2 3.9 42.4 3.9 42.7 3.8 C 43.1 3.8 43.3 3.8 43.4 3.7 C 43.6 3.7 43.7 3.7 43.8 3.7 C 44 3.7 44.1 3.8 44.1 4 C 44.1 4 44.1 4.1 44 4.1 C 43.9 4.2 43.6 4.2 43.4 4.3 C 43.1 4.3 42.9 4.3 42.5 4.3 C 42.3 4.4 42 4.4 41.7 4.4 C 41.6 4.4 41.5 4.4 41.5 4.3 C 41.4 4.3 41.4 4.2 41.3 4.1 C 41.3 4.1 41.3 4 41.3 4 C 41.3 4 41.4 3.9 41.4 3.9 C 41.4 3.7 41.5 3.2 41.6 2.5 C 41.7 1.8 41.8 1.4 41.8 1.4 C 41.8 1.4 41.8 1.4 41.7 1.4 C 41.7 1.3 41.7 1.3 41.7 1.3 C 41.7 1.2 41.7 1.1 41.7 1.1 C 41.7 1.1 41.7 1 41.7 1 C 41.7 1 41.7 1 41.8 0.9 C 41.8 0.9 41.9 0.9 41.9 0.9 C 42 0.9 42.1 0.9 42.2 0.9 C 42.3 0.9 42.8 0.8 43.5 0.7 C 43.7 0.7 43.9 0.7 43.9 0.7 C 43.9 0.7 43.9 0.7 43.9 0.7 C 44.2 0.7 44.4 0.8 44.4 1 C 44.4 1 44.3 1.1 44.3 1.1 C 44.2 1.2 44.2 1.2 44.1 1.2 Z M 43.5 -0.1 C 43.4 -0.3 43.3 -0.4 43.3 -0.5 C 43.2 -0.4 43.1 -0.4 43.1 -0.3 C 43 -0.3 43 -0.2 43 -0.2 C 43 -0.2 43 -0.2 43 -0.2 C 42.9 -0.2 42.9 -0.1 42.8 -0.1 C 42.8 0 42.7 0.1 42.6 0.2 C 42.5 0.2 42.5 0.3 42.4 0.3 C 42.3 0.3 42.3 0.3 42.3 0.2 C 42.2 0.2 42.2 0.1 42.2 0 C 42.2 -0.1 42.3 -0.1 42.4 -0.2 C 42.4 -0.3 42.4 -0.3 42.4 -0.3 C 42.4 -0.3 42.6 -0.5 42.6 -0.5 C 42.7 -0.6 42.8 -0.7 42.9 -0.8 C 43.1 -1 43.2 -1.1 43.3 -1.1 C 43.4 -1.1 43.6 -1 43.7 -0.6 C 43.8 -0.6 43.8 -0.5 43.8 -0.4 C 43.9 -0.4 43.9 -0.4 43.9 -0.4 C 44 -0.3 44 -0.2 44.1 -0.1 C 44.2 -0.1 44.2 0 44.2 0 C 44.2 0.1 44.2 0.1 44.2 0.1 C 44.2 0.2 44.2 0.2 44.2 0.3 C 44.1 0.3 44.1 0.4 44 0.4 C 43.9 0.4 43.8 0.3 43.6 0.1 C 43.6 0 43.6 0 43.5 -0.1 C 43.5 -0.1 43.5 -0.1 43.5 -0.1 Z M 47.4 1.2 C 47.4 1.5 47.2 1.6 46.9 1.6 C 46.9 1.5 46.9 1.4 46.8 1.3 C 46.7 1.2 46.6 1.2 46.4 1.2 C 46.1 1.2 45.9 1.3 45.6 1.4 C 45.4 1.5 45.3 1.7 45.3 1.8 C 45.3 1.9 45.3 2 45.4 2.1 C 45.5 2.2 45.7 2.3 46.1 2.4 C 46.5 2.5 46.8 2.6 47 2.7 C 47.2 2.9 47.3 3 47.3 3.2 C 47.3 3.5 47 3.8 46.5 4.1 C 46.1 4.3 45.6 4.5 45 4.5 C 44.9 4.5 44.7 4.4 44.6 4.4 C 44.5 4.3 44.5 4.2 44.5 4.1 C 44.5 4 44.5 4 44.6 3.9 C 44.6 3.8 44.7 3.8 44.7 3.8 C 44.8 3.8 44.8 3.8 44.8 3.8 C 45 3.9 45.2 3.9 45.3 3.9 C 45.6 3.9 45.9 3.8 46.2 3.7 C 46.5 3.6 46.6 3.4 46.6 3.3 C 46.6 3.2 46.6 3.2 46.5 3.1 C 46.4 3.1 46.3 3 46 2.9 C 45.7 2.8 45.4 2.7 45.2 2.6 C 45.1 2.6 44.9 2.5 44.8 2.3 C 44.7 2.2 44.7 2.1 44.7 1.9 C 44.7 1.6 44.9 1.3 45.2 1 C 45.6 0.8 46 0.7 46.5 0.7 C 46.8 0.7 47 0.7 47.1 0.8 C 47.3 0.9 47.4 1.1 47.4 1.2 C 47.4 1.2 47.4 1.2 47.4 1.2 Z M 52.4 1.2 C 52.4 1.2 51.7 1.3 51.7 1.3 C 51.4 1.3 51.2 1.3 51 1.3 C 50.8 1.4 50.7 1.4 50.7 1.4 C 50.7 1.4 50.7 1.5 50.7 1.6 C 50.6 1.6 50.6 1.8 50.6 2 C 50.5 2.1 50.5 2.3 50.5 2.4 C 50.6 2.4 50.7 2.4 50.9 2.3 C 51.1 2.3 51.3 2.3 51.4 2.3 C 51.6 2.2 51.8 2.2 51.9 2.2 C 52.2 2.2 52.3 2.3 52.3 2.4 C 52.3 2.5 52.3 2.6 52.2 2.7 C 52.1 2.7 52 2.7 51.8 2.7 C 51.7 2.7 51.6 2.8 51.5 2.8 C 51.5 2.8 51.4 2.8 51.3 2.8 C 50.8 2.9 50.6 2.9 50.5 2.9 C 50.5 2.9 50.5 2.9 50.5 2.9 C 50.5 2.9 50.4 3 50.4 3 C 50.4 3 50.4 3.1 50.4 3.4 C 50.3 3.6 50.3 3.7 50.3 3.8 C 50.3 3.9 50.3 3.9 50.4 3.9 C 50.5 3.9 50.7 3.9 51 3.8 C 51.4 3.8 51.6 3.8 51.6 3.7 C 51.9 3.7 52 3.7 52.1 3.7 C 52.3 3.7 52.4 3.8 52.4 4 C 52.4 4 52.4 4.1 52.3 4.1 C 52.2 4.2 51.9 4.2 51.6 4.3 C 51.4 4.3 51.2 4.3 50.8 4.3 C 50.6 4.4 50.3 4.4 50 4.4 C 49.9 4.4 49.8 4.4 49.8 4.3 C 49.7 4.3 49.7 4.2 49.6 4.1 C 49.6 4.1 49.6 4 49.6 4 C 49.6 4 49.7 3.9 49.7 3.9 C 49.7 3.7 49.8 3.2 49.9 2.5 C 50 1.8 50.1 1.4 50.1 1.4 C 50.1 1.4 50.1 1.4 50 1.4 C 50 1.3 50 1.3 50 1.3 C 50 1.2 49.9 1.1 49.9 1.1 C 49.9 1.1 50 1 50 1 C 50 1 50 1 50.1 0.9 C 50.1 0.9 50.2 0.9 50.2 0.9 C 50.3 0.9 50.4 0.9 50.5 0.9 C 50.6 0.9 51 0.8 51.8 0.7 C 52 0.7 52.2 0.7 52.2 0.7 C 52.2 0.7 52.2 0.7 52.2 0.7 C 52.5 0.7 52.7 0.8 52.7 1 C 52.7 1 52.6 1.1 52.6 1.1 C 52.5 1.2 52.5 1.2 52.4 1.2 Z M 55.7 1.2 C 55.7 1.5 55.5 1.6 55.2 1.6 C 55.2 1.5 55.2 1.4 55.1 1.3 C 55 1.2 54.9 1.2 54.7 1.2 C 54.4 1.2 54.2 1.3 53.9 1.4 C 53.7 1.5 53.6 1.7 53.6 1.8 C 53.6 1.9 53.6 2 53.7 2.1 C 53.8 2.2 54 2.3 54.4 2.4 C 54.8 2.5 55.1 2.6 55.3 2.7 C 55.5 2.9 55.6 3 55.6 3.2 C 55.6 3.5 55.3 3.8 54.8 4.1 C 54.4 4.3 53.9 4.5 53.3 4.5 C 53.2 4.5 53 4.4 52.9 4.4 C 52.8 4.3 52.8 4.2 52.8 4.1 C 52.8 4 52.8 4 52.9 3.9 C 52.9 3.8 53 3.8 53 3.8 C 53.1 3.8 53.1 3.8 53.1 3.8 C 53.3 3.9 53.5 3.9 53.6 3.9 C 53.9 3.9 54.1 3.8 54.5 3.7 C 54.8 3.6 54.9 3.4 54.9 3.3 C 54.9 3.2 54.9 3.2 54.8 3.1 C 54.7 3.1 54.6 3 54.3 2.9 C 54 2.8 53.7 2.7 53.5 2.6 C 53.4 2.6 53.2 2.5 53.1 2.3 C 53 2.2 53 2.1 53 1.9 C 53 1.6 53.2 1.3 53.5 1 C 53.9 0.8 54.3 0.7 54.8 0.7 C 55.1 0.7 55.3 0.7 55.4 0.8 C 55.6 0.9 55.7 1.1 55.7 1.2 C 55.7 1.2 55.7 1.2 55.7 1.2 Z M 58.7 1.2 C 58.7 1.5 58.6 1.6 58.3 1.6 C 58.3 1.5 58.2 1.4 58.2 1.3 C 58.1 1.2 57.9 1.2 57.8 1.2 C 57.5 1.2 57.3 1.3 57 1.4 C 56.8 1.5 56.7 1.7 56.7 1.8 C 56.7 1.9 56.7 2 56.8 2.1 C 56.9 2.2 57.1 2.3 57.5 2.4 C 57.9 2.5 58.2 2.6 58.4 2.7 C 58.5 2.9 58.6 3 58.6 3.2 C 58.6 3.5 58.4 3.8 57.9 4.1 C 57.4 4.3 56.9 4.5 56.4 4.5 C 56.3 4.5 56.1 4.4 56 4.4 C 55.9 4.3 55.9 4.2 55.9 4.1 C 55.9 4 55.9 4 55.9 3.9 C 56 3.8 56 3.8 56.1 3.8 C 56.1 3.8 56.2 3.8 56.2 3.8 C 56.4 3.9 56.5 3.9 56.7 3.9 C 56.9 3.9 57.2 3.8 57.5 3.7 C 57.9 3.6 58 3.4 58 3.3 C 58 3.2 58 3.2 57.9 3.1 C 57.8 3.1 57.7 3 57.4 2.9 C 57.1 2.8 56.8 2.7 56.6 2.6 C 56.4 2.6 56.3 2.5 56.2 2.3 C 56.1 2.2 56.1 2.1 56.1 1.9 C 56.1 1.6 56.3 1.3 56.6 1 C 57 0.8 57.4 0.7 57.9 0.7 C 58.1 0.7 58.4 0.7 58.5 0.8 C 58.7 0.9 58.7 1.1 58.7 1.2 C 58.7 1.2 58.7 1.2 58.7 1.2 Z M 61.9 1.2 C 61.9 1.2 61.1 1.3 61.1 1.3 C 60.9 1.3 60.7 1.3 60.5 1.3 C 60.3 1.4 60.2 1.4 60.2 1.4 C 60.1 1.4 60.1 1.5 60.1 1.6 C 60.1 1.6 60.1 1.8 60 2 C 60 2.1 60 2.3 60 2.4 C 60.1 2.4 60.2 2.4 60.4 2.3 C 60.6 2.3 60.8 2.3 60.8 2.3 C 61.1 2.2 61.3 2.2 61.4 2.2 C 61.6 2.2 61.8 2.3 61.8 2.4 C 61.8 2.5 61.7 2.6 61.7 2.7 C 61.6 2.7 61.5 2.7 61.3 2.7 C 61.2 2.7 61.1 2.8 61 2.8 C 60.9 2.8 60.9 2.8 60.8 2.8 C 60.3 2.9 60.1 2.9 60 2.9 C 60 2.9 60 2.9 60 2.9 C 59.9 2.9 59.9 3 59.9 3 C 59.9 3 59.9 3.1 59.8 3.4 C 59.8 3.6 59.8 3.7 59.8 3.8 C 59.8 3.9 59.8 3.9 59.9 3.9 C 60 3.9 60.2 3.9 60.5 3.8 C 60.8 3.8 61 3.8 61.1 3.7 C 61.4 3.7 61.5 3.7 61.6 3.7 C 61.8 3.7 61.9 3.8 61.9 4 C 61.9 4 61.8 4.1 61.8 4.1 C 61.6 4.2 61.4 4.2 61.1 4.3 C 60.9 4.3 60.6 4.3 60.3 4.3 C 60 4.4 59.8 4.4 59.5 4.4 C 59.4 4.4 59.3 4.4 59.2 4.3 C 59.2 4.3 59.1 4.2 59.1 4.1 C 59.1 4.1 59.1 4 59.1 4 C 59.1 4 59.1 3.9 59.2 3.9 C 59.2 3.7 59.3 3.2 59.4 2.5 C 59.5 1.8 59.5 1.4 59.5 1.4 C 59.5 1.4 59.5 1.4 59.5 1.4 C 59.5 1.3 59.5 1.3 59.5 1.3 C 59.4 1.2 59.4 1.1 59.4 1.1 C 59.4 1.1 59.4 1 59.4 1 C 59.4 1 59.5 1 59.5 0.9 C 59.6 0.9 59.7 0.9 59.7 0.9 C 59.8 0.9 59.9 0.9 60 0.9 C 60.1 0.9 60.5 0.8 61.3 0.7 C 61.5 0.7 61.6 0.7 61.7 0.7 C 61.7 0.7 61.7 0.7 61.7 0.7 C 62 0.7 62.1 0.8 62.1 1 C 62.1 1 62.1 1.1 62.1 1.1 C 62 1.2 61.9 1.2 61.9 1.2 Z M 67.5 2.7 C 67.4 2.8 67.4 2.9 67.3 3 C 67.3 3 67.3 3 67.3 3 C 67.3 3.2 67.3 3.4 67.2 3.6 C 67.2 3.8 67.2 4 67.2 4.1 C 67.2 4.3 67.2 4.4 67.2 4.5 C 67.1 4.5 67.1 4.6 67.1 4.6 C 67.1 4.7 67 4.7 67 4.7 C 67 4.8 66.9 4.8 66.9 4.8 C 66.8 4.8 66.7 4.7 66.6 4.7 C 66.5 4.6 66.5 4.6 66.5 4.5 C 66.5 4.4 66.5 4.3 66.6 4.1 C 66.6 3.9 66.6 3.8 66.7 3.6 C 66.1 4 65.6 4.2 65.2 4.2 C 64.9 4.2 64.7 4.2 64.5 4 C 64.3 3.8 64.2 3.6 64.2 3.3 C 64.2 2.8 64.4 2.4 64.7 1.9 C 64.7 1.9 64.7 1.9 64.7 1.9 C 65 1.5 65.3 1.2 65.7 0.9 C 66.1 0.6 66.5 0.5 66.9 0.5 C 67.1 0.5 67.3 0.5 67.4 0.6 C 67.6 0.7 67.6 0.8 67.6 0.9 C 67.6 1 67.6 1.1 67.5 1.2 C 67.4 1.4 67.3 1.4 67.2 1.4 C 67.2 1.4 67.1 1.4 67.1 1.4 C 67.1 1.4 67.1 1.3 67 1.3 C 67 1.2 67 1.1 66.9 1.1 C 66.9 1.1 66.8 1.1 66.8 1.1 C 66.5 1.1 66.2 1.2 65.9 1.4 C 65.6 1.7 65.3 2 65.1 2.3 C 64.9 2.6 64.8 2.9 64.8 3.2 C 64.8 3.6 65 3.7 65.3 3.7 C 65.4 3.7 65.6 3.7 65.8 3.6 C 66 3.5 66.2 3.4 66.4 3.3 C 66.6 3.1 66.7 3 66.8 2.8 C 66.8 2.7 66.9 2.6 66.9 2.4 C 66.9 2.3 66.9 2.3 67 2.2 C 67 2.2 67.1 2.2 67.2 2.2 C 67.4 2.2 67.5 2.3 67.5 2.4 C 67.5 2.5 67.5 2.6 67.5 2.7 C 67.5 2.7 67.5 2.7 67.5 2.7 Z M 68.4 1.3 C 68.4 1.3 68.4 1.25 68.4 1.3 C 68.4 1.2 68.3 1.1 68.3 1.1 C 68.3 1 68.4 0.9 68.4 0.9 C 68.5 0.8 68.6 0.8 68.7 0.8 C 68.7 0.8 68.7 0.8 68.8 0.8 C 68.8 0.8 68.8 0.8 68.9 0.8 C 69.3 0.7 69.7 0.7 69.9 0.7 C 70.2 0.7 70.5 0.8 70.7 0.9 C 70.9 1.1 71 1.3 71 1.6 C 71 1.8 70.9 2 70.7 2.3 C 70.5 2.5 70.2 2.7 69.9 2.8 C 70.5 3.3 70.9 3.6 71.2 3.8 C 71.3 3.8 71.4 3.9 71.4 4 C 71.4 4.1 71.3 4.1 71.3 4.2 C 71.2 4.3 71.1 4.3 71.1 4.3 C 71 4.3 70.9 4.3 70.7 4.2 C 70.6 4.1 70.4 4 70.2 3.8 C 70 3.6 69.9 3.5 69.8 3.5 C 69.5 3.2 69.3 3 69.2 3 C 69 3 68.9 2.9 68.9 2.7 C 68.9 2.6 69 2.6 69 2.5 C 69.1 2.4 69.2 2.4 69.3 2.4 C 69.3 2.4 69.3 2.4 69.4 2.4 C 69.4 2.4 69.4 2.4 69.4 2.4 C 69.6 2.4 69.7 2.4 70 2.2 C 70.3 2 70.4 1.8 70.4 1.6 C 70.4 1.5 70.4 1.4 70.3 1.3 C 70.2 1.2 70 1.2 69.8 1.2 C 69.6 1.2 69.4 1.2 69.3 1.2 C 69.2 1.2 69.1 1.2 69.1 1.3 C 69.1 1.3 69.1 1.3 69 1.3 C 69 1.4 69 1.5 68.9 1.8 C 68.9 2.1 68.8 2.5 68.8 2.8 C 68.7 3.2 68.7 3.4 68.7 3.6 C 68.7 3.7 68.7 3.8 68.7 3.9 C 68.7 3.9 68.8 4 68.8 4.1 C 68.8 4.1 68.7 4.2 68.7 4.3 C 68.6 4.3 68.5 4.4 68.4 4.4 C 68.2 4.4 68.1 4.2 68.1 3.9 C 68.1 3.6 68.1 3.3 68.2 2.8 C 68.2 2.4 68.3 2 68.4 1.6 C 68.4 1.6 68.4 1.5 68.4 1.5 C 68.4 1.48 68.4 1.3 68.4 1.3 Z M 73 4.4 C 72.9 4.4 72.7 4.4 72.4 4.2 C 72.2 4.1 72 4 71.9 3.7 C 71.8 3.4 71.7 3.1 71.7 2.8 C 71.7 2.7 71.7 2.5 71.8 2.2 C 71.8 2.2 71.8 1.8 71.8 1.8 C 71.9 1.7 71.9 1.6 71.9 1.6 C 71.9 1.4 71.9 1.3 71.9 1.2 C 72 1.1 72 0.9 72 0.8 C 72.1 0.7 72.2 0.7 72.3 0.7 C 72.4 0.7 72.4 0.7 72.5 0.8 C 72.6 0.9 72.6 1 72.6 1 C 72.6 1.1 72.5 1.3 72.5 1.6 C 72.4 1.7 72.4 1.9 72.4 2.2 C 72.3 2.5 72.3 2.7 72.3 2.8 C 72.3 3.2 72.4 3.5 72.6 3.7 C 72.7 3.8 72.9 3.9 73 3.9 C 73.4 3.9 73.7 3.8 73.9 3.6 C 74 3.4 74.1 3.1 74.2 2.7 C 74.2 2.7 74.2 2.6 74.2 2.5 C 74.2 2.4 74.2 2.2 74.3 2.1 C 74.3 1.5 74.4 1.1 74.4 1 C 74.5 0.8 74.6 0.8 74.7 0.8 C 74.9 0.8 75 0.9 75 1.1 C 75 1.2 75 1.5 74.9 1.8 C 74.9 2 74.8 2.2 74.8 2.5 C 74.8 2.9 74.7 3.3 74.6 3.5 C 74.5 3.8 74.3 4 74 4.1 C 73.8 4.3 73.4 4.4 73 4.4 Z M 76.5 3.1 C 76.3 3.1 76.2 3.1 76.2 3.1 C 76.1 3.5 76.1 3.8 76.1 4.1 C 76.1 4.1 76.1 4.2 76 4.3 C 76 4.4 75.9 4.4 75.8 4.4 C 75.6 4.4 75.5 4.3 75.5 4 C 75.5 3.9 75.6 3.5 75.7 2.7 C 75.7 2.1 75.8 1.8 75.8 1.7 C 75.8 1.5 75.8 1.5 75.8 1.4 C 75.6 1.4 75.6 1.3 75.6 1.2 C 75.6 1 75.8 0.9 76.3 0.8 C 76.7 0.7 77.1 0.6 77.4 0.6 C 77.8 0.6 78 0.7 78.3 0.9 C 78.5 1 78.6 1.2 78.6 1.5 C 78.6 1.9 78.4 2.2 78 2.5 C 77.6 2.7 77.1 2.9 76.5 3.1 C 76.5 3.1 76.5 3.1 76.5 3.1 Z M 77.4 1.1 C 77.1 1.1 76.7 1.2 76.4 1.3 C 76.4 1.3 76.2 2.6 76.2 2.6 C 76.7 2.5 77.1 2.4 77.5 2.2 C 77.8 2 78 1.8 78 1.5 C 78 1.3 77.8 1.1 77.4 1.1 C 77.4 1.1 77.4 1.1 77.4 1.1 Z M 79.8 4.4 C 79.5 4.4 79.3 4.3 79 4 C 78.8 3.8 78.7 3.5 78.7 3.2 C 78.7 2.9 78.8 2.5 79 2.1 C 79.2 1.7 79.5 1.3 79.8 1.1 C 80.1 0.8 80.5 0.7 80.8 0.7 C 81.1 0.7 81.3 0.7 81.5 0.8 C 81.7 0.8 81.8 0.9 82 1.1 C 82.1 1.2 82.2 1.3 82.3 1.5 C 82.3 1.6 82.4 1.8 82.4 2 C 82.4 2.2 82.3 2.5 82.2 2.8 C 82 3.1 81.8 3.3 81.6 3.6 C 81.3 3.9 81.1 4.1 80.8 4.2 C 80.5 4.3 80.2 4.4 79.8 4.4 Z M 79.3 3.2 C 79.3 3.4 79.4 3.5 79.5 3.7 C 79.6 3.8 79.8 3.9 79.9 3.9 C 80.4 3.9 80.8 3.7 81.2 3.3 C 81.5 2.8 81.7 2.4 81.7 1.9 C 81.7 1.8 81.7 1.6 81.6 1.5 C 81.6 1.4 81.5 1.3 81.3 1.3 C 81.2 1.2 81 1.2 80.8 1.2 C 80.5 1.2 80.2 1.4 79.8 1.8 C 79.5 2.3 79.3 2.7 79.3 3.2 Z M 84.8 3.9 C 84.8 3.8 84.8 3.6 84.8 3.4 C 84.8 2.9 84.9 2.3 85 1.6 C 85 1.5 85 1.4 85 1.4 C 85 1.3 85 1.3 85 1.3 C 84.8 1.3 84.7 1.2 84.7 1.1 C 84.7 1 84.8 0.9 84.9 0.8 C 84.9 0.8 85 0.7 85.1 0.7 C 85.1 0.7 85.4 0.8 85.4 0.8 C 85.6 0.8 85.8 0.7 86 0.7 C 86.3 0.7 86.4 0.7 86.6 0.7 C 87 0.7 87.4 0.8 87.7 1.1 C 88 1.3 88.1 1.7 88.1 2.1 C 88.1 2.6 87.9 3 87.4 3.4 C 87 3.7 86.5 4 85.9 4.1 C 85.7 4.2 85.6 4.2 85.5 4.2 C 85.5 4.3 85.4 4.3 85.3 4.4 C 85.2 4.4 85.1 4.5 85 4.5 C 84.9 4.5 84.8 4.4 84.7 4.3 C 84.7 4.3 84.6 4.2 84.6 4.2 C 84.6 4.1 84.7 4.1 84.7 4 C 84.7 4 84.8 3.9 84.8 3.9 Z M 85.4 3.6 C 85.4 3.6 85.4 3.7 85.4 3.7 C 85.5 3.7 85.7 3.7 86.1 3.5 C 86.5 3.4 86.9 3.2 87.1 3 C 87.4 2.7 87.5 2.4 87.5 2.1 C 87.5 1.8 87.4 1.6 87.2 1.4 C 87 1.3 86.8 1.2 86.5 1.2 C 86.3 1.2 86 1.2 85.7 1.2 C 85.7 1.3 85.7 1.3 85.6 1.3 C 85.5 2.3 85.4 3.1 85.4 3.6 C 85.4 3.6 85.4 3.6 85.4 3.6 Z M 91.3 1.2 C 91.3 1.2 90.5 1.3 90.5 1.3 C 90.3 1.3 90 1.3 89.8 1.3 C 89.7 1.4 89.6 1.4 89.5 1.4 C 89.5 1.4 89.5 1.5 89.5 1.6 C 89.5 1.6 89.5 1.8 89.4 2 C 89.4 2.1 89.4 2.3 89.3 2.4 C 89.4 2.4 89.6 2.4 89.8 2.3 C 90 2.3 90.1 2.3 90.2 2.3 C 90.4 2.2 90.6 2.2 90.8 2.2 C 91 2.2 91.1 2.3 91.1 2.4 C 91.1 2.5 91.1 2.6 91 2.7 C 91 2.7 90.8 2.7 90.7 2.7 C 90.6 2.7 90.5 2.8 90.4 2.8 C 90.3 2.8 90.2 2.8 90.1 2.8 C 89.7 2.9 89.4 2.9 89.3 2.9 C 89.3 2.9 89.3 2.9 89.3 2.9 C 89.3 2.9 89.3 3 89.3 3 C 89.3 3 89.2 3.1 89.2 3.4 C 89.2 3.6 89.2 3.7 89.2 3.8 C 89.2 3.9 89.2 3.9 89.3 3.9 C 89.3 3.9 89.5 3.9 89.9 3.8 C 90.2 3.8 90.4 3.8 90.5 3.7 C 90.7 3.7 90.9 3.7 90.9 3.7 C 91.1 3.7 91.2 3.8 91.2 4 C 91.2 4 91.2 4.1 91.2 4.1 C 91 4.2 90.8 4.2 90.5 4.3 C 90.3 4.3 90 4.3 89.7 4.3 C 89.4 4.4 89.1 4.4 88.9 4.4 C 88.8 4.4 88.7 4.4 88.6 4.3 C 88.5 4.3 88.5 4.2 88.5 4.1 C 88.5 4.1 88.5 4 88.5 4 C 88.5 4 88.5 3.9 88.5 3.9 C 88.6 3.7 88.7 3.2 88.8 2.5 C 88.9 1.8 88.9 1.4 88.9 1.4 C 88.9 1.4 88.9 1.4 88.9 1.4 C 88.9 1.3 88.9 1.3 88.8 1.3 C 88.8 1.2 88.8 1.1 88.8 1.1 C 88.8 1.1 88.8 1 88.8 1 C 88.8 1 88.9 1 88.9 0.9 C 89 0.9 89 0.9 89.1 0.9 C 89.2 0.9 89.2 0.9 89.3 0.9 C 89.5 0.9 89.9 0.8 90.6 0.7 C 90.9 0.7 91 0.7 91 0.7 C 91 0.7 91.1 0.7 91.1 0.7 C 91.4 0.7 91.5 0.8 91.5 1 C 91.5 1 91.5 1.1 91.4 1.1 C 91.4 1.2 91.3 1.2 91.3 1.2 Z M 94.5 3.5 C 94.4 3.5 94.4 3.5 94.3 3.5 C 94.3 3.5 94.2 3.7 94.1 3.9 C 93.9 4.1 93.8 4.3 93.8 4.3 C 93.7 4.3 93.7 4.3 93.6 4.3 C 93.6 4.3 93.5 4.3 93.4 4.2 C 93.4 4.2 93.3 4.1 93.3 4 C 93.3 4 93.5 3.6 93.9 3 C 94.1 2.7 94.4 2.3 94.5 2 C 94.9 1.3 95.1 0.9 95.2 0.8 C 95.3 0.7 95.4 0.7 95.5 0.7 C 95.6 0.7 95.7 0.7 95.8 0.8 C 95.8 0.8 95.8 0.9 95.8 0.9 C 95.8 1 95.8 1.1 95.8 1.1 C 96.1 2 96.3 2.6 96.5 3 C 96.7 3.4 96.8 3.7 97 3.8 C 97.1 3.9 97.1 4 97.2 4 C 97.2 4 97.2 4.1 97.2 4.1 C 97.2 4.2 97.2 4.3 97.1 4.4 C 97 4.4 96.9 4.4 96.9 4.4 C 96.7 4.4 96.6 4.4 96.5 4.2 C 96.4 4.1 96.2 3.9 96.1 3.6 C 96 3.4 95.9 3.2 95.9 3.2 C 95.9 3.2 95.9 3.2 95.9 3.2 C 95.8 3.2 95.7 3.2 95.3 3.3 C 95 3.4 94.8 3.4 94.6 3.5 C 94.6 3.5 94.5 3.5 94.5 3.5 C 94.5 3.5 94.5 3.5 94.5 3.5 Z M 95.5 2.8 C 95.6 2.7 95.7 2.7 95.8 2.7 C 95.7 2.6 95.6 2.3 95.4 1.7 C 95.4 1.6 95.4 1.6 95.4 1.6 C 95.4 1.6 94.7 2.9 94.7 2.9 C 94.8 2.9 94.9 2.9 95 2.9 C 95.1 2.8 95.2 2.8 95.5 2.8 C 95.5 2.8 95.5 2.8 95.5 2.8 Z M 100.9 1.7 C 100.9 1.7 100.9 1.6 100.9 1.6 C 100.9 1.6 100.1 2.7 100.1 2.7 C 99.7 3.2 99.4 3.4 99.2 3.4 C 99.1 3.4 99.1 3.4 99 3.3 C 98.9 3.2 98.8 3 98.8 2.8 C 98.7 2.6 98.6 2.4 98.6 2.3 C 98.5 2 98.5 1.9 98.5 1.8 C 98.5 1.8 98.3 2.5 98.3 2.5 C 98.3 2.7 98.3 2.9 98.2 3 C 98.2 3.2 98.1 3.4 98.1 3.7 C 98 3.9 98 4.1 98 4.2 C 98 4.2 98 4.3 97.9 4.3 C 97.8 4.4 97.7 4.4 97.7 4.4 C 97.6 4.4 97.6 4.4 97.5 4.3 C 97.4 4.2 97.4 4.2 97.4 4.1 C 97.4 3.9 97.4 3.7 97.5 3.5 C 97.8 2.5 97.9 1.9 97.9 1.6 C 98 1.4 98 1.2 98 1 C 98 0.9 98 0.8 98.1 0.8 C 98.2 0.7 98.3 0.7 98.4 0.7 C 98.5 0.7 98.6 0.8 98.6 0.8 C 98.7 0.9 98.7 1 98.8 1.1 C 98.75 1.09 98.8 1.1 98.8 1.1 C 98.8 1.1 99.09 2.04 99.1 2 C 99.2 2.4 99.3 2.7 99.4 2.8 C 99.5 2.6 99.8 2.2 100.1 1.8 C 100.5 1.3 100.7 1 100.9 0.9 C 101 0.7 101.1 0.7 101.1 0.7 C 101.2 0.7 101.3 0.7 101.4 0.8 C 101.5 0.8 101.5 0.9 101.5 0.9 C 101.5 1 101.5 1.2 101.4 1.7 C 101.4 2 101.4 2.3 101.3 2.7 C 101.3 3.1 101.3 3.4 101.3 3.4 C 101.3 3.5 101.3 3.6 101.3 3.7 C 101.3 3.8 101.3 3.9 101.3 3.9 C 101.3 4.1 101.3 4.2 101.2 4.2 C 101.2 4.3 101.1 4.3 101 4.3 C 100.8 4.3 100.7 4.2 100.7 3.9 C 100.7 3.5 100.7 3.2 100.7 2.7 C 100.8 2.3 100.8 2 100.9 1.7 C 100.9 1.7 100.9 1.7 100.9 1.7 Z M 103 1.8 C 102.9 2 102.9 2.1 102.9 2.2 C 102.9 2.2 102.9 2.3 102.8 2.5 C 102.8 2.9 102.8 3.1 102.8 3.3 C 102.8 3.5 102.8 3.7 102.8 3.9 C 102.8 4 102.8 4.2 102.7 4.2 C 102.6 4.3 102.6 4.3 102.5 4.3 C 102.4 4.3 102.3 4.3 102.2 4.2 C 102.2 4.1 102.2 3.9 102.2 3.7 C 102.2 3.5 102.2 3.1 102.3 2.6 C 102.3 2.6 102.4 1.6 102.4 1.6 C 102.4 1.5 102.4 1.3 102.5 1.2 C 102.5 1 102.5 0.9 102.5 0.9 C 102.6 0.8 102.6 0.8 102.7 0.8 C 102.8 0.7 102.8 0.7 102.9 0.7 C 102.9 0.7 103 0.7 103.1 0.8 C 103.1 0.9 103.1 1 103.1 1.1 C 103.1 1.1 103 1.8 103 1.8 Z M 106.7 2.7 C 106.7 2.8 106.6 2.9 106.6 3 C 106.6 3 106.6 3 106.6 3 C 106.5 3.2 106.5 3.4 106.5 3.6 C 106.4 3.8 106.4 4 106.4 4.1 C 106.4 4.3 106.4 4.4 106.4 4.5 C 106.4 4.5 106.4 4.6 106.4 4.6 C 106.3 4.7 106.3 4.7 106.2 4.7 C 106.2 4.8 106.2 4.8 106.1 4.8 C 106 4.8 105.9 4.7 105.9 4.7 C 105.8 4.6 105.7 4.6 105.7 4.5 C 105.7 4.4 105.8 4.3 105.8 4.1 C 105.9 3.9 105.9 3.8 105.9 3.6 C 105.4 4 104.9 4.2 104.4 4.2 C 104.2 4.2 103.9 4.2 103.7 4 C 103.6 3.8 103.5 3.6 103.5 3.3 C 103.5 2.8 103.6 2.4 103.9 1.9 C 103.9 1.9 103.9 1.9 103.9 1.9 C 104.2 1.5 104.6 1.2 105 0.9 C 105.4 0.6 105.8 0.5 106.2 0.5 C 106.4 0.5 106.6 0.5 106.7 0.6 C 106.8 0.7 106.9 0.8 106.9 0.9 C 106.9 1 106.8 1.1 106.7 1.2 C 106.7 1.4 106.6 1.4 106.5 1.4 C 106.4 1.4 106.4 1.4 106.4 1.4 C 106.3 1.4 106.3 1.3 106.3 1.3 C 106.3 1.2 106.2 1.1 106.2 1.1 C 106.1 1.1 106.1 1.1 106 1.1 C 105.8 1.1 105.5 1.2 105.2 1.4 C 104.8 1.7 104.6 2 104.4 2.3 C 104.2 2.6 104.1 2.9 104.1 3.2 C 104.1 3.6 104.2 3.7 104.5 3.7 C 104.6 3.7 104.8 3.7 105 3.6 C 105.2 3.5 105.4 3.4 105.6 3.3 C 105.9 3.1 106 3 106 2.8 C 106.1 2.7 106.1 2.6 106.1 2.4 C 106.2 2.3 106.2 2.3 106.2 2.2 C 106.3 2.2 106.4 2.2 106.5 2.2 C 106.7 2.2 106.8 2.3 106.8 2.4 C 106.8 2.5 106.8 2.6 106.7 2.7 C 106.7 2.7 106.7 2.7 106.7 2.7 Z M 108.3 4.4 C 108 4.4 107.8 4.3 107.6 4 C 107.4 3.8 107.2 3.5 107.2 3.2 C 107.2 2.9 107.4 2.5 107.6 2.1 C 107.8 1.7 108 1.3 108.3 1.1 C 108.7 0.8 109 0.7 109.3 0.7 C 109.6 0.7 109.8 0.7 110 0.8 C 110.2 0.8 110.4 0.9 110.5 1.1 C 110.7 1.2 110.8 1.3 110.8 1.5 C 110.9 1.6 110.9 1.8 110.9 2 C 110.9 2.2 110.8 2.5 110.7 2.8 C 110.6 3.1 110.4 3.3 110.1 3.6 C 109.9 3.9 109.6 4.1 109.3 4.2 C 109.1 4.3 108.7 4.4 108.3 4.4 Z M 107.9 3.2 C 107.9 3.4 107.9 3.5 108 3.7 C 108.2 3.8 108.3 3.9 108.5 3.9 C 108.9 3.9 109.3 3.7 109.7 3.3 C 110.1 2.8 110.3 2.4 110.3 1.9 C 110.3 1.8 110.2 1.6 110.2 1.5 C 110.1 1.4 110 1.3 109.8 1.3 C 109.7 1.2 109.5 1.2 109.3 1.2 C 109 1.2 108.7 1.4 108.4 1.8 C 108 2.3 107.9 2.7 107.9 3.2 Z M 114 1.2 C 114 1.5 113.8 1.6 113.5 1.6 C 113.5 1.5 113.5 1.4 113.4 1.3 C 113.3 1.2 113.2 1.2 113 1.2 C 112.7 1.2 112.5 1.3 112.2 1.4 C 112 1.5 111.9 1.7 111.9 1.8 C 111.9 1.9 111.9 2 112 2.1 C 112.1 2.2 112.3 2.3 112.7 2.4 C 113.1 2.5 113.4 2.6 113.6 2.7 C 113.8 2.9 113.9 3 113.9 3.2 C 113.9 3.5 113.6 3.8 113.1 4.1 C 112.7 4.3 112.2 4.5 111.6 4.5 C 111.5 4.5 111.3 4.4 111.2 4.4 C 111.1 4.3 111.1 4.2 111.1 4.1 C 111.1 4 111.1 4 111.2 3.9 C 111.2 3.8 111.3 3.8 111.3 3.8 C 111.4 3.8 111.4 3.8 111.4 3.8 C 111.6 3.9 111.8 3.9 111.9 3.9 C 112.2 3.9 112.4 3.8 112.8 3.7 C 113.1 3.6 113.2 3.4 113.2 3.3 C 113.2 3.2 113.2 3.2 113.1 3.1 C 113 3.1 112.9 3 112.6 2.9 C 112.3 2.8 112 2.7 111.8 2.6 C 111.7 2.6 111.5 2.5 111.4 2.3 C 111.3 2.2 111.3 2.1 111.3 1.9 C 111.3 1.6 111.5 1.3 111.8 1 C 112.2 0.8 112.6 0.7 113.1 0.7 C 113.4 0.7 113.6 0.7 113.7 0.8 C 113.9 0.9 114 1.1 114 1.2 C 114 1.2 114 1.2 114 1.2 Z M 119.6 1.7 C 119.7 1.7 119.7 1.6 119.7 1.6 C 119.7 1.6 118.9 2.7 118.9 2.7 C 118.5 3.2 118.2 3.4 118 3.4 C 117.9 3.4 117.8 3.4 117.7 3.3 C 117.7 3.2 117.6 3 117.5 2.8 C 117.4 2.6 117.4 2.4 117.4 2.3 C 117.3 2 117.2 1.9 117.2 1.8 C 117.2 1.8 117.1 2.5 117.1 2.5 C 117.1 2.7 117 2.9 117 3 C 116.9 3.2 116.9 3.4 116.8 3.7 C 116.8 3.9 116.8 4.1 116.8 4.2 C 116.8 4.2 116.7 4.3 116.6 4.3 C 116.6 4.4 116.5 4.4 116.5 4.4 C 116.4 4.4 116.3 4.4 116.2 4.3 C 116.2 4.2 116.1 4.2 116.1 4.1 C 116.1 3.9 116.2 3.7 116.2 3.5 C 116.5 2.5 116.7 1.9 116.7 1.6 C 116.7 1.4 116.8 1.2 116.8 1 C 116.8 0.9 116.8 0.8 116.9 0.8 C 117 0.7 117.1 0.7 117.2 0.7 C 117.2 0.7 117.3 0.8 117.4 0.8 C 117.4 0.9 117.5 1 117.5 1.1 C 117.51 1.09 117.5 1.1 117.5 1.1 C 117.5 1.1 117.85 2.04 117.8 2 C 118 2.4 118.1 2.7 118.1 2.8 C 118.3 2.6 118.6 2.2 118.9 1.8 C 119.2 1.3 119.5 1 119.6 0.9 C 119.7 0.7 119.8 0.7 119.9 0.7 C 120 0.7 120 0.7 120.1 0.8 C 120.2 0.8 120.3 0.9 120.3 0.9 C 120.3 1 120.3 1.2 120.2 1.7 C 120.2 2 120.1 2.3 120.1 2.7 C 120 3.1 120 3.4 120 3.4 C 120 3.5 120 3.6 120.1 3.7 C 120.1 3.8 120.1 3.9 120.1 3.9 C 120.1 4.1 120.1 4.2 120 4.2 C 119.9 4.3 119.9 4.3 119.7 4.3 C 119.5 4.3 119.4 4.2 119.4 3.9 C 119.4 3.5 119.4 3.2 119.5 2.7 C 119.6 2.3 119.6 2 119.6 1.7 C 119.6 1.7 119.6 1.7 119.6 1.7 Z M 121.6 3.5 C 121.6 3.5 121.5 3.5 121.5 3.5 C 121.5 3.5 121.4 3.7 121.2 3.9 C 121.1 4.1 121 4.3 121 4.3 C 120.9 4.3 120.8 4.3 120.8 4.3 C 120.7 4.3 120.7 4.3 120.6 4.2 C 120.5 4.2 120.5 4.1 120.5 4 C 120.5 4 120.7 3.6 121.1 3 C 121.3 2.7 121.5 2.3 121.7 2 C 122.1 1.3 122.3 0.9 122.4 0.8 C 122.5 0.7 122.5 0.7 122.6 0.7 C 122.8 0.7 122.9 0.7 122.9 0.8 C 123 0.8 123 0.9 123 0.9 C 123 1 123 1.1 123 1.1 C 123.3 2 123.5 2.6 123.7 3 C 123.8 3.4 124 3.7 124.2 3.8 C 124.2 3.9 124.3 4 124.3 4 C 124.3 4 124.3 4.1 124.3 4.1 C 124.3 4.2 124.3 4.3 124.2 4.4 C 124.2 4.4 124.1 4.4 124 4.4 C 123.9 4.4 123.8 4.4 123.6 4.2 C 123.5 4.1 123.4 3.9 123.3 3.6 C 123.2 3.4 123.1 3.2 123.1 3.2 C 123.1 3.2 123.1 3.2 123.1 3.2 C 123 3.2 122.8 3.2 122.5 3.3 C 122.2 3.4 122 3.4 121.8 3.5 C 121.7 3.5 121.7 3.5 121.6 3.5 C 121.6 3.5 121.6 3.5 121.6 3.5 Z M 122.7 2.8 C 122.8 2.7 122.8 2.7 122.9 2.7 C 122.9 2.6 122.8 2.3 122.6 1.7 C 122.5 1.6 122.5 1.6 122.5 1.6 C 122.5 1.6 121.8 2.9 121.8 2.9 C 121.9 2.9 122 2.9 122.1 2.9 C 122.2 2.8 122.4 2.8 122.7 2.8 C 122.7 2.8 122.7 2.8 122.7 2.8 Z M 125 1.3 C 125 1.3 124.94 1.25 124.9 1.3 C 124.9 1.2 124.9 1.1 124.9 1.1 C 124.9 1 124.9 0.9 125 0.9 C 125.1 0.8 125.1 0.8 125.2 0.8 C 125.2 0.8 125.3 0.8 125.3 0.8 C 125.4 0.8 125.4 0.8 125.4 0.8 C 125.9 0.7 126.2 0.7 126.4 0.7 C 126.8 0.7 127.1 0.8 127.3 0.9 C 127.5 1.1 127.6 1.3 127.6 1.6 C 127.6 1.8 127.5 2 127.3 2.3 C 127.1 2.5 126.8 2.7 126.4 2.8 C 127 3.3 127.5 3.6 127.8 3.8 C 127.9 3.8 127.9 3.9 127.9 4 C 127.9 4.1 127.9 4.1 127.8 4.2 C 127.7 4.3 127.7 4.3 127.6 4.3 C 127.5 4.3 127.4 4.3 127.3 4.2 C 127.2 4.1 127 4 126.8 3.8 C 126.5 3.6 126.4 3.5 126.4 3.5 C 126.1 3.2 125.8 3 125.7 3 C 125.5 3 125.5 2.9 125.5 2.7 C 125.5 2.6 125.5 2.6 125.6 2.5 C 125.6 2.4 125.7 2.4 125.8 2.4 C 125.9 2.4 125.9 2.4 125.9 2.4 C 126 2.4 126 2.4 126 2.4 C 126.1 2.4 126.3 2.4 126.6 2.2 C 126.8 2 127 1.8 127 1.6 C 127 1.5 126.9 1.4 126.8 1.3 C 126.7 1.2 126.5 1.2 126.4 1.2 C 126.1 1.2 126 1.2 125.8 1.2 C 125.7 1.2 125.6 1.2 125.6 1.3 C 125.6 1.3 125.6 1.3 125.6 1.3 C 125.6 1.4 125.5 1.5 125.5 1.8 C 125.4 2.1 125.4 2.5 125.3 2.8 C 125.3 3.2 125.2 3.4 125.2 3.6 C 125.2 3.7 125.3 3.8 125.3 3.9 C 125.3 3.9 125.3 4 125.3 4.1 C 125.3 4.1 125.3 4.2 125.2 4.3 C 125.1 4.3 125 4.4 125 4.4 C 124.7 4.4 124.6 4.2 124.6 3.9 C 124.6 3.6 124.7 3.3 124.7 2.8 C 124.8 2.4 124.8 2 124.9 1.6 C 124.9 1.6 124.9 1.5 124.9 1.5 C 124.94 1.48 125 1.3 125 1.3 Z M 130.3 3.6 C 130.5 3.5 130.6 3.4 130.7 3.4 C 130.8 3.4 130.8 3.5 130.8 3.6 C 130.8 3.7 130.7 3.9 130.3 4.1 C 129.9 4.4 129.6 4.5 129.3 4.5 C 129 4.5 128.7 4.4 128.4 4.2 C 128.2 4 128.1 3.7 128.1 3.3 C 128.1 2.9 128.2 2.5 128.5 2.1 C 128.7 1.6 129 1.2 129.4 0.9 C 129.8 0.7 130.2 0.5 130.6 0.5 C 130.8 0.5 131 0.6 131.1 0.7 C 131.2 0.8 131.3 1 131.3 1.2 C 131.3 1.3 131.3 1.5 131.2 1.6 C 131.2 1.6 131.1 1.7 131 1.8 C 130.9 1.8 130.9 1.9 130.8 1.9 C 130.7 1.9 130.7 1.8 130.6 1.8 C 130.6 1.8 130.6 1.7 130.6 1.6 C 130.6 1.6 130.6 1.5 130.6 1.4 C 130.6 1.3 130.7 1.2 130.7 1.1 C 130.7 1 130.6 1 130.5 1 C 130.3 1 130 1.1 129.8 1.4 C 129.5 1.6 129.2 1.9 129 2.3 C 128.8 2.7 128.7 3 128.7 3.3 C 128.7 3.5 128.8 3.6 128.9 3.8 C 129 3.9 129.1 3.9 129.3 3.9 C 129.5 3.9 129.6 3.9 129.8 3.8 C 130 3.8 130.2 3.7 130.3 3.6 C 130.3 3.6 130.3 3.6 130.3 3.6 Z M 132.5 4.4 C 132.2 4.4 132 4.3 131.8 4 C 131.6 3.8 131.5 3.5 131.5 3.2 C 131.5 2.9 131.6 2.5 131.8 2.1 C 132 1.7 132.2 1.3 132.6 1.1 C 132.9 0.8 133.2 0.7 133.6 0.7 C 133.8 0.7 134.1 0.7 134.2 0.8 C 134.4 0.8 134.6 0.9 134.7 1.1 C 134.9 1.2 135 1.3 135 1.5 C 135.1 1.6 135.1 1.8 135.1 2 C 135.1 2.2 135 2.5 134.9 2.8 C 134.8 3.1 134.6 3.3 134.3 3.6 C 134.1 3.9 133.8 4.1 133.5 4.2 C 133.3 4.3 132.9 4.4 132.5 4.4 Z M 132.1 3.2 C 132.1 3.4 132.1 3.5 132.3 3.7 C 132.4 3.8 132.5 3.9 132.7 3.9 C 133.1 3.9 133.5 3.7 133.9 3.3 C 134.3 2.8 134.5 2.4 134.5 1.9 C 134.5 1.8 134.4 1.6 134.4 1.5 C 134.3 1.4 134.2 1.3 134.1 1.3 C 133.9 1.2 133.7 1.2 133.6 1.2 C 133.2 1.2 132.9 1.4 132.6 1.8 C 132.2 2.3 132.1 2.7 132.1 3.2 Z M 136.9 4.4 C 136.7 4.4 136.5 4.4 136.3 4.2 C 136 4.1 135.8 4 135.7 3.7 C 135.6 3.4 135.5 3.1 135.5 2.8 C 135.5 2.7 135.5 2.5 135.6 2.2 C 135.6 2.2 135.7 1.8 135.7 1.8 C 135.7 1.7 135.7 1.6 135.7 1.6 C 135.7 1.4 135.7 1.3 135.8 1.2 C 135.8 1.1 135.8 0.9 135.9 0.8 C 135.9 0.7 136 0.7 136.1 0.7 C 136.2 0.7 136.3 0.7 136.3 0.8 C 136.4 0.9 136.4 1 136.4 1 C 136.4 1.1 136.4 1.3 136.3 1.6 C 136.3 1.7 136.2 1.9 136.2 2.2 C 136.1 2.5 136.1 2.7 136.1 2.8 C 136.1 3.2 136.2 3.5 136.4 3.7 C 136.6 3.8 136.7 3.9 136.9 3.9 C 137.3 3.9 137.6 3.8 137.7 3.6 C 137.9 3.4 138 3.1 138 2.7 C 138 2.7 138 2.6 138 2.5 C 138.1 2.4 138.1 2.2 138.1 2.1 C 138.1 1.5 138.2 1.1 138.3 1 C 138.3 0.8 138.4 0.8 138.6 0.8 C 138.7 0.8 138.8 0.9 138.8 1.1 C 138.8 1.2 138.8 1.5 138.7 1.8 C 138.7 2 138.7 2.2 138.7 2.5 C 138.6 2.9 138.6 3.3 138.5 3.5 C 138.3 3.8 138.2 4 137.9 4.1 C 137.6 4.3 137.3 4.4 136.9 4.4 Z M 142.5 4.4 C 142.4 4.4 142.2 4.4 141.9 4.2 C 141.7 4.1 141.5 4 141.4 3.7 C 141.3 3.4 141.2 3.1 141.2 2.8 C 141.2 2.7 141.2 2.5 141.3 2.2 C 141.3 2.2 141.3 1.8 141.3 1.8 C 141.3 1.7 141.4 1.6 141.4 1.6 C 141.4 1.4 141.4 1.3 141.4 1.2 C 141.4 1.1 141.5 0.9 141.5 0.8 C 141.6 0.7 141.7 0.7 141.8 0.7 C 141.9 0.7 141.9 0.7 142 0.8 C 142 0.9 142.1 1 142.1 1 C 142.1 1.1 142 1.3 142 1.6 C 141.9 1.7 141.9 1.9 141.9 2.2 C 141.8 2.5 141.8 2.7 141.8 2.8 C 141.8 3.2 141.9 3.5 142.1 3.7 C 142.2 3.8 142.4 3.9 142.5 3.9 C 142.9 3.9 143.2 3.8 143.4 3.6 C 143.5 3.4 143.6 3.1 143.7 2.7 C 143.7 2.7 143.7 2.6 143.7 2.5 C 143.7 2.4 143.7 2.2 143.8 2.1 C 143.8 1.5 143.8 1.1 143.9 1 C 144 0.8 144.1 0.8 144.2 0.8 C 144.4 0.8 144.5 0.9 144.5 1.1 C 144.5 1.2 144.5 1.5 144.4 1.8 C 144.4 2 144.3 2.2 144.3 2.5 C 144.3 2.9 144.2 3.3 144.1 3.5 C 144 3.8 143.8 4 143.5 4.1 C 143.3 4.3 142.9 4.4 142.5 4.4 Z M 148.3 1.7 C 148.3 1.7 148.3 1.6 148.3 1.6 C 148.3 1.6 147.5 2.7 147.5 2.7 C 147.2 3.2 146.9 3.4 146.7 3.4 C 146.6 3.4 146.5 3.4 146.4 3.3 C 146.3 3.2 146.3 3 146.2 2.8 C 146.1 2.6 146.1 2.4 146 2.3 C 146 2 145.9 1.9 145.9 1.8 C 145.9 1.8 145.8 2.5 145.8 2.5 C 145.7 2.7 145.7 2.9 145.6 3 C 145.6 3.2 145.5 3.4 145.5 3.7 C 145.5 3.9 145.4 4.1 145.4 4.2 C 145.4 4.2 145.4 4.3 145.3 4.3 C 145.2 4.4 145.2 4.4 145.1 4.4 C 145 4.4 145 4.4 144.9 4.3 C 144.8 4.2 144.8 4.2 144.8 4.1 C 144.8 3.9 144.8 3.7 144.9 3.5 C 145.2 2.5 145.3 1.9 145.4 1.6 C 145.4 1.4 145.4 1.2 145.4 1 C 145.4 0.9 145.5 0.8 145.5 0.8 C 145.6 0.7 145.7 0.7 145.8 0.7 C 145.9 0.7 146 0.8 146 0.8 C 146.1 0.9 146.1 1 146.2 1.1 C 146.17 1.09 146.2 1.1 146.2 1.1 C 146.2 1.1 146.51 2.04 146.5 2 C 146.6 2.4 146.7 2.7 146.8 2.8 C 147 2.6 147.2 2.2 147.6 1.8 C 147.9 1.3 148.1 1 148.3 0.9 C 148.4 0.7 148.5 0.7 148.5 0.7 C 148.6 0.7 148.7 0.7 148.8 0.8 C 148.9 0.8 148.9 0.9 148.9 0.9 C 148.9 1 148.9 1.2 148.9 1.7 C 148.8 2 148.8 2.3 148.7 2.7 C 148.7 3.1 148.7 3.4 148.7 3.4 C 148.7 3.5 148.7 3.6 148.7 3.7 C 148.7 3.8 148.7 3.9 148.7 3.9 C 148.7 4.1 148.7 4.2 148.7 4.2 C 148.6 4.3 148.5 4.3 148.4 4.3 C 148.2 4.3 148.1 4.2 148.1 3.9 C 148.1 3.5 148.1 3.2 148.2 2.7 C 148.2 2.3 148.3 2 148.3 1.7 C 148.3 1.7 148.3 1.7 148.3 1.7 Z M 152.3 0.9 C 152.3 0.9 152.3 1 152.1 1.1 C 152 1.1 151.9 1.2 151.8 1.2 C 151.8 1.3 151.7 1.4 151.7 1.5 C 151.7 1.5 151.8 1.5 151.9 1.6 C 152 1.7 152 1.7 152 1.8 C 152 1.8 152 1.9 151.9 1.9 C 151.9 2 151.8 2 151.8 2 C 151.7 2 151.5 1.9 151.4 1.8 C 151.3 1.7 151.2 1.6 151.2 1.5 C 151.2 1.4 151.3 1.3 151.3 1.2 C 151.4 1.1 151.4 1 151.5 0.9 C 151.5 0.9 151.6 0.9 151.7 0.8 C 151.8 0.7 151.8 0.7 151.9 0.6 C 151.9 0.6 152 0.6 152.1 0.6 C 152.2 0.6 152.3 0.6 152.3 0.7 C 152.3 0.7 152.4 0.8 152.3 0.9 Z M 153.2 0.7 C 153.3 0.6 153.4 0.6 153.4 0.6 C 153.5 0.6 153.5 0.7 153.6 0.7 C 153.6 0.8 153.7 0.8 153.7 0.9 C 153.7 0.9 153.6 1 153.6 1 C 153.5 1 153.5 1.1 153.5 1.1 C 153.5 1.1 153.5 1.1 153.5 1.1 C 153.5 1.1 153.4 1.1 153.3 1.2 C 153.3 1.2 153.2 1.3 153.2 1.3 C 153.1 1.3 153.1 1.4 153.1 1.5 C 153.1 1.6 153.1 1.6 153.1 1.7 C 153.2 1.8 153.2 1.8 153.2 1.9 C 153.2 1.9 153.2 2 153.2 2 C 153.1 2.1 153.1 2.1 153 2.1 C 152.9 2.1 152.8 2.1 152.7 1.9 C 152.6 1.8 152.6 1.7 152.6 1.6 C 152.6 1.5 152.6 1.3 152.8 1.1 C 152.9 0.9 153 0.8 153.2 0.7 Z M 155 2.9 C 155 3 154.9 3.2 154.9 3.6 C 154.9 3.8 154.9 4 154.8 4.2 C 154.7 4.3 154.7 4.4 154.6 4.4 C 154.5 4.4 154.4 4.4 154.3 4.3 C 154.3 4.3 154.2 4.2 154.2 4 C 154.2 3.9 154.2 3.8 154.3 3.6 C 154.4 3.2 154.5 2.3 154.6 0.9 C 154.7 0.9 154.7 0.8 154.7 0.8 C 154.8 0.7 154.9 0.7 154.9 0.7 C 155.1 0.7 155.2 0.8 155.2 1.1 C 155.2 1.2 155.2 1.4 155.2 1.7 C 155.1 2 155.1 2.2 155.1 2.3 C 155.1 2.3 155.2 2.3 155.3 2.3 C 155.5 2.3 155.8 2.3 156.2 2.3 C 156.7 2.3 156.9 2.2 156.9 2.2 C 156.9 2.1 157 1.9 157 1.7 C 157 1.4 157.1 1.1 157.1 0.8 C 157.1 0.7 157.1 0.7 157.2 0.6 C 157.2 0.6 157.3 0.5 157.4 0.5 C 157.5 0.5 157.5 0.6 157.6 0.6 C 157.7 0.7 157.7 0.7 157.7 0.8 C 157.7 0.9 157.7 1.2 157.6 1.5 C 157.5 1.8 157.5 2.3 157.4 2.9 C 157.4 3.4 157.4 3.8 157.4 4 C 157.4 4.1 157.3 4.2 157.2 4.3 C 157.2 4.3 157.1 4.4 157 4.4 C 156.9 4.4 156.9 4.4 156.8 4.3 C 156.7 4.3 156.7 4.2 156.7 4.1 C 156.7 4 156.7 3.9 156.8 3.5 C 156.8 3.2 156.8 3 156.8 2.9 C 156.8 2.8 156.8 2.7 156.8 2.7 C 156.7 2.7 156.6 2.8 156.3 2.8 C 156.1 2.8 156 2.8 155.9 2.8 C 155.8 2.8 155.7 2.8 155.4 2.8 C 155.1 2.8 155 2.9 155 2.9 Z M 158.9 3.5 C 158.9 3.5 158.8 3.5 158.8 3.5 C 158.8 3.5 158.7 3.7 158.5 3.9 C 158.4 4.1 158.3 4.3 158.2 4.3 C 158.2 4.3 158.1 4.3 158.1 4.3 C 158 4.3 158 4.3 157.9 4.2 C 157.8 4.2 157.7 4.1 157.7 4 C 157.7 4 158 3.6 158.4 3 C 158.6 2.7 158.8 2.3 159 2 C 159.3 1.3 159.6 0.9 159.6 0.8 C 159.7 0.7 159.8 0.7 159.9 0.7 C 160 0.7 160.1 0.7 160.2 0.8 C 160.2 0.8 160.2 0.9 160.2 0.9 C 160.2 1 160.2 1.1 160.2 1.1 C 160.5 2 160.8 2.6 160.9 3 C 161.1 3.4 161.3 3.7 161.4 3.8 C 161.5 3.9 161.6 4 161.6 4 C 161.6 4 161.6 4.1 161.6 4.1 C 161.6 4.2 161.6 4.3 161.5 4.4 C 161.5 4.4 161.4 4.4 161.3 4.4 C 161.2 4.4 161 4.4 160.9 4.2 C 160.8 4.1 160.7 3.9 160.6 3.6 C 160.4 3.4 160.4 3.2 160.4 3.2 C 160.4 3.2 160.4 3.2 160.4 3.2 C 160.3 3.2 160.1 3.2 159.8 3.3 C 159.5 3.4 159.2 3.4 159.1 3.5 C 159 3.5 159 3.5 158.9 3.5 C 158.9 3.5 158.9 3.5 158.9 3.5 Z M 160 2.8 C 160 2.7 160.1 2.7 160.2 2.7 C 160.1 2.6 160 2.3 159.8 1.7 C 159.8 1.6 159.8 1.6 159.8 1.6 C 159.8 1.6 159.1 2.9 159.1 2.9 C 159.2 2.9 159.3 2.9 159.4 2.9 C 159.5 2.8 159.7 2.8 160 2.8 C 160 2.8 160 2.8 160 2.8 Z M 163 3.1 C 162.8 3.1 162.7 3.1 162.7 3.1 C 162.6 3.5 162.6 3.8 162.6 4.1 C 162.6 4.1 162.6 4.2 162.5 4.3 C 162.5 4.4 162.4 4.4 162.3 4.4 C 162.1 4.4 162 4.3 162 4 C 162 3.9 162.1 3.5 162.2 2.7 C 162.2 2.1 162.3 1.8 162.3 1.7 C 162.3 1.5 162.3 1.5 162.3 1.4 C 162.2 1.4 162.1 1.3 162.1 1.2 C 162.1 1 162.3 0.9 162.8 0.8 C 163.2 0.7 163.6 0.6 163.9 0.6 C 164.3 0.6 164.6 0.7 164.8 0.9 C 165 1 165.1 1.2 165.1 1.5 C 165.1 1.9 164.9 2.2 164.5 2.5 C 164.1 2.7 163.6 2.9 163 3.1 C 163 3.1 163 3.1 163 3.1 Z M 163.9 1.1 C 163.6 1.1 163.3 1.2 162.9 1.3 C 162.9 1.3 162.8 2.6 162.8 2.6 C 163.2 2.5 163.6 2.4 164 2.2 C 164.4 2 164.5 1.8 164.5 1.5 C 164.5 1.3 164.3 1.1 163.9 1.1 C 163.9 1.1 163.9 1.1 163.9 1.1 Z M 166.5 3.1 C 166.3 3.1 166.1 3.1 166.1 3.1 C 166.1 3.5 166 3.8 166 4.1 C 166 4.1 166 4.2 166 4.3 C 165.9 4.4 165.8 4.4 165.7 4.4 C 165.5 4.4 165.4 4.3 165.4 4 C 165.4 3.9 165.5 3.5 165.6 2.7 C 165.7 2.1 165.7 1.8 165.7 1.7 C 165.7 1.5 165.7 1.5 165.7 1.4 C 165.6 1.4 165.5 1.3 165.5 1.2 C 165.5 1 165.8 0.9 166.2 0.8 C 166.6 0.7 167 0.6 167.3 0.6 C 167.7 0.6 168 0.7 168.2 0.9 C 168.4 1 168.5 1.2 168.5 1.5 C 168.5 1.9 168.3 2.2 167.9 2.5 C 167.5 2.7 167 2.9 166.5 3.1 C 166.5 3.1 166.5 3.1 166.5 3.1 Z M 167.3 1.1 C 167 1.1 166.7 1.2 166.3 1.3 C 166.3 1.3 166.2 2.6 166.2 2.6 C 166.7 2.5 167.1 2.4 167.4 2.2 C 167.8 2 168 1.8 168 1.5 C 168 1.3 167.7 1.1 167.3 1.1 C 167.3 1.1 167.3 1.1 167.3 1.1 Z M 171.5 1.9 C 171 2.3 170.8 2.6 170.8 2.6 C 170.8 2.6 170.8 2.6 170.8 2.6 C 170.7 2.8 170.7 3.2 170.6 4 C 170.6 4.1 170.6 4.2 170.6 4.3 C 170.5 4.3 170.5 4.3 170.4 4.3 C 170.4 4.4 170.3 4.4 170.3 4.4 C 170.1 4.4 170 4.3 170 4 C 170 3.9 170 3.7 170.1 3.4 C 170.1 3.1 170.1 2.9 170.1 2.8 C 170.1 2.7 170.1 2.6 170.1 2.6 C 170 2.4 169.8 2.2 169.6 2 C 169.4 1.7 169.2 1.5 169.1 1.4 C 168.9 1.3 168.8 1.2 168.8 1.1 C 168.7 1 168.7 0.9 168.7 0.9 C 168.7 0.9 168.7 0.8 168.8 0.7 C 168.9 0.7 168.9 0.7 169 0.7 C 169.2 0.7 169.6 1 170.1 1.7 C 170.3 1.9 170.4 2.1 170.5 2.1 C 170.6 2.1 170.6 2 170.7 1.9 C 170.8 1.8 170.8 1.8 170.9 1.7 C 171.3 1.3 171.5 1 171.7 0.8 C 171.8 0.6 172 0.5 172.1 0.5 C 172.2 0.5 172.2 0.6 172.3 0.6 C 172.3 0.7 172.4 0.7 172.4 0.8 C 172.4 0.9 172.1 1.3 171.5 1.9 C 171.5 1.9 171.5 1.9 171.5 1.9 Z M 174.9 2.9 C 174.9 3 174.9 3.2 174.8 3.6 C 174.8 3.8 174.8 4 174.7 4.2 C 174.7 4.3 174.6 4.4 174.5 4.4 C 174.4 4.4 174.3 4.4 174.3 4.3 C 174.2 4.3 174.2 4.2 174.2 4 C 174.2 3.9 174.2 3.8 174.2 3.6 C 174.3 3.2 174.4 2.3 174.6 0.9 C 174.6 0.9 174.6 0.8 174.7 0.8 C 174.7 0.7 174.8 0.7 174.9 0.7 C 175.1 0.7 175.2 0.8 175.2 1.1 C 175.2 1.2 175.2 1.4 175.1 1.7 C 175 2 175 2.2 175 2.3 C 175 2.3 175.1 2.3 175.2 2.3 C 175.4 2.3 175.7 2.3 176.2 2.3 C 176.6 2.3 176.8 2.2 176.8 2.2 C 176.9 2.1 176.9 1.9 176.9 1.7 C 177 1.4 177 1.1 177 0.8 C 177 0.7 177 0.7 177.1 0.6 C 177.2 0.6 177.2 0.5 177.3 0.5 C 177.4 0.5 177.5 0.6 177.5 0.6 C 177.6 0.7 177.6 0.7 177.6 0.8 C 177.6 0.9 177.6 1.2 177.5 1.5 C 177.5 1.8 177.4 2.3 177.4 2.9 C 177.3 3.4 177.3 3.8 177.3 4 C 177.3 4.1 177.3 4.2 177.2 4.3 C 177.1 4.3 177 4.4 176.9 4.4 C 176.9 4.4 176.8 4.4 176.7 4.3 C 176.7 4.3 176.6 4.2 176.6 4.1 C 176.6 4 176.7 3.9 176.7 3.5 C 176.7 3.2 176.8 3 176.8 2.9 C 176.8 2.8 176.8 2.7 176.7 2.7 C 176.6 2.7 176.5 2.8 176.3 2.8 C 176 2.8 175.9 2.8 175.8 2.8 C 175.7 2.8 175.6 2.8 175.3 2.8 C 175.1 2.8 174.9 2.9 174.9 2.9 Z M 179 4.4 C 178.7 4.4 178.5 4.3 178.3 4 C 178.1 3.8 178 3.5 178 3.2 C 178 2.9 178.1 2.5 178.3 2.1 C 178.5 1.7 178.7 1.3 179.1 1.1 C 179.4 0.8 179.7 0.7 180.1 0.7 C 180.3 0.7 180.6 0.7 180.7 0.8 C 180.9 0.8 181.1 0.9 181.2 1.1 C 181.4 1.2 181.5 1.3 181.5 1.5 C 181.6 1.6 181.6 1.8 181.6 2 C 181.6 2.2 181.5 2.5 181.4 2.8 C 181.3 3.1 181.1 3.3 180.8 3.6 C 180.6 3.9 180.3 4.1 180.1 4.2 C 179.8 4.3 179.4 4.4 179 4.4 Z M 178.6 3.2 C 178.6 3.4 178.6 3.5 178.8 3.7 C 178.9 3.8 179 3.9 179.2 3.9 C 179.6 3.9 180 3.7 180.4 3.3 C 180.8 2.8 181 2.4 181 1.9 C 181 1.8 180.9 1.6 180.9 1.5 C 180.8 1.4 180.7 1.3 180.6 1.3 C 180.4 1.2 180.2 1.2 180.1 1.2 C 179.8 1.2 179.4 1.4 179.1 1.8 C 178.8 2.3 178.6 2.7 178.6 3.2 Z M 183.4 4.4 C 183.2 4.4 183 4.4 182.8 4.2 C 182.5 4.1 182.3 4 182.2 3.7 C 182.1 3.4 182 3.1 182 2.8 C 182 2.7 182.1 2.5 182.1 2.2 C 182.1 2.2 182.2 1.8 182.2 1.8 C 182.2 1.7 182.2 1.6 182.2 1.6 C 182.2 1.4 182.3 1.3 182.3 1.2 C 182.3 1.1 182.3 0.9 182.4 0.8 C 182.4 0.7 182.5 0.7 182.7 0.7 C 182.7 0.7 182.8 0.7 182.8 0.8 C 182.9 0.9 182.9 1 182.9 1 C 182.9 1.1 182.9 1.3 182.8 1.6 C 182.8 1.7 182.8 1.9 182.7 2.2 C 182.7 2.5 182.6 2.7 182.6 2.8 C 182.6 3.2 182.7 3.5 182.9 3.7 C 183.1 3.8 183.2 3.9 183.4 3.9 C 183.8 3.9 184.1 3.8 184.2 3.6 C 184.4 3.4 184.5 3.1 184.5 2.7 C 184.5 2.7 184.5 2.6 184.6 2.5 C 184.6 2.4 184.6 2.2 184.6 2.1 C 184.6 1.5 184.7 1.1 184.8 1 C 184.8 0.8 184.9 0.8 185.1 0.8 C 185.3 0.8 185.3 0.9 185.3 1.1 C 185.3 1.2 185.3 1.5 185.2 1.8 C 185.2 2 185.2 2.2 185.2 2.5 C 185.1 2.9 185.1 3.3 185 3.5 C 184.9 3.8 184.7 4 184.4 4.1 C 184.1 4.3 183.8 4.4 183.4 4.4 Z M 186.1 1.3 C 186.1 1.3 186.04 1.25 186 1.3 C 186 1.2 186 1.1 186 1.1 C 186 1 186 0.9 186.1 0.9 C 186.2 0.8 186.2 0.8 186.3 0.8 C 186.3 0.8 186.4 0.8 186.4 0.8 C 186.5 0.8 186.5 0.8 186.5 0.8 C 187 0.7 187.3 0.7 187.5 0.7 C 187.9 0.7 188.2 0.8 188.4 0.9 C 188.6 1.1 188.7 1.3 188.7 1.6 C 188.7 1.8 188.6 2 188.4 2.3 C 188.2 2.5 187.9 2.7 187.5 2.8 C 188.1 3.3 188.6 3.6 188.9 3.8 C 189 3.8 189 3.9 189 4 C 189 4.1 189 4.1 188.9 4.2 C 188.8 4.3 188.8 4.3 188.7 4.3 C 188.6 4.3 188.5 4.3 188.4 4.2 C 188.3 4.1 188.1 4 187.9 3.8 C 187.6 3.6 187.5 3.5 187.5 3.5 C 187.2 3.2 187 3 186.8 3 C 186.6 3 186.6 2.9 186.6 2.7 C 186.6 2.6 186.6 2.6 186.7 2.5 C 186.7 2.4 186.8 2.4 186.9 2.4 C 187 2.4 187 2.4 187 2.4 C 187.1 2.4 187.1 2.4 187.1 2.4 C 187.2 2.4 187.4 2.4 187.7 2.2 C 187.9 2 188.1 1.8 188.1 1.6 C 188.1 1.5 188 1.4 187.9 1.3 C 187.8 1.2 187.6 1.2 187.5 1.2 C 187.2 1.2 187.1 1.2 186.9 1.2 C 186.8 1.2 186.7 1.2 186.7 1.3 C 186.7 1.3 186.7 1.3 186.7 1.3 C 186.7 1.4 186.6 1.5 186.6 1.8 C 186.5 2.1 186.5 2.5 186.4 2.8 C 186.4 3.2 186.4 3.4 186.4 3.6 C 186.4 3.7 186.4 3.8 186.4 3.9 C 186.4 3.9 186.4 4 186.4 4.1 C 186.4 4.1 186.4 4.2 186.3 4.3 C 186.2 4.3 186.1 4.4 186.1 4.4 C 185.8 4.4 185.7 4.2 185.7 3.9 C 185.7 3.6 185.8 3.3 185.8 2.8 C 185.9 2.4 185.9 2 186 1.6 C 186 1.6 186 1.5 186 1.5 C 186.04 1.48 186.1 1.3 186.1 1.3 Z M 190.8 0.7 C 190.8 0.7 190.8 0.6 190.8 0.6 C 190.8 0.6 190.8 0.6 190.9 0.5 C 191 0.5 191 0.5 191.1 0.5 C 191.1 0.5 191.2 0.5 191.3 0.6 C 191.4 0.7 191.4 0.7 191.4 0.8 C 191.5 0.9 191.6 1 191.6 1.1 C 191.6 1.3 191.5 1.5 191.4 1.8 C 191.3 2 191.2 2.2 191 2.2 C 190.9 2.2 190.9 2.2 190.8 2.1 C 190.8 2.1 190.7 2 190.7 2 C 190.7 1.9 190.8 1.8 190.9 1.7 C 191 1.6 191.1 1.4 191.1 1.3 C 191.1 1.2 191 1.1 190.9 1 C 190.9 1 190.8 0.9 190.8 0.9 C 190.8 0.9 190.8 0.8 190.8 0.7 C 190.75 0.69 190.8 0.7 190.8 0.7 C 190.8 0.7 190.75 0.66 190.8 0.7 Z M 189.4 1.6 C 189.5 1.6 189.5 1.6 189.5 1.6 C 189.6 1.5 189.6 1.4 189.6 1.3 C 189.6 1.3 189.6 1.2 189.5 1.1 C 189.4 1 189.4 1 189.4 0.9 C 189.4 0.7 189.4 0.6 189.6 0.6 C 189.7 0.6 189.7 0.6 189.8 0.7 C 189.8 0.7 189.9 0.8 189.9 0.8 C 189.9 0.8 190 0.9 190 0.9 C 190.1 1 190.1 1.1 190.1 1.2 C 190.1 1.3 190.1 1.4 190 1.6 C 190 1.8 189.9 1.9 189.9 1.9 C 189.8 1.9 189.8 2 189.6 2 C 189.5 2.1 189.4 2.1 189.4 2.1 C 189.3 2.1 189.3 2.1 189.2 2.1 C 189.2 2 189.1 1.9 189.1 1.9 C 189.1 1.8 189.2 1.8 189.2 1.7 C 189.2 1.7 189.3 1.6 189.4 1.6 C 189.4 1.6 189.4 1.6 189.4 1.6 Z " stroke="none" fill="#000"/>  </g></svg>