<?xml version="1.0" standalone="no"?><!DOCTYPE svg PUBLIC "-//W3C//DTD SVG 1.1//EN" "http://www.w3.org/Graphics/SVG/1.1/DTD/svg11.dtd"><svg xmlns="http://www.w3.org/2000/svg" version="1.1" width="67px" height="36.4px" viewBox="0 -2 67 36.4" style="top:-2px">  <desc>Voto DistritaL MAIOR IGUALDADE DE REPRESENTA O POL TICA MAIORES BENEF CIOS PARA TODOS SAIBA MAIS SAIBA MAIS</desc>  <defs/>  <g id="Polygon15384">    <path d="M 22.6 25 C 22.6 25.2 22.5 25.3 22.2 25.3 C 22.2 25.2 22.2 25.1 22.1 25 C 22 25 21.9 25 21.8 25 C 21.5 25 21.3 25 21.1 25.1 C 20.9 25.3 20.8 25.4 20.8 25.5 C 20.8 25.6 20.8 25.7 20.9 25.8 C 21 25.8 21.2 25.9 21.5 26 C 21.9 26.1 22.1 26.2 22.3 26.3 C 22.4 26.4 22.5 26.6 22.5 26.7 C 22.5 27 22.3 27.3 21.9 27.5 C 21.5 27.7 21 27.9 20.6 27.9 C 20.4 27.9 20.3 27.8 20.2 27.8 C 20.1 27.7 20.1 27.6 20.1 27.5 C 20.1 27.5 20.1 27.4 20.1 27.3 C 20.2 27.3 20.2 27.2 20.3 27.2 C 20.3 27.2 20.4 27.2 20.4 27.3 C 20.5 27.3 20.7 27.4 20.8 27.4 C 21 27.4 21.3 27.3 21.6 27.2 C 21.8 27 22 26.9 22 26.8 C 22 26.7 21.9 26.7 21.9 26.7 C 21.8 26.6 21.7 26.5 21.4 26.5 C 21.1 26.4 20.9 26.3 20.7 26.2 C 20.6 26.2 20.5 26.1 20.4 26 C 20.3 25.9 20.3 25.7 20.3 25.6 C 20.3 25.3 20.4 25.1 20.7 24.8 C 21 24.6 21.4 24.5 21.8 24.5 C 22.1 24.5 22.3 24.5 22.4 24.6 C 22.6 24.7 22.6 24.8 22.6 25 C 22.6 25 22.6 25 22.6 25 Z M 23.6 27 C 23.6 27 23.5 27 23.5 27 C 23.5 27 23.4 27.1 23.3 27.4 C 23.2 27.6 23.1 27.7 23 27.7 C 23 27.7 22.9 27.7 22.9 27.7 C 22.8 27.7 22.8 27.7 22.7 27.6 C 22.6 27.6 22.6 27.5 22.6 27.5 C 22.6 27.4 22.8 27.1 23.1 26.6 C 23.3 26.3 23.5 26 23.7 25.7 C 24 25.1 24.2 24.7 24.3 24.6 C 24.4 24.5 24.4 24.5 24.5 24.5 C 24.6 24.5 24.7 24.5 24.8 24.6 C 24.8 24.6 24.8 24.7 24.8 24.7 C 24.8 24.8 24.8 24.8 24.8 24.9 C 25.1 25.7 25.3 26.2 25.4 26.6 C 25.6 26.9 25.7 27.1 25.9 27.3 C 25.9 27.4 26 27.4 26 27.4 C 26 27.5 26 27.5 26 27.5 C 26 27.6 26 27.7 25.9 27.7 C 25.9 27.8 25.8 27.8 25.7 27.8 C 25.6 27.8 25.5 27.8 25.4 27.6 C 25.3 27.5 25.2 27.3 25.1 27.1 C 25 26.9 24.9 26.8 24.9 26.7 C 24.9 26.7 24.9 26.7 24.9 26.7 C 24.8 26.7 24.7 26.8 24.4 26.8 C 24.1 26.9 23.9 26.9 23.8 27 C 23.7 27 23.7 27 23.6 27 C 23.6 27 23.6 27 23.6 27 Z M 24.6 26.3 C 24.6 26.3 24.7 26.3 24.8 26.3 C 24.7 26.2 24.6 25.9 24.4 25.4 C 24.4 25.3 24.4 25.3 24.4 25.3 C 24.4 25.3 23.8 26.5 23.8 26.5 C 23.9 26.4 24 26.4 24.1 26.4 C 24.1 26.4 24.3 26.4 24.6 26.3 C 24.6 26.3 24.6 26.3 24.6 26.3 Z M 27 25.5 C 27 25.6 27 25.8 27 25.8 C 27 25.9 27 26 26.9 26.1 C 26.9 26.5 26.9 26.7 26.9 26.8 C 26.9 27 26.9 27.2 26.9 27.3 C 26.9 27.5 26.9 27.6 26.8 27.6 C 26.7 27.7 26.7 27.7 26.6 27.7 C 26.5 27.7 26.4 27.7 26.4 27.6 C 26.3 27.5 26.3 27.3 26.3 27.1 C 26.3 27 26.4 26.7 26.4 26.2 C 26.4 26.2 26.5 25.3 26.5 25.3 C 26.6 25.2 26.6 25.1 26.6 25 C 26.6 24.8 26.6 24.7 26.7 24.7 C 26.7 24.7 26.7 24.6 26.8 24.6 C 26.9 24.5 26.9 24.5 26.9 24.5 C 27 24.5 27.1 24.5 27.1 24.6 C 27.2 24.7 27.2 24.8 27.2 24.9 C 27.2 24.9 27 25.5 27 25.5 Z M 29.6 25.9 C 29.9 26 30.1 26.1 30.2 26.2 C 30.2 26.4 30.3 26.5 30.3 26.6 C 30.3 26.9 30.1 27.2 29.8 27.5 C 29.4 27.8 29 27.9 28.6 27.9 C 28.4 27.9 28.3 27.8 28.3 27.7 C 28.3 27.5 28.5 27.4 28.8 27.4 C 28.8 27.4 28.9 27.4 28.9 27.4 C 29 27.4 29.2 27.3 29.4 27.1 C 29.6 27 29.7 26.8 29.7 26.6 C 29.7 26.5 29.7 26.5 29.6 26.4 C 29.5 26.3 29.4 26.3 29.2 26.3 C 29.2 26.3 29.2 26.3 29.1 26.3 C 29 26.4 28.9 26.4 28.8 26.4 C 28.7 26.4 28.6 26.4 28.6 26.3 C 28.5 26.3 28.5 26.2 28.5 26.1 C 28.5 26.1 28.7 26 29 25.9 C 29.1 25.8 29.3 25.7 29.5 25.5 C 29.6 25.4 29.7 25.2 29.7 25.1 C 29.7 25 29.6 24.9 29.4 24.9 C 29.2 24.9 29 24.9 28.8 25 C 28.6 25 28.5 25.1 28.5 25.1 C 28.5 25.2 28.4 25.5 28.4 26.1 C 28.3 26.7 28.2 27 28.2 27.1 C 28.2 27.1 28.2 27.4 28.2 27.4 C 28.2 27.6 28.2 27.7 28.1 27.7 C 28.1 27.8 28 27.8 27.9 27.8 C 27.7 27.8 27.6 27.7 27.6 27.4 C 27.6 27.4 27.6 27.3 27.7 27.2 C 27.7 26.9 27.8 26.6 27.9 26.1 C 27.9 25.6 27.9 25.4 27.9 25.4 C 27.9 25.3 27.9 25.3 27.9 25.3 C 27.9 25.3 27.8 25.3 27.8 25.3 C 27.8 25.3 27.8 25.2 27.7 25.2 C 27.7 25.2 27.7 25.2 27.7 25.1 C 27.7 25.1 27.6 25.1 27.6 25.1 C 27.6 24.9 27.8 24.8 28.2 24.7 C 28.6 24.5 29.1 24.5 29.5 24.5 C 29.7 24.5 29.9 24.5 30.1 24.6 C 30.2 24.8 30.3 24.9 30.3 25.1 C 30.3 25.2 30.2 25.3 30.1 25.4 C 30.1 25.6 29.9 25.7 29.6 25.9 Z M 31.4 27 C 31.4 27 31.3 27 31.3 27 C 31.3 27 31.2 27.1 31.1 27.4 C 30.9 27.6 30.8 27.7 30.8 27.7 C 30.7 27.7 30.7 27.7 30.7 27.7 C 30.6 27.7 30.6 27.7 30.5 27.6 C 30.4 27.6 30.4 27.5 30.4 27.5 C 30.4 27.4 30.6 27.1 30.9 26.6 C 31.1 26.3 31.3 26 31.4 25.7 C 31.8 25.1 32 24.7 32 24.6 C 32.1 24.5 32.2 24.5 32.3 24.5 C 32.4 24.5 32.5 24.5 32.5 24.6 C 32.6 24.6 32.6 24.7 32.6 24.7 C 32.6 24.8 32.6 24.8 32.6 24.9 C 32.8 25.7 33 26.2 33.2 26.6 C 33.3 26.9 33.5 27.1 33.6 27.3 C 33.7 27.4 33.7 27.4 33.8 27.4 C 33.8 27.5 33.8 27.5 33.8 27.5 C 33.8 27.6 33.8 27.7 33.7 27.7 C 33.6 27.8 33.6 27.8 33.5 27.8 C 33.4 27.8 33.3 27.8 33.2 27.6 C 33 27.5 32.9 27.3 32.8 27.1 C 32.7 26.9 32.7 26.8 32.7 26.7 C 32.7 26.7 32.7 26.7 32.7 26.7 C 32.6 26.7 32.4 26.8 32.2 26.8 C 31.9 26.9 31.7 26.9 31.5 27 C 31.5 27 31.4 27 31.4 27 C 31.4 27 31.4 27 31.4 27 Z M 32.3 26.3 C 32.4 26.3 32.5 26.3 32.5 26.3 C 32.5 26.2 32.4 25.9 32.2 25.4 C 32.2 25.3 32.2 25.3 32.2 25.3 C 32.2 25.3 31.6 26.5 31.6 26.5 C 31.7 26.4 31.8 26.4 31.8 26.4 C 31.9 26.4 32.1 26.4 32.3 26.3 C 32.3 26.3 32.3 26.3 32.3 26.3 Z M 38.7 25.4 C 38.7 25.4 38.7 25.3 38.8 25.3 C 38.8 25.3 38 26.2 38 26.2 C 37.7 26.7 37.4 26.9 37.3 26.9 C 37.2 26.9 37.1 26.9 37 26.8 C 37 26.7 36.9 26.6 36.8 26.4 C 36.8 26.2 36.7 26 36.7 25.9 C 36.6 25.7 36.6 25.6 36.6 25.5 C 36.6 25.5 36.5 26.1 36.5 26.1 C 36.4 26.3 36.4 26.4 36.4 26.6 C 36.3 26.7 36.3 26.9 36.2 27.1 C 36.2 27.3 36.2 27.5 36.2 27.6 C 36.2 27.6 36.1 27.7 36.1 27.7 C 36 27.8 36 27.8 35.9 27.8 C 35.9 27.8 35.8 27.8 35.7 27.7 C 35.7 27.6 35.6 27.6 35.6 27.5 C 35.6 27.4 35.7 27.2 35.7 27 C 36 26.1 36.1 25.6 36.1 25.3 C 36.2 25.1 36.2 24.9 36.2 24.8 C 36.2 24.7 36.2 24.6 36.3 24.6 C 36.3 24.6 36.4 24.5 36.5 24.5 C 36.6 24.5 36.7 24.6 36.7 24.7 C 36.8 24.7 36.8 24.8 36.8 24.9 C 36.84 24.87 36.8 24.9 36.8 24.9 C 36.8 24.9 37.13 25.7 37.1 25.7 C 37.3 26 37.3 26.2 37.4 26.3 C 37.5 26.2 37.8 25.9 38.1 25.5 C 38.4 25 38.6 24.8 38.7 24.7 C 38.8 24.5 38.9 24.5 38.9 24.5 C 39 24.5 39.1 24.5 39.2 24.6 C 39.2 24.6 39.3 24.7 39.3 24.7 C 39.3 24.8 39.3 25 39.2 25.4 C 39.2 25.7 39.1 26 39.1 26.3 C 39.1 26.7 39 26.9 39 26.9 C 39 27 39.1 27.1 39.1 27.2 C 39.1 27.2 39.1 27.3 39.1 27.4 C 39.1 27.5 39.1 27.6 39 27.6 C 39 27.7 38.9 27.7 38.8 27.7 C 38.6 27.7 38.5 27.6 38.5 27.3 C 38.5 27 38.5 26.7 38.6 26.3 C 38.6 25.9 38.7 25.6 38.7 25.4 C 38.7 25.4 38.7 25.4 38.7 25.4 Z M 40.5 27 C 40.4 27 40.4 27 40.4 27 C 40.3 27 40.3 27.1 40.1 27.4 C 40 27.6 39.9 27.7 39.9 27.7 C 39.8 27.7 39.8 27.7 39.7 27.7 C 39.7 27.7 39.6 27.7 39.6 27.6 C 39.5 27.6 39.4 27.5 39.4 27.5 C 39.4 27.4 39.6 27.1 40 26.6 C 40.2 26.3 40.4 26 40.5 25.7 C 40.8 25.1 41 24.7 41.1 24.6 C 41.2 24.5 41.3 24.5 41.3 24.5 C 41.5 24.5 41.6 24.5 41.6 24.6 C 41.6 24.6 41.6 24.7 41.6 24.7 C 41.6 24.8 41.6 24.8 41.6 24.9 C 41.9 25.7 42.1 26.2 42.3 26.6 C 42.4 26.9 42.5 27.1 42.7 27.3 C 42.8 27.4 42.8 27.4 42.8 27.4 C 42.8 27.5 42.9 27.5 42.9 27.5 C 42.9 27.6 42.8 27.7 42.8 27.7 C 42.7 27.8 42.6 27.8 42.6 27.8 C 42.5 27.8 42.3 27.8 42.2 27.6 C 42.1 27.5 42 27.3 41.9 27.1 C 41.8 26.9 41.8 26.8 41.8 26.7 C 41.8 26.7 41.8 26.7 41.8 26.7 C 41.7 26.7 41.5 26.8 41.2 26.8 C 41 26.9 40.8 26.9 40.6 27 C 40.6 27 40.5 27 40.5 27 C 40.5 27 40.5 27 40.5 27 Z M 41.4 26.3 C 41.5 26.3 41.5 26.3 41.6 26.3 C 41.6 26.2 41.5 25.9 41.3 25.4 C 41.3 25.3 41.3 25.3 41.3 25.3 C 41.3 25.3 40.6 26.5 40.6 26.5 C 40.7 26.4 40.8 26.4 40.9 26.4 C 41 26.4 41.1 26.4 41.4 26.3 C 41.4 26.3 41.4 26.3 41.4 26.3 Z M 43.9 25.5 C 43.8 25.6 43.8 25.8 43.8 25.8 C 43.8 25.9 43.8 26 43.8 26.1 C 43.7 26.5 43.7 26.7 43.7 26.8 C 43.7 27 43.7 27.2 43.7 27.3 C 43.8 27.5 43.7 27.6 43.7 27.6 C 43.6 27.7 43.5 27.7 43.4 27.7 C 43.3 27.7 43.3 27.7 43.2 27.6 C 43.2 27.5 43.2 27.3 43.2 27.1 C 43.2 27 43.2 26.7 43.3 26.2 C 43.3 26.2 43.4 25.3 43.4 25.3 C 43.4 25.2 43.4 25.1 43.4 25 C 43.5 24.8 43.5 24.7 43.5 24.7 C 43.5 24.7 43.6 24.6 43.6 24.6 C 43.7 24.5 43.7 24.5 43.8 24.5 C 43.9 24.5 43.9 24.5 44 24.6 C 44 24.7 44 24.8 44 24.9 C 44 24.9 43.9 25.5 43.9 25.5 Z M 46.8 25 C 46.8 25.2 46.7 25.3 46.4 25.3 C 46.4 25.2 46.4 25.1 46.3 25 C 46.2 25 46.1 25 46 25 C 45.7 25 45.5 25 45.3 25.1 C 45.1 25.3 45 25.4 45 25.5 C 45 25.6 45 25.7 45.1 25.8 C 45.2 25.8 45.4 25.9 45.7 26 C 46 26.1 46.3 26.2 46.5 26.3 C 46.6 26.4 46.7 26.6 46.7 26.7 C 46.7 27 46.5 27.3 46.1 27.5 C 45.7 27.7 45.2 27.9 44.8 27.9 C 44.6 27.9 44.5 27.8 44.4 27.8 C 44.3 27.7 44.3 27.6 44.3 27.5 C 44.3 27.5 44.3 27.4 44.3 27.3 C 44.4 27.3 44.4 27.2 44.5 27.2 C 44.5 27.2 44.5 27.2 44.6 27.3 C 44.7 27.3 44.9 27.4 45 27.4 C 45.2 27.4 45.5 27.3 45.7 27.2 C 46 27 46.2 26.9 46.2 26.8 C 46.2 26.7 46.1 26.7 46.1 26.7 C 46 26.6 45.8 26.5 45.6 26.5 C 45.3 26.4 45.1 26.3 44.9 26.2 C 44.8 26.2 44.7 26.1 44.6 26 C 44.5 25.9 44.5 25.7 44.5 25.6 C 44.5 25.3 44.6 25.1 44.9 24.8 C 45.2 24.6 45.6 24.5 46 24.5 C 46.3 24.5 46.5 24.5 46.6 24.6 C 46.7 24.7 46.8 24.8 46.8 25 C 46.8 25 46.8 25 46.8 25 Z " stroke="none" fill="#000"/>  </g>  <g id="Polygon15383">    <path d="M 27 19.1 C 27 19 27 19 26.9 18.9 C 26.8 18.9 26.8 18.9 26.7 18.9 C 26.5 18.9 26.4 18.9 26.2 19 C 26.1 19.1 26 19.1 26 19.2 C 26 19.3 26 19.4 26.1 19.4 C 26.2 19.5 26.3 19.5 26.5 19.6 C 26.7 19.7 26.9 19.7 26.9 19.8 C 27 19.8 27.1 19.9 27.1 20 C 27.1 20.1 27 20.2 26.9 20.3 C 26.8 20.4 26.6 20.5 26.5 20.5 C 26.3 20.6 26.1 20.6 26 20.6 C 25.9 20.6 25.8 20.6 25.8 20.6 C 25.7 20.6 25.7 20.5 25.7 20.5 C 25.7 20.5 25.7 20.4 25.7 20.4 C 25.7 20.4 25.8 20.4 25.8 20.4 C 25.8 20.4 25.8 20.4 25.8 20.4 C 25.9 20.4 26 20.4 26.1 20.4 C 26.3 20.4 26.4 20.4 26.6 20.3 C 26.8 20.2 26.9 20.1 26.9 20 C 26.9 20 26.8 20 26.8 19.9 C 26.7 19.9 26.6 19.8 26.4 19.8 C 26.1 19.7 25.9 19.6 25.9 19.5 C 25.8 19.4 25.8 19.4 25.8 19.3 C 25.8 19.1 25.9 19 26.1 18.9 C 26.3 18.7 26.5 18.7 26.7 18.7 C 26.8 18.7 27 18.7 27 18.8 C 27.1 18.8 27.1 18.9 27.1 18.9 C 27.1 19 27.1 19 27.1 19.1 C 27.1 19.1 27.1 19.1 27 19.1 Z M 28.3 18.7 C 28.3 18.7 28.4 18.7 28.4 18.7 C 28.4 18.7 28.4 18.8 28.4 18.8 C 28.4 18.8 28.4 18.9 28.4 18.9 C 28.4 18.9 28.4 18.9 28.4 18.9 C 28.4 19 28.4 19.1 28.5 19.2 C 28.5 19.3 28.5 19.4 28.6 19.4 C 28.6 19.7 28.7 19.9 28.8 20 C 28.9 20.2 29 20.3 29 20.4 C 29.1 20.4 29.1 20.4 29.1 20.4 C 29.1 20.5 29.1 20.5 29.1 20.5 C 29.1 20.5 29.1 20.6 29.1 20.6 C 29.1 20.6 29 20.6 29 20.6 C 28.9 20.6 28.8 20.5 28.6 20.1 C 28.5 20 28.5 19.9 28.5 19.9 C 28.5 19.9 28.4 19.9 28.2 20 C 28.1 20 28 20 27.9 20 C 27.8 20.1 27.8 20.1 27.8 20.1 C 27.7 20.1 27.7 20.1 27.7 20 C 27.7 20 27.7 20 27.7 20 C 27.7 20 27.6 20.1 27.6 20.2 C 27.5 20.4 27.4 20.5 27.4 20.5 C 27.4 20.6 27.3 20.6 27.3 20.6 C 27.3 20.6 27.2 20.6 27.2 20.5 C 27.2 20.5 27.2 20.5 27.2 20.5 C 27.2 20.4 27.2 20.4 27.2 20.3 C 27.2 20.3 27.3 20.2 27.4 20.1 C 27.6 19.8 27.7 19.6 27.8 19.4 C 28 19 28.1 18.8 28.1 18.8 C 28.2 18.7 28.2 18.7 28.3 18.7 C 28.3 18.7 28.3 18.7 28.3 18.7 Z M 28.1 19.8 C 28.3 19.8 28.4 19.7 28.5 19.7 C 28.4 19.7 28.4 19.5 28.3 19.4 C 28.3 19.2 28.2 19.1 28.2 19 C 28.2 19.1 28.1 19.3 28 19.4 C 28 19.4 27.8 19.9 27.8 19.9 C 27.8 19.8 27.8 19.8 27.9 19.8 C 28 19.8 28 19.8 28.1 19.8 C 28.1 19.8 28.1 19.8 28.1 19.8 Z M 29.8 18.9 C 29.8 18.9 29.7 19 29.7 19.2 C 29.7 19.3 29.7 19.4 29.6 19.5 C 29.6 19.5 29.6 19.5 29.6 19.6 C 29.6 19.8 29.6 20 29.6 20 C 29.6 20.1 29.6 20.3 29.6 20.4 C 29.6 20.4 29.6 20.5 29.6 20.5 C 29.5 20.5 29.5 20.6 29.5 20.6 C 29.4 20.6 29.4 20.5 29.4 20.5 C 29.4 20.4 29.3 20.4 29.3 20.2 C 29.3 20.1 29.4 20 29.4 19.8 C 29.4 19.7 29.4 19.6 29.4 19.6 C 29.4 19.6 29.4 19.6 29.4 19.5 C 29.4 19.5 29.4 19.5 29.4 19.4 C 29.4 19.4 29.5 19.3 29.5 19.1 C 29.5 19 29.5 19 29.5 18.9 C 29.5 18.8 29.5 18.8 29.5 18.8 C 29.5 18.8 29.6 18.8 29.6 18.7 C 29.6 18.7 29.7 18.7 29.7 18.7 C 29.7 18.7 29.7 18.7 29.7 18.8 C 29.8 18.8 29.8 18.8 29.8 18.9 Z M 31.2 19.5 C 31.2 19.5 31.2 19.5 31.2 19.5 C 31.3 19.6 31.4 19.6 31.5 19.7 C 31.5 19.8 31.6 19.8 31.6 19.9 C 31.6 20.1 31.5 20.3 31.3 20.4 C 31.1 20.6 30.9 20.7 30.6 20.7 C 30.6 20.7 30.5 20.7 30.5 20.7 C 30.5 20.6 30.4 20.6 30.4 20.6 C 30.4 20.5 30.5 20.4 30.7 20.4 C 30.7 20.4 30.7 20.4 30.8 20.4 C 30.8 20.4 30.9 20.4 30.9 20.4 C 31 20.4 31 20.4 31.1 20.3 C 31.1 20.3 31.2 20.2 31.2 20.2 C 31.3 20.2 31.3 20.1 31.3 20.1 C 31.3 20 31.4 20 31.4 20 C 31.4 19.9 31.3 19.8 31.3 19.8 C 31.2 19.7 31.1 19.7 31 19.7 C 31 19.7 31 19.7 30.9 19.7 C 30.8 19.7 30.8 19.8 30.8 19.8 C 30.7 19.8 30.7 19.8 30.7 19.7 C 30.6 19.7 30.6 19.7 30.6 19.6 C 30.6 19.6 30.7 19.6 30.8 19.5 C 31 19.5 31.1 19.4 31.2 19.3 C 31.3 19.2 31.3 19.1 31.3 19 C 31.3 19 31.3 18.9 31.3 18.9 C 31.2 18.9 31.2 18.9 31.1 18.9 C 31 18.9 30.9 18.9 30.7 18.9 C 30.6 18.9 30.5 19 30.5 19 C 30.5 19 30.5 19.2 30.4 19.6 C 30.4 20 30.4 20.2 30.4 20.2 C 30.4 20.3 30.4 20.4 30.4 20.4 C 30.4 20.5 30.3 20.5 30.3 20.5 C 30.3 20.6 30.3 20.6 30.2 20.6 C 30.2 20.6 30.1 20.6 30.1 20.5 C 30.1 20.5 30.1 20.5 30.1 20.4 C 30.1 20.4 30.1 20.4 30.1 20.3 C 30.1 20.2 30.2 19.9 30.2 19.7 C 30.3 19.4 30.3 19.2 30.3 19.2 C 30.3 19.1 30.3 19.1 30.3 19.1 C 30.3 19.1 30.2 19.1 30.2 19.1 C 30.2 19.1 30.2 19.1 30.2 19.1 C 30.1 19.1 30.1 19.1 30.1 19.1 C 30.1 19 30.1 19 30.1 19 C 30.1 18.9 30.2 18.8 30.4 18.8 C 30.7 18.7 30.9 18.7 31.2 18.7 C 31.3 18.7 31.4 18.7 31.5 18.8 C 31.5 18.8 31.6 18.9 31.6 19 C 31.6 19.1 31.6 19.2 31.5 19.2 C 31.4 19.3 31.3 19.4 31.2 19.5 Z M 32.8 18.7 C 32.8 18.7 32.9 18.7 32.9 18.7 C 32.9 18.7 32.9 18.8 32.9 18.8 C 32.9 18.8 32.9 18.9 32.9 18.9 C 32.9 18.9 32.9 18.9 32.9 18.9 C 32.9 19 33 19.1 33 19.2 C 33 19.3 33 19.4 33.1 19.4 C 33.2 19.7 33.2 19.9 33.3 20 C 33.4 20.2 33.5 20.3 33.5 20.4 C 33.6 20.4 33.6 20.4 33.6 20.4 C 33.6 20.5 33.6 20.5 33.6 20.5 C 33.6 20.5 33.6 20.6 33.6 20.6 C 33.6 20.6 33.5 20.6 33.5 20.6 C 33.4 20.6 33.3 20.5 33.1 20.1 C 33.1 20 33 19.9 33 19.9 C 33 19.9 32.9 19.9 32.7 20 C 32.6 20 32.5 20 32.4 20 C 32.3 20.1 32.3 20.1 32.3 20.1 C 32.2 20.1 32.2 20.1 32.2 20 C 32.2 20 32.2 20 32.2 20 C 32.2 20 32.1 20.1 32.1 20.2 C 32 20.4 31.9 20.5 31.9 20.5 C 31.9 20.6 31.8 20.6 31.8 20.6 C 31.8 20.6 31.7 20.6 31.7 20.5 C 31.7 20.5 31.7 20.5 31.7 20.5 C 31.7 20.4 31.7 20.4 31.7 20.3 C 31.7 20.3 31.8 20.2 31.9 20.1 C 32.1 19.8 32.2 19.6 32.3 19.4 C 32.5 19 32.6 18.8 32.6 18.8 C 32.7 18.7 32.7 18.7 32.8 18.7 C 32.8 18.7 32.8 18.7 32.8 18.7 Z M 32.6 19.8 C 32.8 19.8 32.9 19.7 33 19.7 C 32.9 19.7 32.9 19.5 32.8 19.4 C 32.8 19.2 32.7 19.1 32.7 19 C 32.7 19.1 32.6 19.3 32.5 19.4 C 32.5 19.4 32.3 19.9 32.3 19.9 C 32.3 19.8 32.3 19.8 32.4 19.8 C 32.5 19.8 32.5 19.8 32.6 19.8 C 32.6 19.8 32.6 19.8 32.6 19.8 Z M 36.6 19.1 C 36.6 19.1 36.6 19.1 36.6 19.1 C 36.5 19.1 36.4 19.3 36.2 19.5 C 36 19.8 35.9 19.9 35.8 20 C 35.7 20.1 35.7 20.1 35.6 20.1 C 35.6 20.1 35.6 20.1 35.5 20 C 35.5 20 35.5 19.9 35.4 19.7 C 35.3 19.4 35.2 19.2 35.2 19.2 C 35.2 19.2 35.2 19.2 35.2 19.3 C 35.2 19.4 35.1 19.6 35.1 19.8 C 35 20.2 34.9 20.4 34.9 20.5 C 34.9 20.5 34.9 20.6 34.9 20.6 C 34.9 20.6 34.8 20.6 34.8 20.6 C 34.8 20.6 34.8 20.6 34.8 20.6 C 34.7 20.5 34.7 20.5 34.7 20.5 C 34.7 20.4 34.7 20.3 34.8 20.1 C 34.8 20.1 34.9 19.7 34.9 19.7 C 35 19.4 35 19.2 35 19.1 C 35 19 35 18.9 35 18.8 C 35 18.8 35.1 18.7 35.2 18.7 C 35.2 18.7 35.3 18.7 35.3 18.8 C 35.3 18.8 35.3 18.9 35.3 18.9 C 35.3 18.9 35.4 19 35.4 19 C 35.4 19 35.5 19.5 35.5 19.5 C 35.6 19.7 35.6 19.8 35.7 19.8 C 35.7 19.8 35.7 19.8 35.7 19.8 C 35.7 19.8 35.9 19.6 36.2 19.3 C 36.4 18.9 36.6 18.7 36.6 18.7 C 36.7 18.7 36.7 18.7 36.8 18.7 C 36.8 18.8 36.8 18.8 36.8 18.8 C 36.8 18.8 36.8 19 36.7 19.3 C 36.7 19.5 36.7 19.6 36.7 19.8 C 36.7 20 36.7 20.1 36.7 20.1 C 36.7 20.2 36.7 20.2 36.7 20.3 C 36.7 20.3 36.7 20.4 36.7 20.4 C 36.7 20.4 36.7 20.4 36.7 20.5 C 36.7 20.5 36.7 20.5 36.6 20.6 C 36.6 20.6 36.6 20.6 36.6 20.6 C 36.5 20.6 36.4 20.5 36.4 20.3 C 36.4 20.2 36.5 19.9 36.5 19.4 C 36.5 19.3 36.5 19.3 36.5 19.3 C 36.5 19.3 36.5 19.3 36.6 19.2 C 36.6 19.2 36.6 19.1 36.6 19.1 C 36.6 19.1 36.6 19.1 36.6 19.1 Z M 38 18.7 C 38.1 18.7 38.1 18.7 38.1 18.7 C 38.1 18.7 38.2 18.8 38.2 18.8 C 38.2 18.8 38.1 18.9 38.1 18.9 C 38.1 18.9 38.2 18.9 38.2 18.9 C 38.2 19 38.2 19.1 38.2 19.2 C 38.3 19.3 38.3 19.4 38.3 19.4 C 38.4 19.7 38.5 19.9 38.6 20 C 38.6 20.2 38.7 20.3 38.8 20.4 C 38.8 20.4 38.9 20.4 38.9 20.4 C 38.9 20.5 38.9 20.5 38.9 20.5 C 38.9 20.5 38.9 20.6 38.8 20.6 C 38.8 20.6 38.8 20.6 38.8 20.6 C 38.6 20.6 38.5 20.5 38.4 20.1 C 38.3 20 38.3 19.9 38.3 19.9 C 38.2 19.9 38.1 19.9 38 20 C 37.9 20 37.8 20 37.6 20 C 37.6 20.1 37.5 20.1 37.5 20.1 C 37.5 20.1 37.5 20.1 37.5 20 C 37.5 20 37.4 20 37.4 20 C 37.4 20 37.4 20.1 37.3 20.2 C 37.2 20.4 37.2 20.5 37.1 20.5 C 37.1 20.6 37.1 20.6 37.1 20.6 C 37 20.6 37 20.6 37 20.5 C 36.9 20.5 36.9 20.5 36.9 20.5 C 36.9 20.4 36.9 20.4 37 20.3 C 37 20.3 37.1 20.2 37.2 20.1 C 37.3 19.8 37.5 19.6 37.6 19.4 C 37.7 19 37.9 18.8 37.9 18.8 C 38 18.7 38 18.7 38 18.7 C 38 18.7 38 18.7 38 18.7 Z M 37.8 19.8 C 38 19.8 38.2 19.7 38.2 19.7 C 38.2 19.7 38.1 19.5 38.1 19.4 C 38 19.2 38 19.1 38 19 C 37.9 19.1 37.9 19.3 37.8 19.4 C 37.8 19.4 37.5 19.9 37.5 19.9 C 37.6 19.8 37.6 19.8 37.7 19.8 C 37.7 19.8 37.8 19.8 37.8 19.8 C 37.8 19.8 37.8 19.8 37.8 19.8 Z M 39.5 18.9 C 39.5 18.9 39.5 19 39.4 19.2 C 39.4 19.3 39.4 19.4 39.4 19.5 C 39.4 19.5 39.4 19.5 39.4 19.6 C 39.4 19.8 39.3 20 39.3 20 C 39.3 20.1 39.3 20.3 39.4 20.4 C 39.4 20.4 39.4 20.5 39.3 20.5 C 39.3 20.5 39.3 20.6 39.2 20.6 C 39.2 20.6 39.1 20.5 39.1 20.5 C 39.1 20.4 39.1 20.4 39.1 20.2 C 39.1 20.1 39.1 20 39.2 19.8 C 39.2 19.7 39.2 19.6 39.2 19.6 C 39.2 19.6 39.2 19.6 39.2 19.5 C 39.2 19.5 39.2 19.5 39.2 19.4 C 39.2 19.4 39.2 19.3 39.2 19.1 C 39.3 19 39.3 19 39.3 18.9 C 39.3 18.8 39.3 18.8 39.3 18.8 C 39.3 18.8 39.3 18.8 39.4 18.7 C 39.4 18.7 39.4 18.7 39.4 18.7 C 39.5 18.7 39.5 18.7 39.5 18.8 C 39.5 18.8 39.5 18.8 39.5 18.9 Z M 41 19.1 C 41 19 41 19 40.9 18.9 C 40.9 18.9 40.8 18.9 40.7 18.9 C 40.5 18.9 40.4 18.9 40.2 19 C 40.1 19.1 40 19.1 40 19.2 C 40 19.3 40 19.4 40.1 19.4 C 40.2 19.5 40.3 19.5 40.5 19.6 C 40.7 19.7 40.9 19.7 41 19.8 C 41.1 19.8 41.1 19.9 41.1 20 C 41.1 20.1 41 20.2 40.9 20.3 C 40.8 20.4 40.6 20.5 40.5 20.5 C 40.3 20.6 40.2 20.6 40 20.6 C 39.9 20.6 39.9 20.6 39.8 20.6 C 39.8 20.6 39.7 20.5 39.7 20.5 C 39.7 20.5 39.7 20.4 39.8 20.4 C 39.8 20.4 39.8 20.4 39.8 20.4 C 39.8 20.4 39.8 20.4 39.9 20.4 C 39.9 20.4 40 20.4 40.1 20.4 C 40.3 20.4 40.4 20.4 40.6 20.3 C 40.8 20.2 40.9 20.1 40.9 20 C 40.9 20 40.9 20 40.8 19.9 C 40.7 19.9 40.6 19.8 40.4 19.8 C 40.1 19.7 40 19.6 39.9 19.5 C 39.8 19.4 39.8 19.4 39.8 19.3 C 39.8 19.1 39.9 19 40.1 18.9 C 40.3 18.7 40.5 18.7 40.7 18.7 C 40.9 18.7 41 18.7 41.1 18.8 C 41.1 18.8 41.2 18.9 41.2 18.9 C 41.2 19 41.2 19 41.1 19.1 C 41.1 19.1 41.1 19.1 41 19.1 Z " stroke="none" fill="#000"/>  </g>  <g id="Polygon15382">    <path d="M 3.7 15.5 C 3.7 15.5 3.6 15.4 3.6 15.3 C 3.6 15.3 3.8 15.2 4 15.2 C 4.2 15.1 4.4 15.1 4.5 15.1 C 4.7 15.1 4.9 15.2 5 15.2 C 5.1 15.3 5.1 15.4 5.1 15.5 C 5.1 15.7 5 15.9 4.8 16 C 4.6 16.2 4.4 16.3 4 16.3 C 3.9 16.4 3.9 16.4 3.9 16.4 C 3.9 16.4 3.8 16.5 3.8 16.6 C 3.8 16.7 3.8 16.8 3.8 16.9 C 3.8 16.9 3.8 17 3.8 17 C 3.8 17 3.7 17 3.7 17 C 3.6 17 3.6 17 3.6 16.9 C 3.6 16.8 3.6 16.7 3.6 16.4 C 3.6 16.4 3.7 15.7 3.7 15.7 C 3.7 15.7 3.7 15.6 3.7 15.6 C 3.7 15.5 3.7 15.5 3.7 15.5 Z M 4.5 15.3 C 4.4 15.3 4.2 15.3 4 15.4 C 4 15.4 4 15.5 4 15.5 C 3.9 15.7 3.9 15.8 3.9 15.9 C 3.9 16 3.9 16.1 3.9 16.2 C 4.2 16.1 4.4 16 4.6 15.9 C 4.8 15.8 4.9 15.7 4.9 15.6 C 4.9 15.4 4.8 15.3 4.5 15.3 C 4.5 15.3 4.5 15.3 4.5 15.3 Z M 5.7 17 C 5.6 17 5.5 17 5.4 16.8 C 5.3 16.7 5.2 16.6 5.2 16.4 C 5.2 16.3 5.3 16.1 5.4 15.9 C 5.5 15.6 5.6 15.5 5.8 15.3 C 6 15.2 6.1 15.1 6.3 15.1 C 6.4 15.1 6.6 15.1 6.6 15.2 C 6.7 15.2 6.8 15.3 6.9 15.3 C 7 15.4 7 15.5 7 15.5 C 7.1 15.6 7.1 15.7 7.1 15.8 C 7.1 15.9 7 16 7 16.2 C 6.9 16.3 6.8 16.5 6.6 16.6 C 6.5 16.8 6.4 16.9 6.2 16.9 C 6.1 17 5.9 17 5.7 17 Z M 5.5 16.4 C 5.5 16.5 5.5 16.6 5.6 16.7 C 5.6 16.8 5.7 16.8 5.8 16.8 C 6.1 16.8 6.3 16.7 6.5 16.5 C 6.7 16.3 6.8 16 6.8 15.8 C 6.8 15.7 6.8 15.6 6.8 15.5 C 6.7 15.5 6.7 15.4 6.6 15.4 C 6.5 15.3 6.4 15.3 6.3 15.3 C 6.1 15.3 5.9 15.4 5.7 15.7 C 5.6 15.9 5.5 16.2 5.5 16.4 Z M 7.3 16.8 C 7.3 16.7 7.3 16.6 7.3 16.6 C 7.3 16.6 7.3 16.5 7.4 16.3 C 7.4 16.1 7.4 15.9 7.4 15.6 C 7.5 15.4 7.5 15.3 7.5 15.2 C 7.5 15.2 7.5 15.2 7.5 15.2 C 7.5 15.1 7.6 15.1 7.6 15.1 C 7.6 15.1 7.7 15.1 7.7 15.2 C 7.7 15.2 7.7 15.2 7.7 15.2 C 7.7 15.3 7.7 15.3 7.7 15.4 C 7.7 15.5 7.6 15.8 7.6 16.1 C 7.6 16.4 7.5 16.6 7.5 16.7 C 7.5 16.7 7.6 16.7 7.6 16.7 C 7.6 16.7 7.6 16.7 7.6 16.7 C 7.6 16.7 7.7 16.7 7.9 16.7 C 8 16.7 8.1 16.7 8.4 16.7 C 8.4 16.7 8.5 16.7 8.6 16.6 C 8.6 16.6 8.6 16.6 8.6 16.6 C 8.6 16.6 8.6 16.6 8.7 16.7 C 8.7 16.7 8.7 16.7 8.7 16.7 C 8.7 16.8 8.7 16.8 8.6 16.8 C 8.6 16.9 8.6 16.9 8.5 16.9 C 8.5 16.9 8.5 16.9 8.4 16.9 C 8.4 16.9 8.3 16.9 8.3 16.9 C 8 16.9 7.8 16.9 7.5 17 C 7.5 17 7.4 17 7.4 17 C 7.4 17 7.3 17 7.3 17 C 7.3 16.9 7.3 16.9 7.3 16.9 C 7.3 16.9 7.3 16.8 7.3 16.8 C 7.3 16.8 7.3 16.8 7.3 16.8 Z M 9.3 15.3 C 9.3 15.3 9.3 15.5 9.2 15.7 C 9.2 15.7 9.2 15.8 9.2 15.9 C 9.2 15.9 9.2 16 9.2 16 C 9.1 16.2 9.1 16.4 9.1 16.5 C 9.1 16.6 9.1 16.7 9.1 16.8 C 9.1 16.9 9.1 16.9 9.1 17 C 9.1 17 9 17 9 17 C 9 17 8.9 17 8.9 16.9 C 8.9 16.9 8.9 16.8 8.9 16.7 C 8.9 16.6 8.9 16.4 8.9 16.2 C 9 16.1 9 16.1 9 16.1 C 9 16 9 16 9 16 C 9 15.9 9 15.9 9 15.9 C 9 15.8 9 15.7 9 15.6 C 9 15.5 9.1 15.4 9.1 15.3 C 9.1 15.3 9.1 15.2 9.1 15.2 C 9.1 15.2 9.1 15.2 9.1 15.2 C 9.2 15.1 9.2 15.1 9.2 15.1 C 9.2 15.1 9.3 15.2 9.3 15.2 C 9.3 15.2 9.3 15.3 9.3 15.3 Z M 9.7 14.5 C 9.7 14.5 9.7 14.5 9.7 14.5 C 9.7 14.5 9.7 14.5 9.7 14.5 C 9.6 14.5 9.5 14.6 9.3 14.8 C 9.3 14.8 9.2 14.9 9.2 14.9 C 9.2 14.9 9.1 14.9 9.1 14.9 C 9.1 14.9 9.1 14.9 9.1 14.9 C 9.1 14.8 9.1 14.8 9.1 14.8 C 9.1 14.8 9.1 14.7 9.3 14.6 C 9.4 14.5 9.5 14.4 9.6 14.4 C 9.6 14.3 9.7 14.3 9.7 14.3 C 9.7 14.3 9.7 14.3 9.7 14.3 C 9.7 14.3 9.7 14.3 9.8 14.3 C 9.8 14.4 9.8 14.4 9.8 14.4 C 9.8 14.4 9.8 14.4 9.8 14.5 C 9.7 14.5 9.7 14.5 9.7 14.5 Z M 9.6 15.5 C 9.5 15.5 9.5 15.5 9.5 15.4 C 9.4 15.4 9.4 15.4 9.4 15.4 C 9.4 15.3 9.5 15.3 9.5 15.3 C 9.5 15.3 9.6 15.3 9.7 15.3 C 9.9 15.3 10 15.3 10.2 15.3 C 10.3 15.3 10.5 15.2 10.8 15.2 C 10.9 15.2 11 15.2 11.1 15.2 C 11.1 15.2 11.2 15.2 11.2 15.2 C 11.2 15.2 11.3 15.2 11.3 15.2 C 11.3 15.2 11.3 15.2 11.3 15.2 C 11.4 15.3 11.4 15.3 11.4 15.3 C 11.4 15.4 11.3 15.4 11.3 15.4 C 11.3 15.4 11.2 15.4 11.2 15.4 C 11.1 15.4 11.1 15.4 11 15.4 C 10.9 15.4 10.8 15.4 10.7 15.4 C 10.6 15.4 10.5 15.4 10.5 15.4 C 10.5 15.5 10.4 15.6 10.4 15.9 C 10.4 16.2 10.4 16.4 10.4 16.6 C 10.4 16.7 10.4 16.7 10.4 16.8 C 10.4 16.8 10.4 16.9 10.4 16.9 C 10.4 16.9 10.4 16.9 10.4 17 C 10.4 17 10.3 17 10.3 17 C 10.3 17 10.2 17 10.2 16.9 C 10.2 16.9 10.2 16.8 10.2 16.6 C 10.2 16.4 10.2 16.1 10.3 15.5 C 10.3 15.5 10.3 15.5 10.3 15.5 C 10.3 15.5 10.2 15.4 10.2 15.4 C 10.2 15.4 10.1 15.5 9.9 15.5 C 9.8 15.5 9.7 15.5 9.6 15.5 C 9.6 15.5 9.6 15.5 9.6 15.5 Z M 11.7 15.3 C 11.7 15.3 11.7 15.5 11.7 15.7 C 11.6 15.7 11.6 15.8 11.6 15.9 C 11.6 15.9 11.6 16 11.6 16 C 11.6 16.2 11.5 16.4 11.5 16.5 C 11.5 16.6 11.5 16.7 11.6 16.8 C 11.6 16.9 11.6 16.9 11.5 17 C 11.5 17 11.5 17 11.4 17 C 11.4 17 11.4 17 11.3 16.9 C 11.3 16.9 11.3 16.8 11.3 16.7 C 11.3 16.6 11.3 16.4 11.4 16.2 C 11.4 16.1 11.4 16.1 11.4 16.1 C 11.4 16 11.4 16 11.4 16 C 11.4 15.9 11.4 15.9 11.4 15.9 C 11.4 15.8 11.4 15.7 11.4 15.6 C 11.5 15.5 11.5 15.4 11.5 15.3 C 11.5 15.3 11.5 15.2 11.5 15.2 C 11.5 15.2 11.5 15.2 11.6 15.2 C 11.6 15.1 11.6 15.1 11.6 15.1 C 11.7 15.1 11.7 15.2 11.7 15.2 C 11.7 15.2 11.7 15.3 11.7 15.3 Z M 13.1 16.7 C 13.2 16.6 13.3 16.6 13.3 16.6 C 13.3 16.6 13.3 16.6 13.3 16.6 C 13.3 16.7 13.3 16.7 13.2 16.8 C 13.1 16.9 13 17 12.9 17 C 12.8 17 12.6 17.1 12.5 17.1 C 12.4 17.1 12.3 17 12.1 16.9 C 12 16.8 12 16.7 12 16.5 C 12 16.2 12.1 15.8 12.4 15.5 C 12.7 15.2 13 15 13.2 15 C 13.3 15 13.4 15.1 13.5 15.1 C 13.5 15.2 13.6 15.3 13.6 15.4 C 13.6 15.4 13.6 15.5 13.5 15.5 C 13.5 15.6 13.5 15.6 13.5 15.6 C 13.4 15.7 13.4 15.7 13.4 15.7 C 13.3 15.7 13.3 15.7 13.3 15.7 C 13.3 15.6 13.3 15.6 13.3 15.6 C 13.3 15.6 13.3 15.5 13.3 15.5 C 13.3 15.4 13.3 15.4 13.3 15.3 C 13.3 15.3 13.3 15.2 13.2 15.2 C 13.1 15.2 13 15.3 12.8 15.4 C 12.6 15.5 12.5 15.7 12.4 15.9 C 12.3 16.1 12.2 16.3 12.2 16.5 C 12.2 16.6 12.2 16.7 12.3 16.8 C 12.4 16.8 12.5 16.9 12.6 16.9 C 12.7 16.9 12.7 16.8 12.8 16.8 C 13 16.8 13 16.7 13.1 16.7 C 13.1 16.7 13.1 16.7 13.1 16.7 Z M 14.6 15.1 C 14.7 15.1 14.7 15.1 14.7 15.2 C 14.7 15.2 14.7 15.2 14.7 15.2 C 14.7 15.3 14.7 15.3 14.7 15.3 C 14.7 15.3 14.7 15.4 14.7 15.4 C 14.8 15.5 14.8 15.5 14.8 15.6 C 14.9 15.7 14.9 15.8 14.9 15.9 C 15 16.1 15.1 16.3 15.2 16.5 C 15.2 16.6 15.3 16.7 15.4 16.8 C 15.4 16.8 15.4 16.9 15.5 16.9 C 15.5 16.9 15.5 16.9 15.5 16.9 C 15.5 17 15.5 17 15.4 17 C 15.4 17 15.4 17.1 15.3 17.1 C 15.2 17.1 15.1 16.9 15 16.6 C 14.9 16.4 14.9 16.4 14.8 16.4 C 14.8 16.4 14.7 16.4 14.6 16.4 C 14.5 16.4 14.3 16.4 14.2 16.5 C 14.2 16.5 14.1 16.5 14.1 16.5 C 14.1 16.5 14.1 16.5 14 16.5 C 14 16.5 14 16.5 14 16.5 C 14 16.5 14 16.5 13.9 16.6 C 13.8 16.8 13.8 16.9 13.7 17 C 13.7 17 13.7 17 13.6 17 C 13.6 17 13.6 17 13.6 17 C 13.5 16.9 13.5 16.9 13.5 16.9 C 13.5 16.9 13.5 16.8 13.6 16.8 C 13.6 16.7 13.6 16.6 13.7 16.5 C 13.9 16.3 14 16 14.2 15.8 C 14.3 15.5 14.4 15.3 14.5 15.2 C 14.5 15.2 14.6 15.1 14.6 15.1 C 14.6 15.1 14.6 15.1 14.6 15.1 Z M 14.4 16.2 C 14.6 16.2 14.8 16.2 14.8 16.2 C 14.8 16.1 14.7 16 14.7 15.8 C 14.6 15.6 14.6 15.5 14.6 15.5 C 14.5 15.6 14.4 15.7 14.3 15.9 C 14.3 15.9 14.1 16.3 14.1 16.3 C 14.1 16.3 14.2 16.3 14.3 16.3 C 14.3 16.3 14.4 16.2 14.4 16.2 C 14.4 16.2 14.4 16.2 14.4 16.2 Z M 18.4 15.5 C 18.4 15.5 18.4 15.5 18.4 15.5 C 18.3 15.6 18.2 15.7 18 16 C 17.9 16.2 17.7 16.4 17.7 16.4 C 17.6 16.5 17.5 16.5 17.5 16.5 C 17.5 16.5 17.4 16.5 17.4 16.5 C 17.4 16.4 17.3 16.3 17.3 16.1 C 17.2 15.8 17.1 15.6 17.1 15.6 C 17.1 15.6 17 15.7 17 15.7 C 17 15.9 17 16 16.9 16.2 C 16.8 16.6 16.8 16.8 16.8 17 C 16.8 17 16.8 17 16.7 17 C 16.7 17 16.7 17 16.7 17 C 16.6 17 16.6 17 16.6 17 C 16.6 17 16.6 16.9 16.6 16.9 C 16.6 16.8 16.6 16.7 16.6 16.5 C 16.6 16.5 16.7 16.1 16.7 16.1 C 16.8 15.9 16.8 15.7 16.9 15.5 C 16.9 15.4 16.9 15.3 16.9 15.3 C 16.9 15.2 16.9 15.2 17.1 15.2 C 17.1 15.2 17.1 15.2 17.1 15.2 C 17.2 15.3 17.2 15.3 17.2 15.3 C 17.2 15.4 17.2 15.4 17.2 15.4 C 17.2 15.4 17.4 15.9 17.4 15.9 C 17.5 16.1 17.5 16.2 17.5 16.2 C 17.5 16.2 17.5 16.3 17.5 16.3 C 17.6 16.2 17.7 16.1 18 15.7 C 18.3 15.3 18.4 15.1 18.5 15.1 C 18.5 15.1 18.6 15.1 18.6 15.2 C 18.6 15.2 18.7 15.2 18.7 15.2 C 18.7 15.2 18.6 15.4 18.6 15.8 C 18.6 15.9 18.6 16.1 18.5 16.2 C 18.5 16.4 18.5 16.5 18.5 16.6 C 18.5 16.6 18.5 16.7 18.5 16.7 C 18.6 16.7 18.6 16.8 18.6 16.8 C 18.6 16.8 18.6 16.9 18.5 16.9 C 18.5 17 18.5 17 18.5 17 C 18.5 17 18.4 17 18.4 17 C 18.3 17 18.3 16.9 18.3 16.8 C 18.3 16.6 18.3 16.3 18.4 15.8 C 18.4 15.8 18.4 15.7 18.4 15.7 C 18.4 15.7 18.4 15.7 18.4 15.6 C 18.4 15.6 18.4 15.6 18.4 15.5 C 18.4 15.5 18.4 15.5 18.4 15.5 Z M 19.9 15.1 C 19.9 15.1 20 15.1 20 15.2 C 20 15.2 20 15.2 20 15.2 C 20 15.3 20 15.3 20 15.3 C 20 15.3 20 15.4 20 15.4 C 20 15.5 20.1 15.5 20.1 15.6 C 20.1 15.7 20.1 15.8 20.2 15.9 C 20.3 16.1 20.3 16.3 20.4 16.5 C 20.5 16.6 20.6 16.7 20.6 16.8 C 20.7 16.8 20.7 16.9 20.7 16.9 C 20.7 16.9 20.7 16.9 20.7 16.9 C 20.7 17 20.7 17 20.7 17 C 20.7 17 20.6 17.1 20.6 17.1 C 20.5 17.1 20.4 16.9 20.2 16.6 C 20.2 16.4 20.1 16.4 20.1 16.4 C 20.1 16.4 20 16.4 19.8 16.4 C 19.7 16.4 19.6 16.4 19.5 16.5 C 19.4 16.5 19.4 16.5 19.4 16.5 C 19.3 16.5 19.3 16.5 19.3 16.5 C 19.3 16.5 19.3 16.5 19.3 16.5 C 19.3 16.5 19.2 16.5 19.2 16.6 C 19.1 16.8 19 16.9 19 17 C 19 17 18.9 17 18.9 17 C 18.9 17 18.8 17 18.8 17 C 18.8 16.9 18.8 16.9 18.8 16.9 C 18.8 16.9 18.8 16.8 18.8 16.8 C 18.8 16.7 18.9 16.6 19 16.5 C 19.2 16.3 19.3 16 19.4 15.8 C 19.6 15.5 19.7 15.3 19.8 15.2 C 19.8 15.2 19.8 15.1 19.9 15.1 C 19.9 15.1 19.9 15.1 19.9 15.1 Z M 19.7 16.2 C 19.9 16.2 20 16.2 20.1 16.2 C 20 16.1 20 16 19.9 15.8 C 19.9 15.6 19.8 15.5 19.8 15.5 C 19.8 15.6 19.7 15.7 19.6 15.9 C 19.6 15.9 19.4 16.3 19.4 16.3 C 19.4 16.3 19.4 16.3 19.5 16.3 C 19.6 16.3 19.6 16.2 19.7 16.2 C 19.7 16.2 19.7 16.2 19.7 16.2 Z M 21.4 15.3 C 21.4 15.3 21.3 15.5 21.3 15.7 C 21.3 15.7 21.3 15.8 21.2 15.9 C 21.2 15.9 21.2 16 21.2 16 C 21.2 16.2 21.2 16.4 21.2 16.5 C 21.2 16.6 21.2 16.7 21.2 16.8 C 21.2 16.9 21.2 16.9 21.2 17 C 21.1 17 21.1 17 21.1 17 C 21 17 21 17 21 16.9 C 21 16.9 21 16.8 21 16.7 C 21 16.6 21 16.4 21 16.2 C 21 16.1 21 16.1 21 16.1 C 21 16 21 16 21 16 C 21 15.9 21 15.9 21 15.9 C 21 15.8 21.1 15.7 21.1 15.6 C 21.1 15.5 21.1 15.4 21.1 15.3 C 21.1 15.3 21.1 15.2 21.1 15.2 C 21.2 15.2 21.2 15.2 21.2 15.2 C 21.2 15.1 21.3 15.1 21.3 15.1 C 21.3 15.1 21.3 15.2 21.4 15.2 C 21.4 15.2 21.4 15.3 21.4 15.3 Z M 22.1 17 C 22 17 21.9 17 21.8 16.8 C 21.7 16.7 21.6 16.6 21.6 16.4 C 21.6 16.3 21.7 16.1 21.8 15.9 C 21.9 15.6 22 15.5 22.2 15.3 C 22.3 15.2 22.5 15.1 22.7 15.1 C 22.8 15.1 22.9 15.1 23 15.2 C 23.1 15.2 23.2 15.3 23.3 15.3 C 23.3 15.4 23.4 15.5 23.4 15.5 C 23.4 15.6 23.4 15.7 23.4 15.8 C 23.4 15.9 23.4 16 23.3 16.2 C 23.3 16.3 23.2 16.5 23 16.6 C 22.9 16.8 22.7 16.9 22.6 16.9 C 22.5 17 22.3 17 22.1 17 Z M 21.8 16.4 C 21.8 16.5 21.9 16.6 21.9 16.7 C 22 16.8 22.1 16.8 22.2 16.8 C 22.4 16.8 22.7 16.7 22.9 16.5 C 23.1 16.3 23.2 16 23.2 15.8 C 23.2 15.7 23.2 15.6 23.1 15.5 C 23.1 15.5 23 15.4 23 15.4 C 22.9 15.3 22.8 15.3 22.7 15.3 C 22.5 15.3 22.3 15.4 22.1 15.7 C 21.9 15.9 21.8 16.2 21.8 16.4 Z M 24 15.2 C 24.3 15.2 24.4 15.1 24.5 15.1 C 24.7 15.1 24.9 15.2 25 15.3 C 25.1 15.3 25.1 15.4 25.1 15.6 C 25.1 15.7 25.1 15.8 25 15.9 C 24.8 16 24.7 16.1 24.5 16.2 C 24.5 16.2 24.5 16.2 24.5 16.2 C 24.5 16.2 24.6 16.3 24.8 16.4 C 24.9 16.6 25.1 16.7 25.2 16.8 C 25.3 16.8 25.3 16.8 25.3 16.9 C 25.3 16.9 25.3 16.9 25.3 16.9 C 25.2 17 25.2 17 25.2 17 C 25.1 17 25 16.9 24.9 16.9 C 24.8 16.8 24.7 16.7 24.6 16.6 C 24.4 16.4 24.2 16.3 24.2 16.3 C 24.1 16.3 24.1 16.3 24.1 16.2 C 24 16.2 24 16.2 24 16.2 C 24 16.1 24 16.1 24.1 16.1 C 24.1 16.1 24.1 16.1 24.2 16.1 C 24.2 16.1 24.2 16.1 24.3 16.1 C 24.3 16.1 24.3 16.1 24.3 16.1 C 24.4 16.1 24.5 16 24.7 15.9 C 24.8 15.8 24.9 15.7 24.9 15.6 C 24.9 15.5 24.9 15.4 24.8 15.4 C 24.7 15.3 24.6 15.3 24.5 15.3 C 24.4 15.3 24.4 15.3 24.3 15.3 C 24.2 15.3 24.1 15.4 24.1 15.4 C 24.1 15.4 24.1 15.4 24.1 15.4 C 24 15.5 24 15.6 24 15.8 C 24 15.9 23.9 16.1 23.9 16.3 C 23.9 16.4 23.9 16.6 23.9 16.6 C 23.9 16.7 23.9 16.8 23.9 16.8 C 23.9 16.8 23.9 16.9 23.9 16.9 C 23.9 16.9 23.9 17 23.9 17 C 23.8 17 23.8 17 23.8 17 C 23.7 17 23.6 16.9 23.6 16.8 C 23.6 16.5 23.7 16 23.8 15.5 C 23.8 15.5 23.8 15.4 23.8 15.4 C 23.8 15.4 23.8 15.4 23.8 15.4 C 23.8 15.4 23.8 15.3 23.8 15.3 C 23.8 15.3 23.8 15.2 23.8 15.2 C 23.9 15.2 23.9 15.2 23.9 15.2 C 23.9 15.2 24 15.2 24 15.2 Z M 26.9 15.3 C 26.9 15.4 26.9 15.3 26.8 15.3 C 26.8 15.3 26.7 15.4 26.7 15.4 C 26.6 15.4 26.6 15.4 26.6 15.4 C 26.5 15.4 26.5 15.4 26.5 15.4 C 26.4 15.4 26.4 15.4 26.3 15.4 C 26.1 15.4 26 15.4 26 15.4 C 25.9 15.5 25.9 15.5 25.9 15.6 C 25.9 15.6 25.9 15.6 25.9 15.7 C 25.8 15.9 25.8 16 25.8 16 C 25.8 16 25.8 16 25.8 16 C 25.9 16 25.9 16 26.1 16 C 26.2 16 26.3 16 26.3 16 C 26.5 15.9 26.5 15.9 26.6 15.9 C 26.7 15.9 26.8 16 26.8 16 C 26.8 16.1 26.7 16.1 26.7 16.1 C 26.6 16.2 26.4 16.2 26.2 16.2 C 26 16.2 25.8 16.3 25.8 16.3 C 25.8 16.3 25.8 16.4 25.7 16.5 C 25.7 16.6 25.7 16.7 25.7 16.8 C 25.7 16.8 25.7 16.8 25.7 16.8 C 25.7 16.8 25.7 16.8 25.8 16.8 C 25.8 16.8 25.8 16.8 25.8 16.8 C 25.9 16.8 25.9 16.8 26 16.8 C 26 16.8 26.2 16.8 26.2 16.8 C 26.3 16.8 26.4 16.8 26.5 16.7 C 26.6 16.7 26.7 16.7 26.7 16.7 C 26.7 16.7 26.8 16.7 26.8 16.7 C 26.8 16.8 26.8 16.8 26.8 16.8 C 26.8 16.9 26.8 16.9 26.8 16.9 C 26.7 16.9 26.6 17 26.5 17 C 26.4 17 26.2 17 25.9 17 C 25.8 17 25.7 17 25.7 17 C 25.6 17 25.5 17 25.5 17 C 25.5 17 25.5 17 25.5 16.9 C 25.46 16.91 25.5 16.9 25.5 16.9 C 25.5 16.9 25.46 16.86 25.5 16.9 C 25.5 16.8 25.5 16.8 25.5 16.8 C 25.5 16.7 25.5 16.6 25.6 16.4 C 25.6 16.3 25.6 16.2 25.6 16.1 C 25.6 16 25.6 16 25.6 15.9 C 25.7 15.7 25.7 15.6 25.7 15.5 C 25.7 15.5 25.7 15.4 25.7 15.4 C 25.7 15.4 25.7 15.4 25.6 15.4 C 25.6 15.4 25.6 15.4 25.6 15.4 C 25.6 15.3 25.6 15.3 25.6 15.3 C 25.6 15.3 25.6 15.3 25.6 15.3 C 25.6 15.3 25.6 15.3 25.7 15.3 C 25.7 15.2 25.7 15.2 25.7 15.2 C 25.7 15.2 25.7 15.2 25.7 15.2 C 25.8 15.2 25.8 15.2 25.8 15.2 C 25.8 15.2 25.9 15.2 25.9 15.2 C 25.9 15.2 26 15.2 26.1 15.2 C 26.3 15.2 26.5 15.2 26.7 15.1 C 26.7 15.1 26.8 15.1 26.8 15.1 C 26.8 15.1 26.8 15.1 26.8 15.1 C 26.8 15.1 26.9 15.1 26.9 15.1 C 26.9 15.2 27 15.2 27 15.2 C 27 15.3 26.9 15.3 26.9 15.3 C 26.9 15.3 26.9 15.3 26.9 15.3 Z M 28.3 15.6 C 28.3 15.5 28.3 15.4 28.3 15.4 C 28.2 15.3 28.1 15.3 28 15.3 C 27.9 15.3 27.7 15.4 27.6 15.4 C 27.4 15.5 27.4 15.6 27.4 15.7 C 27.4 15.7 27.4 15.8 27.5 15.9 C 27.5 15.9 27.7 16 27.9 16 C 28.1 16.1 28.2 16.2 28.3 16.2 C 28.4 16.3 28.4 16.4 28.4 16.4 C 28.4 16.5 28.4 16.6 28.3 16.7 C 28.1 16.8 28 16.9 27.8 17 C 27.6 17 27.5 17.1 27.4 17.1 C 27.3 17.1 27.2 17 27.1 17 C 27.1 17 27.1 17 27.1 16.9 C 27.1 16.9 27.1 16.9 27.1 16.8 C 27.1 16.8 27.1 16.8 27.1 16.8 C 27.2 16.8 27.2 16.8 27.2 16.8 C 27.3 16.8 27.4 16.9 27.5 16.9 C 27.6 16.9 27.8 16.8 28 16.7 C 28.1 16.6 28.2 16.5 28.2 16.5 C 28.2 16.4 28.2 16.4 28.1 16.4 C 28.1 16.3 27.9 16.3 27.7 16.2 C 27.5 16.1 27.3 16 27.2 16 C 27.2 15.9 27.1 15.8 27.1 15.7 C 27.1 15.5 27.2 15.4 27.4 15.3 C 27.6 15.2 27.8 15.1 28.1 15.1 C 28.2 15.1 28.3 15.2 28.4 15.2 C 28.5 15.2 28.5 15.3 28.5 15.4 C 28.5 15.4 28.5 15.4 28.5 15.5 C 28.5 15.5 28.4 15.6 28.3 15.6 Z M 30.9 15.9 C 30.9 15.9 30.9 16 30.9 16 C 31 16 31.1 16 31.1 16.1 C 31.2 16.2 31.2 16.3 31.2 16.4 C 31.2 16.5 31.1 16.7 30.9 16.9 C 30.7 17 30.5 17.1 30.3 17.1 C 30.2 17.1 30.2 17.1 30.1 17.1 C 30.1 17.1 30.1 17 30.1 17 C 30.1 16.9 30.2 16.9 30.3 16.9 C 30.3 16.9 30.4 16.9 30.4 16.9 C 30.5 16.9 30.5 16.9 30.6 16.8 C 30.6 16.8 30.7 16.8 30.7 16.8 C 30.8 16.7 30.8 16.7 30.9 16.6 C 30.9 16.6 30.9 16.6 31 16.5 C 31 16.5 31 16.4 31 16.4 C 31 16.3 31 16.3 30.9 16.2 C 30.8 16.1 30.8 16.1 30.7 16.1 C 30.6 16.1 30.6 16.1 30.5 16.2 C 30.5 16.2 30.4 16.2 30.4 16.2 C 30.3 16.2 30.3 16.2 30.3 16.2 C 30.3 16.2 30.3 16.1 30.3 16.1 C 30.3 16.1 30.3 16 30.5 16 C 30.6 15.9 30.7 15.8 30.8 15.7 C 30.9 15.6 31 15.5 31 15.5 C 31 15.4 31 15.4 30.9 15.3 C 30.9 15.3 30.8 15.3 30.7 15.3 C 30.6 15.3 30.5 15.3 30.4 15.3 C 30.3 15.4 30.2 15.4 30.2 15.4 C 30.2 15.5 30.1 15.7 30.1 16 C 30 16.4 30 16.6 30 16.7 C 30 16.7 30 16.8 30 16.8 C 30 16.9 30 16.9 30 17 C 30 17 29.9 17 29.9 17 C 29.8 17 29.8 17 29.8 17 C 29.7 16.9 29.7 16.9 29.7 16.8 C 29.7 16.8 29.7 16.8 29.7 16.8 C 29.8 16.6 29.8 16.4 29.9 16.1 C 29.9 15.8 29.9 15.7 29.9 15.6 C 29.9 15.6 29.9 15.6 29.9 15.5 C 29.9 15.5 29.9 15.5 29.8 15.5 C 29.8 15.5 29.8 15.5 29.8 15.5 C 29.8 15.5 29.8 15.5 29.8 15.5 C 29.7 15.5 29.7 15.5 29.7 15.4 C 29.7 15.4 29.9 15.3 30.1 15.2 C 30.3 15.1 30.6 15.1 30.8 15.1 C 30.9 15.1 31 15.1 31.1 15.2 C 31.2 15.3 31.2 15.4 31.2 15.4 C 31.2 15.5 31.2 15.6 31.1 15.7 C 31.1 15.8 31 15.9 30.9 15.9 Z M 32.9 15.3 C 32.9 15.4 32.9 15.3 32.9 15.3 C 32.8 15.3 32.8 15.4 32.7 15.4 C 32.7 15.4 32.6 15.4 32.6 15.4 C 32.6 15.4 32.6 15.4 32.5 15.4 C 32.5 15.4 32.4 15.4 32.3 15.4 C 32.2 15.4 32.1 15.4 32 15.4 C 32 15.5 32 15.5 32 15.6 C 31.9 15.6 31.9 15.6 31.9 15.7 C 31.9 15.9 31.9 16 31.9 16 C 31.9 16 31.9 16 31.9 16 C 31.9 16 32 16 32.1 16 C 32.2 16 32.3 16 32.4 16 C 32.5 15.9 32.6 15.9 32.7 15.9 C 32.8 15.9 32.8 16 32.8 16 C 32.8 16.1 32.8 16.1 32.7 16.1 C 32.6 16.2 32.5 16.2 32.3 16.2 C 32 16.2 31.9 16.3 31.9 16.3 C 31.8 16.3 31.8 16.4 31.8 16.5 C 31.8 16.6 31.8 16.7 31.8 16.8 C 31.8 16.8 31.8 16.8 31.8 16.8 C 31.8 16.8 31.8 16.8 31.8 16.8 C 31.8 16.8 31.9 16.8 31.9 16.8 C 31.9 16.8 32 16.8 32 16.8 C 32 16.8 32.3 16.8 32.3 16.8 C 32.4 16.8 32.4 16.8 32.5 16.7 C 32.7 16.7 32.7 16.7 32.8 16.7 C 32.8 16.7 32.8 16.7 32.8 16.7 C 32.9 16.8 32.9 16.8 32.9 16.8 C 32.9 16.9 32.9 16.9 32.9 16.9 C 32.8 16.9 32.7 17 32.5 17 C 32.4 17 32.2 17 32 17 C 31.9 17 31.8 17 31.7 17 C 31.6 17 31.6 17 31.6 17 C 31.5 17 31.5 17 31.5 16.9 C 31.52 16.91 31.5 16.9 31.5 16.9 C 31.5 16.9 31.51 16.86 31.5 16.9 C 31.5 16.8 31.5 16.8 31.5 16.8 C 31.6 16.7 31.6 16.6 31.6 16.4 C 31.6 16.3 31.7 16.2 31.7 16.1 C 31.7 16 31.7 16 31.7 15.9 C 31.7 15.7 31.7 15.6 31.7 15.5 C 31.7 15.5 31.7 15.4 31.7 15.4 C 31.7 15.4 31.7 15.4 31.7 15.4 C 31.7 15.4 31.7 15.4 31.7 15.4 C 31.7 15.3 31.7 15.3 31.7 15.3 C 31.7 15.3 31.7 15.3 31.7 15.3 C 31.7 15.3 31.7 15.3 31.7 15.3 C 31.7 15.2 31.8 15.2 31.8 15.2 C 31.8 15.2 31.8 15.2 31.8 15.2 C 31.8 15.2 31.9 15.2 31.9 15.2 C 31.9 15.2 31.9 15.2 31.9 15.2 C 31.9 15.2 32 15.2 32.2 15.2 C 32.3 15.2 32.5 15.2 32.8 15.1 C 32.8 15.1 32.8 15.1 32.8 15.1 C 32.8 15.1 32.8 15.1 32.8 15.1 C 32.9 15.1 32.9 15.1 33 15.1 C 33 15.2 33 15.2 33 15.2 C 33 15.3 33 15.3 33 15.3 C 33 15.3 32.9 15.3 32.9 15.3 Z M 34.5 16.6 C 34.5 16.4 34.6 16.2 34.6 15.9 C 34.7 15.6 34.7 15.4 34.7 15.3 C 34.7 15.2 34.7 15.2 34.7 15.2 C 34.7 15.2 34.7 15.1 34.8 15.1 C 34.8 15.1 34.8 15.1 34.9 15.1 C 34.9 15.1 34.9 15.1 34.9 15.2 C 34.9 15.2 35 15.2 35 15.3 C 35 15.3 34.9 15.4 34.9 15.5 C 34.9 15.7 34.8 15.9 34.8 16.2 C 34.7 16.5 34.7 16.6 34.7 16.7 C 34.7 16.8 34.7 16.8 34.7 16.8 C 34.7 16.9 34.7 16.9 34.7 16.9 C 34.6 17 34.6 17 34.5 17 C 34.5 17 34.5 17 34.5 17 C 34.5 17 34.4 16.9 34.4 16.9 C 34.4 16.9 34.3 16.8 34.3 16.8 C 34.3 16.8 34.3 16.7 34.3 16.7 C 34 16.4 33.8 16 33.6 15.7 C 33.6 15.9 33.5 16.1 33.5 16.5 C 33.5 16.5 33.4 16.7 33.4 16.7 C 33.4 16.7 33.4 16.7 33.4 16.8 C 33.4 16.9 33.4 16.9 33.4 16.9 C 33.4 17 33.4 17 33.4 17 C 33.3 17 33.3 17.1 33.3 17.1 C 33.2 17.1 33.2 17 33.2 17 C 33.2 16.9 33.2 16.9 33.2 16.9 C 33.2 16.8 33.2 16.7 33.2 16.6 C 33.3 16.4 33.3 16.2 33.4 15.9 C 33.4 15.7 33.5 15.5 33.5 15.4 C 33.5 15.4 33.5 15.3 33.5 15.3 C 33.5 15.3 33.5 15.3 33.5 15.3 C 33.5 15.3 33.5 15.2 33.5 15.2 C 33.5 15.2 33.6 15.2 33.6 15.2 C 33.6 15.2 33.6 15.2 33.7 15.2 C 33.7 15.2 33.7 15.2 33.7 15.3 C 33.7 15.3 33.7 15.3 33.7 15.4 C 33.8 15.5 33.9 15.7 34 16 C 34.2 16.3 34.4 16.5 34.5 16.6 Z M 36.6 15.3 C 36.6 15.4 36.6 15.3 36.6 15.3 C 36.5 15.3 36.5 15.4 36.4 15.4 C 36.4 15.4 36.3 15.4 36.3 15.4 C 36.3 15.4 36.3 15.4 36.2 15.4 C 36.2 15.4 36.1 15.4 36 15.4 C 35.9 15.4 35.8 15.4 35.7 15.4 C 35.7 15.5 35.7 15.5 35.7 15.6 C 35.6 15.6 35.6 15.6 35.6 15.7 C 35.6 15.9 35.6 16 35.6 16 C 35.6 16 35.6 16 35.6 16 C 35.6 16 35.7 16 35.8 16 C 35.9 16 36 16 36.1 16 C 36.2 15.9 36.3 15.9 36.4 15.9 C 36.5 15.9 36.5 16 36.5 16 C 36.5 16.1 36.5 16.1 36.4 16.1 C 36.3 16.2 36.2 16.2 36 16.2 C 35.7 16.2 35.6 16.3 35.6 16.3 C 35.5 16.3 35.5 16.4 35.5 16.5 C 35.5 16.6 35.5 16.7 35.5 16.8 C 35.5 16.8 35.5 16.8 35.5 16.8 C 35.5 16.8 35.5 16.8 35.5 16.8 C 35.5 16.8 35.6 16.8 35.6 16.8 C 35.6 16.8 35.7 16.8 35.7 16.8 C 35.7 16.8 36 16.8 36 16.8 C 36.1 16.8 36.1 16.8 36.2 16.7 C 36.4 16.7 36.4 16.7 36.5 16.7 C 36.5 16.7 36.5 16.7 36.5 16.7 C 36.6 16.8 36.6 16.8 36.6 16.8 C 36.6 16.9 36.6 16.9 36.6 16.9 C 36.5 16.9 36.4 17 36.2 17 C 36.1 17 35.9 17 35.7 17 C 35.6 17 35.5 17 35.4 17 C 35.3 17 35.3 17 35.3 17 C 35.2 17 35.2 17 35.2 16.9 C 35.22 16.91 35.2 16.9 35.2 16.9 C 35.2 16.9 35.21 16.86 35.2 16.9 C 35.2 16.8 35.2 16.8 35.2 16.8 C 35.3 16.7 35.3 16.6 35.3 16.4 C 35.3 16.3 35.4 16.2 35.4 16.1 C 35.4 16 35.4 16 35.4 15.9 C 35.4 15.7 35.4 15.6 35.4 15.5 C 35.4 15.5 35.4 15.4 35.4 15.4 C 35.4 15.4 35.4 15.4 35.4 15.4 C 35.4 15.4 35.4 15.4 35.4 15.4 C 35.4 15.3 35.4 15.3 35.4 15.3 C 35.4 15.3 35.4 15.3 35.4 15.3 C 35.4 15.3 35.4 15.3 35.4 15.3 C 35.4 15.2 35.5 15.2 35.5 15.2 C 35.5 15.2 35.5 15.2 35.5 15.2 C 35.5 15.2 35.6 15.2 35.6 15.2 C 35.6 15.2 35.6 15.2 35.6 15.2 C 35.6 15.2 35.7 15.2 35.9 15.2 C 36 15.2 36.2 15.2 36.5 15.1 C 36.5 15.1 36.5 15.1 36.5 15.1 C 36.5 15.1 36.5 15.1 36.5 15.1 C 36.6 15.1 36.6 15.1 36.7 15.1 C 36.7 15.2 36.7 15.2 36.7 15.2 C 36.7 15.3 36.7 15.3 36.7 15.3 C 36.7 15.3 36.6 15.3 36.6 15.3 Z M 37.3 15.4 C 37.3 15.5 37.3 15.6 37.3 15.7 C 37.2 15.9 37.2 16 37.2 16.1 C 37.3 16.1 37.3 16.1 37.4 16.1 C 37.4 16.1 37.7 16 37.7 16 C 37.7 16 37.8 16 37.8 16 C 37.9 16 38 16 38 16 C 38.1 16 38.1 16 38.1 16.1 C 38.1 16.1 38.1 16.1 38.1 16.2 C 38.1 16.2 38 16.2 38 16.2 C 37.9 16.2 37.8 16.2 37.7 16.2 C 37.4 16.3 37.3 16.3 37.3 16.3 C 37.2 16.3 37.2 16.3 37.2 16.3 C 37.2 16.4 37.2 16.4 37.2 16.5 C 37.2 16.6 37.2 16.7 37.2 16.8 C 37.2 16.8 37.2 16.9 37.2 16.9 C 37.2 17 37.1 17.1 37.1 17.1 C 37 17.1 37 17 37 17 C 36.9 17 36.9 17 36.9 16.9 C 36.9 16.7 37 16.3 37.1 15.7 C 37.1 15.5 37.1 15.5 37.1 15.5 C 37.1 15.4 37.1 15.4 37.1 15.4 C 37.1 15.3 37.1 15.3 37.1 15.3 C 37.1 15.3 37.1 15.3 37.1 15.2 C 37.1 15.2 37.2 15.2 37.2 15.2 C 37.2 15.2 37.3 15.2 37.3 15.2 C 37.4 15.2 37.5 15.2 37.6 15.2 C 37.9 15.2 38 15.1 38.1 15.1 C 38.2 15.1 38.2 15.1 38.3 15.2 C 38.3 15.2 38.3 15.2 38.3 15.2 C 38.3 15.3 38.3 15.3 38.3 15.3 C 38.3 15.4 38.2 15.4 38.2 15.4 C 38.2 15.4 38.2 15.4 38.1 15.4 C 38.1 15.4 38 15.4 37.9 15.4 C 37.9 15.4 37.7 15.4 37.6 15.4 C 37.5 15.4 37.4 15.4 37.3 15.4 Z M 38.8 15.3 C 38.8 15.3 38.8 15.5 38.8 15.7 C 38.7 15.7 38.7 15.8 38.7 15.9 C 38.7 15.9 38.7 16 38.7 16 C 38.7 16.2 38.6 16.4 38.6 16.5 C 38.6 16.6 38.6 16.7 38.7 16.8 C 38.7 16.9 38.7 16.9 38.6 17 C 38.6 17 38.6 17 38.5 17 C 38.5 17 38.5 17 38.4 16.9 C 38.4 16.9 38.4 16.8 38.4 16.7 C 38.4 16.6 38.4 16.4 38.5 16.2 C 38.5 16.1 38.5 16.1 38.5 16.1 C 38.5 16 38.5 16 38.5 16 C 38.5 15.9 38.5 15.9 38.5 15.9 C 38.5 15.8 38.5 15.7 38.5 15.6 C 38.6 15.5 38.6 15.4 38.6 15.3 C 38.6 15.3 38.6 15.2 38.6 15.2 C 38.6 15.2 38.6 15.2 38.7 15.2 C 38.7 15.1 38.7 15.1 38.7 15.1 C 38.8 15.1 38.8 15.2 38.8 15.2 C 38.8 15.2 38.8 15.3 38.8 15.3 Z M 39.2 14.5 C 39.2 14.5 39.2 14.5 39.2 14.5 C 39.2 14.5 39.2 14.5 39.2 14.5 C 39.1 14.5 39 14.6 38.9 14.8 C 38.8 14.8 38.7 14.9 38.7 14.9 C 38.7 14.9 38.7 14.9 38.7 14.9 C 38.6 14.9 38.6 14.9 38.6 14.9 C 38.6 14.8 38.6 14.8 38.6 14.8 C 38.6 14.8 38.6 14.7 38.8 14.6 C 38.9 14.5 39 14.4 39.1 14.4 C 39.2 14.3 39.2 14.3 39.2 14.3 C 39.2 14.3 39.2 14.3 39.2 14.3 C 39.2 14.3 39.3 14.3 39.3 14.3 C 39.3 14.4 39.3 14.4 39.3 14.4 C 39.3 14.4 39.3 14.4 39.3 14.5 C 39.3 14.5 39.2 14.5 39.2 14.5 Z M 40.2 16.7 C 40.3 16.6 40.4 16.6 40.4 16.6 C 40.4 16.6 40.4 16.6 40.4 16.6 C 40.4 16.7 40.4 16.7 40.3 16.8 C 40.2 16.9 40.1 17 40 17 C 39.9 17 39.8 17.1 39.7 17.1 C 39.5 17.1 39.4 17 39.3 16.9 C 39.1 16.8 39.1 16.7 39.1 16.5 C 39.1 16.2 39.2 15.8 39.5 15.5 C 39.8 15.2 40.1 15 40.3 15 C 40.4 15 40.5 15.1 40.6 15.1 C 40.6 15.2 40.7 15.3 40.7 15.4 C 40.7 15.4 40.7 15.5 40.7 15.5 C 40.6 15.6 40.6 15.6 40.6 15.6 C 40.5 15.7 40.5 15.7 40.5 15.7 C 40.5 15.7 40.4 15.7 40.4 15.7 C 40.4 15.6 40.4 15.6 40.4 15.6 C 40.4 15.6 40.4 15.5 40.4 15.5 C 40.4 15.4 40.4 15.4 40.4 15.3 C 40.4 15.3 40.4 15.2 40.3 15.2 C 40.2 15.2 40.1 15.3 39.9 15.4 C 39.7 15.5 39.6 15.7 39.5 15.9 C 39.4 16.1 39.3 16.3 39.3 16.5 C 39.3 16.6 39.3 16.7 39.4 16.8 C 39.5 16.8 39.6 16.9 39.7 16.9 C 39.8 16.9 39.9 16.8 40 16.8 C 40.1 16.8 40.2 16.7 40.2 16.7 C 40.2 16.7 40.2 16.7 40.2 16.7 Z M 41.3 15.3 C 41.3 15.3 41.3 15.5 41.2 15.7 C 41.2 15.7 41.2 15.8 41.2 15.9 C 41.2 15.9 41.2 16 41.2 16 C 41.1 16.2 41.1 16.4 41.1 16.5 C 41.1 16.6 41.1 16.7 41.1 16.8 C 41.2 16.9 41.1 16.9 41.1 17 C 41.1 17 41 17 41 17 C 41 17 40.9 17 40.9 16.9 C 40.9 16.9 40.9 16.8 40.9 16.7 C 40.9 16.6 40.9 16.4 40.9 16.2 C 41 16.1 41 16.1 41 16.1 C 41 16 41 16 41 16 C 41 15.9 41 15.9 41 15.9 C 41 15.8 41 15.7 41 15.6 C 41.1 15.5 41.1 15.4 41.1 15.3 C 41.1 15.3 41.1 15.2 41.1 15.2 C 41.1 15.2 41.1 15.2 41.2 15.2 C 41.2 15.1 41.2 15.1 41.2 15.1 C 41.3 15.1 41.3 15.2 41.3 15.2 C 41.3 15.2 41.3 15.3 41.3 15.3 Z M 42.1 17 C 41.9 17 41.8 17 41.7 16.8 C 41.6 16.7 41.6 16.6 41.6 16.4 C 41.6 16.3 41.6 16.1 41.7 15.9 C 41.8 15.6 41.9 15.5 42.1 15.3 C 42.3 15.2 42.4 15.1 42.6 15.1 C 42.8 15.1 42.9 15.1 43 15.2 C 43 15.2 43.1 15.3 43.2 15.3 C 43.3 15.4 43.3 15.5 43.3 15.5 C 43.4 15.6 43.4 15.7 43.4 15.8 C 43.4 15.9 43.3 16 43.3 16.2 C 43.2 16.3 43.1 16.5 43 16.6 C 42.8 16.8 42.7 16.9 42.6 16.9 C 42.4 17 42.3 17 42.1 17 Z M 41.8 16.4 C 41.8 16.5 41.8 16.6 41.9 16.7 C 42 16.8 42 16.8 42.1 16.8 C 42.4 16.8 42.6 16.7 42.8 16.5 C 43 16.3 43.1 16 43.1 15.8 C 43.1 15.7 43.1 15.6 43.1 15.5 C 43.1 15.5 43 15.4 42.9 15.4 C 42.8 15.3 42.7 15.3 42.6 15.3 C 42.4 15.3 42.2 15.4 42.1 15.7 C 41.9 15.9 41.8 16.2 41.8 16.4 Z M 44.8 15.6 C 44.8 15.5 44.8 15.4 44.7 15.4 C 44.7 15.3 44.6 15.3 44.5 15.3 C 44.3 15.3 44.2 15.4 44 15.4 C 43.9 15.5 43.8 15.6 43.8 15.7 C 43.8 15.7 43.8 15.8 43.9 15.9 C 44 15.9 44.1 16 44.3 16 C 44.5 16.1 44.7 16.2 44.8 16.2 C 44.8 16.3 44.9 16.4 44.9 16.4 C 44.9 16.5 44.8 16.6 44.7 16.7 C 44.6 16.8 44.4 16.9 44.3 17 C 44.1 17 43.9 17.1 43.8 17.1 C 43.7 17.1 43.6 17 43.6 17 C 43.5 17 43.5 17 43.5 16.9 C 43.5 16.9 43.5 16.9 43.5 16.8 C 43.6 16.8 43.6 16.8 43.6 16.8 C 43.6 16.8 43.6 16.8 43.6 16.8 C 43.7 16.8 43.8 16.9 43.9 16.9 C 44.1 16.9 44.2 16.8 44.4 16.7 C 44.6 16.6 44.7 16.5 44.7 16.5 C 44.7 16.4 44.6 16.4 44.6 16.4 C 44.5 16.3 44.4 16.3 44.2 16.2 C 43.9 16.1 43.7 16 43.7 16 C 43.6 15.9 43.6 15.8 43.6 15.7 C 43.6 15.5 43.7 15.4 43.9 15.3 C 44.1 15.2 44.3 15.1 44.5 15.1 C 44.7 15.1 44.8 15.2 44.8 15.2 C 44.9 15.2 45 15.3 45 15.4 C 45 15.4 44.9 15.4 44.9 15.5 C 44.9 15.5 44.9 15.6 44.8 15.6 Z M 46.3 15.5 C 46.3 15.5 46.2 15.4 46.2 15.3 C 46.2 15.3 46.4 15.2 46.6 15.2 C 46.8 15.1 47 15.1 47.1 15.1 C 47.3 15.1 47.5 15.2 47.6 15.2 C 47.7 15.3 47.7 15.4 47.7 15.5 C 47.7 15.7 47.6 15.9 47.4 16 C 47.2 16.2 47 16.3 46.6 16.3 C 46.5 16.4 46.5 16.4 46.5 16.4 C 46.5 16.4 46.4 16.5 46.4 16.6 C 46.4 16.7 46.4 16.8 46.4 16.9 C 46.4 16.9 46.4 17 46.4 17 C 46.4 17 46.3 17 46.3 17 C 46.2 17 46.2 17 46.2 16.9 C 46.2 16.8 46.2 16.7 46.2 16.4 C 46.2 16.4 46.3 15.7 46.3 15.7 C 46.3 15.7 46.3 15.6 46.3 15.6 C 46.3 15.5 46.3 15.5 46.3 15.5 Z M 47.1 15.3 C 47 15.3 46.8 15.3 46.6 15.4 C 46.6 15.4 46.6 15.5 46.6 15.5 C 46.5 15.7 46.5 15.8 46.5 15.9 C 46.5 16 46.5 16.1 46.5 16.2 C 46.8 16.1 47 16 47.2 15.9 C 47.4 15.8 47.5 15.7 47.5 15.6 C 47.5 15.4 47.4 15.3 47.1 15.3 C 47.1 15.3 47.1 15.3 47.1 15.3 Z M 48.7 15.1 C 48.7 15.1 48.8 15.1 48.8 15.2 C 48.8 15.2 48.8 15.2 48.8 15.2 C 48.8 15.3 48.8 15.3 48.8 15.3 C 48.8 15.3 48.8 15.4 48.8 15.4 C 48.9 15.5 48.9 15.5 48.9 15.6 C 48.9 15.7 49 15.8 49 15.9 C 49.1 16.1 49.2 16.3 49.2 16.5 C 49.3 16.6 49.4 16.7 49.5 16.8 C 49.5 16.8 49.5 16.9 49.5 16.9 C 49.6 16.9 49.6 16.9 49.6 16.9 C 49.6 17 49.5 17 49.5 17 C 49.5 17 49.5 17.1 49.4 17.1 C 49.3 17.1 49.2 16.9 49 16.6 C 49 16.4 48.9 16.4 48.9 16.4 C 48.9 16.4 48.8 16.4 48.7 16.4 C 48.5 16.4 48.4 16.4 48.3 16.5 C 48.3 16.5 48.2 16.5 48.2 16.5 C 48.2 16.5 48.2 16.5 48.1 16.5 C 48.1 16.5 48.1 16.5 48.1 16.5 C 48.1 16.5 48.1 16.5 48 16.6 C 47.9 16.8 47.8 16.9 47.8 17 C 47.8 17 47.8 17 47.7 17 C 47.7 17 47.7 17 47.6 17 C 47.6 16.9 47.6 16.9 47.6 16.9 C 47.6 16.9 47.6 16.8 47.6 16.8 C 47.7 16.7 47.7 16.6 47.8 16.5 C 48 16.3 48.1 16 48.2 15.8 C 48.4 15.5 48.5 15.3 48.6 15.2 C 48.6 15.2 48.7 15.1 48.7 15.1 C 48.7 15.1 48.7 15.1 48.7 15.1 Z M 48.5 16.2 C 48.7 16.2 48.9 16.2 48.9 16.2 C 48.9 16.1 48.8 16 48.8 15.8 C 48.7 15.6 48.7 15.5 48.6 15.5 C 48.6 15.6 48.5 15.7 48.4 15.9 C 48.4 15.9 48.2 16.3 48.2 16.3 C 48.2 16.3 48.3 16.3 48.3 16.3 C 48.4 16.3 48.5 16.2 48.5 16.2 C 48.5 16.2 48.5 16.2 48.5 16.2 Z M 50.1 15.2 C 50.3 15.2 50.5 15.1 50.6 15.1 C 50.8 15.1 50.9 15.2 51 15.3 C 51.1 15.3 51.2 15.4 51.2 15.6 C 51.2 15.7 51.1 15.8 51 15.9 C 50.9 16 50.8 16.1 50.6 16.2 C 50.6 16.2 50.6 16.2 50.6 16.2 C 50.6 16.2 50.7 16.3 50.8 16.4 C 51 16.6 51.2 16.7 51.3 16.8 C 51.4 16.8 51.4 16.8 51.4 16.9 C 51.4 16.9 51.4 16.9 51.3 16.9 C 51.3 17 51.3 17 51.3 17 C 51.2 17 51.1 16.9 51 16.9 C 50.9 16.8 50.8 16.7 50.7 16.6 C 50.4 16.4 50.3 16.3 50.3 16.3 C 50.2 16.3 50.2 16.3 50.1 16.2 C 50.1 16.2 50.1 16.2 50.1 16.2 C 50.1 16.1 50.1 16.1 50.2 16.1 C 50.2 16.1 50.2 16.1 50.3 16.1 C 50.3 16.1 50.3 16.1 50.3 16.1 C 50.4 16.1 50.4 16.1 50.4 16.1 C 50.5 16.1 50.6 16 50.7 15.9 C 50.9 15.8 51 15.7 51 15.6 C 51 15.5 50.9 15.4 50.9 15.4 C 50.8 15.3 50.7 15.3 50.6 15.3 C 50.5 15.3 50.4 15.3 50.3 15.3 C 50.3 15.3 50.2 15.4 50.2 15.4 C 50.2 15.4 50.2 15.4 50.1 15.4 C 50.1 15.5 50.1 15.6 50.1 15.8 C 50 15.9 50 16.1 50 16.3 C 50 16.4 50 16.6 50 16.6 C 50 16.7 50 16.8 50 16.8 C 50 16.8 50 16.9 50 16.9 C 50 16.9 50 17 49.9 17 C 49.9 17 49.9 17 49.9 17 C 49.8 17 49.7 16.9 49.7 16.8 C 49.7 16.5 49.8 16 49.9 15.5 C 49.9 15.5 49.9 15.4 49.9 15.4 C 49.9 15.4 49.9 15.4 49.9 15.4 C 49.9 15.4 49.9 15.3 49.9 15.3 C 49.9 15.3 49.9 15.2 49.9 15.2 C 49.9 15.2 50 15.2 50 15.2 C 50 15.2 50.1 15.2 50.1 15.2 Z M 52.4 15.1 C 52.5 15.1 52.5 15.1 52.6 15.2 C 52.6 15.2 52.6 15.2 52.6 15.2 C 52.6 15.3 52.6 15.3 52.6 15.3 C 52.6 15.3 52.6 15.4 52.6 15.4 C 52.6 15.5 52.6 15.5 52.6 15.6 C 52.7 15.7 52.7 15.8 52.7 15.9 C 52.8 16.1 52.9 16.3 53 16.5 C 53.1 16.6 53.1 16.7 53.2 16.8 C 53.2 16.8 53.3 16.9 53.3 16.9 C 53.3 16.9 53.3 16.9 53.3 16.9 C 53.3 17 53.3 17 53.3 17 C 53.2 17 53.2 17.1 53.2 17.1 C 53.1 17.1 52.9 16.9 52.8 16.6 C 52.7 16.4 52.7 16.4 52.7 16.4 C 52.6 16.4 52.5 16.4 52.4 16.4 C 52.3 16.4 52.2 16.4 52.1 16.5 C 52 16.5 52 16.5 51.9 16.5 C 51.9 16.5 51.9 16.5 51.9 16.5 C 51.9 16.5 51.9 16.5 51.9 16.5 C 51.8 16.5 51.8 16.5 51.7 16.6 C 51.6 16.8 51.6 16.9 51.5 17 C 51.5 17 51.5 17 51.5 17 C 51.4 17 51.4 17 51.4 17 C 51.4 16.9 51.3 16.9 51.3 16.9 C 51.3 16.9 51.3 16.8 51.4 16.8 C 51.4 16.7 51.5 16.6 51.6 16.5 C 51.7 16.3 51.9 16 52 15.8 C 52.2 15.5 52.3 15.3 52.3 15.2 C 52.4 15.2 52.4 15.1 52.4 15.1 C 52.4 15.1 52.4 15.1 52.4 15.1 Z M 52.2 16.2 C 52.5 16.2 52.6 16.2 52.6 16.2 C 52.6 16.1 52.6 16 52.5 15.8 C 52.4 15.6 52.4 15.5 52.4 15.5 C 52.3 15.6 52.3 15.7 52.2 15.9 C 52.2 15.9 51.9 16.3 51.9 16.3 C 52 16.3 52 16.3 52.1 16.3 C 52.1 16.3 52.2 16.2 52.2 16.2 C 52.2 16.2 52.2 16.2 52.2 16.2 Z M 54.5 15.5 C 54.4 15.5 54.3 15.5 54.3 15.4 C 54.3 15.4 54.3 15.4 54.3 15.4 C 54.3 15.3 54.3 15.3 54.3 15.3 C 54.3 15.3 54.4 15.3 54.6 15.3 C 54.7 15.3 54.9 15.3 55 15.3 C 55.1 15.3 55.3 15.2 55.6 15.2 C 55.7 15.2 55.8 15.2 55.9 15.2 C 56 15.2 56 15.2 56 15.2 C 56.1 15.2 56.1 15.2 56.1 15.2 C 56.2 15.2 56.2 15.2 56.2 15.2 C 56.2 15.3 56.2 15.3 56.2 15.3 C 56.2 15.4 56.2 15.4 56.1 15.4 C 56.1 15.4 56.1 15.4 56 15.4 C 56 15.4 55.9 15.4 55.8 15.4 C 55.7 15.4 55.6 15.4 55.5 15.4 C 55.4 15.4 55.3 15.4 55.3 15.4 C 55.3 15.5 55.3 15.6 55.3 15.9 C 55.2 16.2 55.2 16.4 55.2 16.6 C 55.2 16.7 55.2 16.7 55.2 16.8 C 55.2 16.8 55.2 16.9 55.2 16.9 C 55.2 16.9 55.2 16.9 55.2 17 C 55.2 17 55.2 17 55.1 17 C 55.1 17 55.1 17 55 16.9 C 55 16.9 55 16.8 55 16.6 C 55 16.4 55 16.1 55.1 15.5 C 55.1 15.5 55.1 15.5 55.1 15.5 C 55.1 15.5 55.1 15.4 55.1 15.4 C 55 15.4 54.9 15.5 54.8 15.5 C 54.6 15.5 54.5 15.5 54.5 15.5 C 54.5 15.5 54.5 15.5 54.5 15.5 Z M 56.6 17 C 56.4 17 56.3 17 56.2 16.8 C 56.1 16.7 56 16.6 56 16.4 C 56 16.3 56.1 16.1 56.2 15.9 C 56.3 15.6 56.4 15.5 56.6 15.3 C 56.8 15.2 56.9 15.1 57.1 15.1 C 57.2 15.1 57.4 15.1 57.4 15.2 C 57.5 15.2 57.6 15.3 57.7 15.3 C 57.8 15.4 57.8 15.5 57.8 15.5 C 57.9 15.6 57.9 15.7 57.9 15.8 C 57.9 15.9 57.8 16 57.8 16.2 C 57.7 16.3 57.6 16.5 57.5 16.6 C 57.3 16.8 57.2 16.9 57 16.9 C 56.9 17 56.8 17 56.6 17 Z M 56.3 16.4 C 56.3 16.5 56.3 16.6 56.4 16.7 C 56.5 16.8 56.5 16.8 56.6 16.8 C 56.9 16.8 57.1 16.7 57.3 16.5 C 57.5 16.3 57.6 16 57.6 15.8 C 57.6 15.7 57.6 15.6 57.6 15.5 C 57.5 15.5 57.5 15.4 57.4 15.4 C 57.3 15.3 57.2 15.3 57.1 15.3 C 56.9 15.3 56.7 15.4 56.5 15.7 C 56.4 15.9 56.3 16.2 56.3 16.4 Z M 58.3 15.6 C 58.3 15.5 58.3 15.5 58.3 15.5 C 58.3 15.4 58.3 15.4 58.3 15.4 C 58.2 15.4 58.2 15.3 58.2 15.3 C 58.2 15.3 58.2 15.2 58.2 15.2 C 58.2 15.2 58.2 15.2 58.3 15.2 C 58.3 15.2 58.5 15.2 58.5 15.2 C 58.5 15.2 58.6 15.2 58.8 15.2 C 58.9 15.1 59 15.1 59.1 15.1 C 59.3 15.1 59.5 15.2 59.6 15.3 C 59.8 15.5 59.8 15.6 59.8 15.8 C 59.8 16.1 59.7 16.3 59.5 16.5 C 59.3 16.7 59.1 16.8 58.7 16.9 C 58.5 16.9 58.4 17 58.4 17 C 58.3 17 58.3 17.1 58.2 17.1 C 58.2 17.1 58.2 17.1 58.1 17 C 58.1 17 58.1 17 58.1 16.9 C 58.1 16.9 58.1 16.9 58.1 16.9 C 58.1 16.8 58.2 16.8 58.2 16.8 C 58.2 16.7 58.2 16.7 58.2 16.6 C 58.2 16.5 58.2 16.3 58.2 16.1 C 58.2 15.9 58.3 15.7 58.3 15.6 C 58.3 15.6 58.3 15.6 58.3 15.6 Z M 58.6 15.4 C 58.6 15.4 58.6 15.4 58.5 15.4 C 58.4 16 58.4 16.4 58.4 16.6 C 58.4 16.7 58.4 16.7 58.4 16.7 C 58.4 16.8 58.4 16.8 58.4 16.8 C 58.5 16.8 58.6 16.7 58.9 16.7 C 59.1 16.6 59.3 16.5 59.4 16.3 C 59.5 16.2 59.6 16 59.6 15.8 C 59.6 15.7 59.6 15.6 59.5 15.5 C 59.3 15.4 59.2 15.3 59 15.3 C 58.9 15.3 58.8 15.3 58.6 15.4 C 58.6 15.4 58.6 15.4 58.6 15.4 Z M 60.5 17 C 60.4 17 60.3 17 60.2 16.8 C 60.1 16.7 60 16.6 60 16.4 C 60 16.3 60.1 16.1 60.2 15.9 C 60.3 15.6 60.4 15.5 60.6 15.3 C 60.7 15.2 60.9 15.1 61.1 15.1 C 61.2 15.1 61.3 15.1 61.4 15.2 C 61.5 15.2 61.6 15.3 61.7 15.3 C 61.7 15.4 61.8 15.5 61.8 15.5 C 61.8 15.6 61.8 15.7 61.8 15.8 C 61.8 15.9 61.8 16 61.7 16.2 C 61.7 16.3 61.6 16.5 61.4 16.6 C 61.3 16.8 61.1 16.9 61 16.9 C 60.9 17 60.7 17 60.5 17 Z M 60.2 16.4 C 60.2 16.5 60.3 16.6 60.3 16.7 C 60.4 16.8 60.5 16.8 60.6 16.8 C 60.9 16.8 61.1 16.7 61.3 16.5 C 61.5 16.3 61.6 16 61.6 15.8 C 61.6 15.7 61.6 15.6 61.5 15.5 C 61.5 15.5 61.4 15.4 61.4 15.4 C 61.3 15.3 61.2 15.3 61.1 15.3 C 60.9 15.3 60.7 15.4 60.5 15.7 C 60.3 15.9 60.2 16.2 60.2 16.4 Z M 63.3 15.6 C 63.3 15.5 63.2 15.4 63.2 15.4 C 63.1 15.3 63 15.3 63 15.3 C 62.8 15.3 62.6 15.4 62.5 15.4 C 62.3 15.5 62.3 15.6 62.3 15.7 C 62.3 15.7 62.3 15.8 62.4 15.9 C 62.4 15.9 62.6 16 62.8 16 C 63 16.1 63.1 16.2 63.2 16.2 C 63.3 16.3 63.3 16.4 63.3 16.4 C 63.3 16.5 63.3 16.6 63.2 16.7 C 63 16.8 62.9 16.9 62.7 17 C 62.6 17 62.4 17.1 62.3 17.1 C 62.2 17.1 62.1 17 62.1 17 C 62 17 62 17 62 16.9 C 62 16.9 62 16.9 62 16.8 C 62 16.8 62 16.8 62 16.8 C 62.1 16.8 62.1 16.8 62.1 16.8 C 62.2 16.8 62.3 16.9 62.4 16.9 C 62.5 16.9 62.7 16.8 62.9 16.7 C 63 16.6 63.1 16.5 63.1 16.5 C 63.1 16.4 63.1 16.4 63 16.4 C 63 16.3 62.9 16.3 62.6 16.2 C 62.4 16.1 62.2 16 62.1 16 C 62.1 15.9 62.1 15.8 62.1 15.7 C 62.1 15.5 62.2 15.4 62.3 15.3 C 62.5 15.2 62.8 15.1 63 15.1 C 63.1 15.1 63.2 15.2 63.3 15.2 C 63.4 15.2 63.4 15.3 63.4 15.4 C 63.4 15.4 63.4 15.4 63.4 15.5 C 63.4 15.5 63.3 15.6 63.3 15.6 Z " stroke="none" fill="#000"/>  </g>  <g id="Polygon15381">    <path d="M 8.4 12 C 8.4 11.9 8.4 11.9 8.4 11.9 C 8.3 12 8.2 12.2 8 12.4 C 7.8 12.6 7.7 12.8 7.6 12.9 C 7.6 12.9 7.5 13 7.5 13 C 7.4 13 7.4 12.9 7.4 12.9 C 7.3 12.8 7.3 12.7 7.2 12.6 C 7.1 12.3 7.1 12.1 7 12 C 7 12.1 7 12.1 7 12.2 C 7 12.3 6.9 12.5 6.9 12.7 C 6.8 13 6.8 13.3 6.7 13.4 C 6.7 13.4 6.7 13.4 6.7 13.4 C 6.7 13.5 6.7 13.5 6.6 13.5 C 6.6 13.5 6.6 13.5 6.6 13.4 C 6.5 13.4 6.5 13.4 6.5 13.3 C 6.5 13.3 6.5 13.1 6.6 13 C 6.6 13 6.7 12.5 6.7 12.5 C 6.8 12.3 6.8 12.1 6.8 12 C 6.8 11.9 6.8 11.8 6.8 11.7 C 6.8 11.6 6.9 11.6 7 11.6 C 7 11.6 7.1 11.6 7.1 11.7 C 7.1 11.7 7.1 11.7 7.1 11.8 C 7.2 11.8 7.2 11.8 7.2 11.9 C 7.2 11.9 7.4 12.3 7.4 12.3 C 7.4 12.5 7.5 12.6 7.5 12.7 C 7.5 12.7 7.5 12.7 7.5 12.7 C 7.6 12.7 7.7 12.5 8 12.1 C 8.2 11.8 8.4 11.6 8.4 11.6 C 8.5 11.6 8.5 11.6 8.6 11.6 C 8.6 11.6 8.6 11.6 8.6 11.7 C 8.6 11.7 8.6 11.9 8.5 12.2 C 8.5 12.3 8.5 12.5 8.5 12.7 C 8.5 12.9 8.5 13 8.5 13 C 8.5 13 8.5 13.1 8.5 13.1 C 8.5 13.2 8.5 13.2 8.5 13.2 C 8.5 13.3 8.5 13.3 8.5 13.3 C 8.5 13.4 8.5 13.4 8.5 13.4 C 8.4 13.4 8.4 13.4 8.4 13.4 C 8.3 13.4 8.3 13.4 8.3 13.2 C 8.3 13.1 8.3 12.8 8.3 12.2 C 8.3 12.2 8.3 12.2 8.3 12.2 C 8.3 12.2 8.4 12.1 8.4 12.1 C 8.4 12 8.4 12 8.4 12 C 8.4 12 8.4 12 8.4 12 Z M 9.8 11.6 C 9.9 11.6 9.9 11.6 9.9 11.6 C 10 11.6 10 11.6 10 11.7 C 10 11.7 10 11.7 9.9 11.8 C 9.9 11.8 10 11.8 10 11.8 C 10 11.9 10 12 10 12 C 10.1 12.1 10.1 12.2 10.1 12.3 C 10.2 12.5 10.3 12.7 10.4 12.9 C 10.5 13 10.5 13.2 10.6 13.2 C 10.6 13.3 10.7 13.3 10.7 13.3 C 10.7 13.3 10.7 13.3 10.7 13.4 C 10.7 13.4 10.7 13.4 10.6 13.5 C 10.6 13.5 10.6 13.5 10.6 13.5 C 10.5 13.5 10.3 13.3 10.2 13 C 10.1 12.9 10.1 12.8 10.1 12.8 C 10 12.8 9.9 12.8 9.8 12.8 C 9.7 12.9 9.6 12.9 9.4 12.9 C 9.4 12.9 9.3 12.9 9.3 12.9 C 9.3 12.9 9.3 12.9 9.3 12.9 C 9.3 12.9 9.3 12.9 9.3 12.9 C 9.2 12.9 9.2 13 9.1 13.1 C 9 13.2 9 13.4 8.9 13.4 C 8.9 13.4 8.9 13.4 8.9 13.4 C 8.8 13.4 8.8 13.4 8.8 13.4 C 8.7 13.4 8.7 13.3 8.7 13.3 C 8.7 13.3 8.7 13.3 8.8 13.2 C 8.8 13.2 8.9 13.1 9 12.9 C 9.1 12.7 9.3 12.5 9.4 12.3 C 9.6 11.9 9.7 11.7 9.7 11.7 C 9.8 11.6 9.8 11.6 9.8 11.6 C 9.8 11.6 9.8 11.6 9.8 11.6 Z M 9.6 12.7 C 9.9 12.6 10 12.6 10 12.6 C 10 12.5 9.9 12.4 9.9 12.2 C 9.8 12 9.8 11.9 9.8 11.9 C 9.7 12 9.7 12.1 9.6 12.3 C 9.6 12.3 9.3 12.7 9.3 12.7 C 9.4 12.7 9.4 12.7 9.5 12.7 C 9.5 12.7 9.6 12.7 9.6 12.7 C 9.6 12.7 9.6 12.7 9.6 12.7 Z M 11.3 11.7 C 11.3 11.8 11.3 11.9 11.3 12.1 C 11.2 12.2 11.2 12.3 11.2 12.3 C 11.2 12.4 11.2 12.4 11.2 12.5 C 11.2 12.7 11.1 12.8 11.1 12.9 C 11.1 13 11.1 13.1 11.2 13.2 C 11.2 13.3 11.2 13.4 11.1 13.4 C 11.1 13.4 11.1 13.4 11 13.4 C 11 13.4 11 13.4 10.9 13.4 C 10.9 13.3 10.9 13.2 10.9 13.1 C 10.9 13 10.9 12.8 11 12.6 C 11 12.5 11 12.5 11 12.5 C 11 12.5 11 12.4 11 12.4 C 11 12.4 11 12.3 11 12.3 C 11 12.2 11 12.1 11 12 C 11.1 11.9 11.1 11.8 11.1 11.8 C 11.1 11.7 11.1 11.7 11.1 11.7 C 11.1 11.6 11.1 11.6 11.2 11.6 C 11.2 11.6 11.2 11.6 11.2 11.6 C 11.3 11.6 11.3 11.6 11.3 11.6 C 11.3 11.7 11.3 11.7 11.3 11.7 Z M 12.1 13.5 C 11.9 13.5 11.8 13.4 11.7 13.3 C 11.6 13.1 11.6 13 11.6 12.9 C 11.6 12.7 11.6 12.5 11.7 12.3 C 11.8 12.1 12 11.9 12.1 11.8 C 12.3 11.6 12.5 11.6 12.6 11.6 C 12.8 11.6 12.9 11.6 13 11.6 C 13.1 11.7 13.1 11.7 13.2 11.8 C 13.3 11.8 13.3 11.9 13.4 12 C 13.4 12 13.4 12.1 13.4 12.2 C 13.4 12.3 13.4 12.5 13.3 12.6 C 13.2 12.8 13.1 12.9 13 13.1 C 12.8 13.2 12.7 13.3 12.6 13.4 C 12.4 13.4 12.3 13.5 12.1 13.5 Z M 11.8 12.9 C 11.8 13 11.8 13.1 11.9 13.1 C 12 13.2 12.1 13.3 12.2 13.3 C 12.4 13.3 12.6 13.2 12.8 12.9 C 13.1 12.7 13.2 12.4 13.2 12.2 C 13.2 12.1 13.1 12 13.1 12 C 13.1 11.9 13 11.8 12.9 11.8 C 12.8 11.8 12.7 11.7 12.6 11.7 C 12.4 11.7 12.3 11.9 12.1 12.1 C 11.9 12.4 11.8 12.6 11.8 12.9 Z M 14 11.6 C 14.2 11.6 14.4 11.6 14.5 11.6 C 14.7 11.6 14.8 11.6 14.9 11.7 C 15 11.8 15.1 11.9 15.1 12 C 15.1 12.1 15 12.3 14.9 12.4 C 14.8 12.5 14.7 12.6 14.5 12.6 C 14.5 12.6 14.5 12.6 14.5 12.6 C 14.5 12.7 14.6 12.7 14.7 12.9 C 14.9 13 15.1 13.1 15.2 13.2 C 15.2 13.2 15.3 13.3 15.3 13.3 C 15.3 13.3 15.2 13.3 15.2 13.4 C 15.2 13.4 15.2 13.4 15.1 13.4 C 15.1 13.4 15 13.4 14.9 13.3 C 14.8 13.2 14.7 13.1 14.6 13 C 14.3 12.8 14.2 12.7 14.1 12.7 C 14.1 12.7 14.1 12.7 14 12.7 C 14 12.7 14 12.6 14 12.6 C 14 12.6 14 12.5 14 12.5 C 14.1 12.5 14.1 12.5 14.1 12.5 C 14.2 12.5 14.2 12.5 14.2 12.5 C 14.2 12.5 14.3 12.5 14.3 12.5 C 14.3 12.5 14.5 12.5 14.6 12.4 C 14.8 12.3 14.9 12.1 14.9 12 C 14.9 11.9 14.8 11.9 14.8 11.8 C 14.7 11.8 14.6 11.8 14.5 11.8 C 14.4 11.8 14.3 11.8 14.2 11.8 C 14.1 11.8 14.1 11.8 14.1 11.8 C 14 11.8 14 11.8 14 11.9 C 14 11.9 14 12 13.9 12.2 C 13.9 12.4 13.9 12.5 13.9 12.7 C 13.9 12.9 13.8 13 13.8 13.1 C 13.8 13.1 13.8 13.2 13.9 13.2 C 13.9 13.3 13.9 13.3 13.9 13.3 C 13.9 13.4 13.9 13.4 13.8 13.4 C 13.8 13.4 13.8 13.5 13.7 13.5 C 13.7 13.5 13.6 13.4 13.6 13.2 C 13.6 12.9 13.7 12.5 13.8 11.9 C 13.8 11.9 13.8 11.9 13.8 11.9 C 13.8 11.9 13.8 11.9 13.8 11.8 C 13.8 11.8 13.7 11.8 13.7 11.7 C 13.7 11.7 13.8 11.7 13.8 11.7 C 13.8 11.6 13.8 11.6 13.9 11.6 C 13.9 11.6 14 11.6 14 11.6 Z M 16.9 11.7 C 16.9 11.8 16.8 11.9 16.8 12.1 C 16.8 12.2 16.7 12.3 16.7 12.3 C 16.7 12.4 16.7 12.4 16.7 12.5 C 16.7 12.7 16.7 12.8 16.7 12.9 C 16.7 13 16.7 13.1 16.7 13.2 C 16.7 13.3 16.7 13.4 16.7 13.4 C 16.6 13.4 16.6 13.4 16.6 13.4 C 16.5 13.4 16.5 13.4 16.5 13.4 C 16.4 13.3 16.4 13.2 16.4 13.1 C 16.4 13 16.5 12.8 16.5 12.6 C 16.5 12.5 16.5 12.5 16.5 12.5 C 16.5 12.5 16.5 12.4 16.5 12.4 C 16.5 12.4 16.5 12.3 16.5 12.3 C 16.5 12.2 16.5 12.1 16.6 12 C 16.6 11.9 16.6 11.8 16.6 11.8 C 16.6 11.7 16.6 11.7 16.6 11.7 C 16.6 11.6 16.7 11.6 16.7 11.6 C 16.7 11.6 16.7 11.6 16.8 11.6 C 16.8 11.6 16.8 11.6 16.8 11.6 C 16.9 11.7 16.9 11.7 16.9 11.7 Z M 18.4 13.2 C 18.4 13.1 18.4 13.1 18.4 13 C 18.1 13.3 17.8 13.4 17.6 13.4 C 17.4 13.4 17.3 13.3 17.2 13.3 C 17.1 13.2 17.1 13.1 17.1 12.9 C 17.1 12.6 17.2 12.2 17.5 11.9 C 17.8 11.6 18.2 11.5 18.5 11.5 C 18.6 11.5 18.6 11.5 18.7 11.5 C 18.8 11.6 18.8 11.6 18.8 11.7 C 18.8 11.7 18.8 11.8 18.7 11.8 C 18.7 11.9 18.7 11.9 18.6 11.9 C 18.6 11.9 18.6 11.9 18.6 11.8 C 18.6 11.8 18.5 11.7 18.5 11.7 C 18.5 11.7 18.4 11.7 18.4 11.7 C 18.2 11.7 18.1 11.8 17.9 11.9 C 17.7 12 17.6 12.2 17.5 12.4 C 17.4 12.6 17.3 12.7 17.3 12.9 C 17.3 13.1 17.4 13.2 17.6 13.2 C 17.7 13.2 17.8 13.2 17.9 13.1 C 18 13.1 18.1 13 18.2 12.9 C 18.3 12.9 18.4 12.8 18.4 12.7 C 18.5 12.7 18.5 12.6 18.5 12.5 C 18.5 12.4 18.5 12.4 18.6 12.4 C 18.7 12.4 18.8 12.4 18.8 12.4 C 18.8 12.5 18.7 12.5 18.7 12.6 C 18.7 12.7 18.6 12.8 18.6 12.8 C 18.6 12.9 18.6 13 18.6 13.1 C 18.6 13.2 18.5 13.3 18.5 13.3 C 18.5 13.4 18.6 13.4 18.6 13.5 C 18.6 13.5 18.6 13.5 18.6 13.5 C 18.6 13.6 18.6 13.6 18.5 13.6 C 18.5 13.7 18.5 13.7 18.5 13.7 C 18.4 13.7 18.4 13.7 18.4 13.6 C 18.3 13.6 18.3 13.6 18.3 13.5 C 18.3 13.5 18.3 13.4 18.4 13.2 C 18.4 13.2 18.4 13.2 18.4 13.2 Z M 19.8 13.5 C 19.7 13.5 19.6 13.4 19.5 13.4 C 19.3 13.3 19.3 13.2 19.2 13.1 C 19.1 13 19.1 12.8 19.1 12.7 C 19.1 12.6 19.1 12.4 19.2 12.2 C 19.2 12.2 19.2 12.1 19.2 12 C 19.2 11.8 19.2 11.7 19.2 11.7 C 19.3 11.7 19.3 11.6 19.3 11.6 C 19.3 11.6 19.3 11.6 19.4 11.6 C 19.4 11.6 19.4 11.6 19.4 11.6 C 19.5 11.7 19.5 11.7 19.5 11.7 C 19.5 11.7 19.5 11.8 19.4 12 C 19.4 12 19.4 12.1 19.4 12.3 C 19.3 12.5 19.3 12.6 19.3 12.7 C 19.3 12.9 19.4 13.1 19.5 13.1 C 19.6 13.2 19.7 13.3 19.8 13.3 C 19.9 13.3 20 13.2 20.1 13.2 C 20.2 13.2 20.3 13.1 20.3 13 C 20.4 12.8 20.4 12.6 20.5 12.3 C 20.5 12 20.5 11.8 20.5 11.7 C 20.6 11.7 20.6 11.6 20.7 11.6 C 20.7 11.6 20.8 11.7 20.8 11.8 C 20.8 11.8 20.7 12 20.7 12.1 C 20.7 12.2 20.7 12.4 20.7 12.5 C 20.6 12.6 20.6 12.7 20.6 12.8 C 20.6 12.9 20.6 13 20.5 13 C 20.5 13.1 20.5 13.2 20.4 13.2 C 20.4 13.3 20.3 13.3 20.3 13.3 C 20.2 13.4 20.1 13.4 20 13.4 C 19.9 13.5 19.8 13.5 19.8 13.5 Z M 21.9 11.6 C 21.9 11.6 22 11.6 22 11.6 C 22 11.6 22 11.6 22 11.7 C 22 11.7 22 11.7 22 11.8 C 22 11.8 22 11.8 22 11.8 C 22 11.9 22.1 12 22.1 12 C 22.1 12.1 22.1 12.2 22.2 12.3 C 22.3 12.5 22.3 12.7 22.4 12.9 C 22.5 13 22.6 13.2 22.6 13.2 C 22.7 13.3 22.7 13.3 22.7 13.3 C 22.7 13.3 22.7 13.3 22.7 13.4 C 22.7 13.4 22.7 13.4 22.7 13.5 C 22.7 13.5 22.6 13.5 22.6 13.5 C 22.5 13.5 22.4 13.3 22.2 13 C 22.2 12.9 22.1 12.8 22.1 12.8 C 22.1 12.8 22 12.8 21.8 12.8 C 21.7 12.9 21.6 12.9 21.5 12.9 C 21.4 12.9 21.4 12.9 21.4 12.9 C 21.3 12.9 21.3 12.9 21.3 12.9 C 21.3 12.9 21.3 12.9 21.3 12.9 C 21.3 12.9 21.2 13 21.2 13.1 C 21.1 13.2 21 13.4 21 13.4 C 21 13.4 20.9 13.4 20.9 13.4 C 20.9 13.4 20.8 13.4 20.8 13.4 C 20.8 13.4 20.8 13.3 20.8 13.3 C 20.8 13.3 20.8 13.3 20.8 13.2 C 20.8 13.2 20.9 13.1 21 12.9 C 21.2 12.7 21.3 12.5 21.4 12.3 C 21.6 11.9 21.7 11.7 21.8 11.7 C 21.8 11.6 21.8 11.6 21.9 11.6 C 21.9 11.6 21.9 11.6 21.9 11.6 Z M 21.7 12.7 C 21.9 12.6 22 12.6 22.1 12.6 C 22 12.5 22 12.4 21.9 12.2 C 21.9 12 21.8 11.9 21.8 11.9 C 21.8 12 21.7 12.1 21.6 12.3 C 21.6 12.3 21.4 12.7 21.4 12.7 C 21.4 12.7 21.4 12.7 21.5 12.7 C 21.6 12.7 21.6 12.7 21.7 12.7 C 21.7 12.7 21.7 12.7 21.7 12.7 Z M 22.9 13.2 C 22.9 13.1 22.9 13.1 22.9 13 C 22.9 13 23 12.9 23 12.7 C 23 12.5 23 12.3 23.1 12.1 C 23.1 11.8 23.1 11.7 23.1 11.7 C 23.1 11.6 23.1 11.6 23.1 11.6 C 23.2 11.6 23.2 11.6 23.2 11.6 C 23.3 11.6 23.3 11.6 23.3 11.6 C 23.3 11.6 23.3 11.7 23.3 11.7 C 23.3 11.7 23.3 11.8 23.3 11.9 C 23.3 12 23.3 12.2 23.2 12.5 C 23.2 12.9 23.2 13.1 23.2 13.1 C 23.2 13.1 23.2 13.2 23.2 13.2 C 23.2 13.2 23.2 13.2 23.2 13.2 C 23.3 13.2 23.4 13.2 23.5 13.1 C 23.6 13.1 23.8 13.1 24 13.1 C 24.1 13.1 24.1 13.1 24.2 13.1 C 24.2 13.1 24.2 13.1 24.2 13.1 C 24.2 13.1 24.3 13.1 24.3 13.1 C 24.3 13.1 24.3 13.1 24.3 13.2 C 24.3 13.2 24.3 13.3 24.2 13.3 C 24.2 13.3 24.2 13.3 24.1 13.3 C 24.1 13.3 24.1 13.3 24 13.3 C 24 13.3 23.9 13.3 23.9 13.3 C 23.6 13.3 23.4 13.4 23.1 13.4 C 23.1 13.5 23 13.5 23 13.5 C 23 13.5 22.9 13.4 22.9 13.4 C 22.9 13.4 22.9 13.3 22.9 13.3 C 22.9 13.3 22.9 13.3 22.9 13.2 C 22.9 13.2 22.9 13.2 22.9 13.2 Z M 24.7 12.1 C 24.7 12 24.7 11.9 24.7 11.9 C 24.7 11.9 24.7 11.8 24.6 11.8 C 24.5 11.8 24.5 11.8 24.5 11.7 C 24.5 11.7 24.5 11.7 24.6 11.6 C 24.6 11.6 24.6 11.6 24.6 11.6 C 24.6 11.6 24.8 11.6 24.8 11.6 C 24.9 11.6 25 11.6 25.1 11.6 C 25.3 11.6 25.4 11.6 25.4 11.6 C 25.7 11.6 25.8 11.6 26 11.8 C 26.1 11.9 26.2 12.1 26.2 12.3 C 26.2 12.5 26.1 12.7 25.9 12.9 C 25.7 13.1 25.4 13.2 25 13.3 C 24.9 13.4 24.8 13.4 24.8 13.4 C 24.7 13.5 24.6 13.5 24.6 13.5 C 24.6 13.5 24.5 13.5 24.5 13.5 C 24.5 13.4 24.5 13.4 24.5 13.4 C 24.5 13.4 24.5 13.3 24.5 13.3 C 24.5 13.3 24.5 13.2 24.5 13.2 C 24.5 13.2 24.5 13.1 24.5 13 C 24.5 12.9 24.6 12.7 24.6 12.5 C 24.6 12.3 24.6 12.1 24.7 12.1 C 24.7 12.1 24.7 12.1 24.7 12.1 Z M 25 11.8 C 25 11.8 24.9 11.8 24.9 11.8 C 24.8 12.4 24.7 12.8 24.7 13.1 C 24.7 13.1 24.8 13.2 24.8 13.2 C 24.8 13.2 24.8 13.2 24.8 13.2 C 24.9 13.2 25 13.2 25.2 13.1 C 25.4 13 25.6 12.9 25.8 12.8 C 25.9 12.6 26 12.5 26 12.3 C 26 12.1 25.9 12 25.8 11.9 C 25.7 11.8 25.6 11.8 25.4 11.8 C 25.3 11.8 25.2 11.8 25 11.8 C 25 11.8 25 11.8 25 11.8 Z M 27.2 11.6 C 27.3 11.6 27.3 11.6 27.3 11.6 C 27.3 11.6 27.4 11.6 27.4 11.7 C 27.4 11.7 27.3 11.7 27.3 11.8 C 27.3 11.8 27.4 11.8 27.4 11.8 C 27.4 11.9 27.4 12 27.4 12 C 27.5 12.1 27.5 12.2 27.5 12.3 C 27.6 12.5 27.7 12.7 27.8 12.9 C 27.8 13 27.9 13.2 28 13.2 C 28 13.3 28.1 13.3 28.1 13.3 C 28.1 13.3 28.1 13.3 28.1 13.4 C 28.1 13.4 28.1 13.4 28 13.5 C 28 13.5 28 13.5 28 13.5 C 27.8 13.5 27.7 13.3 27.6 13 C 27.5 12.9 27.5 12.8 27.5 12.8 C 27.4 12.8 27.3 12.8 27.2 12.8 C 27.1 12.9 27 12.9 26.8 12.9 C 26.8 12.9 26.7 12.9 26.7 12.9 C 26.7 12.9 26.7 12.9 26.7 12.9 C 26.7 12.9 26.6 12.9 26.6 12.9 C 26.6 12.9 26.6 13 26.5 13.1 C 26.4 13.2 26.4 13.4 26.3 13.4 C 26.3 13.4 26.3 13.4 26.3 13.4 C 26.2 13.4 26.2 13.4 26.2 13.4 C 26.1 13.4 26.1 13.3 26.1 13.3 C 26.1 13.3 26.1 13.3 26.2 13.2 C 26.2 13.2 26.3 13.1 26.4 12.9 C 26.5 12.7 26.7 12.5 26.8 12.3 C 26.9 11.9 27.1 11.7 27.1 11.7 C 27.2 11.6 27.2 11.6 27.2 11.6 C 27.2 11.6 27.2 11.6 27.2 11.6 Z M 27 12.7 C 27.2 12.6 27.4 12.6 27.4 12.6 C 27.4 12.5 27.3 12.4 27.3 12.2 C 27.2 12 27.2 11.9 27.2 11.9 C 27.1 12 27.1 12.1 27 12.3 C 27 12.3 26.7 12.7 26.7 12.7 C 26.8 12.7 26.8 12.7 26.9 12.7 C 26.9 12.7 27 12.7 27 12.7 C 27 12.7 27 12.7 27 12.7 Z M 28.5 12.1 C 28.5 12 28.5 11.9 28.5 11.9 C 28.5 11.9 28.5 11.8 28.4 11.8 C 28.4 11.8 28.3 11.8 28.3 11.7 C 28.3 11.7 28.3 11.7 28.4 11.6 C 28.4 11.6 28.4 11.6 28.4 11.6 C 28.4 11.6 28.6 11.6 28.6 11.6 C 28.7 11.6 28.8 11.6 28.9 11.6 C 29.1 11.6 29.2 11.6 29.2 11.6 C 29.5 11.6 29.6 11.6 29.8 11.8 C 29.9 11.9 30 12.1 30 12.3 C 30 12.5 29.9 12.7 29.7 12.9 C 29.5 13.1 29.2 13.2 28.8 13.3 C 28.7 13.4 28.6 13.4 28.6 13.4 C 28.5 13.5 28.4 13.5 28.4 13.5 C 28.4 13.5 28.3 13.5 28.3 13.5 C 28.3 13.4 28.3 13.4 28.3 13.4 C 28.3 13.4 28.3 13.3 28.3 13.3 C 28.3 13.3 28.3 13.2 28.3 13.2 C 28.3 13.2 28.3 13.1 28.3 13 C 28.3 12.9 28.4 12.7 28.4 12.5 C 28.4 12.3 28.4 12.1 28.5 12.1 C 28.5 12.1 28.5 12.1 28.5 12.1 Z M 28.8 11.8 C 28.8 11.8 28.7 11.8 28.7 11.8 C 28.6 12.4 28.6 12.8 28.6 13.1 C 28.6 13.1 28.6 13.2 28.6 13.2 C 28.6 13.2 28.6 13.2 28.6 13.2 C 28.7 13.2 28.8 13.2 29 13.1 C 29.2 13 29.4 12.9 29.6 12.8 C 29.7 12.6 29.8 12.5 29.8 12.3 C 29.8 12.1 29.7 12 29.6 11.9 C 29.5 11.8 29.4 11.8 29.2 11.8 C 29.1 11.8 29 11.8 28.8 11.8 C 28.8 11.8 28.8 11.8 28.8 11.8 Z M 31.6 11.8 C 31.6 11.8 31.6 11.8 31.6 11.8 C 31.5 11.8 31.5 11.8 31.4 11.8 C 31.4 11.8 31.4 11.8 31.3 11.8 C 31.3 11.8 31.3 11.8 31.2 11.8 C 31.2 11.8 31.1 11.8 31 11.8 C 30.9 11.8 30.8 11.8 30.7 11.9 C 30.7 11.9 30.7 11.9 30.7 12 C 30.7 12 30.7 12.1 30.6 12.1 C 30.6 12.3 30.6 12.4 30.6 12.5 C 30.6 12.5 30.6 12.5 30.6 12.5 C 30.6 12.5 30.7 12.5 30.8 12.4 C 31 12.4 31 12.4 31.1 12.4 C 31.2 12.4 31.3 12.4 31.4 12.4 C 31.5 12.4 31.5 12.4 31.5 12.4 C 31.5 12.5 31.5 12.6 31.4 12.6 C 31.4 12.6 31.2 12.6 31 12.6 C 30.7 12.7 30.6 12.7 30.6 12.7 C 30.6 12.7 30.5 12.8 30.5 12.9 C 30.5 13.1 30.5 13.2 30.5 13.2 C 30.5 13.2 30.5 13.2 30.5 13.2 C 30.5 13.2 30.5 13.3 30.6 13.3 C 30.6 13.3 30.6 13.3 30.6 13.3 C 30.6 13.3 30.7 13.3 30.7 13.3 C 30.7 13.3 31 13.2 31 13.2 C 31.1 13.2 31.2 13.2 31.3 13.2 C 31.4 13.2 31.4 13.1 31.5 13.1 C 31.5 13.1 31.5 13.2 31.5 13.2 C 31.6 13.2 31.6 13.2 31.6 13.3 C 31.6 13.3 31.6 13.3 31.6 13.3 C 31.5 13.4 31.4 13.4 31.2 13.4 C 31.1 13.4 30.9 13.4 30.7 13.5 C 30.6 13.5 30.5 13.5 30.5 13.5 C 30.4 13.5 30.3 13.5 30.3 13.5 C 30.3 13.4 30.2 13.4 30.2 13.3 C 30.23 13.34 30.2 13.3 30.2 13.3 C 30.2 13.3 30.23 13.3 30.2 13.3 C 30.2 13.3 30.2 13.3 30.3 13.2 C 30.3 13.2 30.3 13 30.3 12.9 C 30.4 12.7 30.4 12.6 30.4 12.5 C 30.4 12.5 30.4 12.4 30.4 12.4 C 30.4 12.2 30.5 12 30.5 11.9 C 30.5 11.9 30.4 11.9 30.4 11.9 C 30.4 11.8 30.4 11.8 30.4 11.8 C 30.4 11.8 30.4 11.8 30.4 11.8 C 30.4 11.8 30.4 11.8 30.4 11.8 C 30.4 11.8 30.4 11.7 30.4 11.7 C 30.4 11.7 30.4 11.7 30.4 11.7 C 30.4 11.7 30.5 11.7 30.5 11.7 C 30.5 11.7 30.5 11.7 30.5 11.7 C 30.5 11.7 30.6 11.7 30.6 11.7 C 30.6 11.7 30.6 11.7 30.6 11.7 C 30.6 11.7 30.7 11.7 30.9 11.7 C 31.1 11.6 31.3 11.6 31.5 11.6 C 31.5 11.6 31.5 11.6 31.5 11.6 C 31.5 11.6 31.5 11.6 31.5 11.6 C 31.6 11.6 31.7 11.6 31.7 11.6 C 31.7 11.6 31.7 11.6 31.7 11.7 C 31.7 11.7 31.7 11.7 31.7 11.7 C 31.7 11.8 31.7 11.8 31.6 11.8 Z M 33.1 12.1 C 33.1 12 33.1 11.9 33.1 11.9 C 33.1 11.9 33.1 11.8 33 11.8 C 33 11.8 32.9 11.8 32.9 11.7 C 32.9 11.7 33 11.7 33 11.6 C 33 11.6 33 11.6 33.1 11.6 C 33.1 11.6 33.2 11.6 33.2 11.6 C 33.3 11.6 33.4 11.6 33.6 11.6 C 33.7 11.6 33.8 11.6 33.9 11.6 C 34.1 11.6 34.3 11.6 34.4 11.8 C 34.6 11.9 34.6 12.1 34.6 12.3 C 34.6 12.5 34.5 12.7 34.3 12.9 C 34.1 13.1 33.8 13.2 33.5 13.3 C 33.3 13.4 33.2 13.4 33.2 13.4 C 33.1 13.5 33.1 13.5 33 13.5 C 33 13.5 33 13.5 32.9 13.5 C 32.9 13.4 32.9 13.4 32.9 13.4 C 32.9 13.4 32.9 13.3 32.9 13.3 C 32.9 13.3 32.9 13.2 33 13.2 C 33 13.2 33 13.1 33 13 C 33 12.9 33 12.7 33 12.5 C 33 12.3 33.1 12.1 33.1 12.1 C 33.1 12.1 33.1 12.1 33.1 12.1 Z M 33.4 11.8 C 33.4 11.8 33.4 11.8 33.3 11.8 C 33.2 12.4 33.2 12.8 33.2 13.1 C 33.2 13.1 33.2 13.2 33.2 13.2 C 33.2 13.2 33.2 13.2 33.2 13.2 C 33.3 13.2 33.4 13.2 33.7 13.1 C 33.9 13 34.1 12.9 34.2 12.8 C 34.3 12.6 34.4 12.5 34.4 12.3 C 34.4 12.1 34.4 12 34.2 11.9 C 34.1 11.8 34 11.8 33.8 11.8 C 33.7 11.8 33.6 11.8 33.4 11.8 C 33.4 11.8 33.4 11.8 33.4 11.8 Z M 36.3 11.8 C 36.3 11.8 36.3 11.8 36.2 11.8 C 36.2 11.8 36.1 11.8 36.1 11.8 C 36 11.8 36 11.8 36 11.8 C 35.9 11.8 35.9 11.8 35.9 11.8 C 35.8 11.8 35.8 11.8 35.7 11.8 C 35.5 11.8 35.4 11.8 35.4 11.9 C 35.3 11.9 35.3 11.9 35.3 12 C 35.3 12 35.3 12.1 35.3 12.1 C 35.2 12.3 35.2 12.4 35.2 12.5 C 35.2 12.5 35.2 12.5 35.2 12.5 C 35.3 12.5 35.3 12.5 35.5 12.4 C 35.6 12.4 35.7 12.4 35.7 12.4 C 35.9 12.4 35.9 12.4 36 12.4 C 36.1 12.4 36.2 12.4 36.2 12.4 C 36.2 12.5 36.1 12.6 36.1 12.6 C 36 12.6 35.8 12.6 35.6 12.6 C 35.4 12.7 35.2 12.7 35.2 12.7 C 35.2 12.7 35.2 12.8 35.1 12.9 C 35.1 13.1 35.1 13.2 35.1 13.2 C 35.1 13.2 35.1 13.2 35.1 13.2 C 35.1 13.2 35.1 13.3 35.2 13.3 C 35.2 13.3 35.2 13.3 35.2 13.3 C 35.3 13.3 35.3 13.3 35.4 13.3 C 35.4 13.3 35.6 13.2 35.6 13.2 C 35.7 13.2 35.8 13.2 35.9 13.2 C 36 13.2 36.1 13.1 36.1 13.1 C 36.1 13.1 36.2 13.2 36.2 13.2 C 36.2 13.2 36.2 13.2 36.2 13.3 C 36.2 13.3 36.2 13.3 36.2 13.3 C 36.1 13.4 36 13.4 35.9 13.4 C 35.8 13.4 35.6 13.4 35.3 13.5 C 35.2 13.5 35.1 13.5 35.1 13.5 C 35 13.5 34.9 13.5 34.9 13.5 C 34.9 13.4 34.9 13.4 34.9 13.3 C 34.86 13.34 34.9 13.3 34.9 13.3 C 34.9 13.3 34.86 13.3 34.9 13.3 C 34.9 13.3 34.9 13.3 34.9 13.2 C 34.9 13.2 34.9 13 35 12.9 C 35 12.7 35 12.6 35 12.5 C 35 12.5 35 12.4 35 12.4 C 35.1 12.2 35.1 12 35.1 11.9 C 35.1 11.9 35.1 11.9 35.1 11.9 C 35.1 11.8 35.1 11.8 35 11.8 C 35 11.8 35 11.8 35 11.8 C 35 11.8 35 11.8 35 11.8 C 35 11.8 35 11.7 35 11.7 C 35 11.7 35 11.7 35.1 11.7 C 35.1 11.7 35.1 11.7 35.1 11.7 C 35.1 11.7 35.1 11.7 35.1 11.7 C 35.2 11.7 35.2 11.7 35.2 11.7 C 35.2 11.7 35.3 11.7 35.3 11.7 C 35.3 11.7 35.4 11.7 35.5 11.7 C 35.7 11.6 35.9 11.6 36.1 11.6 C 36.1 11.6 36.2 11.6 36.2 11.6 C 36.2 11.6 36.2 11.6 36.2 11.6 C 36.2 11.6 36.3 11.6 36.3 11.6 C 36.3 11.6 36.4 11.6 36.4 11.7 C 36.4 11.7 36.3 11.7 36.3 11.7 C 36.3 11.8 36.3 11.8 36.3 11.8 Z M 37.9 11.6 C 38.1 11.6 38.3 11.6 38.4 11.6 C 38.6 11.6 38.7 11.6 38.8 11.7 C 38.9 11.8 39 11.9 39 12 C 39 12.1 38.9 12.3 38.8 12.4 C 38.7 12.5 38.6 12.6 38.4 12.6 C 38.4 12.6 38.4 12.6 38.4 12.6 C 38.4 12.7 38.5 12.7 38.6 12.9 C 38.8 13 39 13.1 39.1 13.2 C 39.1 13.2 39.2 13.3 39.2 13.3 C 39.2 13.3 39.1 13.3 39.1 13.4 C 39.1 13.4 39.1 13.4 39 13.4 C 39 13.4 38.9 13.4 38.8 13.3 C 38.7 13.2 38.6 13.1 38.5 13 C 38.2 12.8 38.1 12.7 38.1 12.7 C 38 12.7 38 12.7 37.9 12.7 C 37.9 12.7 37.9 12.6 37.9 12.6 C 37.9 12.6 37.9 12.5 37.9 12.5 C 38 12.5 38 12.5 38 12.5 C 38.1 12.5 38.1 12.5 38.1 12.5 C 38.1 12.5 38.2 12.5 38.2 12.5 C 38.3 12.5 38.4 12.5 38.5 12.4 C 38.7 12.3 38.8 12.1 38.8 12 C 38.8 11.9 38.7 11.9 38.7 11.8 C 38.6 11.8 38.5 11.8 38.4 11.8 C 38.3 11.8 38.2 11.8 38.1 11.8 C 38.1 11.8 38 11.8 38 11.8 C 38 11.8 37.9 11.8 37.9 11.9 C 37.9 11.9 37.9 12 37.8 12.2 C 37.8 12.4 37.8 12.5 37.8 12.7 C 37.8 12.9 37.7 13 37.7 13.1 C 37.7 13.1 37.7 13.2 37.8 13.2 C 37.8 13.3 37.8 13.3 37.8 13.3 C 37.8 13.4 37.8 13.4 37.7 13.4 C 37.7 13.4 37.7 13.5 37.6 13.5 C 37.6 13.5 37.5 13.4 37.5 13.2 C 37.5 12.9 37.6 12.5 37.7 11.9 C 37.7 11.9 37.7 11.9 37.7 11.9 C 37.7 11.9 37.7 11.9 37.7 11.8 C 37.7 11.8 37.6 11.8 37.6 11.7 C 37.6 11.7 37.7 11.7 37.7 11.7 C 37.7 11.6 37.7 11.6 37.8 11.6 C 37.8 11.6 37.9 11.6 37.9 11.6 Z M 40.7 11.8 C 40.7 11.8 40.7 11.8 40.7 11.8 C 40.6 11.8 40.6 11.8 40.5 11.8 C 40.5 11.8 40.5 11.8 40.4 11.8 C 40.4 11.8 40.4 11.8 40.3 11.8 C 40.3 11.8 40.2 11.8 40.1 11.8 C 40 11.8 39.9 11.8 39.8 11.9 C 39.8 11.9 39.8 11.9 39.8 12 C 39.8 12 39.8 12.1 39.7 12.1 C 39.7 12.3 39.7 12.4 39.7 12.5 C 39.7 12.5 39.7 12.5 39.7 12.5 C 39.7 12.5 39.8 12.5 39.9 12.4 C 40.1 12.4 40.1 12.4 40.2 12.4 C 40.3 12.4 40.4 12.4 40.5 12.4 C 40.6 12.4 40.6 12.4 40.6 12.4 C 40.6 12.5 40.6 12.6 40.5 12.6 C 40.5 12.6 40.3 12.6 40.1 12.6 C 39.8 12.7 39.7 12.7 39.7 12.7 C 39.6 12.7 39.6 12.8 39.6 12.9 C 39.6 13.1 39.6 13.2 39.6 13.2 C 39.6 13.2 39.6 13.2 39.6 13.2 C 39.6 13.2 39.6 13.3 39.7 13.3 C 39.7 13.3 39.7 13.3 39.7 13.3 C 39.7 13.3 39.8 13.3 39.8 13.3 C 39.8 13.3 40.1 13.2 40.1 13.2 C 40.2 13.2 40.3 13.2 40.4 13.2 C 40.5 13.2 40.5 13.1 40.6 13.1 C 40.6 13.1 40.6 13.2 40.6 13.2 C 40.7 13.2 40.7 13.2 40.7 13.3 C 40.7 13.3 40.7 13.3 40.7 13.3 C 40.6 13.4 40.5 13.4 40.3 13.4 C 40.2 13.4 40 13.4 39.8 13.5 C 39.7 13.5 39.6 13.5 39.6 13.5 C 39.5 13.5 39.4 13.5 39.4 13.5 C 39.3 13.4 39.3 13.4 39.3 13.3 C 39.33 13.34 39.3 13.3 39.3 13.3 C 39.3 13.3 39.32 13.3 39.3 13.3 C 39.3 13.3 39.3 13.3 39.3 13.2 C 39.4 13.2 39.4 13 39.4 12.9 C 39.4 12.7 39.5 12.6 39.5 12.5 C 39.5 12.5 39.5 12.4 39.5 12.4 C 39.5 12.2 39.5 12 39.5 11.9 C 39.5 11.9 39.5 11.9 39.5 11.9 C 39.5 11.8 39.5 11.8 39.5 11.8 C 39.5 11.8 39.5 11.8 39.5 11.8 C 39.5 11.8 39.5 11.8 39.5 11.8 C 39.5 11.8 39.5 11.7 39.5 11.7 C 39.5 11.7 39.5 11.7 39.5 11.7 C 39.5 11.7 39.6 11.7 39.6 11.7 C 39.6 11.7 39.6 11.7 39.6 11.7 C 39.6 11.7 39.7 11.7 39.7 11.7 C 39.7 11.7 39.7 11.7 39.7 11.7 C 39.7 11.7 39.8 11.7 40 11.7 C 40.2 11.6 40.4 11.6 40.6 11.6 C 40.6 11.6 40.6 11.6 40.6 11.6 C 40.6 11.6 40.6 11.6 40.6 11.6 C 40.7 11.6 40.8 11.6 40.8 11.6 C 40.8 11.6 40.8 11.6 40.8 11.7 C 40.8 11.7 40.8 11.7 40.8 11.7 C 40.8 11.8 40.8 11.8 40.7 11.8 Z M 41.2 11.9 C 41.1 11.9 41.1 11.9 41.1 11.8 C 41.1 11.7 41.2 11.7 41.4 11.6 C 41.7 11.6 41.9 11.5 42 11.5 C 42.2 11.5 42.3 11.6 42.5 11.7 C 42.6 11.7 42.6 11.8 42.6 12 C 42.6 12.1 42.5 12.3 42.3 12.5 C 42.1 12.6 41.8 12.7 41.5 12.8 C 41.4 12.8 41.3 12.8 41.3 12.8 C 41.3 12.8 41.3 12.9 41.3 13 C 41.3 13.2 41.3 13.3 41.3 13.3 C 41.3 13.4 41.3 13.4 41.3 13.4 C 41.2 13.5 41.2 13.5 41.2 13.5 C 41.1 13.5 41.1 13.4 41.1 13.3 C 41.1 13.3 41.1 13.1 41.1 12.9 C 41.1 12.9 41.2 12.1 41.2 12.1 C 41.2 12.1 41.2 12.1 41.2 12 C 41.2 12 41.2 11.9 41.2 11.9 Z M 42 11.7 C 41.8 11.7 41.7 11.8 41.4 11.8 C 41.4 11.9 41.4 11.9 41.4 12 C 41.4 12.1 41.4 12.2 41.4 12.4 C 41.4 12.4 41.4 12.5 41.4 12.6 C 41.6 12.6 41.9 12.5 42.1 12.4 C 42.3 12.2 42.4 12.1 42.4 12 C 42.4 11.8 42.3 11.7 42 11.7 C 42 11.7 42 11.7 42 11.7 Z M 43.1 11.6 C 43.4 11.6 43.5 11.6 43.7 11.6 C 43.8 11.6 44 11.6 44.1 11.7 C 44.2 11.8 44.2 11.9 44.2 12 C 44.2 12.1 44.2 12.3 44.1 12.4 C 44 12.5 43.8 12.6 43.6 12.6 C 43.6 12.6 43.6 12.6 43.6 12.6 C 43.6 12.7 43.7 12.7 43.9 12.9 C 44 13 44.2 13.1 44.3 13.2 C 44.4 13.2 44.4 13.3 44.4 13.3 C 44.4 13.3 44.4 13.3 44.4 13.4 C 44.3 13.4 44.3 13.4 44.3 13.4 C 44.2 13.4 44.2 13.4 44 13.3 C 43.9 13.2 43.8 13.1 43.7 13 C 43.5 12.8 43.3 12.7 43.3 12.7 C 43.2 12.7 43.2 12.7 43.2 12.7 C 43.2 12.7 43.1 12.6 43.1 12.6 C 43.1 12.6 43.2 12.5 43.2 12.5 C 43.2 12.5 43.3 12.5 43.3 12.5 C 43.3 12.5 43.3 12.5 43.4 12.5 C 43.4 12.5 43.4 12.5 43.4 12.5 C 43.5 12.5 43.6 12.5 43.8 12.4 C 43.9 12.3 44 12.1 44 12 C 44 11.9 44 11.9 43.9 11.8 C 43.8 11.8 43.7 11.8 43.6 11.8 C 43.5 11.8 43.5 11.8 43.4 11.8 C 43.3 11.8 43.2 11.8 43.2 11.8 C 43.2 11.8 43.2 11.8 43.2 11.9 C 43.2 11.9 43.1 12 43.1 12.2 C 43.1 12.4 43 12.5 43 12.7 C 43 12.9 43 13 43 13.1 C 43 13.1 43 13.2 43 13.2 C 43 13.3 43 13.3 43 13.3 C 43 13.4 43 13.4 43 13.4 C 42.9 13.4 42.9 13.5 42.9 13.5 C 42.8 13.5 42.8 13.4 42.8 13.2 C 42.8 12.9 42.8 12.5 42.9 11.9 C 42.9 11.9 42.9 11.9 42.9 11.9 C 42.9 11.9 42.9 11.9 42.9 11.8 C 42.9 11.8 42.9 11.8 42.9 11.7 C 42.9 11.7 42.9 11.7 42.9 11.7 C 43 11.6 43 11.6 43 11.6 C 43 11.6 43.1 11.6 43.1 11.6 Z M 46 11.8 C 46 11.8 46 11.8 45.9 11.8 C 45.9 11.8 45.8 11.8 45.8 11.8 C 45.7 11.8 45.7 11.8 45.7 11.8 C 45.6 11.8 45.6 11.8 45.6 11.8 C 45.6 11.8 45.5 11.8 45.4 11.8 C 45.2 11.8 45.1 11.8 45.1 11.9 C 45 11.9 45 11.9 45 12 C 45 12 45 12.1 45 12.1 C 44.9 12.3 44.9 12.4 44.9 12.5 C 44.9 12.5 44.9 12.5 44.9 12.5 C 45 12.5 45.1 12.5 45.2 12.4 C 45.3 12.4 45.4 12.4 45.4 12.4 C 45.6 12.4 45.7 12.4 45.7 12.4 C 45.8 12.4 45.9 12.4 45.9 12.4 C 45.9 12.5 45.8 12.6 45.8 12.6 C 45.7 12.6 45.6 12.6 45.3 12.6 C 45.1 12.7 44.9 12.7 44.9 12.7 C 44.9 12.7 44.9 12.8 44.9 12.9 C 44.8 13.1 44.8 13.2 44.8 13.2 C 44.8 13.2 44.8 13.2 44.8 13.2 C 44.8 13.2 44.9 13.3 44.9 13.3 C 44.9 13.3 44.9 13.3 44.9 13.3 C 45 13.3 45 13.3 45.1 13.3 C 45.1 13.3 45.3 13.2 45.3 13.2 C 45.4 13.2 45.5 13.2 45.6 13.2 C 45.7 13.2 45.8 13.1 45.8 13.1 C 45.8 13.1 45.9 13.2 45.9 13.2 C 45.9 13.2 45.9 13.2 45.9 13.3 C 45.9 13.3 45.9 13.3 45.9 13.3 C 45.8 13.4 45.7 13.4 45.6 13.4 C 45.5 13.4 45.3 13.4 45 13.5 C 44.9 13.5 44.8 13.5 44.8 13.5 C 44.7 13.5 44.6 13.5 44.6 13.5 C 44.6 13.4 44.6 13.4 44.6 13.3 C 44.57 13.34 44.6 13.3 44.6 13.3 C 44.6 13.3 44.57 13.3 44.6 13.3 C 44.6 13.3 44.6 13.3 44.6 13.2 C 44.6 13.2 44.6 13 44.7 12.9 C 44.7 12.7 44.7 12.6 44.7 12.5 C 44.7 12.5 44.7 12.4 44.7 12.4 C 44.8 12.2 44.8 12 44.8 11.9 C 44.8 11.9 44.8 11.9 44.8 11.9 C 44.8 11.8 44.8 11.8 44.8 11.8 C 44.8 11.8 44.7 11.8 44.7 11.8 C 44.7 11.8 44.7 11.8 44.7 11.8 C 44.7 11.8 44.7 11.7 44.7 11.7 C 44.7 11.7 44.7 11.7 44.8 11.7 C 44.8 11.7 44.8 11.7 44.8 11.7 C 44.8 11.7 44.8 11.7 44.8 11.7 C 44.9 11.7 44.9 11.7 45 11.7 C 45 11.7 45 11.7 45 11.7 C 45 11.7 45.1 11.7 45.2 11.7 C 45.4 11.6 45.6 11.6 45.8 11.6 C 45.9 11.6 45.9 11.6 45.9 11.6 C 45.9 11.6 45.9 11.6 45.9 11.6 C 46 11.6 46 11.6 46 11.6 C 46 11.6 46.1 11.6 46.1 11.7 C 46.1 11.7 46.1 11.7 46 11.7 C 46 11.8 46 11.8 46 11.8 Z M 47.5 12 C 47.5 11.9 47.4 11.8 47.4 11.8 C 47.3 11.8 47.2 11.8 47.2 11.8 C 47 11.8 46.8 11.8 46.7 11.9 C 46.5 11.9 46.5 12 46.5 12.1 C 46.5 12.2 46.5 12.2 46.6 12.3 C 46.6 12.3 46.8 12.4 47 12.5 C 47.2 12.5 47.3 12.6 47.4 12.7 C 47.5 12.7 47.5 12.8 47.5 12.9 C 47.5 13 47.5 13.1 47.4 13.2 C 47.2 13.3 47.1 13.4 46.9 13.4 C 46.8 13.5 46.6 13.5 46.5 13.5 C 46.4 13.5 46.3 13.5 46.3 13.5 C 46.2 13.4 46.2 13.4 46.2 13.4 C 46.2 13.3 46.2 13.3 46.2 13.3 C 46.2 13.2 46.2 13.2 46.3 13.2 C 46.3 13.2 46.3 13.2 46.3 13.2 C 46.4 13.3 46.5 13.3 46.6 13.3 C 46.7 13.3 46.9 13.2 47.1 13.1 C 47.2 13.1 47.3 13 47.3 12.9 C 47.3 12.9 47.3 12.8 47.2 12.8 C 47.2 12.8 47.1 12.7 46.8 12.6 C 46.6 12.6 46.4 12.5 46.3 12.4 C 46.3 12.3 46.3 12.2 46.3 12.1 C 46.3 12 46.4 11.8 46.5 11.7 C 46.7 11.6 47 11.6 47.2 11.6 C 47.3 11.6 47.4 11.6 47.5 11.6 C 47.6 11.7 47.6 11.7 47.6 11.8 C 47.6 11.8 47.6 11.9 47.6 11.9 C 47.6 12 47.5 12 47.5 12 Z M 49.3 11.8 C 49.2 11.8 49.2 11.8 49.2 11.8 C 49.1 11.8 49.1 11.8 49.1 11.8 C 49 11.8 49 11.8 48.9 11.8 C 48.9 11.8 48.9 11.8 48.9 11.8 C 48.8 11.8 48.7 11.8 48.6 11.8 C 48.5 11.8 48.4 11.8 48.3 11.9 C 48.3 11.9 48.3 11.9 48.3 12 C 48.3 12 48.3 12.1 48.3 12.1 C 48.2 12.3 48.2 12.4 48.2 12.5 C 48.2 12.5 48.2 12.5 48.2 12.5 C 48.2 12.5 48.3 12.5 48.4 12.4 C 48.6 12.4 48.7 12.4 48.7 12.4 C 48.8 12.4 48.9 12.4 49 12.4 C 49.1 12.4 49.1 12.4 49.1 12.4 C 49.1 12.5 49.1 12.6 49 12.6 C 49 12.6 48.8 12.6 48.6 12.6 C 48.3 12.7 48.2 12.7 48.2 12.7 C 48.2 12.7 48.1 12.8 48.1 12.9 C 48.1 13.1 48.1 13.2 48.1 13.2 C 48.1 13.2 48.1 13.2 48.1 13.2 C 48.1 13.2 48.1 13.3 48.2 13.3 C 48.2 13.3 48.2 13.3 48.2 13.3 C 48.2 13.3 48.3 13.3 48.4 13.3 C 48.4 13.3 48.6 13.2 48.6 13.2 C 48.7 13.2 48.8 13.2 48.9 13.2 C 49 13.2 49 13.1 49.1 13.1 C 49.1 13.1 49.1 13.2 49.2 13.2 C 49.2 13.2 49.2 13.2 49.2 13.3 C 49.2 13.3 49.2 13.3 49.2 13.3 C 49.1 13.4 49 13.4 48.9 13.4 C 48.7 13.4 48.6 13.4 48.3 13.5 C 48.2 13.5 48.1 13.5 48.1 13.5 C 48 13.5 47.9 13.5 47.9 13.5 C 47.9 13.4 47.8 13.4 47.8 13.3 C 47.84 13.34 47.8 13.3 47.8 13.3 C 47.8 13.3 47.84 13.3 47.8 13.3 C 47.8 13.3 47.8 13.3 47.9 13.2 C 47.9 13.2 47.9 13 47.9 12.9 C 48 12.7 48 12.6 48 12.5 C 48 12.5 48 12.4 48 12.4 C 48 12.2 48.1 12 48.1 11.9 C 48.1 11.9 48.1 11.9 48 11.9 C 48 11.8 48 11.8 48 11.8 C 48 11.8 48 11.8 48 11.8 C 48 11.8 48 11.8 48 11.8 C 48 11.8 48 11.7 48 11.7 C 48 11.7 48 11.7 48 11.7 C 48.1 11.7 48.1 11.7 48.1 11.7 C 48.1 11.7 48.1 11.7 48.1 11.7 C 48.1 11.7 48.2 11.7 48.2 11.7 C 48.2 11.7 48.2 11.7 48.2 11.7 C 48.2 11.7 48.3 11.7 48.5 11.7 C 48.7 11.6 48.9 11.6 49.1 11.6 C 49.1 11.6 49.1 11.6 49.1 11.6 C 49.1 11.6 49.2 11.6 49.2 11.6 C 49.2 11.6 49.3 11.6 49.3 11.6 C 49.3 11.6 49.3 11.6 49.3 11.7 C 49.3 11.7 49.3 11.7 49.3 11.7 C 49.3 11.8 49.3 11.8 49.3 11.8 Z M 50.8 13.1 C 50.9 12.9 50.9 12.6 51 12.3 C 51 12.1 51 11.9 51 11.7 C 51 11.7 51 11.6 51 11.6 C 51 11.6 51.1 11.6 51.1 11.6 C 51.1 11.5 51.2 11.5 51.2 11.5 C 51.2 11.5 51.2 11.6 51.3 11.6 C 51.3 11.6 51.3 11.7 51.3 11.7 C 51.3 11.7 51.3 11.8 51.2 11.9 C 51.2 12.1 51.1 12.3 51.1 12.6 C 51 12.9 51 13.1 51 13.1 C 51 13.2 51 13.3 51 13.3 C 51 13.3 51 13.4 51 13.4 C 50.9 13.4 50.9 13.4 50.9 13.4 C 50.8 13.4 50.8 13.4 50.8 13.4 C 50.8 13.4 50.8 13.4 50.7 13.3 C 50.7 13.3 50.7 13.3 50.7 13.2 C 50.7 13.2 50.6 13.2 50.6 13.1 C 50.3 12.8 50.1 12.5 49.9 12.1 C 49.9 12.3 49.8 12.6 49.8 12.9 C 49.8 12.9 49.8 13.1 49.8 13.1 C 49.8 13.1 49.8 13.2 49.8 13.2 C 49.8 13.3 49.8 13.3 49.7 13.4 C 49.7 13.4 49.7 13.4 49.7 13.4 C 49.7 13.5 49.6 13.5 49.6 13.5 C 49.6 13.5 49.5 13.5 49.5 13.4 C 49.5 13.4 49.5 13.3 49.5 13.3 C 49.5 13.2 49.5 13.1 49.6 13 C 49.6 12.9 49.6 12.7 49.7 12.4 C 49.8 12.1 49.8 11.9 49.8 11.8 C 49.8 11.8 49.8 11.8 49.8 11.8 C 49.8 11.7 49.8 11.7 49.8 11.7 C 49.8 11.7 49.8 11.7 49.8 11.7 C 49.9 11.6 49.9 11.6 49.9 11.6 C 49.9 11.6 50 11.6 50 11.7 C 50 11.7 50 11.7 50 11.7 C 50 11.7 50 11.8 50 11.8 C 50.1 12 50.2 12.2 50.4 12.5 C 50.5 12.7 50.7 12.9 50.8 13.1 Z M 51.6 11.9 C 51.5 11.9 51.4 11.9 51.4 11.9 C 51.4 11.9 51.4 11.8 51.4 11.8 C 51.4 11.8 51.4 11.8 51.4 11.7 C 51.4 11.7 51.5 11.7 51.7 11.7 C 51.8 11.7 52 11.7 52.1 11.7 C 52.2 11.7 52.4 11.7 52.7 11.6 C 52.8 11.6 52.9 11.6 53 11.6 C 53.1 11.6 53.1 11.6 53.1 11.6 C 53.2 11.6 53.2 11.6 53.2 11.6 C 53.3 11.6 53.3 11.6 53.3 11.7 C 53.3 11.7 53.3 11.7 53.3 11.7 C 53.3 11.8 53.3 11.8 53.2 11.8 C 53.2 11.8 53.2 11.8 53.1 11.8 C 53.1 11.8 53 11.8 52.9 11.8 C 52.8 11.8 52.7 11.8 52.6 11.8 C 52.5 11.8 52.4 11.9 52.4 11.9 C 52.4 11.9 52.4 12.1 52.4 12.4 C 52.3 12.7 52.3 12.9 52.3 13 C 52.3 13.1 52.3 13.2 52.3 13.3 C 52.3 13.3 52.3 13.3 52.3 13.3 C 52.3 13.3 52.3 13.4 52.3 13.4 C 52.3 13.4 52.3 13.4 52.2 13.4 C 52.2 13.4 52.2 13.4 52.1 13.4 C 52.1 13.3 52.1 13.2 52.1 13 C 52.1 12.8 52.1 12.5 52.2 12 C 52.2 11.9 52.2 11.9 52.2 11.9 C 52.2 11.9 52.2 11.9 52.2 11.9 C 52.1 11.9 52 11.9 51.9 11.9 C 51.7 11.9 51.6 11.9 51.6 11.9 C 51.6 11.9 51.6 11.9 51.6 11.9 Z M 54 11.6 C 54 11.6 54.1 11.6 54.1 11.6 C 54.1 11.6 54.1 11.6 54.1 11.7 C 54.1 11.7 54.1 11.7 54.1 11.8 C 54.1 11.8 54.1 11.8 54.1 11.8 C 54.2 11.9 54.2 12 54.2 12 C 54.2 12.1 54.3 12.2 54.3 12.3 C 54.4 12.5 54.5 12.7 54.5 12.9 C 54.6 13 54.7 13.2 54.8 13.2 C 54.8 13.3 54.8 13.3 54.8 13.3 C 54.8 13.3 54.8 13.3 54.8 13.4 C 54.8 13.4 54.8 13.4 54.8 13.5 C 54.8 13.5 54.8 13.5 54.7 13.5 C 54.6 13.5 54.5 13.3 54.3 13 C 54.3 12.9 54.2 12.8 54.2 12.8 C 54.2 12.8 54.1 12.8 54 12.8 C 53.8 12.9 53.7 12.9 53.6 12.9 C 53.5 12.9 53.5 12.9 53.5 12.9 C 53.5 12.9 53.4 12.9 53.4 12.9 C 53.4 12.9 53.4 12.9 53.4 12.9 C 53.4 12.9 53.4 13 53.3 13.1 C 53.2 13.2 53.1 13.4 53.1 13.4 C 53.1 13.4 53.1 13.4 53 13.4 C 53 13.4 53 13.4 52.9 13.4 C 52.9 13.4 52.9 13.3 52.9 13.3 C 52.9 13.3 52.9 13.3 52.9 13.2 C 53 13.2 53 13.1 53.1 12.9 C 53.3 12.7 53.4 12.5 53.5 12.3 C 53.7 11.9 53.8 11.7 53.9 11.7 C 53.9 11.6 54 11.6 54 11.6 C 54 11.6 54 11.6 54 11.6 Z M 53.8 12.7 C 54 12.6 54.1 12.6 54.2 12.6 C 54.2 12.5 54.1 12.4 54.1 12.2 C 54 12 54 11.9 53.9 11.9 C 53.9 12 53.8 12.1 53.7 12.3 C 53.7 12.3 53.5 12.7 53.5 12.7 C 53.5 12.7 53.6 12.7 53.6 12.7 C 53.7 12.7 53.7 12.7 53.8 12.7 C 53.8 12.7 53.8 12.7 53.8 12.7 Z M 55.5 13.5 C 55.5 13.5 55.5 13.5 55.4 13.5 C 55.4 13.5 55.4 13.5 55.4 13.6 C 55.4 13.6 55.4 13.6 55.5 13.6 C 55.6 13.6 55.6 13.6 55.6 13.7 C 55.7 13.7 55.7 13.8 55.7 13.9 C 55.7 13.9 55.6 14 55.6 14 C 55.5 14.1 55.4 14.2 55.2 14.2 C 55.2 14.2 55.2 14.1 55.2 14.1 C 55.1 14.1 55.1 14.1 55.1 14.1 C 55.1 14.1 55.1 14.1 55.1 14.1 C 55 14.1 55 14 55 14 C 55 14 55 14 55 13.9 C 55 13.9 55.1 13.9 55.1 13.9 C 55.1 13.9 55.1 13.9 55.1 13.9 C 55.2 14 55.2 14 55.3 14 C 55.4 14 55.4 14 55.4 13.9 C 55.5 13.9 55.5 13.9 55.5 13.8 C 55.5 13.8 55.5 13.8 55.4 13.8 C 55.4 13.7 55.4 13.7 55.4 13.7 C 55.4 13.7 55.3 13.7 55.3 13.7 C 55.3 13.8 55.3 13.8 55.3 13.8 C 55.2 13.8 55.2 13.7 55.2 13.7 C 55.2 13.7 55.3 13.4 55.3 13.4 C 55.1 13.3 55 13.2 55 12.9 C 55 12.6 55.1 12.3 55.4 12 C 55.7 11.6 56 11.5 56.2 11.5 C 56.3 11.5 56.4 11.5 56.5 11.6 C 56.5 11.6 56.5 11.7 56.5 11.8 C 56.5 11.9 56.5 11.9 56.5 12 C 56.5 12 56.5 12 56.5 12.1 C 56.4 12.1 56.4 12.1 56.4 12.1 C 56.3 12.1 56.3 12.1 56.3 12.1 C 56.3 12.1 56.3 12.1 56.3 12 C 56.3 12 56.3 12 56.3 11.9 C 56.3 11.9 56.3 11.8 56.3 11.8 C 56.3 11.7 56.3 11.7 56.2 11.7 C 56.1 11.7 56 11.7 55.8 11.8 C 55.6 12 55.5 12.1 55.4 12.3 C 55.2 12.6 55.2 12.7 55.2 12.9 C 55.2 13 55.2 13.1 55.3 13.2 C 55.4 13.3 55.4 13.3 55.6 13.3 C 55.6 13.3 55.7 13.3 55.8 13.2 C 55.9 13.2 56 13.2 56.1 13.1 C 56.2 13 56.3 13 56.3 13 C 56.3 13 56.3 13 56.3 13.1 C 56.3 13.1 56.3 13.2 56.2 13.2 C 56.1 13.3 56 13.4 55.9 13.4 C 55.7 13.5 55.6 13.5 55.5 13.5 C 55.5 13.5 55.5 13.5 55.5 13.5 Z M 57.6 11.6 C 57.6 11.6 57.7 11.6 57.7 11.6 C 57.7 11.6 57.7 11.6 57.7 11.7 C 57.7 11.7 57.7 11.7 57.7 11.8 C 57.7 11.8 57.7 11.8 57.7 11.8 C 57.8 11.9 57.8 12 57.8 12 C 57.8 12.1 57.9 12.2 57.9 12.3 C 58 12.5 58.1 12.7 58.1 12.9 C 58.2 13 58.3 13.2 58.4 13.2 C 58.4 13.3 58.4 13.3 58.4 13.3 C 58.4 13.3 58.5 13.3 58.5 13.4 C 58.5 13.4 58.4 13.4 58.4 13.5 C 58.4 13.5 58.4 13.5 58.3 13.5 C 58.2 13.5 58.1 13.3 57.9 13 C 57.9 12.9 57.8 12.8 57.8 12.8 C 57.8 12.8 57.7 12.8 57.6 12.8 C 57.4 12.9 57.3 12.9 57.2 12.9 C 57.2 12.9 57.1 12.9 57.1 12.9 C 57.1 12.9 57.1 12.9 57 12.9 C 57 12.9 57 12.9 57 12.9 C 57 12.9 57 13 56.9 13.1 C 56.8 13.2 56.7 13.4 56.7 13.4 C 56.7 13.4 56.7 13.4 56.6 13.4 C 56.6 13.4 56.6 13.4 56.5 13.4 C 56.5 13.4 56.5 13.3 56.5 13.3 C 56.5 13.3 56.5 13.3 56.5 13.2 C 56.6 13.2 56.6 13.1 56.7 12.9 C 56.9 12.7 57 12.5 57.1 12.3 C 57.3 11.9 57.4 11.7 57.5 11.7 C 57.5 11.6 57.6 11.6 57.6 11.6 C 57.6 11.6 57.6 11.6 57.6 11.6 Z M 57.4 12.7 C 57.6 12.6 57.8 12.6 57.8 12.6 C 57.8 12.5 57.7 12.4 57.7 12.2 C 57.6 12 57.6 11.9 57.5 11.9 C 57.5 12 57.4 12.1 57.3 12.3 C 57.3 12.3 57.1 12.7 57.1 12.7 C 57.1 12.7 57.2 12.7 57.2 12.7 C 57.3 12.7 57.4 12.7 57.4 12.7 C 57.4 12.7 57.4 12.7 57.4 12.7 Z M 57.6 11.2 C 57.6 11.2 57.6 11.2 57.6 11.2 C 57.6 11.2 57.6 11.1 57.6 11.1 C 57.6 11.1 57.5 11.1 57.5 11.1 C 57.4 11.1 57.4 11.1 57.4 11.1 C 57.4 11.1 57.3 11.1 57.3 11.2 C 57.3 11.3 57.2 11.3 57.2 11.3 C 57.2 11.3 57.2 11.3 57.1 11.3 C 57.1 11.3 57.1 11.3 57.1 11.3 C 57.1 11.2 57.1 11.1 57.2 11 C 57.3 10.9 57.4 10.9 57.4 10.9 C 57.5 10.9 57.5 10.9 57.6 10.9 C 57.6 10.9 57.6 10.9 57.7 11 C 57.7 11 57.7 11 57.8 11.1 C 57.8 11.1 57.8 11.1 57.8 11.1 C 57.8 11.1 57.9 11.1 57.9 11.1 C 57.9 11.1 57.9 11.1 58 11.1 C 58 11.1 58 11.1 58.1 11 C 58.1 11 58.1 10.9 58.1 10.9 C 58.2 10.9 58.2 11 58.2 11 C 58.2 11 58.2 11.1 58.1 11.2 C 58 11.3 58 11.3 57.9 11.3 C 57.9 11.3 57.8 11.3 57.8 11.3 C 57.7 11.2 57.7 11.2 57.6 11.2 C 57.6 11.2 57.6 11.2 57.6 11.2 Z M 59.1 13.5 C 58.9 13.5 58.8 13.4 58.7 13.3 C 58.6 13.1 58.6 13 58.6 12.9 C 58.6 12.7 58.6 12.5 58.7 12.3 C 58.8 12.1 58.9 11.9 59.1 11.8 C 59.3 11.6 59.4 11.6 59.6 11.6 C 59.8 11.6 59.9 11.6 60 11.6 C 60.1 11.7 60.1 11.7 60.2 11.8 C 60.3 11.8 60.3 11.9 60.3 12 C 60.4 12 60.4 12.1 60.4 12.2 C 60.4 12.3 60.3 12.5 60.3 12.6 C 60.2 12.8 60.1 12.9 60 13.1 C 59.8 13.2 59.7 13.3 59.6 13.4 C 59.4 13.4 59.3 13.5 59.1 13.5 Z M 58.8 12.9 C 58.8 13 58.8 13.1 58.9 13.1 C 59 13.2 59.1 13.3 59.1 13.3 C 59.4 13.3 59.6 13.2 59.8 12.9 C 60 12.7 60.2 12.4 60.2 12.2 C 60.2 12.1 60.1 12 60.1 12 C 60.1 11.9 60 11.8 59.9 11.8 C 59.8 11.8 59.7 11.7 59.6 11.7 C 59.4 11.7 59.2 11.9 59.1 12.1 C 58.9 12.4 58.8 12.6 58.8 12.9 Z " stroke="none" fill="#000"/>  </g>  <g id="Polygon15380">    <path d="M 19.1 2.6 C 19.1 2.6 19.1 2.6 19.1 2.6 C 19.1 2.6 19 2.7 18.9 2.9 C 18.7 3.2 18.5 3.5 18.4 3.7 C 18.3 3.9 18.1 4.2 17.7 4.8 C 17.5 5.1 17.4 5.3 17.3 5.4 C 17.2 5.7 17.1 5.9 17 6 C 17 6.1 16.9 6.1 16.9 6.2 C 16.8 6.2 16.6 6.3 16.5 6.3 C 16.4 6.3 16.4 6.2 16.3 6.1 C 16.3 6.1 16.2 5.9 16.1 5.6 C 16 5.3 15.9 5 15.7 4.5 C 15.3 3.4 15.1 2.9 15.1 2.9 C 15.1 2.8 15.1 2.7 15.2 2.6 C 15.2 2.5 15.3 2.5 15.4 2.5 C 15.5 2.5 15.6 2.5 15.6 2.6 C 15.7 2.6 15.8 2.8 15.8 3.1 C 15.9 3.3 16 3.7 16.2 4.2 C 16.4 4.7 16.6 5.2 16.7 5.4 C 16.7 5.4 16.8 5.3 16.9 5.1 C 16.9 5.1 16.9 5 16.9 5 C 17.2 4.6 17.4 4.3 17.5 4 C 17.8 3.4 18.1 3 18.3 2.7 C 18.5 2.4 18.7 2.3 18.8 2.3 C 19 2.3 19.1 2.4 19.1 2.6 C 19.09 2.58 19.1 2.6 19.1 2.6 C 19.1 2.6 19.09 2.6 19.1 2.6 Z M 21.2 4.9 C 21.1 5.3 20.8 5.7 20.5 6 C 20.2 6.2 19.8 6.4 19.5 6.4 C 19.3 6.4 19 6.3 18.9 6.1 C 18.7 5.9 18.6 5.7 18.6 5.4 C 18.6 4.9 18.8 4.5 19.1 4 C 19.4 3.6 19.8 3.4 20.2 3.4 C 20.5 3.4 20.8 3.5 20.9 3.7 C 21.1 3.9 21.2 4.2 21.2 4.5 C 21.2 4.7 21.2 4.8 21.2 4.9 C 21.2 4.9 21.2 4.9 21.2 4.9 Z M 19.8 4.1 C 19.7 4.2 19.6 4.4 19.4 4.6 C 19.3 4.8 19.3 5.1 19.3 5.3 C 19.3 5.5 19.3 5.6 19.3 5.7 C 19.4 5.8 19.5 5.8 19.6 5.8 C 19.8 5.8 20 5.7 20.2 5.4 C 20.5 5.2 20.6 4.9 20.6 4.6 C 20.6 4.4 20.6 4.2 20.5 4.1 C 20.4 4 20.3 3.9 20.2 3.9 C 20 3.9 19.9 4 19.8 4.1 C 19.8 4.1 19.8 4.1 19.8 4.1 Z M 22.7 4.1 C 22.7 4.1 22.6 4.3 22.6 4.7 C 22.5 5.1 22.4 5.3 22.4 5.4 C 22.4 5.6 22.5 5.7 22.5 5.7 C 22.5 5.8 22.6 5.8 22.6 5.8 C 22.7 5.8 22.8 5.8 22.9 5.7 C 23 5.7 23.1 5.6 23.3 5.5 C 23.4 5.4 23.4 5.4 23.5 5.4 C 23.6 5.4 23.6 5.4 23.6 5.4 C 23.7 5.5 23.7 5.5 23.7 5.5 C 23.7 5.7 23.6 5.9 23.3 6.1 C 23.1 6.3 22.8 6.4 22.5 6.4 C 22.3 6.4 22.1 6.3 22 6.2 C 21.9 6 21.8 5.8 21.8 5.6 C 21.8 5.3 21.9 4.9 22.1 4.1 C 21.9 4.2 21.9 4.2 21.8 4.2 C 21.8 4.2 21.8 4.2 21.8 4.2 C 21.7 4.2 21.6 4.1 21.5 4.1 C 21.4 4 21.4 3.9 21.4 3.8 C 21.4 3.7 21.5 3.6 21.6 3.6 C 21.6 3.6 22.2 3.6 22.2 3.6 C 22.3 3.4 22.4 3.1 22.4 2.7 C 22.5 2.5 22.6 2.4 22.8 2.4 C 22.9 2.4 23 2.5 23 2.5 C 23.1 2.6 23.1 2.6 23.1 2.7 C 23.1 2.7 23 3 22.9 3.5 C 23.4 3.5 23.7 3.5 23.8 3.5 C 23.9 3.5 24 3.5 24 3.5 C 24 3.5 24 3.6 24 3.7 C 24 3.8 23.9 3.9 23.6 4 C 23.6 4 22.7 4.1 22.7 4.1 Z M 26.6 4.9 C 26.4 5.3 26.2 5.7 25.9 6 C 25.6 6.2 25.2 6.4 24.9 6.4 C 24.6 6.4 24.4 6.3 24.2 6.1 C 24.1 5.9 24 5.7 24 5.4 C 24 4.9 24.1 4.5 24.5 4 C 24.8 3.6 25.1 3.4 25.6 3.4 C 25.9 3.4 26.1 3.5 26.3 3.7 C 26.5 3.9 26.6 4.2 26.6 4.5 C 26.6 4.7 26.6 4.8 26.6 4.9 C 26.6 4.9 26.6 4.9 26.6 4.9 Z M 25.2 4.1 C 25.1 4.2 24.9 4.4 24.8 4.6 C 24.7 4.8 24.6 5.1 24.6 5.3 C 24.6 5.5 24.7 5.6 24.7 5.7 C 24.8 5.8 24.8 5.8 24.9 5.8 C 25.2 5.8 25.4 5.7 25.6 5.4 C 25.9 5.2 26 4.9 26 4.6 C 26 4.4 25.9 4.2 25.9 4.1 C 25.8 4 25.7 3.9 25.5 3.9 C 25.4 3.9 25.3 4 25.2 4.1 C 25.2 4.1 25.2 4.1 25.2 4.1 Z M 29.3 5.8 C 29.3 5.7 29.3 5.6 29.3 5.4 C 29.4 4.7 29.4 4.1 29.5 3.4 C 29.6 3.3 29.6 3.2 29.6 3.1 C 29.6 3.1 29.6 3.1 29.5 3.1 C 29.4 3 29.3 2.9 29.3 2.8 C 29.3 2.7 29.3 2.6 29.4 2.6 C 29.5 2.5 29.5 2.5 29.6 2.5 C 29.6 2.5 30 2.5 30 2.5 C 30.1 2.5 30.4 2.5 30.7 2.4 C 30.9 2.4 31.1 2.4 31.2 2.4 C 31.7 2.4 32.1 2.5 32.4 2.8 C 32.7 3.1 32.9 3.5 32.9 3.9 C 32.9 4.4 32.7 4.9 32.2 5.3 C 31.7 5.7 31.2 6 30.5 6.1 C 30.3 6.2 30.2 6.2 30.1 6.2 C 30 6.3 30 6.3 29.9 6.4 C 29.7 6.5 29.6 6.5 29.5 6.5 C 29.4 6.5 29.3 6.4 29.3 6.4 C 29.2 6.3 29.2 6.2 29.2 6.2 C 29.2 6.1 29.2 6.1 29.2 6 C 29.2 6 29.3 5.8 29.3 5.8 Z M 29.9 5.5 C 29.9 5.6 30 5.7 30 5.7 C 30.1 5.7 30.3 5.6 30.8 5.5 C 31.2 5.4 31.6 5.1 31.8 4.9 C 32.1 4.6 32.3 4.3 32.3 3.9 C 32.3 3.6 32.2 3.4 32 3.2 C 31.7 3 31.5 2.9 31.2 2.9 C 30.9 2.9 30.7 3 30.3 3 C 30.3 3 30.3 3 30.2 3 C 30 4.2 29.9 5 29.9 5.5 C 29.9 5.5 29.9 5.5 29.9 5.5 Z M 34.7 2.3 C 34.7 2.4 34.7 2.6 34.6 2.7 C 34.4 2.7 34.3 2.8 34.3 2.8 C 34.2 2.8 34.1 2.7 34 2.7 C 33.9 2.6 33.9 2.5 33.9 2.4 C 33.9 2.3 33.9 2.2 34 2.1 C 34.1 2 34.2 2 34.3 2 C 34.4 2 34.5 2 34.6 2.1 C 34.7 2.1 34.7 2.2 34.7 2.3 Z M 33.4 4.8 C 33.4 4.7 33.4 4.6 33.4 4.5 C 33.4 4.5 33.4 4.5 33.4 4.5 C 33.5 4.2 33.5 4 33.5 3.9 C 33.5 3.8 33.6 3.7 33.6 3.6 C 33.7 3.5 33.8 3.5 33.9 3.5 C 34 3.5 34.1 3.5 34.1 3.6 C 34.2 3.6 34.2 3.7 34.2 3.8 C 34.2 3.8 34.2 4 34.1 4.2 C 34.1 4.2 34.1 4.3 34.1 4.3 C 34 4.6 34 4.9 33.9 5.1 C 33.9 5.3 33.9 5.5 33.9 5.6 C 33.9 5.7 33.9 5.9 34 6 C 34 6.1 34 6.1 34 6.1 C 34 6.2 33.9 6.2 33.9 6.3 C 33.8 6.4 33.7 6.4 33.6 6.4 C 33.4 6.4 33.3 6.2 33.3 5.9 C 33.3 5.6 33.3 5.2 33.4 4.8 C 33.4 4.8 33.4 4.8 33.4 4.8 Z M 36 5.6 C 35.9 5.5 35.8 5.4 35.5 5.2 C 35.1 5.1 34.9 4.9 34.8 4.8 C 34.7 4.7 34.6 4.5 34.6 4.4 C 34.6 4.1 34.8 3.8 35.2 3.6 C 35.5 3.3 35.9 3.2 36.2 3.2 C 36.5 3.2 36.6 3.3 36.6 3.6 C 36.6 3.7 36.6 3.7 36.5 3.8 C 36.4 3.8 36.4 3.9 36.3 3.9 C 36.3 3.9 36.3 3.8 36.2 3.8 C 36.2 3.8 36.1 3.8 36.1 3.8 C 36 3.8 35.8 3.8 35.6 3.9 C 35.4 4 35.3 4.2 35.3 4.3 C 35.3 4.4 35.3 4.4 35.4 4.5 C 35.5 4.6 35.6 4.7 35.8 4.8 C 36.1 4.9 36.3 5 36.4 5.1 C 36.5 5.3 36.6 5.4 36.6 5.5 C 36.6 5.8 36.4 6 36 6.2 C 35.7 6.4 35.3 6.4 34.9 6.4 C 34.6 6.4 34.4 6.3 34.4 6.1 C 34.4 6 34.4 5.9 34.5 5.9 C 34.6 5.8 34.6 5.8 34.7 5.8 C 34.8 5.8 34.8 5.8 34.9 5.8 C 34.9 5.8 35 5.9 35.1 5.9 C 35.2 5.9 35.4 5.8 35.6 5.8 C 35.8 5.7 35.9 5.7 36 5.6 Z M 38 4.1 C 38 4.1 37.9 4.3 37.8 4.7 C 37.7 5.1 37.7 5.3 37.7 5.4 C 37.7 5.6 37.7 5.7 37.7 5.7 C 37.8 5.8 37.8 5.8 37.9 5.8 C 38 5.8 38.1 5.8 38.2 5.7 C 38.3 5.7 38.4 5.6 38.5 5.5 C 38.6 5.4 38.7 5.4 38.8 5.4 C 38.8 5.4 38.9 5.4 38.9 5.4 C 38.9 5.5 38.9 5.5 38.9 5.5 C 38.9 5.7 38.8 5.9 38.6 6.1 C 38.3 6.3 38 6.4 37.8 6.4 C 37.5 6.4 37.4 6.3 37.2 6.2 C 37.1 6 37 5.8 37 5.6 C 37 5.3 37.1 4.9 37.3 4.1 C 37.2 4.2 37.1 4.2 37.1 4.2 C 37.1 4.2 37 4.2 37 4.2 C 36.9 4.2 36.9 4.1 36.8 4.1 C 36.7 4 36.7 3.9 36.7 3.8 C 36.7 3.7 36.7 3.6 36.9 3.6 C 36.9 3.6 37.5 3.6 37.5 3.6 C 37.5 3.4 37.6 3.1 37.7 2.7 C 37.8 2.5 37.9 2.4 38 2.4 C 38.1 2.4 38.2 2.5 38.3 2.5 C 38.3 2.6 38.4 2.6 38.4 2.7 C 38.4 2.7 38.3 3 38.1 3.5 C 38.7 3.5 39 3.5 39.1 3.5 C 39.1 3.5 39.2 3.5 39.2 3.5 C 39.3 3.5 39.3 3.6 39.3 3.7 C 39.3 3.8 39.1 3.9 38.9 4 C 38.9 4 38 4.1 38 4.1 Z M 40 4.9 C 40 4.9 40.02 4.86 40 4.9 C 40.2 4.4 40.5 4.1 40.7 3.8 C 41 3.5 41.2 3.4 41.4 3.4 C 41.6 3.4 41.8 3.5 41.9 3.6 C 42 3.7 42 3.8 42 3.9 C 42 4 42 4.1 42 4.1 C 41.9 4.2 41.9 4.2 41.8 4.2 C 41.7 4.2 41.6 4.2 41.5 4.1 C 41.5 4 41.4 4 41.4 4 C 41.2 4 41 4.2 40.7 4.6 C 40.4 5 40.2 5.5 40.1 6 C 40.1 6.2 40.1 6.3 40 6.3 C 39.9 6.4 39.9 6.4 39.7 6.4 C 39.6 6.4 39.5 6.3 39.5 6.2 C 39.4 6.1 39.4 5.8 39.4 5.5 C 39.4 5.4 39.4 5.2 39.4 5 C 39.4 4.8 39.4 4.5 39.5 4.2 C 39.5 4.2 39.5 4.1 39.5 4.1 C 39.5 3.9 39.5 3.8 39.6 3.7 C 39.6 3.6 39.6 3.6 39.7 3.5 C 39.8 3.5 39.8 3.4 39.9 3.4 C 40 3.4 40.1 3.5 40.2 3.5 C 40.2 3.6 40.2 3.6 40.2 3.7 C 40.2 3.8 40.2 4 40.1 4.2 C 40.1 4.3 40.1 4.4 40 4.5 C 40.04 4.53 40 4.9 40 4.9 Z M 43.5 2.3 C 43.5 2.4 43.4 2.6 43.3 2.7 C 43.2 2.7 43.1 2.8 43 2.8 C 42.9 2.8 42.8 2.7 42.7 2.7 C 42.6 2.6 42.6 2.5 42.6 2.4 C 42.6 2.3 42.6 2.2 42.7 2.1 C 42.8 2 42.9 2 43.1 2 C 43.2 2 43.3 2 43.4 2.1 C 43.4 2.1 43.5 2.2 43.5 2.3 Z M 42.1 4.8 C 42.2 4.7 42.2 4.6 42.2 4.5 C 42.2 4.5 42.2 4.5 42.2 4.5 C 42.3 4.2 42.3 4 42.3 3.9 C 42.3 3.8 42.3 3.7 42.4 3.6 C 42.4 3.5 42.5 3.5 42.6 3.5 C 42.7 3.5 42.8 3.5 42.9 3.6 C 43 3.6 43 3.7 43 3.8 C 43 3.8 43 4 42.9 4.2 C 42.9 4.2 42.9 4.3 42.9 4.3 C 42.8 4.6 42.7 4.9 42.7 5.1 C 42.7 5.3 42.7 5.5 42.7 5.6 C 42.7 5.7 42.7 5.9 42.7 6 C 42.7 6.1 42.7 6.1 42.7 6.1 C 42.7 6.2 42.7 6.2 42.6 6.3 C 42.5 6.4 42.5 6.4 42.4 6.4 C 42.1 6.4 42 6.2 42 5.9 C 42 5.6 42.1 5.2 42.1 4.8 C 42.1 4.8 42.1 4.8 42.1 4.8 Z M 44.5 4.1 C 44.5 4.1 44.5 4.3 44.4 4.7 C 44.3 5.1 44.3 5.3 44.3 5.4 C 44.3 5.6 44.3 5.7 44.3 5.7 C 44.3 5.8 44.4 5.8 44.5 5.8 C 44.6 5.8 44.7 5.8 44.7 5.7 C 44.8 5.7 45 5.6 45.1 5.5 C 45.2 5.4 45.3 5.4 45.3 5.4 C 45.4 5.4 45.4 5.4 45.5 5.4 C 45.5 5.5 45.5 5.5 45.5 5.5 C 45.5 5.7 45.4 5.9 45.1 6.1 C 44.9 6.3 44.6 6.4 44.3 6.4 C 44.1 6.4 43.9 6.3 43.8 6.2 C 43.7 6 43.6 5.8 43.6 5.6 C 43.6 5.3 43.7 4.9 43.9 4.1 C 43.8 4.2 43.7 4.2 43.6 4.2 C 43.6 4.2 43.6 4.2 43.6 4.2 C 43.5 4.2 43.4 4.1 43.3 4.1 C 43.3 4 43.2 3.9 43.2 3.8 C 43.2 3.7 43.3 3.6 43.5 3.6 C 43.5 3.6 44 3.6 44 3.6 C 44.1 3.4 44.2 3.1 44.3 2.7 C 44.3 2.5 44.4 2.4 44.6 2.4 C 44.7 2.4 44.8 2.5 44.8 2.5 C 44.9 2.6 44.9 2.6 44.9 2.7 C 44.9 2.7 44.8 3 44.7 3.5 C 45.3 3.5 45.6 3.5 45.6 3.5 C 45.7 3.5 45.8 3.5 45.8 3.5 C 45.8 3.5 45.9 3.6 45.9 3.7 C 45.9 3.8 45.7 3.9 45.5 4 C 45.5 4 44.5 4.1 44.5 4.1 Z M 48.1 6.4 C 47.8 6.4 47.7 6 47.7 5.4 C 47.2 6 46.8 6.3 46.3 6.3 C 46.2 6.3 46.1 6.2 45.9 6.1 C 45.8 6 45.8 5.8 45.8 5.6 C 45.8 5.2 46 4.7 46.4 4.1 C 46.8 3.6 47.2 3.3 47.7 3.3 C 47.9 3.3 48 3.4 48.1 3.7 C 48.3 3.7 48.4 3.7 48.4 3.9 C 48.4 4 48.4 4.1 48.3 4.3 C 48.3 4.7 48.2 4.9 48.2 5.2 C 48.2 5.4 48.2 5.6 48.3 5.6 C 48.3 5.7 48.3 5.8 48.3 5.8 C 48.3 5.9 48.4 5.9 48.5 5.9 C 48.5 5.9 48.6 6 48.6 6.1 C 48.6 6.1 48.5 6.2 48.4 6.3 C 48.3 6.3 48.2 6.4 48.1 6.4 C 48.1 6.4 48.1 6.4 48.1 6.4 Z M 47.5 3.9 C 47.4 3.9 47.1 4.1 46.8 4.5 C 46.6 4.9 46.4 5.2 46.4 5.5 C 46.4 5.6 46.4 5.7 46.5 5.7 C 46.7 5.7 47 5.5 47.3 5.2 C 47.6 4.8 47.7 4.5 47.7 4.2 C 47.7 4.1 47.7 4 47.7 4 C 47.6 3.9 47.6 3.9 47.5 3.9 Z M 51.6 6.1 C 51.5 6.1 51.5 6.1 51.4 6.1 C 51.3 6.1 51.2 6.1 51.1 6.1 C 50.6 6.1 50.2 6.2 49.7 6.3 C 49.5 6.4 49.4 6.4 49.3 6.4 C 49.2 6.4 49.1 6.4 49.1 6.3 C 49 6.2 49 6.1 49 6 C 49 6 49 5.9 49 5.8 C 49.1 5.6 49.1 5.4 49.1 5.2 C 49.1 5.2 49.4 3 49.4 3 C 49.4 2.8 49.4 2.7 49.4 2.6 C 49.4 2.6 49.5 2.5 49.5 2.5 C 49.6 2.4 49.7 2.4 49.8 2.4 C 49.9 2.4 49.9 2.4 50 2.5 C 50.1 2.6 50.1 2.6 50.1 2.7 C 50.1 2.8 50.1 2.9 50.1 3.1 C 50 3.3 49.9 3.8 49.9 4.5 C 49.8 5.2 49.7 5.6 49.7 5.6 C 49.7 5.6 49.7 5.7 49.8 5.7 C 49.8 5.7 50 5.6 50.3 5.6 C 50.5 5.6 50.6 5.6 50.7 5.6 C 51.2 5.5 51.4 5.5 51.6 5.5 C 51.7 5.5 51.7 5.4 51.7 5.4 C 51.8 5.4 51.9 5.5 52 5.5 C 52 5.6 52 5.7 52 5.7 C 52 5.9 52 6 51.9 6 C 51.8 6.1 51.7 6.1 51.6 6.1 Z " stroke="none" fill="#000"/>  </g></svg>