<?xml version="1.0" standalone="no"?><!DOCTYPE svg PUBLIC "-//W3C//DTD SVG 1.1//EN" "http://www.w3.org/Graphics/SVG/1.1/DTD/svg11.dtd"><svg xmlns="http://www.w3.org/2000/svg" version="1.1" width="235px" height="68.2px" viewBox="0 -1 235 68.2" style="top:-1px">  <desc>Voto Distrital Puro</desc>  <defs/>  <g id="Polygon16669">    <path d="M 60.1 25 C 60.1 25 60.1 25.1 60.1 25.1 C 60.1 25.2 59.8 25.5 59.3 26.2 C 58.6 27.3 58 28.2 57.5 28.9 C 57.1 29.6 56.3 31 55 33.1 C 54.3 34.3 53.8 35.1 53.6 35.4 C 53 36.3 52.6 37 52.5 37.5 C 52.4 37.8 52.2 38.1 51.8 38.3 C 51.5 38.5 51 38.6 50.6 38.6 C 50.3 38.6 50.1 38.4 49.9 38.1 C 49.8 37.8 49.5 37.1 49.2 36.2 C 48.8 35.1 48.2 33.7 47.5 31.9 C 46 28.1 45.2 26.2 45.2 26 C 45.2 25.8 45.3 25.5 45.6 25.1 C 45.8 24.7 46.1 24.5 46.5 24.5 C 46.8 24.5 47.1 24.6 47.4 24.9 C 47.6 25.1 47.9 25.7 48.1 26.8 C 48.2 27.5 48.7 28.9 49.5 30.9 C 50.3 32.9 50.9 34.4 51.3 35.4 C 51.4 35.2 51.6 34.9 52 34.2 C 52.1 34.1 52.1 34 52.1 34 C 53 32.5 53.8 31.2 54.4 30.1 C 55.5 28 56.4 26.4 57.1 25.4 C 57.9 24.4 58.5 23.9 59 23.9 C 59.7 23.9 60.1 24.2 60.1 24.9 C 60.08 24.94 60.1 25 60.1 25 C 60.1 25 60.08 25.02 60.1 25 Z M 68.2 33.5 C 67.8 35.1 66.9 36.4 65.7 37.4 C 64.5 38.4 63.3 39 62.1 39 C 61.1 39 60.3 38.6 59.7 37.9 C 59.1 37.2 58.7 36.3 58.7 35.3 C 58.7 33.6 59.3 32 60.5 30.3 C 61.6 28.7 63 27.9 64.6 27.9 C 65.7 27.9 66.6 28.3 67.3 29.1 C 68 30 68.4 30.9 68.4 32.1 C 68.4 32.6 68.3 33.1 68.2 33.5 C 68.2 33.5 68.2 33.5 68.2 33.5 Z M 63.1 30.5 C 62.7 30.9 62.2 31.5 61.8 32.4 C 61.4 33.3 61.1 34.2 61.1 35.1 C 61.1 35.6 61.2 36 61.4 36.4 C 61.6 36.7 61.9 36.9 62.2 36.9 C 63 36.9 63.9 36.4 64.7 35.5 C 65.6 34.5 66 33.5 66 32.3 C 66 31.6 65.9 31 65.6 30.6 C 65.3 30.2 64.9 30 64.4 30 C 64 30 63.5 30.1 63.1 30.5 C 63.1 30.5 63.1 30.5 63.1 30.5 Z M 74.2 30.6 C 74.2 30.6 74 31.3 73.7 32.7 C 73.4 34.2 73.2 35.1 73.2 35.4 C 73.2 35.9 73.3 36.3 73.4 36.5 C 73.5 36.7 73.7 36.8 73.9 36.8 C 74.3 36.8 74.7 36.8 75 36.6 C 75.3 36.5 75.8 36.2 76.3 35.8 C 76.7 35.5 76.9 35.4 77.2 35.4 C 77.4 35.4 77.5 35.4 77.6 35.5 C 77.7 35.6 77.8 35.7 77.8 35.9 C 77.8 36.5 77.3 37.1 76.4 37.8 C 75.5 38.6 74.5 38.9 73.5 38.9 C 72.6 38.9 72 38.7 71.5 38.2 C 71.1 37.7 70.8 36.9 70.8 36 C 70.8 35.1 71.2 33.3 71.8 30.7 C 71.4 30.8 71.1 30.8 71 30.8 C 71 30.8 70.8 30.8 70.8 30.8 C 70.5 30.8 70.1 30.7 69.8 30.5 C 69.5 30.3 69.4 30 69.4 29.6 C 69.4 29 69.7 28.7 70.3 28.7 C 70.3 28.7 72.4 28.7 72.4 28.7 C 72.7 27.9 73 26.8 73.3 25.6 C 73.4 24.8 73.9 24.4 74.5 24.4 C 74.9 24.4 75.1 24.5 75.3 24.7 C 75.5 24.9 75.6 25.2 75.6 25.4 C 75.6 25.5 75.4 26.5 74.8 28.4 C 76.9 28.3 78 28.2 78.2 28.2 C 78.6 28.2 78.8 28.2 78.9 28.3 C 79 28.4 79.1 28.6 79.1 28.9 C 79.1 29.5 78.6 29.8 77.6 30 C 77.6 30 74.2 30.6 74.2 30.6 Z M 88.8 33.5 C 88.4 35.1 87.5 36.4 86.3 37.4 C 85.1 38.4 83.9 39 82.7 39 C 81.7 39 80.9 38.6 80.3 37.9 C 79.7 37.2 79.3 36.3 79.3 35.3 C 79.3 33.6 79.9 32 81.1 30.3 C 82.2 28.7 83.6 27.9 85.2 27.9 C 86.3 27.9 87.2 28.3 87.9 29.1 C 88.6 30 89 30.9 89 32.1 C 89 32.6 88.9 33.1 88.8 33.5 C 88.8 33.5 88.8 33.5 88.8 33.5 Z M 83.7 30.5 C 83.3 30.9 82.8 31.5 82.4 32.4 C 82 33.3 81.7 34.2 81.7 35.1 C 81.7 35.6 81.8 36 82 36.4 C 82.2 36.7 82.5 36.9 82.8 36.9 C 83.6 36.9 84.5 36.4 85.3 35.5 C 86.2 34.5 86.7 33.5 86.7 32.3 C 86.7 31.6 86.5 31 86.2 30.6 C 85.9 30.2 85.5 30 85 30 C 84.6 30 84.1 30.1 83.7 30.5 C 83.7 30.5 83.7 30.5 83.7 30.5 Z M 99.6 36.9 C 99.7 36.6 99.7 36 99.8 35.2 C 99.9 32.9 100.2 30.6 100.6 28.1 C 100.7 27.6 100.8 27.2 100.8 26.9 C 100.8 26.8 100.7 26.7 100.6 26.7 C 99.9 26.5 99.6 26.2 99.6 25.8 C 99.6 25.5 99.7 25.2 100 24.9 C 100.3 24.6 100.6 24.5 100.9 24.5 C 100.9 24.5 102.2 24.5 102.2 24.5 C 102.8 24.5 103.7 24.5 104.7 24.4 C 105.6 24.3 106.3 24.3 106.9 24.3 C 108.7 24.3 110.2 24.8 111.3 25.8 C 112.4 26.8 113 28.2 113 29.9 C 113 31.7 112.1 33.4 110.4 34.9 C 108.6 36.5 106.6 37.5 104.1 38 C 103.4 38.2 103 38.3 102.7 38.4 C 102.4 38.5 102.1 38.7 101.8 38.9 C 101.3 39.2 100.9 39.4 100.5 39.4 C 100.1 39.4 99.8 39.2 99.6 38.9 C 99.3 38.6 99.2 38.3 99.2 38.1 C 99.2 38 99.3 37.8 99.4 37.5 C 99.4 37.5 99.6 36.9 99.6 36.9 Z M 102.1 35.7 C 102.1 36.1 102.1 36.3 102.2 36.4 C 102.5 36.4 103.5 36.2 105.1 35.7 C 106.8 35.2 108.1 34.4 109.1 33.3 C 110.1 32.3 110.6 31.1 110.6 29.8 C 110.6 28.7 110.2 27.8 109.5 27.2 C 108.7 26.6 107.8 26.3 106.5 26.3 C 105.7 26.3 104.7 26.3 103.5 26.5 C 103.4 26.5 103.3 26.5 103.2 26.5 C 102.5 30.9 102.1 33.9 102.1 35.7 C 102.1 35.7 102.1 35.7 102.1 35.7 Z M 120.1 24 C 120.1 24.4 119.9 24.9 119.5 25.2 C 119.1 25.5 118.7 25.7 118.4 25.7 C 118 25.7 117.7 25.6 117.4 25.2 C 117.1 24.9 116.9 24.6 116.9 24.3 C 116.9 23.8 117.1 23.4 117.4 23.1 C 117.7 22.8 118.1 22.7 118.6 22.7 C 119.1 22.7 119.4 22.8 119.7 23.1 C 120 23.3 120.1 23.6 120.1 24 Z M 115.2 33 C 115.3 32.7 115.3 32.3 115.4 32 C 115.4 32 115.4 32 115.4 32 C 115.6 30.8 115.7 30.2 115.7 30 C 115.7 29.5 115.8 29.1 116 28.8 C 116.2 28.5 116.5 28.3 116.9 28.3 C 117.3 28.3 117.7 28.4 117.9 28.6 C 118.2 28.8 118.3 29 118.3 29.3 C 118.3 29.6 118.2 30.1 117.9 30.9 C 117.9 30.9 117.9 31.1 117.9 31.1 C 117.5 32.4 117.3 33.4 117.2 34.2 C 117.2 35 117.1 35.6 117.1 36.1 C 117.1 36.5 117.2 37.1 117.3 37.7 C 117.4 37.8 117.4 37.9 117.4 38 C 117.4 38.2 117.2 38.4 116.9 38.6 C 116.7 38.9 116.4 39 116 39 C 115.2 39 114.7 38.4 114.7 37.1 C 114.7 35.9 114.9 34.6 115.2 33 C 115.2 33 115.2 33 115.2 33 Z M 125 36 C 125 35.7 124.5 35.2 123.4 34.7 C 122 34.1 121.2 33.5 120.8 33.1 C 120.4 32.6 120.2 32.1 120.2 31.5 C 120.2 30.4 120.9 29.4 122.2 28.5 C 123.5 27.7 124.7 27.2 125.8 27.2 C 126.9 27.2 127.4 27.7 127.4 28.7 C 127.4 28.9 127.3 29.1 127.1 29.3 C 126.8 29.5 126.6 29.6 126.4 29.6 C 126.4 29.6 126.2 29.6 126 29.5 C 125.9 29.4 125.7 29.4 125.6 29.4 C 125 29.4 124.4 29.6 123.7 30 C 123 30.4 122.7 30.8 122.7 31.3 C 122.7 31.6 122.8 31.8 123 32.1 C 123.3 32.3 123.8 32.6 124.6 33 C 125.7 33.5 126.4 34 126.8 34.4 C 127.1 34.8 127.3 35.3 127.3 35.8 C 127.3 36.8 126.7 37.6 125.4 38.2 C 124.1 38.8 122.7 39.2 121.1 39.2 C 119.9 39.2 119.3 38.7 119.3 37.9 C 119.3 37.6 119.4 37.3 119.7 37.1 C 119.9 36.9 120.2 36.7 120.5 36.7 C 120.6 36.7 120.8 36.8 121.1 36.9 C 121.3 37 121.6 37 121.8 37 C 122.4 37 123 36.9 123.7 36.7 C 124.4 36.5 124.8 36.3 125 36 Z M 132.9 30.6 C 132.8 30.6 132.6 31.3 132.3 32.7 C 132 34.2 131.9 35.1 131.9 35.4 C 131.9 35.9 131.9 36.3 132 36.5 C 132.1 36.7 132.3 36.8 132.6 36.8 C 133 36.8 133.3 36.8 133.6 36.6 C 134 36.5 134.4 36.2 135 35.8 C 135.3 35.5 135.6 35.4 135.8 35.4 C 136 35.4 136.2 35.4 136.3 35.5 C 136.4 35.6 136.4 35.7 136.4 35.9 C 136.4 36.5 136 37.1 135.1 37.8 C 134.1 38.6 133.2 38.9 132.1 38.9 C 131.3 38.9 130.6 38.7 130.2 38.2 C 129.7 37.7 129.5 36.9 129.5 36 C 129.5 35.1 129.8 33.3 130.5 30.7 C 130.1 30.8 129.8 30.8 129.6 30.8 C 129.6 30.8 129.4 30.8 129.4 30.8 C 129.1 30.8 128.8 30.7 128.5 30.5 C 128.2 30.3 128 30 128 29.6 C 128 29 128.3 28.7 128.9 28.7 C 128.9 28.7 131 28.7 131 28.7 C 131.3 27.9 131.6 26.8 131.9 25.6 C 132.1 24.8 132.5 24.4 133.1 24.4 C 133.5 24.4 133.8 24.5 134 24.7 C 134.2 24.9 134.3 25.2 134.3 25.4 C 134.3 25.5 134 26.5 133.5 28.4 C 135.5 28.3 136.7 28.2 136.9 28.2 C 137.2 28.2 137.4 28.2 137.5 28.3 C 137.7 28.4 137.7 28.6 137.7 28.9 C 137.7 29.5 137.2 29.8 136.2 30 C 136.2 30 132.9 30.6 132.9 30.6 Z M 140.7 33.7 C 140.7 33.7 140.83 33.34 140.8 33.3 C 141.6 31.8 142.5 30.5 143.4 29.5 C 144.3 28.5 145.2 28 146 28 C 146.7 28 147.2 28.2 147.7 28.6 C 148.1 28.9 148.3 29.4 148.3 29.9 C 148.3 30.2 148.2 30.4 148.1 30.7 C 147.9 30.9 147.7 31 147.5 31 C 147.1 31 146.7 30.8 146.4 30.5 C 146.1 30.3 146 30.2 145.8 30.2 C 145.3 30.2 144.5 30.9 143.4 32.5 C 142.2 34 141.5 35.7 141.3 37.6 C 141.2 38.1 141.1 38.5 140.8 38.7 C 140.6 38.9 140.2 39 139.8 39 C 139.4 39 139 38.8 138.9 38.3 C 138.7 37.8 138.6 36.9 138.6 35.8 C 138.6 35.3 138.6 34.7 138.6 33.8 C 138.6 33.1 138.7 32.2 138.8 31.1 C 138.9 30.8 138.9 30.5 138.9 30.4 C 139 29.7 139 29.3 139.1 29.1 C 139.2 28.8 139.4 28.6 139.6 28.4 C 139.9 28.2 140.2 28.1 140.5 28.1 C 140.9 28.1 141.2 28.2 141.3 28.4 C 141.5 28.6 141.6 28.8 141.6 29.1 C 141.6 29.4 141.5 30 141.2 31 C 141.1 31.3 141 31.7 140.9 32.1 C 140.91 32.15 140.7 33.7 140.7 33.7 Z M 154 24 C 154 24.4 153.8 24.9 153.3 25.2 C 152.9 25.5 152.6 25.7 152.3 25.7 C 151.9 25.7 151.5 25.6 151.2 25.2 C 150.9 24.9 150.8 24.6 150.8 24.3 C 150.8 23.8 150.9 23.4 151.2 23.1 C 151.5 22.8 151.9 22.7 152.5 22.7 C 152.9 22.7 153.3 22.8 153.6 23.1 C 153.8 23.3 154 23.6 154 24 Z M 149.1 33 C 149.1 32.7 149.2 32.3 149.3 32 C 149.3 32 149.3 32 149.3 32 C 149.5 30.8 149.6 30.2 149.6 30 C 149.6 29.5 149.7 29.1 149.9 28.8 C 150.1 28.5 150.4 28.3 150.8 28.3 C 151.2 28.3 151.6 28.4 151.8 28.6 C 152.1 28.8 152.2 29 152.2 29.3 C 152.2 29.6 152.1 30.1 151.8 30.9 C 151.8 30.9 151.8 31.1 151.8 31.1 C 151.4 32.4 151.2 33.4 151.1 34.2 C 151 35 151 35.6 151 36.1 C 151 36.5 151.1 37.1 151.2 37.7 C 151.2 37.8 151.2 37.9 151.2 38 C 151.2 38.2 151.1 38.4 150.8 38.6 C 150.5 38.9 150.2 39 149.9 39 C 149 39 148.6 38.4 148.6 37.1 C 148.6 35.9 148.8 34.6 149.1 33 C 149.1 33 149.1 33 149.1 33 Z M 158.3 30.6 C 158.2 30.6 158 31.3 157.7 32.7 C 157.4 34.2 157.3 35.1 157.3 35.4 C 157.3 35.9 157.3 36.3 157.4 36.5 C 157.6 36.7 157.7 36.8 158 36.8 C 158.4 36.8 158.7 36.8 159.1 36.6 C 159.4 36.5 159.8 36.2 160.4 35.8 C 160.7 35.5 161 35.4 161.2 35.4 C 161.4 35.4 161.6 35.4 161.7 35.5 C 161.8 35.6 161.9 35.7 161.9 35.9 C 161.9 36.5 161.4 37.1 160.5 37.8 C 159.6 38.6 158.6 38.9 157.5 38.9 C 156.7 38.9 156 38.7 155.6 38.2 C 155.1 37.7 154.9 36.9 154.9 36 C 154.9 35.1 155.2 33.3 155.9 30.7 C 155.5 30.8 155.2 30.8 155 30.8 C 155 30.8 154.8 30.8 154.8 30.8 C 154.5 30.8 154.2 30.7 153.9 30.5 C 153.6 30.3 153.4 30 153.4 29.6 C 153.4 29 153.7 28.7 154.4 28.7 C 154.4 28.7 156.5 28.7 156.5 28.7 C 156.7 27.9 157 26.8 157.3 25.6 C 157.5 24.8 157.9 24.4 158.6 24.4 C 158.9 24.4 159.2 24.5 159.4 24.7 C 159.6 24.9 159.7 25.2 159.7 25.4 C 159.7 25.5 159.4 26.5 158.9 28.4 C 160.9 28.3 162.1 28.2 162.3 28.2 C 162.6 28.2 162.9 28.2 163 28.3 C 163.1 28.4 163.1 28.6 163.1 28.9 C 163.1 29.5 162.6 29.8 161.7 30 C 161.7 30 158.3 30.6 158.3 30.6 Z M 172 38.9 C 170.8 38.9 170.2 37.7 170.3 35.2 C 168.6 37.5 167 38.6 165.4 38.6 C 164.8 38.6 164.3 38.4 163.9 37.9 C 163.4 37.5 163.2 36.9 163.2 36.2 C 163.2 34.4 164 32.6 165.5 30.6 C 167.1 28.7 168.6 27.7 170.2 27.7 C 171 27.7 171.5 28.1 171.7 28.9 C 172.5 28.9 172.9 29.2 172.9 29.8 C 172.9 30 172.8 30.5 172.6 31.3 C 172.4 32.6 172.3 33.7 172.3 34.5 C 172.3 35.3 172.3 35.9 172.4 36.2 C 172.5 36.6 172.6 36.8 172.7 36.9 C 172.7 37 172.9 37.1 173.1 37.2 C 173.4 37.4 173.5 37.5 173.5 37.7 C 173.5 38.1 173.4 38.4 173 38.6 C 172.7 38.8 172.3 38.9 172 38.9 C 172 38.9 172 38.9 172 38.9 Z M 169.7 29.8 C 169.1 29.8 168.2 30.5 167.2 32 C 166.1 33.4 165.6 34.7 165.6 35.7 C 165.6 36.2 165.7 36.5 165.9 36.5 C 166.7 36.5 167.7 35.8 168.8 34.4 C 169.9 33.1 170.5 31.9 170.5 30.9 C 170.5 30.5 170.4 30.3 170.2 30.1 C 170.1 29.9 169.9 29.8 169.7 29.8 Z M 178.9 22 C 179.6 22 180 22.3 180 23.1 C 180 23.5 179.9 23.8 179.8 24.3 C 179.7 24.7 179.5 25.7 179 27.3 C 178.7 28.4 178.5 29.7 178.3 31.1 C 178.1 32.5 178 33.5 178 34.3 C 178 35.1 178.1 36.1 178.2 37.3 C 178.3 37.6 178.3 37.8 178.3 37.8 C 178.3 38.2 178.1 38.6 177.9 38.8 C 177.6 39.1 177.3 39.3 176.9 39.3 C 176.5 39.3 176.1 39 175.9 38.6 C 175.7 38.2 175.7 37.4 175.7 36.4 C 175.7 34.1 175.9 31.4 176.5 28.3 C 177 25.2 177.4 23.4 177.8 22.8 C 178.1 22.2 178.5 22 178.9 22 Z M 193.8 33.7 C 193 33.9 192.5 34 192.4 34.1 C 192.2 35.6 192.1 36.8 192.1 37.7 C 192.1 38.1 192 38.4 191.8 38.7 C 191.6 38.9 191.3 39.1 190.9 39.1 C 190.1 39.1 189.7 38.6 189.7 37.7 C 189.7 37.2 189.9 35.4 190.3 32.5 C 190.6 30.1 190.8 28.6 190.8 28.2 C 190.8 27.7 190.7 27.4 190.7 27.3 C 190.3 27.1 190.1 26.7 190.1 26.1 C 190.1 25.6 191 25.1 192.7 24.7 C 194.5 24.3 196 24.1 197.2 24.1 C 198.7 24.1 199.9 24.4 200.8 25 C 201.6 25.6 202.1 26.4 202.1 27.4 C 202.1 28.9 201.3 30.2 199.7 31.4 C 198.1 32.5 196.1 33.3 193.8 33.7 C 193.8 33.7 193.8 33.7 193.8 33.7 Z M 197.2 26 C 196 26 194.7 26.3 193.3 26.7 C 193.3 26.7 192.7 31.9 192.7 31.9 C 194.6 31.6 196.2 31 197.6 30.2 C 199 29.4 199.8 28.6 199.8 27.6 C 199.8 26.6 198.9 26 197.2 26 C 197.2 26 197.2 26 197.2 26 Z M 209.4 34.9 C 208.8 36.1 208.1 37 207.2 37.6 C 206.4 38.3 205.6 38.6 204.7 38.6 C 204.2 38.6 203.7 38.4 203.2 37.9 C 202.7 37.3 202.4 36.5 202.4 35.4 C 202.4 34.6 202.6 33.5 203 31.9 C 203.4 30.6 203.5 29.6 203.5 29 C 203.8 28.4 204.2 28.2 204.8 28.2 C 205.1 28.2 205.4 28.3 205.7 28.5 C 205.9 28.8 206 29 206 29.3 C 206 29.7 205.8 30.4 205.5 31.3 C 205.3 31.8 205.1 32.5 204.9 33.4 C 204.7 34.3 204.6 34.9 204.6 35.2 C 204.6 36.1 204.7 36.5 205.1 36.5 C 205.7 36.5 206.4 36 207.4 34.9 C 208.4 33.8 209 32.7 209.3 31.5 C 209.6 30.4 209.8 29.7 210.1 29.3 C 210.3 29 210.6 28.8 211 28.8 C 211.7 28.8 212.1 29.2 212.1 30 C 212.1 30.1 212 30.3 211.9 30.6 C 211.5 31.8 211.3 33.1 211.3 34.5 C 211.3 36.2 211.6 37.2 212.2 37.5 C 212.4 37.7 212.5 37.8 212.5 38 C 212.5 38.2 212.3 38.4 212 38.6 C 211.6 38.8 211.3 38.9 211 38.9 C 210.5 38.9 210.1 38.6 209.8 37.8 C 209.5 37.1 209.4 36.1 209.4 34.9 Z M 217.1 33.7 C 217.1 33.7 217.29 33.34 217.3 33.3 C 218.1 31.8 218.9 30.5 219.8 29.5 C 220.7 28.5 221.6 28 222.5 28 C 223.2 28 223.7 28.2 224.1 28.6 C 224.5 28.9 224.8 29.4 224.8 29.9 C 224.8 30.2 224.7 30.4 224.5 30.7 C 224.4 30.9 224.2 31 223.9 31 C 223.5 31 223.2 30.8 222.8 30.5 C 222.6 30.3 222.4 30.2 222.3 30.2 C 221.8 30.2 221 30.9 219.8 32.5 C 218.7 34 218 35.7 217.8 37.6 C 217.7 38.1 217.5 38.5 217.3 38.7 C 217 38.9 216.7 39 216.3 39 C 215.8 39 215.5 38.8 215.3 38.3 C 215.1 37.8 215 36.9 215 35.8 C 215 35.3 215.1 34.7 215.1 33.8 C 215.1 33.1 215.2 32.2 215.3 31.1 C 215.3 30.8 215.4 30.5 215.4 30.4 C 215.4 29.7 215.5 29.3 215.6 29.1 C 215.6 28.8 215.8 28.6 216.1 28.4 C 216.4 28.2 216.7 28.1 217 28.1 C 217.4 28.1 217.6 28.2 217.8 28.4 C 218 28.6 218.1 28.8 218.1 29.1 C 218.1 29.4 217.9 30 217.6 31 C 217.5 31.3 217.4 31.7 217.4 32.1 C 217.37 32.15 217.1 33.7 217.1 33.7 Z M 234.1 33.5 C 233.6 35.1 232.8 36.4 231.6 37.4 C 230.4 38.4 229.1 39 227.9 39 C 227 39 226.2 38.6 225.5 37.9 C 224.9 37.2 224.6 36.3 224.6 35.3 C 224.6 33.6 225.2 32 226.3 30.3 C 227.5 28.7 228.9 27.9 230.5 27.9 C 231.6 27.9 232.5 28.3 233.2 29.1 C 233.9 30 234.2 30.9 234.2 32.1 C 234.2 32.6 234.2 33.1 234.1 33.5 C 234.1 33.5 234.1 33.5 234.1 33.5 Z M 229 30.5 C 228.5 30.9 228.1 31.5 227.6 32.4 C 227.2 33.3 227 34.2 227 35.1 C 227 35.6 227.1 36 227.3 36.4 C 227.5 36.7 227.8 36.9 228.1 36.9 C 228.9 36.9 229.7 36.4 230.6 35.5 C 231.5 34.5 231.9 33.5 231.9 32.3 C 231.9 31.6 231.8 31 231.5 30.6 C 231.2 30.2 230.8 30 230.3 30 C 229.8 30 229.4 30.1 229 30.5 C 229 30.5 229 30.5 229 30.5 Z " stroke="none" fill="#fff"/>  </g></svg>