<?xml version="1.0" standalone="no"?><!DOCTYPE svg PUBLIC "-//W3C//DTD SVG 1.1//EN" "http://www.w3.org/Graphics/SVG/1.1/DTD/svg11.dtd"><svg xmlns="http://www.w3.org/2000/svg" version="1.1" width="289.4px" height="39.6px" viewBox="0 -9 289.4 39.6" style="top:-9px">  <desc>toque e arraste</desc>  <defs/>  <g id="Polygon10749">    <path d="M 156.3 8.2 C 156.2 8.2 156.1 8.8 155.8 10.1 C 155.5 11.4 155.4 12.2 155.4 12.5 C 155.4 13 155.4 13.3 155.5 13.5 C 155.6 13.7 155.8 13.8 156 13.8 C 156.4 13.8 156.7 13.7 157 13.6 C 157.3 13.5 157.7 13.2 158.2 12.8 C 158.5 12.6 158.7 12.5 159 12.5 C 159.1 12.5 159.3 12.5 159.4 12.6 C 159.5 12.7 159.5 12.8 159.5 12.9 C 159.5 13.5 159.1 14 158.3 14.7 C 157.4 15.4 156.6 15.7 155.6 15.7 C 154.9 15.7 154.3 15.5 153.9 15 C 153.5 14.5 153.3 13.9 153.3 13 C 153.3 12.2 153.5 10.7 154.1 8.3 C 153.8 8.3 153.5 8.3 153.4 8.3 C 153.4 8.3 153.2 8.3 153.2 8.3 C 152.9 8.3 152.6 8.3 152.4 8.1 C 152.1 7.9 151.9 7.6 151.9 7.2 C 151.9 6.8 152.2 6.5 152.8 6.5 C 152.8 6.5 154.6 6.4 154.6 6.4 C 154.9 5.7 155.2 4.8 155.4 3.6 C 155.6 2.9 156 2.6 156.5 2.6 C 156.9 2.6 157.1 2.7 157.3 2.9 C 157.5 3.1 157.6 3.3 157.6 3.5 C 157.6 3.6 157.3 4.5 156.8 6.2 C 158.7 6.1 159.7 6 159.9 6 C 160.2 6 160.4 6 160.5 6.1 C 160.6 6.2 160.7 6.4 160.7 6.7 C 160.7 7.2 160.2 7.5 159.3 7.6 C 159.3 7.6 156.3 8.2 156.3 8.2 Z M 169.4 10.8 C 169 12.2 168.3 13.4 167.2 14.3 C 166.1 15.2 165 15.7 163.9 15.7 C 163 15.7 162.3 15.4 161.8 14.8 C 161.2 14.1 160.9 13.3 160.9 12.4 C 160.9 10.9 161.4 9.4 162.5 8 C 163.5 6.5 164.7 5.8 166.2 5.8 C 167.2 5.8 168 6.1 168.6 6.9 C 169.3 7.6 169.6 8.5 169.6 9.5 C 169.6 10 169.5 10.4 169.4 10.8 C 169.4 10.8 169.4 10.8 169.4 10.8 Z M 164.9 8.1 C 164.4 8.4 164 9 163.6 9.8 C 163.3 10.6 163.1 11.4 163.1 12.2 C 163.1 12.7 163.1 13.1 163.3 13.4 C 163.5 13.7 163.7 13.9 164 13.9 C 164.8 13.9 165.5 13.4 166.3 12.6 C 167.1 11.7 167.5 10.8 167.5 9.7 C 167.5 9.1 167.4 8.6 167.1 8.2 C 166.8 7.8 166.5 7.6 166 7.6 C 165.6 7.6 165.2 7.8 164.9 8.1 C 164.9 8.1 164.9 8.1 164.9 8.1 Z M 176.7 14.2 C 176.8 13.7 176.9 13.3 177 13 C 175.4 14.6 174.1 15.4 172.9 15.4 C 172.2 15.4 171.7 15.1 171.4 14.6 C 171 14.1 170.8 13.5 170.8 12.8 C 170.8 11.2 171.6 9.5 173 7.8 C 174.5 6.1 176 5.2 177.5 5.2 C 178.3 5.2 178.7 5.6 178.9 6.3 C 178.9 6.4 178.9 6.4 178.9 6.4 C 179.6 6.6 180 7 180 7.6 C 180 7.9 179.9 8.5 179.6 9.5 C 179.5 10.1 179.2 11.3 178.9 13 C 178.5 14.8 178.3 16 178.3 16.7 C 178.2 17.4 178.1 18.2 178.1 19.1 C 178.1 19.6 178.1 19.9 178 20.1 C 178 20.3 177.8 20.5 177.6 20.6 C 177.4 20.8 177.2 20.9 176.9 20.9 C 176.5 20.9 176.3 20.8 176.1 20.5 C 175.9 20.3 175.8 20 175.8 19.6 C 175.8 19.4 175.9 18.6 176.1 17.2 C 176.3 15.8 176.5 14.8 176.7 14.2 C 176.7 14.2 176.7 14.2 176.7 14.2 Z M 177.2 10.3 C 177.6 9.5 177.8 8.8 177.8 8.2 C 177.8 7.9 177.8 7.7 177.6 7.5 C 177.5 7.3 177.3 7.2 177.1 7.2 C 176.4 7.2 175.5 7.8 174.5 9.1 C 173.4 10.4 172.9 11.6 172.9 12.7 C 172.9 13.2 173 13.5 173.2 13.5 C 173.8 13.5 174.5 13.2 175.3 12.5 C 176.1 11.8 176.8 11.1 177.2 10.3 C 177.2 10.3 177.2 10.3 177.2 10.3 Z M 187.7 12.1 C 187.2 13.1 186.5 13.9 185.8 14.5 C 185 15.1 184.3 15.4 183.5 15.4 C 183.1 15.4 182.6 15.2 182.2 14.7 C 181.7 14.2 181.5 13.5 181.5 12.5 C 181.5 11.8 181.6 10.8 182 9.4 C 182.3 8.2 182.4 7.3 182.4 6.7 C 182.7 6.2 183 6 183.5 6 C 183.9 6 184.2 6.1 184.4 6.3 C 184.6 6.5 184.7 6.8 184.7 7 C 184.7 7.4 184.5 8 184.2 8.8 C 184.1 9.2 183.9 9.9 183.7 10.7 C 183.5 11.6 183.4 12.1 183.4 12.3 C 183.4 13.1 183.5 13.5 183.9 13.5 C 184.4 13.5 185.1 13 185.9 12 C 186.8 11 187.4 10 187.6 9 C 187.9 8 188.1 7.4 188.3 7 C 188.5 6.7 188.8 6.6 189.2 6.6 C 189.8 6.6 190.1 6.9 190.1 7.6 C 190.1 7.7 190.1 7.9 190 8.2 C 189.6 9.2 189.4 10.4 189.4 11.7 C 189.4 13.2 189.7 14.1 190.2 14.4 C 190.4 14.5 190.5 14.7 190.5 14.8 C 190.5 15 190.3 15.2 190 15.4 C 189.7 15.6 189.4 15.7 189.2 15.7 C 188.7 15.7 188.4 15.4 188.1 14.7 C 187.9 14.1 187.7 13.2 187.7 12.1 Z M 199.8 11.7 C 200.2 11.7 200.4 11.9 200.4 12.3 C 200.4 12.9 199.8 13.6 198.8 14.5 C 197.8 15.3 196.6 15.7 195.3 15.7 C 194.4 15.7 193.6 15.4 193 14.8 C 192.4 14.2 192.2 13.3 192.2 12.2 C 192.2 10.5 192.7 9 193.9 7.6 C 195.1 6.1 196.3 5.4 197.6 5.4 C 198.3 5.4 198.8 5.6 199.2 6 C 199.6 6.5 199.8 6.9 199.8 7.5 C 199.8 8.5 199.3 9.5 198.3 10.4 C 197.3 11.4 196.1 12 194.6 12.3 C 194.4 12.4 194.3 12.5 194.3 12.7 C 194.3 12.9 194.4 13.2 194.7 13.5 C 194.9 13.7 195.3 13.9 195.7 13.9 C 196.8 13.9 198 13.2 199.2 12 C 199.4 11.8 199.6 11.7 199.8 11.7 C 199.8 11.7 199.8 11.7 199.8 11.7 Z M 194.5 10.7 C 195.4 10.5 196.2 10.1 196.9 9.5 C 197.6 8.9 198 8.4 198 7.9 C 198 7.7 197.9 7.5 197.8 7.4 C 197.7 7.3 197.6 7.2 197.4 7.2 C 196.9 7.2 196.3 7.6 195.7 8.3 C 195.1 9.1 194.7 9.9 194.5 10.7 Z M 216.3 11.7 C 216.7 11.7 216.9 11.9 216.9 12.3 C 216.9 12.9 216.4 13.6 215.3 14.5 C 214.3 15.3 213.2 15.7 211.9 15.7 C 210.9 15.7 210.1 15.4 209.5 14.8 C 209 14.2 208.7 13.3 208.7 12.2 C 208.7 10.5 209.3 9 210.4 7.6 C 211.6 6.1 212.8 5.4 214.1 5.4 C 214.8 5.4 215.3 5.6 215.7 6 C 216.1 6.5 216.3 6.9 216.3 7.5 C 216.3 8.5 215.8 9.5 214.8 10.4 C 213.9 11.4 212.6 12 211.1 12.3 C 210.9 12.4 210.8 12.5 210.8 12.7 C 210.8 12.9 210.9 13.2 211.2 13.5 C 211.4 13.7 211.8 13.9 212.2 13.9 C 213.4 13.9 214.5 13.2 215.7 12 C 215.9 11.8 216.1 11.7 216.3 11.7 C 216.3 11.7 216.3 11.7 216.3 11.7 Z M 211 10.7 C 211.9 10.5 212.7 10.1 213.4 9.5 C 214.1 8.9 214.5 8.4 214.5 7.9 C 214.5 7.7 214.4 7.5 214.3 7.4 C 214.2 7.3 214.1 7.2 213.9 7.2 C 213.4 7.2 212.8 7.6 212.2 8.3 C 211.6 9.1 211.2 9.9 211 10.7 Z M 233 15.7 C 231.9 15.7 231.4 14.6 231.6 12.3 C 230 14.4 228.5 15.4 227.1 15.4 C 226.6 15.4 226.1 15.2 225.7 14.8 C 225.3 14.4 225.2 13.8 225.2 13.2 C 225.2 11.6 225.8 10 227.2 8.2 C 228.6 6.5 230 5.6 231.4 5.6 C 232.1 5.6 232.6 6 232.8 6.7 C 233.5 6.7 233.8 6.9 233.8 7.4 C 233.8 7.7 233.8 8.1 233.6 8.8 C 233.4 10 233.3 11 233.3 11.7 C 233.3 12.4 233.3 12.9 233.4 13.3 C 233.5 13.6 233.6 13.8 233.7 13.9 C 233.7 13.9 233.8 14 234.1 14.2 C 234.3 14.3 234.4 14.4 234.4 14.6 C 234.4 14.9 234.3 15.2 234 15.4 C 233.7 15.6 233.4 15.7 233 15.7 C 233 15.7 233 15.7 233 15.7 Z M 231 7.5 C 230.4 7.5 229.7 8.1 228.7 9.4 C 227.8 10.7 227.3 11.9 227.3 12.8 C 227.3 13.3 227.4 13.5 227.6 13.5 C 228.3 13.5 229.1 12.9 230.2 11.6 C 231.2 10.4 231.7 9.3 231.7 8.4 C 231.7 8.1 231.6 7.9 231.5 7.7 C 231.3 7.6 231.2 7.5 231 7.5 Z M 238.3 10.9 C 238.3 10.9 238.41 10.65 238.4 10.7 C 239.1 9.2 239.9 8.1 240.7 7.2 C 241.5 6.3 242.3 5.9 243.1 5.9 C 243.7 5.9 244.2 6 244.6 6.3 C 244.9 6.7 245.1 7.1 245.1 7.5 C 245.1 7.8 245.1 8 244.9 8.2 C 244.8 8.4 244.6 8.5 244.4 8.5 C 244 8.5 243.7 8.4 243.4 8.1 C 243.2 7.9 243 7.8 242.9 7.8 C 242.5 7.8 241.7 8.5 240.7 9.9 C 239.7 11.2 239 12.8 238.8 14.5 C 238.8 15 238.6 15.3 238.4 15.5 C 238.2 15.7 237.9 15.8 237.5 15.8 C 237.1 15.8 236.8 15.6 236.6 15.1 C 236.5 14.6 236.4 13.9 236.4 12.8 C 236.4 12.4 236.4 11.8 236.4 11.1 C 236.4 10.4 236.5 9.6 236.6 8.6 C 236.6 8.3 236.7 8.1 236.7 8 C 236.7 7.4 236.8 7 236.9 6.8 C 236.9 6.6 237.1 6.4 237.3 6.2 C 237.6 6 237.8 5.9 238.1 5.9 C 238.5 5.9 238.7 6 238.9 6.2 C 239 6.4 239.1 6.6 239.1 6.8 C 239.1 7.1 239 7.6 238.7 8.5 C 238.6 8.8 238.5 9.2 238.5 9.6 C 238.48 9.58 238.3 10.9 238.3 10.9 Z M 247.6 10.9 C 247.6 10.9 247.72 10.65 247.7 10.7 C 248.4 9.2 249.2 8.1 250 7.2 C 250.8 6.3 251.6 5.9 252.4 5.9 C 253 5.9 253.5 6 253.9 6.3 C 254.2 6.7 254.4 7.1 254.4 7.5 C 254.4 7.8 254.4 8 254.2 8.2 C 254.1 8.4 253.9 8.5 253.7 8.5 C 253.3 8.5 253 8.4 252.7 8.1 C 252.5 7.9 252.3 7.8 252.2 7.8 C 251.8 7.8 251 8.5 250 9.9 C 249 11.2 248.3 12.8 248.1 14.5 C 248.1 15 247.9 15.3 247.7 15.5 C 247.5 15.7 247.2 15.8 246.8 15.8 C 246.4 15.8 246.1 15.6 245.9 15.1 C 245.8 14.6 245.7 13.9 245.7 12.8 C 245.7 12.4 245.7 11.8 245.7 11.1 C 245.7 10.4 245.8 9.6 245.9 8.6 C 246 8.3 246 8.1 246 8 C 246 7.4 246.1 7 246.2 6.8 C 246.2 6.6 246.4 6.4 246.6 6.2 C 246.9 6 247.2 5.9 247.5 5.9 C 247.8 5.9 248 6 248.2 6.2 C 248.3 6.4 248.4 6.6 248.4 6.8 C 248.4 7.1 248.3 7.6 248 8.5 C 247.9 8.8 247.9 9.2 247.8 9.6 C 247.79 9.58 247.6 10.9 247.6 10.9 Z M 262 15.7 C 260.9 15.7 260.4 14.6 260.5 12.3 C 259 14.4 257.5 15.4 256.1 15.4 C 255.5 15.4 255.1 15.2 254.7 14.8 C 254.3 14.4 254.1 13.8 254.1 13.2 C 254.1 11.6 254.8 10 256.2 8.2 C 257.6 6.5 259 5.6 260.4 5.6 C 261.1 5.6 261.6 6 261.8 6.7 C 262.5 6.7 262.8 6.9 262.8 7.4 C 262.8 7.7 262.7 8.1 262.6 8.8 C 262.4 10 262.3 11 262.3 11.7 C 262.3 12.4 262.3 12.9 262.4 13.3 C 262.5 13.6 262.6 13.8 262.6 13.9 C 262.7 13.9 262.8 14 263.1 14.2 C 263.3 14.3 263.4 14.4 263.4 14.6 C 263.4 14.9 263.3 15.2 263 15.4 C 262.7 15.6 262.3 15.7 262 15.7 C 262 15.7 262 15.7 262 15.7 Z M 260 7.5 C 259.4 7.5 258.6 8.1 257.7 9.4 C 256.7 10.7 256.3 11.9 256.3 12.8 C 256.3 13.3 256.4 13.5 256.6 13.5 C 257.3 13.5 258.1 12.9 259.1 11.6 C 260.1 10.4 260.6 9.3 260.6 8.4 C 260.6 8.1 260.6 7.9 260.4 7.7 C 260.3 7.6 260.2 7.5 260 7.5 Z M 269.2 13.1 C 269.1 12.7 268.6 12.4 267.7 11.9 C 266.5 11.3 265.7 10.8 265.3 10.4 C 265 10 264.8 9.5 264.8 9 C 264.8 8 265.4 7.1 266.6 6.3 C 267.8 5.5 268.8 5.2 269.8 5.2 C 270.8 5.2 271.3 5.6 271.3 6.4 C 271.3 6.7 271.2 6.9 271 7.1 C 270.8 7.2 270.6 7.3 270.4 7.3 C 270.4 7.3 270.2 7.3 270.1 7.2 C 269.9 7.1 269.8 7.1 269.7 7.1 C 269.2 7.1 268.6 7.3 268 7.6 C 267.3 8 267 8.4 267 8.8 C 267 9.1 267.1 9.3 267.4 9.5 C 267.6 9.7 268 10 268.7 10.3 C 269.7 10.8 270.4 11.2 270.7 11.6 C 271.1 12 271.2 12.4 271.2 12.9 C 271.2 13.7 270.6 14.5 269.5 15 C 268.3 15.6 267 15.9 265.6 15.9 C 264.5 15.9 264 15.5 264 14.7 C 264 14.5 264.1 14.2 264.3 14 C 264.6 13.8 264.8 13.7 265.1 13.7 C 265.2 13.7 265.4 13.8 265.6 13.8 C 265.8 13.9 266 14 266.2 14 C 266.8 14 267.4 13.9 268 13.7 C 268.6 13.5 269 13.3 269.2 13.1 Z M 276.2 8.2 C 276.2 8.2 276 8.8 275.7 10.1 C 275.4 11.4 275.3 12.2 275.3 12.5 C 275.3 13 275.4 13.3 275.5 13.5 C 275.6 13.7 275.7 13.8 276 13.8 C 276.3 13.8 276.6 13.7 276.9 13.6 C 277.2 13.5 277.6 13.2 278.1 12.8 C 278.4 12.6 278.7 12.5 278.9 12.5 C 279 12.5 279.2 12.5 279.3 12.6 C 279.4 12.7 279.4 12.8 279.4 12.9 C 279.4 13.5 279 14 278.2 14.7 C 277.4 15.4 276.5 15.7 275.6 15.7 C 274.8 15.7 274.2 15.5 273.8 15 C 273.4 14.5 273.2 13.9 273.2 13 C 273.2 12.2 273.5 10.7 274.1 8.3 C 273.7 8.3 273.4 8.3 273.3 8.3 C 273.3 8.3 273.1 8.3 273.1 8.3 C 272.8 8.3 272.5 8.3 272.3 8.1 C 272 7.9 271.9 7.6 271.9 7.2 C 271.9 6.8 272.1 6.5 272.7 6.5 C 272.7 6.5 274.6 6.4 274.6 6.4 C 274.8 5.7 275.1 4.8 275.3 3.6 C 275.5 2.9 275.9 2.6 276.5 2.6 C 276.8 2.6 277 2.7 277.2 2.9 C 277.4 3.1 277.5 3.3 277.5 3.5 C 277.5 3.6 277.2 4.5 276.7 6.2 C 278.6 6.1 279.6 6 279.8 6 C 280.1 6 280.3 6 280.4 6.1 C 280.5 6.2 280.6 6.4 280.6 6.7 C 280.6 7.2 280.1 7.5 279.3 7.6 C 279.3 7.6 276.2 8.2 276.2 8.2 Z M 288.4 11.7 C 288.7 11.7 288.9 11.9 288.9 12.3 C 288.9 12.9 288.4 13.6 287.4 14.5 C 286.3 15.3 285.2 15.7 283.9 15.7 C 282.9 15.7 282.1 15.4 281.6 14.8 C 281 14.2 280.7 13.3 280.7 12.2 C 280.7 10.5 281.3 9 282.4 7.6 C 283.6 6.1 284.8 5.4 286.2 5.4 C 286.8 5.4 287.3 5.6 287.7 6 C 288.1 6.5 288.3 6.9 288.3 7.5 C 288.3 8.5 287.8 9.5 286.9 10.4 C 285.9 11.4 284.6 12 283.1 12.3 C 282.9 12.4 282.8 12.5 282.8 12.7 C 282.8 12.9 283 13.2 283.2 13.5 C 283.5 13.7 283.8 13.9 284.2 13.9 C 285.4 13.9 286.6 13.2 287.7 12 C 287.9 11.8 288.2 11.7 288.4 11.7 C 288.4 11.7 288.4 11.7 288.4 11.7 Z M 283 10.7 C 283.9 10.5 284.7 10.1 285.5 9.5 C 286.2 8.9 286.5 8.4 286.5 7.9 C 286.5 7.7 286.5 7.5 286.3 7.4 C 286.2 7.3 286.1 7.2 285.9 7.2 C 285.4 7.2 284.9 7.6 284.2 8.3 C 283.6 9.1 283.2 9.9 283 10.7 Z " stroke="none" fill="#fff200"/>  </g></svg>