<?xml version="1.0" standalone="no"?><!DOCTYPE svg PUBLIC "-//W3C//DTD SVG 1.1//EN" "http://www.w3.org/Graphics/SVG/1.1/DTD/svg11.dtd"><svg xmlns="http://www.w3.org/2000/svg" version="1.1" width="235px" height="70.2px" viewBox="0 -1 235 70.2" style="top:-1px">  <desc>Voto Distrital</desc>  <defs/>  <g id="Polygon11511">    <path d="M 78 23.5 C 78 23.5 78 23.5 78 23.6 C 78 23.6 77.7 24.2 77 25.1 C 76 26.5 75.2 27.6 74.7 28.6 C 74.1 29.5 73 31.3 71.4 34 C 70.4 35.6 69.8 36.7 69.5 37.1 C 68.7 38.3 68.2 39.2 68.1 39.8 C 67.9 40.2 67.6 40.6 67.2 40.8 C 66.7 41.1 66.2 41.2 65.5 41.2 C 65.2 41.2 65 41 64.7 40.6 C 64.5 40.2 64.1 39.3 63.7 38.2 C 63.2 36.7 62.4 34.8 61.5 32.5 C 59.5 27.5 58.5 25 58.5 24.8 C 58.5 24.5 58.7 24.1 59 23.6 C 59.3 23.1 59.7 22.8 60.2 22.8 C 60.6 22.8 61 23 61.4 23.3 C 61.7 23.6 62 24.4 62.3 25.8 C 62.4 26.8 63.1 28.6 64.1 31.2 C 65.1 33.9 65.9 35.8 66.5 37.1 C 66.6 36.9 66.9 36.4 67.4 35.6 C 67.5 35.4 67.5 35.3 67.6 35.2 C 68.7 33.3 69.7 31.6 70.5 30.1 C 71.9 27.4 73.2 25.3 74.1 24 C 75.1 22.6 75.9 22 76.6 22 C 77.5 22 78 22.4 78 23.4 C 77.99 23.37 78 23.5 78 23.5 C 78 23.5 77.99 23.47 78 23.5 Z M 88.6 34.6 C 88.1 36.6 87 38.3 85.4 39.7 C 83.8 41.1 82.2 41.7 80.6 41.7 C 79.3 41.7 78.3 41.3 77.5 40.4 C 76.6 39.4 76.2 38.3 76.2 36.9 C 76.2 34.7 77 32.6 78.5 30.4 C 80 28.3 81.8 27.2 83.9 27.2 C 85.4 27.2 86.6 27.8 87.5 28.9 C 88.4 29.9 88.8 31.2 88.8 32.7 C 88.8 33.4 88.8 34 88.6 34.6 C 88.6 34.6 88.6 34.6 88.6 34.6 Z M 82 30.6 C 81.4 31.1 80.8 32 80.2 33.1 C 79.7 34.3 79.4 35.5 79.4 36.6 C 79.4 37.3 79.5 37.9 79.8 38.4 C 80 38.8 80.4 39.1 80.8 39.1 C 81.8 39.1 82.9 38.4 84.1 37.2 C 85.2 35.9 85.8 34.5 85.8 33 C 85.8 32.1 85.6 31.4 85.2 30.8 C 84.9 30.2 84.4 29.9 83.7 29.9 C 83.1 29.9 82.5 30.2 82 30.6 C 82 30.6 82 30.6 82 30.6 Z M 96.5 30.7 C 96.4 30.7 96.2 31.7 95.8 33.6 C 95.4 35.5 95.2 36.6 95.2 37 C 95.2 37.7 95.3 38.2 95.4 38.5 C 95.6 38.8 95.8 38.9 96.2 38.9 C 96.6 38.9 97.1 38.8 97.5 38.7 C 98 38.5 98.5 38.1 99.3 37.6 C 99.7 37.2 100.1 37 100.4 37 C 100.6 37 100.8 37.1 101 37.2 C 101.1 37.4 101.2 37.5 101.2 37.7 C 101.2 38.5 100.6 39.3 99.4 40.3 C 98.2 41.2 96.9 41.7 95.6 41.7 C 94.4 41.7 93.6 41.4 93 40.7 C 92.4 40 92.1 39.1 92.1 37.8 C 92.1 36.7 92.5 34.4 93.4 30.9 C 92.8 31 92.5 31 92.2 31 C 92.2 31 92 31 92 31 C 91.6 31 91.2 30.9 90.8 30.6 C 90.4 30.4 90.2 30 90.2 29.4 C 90.2 28.7 90.6 28.3 91.4 28.3 C 91.4 28.3 94.1 28.2 94.1 28.2 C 94.5 27.2 94.9 25.9 95.3 24.2 C 95.5 23.1 96 22.6 96.9 22.6 C 97.4 22.6 97.7 22.8 98 23 C 98.2 23.3 98.4 23.6 98.4 24 C 98.4 24.1 98 25.5 97.3 28 C 100 27.7 101.5 27.6 101.8 27.6 C 102.2 27.6 102.5 27.7 102.7 27.8 C 102.8 27.9 102.9 28.2 102.9 28.6 C 102.9 29.3 102.2 29.8 100.9 30 C 100.9 30 96.5 30.7 96.5 30.7 Z M 115.6 34.6 C 115.1 36.6 114 38.3 112.4 39.7 C 110.8 41.1 109.2 41.7 107.6 41.7 C 106.3 41.7 105.3 41.3 104.5 40.4 C 103.6 39.4 103.2 38.3 103.2 36.9 C 103.2 34.7 104 32.6 105.5 30.4 C 107 28.3 108.8 27.2 110.9 27.2 C 112.4 27.2 113.6 27.8 114.5 28.9 C 115.4 29.9 115.8 31.2 115.8 32.7 C 115.8 33.4 115.8 34 115.6 34.6 C 115.6 34.6 115.6 34.6 115.6 34.6 Z M 109 30.6 C 108.4 31.1 107.8 32 107.2 33.1 C 106.6 34.3 106.4 35.5 106.4 36.6 C 106.4 37.3 106.5 37.9 106.8 38.4 C 107 38.8 107.4 39.1 107.8 39.1 C 108.8 39.1 109.9 38.4 111.1 37.2 C 112.2 35.9 112.8 34.5 112.8 33 C 112.8 32.1 112.6 31.4 112.2 30.8 C 111.9 30.2 111.4 29.9 110.7 29.9 C 110.1 29.9 109.5 30.2 109 30.6 C 109 30.6 109 30.6 109 30.6 Z M 129.8 39.1 C 129.9 38.7 130 37.9 130 36.8 C 130.2 33.9 130.6 30.7 131.1 27.5 C 131.2 26.8 131.3 26.3 131.3 25.9 C 131.3 25.8 131.2 25.7 131.1 25.7 C 130.2 25.4 129.8 25 129.8 24.5 C 129.8 24.1 129.9 23.7 130.3 23.3 C 130.7 23 131.1 22.8 131.5 22.8 C 131.5 22.8 133.2 22.8 133.2 22.8 C 134 22.8 135.1 22.8 136.5 22.7 C 137.6 22.6 138.6 22.5 139.3 22.5 C 141.7 22.5 143.6 23.2 145.1 24.5 C 146.6 25.8 147.3 27.6 147.3 29.8 C 147.3 32.3 146.2 34.5 143.9 36.5 C 141.6 38.5 138.9 39.8 135.7 40.5 C 134.8 40.7 134.2 40.9 133.8 41 C 133.5 41.2 133.1 41.4 132.6 41.7 C 132 42.1 131.5 42.3 130.9 42.3 C 130.5 42.3 130.1 42.1 129.7 41.6 C 129.4 41.2 129.2 40.9 129.2 40.6 C 129.2 40.4 129.3 40.2 129.5 39.8 C 129.5 39.8 129.8 39.1 129.8 39.1 Z M 133.1 37.5 C 133.1 37.9 133.1 38.3 133.1 38.4 C 133.6 38.4 134.9 38.1 137 37.4 C 139.1 36.8 140.9 35.8 142.2 34.4 C 143.5 33 144.2 31.5 144.2 29.7 C 144.2 28.3 143.7 27.2 142.7 26.3 C 141.7 25.5 140.5 25.1 138.9 25.1 C 137.8 25.1 136.5 25.2 134.9 25.4 C 134.7 25.4 134.6 25.4 134.4 25.4 C 133.5 31.1 133.1 35.2 133.1 37.5 C 133.1 37.5 133.1 37.5 133.1 37.5 Z M 156.6 22.1 C 156.6 22.7 156.4 23.3 155.8 23.7 C 155.3 24.2 154.8 24.4 154.4 24.4 C 153.9 24.4 153.4 24.2 153 23.8 C 152.6 23.3 152.4 22.9 152.4 22.5 C 152.4 21.9 152.6 21.4 153 21 C 153.4 20.6 154 20.4 154.7 20.4 C 155.3 20.4 155.7 20.6 156.1 20.9 C 156.5 21.3 156.6 21.7 156.6 22.1 Z M 150.2 33.9 C 150.3 33.5 150.4 33 150.5 32.6 C 150.5 32.6 150.5 32.6 150.5 32.6 C 150.7 31.1 150.9 30.2 150.9 30 C 150.9 29.4 151 28.8 151.3 28.4 C 151.6 28 151.9 27.8 152.4 27.8 C 153 27.8 153.5 27.9 153.8 28.2 C 154.1 28.4 154.3 28.8 154.3 29.1 C 154.3 29.4 154.1 30.1 153.8 31.2 C 153.8 31.2 153.7 31.5 153.7 31.5 C 153.3 33.1 153 34.5 152.9 35.5 C 152.8 36.6 152.7 37.4 152.7 38 C 152.7 38.6 152.8 39.3 153 40.1 C 153 40.3 153.1 40.4 153.1 40.5 C 153.1 40.7 152.9 41 152.5 41.3 C 152.1 41.6 151.7 41.8 151.3 41.8 C 150.2 41.8 149.6 40.9 149.6 39.2 C 149.6 37.8 149.8 36 150.2 33.9 C 150.2 33.9 150.2 33.9 150.2 33.9 Z M 163.1 37.9 C 163.1 37.4 162.3 36.9 160.9 36.2 C 159.1 35.3 158 34.6 157.5 34 C 157 33.4 156.8 32.7 156.8 32 C 156.8 30.5 157.6 29.2 159.3 28.1 C 161 26.9 162.6 26.4 164.1 26.4 C 165.5 26.4 166.2 27 166.2 28.2 C 166.2 28.6 166.1 28.9 165.7 29.1 C 165.4 29.4 165.1 29.5 164.9 29.5 C 164.8 29.5 164.7 29.5 164.4 29.4 C 164.2 29.2 164 29.2 163.9 29.2 C 163.1 29.2 162.3 29.4 161.4 29.9 C 160.4 30.5 160 31.1 160 31.7 C 160 32.1 160.1 32.4 160.5 32.7 C 160.8 33 161.5 33.4 162.5 33.9 C 163.9 34.6 164.9 35.2 165.4 35.8 C 165.8 36.3 166.1 37 166.1 37.6 C 166.1 38.9 165.2 39.9 163.5 40.8 C 161.9 41.6 160 42 157.9 42 C 156.3 42 155.6 41.4 155.6 40.3 C 155.6 39.9 155.7 39.6 156 39.3 C 156.4 39 156.7 38.8 157.1 38.8 C 157.3 38.8 157.5 38.9 157.9 39 C 158.2 39.1 158.5 39.2 158.8 39.2 C 159.6 39.2 160.5 39.1 161.4 38.8 C 162.2 38.6 162.8 38.3 163.1 37.9 Z M 173.4 30.7 C 173.3 30.7 173 31.7 172.6 33.6 C 172.2 35.5 172 36.6 172 37 C 172 37.7 172.1 38.2 172.2 38.5 C 172.4 38.8 172.6 38.9 173 38.9 C 173.5 38.9 173.9 38.8 174.4 38.7 C 174.8 38.5 175.4 38.1 176.1 37.6 C 176.5 37.2 176.9 37 177.2 37 C 177.5 37 177.7 37.1 177.8 37.2 C 178 37.4 178 37.5 178 37.7 C 178 38.5 177.4 39.3 176.2 40.3 C 175 41.2 173.7 41.7 172.4 41.7 C 171.3 41.7 170.4 41.4 169.8 40.7 C 169.2 40 168.9 39.1 168.9 37.8 C 168.9 36.7 169.3 34.4 170.2 30.9 C 169.7 31 169.3 31 169.1 31 C 169.1 31 168.8 31 168.8 31 C 168.4 31 168 30.9 167.6 30.6 C 167.2 30.4 167 30 167 29.4 C 167 28.7 167.4 28.3 168.2 28.3 C 168.2 28.3 171 28.2 171 28.2 C 171.3 27.2 171.7 25.9 172.1 24.2 C 172.3 23.1 172.9 22.6 173.7 22.6 C 174.2 22.6 174.5 22.8 174.8 23 C 175.1 23.3 175.2 23.6 175.2 24 C 175.2 24.1 174.8 25.5 174.1 28 C 176.8 27.7 178.3 27.6 178.6 27.6 C 179 27.6 179.3 27.7 179.5 27.8 C 179.6 27.9 179.7 28.2 179.7 28.6 C 179.7 29.3 179.1 29.8 177.8 30 C 177.8 30 173.4 30.7 173.4 30.7 Z M 183.6 34.8 C 183.6 34.8 183.78 34.38 183.8 34.4 C 184.8 32.3 185.9 30.6 187.1 29.3 C 188.3 28 189.5 27.4 190.6 27.4 C 191.5 27.4 192.2 27.6 192.7 28.1 C 193.3 28.6 193.6 29.2 193.6 29.8 C 193.6 30.2 193.5 30.6 193.3 30.9 C 193.1 31.2 192.8 31.3 192.5 31.3 C 192 31.3 191.5 31.1 191.1 30.7 C 190.7 30.4 190.5 30.2 190.3 30.2 C 189.7 30.2 188.6 31.2 187.1 33.2 C 185.6 35.2 184.7 37.4 184.4 39.9 C 184.3 40.6 184.1 41.1 183.8 41.4 C 183.4 41.7 183 41.8 182.5 41.8 C 181.9 41.8 181.4 41.5 181.2 40.8 C 181 40.2 180.8 39.1 180.8 37.6 C 180.8 36.9 180.8 36.1 180.9 35 C 180.9 34 181 32.8 181.2 31.4 C 181.2 31 181.2 30.7 181.3 30.5 C 181.3 29.7 181.4 29.1 181.5 28.8 C 181.6 28.5 181.9 28.2 182.2 27.9 C 182.6 27.6 183 27.5 183.4 27.5 C 183.9 27.5 184.2 27.6 184.4 27.9 C 184.7 28.2 184.8 28.4 184.8 28.8 C 184.8 29.2 184.6 30 184.2 31.3 C 184.1 31.7 184 32.2 183.9 32.8 C 183.89 32.81 183.6 34.8 183.6 34.8 Z M 201 22.1 C 201 22.7 200.7 23.3 200.2 23.7 C 199.6 24.2 199.2 24.4 198.8 24.4 C 198.3 24.4 197.8 24.2 197.4 23.8 C 197 23.3 196.8 22.9 196.8 22.5 C 196.8 21.9 197 21.4 197.4 21 C 197.8 20.6 198.4 20.4 199.1 20.4 C 199.7 20.4 200.1 20.6 200.5 20.9 C 200.8 21.3 201 21.7 201 22.1 Z M 194.6 33.9 C 194.7 33.5 194.8 33 194.8 32.6 C 194.8 32.6 194.8 32.6 194.8 32.6 C 195.1 31.1 195.2 30.2 195.2 30 C 195.2 29.4 195.4 28.8 195.7 28.4 C 195.9 28 196.3 27.8 196.8 27.8 C 197.4 27.8 197.8 27.9 198.2 28.2 C 198.5 28.4 198.7 28.8 198.7 29.1 C 198.7 29.4 198.5 30.1 198.2 31.2 C 198.2 31.2 198.1 31.5 198.1 31.5 C 197.6 33.1 197.3 34.5 197.3 35.5 C 197.2 36.6 197.1 37.4 197.1 38 C 197.1 38.6 197.2 39.3 197.4 40.1 C 197.4 40.3 197.4 40.4 197.4 40.5 C 197.4 40.7 197.2 41 196.9 41.3 C 196.5 41.6 196.1 41.8 195.7 41.8 C 194.5 41.8 194 40.9 194 39.2 C 194 37.8 194.2 36 194.6 33.9 C 194.6 33.9 194.6 33.9 194.6 33.9 Z M 206.7 30.7 C 206.6 30.7 206.3 31.7 205.9 33.6 C 205.5 35.5 205.3 36.6 205.3 37 C 205.3 37.7 205.4 38.2 205.6 38.5 C 205.7 38.8 205.9 38.9 206.3 38.9 C 206.8 38.9 207.2 38.8 207.7 38.7 C 208.1 38.5 208.7 38.1 209.4 37.6 C 209.8 37.2 210.2 37 210.5 37 C 210.8 37 211 37.1 211.1 37.2 C 211.3 37.4 211.3 37.5 211.3 37.7 C 211.3 38.5 210.7 39.3 209.5 40.3 C 208.3 41.2 207 41.7 205.7 41.7 C 204.6 41.7 203.7 41.4 203.1 40.7 C 202.5 40 202.2 39.1 202.2 37.8 C 202.2 36.7 202.7 34.4 203.5 30.9 C 203 31 202.6 31 202.4 31 C 202.4 31 202.1 31 202.1 31 C 201.7 31 201.3 30.9 200.9 30.6 C 200.5 30.4 200.3 30 200.3 29.4 C 200.3 28.7 200.7 28.3 201.5 28.3 C 201.5 28.3 204.3 28.2 204.3 28.2 C 204.6 27.2 205 25.9 205.4 24.2 C 205.6 23.1 206.2 22.6 207 22.6 C 207.5 22.6 207.9 22.8 208.1 23 C 208.4 23.3 208.5 23.6 208.5 24 C 208.5 24.1 208.2 25.5 207.4 28 C 210.1 27.7 211.6 27.6 211.9 27.6 C 212.3 27.6 212.6 27.7 212.8 27.8 C 212.9 27.9 213 28.2 213 28.6 C 213 29.3 212.4 29.8 211.1 30 C 211.1 30 206.7 30.7 206.7 30.7 Z M 224.6 41.7 C 223 41.7 222.3 40.1 222.4 36.8 C 220.2 39.8 218 41.3 215.9 41.3 C 215.2 41.3 214.5 41 214 40.4 C 213.4 39.8 213.1 39 213.1 38.1 C 213.1 35.8 214.1 33.4 216.1 30.8 C 218.2 28.3 220.2 27 222.2 27 C 223.3 27 224 27.5 224.3 28.6 C 225.3 28.6 225.7 29 225.7 29.7 C 225.7 30.1 225.7 30.7 225.5 31.7 C 225.1 33.4 225 34.8 225 35.9 C 225 37 225 37.7 225.2 38.2 C 225.3 38.6 225.4 38.9 225.5 39 C 225.6 39.2 225.8 39.3 226.1 39.5 C 226.5 39.6 226.6 39.9 226.6 40.1 C 226.6 40.6 226.4 40.9 226 41.2 C 225.5 41.5 225.1 41.7 224.6 41.7 C 224.6 41.7 224.6 41.7 224.6 41.7 Z M 221.7 29.7 C 220.8 29.7 219.7 30.7 218.3 32.6 C 216.9 34.5 216.2 36.1 216.2 37.5 C 216.2 38.2 216.4 38.5 216.7 38.5 C 217.7 38.5 218.9 37.6 220.4 35.8 C 221.9 34 222.6 32.5 222.6 31.1 C 222.6 30.7 222.5 30.4 222.3 30.1 C 222.1 29.9 221.9 29.7 221.7 29.7 Z M 233.7 19.5 C 234.6 19.5 235.1 20 235.1 21 C 235.1 21.4 235 21.9 234.9 22.5 C 234.7 23 234.4 24.3 233.8 26.4 C 233.4 28 233.1 29.6 232.9 31.4 C 232.7 33.2 232.5 34.6 232.5 35.7 C 232.5 36.7 232.6 38 232.8 39.5 C 232.8 39.9 232.9 40.2 232.9 40.3 C 232.9 40.8 232.7 41.2 232.3 41.6 C 231.9 42 231.5 42.1 231.1 42.1 C 230.5 42.1 230 41.9 229.8 41.3 C 229.5 40.7 229.4 39.7 229.4 38.3 C 229.4 35.3 229.8 31.8 230.5 27.8 C 231.2 23.7 231.7 21.3 232.2 20.6 C 232.6 19.8 233.1 19.5 233.7 19.5 Z " stroke="none" fill="#fff"/>  </g></svg>