<?xml version="1.0" standalone="no"?><!DOCTYPE svg PUBLIC "-//W3C//DTD SVG 1.1//EN" "http://www.w3.org/Graphics/SVG/1.1/DTD/svg11.dtd"><svg xmlns="http://www.w3.org/2000/svg" version="1.1" width="235px" height="70.2px" viewBox="0 -1 235 70.2" style="top:-1px">  <desc>Voto Distrital</desc>  <defs/>  <g id="Polygon10682">    <path d="M 59.6 28.8 C 58.5 26.1 58 24.7 58 24.7 C 58.1 24.2 58.2 23.8 58.5 23.4 C 58.7 23.1 59 22.9 59.4 22.9 C 60.1 22.9 60.6 23.7 60.8 25.4 C 61.1 27.1 62.7 31.3 65.7 38.1 C 66 37.6 66.4 37 66.8 36.4 C 68.5 33.8 69.7 31.7 70.4 30.3 C 73.4 24.8 75.3 22 76.3 22 C 76.9 22 77.2 22.4 77.2 23.1 C 77.2 23.2 77.2 23.4 77.1 23.4 C 77.1 23.5 76.8 24 76.3 24.7 C 74.6 27.1 73 29.6 71.5 32.2 C 70.3 34.3 69.3 35.9 68.5 37.2 C 67.6 38.5 67.1 39.5 66.9 40.2 C 66.8 40.5 66.6 40.8 66.2 41 C 65.8 41.2 65.3 41.3 64.8 41.3 C 64.5 41.3 64 40.2 63.2 38 C 62.8 37.1 61.7 34 59.6 28.8 C 59.6 28.8 59.6 28.8 59.6 28.8 Z M 79.9 41.9 C 78.7 41.9 77.8 41.4 77 40.5 C 76.3 39.6 75.9 38.5 75.9 37.2 C 75.9 35 76.6 32.9 78.1 30.7 C 79.6 28.6 81.4 27.5 83.4 27.5 C 84.8 27.5 85.9 28 86.7 29.1 C 87.6 30.1 88 31.4 88 32.8 C 88 35.1 87.1 37.1 85.4 39 C 83.6 40.9 81.8 41.9 79.9 41.9 Z M 78.1 36.9 C 78.1 37.8 78.3 38.5 78.7 39 C 79 39.6 79.5 39.8 80.1 39.8 C 81.4 39.8 82.7 39.1 83.9 37.7 C 85.2 36.3 85.9 34.8 85.9 33.1 C 85.9 32 85.6 31.2 85.1 30.5 C 84.6 29.9 84 29.6 83.2 29.6 C 81.8 29.6 80.6 30.4 79.6 32.1 C 78.6 33.8 78.1 35.4 78.1 36.9 Z M 96.2 28.3 C 97.1 28.2 97.9 28.2 98.7 28.1 C 99.5 28 100.1 27.9 100.6 27.9 C 101.3 27.9 101.7 28 101.8 28.1 C 102 28.2 102.1 28.4 102.1 28.7 C 102.1 29.4 101.6 29.8 100.6 29.9 C 99.4 29.9 98.3 30 97.2 30.2 C 96.2 30.3 95.6 30.4 95.5 30.5 C 95.5 30.6 95.2 31.6 94.8 33.6 C 94.3 35.5 94.1 36.8 94.1 37.4 C 94.1 38.3 94.2 38.9 94.5 39.2 C 94.7 39.5 95.1 39.7 95.6 39.7 C 96.3 39.7 97.4 39.1 98.7 38 C 99.2 37.6 99.6 37.4 99.8 37.4 C 100.2 37.4 100.4 37.6 100.4 38 C 100.4 38.6 99.8 39.4 98.6 40.3 C 97.4 41.3 96.2 41.8 95 41.8 C 92.9 41.8 91.9 40.6 91.9 38.2 C 91.9 37.3 92.1 35.9 92.5 34.1 C 92.9 32.2 93.1 31.1 93.1 30.8 C 93.1 30.6 93 30.6 92.8 30.6 C 92.8 30.6 91.5 30.7 91.5 30.7 C 90.4 30.7 89.9 30.3 89.9 29.4 C 89.9 28.9 90.1 28.7 90.6 28.7 C 90.6 28.7 93.3 28.7 93.3 28.7 C 93.4 28.7 93.6 28.6 93.7 28.4 C 93.9 28.2 94.1 27.7 94.3 26.8 C 94.6 25.9 94.8 24.9 95 24 C 95.2 23.1 95.6 22.7 96.2 22.7 C 96.6 22.7 96.9 22.8 97.1 23.1 C 97.3 23.3 97.4 23.6 97.4 23.8 C 97.4 23.9 97.3 24.5 96.9 25.6 C 96.9 25.6 96.2 28.3 96.2 28.3 Z M 107 41.9 C 105.8 41.9 104.9 41.4 104.1 40.5 C 103.4 39.6 103 38.5 103 37.2 C 103 35 103.7 32.9 105.2 30.7 C 106.7 28.6 108.5 27.5 110.5 27.5 C 111.9 27.5 113 28 113.8 29.1 C 114.7 30.1 115.1 31.4 115.1 32.8 C 115.1 35.1 114.2 37.1 112.5 39 C 110.7 40.9 108.9 41.9 107 41.9 Z M 105.2 36.9 C 105.2 37.8 105.4 38.5 105.8 39 C 106.1 39.6 106.6 39.8 107.2 39.8 C 108.5 39.8 109.8 39.1 111 37.7 C 112.3 36.3 113 34.8 113 33.1 C 113 32 112.7 31.2 112.2 30.5 C 111.7 29.9 111.1 29.6 110.3 29.6 C 108.9 29.6 107.7 30.4 106.7 32.1 C 105.7 33.8 105.2 35.4 105.2 36.9 Z M 130.9 27.5 C 131 26.6 131.1 26.1 131.1 25.8 C 131.1 25.4 130.9 25.2 130.5 25.1 C 129.8 24.9 129.5 24.7 129.5 24.2 C 129.5 23.9 129.6 23.6 129.9 23.3 C 130.2 23 130.5 22.9 130.8 22.9 C 130.8 22.9 132.6 22.9 132.6 22.9 C 133.4 22.9 134.5 22.9 135.9 22.7 C 137.2 22.6 138.2 22.6 138.9 22.6 C 141.3 22.6 143.2 23.2 144.6 24.6 C 146 25.9 146.7 27.6 146.7 29.8 C 146.7 32.2 145.7 34.4 143.7 36.3 C 141.6 38.3 138.7 39.7 134.9 40.6 C 133.4 41 132.4 41.3 131.9 41.7 C 131.2 42.2 130.6 42.4 130.2 42.4 C 129.8 42.4 129.5 42.2 129.3 41.9 C 129 41.5 128.9 41.3 128.9 41.1 C 128.9 41 129 40.8 129.2 40.4 C 129.4 40 129.5 39.6 129.6 39.2 C 129.6 38.8 129.7 38.1 129.7 37.1 C 129.8 36.1 129.9 34.5 130.2 32.2 C 130.5 30 130.7 28.4 130.9 27.5 C 130.9 27.5 130.9 27.5 130.9 27.5 Z M 134.4 24.8 C 134.1 24.9 133.8 24.9 133.4 24.9 C 132.4 31 131.9 35.3 131.9 37.8 C 131.9 38.4 131.9 38.8 132.1 39.1 C 132.1 39.1 132.3 39.2 132.5 39.2 C 133 39.2 134.4 38.8 136.7 38.1 C 139 37.4 140.9 36.3 142.4 34.8 C 143.8 33.3 144.5 31.6 144.5 29.7 C 144.5 28.1 144 26.8 142.9 25.9 C 141.7 25 140.3 24.5 138.5 24.5 C 137.3 24.5 136 24.6 134.4 24.8 C 134.4 24.8 134.4 24.8 134.4 24.8 Z M 153.5 24.1 C 153.3 24.1 153.2 23.9 153.1 23.5 C 153.1 23.4 153 23.3 153 23.1 C 152.7 22.6 152.6 22.1 152.6 21.7 C 152.6 21.3 152.8 21 153.2 20.6 C 153.6 20.3 154.1 20.1 154.6 20.1 C 154.8 20.1 155.1 20.2 155.4 20.4 C 155.7 20.6 155.9 20.8 155.9 20.9 C 155.9 21.2 155.8 21.7 155.6 22.4 C 155.3 23 155 23.5 154.6 23.7 C 154.1 24 153.8 24.1 153.5 24.1 Z M 151.8 38.4 C 151.8 39 151.9 39.8 152.1 40.6 C 152.1 40.7 152.2 40.8 152.2 40.9 C 152.2 41.1 152 41.3 151.7 41.5 C 151.5 41.8 151.2 41.9 150.8 41.9 C 150 41.9 149.6 41.1 149.6 39.6 C 149.6 38.1 149.9 35.6 150.6 32.2 C 150.8 31 150.9 30.3 150.9 30 C 150.9 29.5 151 29 151.2 28.6 C 151.4 28.2 151.7 28 152 28 C 152.5 28 152.8 28.2 153.1 28.4 C 153.3 28.6 153.4 28.8 153.4 29.1 C 153.4 29.3 153.4 29.7 153.3 30.1 C 152.6 32.3 152.2 33.9 152.1 34.9 C 151.9 35.9 151.8 37 151.8 38.4 Z M 163.4 38.3 C 163.4 37.7 162.7 37.1 161.4 36.4 C 159.6 35.5 158.5 34.8 157.8 34.3 C 157.2 33.7 156.9 33.1 156.9 32.5 C 156.9 30.8 157.8 29.4 159.5 28.3 C 161.2 27.1 162.6 26.6 163.6 26.6 C 164.3 26.6 164.8 26.7 165.1 26.9 C 165.5 27.2 165.6 27.6 165.6 28.2 C 165.6 28.4 165.5 28.7 165.3 28.9 C 165 29 164.9 29.1 164.7 29.1 C 164.7 29.1 164.5 29.1 164.2 28.9 C 163.9 28.8 163.7 28.8 163.7 28.8 C 163.2 28.8 162.4 29.1 161.1 29.7 C 159.8 30.3 159.1 31 159.1 31.8 C 159.1 32.3 159.3 32.7 159.8 33.1 C 160.3 33.5 161.1 34 162.3 34.5 C 163.2 35 164 35.5 164.6 36 C 165.2 36.5 165.4 37.2 165.4 37.9 C 165.4 39.2 164.5 40.2 162.7 40.9 C 160.9 41.7 159.2 42 157.6 42 C 156.2 42 155.5 41.6 155.5 40.6 C 155.5 40.3 155.7 40.1 156 39.9 C 156.3 39.8 156.6 39.7 156.9 39.7 C 157.1 39.7 157.3 39.7 157.7 39.8 C 158 39.9 158.2 39.9 158.3 39.9 C 159.3 39.9 160.3 39.8 161.4 39.5 C 162.5 39.1 163.1 38.8 163.4 38.3 Z M 173.3 28.3 C 174.2 28.2 175 28.2 175.8 28.1 C 176.5 28 177.2 27.9 177.7 27.9 C 178.3 27.9 178.8 28 178.9 28.1 C 179.1 28.2 179.2 28.4 179.2 28.7 C 179.2 29.4 178.7 29.8 177.7 29.9 C 176.5 29.9 175.4 30 174.3 30.2 C 173.3 30.3 172.7 30.4 172.6 30.5 C 172.6 30.6 172.3 31.6 171.9 33.6 C 171.4 35.5 171.2 36.8 171.2 37.4 C 171.2 38.3 171.3 38.9 171.6 39.2 C 171.8 39.5 172.2 39.7 172.7 39.7 C 173.4 39.7 174.4 39.1 175.7 38 C 176.3 37.6 176.6 37.4 176.9 37.4 C 177.3 37.4 177.5 37.6 177.5 38 C 177.5 38.6 176.9 39.4 175.7 40.3 C 174.5 41.3 173.3 41.8 172.1 41.8 C 170 41.8 169 40.6 169 38.2 C 169 37.3 169.2 35.9 169.6 34.1 C 170 32.2 170.2 31.1 170.2 30.8 C 170.2 30.6 170.1 30.6 169.9 30.6 C 169.9 30.6 168.6 30.7 168.6 30.7 C 167.5 30.7 167 30.3 167 29.4 C 167 28.9 167.2 28.7 167.7 28.7 C 167.7 28.7 170.3 28.7 170.3 28.7 C 170.5 28.7 170.7 28.6 170.8 28.4 C 171 28.2 171.2 27.7 171.4 26.8 C 171.7 25.9 171.9 24.9 172.1 24 C 172.3 23.1 172.7 22.7 173.3 22.7 C 173.7 22.7 174 22.8 174.2 23.1 C 174.4 23.3 174.5 23.6 174.5 23.8 C 174.5 23.9 174.3 24.5 174 25.6 C 174 25.6 173.3 28.3 173.3 28.3 Z M 183 36.1 C 183 36 183.1 35.8 183.3 35.5 C 183.8 34.2 184.4 33.1 184.9 32.4 C 185.3 31.6 185.9 30.9 186.5 30.2 C 187 29.5 187.6 29 188.1 28.6 C 188.5 28.3 189 28 189.4 27.9 C 189.8 27.7 190.1 27.7 190.5 27.7 C 191.3 27.7 191.9 27.9 192.3 28.3 C 192.8 28.8 193 29.3 193 29.9 C 193 30.2 193 30.4 192.8 30.6 C 192.6 30.8 192.4 30.9 192 30.9 C 191.7 30.9 191.3 30.8 191 30.5 C 190.7 30.2 190.4 30 190.1 30 C 189.2 30 188 31.1 186.4 33.2 C 184.8 35.4 183.9 37.7 183.5 40.3 C 183.4 41 183.3 41.4 183 41.6 C 182.8 41.8 182.5 42 182 42 C 181.6 42 181.3 41.6 181.1 41 C 180.9 40.4 180.8 39.4 180.8 37.9 C 180.8 37.5 180.9 36.6 180.9 35.2 C 181 33.6 181.1 32.3 181.2 31.3 C 181.2 31.2 181.3 30.8 181.3 30.2 C 181.4 29.5 181.5 29.1 181.6 28.8 C 181.7 28.6 181.8 28.3 182.1 28.1 C 182.4 27.9 182.7 27.8 183 27.8 C 183.3 27.8 183.6 27.9 183.7 28.1 C 183.9 28.3 184 28.5 184 28.7 C 184 29 183.9 29.5 183.7 30.1 C 183.5 30.8 183.4 31.3 183.4 31.5 C 183.3 31.8 183.3 32.1 183.2 32.4 C 183.1 32.8 183 33.8 183 35.3 C 182.96 35.32 183 35.8 183 35.8 C 183 35.8 182.95 36.13 183 36.1 Z M 198.1 24.1 C 197.9 24.1 197.8 23.9 197.7 23.5 C 197.6 23.4 197.6 23.3 197.5 23.1 C 197.3 22.6 197.2 22.1 197.2 21.7 C 197.2 21.3 197.4 21 197.8 20.6 C 198.2 20.3 198.7 20.1 199.1 20.1 C 199.4 20.1 199.7 20.2 200 20.4 C 200.3 20.6 200.4 20.8 200.4 20.9 C 200.4 21.2 200.3 21.7 200.1 22.4 C 199.9 23 199.6 23.5 199.1 23.7 C 198.7 24 198.3 24.1 198.1 24.1 Z M 196.4 38.4 C 196.4 39 196.5 39.8 196.7 40.6 C 196.7 40.7 196.7 40.8 196.7 40.9 C 196.7 41.1 196.6 41.3 196.3 41.5 C 196 41.8 195.7 41.9 195.4 41.9 C 194.6 41.9 194.2 41.1 194.2 39.6 C 194.2 38.1 194.5 35.6 195.1 32.2 C 195.4 31 195.5 30.3 195.5 30 C 195.5 29.5 195.6 29 195.8 28.6 C 196 28.2 196.2 28 196.6 28 C 197 28 197.4 28.2 197.6 28.4 C 197.9 28.6 198 28.8 198 29.1 C 198 29.3 198 29.7 197.8 30.1 C 197.2 32.3 196.8 33.9 196.6 34.9 C 196.5 35.9 196.4 37 196.4 38.4 Z M 206.7 28.3 C 207.6 28.2 208.5 28.2 209.2 28.1 C 210 28 210.6 27.9 211.2 27.9 C 211.8 27.9 212.2 28 212.4 28.1 C 212.5 28.2 212.6 28.4 212.6 28.7 C 212.6 29.4 212.2 29.8 211.2 29.9 C 210 29.9 208.8 30 207.8 30.2 C 206.7 30.3 206.2 30.4 206.1 30.5 C 206 30.6 205.8 31.6 205.3 33.6 C 204.9 35.5 204.7 36.8 204.7 37.4 C 204.7 38.3 204.8 38.9 205 39.2 C 205.3 39.5 205.7 39.7 206.1 39.7 C 206.9 39.7 207.9 39.1 209.2 38 C 209.7 37.6 210.1 37.4 210.4 37.4 C 210.7 37.4 210.9 37.6 210.9 38 C 210.9 38.6 210.3 39.4 209.1 40.3 C 208 41.3 206.8 41.8 205.5 41.8 C 203.5 41.8 202.4 40.6 202.4 38.2 C 202.4 37.3 202.6 35.9 203.1 34.1 C 203.5 32.2 203.7 31.1 203.7 30.8 C 203.7 30.6 203.6 30.6 203.4 30.6 C 203.4 30.6 202.1 30.7 202.1 30.7 C 201 30.7 200.4 30.3 200.4 29.4 C 200.4 28.9 200.7 28.7 201.2 28.7 C 201.2 28.7 203.8 28.7 203.8 28.7 C 204 28.7 204.1 28.6 204.3 28.4 C 204.4 28.2 204.6 27.7 204.9 26.8 C 205.1 25.9 205.4 24.9 205.6 24 C 205.8 23.1 206.2 22.7 206.8 22.7 C 207.2 22.7 207.4 22.8 207.6 23.1 C 207.8 23.3 208 23.6 208 23.8 C 208 23.9 207.8 24.5 207.5 25.6 C 207.5 25.6 206.7 28.3 206.7 28.3 Z M 222.4 36.6 C 221.3 38.2 220.1 39.4 218.9 40.2 C 217.7 41 216.7 41.4 215.7 41.4 C 215 41.4 214.5 41.1 214 40.5 C 213.5 40 213.3 39.3 213.3 38.4 C 213.3 36.2 214.3 33.7 216.3 31.2 C 218.3 28.6 220.3 27.3 222.3 27.3 C 223 27.3 223.5 27.7 223.9 28.5 C 224 28.8 224.1 28.9 224.4 28.9 C 225.1 28.9 225.4 29.2 225.4 29.7 C 225.4 30 225.4 30.3 225.3 30.8 C 224.8 33.3 224.6 35.1 224.6 36.1 C 224.6 38.2 225 39.4 225.8 39.8 C 226.1 40 226.3 40.3 226.3 40.6 C 226.3 40.8 226.1 41.1 225.8 41.4 C 225.4 41.6 225.1 41.8 224.7 41.8 C 224.1 41.8 223.5 41.3 223.1 40.4 C 222.7 39.5 222.4 38.2 222.4 36.6 Z M 222.9 31.2 C 222.9 30 222.5 29.4 221.7 29.4 C 220.5 29.4 219.2 30.4 217.7 32.5 C 216.2 34.6 215.5 36.4 215.5 37.8 C 215.5 38.8 215.8 39.2 216.5 39.2 C 217.4 39.2 218.7 38.3 220.4 36.4 C 222 34.5 222.9 32.8 222.9 31.2 C 222.9 31.2 222.9 31.2 222.9 31.2 Z M 233.7 19.6 C 234.3 19.6 234.6 19.9 234.6 20.7 C 234.6 21.4 234.2 23.1 233.5 25.7 C 233 27.4 232.7 29.2 232.4 31.2 C 232.1 33.2 232 34.8 232 35.9 C 232 37.3 232.1 38.7 232.3 40.1 C 232.3 40.4 232.3 40.5 232.3 40.7 C 232.3 41.1 232.2 41.5 231.9 41.8 C 231.6 42.1 231.3 42.2 231 42.2 C 230.5 42.2 230.2 41.9 230 41.4 C 229.9 40.8 229.8 39.9 229.8 38.7 C 229.8 35.8 230.1 32.3 230.8 28 C 231.5 23.8 232 21.3 232.4 20.6 C 232.9 19.9 233.3 19.6 233.7 19.6 Z " stroke="none" fill="#fff"/>  </g></svg>