<?xml version="1.0" standalone="no"?><!DOCTYPE svg PUBLIC "-//W3C//DTD SVG 1.1//EN" "http://www.w3.org/Graphics/SVG/1.1/DTD/svg11.dtd"><svg xmlns="http://www.w3.org/2000/svg" version="1.1" width="230px" height="106.4px" viewBox="0 -10 230 106.4" style="top:-10px">  <desc>MANDE UM EMAIL PARA GENTE! Tirem sua d vidas Atrav s do nosso e mail</desc>  <defs/>  <g id="Polygon11196">    <path d="M 5.9 50.7 C 6.2 50.7 6.5 50.7 6.6 50.9 C 6.7 50.9 6.7 51.1 6.7 51.2 C 6.7 51.4 6.7 51.6 6.6 51.7 C 6.6 51.7 6.7 52 6.7 52 C 6.9 52.5 7 53 7.2 53.3 C 7.3 53.8 7.5 54.3 7.7 54.8 C 8.1 56 8.5 57.1 9 57.9 C 9.4 58.8 9.8 59.4 10.2 59.8 C 10.4 60 10.5 60.2 10.6 60.3 C 10.6 60.3 10.7 60.4 10.7 60.5 C 10.7 60.7 10.6 60.9 10.5 61.1 C 10.3 61.2 10.2 61.3 10 61.3 C 9.4 61.3 8.7 60.3 7.9 58.5 C 7.5 57.8 7.3 57.4 7.3 57.4 C 7.1 57.4 6.6 57.5 5.9 57.6 C 5.1 57.8 4.5 57.9 3.9 58.1 C 3.5 58.2 3.3 58.2 3.2 58.2 C 3.1 58.2 3 58.2 2.9 58.1 C 2.9 58.1 2.8 58 2.8 58 C 2.7 58 2.5 58.3 2.1 58.9 C 1.6 59.9 1.3 60.5 1.1 60.7 C 1 60.9 0.8 61 0.6 61 C 0.5 61 0.4 60.9 0.2 60.8 C 0 60.6 -0.1 60.5 -0.1 60.3 C -0.1 60.2 0 60 0.2 59.7 C 0.3 59.5 0.7 59 1.2 58.2 C 2.1 56.9 2.8 55.6 3.5 54.5 C 4.4 52.6 5.1 51.5 5.3 51.2 C 5.6 50.8 5.8 50.7 5.9 50.7 C 5.9 50.7 5.9 50.7 5.9 50.7 Z M 4.9 56.7 C 6.1 56.5 6.8 56.4 7 56.3 C 6.9 56 6.6 55.3 6.3 54.3 C 6 53.3 5.8 52.7 5.7 52.5 C 5.4 53 5 53.7 4.5 54.7 C 4.5 54.7 3.3 57 3.3 57 C 3.4 57 3.6 56.9 4 56.9 C 4.4 56.8 4.6 56.8 4.9 56.7 C 4.9 56.7 4.9 56.7 4.9 56.7 Z M 14.8 53.8 C 15.3 53.8 15.8 53.7 16.2 53.7 C 16.6 53.6 16.9 53.6 17.2 53.6 C 17.5 53.6 17.8 53.6 17.9 53.7 C 17.9 53.8 18 53.9 18 54 C 18 54.4 17.7 54.6 17.2 54.6 C 16.6 54.7 16 54.7 15.4 54.8 C 14.8 54.9 14.5 54.9 14.5 55 C 14.5 55 14.3 55.6 14.1 56.6 C 13.8 57.6 13.7 58.3 13.7 58.6 C 13.7 59.1 13.8 59.5 13.9 59.6 C 14.1 59.8 14.3 59.9 14.5 59.9 C 14.9 59.9 15.5 59.6 16.2 59 C 16.4 58.8 16.6 58.6 16.8 58.6 C 17 58.6 17.1 58.7 17.1 58.9 C 17.1 59.3 16.8 59.7 16.1 60.2 C 15.5 60.7 14.9 61 14.2 61 C 13.1 61 12.5 60.4 12.5 59.1 C 12.5 58.6 12.7 57.9 12.9 56.9 C 13.1 55.9 13.2 55.3 13.2 55.1 C 13.2 55 13.2 55 13 55 C 13 55 12.3 55.1 12.3 55.1 C 11.8 55.1 11.5 54.8 11.5 54.4 C 11.5 54.1 11.6 54 11.9 54 C 11.9 54 13.3 54 13.3 54 C 13.4 54 13.5 53.9 13.5 53.8 C 13.6 53.8 13.7 53.5 13.8 53 C 14 52.5 14.1 52 14.2 51.5 C 14.3 51 14.5 50.8 14.9 50.8 C 15.1 50.8 15.2 50.9 15.3 51 C 15.4 51.1 15.5 51.3 15.5 51.4 C 15.5 51.4 15.4 51.8 15.2 52.4 C 15.2 52.4 14.8 53.8 14.8 53.8 Z M 20 58 C 20.1 57.9 20.1 57.8 20.2 57.6 C 20.5 56.9 20.8 56.4 21 56 C 21.3 55.6 21.6 55.2 21.9 54.8 C 22.2 54.4 22.5 54.2 22.7 54 C 23 53.8 23.2 53.6 23.4 53.6 C 23.6 53.5 23.9 53.5 24 53.5 C 24.4 53.5 24.8 53.6 25 53.8 C 25.3 54.1 25.4 54.3 25.4 54.6 C 25.4 54.8 25.4 54.9 25.3 55 C 25.2 55.1 25 55.2 24.9 55.2 C 24.7 55.2 24.5 55.1 24.3 54.9 C 24.2 54.8 24 54.7 23.8 54.7 C 23.3 54.7 22.7 55.3 21.8 56.4 C 21 57.6 20.5 58.8 20.3 60.2 C 20.3 60.6 20.2 60.8 20.1 60.9 C 19.9 61 19.7 61.1 19.5 61.1 C 19.3 61.1 19.1 60.9 19 60.6 C 18.9 60.3 18.9 59.7 18.9 58.9 C 18.9 58.7 18.9 58.2 18.9 57.5 C 18.9 56.6 19 55.9 19.1 55.4 C 19.1 55.3 19.1 55.1 19.1 54.8 C 19.2 54.4 19.2 54.2 19.3 54.1 C 19.3 53.9 19.4 53.8 19.6 53.7 C 19.7 53.6 19.9 53.5 20 53.5 C 20.2 53.5 20.3 53.6 20.4 53.7 C 20.5 53.8 20.5 53.9 20.5 54 C 20.5 54.2 20.5 54.4 20.4 54.8 C 20.3 55.1 20.2 55.4 20.2 55.5 C 20.2 55.7 20.2 55.8 20.2 56 C 20.1 56.2 20.1 56.7 20 57.5 C 20.02 57.54 20 57.8 20 57.8 C 20 57.8 20.01 57.98 20 58 Z M 30.4 58.2 C 29.7 59.1 29.1 59.7 28.5 60.1 C 27.8 60.6 27.3 60.8 26.8 60.8 C 26.4 60.8 26.1 60.6 25.8 60.3 C 25.6 60 25.5 59.7 25.5 59.2 C 25.5 58 26 56.7 27.1 55.3 C 28.1 53.9 29.2 53.2 30.3 53.2 C 30.6 53.2 30.9 53.5 31.1 53.9 C 31.2 54 31.3 54.1 31.4 54.1 C 31.8 54.1 31.9 54.3 31.9 54.5 C 31.9 54.7 31.9 54.9 31.9 55.1 C 31.6 56.5 31.5 57.4 31.5 58 C 31.5 59.1 31.7 59.7 32.1 59.9 C 32.3 60.1 32.4 60.2 32.4 60.3 C 32.4 60.5 32.3 60.6 32.1 60.8 C 31.9 60.9 31.8 61 31.6 61 C 31.2 61 30.9 60.8 30.7 60.3 C 30.5 59.8 30.4 59.1 30.4 58.2 Z M 30.6 55.3 C 30.6 54.7 30.4 54.4 29.9 54.4 C 29.3 54.4 28.6 54.9 27.8 56 C 27.1 57.2 26.7 58.1 26.7 58.9 C 26.7 59.4 26.8 59.6 27.2 59.6 C 27.7 59.6 28.4 59.1 29.3 58.1 C 30.1 57.1 30.6 56.2 30.6 55.3 C 30.6 55.3 30.6 55.3 30.6 55.3 Z M 35.9 61.2 C 35.7 61.2 35.5 61.1 35.3 60.8 C 35.3 60.5 35.1 59.8 34.7 58.7 C 34 56.7 33.6 55.2 33.6 54.4 C 33.6 53.8 33.8 53.5 34.2 53.5 C 34.6 53.5 34.8 53.8 34.8 54.3 C 34.8 54.8 34.9 55.2 34.9 55.4 C 34.9 55.7 35 56.1 35.2 56.8 C 35.4 57.5 35.6 58.1 35.8 58.7 C 35.9 59 36 59.2 36.1 59.4 C 36.2 59.2 36.3 59 36.4 58.8 C 37.3 57.4 37.9 56.4 38.4 55.6 C 38.8 54.9 39.2 54.4 39.5 54 C 39.8 53.7 40.1 53.5 40.2 53.4 C 40.3 53.4 40.5 53.3 40.6 53.3 C 40.8 53.3 40.9 53.4 41 53.5 C 41.1 53.7 41.2 53.8 41.2 54 C 41.2 54.2 41 54.4 40.6 54.7 C 40.3 54.9 39.8 55.5 39.1 56.5 C 38.4 57.4 37.7 58.6 36.9 60.1 C 36.5 60.9 36.2 61.2 35.9 61.2 C 35.9 61.2 35.9 61.2 35.9 61.2 Z M 47.3 58 C 47.4 58 47.5 58.1 47.5 58.4 C 47.5 58.8 47.1 59.4 46.2 60.1 C 45.4 60.7 44.6 61 43.7 61 C 43 61 42.4 60.8 42 60.4 C 41.6 60 41.4 59.4 41.4 58.6 C 41.4 57.3 41.8 56 42.7 54.9 C 43.6 53.7 44.6 53.1 45.6 53.1 C 45.9 53.1 46.2 53.2 46.4 53.4 C 46.6 53.7 46.8 53.9 46.8 54.2 C 46.8 54.9 46.4 55.6 45.7 56.3 C 45 56.9 44.1 57.5 43 58.1 C 42.7 58.3 42.6 58.4 42.6 58.6 C 42.6 59 42.7 59.3 42.9 59.5 C 43.2 59.8 43.5 59.9 43.9 59.9 C 44.9 59.9 45.9 59.3 46.9 58.3 C 47.1 58.1 47.2 58 47.3 58 C 47.3 58 47.3 58 47.3 58 Z M 42.7 57.3 C 44.6 56.2 45.6 55.2 45.6 54.5 C 45.6 54.3 45.5 54.1 45.2 54.1 C 44.8 54.1 44.4 54.4 43.8 55.1 C 43.3 55.7 42.9 56.4 42.7 57.3 Z M 47 50.4 C 47 50.4 46.9 50.4 46.9 50.4 C 46.9 50.4 46.8 50.5 46.8 50.5 C 46.5 50.6 45.8 51.1 44.9 51.8 C 44.5 52.1 44.2 52.3 44 52.5 C 44 52.5 43.8 52.6 43.8 52.6 C 43.7 52.6 43.6 52.5 43.5 52.4 C 43.4 52.3 43.4 52.2 43.4 52 C 43.4 51.8 43.7 51.4 44.4 50.9 C 45.1 50.4 45.8 49.9 46.3 49.6 C 46.5 49.5 46.7 49.4 46.8 49.3 C 46.9 49.3 46.9 49.2 46.9 49.3 C 47 49.3 47.1 49.3 47.2 49.5 C 47.3 49.7 47.3 49.8 47.3 49.9 C 47.3 50 47.3 50 47.2 50.2 C 47.1 50.3 47 50.4 47 50.4 Z M 52.3 59.1 C 52.3 58.8 52 58.5 51.2 58.1 C 50.3 57.6 49.7 57.3 49.4 57 C 49 56.7 48.9 56.4 48.9 56 C 48.9 55.1 49.3 54.4 50.2 53.8 C 51.1 53.2 51.9 52.9 52.5 52.9 C 52.8 52.9 53.1 52.9 53.3 53.1 C 53.4 53.2 53.5 53.4 53.5 53.7 C 53.5 53.9 53.5 54 53.3 54.1 C 53.2 54.2 53.1 54.2 53.1 54.2 C 53 54.2 52.9 54.2 52.8 54.1 C 52.6 54.1 52.5 54 52.5 54 C 52.2 54 51.8 54.2 51.1 54.5 C 50.4 54.9 50 55.2 50 55.7 C 50 55.9 50.2 56.2 50.4 56.4 C 50.7 56.6 51.1 56.8 51.7 57.1 C 52.2 57.4 52.7 57.6 53 57.9 C 53.3 58.2 53.4 58.5 53.4 58.9 C 53.4 59.6 52.9 60.1 52 60.5 C 51 60.9 50.1 61.1 49.2 61.1 C 48.5 61.1 48.1 60.9 48.1 60.4 C 48.1 60.2 48.2 60.1 48.4 60 C 48.5 59.9 48.7 59.9 48.9 59.9 C 48.9 59.9 49.1 59.9 49.3 59.9 C 49.5 60 49.6 60 49.6 60 C 50.1 60 50.7 59.9 51.3 59.8 C 51.8 59.6 52.2 59.4 52.3 59.1 Z M 65.3 58.6 C 65.3 58.4 65.3 58.1 65.3 57.9 C 64.7 58.8 64.1 59.6 63.4 60.1 C 62.7 60.7 62.1 60.9 61.5 60.9 C 61.1 60.9 60.7 60.8 60.5 60.4 C 60.2 60.1 60.1 59.6 60.1 59.1 C 60.1 57.9 60.5 56.7 61.5 55.5 C 62.4 54.3 63.4 53.7 64.5 53.7 C 65 53.7 65.4 53.9 65.8 54.3 C 65.8 54.3 66.8 49.8 66.8 49.8 C 66.9 49.5 67 49.3 67.2 49.2 C 67.4 49.1 67.5 49.1 67.6 49.1 C 67.9 49.1 68.1 49.3 68.1 49.9 C 68.1 50 68 50.4 67.8 51 C 67.4 52 67.1 53.3 66.8 54.7 C 66.5 56.2 66.4 57.4 66.4 58.2 C 66.4 59.1 66.6 59.6 67 59.6 C 67.2 59.6 67.5 59.5 67.8 59.4 C 67.9 59.3 68 59.2 68.1 59.2 C 68.2 59.2 68.3 59.3 68.3 59.5 C 68.3 59.7 68.1 60 67.7 60.3 C 67.3 60.6 66.9 60.8 66.4 60.8 C 65.7 60.8 65.3 60.1 65.3 58.6 C 65.3 58.6 65.3 58.6 65.3 58.6 Z M 64.4 54.7 C 63.7 54.7 63 55.2 62.2 56.2 C 61.5 57.2 61.2 58.1 61.2 58.9 C 61.2 59.5 61.4 59.8 61.7 59.8 C 62.1 59.8 62.5 59.6 63 59.2 C 63.5 58.9 64.1 58.3 64.6 57.4 C 65.1 56.6 65.4 56 65.4 55.6 C 65.4 55.4 65.3 55.2 65.1 55 C 64.9 54.8 64.7 54.7 64.4 54.7 Z M 71.7 61 C 71.1 61 70.5 60.8 70.1 60.3 C 69.7 59.8 69.5 59.3 69.5 58.6 C 69.5 57.4 69.9 56.2 70.7 55.1 C 71.5 53.9 72.5 53.4 73.6 53.4 C 74.3 53.4 74.9 53.7 75.3 54.2 C 75.8 54.8 76 55.4 76 56.2 C 76 57.4 75.5 58.5 74.6 59.5 C 73.7 60.5 72.7 61 71.7 61 Z M 70.7 58.4 C 70.7 58.8 70.8 59.2 71 59.5 C 71.2 59.8 71.5 60 71.8 60 C 72.5 60 73.2 59.6 73.8 58.8 C 74.5 58.1 74.9 57.3 74.9 56.4 C 74.9 55.8 74.7 55.3 74.5 55 C 74.2 54.6 73.9 54.5 73.4 54.5 C 72.7 54.5 72.1 54.9 71.5 55.8 C 71 56.7 70.7 57.6 70.7 58.4 Z M 88.7 57.4 C 88.5 56.1 88.3 55.4 87.9 55.4 C 87.6 55.4 87.4 55.6 87.1 55.9 C 86.8 56.2 86.4 56.9 85.8 58 C 85 59.4 84.6 60.3 84.3 60.5 C 84.1 60.7 83.9 60.8 83.8 60.8 C 83.3 60.8 83 60.5 83 60 C 83 59.8 83 59.5 83.1 59.1 C 83.3 57.7 83.5 56.2 83.5 54.7 C 83.5 54.5 83.5 54.3 83.7 54.1 C 83.8 53.9 84 53.8 84.1 53.8 C 84.3 53.8 84.5 53.9 84.6 54 C 84.7 54.2 84.8 54.5 84.8 54.9 C 84.8 55.4 84.6 56.3 84.4 57.7 C 84.3 58.2 84.2 58.5 84.2 58.6 C 84.2 58.7 84.2 58.8 84.3 58.8 C 84.3 58.8 84.7 58.2 85.2 57.1 C 85.8 56 86.3 55.2 86.7 54.8 C 87.1 54.3 87.6 54.1 88.1 54.1 C 88.5 54.1 88.9 54.3 89.1 54.7 C 89.4 55 89.6 55.7 89.7 56.7 C 89.8 57.8 89.9 58.5 90 58.8 C 90.1 59.1 90.3 59.2 90.5 59.2 C 90.7 59.2 90.9 59.2 91.1 59.1 C 91.1 59.1 91.1 59.1 91.2 59.1 C 91.3 59.1 91.4 59.2 91.4 59.4 C 91.4 59.6 91.3 59.8 91 60 C 90.8 60.3 90.4 60.4 90.1 60.4 C 89.7 60.4 89.4 60.2 89.2 59.9 C 89 59.6 88.8 58.8 88.7 57.4 C 88.7 57.4 88.7 57.4 88.7 57.4 Z M 94.5 61 C 93.9 61 93.3 60.8 92.9 60.3 C 92.5 59.8 92.3 59.3 92.3 58.6 C 92.3 57.4 92.7 56.2 93.5 55.1 C 94.3 53.9 95.3 53.4 96.4 53.4 C 97.1 53.4 97.7 53.7 98.1 54.2 C 98.6 54.8 98.8 55.4 98.8 56.2 C 98.8 57.4 98.3 58.5 97.4 59.5 C 96.5 60.5 95.5 61 94.5 61 Z M 93.5 58.4 C 93.5 58.8 93.6 59.2 93.8 59.5 C 94 59.8 94.3 60 94.6 60 C 95.3 60 96 59.6 96.6 58.8 C 97.3 58.1 97.7 57.3 97.7 56.4 C 97.7 55.8 97.5 55.3 97.3 55 C 97 54.6 96.7 54.5 96.2 54.5 C 95.5 54.5 94.9 54.9 94.3 55.8 C 93.8 56.7 93.5 57.6 93.5 58.4 Z M 103.8 59.1 C 103.8 58.8 103.5 58.5 102.8 58.1 C 101.8 57.6 101.2 57.3 100.9 57 C 100.5 56.7 100.4 56.4 100.4 56 C 100.4 55.1 100.8 54.4 101.7 53.8 C 102.7 53.2 103.4 52.9 104 52.9 C 104.3 52.9 104.6 52.9 104.8 53.1 C 104.9 53.2 105 53.4 105 53.7 C 105 53.9 105 54 104.8 54.1 C 104.7 54.2 104.6 54.2 104.6 54.2 C 104.5 54.2 104.4 54.2 104.3 54.1 C 104.1 54.1 104 54 104 54 C 103.8 54 103.3 54.2 102.6 54.5 C 101.9 54.9 101.5 55.2 101.5 55.7 C 101.5 55.9 101.7 56.2 101.9 56.4 C 102.2 56.6 102.6 56.8 103.2 57.1 C 103.8 57.4 104.2 57.6 104.5 57.9 C 104.8 58.2 104.9 58.5 104.9 58.9 C 104.9 59.6 104.5 60.1 103.5 60.5 C 102.5 60.9 101.6 61.1 100.7 61.1 C 100 61.1 99.6 60.9 99.6 60.4 C 99.6 60.2 99.7 60.1 99.9 60 C 100 59.9 100.2 59.9 100.4 59.9 C 100.5 59.9 100.6 59.9 100.8 59.9 C 101 60 101.1 60 101.1 60 C 101.7 60 102.2 59.9 102.8 59.8 C 103.4 59.6 103.7 59.4 103.8 59.1 Z M 109.8 59.1 C 109.8 58.8 109.4 58.5 108.7 58.1 C 107.8 57.6 107.1 57.3 106.8 57 C 106.5 56.7 106.3 56.4 106.3 56 C 106.3 55.1 106.8 54.4 107.7 53.8 C 108.6 53.2 109.3 52.9 109.9 52.9 C 110.3 52.9 110.6 52.9 110.7 53.1 C 110.9 53.2 111 53.4 111 53.7 C 111 53.9 110.9 54 110.8 54.1 C 110.7 54.2 110.6 54.2 110.5 54.2 C 110.5 54.2 110.4 54.2 110.2 54.1 C 110.1 54.1 110 54 109.9 54 C 109.7 54 109.2 54.2 108.5 54.5 C 107.8 54.9 107.5 55.2 107.5 55.7 C 107.5 55.9 107.6 56.2 107.9 56.4 C 108.1 56.6 108.5 56.8 109.2 57.1 C 109.7 57.4 110.1 57.6 110.4 57.9 C 110.7 58.2 110.9 58.5 110.9 58.9 C 110.9 59.6 110.4 60.1 109.4 60.5 C 108.5 60.9 107.6 61.1 106.7 61.1 C 105.9 61.1 105.6 60.9 105.6 60.4 C 105.6 60.2 105.7 60.1 105.8 60 C 106 59.9 106.2 59.9 106.3 59.9 C 106.4 59.9 106.5 59.9 106.7 59.9 C 106.9 60 107 60 107.1 60 C 107.6 60 108.1 59.9 108.7 59.8 C 109.3 59.6 109.6 59.4 109.8 59.1 Z M 114.3 61 C 113.7 61 113.1 60.8 112.7 60.3 C 112.3 59.8 112.1 59.3 112.1 58.6 C 112.1 57.4 112.5 56.2 113.3 55.1 C 114.1 53.9 115.1 53.4 116.2 53.4 C 116.9 53.4 117.5 53.7 117.9 54.2 C 118.4 54.8 118.6 55.4 118.6 56.2 C 118.6 57.4 118.1 58.5 117.2 59.5 C 116.3 60.5 115.3 61 114.3 61 Z M 113.3 58.4 C 113.3 58.8 113.4 59.2 113.6 59.5 C 113.8 59.8 114.1 60 114.4 60 C 115.1 60 115.8 59.6 116.4 58.8 C 117.1 58.1 117.5 57.3 117.5 56.4 C 117.5 55.8 117.3 55.3 117.1 55 C 116.8 54.6 116.5 54.5 116 54.5 C 115.3 54.5 114.6 54.9 114.1 55.8 C 113.6 56.7 113.3 57.6 113.3 58.4 Z M 131.4 58 C 131.6 58 131.7 58.1 131.7 58.4 C 131.7 58.8 131.2 59.4 130.4 60.1 C 129.6 60.7 128.7 61 127.9 61 C 127.1 61 126.6 60.8 126.2 60.4 C 125.8 60 125.6 59.4 125.6 58.6 C 125.6 57.3 126 56 126.9 54.9 C 127.8 53.7 128.7 53.1 129.8 53.1 C 130.1 53.1 130.4 53.2 130.6 53.4 C 130.8 53.7 130.9 53.9 130.9 54.2 C 130.9 54.9 130.6 55.6 129.9 56.3 C 129.2 56.9 128.3 57.5 127.1 58.1 C 126.9 58.3 126.8 58.4 126.8 58.6 C 126.8 59 126.9 59.3 127.1 59.5 C 127.3 59.8 127.7 59.9 128.1 59.9 C 129.1 59.9 130.1 59.3 131.1 58.3 C 131.2 58.1 131.4 58 131.4 58 C 131.4 58 131.4 58 131.4 58 Z M 126.9 57.3 C 128.8 56.2 129.8 55.2 129.8 54.5 C 129.8 54.3 129.7 54.1 129.4 54.1 C 129 54.1 128.5 54.4 128 55.1 C 127.5 55.7 127.1 56.4 126.9 57.3 Z M 136.6 56.2 C 136.6 56.2 137.08 56.24 137.1 56.2 C 137.9 56.2 138.6 56.2 139 56.2 C 139.2 56.1 139.4 56.1 139.6 56.1 C 139.7 56.1 139.8 56.2 140.1 56.3 C 140.4 56.4 140.5 56.5 140.6 56.5 C 140.6 56.6 140.7 56.7 140.7 56.8 C 140.7 57 140.6 57.1 140.6 57.2 C 140.5 57.2 140.3 57.3 140.1 57.3 C 140 57.3 139.9 57.2 139.7 57.2 C 139.5 57.1 139.4 57.1 139.2 57.1 C 139.2 57.1 139 57.1 138.7 57.1 C 138.6 57.1 138.3 57.1 137.9 57.1 C 137.6 57.1 137.4 57.1 137.2 57.1 C 137 57.1 136.7 57.1 136.3 57.1 C 135.9 57.1 135.5 57.1 135.3 57.1 C 135.1 57.1 134.9 57.1 134.8 57.1 C 134.6 57 134.6 56.9 134.6 56.7 C 134.6 56.7 134.6 56.6 134.7 56.5 C 134.7 56.4 134.9 56.3 135.3 56.3 C 135.7 56.2 135.9 56.2 136.1 56.2 C 136.06 56.17 136.6 56.2 136.6 56.2 Z M 147.6 57.8 C 147.5 56.4 147.4 55.5 147.2 55.3 C 146.8 55.3 145.9 56.5 144.5 59.1 C 144 59.9 143.8 60.4 143.7 60.4 C 143.6 60.5 143.5 60.6 143.3 60.6 C 143 60.7 142.9 60.7 142.7 60.7 C 142.4 60.7 142.3 60.1 142.3 58.9 C 142.3 58.3 142.4 57.1 142.7 55.3 C 142.8 54.6 142.9 54.1 142.9 53.8 C 142.9 53.5 143 53.3 143.3 53.3 C 143.8 53.3 144 53.7 144 54.4 C 144 54.8 144 55.4 143.8 56.4 C 143.6 57.6 143.5 58.3 143.5 58.5 C 143.8 58.2 144.2 57.6 144.7 56.7 C 145.5 55.4 146.1 54.6 146.4 54.3 C 146.8 54 147.2 53.8 147.6 53.8 C 147.9 53.8 148.1 54 148.3 54.4 C 148.5 54.8 148.6 55.7 148.6 57.2 C 148.6 57.6 148.7 57.9 148.7 58.1 C 148.8 58.2 148.8 58.3 148.8 58.3 C 149.1 58.3 149.5 57.6 150.2 56.1 C 150.6 55.4 151 54.8 151.4 54.4 C 151.7 54 152.1 53.8 152.6 53.8 C 152.9 53.8 153.2 54 153.4 54.4 C 153.5 54.7 153.7 55.3 153.7 56 C 153.8 56.8 153.9 57.5 154.1 58.1 C 154.2 58.8 154.5 59.2 154.8 59.3 C 155.1 59.5 155.2 59.6 155.2 59.8 C 155.2 59.9 155.1 60.1 154.9 60.3 C 154.7 60.4 154.5 60.5 154.3 60.5 C 153.9 60.5 153.6 60.3 153.3 59.8 C 153 59.4 152.8 58.4 152.7 56.9 C 152.6 56.3 152.5 55.9 152.5 55.7 C 152.4 55.4 152.3 55.3 152.2 55.3 C 152 55.3 151.8 55.5 151.5 55.8 C 151.3 56.2 150.8 56.9 150.3 58.1 C 149.8 58.9 149.5 59.5 149.2 59.8 C 149 60.1 148.8 60.2 148.5 60.2 C 148.3 60.2 148.2 60.2 148 60 C 147.9 59.8 147.8 59.7 147.7 59.4 C 147.7 59.2 147.6 58.7 147.6 57.8 C 147.6 57.8 147.6 57.8 147.6 57.8 Z M 161.1 58.2 C 160.4 59.1 159.8 59.7 159.2 60.1 C 158.5 60.6 158 60.8 157.4 60.8 C 157.1 60.8 156.8 60.6 156.5 60.3 C 156.3 60 156.2 59.7 156.2 59.2 C 156.2 58 156.7 56.7 157.8 55.3 C 158.8 53.9 159.9 53.2 161 53.2 C 161.3 53.2 161.6 53.5 161.8 53.9 C 161.9 54 162 54.1 162.1 54.1 C 162.5 54.1 162.6 54.3 162.6 54.5 C 162.6 54.7 162.6 54.9 162.6 55.1 C 162.3 56.5 162.2 57.4 162.2 58 C 162.2 59.1 162.4 59.7 162.8 59.9 C 163 60.1 163.1 60.2 163.1 60.3 C 163.1 60.5 163 60.6 162.8 60.8 C 162.6 60.9 162.4 61 162.3 61 C 161.9 61 161.6 60.8 161.4 60.3 C 161.2 59.8 161.1 59.1 161.1 58.2 Z M 161.3 55.3 C 161.3 54.7 161.1 54.4 160.6 54.4 C 160 54.4 159.3 54.9 158.5 56 C 157.7 57.2 157.3 58.1 157.3 58.9 C 157.3 59.4 157.5 59.6 157.9 59.6 C 158.4 59.6 159.1 59.1 159.9 58.1 C 160.8 57.1 161.3 56.2 161.3 55.3 C 161.3 55.3 161.3 55.3 161.3 55.3 Z M 166.9 51.5 C 166.8 51.5 166.7 51.4 166.6 51.2 C 166.6 51.2 166.6 51.1 166.6 51 C 166.4 50.7 166.4 50.5 166.4 50.2 C 166.4 50.1 166.5 49.9 166.7 49.7 C 166.9 49.5 167.2 49.4 167.4 49.4 C 167.6 49.4 167.7 49.5 167.9 49.6 C 168 49.7 168.1 49.8 168.1 49.9 C 168.1 50 168.1 50.3 168 50.6 C 167.8 51 167.7 51.2 167.4 51.4 C 167.2 51.5 167 51.5 166.9 51.5 Z M 166 59.2 C 166 59.5 166 59.9 166.1 60.3 C 166.1 60.4 166.1 60.5 166.1 60.5 C 166.1 60.6 166.1 60.7 165.9 60.9 C 165.8 61 165.6 61.1 165.4 61.1 C 165 61.1 164.8 60.7 164.8 59.8 C 164.8 59 164.9 57.7 165.3 55.9 C 165.4 55.2 165.5 54.8 165.5 54.7 C 165.5 54.4 165.5 54.2 165.6 54 C 165.7 53.8 165.9 53.7 166.1 53.7 C 166.3 53.7 166.5 53.7 166.6 53.8 C 166.8 53.9 166.8 54.1 166.8 54.2 C 166.8 54.3 166.8 54.5 166.7 54.7 C 166.4 55.9 166.2 56.8 166.1 57.3 C 166 57.8 166 58.5 166 59.2 Z M 171.1 49.1 C 171.4 49.1 171.6 49.3 171.6 49.7 C 171.6 50.1 171.4 51 171 52.4 C 170.8 53.3 170.6 54.3 170.4 55.3 C 170.3 56.4 170.2 57.2 170.2 57.8 C 170.2 58.6 170.3 59.3 170.4 60.1 C 170.4 60.2 170.4 60.3 170.4 60.4 C 170.4 60.6 170.3 60.8 170.2 61 C 170 61.1 169.8 61.2 169.7 61.2 C 169.4 61.2 169.3 61.1 169.2 60.8 C 169.1 60.5 169 60 169 59.3 C 169 57.8 169.2 55.9 169.6 53.7 C 169.9 51.4 170.2 50.1 170.4 49.7 C 170.7 49.3 170.9 49.1 171.1 49.1 Z " stroke="none" fill="#273582"/>  </g>  <g id="Polygon11195">    <path d="M 1.2 38.6 C 0.7 38.6 0.4 38.5 0.3 38.4 C 0.2 38.3 0.2 38.2 0.2 38 C 0.2 37.8 0.3 37.7 0.4 37.6 C 0.6 37.5 1 37.5 1.8 37.5 C 2.7 37.5 3.5 37.5 4.2 37.4 C 4.9 37.3 6 37.2 7.5 37 C 8.1 36.9 8.6 36.9 9.2 36.9 C 9.4 36.9 9.7 36.9 9.9 36.9 C 10.1 37 10.3 37 10.4 37 C 10.5 37.1 10.6 37.1 10.6 37.3 C 10.7 37.4 10.7 37.5 10.7 37.6 C 10.7 37.9 10.6 38.1 10.4 38.1 C 10.2 38.1 10 38.1 9.8 38 C 9.5 38 9.1 38 8.7 38 C 8.2 38 7.7 38 7 38.1 C 6.3 38.2 6 38.3 5.9 38.4 C 5.8 38.6 5.7 39.5 5.5 41.1 C 5.4 42.7 5.3 43.9 5.3 44.7 C 5.3 45.1 5.3 45.5 5.5 46 C 5.5 46.1 5.5 46.1 5.5 46.2 C 5.5 46.4 5.4 46.5 5.3 46.7 C 5.2 46.9 5.1 46.9 4.9 46.9 C 4.7 46.9 4.5 46.8 4.3 46.6 C 4.2 46.4 4.1 45.7 4.1 44.7 C 4.1 43.7 4.3 41.8 4.7 38.9 C 4.7 38.7 4.7 38.6 4.7 38.6 C 4.7 38.5 4.6 38.4 4.4 38.4 C 4.2 38.4 3.6 38.4 2.9 38.5 C 2.1 38.6 1.6 38.6 1.2 38.6 C 1.2 38.6 1.2 38.6 1.2 38.6 Z M 12.5 37.5 C 12.4 37.5 12.3 37.4 12.3 37.2 C 12.3 37.2 12.3 37.1 12.2 37 C 12.1 36.7 12 36.5 12 36.2 C 12 36.1 12.1 35.9 12.4 35.7 C 12.6 35.5 12.8 35.4 13.1 35.4 C 13.2 35.4 13.4 35.5 13.5 35.6 C 13.7 35.7 13.8 35.8 13.8 35.9 C 13.8 36 13.7 36.3 13.6 36.6 C 13.5 37 13.3 37.2 13.1 37.4 C 12.8 37.5 12.6 37.5 12.5 37.5 Z M 11.6 45.2 C 11.6 45.5 11.7 45.9 11.8 46.3 C 11.8 46.4 11.8 46.5 11.8 46.5 C 11.8 46.6 11.7 46.7 11.6 46.9 C 11.4 47 11.3 47.1 11.1 47.1 C 10.6 47.1 10.4 46.7 10.4 45.8 C 10.4 45 10.6 43.7 10.9 41.9 C 11.1 41.2 11.1 40.8 11.1 40.7 C 11.1 40.4 11.2 40.2 11.3 40 C 11.4 39.8 11.5 39.7 11.7 39.7 C 12 39.7 12.1 39.7 12.3 39.8 C 12.4 39.9 12.5 40.1 12.5 40.2 C 12.5 40.3 12.4 40.5 12.4 40.7 C 12 41.9 11.8 42.8 11.7 43.3 C 11.7 43.8 11.6 44.5 11.6 45.2 Z M 15.7 44 C 15.8 43.9 15.8 43.8 15.9 43.6 C 16.2 42.9 16.5 42.4 16.8 42 C 17 41.6 17.3 41.2 17.6 40.8 C 17.9 40.4 18.2 40.2 18.5 40 C 18.7 39.8 19 39.6 19.2 39.6 C 19.4 39.5 19.6 39.5 19.8 39.5 C 20.2 39.5 20.5 39.6 20.8 39.8 C 21 40.1 21.1 40.3 21.1 40.6 C 21.1 40.8 21.1 40.9 21 41 C 20.9 41.1 20.8 41.2 20.6 41.2 C 20.4 41.2 20.2 41.1 20.1 40.9 C 19.9 40.8 19.7 40.7 19.6 40.7 C 19.1 40.7 18.4 41.3 17.6 42.4 C 16.7 43.6 16.2 44.8 16.1 46.2 C 16 46.6 15.9 46.8 15.8 46.9 C 15.7 47 15.5 47.1 15.3 47.1 C 15 47.1 14.9 46.9 14.8 46.6 C 14.7 46.3 14.6 45.7 14.6 44.9 C 14.6 44.7 14.6 44.2 14.6 43.5 C 14.7 42.6 14.7 41.9 14.8 41.4 C 14.8 41.3 14.8 41.1 14.9 40.8 C 14.9 40.4 15 40.2 15 40.1 C 15 39.9 15.1 39.8 15.3 39.7 C 15.4 39.6 15.6 39.5 15.8 39.5 C 15.9 39.5 16.1 39.6 16.2 39.7 C 16.2 39.8 16.3 39.9 16.3 40 C 16.3 40.2 16.2 40.4 16.1 40.8 C 16 41.1 16 41.4 16 41.5 C 15.9 41.7 15.9 41.8 15.9 42 C 15.8 42.2 15.8 42.7 15.8 43.5 C 15.75 43.54 15.7 43.8 15.7 43.8 C 15.7 43.8 15.74 43.98 15.7 44 Z M 27.2 44 C 27.3 44 27.4 44.1 27.4 44.4 C 27.4 44.8 27 45.4 26.2 46.1 C 25.4 46.7 24.5 47 23.6 47 C 22.9 47 22.3 46.8 21.9 46.4 C 21.5 46 21.3 45.4 21.3 44.6 C 21.3 43.3 21.8 42 22.7 40.9 C 23.5 39.7 24.5 39.1 25.5 39.1 C 25.9 39.1 26.2 39.2 26.4 39.4 C 26.6 39.7 26.7 39.9 26.7 40.2 C 26.7 40.9 26.4 41.6 25.7 42.3 C 25 42.9 24.1 43.5 22.9 44.1 C 22.7 44.3 22.6 44.4 22.6 44.6 C 22.6 45 22.7 45.3 22.9 45.5 C 23.1 45.8 23.4 45.9 23.9 45.9 C 24.8 45.9 25.8 45.3 26.9 44.3 C 27 44.1 27.1 44 27.2 44 C 27.2 44 27.2 44 27.2 44 Z M 22.7 43.3 C 24.6 42.2 25.6 41.2 25.6 40.5 C 25.6 40.3 25.4 40.1 25.2 40.1 C 24.8 40.1 24.3 40.4 23.8 41.1 C 23.2 41.7 22.9 42.4 22.7 43.3 Z M 34.4 43.8 C 34.3 42.4 34.2 41.5 34 41.3 C 33.6 41.3 32.7 42.5 31.3 45.1 C 30.8 45.9 30.5 46.4 30.5 46.4 C 30.4 46.5 30.2 46.6 30 46.6 C 29.8 46.7 29.7 46.7 29.5 46.7 C 29.2 46.7 29.1 46.1 29.1 44.9 C 29.1 44.3 29.2 43.1 29.5 41.3 C 29.6 40.6 29.7 40.1 29.7 39.8 C 29.7 39.5 29.8 39.3 30.1 39.3 C 30.6 39.3 30.8 39.7 30.8 40.4 C 30.8 40.8 30.7 41.4 30.6 42.4 C 30.4 43.6 30.3 44.3 30.3 44.5 C 30.6 44.2 31 43.6 31.5 42.7 C 32.3 41.4 32.9 40.6 33.2 40.3 C 33.6 40 34 39.8 34.4 39.8 C 34.7 39.8 34.9 40 35.1 40.4 C 35.3 40.8 35.4 41.7 35.4 43.2 C 35.4 43.6 35.4 43.9 35.5 44.1 C 35.6 44.2 35.6 44.3 35.6 44.3 C 35.8 44.3 36.3 43.6 37 42.1 C 37.4 41.4 37.8 40.8 38.1 40.4 C 38.5 40 38.9 39.8 39.3 39.8 C 39.7 39.8 40 40 40.2 40.4 C 40.3 40.7 40.4 41.3 40.5 42 C 40.6 42.8 40.7 43.5 40.8 44.1 C 41 44.8 41.2 45.2 41.6 45.3 C 41.9 45.5 42 45.6 42 45.8 C 42 45.9 41.9 46.1 41.7 46.3 C 41.5 46.4 41.3 46.5 41.1 46.5 C 40.7 46.5 40.4 46.3 40.1 45.8 C 39.8 45.4 39.6 44.4 39.5 42.9 C 39.4 42.3 39.3 41.9 39.3 41.7 C 39.2 41.4 39.1 41.3 39 41.3 C 38.8 41.3 38.6 41.5 38.3 41.8 C 38 42.2 37.6 42.9 37 44.1 C 36.6 44.9 36.2 45.5 36 45.8 C 35.8 46.1 35.5 46.2 35.3 46.2 C 35.1 46.2 35 46.2 34.8 46 C 34.6 45.8 34.5 45.7 34.5 45.4 C 34.5 45.2 34.4 44.7 34.4 43.8 C 34.4 43.8 34.4 43.8 34.4 43.8 Z M 52.3 45.1 C 52.3 44.8 51.9 44.5 51.2 44.1 C 50.2 43.6 49.6 43.3 49.3 43 C 49 42.7 48.8 42.4 48.8 42 C 48.8 41.1 49.3 40.4 50.2 39.8 C 51.1 39.2 51.8 38.9 52.4 38.9 C 52.8 38.9 53 38.9 53.2 39.1 C 53.4 39.2 53.5 39.4 53.5 39.7 C 53.5 39.9 53.4 40 53.3 40.1 C 53.1 40.2 53.1 40.2 53 40.2 C 52.9 40.2 52.8 40.2 52.7 40.1 C 52.5 40.1 52.4 40 52.4 40 C 52.2 40 51.7 40.2 51 40.5 C 50.3 40.9 50 41.2 50 41.7 C 50 41.9 50.1 42.2 50.3 42.4 C 50.6 42.6 51 42.8 51.7 43.1 C 52.2 43.4 52.6 43.6 52.9 43.9 C 53.2 44.2 53.4 44.5 53.4 44.9 C 53.4 45.6 52.9 46.1 51.9 46.5 C 51 46.9 50 47.1 49.2 47.1 C 48.4 47.1 48.1 46.9 48.1 46.4 C 48.1 46.2 48.1 46.1 48.3 46 C 48.5 45.9 48.6 45.9 48.8 45.9 C 48.9 45.9 49 45.9 49.2 45.9 C 49.4 46 49.5 46 49.6 46 C 50.1 46 50.6 45.9 51.2 45.8 C 51.8 45.6 52.1 45.4 52.3 45.1 Z M 59.6 43.9 C 59.6 43.9 59.6 43.8 59.6 43.7 C 59 44.7 58.4 45.5 57.8 46 C 57.2 46.5 56.6 46.8 56.1 46.8 C 55.8 46.8 55.5 46.6 55.2 46.3 C 54.9 45.9 54.7 45.4 54.7 44.7 C 54.7 44.1 54.9 43.2 55.1 42 C 55.4 41 55.5 40.4 55.5 40 C 55.6 39.7 55.8 39.6 56.1 39.6 C 56.3 39.6 56.5 39.6 56.6 39.8 C 56.7 39.9 56.8 40 56.8 40.2 C 56.8 40.5 56.6 41 56.4 41.5 C 56 42.7 55.8 43.7 55.8 44.5 C 55.8 45.2 56 45.6 56.3 45.6 C 56.7 45.6 57.3 45.2 58 44.5 C 58.7 43.7 59.3 42.7 59.8 41.3 C 59.9 40.8 60.1 40.5 60.2 40.3 C 60.3 40.1 60.5 40 60.7 40 C 61 40 61.2 40.3 61.2 40.7 C 61.2 40.7 61.1 40.9 61 41.2 C 60.8 42.2 60.6 43.1 60.6 44 C 60.6 45.1 60.8 45.7 61.2 46.1 C 61.3 46.2 61.4 46.4 61.4 46.5 C 61.4 46.6 61.3 46.7 61.2 46.8 C 61 46.9 60.8 47 60.7 47 C 60.3 47 60.1 46.7 59.9 46.3 C 59.7 45.8 59.6 45.1 59.6 44.2 C 59.59 44.17 59.6 43.9 59.6 43.9 C 59.6 43.9 59.59 43.94 59.6 43.9 Z M 67.9 44.2 C 67.3 45.1 66.6 45.7 66 46.1 C 65.4 46.6 64.8 46.8 64.3 46.8 C 64 46.8 63.7 46.6 63.4 46.3 C 63.1 46 63 45.7 63 45.2 C 63 44 63.5 42.7 64.6 41.3 C 65.7 39.9 66.8 39.2 67.8 39.2 C 68.2 39.2 68.5 39.5 68.7 39.9 C 68.7 40 68.8 40.1 68.9 40.1 C 69.3 40.1 69.5 40.3 69.5 40.5 C 69.5 40.7 69.5 40.9 69.4 41.1 C 69.2 42.5 69.1 43.4 69.1 44 C 69.1 45.1 69.3 45.7 69.7 45.9 C 69.9 46.1 70 46.2 70 46.3 C 70 46.5 69.9 46.6 69.7 46.8 C 69.5 46.9 69.3 47 69.1 47 C 68.8 47 68.5 46.8 68.3 46.3 C 68 45.8 67.9 45.1 67.9 44.2 Z M 68.1 41.3 C 68.1 40.7 67.9 40.4 67.5 40.4 C 66.9 40.4 66.2 40.9 65.4 42 C 64.6 43.2 64.2 44.1 64.2 44.9 C 64.2 45.4 64.4 45.6 64.7 45.6 C 65.2 45.6 65.9 45.1 66.8 44.1 C 67.7 43.1 68.1 42.2 68.1 41.3 C 68.1 41.3 68.1 41.3 68.1 41.3 Z M 82 44.6 C 82 44.4 82 44.1 82 43.9 C 81.4 44.8 80.8 45.6 80.1 46.1 C 79.4 46.7 78.8 46.9 78.2 46.9 C 77.8 46.9 77.4 46.8 77.1 46.4 C 76.9 46.1 76.8 45.6 76.8 45.1 C 76.8 43.9 77.2 42.7 78.2 41.5 C 79.1 40.3 80.1 39.7 81.2 39.7 C 81.7 39.7 82.1 39.9 82.5 40.3 C 82.5 40.3 83.5 35.8 83.5 35.8 C 83.5 35.5 83.7 35.3 83.9 35.2 C 84 35.1 84.2 35.1 84.3 35.1 C 84.6 35.1 84.8 35.3 84.8 35.9 C 84.8 36 84.7 36.4 84.5 37 C 84.1 38 83.8 39.3 83.5 40.7 C 83.2 42.2 83.1 43.4 83.1 44.2 C 83.1 45.1 83.3 45.6 83.7 45.6 C 83.9 45.6 84.2 45.5 84.4 45.4 C 84.6 45.3 84.7 45.2 84.8 45.2 C 84.9 45.2 85 45.3 85 45.5 C 85 45.7 84.8 46 84.4 46.3 C 84 46.6 83.5 46.8 83.1 46.8 C 82.4 46.8 82 46.1 82 44.6 C 82 44.6 82 44.6 82 44.6 Z M 81.1 40.7 C 80.4 40.7 79.7 41.2 78.9 42.2 C 78.2 43.2 77.8 44.1 77.8 44.9 C 77.8 45.5 78 45.8 78.4 45.8 C 78.8 45.8 79.2 45.6 79.7 45.2 C 80.2 44.9 80.7 44.3 81.3 43.4 C 81.8 42.6 82.1 42 82.1 41.6 C 82.1 41.4 82 41.2 81.8 41 C 81.6 40.8 81.4 40.7 81.1 40.7 Z M 91.2 43.9 C 91.2 43.9 91.2 43.8 91.2 43.7 C 90.6 44.7 90 45.5 89.4 46 C 88.8 46.5 88.2 46.8 87.7 46.8 C 87.4 46.8 87.1 46.6 86.8 46.3 C 86.5 45.9 86.3 45.4 86.3 44.7 C 86.3 44.1 86.5 43.2 86.8 42 C 87 41 87.1 40.4 87.1 40 C 87.2 39.7 87.5 39.6 87.7 39.6 C 87.9 39.6 88.1 39.6 88.2 39.8 C 88.3 39.9 88.4 40 88.4 40.2 C 88.4 40.5 88.3 41 88 41.5 C 87.6 42.7 87.4 43.7 87.4 44.5 C 87.4 45.2 87.6 45.6 87.9 45.6 C 88.4 45.6 88.9 45.2 89.6 44.5 C 90.3 43.7 90.9 42.7 91.4 41.3 C 91.6 40.8 91.7 40.5 91.8 40.3 C 92 40.1 92.1 40 92.3 40 C 92.6 40 92.8 40.3 92.8 40.7 C 92.8 40.7 92.7 40.9 92.7 41.2 C 92.4 42.2 92.2 43.1 92.2 44 C 92.2 45.1 92.4 45.7 92.8 46.1 C 93 46.2 93 46.4 93 46.5 C 93 46.6 93 46.7 92.8 46.8 C 92.6 46.9 92.4 47 92.3 47 C 91.9 47 91.7 46.7 91.5 46.3 C 91.3 45.8 91.2 45.1 91.2 44.2 C 91.2 44.17 91.2 43.9 91.2 43.9 C 91.2 43.9 91.2 43.94 91.2 43.9 Z M 92.7 36.5 C 92.7 36.5 92.7 36.6 92.6 36.6 C 92.6 36.6 92.6 36.6 92.5 36.6 C 92.2 36.8 91.6 37.2 90.6 37.9 C 90.2 38.3 89.9 38.5 89.7 38.6 C 89.7 38.6 89.6 38.7 89.6 38.7 C 89.4 38.7 89.3 38.6 89.2 38.5 C 89.2 38.4 89.1 38.3 89.1 38.2 C 89.1 37.9 89.5 37.6 90.2 37 C 90.9 36.5 91.5 36.1 92 35.8 C 92.2 35.7 92.4 35.6 92.5 35.5 C 92.6 35.4 92.6 35.4 92.6 35.4 C 92.7 35.4 92.8 35.5 92.9 35.7 C 93 35.8 93.1 35.9 93.1 36 C 93.1 36.1 93 36.2 92.9 36.3 C 92.8 36.4 92.8 36.5 92.7 36.5 Z M 96.9 47.2 C 96.7 47.2 96.5 47.1 96.2 46.8 C 96.2 46.5 96 45.8 95.6 44.7 C 94.9 42.7 94.5 41.2 94.5 40.4 C 94.5 39.8 94.7 39.5 95.2 39.5 C 95.6 39.5 95.8 39.8 95.8 40.3 C 95.8 40.8 95.8 41.2 95.8 41.4 C 95.9 41.7 96 42.1 96.2 42.8 C 96.3 43.5 96.6 44.1 96.8 44.7 C 96.9 45 97 45.2 97 45.4 C 97.1 45.2 97.2 45 97.4 44.8 C 98.2 43.4 98.8 42.4 99.3 41.6 C 99.8 40.9 100.2 40.4 100.5 40 C 100.8 39.7 101 39.5 101.1 39.4 C 101.3 39.4 101.4 39.3 101.6 39.3 C 101.7 39.3 101.9 39.4 102 39.5 C 102.1 39.7 102.1 39.8 102.1 40 C 102.1 40.2 102 40.4 101.6 40.7 C 101.2 40.9 100.7 41.5 100 42.5 C 99.3 43.4 98.6 44.6 97.8 46.1 C 97.4 46.9 97.1 47.2 96.9 47.2 C 96.9 47.2 96.9 47.2 96.9 47.2 Z M 104.8 37.5 C 104.7 37.5 104.6 37.4 104.5 37.2 C 104.5 37.2 104.5 37.1 104.5 37 C 104.3 36.7 104.3 36.5 104.3 36.2 C 104.3 36.1 104.4 35.9 104.6 35.7 C 104.8 35.5 105.1 35.4 105.3 35.4 C 105.5 35.4 105.6 35.5 105.8 35.6 C 105.9 35.7 106 35.8 106 35.9 C 106 36 106 36.3 105.9 36.6 C 105.7 37 105.6 37.2 105.3 37.4 C 105.1 37.5 104.9 37.5 104.8 37.5 Z M 103.9 45.2 C 103.9 45.5 103.9 45.9 104 46.3 C 104 46.4 104 46.5 104 46.5 C 104 46.6 104 46.7 103.8 46.9 C 103.7 47 103.5 47.1 103.3 47.1 C 102.9 47.1 102.7 46.7 102.7 45.8 C 102.7 45 102.8 43.7 103.2 41.9 C 103.3 41.2 103.4 40.8 103.4 40.7 C 103.4 40.4 103.4 40.2 103.5 40 C 103.6 39.8 103.8 39.7 104 39.7 C 104.2 39.7 104.4 39.7 104.5 39.8 C 104.7 39.9 104.7 40.1 104.7 40.2 C 104.7 40.3 104.7 40.5 104.6 40.7 C 104.3 41.9 104.1 42.8 104 43.3 C 103.9 43.8 103.9 44.5 103.9 45.2 Z M 111.5 44.6 C 111.5 44.4 111.5 44.1 111.5 43.9 C 110.9 44.8 110.3 45.6 109.6 46.1 C 108.9 46.7 108.3 46.9 107.7 46.9 C 107.2 46.9 106.9 46.8 106.6 46.4 C 106.4 46.1 106.2 45.6 106.2 45.1 C 106.2 43.9 106.7 42.7 107.6 41.5 C 108.6 40.3 109.6 39.7 110.7 39.7 C 111.2 39.7 111.6 39.9 112 40.3 C 112 40.3 113 35.8 113 35.8 C 113 35.5 113.2 35.3 113.3 35.2 C 113.5 35.1 113.7 35.1 113.8 35.1 C 114.1 35.1 114.2 35.3 114.2 35.9 C 114.2 36 114.1 36.4 113.9 37 C 113.6 38 113.3 39.3 113 40.7 C 112.7 42.2 112.5 43.4 112.5 44.2 C 112.5 45.1 112.7 45.6 113.1 45.6 C 113.4 45.6 113.7 45.5 113.9 45.4 C 114 45.3 114.1 45.2 114.2 45.2 C 114.4 45.2 114.5 45.3 114.5 45.5 C 114.5 45.7 114.3 46 113.9 46.3 C 113.4 46.6 113 46.8 112.6 46.8 C 111.8 46.8 111.5 46.1 111.5 44.6 C 111.5 44.6 111.5 44.6 111.5 44.6 Z M 110.6 40.7 C 109.9 40.7 109.1 41.2 108.4 42.2 C 107.7 43.2 107.3 44.1 107.3 44.9 C 107.3 45.5 107.5 45.8 107.9 45.8 C 108.3 45.8 108.7 45.6 109.2 45.2 C 109.7 44.9 110.2 44.3 110.8 43.4 C 111.3 42.6 111.6 42 111.6 41.6 C 111.6 41.4 111.5 41.2 111.3 41 C 111.1 40.8 110.9 40.7 110.6 40.7 Z M 120.5 44.2 C 119.8 45.1 119.2 45.7 118.6 46.1 C 118 46.6 117.4 46.8 116.9 46.8 C 116.5 46.8 116.2 46.6 116 46.3 C 115.7 46 115.6 45.7 115.6 45.2 C 115.6 44 116.1 42.7 117.2 41.3 C 118.2 39.9 119.3 39.2 120.4 39.2 C 120.8 39.2 121 39.5 121.2 39.9 C 121.3 40 121.4 40.1 121.5 40.1 C 121.9 40.1 122 40.3 122 40.5 C 122 40.7 122 40.9 122 41.1 C 121.7 42.5 121.6 43.4 121.6 44 C 121.6 45.1 121.8 45.7 122.2 45.9 C 122.4 46.1 122.5 46.2 122.5 46.3 C 122.5 46.5 122.4 46.6 122.2 46.8 C 122.1 46.9 121.9 47 121.7 47 C 121.3 47 121 46.8 120.8 46.3 C 120.6 45.8 120.5 45.1 120.5 44.2 Z M 120.7 41.3 C 120.7 40.7 120.5 40.4 120.1 40.4 C 119.5 40.4 118.8 40.9 118 42 C 117.2 43.2 116.8 44.1 116.8 44.9 C 116.8 45.4 116.9 45.6 117.3 45.6 C 117.8 45.6 118.5 45.1 119.4 44.1 C 120.3 43.1 120.7 42.2 120.7 41.3 C 120.7 41.3 120.7 41.3 120.7 41.3 Z M 127.5 45.1 C 127.5 44.8 127.2 44.5 126.4 44.1 C 125.5 43.6 124.9 43.3 124.5 43 C 124.2 42.7 124.1 42.4 124.1 42 C 124.1 41.1 124.5 40.4 125.4 39.8 C 126.3 39.2 127.1 38.9 127.6 38.9 C 128 38.9 128.3 38.9 128.5 39.1 C 128.6 39.2 128.7 39.4 128.7 39.7 C 128.7 39.9 128.6 40 128.5 40.1 C 128.4 40.2 128.3 40.2 128.2 40.2 C 128.2 40.2 128.1 40.2 127.9 40.1 C 127.8 40.1 127.7 40 127.7 40 C 127.4 40 127 40.2 126.3 40.5 C 125.6 40.9 125.2 41.2 125.2 41.7 C 125.2 41.9 125.3 42.2 125.6 42.4 C 125.8 42.6 126.3 42.8 126.9 43.1 C 127.4 43.4 127.8 43.6 128.1 43.9 C 128.5 44.2 128.6 44.5 128.6 44.9 C 128.6 45.6 128.1 46.1 127.2 46.5 C 126.2 46.9 125.3 47.1 124.4 47.1 C 123.7 47.1 123.3 46.9 123.3 46.4 C 123.3 46.2 123.4 46.1 123.6 46 C 123.7 45.9 123.9 45.9 124.1 45.9 C 124.1 45.9 124.3 45.9 124.4 45.9 C 124.6 46 124.8 46 124.8 46 C 125.3 46 125.9 45.9 126.4 45.8 C 127 45.6 127.4 45.4 127.5 45.1 Z " stroke="none" fill="#273582"/>  </g>  <g id="Polygon11194">    <path d="M 6.5 27.5 C 5.6 27.7 5 27.8 4.9 27.8 C 4.7 29.5 4.7 30.8 4.7 31.8 C 4.7 32.2 4.5 32.6 4.3 32.9 C 4.1 33.2 3.7 33.3 3.3 33.3 C 2.4 33.3 2 32.8 2 31.8 C 2 31.2 2.2 29.3 2.6 26.1 C 3 23.4 3.1 21.9 3.1 21.3 C 3.1 20.8 3.1 20.4 3.1 20.4 C 2.6 20.1 2.4 19.7 2.4 19.1 C 2.4 18.5 3.3 18 5.3 17.5 C 7.2 17.1 8.9 16.8 10.3 16.8 C 11.9 16.8 13.2 17.2 14.1 17.8 C 15.1 18.5 15.6 19.4 15.6 20.5 C 15.6 22.2 14.7 23.6 12.9 24.8 C 11.2 26.1 9 26.9 6.5 27.5 C 6.5 27.5 6.5 27.5 6.5 27.5 Z M 10.2 19 C 8.9 19 7.4 19.2 5.9 19.8 C 5.9 19.8 5.2 25.4 5.2 25.4 C 7.3 25.1 9.1 24.5 10.7 23.6 C 12.2 22.7 13 21.8 13 20.8 C 13 19.6 12.1 19 10.2 19 C 10.2 19 10.2 19 10.2 19 Z M 19.7 29.4 C 19.5 29.4 19.2 29.4 19.1 29.2 C 19 29.5 18.6 30.2 18 31.2 C 17.3 32.2 16.9 32.8 16.7 32.9 C 16.4 33.1 16.2 33.1 16 33.1 C 15.8 33.1 15.4 33 15.1 32.7 C 14.7 32.4 14.5 32.1 14.5 31.8 C 14.5 31.5 15.4 30 17.2 27.3 C 18.2 25.8 19.1 24.3 19.9 22.8 C 21.6 19.9 22.5 18.2 22.9 17.7 C 23.3 17.2 23.6 16.9 24 16.9 C 24.6 16.9 25.1 17.1 25.3 17.4 C 25.5 17.5 25.5 17.8 25.5 18.1 C 25.5 18.4 25.5 18.6 25.5 18.8 C 26.8 22.8 27.8 25.6 28.5 27.3 C 29.3 29 30 30.2 30.8 30.9 C 31.1 31.3 31.4 31.5 31.5 31.6 C 31.5 31.8 31.6 32 31.6 32.2 C 31.6 32.6 31.4 32.9 31.2 33.2 C 30.9 33.4 30.5 33.6 30.1 33.6 C 29.6 33.6 29 33.2 28.5 32.6 C 27.9 32 27.4 31.1 26.9 30 C 26.4 28.9 26.1 28.3 26.1 28.2 C 26.1 28.1 26.1 28.1 26.1 28.1 C 25.7 28.1 24.8 28.3 23.5 28.5 C 22.2 28.8 21.1 29.1 20.3 29.3 C 20.1 29.4 19.9 29.4 19.7 29.4 C 19.7 29.4 19.7 29.4 19.7 29.4 Z M 24.3 26.1 C 24.6 26 25 26 25.3 25.9 C 25.1 25.5 24.6 24 23.8 21.4 C 23.7 21.2 23.6 21 23.6 21 C 23.6 21 20.5 26.8 20.5 26.8 C 21 26.7 21.5 26.6 21.9 26.6 C 22.2 26.5 23 26.4 24.3 26.1 C 24.3 26.1 24.3 26.1 24.3 26.1 Z M 34.8 19.7 C 34.8 19.7 34.65 19.5 34.7 19.5 C 34.4 19.1 34.3 18.9 34.3 18.7 C 34.3 18.4 34.5 18.1 34.8 17.8 C 35.2 17.6 35.5 17.4 35.8 17.4 C 35.9 17.4 36.1 17.4 36.3 17.5 C 36.5 17.5 36.6 17.5 36.7 17.5 C 38.8 17.2 40.2 17 41.1 17 C 42.7 17 44 17.4 44.9 18.1 C 45.8 18.9 46.3 19.8 46.3 20.9 C 46.3 22 45.8 23 44.9 24 C 44 24.9 42.8 25.7 41.2 26.3 C 43.8 28.4 45.7 29.8 47 30.6 C 47.5 30.8 47.7 31.2 47.7 31.6 C 47.7 31.9 47.6 32.2 47.2 32.5 C 46.9 32.8 46.6 32.9 46.3 32.9 C 45.9 32.9 45.4 32.7 44.9 32.4 C 44.4 32 43.6 31.5 42.7 30.7 C 41.7 29.9 41.1 29.5 41 29.3 C 39.6 28.2 38.7 27.4 38 27 C 37.3 27 36.9 26.7 36.9 25.9 C 36.9 25.6 37.1 25.3 37.4 25 C 37.8 24.8 38.1 24.6 38.6 24.6 C 38.7 24.6 38.8 24.6 39 24.7 C 39.1 24.7 39.2 24.7 39.3 24.7 C 39.7 24.7 40.6 24.4 41.8 23.6 C 43 22.8 43.7 21.9 43.7 20.9 C 43.7 20.4 43.4 20 42.9 19.7 C 42.4 19.3 41.7 19.1 40.9 19.1 C 39.9 19.1 39.2 19.2 38.6 19.3 C 38 19.4 37.7 19.5 37.6 19.5 C 37.6 19.6 37.5 19.7 37.4 19.9 C 37.4 20 37.2 20.8 37 22.1 C 36.7 23.4 36.5 24.8 36.3 26.3 C 36.1 27.9 36 29 36 29.7 C 36 30.2 36 30.6 36.1 31 C 36.2 31.4 36.2 31.7 36.2 32 C 36.2 32.2 36.1 32.5 35.8 32.8 C 35.5 33.1 35.1 33.2 34.8 33.2 C 33.8 33.2 33.3 32.6 33.3 31.2 C 33.3 30.1 33.4 28.5 33.6 26.5 C 33.9 24.5 34.2 22.7 34.5 21.2 C 34.6 20.9 34.6 20.7 34.6 20.5 C 34.64 20.52 34.8 19.7 34.8 19.7 Z M 52.8 29.4 C 52.5 29.4 52.3 29.4 52.1 29.2 C 52 29.5 51.6 30.2 51 31.2 C 50.4 32.2 50 32.8 49.7 32.9 C 49.5 33.1 49.3 33.1 49.1 33.1 C 48.8 33.1 48.5 33 48.1 32.7 C 47.8 32.4 47.6 32.1 47.6 31.8 C 47.6 31.5 48.5 30 50.3 27.3 C 51.3 25.8 52.2 24.3 53 22.8 C 54.6 19.9 55.6 18.2 56 17.7 C 56.3 17.2 56.7 16.9 57.1 16.9 C 57.7 16.9 58.1 17.1 58.4 17.4 C 58.5 17.5 58.6 17.8 58.6 18.1 C 58.6 18.4 58.6 18.6 58.5 18.8 C 59.8 22.8 60.9 25.6 61.6 27.3 C 62.3 29 63.1 30.2 63.8 30.9 C 64.2 31.3 64.4 31.5 64.5 31.6 C 64.6 31.8 64.6 32 64.6 32.2 C 64.6 32.6 64.5 32.9 64.2 33.2 C 63.9 33.4 63.6 33.6 63.2 33.6 C 62.6 33.6 62.1 33.2 61.5 32.6 C 61 32 60.4 31.1 59.9 30 C 59.4 28.9 59.2 28.3 59.2 28.2 C 59.2 28.1 59.2 28.1 59.1 28.1 C 58.7 28.1 57.9 28.3 56.6 28.5 C 55.2 28.8 54.1 29.1 53.3 29.3 C 53.1 29.4 52.9 29.4 52.8 29.4 C 52.8 29.4 52.8 29.4 52.8 29.4 Z M 57.4 26.1 C 57.7 26 58 26 58.3 25.9 C 58.2 25.5 57.6 24 56.8 21.4 C 56.7 21.2 56.7 21 56.6 21 C 56.6 21 53.6 26.8 53.6 26.8 C 54 26.7 54.5 26.6 55 26.6 C 55.3 26.5 56.1 26.4 57.4 26.1 C 57.4 26.1 57.4 26.1 57.4 26.1 Z M 88.9 25.8 C 88.7 26.3 88.5 26.8 88.4 27.4 C 88.4 27.4 88.4 27.4 88.4 27.4 C 88.2 28 88 28.8 87.9 29.8 C 87.7 30.7 87.6 31.5 87.6 31.9 C 87.6 32.7 87.6 33.3 87.6 33.6 C 87.6 33.9 87.5 34.2 87.4 34.4 C 87.3 34.6 87.1 34.7 86.9 34.9 C 86.7 35 86.5 35 86.3 35 C 85.9 35 85.5 34.9 85.2 34.6 C 84.9 34.3 84.7 34 84.7 33.7 C 84.7 33.5 84.8 33 85 32.1 C 85.2 31.3 85.3 30.6 85.4 30 C 83 31.7 80.9 32.6 79 32.6 C 77.7 32.6 76.7 32.3 75.9 31.5 C 75.2 30.8 74.8 29.8 74.8 28.5 C 74.8 26.4 75.4 24.4 76.6 22.6 C 76.6 22.6 76.6 22.6 76.6 22.6 C 78 20.6 79.5 19.1 81.3 17.9 C 83.1 16.8 84.9 16.2 86.6 16.2 C 87.6 16.2 88.3 16.4 88.8 16.7 C 89.4 17.1 89.6 17.5 89.6 18 C 89.6 18.5 89.5 19 89.1 19.5 C 88.7 20 88.4 20.3 88 20.3 C 87.7 20.3 87.6 20.2 87.5 20.1 C 87.3 20 87.2 19.9 87.1 19.6 C 87 19.2 86.8 19 86.6 18.9 C 86.5 18.7 86.2 18.7 85.9 18.7 C 84.8 18.7 83.5 19.2 82.1 20.3 C 80.7 21.4 79.6 22.6 78.7 24.1 C 77.9 25.6 77.4 27 77.4 28.3 C 77.4 29.7 78 30.4 79.2 30.4 C 79.8 30.4 80.6 30.2 81.5 29.9 C 82.3 29.6 83.2 29.1 84.2 28.4 C 85.2 27.7 85.8 27.1 86 26.5 C 86.2 25.9 86.3 25.3 86.4 24.6 C 86.5 24.2 86.6 24 86.9 23.8 C 87.1 23.7 87.5 23.6 87.9 23.6 C 88.8 23.6 89.3 24 89.3 24.6 C 89.3 24.9 89.1 25.3 88.9 25.8 C 88.9 25.8 88.9 25.8 88.9 25.8 Z M 104.4 19.4 C 104.4 19.4 101.1 19.5 101.1 19.5 C 100 19.6 99 19.7 98.1 19.8 C 97.3 20 96.9 20.1 96.8 20.2 C 96.7 20.2 96.7 20.5 96.6 20.8 C 96.6 21.2 96.5 21.8 96.3 22.7 C 96.1 23.4 96 24 95.9 24.4 C 96.4 24.4 97.1 24.4 97.9 24.3 C 98.8 24.2 99.4 24.1 99.7 24 C 100.8 23.8 101.6 23.6 102.1 23.6 C 103.3 23.6 103.8 24 103.8 24.6 C 103.8 25.1 103.7 25.5 103.4 25.7 C 103 25.9 102.6 26 101.9 26.1 C 101.5 26.1 101 26.2 100.5 26.2 C 100.2 26.3 99.9 26.3 99.5 26.4 C 97.5 26.6 96.3 26.8 95.9 26.9 C 95.9 26.9 95.9 26.9 95.9 26.9 C 95.8 26.9 95.7 27 95.7 27.2 C 95.6 27.3 95.5 27.8 95.3 28.8 C 95.2 29.7 95.1 30.3 95.1 30.7 C 95.1 31 95.3 31.1 95.6 31.1 C 95.9 31.1 96.8 31 98.3 30.8 C 99.8 30.6 100.7 30.5 101 30.4 C 102 30.2 102.7 30.1 103 30.1 C 103.9 30.3 104.3 30.7 104.3 31.4 C 104.3 31.7 104.2 32 104 32.1 C 103.3 32.5 102.3 32.7 101 32.7 C 100 32.8 98.8 32.9 97.5 33.1 C 96.2 33.4 95 33.5 93.9 33.5 C 93.3 33.5 92.9 33.4 92.7 33.1 C 92.4 32.9 92.3 32.5 92.2 32 C 92.2 32 92.2 31.6 92.2 31.6 C 92.2 31.6 92.2 31.4 92.4 31 C 92.6 30.1 93 28.1 93.4 25.1 C 93.8 22.1 94 20.4 94 20 C 94 20 94 20 94 19.9 C 93.9 19.9 93.8 19.8 93.7 19.5 C 93.6 19.3 93.5 19.1 93.5 18.8 C 93.5 18.7 93.6 18.6 93.6 18.5 C 93.6 18.4 93.8 18.2 94 18 C 94.3 17.9 94.6 17.8 94.8 17.8 C 95.2 17.8 95.5 17.8 95.9 17.9 C 96.4 17.9 98.4 17.7 101.7 17.2 C 102.7 17.1 103.3 17 103.4 17 C 103.4 17 103.5 17 103.5 17 C 104.8 16.9 105.4 17.3 105.4 18.3 C 105.4 18.4 105.3 18.6 105.1 18.9 C 104.9 19.2 104.6 19.3 104.4 19.4 Z M 107.6 29.2 C 107.6 29.2 108.37 25.54 108.4 25.5 C 109 22.7 109.3 20.7 109.3 19.5 C 109.3 19 109.4 18.6 109.4 18.4 C 109.5 18.2 109.7 18 109.9 17.9 C 110.2 17.7 110.5 17.6 110.8 17.6 C 111.1 17.6 111.3 17.7 111.6 17.8 C 111.9 17.9 112.1 18.4 112.3 19.2 C 112.6 20.4 113.4 22.1 114.7 24.1 C 115.9 26.2 117 27.8 118 29 C 118.3 27.8 118.6 26.2 118.9 24.2 C 119.2 22.8 119.4 21.6 119.6 20.6 C 119.7 19.7 119.8 19 119.9 18.3 C 119.9 17.7 120.1 17.3 120.4 17 C 120.8 16.8 121.1 16.7 121.5 16.7 C 121.8 16.7 122 16.9 122.2 17.2 C 122.4 17.5 122.5 17.9 122.5 18.4 C 122.5 18.8 122.4 19.4 122.2 20.1 C 121.8 21.7 121.3 23.8 120.9 26.4 C 120.5 29 120.3 30.5 120.3 30.9 C 120.3 30.9 120.3 31.2 120.3 31.2 C 120.3 31.6 120.2 31.9 120.2 32.1 C 120.1 32.3 119.9 32.5 119.6 32.7 C 119.4 32.9 119 33 118.6 33 C 118.3 33 118.1 32.9 118 32.9 C 117.9 32.8 117.7 32.7 117.5 32.5 C 117.3 32.2 117.1 31.9 116.9 31.5 C 116.5 30.9 116.3 30.5 116.1 30.3 C 114.4 28.1 112.8 25.6 111.2 22.7 C 111 23.6 110.6 25.6 110.2 28.9 C 110.2 28.9 110.1 29.9 110.1 29.9 C 110 30.2 109.9 30.7 109.9 31.3 C 109.9 32.1 109.7 32.7 109.4 33 C 109 33.3 108.7 33.5 108.4 33.5 C 108 33.5 107.6 33.4 107.4 33.1 C 107.2 32.9 107.1 32.4 107.1 31.7 C 107.1 31.1 107.3 30.3 107.6 29.2 C 107.57 29.22 107.6 29.2 107.6 29.2 Z M 136.9 19.6 C 135.1 19.6 133.8 19.7 133.1 20 C 133 20 133 20.2 132.9 20.4 C 132.9 20.7 132.7 21.9 132.5 24.1 C 132.3 26.3 132.1 28.1 132.1 29.4 C 132.1 29.9 132.2 30.6 132.3 31.2 C 132.4 31.3 132.4 31.4 132.4 31.6 C 132.4 32 132.3 32.3 132 32.6 C 131.8 32.9 131.5 33.1 131.2 33.1 C 130.9 33.1 130.6 33 130.3 32.7 C 129.9 32.5 129.7 32.1 129.6 31.5 C 129.6 31 129.5 30.3 129.5 29.4 C 129.5 28.1 129.7 26.3 130 23.9 C 130.2 21.5 130.4 20.2 130.5 20.2 C 130.3 20.2 129.5 20.2 128.1 20.3 C 126.7 20.5 125.8 20.5 125.6 20.5 C 124.9 20.5 124.4 20.4 124.1 20.2 C 123.8 20 123.6 19.7 123.6 19.3 C 123.6 19 123.8 18.7 124.1 18.5 C 124.4 18.3 125.2 18.2 126.4 18.2 C 128.5 18.2 130.5 18.1 132.5 17.8 C 134.7 17.4 136.4 17.3 137.6 17.3 C 138.9 17.3 139.6 17.4 139.9 17.7 C 140.2 18 140.3 18.3 140.3 18.6 C 140.3 19.3 140 19.7 139.4 19.7 C 139.2 19.7 138.9 19.7 138.4 19.6 C 138 19.6 137.5 19.6 136.9 19.6 C 136.9 19.6 136.9 19.6 136.9 19.6 Z M 151.9 19.4 C 151.9 19.4 148.6 19.5 148.6 19.5 C 147.4 19.6 146.5 19.7 145.6 19.8 C 144.8 20 144.3 20.1 144.3 20.2 C 144.2 20.2 144.2 20.5 144.1 20.8 C 144.1 21.2 144 21.8 143.7 22.7 C 143.6 23.4 143.5 24 143.4 24.4 C 143.9 24.4 144.5 24.4 145.4 24.3 C 146.3 24.2 146.9 24.1 147.2 24 C 148.3 23.8 149.1 23.6 149.6 23.6 C 150.7 23.6 151.3 24 151.3 24.6 C 151.3 25.1 151.2 25.5 150.8 25.7 C 150.5 25.9 150 26 149.4 26.1 C 148.9 26.1 148.5 26.2 148 26.2 C 147.7 26.3 147.4 26.3 146.9 26.4 C 145 26.6 143.8 26.8 143.4 26.9 C 143.4 26.9 143.4 26.9 143.4 26.9 C 143.3 26.9 143.2 27 143.1 27.2 C 143.1 27.3 143 27.8 142.8 28.8 C 142.7 29.7 142.6 30.3 142.6 30.7 C 142.6 31 142.8 31.1 143.1 31.1 C 143.4 31.1 144.3 31 145.8 30.8 C 147.3 30.6 148.2 30.5 148.5 30.4 C 149.5 30.2 150.1 30.1 150.4 30.1 C 151.3 30.3 151.8 30.7 151.8 31.4 C 151.8 31.7 151.7 32 151.5 32.1 C 150.8 32.5 149.8 32.7 148.5 32.7 C 147.5 32.8 146.3 32.9 144.9 33.1 C 143.7 33.4 142.5 33.5 141.4 33.5 C 140.8 33.5 140.4 33.4 140.2 33.1 C 139.9 32.9 139.7 32.5 139.7 32 C 139.7 32 139.7 31.6 139.7 31.6 C 139.7 31.6 139.7 31.4 139.8 31 C 140.1 30.1 140.5 28.1 140.9 25.1 C 141.3 22.1 141.5 20.4 141.5 20 C 141.5 20 141.5 20 141.5 19.9 C 141.4 19.9 141.3 19.8 141.2 19.5 C 141.1 19.3 141 19.1 141 18.8 C 141 18.7 141 18.6 141.1 18.5 C 141.1 18.4 141.2 18.2 141.5 18 C 141.8 17.9 142.1 17.8 142.3 17.8 C 142.6 17.8 143 17.8 143.3 17.9 C 143.9 17.9 145.9 17.7 149.1 17.2 C 150.2 17.1 150.8 17 150.8 17 C 150.8 17 151 17 151 17 C 152.3 16.9 152.9 17.3 152.9 18.3 C 152.9 18.4 152.8 18.6 152.6 18.9 C 152.3 19.2 152.1 19.3 151.9 19.4 Z M 157.4 26.2 C 157.4 26.7 157.3 27.2 157.1 27.5 C 156.3 27.5 155.8 27.4 155.4 27.1 C 155.3 25.7 155.4 24.3 155.7 22.8 C 156 21.2 156.2 20 156.2 19.2 C 156.2 19.1 156.3 18.8 156.3 18.3 C 156.4 17.8 156.6 17.4 157 17.1 C 157.4 16.9 157.7 16.7 158 16.7 C 158.3 16.7 158.5 16.8 158.8 17 C 159.1 17.2 159.2 17.5 159.2 17.7 C 159.2 17.9 159.1 18.7 158.8 20 C 158.5 21.2 158.2 22.4 157.9 23.5 C 157.6 24.6 157.4 25.5 157.4 26.2 C 157.4 26.2 157.4 26.2 157.4 26.2 Z M 155.5 32.5 C 154.7 32.5 154.4 32.1 154.4 31.2 C 154.4 30.8 154.5 30.5 154.8 30 C 155.2 29.6 155.5 29.4 155.9 29.4 C 156.1 29.4 156.4 29.5 156.8 29.7 C 157.2 30 157.3 30.2 157.3 30.3 C 157.3 30.3 157.2 31 157.2 31 C 157.2 31.5 156.9 31.9 156.5 32.1 C 156.1 32.4 155.8 32.5 155.5 32.5 Z " stroke="none" fill="#273582"/>  </g>  <g id="Polygon11193">    <path d="M 16.5 7.6 C 16.6 7.3 16.6 7 16.7 6.9 C 16.7 6.9 13.1 11.7 13.1 11.7 C 11.4 14 10.2 15.2 9.3 15.2 C 8.8 15.2 8.5 14.9 8.2 14.5 C 7.8 14 7.5 13.3 7.2 12.3 C 6.8 11.3 6.6 10.6 6.5 10.1 C 6.1 8.9 5.9 8.2 5.8 8.1 C 5.8 8.1 5.3 10.9 5.3 10.9 C 5.1 11.8 4.9 12.6 4.8 13.4 C 4.6 14.1 4.4 15 4.2 16.1 C 4 17.2 3.8 18 3.8 18.5 C 3.8 18.7 3.6 18.9 3.3 19.1 C 2.9 19.3 2.7 19.4 2.5 19.4 C 2.2 19.4 1.9 19.2 1.6 18.9 C 1.3 18.6 1.1 18.3 1.1 18 C 1.1 17.3 1.3 16.4 1.5 15.4 C 2.7 11 3.4 8.3 3.6 7.2 C 3.7 6 3.8 5.1 3.8 4.4 C 3.8 4 4 3.7 4.3 3.5 C 4.7 3.3 5.1 3.2 5.7 3.2 C 5.9 3.2 6.2 3.4 6.5 3.7 C 6.8 4.1 7 4.5 7.1 4.8 C 7.11 4.81 7.1 4.8 7.1 4.8 C 7.1 4.8 8.59 8.97 8.6 9 C 9.2 10.6 9.6 11.7 9.8 12.1 C 10.6 11.3 11.7 9.9 13.2 7.8 C 14.7 5.7 15.8 4.4 16.3 3.8 C 16.9 3.2 17.3 2.9 17.5 2.9 C 17.9 2.9 18.3 3 18.7 3.3 C 19.1 3.6 19.3 3.9 19.3 4.1 C 19.3 4.2 19.2 5.3 18.9 7.3 C 18.7 8.7 18.5 10.3 18.4 12.1 C 18.2 13.8 18.2 14.8 18.2 15.1 C 18.2 15.5 18.2 15.9 18.3 16.3 C 18.4 16.7 18.4 17 18.4 17.2 C 18.4 17.9 18.3 18.4 18 18.7 C 17.8 18.9 17.4 19.1 16.9 19.1 C 16 19.1 15.5 18.4 15.5 17 C 15.5 15.6 15.6 14 15.9 12.1 C 16.1 10.1 16.3 8.7 16.5 7.6 C 16.5 7.6 16.5 7.6 16.5 7.6 Z M 25.8 15.4 C 25.5 15.4 25.3 15.4 25.1 15.2 C 25 15.5 24.6 16.2 24 17.2 C 23.4 18.2 22.9 18.8 22.7 18.9 C 22.4 19.1 22.2 19.1 22 19.1 C 21.8 19.1 21.5 19 21.1 18.7 C 20.8 18.4 20.6 18.1 20.6 17.8 C 20.6 17.5 21.5 16 23.3 13.3 C 24.2 11.8 25.1 10.3 26 8.8 C 27.6 5.9 28.6 4.2 28.9 3.7 C 29.3 3.2 29.7 2.9 30 2.9 C 30.7 2.9 31.1 3.1 31.4 3.4 C 31.5 3.5 31.6 3.8 31.6 4.1 C 31.6 4.4 31.5 4.6 31.5 4.8 C 32.8 8.8 33.8 11.6 34.6 13.3 C 35.3 15 36.1 16.2 36.8 16.9 C 37.2 17.3 37.4 17.5 37.5 17.6 C 37.6 17.8 37.6 18 37.6 18.2 C 37.6 18.6 37.5 18.9 37.2 19.2 C 36.9 19.4 36.6 19.6 36.2 19.6 C 35.6 19.6 35.1 19.2 34.5 18.6 C 33.9 18 33.4 17.1 32.9 16 C 32.4 14.9 32.2 14.3 32.2 14.2 C 32.2 14.1 32.1 14.1 32.1 14.1 C 31.7 14.1 30.9 14.3 29.5 14.5 C 28.2 14.8 27.1 15.1 26.3 15.3 C 26.1 15.4 25.9 15.4 25.8 15.4 C 25.8 15.4 25.8 15.4 25.8 15.4 Z M 30.4 12.1 C 30.7 12 31 12 31.3 11.9 C 31.1 11.5 30.6 10 29.8 7.4 C 29.7 7.2 29.6 7 29.6 7 C 29.6 7 26.6 12.8 26.6 12.8 C 27 12.7 27.5 12.6 28 12.6 C 28.3 12.5 29.1 12.4 30.4 12.1 C 30.4 12.1 30.4 12.1 30.4 12.1 Z M 39.7 15.2 C 39.7 15.2 40.51 11.54 40.5 11.5 C 41.1 8.7 41.4 6.7 41.5 5.5 C 41.5 5 41.5 4.6 41.6 4.4 C 41.6 4.2 41.8 4 42.1 3.9 C 42.3 3.7 42.6 3.6 43 3.6 C 43.2 3.6 43.5 3.7 43.8 3.8 C 44 3.9 44.3 4.4 44.5 5.2 C 44.8 6.4 45.6 8.1 46.8 10.1 C 48.1 12.2 49.2 13.8 50.2 15 C 50.5 13.8 50.8 12.2 51.1 10.2 C 51.3 8.8 51.5 7.6 51.7 6.6 C 51.9 5.7 52 5 52 4.3 C 52.1 3.7 52.2 3.3 52.6 3 C 52.9 2.8 53.3 2.7 53.6 2.7 C 53.9 2.7 54.2 2.9 54.4 3.2 C 54.6 3.5 54.7 3.9 54.7 4.4 C 54.7 4.8 54.6 5.4 54.4 6.1 C 53.9 7.7 53.5 9.8 53.1 12.4 C 52.6 15 52.4 16.5 52.4 16.9 C 52.4 16.9 52.4 17.2 52.4 17.2 C 52.4 17.6 52.4 17.9 52.3 18.1 C 52.2 18.3 52.1 18.5 51.8 18.7 C 51.5 18.9 51.1 19 50.7 19 C 50.4 19 50.2 18.9 50.1 18.9 C 50 18.8 49.9 18.7 49.7 18.5 C 49.4 18.2 49.2 17.9 49 17.5 C 48.7 16.9 48.4 16.5 48.3 16.3 C 46.5 14.1 44.9 11.6 43.3 8.7 C 43.1 9.6 42.8 11.6 42.3 14.9 C 42.3 14.9 42.2 15.9 42.2 15.9 C 42.1 16.2 42.1 16.7 42 17.3 C 42 18.1 41.8 18.7 41.5 19 C 41.2 19.3 40.9 19.5 40.6 19.5 C 40.1 19.5 39.8 19.4 39.6 19.1 C 39.4 18.9 39.3 18.4 39.3 17.7 C 39.3 17.1 39.4 16.3 39.7 15.2 C 39.71 15.22 39.7 15.2 39.7 15.2 Z M 57.6 17 C 57.7 16.6 57.8 16 57.8 15.1 C 58 12.6 58.3 10 58.7 7.3 C 58.9 6.7 58.9 6.2 58.9 5.9 C 58.9 5.8 58.9 5.7 58.7 5.7 C 58 5.5 57.6 5.2 57.6 4.7 C 57.6 4.4 57.8 4 58.1 3.7 C 58.4 3.4 58.7 3.3 59.1 3.3 C 59.1 3.3 60.5 3.3 60.5 3.3 C 61.2 3.3 62.1 3.3 63.2 3.2 C 64.2 3.1 65 3.1 65.6 3.1 C 67.6 3.1 69.2 3.6 70.5 4.7 C 71.7 5.9 72.3 7.3 72.3 9.2 C 72.3 11.2 71.4 13.1 69.5 14.8 C 67.6 16.4 65.3 17.6 62.6 18.2 C 61.8 18.3 61.3 18.5 61 18.6 C 60.7 18.7 60.4 18.9 60 19.1 C 59.5 19.5 59 19.6 58.6 19.6 C 58.2 19.6 57.9 19.5 57.6 19.1 C 57.3 18.8 57.2 18.5 57.2 18.3 C 57.2 18.1 57.2 17.9 57.4 17.6 C 57.4 17.6 57.6 17 57.6 17 Z M 60.4 15.7 C 60.4 16 60.4 16.3 60.4 16.4 C 60.8 16.4 61.9 16.1 63.7 15.6 C 65.5 15 66.9 14.2 68.1 13 C 69.2 11.9 69.7 10.6 69.7 9.1 C 69.7 7.9 69.3 7 68.5 6.3 C 67.7 5.6 66.6 5.2 65.2 5.2 C 64.3 5.2 63.2 5.3 61.9 5.5 C 61.8 5.5 61.6 5.5 61.5 5.5 C 60.8 10.3 60.4 13.7 60.4 15.7 C 60.4 15.7 60.4 15.7 60.4 15.7 Z M 86.7 5.4 C 86.7 5.4 83.4 5.5 83.4 5.5 C 82.3 5.6 81.3 5.7 80.5 5.8 C 79.6 6 79.2 6.1 79.1 6.2 C 79 6.2 79 6.5 79 6.8 C 78.9 7.2 78.8 7.8 78.6 8.7 C 78.4 9.4 78.3 10 78.3 10.4 C 78.7 10.4 79.4 10.4 80.2 10.3 C 81.1 10.2 81.7 10.1 82.1 10 C 83.1 9.8 83.9 9.6 84.5 9.6 C 85.6 9.6 86.2 10 86.2 10.6 C 86.2 11.1 86 11.5 85.7 11.7 C 85.4 11.9 84.9 12 84.2 12.1 C 83.8 12.1 83.3 12.2 82.8 12.2 C 82.5 12.3 82.2 12.3 81.8 12.4 C 79.8 12.6 78.6 12.8 78.3 12.9 C 78.3 12.9 78.3 12.9 78.3 12.9 C 78.1 12.9 78 13 78 13.2 C 77.9 13.3 77.8 13.8 77.7 14.8 C 77.5 15.7 77.4 16.3 77.4 16.7 C 77.5 17 77.6 17.1 77.9 17.1 C 78.3 17.1 79.2 17 80.6 16.8 C 82.1 16.6 83 16.5 83.3 16.4 C 84.3 16.2 85 16.1 85.3 16.1 C 86.2 16.3 86.6 16.7 86.6 17.4 C 86.6 17.7 86.5 18 86.3 18.1 C 85.6 18.5 84.6 18.7 83.3 18.7 C 82.4 18.8 81.2 18.9 79.8 19.1 C 78.5 19.4 77.4 19.5 76.2 19.5 C 75.7 19.5 75.2 19.4 75 19.1 C 74.7 18.9 74.6 18.5 74.5 18 C 74.5 18 74.5 17.6 74.5 17.6 C 74.5 17.6 74.6 17.4 74.7 17 C 75 16.1 75.3 14.1 75.7 11.1 C 76.1 8.1 76.4 6.4 76.4 6 C 76.4 6 76.3 6 76.3 5.9 C 76.2 5.9 76.2 5.8 76 5.5 C 75.9 5.3 75.9 5.1 75.9 4.8 C 75.9 4.7 75.9 4.6 75.9 4.5 C 75.9 4.4 76.1 4.2 76.4 4 C 76.6 3.9 76.9 3.8 77.2 3.8 C 77.5 3.8 77.8 3.8 78.2 3.9 C 78.8 3.9 80.7 3.7 84 3.2 C 85.1 3.1 85.6 3 85.7 3 C 85.7 3 85.8 3 85.8 3 C 87.1 2.9 87.8 3.3 87.8 4.3 C 87.8 4.4 87.6 4.6 87.4 4.9 C 87.2 5.2 87 5.3 86.7 5.4 Z M 104.5 19.4 C 103.8 19.4 102.9 19.2 101.8 18.7 C 100.8 18.2 100 17.4 99.4 16.2 C 98.9 15.1 98.6 13.9 98.6 12.5 C 98.6 11.8 98.7 10.9 98.9 9.8 C 98.9 9.8 99.2 7.8 99.2 7.8 C 99.3 7.5 99.3 7.2 99.4 6.9 C 99.5 6.4 99.5 5.9 99.6 5.4 C 99.7 4.6 99.9 4 100.1 3.6 C 100.4 3.2 100.8 3.1 101.3 3.1 C 101.6 3.1 101.8 3.3 102.1 3.7 C 102.4 4.1 102.5 4.4 102.5 4.6 C 102.5 4.7 102.3 5.5 102 7 C 101.9 7.3 101.7 8.2 101.5 9.6 C 101.3 11 101.2 11.9 101.2 12.4 C 101.2 14.2 101.6 15.5 102.4 16.1 C 103.2 16.7 103.9 17.1 104.4 17.1 C 106.3 17.1 107.5 16.7 108.2 15.9 C 108.9 15.1 109.3 13.8 109.5 12.1 C 109.6 11.8 109.6 11.5 109.7 11.2 C 109.7 10.4 109.8 9.7 109.8 9.1 C 110 6.5 110.3 5 110.6 4.3 C 110.9 3.7 111.4 3.4 112 3.4 C 112.7 3.4 113.1 3.9 113.1 4.8 C 113.1 5.4 113 6.5 112.7 8 C 112.5 9 112.4 9.9 112.4 10.8 C 112.2 13 111.9 14.5 111.5 15.6 C 111 16.6 110.2 17.5 108.9 18.2 C 107.7 19 106.2 19.4 104.5 19.4 Z M 130.3 7.6 C 130.4 7.3 130.5 7 130.5 6.9 C 130.5 6.9 126.9 11.7 126.9 11.7 C 125.2 14 124 15.2 123.1 15.2 C 122.7 15.2 122.3 14.9 122 14.5 C 121.6 14 121.3 13.3 121 12.3 C 120.6 11.3 120.4 10.6 120.3 10.1 C 120 8.9 119.8 8.2 119.6 8.1 C 119.6 8.1 119.1 10.9 119.1 10.9 C 118.9 11.8 118.8 12.6 118.6 13.4 C 118.4 14.1 118.2 15 118 16.1 C 117.8 17.2 117.6 18 117.6 18.5 C 117.6 18.7 117.4 18.9 117.1 19.1 C 116.8 19.3 116.5 19.4 116.3 19.4 C 116 19.4 115.7 19.2 115.4 18.9 C 115.1 18.6 114.9 18.3 114.9 18 C 114.9 17.3 115.1 16.4 115.4 15.4 C 116.5 11 117.2 8.3 117.4 7.2 C 117.6 6 117.6 5.1 117.6 4.4 C 117.6 4 117.8 3.7 118.1 3.5 C 118.5 3.3 118.9 3.2 119.5 3.2 C 119.8 3.2 120.1 3.4 120.3 3.7 C 120.6 4.1 120.8 4.5 120.9 4.8 C 120.92 4.81 120.9 4.8 120.9 4.8 C 120.9 4.8 122.41 8.97 122.4 9 C 123 10.6 123.4 11.7 123.6 12.1 C 124.4 11.3 125.5 9.9 127 7.8 C 128.6 5.7 129.6 4.4 130.2 3.8 C 130.7 3.2 131.1 2.9 131.3 2.9 C 131.7 2.9 132.1 3 132.5 3.3 C 132.9 3.6 133.1 3.9 133.1 4.1 C 133.1 4.2 133 5.3 132.7 7.3 C 132.5 8.7 132.4 10.3 132.2 12.1 C 132 13.8 132 14.8 132 15.1 C 132 15.5 132 15.9 132.1 16.3 C 132.2 16.7 132.2 17 132.2 17.2 C 132.2 17.9 132.1 18.4 131.9 18.7 C 131.6 18.9 131.2 19.1 130.7 19.1 C 129.8 19.1 129.3 18.4 129.3 17 C 129.3 15.6 129.4 14 129.7 12.1 C 129.9 10.1 130.1 8.7 130.3 7.6 C 130.3 7.6 130.3 7.6 130.3 7.6 Z M 157.1 5.4 C 157.1 5.4 153.8 5.5 153.8 5.5 C 152.7 5.6 151.7 5.7 150.8 5.8 C 150 6 149.6 6.1 149.5 6.2 C 149.4 6.2 149.4 6.5 149.3 6.8 C 149.3 7.2 149.2 7.8 149 8.7 C 148.8 9.4 148.7 10 148.6 10.4 C 149.1 10.4 149.8 10.4 150.6 10.3 C 151.5 10.2 152.1 10.1 152.4 10 C 153.5 9.8 154.3 9.6 154.8 9.6 C 156 9.6 156.5 10 156.5 10.6 C 156.5 11.1 156.4 11.5 156.1 11.7 C 155.7 11.9 155.3 12 154.6 12.1 C 154.2 12.1 153.7 12.2 153.2 12.2 C 152.9 12.3 152.6 12.3 152.2 12.4 C 150.2 12.6 149 12.8 148.7 12.9 C 148.7 12.9 148.6 12.9 148.6 12.9 C 148.5 12.9 148.4 13 148.4 13.2 C 148.3 13.3 148.2 13.8 148 14.8 C 147.9 15.7 147.8 16.3 147.8 16.7 C 147.8 17 148 17.1 148.3 17.1 C 148.6 17.1 149.5 17 151 16.8 C 152.5 16.6 153.4 16.5 153.7 16.4 C 154.7 16.2 155.4 16.1 155.7 16.1 C 156.6 16.3 157 16.7 157 17.4 C 157 17.7 156.9 18 156.7 18.1 C 156 18.5 155 18.7 153.7 18.7 C 152.7 18.8 151.6 18.9 150.2 19.1 C 148.9 19.4 147.7 19.5 146.6 19.5 C 146.1 19.5 145.6 19.4 145.4 19.1 C 145.1 18.9 145 18.5 144.9 18 C 144.9 18 144.9 17.6 144.9 17.6 C 144.9 17.6 144.9 17.4 145.1 17 C 145.3 16.1 145.7 14.1 146.1 11.1 C 146.5 8.1 146.7 6.4 146.7 6 C 146.7 6 146.7 6 146.7 5.9 C 146.6 5.9 146.5 5.8 146.4 5.5 C 146.3 5.3 146.2 5.1 146.2 4.8 C 146.2 4.7 146.3 4.6 146.3 4.5 C 146.3 4.4 146.5 4.2 146.7 4 C 147 3.9 147.3 3.8 147.5 3.8 C 147.9 3.8 148.2 3.8 148.6 3.9 C 149.1 3.9 151.1 3.7 154.4 3.2 C 155.4 3.1 156 3 156.1 3 C 156.1 3 156.2 3 156.2 3 C 157.5 2.9 158.1 3.3 158.1 4.3 C 158.1 4.4 158 4.6 157.8 4.9 C 157.6 5.2 157.3 5.3 157.1 5.4 Z M 174.9 7.6 C 175 7.3 175 7 175.1 6.9 C 175.1 6.9 171.5 11.7 171.5 11.7 C 169.8 14 168.5 15.2 167.7 15.2 C 167.2 15.2 166.9 14.9 166.5 14.5 C 166.2 14 165.9 13.3 165.6 12.3 C 165.2 11.3 165 10.6 164.8 10.1 C 164.5 8.9 164.3 8.2 164.2 8.1 C 164.2 8.1 163.7 10.9 163.7 10.9 C 163.5 11.8 163.3 12.6 163.2 13.4 C 163 14.1 162.8 15 162.6 16.1 C 162.4 17.2 162.2 18 162.2 18.5 C 162.2 18.7 162 18.9 161.7 19.1 C 161.3 19.3 161.1 19.4 160.9 19.4 C 160.6 19.4 160.3 19.2 160 18.9 C 159.7 18.6 159.5 18.3 159.5 18 C 159.5 17.3 159.7 16.4 159.9 15.4 C 161.1 11 161.8 8.3 162 7.2 C 162.1 6 162.2 5.1 162.2 4.4 C 162.2 4 162.4 3.7 162.7 3.5 C 163.1 3.3 163.5 3.2 164 3.2 C 164.3 3.2 164.6 3.4 164.9 3.7 C 165.2 4.1 165.4 4.5 165.5 4.8 C 165.5 4.81 165.5 4.8 165.5 4.8 C 165.5 4.8 166.99 8.97 167 9 C 167.6 10.6 168 11.7 168.2 12.1 C 169 11.3 170.1 9.9 171.6 7.8 C 173.1 5.7 174.2 4.4 174.7 3.8 C 175.3 3.2 175.7 2.9 175.9 2.9 C 176.3 2.9 176.7 3 177.1 3.3 C 177.5 3.6 177.7 3.9 177.7 4.1 C 177.7 4.2 177.6 5.3 177.3 7.3 C 177.1 8.7 176.9 10.3 176.8 12.1 C 176.6 13.8 176.5 14.8 176.5 15.1 C 176.5 15.5 176.6 15.9 176.7 16.3 C 176.8 16.7 176.8 17 176.8 17.2 C 176.8 17.9 176.7 18.4 176.4 18.7 C 176.2 18.9 175.8 19.1 175.3 19.1 C 174.4 19.1 173.9 18.4 173.9 17 C 173.9 15.6 174 14 174.2 12.1 C 174.5 10.1 174.7 8.7 174.9 7.6 C 174.9 7.6 174.9 7.6 174.9 7.6 Z M 184.2 15.4 C 183.9 15.4 183.7 15.4 183.5 15.2 C 183.4 15.5 183 16.2 182.4 17.2 C 181.8 18.2 181.3 18.8 181.1 18.9 C 180.8 19.1 180.6 19.1 180.4 19.1 C 180.2 19.1 179.9 19 179.5 18.7 C 179.1 18.4 179 18.1 179 17.8 C 179 17.5 179.9 16 181.7 13.3 C 182.6 11.8 183.5 10.3 184.3 8.8 C 186 5.9 187 4.2 187.3 3.7 C 187.7 3.2 188.1 2.9 188.4 2.9 C 189 2.9 189.5 3.1 189.8 3.4 C 189.9 3.5 190 3.8 190 4.1 C 190 4.4 189.9 4.6 189.9 4.8 C 191.2 8.8 192.2 11.6 193 13.3 C 193.7 15 194.5 16.2 195.2 16.9 C 195.6 17.3 195.8 17.5 195.9 17.6 C 196 17.8 196 18 196 18.2 C 196 18.6 195.9 18.9 195.6 19.2 C 195.3 19.4 194.9 19.6 194.6 19.6 C 194 19.6 193.5 19.2 192.9 18.6 C 192.3 18 191.8 17.1 191.3 16 C 190.8 14.9 190.6 14.3 190.6 14.2 C 190.6 14.1 190.5 14.1 190.5 14.1 C 190.1 14.1 189.3 14.3 187.9 14.5 C 186.6 14.8 185.5 15.1 184.7 15.3 C 184.5 15.4 184.3 15.4 184.2 15.4 C 184.2 15.4 184.2 15.4 184.2 15.4 Z M 188.8 12.1 C 189.1 12 189.4 12 189.7 11.9 C 189.5 11.5 189 10 188.2 7.4 C 188.1 7.2 188 7 188 7 C 188 7 185 12.8 185 12.8 C 185.4 12.7 185.9 12.6 186.3 12.6 C 186.7 12.5 187.5 12.4 188.8 12.1 C 188.8 12.1 188.8 12.1 188.8 12.1 Z M 201.5 8 C 201.4 8.7 201.3 9.2 201.2 9.6 C 201.2 9.8 201.2 10.3 201 11.2 C 200.8 12.7 200.7 13.8 200.7 14.3 C 200.7 15.3 200.7 16.2 200.8 17.1 C 200.9 17.8 200.8 18.3 200.4 18.6 C 200.1 18.9 199.7 19 199.4 19 C 198.9 19 198.5 18.8 198.3 18.4 C 198.1 17.9 198 17.2 198 16.1 C 198 15.4 198.1 13.8 198.5 11.3 C 198.5 11.3 199.1 7.1 199.1 7.1 C 199.2 6.5 199.3 5.9 199.3 5.3 C 199.4 4.6 199.5 4.1 199.6 3.9 C 199.8 3.7 200 3.5 200.3 3.3 C 200.6 3.1 200.9 3 201 3 C 201.5 3 201.8 3.2 202 3.5 C 202.2 3.9 202.3 4.3 202.3 4.8 C 202.3 4.8 201.5 8 201.5 8 Z M 215 18.2 C 214.9 18.2 214.6 18.2 214.2 18.1 C 213.7 18.1 213.4 18.1 213.2 18.1 C 211.3 18.1 209.4 18.3 207.5 18.9 C 206.8 19.2 206.2 19.3 205.9 19.3 C 205.5 19.3 205.1 19.1 204.9 18.8 C 204.6 18.4 204.5 18.1 204.5 17.8 C 204.5 17.7 204.6 17.3 204.7 16.8 C 204.9 16.1 205 15.4 205.1 14.5 C 205.1 14.5 206.1 5.6 206.1 5.6 C 206.2 4.8 206.2 4.2 206.3 4 C 206.3 3.7 206.5 3.5 206.8 3.3 C 207 3.1 207.3 3 207.8 3 C 208.1 3 208.4 3.1 208.7 3.4 C 208.9 3.7 209.1 3.9 209.1 4.2 C 209.1 4.5 209 5 208.9 5.7 C 208.7 6.7 208.4 8.6 208.1 11.5 C 207.8 14.3 207.6 15.8 207.6 16 C 207.6 16.2 207.6 16.3 207.7 16.3 C 208 16.3 208.7 16.2 209.9 16 C 210.5 15.9 211.1 15.9 211.7 15.8 C 213.4 15.8 214.5 15.6 215.2 15.5 C 215.4 15.4 215.6 15.4 215.7 15.4 C 216.1 15.4 216.4 15.5 216.6 15.8 C 216.8 16 216.9 16.3 216.9 16.6 C 216.9 17.1 216.7 17.5 216.4 17.7 C 216 18 215.5 18.2 215 18.2 Z " stroke="none" fill="#273582"/>  </g></svg>