<?xml version="1.0" standalone="no"?><!DOCTYPE svg PUBLIC "-//W3C//DTD SVG 1.1//EN" "http://www.w3.org/Graphics/SVG/1.1/DTD/svg11.dtd"><svg xmlns="http://www.w3.org/2000/svg" version="1.1" width="236px" height="19.6px" viewBox="0 -3 236 19.6" style="top:-3px">  <desc>FOI COMBINADO UM CHURRASCO NA CASA DO PEDRO E UM TROUXE CARNE, OUTRO BEBIDAS... CADA DEU SUA CONTRIBUI O</desc>  <defs/>  <g id="Polygon14748">    <path d="M 2.7 9.3 C 3 9.4 3.2 9.5 3.3 9.6 C 3.4 9.8 3.4 9.9 3.4 10.1 C 3.4 10.4 3.2 10.7 2.8 11 C 2.4 11.4 2 11.5 1.6 11.5 C 1.3 11.5 1.2 11.5 1.2 11.3 C 1.2 11.1 1.4 11 1.7 11 C 1.7 11 1.8 11 1.8 11 C 2 11 2.2 10.9 2.4 10.7 C 2.7 10.5 2.8 10.3 2.8 10.1 C 2.8 10 2.7 9.9 2.6 9.8 C 2.5 9.7 2.4 9.7 2.2 9.7 C 2.2 9.7 2.2 9.7 2 9.7 C 1.9 9.8 1.8 9.8 1.8 9.8 C 1.6 9.8 1.5 9.8 1.5 9.8 C 1.4 9.7 1.4 9.7 1.4 9.5 C 1.4 9.5 1.6 9.3 1.9 9.2 C 2.1 9.1 2.3 9 2.5 8.8 C 2.7 8.6 2.8 8.5 2.8 8.4 C 2.8 8.2 2.7 8.1 2.4 8.1 C 2.2 8.1 2 8.2 1.8 8.2 C 1.6 8.3 1.4 8.3 1.4 8.4 C 1.4 8.5 1.3 8.8 1.2 9.5 C 1.1 10.2 1.1 10.6 1.1 10.7 C 1.1 10.7 1.1 11 1.1 11 C 1.1 11.2 1 11.3 1 11.3 C 0.9 11.4 0.8 11.4 0.7 11.4 C 0.5 11.4 0.4 11.2 0.4 11 C 0.4 10.9 0.4 10.8 0.4 10.7 C 0.5 10.4 0.6 10 0.7 9.5 C 0.7 9 0.8 8.7 0.8 8.7 C 0.8 8.6 0.7 8.5 0.7 8.5 C 0.7 8.5 0.6 8.5 0.6 8.5 C 0.6 8.5 0.6 8.5 0.5 8.5 C 0.5 8.5 0.5 8.4 0.4 8.4 C 0.4 8.4 0.4 8.3 0.4 8.3 C 0.4 8.1 0.7 8 1.1 7.8 C 1.6 7.7 2 7.6 2.5 7.6 C 2.8 7.6 3 7.7 3.2 7.8 C 3.3 8 3.4 8.1 3.4 8.3 C 3.4 8.5 3.4 8.6 3.3 8.7 C 3.2 8.9 3 9 2.7 9.3 Z M 6.7 8.2 C 6.7 8.2 5.9 8.3 5.9 8.3 C 5.7 8.3 5.4 8.3 5.3 8.3 C 5.1 8.4 5 8.4 5 8.4 C 4.9 8.4 4.9 8.5 4.9 8.6 C 4.9 8.6 4.9 8.8 4.8 9 C 4.8 9.1 4.8 9.3 4.8 9.4 C 4.9 9.4 5 9.4 5.2 9.3 C 5.4 9.3 5.5 9.3 5.6 9.3 C 5.9 9.2 6 9.2 6.2 9.2 C 6.4 9.2 6.6 9.3 6.6 9.4 C 6.6 9.5 6.5 9.6 6.4 9.7 C 6.4 9.7 6.3 9.7 6.1 9.7 C 6 9.7 5.9 9.8 5.8 9.8 C 5.7 9.8 5.6 9.8 5.6 9.8 C 5.1 9.9 4.8 9.9 4.8 9.9 C 4.8 9.9 4.8 9.9 4.8 9.9 C 4.7 9.9 4.7 10 4.7 10 C 4.7 10 4.7 10.1 4.6 10.4 C 4.6 10.6 4.6 10.7 4.6 10.8 C 4.6 10.9 4.6 10.9 4.7 10.9 C 4.8 10.9 5 10.9 5.3 10.8 C 5.6 10.8 5.8 10.8 5.9 10.7 C 6.1 10.7 6.3 10.7 6.4 10.7 C 6.6 10.7 6.7 10.8 6.7 11 C 6.7 11 6.6 11.1 6.6 11.1 C 6.4 11.2 6.2 11.2 5.9 11.3 C 5.7 11.3 5.4 11.3 5.1 11.3 C 4.8 11.4 4.6 11.4 4.3 11.4 C 4.2 11.4 4.1 11.4 4 11.3 C 4 11.3 3.9 11.2 3.9 11.1 C 3.9 11.1 3.9 11 3.9 11 C 3.9 11 3.9 10.9 3.9 10.9 C 4 10.7 4.1 10.2 4.2 9.5 C 4.3 8.8 4.3 8.4 4.3 8.4 C 4.3 8.4 4.3 8.4 4.3 8.4 C 4.3 8.3 4.3 8.3 4.3 8.3 C 4.2 8.2 4.2 8.1 4.2 8.1 C 4.2 8.1 4.2 8 4.2 8 C 4.2 8 4.3 8 4.3 7.9 C 4.4 7.9 4.4 7.9 4.5 7.9 C 4.6 7.9 4.7 7.9 4.7 7.9 C 4.9 7.9 5.3 7.8 6.1 7.7 C 6.3 7.7 6.4 7.7 6.4 7.7 C 6.4 7.7 6.5 7.7 6.5 7.7 C 6.8 7.7 6.9 7.8 6.9 8 C 6.9 8 6.9 8.1 6.8 8.1 C 6.8 8.2 6.7 8.2 6.7 8.2 Z M 9.6 9.3 C 9.9 9.4 10.1 9.5 10.1 9.6 C 10.2 9.8 10.3 9.9 10.3 10.1 C 10.3 10.4 10.1 10.7 9.7 11 C 9.3 11.4 8.9 11.5 8.4 11.5 C 8.2 11.5 8.1 11.5 8.1 11.3 C 8.1 11.1 8.2 11 8.6 11 C 8.6 11 8.7 11 8.7 11 C 8.9 11 9.1 10.9 9.3 10.7 C 9.5 10.5 9.7 10.3 9.7 10.1 C 9.7 10 9.6 9.9 9.5 9.8 C 9.4 9.7 9.3 9.7 9.1 9.7 C 9.1 9.7 9 9.7 8.9 9.7 C 8.8 9.8 8.7 9.8 8.7 9.8 C 8.5 9.8 8.4 9.8 8.4 9.8 C 8.3 9.7 8.3 9.7 8.3 9.5 C 8.3 9.5 8.5 9.3 8.8 9.2 C 9 9.1 9.2 9 9.4 8.8 C 9.5 8.6 9.6 8.5 9.6 8.4 C 9.6 8.2 9.5 8.1 9.3 8.1 C 9.1 8.1 8.9 8.2 8.6 8.2 C 8.4 8.3 8.3 8.3 8.3 8.4 C 8.3 8.5 8.2 8.8 8.1 9.5 C 8 10.2 8 10.6 8 10.7 C 8 10.7 7.9 11 7.9 11 C 7.9 11.2 7.9 11.3 7.8 11.3 C 7.8 11.4 7.7 11.4 7.6 11.4 C 7.4 11.4 7.3 11.2 7.3 11 C 7.3 10.9 7.3 10.8 7.3 10.7 C 7.4 10.4 7.5 10 7.5 9.5 C 7.6 9 7.6 8.7 7.6 8.7 C 7.6 8.6 7.6 8.5 7.6 8.5 C 7.6 8.5 7.5 8.5 7.5 8.5 C 7.5 8.5 7.4 8.5 7.4 8.5 C 7.4 8.5 7.3 8.4 7.3 8.4 C 7.3 8.4 7.3 8.3 7.3 8.3 C 7.3 8.1 7.5 8 8 7.8 C 8.4 7.7 8.9 7.6 9.4 7.6 C 9.7 7.6 9.9 7.7 10 7.8 C 10.2 8 10.3 8.1 10.3 8.3 C 10.3 8.5 10.2 8.6 10.1 8.7 C 10 8.9 9.8 9 9.6 9.3 Z M 11.6 8.8 C 11.6 9 11.6 9.1 11.6 9.2 C 11.6 9.2 11.6 9.3 11.5 9.5 C 11.5 9.9 11.4 10.1 11.4 10.3 C 11.4 10.5 11.5 10.7 11.5 10.9 C 11.5 11 11.5 11.2 11.4 11.2 C 11.3 11.3 11.2 11.3 11.1 11.3 C 11 11.3 10.9 11.3 10.9 11.2 C 10.9 11.1 10.8 10.9 10.8 10.7 C 10.8 10.5 10.9 10.1 10.9 9.6 C 10.9 9.6 11.1 8.6 11.1 8.6 C 11.1 8.5 11.1 8.3 11.1 8.2 C 11.2 8 11.2 7.9 11.2 7.9 C 11.2 7.8 11.3 7.8 11.4 7.8 C 11.4 7.7 11.5 7.7 11.5 7.7 C 11.6 7.7 11.7 7.7 11.7 7.8 C 11.8 7.9 11.8 8 11.8 8.1 C 11.8 8.1 11.6 8.8 11.6 8.8 Z M 12.4 10.9 C 12.4 10.8 12.4 10.6 12.4 10.4 C 12.5 9.9 12.5 9.3 12.6 8.6 C 12.7 8.5 12.7 8.4 12.7 8.4 C 12.7 8.3 12.7 8.3 12.6 8.3 C 12.5 8.3 12.4 8.2 12.4 8.1 C 12.4 8 12.4 7.9 12.5 7.8 C 12.5 7.8 12.6 7.7 12.7 7.7 C 12.7 7.7 13 7.8 13 7.8 C 13.2 7.8 13.4 7.7 13.7 7.7 C 13.9 7.7 14.1 7.7 14.2 7.7 C 14.6 7.7 15 7.8 15.3 8.1 C 15.6 8.3 15.7 8.7 15.7 9.1 C 15.7 9.6 15.5 10 15.1 10.4 C 14.6 10.7 14.1 11 13.5 11.1 C 13.3 11.2 13.2 11.2 13.2 11.2 C 13.1 11.3 13 11.3 12.9 11.4 C 12.8 11.4 12.7 11.5 12.6 11.5 C 12.5 11.5 12.4 11.4 12.4 11.3 C 12.3 11.3 12.3 11.2 12.3 11.2 C 12.3 11.1 12.3 11.1 12.3 11 C 12.3 11 12.4 10.9 12.4 10.9 Z M 13 10.6 C 13 10.6 13 10.7 13 10.7 C 13.1 10.7 13.3 10.7 13.8 10.5 C 14.2 10.4 14.5 10.2 14.7 10 C 15 9.7 15.1 9.4 15.1 9.1 C 15.1 8.8 15 8.6 14.8 8.4 C 14.7 8.3 14.4 8.2 14.1 8.2 C 13.9 8.2 13.7 8.2 13.4 8.2 C 13.3 8.3 13.3 8.3 13.3 8.3 C 13.1 9.3 13 10.1 13 10.6 C 13 10.6 13 10.6 13 10.6 Z M 16.7 10.5 C 16.6 10.5 16.6 10.5 16.6 10.5 C 16.5 10.5 16.5 10.7 16.3 10.9 C 16.2 11.1 16.1 11.3 16 11.3 C 16 11.3 15.9 11.3 15.9 11.3 C 15.8 11.3 15.7 11.3 15.7 11.2 C 15.6 11.2 15.5 11.1 15.5 11 C 15.5 11 15.7 10.6 16.1 10 C 16.4 9.7 16.6 9.3 16.8 9 C 17.1 8.3 17.3 7.9 17.4 7.8 C 17.5 7.7 17.6 7.7 17.7 7.7 C 17.8 7.7 17.9 7.7 18 7.8 C 18 7.8 18 7.9 18 7.9 C 18 8 18 8.1 18 8.1 C 18.3 9 18.5 9.6 18.7 10 C 18.9 10.4 19 10.7 19.2 10.8 C 19.3 10.9 19.4 11 19.4 11 C 19.4 11 19.4 11.1 19.4 11.1 C 19.4 11.2 19.4 11.3 19.3 11.4 C 19.2 11.4 19.2 11.4 19.1 11.4 C 18.9 11.4 18.8 11.4 18.7 11.2 C 18.6 11.1 18.4 10.9 18.3 10.6 C 18.2 10.4 18.2 10.2 18.2 10.2 C 18.2 10.2 18.2 10.2 18.2 10.2 C 18.1 10.2 17.9 10.2 17.6 10.3 C 17.3 10.4 17 10.4 16.8 10.5 C 16.8 10.5 16.7 10.5 16.7 10.5 C 16.7 10.5 16.7 10.5 16.7 10.5 Z M 17.8 9.8 C 17.8 9.7 17.9 9.7 18 9.7 C 17.9 9.6 17.8 9.3 17.6 8.7 C 17.6 8.6 17.6 8.6 17.6 8.6 C 17.6 8.6 16.9 9.9 16.9 9.9 C 17 9.9 17.1 9.9 17.2 9.9 C 17.3 9.8 17.5 9.8 17.8 9.8 C 17.8 9.8 17.8 9.8 17.8 9.8 Z M 22.4 8.2 C 22.4 8.5 22.3 8.6 21.9 8.6 C 21.9 8.5 21.9 8.4 21.8 8.3 C 21.7 8.2 21.6 8.2 21.4 8.2 C 21.2 8.2 20.9 8.3 20.7 8.4 C 20.4 8.5 20.3 8.7 20.3 8.8 C 20.3 8.9 20.4 9 20.5 9.1 C 20.6 9.2 20.8 9.3 21.2 9.4 C 21.5 9.5 21.8 9.6 22 9.7 C 22.2 9.9 22.3 10 22.3 10.2 C 22.3 10.5 22.1 10.8 21.6 11.1 C 21.1 11.3 20.6 11.5 20.1 11.5 C 19.9 11.5 19.8 11.4 19.7 11.4 C 19.6 11.3 19.5 11.2 19.5 11.1 C 19.5 11 19.6 11 19.6 10.9 C 19.6 10.8 19.7 10.8 19.8 10.8 C 19.8 10.8 19.8 10.8 19.9 10.8 C 20 10.9 20.2 10.9 20.3 10.9 C 20.6 10.9 20.9 10.8 21.2 10.7 C 21.5 10.6 21.7 10.4 21.7 10.3 C 21.7 10.2 21.6 10.2 21.6 10.1 C 21.5 10.1 21.3 10 21.1 9.9 C 20.7 9.8 20.5 9.7 20.3 9.6 C 20.1 9.6 20 9.5 19.9 9.3 C 19.8 9.2 19.7 9.1 19.7 8.9 C 19.7 8.6 19.9 8.3 20.3 8 C 20.6 7.8 21 7.7 21.5 7.7 C 21.8 7.7 22 7.7 22.2 7.8 C 22.3 7.9 22.4 8.1 22.4 8.2 C 22.4 8.2 22.4 8.2 22.4 8.2 Z M 23 11.2 C 22.9 11.2 22.8 11.2 22.7 11.1 C 22.7 11.1 22.7 11 22.7 10.8 C 22.7 10.7 22.7 10.7 22.7 10.6 C 22.7 10.6 22.7 10.5 22.8 10.5 C 22.9 10.5 23 10.5 23.1 10.5 C 23.2 10.5 23.3 10.5 23.3 10.5 C 23.4 10.6 23.4 10.6 23.4 10.7 C 23.4 10.8 23.4 10.8 23.4 10.9 C 23.3 10.9 23.3 11 23.2 11.1 C 23.1 11.1 23 11.2 23 11.2 Z M 24.1 11.2 C 24 11.2 23.9 11.2 23.9 11.1 C 23.8 11.1 23.8 11 23.8 10.8 C 23.8 10.7 23.8 10.7 23.8 10.6 C 23.8 10.6 23.9 10.5 23.9 10.5 C 24 10.5 24.1 10.5 24.3 10.5 C 24.4 10.5 24.4 10.5 24.5 10.5 C 24.5 10.6 24.6 10.6 24.6 10.7 C 24.6 10.8 24.5 10.8 24.5 10.9 C 24.5 10.9 24.4 11 24.3 11.1 C 24.2 11.1 24.2 11.2 24.1 11.2 Z M 25.2 11.2 C 25.1 11.2 25.1 11.2 25 11.1 C 25 11.1 25 11 25 10.8 C 25 10.7 25 10.7 25 10.6 C 25 10.6 25 10.5 25.1 10.5 C 25.2 10.5 25.3 10.5 25.4 10.5 C 25.5 10.5 25.6 10.5 25.6 10.5 C 25.7 10.6 25.7 10.6 25.7 10.7 C 25.7 10.8 25.7 10.8 25.7 10.9 C 25.6 10.9 25.6 11 25.5 11.1 C 25.4 11.1 25.3 11.2 25.2 11.2 Z M 30.3 10.6 C 30.4 10.5 30.5 10.4 30.6 10.4 C 30.7 10.4 30.8 10.5 30.8 10.6 C 30.8 10.7 30.6 10.9 30.2 11.1 C 29.9 11.4 29.5 11.5 29.2 11.5 C 28.9 11.5 28.6 11.4 28.4 11.2 C 28.1 11 28 10.7 28 10.3 C 28 9.9 28.1 9.5 28.4 9.1 C 28.7 8.6 29 8.2 29.4 7.9 C 29.8 7.7 30.1 7.5 30.5 7.5 C 30.7 7.5 30.9 7.6 31 7.7 C 31.2 7.8 31.2 8 31.2 8.2 C 31.2 8.3 31.2 8.5 31.2 8.6 C 31.1 8.6 31.1 8.7 31 8.8 C 30.9 8.8 30.8 8.9 30.8 8.9 C 30.7 8.9 30.6 8.8 30.6 8.8 C 30.5 8.8 30.5 8.7 30.5 8.6 C 30.5 8.6 30.5 8.5 30.6 8.4 C 30.6 8.3 30.6 8.2 30.6 8.1 C 30.6 8 30.6 8 30.5 8 C 30.3 8 30 8.1 29.7 8.4 C 29.4 8.6 29.2 8.9 29 9.3 C 28.7 9.7 28.6 10 28.6 10.3 C 28.6 10.5 28.7 10.6 28.8 10.8 C 28.9 10.9 29.1 10.9 29.3 10.9 C 29.4 10.9 29.6 10.9 29.8 10.8 C 29.9 10.8 30.1 10.7 30.3 10.6 C 30.3 10.6 30.3 10.6 30.3 10.6 Z M 32.2 10.5 C 32.2 10.5 32.1 10.5 32.1 10.5 C 32.1 10.5 32 10.7 31.8 10.9 C 31.7 11.1 31.6 11.3 31.5 11.3 C 31.5 11.3 31.4 11.3 31.4 11.3 C 31.3 11.3 31.3 11.3 31.2 11.2 C 31.1 11.2 31.1 11.1 31.1 11 C 31.1 11 31.3 10.6 31.7 10 C 31.9 9.7 32.1 9.3 32.3 9 C 32.7 8.3 32.9 7.9 33 7.8 C 33 7.7 33.1 7.7 33.2 7.7 C 33.4 7.7 33.5 7.7 33.5 7.8 C 33.5 7.8 33.6 7.9 33.6 7.9 C 33.6 8 33.6 8.1 33.5 8.1 C 33.8 9 34.1 9.6 34.2 10 C 34.4 10.4 34.6 10.7 34.8 10.8 C 34.8 10.9 34.9 11 34.9 11 C 34.9 11 34.9 11.1 34.9 11.1 C 34.9 11.2 34.9 11.3 34.8 11.4 C 34.8 11.4 34.7 11.4 34.6 11.4 C 34.5 11.4 34.4 11.4 34.2 11.2 C 34.1 11.1 34 10.9 33.9 10.6 C 33.8 10.4 33.7 10.2 33.7 10.2 C 33.7 10.2 33.7 10.2 33.7 10.2 C 33.6 10.2 33.4 10.2 33.1 10.3 C 32.8 10.4 32.6 10.4 32.4 10.5 C 32.3 10.5 32.3 10.5 32.2 10.5 C 32.2 10.5 32.2 10.5 32.2 10.5 Z M 33.3 9.8 C 33.4 9.7 33.4 9.7 33.5 9.7 C 33.5 9.6 33.3 9.3 33.2 8.7 C 33.1 8.6 33.1 8.6 33.1 8.6 C 33.1 8.6 32.4 9.9 32.4 9.9 C 32.5 9.9 32.6 9.9 32.7 9.9 C 32.8 9.8 33 9.8 33.3 9.8 C 33.3 9.8 33.3 9.8 33.3 9.8 Z M 35.4 10.9 C 35.4 10.8 35.4 10.6 35.4 10.4 C 35.4 9.9 35.5 9.3 35.6 8.6 C 35.6 8.5 35.6 8.4 35.6 8.4 C 35.6 8.3 35.6 8.3 35.6 8.3 C 35.4 8.3 35.3 8.2 35.3 8.1 C 35.3 8 35.4 7.9 35.5 7.8 C 35.5 7.8 35.6 7.7 35.7 7.7 C 35.7 7.7 36 7.8 36 7.8 C 36.2 7.8 36.4 7.7 36.6 7.7 C 36.9 7.7 37 7.7 37.2 7.7 C 37.6 7.7 38 7.8 38.3 8.1 C 38.6 8.3 38.7 8.7 38.7 9.1 C 38.7 9.6 38.5 10 38 10.4 C 37.6 10.7 37.1 11 36.5 11.1 C 36.3 11.2 36.2 11.2 36.1 11.2 C 36.1 11.3 36 11.3 35.9 11.4 C 35.8 11.4 35.7 11.5 35.6 11.5 C 35.5 11.5 35.4 11.4 35.3 11.3 C 35.3 11.3 35.2 11.2 35.2 11.2 C 35.2 11.1 35.3 11.1 35.3 11 C 35.3 11 35.4 10.9 35.4 10.9 Z M 36 10.6 C 36 10.6 36 10.7 36 10.7 C 36.1 10.7 36.3 10.7 36.7 10.5 C 37.1 10.4 37.5 10.2 37.7 10 C 38 9.7 38.1 9.4 38.1 9.1 C 38.1 8.8 38 8.6 37.8 8.4 C 37.6 8.3 37.4 8.2 37.1 8.2 C 36.9 8.2 36.6 8.2 36.3 8.2 C 36.3 8.3 36.3 8.3 36.2 8.3 C 36.1 9.3 36 10.1 36 10.6 C 36 10.6 36 10.6 36 10.6 Z M 39.7 10.5 C 39.6 10.5 39.6 10.5 39.5 10.5 C 39.5 10.5 39.4 10.7 39.3 10.9 C 39.1 11.1 39 11.3 39 11.3 C 38.9 11.3 38.9 11.3 38.8 11.3 C 38.8 11.3 38.7 11.3 38.6 11.2 C 38.5 11.2 38.5 11.1 38.5 11 C 38.5 11 38.7 10.6 39.1 10 C 39.3 9.7 39.5 9.3 39.7 9 C 40.1 8.3 40.3 7.9 40.4 7.8 C 40.5 7.7 40.6 7.7 40.7 7.7 C 40.8 7.7 40.9 7.7 41 7.8 C 41 7.8 41 7.9 41 7.9 C 41 8 41 8.1 41 8.1 C 41.3 9 41.5 9.6 41.7 10 C 41.9 10.4 42 10.7 42.2 10.8 C 42.3 10.9 42.3 11 42.4 11 C 42.4 11 42.4 11.1 42.4 11.1 C 42.4 11.2 42.3 11.3 42.3 11.4 C 42.2 11.4 42.1 11.4 42 11.4 C 41.9 11.4 41.8 11.4 41.7 11.2 C 41.5 11.1 41.4 10.9 41.3 10.6 C 41.2 10.4 41.1 10.2 41.1 10.2 C 41.1 10.2 41.1 10.2 41.1 10.2 C 41 10.2 40.8 10.2 40.5 10.3 C 40.2 10.4 40 10.4 39.8 10.5 C 39.8 10.5 39.7 10.5 39.7 10.5 C 39.7 10.5 39.7 10.5 39.7 10.5 Z M 40.7 9.8 C 40.8 9.7 40.9 9.7 40.9 9.7 C 40.9 9.6 40.8 9.3 40.6 8.7 C 40.6 8.6 40.6 8.6 40.6 8.6 C 40.6 8.6 39.9 9.9 39.9 9.9 C 40 9.9 40.1 9.9 40.2 9.9 C 40.3 9.8 40.4 9.8 40.7 9.8 C 40.7 9.8 40.7 9.8 40.7 9.8 Z M 44.7 10.9 C 44.7 10.8 44.7 10.6 44.7 10.4 C 44.8 9.9 44.8 9.3 45 8.6 C 45 8.5 45 8.4 45 8.4 C 45 8.3 45 8.3 45 8.3 C 44.8 8.3 44.7 8.2 44.7 8.1 C 44.7 8 44.7 7.9 44.8 7.8 C 44.9 7.8 44.9 7.7 45 7.7 C 45 7.7 45.4 7.8 45.4 7.8 C 45.5 7.8 45.7 7.7 46 7.7 C 46.2 7.7 46.4 7.7 46.5 7.7 C 47 7.7 47.3 7.8 47.6 8.1 C 47.9 8.3 48 8.7 48 9.1 C 48 9.6 47.8 10 47.4 10.4 C 47 10.7 46.4 11 45.8 11.1 C 45.7 11.2 45.5 11.2 45.5 11.2 C 45.4 11.3 45.3 11.3 45.2 11.4 C 45.1 11.4 45 11.5 44.9 11.5 C 44.8 11.5 44.8 11.4 44.7 11.3 C 44.6 11.3 44.6 11.2 44.6 11.2 C 44.6 11.1 44.6 11.1 44.6 11 C 44.6 11 44.7 10.9 44.7 10.9 Z M 45.3 10.6 C 45.3 10.6 45.3 10.7 45.3 10.7 C 45.4 10.7 45.7 10.7 46.1 10.5 C 46.5 10.4 46.8 10.2 47.1 10 C 47.3 9.7 47.5 9.4 47.5 9.1 C 47.5 8.8 47.4 8.6 47.2 8.4 C 47 8.3 46.7 8.2 46.4 8.2 C 46.2 8.2 46 8.2 45.7 8.2 C 45.6 8.3 45.6 8.3 45.6 8.3 C 45.4 9.3 45.3 10.1 45.3 10.6 C 45.3 10.6 45.3 10.6 45.3 10.6 Z M 51.2 8.2 C 51.2 8.2 50.5 8.3 50.5 8.3 C 50.2 8.3 50 8.3 49.8 8.3 C 49.6 8.4 49.5 8.4 49.5 8.4 C 49.5 8.4 49.5 8.5 49.4 8.6 C 49.4 8.6 49.4 8.8 49.4 9 C 49.3 9.1 49.3 9.3 49.3 9.4 C 49.4 9.4 49.5 9.4 49.7 9.3 C 49.9 9.3 50.1 9.3 50.2 9.3 C 50.4 9.2 50.6 9.2 50.7 9.2 C 51 9.2 51.1 9.3 51.1 9.4 C 51.1 9.5 51 9.6 51 9.7 C 50.9 9.7 50.8 9.7 50.6 9.7 C 50.5 9.7 50.4 9.8 50.3 9.8 C 50.3 9.8 50.2 9.8 50.1 9.8 C 49.6 9.9 49.4 9.9 49.3 9.9 C 49.3 9.9 49.3 9.9 49.3 9.9 C 49.3 9.9 49.2 10 49.2 10 C 49.2 10 49.2 10.1 49.1 10.4 C 49.1 10.6 49.1 10.7 49.1 10.8 C 49.1 10.9 49.1 10.9 49.2 10.9 C 49.3 10.9 49.5 10.9 49.8 10.8 C 50.2 10.8 50.4 10.8 50.4 10.7 C 50.7 10.7 50.8 10.7 50.9 10.7 C 51.1 10.7 51.2 10.8 51.2 11 C 51.2 11 51.2 11.1 51.1 11.1 C 51 11.2 50.7 11.2 50.4 11.3 C 50.2 11.3 49.9 11.3 49.6 11.3 C 49.3 11.4 49.1 11.4 48.8 11.4 C 48.7 11.4 48.6 11.4 48.5 11.3 C 48.5 11.3 48.5 11.2 48.4 11.1 C 48.4 11.1 48.4 11 48.4 11 C 48.4 11 48.4 10.9 48.5 10.9 C 48.5 10.7 48.6 10.2 48.7 9.5 C 48.8 8.8 48.9 8.4 48.9 8.4 C 48.9 8.4 48.8 8.4 48.8 8.4 C 48.8 8.3 48.8 8.3 48.8 8.3 C 48.8 8.2 48.7 8.1 48.7 8.1 C 48.7 8.1 48.7 8 48.8 8 C 48.8 8 48.8 8 48.9 7.9 C 48.9 7.9 49 7.9 49 7.9 C 49.1 7.9 49.2 7.9 49.3 7.9 C 49.4 7.9 49.8 7.8 50.6 7.7 C 50.8 7.7 51 7.7 51 7.7 C 51 7.7 51 7.7 51 7.7 C 51.3 7.7 51.4 7.8 51.4 8 C 51.4 8 51.4 8.1 51.4 8.1 C 51.3 8.2 51.3 8.2 51.2 8.2 Z M 53.1 11.4 C 53 11.4 52.8 11.4 52.5 11.2 C 52.3 11.1 52.1 11 52 10.7 C 51.9 10.4 51.8 10.1 51.8 9.8 C 51.8 9.7 51.8 9.5 51.9 9.2 C 51.9 9.2 52 8.8 52 8.8 C 52 8.7 52 8.6 52 8.6 C 52 8.4 52 8.3 52 8.2 C 52.1 8.1 52.1 7.9 52.2 7.8 C 52.2 7.7 52.3 7.7 52.4 7.7 C 52.5 7.7 52.5 7.7 52.6 7.8 C 52.7 7.9 52.7 8 52.7 8 C 52.7 8.1 52.7 8.3 52.6 8.6 C 52.6 8.7 52.5 8.9 52.5 9.2 C 52.4 9.5 52.4 9.7 52.4 9.8 C 52.4 10.2 52.5 10.5 52.7 10.7 C 52.9 10.8 53 10.9 53.1 10.9 C 53.5 10.9 53.8 10.8 54 10.6 C 54.2 10.4 54.3 10.1 54.3 9.7 C 54.3 9.7 54.3 9.6 54.3 9.5 C 54.3 9.4 54.4 9.2 54.4 9.1 C 54.4 8.5 54.5 8.1 54.5 8 C 54.6 7.8 54.7 7.8 54.9 7.8 C 55 7.8 55.1 7.9 55.1 8.1 C 55.1 8.2 55.1 8.5 55 8.8 C 55 9 54.9 9.2 54.9 9.5 C 54.9 9.9 54.8 10.3 54.7 10.5 C 54.6 10.8 54.4 11 54.2 11.1 C 53.9 11.3 53.5 11.4 53.1 11.4 Z M 60.1 8.2 C 60.1 8.5 60 8.6 59.7 8.6 C 59.7 8.5 59.6 8.4 59.5 8.3 C 59.4 8.2 59.3 8.2 59.2 8.2 C 58.9 8.2 58.6 8.3 58.4 8.4 C 58.2 8.5 58 8.7 58 8.8 C 58 8.9 58.1 9 58.2 9.1 C 58.3 9.2 58.5 9.3 58.9 9.4 C 59.3 9.5 59.5 9.6 59.7 9.7 C 59.9 9.9 60 10 60 10.2 C 60 10.5 59.8 10.8 59.3 11.1 C 58.8 11.3 58.3 11.5 57.8 11.5 C 57.6 11.5 57.5 11.4 57.4 11.4 C 57.3 11.3 57.2 11.2 57.2 11.1 C 57.2 11 57.3 11 57.3 10.9 C 57.4 10.8 57.4 10.8 57.5 10.8 C 57.5 10.8 57.6 10.8 57.6 10.8 C 57.8 10.9 57.9 10.9 58.1 10.9 C 58.3 10.9 58.6 10.8 58.9 10.7 C 59.2 10.6 59.4 10.4 59.4 10.3 C 59.4 10.2 59.4 10.2 59.3 10.1 C 59.2 10.1 59 10 58.8 9.9 C 58.4 9.8 58.2 9.7 58 9.6 C 57.8 9.6 57.7 9.5 57.6 9.3 C 57.5 9.2 57.5 9.1 57.5 8.9 C 57.5 8.6 57.6 8.3 58 8 C 58.3 7.8 58.8 7.7 59.2 7.7 C 59.5 7.7 59.7 7.7 59.9 7.8 C 60 7.9 60.1 8.1 60.1 8.2 C 60.1 8.2 60.1 8.2 60.1 8.2 Z M 61.9 11.4 C 61.7 11.4 61.5 11.4 61.3 11.2 C 61 11.1 60.9 11 60.7 10.7 C 60.6 10.4 60.6 10.1 60.6 9.8 C 60.6 9.7 60.6 9.5 60.6 9.2 C 60.6 9.2 60.7 8.8 60.7 8.8 C 60.7 8.7 60.7 8.6 60.7 8.6 C 60.8 8.4 60.8 8.3 60.8 8.2 C 60.8 8.1 60.9 7.9 60.9 7.8 C 61 7.7 61.1 7.7 61.2 7.7 C 61.2 7.7 61.3 7.7 61.4 7.8 C 61.4 7.9 61.4 8 61.4 8 C 61.4 8.1 61.4 8.3 61.3 8.6 C 61.3 8.7 61.3 8.9 61.2 9.2 C 61.2 9.5 61.2 9.7 61.2 9.8 C 61.2 10.2 61.2 10.5 61.4 10.7 C 61.6 10.8 61.8 10.9 61.9 10.9 C 62.3 10.9 62.6 10.8 62.7 10.6 C 62.9 10.4 63 10.1 63 9.7 C 63.1 9.7 63.1 9.6 63.1 9.5 C 63.1 9.4 63.1 9.2 63.1 9.1 C 63.2 8.5 63.2 8.1 63.3 8 C 63.4 7.8 63.5 7.8 63.6 7.8 C 63.8 7.8 63.9 7.9 63.9 8.1 C 63.9 8.2 63.8 8.5 63.8 8.8 C 63.7 9 63.7 9.2 63.7 9.5 C 63.7 9.9 63.6 10.3 63.5 10.5 C 63.4 10.8 63.2 11 62.9 11.1 C 62.6 11.3 62.3 11.4 61.9 11.4 Z M 65 10.5 C 64.9 10.5 64.9 10.5 64.9 10.5 C 64.8 10.5 64.8 10.7 64.6 10.9 C 64.5 11.1 64.4 11.3 64.3 11.3 C 64.3 11.3 64.2 11.3 64.2 11.3 C 64.1 11.3 64 11.3 64 11.2 C 63.9 11.2 63.8 11.1 63.8 11 C 63.8 11 64 10.6 64.4 10 C 64.7 9.7 64.9 9.3 65.1 9 C 65.4 8.3 65.7 7.9 65.7 7.8 C 65.8 7.7 65.9 7.7 66 7.7 C 66.1 7.7 66.2 7.7 66.3 7.8 C 66.3 7.8 66.3 7.9 66.3 7.9 C 66.3 8 66.3 8.1 66.3 8.1 C 66.6 9 66.8 9.6 67 10 C 67.2 10.4 67.4 10.7 67.5 10.8 C 67.6 10.9 67.7 11 67.7 11 C 67.7 11 67.7 11.1 67.7 11.1 C 67.7 11.2 67.7 11.3 67.6 11.4 C 67.5 11.4 67.5 11.4 67.4 11.4 C 67.3 11.4 67.1 11.4 67 11.2 C 66.9 11.1 66.7 10.9 66.6 10.6 C 66.5 10.4 66.5 10.2 66.5 10.2 C 66.5 10.2 66.5 10.2 66.5 10.2 C 66.4 10.2 66.2 10.2 65.9 10.3 C 65.6 10.4 65.3 10.4 65.1 10.5 C 65.1 10.5 65 10.5 65 10.5 C 65 10.5 65 10.5 65 10.5 Z M 66.1 9.8 C 66.1 9.7 66.2 9.7 66.3 9.7 C 66.2 9.6 66.1 9.3 65.9 8.7 C 65.9 8.6 65.9 8.6 65.9 8.6 C 65.9 8.6 65.2 9.9 65.2 9.9 C 65.3 9.9 65.4 9.9 65.5 9.9 C 65.6 9.8 65.8 9.8 66.1 9.8 C 66.1 9.8 66.1 9.8 66.1 9.8 Z M 72.1 10.6 C 72.2 10.5 72.3 10.4 72.4 10.4 C 72.5 10.4 72.6 10.5 72.6 10.6 C 72.6 10.7 72.4 10.9 72 11.1 C 71.7 11.4 71.3 11.5 71 11.5 C 70.7 11.5 70.4 11.4 70.2 11.2 C 69.9 11 69.8 10.7 69.8 10.3 C 69.8 9.9 69.9 9.5 70.2 9.1 C 70.5 8.6 70.8 8.2 71.2 7.9 C 71.5 7.7 71.9 7.5 72.3 7.5 C 72.5 7.5 72.7 7.6 72.8 7.7 C 72.9 7.8 73 8 73 8.2 C 73 8.3 73 8.5 73 8.6 C 72.9 8.6 72.9 8.7 72.8 8.8 C 72.7 8.8 72.6 8.9 72.5 8.9 C 72.5 8.9 72.4 8.8 72.4 8.8 C 72.3 8.8 72.3 8.7 72.3 8.6 C 72.3 8.6 72.3 8.5 72.3 8.4 C 72.4 8.3 72.4 8.2 72.4 8.1 C 72.4 8 72.3 8 72.3 8 C 72 8 71.8 8.1 71.5 8.4 C 71.2 8.6 70.9 8.9 70.7 9.3 C 70.5 9.7 70.4 10 70.4 10.3 C 70.4 10.5 70.5 10.6 70.6 10.8 C 70.7 10.9 70.9 10.9 71.1 10.9 C 71.2 10.9 71.3 10.9 71.5 10.8 C 71.7 10.8 71.9 10.7 72.1 10.6 C 72.1 10.6 72.1 10.6 72.1 10.6 Z M 74.2 11.4 C 74 11.4 73.7 11.3 73.5 11 C 73.3 10.8 73.2 10.5 73.2 10.2 C 73.2 9.9 73.3 9.5 73.5 9.1 C 73.7 8.7 74 8.3 74.3 8.1 C 74.6 7.8 74.9 7.7 75.3 7.7 C 75.6 7.7 75.8 7.7 76 7.8 C 76.1 7.8 76.3 7.9 76.4 8.1 C 76.6 8.2 76.7 8.3 76.7 8.5 C 76.8 8.6 76.8 8.8 76.8 9 C 76.8 9.2 76.8 9.5 76.6 9.8 C 76.5 10.1 76.3 10.3 76 10.6 C 75.8 10.9 75.5 11.1 75.3 11.2 C 75 11.3 74.7 11.4 74.2 11.4 Z M 73.8 10.2 C 73.8 10.4 73.9 10.5 74 10.7 C 74.1 10.8 74.2 10.9 74.4 10.9 C 74.8 10.9 75.2 10.7 75.6 10.3 C 76 9.8 76.2 9.4 76.2 8.9 C 76.2 8.8 76.2 8.6 76.1 8.5 C 76 8.4 75.9 8.3 75.8 8.3 C 75.6 8.2 75.5 8.2 75.3 8.2 C 75 8.2 74.6 8.4 74.3 8.8 C 74 9.3 73.8 9.7 73.8 10.2 Z M 77.3 10.4 C 77.3 10.4 77.46 9.62 77.5 9.6 C 77.6 9 77.7 8.5 77.7 8.3 C 77.7 8.1 77.7 8.1 77.7 8 C 77.7 8 77.8 7.9 77.8 7.9 C 77.9 7.8 77.9 7.8 78 7.8 C 78.1 7.8 78.1 7.8 78.2 7.9 C 78.3 7.9 78.3 8 78.4 8.2 C 78.4 8.5 78.6 8.8 78.9 9.3 C 79.2 9.8 79.4 10.1 79.7 10.4 C 79.7 10.1 79.8 9.8 79.9 9.3 C 79.9 9 80 8.7 80 8.5 C 80 8.3 80.1 8.1 80.1 8 C 80.1 7.8 80.1 7.7 80.2 7.7 C 80.3 7.6 80.4 7.6 80.4 7.6 C 80.5 7.6 80.6 7.7 80.6 7.7 C 80.7 7.8 80.7 7.9 80.7 8 C 80.7 8.1 80.7 8.2 80.6 8.4 C 80.5 8.8 80.4 9.2 80.3 9.8 C 80.2 10.4 80.2 10.7 80.2 10.8 C 80.2 10.8 80.2 10.9 80.2 10.9 C 80.2 11 80.2 11.1 80.1 11.1 C 80.1 11.2 80.1 11.2 80 11.3 C 80 11.3 79.9 11.3 79.8 11.3 C 79.7 11.3 79.7 11.3 79.6 11.3 C 79.6 11.3 79.6 11.3 79.5 11.2 C 79.5 11.1 79.4 11.1 79.4 11 C 79.3 10.8 79.3 10.8 79.2 10.7 C 78.8 10.2 78.5 9.6 78.1 9 C 78 9.2 78 9.6 77.9 10.4 C 77.9 10.4 77.8 10.6 77.8 10.6 C 77.8 10.7 77.8 10.8 77.8 10.9 C 77.8 11.1 77.8 11.2 77.7 11.3 C 77.6 11.4 77.5 11.4 77.5 11.4 C 77.4 11.4 77.3 11.4 77.2 11.3 C 77.2 11.3 77.2 11.2 77.2 11 C 77.2 10.9 77.2 10.7 77.3 10.5 C 77.28 10.46 77.3 10.4 77.3 10.4 Z M 83.8 8.3 C 83.4 8.3 83.1 8.3 83 8.4 C 83 8.4 83 8.4 82.9 8.5 C 82.9 8.5 82.9 8.8 82.8 9.3 C 82.8 9.8 82.8 10.2 82.8 10.5 C 82.8 10.6 82.8 10.8 82.8 10.9 C 82.8 10.9 82.8 11 82.8 11 C 82.8 11.1 82.8 11.2 82.7 11.2 C 82.7 11.3 82.6 11.3 82.5 11.3 C 82.5 11.3 82.4 11.3 82.3 11.3 C 82.3 11.2 82.2 11.1 82.2 11 C 82.2 10.9 82.2 10.7 82.2 10.5 C 82.2 10.2 82.2 9.8 82.3 9.2 C 82.3 8.7 82.4 8.4 82.4 8.4 C 82.3 8.4 82.2 8.4 81.8 8.4 C 81.5 8.5 81.3 8.5 81.3 8.5 C 81.1 8.5 81 8.5 80.9 8.4 C 80.9 8.4 80.8 8.3 80.8 8.2 C 80.8 8.1 80.9 8.1 80.9 8 C 81 8 81.2 8 81.5 8 C 81.9 8 82.4 7.9 82.8 7.9 C 83.3 7.8 83.7 7.7 84 7.7 C 84.3 7.7 84.5 7.8 84.5 7.8 C 84.6 7.9 84.6 8 84.6 8.1 C 84.6 8.2 84.6 8.3 84.4 8.3 C 84.4 8.3 84.3 8.3 84.2 8.3 C 84.1 8.3 84 8.3 83.8 8.3 C 83.8 8.3 83.8 8.3 83.8 8.3 Z M 84.7 8.3 C 84.7 8.3 84.68 8.25 84.7 8.3 C 84.6 8.2 84.6 8.1 84.6 8.1 C 84.6 8 84.6 7.9 84.7 7.9 C 84.8 7.8 84.9 7.8 84.9 7.8 C 85 7.8 85 7.8 85 7.8 C 85.1 7.8 85.1 7.8 85.1 7.8 C 85.6 7.7 85.9 7.7 86.1 7.7 C 86.5 7.7 86.8 7.8 87 7.9 C 87.2 8.1 87.3 8.3 87.3 8.6 C 87.3 8.8 87.2 9 87 9.3 C 86.8 9.5 86.5 9.7 86.2 9.8 C 86.8 10.3 87.2 10.6 87.5 10.8 C 87.6 10.8 87.7 10.9 87.7 11 C 87.7 11.1 87.6 11.1 87.5 11.2 C 87.5 11.3 87.4 11.3 87.3 11.3 C 87.2 11.3 87.1 11.3 87 11.2 C 86.9 11.1 86.7 11 86.5 10.8 C 86.3 10.6 86.2 10.5 86.1 10.5 C 85.8 10.2 85.6 10 85.4 10 C 85.3 10 85.2 9.9 85.2 9.7 C 85.2 9.6 85.2 9.6 85.3 9.5 C 85.4 9.4 85.5 9.4 85.6 9.4 C 85.6 9.4 85.6 9.4 85.7 9.4 C 85.7 9.4 85.7 9.4 85.7 9.4 C 85.8 9.4 86 9.4 86.3 9.2 C 86.6 9 86.7 8.8 86.7 8.6 C 86.7 8.5 86.7 8.4 86.5 8.3 C 86.4 8.2 86.3 8.2 86.1 8.2 C 85.9 8.2 85.7 8.2 85.6 8.2 C 85.4 8.2 85.4 8.2 85.4 8.3 C 85.3 8.3 85.3 8.3 85.3 8.3 C 85.3 8.4 85.3 8.5 85.2 8.8 C 85.1 9.1 85.1 9.5 85.1 9.8 C 85 10.2 85 10.4 85 10.6 C 85 10.7 85 10.8 85 10.9 C 85 10.9 85 11 85 11.1 C 85 11.1 85 11.2 84.9 11.3 C 84.9 11.3 84.8 11.4 84.7 11.4 C 84.5 11.4 84.4 11.2 84.4 10.9 C 84.4 10.6 84.4 10.3 84.4 9.8 C 84.5 9.4 84.6 9 84.6 8.6 C 84.7 8.6 84.7 8.5 84.7 8.5 C 84.68 8.48 84.7 8.3 84.7 8.3 Z M 88.8 8.8 C 88.7 9 88.7 9.1 88.7 9.2 C 88.7 9.2 88.7 9.3 88.7 9.5 C 88.6 9.9 88.6 10.1 88.6 10.3 C 88.6 10.5 88.6 10.7 88.6 10.9 C 88.6 11 88.6 11.2 88.5 11.2 C 88.4 11.3 88.4 11.3 88.3 11.3 C 88.2 11.3 88.1 11.3 88 11.2 C 88 11.1 88 10.9 88 10.7 C 88 10.5 88 10.1 88.1 9.6 C 88.1 9.6 88.2 8.6 88.2 8.6 C 88.2 8.5 88.3 8.3 88.3 8.2 C 88.3 8 88.3 7.9 88.3 7.9 C 88.4 7.8 88.4 7.8 88.5 7.8 C 88.6 7.7 88.6 7.7 88.7 7.7 C 88.8 7.7 88.8 7.7 88.9 7.8 C 88.9 7.9 89 8 89 8.1 C 89 8.1 88.8 8.8 88.8 8.8 Z M 91.7 9.3 C 92 9.4 92.2 9.5 92.3 9.6 C 92.4 9.8 92.5 9.9 92.5 10.1 C 92.5 10.4 92.3 10.7 91.9 11 C 91.5 11.4 91 11.5 90.6 11.5 C 90.4 11.5 90.2 11.5 90.2 11.3 C 90.2 11.1 90.4 11 90.7 11 C 90.7 11 90.9 11 90.9 11 C 91 11 91.2 10.9 91.5 10.7 C 91.7 10.5 91.8 10.3 91.8 10.1 C 91.8 10 91.8 9.9 91.7 9.8 C 91.6 9.7 91.4 9.7 91.3 9.7 C 91.3 9.7 91.2 9.7 91.1 9.7 C 91 9.8 90.9 9.8 90.8 9.8 C 90.7 9.8 90.6 9.8 90.5 9.8 C 90.5 9.7 90.5 9.7 90.5 9.5 C 90.5 9.5 90.6 9.3 91 9.2 C 91.1 9.1 91.3 9 91.5 8.8 C 91.7 8.6 91.8 8.5 91.8 8.4 C 91.8 8.2 91.7 8.1 91.5 8.1 C 91.2 8.1 91 8.2 90.8 8.2 C 90.6 8.3 90.5 8.3 90.5 8.4 C 90.4 8.5 90.4 8.8 90.3 9.5 C 90.2 10.2 90.1 10.6 90.1 10.7 C 90.1 10.7 90.1 11 90.1 11 C 90.1 11.2 90.1 11.3 90 11.3 C 89.9 11.4 89.9 11.4 89.8 11.4 C 89.6 11.4 89.4 11.2 89.4 11 C 89.4 10.9 89.5 10.8 89.5 10.7 C 89.6 10.4 89.6 10 89.7 9.5 C 89.8 9 89.8 8.7 89.8 8.7 C 89.8 8.6 89.8 8.5 89.8 8.5 C 89.8 8.5 89.7 8.5 89.7 8.5 C 89.6 8.5 89.6 8.5 89.6 8.5 C 89.5 8.5 89.5 8.4 89.5 8.4 C 89.5 8.4 89.5 8.3 89.5 8.3 C 89.5 8.1 89.7 8 90.1 7.8 C 90.6 7.7 91.1 7.6 91.6 7.6 C 91.8 7.6 92.1 7.7 92.2 7.8 C 92.4 8 92.5 8.1 92.5 8.3 C 92.5 8.5 92.4 8.6 92.3 8.7 C 92.2 8.9 92 9 91.7 9.3 Z M 94.3 11.4 C 94.2 11.4 94 11.4 93.7 11.2 C 93.5 11.1 93.3 11 93.2 10.7 C 93.1 10.4 93 10.1 93 9.8 C 93 9.7 93 9.5 93.1 9.2 C 93.1 9.2 93.2 8.8 93.2 8.8 C 93.2 8.7 93.2 8.6 93.2 8.6 C 93.2 8.4 93.2 8.3 93.2 8.2 C 93.3 8.1 93.3 7.9 93.4 7.8 C 93.4 7.7 93.5 7.7 93.6 7.7 C 93.7 7.7 93.7 7.7 93.8 7.8 C 93.9 7.9 93.9 8 93.9 8 C 93.9 8.1 93.9 8.3 93.8 8.6 C 93.8 8.7 93.7 8.9 93.7 9.2 C 93.6 9.5 93.6 9.7 93.6 9.8 C 93.6 10.2 93.7 10.5 93.9 10.7 C 94.1 10.8 94.2 10.9 94.3 10.9 C 94.7 10.9 95 10.8 95.2 10.6 C 95.4 10.4 95.5 10.1 95.5 9.7 C 95.5 9.7 95.5 9.6 95.5 9.5 C 95.5 9.4 95.6 9.2 95.6 9.1 C 95.6 8.5 95.7 8.1 95.7 8 C 95.8 7.8 95.9 7.8 96.1 7.8 C 96.2 7.8 96.3 7.9 96.3 8.1 C 96.3 8.2 96.3 8.5 96.2 8.8 C 96.2 9 96.1 9.2 96.1 9.5 C 96.1 9.9 96 10.3 95.9 10.5 C 95.8 10.8 95.6 11 95.4 11.1 C 95.1 11.3 94.7 11.4 94.3 11.4 Z M 97.6 8.8 C 97.5 9 97.5 9.1 97.5 9.2 C 97.5 9.2 97.5 9.3 97.5 9.5 C 97.4 9.9 97.4 10.1 97.4 10.3 C 97.4 10.5 97.4 10.7 97.4 10.9 C 97.4 11 97.4 11.2 97.3 11.2 C 97.2 11.3 97.2 11.3 97.1 11.3 C 97 11.3 96.9 11.3 96.8 11.2 C 96.8 11.1 96.8 10.9 96.8 10.7 C 96.8 10.5 96.8 10.1 96.9 9.6 C 96.9 9.6 97 8.6 97 8.6 C 97 8.5 97.1 8.3 97.1 8.2 C 97.1 8 97.1 7.9 97.1 7.9 C 97.2 7.8 97.2 7.8 97.3 7.8 C 97.4 7.7 97.4 7.7 97.5 7.7 C 97.6 7.7 97.6 7.7 97.7 7.8 C 97.7 7.9 97.8 8 97.8 8.1 C 97.8 8.1 97.6 8.8 97.6 8.8 Z M 99.1 11.5 C 99.1 11.5 99.1 11.5 99.1 11.5 C 99 11.6 99 11.6 99 11.6 C 99.1 11.6 99.2 11.6 99.3 11.6 C 99.4 11.7 99.5 11.7 99.5 11.8 C 99.6 11.9 99.6 12 99.6 12.2 C 99.6 12.3 99.6 12.4 99.4 12.5 C 99.2 12.7 99 12.7 98.7 12.7 C 98.7 12.7 98.6 12.7 98.5 12.7 C 98.4 12.7 98.3 12.6 98.3 12.6 C 98.2 12.6 98.1 12.5 98.1 12.4 C 98.1 12.3 98.2 12.3 98.2 12.2 C 98.3 12.2 98.3 12.2 98.4 12.2 C 98.5 12.2 98.6 12.2 98.7 12.3 C 98.7 12.3 98.7 12.3 98.7 12.3 C 98.7 12.4 98.8 12.4 98.8 12.4 C 98.9 12.4 99 12.3 99.1 12.3 C 99.1 12.2 99.2 12.2 99.2 12.1 C 99.2 12 99.1 12 99.1 12 C 99 12 99 11.9 98.9 11.9 C 98.8 12 98.8 12 98.7 12 C 98.6 12 98.5 11.9 98.5 11.8 C 98.5 11.7 98.6 11.6 98.6 11.5 C 98.7 11.5 98.7 11.4 98.7 11.3 C 98.3 11.1 98.1 10.8 98.1 10.3 C 98.1 9.7 98.4 9 98.9 8.4 C 99.5 7.8 100 7.5 100.6 7.5 C 100.8 7.5 101 7.6 101.1 7.7 C 101.2 7.8 101.3 8 101.3 8.2 C 101.3 8.4 101.3 8.5 101.2 8.6 C 101.2 8.7 101.1 8.7 101 8.8 C 101 8.8 100.9 8.9 100.8 8.9 C 100.8 8.9 100.7 8.8 100.7 8.8 C 100.6 8.8 100.6 8.7 100.6 8.6 C 100.6 8.6 100.6 8.5 100.6 8.4 C 100.7 8.3 100.7 8.2 100.7 8.1 C 100.7 8 100.6 8 100.6 8 C 100.4 8 100.1 8.1 99.8 8.3 C 99.5 8.6 99.2 8.9 99 9.3 C 98.8 9.6 98.7 10 98.7 10.3 C 98.7 10.5 98.8 10.6 98.9 10.8 C 99 10.9 99.1 10.9 99.4 10.9 C 99.5 10.9 99.6 10.9 99.8 10.8 C 100 10.8 100.2 10.7 100.3 10.6 C 100.5 10.5 100.6 10.4 100.7 10.4 C 100.8 10.4 100.9 10.5 100.9 10.6 C 100.9 10.7 100.7 10.9 100.3 11.2 C 99.9 11.4 99.5 11.5 99.1 11.5 Z M 102.3 10.5 C 102.2 10.5 102.2 10.5 102.2 10.5 C 102.1 10.5 102.1 10.7 101.9 10.9 C 101.8 11.1 101.7 11.3 101.6 11.3 C 101.6 11.3 101.5 11.3 101.5 11.3 C 101.4 11.3 101.3 11.3 101.3 11.2 C 101.2 11.2 101.1 11.1 101.1 11 C 101.1 11 101.3 10.6 101.7 10 C 102 9.7 102.2 9.3 102.4 9 C 102.7 8.3 102.9 7.9 103 7.8 C 103.1 7.7 103.2 7.7 103.3 7.7 C 103.4 7.7 103.5 7.7 103.6 7.8 C 103.6 7.8 103.6 7.9 103.6 7.9 C 103.6 8 103.6 8.1 103.6 8.1 C 103.9 9 104.1 9.6 104.3 10 C 104.5 10.4 104.7 10.7 104.8 10.8 C 104.9 10.9 105 11 105 11 C 105 11 105 11.1 105 11.1 C 105 11.2 105 11.3 104.9 11.4 C 104.8 11.4 104.8 11.4 104.7 11.4 C 104.6 11.4 104.4 11.4 104.3 11.2 C 104.2 11.1 104 10.9 103.9 10.6 C 103.8 10.4 103.8 10.2 103.8 10.2 C 103.8 10.2 103.8 10.2 103.8 10.2 C 103.7 10.2 103.5 10.2 103.2 10.3 C 102.9 10.4 102.6 10.4 102.4 10.5 C 102.4 10.5 102.3 10.5 102.3 10.5 C 102.3 10.5 102.3 10.5 102.3 10.5 Z M 103.4 9.8 C 103.4 9.7 103.5 9.7 103.6 9.7 C 103.5 9.6 103.4 9.3 103.2 8.7 C 103.2 8.6 103.2 8.6 103.2 8.6 C 103.2 8.6 102.5 9.9 102.5 9.9 C 102.6 9.9 102.7 9.9 102.8 9.9 C 102.9 9.8 103.1 9.8 103.4 9.8 C 103.4 9.8 103.4 9.8 103.4 9.8 Z M 103.9 7.2 C 103.8 7.2 103.7 7.2 103.6 7.1 C 103.5 7.1 103.5 7 103.4 7 C 103.4 7 103.3 6.9 103.3 6.9 C 103.3 6.9 103.3 6.9 103.3 6.9 C 103.2 6.8 103.1 6.7 103.1 6.7 C 103 6.7 102.9 6.8 102.8 6.9 C 102.8 6.9 102.8 6.9 102.8 6.9 C 102.7 7.1 102.6 7.2 102.6 7.2 C 102.5 7.2 102.5 7.2 102.4 7.2 C 102.3 7.2 102.2 7.1 102.2 7 C 102.2 6.9 102.3 6.7 102.5 6.5 C 102.7 6.3 102.9 6.3 103 6.3 C 103.1 6.3 103.2 6.3 103.3 6.3 C 103.4 6.3 103.4 6.4 103.5 6.4 C 103.6 6.5 103.7 6.6 103.8 6.7 C 103.8 6.7 103.9 6.7 103.9 6.7 C 103.9 6.7 104 6.7 104.1 6.6 C 104.1 6.5 104.1 6.5 104.2 6.5 C 104.2 6.4 104.2 6.4 104.2 6.4 C 104.2 6.4 104.3 6.3 104.4 6.3 C 104.5 6.3 104.5 6.4 104.5 6.5 C 104.5 6.6 104.5 6.7 104.3 6.9 C 104.2 7.1 104.1 7.2 103.9 7.2 C 103.9 7.2 103.9 7.2 103.9 7.2 Z M 106.2 11.4 C 105.9 11.4 105.7 11.3 105.5 11 C 105.3 10.8 105.2 10.5 105.2 10.2 C 105.2 9.9 105.3 9.5 105.5 9.1 C 105.7 8.7 105.9 8.3 106.2 8.1 C 106.6 7.8 106.9 7.7 107.3 7.7 C 107.5 7.7 107.8 7.7 107.9 7.8 C 108.1 7.8 108.3 7.9 108.4 8.1 C 108.6 8.2 108.7 8.3 108.7 8.5 C 108.8 8.6 108.8 8.8 108.8 9 C 108.8 9.2 108.7 9.5 108.6 9.8 C 108.5 10.1 108.3 10.3 108 10.6 C 107.8 10.9 107.5 11.1 107.2 11.2 C 107 11.3 106.6 11.4 106.2 11.4 Z M 105.8 10.2 C 105.8 10.4 105.8 10.5 106 10.7 C 106.1 10.8 106.2 10.9 106.4 10.9 C 106.8 10.9 107.2 10.7 107.6 10.3 C 108 9.8 108.2 9.4 108.2 8.9 C 108.2 8.8 108.1 8.6 108.1 8.5 C 108 8.4 107.9 8.3 107.7 8.3 C 107.6 8.2 107.4 8.2 107.3 8.2 C 106.9 8.2 106.6 8.4 106.3 8.8 C 105.9 9.3 105.8 9.7 105.8 10.2 Z " stroke="none" fill="#000"/>  </g>  <g id="Polygon14747">    <path d="M 3 1.2 C 3 1.2 2.9 1.2 2.9 1.2 C 2.8 1.2 2.8 1.2 2.8 1.2 C 2.7 1.2 2.7 1.2 2.6 1.2 C 2.4 1.2 2.1 1.2 1.9 1.3 C 1.6 1.3 1.4 1.3 1.3 1.4 C 1.2 1.7 1.2 2 1.1 2.5 C 1.2 2.5 1.3 2.5 1.4 2.4 C 1.6 2.4 1.8 2.4 2.1 2.3 C 2.2 2.3 2.4 2.3 2.5 2.3 C 2.7 2.3 2.9 2.4 2.9 2.6 C 2.9 2.6 2.8 2.6 2.8 2.7 C 2.7 2.7 2.7 2.8 2.6 2.8 C 2.6 2.8 2.5 2.8 2.3 2.9 C 2.3 2.9 1.7 2.9 1.7 2.9 C 1.4 3 1.2 3 1.1 3 C 1.1 3 1.1 3.1 1.1 3.1 C 1.1 3.1 1.1 3.2 1 3.4 C 1 3.5 1 3.7 1 3.9 C 1 3.9 1 4.2 1 4.2 C 1 4.4 0.9 4.5 0.8 4.5 C 0.7 4.5 0.6 4.4 0.5 4.4 C 0.4 4.3 0.4 4.2 0.4 4.1 C 0.4 3.9 0.4 3.6 0.5 3.2 C 0.5 3.2 0.5 2.6 0.7 1.4 C 0.7 1.3 0.7 1.3 0.7 1.2 C 0.7 1.2 0.6 1.1 0.6 1.1 C 0.6 1 0.7 0.9 0.8 0.9 C 0.8 0.8 0.9 0.8 0.9 0.8 C 1 0.8 1 0.8 1.1 0.8 C 1.1 0.8 1.2 0.8 1.3 0.8 C 1.3 0.8 1.6 0.8 2 0.7 C 2.3 0.7 2.6 0.7 2.7 0.7 C 2.9 0.7 3 0.7 3.1 0.8 C 3.1 0.8 3.2 0.8 3.2 0.9 C 3.2 1 3.1 1.1 3 1.2 C 3 1.2 3 1.2 3 1.2 Z M 4.2 4.4 C 3.9 4.4 3.6 4.3 3.4 4 C 3.2 3.8 3.1 3.5 3.1 3.2 C 3.1 2.9 3.2 2.5 3.4 2.1 C 3.6 1.7 3.9 1.3 4.2 1.1 C 4.5 0.8 4.9 0.7 5.2 0.7 C 5.5 0.7 5.7 0.7 5.9 0.8 C 6 0.8 6.2 0.9 6.4 1.1 C 6.5 1.2 6.6 1.3 6.7 1.5 C 6.7 1.6 6.7 1.8 6.7 2 C 6.7 2.2 6.7 2.5 6.5 2.8 C 6.4 3.1 6.2 3.3 6 3.6 C 5.7 3.9 5.4 4.1 5.2 4.2 C 4.9 4.3 4.6 4.4 4.2 4.4 Z M 3.7 3.2 C 3.7 3.4 3.8 3.5 3.9 3.7 C 4 3.8 4.2 3.9 4.3 3.9 C 4.7 3.9 5.2 3.7 5.5 3.3 C 5.9 2.8 6.1 2.4 6.1 1.9 C 6.1 1.8 6.1 1.6 6 1.5 C 5.9 1.4 5.8 1.3 5.7 1.3 C 5.5 1.2 5.4 1.2 5.2 1.2 C 4.9 1.2 4.6 1.4 4.2 1.8 C 3.9 2.3 3.7 2.7 3.7 3.2 Z M 8 1.8 C 7.9 2 7.9 2.1 7.9 2.2 C 7.9 2.2 7.9 2.3 7.9 2.5 C 7.8 2.9 7.8 3.1 7.8 3.3 C 7.8 3.5 7.8 3.7 7.8 3.9 C 7.8 4 7.8 4.2 7.7 4.2 C 7.6 4.3 7.6 4.3 7.5 4.3 C 7.4 4.3 7.3 4.3 7.2 4.2 C 7.2 4.1 7.2 3.9 7.2 3.7 C 7.2 3.5 7.2 3.1 7.3 2.6 C 7.3 2.6 7.4 1.6 7.4 1.6 C 7.4 1.5 7.5 1.3 7.5 1.2 C 7.5 1 7.5 0.9 7.5 0.9 C 7.6 0.8 7.6 0.8 7.7 0.8 C 7.8 0.7 7.8 0.7 7.9 0.7 C 8 0.7 8 0.7 8.1 0.8 C 8.1 0.9 8.1 1 8.1 1.1 C 8.1 1.1 8 1.8 8 1.8 Z M 12.6 3.6 C 12.8 3.5 12.9 3.4 13 3.4 C 13.1 3.4 13.2 3.5 13.2 3.6 C 13.2 3.7 13 3.9 12.6 4.1 C 12.3 4.4 11.9 4.5 11.6 4.5 C 11.3 4.5 11 4.4 10.8 4.2 C 10.5 4 10.4 3.7 10.4 3.3 C 10.4 2.9 10.5 2.5 10.8 2.1 C 11 1.6 11.4 1.2 11.7 0.9 C 12.1 0.7 12.5 0.5 12.9 0.5 C 13.1 0.5 13.3 0.6 13.4 0.7 C 13.5 0.8 13.6 1 13.6 1.2 C 13.6 1.3 13.6 1.5 13.5 1.6 C 13.5 1.6 13.4 1.7 13.4 1.8 C 13.3 1.8 13.2 1.9 13.1 1.9 C 13.1 1.9 13 1.8 13 1.8 C 12.9 1.8 12.9 1.7 12.9 1.6 C 12.9 1.6 12.9 1.5 12.9 1.4 C 13 1.3 13 1.2 13 1.1 C 13 1 12.9 1 12.9 1 C 12.6 1 12.4 1.1 12.1 1.4 C 11.8 1.6 11.5 1.9 11.3 2.3 C 11.1 2.7 11 3 11 3.3 C 11 3.5 11.1 3.6 11.2 3.8 C 11.3 3.9 11.4 3.9 11.6 3.9 C 11.8 3.9 11.9 3.9 12.1 3.8 C 12.3 3.8 12.5 3.7 12.6 3.6 C 12.6 3.6 12.6 3.6 12.6 3.6 Z M 14.8 4.4 C 14.5 4.4 14.3 4.3 14.1 4 C 13.9 3.8 13.8 3.5 13.8 3.2 C 13.8 2.9 13.9 2.5 14.1 2.1 C 14.3 1.7 14.5 1.3 14.9 1.1 C 15.2 0.8 15.5 0.7 15.9 0.7 C 16.1 0.7 16.4 0.7 16.5 0.8 C 16.7 0.8 16.9 0.9 17 1.1 C 17.2 1.2 17.3 1.3 17.3 1.5 C 17.4 1.6 17.4 1.8 17.4 2 C 17.4 2.2 17.3 2.5 17.2 2.8 C 17.1 3.1 16.9 3.3 16.6 3.6 C 16.4 3.9 16.1 4.1 15.9 4.2 C 15.6 4.3 15.2 4.4 14.8 4.4 Z M 14.4 3.2 C 14.4 3.4 14.4 3.5 14.6 3.7 C 14.7 3.8 14.8 3.9 15 3.9 C 15.4 3.9 15.8 3.7 16.2 3.3 C 16.6 2.8 16.8 2.4 16.8 1.9 C 16.8 1.8 16.7 1.6 16.7 1.5 C 16.6 1.4 16.5 1.3 16.4 1.3 C 16.2 1.2 16 1.2 15.9 1.2 C 15.6 1.2 15.2 1.4 14.9 1.8 C 14.6 2.3 14.4 2.7 14.4 3.2 Z M 21.2 1.7 C 21.2 1.7 21.2 1.6 21.2 1.6 C 21.2 1.6 20.4 2.7 20.4 2.7 C 20 3.2 19.7 3.4 19.5 3.4 C 19.4 3.4 19.4 3.4 19.3 3.3 C 19.2 3.2 19.1 3 19.1 2.8 C 19 2.6 18.9 2.4 18.9 2.3 C 18.8 2 18.8 1.9 18.8 1.8 C 18.8 1.8 18.6 2.5 18.6 2.5 C 18.6 2.7 18.6 2.9 18.5 3 C 18.5 3.2 18.4 3.4 18.4 3.7 C 18.3 3.9 18.3 4.1 18.3 4.2 C 18.3 4.2 18.2 4.3 18.2 4.3 C 18.1 4.4 18 4.4 18 4.4 C 17.9 4.4 17.9 4.4 17.8 4.3 C 17.7 4.2 17.7 4.2 17.7 4.1 C 17.7 3.9 17.7 3.7 17.8 3.5 C 18.1 2.5 18.2 1.9 18.2 1.6 C 18.3 1.4 18.3 1.2 18.3 1 C 18.3 0.9 18.3 0.8 18.4 0.8 C 18.5 0.7 18.6 0.7 18.7 0.7 C 18.8 0.7 18.8 0.8 18.9 0.8 C 19 0.9 19 1 19 1.1 C 19.05 1.09 19 1.1 19 1.1 C 19 1.1 19.39 2.04 19.4 2 C 19.5 2.4 19.6 2.7 19.7 2.8 C 19.8 2.6 20.1 2.2 20.4 1.8 C 20.8 1.3 21 1 21.1 0.9 C 21.3 0.7 21.4 0.7 21.4 0.7 C 21.5 0.7 21.6 0.7 21.7 0.8 C 21.8 0.8 21.8 0.9 21.8 0.9 C 21.8 1 21.8 1.2 21.7 1.7 C 21.7 2 21.6 2.3 21.6 2.7 C 21.6 3.1 21.6 3.4 21.6 3.4 C 21.6 3.5 21.6 3.6 21.6 3.7 C 21.6 3.8 21.6 3.9 21.6 3.9 C 21.6 4.1 21.6 4.2 21.5 4.2 C 21.5 4.3 21.4 4.3 21.3 4.3 C 21.1 4.3 21 4.2 21 3.9 C 21 3.5 21 3.2 21 2.7 C 21.1 2.3 21.1 2 21.2 1.7 C 21.2 1.7 21.2 1.7 21.2 1.7 Z M 24.7 2.3 C 25 2.4 25.2 2.5 25.3 2.6 C 25.4 2.8 25.5 2.9 25.5 3.1 C 25.5 3.4 25.3 3.7 24.9 4 C 24.5 4.4 24 4.5 23.6 4.5 C 23.4 4.5 23.2 4.5 23.2 4.3 C 23.2 4.1 23.4 4 23.8 4 C 23.8 4 23.9 4 23.9 4 C 24 4 24.2 3.9 24.5 3.7 C 24.7 3.5 24.8 3.3 24.8 3.1 C 24.8 3 24.8 2.9 24.7 2.8 C 24.6 2.7 24.5 2.7 24.3 2.7 C 24.3 2.7 24.2 2.7 24.1 2.7 C 24 2.8 23.9 2.8 23.8 2.8 C 23.7 2.8 23.6 2.8 23.5 2.8 C 23.5 2.7 23.5 2.7 23.5 2.5 C 23.5 2.5 23.6 2.3 24 2.2 C 24.2 2.1 24.4 2 24.5 1.8 C 24.7 1.6 24.8 1.5 24.8 1.4 C 24.8 1.2 24.7 1.1 24.5 1.1 C 24.3 1.1 24 1.2 23.8 1.2 C 23.6 1.3 23.5 1.3 23.5 1.4 C 23.4 1.5 23.4 1.8 23.3 2.5 C 23.2 3.2 23.1 3.6 23.1 3.7 C 23.1 3.7 23.1 4 23.1 4 C 23.1 4.2 23.1 4.3 23 4.3 C 22.9 4.4 22.9 4.4 22.8 4.4 C 22.6 4.4 22.5 4.2 22.5 4 C 22.5 3.9 22.5 3.8 22.5 3.7 C 22.6 3.4 22.6 3 22.7 2.5 C 22.8 2 22.8 1.7 22.8 1.7 C 22.8 1.6 22.8 1.5 22.8 1.5 C 22.8 1.5 22.7 1.5 22.7 1.5 C 22.6 1.5 22.6 1.5 22.6 1.5 C 22.5 1.5 22.5 1.4 22.5 1.4 C 22.5 1.4 22.5 1.3 22.5 1.3 C 22.5 1.1 22.7 1 23.2 0.8 C 23.6 0.7 24.1 0.6 24.6 0.6 C 24.8 0.6 25.1 0.7 25.2 0.8 C 25.4 1 25.5 1.1 25.5 1.3 C 25.5 1.5 25.4 1.6 25.3 1.7 C 25.2 1.9 25 2 24.7 2.3 Z M 26.8 1.8 C 26.8 2 26.8 2.1 26.8 2.2 C 26.8 2.2 26.7 2.3 26.7 2.5 C 26.7 2.9 26.6 3.1 26.6 3.3 C 26.6 3.5 26.6 3.7 26.7 3.9 C 26.7 4 26.7 4.2 26.6 4.2 C 26.5 4.3 26.4 4.3 26.3 4.3 C 26.2 4.3 26.1 4.3 26.1 4.2 C 26 4.1 26 3.9 26 3.7 C 26 3.5 26 3.1 26.1 2.6 C 26.1 2.6 26.3 1.6 26.3 1.6 C 26.3 1.5 26.3 1.3 26.3 1.2 C 26.3 1 26.4 0.9 26.4 0.9 C 26.4 0.8 26.5 0.8 26.5 0.8 C 26.6 0.7 26.7 0.7 26.7 0.7 C 26.8 0.7 26.9 0.7 26.9 0.8 C 27 0.9 27 1 27 1.1 C 27 1.1 26.8 1.8 26.8 1.8 Z M 27.5 3.4 C 27.5 3.4 27.7 2.62 27.7 2.6 C 27.8 2 27.9 1.5 27.9 1.3 C 27.9 1.1 27.9 1.1 27.9 1 C 28 1 28 0.9 28.1 0.9 C 28.1 0.8 28.2 0.8 28.3 0.8 C 28.3 0.8 28.4 0.8 28.4 0.9 C 28.5 0.9 28.6 1 28.6 1.2 C 28.7 1.5 28.8 1.8 29.1 2.3 C 29.4 2.8 29.7 3.1 29.9 3.4 C 30 3.1 30 2.8 30.1 2.3 C 30.2 2 30.2 1.7 30.2 1.5 C 30.3 1.3 30.3 1.1 30.3 1 C 30.3 0.8 30.4 0.7 30.4 0.7 C 30.5 0.6 30.6 0.6 30.7 0.6 C 30.7 0.6 30.8 0.7 30.8 0.7 C 30.9 0.8 30.9 0.9 30.9 1 C 30.9 1.1 30.9 1.2 30.9 1.4 C 30.7 1.8 30.6 2.2 30.6 2.8 C 30.5 3.4 30.4 3.7 30.4 3.8 C 30.4 3.8 30.4 3.9 30.4 3.9 C 30.4 4 30.4 4.1 30.4 4.1 C 30.4 4.2 30.3 4.2 30.3 4.3 C 30.2 4.3 30.1 4.3 30 4.3 C 30 4.3 29.9 4.3 29.9 4.3 C 29.9 4.3 29.8 4.3 29.8 4.2 C 29.7 4.1 29.7 4.1 29.6 4 C 29.6 3.8 29.5 3.8 29.5 3.7 C 29.1 3.2 28.7 2.6 28.3 2 C 28.3 2.2 28.2 2.6 28.1 3.4 C 28.1 3.4 28.1 3.6 28.1 3.6 C 28.1 3.7 28.1 3.8 28 3.9 C 28 4.1 28 4.2 27.9 4.3 C 27.8 4.4 27.8 4.4 27.7 4.4 C 27.6 4.4 27.5 4.4 27.5 4.3 C 27.4 4.3 27.4 4.2 27.4 4 C 27.4 3.9 27.5 3.7 27.5 3.5 C 27.52 3.46 27.5 3.4 27.5 3.4 Z M 32.2 3.5 C 32.1 3.5 32 3.5 32 3.5 C 32 3.5 31.9 3.7 31.8 3.9 C 31.6 4.1 31.5 4.3 31.5 4.3 C 31.4 4.3 31.4 4.3 31.3 4.3 C 31.3 4.3 31.2 4.3 31.1 4.2 C 31 4.2 31 4.1 31 4 C 31 4 31.2 3.6 31.6 3 C 31.8 2.7 32 2.3 32.2 2 C 32.6 1.3 32.8 0.9 32.9 0.8 C 33 0.7 33 0.7 33.1 0.7 C 33.3 0.7 33.4 0.7 33.4 0.8 C 33.5 0.8 33.5 0.9 33.5 0.9 C 33.5 1 33.5 1.1 33.5 1.1 C 33.8 2 34 2.6 34.2 3 C 34.3 3.4 34.5 3.7 34.7 3.8 C 34.7 3.9 34.8 4 34.8 4 C 34.8 4 34.8 4.1 34.8 4.1 C 34.8 4.2 34.8 4.3 34.7 4.4 C 34.7 4.4 34.6 4.4 34.5 4.4 C 34.4 4.4 34.3 4.4 34.1 4.2 C 34 4.1 33.9 3.9 33.8 3.6 C 33.7 3.4 33.6 3.2 33.6 3.2 C 33.6 3.2 33.6 3.2 33.6 3.2 C 33.5 3.2 33.3 3.2 33 3.3 C 32.7 3.4 32.5 3.4 32.3 3.5 C 32.2 3.5 32.2 3.5 32.2 3.5 C 32.2 3.5 32.2 3.5 32.2 3.5 Z M 33.2 2.8 C 33.3 2.7 33.3 2.7 33.4 2.7 C 33.4 2.6 33.3 2.3 33.1 1.7 C 33 1.6 33 1.6 33 1.6 C 33 1.6 32.3 2.9 32.3 2.9 C 32.4 2.9 32.5 2.9 32.7 2.9 C 32.7 2.8 32.9 2.8 33.2 2.8 C 33.2 2.8 33.2 2.8 33.2 2.8 Z M 35.3 3.9 C 35.3 3.8 35.3 3.6 35.3 3.4 C 35.3 2.9 35.4 2.3 35.5 1.6 C 35.5 1.5 35.6 1.4 35.6 1.4 C 35.6 1.3 35.5 1.3 35.5 1.3 C 35.3 1.3 35.3 1.2 35.3 1.1 C 35.3 1 35.3 0.9 35.4 0.8 C 35.4 0.8 35.5 0.7 35.6 0.7 C 35.6 0.7 35.9 0.8 35.9 0.8 C 36.1 0.8 36.3 0.7 36.5 0.7 C 36.8 0.7 36.9 0.7 37.1 0.7 C 37.5 0.7 37.9 0.8 38.2 1.1 C 38.5 1.3 38.6 1.7 38.6 2.1 C 38.6 2.6 38.4 3 38 3.4 C 37.5 3.7 37 4 36.4 4.1 C 36.2 4.2 36.1 4.2 36 4.2 C 36 4.3 35.9 4.3 35.8 4.4 C 35.7 4.4 35.6 4.5 35.5 4.5 C 35.4 4.5 35.3 4.4 35.3 4.3 C 35.2 4.3 35.2 4.2 35.2 4.2 C 35.2 4.1 35.2 4.1 35.2 4 C 35.2 4 35.3 3.9 35.3 3.9 Z M 35.9 3.6 C 35.9 3.6 35.9 3.7 35.9 3.7 C 36 3.7 36.2 3.7 36.6 3.5 C 37.1 3.4 37.4 3.2 37.6 3 C 37.9 2.7 38 2.4 38 2.1 C 38 1.8 37.9 1.6 37.7 1.4 C 37.5 1.3 37.3 1.2 37 1.2 C 36.8 1.2 36.5 1.2 36.2 1.2 C 36.2 1.3 36.2 1.3 36.2 1.3 C 36 2.3 35.9 3.1 35.9 3.6 C 35.9 3.6 35.9 3.6 35.9 3.6 Z M 40 4.4 C 39.7 4.4 39.4 4.3 39.2 4 C 39 3.8 38.9 3.5 38.9 3.2 C 38.9 2.9 39 2.5 39.2 2.1 C 39.4 1.7 39.7 1.3 40 1.1 C 40.3 0.8 40.7 0.7 41 0.7 C 41.3 0.7 41.5 0.7 41.7 0.8 C 41.9 0.8 42 0.9 42.2 1.1 C 42.3 1.2 42.4 1.3 42.5 1.5 C 42.5 1.6 42.5 1.8 42.5 2 C 42.5 2.2 42.5 2.5 42.3 2.8 C 42.2 3.1 42 3.3 41.8 3.6 C 41.5 3.9 41.3 4.1 41 4.2 C 40.7 4.3 40.4 4.4 40 4.4 Z M 39.5 3.2 C 39.5 3.4 39.6 3.5 39.7 3.7 C 39.8 3.8 40 3.9 40.1 3.9 C 40.5 3.9 41 3.7 41.3 3.3 C 41.7 2.8 41.9 2.4 41.9 1.9 C 41.9 1.8 41.9 1.6 41.8 1.5 C 41.8 1.4 41.6 1.3 41.5 1.3 C 41.3 1.2 41.2 1.2 41 1.2 C 40.7 1.2 40.4 1.4 40 1.8 C 39.7 2.3 39.5 2.7 39.5 3.2 Z M 46.2 4.4 C 46 4.4 45.8 4.4 45.6 4.2 C 45.4 4.1 45.2 4 45.1 3.7 C 44.9 3.4 44.9 3.1 44.9 2.8 C 44.9 2.7 44.9 2.5 44.9 2.2 C 44.9 2.2 45 1.8 45 1.8 C 45 1.7 45 1.6 45.1 1.6 C 45.1 1.4 45.1 1.3 45.1 1.2 C 45.1 1.1 45.2 0.9 45.2 0.8 C 45.3 0.7 45.4 0.7 45.5 0.7 C 45.5 0.7 45.6 0.7 45.7 0.8 C 45.7 0.9 45.8 1 45.8 1 C 45.8 1.1 45.7 1.3 45.6 1.6 C 45.6 1.7 45.6 1.9 45.5 2.2 C 45.5 2.5 45.5 2.7 45.5 2.8 C 45.5 3.2 45.6 3.5 45.7 3.7 C 45.9 3.8 46.1 3.9 46.2 3.9 C 46.6 3.9 46.9 3.8 47.1 3.6 C 47.2 3.4 47.3 3.1 47.4 2.7 C 47.4 2.7 47.4 2.6 47.4 2.5 C 47.4 2.4 47.4 2.2 47.4 2.1 C 47.5 1.5 47.5 1.1 47.6 1 C 47.7 0.8 47.8 0.8 47.9 0.8 C 48.1 0.8 48.2 0.9 48.2 1.1 C 48.2 1.2 48.1 1.5 48.1 1.8 C 48 2 48 2.2 48 2.5 C 48 2.9 47.9 3.3 47.8 3.5 C 47.7 3.8 47.5 4 47.2 4.1 C 46.9 4.3 46.6 4.4 46.2 4.4 Z M 52 1.7 C 52 1.7 52 1.6 52 1.6 C 52 1.6 51.2 2.7 51.2 2.7 C 50.8 3.2 50.5 3.4 50.3 3.4 C 50.2 3.4 50.2 3.4 50.1 3.3 C 50 3.2 49.9 3 49.9 2.8 C 49.8 2.6 49.7 2.4 49.7 2.3 C 49.6 2 49.6 1.9 49.6 1.8 C 49.6 1.8 49.4 2.5 49.4 2.5 C 49.4 2.7 49.4 2.9 49.3 3 C 49.3 3.2 49.2 3.4 49.2 3.7 C 49.1 3.9 49.1 4.1 49.1 4.2 C 49.1 4.2 49.1 4.3 49 4.3 C 48.9 4.4 48.8 4.4 48.8 4.4 C 48.7 4.4 48.7 4.4 48.6 4.3 C 48.5 4.2 48.5 4.2 48.5 4.1 C 48.5 3.9 48.5 3.7 48.6 3.5 C 48.9 2.5 49 1.9 49 1.6 C 49.1 1.4 49.1 1.2 49.1 1 C 49.1 0.9 49.1 0.8 49.2 0.8 C 49.3 0.7 49.4 0.7 49.5 0.7 C 49.6 0.7 49.7 0.8 49.7 0.8 C 49.8 0.9 49.8 1 49.9 1.1 C 49.85 1.09 49.8 1.1 49.8 1.1 C 49.8 1.1 50.19 2.04 50.2 2 C 50.3 2.4 50.4 2.7 50.5 2.8 C 50.6 2.6 50.9 2.2 51.2 1.8 C 51.6 1.3 51.8 1 51.9 0.9 C 52.1 0.7 52.2 0.7 52.2 0.7 C 52.3 0.7 52.4 0.7 52.5 0.8 C 52.6 0.8 52.6 0.9 52.6 0.9 C 52.6 1 52.6 1.2 52.5 1.7 C 52.5 2 52.4 2.3 52.4 2.7 C 52.4 3.1 52.4 3.4 52.4 3.4 C 52.4 3.5 52.4 3.6 52.4 3.7 C 52.4 3.8 52.4 3.9 52.4 3.9 C 52.4 4.1 52.4 4.2 52.3 4.2 C 52.3 4.3 52.2 4.3 52.1 4.3 C 51.9 4.3 51.8 4.2 51.8 3.9 C 51.8 3.5 51.8 3.2 51.8 2.7 C 51.9 2.3 51.9 2 52 1.7 C 52 1.7 52 1.7 52 1.7 Z M 57.3 3.6 C 57.4 3.5 57.5 3.4 57.6 3.4 C 57.7 3.4 57.8 3.5 57.8 3.6 C 57.8 3.7 57.6 3.9 57.2 4.1 C 56.9 4.4 56.5 4.5 56.2 4.5 C 55.9 4.5 55.6 4.4 55.4 4.2 C 55.1 4 55 3.7 55 3.3 C 55 2.9 55.1 2.5 55.4 2.1 C 55.7 1.6 56 1.2 56.4 0.9 C 56.7 0.7 57.1 0.5 57.5 0.5 C 57.7 0.5 57.9 0.6 58 0.7 C 58.1 0.8 58.2 1 58.2 1.2 C 58.2 1.3 58.2 1.5 58.2 1.6 C 58.1 1.6 58.1 1.7 58 1.8 C 57.9 1.8 57.8 1.9 57.7 1.9 C 57.7 1.9 57.6 1.8 57.6 1.8 C 57.5 1.8 57.5 1.7 57.5 1.6 C 57.5 1.6 57.5 1.5 57.5 1.4 C 57.6 1.3 57.6 1.2 57.6 1.1 C 57.6 1 57.5 1 57.5 1 C 57.2 1 57 1.1 56.7 1.4 C 56.4 1.6 56.1 1.9 55.9 2.3 C 55.7 2.7 55.6 3 55.6 3.3 C 55.6 3.5 55.7 3.6 55.8 3.8 C 55.9 3.9 56.1 3.9 56.3 3.9 C 56.4 3.9 56.5 3.9 56.7 3.8 C 56.9 3.8 57.1 3.7 57.3 3.6 C 57.3 3.6 57.3 3.6 57.3 3.6 Z M 59.3 2.9 C 59.2 3 59.2 3.2 59.2 3.6 C 59.2 3.8 59.1 4 59.1 4.2 C 59 4.3 58.9 4.4 58.9 4.4 C 58.7 4.4 58.7 4.4 58.6 4.3 C 58.5 4.3 58.5 4.2 58.5 4 C 58.5 3.9 58.5 3.8 58.6 3.6 C 58.7 3.2 58.8 2.3 58.9 0.9 C 58.9 0.9 59 0.8 59 0.8 C 59.1 0.7 59.1 0.7 59.2 0.7 C 59.4 0.7 59.5 0.8 59.5 1.1 C 59.5 1.2 59.5 1.4 59.4 1.7 C 59.4 2 59.4 2.2 59.4 2.3 C 59.4 2.3 59.4 2.3 59.5 2.3 C 59.8 2.3 60.1 2.3 60.5 2.3 C 60.9 2.3 61.1 2.2 61.2 2.2 C 61.2 2.1 61.2 1.9 61.3 1.7 C 61.3 1.4 61.3 1.1 61.3 0.8 C 61.3 0.7 61.4 0.7 61.4 0.6 C 61.5 0.6 61.6 0.5 61.7 0.5 C 61.7 0.5 61.8 0.6 61.9 0.6 C 61.9 0.7 62 0.7 62 0.8 C 62 0.9 61.9 1.2 61.9 1.5 C 61.8 1.8 61.7 2.3 61.7 2.9 C 61.7 3.4 61.6 3.8 61.6 4 C 61.6 4.1 61.6 4.2 61.5 4.3 C 61.4 4.3 61.3 4.4 61.3 4.4 C 61.2 4.4 61.1 4.4 61.1 4.3 C 61 4.3 61 4.2 61 4.1 C 61 4 61 3.9 61 3.5 C 61.1 3.2 61.1 3 61.1 2.9 C 61.1 2.8 61.1 2.7 61.1 2.7 C 61 2.7 60.8 2.8 60.6 2.8 C 60.4 2.8 60.2 2.8 60.1 2.8 C 60.1 2.8 59.9 2.8 59.7 2.8 C 59.4 2.8 59.3 2.9 59.3 2.9 Z M 63.8 4.4 C 63.6 4.4 63.4 4.4 63.2 4.2 C 63 4.1 62.8 4 62.7 3.7 C 62.5 3.4 62.5 3.1 62.5 2.8 C 62.5 2.7 62.5 2.5 62.5 2.2 C 62.5 2.2 62.6 1.8 62.6 1.8 C 62.6 1.7 62.6 1.6 62.6 1.6 C 62.7 1.4 62.7 1.3 62.7 1.2 C 62.7 1.1 62.8 0.9 62.8 0.8 C 62.9 0.7 63 0.7 63.1 0.7 C 63.1 0.7 63.2 0.7 63.3 0.8 C 63.3 0.9 63.4 1 63.4 1 C 63.4 1.1 63.3 1.3 63.2 1.6 C 63.2 1.7 63.2 1.9 63.1 2.2 C 63.1 2.5 63.1 2.7 63.1 2.8 C 63.1 3.2 63.2 3.5 63.3 3.7 C 63.5 3.8 63.7 3.9 63.8 3.9 C 64.2 3.9 64.5 3.8 64.7 3.6 C 64.8 3.4 64.9 3.1 65 2.7 C 65 2.7 65 2.6 65 2.5 C 65 2.4 65 2.2 65 2.1 C 65.1 1.5 65.1 1.1 65.2 1 C 65.3 0.8 65.4 0.8 65.5 0.8 C 65.7 0.8 65.8 0.9 65.8 1.1 C 65.8 1.2 65.7 1.5 65.7 1.8 C 65.6 2 65.6 2.2 65.6 2.5 C 65.6 2.9 65.5 3.3 65.4 3.5 C 65.3 3.8 65.1 4 64.8 4.1 C 64.5 4.3 64.2 4.4 63.8 4.4 Z M 66.5 1.3 C 66.5 1.3 66.47 1.25 66.5 1.3 C 66.4 1.2 66.4 1.1 66.4 1.1 C 66.4 1 66.4 0.9 66.5 0.9 C 66.6 0.8 66.7 0.8 66.7 0.8 C 66.8 0.8 66.8 0.8 66.8 0.8 C 66.9 0.8 66.9 0.8 66.9 0.8 C 67.4 0.7 67.7 0.7 67.9 0.7 C 68.3 0.7 68.6 0.8 68.8 0.9 C 69 1.1 69.1 1.3 69.1 1.6 C 69.1 1.8 69 2 68.8 2.3 C 68.6 2.5 68.3 2.7 68 2.8 C 68.5 3.3 69 3.6 69.3 3.8 C 69.4 3.8 69.4 3.9 69.4 4 C 69.4 4.1 69.4 4.1 69.3 4.2 C 69.3 4.3 69.2 4.3 69.1 4.3 C 69 4.3 68.9 4.3 68.8 4.2 C 68.7 4.1 68.5 4 68.3 3.8 C 68.1 3.6 67.9 3.5 67.9 3.5 C 67.6 3.2 67.4 3 67.2 3 C 67.1 3 67 2.9 67 2.7 C 67 2.6 67 2.6 67.1 2.5 C 67.2 2.4 67.3 2.4 67.4 2.4 C 67.4 2.4 67.4 2.4 67.5 2.4 C 67.5 2.4 67.5 2.4 67.5 2.4 C 67.6 2.4 67.8 2.4 68.1 2.2 C 68.4 2 68.5 1.8 68.5 1.6 C 68.5 1.5 68.5 1.4 68.3 1.3 C 68.2 1.2 68.1 1.2 67.9 1.2 C 67.7 1.2 67.5 1.2 67.4 1.2 C 67.2 1.2 67.2 1.2 67.1 1.3 C 67.1 1.3 67.1 1.3 67.1 1.3 C 67.1 1.4 67.1 1.5 67 1.8 C 66.9 2.1 66.9 2.5 66.8 2.8 C 66.8 3.2 66.8 3.4 66.8 3.6 C 66.8 3.7 66.8 3.8 66.8 3.9 C 66.8 3.9 66.8 4 66.8 4.1 C 66.8 4.1 66.8 4.2 66.7 4.3 C 66.7 4.3 66.6 4.4 66.5 4.4 C 66.3 4.4 66.2 4.2 66.2 3.9 C 66.2 3.6 66.2 3.3 66.2 2.8 C 66.3 2.4 66.4 2 66.4 1.6 C 66.5 1.6 66.5 1.5 66.5 1.5 C 66.47 1.48 66.5 1.3 66.5 1.3 Z M 70 1.3 C 70 1.3 70.01 1.25 70 1.3 C 70 1.2 69.9 1.1 69.9 1.1 C 69.9 1 70 0.9 70 0.9 C 70.1 0.8 70.2 0.8 70.3 0.8 C 70.3 0.8 70.3 0.8 70.4 0.8 C 70.4 0.8 70.5 0.8 70.5 0.8 C 70.9 0.7 71.3 0.7 71.5 0.7 C 71.8 0.7 72.1 0.8 72.3 0.9 C 72.5 1.1 72.6 1.3 72.6 1.6 C 72.6 1.8 72.5 2 72.3 2.3 C 72.1 2.5 71.9 2.7 71.5 2.8 C 72.1 3.3 72.5 3.6 72.8 3.8 C 72.9 3.8 73 3.9 73 4 C 73 4.1 72.9 4.1 72.9 4.2 C 72.8 4.3 72.7 4.3 72.7 4.3 C 72.6 4.3 72.5 4.3 72.3 4.2 C 72.2 4.1 72 4 71.8 3.8 C 71.6 3.6 71.5 3.5 71.4 3.5 C 71.1 3.2 70.9 3 70.8 3 C 70.6 3 70.5 2.9 70.5 2.7 C 70.5 2.6 70.6 2.6 70.6 2.5 C 70.7 2.4 70.8 2.4 70.9 2.4 C 70.9 2.4 71 2.4 71 2.4 C 71 2.4 71 2.4 71.1 2.4 C 71.2 2.4 71.3 2.4 71.6 2.2 C 71.9 2 72.1 1.8 72.1 1.6 C 72.1 1.5 72 1.4 71.9 1.3 C 71.8 1.2 71.6 1.2 71.4 1.2 C 71.2 1.2 71 1.2 70.9 1.2 C 70.8 1.2 70.7 1.2 70.7 1.3 C 70.7 1.3 70.7 1.3 70.6 1.3 C 70.6 1.4 70.6 1.5 70.5 1.8 C 70.5 2.1 70.4 2.5 70.4 2.8 C 70.3 3.2 70.3 3.4 70.3 3.6 C 70.3 3.7 70.3 3.8 70.3 3.9 C 70.4 3.9 70.4 4 70.4 4.1 C 70.4 4.1 70.3 4.2 70.3 4.3 C 70.2 4.3 70.1 4.4 70 4.4 C 69.8 4.4 69.7 4.2 69.7 3.9 C 69.7 3.6 69.7 3.3 69.8 2.8 C 69.8 2.4 69.9 2 70 1.6 C 70 1.6 70 1.5 70 1.5 C 70 1.48 70 1.3 70 1.3 Z M 74 3.5 C 74 3.5 73.9 3.5 73.9 3.5 C 73.9 3.5 73.8 3.7 73.6 3.9 C 73.5 4.1 73.4 4.3 73.3 4.3 C 73.3 4.3 73.2 4.3 73.2 4.3 C 73.1 4.3 73.1 4.3 73 4.2 C 72.9 4.2 72.8 4.1 72.8 4 C 72.8 4 73.1 3.6 73.5 3 C 73.7 2.7 73.9 2.3 74.1 2 C 74.4 1.3 74.7 0.9 74.7 0.8 C 74.8 0.7 74.9 0.7 75 0.7 C 75.1 0.7 75.2 0.7 75.3 0.8 C 75.3 0.8 75.3 0.9 75.3 0.9 C 75.3 1 75.3 1.1 75.3 1.1 C 75.6 2 75.9 2.6 76 3 C 76.2 3.4 76.4 3.7 76.5 3.8 C 76.6 3.9 76.7 4 76.7 4 C 76.7 4 76.7 4.1 76.7 4.1 C 76.7 4.2 76.7 4.3 76.6 4.4 C 76.6 4.4 76.5 4.4 76.4 4.4 C 76.3 4.4 76.1 4.4 76 4.2 C 75.9 4.1 75.8 3.9 75.7 3.6 C 75.5 3.4 75.5 3.2 75.5 3.2 C 75.5 3.2 75.5 3.2 75.5 3.2 C 75.4 3.2 75.2 3.2 74.9 3.3 C 74.6 3.4 74.3 3.4 74.2 3.5 C 74.1 3.5 74.1 3.5 74 3.5 C 74 3.5 74 3.5 74 3.5 Z M 75.1 2.8 C 75.1 2.7 75.2 2.7 75.3 2.7 C 75.2 2.6 75.1 2.3 74.9 1.7 C 74.9 1.6 74.9 1.6 74.9 1.6 C 74.9 1.6 74.2 2.9 74.2 2.9 C 74.3 2.9 74.4 2.9 74.5 2.9 C 74.6 2.8 74.8 2.8 75.1 2.8 C 75.1 2.8 75.1 2.8 75.1 2.8 Z M 79.7 1.2 C 79.7 1.5 79.6 1.6 79.3 1.6 C 79.3 1.5 79.2 1.4 79.1 1.3 C 79.1 1.2 78.9 1.2 78.8 1.2 C 78.5 1.2 78.2 1.3 78 1.4 C 77.8 1.5 77.6 1.7 77.6 1.8 C 77.6 1.9 77.7 2 77.8 2.1 C 77.9 2.2 78.1 2.3 78.5 2.4 C 78.9 2.5 79.1 2.6 79.3 2.7 C 79.5 2.9 79.6 3 79.6 3.2 C 79.6 3.5 79.4 3.8 78.9 4.1 C 78.4 4.3 77.9 4.5 77.4 4.5 C 77.2 4.5 77.1 4.4 77 4.4 C 76.9 4.3 76.9 4.2 76.9 4.1 C 76.9 4 76.9 4 76.9 3.9 C 77 3.8 77 3.8 77.1 3.8 C 77.1 3.8 77.2 3.8 77.2 3.8 C 77.4 3.9 77.5 3.9 77.7 3.9 C 77.9 3.9 78.2 3.8 78.5 3.7 C 78.8 3.6 79 3.4 79 3.3 C 79 3.2 79 3.2 78.9 3.1 C 78.8 3.1 78.6 3 78.4 2.9 C 78 2.8 77.8 2.7 77.6 2.6 C 77.4 2.6 77.3 2.5 77.2 2.3 C 77.1 2.2 77.1 2.1 77.1 1.9 C 77.1 1.6 77.2 1.3 77.6 1 C 77.9 0.8 78.4 0.7 78.8 0.7 C 79.1 0.7 79.3 0.7 79.5 0.8 C 79.6 0.9 79.7 1.1 79.7 1.2 C 79.7 1.2 79.7 1.2 79.7 1.2 Z M 82.3 3.6 C 82.4 3.5 82.5 3.4 82.6 3.4 C 82.7 3.4 82.8 3.5 82.8 3.6 C 82.8 3.7 82.6 3.9 82.2 4.1 C 81.9 4.4 81.5 4.5 81.2 4.5 C 80.9 4.5 80.6 4.4 80.4 4.2 C 80.1 4 80 3.7 80 3.3 C 80 2.9 80.1 2.5 80.4 2.1 C 80.7 1.6 81 1.2 81.4 0.9 C 81.7 0.7 82.1 0.5 82.5 0.5 C 82.7 0.5 82.9 0.6 83 0.7 C 83.1 0.8 83.2 1 83.2 1.2 C 83.2 1.3 83.2 1.5 83.2 1.6 C 83.1 1.6 83.1 1.7 83 1.8 C 82.9 1.8 82.8 1.9 82.7 1.9 C 82.7 1.9 82.6 1.8 82.6 1.8 C 82.5 1.8 82.5 1.7 82.5 1.6 C 82.5 1.6 82.5 1.5 82.5 1.4 C 82.6 1.3 82.6 1.2 82.6 1.1 C 82.6 1 82.5 1 82.5 1 C 82.2 1 82 1.1 81.7 1.4 C 81.4 1.6 81.1 1.9 80.9 2.3 C 80.7 2.7 80.6 3 80.6 3.3 C 80.6 3.5 80.7 3.6 80.8 3.8 C 80.9 3.9 81.1 3.9 81.3 3.9 C 81.4 3.9 81.5 3.9 81.7 3.8 C 81.9 3.8 82.1 3.7 82.3 3.6 C 82.3 3.6 82.3 3.6 82.3 3.6 Z M 84.4 4.4 C 84.2 4.4 83.9 4.3 83.7 4 C 83.5 3.8 83.4 3.5 83.4 3.2 C 83.4 2.9 83.5 2.5 83.7 2.1 C 83.9 1.7 84.2 1.3 84.5 1.1 C 84.8 0.8 85.1 0.7 85.5 0.7 C 85.8 0.7 86 0.7 86.2 0.8 C 86.3 0.8 86.5 0.9 86.6 1.1 C 86.8 1.2 86.9 1.3 86.9 1.5 C 87 1.6 87 1.8 87 2 C 87 2.2 87 2.5 86.8 2.8 C 86.7 3.1 86.5 3.3 86.2 3.6 C 86 3.9 85.7 4.1 85.5 4.2 C 85.2 4.3 84.9 4.4 84.4 4.4 Z M 84 3.2 C 84 3.4 84.1 3.5 84.2 3.7 C 84.3 3.8 84.4 3.9 84.6 3.9 C 85 3.9 85.4 3.7 85.8 3.3 C 86.2 2.8 86.4 2.4 86.4 1.9 C 86.4 1.8 86.4 1.6 86.3 1.5 C 86.2 1.4 86.1 1.3 86 1.3 C 85.8 1.2 85.7 1.2 85.5 1.2 C 85.2 1.2 84.8 1.4 84.5 1.8 C 84.2 2.3 84 2.7 84 3.2 Z M 89.4 3.4 C 89.4 3.4 89.56 2.62 89.6 2.6 C 89.7 2 89.8 1.5 89.8 1.3 C 89.8 1.1 89.8 1.1 89.8 1 C 89.8 1 89.9 0.9 89.9 0.9 C 90 0.8 90 0.8 90.1 0.8 C 90.2 0.8 90.2 0.8 90.3 0.9 C 90.4 0.9 90.4 1 90.5 1.2 C 90.5 1.5 90.7 1.8 91 2.3 C 91.3 2.8 91.5 3.1 91.8 3.4 C 91.8 3.1 91.9 2.8 92 2.3 C 92 2 92.1 1.7 92.1 1.5 C 92.1 1.3 92.2 1.1 92.2 1 C 92.2 0.8 92.2 0.7 92.3 0.7 C 92.4 0.6 92.5 0.6 92.5 0.6 C 92.6 0.6 92.7 0.7 92.7 0.7 C 92.8 0.8 92.8 0.9 92.8 1 C 92.8 1.1 92.8 1.2 92.7 1.4 C 92.6 1.8 92.5 2.2 92.4 2.8 C 92.3 3.4 92.3 3.7 92.3 3.8 C 92.3 3.8 92.3 3.9 92.3 3.9 C 92.3 4 92.3 4.1 92.2 4.1 C 92.2 4.2 92.2 4.2 92.1 4.3 C 92.1 4.3 92 4.3 91.9 4.3 C 91.8 4.3 91.8 4.3 91.7 4.3 C 91.7 4.3 91.7 4.3 91.6 4.2 C 91.6 4.1 91.5 4.1 91.5 4 C 91.4 3.8 91.4 3.8 91.3 3.7 C 90.9 3.2 90.6 2.6 90.2 2 C 90.1 2.2 90.1 2.6 90 3.4 C 90 3.4 89.9 3.6 89.9 3.6 C 89.9 3.7 89.9 3.8 89.9 3.9 C 89.9 4.1 89.9 4.2 89.8 4.3 C 89.7 4.4 89.6 4.4 89.6 4.4 C 89.5 4.4 89.4 4.4 89.3 4.3 C 89.3 4.3 89.3 4.2 89.3 4 C 89.3 3.9 89.3 3.7 89.4 3.5 C 89.38 3.46 89.4 3.4 89.4 3.4 Z M 94 3.5 C 94 3.5 93.9 3.5 93.9 3.5 C 93.8 3.5 93.8 3.7 93.6 3.9 C 93.5 4.1 93.4 4.3 93.3 4.3 C 93.3 4.3 93.2 4.3 93.2 4.3 C 93.1 4.3 93 4.3 93 4.2 C 92.9 4.2 92.8 4.1 92.8 4 C 92.8 4 93 3.6 93.4 3 C 93.7 2.7 93.9 2.3 94.1 2 C 94.4 1.3 94.7 0.9 94.7 0.8 C 94.8 0.7 94.9 0.7 95 0.7 C 95.1 0.7 95.2 0.7 95.3 0.8 C 95.3 0.8 95.3 0.9 95.3 0.9 C 95.3 1 95.3 1.1 95.3 1.1 C 95.6 2 95.8 2.6 96 3 C 96.2 3.4 96.4 3.7 96.5 3.8 C 96.6 3.9 96.7 4 96.7 4 C 96.7 4 96.7 4.1 96.7 4.1 C 96.7 4.2 96.7 4.3 96.6 4.4 C 96.5 4.4 96.5 4.4 96.4 4.4 C 96.3 4.4 96.1 4.4 96 4.2 C 95.9 4.1 95.8 3.9 95.6 3.6 C 95.5 3.4 95.5 3.2 95.5 3.2 C 95.5 3.2 95.5 3.2 95.5 3.2 C 95.4 3.2 95.2 3.2 94.9 3.3 C 94.6 3.4 94.3 3.4 94.1 3.5 C 94.1 3.5 94 3.5 94 3.5 C 94 3.5 94 3.5 94 3.5 Z M 95.1 2.8 C 95.1 2.7 95.2 2.7 95.3 2.7 C 95.2 2.6 95.1 2.3 94.9 1.7 C 94.9 1.6 94.9 1.6 94.9 1.6 C 94.9 1.6 94.2 2.9 94.2 2.9 C 94.3 2.9 94.4 2.9 94.5 2.9 C 94.6 2.8 94.8 2.8 95.1 2.8 C 95.1 2.8 95.1 2.8 95.1 2.8 Z M 101.1 3.6 C 101.2 3.5 101.3 3.4 101.4 3.4 C 101.5 3.4 101.6 3.5 101.6 3.6 C 101.6 3.7 101.4 3.9 101 4.1 C 100.7 4.4 100.3 4.5 100 4.5 C 99.7 4.5 99.4 4.4 99.2 4.2 C 98.9 4 98.8 3.7 98.8 3.3 C 98.8 2.9 98.9 2.5 99.2 2.1 C 99.5 1.6 99.8 1.2 100.2 0.9 C 100.5 0.7 100.9 0.5 101.3 0.5 C 101.5 0.5 101.7 0.6 101.8 0.7 C 101.9 0.8 102 1 102 1.2 C 102 1.3 102 1.5 102 1.6 C 101.9 1.6 101.9 1.7 101.8 1.8 C 101.7 1.8 101.6 1.9 101.5 1.9 C 101.5 1.9 101.4 1.8 101.4 1.8 C 101.3 1.8 101.3 1.7 101.3 1.6 C 101.3 1.6 101.3 1.5 101.4 1.4 C 101.4 1.3 101.4 1.2 101.4 1.1 C 101.4 1 101.4 1 101.3 1 C 101 1 100.8 1.1 100.5 1.4 C 100.2 1.6 99.9 1.9 99.7 2.3 C 99.5 2.7 99.4 3 99.4 3.3 C 99.4 3.5 99.5 3.6 99.6 3.8 C 99.7 3.9 99.9 3.9 100.1 3.9 C 100.2 3.9 100.3 3.9 100.5 3.8 C 100.7 3.8 100.9 3.7 101.1 3.6 C 101.1 3.6 101.1 3.6 101.1 3.6 Z M 103 3.5 C 103 3.5 102.9 3.5 102.9 3.5 C 102.9 3.5 102.8 3.7 102.6 3.9 C 102.5 4.1 102.4 4.3 102.3 4.3 C 102.3 4.3 102.2 4.3 102.2 4.3 C 102.1 4.3 102.1 4.3 102 4.2 C 101.9 4.2 101.8 4.1 101.8 4 C 101.8 4 102.1 3.6 102.5 3 C 102.7 2.7 102.9 2.3 103.1 2 C 103.4 1.3 103.7 0.9 103.7 0.8 C 103.8 0.7 103.9 0.7 104 0.7 C 104.1 0.7 104.2 0.7 104.3 0.8 C 104.3 0.8 104.3 0.9 104.3 0.9 C 104.3 1 104.3 1.1 104.3 1.1 C 104.6 2 104.9 2.6 105 3 C 105.2 3.4 105.4 3.7 105.5 3.8 C 105.6 3.9 105.7 4 105.7 4 C 105.7 4 105.7 4.1 105.7 4.1 C 105.7 4.2 105.7 4.3 105.6 4.4 C 105.6 4.4 105.5 4.4 105.4 4.4 C 105.3 4.4 105.1 4.4 105 4.2 C 104.9 4.1 104.8 3.9 104.7 3.6 C 104.5 3.4 104.5 3.2 104.5 3.2 C 104.5 3.2 104.5 3.2 104.5 3.2 C 104.4 3.2 104.2 3.2 103.9 3.3 C 103.6 3.4 103.3 3.4 103.2 3.5 C 103.1 3.5 103.1 3.5 103 3.5 C 103 3.5 103 3.5 103 3.5 Z M 104.1 2.8 C 104.1 2.7 104.2 2.7 104.3 2.7 C 104.2 2.6 104.1 2.3 103.9 1.7 C 103.9 1.6 103.9 1.6 103.9 1.6 C 103.9 1.6 103.2 2.9 103.2 2.9 C 103.3 2.9 103.4 2.9 103.5 2.9 C 103.6 2.8 103.8 2.8 104.1 2.8 C 104.1 2.8 104.1 2.8 104.1 2.8 Z M 108.7 1.2 C 108.7 1.5 108.6 1.6 108.3 1.6 C 108.3 1.5 108.2 1.4 108.1 1.3 C 108.1 1.2 107.9 1.2 107.8 1.2 C 107.5 1.2 107.2 1.3 107 1.4 C 106.8 1.5 106.6 1.7 106.6 1.8 C 106.6 1.9 106.7 2 106.8 2.1 C 106.9 2.2 107.1 2.3 107.5 2.4 C 107.9 2.5 108.1 2.6 108.3 2.7 C 108.5 2.9 108.6 3 108.6 3.2 C 108.6 3.5 108.4 3.8 107.9 4.1 C 107.4 4.3 106.9 4.5 106.4 4.5 C 106.2 4.5 106.1 4.4 106 4.4 C 105.9 4.3 105.9 4.2 105.9 4.1 C 105.9 4 105.9 4 105.9 3.9 C 106 3.8 106 3.8 106.1 3.8 C 106.1 3.8 106.2 3.8 106.2 3.8 C 106.4 3.9 106.5 3.9 106.7 3.9 C 106.9 3.9 107.2 3.8 107.5 3.7 C 107.8 3.6 108 3.4 108 3.3 C 108 3.2 108 3.2 107.9 3.1 C 107.8 3.1 107.6 3 107.4 2.9 C 107 2.8 106.8 2.7 106.6 2.6 C 106.4 2.6 106.3 2.5 106.2 2.3 C 106.1 2.2 106.1 2.1 106.1 1.9 C 106.1 1.6 106.2 1.3 106.6 1 C 106.9 0.8 107.4 0.7 107.8 0.7 C 108.1 0.7 108.3 0.7 108.5 0.8 C 108.6 0.9 108.7 1.1 108.7 1.2 C 108.7 1.2 108.7 1.2 108.7 1.2 Z M 109.9 3.5 C 109.8 3.5 109.8 3.5 109.7 3.5 C 109.7 3.5 109.6 3.7 109.5 3.9 C 109.3 4.1 109.2 4.3 109.2 4.3 C 109.1 4.3 109.1 4.3 109 4.3 C 109 4.3 108.9 4.3 108.8 4.2 C 108.8 4.2 108.7 4.1 108.7 4 C 108.7 4 108.9 3.6 109.3 3 C 109.5 2.7 109.7 2.3 109.9 2 C 110.3 1.3 110.5 0.9 110.6 0.8 C 110.7 0.7 110.8 0.7 110.9 0.7 C 111 0.7 111.1 0.7 111.2 0.8 C 111.2 0.8 111.2 0.9 111.2 0.9 C 111.2 1 111.2 1.1 111.2 1.1 C 111.5 2 111.7 2.6 111.9 3 C 112.1 3.4 112.2 3.7 112.4 3.8 C 112.5 3.9 112.5 4 112.6 4 C 112.6 4 112.6 4.1 112.6 4.1 C 112.6 4.2 112.5 4.3 112.5 4.4 C 112.4 4.4 112.3 4.4 112.3 4.4 C 112.1 4.4 112 4.4 111.9 4.2 C 111.7 4.1 111.6 3.9 111.5 3.6 C 111.4 3.4 111.3 3.2 111.3 3.2 C 111.3 3.2 111.3 3.2 111.3 3.2 C 111.2 3.2 111 3.2 110.7 3.3 C 110.4 3.4 110.2 3.4 110 3.5 C 110 3.5 109.9 3.5 109.9 3.5 C 109.9 3.5 109.9 3.5 109.9 3.5 Z M 110.9 2.8 C 111 2.7 111.1 2.7 111.1 2.7 C 111.1 2.6 111 2.3 110.8 1.7 C 110.8 1.6 110.8 1.6 110.8 1.6 C 110.8 1.6 110.1 2.9 110.1 2.9 C 110.2 2.9 110.3 2.9 110.4 2.9 C 110.5 2.8 110.6 2.8 110.9 2.8 C 110.9 2.8 110.9 2.8 110.9 2.8 Z M 114.9 3.9 C 114.9 3.8 114.9 3.6 114.9 3.4 C 115 2.9 115 2.3 115.2 1.6 C 115.2 1.5 115.2 1.4 115.2 1.4 C 115.2 1.3 115.2 1.3 115.2 1.3 C 115 1.3 114.9 1.2 114.9 1.1 C 114.9 1 114.9 0.9 115 0.8 C 115.1 0.8 115.1 0.7 115.2 0.7 C 115.2 0.7 115.6 0.8 115.6 0.8 C 115.7 0.8 115.9 0.7 116.2 0.7 C 116.4 0.7 116.6 0.7 116.7 0.7 C 117.2 0.7 117.5 0.8 117.8 1.1 C 118.1 1.3 118.2 1.7 118.2 2.1 C 118.2 2.6 118 3 117.6 3.4 C 117.2 3.7 116.6 4 116 4.1 C 115.9 4.2 115.7 4.2 115.7 4.2 C 115.6 4.3 115.5 4.3 115.4 4.4 C 115.3 4.4 115.2 4.5 115.1 4.5 C 115 4.5 115 4.4 114.9 4.3 C 114.8 4.3 114.8 4.2 114.8 4.2 C 114.8 4.1 114.8 4.1 114.8 4 C 114.8 4 114.9 3.9 114.9 3.9 Z M 115.5 3.6 C 115.5 3.6 115.5 3.7 115.5 3.7 C 115.6 3.7 115.9 3.7 116.3 3.5 C 116.7 3.4 117 3.2 117.3 3 C 117.5 2.7 117.7 2.4 117.7 2.1 C 117.7 1.8 117.6 1.6 117.4 1.4 C 117.2 1.3 116.9 1.2 116.6 1.2 C 116.4 1.2 116.2 1.2 115.9 1.2 C 115.8 1.3 115.8 1.3 115.8 1.3 C 115.6 2.3 115.5 3.1 115.5 3.6 C 115.5 3.6 115.5 3.6 115.5 3.6 Z M 119.6 4.4 C 119.3 4.4 119.1 4.3 118.9 4 C 118.6 3.8 118.5 3.5 118.5 3.2 C 118.5 2.9 118.6 2.5 118.8 2.1 C 119 1.7 119.3 1.3 119.6 1.1 C 120 0.8 120.3 0.7 120.6 0.7 C 120.9 0.7 121.1 0.7 121.3 0.8 C 121.5 0.8 121.7 0.9 121.8 1.1 C 122 1.2 122 1.3 122.1 1.5 C 122.1 1.6 122.2 1.8 122.2 2 C 122.2 2.2 122.1 2.5 122 2.8 C 121.8 3.1 121.6 3.3 121.4 3.6 C 121.1 3.9 120.9 4.1 120.6 4.2 C 120.4 4.3 120 4.4 119.6 4.4 Z M 119.2 3.2 C 119.2 3.4 119.2 3.5 119.3 3.7 C 119.5 3.8 119.6 3.9 119.7 3.9 C 120.2 3.9 120.6 3.7 121 3.3 C 121.4 2.8 121.5 2.4 121.5 1.9 C 121.5 1.8 121.5 1.6 121.5 1.5 C 121.4 1.4 121.3 1.3 121.1 1.3 C 121 1.2 120.8 1.2 120.6 1.2 C 120.3 1.2 120 1.4 119.7 1.8 C 119.3 2.3 119.2 2.7 119.2 3.2 Z M 125.6 3.1 C 125.4 3.1 125.3 3.1 125.2 3.1 C 125.2 3.5 125.2 3.8 125.2 4.1 C 125.2 4.1 125.1 4.2 125.1 4.3 C 125 4.4 125 4.4 124.9 4.4 C 124.7 4.4 124.6 4.3 124.6 4 C 124.6 3.9 124.6 3.5 124.7 2.7 C 124.8 2.1 124.8 1.8 124.8 1.7 C 124.8 1.5 124.8 1.5 124.8 1.4 C 124.7 1.4 124.6 1.3 124.6 1.2 C 124.6 1 124.9 0.9 125.3 0.8 C 125.7 0.7 126.1 0.6 126.4 0.6 C 126.8 0.6 127.1 0.7 127.3 0.9 C 127.5 1 127.6 1.2 127.6 1.5 C 127.6 1.9 127.4 2.2 127 2.5 C 126.6 2.7 126.2 2.9 125.6 3.1 C 125.6 3.1 125.6 3.1 125.6 3.1 Z M 126.4 1.1 C 126.1 1.1 125.8 1.2 125.4 1.3 C 125.4 1.3 125.3 2.6 125.3 2.6 C 125.8 2.5 126.2 2.4 126.5 2.2 C 126.9 2 127.1 1.8 127.1 1.5 C 127.1 1.3 126.8 1.1 126.4 1.1 C 126.4 1.1 126.4 1.1 126.4 1.1 Z M 130.6 1.2 C 130.6 1.2 129.9 1.3 129.9 1.3 C 129.6 1.3 129.4 1.3 129.2 1.3 C 129 1.4 128.9 1.4 128.9 1.4 C 128.9 1.4 128.9 1.5 128.9 1.6 C 128.9 1.6 128.8 1.8 128.8 2 C 128.8 2.1 128.7 2.3 128.7 2.4 C 128.8 2.4 129 2.4 129.2 2.3 C 129.4 2.3 129.5 2.3 129.6 2.3 C 129.8 2.2 130 2.2 130.1 2.2 C 130.4 2.2 130.5 2.3 130.5 2.4 C 130.5 2.5 130.5 2.6 130.4 2.7 C 130.3 2.7 130.2 2.7 130.1 2.7 C 130 2.7 129.9 2.8 129.8 2.8 C 129.7 2.8 129.6 2.8 129.5 2.8 C 129.1 2.9 128.8 2.9 128.7 2.9 C 128.7 2.9 128.7 2.9 128.7 2.9 C 128.7 2.9 128.7 3 128.7 3 C 128.6 3 128.6 3.1 128.6 3.4 C 128.5 3.6 128.5 3.7 128.5 3.8 C 128.5 3.9 128.6 3.9 128.6 3.9 C 128.7 3.9 128.9 3.9 129.3 3.8 C 129.6 3.8 129.8 3.8 129.9 3.7 C 130.1 3.7 130.2 3.7 130.3 3.7 C 130.5 3.7 130.6 3.8 130.6 4 C 130.6 4 130.6 4.1 130.6 4.1 C 130.4 4.2 130.2 4.2 129.9 4.3 C 129.7 4.3 129.4 4.3 129.1 4.3 C 128.8 4.4 128.5 4.4 128.3 4.4 C 128.1 4.4 128 4.4 128 4.3 C 127.9 4.3 127.9 4.2 127.9 4.1 C 127.9 4.1 127.9 4 127.9 4 C 127.9 4 127.9 3.9 127.9 3.9 C 128 3.7 128.1 3.2 128.1 2.5 C 128.2 1.8 128.3 1.4 128.3 1.4 C 128.3 1.4 128.3 1.4 128.3 1.4 C 128.3 1.3 128.2 1.3 128.2 1.3 C 128.2 1.2 128.2 1.1 128.2 1.1 C 128.2 1.1 128.2 1 128.2 1 C 128.2 1 128.2 1 128.3 0.9 C 128.4 0.9 128.4 0.9 128.5 0.9 C 128.5 0.9 128.6 0.9 128.7 0.9 C 128.8 0.9 129.3 0.8 130 0.7 C 130.3 0.7 130.4 0.7 130.4 0.7 C 130.4 0.7 130.4 0.7 130.4 0.7 C 130.7 0.7 130.9 0.8 130.9 1 C 130.9 1 130.9 1.1 130.8 1.1 C 130.7 1.2 130.7 1.2 130.6 1.2 Z M 131.3 3.9 C 131.3 3.8 131.3 3.6 131.3 3.4 C 131.4 2.9 131.5 2.3 131.6 1.6 C 131.6 1.5 131.6 1.4 131.6 1.4 C 131.6 1.3 131.6 1.3 131.6 1.3 C 131.4 1.3 131.3 1.2 131.3 1.1 C 131.3 1 131.3 0.9 131.4 0.8 C 131.5 0.8 131.6 0.7 131.6 0.7 C 131.6 0.7 132 0.8 132 0.8 C 132.1 0.8 132.3 0.7 132.6 0.7 C 132.8 0.7 133 0.7 133.1 0.7 C 133.6 0.7 133.9 0.8 134.2 1.1 C 134.5 1.3 134.6 1.7 134.6 2.1 C 134.6 2.6 134.4 3 134 3.4 C 133.6 3.7 133 4 132.4 4.1 C 132.3 4.2 132.1 4.2 132.1 4.2 C 132 4.3 131.9 4.3 131.8 4.4 C 131.7 4.4 131.6 4.5 131.5 4.5 C 131.4 4.5 131.4 4.4 131.3 4.3 C 131.2 4.3 131.2 4.2 131.2 4.2 C 131.2 4.1 131.2 4.1 131.2 4 C 131.2 4 131.3 3.9 131.3 3.9 Z M 131.9 3.6 C 131.9 3.6 131.9 3.7 131.9 3.7 C 132 3.7 132.3 3.7 132.7 3.5 C 133.1 3.4 133.4 3.2 133.7 3 C 133.9 2.7 134.1 2.4 134.1 2.1 C 134.1 1.8 134 1.6 133.8 1.4 C 133.6 1.3 133.3 1.2 133 1.2 C 132.8 1.2 132.6 1.2 132.3 1.2 C 132.2 1.3 132.2 1.3 132.2 1.3 C 132 2.3 131.9 3.1 131.9 3.6 C 131.9 3.6 131.9 3.6 131.9 3.6 Z M 135.4 1.3 C 135.4 1.3 135.35 1.25 135.3 1.3 C 135.3 1.2 135.3 1.1 135.3 1.1 C 135.3 1 135.3 0.9 135.4 0.9 C 135.5 0.8 135.5 0.8 135.6 0.8 C 135.6 0.8 135.7 0.8 135.7 0.8 C 135.8 0.8 135.8 0.8 135.8 0.8 C 136.3 0.7 136.6 0.7 136.8 0.7 C 137.2 0.7 137.5 0.8 137.7 0.9 C 137.9 1.1 138 1.3 138 1.6 C 138 1.8 137.9 2 137.7 2.3 C 137.5 2.5 137.2 2.7 136.8 2.8 C 137.4 3.3 137.9 3.6 138.2 3.8 C 138.3 3.8 138.3 3.9 138.3 4 C 138.3 4.1 138.3 4.1 138.2 4.2 C 138.1 4.3 138.1 4.3 138 4.3 C 137.9 4.3 137.8 4.3 137.7 4.2 C 137.6 4.1 137.4 4 137.2 3.8 C 136.9 3.6 136.8 3.5 136.8 3.5 C 136.5 3.2 136.3 3 136.1 3 C 135.9 3 135.9 2.9 135.9 2.7 C 135.9 2.6 135.9 2.6 136 2.5 C 136 2.4 136.1 2.4 136.2 2.4 C 136.3 2.4 136.3 2.4 136.3 2.4 C 136.4 2.4 136.4 2.4 136.4 2.4 C 136.5 2.4 136.7 2.4 137 2.2 C 137.3 2 137.4 1.8 137.4 1.6 C 137.4 1.5 137.3 1.4 137.2 1.3 C 137.1 1.2 136.9 1.2 136.8 1.2 C 136.5 1.2 136.4 1.2 136.2 1.2 C 136.1 1.2 136 1.2 136 1.3 C 136 1.3 136 1.3 136 1.3 C 136 1.4 135.9 1.5 135.9 1.8 C 135.8 2.1 135.8 2.5 135.7 2.8 C 135.7 3.2 135.7 3.4 135.7 3.6 C 135.7 3.7 135.7 3.8 135.7 3.9 C 135.7 3.9 135.7 4 135.7 4.1 C 135.7 4.1 135.7 4.2 135.6 4.3 C 135.5 4.3 135.5 4.4 135.4 4.4 C 135.1 4.4 135 4.2 135 3.9 C 135 3.6 135.1 3.3 135.1 2.8 C 135.2 2.4 135.2 2 135.3 1.6 C 135.3 1.6 135.3 1.5 135.3 1.5 C 135.34 1.48 135.4 1.3 135.4 1.3 Z M 139.5 4.4 C 139.3 4.4 139 4.3 138.8 4 C 138.6 3.8 138.5 3.5 138.5 3.2 C 138.5 2.9 138.6 2.5 138.8 2.1 C 139 1.7 139.3 1.3 139.6 1.1 C 139.9 0.8 140.2 0.7 140.6 0.7 C 140.9 0.7 141.1 0.7 141.3 0.8 C 141.4 0.8 141.6 0.9 141.7 1.1 C 141.9 1.2 142 1.3 142 1.5 C 142.1 1.6 142.1 1.8 142.1 2 C 142.1 2.2 142 2.5 141.9 2.8 C 141.8 3.1 141.6 3.3 141.3 3.6 C 141.1 3.9 140.8 4.1 140.6 4.2 C 140.3 4.3 140 4.4 139.5 4.4 Z M 139.1 3.2 C 139.1 3.4 139.2 3.5 139.3 3.7 C 139.4 3.8 139.5 3.9 139.7 3.9 C 140.1 3.9 140.5 3.7 140.9 3.3 C 141.3 2.8 141.5 2.4 141.5 1.9 C 141.5 1.8 141.5 1.6 141.4 1.5 C 141.3 1.4 141.2 1.3 141.1 1.3 C 140.9 1.2 140.8 1.2 140.6 1.2 C 140.3 1.2 139.9 1.4 139.6 1.8 C 139.3 2.3 139.1 2.7 139.1 3.2 Z M 147.2 1.2 C 147.2 1.2 146.4 1.3 146.4 1.3 C 146.2 1.3 145.9 1.3 145.7 1.3 C 145.5 1.4 145.4 1.4 145.4 1.4 C 145.4 1.4 145.4 1.5 145.4 1.6 C 145.4 1.6 145.4 1.8 145.3 2 C 145.3 2.1 145.2 2.3 145.2 2.4 C 145.3 2.4 145.5 2.4 145.7 2.3 C 145.9 2.3 146 2.3 146.1 2.3 C 146.3 2.2 146.5 2.2 146.6 2.2 C 146.9 2.2 147 2.3 147 2.4 C 147 2.5 147 2.6 146.9 2.7 C 146.9 2.7 146.7 2.7 146.6 2.7 C 146.5 2.7 146.4 2.8 146.3 2.8 C 146.2 2.8 146.1 2.8 146 2.8 C 145.6 2.9 145.3 2.9 145.2 2.9 C 145.2 2.9 145.2 2.9 145.2 2.9 C 145.2 2.9 145.2 3 145.2 3 C 145.2 3 145.1 3.1 145.1 3.4 C 145.1 3.6 145 3.7 145 3.8 C 145.1 3.9 145.1 3.9 145.2 3.9 C 145.2 3.9 145.4 3.9 145.8 3.8 C 146.1 3.8 146.3 3.8 146.4 3.7 C 146.6 3.7 146.8 3.7 146.8 3.7 C 147 3.7 147.1 3.8 147.1 4 C 147.1 4 147.1 4.1 147.1 4.1 C 146.9 4.2 146.7 4.2 146.4 4.3 C 146.2 4.3 145.9 4.3 145.6 4.3 C 145.3 4.4 145 4.4 144.8 4.4 C 144.6 4.4 144.6 4.4 144.5 4.3 C 144.4 4.3 144.4 4.2 144.4 4.1 C 144.4 4.1 144.4 4 144.4 4 C 144.4 4 144.4 3.9 144.4 3.9 C 144.5 3.7 144.6 3.2 144.7 2.5 C 144.8 1.8 144.8 1.4 144.8 1.4 C 144.8 1.4 144.8 1.4 144.8 1.4 C 144.8 1.3 144.8 1.3 144.7 1.3 C 144.7 1.2 144.7 1.1 144.7 1.1 C 144.7 1.1 144.7 1 144.7 1 C 144.7 1 144.7 1 144.8 0.9 C 144.9 0.9 144.9 0.9 145 0.9 C 145.1 0.9 145.1 0.9 145.2 0.9 C 145.4 0.9 145.8 0.8 146.5 0.7 C 146.8 0.7 146.9 0.7 146.9 0.7 C 146.9 0.7 147 0.7 147 0.7 C 147.3 0.7 147.4 0.8 147.4 1 C 147.4 1 147.4 1.1 147.3 1.1 C 147.3 1.2 147.2 1.2 147.2 1.2 Z M 151 4.4 C 150.8 4.4 150.6 4.4 150.4 4.2 C 150.2 4.1 150 4 149.8 3.7 C 149.7 3.4 149.7 3.1 149.7 2.8 C 149.7 2.7 149.7 2.5 149.7 2.2 C 149.7 2.2 149.8 1.8 149.8 1.8 C 149.8 1.7 149.8 1.6 149.8 1.6 C 149.9 1.4 149.9 1.3 149.9 1.2 C 149.9 1.1 150 0.9 150 0.8 C 150.1 0.7 150.2 0.7 150.3 0.7 C 150.3 0.7 150.4 0.7 150.5 0.8 C 150.5 0.9 150.5 1 150.5 1 C 150.5 1.1 150.5 1.3 150.4 1.6 C 150.4 1.7 150.4 1.9 150.3 2.2 C 150.3 2.5 150.3 2.7 150.3 2.8 C 150.3 3.2 150.3 3.5 150.5 3.7 C 150.7 3.8 150.9 3.9 151 3.9 C 151.4 3.9 151.7 3.8 151.8 3.6 C 152 3.4 152.1 3.1 152.1 2.7 C 152.2 2.7 152.2 2.6 152.2 2.5 C 152.2 2.4 152.2 2.2 152.2 2.1 C 152.3 1.5 152.3 1.1 152.4 1 C 152.5 0.8 152.6 0.8 152.7 0.8 C 152.9 0.8 153 0.9 153 1.1 C 153 1.2 152.9 1.5 152.9 1.8 C 152.8 2 152.8 2.2 152.8 2.5 C 152.8 2.9 152.7 3.3 152.6 3.5 C 152.5 3.8 152.3 4 152 4.1 C 151.7 4.3 151.4 4.4 151 4.4 Z M 156.8 1.7 C 156.8 1.7 156.8 1.6 156.8 1.6 C 156.8 1.6 156 2.7 156 2.7 C 155.6 3.2 155.3 3.4 155.1 3.4 C 155 3.4 154.9 3.4 154.9 3.3 C 154.8 3.2 154.7 3 154.6 2.8 C 154.6 2.6 154.5 2.4 154.5 2.3 C 154.4 2 154.4 1.9 154.3 1.8 C 154.3 1.8 154.2 2.5 154.2 2.5 C 154.2 2.7 154.1 2.9 154.1 3 C 154.1 3.2 154 3.4 154 3.7 C 153.9 3.9 153.9 4.1 153.9 4.2 C 153.9 4.2 153.8 4.3 153.8 4.3 C 153.7 4.4 153.6 4.4 153.6 4.4 C 153.5 4.4 153.4 4.4 153.4 4.3 C 153.3 4.2 153.3 4.2 153.3 4.1 C 153.3 3.9 153.3 3.7 153.4 3.5 C 153.6 2.5 153.8 1.9 153.8 1.6 C 153.9 1.4 153.9 1.2 153.9 1 C 153.9 0.9 153.9 0.8 154 0.8 C 154.1 0.7 154.2 0.7 154.3 0.7 C 154.4 0.7 154.4 0.8 154.5 0.8 C 154.6 0.9 154.6 1 154.6 1.1 C 154.63 1.09 154.6 1.1 154.6 1.1 C 154.6 1.1 154.97 2.04 155 2 C 155.1 2.4 155.2 2.7 155.2 2.8 C 155.4 2.6 155.7 2.2 156 1.8 C 156.4 1.3 156.6 1 156.7 0.9 C 156.9 0.7 156.9 0.7 157 0.7 C 157.1 0.7 157.2 0.7 157.3 0.8 C 157.4 0.8 157.4 0.9 157.4 0.9 C 157.4 1 157.4 1.2 157.3 1.7 C 157.3 2 157.2 2.3 157.2 2.7 C 157.2 3.1 157.1 3.4 157.1 3.4 C 157.1 3.5 157.2 3.6 157.2 3.7 C 157.2 3.8 157.2 3.9 157.2 3.9 C 157.2 4.1 157.2 4.2 157.1 4.2 C 157.1 4.3 157 4.3 156.9 4.3 C 156.6 4.3 156.5 4.2 156.5 3.9 C 156.5 3.5 156.6 3.2 156.6 2.7 C 156.7 2.3 156.7 2 156.8 1.7 C 156.8 1.7 156.8 1.7 156.8 1.7 Z M 162.6 1.3 C 162.2 1.3 161.9 1.3 161.7 1.4 C 161.7 1.4 161.7 1.4 161.7 1.5 C 161.7 1.5 161.7 1.8 161.6 2.3 C 161.5 2.8 161.5 3.2 161.5 3.5 C 161.5 3.6 161.5 3.8 161.6 3.9 C 161.6 3.9 161.6 4 161.6 4 C 161.6 4.1 161.5 4.2 161.5 4.2 C 161.4 4.3 161.4 4.3 161.3 4.3 C 161.2 4.3 161.2 4.3 161.1 4.3 C 161 4.2 161 4.1 160.9 4 C 160.9 3.9 160.9 3.7 160.9 3.5 C 160.9 3.2 161 2.8 161 2.2 C 161.1 1.7 161.1 1.4 161.1 1.4 C 161.1 1.4 160.9 1.4 160.6 1.4 C 160.3 1.5 160.1 1.5 160 1.5 C 159.9 1.5 159.8 1.5 159.7 1.4 C 159.6 1.4 159.6 1.3 159.6 1.2 C 159.6 1.1 159.6 1.1 159.7 1 C 159.8 1 159.9 1 160.2 1 C 160.7 1 161.1 0.9 161.6 0.9 C 162.1 0.8 162.5 0.7 162.8 0.7 C 163 0.7 163.2 0.8 163.3 0.8 C 163.3 0.9 163.4 1 163.4 1.1 C 163.4 1.2 163.3 1.3 163.2 1.3 C 163.1 1.3 163.1 1.3 163 1.3 C 162.8 1.3 162.7 1.3 162.6 1.3 C 162.6 1.3 162.6 1.3 162.6 1.3 Z M 163.5 1.3 C 163.5 1.3 163.44 1.25 163.4 1.3 C 163.4 1.2 163.4 1.1 163.4 1.1 C 163.4 1 163.4 0.9 163.5 0.9 C 163.6 0.8 163.6 0.8 163.7 0.8 C 163.7 0.8 163.8 0.8 163.8 0.8 C 163.9 0.8 163.9 0.8 163.9 0.8 C 164.4 0.7 164.7 0.7 164.9 0.7 C 165.3 0.7 165.5 0.8 165.8 0.9 C 166 1.1 166.1 1.3 166.1 1.6 C 166.1 1.8 166 2 165.8 2.3 C 165.6 2.5 165.3 2.7 164.9 2.8 C 165.5 3.3 166 3.6 166.2 3.8 C 166.4 3.8 166.4 3.9 166.4 4 C 166.4 4.1 166.4 4.1 166.3 4.2 C 166.2 4.3 166.2 4.3 166.1 4.3 C 166 4.3 165.9 4.3 165.8 4.2 C 165.6 4.1 165.5 4 165.3 3.8 C 165 3.6 164.9 3.5 164.9 3.5 C 164.6 3.2 164.3 3 164.2 3 C 164 3 163.9 2.9 163.9 2.7 C 163.9 2.6 164 2.6 164.1 2.5 C 164.1 2.4 164.2 2.4 164.3 2.4 C 164.4 2.4 164.4 2.4 164.4 2.4 C 164.4 2.4 164.5 2.4 164.5 2.4 C 164.6 2.4 164.8 2.4 165.1 2.2 C 165.3 2 165.5 1.8 165.5 1.6 C 165.5 1.5 165.4 1.4 165.3 1.3 C 165.2 1.2 165 1.2 164.9 1.2 C 164.6 1.2 164.5 1.2 164.3 1.2 C 164.2 1.2 164.1 1.2 164.1 1.3 C 164.1 1.3 164.1 1.3 164.1 1.3 C 164.1 1.4 164 1.5 164 1.8 C 163.9 2.1 163.9 2.5 163.8 2.8 C 163.8 3.2 163.7 3.4 163.7 3.6 C 163.7 3.7 163.8 3.8 163.8 3.9 C 163.8 3.9 163.8 4 163.8 4.1 C 163.8 4.1 163.8 4.2 163.7 4.3 C 163.6 4.3 163.5 4.4 163.5 4.4 C 163.2 4.4 163.1 4.2 163.1 3.9 C 163.1 3.6 163.1 3.3 163.2 2.8 C 163.3 2.4 163.3 2 163.4 1.6 C 163.4 1.6 163.4 1.5 163.4 1.5 C 163.43 1.48 163.5 1.3 163.5 1.3 Z M 167.6 4.4 C 167.3 4.4 167.1 4.3 166.9 4 C 166.7 3.8 166.6 3.5 166.6 3.2 C 166.6 2.9 166.7 2.5 166.9 2.1 C 167.1 1.7 167.3 1.3 167.7 1.1 C 168 0.8 168.3 0.7 168.7 0.7 C 168.9 0.7 169.2 0.7 169.3 0.8 C 169.5 0.8 169.7 0.9 169.8 1.1 C 170 1.2 170.1 1.3 170.1 1.5 C 170.2 1.6 170.2 1.8 170.2 2 C 170.2 2.2 170.1 2.5 170 2.8 C 169.9 3.1 169.7 3.3 169.4 3.6 C 169.2 3.9 168.9 4.1 168.7 4.2 C 168.4 4.3 168 4.4 167.6 4.4 Z M 167.2 3.2 C 167.2 3.4 167.2 3.5 167.4 3.7 C 167.5 3.8 167.6 3.9 167.8 3.9 C 168.2 3.9 168.6 3.7 169 3.3 C 169.4 2.8 169.6 2.4 169.6 1.9 C 169.6 1.8 169.5 1.6 169.5 1.5 C 169.4 1.4 169.3 1.3 169.2 1.3 C 169 1.2 168.8 1.2 168.7 1.2 C 168.4 1.2 168 1.4 167.7 1.8 C 167.4 2.3 167.2 2.7 167.2 3.2 Z M 172 4.4 C 171.8 4.4 171.6 4.4 171.4 4.2 C 171.1 4.1 170.9 4 170.8 3.7 C 170.7 3.4 170.6 3.1 170.6 2.8 C 170.6 2.7 170.7 2.5 170.7 2.2 C 170.7 2.2 170.8 1.8 170.8 1.8 C 170.8 1.7 170.8 1.6 170.8 1.6 C 170.8 1.4 170.9 1.3 170.9 1.2 C 170.9 1.1 170.9 0.9 171 0.8 C 171 0.7 171.1 0.7 171.3 0.7 C 171.3 0.7 171.4 0.7 171.4 0.8 C 171.5 0.9 171.5 1 171.5 1 C 171.5 1.1 171.5 1.3 171.4 1.6 C 171.4 1.7 171.4 1.9 171.3 2.2 C 171.3 2.5 171.2 2.7 171.2 2.8 C 171.2 3.2 171.3 3.5 171.5 3.7 C 171.7 3.8 171.8 3.9 172 3.9 C 172.4 3.9 172.7 3.8 172.8 3.6 C 173 3.4 173.1 3.1 173.1 2.7 C 173.1 2.7 173.1 2.6 173.2 2.5 C 173.2 2.4 173.2 2.2 173.2 2.1 C 173.2 1.5 173.3 1.1 173.4 1 C 173.4 0.8 173.5 0.8 173.7 0.8 C 173.9 0.8 173.9 0.9 173.9 1.1 C 173.9 1.2 173.9 1.5 173.8 1.8 C 173.8 2 173.8 2.2 173.8 2.5 C 173.7 2.9 173.7 3.3 173.6 3.5 C 173.5 3.8 173.3 4 173 4.1 C 172.7 4.3 172.4 4.4 172 4.4 Z M 175.1 0.9 C 175.3 1.3 175.5 1.7 175.8 2 C 175.8 2 175.9 2 175.9 2 C 176.5 1.3 176.9 0.9 177 0.8 C 177.1 0.7 177.2 0.6 177.3 0.6 C 177.3 0.6 177.4 0.6 177.5 0.7 C 177.5 0.8 177.6 0.8 177.6 0.9 C 177.6 1 177.5 1.1 177.3 1.2 C 177.2 1.3 177 1.5 176.8 1.7 C 176.8 1.7 176.7 1.8 176.7 1.8 C 176.3 2.2 176.1 2.4 176.1 2.4 C 176.1 2.5 176.2 2.6 176.5 2.9 C 176.7 3.2 176.9 3.4 177 3.5 C 177.2 3.5 177.3 3.6 177.3 3.7 C 177.4 3.8 177.4 3.9 177.4 3.9 C 177.4 4 177.4 4 177.4 4.1 C 177.3 4.1 177.2 4.2 177.2 4.2 C 177 4.2 176.9 4.1 176.7 4 C 176.6 3.9 176.4 3.7 176.2 3.4 C 176 3.1 175.8 2.9 175.8 2.8 C 175.7 2.9 175.6 3 175.5 3.1 C 175 3.6 174.8 3.9 174.7 4.1 C 174.6 4.2 174.6 4.3 174.6 4.4 C 174.5 4.4 174.5 4.5 174.4 4.5 C 174.4 4.5 174.3 4.5 174.2 4.5 C 174 4.5 173.9 4.5 173.9 4.3 C 173.9 4.2 174 4 174.2 3.7 C 174.4 3.5 174.7 3.2 175.1 2.8 C 175.1 2.8 175.4 2.5 175.4 2.5 C 175.4 2.5 175.4 2.4 175.4 2.4 C 175.4 2.4 175.4 2.3 175.3 2.2 C 175.2 2.1 175.1 1.9 174.8 1.6 C 174.6 1.2 174.5 1.1 174.5 1 C 174.5 0.9 174.5 0.8 174.5 0.7 C 174.6 0.7 174.7 0.6 174.7 0.6 C 174.8 0.6 174.9 0.6 174.9 0.7 C 175 0.7 175 0.8 175.1 0.9 C 175.1 0.9 175.1 0.9 175.1 0.9 Z M 180.7 1.2 C 180.7 1.2 179.9 1.3 179.9 1.3 C 179.7 1.3 179.4 1.3 179.2 1.3 C 179.1 1.4 179 1.4 178.9 1.4 C 178.9 1.4 178.9 1.5 178.9 1.6 C 178.9 1.6 178.9 1.8 178.8 2 C 178.8 2.1 178.8 2.3 178.7 2.4 C 178.9 2.4 179 2.4 179.2 2.3 C 179.4 2.3 179.5 2.3 179.6 2.3 C 179.8 2.2 180 2.2 180.2 2.2 C 180.4 2.2 180.5 2.3 180.5 2.4 C 180.5 2.5 180.5 2.6 180.4 2.7 C 180.4 2.7 180.3 2.7 180.1 2.7 C 180 2.7 179.9 2.8 179.8 2.8 C 179.7 2.8 179.6 2.8 179.5 2.8 C 179.1 2.9 178.8 2.9 178.8 2.9 C 178.8 2.9 178.7 2.9 178.7 2.9 C 178.7 2.9 178.7 3 178.7 3 C 178.7 3 178.6 3.1 178.6 3.4 C 178.6 3.6 178.6 3.7 178.6 3.8 C 178.6 3.9 178.6 3.9 178.7 3.9 C 178.7 3.9 179 3.9 179.3 3.8 C 179.6 3.8 179.8 3.8 179.9 3.7 C 180.1 3.7 180.3 3.7 180.3 3.7 C 180.5 3.7 180.7 3.8 180.7 4 C 180.7 4 180.6 4.1 180.6 4.1 C 180.4 4.2 180.2 4.2 179.9 4.3 C 179.7 4.3 179.4 4.3 179.1 4.3 C 178.8 4.4 178.5 4.4 178.3 4.4 C 178.2 4.4 178.1 4.4 178 4.3 C 177.9 4.3 177.9 4.2 177.9 4.1 C 177.9 4.1 177.9 4 177.9 4 C 177.9 4 177.9 3.9 177.9 3.9 C 178 3.7 178.1 3.2 178.2 2.5 C 178.3 1.8 178.3 1.4 178.3 1.4 C 178.3 1.4 178.3 1.4 178.3 1.4 C 178.3 1.3 178.3 1.3 178.2 1.3 C 178.2 1.2 178.2 1.1 178.2 1.1 C 178.2 1.1 178.2 1 178.2 1 C 178.2 1 178.3 1 178.3 0.9 C 178.4 0.9 178.4 0.9 178.5 0.9 C 178.6 0.9 178.7 0.9 178.7 0.9 C 178.9 0.9 179.3 0.8 180 0.7 C 180.3 0.7 180.4 0.7 180.4 0.7 C 180.4 0.7 180.5 0.7 180.5 0.7 C 180.8 0.7 180.9 0.8 180.9 1 C 180.9 1 180.9 1.1 180.8 1.1 C 180.8 1.2 180.7 1.2 180.7 1.2 Z M 185.3 3.6 C 185.4 3.5 185.5 3.4 185.6 3.4 C 185.7 3.4 185.8 3.5 185.8 3.6 C 185.8 3.7 185.6 3.9 185.2 4.1 C 184.9 4.4 184.5 4.5 184.2 4.5 C 183.9 4.5 183.6 4.4 183.4 4.2 C 183.1 4 183 3.7 183 3.3 C 183 2.9 183.1 2.5 183.4 2.1 C 183.7 1.6 184 1.2 184.4 0.9 C 184.8 0.7 185.1 0.5 185.5 0.5 C 185.7 0.5 185.9 0.6 186 0.7 C 186.1 0.8 186.2 1 186.2 1.2 C 186.2 1.3 186.2 1.5 186.2 1.6 C 186.1 1.6 186.1 1.7 186 1.8 C 185.9 1.8 185.8 1.9 185.7 1.9 C 185.7 1.9 185.6 1.8 185.6 1.8 C 185.5 1.8 185.5 1.7 185.5 1.6 C 185.5 1.6 185.5 1.5 185.6 1.4 C 185.6 1.3 185.6 1.2 185.6 1.1 C 185.6 1 185.6 1 185.5 1 C 185.2 1 185 1.1 184.7 1.4 C 184.4 1.6 184.2 1.9 183.9 2.3 C 183.7 2.7 183.6 3 183.6 3.3 C 183.6 3.5 183.7 3.6 183.8 3.8 C 183.9 3.9 184.1 3.9 184.3 3.9 C 184.4 3.9 184.6 3.9 184.7 3.8 C 184.9 3.8 185.1 3.7 185.3 3.6 C 185.3 3.6 185.3 3.6 185.3 3.6 Z M 187.2 3.5 C 187.2 3.5 187.1 3.5 187.1 3.5 C 187.1 3.5 187 3.7 186.8 3.9 C 186.7 4.1 186.6 4.3 186.5 4.3 C 186.5 4.3 186.4 4.3 186.4 4.3 C 186.3 4.3 186.3 4.3 186.2 4.2 C 186.1 4.2 186.1 4.1 186.1 4 C 186.1 4 186.3 3.6 186.7 3 C 186.9 2.7 187.1 2.3 187.3 2 C 187.6 1.3 187.9 0.9 188 0.8 C 188 0.7 188.1 0.7 188.2 0.7 C 188.3 0.7 188.4 0.7 188.5 0.8 C 188.5 0.8 188.6 0.9 188.6 0.9 C 188.6 1 188.5 1.1 188.5 1.1 C 188.8 2 189.1 2.6 189.2 3 C 189.4 3.4 189.6 3.7 189.7 3.8 C 189.8 3.9 189.9 4 189.9 4 C 189.9 4 189.9 4.1 189.9 4.1 C 189.9 4.2 189.9 4.3 189.8 4.4 C 189.8 4.4 189.7 4.4 189.6 4.4 C 189.5 4.4 189.3 4.4 189.2 4.2 C 189.1 4.1 189 3.9 188.9 3.6 C 188.7 3.4 188.7 3.2 188.7 3.2 C 188.7 3.2 188.7 3.2 188.7 3.2 C 188.6 3.2 188.4 3.2 188.1 3.3 C 187.8 3.4 187.5 3.4 187.4 3.5 C 187.3 3.5 187.3 3.5 187.2 3.5 C 187.2 3.5 187.2 3.5 187.2 3.5 Z M 188.3 2.8 C 188.4 2.7 188.4 2.7 188.5 2.7 C 188.5 2.6 188.3 2.3 188.1 1.7 C 188.1 1.6 188.1 1.6 188.1 1.6 C 188.1 1.6 187.4 2.9 187.4 2.9 C 187.5 2.9 187.6 2.9 187.7 2.9 C 187.8 2.8 188 2.8 188.3 2.8 C 188.3 2.8 188.3 2.8 188.3 2.8 Z M 190.6 1.3 C 190.6 1.3 190.53 1.25 190.5 1.3 C 190.5 1.2 190.4 1.1 190.4 1.1 C 190.4 1 190.5 0.9 190.6 0.9 C 190.6 0.8 190.7 0.8 190.8 0.8 C 190.8 0.8 190.9 0.8 190.9 0.8 C 190.9 0.8 191 0.8 191 0.8 C 191.5 0.7 191.8 0.7 192 0.7 C 192.4 0.7 192.6 0.8 192.9 0.9 C 193.1 1.1 193.2 1.3 193.2 1.6 C 193.2 1.8 193.1 2 192.9 2.3 C 192.6 2.5 192.4 2.7 192 2.8 C 192.6 3.3 193 3.6 193.3 3.8 C 193.4 3.8 193.5 3.9 193.5 4 C 193.5 4.1 193.5 4.1 193.4 4.2 C 193.3 4.3 193.2 4.3 193.2 4.3 C 193.1 4.3 193 4.3 192.9 4.2 C 192.7 4.1 192.6 4 192.3 3.8 C 192.1 3.6 192 3.5 192 3.5 C 191.7 3.2 191.4 3 191.3 3 C 191.1 3 191 2.9 191 2.7 C 191 2.6 191.1 2.6 191.2 2.5 C 191.2 2.4 191.3 2.4 191.4 2.4 C 191.4 2.4 191.5 2.4 191.5 2.4 C 191.5 2.4 191.6 2.4 191.6 2.4 C 191.7 2.4 191.9 2.4 192.1 2.2 C 192.4 2 192.6 1.8 192.6 1.6 C 192.6 1.5 192.5 1.4 192.4 1.3 C 192.3 1.2 192.1 1.2 191.9 1.2 C 191.7 1.2 191.6 1.2 191.4 1.2 C 191.3 1.2 191.2 1.2 191.2 1.3 C 191.2 1.3 191.2 1.3 191.2 1.3 C 191.1 1.4 191.1 1.5 191.1 1.8 C 191 2.1 190.9 2.5 190.9 2.8 C 190.9 3.2 190.8 3.4 190.8 3.6 C 190.8 3.7 190.8 3.8 190.9 3.9 C 190.9 3.9 190.9 4 190.9 4.1 C 190.9 4.1 190.8 4.2 190.8 4.3 C 190.7 4.3 190.6 4.4 190.6 4.4 C 190.3 4.4 190.2 4.2 190.2 3.9 C 190.2 3.6 190.2 3.3 190.3 2.8 C 190.4 2.4 190.4 2 190.5 1.6 C 190.5 1.6 190.5 1.5 190.5 1.5 C 190.52 1.48 190.6 1.3 190.6 1.3 Z M 193.8 3.4 C 193.8 3.4 194.02 2.62 194 2.6 C 194.2 2 194.2 1.5 194.2 1.3 C 194.2 1.1 194.3 1.1 194.3 1 C 194.3 1 194.3 0.9 194.4 0.9 C 194.4 0.8 194.5 0.8 194.6 0.8 C 194.6 0.8 194.7 0.8 194.8 0.9 C 194.8 0.9 194.9 1 194.9 1.2 C 195 1.5 195.2 1.8 195.5 2.3 C 195.7 2.8 196 3.1 196.2 3.4 C 196.3 3.1 196.4 2.8 196.4 2.3 C 196.5 2 196.5 1.7 196.6 1.5 C 196.6 1.3 196.6 1.1 196.6 1 C 196.6 0.8 196.7 0.7 196.8 0.7 C 196.8 0.6 196.9 0.6 197 0.6 C 197.1 0.6 197.1 0.7 197.2 0.7 C 197.2 0.8 197.2 0.9 197.2 1 C 197.2 1.1 197.2 1.2 197.2 1.4 C 197.1 1.8 197 2.2 196.9 2.8 C 196.8 3.4 196.7 3.7 196.7 3.8 C 196.7 3.8 196.7 3.9 196.7 3.9 C 196.7 4 196.7 4.1 196.7 4.1 C 196.7 4.2 196.6 4.2 196.6 4.3 C 196.5 4.3 196.4 4.3 196.3 4.3 C 196.3 4.3 196.2 4.3 196.2 4.3 C 196.2 4.3 196.1 4.3 196.1 4.2 C 196.1 4.1 196 4.1 196 4 C 195.9 3.8 195.8 3.8 195.8 3.7 C 195.4 3.2 195 2.6 194.7 2 C 194.6 2.2 194.5 2.6 194.4 3.4 C 194.4 3.4 194.4 3.6 194.4 3.6 C 194.4 3.7 194.4 3.8 194.4 3.9 C 194.4 4.1 194.3 4.2 194.2 4.3 C 194.2 4.4 194.1 4.4 194 4.4 C 193.9 4.4 193.9 4.4 193.8 4.3 C 193.8 4.3 193.7 4.2 193.7 4 C 193.7 3.9 193.8 3.7 193.8 3.5 C 193.84 3.46 193.8 3.4 193.8 3.4 Z M 200.5 1.2 C 200.5 1.2 199.7 1.3 199.7 1.3 C 199.5 1.3 199.2 1.3 199 1.3 C 198.9 1.4 198.7 1.4 198.7 1.4 C 198.7 1.4 198.7 1.5 198.7 1.6 C 198.7 1.6 198.7 1.8 198.6 2 C 198.6 2.1 198.5 2.3 198.5 2.4 C 198.6 2.4 198.8 2.4 199 2.3 C 199.2 2.3 199.3 2.3 199.4 2.3 C 199.6 2.2 199.8 2.2 199.9 2.2 C 200.2 2.2 200.3 2.3 200.3 2.4 C 200.3 2.5 200.3 2.6 200.2 2.7 C 200.2 2.7 200 2.7 199.9 2.7 C 199.8 2.7 199.7 2.8 199.6 2.8 C 199.5 2.8 199.4 2.8 199.3 2.8 C 198.9 2.9 198.6 2.9 198.5 2.9 C 198.5 2.9 198.5 2.9 198.5 2.9 C 198.5 2.9 198.5 3 198.5 3 C 198.5 3 198.4 3.1 198.4 3.4 C 198.4 3.6 198.3 3.7 198.3 3.8 C 198.4 3.9 198.4 3.9 198.5 3.9 C 198.5 3.9 198.7 3.9 199.1 3.8 C 199.4 3.8 199.6 3.8 199.7 3.7 C 199.9 3.7 200.1 3.7 200.1 3.7 C 200.3 3.7 200.4 3.8 200.4 4 C 200.4 4 200.4 4.1 200.4 4.1 C 200.2 4.2 200 4.2 199.7 4.3 C 199.5 4.3 199.2 4.3 198.9 4.3 C 198.6 4.4 198.3 4.4 198.1 4.4 C 198 4.4 197.9 4.4 197.8 4.3 C 197.7 4.3 197.7 4.2 197.7 4.1 C 197.7 4.1 197.7 4 197.7 4 C 197.7 4 197.7 3.9 197.7 3.9 C 197.8 3.7 197.9 3.2 198 2.5 C 198.1 1.8 198.1 1.4 198.1 1.4 C 198.1 1.4 198.1 1.4 198.1 1.4 C 198.1 1.3 198.1 1.3 198 1.3 C 198 1.2 198 1.1 198 1.1 C 198 1.1 198 1 198 1 C 198 1 198 1 198.1 0.9 C 198.2 0.9 198.2 0.9 198.3 0.9 C 198.4 0.9 198.4 0.9 198.5 0.9 C 198.7 0.9 199.1 0.8 199.8 0.7 C 200.1 0.7 200.2 0.7 200.2 0.7 C 200.2 0.7 200.3 0.7 200.3 0.7 C 200.6 0.7 200.7 0.8 200.7 1 C 200.7 1 200.7 1.1 200.6 1.1 C 200.6 1.2 200.5 1.2 200.5 1.2 Z M 200.9 4.7 C 200.9 4.6 201 4.6 201 4.6 C 201.1 4.5 201.2 4.5 201.3 4.4 C 201.5 4.4 201.5 4.3 201.6 4.2 C 201.6 4.1 201.6 4 201.6 4 C 201.6 3.9 201.6 3.8 201.6 3.7 C 201.6 3.7 201.5 3.6 201.5 3.6 C 201.5 3.6 201.6 3.5 201.6 3.5 C 201.6 3.4 201.7 3.4 201.7 3.4 C 201.8 3.4 201.9 3.4 201.9 3.4 C 202 3.5 202.1 3.5 202.1 3.5 C 202.1 3.6 202.1 3.6 202.2 3.7 C 202.2 3.8 202.2 3.9 202.2 4 C 202.2 4 202.2 4.1 202.1 4.3 C 202 4.4 201.9 4.5 201.8 4.6 C 201.7 4.7 201.6 4.7 201.5 4.8 C 201.5 4.8 201.5 4.8 201.5 4.8 C 201.3 4.8 201.2 4.9 201.1 4.9 C 201 4.9 200.9 4.8 200.9 4.7 C 200.9 4.7 200.9 4.7 200.9 4.7 Z M 205.5 4.4 C 205.2 4.4 204.9 4.3 204.7 4 C 204.5 3.8 204.4 3.5 204.4 3.2 C 204.4 2.9 204.5 2.5 204.7 2.1 C 204.9 1.7 205.2 1.3 205.5 1.1 C 205.8 0.8 206.2 0.7 206.5 0.7 C 206.8 0.7 207 0.7 207.2 0.8 C 207.3 0.8 207.5 0.9 207.7 1.1 C 207.8 1.2 207.9 1.3 208 1.5 C 208 1.6 208 1.8 208 2 C 208 2.2 208 2.5 207.8 2.8 C 207.7 3.1 207.5 3.3 207.3 3.6 C 207 3.9 206.7 4.1 206.5 4.2 C 206.2 4.3 205.9 4.4 205.5 4.4 Z M 205 3.2 C 205 3.4 205.1 3.5 205.2 3.7 C 205.3 3.8 205.5 3.9 205.6 3.9 C 206 3.9 206.5 3.7 206.8 3.3 C 207.2 2.8 207.4 2.4 207.4 1.9 C 207.4 1.8 207.4 1.6 207.3 1.5 C 207.2 1.4 207.1 1.3 207 1.3 C 206.8 1.2 206.7 1.2 206.5 1.2 C 206.2 1.2 205.9 1.4 205.5 1.8 C 205.2 2.3 205 2.7 205 3.2 Z M 209.8 4.4 C 209.6 4.4 209.4 4.4 209.2 4.2 C 209 4.1 208.8 4 208.7 3.7 C 208.5 3.4 208.5 3.1 208.5 2.8 C 208.5 2.7 208.5 2.5 208.5 2.2 C 208.5 2.2 208.6 1.8 208.6 1.8 C 208.6 1.7 208.6 1.6 208.6 1.6 C 208.7 1.4 208.7 1.3 208.7 1.2 C 208.7 1.1 208.8 0.9 208.8 0.8 C 208.9 0.7 209 0.7 209.1 0.7 C 209.1 0.7 209.2 0.7 209.3 0.8 C 209.3 0.9 209.4 1 209.4 1 C 209.4 1.1 209.3 1.3 209.2 1.6 C 209.2 1.7 209.2 1.9 209.1 2.2 C 209.1 2.5 209.1 2.7 209.1 2.8 C 209.1 3.2 209.2 3.5 209.3 3.7 C 209.5 3.8 209.7 3.9 209.8 3.9 C 210.2 3.9 210.5 3.8 210.7 3.6 C 210.8 3.4 210.9 3.1 211 2.7 C 211 2.7 211 2.6 211 2.5 C 211 2.4 211 2.2 211 2.1 C 211.1 1.5 211.1 1.1 211.2 1 C 211.3 0.8 211.4 0.8 211.5 0.8 C 211.7 0.8 211.8 0.9 211.8 1.1 C 211.8 1.2 211.7 1.5 211.7 1.8 C 211.6 2 211.6 2.2 211.6 2.5 C 211.6 2.9 211.5 3.3 211.4 3.5 C 211.3 3.8 211.1 4 210.8 4.1 C 210.5 4.3 210.2 4.4 209.8 4.4 Z M 214.9 1.3 C 214.5 1.3 214.2 1.3 214 1.4 C 214 1.4 214 1.4 214 1.5 C 214 1.5 213.9 1.8 213.9 2.3 C 213.8 2.8 213.8 3.2 213.8 3.5 C 213.8 3.6 213.8 3.8 213.9 3.9 C 213.9 3.9 213.9 4 213.9 4 C 213.9 4.1 213.8 4.2 213.8 4.2 C 213.7 4.3 213.7 4.3 213.6 4.3 C 213.5 4.3 213.5 4.3 213.4 4.3 C 213.3 4.2 213.3 4.1 213.2 4 C 213.2 3.9 213.2 3.7 213.2 3.5 C 213.2 3.2 213.2 2.8 213.3 2.2 C 213.4 1.7 213.4 1.4 213.4 1.4 C 213.4 1.4 213.2 1.4 212.9 1.4 C 212.6 1.5 212.4 1.5 212.3 1.5 C 212.2 1.5 212 1.5 212 1.4 C 211.9 1.4 211.9 1.3 211.9 1.2 C 211.9 1.1 211.9 1.1 212 1 C 212 1 212.2 1 212.5 1 C 213 1 213.4 0.9 213.9 0.9 C 214.4 0.8 214.8 0.7 215 0.7 C 215.3 0.7 215.5 0.8 215.6 0.8 C 215.6 0.9 215.7 1 215.7 1.1 C 215.7 1.2 215.6 1.3 215.5 1.3 C 215.4 1.3 215.3 1.3 215.2 1.3 C 215.1 1.3 215 1.3 214.9 1.3 C 214.9 1.3 214.9 1.3 214.9 1.3 Z M 215.8 1.3 C 215.8 1.3 215.72 1.25 215.7 1.3 C 215.7 1.2 215.6 1.1 215.6 1.1 C 215.6 1 215.7 0.9 215.8 0.9 C 215.8 0.8 215.9 0.8 216 0.8 C 216 0.8 216 0.8 216.1 0.8 C 216.1 0.8 216.2 0.8 216.2 0.8 C 216.7 0.7 217 0.7 217.2 0.7 C 217.6 0.7 217.8 0.8 218 0.9 C 218.3 1.1 218.4 1.3 218.4 1.6 C 218.4 1.8 218.3 2 218.1 2.3 C 217.8 2.5 217.6 2.7 217.2 2.8 C 217.8 3.3 218.2 3.6 218.5 3.8 C 218.6 3.8 218.7 3.9 218.7 4 C 218.7 4.1 218.7 4.1 218.6 4.2 C 218.5 4.3 218.4 4.3 218.4 4.3 C 218.3 4.3 218.2 4.3 218.1 4.2 C 217.9 4.1 217.8 4 217.5 3.8 C 217.3 3.6 217.2 3.5 217.2 3.5 C 216.9 3.2 216.6 3 216.5 3 C 216.3 3 216.2 2.9 216.2 2.7 C 216.2 2.6 216.3 2.6 216.4 2.5 C 216.4 2.4 216.5 2.4 216.6 2.4 C 216.6 2.4 216.7 2.4 216.7 2.4 C 216.7 2.4 216.8 2.4 216.8 2.4 C 216.9 2.4 217.1 2.4 217.3 2.2 C 217.6 2 217.8 1.8 217.8 1.6 C 217.8 1.5 217.7 1.4 217.6 1.3 C 217.5 1.2 217.3 1.2 217.1 1.2 C 216.9 1.2 216.8 1.2 216.6 1.2 C 216.5 1.2 216.4 1.2 216.4 1.3 C 216.4 1.3 216.4 1.3 216.4 1.3 C 216.3 1.4 216.3 1.5 216.3 1.8 C 216.2 2.1 216.1 2.5 216.1 2.8 C 216.1 3.2 216 3.4 216 3.6 C 216 3.7 216 3.8 216.1 3.9 C 216.1 3.9 216.1 4 216.1 4.1 C 216.1 4.1 216 4.2 216 4.3 C 215.9 4.3 215.8 4.4 215.7 4.4 C 215.5 4.4 215.4 4.2 215.4 3.9 C 215.4 3.6 215.4 3.3 215.5 2.8 C 215.5 2.4 215.6 2 215.7 1.6 C 215.7 1.6 215.7 1.5 215.7 1.5 C 215.72 1.48 215.8 1.3 215.8 1.3 Z M 219.9 4.4 C 219.6 4.4 219.4 4.3 219.2 4 C 219 3.8 218.9 3.5 218.9 3.2 C 218.9 2.9 219 2.5 219.2 2.1 C 219.4 1.7 219.6 1.3 220 1.1 C 220.3 0.8 220.6 0.7 221 0.7 C 221.2 0.7 221.5 0.7 221.6 0.8 C 221.8 0.8 222 0.9 222.1 1.1 C 222.3 1.2 222.4 1.3 222.4 1.5 C 222.5 1.6 222.5 1.8 222.5 2 C 222.5 2.2 222.4 2.5 222.3 2.8 C 222.2 3.1 222 3.3 221.7 3.6 C 221.5 3.9 221.2 4.1 220.9 4.2 C 220.7 4.3 220.3 4.4 219.9 4.4 Z M 219.5 3.2 C 219.5 3.4 219.5 3.5 219.7 3.7 C 219.8 3.8 219.9 3.9 220.1 3.9 C 220.5 3.9 220.9 3.7 221.3 3.3 C 221.7 2.8 221.9 2.4 221.9 1.9 C 221.9 1.8 221.8 1.6 221.8 1.5 C 221.7 1.4 221.6 1.3 221.4 1.3 C 221.3 1.2 221.1 1.2 221 1.2 C 220.6 1.2 220.3 1.4 220 1.8 C 219.6 2.3 219.5 2.7 219.5 3.2 Z " stroke="none" fill="#000"/>  </g></svg>