<?xml version="1.0" standalone="no"?><!DOCTYPE svg PUBLIC "-//W3C//DTD SVG 1.1//EN" "http://www.w3.org/Graphics/SVG/1.1/DTD/svg11.dtd"><svg xmlns="http://www.w3.org/2000/svg" version="1.1" width="49.3px" height="23.9px" viewBox="0 -2 49.3 23.9" style="top:-2px">  <desc>PARA INVESTIR EM EDUCA O E SA DE DE ALTA QUALIDADE, CRIANDO OPORTUNIDADES IGUAIS PARA TODOS.</desc>  <defs/>  <g id="Polygon15181">    <path d="M 14.2 17.8 C 14.1 17.9 14 17.9 14 17.9 C 14 18.1 14 18.3 14 18.4 C 14 18.5 14 18.5 13.9 18.6 C 13.9 18.6 13.9 18.6 13.8 18.6 C 13.7 18.6 13.6 18.6 13.6 18.4 C 13.6 18.4 13.7 18.1 13.7 17.6 C 13.8 17.3 13.8 17.1 13.8 17 C 13.8 16.9 13.8 16.9 13.8 16.9 C 13.7 16.8 13.7 16.8 13.7 16.7 C 13.7 16.6 13.8 16.5 14.1 16.5 C 14.3 16.4 14.6 16.4 14.7 16.4 C 15 16.4 15.1 16.4 15.3 16.5 C 15.4 16.6 15.5 16.7 15.5 16.9 C 15.5 17.1 15.4 17.3 15.1 17.5 C 14.9 17.6 14.6 17.8 14.2 17.8 C 14.2 17.8 14.2 17.8 14.2 17.8 Z M 14.7 16.7 C 14.6 16.7 14.4 16.7 14.2 16.8 C 14.2 16.8 14.1 17.6 14.1 17.6 C 14.3 17.5 14.6 17.4 14.8 17.3 C 15 17.2 15.1 17.1 15.1 16.9 C 15.1 16.8 15 16.7 14.7 16.7 C 14.7 16.7 14.7 16.7 14.7 16.7 Z M 16 18.1 C 15.9 18.1 15.9 18.1 15.9 18.1 C 15.9 18.1 15.8 18.2 15.7 18.3 C 15.7 18.5 15.6 18.6 15.6 18.6 C 15.5 18.6 15.5 18.6 15.5 18.6 C 15.4 18.6 15.4 18.6 15.3 18.5 C 15.3 18.5 15.3 18.5 15.3 18.4 C 15.3 18.4 15.4 18.2 15.6 17.8 C 15.8 17.6 15.9 17.4 16 17.2 C 16.2 16.8 16.4 16.6 16.4 16.5 C 16.5 16.4 16.5 16.4 16.6 16.4 C 16.6 16.4 16.7 16.4 16.7 16.5 C 16.8 16.5 16.8 16.5 16.8 16.6 C 16.8 16.6 16.8 16.6 16.8 16.7 C 16.9 17.2 17.1 17.6 17.2 17.8 C 17.3 18 17.4 18.2 17.5 18.3 C 17.5 18.4 17.6 18.4 17.6 18.4 C 17.6 18.4 17.6 18.4 17.6 18.5 C 17.6 18.5 17.6 18.6 17.5 18.6 C 17.5 18.6 17.5 18.7 17.4 18.7 C 17.3 18.7 17.2 18.6 17.2 18.5 C 17.1 18.5 17 18.3 17 18.2 C 16.9 18 16.9 17.9 16.9 17.9 C 16.9 17.9 16.9 17.9 16.8 17.9 C 16.8 17.9 16.7 17.9 16.5 18 C 16.3 18 16.2 18.1 16.1 18.1 C 16 18.1 16 18.1 16 18.1 C 16 18.1 16 18.1 16 18.1 Z M 16.6 17.7 C 16.7 17.6 16.7 17.6 16.7 17.6 C 16.7 17.6 16.6 17.4 16.5 17 C 16.5 17 16.5 17 16.5 17 C 16.5 17 16.1 17.7 16.1 17.7 C 16.2 17.7 16.2 17.7 16.3 17.7 C 16.3 17.7 16.4 17.7 16.6 17.7 C 16.6 17.7 16.6 17.7 16.6 17.7 Z M 18 16.8 C 18 16.8 17.96 16.75 18 16.8 C 17.9 16.7 17.9 16.7 17.9 16.6 C 17.9 16.6 17.9 16.6 18 16.5 C 18 16.5 18.1 16.5 18.1 16.5 C 18.1 16.5 18.2 16.5 18.2 16.5 C 18.2 16.5 18.2 16.5 18.2 16.5 C 18.5 16.4 18.7 16.4 18.8 16.4 C 19.1 16.4 19.2 16.5 19.4 16.6 C 19.5 16.7 19.5 16.8 19.5 16.9 C 19.5 17.1 19.5 17.2 19.4 17.4 C 19.2 17.5 19.1 17.6 18.9 17.7 C 19.2 18 19.5 18.2 19.6 18.3 C 19.7 18.3 19.7 18.3 19.7 18.4 C 19.7 18.4 19.7 18.5 19.7 18.5 C 19.6 18.6 19.6 18.6 19.5 18.6 C 19.5 18.6 19.4 18.6 19.4 18.5 C 19.3 18.5 19.2 18.4 19 18.3 C 18.9 18.2 18.8 18.1 18.8 18.1 C 18.6 17.9 18.5 17.8 18.4 17.8 C 18.3 17.8 18.3 17.7 18.3 17.6 C 18.3 17.6 18.3 17.5 18.3 17.5 C 18.4 17.5 18.4 17.4 18.5 17.4 C 18.5 17.4 18.5 17.5 18.5 17.5 C 18.6 17.5 18.6 17.5 18.6 17.5 C 18.6 17.5 18.8 17.4 18.9 17.3 C 19.1 17.2 19.2 17.1 19.2 16.9 C 19.2 16.9 19.1 16.8 19.1 16.8 C 19 16.7 18.9 16.7 18.8 16.7 C 18.7 16.7 18.6 16.7 18.5 16.7 C 18.4 16.7 18.4 16.7 18.4 16.8 C 18.4 16.8 18.3 16.8 18.3 16.8 C 18.3 16.8 18.3 16.9 18.3 17.1 C 18.2 17.3 18.2 17.5 18.2 17.7 C 18.2 17.9 18.1 18 18.1 18.1 C 18.1 18.2 18.1 18.3 18.2 18.3 C 18.2 18.4 18.2 18.4 18.2 18.4 C 18.2 18.5 18.1 18.5 18.1 18.6 C 18.1 18.6 18 18.6 18 18.6 C 17.8 18.6 17.8 18.5 17.8 18.3 C 17.8 18.2 17.8 18 17.8 17.7 C 17.9 17.4 17.9 17.2 17.9 17 C 17.9 16.9 17.9 16.9 18 16.9 C 17.95 16.89 18 16.8 18 16.8 Z M 20.4 18.1 C 20.3 18.1 20.3 18.1 20.3 18.1 C 20.3 18.1 20.2 18.2 20.1 18.3 C 20 18.5 20 18.6 19.9 18.6 C 19.9 18.6 19.9 18.6 19.9 18.6 C 19.8 18.6 19.8 18.6 19.7 18.5 C 19.7 18.5 19.7 18.5 19.7 18.4 C 19.7 18.4 19.8 18.2 20 17.8 C 20.2 17.6 20.3 17.4 20.4 17.2 C 20.6 16.8 20.8 16.6 20.8 16.5 C 20.9 16.4 20.9 16.4 21 16.4 C 21 16.4 21.1 16.4 21.1 16.5 C 21.2 16.5 21.2 16.5 21.2 16.6 C 21.2 16.6 21.2 16.6 21.2 16.7 C 21.3 17.2 21.5 17.6 21.6 17.8 C 21.7 18 21.8 18.2 21.9 18.3 C 21.9 18.4 22 18.4 22 18.4 C 22 18.4 22 18.4 22 18.5 C 22 18.5 22 18.6 21.9 18.6 C 21.9 18.6 21.8 18.7 21.8 18.7 C 21.7 18.7 21.6 18.6 21.6 18.5 C 21.5 18.5 21.4 18.3 21.3 18.2 C 21.3 18 21.2 17.9 21.2 17.9 C 21.2 17.9 21.2 17.9 21.2 17.9 C 21.2 17.9 21.1 17.9 20.9 18 C 20.7 18 20.6 18.1 20.4 18.1 C 20.4 18.1 20.4 18.1 20.4 18.1 C 20.4 18.1 20.4 18.1 20.4 18.1 Z M 21 17.7 C 21 17.6 21.1 17.6 21.1 17.6 C 21.1 17.6 21 17.4 20.9 17 C 20.9 17 20.9 17 20.9 17 C 20.9 17 20.5 17.7 20.5 17.7 C 20.5 17.7 20.6 17.7 20.7 17.7 C 20.7 17.7 20.8 17.7 21 17.7 C 21 17.7 21 17.7 21 17.7 Z M 24.9 16.8 C 24.7 16.8 24.5 16.8 24.4 16.8 C 24.4 16.8 24.4 16.8 24.4 16.9 C 24.4 16.9 24.4 17.1 24.3 17.4 C 24.3 17.7 24.3 17.9 24.3 18.1 C 24.3 18.2 24.3 18.3 24.3 18.3 C 24.3 18.4 24.3 18.4 24.3 18.4 C 24.3 18.4 24.3 18.5 24.3 18.5 C 24.2 18.6 24.2 18.6 24.2 18.6 C 24.1 18.6 24.1 18.6 24 18.6 C 24 18.5 24 18.5 23.9 18.4 C 23.9 18.3 23.9 18.2 23.9 18.1 C 23.9 17.9 23.9 17.7 24 17.3 C 24 17 24 16.9 24.1 16.8 C 24 16.8 23.9 16.9 23.7 16.9 C 23.5 16.9 23.4 16.9 23.4 16.9 C 23.3 16.9 23.2 16.9 23.2 16.8 C 23.1 16.8 23.1 16.8 23.1 16.7 C 23.1 16.7 23.1 16.6 23.2 16.6 C 23.2 16.6 23.3 16.6 23.5 16.6 C 23.8 16.6 24.1 16.6 24.3 16.5 C 24.6 16.5 24.9 16.4 25 16.4 C 25.2 16.4 25.3 16.5 25.3 16.5 C 25.4 16.6 25.4 16.6 25.4 16.6 C 25.4 16.7 25.4 16.8 25.3 16.8 C 25.2 16.8 25.2 16.8 25.1 16.8 C 25.1 16.8 25 16.8 24.9 16.8 C 24.9 16.8 24.9 16.8 24.9 16.8 Z M 25.8 18.6 C 25.7 18.6 25.5 18.6 25.4 18.4 C 25.3 18.3 25.2 18.1 25.2 17.9 C 25.2 17.7 25.3 17.5 25.4 17.2 C 25.5 17 25.7 16.8 25.8 16.6 C 26 16.5 26.2 16.4 26.5 16.4 C 26.6 16.4 26.7 16.4 26.9 16.5 C 27 16.5 27.1 16.6 27.1 16.6 C 27.2 16.7 27.3 16.8 27.3 16.9 C 27.4 17 27.4 17.1 27.4 17.2 C 27.4 17.3 27.3 17.5 27.3 17.7 C 27.2 17.8 27.1 18 26.9 18.2 C 26.8 18.3 26.6 18.4 26.4 18.5 C 26.3 18.6 26.1 18.6 25.8 18.6 Z M 25.6 17.9 C 25.6 18 25.6 18.1 25.7 18.2 C 25.7 18.3 25.8 18.3 25.9 18.3 C 26.2 18.3 26.4 18.2 26.7 18 C 26.9 17.7 27 17.4 27 17.1 C 27 17.1 27 17 26.9 16.9 C 26.9 16.8 26.8 16.8 26.7 16.8 C 26.7 16.7 26.6 16.7 26.5 16.7 C 26.3 16.7 26.1 16.8 25.9 17.1 C 25.7 17.4 25.6 17.6 25.6 17.9 Z M 27.7 18.3 C 27.7 18.3 27.7 18.2 27.7 18.1 C 27.7 17.7 27.8 17.4 27.8 17 C 27.8 16.9 27.8 16.9 27.8 16.8 C 27.8 16.8 27.8 16.8 27.8 16.8 C 27.7 16.8 27.7 16.7 27.7 16.6 C 27.7 16.6 27.7 16.6 27.7 16.5 C 27.8 16.5 27.8 16.4 27.9 16.4 C 27.9 16.4 28.1 16.5 28.1 16.5 C 28.2 16.5 28.3 16.4 28.4 16.4 C 28.6 16.4 28.7 16.4 28.8 16.4 C 29 16.4 29.3 16.5 29.4 16.6 C 29.6 16.8 29.7 17 29.7 17.3 C 29.7 17.5 29.5 17.8 29.3 18 C 29 18.2 28.7 18.4 28.3 18.5 C 28.2 18.5 28.2 18.5 28.1 18.5 C 28.1 18.6 28 18.6 28 18.6 C 27.9 18.7 27.9 18.7 27.8 18.7 C 27.7 18.7 27.7 18.7 27.7 18.6 C 27.6 18.6 27.6 18.5 27.6 18.5 C 27.6 18.5 27.6 18.4 27.6 18.4 C 27.6 18.4 27.7 18.3 27.7 18.3 Z M 28 18.1 C 28 18.2 28 18.2 28.1 18.2 C 28.1 18.2 28.3 18.2 28.5 18.1 C 28.7 18.1 28.9 17.9 29.1 17.8 C 29.2 17.6 29.3 17.4 29.3 17.2 C 29.3 17.1 29.3 16.9 29.2 16.9 C 29 16.8 28.9 16.7 28.7 16.7 C 28.6 16.7 28.4 16.7 28.3 16.7 C 28.2 16.8 28.2 16.8 28.2 16.8 C 28.1 17.4 28 17.9 28 18.1 C 28 18.1 28 18.1 28 18.1 Z M 30.5 18.6 C 30.3 18.6 30.2 18.6 30 18.4 C 29.9 18.3 29.9 18.1 29.9 17.9 C 29.9 17.7 29.9 17.5 30 17.2 C 30.2 17 30.3 16.8 30.5 16.6 C 30.7 16.5 30.9 16.4 31.1 16.4 C 31.3 16.4 31.4 16.4 31.5 16.5 C 31.6 16.5 31.7 16.6 31.8 16.6 C 31.9 16.7 32 16.8 32 16.9 C 32 17 32 17.1 32 17.2 C 32 17.3 32 17.5 31.9 17.7 C 31.8 17.8 31.7 18 31.6 18.2 C 31.4 18.3 31.3 18.4 31.1 18.5 C 30.9 18.6 30.7 18.6 30.5 18.6 Z M 30.2 17.9 C 30.2 18 30.3 18.1 30.3 18.2 C 30.4 18.3 30.5 18.3 30.6 18.3 C 30.8 18.3 31.1 18.2 31.3 18 C 31.5 17.7 31.7 17.4 31.7 17.1 C 31.7 17.1 31.6 17 31.6 16.9 C 31.6 16.8 31.5 16.8 31.4 16.8 C 31.3 16.7 31.2 16.7 31.1 16.7 C 30.9 16.7 30.7 16.8 30.5 17.1 C 30.3 17.4 30.2 17.6 30.2 17.9 Z M 33.9 16.7 C 33.9 16.9 33.8 17 33.6 17 C 33.6 16.9 33.6 16.8 33.5 16.8 C 33.5 16.7 33.4 16.7 33.3 16.7 C 33.1 16.7 33 16.8 32.9 16.8 C 32.7 16.9 32.6 17 32.6 17.1 C 32.6 17.2 32.7 17.2 32.7 17.3 C 32.8 17.3 32.9 17.4 33.1 17.4 C 33.4 17.5 33.5 17.6 33.6 17.6 C 33.8 17.7 33.8 17.8 33.8 17.9 C 33.8 18.1 33.7 18.3 33.4 18.5 C 33.1 18.6 32.8 18.7 32.5 18.7 C 32.4 18.7 32.3 18.7 32.3 18.6 C 32.2 18.6 32.2 18.5 32.2 18.5 C 32.2 18.4 32.2 18.4 32.2 18.3 C 32.2 18.3 32.3 18.3 32.3 18.3 C 32.3 18.3 32.3 18.3 32.4 18.3 C 32.5 18.3 32.6 18.3 32.7 18.3 C 32.8 18.3 33 18.3 33.2 18.2 C 33.4 18.1 33.4 18.1 33.4 18 C 33.4 17.9 33.4 17.9 33.4 17.9 C 33.3 17.8 33.2 17.8 33.1 17.8 C 32.9 17.7 32.7 17.6 32.6 17.6 C 32.5 17.5 32.4 17.5 32.4 17.4 C 32.3 17.3 32.3 17.2 32.3 17.1 C 32.3 17 32.4 16.8 32.6 16.6 C 32.8 16.5 33.1 16.4 33.4 16.4 C 33.5 16.4 33.6 16.4 33.7 16.5 C 33.8 16.6 33.9 16.6 33.9 16.7 C 33.9 16.7 33.9 16.7 33.9 16.7 Z M 34.2 18.5 C 34.2 18.5 34.1 18.5 34.1 18.5 C 34.1 18.5 34 18.4 34 18.3 C 34 18.2 34 18.2 34 18.2 C 34.1 18.1 34.1 18.1 34.1 18.1 C 34.2 18.1 34.2 18.1 34.3 18.1 C 34.4 18.1 34.4 18.1 34.4 18.1 C 34.5 18.1 34.5 18.2 34.5 18.2 C 34.5 18.3 34.5 18.3 34.5 18.3 C 34.4 18.4 34.4 18.4 34.4 18.4 C 34.3 18.5 34.2 18.5 34.2 18.5 Z " stroke="none" fill="#000"/>  </g>  <g id="Polygon15180">    <path d="M 6 14.6 C 5.9 14.6 5.7 14.6 5.6 14.4 C 5.5 14.3 5.4 14.1 5.4 13.9 C 5.4 13.7 5.4 13.5 5.6 13.2 C 5.7 13 5.8 12.8 6 12.6 C 6.2 12.5 6.4 12.4 6.6 12.4 C 6.8 12.4 6.9 12.4 7.1 12.5 C 7.2 12.5 7.3 12.6 7.3 12.6 C 7.4 12.7 7.5 12.8 7.5 12.9 C 7.6 13 7.6 13.1 7.6 13.2 C 7.6 13.3 7.5 13.5 7.4 13.7 C 7.4 13.8 7.3 14 7.1 14.2 C 6.9 14.3 6.8 14.4 6.6 14.5 C 6.5 14.6 6.3 14.6 6 14.6 Z M 5.8 13.9 C 5.8 14 5.8 14.1 5.9 14.2 C 5.9 14.3 6 14.3 6.1 14.3 C 6.4 14.3 6.6 14.2 6.8 14 C 7.1 13.7 7.2 13.4 7.2 13.1 C 7.2 13.1 7.2 13 7.1 12.9 C 7.1 12.8 7 12.8 6.9 12.8 C 6.8 12.7 6.8 12.7 6.6 12.7 C 6.5 12.7 6.3 12.8 6.1 13.1 C 5.9 13.4 5.8 13.6 5.8 13.9 Z M 8.5 13.8 C 8.3 13.9 8.3 13.9 8.3 13.9 C 8.2 14.1 8.2 14.3 8.2 14.4 C 8.2 14.5 8.2 14.5 8.2 14.6 C 8.1 14.6 8.1 14.6 8 14.6 C 7.9 14.6 7.9 14.6 7.9 14.4 C 7.9 14.4 7.9 14.1 7.9 13.6 C 8 13.3 8 13.1 8 13 C 8 12.9 8 12.9 8 12.9 C 7.9 12.8 7.9 12.8 7.9 12.7 C 7.9 12.6 8 12.5 8.3 12.5 C 8.6 12.4 8.8 12.4 9 12.4 C 9.2 12.4 9.4 12.4 9.5 12.5 C 9.6 12.6 9.7 12.7 9.7 12.9 C 9.7 13.1 9.6 13.3 9.3 13.5 C 9.1 13.6 8.8 13.8 8.5 13.8 C 8.5 13.8 8.5 13.8 8.5 13.8 Z M 9 12.7 C 8.8 12.7 8.6 12.7 8.4 12.8 C 8.4 12.8 8.3 13.6 8.3 13.6 C 8.6 13.5 8.8 13.4 9 13.3 C 9.3 13.2 9.4 13.1 9.4 12.9 C 9.4 12.8 9.2 12.7 9 12.7 C 9 12.7 9 12.7 9 12.7 Z M 10.4 14.6 C 10.3 14.6 10.1 14.6 10 14.4 C 9.8 14.3 9.8 14.1 9.8 13.9 C 9.8 13.7 9.8 13.5 10 13.2 C 10.1 13 10.2 12.8 10.4 12.6 C 10.6 12.5 10.8 12.4 11 12.4 C 11.2 12.4 11.3 12.4 11.4 12.5 C 11.6 12.5 11.7 12.6 11.7 12.6 C 11.8 12.7 11.9 12.8 11.9 12.9 C 12 13 12 13.1 12 13.2 C 12 13.3 11.9 13.5 11.8 13.7 C 11.8 13.8 11.7 14 11.5 14.2 C 11.3 14.3 11.2 14.4 11 14.5 C 10.9 14.6 10.7 14.6 10.4 14.6 Z M 10.2 13.9 C 10.2 14 10.2 14.1 10.3 14.2 C 10.3 14.3 10.4 14.3 10.5 14.3 C 10.8 14.3 11 14.2 11.2 14 C 11.5 13.7 11.6 13.4 11.6 13.1 C 11.6 13.1 11.6 13 11.5 12.9 C 11.5 12.8 11.4 12.8 11.3 12.8 C 11.2 12.7 11.2 12.7 11 12.7 C 10.9 12.7 10.7 12.8 10.5 13.1 C 10.3 13.4 10.2 13.6 10.2 13.9 Z M 12.4 12.8 C 12.4 12.8 12.37 12.75 12.4 12.8 C 12.3 12.7 12.3 12.7 12.3 12.6 C 12.3 12.6 12.3 12.6 12.4 12.5 C 12.4 12.5 12.5 12.5 12.5 12.5 C 12.5 12.5 12.6 12.5 12.6 12.5 C 12.6 12.5 12.6 12.5 12.6 12.5 C 12.9 12.4 13.1 12.4 13.3 12.4 C 13.5 12.4 13.6 12.5 13.8 12.6 C 13.9 12.7 14 12.8 14 12.9 C 14 13.1 13.9 13.2 13.8 13.4 C 13.6 13.5 13.5 13.6 13.3 13.7 C 13.6 14 13.9 14.2 14.1 14.3 C 14.1 14.3 14.2 14.3 14.2 14.4 C 14.2 14.4 14.1 14.5 14.1 14.5 C 14 14.6 14 14.6 14 14.6 C 13.9 14.6 13.8 14.6 13.8 14.5 C 13.7 14.5 13.6 14.4 13.5 14.3 C 13.3 14.2 13.3 14.1 13.2 14.1 C 13.1 13.9 12.9 13.8 12.8 13.8 C 12.7 13.8 12.7 13.7 12.7 13.6 C 12.7 13.6 12.7 13.5 12.7 13.5 C 12.8 13.5 12.8 13.4 12.9 13.4 C 12.9 13.4 12.9 13.5 13 13.5 C 13 13.5 13 13.5 13 13.5 C 13.1 13.5 13.2 13.4 13.3 13.3 C 13.5 13.2 13.6 13.1 13.6 12.9 C 13.6 12.9 13.6 12.8 13.5 12.8 C 13.4 12.7 13.3 12.7 13.2 12.7 C 13.1 12.7 13 12.7 12.9 12.7 C 12.8 12.7 12.8 12.7 12.8 12.8 C 12.8 12.8 12.8 12.8 12.8 12.8 C 12.7 12.8 12.7 12.9 12.7 13.1 C 12.7 13.3 12.6 13.5 12.6 13.7 C 12.6 13.9 12.6 14 12.6 14.1 C 12.6 14.2 12.6 14.3 12.6 14.3 C 12.6 14.4 12.6 14.4 12.6 14.4 C 12.6 14.5 12.6 14.5 12.5 14.6 C 12.5 14.6 12.4 14.6 12.4 14.6 C 12.3 14.6 12.2 14.5 12.2 14.3 C 12.2 14.2 12.2 14 12.2 13.7 C 12.3 13.4 12.3 13.2 12.4 13 C 12.4 12.9 12.4 12.9 12.4 12.9 C 12.37 12.89 12.4 12.8 12.4 12.8 Z M 15.9 12.8 C 15.7 12.8 15.5 12.8 15.4 12.8 C 15.4 12.8 15.4 12.8 15.4 12.9 C 15.4 12.9 15.4 13.1 15.3 13.4 C 15.3 13.7 15.3 13.9 15.3 14.1 C 15.3 14.2 15.3 14.3 15.3 14.3 C 15.3 14.4 15.3 14.4 15.3 14.4 C 15.3 14.4 15.3 14.5 15.3 14.5 C 15.2 14.6 15.2 14.6 15.2 14.6 C 15.1 14.6 15.1 14.6 15 14.6 C 15 14.5 15 14.5 15 14.4 C 14.9 14.3 14.9 14.2 14.9 14.1 C 14.9 13.9 15 13.7 15 13.3 C 15 13 15.1 12.9 15.1 12.8 C 15 12.8 14.9 12.9 14.7 12.9 C 14.5 12.9 14.4 12.9 14.4 12.9 C 14.3 12.9 14.2 12.9 14.2 12.8 C 14.2 12.8 14.1 12.8 14.1 12.7 C 14.1 12.7 14.2 12.6 14.2 12.6 C 14.2 12.6 14.3 12.6 14.5 12.6 C 14.8 12.6 15.1 12.6 15.3 12.5 C 15.6 12.5 15.9 12.4 16 12.4 C 16.2 12.4 16.3 12.5 16.4 12.5 C 16.4 12.6 16.4 12.6 16.4 12.6 C 16.4 12.7 16.4 12.8 16.3 12.8 C 16.3 12.8 16.2 12.8 16.2 12.8 C 16.1 12.8 16 12.8 15.9 12.8 C 15.9 12.8 15.9 12.8 15.9 12.8 Z M 17.1 14.6 C 17 14.6 16.9 14.6 16.7 14.5 C 16.6 14.5 16.5 14.4 16.4 14.2 C 16.3 14.1 16.3 13.9 16.3 13.7 C 16.3 13.6 16.3 13.5 16.3 13.3 C 16.3 13.3 16.4 13.1 16.4 13.1 C 16.4 13 16.4 13 16.4 12.9 C 16.4 12.9 16.4 12.8 16.4 12.7 C 16.5 12.6 16.5 12.6 16.5 12.5 C 16.5 12.4 16.6 12.4 16.7 12.4 C 16.7 12.4 16.7 12.4 16.8 12.5 C 16.8 12.6 16.8 12.6 16.8 12.6 C 16.8 12.6 16.8 12.8 16.8 12.9 C 16.7 13 16.7 13.1 16.7 13.3 C 16.7 13.5 16.7 13.6 16.7 13.7 C 16.7 13.9 16.7 14.1 16.8 14.2 C 16.9 14.3 17 14.3 17.1 14.3 C 17.3 14.3 17.5 14.3 17.6 14.2 C 17.7 14.1 17.8 13.9 17.8 13.6 C 17.8 13.6 17.8 13.6 17.8 13.5 C 17.8 13.4 17.8 13.3 17.8 13.2 C 17.9 12.9 17.9 12.7 17.9 12.6 C 18 12.5 18 12.5 18.1 12.5 C 18.2 12.5 18.3 12.5 18.3 12.7 C 18.3 12.7 18.3 12.9 18.2 13.1 C 18.2 13.2 18.2 13.3 18.2 13.5 C 18.2 13.8 18.1 14 18.1 14.1 C 18 14.3 17.9 14.4 17.7 14.5 C 17.5 14.6 17.3 14.6 17.1 14.6 Z M 18.6 14.1 C 18.6 14.1 18.68 13.57 18.7 13.6 C 18.8 13.2 18.8 12.9 18.8 12.8 C 18.8 12.7 18.8 12.6 18.8 12.6 C 18.8 12.6 18.9 12.6 18.9 12.5 C 18.9 12.5 19 12.5 19 12.5 C 19 12.5 19.1 12.5 19.1 12.5 C 19.2 12.5 19.2 12.6 19.2 12.7 C 19.3 12.9 19.4 13.1 19.5 13.4 C 19.7 13.7 19.9 13.9 20 14.1 C 20 13.9 20.1 13.7 20.1 13.4 C 20.2 13.2 20.2 13 20.2 12.9 C 20.2 12.8 20.2 12.7 20.2 12.6 C 20.3 12.5 20.3 12.4 20.3 12.4 C 20.4 12.4 20.4 12.4 20.5 12.4 C 20.5 12.4 20.5 12.4 20.6 12.4 C 20.6 12.5 20.6 12.5 20.6 12.6 C 20.6 12.7 20.6 12.7 20.6 12.8 C 20.5 13.1 20.4 13.3 20.4 13.7 C 20.3 14 20.3 14.2 20.3 14.3 C 20.3 14.3 20.3 14.3 20.3 14.3 C 20.3 14.4 20.3 14.4 20.3 14.5 C 20.3 14.5 20.3 14.5 20.2 14.6 C 20.2 14.6 20.1 14.6 20.1 14.6 C 20 14.6 20 14.6 20 14.6 C 20 14.6 20 14.6 19.9 14.5 C 19.9 14.5 19.9 14.4 19.8 14.4 C 19.8 14.3 19.8 14.3 19.7 14.2 C 19.5 13.9 19.3 13.6 19.1 13.2 C 19 13.3 19 13.6 18.9 14 C 18.9 14 18.9 14.2 18.9 14.2 C 18.9 14.2 18.9 14.3 18.9 14.4 C 18.9 14.5 18.9 14.5 18.8 14.6 C 18.8 14.6 18.7 14.7 18.7 14.7 C 18.6 14.7 18.6 14.6 18.6 14.6 C 18.5 14.6 18.5 14.5 18.5 14.4 C 18.5 14.3 18.5 14.2 18.6 14.1 C 18.57 14.08 18.6 14.1 18.6 14.1 Z M 21.4 13.1 C 21.4 13.2 21.4 13.3 21.4 13.3 C 21.4 13.3 21.3 13.4 21.3 13.5 C 21.3 13.7 21.3 13.9 21.3 14 C 21.3 14.1 21.3 14.2 21.3 14.3 C 21.3 14.4 21.3 14.5 21.2 14.5 C 21.2 14.6 21.1 14.6 21.1 14.6 C 21 14.6 21 14.6 21 14.5 C 20.9 14.4 20.9 14.3 20.9 14.2 C 20.9 14.1 20.9 13.9 21 13.5 C 21 13.5 21.1 13 21.1 13 C 21.1 12.9 21.1 12.8 21.1 12.7 C 21.1 12.6 21.1 12.6 21.1 12.5 C 21.2 12.5 21.2 12.5 21.2 12.5 C 21.3 12.4 21.3 12.4 21.3 12.4 C 21.4 12.4 21.4 12.4 21.5 12.5 C 21.5 12.5 21.5 12.6 21.5 12.6 C 21.5 12.6 21.4 13.1 21.4 13.1 Z M 21.8 14.3 C 21.8 14.3 21.9 14.2 21.9 14.1 C 21.9 13.7 21.9 13.4 22 13 C 22 12.9 22 12.9 22 12.8 C 22 12.8 22 12.8 22 12.8 C 21.9 12.8 21.8 12.7 21.8 12.6 C 21.8 12.6 21.9 12.6 21.9 12.5 C 21.9 12.5 22 12.4 22 12.4 C 22 12.4 22.2 12.5 22.2 12.5 C 22.3 12.5 22.4 12.4 22.6 12.4 C 22.7 12.4 22.8 12.4 22.9 12.4 C 23.2 12.4 23.4 12.5 23.6 12.6 C 23.8 12.8 23.8 13 23.8 13.3 C 23.8 13.5 23.7 13.8 23.5 14 C 23.2 14.2 22.9 14.4 22.5 14.5 C 22.4 14.5 22.3 14.5 22.3 14.5 C 22.3 14.6 22.2 14.6 22.2 14.6 C 22.1 14.7 22 14.7 22 14.7 C 21.9 14.7 21.9 14.7 21.8 14.6 C 21.8 14.6 21.8 14.5 21.8 14.5 C 21.8 14.5 21.8 14.4 21.8 14.4 C 21.8 14.4 21.8 14.3 21.8 14.3 Z M 22.2 14.1 C 22.2 14.2 22.2 14.2 22.2 14.2 C 22.3 14.2 22.4 14.2 22.7 14.1 C 22.9 14.1 23.1 13.9 23.3 13.8 C 23.4 13.6 23.5 13.4 23.5 13.2 C 23.5 13.1 23.4 12.9 23.3 12.9 C 23.2 12.8 23.1 12.7 22.9 12.7 C 22.8 12.7 22.6 12.7 22.4 12.7 C 22.4 12.8 22.4 12.8 22.4 12.8 C 22.3 13.4 22.2 13.9 22.2 14.1 C 22.2 14.1 22.2 14.1 22.2 14.1 Z M 24.4 14.1 C 24.4 14.1 24.4 14.1 24.3 14.1 C 24.3 14.1 24.3 14.2 24.2 14.3 C 24.1 14.5 24.1 14.6 24 14.6 C 24 14.6 24 14.6 23.9 14.6 C 23.9 14.6 23.9 14.6 23.8 14.5 C 23.8 14.5 23.7 14.5 23.7 14.4 C 23.7 14.4 23.9 14.2 24.1 13.8 C 24.2 13.6 24.4 13.4 24.5 13.2 C 24.7 12.8 24.8 12.6 24.9 12.5 C 24.9 12.4 25 12.4 25 12.4 C 25.1 12.4 25.2 12.4 25.2 12.5 C 25.2 12.5 25.2 12.5 25.2 12.6 C 25.2 12.6 25.2 12.6 25.2 12.7 C 25.4 13.2 25.5 13.6 25.6 13.8 C 25.7 14 25.8 14.2 25.9 14.3 C 26 14.4 26 14.4 26 14.4 C 26 14.4 26.1 14.4 26.1 14.5 C 26.1 14.5 26 14.6 26 14.6 C 26 14.6 25.9 14.7 25.9 14.7 C 25.8 14.7 25.7 14.6 25.6 14.5 C 25.6 14.5 25.5 14.3 25.4 14.2 C 25.3 14 25.3 13.9 25.3 13.9 C 25.3 13.9 25.3 13.9 25.3 13.9 C 25.2 13.9 25.1 13.9 24.9 14 C 24.8 14 24.6 14.1 24.5 14.1 C 24.5 14.1 24.5 14.1 24.4 14.1 C 24.4 14.1 24.4 14.1 24.4 14.1 Z M 25.1 13.7 C 25.1 13.6 25.1 13.6 25.2 13.6 C 25.2 13.6 25.1 13.4 25 13 C 25 13 25 13 25 13 C 25 13 24.5 13.7 24.5 13.7 C 24.6 13.7 24.7 13.7 24.7 13.7 C 24.8 13.7 24.9 13.7 25.1 13.7 C 25.1 13.7 25.1 13.7 25.1 13.7 Z M 26.3 14.3 C 26.3 14.3 26.3 14.2 26.3 14.1 C 26.4 13.7 26.4 13.4 26.5 13 C 26.5 12.9 26.5 12.9 26.5 12.8 C 26.5 12.8 26.5 12.8 26.5 12.8 C 26.4 12.8 26.3 12.7 26.3 12.6 C 26.3 12.6 26.3 12.6 26.4 12.5 C 26.4 12.5 26.5 12.4 26.5 12.4 C 26.5 12.4 26.7 12.5 26.7 12.5 C 26.8 12.5 26.9 12.4 27.1 12.4 C 27.2 12.4 27.3 12.4 27.4 12.4 C 27.7 12.4 27.9 12.5 28.1 12.6 C 28.2 12.8 28.3 13 28.3 13.3 C 28.3 13.5 28.2 13.8 27.9 14 C 27.7 14.2 27.3 14.4 27 14.5 C 26.9 14.5 26.8 14.5 26.8 14.5 C 26.7 14.6 26.7 14.6 26.6 14.6 C 26.6 14.7 26.5 14.7 26.4 14.7 C 26.4 14.7 26.3 14.7 26.3 14.6 C 26.3 14.6 26.2 14.5 26.2 14.5 C 26.2 14.5 26.2 14.4 26.3 14.4 C 26.3 14.4 26.3 14.3 26.3 14.3 Z M 26.7 14.1 C 26.7 14.2 26.7 14.2 26.7 14.2 C 26.7 14.2 26.9 14.2 27.1 14.1 C 27.4 14.1 27.6 13.9 27.7 13.8 C 27.9 13.6 28 13.4 28 13.2 C 28 13.1 27.9 12.9 27.8 12.9 C 27.7 12.8 27.5 12.7 27.3 12.7 C 27.2 12.7 27.1 12.7 26.9 12.7 C 26.9 12.8 26.9 12.8 26.8 12.8 C 26.7 13.4 26.7 13.9 26.7 14.1 C 26.7 14.1 26.7 14.1 26.7 14.1 Z M 30.2 12.7 C 30.2 12.7 29.8 12.8 29.8 12.8 C 29.6 12.8 29.5 12.8 29.4 12.8 C 29.2 12.8 29.2 12.8 29.2 12.8 C 29.2 12.9 29.2 12.9 29.2 12.9 C 29.1 13 29.1 13.1 29.1 13.2 C 29.1 13.3 29.1 13.4 29.1 13.4 C 29.1 13.4 29.2 13.4 29.3 13.4 C 29.4 13.4 29.5 13.4 29.6 13.4 C 29.7 13.3 29.8 13.3 29.9 13.3 C 30.1 13.3 30.1 13.4 30.1 13.5 C 30.1 13.5 30.1 13.6 30.1 13.6 C 30 13.6 30 13.6 29.9 13.6 C 29.8 13.6 29.7 13.7 29.7 13.7 C 29.6 13.7 29.6 13.7 29.5 13.7 C 29.3 13.7 29.1 13.7 29.1 13.8 C 29.1 13.8 29.1 13.8 29.1 13.8 C 29 13.8 29 13.8 29 13.8 C 29 13.8 29 13.9 29 14 C 29 14.1 28.9 14.2 28.9 14.3 C 28.9 14.3 29 14.3 29 14.3 C 29.1 14.3 29.2 14.3 29.4 14.3 C 29.6 14.3 29.7 14.3 29.8 14.2 C 29.9 14.2 30 14.2 30 14.2 C 30.1 14.2 30.2 14.3 30.2 14.4 C 30.2 14.4 30.2 14.5 30.2 14.5 C 30.1 14.5 29.9 14.5 29.7 14.6 C 29.6 14.6 29.5 14.6 29.3 14.6 C 29.1 14.6 28.9 14.7 28.8 14.7 C 28.7 14.7 28.6 14.6 28.6 14.6 C 28.6 14.6 28.6 14.5 28.5 14.5 C 28.5 14.5 28.5 14.4 28.5 14.4 C 28.5 14.4 28.6 14.4 28.6 14.3 C 28.6 14.2 28.7 13.9 28.7 13.5 C 28.8 13.1 28.8 12.9 28.8 12.8 C 28.8 12.8 28.8 12.8 28.8 12.8 C 28.8 12.8 28.8 12.8 28.8 12.8 C 28.7 12.7 28.7 12.7 28.7 12.7 C 28.7 12.6 28.7 12.6 28.7 12.6 C 28.7 12.6 28.8 12.6 28.8 12.6 C 28.8 12.5 28.9 12.5 28.9 12.5 C 29 12.5 29 12.5 29 12.5 C 29.1 12.5 29.4 12.5 29.8 12.4 C 30 12.4 30.1 12.4 30.1 12.4 C 30.1 12.4 30.1 12.4 30.1 12.4 C 30.3 12.4 30.4 12.5 30.4 12.6 C 30.4 12.6 30.3 12.6 30.3 12.7 C 30.3 12.7 30.2 12.7 30.2 12.7 Z M 32.2 12.7 C 32.2 12.9 32.1 13 31.9 13 C 31.9 12.9 31.9 12.8 31.8 12.8 C 31.8 12.7 31.7 12.7 31.6 12.7 C 31.4 12.7 31.3 12.8 31.1 12.8 C 31 12.9 30.9 13 30.9 13.1 C 30.9 13.2 30.9 13.2 31 13.3 C 31 13.3 31.2 13.4 31.4 13.4 C 31.6 13.5 31.8 13.6 31.9 13.6 C 32 13.7 32.1 13.8 32.1 13.9 C 32.1 14.1 31.9 14.3 31.7 14.5 C 31.4 14.6 31.1 14.7 30.8 14.7 C 30.7 14.7 30.6 14.7 30.5 14.6 C 30.5 14.6 30.4 14.5 30.4 14.5 C 30.4 14.4 30.4 14.4 30.5 14.3 C 30.5 14.3 30.5 14.3 30.6 14.3 C 30.6 14.3 30.6 14.3 30.6 14.3 C 30.7 14.3 30.8 14.3 30.9 14.3 C 31.1 14.3 31.2 14.3 31.4 14.2 C 31.6 14.1 31.7 14.1 31.7 14 C 31.7 13.9 31.7 13.9 31.7 13.9 C 31.6 13.8 31.5 13.8 31.4 13.8 C 31.2 13.7 31 13.6 30.9 13.6 C 30.8 13.5 30.7 13.5 30.6 13.4 C 30.6 13.3 30.6 13.2 30.6 13.1 C 30.6 13 30.7 12.8 30.9 12.6 C 31.1 12.5 31.3 12.4 31.6 12.4 C 31.8 12.4 31.9 12.4 32 12.5 C 32.1 12.6 32.2 12.6 32.2 12.7 C 32.2 12.7 32.2 12.7 32.2 12.7 Z M 34 13.1 C 34 13.2 34 13.3 34 13.3 C 34 13.3 34 13.4 34 13.5 C 33.9 13.7 33.9 13.9 33.9 14 C 33.9 14.1 33.9 14.2 33.9 14.3 C 34 14.4 33.9 14.5 33.9 14.5 C 33.8 14.6 33.8 14.6 33.7 14.6 C 33.7 14.6 33.6 14.6 33.6 14.5 C 33.6 14.4 33.6 14.3 33.6 14.2 C 33.6 14.1 33.6 13.9 33.6 13.5 C 33.6 13.5 33.7 13 33.7 13 C 33.7 12.9 33.7 12.8 33.7 12.7 C 33.8 12.6 33.8 12.6 33.8 12.5 C 33.8 12.5 33.8 12.5 33.9 12.5 C 33.9 12.4 34 12.4 34 12.4 C 34 12.4 34.1 12.4 34.1 12.5 C 34.1 12.5 34.1 12.6 34.1 12.6 C 34.1 12.6 34 13.1 34 13.1 Z M 36.3 13.6 C 36.3 13.7 36.2 13.7 36.2 13.8 C 36.2 13.8 36.2 13.8 36.2 13.8 C 36.2 13.9 36.2 14 36.1 14.1 C 36.1 14.3 36.1 14.4 36.1 14.4 C 36.1 14.6 36.1 14.6 36.1 14.7 C 36.1 14.7 36.1 14.8 36.1 14.8 C 36.1 14.8 36 14.8 36 14.8 C 36 14.9 36 14.9 35.9 14.9 C 35.9 14.9 35.8 14.8 35.8 14.8 C 35.7 14.8 35.7 14.7 35.7 14.7 C 35.7 14.7 35.7 14.6 35.7 14.5 C 35.8 14.4 35.8 14.3 35.8 14.2 C 35.5 14.4 35.2 14.5 34.9 14.5 C 34.8 14.5 34.6 14.5 34.5 14.4 C 34.4 14.3 34.4 14.1 34.4 14 C 34.4 13.7 34.4 13.4 34.6 13.2 C 34.6 13.2 34.6 13.2 34.6 13.2 C 34.8 12.9 35 12.7 35.2 12.5 C 35.5 12.4 35.7 12.3 36 12.3 C 36.1 12.3 36.2 12.3 36.3 12.4 C 36.3 12.4 36.4 12.5 36.4 12.6 C 36.4 12.6 36.4 12.7 36.3 12.7 C 36.3 12.8 36.2 12.9 36.2 12.9 C 36.1 12.9 36.1 12.9 36.1 12.8 C 36.1 12.8 36.1 12.8 36 12.8 C 36 12.7 36 12.7 36 12.7 C 35.9 12.6 35.9 12.6 35.9 12.6 C 35.7 12.6 35.5 12.7 35.4 12.9 C 35.2 13 35 13.2 34.9 13.4 C 34.8 13.6 34.7 13.8 34.7 13.9 C 34.7 14.1 34.8 14.2 35 14.2 C 35 14.2 35.1 14.2 35.3 14.2 C 35.4 14.1 35.5 14.1 35.6 14 C 35.8 13.9 35.9 13.8 35.9 13.7 C 35.9 13.6 35.9 13.5 35.9 13.5 C 36 13.4 36 13.4 36 13.3 C 36 13.3 36.1 13.3 36.1 13.3 C 36.3 13.3 36.3 13.4 36.3 13.4 C 36.3 13.5 36.3 13.5 36.3 13.6 C 36.3 13.6 36.3 13.6 36.3 13.6 Z M 37.5 14.6 C 37.4 14.6 37.3 14.6 37.1 14.5 C 37 14.5 36.9 14.4 36.8 14.2 C 36.7 14.1 36.7 13.9 36.7 13.7 C 36.7 13.6 36.7 13.5 36.7 13.3 C 36.7 13.3 36.8 13.1 36.8 13.1 C 36.8 13 36.8 13 36.8 12.9 C 36.8 12.9 36.8 12.8 36.8 12.7 C 36.9 12.6 36.9 12.6 36.9 12.5 C 37 12.4 37 12.4 37.1 12.4 C 37.1 12.4 37.1 12.4 37.2 12.5 C 37.2 12.6 37.2 12.6 37.2 12.6 C 37.2 12.6 37.2 12.8 37.2 12.9 C 37.2 13 37.1 13.1 37.1 13.3 C 37.1 13.5 37.1 13.6 37.1 13.7 C 37.1 13.9 37.1 14.1 37.2 14.2 C 37.3 14.3 37.4 14.3 37.5 14.3 C 37.8 14.3 37.9 14.3 38 14.2 C 38.1 14.1 38.2 13.9 38.2 13.6 C 38.2 13.6 38.2 13.6 38.2 13.5 C 38.2 13.4 38.2 13.3 38.2 13.2 C 38.3 12.9 38.3 12.7 38.3 12.6 C 38.4 12.5 38.5 12.5 38.5 12.5 C 38.6 12.5 38.7 12.5 38.7 12.7 C 38.7 12.7 38.7 12.9 38.6 13.1 C 38.6 13.2 38.6 13.3 38.6 13.5 C 38.6 13.8 38.5 14 38.5 14.1 C 38.4 14.3 38.3 14.4 38.1 14.5 C 37.9 14.6 37.7 14.6 37.5 14.6 Z M 39.4 14.1 C 39.3 14.1 39.3 14.1 39.3 14.1 C 39.3 14.1 39.2 14.2 39.1 14.3 C 39.1 14.5 39 14.6 39 14.6 C 38.9 14.6 38.9 14.6 38.9 14.6 C 38.8 14.6 38.8 14.6 38.7 14.5 C 38.7 14.5 38.7 14.5 38.7 14.4 C 38.7 14.4 38.8 14.2 39 13.8 C 39.2 13.6 39.3 13.4 39.4 13.2 C 39.6 12.8 39.8 12.6 39.8 12.5 C 39.9 12.4 39.9 12.4 40 12.4 C 40 12.4 40.1 12.4 40.1 12.5 C 40.2 12.5 40.2 12.5 40.2 12.6 C 40.2 12.6 40.2 12.6 40.2 12.7 C 40.3 13.2 40.5 13.6 40.6 13.8 C 40.7 14 40.8 14.2 40.9 14.3 C 40.9 14.4 41 14.4 41 14.4 C 41 14.4 41 14.4 41 14.5 C 41 14.5 41 14.6 40.9 14.6 C 40.9 14.6 40.9 14.7 40.8 14.7 C 40.7 14.7 40.6 14.6 40.6 14.5 C 40.5 14.5 40.4 14.3 40.4 14.2 C 40.3 14 40.3 13.9 40.3 13.9 C 40.3 13.9 40.3 13.9 40.2 13.9 C 40.2 13.9 40.1 13.9 39.9 14 C 39.7 14 39.6 14.1 39.5 14.1 C 39.4 14.1 39.4 14.1 39.4 14.1 C 39.4 14.1 39.4 14.1 39.4 14.1 Z M 40 13.7 C 40 13.6 40.1 13.6 40.1 13.6 C 40.1 13.6 40 13.4 39.9 13 C 39.9 13 39.9 13 39.9 13 C 39.9 13 39.5 13.7 39.5 13.7 C 39.6 13.7 39.6 13.7 39.7 13.7 C 39.7 13.7 39.8 13.7 40 13.7 C 40 13.7 40 13.7 40 13.7 Z M 41.7 13.1 C 41.7 13.2 41.7 13.3 41.7 13.3 C 41.7 13.3 41.6 13.4 41.6 13.5 C 41.6 13.7 41.6 13.9 41.6 14 C 41.6 14.1 41.6 14.2 41.6 14.3 C 41.6 14.4 41.6 14.5 41.5 14.5 C 41.5 14.6 41.4 14.6 41.4 14.6 C 41.3 14.6 41.3 14.6 41.2 14.5 C 41.2 14.4 41.2 14.3 41.2 14.2 C 41.2 14.1 41.2 13.9 41.3 13.5 C 41.3 13.5 41.4 13 41.4 13 C 41.4 12.9 41.4 12.8 41.4 12.7 C 41.4 12.6 41.4 12.6 41.4 12.5 C 41.4 12.5 41.5 12.5 41.5 12.5 C 41.6 12.4 41.6 12.4 41.6 12.4 C 41.7 12.4 41.7 12.4 41.8 12.5 C 41.8 12.5 41.8 12.6 41.8 12.6 C 41.8 12.6 41.7 13.1 41.7 13.1 Z M 43.7 12.7 C 43.7 12.9 43.6 13 43.4 13 C 43.4 12.9 43.4 12.8 43.3 12.8 C 43.3 12.7 43.2 12.7 43.1 12.7 C 42.9 12.7 42.8 12.8 42.6 12.8 C 42.5 12.9 42.4 13 42.4 13.1 C 42.4 13.2 42.5 13.2 42.5 13.3 C 42.6 13.3 42.7 13.4 42.9 13.4 C 43.2 13.5 43.3 13.6 43.4 13.6 C 43.6 13.7 43.6 13.8 43.6 13.9 C 43.6 14.1 43.5 14.3 43.2 14.5 C 42.9 14.6 42.6 14.7 42.3 14.7 C 42.2 14.7 42.1 14.7 42 14.6 C 42 14.6 42 14.5 42 14.5 C 42 14.4 42 14.4 42 14.3 C 42 14.3 42.1 14.3 42.1 14.3 C 42.1 14.3 42.1 14.3 42.2 14.3 C 42.3 14.3 42.4 14.3 42.4 14.3 C 42.6 14.3 42.8 14.3 43 14.2 C 43.2 14.1 43.2 14.1 43.2 14 C 43.2 13.9 43.2 13.9 43.2 13.9 C 43.1 13.8 43 13.8 42.9 13.8 C 42.7 13.7 42.5 13.6 42.4 13.6 C 42.3 13.5 42.2 13.5 42.2 13.4 C 42.1 13.3 42.1 13.2 42.1 13.1 C 42.1 13 42.2 12.8 42.4 12.6 C 42.6 12.5 42.9 12.4 43.2 12.4 C 43.3 12.4 43.4 12.4 43.5 12.5 C 43.6 12.6 43.7 12.6 43.7 12.7 C 43.7 12.7 43.7 12.7 43.7 12.7 Z " stroke="none" fill="#000"/>  </g>  <g id="Polygon15179">    <path d="M 3.2 10.1 C 3.1 10.1 3.1 10.1 3.1 10.1 C 3.1 10.1 3 10.2 2.9 10.3 C 2.8 10.5 2.8 10.6 2.7 10.6 C 2.7 10.6 2.7 10.6 2.7 10.6 C 2.6 10.6 2.6 10.6 2.5 10.5 C 2.5 10.5 2.5 10.5 2.5 10.4 C 2.5 10.4 2.6 10.2 2.8 9.8 C 3 9.6 3.1 9.4 3.2 9.2 C 3.4 8.8 3.5 8.6 3.6 8.5 C 3.6 8.4 3.7 8.4 3.7 8.4 C 3.8 8.4 3.9 8.4 3.9 8.5 C 3.9 8.5 4 8.5 4 8.6 C 4 8.6 4 8.6 3.9 8.7 C 4.1 9.2 4.3 9.6 4.4 9.8 C 4.5 10 4.6 10.2 4.7 10.3 C 4.7 10.4 4.7 10.4 4.8 10.4 C 4.8 10.4 4.8 10.4 4.8 10.5 C 4.8 10.5 4.8 10.6 4.7 10.6 C 4.7 10.6 4.6 10.7 4.6 10.7 C 4.5 10.7 4.4 10.6 4.4 10.5 C 4.3 10.5 4.2 10.3 4.1 10.2 C 4.1 10 4 9.9 4 9.9 C 4 9.9 4 9.9 4 9.9 C 4 9.9 3.9 9.9 3.7 10 C 3.5 10 3.3 10.1 3.2 10.1 C 3.2 10.1 3.2 10.1 3.2 10.1 C 3.2 10.1 3.2 10.1 3.2 10.1 Z M 3.8 9.7 C 3.8 9.6 3.9 9.6 3.9 9.6 C 3.9 9.6 3.8 9.4 3.7 9 C 3.7 9 3.7 9 3.7 9 C 3.7 9 3.3 9.7 3.3 9.7 C 3.3 9.7 3.4 9.7 3.5 9.7 C 3.5 9.7 3.6 9.7 3.8 9.7 C 3.8 9.7 3.8 9.7 3.8 9.7 Z M 6.4 10.5 C 6.3 10.5 6.3 10.5 6.2 10.5 C 6.2 10.5 6.1 10.5 6.1 10.5 C 5.9 10.5 5.6 10.5 5.3 10.6 C 5.2 10.6 5.2 10.6 5.1 10.6 C 5.1 10.6 5 10.6 5 10.6 C 5 10.5 4.9 10.5 4.9 10.4 C 4.9 10.4 4.9 10.4 5 10.3 C 5 10.2 5 10.1 5 10 C 5 10 5.1 8.8 5.1 8.8 C 5.2 8.7 5.2 8.6 5.2 8.5 C 5.2 8.5 5.2 8.5 5.2 8.5 C 5.3 8.4 5.3 8.4 5.4 8.4 C 5.4 8.4 5.5 8.4 5.5 8.5 C 5.5 8.5 5.6 8.5 5.6 8.6 C 5.6 8.6 5.5 8.7 5.5 8.8 C 5.5 8.9 5.5 9.2 5.4 9.6 C 5.4 10 5.4 10.2 5.4 10.2 C 5.4 10.2 5.4 10.2 5.4 10.2 C 5.4 10.2 5.5 10.2 5.7 10.2 C 5.8 10.2 5.8 10.2 5.9 10.2 C 6.1 10.1 6.3 10.1 6.4 10.1 C 6.4 10.1 6.4 10.1 6.5 10.1 C 6.5 10.1 6.6 10.1 6.6 10.1 C 6.6 10.2 6.6 10.2 6.6 10.3 C 6.6 10.3 6.6 10.4 6.5 10.4 C 6.5 10.5 6.4 10.5 6.4 10.5 Z M 8.3 8.8 C 8 8.8 7.9 8.8 7.8 8.8 C 7.8 8.8 7.8 8.8 7.7 8.9 C 7.7 8.9 7.7 9.1 7.7 9.4 C 7.7 9.7 7.6 9.9 7.6 10.1 C 7.6 10.2 7.7 10.3 7.7 10.3 C 7.7 10.4 7.7 10.4 7.7 10.4 C 7.7 10.4 7.7 10.5 7.6 10.5 C 7.6 10.6 7.6 10.6 7.5 10.6 C 7.5 10.6 7.4 10.6 7.4 10.6 C 7.3 10.5 7.3 10.5 7.3 10.4 C 7.3 10.3 7.3 10.2 7.3 10.1 C 7.3 9.9 7.3 9.7 7.3 9.3 C 7.4 9 7.4 8.9 7.4 8.8 C 7.4 8.8 7.3 8.9 7.1 8.9 C 6.9 8.9 6.8 8.9 6.8 8.9 C 6.7 8.9 6.6 8.9 6.5 8.8 C 6.5 8.8 6.5 8.8 6.5 8.7 C 6.5 8.7 6.5 8.6 6.5 8.6 C 6.6 8.6 6.7 8.6 6.9 8.6 C 7.1 8.6 7.4 8.6 7.7 8.5 C 8 8.5 8.2 8.4 8.4 8.4 C 8.6 8.4 8.7 8.5 8.7 8.5 C 8.7 8.6 8.8 8.6 8.8 8.6 C 8.8 8.7 8.7 8.8 8.6 8.8 C 8.6 8.8 8.6 8.8 8.5 8.8 C 8.4 8.8 8.4 8.8 8.3 8.8 C 8.3 8.8 8.3 8.8 8.3 8.8 Z M 9 10.1 C 8.9 10.1 8.9 10.1 8.9 10.1 C 8.9 10.1 8.8 10.2 8.7 10.3 C 8.6 10.5 8.6 10.6 8.5 10.6 C 8.5 10.6 8.5 10.6 8.5 10.6 C 8.4 10.6 8.4 10.6 8.3 10.5 C 8.3 10.5 8.3 10.5 8.3 10.4 C 8.3 10.4 8.4 10.2 8.6 9.8 C 8.8 9.6 8.9 9.4 9 9.2 C 9.2 8.8 9.3 8.6 9.4 8.5 C 9.4 8.4 9.5 8.4 9.6 8.4 C 9.6 8.4 9.7 8.4 9.7 8.5 C 9.7 8.5 9.8 8.5 9.8 8.6 C 9.8 8.6 9.8 8.6 9.7 8.7 C 9.9 9.2 10.1 9.6 10.2 9.8 C 10.3 10 10.4 10.2 10.5 10.3 C 10.5 10.4 10.6 10.4 10.6 10.4 C 10.6 10.4 10.6 10.4 10.6 10.5 C 10.6 10.5 10.6 10.6 10.5 10.6 C 10.5 10.6 10.4 10.7 10.4 10.7 C 10.3 10.7 10.2 10.6 10.2 10.5 C 10.1 10.5 10 10.3 9.9 10.2 C 9.9 10 9.8 9.9 9.8 9.9 C 9.8 9.9 9.8 9.9 9.8 9.9 C 9.8 9.9 9.7 9.9 9.5 10 C 9.3 10 9.2 10.1 9 10.1 C 9 10.1 9 10.1 9 10.1 C 9 10.1 9 10.1 9 10.1 Z M 9.6 9.7 C 9.6 9.6 9.7 9.6 9.7 9.6 C 9.7 9.6 9.6 9.4 9.5 9 C 9.5 9 9.5 9 9.5 9 C 9.5 9 9.1 9.7 9.1 9.7 C 9.1 9.7 9.2 9.7 9.3 9.7 C 9.3 9.7 9.4 9.7 9.6 9.7 C 9.6 9.7 9.6 9.7 9.6 9.7 Z M 13.5 8.6 C 13.7 8.7 13.8 8.9 13.8 9 C 13.9 9.2 14 9.3 14 9.4 C 14 9.6 13.9 9.7 13.8 9.9 C 13.7 10.1 13.6 10.2 13.4 10.3 C 13.6 10.6 13.7 10.7 13.7 10.7 C 13.8 10.8 13.8 10.8 13.8 10.8 C 13.8 10.9 13.8 10.9 13.7 11 C 13.6 11 13.6 11 13.6 11 C 13.5 11 13.5 11 13.4 11 C 13.4 10.9 13.3 10.8 13.2 10.7 C 13.2 10.5 13.1 10.5 13.1 10.5 C 13.1 10.5 13.1 10.5 13 10.5 C 12.9 10.5 12.7 10.6 12.6 10.6 C 12.4 10.6 12.2 10.5 12 10.4 C 11.9 10.3 11.8 10.1 11.8 9.9 C 11.8 9.7 11.9 9.5 12.1 9.2 C 12.2 9 12.4 8.8 12.6 8.6 C 12.9 8.4 13.1 8.3 13.3 8.3 C 13.3 8.3 13.4 8.4 13.5 8.4 C 13.5 8.5 13.5 8.6 13.5 8.6 Z M 12.6 10.3 C 12.7 10.3 12.8 10.3 12.9 10.2 C 12.9 10.2 12.8 10.2 12.8 10.2 C 12.7 10.1 12.7 10 12.7 10 C 12.7 10 12.7 9.9 12.8 9.9 C 12.8 9.8 12.9 9.8 13 9.8 C 13 9.8 13.1 9.8 13.1 9.9 C 13.1 10 13.1 10 13.1 10 C 13.2 10.1 13.2 10.1 13.2 10.1 C 13.3 10.1 13.4 10 13.5 9.9 C 13.6 9.7 13.6 9.6 13.6 9.5 C 13.6 9.3 13.6 9.1 13.4 8.9 C 13.3 8.8 13.2 8.7 13.2 8.7 C 13 8.7 12.9 8.8 12.7 8.9 C 12.6 9 12.5 9.2 12.4 9.4 C 12.2 9.6 12.2 9.8 12.2 9.9 C 12.2 10 12.2 10.1 12.3 10.2 C 12.4 10.2 12.5 10.3 12.6 10.3 C 12.6 10.3 12.6 10.3 12.6 10.3 Z M 15.1 10.6 C 15 10.6 14.9 10.6 14.7 10.5 C 14.6 10.5 14.5 10.4 14.4 10.2 C 14.3 10.1 14.3 9.9 14.3 9.7 C 14.3 9.6 14.3 9.5 14.3 9.3 C 14.3 9.3 14.4 9.1 14.4 9.1 C 14.4 9 14.4 9 14.4 8.9 C 14.4 8.9 14.4 8.8 14.4 8.7 C 14.4 8.6 14.5 8.6 14.5 8.5 C 14.5 8.4 14.6 8.4 14.7 8.4 C 14.7 8.4 14.7 8.4 14.8 8.5 C 14.8 8.6 14.8 8.6 14.8 8.6 C 14.8 8.6 14.8 8.8 14.8 8.9 C 14.7 9 14.7 9.1 14.7 9.3 C 14.7 9.5 14.7 9.6 14.7 9.7 C 14.7 9.9 14.7 10.1 14.8 10.2 C 14.9 10.3 15 10.3 15.1 10.3 C 15.3 10.3 15.5 10.3 15.6 10.2 C 15.7 10.1 15.8 9.9 15.8 9.6 C 15.8 9.6 15.8 9.6 15.8 9.5 C 15.8 9.4 15.8 9.3 15.8 9.2 C 15.9 8.9 15.9 8.7 15.9 8.6 C 16 8.5 16 8.5 16.1 8.5 C 16.2 8.5 16.3 8.5 16.3 8.7 C 16.3 8.7 16.3 8.9 16.2 9.1 C 16.2 9.2 16.2 9.3 16.2 9.5 C 16.2 9.8 16.1 10 16.1 10.1 C 16 10.3 15.9 10.4 15.7 10.5 C 15.5 10.6 15.3 10.6 15.1 10.6 Z M 17 10.1 C 16.9 10.1 16.9 10.1 16.9 10.1 C 16.9 10.1 16.8 10.2 16.7 10.3 C 16.6 10.5 16.6 10.6 16.6 10.6 C 16.5 10.6 16.5 10.6 16.5 10.6 C 16.4 10.6 16.4 10.6 16.3 10.5 C 16.3 10.5 16.3 10.5 16.3 10.4 C 16.3 10.4 16.4 10.2 16.6 9.8 C 16.8 9.6 16.9 9.4 17 9.2 C 17.2 8.8 17.4 8.6 17.4 8.5 C 17.5 8.4 17.5 8.4 17.6 8.4 C 17.6 8.4 17.7 8.4 17.7 8.5 C 17.8 8.5 17.8 8.5 17.8 8.6 C 17.8 8.6 17.8 8.6 17.8 8.7 C 17.9 9.2 18.1 9.6 18.2 9.8 C 18.3 10 18.4 10.2 18.5 10.3 C 18.5 10.4 18.6 10.4 18.6 10.4 C 18.6 10.4 18.6 10.4 18.6 10.5 C 18.6 10.5 18.6 10.6 18.5 10.6 C 18.5 10.6 18.4 10.7 18.4 10.7 C 18.3 10.7 18.2 10.6 18.2 10.5 C 18.1 10.5 18 10.3 17.9 10.2 C 17.9 10 17.8 9.9 17.8 9.9 C 17.8 9.9 17.8 9.9 17.8 9.9 C 17.8 9.9 17.7 9.9 17.5 10 C 17.3 10 17.2 10.1 17 10.1 C 17 10.1 17 10.1 17 10.1 C 17 10.1 17 10.1 17 10.1 Z M 17.6 9.7 C 17.6 9.6 17.7 9.6 17.7 9.6 C 17.7 9.6 17.6 9.4 17.5 9 C 17.5 9 17.5 9 17.5 9 C 17.5 9 17.1 9.7 17.1 9.7 C 17.1 9.7 17.2 9.7 17.3 9.7 C 17.3 9.7 17.4 9.7 17.6 9.7 C 17.6 9.7 17.6 9.7 17.6 9.7 Z M 20.2 10.5 C 20.2 10.5 20.1 10.5 20.1 10.5 C 20 10.5 20 10.5 19.9 10.5 C 19.7 10.5 19.4 10.5 19.2 10.6 C 19 10.6 19 10.6 18.9 10.6 C 18.9 10.6 18.8 10.6 18.8 10.6 C 18.8 10.5 18.7 10.5 18.7 10.4 C 18.7 10.4 18.8 10.4 18.8 10.3 C 18.8 10.2 18.8 10.1 18.8 10 C 18.8 10 19 8.8 19 8.8 C 19 8.7 19 8.6 19 8.5 C 19 8.5 19 8.5 19 8.5 C 19.1 8.4 19.1 8.4 19.2 8.4 C 19.2 8.4 19.3 8.4 19.3 8.5 C 19.3 8.5 19.4 8.5 19.4 8.6 C 19.4 8.6 19.4 8.7 19.3 8.8 C 19.3 8.9 19.3 9.2 19.2 9.6 C 19.2 10 19.2 10.2 19.2 10.2 C 19.2 10.2 19.2 10.2 19.2 10.2 C 19.2 10.2 19.3 10.2 19.5 10.2 C 19.6 10.2 19.6 10.2 19.7 10.2 C 19.9 10.1 20.1 10.1 20.2 10.1 C 20.2 10.1 20.2 10.1 20.3 10.1 C 20.3 10.1 20.4 10.1 20.4 10.1 C 20.4 10.2 20.4 10.2 20.4 10.3 C 20.4 10.3 20.4 10.4 20.4 10.4 C 20.3 10.5 20.2 10.5 20.2 10.5 Z M 21.1 9.1 C 21.1 9.2 21.1 9.3 21.1 9.3 C 21.1 9.3 21.1 9.4 21 9.5 C 21 9.7 21 9.9 21 10 C 21 10.1 21 10.2 21 10.3 C 21 10.4 21 10.5 21 10.5 C 20.9 10.6 20.9 10.6 20.8 10.6 C 20.7 10.6 20.7 10.6 20.7 10.5 C 20.6 10.4 20.6 10.3 20.6 10.2 C 20.6 10.1 20.6 9.9 20.7 9.5 C 20.7 9.5 20.8 9 20.8 9 C 20.8 8.9 20.8 8.8 20.8 8.7 C 20.8 8.6 20.8 8.6 20.8 8.5 C 20.9 8.5 20.9 8.5 20.9 8.5 C 21 8.4 21 8.4 21 8.4 C 21.1 8.4 21.1 8.4 21.2 8.5 C 21.2 8.5 21.2 8.6 21.2 8.6 C 21.2 8.6 21.1 9.1 21.1 9.1 Z M 21.5 10.3 C 21.6 10.3 21.6 10.2 21.6 10.1 C 21.6 9.7 21.6 9.4 21.7 9 C 21.7 8.9 21.7 8.9 21.7 8.8 C 21.7 8.8 21.7 8.8 21.7 8.8 C 21.6 8.8 21.5 8.7 21.5 8.6 C 21.5 8.6 21.6 8.6 21.6 8.5 C 21.6 8.5 21.7 8.4 21.7 8.4 C 21.7 8.4 21.9 8.5 21.9 8.5 C 22 8.5 22.2 8.4 22.3 8.4 C 22.4 8.4 22.6 8.4 22.6 8.4 C 22.9 8.4 23.1 8.5 23.3 8.6 C 23.5 8.8 23.5 9 23.5 9.3 C 23.5 9.5 23.4 9.8 23.2 10 C 22.9 10.2 22.6 10.4 22.2 10.5 C 22.1 10.5 22 10.5 22 10.5 C 22 10.6 21.9 10.6 21.9 10.6 C 21.8 10.7 21.7 10.7 21.7 10.7 C 21.6 10.7 21.6 10.7 21.5 10.6 C 21.5 10.6 21.5 10.5 21.5 10.5 C 21.5 10.5 21.5 10.4 21.5 10.4 C 21.5 10.4 21.5 10.3 21.5 10.3 Z M 21.9 10.1 C 21.9 10.2 21.9 10.2 21.9 10.2 C 22 10.2 22.1 10.2 22.4 10.1 C 22.6 10.1 22.8 9.9 23 9.8 C 23.1 9.6 23.2 9.4 23.2 9.2 C 23.2 9.1 23.1 8.9 23 8.9 C 22.9 8.8 22.8 8.7 22.6 8.7 C 22.5 8.7 22.3 8.7 22.1 8.7 C 22.1 8.8 22.1 8.8 22.1 8.8 C 22 9.4 21.9 9.9 21.9 10.1 C 21.9 10.1 21.9 10.1 21.9 10.1 Z M 24.1 10.1 C 24.1 10.1 24.1 10.1 24.1 10.1 C 24 10.1 24 10.2 23.9 10.3 C 23.8 10.5 23.8 10.6 23.7 10.6 C 23.7 10.6 23.7 10.6 23.6 10.6 C 23.6 10.6 23.6 10.6 23.5 10.5 C 23.5 10.5 23.4 10.5 23.4 10.4 C 23.4 10.4 23.6 10.2 23.8 9.8 C 23.9 9.6 24.1 9.4 24.2 9.2 C 24.4 8.8 24.5 8.6 24.6 8.5 C 24.6 8.4 24.7 8.4 24.7 8.4 C 24.8 8.4 24.9 8.4 24.9 8.5 C 24.9 8.5 24.9 8.5 24.9 8.6 C 24.9 8.6 24.9 8.6 24.9 8.7 C 25.1 9.2 25.2 9.6 25.3 9.8 C 25.4 10 25.5 10.2 25.6 10.3 C 25.7 10.4 25.7 10.4 25.7 10.4 C 25.8 10.4 25.8 10.4 25.8 10.5 C 25.8 10.5 25.7 10.6 25.7 10.6 C 25.7 10.6 25.6 10.7 25.6 10.7 C 25.5 10.7 25.4 10.6 25.3 10.5 C 25.3 10.5 25.2 10.3 25.1 10.2 C 25.1 10 25 9.9 25 9.9 C 25 9.9 25 9.9 25 9.9 C 25 9.9 24.8 9.9 24.7 10 C 24.5 10 24.3 10.1 24.2 10.1 C 24.2 10.1 24.2 10.1 24.1 10.1 C 24.1 10.1 24.1 10.1 24.1 10.1 Z M 24.8 9.7 C 24.8 9.6 24.9 9.6 24.9 9.6 C 24.9 9.6 24.8 9.4 24.7 9 C 24.7 9 24.7 9 24.7 9 C 24.7 9 24.3 9.7 24.3 9.7 C 24.3 9.7 24.4 9.7 24.4 9.7 C 24.5 9.7 24.6 9.7 24.8 9.7 C 24.8 9.7 24.8 9.7 24.8 9.7 Z M 26 10.3 C 26 10.3 26 10.2 26 10.1 C 26.1 9.7 26.1 9.4 26.2 9 C 26.2 8.9 26.2 8.9 26.2 8.8 C 26.2 8.8 26.2 8.8 26.2 8.8 C 26.1 8.8 26 8.7 26 8.6 C 26 8.6 26 8.6 26.1 8.5 C 26.1 8.5 26.2 8.4 26.2 8.4 C 26.2 8.4 26.4 8.5 26.4 8.5 C 26.5 8.5 26.6 8.4 26.8 8.4 C 26.9 8.4 27 8.4 27.1 8.4 C 27.4 8.4 27.6 8.5 27.8 8.6 C 27.9 8.8 28 9 28 9.3 C 28 9.5 27.9 9.8 27.6 10 C 27.4 10.2 27.1 10.4 26.7 10.5 C 26.6 10.5 26.5 10.5 26.5 10.5 C 26.4 10.6 26.4 10.6 26.3 10.6 C 26.3 10.7 26.2 10.7 26.1 10.7 C 26.1 10.7 26 10.7 26 10.6 C 26 10.6 25.9 10.5 25.9 10.5 C 25.9 10.5 26 10.4 26 10.4 C 26 10.4 26 10.3 26 10.3 Z M 26.4 10.1 C 26.4 10.2 26.4 10.2 26.4 10.2 C 26.4 10.2 26.6 10.2 26.8 10.1 C 27.1 10.1 27.3 9.9 27.4 9.8 C 27.6 9.6 27.7 9.4 27.7 9.2 C 27.7 9.1 27.6 8.9 27.5 8.9 C 27.4 8.8 27.2 8.7 27 8.7 C 26.9 8.7 26.8 8.7 26.6 8.7 C 26.6 8.8 26.6 8.8 26.5 8.8 C 26.4 9.4 26.4 9.9 26.4 10.1 C 26.4 10.1 26.4 10.1 26.4 10.1 Z M 29.9 8.7 C 29.9 8.7 29.5 8.8 29.5 8.8 C 29.3 8.8 29.2 8.8 29.1 8.8 C 29 8.8 28.9 8.8 28.9 8.8 C 28.9 8.9 28.9 8.9 28.9 8.9 C 28.9 9 28.8 9.1 28.8 9.2 C 28.8 9.3 28.8 9.4 28.8 9.4 C 28.8 9.4 28.9 9.4 29 9.4 C 29.2 9.4 29.2 9.4 29.3 9.4 C 29.4 9.3 29.5 9.3 29.6 9.3 C 29.8 9.3 29.8 9.4 29.8 9.5 C 29.8 9.5 29.8 9.6 29.8 9.6 C 29.7 9.6 29.7 9.6 29.6 9.6 C 29.5 9.6 29.5 9.7 29.4 9.7 C 29.3 9.7 29.3 9.7 29.2 9.7 C 29 9.7 28.8 9.7 28.8 9.8 C 28.8 9.8 28.8 9.8 28.8 9.8 C 28.7 9.8 28.7 9.8 28.7 9.8 C 28.7 9.8 28.7 9.9 28.7 10 C 28.7 10.1 28.6 10.2 28.6 10.3 C 28.7 10.3 28.7 10.3 28.7 10.3 C 28.8 10.3 28.9 10.3 29.1 10.3 C 29.3 10.3 29.4 10.3 29.5 10.2 C 29.6 10.2 29.7 10.2 29.7 10.2 C 29.8 10.2 29.9 10.3 29.9 10.4 C 29.9 10.4 29.9 10.5 29.9 10.5 C 29.8 10.5 29.6 10.5 29.5 10.6 C 29.3 10.6 29.2 10.6 29 10.6 C 28.8 10.6 28.6 10.7 28.5 10.7 C 28.4 10.7 28.4 10.6 28.3 10.6 C 28.3 10.6 28.3 10.5 28.3 10.5 C 28.3 10.5 28.3 10.4 28.3 10.4 C 28.2 10.4 28.3 10.4 28.3 10.3 C 28.3 10.2 28.4 9.9 28.4 9.5 C 28.5 9.1 28.5 8.9 28.5 8.8 C 28.5 8.8 28.5 8.8 28.5 8.8 C 28.5 8.8 28.5 8.8 28.5 8.8 C 28.4 8.7 28.4 8.7 28.4 8.7 C 28.4 8.6 28.4 8.6 28.4 8.6 C 28.4 8.6 28.5 8.6 28.5 8.6 C 28.5 8.5 28.6 8.5 28.6 8.5 C 28.7 8.5 28.7 8.5 28.8 8.5 C 28.8 8.5 29.1 8.5 29.5 8.4 C 29.7 8.4 29.8 8.4 29.8 8.4 C 29.8 8.4 29.8 8.4 29.8 8.4 C 30 8.4 30.1 8.5 30.1 8.6 C 30.1 8.6 30 8.6 30 8.7 C 30 8.7 30 8.7 29.9 8.7 Z M 30.2 10.8 C 30.2 10.8 30.2 10.8 30.2 10.7 C 30.3 10.7 30.3 10.7 30.4 10.7 C 30.5 10.6 30.6 10.6 30.6 10.5 C 30.6 10.4 30.6 10.4 30.6 10.4 C 30.6 10.3 30.6 10.3 30.6 10.2 C 30.6 10.2 30.6 10.2 30.6 10.2 C 30.6 10.1 30.6 10.1 30.6 10.1 C 30.6 10 30.6 10 30.7 10 C 30.7 10 30.8 10 30.8 10.1 C 30.9 10.1 30.9 10.1 30.9 10.1 C 30.9 10.1 30.9 10.2 30.9 10.2 C 31 10.3 31 10.3 31 10.4 C 31 10.4 30.9 10.5 30.9 10.6 C 30.9 10.6 30.8 10.7 30.7 10.8 C 30.7 10.8 30.6 10.8 30.5 10.9 C 30.5 10.9 30.5 10.9 30.5 10.9 C 30.4 10.9 30.3 10.9 30.3 10.9 C 30.2 10.9 30.2 10.9 30.2 10.8 C 30.2 10.8 30.2 10.8 30.2 10.8 Z M 33.6 10.1 C 33.7 10.1 33.8 10 33.8 10 C 33.9 10 33.9 10.1 33.9 10.1 C 33.9 10.2 33.8 10.3 33.6 10.5 C 33.4 10.6 33.2 10.7 33 10.7 C 32.8 10.7 32.7 10.6 32.5 10.5 C 32.4 10.4 32.3 10.2 32.3 10 C 32.3 9.8 32.4 9.5 32.5 9.2 C 32.7 9 32.9 8.7 33.1 8.6 C 33.3 8.4 33.6 8.3 33.8 8.3 C 33.9 8.3 34 8.3 34.1 8.4 C 34.2 8.5 34.2 8.6 34.2 8.7 C 34.2 8.8 34.2 8.9 34.2 8.9 C 34.2 9 34.1 9 34.1 9.1 C 34 9.1 34 9.1 33.9 9.1 C 33.9 9.1 33.9 9.1 33.8 9.1 C 33.8 9.1 33.8 9 33.8 9 C 33.8 8.9 33.8 8.9 33.8 8.8 C 33.8 8.8 33.8 8.7 33.8 8.7 C 33.8 8.6 33.8 8.6 33.8 8.6 C 33.6 8.6 33.5 8.7 33.3 8.8 C 33.1 9 33 9.1 32.8 9.4 C 32.7 9.6 32.7 9.8 32.7 10 C 32.7 10.1 32.7 10.2 32.8 10.3 C 32.8 10.3 32.9 10.4 33 10.4 C 33.1 10.4 33.2 10.3 33.3 10.3 C 33.4 10.3 33.5 10.2 33.6 10.1 C 33.6 10.1 33.6 10.1 33.6 10.1 Z M 34.6 8.8 C 34.6 8.8 34.55 8.75 34.6 8.8 C 34.5 8.7 34.5 8.7 34.5 8.6 C 34.5 8.6 34.5 8.6 34.6 8.5 C 34.6 8.5 34.7 8.5 34.7 8.5 C 34.7 8.5 34.7 8.5 34.8 8.5 C 34.8 8.5 34.8 8.5 34.8 8.5 C 35.1 8.4 35.3 8.4 35.4 8.4 C 35.6 8.4 35.8 8.5 35.9 8.6 C 36.1 8.7 36.1 8.8 36.1 8.9 C 36.1 9.1 36.1 9.2 36 9.4 C 35.8 9.5 35.7 9.6 35.5 9.7 C 35.8 10 36.1 10.2 36.2 10.3 C 36.3 10.3 36.3 10.3 36.3 10.4 C 36.3 10.4 36.3 10.5 36.3 10.5 C 36.2 10.6 36.2 10.6 36.1 10.6 C 36.1 10.6 36 10.6 36 10.5 C 35.9 10.5 35.8 10.4 35.6 10.3 C 35.5 10.2 35.4 10.1 35.4 10.1 C 35.2 9.9 35.1 9.8 35 9.8 C 34.9 9.8 34.9 9.7 34.9 9.6 C 34.9 9.6 34.9 9.5 34.9 9.5 C 35 9.5 35 9.4 35.1 9.4 C 35.1 9.4 35.1 9.5 35.1 9.5 C 35.2 9.5 35.2 9.5 35.2 9.5 C 35.2 9.5 35.4 9.4 35.5 9.3 C 35.7 9.2 35.8 9.1 35.8 8.9 C 35.8 8.9 35.7 8.8 35.7 8.8 C 35.6 8.7 35.5 8.7 35.4 8.7 C 35.3 8.7 35.2 8.7 35.1 8.7 C 35 8.7 35 8.7 35 8.8 C 35 8.8 34.9 8.8 34.9 8.8 C 34.9 8.8 34.9 8.9 34.9 9.1 C 34.8 9.3 34.8 9.5 34.8 9.7 C 34.8 9.9 34.7 10 34.7 10.1 C 34.7 10.2 34.7 10.3 34.8 10.3 C 34.8 10.4 34.8 10.4 34.8 10.4 C 34.8 10.5 34.7 10.5 34.7 10.6 C 34.7 10.6 34.6 10.6 34.6 10.6 C 34.4 10.6 34.4 10.5 34.4 10.3 C 34.4 10.2 34.4 10 34.4 9.7 C 34.4 9.4 34.5 9.2 34.5 9 C 34.5 8.9 34.5 8.9 34.6 8.9 C 34.55 8.89 34.6 8.8 34.6 8.8 Z M 37 9.1 C 37 9.2 37 9.3 37 9.3 C 37 9.3 37 9.4 36.9 9.5 C 36.9 9.7 36.9 9.9 36.9 10 C 36.9 10.1 36.9 10.2 36.9 10.3 C 36.9 10.4 36.9 10.5 36.9 10.5 C 36.8 10.6 36.8 10.6 36.7 10.6 C 36.6 10.6 36.6 10.6 36.6 10.5 C 36.5 10.4 36.5 10.3 36.5 10.2 C 36.5 10.1 36.5 9.9 36.6 9.5 C 36.6 9.5 36.7 9 36.7 9 C 36.7 8.9 36.7 8.8 36.7 8.7 C 36.7 8.6 36.7 8.6 36.8 8.5 C 36.8 8.5 36.8 8.5 36.8 8.5 C 36.9 8.4 36.9 8.4 36.9 8.4 C 37 8.4 37 8.4 37.1 8.5 C 37.1 8.5 37.1 8.6 37.1 8.6 C 37.1 8.6 37 9.1 37 9.1 Z M 37.9 10.1 C 37.8 10.1 37.8 10.1 37.8 10.1 C 37.7 10.1 37.7 10.2 37.6 10.3 C 37.5 10.5 37.5 10.6 37.4 10.6 C 37.4 10.6 37.4 10.6 37.3 10.6 C 37.3 10.6 37.3 10.6 37.2 10.5 C 37.2 10.5 37.1 10.5 37.1 10.4 C 37.1 10.4 37.3 10.2 37.5 9.8 C 37.6 9.6 37.8 9.4 37.9 9.2 C 38.1 8.8 38.2 8.6 38.3 8.5 C 38.3 8.4 38.4 8.4 38.4 8.4 C 38.5 8.4 38.6 8.4 38.6 8.5 C 38.6 8.5 38.6 8.5 38.6 8.6 C 38.6 8.6 38.6 8.6 38.6 8.7 C 38.8 9.2 39 9.6 39.1 9.8 C 39.2 10 39.3 10.2 39.4 10.3 C 39.4 10.4 39.4 10.4 39.4 10.4 C 39.5 10.4 39.5 10.4 39.5 10.5 C 39.5 10.5 39.4 10.6 39.4 10.6 C 39.4 10.6 39.3 10.7 39.3 10.7 C 39.2 10.7 39.1 10.6 39 10.5 C 39 10.5 38.9 10.3 38.8 10.2 C 38.8 10 38.7 9.9 38.7 9.9 C 38.7 9.9 38.7 9.9 38.7 9.9 C 38.7 9.9 38.5 9.9 38.4 10 C 38.2 10 38 10.1 37.9 10.1 C 37.9 10.1 37.9 10.1 37.9 10.1 C 37.9 10.1 37.9 10.1 37.9 10.1 Z M 38.5 9.7 C 38.5 9.6 38.6 9.6 38.6 9.6 C 38.6 9.6 38.5 9.4 38.4 9 C 38.4 9 38.4 9 38.4 9 C 38.4 9 38 9.7 38 9.7 C 38 9.7 38.1 9.7 38.1 9.7 C 38.2 9.7 38.3 9.7 38.5 9.7 C 38.5 9.7 38.5 9.7 38.5 9.7 Z M 39.7 10.1 C 39.7 10.1 39.8 9.57 39.8 9.6 C 39.9 9.2 39.9 8.9 39.9 8.8 C 39.9 8.7 39.9 8.6 39.9 8.6 C 40 8.6 40 8.6 40 8.5 C 40.1 8.5 40.1 8.5 40.1 8.5 C 40.2 8.5 40.2 8.5 40.2 8.5 C 40.3 8.5 40.3 8.6 40.3 8.7 C 40.4 8.9 40.5 9.1 40.7 9.4 C 40.8 9.7 41 9.9 41.1 10.1 C 41.2 9.9 41.2 9.7 41.2 9.4 C 41.3 9.2 41.3 9 41.3 8.9 C 41.4 8.8 41.4 8.7 41.4 8.6 C 41.4 8.5 41.4 8.4 41.4 8.4 C 41.5 8.4 41.5 8.4 41.6 8.4 C 41.6 8.4 41.7 8.4 41.7 8.4 C 41.7 8.5 41.7 8.5 41.7 8.6 C 41.7 8.7 41.7 8.7 41.7 8.8 C 41.6 9.1 41.6 9.3 41.5 9.7 C 41.5 10 41.4 10.2 41.4 10.3 C 41.4 10.3 41.4 10.3 41.4 10.3 C 41.4 10.4 41.4 10.4 41.4 10.5 C 41.4 10.5 41.4 10.5 41.3 10.6 C 41.3 10.6 41.3 10.6 41.2 10.6 C 41.2 10.6 41.1 10.6 41.1 10.6 C 41.1 10.6 41.1 10.6 41 10.5 C 41 10.5 41 10.4 41 10.4 C 40.9 10.3 40.9 10.3 40.9 10.2 C 40.6 9.9 40.4 9.6 40.2 9.2 C 40.2 9.3 40.1 9.6 40 10 C 40 10 40 10.2 40 10.2 C 40 10.2 40 10.3 40 10.4 C 40 10.5 40 10.5 39.9 10.6 C 39.9 10.6 39.9 10.7 39.8 10.7 C 39.7 10.7 39.7 10.6 39.7 10.6 C 39.6 10.6 39.6 10.5 39.6 10.4 C 39.6 10.3 39.7 10.2 39.7 10.1 C 39.69 10.08 39.7 10.1 39.7 10.1 Z M 42.1 10.3 C 42.1 10.3 42.1 10.2 42.1 10.1 C 42.1 9.7 42.2 9.4 42.2 9 C 42.2 8.9 42.3 8.9 42.3 8.8 C 42.3 8.8 42.2 8.8 42.2 8.8 C 42.1 8.8 42.1 8.7 42.1 8.6 C 42.1 8.6 42.1 8.6 42.1 8.5 C 42.2 8.5 42.2 8.4 42.3 8.4 C 42.3 8.4 42.5 8.5 42.5 8.5 C 42.6 8.5 42.7 8.4 42.8 8.4 C 43 8.4 43.1 8.4 43.2 8.4 C 43.4 8.4 43.7 8.5 43.8 8.6 C 44 8.8 44.1 9 44.1 9.3 C 44.1 9.5 44 9.8 43.7 10 C 43.4 10.2 43.1 10.4 42.7 10.5 C 42.6 10.5 42.6 10.5 42.5 10.5 C 42.5 10.6 42.5 10.6 42.4 10.6 C 42.3 10.7 42.3 10.7 42.2 10.7 C 42.2 10.7 42.1 10.7 42.1 10.6 C 42 10.6 42 10.5 42 10.5 C 42 10.5 42 10.4 42 10.4 C 42 10.4 42.1 10.3 42.1 10.3 Z M 42.5 10.1 C 42.5 10.2 42.5 10.2 42.5 10.2 C 42.5 10.2 42.7 10.2 42.9 10.1 C 43.1 10.1 43.3 9.9 43.5 9.8 C 43.7 9.6 43.7 9.4 43.7 9.2 C 43.7 9.1 43.7 8.9 43.6 8.9 C 43.4 8.8 43.3 8.7 43.1 8.7 C 43 8.7 42.8 8.7 42.7 8.7 C 42.6 8.8 42.6 8.8 42.6 8.8 C 42.5 9.4 42.5 9.9 42.5 10.1 C 42.5 10.1 42.5 10.1 42.5 10.1 Z M 44.9 10.6 C 44.7 10.6 44.6 10.6 44.5 10.4 C 44.3 10.3 44.3 10.1 44.3 9.9 C 44.3 9.7 44.3 9.5 44.4 9.2 C 44.6 9 44.7 8.8 44.9 8.6 C 45.1 8.5 45.3 8.4 45.5 8.4 C 45.7 8.4 45.8 8.4 45.9 8.5 C 46 8.5 46.1 8.6 46.2 8.6 C 46.3 8.7 46.4 8.8 46.4 8.9 C 46.4 9 46.4 9.1 46.4 9.2 C 46.4 9.3 46.4 9.5 46.3 9.7 C 46.2 9.8 46.1 10 46 10.2 C 45.8 10.3 45.7 10.4 45.5 10.5 C 45.4 10.6 45.1 10.6 44.9 10.6 Z M 44.6 9.9 C 44.6 10 44.7 10.1 44.7 10.2 C 44.8 10.3 44.9 10.3 45 10.3 C 45.2 10.3 45.5 10.2 45.7 10 C 46 9.7 46.1 9.4 46.1 9.1 C 46.1 9.1 46 9 46 8.9 C 46 8.8 45.9 8.8 45.8 8.8 C 45.7 8.7 45.6 8.7 45.5 8.7 C 45.3 8.7 45.1 8.8 44.9 9.1 C 44.7 9.4 44.6 9.6 44.6 9.9 Z " stroke="none" fill="#000"/>  </g>  <g id="Polygon15178">    <path d="M 7.5 4.7 C 7.5 4.7 7 4.8 7 4.8 C 6.9 4.8 6.7 4.8 6.6 4.8 C 6.5 4.8 6.5 4.8 6.4 4.8 C 6.4 4.9 6.4 4.9 6.4 4.9 C 6.4 5 6.4 5.1 6.4 5.2 C 6.3 5.3 6.3 5.4 6.3 5.4 C 6.4 5.4 6.5 5.4 6.6 5.4 C 6.7 5.4 6.8 5.4 6.8 5.4 C 7 5.3 7.1 5.3 7.2 5.3 C 7.3 5.3 7.4 5.4 7.4 5.5 C 7.4 5.5 7.4 5.6 7.3 5.6 C 7.3 5.6 7.2 5.6 7.1 5.6 C 7.1 5.6 7 5.7 6.9 5.7 C 6.9 5.7 6.9 5.7 6.8 5.7 C 6.5 5.7 6.4 5.7 6.3 5.8 C 6.3 5.8 6.3 5.8 6.3 5.8 C 6.3 5.8 6.3 5.8 6.3 5.8 C 6.3 5.8 6.3 5.9 6.2 6 C 6.2 6.1 6.2 6.2 6.2 6.3 C 6.2 6.3 6.2 6.3 6.3 6.3 C 6.3 6.3 6.5 6.3 6.7 6.3 C 6.9 6.3 7 6.3 7 6.2 C 7.2 6.2 7.2 6.2 7.3 6.2 C 7.4 6.2 7.5 6.3 7.5 6.4 C 7.5 6.4 7.5 6.5 7.4 6.5 C 7.3 6.5 7.2 6.5 7 6.6 C 6.9 6.6 6.7 6.6 6.5 6.6 C 6.4 6.6 6.2 6.7 6.1 6.7 C 6 6.7 5.9 6.6 5.9 6.6 C 5.8 6.6 5.8 6.5 5.8 6.5 C 5.8 6.5 5.8 6.4 5.8 6.4 C 5.8 6.4 5.8 6.4 5.8 6.3 C 5.9 6.2 5.9 5.9 6 5.5 C 6 5.1 6.1 4.9 6.1 4.8 C 6.1 4.8 6.1 4.8 6.1 4.8 C 6.1 4.8 6 4.8 6 4.8 C 6 4.7 6 4.7 6 4.7 C 6 4.6 6 4.6 6 4.6 C 6 4.6 6 4.6 6.1 4.6 C 6.1 4.5 6.1 4.5 6.2 4.5 C 6.2 4.5 6.3 4.5 6.3 4.5 C 6.4 4.5 6.7 4.5 7.1 4.4 C 7.3 4.4 7.3 4.4 7.3 4.4 C 7.3 4.4 7.4 4.4 7.4 4.4 C 7.5 4.4 7.6 4.5 7.6 4.6 C 7.6 4.6 7.6 4.6 7.6 4.7 C 7.5 4.7 7.5 4.7 7.5 4.7 Z M 7.9 6.3 C 7.9 6.3 7.9 6.2 7.9 6.1 C 7.9 5.7 8 5.4 8 5 C 8 4.9 8.1 4.9 8.1 4.8 C 8.1 4.8 8 4.8 8 4.8 C 7.9 4.8 7.9 4.7 7.9 4.6 C 7.9 4.6 7.9 4.6 7.9 4.5 C 8 4.5 8 4.4 8.1 4.4 C 8.1 4.4 8.3 4.5 8.3 4.5 C 8.4 4.5 8.5 4.4 8.6 4.4 C 8.8 4.4 8.9 4.4 9 4.4 C 9.2 4.4 9.5 4.5 9.6 4.6 C 9.8 4.8 9.9 5 9.9 5.3 C 9.9 5.5 9.8 5.8 9.5 6 C 9.2 6.2 8.9 6.4 8.6 6.5 C 8.5 6.5 8.4 6.5 8.3 6.5 C 8.3 6.6 8.3 6.6 8.2 6.6 C 8.1 6.7 8.1 6.7 8 6.7 C 8 6.7 7.9 6.7 7.9 6.6 C 7.8 6.6 7.8 6.5 7.8 6.5 C 7.8 6.5 7.8 6.4 7.8 6.4 C 7.8 6.4 7.9 6.3 7.9 6.3 Z M 8.3 6.1 C 8.3 6.2 8.3 6.2 8.3 6.2 C 8.3 6.2 8.5 6.2 8.7 6.1 C 9 6.1 9.1 5.9 9.3 5.8 C 9.5 5.6 9.5 5.4 9.5 5.2 C 9.5 5.1 9.5 4.9 9.4 4.9 C 9.2 4.8 9.1 4.7 8.9 4.7 C 8.8 4.7 8.6 4.7 8.5 4.7 C 8.4 4.8 8.4 4.8 8.4 4.8 C 8.3 5.4 8.3 5.9 8.3 6.1 C 8.3 6.1 8.3 6.1 8.3 6.1 Z M 11 6.6 C 10.9 6.6 10.7 6.6 10.6 6.5 C 10.5 6.5 10.3 6.4 10.3 6.2 C 10.2 6.1 10.2 5.9 10.2 5.7 C 10.2 5.6 10.2 5.5 10.2 5.3 C 10.2 5.3 10.2 5.1 10.2 5.1 C 10.3 5 10.3 5 10.3 4.9 C 10.3 4.9 10.3 4.8 10.3 4.7 C 10.3 4.6 10.3 4.6 10.4 4.5 C 10.4 4.4 10.5 4.4 10.5 4.4 C 10.6 4.4 10.6 4.4 10.6 4.5 C 10.7 4.6 10.7 4.6 10.7 4.6 C 10.7 4.6 10.7 4.8 10.6 4.9 C 10.6 5 10.6 5.1 10.6 5.3 C 10.5 5.5 10.5 5.6 10.5 5.7 C 10.5 5.9 10.6 6.1 10.7 6.2 C 10.8 6.3 10.9 6.3 11 6.3 C 11.2 6.3 11.4 6.3 11.5 6.2 C 11.6 6.1 11.6 5.9 11.7 5.6 C 11.7 5.6 11.7 5.6 11.7 5.5 C 11.7 5.4 11.7 5.3 11.7 5.2 C 11.7 4.9 11.8 4.7 11.8 4.6 C 11.8 4.5 11.9 4.5 12 4.5 C 12.1 4.5 12.1 4.5 12.1 4.7 C 12.1 4.7 12.1 4.9 12.1 5.1 C 12.1 5.2 12 5.3 12 5.5 C 12 5.8 12 6 11.9 6.1 C 11.9 6.3 11.7 6.4 11.6 6.5 C 11.4 6.6 11.2 6.6 11 6.6 Z M 13.7 6.1 C 13.8 6.1 13.8 6 13.9 6 C 13.9 6 14 6.1 14 6.1 C 14 6.2 13.9 6.3 13.7 6.5 C 13.4 6.6 13.2 6.7 13 6.7 C 12.9 6.7 12.7 6.6 12.5 6.5 C 12.4 6.4 12.3 6.2 12.3 6 C 12.3 5.8 12.4 5.5 12.6 5.2 C 12.7 5 12.9 4.7 13.1 4.6 C 13.4 4.4 13.6 4.3 13.8 4.3 C 13.9 4.3 14 4.3 14.1 4.4 C 14.2 4.5 14.2 4.6 14.2 4.7 C 14.2 4.8 14.2 4.9 14.2 4.9 C 14.2 5 14.2 5 14.1 5.1 C 14 5.1 14 5.1 14 5.1 C 13.9 5.1 13.9 5.1 13.9 5.1 C 13.8 5.1 13.8 5 13.8 5 C 13.8 4.9 13.8 4.9 13.9 4.8 C 13.9 4.8 13.9 4.7 13.9 4.7 C 13.9 4.6 13.9 4.6 13.8 4.6 C 13.7 4.6 13.5 4.7 13.3 4.8 C 13.2 5 13 5.1 12.9 5.4 C 12.8 5.6 12.7 5.8 12.7 6 C 12.7 6.1 12.7 6.2 12.8 6.3 C 12.9 6.3 13 6.4 13.1 6.4 C 13.2 6.4 13.2 6.3 13.4 6.3 C 13.5 6.3 13.6 6.2 13.7 6.1 C 13.7 6.1 13.7 6.1 13.7 6.1 Z M 14.9 6.1 C 14.8 6.1 14.8 6.1 14.8 6.1 C 14.8 6.1 14.7 6.2 14.6 6.3 C 14.5 6.5 14.5 6.6 14.4 6.6 C 14.4 6.6 14.4 6.6 14.3 6.6 C 14.3 6.6 14.3 6.6 14.2 6.5 C 14.2 6.5 14.1 6.5 14.1 6.4 C 14.1 6.4 14.3 6.2 14.5 5.8 C 14.7 5.6 14.8 5.4 14.9 5.2 C 15.1 4.8 15.2 4.6 15.3 4.5 C 15.3 4.4 15.4 4.4 15.4 4.4 C 15.5 4.4 15.6 4.4 15.6 4.5 C 15.6 4.5 15.6 4.5 15.6 4.6 C 15.6 4.6 15.6 4.6 15.6 4.7 C 15.8 5.2 16 5.6 16.1 5.8 C 16.2 6 16.3 6.2 16.4 6.3 C 16.4 6.4 16.4 6.4 16.5 6.4 C 16.5 6.4 16.5 6.4 16.5 6.5 C 16.5 6.5 16.5 6.6 16.4 6.6 C 16.4 6.6 16.3 6.7 16.3 6.7 C 16.2 6.7 16.1 6.6 16 6.5 C 16 6.5 15.9 6.3 15.8 6.2 C 15.8 6 15.7 5.9 15.7 5.9 C 15.7 5.9 15.7 5.9 15.7 5.9 C 15.7 5.9 15.6 5.9 15.4 6 C 15.2 6 15 6.1 14.9 6.1 C 14.9 6.1 14.9 6.1 14.9 6.1 C 14.9 6.1 14.9 6.1 14.9 6.1 Z M 15.5 5.7 C 15.5 5.6 15.6 5.6 15.6 5.6 C 15.6 5.6 15.5 5.4 15.4 5 C 15.4 5 15.4 5 15.4 5 C 15.4 5 15 5.7 15 5.7 C 15 5.7 15.1 5.7 15.2 5.7 C 15.2 5.7 15.3 5.7 15.5 5.7 C 15.5 5.7 15.5 5.7 15.5 5.7 Z M 17.1 6.7 C 17.1 6.7 17.1 6.7 17.1 6.7 C 17.1 6.7 17.1 6.8 17.1 6.8 C 17.2 6.8 17.2 6.8 17.3 6.8 C 17.3 6.8 17.4 6.8 17.4 6.9 C 17.5 6.9 17.5 7 17.5 7.1 C 17.5 7.2 17.4 7.2 17.3 7.3 C 17.2 7.4 17.1 7.4 17 7.4 C 16.9 7.4 16.9 7.4 16.8 7.4 C 16.8 7.4 16.7 7.4 16.7 7.4 C 16.6 7.3 16.6 7.3 16.6 7.2 C 16.6 7.2 16.6 7.2 16.6 7.1 C 16.7 7.1 16.7 7.1 16.7 7.1 C 16.8 7.1 16.8 7.1 16.9 7.2 C 16.9 7.2 16.9 7.2 16.9 7.2 C 17 7.2 17 7.2 17 7.2 C 17 7.2 17.1 7.2 17.1 7.2 C 17.2 7.1 17.2 7.1 17.2 7.1 C 17.2 7 17.2 7 17.2 7 C 17.1 7 17.1 7 17.1 7 C 17 7 17 7 16.9 7 C 16.9 7 16.8 7 16.8 6.9 C 16.8 6.8 16.9 6.8 16.9 6.7 C 16.9 6.7 16.9 6.6 16.9 6.6 C 16.7 6.5 16.6 6.3 16.6 6 C 16.6 5.6 16.7 5.2 17.1 4.9 C 17.4 4.5 17.7 4.3 18.1 4.3 C 18.2 4.3 18.3 4.3 18.4 4.4 C 18.4 4.5 18.5 4.6 18.5 4.7 C 18.5 4.8 18.5 4.9 18.5 5 C 18.4 5 18.4 5 18.3 5.1 C 18.3 5.1 18.2 5.1 18.2 5.1 C 18.2 5.1 18.1 5.1 18.1 5.1 C 18.1 5.1 18.1 5 18.1 5 C 18.1 4.9 18.1 4.9 18.1 4.8 C 18.1 4.8 18.1 4.7 18.1 4.7 C 18.1 4.6 18.1 4.6 18 4.6 C 17.9 4.6 17.8 4.7 17.6 4.8 C 17.4 5 17.3 5.1 17.1 5.4 C 17 5.6 16.9 5.8 16.9 6 C 16.9 6.1 17 6.2 17 6.3 C 17.1 6.3 17.2 6.4 17.3 6.4 C 17.4 6.4 17.5 6.3 17.6 6.3 C 17.7 6.3 17.8 6.2 17.9 6.1 C 18 6.1 18.1 6 18.1 6 C 18.2 6 18.2 6.1 18.2 6.1 C 18.2 6.2 18.1 6.4 17.9 6.5 C 17.6 6.6 17.4 6.7 17.1 6.7 Z M 19.1 6.1 C 19.1 6.1 19 6.1 19 6.1 C 19 6.1 18.9 6.2 18.9 6.3 C 18.8 6.5 18.7 6.6 18.7 6.6 C 18.6 6.6 18.6 6.6 18.6 6.6 C 18.6 6.6 18.5 6.6 18.5 6.5 C 18.4 6.5 18.4 6.5 18.4 6.4 C 18.4 6.4 18.5 6.2 18.8 5.8 C 18.9 5.6 19 5.4 19.1 5.2 C 19.3 4.8 19.5 4.6 19.5 4.5 C 19.6 4.4 19.6 4.4 19.7 4.4 C 19.8 4.4 19.8 4.4 19.9 4.5 C 19.9 4.5 19.9 4.5 19.9 4.6 C 19.9 4.6 19.9 4.6 19.9 4.7 C 20.1 5.2 20.2 5.6 20.3 5.8 C 20.4 6 20.5 6.2 20.6 6.3 C 20.7 6.4 20.7 6.4 20.7 6.4 C 20.7 6.4 20.7 6.4 20.7 6.5 C 20.7 6.5 20.7 6.6 20.7 6.6 C 20.6 6.6 20.6 6.7 20.5 6.7 C 20.4 6.7 20.4 6.6 20.3 6.5 C 20.2 6.5 20.1 6.3 20.1 6.2 C 20 6 20 5.9 20 5.9 C 20 5.9 20 5.9 20 5.9 C 19.9 5.9 19.8 5.9 19.6 6 C 19.4 6 19.3 6.1 19.2 6.1 C 19.1 6.1 19.1 6.1 19.1 6.1 C 19.1 6.1 19.1 6.1 19.1 6.1 Z M 19.7 5.7 C 19.8 5.6 19.8 5.6 19.9 5.6 C 19.8 5.6 19.8 5.4 19.6 5 C 19.6 5 19.6 5 19.6 5 C 19.6 5 19.2 5.7 19.2 5.7 C 19.3 5.7 19.3 5.7 19.4 5.7 C 19.4 5.7 19.5 5.7 19.7 5.7 C 19.7 5.7 19.7 5.7 19.7 5.7 Z M 20.1 4.1 C 20 4.1 19.9 4.1 19.9 4.1 C 19.8 4 19.8 4 19.7 4 C 19.7 4 19.7 3.9 19.7 3.9 C 19.7 3.9 19.7 3.9 19.7 3.9 C 19.6 3.9 19.6 3.8 19.6 3.8 C 19.5 3.8 19.4 3.9 19.4 4 C 19.4 4 19.4 4 19.4 4 C 19.3 4 19.3 4.1 19.2 4.1 C 19.2 4.1 19.2 4.1 19.2 4.1 C 19.1 4.1 19 4.1 19 4 C 19 3.9 19.1 3.8 19.2 3.7 C 19.3 3.6 19.4 3.6 19.5 3.6 C 19.6 3.6 19.6 3.6 19.7 3.6 C 19.7 3.6 19.8 3.6 19.8 3.7 C 19.9 3.7 19.9 3.8 20 3.8 C 20 3.8 20 3.8 20 3.8 C 20.1 3.8 20.1 3.8 20.2 3.7 C 20.2 3.7 20.2 3.7 20.2 3.7 C 20.2 3.7 20.2 3.7 20.2 3.7 C 20.3 3.6 20.3 3.6 20.3 3.6 C 20.4 3.6 20.4 3.6 20.4 3.7 C 20.4 3.8 20.4 3.8 20.3 3.9 C 20.2 4.1 20.1 4.1 20.1 4.1 C 20.1 4.1 20.1 4.1 20.1 4.1 Z M 21.4 6.6 C 21.3 6.6 21.1 6.6 21 6.4 C 20.9 6.3 20.8 6.1 20.8 5.9 C 20.8 5.7 20.9 5.5 21 5.2 C 21.1 5 21.3 4.8 21.5 4.6 C 21.6 4.5 21.9 4.4 22.1 4.4 C 22.2 4.4 22.4 4.4 22.5 4.5 C 22.6 4.5 22.7 4.6 22.8 4.6 C 22.8 4.7 22.9 4.8 22.9 4.9 C 23 5 23 5.1 23 5.2 C 23 5.3 22.9 5.5 22.9 5.7 C 22.8 5.8 22.7 6 22.5 6.2 C 22.4 6.3 22.2 6.4 22.1 6.5 C 21.9 6.6 21.7 6.6 21.4 6.6 Z M 21.2 5.9 C 21.2 6 21.2 6.1 21.3 6.2 C 21.3 6.3 21.4 6.3 21.5 6.3 C 21.8 6.3 22 6.2 22.3 6 C 22.5 5.7 22.6 5.4 22.6 5.1 C 22.6 5.1 22.6 5 22.5 4.9 C 22.5 4.8 22.4 4.8 22.4 4.8 C 22.3 4.7 22.2 4.7 22.1 4.7 C 21.9 4.7 21.7 4.8 21.5 5.1 C 21.3 5.4 21.2 5.6 21.2 5.9 Z M 26 4.7 C 26 4.7 25.6 4.8 25.6 4.8 C 25.4 4.8 25.3 4.8 25.2 4.8 C 25 4.8 25 4.8 25 4.8 C 25 4.9 25 4.9 25 4.9 C 24.9 5 24.9 5.1 24.9 5.2 C 24.9 5.3 24.9 5.4 24.9 5.4 C 24.9 5.4 25 5.4 25.1 5.4 C 25.2 5.4 25.3 5.4 25.4 5.4 C 25.5 5.3 25.6 5.3 25.7 5.3 C 25.9 5.3 25.9 5.4 25.9 5.5 C 25.9 5.5 25.9 5.6 25.9 5.6 C 25.8 5.6 25.8 5.6 25.7 5.6 C 25.6 5.6 25.5 5.7 25.5 5.7 C 25.4 5.7 25.4 5.7 25.3 5.7 C 25.1 5.7 24.9 5.7 24.9 5.8 C 24.9 5.8 24.9 5.8 24.9 5.8 C 24.8 5.8 24.8 5.8 24.8 5.8 C 24.8 5.8 24.8 5.9 24.8 6 C 24.8 6.1 24.7 6.2 24.7 6.3 C 24.7 6.3 24.8 6.3 24.8 6.3 C 24.9 6.3 25 6.3 25.2 6.3 C 25.4 6.3 25.5 6.3 25.5 6.2 C 25.7 6.2 25.8 6.2 25.8 6.2 C 25.9 6.2 26 6.3 26 6.4 C 26 6.4 26 6.5 26 6.5 C 25.9 6.5 25.7 6.5 25.5 6.6 C 25.4 6.6 25.3 6.6 25.1 6.6 C 24.9 6.6 24.7 6.7 24.6 6.7 C 24.5 6.7 24.4 6.6 24.4 6.6 C 24.4 6.6 24.4 6.5 24.3 6.5 C 24.3 6.5 24.3 6.4 24.3 6.4 C 24.3 6.4 24.3 6.4 24.4 6.3 C 24.4 6.2 24.5 5.9 24.5 5.5 C 24.6 5.1 24.6 4.9 24.6 4.8 C 24.6 4.8 24.6 4.8 24.6 4.8 C 24.6 4.8 24.6 4.8 24.6 4.8 C 24.5 4.7 24.5 4.7 24.5 4.7 C 24.5 4.6 24.5 4.6 24.5 4.6 C 24.5 4.6 24.6 4.6 24.6 4.6 C 24.6 4.5 24.7 4.5 24.7 4.5 C 24.7 4.5 24.8 4.5 24.8 4.5 C 24.9 4.5 25.2 4.5 25.6 4.4 C 25.8 4.4 25.9 4.4 25.9 4.4 C 25.9 4.4 25.9 4.4 25.9 4.4 C 26.1 4.4 26.2 4.5 26.2 4.6 C 26.2 4.6 26.1 4.6 26.1 4.7 C 26.1 4.7 26 4.7 26 4.7 Z M 29.1 4.7 C 29.1 4.9 29 5 28.8 5 C 28.8 4.9 28.8 4.8 28.7 4.8 C 28.7 4.7 28.6 4.7 28.5 4.7 C 28.4 4.7 28.2 4.8 28.1 4.8 C 27.9 4.9 27.9 5 27.9 5.1 C 27.9 5.2 27.9 5.2 27.9 5.3 C 28 5.3 28.1 5.4 28.3 5.4 C 28.6 5.5 28.7 5.6 28.9 5.6 C 29 5.7 29 5.8 29 5.9 C 29 6.1 28.9 6.3 28.6 6.5 C 28.3 6.6 28 6.7 27.7 6.7 C 27.6 6.7 27.5 6.7 27.5 6.6 C 27.4 6.6 27.4 6.5 27.4 6.5 C 27.4 6.4 27.4 6.4 27.4 6.3 C 27.4 6.3 27.5 6.3 27.5 6.3 C 27.5 6.3 27.6 6.3 27.6 6.3 C 27.7 6.3 27.8 6.3 27.9 6.3 C 28 6.3 28.2 6.3 28.4 6.2 C 28.6 6.1 28.7 6.1 28.7 6 C 28.7 5.9 28.6 5.9 28.6 5.9 C 28.5 5.8 28.4 5.8 28.3 5.8 C 28.1 5.7 27.9 5.6 27.8 5.6 C 27.7 5.5 27.6 5.5 27.6 5.4 C 27.5 5.3 27.5 5.2 27.5 5.1 C 27.5 5 27.6 4.8 27.8 4.6 C 28 4.5 28.3 4.4 28.6 4.4 C 28.7 4.4 28.9 4.4 29 4.5 C 29.1 4.6 29.1 4.6 29.1 4.7 C 29.1 4.7 29.1 4.7 29.1 4.7 Z M 29.8 6.1 C 29.8 6.1 29.7 6.1 29.7 6.1 C 29.7 6.1 29.6 6.2 29.6 6.3 C 29.5 6.5 29.4 6.6 29.4 6.6 C 29.3 6.6 29.3 6.6 29.3 6.6 C 29.3 6.6 29.2 6.6 29.2 6.5 C 29.1 6.5 29.1 6.5 29.1 6.4 C 29.1 6.4 29.2 6.2 29.5 5.8 C 29.6 5.6 29.7 5.4 29.8 5.2 C 30 4.8 30.2 4.6 30.2 4.5 C 30.3 4.4 30.3 4.4 30.4 4.4 C 30.5 4.4 30.5 4.4 30.6 4.5 C 30.6 4.5 30.6 4.5 30.6 4.6 C 30.6 4.6 30.6 4.6 30.6 4.7 C 30.8 5.2 30.9 5.6 31 5.8 C 31.1 6 31.2 6.2 31.3 6.3 C 31.4 6.4 31.4 6.4 31.4 6.4 C 31.4 6.4 31.4 6.4 31.4 6.5 C 31.4 6.5 31.4 6.6 31.4 6.6 C 31.3 6.6 31.3 6.7 31.2 6.7 C 31.1 6.7 31.1 6.6 31 6.5 C 30.9 6.5 30.8 6.3 30.8 6.2 C 30.7 6 30.7 5.9 30.7 5.9 C 30.7 5.9 30.7 5.9 30.7 5.9 C 30.6 5.9 30.5 5.9 30.3 6 C 30.1 6 30 6.1 29.9 6.1 C 29.8 6.1 29.8 6.1 29.8 6.1 C 29.8 6.1 29.8 6.1 29.8 6.1 Z M 30.4 5.7 C 30.5 5.6 30.5 5.6 30.5 5.6 C 30.5 5.6 30.5 5.4 30.3 5 C 30.3 5 30.3 5 30.3 5 C 30.3 5 29.9 5.7 29.9 5.7 C 30 5.7 30 5.7 30.1 5.7 C 30.1 5.7 30.2 5.7 30.4 5.7 C 30.4 5.7 30.4 5.7 30.4 5.7 Z M 32.4 6.6 C 32.3 6.6 32.1 6.6 32 6.5 C 31.9 6.5 31.8 6.4 31.7 6.2 C 31.6 6.1 31.6 5.9 31.6 5.7 C 31.6 5.6 31.6 5.5 31.6 5.3 C 31.6 5.3 31.7 5.1 31.7 5.1 C 31.7 5 31.7 5 31.7 4.9 C 31.7 4.9 31.7 4.8 31.7 4.7 C 31.7 4.6 31.7 4.6 31.8 4.5 C 31.8 4.4 31.9 4.4 31.9 4.4 C 32 4.4 32 4.4 32 4.5 C 32.1 4.6 32.1 4.6 32.1 4.6 C 32.1 4.6 32.1 4.8 32 4.9 C 32 5 32 5.1 32 5.3 C 31.9 5.5 31.9 5.6 31.9 5.7 C 31.9 5.9 32 6.1 32.1 6.2 C 32.2 6.3 32.3 6.3 32.4 6.3 C 32.6 6.3 32.8 6.3 32.9 6.2 C 33 6.1 33 5.9 33.1 5.6 C 33.1 5.6 33.1 5.6 33.1 5.5 C 33.1 5.4 33.1 5.3 33.1 5.2 C 33.1 4.9 33.2 4.7 33.2 4.6 C 33.2 4.5 33.3 4.5 33.4 4.5 C 33.5 4.5 33.5 4.5 33.5 4.7 C 33.5 4.7 33.5 4.9 33.5 5.1 C 33.5 5.2 33.4 5.3 33.4 5.5 C 33.4 5.8 33.4 6 33.3 6.1 C 33.3 6.3 33.1 6.4 33 6.5 C 32.8 6.6 32.6 6.6 32.4 6.6 Z M 33.3 3.8 C 33.2 3.8 33.1 3.9 33 3.9 C 33 3.9 33 3.9 33 3.9 C 33 4 32.9 4 32.8 4.1 C 32.7 4.1 32.7 4.2 32.7 4.2 C 32.7 4.2 32.7 4.2 32.7 4.2 C 32.6 4.2 32.6 4.2 32.6 4.2 C 32.5 4.1 32.5 4.1 32.5 4.1 C 32.5 4 32.6 3.9 32.7 3.8 C 32.7 3.8 32.7 3.8 32.7 3.8 C 32.8 3.8 32.8 3.8 32.8 3.7 C 33 3.6 33.1 3.5 33.2 3.5 C 33.2 3.5 33.2 3.4 33.3 3.4 C 33.3 3.4 33.3 3.5 33.4 3.5 C 33.4 3.6 33.4 3.6 33.4 3.6 C 33.4 3.6 33.4 3.7 33.4 3.7 C 33.3 3.7 33.3 3.8 33.3 3.8 C 33.3 3.8 33.3 3.8 33.3 3.8 Z M 33.9 6.3 C 33.9 6.3 33.9 6.2 33.9 6.1 C 33.9 5.7 34 5.4 34 5 C 34 4.9 34 4.9 34 4.8 C 34 4.8 34 4.8 34 4.8 C 33.9 4.8 33.9 4.7 33.9 4.6 C 33.9 4.6 33.9 4.6 33.9 4.5 C 34 4.5 34 4.4 34.1 4.4 C 34.1 4.4 34.3 4.5 34.3 4.5 C 34.3 4.5 34.5 4.4 34.6 4.4 C 34.8 4.4 34.9 4.4 35 4.4 C 35.2 4.4 35.4 4.5 35.6 4.6 C 35.8 4.8 35.9 5 35.9 5.3 C 35.9 5.5 35.7 5.8 35.5 6 C 35.2 6.2 34.9 6.4 34.5 6.5 C 34.4 6.5 34.4 6.5 34.3 6.5 C 34.3 6.6 34.2 6.6 34.2 6.6 C 34.1 6.7 34.1 6.7 34 6.7 C 33.9 6.7 33.9 6.7 33.9 6.6 C 33.8 6.6 33.8 6.5 33.8 6.5 C 33.8 6.5 33.8 6.4 33.8 6.4 C 33.8 6.4 33.9 6.3 33.9 6.3 Z M 34.2 6.1 C 34.2 6.2 34.2 6.2 34.2 6.2 C 34.3 6.2 34.4 6.2 34.7 6.1 C 34.9 6.1 35.1 5.9 35.3 5.8 C 35.4 5.6 35.5 5.4 35.5 5.2 C 35.5 5.1 35.5 4.9 35.3 4.9 C 35.2 4.8 35.1 4.7 34.9 4.7 C 34.8 4.7 34.6 4.7 34.4 4.7 C 34.4 4.8 34.4 4.8 34.4 4.8 C 34.3 5.4 34.2 5.9 34.2 6.1 C 34.2 6.1 34.2 6.1 34.2 6.1 Z M 37.8 4.7 C 37.8 4.7 37.3 4.8 37.3 4.8 C 37.2 4.8 37 4.8 36.9 4.8 C 36.8 4.8 36.7 4.8 36.7 4.8 C 36.7 4.9 36.7 4.9 36.7 4.9 C 36.7 5 36.7 5.1 36.7 5.2 C 36.6 5.3 36.6 5.4 36.6 5.4 C 36.7 5.4 36.8 5.4 36.9 5.4 C 37 5.4 37.1 5.4 37.1 5.4 C 37.3 5.3 37.4 5.3 37.5 5.3 C 37.6 5.3 37.7 5.4 37.7 5.5 C 37.7 5.5 37.7 5.6 37.6 5.6 C 37.6 5.6 37.5 5.6 37.4 5.6 C 37.4 5.6 37.3 5.7 37.2 5.7 C 37.2 5.7 37.2 5.7 37.1 5.7 C 36.8 5.7 36.7 5.7 36.6 5.8 C 36.6 5.8 36.6 5.8 36.6 5.8 C 36.6 5.8 36.6 5.8 36.6 5.8 C 36.6 5.8 36.6 5.9 36.5 6 C 36.5 6.1 36.5 6.2 36.5 6.3 C 36.5 6.3 36.5 6.3 36.6 6.3 C 36.6 6.3 36.7 6.3 36.9 6.3 C 37.1 6.3 37.3 6.3 37.3 6.2 C 37.4 6.2 37.5 6.2 37.6 6.2 C 37.7 6.2 37.8 6.3 37.8 6.4 C 37.8 6.4 37.7 6.5 37.7 6.5 C 37.6 6.5 37.5 6.5 37.3 6.6 C 37.2 6.6 37 6.6 36.8 6.6 C 36.7 6.6 36.5 6.7 36.3 6.7 C 36.3 6.7 36.2 6.6 36.2 6.6 C 36.1 6.6 36.1 6.5 36.1 6.5 C 36.1 6.5 36.1 6.4 36.1 6.4 C 36.1 6.4 36.1 6.4 36.1 6.3 C 36.2 6.2 36.2 5.9 36.3 5.5 C 36.3 5.1 36.4 4.9 36.4 4.8 C 36.4 4.8 36.4 4.8 36.3 4.8 C 36.3 4.8 36.3 4.8 36.3 4.8 C 36.3 4.7 36.3 4.7 36.3 4.7 C 36.3 4.6 36.3 4.6 36.3 4.6 C 36.3 4.6 36.3 4.6 36.4 4.6 C 36.4 4.5 36.4 4.5 36.5 4.5 C 36.5 4.5 36.6 4.5 36.6 4.5 C 36.7 4.5 36.9 4.5 37.4 4.4 C 37.5 4.4 37.6 4.4 37.6 4.4 C 37.6 4.4 37.6 4.4 37.6 4.4 C 37.8 4.4 37.9 4.5 37.9 4.6 C 37.9 4.6 37.9 4.6 37.9 4.7 C 37.8 4.7 37.8 4.7 37.8 4.7 Z M 39.3 6.3 C 39.3 6.3 39.3 6.2 39.3 6.1 C 39.4 5.7 39.4 5.4 39.5 5 C 39.5 4.9 39.5 4.9 39.5 4.8 C 39.5 4.8 39.5 4.8 39.5 4.8 C 39.4 4.8 39.3 4.7 39.3 4.6 C 39.3 4.6 39.3 4.6 39.4 4.5 C 39.4 4.5 39.5 4.4 39.5 4.4 C 39.5 4.4 39.7 4.5 39.7 4.5 C 39.8 4.5 39.9 4.4 40.1 4.4 C 40.2 4.4 40.3 4.4 40.4 4.4 C 40.7 4.4 40.9 4.5 41.1 4.6 C 41.2 4.8 41.3 5 41.3 5.3 C 41.3 5.5 41.2 5.8 40.9 6 C 40.7 6.2 40.3 6.4 40 6.5 C 39.9 6.5 39.8 6.5 39.8 6.5 C 39.7 6.6 39.7 6.6 39.6 6.6 C 39.6 6.7 39.5 6.7 39.4 6.7 C 39.4 6.7 39.3 6.7 39.3 6.6 C 39.3 6.6 39.2 6.5 39.2 6.5 C 39.2 6.5 39.3 6.4 39.3 6.4 C 39.3 6.4 39.3 6.3 39.3 6.3 Z M 39.7 6.1 C 39.7 6.2 39.7 6.2 39.7 6.2 C 39.7 6.2 39.9 6.2 40.1 6.1 C 40.4 6.1 40.6 5.9 40.7 5.8 C 40.9 5.6 41 5.4 41 5.2 C 41 5.1 40.9 4.9 40.8 4.9 C 40.7 4.8 40.5 4.7 40.3 4.7 C 40.2 4.7 40.1 4.7 39.9 4.7 C 39.9 4.8 39.9 4.8 39.8 4.8 C 39.7 5.4 39.7 5.9 39.7 6.1 C 39.7 6.1 39.7 6.1 39.7 6.1 Z M 43.2 4.7 C 43.2 4.7 42.8 4.8 42.8 4.8 C 42.6 4.8 42.5 4.8 42.4 4.8 C 42.2 4.8 42.2 4.8 42.2 4.8 C 42.2 4.9 42.2 4.9 42.2 4.9 C 42.1 5 42.1 5.1 42.1 5.2 C 42.1 5.3 42.1 5.4 42.1 5.4 C 42.1 5.4 42.2 5.4 42.3 5.4 C 42.4 5.4 42.5 5.4 42.6 5.4 C 42.7 5.3 42.8 5.3 42.9 5.3 C 43.1 5.3 43.1 5.4 43.1 5.5 C 43.1 5.5 43.1 5.6 43.1 5.6 C 43 5.6 43 5.6 42.9 5.6 C 42.8 5.6 42.7 5.7 42.7 5.7 C 42.6 5.7 42.6 5.7 42.5 5.7 C 42.3 5.7 42.1 5.7 42.1 5.8 C 42.1 5.8 42.1 5.8 42.1 5.8 C 42 5.8 42 5.8 42 5.8 C 42 5.8 42 5.9 42 6 C 42 6.1 41.9 6.2 41.9 6.3 C 41.9 6.3 42 6.3 42 6.3 C 42.1 6.3 42.2 6.3 42.4 6.3 C 42.6 6.3 42.7 6.3 42.8 6.2 C 42.9 6.2 43 6.2 43 6.2 C 43.1 6.2 43.2 6.3 43.2 6.4 C 43.2 6.4 43.2 6.5 43.2 6.5 C 43.1 6.5 42.9 6.5 42.8 6.6 C 42.6 6.6 42.5 6.6 42.3 6.6 C 42.1 6.6 41.9 6.7 41.8 6.7 C 41.7 6.7 41.6 6.6 41.6 6.6 C 41.6 6.6 41.6 6.5 41.5 6.5 C 41.5 6.5 41.5 6.4 41.5 6.4 C 41.5 6.4 41.6 6.4 41.6 6.3 C 41.6 6.2 41.7 5.9 41.7 5.5 C 41.8 5.1 41.8 4.9 41.8 4.8 C 41.8 4.8 41.8 4.8 41.8 4.8 C 41.8 4.8 41.8 4.8 41.8 4.8 C 41.7 4.7 41.7 4.7 41.7 4.7 C 41.7 4.6 41.7 4.6 41.7 4.6 C 41.7 4.6 41.8 4.6 41.8 4.6 C 41.8 4.5 41.9 4.5 41.9 4.5 C 42 4.5 42 4.5 42 4.5 C 42.1 4.5 42.4 4.5 42.8 4.4 C 43 4.4 43.1 4.4 43.1 4.4 C 43.1 4.4 43.1 4.4 43.1 4.4 C 43.3 4.4 43.4 4.5 43.4 4.6 C 43.4 4.6 43.3 4.6 43.3 4.7 C 43.3 4.7 43.2 4.7 43.2 4.7 Z " stroke="none" fill="#000"/>  </g>  <g id="Polygon15177">    <path d="M 10.5 1.8 C 10.3 1.9 10.3 1.9 10.3 1.9 C 10.2 2.1 10.2 2.3 10.2 2.4 C 10.2 2.5 10.2 2.5 10.2 2.6 C 10.1 2.6 10.1 2.6 10 2.6 C 9.9 2.6 9.9 2.6 9.9 2.4 C 9.9 2.4 9.9 2.1 9.9 1.6 C 10 1.3 10 1.1 10 1 C 10 0.9 10 0.9 10 0.9 C 9.9 0.8 9.9 0.8 9.9 0.7 C 9.9 0.6 10 0.5 10.3 0.5 C 10.6 0.4 10.8 0.4 11 0.4 C 11.2 0.4 11.4 0.4 11.5 0.5 C 11.6 0.6 11.7 0.7 11.7 0.9 C 11.7 1.1 11.6 1.3 11.3 1.5 C 11.1 1.6 10.8 1.8 10.5 1.8 C 10.5 1.8 10.5 1.8 10.5 1.8 Z M 11 0.7 C 10.8 0.7 10.6 0.7 10.4 0.8 C 10.4 0.8 10.3 1.6 10.3 1.6 C 10.6 1.5 10.8 1.4 11 1.3 C 11.3 1.2 11.4 1.1 11.4 0.9 C 11.4 0.8 11.2 0.7 11 0.7 C 11 0.7 11 0.7 11 0.7 Z M 12.2 2.1 C 12.2 2.1 12.2 2.1 12.1 2.1 C 12.1 2.1 12.1 2.2 12 2.3 C 11.9 2.5 11.8 2.6 11.8 2.6 C 11.8 2.6 11.7 2.6 11.7 2.6 C 11.7 2.6 11.6 2.6 11.6 2.5 C 11.5 2.5 11.5 2.5 11.5 2.4 C 11.5 2.4 11.6 2.2 11.9 1.8 C 12 1.6 12.1 1.4 12.2 1.2 C 12.5 0.8 12.6 0.6 12.7 0.5 C 12.7 0.4 12.8 0.4 12.8 0.4 C 12.9 0.4 12.9 0.4 13 0.5 C 13 0.5 13 0.5 13 0.6 C 13 0.6 13 0.6 13 0.7 C 13.2 1.2 13.3 1.6 13.4 1.8 C 13.5 2 13.6 2.2 13.7 2.3 C 13.8 2.4 13.8 2.4 13.8 2.4 C 13.8 2.4 13.8 2.4 13.8 2.5 C 13.8 2.5 13.8 2.6 13.8 2.6 C 13.7 2.6 13.7 2.7 13.6 2.7 C 13.6 2.7 13.5 2.6 13.4 2.5 C 13.3 2.5 13.3 2.3 13.2 2.2 C 13.1 2 13.1 1.9 13.1 1.9 C 13.1 1.9 13.1 1.9 13.1 1.9 C 13 1.9 12.9 1.9 12.7 2 C 12.5 2 12.4 2.1 12.3 2.1 C 12.3 2.1 12.2 2.1 12.2 2.1 C 12.2 2.1 12.2 2.1 12.2 2.1 Z M 12.8 1.7 C 12.9 1.6 12.9 1.6 13 1.6 C 13 1.6 12.9 1.4 12.8 1 C 12.8 1 12.7 1 12.7 1 C 12.7 1 12.3 1.7 12.3 1.7 C 12.4 1.7 12.5 1.7 12.5 1.7 C 12.6 1.7 12.7 1.7 12.8 1.7 C 12.8 1.7 12.8 1.7 12.8 1.7 Z M 14.2 0.8 C 14.2 0.8 14.19 0.75 14.2 0.8 C 14.2 0.7 14.1 0.7 14.1 0.6 C 14.1 0.6 14.2 0.6 14.2 0.5 C 14.3 0.5 14.3 0.5 14.3 0.5 C 14.4 0.5 14.4 0.5 14.4 0.5 C 14.4 0.5 14.5 0.5 14.5 0.5 C 14.8 0.4 15 0.4 15.1 0.4 C 15.3 0.4 15.5 0.5 15.6 0.6 C 15.7 0.7 15.8 0.8 15.8 0.9 C 15.8 1.1 15.7 1.2 15.6 1.4 C 15.5 1.5 15.3 1.6 15.1 1.7 C 15.4 2 15.7 2.2 15.9 2.3 C 15.9 2.3 16 2.3 16 2.4 C 16 2.4 16 2.5 15.9 2.5 C 15.9 2.6 15.8 2.6 15.8 2.6 C 15.7 2.6 15.7 2.6 15.6 2.5 C 15.5 2.5 15.4 2.4 15.3 2.3 C 15.2 2.2 15.1 2.1 15.1 2.1 C 14.9 1.9 14.7 1.8 14.7 1.8 C 14.6 1.8 14.5 1.7 14.5 1.6 C 14.5 1.6 14.5 1.5 14.6 1.5 C 14.6 1.5 14.7 1.4 14.7 1.4 C 14.7 1.4 14.8 1.5 14.8 1.5 C 14.8 1.5 14.8 1.5 14.8 1.5 C 14.9 1.5 15 1.4 15.2 1.3 C 15.3 1.2 15.4 1.1 15.4 0.9 C 15.4 0.9 15.4 0.8 15.3 0.8 C 15.2 0.7 15.2 0.7 15 0.7 C 14.9 0.7 14.8 0.7 14.7 0.7 C 14.7 0.7 14.6 0.7 14.6 0.8 C 14.6 0.8 14.6 0.8 14.6 0.8 C 14.6 0.8 14.5 0.9 14.5 1.1 C 14.5 1.3 14.4 1.5 14.4 1.7 C 14.4 1.9 14.4 2 14.4 2.1 C 14.4 2.2 14.4 2.3 14.4 2.3 C 14.4 2.4 14.4 2.4 14.4 2.4 C 14.4 2.5 14.4 2.5 14.3 2.6 C 14.3 2.6 14.3 2.6 14.2 2.6 C 14.1 2.6 14 2.5 14 2.3 C 14 2.2 14 2 14.1 1.7 C 14.1 1.4 14.1 1.2 14.2 1 C 14.2 0.9 14.2 0.9 14.2 0.9 C 14.19 0.89 14.2 0.8 14.2 0.8 Z M 16.6 2.1 C 16.6 2.1 16.5 2.1 16.5 2.1 C 16.5 2.1 16.5 2.2 16.4 2.3 C 16.3 2.5 16.2 2.6 16.2 2.6 C 16.2 2.6 16.1 2.6 16.1 2.6 C 16.1 2.6 16 2.6 16 2.5 C 15.9 2.5 15.9 2.5 15.9 2.4 C 15.9 2.4 16 2.2 16.3 1.8 C 16.4 1.6 16.5 1.4 16.6 1.2 C 16.9 0.8 17 0.6 17 0.5 C 17.1 0.4 17.1 0.4 17.2 0.4 C 17.3 0.4 17.3 0.4 17.4 0.5 C 17.4 0.5 17.4 0.5 17.4 0.6 C 17.4 0.6 17.4 0.6 17.4 0.7 C 17.6 1.2 17.7 1.6 17.8 1.8 C 17.9 2 18 2.2 18.1 2.3 C 18.2 2.4 18.2 2.4 18.2 2.4 C 18.2 2.4 18.2 2.4 18.2 2.5 C 18.2 2.5 18.2 2.6 18.2 2.6 C 18.1 2.6 18.1 2.7 18 2.7 C 17.9 2.7 17.9 2.6 17.8 2.5 C 17.7 2.5 17.6 2.3 17.6 2.2 C 17.5 2 17.5 1.9 17.5 1.9 C 17.5 1.9 17.5 1.9 17.5 1.9 C 17.4 1.9 17.3 1.9 17.1 2 C 16.9 2 16.8 2.1 16.7 2.1 C 16.7 2.1 16.6 2.1 16.6 2.1 C 16.6 2.1 16.6 2.1 16.6 2.1 Z M 17.2 1.7 C 17.3 1.6 17.3 1.6 17.4 1.6 C 17.3 1.6 17.3 1.4 17.2 1 C 17.1 1 17.1 1 17.1 1 C 17.1 1 16.7 1.7 16.7 1.7 C 16.8 1.7 16.8 1.7 16.9 1.7 C 16.9 1.7 17.1 1.7 17.2 1.7 C 17.2 1.7 17.2 1.7 17.2 1.7 Z M 20.1 1.1 C 20 1.2 20 1.3 20 1.3 C 20 1.3 20 1.4 20 1.5 C 20 1.7 19.9 1.9 19.9 2 C 19.9 2.1 19.9 2.2 20 2.3 C 20 2.4 20 2.5 19.9 2.5 C 19.9 2.6 19.8 2.6 19.8 2.6 C 19.7 2.6 19.6 2.6 19.6 2.5 C 19.6 2.4 19.6 2.3 19.6 2.2 C 19.6 2.1 19.6 1.9 19.6 1.5 C 19.6 1.5 19.7 1 19.7 1 C 19.7 0.9 19.7 0.8 19.8 0.7 C 19.8 0.6 19.8 0.6 19.8 0.5 C 19.8 0.5 19.8 0.5 19.9 0.5 C 19.9 0.4 20 0.4 20 0.4 C 20 0.4 20.1 0.4 20.1 0.5 C 20.1 0.5 20.2 0.6 20.2 0.6 C 20.2 0.6 20.1 1.1 20.1 1.1 Z M 20.5 2.1 C 20.5 2.1 20.58 1.57 20.6 1.6 C 20.7 1.2 20.7 0.9 20.7 0.8 C 20.7 0.7 20.7 0.6 20.7 0.6 C 20.7 0.6 20.8 0.6 20.8 0.5 C 20.8 0.5 20.9 0.5 20.9 0.5 C 21 0.5 21 0.5 21 0.5 C 21.1 0.5 21.1 0.6 21.1 0.7 C 21.2 0.9 21.3 1.1 21.4 1.4 C 21.6 1.7 21.8 1.9 21.9 2.1 C 21.9 1.9 22 1.7 22 1.4 C 22.1 1.2 22.1 1 22.1 0.9 C 22.1 0.8 22.1 0.7 22.2 0.6 C 22.2 0.5 22.2 0.4 22.2 0.4 C 22.3 0.4 22.3 0.4 22.4 0.4 C 22.4 0.4 22.4 0.4 22.5 0.4 C 22.5 0.5 22.5 0.5 22.5 0.6 C 22.5 0.7 22.5 0.7 22.5 0.8 C 22.4 1.1 22.4 1.3 22.3 1.7 C 22.2 2 22.2 2.2 22.2 2.3 C 22.2 2.3 22.2 2.3 22.2 2.3 C 22.2 2.4 22.2 2.4 22.2 2.5 C 22.2 2.5 22.2 2.5 22.1 2.6 C 22.1 2.6 22 2.6 22 2.6 C 21.9 2.6 21.9 2.6 21.9 2.6 C 21.9 2.6 21.9 2.6 21.8 2.5 C 21.8 2.5 21.8 2.4 21.7 2.4 C 21.7 2.3 21.7 2.3 21.6 2.2 C 21.4 1.9 21.2 1.6 21 1.2 C 20.9 1.3 20.9 1.6 20.8 2 C 20.8 2 20.8 2.2 20.8 2.2 C 20.8 2.2 20.8 2.3 20.8 2.4 C 20.8 2.5 20.8 2.5 20.7 2.6 C 20.7 2.6 20.6 2.7 20.6 2.7 C 20.5 2.7 20.5 2.6 20.5 2.6 C 20.4 2.6 20.4 2.5 20.4 2.4 C 20.4 2.3 20.4 2.2 20.5 2.1 C 20.47 2.08 20.5 2.1 20.5 2.1 Z M 24.9 0.5 C 24.9 0.5 24.9 0.5 24.9 0.5 C 25 0.5 24.9 0.6 24.8 0.7 C 24.7 0.9 24.6 1 24.6 1.1 C 24.5 1.2 24.4 1.4 24.2 1.7 C 24.1 1.9 24 2 24 2.1 C 23.9 2.2 23.8 2.3 23.8 2.4 C 23.8 2.4 23.8 2.5 23.7 2.5 C 23.7 2.5 23.6 2.6 23.5 2.6 C 23.5 2.6 23.5 2.5 23.4 2.5 C 23.4 2.4 23.4 2.3 23.3 2.2 C 23.3 2 23.2 1.8 23.1 1.6 C 22.8 1 22.7 0.7 22.7 0.7 C 22.7 0.6 22.7 0.6 22.8 0.5 C 22.8 0.5 22.9 0.4 22.9 0.4 C 23 0.4 23 0.5 23 0.5 C 23.1 0.5 23.1 0.6 23.1 0.8 C 23.2 0.9 23.2 1.1 23.4 1.4 C 23.5 1.7 23.6 1.9 23.6 2.1 C 23.6 2.1 23.7 2 23.7 1.9 C 23.7 1.9 23.8 1.9 23.8 1.9 C 23.9 1.7 24 1.5 24.1 1.3 C 24.3 1 24.4 0.7 24.5 0.6 C 24.6 0.4 24.7 0.4 24.8 0.4 C 24.9 0.4 24.9 0.4 24.9 0.5 C 24.95 0.52 24.9 0.5 24.9 0.5 C 24.9 0.5 24.95 0.53 24.9 0.5 Z M 26.5 0.7 C 26.5 0.7 26.1 0.8 26.1 0.8 C 25.9 0.8 25.8 0.8 25.7 0.8 C 25.6 0.8 25.5 0.8 25.5 0.8 C 25.5 0.9 25.5 0.9 25.5 0.9 C 25.5 1 25.5 1.1 25.4 1.2 C 25.4 1.3 25.4 1.4 25.4 1.4 C 25.4 1.4 25.5 1.4 25.6 1.4 C 25.8 1.4 25.8 1.4 25.9 1.4 C 26 1.3 26.1 1.3 26.2 1.3 C 26.4 1.3 26.5 1.4 26.5 1.5 C 26.5 1.5 26.4 1.6 26.4 1.6 C 26.3 1.6 26.3 1.6 26.2 1.6 C 26.1 1.6 26.1 1.7 26 1.7 C 26 1.7 25.9 1.7 25.9 1.7 C 25.6 1.7 25.4 1.7 25.4 1.8 C 25.4 1.8 25.4 1.8 25.4 1.8 C 25.4 1.8 25.3 1.8 25.3 1.8 C 25.3 1.8 25.3 1.9 25.3 2 C 25.3 2.1 25.3 2.2 25.3 2.3 C 25.3 2.3 25.3 2.3 25.3 2.3 C 25.4 2.3 25.5 2.3 25.7 2.3 C 25.9 2.3 26 2.3 26.1 2.2 C 26.2 2.2 26.3 2.2 26.3 2.2 C 26.5 2.2 26.5 2.3 26.5 2.4 C 26.5 2.4 26.5 2.5 26.5 2.5 C 26.4 2.5 26.2 2.5 26.1 2.6 C 25.9 2.6 25.8 2.6 25.6 2.6 C 25.4 2.6 25.3 2.7 25.1 2.7 C 25 2.7 25 2.6 24.9 2.6 C 24.9 2.6 24.9 2.5 24.9 2.5 C 24.9 2.5 24.9 2.4 24.9 2.4 C 24.9 2.4 24.9 2.4 24.9 2.3 C 24.9 2.2 25 1.9 25 1.5 C 25.1 1.1 25.1 0.9 25.1 0.8 C 25.1 0.8 25.1 0.8 25.1 0.8 C 25.1 0.8 25.1 0.8 25.1 0.8 C 25.1 0.7 25.1 0.7 25.1 0.7 C 25.1 0.6 25.1 0.6 25.1 0.6 C 25.1 0.6 25.1 0.6 25.1 0.6 C 25.2 0.5 25.2 0.5 25.2 0.5 C 25.3 0.5 25.3 0.5 25.4 0.5 C 25.4 0.5 25.7 0.5 26.2 0.4 C 26.3 0.4 26.4 0.4 26.4 0.4 C 26.4 0.4 26.4 0.4 26.4 0.4 C 26.6 0.4 26.7 0.5 26.7 0.6 C 26.7 0.6 26.7 0.6 26.6 0.7 C 26.6 0.7 26.6 0.7 26.5 0.7 Z M 28.5 0.7 C 28.5 0.9 28.4 1 28.2 1 C 28.2 0.9 28.2 0.8 28.1 0.8 C 28.1 0.7 28 0.7 27.9 0.7 C 27.7 0.7 27.6 0.8 27.4 0.8 C 27.3 0.9 27.2 1 27.2 1.1 C 27.2 1.2 27.3 1.2 27.3 1.3 C 27.4 1.3 27.5 1.4 27.7 1.4 C 28 1.5 28.1 1.6 28.2 1.6 C 28.4 1.7 28.4 1.8 28.4 1.9 C 28.4 2.1 28.3 2.3 28 2.5 C 27.7 2.6 27.4 2.7 27.1 2.7 C 27 2.7 26.9 2.7 26.8 2.6 C 26.8 2.6 26.8 2.5 26.8 2.5 C 26.8 2.4 26.8 2.4 26.8 2.3 C 26.8 2.3 26.9 2.3 26.9 2.3 C 26.9 2.3 26.9 2.3 27 2.3 C 27.1 2.3 27.2 2.3 27.2 2.3 C 27.4 2.3 27.6 2.3 27.8 2.2 C 27.9 2.1 28 2.1 28 2 C 28 1.9 28 1.9 28 1.9 C 27.9 1.8 27.8 1.8 27.7 1.8 C 27.5 1.7 27.3 1.6 27.2 1.6 C 27.1 1.5 27 1.5 27 1.4 C 26.9 1.3 26.9 1.2 26.9 1.1 C 26.9 1 27 0.8 27.2 0.6 C 27.4 0.5 27.7 0.4 27.9 0.4 C 28.1 0.4 28.2 0.4 28.3 0.5 C 28.4 0.6 28.5 0.6 28.5 0.7 C 28.5 0.7 28.5 0.7 28.5 0.7 Z M 30.3 0.8 C 30.1 0.8 29.9 0.8 29.8 0.8 C 29.8 0.8 29.8 0.8 29.8 0.9 C 29.8 0.9 29.8 1.1 29.7 1.4 C 29.7 1.7 29.7 1.9 29.7 2.1 C 29.7 2.2 29.7 2.3 29.7 2.3 C 29.7 2.4 29.7 2.4 29.7 2.4 C 29.7 2.4 29.7 2.5 29.7 2.5 C 29.6 2.6 29.6 2.6 29.6 2.6 C 29.5 2.6 29.5 2.6 29.4 2.6 C 29.4 2.5 29.4 2.5 29.3 2.4 C 29.3 2.3 29.3 2.2 29.3 2.1 C 29.3 1.9 29.3 1.7 29.4 1.3 C 29.4 1 29.5 0.9 29.5 0.8 C 29.4 0.8 29.3 0.9 29.1 0.9 C 28.9 0.9 28.8 0.9 28.8 0.9 C 28.7 0.9 28.6 0.9 28.6 0.8 C 28.5 0.8 28.5 0.8 28.5 0.7 C 28.5 0.7 28.5 0.6 28.6 0.6 C 28.6 0.6 28.7 0.6 28.9 0.6 C 29.2 0.6 29.5 0.6 29.7 0.5 C 30 0.5 30.3 0.4 30.4 0.4 C 30.6 0.4 30.7 0.5 30.7 0.5 C 30.8 0.6 30.8 0.6 30.8 0.6 C 30.8 0.7 30.8 0.8 30.7 0.8 C 30.7 0.8 30.6 0.8 30.5 0.8 C 30.5 0.8 30.4 0.8 30.3 0.8 C 30.3 0.8 30.3 0.8 30.3 0.8 Z M 31.2 1.1 C 31.2 1.2 31.1 1.3 31.1 1.3 C 31.1 1.3 31.1 1.4 31.1 1.5 C 31.1 1.7 31.1 1.9 31.1 2 C 31.1 2.1 31.1 2.2 31.1 2.3 C 31.1 2.4 31.1 2.5 31 2.5 C 31 2.6 30.9 2.6 30.9 2.6 C 30.8 2.6 30.8 2.6 30.7 2.5 C 30.7 2.4 30.7 2.3 30.7 2.2 C 30.7 2.1 30.7 1.9 30.8 1.5 C 30.8 1.5 30.8 1 30.8 1 C 30.8 0.9 30.9 0.8 30.9 0.7 C 30.9 0.6 30.9 0.6 30.9 0.5 C 30.9 0.5 31 0.5 31 0.5 C 31 0.4 31.1 0.4 31.1 0.4 C 31.2 0.4 31.2 0.4 31.2 0.5 C 31.3 0.5 31.3 0.6 31.3 0.6 C 31.3 0.6 31.2 1.1 31.2 1.1 Z M 31.7 0.8 C 31.7 0.8 31.72 0.75 31.7 0.8 C 31.7 0.7 31.7 0.7 31.7 0.6 C 31.7 0.6 31.7 0.6 31.7 0.5 C 31.8 0.5 31.8 0.5 31.9 0.5 C 31.9 0.5 31.9 0.5 31.9 0.5 C 32 0.5 32 0.5 32 0.5 C 32.3 0.4 32.5 0.4 32.6 0.4 C 32.8 0.4 33 0.5 33.1 0.6 C 33.2 0.7 33.3 0.8 33.3 0.9 C 33.3 1.1 33.2 1.2 33.1 1.4 C 33 1.5 32.8 1.6 32.6 1.7 C 33 2 33.2 2.2 33.4 2.3 C 33.5 2.3 33.5 2.3 33.5 2.4 C 33.5 2.4 33.5 2.5 33.4 2.5 C 33.4 2.6 33.4 2.6 33.3 2.6 C 33.3 2.6 33.2 2.6 33.1 2.5 C 33 2.5 32.9 2.4 32.8 2.3 C 32.7 2.2 32.6 2.1 32.6 2.1 C 32.4 1.9 32.3 1.8 32.2 1.8 C 32.1 1.8 32 1.7 32 1.6 C 32 1.6 32.1 1.5 32.1 1.5 C 32.1 1.5 32.2 1.4 32.3 1.4 C 32.3 1.4 32.3 1.5 32.3 1.5 C 32.3 1.5 32.3 1.5 32.3 1.5 C 32.4 1.5 32.5 1.4 32.7 1.3 C 32.9 1.2 32.9 1.1 32.9 0.9 C 32.9 0.9 32.9 0.8 32.8 0.8 C 32.8 0.7 32.7 0.7 32.6 0.7 C 32.4 0.7 32.3 0.7 32.3 0.7 C 32.2 0.7 32.1 0.7 32.1 0.8 C 32.1 0.8 32.1 0.8 32.1 0.8 C 32.1 0.8 32.1 0.9 32 1.1 C 32 1.3 32 1.5 31.9 1.7 C 31.9 1.9 31.9 2 31.9 2.1 C 31.9 2.2 31.9 2.3 31.9 2.3 C 31.9 2.4 31.9 2.4 31.9 2.4 C 31.9 2.5 31.9 2.5 31.9 2.6 C 31.8 2.6 31.8 2.6 31.7 2.6 C 31.6 2.6 31.5 2.5 31.5 2.3 C 31.5 2.2 31.5 2 31.6 1.7 C 31.6 1.4 31.7 1.2 31.7 1 C 31.7 0.9 31.7 0.9 31.7 0.9 C 31.72 0.89 31.7 0.8 31.7 0.8 Z M 36.5 0.7 C 36.5 0.7 36 0.8 36 0.8 C 35.9 0.8 35.7 0.8 35.6 0.8 C 35.5 0.8 35.4 0.8 35.4 0.8 C 35.4 0.9 35.4 0.9 35.4 0.9 C 35.4 1 35.4 1.1 35.4 1.2 C 35.3 1.3 35.3 1.4 35.3 1.4 C 35.4 1.4 35.5 1.4 35.6 1.4 C 35.7 1.4 35.8 1.4 35.8 1.4 C 36 1.3 36.1 1.3 36.2 1.3 C 36.3 1.3 36.4 1.4 36.4 1.5 C 36.4 1.5 36.4 1.6 36.3 1.6 C 36.3 1.6 36.2 1.6 36.1 1.6 C 36.1 1.6 36 1.7 35.9 1.7 C 35.9 1.7 35.8 1.7 35.8 1.7 C 35.5 1.7 35.4 1.7 35.3 1.8 C 35.3 1.8 35.3 1.8 35.3 1.8 C 35.3 1.8 35.3 1.8 35.3 1.8 C 35.3 1.8 35.2 1.9 35.2 2 C 35.2 2.1 35.2 2.2 35.2 2.3 C 35.2 2.3 35.2 2.3 35.3 2.3 C 35.3 2.3 35.4 2.3 35.6 2.3 C 35.8 2.3 36 2.3 36 2.2 C 36.1 2.2 36.2 2.2 36.3 2.2 C 36.4 2.2 36.5 2.3 36.5 2.4 C 36.5 2.4 36.4 2.5 36.4 2.5 C 36.3 2.5 36.2 2.5 36 2.6 C 35.9 2.6 35.7 2.6 35.5 2.6 C 35.3 2.6 35.2 2.7 35 2.7 C 35 2.7 34.9 2.6 34.9 2.6 C 34.8 2.6 34.8 2.5 34.8 2.5 C 34.8 2.5 34.8 2.4 34.8 2.4 C 34.8 2.4 34.8 2.4 34.8 2.3 C 34.9 2.2 34.9 1.9 35 1.5 C 35 1.1 35.1 0.9 35.1 0.8 C 35.1 0.8 35 0.8 35 0.8 C 35 0.8 35 0.8 35 0.8 C 35 0.7 35 0.7 35 0.7 C 35 0.6 35 0.6 35 0.6 C 35 0.6 35 0.6 35.1 0.6 C 35.1 0.5 35.1 0.5 35.2 0.5 C 35.2 0.5 35.3 0.5 35.3 0.5 C 35.4 0.5 35.6 0.5 36.1 0.4 C 36.2 0.4 36.3 0.4 36.3 0.4 C 36.3 0.4 36.3 0.4 36.3 0.4 C 36.5 0.4 36.6 0.5 36.6 0.6 C 36.6 0.6 36.6 0.6 36.6 0.7 C 36.5 0.7 36.5 0.7 36.5 0.7 Z M 38.8 1 C 38.8 1 38.8 1 38.9 0.9 C 38.9 0.9 38.4 1.6 38.4 1.6 C 38.1 1.9 38 2.1 37.8 2.1 C 37.8 2.1 37.7 2 37.7 2 C 37.6 1.9 37.6 1.8 37.6 1.7 C 37.5 1.5 37.5 1.4 37.5 1.4 C 37.4 1.2 37.4 1.1 37.4 1.1 C 37.4 1.1 37.3 1.5 37.3 1.5 C 37.3 1.6 37.3 1.7 37.2 1.8 C 37.2 1.9 37.2 2 37.1 2.2 C 37.1 2.3 37.1 2.4 37.1 2.5 C 37.1 2.5 37.1 2.6 37 2.6 C 37 2.6 36.9 2.6 36.9 2.6 C 36.9 2.6 36.8 2.6 36.8 2.6 C 36.8 2.5 36.7 2.5 36.7 2.5 C 36.7 2.4 36.8 2.2 36.8 2.1 C 37 1.5 37 1.1 37.1 1 C 37.1 0.8 37.1 0.7 37.1 0.6 C 37.1 0.5 37.1 0.5 37.2 0.5 C 37.2 0.4 37.3 0.4 37.4 0.4 C 37.4 0.4 37.4 0.5 37.5 0.5 C 37.5 0.6 37.5 0.6 37.5 0.7 C 37.55 0.66 37.5 0.7 37.5 0.7 C 37.5 0.7 37.75 1.22 37.8 1.2 C 37.8 1.5 37.9 1.6 37.9 1.7 C 38 1.5 38.2 1.3 38.4 1.1 C 38.6 0.8 38.7 0.6 38.8 0.5 C 38.9 0.4 38.9 0.4 39 0.4 C 39 0.4 39.1 0.4 39.1 0.5 C 39.2 0.5 39.2 0.5 39.2 0.6 C 39.2 0.6 39.2 0.7 39.2 1 C 39.1 1.2 39.1 1.4 39.1 1.6 C 39.1 1.9 39.1 2 39.1 2.1 C 39.1 2.1 39.1 2.2 39.1 2.2 C 39.1 2.3 39.1 2.3 39.1 2.3 C 39.1 2.4 39.1 2.5 39 2.5 C 39 2.6 39 2.6 38.9 2.6 C 38.8 2.6 38.7 2.5 38.7 2.3 C 38.7 2.1 38.7 1.9 38.7 1.6 C 38.8 1.4 38.8 1.2 38.8 1 C 38.8 1 38.8 1 38.8 1 Z " stroke="none" fill="#000"/>  </g></svg>