<?xml version="1.0" standalone="no"?><!DOCTYPE svg PUBLIC "-//W3C//DTD SVG 1.1//EN" "http://www.w3.org/Graphics/SVG/1.1/DTD/svg11.dtd"><svg xmlns="http://www.w3.org/2000/svg" version="1.1" width="64px" height="17.9px" viewBox="0 -1 64 17.9" style="top:-1px">  <desc>ENT O, O ATUAL SISTEMA ELEITORAL FAVORECE A CORRUP O E A DESIGUALDADE?</desc>  <defs/>  <g id="Polygon15233">    <path d="M 18.8 12.7 C 18.8 12.7 18.8 12.6 18.8 12.5 C 18.9 12.1 18.9 11.8 19 11.4 C 19 11.3 19 11.3 19 11.2 C 19 11.2 19 11.2 19 11.2 C 18.9 11.2 18.8 11.1 18.8 11.1 C 18.8 11 18.8 11 18.9 10.9 C 18.9 10.9 19 10.9 19 10.9 C 19 10.9 19.2 10.9 19.2 10.9 C 19.3 10.9 19.4 10.9 19.6 10.9 C 19.7 10.8 19.8 10.8 19.9 10.8 C 20.2 10.8 20.4 10.9 20.6 11.1 C 20.7 11.2 20.8 11.4 20.8 11.7 C 20.8 12 20.7 12.2 20.4 12.4 C 20.2 12.7 19.9 12.8 19.5 12.9 C 19.4 12.9 19.3 12.9 19.3 13 C 19.2 13 19.2 13 19.1 13 C 19.1 13.1 19 13.1 18.9 13.1 C 18.9 13.1 18.8 13.1 18.8 13 C 18.8 13 18.7 12.9 18.7 12.9 C 18.7 12.9 18.8 12.9 18.8 12.8 C 18.8 12.8 18.8 12.7 18.8 12.7 Z M 19.2 12.6 C 19.2 12.6 19.2 12.6 19.2 12.7 C 19.2 12.7 19.4 12.6 19.6 12.6 C 19.9 12.5 20.1 12.4 20.2 12.2 C 20.4 12 20.5 11.9 20.5 11.7 C 20.5 11.5 20.4 11.4 20.3 11.3 C 20.2 11.2 20 11.1 19.9 11.1 C 19.7 11.1 19.6 11.1 19.4 11.2 C 19.4 11.2 19.4 11.2 19.3 11.2 C 19.2 11.8 19.2 12.3 19.2 12.6 C 19.2 12.6 19.2 12.6 19.2 12.6 Z M 22.7 11.2 C 22.7 11.2 22.3 11.2 22.3 11.2 C 22.1 11.2 22 11.2 21.9 11.2 C 21.8 11.2 21.7 11.3 21.7 11.3 C 21.7 11.3 21.7 11.3 21.7 11.4 C 21.7 11.4 21.6 11.5 21.6 11.6 C 21.6 11.7 21.6 11.8 21.6 11.8 C 21.6 11.8 21.7 11.8 21.8 11.8 C 22 11.8 22 11.8 22.1 11.8 C 22.2 11.8 22.3 11.7 22.4 11.7 C 22.6 11.7 22.6 11.8 22.6 11.9 C 22.6 11.9 22.6 12 22.6 12 C 22.5 12 22.5 12.1 22.4 12.1 C 22.3 12.1 22.3 12.1 22.2 12.1 C 22.1 12.1 22.1 12.1 22 12.1 C 21.8 12.1 21.6 12.2 21.6 12.2 C 21.6 12.2 21.6 12.2 21.6 12.2 C 21.5 12.2 21.5 12.2 21.5 12.2 C 21.5 12.2 21.5 12.3 21.5 12.4 C 21.5 12.6 21.5 12.7 21.5 12.7 C 21.5 12.7 21.5 12.8 21.5 12.8 C 21.6 12.8 21.7 12.7 21.9 12.7 C 22.1 12.7 22.2 12.7 22.3 12.7 C 22.4 12.6 22.5 12.6 22.5 12.6 C 22.6 12.6 22.7 12.7 22.7 12.8 C 22.7 12.8 22.7 12.9 22.7 12.9 C 22.6 12.9 22.4 13 22.3 13 C 22.1 13 22 13 21.8 13 C 21.6 13.1 21.4 13.1 21.3 13.1 C 21.2 13.1 21.2 13.1 21.1 13 C 21.1 13 21.1 12.9 21.1 12.9 C 21.1 12.9 21.1 12.8 21.1 12.8 C 21.1 12.8 21.1 12.8 21.1 12.7 C 21.1 12.6 21.2 12.4 21.2 11.9 C 21.3 11.5 21.3 11.3 21.3 11.2 C 21.3 11.2 21.3 11.2 21.3 11.2 C 21.3 11.2 21.3 11.2 21.3 11.2 C 21.2 11.1 21.2 11.1 21.2 11.1 C 21.2 11.1 21.2 11.1 21.2 11 C 21.2 11 21.3 11 21.3 11 C 21.3 11 21.4 10.9 21.4 10.9 C 21.5 10.9 21.5 11 21.6 11 C 21.6 11 21.9 10.9 22.3 10.9 C 22.5 10.8 22.6 10.8 22.6 10.8 C 22.6 10.8 22.6 10.8 22.6 10.8 C 22.8 10.8 22.9 10.9 22.9 11 C 22.9 11 22.8 11.1 22.8 11.1 C 22.8 11.1 22.8 11.2 22.7 11.2 Z M 24.7 11.1 C 24.7 11.3 24.6 11.4 24.4 11.4 C 24.4 11.3 24.4 11.2 24.3 11.2 C 24.3 11.2 24.2 11.1 24.1 11.1 C 23.9 11.1 23.8 11.2 23.6 11.3 C 23.5 11.3 23.4 11.4 23.4 11.5 C 23.4 11.6 23.4 11.6 23.5 11.7 C 23.6 11.7 23.7 11.8 23.9 11.8 C 24.1 11.9 24.3 12 24.4 12.1 C 24.5 12.2 24.6 12.2 24.6 12.4 C 24.6 12.5 24.5 12.7 24.2 12.9 C 23.9 13 23.6 13.1 23.3 13.1 C 23.2 13.1 23.1 13.1 23 13.1 C 23 13 22.9 13 22.9 12.9 C 22.9 12.8 23 12.8 23 12.8 C 23 12.7 23 12.7 23.1 12.7 C 23.1 12.7 23.1 12.7 23.1 12.7 C 23.2 12.8 23.3 12.8 23.4 12.8 C 23.6 12.8 23.8 12.7 23.9 12.6 C 24.1 12.6 24.2 12.5 24.2 12.4 C 24.2 12.4 24.2 12.3 24.2 12.3 C 24.1 12.3 24 12.2 23.9 12.2 C 23.7 12.1 23.5 12.1 23.4 12 C 23.3 12 23.2 11.9 23.2 11.8 C 23.1 11.8 23.1 11.7 23.1 11.6 C 23.1 11.4 23.2 11.2 23.4 11.1 C 23.6 10.9 23.8 10.8 24.1 10.8 C 24.3 10.8 24.4 10.9 24.5 10.9 C 24.6 11 24.7 11.1 24.7 11.1 C 24.7 11.1 24.7 11.1 24.7 11.1 Z M 25.4 11.5 C 25.4 11.6 25.4 11.7 25.4 11.7 C 25.4 11.8 25.4 11.8 25.3 12 C 25.3 12.2 25.3 12.3 25.3 12.4 C 25.3 12.5 25.3 12.6 25.3 12.8 C 25.3 12.9 25.3 12.9 25.3 13 C 25.2 13 25.2 13 25.1 13 C 25 13 25 13 25 12.9 C 24.9 12.9 24.9 12.8 24.9 12.6 C 24.9 12.5 24.9 12.3 25 12 C 25 12 25.1 11.4 25.1 11.4 C 25.1 11.3 25.1 11.2 25.1 11.2 C 25.1 11 25.1 11 25.2 11 C 25.2 10.9 25.2 10.9 25.2 10.9 C 25.3 10.9 25.3 10.8 25.3 10.8 C 25.4 10.8 25.4 10.9 25.5 10.9 C 25.5 11 25.5 11 25.5 11.1 C 25.5 11.1 25.4 11.5 25.4 11.5 Z M 27.6 12 C 27.6 12.1 27.6 12.2 27.6 12.3 C 27.6 12.3 27.6 12.3 27.6 12.3 C 27.6 12.3 27.5 12.4 27.5 12.6 C 27.5 12.7 27.5 12.8 27.5 12.9 C 27.5 13 27.5 13.1 27.5 13.1 C 27.5 13.1 27.5 13.2 27.4 13.2 C 27.4 13.2 27.4 13.3 27.4 13.3 C 27.4 13.3 27.3 13.3 27.3 13.3 C 27.2 13.3 27.2 13.3 27.1 13.2 C 27.1 13.2 27.1 13.2 27.1 13.1 C 27.1 13.1 27.1 13 27.1 12.9 C 27.1 12.8 27.2 12.7 27.2 12.6 C 26.8 12.8 26.6 13 26.3 13 C 26.1 13 26 12.9 25.9 12.8 C 25.8 12.7 25.7 12.6 25.7 12.4 C 25.7 12.1 25.8 11.9 26 11.6 C 26 11.6 26 11.6 26 11.6 C 26.2 11.3 26.4 11.1 26.6 11 C 26.9 10.8 27.1 10.7 27.3 10.7 C 27.5 10.7 27.6 10.8 27.6 10.8 C 27.7 10.8 27.8 10.9 27.8 11 C 27.8 11 27.7 11.1 27.7 11.2 C 27.6 11.2 27.6 11.3 27.5 11.3 C 27.5 11.3 27.5 11.3 27.5 11.3 C 27.4 11.3 27.4 11.2 27.4 11.2 C 27.4 11.1 27.4 11.1 27.3 11.1 C 27.3 11.1 27.3 11.1 27.2 11.1 C 27.1 11.1 26.9 11.1 26.7 11.3 C 26.5 11.4 26.4 11.6 26.3 11.8 C 26.1 12 26.1 12.2 26.1 12.4 C 26.1 12.6 26.2 12.7 26.3 12.7 C 26.4 12.7 26.5 12.6 26.6 12.6 C 26.8 12.6 26.9 12.5 27 12.4 C 27.1 12.3 27.2 12.2 27.3 12.1 C 27.3 12.1 27.3 12 27.3 11.9 C 27.3 11.8 27.3 11.8 27.4 11.8 C 27.4 11.8 27.5 11.7 27.5 11.7 C 27.6 11.7 27.7 11.8 27.7 11.9 C 27.7 11.9 27.7 12 27.6 12 C 27.6 12 27.6 12 27.6 12 Z M 28.9 13.1 C 28.8 13.1 28.7 13 28.5 13 C 28.4 12.9 28.3 12.8 28.2 12.6 C 28.1 12.5 28.1 12.3 28.1 12.1 C 28.1 12 28.1 11.9 28.1 11.8 C 28.1 11.8 28.2 11.5 28.2 11.5 C 28.2 11.4 28.2 11.4 28.2 11.4 C 28.2 11.3 28.2 11.2 28.2 11.2 C 28.2 11.1 28.3 11 28.3 10.9 C 28.3 10.9 28.4 10.8 28.4 10.8 C 28.5 10.8 28.5 10.9 28.6 10.9 C 28.6 11 28.6 11 28.6 11.1 C 28.6 11.1 28.6 11.2 28.5 11.4 C 28.5 11.4 28.5 11.5 28.5 11.7 C 28.4 11.9 28.4 12.1 28.4 12.1 C 28.4 12.4 28.5 12.5 28.6 12.6 C 28.7 12.7 28.8 12.8 28.9 12.8 C 29.1 12.8 29.3 12.7 29.4 12.6 C 29.5 12.5 29.5 12.3 29.6 12.1 C 29.6 12 29.6 12 29.6 11.9 C 29.6 11.8 29.6 11.8 29.6 11.7 C 29.6 11.3 29.7 11.1 29.7 11 C 29.8 10.9 29.8 10.9 29.9 10.9 C 30 10.9 30.1 11 30.1 11.1 C 30.1 11.2 30 11.3 30 11.5 C 30 11.6 30 11.8 30 11.9 C 29.9 12.2 29.9 12.4 29.8 12.5 C 29.8 12.7 29.7 12.8 29.5 12.9 C 29.3 13 29.1 13.1 28.9 13.1 Z M 30.7 12.5 C 30.7 12.5 30.7 12.5 30.7 12.5 C 30.6 12.5 30.6 12.6 30.5 12.8 C 30.4 12.9 30.4 13 30.3 13 C 30.3 13 30.3 13 30.2 13 C 30.2 13 30.2 13 30.1 13 C 30.1 12.9 30 12.9 30 12.9 C 30 12.8 30.2 12.6 30.4 12.2 C 30.5 12 30.7 11.8 30.8 11.6 C 31 11.2 31.1 11 31.2 10.9 C 31.2 10.9 31.3 10.8 31.3 10.8 C 31.4 10.8 31.5 10.8 31.5 10.9 C 31.5 10.9 31.5 10.9 31.5 11 C 31.5 11 31.5 11.1 31.5 11.1 C 31.7 11.6 31.9 12 32 12.2 C 32.1 12.5 32.2 12.6 32.3 12.7 C 32.3 12.8 32.3 12.8 32.3 12.8 C 32.4 12.9 32.4 12.9 32.4 12.9 C 32.4 13 32.3 13 32.3 13 C 32.3 13.1 32.2 13.1 32.2 13.1 C 32.1 13.1 32 13.1 31.9 13 C 31.9 12.9 31.8 12.8 31.7 12.6 C 31.7 12.5 31.6 12.4 31.6 12.4 C 31.6 12.4 31.6 12.4 31.6 12.4 C 31.6 12.4 31.4 12.4 31.3 12.4 C 31.1 12.4 30.9 12.5 30.8 12.5 C 30.8 12.5 30.8 12.5 30.7 12.5 C 30.7 12.5 30.7 12.5 30.7 12.5 Z M 31.4 12.1 C 31.4 12.1 31.5 12.1 31.5 12.1 C 31.5 12 31.4 11.8 31.3 11.4 C 31.3 11.4 31.3 11.4 31.3 11.4 C 31.3 11.4 30.9 12.2 30.9 12.2 C 30.9 12.2 31 12.1 31 12.1 C 31.1 12.1 31.2 12.1 31.4 12.1 C 31.4 12.1 31.4 12.1 31.4 12.1 Z M 34 12.9 C 33.9 12.9 33.9 12.9 33.8 12.9 C 33.8 12.9 33.7 12.9 33.7 12.9 C 33.4 12.9 33.2 12.9 32.9 13 C 32.8 13 32.8 13.1 32.7 13.1 C 32.7 13.1 32.6 13 32.6 13 C 32.5 12.9 32.5 12.9 32.5 12.9 C 32.5 12.8 32.5 12.8 32.5 12.7 C 32.6 12.6 32.6 12.5 32.6 12.4 C 32.6 12.4 32.7 11.2 32.7 11.2 C 32.7 11.1 32.8 11 32.8 11 C 32.8 10.9 32.8 10.9 32.8 10.9 C 32.9 10.9 32.9 10.8 33 10.8 C 33 10.8 33.1 10.9 33.1 10.9 C 33.1 10.9 33.1 11 33.1 11 C 33.1 11 33.1 11.1 33.1 11.2 C 33.1 11.3 33.1 11.6 33 12 C 33 12.4 32.9 12.6 32.9 12.6 C 32.9 12.6 32.9 12.7 33 12.7 C 33 12.7 33.1 12.6 33.3 12.6 C 33.3 12.6 33.4 12.6 33.5 12.6 C 33.7 12.6 33.9 12.6 34 12.5 C 34 12.5 34 12.5 34 12.5 C 34.1 12.5 34.1 12.5 34.2 12.6 C 34.2 12.6 34.2 12.6 34.2 12.7 C 34.2 12.8 34.2 12.8 34.1 12.8 C 34.1 12.9 34 12.9 34 12.9 Z M 34.4 12.7 C 34.5 12.7 34.5 12.6 34.5 12.5 C 34.5 12.1 34.5 11.8 34.6 11.4 C 34.6 11.3 34.6 11.3 34.6 11.2 C 34.6 11.2 34.6 11.2 34.6 11.2 C 34.5 11.2 34.4 11.1 34.4 11.1 C 34.4 11 34.5 11 34.5 10.9 C 34.5 10.9 34.6 10.9 34.6 10.9 C 34.6 10.9 34.8 10.9 34.8 10.9 C 34.9 10.9 35 10.9 35.2 10.9 C 35.3 10.8 35.4 10.8 35.5 10.8 C 35.8 10.8 36 10.9 36.2 11.1 C 36.4 11.2 36.4 11.4 36.4 11.7 C 36.4 12 36.3 12.2 36.1 12.4 C 35.8 12.7 35.5 12.8 35.1 12.9 C 35 12.9 34.9 12.9 34.9 13 C 34.9 13 34.8 13 34.8 13 C 34.7 13.1 34.6 13.1 34.6 13.1 C 34.5 13.1 34.5 13.1 34.4 13 C 34.4 13 34.4 12.9 34.4 12.9 C 34.4 12.9 34.4 12.9 34.4 12.8 C 34.4 12.8 34.4 12.7 34.4 12.7 Z M 34.8 12.6 C 34.8 12.6 34.8 12.6 34.8 12.7 C 34.9 12.7 35 12.6 35.3 12.6 C 35.5 12.5 35.7 12.4 35.9 12.2 C 36 12 36.1 11.9 36.1 11.7 C 36.1 11.5 36 11.4 35.9 11.3 C 35.8 11.2 35.7 11.1 35.5 11.1 C 35.4 11.1 35.2 11.1 35 11.2 C 35 11.2 35 11.2 35 11.2 C 34.9 11.8 34.8 12.3 34.8 12.6 C 34.8 12.6 34.8 12.6 34.8 12.6 Z M 37 12.5 C 37 12.5 37 12.5 37 12.5 C 36.9 12.5 36.9 12.6 36.8 12.8 C 36.7 12.9 36.7 13 36.6 13 C 36.6 13 36.6 13 36.5 13 C 36.5 13 36.5 13 36.4 13 C 36.4 12.9 36.3 12.9 36.3 12.9 C 36.3 12.8 36.5 12.6 36.7 12.2 C 36.8 12 37 11.8 37.1 11.6 C 37.3 11.2 37.4 11 37.5 10.9 C 37.5 10.9 37.6 10.8 37.6 10.8 C 37.7 10.8 37.8 10.8 37.8 10.9 C 37.8 10.9 37.8 10.9 37.8 11 C 37.8 11 37.8 11.1 37.8 11.1 C 38 11.6 38.1 12 38.2 12.2 C 38.3 12.5 38.4 12.6 38.5 12.7 C 38.6 12.8 38.6 12.8 38.6 12.8 C 38.6 12.9 38.7 12.9 38.7 12.9 C 38.7 13 38.6 13 38.6 13 C 38.6 13.1 38.5 13.1 38.5 13.1 C 38.4 13.1 38.3 13.1 38.2 13 C 38.2 12.9 38.1 12.8 38 12.6 C 37.9 12.5 37.9 12.4 37.9 12.4 C 37.9 12.4 37.9 12.4 37.9 12.4 C 37.9 12.4 37.7 12.4 37.6 12.4 C 37.4 12.4 37.2 12.5 37.1 12.5 C 37.1 12.5 37.1 12.5 37 12.5 C 37 12.5 37 12.5 37 12.5 Z M 37.7 12.1 C 37.7 12.1 37.8 12.1 37.8 12.1 C 37.8 12 37.7 11.8 37.6 11.4 C 37.6 11.4 37.6 11.4 37.6 11.4 C 37.6 11.4 37.1 12.2 37.1 12.2 C 37.2 12.2 37.3 12.1 37.3 12.1 C 37.4 12.1 37.5 12.1 37.7 12.1 C 37.7 12.1 37.7 12.1 37.7 12.1 Z M 38.9 12.7 C 38.9 12.7 38.9 12.6 38.9 12.5 C 39 12.1 39 11.8 39.1 11.4 C 39.1 11.3 39.1 11.3 39.1 11.2 C 39.1 11.2 39.1 11.2 39.1 11.2 C 39 11.2 38.9 11.1 38.9 11.1 C 38.9 11 38.9 11 39 10.9 C 39 10.9 39.1 10.9 39.1 10.9 C 39.1 10.9 39.3 10.9 39.3 10.9 C 39.4 10.9 39.5 10.9 39.7 10.9 C 39.8 10.8 39.9 10.8 40 10.8 C 40.3 10.8 40.5 10.9 40.7 11.1 C 40.8 11.2 40.9 11.4 40.9 11.7 C 40.9 12 40.8 12.2 40.5 12.4 C 40.3 12.7 39.9 12.8 39.6 12.9 C 39.5 12.9 39.4 12.9 39.4 13 C 39.3 13 39.3 13 39.2 13 C 39.2 13.1 39.1 13.1 39 13.1 C 39 13.1 38.9 13.1 38.9 13 C 38.9 13 38.8 12.9 38.8 12.9 C 38.8 12.9 38.9 12.9 38.9 12.8 C 38.9 12.8 38.9 12.7 38.9 12.7 Z M 39.3 12.6 C 39.3 12.6 39.3 12.6 39.3 12.7 C 39.3 12.7 39.5 12.6 39.7 12.6 C 40 12.5 40.2 12.4 40.3 12.2 C 40.5 12 40.6 11.9 40.6 11.7 C 40.6 11.5 40.5 11.4 40.4 11.3 C 40.3 11.2 40.1 11.1 39.9 11.1 C 39.8 11.1 39.7 11.1 39.5 11.2 C 39.5 11.2 39.5 11.2 39.4 11.2 C 39.3 11.8 39.3 12.3 39.3 12.6 C 39.3 12.6 39.3 12.6 39.3 12.6 Z M 42.8 11.2 C 42.8 11.2 42.4 11.2 42.4 11.2 C 42.2 11.2 42.1 11.2 42 11.2 C 41.8 11.2 41.8 11.3 41.8 11.3 C 41.8 11.3 41.8 11.3 41.8 11.4 C 41.8 11.4 41.7 11.5 41.7 11.6 C 41.7 11.7 41.7 11.8 41.7 11.8 C 41.7 11.8 41.8 11.8 41.9 11.8 C 42 11.8 42.1 11.8 42.2 11.8 C 42.3 11.8 42.4 11.7 42.5 11.7 C 42.7 11.7 42.7 11.8 42.7 11.9 C 42.7 11.9 42.7 12 42.7 12 C 42.6 12 42.6 12.1 42.5 12.1 C 42.4 12.1 42.3 12.1 42.3 12.1 C 42.2 12.1 42.2 12.1 42.1 12.1 C 41.9 12.1 41.7 12.2 41.7 12.2 C 41.7 12.2 41.7 12.2 41.7 12.2 C 41.6 12.2 41.6 12.2 41.6 12.2 C 41.6 12.2 41.6 12.3 41.6 12.4 C 41.6 12.6 41.5 12.7 41.5 12.7 C 41.5 12.7 41.6 12.8 41.6 12.8 C 41.7 12.8 41.8 12.7 42 12.7 C 42.2 12.7 42.3 12.7 42.4 12.7 C 42.5 12.6 42.6 12.6 42.6 12.6 C 42.7 12.6 42.8 12.7 42.8 12.8 C 42.8 12.8 42.8 12.9 42.8 12.9 C 42.7 12.9 42.5 13 42.4 13 C 42.2 13 42.1 13 41.9 13 C 41.7 13.1 41.5 13.1 41.4 13.1 C 41.3 13.1 41.2 13.1 41.2 13 C 41.2 13 41.2 12.9 41.1 12.9 C 41.1 12.9 41.1 12.8 41.1 12.8 C 41.1 12.8 41.2 12.8 41.2 12.7 C 41.2 12.6 41.3 12.4 41.3 11.9 C 41.4 11.5 41.4 11.3 41.4 11.2 C 41.4 11.2 41.4 11.2 41.4 11.2 C 41.4 11.2 41.4 11.2 41.4 11.2 C 41.3 11.1 41.3 11.1 41.3 11.1 C 41.3 11.1 41.3 11.1 41.3 11 C 41.3 11 41.4 11 41.4 11 C 41.4 11 41.5 10.9 41.5 10.9 C 41.6 10.9 41.6 11 41.6 11 C 41.7 11 42 10.9 42.4 10.9 C 42.6 10.8 42.7 10.8 42.7 10.8 C 42.7 10.8 42.7 10.8 42.7 10.8 C 42.9 10.8 43 10.9 43 11 C 43 11 42.9 11.1 42.9 11.1 C 42.9 11.1 42.8 11.2 42.8 11.2 Z M 44.5 11.3 C 44.5 11.4 44.5 11.6 44.4 11.7 C 44.4 11.7 44.3 11.8 44.2 11.9 C 44.1 11.9 44 11.9 43.7 12 C 43.7 12.1 43.7 12.2 43.7 12.3 C 43.6 12.3 43.6 12.4 43.6 12.4 C 43.6 12.4 43.5 12.4 43.4 12.4 C 43.4 12.4 43.4 12.4 43.3 12.4 C 43.3 12.3 43.3 12.3 43.3 12.2 C 43.3 12.2 43.3 12.2 43.3 12.1 C 43.4 12.1 43.4 12 43.5 11.9 C 43.5 11.8 43.6 11.8 43.6 11.8 C 43.6 11.8 43.7 11.7 43.9 11.7 C 43.9 11.7 44.1 11.6 44.1 11.6 C 44.1 11.6 44.1 11.5 44.1 11.5 C 44.2 11.4 44.2 11.4 44.2 11.4 C 44.2 11.3 44.2 11.3 44.1 11.2 C 44.1 11.2 44.1 11.1 44.1 11.1 C 44.1 11.1 44.1 11.1 44 11.1 C 44 11.1 44 11.1 43.9 11.1 C 43.8 11.1 43.7 11.1 43.7 11.1 C 43.7 11.1 43.7 11.1 43.6 11.2 C 43.6 11.3 43.6 11.3 43.4 11.3 C 43.3 11.3 43.3 11.3 43.3 11.2 C 43.3 11.1 43.3 11.1 43.4 11 C 43.4 10.9 43.5 10.9 43.6 10.8 C 43.6 10.8 43.6 10.8 43.6 10.8 C 43.7 10.8 43.7 10.8 43.8 10.8 C 43.9 10.8 43.9 10.8 44 10.7 C 44.1 10.7 44.2 10.8 44.2 10.8 C 44.4 10.9 44.4 10.9 44.5 11 C 44.5 11.1 44.5 11.2 44.5 11.3 C 44.5 11.3 44.5 11.3 44.5 11.3 Z M 43.5 12.7 C 43.6 12.7 43.6 12.7 43.6 12.8 C 43.6 12.9 43.6 12.9 43.5 13 C 43.5 13 43.4 13 43.4 13 C 43.3 13 43.2 13 43.2 13 C 43.2 13 43.1 12.9 43.1 12.9 C 43.1 12.8 43.2 12.8 43.3 12.7 C 43.3 12.7 43.3 12.7 43.3 12.7 C 43.3 12.7 43.3 12.6 43.4 12.6 C 43.4 12.6 43.5 12.7 43.5 12.7 C 43.5 12.7 43.5 12.7 43.5 12.7 Z " stroke="none" fill="#000"/>  </g>  <g id="Polygon15232">    <path d="M 9.8 7.1 C 9.8 7.2 9.7 7.2 9.7 7.2 C 9.7 7.2 9.7 7.2 9.7 7.2 C 9.6 7.2 9.6 7.2 9.5 7.2 C 9.4 7.2 9.3 7.2 9.1 7.2 C 9 7.2 8.9 7.2 8.8 7.2 C 8.7 7.4 8.7 7.7 8.7 7.9 C 8.7 7.9 8.8 7.9 8.8 7.9 C 9 7.9 9.1 7.9 9.2 7.8 C 9.3 7.8 9.4 7.8 9.5 7.8 C 9.6 7.8 9.7 7.9 9.7 8 C 9.7 8 9.7 8 9.7 8 C 9.6 8.1 9.6 8.1 9.6 8.1 C 9.6 8.1 9.5 8.1 9.4 8.1 C 9.4 8.1 9 8.2 9 8.2 C 8.9 8.2 8.7 8.2 8.7 8.2 C 8.7 8.3 8.7 8.3 8.6 8.3 C 8.6 8.3 8.6 8.3 8.6 8.4 C 8.6 8.6 8.6 8.7 8.6 8.7 C 8.6 8.7 8.6 8.9 8.6 8.9 C 8.6 9 8.6 9.1 8.5 9.1 C 8.4 9.1 8.4 9.1 8.3 9 C 8.3 9 8.2 8.9 8.2 8.9 C 8.2 8.7 8.2 8.6 8.3 8.3 C 8.3 8.3 8.3 8 8.4 7.2 C 8.4 7.2 8.4 7.2 8.4 7.2 C 8.4 7.1 8.4 7.1 8.4 7.1 C 8.4 7 8.4 7 8.5 7 C 8.5 6.9 8.5 6.9 8.6 6.9 C 8.6 6.9 8.6 6.9 8.6 6.9 C 8.7 6.9 8.7 6.9 8.8 6.9 C 8.8 6.9 8.9 6.9 9.2 6.9 C 9.4 6.8 9.5 6.8 9.6 6.8 C 9.7 6.8 9.8 6.9 9.8 6.9 C 9.9 6.9 9.9 6.9 9.9 7 C 9.9 7 9.9 7.1 9.8 7.1 C 9.8 7.1 9.8 7.1 9.8 7.1 Z M 10.3 8.5 C 10.3 8.5 10.3 8.5 10.2 8.5 C 10.2 8.5 10.2 8.6 10.1 8.8 C 10 8.9 9.9 9 9.9 9 C 9.9 9 9.9 9 9.8 9 C 9.8 9 9.7 9 9.7 9 C 9.7 8.9 9.6 8.9 9.6 8.9 C 9.6 8.8 9.7 8.6 10 8.2 C 10.1 8 10.2 7.8 10.4 7.6 C 10.6 7.2 10.7 7 10.8 6.9 C 10.8 6.9 10.9 6.8 10.9 6.8 C 11 6.8 11.1 6.8 11.1 6.9 C 11.1 6.9 11.1 6.9 11.1 7 C 11.1 7 11.1 7.1 11.1 7.1 C 11.3 7.6 11.4 8 11.5 8.2 C 11.6 8.5 11.7 8.6 11.8 8.7 C 11.9 8.8 11.9 8.8 11.9 8.8 C 11.9 8.9 11.9 8.9 11.9 8.9 C 11.9 9 11.9 9 11.9 9 C 11.9 9.1 11.8 9.1 11.8 9.1 C 11.7 9.1 11.6 9.1 11.5 9 C 11.4 8.9 11.4 8.8 11.3 8.6 C 11.2 8.5 11.2 8.4 11.2 8.4 C 11.2 8.4 11.2 8.4 11.2 8.4 C 11.1 8.4 11 8.4 10.8 8.4 C 10.7 8.4 10.5 8.5 10.4 8.5 C 10.4 8.5 10.4 8.5 10.3 8.5 C 10.3 8.5 10.3 8.5 10.3 8.5 Z M 11 8.1 C 11 8.1 11 8.1 11.1 8.1 C 11.1 8 11 7.8 10.9 7.4 C 10.9 7.4 10.9 7.4 10.9 7.4 C 10.9 7.4 10.4 8.2 10.4 8.2 C 10.5 8.2 10.6 8.1 10.6 8.1 C 10.7 8.1 10.8 8.1 11 8.1 C 11 8.1 11 8.1 11 8.1 Z M 14.2 7 C 14.2 7 14.2 7 14.2 7 C 14.2 7 14.2 7 14.1 7.1 C 14 7.3 13.9 7.4 13.8 7.5 C 13.7 7.6 13.6 7.9 13.4 8.2 C 13.3 8.3 13.3 8.5 13.2 8.5 C 13.1 8.6 13.1 8.8 13.1 8.8 C 13 8.9 13 8.9 13 8.9 C 12.9 9 12.8 9 12.8 9 C 12.7 9 12.7 9 12.7 8.9 C 12.6 8.9 12.6 8.8 12.6 8.6 C 12.5 8.5 12.4 8.3 12.3 8 C 12.1 7.4 12 7.1 12 7.1 C 12 7.1 12 7 12 7 C 12 6.9 12.1 6.9 12.2 6.9 C 12.2 6.9 12.2 6.9 12.3 6.9 C 12.3 7 12.4 7.1 12.4 7.2 C 12.4 7.3 12.5 7.5 12.6 7.8 C 12.7 8.1 12.8 8.4 12.9 8.5 C 12.9 8.5 12.9 8.4 13 8.3 C 13 8.3 13 8.3 13 8.3 C 13.1 8.1 13.2 7.9 13.3 7.7 C 13.5 7.4 13.6 7.2 13.8 7 C 13.9 6.9 14 6.8 14 6.8 C 14.1 6.8 14.2 6.8 14.2 6.9 C 14.19 6.94 14.2 7 14.2 7 C 14.2 7 14.19 6.95 14.2 7 Z M 14.7 9.1 C 14.5 9.1 14.3 9 14.2 8.8 C 14.1 8.7 14 8.5 14 8.3 C 14 8.1 14.1 7.9 14.2 7.7 C 14.3 7.4 14.5 7.2 14.7 7.1 C 14.9 6.9 15.1 6.8 15.3 6.8 C 15.4 6.8 15.6 6.9 15.7 6.9 C 15.8 6.9 15.9 7 16 7.1 C 16.1 7.1 16.1 7.2 16.2 7.3 C 16.2 7.4 16.2 7.5 16.2 7.6 C 16.2 7.8 16.2 7.9 16.1 8.1 C 16 8.3 15.9 8.4 15.7 8.6 C 15.6 8.7 15.4 8.9 15.3 8.9 C 15.1 9 14.9 9.1 14.7 9.1 Z M 14.4 8.3 C 14.4 8.5 14.4 8.6 14.5 8.6 C 14.6 8.7 14.7 8.8 14.7 8.8 C 15 8.8 15.3 8.6 15.5 8.4 C 15.7 8.1 15.8 7.9 15.8 7.6 C 15.8 7.5 15.8 7.4 15.8 7.3 C 15.7 7.3 15.7 7.2 15.6 7.2 C 15.5 7.1 15.4 7.1 15.3 7.1 C 15.1 7.1 14.9 7.3 14.7 7.5 C 14.5 7.8 14.4 8.1 14.4 8.3 Z M 16.6 7.2 C 16.6 7.2 16.61 7.18 16.6 7.2 C 16.6 7.1 16.6 7.1 16.6 7.1 C 16.6 7 16.6 7 16.6 6.9 C 16.7 6.9 16.7 6.9 16.8 6.9 C 16.8 6.9 16.8 6.9 16.8 6.9 C 16.9 6.9 16.9 6.9 16.9 6.9 C 17.2 6.9 17.4 6.8 17.5 6.8 C 17.7 6.8 17.9 6.9 18 7 C 18.1 7.1 18.2 7.2 18.2 7.4 C 18.2 7.5 18.1 7.7 18 7.8 C 17.9 7.9 17.7 8 17.5 8.1 C 17.9 8.4 18.1 8.6 18.3 8.7 C 18.4 8.7 18.4 8.8 18.4 8.8 C 18.4 8.9 18.4 8.9 18.3 8.9 C 18.3 9 18.2 9 18.2 9 C 18.1 9 18.1 9 18 8.9 C 17.9 8.9 17.8 8.8 17.7 8.7 C 17.6 8.6 17.5 8.5 17.5 8.5 C 17.3 8.4 17.2 8.3 17.1 8.2 C 17 8.2 16.9 8.2 16.9 8.1 C 16.9 8 16.9 8 17 7.9 C 17 7.9 17.1 7.9 17.1 7.9 C 17.2 7.9 17.2 7.9 17.2 7.9 C 17.2 7.9 17.2 7.9 17.2 7.9 C 17.3 7.9 17.4 7.8 17.6 7.7 C 17.8 7.6 17.8 7.5 17.8 7.4 C 17.8 7.3 17.8 7.2 17.7 7.2 C 17.7 7.1 17.6 7.1 17.5 7.1 C 17.3 7.1 17.2 7.1 17.1 7.1 C 17.1 7.2 17 7.2 17 7.2 C 17 7.2 17 7.2 17 7.2 C 17 7.3 17 7.4 16.9 7.5 C 16.9 7.7 16.9 7.9 16.8 8.1 C 16.8 8.3 16.8 8.5 16.8 8.6 C 16.8 8.6 16.8 8.7 16.8 8.7 C 16.8 8.8 16.8 8.8 16.8 8.9 C 16.8 8.9 16.8 8.9 16.8 9 C 16.7 9 16.7 9 16.6 9 C 16.5 9 16.4 9 16.4 8.8 C 16.4 8.6 16.4 8.4 16.5 8.1 C 16.5 7.9 16.5 7.6 16.6 7.4 C 16.6 7.4 16.6 7.3 16.6 7.3 C 16.61 7.32 16.6 7.2 16.6 7.2 Z M 20.2 7.2 C 20.2 7.2 19.8 7.2 19.8 7.2 C 19.6 7.2 19.5 7.2 19.4 7.2 C 19.2 7.2 19.2 7.3 19.2 7.3 C 19.2 7.3 19.2 7.3 19.2 7.4 C 19.1 7.4 19.1 7.5 19.1 7.6 C 19.1 7.7 19.1 7.8 19.1 7.8 C 19.1 7.8 19.2 7.8 19.3 7.8 C 19.4 7.8 19.5 7.8 19.6 7.8 C 19.7 7.8 19.8 7.7 19.9 7.7 C 20.1 7.7 20.1 7.8 20.1 7.9 C 20.1 7.9 20.1 8 20.1 8 C 20 8 20 8.1 19.9 8.1 C 19.8 8.1 19.7 8.1 19.7 8.1 C 19.6 8.1 19.6 8.1 19.5 8.1 C 19.3 8.1 19.1 8.2 19.1 8.2 C 19.1 8.2 19.1 8.2 19.1 8.2 C 19 8.2 19 8.2 19 8.2 C 19 8.2 19 8.3 19 8.4 C 19 8.6 18.9 8.7 18.9 8.7 C 18.9 8.7 19 8.8 19 8.8 C 19.1 8.8 19.2 8.7 19.4 8.7 C 19.6 8.7 19.7 8.7 19.8 8.7 C 19.9 8.6 20 8.6 20 8.6 C 20.1 8.6 20.2 8.7 20.2 8.8 C 20.2 8.8 20.2 8.9 20.2 8.9 C 20.1 8.9 19.9 9 19.8 9 C 19.6 9 19.5 9 19.3 9 C 19.1 9.1 18.9 9.1 18.8 9.1 C 18.7 9.1 18.6 9.1 18.6 9 C 18.6 9 18.6 8.9 18.5 8.9 C 18.5 8.9 18.5 8.8 18.5 8.8 C 18.5 8.8 18.6 8.8 18.6 8.7 C 18.6 8.6 18.7 8.4 18.7 7.9 C 18.8 7.5 18.8 7.3 18.8 7.2 C 18.8 7.2 18.8 7.2 18.8 7.2 C 18.8 7.2 18.8 7.2 18.8 7.2 C 18.7 7.1 18.7 7.1 18.7 7.1 C 18.7 7.1 18.7 7.1 18.7 7 C 18.7 7 18.8 7 18.8 7 C 18.8 7 18.9 6.9 18.9 6.9 C 19 6.9 19 7 19 7 C 19.1 7 19.4 6.9 19.8 6.9 C 20 6.8 20.1 6.8 20.1 6.8 C 20.1 6.8 20.1 6.8 20.1 6.8 C 20.3 6.8 20.4 6.9 20.4 7 C 20.4 7 20.3 7.1 20.3 7.1 C 20.3 7.1 20.2 7.2 20.2 7.2 Z M 21.8 8.6 C 21.9 8.5 22 8.5 22 8.5 C 22.1 8.5 22.1 8.5 22.1 8.6 C 22.1 8.7 22 8.8 21.8 8.9 C 21.6 9 21.4 9.1 21.2 9.1 C 21 9.1 20.8 9 20.7 8.9 C 20.5 8.8 20.5 8.6 20.5 8.4 C 20.5 8.2 20.6 7.9 20.7 7.7 C 20.9 7.4 21.1 7.2 21.3 7 C 21.5 6.8 21.7 6.7 22 6.7 C 22.1 6.7 22.2 6.8 22.3 6.8 C 22.4 6.9 22.4 7 22.4 7.1 C 22.4 7.2 22.4 7.3 22.4 7.4 C 22.4 7.4 22.3 7.5 22.3 7.5 C 22.2 7.5 22.2 7.5 22.1 7.5 C 22.1 7.5 22 7.5 22 7.5 C 22 7.5 22 7.4 22 7.4 C 22 7.4 22 7.3 22 7.3 C 22 7.2 22 7.2 22 7.1 C 22 7 22 7 22 7 C 21.8 7 21.7 7.1 21.5 7.2 C 21.3 7.4 21.2 7.6 21 7.8 C 20.9 8 20.8 8.2 20.8 8.4 C 20.8 8.5 20.9 8.6 20.9 8.7 C 21 8.8 21.1 8.8 21.2 8.8 C 21.3 8.8 21.4 8.8 21.5 8.7 C 21.6 8.7 21.7 8.6 21.8 8.6 C 21.8 8.6 21.8 8.6 21.8 8.6 Z M 24.2 7.2 C 24.2 7.2 23.8 7.2 23.8 7.2 C 23.6 7.2 23.5 7.2 23.4 7.2 C 23.3 7.2 23.2 7.3 23.2 7.3 C 23.2 7.3 23.2 7.3 23.2 7.4 C 23.2 7.4 23.1 7.5 23.1 7.6 C 23.1 7.7 23.1 7.8 23.1 7.8 C 23.1 7.8 23.2 7.8 23.3 7.8 C 23.5 7.8 23.5 7.8 23.6 7.8 C 23.7 7.8 23.8 7.7 23.9 7.7 C 24.1 7.7 24.2 7.8 24.2 7.9 C 24.2 7.9 24.1 8 24.1 8 C 24 8 24 8.1 23.9 8.1 C 23.8 8.1 23.8 8.1 23.7 8.1 C 23.7 8.1 23.6 8.1 23.6 8.1 C 23.3 8.1 23.1 8.2 23.1 8.2 C 23.1 8.2 23.1 8.2 23.1 8.2 C 23.1 8.2 23 8.2 23 8.2 C 23 8.2 23 8.3 23 8.4 C 23 8.6 23 8.7 23 8.7 C 23 8.7 23 8.8 23 8.8 C 23.1 8.8 23.2 8.7 23.4 8.7 C 23.6 8.7 23.7 8.7 23.8 8.7 C 23.9 8.6 24 8.6 24 8.6 C 24.2 8.6 24.2 8.7 24.2 8.8 C 24.2 8.8 24.2 8.9 24.2 8.9 C 24.1 8.9 23.9 9 23.8 9 C 23.6 9 23.5 9 23.3 9 C 23.1 9.1 23 9.1 22.8 9.1 C 22.7 9.1 22.7 9.1 22.6 9 C 22.6 9 22.6 8.9 22.6 8.9 C 22.6 8.9 22.6 8.8 22.6 8.8 C 22.6 8.8 22.6 8.8 22.6 8.7 C 22.6 8.6 22.7 8.4 22.7 7.9 C 22.8 7.5 22.8 7.3 22.8 7.2 C 22.8 7.2 22.8 7.2 22.8 7.2 C 22.8 7.2 22.8 7.2 22.8 7.2 C 22.8 7.1 22.7 7.1 22.7 7.1 C 22.7 7.1 22.8 7.1 22.8 7 C 22.8 7 22.8 7 22.8 7 C 22.9 7 22.9 6.9 22.9 6.9 C 23 6.9 23 7 23.1 7 C 23.1 7 23.4 6.9 23.9 6.9 C 24 6.8 24.1 6.8 24.1 6.8 C 24.1 6.8 24.1 6.8 24.1 6.8 C 24.3 6.8 24.4 6.9 24.4 7 C 24.4 7 24.4 7.1 24.3 7.1 C 24.3 7.1 24.3 7.2 24.2 7.2 Z M 26.2 8.5 C 26.1 8.5 26.1 8.5 26.1 8.5 C 26.1 8.5 26 8.6 25.9 8.8 C 25.8 8.9 25.8 9 25.7 9 C 25.7 9 25.7 9 25.7 9 C 25.6 9 25.6 9 25.5 9 C 25.5 8.9 25.5 8.9 25.5 8.9 C 25.5 8.8 25.6 8.6 25.8 8.2 C 26 8 26.1 7.8 26.2 7.6 C 26.4 7.2 26.5 7 26.6 6.9 C 26.6 6.9 26.7 6.8 26.7 6.8 C 26.8 6.8 26.9 6.8 26.9 6.9 C 26.9 6.9 27 6.9 27 7 C 27 7 27 7.1 26.9 7.1 C 27.1 7.6 27.3 8 27.4 8.2 C 27.5 8.5 27.6 8.6 27.7 8.7 C 27.7 8.8 27.8 8.8 27.8 8.8 C 27.8 8.9 27.8 8.9 27.8 8.9 C 27.8 9 27.8 9 27.7 9 C 27.7 9.1 27.6 9.1 27.6 9.1 C 27.5 9.1 27.4 9.1 27.4 9 C 27.3 8.9 27.2 8.8 27.1 8.6 C 27.1 8.5 27 8.4 27 8.4 C 27 8.4 27 8.4 27 8.4 C 27 8.4 26.9 8.4 26.7 8.4 C 26.5 8.4 26.3 8.5 26.2 8.5 C 26.2 8.5 26.2 8.5 26.2 8.5 C 26.2 8.5 26.2 8.5 26.2 8.5 Z M 26.8 8.1 C 26.8 8.1 26.9 8.1 26.9 8.1 C 26.9 8 26.8 7.8 26.7 7.4 C 26.7 7.4 26.7 7.4 26.7 7.4 C 26.7 7.4 26.3 8.2 26.3 8.2 C 26.3 8.2 26.4 8.1 26.5 8.1 C 26.5 8.1 26.6 8.1 26.8 8.1 C 26.8 8.1 26.8 8.1 26.8 8.1 Z M 30.4 8.6 C 30.5 8.5 30.6 8.5 30.6 8.5 C 30.7 8.5 30.7 8.5 30.7 8.6 C 30.7 8.7 30.6 8.8 30.4 8.9 C 30.2 9 30 9.1 29.8 9.1 C 29.6 9.1 29.4 9 29.3 8.9 C 29.1 8.8 29 8.6 29 8.4 C 29 8.2 29.1 7.9 29.3 7.7 C 29.4 7.4 29.6 7.2 29.9 7 C 30.1 6.8 30.3 6.7 30.5 6.7 C 30.7 6.7 30.8 6.8 30.8 6.8 C 30.9 6.9 31 7 31 7.1 C 31 7.2 31 7.3 30.9 7.4 C 30.9 7.4 30.9 7.5 30.8 7.5 C 30.8 7.5 30.7 7.5 30.7 7.5 C 30.6 7.5 30.6 7.5 30.6 7.5 C 30.6 7.5 30.5 7.4 30.5 7.4 C 30.5 7.4 30.6 7.3 30.6 7.3 C 30.6 7.2 30.6 7.2 30.6 7.1 C 30.6 7 30.6 7 30.5 7 C 30.4 7 30.2 7.1 30 7.2 C 29.9 7.4 29.7 7.6 29.6 7.8 C 29.5 8 29.4 8.2 29.4 8.4 C 29.4 8.5 29.4 8.6 29.5 8.7 C 29.6 8.8 29.7 8.8 29.8 8.8 C 29.9 8.8 30 8.8 30.1 8.7 C 30.2 8.7 30.3 8.6 30.4 8.6 C 30.4 8.6 30.4 8.6 30.4 8.6 Z M 31.7 9.1 C 31.5 9.1 31.4 9 31.3 8.8 C 31.1 8.7 31.1 8.5 31.1 8.3 C 31.1 8.1 31.1 7.9 31.3 7.7 C 31.4 7.4 31.5 7.2 31.7 7.1 C 31.9 6.9 32.1 6.8 32.3 6.8 C 32.5 6.8 32.6 6.9 32.7 6.9 C 32.8 6.9 32.9 7 33 7.1 C 33.1 7.1 33.2 7.2 33.2 7.3 C 33.2 7.4 33.3 7.5 33.3 7.6 C 33.3 7.8 33.2 7.9 33.1 8.1 C 33.1 8.3 32.9 8.4 32.8 8.6 C 32.6 8.7 32.5 8.9 32.3 8.9 C 32.2 9 32 9.1 31.7 9.1 Z M 31.4 8.3 C 31.4 8.5 31.5 8.6 31.5 8.6 C 31.6 8.7 31.7 8.8 31.8 8.8 C 32.1 8.8 32.3 8.6 32.5 8.4 C 32.8 8.1 32.9 7.9 32.9 7.6 C 32.9 7.5 32.9 7.4 32.8 7.3 C 32.8 7.3 32.7 7.2 32.6 7.2 C 32.5 7.1 32.4 7.1 32.3 7.1 C 32.1 7.1 31.9 7.3 31.7 7.5 C 31.5 7.8 31.4 8.1 31.4 8.3 Z M 33.7 7.2 C 33.7 7.2 33.66 7.18 33.7 7.2 C 33.6 7.1 33.6 7.1 33.6 7.1 C 33.6 7 33.6 7 33.7 6.9 C 33.7 6.9 33.8 6.9 33.8 6.9 C 33.8 6.9 33.9 6.9 33.9 6.9 C 33.9 6.9 33.9 6.9 33.9 6.9 C 34.2 6.9 34.4 6.8 34.5 6.8 C 34.8 6.8 34.9 6.9 35.1 7 C 35.2 7.1 35.2 7.2 35.2 7.4 C 35.2 7.5 35.2 7.7 35.1 7.8 C 34.9 7.9 34.8 8 34.6 8.1 C 34.9 8.4 35.2 8.6 35.3 8.7 C 35.4 8.7 35.4 8.8 35.4 8.8 C 35.4 8.9 35.4 8.9 35.4 8.9 C 35.3 9 35.3 9 35.2 9 C 35.2 9 35.1 9 35.1 8.9 C 35 8.9 34.9 8.8 34.7 8.7 C 34.6 8.6 34.5 8.5 34.5 8.5 C 34.3 8.4 34.2 8.3 34.1 8.2 C 34 8.2 34 8.2 34 8.1 C 34 8 34 8 34 7.9 C 34.1 7.9 34.1 7.9 34.2 7.9 C 34.2 7.9 34.2 7.9 34.2 7.9 C 34.3 7.9 34.3 7.9 34.3 7.9 C 34.3 7.9 34.5 7.8 34.6 7.7 C 34.8 7.6 34.9 7.5 34.9 7.4 C 34.9 7.3 34.8 7.2 34.8 7.2 C 34.7 7.1 34.6 7.1 34.5 7.1 C 34.4 7.1 34.3 7.1 34.2 7.1 C 34.1 7.2 34.1 7.2 34.1 7.2 C 34.1 7.2 34 7.2 34 7.2 C 34 7.3 34 7.4 34 7.5 C 33.9 7.7 33.9 7.9 33.9 8.1 C 33.9 8.3 33.8 8.5 33.8 8.6 C 33.8 8.6 33.8 8.7 33.9 8.7 C 33.9 8.8 33.9 8.8 33.9 8.9 C 33.9 8.9 33.8 8.9 33.8 9 C 33.8 9 33.7 9 33.7 9 C 33.5 9 33.5 9 33.5 8.8 C 33.5 8.6 33.5 8.4 33.5 8.1 C 33.6 7.9 33.6 7.6 33.6 7.4 C 33.6 7.4 33.6 7.3 33.7 7.3 C 33.65 7.32 33.7 7.2 33.7 7.2 Z M 35.8 7.2 C 35.8 7.2 35.78 7.18 35.8 7.2 C 35.7 7.1 35.7 7.1 35.7 7.1 C 35.7 7 35.8 7 35.8 6.9 C 35.9 6.9 35.9 6.9 35.9 6.9 C 36 6.9 36 6.9 36 6.9 C 36 6.9 36 6.9 36 6.9 C 36.3 6.9 36.5 6.8 36.7 6.8 C 36.9 6.8 37 6.9 37.2 7 C 37.3 7.1 37.4 7.2 37.4 7.4 C 37.4 7.5 37.3 7.7 37.2 7.8 C 37.1 7.9 36.9 8 36.7 8.1 C 37 8.4 37.3 8.6 37.5 8.7 C 37.5 8.7 37.6 8.8 37.6 8.8 C 37.6 8.9 37.5 8.9 37.5 8.9 C 37.5 9 37.4 9 37.4 9 C 37.3 9 37.2 9 37.2 8.9 C 37.1 8.9 37 8.8 36.9 8.7 C 36.7 8.6 36.7 8.5 36.6 8.5 C 36.5 8.4 36.3 8.3 36.2 8.2 C 36.1 8.2 36.1 8.2 36.1 8.1 C 36.1 8 36.1 8 36.2 7.9 C 36.2 7.9 36.3 7.9 36.3 7.9 C 36.3 7.9 36.3 7.9 36.4 7.9 C 36.4 7.9 36.4 7.9 36.4 7.9 C 36.5 7.9 36.6 7.8 36.8 7.7 C 36.9 7.6 37 7.5 37 7.4 C 37 7.3 37 7.2 36.9 7.2 C 36.8 7.1 36.7 7.1 36.6 7.1 C 36.5 7.1 36.4 7.1 36.3 7.1 C 36.2 7.2 36.2 7.2 36.2 7.2 C 36.2 7.2 36.2 7.2 36.2 7.2 C 36.1 7.3 36.1 7.4 36.1 7.5 C 36.1 7.7 36 7.9 36 8.1 C 36 8.3 36 8.5 36 8.6 C 36 8.6 36 8.7 36 8.7 C 36 8.8 36 8.8 36 8.9 C 36 8.9 36 8.9 35.9 9 C 35.9 9 35.8 9 35.8 9 C 35.7 9 35.6 9 35.6 8.8 C 35.6 8.6 35.6 8.4 35.6 8.1 C 35.7 7.9 35.7 7.6 35.8 7.4 C 35.8 7.4 35.8 7.3 35.8 7.3 C 35.78 7.32 35.8 7.2 35.8 7.2 Z M 38.6 9.1 C 38.5 9.1 38.3 9 38.2 9 C 38 8.9 37.9 8.8 37.9 8.6 C 37.8 8.5 37.8 8.3 37.8 8.1 C 37.8 8 37.8 7.9 37.8 7.8 C 37.8 7.8 37.8 7.5 37.8 7.5 C 37.8 7.4 37.9 7.4 37.9 7.4 C 37.9 7.3 37.9 7.2 37.9 7.2 C 37.9 7.1 37.9 7 38 6.9 C 38 6.9 38.1 6.8 38.1 6.8 C 38.2 6.8 38.2 6.9 38.2 6.9 C 38.3 7 38.3 7 38.3 7.1 C 38.3 7.1 38.3 7.2 38.2 7.4 C 38.2 7.4 38.2 7.5 38.2 7.7 C 38.1 7.9 38.1 8.1 38.1 8.1 C 38.1 8.4 38.2 8.5 38.3 8.6 C 38.4 8.7 38.5 8.8 38.6 8.8 C 38.8 8.8 39 8.7 39.1 8.6 C 39.2 8.5 39.2 8.3 39.2 8.1 C 39.3 8 39.3 8 39.3 7.9 C 39.3 7.8 39.3 7.8 39.3 7.7 C 39.3 7.3 39.3 7.1 39.4 7 C 39.4 6.9 39.5 6.9 39.6 6.9 C 39.7 6.9 39.7 7 39.7 7.1 C 39.7 7.2 39.7 7.3 39.7 7.5 C 39.7 7.6 39.6 7.8 39.6 7.9 C 39.6 8.2 39.6 8.4 39.5 8.5 C 39.4 8.7 39.3 8.8 39.2 8.9 C 39 9 38.8 9.1 38.6 9.1 Z M 40.7 8.3 C 40.5 8.3 40.5 8.3 40.4 8.3 C 40.4 8.5 40.4 8.7 40.4 8.9 C 40.4 8.9 40.4 9 40.4 9 C 40.3 9 40.3 9.1 40.2 9.1 C 40.1 9.1 40 9 40 8.9 C 40 8.8 40.1 8.5 40.1 8.1 C 40.2 7.7 40.2 7.5 40.2 7.4 C 40.2 7.3 40.2 7.3 40.2 7.3 C 40.1 7.3 40.1 7.2 40.1 7.1 C 40.1 7 40.2 7 40.5 6.9 C 40.8 6.8 41 6.8 41.2 6.8 C 41.4 6.8 41.6 6.9 41.7 6.9 C 41.8 7 41.9 7.2 41.9 7.3 C 41.9 7.5 41.8 7.7 41.5 7.9 C 41.3 8.1 41 8.2 40.7 8.3 C 40.7 8.3 40.7 8.3 40.7 8.3 Z M 41.2 7.1 C 41 7.1 40.8 7.1 40.6 7.2 C 40.6 7.2 40.5 8 40.5 8 C 40.8 7.9 41 7.9 41.2 7.7 C 41.4 7.6 41.5 7.5 41.5 7.3 C 41.5 7.2 41.4 7.1 41.2 7.1 C 41.2 7.1 41.2 7.1 41.2 7.1 Z M 42.6 9.1 C 42.6 9.1 42.6 9.1 42.5 9.1 C 42.5 9.2 42.5 9.2 42.5 9.2 C 42.6 9.2 42.6 9.2 42.7 9.2 C 42.8 9.2 42.8 9.2 42.8 9.3 C 42.9 9.3 42.9 9.4 42.9 9.5 C 42.9 9.6 42.9 9.7 42.8 9.7 C 42.6 9.8 42.5 9.9 42.4 9.9 C 42.3 9.9 42.3 9.9 42.2 9.8 C 42.2 9.8 42.1 9.8 42.1 9.8 C 42 9.8 42 9.7 42 9.7 C 42 9.6 42 9.6 42 9.6 C 42.1 9.5 42.1 9.5 42.1 9.5 C 42.2 9.5 42.3 9.6 42.3 9.6 C 42.3 9.6 42.3 9.6 42.3 9.6 C 42.4 9.6 42.4 9.6 42.4 9.6 C 42.5 9.6 42.5 9.6 42.6 9.6 C 42.6 9.6 42.6 9.5 42.6 9.5 C 42.6 9.5 42.6 9.4 42.6 9.4 C 42.5 9.4 42.5 9.4 42.5 9.4 C 42.4 9.4 42.4 9.4 42.4 9.4 C 42.3 9.4 42.2 9.4 42.2 9.3 C 42.2 9.2 42.3 9.2 42.3 9.1 C 42.3 9.1 42.3 9.1 42.3 9 C 42.1 8.9 42 8.7 42 8.4 C 42 8 42.1 7.7 42.5 7.3 C 42.8 6.9 43.1 6.7 43.5 6.7 C 43.6 6.7 43.7 6.8 43.8 6.8 C 43.9 6.9 43.9 7 43.9 7.1 C 43.9 7.2 43.9 7.3 43.9 7.4 C 43.8 7.4 43.8 7.5 43.7 7.5 C 43.7 7.5 43.6 7.5 43.6 7.5 C 43.6 7.5 43.5 7.5 43.5 7.5 C 43.5 7.5 43.5 7.4 43.5 7.4 C 43.5 7.4 43.5 7.3 43.5 7.3 C 43.5 7.2 43.5 7.2 43.5 7.1 C 43.5 7 43.5 7 43.5 7 C 43.3 7 43.2 7.1 43 7.2 C 42.8 7.4 42.7 7.6 42.5 7.8 C 42.4 8 42.3 8.2 42.3 8.4 C 42.3 8.5 42.4 8.6 42.4 8.7 C 42.5 8.8 42.6 8.8 42.7 8.8 C 42.8 8.8 42.9 8.8 43 8.7 C 43.1 8.7 43.2 8.6 43.3 8.6 C 43.4 8.5 43.5 8.5 43.5 8.5 C 43.6 8.5 43.6 8.5 43.6 8.6 C 43.6 8.7 43.5 8.8 43.3 8.9 C 43.1 9.1 42.8 9.1 42.6 9.1 Z M 44.5 8.5 C 44.5 8.5 44.4 8.5 44.4 8.5 C 44.4 8.5 44.3 8.6 44.3 8.8 C 44.2 8.9 44.1 9 44.1 9 C 44.1 9 44 9 44 9 C 44 9 43.9 9 43.9 9 C 43.8 8.9 43.8 8.9 43.8 8.9 C 43.8 8.8 43.9 8.6 44.2 8.2 C 44.3 8 44.4 7.8 44.5 7.6 C 44.8 7.2 44.9 7 44.9 6.9 C 45 6.9 45 6.8 45.1 6.8 C 45.2 6.8 45.2 6.8 45.3 6.9 C 45.3 6.9 45.3 6.9 45.3 7 C 45.3 7 45.3 7.1 45.3 7.1 C 45.5 7.6 45.6 8 45.7 8.2 C 45.8 8.5 45.9 8.6 46 8.7 C 46.1 8.8 46.1 8.8 46.1 8.8 C 46.1 8.9 46.1 8.9 46.1 8.9 C 46.1 9 46.1 9 46.1 9 C 46 9.1 46 9.1 45.9 9.1 C 45.8 9.1 45.8 9.1 45.7 9 C 45.6 8.9 45.5 8.8 45.5 8.6 C 45.4 8.5 45.4 8.4 45.4 8.4 C 45.4 8.4 45.4 8.4 45.4 8.4 C 45.3 8.4 45.2 8.4 45 8.4 C 44.8 8.4 44.7 8.5 44.6 8.5 C 44.6 8.5 44.5 8.5 44.5 8.5 C 44.5 8.5 44.5 8.5 44.5 8.5 Z M 45.1 8.1 C 45.2 8.1 45.2 8.1 45.3 8.1 C 45.2 8 45.2 7.8 45.1 7.4 C 45 7.4 45 7.4 45 7.4 C 45 7.4 44.6 8.2 44.6 8.2 C 44.7 8.2 44.7 8.1 44.8 8.1 C 44.8 8.1 45 8.1 45.1 8.1 C 45.1 8.1 45.1 8.1 45.1 8.1 Z M 45.5 6.5 C 45.4 6.5 45.3 6.5 45.3 6.5 C 45.2 6.5 45.2 6.4 45.2 6.4 C 45.2 6.4 45.1 6.4 45.1 6.4 C 45.1 6.4 45.1 6.4 45.1 6.3 C 45 6.3 45 6.3 45 6.3 C 44.9 6.3 44.9 6.3 44.8 6.4 C 44.8 6.4 44.8 6.4 44.8 6.4 C 44.7 6.5 44.7 6.5 44.7 6.5 C 44.6 6.5 44.6 6.6 44.6 6.6 C 44.5 6.6 44.5 6.5 44.5 6.4 C 44.5 6.4 44.5 6.3 44.6 6.1 C 44.7 6 44.8 6 44.9 6 C 45 6 45.1 6 45.1 6 C 45.1 6 45.2 6.1 45.2 6.1 C 45.3 6.2 45.3 6.2 45.4 6.2 C 45.4 6.3 45.4 6.3 45.4 6.3 C 45.5 6.3 45.5 6.2 45.6 6.2 C 45.6 6.1 45.6 6.1 45.6 6.1 C 45.6 6.1 45.6 6.1 45.6 6.1 C 45.7 6 45.7 6 45.7 6 C 45.8 6 45.8 6.1 45.8 6.1 C 45.8 6.2 45.8 6.3 45.7 6.4 C 45.6 6.5 45.6 6.5 45.5 6.5 C 45.5 6.5 45.5 6.5 45.5 6.5 Z M 46.8 9.1 C 46.7 9.1 46.5 9 46.4 8.8 C 46.3 8.7 46.2 8.5 46.2 8.3 C 46.2 8.1 46.3 7.9 46.4 7.7 C 46.5 7.4 46.7 7.2 46.9 7.1 C 47.1 6.9 47.3 6.8 47.5 6.8 C 47.6 6.8 47.8 6.9 47.9 6.9 C 48 6.9 48.1 7 48.2 7.1 C 48.3 7.1 48.3 7.2 48.3 7.3 C 48.4 7.4 48.4 7.5 48.4 7.6 C 48.4 7.8 48.4 7.9 48.3 8.1 C 48.2 8.3 48.1 8.4 47.9 8.6 C 47.8 8.7 47.6 8.9 47.5 8.9 C 47.3 9 47.1 9.1 46.8 9.1 Z M 46.6 8.3 C 46.6 8.5 46.6 8.6 46.7 8.6 C 46.8 8.7 46.8 8.8 46.9 8.8 C 47.2 8.8 47.4 8.6 47.7 8.4 C 47.9 8.1 48 7.9 48 7.6 C 48 7.5 48 7.4 48 7.3 C 47.9 7.3 47.9 7.2 47.8 7.2 C 47.7 7.1 47.6 7.1 47.5 7.1 C 47.3 7.1 47.1 7.3 46.9 7.5 C 46.7 7.8 46.6 8.1 46.6 8.3 Z M 51.4 7.2 C 51.4 7.2 51 7.2 51 7.2 C 50.8 7.2 50.7 7.2 50.6 7.2 C 50.5 7.2 50.4 7.3 50.4 7.3 C 50.4 7.3 50.4 7.3 50.4 7.4 C 50.4 7.4 50.3 7.5 50.3 7.6 C 50.3 7.7 50.3 7.8 50.3 7.8 C 50.3 7.8 50.4 7.8 50.5 7.8 C 50.7 7.8 50.7 7.8 50.8 7.8 C 50.9 7.8 51 7.7 51.1 7.7 C 51.3 7.7 51.3 7.8 51.3 7.9 C 51.3 7.9 51.3 8 51.3 8 C 51.2 8 51.2 8.1 51.1 8.1 C 51 8.1 51 8.1 50.9 8.1 C 50.8 8.1 50.8 8.1 50.7 8.1 C 50.5 8.1 50.3 8.2 50.3 8.2 C 50.3 8.2 50.3 8.2 50.3 8.2 C 50.2 8.2 50.2 8.2 50.2 8.2 C 50.2 8.2 50.2 8.3 50.2 8.4 C 50.2 8.6 50.1 8.7 50.1 8.7 C 50.2 8.7 50.2 8.8 50.2 8.8 C 50.3 8.8 50.4 8.7 50.6 8.7 C 50.8 8.7 50.9 8.7 51 8.7 C 51.1 8.6 51.2 8.6 51.2 8.6 C 51.3 8.6 51.4 8.7 51.4 8.8 C 51.4 8.8 51.4 8.9 51.4 8.9 C 51.3 8.9 51.1 9 51 9 C 50.8 9 50.7 9 50.5 9 C 50.3 9.1 50.1 9.1 50 9.1 C 49.9 9.1 49.9 9.1 49.8 9 C 49.8 9 49.8 8.9 49.8 8.9 C 49.8 8.9 49.8 8.8 49.8 8.8 C 49.8 8.8 49.8 8.8 49.8 8.7 C 49.8 8.6 49.9 8.4 49.9 7.9 C 50 7.5 50 7.3 50 7.2 C 50 7.2 50 7.2 50 7.2 C 50 7.2 50 7.2 50 7.2 C 49.9 7.1 49.9 7.1 49.9 7.1 C 49.9 7.1 49.9 7.1 49.9 7 C 49.9 7 50 7 50 7 C 50 7 50.1 6.9 50.1 6.9 C 50.2 6.9 50.2 7 50.3 7 C 50.3 7 50.6 6.9 51 6.9 C 51.2 6.8 51.3 6.8 51.3 6.8 C 51.3 6.8 51.3 6.8 51.3 6.8 C 51.5 6.8 51.6 6.9 51.6 7 C 51.6 7 51.5 7.1 51.5 7.1 C 51.5 7.1 51.5 7.2 51.4 7.2 Z M 53.4 8.5 C 53.3 8.5 53.3 8.5 53.3 8.5 C 53.2 8.5 53.2 8.6 53.1 8.8 C 53 8.9 53 9 52.9 9 C 52.9 9 52.9 9 52.8 9 C 52.8 9 52.8 9 52.7 9 C 52.7 8.9 52.6 8.9 52.6 8.9 C 52.6 8.8 52.8 8.6 53 8.2 C 53.1 8 53.3 7.8 53.4 7.6 C 53.6 7.2 53.7 7 53.8 6.9 C 53.8 6.9 53.9 6.8 53.9 6.8 C 54 6.8 54.1 6.8 54.1 6.9 C 54.1 6.9 54.1 6.9 54.1 7 C 54.1 7 54.1 7.1 54.1 7.1 C 54.3 7.6 54.5 8 54.6 8.2 C 54.7 8.5 54.8 8.6 54.9 8.7 C 54.9 8.8 54.9 8.8 55 8.8 C 55 8.9 55 8.9 55 8.9 C 55 9 54.9 9 54.9 9 C 54.9 9.1 54.8 9.1 54.8 9.1 C 54.7 9.1 54.6 9.1 54.5 9 C 54.5 8.9 54.4 8.8 54.3 8.6 C 54.3 8.5 54.2 8.4 54.2 8.4 C 54.2 8.4 54.2 8.4 54.2 8.4 C 54.2 8.4 54 8.4 53.9 8.4 C 53.7 8.4 53.5 8.5 53.4 8.5 C 53.4 8.5 53.4 8.5 53.4 8.5 C 53.4 8.5 53.4 8.5 53.4 8.5 Z M 54 8.1 C 54 8.1 54.1 8.1 54.1 8.1 C 54.1 8 54 7.8 53.9 7.4 C 53.9 7.4 53.9 7.4 53.9 7.4 C 53.9 7.4 53.5 8.2 53.5 8.2 C 53.5 8.2 53.6 8.1 53.7 8.1 C 53.7 8.1 53.8 8.1 54 8.1 C 54 8.1 54 8.1 54 8.1 Z " stroke="none" fill="#000"/>  </g>  <g id="Polygon15231">    <path d="M 3.6 3.2 C 3.6 3.2 3.1 3.2 3.1 3.2 C 3 3.2 2.8 3.2 2.7 3.2 C 2.6 3.2 2.5 3.3 2.5 3.3 C 2.5 3.3 2.5 3.3 2.5 3.4 C 2.5 3.4 2.5 3.5 2.5 3.6 C 2.4 3.7 2.4 3.8 2.4 3.8 C 2.5 3.8 2.6 3.8 2.7 3.8 C 2.8 3.8 2.9 3.8 2.9 3.8 C 3.1 3.8 3.2 3.7 3.3 3.7 C 3.4 3.7 3.5 3.8 3.5 3.9 C 3.5 3.9 3.5 4 3.4 4 C 3.4 4 3.3 4.1 3.2 4.1 C 3.2 4.1 3.1 4.1 3 4.1 C 3 4.1 2.9 4.1 2.9 4.1 C 2.6 4.1 2.5 4.2 2.4 4.2 C 2.4 4.2 2.4 4.2 2.4 4.2 C 2.4 4.2 2.4 4.2 2.4 4.2 C 2.4 4.2 2.3 4.3 2.3 4.4 C 2.3 4.6 2.3 4.7 2.3 4.7 C 2.3 4.7 2.3 4.8 2.4 4.8 C 2.4 4.8 2.5 4.7 2.7 4.7 C 2.9 4.7 3.1 4.7 3.1 4.7 C 3.2 4.6 3.3 4.6 3.4 4.6 C 3.5 4.6 3.5 4.7 3.5 4.8 C 3.5 4.8 3.5 4.9 3.5 4.9 C 3.4 4.9 3.3 5 3.1 5 C 3 5 2.8 5 2.6 5 C 2.4 5.1 2.3 5.1 2.1 5.1 C 2.1 5.1 2 5.1 2 5 C 1.9 5 1.9 4.9 1.9 4.9 C 1.9 4.9 1.9 4.8 1.9 4.8 C 1.9 4.8 1.9 4.8 1.9 4.7 C 2 4.6 2 4.4 2.1 3.9 C 2.1 3.5 2.1 3.3 2.1 3.2 C 2.1 3.2 2.1 3.2 2.1 3.2 C 2.1 3.2 2.1 3.2 2.1 3.2 C 2.1 3.1 2.1 3.1 2.1 3.1 C 2.1 3.1 2.1 3.1 2.1 3 C 2.1 3 2.1 3 2.1 3 C 2.2 3 2.2 2.9 2.3 2.9 C 2.3 2.9 2.3 3 2.4 3 C 2.5 3 2.7 2.9 3.2 2.9 C 3.3 2.8 3.4 2.8 3.4 2.8 C 3.4 2.8 3.4 2.8 3.4 2.8 C 3.6 2.8 3.7 2.9 3.7 3 C 3.7 3 3.7 3.1 3.7 3.1 C 3.6 3.1 3.6 3.2 3.6 3.2 Z M 3.9 4.5 C 3.9 4.5 4.04 4 4 4 C 4.1 3.6 4.2 3.3 4.2 3.2 C 4.2 3.1 4.2 3.1 4.2 3 C 4.2 3 4.2 3 4.3 3 C 4.3 2.9 4.3 2.9 4.4 2.9 C 4.4 2.9 4.4 2.9 4.5 2.9 C 4.5 3 4.6 3 4.6 3.1 C 4.6 3.3 4.7 3.5 4.9 3.8 C 5.1 4.1 5.2 4.3 5.4 4.5 C 5.4 4.3 5.4 4.1 5.5 3.8 C 5.5 3.6 5.5 3.5 5.6 3.3 C 5.6 3.2 5.6 3.1 5.6 3 C 5.6 2.9 5.6 2.9 5.7 2.8 C 5.7 2.8 5.8 2.8 5.8 2.8 C 5.9 2.8 5.9 2.8 5.9 2.9 C 6 2.9 6 3 6 3 C 6 3.1 6 3.2 5.9 3.3 C 5.9 3.5 5.8 3.8 5.8 4.1 C 5.7 4.5 5.7 4.7 5.7 4.7 C 5.7 4.7 5.7 4.8 5.7 4.8 C 5.7 4.8 5.7 4.9 5.7 4.9 C 5.6 4.9 5.6 5 5.6 5 C 5.5 5 5.5 5 5.4 5 C 5.4 5 5.4 5 5.4 5 C 5.3 5 5.3 5 5.3 4.9 C 5.3 4.9 5.2 4.9 5.2 4.8 C 5.2 4.7 5.1 4.7 5.1 4.6 C 4.9 4.4 4.6 4 4.4 3.6 C 4.4 3.7 4.4 4 4.3 4.5 C 4.3 4.5 4.3 4.6 4.3 4.6 C 4.3 4.6 4.3 4.7 4.3 4.8 C 4.2 4.9 4.2 5 4.2 5 C 4.1 5.1 4.1 5.1 4.1 5.1 C 4 5.1 3.9 5.1 3.9 5 C 3.9 5 3.9 4.9 3.9 4.8 C 3.9 4.8 3.9 4.6 3.9 4.5 C 3.93 4.5 3.9 4.5 3.9 4.5 Z M 7.9 3.2 C 7.6 3.2 7.5 3.2 7.4 3.2 C 7.3 3.2 7.3 3.3 7.3 3.3 C 7.3 3.3 7.3 3.5 7.3 3.8 C 7.2 4.1 7.2 4.3 7.2 4.5 C 7.2 4.6 7.2 4.7 7.3 4.8 C 7.3 4.8 7.3 4.8 7.3 4.8 C 7.3 4.9 7.2 4.9 7.2 5 C 7.2 5 7.1 5 7.1 5 C 7.1 5 7 5 7 5 C 6.9 4.9 6.9 4.9 6.9 4.8 C 6.9 4.7 6.9 4.6 6.9 4.5 C 6.9 4.4 6.9 4.1 6.9 3.8 C 7 3.4 7 3.3 7 3.3 C 7 3.3 6.9 3.3 6.7 3.3 C 6.5 3.3 6.4 3.3 6.3 3.3 C 6.2 3.3 6.2 3.3 6.1 3.3 C 6.1 3.2 6.1 3.2 6.1 3.2 C 6.1 3.1 6.1 3.1 6.1 3 C 6.2 3 6.3 3 6.4 3 C 6.7 3 7 3 7.3 2.9 C 7.6 2.9 7.8 2.9 8 2.9 C 8.1 2.9 8.2 2.9 8.3 2.9 C 8.3 3 8.3 3 8.3 3.1 C 8.3 3.2 8.3 3.2 8.2 3.2 C 8.2 3.2 8.1 3.2 8.1 3.2 C 8 3.2 8 3.2 7.9 3.2 C 7.9 3.2 7.9 3.2 7.9 3.2 Z M 8.5 4.5 C 8.5 4.5 8.5 4.5 8.5 4.5 C 8.4 4.5 8.4 4.6 8.3 4.8 C 8.2 4.9 8.2 5 8.1 5 C 8.1 5 8.1 5 8 5 C 8 5 8 5 7.9 5 C 7.9 4.9 7.8 4.9 7.8 4.9 C 7.8 4.8 8 4.6 8.2 4.2 C 8.3 4 8.5 3.8 8.6 3.6 C 8.8 3.2 8.9 3 9 2.9 C 9 2.9 9.1 2.8 9.1 2.8 C 9.2 2.8 9.3 2.8 9.3 2.9 C 9.3 2.9 9.3 2.9 9.3 3 C 9.3 3 9.3 3.1 9.3 3.1 C 9.5 3.6 9.6 4 9.7 4.2 C 9.8 4.5 10 4.6 10.1 4.7 C 10.1 4.8 10.1 4.8 10.1 4.8 C 10.2 4.9 10.2 4.9 10.2 4.9 C 10.2 5 10.1 5 10.1 5 C 10.1 5.1 10 5.1 10 5.1 C 9.9 5.1 9.8 5.1 9.7 5 C 9.7 4.9 9.6 4.8 9.5 4.6 C 9.5 4.5 9.4 4.4 9.4 4.4 C 9.4 4.4 9.4 4.4 9.4 4.4 C 9.4 4.4 9.2 4.4 9.1 4.4 C 8.9 4.4 8.7 4.5 8.6 4.5 C 8.6 4.5 8.6 4.5 8.5 4.5 C 8.5 4.5 8.5 4.5 8.5 4.5 Z M 9.2 4.1 C 9.2 4.1 9.3 4.1 9.3 4.1 C 9.3 4 9.2 3.8 9.1 3.4 C 9.1 3.4 9.1 3.4 9.1 3.4 C 9.1 3.4 8.7 4.2 8.7 4.2 C 8.7 4.2 8.8 4.1 8.8 4.1 C 8.9 4.1 9 4.1 9.2 4.1 C 9.2 4.1 9.2 4.1 9.2 4.1 Z M 9.5 2.5 C 9.4 2.5 9.4 2.5 9.3 2.5 C 9.3 2.5 9.2 2.4 9.2 2.4 C 9.2 2.4 9.2 2.4 9.2 2.4 C 9.2 2.4 9.1 2.4 9.1 2.3 C 9.1 2.3 9 2.3 9 2.3 C 9 2.3 8.9 2.3 8.8 2.4 C 8.8 2.4 8.8 2.4 8.8 2.4 C 8.8 2.5 8.7 2.5 8.7 2.5 C 8.7 2.5 8.6 2.6 8.6 2.6 C 8.5 2.6 8.5 2.5 8.5 2.4 C 8.5 2.4 8.6 2.3 8.7 2.1 C 8.8 2 8.9 2 9 2 C 9 2 9.1 2 9.1 2 C 9.2 2 9.2 2.1 9.2 2.1 C 9.3 2.2 9.4 2.2 9.4 2.2 C 9.5 2.3 9.5 2.3 9.5 2.3 C 9.5 2.3 9.6 2.2 9.6 2.2 C 9.6 2.1 9.6 2.1 9.7 2.1 C 9.7 2.1 9.7 2.1 9.7 2.1 C 9.7 2 9.7 2 9.8 2 C 9.8 2 9.9 2.1 9.9 2.1 C 9.9 2.2 9.8 2.3 9.8 2.4 C 9.7 2.5 9.6 2.5 9.5 2.5 C 9.5 2.5 9.5 2.5 9.5 2.5 Z M 10.9 5.1 C 10.7 5.1 10.6 5 10.4 4.8 C 10.3 4.7 10.3 4.5 10.3 4.3 C 10.3 4.1 10.3 3.9 10.4 3.7 C 10.6 3.4 10.7 3.2 10.9 3.1 C 11.1 2.9 11.3 2.8 11.5 2.8 C 11.7 2.8 11.8 2.9 11.9 2.9 C 12 2.9 12.1 3 12.2 3.1 C 12.3 3.1 12.4 3.2 12.4 3.3 C 12.4 3.4 12.4 3.5 12.4 3.6 C 12.4 3.8 12.4 3.9 12.3 4.1 C 12.2 4.3 12.1 4.4 12 4.6 C 11.8 4.7 11.7 4.9 11.5 4.9 C 11.3 5 11.1 5.1 10.9 5.1 Z M 10.6 4.3 C 10.6 4.5 10.7 4.6 10.7 4.6 C 10.8 4.7 10.9 4.8 11 4.8 C 11.2 4.8 11.5 4.6 11.7 4.4 C 11.9 4.1 12.1 3.9 12.1 3.6 C 12.1 3.5 12 3.4 12 3.3 C 12 3.3 11.9 3.2 11.8 3.2 C 11.7 3.1 11.6 3.1 11.5 3.1 C 11.3 3.1 11.1 3.3 10.9 3.5 C 10.7 3.8 10.6 4.1 10.6 4.3 Z M 12.4 5.2 C 12.4 5.2 12.5 5.2 12.5 5.2 C 12.5 5.2 12.6 5.1 12.7 5.1 C 12.8 5.1 12.8 5 12.8 4.9 C 12.9 4.9 12.9 4.8 12.9 4.8 C 12.9 4.8 12.9 4.7 12.8 4.7 C 12.8 4.6 12.8 4.6 12.8 4.6 C 12.8 4.6 12.8 4.5 12.8 4.5 C 12.9 4.5 12.9 4.5 12.9 4.5 C 13 4.5 13 4.5 13 4.5 C 13.1 4.5 13.1 4.5 13.1 4.5 C 13.2 4.6 13.2 4.6 13.2 4.7 C 13.2 4.7 13.2 4.8 13.2 4.8 C 13.2 4.8 13.2 4.9 13.1 5 C 13.1 5.1 13.1 5.1 13 5.2 C 12.9 5.2 12.9 5.3 12.8 5.3 C 12.8 5.3 12.8 5.3 12.8 5.3 C 12.7 5.3 12.6 5.3 12.5 5.3 C 12.5 5.3 12.4 5.3 12.4 5.2 C 12.4 5.2 12.4 5.2 12.4 5.2 Z M 15.2 5.1 C 15 5.1 14.8 5 14.7 4.8 C 14.6 4.7 14.5 4.5 14.5 4.3 C 14.5 4.1 14.6 3.9 14.7 3.7 C 14.8 3.4 15 3.2 15.2 3.1 C 15.4 2.9 15.6 2.8 15.8 2.8 C 15.9 2.8 16.1 2.9 16.2 2.9 C 16.3 2.9 16.4 3 16.5 3.1 C 16.6 3.1 16.6 3.2 16.7 3.3 C 16.7 3.4 16.7 3.5 16.7 3.6 C 16.7 3.8 16.7 3.9 16.6 4.1 C 16.5 4.3 16.4 4.4 16.2 4.6 C 16.1 4.7 15.9 4.9 15.8 4.9 C 15.6 5 15.4 5.1 15.2 5.1 Z M 14.9 4.3 C 14.9 4.5 14.9 4.6 15 4.6 C 15.1 4.7 15.2 4.8 15.2 4.8 C 15.5 4.8 15.8 4.6 16 4.4 C 16.2 4.1 16.3 3.9 16.3 3.6 C 16.3 3.5 16.3 3.4 16.3 3.3 C 16.2 3.3 16.2 3.2 16.1 3.2 C 16 3.1 15.9 3.1 15.8 3.1 C 15.6 3.1 15.4 3.3 15.2 3.5 C 15 3.8 14.9 4.1 14.9 4.3 Z M 18.5 4.5 C 18.5 4.5 18.5 4.5 18.5 4.5 C 18.4 4.5 18.4 4.6 18.3 4.8 C 18.2 4.9 18.2 5 18.1 5 C 18.1 5 18.1 5 18 5 C 18 5 18 5 17.9 5 C 17.9 4.9 17.8 4.9 17.8 4.9 C 17.8 4.8 18 4.6 18.2 4.2 C 18.3 4 18.5 3.8 18.6 3.6 C 18.8 3.2 18.9 3 19 2.9 C 19 2.9 19.1 2.8 19.1 2.8 C 19.2 2.8 19.3 2.8 19.3 2.9 C 19.3 2.9 19.3 2.9 19.3 3 C 19.3 3 19.3 3.1 19.3 3.1 C 19.5 3.6 19.6 4 19.7 4.2 C 19.8 4.5 19.9 4.6 20 4.7 C 20.1 4.8 20.1 4.8 20.1 4.8 C 20.1 4.9 20.2 4.9 20.2 4.9 C 20.2 5 20.1 5 20.1 5 C 20.1 5.1 20 5.1 20 5.1 C 19.9 5.1 19.8 5.1 19.7 5 C 19.7 4.9 19.6 4.8 19.5 4.6 C 19.4 4.5 19.4 4.4 19.4 4.4 C 19.4 4.4 19.4 4.4 19.4 4.4 C 19.4 4.4 19.2 4.4 19.1 4.4 C 18.9 4.4 18.7 4.5 18.6 4.5 C 18.6 4.5 18.6 4.5 18.5 4.5 C 18.5 4.5 18.5 4.5 18.5 4.5 Z M 19.2 4.1 C 19.2 4.1 19.3 4.1 19.3 4.1 C 19.3 4 19.2 3.8 19.1 3.4 C 19.1 3.4 19.1 3.4 19.1 3.4 C 19.1 3.4 18.6 4.2 18.6 4.2 C 18.7 4.2 18.8 4.1 18.8 4.1 C 18.9 4.1 19 4.1 19.2 4.1 C 19.2 4.1 19.2 4.1 19.2 4.1 Z M 21.8 3.2 C 21.5 3.2 21.4 3.2 21.3 3.2 C 21.3 3.2 21.3 3.3 21.2 3.3 C 21.2 3.3 21.2 3.5 21.2 3.8 C 21.2 4.1 21.1 4.3 21.1 4.5 C 21.1 4.6 21.1 4.7 21.2 4.8 C 21.2 4.8 21.2 4.8 21.2 4.8 C 21.2 4.9 21.2 4.9 21.1 5 C 21.1 5 21.1 5 21 5 C 21 5 20.9 5 20.9 5 C 20.8 4.9 20.8 4.9 20.8 4.8 C 20.8 4.7 20.8 4.6 20.8 4.5 C 20.8 4.4 20.8 4.1 20.8 3.8 C 20.9 3.4 20.9 3.3 20.9 3.3 C 20.9 3.3 20.8 3.3 20.6 3.3 C 20.4 3.3 20.3 3.3 20.2 3.3 C 20.1 3.3 20.1 3.3 20 3.3 C 20 3.2 20 3.2 20 3.2 C 20 3.1 20 3.1 20 3 C 20.1 3 20.2 3 20.4 3 C 20.6 3 20.9 3 21.2 2.9 C 21.5 2.9 21.7 2.9 21.9 2.9 C 22.1 2.9 22.2 2.9 22.2 2.9 C 22.2 3 22.3 3 22.3 3.1 C 22.3 3.2 22.2 3.2 22.1 3.2 C 22.1 3.2 22.1 3.2 22 3.2 C 21.9 3.2 21.9 3.2 21.8 3.2 C 21.8 3.2 21.8 3.2 21.8 3.2 Z M 22.9 5.1 C 22.8 5.1 22.7 5 22.6 5 C 22.4 4.9 22.3 4.8 22.3 4.6 C 22.2 4.5 22.1 4.3 22.1 4.1 C 22.1 4 22.2 3.9 22.2 3.8 C 22.2 3.8 22.2 3.5 22.2 3.5 C 22.2 3.4 22.2 3.4 22.3 3.4 C 22.3 3.3 22.3 3.2 22.3 3.2 C 22.3 3.1 22.3 3 22.4 2.9 C 22.4 2.9 22.4 2.8 22.5 2.8 C 22.5 2.8 22.6 2.9 22.6 2.9 C 22.7 3 22.7 3 22.7 3.1 C 22.7 3.1 22.7 3.2 22.6 3.4 C 22.6 3.4 22.6 3.5 22.5 3.7 C 22.5 3.9 22.5 4.1 22.5 4.1 C 22.5 4.4 22.6 4.5 22.7 4.6 C 22.8 4.7 22.9 4.8 22.9 4.8 C 23.2 4.8 23.4 4.7 23.5 4.6 C 23.5 4.5 23.6 4.3 23.6 4.1 C 23.6 4 23.6 4 23.7 3.9 C 23.7 3.8 23.7 3.8 23.7 3.7 C 23.7 3.3 23.7 3.1 23.8 3 C 23.8 2.9 23.9 2.9 24 2.9 C 24.1 2.9 24.1 3 24.1 3.1 C 24.1 3.2 24.1 3.3 24.1 3.5 C 24 3.6 24 3.8 24 3.9 C 24 4.2 24 4.4 23.9 4.5 C 23.8 4.7 23.7 4.8 23.6 4.9 C 23.4 5 23.2 5.1 22.9 5.1 Z M 24.8 4.5 C 24.8 4.5 24.7 4.5 24.7 4.5 C 24.7 4.5 24.7 4.6 24.6 4.8 C 24.5 4.9 24.4 5 24.4 5 C 24.4 5 24.3 5 24.3 5 C 24.3 5 24.2 5 24.2 5 C 24.1 4.9 24.1 4.9 24.1 4.9 C 24.1 4.8 24.2 4.6 24.5 4.2 C 24.6 4 24.7 3.8 24.8 3.6 C 25.1 3.2 25.2 3 25.2 2.9 C 25.3 2.9 25.3 2.8 25.4 2.8 C 25.5 2.8 25.5 2.8 25.6 2.9 C 25.6 2.9 25.6 2.9 25.6 3 C 25.6 3 25.6 3.1 25.6 3.1 C 25.8 3.6 25.9 4 26 4.2 C 26.1 4.5 26.2 4.6 26.3 4.7 C 26.4 4.8 26.4 4.8 26.4 4.8 C 26.4 4.9 26.4 4.9 26.4 4.9 C 26.4 5 26.4 5 26.4 5 C 26.3 5.1 26.3 5.1 26.2 5.1 C 26.2 5.1 26.1 5.1 26 5 C 25.9 4.9 25.9 4.8 25.8 4.6 C 25.7 4.5 25.7 4.4 25.7 4.4 C 25.7 4.4 25.7 4.4 25.7 4.4 C 25.6 4.4 25.5 4.4 25.3 4.4 C 25.1 4.4 25 4.5 24.9 4.5 C 24.9 4.5 24.8 4.5 24.8 4.5 C 24.8 4.5 24.8 4.5 24.8 4.5 Z M 25.4 4.1 C 25.5 4.1 25.5 4.1 25.6 4.1 C 25.5 4 25.5 3.8 25.4 3.4 C 25.4 3.4 25.3 3.4 25.3 3.4 C 25.3 3.4 24.9 4.2 24.9 4.2 C 25 4.2 25.1 4.1 25.1 4.1 C 25.2 4.1 25.3 4.1 25.4 4.1 C 25.4 4.1 25.4 4.1 25.4 4.1 Z M 28 4.9 C 28 4.9 28 4.9 27.9 4.9 C 27.8 4.9 27.8 4.9 27.8 4.9 C 27.5 4.9 27.2 4.9 27 5 C 26.9 5 26.8 5.1 26.8 5.1 C 26.7 5.1 26.7 5 26.6 5 C 26.6 4.9 26.6 4.9 26.6 4.9 C 26.6 4.8 26.6 4.8 26.6 4.7 C 26.6 4.6 26.7 4.5 26.7 4.4 C 26.7 4.4 26.8 3.2 26.8 3.2 C 26.8 3.1 26.8 3 26.8 3 C 26.8 2.9 26.9 2.9 26.9 2.9 C 26.9 2.9 27 2.8 27 2.8 C 27.1 2.8 27.1 2.9 27.2 2.9 C 27.2 2.9 27.2 3 27.2 3 C 27.2 3 27.2 3.1 27.2 3.2 C 27.2 3.3 27.1 3.6 27.1 4 C 27 4.4 27 4.6 27 4.6 C 27 4.6 27 4.7 27 4.7 C 27.1 4.7 27.2 4.6 27.3 4.6 C 27.4 4.6 27.5 4.6 27.6 4.6 C 27.8 4.6 28 4.6 28 4.5 C 28.1 4.5 28.1 4.5 28.1 4.5 C 28.2 4.5 28.2 4.5 28.2 4.6 C 28.3 4.6 28.3 4.6 28.3 4.7 C 28.3 4.8 28.3 4.8 28.2 4.8 C 28.1 4.9 28.1 4.9 28 4.9 Z M 31.2 3.1 C 31.2 3.3 31.1 3.4 30.9 3.4 C 30.9 3.3 30.9 3.2 30.8 3.2 C 30.8 3.2 30.7 3.1 30.6 3.1 C 30.5 3.1 30.3 3.2 30.2 3.3 C 30 3.3 30 3.4 30 3.5 C 30 3.6 30 3.6 30 3.7 C 30.1 3.7 30.2 3.8 30.4 3.8 C 30.7 3.9 30.8 4 31 4.1 C 31.1 4.2 31.1 4.2 31.1 4.4 C 31.1 4.5 31 4.7 30.7 4.9 C 30.4 5 30.1 5.1 29.8 5.1 C 29.7 5.1 29.6 5.1 29.6 5.1 C 29.5 5 29.5 5 29.5 4.9 C 29.5 4.8 29.5 4.8 29.5 4.8 C 29.5 4.7 29.6 4.7 29.6 4.7 C 29.6 4.7 29.7 4.7 29.7 4.7 C 29.8 4.8 29.9 4.8 30 4.8 C 30.1 4.8 30.3 4.7 30.5 4.6 C 30.7 4.6 30.8 4.5 30.8 4.4 C 30.8 4.4 30.7 4.3 30.7 4.3 C 30.6 4.3 30.5 4.2 30.4 4.2 C 30.2 4.1 30 4.1 29.9 4 C 29.8 4 29.7 3.9 29.7 3.8 C 29.6 3.8 29.6 3.7 29.6 3.6 C 29.6 3.4 29.7 3.2 29.9 3.1 C 30.1 2.9 30.4 2.8 30.7 2.8 C 30.8 2.8 31 2.9 31.1 2.9 C 31.2 3 31.2 3.1 31.2 3.1 C 31.2 3.1 31.2 3.1 31.2 3.1 Z M 31.9 3.5 C 31.9 3.6 31.9 3.7 31.9 3.7 C 31.9 3.8 31.9 3.8 31.9 4 C 31.8 4.2 31.8 4.3 31.8 4.4 C 31.8 4.5 31.8 4.6 31.8 4.8 C 31.9 4.9 31.8 4.9 31.8 5 C 31.7 5 31.7 5 31.6 5 C 31.6 5 31.5 5 31.5 4.9 C 31.5 4.9 31.5 4.8 31.5 4.6 C 31.5 4.5 31.5 4.3 31.5 4 C 31.5 4 31.6 3.4 31.6 3.4 C 31.6 3.3 31.6 3.2 31.6 3.2 C 31.6 3 31.7 3 31.7 3 C 31.7 2.9 31.7 2.9 31.8 2.9 C 31.8 2.9 31.8 2.8 31.9 2.8 C 31.9 2.8 32 2.9 32 2.9 C 32 3 32 3 32 3.1 C 32 3.1 31.9 3.5 31.9 3.5 Z M 33.9 3.1 C 33.9 3.3 33.8 3.4 33.7 3.4 C 33.7 3.3 33.6 3.2 33.6 3.2 C 33.5 3.2 33.5 3.1 33.4 3.1 C 33.2 3.1 33 3.2 32.9 3.3 C 32.8 3.3 32.7 3.4 32.7 3.5 C 32.7 3.6 32.7 3.6 32.8 3.7 C 32.8 3.7 33 3.8 33.2 3.8 C 33.4 3.9 33.6 4 33.7 4.1 C 33.8 4.2 33.9 4.2 33.9 4.4 C 33.9 4.5 33.7 4.7 33.4 4.9 C 33.1 5 32.8 5.1 32.5 5.1 C 32.4 5.1 32.4 5.1 32.3 5.1 C 32.2 5 32.2 5 32.2 4.9 C 32.2 4.8 32.2 4.8 32.2 4.8 C 32.3 4.7 32.3 4.7 32.3 4.7 C 32.4 4.7 32.4 4.7 32.4 4.7 C 32.5 4.8 32.6 4.8 32.7 4.8 C 32.8 4.8 33 4.7 33.2 4.6 C 33.4 4.6 33.5 4.5 33.5 4.4 C 33.5 4.4 33.5 4.3 33.4 4.3 C 33.4 4.3 33.3 4.2 33.1 4.2 C 32.9 4.1 32.8 4.1 32.7 4 C 32.5 4 32.5 3.9 32.4 3.8 C 32.4 3.8 32.3 3.7 32.3 3.6 C 32.3 3.4 32.4 3.2 32.6 3.1 C 32.9 2.9 33.1 2.8 33.4 2.8 C 33.6 2.8 33.7 2.9 33.8 2.9 C 33.9 3 33.9 3.1 33.9 3.1 C 33.9 3.1 33.9 3.1 33.9 3.1 Z M 35.8 3.2 C 35.5 3.2 35.4 3.2 35.3 3.2 C 35.3 3.2 35.3 3.3 35.2 3.3 C 35.2 3.3 35.2 3.5 35.2 3.8 C 35.2 4.1 35.1 4.3 35.1 4.5 C 35.1 4.6 35.1 4.7 35.2 4.8 C 35.2 4.8 35.2 4.8 35.2 4.8 C 35.2 4.9 35.2 4.9 35.1 5 C 35.1 5 35.1 5 35 5 C 35 5 34.9 5 34.9 5 C 34.8 4.9 34.8 4.9 34.8 4.8 C 34.8 4.7 34.8 4.6 34.8 4.5 C 34.8 4.4 34.8 4.1 34.8 3.8 C 34.9 3.4 34.9 3.3 34.9 3.3 C 34.9 3.3 34.8 3.3 34.6 3.3 C 34.4 3.3 34.3 3.3 34.2 3.3 C 34.1 3.3 34.1 3.3 34 3.3 C 34 3.2 34 3.2 34 3.2 C 34 3.1 34 3.1 34 3 C 34.1 3 34.2 3 34.4 3 C 34.6 3 34.9 3 35.2 2.9 C 35.5 2.9 35.7 2.9 35.9 2.9 C 36.1 2.9 36.2 2.9 36.2 2.9 C 36.2 3 36.3 3 36.3 3.1 C 36.3 3.2 36.2 3.2 36.1 3.2 C 36.1 3.2 36.1 3.2 36 3.2 C 35.9 3.2 35.9 3.2 35.8 3.2 C 35.8 3.2 35.8 3.2 35.8 3.2 Z M 37.8 3.2 C 37.8 3.2 37.3 3.2 37.3 3.2 C 37.2 3.2 37 3.2 36.9 3.2 C 36.8 3.2 36.7 3.3 36.7 3.3 C 36.7 3.3 36.7 3.3 36.7 3.4 C 36.7 3.4 36.7 3.5 36.7 3.6 C 36.6 3.7 36.6 3.8 36.6 3.8 C 36.7 3.8 36.8 3.8 36.9 3.8 C 37 3.8 37.1 3.8 37.1 3.8 C 37.3 3.8 37.4 3.7 37.5 3.7 C 37.6 3.7 37.7 3.8 37.7 3.9 C 37.7 3.9 37.7 4 37.6 4 C 37.6 4 37.5 4.1 37.4 4.1 C 37.4 4.1 37.3 4.1 37.2 4.1 C 37.2 4.1 37.2 4.1 37.1 4.1 C 36.8 4.1 36.7 4.2 36.6 4.2 C 36.6 4.2 36.6 4.2 36.6 4.2 C 36.6 4.2 36.6 4.2 36.6 4.2 C 36.6 4.2 36.6 4.3 36.5 4.4 C 36.5 4.6 36.5 4.7 36.5 4.7 C 36.5 4.7 36.5 4.8 36.6 4.8 C 36.6 4.8 36.7 4.7 36.9 4.7 C 37.1 4.7 37.3 4.7 37.3 4.7 C 37.4 4.6 37.5 4.6 37.6 4.6 C 37.7 4.6 37.8 4.7 37.8 4.8 C 37.8 4.8 37.7 4.9 37.7 4.9 C 37.6 4.9 37.5 5 37.3 5 C 37.2 5 37 5 36.8 5 C 36.7 5.1 36.5 5.1 36.3 5.1 C 36.3 5.1 36.2 5.1 36.2 5 C 36.1 5 36.1 4.9 36.1 4.9 C 36.1 4.9 36.1 4.8 36.1 4.8 C 36.1 4.8 36.1 4.8 36.1 4.7 C 36.2 4.6 36.2 4.4 36.3 3.9 C 36.3 3.5 36.4 3.3 36.4 3.2 C 36.4 3.2 36.4 3.2 36.3 3.2 C 36.3 3.2 36.3 3.2 36.3 3.2 C 36.3 3.1 36.3 3.1 36.3 3.1 C 36.3 3.1 36.3 3.1 36.3 3 C 36.3 3 36.3 3 36.4 3 C 36.4 3 36.4 2.9 36.5 2.9 C 36.5 2.9 36.6 3 36.6 3 C 36.7 3 36.9 2.9 37.4 2.9 C 37.5 2.8 37.6 2.8 37.6 2.8 C 37.6 2.8 37.6 2.8 37.6 2.8 C 37.8 2.8 37.9 2.9 37.9 3 C 37.9 3 37.9 3.1 37.9 3.1 C 37.8 3.1 37.8 3.2 37.8 3.2 Z M 40.1 3.5 C 40.1 3.4 40.2 3.4 40.2 3.4 C 40.2 3.4 39.7 4 39.7 4 C 39.4 4.3 39.3 4.5 39.1 4.5 C 39.1 4.5 39 4.5 39 4.4 C 39 4.3 38.9 4.2 38.9 4.1 C 38.8 4 38.8 3.9 38.8 3.8 C 38.7 3.6 38.7 3.6 38.7 3.5 C 38.7 3.5 38.6 3.9 38.6 3.9 C 38.6 4 38.6 4.1 38.5 4.2 C 38.5 4.4 38.5 4.5 38.5 4.6 C 38.4 4.8 38.4 4.9 38.4 4.9 C 38.4 5 38.4 5 38.3 5 C 38.3 5.1 38.3 5.1 38.2 5.1 C 38.2 5.1 38.1 5 38.1 5 C 38.1 5 38 4.9 38 4.9 C 38 4.8 38.1 4.7 38.1 4.5 C 38.3 3.9 38.3 3.6 38.4 3.4 C 38.4 3.2 38.4 3.1 38.4 3 C 38.4 3 38.4 2.9 38.5 2.9 C 38.5 2.9 38.6 2.9 38.7 2.9 C 38.7 2.9 38.7 2.9 38.8 2.9 C 38.8 3 38.8 3 38.9 3.1 C 38.86 3.08 38.9 3.1 38.9 3.1 C 38.9 3.1 39.06 3.65 39.1 3.6 C 39.1 3.9 39.2 4 39.2 4.1 C 39.3 4 39.5 3.8 39.7 3.5 C 39.9 3.2 40 3 40.1 2.9 C 40.2 2.9 40.2 2.8 40.3 2.8 C 40.3 2.8 40.4 2.8 40.4 2.9 C 40.5 2.9 40.5 3 40.5 3 C 40.5 3 40.5 3.2 40.5 3.4 C 40.4 3.6 40.4 3.8 40.4 4.1 C 40.4 4.3 40.4 4.4 40.4 4.5 C 40.4 4.5 40.4 4.6 40.4 4.7 C 40.4 4.7 40.4 4.7 40.4 4.8 C 40.4 4.9 40.4 4.9 40.3 5 C 40.3 5 40.3 5 40.2 5 C 40.1 5 40 4.9 40 4.7 C 40 4.6 40 4.3 40 4.1 C 40.1 3.8 40.1 3.6 40.1 3.5 C 40.1 3.5 40.1 3.5 40.1 3.5 Z M 41.3 4.5 C 41.3 4.5 41.3 4.5 41.3 4.5 C 41.2 4.5 41.2 4.6 41.1 4.8 C 41 4.9 41 5 40.9 5 C 40.9 5 40.9 5 40.8 5 C 40.8 5 40.8 5 40.7 5 C 40.7 4.9 40.6 4.9 40.6 4.9 C 40.6 4.8 40.8 4.6 41 4.2 C 41.1 4 41.3 3.8 41.4 3.6 C 41.6 3.2 41.7 3 41.8 2.9 C 41.8 2.9 41.9 2.8 41.9 2.8 C 42 2.8 42.1 2.8 42.1 2.9 C 42.1 2.9 42.1 2.9 42.1 3 C 42.1 3 42.1 3.1 42.1 3.1 C 42.3 3.6 42.4 4 42.5 4.2 C 42.6 4.5 42.7 4.6 42.8 4.7 C 42.9 4.8 42.9 4.8 42.9 4.8 C 42.9 4.9 43 4.9 43 4.9 C 43 5 42.9 5 42.9 5 C 42.9 5.1 42.8 5.1 42.8 5.1 C 42.7 5.1 42.6 5.1 42.5 5 C 42.5 4.9 42.4 4.8 42.3 4.6 C 42.2 4.5 42.2 4.4 42.2 4.4 C 42.2 4.4 42.2 4.4 42.2 4.4 C 42.2 4.4 42 4.4 41.9 4.4 C 41.7 4.4 41.5 4.5 41.4 4.5 C 41.4 4.5 41.4 4.5 41.3 4.5 C 41.3 4.5 41.3 4.5 41.3 4.5 Z M 42 4.1 C 42 4.1 42.1 4.1 42.1 4.1 C 42.1 4 42 3.8 41.9 3.4 C 41.9 3.4 41.9 3.4 41.9 3.4 C 41.9 3.4 41.4 4.2 41.4 4.2 C 41.5 4.2 41.6 4.1 41.6 4.1 C 41.7 4.1 41.8 4.1 42 4.1 C 42 4.1 42 4.1 42 4.1 Z M 45.9 3.2 C 45.9 3.2 45.5 3.2 45.5 3.2 C 45.3 3.2 45.2 3.2 45.1 3.2 C 45 3.2 44.9 3.3 44.9 3.3 C 44.9 3.3 44.9 3.3 44.9 3.4 C 44.9 3.4 44.9 3.5 44.8 3.6 C 44.8 3.7 44.8 3.8 44.8 3.8 C 44.8 3.8 44.9 3.8 45.1 3.8 C 45.2 3.8 45.3 3.8 45.3 3.8 C 45.4 3.8 45.5 3.7 45.6 3.7 C 45.8 3.7 45.9 3.8 45.9 3.9 C 45.9 3.9 45.8 4 45.8 4 C 45.7 4 45.7 4.1 45.6 4.1 C 45.5 4.1 45.5 4.1 45.4 4.1 C 45.4 4.1 45.3 4.1 45.3 4.1 C 45 4.1 44.8 4.2 44.8 4.2 C 44.8 4.2 44.8 4.2 44.8 4.2 C 44.8 4.2 44.8 4.2 44.7 4.2 C 44.7 4.2 44.7 4.3 44.7 4.4 C 44.7 4.6 44.7 4.7 44.7 4.7 C 44.7 4.7 44.7 4.8 44.7 4.8 C 44.8 4.8 44.9 4.7 45.1 4.7 C 45.3 4.7 45.4 4.7 45.5 4.7 C 45.6 4.6 45.7 4.6 45.7 4.6 C 45.9 4.6 45.9 4.7 45.9 4.8 C 45.9 4.8 45.9 4.9 45.9 4.9 C 45.8 4.9 45.6 5 45.5 5 C 45.3 5 45.2 5 45 5 C 44.8 5.1 44.7 5.1 44.5 5.1 C 44.4 5.1 44.4 5.1 44.3 5 C 44.3 5 44.3 4.9 44.3 4.9 C 44.3 4.9 44.3 4.8 44.3 4.8 C 44.3 4.8 44.3 4.8 44.3 4.7 C 44.3 4.6 44.4 4.4 44.4 3.9 C 44.5 3.5 44.5 3.3 44.5 3.2 C 44.5 3.2 44.5 3.2 44.5 3.2 C 44.5 3.2 44.5 3.2 44.5 3.2 C 44.5 3.1 44.5 3.1 44.5 3.1 C 44.5 3.1 44.5 3.1 44.5 3 C 44.5 3 44.5 3 44.5 3 C 44.6 3 44.6 2.9 44.6 2.9 C 44.7 2.9 44.7 3 44.8 3 C 44.9 3 45.1 2.9 45.6 2.9 C 45.7 2.8 45.8 2.8 45.8 2.8 C 45.8 2.8 45.8 2.8 45.8 2.8 C 46 2.8 46.1 2.9 46.1 3 C 46.1 3 46.1 3.1 46 3.1 C 46 3.1 46 3.2 45.9 3.2 Z M 47.7 4.9 C 47.6 4.9 47.6 4.9 47.6 4.9 C 47.5 4.9 47.5 4.9 47.4 4.9 C 47.2 4.9 46.9 4.9 46.6 5 C 46.5 5 46.5 5.1 46.4 5.1 C 46.4 5.1 46.3 5 46.3 5 C 46.3 4.9 46.2 4.9 46.2 4.9 C 46.2 4.8 46.2 4.8 46.3 4.7 C 46.3 4.6 46.3 4.5 46.3 4.4 C 46.3 4.4 46.4 3.2 46.4 3.2 C 46.5 3.1 46.5 3 46.5 3 C 46.5 2.9 46.5 2.9 46.5 2.9 C 46.6 2.9 46.6 2.8 46.7 2.8 C 46.7 2.8 46.8 2.9 46.8 2.9 C 46.8 2.9 46.9 3 46.9 3 C 46.9 3 46.8 3.1 46.8 3.2 C 46.8 3.3 46.8 3.6 46.7 4 C 46.7 4.4 46.7 4.6 46.7 4.6 C 46.7 4.6 46.7 4.7 46.7 4.7 C 46.7 4.7 46.8 4.6 47 4.6 C 47.1 4.6 47.1 4.6 47.2 4.6 C 47.4 4.6 47.6 4.6 47.7 4.5 C 47.7 4.5 47.7 4.5 47.8 4.5 C 47.8 4.5 47.9 4.5 47.9 4.6 C 47.9 4.6 47.9 4.6 47.9 4.7 C 47.9 4.8 47.9 4.8 47.9 4.8 C 47.8 4.9 47.7 4.9 47.7 4.9 Z M 49.7 3.2 C 49.7 3.2 49.3 3.2 49.3 3.2 C 49.1 3.2 49 3.2 48.9 3.2 C 48.8 3.2 48.7 3.3 48.7 3.3 C 48.7 3.3 48.7 3.3 48.7 3.4 C 48.7 3.4 48.7 3.5 48.6 3.6 C 48.6 3.7 48.6 3.8 48.6 3.8 C 48.7 3.8 48.7 3.8 48.9 3.8 C 49 3.8 49.1 3.8 49.1 3.8 C 49.2 3.8 49.4 3.7 49.4 3.7 C 49.6 3.7 49.7 3.8 49.7 3.9 C 49.7 3.9 49.6 4 49.6 4 C 49.6 4 49.5 4.1 49.4 4.1 C 49.3 4.1 49.3 4.1 49.2 4.1 C 49.2 4.1 49.1 4.1 49.1 4.1 C 48.8 4.1 48.6 4.2 48.6 4.2 C 48.6 4.2 48.6 4.2 48.6 4.2 C 48.6 4.2 48.6 4.2 48.6 4.2 C 48.5 4.2 48.5 4.3 48.5 4.4 C 48.5 4.6 48.5 4.7 48.5 4.7 C 48.5 4.7 48.5 4.8 48.5 4.8 C 48.6 4.8 48.7 4.7 48.9 4.7 C 49.1 4.7 49.2 4.7 49.3 4.7 C 49.4 4.6 49.5 4.6 49.5 4.6 C 49.7 4.6 49.7 4.7 49.7 4.8 C 49.7 4.8 49.7 4.9 49.7 4.9 C 49.6 4.9 49.5 5 49.3 5 C 49.1 5 49 5 48.8 5 C 48.6 5.1 48.5 5.1 48.3 5.1 C 48.2 5.1 48.2 5.1 48.1 5 C 48.1 5 48.1 4.9 48.1 4.9 C 48.1 4.9 48.1 4.8 48.1 4.8 C 48.1 4.8 48.1 4.8 48.1 4.7 C 48.1 4.6 48.2 4.4 48.2 3.9 C 48.3 3.5 48.3 3.3 48.3 3.2 C 48.3 3.2 48.3 3.2 48.3 3.2 C 48.3 3.2 48.3 3.2 48.3 3.2 C 48.3 3.1 48.3 3.1 48.3 3.1 C 48.3 3.1 48.3 3.1 48.3 3 C 48.3 3 48.3 3 48.3 3 C 48.4 3 48.4 2.9 48.4 2.9 C 48.5 2.9 48.5 3 48.6 3 C 48.7 3 48.9 2.9 49.4 2.9 C 49.5 2.8 49.6 2.8 49.6 2.8 C 49.6 2.8 49.6 2.8 49.6 2.8 C 49.8 2.8 49.9 2.9 49.9 3 C 49.9 3 49.9 3.1 49.8 3.1 C 49.8 3.1 49.8 3.2 49.7 3.2 Z M 50.6 3.5 C 50.6 3.6 50.5 3.7 50.5 3.7 C 50.5 3.8 50.5 3.8 50.5 4 C 50.5 4.2 50.5 4.3 50.5 4.4 C 50.5 4.5 50.5 4.6 50.5 4.8 C 50.5 4.9 50.5 4.9 50.4 5 C 50.4 5 50.3 5 50.3 5 C 50.2 5 50.2 5 50.1 4.9 C 50.1 4.9 50.1 4.8 50.1 4.6 C 50.1 4.5 50.1 4.3 50.2 4 C 50.2 4 50.2 3.4 50.2 3.4 C 50.3 3.3 50.3 3.2 50.3 3.2 C 50.3 3 50.3 3 50.3 3 C 50.3 2.9 50.4 2.9 50.4 2.9 C 50.5 2.9 50.5 2.8 50.5 2.8 C 50.6 2.8 50.6 2.9 50.6 2.9 C 50.7 3 50.7 3 50.7 3.1 C 50.7 3.1 50.6 3.5 50.6 3.5 Z M 52.6 3.2 C 52.3 3.2 52.2 3.2 52.1 3.2 C 52.1 3.2 52 3.3 52 3.3 C 52 3.3 52 3.5 52 3.8 C 51.9 4.1 51.9 4.3 51.9 4.5 C 51.9 4.6 51.9 4.7 52 4.8 C 52 4.8 52 4.8 52 4.8 C 52 4.9 52 4.9 51.9 5 C 51.9 5 51.8 5 51.8 5 C 51.8 5 51.7 5 51.7 5 C 51.6 4.9 51.6 4.9 51.6 4.8 C 51.6 4.7 51.6 4.6 51.6 4.5 C 51.6 4.4 51.6 4.1 51.6 3.8 C 51.7 3.4 51.7 3.3 51.7 3.3 C 51.7 3.3 51.6 3.3 51.4 3.3 C 51.2 3.3 51.1 3.3 51 3.3 C 50.9 3.3 50.9 3.3 50.8 3.3 C 50.8 3.2 50.8 3.2 50.8 3.2 C 50.8 3.1 50.8 3.1 50.8 3 C 50.9 3 51 3 51.2 3 C 51.4 3 51.7 3 52 2.9 C 52.3 2.9 52.5 2.9 52.7 2.9 C 52.8 2.9 53 2.9 53 2.9 C 53 3 53 3 53 3.1 C 53 3.2 53 3.2 52.9 3.2 C 52.9 3.2 52.9 3.2 52.8 3.2 C 52.7 3.2 52.7 3.2 52.6 3.2 C 52.6 3.2 52.6 3.2 52.6 3.2 Z M 53.5 5.1 C 53.3 5.1 53.2 5 53 4.8 C 52.9 4.7 52.8 4.5 52.8 4.3 C 52.8 4.1 52.9 3.9 53 3.7 C 53.1 3.4 53.3 3.2 53.5 3.1 C 53.7 2.9 53.9 2.8 54.1 2.8 C 54.3 2.8 54.4 2.9 54.5 2.9 C 54.6 2.9 54.7 3 54.8 3.1 C 54.9 3.1 54.9 3.2 55 3.3 C 55 3.4 55 3.5 55 3.6 C 55 3.8 55 3.9 54.9 4.1 C 54.8 4.3 54.7 4.4 54.6 4.6 C 54.4 4.7 54.2 4.9 54.1 4.9 C 53.9 5 53.7 5.1 53.5 5.1 Z M 53.2 4.3 C 53.2 4.5 53.2 4.6 53.3 4.6 C 53.4 4.7 53.5 4.8 53.6 4.8 C 53.8 4.8 54.1 4.6 54.3 4.4 C 54.5 4.1 54.6 3.9 54.6 3.6 C 54.6 3.5 54.6 3.4 54.6 3.3 C 54.6 3.3 54.5 3.2 54.4 3.2 C 54.3 3.1 54.2 3.1 54.1 3.1 C 53.9 3.1 53.7 3.3 53.5 3.5 C 53.3 3.8 53.2 4.1 53.2 4.3 Z M 55.4 3.2 C 55.4 3.2 55.43 3.18 55.4 3.2 C 55.4 3.1 55.4 3.1 55.4 3.1 C 55.4 3 55.4 3 55.5 2.9 C 55.5 2.9 55.5 2.9 55.6 2.9 C 55.6 2.9 55.6 2.9 55.7 2.9 C 55.7 2.9 55.7 2.9 55.7 2.9 C 56 2.9 56.2 2.8 56.3 2.8 C 56.5 2.8 56.7 2.9 56.8 3 C 56.9 3.1 57 3.2 57 3.4 C 57 3.5 57 3.7 56.8 3.8 C 56.7 3.9 56.5 4 56.3 4.1 C 56.7 4.4 56.9 4.6 57.1 4.7 C 57.2 4.7 57.2 4.8 57.2 4.8 C 57.2 4.9 57.2 4.9 57.1 4.9 C 57.1 5 57.1 5 57 5 C 57 5 56.9 5 56.8 4.9 C 56.8 4.9 56.7 4.8 56.5 4.7 C 56.4 4.6 56.3 4.5 56.3 4.5 C 56.1 4.4 56 4.3 55.9 4.2 C 55.8 4.2 55.7 4.2 55.7 4.1 C 55.7 4 55.8 4 55.8 3.9 C 55.8 3.9 55.9 3.9 56 3.9 C 56 3.9 56 3.9 56 3.9 C 56 3.9 56 3.9 56.1 3.9 C 56.1 3.9 56.2 3.8 56.4 3.7 C 56.6 3.6 56.7 3.5 56.7 3.4 C 56.7 3.3 56.6 3.2 56.5 3.2 C 56.5 3.1 56.4 3.1 56.3 3.1 C 56.1 3.1 56 3.1 56 3.1 C 55.9 3.2 55.8 3.2 55.8 3.2 C 55.8 3.2 55.8 3.2 55.8 3.2 C 55.8 3.3 55.8 3.4 55.7 3.5 C 55.7 3.7 55.7 3.9 55.7 4.1 C 55.6 4.3 55.6 4.5 55.6 4.6 C 55.6 4.6 55.6 4.7 55.6 4.7 C 55.6 4.8 55.6 4.8 55.6 4.9 C 55.6 4.9 55.6 4.9 55.6 5 C 55.5 5 55.5 5 55.4 5 C 55.3 5 55.2 5 55.2 4.8 C 55.2 4.6 55.3 4.4 55.3 4.1 C 55.3 3.9 55.4 3.6 55.4 3.4 C 55.4 3.4 55.4 3.3 55.4 3.3 C 55.43 3.32 55.4 3.2 55.4 3.2 Z M 57.8 4.5 C 57.8 4.5 57.8 4.5 57.8 4.5 C 57.7 4.5 57.7 4.6 57.6 4.8 C 57.5 4.9 57.5 5 57.4 5 C 57.4 5 57.4 5 57.3 5 C 57.3 5 57.3 5 57.2 5 C 57.2 4.9 57.1 4.9 57.1 4.9 C 57.1 4.8 57.3 4.6 57.5 4.2 C 57.6 4 57.8 3.8 57.9 3.6 C 58.1 3.2 58.2 3 58.3 2.9 C 58.3 2.9 58.4 2.8 58.4 2.8 C 58.5 2.8 58.6 2.8 58.6 2.9 C 58.6 2.9 58.6 2.9 58.6 3 C 58.6 3 58.6 3.1 58.6 3.1 C 58.8 3.6 58.9 4 59 4.2 C 59.1 4.5 59.2 4.6 59.3 4.7 C 59.4 4.8 59.4 4.8 59.4 4.8 C 59.5 4.9 59.5 4.9 59.5 4.9 C 59.5 5 59.4 5 59.4 5 C 59.4 5.1 59.3 5.1 59.3 5.1 C 59.2 5.1 59.1 5.1 59 5 C 59 4.9 58.9 4.8 58.8 4.6 C 58.7 4.5 58.7 4.4 58.7 4.4 C 58.7 4.4 58.7 4.4 58.7 4.4 C 58.7 4.4 58.5 4.4 58.4 4.4 C 58.2 4.4 58 4.5 57.9 4.5 C 57.9 4.5 57.9 4.5 57.8 4.5 C 57.8 4.5 57.8 4.5 57.8 4.5 Z M 58.5 4.1 C 58.5 4.1 58.6 4.1 58.6 4.1 C 58.6 4 58.5 3.8 58.4 3.4 C 58.4 3.4 58.4 3.4 58.4 3.4 C 58.4 3.4 58 4.2 58 4.2 C 58 4.2 58.1 4.1 58.1 4.1 C 58.2 4.1 58.3 4.1 58.5 4.1 C 58.5 4.1 58.5 4.1 58.5 4.1 Z M 61 4.9 C 61 4.9 61 4.9 60.9 4.9 C 60.9 4.9 60.8 4.9 60.8 4.9 C 60.5 4.9 60.3 4.9 60 5 C 59.9 5 59.8 5.1 59.8 5.1 C 59.7 5.1 59.7 5 59.7 5 C 59.6 4.9 59.6 4.9 59.6 4.9 C 59.6 4.8 59.6 4.8 59.6 4.7 C 59.7 4.6 59.7 4.5 59.7 4.4 C 59.7 4.4 59.8 3.2 59.8 3.2 C 59.8 3.1 59.8 3 59.9 3 C 59.9 2.9 59.9 2.9 59.9 2.9 C 60 2.9 60 2.8 60.1 2.8 C 60.1 2.8 60.1 2.9 60.2 2.9 C 60.2 2.9 60.2 3 60.2 3 C 60.2 3 60.2 3.1 60.2 3.2 C 60.2 3.3 60.1 3.6 60.1 4 C 60.1 4.4 60 4.6 60 4.6 C 60 4.6 60 4.7 60 4.7 C 60.1 4.7 60.2 4.6 60.4 4.6 C 60.4 4.6 60.5 4.6 60.6 4.6 C 60.8 4.6 61 4.6 61.1 4.5 C 61.1 4.5 61.1 4.5 61.1 4.5 C 61.2 4.5 61.2 4.5 61.3 4.6 C 61.3 4.6 61.3 4.6 61.3 4.7 C 61.3 4.8 61.3 4.8 61.2 4.8 C 61.2 4.9 61.1 4.9 61 4.9 Z " stroke="none" fill="#000"/>  </g></svg>