<?xml version="1.0" standalone="no"?><!DOCTYPE svg PUBLIC "-//W3C//DTD SVG 1.1//EN" "http://www.w3.org/Graphics/SVG/1.1/DTD/svg11.dtd"><svg xmlns="http://www.w3.org/2000/svg" version="1.1" width="99px" height="33.8px" viewBox="0 -7 99 33.8" style="top:-7px">  <desc>PEDRO</desc>  <defs/>  <g id="Polygon13417">    <path d="M 26.2 9.4 C 25.5 9.5 25.1 9.6 25.1 9.6 C 24.9 10.8 24.9 11.7 24.9 12.4 C 24.9 12.7 24.8 12.9 24.6 13.1 C 24.5 13.3 24.2 13.5 23.9 13.5 C 23.3 13.5 23 13.1 23 12.4 C 23 12 23.2 10.7 23.5 8.4 C 23.7 6.6 23.8 5.5 23.8 5.1 C 23.8 4.7 23.8 4.5 23.8 4.4 C 23.4 4.3 23.3 4 23.3 3.5 C 23.3 3.1 23.9 2.8 25.3 2.4 C 26.6 2.1 27.8 2 28.8 2 C 29.9 2 30.8 2.2 31.5 2.7 C 32.1 3.1 32.5 3.8 32.5 4.5 C 32.5 5.7 31.8 6.7 30.6 7.5 C 29.4 8.4 27.9 9 26.2 9.4 C 26.2 9.4 26.2 9.4 26.2 9.4 Z M 28.7 3.5 C 27.8 3.5 26.8 3.6 25.7 4 C 25.7 4 25.3 7.9 25.3 7.9 C 26.7 7.7 28 7.3 29.1 6.7 C 30.1 6.1 30.7 5.4 30.7 4.7 C 30.7 3.9 30 3.5 28.7 3.5 C 28.7 3.5 28.7 3.5 28.7 3.5 Z M 41.7 3.7 C 41.7 3.7 39.4 3.9 39.4 3.9 C 38.6 3.9 37.9 4 37.3 4.1 C 36.7 4.2 36.4 4.2 36.4 4.3 C 36.3 4.3 36.3 4.5 36.3 4.8 C 36.2 5 36.1 5.4 36 6.1 C 35.9 6.5 35.8 6.9 35.8 7.2 C 36.1 7.2 36.5 7.2 37.1 7.1 C 37.7 7.1 38.2 7 38.4 7 C 39.1 6.8 39.7 6.7 40.1 6.7 C 40.9 6.7 41.3 6.9 41.3 7.4 C 41.3 7.7 41.1 8 40.9 8.1 C 40.7 8.2 40.4 8.3 39.9 8.4 C 39.6 8.4 39.3 8.5 38.9 8.5 C 38.7 8.6 38.5 8.6 38.2 8.6 C 36.8 8.8 36 8.9 35.8 9 C 35.8 9 35.8 9 35.8 9 C 35.7 9 35.6 9.1 35.6 9.2 C 35.5 9.2 35.5 9.6 35.3 10.3 C 35.2 10.9 35.2 11.4 35.2 11.6 C 35.2 11.8 35.3 11.9 35.5 11.9 C 35.8 11.9 36.4 11.8 37.4 11.7 C 38.4 11.6 39.1 11.5 39.3 11.4 C 40 11.3 40.4 11.2 40.6 11.2 C 41.3 11.3 41.6 11.6 41.6 12.1 C 41.6 12.3 41.5 12.5 41.4 12.6 C 40.9 12.9 40.2 13 39.3 13 C 38.6 13.1 37.8 13.2 36.8 13.3 C 36 13.5 35.1 13.6 34.4 13.6 C 34 13.6 33.7 13.5 33.5 13.3 C 33.3 13.1 33.2 12.9 33.2 12.5 C 33.2 12.5 33.1 12.3 33.1 12.3 C 33.1 12.2 33.2 12.1 33.3 11.8 C 33.5 11.2 33.7 9.8 34 7.7 C 34.3 5.6 34.4 4.4 34.4 4.2 C 34.4 4.2 34.4 4.2 34.4 4.1 C 34.4 4.1 34.3 4 34.2 3.8 C 34.1 3.7 34.1 3.5 34.1 3.3 C 34.1 3.3 34.1 3.2 34.1 3.1 C 34.1 3 34.3 2.9 34.4 2.8 C 34.6 2.7 34.8 2.7 35 2.7 C 35.2 2.7 35.5 2.7 35.7 2.7 C 36.1 2.7 37.5 2.6 39.7 2.3 C 40.5 2.2 40.9 2.1 40.9 2.1 C 40.9 2.1 41 2.1 41 2.1 C 41.9 2 42.4 2.3 42.4 3 C 42.4 3.1 42.3 3.2 42.1 3.4 C 42 3.6 41.8 3.7 41.7 3.7 Z M 43.7 11.8 C 43.7 11.6 43.8 11.1 43.8 10.5 C 43.9 8.8 44.1 6.9 44.5 5 C 44.5 4.6 44.6 4.3 44.6 4.1 C 44.6 4 44.5 4 44.5 4 C 43.9 3.8 43.7 3.6 43.7 3.3 C 43.7 3 43.8 2.8 44 2.6 C 44.2 2.4 44.4 2.3 44.7 2.3 C 44.7 2.3 45.7 2.3 45.7 2.3 C 46.1 2.3 46.8 2.3 47.6 2.2 C 48.3 2.2 48.8 2.1 49.2 2.1 C 50.6 2.1 51.8 2.5 52.6 3.3 C 53.5 4.1 53.9 5.1 53.9 6.4 C 53.9 7.8 53.2 9.1 51.9 10.3 C 50.6 11.4 49 12.2 47.1 12.7 C 46.6 12.8 46.3 12.9 46.1 12.9 C 45.8 13 45.6 13.1 45.3 13.3 C 45 13.6 44.7 13.7 44.3 13.7 C 44.1 13.7 43.9 13.6 43.7 13.3 C 43.5 13.1 43.4 12.9 43.4 12.7 C 43.4 12.6 43.4 12.5 43.5 12.3 C 43.5 12.3 43.7 11.8 43.7 11.8 Z M 45.6 10.9 C 45.6 11.1 45.6 11.3 45.6 11.4 C 45.9 11.4 46.7 11.2 47.9 10.9 C 49.1 10.5 50.2 9.9 50.9 9.1 C 51.7 8.3 52.1 7.4 52.1 6.3 C 52.1 5.5 51.8 4.8 51.2 4.4 C 50.7 3.9 49.9 3.6 49 3.6 C 48.3 3.6 47.6 3.7 46.7 3.8 C 46.6 3.8 46.5 3.8 46.4 3.8 C 45.9 7.2 45.6 9.5 45.6 10.9 C 45.6 10.9 45.6 10.9 45.6 10.9 Z M 56.2 4 C 56.2 4 56.05 3.83 56.1 3.8 C 55.9 3.6 55.8 3.4 55.8 3.3 C 55.8 3 55.9 2.8 56.2 2.7 C 56.4 2.5 56.6 2.4 56.8 2.4 C 56.9 2.4 57.1 2.4 57.2 2.4 C 57.3 2.4 57.4 2.4 57.4 2.4 C 58.9 2.2 59.9 2.1 60.5 2.1 C 61.7 2.1 62.5 2.4 63.2 2.9 C 63.8 3.4 64.1 4.1 64.1 4.8 C 64.1 5.6 63.8 6.3 63.2 6.9 C 62.6 7.6 61.7 8.1 60.6 8.6 C 62.4 10 63.8 11 64.7 11.5 C 65 11.7 65.2 12 65.2 12.3 C 65.2 12.5 65 12.7 64.8 12.9 C 64.6 13.1 64.4 13.2 64.2 13.2 C 63.9 13.2 63.6 13 63.2 12.8 C 62.8 12.5 62.3 12.1 61.6 11.6 C 61 11.1 60.6 10.8 60.5 10.7 C 59.5 9.9 58.8 9.3 58.4 9.1 C 57.9 9.1 57.6 8.8 57.6 8.3 C 57.6 8 57.7 7.8 58 7.7 C 58.2 7.5 58.5 7.4 58.8 7.4 C 58.9 7.4 59 7.4 59.1 7.4 C 59.1 7.5 59.2 7.5 59.3 7.5 C 59.6 7.5 60.2 7.2 61 6.7 C 61.9 6.1 62.3 5.5 62.3 4.8 C 62.3 4.5 62.1 4.2 61.8 3.9 C 61.4 3.7 61 3.6 60.4 3.6 C 59.7 3.6 59.2 3.6 58.8 3.7 C 58.4 3.8 58.2 3.8 58.1 3.8 C 58.1 3.9 58 4 58 4.1 C 57.9 4.2 57.8 4.7 57.7 5.6 C 57.5 6.5 57.3 7.5 57.2 8.6 C 57.1 9.7 57 10.4 57 11 C 57 11.3 57 11.6 57.1 11.8 C 57.1 12.1 57.1 12.3 57.1 12.5 C 57.1 12.7 57 12.9 56.8 13.1 C 56.6 13.3 56.4 13.4 56.1 13.4 C 55.4 13.4 55.1 12.9 55.1 12 C 55.1 11.2 55.2 10.1 55.3 8.7 C 55.5 7.3 55.7 6.1 56 5 C 56 4.8 56 4.7 56 4.5 C 56.05 4.54 56.2 4 56.2 4 Z M 68.9 13.5 C 68 13.5 67.3 13.1 66.6 12.3 C 66 11.5 65.7 10.7 65.7 9.8 C 65.7 8.8 66 7.6 66.6 6.4 C 67.2 5.1 68 4.1 69 3.3 C 70 2.5 71 2.1 72.1 2.1 C 72.9 2.1 73.6 2.2 74.1 2.4 C 74.7 2.6 75.2 2.9 75.6 3.2 C 76.1 3.6 76.4 4 76.5 4.4 C 76.7 4.9 76.8 5.4 76.8 6.1 C 76.8 6.8 76.6 7.5 76.2 8.4 C 75.8 9.3 75.2 10.2 74.4 11 C 73.6 11.8 72.8 12.4 72 12.9 C 71.2 13.3 70.2 13.5 68.9 13.5 Z M 67.5 9.7 C 67.5 10.3 67.7 10.9 68.1 11.3 C 68.5 11.7 68.9 11.9 69.3 11.9 C 70.7 11.9 71.9 11.2 73.1 10 C 74.3 8.7 74.9 7.3 74.9 5.9 C 74.9 5.4 74.8 5 74.6 4.6 C 74.4 4.3 74 4.1 73.6 3.9 C 73.1 3.7 72.6 3.6 72.1 3.6 C 71.1 3.6 70.1 4.2 69.1 5.6 C 68.1 7 67.5 8.4 67.5 9.7 Z " stroke="none" fill="#000"/>  </g></svg>