<?xml version="1.0" standalone="no"?><!DOCTYPE svg PUBLIC "-//W3C//DTD SVG 1.1//EN" "http://www.w3.org/Graphics/SVG/1.1/DTD/svg11.dtd"><svg xmlns="http://www.w3.org/2000/svg" version="1.1" width="97.5px" height="36.5px" viewBox="0 -2 97.5 36.5" style="top:-2px">  <desc>Voto DistritaL Puro VOTO DISTRITAL PURO PESQUISA MOSTRA OS 2 PRINCIPAIS PROBLEMAS DO ATUAL SISTEMA ELEITORAL. SAIBA MAIS</desc>  <defs/>  <g id="Polygon13791">    <path d="M 37.1 26.8 C 37.1 27.1 37 27.3 36.7 27.3 C 36.7 27.1 36.6 27 36.6 26.9 C 36.5 26.9 36.4 26.8 36.2 26.8 C 36 26.8 35.7 26.9 35.5 27 C 35.3 27.2 35.2 27.3 35.2 27.5 C 35.2 27.6 35.2 27.6 35.3 27.7 C 35.4 27.8 35.6 27.9 35.9 28 C 36.3 28.1 36.6 28.2 36.8 28.3 C 36.9 28.4 37 28.6 37 28.8 C 37 29.1 36.8 29.3 36.3 29.6 C 35.9 29.8 35.4 30 34.9 30 C 34.8 30 34.6 29.9 34.5 29.9 C 34.5 29.8 34.4 29.7 34.4 29.6 C 34.4 29.5 34.4 29.5 34.5 29.4 C 34.5 29.3 34.6 29.3 34.6 29.3 C 34.7 29.3 34.7 29.3 34.7 29.3 C 34.9 29.4 35 29.4 35.2 29.4 C 35.4 29.4 35.7 29.4 36 29.2 C 36.3 29.1 36.4 29 36.4 28.8 C 36.4 28.8 36.4 28.7 36.3 28.7 C 36.3 28.6 36.1 28.6 35.9 28.5 C 35.5 28.4 35.3 28.3 35.1 28.2 C 34.9 28.1 34.8 28 34.7 27.9 C 34.6 27.8 34.6 27.7 34.6 27.5 C 34.6 27.2 34.8 27 35.1 26.7 C 35.4 26.5 35.8 26.3 36.3 26.3 C 36.5 26.3 36.8 26.4 36.9 26.5 C 37.1 26.6 37.1 26.7 37.1 26.8 C 37.1 26.8 37.1 26.8 37.1 26.8 Z M 38.2 29 C 38.2 29 38.1 29 38.1 29 C 38.1 29.1 38 29.2 37.8 29.4 C 37.7 29.6 37.6 29.8 37.6 29.8 C 37.5 29.8 37.5 29.8 37.4 29.8 C 37.4 29.8 37.3 29.8 37.2 29.7 C 37.2 29.7 37.1 29.6 37.1 29.5 C 37.1 29.5 37.3 29.2 37.7 28.6 C 37.9 28.3 38.1 27.9 38.3 27.6 C 38.6 27 38.8 26.6 38.9 26.5 C 39 26.4 39.1 26.3 39.2 26.3 C 39.3 26.3 39.4 26.4 39.4 26.4 C 39.5 26.5 39.5 26.5 39.5 26.6 C 39.5 26.7 39.5 26.7 39.5 26.7 C 39.7 27.6 40 28.2 40.1 28.6 C 40.3 28.9 40.4 29.2 40.6 29.4 C 40.7 29.4 40.7 29.5 40.8 29.5 C 40.8 29.5 40.8 29.6 40.8 29.6 C 40.8 29.7 40.8 29.8 40.7 29.8 C 40.6 29.9 40.6 29.9 40.5 29.9 C 40.4 29.9 40.2 29.9 40.1 29.7 C 40 29.6 39.9 29.4 39.8 29.2 C 39.7 28.9 39.6 28.8 39.6 28.8 C 39.6 28.8 39.6 28.8 39.6 28.8 C 39.5 28.8 39.3 28.8 39 28.8 C 38.8 28.9 38.5 29 38.3 29 C 38.3 29 38.3 29 38.2 29 C 38.2 29 38.2 29 38.2 29 Z M 39.2 28.3 C 39.3 28.3 39.4 28.3 39.4 28.3 C 39.4 28.2 39.3 27.9 39.1 27.3 C 39.1 27.3 39.1 27.2 39.1 27.2 C 39.1 27.2 38.4 28.5 38.4 28.5 C 38.5 28.4 38.6 28.4 38.7 28.4 C 38.8 28.4 38.9 28.4 39.2 28.3 C 39.2 28.3 39.2 28.3 39.2 28.3 Z M 41.9 27.4 C 41.8 27.6 41.8 27.7 41.8 27.8 C 41.8 27.8 41.8 27.9 41.8 28.1 C 41.7 28.5 41.7 28.7 41.7 28.8 C 41.7 29 41.7 29.2 41.7 29.4 C 41.7 29.5 41.7 29.6 41.6 29.7 C 41.6 29.8 41.5 29.8 41.4 29.8 C 41.3 29.8 41.2 29.8 41.2 29.7 C 41.1 29.6 41.1 29.4 41.1 29.2 C 41.1 29 41.1 28.7 41.2 28.1 C 41.2 28.1 41.3 27.2 41.3 27.2 C 41.4 27.1 41.4 27 41.4 26.9 C 41.4 26.7 41.4 26.6 41.5 26.6 C 41.5 26.5 41.5 26.5 41.6 26.4 C 41.7 26.4 41.7 26.4 41.8 26.4 C 41.9 26.4 41.9 26.4 42 26.5 C 42 26.5 42 26.6 42 26.7 C 42 26.7 41.9 27.4 41.9 27.4 Z M 44.7 27.9 C 45 28 45.2 28.1 45.2 28.2 C 45.3 28.4 45.4 28.5 45.4 28.6 C 45.4 28.9 45.2 29.2 44.8 29.6 C 44.4 29.9 44 30 43.6 30 C 43.4 30 43.3 29.9 43.3 29.8 C 43.3 29.6 43.4 29.5 43.7 29.5 C 43.7 29.5 43.9 29.5 43.9 29.5 C 44 29.5 44.2 29.4 44.4 29.2 C 44.7 29 44.8 28.8 44.8 28.7 C 44.8 28.6 44.7 28.5 44.6 28.4 C 44.5 28.3 44.4 28.2 44.3 28.2 C 44.2 28.2 44.2 28.3 44.1 28.3 C 44 28.4 43.9 28.4 43.8 28.4 C 43.7 28.4 43.6 28.4 43.5 28.3 C 43.5 28.3 43.5 28.2 43.5 28.1 C 43.5 28 43.6 27.9 44 27.8 C 44.1 27.7 44.3 27.6 44.5 27.4 C 44.7 27.3 44.8 27.1 44.8 27 C 44.8 26.9 44.6 26.8 44.4 26.8 C 44.2 26.8 44 26.8 43.8 26.9 C 43.6 26.9 43.5 27 43.5 27 C 43.5 27.1 43.4 27.4 43.3 28.1 C 43.2 28.7 43.2 29.1 43.2 29.2 C 43.2 29.2 43.1 29.5 43.1 29.5 C 43.1 29.7 43.1 29.8 43 29.8 C 43 29.9 42.9 29.9 42.8 29.9 C 42.6 29.9 42.5 29.7 42.5 29.5 C 42.5 29.4 42.5 29.4 42.6 29.2 C 42.6 29 42.7 28.6 42.8 28.1 C 42.8 27.6 42.9 27.3 42.9 27.3 C 42.9 27.2 42.8 27.2 42.8 27.2 C 42.8 27.2 42.7 27.2 42.7 27.2 C 42.7 27.2 42.7 27.2 42.6 27.1 C 42.6 27.1 42.6 27.1 42.6 27 C 42.5 27 42.5 27 42.5 26.9 C 42.5 26.8 42.8 26.7 43.2 26.5 C 43.6 26.4 44.1 26.3 44.5 26.3 C 44.8 26.3 45 26.4 45.1 26.5 C 45.3 26.6 45.4 26.8 45.4 27 C 45.4 27.1 45.3 27.2 45.2 27.4 C 45.1 27.5 44.9 27.7 44.7 27.9 Z M 46.6 29 C 46.5 29 46.5 29 46.4 29 C 46.4 29.1 46.3 29.2 46.2 29.4 C 46.1 29.6 46 29.8 45.9 29.8 C 45.9 29.8 45.8 29.8 45.8 29.8 C 45.7 29.8 45.7 29.8 45.6 29.7 C 45.5 29.7 45.5 29.6 45.5 29.5 C 45.5 29.5 45.7 29.2 46 28.6 C 46.3 28.3 46.5 27.9 46.6 27.6 C 47 27 47.2 26.6 47.3 26.5 C 47.3 26.4 47.4 26.3 47.5 26.3 C 47.6 26.3 47.7 26.4 47.8 26.4 C 47.8 26.5 47.8 26.5 47.8 26.6 C 47.8 26.7 47.8 26.7 47.8 26.7 C 48.1 27.6 48.3 28.2 48.5 28.6 C 48.6 28.9 48.8 29.2 49 29.4 C 49 29.4 49.1 29.5 49.1 29.5 C 49.1 29.5 49.1 29.6 49.1 29.6 C 49.1 29.7 49.1 29.8 49 29.8 C 49 29.9 48.9 29.9 48.8 29.9 C 48.7 29.9 48.6 29.9 48.5 29.7 C 48.3 29.6 48.2 29.4 48.1 29.2 C 48 28.9 48 28.8 48 28.8 C 48 28.8 48 28.8 48 28.8 C 47.9 28.8 47.7 28.8 47.4 28.8 C 47.1 28.9 46.9 29 46.7 29 C 46.7 29 46.6 29 46.6 29 C 46.6 29 46.6 29 46.6 29 Z M 47.6 28.3 C 47.6 28.3 47.7 28.3 47.8 28.3 C 47.7 28.2 47.6 27.9 47.4 27.3 C 47.4 27.3 47.4 27.2 47.4 27.2 C 47.4 27.2 46.8 28.5 46.8 28.5 C 46.9 28.4 47 28.4 47.1 28.4 C 47.1 28.4 47.3 28.4 47.6 28.3 C 47.6 28.3 47.6 28.3 47.6 28.3 Z M 54.4 27.4 C 54.5 27.3 54.5 27.2 54.5 27.2 C 54.5 27.2 53.7 28.2 53.7 28.2 C 53.4 28.7 53.1 29 52.9 29 C 52.8 29 52.7 28.9 52.6 28.8 C 52.6 28.7 52.5 28.6 52.4 28.4 C 52.4 28.1 52.3 28 52.3 27.9 C 52.2 27.6 52.2 27.5 52.1 27.5 C 52.1 27.5 52 28.1 52 28.1 C 52 28.3 52 28.4 51.9 28.6 C 51.9 28.8 51.8 29 51.8 29.2 C 51.7 29.4 51.7 29.6 51.7 29.7 C 51.7 29.7 51.7 29.8 51.6 29.8 C 51.5 29.9 51.5 29.9 51.4 29.9 C 51.4 29.9 51.3 29.9 51.2 29.8 C 51.2 29.7 51.1 29.6 51.1 29.6 C 51.1 29.4 51.2 29.2 51.2 29 C 51.5 28.1 51.6 27.5 51.7 27.3 C 51.7 27 51.7 26.8 51.7 26.7 C 51.7 26.6 51.8 26.5 51.8 26.5 C 51.9 26.4 52 26.4 52.1 26.4 C 52.2 26.4 52.2 26.4 52.3 26.5 C 52.4 26.6 52.4 26.7 52.4 26.7 C 52.42 26.75 52.4 26.7 52.4 26.7 C 52.4 26.7 52.74 27.64 52.7 27.6 C 52.9 28 53 28.2 53 28.3 C 53.2 28.1 53.4 27.8 53.7 27.4 C 54.1 26.9 54.3 26.7 54.4 26.5 C 54.5 26.4 54.6 26.3 54.7 26.3 C 54.7 26.3 54.8 26.4 54.9 26.4 C 55 26.5 55.1 26.5 55.1 26.6 C 55.1 26.6 55 26.9 55 27.3 C 54.9 27.6 54.9 27.9 54.9 28.3 C 54.8 28.7 54.8 28.9 54.8 29 C 54.8 29.1 54.8 29.1 54.8 29.2 C 54.8 29.3 54.9 29.4 54.9 29.4 C 54.9 29.6 54.8 29.7 54.8 29.7 C 54.7 29.8 54.6 29.8 54.5 29.8 C 54.3 29.8 54.2 29.7 54.2 29.4 C 54.2 29.1 54.3 28.7 54.3 28.3 C 54.4 27.9 54.4 27.6 54.4 27.4 C 54.4 27.4 54.4 27.4 54.4 27.4 Z M 56.3 29 C 56.3 29 56.2 29 56.2 29 C 56.2 29.1 56.1 29.2 56 29.4 C 55.8 29.6 55.7 29.8 55.7 29.8 C 55.6 29.8 55.6 29.8 55.5 29.8 C 55.5 29.8 55.4 29.8 55.3 29.7 C 55.3 29.7 55.2 29.6 55.2 29.5 C 55.2 29.5 55.4 29.2 55.8 28.6 C 56 28.3 56.2 27.9 56.4 27.6 C 56.7 27 57 26.6 57 26.5 C 57.1 26.4 57.2 26.3 57.3 26.3 C 57.4 26.3 57.5 26.4 57.6 26.4 C 57.6 26.5 57.6 26.5 57.6 26.6 C 57.6 26.7 57.6 26.7 57.6 26.7 C 57.9 27.6 58.1 28.2 58.2 28.6 C 58.4 28.9 58.6 29.2 58.7 29.4 C 58.8 29.4 58.9 29.5 58.9 29.5 C 58.9 29.5 58.9 29.6 58.9 29.6 C 58.9 29.7 58.9 29.8 58.8 29.8 C 58.7 29.9 58.7 29.9 58.6 29.9 C 58.5 29.9 58.3 29.9 58.2 29.7 C 58.1 29.6 58 29.4 57.9 29.2 C 57.8 28.9 57.7 28.8 57.7 28.8 C 57.7 28.8 57.7 28.8 57.7 28.8 C 57.6 28.8 57.4 28.8 57.2 28.8 C 56.9 28.9 56.6 29 56.5 29 C 56.4 29 56.4 29 56.3 29 C 56.3 29 56.3 29 56.3 29 Z M 57.3 28.3 C 57.4 28.3 57.5 28.3 57.5 28.3 C 57.5 28.2 57.4 27.9 57.2 27.3 C 57.2 27.3 57.2 27.2 57.2 27.2 C 57.2 27.2 56.5 28.5 56.5 28.5 C 56.6 28.4 56.7 28.4 56.8 28.4 C 56.9 28.4 57.1 28.4 57.3 28.3 C 57.3 28.3 57.3 28.3 57.3 28.3 Z M 60 27.4 C 60 27.6 59.9 27.7 59.9 27.8 C 59.9 27.8 59.9 27.9 59.9 28.1 C 59.8 28.5 59.8 28.7 59.8 28.8 C 59.8 29 59.8 29.2 59.8 29.4 C 59.9 29.5 59.8 29.6 59.8 29.7 C 59.7 29.8 59.6 29.8 59.5 29.8 C 59.4 29.8 59.3 29.8 59.3 29.7 C 59.2 29.6 59.2 29.4 59.2 29.2 C 59.2 29 59.3 28.7 59.3 28.1 C 59.3 28.1 59.5 27.2 59.5 27.2 C 59.5 27.1 59.5 27 59.5 26.9 C 59.5 26.7 59.6 26.6 59.6 26.6 C 59.6 26.5 59.7 26.5 59.7 26.4 C 59.8 26.4 59.9 26.4 59.9 26.4 C 60 26.4 60 26.4 60.1 26.5 C 60.1 26.5 60.2 26.6 60.2 26.7 C 60.2 26.7 60 27.4 60 27.4 Z M 63.1 26.8 C 63.1 27.1 63 27.3 62.7 27.3 C 62.7 27.1 62.7 27 62.6 26.9 C 62.5 26.9 62.4 26.8 62.2 26.8 C 62 26.8 61.7 26.9 61.5 27 C 61.3 27.2 61.2 27.3 61.2 27.5 C 61.2 27.6 61.2 27.6 61.3 27.7 C 61.4 27.8 61.6 27.9 62 28 C 62.3 28.1 62.6 28.2 62.8 28.3 C 62.9 28.4 63 28.6 63 28.8 C 63 29.1 62.8 29.3 62.4 29.6 C 61.9 29.8 61.4 30 60.9 30 C 60.8 30 60.7 29.9 60.6 29.9 C 60.5 29.8 60.4 29.7 60.4 29.6 C 60.4 29.5 60.4 29.5 60.5 29.4 C 60.5 29.3 60.6 29.3 60.6 29.3 C 60.7 29.3 60.7 29.3 60.7 29.3 C 60.9 29.4 61.1 29.4 61.2 29.4 C 61.4 29.4 61.7 29.4 62 29.2 C 62.3 29.1 62.5 29 62.5 28.8 C 62.5 28.8 62.4 28.7 62.3 28.7 C 62.3 28.6 62.1 28.6 61.9 28.5 C 61.6 28.4 61.3 28.3 61.1 28.2 C 61 28.1 60.8 28 60.7 27.9 C 60.7 27.8 60.6 27.7 60.6 27.5 C 60.6 27.2 60.8 27 61.1 26.7 C 61.5 26.5 61.9 26.3 62.3 26.3 C 62.6 26.3 62.8 26.4 62.9 26.5 C 63.1 26.6 63.1 26.7 63.1 26.8 C 63.1 26.8 63.1 26.8 63.1 26.8 Z " stroke="none" fill="#000"/>  </g>  <g id="Polygon13790">    <path d="M 35.3 20.6 C 35.3 20.5 35.3 20.4 35.2 20.4 C 35.1 20.3 35.1 20.3 35 20.3 C 34.8 20.3 34.6 20.4 34.5 20.4 C 34.3 20.5 34.2 20.6 34.2 20.7 C 34.2 20.8 34.3 20.8 34.3 20.9 C 34.4 21 34.6 21 34.8 21.1 C 35 21.1 35.2 21.2 35.3 21.3 C 35.4 21.3 35.4 21.4 35.4 21.5 C 35.4 21.6 35.3 21.7 35.2 21.8 C 35.1 22 34.9 22 34.7 22.1 C 34.5 22.2 34.4 22.2 34.3 22.2 C 34.1 22.2 34.1 22.2 34 22.1 C 34 22.1 33.9 22.1 33.9 22.1 C 33.9 22 33.9 22 34 22 C 34 21.9 34 21.9 34 21.9 C 34 21.9 34 21.9 34.1 21.9 C 34.2 21.9 34.2 22 34.3 22 C 34.5 22 34.7 21.9 34.9 21.8 C 35.1 21.7 35.2 21.6 35.2 21.5 C 35.2 21.5 35.1 21.5 35.1 21.4 C 35 21.4 34.9 21.3 34.6 21.3 C 34.3 21.2 34.2 21.1 34.1 21 C 34 20.9 34 20.8 34 20.7 C 34 20.5 34.1 20.4 34.3 20.3 C 34.5 20.2 34.8 20.1 35 20.1 C 35.1 20.1 35.3 20.1 35.3 20.2 C 35.4 20.2 35.5 20.3 35.5 20.4 C 35.5 20.4 35.5 20.4 35.4 20.5 C 35.4 20.5 35.4 20.6 35.3 20.6 Z M 36.2 20.3 C 36.2 20.3 36.2 20.5 36.1 20.7 C 36.1 20.8 36.1 20.9 36.1 20.9 C 36.1 21 36.1 21 36.1 21.1 C 36 21.3 36 21.5 36 21.5 C 36 21.7 36 21.8 36 21.9 C 36 22 36 22 36 22.1 C 36 22.1 35.9 22.1 35.9 22.1 C 35.8 22.1 35.8 22.1 35.8 22 C 35.8 22 35.8 21.9 35.8 21.8 C 35.8 21.6 35.8 21.5 35.8 21.2 C 35.8 21.2 35.8 21.1 35.8 21.1 C 35.8 21.1 35.8 21 35.8 21 C 35.9 21 35.9 20.9 35.9 20.9 C 35.9 20.8 35.9 20.7 35.9 20.6 C 35.9 20.5 35.9 20.4 35.9 20.3 C 36 20.3 36 20.2 36 20.2 C 36 20.2 36 20.2 36 20.1 C 36.1 20.1 36.1 20.1 36.1 20.1 C 36.1 20.1 36.2 20.1 36.2 20.2 C 36.2 20.2 36.2 20.2 36.2 20.3 Z M 37.8 20.6 C 37.8 20.5 37.8 20.4 37.7 20.4 C 37.7 20.3 37.6 20.3 37.5 20.3 C 37.3 20.3 37.1 20.4 37 20.4 C 36.8 20.5 36.7 20.6 36.7 20.7 C 36.7 20.8 36.8 20.8 36.8 20.9 C 36.9 21 37.1 21 37.3 21.1 C 37.5 21.1 37.7 21.2 37.8 21.3 C 37.9 21.3 37.9 21.4 37.9 21.5 C 37.9 21.6 37.8 21.7 37.7 21.8 C 37.6 22 37.4 22 37.2 22.1 C 37.1 22.2 36.9 22.2 36.8 22.2 C 36.7 22.2 36.6 22.2 36.5 22.1 C 36.5 22.1 36.4 22.1 36.4 22.1 C 36.4 22 36.4 22 36.5 22 C 36.5 21.9 36.5 21.9 36.5 21.9 C 36.5 21.9 36.5 21.9 36.6 21.9 C 36.7 21.9 36.8 22 36.8 22 C 37 22 37.2 21.9 37.4 21.8 C 37.6 21.7 37.7 21.6 37.7 21.5 C 37.7 21.5 37.6 21.5 37.6 21.4 C 37.5 21.4 37.4 21.3 37.1 21.3 C 36.9 21.2 36.7 21.1 36.6 21 C 36.5 20.9 36.5 20.8 36.5 20.7 C 36.5 20.5 36.6 20.4 36.8 20.3 C 37 20.2 37.3 20.1 37.5 20.1 C 37.7 20.1 37.8 20.1 37.9 20.2 C 37.9 20.2 38 20.3 38 20.4 C 38 20.4 38 20.4 38 20.5 C 37.9 20.5 37.9 20.6 37.8 20.6 Z M 38.3 20.5 C 38.2 20.5 38.1 20.5 38.1 20.4 C 38.1 20.4 38 20.4 38 20.4 C 38 20.3 38.1 20.3 38.1 20.3 C 38.1 20.3 38.2 20.3 38.4 20.3 C 38.5 20.3 38.7 20.3 38.8 20.3 C 39 20.2 39.2 20.2 39.5 20.2 C 39.6 20.2 39.7 20.1 39.8 20.1 C 39.9 20.1 39.9 20.2 39.9 20.2 C 40 20.2 40 20.2 40 20.2 C 40.1 20.2 40.1 20.2 40.1 20.2 C 40.1 20.3 40.1 20.3 40.1 20.3 C 40.1 20.3 40.1 20.4 40 20.4 C 40 20.4 40 20.4 39.9 20.4 C 39.9 20.4 39.8 20.4 39.7 20.4 C 39.6 20.4 39.5 20.4 39.4 20.4 C 39.3 20.4 39.2 20.4 39.2 20.4 C 39.1 20.5 39.1 20.7 39.1 21 C 39.1 21.3 39 21.5 39 21.7 C 39 21.8 39.1 21.8 39.1 21.9 C 39.1 22 39.1 22 39.1 22 C 39.1 22 39.1 22 39.1 22.1 C 39 22.1 39 22.1 39 22.1 C 38.9 22.1 38.9 22.1 38.9 22.1 C 38.8 22 38.8 21.9 38.8 21.7 C 38.8 21.5 38.8 21.1 38.9 20.5 C 38.9 20.5 38.9 20.5 38.9 20.5 C 38.9 20.5 38.9 20.4 38.9 20.4 C 38.8 20.4 38.7 20.5 38.6 20.5 C 38.4 20.5 38.3 20.5 38.3 20.5 C 38.3 20.5 38.3 20.5 38.3 20.5 Z M 41.5 20.3 C 41.5 20.3 41.5 20.3 41.5 20.3 C 41.4 20.3 41.4 20.3 41.3 20.4 C 41.3 20.4 41.2 20.4 41.2 20.4 C 41.2 20.4 41.1 20.4 41.1 20.4 C 41.1 20.4 41 20.4 40.9 20.4 C 40.7 20.4 40.6 20.4 40.5 20.4 C 40.5 20.5 40.5 20.5 40.5 20.6 C 40.5 20.6 40.5 20.7 40.4 20.7 C 40.4 20.9 40.4 21 40.4 21.1 C 40.4 21.1 40.4 21.1 40.4 21.1 C 40.4 21.1 40.5 21.1 40.7 21.1 C 40.8 21 40.9 21 40.9 21 C 41.1 21 41.2 21 41.2 21 C 41.4 21 41.4 21 41.4 21.1 C 41.4 21.1 41.4 21.2 41.3 21.2 C 41.2 21.2 41.1 21.2 40.8 21.3 C 40.5 21.3 40.4 21.3 40.4 21.3 C 40.3 21.4 40.3 21.4 40.3 21.6 C 40.3 21.7 40.3 21.8 40.3 21.9 C 40.3 21.9 40.3 21.9 40.3 21.9 C 40.3 21.9 40.3 21.9 40.4 21.9 C 40.4 21.9 40.4 21.9 40.4 21.9 C 40.4 21.9 40.5 21.9 40.6 21.9 C 40.6 21.9 40.8 21.9 40.8 21.9 C 40.9 21.9 41 21.9 41.1 21.8 C 41.2 21.8 41.3 21.8 41.3 21.8 C 41.4 21.8 41.4 21.8 41.4 21.8 C 41.5 21.9 41.5 21.9 41.5 21.9 C 41.5 22 41.5 22 41.4 22 C 41.4 22 41.2 22.1 41.1 22.1 C 41 22.1 40.8 22.1 40.5 22.1 C 40.4 22.2 40.3 22.2 40.2 22.2 C 40.1 22.2 40.1 22.2 40.1 22.1 C 40 22.1 40 22.1 40 22 C 40.01 22.02 40 22 40 22 C 40 22 40 21.97 40 22 C 40 22 40 21.9 40 21.9 C 40 21.8 40.1 21.7 40.1 21.5 C 40.1 21.3 40.2 21.2 40.2 21.1 C 40.2 21.1 40.2 21 40.2 21 C 40.2 20.8 40.2 20.6 40.2 20.5 C 40.2 20.5 40.2 20.4 40.2 20.4 C 40.2 20.4 40.2 20.4 40.2 20.4 C 40.2 20.4 40.2 20.4 40.2 20.4 C 40.2 20.3 40.2 20.3 40.2 20.3 C 40.2 20.3 40.2 20.3 40.2 20.3 C 40.2 20.3 40.2 20.3 40.2 20.2 C 40.2 20.2 40.3 20.2 40.3 20.2 C 40.3 20.2 40.3 20.2 40.3 20.2 C 40.3 20.2 40.4 20.2 40.4 20.2 C 40.4 20.2 40.4 20.2 40.4 20.2 C 40.4 20.2 40.5 20.2 40.7 20.2 C 40.9 20.2 41.1 20.2 41.4 20.1 C 41.4 20.1 41.4 20.1 41.4 20.1 C 41.4 20.1 41.4 20.1 41.4 20.1 C 41.5 20.1 41.5 20.1 41.6 20.1 C 41.6 20.1 41.6 20.2 41.6 20.2 C 41.6 20.3 41.6 20.3 41.6 20.3 C 41.6 20.3 41.5 20.3 41.5 20.3 Z M 43.8 20.6 C 43.8 20.5 43.8 20.5 43.7 20.5 C 43.7 20.6 43.5 20.8 43.3 21 C 43.2 21.3 43 21.4 42.9 21.5 C 42.9 21.6 42.8 21.6 42.8 21.6 C 42.7 21.6 42.7 21.6 42.7 21.5 C 42.6 21.5 42.6 21.4 42.5 21.2 C 42.4 20.9 42.3 20.7 42.3 20.6 C 42.3 20.6 42.3 20.7 42.3 20.8 C 42.2 20.9 42.2 21.1 42.2 21.3 C 42.1 21.7 42 21.9 42 22.1 C 42 22.1 42 22.1 42 22.1 C 41.9 22.1 41.9 22.2 41.9 22.2 C 41.9 22.2 41.8 22.1 41.8 22.1 C 41.8 22.1 41.8 22 41.8 22 C 41.8 21.9 41.8 21.8 41.8 21.6 C 41.8 21.6 42 21.2 42 21.2 C 42 20.9 42.1 20.7 42.1 20.6 C 42.1 20.4 42.1 20.3 42.1 20.3 C 42.1 20.2 42.2 20.1 42.3 20.1 C 42.3 20.1 42.3 20.2 42.4 20.2 C 42.4 20.2 42.4 20.3 42.4 20.3 C 42.4 20.4 42.5 20.4 42.5 20.4 C 42.5 20.4 42.7 20.9 42.7 20.9 C 42.7 21.1 42.8 21.3 42.8 21.3 C 42.8 21.3 42.8 21.3 42.8 21.3 C 42.9 21.3 43 21.1 43.3 20.7 C 43.6 20.3 43.8 20.1 43.8 20.1 C 43.9 20.1 43.9 20.1 44 20.1 C 44 20.2 44 20.2 44 20.2 C 44 20.2 44 20.4 43.9 20.8 C 43.9 20.9 43.9 21.1 43.9 21.3 C 43.9 21.5 43.9 21.6 43.9 21.6 C 43.9 21.7 43.9 21.7 43.9 21.8 C 43.9 21.8 43.9 21.9 43.9 21.9 C 43.9 21.9 43.9 22 43.9 22 C 43.9 22.1 43.9 22.1 43.8 22.1 C 43.8 22.1 43.8 22.1 43.8 22.1 C 43.7 22.1 43.6 22 43.6 21.9 C 43.6 21.7 43.7 21.4 43.7 20.8 C 43.7 20.8 43.7 20.8 43.7 20.8 C 43.7 20.7 43.7 20.7 43.7 20.7 C 43.8 20.6 43.8 20.6 43.8 20.6 C 43.8 20.6 43.8 20.6 43.8 20.6 Z M 45.3 20.1 C 45.4 20.1 45.4 20.1 45.4 20.2 C 45.5 20.2 45.5 20.2 45.5 20.2 C 45.5 20.3 45.5 20.3 45.4 20.3 C 45.4 20.3 45.5 20.4 45.5 20.4 C 45.5 20.5 45.5 20.6 45.6 20.6 C 45.6 20.7 45.6 20.8 45.7 20.9 C 45.7 21.2 45.8 21.4 45.9 21.5 C 46 21.7 46.1 21.8 46.1 21.9 C 46.2 21.9 46.2 22 46.2 22 C 46.2 22 46.2 22 46.2 22 C 46.2 22.1 46.2 22.1 46.2 22.1 C 46.2 22.2 46.1 22.2 46.1 22.2 C 46 22.2 45.9 22 45.7 21.6 C 45.6 21.5 45.6 21.4 45.6 21.4 C 45.5 21.4 45.4 21.4 45.3 21.5 C 45.2 21.5 45 21.5 44.9 21.6 C 44.8 21.6 44.8 21.6 44.8 21.6 C 44.8 21.6 44.7 21.6 44.7 21.6 C 44.7 21.6 44.7 21.6 44.7 21.6 C 44.7 21.6 44.6 21.6 44.6 21.7 C 44.5 21.9 44.4 22 44.4 22.1 C 44.3 22.1 44.3 22.1 44.3 22.1 C 44.3 22.1 44.2 22.1 44.2 22.1 C 44.2 22.1 44.1 22 44.1 22 C 44.1 22 44.2 21.9 44.2 21.9 C 44.2 21.8 44.3 21.7 44.4 21.6 C 44.6 21.3 44.7 21.1 44.8 20.9 C 45 20.5 45.1 20.3 45.2 20.2 C 45.2 20.1 45.3 20.1 45.3 20.1 C 45.3 20.1 45.3 20.1 45.3 20.1 Z M 45.1 21.3 C 45.3 21.2 45.5 21.2 45.5 21.2 C 45.5 21.1 45.5 21 45.4 20.8 C 45.3 20.6 45.3 20.5 45.3 20.5 C 45.2 20.6 45.1 20.7 45 20.9 C 45 20.9 44.8 21.4 44.8 21.4 C 44.8 21.3 44.9 21.3 44.9 21.3 C 45 21.3 45.1 21.3 45.1 21.3 C 45.1 21.3 45.1 21.3 45.1 21.3 Z M 49 20.3 C 49 20.3 49 20.3 48.9 20.3 C 48.9 20.3 48.8 20.3 48.8 20.4 C 48.7 20.4 48.7 20.4 48.7 20.4 C 48.6 20.4 48.6 20.4 48.6 20.4 C 48.5 20.4 48.5 20.4 48.3 20.4 C 48.2 20.4 48.1 20.4 48 20.4 C 48 20.5 48 20.5 47.9 20.6 C 47.9 20.6 47.9 20.7 47.9 20.7 C 47.9 20.9 47.9 21 47.9 21.1 C 47.9 21.1 47.9 21.1 47.9 21.1 C 47.9 21.1 48 21.1 48.1 21.1 C 48.3 21 48.3 21 48.4 21 C 48.5 21 48.6 21 48.7 21 C 48.8 21 48.9 21 48.9 21.1 C 48.9 21.1 48.8 21.2 48.8 21.2 C 48.7 21.2 48.5 21.2 48.3 21.3 C 48 21.3 47.9 21.3 47.8 21.3 C 47.8 21.4 47.8 21.4 47.8 21.6 C 47.8 21.7 47.7 21.8 47.7 21.9 C 47.7 21.9 47.7 21.9 47.7 21.9 C 47.7 21.9 47.8 21.9 47.8 21.9 C 47.8 21.9 47.9 21.9 47.9 21.9 C 47.9 21.9 48 21.9 48 21.9 C 48 21.9 48.3 21.9 48.3 21.9 C 48.4 21.9 48.5 21.9 48.6 21.8 C 48.7 21.8 48.8 21.8 48.8 21.8 C 48.8 21.8 48.9 21.8 48.9 21.8 C 48.9 21.9 48.9 21.9 48.9 21.9 C 48.9 22 48.9 22 48.9 22 C 48.8 22 48.7 22.1 48.6 22.1 C 48.4 22.1 48.2 22.1 48 22.1 C 47.9 22.2 47.8 22.2 47.7 22.2 C 47.6 22.2 47.6 22.2 47.5 22.1 C 47.5 22.1 47.5 22.1 47.5 22 C 47.48 22.02 47.5 22 47.5 22 C 47.5 22 47.47 21.97 47.5 22 C 47.5 22 47.5 21.9 47.5 21.9 C 47.5 21.8 47.5 21.7 47.6 21.5 C 47.6 21.3 47.6 21.2 47.6 21.1 C 47.6 21.1 47.6 21 47.7 21 C 47.7 20.8 47.7 20.6 47.7 20.5 C 47.7 20.5 47.7 20.4 47.7 20.4 C 47.7 20.4 47.7 20.4 47.7 20.4 C 47.7 20.4 47.7 20.4 47.7 20.4 C 47.7 20.3 47.7 20.3 47.7 20.3 C 47.7 20.3 47.7 20.3 47.7 20.3 C 47.7 20.3 47.7 20.3 47.7 20.2 C 47.7 20.2 47.7 20.2 47.8 20.2 C 47.8 20.2 47.8 20.2 47.8 20.2 C 47.8 20.2 47.8 20.2 47.9 20.2 C 47.9 20.2 47.9 20.2 47.9 20.2 C 47.9 20.2 48 20.2 48.2 20.2 C 48.4 20.2 48.6 20.2 48.8 20.1 C 48.9 20.1 48.9 20.1 48.9 20.1 C 48.9 20.1 48.9 20.1 48.9 20.1 C 49 20.1 49 20.1 49 20.1 C 49.1 20.1 49.1 20.2 49.1 20.2 C 49.1 20.3 49.1 20.3 49.1 20.3 C 49 20.3 49 20.3 49 20.3 Z M 49.3 21.9 C 49.3 21.8 49.3 21.7 49.3 21.7 C 49.3 21.7 49.4 21.6 49.4 21.4 C 49.4 21.2 49.4 20.9 49.5 20.7 C 49.5 20.4 49.5 20.3 49.5 20.2 C 49.5 20.2 49.5 20.2 49.5 20.1 C 49.6 20.1 49.6 20.1 49.6 20.1 C 49.7 20.1 49.7 20.1 49.7 20.2 C 49.7 20.2 49.8 20.2 49.8 20.2 C 49.8 20.3 49.8 20.3 49.7 20.4 C 49.7 20.5 49.7 20.8 49.6 21.1 C 49.6 21.5 49.6 21.7 49.6 21.8 C 49.6 21.8 49.6 21.8 49.6 21.8 C 49.6 21.8 49.6 21.8 49.6 21.8 C 49.7 21.8 49.8 21.8 49.9 21.8 C 50 21.8 50.2 21.8 50.5 21.8 C 50.5 21.8 50.6 21.7 50.7 21.7 C 50.7 21.7 50.7 21.7 50.7 21.7 C 50.7 21.7 50.7 21.7 50.8 21.8 C 50.8 21.8 50.8 21.8 50.8 21.8 C 50.8 21.9 50.8 21.9 50.7 22 C 50.7 22 50.7 22 50.6 22 C 50.6 22 50.6 22 50.5 22 C 50.4 22 50.4 22 50.4 22 C 50.1 22 49.8 22 49.5 22.1 C 49.5 22.1 49.4 22.1 49.4 22.1 C 49.4 22.1 49.3 22.1 49.3 22.1 C 49.3 22.1 49.3 22 49.3 22 C 49.3 22 49.3 21.9 49.3 21.9 C 49.3 21.9 49.3 21.9 49.3 21.9 Z M 52.5 20.3 C 52.5 20.3 52.5 20.3 52.4 20.3 C 52.4 20.3 52.3 20.3 52.3 20.4 C 52.2 20.4 52.2 20.4 52.1 20.4 C 52.1 20.4 52.1 20.4 52.1 20.4 C 52 20.4 51.9 20.4 51.8 20.4 C 51.7 20.4 51.6 20.4 51.5 20.4 C 51.5 20.5 51.4 20.5 51.4 20.6 C 51.4 20.6 51.4 20.7 51.4 20.7 C 51.4 20.9 51.3 21 51.3 21.1 C 51.3 21.1 51.4 21.1 51.4 21.1 C 51.4 21.1 51.5 21.1 51.6 21.1 C 51.7 21 51.8 21 51.9 21 C 52 21 52.1 21 52.2 21 C 52.3 21 52.4 21 52.4 21.1 C 52.4 21.1 52.3 21.2 52.3 21.2 C 52.2 21.2 52 21.2 51.8 21.3 C 51.5 21.3 51.3 21.3 51.3 21.3 C 51.3 21.4 51.3 21.4 51.3 21.6 C 51.2 21.7 51.2 21.8 51.2 21.9 C 51.2 21.9 51.2 21.9 51.2 21.9 C 51.2 21.9 51.3 21.9 51.3 21.9 C 51.3 21.9 51.3 21.9 51.3 21.9 C 51.4 21.9 51.5 21.9 51.5 21.9 C 51.5 21.9 51.8 21.9 51.8 21.9 C 51.9 21.9 52 21.9 52.1 21.8 C 52.2 21.8 52.3 21.8 52.3 21.8 C 52.3 21.8 52.4 21.8 52.4 21.8 C 52.4 21.9 52.4 21.9 52.4 21.9 C 52.4 22 52.4 22 52.4 22 C 52.3 22 52.2 22.1 52.1 22.1 C 51.9 22.1 51.7 22.1 51.5 22.1 C 51.3 22.2 51.3 22.2 51.2 22.2 C 51.1 22.2 51 22.2 51 22.1 C 51 22.1 51 22.1 51 22 C 50.97 22.02 51 22 51 22 C 51 22 50.96 21.97 51 22 C 51 22 51 21.9 51 21.9 C 51 21.8 51 21.7 51.1 21.5 C 51.1 21.3 51.1 21.2 51.1 21.1 C 51.1 21.1 51.1 21 51.1 21 C 51.2 20.8 51.2 20.6 51.2 20.5 C 51.2 20.5 51.2 20.4 51.2 20.4 C 51.2 20.4 51.2 20.4 51.2 20.4 C 51.2 20.4 51.2 20.4 51.1 20.4 C 51.1 20.3 51.1 20.3 51.1 20.3 C 51.1 20.3 51.1 20.3 51.1 20.3 C 51.1 20.3 51.2 20.3 51.2 20.2 C 51.2 20.2 51.2 20.2 51.2 20.2 C 51.2 20.2 51.2 20.2 51.2 20.2 C 51.3 20.2 51.3 20.2 51.4 20.2 C 51.4 20.2 51.4 20.2 51.4 20.2 C 51.4 20.2 51.5 20.2 51.7 20.2 C 51.9 20.2 52.1 20.2 52.3 20.1 C 52.3 20.1 52.4 20.1 52.4 20.1 C 52.4 20.1 52.4 20.1 52.4 20.1 C 52.5 20.1 52.5 20.1 52.5 20.1 C 52.6 20.1 52.6 20.2 52.6 20.2 C 52.6 20.3 52.6 20.3 52.5 20.3 C 52.5 20.3 52.5 20.3 52.5 20.3 Z M 53.3 20.3 C 53.3 20.3 53.3 20.5 53.2 20.7 C 53.2 20.8 53.2 20.9 53.2 20.9 C 53.1 21 53.1 21 53.1 21.1 C 53.1 21.3 53.1 21.5 53.1 21.5 C 53.1 21.7 53.1 21.8 53.1 21.9 C 53.1 22 53.1 22 53.1 22.1 C 53 22.1 53 22.1 53 22.1 C 52.9 22.1 52.9 22.1 52.9 22 C 52.8 22 52.8 21.9 52.8 21.8 C 52.8 21.6 52.9 21.5 52.9 21.2 C 52.9 21.2 52.9 21.1 52.9 21.1 C 52.9 21.1 52.9 21 52.9 21 C 52.9 21 52.9 20.9 52.9 20.9 C 52.9 20.8 53 20.7 53 20.6 C 53 20.5 53 20.4 53 20.3 C 53 20.3 53 20.2 53 20.2 C 53.1 20.2 53.1 20.2 53.1 20.1 C 53.1 20.1 53.2 20.1 53.2 20.1 C 53.2 20.1 53.2 20.1 53.3 20.2 C 53.3 20.2 53.3 20.2 53.3 20.3 Z M 53.6 20.5 C 53.5 20.5 53.5 20.5 53.4 20.4 C 53.4 20.4 53.4 20.4 53.4 20.4 C 53.4 20.3 53.4 20.3 53.5 20.3 C 53.5 20.3 53.6 20.3 53.7 20.3 C 53.9 20.3 54.1 20.3 54.2 20.3 C 54.3 20.2 54.6 20.2 54.9 20.2 C 55 20.2 55.1 20.1 55.2 20.1 C 55.2 20.1 55.3 20.2 55.3 20.2 C 55.4 20.2 55.4 20.2 55.4 20.2 C 55.4 20.2 55.5 20.2 55.5 20.2 C 55.5 20.3 55.5 20.3 55.5 20.3 C 55.5 20.3 55.5 20.4 55.4 20.4 C 55.4 20.4 55.3 20.4 55.3 20.4 C 55.2 20.4 55.2 20.4 55.1 20.4 C 55 20.4 54.9 20.4 54.8 20.4 C 54.6 20.4 54.6 20.4 54.5 20.4 C 54.5 20.5 54.5 20.7 54.5 21 C 54.4 21.3 54.4 21.5 54.4 21.7 C 54.4 21.8 54.4 21.8 54.5 21.9 C 54.5 22 54.5 22 54.5 22 C 54.5 22 54.5 22 54.4 22.1 C 54.4 22.1 54.4 22.1 54.4 22.1 C 54.3 22.1 54.3 22.1 54.2 22.1 C 54.2 22 54.2 21.9 54.2 21.7 C 54.2 21.5 54.2 21.1 54.3 20.5 C 54.3 20.5 54.3 20.5 54.3 20.5 C 54.3 20.5 54.3 20.4 54.3 20.4 C 54.2 20.4 54.1 20.5 54 20.5 C 53.8 20.5 53.7 20.5 53.6 20.5 C 53.6 20.5 53.6 20.5 53.6 20.5 Z M 55.9 22.2 C 55.7 22.2 55.6 22.1 55.5 22 C 55.4 21.8 55.3 21.7 55.3 21.5 C 55.3 21.3 55.4 21.1 55.5 20.9 C 55.6 20.7 55.7 20.5 55.9 20.3 C 56.1 20.2 56.3 20.1 56.5 20.1 C 56.6 20.1 56.7 20.1 56.8 20.2 C 56.9 20.2 57 20.3 57.1 20.3 C 57.2 20.4 57.2 20.5 57.3 20.5 C 57.3 20.6 57.3 20.7 57.3 20.8 C 57.3 21 57.3 21.1 57.2 21.3 C 57.1 21.4 57 21.6 56.8 21.7 C 56.7 21.9 56.5 22 56.4 22.1 C 56.3 22.1 56.1 22.2 55.9 22.2 Z M 55.6 21.5 C 55.6 21.6 55.6 21.7 55.7 21.8 C 55.8 21.9 55.9 21.9 56 21.9 C 56.2 21.9 56.5 21.8 56.7 21.6 C 56.9 21.3 57 21.1 57 20.8 C 57 20.7 57 20.6 57 20.5 C 56.9 20.5 56.9 20.4 56.8 20.4 C 56.7 20.3 56.6 20.3 56.5 20.3 C 56.3 20.3 56.1 20.4 55.9 20.7 C 55.7 21 55.6 21.2 55.6 21.5 Z M 57.9 20.2 C 58.2 20.1 58.4 20.1 58.5 20.1 C 58.7 20.1 58.8 20.2 58.9 20.2 C 59 20.3 59.1 20.4 59.1 20.6 C 59.1 20.7 59 20.8 58.9 21 C 58.8 21.1 58.7 21.2 58.5 21.2 C 58.5 21.3 58.4 21.3 58.4 21.3 C 58.4 21.3 58.5 21.4 58.7 21.5 C 58.9 21.7 59.1 21.8 59.2 21.9 C 59.3 21.9 59.3 21.9 59.3 22 C 59.3 22 59.3 22 59.2 22.1 C 59.2 22.1 59.2 22.1 59.2 22.1 C 59.1 22.1 59 22.1 58.9 22 C 58.8 21.9 58.7 21.8 58.6 21.7 C 58.3 21.5 58.1 21.3 58.1 21.3 C 58 21.3 58 21.3 58 21.3 C 57.9 21.3 57.9 21.3 57.9 21.2 C 57.9 21.2 58 21.2 58 21.1 C 58 21.1 58.1 21.1 58.1 21.1 C 58.1 21.1 58.1 21.1 58.2 21.1 C 58.2 21.1 58.2 21.1 58.2 21.1 C 58.3 21.1 58.4 21.1 58.6 21 C 58.8 20.9 58.9 20.7 58.9 20.6 C 58.9 20.5 58.8 20.4 58.8 20.4 C 58.7 20.3 58.6 20.3 58.5 20.3 C 58.4 20.3 58.3 20.3 58.2 20.3 C 58.1 20.3 58 20.3 58 20.4 C 58 20.4 58 20.4 58 20.4 C 57.9 20.5 57.9 20.6 57.9 20.8 C 57.8 21 57.8 21.2 57.8 21.3 C 57.8 21.5 57.8 21.7 57.8 21.7 C 57.8 21.8 57.8 21.9 57.8 21.9 C 57.8 21.9 57.8 22 57.8 22 C 57.8 22 57.8 22.1 57.8 22.1 C 57.7 22.1 57.7 22.1 57.7 22.1 C 57.6 22.1 57.5 22.1 57.5 21.9 C 57.5 21.6 57.6 21.1 57.7 20.5 C 57.7 20.5 57.7 20.4 57.7 20.4 C 57.7 20.4 57.7 20.4 57.7 20.4 C 57.7 20.4 57.7 20.3 57.7 20.3 C 57.7 20.3 57.7 20.2 57.7 20.2 C 57.7 20.2 57.8 20.2 57.8 20.2 C 57.8 20.2 57.9 20.2 57.9 20.2 Z M 60.4 20.1 C 60.5 20.1 60.5 20.1 60.6 20.2 C 60.6 20.2 60.6 20.2 60.6 20.2 C 60.6 20.3 60.6 20.3 60.6 20.3 C 60.6 20.3 60.6 20.4 60.6 20.4 C 60.6 20.5 60.6 20.6 60.7 20.6 C 60.7 20.7 60.7 20.8 60.8 20.9 C 60.8 21.2 60.9 21.4 61 21.5 C 61.1 21.7 61.2 21.8 61.3 21.9 C 61.3 21.9 61.3 22 61.3 22 C 61.3 22 61.4 22 61.4 22 C 61.4 22.1 61.3 22.1 61.3 22.1 C 61.3 22.2 61.3 22.2 61.2 22.2 C 61.1 22.2 61 22 60.8 21.6 C 60.7 21.5 60.7 21.4 60.7 21.4 C 60.6 21.4 60.6 21.4 60.4 21.5 C 60.3 21.5 60.1 21.5 60 21.6 C 60 21.6 59.9 21.6 59.9 21.6 C 59.9 21.6 59.8 21.6 59.8 21.6 C 59.8 21.6 59.8 21.6 59.8 21.6 C 59.8 21.6 59.7 21.6 59.7 21.7 C 59.6 21.9 59.5 22 59.5 22.1 C 59.5 22.1 59.4 22.1 59.4 22.1 C 59.4 22.1 59.3 22.1 59.3 22.1 C 59.3 22.1 59.2 22 59.2 22 C 59.2 22 59.3 21.9 59.3 21.9 C 59.3 21.8 59.4 21.7 59.5 21.6 C 59.7 21.3 59.8 21.1 59.9 20.9 C 60.1 20.5 60.3 20.3 60.3 20.2 C 60.4 20.1 60.4 20.1 60.4 20.1 C 60.4 20.1 60.4 20.1 60.4 20.1 Z M 60.2 21.3 C 60.5 21.2 60.6 21.2 60.6 21.2 C 60.6 21.1 60.6 21 60.5 20.8 C 60.4 20.6 60.4 20.5 60.4 20.5 C 60.3 20.6 60.2 20.7 60.1 20.9 C 60.1 20.9 59.9 21.4 59.9 21.4 C 59.9 21.3 60 21.3 60.1 21.3 C 60.1 21.3 60.2 21.3 60.2 21.3 C 60.2 21.3 60.2 21.3 60.2 21.3 Z M 61.6 21.9 C 61.6 21.8 61.6 21.7 61.6 21.7 C 61.6 21.7 61.6 21.6 61.6 21.4 C 61.7 21.2 61.7 20.9 61.7 20.7 C 61.7 20.4 61.7 20.3 61.8 20.2 C 61.8 20.2 61.8 20.2 61.8 20.1 C 61.8 20.1 61.9 20.1 61.9 20.1 C 61.9 20.1 62 20.1 62 20.2 C 62 20.2 62 20.2 62 20.2 C 62 20.3 62 20.3 62 20.4 C 62 20.5 61.9 20.8 61.9 21.1 C 61.8 21.5 61.8 21.7 61.8 21.8 C 61.8 21.8 61.8 21.8 61.8 21.8 C 61.8 21.8 61.9 21.8 61.9 21.8 C 61.9 21.8 62 21.8 62.2 21.8 C 62.3 21.8 62.5 21.8 62.7 21.8 C 62.8 21.8 62.8 21.7 62.9 21.7 C 62.9 21.7 62.9 21.7 62.9 21.7 C 63 21.7 63 21.7 63 21.8 C 63 21.8 63 21.8 63 21.8 C 63 21.9 63 21.9 63 22 C 62.9 22 62.9 22 62.9 22 C 62.8 22 62.8 22 62.7 22 C 62.7 22 62.6 22 62.6 22 C 62.3 22 62 22 61.8 22.1 C 61.7 22.1 61.7 22.1 61.7 22.1 C 61.6 22.1 61.6 22.1 61.6 22.1 C 61.5 22.1 61.5 22 61.5 22 C 61.5 22 61.5 21.9 61.6 21.9 C 61.6 21.9 61.6 21.9 61.6 21.9 Z M 63.4 21.7 C 63.4 21.7 63.4 21.7 63.4 21.7 C 63.4 21.7 63.4 21.7 63.5 21.7 C 63.5 21.7 63.5 21.8 63.5 21.8 C 63.5 21.8 63.5 21.9 63.5 21.9 C 63.4 21.9 63.4 22 63.4 22 C 63.3 22 63.3 22 63.3 22 C 63.3 22 63.2 22 63.2 22 C 63.2 22 63.2 21.9 63.2 21.9 C 63.2 21.8 63.2 21.8 63.2 21.7 C 63.2 21.7 63.2 21.7 63.3 21.7 C 63.3 21.7 63.3 21.7 63.4 21.7 Z " stroke="none" fill="#000"/>  </g>  <g id="Polygon13789">    <path d="M 5.7 16.6 C 5.7 16.6 5.7 16.6 5.7 16.5 C 5.7 16.5 5.8 16.4 6 16.3 C 6.2 16.3 6.4 16.3 6.6 16.3 C 6.8 16.3 7 16.3 7.1 16.4 C 7.2 16.5 7.3 16.6 7.3 16.7 C 7.3 16.9 7.1 17.1 6.9 17.2 C 6.7 17.4 6.4 17.5 6.1 17.6 C 6 17.6 5.9 17.6 5.9 17.6 C 5.9 17.6 5.9 17.7 5.9 17.9 C 5.9 18 5.9 18.1 5.9 18.2 C 5.9 18.2 5.8 18.2 5.8 18.3 C 5.8 18.3 5.8 18.3 5.7 18.3 C 5.6 18.3 5.6 18.3 5.6 18.2 C 5.6 18.1 5.6 17.9 5.7 17.7 C 5.7 17.7 5.7 16.9 5.7 16.9 C 5.8 16.9 5.8 16.8 5.8 16.8 C 5.7 16.7 5.7 16.7 5.7 16.6 Z M 6.6 16.5 C 6.4 16.5 6.2 16.5 6 16.6 C 6 16.6 6 16.6 6 16.7 C 6 16.8 6 17 5.9 17.1 C 5.9 17.2 5.9 17.3 5.9 17.4 C 6.2 17.3 6.5 17.3 6.7 17.1 C 6.9 17 7 16.9 7 16.7 C 7 16.5 6.9 16.5 6.6 16.5 C 6.6 16.5 6.6 16.5 6.6 16.5 Z M 8.9 16.5 C 8.9 16.5 8.9 16.5 8.9 16.5 C 8.8 16.5 8.8 16.5 8.7 16.5 C 8.7 16.5 8.6 16.5 8.6 16.5 C 8.6 16.5 8.5 16.5 8.5 16.6 C 8.5 16.6 8.4 16.6 8.3 16.6 C 8.1 16.6 8 16.6 8 16.6 C 7.9 16.6 7.9 16.7 7.9 16.7 C 7.9 16.8 7.9 16.8 7.9 16.9 C 7.8 17.1 7.8 17.2 7.8 17.2 C 7.8 17.2 7.8 17.2 7.8 17.2 C 7.9 17.2 7.9 17.2 8.1 17.2 C 8.2 17.2 8.3 17.2 8.4 17.2 C 8.5 17.1 8.6 17.1 8.7 17.1 C 8.8 17.1 8.8 17.2 8.8 17.2 C 8.8 17.3 8.8 17.3 8.7 17.4 C 8.6 17.4 8.5 17.4 8.2 17.4 C 8 17.5 7.8 17.5 7.8 17.5 C 7.8 17.5 7.7 17.6 7.7 17.8 C 7.7 17.9 7.7 18 7.7 18 C 7.7 18 7.7 18 7.7 18 C 7.7 18.1 7.7 18.1 7.8 18.1 C 7.8 18.1 7.8 18.1 7.8 18.1 C 7.9 18.1 7.9 18.1 8 18.1 C 8 18.1 8.2 18.1 8.2 18.1 C 8.3 18 8.4 18 8.5 18 C 8.6 18 8.7 18 8.8 18 C 8.8 18 8.8 18 8.8 18 C 8.9 18 8.9 18.1 8.9 18.1 C 8.9 18.1 8.9 18.2 8.9 18.2 C 8.8 18.2 8.7 18.2 8.5 18.2 C 8.4 18.2 8.2 18.3 7.9 18.3 C 7.8 18.3 7.7 18.3 7.7 18.3 C 7.6 18.3 7.5 18.3 7.5 18.3 C 7.4 18.3 7.4 18.3 7.4 18.2 C 7.43 18.19 7.4 18.1 7.4 18.1 C 7.4 18.1 7.42 18.14 7.4 18.1 C 7.4 18.1 7.4 18.1 7.4 18 C 7.5 18 7.5 17.9 7.5 17.7 C 7.6 17.5 7.6 17.4 7.6 17.3 C 7.6 17.2 7.6 17.2 7.6 17.1 C 7.6 16.9 7.7 16.8 7.7 16.6 C 7.7 16.6 7.7 16.6 7.6 16.6 C 7.6 16.6 7.6 16.6 7.6 16.6 C 7.6 16.5 7.6 16.5 7.6 16.5 C 7.6 16.5 7.6 16.5 7.6 16.5 C 7.6 16.5 7.6 16.5 7.6 16.5 C 7.6 16.4 7.6 16.4 7.6 16.4 C 7.7 16.4 7.7 16.4 7.7 16.4 C 7.7 16.4 7.7 16.4 7.7 16.4 C 7.7 16.4 7.8 16.4 7.8 16.4 C 7.8 16.4 7.8 16.4 7.8 16.4 C 7.9 16.4 8 16.4 8.1 16.4 C 8.3 16.4 8.5 16.3 8.8 16.3 C 8.8 16.3 8.8 16.3 8.8 16.3 C 8.8 16.3 8.8 16.3 8.8 16.3 C 8.9 16.3 9 16.3 9 16.3 C 9 16.3 9 16.3 9 16.4 C 9 16.4 9 16.4 9 16.5 C 9 16.5 9 16.5 8.9 16.5 Z M 10.5 16.7 C 10.5 16.6 10.5 16.6 10.4 16.5 C 10.4 16.5 10.3 16.5 10.2 16.5 C 10 16.5 9.8 16.5 9.7 16.6 C 9.5 16.7 9.5 16.8 9.5 16.9 C 9.5 16.9 9.5 17 9.6 17.1 C 9.6 17.1 9.8 17.2 10 17.2 C 10.2 17.3 10.4 17.4 10.5 17.4 C 10.6 17.5 10.6 17.6 10.6 17.7 C 10.6 17.8 10.6 17.9 10.4 18 C 10.3 18.1 10.1 18.2 10 18.3 C 9.8 18.3 9.6 18.4 9.5 18.4 C 9.4 18.4 9.3 18.3 9.2 18.3 C 9.2 18.3 9.2 18.3 9.2 18.2 C 9.2 18.2 9.2 18.2 9.2 18.1 C 9.2 18.1 9.2 18.1 9.2 18.1 C 9.2 18.1 9.3 18.1 9.3 18.1 C 9.4 18.1 9.5 18.1 9.6 18.1 C 9.7 18.1 9.9 18.1 10.1 18 C 10.3 17.9 10.4 17.8 10.4 17.7 C 10.4 17.7 10.4 17.6 10.3 17.6 C 10.2 17.6 10.1 17.5 9.9 17.4 C 9.6 17.3 9.4 17.3 9.3 17.2 C 9.3 17.1 9.2 17 9.2 16.9 C 9.2 16.7 9.3 16.6 9.6 16.4 C 9.8 16.3 10 16.3 10.2 16.3 C 10.4 16.3 10.5 16.3 10.6 16.3 C 10.7 16.4 10.7 16.5 10.7 16.5 C 10.7 16.6 10.7 16.6 10.7 16.7 C 10.7 16.7 10.6 16.7 10.5 16.7 Z M 12.4 16.5 C 12.5 16.6 12.6 16.7 12.7 16.8 C 12.7 17 12.8 17.1 12.8 17.2 C 12.8 17.4 12.7 17.5 12.6 17.7 C 12.5 17.8 12.4 18 12.2 18.1 C 12.3 18.1 12.3 18.2 12.5 18.3 C 12.6 18.5 12.6 18.5 12.6 18.6 C 12.6 18.6 12.6 18.6 12.6 18.6 C 12.5 18.7 12.5 18.7 12.5 18.7 C 12.4 18.7 12.4 18.7 12.4 18.6 C 12.3 18.6 12.3 18.5 12.2 18.3 C 12.1 18.2 12 18.2 12 18.2 C 12 18.2 12 18.2 12 18.2 C 11.8 18.2 11.7 18.3 11.5 18.3 C 11.4 18.3 11.2 18.2 11.1 18.1 C 10.9 18 10.9 17.9 10.9 17.7 C 10.9 17.5 10.9 17.3 11.1 17 C 11.2 16.8 11.4 16.6 11.6 16.4 C 11.8 16.3 12 16.2 12.2 16.2 C 12.2 16.2 12.3 16.2 12.3 16.3 C 12.4 16.3 12.4 16.4 12.4 16.5 Z M 11.5 18.1 C 11.6 18.1 11.8 18 11.9 18 C 11.9 18 11.8 17.9 11.8 17.9 C 11.7 17.8 11.7 17.8 11.7 17.8 C 11.7 17.7 11.7 17.7 11.7 17.7 C 11.8 17.6 11.8 17.6 11.8 17.6 C 11.8 17.6 11.8 17.6 11.9 17.6 C 11.9 17.6 11.9 17.6 12 17.7 C 12 17.7 12 17.8 12 17.8 C 12.1 17.9 12.1 17.9 12.1 17.9 C 12.2 17.9 12.3 17.8 12.4 17.7 C 12.5 17.5 12.6 17.4 12.6 17.3 C 12.6 17.1 12.5 16.9 12.4 16.7 C 12.2 16.6 12.1 16.5 12.1 16.5 C 11.9 16.5 11.8 16.5 11.7 16.7 C 11.5 16.8 11.4 17 11.3 17.2 C 11.2 17.3 11.1 17.5 11.1 17.7 C 11.1 17.8 11.1 17.9 11.2 18 C 11.3 18 11.4 18.1 11.5 18.1 C 11.5 18.1 11.5 18.1 11.5 18.1 Z M 13.8 18.3 C 13.8 18.3 13.6 18.3 13.5 18.2 C 13.4 18.2 13.3 18.1 13.2 17.9 C 13.2 17.8 13.1 17.6 13.1 17.5 C 13.1 17.4 13.2 17.2 13.2 17 C 13.2 16.9 13.2 16.8 13.2 16.8 C 13.3 16.6 13.3 16.4 13.3 16.4 C 13.3 16.4 13.3 16.3 13.3 16.3 C 13.4 16.3 13.4 16.3 13.4 16.3 C 13.4 16.3 13.5 16.3 13.5 16.3 C 13.5 16.4 13.5 16.4 13.5 16.4 C 13.5 16.5 13.5 16.5 13.5 16.7 C 13.4 16.8 13.4 16.9 13.4 17.1 C 13.4 17.3 13.4 17.4 13.4 17.5 C 13.4 17.7 13.4 17.9 13.5 18 C 13.7 18.1 13.8 18.1 13.8 18.1 C 14 18.1 14.1 18.1 14.2 18 C 14.3 18 14.4 17.9 14.5 17.8 C 14.5 17.7 14.6 17.4 14.6 17.1 C 14.6 16.8 14.6 16.5 14.7 16.5 C 14.7 16.4 14.8 16.3 14.8 16.3 C 14.9 16.3 14.9 16.4 14.9 16.5 C 14.9 16.6 14.9 16.7 14.9 16.9 C 14.8 17 14.8 17.1 14.8 17.3 C 14.8 17.4 14.8 17.5 14.8 17.6 C 14.7 17.7 14.7 17.8 14.7 17.9 C 14.6 17.9 14.6 18 14.5 18 C 14.5 18.1 14.4 18.1 14.4 18.2 C 14.3 18.2 14.2 18.3 14.1 18.3 C 14 18.3 13.9 18.3 13.8 18.3 Z M 15.7 16.5 C 15.7 16.5 15.6 16.6 15.6 16.8 C 15.6 16.9 15.5 17 15.5 17.1 C 15.5 17.1 15.5 17.2 15.5 17.2 C 15.5 17.5 15.5 17.6 15.5 17.7 C 15.5 17.8 15.5 18 15.5 18.1 C 15.5 18.1 15.5 18.2 15.4 18.2 C 15.4 18.3 15.4 18.3 15.3 18.3 C 15.3 18.3 15.3 18.3 15.2 18.2 C 15.2 18.1 15.2 18.1 15.2 17.9 C 15.2 17.8 15.2 17.6 15.3 17.4 C 15.3 17.3 15.3 17.3 15.3 17.3 C 15.3 17.2 15.3 17.2 15.3 17.2 C 15.3 17.1 15.3 17.1 15.3 17.1 C 15.3 17 15.3 16.9 15.4 16.8 C 15.4 16.7 15.4 16.6 15.4 16.5 C 15.4 16.4 15.4 16.4 15.4 16.4 C 15.4 16.4 15.5 16.3 15.5 16.3 C 15.5 16.3 15.5 16.3 15.6 16.3 C 15.6 16.3 15.6 16.3 15.6 16.3 C 15.7 16.4 15.7 16.4 15.7 16.5 Z M 17.3 16.7 C 17.3 16.6 17.2 16.6 17.2 16.5 C 17.1 16.5 17 16.5 16.9 16.5 C 16.8 16.5 16.6 16.5 16.4 16.6 C 16.3 16.7 16.2 16.8 16.2 16.9 C 16.2 16.9 16.2 17 16.3 17.1 C 16.4 17.1 16.5 17.2 16.7 17.2 C 17 17.3 17.1 17.4 17.2 17.4 C 17.3 17.5 17.4 17.6 17.4 17.7 C 17.4 17.8 17.3 17.9 17.2 18 C 17 18.1 16.9 18.2 16.7 18.3 C 16.5 18.3 16.3 18.4 16.2 18.4 C 16.1 18.4 16 18.3 16 18.3 C 15.9 18.3 15.9 18.3 15.9 18.2 C 15.9 18.2 15.9 18.2 15.9 18.1 C 15.9 18.1 15.9 18.1 16 18.1 C 16 18.1 16 18.1 16 18.1 C 16.1 18.1 16.2 18.1 16.3 18.1 C 16.5 18.1 16.7 18.1 16.8 18 C 17 17.9 17.1 17.8 17.1 17.7 C 17.1 17.7 17.1 17.6 17 17.6 C 17 17.6 16.8 17.5 16.6 17.4 C 16.3 17.3 16.1 17.3 16.1 17.2 C 16 17.1 16 17 16 16.9 C 16 16.7 16.1 16.6 16.3 16.4 C 16.5 16.3 16.7 16.3 17 16.3 C 17.1 16.3 17.2 16.3 17.3 16.3 C 17.4 16.4 17.4 16.5 17.4 16.5 C 17.4 16.6 17.4 16.6 17.4 16.7 C 17.4 16.7 17.3 16.7 17.3 16.7 Z M 18.6 16.3 C 18.7 16.3 18.7 16.3 18.8 16.3 C 18.8 16.3 18.8 16.3 18.8 16.4 C 18.8 16.4 18.8 16.5 18.8 16.5 C 18.8 16.5 18.8 16.5 18.8 16.5 C 18.8 16.6 18.8 16.7 18.9 16.8 C 18.9 16.9 18.9 17 19 17.1 C 19 17.3 19.1 17.5 19.2 17.7 C 19.3 17.9 19.4 18 19.5 18.1 C 19.5 18.1 19.5 18.1 19.5 18.1 C 19.5 18.2 19.6 18.2 19.6 18.2 C 19.6 18.2 19.5 18.3 19.5 18.3 C 19.5 18.3 19.5 18.3 19.4 18.3 C 19.3 18.3 19.2 18.2 19 17.8 C 18.9 17.7 18.9 17.6 18.9 17.6 C 18.8 17.6 18.8 17.6 18.6 17.6 C 18.5 17.7 18.3 17.7 18.2 17.7 C 18.2 17.7 18.1 17.8 18.1 17.8 C 18.1 17.8 18.1 17.7 18 17.7 C 18 17.7 18 17.7 18 17.7 C 18 17.7 18 17.8 17.9 17.9 C 17.8 18.1 17.7 18.2 17.7 18.2 C 17.7 18.3 17.6 18.3 17.6 18.3 C 17.6 18.3 17.5 18.3 17.5 18.2 C 17.5 18.2 17.5 18.2 17.5 18.2 C 17.5 18.1 17.5 18.1 17.5 18 C 17.5 18 17.6 17.9 17.7 17.8 C 17.9 17.5 18 17.2 18.1 17 C 18.3 16.7 18.5 16.4 18.5 16.4 C 18.6 16.3 18.6 16.3 18.6 16.3 C 18.6 16.3 18.6 16.3 18.6 16.3 Z M 18.4 17.5 C 18.7 17.4 18.8 17.4 18.8 17.4 C 18.8 17.3 18.8 17.2 18.7 17 C 18.6 16.8 18.6 16.7 18.6 16.6 C 18.5 16.7 18.5 16.9 18.4 17.1 C 18.4 17.1 18.1 17.5 18.1 17.5 C 18.1 17.5 18.2 17.5 18.3 17.5 C 18.3 17.5 18.4 17.5 18.4 17.5 C 18.4 17.5 18.4 17.5 18.4 17.5 Z M 22.7 16.7 C 22.7 16.7 22.7 16.7 22.7 16.7 C 22.6 16.8 22.5 16.9 22.3 17.2 C 22.1 17.4 22 17.6 21.9 17.7 C 21.8 17.7 21.8 17.8 21.7 17.8 C 21.7 17.8 21.7 17.7 21.6 17.7 C 21.6 17.6 21.5 17.5 21.5 17.4 C 21.4 17 21.3 16.8 21.3 16.8 C 21.3 16.8 21.3 16.9 21.2 16.9 C 21.2 17.1 21.2 17.2 21.1 17.5 C 21 17.9 21 18.1 21 18.2 C 21 18.3 21 18.3 20.9 18.3 C 20.9 18.3 20.9 18.3 20.9 18.3 C 20.8 18.3 20.8 18.3 20.8 18.3 C 20.7 18.2 20.7 18.2 20.7 18.2 C 20.7 18.1 20.8 18 20.8 17.8 C 20.8 17.8 20.9 17.3 20.9 17.3 C 21 17.1 21 16.9 21.1 16.7 C 21.1 16.6 21.1 16.5 21.1 16.4 C 21.1 16.3 21.1 16.3 21.3 16.3 C 21.3 16.3 21.3 16.3 21.3 16.4 C 21.4 16.4 21.4 16.5 21.4 16.5 C 21.4 16.5 21.4 16.6 21.4 16.6 C 21.4 16.6 21.6 17.1 21.6 17.1 C 21.7 17.3 21.7 17.4 21.8 17.4 C 21.8 17.5 21.8 17.5 21.8 17.5 C 21.8 17.5 22 17.3 22.3 16.9 C 22.6 16.5 22.8 16.3 22.8 16.3 C 22.8 16.3 22.9 16.3 22.9 16.3 C 23 16.3 23 16.4 23 16.4 C 23 16.4 23 16.6 22.9 17 C 22.9 17.1 22.9 17.3 22.9 17.5 C 22.8 17.7 22.8 17.8 22.8 17.8 C 22.8 17.9 22.8 17.9 22.9 18 C 22.9 18 22.9 18.1 22.9 18.1 C 22.9 18.1 22.9 18.1 22.9 18.2 C 22.9 18.2 22.8 18.3 22.8 18.3 C 22.8 18.3 22.8 18.3 22.7 18.3 C 22.6 18.3 22.6 18.2 22.6 18 C 22.6 17.9 22.6 17.6 22.7 17 C 22.7 17 22.7 16.9 22.7 16.9 C 22.7 16.9 22.7 16.9 22.7 16.8 C 22.7 16.8 22.7 16.7 22.7 16.7 C 22.7 16.7 22.7 16.7 22.7 16.7 Z M 23.8 18.3 C 23.7 18.3 23.5 18.3 23.4 18.1 C 23.3 18 23.3 17.8 23.3 17.7 C 23.3 17.5 23.3 17.3 23.4 17.1 C 23.5 16.8 23.7 16.6 23.9 16.5 C 24 16.3 24.2 16.3 24.4 16.3 C 24.6 16.3 24.7 16.3 24.8 16.3 C 24.9 16.4 25 16.4 25 16.5 C 25.1 16.6 25.2 16.6 25.2 16.7 C 25.2 16.8 25.2 16.9 25.2 17 C 25.2 17.1 25.2 17.3 25.1 17.4 C 25.1 17.6 24.9 17.7 24.8 17.9 C 24.6 18 24.5 18.2 24.3 18.2 C 24.2 18.3 24 18.3 23.8 18.3 Z M 23.5 17.7 C 23.5 17.8 23.6 17.9 23.6 18 C 23.7 18.1 23.8 18.1 23.9 18.1 C 24.2 18.1 24.4 18 24.6 17.7 C 24.9 17.5 25 17.2 25 16.9 C 25 16.8 25 16.8 24.9 16.7 C 24.9 16.6 24.8 16.6 24.7 16.5 C 24.6 16.5 24.5 16.5 24.4 16.5 C 24.2 16.5 24 16.6 23.8 16.9 C 23.6 17.1 23.5 17.4 23.5 17.7 Z M 26.8 16.7 C 26.8 16.6 26.7 16.6 26.7 16.5 C 26.6 16.5 26.5 16.5 26.4 16.5 C 26.2 16.5 26.1 16.5 25.9 16.6 C 25.8 16.7 25.7 16.8 25.7 16.9 C 25.7 16.9 25.7 17 25.8 17.1 C 25.9 17.1 26 17.2 26.2 17.2 C 26.5 17.3 26.6 17.4 26.7 17.4 C 26.8 17.5 26.9 17.6 26.9 17.7 C 26.9 17.8 26.8 17.9 26.7 18 C 26.5 18.1 26.4 18.2 26.2 18.3 C 26 18.3 25.8 18.4 25.7 18.4 C 25.6 18.4 25.5 18.3 25.5 18.3 C 25.4 18.3 25.4 18.3 25.4 18.2 C 25.4 18.2 25.4 18.2 25.4 18.1 C 25.4 18.1 25.4 18.1 25.5 18.1 C 25.5 18.1 25.5 18.1 25.5 18.1 C 25.6 18.1 25.7 18.1 25.8 18.1 C 26 18.1 26.1 18.1 26.3 18 C 26.5 17.9 26.6 17.8 26.6 17.7 C 26.6 17.7 26.6 17.6 26.5 17.6 C 26.5 17.6 26.3 17.5 26.1 17.4 C 25.8 17.3 25.6 17.3 25.6 17.2 C 25.5 17.1 25.5 17 25.5 16.9 C 25.5 16.7 25.6 16.6 25.8 16.4 C 26 16.3 26.2 16.3 26.4 16.3 C 26.6 16.3 26.7 16.3 26.8 16.3 C 26.9 16.4 26.9 16.5 26.9 16.5 C 26.9 16.6 26.9 16.6 26.9 16.7 C 26.9 16.7 26.8 16.7 26.8 16.7 Z M 27.2 16.7 C 27.1 16.7 27 16.6 27 16.6 C 27 16.6 27 16.6 27 16.5 C 27 16.5 27 16.5 27 16.5 C 27.1 16.4 27.2 16.4 27.3 16.4 C 27.5 16.4 27.6 16.4 27.8 16.4 C 27.9 16.4 28.1 16.4 28.4 16.3 C 28.5 16.3 28.7 16.3 28.8 16.3 C 28.8 16.3 28.9 16.3 28.9 16.3 C 28.9 16.3 29 16.3 29 16.3 C 29 16.3 29 16.4 29 16.4 C 29.1 16.4 29.1 16.4 29.1 16.5 C 29.1 16.5 29 16.5 29 16.5 C 29 16.5 28.9 16.5 28.9 16.5 C 28.8 16.5 28.7 16.5 28.7 16.5 C 28.6 16.5 28.5 16.5 28.3 16.6 C 28.2 16.6 28.1 16.6 28.1 16.6 C 28.1 16.6 28.1 16.8 28 17.1 C 28 17.5 28 17.7 28 17.8 C 28 17.9 28 18 28 18.1 C 28 18.1 28 18.1 28 18.1 C 28 18.2 28 18.2 28 18.2 C 28 18.3 28 18.3 27.9 18.3 C 27.9 18.3 27.8 18.3 27.8 18.2 C 27.8 18.2 27.8 18 27.8 17.8 C 27.8 17.6 27.8 17.3 27.9 16.7 C 27.9 16.7 27.9 16.7 27.9 16.7 C 27.9 16.6 27.9 16.6 27.8 16.6 C 27.8 16.6 27.7 16.6 27.5 16.6 C 27.4 16.6 27.3 16.7 27.2 16.7 C 27.2 16.7 27.2 16.7 27.2 16.7 Z M 29.3 16.3 C 29.6 16.3 29.8 16.3 29.9 16.3 C 30.1 16.3 30.2 16.3 30.4 16.4 C 30.5 16.5 30.5 16.6 30.5 16.7 C 30.5 16.9 30.5 17 30.3 17.1 C 30.2 17.2 30.1 17.3 29.9 17.4 C 29.9 17.4 29.9 17.4 29.9 17.4 C 29.9 17.5 30 17.5 30.1 17.7 C 30.3 17.8 30.5 17.9 30.6 18 C 30.7 18.1 30.7 18.1 30.7 18.1 C 30.7 18.2 30.7 18.2 30.7 18.2 C 30.6 18.2 30.6 18.3 30.6 18.3 C 30.5 18.3 30.5 18.2 30.3 18.1 C 30.2 18 30.1 17.9 30 17.8 C 29.7 17.6 29.6 17.5 29.5 17.5 C 29.5 17.5 29.4 17.5 29.4 17.5 C 29.4 17.5 29.4 17.4 29.4 17.4 C 29.4 17.4 29.4 17.3 29.4 17.3 C 29.4 17.3 29.5 17.3 29.5 17.3 C 29.5 17.3 29.6 17.3 29.6 17.3 C 29.6 17.3 29.7 17.3 29.7 17.3 C 29.7 17.3 29.9 17.2 30 17.1 C 30.2 17 30.3 16.9 30.3 16.7 C 30.3 16.7 30.3 16.6 30.2 16.6 C 30.1 16.5 30 16.5 29.9 16.5 C 29.8 16.5 29.7 16.5 29.6 16.5 C 29.5 16.5 29.5 16.5 29.4 16.5 C 29.4 16.5 29.4 16.6 29.4 16.6 C 29.4 16.6 29.3 16.7 29.3 16.9 C 29.3 17.1 29.2 17.3 29.2 17.5 C 29.2 17.7 29.2 17.8 29.2 17.9 C 29.2 18 29.2 18 29.2 18.1 C 29.2 18.1 29.2 18.2 29.2 18.2 C 29.2 18.2 29.2 18.2 29.2 18.3 C 29.1 18.3 29.1 18.3 29.1 18.3 C 29 18.3 28.9 18.2 28.9 18.1 C 28.9 17.7 29 17.2 29.1 16.7 C 29.1 16.6 29.1 16.6 29.1 16.6 C 29.1 16.6 29.1 16.6 29.1 16.6 C 29.1 16.5 29.1 16.5 29.1 16.5 C 29.1 16.4 29.1 16.4 29.1 16.4 C 29.2 16.3 29.2 16.3 29.2 16.3 C 29.2 16.3 29.3 16.3 29.3 16.3 Z M 31.8 16.3 C 31.9 16.3 32 16.3 32 16.3 C 32 16.3 32 16.3 32 16.4 C 32 16.4 32 16.5 32 16.5 C 32 16.5 32 16.5 32 16.5 C 32 16.6 32.1 16.7 32.1 16.8 C 32.1 16.9 32.2 17 32.2 17.1 C 32.3 17.3 32.4 17.5 32.4 17.7 C 32.5 17.9 32.6 18 32.7 18.1 C 32.7 18.1 32.7 18.1 32.8 18.1 C 32.8 18.2 32.8 18.2 32.8 18.2 C 32.8 18.2 32.8 18.3 32.7 18.3 C 32.7 18.3 32.7 18.3 32.6 18.3 C 32.5 18.3 32.4 18.2 32.2 17.8 C 32.2 17.7 32.1 17.6 32.1 17.6 C 32.1 17.6 32 17.6 31.8 17.6 C 31.7 17.7 31.6 17.7 31.4 17.7 C 31.4 17.7 31.3 17.8 31.3 17.8 C 31.3 17.8 31.3 17.7 31.3 17.7 C 31.2 17.7 31.2 17.7 31.2 17.7 C 31.2 17.7 31.2 17.8 31.1 17.9 C 31 18.1 30.9 18.2 30.9 18.2 C 30.9 18.3 30.8 18.3 30.8 18.3 C 30.8 18.3 30.8 18.3 30.7 18.2 C 30.7 18.2 30.7 18.2 30.7 18.2 C 30.7 18.1 30.7 18.1 30.7 18 C 30.8 18 30.8 17.9 30.9 17.8 C 31.1 17.5 31.2 17.2 31.4 17 C 31.6 16.7 31.7 16.4 31.7 16.4 C 31.8 16.3 31.8 16.3 31.8 16.3 C 31.8 16.3 31.8 16.3 31.8 16.3 Z M 31.6 17.5 C 31.9 17.4 32 17.4 32.1 17.4 C 32 17.3 32 17.2 31.9 17 C 31.9 16.8 31.8 16.7 31.8 16.6 C 31.8 16.7 31.7 16.9 31.6 17.1 C 31.6 17.1 31.3 17.5 31.3 17.5 C 31.3 17.5 31.4 17.5 31.5 17.5 C 31.5 17.5 31.6 17.5 31.6 17.5 C 31.6 17.5 31.6 17.5 31.6 17.5 Z M 34.5 18.3 C 34.4 18.3 34.2 18.3 34.1 18.1 C 34 18 34 17.8 34 17.7 C 34 17.5 34 17.3 34.1 17.1 C 34.2 16.8 34.4 16.6 34.5 16.5 C 34.7 16.3 34.9 16.3 35.1 16.3 C 35.2 16.3 35.4 16.3 35.5 16.3 C 35.6 16.4 35.6 16.4 35.7 16.5 C 35.8 16.6 35.9 16.6 35.9 16.7 C 35.9 16.8 35.9 16.9 35.9 17 C 35.9 17.1 35.9 17.3 35.8 17.4 C 35.7 17.6 35.6 17.7 35.5 17.9 C 35.3 18 35.2 18.2 35 18.2 C 34.9 18.3 34.7 18.3 34.5 18.3 Z M 34.2 17.7 C 34.2 17.8 34.2 17.9 34.3 18 C 34.4 18.1 34.5 18.1 34.6 18.1 C 34.9 18.1 35.1 18 35.3 17.7 C 35.6 17.5 35.7 17.2 35.7 16.9 C 35.7 16.8 35.6 16.8 35.6 16.7 C 35.6 16.6 35.5 16.6 35.4 16.5 C 35.3 16.5 35.2 16.5 35.1 16.5 C 34.9 16.5 34.7 16.6 34.5 16.9 C 34.3 17.1 34.2 17.4 34.2 17.7 Z M 37.4 16.7 C 37.4 16.6 37.4 16.6 37.4 16.5 C 37.3 16.5 37.2 16.5 37.1 16.5 C 36.9 16.5 36.8 16.5 36.6 16.6 C 36.5 16.7 36.4 16.8 36.4 16.9 C 36.4 16.9 36.4 17 36.5 17.1 C 36.5 17.1 36.7 17.2 36.9 17.2 C 37.1 17.3 37.3 17.4 37.4 17.4 C 37.5 17.5 37.5 17.6 37.5 17.7 C 37.5 17.8 37.5 17.9 37.3 18 C 37.2 18.1 37.1 18.2 36.9 18.3 C 36.7 18.3 36.5 18.4 36.4 18.4 C 36.3 18.4 36.2 18.3 36.2 18.3 C 36.1 18.3 36.1 18.3 36.1 18.2 C 36.1 18.2 36.1 18.2 36.1 18.1 C 36.1 18.1 36.1 18.1 36.1 18.1 C 36.2 18.1 36.2 18.1 36.2 18.1 C 36.3 18.1 36.4 18.1 36.5 18.1 C 36.7 18.1 36.8 18.1 37 18 C 37.2 17.9 37.3 17.8 37.3 17.7 C 37.3 17.7 37.3 17.6 37.2 17.6 C 37.2 17.6 37 17.5 36.8 17.4 C 36.5 17.3 36.3 17.3 36.2 17.2 C 36.2 17.1 36.1 17 36.1 16.9 C 36.1 16.7 36.3 16.6 36.5 16.4 C 36.7 16.3 36.9 16.3 37.1 16.3 C 37.3 16.3 37.4 16.3 37.5 16.3 C 37.6 16.4 37.6 16.5 37.6 16.5 C 37.6 16.6 37.6 16.6 37.6 16.7 C 37.6 16.7 37.5 16.7 37.4 16.7 Z M 39.4 17.9 C 39.5 17.9 39.5 17.9 39.6 17.9 C 39.7 17.9 39.9 17.9 40.2 17.9 C 40.3 17.9 40.3 17.9 40.3 17.9 C 40.4 17.9 40.4 17.9 40.4 17.9 C 40.5 17.9 40.5 17.9 40.5 17.9 C 40.5 17.9 40.5 17.9 40.6 17.9 C 40.6 17.9 40.6 18 40.6 18 C 40.6 18 40.6 18.1 40.5 18.1 C 40.4 18.1 40.4 18.2 40.3 18.2 C 40.3 18.2 40.3 18.2 40.3 18.2 C 40.2 18.2 40.1 18.1 40.1 18.1 C 40 18.1 39.8 18.1 39.6 18.1 C 39.5 18.1 39.3 18.1 39.2 18.1 C 39.1 18.2 39 18.2 39 18.3 C 39 18.3 38.9 18.3 38.9 18.4 C 38.9 18.4 38.9 18.4 38.8 18.4 C 38.7 18.4 38.7 18.3 38.7 18.3 C 38.7 18.2 38.8 18.1 38.8 18 C 38.9 18 39 17.9 39.2 17.8 C 39.3 17.7 39.4 17.7 39.4 17.7 C 39.4 17.7 39.5 17.6 39.6 17.5 C 39.7 17.4 39.8 17.3 39.8 17.3 C 39.9 17.2 39.9 17.1 40 17.1 C 40 17 40 17 40 16.9 C 40 16.9 40 16.8 39.9 16.7 C 39.8 16.7 39.7 16.6 39.7 16.6 C 39.6 16.6 39.5 16.7 39.4 16.7 C 39.3 16.8 39.2 16.9 39.2 16.9 C 39.2 17 39.1 17 39 17 C 39 17 39 17 39 16.9 C 39 16.9 38.9 16.9 38.9 16.9 C 38.9 16.8 38.9 16.8 38.9 16.8 C 39 16.8 39 16.8 39.1 16.7 C 39.2 16.7 39.2 16.6 39.3 16.6 C 39.4 16.5 39.5 16.5 39.5 16.5 C 39.6 16.4 39.7 16.4 39.8 16.4 C 39.9 16.4 40 16.5 40 16.5 C 40.1 16.6 40.2 16.7 40.2 16.8 C 40.3 16.8 40.3 16.9 40.3 16.9 C 40.3 17 40.2 17.2 40 17.4 C 39.8 17.6 39.6 17.8 39.4 17.9 Z M 42.1 16.6 C 42 16.6 42 16.6 42 16.5 C 42 16.5 42.1 16.4 42.3 16.3 C 42.6 16.3 42.8 16.3 43 16.3 C 43.2 16.3 43.3 16.3 43.4 16.4 C 43.5 16.5 43.6 16.6 43.6 16.7 C 43.6 16.9 43.5 17.1 43.3 17.2 C 43.1 17.4 42.8 17.5 42.4 17.6 C 42.3 17.6 42.2 17.6 42.2 17.6 C 42.2 17.6 42.2 17.7 42.2 17.9 C 42.2 18 42.2 18.1 42.2 18.2 C 42.2 18.2 42.2 18.2 42.1 18.3 C 42.1 18.3 42.1 18.3 42.1 18.3 C 42 18.3 41.9 18.3 41.9 18.2 C 41.9 18.1 42 17.9 42 17.7 C 42 17.7 42.1 16.9 42.1 16.9 C 42.1 16.9 42.1 16.8 42.1 16.8 C 42.1 16.7 42.1 16.7 42.1 16.6 Z M 42.9 16.5 C 42.8 16.5 42.6 16.5 42.3 16.6 C 42.3 16.6 42.3 16.6 42.3 16.7 C 42.3 16.8 42.3 17 42.3 17.1 C 42.3 17.2 42.3 17.3 42.2 17.4 C 42.5 17.3 42.8 17.3 43 17.1 C 43.3 17 43.4 16.9 43.4 16.7 C 43.4 16.5 43.2 16.5 42.9 16.5 C 42.9 16.5 42.9 16.5 42.9 16.5 Z M 44.1 16.3 C 44.4 16.3 44.6 16.3 44.7 16.3 C 44.9 16.3 45.1 16.3 45.2 16.4 C 45.3 16.5 45.3 16.6 45.3 16.7 C 45.3 16.9 45.3 17 45.2 17.1 C 45 17.2 44.9 17.3 44.7 17.4 C 44.7 17.4 44.7 17.4 44.7 17.4 C 44.7 17.5 44.8 17.5 44.9 17.7 C 45.1 17.8 45.3 17.9 45.5 18 C 45.5 18.1 45.5 18.1 45.5 18.1 C 45.5 18.2 45.5 18.2 45.5 18.2 C 45.4 18.2 45.4 18.3 45.4 18.3 C 45.3 18.3 45.3 18.2 45.1 18.1 C 45 18 44.9 17.9 44.8 17.8 C 44.5 17.6 44.4 17.5 44.3 17.5 C 44.3 17.5 44.2 17.5 44.2 17.5 C 44.2 17.5 44.2 17.4 44.2 17.4 C 44.2 17.4 44.2 17.3 44.2 17.3 C 44.2 17.3 44.3 17.3 44.3 17.3 C 44.3 17.3 44.4 17.3 44.4 17.3 C 44.4 17.3 44.5 17.3 44.5 17.3 C 44.5 17.3 44.7 17.2 44.8 17.1 C 45 17 45.1 16.9 45.1 16.7 C 45.1 16.7 45.1 16.6 45 16.6 C 44.9 16.5 44.8 16.5 44.7 16.5 C 44.6 16.5 44.5 16.5 44.4 16.5 C 44.3 16.5 44.3 16.5 44.3 16.5 C 44.2 16.5 44.2 16.6 44.2 16.6 C 44.2 16.6 44.2 16.7 44.1 16.9 C 44.1 17.1 44.1 17.3 44 17.5 C 44 17.7 44 17.8 44 17.9 C 44 18 44 18 44 18.1 C 44 18.1 44 18.2 44 18.2 C 44 18.2 44 18.2 44 18.3 C 44 18.3 43.9 18.3 43.9 18.3 C 43.8 18.3 43.8 18.2 43.8 18.1 C 43.8 17.7 43.8 17.2 43.9 16.7 C 43.9 16.6 44 16.6 44 16.6 C 44 16.6 43.9 16.6 43.9 16.6 C 43.9 16.5 43.9 16.5 43.9 16.5 C 43.9 16.4 43.9 16.4 43.9 16.4 C 44 16.3 44 16.3 44 16.3 C 44 16.3 44.1 16.3 44.1 16.3 Z M 46.2 16.5 C 46.2 16.5 46.2 16.6 46.1 16.8 C 46.1 16.9 46.1 17 46.1 17.1 C 46.1 17.1 46.1 17.2 46.1 17.2 C 46 17.5 46 17.6 46 17.7 C 46 17.8 46 18 46 18.1 C 46 18.1 46 18.2 46 18.2 C 46 18.3 45.9 18.3 45.9 18.3 C 45.8 18.3 45.8 18.3 45.8 18.2 C 45.8 18.1 45.8 18.1 45.8 17.9 C 45.8 17.8 45.8 17.6 45.8 17.4 C 45.8 17.3 45.8 17.3 45.8 17.3 C 45.8 17.2 45.8 17.2 45.8 17.2 C 45.8 17.1 45.8 17.1 45.9 17.1 C 45.9 17 45.9 16.9 45.9 16.8 C 45.9 16.7 45.9 16.6 45.9 16.5 C 45.9 16.4 46 16.4 46 16.4 C 46 16.4 46 16.3 46 16.3 C 46.1 16.3 46.1 16.3 46.1 16.3 C 46.1 16.3 46.2 16.3 46.2 16.3 C 46.2 16.4 46.2 16.4 46.2 16.5 Z M 47.9 17.9 C 47.9 17.7 48 17.4 48 17.1 C 48.1 16.8 48.1 16.6 48.1 16.5 C 48.1 16.4 48.1 16.4 48.1 16.3 C 48.1 16.3 48.2 16.3 48.2 16.3 C 48.2 16.3 48.3 16.2 48.3 16.2 C 48.3 16.2 48.4 16.3 48.4 16.3 C 48.4 16.3 48.4 16.4 48.4 16.4 C 48.4 16.5 48.4 16.5 48.4 16.6 C 48.3 16.8 48.2 17.1 48.2 17.4 C 48.1 17.7 48.1 17.9 48.1 17.9 C 48.1 18 48.1 18.1 48.1 18.1 C 48.1 18.2 48.1 18.2 48.1 18.2 C 48 18.3 48 18.3 47.9 18.3 C 47.9 18.3 47.9 18.3 47.9 18.3 C 47.9 18.2 47.8 18.2 47.8 18.2 C 47.8 18.1 47.7 18.1 47.7 18.1 C 47.7 18 47.7 18 47.7 17.9 C 47.4 17.6 47.2 17.3 47 16.9 C 46.9 17.1 46.8 17.4 46.8 17.7 C 46.8 17.7 46.8 17.9 46.8 17.9 C 46.8 18 46.8 18 46.8 18.1 C 46.8 18.1 46.8 18.2 46.8 18.2 C 46.7 18.2 46.7 18.3 46.7 18.3 C 46.7 18.3 46.6 18.3 46.6 18.3 C 46.6 18.3 46.5 18.3 46.5 18.3 C 46.5 18.2 46.5 18.2 46.5 18.1 C 46.5 18.1 46.5 18 46.6 17.8 C 46.6 17.7 46.6 17.5 46.7 17.1 C 46.8 16.8 46.8 16.7 46.8 16.6 C 46.8 16.6 46.8 16.5 46.8 16.5 C 46.8 16.5 46.8 16.4 46.8 16.4 C 46.8 16.4 46.8 16.4 46.9 16.4 C 46.9 16.4 46.9 16.4 46.9 16.4 C 47 16.4 47 16.4 47 16.4 C 47 16.4 47 16.4 47 16.4 C 47.1 16.4 47.1 16.5 47.1 16.5 C 47.1 16.7 47.2 16.9 47.4 17.2 C 47.6 17.5 47.7 17.7 47.9 17.9 Z M 49.9 17.9 C 50 17.9 50 17.8 50 17.8 C 50.1 17.8 50.1 17.9 50.1 17.9 C 50.1 17.9 50 18 49.9 18.1 C 49.8 18.2 49.7 18.2 49.6 18.3 C 49.5 18.3 49.4 18.4 49.2 18.4 C 49.1 18.4 48.9 18.3 48.8 18.2 C 48.7 18.1 48.6 17.9 48.6 17.7 C 48.6 17.4 48.8 17 49.1 16.7 C 49.4 16.4 49.7 16.2 50 16.2 C 50.1 16.2 50.2 16.2 50.2 16.3 C 50.3 16.3 50.3 16.4 50.3 16.5 C 50.3 16.6 50.3 16.7 50.3 16.7 C 50.3 16.8 50.3 16.8 50.2 16.8 C 50.2 16.9 50.2 16.9 50.1 16.9 C 50.1 16.9 50.1 16.9 50.1 16.8 C 50.1 16.8 50.1 16.8 50.1 16.8 C 50.1 16.8 50.1 16.7 50.1 16.6 C 50.1 16.6 50.1 16.5 50.1 16.5 C 50.1 16.4 50.1 16.4 50 16.4 C 49.9 16.4 49.7 16.4 49.5 16.6 C 49.3 16.7 49.2 16.9 49.1 17.1 C 48.9 17.3 48.9 17.5 48.9 17.7 C 48.9 17.8 48.9 17.9 49 18 C 49.1 18.1 49.2 18.1 49.3 18.1 C 49.4 18.1 49.5 18.1 49.6 18.1 C 49.7 18 49.8 18 49.9 17.9 C 49.9 17.9 49.9 17.9 49.9 17.9 Z M 51 16.5 C 51 16.5 51 16.6 51 16.8 C 50.9 16.9 50.9 17 50.9 17.1 C 50.9 17.1 50.9 17.2 50.9 17.2 C 50.8 17.5 50.8 17.6 50.8 17.7 C 50.8 17.8 50.8 18 50.9 18.1 C 50.9 18.1 50.9 18.2 50.8 18.2 C 50.8 18.3 50.7 18.3 50.7 18.3 C 50.7 18.3 50.6 18.3 50.6 18.2 C 50.6 18.1 50.6 18.1 50.6 17.9 C 50.6 17.8 50.6 17.6 50.6 17.4 C 50.7 17.3 50.7 17.3 50.7 17.3 C 50.7 17.2 50.7 17.2 50.7 17.2 C 50.7 17.1 50.7 17.1 50.7 17.1 C 50.7 17 50.7 16.9 50.7 16.8 C 50.8 16.7 50.8 16.6 50.8 16.5 C 50.8 16.4 50.8 16.4 50.8 16.4 C 50.8 16.4 50.8 16.3 50.9 16.3 C 50.9 16.3 50.9 16.3 50.9 16.3 C 51 16.3 51 16.3 51 16.3 C 51 16.4 51 16.4 51 16.5 Z M 51.5 16.6 C 51.5 16.6 51.5 16.6 51.5 16.5 C 51.5 16.5 51.6 16.4 51.8 16.3 C 52 16.3 52.3 16.3 52.4 16.3 C 52.6 16.3 52.8 16.3 52.9 16.4 C 53 16.5 53.1 16.6 53.1 16.7 C 53.1 16.9 53 17.1 52.7 17.2 C 52.5 17.4 52.2 17.5 51.9 17.6 C 51.8 17.6 51.7 17.6 51.7 17.6 C 51.7 17.6 51.7 17.7 51.7 17.9 C 51.7 18 51.7 18.1 51.7 18.2 C 51.7 18.2 51.6 18.2 51.6 18.3 C 51.6 18.3 51.6 18.3 51.5 18.3 C 51.5 18.3 51.4 18.3 51.4 18.2 C 51.4 18.1 51.4 17.9 51.5 17.7 C 51.5 17.7 51.6 16.9 51.6 16.9 C 51.6 16.9 51.6 16.8 51.6 16.8 C 51.6 16.7 51.5 16.7 51.5 16.6 Z M 52.4 16.5 C 52.2 16.5 52 16.5 51.8 16.6 C 51.8 16.6 51.8 16.6 51.8 16.7 C 51.8 16.8 51.8 17 51.7 17.1 C 51.7 17.2 51.7 17.3 51.7 17.4 C 52 17.3 52.3 17.3 52.5 17.1 C 52.7 17 52.8 16.9 52.8 16.7 C 52.8 16.5 52.7 16.5 52.4 16.5 C 52.4 16.5 52.4 16.5 52.4 16.5 Z M 54.1 16.3 C 54.1 16.3 54.2 16.3 54.2 16.3 C 54.2 16.3 54.2 16.3 54.2 16.4 C 54.2 16.4 54.2 16.5 54.2 16.5 C 54.2 16.5 54.2 16.5 54.2 16.5 C 54.3 16.6 54.3 16.7 54.3 16.8 C 54.4 16.9 54.4 17 54.4 17.1 C 54.5 17.3 54.6 17.5 54.7 17.7 C 54.8 17.9 54.8 18 54.9 18.1 C 55 18.1 55 18.1 55 18.1 C 55 18.2 55 18.2 55 18.2 C 55 18.2 55 18.3 55 18.3 C 54.9 18.3 54.9 18.3 54.9 18.3 C 54.8 18.3 54.6 18.2 54.5 17.8 C 54.4 17.7 54.4 17.6 54.3 17.6 C 54.3 17.6 54.2 17.6 54.1 17.6 C 53.9 17.7 53.8 17.7 53.7 17.7 C 53.6 17.7 53.6 17.8 53.6 17.8 C 53.5 17.8 53.5 17.7 53.5 17.7 C 53.5 17.7 53.5 17.7 53.5 17.7 C 53.5 17.7 53.4 17.8 53.3 17.9 C 53.2 18.1 53.2 18.2 53.1 18.2 C 53.1 18.3 53.1 18.3 53.1 18.3 C 53 18.3 53 18.3 53 18.2 C 52.9 18.2 52.9 18.2 52.9 18.2 C 52.9 18.1 52.9 18.1 53 18 C 53 18 53.1 17.9 53.2 17.8 C 53.3 17.5 53.5 17.2 53.6 17 C 53.8 16.7 53.9 16.4 54 16.4 C 54 16.3 54.1 16.3 54.1 16.3 C 54.1 16.3 54.1 16.3 54.1 16.3 Z M 53.9 17.5 C 54.1 17.4 54.3 17.4 54.3 17.4 C 54.3 17.3 54.2 17.2 54.2 17 C 54.1 16.8 54.1 16.7 54 16.6 C 54 16.7 53.9 16.9 53.8 17.1 C 53.8 17.1 53.6 17.5 53.6 17.5 C 53.6 17.5 53.6 17.5 53.7 17.5 C 53.8 17.5 53.8 17.5 53.9 17.5 C 53.9 17.5 53.9 17.5 53.9 17.5 Z M 55.7 16.5 C 55.7 16.5 55.7 16.6 55.6 16.8 C 55.6 16.9 55.6 17 55.6 17.1 C 55.6 17.1 55.6 17.2 55.6 17.2 C 55.5 17.5 55.5 17.6 55.5 17.7 C 55.5 17.8 55.5 18 55.5 18.1 C 55.5 18.1 55.5 18.2 55.5 18.2 C 55.5 18.3 55.4 18.3 55.4 18.3 C 55.3 18.3 55.3 18.3 55.3 18.2 C 55.3 18.1 55.3 18.1 55.3 17.9 C 55.3 17.8 55.3 17.6 55.3 17.4 C 55.3 17.3 55.3 17.3 55.3 17.3 C 55.3 17.2 55.3 17.2 55.3 17.2 C 55.4 17.1 55.4 17.1 55.4 17.1 C 55.4 17 55.4 16.9 55.4 16.8 C 55.4 16.7 55.4 16.6 55.4 16.5 C 55.5 16.4 55.5 16.4 55.5 16.4 C 55.5 16.4 55.5 16.3 55.5 16.3 C 55.6 16.3 55.6 16.3 55.6 16.3 C 55.6 16.3 55.7 16.3 55.7 16.3 C 55.7 16.4 55.7 16.4 55.7 16.5 Z M 57.3 16.7 C 57.3 16.6 57.3 16.6 57.2 16.5 C 57.2 16.5 57.1 16.5 57 16.5 C 56.8 16.5 56.6 16.5 56.5 16.6 C 56.3 16.7 56.2 16.8 56.2 16.9 C 56.2 16.9 56.3 17 56.3 17.1 C 56.4 17.1 56.6 17.2 56.8 17.2 C 57 17.3 57.2 17.4 57.3 17.4 C 57.4 17.5 57.4 17.6 57.4 17.7 C 57.4 17.8 57.3 17.9 57.2 18 C 57.1 18.1 56.9 18.2 56.7 18.3 C 56.6 18.3 56.4 18.4 56.3 18.4 C 56.2 18.4 56.1 18.3 56 18.3 C 56 18.3 55.9 18.3 55.9 18.2 C 55.9 18.2 55.9 18.2 56 18.1 C 56 18.1 56 18.1 56 18.1 C 56 18.1 56 18.1 56.1 18.1 C 56.2 18.1 56.3 18.1 56.3 18.1 C 56.5 18.1 56.7 18.1 56.9 18 C 57.1 17.9 57.2 17.8 57.2 17.7 C 57.2 17.7 57.1 17.6 57.1 17.6 C 57 17.6 56.9 17.5 56.6 17.4 C 56.4 17.3 56.2 17.3 56.1 17.2 C 56 17.1 56 17 56 16.9 C 56 16.7 56.1 16.6 56.3 16.4 C 56.5 16.3 56.8 16.3 57 16.3 C 57.2 16.3 57.3 16.3 57.4 16.3 C 57.4 16.4 57.5 16.5 57.5 16.5 C 57.5 16.6 57.5 16.6 57.5 16.7 C 57.4 16.7 57.4 16.7 57.3 16.7 Z M 58.9 16.6 C 58.9 16.6 58.9 16.6 58.9 16.5 C 58.9 16.5 59 16.4 59.2 16.3 C 59.5 16.3 59.7 16.3 59.8 16.3 C 60 16.3 60.2 16.3 60.3 16.4 C 60.4 16.5 60.5 16.6 60.5 16.7 C 60.5 16.9 60.4 17.1 60.1 17.2 C 59.9 17.4 59.6 17.5 59.3 17.6 C 59.2 17.6 59.1 17.6 59.1 17.6 C 59.1 17.6 59.1 17.7 59.1 17.9 C 59.1 18 59.1 18.1 59.1 18.2 C 59.1 18.2 59.1 18.2 59 18.3 C 59 18.3 59 18.3 58.9 18.3 C 58.9 18.3 58.8 18.3 58.8 18.2 C 58.8 18.1 58.8 17.9 58.9 17.7 C 58.9 17.7 59 16.9 59 16.9 C 59 16.9 59 16.8 59 16.8 C 59 16.7 59 16.7 58.9 16.6 Z M 59.8 16.5 C 59.6 16.5 59.4 16.5 59.2 16.6 C 59.2 16.6 59.2 16.6 59.2 16.7 C 59.2 16.8 59.2 17 59.2 17.1 C 59.1 17.2 59.1 17.3 59.1 17.4 C 59.4 17.3 59.7 17.3 59.9 17.1 C 60.1 17 60.2 16.9 60.2 16.7 C 60.2 16.5 60.1 16.5 59.8 16.5 C 59.8 16.5 59.8 16.5 59.8 16.5 Z M 61 16.3 C 61.3 16.3 61.5 16.3 61.6 16.3 C 61.8 16.3 61.9 16.3 62 16.4 C 62.2 16.5 62.2 16.6 62.2 16.7 C 62.2 16.9 62.2 17 62 17.1 C 61.9 17.2 61.8 17.3 61.6 17.4 C 61.6 17.4 61.6 17.4 61.6 17.4 C 61.6 17.5 61.6 17.5 61.8 17.7 C 62 17.8 62.2 17.9 62.3 18 C 62.4 18.1 62.4 18.1 62.4 18.1 C 62.4 18.2 62.4 18.2 62.4 18.2 C 62.3 18.2 62.3 18.3 62.3 18.3 C 62.2 18.3 62.1 18.2 62 18.1 C 61.9 18 61.8 17.9 61.7 17.8 C 61.4 17.6 61.2 17.5 61.2 17.5 C 61.2 17.5 61.1 17.5 61.1 17.5 C 61.1 17.5 61 17.4 61 17.4 C 61 17.4 61.1 17.3 61.1 17.3 C 61.1 17.3 61.2 17.3 61.2 17.3 C 61.2 17.3 61.2 17.3 61.3 17.3 C 61.3 17.3 61.3 17.3 61.4 17.3 C 61.4 17.3 61.5 17.2 61.7 17.1 C 61.9 17 62 16.9 62 16.7 C 62 16.7 61.9 16.6 61.9 16.6 C 61.8 16.5 61.7 16.5 61.6 16.5 C 61.5 16.5 61.4 16.5 61.3 16.5 C 61.2 16.5 61.2 16.5 61.1 16.5 C 61.1 16.5 61.1 16.6 61.1 16.6 C 61.1 16.6 61 16.7 61 16.9 C 61 17.1 60.9 17.3 60.9 17.5 C 60.9 17.7 60.9 17.8 60.9 17.9 C 60.9 18 60.9 18 60.9 18.1 C 60.9 18.1 60.9 18.2 60.9 18.2 C 60.9 18.2 60.9 18.2 60.9 18.3 C 60.8 18.3 60.8 18.3 60.8 18.3 C 60.7 18.3 60.6 18.2 60.6 18.1 C 60.6 17.7 60.7 17.2 60.8 16.7 C 60.8 16.6 60.8 16.6 60.8 16.6 C 60.8 16.6 60.8 16.6 60.8 16.6 C 60.8 16.5 60.8 16.5 60.8 16.5 C 60.8 16.4 60.8 16.4 60.8 16.4 C 60.8 16.3 60.9 16.3 60.9 16.3 C 60.9 16.3 61 16.3 61 16.3 Z M 63.1 18.3 C 62.9 18.3 62.8 18.3 62.7 18.1 C 62.6 18 62.5 17.8 62.5 17.7 C 62.5 17.5 62.6 17.3 62.7 17.1 C 62.8 16.8 62.9 16.6 63.1 16.5 C 63.3 16.3 63.5 16.3 63.7 16.3 C 63.8 16.3 63.9 16.3 64 16.3 C 64.1 16.4 64.2 16.4 64.3 16.5 C 64.4 16.6 64.4 16.6 64.4 16.7 C 64.5 16.8 64.5 16.9 64.5 17 C 64.5 17.1 64.5 17.3 64.4 17.4 C 64.3 17.6 64.2 17.7 64 17.9 C 63.9 18 63.7 18.2 63.6 18.2 C 63.5 18.3 63.3 18.3 63.1 18.3 Z M 62.8 17.7 C 62.8 17.8 62.8 17.9 62.9 18 C 63 18.1 63.1 18.1 63.2 18.1 C 63.4 18.1 63.7 18 63.9 17.7 C 64.1 17.5 64.2 17.2 64.2 16.9 C 64.2 16.8 64.2 16.8 64.2 16.7 C 64.1 16.6 64.1 16.6 64 16.5 C 63.9 16.5 63.8 16.5 63.7 16.5 C 63.5 16.5 63.3 16.6 63.1 16.9 C 62.9 17.1 62.8 17.4 62.8 17.7 Z M 66 17.1 C 66 17.2 66 17.2 66 17.2 C 66.1 17.2 66.2 17.2 66.3 17.3 C 66.3 17.4 66.4 17.5 66.4 17.6 C 66.4 17.8 66.3 18 66 18.1 C 65.8 18.3 65.6 18.4 65.4 18.4 C 65.3 18.4 65.2 18.4 65.2 18.4 C 65.2 18.4 65.2 18.3 65.2 18.3 C 65.2 18.2 65.2 18.1 65.4 18.1 C 65.4 18.1 65.4 18.1 65.5 18.1 C 65.5 18.2 65.6 18.1 65.7 18.1 C 65.7 18.1 65.8 18.1 65.8 18 C 65.9 18 65.9 17.9 66 17.9 C 66 17.9 66.1 17.8 66.1 17.8 C 66.1 17.7 66.1 17.7 66.1 17.6 C 66.1 17.6 66.1 17.5 66 17.4 C 66 17.4 65.9 17.3 65.8 17.3 C 65.7 17.3 65.7 17.3 65.6 17.4 C 65.6 17.4 65.5 17.4 65.5 17.4 C 65.4 17.4 65.4 17.4 65.4 17.4 C 65.4 17.4 65.3 17.3 65.3 17.3 C 65.3 17.3 65.4 17.2 65.6 17.2 C 65.7 17.1 65.8 17 65.9 16.9 C 66.1 16.8 66.1 16.7 66.1 16.6 C 66.1 16.6 66.1 16.5 66 16.5 C 66 16.5 65.9 16.5 65.9 16.5 C 65.7 16.5 65.6 16.5 65.5 16.5 C 65.3 16.5 65.3 16.6 65.2 16.6 C 65.2 16.6 65.2 16.8 65.1 17.2 C 65.1 17.6 65 17.9 65 17.9 C 65 18 65 18.1 65.1 18.1 C 65.1 18.2 65 18.2 65 18.3 C 65 18.3 65 18.3 64.9 18.3 C 64.9 18.3 64.8 18.3 64.8 18.3 C 64.8 18.2 64.8 18.2 64.8 18.1 C 64.8 18.1 64.8 18.1 64.8 18 C 64.8 17.9 64.9 17.6 64.9 17.3 C 64.9 17 65 16.8 65 16.8 C 65 16.8 65 16.7 64.9 16.7 C 64.9 16.7 64.9 16.7 64.9 16.7 C 64.9 16.7 64.9 16.7 64.8 16.7 C 64.8 16.7 64.8 16.7 64.8 16.7 C 64.8 16.6 64.8 16.6 64.8 16.6 C 64.8 16.5 64.9 16.4 65.2 16.4 C 65.4 16.3 65.7 16.2 65.9 16.2 C 66.1 16.2 66.2 16.3 66.3 16.4 C 66.3 16.4 66.4 16.5 66.4 16.6 C 66.4 16.7 66.3 16.8 66.3 16.9 C 66.2 17 66.1 17 66 17.1 Z M 66.7 18 C 66.7 18 66.7 17.9 66.7 17.9 C 66.7 17.8 66.7 17.7 66.8 17.5 C 66.8 17.3 66.8 17.1 66.8 16.8 C 66.9 16.6 66.9 16.4 66.9 16.4 C 66.9 16.4 66.9 16.3 66.9 16.3 C 67 16.3 67 16.3 67 16.3 C 67.1 16.3 67.1 16.3 67.1 16.3 C 67.1 16.3 67.2 16.4 67.2 16.4 C 67.2 16.4 67.1 16.5 67.1 16.6 C 67.1 16.7 67.1 16.9 67 17.3 C 67 17.7 67 17.9 67 17.9 C 67 18 67 18 67 18 C 67 18 67 18 67 18 C 67.1 18 67.2 18 67.3 18 C 67.4 18 67.6 17.9 67.9 17.9 C 67.9 17.9 68 17.9 68 17.9 C 68.1 17.9 68.1 17.9 68.1 17.9 C 68.1 17.9 68.1 17.9 68.2 17.9 C 68.2 17.9 68.2 18 68.2 18 C 68.2 18.1 68.2 18.1 68.1 18.1 C 68.1 18.2 68 18.2 68 18.2 C 68 18.2 67.9 18.2 67.9 18.2 C 67.8 18.2 67.8 18.2 67.8 18.2 C 67.5 18.2 67.2 18.2 66.9 18.3 C 66.9 18.3 66.8 18.3 66.8 18.3 C 66.8 18.3 66.7 18.3 66.7 18.3 C 66.7 18.2 66.7 18.2 66.7 18.2 C 66.7 18.1 66.7 18.1 66.7 18 C 66.7 18 66.7 18 66.7 18 Z M 69.9 16.5 C 69.9 16.5 69.8 16.5 69.8 16.5 C 69.8 16.5 69.7 16.5 69.7 16.5 C 69.6 16.5 69.6 16.5 69.5 16.5 C 69.5 16.5 69.5 16.5 69.4 16.6 C 69.4 16.6 69.3 16.6 69.2 16.6 C 69.1 16.6 68.9 16.6 68.9 16.6 C 68.9 16.6 68.8 16.7 68.8 16.7 C 68.8 16.8 68.8 16.8 68.8 16.9 C 68.8 17.1 68.7 17.2 68.7 17.2 C 68.7 17.2 68.8 17.2 68.8 17.2 C 68.8 17.2 68.9 17.2 69 17.2 C 69.1 17.2 69.2 17.2 69.3 17.2 C 69.4 17.1 69.5 17.1 69.6 17.1 C 69.7 17.1 69.8 17.2 69.8 17.2 C 69.8 17.3 69.7 17.3 69.6 17.4 C 69.6 17.4 69.4 17.4 69.2 17.4 C 68.9 17.5 68.7 17.5 68.7 17.5 C 68.7 17.5 68.7 17.6 68.7 17.8 C 68.6 17.9 68.6 18 68.6 18 C 68.6 18 68.6 18 68.6 18 C 68.6 18.1 68.7 18.1 68.7 18.1 C 68.7 18.1 68.7 18.1 68.7 18.1 C 68.8 18.1 68.8 18.1 68.9 18.1 C 68.9 18.1 69.2 18.1 69.2 18.1 C 69.3 18 69.4 18 69.5 18 C 69.6 18 69.7 18 69.7 18 C 69.7 18 69.7 18 69.8 18 C 69.8 18 69.8 18.1 69.8 18.1 C 69.8 18.1 69.8 18.2 69.8 18.2 C 69.7 18.2 69.6 18.2 69.4 18.2 C 69.3 18.2 69.1 18.3 68.9 18.3 C 68.7 18.3 68.6 18.3 68.6 18.3 C 68.5 18.3 68.4 18.3 68.4 18.3 C 68.4 18.3 68.4 18.3 68.4 18.2 C 68.36 18.19 68.4 18.1 68.4 18.1 C 68.4 18.1 68.35 18.14 68.4 18.1 C 68.4 18.1 68.4 18.1 68.4 18 C 68.4 18 68.4 17.9 68.5 17.7 C 68.5 17.5 68.5 17.4 68.5 17.3 C 68.5 17.2 68.5 17.2 68.5 17.1 C 68.6 16.9 68.6 16.8 68.6 16.6 C 68.6 16.6 68.6 16.6 68.6 16.6 C 68.6 16.6 68.6 16.6 68.6 16.6 C 68.5 16.5 68.5 16.5 68.5 16.5 C 68.5 16.5 68.5 16.5 68.5 16.5 C 68.5 16.5 68.5 16.5 68.5 16.5 C 68.5 16.4 68.5 16.4 68.6 16.4 C 68.6 16.4 68.6 16.4 68.6 16.4 C 68.6 16.4 68.6 16.4 68.6 16.4 C 68.7 16.4 68.7 16.4 68.8 16.4 C 68.8 16.4 68.8 16.4 68.8 16.4 C 68.8 16.4 68.9 16.4 69.1 16.4 C 69.2 16.4 69.5 16.3 69.7 16.3 C 69.7 16.3 69.7 16.3 69.8 16.3 C 69.8 16.3 69.8 16.3 69.8 16.3 C 69.8 16.3 69.9 16.3 69.9 16.3 C 69.9 16.3 70 16.3 70 16.4 C 70 16.4 70 16.4 69.9 16.5 C 69.9 16.5 69.9 16.5 69.9 16.5 Z M 72.1 16.7 C 72.1 16.7 72.1 16.7 72.1 16.7 C 72 16.8 71.9 16.9 71.7 17.2 C 71.5 17.4 71.4 17.6 71.3 17.7 C 71.2 17.7 71.2 17.8 71.1 17.8 C 71.1 17.8 71 17.7 71 17.7 C 71 17.6 70.9 17.5 70.9 17.4 C 70.8 17 70.7 16.8 70.7 16.8 C 70.6 16.8 70.6 16.9 70.6 16.9 C 70.6 17.1 70.6 17.2 70.5 17.5 C 70.4 17.9 70.4 18.1 70.4 18.2 C 70.3 18.3 70.3 18.3 70.3 18.3 C 70.3 18.3 70.3 18.3 70.2 18.3 C 70.2 18.3 70.2 18.3 70.2 18.3 C 70.1 18.2 70.1 18.2 70.1 18.2 C 70.1 18.1 70.1 18 70.2 17.8 C 70.2 17.8 70.3 17.3 70.3 17.3 C 70.4 17.1 70.4 16.9 70.4 16.7 C 70.5 16.6 70.5 16.5 70.5 16.4 C 70.5 16.3 70.5 16.3 70.6 16.3 C 70.7 16.3 70.7 16.3 70.7 16.4 C 70.8 16.4 70.8 16.5 70.8 16.5 C 70.8 16.5 70.8 16.6 70.8 16.6 C 70.8 16.6 71 17.1 71 17.1 C 71.1 17.3 71.1 17.4 71.1 17.4 C 71.2 17.5 71.2 17.5 71.2 17.5 C 71.2 17.5 71.4 17.3 71.7 16.9 C 72 16.5 72.1 16.3 72.2 16.3 C 72.2 16.3 72.3 16.3 72.3 16.3 C 72.3 16.3 72.4 16.4 72.4 16.4 C 72.4 16.4 72.3 16.6 72.3 17 C 72.3 17.1 72.3 17.3 72.2 17.5 C 72.2 17.7 72.2 17.8 72.2 17.8 C 72.2 17.9 72.2 17.9 72.2 18 C 72.3 18 72.3 18.1 72.3 18.1 C 72.3 18.1 72.3 18.1 72.2 18.2 C 72.2 18.2 72.2 18.3 72.2 18.3 C 72.2 18.3 72.1 18.3 72.1 18.3 C 72 18.3 72 18.2 72 18 C 72 17.9 72 17.6 72.1 17 C 72.1 17 72.1 16.9 72.1 16.9 C 72.1 16.9 72.1 16.9 72.1 16.8 C 72.1 16.8 72.1 16.7 72.1 16.7 C 72.1 16.7 72.1 16.7 72.1 16.7 Z M 73.7 16.3 C 73.7 16.3 73.8 16.3 73.8 16.3 C 73.8 16.3 73.8 16.3 73.8 16.4 C 73.8 16.4 73.8 16.5 73.8 16.5 C 73.8 16.5 73.8 16.5 73.8 16.5 C 73.8 16.6 73.9 16.7 73.9 16.8 C 73.9 16.9 74 17 74 17.1 C 74.1 17.3 74.2 17.5 74.3 17.7 C 74.3 17.9 74.4 18 74.5 18.1 C 74.5 18.1 74.6 18.1 74.6 18.1 C 74.6 18.2 74.6 18.2 74.6 18.2 C 74.6 18.2 74.6 18.3 74.6 18.3 C 74.5 18.3 74.5 18.3 74.5 18.3 C 74.3 18.3 74.2 18.2 74 17.8 C 74 17.7 73.9 17.6 73.9 17.6 C 73.9 17.6 73.8 17.6 73.6 17.6 C 73.5 17.7 73.4 17.7 73.3 17.7 C 73.2 17.7 73.2 17.8 73.1 17.8 C 73.1 17.8 73.1 17.7 73.1 17.7 C 73.1 17.7 73.1 17.7 73 17.7 C 73 17.7 73 17.8 72.9 17.9 C 72.8 18.1 72.7 18.2 72.7 18.2 C 72.7 18.3 72.7 18.3 72.6 18.3 C 72.6 18.3 72.6 18.3 72.5 18.2 C 72.5 18.2 72.5 18.2 72.5 18.2 C 72.5 18.1 72.5 18.1 72.5 18 C 72.6 18 72.6 17.9 72.7 17.8 C 72.9 17.5 73.1 17.2 73.2 17 C 73.4 16.7 73.5 16.4 73.5 16.4 C 73.6 16.3 73.6 16.3 73.7 16.3 C 73.7 16.3 73.7 16.3 73.7 16.3 Z M 73.5 17.5 C 73.7 17.4 73.8 17.4 73.9 17.4 C 73.8 17.3 73.8 17.2 73.7 17 C 73.7 16.8 73.6 16.7 73.6 16.6 C 73.6 16.7 73.5 16.9 73.4 17.1 C 73.4 17.1 73.1 17.5 73.1 17.5 C 73.2 17.5 73.2 17.5 73.3 17.5 C 73.4 17.5 73.4 17.5 73.5 17.5 C 73.5 17.5 73.5 17.5 73.5 17.5 Z M 76.1 16.7 C 76.1 16.6 76 16.6 76 16.5 C 75.9 16.5 75.8 16.5 75.7 16.5 C 75.6 16.5 75.4 16.5 75.2 16.6 C 75.1 16.7 75 16.8 75 16.9 C 75 16.9 75 17 75.1 17.1 C 75.2 17.1 75.3 17.2 75.6 17.2 C 75.8 17.3 75.9 17.4 76 17.4 C 76.1 17.5 76.2 17.6 76.2 17.7 C 76.2 17.8 76.1 17.9 76 18 C 75.8 18.1 75.7 18.2 75.5 18.3 C 75.3 18.3 75.2 18.4 75 18.4 C 74.9 18.4 74.8 18.3 74.8 18.3 C 74.7 18.3 74.7 18.3 74.7 18.2 C 74.7 18.2 74.7 18.2 74.7 18.1 C 74.7 18.1 74.8 18.1 74.8 18.1 C 74.8 18.1 74.8 18.1 74.8 18.1 C 74.9 18.1 75 18.1 75.1 18.1 C 75.3 18.1 75.5 18.1 75.6 18 C 75.8 17.9 75.9 17.8 75.9 17.7 C 75.9 17.7 75.9 17.6 75.8 17.6 C 75.8 17.6 75.6 17.5 75.4 17.4 C 75.1 17.3 74.9 17.3 74.9 17.2 C 74.8 17.1 74.8 17 74.8 16.9 C 74.8 16.7 74.9 16.6 75.1 16.4 C 75.3 16.3 75.5 16.3 75.8 16.3 C 75.9 16.3 76 16.3 76.1 16.3 C 76.2 16.4 76.2 16.5 76.2 16.5 C 76.2 16.6 76.2 16.6 76.2 16.7 C 76.2 16.7 76.1 16.7 76.1 16.7 Z M 77.7 16.8 C 77.7 16.7 77.8 16.7 77.8 16.6 C 77.8 16.6 77.7 16.6 77.7 16.6 C 77.6 16.5 77.6 16.5 77.6 16.5 C 77.6 16.4 77.6 16.4 77.6 16.4 C 77.7 16.3 77.7 16.3 77.7 16.3 C 77.7 16.3 77.9 16.3 77.9 16.3 C 78 16.3 78.1 16.3 78.3 16.3 C 78.4 16.3 78.5 16.3 78.6 16.3 C 78.8 16.3 79 16.4 79.2 16.5 C 79.3 16.6 79.4 16.8 79.4 17 C 79.4 17.3 79.3 17.5 79.1 17.7 C 78.9 17.9 78.5 18.1 78.2 18.2 C 78 18.2 77.9 18.2 77.8 18.3 C 77.8 18.3 77.7 18.4 77.7 18.4 C 77.6 18.4 77.6 18.3 77.6 18.3 C 77.5 18.3 77.5 18.2 77.5 18.2 C 77.5 18.2 77.5 18.2 77.6 18.1 C 77.6 18.1 77.6 18.1 77.6 18 C 77.6 18 77.6 17.9 77.6 17.8 C 77.6 17.7 77.6 17.5 77.7 17.3 C 77.7 17.1 77.7 16.9 77.7 16.8 C 77.7 16.8 77.7 16.8 77.7 16.8 Z M 78.1 16.5 C 78.1 16.5 78 16.5 78 16.5 C 77.9 17.2 77.8 17.6 77.8 17.9 C 77.8 17.9 77.8 18 77.9 18 C 77.9 18 77.9 18 77.9 18 C 78 18 78.1 18 78.3 17.9 C 78.6 17.8 78.8 17.7 78.9 17.6 C 79.1 17.4 79.2 17.2 79.2 17 C 79.2 16.9 79.1 16.7 79 16.6 C 78.9 16.5 78.7 16.5 78.5 16.5 C 78.4 16.5 78.3 16.5 78.1 16.5 C 78.1 16.5 78.1 16.5 78.1 16.5 Z M 80.1 18.3 C 80 18.3 79.9 18.3 79.7 18.1 C 79.6 18 79.6 17.8 79.6 17.7 C 79.6 17.5 79.6 17.3 79.7 17.1 C 79.9 16.8 80 16.6 80.2 16.5 C 80.4 16.3 80.5 16.3 80.7 16.3 C 80.9 16.3 81 16.3 81.1 16.3 C 81.2 16.4 81.3 16.4 81.4 16.5 C 81.4 16.6 81.5 16.6 81.5 16.7 C 81.5 16.8 81.5 16.9 81.5 17 C 81.5 17.1 81.5 17.3 81.4 17.4 C 81.4 17.6 81.3 17.7 81.1 17.9 C 80.9 18 80.8 18.2 80.7 18.2 C 80.5 18.3 80.3 18.3 80.1 18.3 Z M 79.8 17.7 C 79.8 17.8 79.9 17.9 79.9 18 C 80 18.1 80.1 18.1 80.2 18.1 C 80.5 18.1 80.7 18 81 17.7 C 81.2 17.5 81.3 17.2 81.3 16.9 C 81.3 16.8 81.3 16.8 81.2 16.7 C 81.2 16.6 81.1 16.6 81 16.5 C 80.9 16.5 80.8 16.5 80.7 16.5 C 80.5 16.5 80.3 16.6 80.1 16.9 C 79.9 17.1 79.8 17.4 79.8 17.7 Z M 83.8 16.3 C 83.8 16.3 83.9 16.3 83.9 16.3 C 83.9 16.3 83.9 16.3 83.9 16.4 C 83.9 16.4 83.9 16.5 83.9 16.5 C 83.9 16.5 83.9 16.5 83.9 16.5 C 84 16.6 84 16.7 84 16.8 C 84.1 16.9 84.1 17 84.1 17.1 C 84.2 17.3 84.3 17.5 84.4 17.7 C 84.5 17.9 84.5 18 84.6 18.1 C 84.7 18.1 84.7 18.1 84.7 18.1 C 84.7 18.2 84.7 18.2 84.7 18.2 C 84.7 18.2 84.7 18.3 84.7 18.3 C 84.6 18.3 84.6 18.3 84.6 18.3 C 84.5 18.3 84.3 18.2 84.2 17.8 C 84.1 17.7 84.1 17.6 84 17.6 C 84 17.6 83.9 17.6 83.8 17.6 C 83.6 17.7 83.5 17.7 83.4 17.7 C 83.3 17.7 83.3 17.8 83.3 17.8 C 83.2 17.8 83.2 17.7 83.2 17.7 C 83.2 17.7 83.2 17.7 83.2 17.7 C 83.1 17.7 83.1 17.8 83 17.9 C 82.9 18.1 82.9 18.2 82.8 18.2 C 82.8 18.3 82.8 18.3 82.7 18.3 C 82.7 18.3 82.7 18.3 82.7 18.2 C 82.6 18.2 82.6 18.2 82.6 18.2 C 82.6 18.1 82.6 18.1 82.7 18 C 82.7 18 82.8 17.9 82.9 17.8 C 83 17.5 83.2 17.2 83.3 17 C 83.5 16.7 83.6 16.4 83.7 16.4 C 83.7 16.3 83.8 16.3 83.8 16.3 C 83.8 16.3 83.8 16.3 83.8 16.3 Z M 83.6 17.5 C 83.8 17.4 84 17.4 84 17.4 C 84 17.3 83.9 17.2 83.9 17 C 83.8 16.8 83.8 16.7 83.7 16.6 C 83.7 16.7 83.6 16.9 83.5 17.1 C 83.5 17.1 83.3 17.5 83.3 17.5 C 83.3 17.5 83.3 17.5 83.4 17.5 C 83.5 17.5 83.5 17.5 83.6 17.5 C 83.6 17.5 83.6 17.5 83.6 17.5 Z M 84.8 16.7 C 84.7 16.7 84.6 16.6 84.6 16.6 C 84.6 16.6 84.6 16.6 84.6 16.5 C 84.6 16.5 84.6 16.5 84.6 16.5 C 84.6 16.4 84.7 16.4 84.9 16.4 C 85.1 16.4 85.2 16.4 85.4 16.4 C 85.5 16.4 85.7 16.4 86 16.3 C 86.1 16.3 86.2 16.3 86.3 16.3 C 86.4 16.3 86.4 16.3 86.5 16.3 C 86.5 16.3 86.5 16.3 86.6 16.3 C 86.6 16.3 86.6 16.4 86.6 16.4 C 86.6 16.4 86.6 16.4 86.6 16.5 C 86.6 16.5 86.6 16.5 86.6 16.5 C 86.5 16.5 86.5 16.5 86.4 16.5 C 86.4 16.5 86.3 16.5 86.2 16.5 C 86.1 16.5 86 16.5 85.9 16.6 C 85.8 16.6 85.7 16.6 85.7 16.6 C 85.7 16.6 85.7 16.8 85.6 17.1 C 85.6 17.5 85.6 17.7 85.6 17.8 C 85.6 17.9 85.6 18 85.6 18.1 C 85.6 18.1 85.6 18.1 85.6 18.1 C 85.6 18.2 85.6 18.2 85.6 18.2 C 85.6 18.3 85.5 18.3 85.5 18.3 C 85.5 18.3 85.4 18.3 85.4 18.2 C 85.4 18.2 85.3 18 85.3 17.8 C 85.3 17.6 85.4 17.3 85.4 16.7 C 85.5 16.7 85.5 16.7 85.5 16.7 C 85.5 16.6 85.4 16.6 85.4 16.6 C 85.3 16.6 85.2 16.6 85.1 16.6 C 84.9 16.6 84.8 16.7 84.8 16.7 C 84.8 16.7 84.8 16.7 84.8 16.7 Z M 87.3 18.3 C 87.2 18.3 87.1 18.3 87 18.2 C 86.8 18.2 86.7 18.1 86.7 17.9 C 86.6 17.8 86.6 17.6 86.6 17.5 C 86.6 17.4 86.6 17.2 86.6 17 C 86.6 16.9 86.6 16.8 86.7 16.8 C 86.7 16.6 86.7 16.4 86.7 16.4 C 86.7 16.4 86.7 16.3 86.8 16.3 C 86.8 16.3 86.8 16.3 86.9 16.3 C 86.9 16.3 86.9 16.3 86.9 16.3 C 86.9 16.4 87 16.4 87 16.4 C 87 16.5 86.9 16.5 86.9 16.7 C 86.9 16.8 86.9 16.9 86.8 17.1 C 86.8 17.3 86.8 17.4 86.8 17.5 C 86.8 17.7 86.9 17.9 87 18 C 87.1 18.1 87.2 18.1 87.3 18.1 C 87.4 18.1 87.5 18.1 87.7 18 C 87.8 18 87.8 17.9 87.9 17.8 C 88 17.7 88 17.4 88 17.1 C 88 16.8 88.1 16.5 88.1 16.5 C 88.1 16.4 88.2 16.3 88.2 16.3 C 88.3 16.3 88.3 16.4 88.3 16.5 C 88.3 16.6 88.3 16.7 88.3 16.9 C 88.3 17 88.2 17.1 88.2 17.3 C 88.2 17.4 88.2 17.5 88.2 17.6 C 88.2 17.7 88.2 17.8 88.1 17.9 C 88.1 17.9 88 18 88 18 C 87.9 18.1 87.9 18.1 87.8 18.2 C 87.7 18.2 87.7 18.3 87.6 18.3 C 87.4 18.3 87.4 18.3 87.3 18.3 Z M 89.5 16.3 C 89.6 16.3 89.6 16.3 89.7 16.3 C 89.7 16.3 89.7 16.3 89.7 16.4 C 89.7 16.4 89.7 16.5 89.7 16.5 C 89.7 16.5 89.7 16.5 89.7 16.5 C 89.7 16.6 89.7 16.7 89.8 16.8 C 89.8 16.9 89.8 17 89.9 17.1 C 90 17.3 90 17.5 90.1 17.7 C 90.2 17.9 90.3 18 90.4 18.1 C 90.4 18.1 90.4 18.1 90.4 18.1 C 90.5 18.2 90.5 18.2 90.5 18.2 C 90.5 18.2 90.4 18.3 90.4 18.3 C 90.4 18.3 90.4 18.3 90.3 18.3 C 90.2 18.3 90.1 18.2 89.9 17.8 C 89.8 17.7 89.8 17.6 89.8 17.6 C 89.7 17.6 89.7 17.6 89.5 17.6 C 89.4 17.7 89.2 17.7 89.1 17.7 C 89.1 17.7 89 17.8 89 17.8 C 89 17.8 89 17.7 88.9 17.7 C 88.9 17.7 88.9 17.7 88.9 17.7 C 88.9 17.7 88.9 17.8 88.8 17.9 C 88.7 18.1 88.6 18.2 88.6 18.2 C 88.6 18.3 88.5 18.3 88.5 18.3 C 88.5 18.3 88.4 18.3 88.4 18.2 C 88.4 18.2 88.4 18.2 88.4 18.2 C 88.4 18.1 88.4 18.1 88.4 18 C 88.4 18 88.5 17.9 88.6 17.8 C 88.8 17.5 88.9 17.2 89 17 C 89.2 16.7 89.4 16.4 89.4 16.4 C 89.5 16.3 89.5 16.3 89.5 16.3 C 89.5 16.3 89.5 16.3 89.5 16.3 Z M 89.3 17.5 C 89.6 17.4 89.7 17.4 89.7 17.4 C 89.7 17.3 89.7 17.2 89.6 17 C 89.5 16.8 89.5 16.7 89.5 16.6 C 89.4 16.7 89.4 16.9 89.3 17.1 C 89.3 17.1 89 17.5 89 17.5 C 89 17.5 89.1 17.5 89.2 17.5 C 89.2 17.5 89.3 17.5 89.3 17.5 C 89.3 17.5 89.3 17.5 89.3 17.5 Z M 90.7 18 C 90.7 18 90.7 17.9 90.7 17.9 C 90.7 17.8 90.7 17.7 90.7 17.5 C 90.8 17.3 90.8 17.1 90.8 16.8 C 90.8 16.6 90.9 16.4 90.9 16.4 C 90.9 16.4 90.9 16.3 90.9 16.3 C 90.9 16.3 91 16.3 91 16.3 C 91 16.3 91.1 16.3 91.1 16.3 C 91.1 16.3 91.1 16.4 91.1 16.4 C 91.1 16.4 91.1 16.5 91.1 16.6 C 91.1 16.7 91 16.9 91 17.3 C 90.9 17.7 90.9 17.9 90.9 17.9 C 90.9 18 90.9 18 90.9 18 C 90.9 18 91 18 91 18 C 91 18 91.1 18 91.3 18 C 91.4 18 91.6 17.9 91.8 17.9 C 91.9 17.9 91.9 17.9 92 17.9 C 92 17.9 92 17.9 92 17.9 C 92.1 17.9 92.1 17.9 92.1 17.9 C 92.1 17.9 92.2 18 92.2 18 C 92.2 18.1 92.1 18.1 92.1 18.1 C 92.1 18.2 92 18.2 92 18.2 C 91.9 18.2 91.9 18.2 91.9 18.2 C 91.8 18.2 91.8 18.2 91.7 18.2 C 91.4 18.2 91.2 18.2 90.9 18.3 C 90.8 18.3 90.8 18.3 90.8 18.3 C 90.7 18.3 90.7 18.3 90.7 18.3 C 90.6 18.2 90.6 18.2 90.6 18.2 C 90.6 18.1 90.6 18.1 90.7 18 C 90.7 18 90.7 18 90.7 18 Z " stroke="none" fill="#000"/>  </g>  <g id="Polygon13788">    <path d="M 32.7 13.1 C 32.6 12.8 32.5 12.7 32.5 12.7 C 32.5 12.6 32.6 12.6 32.6 12.5 C 32.6 12.5 32.6 12.5 32.7 12.5 C 32.7 12.5 32.8 12.6 32.8 12.7 C 32.9 12.9 33 13.4 33.3 14.1 C 33.4 14 33.4 14 33.4 13.9 C 33.6 13.6 33.8 13.4 33.8 13.3 C 34.1 12.7 34.3 12.4 34.4 12.4 C 34.5 12.4 34.5 12.4 34.5 12.5 C 34.5 12.5 34.5 12.5 34.5 12.5 C 34.5 12.6 34.5 12.6 34.4 12.7 C 34.3 12.9 34.1 13.2 33.9 13.5 C 33.8 13.7 33.7 13.8 33.6 14 C 33.5 14.1 33.5 14.2 33.5 14.3 C 33.5 14.3 33.4 14.4 33.4 14.4 C 33.3 14.4 33.3 14.4 33.2 14.4 C 33.2 14.4 33.2 14.3 33.1 14.1 C 33 14 32.9 13.6 32.7 13.1 C 32.7 13.1 32.7 13.1 32.7 13.1 Z M 35 14.5 C 34.8 14.5 34.7 14.4 34.6 14.3 C 34.5 14.1 34.4 14 34.4 13.8 C 34.4 13.7 34.5 13.5 34.6 13.2 C 34.7 13 34.8 12.8 35 12.7 C 35.2 12.5 35.4 12.4 35.6 12.4 C 35.7 12.4 35.8 12.5 35.9 12.5 C 36 12.5 36.1 12.6 36.2 12.7 C 36.3 12.7 36.3 12.8 36.3 12.9 C 36.4 12.9 36.4 13 36.4 13.2 C 36.4 13.3 36.3 13.4 36.3 13.6 C 36.2 13.7 36.1 13.9 35.9 14.1 C 35.8 14.2 35.6 14.3 35.5 14.4 C 35.4 14.5 35.2 14.5 35 14.5 Z M 34.7 13.8 C 34.7 14 34.7 14.1 34.8 14.1 C 34.9 14.2 34.9 14.3 35.1 14.3 C 35.3 14.3 35.6 14.1 35.8 13.9 C 36 13.6 36.1 13.4 36.1 13.1 C 36.1 13 36.1 12.9 36.1 12.9 C 36 12.8 36 12.7 35.9 12.7 C 35.8 12.7 35.7 12.6 35.6 12.6 C 35.4 12.6 35.2 12.8 35 13 C 34.8 13.3 34.7 13.6 34.7 13.8 Z M 36.7 12.8 C 36.6 12.8 36.5 12.8 36.5 12.8 C 36.5 12.8 36.5 12.7 36.5 12.7 C 36.5 12.7 36.5 12.6 36.5 12.6 C 36.5 12.6 36.6 12.6 36.8 12.6 C 36.9 12.6 37.1 12.6 37.2 12.6 C 37.4 12.6 37.6 12.5 37.9 12.5 C 38 12.5 38.1 12.5 38.2 12.5 C 38.3 12.5 38.3 12.5 38.4 12.5 C 38.4 12.5 38.4 12.5 38.5 12.5 C 38.5 12.5 38.5 12.5 38.5 12.6 C 38.5 12.6 38.5 12.6 38.5 12.6 C 38.5 12.7 38.5 12.7 38.5 12.7 C 38.4 12.7 38.4 12.7 38.3 12.7 C 38.3 12.7 38.2 12.7 38.1 12.7 C 38 12.7 37.9 12.7 37.8 12.7 C 37.7 12.7 37.6 12.8 37.6 12.8 C 37.6 12.8 37.5 13 37.5 13.3 C 37.5 13.6 37.5 13.9 37.5 14 C 37.5 14.1 37.5 14.2 37.5 14.3 C 37.5 14.3 37.5 14.3 37.5 14.3 C 37.5 14.3 37.5 14.4 37.5 14.4 C 37.4 14.4 37.4 14.4 37.4 14.4 C 37.3 14.4 37.3 14.4 37.3 14.4 C 37.2 14.3 37.2 14.2 37.2 14 C 37.2 13.8 37.3 13.4 37.3 12.9 C 37.3 12.8 37.3 12.8 37.3 12.8 C 37.3 12.8 37.3 12.8 37.3 12.8 C 37.2 12.8 37.1 12.8 37 12.8 C 36.8 12.8 36.7 12.8 36.7 12.8 C 36.7 12.8 36.7 12.8 36.7 12.8 Z M 38.9 14.5 C 38.8 14.5 38.6 14.4 38.5 14.3 C 38.4 14.1 38.4 14 38.4 13.8 C 38.4 13.7 38.4 13.5 38.5 13.2 C 38.6 13 38.8 12.8 38.9 12.7 C 39.1 12.5 39.3 12.4 39.5 12.4 C 39.6 12.4 39.8 12.5 39.9 12.5 C 40 12.5 40 12.6 40.1 12.7 C 40.2 12.7 40.3 12.8 40.3 12.9 C 40.3 12.9 40.3 13 40.3 13.2 C 40.3 13.3 40.3 13.4 40.2 13.6 C 40.1 13.7 40 13.9 39.9 14.1 C 39.7 14.2 39.6 14.3 39.4 14.4 C 39.3 14.5 39.1 14.5 38.9 14.5 Z M 38.6 13.8 C 38.6 14 38.6 14.1 38.7 14.1 C 38.8 14.2 38.9 14.3 39 14.3 C 39.3 14.3 39.5 14.1 39.7 13.9 C 40 13.6 40.1 13.4 40.1 13.1 C 40.1 13 40 12.9 40 12.9 C 40 12.8 39.9 12.7 39.8 12.7 C 39.7 12.7 39.6 12.6 39.5 12.6 C 39.3 12.6 39.1 12.8 38.9 13 C 38.7 13.3 38.6 13.6 38.6 13.8 Z M 41.8 13 C 41.8 12.9 41.8 12.8 41.8 12.8 C 41.8 12.8 41.8 12.7 41.8 12.7 C 41.7 12.7 41.7 12.7 41.7 12.6 C 41.7 12.6 41.7 12.6 41.7 12.5 C 41.7 12.5 41.8 12.5 41.8 12.5 C 41.8 12.5 42 12.5 42 12.5 C 42.1 12.5 42.2 12.5 42.3 12.5 C 42.5 12.5 42.6 12.5 42.7 12.5 C 42.9 12.5 43.1 12.5 43.2 12.7 C 43.4 12.8 43.5 13 43.5 13.2 C 43.5 13.5 43.4 13.7 43.1 13.9 C 42.9 14.1 42.6 14.2 42.2 14.3 C 42.1 14.4 42 14.4 41.9 14.4 C 41.8 14.5 41.8 14.5 41.7 14.5 C 41.7 14.5 41.7 14.5 41.6 14.5 C 41.6 14.4 41.6 14.4 41.6 14.4 C 41.6 14.4 41.6 14.4 41.6 14.3 C 41.7 14.3 41.7 14.2 41.7 14.2 C 41.7 14.2 41.7 14.1 41.7 14 C 41.7 13.9 41.7 13.7 41.7 13.5 C 41.8 13.2 41.8 13.1 41.8 13 C 41.8 13 41.8 13 41.8 13 Z M 42.2 12.7 C 42.1 12.7 42.1 12.7 42.1 12.7 C 42 13.3 41.9 13.8 41.9 14 C 41.9 14.1 41.9 14.1 41.9 14.2 C 41.9 14.2 42 14.2 42 14.2 C 42 14.2 42.2 14.1 42.4 14.1 C 42.7 14 42.9 13.9 43 13.7 C 43.2 13.6 43.2 13.4 43.2 13.2 C 43.2 13 43.2 12.9 43.1 12.8 C 42.9 12.7 42.8 12.7 42.6 12.7 C 42.5 12.7 42.3 12.7 42.2 12.7 C 42.2 12.7 42.2 12.7 42.2 12.7 Z M 44.2 12.6 C 44.2 12.7 44.2 12.8 44.1 13 C 44.1 13.1 44.1 13.2 44.1 13.3 C 44.1 13.3 44.1 13.4 44.1 13.4 C 44 13.6 44 13.8 44 13.9 C 44 14 44 14.1 44 14.2 C 44.1 14.3 44 14.4 44 14.4 C 44 14.4 43.9 14.4 43.9 14.4 C 43.9 14.4 43.8 14.4 43.8 14.4 C 43.8 14.3 43.8 14.2 43.8 14.1 C 43.8 14 43.8 13.8 43.8 13.6 C 43.8 13.5 43.8 13.4 43.8 13.4 C 43.9 13.4 43.9 13.4 43.9 13.3 C 43.9 13.3 43.9 13.3 43.9 13.2 C 43.9 13.2 43.9 13 43.9 12.9 C 43.9 12.8 44 12.7 44 12.6 C 44 12.6 44 12.6 44 12.5 C 44 12.5 44 12.5 44 12.5 C 44.1 12.5 44.1 12.4 44.1 12.4 C 44.2 12.4 44.2 12.5 44.2 12.5 C 44.2 12.5 44.2 12.6 44.2 12.6 Z M 45.8 12.9 C 45.8 12.8 45.8 12.7 45.7 12.7 C 45.7 12.7 45.6 12.6 45.5 12.6 C 45.3 12.6 45.1 12.7 45 12.8 C 44.8 12.8 44.8 12.9 44.8 13 C 44.8 13.1 44.8 13.2 44.9 13.2 C 44.9 13.3 45.1 13.3 45.3 13.4 C 45.5 13.5 45.7 13.5 45.8 13.6 C 45.9 13.7 45.9 13.8 45.9 13.9 C 45.9 14 45.9 14.1 45.7 14.2 C 45.6 14.3 45.4 14.4 45.2 14.4 C 45.1 14.5 44.9 14.5 44.8 14.5 C 44.7 14.5 44.6 14.5 44.5 14.5 C 44.5 14.5 44.4 14.4 44.4 14.4 C 44.4 14.4 44.5 14.3 44.5 14.3 C 44.5 14.2 44.5 14.2 44.5 14.2 C 44.5 14.2 44.6 14.2 44.6 14.2 C 44.7 14.3 44.8 14.3 44.9 14.3 C 45 14.3 45.2 14.2 45.4 14.1 C 45.6 14 45.7 13.9 45.7 13.9 C 45.7 13.8 45.7 13.8 45.6 13.8 C 45.5 13.7 45.4 13.7 45.2 13.6 C 44.9 13.5 44.7 13.4 44.6 13.3 C 44.6 13.2 44.5 13.2 44.5 13.1 C 44.5 12.9 44.6 12.7 44.8 12.6 C 45.1 12.5 45.3 12.4 45.5 12.4 C 45.7 12.4 45.8 12.5 45.9 12.5 C 46 12.6 46 12.6 46 12.7 C 46 12.7 46 12.8 46 12.8 C 45.9 12.9 45.9 12.9 45.8 12.9 Z M 46.3 12.8 C 46.2 12.8 46.1 12.8 46.1 12.8 C 46.1 12.8 46.1 12.7 46.1 12.7 C 46.1 12.7 46.1 12.6 46.1 12.6 C 46.1 12.6 46.2 12.6 46.4 12.6 C 46.5 12.6 46.7 12.6 46.8 12.6 C 47 12.6 47.2 12.5 47.5 12.5 C 47.6 12.5 47.7 12.5 47.8 12.5 C 47.9 12.5 47.9 12.5 48 12.5 C 48 12.5 48 12.5 48.1 12.5 C 48.1 12.5 48.1 12.5 48.1 12.6 C 48.1 12.6 48.1 12.6 48.1 12.6 C 48.1 12.7 48.1 12.7 48.1 12.7 C 48 12.7 48 12.7 47.9 12.7 C 47.9 12.7 47.8 12.7 47.7 12.7 C 47.6 12.7 47.5 12.7 47.4 12.7 C 47.3 12.7 47.2 12.8 47.2 12.8 C 47.2 12.8 47.1 13 47.1 13.3 C 47.1 13.6 47.1 13.9 47.1 14 C 47.1 14.1 47.1 14.2 47.1 14.3 C 47.1 14.3 47.1 14.3 47.1 14.3 C 47.1 14.3 47.1 14.4 47.1 14.4 C 47 14.4 47 14.4 47 14.4 C 46.9 14.4 46.9 14.4 46.9 14.4 C 46.8 14.3 46.8 14.2 46.8 14 C 46.8 13.8 46.9 13.4 46.9 12.9 C 46.9 12.8 46.9 12.8 46.9 12.8 C 46.9 12.8 46.9 12.8 46.9 12.8 C 46.8 12.8 46.7 12.8 46.6 12.8 C 46.4 12.8 46.3 12.8 46.3 12.8 C 46.3 12.8 46.3 12.8 46.3 12.8 Z M 48.4 12.5 C 48.7 12.5 48.8 12.4 49 12.4 C 49.2 12.4 49.3 12.5 49.4 12.6 C 49.5 12.7 49.6 12.8 49.6 12.9 C 49.6 13 49.5 13.2 49.4 13.3 C 49.3 13.4 49.1 13.5 49 13.6 C 48.9 13.6 48.9 13.6 48.9 13.6 C 48.9 13.6 49 13.7 49.2 13.8 C 49.4 14 49.6 14.1 49.7 14.2 C 49.8 14.2 49.8 14.3 49.8 14.3 C 49.8 14.3 49.8 14.4 49.7 14.4 C 49.7 14.4 49.7 14.4 49.6 14.4 C 49.6 14.4 49.5 14.4 49.4 14.3 C 49.3 14.2 49.2 14.1 49 14 C 48.8 13.8 48.6 13.7 48.6 13.7 C 48.5 13.7 48.5 13.7 48.5 13.6 C 48.4 13.6 48.4 13.6 48.4 13.6 C 48.4 13.5 48.4 13.5 48.5 13.5 C 48.5 13.4 48.5 13.4 48.6 13.4 C 48.6 13.4 48.6 13.4 48.7 13.4 C 48.7 13.4 48.7 13.4 48.7 13.4 C 48.8 13.4 48.9 13.4 49.1 13.3 C 49.3 13.2 49.4 13.1 49.4 12.9 C 49.4 12.8 49.3 12.8 49.2 12.7 C 49.2 12.7 49.1 12.6 48.9 12.6 C 48.9 12.6 48.8 12.6 48.7 12.7 C 48.6 12.7 48.5 12.7 48.5 12.7 C 48.5 12.7 48.5 12.7 48.4 12.8 C 48.4 12.8 48.4 12.9 48.4 13.1 C 48.3 13.3 48.3 13.5 48.3 13.7 C 48.3 13.9 48.3 14 48.3 14.1 C 48.3 14.1 48.3 14.2 48.3 14.2 C 48.3 14.3 48.3 14.3 48.3 14.3 C 48.3 14.4 48.3 14.4 48.2 14.4 C 48.2 14.5 48.2 14.5 48.1 14.5 C 48.1 14.5 48 14.4 48 14.2 C 48 13.9 48.1 13.4 48.2 12.8 C 48.2 12.8 48.2 12.8 48.2 12.8 C 48.2 12.8 48.2 12.7 48.2 12.7 C 48.2 12.7 48.1 12.6 48.1 12.6 C 48.1 12.6 48.2 12.6 48.2 12.5 C 48.2 12.5 48.3 12.5 48.3 12.5 C 48.3 12.5 48.4 12.5 48.4 12.5 Z M 50.5 12.6 C 50.5 12.7 50.4 12.8 50.4 13 C 50.4 13.1 50.3 13.2 50.3 13.3 C 50.3 13.3 50.3 13.4 50.3 13.4 C 50.3 13.6 50.3 13.8 50.3 13.9 C 50.3 14 50.3 14.1 50.3 14.2 C 50.3 14.3 50.3 14.4 50.2 14.4 C 50.2 14.4 50.2 14.4 50.1 14.4 C 50.1 14.4 50.1 14.4 50 14.4 C 50 14.3 50 14.2 50 14.1 C 50 14 50 13.8 50.1 13.6 C 50.1 13.5 50.1 13.4 50.1 13.4 C 50.1 13.4 50.1 13.4 50.1 13.3 C 50.1 13.3 50.1 13.3 50.1 13.2 C 50.1 13.2 50.1 13 50.2 12.9 C 50.2 12.8 50.2 12.7 50.2 12.6 C 50.2 12.6 50.2 12.6 50.2 12.5 C 50.2 12.5 50.2 12.5 50.3 12.5 C 50.3 12.5 50.3 12.4 50.4 12.4 C 50.4 12.4 50.4 12.5 50.4 12.5 C 50.5 12.5 50.5 12.6 50.5 12.6 Z M 50.8 12.8 C 50.7 12.8 50.6 12.8 50.6 12.8 C 50.6 12.8 50.6 12.7 50.6 12.7 C 50.6 12.7 50.6 12.6 50.6 12.6 C 50.7 12.6 50.8 12.6 50.9 12.6 C 51.1 12.6 51.2 12.6 51.4 12.6 C 51.5 12.6 51.7 12.5 52 12.5 C 52.1 12.5 52.3 12.5 52.4 12.5 C 52.4 12.5 52.5 12.5 52.5 12.5 C 52.5 12.5 52.6 12.5 52.6 12.5 C 52.6 12.5 52.6 12.5 52.6 12.6 C 52.7 12.6 52.7 12.6 52.7 12.6 C 52.7 12.7 52.6 12.7 52.6 12.7 C 52.6 12.7 52.5 12.7 52.5 12.7 C 52.4 12.7 52.4 12.7 52.3 12.7 C 52.2 12.7 52.1 12.7 51.9 12.7 C 51.8 12.7 51.7 12.8 51.7 12.8 C 51.7 12.8 51.7 13 51.6 13.3 C 51.6 13.6 51.6 13.9 51.6 14 C 51.6 14.1 51.6 14.2 51.6 14.3 C 51.6 14.3 51.6 14.3 51.6 14.3 C 51.6 14.3 51.6 14.4 51.6 14.4 C 51.6 14.4 51.6 14.4 51.5 14.4 C 51.5 14.4 51.4 14.4 51.4 14.4 C 51.4 14.3 51.4 14.2 51.4 14 C 51.4 13.8 51.4 13.4 51.5 12.9 C 51.5 12.8 51.5 12.8 51.5 12.8 C 51.5 12.8 51.5 12.8 51.4 12.8 C 51.4 12.8 51.3 12.8 51.1 12.8 C 51 12.8 50.9 12.8 50.8 12.8 C 50.8 12.8 50.8 12.8 50.8 12.8 Z M 53.4 12.4 C 53.5 12.4 53.5 12.5 53.5 12.5 C 53.5 12.5 53.5 12.5 53.5 12.6 C 53.5 12.6 53.5 12.6 53.5 12.6 C 53.5 12.6 53.6 12.7 53.6 12.7 C 53.6 12.8 53.6 12.9 53.6 13 C 53.7 13 53.7 13.1 53.7 13.2 C 53.8 13.5 53.9 13.7 54 13.9 C 54.1 14 54.2 14.2 54.2 14.2 C 54.3 14.3 54.3 14.3 54.3 14.3 C 54.3 14.3 54.3 14.3 54.3 14.4 C 54.3 14.4 54.3 14.4 54.3 14.5 C 54.3 14.5 54.2 14.5 54.2 14.5 C 54.1 14.5 53.9 14.3 53.8 14 C 53.7 13.8 53.7 13.8 53.7 13.8 C 53.6 13.8 53.5 13.8 53.4 13.8 C 53.2 13.8 53.1 13.9 53 13.9 C 52.9 13.9 52.9 13.9 52.9 13.9 C 52.9 13.9 52.8 13.9 52.8 13.9 C 52.8 13.9 52.8 13.9 52.8 13.9 C 52.8 13.9 52.7 13.9 52.7 14.1 C 52.6 14.2 52.5 14.4 52.5 14.4 C 52.4 14.4 52.4 14.5 52.4 14.5 C 52.3 14.5 52.3 14.4 52.3 14.4 C 52.2 14.4 52.2 14.4 52.2 14.3 C 52.2 14.3 52.2 14.3 52.3 14.2 C 52.3 14.2 52.4 14.1 52.5 13.9 C 52.6 13.7 52.8 13.4 52.9 13.2 C 53.1 12.8 53.2 12.6 53.3 12.5 C 53.3 12.5 53.4 12.4 53.4 12.4 C 53.4 12.4 53.4 12.4 53.4 12.4 Z M 53.2 13.6 C 53.4 13.6 53.6 13.6 53.6 13.5 C 53.6 13.5 53.5 13.3 53.5 13.2 C 53.4 13 53.4 12.8 53.4 12.8 C 53.3 12.9 53.2 13 53.1 13.2 C 53.1 13.2 52.9 13.7 52.9 13.7 C 52.9 13.7 53 13.7 53 13.7 C 53.1 13.6 53.1 13.6 53.2 13.6 C 53.2 13.6 53.2 13.6 53.2 13.6 Z M 54.5 14.2 C 54.6 14.1 54.6 14.1 54.6 14 C 54.6 14 54.6 13.9 54.6 13.7 C 54.6 13.5 54.7 13.3 54.7 13 C 54.7 12.7 54.7 12.6 54.7 12.6 C 54.7 12.5 54.8 12.5 54.8 12.5 C 54.8 12.5 54.8 12.4 54.9 12.4 C 54.9 12.4 54.9 12.5 55 12.5 C 55 12.5 55 12.5 55 12.6 C 55 12.6 55 12.7 55 12.8 C 54.9 12.9 54.9 13.1 54.9 13.5 C 54.8 13.8 54.8 14 54.8 14.1 C 54.8 14.1 54.8 14.1 54.8 14.2 C 54.8 14.2 54.8 14.2 54.9 14.2 C 54.9 14.2 55 14.2 55.2 14.1 C 55.3 14.1 55.4 14.1 55.7 14.1 C 55.8 14.1 55.8 14.1 55.9 14.1 C 55.9 14.1 55.9 14.1 55.9 14.1 C 56 14.1 56 14.1 56 14.1 C 56 14.1 56 14.1 56 14.2 C 56 14.2 56 14.3 56 14.3 C 55.9 14.3 55.9 14.3 55.8 14.3 C 55.8 14.3 55.8 14.3 55.7 14.3 C 55.7 14.3 55.6 14.3 55.6 14.3 C 55.3 14.3 55 14.4 54.8 14.5 C 54.7 14.5 54.7 14.5 54.6 14.5 C 54.6 14.5 54.6 14.5 54.5 14.4 C 54.5 14.4 54.5 14.4 54.5 14.3 C 54.5 14.3 54.5 14.3 54.5 14.2 C 54.5 14.2 54.5 14.2 54.5 14.2 Z M 57.4 12.8 C 57.4 12.8 57.3 12.7 57.3 12.7 C 57.3 12.6 57.5 12.6 57.7 12.5 C 57.9 12.4 58.1 12.4 58.3 12.4 C 58.5 12.4 58.7 12.5 58.8 12.5 C 58.9 12.6 58.9 12.7 58.9 12.9 C 58.9 13.1 58.8 13.2 58.6 13.4 C 58.4 13.5 58.1 13.7 57.7 13.7 C 57.6 13.8 57.6 13.8 57.6 13.8 C 57.6 13.8 57.6 13.9 57.6 14 C 57.5 14.2 57.5 14.3 57.5 14.3 C 57.5 14.4 57.5 14.4 57.5 14.4 C 57.5 14.5 57.4 14.5 57.4 14.5 C 57.3 14.5 57.3 14.4 57.3 14.3 C 57.3 14.3 57.3 14.1 57.3 13.8 C 57.3 13.8 57.4 13 57.4 13 C 57.4 13 57.4 13 57.4 12.9 C 57.4 12.9 57.4 12.8 57.4 12.8 Z M 58.3 12.6 C 58.1 12.6 57.9 12.7 57.7 12.7 C 57.7 12.8 57.7 12.8 57.7 12.9 C 57.7 13 57.7 13.1 57.6 13.3 C 57.6 13.4 57.6 13.5 57.6 13.5 C 57.9 13.5 58.2 13.4 58.4 13.3 C 58.6 13.2 58.7 13 58.7 12.9 C 58.7 12.7 58.6 12.6 58.3 12.6 C 58.3 12.6 58.3 12.6 58.3 12.6 Z M 59.9 14.5 C 59.8 14.5 59.7 14.5 59.5 14.4 C 59.4 14.3 59.3 14.2 59.2 14.1 C 59.2 14 59.1 13.8 59.1 13.6 C 59.1 13.5 59.2 13.4 59.2 13.1 C 59.2 13.1 59.2 13 59.2 12.9 C 59.3 12.7 59.3 12.6 59.3 12.6 C 59.3 12.5 59.3 12.5 59.4 12.5 C 59.4 12.5 59.4 12.5 59.4 12.5 C 59.5 12.5 59.5 12.5 59.5 12.5 C 59.5 12.6 59.5 12.6 59.5 12.6 C 59.5 12.6 59.5 12.7 59.5 12.9 C 59.5 12.9 59.4 13.1 59.4 13.2 C 59.4 13.4 59.4 13.5 59.4 13.6 C 59.4 13.9 59.4 14 59.6 14.1 C 59.7 14.2 59.8 14.3 59.9 14.3 C 60 14.3 60.1 14.2 60.2 14.2 C 60.3 14.2 60.4 14.1 60.5 13.9 C 60.5 13.8 60.6 13.6 60.6 13.3 C 60.6 12.9 60.7 12.7 60.7 12.6 C 60.7 12.5 60.8 12.5 60.8 12.5 C 60.9 12.5 60.9 12.5 60.9 12.6 C 60.9 12.7 60.9 12.9 60.9 13.1 C 60.8 13.2 60.8 13.3 60.8 13.5 C 60.8 13.6 60.8 13.7 60.8 13.8 C 60.8 13.9 60.7 14 60.7 14 C 60.7 14.1 60.6 14.2 60.6 14.2 C 60.5 14.3 60.4 14.3 60.4 14.4 C 60.3 14.4 60.2 14.4 60.1 14.5 C 60 14.5 59.9 14.5 59.9 14.5 Z M 61.6 12.5 C 61.8 12.5 62 12.4 62.1 12.4 C 62.3 12.4 62.5 12.5 62.6 12.6 C 62.7 12.7 62.8 12.8 62.8 12.9 C 62.8 13 62.7 13.2 62.6 13.3 C 62.5 13.4 62.3 13.5 62.1 13.6 C 62.1 13.6 62.1 13.6 62.1 13.6 C 62.1 13.6 62.2 13.7 62.4 13.8 C 62.6 14 62.7 14.1 62.9 14.2 C 62.9 14.2 62.9 14.3 62.9 14.3 C 62.9 14.3 62.9 14.4 62.9 14.4 C 62.9 14.4 62.8 14.4 62.8 14.4 C 62.8 14.4 62.7 14.4 62.6 14.3 C 62.4 14.2 62.3 14.1 62.2 14 C 61.9 13.8 61.8 13.7 61.8 13.7 C 61.7 13.7 61.7 13.7 61.6 13.6 C 61.6 13.6 61.6 13.6 61.6 13.6 C 61.6 13.5 61.6 13.5 61.6 13.5 C 61.7 13.4 61.7 13.4 61.8 13.4 C 61.8 13.4 61.8 13.4 61.8 13.4 C 61.9 13.4 61.9 13.4 61.9 13.4 C 62 13.4 62.1 13.4 62.3 13.3 C 62.4 13.2 62.5 13.1 62.5 12.9 C 62.5 12.8 62.5 12.8 62.4 12.7 C 62.3 12.7 62.2 12.6 62.1 12.6 C 62 12.6 61.9 12.6 61.8 12.7 C 61.8 12.7 61.7 12.7 61.7 12.7 C 61.6 12.7 61.6 12.7 61.6 12.8 C 61.6 12.8 61.6 12.9 61.5 13.1 C 61.5 13.3 61.5 13.5 61.5 13.7 C 61.4 13.9 61.4 14 61.4 14.1 C 61.4 14.1 61.4 14.2 61.4 14.2 C 61.4 14.3 61.4 14.3 61.4 14.3 C 61.4 14.4 61.4 14.4 61.4 14.4 C 61.4 14.5 61.3 14.5 61.3 14.5 C 61.2 14.5 61.2 14.4 61.2 14.2 C 61.2 13.9 61.2 13.4 61.4 12.8 C 61.4 12.8 61.4 12.8 61.4 12.8 C 61.4 12.8 61.4 12.7 61.4 12.7 C 61.3 12.7 61.3 12.6 61.3 12.6 C 61.3 12.6 61.3 12.6 61.4 12.5 C 61.4 12.5 61.4 12.5 61.4 12.5 C 61.4 12.5 61.6 12.5 61.6 12.5 Z M 63.6 14.5 C 63.5 14.5 63.3 14.4 63.2 14.3 C 63.1 14.1 63.1 14 63.1 13.8 C 63.1 13.7 63.1 13.5 63.2 13.2 C 63.3 13 63.5 12.8 63.7 12.7 C 63.8 12.5 64 12.4 64.2 12.4 C 64.4 12.4 64.5 12.5 64.6 12.5 C 64.7 12.5 64.8 12.6 64.8 12.7 C 64.9 12.7 65 12.8 65 12.9 C 65 12.9 65 13 65 13.2 C 65 13.3 65 13.4 64.9 13.6 C 64.8 13.7 64.7 13.9 64.6 14.1 C 64.4 14.2 64.3 14.3 64.1 14.4 C 64 14.5 63.8 14.5 63.6 14.5 Z M 63.3 13.8 C 63.3 14 63.3 14.1 63.4 14.1 C 63.5 14.2 63.6 14.3 63.7 14.3 C 64 14.3 64.2 14.1 64.4 13.9 C 64.7 13.6 64.8 13.4 64.8 13.1 C 64.8 13 64.8 12.9 64.7 12.9 C 64.7 12.8 64.6 12.7 64.5 12.7 C 64.4 12.7 64.3 12.6 64.2 12.6 C 64 12.6 63.8 12.8 63.6 13 C 63.4 13.3 63.3 13.6 63.3 13.8 Z " stroke="none" fill="#000"/>  </g>  <g id="Polygon13787">    <path d="M 25.6 2.8 C 25.6 2.8 25.6 2.8 25.6 2.8 C 25.6 2.8 25.5 2.9 25.4 3.2 C 25.2 3.5 25 3.7 24.9 3.9 C 24.7 4.1 24.5 4.5 24.1 5.1 C 23.9 5.5 23.8 5.7 23.7 5.8 C 23.5 6.1 23.4 6.3 23.4 6.4 C 23.4 6.5 23.3 6.6 23.2 6.7 C 23.1 6.7 23 6.7 22.8 6.7 C 22.8 6.7 22.7 6.7 22.6 6.6 C 22.6 6.5 22.5 6.3 22.4 6.1 C 22.3 5.8 22.1 5.3 21.9 4.8 C 21.5 3.7 21.3 3.1 21.3 3.1 C 21.3 3 21.3 2.9 21.4 2.8 C 21.4 2.7 21.5 2.6 21.6 2.6 C 21.7 2.6 21.8 2.7 21.9 2.8 C 22 2.8 22 3 22.1 3.3 C 22.1 3.5 22.3 3.9 22.5 4.5 C 22.7 5.1 22.9 5.5 23 5.8 C 23.1 5.8 23.1 5.7 23.2 5.5 C 23.2 5.4 23.3 5.4 23.3 5.4 C 23.5 5 23.8 4.6 23.9 4.3 C 24.2 3.7 24.5 3.2 24.7 2.9 C 25 2.6 25.1 2.5 25.3 2.5 C 25.5 2.5 25.6 2.6 25.6 2.8 C 25.59 2.77 25.6 2.8 25.6 2.8 C 25.6 2.8 25.59 2.8 25.6 2.8 Z M 27.8 5.3 C 27.7 5.7 27.5 6.1 27.1 6.4 C 26.8 6.7 26.4 6.9 26.1 6.9 C 25.8 6.9 25.5 6.8 25.4 6.6 C 25.2 6.4 25.1 6.1 25.1 5.8 C 25.1 5.3 25.3 4.8 25.6 4.4 C 25.9 3.9 26.3 3.6 26.8 3.6 C 27.1 3.6 27.4 3.8 27.6 4 C 27.8 4.2 27.9 4.5 27.9 4.9 C 27.9 5 27.9 5.1 27.8 5.3 C 27.8 5.3 27.8 5.3 27.8 5.3 Z M 26.4 4.4 C 26.2 4.5 26.1 4.7 26 4.9 C 25.8 5.2 25.8 5.5 25.8 5.7 C 25.8 5.9 25.8 6 25.9 6.1 C 25.9 6.2 26 6.3 26.1 6.3 C 26.3 6.3 26.6 6.1 26.8 5.9 C 27.1 5.6 27.2 5.3 27.2 4.9 C 27.2 4.7 27.2 4.6 27.1 4.4 C 27 4.3 26.9 4.2 26.7 4.2 C 26.6 4.2 26.5 4.3 26.4 4.4 C 26.4 4.4 26.4 4.4 26.4 4.4 Z M 29.5 4.4 C 29.5 4.4 29.4 4.6 29.3 5.1 C 29.2 5.5 29.2 5.7 29.2 5.8 C 29.2 6 29.2 6.1 29.2 6.1 C 29.3 6.2 29.3 6.2 29.4 6.2 C 29.5 6.2 29.6 6.2 29.7 6.2 C 29.8 6.1 29.9 6.1 30.1 5.9 C 30.2 5.9 30.3 5.8 30.3 5.8 C 30.4 5.8 30.4 5.8 30.5 5.9 C 30.5 5.9 30.5 5.9 30.5 6 C 30.5 6.1 30.4 6.3 30.1 6.5 C 29.9 6.7 29.6 6.9 29.3 6.9 C 29 6.9 28.8 6.8 28.7 6.6 C 28.6 6.5 28.5 6.3 28.5 6 C 28.5 5.7 28.6 5.2 28.8 4.5 C 28.7 4.5 28.6 4.5 28.5 4.5 C 28.5 4.5 28.5 4.5 28.5 4.5 C 28.4 4.5 28.3 4.5 28.2 4.4 C 28.1 4.3 28.1 4.2 28.1 4.1 C 28.1 4 28.2 3.9 28.3 3.9 C 28.3 3.9 29 3.9 29 3.9 C 29 3.6 29.1 3.3 29.2 3 C 29.3 2.7 29.4 2.6 29.6 2.6 C 29.7 2.6 29.8 2.6 29.8 2.7 C 29.9 2.8 29.9 2.8 29.9 2.9 C 29.9 2.9 29.8 3.2 29.7 3.8 C 30.3 3.7 30.6 3.7 30.7 3.7 C 30.8 3.7 30.8 3.7 30.9 3.8 C 30.9 3.8 30.9 3.8 30.9 3.9 C 30.9 4.1 30.8 4.2 30.5 4.3 C 30.5 4.3 29.5 4.4 29.5 4.4 Z M 33.6 5.3 C 33.5 5.7 33.3 6.1 32.9 6.4 C 32.5 6.7 32.2 6.9 31.8 6.9 C 31.6 6.9 31.3 6.8 31.1 6.6 C 31 6.4 30.9 6.1 30.9 5.8 C 30.9 5.3 31 4.8 31.4 4.4 C 31.7 3.9 32.1 3.6 32.6 3.6 C 32.9 3.6 33.2 3.8 33.4 4 C 33.6 4.2 33.7 4.5 33.7 4.9 C 33.7 5 33.7 5.1 33.6 5.3 C 33.6 5.3 33.6 5.3 33.6 5.3 Z M 32.1 4.4 C 32 4.5 31.9 4.7 31.8 4.9 C 31.6 5.2 31.6 5.5 31.6 5.7 C 31.6 5.9 31.6 6 31.6 6.1 C 31.7 6.2 31.8 6.3 31.9 6.3 C 32.1 6.3 32.4 6.1 32.6 5.9 C 32.9 5.6 33 5.3 33 4.9 C 33 4.7 33 4.6 32.9 4.4 C 32.8 4.3 32.7 4.2 32.5 4.2 C 32.4 4.2 32.3 4.3 32.1 4.4 C 32.1 4.4 32.1 4.4 32.1 4.4 Z M 36.5 6.3 C 36.6 6.2 36.6 6 36.6 5.8 C 36.6 5.1 36.7 4.4 36.8 3.7 C 36.9 3.5 36.9 3.4 36.9 3.3 C 36.9 3.3 36.9 3.3 36.8 3.3 C 36.6 3.2 36.5 3.1 36.5 3 C 36.5 2.9 36.6 2.8 36.7 2.8 C 36.7 2.7 36.8 2.6 36.9 2.6 C 36.9 2.6 37.3 2.7 37.3 2.7 C 37.5 2.7 37.7 2.6 38 2.6 C 38.3 2.6 38.5 2.6 38.7 2.6 C 39.2 2.6 39.6 2.7 40 3 C 40.3 3.3 40.4 3.7 40.4 4.2 C 40.4 4.8 40.2 5.2 39.7 5.7 C 39.2 6.1 38.6 6.4 37.8 6.6 C 37.7 6.6 37.5 6.7 37.4 6.7 C 37.4 6.7 37.3 6.8 37.2 6.8 C 37 6.9 36.9 7 36.8 7 C 36.7 7 36.6 6.9 36.5 6.8 C 36.5 6.8 36.4 6.7 36.4 6.6 C 36.4 6.6 36.4 6.5 36.5 6.4 C 36.5 6.4 36.5 6.3 36.5 6.3 Z M 37.3 5.9 C 37.3 6 37.3 6.1 37.3 6.1 C 37.4 6.1 37.7 6.1 38.2 5.9 C 38.6 5.8 39 5.5 39.3 5.2 C 39.6 4.9 39.8 4.6 39.8 4.2 C 39.8 3.9 39.6 3.6 39.4 3.4 C 39.2 3.2 38.9 3.2 38.6 3.2 C 38.3 3.2 38 3.2 37.7 3.2 C 37.6 3.2 37.6 3.2 37.6 3.2 C 37.4 4.5 37.3 5.4 37.3 5.9 C 37.3 5.9 37.3 5.9 37.3 5.9 Z M 42.4 2.5 C 42.4 2.6 42.3 2.7 42.2 2.9 C 42.1 3 42 3 41.9 3 C 41.8 3 41.7 3 41.6 2.9 C 41.5 2.8 41.5 2.7 41.5 2.6 C 41.5 2.4 41.5 2.3 41.6 2.2 C 41.7 2.2 41.8 2.1 42 2.1 C 42.1 2.1 42.2 2.2 42.3 2.2 C 42.4 2.3 42.4 2.4 42.4 2.5 Z M 41 5.1 C 41 5 41 4.9 41 4.8 C 41 4.8 41 4.8 41 4.8 C 41.1 4.5 41.1 4.3 41.1 4.2 C 41.1 4.1 41.2 4 41.2 3.9 C 41.3 3.8 41.4 3.8 41.5 3.8 C 41.6 3.8 41.7 3.8 41.8 3.8 C 41.8 3.9 41.9 4 41.9 4 C 41.9 4.1 41.8 4.3 41.8 4.5 C 41.8 4.5 41.8 4.6 41.8 4.6 C 41.7 4.9 41.6 5.2 41.6 5.5 C 41.5 5.7 41.5 5.9 41.5 6 C 41.5 6.2 41.6 6.3 41.6 6.5 C 41.6 6.5 41.6 6.6 41.6 6.6 C 41.6 6.6 41.6 6.7 41.5 6.8 C 41.4 6.8 41.3 6.9 41.2 6.9 C 41 6.9 40.8 6.7 40.8 6.3 C 40.8 6 40.9 5.6 41 5.1 C 41 5.1 41 5.1 41 5.1 Z M 43.7 6 C 43.7 5.9 43.6 5.8 43.2 5.6 C 42.8 5.4 42.6 5.3 42.5 5.1 C 42.4 5 42.3 4.9 42.3 4.7 C 42.3 4.4 42.5 4.1 42.9 3.8 C 43.3 3.6 43.6 3.4 43.9 3.4 C 44.3 3.4 44.4 3.6 44.4 3.9 C 44.4 3.9 44.4 4 44.3 4.1 C 44.2 4.1 44.2 4.1 44.1 4.1 C 44.1 4.1 44.1 4.1 44 4.1 C 44 4.1 43.9 4.1 43.9 4.1 C 43.7 4.1 43.5 4.1 43.3 4.2 C 43.1 4.4 43 4.5 43 4.6 C 43 4.7 43.1 4.8 43.1 4.9 C 43.2 4.9 43.4 5 43.6 5.1 C 43.9 5.3 44.1 5.4 44.2 5.5 C 44.3 5.7 44.4 5.8 44.4 6 C 44.4 6.2 44.2 6.5 43.8 6.6 C 43.5 6.8 43 6.9 42.6 6.9 C 42.2 6.9 42 6.8 42 6.5 C 42 6.5 42.1 6.4 42.2 6.3 C 42.2 6.3 42.3 6.2 42.4 6.2 C 42.4 6.2 42.5 6.2 42.6 6.3 C 42.6 6.3 42.7 6.3 42.8 6.3 C 43 6.3 43.1 6.3 43.3 6.2 C 43.5 6.2 43.7 6.1 43.7 6 Z M 45.9 4.4 C 45.9 4.4 45.8 4.6 45.7 5.1 C 45.6 5.5 45.6 5.7 45.6 5.8 C 45.6 6 45.6 6.1 45.6 6.1 C 45.7 6.2 45.7 6.2 45.8 6.2 C 45.9 6.2 46 6.2 46.1 6.2 C 46.2 6.1 46.3 6.1 46.5 5.9 C 46.6 5.9 46.7 5.8 46.8 5.8 C 46.8 5.8 46.9 5.8 46.9 5.9 C 46.9 5.9 46.9 5.9 46.9 6 C 46.9 6.1 46.8 6.3 46.5 6.5 C 46.3 6.7 46 6.9 45.7 6.9 C 45.4 6.9 45.2 6.8 45.1 6.6 C 45 6.5 44.9 6.3 44.9 6 C 44.9 5.7 45 5.2 45.2 4.5 C 45.1 4.5 45 4.5 44.9 4.5 C 44.9 4.5 44.9 4.5 44.9 4.5 C 44.8 4.5 44.7 4.5 44.6 4.4 C 44.5 4.3 44.5 4.2 44.5 4.1 C 44.5 4 44.6 3.9 44.7 3.9 C 44.7 3.9 45.4 3.9 45.4 3.9 C 45.4 3.6 45.5 3.3 45.6 3 C 45.7 2.7 45.8 2.6 46 2.6 C 46.1 2.6 46.2 2.6 46.2 2.7 C 46.3 2.8 46.3 2.8 46.3 2.9 C 46.3 2.9 46.2 3.2 46.1 3.8 C 46.7 3.7 47 3.7 47.1 3.7 C 47.2 3.7 47.2 3.7 47.3 3.8 C 47.3 3.8 47.3 3.8 47.3 3.9 C 47.3 4.1 47.2 4.2 46.9 4.3 C 46.9 4.3 45.9 4.4 45.9 4.4 Z M 48.1 5.3 C 48.1 5.3 48.1 5.23 48.1 5.2 C 48.3 4.8 48.6 4.4 48.8 4.1 C 49.1 3.8 49.4 3.7 49.6 3.7 C 49.8 3.7 50 3.7 50.1 3.8 C 50.2 3.9 50.3 4.1 50.3 4.2 C 50.3 4.3 50.3 4.4 50.2 4.4 C 50.2 4.5 50.1 4.5 50 4.5 C 49.9 4.5 49.8 4.5 49.7 4.4 C 49.7 4.3 49.6 4.3 49.6 4.3 C 49.4 4.3 49.2 4.5 48.8 5 C 48.5 5.4 48.3 5.9 48.2 6.5 C 48.2 6.6 48.2 6.7 48.1 6.8 C 48 6.9 47.9 6.9 47.8 6.9 C 47.7 6.9 47.6 6.8 47.5 6.7 C 47.5 6.5 47.4 6.3 47.4 5.9 C 47.4 5.8 47.4 5.6 47.5 5.4 C 47.5 5.2 47.5 4.9 47.5 4.6 C 47.5 4.5 47.5 4.4 47.5 4.4 C 47.6 4.2 47.6 4 47.6 4 C 47.6 3.9 47.7 3.8 47.7 3.8 C 47.8 3.7 47.9 3.7 48 3.7 C 48.1 3.7 48.2 3.7 48.2 3.8 C 48.3 3.8 48.3 3.9 48.3 4 C 48.3 4.1 48.3 4.2 48.2 4.5 C 48.2 4.6 48.1 4.7 48.1 4.9 C 48.12 4.88 48.1 5.3 48.1 5.3 Z M 51.8 2.5 C 51.8 2.6 51.8 2.7 51.6 2.9 C 51.5 3 51.4 3 51.3 3 C 51.2 3 51.1 3 51 2.9 C 50.9 2.8 50.9 2.7 50.9 2.6 C 50.9 2.4 50.9 2.3 51 2.2 C 51.1 2.2 51.2 2.1 51.4 2.1 C 51.5 2.1 51.6 2.2 51.7 2.2 C 51.8 2.3 51.8 2.4 51.8 2.5 Z M 50.4 5.1 C 50.4 5 50.4 4.9 50.4 4.8 C 50.4 4.8 50.4 4.8 50.4 4.8 C 50.5 4.5 50.5 4.3 50.5 4.2 C 50.5 4.1 50.6 4 50.6 3.9 C 50.7 3.8 50.8 3.8 50.9 3.8 C 51 3.8 51.1 3.8 51.2 3.8 C 51.3 3.9 51.3 4 51.3 4 C 51.3 4.1 51.3 4.3 51.2 4.5 C 51.2 4.5 51.2 4.6 51.2 4.6 C 51.1 4.9 51 5.2 51 5.5 C 51 5.7 51 5.9 51 6 C 51 6.2 51 6.3 51 6.5 C 51 6.5 51 6.6 51 6.6 C 51 6.6 51 6.7 50.9 6.8 C 50.8 6.8 50.7 6.9 50.6 6.9 C 50.4 6.9 50.3 6.7 50.3 6.3 C 50.3 6 50.3 5.6 50.4 5.1 C 50.4 5.1 50.4 5.1 50.4 5.1 Z M 53 4.4 C 52.9 4.4 52.9 4.6 52.8 5.1 C 52.7 5.5 52.7 5.7 52.7 5.8 C 52.7 6 52.7 6.1 52.7 6.1 C 52.7 6.2 52.8 6.2 52.9 6.2 C 53 6.2 53.1 6.2 53.2 6.2 C 53.3 6.1 53.4 6.1 53.6 5.9 C 53.7 5.9 53.8 5.8 53.8 5.8 C 53.9 5.8 53.9 5.8 54 5.9 C 54 5.9 54 5.9 54 6 C 54 6.1 53.9 6.3 53.6 6.5 C 53.3 6.7 53 6.9 52.7 6.9 C 52.5 6.9 52.3 6.8 52.2 6.6 C 52 6.5 52 6.3 52 6 C 52 5.7 52.1 5.2 52.3 4.5 C 52.1 4.5 52.1 4.5 52 4.5 C 52 4.5 51.9 4.5 51.9 4.5 C 51.9 4.5 51.8 4.5 51.7 4.4 C 51.6 4.3 51.5 4.2 51.5 4.1 C 51.5 4 51.6 3.9 51.8 3.9 C 51.8 3.9 52.4 3.9 52.4 3.9 C 52.5 3.6 52.6 3.3 52.7 3 C 52.7 2.7 52.9 2.6 53 2.6 C 53.1 2.6 53.2 2.6 53.3 2.7 C 53.3 2.8 53.4 2.8 53.4 2.9 C 53.4 2.9 53.3 3.2 53.1 3.8 C 53.7 3.7 54.1 3.7 54.1 3.7 C 54.2 3.7 54.3 3.7 54.3 3.8 C 54.4 3.8 54.4 3.8 54.4 3.9 C 54.4 4.1 54.2 4.2 53.9 4.3 C 53.9 4.3 53 4.4 53 4.4 Z M 56.8 6.8 C 56.5 6.8 56.3 6.5 56.4 5.8 C 55.9 6.4 55.4 6.8 54.9 6.8 C 54.7 6.8 54.6 6.7 54.5 6.6 C 54.3 6.4 54.3 6.3 54.3 6 C 54.3 5.5 54.5 5 55 4.4 C 55.4 3.9 55.9 3.6 56.3 3.6 C 56.5 3.6 56.7 3.7 56.8 3.9 C 57 3.9 57.1 4 57.1 4.2 C 57.1 4.3 57.1 4.4 57 4.6 C 57 5 56.9 5.3 56.9 5.6 C 56.9 5.8 56.9 6 57 6.1 C 57 6.2 57 6.2 57 6.3 C 57.1 6.3 57.1 6.3 57.2 6.4 C 57.3 6.4 57.3 6.4 57.3 6.5 C 57.3 6.6 57.2 6.7 57.1 6.8 C 57 6.8 56.9 6.8 56.8 6.8 C 56.8 6.8 56.8 6.8 56.8 6.8 Z M 56.2 4.2 C 56 4.2 55.7 4.4 55.4 4.8 C 55.1 5.3 55 5.6 55 5.9 C 55 6.1 55 6.1 55.1 6.1 C 55.3 6.1 55.6 5.9 55.9 5.5 C 56.2 5.2 56.4 4.8 56.4 4.5 C 56.4 4.4 56.4 4.3 56.3 4.3 C 56.3 4.2 56.2 4.2 56.2 4.2 Z M 60.5 6.6 C 60.5 6.6 60.4 6.6 60.3 6.6 C 60.2 6.6 60.1 6.6 60 6.6 C 59.5 6.6 59 6.6 58.5 6.8 C 58.3 6.9 58.2 6.9 58.1 6.9 C 58 6.9 57.9 6.8 57.8 6.8 C 57.8 6.7 57.7 6.6 57.7 6.5 C 57.7 6.5 57.8 6.4 57.8 6.2 C 57.8 6.1 57.9 5.9 57.9 5.6 C 57.9 5.6 58.2 3.3 58.2 3.3 C 58.2 3 58.2 2.9 58.2 2.8 C 58.2 2.8 58.3 2.7 58.3 2.7 C 58.4 2.6 58.5 2.6 58.6 2.6 C 58.7 2.6 58.8 2.6 58.8 2.7 C 58.9 2.7 58.9 2.8 58.9 2.9 C 58.9 3 58.9 3.1 58.9 3.3 C 58.8 3.6 58.8 4.1 58.7 4.8 C 58.6 5.6 58.6 6 58.6 6 C 58.6 6.1 58.6 6.1 58.6 6.1 C 58.7 6.1 58.9 6.1 59.2 6 C 59.3 6 59.5 6 59.6 6 C 60.1 6 60.4 5.9 60.6 5.9 C 60.6 5.9 60.7 5.9 60.7 5.9 C 60.8 5.9 60.9 5.9 60.9 6 C 61 6 61 6.1 61 6.2 C 61 6.3 61 6.4 60.9 6.5 C 60.8 6.6 60.7 6.6 60.5 6.6 Z M 64.9 5.3 C 64.6 5.4 64.5 5.4 64.4 5.4 C 64.4 5.9 64.4 6.2 64.4 6.5 C 64.4 6.6 64.3 6.7 64.3 6.8 C 64.2 6.9 64.1 6.9 64 6.9 C 63.8 6.9 63.7 6.8 63.7 6.5 C 63.7 6.3 63.7 5.8 63.8 5 C 63.9 4.3 64 3.9 64 3.7 C 64 3.6 64 3.5 64 3.5 C 63.8 3.4 63.8 3.3 63.8 3.1 C 63.8 3 64 2.8 64.5 2.7 C 65.1 2.6 65.5 2.5 65.9 2.5 C 66.3 2.5 66.6 2.6 66.9 2.8 C 67.1 3 67.3 3.2 67.3 3.5 C 67.3 3.9 67 4.3 66.6 4.6 C 66.1 5 65.5 5.2 64.9 5.3 C 64.9 5.3 64.9 5.3 64.9 5.3 Z M 65.8 3.1 C 65.5 3.1 65.1 3.2 64.7 3.3 C 64.7 3.3 64.5 4.8 64.5 4.8 C 65.1 4.7 65.6 4.5 66 4.3 C 66.4 4.1 66.6 3.8 66.6 3.6 C 66.6 3.2 66.3 3.1 65.8 3.1 C 65.8 3.1 65.8 3.1 65.8 3.1 Z M 69.3 5.7 C 69.1 6 68.9 6.3 68.7 6.5 C 68.4 6.7 68.2 6.8 67.9 6.8 C 67.8 6.8 67.6 6.7 67.5 6.5 C 67.3 6.4 67.3 6.2 67.3 5.8 C 67.3 5.6 67.3 5.3 67.4 4.8 C 67.5 4.4 67.6 4.1 67.6 4 C 67.7 3.8 67.8 3.7 67.9 3.7 C 68 3.7 68.1 3.7 68.2 3.8 C 68.3 3.9 68.3 4 68.3 4 C 68.3 4.2 68.3 4.4 68.2 4.6 C 68.1 4.8 68 5 68 5.2 C 67.9 5.5 67.9 5.7 67.9 5.8 C 67.9 6 67.9 6.1 68 6.1 C 68.2 6.1 68.4 6 68.7 5.7 C 69 5.4 69.2 5 69.3 4.7 C 69.3 4.4 69.4 4.2 69.5 4.1 C 69.6 4 69.6 3.9 69.8 3.9 C 70 3.9 70.1 4 70.1 4.2 C 70.1 4.3 70 4.3 70 4.4 C 69.9 4.8 69.8 5.1 69.8 5.6 C 69.8 6.1 69.9 6.4 70.1 6.5 C 70.2 6.5 70.2 6.5 70.2 6.6 C 70.2 6.6 70.1 6.7 70 6.8 C 69.9 6.8 69.8 6.9 69.8 6.9 C 69.6 6.9 69.5 6.8 69.4 6.5 C 69.3 6.3 69.3 6 69.3 5.7 Z M 71.4 5.3 C 71.4 5.3 71.48 5.23 71.5 5.2 C 71.7 4.8 72 4.4 72.2 4.1 C 72.5 3.8 72.7 3.7 73 3.7 C 73.2 3.7 73.3 3.7 73.5 3.8 C 73.6 3.9 73.7 4.1 73.7 4.2 C 73.7 4.3 73.6 4.4 73.6 4.4 C 73.6 4.5 73.5 4.5 73.4 4.5 C 73.3 4.5 73.2 4.5 73.1 4.4 C 73 4.3 73 4.3 72.9 4.3 C 72.8 4.3 72.6 4.5 72.2 5 C 71.9 5.4 71.7 5.9 71.6 6.5 C 71.6 6.6 71.5 6.7 71.5 6.8 C 71.4 6.9 71.3 6.9 71.2 6.9 C 71.1 6.9 71 6.8 70.9 6.7 C 70.8 6.5 70.8 6.3 70.8 5.9 C 70.8 5.8 70.8 5.6 70.8 5.4 C 70.8 5.2 70.9 4.9 70.9 4.6 C 70.9 4.5 70.9 4.4 70.9 4.4 C 70.9 4.2 71 4 71 4 C 71 3.9 71 3.8 71.1 3.8 C 71.2 3.7 71.3 3.7 71.4 3.7 C 71.5 3.7 71.6 3.7 71.6 3.8 C 71.7 3.8 71.7 3.9 71.7 4 C 71.7 4.1 71.7 4.2 71.6 4.5 C 71.5 4.6 71.5 4.7 71.5 4.9 C 71.5 4.88 71.4 5.3 71.4 5.3 Z M 76.3 5.3 C 76.1 5.7 75.9 6.1 75.5 6.4 C 75.2 6.7 74.8 6.9 74.5 6.9 C 74.2 6.9 73.9 6.8 73.8 6.6 C 73.6 6.4 73.5 6.1 73.5 5.8 C 73.5 5.3 73.7 4.8 74 4.4 C 74.3 3.9 74.7 3.6 75.2 3.6 C 75.5 3.6 75.8 3.8 76 4 C 76.2 4.2 76.3 4.5 76.3 4.9 C 76.3 5 76.3 5.1 76.3 5.3 C 76.3 5.3 76.3 5.3 76.3 5.3 Z M 74.8 4.4 C 74.6 4.5 74.5 4.7 74.4 4.9 C 74.3 5.2 74.2 5.5 74.2 5.7 C 74.2 5.9 74.2 6 74.3 6.1 C 74.3 6.2 74.4 6.3 74.5 6.3 C 74.7 6.3 75 6.1 75.2 5.9 C 75.5 5.6 75.6 5.3 75.6 4.9 C 75.6 4.7 75.6 4.6 75.5 4.4 C 75.4 4.3 75.3 4.2 75.2 4.2 C 75 4.2 74.9 4.3 74.8 4.4 C 74.8 4.4 74.8 4.4 74.8 4.4 Z " stroke="none" fill="#000"/>  </g></svg>