<?xml version="1.0" standalone="no"?><!DOCTYPE svg PUBLIC "-//W3C//DTD SVG 1.1//EN" "http://www.w3.org/Graphics/SVG/1.1/DTD/svg11.dtd"><svg xmlns="http://www.w3.org/2000/svg" version="1.1" width="58px" height="12.6px" viewBox="0 -3 58 12.6" style="top:-3px">  <desc>AINDA NA PIZZARIA</desc>  <defs/>  <g id="Polygon13738">    <path d="M 1.1 3.5 C 1.1 3.5 1 3.5 1 3.5 C 1 3.5 0.9 3.7 0.7 3.9 C 0.6 4.1 0.5 4.3 0.4 4.3 C 0.4 4.3 0.3 4.3 0.3 4.3 C 0.2 4.3 0.2 4.3 0.1 4.2 C 0 4.2 0 4.1 0 4 C 0 4 0.2 3.6 0.6 3 C 0.8 2.7 1 2.3 1.2 2 C 1.5 1.3 1.8 0.9 1.9 0.8 C 1.9 0.7 2 0.7 2.1 0.7 C 2.2 0.7 2.3 0.7 2.4 0.8 C 2.4 0.8 2.5 0.9 2.5 0.9 C 2.5 1 2.4 1.1 2.4 1.1 C 2.7 2 3 2.6 3.1 3 C 3.3 3.4 3.5 3.7 3.6 3.8 C 3.7 3.9 3.8 4 3.8 4 C 3.8 4 3.8 4.1 3.8 4.1 C 3.8 4.2 3.8 4.3 3.7 4.4 C 3.7 4.4 3.6 4.4 3.5 4.4 C 3.4 4.4 3.2 4.4 3.1 4.2 C 3 4.1 2.9 3.9 2.8 3.6 C 2.6 3.4 2.6 3.2 2.6 3.2 C 2.6 3.2 2.6 3.2 2.6 3.2 C 2.5 3.2 2.3 3.2 2 3.3 C 1.7 3.4 1.4 3.4 1.3 3.5 C 1.2 3.5 1.2 3.5 1.1 3.5 C 1.1 3.5 1.1 3.5 1.1 3.5 Z M 2.2 2.8 C 2.2 2.7 2.3 2.7 2.4 2.7 C 2.4 2.6 2.2 2.3 2 1.7 C 2 1.6 2 1.6 2 1.6 C 2 1.6 1.3 2.9 1.3 2.9 C 1.4 2.9 1.5 2.9 1.6 2.9 C 1.7 2.8 1.9 2.8 2.2 2.8 C 2.2 2.8 2.2 2.8 2.2 2.8 Z M 5 1.8 C 4.9 2 4.9 2.1 4.9 2.2 C 4.9 2.2 4.9 2.3 4.9 2.5 C 4.8 2.9 4.8 3.1 4.8 3.3 C 4.8 3.5 4.8 3.7 4.8 3.9 C 4.8 4 4.8 4.2 4.7 4.2 C 4.7 4.3 4.6 4.3 4.5 4.3 C 4.4 4.3 4.3 4.3 4.2 4.2 C 4.2 4.1 4.2 3.9 4.2 3.7 C 4.2 3.5 4.2 3.1 4.3 2.6 C 4.3 2.6 4.4 1.6 4.4 1.6 C 4.4 1.5 4.5 1.3 4.5 1.2 C 4.5 1 4.5 0.9 4.6 0.9 C 4.6 0.8 4.6 0.8 4.7 0.8 C 4.8 0.7 4.8 0.7 4.9 0.7 C 5 0.7 5 0.7 5.1 0.8 C 5.1 0.9 5.2 1 5.2 1.1 C 5.2 1.1 5 1.8 5 1.8 Z M 5.7 3.4 C 5.7 3.4 5.86 2.62 5.9 2.6 C 6 2 6.1 1.5 6.1 1.3 C 6.1 1.1 6.1 1.1 6.1 1 C 6.1 1 6.2 0.9 6.2 0.9 C 6.3 0.8 6.3 0.8 6.4 0.8 C 6.5 0.8 6.5 0.8 6.6 0.9 C 6.7 0.9 6.7 1 6.8 1.2 C 6.8 1.5 7 1.8 7.3 2.3 C 7.6 2.8 7.8 3.1 8.1 3.4 C 8.1 3.1 8.2 2.8 8.3 2.3 C 8.3 2 8.4 1.7 8.4 1.5 C 8.4 1.3 8.5 1.1 8.5 1 C 8.5 0.8 8.5 0.7 8.6 0.7 C 8.7 0.6 8.8 0.6 8.8 0.6 C 8.9 0.6 9 0.7 9 0.7 C 9.1 0.8 9.1 0.9 9.1 1 C 9.1 1.1 9.1 1.2 9 1.4 C 8.9 1.8 8.8 2.2 8.7 2.8 C 8.6 3.4 8.6 3.7 8.6 3.8 C 8.6 3.8 8.6 3.9 8.6 3.9 C 8.6 4 8.6 4.1 8.5 4.1 C 8.5 4.2 8.5 4.2 8.4 4.3 C 8.4 4.3 8.3 4.3 8.2 4.3 C 8.1 4.3 8.1 4.3 8 4.3 C 8 4.3 8 4.3 7.9 4.2 C 7.9 4.1 7.8 4.1 7.8 4 C 7.7 3.8 7.7 3.8 7.6 3.7 C 7.2 3.2 6.9 2.6 6.5 2 C 6.4 2.2 6.4 2.6 6.3 3.4 C 6.3 3.4 6.2 3.6 6.2 3.6 C 6.2 3.7 6.2 3.8 6.2 3.9 C 6.2 4.1 6.2 4.2 6.1 4.3 C 6 4.4 5.9 4.4 5.9 4.4 C 5.8 4.4 5.7 4.4 5.6 4.3 C 5.6 4.3 5.6 4.2 5.6 4 C 5.6 3.9 5.6 3.7 5.7 3.5 C 5.68 3.46 5.7 3.4 5.7 3.4 Z M 9.7 3.9 C 9.7 3.8 9.7 3.6 9.7 3.4 C 9.7 2.9 9.8 2.3 9.9 1.6 C 9.9 1.5 9.9 1.4 9.9 1.4 C 9.9 1.3 9.9 1.3 9.9 1.3 C 9.7 1.3 9.6 1.2 9.6 1.1 C 9.6 1 9.7 0.9 9.8 0.8 C 9.8 0.8 9.9 0.7 10 0.7 C 10 0.7 10.3 0.8 10.3 0.8 C 10.5 0.8 10.7 0.7 10.9 0.7 C 11.1 0.7 11.3 0.7 11.5 0.7 C 11.9 0.7 12.3 0.8 12.6 1.1 C 12.9 1.3 13 1.7 13 2.1 C 13 2.6 12.8 3 12.3 3.4 C 11.9 3.7 11.4 4 10.8 4.1 C 10.6 4.2 10.5 4.2 10.4 4.2 C 10.4 4.3 10.3 4.3 10.2 4.4 C 10.1 4.4 10 4.5 9.9 4.5 C 9.8 4.5 9.7 4.4 9.6 4.3 C 9.6 4.3 9.5 4.2 9.5 4.2 C 9.5 4.1 9.6 4.1 9.6 4 C 9.6 4 9.7 3.9 9.7 3.9 Z M 10.3 3.6 C 10.3 3.6 10.3 3.7 10.3 3.7 C 10.4 3.7 10.6 3.7 11 3.5 C 11.4 3.4 11.8 3.2 12 3 C 12.3 2.7 12.4 2.4 12.4 2.1 C 12.4 1.8 12.3 1.6 12.1 1.4 C 11.9 1.3 11.7 1.2 11.4 1.2 C 11.2 1.2 10.9 1.2 10.6 1.2 C 10.6 1.3 10.6 1.3 10.5 1.3 C 10.4 2.3 10.3 3.1 10.3 3.6 C 10.3 3.6 10.3 3.6 10.3 3.6 Z M 14 3.5 C 13.9 3.5 13.9 3.5 13.8 3.5 C 13.8 3.5 13.7 3.7 13.6 3.9 C 13.4 4.1 13.3 4.3 13.3 4.3 C 13.2 4.3 13.2 4.3 13.1 4.3 C 13.1 4.3 13 4.3 12.9 4.2 C 12.8 4.2 12.8 4.1 12.8 4 C 12.8 4 13 3.6 13.4 3 C 13.6 2.7 13.8 2.3 14 2 C 14.4 1.3 14.6 0.9 14.7 0.8 C 14.8 0.7 14.9 0.7 15 0.7 C 15.1 0.7 15.2 0.7 15.3 0.8 C 15.3 0.8 15.3 0.9 15.3 0.9 C 15.3 1 15.3 1.1 15.3 1.1 C 15.6 2 15.8 2.6 16 3 C 16.2 3.4 16.3 3.7 16.5 3.8 C 16.6 3.9 16.6 4 16.6 4 C 16.7 4 16.7 4.1 16.7 4.1 C 16.7 4.2 16.6 4.3 16.6 4.4 C 16.5 4.4 16.4 4.4 16.3 4.4 C 16.2 4.4 16.1 4.4 16 4.2 C 15.8 4.1 15.7 3.9 15.6 3.6 C 15.5 3.4 15.4 3.2 15.4 3.2 C 15.4 3.2 15.4 3.2 15.4 3.2 C 15.3 3.2 15.1 3.2 14.8 3.3 C 14.5 3.4 14.3 3.4 14.1 3.5 C 14.1 3.5 14 3.5 14 3.5 C 14 3.5 14 3.5 14 3.5 Z M 15 2.8 C 15.1 2.7 15.2 2.7 15.2 2.7 C 15.2 2.6 15.1 2.3 14.9 1.7 C 14.9 1.6 14.9 1.6 14.9 1.6 C 14.9 1.6 14.2 2.9 14.2 2.9 C 14.3 2.9 14.4 2.9 14.5 2.9 C 14.6 2.8 14.7 2.8 15 2.8 C 15 2.8 15 2.8 15 2.8 Z M 19 3.4 C 19 3.4 19.13 2.62 19.1 2.6 C 19.3 2 19.3 1.5 19.3 1.3 C 19.4 1.1 19.4 1.1 19.4 1 C 19.4 1 19.4 0.9 19.5 0.9 C 19.6 0.8 19.6 0.8 19.7 0.8 C 19.7 0.8 19.8 0.8 19.9 0.9 C 19.9 0.9 20 1 20 1.2 C 20.1 1.5 20.3 1.8 20.6 2.3 C 20.8 2.8 21.1 3.1 21.3 3.4 C 21.4 3.1 21.5 2.8 21.5 2.3 C 21.6 2 21.6 1.7 21.7 1.5 C 21.7 1.3 21.7 1.1 21.8 1 C 21.8 0.8 21.8 0.7 21.9 0.7 C 22 0.6 22 0.6 22.1 0.6 C 22.2 0.6 22.2 0.7 22.3 0.7 C 22.3 0.8 22.4 0.9 22.4 1 C 22.4 1.1 22.3 1.2 22.3 1.4 C 22.2 1.8 22.1 2.2 22 2.8 C 21.9 3.4 21.8 3.7 21.8 3.8 C 21.8 3.8 21.8 3.9 21.8 3.9 C 21.8 4 21.8 4.1 21.8 4.1 C 21.8 4.2 21.8 4.2 21.7 4.3 C 21.6 4.3 21.6 4.3 21.5 4.3 C 21.4 4.3 21.3 4.3 21.3 4.3 C 21.3 4.3 21.3 4.3 21.2 4.2 C 21.2 4.1 21.1 4.1 21.1 4 C 21 3.8 20.9 3.8 20.9 3.7 C 20.5 3.2 20.1 2.6 19.8 2 C 19.7 2.2 19.6 2.6 19.5 3.4 C 19.5 3.4 19.5 3.6 19.5 3.6 C 19.5 3.7 19.5 3.8 19.5 3.9 C 19.5 4.1 19.4 4.2 19.4 4.3 C 19.3 4.4 19.2 4.4 19.1 4.4 C 19 4.4 19 4.4 18.9 4.3 C 18.9 4.3 18.9 4.2 18.9 4 C 18.9 3.9 18.9 3.7 19 3.5 C 18.95 3.46 19 3.4 19 3.4 Z M 23.6 3.5 C 23.5 3.5 23.5 3.5 23.4 3.5 C 23.4 3.5 23.3 3.7 23.2 3.9 C 23 4.1 22.9 4.3 22.9 4.3 C 22.8 4.3 22.8 4.3 22.7 4.3 C 22.7 4.3 22.6 4.3 22.5 4.2 C 22.5 4.2 22.4 4.1 22.4 4 C 22.4 4 22.6 3.6 23 3 C 23.2 2.7 23.4 2.3 23.6 2 C 24 1.3 24.2 0.9 24.3 0.8 C 24.4 0.7 24.5 0.7 24.6 0.7 C 24.7 0.7 24.8 0.7 24.9 0.8 C 24.9 0.8 24.9 0.9 24.9 0.9 C 24.9 1 24.9 1.1 24.9 1.1 C 25.2 2 25.4 2.6 25.6 3 C 25.8 3.4 25.9 3.7 26.1 3.8 C 26.2 3.9 26.2 4 26.3 4 C 26.3 4 26.3 4.1 26.3 4.1 C 26.3 4.2 26.2 4.3 26.2 4.4 C 26.1 4.4 26 4.4 26 4.4 C 25.8 4.4 25.7 4.4 25.6 4.2 C 25.4 4.1 25.3 3.9 25.2 3.6 C 25.1 3.4 25 3.2 25 3.2 C 25 3.2 25 3.2 25 3.2 C 24.9 3.2 24.7 3.2 24.4 3.3 C 24.1 3.4 23.9 3.4 23.7 3.5 C 23.7 3.5 23.6 3.5 23.6 3.5 C 23.6 3.5 23.6 3.5 23.6 3.5 Z M 24.6 2.8 C 24.7 2.7 24.8 2.7 24.8 2.7 C 24.8 2.6 24.7 2.3 24.5 1.7 C 24.5 1.6 24.5 1.6 24.5 1.6 C 24.5 1.6 23.8 2.9 23.8 2.9 C 23.9 2.9 24 2.9 24.1 2.9 C 24.2 2.8 24.3 2.8 24.6 2.8 C 24.6 2.8 24.6 2.8 24.6 2.8 Z M 29.6 3.1 C 29.4 3.1 29.3 3.1 29.3 3.1 C 29.2 3.5 29.2 3.8 29.2 4.1 C 29.2 4.1 29.2 4.2 29.1 4.3 C 29.1 4.4 29 4.4 28.9 4.4 C 28.7 4.4 28.6 4.3 28.6 4 C 28.6 3.9 28.6 3.5 28.7 2.7 C 28.8 2.1 28.8 1.8 28.8 1.7 C 28.8 1.5 28.8 1.5 28.8 1.4 C 28.7 1.4 28.7 1.3 28.7 1.2 C 28.7 1 28.9 0.9 29.3 0.8 C 29.8 0.7 30.2 0.6 30.5 0.6 C 30.8 0.6 31.1 0.7 31.3 0.9 C 31.6 1 31.7 1.2 31.7 1.5 C 31.7 1.9 31.5 2.2 31.1 2.5 C 30.7 2.7 30.2 2.9 29.6 3.1 C 29.6 3.1 29.6 3.1 29.6 3.1 Z M 30.4 1.1 C 30.1 1.1 29.8 1.2 29.5 1.3 C 29.5 1.3 29.3 2.6 29.3 2.6 C 29.8 2.5 30.2 2.4 30.6 2.2 C 30.9 2 31.1 1.8 31.1 1.5 C 31.1 1.3 30.9 1.1 30.4 1.1 C 30.4 1.1 30.4 1.1 30.4 1.1 Z M 32.8 1.8 C 32.7 2 32.7 2.1 32.7 2.2 C 32.7 2.2 32.7 2.3 32.6 2.5 C 32.6 2.9 32.6 3.1 32.6 3.3 C 32.6 3.5 32.6 3.7 32.6 3.9 C 32.6 4 32.6 4.2 32.5 4.2 C 32.4 4.3 32.4 4.3 32.3 4.3 C 32.2 4.3 32.1 4.3 32 4.2 C 32 4.1 31.9 3.9 31.9 3.7 C 31.9 3.5 32 3.1 32.1 2.6 C 32.1 2.6 32.2 1.6 32.2 1.6 C 32.2 1.5 32.2 1.3 32.3 1.2 C 32.3 1 32.3 0.9 32.3 0.9 C 32.4 0.8 32.4 0.8 32.5 0.8 C 32.6 0.7 32.6 0.7 32.6 0.7 C 32.7 0.7 32.8 0.7 32.9 0.8 C 32.9 0.9 32.9 1 32.9 1.1 C 32.9 1.1 32.8 1.8 32.8 1.8 Z M 36.7 0.9 C 36.7 1 36.7 1.1 36.7 1.1 C 36.7 1.2 36.7 1.2 36.6 1.2 C 36.6 1.2 36.5 1.2 36.5 1.3 C 36.4 1.3 36.3 1.5 36.1 1.7 C 35.9 2 35.7 2.2 35.5 2.4 C 35.3 2.6 34.9 3 34.4 3.4 C 34.4 3.4 34.2 3.7 34.2 3.7 C 34.3 3.7 34.5 3.7 34.8 3.6 C 35.1 3.6 35.3 3.6 35.4 3.6 C 35.5 3.6 35.6 3.6 35.6 3.6 C 35.7 3.6 35.8 3.6 35.8 3.6 C 36.3 3.6 36.6 3.7 36.6 3.9 C 36.6 4 36.5 4.1 36.5 4.1 C 36.4 4.2 36.4 4.2 36.3 4.2 C 36.2 4.2 36.1 4.2 36.1 4.2 C 35.9 4.1 35.7 4.1 35.5 4.1 C 35.4 4.1 35.2 4.1 34.8 4.2 C 34.8 4.2 34.8 4.2 34.8 4.2 C 34.4 4.2 34.1 4.2 34 4.2 C 33.9 4.2 33.8 4.3 33.6 4.3 C 33.5 4.3 33.4 4.3 33.3 4.3 C 33.2 4.3 33.1 4.3 33.1 4.1 C 33.1 4 33.1 3.9 33.2 3.8 C 33.4 3.7 33.7 3.4 34.1 3.1 C 34.4 2.8 34.7 2.4 35.1 2.1 C 35.1 2.1 35.2 2 35.2 1.9 C 35.5 1.7 35.7 1.4 35.8 1.3 C 35.8 1.3 35.5 1.3 34.9 1.4 C 34.6 1.4 34.3 1.5 34.1 1.5 C 34 1.5 33.9 1.4 33.8 1.4 C 33.6 1.3 33.5 1.2 33.5 1.1 C 33.5 1.1 33.6 1 33.6 0.9 C 33.7 0.9 33.7 0.8 33.8 0.8 C 33.8 0.8 33.9 0.8 33.9 0.9 C 34 0.9 34 0.9 34 0.9 C 34 0.9 34.5 0.9 34.5 0.9 C 34.6 0.9 34.7 0.9 34.9 0.9 C 35 0.9 35.2 0.9 35.4 0.8 C 35.7 0.8 35.9 0.8 36 0.8 C 36.3 0.7 36.4 0.7 36.5 0.7 C 36.7 0.7 36.7 0.8 36.7 0.9 C 36.7 0.9 36.7 0.9 36.7 0.9 Z M 40.5 0.9 C 40.5 1 40.5 1.1 40.5 1.1 C 40.5 1.2 40.5 1.2 40.5 1.2 C 40.4 1.2 40.4 1.2 40.3 1.3 C 40.3 1.3 40.1 1.5 39.9 1.7 C 39.7 2 39.5 2.2 39.3 2.4 C 39.1 2.6 38.7 3 38.3 3.4 C 38.3 3.4 38 3.7 38 3.7 C 38.2 3.7 38.4 3.7 38.6 3.6 C 38.9 3.6 39.1 3.6 39.2 3.6 C 39.3 3.6 39.4 3.6 39.5 3.6 C 39.5 3.6 39.6 3.6 39.7 3.6 C 40.1 3.6 40.4 3.7 40.4 3.9 C 40.4 4 40.3 4.1 40.3 4.1 C 40.3 4.2 40.2 4.2 40.1 4.2 C 40 4.2 40 4.2 39.9 4.2 C 39.7 4.1 39.6 4.1 39.3 4.1 C 39.3 4.1 39 4.1 38.6 4.2 C 38.6 4.2 38.6 4.2 38.6 4.2 C 38.2 4.2 38 4.2 37.8 4.2 C 37.7 4.2 37.6 4.3 37.4 4.3 C 37.3 4.3 37.2 4.3 37.2 4.3 C 37 4.3 36.9 4.3 36.9 4.1 C 36.9 4 37 3.9 37 3.8 C 37.3 3.7 37.5 3.4 37.9 3.1 C 38.2 2.8 38.6 2.4 38.9 2.1 C 38.9 2.1 39 2 39 1.9 C 39.3 1.7 39.5 1.4 39.6 1.3 C 39.6 1.3 39.3 1.3 38.7 1.4 C 38.4 1.4 38.1 1.5 37.9 1.5 C 37.8 1.5 37.7 1.4 37.6 1.4 C 37.4 1.3 37.3 1.2 37.3 1.1 C 37.3 1.1 37.4 1 37.4 0.9 C 37.5 0.9 37.6 0.8 37.6 0.8 C 37.6 0.8 37.7 0.8 37.7 0.9 C 37.8 0.9 37.8 0.9 37.8 0.9 C 37.8 0.9 38.3 0.9 38.3 0.9 C 38.4 0.9 38.6 0.9 38.7 0.9 C 38.8 0.9 39 0.9 39.2 0.8 C 39.5 0.8 39.7 0.8 39.8 0.8 C 40.1 0.7 40.3 0.7 40.3 0.7 C 40.5 0.7 40.5 0.8 40.5 0.9 C 40.5 0.9 40.5 0.9 40.5 0.9 Z M 41.8 3.5 C 41.7 3.5 41.7 3.5 41.6 3.5 C 41.6 3.5 41.5 3.7 41.4 3.9 C 41.3 4.1 41.2 4.3 41.1 4.3 C 41 4.3 41 4.3 41 4.3 C 40.9 4.3 40.8 4.3 40.7 4.2 C 40.7 4.2 40.6 4.1 40.6 4 C 40.6 4 40.8 3.6 41.2 3 C 41.5 2.7 41.7 2.3 41.8 2 C 42.2 1.3 42.4 0.9 42.5 0.8 C 42.6 0.7 42.7 0.7 42.8 0.7 C 42.9 0.7 43 0.7 43.1 0.8 C 43.1 0.8 43.1 0.9 43.1 0.9 C 43.1 1 43.1 1.1 43.1 1.1 C 43.4 2 43.6 2.6 43.8 3 C 44 3.4 44.1 3.7 44.3 3.8 C 44.4 3.9 44.4 4 44.5 4 C 44.5 4 44.5 4.1 44.5 4.1 C 44.5 4.2 44.5 4.3 44.4 4.4 C 44.3 4.4 44.2 4.4 44.2 4.4 C 44 4.4 43.9 4.4 43.8 4.2 C 43.7 4.1 43.5 3.9 43.4 3.6 C 43.3 3.4 43.3 3.2 43.3 3.2 C 43.3 3.2 43.2 3.2 43.2 3.2 C 43.2 3.2 43 3.2 42.7 3.3 C 42.3 3.4 42.1 3.4 41.9 3.5 C 41.9 3.5 41.8 3.5 41.8 3.5 C 41.8 3.5 41.8 3.5 41.8 3.5 Z M 42.8 2.8 C 42.9 2.7 43 2.7 43.1 2.7 C 43 2.6 42.9 2.3 42.7 1.7 C 42.7 1.6 42.7 1.6 42.7 1.6 C 42.7 1.6 42 2.9 42 2.9 C 42.1 2.9 42.2 2.9 42.3 2.9 C 42.4 2.8 42.5 2.8 42.8 2.8 C 42.8 2.8 42.8 2.8 42.8 2.8 Z M 45.1 1.3 C 45.1 1.3 45.09 1.25 45.1 1.3 C 45 1.2 45 1.1 45 1.1 C 45 1 45 0.9 45.1 0.9 C 45.2 0.8 45.3 0.8 45.3 0.8 C 45.4 0.8 45.4 0.8 45.5 0.8 C 45.5 0.8 45.5 0.8 45.5 0.8 C 46 0.7 46.4 0.7 46.6 0.7 C 46.9 0.7 47.2 0.8 47.4 0.9 C 47.6 1.1 47.7 1.3 47.7 1.6 C 47.7 1.8 47.6 2 47.4 2.3 C 47.2 2.5 46.9 2.7 46.6 2.8 C 47.2 3.3 47.6 3.6 47.9 3.8 C 48 3.8 48.1 3.9 48.1 4 C 48.1 4.1 48 4.1 47.9 4.2 C 47.9 4.3 47.8 4.3 47.7 4.3 C 47.6 4.3 47.5 4.3 47.4 4.2 C 47.3 4.1 47.1 4 46.9 3.8 C 46.7 3.6 46.6 3.5 46.5 3.5 C 46.2 3.2 46 3 45.9 3 C 45.7 3 45.6 2.9 45.6 2.7 C 45.6 2.6 45.6 2.6 45.7 2.5 C 45.8 2.4 45.9 2.4 46 2.4 C 46 2.4 46 2.4 46.1 2.4 C 46.1 2.4 46.1 2.4 46.1 2.4 C 46.2 2.4 46.4 2.4 46.7 2.2 C 47 2 47.1 1.8 47.1 1.6 C 47.1 1.5 47.1 1.4 47 1.3 C 46.8 1.2 46.7 1.2 46.5 1.2 C 46.3 1.2 46.1 1.2 46 1.2 C 45.8 1.2 45.8 1.2 45.8 1.3 C 45.8 1.3 45.7 1.3 45.7 1.3 C 45.7 1.4 45.7 1.5 45.6 1.8 C 45.6 2.1 45.5 2.5 45.5 2.8 C 45.4 3.2 45.4 3.4 45.4 3.6 C 45.4 3.7 45.4 3.8 45.4 3.9 C 45.4 3.9 45.4 4 45.4 4.1 C 45.4 4.1 45.4 4.2 45.3 4.3 C 45.3 4.3 45.2 4.4 45.1 4.4 C 44.9 4.4 44.8 4.2 44.8 3.9 C 44.8 3.6 44.8 3.3 44.9 2.8 C 44.9 2.4 45 2 45.1 1.6 C 45.1 1.6 45.1 1.5 45.1 1.5 C 45.08 1.48 45.1 1.3 45.1 1.3 Z M 49.2 1.8 C 49.1 2 49.1 2.1 49.1 2.2 C 49.1 2.2 49.1 2.3 49.1 2.5 C 49 2.9 49 3.1 49 3.3 C 49 3.5 49 3.7 49 3.9 C 49 4 49 4.2 48.9 4.2 C 48.9 4.3 48.8 4.3 48.7 4.3 C 48.6 4.3 48.5 4.3 48.4 4.2 C 48.4 4.1 48.4 3.9 48.4 3.7 C 48.4 3.5 48.4 3.1 48.5 2.6 C 48.5 2.6 48.6 1.6 48.6 1.6 C 48.6 1.5 48.7 1.3 48.7 1.2 C 48.7 1 48.7 0.9 48.8 0.9 C 48.8 0.8 48.8 0.8 48.9 0.8 C 49 0.7 49 0.7 49.1 0.7 C 49.2 0.7 49.2 0.7 49.3 0.8 C 49.3 0.9 49.4 1 49.4 1.1 C 49.4 1.1 49.2 1.8 49.2 1.8 Z M 50.6 3.5 C 50.5 3.5 50.5 3.5 50.4 3.5 C 50.4 3.5 50.3 3.7 50.2 3.9 C 50 4.1 49.9 4.3 49.9 4.3 C 49.8 4.3 49.8 4.3 49.7 4.3 C 49.7 4.3 49.6 4.3 49.5 4.2 C 49.4 4.2 49.4 4.1 49.4 4 C 49.4 4 49.6 3.6 50 3 C 50.2 2.7 50.4 2.3 50.6 2 C 51 1.3 51.2 0.9 51.3 0.8 C 51.4 0.7 51.5 0.7 51.6 0.7 C 51.7 0.7 51.8 0.7 51.9 0.8 C 51.9 0.8 51.9 0.9 51.9 0.9 C 51.9 1 51.9 1.1 51.9 1.1 C 52.2 2 52.4 2.6 52.6 3 C 52.8 3.4 52.9 3.7 53.1 3.8 C 53.2 3.9 53.2 4 53.2 4 C 53.3 4 53.3 4.1 53.3 4.1 C 53.3 4.2 53.2 4.3 53.2 4.4 C 53.1 4.4 53 4.4 52.9 4.4 C 52.8 4.4 52.7 4.4 52.6 4.2 C 52.4 4.1 52.3 3.9 52.2 3.6 C 52.1 3.4 52 3.2 52 3.2 C 52 3.2 52 3.2 52 3.2 C 51.9 3.2 51.7 3.2 51.4 3.3 C 51.1 3.4 50.9 3.4 50.7 3.5 C 50.7 3.5 50.6 3.5 50.6 3.5 C 50.6 3.5 50.6 3.5 50.6 3.5 Z M 51.6 2.8 C 51.7 2.7 51.8 2.7 51.8 2.7 C 51.8 2.6 51.7 2.3 51.5 1.7 C 51.5 1.6 51.5 1.6 51.5 1.6 C 51.5 1.6 50.8 2.9 50.8 2.9 C 50.9 2.9 51 2.9 51.1 2.9 C 51.2 2.8 51.3 2.8 51.6 2.8 C 51.6 2.8 51.6 2.8 51.6 2.8 Z " stroke="none" fill="#000"/>  </g></svg>