<?xml version="1.0" standalone="no"?><!DOCTYPE svg PUBLIC "-//W3C//DTD SVG 1.1//EN" "http://www.w3.org/Graphics/SVG/1.1/DTD/svg11.dtd"><svg xmlns="http://www.w3.org/2000/svg" version="1.1" width="33px" height="12.6px" viewBox="0 -3 33 12.6" style="top:-3px">  <desc>EFICIENTE</desc>  <defs/>  <g id="Polygon12843">    <path d="M 6.4 1.2 C 6.4 1.2 5.7 1.3 5.7 1.3 C 5.4 1.3 5.2 1.3 5 1.3 C 4.8 1.4 4.7 1.4 4.7 1.4 C 4.7 1.4 4.7 1.5 4.7 1.6 C 4.6 1.6 4.6 1.8 4.6 2 C 4.5 2.1 4.5 2.3 4.5 2.4 C 4.6 2.4 4.7 2.4 4.9 2.3 C 5.1 2.3 5.3 2.3 5.4 2.3 C 5.6 2.2 5.8 2.2 5.9 2.2 C 6.2 2.2 6.3 2.3 6.3 2.4 C 6.3 2.5 6.3 2.6 6.2 2.7 C 6.1 2.7 6 2.7 5.8 2.7 C 5.7 2.7 5.6 2.8 5.5 2.8 C 5.5 2.8 5.4 2.8 5.3 2.8 C 4.8 2.9 4.6 2.9 4.5 2.9 C 4.5 2.9 4.5 2.9 4.5 2.9 C 4.5 2.9 4.4 3 4.4 3 C 4.4 3 4.4 3.1 4.4 3.4 C 4.3 3.6 4.3 3.7 4.3 3.8 C 4.3 3.9 4.3 3.9 4.4 3.9 C 4.5 3.9 4.7 3.9 5 3.8 C 5.4 3.8 5.6 3.8 5.6 3.7 C 5.9 3.7 6 3.7 6.1 3.7 C 6.3 3.7 6.4 3.8 6.4 4 C 6.4 4 6.4 4.1 6.3 4.1 C 6.2 4.2 5.9 4.2 5.6 4.3 C 5.4 4.3 5.2 4.3 4.8 4.3 C 4.6 4.4 4.3 4.4 4 4.4 C 3.9 4.4 3.8 4.4 3.8 4.3 C 3.7 4.3 3.7 4.2 3.6 4.1 C 3.6 4.1 3.6 4 3.6 4 C 3.6 4 3.7 3.9 3.7 3.9 C 3.7 3.7 3.8 3.2 3.9 2.5 C 4 1.8 4.1 1.4 4.1 1.4 C 4.1 1.4 4.1 1.4 4 1.4 C 4 1.3 4 1.3 4 1.3 C 4 1.2 3.9 1.1 3.9 1.1 C 3.9 1.1 4 1 4 1 C 4 1 4 1 4.1 0.9 C 4.1 0.9 4.2 0.9 4.2 0.9 C 4.3 0.9 4.4 0.9 4.5 0.9 C 4.6 0.9 5 0.8 5.8 0.7 C 6 0.7 6.2 0.7 6.2 0.7 C 6.2 0.7 6.2 0.7 6.2 0.7 C 6.5 0.7 6.7 0.8 6.7 1 C 6.7 1 6.6 1.1 6.6 1.1 C 6.5 1.2 6.5 1.2 6.4 1.2 Z M 9.6 1.2 C 9.6 1.2 9.5 1.2 9.5 1.2 C 9.4 1.2 9.4 1.2 9.4 1.2 C 9.3 1.2 9.3 1.2 9.2 1.2 C 9 1.2 8.7 1.2 8.5 1.3 C 8.2 1.3 8 1.3 7.9 1.4 C 7.8 1.7 7.8 2 7.8 2.5 C 7.8 2.5 7.9 2.5 8 2.4 C 8.2 2.4 8.4 2.4 8.7 2.3 C 8.8 2.3 9 2.3 9.1 2.3 C 9.4 2.3 9.5 2.4 9.5 2.6 C 9.5 2.6 9.5 2.6 9.4 2.7 C 9.4 2.7 9.3 2.8 9.2 2.8 C 9.2 2.8 9.1 2.8 8.9 2.9 C 8.9 2.9 8.3 2.9 8.3 2.9 C 8 3 7.9 3 7.7 3 C 7.7 3 7.7 3.1 7.7 3.1 C 7.7 3.1 7.7 3.2 7.7 3.4 C 7.6 3.5 7.6 3.7 7.6 3.9 C 7.6 3.9 7.6 4.2 7.6 4.2 C 7.6 4.4 7.6 4.5 7.4 4.5 C 7.3 4.5 7.2 4.4 7.1 4.4 C 7 4.3 7 4.2 7 4.1 C 7 3.9 7 3.6 7.1 3.2 C 7.1 3.2 7.2 2.6 7.3 1.4 C 7.3 1.3 7.3 1.3 7.3 1.2 C 7.3 1.2 7.3 1.1 7.3 1.1 C 7.3 1 7.3 0.9 7.4 0.9 C 7.4 0.8 7.5 0.8 7.6 0.8 C 7.6 0.8 7.6 0.8 7.7 0.8 C 7.7 0.8 7.8 0.8 7.9 0.8 C 7.9 0.8 8.2 0.8 8.6 0.7 C 8.9 0.7 9.2 0.7 9.3 0.7 C 9.5 0.7 9.6 0.7 9.7 0.8 C 9.8 0.8 9.8 0.8 9.8 0.9 C 9.8 1 9.7 1.1 9.6 1.2 C 9.6 1.2 9.6 1.2 9.6 1.2 Z M 10.7 1.8 C 10.6 2 10.6 2.1 10.6 2.2 C 10.6 2.2 10.6 2.3 10.6 2.5 C 10.5 2.9 10.5 3.1 10.5 3.3 C 10.5 3.5 10.5 3.7 10.5 3.9 C 10.5 4 10.5 4.2 10.4 4.2 C 10.3 4.3 10.3 4.3 10.2 4.3 C 10.1 4.3 10 4.3 9.9 4.2 C 9.9 4.1 9.9 3.9 9.9 3.7 C 9.9 3.5 9.9 3.1 10 2.6 C 10 2.6 10.1 1.6 10.1 1.6 C 10.1 1.5 10.2 1.3 10.2 1.2 C 10.2 1 10.2 0.9 10.2 0.9 C 10.3 0.8 10.3 0.8 10.4 0.8 C 10.5 0.7 10.5 0.7 10.6 0.7 C 10.7 0.7 10.7 0.7 10.8 0.8 C 10.8 0.9 10.8 1 10.8 1.1 C 10.8 1.1 10.7 1.8 10.7 1.8 Z M 13.4 3.6 C 13.6 3.5 13.7 3.4 13.8 3.4 C 13.9 3.4 14 3.5 14 3.6 C 14 3.7 13.8 3.9 13.4 4.1 C 13.1 4.4 12.7 4.5 12.4 4.5 C 12.1 4.5 11.8 4.4 11.6 4.2 C 11.3 4 11.2 3.7 11.2 3.3 C 11.2 2.9 11.3 2.5 11.6 2.1 C 11.8 1.6 12.2 1.2 12.5 0.9 C 12.9 0.7 13.3 0.5 13.7 0.5 C 13.9 0.5 14.1 0.6 14.2 0.7 C 14.3 0.8 14.4 1 14.4 1.2 C 14.4 1.3 14.4 1.5 14.3 1.6 C 14.3 1.6 14.2 1.7 14.2 1.8 C 14.1 1.8 14 1.9 13.9 1.9 C 13.9 1.9 13.8 1.8 13.8 1.8 C 13.7 1.8 13.7 1.7 13.7 1.6 C 13.7 1.6 13.7 1.5 13.7 1.4 C 13.8 1.3 13.8 1.2 13.8 1.1 C 13.8 1 13.7 1 13.7 1 C 13.4 1 13.2 1.1 12.9 1.4 C 12.6 1.6 12.3 1.9 12.1 2.3 C 11.9 2.7 11.8 3 11.8 3.3 C 11.8 3.5 11.9 3.6 12 3.8 C 12.1 3.9 12.2 3.9 12.4 3.9 C 12.6 3.9 12.7 3.9 12.9 3.8 C 13.1 3.8 13.3 3.7 13.4 3.6 C 13.4 3.6 13.4 3.6 13.4 3.6 Z M 15.5 1.8 C 15.5 2 15.5 2.1 15.5 2.2 C 15.5 2.2 15.4 2.3 15.4 2.5 C 15.4 2.9 15.3 3.1 15.3 3.3 C 15.3 3.5 15.3 3.7 15.4 3.9 C 15.4 4 15.4 4.2 15.3 4.2 C 15.2 4.3 15.1 4.3 15 4.3 C 14.9 4.3 14.8 4.3 14.8 4.2 C 14.7 4.1 14.7 3.9 14.7 3.7 C 14.7 3.5 14.8 3.1 14.8 2.6 C 14.8 2.6 15 1.6 15 1.6 C 15 1.5 15 1.3 15 1.2 C 15 1 15.1 0.9 15.1 0.9 C 15.1 0.8 15.2 0.8 15.3 0.8 C 15.3 0.7 15.4 0.7 15.4 0.7 C 15.5 0.7 15.6 0.7 15.6 0.8 C 15.7 0.9 15.7 1 15.7 1.1 C 15.7 1.1 15.5 1.8 15.5 1.8 Z M 18.9 1.2 C 18.9 1.2 18.2 1.3 18.2 1.3 C 17.9 1.3 17.7 1.3 17.5 1.3 C 17.3 1.4 17.2 1.4 17.2 1.4 C 17.2 1.4 17.2 1.5 17.2 1.6 C 17.1 1.6 17.1 1.8 17.1 2 C 17 2.1 17 2.3 17 2.4 C 17.1 2.4 17.2 2.4 17.4 2.3 C 17.6 2.3 17.8 2.3 17.9 2.3 C 18.1 2.2 18.3 2.2 18.4 2.2 C 18.7 2.2 18.8 2.3 18.8 2.4 C 18.8 2.5 18.8 2.6 18.7 2.7 C 18.6 2.7 18.5 2.7 18.3 2.7 C 18.2 2.7 18.1 2.8 18 2.8 C 18 2.8 17.9 2.8 17.8 2.8 C 17.3 2.9 17.1 2.9 17 2.9 C 17 2.9 17 2.9 17 2.9 C 17 2.9 16.9 3 16.9 3 C 16.9 3 16.9 3.1 16.9 3.4 C 16.8 3.6 16.8 3.7 16.8 3.8 C 16.8 3.9 16.8 3.9 16.9 3.9 C 17 3.9 17.2 3.9 17.5 3.8 C 17.9 3.8 18.1 3.8 18.2 3.7 C 18.4 3.7 18.5 3.7 18.6 3.7 C 18.8 3.7 18.9 3.8 18.9 4 C 18.9 4 18.9 4.1 18.8 4.1 C 18.7 4.2 18.4 4.2 18.1 4.3 C 17.9 4.3 17.7 4.3 17.3 4.3 C 17.1 4.4 16.8 4.4 16.5 4.4 C 16.4 4.4 16.3 4.4 16.3 4.3 C 16.2 4.3 16.2 4.2 16.1 4.1 C 16.1 4.1 16.1 4 16.1 4 C 16.1 4 16.2 3.9 16.2 3.9 C 16.2 3.7 16.3 3.2 16.4 2.5 C 16.5 1.8 16.6 1.4 16.6 1.4 C 16.6 1.4 16.6 1.4 16.5 1.4 C 16.5 1.3 16.5 1.3 16.5 1.3 C 16.5 1.2 16.4 1.1 16.4 1.1 C 16.4 1.1 16.5 1 16.5 1 C 16.5 1 16.5 1 16.6 0.9 C 16.6 0.9 16.7 0.9 16.7 0.9 C 16.8 0.9 16.9 0.9 17 0.9 C 17.1 0.9 17.5 0.8 18.3 0.7 C 18.5 0.7 18.7 0.7 18.7 0.7 C 18.7 0.7 18.7 0.7 18.7 0.7 C 19 0.7 19.2 0.8 19.2 1 C 19.2 1 19.1 1.1 19.1 1.1 C 19 1.2 19 1.2 18.9 1.2 Z M 19.5 3.4 C 19.5 3.4 19.72 2.62 19.7 2.6 C 19.9 2 19.9 1.5 19.9 1.3 C 19.9 1.1 19.9 1.1 20 1 C 20 1 20 0.9 20.1 0.9 C 20.1 0.8 20.2 0.8 20.3 0.8 C 20.3 0.8 20.4 0.8 20.5 0.9 C 20.5 0.9 20.6 1 20.6 1.2 C 20.7 1.5 20.9 1.8 21.1 2.3 C 21.4 2.8 21.7 3.1 21.9 3.4 C 22 3.1 22 2.8 22.1 2.3 C 22.2 2 22.2 1.7 22.3 1.5 C 22.3 1.3 22.3 1.1 22.3 1 C 22.3 0.8 22.4 0.7 22.5 0.7 C 22.5 0.6 22.6 0.6 22.7 0.6 C 22.8 0.6 22.8 0.7 22.9 0.7 C 22.9 0.8 22.9 0.9 22.9 1 C 22.9 1.1 22.9 1.2 22.9 1.4 C 22.8 1.8 22.7 2.2 22.6 2.8 C 22.5 3.4 22.4 3.7 22.4 3.8 C 22.4 3.8 22.4 3.9 22.4 3.9 C 22.4 4 22.4 4.1 22.4 4.1 C 22.4 4.2 22.3 4.2 22.3 4.3 C 22.2 4.3 22.1 4.3 22 4.3 C 22 4.3 21.9 4.3 21.9 4.3 C 21.9 4.3 21.8 4.3 21.8 4.2 C 21.8 4.1 21.7 4.1 21.7 4 C 21.6 3.8 21.5 3.8 21.5 3.7 C 21.1 3.2 20.7 2.6 20.4 2 C 20.3 2.2 20.2 2.6 20.1 3.4 C 20.1 3.4 20.1 3.6 20.1 3.6 C 20.1 3.7 20.1 3.8 20.1 3.9 C 20.1 4.1 20 4.2 19.9 4.3 C 19.9 4.4 19.8 4.4 19.7 4.4 C 19.6 4.4 19.6 4.4 19.5 4.3 C 19.5 4.3 19.4 4.2 19.4 4 C 19.4 3.9 19.5 3.7 19.5 3.5 C 19.54 3.46 19.5 3.4 19.5 3.4 Z M 26.1 1.3 C 25.7 1.3 25.4 1.3 25.2 1.4 C 25.2 1.4 25.2 1.4 25.2 1.5 C 25.2 1.5 25.2 1.8 25.1 2.3 C 25 2.8 25 3.2 25 3.5 C 25 3.6 25 3.8 25.1 3.9 C 25.1 3.9 25.1 4 25.1 4 C 25.1 4.1 25.1 4.2 25 4.2 C 24.9 4.3 24.9 4.3 24.8 4.3 C 24.7 4.3 24.7 4.3 24.6 4.3 C 24.5 4.2 24.5 4.1 24.5 4 C 24.4 3.9 24.4 3.7 24.4 3.5 C 24.4 3.2 24.5 2.8 24.5 2.2 C 24.6 1.7 24.6 1.4 24.6 1.4 C 24.6 1.4 24.4 1.4 24.1 1.4 C 23.8 1.5 23.6 1.5 23.5 1.5 C 23.4 1.5 23.3 1.5 23.2 1.4 C 23.1 1.4 23.1 1.3 23.1 1.2 C 23.1 1.1 23.1 1.1 23.2 1 C 23.3 1 23.4 1 23.7 1 C 24.2 1 24.6 0.9 25.1 0.9 C 25.6 0.8 26 0.7 26.3 0.7 C 26.5 0.7 26.7 0.8 26.8 0.8 C 26.9 0.9 26.9 1 26.9 1.1 C 26.9 1.2 26.8 1.3 26.7 1.3 C 26.6 1.3 26.6 1.3 26.5 1.3 C 26.4 1.3 26.2 1.3 26.1 1.3 C 26.1 1.3 26.1 1.3 26.1 1.3 Z M 29.4 1.2 C 29.4 1.2 28.7 1.3 28.7 1.3 C 28.4 1.3 28.2 1.3 28 1.3 C 27.8 1.4 27.7 1.4 27.7 1.4 C 27.7 1.4 27.7 1.5 27.6 1.6 C 27.6 1.6 27.6 1.8 27.6 2 C 27.5 2.1 27.5 2.3 27.5 2.4 C 27.6 2.4 27.7 2.4 27.9 2.3 C 28.1 2.3 28.3 2.3 28.3 2.3 C 28.6 2.2 28.8 2.2 28.9 2.2 C 29.2 2.2 29.3 2.3 29.3 2.4 C 29.3 2.5 29.2 2.6 29.2 2.7 C 29.1 2.7 29 2.7 28.8 2.7 C 28.7 2.7 28.6 2.8 28.5 2.8 C 28.5 2.8 28.4 2.8 28.3 2.8 C 27.8 2.9 27.6 2.9 27.5 2.9 C 27.5 2.9 27.5 2.9 27.5 2.9 C 27.5 2.9 27.4 3 27.4 3 C 27.4 3 27.4 3.1 27.3 3.4 C 27.3 3.6 27.3 3.7 27.3 3.8 C 27.3 3.9 27.3 3.9 27.4 3.9 C 27.5 3.9 27.7 3.9 28 3.8 C 28.4 3.8 28.6 3.8 28.6 3.7 C 28.9 3.7 29 3.7 29.1 3.7 C 29.3 3.7 29.4 3.8 29.4 4 C 29.4 4 29.4 4.1 29.3 4.1 C 29.2 4.2 28.9 4.2 28.6 4.3 C 28.4 4.3 28.1 4.3 27.8 4.3 C 27.5 4.4 27.3 4.4 27 4.4 C 26.9 4.4 26.8 4.4 26.7 4.3 C 26.7 4.3 26.6 4.2 26.6 4.1 C 26.6 4.1 26.6 4 26.6 4 C 26.6 4 26.6 3.9 26.7 3.9 C 26.7 3.7 26.8 3.2 26.9 2.5 C 27 1.8 27.1 1.4 27.1 1.4 C 27.1 1.4 27 1.4 27 1.4 C 27 1.3 27 1.3 27 1.3 C 27 1.2 26.9 1.1 26.9 1.1 C 26.9 1.1 26.9 1 26.9 1 C 27 1 27 1 27.1 0.9 C 27.1 0.9 27.2 0.9 27.2 0.9 C 27.3 0.9 27.4 0.9 27.5 0.9 C 27.6 0.9 28 0.8 28.8 0.7 C 29 0.7 29.2 0.7 29.2 0.7 C 29.2 0.7 29.2 0.7 29.2 0.7 C 29.5 0.7 29.6 0.8 29.6 1 C 29.6 1 29.6 1.1 29.6 1.1 C 29.5 1.2 29.5 1.2 29.4 1.2 Z " stroke="none" fill="#000"/>  </g></svg>