<?xml version="1.0" standalone="no"?><!DOCTYPE svg PUBLIC "-//W3C//DTD SVG 1.1//EN" "http://www.w3.org/Graphics/SVG/1.1/DTD/svg11.dtd"><svg xmlns="http://www.w3.org/2000/svg" version="1.1" width="49px" height="23.9px" viewBox="0 -1 49 23.9" style="top:-1px">  <desc>VAMOS PODER DEFENDER NOSSOS DIREITOS E AT NOSSA OBRIGA O DE PROTEGER O BRASIL E NOSSAS FAM LIAS.</desc>  <defs/>  <g id="Polygon15020">    <path d="M 9.9 19.3 C 9.9 19.3 9.96 18.8 10 18.8 C 10 18.4 10.1 18.1 10.1 18 C 10.1 17.9 10.1 17.9 10.1 17.8 C 10.1 17.8 10.1 17.8 10.2 17.8 C 10.2 17.7 10.3 17.7 10.3 17.7 C 10.3 17.7 10.4 17.7 10.4 17.7 C 10.4 17.8 10.5 17.8 10.5 17.9 C 10.5 18.1 10.6 18.3 10.8 18.6 C 11 18.9 11.1 19.1 11.3 19.3 C 11.3 19.1 11.4 18.9 11.4 18.6 C 11.4 18.4 11.5 18.3 11.5 18.1 C 11.5 18 11.5 17.9 11.5 17.8 C 11.5 17.7 11.6 17.7 11.6 17.6 C 11.7 17.6 11.7 17.6 11.7 17.6 C 11.8 17.6 11.8 17.6 11.9 17.7 C 11.9 17.7 11.9 17.8 11.9 17.8 C 11.9 17.9 11.9 18 11.9 18.1 C 11.8 18.3 11.7 18.6 11.7 18.9 C 11.6 19.3 11.6 19.5 11.6 19.5 C 11.6 19.5 11.6 19.6 11.6 19.6 C 11.6 19.6 11.6 19.7 11.6 19.7 C 11.6 19.7 11.5 19.8 11.5 19.8 C 11.5 19.8 11.4 19.8 11.4 19.8 C 11.3 19.8 11.3 19.8 11.3 19.8 C 11.3 19.8 11.2 19.8 11.2 19.7 C 11.2 19.7 11.2 19.7 11.1 19.6 C 11.1 19.5 11 19.5 11 19.4 C 10.8 19.2 10.6 18.8 10.3 18.4 C 10.3 18.5 10.3 18.8 10.2 19.3 C 10.2 19.3 10.2 19.4 10.2 19.4 C 10.2 19.4 10.2 19.5 10.2 19.6 C 10.2 19.7 10.1 19.8 10.1 19.8 C 10.1 19.9 10 19.9 10 19.9 C 9.9 19.9 9.9 19.9 9.8 19.8 C 9.8 19.8 9.8 19.7 9.8 19.6 C 9.8 19.6 9.8 19.4 9.9 19.3 C 9.85 19.3 9.9 19.3 9.9 19.3 Z M 12.7 19.9 C 12.6 19.9 12.4 19.8 12.3 19.6 C 12.2 19.5 12.1 19.3 12.1 19.1 C 12.1 18.9 12.2 18.7 12.3 18.5 C 12.4 18.2 12.6 18 12.8 17.9 C 13 17.7 13.2 17.6 13.4 17.6 C 13.5 17.6 13.7 17.7 13.8 17.7 C 13.9 17.7 14 17.8 14.1 17.9 C 14.1 17.9 14.2 18 14.2 18.1 C 14.3 18.2 14.3 18.3 14.3 18.4 C 14.3 18.6 14.2 18.7 14.2 18.9 C 14.1 19.1 14 19.2 13.8 19.4 C 13.7 19.5 13.5 19.7 13.4 19.7 C 13.2 19.8 13 19.9 12.7 19.9 Z M 12.5 19.1 C 12.5 19.3 12.5 19.4 12.6 19.4 C 12.7 19.5 12.7 19.6 12.8 19.6 C 13.1 19.6 13.3 19.4 13.6 19.2 C 13.8 18.9 13.9 18.7 13.9 18.4 C 13.9 18.3 13.9 18.2 13.8 18.1 C 13.8 18.1 13.7 18 13.7 18 C 13.6 17.9 13.5 17.9 13.4 17.9 C 13.2 17.9 13 18.1 12.8 18.3 C 12.6 18.6 12.5 18.9 12.5 19.1 Z M 16.1 17.9 C 16.1 18.1 16 18.2 15.9 18.2 C 15.9 18.1 15.8 18 15.8 18 C 15.7 18 15.7 17.9 15.6 17.9 C 15.4 17.9 15.2 18 15.1 18.1 C 15 18.1 14.9 18.2 14.9 18.3 C 14.9 18.4 14.9 18.4 15 18.5 C 15 18.5 15.2 18.6 15.4 18.6 C 15.6 18.7 15.8 18.8 15.9 18.9 C 16 19 16.1 19 16.1 19.2 C 16.1 19.3 15.9 19.5 15.6 19.7 C 15.3 19.8 15 19.9 14.7 19.9 C 14.6 19.9 14.6 19.9 14.5 19.9 C 14.4 19.8 14.4 19.8 14.4 19.7 C 14.4 19.6 14.4 19.6 14.4 19.6 C 14.5 19.5 14.5 19.5 14.5 19.5 C 14.6 19.5 14.6 19.5 14.6 19.5 C 14.7 19.6 14.8 19.6 14.9 19.6 C 15 19.6 15.2 19.5 15.4 19.4 C 15.6 19.4 15.7 19.3 15.7 19.2 C 15.7 19.2 15.7 19.1 15.6 19.1 C 15.6 19.1 15.5 19 15.3 19 C 15.1 18.9 15 18.8 14.9 18.8 C 14.7 18.8 14.7 18.7 14.6 18.6 C 14.6 18.6 14.5 18.5 14.5 18.4 C 14.5 18.2 14.6 18 14.9 17.9 C 15.1 17.7 15.3 17.6 15.6 17.6 C 15.8 17.6 15.9 17.7 16 17.7 C 16.1 17.8 16.1 17.9 16.1 17.9 C 16.1 17.9 16.1 17.9 16.1 17.9 Z M 18 17.9 C 18 18.1 17.9 18.2 17.7 18.2 C 17.7 18.1 17.7 18 17.6 18 C 17.6 18 17.5 17.9 17.4 17.9 C 17.2 17.9 17.1 18 16.9 18.1 C 16.8 18.1 16.7 18.2 16.7 18.3 C 16.7 18.4 16.8 18.4 16.8 18.5 C 16.9 18.5 17 18.6 17.2 18.6 C 17.5 18.7 17.6 18.8 17.7 18.9 C 17.9 19 17.9 19 17.9 19.2 C 17.9 19.3 17.8 19.5 17.5 19.7 C 17.2 19.8 16.9 19.9 16.6 19.9 C 16.5 19.9 16.4 19.9 16.3 19.9 C 16.3 19.8 16.3 19.8 16.3 19.7 C 16.3 19.6 16.3 19.6 16.3 19.6 C 16.3 19.5 16.4 19.5 16.4 19.5 C 16.4 19.5 16.4 19.5 16.5 19.5 C 16.6 19.6 16.7 19.6 16.7 19.6 C 16.9 19.6 17.1 19.5 17.3 19.4 C 17.5 19.4 17.5 19.3 17.5 19.2 C 17.5 19.2 17.5 19.1 17.5 19.1 C 17.4 19.1 17.3 19 17.2 19 C 17 18.9 16.8 18.8 16.7 18.8 C 16.6 18.8 16.5 18.7 16.5 18.6 C 16.4 18.6 16.4 18.5 16.4 18.4 C 16.4 18.2 16.5 18 16.7 17.9 C 16.9 17.7 17.2 17.6 17.5 17.6 C 17.6 17.6 17.7 17.7 17.8 17.7 C 17.9 17.8 18 17.9 18 17.9 C 18 17.9 18 17.9 18 17.9 Z M 18.7 19.3 C 18.6 19.3 18.6 19.3 18.6 19.3 C 18.6 19.3 18.5 19.4 18.4 19.6 C 18.4 19.7 18.3 19.8 18.3 19.8 C 18.2 19.8 18.2 19.8 18.2 19.8 C 18.1 19.8 18.1 19.8 18 19.8 C 18 19.7 18 19.7 18 19.7 C 18 19.6 18.1 19.4 18.3 19 C 18.5 18.8 18.6 18.6 18.7 18.4 C 18.9 18 19.1 17.8 19.1 17.7 C 19.2 17.7 19.2 17.6 19.3 17.6 C 19.3 17.6 19.4 17.6 19.4 17.7 C 19.5 17.7 19.5 17.7 19.5 17.8 C 19.5 17.8 19.5 17.9 19.5 17.9 C 19.6 18.4 19.8 18.8 19.9 19 C 20 19.3 20.1 19.4 20.2 19.5 C 20.2 19.6 20.3 19.6 20.3 19.6 C 20.3 19.6 20.3 19.7 20.3 19.7 C 20.3 19.8 20.3 19.8 20.2 19.8 C 20.2 19.9 20.2 19.9 20.1 19.9 C 20 19.9 19.9 19.9 19.9 19.8 C 19.8 19.7 19.7 19.6 19.7 19.4 C 19.6 19.3 19.6 19.2 19.6 19.2 C 19.6 19.2 19.6 19.2 19.5 19.2 C 19.5 19.2 19.4 19.2 19.2 19.2 C 19 19.2 18.9 19.3 18.8 19.3 C 18.7 19.3 18.7 19.3 18.7 19.3 C 18.7 19.3 18.7 19.3 18.7 19.3 Z M 19.3 18.9 C 19.3 18.9 19.4 18.9 19.4 18.9 C 19.4 18.8 19.3 18.6 19.2 18.2 C 19.2 18.2 19.2 18.2 19.2 18.2 C 19.2 18.2 18.8 19 18.8 19 C 18.9 19 18.9 18.9 19 18.9 C 19 18.9 19.1 18.9 19.3 18.9 C 19.3 18.9 19.3 18.9 19.3 18.9 Z M 22.1 17.9 C 22.1 18.1 22 18.2 21.8 18.2 C 21.8 18.1 21.8 18 21.7 18 C 21.7 18 21.6 17.9 21.5 17.9 C 21.4 17.9 21.2 18 21.1 18.1 C 20.9 18.1 20.9 18.2 20.9 18.3 C 20.9 18.4 20.9 18.4 20.9 18.5 C 21 18.5 21.1 18.6 21.3 18.6 C 21.6 18.7 21.7 18.8 21.9 18.9 C 22 19 22 19 22 19.2 C 22 19.3 21.9 19.5 21.6 19.7 C 21.3 19.8 21 19.9 20.7 19.9 C 20.6 19.9 20.5 19.9 20.5 19.9 C 20.4 19.8 20.4 19.8 20.4 19.7 C 20.4 19.6 20.4 19.6 20.4 19.6 C 20.4 19.5 20.5 19.5 20.5 19.5 C 20.5 19.5 20.6 19.5 20.6 19.5 C 20.7 19.6 20.8 19.6 20.9 19.6 C 21 19.6 21.2 19.5 21.4 19.4 C 21.6 19.4 21.7 19.3 21.7 19.2 C 21.7 19.2 21.6 19.1 21.6 19.1 C 21.5 19.1 21.4 19 21.3 19 C 21.1 18.9 20.9 18.8 20.8 18.8 C 20.7 18.8 20.6 18.7 20.6 18.6 C 20.5 18.6 20.5 18.5 20.5 18.4 C 20.5 18.2 20.6 18 20.8 17.9 C 21 17.7 21.3 17.6 21.6 17.6 C 21.7 17.6 21.9 17.7 22 17.7 C 22.1 17.8 22.1 17.9 22.1 17.9 C 22.1 17.9 22.1 17.9 22.1 17.9 Z M 25.1 17.9 C 25 18 25 18 25 18 C 25 18 24.9 18 24.9 18 C 24.9 18 24.9 18 24.8 18 C 24.7 18 24.5 18 24.4 18 C 24.2 18 24.1 18 24.1 18 C 24 18.2 24 18.5 23.9 18.7 C 24 18.7 24 18.7 24.1 18.7 C 24.2 18.7 24.4 18.7 24.5 18.6 C 24.6 18.6 24.7 18.6 24.8 18.6 C 24.9 18.6 25 18.7 25 18.8 C 25 18.8 25 18.8 24.9 18.8 C 24.9 18.9 24.9 18.9 24.8 18.9 C 24.8 18.9 24.7 18.9 24.7 18.9 C 24.7 18.9 24.3 19 24.3 19 C 24.1 19 24 19 23.9 19 C 23.9 19 23.9 19.1 23.9 19.1 C 23.9 19.1 23.9 19.1 23.9 19.2 C 23.9 19.4 23.9 19.5 23.9 19.5 C 23.9 19.5 23.9 19.7 23.9 19.7 C 23.9 19.8 23.8 19.9 23.7 19.9 C 23.7 19.9 23.6 19.9 23.6 19.8 C 23.5 19.8 23.5 19.7 23.5 19.7 C 23.5 19.5 23.5 19.4 23.5 19.1 C 23.5 19.1 23.6 18.8 23.7 18 C 23.7 18 23.7 18 23.7 18 C 23.7 17.9 23.6 17.9 23.6 17.9 C 23.6 17.8 23.7 17.8 23.7 17.8 C 23.7 17.7 23.8 17.7 23.8 17.7 C 23.8 17.7 23.9 17.7 23.9 17.7 C 23.9 17.7 24 17.7 24 17.7 C 24 17.7 24.2 17.7 24.5 17.7 C 24.7 17.6 24.8 17.6 24.9 17.6 C 25 17.6 25 17.7 25.1 17.7 C 25.1 17.7 25.2 17.7 25.2 17.8 C 25.2 17.8 25.1 17.9 25.1 17.9 C 25.1 17.9 25.1 17.9 25.1 17.9 Z M 25.6 19.3 C 25.6 19.3 25.5 19.3 25.5 19.3 C 25.5 19.3 25.4 19.4 25.3 19.6 C 25.3 19.7 25.2 19.8 25.2 19.8 C 25.1 19.8 25.1 19.8 25.1 19.8 C 25 19.8 25 19.8 25 19.8 C 24.9 19.7 24.9 19.7 24.9 19.7 C 24.9 19.6 25 19.4 25.2 19 C 25.4 18.8 25.5 18.6 25.6 18.4 C 25.8 18 26 17.8 26 17.7 C 26.1 17.7 26.1 17.6 26.2 17.6 C 26.3 17.6 26.3 17.6 26.4 17.7 C 26.4 17.7 26.4 17.7 26.4 17.8 C 26.4 17.8 26.4 17.9 26.4 17.9 C 26.6 18.4 26.7 18.8 26.8 19 C 26.9 19.3 27 19.4 27.1 19.5 C 27.1 19.6 27.2 19.6 27.2 19.6 C 27.2 19.6 27.2 19.7 27.2 19.7 C 27.2 19.8 27.2 19.8 27.1 19.8 C 27.1 19.9 27.1 19.9 27 19.9 C 26.9 19.9 26.9 19.9 26.8 19.8 C 26.7 19.7 26.6 19.6 26.6 19.4 C 26.5 19.3 26.5 19.2 26.5 19.2 C 26.5 19.2 26.5 19.2 26.5 19.2 C 26.4 19.2 26.3 19.2 26.1 19.2 C 25.9 19.2 25.8 19.3 25.7 19.3 C 25.6 19.3 25.6 19.3 25.6 19.3 C 25.6 19.3 25.6 19.3 25.6 19.3 Z M 26.2 18.9 C 26.3 18.9 26.3 18.9 26.3 18.9 C 26.3 18.8 26.3 18.6 26.1 18.2 C 26.1 18.2 26.1 18.2 26.1 18.2 C 26.1 18.2 25.7 19 25.7 19 C 25.8 19 25.8 18.9 25.9 18.9 C 25.9 18.9 26 18.9 26.2 18.9 C 26.2 18.9 26.2 18.9 26.2 18.9 Z M 29.4 18.3 C 29.4 18.2 29.4 18.2 29.4 18.2 C 29.4 18.2 29 18.8 29 18.8 C 28.7 19.1 28.6 19.3 28.4 19.3 C 28.4 19.3 28.3 19.3 28.3 19.2 C 28.2 19.1 28.2 19 28.2 18.9 C 28.1 18.8 28.1 18.7 28.1 18.6 C 28 18.4 28 18.4 28 18.3 C 28 18.3 27.9 18.7 27.9 18.7 C 27.9 18.8 27.8 18.9 27.8 19 C 27.8 19.2 27.8 19.3 27.7 19.4 C 27.7 19.6 27.7 19.7 27.7 19.7 C 27.7 19.8 27.7 19.8 27.6 19.8 C 27.6 19.9 27.5 19.9 27.5 19.9 C 27.5 19.9 27.4 19.8 27.4 19.8 C 27.3 19.8 27.3 19.7 27.3 19.7 C 27.3 19.6 27.3 19.5 27.4 19.3 C 27.5 18.7 27.6 18.4 27.7 18.2 C 27.7 18 27.7 17.9 27.7 17.8 C 27.7 17.8 27.7 17.7 27.8 17.7 C 27.8 17.7 27.9 17.7 27.9 17.7 C 28 17.7 28 17.7 28.1 17.7 C 28.1 17.8 28.1 17.8 28.1 17.9 C 28.15 17.88 28.1 17.9 28.1 17.9 C 28.1 17.9 28.35 18.45 28.3 18.4 C 28.4 18.7 28.5 18.8 28.5 18.9 C 28.6 18.8 28.8 18.6 29 18.3 C 29.2 18 29.3 17.8 29.4 17.7 C 29.5 17.7 29.5 17.6 29.6 17.6 C 29.6 17.6 29.7 17.6 29.7 17.7 C 29.8 17.7 29.8 17.8 29.8 17.8 C 29.8 17.8 29.8 18 29.8 18.2 C 29.7 18.4 29.7 18.6 29.7 18.9 C 29.7 19.1 29.7 19.2 29.7 19.3 C 29.7 19.3 29.7 19.4 29.7 19.5 C 29.7 19.5 29.7 19.5 29.7 19.6 C 29.7 19.7 29.7 19.7 29.6 19.8 C 29.6 19.8 29.6 19.8 29.5 19.8 C 29.4 19.8 29.3 19.7 29.3 19.5 C 29.3 19.4 29.3 19.1 29.3 18.9 C 29.4 18.6 29.4 18.4 29.4 18.3 C 29.4 18.3 29.4 18.3 29.4 18.3 Z M 30.7 18.3 C 30.7 18.4 30.6 18.5 30.6 18.5 C 30.6 18.6 30.6 18.6 30.6 18.8 C 30.6 19 30.6 19.1 30.6 19.2 C 30.6 19.3 30.6 19.4 30.6 19.6 C 30.6 19.7 30.6 19.7 30.5 19.8 C 30.5 19.8 30.4 19.8 30.4 19.8 C 30.3 19.8 30.3 19.8 30.2 19.7 C 30.2 19.7 30.2 19.6 30.2 19.4 C 30.2 19.3 30.2 19.1 30.3 18.8 C 30.3 18.8 30.3 18.2 30.3 18.2 C 30.3 18.1 30.4 18 30.4 18 C 30.4 17.8 30.4 17.8 30.4 17.8 C 30.4 17.7 30.5 17.7 30.5 17.7 C 30.5 17.7 30.6 17.6 30.6 17.6 C 30.7 17.6 30.7 17.7 30.7 17.7 C 30.8 17.8 30.8 17.8 30.8 17.9 C 30.8 17.9 30.7 18.3 30.7 18.3 Z M 31.1 16.9 C 31.1 17 31 17 30.9 17.1 C 30.9 17.1 30.9 17.1 30.9 17.1 C 30.9 17.1 30.8 17.2 30.7 17.3 C 30.6 17.3 30.6 17.3 30.6 17.3 C 30.6 17.3 30.6 17.3 30.5 17.3 C 30.5 17.3 30.5 17.3 30.4 17.3 C 30.4 17.3 30.4 17.3 30.4 17.2 C 30.4 17.2 30.5 17.1 30.6 17 C 30.6 17 30.6 17 30.6 17 C 30.7 16.9 30.7 16.9 30.7 16.9 C 30.9 16.8 31 16.7 31 16.6 C 31.1 16.6 31.1 16.6 31.2 16.6 C 31.2 16.6 31.2 16.6 31.2 16.7 C 31.3 16.7 31.3 16.8 31.3 16.8 C 31.3 16.8 31.3 16.8 31.2 16.9 C 31.2 16.9 31.2 16.9 31.1 16.9 C 31.1 16.9 31.1 16.9 31.1 16.9 Z M 32.5 19.7 C 32.4 19.7 32.4 19.7 32.3 19.7 C 32.3 19.7 32.2 19.7 32.2 19.7 C 31.9 19.7 31.7 19.7 31.4 19.8 C 31.3 19.8 31.3 19.9 31.2 19.9 C 31.1 19.9 31.1 19.8 31.1 19.8 C 31 19.7 31 19.7 31 19.7 C 31 19.6 31 19.6 31 19.5 C 31.1 19.4 31.1 19.3 31.1 19.2 C 31.1 19.2 31.2 18 31.2 18 C 31.2 17.9 31.3 17.8 31.3 17.8 C 31.3 17.7 31.3 17.7 31.3 17.7 C 31.4 17.7 31.4 17.6 31.5 17.6 C 31.5 17.6 31.6 17.7 31.6 17.7 C 31.6 17.7 31.6 17.8 31.6 17.8 C 31.6 17.8 31.6 17.9 31.6 18 C 31.6 18.1 31.6 18.4 31.5 18.8 C 31.5 19.2 31.4 19.4 31.4 19.4 C 31.4 19.4 31.4 19.5 31.5 19.5 C 31.5 19.5 31.6 19.4 31.8 19.4 C 31.8 19.4 31.9 19.4 32 19.4 C 32.2 19.4 32.4 19.4 32.5 19.3 C 32.5 19.3 32.5 19.3 32.5 19.3 C 32.6 19.3 32.6 19.3 32.7 19.4 C 32.7 19.4 32.7 19.4 32.7 19.5 C 32.7 19.6 32.7 19.6 32.6 19.6 C 32.6 19.7 32.5 19.7 32.5 19.7 Z M 33.4 18.3 C 33.4 18.4 33.3 18.5 33.3 18.5 C 33.3 18.6 33.3 18.6 33.3 18.8 C 33.3 19 33.3 19.1 33.3 19.2 C 33.3 19.3 33.3 19.4 33.3 19.6 C 33.3 19.7 33.3 19.7 33.2 19.8 C 33.2 19.8 33.1 19.8 33.1 19.8 C 33 19.8 33 19.8 32.9 19.7 C 32.9 19.7 32.9 19.6 32.9 19.4 C 32.9 19.3 32.9 19.1 33 18.8 C 33 18.8 33 18.2 33 18.2 C 33.1 18.1 33.1 18 33.1 18 C 33.1 17.8 33.1 17.8 33.1 17.8 C 33.1 17.7 33.2 17.7 33.2 17.7 C 33.3 17.7 33.3 17.6 33.3 17.6 C 33.4 17.6 33.4 17.7 33.4 17.7 C 33.5 17.8 33.5 17.8 33.5 17.9 C 33.5 17.9 33.4 18.3 33.4 18.3 Z M 34.2 19.3 C 34.2 19.3 34.2 19.3 34.1 19.3 C 34.1 19.3 34.1 19.4 34 19.6 C 33.9 19.7 33.8 19.8 33.8 19.8 C 33.8 19.8 33.7 19.8 33.7 19.8 C 33.7 19.8 33.6 19.8 33.6 19.8 C 33.5 19.7 33.5 19.7 33.5 19.7 C 33.5 19.6 33.6 19.4 33.9 19 C 34 18.8 34.1 18.6 34.2 18.4 C 34.5 18 34.6 17.8 34.7 17.7 C 34.7 17.7 34.8 17.6 34.8 17.6 C 34.9 17.6 34.9 17.6 35 17.7 C 35 17.7 35 17.7 35 17.8 C 35 17.8 35 17.9 35 17.9 C 35.2 18.4 35.3 18.8 35.4 19 C 35.5 19.3 35.6 19.4 35.7 19.5 C 35.8 19.6 35.8 19.6 35.8 19.6 C 35.8 19.6 35.8 19.7 35.8 19.7 C 35.8 19.8 35.8 19.8 35.8 19.8 C 35.7 19.9 35.7 19.9 35.6 19.9 C 35.6 19.9 35.5 19.9 35.4 19.8 C 35.3 19.7 35.3 19.6 35.2 19.4 C 35.1 19.3 35.1 19.2 35.1 19.2 C 35.1 19.2 35.1 19.2 35.1 19.2 C 35 19.2 34.9 19.2 34.7 19.2 C 34.6 19.2 34.4 19.3 34.3 19.3 C 34.3 19.3 34.2 19.3 34.2 19.3 C 34.2 19.3 34.2 19.3 34.2 19.3 Z M 34.8 18.9 C 34.9 18.9 34.9 18.9 35 18.9 C 35 18.8 34.9 18.6 34.8 18.2 C 34.8 18.2 34.8 18.2 34.7 18.2 C 34.7 18.2 34.3 19 34.3 19 C 34.4 19 34.5 18.9 34.5 18.9 C 34.6 18.9 34.7 18.9 34.8 18.9 C 34.8 18.9 34.8 18.9 34.8 18.9 Z M 37.6 17.9 C 37.6 18.1 37.5 18.2 37.4 18.2 C 37.4 18.1 37.3 18 37.3 18 C 37.2 18 37.2 17.9 37.1 17.9 C 36.9 17.9 36.7 18 36.6 18.1 C 36.5 18.1 36.4 18.2 36.4 18.3 C 36.4 18.4 36.4 18.4 36.5 18.5 C 36.5 18.5 36.7 18.6 36.9 18.6 C 37.1 18.7 37.3 18.8 37.4 18.9 C 37.5 19 37.6 19 37.6 19.2 C 37.6 19.3 37.4 19.5 37.1 19.7 C 36.9 19.8 36.6 19.9 36.2 19.9 C 36.1 19.9 36.1 19.9 36 19.9 C 35.9 19.8 35.9 19.8 35.9 19.7 C 35.9 19.6 35.9 19.6 36 19.6 C 36 19.5 36 19.5 36.1 19.5 C 36.1 19.5 36.1 19.5 36.1 19.5 C 36.2 19.6 36.3 19.6 36.4 19.6 C 36.6 19.6 36.7 19.5 36.9 19.4 C 37.1 19.4 37.2 19.3 37.2 19.2 C 37.2 19.2 37.2 19.1 37.1 19.1 C 37.1 19.1 37 19 36.8 19 C 36.6 18.9 36.5 18.8 36.4 18.8 C 36.3 18.8 36.2 18.7 36.1 18.6 C 36.1 18.6 36 18.5 36 18.4 C 36 18.2 36.1 18 36.4 17.9 C 36.6 17.7 36.8 17.6 37.1 17.6 C 37.3 17.6 37.4 17.7 37.5 17.7 C 37.6 17.8 37.6 17.9 37.6 17.9 C 37.6 17.9 37.6 17.9 37.6 17.9 Z M 38 19.7 C 37.9 19.7 37.9 19.7 37.8 19.7 C 37.8 19.7 37.8 19.6 37.8 19.5 C 37.8 19.5 37.8 19.4 37.8 19.4 C 37.8 19.4 37.8 19.3 37.9 19.3 C 37.9 19.3 38 19.3 38.1 19.3 C 38.1 19.3 38.2 19.3 38.2 19.3 C 38.2 19.4 38.2 19.4 38.2 19.4 C 38.2 19.5 38.2 19.5 38.2 19.6 C 38.2 19.6 38.2 19.6 38.1 19.7 C 38 19.7 38 19.7 38 19.7 Z " stroke="none" fill="#000"/>  </g>  <g id="Polygon15019">    <path d="M 7 15.1 C 6.9 15.1 6.8 15.1 6.8 15.1 C 6.8 15.3 6.8 15.5 6.8 15.7 C 6.8 15.7 6.8 15.8 6.7 15.8 C 6.7 15.8 6.6 15.9 6.6 15.9 C 6.5 15.9 6.4 15.8 6.4 15.7 C 6.4 15.6 6.4 15.3 6.5 14.9 C 6.5 14.5 6.6 14.3 6.6 14.2 C 6.6 14.1 6.6 14.1 6.6 14.1 C 6.5 14.1 6.5 14 6.5 13.9 C 6.5 13.8 6.6 13.8 6.9 13.7 C 7.1 13.6 7.3 13.6 7.5 13.6 C 7.8 13.6 7.9 13.7 8.1 13.7 C 8.2 13.8 8.3 14 8.3 14.1 C 8.3 14.3 8.1 14.5 7.9 14.7 C 7.7 14.9 7.4 15 7 15.1 C 7 15.1 7 15.1 7 15.1 Z M 7.5 13.9 C 7.3 13.9 7.2 13.9 6.9 14 C 6.9 14 6.9 14.8 6.9 14.8 C 7.1 14.7 7.4 14.7 7.6 14.5 C 7.8 14.4 7.9 14.3 7.9 14.1 C 7.9 14 7.8 13.9 7.5 13.9 C 7.5 13.9 7.5 13.9 7.5 13.9 Z M 8.6 14 C 8.6 14 8.58 13.98 8.6 14 C 8.5 13.9 8.5 13.9 8.5 13.9 C 8.5 13.8 8.6 13.8 8.6 13.7 C 8.7 13.7 8.7 13.7 8.7 13.7 C 8.8 13.7 8.8 13.7 8.8 13.7 C 8.8 13.7 8.8 13.7 8.9 13.7 C 9.1 13.7 9.3 13.6 9.5 13.6 C 9.7 13.6 9.8 13.7 10 13.8 C 10.1 13.9 10.2 14 10.2 14.2 C 10.2 14.3 10.1 14.5 10 14.6 C 9.9 14.7 9.7 14.8 9.5 14.9 C 9.8 15.2 10.1 15.4 10.3 15.5 C 10.3 15.5 10.4 15.6 10.4 15.6 C 10.4 15.7 10.3 15.7 10.3 15.7 C 10.3 15.8 10.2 15.8 10.2 15.8 C 10.1 15.8 10.1 15.8 10 15.7 C 9.9 15.7 9.8 15.6 9.7 15.5 C 9.5 15.4 9.5 15.3 9.4 15.3 C 9.3 15.2 9.1 15.1 9 15 C 8.9 15 8.9 15 8.9 14.9 C 8.9 14.8 8.9 14.8 9 14.7 C 9 14.7 9.1 14.7 9.1 14.7 C 9.1 14.7 9.1 14.7 9.2 14.7 C 9.2 14.7 9.2 14.7 9.2 14.7 C 9.3 14.7 9.4 14.6 9.6 14.5 C 9.7 14.4 9.8 14.3 9.8 14.2 C 9.8 14.1 9.8 14 9.7 14 C 9.6 13.9 9.5 13.9 9.4 13.9 C 9.3 13.9 9.2 13.9 9.1 13.9 C 9 14 9 14 9 14 C 9 14 9 14 9 14 C 8.9 14 8.9 14.2 8.9 14.3 C 8.9 14.5 8.8 14.7 8.8 14.9 C 8.8 15.1 8.8 15.3 8.8 15.4 C 8.8 15.4 8.8 15.5 8.8 15.5 C 8.8 15.6 8.8 15.6 8.8 15.7 C 8.8 15.7 8.8 15.7 8.7 15.8 C 8.7 15.8 8.6 15.8 8.6 15.8 C 8.5 15.8 8.4 15.8 8.4 15.6 C 8.4 15.4 8.4 15.2 8.4 14.9 C 8.5 14.7 8.5 14.4 8.6 14.2 C 8.6 14.2 8.6 14.1 8.6 14.1 C 8.58 14.11 8.6 14 8.6 14 Z M 11.1 15.9 C 10.9 15.9 10.8 15.8 10.7 15.6 C 10.5 15.5 10.5 15.3 10.5 15.1 C 10.5 14.9 10.5 14.7 10.6 14.5 C 10.8 14.2 10.9 14 11.1 13.9 C 11.3 13.7 11.5 13.6 11.7 13.6 C 11.9 13.6 12 13.7 12.1 13.7 C 12.2 13.7 12.3 13.8 12.4 13.9 C 12.5 13.9 12.6 14 12.6 14.1 C 12.6 14.2 12.6 14.3 12.6 14.4 C 12.6 14.6 12.6 14.7 12.5 14.9 C 12.4 15.1 12.3 15.2 12.2 15.4 C 12 15.5 11.9 15.7 11.7 15.7 C 11.6 15.8 11.3 15.9 11.1 15.9 Z M 10.8 15.1 C 10.8 15.3 10.9 15.4 10.9 15.4 C 11 15.5 11.1 15.6 11.2 15.6 C 11.4 15.6 11.7 15.4 11.9 15.2 C 12.1 14.9 12.3 14.7 12.3 14.4 C 12.3 14.3 12.2 14.2 12.2 14.1 C 12.2 14.1 12.1 14 12 14 C 11.9 13.9 11.8 13.9 11.7 13.9 C 11.5 13.9 11.3 14.1 11.1 14.3 C 10.9 14.6 10.8 14.9 10.8 15.1 Z M 14.5 14 C 14.3 14 14.1 14 14 14 C 14 14 14 14.1 14 14.1 C 14 14.1 13.9 14.3 13.9 14.6 C 13.9 14.9 13.9 15.1 13.9 15.3 C 13.9 15.4 13.9 15.5 13.9 15.6 C 13.9 15.6 13.9 15.6 13.9 15.6 C 13.9 15.7 13.9 15.7 13.8 15.8 C 13.8 15.8 13.8 15.8 13.7 15.8 C 13.7 15.8 13.6 15.8 13.6 15.8 C 13.6 15.7 13.5 15.7 13.5 15.6 C 13.5 15.5 13.5 15.4 13.5 15.3 C 13.5 15.2 13.5 14.9 13.6 14.6 C 13.6 14.2 13.6 14.1 13.6 14.1 C 13.6 14.1 13.5 14.1 13.3 14.1 C 13.1 14.1 13 14.1 13 14.1 C 12.9 14.1 12.8 14.1 12.8 14.1 C 12.7 14 12.7 14 12.7 14 C 12.7 13.9 12.7 13.9 12.8 13.8 C 12.8 13.8 12.9 13.8 13.1 13.8 C 13.4 13.8 13.6 13.8 13.9 13.7 C 14.2 13.7 14.4 13.7 14.6 13.7 C 14.8 13.7 14.9 13.7 14.9 13.7 C 15 13.8 15 13.8 15 13.9 C 15 14 14.9 14 14.8 14 C 14.8 14 14.8 14 14.7 14 C 14.7 14 14.6 14 14.5 14 C 14.5 14 14.5 14 14.5 14 Z M 16.5 14 C 16.5 14 16 14 16 14 C 15.9 14 15.7 14 15.6 14 C 15.5 14 15.5 14.1 15.4 14.1 C 15.4 14.1 15.4 14.1 15.4 14.2 C 15.4 14.2 15.4 14.3 15.4 14.4 C 15.4 14.5 15.3 14.6 15.3 14.6 C 15.4 14.6 15.5 14.6 15.6 14.6 C 15.7 14.6 15.8 14.6 15.8 14.6 C 16 14.6 16.1 14.5 16.2 14.5 C 16.3 14.5 16.4 14.6 16.4 14.7 C 16.4 14.7 16.4 14.8 16.3 14.8 C 16.3 14.8 16.2 14.9 16.1 14.9 C 16.1 14.9 16 14.9 16 14.9 C 15.9 14.9 15.9 14.9 15.8 14.9 C 15.5 14.9 15.4 15 15.3 15 C 15.3 15 15.3 15 15.3 15 C 15.3 15 15.3 15 15.3 15 C 15.3 15 15.3 15.1 15.2 15.2 C 15.2 15.4 15.2 15.5 15.2 15.5 C 15.2 15.5 15.2 15.6 15.3 15.6 C 15.3 15.6 15.5 15.5 15.7 15.5 C 15.9 15.5 16 15.5 16 15.5 C 16.2 15.4 16.2 15.4 16.3 15.4 C 16.4 15.4 16.5 15.5 16.5 15.6 C 16.5 15.6 16.5 15.7 16.4 15.7 C 16.3 15.7 16.2 15.8 16 15.8 C 15.9 15.8 15.7 15.8 15.5 15.8 C 15.4 15.9 15.2 15.9 15.1 15.9 C 15 15.9 14.9 15.9 14.9 15.8 C 14.9 15.8 14.8 15.7 14.8 15.7 C 14.8 15.7 14.8 15.6 14.8 15.6 C 14.8 15.6 14.8 15.6 14.8 15.5 C 14.9 15.4 14.9 15.2 15 14.7 C 15 14.3 15.1 14.1 15.1 14 C 15.1 14 15.1 14 15.1 14 C 15.1 14 15 14 15 14 C 15 13.9 15 13.9 15 13.9 C 15 13.9 15 13.9 15 13.8 C 15 13.8 15 13.8 15.1 13.8 C 15.1 13.8 15.1 13.7 15.2 13.7 C 15.2 13.7 15.3 13.8 15.3 13.8 C 15.4 13.8 15.7 13.7 16.1 13.7 C 16.3 13.6 16.3 13.6 16.3 13.6 C 16.3 13.6 16.4 13.6 16.4 13.6 C 16.5 13.6 16.6 13.7 16.6 13.8 C 16.6 13.8 16.6 13.9 16.6 13.9 C 16.5 13.9 16.5 14 16.5 14 Z M 18.7 14.8 C 18.7 14.9 18.6 15 18.6 15.1 C 18.6 15.1 18.6 15.1 18.6 15.1 C 18.6 15.1 18.6 15.2 18.5 15.4 C 18.5 15.5 18.5 15.6 18.5 15.7 C 18.5 15.8 18.5 15.9 18.5 15.9 C 18.5 15.9 18.5 16 18.5 16 C 18.5 16 18.4 16.1 18.4 16.1 C 18.4 16.1 18.4 16.1 18.3 16.1 C 18.3 16.1 18.2 16.1 18.2 16 C 18.1 16 18.1 16 18.1 15.9 C 18.1 15.9 18.1 15.8 18.1 15.7 C 18.2 15.6 18.2 15.5 18.2 15.4 C 17.9 15.6 17.6 15.8 17.3 15.8 C 17.2 15.8 17 15.7 16.9 15.6 C 16.8 15.5 16.8 15.4 16.8 15.2 C 16.8 14.9 16.8 14.6 17 14.4 C 17 14.4 17 14.4 17 14.4 C 17.2 14.1 17.4 13.9 17.6 13.8 C 17.9 13.6 18.1 13.5 18.4 13.5 C 18.5 13.5 18.6 13.6 18.7 13.6 C 18.7 13.6 18.8 13.7 18.8 13.8 C 18.8 13.8 18.8 13.9 18.7 14 C 18.7 14 18.6 14.1 18.6 14.1 C 18.5 14.1 18.5 14.1 18.5 14.1 C 18.5 14 18.4 14 18.4 14 C 18.4 13.9 18.4 13.9 18.4 13.9 C 18.3 13.9 18.3 13.9 18.3 13.9 C 18.1 13.9 17.9 13.9 17.8 14.1 C 17.6 14.2 17.4 14.4 17.3 14.6 C 17.2 14.8 17.1 15 17.1 15.2 C 17.1 15.4 17.2 15.5 17.4 15.5 C 17.4 15.5 17.5 15.4 17.7 15.4 C 17.8 15.4 17.9 15.3 18 15.2 C 18.2 15.1 18.3 15 18.3 14.9 C 18.3 14.9 18.3 14.8 18.3 14.7 C 18.4 14.6 18.4 14.6 18.4 14.6 C 18.4 14.6 18.5 14.5 18.5 14.5 C 18.7 14.5 18.7 14.6 18.7 14.7 C 18.7 14.7 18.7 14.8 18.7 14.8 C 18.7 14.8 18.7 14.8 18.7 14.8 Z M 20.7 14 C 20.7 14 20.3 14 20.3 14 C 20.1 14 20 14 19.9 14 C 19.8 14 19.7 14.1 19.7 14.1 C 19.7 14.1 19.7 14.1 19.7 14.2 C 19.7 14.2 19.7 14.3 19.6 14.4 C 19.6 14.5 19.6 14.6 19.6 14.6 C 19.6 14.6 19.7 14.6 19.8 14.6 C 20 14.6 20 14.6 20.1 14.6 C 20.2 14.6 20.3 14.5 20.4 14.5 C 20.6 14.5 20.7 14.6 20.7 14.7 C 20.7 14.7 20.6 14.8 20.6 14.8 C 20.5 14.8 20.5 14.9 20.4 14.9 C 20.3 14.9 20.3 14.9 20.2 14.9 C 20.2 14.9 20.1 14.9 20.1 14.9 C 19.8 14.9 19.6 15 19.6 15 C 19.6 15 19.6 15 19.6 15 C 19.6 15 19.5 15 19.5 15 C 19.5 15 19.5 15.1 19.5 15.2 C 19.5 15.4 19.5 15.5 19.5 15.5 C 19.5 15.5 19.5 15.6 19.5 15.6 C 19.6 15.6 19.7 15.5 19.9 15.5 C 20.1 15.5 20.2 15.5 20.3 15.5 C 20.4 15.4 20.5 15.4 20.5 15.4 C 20.7 15.4 20.7 15.5 20.7 15.6 C 20.7 15.6 20.7 15.7 20.7 15.7 C 20.6 15.7 20.4 15.8 20.3 15.8 C 20.1 15.8 20 15.8 19.8 15.8 C 19.6 15.9 19.5 15.9 19.3 15.9 C 19.2 15.9 19.2 15.9 19.1 15.8 C 19.1 15.8 19.1 15.7 19.1 15.7 C 19.1 15.7 19.1 15.6 19.1 15.6 C 19.1 15.6 19.1 15.6 19.1 15.5 C 19.1 15.4 19.2 15.2 19.2 14.7 C 19.3 14.3 19.3 14.1 19.3 14 C 19.3 14 19.3 14 19.3 14 C 19.3 14 19.3 14 19.3 14 C 19.3 13.9 19.3 13.9 19.3 13.9 C 19.3 13.9 19.3 13.9 19.3 13.8 C 19.3 13.8 19.3 13.8 19.3 13.8 C 19.4 13.8 19.4 13.7 19.4 13.7 C 19.5 13.7 19.5 13.8 19.6 13.8 C 19.6 13.8 19.9 13.7 20.4 13.7 C 20.5 13.6 20.6 13.6 20.6 13.6 C 20.6 13.6 20.6 13.6 20.6 13.6 C 20.8 13.6 20.9 13.7 20.9 13.8 C 20.9 13.8 20.9 13.9 20.8 13.9 C 20.8 13.9 20.8 14 20.7 14 Z M 21.3 14 C 21.3 14 21.24 13.98 21.2 14 C 21.2 13.9 21.2 13.9 21.2 13.9 C 21.2 13.8 21.2 13.8 21.3 13.7 C 21.3 13.7 21.4 13.7 21.4 13.7 C 21.4 13.7 21.4 13.7 21.5 13.7 C 21.5 13.7 21.5 13.7 21.5 13.7 C 21.8 13.7 22 13.6 22.1 13.6 C 22.3 13.6 22.5 13.7 22.6 13.8 C 22.8 13.9 22.8 14 22.8 14.2 C 22.8 14.3 22.8 14.5 22.6 14.6 C 22.5 14.7 22.3 14.8 22.1 14.9 C 22.5 15.2 22.7 15.4 22.9 15.5 C 23 15.5 23 15.6 23 15.6 C 23 15.7 23 15.7 23 15.7 C 22.9 15.8 22.9 15.8 22.8 15.8 C 22.8 15.8 22.7 15.8 22.6 15.7 C 22.6 15.7 22.5 15.6 22.3 15.5 C 22.2 15.4 22.1 15.3 22.1 15.3 C 21.9 15.2 21.8 15.1 21.7 15 C 21.6 15 21.5 15 21.5 14.9 C 21.5 14.8 21.6 14.8 21.6 14.7 C 21.7 14.7 21.7 14.7 21.8 14.7 C 21.8 14.7 21.8 14.7 21.8 14.7 C 21.8 14.7 21.9 14.7 21.9 14.7 C 21.9 14.7 22 14.6 22.2 14.5 C 22.4 14.4 22.5 14.3 22.5 14.2 C 22.5 14.1 22.4 14 22.4 14 C 22.3 13.9 22.2 13.9 22.1 13.9 C 22 13.9 21.9 13.9 21.8 13.9 C 21.7 14 21.7 14 21.6 14 C 21.6 14 21.6 14 21.6 14 C 21.6 14 21.6 14.2 21.6 14.3 C 21.5 14.5 21.5 14.7 21.5 14.9 C 21.4 15.1 21.4 15.3 21.4 15.4 C 21.4 15.4 21.4 15.5 21.4 15.5 C 21.4 15.6 21.4 15.6 21.4 15.7 C 21.4 15.7 21.4 15.7 21.4 15.8 C 21.3 15.8 21.3 15.8 21.3 15.8 C 21.1 15.8 21 15.8 21 15.6 C 21 15.4 21.1 15.2 21.1 14.9 C 21.1 14.7 21.2 14.4 21.2 14.2 C 21.2 14.2 21.2 14.1 21.2 14.1 C 21.24 14.11 21.3 14 21.3 14 Z M 24.9 15.9 C 24.7 15.9 24.6 15.8 24.4 15.6 C 24.3 15.5 24.3 15.3 24.3 15.1 C 24.3 14.9 24.3 14.7 24.4 14.5 C 24.6 14.2 24.7 14 24.9 13.9 C 25.1 13.7 25.3 13.6 25.5 13.6 C 25.7 13.6 25.8 13.7 25.9 13.7 C 26 13.7 26.1 13.8 26.2 13.9 C 26.3 13.9 26.4 14 26.4 14.1 C 26.4 14.2 26.4 14.3 26.4 14.4 C 26.4 14.6 26.4 14.7 26.3 14.9 C 26.2 15.1 26.1 15.2 26 15.4 C 25.8 15.5 25.7 15.7 25.5 15.7 C 25.4 15.8 25.1 15.9 24.9 15.9 Z M 24.6 15.1 C 24.6 15.3 24.7 15.4 24.7 15.4 C 24.8 15.5 24.9 15.6 25 15.6 C 25.2 15.6 25.5 15.4 25.7 15.2 C 25.9 14.9 26.1 14.7 26.1 14.4 C 26.1 14.3 26 14.2 26 14.1 C 26 14.1 25.9 14 25.8 14 C 25.7 13.9 25.6 13.9 25.5 13.9 C 25.3 13.9 25.1 14.1 24.9 14.3 C 24.7 14.6 24.6 14.9 24.6 15.1 Z M 29.2 14.6 C 29.4 14.6 29.5 14.7 29.6 14.8 C 29.6 14.9 29.6 15 29.6 15.1 C 29.6 15.3 29.5 15.5 29.3 15.7 C 29 15.9 28.8 16 28.5 16 C 28.4 16 28.3 15.9 28.3 15.8 C 28.3 15.7 28.4 15.6 28.6 15.6 C 28.6 15.6 28.7 15.6 28.7 15.6 C 28.8 15.6 28.9 15.5 29 15.4 C 29.2 15.3 29.3 15.2 29.3 15.1 C 29.3 15 29.2 15 29.2 14.9 C 29.1 14.9 29 14.8 28.9 14.8 C 28.9 14.8 28.9 14.8 28.8 14.9 C 28.8 14.9 28.7 14.9 28.7 14.9 C 28.6 14.9 28.5 14.9 28.5 14.9 C 28.5 14.9 28.4 14.8 28.4 14.7 C 28.4 14.7 28.5 14.6 28.7 14.6 C 28.9 14.5 29 14.4 29.1 14.3 C 29.2 14.2 29.3 14.1 29.3 14 C 29.3 14 29.2 13.9 29 13.9 C 28.9 13.9 28.8 13.9 28.7 13.9 C 28.5 14 28.5 14 28.4 14.1 C 28.4 14.1 28.4 14.3 28.3 14.7 C 28.3 15.1 28.2 15.4 28.2 15.4 C 28.2 15.4 28.2 15.6 28.2 15.6 C 28.2 15.7 28.2 15.8 28.2 15.8 C 28.1 15.8 28.1 15.9 28 15.9 C 27.9 15.9 27.8 15.8 27.8 15.6 C 27.8 15.6 27.8 15.5 27.9 15.5 C 27.9 15.3 27.9 15 28 14.7 C 28 14.4 28.1 14.2 28.1 14.2 C 28.1 14.2 28 14.1 28 14.1 C 28 14.1 28 14.1 28 14.1 C 28 14.1 27.9 14.1 27.9 14.1 C 27.9 14.1 27.9 14.1 27.9 14.1 C 27.9 14 27.8 14 27.8 14 C 27.8 13.9 28 13.8 28.3 13.7 C 28.5 13.6 28.8 13.6 29.1 13.6 C 29.3 13.6 29.4 13.6 29.5 13.7 C 29.6 13.8 29.6 13.9 29.6 14 C 29.6 14.1 29.6 14.2 29.6 14.3 C 29.5 14.3 29.4 14.5 29.2 14.6 Z M 30.1 14 C 30.1 14 30.12 13.98 30.1 14 C 30.1 13.9 30.1 13.9 30.1 13.9 C 30.1 13.8 30.1 13.8 30.1 13.7 C 30.2 13.7 30.2 13.7 30.3 13.7 C 30.3 13.7 30.3 13.7 30.3 13.7 C 30.4 13.7 30.4 13.7 30.4 13.7 C 30.7 13.7 30.9 13.6 31 13.6 C 31.2 13.6 31.4 13.7 31.5 13.8 C 31.6 13.9 31.7 14 31.7 14.2 C 31.7 14.3 31.6 14.5 31.5 14.6 C 31.4 14.7 31.2 14.8 31 14.9 C 31.4 15.2 31.6 15.4 31.8 15.5 C 31.9 15.5 31.9 15.6 31.9 15.6 C 31.9 15.7 31.9 15.7 31.8 15.7 C 31.8 15.8 31.8 15.8 31.7 15.8 C 31.7 15.8 31.6 15.8 31.5 15.7 C 31.4 15.7 31.3 15.6 31.2 15.5 C 31.1 15.4 31 15.3 31 15.3 C 30.8 15.2 30.7 15.1 30.6 15 C 30.5 15 30.4 15 30.4 14.9 C 30.4 14.8 30.5 14.8 30.5 14.7 C 30.5 14.7 30.6 14.7 30.7 14.7 C 30.7 14.7 30.7 14.7 30.7 14.7 C 30.7 14.7 30.7 14.7 30.7 14.7 C 30.8 14.7 30.9 14.6 31.1 14.5 C 31.3 14.4 31.3 14.3 31.3 14.2 C 31.3 14.1 31.3 14 31.2 14 C 31.2 13.9 31.1 13.9 31 13.9 C 30.8 13.9 30.7 13.9 30.7 13.9 C 30.6 14 30.5 14 30.5 14 C 30.5 14 30.5 14 30.5 14 C 30.5 14 30.5 14.2 30.4 14.3 C 30.4 14.5 30.4 14.7 30.3 14.9 C 30.3 15.1 30.3 15.3 30.3 15.4 C 30.3 15.4 30.3 15.5 30.3 15.5 C 30.3 15.6 30.3 15.6 30.3 15.7 C 30.3 15.7 30.3 15.7 30.3 15.8 C 30.2 15.8 30.2 15.8 30.1 15.8 C 30 15.8 29.9 15.8 29.9 15.6 C 29.9 15.4 29.9 15.2 30 14.9 C 30 14.7 30.1 14.4 30.1 14.2 C 30.1 14.2 30.1 14.1 30.1 14.1 C 30.12 14.11 30.1 14 30.1 14 Z M 32.5 15.3 C 32.5 15.3 32.5 15.3 32.4 15.3 C 32.4 15.3 32.4 15.4 32.3 15.6 C 32.2 15.7 32.1 15.8 32.1 15.8 C 32.1 15.8 32.1 15.8 32 15.8 C 32 15.8 31.9 15.8 31.9 15.8 C 31.9 15.7 31.8 15.7 31.8 15.7 C 31.8 15.6 31.9 15.4 32.2 15 C 32.3 14.8 32.4 14.6 32.6 14.4 C 32.8 14 32.9 13.8 33 13.7 C 33 13.7 33.1 13.6 33.1 13.6 C 33.2 13.6 33.3 13.6 33.3 13.7 C 33.3 13.7 33.3 13.7 33.3 13.8 C 33.3 13.8 33.3 13.9 33.3 13.9 C 33.5 14.4 33.6 14.8 33.7 15 C 33.8 15.3 33.9 15.4 34 15.5 C 34.1 15.6 34.1 15.6 34.1 15.6 C 34.1 15.6 34.1 15.7 34.1 15.7 C 34.1 15.8 34.1 15.8 34.1 15.8 C 34.1 15.9 34 15.9 34 15.9 C 33.9 15.9 33.8 15.9 33.7 15.8 C 33.6 15.7 33.6 15.6 33.5 15.4 C 33.4 15.3 33.4 15.2 33.4 15.2 C 33.4 15.2 33.4 15.2 33.4 15.2 C 33.3 15.2 33.2 15.2 33 15.2 C 32.9 15.2 32.7 15.3 32.6 15.3 C 32.6 15.3 32.6 15.3 32.5 15.3 C 32.5 15.3 32.5 15.3 32.5 15.3 Z M 33.2 14.9 C 33.2 14.9 33.2 14.9 33.3 14.9 C 33.3 14.8 33.2 14.6 33.1 14.2 C 33.1 14.2 33.1 14.2 33.1 14.2 C 33.1 14.2 32.6 15 32.6 15 C 32.7 15 32.8 14.9 32.8 14.9 C 32.9 14.9 33 14.9 33.2 14.9 C 33.2 14.9 33.2 14.9 33.2 14.9 Z M 36 13.9 C 36 14.1 35.9 14.2 35.7 14.2 C 35.7 14.1 35.6 14 35.6 14 C 35.5 14 35.5 13.9 35.4 13.9 C 35.2 13.9 35.1 14 34.9 14.1 C 34.8 14.1 34.7 14.2 34.7 14.3 C 34.7 14.4 34.7 14.4 34.8 14.5 C 34.8 14.5 35 14.6 35.2 14.6 C 35.4 14.7 35.6 14.8 35.7 14.9 C 35.8 15 35.9 15 35.9 15.2 C 35.9 15.3 35.7 15.5 35.5 15.7 C 35.2 15.8 34.9 15.9 34.6 15.9 C 34.5 15.9 34.4 15.9 34.3 15.9 C 34.3 15.8 34.2 15.8 34.2 15.7 C 34.2 15.6 34.2 15.6 34.3 15.6 C 34.3 15.5 34.3 15.5 34.4 15.5 C 34.4 15.5 34.4 15.5 34.4 15.5 C 34.5 15.6 34.6 15.6 34.7 15.6 C 34.9 15.6 35 15.5 35.2 15.4 C 35.4 15.4 35.5 15.3 35.5 15.2 C 35.5 15.2 35.5 15.1 35.4 15.1 C 35.4 15.1 35.3 15 35.2 15 C 34.9 14.9 34.8 14.8 34.7 14.8 C 34.6 14.8 34.5 14.7 34.4 14.6 C 34.4 14.6 34.4 14.5 34.4 14.4 C 34.4 14.2 34.5 14 34.7 13.9 C 34.9 13.7 35.1 13.6 35.4 13.6 C 35.6 13.6 35.7 13.7 35.8 13.7 C 35.9 13.8 36 13.9 36 13.9 C 36 13.9 36 13.9 36 13.9 Z M 36.7 14.3 C 36.7 14.4 36.7 14.5 36.7 14.5 C 36.7 14.6 36.6 14.6 36.6 14.8 C 36.6 15 36.6 15.1 36.6 15.2 C 36.6 15.3 36.6 15.4 36.6 15.6 C 36.6 15.7 36.6 15.7 36.5 15.8 C 36.5 15.8 36.4 15.8 36.4 15.8 C 36.3 15.8 36.3 15.8 36.2 15.7 C 36.2 15.7 36.2 15.6 36.2 15.4 C 36.2 15.3 36.2 15.1 36.3 14.8 C 36.3 14.8 36.4 14.2 36.4 14.2 C 36.4 14.1 36.4 14 36.4 14 C 36.4 13.8 36.4 13.8 36.4 13.8 C 36.5 13.7 36.5 13.7 36.5 13.7 C 36.6 13.7 36.6 13.6 36.6 13.6 C 36.7 13.6 36.7 13.7 36.8 13.7 C 36.8 13.8 36.8 13.8 36.8 13.9 C 36.8 13.9 36.7 14.3 36.7 14.3 Z M 38.5 15.7 C 38.5 15.7 38.4 15.7 38.4 15.7 C 38.3 15.7 38.3 15.7 38.2 15.7 C 38 15.7 37.7 15.7 37.5 15.8 C 37.3 15.8 37.3 15.9 37.2 15.9 C 37.2 15.9 37.1 15.8 37.1 15.8 C 37.1 15.7 37 15.7 37 15.7 C 37 15.6 37 15.6 37.1 15.5 C 37.1 15.4 37.1 15.3 37.1 15.2 C 37.1 15.2 37.3 14 37.3 14 C 37.3 13.9 37.3 13.8 37.3 13.8 C 37.3 13.7 37.3 13.7 37.3 13.7 C 37.4 13.7 37.4 13.6 37.5 13.6 C 37.5 13.6 37.6 13.7 37.6 13.7 C 37.6 13.7 37.7 13.8 37.7 13.8 C 37.7 13.8 37.7 13.9 37.6 14 C 37.6 14.1 37.6 14.4 37.5 14.8 C 37.5 15.2 37.5 15.4 37.5 15.4 C 37.5 15.4 37.5 15.5 37.5 15.5 C 37.5 15.5 37.6 15.4 37.8 15.4 C 37.9 15.4 37.9 15.4 38 15.4 C 38.2 15.4 38.4 15.4 38.5 15.3 C 38.5 15.3 38.5 15.3 38.6 15.3 C 38.6 15.3 38.7 15.3 38.7 15.4 C 38.7 15.4 38.7 15.4 38.7 15.5 C 38.7 15.6 38.7 15.6 38.7 15.6 C 38.6 15.7 38.5 15.7 38.5 15.7 Z M 41.7 14 C 41.7 14 41.2 14 41.2 14 C 41.1 14 40.9 14 40.8 14 C 40.7 14 40.7 14.1 40.6 14.1 C 40.6 14.1 40.6 14.1 40.6 14.2 C 40.6 14.2 40.6 14.3 40.6 14.4 C 40.6 14.5 40.5 14.6 40.5 14.6 C 40.6 14.6 40.7 14.6 40.8 14.6 C 40.9 14.6 41 14.6 41.1 14.6 C 41.2 14.6 41.3 14.5 41.4 14.5 C 41.5 14.5 41.6 14.6 41.6 14.7 C 41.6 14.7 41.6 14.8 41.5 14.8 C 41.5 14.8 41.4 14.9 41.3 14.9 C 41.3 14.9 41.2 14.9 41.2 14.9 C 41.1 14.9 41.1 14.9 41 14.9 C 40.7 14.9 40.6 15 40.5 15 C 40.5 15 40.5 15 40.5 15 C 40.5 15 40.5 15 40.5 15 C 40.5 15 40.5 15.1 40.5 15.2 C 40.4 15.4 40.4 15.5 40.4 15.5 C 40.4 15.5 40.4 15.6 40.5 15.6 C 40.5 15.6 40.7 15.5 40.9 15.5 C 41.1 15.5 41.2 15.5 41.2 15.5 C 41.4 15.4 41.4 15.4 41.5 15.4 C 41.6 15.4 41.7 15.5 41.7 15.6 C 41.7 15.6 41.7 15.7 41.6 15.7 C 41.5 15.7 41.4 15.8 41.2 15.8 C 41.1 15.8 40.9 15.8 40.7 15.8 C 40.6 15.9 40.4 15.9 40.3 15.9 C 40.2 15.9 40.1 15.9 40.1 15.8 C 40.1 15.8 40 15.7 40 15.7 C 40 15.7 40 15.6 40 15.6 C 40 15.6 40 15.6 40 15.5 C 40.1 15.4 40.1 15.2 40.2 14.7 C 40.2 14.3 40.3 14.1 40.3 14 C 40.3 14 40.3 14 40.3 14 C 40.3 14 40.2 14 40.2 14 C 40.2 13.9 40.2 13.9 40.2 13.9 C 40.2 13.9 40.2 13.9 40.2 13.8 C 40.2 13.8 40.2 13.8 40.3 13.8 C 40.3 13.8 40.3 13.7 40.4 13.7 C 40.4 13.7 40.5 13.8 40.5 13.8 C 40.6 13.8 40.9 13.7 41.3 13.7 C 41.5 13.6 41.5 13.6 41.5 13.6 C 41.5 13.6 41.6 13.6 41.6 13.6 C 41.7 13.6 41.8 13.7 41.8 13.8 C 41.8 13.8 41.8 13.9 41.8 13.9 C 41.7 13.9 41.7 14 41.7 14 Z " stroke="none" fill="#000"/>  </g>  <g id="Polygon15018">    <path d="M 6.3 11.3 C 6.3 11.3 6.42 10.8 6.4 10.8 C 6.5 10.4 6.5 10.1 6.6 10 C 6.6 9.9 6.6 9.9 6.6 9.8 C 6.6 9.8 6.6 9.8 6.6 9.8 C 6.7 9.7 6.7 9.7 6.8 9.7 C 6.8 9.7 6.8 9.7 6.9 9.7 C 6.9 9.8 6.9 9.8 7 9.9 C 7 10.1 7.1 10.3 7.3 10.6 C 7.5 10.9 7.6 11.1 7.7 11.3 C 7.8 11.1 7.8 10.9 7.9 10.6 C 7.9 10.4 7.9 10.3 8 10.1 C 8 10 8 9.9 8 9.8 C 8 9.7 8 9.7 8.1 9.6 C 8.1 9.6 8.2 9.6 8.2 9.6 C 8.2 9.6 8.3 9.6 8.3 9.7 C 8.3 9.7 8.4 9.8 8.4 9.8 C 8.4 9.9 8.3 10 8.3 10.1 C 8.3 10.3 8.2 10.6 8.1 10.9 C 8.1 11.3 8 11.5 8 11.5 C 8 11.5 8 11.6 8 11.6 C 8 11.6 8 11.7 8 11.7 C 8 11.7 8 11.8 8 11.8 C 7.9 11.8 7.9 11.8 7.8 11.8 C 7.8 11.8 7.7 11.8 7.7 11.8 C 7.7 11.8 7.7 11.8 7.7 11.7 C 7.6 11.7 7.6 11.7 7.6 11.6 C 7.5 11.5 7.5 11.5 7.5 11.4 C 7.2 11.2 7 10.8 6.8 10.4 C 6.8 10.5 6.7 10.8 6.7 11.3 C 6.7 11.3 6.7 11.4 6.7 11.4 C 6.6 11.4 6.6 11.5 6.6 11.6 C 6.6 11.7 6.6 11.8 6.6 11.8 C 6.5 11.9 6.5 11.9 6.4 11.9 C 6.4 11.9 6.3 11.9 6.3 11.8 C 6.3 11.8 6.3 11.7 6.3 11.6 C 6.3 11.6 6.3 11.4 6.3 11.3 C 6.31 11.3 6.3 11.3 6.3 11.3 Z M 9.2 11.9 C 9 11.9 8.9 11.8 8.8 11.6 C 8.6 11.5 8.6 11.3 8.6 11.1 C 8.6 10.9 8.6 10.7 8.7 10.5 C 8.9 10.2 9 10 9.2 9.9 C 9.4 9.7 9.6 9.6 9.8 9.6 C 10 9.6 10.1 9.7 10.2 9.7 C 10.3 9.7 10.4 9.8 10.5 9.9 C 10.6 9.9 10.7 10 10.7 10.1 C 10.7 10.2 10.7 10.3 10.7 10.4 C 10.7 10.6 10.7 10.7 10.6 10.9 C 10.5 11.1 10.4 11.2 10.3 11.4 C 10.1 11.5 10 11.7 9.8 11.7 C 9.7 11.8 9.5 11.9 9.2 11.9 Z M 8.9 11.1 C 8.9 11.3 9 11.4 9 11.4 C 9.1 11.5 9.2 11.6 9.3 11.6 C 9.5 11.6 9.8 11.4 10 11.2 C 10.3 10.9 10.4 10.7 10.4 10.4 C 10.4 10.3 10.3 10.2 10.3 10.1 C 10.3 10.1 10.2 10 10.1 10 C 10 9.9 9.9 9.9 9.8 9.9 C 9.6 9.9 9.4 10.1 9.2 10.3 C 9 10.6 8.9 10.9 8.9 11.1 Z M 12.6 9.9 C 12.6 10.1 12.5 10.2 12.3 10.2 C 12.3 10.1 12.3 10 12.2 10 C 12.2 10 12.1 9.9 12 9.9 C 11.9 9.9 11.7 10 11.6 10.1 C 11.4 10.1 11.3 10.2 11.3 10.3 C 11.3 10.4 11.4 10.4 11.4 10.5 C 11.5 10.5 11.6 10.6 11.8 10.6 C 12.1 10.7 12.2 10.8 12.4 10.9 C 12.5 11 12.5 11 12.5 11.2 C 12.5 11.3 12.4 11.5 12.1 11.7 C 11.8 11.8 11.5 11.9 11.2 11.9 C 11.1 11.9 11 11.9 11 11.9 C 10.9 11.8 10.9 11.8 10.9 11.7 C 10.9 11.6 10.9 11.6 10.9 11.6 C 10.9 11.5 11 11.5 11 11.5 C 11 11.5 11.1 11.5 11.1 11.5 C 11.2 11.6 11.3 11.6 11.4 11.6 C 11.5 11.6 11.7 11.5 11.9 11.4 C 12.1 11.4 12.2 11.3 12.2 11.2 C 12.2 11.2 12.1 11.1 12.1 11.1 C 12 11.1 11.9 11 11.8 11 C 11.6 10.9 11.4 10.8 11.3 10.8 C 11.2 10.8 11.1 10.7 11.1 10.6 C 11 10.6 11 10.5 11 10.4 C 11 10.2 11.1 10 11.3 9.9 C 11.5 9.7 11.8 9.6 12.1 9.6 C 12.2 9.6 12.4 9.7 12.5 9.7 C 12.5 9.8 12.6 9.9 12.6 9.9 C 12.6 9.9 12.6 9.9 12.6 9.9 Z M 14.4 9.9 C 14.4 10.1 14.4 10.2 14.2 10.2 C 14.2 10.1 14.1 10 14.1 10 C 14 10 14 9.9 13.9 9.9 C 13.7 9.9 13.5 10 13.4 10.1 C 13.3 10.1 13.2 10.2 13.2 10.3 C 13.2 10.4 13.2 10.4 13.3 10.5 C 13.3 10.5 13.5 10.6 13.7 10.6 C 13.9 10.7 14.1 10.8 14.2 10.9 C 14.3 11 14.4 11 14.4 11.2 C 14.4 11.3 14.2 11.5 13.9 11.7 C 13.7 11.8 13.4 11.9 13.1 11.9 C 13 11.9 12.9 11.9 12.8 11.9 C 12.7 11.8 12.7 11.8 12.7 11.7 C 12.7 11.6 12.7 11.6 12.8 11.6 C 12.8 11.5 12.8 11.5 12.9 11.5 C 12.9 11.5 12.9 11.5 12.9 11.5 C 13 11.6 13.1 11.6 13.2 11.6 C 13.4 11.6 13.5 11.5 13.7 11.4 C 13.9 11.4 14 11.3 14 11.2 C 14 11.2 14 11.1 13.9 11.1 C 13.9 11.1 13.8 11 13.6 11 C 13.4 10.9 13.3 10.8 13.2 10.8 C 13.1 10.8 13 10.7 12.9 10.6 C 12.9 10.6 12.8 10.5 12.8 10.4 C 12.8 10.2 12.9 10 13.2 9.9 C 13.4 9.7 13.6 9.6 13.9 9.6 C 14.1 9.6 14.2 9.7 14.3 9.7 C 14.4 9.8 14.4 9.9 14.4 9.9 C 14.4 9.9 14.4 9.9 14.4 9.9 Z M 15.1 11.3 C 15.1 11.3 15.1 11.3 15.1 11.3 C 15 11.3 15 11.4 14.9 11.6 C 14.8 11.7 14.8 11.8 14.7 11.8 C 14.7 11.8 14.7 11.8 14.6 11.8 C 14.6 11.8 14.6 11.8 14.5 11.8 C 14.5 11.7 14.4 11.7 14.4 11.7 C 14.4 11.6 14.6 11.4 14.8 11 C 14.9 10.8 15.1 10.6 15.2 10.4 C 15.4 10 15.5 9.8 15.6 9.7 C 15.6 9.7 15.7 9.6 15.7 9.6 C 15.8 9.6 15.9 9.6 15.9 9.7 C 15.9 9.7 15.9 9.7 15.9 9.8 C 15.9 9.8 15.9 9.9 15.9 9.9 C 16.1 10.4 16.2 10.8 16.3 11 C 16.4 11.3 16.5 11.4 16.6 11.5 C 16.7 11.6 16.7 11.6 16.7 11.6 C 16.8 11.6 16.8 11.7 16.8 11.7 C 16.8 11.8 16.7 11.8 16.7 11.8 C 16.7 11.9 16.6 11.9 16.6 11.9 C 16.5 11.9 16.4 11.9 16.3 11.8 C 16.3 11.7 16.2 11.6 16.1 11.4 C 16 11.3 16 11.2 16 11.2 C 16 11.2 16 11.2 16 11.2 C 16 11.2 15.8 11.2 15.7 11.2 C 15.5 11.2 15.3 11.3 15.2 11.3 C 15.2 11.3 15.2 11.3 15.1 11.3 C 15.1 11.3 15.1 11.3 15.1 11.3 Z M 15.8 10.9 C 15.8 10.9 15.9 10.9 15.9 10.9 C 15.9 10.8 15.8 10.6 15.7 10.2 C 15.7 10.2 15.7 10.2 15.7 10.2 C 15.7 10.2 15.3 11 15.3 11 C 15.3 11 15.4 10.9 15.4 10.9 C 15.5 10.9 15.6 10.9 15.8 10.9 C 15.8 10.9 15.8 10.9 15.8 10.9 Z M 18.6 11.9 C 18.5 11.9 18.3 11.8 18.2 11.6 C 18.1 11.5 18 11.3 18 11.1 C 18 10.9 18.1 10.7 18.2 10.5 C 18.3 10.2 18.5 10 18.7 9.9 C 18.9 9.7 19.1 9.6 19.3 9.6 C 19.4 9.6 19.6 9.7 19.7 9.7 C 19.8 9.7 19.9 9.8 20 9.9 C 20.1 9.9 20.1 10 20.2 10.1 C 20.2 10.2 20.2 10.3 20.2 10.4 C 20.2 10.6 20.2 10.7 20.1 10.9 C 20 11.1 19.9 11.2 19.7 11.4 C 19.6 11.5 19.4 11.7 19.3 11.7 C 19.1 11.8 18.9 11.9 18.6 11.9 Z M 18.4 11.1 C 18.4 11.3 18.4 11.4 18.5 11.4 C 18.6 11.5 18.6 11.6 18.7 11.6 C 19 11.6 19.2 11.4 19.5 11.2 C 19.7 10.9 19.8 10.7 19.8 10.4 C 19.8 10.3 19.8 10.2 19.8 10.1 C 19.7 10.1 19.7 10 19.6 10 C 19.5 9.9 19.4 9.9 19.3 9.9 C 19.1 9.9 18.9 10.1 18.7 10.3 C 18.5 10.6 18.4 10.9 18.4 11.1 Z M 21.8 10.6 C 22 10.6 22.1 10.7 22.2 10.8 C 22.2 10.9 22.3 11 22.3 11.1 C 22.3 11.3 22.1 11.5 21.9 11.7 C 21.7 11.9 21.4 12 21.1 12 C 21 12 20.9 11.9 20.9 11.8 C 20.9 11.7 21 11.6 21.2 11.6 C 21.2 11.6 21.3 11.6 21.3 11.6 C 21.4 11.6 21.5 11.5 21.7 11.4 C 21.8 11.3 21.9 11.2 21.9 11.1 C 21.9 11 21.9 11 21.8 10.9 C 21.7 10.9 21.7 10.8 21.6 10.8 C 21.5 10.8 21.5 10.8 21.4 10.9 C 21.4 10.9 21.3 10.9 21.3 10.9 C 21.2 10.9 21.1 10.9 21.1 10.9 C 21.1 10.9 21.1 10.8 21.1 10.7 C 21.1 10.7 21.2 10.6 21.4 10.6 C 21.5 10.5 21.6 10.4 21.7 10.3 C 21.8 10.2 21.9 10.1 21.9 10 C 21.9 10 21.8 9.9 21.7 9.9 C 21.5 9.9 21.4 9.9 21.3 9.9 C 21.1 10 21.1 10 21.1 10.1 C 21 10.1 21 10.3 21 10.7 C 20.9 11.1 20.9 11.4 20.9 11.4 C 20.9 11.4 20.9 11.6 20.9 11.6 C 20.8 11.7 20.8 11.8 20.8 11.8 C 20.7 11.8 20.7 11.9 20.7 11.9 C 20.5 11.9 20.5 11.8 20.5 11.6 C 20.5 11.6 20.5 11.5 20.5 11.5 C 20.5 11.3 20.6 11 20.6 10.7 C 20.6 10.4 20.7 10.2 20.7 10.2 C 20.7 10.2 20.7 10.1 20.6 10.1 C 20.6 10.1 20.6 10.1 20.6 10.1 C 20.6 10.1 20.5 10.1 20.5 10.1 C 20.5 10.1 20.5 10.1 20.5 10.1 C 20.5 10 20.5 10 20.5 10 C 20.5 9.9 20.6 9.8 20.9 9.7 C 21.1 9.6 21.4 9.6 21.7 9.6 C 21.9 9.6 22 9.6 22.1 9.7 C 22.2 9.8 22.3 9.9 22.3 10 C 22.3 10.1 22.2 10.2 22.2 10.3 C 22.1 10.3 22 10.5 21.8 10.6 Z M 22.8 10 C 22.8 10 22.74 9.98 22.7 10 C 22.7 9.9 22.7 9.9 22.7 9.9 C 22.7 9.8 22.7 9.8 22.8 9.7 C 22.8 9.7 22.9 9.7 22.9 9.7 C 22.9 9.7 22.9 9.7 23 9.7 C 23 9.7 23 9.7 23 9.7 C 23.3 9.7 23.5 9.6 23.6 9.6 C 23.8 9.6 24 9.7 24.1 9.8 C 24.3 9.9 24.3 10 24.3 10.2 C 24.3 10.3 24.3 10.5 24.1 10.6 C 24 10.7 23.8 10.8 23.6 10.9 C 24 11.2 24.2 11.4 24.4 11.5 C 24.5 11.5 24.5 11.6 24.5 11.6 C 24.5 11.7 24.5 11.7 24.5 11.7 C 24.4 11.8 24.4 11.8 24.3 11.8 C 24.3 11.8 24.2 11.8 24.1 11.7 C 24.1 11.7 24 11.6 23.8 11.5 C 23.7 11.4 23.6 11.3 23.6 11.3 C 23.4 11.2 23.3 11.1 23.2 11 C 23.1 11 23 11 23 10.9 C 23 10.8 23.1 10.8 23.1 10.7 C 23.2 10.7 23.2 10.7 23.3 10.7 C 23.3 10.7 23.3 10.7 23.3 10.7 C 23.3 10.7 23.4 10.7 23.4 10.7 C 23.4 10.7 23.5 10.6 23.7 10.5 C 23.9 10.4 24 10.3 24 10.2 C 24 10.1 23.9 10 23.9 10 C 23.8 9.9 23.7 9.9 23.6 9.9 C 23.5 9.9 23.4 9.9 23.3 9.9 C 23.2 10 23.2 10 23.1 10 C 23.1 10 23.1 10 23.1 10 C 23.1 10 23.1 10.2 23.1 10.3 C 23 10.5 23 10.7 23 10.9 C 22.9 11.1 22.9 11.3 22.9 11.4 C 22.9 11.4 22.9 11.5 22.9 11.5 C 22.9 11.6 23 11.6 23 11.7 C 23 11.7 22.9 11.7 22.9 11.8 C 22.8 11.8 22.8 11.8 22.8 11.8 C 22.6 11.8 22.5 11.8 22.5 11.6 C 22.5 11.4 22.6 11.2 22.6 10.9 C 22.6 10.7 22.7 10.4 22.7 10.2 C 22.7 10.2 22.7 10.1 22.7 10.1 C 22.74 10.11 22.8 10 22.8 10 Z M 25.2 10.3 C 25.2 10.4 25.2 10.5 25.2 10.5 C 25.2 10.6 25.1 10.6 25.1 10.8 C 25.1 11 25.1 11.1 25.1 11.2 C 25.1 11.3 25.1 11.4 25.1 11.6 C 25.1 11.7 25.1 11.7 25 11.8 C 25 11.8 24.9 11.8 24.9 11.8 C 24.8 11.8 24.8 11.8 24.8 11.7 C 24.7 11.7 24.7 11.6 24.7 11.4 C 24.7 11.3 24.7 11.1 24.8 10.8 C 24.8 10.8 24.9 10.2 24.9 10.2 C 24.9 10.1 24.9 10 24.9 10 C 24.9 9.8 24.9 9.8 24.9 9.8 C 25 9.7 25 9.7 25 9.7 C 25.1 9.7 25.1 9.6 25.1 9.6 C 25.2 9.6 25.2 9.7 25.3 9.7 C 25.3 9.8 25.3 9.8 25.3 9.9 C 25.3 9.9 25.2 10.3 25.2 10.3 Z M 27.4 10.8 C 27.4 10.9 27.4 11 27.4 11.1 C 27.4 11.1 27.4 11.1 27.4 11.1 C 27.3 11.1 27.3 11.2 27.3 11.4 C 27.3 11.5 27.3 11.6 27.3 11.7 C 27.3 11.8 27.3 11.9 27.3 11.9 C 27.3 11.9 27.2 12 27.2 12 C 27.2 12 27.2 12.1 27.2 12.1 C 27.1 12.1 27.1 12.1 27.1 12.1 C 27 12.1 27 12.1 26.9 12 C 26.9 12 26.9 12 26.9 11.9 C 26.9 11.9 26.9 11.8 26.9 11.7 C 26.9 11.6 26.9 11.5 27 11.4 C 26.6 11.6 26.3 11.8 26.1 11.8 C 25.9 11.8 25.8 11.7 25.7 11.6 C 25.6 11.5 25.5 11.4 25.5 11.2 C 25.5 10.9 25.6 10.6 25.8 10.4 C 25.8 10.4 25.8 10.4 25.8 10.4 C 25.9 10.1 26.2 9.9 26.4 9.8 C 26.6 9.6 26.9 9.5 27.1 9.5 C 27.3 9.5 27.4 9.6 27.4 9.6 C 27.5 9.6 27.5 9.7 27.5 9.8 C 27.5 9.8 27.5 9.9 27.5 10 C 27.4 10 27.4 10.1 27.3 10.1 C 27.3 10.1 27.3 10.1 27.2 10.1 C 27.2 10 27.2 10 27.2 10 C 27.2 9.9 27.1 9.9 27.1 9.9 C 27.1 9.9 27.1 9.9 27 9.9 C 26.9 9.9 26.7 9.9 26.5 10.1 C 26.3 10.2 26.2 10.4 26 10.6 C 25.9 10.8 25.9 11 25.9 11.2 C 25.9 11.4 26 11.5 26.1 11.5 C 26.2 11.5 26.3 11.4 26.4 11.4 C 26.5 11.4 26.7 11.3 26.8 11.2 C 26.9 11.1 27 11 27 10.9 C 27.1 10.9 27.1 10.8 27.1 10.7 C 27.1 10.6 27.1 10.6 27.2 10.6 C 27.2 10.6 27.2 10.5 27.3 10.5 C 27.4 10.5 27.5 10.6 27.5 10.7 C 27.5 10.7 27.5 10.8 27.4 10.8 C 27.4 10.8 27.4 10.8 27.4 10.8 Z M 28.3 11.3 C 28.3 11.3 28.2 11.3 28.2 11.3 C 28.2 11.3 28.1 11.4 28.1 11.6 C 28 11.7 27.9 11.8 27.9 11.8 C 27.8 11.8 27.8 11.8 27.8 11.8 C 27.8 11.8 27.7 11.8 27.7 11.8 C 27.6 11.7 27.6 11.7 27.6 11.7 C 27.6 11.6 27.7 11.4 28 11 C 28.1 10.8 28.2 10.6 28.3 10.4 C 28.5 10 28.7 9.8 28.7 9.7 C 28.8 9.7 28.8 9.6 28.9 9.6 C 29 9.6 29 9.6 29.1 9.7 C 29.1 9.7 29.1 9.7 29.1 9.8 C 29.1 9.8 29.1 9.9 29.1 9.9 C 29.3 10.4 29.4 10.8 29.5 11 C 29.6 11.3 29.7 11.4 29.8 11.5 C 29.9 11.6 29.9 11.6 29.9 11.6 C 29.9 11.6 29.9 11.7 29.9 11.7 C 29.9 11.8 29.9 11.8 29.9 11.8 C 29.8 11.9 29.8 11.9 29.7 11.9 C 29.6 11.9 29.6 11.9 29.5 11.8 C 29.4 11.7 29.3 11.6 29.3 11.4 C 29.2 11.3 29.2 11.2 29.2 11.2 C 29.2 11.2 29.2 11.2 29.2 11.2 C 29.1 11.2 29 11.2 28.8 11.2 C 28.6 11.2 28.5 11.3 28.4 11.3 C 28.3 11.3 28.3 11.3 28.3 11.3 C 28.3 11.3 28.3 11.3 28.3 11.3 Z M 28.9 10.9 C 29 10.9 29 10.9 29.1 10.9 C 29 10.8 29 10.6 28.8 10.2 C 28.8 10.2 28.8 10.2 28.8 10.2 C 28.8 10.2 28.4 11 28.4 11 C 28.5 11 28.5 10.9 28.6 10.9 C 28.6 10.9 28.7 10.9 28.9 10.9 C 28.9 10.9 28.9 10.9 28.9 10.9 Z M 30.6 11.9 C 30.6 11.9 30.6 11.9 30.6 11.9 C 30.6 12 30.6 12 30.6 12 C 30.6 12 30.7 12 30.7 12 C 30.8 12 30.8 12 30.9 12.1 C 30.9 12.1 30.9 12.2 30.9 12.3 C 30.9 12.4 30.9 12.5 30.8 12.5 C 30.7 12.6 30.6 12.7 30.4 12.7 C 30.4 12.7 30.3 12.7 30.2 12.6 C 30.2 12.6 30.2 12.6 30.1 12.6 C 30.1 12.6 30 12.5 30 12.5 C 30 12.4 30.1 12.4 30.1 12.4 C 30.1 12.3 30.1 12.3 30.2 12.3 C 30.2 12.3 30.3 12.4 30.4 12.4 C 30.4 12.4 30.4 12.4 30.4 12.4 C 30.4 12.4 30.4 12.4 30.4 12.4 C 30.5 12.4 30.5 12.4 30.6 12.4 C 30.6 12.4 30.6 12.3 30.6 12.3 C 30.6 12.3 30.6 12.2 30.6 12.2 C 30.6 12.2 30.5 12.2 30.5 12.2 C 30.5 12.2 30.4 12.2 30.4 12.2 C 30.3 12.2 30.2 12.2 30.2 12.1 C 30.3 12 30.3 12 30.3 11.9 C 30.3 11.9 30.4 11.9 30.4 11.8 C 30.1 11.7 30 11.5 30 11.2 C 30 10.8 30.2 10.5 30.5 10.1 C 30.8 9.7 31.2 9.5 31.5 9.5 C 31.6 9.5 31.7 9.6 31.8 9.6 C 31.9 9.7 31.9 9.8 31.9 9.9 C 31.9 10 31.9 10.1 31.9 10.2 C 31.9 10.2 31.8 10.3 31.8 10.3 C 31.7 10.3 31.7 10.3 31.6 10.3 C 31.6 10.3 31.6 10.3 31.5 10.3 C 31.5 10.3 31.5 10.2 31.5 10.2 C 31.5 10.2 31.5 10.1 31.5 10.1 C 31.5 10 31.6 10 31.6 9.9 C 31.6 9.8 31.5 9.8 31.5 9.8 C 31.4 9.8 31.2 9.9 31 10 C 30.8 10.2 30.7 10.4 30.6 10.6 C 30.4 10.8 30.4 11 30.4 11.2 C 30.4 11.3 30.4 11.4 30.5 11.5 C 30.5 11.6 30.6 11.6 30.8 11.6 C 30.8 11.6 30.9 11.6 31 11.5 C 31.2 11.5 31.3 11.4 31.4 11.4 C 31.5 11.3 31.5 11.3 31.6 11.3 C 31.6 11.3 31.7 11.3 31.7 11.4 C 31.7 11.5 31.5 11.6 31.3 11.7 C 31.1 11.9 30.8 11.9 30.6 11.9 Z M 32.5 11.3 C 32.5 11.3 32.5 11.3 32.4 11.3 C 32.4 11.3 32.4 11.4 32.3 11.6 C 32.2 11.7 32.1 11.8 32.1 11.8 C 32.1 11.8 32.1 11.8 32 11.8 C 32 11.8 32 11.8 31.9 11.8 C 31.9 11.7 31.8 11.7 31.8 11.7 C 31.8 11.6 32 11.4 32.2 11 C 32.3 10.8 32.5 10.6 32.6 10.4 C 32.8 10 32.9 9.8 33 9.7 C 33 9.7 33.1 9.6 33.1 9.6 C 33.2 9.6 33.3 9.6 33.3 9.7 C 33.3 9.7 33.3 9.7 33.3 9.8 C 33.3 9.8 33.3 9.9 33.3 9.9 C 33.5 10.4 33.6 10.8 33.7 11 C 33.8 11.3 33.9 11.4 34 11.5 C 34.1 11.6 34.1 11.6 34.1 11.6 C 34.1 11.6 34.2 11.7 34.2 11.7 C 34.2 11.8 34.1 11.8 34.1 11.8 C 34.1 11.9 34 11.9 34 11.9 C 33.9 11.9 33.8 11.9 33.7 11.8 C 33.7 11.7 33.6 11.6 33.5 11.4 C 33.4 11.3 33.4 11.2 33.4 11.2 C 33.4 11.2 33.4 11.2 33.4 11.2 C 33.3 11.2 33.2 11.2 33 11.2 C 32.9 11.2 32.7 11.3 32.6 11.3 C 32.6 11.3 32.6 11.3 32.5 11.3 C 32.5 11.3 32.5 11.3 32.5 11.3 Z M 33.2 10.9 C 33.2 10.9 33.2 10.9 33.3 10.9 C 33.3 10.8 33.2 10.6 33.1 10.2 C 33.1 10.2 33.1 10.2 33.1 10.2 C 33.1 10.2 32.6 11 32.6 11 C 32.7 11 32.8 10.9 32.8 10.9 C 32.9 10.9 33 10.9 33.2 10.9 C 33.2 10.9 33.2 10.9 33.2 10.9 Z M 33.5 9.3 C 33.4 9.3 33.3 9.3 33.3 9.3 C 33.3 9.3 33.2 9.2 33.2 9.2 C 33.2 9.2 33.2 9.2 33.2 9.2 C 33.1 9.2 33.1 9.2 33.1 9.1 C 33.1 9.1 33 9.1 33 9.1 C 32.9 9.1 32.9 9.1 32.8 9.2 C 32.8 9.2 32.8 9.2 32.8 9.2 C 32.7 9.3 32.7 9.3 32.7 9.3 C 32.7 9.3 32.6 9.4 32.6 9.4 C 32.5 9.4 32.5 9.3 32.5 9.2 C 32.5 9.2 32.5 9.1 32.7 8.9 C 32.8 8.8 32.9 8.8 33 8.8 C 33 8.8 33.1 8.8 33.1 8.8 C 33.2 8.8 33.2 8.9 33.2 8.9 C 33.3 9 33.4 9 33.4 9 C 33.4 9.1 33.5 9.1 33.5 9.1 C 33.5 9.1 33.5 9 33.6 9 C 33.6 8.9 33.6 8.9 33.6 8.9 C 33.6 8.9 33.7 8.9 33.7 8.9 C 33.7 8.8 33.7 8.8 33.8 8.8 C 33.8 8.8 33.9 8.9 33.9 8.9 C 33.9 9 33.8 9.1 33.8 9.2 C 33.7 9.3 33.6 9.3 33.5 9.3 C 33.5 9.3 33.5 9.3 33.5 9.3 Z M 34.9 11.9 C 34.7 11.9 34.6 11.8 34.4 11.6 C 34.3 11.5 34.2 11.3 34.2 11.1 C 34.2 10.9 34.3 10.7 34.4 10.5 C 34.5 10.2 34.7 10 34.9 9.9 C 35.1 9.7 35.3 9.6 35.5 9.6 C 35.7 9.6 35.8 9.7 35.9 9.7 C 36 9.7 36.1 9.8 36.2 9.9 C 36.3 9.9 36.3 10 36.4 10.1 C 36.4 10.2 36.4 10.3 36.4 10.4 C 36.4 10.6 36.4 10.7 36.3 10.9 C 36.2 11.1 36.1 11.2 36 11.4 C 35.8 11.5 35.6 11.7 35.5 11.7 C 35.3 11.8 35.1 11.9 34.9 11.9 Z M 34.6 11.1 C 34.6 11.3 34.6 11.4 34.7 11.4 C 34.8 11.5 34.9 11.6 35 11.6 C 35.2 11.6 35.5 11.4 35.7 11.2 C 35.9 10.9 36 10.7 36 10.4 C 36 10.3 36 10.2 36 10.1 C 36 10.1 35.9 10 35.8 10 C 35.7 9.9 35.6 9.9 35.5 9.9 C 35.3 9.9 35.1 10.1 34.9 10.3 C 34.7 10.6 34.6 10.9 34.6 11.1 Z M 37.9 11.5 C 37.9 11.5 37.9 11.4 37.9 11.3 C 37.9 10.9 37.9 10.6 38 10.2 C 38 10.1 38 10.1 38 10 C 38 10 38 10 38 10 C 37.9 10 37.9 9.9 37.9 9.9 C 37.9 9.8 37.9 9.8 37.9 9.7 C 38 9.7 38 9.7 38.1 9.7 C 38.1 9.7 38.3 9.7 38.3 9.7 C 38.3 9.7 38.5 9.7 38.6 9.7 C 38.8 9.6 38.9 9.6 38.9 9.6 C 39.2 9.6 39.4 9.7 39.6 9.9 C 39.8 10 39.9 10.2 39.9 10.5 C 39.9 10.8 39.7 11 39.5 11.2 C 39.2 11.5 38.9 11.6 38.5 11.7 C 38.4 11.7 38.4 11.7 38.3 11.8 C 38.3 11.8 38.2 11.8 38.2 11.8 C 38.1 11.9 38.1 11.9 38 11.9 C 37.9 11.9 37.9 11.9 37.9 11.8 C 37.8 11.8 37.8 11.7 37.8 11.7 C 37.8 11.7 37.8 11.7 37.8 11.6 C 37.8 11.6 37.9 11.5 37.9 11.5 Z M 38.2 11.4 C 38.2 11.4 38.2 11.4 38.2 11.5 C 38.3 11.5 38.4 11.4 38.7 11.4 C 38.9 11.3 39.1 11.2 39.3 11 C 39.4 10.8 39.5 10.7 39.5 10.5 C 39.5 10.3 39.5 10.2 39.3 10.1 C 39.2 10 39.1 9.9 38.9 9.9 C 38.8 9.9 38.6 9.9 38.4 10 C 38.4 10 38.4 10 38.4 10 C 38.3 10.6 38.2 11.1 38.2 11.4 C 38.2 11.4 38.2 11.4 38.2 11.4 Z M 41.8 10 C 41.8 10 41.3 10 41.3 10 C 41.2 10 41 10 40.9 10 C 40.8 10 40.7 10.1 40.7 10.1 C 40.7 10.1 40.7 10.1 40.7 10.2 C 40.7 10.2 40.7 10.3 40.7 10.4 C 40.6 10.5 40.6 10.6 40.6 10.6 C 40.7 10.6 40.8 10.6 40.9 10.6 C 41 10.6 41.1 10.6 41.1 10.6 C 41.3 10.6 41.4 10.5 41.5 10.5 C 41.6 10.5 41.7 10.6 41.7 10.7 C 41.7 10.7 41.7 10.8 41.6 10.8 C 41.6 10.8 41.5 10.9 41.4 10.9 C 41.4 10.9 41.3 10.9 41.2 10.9 C 41.2 10.9 41.1 10.9 41.1 10.9 C 40.8 10.9 40.7 11 40.6 11 C 40.6 11 40.6 11 40.6 11 C 40.6 11 40.6 11 40.6 11 C 40.6 11 40.6 11.1 40.5 11.2 C 40.5 11.4 40.5 11.5 40.5 11.5 C 40.5 11.5 40.5 11.6 40.6 11.6 C 40.6 11.6 40.7 11.5 40.9 11.5 C 41.1 11.5 41.3 11.5 41.3 11.5 C 41.4 11.4 41.5 11.4 41.6 11.4 C 41.7 11.4 41.8 11.5 41.8 11.6 C 41.8 11.6 41.7 11.7 41.7 11.7 C 41.6 11.7 41.5 11.8 41.3 11.8 C 41.2 11.8 41 11.8 40.8 11.8 C 40.6 11.9 40.5 11.9 40.3 11.9 C 40.3 11.9 40.2 11.9 40.2 11.8 C 40.1 11.8 40.1 11.7 40.1 11.7 C 40.1 11.7 40.1 11.6 40.1 11.6 C 40.1 11.6 40.1 11.6 40.1 11.5 C 40.2 11.4 40.2 11.2 40.3 10.7 C 40.3 10.3 40.4 10.1 40.4 10 C 40.4 10 40.4 10 40.3 10 C 40.3 10 40.3 10 40.3 10 C 40.3 9.9 40.3 9.9 40.3 9.9 C 40.3 9.9 40.3 9.9 40.3 9.8 C 40.3 9.8 40.3 9.8 40.4 9.8 C 40.4 9.8 40.4 9.7 40.5 9.7 C 40.5 9.7 40.6 9.8 40.6 9.8 C 40.7 9.8 40.9 9.7 41.4 9.7 C 41.5 9.6 41.6 9.6 41.6 9.6 C 41.6 9.6 41.6 9.6 41.6 9.6 C 41.8 9.6 41.9 9.7 41.9 9.8 C 41.9 9.8 41.9 9.9 41.9 9.9 C 41.8 9.9 41.8 10 41.8 10 Z " stroke="none" fill="#000"/>  </g>  <g id="Polygon15017">    <path d="M 5 7.3 C 5 7.3 5.15 6.8 5.1 6.8 C 5.2 6.4 5.3 6.1 5.3 6 C 5.3 5.9 5.3 5.9 5.3 5.8 C 5.3 5.8 5.3 5.8 5.4 5.8 C 5.4 5.7 5.4 5.7 5.5 5.7 C 5.5 5.7 5.6 5.7 5.6 5.7 C 5.6 5.8 5.7 5.8 5.7 5.9 C 5.7 6.1 5.8 6.3 6 6.6 C 6.2 6.9 6.3 7.1 6.5 7.3 C 6.5 7.1 6.5 6.9 6.6 6.6 C 6.6 6.4 6.7 6.3 6.7 6.1 C 6.7 6 6.7 5.9 6.7 5.8 C 6.7 5.7 6.7 5.7 6.8 5.6 C 6.8 5.6 6.9 5.6 6.9 5.6 C 7 5.6 7 5.6 7 5.7 C 7.1 5.7 7.1 5.8 7.1 5.8 C 7.1 5.9 7.1 6 7 6.1 C 7 6.3 6.9 6.6 6.9 6.9 C 6.8 7.3 6.8 7.5 6.8 7.5 C 6.8 7.5 6.8 7.6 6.8 7.6 C 6.8 7.6 6.8 7.7 6.8 7.7 C 6.7 7.7 6.7 7.8 6.7 7.8 C 6.6 7.8 6.6 7.8 6.5 7.8 C 6.5 7.8 6.5 7.8 6.5 7.8 C 6.4 7.8 6.4 7.8 6.4 7.7 C 6.4 7.7 6.3 7.7 6.3 7.6 C 6.3 7.5 6.2 7.5 6.2 7.4 C 6 7.2 5.7 6.8 5.5 6.4 C 5.5 6.5 5.5 6.8 5.4 7.3 C 5.4 7.3 5.4 7.4 5.4 7.4 C 5.4 7.4 5.4 7.5 5.4 7.6 C 5.4 7.7 5.3 7.8 5.3 7.8 C 5.2 7.9 5.2 7.9 5.2 7.9 C 5.1 7.9 5 7.9 5 7.8 C 5 7.8 5 7.7 5 7.6 C 5 7.6 5 7.4 5 7.3 C 5.04 7.3 5 7.3 5 7.3 Z M 7.9 7.9 C 7.8 7.9 7.6 7.8 7.5 7.6 C 7.4 7.5 7.3 7.3 7.3 7.1 C 7.3 6.9 7.4 6.7 7.5 6.5 C 7.6 6.2 7.8 6 7.9 5.9 C 8.1 5.7 8.3 5.6 8.6 5.6 C 8.7 5.6 8.8 5.7 9 5.7 C 9.1 5.7 9.2 5.8 9.2 5.9 C 9.3 5.9 9.4 6 9.4 6.1 C 9.5 6.2 9.5 6.3 9.5 6.4 C 9.5 6.6 9.4 6.7 9.4 6.9 C 9.3 7.1 9.2 7.2 9 7.4 C 8.9 7.5 8.7 7.7 8.5 7.7 C 8.4 7.8 8.2 7.9 7.9 7.9 Z M 7.7 7.1 C 7.7 7.3 7.7 7.4 7.8 7.4 C 7.8 7.5 7.9 7.6 8 7.6 C 8.3 7.6 8.5 7.4 8.8 7.2 C 9 6.9 9.1 6.7 9.1 6.4 C 9.1 6.3 9.1 6.2 9 6.1 C 9 6.1 8.9 6 8.8 6 C 8.8 5.9 8.7 5.9 8.6 5.9 C 8.4 5.9 8.2 6.1 8 6.3 C 7.8 6.6 7.7 6.9 7.7 7.1 Z M 11.3 5.9 C 11.3 6.1 11.2 6.2 11 6.2 C 11 6.1 11 6 11 6 C 10.9 6 10.8 5.9 10.7 5.9 C 10.6 5.9 10.4 6 10.3 6.1 C 10.1 6.1 10.1 6.2 10.1 6.3 C 10.1 6.4 10.1 6.4 10.2 6.5 C 10.2 6.5 10.3 6.6 10.6 6.6 C 10.8 6.7 11 6.8 11.1 6.9 C 11.2 7 11.3 7 11.3 7.2 C 11.3 7.3 11.1 7.5 10.8 7.7 C 10.5 7.8 10.2 7.9 9.9 7.9 C 9.8 7.9 9.7 7.9 9.7 7.9 C 9.6 7.8 9.6 7.8 9.6 7.7 C 9.6 7.6 9.6 7.6 9.6 7.6 C 9.7 7.5 9.7 7.5 9.7 7.5 C 9.8 7.5 9.8 7.5 9.8 7.5 C 9.9 7.6 10 7.6 10.1 7.6 C 10.2 7.6 10.4 7.5 10.6 7.4 C 10.8 7.4 10.9 7.3 10.9 7.2 C 10.9 7.2 10.9 7.1 10.8 7.1 C 10.8 7.1 10.7 7 10.5 7 C 10.3 6.9 10.2 6.8 10 6.8 C 9.9 6.8 9.9 6.7 9.8 6.6 C 9.7 6.6 9.7 6.5 9.7 6.4 C 9.7 6.2 9.8 6 10 5.9 C 10.3 5.7 10.5 5.6 10.8 5.6 C 11 5.6 11.1 5.7 11.2 5.7 C 11.3 5.8 11.3 5.9 11.3 5.9 C 11.3 5.9 11.3 5.9 11.3 5.9 Z M 13.2 5.9 C 13.2 6.1 13.1 6.2 12.9 6.2 C 12.9 6.1 12.9 6 12.8 6 C 12.8 6 12.7 5.9 12.6 5.9 C 12.4 5.9 12.3 6 12.1 6.1 C 12 6.1 11.9 6.2 11.9 6.3 C 11.9 6.4 12 6.4 12 6.5 C 12.1 6.5 12.2 6.6 12.4 6.6 C 12.6 6.7 12.8 6.8 12.9 6.9 C 13 7 13.1 7 13.1 7.2 C 13.1 7.3 13 7.5 12.7 7.7 C 12.4 7.8 12.1 7.9 11.8 7.9 C 11.7 7.9 11.6 7.9 11.5 7.9 C 11.5 7.8 11.4 7.8 11.4 7.7 C 11.4 7.6 11.5 7.6 11.5 7.6 C 11.5 7.5 11.5 7.5 11.6 7.5 C 11.6 7.5 11.6 7.5 11.6 7.5 C 11.8 7.6 11.8 7.6 11.9 7.6 C 12.1 7.6 12.3 7.5 12.4 7.4 C 12.6 7.4 12.7 7.3 12.7 7.2 C 12.7 7.2 12.7 7.1 12.7 7.1 C 12.6 7.1 12.5 7 12.4 7 C 12.2 6.9 12 6.8 11.9 6.8 C 11.8 6.8 11.7 6.7 11.7 6.6 C 11.6 6.6 11.6 6.5 11.6 6.4 C 11.6 6.2 11.7 6 11.9 5.9 C 12.1 5.7 12.4 5.6 12.6 5.6 C 12.8 5.6 12.9 5.7 13 5.7 C 13.1 5.8 13.2 5.9 13.2 5.9 C 13.2 5.9 13.2 5.9 13.2 5.9 Z M 14 7.9 C 13.8 7.9 13.7 7.8 13.5 7.6 C 13.4 7.5 13.3 7.3 13.3 7.1 C 13.3 6.9 13.4 6.7 13.5 6.5 C 13.6 6.2 13.8 6 14 5.9 C 14.2 5.7 14.4 5.6 14.6 5.6 C 14.8 5.6 14.9 5.7 15 5.7 C 15.1 5.7 15.2 5.8 15.3 5.9 C 15.4 5.9 15.4 6 15.5 6.1 C 15.5 6.2 15.5 6.3 15.5 6.4 C 15.5 6.6 15.5 6.7 15.4 6.9 C 15.3 7.1 15.2 7.2 15 7.4 C 14.9 7.5 14.7 7.7 14.6 7.7 C 14.4 7.8 14.2 7.9 14 7.9 Z M 13.7 7.1 C 13.7 7.3 13.7 7.4 13.8 7.4 C 13.9 7.5 14 7.6 14.1 7.6 C 14.3 7.6 14.6 7.4 14.8 7.2 C 15 6.9 15.1 6.7 15.1 6.4 C 15.1 6.3 15.1 6.2 15.1 6.1 C 15 6.1 15 6 14.9 6 C 14.8 5.9 14.7 5.9 14.6 5.9 C 14.4 5.9 14.2 6.1 14 6.3 C 13.8 6.6 13.7 6.9 13.7 7.1 Z M 17.4 5.9 C 17.4 6.1 17.3 6.2 17.1 6.2 C 17.1 6.1 17.1 6 17 6 C 17 6 16.9 5.9 16.8 5.9 C 16.6 5.9 16.5 6 16.3 6.1 C 16.2 6.1 16.1 6.2 16.1 6.3 C 16.1 6.4 16.1 6.4 16.2 6.5 C 16.3 6.5 16.4 6.6 16.6 6.6 C 16.8 6.7 17 6.8 17.1 6.9 C 17.2 7 17.3 7 17.3 7.2 C 17.3 7.3 17.2 7.5 16.9 7.7 C 16.6 7.8 16.3 7.9 16 7.9 C 15.9 7.9 15.8 7.9 15.7 7.9 C 15.7 7.8 15.6 7.8 15.6 7.7 C 15.6 7.6 15.7 7.6 15.7 7.6 C 15.7 7.5 15.7 7.5 15.8 7.5 C 15.8 7.5 15.8 7.5 15.8 7.5 C 15.9 7.6 16 7.6 16.1 7.6 C 16.3 7.6 16.5 7.5 16.6 7.4 C 16.8 7.4 16.9 7.3 16.9 7.2 C 16.9 7.2 16.9 7.1 16.9 7.1 C 16.8 7.1 16.7 7 16.6 7 C 16.4 6.9 16.2 6.8 16.1 6.8 C 16 6.8 15.9 6.7 15.8 6.6 C 15.8 6.6 15.8 6.5 15.8 6.4 C 15.8 6.2 15.9 6 16.1 5.9 C 16.3 5.7 16.5 5.6 16.8 5.6 C 17 5.6 17.1 5.7 17.2 5.7 C 17.3 5.8 17.4 5.9 17.4 5.9 C 17.4 5.9 17.4 5.9 17.4 5.9 Z M 18.8 7.5 C 18.8 7.5 18.8 7.4 18.8 7.3 C 18.9 6.9 18.9 6.6 19 6.2 C 19 6.1 19 6.1 19 6 C 19 6 19 6 19 6 C 18.9 6 18.8 5.9 18.8 5.9 C 18.8 5.8 18.8 5.8 18.9 5.7 C 18.9 5.7 19 5.7 19 5.7 C 19 5.7 19.2 5.7 19.2 5.7 C 19.3 5.7 19.4 5.7 19.6 5.7 C 19.7 5.6 19.8 5.6 19.9 5.6 C 20.2 5.6 20.4 5.7 20.6 5.9 C 20.7 6 20.8 6.2 20.8 6.5 C 20.8 6.8 20.7 7 20.4 7.2 C 20.2 7.5 19.8 7.6 19.5 7.7 C 19.4 7.7 19.3 7.7 19.3 7.8 C 19.2 7.8 19.2 7.8 19.1 7.8 C 19.1 7.9 19 7.9 18.9 7.9 C 18.9 7.9 18.8 7.9 18.8 7.8 C 18.8 7.8 18.7 7.7 18.7 7.7 C 18.7 7.7 18.8 7.7 18.8 7.6 C 18.8 7.6 18.8 7.5 18.8 7.5 Z M 19.2 7.4 C 19.2 7.4 19.2 7.4 19.2 7.5 C 19.2 7.5 19.4 7.4 19.6 7.4 C 19.9 7.3 20.1 7.2 20.2 7 C 20.4 6.8 20.5 6.7 20.5 6.5 C 20.5 6.3 20.4 6.2 20.3 6.1 C 20.2 6 20 5.9 19.8 5.9 C 19.7 5.9 19.6 5.9 19.4 6 C 19.4 6 19.4 6 19.3 6 C 19.2 6.6 19.2 7.1 19.2 7.4 C 19.2 7.4 19.2 7.4 19.2 7.4 Z M 21.6 6.3 C 21.5 6.4 21.5 6.5 21.5 6.5 C 21.5 6.6 21.5 6.6 21.5 6.8 C 21.5 7 21.4 7.1 21.4 7.2 C 21.4 7.3 21.5 7.4 21.5 7.6 C 21.5 7.7 21.5 7.7 21.4 7.8 C 21.4 7.8 21.3 7.8 21.3 7.8 C 21.2 7.8 21.2 7.8 21.1 7.7 C 21.1 7.7 21.1 7.6 21.1 7.4 C 21.1 7.3 21.1 7.1 21.1 6.8 C 21.1 6.8 21.2 6.2 21.2 6.2 C 21.2 6.1 21.3 6 21.3 6 C 21.3 5.8 21.3 5.8 21.3 5.8 C 21.3 5.7 21.4 5.7 21.4 5.7 C 21.4 5.7 21.5 5.6 21.5 5.6 C 21.6 5.6 21.6 5.7 21.6 5.7 C 21.7 5.8 21.7 5.8 21.7 5.9 C 21.7 5.9 21.6 6.3 21.6 6.3 Z M 22.1 6 C 22.1 6 22.11 5.98 22.1 6 C 22.1 5.9 22.1 5.9 22.1 5.9 C 22.1 5.8 22.1 5.8 22.1 5.7 C 22.2 5.7 22.2 5.7 22.3 5.7 C 22.3 5.7 22.3 5.7 22.3 5.7 C 22.4 5.7 22.4 5.7 22.4 5.7 C 22.7 5.7 22.9 5.6 23 5.6 C 23.2 5.6 23.4 5.7 23.5 5.8 C 23.6 5.9 23.7 6 23.7 6.2 C 23.7 6.3 23.6 6.5 23.5 6.6 C 23.4 6.7 23.2 6.8 23 6.9 C 23.4 7.2 23.6 7.4 23.8 7.5 C 23.9 7.5 23.9 7.6 23.9 7.6 C 23.9 7.7 23.9 7.7 23.8 7.7 C 23.8 7.8 23.7 7.8 23.7 7.8 C 23.6 7.8 23.6 7.8 23.5 7.7 C 23.4 7.7 23.3 7.6 23.2 7.5 C 23.1 7.4 23 7.3 23 7.3 C 22.8 7.2 22.7 7.1 22.6 7 C 22.5 7 22.4 7 22.4 6.9 C 22.4 6.8 22.4 6.8 22.5 6.7 C 22.5 6.7 22.6 6.7 22.6 6.7 C 22.7 6.7 22.7 6.7 22.7 6.7 C 22.7 6.7 22.7 6.7 22.7 6.7 C 22.8 6.7 22.9 6.6 23.1 6.5 C 23.3 6.4 23.3 6.3 23.3 6.2 C 23.3 6.1 23.3 6 23.2 6 C 23.2 5.9 23.1 5.9 23 5.9 C 22.8 5.9 22.7 5.9 22.7 5.9 C 22.6 6 22.5 6 22.5 6 C 22.5 6 22.5 6 22.5 6 C 22.5 6 22.5 6.2 22.4 6.3 C 22.4 6.5 22.4 6.7 22.3 6.9 C 22.3 7.1 22.3 7.3 22.3 7.4 C 22.3 7.4 22.3 7.5 22.3 7.5 C 22.3 7.6 22.3 7.6 22.3 7.7 C 22.3 7.7 22.3 7.7 22.3 7.8 C 22.2 7.8 22.2 7.8 22.1 7.8 C 22 7.8 21.9 7.8 21.9 7.6 C 21.9 7.4 21.9 7.2 22 6.9 C 22 6.7 22 6.4 22.1 6.2 C 22.1 6.2 22.1 6.1 22.1 6.1 C 22.11 6.11 22.1 6 22.1 6 Z M 25.7 6 C 25.7 6 25.3 6 25.3 6 C 25.1 6 25 6 24.9 6 C 24.8 6 24.7 6.1 24.7 6.1 C 24.7 6.1 24.7 6.1 24.7 6.2 C 24.7 6.2 24.6 6.3 24.6 6.4 C 24.6 6.5 24.6 6.6 24.6 6.6 C 24.6 6.6 24.7 6.6 24.8 6.6 C 24.9 6.6 25 6.6 25.1 6.6 C 25.2 6.6 25.3 6.5 25.4 6.5 C 25.6 6.5 25.6 6.6 25.6 6.7 C 25.6 6.7 25.6 6.8 25.6 6.8 C 25.5 6.8 25.5 6.9 25.4 6.9 C 25.3 6.9 25.3 6.9 25.2 6.9 C 25.1 6.9 25.1 6.9 25 6.9 C 24.8 6.9 24.6 7 24.6 7 C 24.6 7 24.6 7 24.6 7 C 24.5 7 24.5 7 24.5 7 C 24.5 7 24.5 7.1 24.5 7.2 C 24.5 7.4 24.4 7.5 24.4 7.5 C 24.5 7.5 24.5 7.6 24.5 7.6 C 24.6 7.6 24.7 7.5 24.9 7.5 C 25.1 7.5 25.2 7.5 25.3 7.5 C 25.4 7.4 25.5 7.4 25.5 7.4 C 25.6 7.4 25.7 7.5 25.7 7.6 C 25.7 7.6 25.7 7.7 25.7 7.7 C 25.6 7.7 25.4 7.8 25.3 7.8 C 25.1 7.8 25 7.8 24.8 7.8 C 24.6 7.9 24.4 7.9 24.3 7.9 C 24.2 7.9 24.2 7.9 24.1 7.8 C 24.1 7.8 24.1 7.7 24.1 7.7 C 24.1 7.7 24.1 7.6 24.1 7.6 C 24 7.6 24.1 7.6 24.1 7.5 C 24.1 7.4 24.2 7.2 24.2 6.7 C 24.3 6.3 24.3 6.1 24.3 6 C 24.3 6 24.3 6 24.3 6 C 24.3 6 24.3 6 24.3 6 C 24.2 5.9 24.2 5.9 24.2 5.9 C 24.2 5.9 24.2 5.9 24.2 5.8 C 24.2 5.8 24.3 5.8 24.3 5.8 C 24.3 5.8 24.4 5.7 24.4 5.7 C 24.5 5.7 24.5 5.8 24.6 5.8 C 24.6 5.8 24.9 5.7 25.3 5.7 C 25.5 5.6 25.6 5.6 25.6 5.6 C 25.6 5.6 25.6 5.6 25.6 5.6 C 25.8 5.6 25.9 5.7 25.9 5.8 C 25.9 5.8 25.8 5.9 25.8 5.9 C 25.8 5.9 25.7 6 25.7 6 Z M 26.6 6.3 C 26.5 6.4 26.5 6.5 26.5 6.5 C 26.5 6.6 26.5 6.6 26.5 6.8 C 26.5 7 26.4 7.1 26.4 7.2 C 26.4 7.3 26.4 7.4 26.5 7.6 C 26.5 7.7 26.5 7.7 26.4 7.8 C 26.4 7.8 26.3 7.8 26.3 7.8 C 26.2 7.8 26.1 7.8 26.1 7.7 C 26.1 7.7 26.1 7.6 26.1 7.4 C 26.1 7.3 26.1 7.1 26.1 6.8 C 26.1 6.8 26.2 6.2 26.2 6.2 C 26.2 6.1 26.2 6 26.3 6 C 26.3 5.8 26.3 5.8 26.3 5.8 C 26.3 5.7 26.3 5.7 26.4 5.7 C 26.4 5.7 26.5 5.6 26.5 5.6 C 26.5 5.6 26.6 5.7 26.6 5.7 C 26.6 5.8 26.7 5.8 26.7 5.9 C 26.7 5.9 26.6 6.3 26.6 6.3 Z M 28.6 6 C 28.3 6 28.1 6 28 6 C 28 6 28 6.1 28 6.1 C 28 6.1 28 6.3 28 6.6 C 27.9 6.9 27.9 7.1 27.9 7.3 C 27.9 7.4 27.9 7.5 27.9 7.6 C 27.9 7.6 27.9 7.6 27.9 7.6 C 27.9 7.7 27.9 7.7 27.9 7.8 C 27.9 7.8 27.8 7.8 27.8 7.8 C 27.7 7.8 27.7 7.8 27.7 7.8 C 27.6 7.7 27.6 7.7 27.6 7.6 C 27.6 7.5 27.6 7.4 27.6 7.3 C 27.6 7.2 27.6 6.9 27.6 6.6 C 27.6 6.2 27.7 6.1 27.7 6.1 C 27.7 6.1 27.5 6.1 27.4 6.1 C 27.2 6.1 27 6.1 27 6.1 C 26.9 6.1 26.8 6.1 26.8 6.1 C 26.8 6 26.7 6 26.7 6 C 26.7 5.9 26.8 5.9 26.8 5.8 C 26.9 5.8 27 5.8 27.1 5.8 C 27.4 5.8 27.7 5.8 28 5.7 C 28.3 5.7 28.5 5.7 28.6 5.7 C 28.8 5.7 28.9 5.7 29 5.7 C 29 5.8 29 5.8 29 5.9 C 29 6 29 6 28.9 6 C 28.9 6 28.8 6 28.8 6 C 28.7 6 28.6 6 28.6 6 C 28.6 6 28.6 6 28.6 6 Z M 29.4 7.9 C 29.3 7.9 29.1 7.8 29 7.6 C 28.9 7.5 28.8 7.3 28.8 7.1 C 28.8 6.9 28.9 6.7 29 6.5 C 29.1 6.2 29.3 6 29.5 5.9 C 29.7 5.7 29.9 5.6 30.1 5.6 C 30.2 5.6 30.4 5.7 30.5 5.7 C 30.6 5.7 30.7 5.8 30.8 5.9 C 30.9 5.9 30.9 6 31 6.1 C 31 6.2 31 6.3 31 6.4 C 31 6.6 31 6.7 30.9 6.9 C 30.8 7.1 30.7 7.2 30.5 7.4 C 30.4 7.5 30.2 7.7 30.1 7.7 C 29.9 7.8 29.7 7.9 29.4 7.9 Z M 29.2 7.1 C 29.2 7.3 29.2 7.4 29.3 7.4 C 29.4 7.5 29.4 7.6 29.5 7.6 C 29.8 7.6 30 7.4 30.3 7.2 C 30.5 6.9 30.6 6.7 30.6 6.4 C 30.6 6.3 30.6 6.2 30.6 6.1 C 30.5 6.1 30.5 6 30.4 6 C 30.3 5.9 30.2 5.9 30.1 5.9 C 29.9 5.9 29.7 6.1 29.5 6.3 C 29.3 6.6 29.2 6.9 29.2 7.1 Z M 32.8 5.9 C 32.8 6.1 32.8 6.2 32.6 6.2 C 32.6 6.1 32.5 6 32.5 6 C 32.4 6 32.4 5.9 32.3 5.9 C 32.1 5.9 32 6 31.8 6.1 C 31.7 6.1 31.6 6.2 31.6 6.3 C 31.6 6.4 31.6 6.4 31.7 6.5 C 31.7 6.5 31.9 6.6 32.1 6.6 C 32.3 6.7 32.5 6.8 32.6 6.9 C 32.7 7 32.8 7 32.8 7.2 C 32.8 7.3 32.6 7.5 32.3 7.7 C 32.1 7.8 31.8 7.9 31.5 7.9 C 31.4 7.9 31.3 7.9 31.2 7.9 C 31.2 7.8 31.1 7.8 31.1 7.7 C 31.1 7.6 31.1 7.6 31.2 7.6 C 31.2 7.5 31.2 7.5 31.3 7.5 C 31.3 7.5 31.3 7.5 31.3 7.5 C 31.4 7.6 31.5 7.6 31.6 7.6 C 31.8 7.6 31.9 7.5 32.1 7.4 C 32.3 7.4 32.4 7.3 32.4 7.2 C 32.4 7.2 32.4 7.1 32.3 7.1 C 32.3 7.1 32.2 7 32 7 C 31.8 6.9 31.7 6.8 31.6 6.8 C 31.5 6.8 31.4 6.7 31.3 6.6 C 31.3 6.6 31.2 6.5 31.2 6.4 C 31.2 6.2 31.4 6 31.6 5.9 C 31.8 5.7 32 5.6 32.3 5.6 C 32.5 5.6 32.6 5.7 32.7 5.7 C 32.8 5.8 32.8 5.9 32.8 5.9 C 32.8 5.9 32.8 5.9 32.8 5.9 Z M 35.9 6 C 35.9 6 35.4 6 35.4 6 C 35.3 6 35.1 6 35 6 C 34.9 6 34.8 6.1 34.8 6.1 C 34.8 6.1 34.8 6.1 34.8 6.2 C 34.8 6.2 34.8 6.3 34.8 6.4 C 34.7 6.5 34.7 6.6 34.7 6.6 C 34.8 6.6 34.9 6.6 35 6.6 C 35.1 6.6 35.2 6.6 35.2 6.6 C 35.4 6.6 35.5 6.5 35.6 6.5 C 35.7 6.5 35.8 6.6 35.8 6.7 C 35.8 6.7 35.8 6.8 35.7 6.8 C 35.7 6.8 35.6 6.9 35.5 6.9 C 35.5 6.9 35.4 6.9 35.3 6.9 C 35.3 6.9 35.3 6.9 35.2 6.9 C 34.9 6.9 34.8 7 34.7 7 C 34.7 7 34.7 7 34.7 7 C 34.7 7 34.7 7 34.7 7 C 34.7 7 34.7 7.1 34.6 7.2 C 34.6 7.4 34.6 7.5 34.6 7.5 C 34.6 7.5 34.6 7.6 34.7 7.6 C 34.7 7.6 34.8 7.5 35 7.5 C 35.2 7.5 35.4 7.5 35.4 7.5 C 35.5 7.4 35.6 7.4 35.7 7.4 C 35.8 7.4 35.9 7.5 35.9 7.6 C 35.9 7.6 35.8 7.7 35.8 7.7 C 35.7 7.7 35.6 7.8 35.4 7.8 C 35.3 7.8 35.1 7.8 34.9 7.8 C 34.8 7.9 34.6 7.9 34.4 7.9 C 34.4 7.9 34.3 7.9 34.3 7.8 C 34.2 7.8 34.2 7.7 34.2 7.7 C 34.2 7.7 34.2 7.6 34.2 7.6 C 34.2 7.6 34.2 7.6 34.2 7.5 C 34.3 7.4 34.3 7.2 34.4 6.7 C 34.4 6.3 34.5 6.1 34.5 6 C 34.5 6 34.5 6 34.5 6 C 34.4 6 34.4 6 34.4 6 C 34.4 5.9 34.4 5.9 34.4 5.9 C 34.4 5.9 34.4 5.9 34.4 5.8 C 34.4 5.8 34.4 5.8 34.5 5.8 C 34.5 5.8 34.5 5.7 34.6 5.7 C 34.6 5.7 34.7 5.8 34.7 5.8 C 34.8 5.8 35.1 5.7 35.5 5.7 C 35.6 5.6 35.7 5.6 35.7 5.6 C 35.7 5.6 35.8 5.6 35.8 5.6 C 35.9 5.6 36 5.7 36 5.8 C 36 5.8 36 5.9 36 5.9 C 35.9 5.9 35.9 6 35.9 6 Z M 37.8 7.3 C 37.8 7.3 37.7 7.3 37.7 7.3 C 37.7 7.3 37.7 7.4 37.6 7.6 C 37.5 7.7 37.4 7.8 37.4 7.8 C 37.4 7.8 37.3 7.8 37.3 7.8 C 37.3 7.8 37.2 7.8 37.2 7.8 C 37.1 7.7 37.1 7.7 37.1 7.7 C 37.1 7.6 37.2 7.4 37.5 7 C 37.6 6.8 37.7 6.6 37.8 6.4 C 38.1 6 38.2 5.8 38.2 5.7 C 38.3 5.7 38.3 5.6 38.4 5.6 C 38.5 5.6 38.5 5.6 38.6 5.7 C 38.6 5.7 38.6 5.7 38.6 5.8 C 38.6 5.8 38.6 5.9 38.6 5.9 C 38.8 6.4 38.9 6.8 39 7 C 39.1 7.3 39.2 7.4 39.3 7.5 C 39.4 7.6 39.4 7.6 39.4 7.6 C 39.4 7.6 39.4 7.7 39.4 7.7 C 39.4 7.8 39.4 7.8 39.4 7.8 C 39.3 7.9 39.3 7.9 39.2 7.9 C 39.2 7.9 39.1 7.9 39 7.8 C 38.9 7.7 38.9 7.6 38.8 7.4 C 38.7 7.3 38.7 7.2 38.7 7.2 C 38.7 7.2 38.7 7.2 38.7 7.2 C 38.6 7.2 38.5 7.2 38.3 7.2 C 38.1 7.2 38 7.3 37.9 7.3 C 37.9 7.3 37.8 7.3 37.8 7.3 C 37.8 7.3 37.8 7.3 37.8 7.3 Z M 38.4 6.9 C 38.5 6.9 38.5 6.9 38.6 6.9 C 38.5 6.8 38.5 6.6 38.4 6.2 C 38.3 6.2 38.3 6.2 38.3 6.2 C 38.3 6.2 37.9 7 37.9 7 C 38 7 38 6.9 38.1 6.9 C 38.2 6.9 38.3 6.9 38.4 6.9 C 38.4 6.9 38.4 6.9 38.4 6.9 Z M 41.1 6 C 40.8 6 40.6 6 40.5 6 C 40.5 6 40.5 6.1 40.5 6.1 C 40.5 6.1 40.5 6.3 40.5 6.6 C 40.4 6.9 40.4 7.1 40.4 7.3 C 40.4 7.4 40.4 7.5 40.4 7.6 C 40.4 7.6 40.4 7.6 40.4 7.6 C 40.4 7.7 40.4 7.7 40.4 7.8 C 40.4 7.8 40.3 7.8 40.3 7.8 C 40.2 7.8 40.2 7.8 40.2 7.8 C 40.1 7.7 40.1 7.7 40.1 7.6 C 40.1 7.5 40.1 7.4 40.1 7.3 C 40.1 7.2 40.1 6.9 40.1 6.6 C 40.1 6.2 40.2 6.1 40.2 6.1 C 40.2 6.1 40 6.1 39.9 6.1 C 39.7 6.1 39.5 6.1 39.5 6.1 C 39.4 6.1 39.3 6.1 39.3 6.1 C 39.3 6 39.2 6 39.2 6 C 39.2 5.9 39.3 5.9 39.3 5.8 C 39.4 5.8 39.5 5.8 39.6 5.8 C 39.9 5.8 40.2 5.8 40.5 5.7 C 40.8 5.7 41 5.7 41.1 5.7 C 41.3 5.7 41.4 5.7 41.5 5.7 C 41.5 5.8 41.5 5.8 41.5 5.9 C 41.5 6 41.5 6 41.4 6 C 41.4 6 41.3 6 41.3 6 C 41.2 6 41.1 6 41.1 6 C 41.1 6 41.1 6 41.1 6 Z M 43 6 C 43 6 42.6 6 42.6 6 C 42.4 6 42.3 6 42.2 6 C 42.1 6 42 6.1 42 6.1 C 42 6.1 42 6.1 42 6.2 C 42 6.2 42 6.3 41.9 6.4 C 41.9 6.5 41.9 6.6 41.9 6.6 C 41.9 6.6 42 6.6 42.2 6.6 C 42.3 6.6 42.4 6.6 42.4 6.6 C 42.5 6.6 42.7 6.5 42.7 6.5 C 42.9 6.5 43 6.6 43 6.7 C 43 6.7 42.9 6.8 42.9 6.8 C 42.9 6.8 42.8 6.9 42.7 6.9 C 42.6 6.9 42.6 6.9 42.5 6.9 C 42.5 6.9 42.4 6.9 42.4 6.9 C 42.1 6.9 41.9 7 41.9 7 C 41.9 7 41.9 7 41.9 7 C 41.9 7 41.9 7 41.8 7 C 41.8 7 41.8 7.1 41.8 7.2 C 41.8 7.4 41.8 7.5 41.8 7.5 C 41.8 7.5 41.8 7.6 41.8 7.6 C 41.9 7.6 42 7.5 42.2 7.5 C 42.4 7.5 42.5 7.5 42.6 7.5 C 42.7 7.4 42.8 7.4 42.8 7.4 C 43 7.4 43 7.5 43 7.6 C 43 7.6 43 7.7 43 7.7 C 42.9 7.7 42.7 7.8 42.6 7.8 C 42.4 7.8 42.3 7.8 42.1 7.8 C 41.9 7.9 41.8 7.9 41.6 7.9 C 41.5 7.9 41.5 7.9 41.4 7.8 C 41.4 7.8 41.4 7.7 41.4 7.7 C 41.4 7.7 41.4 7.6 41.4 7.6 C 41.4 7.6 41.4 7.6 41.4 7.5 C 41.4 7.4 41.5 7.2 41.5 6.7 C 41.6 6.3 41.6 6.1 41.6 6 C 41.6 6 41.6 6 41.6 6 C 41.6 6 41.6 6 41.6 6 C 41.6 5.9 41.6 5.9 41.6 5.9 C 41.6 5.9 41.6 5.9 41.6 5.8 C 41.6 5.8 41.6 5.8 41.6 5.8 C 41.7 5.8 41.7 5.7 41.7 5.7 C 41.8 5.7 41.8 5.8 41.9 5.8 C 42 5.8 42.2 5.7 42.7 5.7 C 42.8 5.6 42.9 5.6 42.9 5.6 C 42.9 5.6 42.9 5.6 42.9 5.6 C 43.1 5.6 43.2 5.7 43.2 5.8 C 43.2 5.8 43.2 5.9 43.1 5.9 C 43.1 5.9 43.1 6 43 6 Z M 43 5 C 42.9 5.1 42.9 5.1 42.8 5.2 C 42.8 5.2 42.8 5.2 42.8 5.2 C 42.7 5.2 42.7 5.3 42.5 5.4 C 42.5 5.4 42.4 5.4 42.4 5.4 C 42.4 5.5 42.4 5.5 42.4 5.5 C 42.3 5.5 42.3 5.4 42.3 5.4 C 42.3 5.4 42.3 5.4 42.3 5.3 C 42.3 5.3 42.3 5.2 42.5 5.1 C 42.5 5.1 42.5 5.1 42.5 5.1 C 42.5 5.1 42.5 5 42.6 5 C 42.7 4.9 42.9 4.8 42.9 4.8 C 42.9 4.7 43 4.7 43 4.7 C 43 4.7 43 4.7 43.1 4.8 C 43.1 4.8 43.1 4.9 43.1 4.9 C 43.1 4.9 43.1 4.9 43.1 5 C 43.1 5 43 5 43 5 C 43 5 43 5 43 5 Z " stroke="none" fill="#000"/>  </g>  <g id="Polygon15016">    <path d="M 5.8 1.8 C 5.8 1.8 5.8 1.8 5.8 1.8 C 5.8 1.8 5.8 1.8 5.7 1.9 C 5.6 2.1 5.5 2.2 5.4 2.3 C 5.4 2.4 5.2 2.7 5.1 3 C 4.9 3.1 4.9 3.3 4.8 3.3 C 4.7 3.4 4.7 3.6 4.7 3.6 C 4.7 3.7 4.6 3.7 4.6 3.7 C 4.5 3.8 4.5 3.8 4.4 3.8 C 4.4 3.8 4.3 3.8 4.3 3.7 C 4.3 3.7 4.2 3.6 4.2 3.4 C 4.1 3.3 4 3.1 3.9 2.8 C 3.7 2.2 3.6 1.9 3.6 1.9 C 3.6 1.9 3.6 1.8 3.6 1.8 C 3.7 1.7 3.7 1.7 3.8 1.7 C 3.8 1.7 3.9 1.7 3.9 1.7 C 3.9 1.8 4 1.9 4 2 C 4 2.1 4.1 2.3 4.2 2.6 C 4.3 2.9 4.4 3.2 4.5 3.3 C 4.5 3.3 4.5 3.2 4.6 3.1 C 4.6 3.1 4.6 3.1 4.6 3.1 C 4.8 2.9 4.9 2.7 5 2.5 C 5.1 2.2 5.3 2 5.4 1.8 C 5.5 1.7 5.6 1.6 5.7 1.6 C 5.8 1.6 5.8 1.6 5.8 1.7 C 5.81 1.74 5.8 1.8 5.8 1.8 C 5.8 1.8 5.81 1.75 5.8 1.8 Z M 6.1 3.3 C 6 3.3 6 3.3 6 3.3 C 6 3.3 5.9 3.4 5.8 3.6 C 5.7 3.7 5.7 3.8 5.6 3.8 C 5.6 3.8 5.6 3.8 5.6 3.8 C 5.5 3.8 5.5 3.8 5.4 3.8 C 5.4 3.7 5.3 3.7 5.3 3.7 C 5.3 3.6 5.5 3.4 5.7 3 C 5.9 2.8 6 2.6 6.1 2.4 C 6.3 2 6.4 1.8 6.5 1.7 C 6.5 1.7 6.6 1.6 6.6 1.6 C 6.7 1.6 6.8 1.6 6.8 1.7 C 6.8 1.7 6.8 1.7 6.8 1.8 C 6.8 1.8 6.8 1.9 6.8 1.9 C 7 2.4 7.2 2.8 7.3 3 C 7.4 3.3 7.5 3.4 7.6 3.5 C 7.6 3.6 7.6 3.6 7.7 3.6 C 7.7 3.6 7.7 3.7 7.7 3.7 C 7.7 3.8 7.7 3.8 7.6 3.8 C 7.6 3.9 7.5 3.9 7.5 3.9 C 7.4 3.9 7.3 3.9 7.2 3.8 C 7.2 3.7 7.1 3.6 7 3.4 C 7 3.3 6.9 3.2 6.9 3.2 C 6.9 3.2 6.9 3.2 6.9 3.2 C 6.9 3.2 6.8 3.2 6.6 3.2 C 6.4 3.2 6.2 3.3 6.1 3.3 C 6.1 3.3 6.1 3.3 6.1 3.3 C 6.1 3.3 6.1 3.3 6.1 3.3 Z M 6.7 2.9 C 6.7 2.9 6.8 2.9 6.8 2.9 C 6.8 2.8 6.7 2.6 6.6 2.2 C 6.6 2.2 6.6 2.2 6.6 2.2 C 6.6 2.2 6.2 3 6.2 3 C 6.2 3 6.3 2.9 6.4 2.9 C 6.4 2.9 6.5 2.9 6.7 2.9 C 6.7 2.9 6.7 2.9 6.7 2.9 Z M 9.9 2.3 C 9.9 2.2 9.9 2.2 9.9 2.2 C 9.9 2.2 9.4 2.8 9.4 2.8 C 9.2 3.1 9 3.3 8.9 3.3 C 8.8 3.3 8.8 3.3 8.8 3.2 C 8.7 3.1 8.7 3 8.6 2.9 C 8.6 2.8 8.5 2.7 8.5 2.6 C 8.5 2.4 8.5 2.4 8.4 2.3 C 8.4 2.3 8.4 2.7 8.4 2.7 C 8.3 2.8 8.3 2.9 8.3 3 C 8.3 3.2 8.2 3.3 8.2 3.4 C 8.2 3.6 8.2 3.7 8.2 3.7 C 8.2 3.8 8.1 3.8 8.1 3.8 C 8 3.9 8 3.9 8 3.9 C 7.9 3.9 7.9 3.8 7.9 3.8 C 7.8 3.8 7.8 3.7 7.8 3.7 C 7.8 3.6 7.8 3.5 7.9 3.3 C 8 2.7 8.1 2.4 8.1 2.2 C 8.2 2 8.2 1.9 8.2 1.8 C 8.2 1.8 8.2 1.7 8.2 1.7 C 8.3 1.7 8.3 1.7 8.4 1.7 C 8.5 1.7 8.5 1.7 8.5 1.7 C 8.6 1.8 8.6 1.8 8.6 1.9 C 8.61 1.88 8.6 1.9 8.6 1.9 C 8.6 1.9 8.82 2.45 8.8 2.4 C 8.9 2.7 9 2.8 9 2.9 C 9.1 2.8 9.2 2.6 9.4 2.3 C 9.7 2 9.8 1.8 9.9 1.7 C 9.9 1.7 10 1.6 10 1.6 C 10.1 1.6 10.1 1.6 10.2 1.7 C 10.3 1.7 10.3 1.8 10.3 1.8 C 10.3 1.8 10.3 2 10.2 2.2 C 10.2 2.4 10.2 2.6 10.2 2.9 C 10.1 3.1 10.1 3.2 10.1 3.3 C 10.1 3.3 10.1 3.4 10.1 3.5 C 10.1 3.5 10.2 3.5 10.2 3.6 C 10.2 3.7 10.1 3.7 10.1 3.8 C 10.1 3.8 10 3.8 9.9 3.8 C 9.8 3.8 9.8 3.7 9.8 3.5 C 9.8 3.4 9.8 3.1 9.8 2.9 C 9.8 2.6 9.9 2.4 9.9 2.3 C 9.9 2.3 9.9 2.3 9.9 2.3 Z M 11.2 3.9 C 11 3.9 10.9 3.8 10.8 3.6 C 10.6 3.5 10.6 3.3 10.6 3.1 C 10.6 2.9 10.6 2.7 10.7 2.5 C 10.9 2.2 11 2 11.2 1.9 C 11.4 1.7 11.6 1.6 11.8 1.6 C 12 1.6 12.1 1.7 12.2 1.7 C 12.3 1.7 12.4 1.8 12.5 1.9 C 12.6 1.9 12.7 2 12.7 2.1 C 12.7 2.2 12.7 2.3 12.7 2.4 C 12.7 2.6 12.7 2.7 12.6 2.9 C 12.5 3.1 12.4 3.2 12.3 3.4 C 12.1 3.5 12 3.7 11.8 3.7 C 11.7 3.8 11.5 3.9 11.2 3.9 Z M 10.9 3.1 C 10.9 3.3 11 3.4 11 3.4 C 11.1 3.5 11.2 3.6 11.3 3.6 C 11.6 3.6 11.8 3.4 12 3.2 C 12.3 2.9 12.4 2.7 12.4 2.4 C 12.4 2.3 12.4 2.2 12.3 2.1 C 12.3 2.1 12.2 2 12.1 2 C 12 1.9 11.9 1.9 11.8 1.9 C 11.6 1.9 11.4 2.1 11.2 2.3 C 11 2.6 10.9 2.9 10.9 3.1 Z M 14.6 1.9 C 14.6 2.1 14.5 2.2 14.3 2.2 C 14.3 2.1 14.3 2 14.2 2 C 14.2 2 14.1 1.9 14 1.9 C 13.9 1.9 13.7 2 13.6 2.1 C 13.4 2.1 13.3 2.2 13.3 2.3 C 13.3 2.4 13.4 2.4 13.4 2.5 C 13.5 2.5 13.6 2.6 13.8 2.6 C 14.1 2.7 14.2 2.8 14.4 2.9 C 14.5 3 14.5 3 14.5 3.2 C 14.5 3.3 14.4 3.5 14.1 3.7 C 13.8 3.8 13.5 3.9 13.2 3.9 C 13.1 3.9 13 3.9 13 3.9 C 12.9 3.8 12.9 3.8 12.9 3.7 C 12.9 3.6 12.9 3.6 12.9 3.6 C 12.9 3.5 13 3.5 13 3.5 C 13 3.5 13.1 3.5 13.1 3.5 C 13.2 3.6 13.3 3.6 13.4 3.6 C 13.5 3.6 13.7 3.5 13.9 3.4 C 14.1 3.4 14.2 3.3 14.2 3.2 C 14.2 3.2 14.1 3.1 14.1 3.1 C 14 3.1 13.9 3 13.8 3 C 13.6 2.9 13.4 2.8 13.3 2.8 C 13.2 2.8 13.1 2.7 13.1 2.6 C 13 2.6 13 2.5 13 2.4 C 13 2.2 13.1 2 13.3 1.9 C 13.5 1.7 13.8 1.6 14.1 1.6 C 14.2 1.6 14.4 1.7 14.5 1.7 C 14.5 1.8 14.6 1.9 14.6 1.9 C 14.6 1.9 14.6 1.9 14.6 1.9 Z M 16.6 3.1 C 16.5 3.1 16.4 3.1 16.4 3.1 C 16.4 3.3 16.4 3.5 16.4 3.7 C 16.4 3.7 16.4 3.8 16.3 3.8 C 16.3 3.8 16.3 3.9 16.2 3.9 C 16.1 3.9 16 3.8 16 3.7 C 16 3.6 16.1 3.3 16.1 2.9 C 16.2 2.5 16.2 2.3 16.2 2.2 C 16.2 2.1 16.2 2.1 16.2 2.1 C 16.1 2.1 16.1 2 16.1 1.9 C 16.1 1.8 16.2 1.8 16.5 1.7 C 16.7 1.6 17 1.6 17.2 1.6 C 17.4 1.6 17.5 1.7 17.7 1.7 C 17.8 1.8 17.9 2 17.9 2.1 C 17.9 2.3 17.8 2.5 17.5 2.7 C 17.3 2.9 17 3 16.6 3.1 C 16.6 3.1 16.6 3.1 16.6 3.1 Z M 17.1 1.9 C 17 1.9 16.8 1.9 16.6 2 C 16.6 2 16.5 2.8 16.5 2.8 C 16.7 2.7 17 2.7 17.2 2.5 C 17.4 2.4 17.5 2.3 17.5 2.1 C 17.5 2 17.4 1.9 17.1 1.9 C 17.1 1.9 17.1 1.9 17.1 1.9 Z M 18.6 3.9 C 18.4 3.9 18.3 3.8 18.1 3.6 C 18 3.5 18 3.3 18 3.1 C 18 2.9 18 2.7 18.1 2.5 C 18.3 2.2 18.4 2 18.6 1.9 C 18.8 1.7 19 1.6 19.2 1.6 C 19.4 1.6 19.5 1.7 19.6 1.7 C 19.7 1.7 19.8 1.8 19.9 1.9 C 20 1.9 20.1 2 20.1 2.1 C 20.1 2.2 20.1 2.3 20.1 2.4 C 20.1 2.6 20.1 2.7 20 2.9 C 19.9 3.1 19.8 3.2 19.7 3.4 C 19.5 3.5 19.4 3.7 19.2 3.7 C 19 3.8 18.8 3.9 18.6 3.9 Z M 18.3 3.1 C 18.3 3.3 18.4 3.4 18.4 3.4 C 18.5 3.5 18.6 3.6 18.7 3.6 C 18.9 3.6 19.2 3.4 19.4 3.2 C 19.6 2.9 19.8 2.7 19.8 2.4 C 19.8 2.3 19.7 2.2 19.7 2.1 C 19.7 2.1 19.6 2 19.5 2 C 19.4 1.9 19.3 1.9 19.2 1.9 C 19 1.9 18.8 2.1 18.6 2.3 C 18.4 2.6 18.3 2.9 18.3 3.1 Z M 20.4 3.5 C 20.4 3.5 20.5 3.4 20.5 3.3 C 20.5 2.9 20.5 2.6 20.6 2.2 C 20.6 2.1 20.6 2.1 20.6 2 C 20.6 2 20.6 2 20.6 2 C 20.5 2 20.4 1.9 20.4 1.9 C 20.4 1.8 20.4 1.8 20.5 1.7 C 20.5 1.7 20.6 1.7 20.6 1.7 C 20.6 1.7 20.8 1.7 20.8 1.7 C 20.9 1.7 21 1.7 21.2 1.7 C 21.3 1.6 21.4 1.6 21.5 1.6 C 21.8 1.6 22 1.7 22.2 1.9 C 22.4 2 22.4 2.2 22.4 2.5 C 22.4 2.8 22.3 3 22 3.2 C 21.8 3.5 21.5 3.6 21.1 3.7 C 21 3.7 20.9 3.7 20.9 3.8 C 20.9 3.8 20.8 3.8 20.8 3.8 C 20.7 3.9 20.6 3.9 20.6 3.9 C 20.5 3.9 20.5 3.9 20.4 3.8 C 20.4 3.8 20.4 3.7 20.4 3.7 C 20.4 3.7 20.4 3.7 20.4 3.6 C 20.4 3.6 20.4 3.5 20.4 3.5 Z M 20.8 3.4 C 20.8 3.4 20.8 3.4 20.8 3.5 C 20.9 3.5 21 3.4 21.3 3.4 C 21.5 3.3 21.7 3.2 21.9 3 C 22 2.8 22.1 2.7 22.1 2.5 C 22.1 2.3 22 2.2 21.9 2.1 C 21.8 2 21.7 1.9 21.5 1.9 C 21.3 1.9 21.2 1.9 21 2 C 21 2 21 2 21 2 C 20.9 2.6 20.8 3.1 20.8 3.4 C 20.8 3.4 20.8 3.4 20.8 3.4 Z M 24.3 2 C 24.3 2 23.9 2 23.9 2 C 23.7 2 23.6 2 23.5 2 C 23.4 2 23.3 2.1 23.3 2.1 C 23.3 2.1 23.3 2.1 23.3 2.2 C 23.3 2.2 23.3 2.3 23.2 2.4 C 23.2 2.5 23.2 2.6 23.2 2.6 C 23.2 2.6 23.3 2.6 23.5 2.6 C 23.6 2.6 23.7 2.6 23.7 2.6 C 23.8 2.6 24 2.5 24 2.5 C 24.2 2.5 24.3 2.6 24.3 2.7 C 24.3 2.7 24.2 2.8 24.2 2.8 C 24.2 2.8 24.1 2.9 24 2.9 C 23.9 2.9 23.9 2.9 23.8 2.9 C 23.8 2.9 23.7 2.9 23.7 2.9 C 23.4 2.9 23.2 3 23.2 3 C 23.2 3 23.2 3 23.2 3 C 23.2 3 23.2 3 23.1 3 C 23.1 3 23.1 3.1 23.1 3.2 C 23.1 3.4 23.1 3.5 23.1 3.5 C 23.1 3.5 23.1 3.6 23.1 3.6 C 23.2 3.6 23.3 3.5 23.5 3.5 C 23.7 3.5 23.8 3.5 23.9 3.5 C 24 3.4 24.1 3.4 24.1 3.4 C 24.3 3.4 24.3 3.5 24.3 3.6 C 24.3 3.6 24.3 3.7 24.3 3.7 C 24.2 3.7 24.1 3.8 23.9 3.8 C 23.7 3.8 23.6 3.8 23.4 3.8 C 23.2 3.9 23.1 3.9 22.9 3.9 C 22.8 3.9 22.8 3.9 22.7 3.8 C 22.7 3.8 22.7 3.7 22.7 3.7 C 22.7 3.7 22.7 3.6 22.7 3.6 C 22.7 3.6 22.7 3.6 22.7 3.5 C 22.7 3.4 22.8 3.2 22.8 2.7 C 22.9 2.3 22.9 2.1 22.9 2 C 22.9 2 22.9 2 22.9 2 C 22.9 2 22.9 2 22.9 2 C 22.9 1.9 22.9 1.9 22.9 1.9 C 22.9 1.9 22.9 1.9 22.9 1.8 C 22.9 1.8 22.9 1.8 22.9 1.8 C 23 1.8 23 1.7 23 1.7 C 23.1 1.7 23.1 1.8 23.2 1.8 C 23.3 1.8 23.5 1.7 24 1.7 C 24.1 1.6 24.2 1.6 24.2 1.6 C 24.2 1.6 24.2 1.6 24.2 1.6 C 24.4 1.6 24.5 1.7 24.5 1.8 C 24.5 1.8 24.5 1.9 24.4 1.9 C 24.4 1.9 24.4 2 24.3 2 Z M 24.9 2 C 24.9 2 24.84 1.98 24.8 2 C 24.8 1.9 24.8 1.9 24.8 1.9 C 24.8 1.8 24.8 1.8 24.9 1.7 C 24.9 1.7 25 1.7 25 1.7 C 25 1.7 25 1.7 25.1 1.7 C 25.1 1.7 25.1 1.7 25.1 1.7 C 25.4 1.7 25.6 1.6 25.7 1.6 C 25.9 1.6 26.1 1.7 26.2 1.8 C 26.4 1.9 26.4 2 26.4 2.2 C 26.4 2.3 26.4 2.5 26.2 2.6 C 26.1 2.7 25.9 2.8 25.7 2.9 C 26.1 3.2 26.4 3.4 26.5 3.5 C 26.6 3.5 26.6 3.6 26.6 3.6 C 26.6 3.7 26.6 3.7 26.6 3.7 C 26.5 3.8 26.5 3.8 26.4 3.8 C 26.4 3.8 26.3 3.8 26.2 3.7 C 26.2 3.7 26.1 3.6 25.9 3.5 C 25.8 3.4 25.7 3.3 25.7 3.3 C 25.5 3.2 25.4 3.1 25.3 3 C 25.2 3 25.2 3 25.2 2.9 C 25.2 2.8 25.2 2.8 25.2 2.7 C 25.3 2.7 25.3 2.7 25.4 2.7 C 25.4 2.7 25.4 2.7 25.4 2.7 C 25.4 2.7 25.5 2.7 25.5 2.7 C 25.5 2.7 25.6 2.6 25.8 2.5 C 26 2.4 26.1 2.3 26.1 2.2 C 26.1 2.1 26 2 26 2 C 25.9 1.9 25.8 1.9 25.7 1.9 C 25.6 1.9 25.5 1.9 25.4 1.9 C 25.3 2 25.3 2 25.2 2 C 25.2 2 25.2 2 25.2 2 C 25.2 2 25.2 2.2 25.2 2.3 C 25.1 2.5 25.1 2.7 25.1 2.9 C 25 3.1 25 3.3 25 3.4 C 25 3.4 25 3.5 25 3.5 C 25.1 3.6 25.1 3.6 25.1 3.7 C 25.1 3.7 25 3.7 25 3.8 C 25 3.8 24.9 3.8 24.9 3.8 C 24.7 3.8 24.7 3.8 24.7 3.6 C 24.7 3.4 24.7 3.2 24.7 2.9 C 24.7 2.7 24.8 2.4 24.8 2.2 C 24.8 2.2 24.8 2.1 24.8 2.1 C 24.84 2.11 24.9 2 24.9 2 Z M 28 3.5 C 28 3.5 28 3.4 28 3.3 C 28 2.9 28.1 2.6 28.1 2.2 C 28.2 2.1 28.2 2.1 28.2 2 C 28.2 2 28.2 2 28.1 2 C 28 2 28 1.9 28 1.9 C 28 1.8 28 1.8 28.1 1.7 C 28.1 1.7 28.1 1.7 28.2 1.7 C 28.2 1.7 28.4 1.7 28.4 1.7 C 28.5 1.7 28.6 1.7 28.8 1.7 C 28.9 1.6 29 1.6 29.1 1.6 C 29.4 1.6 29.6 1.7 29.7 1.9 C 29.9 2 30 2.2 30 2.5 C 30 2.8 29.9 3 29.6 3.2 C 29.4 3.5 29 3.6 28.7 3.7 C 28.6 3.7 28.5 3.7 28.5 3.8 C 28.4 3.8 28.4 3.8 28.3 3.8 C 28.3 3.9 28.2 3.9 28.1 3.9 C 28.1 3.9 28 3.9 28 3.8 C 28 3.8 27.9 3.7 27.9 3.7 C 27.9 3.7 27.9 3.7 28 3.6 C 28 3.6 28 3.5 28 3.5 Z M 28.4 3.4 C 28.4 3.4 28.4 3.4 28.4 3.5 C 28.4 3.5 28.6 3.4 28.8 3.4 C 29.1 3.3 29.3 3.2 29.4 3 C 29.6 2.8 29.6 2.7 29.6 2.5 C 29.6 2.3 29.6 2.2 29.5 2.1 C 29.4 2 29.2 1.9 29 1.9 C 28.9 1.9 28.8 1.9 28.6 2 C 28.6 2 28.5 2 28.5 2 C 28.4 2.6 28.4 3.1 28.4 3.4 C 28.4 3.4 28.4 3.4 28.4 3.4 Z M 31.9 2 C 31.9 2 31.5 2 31.5 2 C 31.3 2 31.2 2 31 2 C 30.9 2 30.9 2.1 30.9 2.1 C 30.9 2.1 30.9 2.1 30.8 2.2 C 30.8 2.2 30.8 2.3 30.8 2.4 C 30.8 2.5 30.8 2.6 30.7 2.6 C 30.8 2.6 30.9 2.6 31 2.6 C 31.1 2.6 31.2 2.6 31.3 2.6 C 31.4 2.6 31.5 2.5 31.6 2.5 C 31.7 2.5 31.8 2.6 31.8 2.7 C 31.8 2.7 31.8 2.8 31.8 2.8 C 31.7 2.8 31.7 2.9 31.6 2.9 C 31.5 2.9 31.4 2.9 31.4 2.9 C 31.3 2.9 31.3 2.9 31.2 2.9 C 31 2.9 30.8 3 30.8 3 C 30.8 3 30.7 3 30.7 3 C 30.7 3 30.7 3 30.7 3 C 30.7 3 30.7 3.1 30.7 3.2 C 30.6 3.4 30.6 3.5 30.6 3.5 C 30.6 3.5 30.7 3.6 30.7 3.6 C 30.7 3.6 30.9 3.5 31.1 3.5 C 31.3 3.5 31.4 3.5 31.4 3.5 C 31.6 3.4 31.7 3.4 31.7 3.4 C 31.8 3.4 31.9 3.5 31.9 3.6 C 31.9 3.6 31.9 3.7 31.8 3.7 C 31.8 3.7 31.6 3.8 31.4 3.8 C 31.3 3.8 31.1 3.8 31 3.8 C 30.8 3.9 30.6 3.9 30.5 3.9 C 30.4 3.9 30.3 3.9 30.3 3.8 C 30.3 3.8 30.2 3.7 30.2 3.7 C 30.2 3.7 30.2 3.6 30.2 3.6 C 30.2 3.6 30.2 3.6 30.3 3.5 C 30.3 3.4 30.3 3.2 30.4 2.7 C 30.5 2.3 30.5 2.1 30.5 2 C 30.5 2 30.5 2 30.5 2 C 30.5 2 30.5 2 30.4 2 C 30.4 1.9 30.4 1.9 30.4 1.9 C 30.4 1.9 30.4 1.9 30.4 1.8 C 30.4 1.8 30.5 1.8 30.5 1.8 C 30.5 1.8 30.6 1.7 30.6 1.7 C 30.6 1.7 30.7 1.8 30.7 1.8 C 30.8 1.8 31.1 1.7 31.5 1.7 C 31.7 1.6 31.8 1.6 31.8 1.6 C 31.8 1.6 31.8 1.6 31.8 1.6 C 32 1.6 32 1.7 32 1.8 C 32 1.8 32 1.9 32 1.9 C 32 1.9 31.9 2 31.9 2 Z M 33.8 1.9 C 33.8 2 33.8 2 33.7 2 C 33.7 2 33.7 2 33.7 2 C 33.7 2 33.6 2 33.6 2 C 33.4 2 33.3 2 33.1 2 C 33 2 32.9 2 32.8 2 C 32.8 2.2 32.7 2.5 32.7 2.7 C 32.7 2.7 32.8 2.7 32.8 2.7 C 33 2.7 33.1 2.7 33.3 2.6 C 33.4 2.6 33.5 2.6 33.5 2.6 C 33.7 2.6 33.7 2.7 33.7 2.8 C 33.7 2.8 33.7 2.8 33.7 2.8 C 33.7 2.9 33.6 2.9 33.6 2.9 C 33.6 2.9 33.5 2.9 33.4 2.9 C 33.4 2.9 33 3 33 3 C 32.9 3 32.8 3 32.7 3 C 32.7 3 32.7 3.1 32.7 3.1 C 32.7 3.1 32.7 3.1 32.6 3.2 C 32.6 3.4 32.6 3.5 32.6 3.5 C 32.6 3.5 32.6 3.7 32.6 3.7 C 32.6 3.8 32.6 3.9 32.5 3.9 C 32.4 3.9 32.4 3.9 32.3 3.8 C 32.3 3.8 32.2 3.7 32.2 3.7 C 32.2 3.5 32.3 3.4 32.3 3.1 C 32.3 3.1 32.3 2.8 32.4 2 C 32.4 2 32.4 2 32.4 2 C 32.4 1.9 32.4 1.9 32.4 1.9 C 32.4 1.8 32.4 1.8 32.5 1.8 C 32.5 1.7 32.6 1.7 32.6 1.7 C 32.6 1.7 32.6 1.7 32.7 1.7 C 32.7 1.7 32.7 1.7 32.8 1.7 C 32.8 1.7 33 1.7 33.2 1.7 C 33.4 1.6 33.6 1.6 33.6 1.6 C 33.7 1.6 33.8 1.7 33.9 1.7 C 33.9 1.7 33.9 1.7 33.9 1.8 C 33.9 1.8 33.9 1.9 33.8 1.9 C 33.8 1.9 33.8 1.9 33.8 1.9 Z M 35.6 2 C 35.6 2 35.2 2 35.2 2 C 35 2 34.9 2 34.7 2 C 34.6 2 34.6 2.1 34.6 2.1 C 34.6 2.1 34.5 2.1 34.5 2.2 C 34.5 2.2 34.5 2.3 34.5 2.4 C 34.5 2.5 34.5 2.6 34.4 2.6 C 34.5 2.6 34.6 2.6 34.7 2.6 C 34.8 2.6 34.9 2.6 35 2.6 C 35.1 2.6 35.2 2.5 35.3 2.5 C 35.4 2.5 35.5 2.6 35.5 2.7 C 35.5 2.7 35.5 2.8 35.5 2.8 C 35.4 2.8 35.4 2.9 35.3 2.9 C 35.2 2.9 35.1 2.9 35.1 2.9 C 35 2.9 35 2.9 34.9 2.9 C 34.7 2.9 34.5 3 34.4 3 C 34.4 3 34.4 3 34.4 3 C 34.4 3 34.4 3 34.4 3 C 34.4 3 34.4 3.1 34.4 3.2 C 34.3 3.4 34.3 3.5 34.3 3.5 C 34.3 3.5 34.4 3.6 34.4 3.6 C 34.4 3.6 34.6 3.5 34.8 3.5 C 35 3.5 35.1 3.5 35.1 3.5 C 35.3 3.4 35.4 3.4 35.4 3.4 C 35.5 3.4 35.6 3.5 35.6 3.6 C 35.6 3.6 35.6 3.7 35.5 3.7 C 35.4 3.7 35.3 3.8 35.1 3.8 C 35 3.8 34.8 3.8 34.7 3.8 C 34.5 3.9 34.3 3.9 34.2 3.9 C 34.1 3.9 34 3.9 34 3.8 C 34 3.8 33.9 3.7 33.9 3.7 C 33.9 3.7 33.9 3.6 33.9 3.6 C 33.9 3.6 33.9 3.6 34 3.5 C 34 3.4 34 3.2 34.1 2.7 C 34.2 2.3 34.2 2.1 34.2 2 C 34.2 2 34.2 2 34.2 2 C 34.2 2 34.2 2 34.1 2 C 34.1 1.9 34.1 1.9 34.1 1.9 C 34.1 1.9 34.1 1.9 34.1 1.8 C 34.1 1.8 34.2 1.8 34.2 1.8 C 34.2 1.8 34.3 1.7 34.3 1.7 C 34.3 1.7 34.4 1.8 34.4 1.8 C 34.5 1.8 34.8 1.7 35.2 1.7 C 35.4 1.6 35.5 1.6 35.5 1.6 C 35.5 1.6 35.5 1.6 35.5 1.6 C 35.7 1.6 35.7 1.7 35.7 1.8 C 35.7 1.8 35.7 1.9 35.7 1.9 C 35.7 1.9 35.6 2 35.6 2 Z M 36 3.3 C 36 3.3 36.08 2.8 36.1 2.8 C 36.2 2.4 36.2 2.1 36.2 2 C 36.2 1.9 36.2 1.9 36.2 1.8 C 36.2 1.8 36.3 1.8 36.3 1.8 C 36.3 1.7 36.4 1.7 36.4 1.7 C 36.5 1.7 36.5 1.7 36.5 1.7 C 36.6 1.8 36.6 1.8 36.6 1.9 C 36.7 2.1 36.8 2.3 36.9 2.6 C 37.1 2.9 37.3 3.1 37.4 3.3 C 37.4 3.1 37.5 2.9 37.5 2.6 C 37.6 2.4 37.6 2.3 37.6 2.1 C 37.6 2 37.6 1.9 37.7 1.8 C 37.7 1.7 37.7 1.7 37.7 1.6 C 37.8 1.6 37.8 1.6 37.9 1.6 C 37.9 1.6 37.9 1.6 38 1.7 C 38 1.7 38 1.8 38 1.8 C 38 1.9 38 2 38 2.1 C 37.9 2.3 37.9 2.6 37.8 2.9 C 37.7 3.3 37.7 3.5 37.7 3.5 C 37.7 3.5 37.7 3.6 37.7 3.6 C 37.7 3.6 37.7 3.7 37.7 3.7 C 37.7 3.7 37.7 3.8 37.6 3.8 C 37.6 3.8 37.5 3.8 37.5 3.8 C 37.4 3.8 37.4 3.8 37.4 3.8 C 37.4 3.8 37.4 3.8 37.3 3.7 C 37.3 3.7 37.3 3.7 37.2 3.6 C 37.2 3.5 37.2 3.5 37.1 3.4 C 36.9 3.2 36.7 2.8 36.5 2.4 C 36.4 2.5 36.4 2.8 36.3 3.3 C 36.3 3.3 36.3 3.4 36.3 3.4 C 36.3 3.4 36.3 3.5 36.3 3.6 C 36.3 3.7 36.3 3.8 36.2 3.8 C 36.2 3.9 36.1 3.9 36.1 3.9 C 36 3.9 36 3.9 36 3.8 C 35.9 3.8 35.9 3.7 35.9 3.6 C 35.9 3.6 35.9 3.4 36 3.3 C 35.97 3.3 36 3.3 36 3.3 Z M 38.4 3.5 C 38.4 3.5 38.4 3.4 38.4 3.3 C 38.4 2.9 38.4 2.6 38.5 2.2 C 38.5 2.1 38.5 2.1 38.5 2 C 38.5 2 38.5 2 38.5 2 C 38.4 2 38.4 1.9 38.4 1.9 C 38.4 1.8 38.4 1.8 38.4 1.7 C 38.5 1.7 38.5 1.7 38.6 1.7 C 38.6 1.7 38.8 1.7 38.8 1.7 C 38.8 1.7 39 1.7 39.1 1.7 C 39.3 1.6 39.4 1.6 39.4 1.6 C 39.7 1.6 39.9 1.7 40.1 1.9 C 40.3 2 40.4 2.2 40.4 2.5 C 40.4 2.8 40.2 3 40 3.2 C 39.7 3.5 39.4 3.6 39 3.7 C 38.9 3.7 38.9 3.7 38.8 3.8 C 38.8 3.8 38.7 3.8 38.7 3.8 C 38.6 3.9 38.5 3.9 38.5 3.9 C 38.4 3.9 38.4 3.9 38.4 3.8 C 38.3 3.8 38.3 3.7 38.3 3.7 C 38.3 3.7 38.3 3.7 38.3 3.6 C 38.3 3.6 38.4 3.5 38.4 3.5 Z M 38.7 3.4 C 38.7 3.4 38.7 3.4 38.7 3.5 C 38.8 3.5 38.9 3.4 39.2 3.4 C 39.4 3.3 39.6 3.2 39.8 3 C 39.9 2.8 40 2.7 40 2.5 C 40 2.3 40 2.2 39.8 2.1 C 39.7 2 39.6 1.9 39.4 1.9 C 39.3 1.9 39.1 1.9 38.9 2 C 38.9 2 38.9 2 38.9 2 C 38.8 2.6 38.7 3.1 38.7 3.4 C 38.7 3.4 38.7 3.4 38.7 3.4 Z M 42.3 2 C 42.3 2 41.8 2 41.8 2 C 41.7 2 41.5 2 41.4 2 C 41.3 2 41.2 2.1 41.2 2.1 C 41.2 2.1 41.2 2.1 41.2 2.2 C 41.2 2.2 41.2 2.3 41.2 2.4 C 41.1 2.5 41.1 2.6 41.1 2.6 C 41.2 2.6 41.3 2.6 41.4 2.6 C 41.5 2.6 41.6 2.6 41.6 2.6 C 41.8 2.6 41.9 2.5 42 2.5 C 42.1 2.5 42.2 2.6 42.2 2.7 C 42.2 2.7 42.2 2.8 42.1 2.8 C 42.1 2.8 42 2.9 41.9 2.9 C 41.9 2.9 41.8 2.9 41.7 2.9 C 41.7 2.9 41.6 2.9 41.6 2.9 C 41.3 2.9 41.2 3 41.1 3 C 41.1 3 41.1 3 41.1 3 C 41.1 3 41.1 3 41.1 3 C 41.1 3 41.1 3.1 41 3.2 C 41 3.4 41 3.5 41 3.5 C 41 3.5 41 3.6 41.1 3.6 C 41.1 3.6 41.2 3.5 41.4 3.5 C 41.6 3.5 41.8 3.5 41.8 3.5 C 41.9 3.4 42 3.4 42.1 3.4 C 42.2 3.4 42.3 3.5 42.3 3.6 C 42.3 3.6 42.2 3.7 42.2 3.7 C 42.1 3.7 42 3.8 41.8 3.8 C 41.7 3.8 41.5 3.8 41.3 3.8 C 41.1 3.9 41 3.9 40.8 3.9 C 40.8 3.9 40.7 3.9 40.7 3.8 C 40.6 3.8 40.6 3.7 40.6 3.7 C 40.6 3.7 40.6 3.6 40.6 3.6 C 40.6 3.6 40.6 3.6 40.6 3.5 C 40.7 3.4 40.7 3.2 40.8 2.7 C 40.8 2.3 40.9 2.1 40.9 2 C 40.9 2 40.8 2 40.8 2 C 40.8 2 40.8 2 40.8 2 C 40.8 1.9 40.8 1.9 40.8 1.9 C 40.8 1.9 40.8 1.9 40.8 1.8 C 40.8 1.8 40.8 1.8 40.9 1.8 C 40.9 1.8 40.9 1.7 41 1.7 C 41 1.7 41.1 1.8 41.1 1.8 C 41.2 1.8 41.4 1.7 41.9 1.7 C 42 1.6 42.1 1.6 42.1 1.6 C 42.1 1.6 42.1 1.6 42.1 1.6 C 42.3 1.6 42.4 1.7 42.4 1.8 C 42.4 1.8 42.4 1.9 42.4 1.9 C 42.3 1.9 42.3 2 42.3 2 Z M 42.8 2 C 42.8 2 42.77 1.98 42.8 2 C 42.7 1.9 42.7 1.9 42.7 1.9 C 42.7 1.8 42.7 1.8 42.8 1.7 C 42.8 1.7 42.9 1.7 42.9 1.7 C 42.9 1.7 43 1.7 43 1.7 C 43 1.7 43 1.7 43 1.7 C 43.3 1.7 43.5 1.6 43.6 1.6 C 43.9 1.6 44 1.7 44.2 1.8 C 44.3 1.9 44.4 2 44.4 2.2 C 44.4 2.3 44.3 2.5 44.2 2.6 C 44 2.7 43.9 2.8 43.7 2.9 C 44 3.2 44.3 3.4 44.5 3.5 C 44.5 3.5 44.6 3.6 44.6 3.6 C 44.6 3.7 44.5 3.7 44.5 3.7 C 44.4 3.8 44.4 3.8 44.4 3.8 C 44.3 3.8 44.2 3.8 44.2 3.7 C 44.1 3.7 44 3.6 43.9 3.5 C 43.7 3.4 43.7 3.3 43.6 3.3 C 43.4 3.2 43.3 3.1 43.2 3 C 43.1 3 43.1 3 43.1 2.9 C 43.1 2.8 43.1 2.8 43.1 2.7 C 43.2 2.7 43.2 2.7 43.3 2.7 C 43.3 2.7 43.3 2.7 43.4 2.7 C 43.4 2.7 43.4 2.7 43.4 2.7 C 43.5 2.7 43.6 2.6 43.7 2.5 C 43.9 2.4 44 2.3 44 2.2 C 44 2.1 44 2 43.9 2 C 43.8 1.9 43.7 1.9 43.6 1.9 C 43.5 1.9 43.4 1.9 43.3 1.9 C 43.2 2 43.2 2 43.2 2 C 43.2 2 43.2 2 43.1 2 C 43.1 2 43.1 2.2 43.1 2.3 C 43.1 2.5 43 2.7 43 2.9 C 43 3.1 43 3.3 43 3.4 C 43 3.4 43 3.5 43 3.5 C 43 3.6 43 3.6 43 3.7 C 43 3.7 43 3.7 42.9 3.8 C 42.9 3.8 42.8 3.8 42.8 3.8 C 42.6 3.8 42.6 3.8 42.6 3.6 C 42.6 3.4 42.6 3.2 42.6 2.9 C 42.7 2.7 42.7 2.4 42.7 2.2 C 42.8 2.2 42.8 2.1 42.8 2.1 C 42.77 2.11 42.8 2 42.8 2 Z " stroke="none" fill="#000"/>  </g></svg>