<?xml version="1.0" standalone="no"?><!DOCTYPE svg PUBLIC "-//W3C//DTD SVG 1.1//EN" "http://www.w3.org/Graphics/SVG/1.1/DTD/svg11.dtd"><svg xmlns="http://www.w3.org/2000/svg" version="1.1" width="73px" height="22.9px" viewBox="0 -1 73 22.9" style="top:-1px">  <desc>PODEMOS COME AR MUDANDO ESSE SISTEMA ELEITORAL ATUAL, ONDE A GENTE N O CONSEGUE NEM CHEGAR AT ELES...</desc>  <defs/>  <g id="Polygon14426">    <path d="M 3.4 14.6 C 3.4 14.6 3.54 14.1 3.5 14.1 C 3.6 13.7 3.7 13.4 3.7 13.3 C 3.7 13.2 3.7 13.2 3.7 13.1 C 3.7 13.1 3.7 13.1 3.8 13.1 C 3.8 13 3.8 13 3.9 13 C 3.9 13 3.9 13 4 13 C 4 13.1 4.1 13.1 4.1 13.2 C 4.1 13.4 4.2 13.6 4.4 13.9 C 4.6 14.2 4.7 14.4 4.9 14.6 C 4.9 14.4 4.9 14.2 5 13.9 C 5 13.7 5 13.6 5.1 13.4 C 5.1 13.3 5.1 13.2 5.1 13.1 C 5.1 13 5.1 13 5.2 12.9 C 5.2 12.9 5.3 12.9 5.3 12.9 C 5.4 12.9 5.4 12.9 5.4 13 C 5.5 13 5.5 13.1 5.5 13.1 C 5.5 13.2 5.5 13.3 5.4 13.4 C 5.4 13.6 5.3 13.9 5.3 14.2 C 5.2 14.6 5.2 14.8 5.2 14.8 C 5.2 14.8 5.2 14.9 5.2 14.9 C 5.2 14.9 5.2 15 5.1 15 C 5.1 15 5.1 15.1 5.1 15.1 C 5 15.1 5 15.1 4.9 15.1 C 4.9 15.1 4.9 15.1 4.9 15.1 C 4.8 15.1 4.8 15.1 4.8 15 C 4.8 15 4.7 15 4.7 14.9 C 4.7 14.8 4.6 14.8 4.6 14.7 C 4.4 14.5 4.1 14.1 3.9 13.7 C 3.9 13.8 3.8 14.1 3.8 14.6 C 3.8 14.6 3.8 14.7 3.8 14.7 C 3.8 14.7 3.8 14.8 3.8 14.9 C 3.7 15 3.7 15.1 3.7 15.1 C 3.6 15.2 3.6 15.2 3.5 15.2 C 3.5 15.2 3.4 15.2 3.4 15.1 C 3.4 15.1 3.4 15 3.4 14.9 C 3.4 14.9 3.4 14.7 3.4 14.6 C 3.43 14.6 3.4 14.6 3.4 14.6 Z M 6.2 14.6 C 6.2 14.6 6.1 14.6 6.1 14.6 C 6.1 14.6 6.1 14.7 6 14.9 C 5.9 15 5.8 15.1 5.8 15.1 C 5.8 15.1 5.7 15.1 5.7 15.1 C 5.7 15.1 5.6 15.1 5.6 15.1 C 5.5 15 5.5 15 5.5 15 C 5.5 14.9 5.6 14.7 5.9 14.3 C 6 14.1 6.1 13.9 6.2 13.7 C 6.5 13.3 6.6 13.1 6.6 13 C 6.7 13 6.7 12.9 6.8 12.9 C 6.9 12.9 6.9 12.9 7 13 C 7 13 7 13 7 13.1 C 7 13.1 7 13.2 7 13.2 C 7.2 13.7 7.3 14.1 7.4 14.3 C 7.5 14.6 7.6 14.7 7.7 14.8 C 7.8 14.9 7.8 14.9 7.8 14.9 C 7.8 14.9 7.8 15 7.8 15 C 7.8 15.1 7.8 15.1 7.8 15.1 C 7.7 15.2 7.7 15.2 7.6 15.2 C 7.6 15.2 7.5 15.1 7.4 15.1 C 7.3 15 7.3 14.9 7.2 14.7 C 7.1 14.6 7.1 14.5 7.1 14.5 C 7.1 14.5 7.1 14.4 7.1 14.4 C 7 14.4 6.9 14.5 6.7 14.5 C 6.5 14.5 6.4 14.6 6.3 14.6 C 6.3 14.6 6.2 14.6 6.2 14.6 C 6.2 14.6 6.2 14.6 6.2 14.6 Z M 6.8 14.2 C 6.9 14.2 6.9 14.2 7 14.2 C 6.9 14.1 6.9 13.9 6.8 13.5 C 6.8 13.5 6.7 13.5 6.7 13.5 C 6.7 13.5 6.3 14.3 6.3 14.3 C 6.4 14.3 6.4 14.2 6.5 14.2 C 6.6 14.2 6.7 14.2 6.8 14.2 C 6.8 14.2 6.8 14.2 6.8 14.2 Z M 7.2 12.6 C 7.1 12.6 7 12.6 7 12.6 C 7 12.6 6.9 12.5 6.9 12.5 C 6.9 12.5 6.8 12.5 6.8 12.5 C 6.8 12.5 6.8 12.5 6.8 12.4 C 6.7 12.4 6.7 12.4 6.7 12.4 C 6.6 12.4 6.6 12.4 6.5 12.5 C 6.5 12.5 6.5 12.5 6.5 12.5 C 6.4 12.6 6.4 12.6 6.4 12.6 C 6.3 12.6 6.3 12.7 6.3 12.7 C 6.2 12.7 6.2 12.6 6.2 12.5 C 6.2 12.5 6.2 12.4 6.3 12.2 C 6.4 12.1 6.5 12.1 6.6 12.1 C 6.7 12.1 6.8 12.1 6.8 12.1 C 6.8 12.1 6.9 12.1 6.9 12.2 C 7 12.3 7 12.3 7.1 12.3 C 7.1 12.4 7.1 12.4 7.2 12.4 C 7.2 12.4 7.2 12.3 7.3 12.3 C 7.3 12.2 7.3 12.2 7.3 12.2 C 7.3 12.2 7.3 12.2 7.3 12.2 C 7.4 12.1 7.4 12.1 7.4 12.1 C 7.5 12.1 7.6 12.2 7.6 12.2 C 7.6 12.3 7.5 12.4 7.4 12.5 C 7.4 12.6 7.3 12.6 7.2 12.6 C 7.2 12.6 7.2 12.6 7.2 12.6 Z M 8.6 15.2 C 8.4 15.2 8.2 15.1 8.1 14.9 C 8 14.8 7.9 14.6 7.9 14.4 C 7.9 14.2 8 14 8.1 13.8 C 8.2 13.5 8.4 13.3 8.6 13.2 C 8.8 13 9 12.9 9.2 12.9 C 9.3 12.9 9.5 13 9.6 13 C 9.7 13 9.8 13.1 9.9 13.2 C 10 13.2 10 13.3 10.1 13.4 C 10.1 13.5 10.1 13.6 10.1 13.7 C 10.1 13.9 10.1 14 10 14.2 C 9.9 14.4 9.8 14.5 9.6 14.7 C 9.5 14.8 9.3 15 9.2 15 C 9 15.1 8.8 15.2 8.6 15.2 Z M 8.3 14.4 C 8.3 14.6 8.3 14.7 8.4 14.7 C 8.5 14.8 8.6 14.9 8.6 14.9 C 8.9 14.9 9.2 14.7 9.4 14.5 C 9.6 14.2 9.7 14 9.7 13.7 C 9.7 13.6 9.7 13.5 9.7 13.4 C 9.6 13.4 9.6 13.3 9.5 13.3 C 9.4 13.2 9.3 13.2 9.2 13.2 C 9 13.2 8.8 13.4 8.6 13.6 C 8.4 13.9 8.3 14.2 8.3 14.4 Z M 12.8 14.7 C 12.9 14.6 12.9 14.6 13 14.6 C 13 14.6 13.1 14.6 13.1 14.7 C 13.1 14.8 13 14.9 12.7 15 C 12.5 15.1 12.3 15.2 12.1 15.2 C 11.9 15.2 11.8 15.1 11.6 15 C 11.5 14.9 11.4 14.7 11.4 14.5 C 11.4 14.3 11.5 14 11.6 13.8 C 11.8 13.5 12 13.3 12.2 13.1 C 12.4 12.9 12.7 12.8 12.9 12.8 C 13 12.8 13.1 12.9 13.2 12.9 C 13.3 13 13.3 13.1 13.3 13.2 C 13.3 13.3 13.3 13.4 13.3 13.5 C 13.3 13.5 13.2 13.6 13.2 13.6 C 13.1 13.6 13.1 13.6 13 13.6 C 13 13.6 13 13.6 12.9 13.6 C 12.9 13.6 12.9 13.5 12.9 13.5 C 12.9 13.5 12.9 13.4 12.9 13.4 C 12.9 13.3 13 13.3 13 13.2 C 13 13.1 12.9 13.1 12.9 13.1 C 12.7 13.1 12.6 13.2 12.4 13.3 C 12.2 13.5 12.1 13.7 12 13.9 C 11.8 14.1 11.8 14.3 11.8 14.5 C 11.8 14.6 11.8 14.7 11.9 14.8 C 11.9 14.9 12 14.9 12.2 14.9 C 12.2 14.9 12.3 14.9 12.4 14.8 C 12.6 14.8 12.7 14.7 12.8 14.7 C 12.8 14.7 12.8 14.7 12.8 14.7 Z M 14.1 15.2 C 13.9 15.2 13.8 15.1 13.6 14.9 C 13.5 14.8 13.4 14.6 13.4 14.4 C 13.4 14.2 13.5 14 13.6 13.8 C 13.7 13.5 13.9 13.3 14.1 13.2 C 14.3 13 14.5 12.9 14.7 12.9 C 14.9 12.9 15 13 15.1 13 C 15.2 13 15.3 13.1 15.4 13.2 C 15.5 13.2 15.5 13.3 15.6 13.4 C 15.6 13.5 15.6 13.6 15.6 13.7 C 15.6 13.9 15.6 14 15.5 14.2 C 15.4 14.4 15.3 14.5 15.1 14.7 C 15 14.8 14.8 15 14.7 15 C 14.5 15.1 14.3 15.2 14.1 15.2 Z M 13.8 14.4 C 13.8 14.6 13.8 14.7 13.9 14.7 C 14 14.8 14.1 14.9 14.2 14.9 C 14.4 14.9 14.7 14.7 14.9 14.5 C 15.1 14.2 15.2 14 15.2 13.7 C 15.2 13.6 15.2 13.5 15.2 13.4 C 15.1 13.4 15.1 13.3 15 13.3 C 14.9 13.2 14.8 13.2 14.7 13.2 C 14.5 13.2 14.3 13.4 14.1 13.6 C 13.9 13.9 13.8 14.2 13.8 14.4 Z M 15.9 14.6 C 15.9 14.6 16 14.1 16 14.1 C 16.1 13.7 16.1 13.4 16.1 13.3 C 16.1 13.2 16.1 13.2 16.1 13.1 C 16.2 13.1 16.2 13.1 16.2 13.1 C 16.2 13 16.3 13 16.3 13 C 16.4 13 16.4 13 16.4 13 C 16.5 13.1 16.5 13.1 16.5 13.2 C 16.6 13.4 16.7 13.6 16.9 13.9 C 17 14.2 17.2 14.4 17.3 14.6 C 17.4 14.4 17.4 14.2 17.4 13.9 C 17.5 13.7 17.5 13.6 17.5 13.4 C 17.6 13.3 17.6 13.2 17.6 13.1 C 17.6 13 17.6 13 17.6 12.9 C 17.7 12.9 17.7 12.9 17.8 12.9 C 17.8 12.9 17.9 12.9 17.9 13 C 17.9 13 17.9 13.1 17.9 13.1 C 17.9 13.2 17.9 13.3 17.9 13.4 C 17.8 13.6 17.8 13.9 17.7 14.2 C 17.7 14.6 17.6 14.8 17.6 14.8 C 17.6 14.8 17.6 14.9 17.6 14.9 C 17.6 14.9 17.6 15 17.6 15 C 17.6 15 17.6 15.1 17.5 15.1 C 17.5 15.1 17.4 15.1 17.4 15.1 C 17.4 15.1 17.3 15.1 17.3 15.1 C 17.3 15.1 17.3 15.1 17.2 15 C 17.2 15 17.2 15 17.2 14.9 C 17.1 14.8 17.1 14.8 17.1 14.7 C 16.8 14.5 16.6 14.1 16.4 13.7 C 16.4 13.8 16.3 14.1 16.2 14.6 C 16.2 14.6 16.2 14.7 16.2 14.7 C 16.2 14.7 16.2 14.8 16.2 14.9 C 16.2 15 16.2 15.1 16.1 15.1 C 16.1 15.2 16 15.2 16 15.2 C 15.9 15.2 15.9 15.2 15.9 15.1 C 15.8 15.1 15.8 15 15.8 14.9 C 15.8 14.9 15.9 14.7 15.9 14.6 C 15.89 14.6 15.9 14.6 15.9 14.6 Z M 19.8 13.2 C 19.8 13.4 19.7 13.5 19.5 13.5 C 19.5 13.4 19.5 13.3 19.5 13.3 C 19.4 13.3 19.3 13.2 19.2 13.2 C 19.1 13.2 18.9 13.3 18.8 13.4 C 18.6 13.4 18.6 13.5 18.6 13.6 C 18.6 13.7 18.6 13.7 18.7 13.8 C 18.7 13.8 18.8 13.9 19.1 13.9 C 19.3 14 19.5 14.1 19.6 14.2 C 19.7 14.2 19.8 14.3 19.8 14.5 C 19.8 14.6 19.6 14.8 19.3 15 C 19 15.1 18.7 15.2 18.4 15.2 C 18.3 15.2 18.3 15.2 18.2 15.2 C 18.1 15.1 18.1 15.1 18.1 15 C 18.1 14.9 18.1 14.9 18.1 14.9 C 18.2 14.8 18.2 14.8 18.2 14.8 C 18.3 14.8 18.3 14.8 18.3 14.8 C 18.4 14.9 18.5 14.9 18.6 14.9 C 18.7 14.9 18.9 14.8 19.1 14.7 C 19.3 14.7 19.4 14.6 19.4 14.5 C 19.4 14.5 19.4 14.4 19.3 14.4 C 19.3 14.4 19.2 14.3 19 14.3 C 18.8 14.2 18.7 14.1 18.5 14.1 C 18.4 14.1 18.4 14 18.3 13.9 C 18.3 13.9 18.2 13.8 18.2 13.7 C 18.2 13.5 18.3 13.3 18.5 13.2 C 18.8 13 19 12.9 19.3 12.9 C 19.5 12.9 19.6 13 19.7 13 C 19.8 13.1 19.8 13.2 19.8 13.2 C 19.8 13.2 19.8 13.2 19.8 13.2 Z M 21.7 13.3 C 21.7 13.3 21.3 13.3 21.3 13.3 C 21.1 13.3 21 13.3 20.9 13.3 C 20.7 13.3 20.7 13.4 20.7 13.4 C 20.7 13.4 20.7 13.4 20.7 13.5 C 20.7 13.5 20.6 13.6 20.6 13.7 C 20.6 13.8 20.6 13.9 20.6 13.9 C 20.6 13.9 20.7 13.9 20.8 13.9 C 20.9 13.9 21 13.9 21.1 13.9 C 21.2 13.9 21.3 13.8 21.4 13.8 C 21.6 13.8 21.6 13.9 21.6 14 C 21.6 14 21.6 14.1 21.6 14.1 C 21.5 14.1 21.5 14.2 21.4 14.2 C 21.3 14.2 21.2 14.2 21.2 14.2 C 21.1 14.2 21.1 14.2 21 14.2 C 20.8 14.2 20.6 14.3 20.6 14.3 C 20.6 14.3 20.6 14.3 20.6 14.3 C 20.5 14.3 20.5 14.3 20.5 14.3 C 20.5 14.3 20.5 14.4 20.5 14.5 C 20.5 14.7 20.4 14.8 20.4 14.8 C 20.4 14.8 20.5 14.9 20.5 14.9 C 20.6 14.9 20.7 14.8 20.9 14.8 C 21.1 14.8 21.2 14.8 21.3 14.8 C 21.4 14.7 21.5 14.7 21.5 14.7 C 21.6 14.7 21.7 14.8 21.7 14.9 C 21.7 14.9 21.7 15 21.7 15 C 21.6 15 21.4 15.1 21.3 15.1 C 21.1 15.1 21 15.1 20.8 15.1 C 20.6 15.2 20.4 15.2 20.3 15.2 C 20.2 15.2 20.1 15.2 20.1 15.1 C 20.1 15.1 20.1 15 20.1 15 C 20.1 15 20 14.9 20 14.9 C 20 14.9 20.1 14.9 20.1 14.8 C 20.1 14.7 20.2 14.5 20.2 14 C 20.3 13.6 20.3 13.4 20.3 13.3 C 20.3 13.3 20.3 13.3 20.3 13.3 C 20.3 13.3 20.3 13.3 20.3 13.3 C 20.2 13.2 20.2 13.2 20.2 13.2 C 20.2 13.2 20.2 13.1 20.2 13.1 C 20.2 13.1 20.3 13.1 20.3 13.1 C 20.3 13.1 20.4 13 20.4 13 C 20.5 13 20.5 13 20.5 13.1 C 20.6 13.1 20.9 13 21.3 13 C 21.5 12.9 21.6 12.9 21.6 12.9 C 21.6 12.9 21.6 12.9 21.6 12.9 C 21.8 12.9 21.9 13 21.9 13.1 C 21.9 13.1 21.8 13.2 21.8 13.2 C 21.8 13.2 21.7 13.2 21.7 13.3 Z M 23.9 14.1 C 23.9 14.2 23.9 14.3 23.8 14.4 C 23.8 14.4 23.8 14.4 23.8 14.4 C 23.8 14.4 23.8 14.5 23.8 14.7 C 23.7 14.8 23.7 14.9 23.7 15 C 23.7 15.1 23.7 15.2 23.7 15.2 C 23.7 15.2 23.7 15.3 23.7 15.3 C 23.7 15.3 23.7 15.4 23.6 15.4 C 23.6 15.4 23.6 15.4 23.5 15.4 C 23.5 15.4 23.4 15.4 23.4 15.3 C 23.4 15.3 23.3 15.3 23.3 15.2 C 23.3 15.2 23.3 15.1 23.4 15 C 23.4 14.9 23.4 14.8 23.4 14.7 C 23.1 14.9 22.8 15.1 22.6 15.1 C 22.4 15.1 22.2 15 22.1 14.9 C 22 14.8 22 14.7 22 14.5 C 22 14.2 22.1 13.9 22.2 13.7 C 22.2 13.7 22.2 13.7 22.2 13.7 C 22.4 13.4 22.6 13.2 22.9 13.1 C 23.1 12.9 23.4 12.8 23.6 12.8 C 23.7 12.8 23.8 12.9 23.9 12.9 C 24 12.9 24 13 24 13.1 C 24 13.1 24 13.2 23.9 13.3 C 23.9 13.3 23.8 13.4 23.8 13.4 C 23.7 13.4 23.7 13.4 23.7 13.4 C 23.7 13.3 23.7 13.3 23.7 13.3 C 23.6 13.2 23.6 13.2 23.6 13.2 C 23.6 13.2 23.5 13.2 23.5 13.2 C 23.3 13.2 23.2 13.2 23 13.4 C 22.8 13.5 22.6 13.7 22.5 13.9 C 22.4 14.1 22.3 14.3 22.3 14.5 C 22.3 14.7 22.4 14.8 22.6 14.8 C 22.7 14.8 22.8 14.7 22.9 14.7 C 23 14.7 23.1 14.6 23.3 14.5 C 23.4 14.4 23.5 14.3 23.5 14.2 C 23.5 14.2 23.6 14.1 23.6 14 C 23.6 13.9 23.6 13.9 23.6 13.9 C 23.7 13.8 23.7 13.8 23.8 13.8 C 23.9 13.8 24 13.9 24 14 C 24 14 23.9 14.1 23.9 14.1 C 23.9 14.1 23.9 14.1 23.9 14.1 Z M 25.1 15.2 C 25 15.2 24.9 15.1 24.8 15.1 C 24.6 15 24.5 14.9 24.4 14.7 C 24.4 14.6 24.3 14.4 24.3 14.2 C 24.3 14.1 24.3 14 24.4 13.9 C 24.4 13.9 24.4 13.6 24.4 13.6 C 24.4 13.5 24.4 13.5 24.4 13.5 C 24.5 13.4 24.5 13.3 24.5 13.3 C 24.5 13.2 24.5 13.1 24.5 13 C 24.6 13 24.6 12.9 24.7 12.9 C 24.7 12.9 24.8 13 24.8 13 C 24.8 13.1 24.9 13.1 24.9 13.2 C 24.9 13.2 24.8 13.3 24.8 13.5 C 24.8 13.5 24.8 13.6 24.7 13.8 C 24.7 14 24.7 14.1 24.7 14.2 C 24.7 14.5 24.7 14.6 24.9 14.7 C 25 14.8 25.1 14.9 25.1 14.9 C 25.4 14.9 25.5 14.8 25.6 14.7 C 25.7 14.6 25.8 14.4 25.8 14.2 C 25.8 14.1 25.8 14.1 25.8 14 C 25.9 13.9 25.9 13.9 25.9 13.8 C 25.9 13.4 25.9 13.2 26 13.1 C 26 13 26.1 13 26.2 13 C 26.3 13 26.3 13.1 26.3 13.2 C 26.3 13.3 26.3 13.4 26.3 13.6 C 26.2 13.7 26.2 13.9 26.2 14 C 26.2 14.3 26.2 14.5 26.1 14.6 C 26 14.8 25.9 14.9 25.7 15 C 25.6 15.1 25.4 15.2 25.1 15.2 Z M 28.2 13.3 C 28.2 13.3 27.8 13.3 27.8 13.3 C 27.6 13.3 27.5 13.3 27.4 13.3 C 27.3 13.3 27.2 13.4 27.2 13.4 C 27.2 13.4 27.2 13.4 27.2 13.5 C 27.2 13.5 27.1 13.6 27.1 13.7 C 27.1 13.8 27.1 13.9 27.1 13.9 C 27.1 13.9 27.2 13.9 27.3 13.9 C 27.5 13.9 27.5 13.9 27.6 13.9 C 27.7 13.9 27.8 13.8 27.9 13.8 C 28.1 13.8 28.1 13.9 28.1 14 C 28.1 14 28.1 14.1 28.1 14.1 C 28 14.1 28 14.2 27.9 14.2 C 27.8 14.2 27.8 14.2 27.7 14.2 C 27.6 14.2 27.6 14.2 27.5 14.2 C 27.3 14.2 27.1 14.3 27.1 14.3 C 27.1 14.3 27.1 14.3 27.1 14.3 C 27 14.3 27 14.3 27 14.3 C 27 14.3 27 14.4 27 14.5 C 27 14.7 27 14.8 27 14.8 C 27 14.8 27 14.9 27 14.9 C 27.1 14.9 27.2 14.8 27.4 14.8 C 27.6 14.8 27.7 14.8 27.8 14.8 C 27.9 14.7 28 14.7 28 14.7 C 28.1 14.7 28.2 14.8 28.2 14.9 C 28.2 14.9 28.2 15 28.2 15 C 28.1 15 27.9 15.1 27.8 15.1 C 27.6 15.1 27.5 15.1 27.3 15.1 C 27.1 15.2 26.9 15.2 26.8 15.2 C 26.7 15.2 26.7 15.2 26.6 15.1 C 26.6 15.1 26.6 15 26.6 15 C 26.6 15 26.6 14.9 26.6 14.9 C 26.6 14.9 26.6 14.9 26.6 14.8 C 26.6 14.7 26.7 14.5 26.7 14 C 26.8 13.6 26.8 13.4 26.8 13.3 C 26.8 13.3 26.8 13.3 26.8 13.3 C 26.8 13.3 26.8 13.3 26.8 13.3 C 26.7 13.2 26.7 13.2 26.7 13.2 C 26.7 13.2 26.7 13.1 26.7 13.1 C 26.7 13.1 26.8 13.1 26.8 13.1 C 26.8 13.1 26.9 13 26.9 13 C 27 13 27 13 27.1 13.1 C 27.1 13.1 27.4 13 27.8 13 C 28 12.9 28.1 12.9 28.1 12.9 C 28.1 12.9 28.1 12.9 28.1 12.9 C 28.3 12.9 28.4 13 28.4 13.1 C 28.4 13.1 28.3 13.2 28.3 13.2 C 28.3 13.2 28.3 13.2 28.2 13.3 Z M 29.7 14.6 C 29.7 14.6 29.84 14.1 29.8 14.1 C 29.9 13.7 30 13.4 30 13.3 C 30 13.2 30 13.2 30 13.1 C 30 13.1 30 13.1 30.1 13.1 C 30.1 13 30.1 13 30.2 13 C 30.2 13 30.2 13 30.3 13 C 30.3 13.1 30.4 13.1 30.4 13.2 C 30.4 13.4 30.5 13.6 30.7 13.9 C 30.9 14.2 31 14.4 31.2 14.6 C 31.2 14.4 31.2 14.2 31.3 13.9 C 31.3 13.7 31.3 13.6 31.4 13.4 C 31.4 13.3 31.4 13.2 31.4 13.1 C 31.4 13 31.4 13 31.5 12.9 C 31.5 12.9 31.6 12.9 31.6 12.9 C 31.7 12.9 31.7 12.9 31.7 13 C 31.8 13 31.8 13.1 31.8 13.1 C 31.8 13.2 31.8 13.3 31.7 13.4 C 31.7 13.6 31.6 13.9 31.6 14.2 C 31.5 14.6 31.5 14.8 31.5 14.8 C 31.5 14.8 31.5 14.9 31.5 14.9 C 31.5 14.9 31.5 15 31.4 15 C 31.4 15 31.4 15.1 31.4 15.1 C 31.3 15.1 31.3 15.1 31.2 15.1 C 31.2 15.1 31.2 15.1 31.2 15.1 C 31.1 15.1 31.1 15.1 31.1 15 C 31.1 15 31 15 31 14.9 C 31 14.8 30.9 14.8 30.9 14.7 C 30.7 14.5 30.4 14.1 30.2 13.7 C 30.2 13.8 30.1 14.1 30.1 14.6 C 30.1 14.6 30.1 14.7 30.1 14.7 C 30.1 14.7 30.1 14.8 30 14.9 C 30 15 30 15.1 30 15.1 C 29.9 15.2 29.9 15.2 29.8 15.2 C 29.8 15.2 29.7 15.2 29.7 15.1 C 29.7 15.1 29.7 15 29.7 14.9 C 29.7 14.9 29.7 14.7 29.7 14.6 C 29.73 14.6 29.7 14.6 29.7 14.6 Z M 33.7 13.3 C 33.7 13.3 33.3 13.3 33.3 13.3 C 33.1 13.3 33 13.3 32.9 13.3 C 32.7 13.3 32.7 13.4 32.7 13.4 C 32.7 13.4 32.7 13.4 32.6 13.5 C 32.6 13.5 32.6 13.6 32.6 13.7 C 32.6 13.8 32.6 13.9 32.6 13.9 C 32.6 13.9 32.7 13.9 32.8 13.9 C 32.9 13.9 33 13.9 33.1 13.9 C 33.2 13.9 33.3 13.8 33.4 13.8 C 33.5 13.8 33.6 13.9 33.6 14 C 33.6 14 33.6 14.1 33.6 14.1 C 33.5 14.1 33.5 14.2 33.4 14.2 C 33.3 14.2 33.2 14.2 33.2 14.2 C 33.1 14.2 33.1 14.2 33 14.2 C 32.8 14.2 32.6 14.3 32.6 14.3 C 32.6 14.3 32.6 14.3 32.6 14.3 C 32.5 14.3 32.5 14.3 32.5 14.3 C 32.5 14.3 32.5 14.4 32.5 14.5 C 32.4 14.7 32.4 14.8 32.4 14.8 C 32.4 14.8 32.5 14.9 32.5 14.9 C 32.6 14.9 32.7 14.8 32.9 14.8 C 33.1 14.8 33.2 14.8 33.2 14.8 C 33.4 14.7 33.5 14.7 33.5 14.7 C 33.6 14.7 33.7 14.8 33.7 14.9 C 33.7 14.9 33.7 15 33.6 15 C 33.6 15 33.4 15.1 33.2 15.1 C 33.1 15.1 32.9 15.1 32.8 15.1 C 32.6 15.2 32.4 15.2 32.3 15.2 C 32.2 15.2 32.1 15.2 32.1 15.1 C 32.1 15.1 32 15 32 15 C 32 15 32 14.9 32 14.9 C 32 14.9 32 14.9 32.1 14.8 C 32.1 14.7 32.1 14.5 32.2 14 C 32.3 13.6 32.3 13.4 32.3 13.3 C 32.3 13.3 32.3 13.3 32.3 13.3 C 32.3 13.3 32.3 13.3 32.2 13.3 C 32.2 13.2 32.2 13.2 32.2 13.2 C 32.2 13.2 32.2 13.1 32.2 13.1 C 32.2 13.1 32.3 13.1 32.3 13.1 C 32.3 13.1 32.4 13 32.4 13 C 32.4 13 32.5 13 32.5 13.1 C 32.6 13.1 32.9 13 33.3 13 C 33.5 12.9 33.6 12.9 33.6 12.9 C 33.6 12.9 33.6 12.9 33.6 12.9 C 33.8 12.9 33.8 13 33.8 13.1 C 33.8 13.1 33.8 13.2 33.8 13.2 C 33.8 13.2 33.7 13.2 33.7 13.3 Z M 36.1 13.6 C 36.1 13.5 36.1 13.5 36.1 13.5 C 36.1 13.5 35.6 14.1 35.6 14.1 C 35.4 14.4 35.2 14.6 35.1 14.6 C 35 14.6 35 14.6 34.9 14.5 C 34.9 14.4 34.8 14.3 34.8 14.2 C 34.8 14.1 34.7 14 34.7 13.9 C 34.7 13.7 34.6 13.6 34.6 13.6 C 34.6 13.6 34.5 14 34.5 14 C 34.5 14.1 34.5 14.2 34.5 14.3 C 34.4 14.5 34.4 14.6 34.4 14.7 C 34.4 14.9 34.3 15 34.3 15 C 34.3 15.1 34.3 15.1 34.3 15.1 C 34.2 15.2 34.2 15.2 34.2 15.2 C 34.1 15.2 34.1 15.1 34 15.1 C 34 15.1 34 15 34 15 C 34 14.9 34 14.8 34 14.6 C 34.2 14 34.3 13.7 34.3 13.5 C 34.3 13.3 34.3 13.2 34.3 13.1 C 34.3 13.1 34.4 13 34.4 13 C 34.5 13 34.5 13 34.6 13 C 34.6 13 34.7 13 34.7 13 C 34.8 13.1 34.8 13.1 34.8 13.2 C 34.79 13.18 34.8 13.2 34.8 13.2 C 34.8 13.2 34.99 13.75 35 13.7 C 35.1 14 35.1 14.1 35.2 14.2 C 35.3 14.1 35.4 13.9 35.6 13.6 C 35.8 13.3 36 13.1 36 13 C 36.1 13 36.2 12.9 36.2 12.9 C 36.3 12.9 36.3 12.9 36.4 13 C 36.4 13 36.5 13.1 36.5 13.1 C 36.5 13.1 36.4 13.3 36.4 13.5 C 36.4 13.7 36.3 13.9 36.3 14.2 C 36.3 14.4 36.3 14.5 36.3 14.6 C 36.3 14.6 36.3 14.7 36.3 14.8 C 36.3 14.8 36.3 14.8 36.3 14.9 C 36.3 15 36.3 15 36.3 15.1 C 36.2 15.1 36.2 15.1 36.1 15.1 C 36 15.1 35.9 15 35.9 14.8 C 35.9 14.7 35.9 14.4 36 14.2 C 36 13.9 36 13.7 36.1 13.6 C 36.1 13.6 36.1 13.6 36.1 13.6 Z M 39.2 14.7 C 39.3 14.6 39.4 14.6 39.4 14.6 C 39.5 14.6 39.5 14.6 39.5 14.7 C 39.5 14.8 39.4 14.9 39.2 15 C 39 15.1 38.8 15.2 38.6 15.2 C 38.4 15.2 38.3 15.1 38.1 15 C 38 14.9 37.9 14.7 37.9 14.5 C 37.9 14.3 38 14 38.1 13.8 C 38.3 13.5 38.5 13.3 38.7 13.1 C 38.9 12.9 39.2 12.8 39.4 12.8 C 39.5 12.8 39.6 12.9 39.7 12.9 C 39.8 13 39.8 13.1 39.8 13.2 C 39.8 13.3 39.8 13.4 39.8 13.5 C 39.8 13.5 39.7 13.6 39.7 13.6 C 39.6 13.6 39.6 13.6 39.5 13.6 C 39.5 13.6 39.5 13.6 39.4 13.6 C 39.4 13.6 39.4 13.5 39.4 13.5 C 39.4 13.5 39.4 13.4 39.4 13.4 C 39.4 13.3 39.4 13.3 39.4 13.2 C 39.4 13.1 39.4 13.1 39.4 13.1 C 39.2 13.1 39.1 13.2 38.9 13.3 C 38.7 13.5 38.6 13.7 38.4 13.9 C 38.3 14.1 38.3 14.3 38.3 14.5 C 38.3 14.6 38.3 14.7 38.4 14.8 C 38.4 14.9 38.5 14.9 38.6 14.9 C 38.7 14.9 38.8 14.9 38.9 14.8 C 39 14.8 39.1 14.7 39.2 14.7 C 39.2 14.7 39.2 14.7 39.2 14.7 Z M 40.4 14.3 C 40.4 14.3 40.4 14.4 40.4 14.7 C 40.4 14.8 40.4 14.9 40.3 15 C 40.3 15.1 40.2 15.2 40.2 15.2 C 40.1 15.2 40.1 15.2 40 15.1 C 40 15.1 40 15 40 15 C 40 14.9 40 14.8 40 14.7 C 40.1 14.4 40.2 13.9 40.2 13.1 C 40.2 13 40.3 13 40.3 13 C 40.3 13 40.4 12.9 40.4 12.9 C 40.5 12.9 40.6 13 40.6 13.2 C 40.6 13.2 40.6 13.4 40.5 13.5 C 40.5 13.7 40.5 13.8 40.5 13.9 C 40.5 13.9 40.5 13.9 40.6 13.9 C 40.7 13.9 40.9 13.9 41.2 13.9 C 41.4 13.9 41.6 13.8 41.6 13.8 C 41.6 13.8 41.6 13.7 41.6 13.5 C 41.7 13.4 41.7 13.2 41.7 13 C 41.7 13 41.7 12.9 41.7 12.9 C 41.8 12.9 41.8 12.8 41.9 12.8 C 41.9 12.8 42 12.9 42 12.9 C 42 12.9 42.1 13 42.1 13 C 42.1 13.1 42 13.2 42 13.4 C 42 13.6 41.9 13.9 41.9 14.2 C 41.9 14.6 41.9 14.8 41.9 14.9 C 41.9 15 41.8 15 41.8 15.1 C 41.7 15.1 41.7 15.2 41.6 15.2 C 41.6 15.2 41.6 15.1 41.5 15.1 C 41.5 15.1 41.5 15 41.5 15 C 41.5 14.9 41.5 14.8 41.5 14.6 C 41.5 14.4 41.5 14.3 41.5 14.2 C 41.5 14.2 41.5 14.2 41.5 14.2 C 41.5 14.2 41.4 14.2 41.2 14.2 C 41.1 14.2 41 14.2 41 14.2 C 40.9 14.2 40.8 14.2 40.7 14.2 C 40.5 14.2 40.4 14.2 40.4 14.3 Z M 44 13.3 C 44 13.3 43.5 13.3 43.5 13.3 C 43.4 13.3 43.2 13.3 43.1 13.3 C 43 13.3 43 13.4 42.9 13.4 C 42.9 13.4 42.9 13.4 42.9 13.5 C 42.9 13.5 42.9 13.6 42.9 13.7 C 42.9 13.8 42.8 13.9 42.8 13.9 C 42.9 13.9 43 13.9 43.1 13.9 C 43.2 13.9 43.3 13.9 43.4 13.9 C 43.5 13.9 43.6 13.8 43.7 13.8 C 43.8 13.8 43.9 13.9 43.9 14 C 43.9 14 43.9 14.1 43.8 14.1 C 43.8 14.1 43.7 14.2 43.6 14.2 C 43.6 14.2 43.5 14.2 43.5 14.2 C 43.4 14.2 43.4 14.2 43.3 14.2 C 43 14.2 42.9 14.3 42.8 14.3 C 42.8 14.3 42.8 14.3 42.8 14.3 C 42.8 14.3 42.8 14.3 42.8 14.3 C 42.8 14.3 42.8 14.4 42.8 14.5 C 42.7 14.7 42.7 14.8 42.7 14.8 C 42.7 14.8 42.7 14.9 42.8 14.9 C 42.8 14.9 43 14.8 43.2 14.8 C 43.4 14.8 43.5 14.8 43.5 14.8 C 43.7 14.7 43.7 14.7 43.8 14.7 C 43.9 14.7 44 14.8 44 14.9 C 44 14.9 44 15 43.9 15 C 43.8 15 43.7 15.1 43.5 15.1 C 43.4 15.1 43.2 15.1 43 15.1 C 42.9 15.2 42.7 15.2 42.6 15.2 C 42.5 15.2 42.4 15.2 42.4 15.1 C 42.4 15.1 42.3 15 42.3 15 C 42.3 15 42.3 14.9 42.3 14.9 C 42.3 14.9 42.3 14.9 42.3 14.8 C 42.4 14.7 42.4 14.5 42.5 14 C 42.5 13.6 42.6 13.4 42.6 13.3 C 42.6 13.3 42.6 13.3 42.6 13.3 C 42.6 13.3 42.5 13.3 42.5 13.3 C 42.5 13.2 42.5 13.2 42.5 13.2 C 42.5 13.2 42.5 13.1 42.5 13.1 C 42.5 13.1 42.5 13.1 42.6 13.1 C 42.6 13.1 42.6 13 42.7 13 C 42.7 13 42.8 13 42.8 13.1 C 42.9 13.1 43.2 13 43.6 13 C 43.8 12.9 43.8 12.9 43.8 12.9 C 43.8 12.9 43.9 12.9 43.9 12.9 C 44 12.9 44.1 13 44.1 13.1 C 44.1 13.1 44.1 13.2 44.1 13.2 C 44 13.2 44 13.2 44 13.3 Z M 46.2 14.1 C 46.2 14.2 46.1 14.3 46.1 14.4 C 46.1 14.4 46.1 14.4 46.1 14.4 C 46.1 14.4 46.1 14.5 46 14.7 C 46 14.8 46 14.9 46 15 C 46 15.1 46 15.2 46 15.2 C 46 15.2 46 15.3 46 15.3 C 46 15.3 45.9 15.4 45.9 15.4 C 45.9 15.4 45.9 15.4 45.8 15.4 C 45.8 15.4 45.7 15.4 45.7 15.3 C 45.6 15.3 45.6 15.3 45.6 15.2 C 45.6 15.2 45.6 15.1 45.6 15 C 45.7 14.9 45.7 14.8 45.7 14.7 C 45.4 14.9 45.1 15.1 44.8 15.1 C 44.7 15.1 44.5 15 44.4 14.9 C 44.3 14.8 44.3 14.7 44.3 14.5 C 44.3 14.2 44.3 13.9 44.5 13.7 C 44.5 13.7 44.5 13.7 44.5 13.7 C 44.7 13.4 44.9 13.2 45.1 13.1 C 45.4 12.9 45.6 12.8 45.9 12.8 C 46 12.8 46.1 12.9 46.2 12.9 C 46.2 12.9 46.3 13 46.3 13.1 C 46.3 13.1 46.3 13.2 46.2 13.3 C 46.2 13.3 46.1 13.4 46.1 13.4 C 46 13.4 46 13.4 46 13.4 C 46 13.3 46 13.3 45.9 13.3 C 45.9 13.2 45.9 13.2 45.9 13.2 C 45.8 13.2 45.8 13.2 45.8 13.2 C 45.6 13.2 45.4 13.2 45.3 13.4 C 45.1 13.5 44.9 13.7 44.8 13.9 C 44.7 14.1 44.6 14.3 44.6 14.5 C 44.6 14.7 44.7 14.8 44.9 14.8 C 44.9 14.8 45 14.7 45.2 14.7 C 45.3 14.7 45.4 14.6 45.5 14.5 C 45.7 14.4 45.8 14.3 45.8 14.2 C 45.8 14.2 45.8 14.1 45.8 14 C 45.9 13.9 45.9 13.9 45.9 13.9 C 45.9 13.8 46 13.8 46 13.8 C 46.2 13.8 46.2 13.9 46.2 14 C 46.2 14 46.2 14.1 46.2 14.1 C 46.2 14.1 46.2 14.1 46.2 14.1 Z M 47 14.6 C 47 14.6 47 14.6 47 14.6 C 46.9 14.6 46.9 14.7 46.8 14.9 C 46.7 15 46.7 15.1 46.6 15.1 C 46.6 15.1 46.6 15.1 46.5 15.1 C 46.5 15.1 46.5 15.1 46.4 15.1 C 46.4 15 46.3 15 46.3 15 C 46.3 14.9 46.5 14.7 46.7 14.3 C 46.8 14.1 47 13.9 47.1 13.7 C 47.3 13.3 47.4 13.1 47.5 13 C 47.5 13 47.6 12.9 47.6 12.9 C 47.7 12.9 47.8 12.9 47.8 13 C 47.8 13 47.8 13 47.8 13.1 C 47.8 13.1 47.8 13.2 47.8 13.2 C 48 13.7 48.1 14.1 48.2 14.3 C 48.3 14.6 48.4 14.7 48.5 14.8 C 48.6 14.9 48.6 14.9 48.6 14.9 C 48.7 14.9 48.7 15 48.7 15 C 48.7 15.1 48.6 15.1 48.6 15.1 C 48.6 15.2 48.5 15.2 48.5 15.2 C 48.4 15.2 48.3 15.1 48.2 15.1 C 48.2 15 48.1 14.9 48 14.7 C 48 14.6 47.9 14.5 47.9 14.5 C 47.9 14.5 47.9 14.4 47.9 14.4 C 47.9 14.4 47.7 14.5 47.6 14.5 C 47.4 14.5 47.2 14.6 47.1 14.6 C 47.1 14.6 47.1 14.6 47 14.6 C 47 14.6 47 14.6 47 14.6 Z M 47.7 14.2 C 47.7 14.2 47.8 14.2 47.8 14.2 C 47.8 14.1 47.7 13.9 47.6 13.5 C 47.6 13.5 47.6 13.5 47.6 13.5 C 47.6 13.5 47.2 14.3 47.2 14.3 C 47.2 14.3 47.3 14.2 47.3 14.2 C 47.4 14.2 47.5 14.2 47.7 14.2 C 47.7 14.2 47.7 14.2 47.7 14.2 Z M 49 13.3 C 49 13.3 49.02 13.28 49 13.3 C 49 13.2 49 13.2 49 13.2 C 49 13.1 49 13.1 49 13 C 49.1 13 49.1 13 49.2 13 C 49.2 13 49.2 13 49.2 13 C 49.3 13 49.3 13 49.3 13 C 49.6 13 49.8 12.9 49.9 12.9 C 50.1 12.9 50.3 13 50.4 13.1 C 50.5 13.2 50.6 13.3 50.6 13.5 C 50.6 13.6 50.5 13.8 50.4 13.9 C 50.3 14 50.1 14.1 49.9 14.2 C 50.3 14.5 50.5 14.7 50.7 14.8 C 50.8 14.8 50.8 14.9 50.8 14.9 C 50.8 15 50.8 15 50.7 15 C 50.7 15.1 50.6 15.1 50.6 15.1 C 50.6 15.1 50.5 15.1 50.4 15 C 50.3 15 50.2 14.9 50.1 14.8 C 50 14.7 49.9 14.6 49.9 14.6 C 49.7 14.5 49.6 14.4 49.5 14.3 C 49.4 14.3 49.3 14.3 49.3 14.1 C 49.3 14.1 49.3 14.1 49.4 14 C 49.4 14 49.5 14 49.6 14 C 49.6 14 49.6 14 49.6 14 C 49.6 14 49.6 14 49.6 14 C 49.7 14 49.8 13.9 50 13.8 C 50.2 13.7 50.2 13.6 50.2 13.5 C 50.2 13.4 50.2 13.3 50.1 13.3 C 50.1 13.2 50 13.2 49.9 13.2 C 49.7 13.2 49.6 13.2 49.6 13.2 C 49.5 13.3 49.4 13.3 49.4 13.3 C 49.4 13.3 49.4 13.3 49.4 13.3 C 49.4 13.3 49.4 13.4 49.3 13.6 C 49.3 13.8 49.3 14 49.2 14.2 C 49.2 14.4 49.2 14.6 49.2 14.7 C 49.2 14.7 49.2 14.8 49.2 14.8 C 49.2 14.9 49.2 14.9 49.2 15 C 49.2 15 49.2 15 49.2 15.1 C 49.1 15.1 49.1 15.1 49 15.1 C 48.9 15.1 48.8 15.1 48.8 14.9 C 48.8 14.7 48.8 14.5 48.9 14.2 C 48.9 14 49 13.7 49 13.5 C 49 13.5 49 13.4 49 13.4 C 49.02 13.41 49 13.3 49 13.3 Z M 52.6 14.6 C 52.5 14.6 52.5 14.6 52.5 14.6 C 52.5 14.6 52.4 14.7 52.3 14.9 C 52.2 15 52.2 15.1 52.2 15.1 C 52.1 15.1 52.1 15.1 52.1 15.1 C 52 15.1 52 15.1 51.9 15.1 C 51.9 15 51.9 15 51.9 15 C 51.9 14.9 52 14.7 52.2 14.3 C 52.4 14.1 52.5 13.9 52.6 13.7 C 52.8 13.3 53 13.1 53 13 C 53.1 13 53.1 12.9 53.2 12.9 C 53.2 12.9 53.3 12.9 53.3 13 C 53.4 13 53.4 13 53.4 13.1 C 53.4 13.1 53.4 13.2 53.4 13.2 C 53.5 13.7 53.7 14.1 53.8 14.3 C 53.9 14.6 54 14.7 54.1 14.8 C 54.1 14.9 54.2 14.9 54.2 14.9 C 54.2 14.9 54.2 15 54.2 15 C 54.2 15.1 54.2 15.1 54.1 15.1 C 54.1 15.2 54 15.2 54 15.2 C 53.9 15.2 53.8 15.1 53.8 15.1 C 53.7 15 53.6 14.9 53.5 14.7 C 53.5 14.6 53.4 14.5 53.4 14.5 C 53.4 14.5 53.4 14.4 53.4 14.4 C 53.4 14.4 53.3 14.5 53.1 14.5 C 52.9 14.5 52.8 14.6 52.6 14.6 C 52.6 14.6 52.6 14.6 52.6 14.6 C 52.6 14.6 52.6 14.6 52.6 14.6 Z M 53.2 14.2 C 53.2 14.2 53.3 14.2 53.3 14.2 C 53.3 14.1 53.2 13.9 53.1 13.5 C 53.1 13.5 53.1 13.5 53.1 13.5 C 53.1 13.5 52.7 14.3 52.7 14.3 C 52.7 14.3 52.8 14.2 52.9 14.2 C 52.9 14.2 53 14.2 53.2 14.2 C 53.2 14.2 53.2 14.2 53.2 14.2 Z M 55.8 13.3 C 55.6 13.3 55.4 13.3 55.3 13.3 C 55.3 13.3 55.3 13.4 55.3 13.4 C 55.3 13.4 55.3 13.6 55.2 13.9 C 55.2 14.2 55.2 14.4 55.2 14.6 C 55.2 14.7 55.2 14.8 55.2 14.9 C 55.2 14.9 55.2 14.9 55.2 14.9 C 55.2 15 55.2 15 55.2 15.1 C 55.1 15.1 55.1 15.1 55 15.1 C 55 15.1 55 15.1 54.9 15.1 C 54.9 15 54.8 15 54.8 14.9 C 54.8 14.8 54.8 14.7 54.8 14.6 C 54.8 14.5 54.8 14.2 54.9 13.9 C 54.9 13.5 54.9 13.4 54.9 13.4 C 54.9 13.4 54.8 13.4 54.6 13.4 C 54.4 13.4 54.3 13.4 54.3 13.4 C 54.2 13.4 54.1 13.4 54.1 13.4 C 54 13.3 54 13.3 54 13.3 C 54 13.2 54 13.2 54.1 13.1 C 54.1 13.1 54.2 13.1 54.4 13.1 C 54.7 13.1 54.9 13.1 55.2 13 C 55.5 13 55.8 13 55.9 13 C 56.1 13 56.2 13 56.2 13 C 56.3 13.1 56.3 13.1 56.3 13.2 C 56.3 13.3 56.2 13.3 56.2 13.3 C 56.1 13.3 56.1 13.3 56 13.3 C 56 13.3 55.9 13.3 55.8 13.3 C 55.8 13.3 55.8 13.3 55.8 13.3 Z M 57.8 13.3 C 57.8 13.3 57.4 13.3 57.4 13.3 C 57.2 13.3 57.1 13.3 56.9 13.3 C 56.8 13.3 56.8 13.4 56.8 13.4 C 56.8 13.4 56.7 13.4 56.7 13.5 C 56.7 13.5 56.7 13.6 56.7 13.7 C 56.7 13.8 56.7 13.9 56.6 13.9 C 56.7 13.9 56.8 13.9 56.9 13.9 C 57 13.9 57.1 13.9 57.2 13.9 C 57.3 13.9 57.4 13.8 57.5 13.8 C 57.6 13.8 57.7 13.9 57.7 14 C 57.7 14 57.7 14.1 57.7 14.1 C 57.6 14.1 57.5 14.2 57.5 14.2 C 57.4 14.2 57.3 14.2 57.3 14.2 C 57.2 14.2 57.2 14.2 57.1 14.2 C 56.9 14.2 56.7 14.3 56.6 14.3 C 56.6 14.3 56.6 14.3 56.6 14.3 C 56.6 14.3 56.6 14.3 56.6 14.3 C 56.6 14.3 56.6 14.4 56.6 14.5 C 56.5 14.7 56.5 14.8 56.5 14.8 C 56.5 14.8 56.6 14.9 56.6 14.9 C 56.6 14.9 56.8 14.8 57 14.8 C 57.2 14.8 57.3 14.8 57.3 14.8 C 57.5 14.7 57.6 14.7 57.6 14.7 C 57.7 14.7 57.8 14.8 57.8 14.9 C 57.8 14.9 57.8 15 57.7 15 C 57.6 15 57.5 15.1 57.3 15.1 C 57.2 15.1 57 15.1 56.9 15.1 C 56.7 15.2 56.5 15.2 56.4 15.2 C 56.3 15.2 56.2 15.2 56.2 15.1 C 56.2 15.1 56.1 15 56.1 15 C 56.1 15 56.1 14.9 56.1 14.9 C 56.1 14.9 56.1 14.9 56.2 14.8 C 56.2 14.7 56.2 14.5 56.3 14 C 56.4 13.6 56.4 13.4 56.4 13.3 C 56.4 13.3 56.4 13.3 56.4 13.3 C 56.4 13.3 56.4 13.3 56.3 13.3 C 56.3 13.2 56.3 13.2 56.3 13.2 C 56.3 13.2 56.3 13.1 56.3 13.1 C 56.3 13.1 56.4 13.1 56.4 13.1 C 56.4 13.1 56.5 13 56.5 13 C 56.5 13 56.6 13 56.6 13.1 C 56.7 13.1 57 13 57.4 13 C 57.6 12.9 57.7 12.9 57.7 12.9 C 57.7 12.9 57.7 12.9 57.7 12.9 C 57.9 12.9 57.9 13 57.9 13.1 C 57.9 13.1 57.9 13.2 57.9 13.2 C 57.9 13.2 57.8 13.2 57.8 13.3 Z M 57.7 12.3 C 57.7 12.4 57.6 12.4 57.5 12.5 C 57.5 12.5 57.5 12.5 57.5 12.5 C 57.5 12.5 57.4 12.6 57.3 12.7 C 57.2 12.7 57.2 12.7 57.2 12.7 C 57.2 12.8 57.2 12.8 57.1 12.8 C 57.1 12.8 57.1 12.7 57.1 12.7 C 57 12.7 57 12.7 57 12.6 C 57 12.6 57.1 12.5 57.2 12.4 C 57.2 12.4 57.2 12.4 57.2 12.4 C 57.3 12.4 57.3 12.3 57.3 12.3 C 57.5 12.2 57.6 12.1 57.7 12.1 C 57.7 12 57.7 12 57.8 12 C 57.8 12 57.8 12 57.8 12.1 C 57.9 12.1 57.9 12.2 57.9 12.2 C 57.9 12.2 57.9 12.2 57.9 12.3 C 57.8 12.3 57.8 12.3 57.7 12.3 C 57.7 12.3 57.7 12.3 57.7 12.3 Z M 60.9 13.3 C 60.9 13.3 60.5 13.3 60.5 13.3 C 60.3 13.3 60.2 13.3 60.1 13.3 C 60 13.3 59.9 13.4 59.9 13.4 C 59.9 13.4 59.9 13.4 59.9 13.5 C 59.9 13.5 59.8 13.6 59.8 13.7 C 59.8 13.8 59.8 13.9 59.8 13.9 C 59.8 13.9 59.9 13.9 60 13.9 C 60.2 13.9 60.2 13.9 60.3 13.9 C 60.4 13.9 60.5 13.8 60.6 13.8 C 60.8 13.8 60.9 13.9 60.9 14 C 60.9 14 60.8 14.1 60.8 14.1 C 60.7 14.1 60.7 14.2 60.6 14.2 C 60.5 14.2 60.5 14.2 60.4 14.2 C 60.4 14.2 60.3 14.2 60.3 14.2 C 60 14.2 59.8 14.3 59.8 14.3 C 59.8 14.3 59.8 14.3 59.8 14.3 C 59.8 14.3 59.7 14.3 59.7 14.3 C 59.7 14.3 59.7 14.4 59.7 14.5 C 59.7 14.7 59.7 14.8 59.7 14.8 C 59.7 14.8 59.7 14.9 59.7 14.9 C 59.8 14.9 59.9 14.8 60.1 14.8 C 60.3 14.8 60.4 14.8 60.5 14.8 C 60.6 14.7 60.7 14.7 60.7 14.7 C 60.9 14.7 60.9 14.8 60.9 14.9 C 60.9 14.9 60.9 15 60.9 15 C 60.8 15 60.6 15.1 60.5 15.1 C 60.3 15.1 60.2 15.1 60 15.1 C 59.8 15.2 59.7 15.2 59.5 15.2 C 59.4 15.2 59.4 15.2 59.3 15.1 C 59.3 15.1 59.3 15 59.3 15 C 59.3 15 59.3 14.9 59.3 14.9 C 59.3 14.9 59.3 14.9 59.3 14.8 C 59.3 14.7 59.4 14.5 59.4 14 C 59.5 13.6 59.5 13.4 59.5 13.3 C 59.5 13.3 59.5 13.3 59.5 13.3 C 59.5 13.3 59.5 13.3 59.5 13.3 C 59.5 13.2 59.4 13.2 59.4 13.2 C 59.4 13.2 59.4 13.1 59.5 13.1 C 59.5 13.1 59.5 13.1 59.5 13.1 C 59.6 13.1 59.6 13 59.6 13 C 59.7 13 59.7 13 59.8 13.1 C 59.8 13.1 60.1 13 60.6 13 C 60.7 12.9 60.8 12.9 60.8 12.9 C 60.8 12.9 60.8 12.9 60.8 12.9 C 61 12.9 61.1 13 61.1 13.1 C 61.1 13.1 61.1 13.2 61 13.2 C 61 13.2 61 13.2 60.9 13.3 Z M 62.7 15 C 62.6 15 62.6 15 62.5 15 C 62.5 15 62.4 15 62.4 15 C 62.1 15 61.9 15 61.6 15.1 C 61.5 15.1 61.5 15.2 61.4 15.2 C 61.4 15.2 61.3 15.1 61.3 15.1 C 61.2 15 61.2 15 61.2 15 C 61.2 14.9 61.2 14.9 61.3 14.8 C 61.3 14.7 61.3 14.6 61.3 14.5 C 61.3 14.5 61.4 13.3 61.4 13.3 C 61.5 13.2 61.5 13.1 61.5 13.1 C 61.5 13 61.5 13 61.5 13 C 61.6 13 61.6 12.9 61.7 12.9 C 61.7 12.9 61.8 13 61.8 13 C 61.8 13 61.8 13.1 61.8 13.1 C 61.8 13.1 61.8 13.2 61.8 13.3 C 61.8 13.4 61.8 13.7 61.7 14.1 C 61.7 14.5 61.6 14.7 61.6 14.7 C 61.6 14.7 61.7 14.8 61.7 14.8 C 61.7 14.8 61.8 14.7 62 14.7 C 62 14.7 62.1 14.7 62.2 14.7 C 62.4 14.7 62.6 14.7 62.7 14.6 C 62.7 14.6 62.7 14.6 62.8 14.6 C 62.8 14.6 62.8 14.6 62.9 14.7 C 62.9 14.7 62.9 14.7 62.9 14.8 C 62.9 14.9 62.9 14.9 62.8 14.9 C 62.8 15 62.7 15 62.7 15 Z M 64.7 13.3 C 64.7 13.3 64.3 13.3 64.3 13.3 C 64.1 13.3 64 13.3 63.9 13.3 C 63.8 13.3 63.7 13.4 63.7 13.4 C 63.7 13.4 63.7 13.4 63.7 13.5 C 63.7 13.5 63.7 13.6 63.6 13.7 C 63.6 13.8 63.6 13.9 63.6 13.9 C 63.6 13.9 63.7 13.9 63.9 13.9 C 64 13.9 64.1 13.9 64.1 13.9 C 64.2 13.9 64.4 13.8 64.4 13.8 C 64.6 13.8 64.7 13.9 64.7 14 C 64.7 14 64.6 14.1 64.6 14.1 C 64.6 14.1 64.5 14.2 64.4 14.2 C 64.3 14.2 64.3 14.2 64.2 14.2 C 64.2 14.2 64.1 14.2 64.1 14.2 C 63.8 14.2 63.6 14.3 63.6 14.3 C 63.6 14.3 63.6 14.3 63.6 14.3 C 63.6 14.3 63.6 14.3 63.5 14.3 C 63.5 14.3 63.5 14.4 63.5 14.5 C 63.5 14.7 63.5 14.8 63.5 14.8 C 63.5 14.8 63.5 14.9 63.5 14.9 C 63.6 14.9 63.7 14.8 63.9 14.8 C 64.1 14.8 64.2 14.8 64.3 14.8 C 64.4 14.7 64.5 14.7 64.5 14.7 C 64.7 14.7 64.7 14.8 64.7 14.9 C 64.7 14.9 64.7 15 64.7 15 C 64.6 15 64.4 15.1 64.3 15.1 C 64.1 15.1 64 15.1 63.8 15.1 C 63.6 15.2 63.5 15.2 63.3 15.2 C 63.2 15.2 63.2 15.2 63.1 15.1 C 63.1 15.1 63.1 15 63.1 15 C 63.1 15 63.1 14.9 63.1 14.9 C 63.1 14.9 63.1 14.9 63.1 14.8 C 63.1 14.7 63.2 14.5 63.2 14 C 63.3 13.6 63.3 13.4 63.3 13.3 C 63.3 13.3 63.3 13.3 63.3 13.3 C 63.3 13.3 63.3 13.3 63.3 13.3 C 63.3 13.2 63.3 13.2 63.3 13.2 C 63.3 13.2 63.3 13.1 63.3 13.1 C 63.3 13.1 63.3 13.1 63.3 13.1 C 63.4 13.1 63.4 13 63.4 13 C 63.5 13 63.5 13 63.6 13.1 C 63.7 13.1 63.9 13 64.4 13 C 64.5 12.9 64.6 12.9 64.6 12.9 C 64.6 12.9 64.6 12.9 64.6 12.9 C 64.8 12.9 64.9 13 64.9 13.1 C 64.9 13.1 64.9 13.2 64.8 13.2 C 64.8 13.2 64.8 13.2 64.7 13.3 Z M 66.7 13.2 C 66.7 13.4 66.6 13.5 66.4 13.5 C 66.4 13.4 66.4 13.3 66.3 13.3 C 66.3 13.3 66.2 13.2 66.1 13.2 C 65.9 13.2 65.8 13.3 65.6 13.4 C 65.5 13.4 65.4 13.5 65.4 13.6 C 65.4 13.7 65.5 13.7 65.5 13.8 C 65.6 13.8 65.7 13.9 65.9 13.9 C 66.2 14 66.3 14.1 66.4 14.2 C 66.6 14.2 66.6 14.3 66.6 14.5 C 66.6 14.6 66.5 14.8 66.2 15 C 65.9 15.1 65.6 15.2 65.3 15.2 C 65.2 15.2 65.1 15.2 65.1 15.2 C 65 15.1 65 15.1 65 15 C 65 14.9 65 14.9 65 14.9 C 65 14.8 65.1 14.8 65.1 14.8 C 65.1 14.8 65.1 14.8 65.2 14.8 C 65.3 14.9 65.4 14.9 65.5 14.9 C 65.6 14.9 65.8 14.8 66 14.7 C 66.2 14.7 66.2 14.6 66.2 14.5 C 66.2 14.5 66.2 14.4 66.2 14.4 C 66.1 14.4 66 14.3 65.9 14.3 C 65.7 14.2 65.5 14.1 65.4 14.1 C 65.3 14.1 65.2 14 65.2 13.9 C 65.1 13.9 65.1 13.8 65.1 13.7 C 65.1 13.5 65.2 13.3 65.4 13.2 C 65.6 13 65.9 12.9 66.2 12.9 C 66.3 12.9 66.4 13 66.5 13 C 66.6 13.1 66.7 13.2 66.7 13.2 C 66.7 13.2 66.7 13.2 66.7 13.2 Z M 67 15 C 67 15 66.9 15 66.9 15 C 66.9 15 66.8 14.9 66.8 14.8 C 66.8 14.8 66.8 14.7 66.8 14.7 C 66.9 14.7 66.9 14.6 66.9 14.6 C 67 14.6 67 14.6 67.1 14.6 C 67.2 14.6 67.2 14.6 67.2 14.6 C 67.3 14.7 67.3 14.7 67.3 14.7 C 67.3 14.8 67.3 14.8 67.3 14.9 C 67.2 14.9 67.2 14.9 67.2 15 C 67.1 15 67 15 67 15 Z M 67.7 15 C 67.6 15 67.6 15 67.6 15 C 67.5 15 67.5 14.9 67.5 14.8 C 67.5 14.8 67.5 14.7 67.5 14.7 C 67.5 14.7 67.6 14.6 67.6 14.6 C 67.6 14.6 67.7 14.6 67.8 14.6 C 67.9 14.6 67.9 14.6 67.9 14.6 C 68 14.7 68 14.7 68 14.7 C 68 14.8 68 14.8 67.9 14.9 C 67.9 14.9 67.9 14.9 67.8 15 C 67.8 15 67.7 15 67.7 15 Z M 68.4 15 C 68.3 15 68.3 15 68.3 15 C 68.2 15 68.2 14.9 68.2 14.8 C 68.2 14.8 68.2 14.7 68.2 14.7 C 68.2 14.7 68.3 14.6 68.3 14.6 C 68.3 14.6 68.4 14.6 68.5 14.6 C 68.5 14.6 68.6 14.6 68.6 14.6 C 68.6 14.7 68.7 14.7 68.7 14.7 C 68.7 14.8 68.7 14.8 68.6 14.9 C 68.6 14.9 68.6 14.9 68.5 15 C 68.5 15 68.4 15 68.4 15 Z " stroke="none" fill="#000"/>  </g>  <g id="Polygon14425">    <path d="M 3 9.2 C 3 9.4 2.9 9.5 2.7 9.5 C 2.7 9.4 2.7 9.3 2.7 9.3 C 2.6 9.3 2.5 9.2 2.4 9.2 C 2.3 9.2 2.1 9.3 2 9.4 C 1.8 9.4 1.8 9.5 1.8 9.6 C 1.8 9.7 1.8 9.7 1.8 9.8 C 1.9 9.8 2 9.9 2.3 9.9 C 2.5 10 2.7 10.1 2.8 10.2 C 2.9 10.2 2.9 10.3 2.9 10.5 C 2.9 10.6 2.8 10.8 2.5 11 C 2.2 11.1 1.9 11.2 1.6 11.2 C 1.5 11.2 1.4 11.2 1.4 11.2 C 1.3 11.1 1.3 11.1 1.3 11 C 1.3 10.9 1.3 10.9 1.3 10.9 C 1.4 10.8 1.4 10.8 1.4 10.8 C 1.4 10.8 1.5 10.8 1.5 10.8 C 1.6 10.9 1.7 10.9 1.8 10.9 C 1.9 10.9 2.1 10.8 2.3 10.7 C 2.5 10.7 2.6 10.6 2.6 10.5 C 2.6 10.5 2.5 10.4 2.5 10.4 C 2.5 10.4 2.4 10.3 2.2 10.3 C 2 10.2 1.8 10.1 1.7 10.1 C 1.6 10.1 1.5 10 1.5 9.9 C 1.4 9.9 1.4 9.8 1.4 9.7 C 1.4 9.5 1.5 9.3 1.7 9.2 C 1.9 9 2.2 8.9 2.5 8.9 C 2.6 8.9 2.8 9 2.9 9 C 3 9.1 3 9.2 3 9.2 C 3 9.2 3 9.2 3 9.2 Z M 3.8 9.6 C 3.7 9.7 3.7 9.8 3.7 9.8 C 3.7 9.9 3.7 9.9 3.7 10.1 C 3.7 10.3 3.6 10.4 3.6 10.5 C 3.6 10.6 3.6 10.7 3.7 10.9 C 3.7 11 3.7 11 3.6 11.1 C 3.6 11.1 3.5 11.1 3.5 11.1 C 3.4 11.1 3.3 11.1 3.3 11 C 3.3 11 3.3 10.9 3.3 10.7 C 3.3 10.6 3.3 10.4 3.3 10.1 C 3.3 10.1 3.4 9.5 3.4 9.5 C 3.4 9.4 3.4 9.3 3.4 9.3 C 3.5 9.1 3.5 9.1 3.5 9.1 C 3.5 9 3.5 9 3.6 9 C 3.6 9 3.7 8.9 3.7 8.9 C 3.7 8.9 3.8 9 3.8 9 C 3.8 9.1 3.9 9.1 3.9 9.2 C 3.9 9.2 3.8 9.6 3.8 9.6 Z M 5.7 9.2 C 5.7 9.4 5.7 9.5 5.5 9.5 C 5.5 9.4 5.4 9.3 5.4 9.3 C 5.3 9.3 5.3 9.2 5.2 9.2 C 5 9.2 4.9 9.3 4.7 9.4 C 4.6 9.4 4.5 9.5 4.5 9.6 C 4.5 9.7 4.5 9.7 4.6 9.8 C 4.6 9.8 4.8 9.9 5 9.9 C 5.2 10 5.4 10.1 5.5 10.2 C 5.6 10.2 5.7 10.3 5.7 10.5 C 5.7 10.6 5.5 10.8 5.2 11 C 5 11.1 4.7 11.2 4.4 11.2 C 4.3 11.2 4.2 11.2 4.1 11.2 C 4 11.1 4 11.1 4 11 C 4 10.9 4 10.9 4.1 10.9 C 4.1 10.8 4.1 10.8 4.2 10.8 C 4.2 10.8 4.2 10.8 4.2 10.8 C 4.3 10.9 4.4 10.9 4.5 10.9 C 4.7 10.9 4.8 10.8 5 10.7 C 5.2 10.7 5.3 10.6 5.3 10.5 C 5.3 10.5 5.3 10.4 5.2 10.4 C 5.2 10.4 5.1 10.3 4.9 10.3 C 4.7 10.2 4.6 10.1 4.5 10.1 C 4.4 10.1 4.3 10 4.2 9.9 C 4.2 9.9 4.1 9.8 4.1 9.7 C 4.1 9.5 4.3 9.3 4.5 9.2 C 4.7 9 4.9 8.9 5.2 8.9 C 5.4 8.9 5.5 9 5.6 9 C 5.7 9.1 5.7 9.2 5.7 9.2 C 5.7 9.2 5.7 9.2 5.7 9.2 Z M 7.6 9.3 C 7.3 9.3 7.2 9.3 7.1 9.3 C 7.1 9.3 7.1 9.4 7.1 9.4 C 7.1 9.4 7 9.6 7 9.9 C 7 10.2 7 10.4 7 10.6 C 7 10.7 7 10.8 7 10.9 C 7 10.9 7 10.9 7 10.9 C 7 11 7 11 6.9 11.1 C 6.9 11.1 6.9 11.1 6.8 11.1 C 6.8 11.1 6.7 11.1 6.7 11.1 C 6.6 11 6.6 11 6.6 10.9 C 6.6 10.8 6.6 10.7 6.6 10.6 C 6.6 10.5 6.6 10.2 6.7 9.9 C 6.7 9.5 6.7 9.4 6.7 9.4 C 6.7 9.4 6.6 9.4 6.4 9.4 C 6.2 9.4 6.1 9.4 6.1 9.4 C 6 9.4 5.9 9.4 5.9 9.4 C 5.8 9.3 5.8 9.3 5.8 9.3 C 5.8 9.2 5.8 9.2 5.9 9.1 C 5.9 9.1 6 9.1 6.2 9.1 C 6.5 9.1 6.7 9.1 7 9 C 7.3 9 7.5 9 7.7 9 C 7.9 9 8 9 8 9 C 8 9.1 8.1 9.1 8.1 9.2 C 8.1 9.3 8 9.3 7.9 9.3 C 7.9 9.3 7.9 9.3 7.8 9.3 C 7.7 9.3 7.7 9.3 7.6 9.3 C 7.6 9.3 7.6 9.3 7.6 9.3 Z M 9.6 9.3 C 9.6 9.3 9.1 9.3 9.1 9.3 C 9 9.3 8.8 9.3 8.7 9.3 C 8.6 9.3 8.6 9.4 8.5 9.4 C 8.5 9.4 8.5 9.4 8.5 9.5 C 8.5 9.5 8.5 9.6 8.5 9.7 C 8.4 9.8 8.4 9.9 8.4 9.9 C 8.5 9.9 8.6 9.9 8.7 9.9 C 8.8 9.9 8.9 9.9 8.9 9.9 C 9.1 9.9 9.2 9.8 9.3 9.8 C 9.4 9.8 9.5 9.9 9.5 10 C 9.5 10 9.5 10.1 9.4 10.1 C 9.4 10.1 9.3 10.2 9.2 10.2 C 9.2 10.2 9.1 10.2 9 10.2 C 9 10.2 9 10.2 8.9 10.2 C 8.6 10.2 8.5 10.3 8.4 10.3 C 8.4 10.3 8.4 10.3 8.4 10.3 C 8.4 10.3 8.4 10.3 8.4 10.3 C 8.4 10.3 8.4 10.4 8.3 10.5 C 8.3 10.7 8.3 10.8 8.3 10.8 C 8.3 10.8 8.3 10.9 8.4 10.9 C 8.4 10.9 8.6 10.8 8.8 10.8 C 9 10.8 9.1 10.8 9.1 10.8 C 9.3 10.7 9.3 10.7 9.4 10.7 C 9.5 10.7 9.6 10.8 9.6 10.9 C 9.6 10.9 9.6 11 9.5 11 C 9.4 11 9.3 11.1 9.1 11.1 C 9 11.1 8.8 11.1 8.6 11.1 C 8.5 11.2 8.3 11.2 8.2 11.2 C 8.1 11.2 8 11.2 8 11.1 C 7.9 11.1 7.9 11 7.9 11 C 7.9 11 7.9 10.9 7.9 10.9 C 7.9 10.9 7.9 10.9 7.9 10.8 C 8 10.7 8 10.5 8.1 10 C 8.1 9.6 8.2 9.4 8.2 9.3 C 8.2 9.3 8.2 9.3 8.2 9.3 C 8.2 9.3 8.1 9.3 8.1 9.3 C 8.1 9.2 8.1 9.2 8.1 9.2 C 8.1 9.2 8.1 9.1 8.1 9.1 C 8.1 9.1 8.1 9.1 8.2 9.1 C 8.2 9.1 8.2 9 8.3 9 C 8.3 9 8.4 9 8.4 9.1 C 8.5 9.1 8.8 9 9.2 9 C 9.4 8.9 9.4 8.9 9.4 8.9 C 9.4 8.9 9.5 8.9 9.5 8.9 C 9.6 8.9 9.7 9 9.7 9.1 C 9.7 9.1 9.7 9.2 9.7 9.2 C 9.6 9.2 9.6 9.2 9.6 9.3 Z M 12 9.6 C 12 9.5 12 9.5 12 9.5 C 12 9.5 11.5 10.1 11.5 10.1 C 11.3 10.4 11.1 10.6 11 10.6 C 10.9 10.6 10.9 10.6 10.8 10.5 C 10.8 10.4 10.7 10.3 10.7 10.2 C 10.6 10.1 10.6 10 10.6 9.9 C 10.5 9.7 10.5 9.6 10.5 9.6 C 10.5 9.6 10.4 10 10.4 10 C 10.4 10.1 10.4 10.2 10.3 10.3 C 10.3 10.5 10.3 10.6 10.3 10.7 C 10.2 10.9 10.2 11 10.2 11 C 10.2 11.1 10.2 11.1 10.1 11.1 C 10.1 11.2 10.1 11.2 10 11.2 C 10 11.2 10 11.1 9.9 11.1 C 9.9 11.1 9.9 11 9.9 11 C 9.9 10.9 9.9 10.8 9.9 10.6 C 10.1 10 10.2 9.7 10.2 9.5 C 10.2 9.3 10.2 9.2 10.2 9.1 C 10.2 9.1 10.2 9 10.3 9 C 10.3 9 10.4 9 10.5 9 C 10.5 9 10.5 9 10.6 9 C 10.6 9.1 10.7 9.1 10.7 9.2 C 10.67 9.18 10.7 9.2 10.7 9.2 C 10.7 9.2 10.87 9.75 10.9 9.7 C 11 10 11 10.1 11 10.2 C 11.1 10.1 11.3 9.9 11.5 9.6 C 11.7 9.3 11.9 9.1 11.9 9 C 12 9 12.1 8.9 12.1 8.9 C 12.1 8.9 12.2 8.9 12.2 9 C 12.3 9 12.3 9.1 12.3 9.1 C 12.3 9.1 12.3 9.3 12.3 9.5 C 12.3 9.7 12.2 9.9 12.2 10.2 C 12.2 10.4 12.2 10.5 12.2 10.6 C 12.2 10.6 12.2 10.7 12.2 10.8 C 12.2 10.8 12.2 10.8 12.2 10.9 C 12.2 11 12.2 11 12.2 11.1 C 12.1 11.1 12.1 11.1 12 11.1 C 11.9 11.1 11.8 11 11.8 10.8 C 11.8 10.7 11.8 10.4 11.9 10.2 C 11.9 9.9 11.9 9.7 12 9.6 C 12 9.6 12 9.6 12 9.6 Z M 13.2 10.6 C 13.1 10.6 13.1 10.6 13.1 10.6 C 13 10.6 13 10.7 12.9 10.9 C 12.8 11 12.8 11.1 12.7 11.1 C 12.7 11.1 12.7 11.1 12.6 11.1 C 12.6 11.1 12.6 11.1 12.5 11.1 C 12.5 11 12.4 11 12.4 11 C 12.4 10.9 12.6 10.7 12.8 10.3 C 12.9 10.1 13.1 9.9 13.2 9.7 C 13.4 9.3 13.5 9.1 13.6 9 C 13.6 9 13.7 8.9 13.7 8.9 C 13.8 8.9 13.9 8.9 13.9 9 C 13.9 9 13.9 9 13.9 9.1 C 13.9 9.1 13.9 9.2 13.9 9.2 C 14.1 9.7 14.3 10.1 14.4 10.3 C 14.5 10.6 14.6 10.7 14.7 10.8 C 14.7 10.9 14.7 10.9 14.8 10.9 C 14.8 10.9 14.8 11 14.8 11 C 14.8 11.1 14.7 11.1 14.7 11.1 C 14.7 11.2 14.6 11.2 14.6 11.2 C 14.5 11.2 14.4 11.1 14.3 11.1 C 14.3 11 14.2 10.9 14.1 10.7 C 14.1 10.6 14 10.5 14 10.5 C 14 10.5 14 10.4 14 10.4 C 14 10.4 13.8 10.5 13.7 10.5 C 13.5 10.5 13.3 10.6 13.2 10.6 C 13.2 10.6 13.2 10.6 13.2 10.6 C 13.2 10.6 13.2 10.6 13.2 10.6 Z M 13.8 10.2 C 13.8 10.2 13.9 10.2 13.9 10.2 C 13.9 10.1 13.8 9.9 13.7 9.5 C 13.7 9.5 13.7 9.5 13.7 9.5 C 13.7 9.5 13.3 10.3 13.3 10.3 C 13.3 10.3 13.4 10.2 13.5 10.2 C 13.5 10.2 13.6 10.2 13.8 10.2 C 13.8 10.2 13.8 10.2 13.8 10.2 Z M 17.8 9.3 C 17.8 9.3 17.3 9.3 17.3 9.3 C 17.1 9.3 17 9.3 16.9 9.3 C 16.8 9.3 16.7 9.4 16.7 9.4 C 16.7 9.4 16.7 9.4 16.7 9.5 C 16.7 9.5 16.7 9.6 16.6 9.7 C 16.6 9.8 16.6 9.9 16.6 9.9 C 16.7 9.9 16.7 9.9 16.9 9.9 C 17 9.9 17.1 9.9 17.1 9.9 C 17.3 9.9 17.4 9.8 17.4 9.8 C 17.6 9.8 17.7 9.9 17.7 10 C 17.7 10 17.6 10.1 17.6 10.1 C 17.6 10.1 17.5 10.2 17.4 10.2 C 17.3 10.2 17.3 10.2 17.2 10.2 C 17.2 10.2 17.1 10.2 17.1 10.2 C 16.8 10.2 16.6 10.3 16.6 10.3 C 16.6 10.3 16.6 10.3 16.6 10.3 C 16.6 10.3 16.6 10.3 16.6 10.3 C 16.5 10.3 16.5 10.4 16.5 10.5 C 16.5 10.7 16.5 10.8 16.5 10.8 C 16.5 10.8 16.5 10.9 16.5 10.9 C 16.6 10.9 16.7 10.8 16.9 10.8 C 17.1 10.8 17.2 10.8 17.3 10.8 C 17.4 10.7 17.5 10.7 17.6 10.7 C 17.7 10.7 17.7 10.8 17.7 10.9 C 17.7 10.9 17.7 11 17.7 11 C 17.6 11 17.5 11.1 17.3 11.1 C 17.2 11.1 17 11.1 16.8 11.1 C 16.6 11.2 16.5 11.2 16.3 11.2 C 16.2 11.2 16.2 11.2 16.1 11.1 C 16.1 11.1 16.1 11 16.1 11 C 16.1 11 16.1 10.9 16.1 10.9 C 16.1 10.9 16.1 10.9 16.1 10.8 C 16.1 10.7 16.2 10.5 16.2 10 C 16.3 9.6 16.3 9.4 16.3 9.3 C 16.3 9.3 16.3 9.3 16.3 9.3 C 16.3 9.3 16.3 9.3 16.3 9.3 C 16.3 9.2 16.3 9.2 16.3 9.2 C 16.3 9.2 16.3 9.1 16.3 9.1 C 16.3 9.1 16.3 9.1 16.3 9.1 C 16.4 9.1 16.4 9 16.4 9 C 16.5 9 16.5 9 16.6 9.1 C 16.7 9.1 16.9 9 17.4 9 C 17.5 8.9 17.6 8.9 17.6 8.9 C 17.6 8.9 17.6 8.9 17.6 8.9 C 17.8 8.9 17.9 9 17.9 9.1 C 17.9 9.1 17.9 9.2 17.8 9.2 C 17.8 9.2 17.8 9.2 17.8 9.3 Z M 19.5 11 C 19.5 11 19.4 11 19.4 11 C 19.3 11 19.3 11 19.2 11 C 19 11 18.7 11 18.5 11.1 C 18.4 11.1 18.3 11.2 18.2 11.2 C 18.2 11.2 18.1 11.1 18.1 11.1 C 18.1 11 18.1 11 18.1 11 C 18.1 10.9 18.1 10.9 18.1 10.8 C 18.1 10.7 18.1 10.6 18.1 10.5 C 18.1 10.5 18.3 9.3 18.3 9.3 C 18.3 9.2 18.3 9.1 18.3 9.1 C 18.3 9 18.3 9 18.4 9 C 18.4 9 18.4 8.9 18.5 8.9 C 18.5 8.9 18.6 9 18.6 9 C 18.7 9 18.7 9.1 18.7 9.1 C 18.7 9.1 18.7 9.2 18.6 9.3 C 18.6 9.4 18.6 9.7 18.5 10.1 C 18.5 10.5 18.5 10.7 18.5 10.7 C 18.5 10.7 18.5 10.8 18.5 10.8 C 18.5 10.8 18.6 10.7 18.8 10.7 C 18.9 10.7 18.9 10.7 19 10.7 C 19.3 10.7 19.4 10.7 19.5 10.6 C 19.5 10.6 19.6 10.6 19.6 10.6 C 19.6 10.6 19.7 10.6 19.7 10.7 C 19.7 10.7 19.7 10.7 19.7 10.8 C 19.7 10.9 19.7 10.9 19.7 10.9 C 19.6 11 19.6 11 19.5 11 Z M 21.6 9.3 C 21.6 9.3 21.1 9.3 21.1 9.3 C 21 9.3 20.8 9.3 20.7 9.3 C 20.6 9.3 20.5 9.4 20.5 9.4 C 20.5 9.4 20.5 9.4 20.5 9.5 C 20.5 9.5 20.5 9.6 20.4 9.7 C 20.4 9.8 20.4 9.9 20.4 9.9 C 20.5 9.9 20.6 9.9 20.7 9.9 C 20.8 9.9 20.9 9.9 20.9 9.9 C 21.1 9.9 21.2 9.8 21.2 9.8 C 21.4 9.8 21.5 9.9 21.5 10 C 21.5 10 21.5 10.1 21.4 10.1 C 21.4 10.1 21.3 10.2 21.2 10.2 C 21.2 10.2 21.1 10.2 21 10.2 C 21 10.2 20.9 10.2 20.9 10.2 C 20.6 10.2 20.5 10.3 20.4 10.3 C 20.4 10.3 20.4 10.3 20.4 10.3 C 20.4 10.3 20.4 10.3 20.4 10.3 C 20.4 10.3 20.3 10.4 20.3 10.5 C 20.3 10.7 20.3 10.8 20.3 10.8 C 20.3 10.8 20.3 10.9 20.4 10.9 C 20.4 10.9 20.5 10.8 20.7 10.8 C 20.9 10.8 21 10.8 21.1 10.8 C 21.2 10.7 21.3 10.7 21.4 10.7 C 21.5 10.7 21.5 10.8 21.5 10.9 C 21.5 10.9 21.5 11 21.5 11 C 21.4 11 21.3 11.1 21.1 11.1 C 21 11.1 20.8 11.1 20.6 11.1 C 20.4 11.2 20.3 11.2 20.1 11.2 C 20 11.2 20 11.2 20 11.1 C 19.9 11.1 19.9 11 19.9 11 C 19.9 11 19.9 10.9 19.9 10.9 C 19.9 10.9 19.9 10.9 19.9 10.8 C 20 10.7 20 10.5 20.1 10 C 20.1 9.6 20.1 9.4 20.1 9.3 C 20.1 9.3 20.1 9.3 20.1 9.3 C 20.1 9.3 20.1 9.3 20.1 9.3 C 20.1 9.2 20.1 9.2 20.1 9.2 C 20.1 9.2 20.1 9.1 20.1 9.1 C 20.1 9.1 20.1 9.1 20.1 9.1 C 20.2 9.1 20.2 9 20.3 9 C 20.3 9 20.3 9 20.4 9.1 C 20.5 9.1 20.7 9 21.2 9 C 21.3 8.9 21.4 8.9 21.4 8.9 C 21.4 8.9 21.4 8.9 21.4 8.9 C 21.6 8.9 21.7 9 21.7 9.1 C 21.7 9.1 21.7 9.2 21.7 9.2 C 21.6 9.2 21.6 9.2 21.6 9.3 Z M 22.4 9.6 C 22.4 9.7 22.4 9.8 22.4 9.8 C 22.4 9.9 22.3 9.9 22.3 10.1 C 22.3 10.3 22.3 10.4 22.3 10.5 C 22.3 10.6 22.3 10.7 22.3 10.9 C 22.3 11 22.3 11 22.2 11.1 C 22.2 11.1 22.1 11.1 22.1 11.1 C 22 11.1 22 11.1 22 11 C 21.9 11 21.9 10.9 21.9 10.7 C 21.9 10.6 21.9 10.4 22 10.1 C 22 10.1 22.1 9.5 22.1 9.5 C 22.1 9.4 22.1 9.3 22.1 9.3 C 22.1 9.1 22.1 9.1 22.1 9.1 C 22.2 9 22.2 9 22.2 9 C 22.3 9 22.3 8.9 22.3 8.9 C 22.4 8.9 22.4 9 22.5 9 C 22.5 9.1 22.5 9.1 22.5 9.2 C 22.5 9.2 22.4 9.6 22.4 9.6 Z M 24.4 9.3 C 24.1 9.3 24 9.3 23.9 9.3 C 23.9 9.3 23.9 9.4 23.9 9.4 C 23.8 9.4 23.8 9.6 23.8 9.9 C 23.8 10.2 23.7 10.4 23.7 10.6 C 23.7 10.7 23.8 10.8 23.8 10.9 C 23.8 10.9 23.8 10.9 23.8 10.9 C 23.8 11 23.8 11 23.7 11.1 C 23.7 11.1 23.7 11.1 23.6 11.1 C 23.6 11.1 23.5 11.1 23.5 11.1 C 23.4 11 23.4 11 23.4 10.9 C 23.4 10.8 23.4 10.7 23.4 10.6 C 23.4 10.5 23.4 10.2 23.4 9.9 C 23.5 9.5 23.5 9.4 23.5 9.4 C 23.5 9.4 23.4 9.4 23.2 9.4 C 23 9.4 22.9 9.4 22.9 9.4 C 22.8 9.4 22.7 9.4 22.6 9.4 C 22.6 9.3 22.6 9.3 22.6 9.3 C 22.6 9.2 22.6 9.2 22.6 9.1 C 22.7 9.1 22.8 9.1 23 9.1 C 23.2 9.1 23.5 9.1 23.8 9 C 24.1 9 24.3 9 24.5 9 C 24.7 9 24.8 9 24.8 9 C 24.8 9.1 24.9 9.1 24.9 9.2 C 24.9 9.3 24.8 9.3 24.7 9.3 C 24.7 9.3 24.7 9.3 24.6 9.3 C 24.5 9.3 24.5 9.3 24.4 9.3 C 24.4 9.3 24.4 9.3 24.4 9.3 Z M 25.3 11.2 C 25.1 11.2 25 11.1 24.8 10.9 C 24.7 10.8 24.7 10.6 24.7 10.4 C 24.7 10.2 24.7 10 24.8 9.8 C 25 9.5 25.1 9.3 25.3 9.2 C 25.5 9 25.7 8.9 25.9 8.9 C 26.1 8.9 26.2 9 26.3 9 C 26.4 9 26.5 9.1 26.6 9.2 C 26.7 9.2 26.8 9.3 26.8 9.4 C 26.8 9.5 26.8 9.6 26.8 9.7 C 26.8 9.9 26.8 10 26.7 10.2 C 26.6 10.4 26.5 10.5 26.4 10.7 C 26.2 10.8 26.1 11 25.9 11 C 25.7 11.1 25.5 11.2 25.3 11.2 Z M 25 10.4 C 25 10.6 25.1 10.7 25.1 10.7 C 25.2 10.8 25.3 10.9 25.4 10.9 C 25.6 10.9 25.9 10.7 26.1 10.5 C 26.3 10.2 26.5 10 26.5 9.7 C 26.5 9.6 26.4 9.5 26.4 9.4 C 26.4 9.4 26.3 9.3 26.2 9.3 C 26.1 9.2 26 9.2 25.9 9.2 C 25.7 9.2 25.5 9.4 25.3 9.6 C 25.1 9.9 25 10.2 25 10.4 Z M 27.3 9.3 C 27.3 9.3 27.24 9.28 27.2 9.3 C 27.2 9.2 27.2 9.2 27.2 9.2 C 27.2 9.1 27.2 9.1 27.3 9 C 27.3 9 27.4 9 27.4 9 C 27.4 9 27.4 9 27.5 9 C 27.5 9 27.5 9 27.5 9 C 27.8 9 28 8.9 28.1 8.9 C 28.3 8.9 28.5 9 28.6 9.1 C 28.8 9.2 28.8 9.3 28.8 9.5 C 28.8 9.6 28.8 9.8 28.6 9.9 C 28.5 10 28.3 10.1 28.1 10.2 C 28.5 10.5 28.8 10.7 28.9 10.8 C 29 10.8 29 10.9 29 10.9 C 29 11 29 11 29 11 C 28.9 11.1 28.9 11.1 28.8 11.1 C 28.8 11.1 28.7 11.1 28.6 11 C 28.6 11 28.5 10.9 28.3 10.8 C 28.2 10.7 28.1 10.6 28.1 10.6 C 27.9 10.5 27.8 10.4 27.7 10.3 C 27.6 10.3 27.5 10.3 27.5 10.1 C 27.5 10.1 27.6 10.1 27.6 10 C 27.7 10 27.7 10 27.8 10 C 27.8 10 27.8 10 27.8 10 C 27.8 10 27.9 10 27.9 10 C 27.9 10 28 9.9 28.2 9.8 C 28.4 9.7 28.5 9.6 28.5 9.5 C 28.5 9.4 28.4 9.3 28.4 9.3 C 28.3 9.2 28.2 9.2 28.1 9.2 C 28 9.2 27.9 9.2 27.8 9.2 C 27.7 9.3 27.7 9.3 27.6 9.3 C 27.6 9.3 27.6 9.3 27.6 9.3 C 27.6 9.3 27.6 9.4 27.6 9.6 C 27.5 9.8 27.5 10 27.5 10.2 C 27.4 10.4 27.4 10.6 27.4 10.7 C 27.4 10.7 27.4 10.8 27.4 10.8 C 27.4 10.9 27.5 10.9 27.5 11 C 27.5 11 27.4 11 27.4 11.1 C 27.3 11.1 27.3 11.1 27.3 11.1 C 27.1 11.1 27.1 11.1 27.1 10.9 C 27.1 10.7 27.1 10.5 27.1 10.2 C 27.1 10 27.2 9.7 27.2 9.5 C 27.2 9.5 27.2 9.4 27.2 9.4 C 27.24 9.41 27.3 9.3 27.3 9.3 Z M 29.7 10.6 C 29.6 10.6 29.6 10.6 29.6 10.6 C 29.5 10.6 29.5 10.7 29.4 10.9 C 29.3 11 29.3 11.1 29.2 11.1 C 29.2 11.1 29.2 11.1 29.1 11.1 C 29.1 11.1 29.1 11.1 29 11.1 C 29 11 28.9 11 28.9 11 C 28.9 10.9 29.1 10.7 29.3 10.3 C 29.4 10.1 29.6 9.9 29.7 9.7 C 29.9 9.3 30 9.1 30.1 9 C 30.1 9 30.2 8.9 30.2 8.9 C 30.3 8.9 30.4 8.9 30.4 9 C 30.4 9 30.4 9 30.4 9.1 C 30.4 9.1 30.4 9.2 30.4 9.2 C 30.6 9.7 30.8 10.1 30.9 10.3 C 31 10.6 31.1 10.7 31.2 10.8 C 31.2 10.9 31.2 10.9 31.3 10.9 C 31.3 10.9 31.3 11 31.3 11 C 31.3 11.1 31.2 11.1 31.2 11.1 C 31.2 11.2 31.1 11.2 31.1 11.2 C 31 11.2 30.9 11.1 30.8 11.1 C 30.8 11 30.7 10.9 30.6 10.7 C 30.6 10.6 30.5 10.5 30.5 10.5 C 30.5 10.5 30.5 10.4 30.5 10.4 C 30.5 10.4 30.3 10.5 30.2 10.5 C 30 10.5 29.8 10.6 29.7 10.6 C 29.7 10.6 29.7 10.6 29.7 10.6 C 29.7 10.6 29.7 10.6 29.7 10.6 Z M 30.3 10.2 C 30.3 10.2 30.4 10.2 30.4 10.2 C 30.4 10.1 30.3 9.9 30.2 9.5 C 30.2 9.5 30.2 9.5 30.2 9.5 C 30.2 9.5 29.8 10.3 29.8 10.3 C 29.8 10.3 29.9 10.2 30 10.2 C 30 10.2 30.1 10.2 30.3 10.2 C 30.3 10.2 30.3 10.2 30.3 10.2 Z M 32.9 11 C 32.8 11 32.8 11 32.7 11 C 32.7 11 32.6 11 32.6 11 C 32.3 11 32.1 11 31.8 11.1 C 31.7 11.1 31.7 11.2 31.6 11.2 C 31.6 11.2 31.5 11.1 31.5 11.1 C 31.4 11 31.4 11 31.4 11 C 31.4 10.9 31.4 10.9 31.5 10.8 C 31.5 10.7 31.5 10.6 31.5 10.5 C 31.5 10.5 31.6 9.3 31.6 9.3 C 31.6 9.2 31.7 9.1 31.7 9.1 C 31.7 9 31.7 9 31.7 9 C 31.8 9 31.8 8.9 31.9 8.9 C 31.9 8.9 32 9 32 9 C 32 9 32 9.1 32 9.1 C 32 9.1 32 9.2 32 9.3 C 32 9.4 32 9.7 31.9 10.1 C 31.9 10.5 31.8 10.7 31.8 10.7 C 31.8 10.7 31.8 10.8 31.9 10.8 C 31.9 10.8 32 10.7 32.2 10.7 C 32.2 10.7 32.3 10.7 32.4 10.7 C 32.6 10.7 32.8 10.7 32.9 10.6 C 32.9 10.6 32.9 10.6 32.9 10.6 C 33 10.6 33 10.6 33.1 10.7 C 33.1 10.7 33.1 10.7 33.1 10.8 C 33.1 10.9 33.1 10.9 33 10.9 C 33 11 32.9 11 32.9 11 Z M 34.9 10.6 C 34.8 10.6 34.8 10.6 34.8 10.6 C 34.8 10.6 34.7 10.7 34.6 10.9 C 34.6 11 34.5 11.1 34.5 11.1 C 34.4 11.1 34.4 11.1 34.4 11.1 C 34.3 11.1 34.3 11.1 34.2 11.1 C 34.2 11 34.2 11 34.2 11 C 34.2 10.9 34.3 10.7 34.5 10.3 C 34.7 10.1 34.8 9.9 34.9 9.7 C 35.1 9.3 35.3 9.1 35.3 9 C 35.4 9 35.4 8.9 35.5 8.9 C 35.5 8.9 35.6 8.9 35.6 9 C 35.7 9 35.7 9 35.7 9.1 C 35.7 9.1 35.7 9.2 35.7 9.2 C 35.8 9.7 36 10.1 36.1 10.3 C 36.2 10.6 36.3 10.7 36.4 10.8 C 36.4 10.9 36.5 10.9 36.5 10.9 C 36.5 10.9 36.5 11 36.5 11 C 36.5 11.1 36.5 11.1 36.4 11.1 C 36.4 11.2 36.4 11.2 36.3 11.2 C 36.2 11.2 36.1 11.1 36.1 11.1 C 36 11 35.9 10.9 35.9 10.7 C 35.8 10.6 35.8 10.5 35.8 10.5 C 35.8 10.5 35.8 10.4 35.7 10.4 C 35.7 10.4 35.6 10.5 35.4 10.5 C 35.2 10.5 35.1 10.6 35 10.6 C 34.9 10.6 34.9 10.6 34.9 10.6 C 34.9 10.6 34.9 10.6 34.9 10.6 Z M 35.5 10.2 C 35.6 10.2 35.6 10.2 35.6 10.2 C 35.6 10.1 35.5 9.9 35.4 9.5 C 35.4 9.5 35.4 9.5 35.4 9.5 C 35.4 9.5 35 10.3 35 10.3 C 35.1 10.3 35.1 10.2 35.2 10.2 C 35.2 10.2 35.3 10.2 35.5 10.2 C 35.5 10.2 35.5 10.2 35.5 10.2 Z M 38.1 9.3 C 37.9 9.3 37.7 9.3 37.6 9.3 C 37.6 9.3 37.6 9.4 37.6 9.4 C 37.6 9.4 37.6 9.6 37.5 9.9 C 37.5 10.2 37.5 10.4 37.5 10.6 C 37.5 10.7 37.5 10.8 37.5 10.9 C 37.5 10.9 37.5 10.9 37.5 10.9 C 37.5 11 37.5 11 37.5 11.1 C 37.4 11.1 37.4 11.1 37.3 11.1 C 37.3 11.1 37.3 11.1 37.2 11.1 C 37.2 11 37.1 11 37.1 10.9 C 37.1 10.8 37.1 10.7 37.1 10.6 C 37.1 10.5 37.1 10.2 37.2 9.9 C 37.2 9.5 37.2 9.4 37.3 9.4 C 37.2 9.4 37.1 9.4 36.9 9.4 C 36.7 9.4 36.6 9.4 36.6 9.4 C 36.5 9.4 36.4 9.4 36.4 9.4 C 36.3 9.3 36.3 9.3 36.3 9.3 C 36.3 9.2 36.3 9.2 36.4 9.1 C 36.4 9.1 36.5 9.1 36.7 9.1 C 37 9.1 37.3 9.1 37.5 9 C 37.8 9 38.1 9 38.2 9 C 38.4 9 38.5 9 38.5 9 C 38.6 9.1 38.6 9.1 38.6 9.2 C 38.6 9.3 38.6 9.3 38.5 9.3 C 38.4 9.3 38.4 9.3 38.3 9.3 C 38.3 9.3 38.2 9.3 38.1 9.3 C 38.1 9.3 38.1 9.3 38.1 9.3 Z M 39.3 11.2 C 39.2 11.2 39.1 11.1 38.9 11.1 C 38.8 11 38.7 10.9 38.6 10.7 C 38.5 10.6 38.5 10.4 38.5 10.2 C 38.5 10.1 38.5 10 38.5 9.9 C 38.5 9.9 38.6 9.6 38.6 9.6 C 38.6 9.5 38.6 9.5 38.6 9.5 C 38.6 9.4 38.6 9.3 38.6 9.3 C 38.6 9.2 38.7 9.1 38.7 9 C 38.7 9 38.8 8.9 38.9 8.9 C 38.9 8.9 38.9 9 39 9 C 39 9.1 39 9.1 39 9.2 C 39 9.2 39 9.3 38.9 9.5 C 38.9 9.5 38.9 9.6 38.9 9.8 C 38.9 10 38.8 10.1 38.8 10.2 C 38.8 10.5 38.9 10.6 39 10.7 C 39.1 10.8 39.2 10.9 39.3 10.9 C 39.5 10.9 39.7 10.8 39.8 10.7 C 39.9 10.6 40 10.4 40 10.2 C 40 10.1 40 10.1 40 10 C 40 9.9 40 9.9 40 9.8 C 40 9.4 40.1 9.2 40.1 9.1 C 40.2 9 40.2 9 40.3 9 C 40.4 9 40.5 9.1 40.5 9.2 C 40.5 9.3 40.4 9.4 40.4 9.6 C 40.4 9.7 40.4 9.9 40.4 10 C 40.3 10.3 40.3 10.5 40.2 10.6 C 40.2 10.8 40.1 10.9 39.9 11 C 39.7 11.1 39.5 11.2 39.3 11.2 Z M 41.2 10.6 C 41.1 10.6 41.1 10.6 41.1 10.6 C 41.1 10.6 41 10.7 40.9 10.9 C 40.8 11 40.8 11.1 40.7 11.1 C 40.7 11.1 40.7 11.1 40.7 11.1 C 40.6 11.1 40.6 11.1 40.5 11.1 C 40.5 11 40.5 11 40.5 11 C 40.5 10.9 40.6 10.7 40.8 10.3 C 41 10.1 41.1 9.9 41.2 9.7 C 41.4 9.3 41.5 9.1 41.6 9 C 41.6 9 41.7 8.9 41.7 8.9 C 41.8 8.9 41.9 8.9 41.9 9 C 41.9 9 42 9 42 9.1 C 42 9.1 41.9 9.2 41.9 9.2 C 42.1 9.7 42.3 10.1 42.4 10.3 C 42.5 10.6 42.6 10.7 42.7 10.8 C 42.7 10.9 42.7 10.9 42.8 10.9 C 42.8 10.9 42.8 11 42.8 11 C 42.8 11.1 42.8 11.1 42.7 11.1 C 42.7 11.2 42.6 11.2 42.6 11.2 C 42.5 11.2 42.4 11.1 42.4 11.1 C 42.3 11 42.2 10.9 42.1 10.7 C 42.1 10.6 42 10.5 42 10.5 C 42 10.5 42 10.4 42 10.4 C 42 10.4 41.9 10.5 41.7 10.5 C 41.5 10.5 41.3 10.6 41.2 10.6 C 41.2 10.6 41.2 10.6 41.2 10.6 C 41.2 10.6 41.2 10.6 41.2 10.6 Z M 41.8 10.2 C 41.8 10.2 41.9 10.2 41.9 10.2 C 41.9 10.1 41.8 9.9 41.7 9.5 C 41.7 9.5 41.7 9.5 41.7 9.5 C 41.7 9.5 41.3 10.3 41.3 10.3 C 41.3 10.3 41.4 10.2 41.5 10.2 C 41.5 10.2 41.6 10.2 41.8 10.2 C 41.8 10.2 41.8 10.2 41.8 10.2 Z M 44.4 11 C 44.3 11 44.3 11 44.2 11 C 44.2 11 44.1 11 44.1 11 C 43.9 11 43.6 11 43.3 11.1 C 43.2 11.1 43.2 11.2 43.1 11.2 C 43.1 11.2 43 11.1 43 11.1 C 42.9 11 42.9 11 42.9 11 C 42.9 10.9 42.9 10.9 43 10.8 C 43 10.7 43 10.6 43 10.5 C 43 10.5 43.1 9.3 43.1 9.3 C 43.2 9.2 43.2 9.1 43.2 9.1 C 43.2 9 43.2 9 43.2 9 C 43.3 9 43.3 8.9 43.4 8.9 C 43.4 8.9 43.5 9 43.5 9 C 43.5 9 43.6 9.1 43.6 9.1 C 43.6 9.1 43.5 9.2 43.5 9.3 C 43.5 9.4 43.5 9.7 43.4 10.1 C 43.4 10.5 43.3 10.7 43.3 10.7 C 43.3 10.7 43.4 10.8 43.4 10.8 C 43.4 10.8 43.5 10.7 43.7 10.7 C 43.7 10.7 43.8 10.7 43.9 10.7 C 44.1 10.7 44.3 10.7 44.4 10.6 C 44.4 10.6 44.4 10.6 44.5 10.6 C 44.5 10.6 44.5 10.6 44.6 10.7 C 44.6 10.7 44.6 10.7 44.6 10.8 C 44.6 10.9 44.6 10.9 44.5 10.9 C 44.5 11 44.4 11 44.4 11 Z M 44.7 11.3 C 44.7 11.3 44.7 11.3 44.8 11.3 C 44.8 11.3 44.9 11.2 45 11.2 C 45 11.1 45.1 11.1 45.1 11 C 45.1 11 45.2 10.9 45.2 10.9 C 45.2 10.9 45.1 10.8 45.1 10.8 C 45.1 10.7 45.1 10.7 45.1 10.7 C 45.1 10.7 45.1 10.6 45.1 10.6 C 45.2 10.6 45.2 10.5 45.2 10.5 C 45.2 10.5 45.3 10.6 45.3 10.6 C 45.4 10.6 45.4 10.6 45.4 10.6 C 45.4 10.7 45.5 10.7 45.5 10.8 C 45.5 10.8 45.5 10.9 45.5 10.9 C 45.5 10.9 45.5 11 45.4 11.1 C 45.4 11.2 45.3 11.2 45.3 11.3 C 45.2 11.3 45.1 11.4 45.1 11.4 C 45.1 11.4 45.1 11.4 45.1 11.4 C 44.9 11.4 44.9 11.4 44.8 11.4 C 44.8 11.4 44.7 11.4 44.7 11.3 C 44.7 11.3 44.7 11.3 44.7 11.3 Z M 47.4 11.2 C 47.3 11.2 47.1 11.1 47 10.9 C 46.9 10.8 46.8 10.6 46.8 10.4 C 46.8 10.2 46.9 10 47 9.8 C 47.1 9.5 47.3 9.3 47.5 9.2 C 47.7 9 47.9 8.9 48.1 8.9 C 48.2 8.9 48.4 9 48.5 9 C 48.6 9 48.7 9.1 48.8 9.2 C 48.9 9.2 48.9 9.3 48.9 9.4 C 49 9.5 49 9.6 49 9.7 C 49 9.9 49 10 48.9 10.2 C 48.8 10.4 48.7 10.5 48.5 10.7 C 48.4 10.8 48.2 11 48.1 11 C 47.9 11.1 47.7 11.2 47.4 11.2 Z M 47.2 10.4 C 47.2 10.6 47.2 10.7 47.3 10.7 C 47.4 10.8 47.4 10.9 47.5 10.9 C 47.8 10.9 48 10.7 48.3 10.5 C 48.5 10.2 48.6 10 48.6 9.7 C 48.6 9.6 48.6 9.5 48.6 9.4 C 48.5 9.4 48.5 9.3 48.4 9.3 C 48.3 9.2 48.2 9.2 48.1 9.2 C 47.9 9.2 47.7 9.4 47.5 9.6 C 47.3 9.9 47.2 10.2 47.2 10.4 Z M 49.3 10.6 C 49.3 10.6 49.38 10.1 49.4 10.1 C 49.5 9.7 49.5 9.4 49.5 9.3 C 49.5 9.2 49.5 9.2 49.5 9.1 C 49.5 9.1 49.6 9.1 49.6 9.1 C 49.6 9 49.7 9 49.7 9 C 49.7 9 49.8 9 49.8 9 C 49.9 9.1 49.9 9.1 49.9 9.2 C 50 9.4 50.1 9.6 50.2 9.9 C 50.4 10.2 50.6 10.4 50.7 10.6 C 50.7 10.4 50.8 10.2 50.8 9.9 C 50.8 9.7 50.9 9.6 50.9 9.4 C 50.9 9.3 50.9 9.2 50.9 9.1 C 51 9 51 9 51 8.9 C 51.1 8.9 51.1 8.9 51.2 8.9 C 51.2 8.9 51.2 8.9 51.3 9 C 51.3 9 51.3 9.1 51.3 9.1 C 51.3 9.2 51.3 9.3 51.3 9.4 C 51.2 9.6 51.1 9.9 51.1 10.2 C 51 10.6 51 10.8 51 10.8 C 51 10.8 51 10.9 51 10.9 C 51 10.9 51 11 51 11 C 51 11 51 11.1 50.9 11.1 C 50.9 11.1 50.8 11.1 50.8 11.1 C 50.7 11.1 50.7 11.1 50.7 11.1 C 50.7 11.1 50.7 11.1 50.6 11 C 50.6 11 50.6 11 50.5 10.9 C 50.5 10.8 50.5 10.8 50.4 10.7 C 50.2 10.5 50 10.1 49.8 9.7 C 49.7 9.8 49.7 10.1 49.6 10.6 C 49.6 10.6 49.6 10.7 49.6 10.7 C 49.6 10.7 49.6 10.8 49.6 10.9 C 49.6 11 49.6 11.1 49.5 11.1 C 49.5 11.2 49.4 11.2 49.4 11.2 C 49.3 11.2 49.3 11.2 49.2 11.1 C 49.2 11.1 49.2 11 49.2 10.9 C 49.2 10.9 49.2 10.7 49.3 10.6 C 49.27 10.6 49.3 10.6 49.3 10.6 Z M 51.7 10.8 C 51.7 10.8 51.7 10.7 51.7 10.6 C 51.7 10.2 51.7 9.9 51.8 9.5 C 51.8 9.4 51.8 9.4 51.8 9.3 C 51.8 9.3 51.8 9.3 51.8 9.3 C 51.7 9.3 51.6 9.2 51.6 9.2 C 51.6 9.1 51.7 9.1 51.7 9 C 51.8 9 51.8 9 51.8 9 C 51.8 9 52 9 52 9 C 52.1 9 52.3 9 52.4 9 C 52.5 8.9 52.7 8.9 52.7 8.9 C 53 8.9 53.2 9 53.4 9.2 C 53.6 9.3 53.7 9.5 53.7 9.8 C 53.7 10.1 53.5 10.3 53.3 10.5 C 53 10.8 52.7 10.9 52.3 11 C 52.2 11 52.2 11 52.1 11.1 C 52.1 11.1 52 11.1 52 11.1 C 51.9 11.2 51.8 11.2 51.8 11.2 C 51.7 11.2 51.7 11.2 51.6 11.1 C 51.6 11.1 51.6 11 51.6 11 C 51.6 11 51.6 11 51.6 10.9 C 51.6 10.9 51.7 10.8 51.7 10.8 Z M 52 10.7 C 52 10.7 52 10.7 52 10.8 C 52.1 10.8 52.2 10.7 52.5 10.7 C 52.7 10.6 52.9 10.5 53.1 10.3 C 53.2 10.1 53.3 10 53.3 9.8 C 53.3 9.6 53.2 9.5 53.1 9.4 C 53 9.3 52.9 9.2 52.7 9.2 C 52.6 9.2 52.4 9.2 52.2 9.3 C 52.2 9.3 52.2 9.3 52.2 9.3 C 52.1 9.9 52 10.4 52 10.7 C 52 10.7 52 10.7 52 10.7 Z M 55.6 9.3 C 55.6 9.3 55.1 9.3 55.1 9.3 C 55 9.3 54.8 9.3 54.7 9.3 C 54.6 9.3 54.5 9.4 54.5 9.4 C 54.5 9.4 54.5 9.4 54.5 9.5 C 54.5 9.5 54.5 9.6 54.4 9.7 C 54.4 9.8 54.4 9.9 54.4 9.9 C 54.5 9.9 54.6 9.9 54.7 9.9 C 54.8 9.9 54.9 9.9 54.9 9.9 C 55.1 9.9 55.2 9.8 55.2 9.8 C 55.4 9.8 55.5 9.9 55.5 10 C 55.5 10 55.5 10.1 55.4 10.1 C 55.4 10.1 55.3 10.2 55.2 10.2 C 55.2 10.2 55.1 10.2 55 10.2 C 55 10.2 54.9 10.2 54.9 10.2 C 54.6 10.2 54.5 10.3 54.4 10.3 C 54.4 10.3 54.4 10.3 54.4 10.3 C 54.4 10.3 54.4 10.3 54.4 10.3 C 54.4 10.3 54.3 10.4 54.3 10.5 C 54.3 10.7 54.3 10.8 54.3 10.8 C 54.3 10.8 54.3 10.9 54.4 10.9 C 54.4 10.9 54.5 10.8 54.7 10.8 C 54.9 10.8 55.1 10.8 55.1 10.8 C 55.2 10.7 55.3 10.7 55.4 10.7 C 55.5 10.7 55.5 10.8 55.5 10.9 C 55.5 10.9 55.5 11 55.5 11 C 55.4 11 55.3 11.1 55.1 11.1 C 55 11.1 54.8 11.1 54.6 11.1 C 54.4 11.2 54.3 11.2 54.1 11.2 C 54.1 11.2 54 11.2 54 11.1 C 53.9 11.1 53.9 11 53.9 11 C 53.9 11 53.9 10.9 53.9 10.9 C 53.9 10.9 53.9 10.9 53.9 10.8 C 54 10.7 54 10.5 54.1 10 C 54.1 9.6 54.1 9.4 54.1 9.3 C 54.1 9.3 54.1 9.3 54.1 9.3 C 54.1 9.3 54.1 9.3 54.1 9.3 C 54.1 9.2 54.1 9.2 54.1 9.2 C 54.1 9.2 54.1 9.1 54.1 9.1 C 54.1 9.1 54.1 9.1 54.1 9.1 C 54.2 9.1 54.2 9 54.3 9 C 54.3 9 54.3 9 54.4 9.1 C 54.5 9.1 54.7 9 55.2 9 C 55.3 8.9 55.4 8.9 55.4 8.9 C 55.4 8.9 55.4 8.9 55.4 8.9 C 55.6 8.9 55.7 9 55.7 9.1 C 55.7 9.1 55.7 9.2 55.7 9.2 C 55.6 9.2 55.6 9.2 55.6 9.3 Z M 57.5 10.6 C 57.5 10.6 57.4 10.6 57.4 10.6 C 57.4 10.6 57.3 10.7 57.3 10.9 C 57.2 11 57.1 11.1 57.1 11.1 C 57 11.1 57 11.1 57 11.1 C 57 11.1 56.9 11.1 56.9 11.1 C 56.8 11 56.8 11 56.8 11 C 56.8 10.9 56.9 10.7 57.2 10.3 C 57.3 10.1 57.4 9.9 57.5 9.7 C 57.7 9.3 57.9 9.1 57.9 9 C 58 9 58 8.9 58.1 8.9 C 58.2 8.9 58.2 8.9 58.3 9 C 58.3 9 58.3 9 58.3 9.1 C 58.3 9.1 58.3 9.2 58.3 9.2 C 58.5 9.7 58.6 10.1 58.7 10.3 C 58.8 10.6 58.9 10.7 59 10.8 C 59.1 10.9 59.1 10.9 59.1 10.9 C 59.1 10.9 59.1 11 59.1 11 C 59.1 11.1 59.1 11.1 59.1 11.1 C 59 11.2 59 11.2 58.9 11.2 C 58.8 11.2 58.8 11.1 58.7 11.1 C 58.6 11 58.5 10.9 58.5 10.7 C 58.4 10.6 58.4 10.5 58.4 10.5 C 58.4 10.5 58.4 10.4 58.4 10.4 C 58.3 10.4 58.2 10.5 58 10.5 C 57.8 10.5 57.7 10.6 57.6 10.6 C 57.5 10.6 57.5 10.6 57.5 10.6 C 57.5 10.6 57.5 10.6 57.5 10.6 Z M 58.1 10.2 C 58.2 10.2 58.2 10.2 58.2 10.2 C 58.2 10.1 58.2 9.9 58 9.5 C 58 9.5 58 9.5 58 9.5 C 58 9.5 57.6 10.3 57.6 10.3 C 57.7 10.3 57.7 10.2 57.8 10.2 C 57.8 10.2 57.9 10.2 58.1 10.2 C 58.1 10.2 58.1 10.2 58.1 10.2 Z M 62.3 10.1 C 62.3 10.2 62.2 10.3 62.2 10.4 C 62.2 10.4 62.2 10.4 62.2 10.4 C 62.2 10.4 62.2 10.5 62.2 10.7 C 62.1 10.8 62.1 10.9 62.1 11 C 62.1 11.1 62.1 11.2 62.1 11.2 C 62.1 11.2 62.1 11.3 62.1 11.3 C 62.1 11.3 62.1 11.4 62 11.4 C 62 11.4 62 11.4 61.9 11.4 C 61.9 11.4 61.8 11.4 61.8 11.3 C 61.7 11.3 61.7 11.3 61.7 11.2 C 61.7 11.2 61.7 11.1 61.8 11 C 61.8 10.9 61.8 10.8 61.8 10.7 C 61.5 10.9 61.2 11.1 60.9 11.1 C 60.8 11.1 60.6 11 60.5 10.9 C 60.4 10.8 60.4 10.7 60.4 10.5 C 60.4 10.2 60.5 9.9 60.6 9.7 C 60.6 9.7 60.6 9.7 60.6 9.7 C 60.8 9.4 61 9.2 61.3 9.1 C 61.5 8.9 61.7 8.8 62 8.8 C 62.1 8.8 62.2 8.9 62.3 8.9 C 62.4 8.9 62.4 9 62.4 9.1 C 62.4 9.1 62.4 9.2 62.3 9.3 C 62.3 9.3 62.2 9.4 62.2 9.4 C 62.1 9.4 62.1 9.4 62.1 9.4 C 62.1 9.3 62.1 9.3 62.1 9.3 C 62 9.2 62 9.2 62 9.2 C 62 9.2 61.9 9.2 61.9 9.2 C 61.7 9.2 61.6 9.2 61.4 9.4 C 61.2 9.5 61 9.7 60.9 9.9 C 60.8 10.1 60.7 10.3 60.7 10.5 C 60.7 10.7 60.8 10.8 61 10.8 C 61.1 10.8 61.2 10.7 61.3 10.7 C 61.4 10.7 61.5 10.6 61.7 10.5 C 61.8 10.4 61.9 10.3 61.9 10.2 C 61.9 10.2 61.9 10.1 62 10 C 62 9.9 62 9.9 62 9.9 C 62.1 9.8 62.1 9.8 62.2 9.8 C 62.3 9.8 62.3 9.9 62.3 10 C 62.3 10 62.3 10.1 62.3 10.1 C 62.3 10.1 62.3 10.1 62.3 10.1 Z M 64.4 9.3 C 64.4 9.3 63.9 9.3 63.9 9.3 C 63.7 9.3 63.6 9.3 63.5 9.3 C 63.4 9.3 63.3 9.4 63.3 9.4 C 63.3 9.4 63.3 9.4 63.3 9.5 C 63.3 9.5 63.3 9.6 63.2 9.7 C 63.2 9.8 63.2 9.9 63.2 9.9 C 63.3 9.9 63.4 9.9 63.5 9.9 C 63.6 9.9 63.7 9.9 63.7 9.9 C 63.9 9.9 64 9.8 64 9.8 C 64.2 9.8 64.3 9.9 64.3 10 C 64.3 10 64.3 10.1 64.2 10.1 C 64.2 10.1 64.1 10.2 64 10.2 C 64 10.2 63.9 10.2 63.8 10.2 C 63.8 10.2 63.7 10.2 63.7 10.2 C 63.4 10.2 63.2 10.3 63.2 10.3 C 63.2 10.3 63.2 10.3 63.2 10.3 C 63.2 10.3 63.2 10.3 63.2 10.3 C 63.2 10.3 63.1 10.4 63.1 10.5 C 63.1 10.7 63.1 10.8 63.1 10.8 C 63.1 10.8 63.1 10.9 63.2 10.9 C 63.2 10.9 63.3 10.8 63.5 10.8 C 63.7 10.8 63.8 10.8 63.9 10.8 C 64 10.7 64.1 10.7 64.2 10.7 C 64.3 10.7 64.3 10.8 64.3 10.9 C 64.3 10.9 64.3 11 64.3 11 C 64.2 11 64.1 11.1 63.9 11.1 C 63.8 11.1 63.6 11.1 63.4 11.1 C 63.2 11.2 63.1 11.2 62.9 11.2 C 62.8 11.2 62.8 11.2 62.8 11.1 C 62.7 11.1 62.7 11 62.7 11 C 62.7 11 62.7 10.9 62.7 10.9 C 62.7 10.9 62.7 10.9 62.7 10.8 C 62.7 10.7 62.8 10.5 62.9 10 C 62.9 9.6 62.9 9.4 62.9 9.3 C 62.9 9.3 62.9 9.3 62.9 9.3 C 62.9 9.3 62.9 9.3 62.9 9.3 C 62.9 9.2 62.9 9.2 62.9 9.2 C 62.9 9.2 62.9 9.1 62.9 9.1 C 62.9 9.1 62.9 9.1 62.9 9.1 C 63 9.1 63 9 63 9 C 63.1 9 63.1 9 63.2 9.1 C 63.3 9.1 63.5 9 64 9 C 64.1 8.9 64.2 8.9 64.2 8.9 C 64.2 8.9 64.2 8.9 64.2 8.9 C 64.4 8.9 64.5 9 64.5 9.1 C 64.5 9.1 64.5 9.2 64.4 9.2 C 64.4 9.2 64.4 9.2 64.4 9.3 Z M 64.7 10.6 C 64.7 10.6 64.83 10.1 64.8 10.1 C 64.9 9.7 65 9.4 65 9.3 C 65 9.2 65 9.2 65 9.1 C 65 9.1 65 9.1 65 9.1 C 65.1 9 65.1 9 65.2 9 C 65.2 9 65.2 9 65.3 9 C 65.3 9.1 65.3 9.1 65.4 9.2 C 65.4 9.4 65.5 9.6 65.7 9.9 C 65.9 10.2 66 10.4 66.2 10.6 C 66.2 10.4 66.2 10.2 66.3 9.9 C 66.3 9.7 66.3 9.6 66.4 9.4 C 66.4 9.3 66.4 9.2 66.4 9.1 C 66.4 9 66.4 9 66.5 8.9 C 66.5 8.9 66.6 8.9 66.6 8.9 C 66.7 8.9 66.7 8.9 66.7 9 C 66.8 9 66.8 9.1 66.8 9.1 C 66.8 9.2 66.8 9.3 66.7 9.4 C 66.7 9.6 66.6 9.9 66.5 10.2 C 66.5 10.6 66.5 10.8 66.5 10.8 C 66.5 10.8 66.5 10.9 66.5 10.9 C 66.5 10.9 66.5 11 66.4 11 C 66.4 11 66.4 11.1 66.4 11.1 C 66.3 11.1 66.3 11.1 66.2 11.1 C 66.2 11.1 66.2 11.1 66.1 11.1 C 66.1 11.1 66.1 11.1 66.1 11 C 66.1 11 66 11 66 10.9 C 65.9 10.8 65.9 10.8 65.9 10.7 C 65.7 10.5 65.4 10.1 65.2 9.7 C 65.2 9.8 65.1 10.1 65.1 10.6 C 65.1 10.6 65.1 10.7 65.1 10.7 C 65.1 10.7 65 10.8 65 10.9 C 65 11 65 11.1 65 11.1 C 64.9 11.2 64.9 11.2 64.8 11.2 C 64.8 11.2 64.7 11.2 64.7 11.1 C 64.7 11.1 64.7 11 64.7 10.9 C 64.7 10.9 64.7 10.7 64.7 10.6 C 64.72 10.6 64.7 10.6 64.7 10.6 Z M 68.7 9.3 C 68.4 9.3 68.2 9.3 68.1 9.3 C 68.1 9.3 68.1 9.4 68.1 9.4 C 68.1 9.4 68.1 9.6 68.1 9.9 C 68 10.2 68 10.4 68 10.6 C 68 10.7 68 10.8 68 10.9 C 68 10.9 68 10.9 68 10.9 C 68 11 68 11 68 11.1 C 68 11.1 67.9 11.1 67.9 11.1 C 67.9 11.1 67.8 11.1 67.8 11.1 C 67.7 11 67.7 11 67.7 10.9 C 67.7 10.8 67.7 10.7 67.7 10.6 C 67.7 10.5 67.7 10.2 67.7 9.9 C 67.8 9.5 67.8 9.4 67.8 9.4 C 67.8 9.4 67.7 9.4 67.5 9.4 C 67.3 9.4 67.2 9.4 67.1 9.4 C 67 9.4 67 9.4 66.9 9.4 C 66.9 9.3 66.9 9.3 66.9 9.3 C 66.9 9.2 66.9 9.2 66.9 9.1 C 67 9.1 67.1 9.1 67.2 9.1 C 67.5 9.1 67.8 9.1 68.1 9 C 68.4 9 68.6 9 68.8 9 C 68.9 9 69 9 69.1 9 C 69.1 9.1 69.1 9.1 69.1 9.2 C 69.1 9.3 69.1 9.3 69 9.3 C 69 9.3 68.9 9.3 68.9 9.3 C 68.8 9.3 68.7 9.3 68.7 9.3 C 68.7 9.3 68.7 9.3 68.7 9.3 Z M 70.6 9.3 C 70.6 9.3 70.2 9.3 70.2 9.3 C 70 9.3 69.9 9.3 69.8 9.3 C 69.7 9.3 69.6 9.4 69.6 9.4 C 69.6 9.4 69.6 9.4 69.6 9.5 C 69.6 9.5 69.6 9.6 69.5 9.7 C 69.5 9.8 69.5 9.9 69.5 9.9 C 69.6 9.9 69.6 9.9 69.8 9.9 C 69.9 9.9 70 9.9 70 9.9 C 70.2 9.9 70.3 9.8 70.3 9.8 C 70.5 9.8 70.6 9.9 70.6 10 C 70.6 10 70.5 10.1 70.5 10.1 C 70.5 10.1 70.4 10.2 70.3 10.2 C 70.2 10.2 70.2 10.2 70.1 10.2 C 70.1 10.2 70 10.2 70 10.2 C 69.7 10.2 69.5 10.3 69.5 10.3 C 69.5 10.3 69.5 10.3 69.5 10.3 C 69.5 10.3 69.5 10.3 69.5 10.3 C 69.4 10.3 69.4 10.4 69.4 10.5 C 69.4 10.7 69.4 10.8 69.4 10.8 C 69.4 10.8 69.4 10.9 69.4 10.9 C 69.5 10.9 69.6 10.8 69.8 10.8 C 70 10.8 70.1 10.8 70.2 10.8 C 70.3 10.7 70.4 10.7 70.4 10.7 C 70.6 10.7 70.6 10.8 70.6 10.9 C 70.6 10.9 70.6 11 70.6 11 C 70.5 11 70.4 11.1 70.2 11.1 C 70.1 11.1 69.9 11.1 69.7 11.1 C 69.5 11.2 69.4 11.2 69.2 11.2 C 69.1 11.2 69.1 11.2 69 11.1 C 69 11.1 69 11 69 11 C 69 11 69 10.9 69 10.9 C 69 10.9 69 10.9 69 10.8 C 69 10.7 69.1 10.5 69.1 10 C 69.2 9.6 69.2 9.4 69.2 9.3 C 69.2 9.3 69.2 9.3 69.2 9.3 C 69.2 9.3 69.2 9.3 69.2 9.3 C 69.2 9.2 69.2 9.2 69.2 9.2 C 69.2 9.2 69.2 9.1 69.2 9.1 C 69.2 9.1 69.2 9.1 69.2 9.1 C 69.3 9.1 69.3 9 69.3 9 C 69.4 9 69.4 9 69.5 9.1 C 69.6 9.1 69.8 9 70.3 9 C 70.4 8.9 70.5 8.9 70.5 8.9 C 70.5 8.9 70.5 8.9 70.5 8.9 C 70.7 8.9 70.8 9 70.8 9.1 C 70.8 9.1 70.8 9.2 70.7 9.2 C 70.7 9.2 70.7 9.2 70.6 9.3 Z " stroke="none" fill="#000"/>  </g>  <g id="Polygon14424">    <path d="M 7.5 6.4 C 7.3 6.4 7.3 6.4 7.2 6.4 C 7.2 6.6 7.2 6.8 7.2 7 C 7.2 7 7.2 7.1 7.2 7.1 C 7.1 7.1 7.1 7.2 7 7.2 C 6.9 7.2 6.8 7.1 6.8 7 C 6.8 6.9 6.9 6.6 6.9 6.2 C 7 5.8 7 5.6 7 5.5 C 7 5.4 7 5.4 7 5.4 C 6.9 5.4 6.9 5.3 6.9 5.2 C 6.9 5.1 7 5.1 7.3 5 C 7.5 4.9 7.8 4.9 8 4.9 C 8.2 4.9 8.4 5 8.5 5 C 8.6 5.1 8.7 5.3 8.7 5.4 C 8.7 5.6 8.6 5.8 8.3 6 C 8.1 6.2 7.8 6.3 7.5 6.4 C 7.5 6.4 7.5 6.4 7.5 6.4 Z M 8 5.2 C 7.8 5.2 7.6 5.2 7.4 5.3 C 7.4 5.3 7.3 6.1 7.3 6.1 C 7.6 6 7.8 6 8 5.8 C 8.2 5.7 8.3 5.6 8.3 5.4 C 8.3 5.3 8.2 5.2 8 5.2 C 8 5.2 8 5.2 8 5.2 Z M 9.4 7.2 C 9.2 7.2 9.1 7.1 9 6.9 C 8.8 6.8 8.8 6.6 8.8 6.4 C 8.8 6.2 8.8 6 9 5.8 C 9.1 5.5 9.2 5.3 9.4 5.2 C 9.6 5 9.8 4.9 10 4.9 C 10.2 4.9 10.3 5 10.4 5 C 10.5 5 10.6 5.1 10.7 5.2 C 10.8 5.2 10.9 5.3 10.9 5.4 C 10.9 5.5 10.9 5.6 10.9 5.7 C 10.9 5.9 10.9 6 10.8 6.2 C 10.7 6.4 10.6 6.5 10.5 6.7 C 10.3 6.8 10.2 7 10 7 C 9.9 7.1 9.7 7.2 9.4 7.2 Z M 9.1 6.4 C 9.1 6.6 9.2 6.7 9.2 6.7 C 9.3 6.8 9.4 6.9 9.5 6.9 C 9.8 6.9 10 6.7 10.2 6.5 C 10.5 6.2 10.6 6 10.6 5.7 C 10.6 5.6 10.6 5.5 10.5 5.4 C 10.5 5.4 10.4 5.3 10.3 5.3 C 10.2 5.2 10.1 5.2 10 5.2 C 9.8 5.2 9.6 5.4 9.4 5.6 C 9.2 5.9 9.1 6.2 9.1 6.4 Z M 11.2 6.8 C 11.3 6.8 11.3 6.7 11.3 6.6 C 11.3 6.2 11.3 5.9 11.4 5.5 C 11.4 5.4 11.4 5.4 11.4 5.3 C 11.4 5.3 11.4 5.3 11.4 5.3 C 11.3 5.3 11.2 5.2 11.2 5.2 C 11.2 5.1 11.3 5.1 11.3 5 C 11.3 5 11.4 5 11.4 5 C 11.4 5 11.6 5 11.6 5 C 11.7 5 11.9 5 12 5 C 12.1 4.9 12.3 4.9 12.3 4.9 C 12.6 4.9 12.8 5 13 5.2 C 13.2 5.3 13.2 5.5 13.2 5.8 C 13.2 6.1 13.1 6.3 12.9 6.5 C 12.6 6.8 12.3 6.9 11.9 7 C 11.8 7 11.8 7 11.7 7.1 C 11.7 7.1 11.6 7.1 11.6 7.1 C 11.5 7.2 11.4 7.2 11.4 7.2 C 11.3 7.2 11.3 7.2 11.2 7.1 C 11.2 7.1 11.2 7 11.2 7 C 11.2 7 11.2 7 11.2 6.9 C 11.2 6.9 11.2 6.8 11.2 6.8 Z M 11.6 6.7 C 11.6 6.7 11.6 6.7 11.6 6.8 C 11.7 6.8 11.8 6.7 12.1 6.7 C 12.3 6.6 12.5 6.5 12.7 6.3 C 12.8 6.1 12.9 6 12.9 5.8 C 12.9 5.6 12.8 5.5 12.7 5.4 C 12.6 5.3 12.5 5.2 12.3 5.2 C 12.2 5.2 12 5.2 11.8 5.3 C 11.8 5.3 11.8 5.3 11.8 5.3 C 11.7 5.9 11.6 6.4 11.6 6.7 C 11.6 6.7 11.6 6.7 11.6 6.7 Z M 15.2 5.3 C 15.2 5.3 14.7 5.3 14.7 5.3 C 14.5 5.3 14.4 5.3 14.3 5.3 C 14.2 5.3 14.1 5.4 14.1 5.4 C 14.1 5.4 14.1 5.4 14.1 5.5 C 14.1 5.5 14.1 5.6 14 5.7 C 14 5.8 14 5.9 14 5.9 C 14.1 5.9 14.2 5.9 14.3 5.9 C 14.4 5.9 14.5 5.9 14.5 5.9 C 14.7 5.9 14.8 5.8 14.8 5.8 C 15 5.8 15.1 5.9 15.1 6 C 15.1 6 15.1 6.1 15 6.1 C 15 6.1 14.9 6.2 14.8 6.2 C 14.8 6.2 14.7 6.2 14.6 6.2 C 14.6 6.2 14.5 6.2 14.5 6.2 C 14.2 6.2 14 6.3 14 6.3 C 14 6.3 14 6.3 14 6.3 C 14 6.3 14 6.3 14 6.3 C 14 6.3 13.9 6.4 13.9 6.5 C 13.9 6.7 13.9 6.8 13.9 6.8 C 13.9 6.8 13.9 6.9 14 6.9 C 14 6.9 14.1 6.8 14.3 6.8 C 14.5 6.8 14.6 6.8 14.7 6.8 C 14.8 6.7 14.9 6.7 15 6.7 C 15.1 6.7 15.1 6.8 15.1 6.9 C 15.1 6.9 15.1 7 15.1 7 C 15 7 14.9 7.1 14.7 7.1 C 14.6 7.1 14.4 7.1 14.2 7.1 C 14 7.2 13.9 7.2 13.7 7.2 C 13.6 7.2 13.6 7.2 13.6 7.1 C 13.5 7.1 13.5 7 13.5 7 C 13.5 7 13.5 6.9 13.5 6.9 C 13.5 6.9 13.5 6.9 13.5 6.8 C 13.5 6.7 13.6 6.5 13.7 6 C 13.7 5.6 13.7 5.4 13.7 5.3 C 13.7 5.3 13.7 5.3 13.7 5.3 C 13.7 5.3 13.7 5.3 13.7 5.3 C 13.7 5.2 13.7 5.2 13.7 5.2 C 13.7 5.2 13.7 5.1 13.7 5.1 C 13.7 5.1 13.7 5.1 13.7 5.1 C 13.8 5.1 13.8 5 13.8 5 C 13.9 5 13.9 5 14 5.1 C 14.1 5.1 14.3 5 14.8 5 C 14.9 4.9 15 4.9 15 4.9 C 15 4.9 15 4.9 15 4.9 C 15.2 4.9 15.3 5 15.3 5.1 C 15.3 5.1 15.3 5.2 15.2 5.2 C 15.2 5.2 15.2 5.2 15.2 5.3 Z M 17.5 5.6 C 17.5 5.5 17.5 5.5 17.5 5.5 C 17.5 5.5 17.1 6.1 17.1 6.1 C 16.8 6.4 16.7 6.6 16.5 6.6 C 16.5 6.6 16.4 6.6 16.4 6.5 C 16.3 6.4 16.3 6.3 16.2 6.2 C 16.2 6.1 16.2 6 16.1 5.9 C 16.1 5.7 16.1 5.6 16.1 5.6 C 16.1 5.6 16 6 16 6 C 16 6.1 15.9 6.2 15.9 6.3 C 15.9 6.5 15.9 6.6 15.8 6.7 C 15.8 6.9 15.8 7 15.8 7 C 15.8 7.1 15.8 7.1 15.7 7.1 C 15.7 7.2 15.6 7.2 15.6 7.2 C 15.6 7.2 15.5 7.1 15.5 7.1 C 15.4 7.1 15.4 7 15.4 7 C 15.4 6.9 15.4 6.8 15.5 6.6 C 15.6 6 15.7 5.7 15.8 5.5 C 15.8 5.3 15.8 5.2 15.8 5.1 C 15.8 5.1 15.8 5 15.9 5 C 15.9 5 16 5 16 5 C 16.1 5 16.1 5 16.2 5 C 16.2 5.1 16.2 5.1 16.2 5.2 C 16.24 5.18 16.2 5.2 16.2 5.2 C 16.2 5.2 16.44 5.75 16.4 5.7 C 16.5 6 16.6 6.1 16.6 6.2 C 16.7 6.1 16.9 5.9 17.1 5.6 C 17.3 5.3 17.4 5.1 17.5 5 C 17.6 5 17.6 4.9 17.7 4.9 C 17.7 4.9 17.8 4.9 17.8 5 C 17.9 5 17.9 5.1 17.9 5.1 C 17.9 5.1 17.9 5.3 17.8 5.5 C 17.8 5.7 17.8 5.9 17.8 6.2 C 17.8 6.4 17.7 6.5 17.7 6.6 C 17.7 6.6 17.8 6.7 17.8 6.8 C 17.8 6.8 17.8 6.8 17.8 6.9 C 17.8 7 17.8 7 17.7 7.1 C 17.7 7.1 17.6 7.1 17.6 7.1 C 17.4 7.1 17.4 7 17.4 6.8 C 17.4 6.7 17.4 6.4 17.4 6.2 C 17.5 5.9 17.5 5.7 17.5 5.6 C 17.5 5.6 17.5 5.6 17.5 5.6 Z M 18.8 7.2 C 18.7 7.2 18.5 7.1 18.4 6.9 C 18.3 6.8 18.2 6.6 18.2 6.4 C 18.2 6.2 18.3 6 18.4 5.8 C 18.5 5.5 18.7 5.3 18.8 5.2 C 19 5 19.2 4.9 19.4 4.9 C 19.6 4.9 19.7 5 19.9 5 C 20 5 20.1 5.1 20.1 5.2 C 20.2 5.2 20.3 5.3 20.3 5.4 C 20.4 5.5 20.4 5.6 20.4 5.7 C 20.4 5.9 20.3 6 20.2 6.2 C 20.2 6.4 20.1 6.5 19.9 6.7 C 19.8 6.8 19.6 7 19.4 7 C 19.3 7.1 19.1 7.2 18.8 7.2 Z M 18.6 6.4 C 18.6 6.6 18.6 6.7 18.7 6.7 C 18.7 6.8 18.8 6.9 18.9 6.9 C 19.2 6.9 19.4 6.7 19.6 6.5 C 19.9 6.2 20 6 20 5.7 C 20 5.6 20 5.5 19.9 5.4 C 19.9 5.4 19.8 5.3 19.7 5.3 C 19.7 5.2 19.6 5.2 19.4 5.2 C 19.3 5.2 19.1 5.4 18.9 5.6 C 18.7 5.9 18.6 6.2 18.6 6.4 Z M 22.2 5.2 C 22.2 5.4 22.1 5.5 21.9 5.5 C 21.9 5.4 21.9 5.3 21.9 5.3 C 21.8 5.3 21.7 5.2 21.6 5.2 C 21.5 5.2 21.3 5.3 21.2 5.4 C 21 5.4 21 5.5 21 5.6 C 21 5.7 21 5.7 21.1 5.8 C 21.1 5.8 21.2 5.9 21.5 5.9 C 21.7 6 21.9 6.1 22 6.2 C 22.1 6.2 22.2 6.3 22.2 6.5 C 22.2 6.6 22 6.8 21.7 7 C 21.4 7.1 21.1 7.2 20.8 7.2 C 20.7 7.2 20.6 7.2 20.6 7.2 C 20.5 7.1 20.5 7.1 20.5 7 C 20.5 6.9 20.5 6.9 20.5 6.9 C 20.6 6.8 20.6 6.8 20.6 6.8 C 20.7 6.8 20.7 6.8 20.7 6.8 C 20.8 6.9 20.9 6.9 21 6.9 C 21.1 6.9 21.3 6.8 21.5 6.7 C 21.7 6.7 21.8 6.6 21.8 6.5 C 21.8 6.5 21.8 6.4 21.7 6.4 C 21.7 6.4 21.6 6.3 21.4 6.3 C 21.2 6.2 21.1 6.1 20.9 6.1 C 20.8 6.1 20.8 6 20.7 5.9 C 20.6 5.9 20.6 5.8 20.6 5.7 C 20.6 5.5 20.7 5.3 20.9 5.2 C 21.2 5 21.4 4.9 21.7 4.9 C 21.9 4.9 22 5 22.1 5 C 22.2 5.1 22.2 5.2 22.2 5.2 C 22.2 5.2 22.2 5.2 22.2 5.2 Z M 24.9 6.7 C 25 6.6 25 6.6 25.1 6.6 C 25.1 6.6 25.2 6.6 25.2 6.7 C 25.2 6.8 25.1 6.9 24.9 7 C 24.6 7.1 24.4 7.2 24.2 7.2 C 24.1 7.2 23.9 7.1 23.7 7 C 23.6 6.9 23.5 6.7 23.5 6.5 C 23.5 6.3 23.6 6 23.8 5.8 C 23.9 5.5 24.1 5.3 24.3 5.1 C 24.6 4.9 24.8 4.8 25 4.8 C 25.1 4.8 25.2 4.9 25.3 4.9 C 25.4 5 25.4 5.1 25.4 5.2 C 25.4 5.3 25.4 5.4 25.4 5.5 C 25.4 5.5 25.4 5.6 25.3 5.6 C 25.2 5.6 25.2 5.6 25.2 5.6 C 25.1 5.6 25.1 5.6 25.1 5.6 C 25 5.6 25 5.5 25 5.5 C 25 5.5 25 5.4 25.1 5.4 C 25.1 5.3 25.1 5.3 25.1 5.2 C 25.1 5.1 25.1 5.1 25 5.1 C 24.9 5.1 24.7 5.2 24.5 5.3 C 24.4 5.5 24.2 5.7 24.1 5.9 C 24 6.1 23.9 6.3 23.9 6.5 C 23.9 6.6 23.9 6.7 24 6.8 C 24.1 6.9 24.2 6.9 24.3 6.9 C 24.4 6.9 24.5 6.9 24.6 6.8 C 24.7 6.8 24.8 6.7 24.9 6.7 C 24.9 6.7 24.9 6.7 24.9 6.7 Z M 26.2 7.2 C 26 7.2 25.9 7.1 25.7 6.9 C 25.6 6.8 25.6 6.6 25.6 6.4 C 25.6 6.2 25.6 6 25.7 5.8 C 25.9 5.5 26 5.3 26.2 5.2 C 26.4 5 26.6 4.9 26.8 4.9 C 27 4.9 27.1 5 27.2 5 C 27.3 5 27.4 5.1 27.5 5.2 C 27.6 5.2 27.7 5.3 27.7 5.4 C 27.7 5.5 27.7 5.6 27.7 5.7 C 27.7 5.9 27.7 6 27.6 6.2 C 27.5 6.4 27.4 6.5 27.3 6.7 C 27.1 6.8 27 7 26.8 7 C 26.6 7.1 26.4 7.2 26.2 7.2 Z M 25.9 6.4 C 25.9 6.6 26 6.7 26 6.7 C 26.1 6.8 26.2 6.9 26.3 6.9 C 26.5 6.9 26.8 6.7 27 6.5 C 27.2 6.2 27.4 6 27.4 5.7 C 27.4 5.6 27.3 5.5 27.3 5.4 C 27.3 5.4 27.2 5.3 27.1 5.3 C 27 5.2 26.9 5.2 26.8 5.2 C 26.6 5.2 26.4 5.4 26.2 5.6 C 26 5.9 25.9 6.2 25.9 6.4 Z M 30 5.6 C 30 5.5 30 5.5 30 5.5 C 30 5.5 29.5 6.1 29.5 6.1 C 29.3 6.4 29.1 6.6 29 6.6 C 29 6.6 28.9 6.6 28.9 6.5 C 28.8 6.4 28.8 6.3 28.7 6.2 C 28.7 6.1 28.7 6 28.6 5.9 C 28.6 5.7 28.6 5.6 28.5 5.6 C 28.5 5.6 28.5 6 28.5 6 C 28.5 6.1 28.4 6.2 28.4 6.3 C 28.4 6.5 28.4 6.6 28.3 6.7 C 28.3 6.9 28.3 7 28.3 7 C 28.3 7.1 28.2 7.1 28.2 7.1 C 28.2 7.2 28.1 7.2 28.1 7.2 C 28.1 7.2 28 7.1 28 7.1 C 27.9 7.1 27.9 7 27.9 7 C 27.9 6.9 27.9 6.8 28 6.6 C 28.1 6 28.2 5.7 28.2 5.5 C 28.3 5.3 28.3 5.2 28.3 5.1 C 28.3 5.1 28.3 5 28.3 5 C 28.4 5 28.4 5 28.5 5 C 28.6 5 28.6 5 28.6 5 C 28.7 5.1 28.7 5.1 28.7 5.2 C 28.72 5.18 28.7 5.2 28.7 5.2 C 28.7 5.2 28.93 5.75 28.9 5.7 C 29 6 29.1 6.1 29.1 6.2 C 29.2 6.1 29.3 5.9 29.6 5.6 C 29.8 5.3 29.9 5.1 30 5 C 30.1 5 30.1 4.9 30.1 4.9 C 30.2 4.9 30.2 4.9 30.3 5 C 30.4 5 30.4 5.1 30.4 5.1 C 30.4 5.1 30.4 5.3 30.3 5.5 C 30.3 5.7 30.3 5.9 30.3 6.2 C 30.2 6.4 30.2 6.5 30.2 6.6 C 30.2 6.6 30.2 6.7 30.2 6.8 C 30.3 6.8 30.3 6.8 30.3 6.9 C 30.3 7 30.2 7 30.2 7.1 C 30.2 7.1 30.1 7.1 30.1 7.1 C 29.9 7.1 29.9 7 29.9 6.8 C 29.9 6.7 29.9 6.4 29.9 6.2 C 29.9 5.9 30 5.7 30 5.6 C 30 5.6 30 5.6 30 5.6 Z M 32.4 5.3 C 32.4 5.3 31.9 5.3 31.9 5.3 C 31.8 5.3 31.7 5.3 31.5 5.3 C 31.4 5.3 31.4 5.4 31.4 5.4 C 31.3 5.4 31.3 5.4 31.3 5.5 C 31.3 5.5 31.3 5.6 31.3 5.7 C 31.3 5.8 31.2 5.9 31.2 5.9 C 31.3 5.9 31.4 5.9 31.5 5.9 C 31.6 5.9 31.7 5.9 31.8 5.9 C 31.9 5.9 32 5.8 32.1 5.8 C 32.2 5.8 32.3 5.9 32.3 6 C 32.3 6 32.3 6.1 32.3 6.1 C 32.2 6.1 32.1 6.2 32.1 6.2 C 32 6.2 31.9 6.2 31.9 6.2 C 31.8 6.2 31.8 6.2 31.7 6.2 C 31.5 6.2 31.3 6.3 31.2 6.3 C 31.2 6.3 31.2 6.3 31.2 6.3 C 31.2 6.3 31.2 6.3 31.2 6.3 C 31.2 6.3 31.2 6.4 31.2 6.5 C 31.1 6.7 31.1 6.8 31.1 6.8 C 31.1 6.8 31.2 6.9 31.2 6.9 C 31.2 6.9 31.4 6.8 31.6 6.8 C 31.8 6.8 31.9 6.8 31.9 6.8 C 32.1 6.7 32.2 6.7 32.2 6.7 C 32.3 6.7 32.4 6.8 32.4 6.9 C 32.4 6.9 32.4 7 32.3 7 C 32.2 7 32.1 7.1 31.9 7.1 C 31.8 7.1 31.6 7.1 31.4 7.1 C 31.3 7.2 31.1 7.2 31 7.2 C 30.9 7.2 30.8 7.2 30.8 7.1 C 30.8 7.1 30.7 7 30.7 7 C 30.7 7 30.7 6.9 30.7 6.9 C 30.7 6.9 30.7 6.9 30.8 6.8 C 30.8 6.7 30.8 6.5 30.9 6 C 31 5.6 31 5.4 31 5.3 C 31 5.3 31 5.3 31 5.3 C 31 5.3 31 5.3 30.9 5.3 C 30.9 5.2 30.9 5.2 30.9 5.2 C 30.9 5.2 30.9 5.1 30.9 5.1 C 30.9 5.1 30.9 5.1 31 5.1 C 31 5.1 31.1 5 31.1 5 C 31.1 5 31.2 5 31.2 5.1 C 31.3 5.1 31.6 5 32 5 C 32.2 4.9 32.2 4.9 32.3 4.9 C 32.3 4.9 32.3 4.9 32.3 4.9 C 32.5 4.9 32.5 5 32.5 5.1 C 32.5 5.1 32.5 5.2 32.5 5.2 C 32.5 5.2 32.4 5.2 32.4 5.3 Z M 33.2 7.2 C 33.2 7.2 33.2 7.2 33.2 7.2 C 33.2 7.3 33.2 7.3 33.2 7.3 C 33.3 7.3 33.3 7.3 33.4 7.3 C 33.4 7.3 33.5 7.3 33.5 7.4 C 33.6 7.4 33.6 7.5 33.6 7.6 C 33.6 7.7 33.5 7.8 33.4 7.8 C 33.3 7.9 33.2 8 33.1 8 C 33 8 33 8 32.9 7.9 C 32.8 7.9 32.8 7.9 32.8 7.9 C 32.7 7.9 32.7 7.8 32.7 7.8 C 32.7 7.7 32.7 7.7 32.7 7.7 C 32.8 7.6 32.8 7.6 32.8 7.6 C 32.9 7.6 32.9 7.7 33 7.7 C 33 7.7 33 7.7 33 7.7 C 33.1 7.7 33.1 7.7 33.1 7.7 C 33.1 7.7 33.2 7.7 33.2 7.7 C 33.3 7.7 33.3 7.6 33.3 7.6 C 33.3 7.6 33.3 7.5 33.3 7.5 C 33.2 7.5 33.2 7.5 33.2 7.5 C 33.1 7.5 33.1 7.5 33 7.5 C 33 7.5 32.9 7.5 32.9 7.4 C 32.9 7.3 33 7.3 33 7.2 C 33 7.2 33 7.2 33 7.1 C 32.8 7 32.7 6.8 32.7 6.5 C 32.7 6.1 32.8 5.8 33.2 5.4 C 33.5 5 33.8 4.8 34.2 4.8 C 34.3 4.8 34.4 4.9 34.5 4.9 C 34.5 5 34.6 5.1 34.6 5.2 C 34.6 5.3 34.6 5.4 34.5 5.5 C 34.5 5.5 34.5 5.6 34.4 5.6 C 34.4 5.6 34.3 5.6 34.3 5.6 C 34.3 5.6 34.2 5.6 34.2 5.6 C 34.2 5.6 34.2 5.5 34.2 5.5 C 34.2 5.5 34.2 5.4 34.2 5.4 C 34.2 5.3 34.2 5.3 34.2 5.2 C 34.2 5.1 34.2 5.1 34.1 5.1 C 34 5.1 33.9 5.2 33.7 5.3 C 33.5 5.5 33.4 5.7 33.2 5.9 C 33.1 6.1 33 6.3 33 6.5 C 33 6.6 33.1 6.7 33.1 6.8 C 33.2 6.9 33.3 6.9 33.4 6.9 C 33.5 6.9 33.6 6.9 33.7 6.8 C 33.8 6.8 33.9 6.7 34 6.7 C 34.1 6.6 34.2 6.6 34.2 6.6 C 34.3 6.6 34.3 6.6 34.3 6.7 C 34.3 6.8 34.2 6.9 34 7 C 33.7 7.2 33.5 7.2 33.2 7.2 Z M 35.2 6.6 C 35.2 6.6 35.1 6.6 35.1 6.6 C 35.1 6.6 35 6.7 35 6.9 C 34.9 7 34.8 7.1 34.8 7.1 C 34.7 7.1 34.7 7.1 34.7 7.1 C 34.7 7.1 34.6 7.1 34.6 7.1 C 34.5 7 34.5 7 34.5 7 C 34.5 6.9 34.6 6.7 34.9 6.3 C 35 6.1 35.1 5.9 35.2 5.7 C 35.4 5.3 35.6 5.1 35.6 5 C 35.7 5 35.7 4.9 35.8 4.9 C 35.9 4.9 35.9 4.9 36 5 C 36 5 36 5 36 5.1 C 36 5.1 36 5.2 36 5.2 C 36.2 5.7 36.3 6.1 36.4 6.3 C 36.5 6.6 36.6 6.7 36.7 6.8 C 36.8 6.9 36.8 6.9 36.8 6.9 C 36.8 6.9 36.8 7 36.8 7 C 36.8 7.1 36.8 7.1 36.8 7.1 C 36.7 7.2 36.7 7.2 36.6 7.2 C 36.5 7.2 36.5 7.1 36.4 7.1 C 36.3 7 36.2 6.9 36.2 6.7 C 36.1 6.6 36.1 6.5 36.1 6.5 C 36.1 6.5 36.1 6.4 36.1 6.4 C 36 6.4 35.9 6.5 35.7 6.5 C 35.5 6.5 35.4 6.6 35.3 6.6 C 35.2 6.6 35.2 6.6 35.2 6.6 C 35.2 6.6 35.2 6.6 35.2 6.6 Z M 35.8 6.2 C 35.9 6.2 35.9 6.2 36 6.2 C 35.9 6.1 35.9 5.9 35.7 5.5 C 35.7 5.5 35.7 5.5 35.7 5.5 C 35.7 5.5 35.3 6.3 35.3 6.3 C 35.4 6.3 35.4 6.2 35.5 6.2 C 35.5 6.2 35.6 6.2 35.8 6.2 C 35.8 6.2 35.8 6.2 35.8 6.2 Z M 37.2 5.3 C 37.2 5.3 37.17 5.28 37.2 5.3 C 37.1 5.2 37.1 5.2 37.1 5.2 C 37.1 5.1 37.1 5.1 37.2 5 C 37.2 5 37.3 5 37.3 5 C 37.3 5 37.4 5 37.4 5 C 37.4 5 37.4 5 37.4 5 C 37.7 5 37.9 4.9 38 4.9 C 38.3 4.9 38.4 5 38.6 5.1 C 38.7 5.2 38.8 5.3 38.8 5.5 C 38.8 5.6 38.7 5.8 38.6 5.9 C 38.4 6 38.3 6.1 38.1 6.2 C 38.4 6.5 38.7 6.7 38.9 6.8 C 38.9 6.8 39 6.9 39 6.9 C 39 7 38.9 7 38.9 7 C 38.8 7.1 38.8 7.1 38.8 7.1 C 38.7 7.1 38.6 7.1 38.6 7 C 38.5 7 38.4 6.9 38.3 6.8 C 38.1 6.7 38.1 6.6 38 6.6 C 37.8 6.5 37.7 6.4 37.6 6.3 C 37.5 6.3 37.5 6.3 37.5 6.1 C 37.5 6.1 37.5 6.1 37.5 6 C 37.6 6 37.6 6 37.7 6 C 37.7 6 37.7 6 37.8 6 C 37.8 6 37.8 6 37.8 6 C 37.9 6 38 5.9 38.1 5.8 C 38.3 5.7 38.4 5.6 38.4 5.5 C 38.4 5.4 38.4 5.3 38.3 5.3 C 38.2 5.2 38.1 5.2 38 5.2 C 37.9 5.2 37.8 5.2 37.7 5.2 C 37.6 5.3 37.6 5.3 37.6 5.3 C 37.6 5.3 37.6 5.3 37.5 5.3 C 37.5 5.3 37.5 5.4 37.5 5.6 C 37.5 5.8 37.4 6 37.4 6.2 C 37.4 6.4 37.4 6.6 37.4 6.7 C 37.4 6.7 37.4 6.8 37.4 6.8 C 37.4 6.9 37.4 6.9 37.4 7 C 37.4 7 37.4 7 37.3 7.1 C 37.3 7.1 37.2 7.1 37.2 7.1 C 37 7.1 37 7.1 37 6.9 C 37 6.7 37 6.5 37 6.2 C 37.1 6 37.1 5.7 37.2 5.5 C 37.2 5.5 37.2 5.4 37.2 5.4 C 37.17 5.41 37.2 5.3 37.2 5.3 Z M 42.3 5.6 C 42.3 5.5 42.3 5.5 42.3 5.5 C 42.3 5.5 41.8 6.1 41.8 6.1 C 41.6 6.4 41.4 6.6 41.3 6.6 C 41.2 6.6 41.2 6.6 41.2 6.5 C 41.1 6.4 41.1 6.3 41 6.2 C 41 6.1 40.9 6 40.9 5.9 C 40.9 5.7 40.9 5.6 40.8 5.6 C 40.8 5.6 40.8 6 40.8 6 C 40.7 6.1 40.7 6.2 40.7 6.3 C 40.7 6.5 40.6 6.6 40.6 6.7 C 40.6 6.9 40.6 7 40.6 7 C 40.6 7.1 40.5 7.1 40.5 7.1 C 40.4 7.2 40.4 7.2 40.4 7.2 C 40.3 7.2 40.3 7.1 40.3 7.1 C 40.2 7.1 40.2 7 40.2 7 C 40.2 6.9 40.2 6.8 40.3 6.6 C 40.4 6 40.5 5.7 40.5 5.5 C 40.6 5.3 40.6 5.2 40.6 5.1 C 40.6 5.1 40.6 5 40.6 5 C 40.7 5 40.7 5 40.8 5 C 40.9 5 40.9 5 40.9 5 C 41 5.1 41 5.1 41 5.2 C 41.01 5.18 41 5.2 41 5.2 C 41 5.2 41.21 5.75 41.2 5.7 C 41.3 6 41.3 6.1 41.4 6.2 C 41.5 6.1 41.6 5.9 41.8 5.6 C 42.1 5.3 42.2 5.1 42.3 5 C 42.3 5 42.4 4.9 42.4 4.9 C 42.5 4.9 42.5 4.9 42.6 5 C 42.6 5 42.7 5.1 42.7 5.1 C 42.7 5.1 42.7 5.3 42.6 5.5 C 42.6 5.7 42.6 5.9 42.6 6.2 C 42.5 6.4 42.5 6.5 42.5 6.6 C 42.5 6.6 42.5 6.7 42.5 6.8 C 42.5 6.8 42.6 6.8 42.6 6.9 C 42.6 7 42.5 7 42.5 7.1 C 42.5 7.1 42.4 7.1 42.3 7.1 C 42.2 7.1 42.2 7 42.2 6.8 C 42.2 6.7 42.2 6.4 42.2 6.2 C 42.2 5.9 42.3 5.7 42.3 5.6 C 42.3 5.6 42.3 5.6 42.3 5.6 Z M 43.9 7.2 C 43.8 7.2 43.6 7.1 43.5 7.1 C 43.4 7 43.2 6.9 43.2 6.7 C 43.1 6.6 43.1 6.4 43.1 6.2 C 43.1 6.1 43.1 6 43.1 5.9 C 43.1 5.9 43.1 5.6 43.1 5.6 C 43.2 5.5 43.2 5.5 43.2 5.5 C 43.2 5.4 43.2 5.3 43.2 5.3 C 43.2 5.2 43.2 5.1 43.3 5 C 43.3 5 43.4 4.9 43.4 4.9 C 43.5 4.9 43.5 5 43.5 5 C 43.6 5.1 43.6 5.1 43.6 5.2 C 43.6 5.2 43.6 5.3 43.5 5.5 C 43.5 5.5 43.5 5.6 43.5 5.8 C 43.4 6 43.4 6.1 43.4 6.2 C 43.4 6.5 43.5 6.6 43.6 6.7 C 43.7 6.8 43.8 6.9 43.9 6.9 C 44.1 6.9 44.3 6.8 44.4 6.7 C 44.5 6.6 44.5 6.4 44.6 6.2 C 44.6 6.1 44.6 6.1 44.6 6 C 44.6 5.9 44.6 5.9 44.6 5.8 C 44.6 5.4 44.7 5.2 44.7 5.1 C 44.7 5 44.8 5 44.9 5 C 45 5 45 5.1 45 5.2 C 45 5.3 45 5.4 45 5.6 C 45 5.7 44.9 5.9 44.9 6 C 44.9 6.3 44.9 6.5 44.8 6.6 C 44.7 6.8 44.6 6.9 44.5 7 C 44.3 7.1 44.1 7.2 43.9 7.2 Z M 45.4 6.8 C 45.4 6.8 45.4 6.7 45.4 6.6 C 45.4 6.2 45.4 5.9 45.5 5.5 C 45.5 5.4 45.5 5.4 45.5 5.3 C 45.5 5.3 45.5 5.3 45.5 5.3 C 45.4 5.3 45.4 5.2 45.4 5.2 C 45.4 5.1 45.4 5.1 45.4 5 C 45.5 5 45.5 5 45.6 5 C 45.6 5 45.7 5 45.7 5 C 45.8 5 46 5 46.1 5 C 46.3 4.9 46.4 4.9 46.4 4.9 C 46.7 4.9 46.9 5 47.1 5.2 C 47.3 5.3 47.4 5.5 47.4 5.8 C 47.4 6.1 47.2 6.3 47 6.5 C 46.7 6.8 46.4 6.9 46 7 C 45.9 7 45.9 7 45.8 7.1 C 45.8 7.1 45.7 7.1 45.7 7.1 C 45.6 7.2 45.5 7.2 45.5 7.2 C 45.4 7.2 45.4 7.2 45.3 7.1 C 45.3 7.1 45.3 7 45.3 7 C 45.3 7 45.3 7 45.3 6.9 C 45.3 6.9 45.4 6.8 45.4 6.8 Z M 45.7 6.7 C 45.7 6.7 45.7 6.7 45.7 6.8 C 45.8 6.8 45.9 6.7 46.2 6.7 C 46.4 6.6 46.6 6.5 46.8 6.3 C 46.9 6.1 47 6 47 5.8 C 47 5.6 46.9 5.5 46.8 5.4 C 46.7 5.3 46.6 5.2 46.4 5.2 C 46.3 5.2 46.1 5.2 45.9 5.3 C 45.9 5.3 45.9 5.3 45.9 5.3 C 45.8 5.9 45.7 6.4 45.7 6.7 C 45.7 6.7 45.7 6.7 45.7 6.7 Z M 48 6.6 C 47.9 6.6 47.9 6.6 47.9 6.6 C 47.8 6.6 47.8 6.7 47.7 6.9 C 47.6 7 47.6 7.1 47.5 7.1 C 47.5 7.1 47.5 7.1 47.4 7.1 C 47.4 7.1 47.4 7.1 47.3 7.1 C 47.3 7 47.2 7 47.2 7 C 47.2 6.9 47.4 6.7 47.6 6.3 C 47.7 6.1 47.9 5.9 48 5.7 C 48.2 5.3 48.3 5.1 48.4 5 C 48.4 5 48.5 4.9 48.5 4.9 C 48.6 4.9 48.7 4.9 48.7 5 C 48.7 5 48.7 5 48.7 5.1 C 48.7 5.1 48.7 5.2 48.7 5.2 C 48.9 5.7 49.1 6.1 49.2 6.3 C 49.3 6.6 49.4 6.7 49.5 6.8 C 49.5 6.9 49.5 6.9 49.6 6.9 C 49.6 6.9 49.6 7 49.6 7 C 49.6 7.1 49.6 7.1 49.5 7.1 C 49.5 7.2 49.4 7.2 49.4 7.2 C 49.3 7.2 49.2 7.1 49.1 7.1 C 49.1 7 49 6.9 48.9 6.7 C 48.9 6.6 48.8 6.5 48.8 6.5 C 48.8 6.5 48.8 6.4 48.8 6.4 C 48.8 6.4 48.6 6.5 48.5 6.5 C 48.3 6.5 48.1 6.6 48 6.6 C 48 6.6 48 6.6 48 6.6 C 48 6.6 48 6.6 48 6.6 Z M 48.6 6.2 C 48.6 6.2 48.7 6.2 48.7 6.2 C 48.7 6.1 48.6 5.9 48.5 5.5 C 48.5 5.5 48.5 5.5 48.5 5.5 C 48.5 5.5 48.1 6.3 48.1 6.3 C 48.1 6.3 48.2 6.2 48.3 6.2 C 48.3 6.2 48.4 6.2 48.6 6.2 C 48.6 6.2 48.6 6.2 48.6 6.2 Z M 49.8 6.6 C 49.8 6.6 49.91 6.1 49.9 6.1 C 50 5.7 50 5.4 50 5.3 C 50 5.2 50 5.2 50.1 5.1 C 50.1 5.1 50.1 5.1 50.1 5.1 C 50.2 5 50.2 5 50.2 5 C 50.3 5 50.3 5 50.3 5 C 50.4 5.1 50.4 5.1 50.4 5.2 C 50.5 5.4 50.6 5.6 50.8 5.9 C 50.9 6.2 51.1 6.4 51.2 6.6 C 51.3 6.4 51.3 6.2 51.3 5.9 C 51.4 5.7 51.4 5.6 51.4 5.4 C 51.5 5.3 51.5 5.2 51.5 5.1 C 51.5 5 51.5 5 51.6 4.9 C 51.6 4.9 51.6 4.9 51.7 4.9 C 51.7 4.9 51.8 4.9 51.8 5 C 51.8 5 51.8 5.1 51.8 5.1 C 51.8 5.2 51.8 5.3 51.8 5.4 C 51.7 5.6 51.7 5.9 51.6 6.2 C 51.6 6.6 51.5 6.8 51.5 6.8 C 51.5 6.8 51.5 6.9 51.5 6.9 C 51.5 6.9 51.5 7 51.5 7 C 51.5 7 51.5 7.1 51.4 7.1 C 51.4 7.1 51.4 7.1 51.3 7.1 C 51.3 7.1 51.2 7.1 51.2 7.1 C 51.2 7.1 51.2 7.1 51.2 7 C 51.1 7 51.1 7 51.1 6.9 C 51 6.8 51 6.8 51 6.7 C 50.7 6.5 50.5 6.1 50.3 5.7 C 50.3 5.8 50.2 6.1 50.2 6.6 C 50.2 6.6 50.1 6.7 50.1 6.7 C 50.1 6.7 50.1 6.8 50.1 6.9 C 50.1 7 50.1 7.1 50 7.1 C 50 7.2 50 7.2 49.9 7.2 C 49.9 7.2 49.8 7.2 49.8 7.1 C 49.8 7.1 49.7 7 49.7 6.9 C 49.7 6.9 49.8 6.7 49.8 6.6 C 49.8 6.6 49.8 6.6 49.8 6.6 Z M 52.2 6.8 C 52.2 6.8 52.2 6.7 52.2 6.6 C 52.2 6.2 52.3 5.9 52.3 5.5 C 52.3 5.4 52.4 5.4 52.4 5.3 C 52.4 5.3 52.3 5.3 52.3 5.3 C 52.2 5.3 52.2 5.2 52.2 5.2 C 52.2 5.1 52.2 5.1 52.2 5 C 52.3 5 52.3 5 52.4 5 C 52.4 5 52.6 5 52.6 5 C 52.7 5 52.8 5 52.9 5 C 53.1 4.9 53.2 4.9 53.3 4.9 C 53.5 4.9 53.8 5 53.9 5.2 C 54.1 5.3 54.2 5.5 54.2 5.8 C 54.2 6.1 54.1 6.3 53.8 6.5 C 53.5 6.8 53.2 6.9 52.9 7 C 52.8 7 52.7 7 52.6 7.1 C 52.6 7.1 52.6 7.1 52.5 7.1 C 52.4 7.2 52.4 7.2 52.3 7.2 C 52.3 7.2 52.2 7.2 52.2 7.1 C 52.1 7.1 52.1 7 52.1 7 C 52.1 7 52.1 7 52.1 6.9 C 52.1 6.9 52.2 6.8 52.2 6.8 Z M 52.6 6.7 C 52.6 6.7 52.6 6.7 52.6 6.8 C 52.6 6.8 52.8 6.7 53 6.7 C 53.3 6.6 53.5 6.5 53.6 6.3 C 53.8 6.1 53.8 6 53.8 5.8 C 53.8 5.6 53.8 5.5 53.7 5.4 C 53.5 5.3 53.4 5.2 53.2 5.2 C 53.1 5.2 52.9 5.2 52.8 5.3 C 52.7 5.3 52.7 5.3 52.7 5.3 C 52.6 5.9 52.6 6.4 52.6 6.7 C 52.6 6.7 52.6 6.7 52.6 6.7 Z M 55 7.2 C 54.8 7.2 54.7 7.1 54.6 6.9 C 54.4 6.8 54.4 6.6 54.4 6.4 C 54.4 6.2 54.4 6 54.5 5.8 C 54.7 5.5 54.8 5.3 55 5.2 C 55.2 5 55.4 4.9 55.6 4.9 C 55.8 4.9 55.9 5 56 5 C 56.1 5 56.2 5.1 56.3 5.2 C 56.4 5.2 56.5 5.3 56.5 5.4 C 56.5 5.5 56.5 5.6 56.5 5.7 C 56.5 5.9 56.5 6 56.4 6.2 C 56.3 6.4 56.2 6.5 56.1 6.7 C 55.9 6.8 55.8 7 55.6 7 C 55.5 7.1 55.3 7.2 55 7.2 Z M 54.7 6.4 C 54.7 6.6 54.8 6.7 54.8 6.7 C 54.9 6.8 55 6.9 55.1 6.9 C 55.3 6.9 55.6 6.7 55.8 6.5 C 56.1 6.2 56.2 6 56.2 5.7 C 56.2 5.6 56.2 5.5 56.1 5.4 C 56.1 5.4 56 5.3 55.9 5.3 C 55.8 5.2 55.7 5.2 55.6 5.2 C 55.4 5.2 55.2 5.4 55 5.6 C 54.8 5.9 54.7 6.2 54.7 6.4 Z M 59.6 5.3 C 59.6 5.3 59.1 5.3 59.1 5.3 C 59 5.3 58.8 5.3 58.7 5.3 C 58.6 5.3 58.5 5.4 58.5 5.4 C 58.5 5.4 58.5 5.4 58.5 5.5 C 58.5 5.5 58.5 5.6 58.5 5.7 C 58.4 5.8 58.4 5.9 58.4 5.9 C 58.5 5.9 58.6 5.9 58.7 5.9 C 58.8 5.9 58.9 5.9 58.9 5.9 C 59.1 5.9 59.2 5.8 59.3 5.8 C 59.4 5.8 59.5 5.9 59.5 6 C 59.5 6 59.5 6.1 59.4 6.1 C 59.4 6.1 59.3 6.2 59.2 6.2 C 59.2 6.2 59.1 6.2 59 6.2 C 59 6.2 59 6.2 58.9 6.2 C 58.6 6.2 58.5 6.3 58.4 6.3 C 58.4 6.3 58.4 6.3 58.4 6.3 C 58.4 6.3 58.4 6.3 58.4 6.3 C 58.4 6.3 58.4 6.4 58.3 6.5 C 58.3 6.7 58.3 6.8 58.3 6.8 C 58.3 6.8 58.3 6.9 58.4 6.9 C 58.4 6.9 58.5 6.8 58.7 6.8 C 58.9 6.8 59.1 6.8 59.1 6.8 C 59.2 6.7 59.3 6.7 59.4 6.7 C 59.5 6.7 59.6 6.8 59.6 6.9 C 59.6 6.9 59.5 7 59.5 7 C 59.4 7 59.3 7.1 59.1 7.1 C 59 7.1 58.8 7.1 58.6 7.1 C 58.5 7.2 58.3 7.2 58.1 7.2 C 58.1 7.2 58 7.2 58 7.1 C 57.9 7.1 57.9 7 57.9 7 C 57.9 7 57.9 6.9 57.9 6.9 C 57.9 6.9 57.9 6.9 57.9 6.8 C 58 6.7 58 6.5 58.1 6 C 58.1 5.6 58.2 5.4 58.2 5.3 C 58.2 5.3 58.2 5.3 58.1 5.3 C 58.1 5.3 58.1 5.3 58.1 5.3 C 58.1 5.2 58.1 5.2 58.1 5.2 C 58.1 5.2 58.1 5.1 58.1 5.1 C 58.1 5.1 58.1 5.1 58.2 5.1 C 58.2 5.1 58.2 5 58.3 5 C 58.3 5 58.4 5 58.4 5.1 C 58.5 5.1 58.8 5 59.2 5 C 59.3 4.9 59.4 4.9 59.4 4.9 C 59.4 4.9 59.5 4.9 59.5 4.9 C 59.6 4.9 59.7 5 59.7 5.1 C 59.7 5.1 59.7 5.2 59.7 5.2 C 59.6 5.2 59.6 5.2 59.6 5.3 Z M 61.5 5.2 C 61.5 5.4 61.4 5.5 61.2 5.5 C 61.2 5.4 61.2 5.3 61.2 5.3 C 61.1 5.3 61 5.2 60.9 5.2 C 60.8 5.2 60.6 5.3 60.5 5.4 C 60.3 5.4 60.3 5.5 60.3 5.6 C 60.3 5.7 60.3 5.7 60.4 5.8 C 60.4 5.8 60.5 5.9 60.8 5.9 C 61 6 61.2 6.1 61.3 6.2 C 61.4 6.2 61.5 6.3 61.5 6.5 C 61.5 6.6 61.3 6.8 61 7 C 60.7 7.1 60.4 7.2 60.1 7.2 C 60 7.2 59.9 7.2 59.9 7.2 C 59.8 7.1 59.8 7.1 59.8 7 C 59.8 6.9 59.8 6.9 59.8 6.9 C 59.9 6.8 59.9 6.8 59.9 6.8 C 60 6.8 60 6.8 60 6.8 C 60.1 6.9 60.2 6.9 60.3 6.9 C 60.4 6.9 60.6 6.8 60.8 6.7 C 61 6.7 61.1 6.6 61.1 6.5 C 61.1 6.5 61.1 6.4 61 6.4 C 61 6.4 60.9 6.3 60.7 6.3 C 60.5 6.2 60.4 6.1 60.2 6.1 C 60.1 6.1 60.1 6 60 5.9 C 59.9 5.9 59.9 5.8 59.9 5.7 C 59.9 5.5 60 5.3 60.2 5.2 C 60.5 5 60.7 4.9 61 4.9 C 61.2 4.9 61.3 5 61.4 5 C 61.5 5.1 61.5 5.2 61.5 5.2 C 61.5 5.2 61.5 5.2 61.5 5.2 Z M 63.4 5.2 C 63.4 5.4 63.3 5.5 63.1 5.5 C 63.1 5.4 63.1 5.3 63 5.3 C 63 5.3 62.9 5.2 62.8 5.2 C 62.6 5.2 62.5 5.3 62.3 5.4 C 62.2 5.4 62.1 5.5 62.1 5.6 C 62.1 5.7 62.2 5.7 62.2 5.8 C 62.3 5.8 62.4 5.9 62.6 5.9 C 62.8 6 63 6.1 63.1 6.2 C 63.2 6.2 63.3 6.3 63.3 6.5 C 63.3 6.6 63.2 6.8 62.9 7 C 62.6 7.1 62.3 7.2 62 7.2 C 61.9 7.2 61.8 7.2 61.7 7.2 C 61.7 7.1 61.6 7.1 61.6 7 C 61.6 6.9 61.7 6.9 61.7 6.9 C 61.7 6.8 61.7 6.8 61.8 6.8 C 61.8 6.8 61.8 6.8 61.8 6.8 C 62 6.9 62 6.9 62.1 6.9 C 62.3 6.9 62.5 6.8 62.6 6.7 C 62.8 6.7 62.9 6.6 62.9 6.5 C 62.9 6.5 62.9 6.4 62.9 6.4 C 62.8 6.4 62.7 6.3 62.6 6.3 C 62.4 6.2 62.2 6.1 62.1 6.1 C 62 6.1 61.9 6 61.9 5.9 C 61.8 5.9 61.8 5.8 61.8 5.7 C 61.8 5.5 61.9 5.3 62.1 5.2 C 62.3 5 62.6 4.9 62.8 4.9 C 63 4.9 63.1 5 63.2 5 C 63.3 5.1 63.4 5.2 63.4 5.2 C 63.4 5.2 63.4 5.2 63.4 5.2 Z M 65.3 5.3 C 65.3 5.3 64.8 5.3 64.8 5.3 C 64.7 5.3 64.5 5.3 64.4 5.3 C 64.3 5.3 64.2 5.4 64.2 5.4 C 64.2 5.4 64.2 5.4 64.2 5.5 C 64.2 5.5 64.2 5.6 64.1 5.7 C 64.1 5.8 64.1 5.9 64.1 5.9 C 64.2 5.9 64.3 5.9 64.4 5.9 C 64.5 5.9 64.6 5.9 64.6 5.9 C 64.8 5.9 64.9 5.8 64.9 5.8 C 65.1 5.8 65.2 5.9 65.2 6 C 65.2 6 65.2 6.1 65.1 6.1 C 65.1 6.1 65 6.2 64.9 6.2 C 64.9 6.2 64.8 6.2 64.7 6.2 C 64.7 6.2 64.6 6.2 64.6 6.2 C 64.3 6.2 64.2 6.3 64.1 6.3 C 64.1 6.3 64.1 6.3 64.1 6.3 C 64.1 6.3 64.1 6.3 64.1 6.3 C 64.1 6.3 64 6.4 64 6.5 C 64 6.7 64 6.8 64 6.8 C 64 6.8 64 6.9 64.1 6.9 C 64.1 6.9 64.2 6.8 64.4 6.8 C 64.6 6.8 64.8 6.8 64.8 6.8 C 64.9 6.7 65 6.7 65.1 6.7 C 65.2 6.7 65.2 6.8 65.2 6.9 C 65.2 6.9 65.2 7 65.2 7 C 65.1 7 65 7.1 64.8 7.1 C 64.7 7.1 64.5 7.1 64.3 7.1 C 64.1 7.2 64 7.2 63.8 7.2 C 63.8 7.2 63.7 7.2 63.7 7.1 C 63.6 7.1 63.6 7 63.6 7 C 63.6 7 63.6 6.9 63.6 6.9 C 63.6 6.9 63.6 6.9 63.6 6.8 C 63.7 6.7 63.7 6.5 63.8 6 C 63.8 5.6 63.8 5.4 63.8 5.3 C 63.8 5.3 63.8 5.3 63.8 5.3 C 63.8 5.3 63.8 5.3 63.8 5.3 C 63.8 5.2 63.8 5.2 63.8 5.2 C 63.8 5.2 63.8 5.1 63.8 5.1 C 63.8 5.1 63.8 5.1 63.8 5.1 C 63.9 5.1 63.9 5 64 5 C 64 5 64 5 64.1 5.1 C 64.2 5.1 64.4 5 64.9 5 C 65 4.9 65.1 4.9 65.1 4.9 C 65.1 4.9 65.1 4.9 65.1 4.9 C 65.3 4.9 65.4 5 65.4 5.1 C 65.4 5.1 65.4 5.2 65.4 5.2 C 65.3 5.2 65.3 5.2 65.3 5.3 Z " stroke="none" fill="#000"/>  </g></svg>