<?xml version="1.0" standalone="no"?><!DOCTYPE svg PUBLIC "-//W3C//DTD SVG 1.1//EN" "http://www.w3.org/Graphics/SVG/1.1/DTD/svg11.dtd"><svg xmlns="http://www.w3.org/2000/svg" version="1.1" width="75px" height="20.9px" viewBox="0 -1 75 20.9" style="top:-1px">  <desc>GOSTEI DESSE TAL DE VOTO DISTRITAL!!! ELE VAI PERMITIR COBRAR O POL TICO QUE A GENTE ELEGEU!</desc>  <defs/>  <g id="Polygon14272">    <path d="M 26.6 13.1 C 26.6 13.2 26.6 13.3 26.5 13.4 C 26.5 13.4 26.5 13.4 26.5 13.4 C 26.5 13.4 26.5 13.5 26.5 13.7 C 26.4 13.8 26.4 13.9 26.4 14 C 26.4 14.1 26.4 14.2 26.4 14.2 C 26.4 14.2 26.4 14.3 26.4 14.3 C 26.4 14.3 26.4 14.4 26.3 14.4 C 26.3 14.4 26.3 14.4 26.2 14.4 C 26.2 14.4 26.1 14.4 26.1 14.3 C 26.1 14.3 26 14.3 26 14.2 C 26 14.2 26 14.1 26.1 14 C 26.1 13.9 26.1 13.8 26.1 13.7 C 25.8 13.9 25.5 14.1 25.3 14.1 C 25.1 14.1 24.9 14 24.8 13.9 C 24.7 13.8 24.7 13.7 24.7 13.5 C 24.7 13.2 24.8 12.9 24.9 12.7 C 24.9 12.7 24.9 12.7 24.9 12.7 C 25.1 12.4 25.3 12.2 25.6 12.1 C 25.8 11.9 26.1 11.8 26.3 11.8 C 26.4 11.8 26.5 11.9 26.6 11.9 C 26.7 11.9 26.7 12 26.7 12.1 C 26.7 12.1 26.7 12.2 26.6 12.3 C 26.6 12.3 26.5 12.4 26.5 12.4 C 26.4 12.4 26.4 12.4 26.4 12.4 C 26.4 12.3 26.4 12.3 26.4 12.3 C 26.3 12.2 26.3 12.2 26.3 12.2 C 26.3 12.2 26.2 12.2 26.2 12.2 C 26 12.2 25.9 12.2 25.7 12.4 C 25.5 12.5 25.3 12.7 25.2 12.9 C 25.1 13.1 25 13.3 25 13.5 C 25 13.7 25.1 13.8 25.3 13.8 C 25.4 13.8 25.5 13.7 25.6 13.7 C 25.7 13.7 25.8 13.6 26 13.5 C 26.1 13.4 26.2 13.3 26.2 13.2 C 26.2 13.2 26.3 13.1 26.3 13 C 26.3 12.9 26.3 12.9 26.3 12.9 C 26.4 12.8 26.4 12.8 26.5 12.8 C 26.6 12.8 26.7 12.9 26.7 13 C 26.7 13 26.6 13.1 26.6 13.1 C 26.6 13.1 26.6 13.1 26.6 13.1 Z M 28.7 12.3 C 28.7 12.3 28.2 12.3 28.2 12.3 C 28.1 12.3 27.9 12.3 27.8 12.3 C 27.7 12.3 27.6 12.4 27.6 12.4 C 27.6 12.4 27.6 12.4 27.6 12.5 C 27.6 12.5 27.6 12.6 27.5 12.7 C 27.5 12.8 27.5 12.9 27.5 12.9 C 27.6 12.9 27.7 12.9 27.8 12.9 C 27.9 12.9 28 12.9 28 12.9 C 28.2 12.9 28.3 12.8 28.3 12.8 C 28.5 12.8 28.6 12.9 28.6 13 C 28.6 13 28.6 13.1 28.5 13.1 C 28.5 13.1 28.4 13.2 28.3 13.2 C 28.3 13.2 28.2 13.2 28.1 13.2 C 28.1 13.2 28 13.2 28 13.2 C 27.7 13.2 27.6 13.3 27.5 13.3 C 27.5 13.3 27.5 13.3 27.5 13.3 C 27.5 13.3 27.5 13.3 27.5 13.3 C 27.5 13.3 27.4 13.4 27.4 13.5 C 27.4 13.7 27.4 13.8 27.4 13.8 C 27.4 13.8 27.4 13.9 27.5 13.9 C 27.5 13.9 27.6 13.8 27.8 13.8 C 28 13.8 28.1 13.8 28.2 13.8 C 28.3 13.7 28.4 13.7 28.5 13.7 C 28.6 13.7 28.6 13.8 28.6 13.9 C 28.6 13.9 28.6 14 28.6 14 C 28.5 14 28.4 14.1 28.2 14.1 C 28.1 14.1 27.9 14.1 27.7 14.1 C 27.5 14.2 27.4 14.2 27.2 14.2 C 27.1 14.2 27.1 14.2 27.1 14.1 C 27 14.1 27 14 27 14 C 27 14 27 13.9 27 13.9 C 27 13.9 27 13.9 27 13.8 C 27.1 13.7 27.1 13.5 27.2 13 C 27.2 12.6 27.2 12.4 27.2 12.3 C 27.2 12.3 27.2 12.3 27.2 12.3 C 27.2 12.3 27.2 12.3 27.2 12.3 C 27.2 12.2 27.2 12.2 27.2 12.2 C 27.2 12.2 27.2 12.1 27.2 12.1 C 27.2 12.1 27.2 12.1 27.2 12.1 C 27.3 12.1 27.3 12 27.4 12 C 27.4 12 27.4 12 27.5 12.1 C 27.6 12.1 27.8 12 28.3 12 C 28.4 11.9 28.5 11.9 28.5 11.9 C 28.5 11.9 28.5 11.9 28.5 11.9 C 28.7 11.9 28.8 12 28.8 12.1 C 28.8 12.1 28.8 12.2 28.8 12.2 C 28.7 12.2 28.7 12.2 28.7 12.3 Z M 29 13.6 C 29 13.6 29.14 13.1 29.1 13.1 C 29.2 12.7 29.3 12.4 29.3 12.3 C 29.3 12.2 29.3 12.2 29.3 12.1 C 29.3 12.1 29.3 12.1 29.4 12.1 C 29.4 12 29.4 12 29.5 12 C 29.5 12 29.5 12 29.6 12 C 29.6 12.1 29.7 12.1 29.7 12.2 C 29.7 12.4 29.8 12.6 30 12.9 C 30.2 13.2 30.3 13.4 30.5 13.6 C 30.5 13.4 30.5 13.2 30.6 12.9 C 30.6 12.7 30.6 12.6 30.7 12.4 C 30.7 12.3 30.7 12.2 30.7 12.1 C 30.7 12 30.7 12 30.8 11.9 C 30.8 11.9 30.9 11.9 30.9 11.9 C 31 11.9 31 11.9 31 12 C 31.1 12 31.1 12.1 31.1 12.1 C 31.1 12.2 31.1 12.3 31 12.4 C 31 12.6 30.9 12.9 30.8 13.2 C 30.8 13.6 30.8 13.8 30.8 13.8 C 30.8 13.8 30.8 13.9 30.8 13.9 C 30.8 13.9 30.8 14 30.7 14 C 30.7 14 30.7 14.1 30.7 14.1 C 30.6 14.1 30.6 14.1 30.5 14.1 C 30.5 14.1 30.5 14.1 30.4 14.1 C 30.4 14.1 30.4 14.1 30.4 14 C 30.4 14 30.3 14 30.3 13.9 C 30.3 13.8 30.2 13.8 30.2 13.7 C 30 13.5 29.7 13.1 29.5 12.7 C 29.5 12.8 29.4 13.1 29.4 13.6 C 29.4 13.6 29.4 13.7 29.4 13.7 C 29.4 13.7 29.4 13.8 29.3 13.9 C 29.3 14 29.3 14.1 29.3 14.1 C 29.2 14.2 29.2 14.2 29.1 14.2 C 29.1 14.2 29 14.2 29 14.1 C 29 14.1 29 14 29 13.9 C 29 13.9 29 13.7 29 13.6 C 29.03 13.6 29 13.6 29 13.6 Z M 33 12.3 C 32.7 12.3 32.5 12.3 32.5 12.3 C 32.4 12.3 32.4 12.4 32.4 12.4 C 32.4 12.4 32.4 12.6 32.4 12.9 C 32.3 13.2 32.3 13.4 32.3 13.6 C 32.3 13.7 32.3 13.8 32.3 13.9 C 32.4 13.9 32.4 13.9 32.4 13.9 C 32.4 14 32.3 14 32.3 14.1 C 32.3 14.1 32.2 14.1 32.2 14.1 C 32.2 14.1 32.1 14.1 32.1 14.1 C 32 14 32 14 32 13.9 C 32 13.8 32 13.7 32 13.6 C 32 13.5 32 13.2 32 12.9 C 32.1 12.5 32.1 12.4 32.1 12.4 C 32.1 12.4 32 12.4 31.8 12.4 C 31.6 12.4 31.5 12.4 31.4 12.4 C 31.3 12.4 31.3 12.4 31.2 12.4 C 31.2 12.3 31.2 12.3 31.2 12.3 C 31.2 12.2 31.2 12.2 31.2 12.1 C 31.3 12.1 31.4 12.1 31.5 12.1 C 31.8 12.1 32.1 12.1 32.4 12 C 32.7 12 32.9 12 33.1 12 C 33.2 12 33.3 12 33.4 12 C 33.4 12.1 33.4 12.1 33.4 12.2 C 33.4 12.3 33.4 12.3 33.3 12.3 C 33.3 12.3 33.2 12.3 33.2 12.3 C 33.1 12.3 33 12.3 33 12.3 C 33 12.3 33 12.3 33 12.3 Z M 35 12.3 C 35 12.3 34.5 12.3 34.5 12.3 C 34.3 12.3 34.2 12.3 34.1 12.3 C 34 12.3 33.9 12.4 33.9 12.4 C 33.9 12.4 33.9 12.4 33.9 12.5 C 33.9 12.5 33.9 12.6 33.8 12.7 C 33.8 12.8 33.8 12.9 33.8 12.9 C 33.9 12.9 33.9 12.9 34.1 12.9 C 34.2 12.9 34.3 12.9 34.3 12.9 C 34.5 12.9 34.6 12.8 34.6 12.8 C 34.8 12.8 34.9 12.9 34.9 13 C 34.9 13 34.9 13.1 34.8 13.1 C 34.8 13.1 34.7 13.2 34.6 13.2 C 34.6 13.2 34.5 13.2 34.4 13.2 C 34.4 13.2 34.3 13.2 34.3 13.2 C 34 13.2 33.8 13.3 33.8 13.3 C 33.8 13.3 33.8 13.3 33.8 13.3 C 33.8 13.3 33.8 13.3 33.8 13.3 C 33.8 13.3 33.7 13.4 33.7 13.5 C 33.7 13.7 33.7 13.8 33.7 13.8 C 33.7 13.8 33.7 13.9 33.8 13.9 C 33.8 13.9 33.9 13.8 34.1 13.8 C 34.3 13.8 34.4 13.8 34.5 13.8 C 34.6 13.7 34.7 13.7 34.8 13.7 C 34.9 13.7 34.9 13.8 34.9 13.9 C 34.9 13.9 34.9 14 34.9 14 C 34.8 14 34.7 14.1 34.5 14.1 C 34.4 14.1 34.2 14.1 34 14.1 C 33.8 14.2 33.7 14.2 33.5 14.2 C 33.4 14.2 33.4 14.2 33.4 14.1 C 33.3 14.1 33.3 14 33.3 14 C 33.3 14 33.3 13.9 33.3 13.9 C 33.3 13.9 33.3 13.9 33.3 13.8 C 33.3 13.7 33.4 13.5 33.5 13 C 33.5 12.6 33.5 12.4 33.5 12.3 C 33.5 12.3 33.5 12.3 33.5 12.3 C 33.5 12.3 33.5 12.3 33.5 12.3 C 33.5 12.2 33.5 12.2 33.5 12.2 C 33.5 12.2 33.5 12.1 33.5 12.1 C 33.5 12.1 33.5 12.1 33.5 12.1 C 33.6 12.1 33.6 12 33.6 12 C 33.7 12 33.7 12 33.8 12.1 C 33.9 12.1 34.1 12 34.6 12 C 34.7 11.9 34.8 11.9 34.8 11.9 C 34.8 11.9 34.8 11.9 34.8 11.9 C 35 11.9 35.1 12 35.1 12.1 C 35.1 12.1 35.1 12.2 35 12.2 C 35 12.2 35 12.2 35 12.3 Z M 38.1 12.3 C 38.1 12.3 37.6 12.3 37.6 12.3 C 37.5 12.3 37.3 12.3 37.2 12.3 C 37.1 12.3 37 12.4 37 12.4 C 37 12.4 37 12.4 37 12.5 C 37 12.5 37 12.6 37 12.7 C 36.9 12.8 36.9 12.9 36.9 12.9 C 37 12.9 37.1 12.9 37.2 12.9 C 37.3 12.9 37.4 12.9 37.4 12.9 C 37.6 12.9 37.7 12.8 37.8 12.8 C 37.9 12.8 38 12.9 38 13 C 38 13 38 13.1 37.9 13.1 C 37.9 13.1 37.8 13.2 37.7 13.2 C 37.7 13.2 37.6 13.2 37.5 13.2 C 37.5 13.2 37.5 13.2 37.4 13.2 C 37.1 13.2 37 13.3 36.9 13.3 C 36.9 13.3 36.9 13.3 36.9 13.3 C 36.9 13.3 36.9 13.3 36.9 13.3 C 36.9 13.3 36.9 13.4 36.8 13.5 C 36.8 13.7 36.8 13.8 36.8 13.8 C 36.8 13.8 36.8 13.9 36.9 13.9 C 36.9 13.9 37 13.8 37.2 13.8 C 37.4 13.8 37.6 13.8 37.6 13.8 C 37.8 13.7 37.8 13.7 37.9 13.7 C 38 13.7 38.1 13.8 38.1 13.9 C 38.1 13.9 38.1 14 38 14 C 37.9 14 37.8 14.1 37.6 14.1 C 37.5 14.1 37.3 14.1 37.1 14.1 C 37 14.2 36.8 14.2 36.6 14.2 C 36.6 14.2 36.5 14.2 36.5 14.1 C 36.4 14.1 36.4 14 36.4 14 C 36.4 14 36.4 13.9 36.4 13.9 C 36.4 13.9 36.4 13.9 36.4 13.8 C 36.5 13.7 36.5 13.5 36.6 13 C 36.6 12.6 36.7 12.4 36.7 12.3 C 36.7 12.3 36.7 12.3 36.7 12.3 C 36.6 12.3 36.6 12.3 36.6 12.3 C 36.6 12.2 36.6 12.2 36.6 12.2 C 36.6 12.2 36.6 12.1 36.6 12.1 C 36.6 12.1 36.6 12.1 36.7 12.1 C 36.7 12.1 36.7 12 36.8 12 C 36.8 12 36.9 12 36.9 12.1 C 37 12.1 37.3 12 37.7 12 C 37.9 11.9 37.9 11.9 37.9 11.9 C 37.9 11.9 38 11.9 38 11.9 C 38.1 11.9 38.2 12 38.2 12.1 C 38.2 12.1 38.2 12.2 38.2 12.2 C 38.1 12.2 38.1 12.2 38.1 12.3 Z M 39.8 14 C 39.8 14 39.8 14 39.7 14 C 39.6 14 39.6 14 39.6 14 C 39.3 14 39 14 38.8 14.1 C 38.7 14.1 38.6 14.2 38.6 14.2 C 38.5 14.2 38.5 14.1 38.4 14.1 C 38.4 14 38.4 14 38.4 14 C 38.4 13.9 38.4 13.9 38.4 13.8 C 38.4 13.7 38.4 13.6 38.5 13.5 C 38.5 13.5 38.6 12.3 38.6 12.3 C 38.6 12.2 38.6 12.1 38.6 12.1 C 38.6 12 38.6 12 38.7 12 C 38.7 12 38.8 11.9 38.8 11.9 C 38.9 11.9 38.9 12 38.9 12 C 39 12 39 12.1 39 12.1 C 39 12.1 39 12.2 39 12.3 C 38.9 12.4 38.9 12.7 38.9 13.1 C 38.8 13.5 38.8 13.7 38.8 13.7 C 38.8 13.7 38.8 13.8 38.8 13.8 C 38.8 13.8 39 13.7 39.1 13.7 C 39.2 13.7 39.3 13.7 39.4 13.7 C 39.6 13.7 39.7 13.7 39.8 13.6 C 39.9 13.6 39.9 13.6 39.9 13.6 C 40 13.6 40 13.6 40 13.7 C 40.1 13.7 40.1 13.7 40.1 13.8 C 40.1 13.9 40 13.9 40 13.9 C 39.9 14 39.9 14 39.8 14 Z M 41.9 12.3 C 41.9 12.3 41.4 12.3 41.4 12.3 C 41.3 12.3 41.1 12.3 41 12.3 C 40.9 12.3 40.9 12.4 40.8 12.4 C 40.8 12.4 40.8 12.4 40.8 12.5 C 40.8 12.5 40.8 12.6 40.8 12.7 C 40.8 12.8 40.7 12.9 40.7 12.9 C 40.8 12.9 40.9 12.9 41 12.9 C 41.1 12.9 41.2 12.9 41.3 12.9 C 41.4 12.9 41.5 12.8 41.6 12.8 C 41.7 12.8 41.8 12.9 41.8 13 C 41.8 13 41.8 13.1 41.7 13.1 C 41.7 13.1 41.6 13.2 41.5 13.2 C 41.5 13.2 41.4 13.2 41.4 13.2 C 41.3 13.2 41.3 13.2 41.2 13.2 C 40.9 13.2 40.8 13.3 40.7 13.3 C 40.7 13.3 40.7 13.3 40.7 13.3 C 40.7 13.3 40.7 13.3 40.7 13.3 C 40.7 13.3 40.7 13.4 40.6 13.5 C 40.6 13.7 40.6 13.8 40.6 13.8 C 40.6 13.8 40.6 13.9 40.7 13.9 C 40.7 13.9 40.9 13.8 41.1 13.8 C 41.3 13.8 41.4 13.8 41.4 13.8 C 41.6 13.7 41.6 13.7 41.7 13.7 C 41.8 13.7 41.9 13.8 41.9 13.9 C 41.9 13.9 41.9 14 41.8 14 C 41.7 14 41.6 14.1 41.4 14.1 C 41.3 14.1 41.1 14.1 40.9 14.1 C 40.8 14.2 40.6 14.2 40.5 14.2 C 40.4 14.2 40.3 14.2 40.3 14.1 C 40.3 14.1 40.2 14 40.2 14 C 40.2 14 40.2 13.9 40.2 13.9 C 40.2 13.9 40.2 13.9 40.2 13.8 C 40.3 13.7 40.3 13.5 40.4 13 C 40.4 12.6 40.5 12.4 40.5 12.3 C 40.5 12.3 40.5 12.3 40.5 12.3 C 40.5 12.3 40.4 12.3 40.4 12.3 C 40.4 12.2 40.4 12.2 40.4 12.2 C 40.4 12.2 40.4 12.1 40.4 12.1 C 40.4 12.1 40.4 12.1 40.5 12.1 C 40.5 12.1 40.5 12 40.6 12 C 40.6 12 40.7 12 40.7 12.1 C 40.8 12.1 41.1 12 41.5 12 C 41.7 11.9 41.7 11.9 41.7 11.9 C 41.7 11.9 41.8 11.9 41.8 11.9 C 41.9 11.9 42 12 42 12.1 C 42 12.1 42 12.2 42 12.2 C 41.9 12.2 41.9 12.2 41.9 12.3 Z M 44.1 13.1 C 44.1 13.2 44 13.3 44 13.4 C 44 13.4 44 13.4 44 13.4 C 44 13.4 44 13.5 43.9 13.7 C 43.9 13.8 43.9 13.9 43.9 14 C 43.9 14.1 43.9 14.2 43.9 14.2 C 43.9 14.2 43.9 14.3 43.9 14.3 C 43.9 14.3 43.8 14.4 43.8 14.4 C 43.8 14.4 43.8 14.4 43.7 14.4 C 43.7 14.4 43.6 14.4 43.6 14.3 C 43.5 14.3 43.5 14.3 43.5 14.2 C 43.5 14.2 43.5 14.1 43.5 14 C 43.6 13.9 43.6 13.8 43.6 13.7 C 43.3 13.9 43 14.1 42.7 14.1 C 42.6 14.1 42.4 14 42.3 13.9 C 42.2 13.8 42.2 13.7 42.2 13.5 C 42.2 13.2 42.2 12.9 42.4 12.7 C 42.4 12.7 42.4 12.7 42.4 12.7 C 42.6 12.4 42.8 12.2 43 12.1 C 43.3 11.9 43.5 11.8 43.8 11.8 C 43.9 11.8 44 11.9 44.1 11.9 C 44.1 11.9 44.2 12 44.2 12.1 C 44.2 12.1 44.2 12.2 44.1 12.3 C 44.1 12.3 44 12.4 44 12.4 C 43.9 12.4 43.9 12.4 43.9 12.4 C 43.9 12.3 43.9 12.3 43.8 12.3 C 43.8 12.2 43.8 12.2 43.8 12.2 C 43.7 12.2 43.7 12.2 43.7 12.2 C 43.5 12.2 43.3 12.2 43.2 12.4 C 43 12.5 42.8 12.7 42.7 12.9 C 42.6 13.1 42.5 13.3 42.5 13.5 C 42.5 13.7 42.6 13.8 42.8 13.8 C 42.8 13.8 42.9 13.7 43.1 13.7 C 43.2 13.7 43.3 13.6 43.4 13.5 C 43.6 13.4 43.7 13.3 43.7 13.2 C 43.7 13.2 43.7 13.1 43.7 13 C 43.8 12.9 43.8 12.9 43.8 12.9 C 43.8 12.8 43.9 12.8 43.9 12.8 C 44.1 12.8 44.1 12.9 44.1 13 C 44.1 13 44.1 13.1 44.1 13.1 C 44.1 13.1 44.1 13.1 44.1 13.1 Z M 46.1 12.3 C 46.1 12.3 45.7 12.3 45.7 12.3 C 45.5 12.3 45.4 12.3 45.3 12.3 C 45.2 12.3 45.1 12.4 45.1 12.4 C 45.1 12.4 45.1 12.4 45.1 12.5 C 45.1 12.5 45.1 12.6 45 12.7 C 45 12.8 45 12.9 45 12.9 C 45 12.9 45.1 12.9 45.2 12.9 C 45.4 12.9 45.4 12.9 45.5 12.9 C 45.6 12.9 45.7 12.8 45.8 12.8 C 46 12.8 46.1 12.9 46.1 13 C 46.1 13 46 13.1 46 13.1 C 45.9 13.1 45.9 13.2 45.8 13.2 C 45.7 13.2 45.7 13.2 45.6 13.2 C 45.6 13.2 45.5 13.2 45.5 13.2 C 45.2 13.2 45 13.3 45 13.3 C 45 13.3 45 13.3 45 13.3 C 45 13.3 45 13.3 44.9 13.3 C 44.9 13.3 44.9 13.4 44.9 13.5 C 44.9 13.7 44.9 13.8 44.9 13.8 C 44.9 13.8 44.9 13.9 44.9 13.9 C 45 13.9 45.1 13.8 45.3 13.8 C 45.5 13.8 45.6 13.8 45.7 13.8 C 45.8 13.7 45.9 13.7 45.9 13.7 C 46.1 13.7 46.1 13.8 46.1 13.9 C 46.1 13.9 46.1 14 46.1 14 C 46 14 45.8 14.1 45.7 14.1 C 45.5 14.1 45.4 14.1 45.2 14.1 C 45 14.2 44.9 14.2 44.7 14.2 C 44.6 14.2 44.6 14.2 44.5 14.1 C 44.5 14.1 44.5 14 44.5 14 C 44.5 14 44.5 13.9 44.5 13.9 C 44.5 13.9 44.5 13.9 44.5 13.8 C 44.5 13.7 44.6 13.5 44.6 13 C 44.7 12.6 44.7 12.4 44.7 12.3 C 44.7 12.3 44.7 12.3 44.7 12.3 C 44.7 12.3 44.7 12.3 44.7 12.3 C 44.7 12.2 44.7 12.2 44.7 12.2 C 44.7 12.2 44.7 12.1 44.7 12.1 C 44.7 12.1 44.7 12.1 44.7 12.1 C 44.8 12.1 44.8 12 44.8 12 C 44.9 12 44.9 12 45 12.1 C 45 12.1 45.3 12 45.8 12 C 45.9 11.9 46 11.9 46 11.9 C 46 11.9 46 11.9 46 11.9 C 46.2 11.9 46.3 12 46.3 12.1 C 46.3 12.1 46.3 12.2 46.2 12.2 C 46.2 12.2 46.2 12.2 46.1 12.3 Z M 47.3 14.2 C 47.2 14.2 47.1 14.1 46.9 14.1 C 46.8 14 46.7 13.9 46.6 13.7 C 46.5 13.6 46.5 13.4 46.5 13.2 C 46.5 13.1 46.5 13 46.5 12.9 C 46.5 12.9 46.6 12.6 46.6 12.6 C 46.6 12.5 46.6 12.5 46.6 12.5 C 46.6 12.4 46.6 12.3 46.6 12.3 C 46.6 12.2 46.7 12.1 46.7 12 C 46.7 12 46.8 11.9 46.9 11.9 C 46.9 11.9 46.9 12 47 12 C 47 12.1 47 12.1 47 12.2 C 47 12.2 47 12.3 47 12.5 C 46.9 12.5 46.9 12.6 46.9 12.8 C 46.9 13 46.9 13.1 46.9 13.2 C 46.9 13.5 46.9 13.6 47 13.7 C 47.1 13.8 47.2 13.9 47.3 13.9 C 47.5 13.9 47.7 13.8 47.8 13.7 C 47.9 13.6 48 13.4 48 13.2 C 48 13.1 48 13.1 48 13 C 48 12.9 48 12.9 48 12.8 C 48.1 12.4 48.1 12.2 48.1 12.1 C 48.2 12 48.2 12 48.3 12 C 48.4 12 48.5 12.1 48.5 12.2 C 48.5 12.3 48.5 12.4 48.4 12.6 C 48.4 12.7 48.4 12.9 48.4 13 C 48.4 13.3 48.3 13.5 48.2 13.6 C 48.2 13.8 48.1 13.9 47.9 14 C 47.7 14.1 47.5 14.2 47.3 14.2 Z M 49.1 13.2 C 49.1 13.3 49.1 13.3 49 13.4 C 48.9 13.4 48.9 13.4 48.8 13.3 C 48.8 13.1 48.8 12.9 48.9 12.7 C 48.9 12.5 48.9 12.3 48.9 12.2 C 48.9 12.2 48.9 12.2 48.9 12.1 C 49 12 49 12 49 12 C 49.1 11.9 49.1 11.9 49.2 11.9 C 49.2 11.9 49.2 11.9 49.3 11.9 C 49.3 12 49.3 12 49.3 12 C 49.3 12.1 49.3 12.2 49.3 12.3 C 49.2 12.5 49.2 12.7 49.2 12.8 C 49.1 13 49.1 13.1 49.1 13.2 C 49.1 13.2 49.1 13.2 49.1 13.2 Z M 48.8 14 C 48.7 14 48.7 14 48.7 13.9 C 48.7 13.8 48.7 13.8 48.7 13.7 C 48.8 13.7 48.8 13.6 48.9 13.6 C 48.9 13.6 49 13.6 49 13.7 C 49.1 13.7 49.1 13.7 49.1 13.8 C 49.1 13.8 49.1 13.8 49.1 13.8 C 49.1 13.9 49 14 49 14 C 48.9 14 48.9 14 48.8 14 Z " stroke="none" fill="#000"/>  </g>  <g id="Polygon14271">    <path d="M 2.7 8.3 C 2.7 8.3 2.3 8.3 2.3 8.3 C 2.1 8.3 2 8.3 1.9 8.3 C 1.8 8.3 1.7 8.4 1.7 8.4 C 1.7 8.4 1.7 8.4 1.7 8.5 C 1.7 8.5 1.7 8.6 1.6 8.7 C 1.6 8.8 1.6 8.9 1.6 8.9 C 1.7 8.9 1.7 8.9 1.9 8.9 C 2 8.9 2.1 8.9 2.1 8.9 C 2.2 8.9 2.4 8.8 2.4 8.8 C 2.6 8.8 2.7 8.9 2.7 9 C 2.7 9 2.6 9.1 2.6 9.1 C 2.6 9.1 2.5 9.2 2.4 9.2 C 2.3 9.2 2.3 9.2 2.2 9.2 C 2.2 9.2 2.1 9.2 2.1 9.2 C 1.8 9.2 1.6 9.3 1.6 9.3 C 1.6 9.3 1.6 9.3 1.6 9.3 C 1.6 9.3 1.6 9.3 1.6 9.3 C 1.5 9.3 1.5 9.4 1.5 9.5 C 1.5 9.7 1.5 9.8 1.5 9.8 C 1.5 9.8 1.5 9.9 1.5 9.9 C 1.6 9.9 1.7 9.8 1.9 9.8 C 2.1 9.8 2.2 9.8 2.3 9.8 C 2.4 9.7 2.5 9.7 2.5 9.7 C 2.7 9.7 2.7 9.8 2.7 9.9 C 2.7 9.9 2.7 10 2.7 10 C 2.6 10 2.5 10.1 2.3 10.1 C 2.1 10.1 2 10.1 1.8 10.1 C 1.6 10.2 1.5 10.2 1.3 10.2 C 1.2 10.2 1.2 10.2 1.1 10.1 C 1.1 10.1 1.1 10 1.1 10 C 1.1 10 1.1 9.9 1.1 9.9 C 1.1 9.9 1.1 9.9 1.1 9.8 C 1.1 9.7 1.2 9.5 1.2 9 C 1.3 8.6 1.3 8.4 1.3 8.3 C 1.3 8.3 1.3 8.3 1.3 8.3 C 1.3 8.3 1.3 8.3 1.3 8.3 C 1.3 8.2 1.3 8.2 1.3 8.2 C 1.3 8.2 1.3 8.1 1.3 8.1 C 1.3 8.1 1.3 8.1 1.3 8.1 C 1.4 8.1 1.4 8 1.4 8 C 1.5 8 1.5 8 1.6 8.1 C 1.7 8.1 1.9 8 2.4 8 C 2.5 7.9 2.6 7.9 2.6 7.9 C 2.6 7.9 2.6 7.9 2.6 7.9 C 2.8 7.9 2.9 8 2.9 8.1 C 2.9 8.1 2.9 8.2 2.8 8.2 C 2.8 8.2 2.8 8.2 2.7 8.3 Z M 4.5 10 C 4.5 10 4.4 10 4.4 10 C 4.3 10 4.3 10 4.2 10 C 4 10 3.7 10 3.5 10.1 C 3.4 10.1 3.3 10.2 3.2 10.2 C 3.2 10.2 3.1 10.1 3.1 10.1 C 3.1 10 3 10 3 10 C 3 9.9 3.1 9.9 3.1 9.8 C 3.1 9.7 3.1 9.6 3.1 9.5 C 3.1 9.5 3.3 8.3 3.3 8.3 C 3.3 8.2 3.3 8.1 3.3 8.1 C 3.3 8 3.3 8 3.3 8 C 3.4 8 3.4 7.9 3.5 7.9 C 3.5 7.9 3.6 8 3.6 8 C 3.6 8 3.7 8.1 3.7 8.1 C 3.7 8.1 3.7 8.2 3.6 8.3 C 3.6 8.4 3.6 8.7 3.5 9.1 C 3.5 9.5 3.5 9.7 3.5 9.7 C 3.5 9.7 3.5 9.8 3.5 9.8 C 3.5 9.8 3.6 9.7 3.8 9.7 C 3.9 9.7 3.9 9.7 4 9.7 C 4.2 9.7 4.4 9.7 4.5 9.6 C 4.5 9.6 4.6 9.6 4.6 9.6 C 4.6 9.6 4.7 9.6 4.7 9.7 C 4.7 9.7 4.7 9.7 4.7 9.8 C 4.7 9.9 4.7 9.9 4.7 9.9 C 4.6 10 4.5 10 4.5 10 Z M 6.6 8.3 C 6.6 8.3 6.1 8.3 6.1 8.3 C 5.9 8.3 5.8 8.3 5.7 8.3 C 5.6 8.3 5.5 8.4 5.5 8.4 C 5.5 8.4 5.5 8.4 5.5 8.5 C 5.5 8.5 5.5 8.6 5.4 8.7 C 5.4 8.8 5.4 8.9 5.4 8.9 C 5.5 8.9 5.5 8.9 5.7 8.9 C 5.8 8.9 5.9 8.9 5.9 8.9 C 6.1 8.9 6.2 8.8 6.2 8.8 C 6.4 8.8 6.5 8.9 6.5 9 C 6.5 9 6.5 9.1 6.4 9.1 C 6.4 9.1 6.3 9.2 6.2 9.2 C 6.1 9.2 6.1 9.2 6 9.2 C 6 9.2 5.9 9.2 5.9 9.2 C 5.6 9.2 5.4 9.3 5.4 9.3 C 5.4 9.3 5.4 9.3 5.4 9.3 C 5.4 9.3 5.4 9.3 5.4 9.3 C 5.4 9.3 5.3 9.4 5.3 9.5 C 5.3 9.7 5.3 9.8 5.3 9.8 C 5.3 9.8 5.3 9.9 5.3 9.9 C 5.4 9.9 5.5 9.8 5.7 9.8 C 5.9 9.8 6 9.8 6.1 9.8 C 6.2 9.7 6.3 9.7 6.4 9.7 C 6.5 9.7 6.5 9.8 6.5 9.9 C 6.5 9.9 6.5 10 6.5 10 C 6.4 10 6.3 10.1 6.1 10.1 C 6 10.1 5.8 10.1 5.6 10.1 C 5.4 10.2 5.3 10.2 5.1 10.2 C 5 10.2 5 10.2 5 10.1 C 4.9 10.1 4.9 10 4.9 10 C 4.9 10 4.9 9.9 4.9 9.9 C 4.9 9.9 4.9 9.9 4.9 9.8 C 4.9 9.7 5 9.5 5.1 9 C 5.1 8.6 5.1 8.4 5.1 8.3 C 5.1 8.3 5.1 8.3 5.1 8.3 C 5.1 8.3 5.1 8.3 5.1 8.3 C 5.1 8.2 5.1 8.2 5.1 8.2 C 5.1 8.2 5.1 8.1 5.1 8.1 C 5.1 8.1 5.1 8.1 5.1 8.1 C 5.2 8.1 5.2 8 5.2 8 C 5.3 8 5.3 8 5.4 8.1 C 5.5 8.1 5.7 8 6.2 8 C 6.3 7.9 6.4 7.9 6.4 7.9 C 6.4 7.9 6.4 7.9 6.4 7.9 C 6.6 7.9 6.7 8 6.7 8.1 C 6.7 8.1 6.7 8.2 6.6 8.2 C 6.6 8.2 6.6 8.2 6.6 8.3 Z M 10.2 8.1 C 10.2 8.1 10.2 8.1 10.2 8.1 C 10.2 8.1 10.1 8.1 10.1 8.2 C 10 8.4 9.9 8.5 9.8 8.6 C 9.7 8.7 9.6 9 9.4 9.3 C 9.3 9.4 9.2 9.6 9.2 9.6 C 9.1 9.7 9.1 9.9 9 9.9 C 9 10 9 10 8.9 10 C 8.9 10.1 8.8 10.1 8.8 10.1 C 8.7 10.1 8.7 10.1 8.7 10 C 8.6 10 8.6 9.9 8.5 9.7 C 8.5 9.6 8.4 9.4 8.3 9.1 C 8.1 8.5 8 8.2 8 8.2 C 8 8.2 8 8.1 8 8.1 C 8 8 8.1 8 8.1 8 C 8.2 8 8.2 8 8.3 8 C 8.3 8.1 8.3 8.2 8.4 8.3 C 8.4 8.4 8.5 8.6 8.6 8.9 C 8.7 9.2 8.8 9.5 8.9 9.6 C 8.9 9.6 8.9 9.5 9 9.4 C 9 9.4 9 9.4 9 9.4 C 9.1 9.2 9.2 9 9.3 8.8 C 9.5 8.5 9.6 8.3 9.7 8.1 C 9.9 8 9.9 7.9 10 7.9 C 10.1 7.9 10.2 7.9 10.2 8 C 10.18 8.04 10.2 8.1 10.2 8.1 C 10.2 8.1 10.18 8.05 10.2 8.1 Z M 10.4 9.6 C 10.4 9.6 10.4 9.6 10.3 9.6 C 10.3 9.6 10.3 9.7 10.2 9.9 C 10.1 10 10 10.1 10 10.1 C 10 10.1 9.9 10.1 9.9 10.1 C 9.9 10.1 9.8 10.1 9.8 10.1 C 9.7 10 9.7 10 9.7 10 C 9.7 9.9 9.8 9.7 10.1 9.3 C 10.2 9.1 10.3 8.9 10.5 8.7 C 10.7 8.3 10.8 8.1 10.9 8 C 10.9 8 11 7.9 11 7.9 C 11.1 7.9 11.2 7.9 11.2 8 C 11.2 8 11.2 8 11.2 8.1 C 11.2 8.1 11.2 8.2 11.2 8.2 C 11.4 8.7 11.5 9.1 11.6 9.3 C 11.7 9.6 11.8 9.7 11.9 9.8 C 12 9.9 12 9.9 12 9.9 C 12 9.9 12 10 12 10 C 12 10.1 12 10.1 12 10.1 C 11.9 10.2 11.9 10.2 11.8 10.2 C 11.8 10.2 11.7 10.1 11.6 10.1 C 11.5 10 11.5 9.9 11.4 9.7 C 11.3 9.6 11.3 9.5 11.3 9.5 C 11.3 9.5 11.3 9.4 11.3 9.4 C 11.2 9.4 11.1 9.5 10.9 9.5 C 10.8 9.5 10.6 9.6 10.5 9.6 C 10.5 9.6 10.4 9.6 10.4 9.6 C 10.4 9.6 10.4 9.6 10.4 9.6 Z M 11.1 9.2 C 11.1 9.2 11.1 9.2 11.2 9.2 C 11.2 9.1 11.1 8.9 11 8.5 C 11 8.5 11 8.5 11 8.5 C 11 8.5 10.5 9.3 10.5 9.3 C 10.6 9.3 10.7 9.2 10.7 9.2 C 10.8 9.2 10.9 9.2 11.1 9.2 C 11.1 9.2 11.1 9.2 11.1 9.2 Z M 12.7 8.6 C 12.7 8.7 12.7 8.8 12.7 8.8 C 12.7 8.9 12.7 8.9 12.7 9.1 C 12.6 9.3 12.6 9.4 12.6 9.5 C 12.6 9.6 12.6 9.7 12.6 9.9 C 12.7 10 12.6 10 12.6 10.1 C 12.5 10.1 12.5 10.1 12.4 10.1 C 12.4 10.1 12.3 10.1 12.3 10 C 12.3 10 12.2 9.9 12.2 9.7 C 12.2 9.6 12.3 9.4 12.3 9.1 C 12.3 9.1 12.4 8.5 12.4 8.5 C 12.4 8.4 12.4 8.3 12.4 8.3 C 12.4 8.1 12.5 8.1 12.5 8.1 C 12.5 8 12.5 8 12.6 8 C 12.6 8 12.6 7.9 12.7 7.9 C 12.7 7.9 12.8 8 12.8 8 C 12.8 8.1 12.8 8.1 12.8 8.2 C 12.8 8.2 12.7 8.6 12.7 8.6 Z M 14.9 9.4 C 14.8 9.4 14.7 9.4 14.7 9.4 C 14.7 9.6 14.7 9.8 14.7 10 C 14.7 10 14.7 10.1 14.6 10.1 C 14.6 10.1 14.5 10.2 14.5 10.2 C 14.4 10.2 14.3 10.1 14.3 10 C 14.3 9.9 14.3 9.6 14.4 9.2 C 14.4 8.8 14.5 8.6 14.5 8.5 C 14.5 8.4 14.5 8.4 14.5 8.4 C 14.4 8.4 14.4 8.3 14.4 8.2 C 14.4 8.1 14.5 8.1 14.8 8 C 15 7.9 15.2 7.9 15.4 7.9 C 15.7 7.9 15.8 8 16 8 C 16.1 8.1 16.2 8.3 16.2 8.4 C 16.2 8.6 16 8.8 15.8 9 C 15.6 9.2 15.3 9.3 14.9 9.4 C 14.9 9.4 14.9 9.4 14.9 9.4 Z M 15.4 8.2 C 15.2 8.2 15.1 8.2 14.8 8.3 C 14.8 8.3 14.8 9.1 14.8 9.1 C 15 9 15.3 9 15.5 8.8 C 15.7 8.7 15.8 8.6 15.8 8.4 C 15.8 8.3 15.7 8.2 15.4 8.2 C 15.4 8.2 15.4 8.2 15.4 8.2 Z M 18 8.3 C 18 8.3 17.5 8.3 17.5 8.3 C 17.4 8.3 17.2 8.3 17.1 8.3 C 17 8.3 16.9 8.4 16.9 8.4 C 16.9 8.4 16.9 8.4 16.9 8.5 C 16.9 8.5 16.9 8.6 16.9 8.7 C 16.8 8.8 16.8 8.9 16.8 8.9 C 16.9 8.9 17 8.9 17.1 8.9 C 17.2 8.9 17.3 8.9 17.3 8.9 C 17.5 8.9 17.6 8.8 17.7 8.8 C 17.8 8.8 17.9 8.9 17.9 9 C 17.9 9 17.9 9.1 17.8 9.1 C 17.8 9.1 17.7 9.2 17.6 9.2 C 17.6 9.2 17.5 9.2 17.4 9.2 C 17.4 9.2 17.3 9.2 17.3 9.2 C 17 9.2 16.9 9.3 16.8 9.3 C 16.8 9.3 16.8 9.3 16.8 9.3 C 16.8 9.3 16.8 9.3 16.8 9.3 C 16.8 9.3 16.7 9.4 16.7 9.5 C 16.7 9.7 16.7 9.8 16.7 9.8 C 16.7 9.8 16.7 9.9 16.8 9.9 C 16.8 9.9 16.9 9.8 17.1 9.8 C 17.3 9.8 17.5 9.8 17.5 9.8 C 17.6 9.7 17.7 9.7 17.8 9.7 C 17.9 9.7 17.9 9.8 17.9 9.9 C 17.9 9.9 17.9 10 17.9 10 C 17.8 10 17.7 10.1 17.5 10.1 C 17.4 10.1 17.2 10.1 17 10.1 C 16.8 10.2 16.7 10.2 16.5 10.2 C 16.5 10.2 16.4 10.2 16.4 10.1 C 16.3 10.1 16.3 10 16.3 10 C 16.3 10 16.3 9.9 16.3 9.9 C 16.3 9.9 16.3 9.9 16.3 9.8 C 16.4 9.7 16.4 9.5 16.5 9 C 16.5 8.6 16.5 8.4 16.5 8.3 C 16.5 8.3 16.5 8.3 16.5 8.3 C 16.5 8.3 16.5 8.3 16.5 8.3 C 16.5 8.2 16.5 8.2 16.5 8.2 C 16.5 8.2 16.5 8.1 16.5 8.1 C 16.5 8.1 16.5 8.1 16.5 8.1 C 16.6 8.1 16.6 8 16.7 8 C 16.7 8 16.7 8 16.8 8.1 C 16.9 8.1 17.1 8 17.6 8 C 17.7 7.9 17.8 7.9 17.8 7.9 C 17.8 7.9 17.8 7.9 17.8 7.9 C 18 7.9 18.1 8 18.1 8.1 C 18.1 8.1 18.1 8.2 18.1 8.2 C 18 8.2 18 8.2 18 8.3 Z M 18.5 8.3 C 18.5 8.3 18.46 8.28 18.5 8.3 C 18.4 8.2 18.4 8.2 18.4 8.2 C 18.4 8.1 18.4 8.1 18.5 8 C 18.5 8 18.6 8 18.6 8 C 18.6 8 18.7 8 18.7 8 C 18.7 8 18.7 8 18.7 8 C 19 8 19.2 7.9 19.3 7.9 C 19.6 7.9 19.7 8 19.9 8.1 C 20 8.2 20 8.3 20 8.5 C 20 8.6 20 8.8 19.9 8.9 C 19.7 9 19.6 9.1 19.4 9.2 C 19.7 9.5 20 9.7 20.2 9.8 C 20.2 9.8 20.2 9.9 20.2 9.9 C 20.2 10 20.2 10 20.2 10 C 20.1 10.1 20.1 10.1 20.1 10.1 C 20 10.1 19.9 10.1 19.9 10 C 19.8 10 19.7 9.9 19.6 9.8 C 19.4 9.7 19.3 9.6 19.3 9.6 C 19.1 9.5 19 9.4 18.9 9.3 C 18.8 9.3 18.8 9.3 18.8 9.1 C 18.8 9.1 18.8 9.1 18.8 9 C 18.9 9 18.9 9 19 9 C 19 9 19 9 19.1 9 C 19.1 9 19.1 9 19.1 9 C 19.2 9 19.3 8.9 19.4 8.8 C 19.6 8.7 19.7 8.6 19.7 8.5 C 19.7 8.4 19.7 8.3 19.6 8.3 C 19.5 8.2 19.4 8.2 19.3 8.2 C 19.2 8.2 19.1 8.2 19 8.2 C 18.9 8.3 18.9 8.3 18.9 8.3 C 18.9 8.3 18.9 8.3 18.8 8.3 C 18.8 8.3 18.8 8.4 18.8 8.6 C 18.7 8.8 18.7 9 18.7 9.2 C 18.7 9.4 18.6 9.6 18.6 9.7 C 18.6 9.7 18.7 9.8 18.7 9.8 C 18.7 9.9 18.7 9.9 18.7 10 C 18.7 10 18.7 10 18.6 10.1 C 18.6 10.1 18.5 10.1 18.5 10.1 C 18.3 10.1 18.3 10.1 18.3 9.9 C 18.3 9.7 18.3 9.5 18.3 9.2 C 18.4 9 18.4 8.7 18.4 8.5 C 18.5 8.5 18.5 8.4 18.5 8.4 C 18.46 8.41 18.5 8.3 18.5 8.3 Z M 22.5 8.6 C 22.5 8.5 22.5 8.5 22.5 8.5 C 22.5 8.5 22 9.1 22 9.1 C 21.8 9.4 21.6 9.6 21.5 9.6 C 21.4 9.6 21.4 9.6 21.3 9.5 C 21.3 9.4 21.2 9.3 21.2 9.2 C 21.1 9.1 21.1 9 21.1 8.9 C 21 8.7 21 8.6 21 8.6 C 21 8.6 20.9 9 20.9 9 C 20.9 9.1 20.9 9.2 20.8 9.3 C 20.8 9.5 20.8 9.6 20.8 9.7 C 20.7 9.9 20.7 10 20.7 10 C 20.7 10.1 20.7 10.1 20.6 10.1 C 20.6 10.2 20.6 10.2 20.5 10.2 C 20.5 10.2 20.5 10.1 20.4 10.1 C 20.4 10.1 20.4 10 20.4 10 C 20.4 9.9 20.4 9.8 20.4 9.6 C 20.6 9 20.7 8.7 20.7 8.5 C 20.7 8.3 20.7 8.2 20.7 8.1 C 20.7 8.1 20.7 8 20.8 8 C 20.8 8 20.9 8 21 8 C 21 8 21 8 21.1 8 C 21.1 8.1 21.2 8.1 21.2 8.2 C 21.17 8.18 21.2 8.2 21.2 8.2 C 21.2 8.2 21.37 8.75 21.4 8.7 C 21.5 9 21.5 9.1 21.5 9.2 C 21.6 9.1 21.8 8.9 22 8.6 C 22.2 8.3 22.3 8.1 22.4 8 C 22.5 8 22.6 7.9 22.6 7.9 C 22.6 7.9 22.7 7.9 22.7 8 C 22.8 8 22.8 8.1 22.8 8.1 C 22.8 8.1 22.8 8.3 22.8 8.5 C 22.8 8.7 22.7 8.9 22.7 9.2 C 22.7 9.4 22.7 9.5 22.7 9.6 C 22.7 9.6 22.7 9.7 22.7 9.8 C 22.7 9.8 22.7 9.8 22.7 9.9 C 22.7 10 22.7 10 22.7 10.1 C 22.6 10.1 22.6 10.1 22.5 10.1 C 22.4 10.1 22.3 10 22.3 9.8 C 22.3 9.7 22.3 9.4 22.4 9.2 C 22.4 8.9 22.4 8.7 22.5 8.6 C 22.5 8.6 22.5 8.6 22.5 8.6 Z M 23.7 8.6 C 23.7 8.7 23.7 8.8 23.7 8.8 C 23.7 8.9 23.6 8.9 23.6 9.1 C 23.6 9.3 23.6 9.4 23.6 9.5 C 23.6 9.6 23.6 9.7 23.6 9.9 C 23.6 10 23.6 10 23.5 10.1 C 23.5 10.1 23.4 10.1 23.4 10.1 C 23.3 10.1 23.3 10.1 23.3 10 C 23.2 10 23.2 9.9 23.2 9.7 C 23.2 9.6 23.2 9.4 23.3 9.1 C 23.3 9.1 23.4 8.5 23.4 8.5 C 23.4 8.4 23.4 8.3 23.4 8.3 C 23.4 8.1 23.4 8.1 23.4 8.1 C 23.5 8 23.5 8 23.5 8 C 23.6 8 23.6 7.9 23.6 7.9 C 23.7 7.9 23.7 8 23.8 8 C 23.8 8.1 23.8 8.1 23.8 8.2 C 23.8 8.2 23.7 8.6 23.7 8.6 Z M 25.7 8.3 C 25.4 8.3 25.3 8.3 25.2 8.3 C 25.2 8.3 25.2 8.4 25.2 8.4 C 25.1 8.4 25.1 8.6 25.1 8.9 C 25.1 9.2 25 9.4 25 9.6 C 25 9.7 25.1 9.8 25.1 9.9 C 25.1 9.9 25.1 9.9 25.1 9.9 C 25.1 10 25.1 10 25 10.1 C 25 10.1 25 10.1 24.9 10.1 C 24.9 10.1 24.8 10.1 24.8 10.1 C 24.7 10 24.7 10 24.7 9.9 C 24.7 9.8 24.7 9.7 24.7 9.6 C 24.7 9.5 24.7 9.2 24.7 8.9 C 24.8 8.5 24.8 8.4 24.8 8.4 C 24.8 8.4 24.7 8.4 24.5 8.4 C 24.3 8.4 24.2 8.4 24.2 8.4 C 24.1 8.4 24 8.4 23.9 8.4 C 23.9 8.3 23.9 8.3 23.9 8.3 C 23.9 8.2 23.9 8.2 23.9 8.1 C 24 8.1 24.1 8.1 24.3 8.1 C 24.5 8.1 24.8 8.1 25.1 8 C 25.4 8 25.6 8 25.8 8 C 26 8 26.1 8 26.1 8 C 26.1 8.1 26.2 8.1 26.2 8.2 C 26.2 8.3 26.1 8.3 26 8.3 C 26 8.3 26 8.3 25.9 8.3 C 25.8 8.3 25.8 8.3 25.7 8.3 C 25.7 8.3 25.7 8.3 25.7 8.3 Z M 26.5 8.6 C 26.5 8.7 26.5 8.8 26.5 8.8 C 26.5 8.9 26.5 8.9 26.5 9.1 C 26.4 9.3 26.4 9.4 26.4 9.5 C 26.4 9.6 26.4 9.7 26.4 9.9 C 26.4 10 26.4 10 26.4 10.1 C 26.3 10.1 26.3 10.1 26.2 10.1 C 26.2 10.1 26.1 10.1 26.1 10 C 26.1 10 26 9.9 26 9.7 C 26 9.6 26.1 9.4 26.1 9.1 C 26.1 9.1 26.2 8.5 26.2 8.5 C 26.2 8.4 26.2 8.3 26.2 8.3 C 26.2 8.1 26.3 8.1 26.3 8.1 C 26.3 8 26.3 8 26.4 8 C 26.4 8 26.4 7.9 26.5 7.9 C 26.5 7.9 26.6 8 26.6 8 C 26.6 8.1 26.6 8.1 26.6 8.2 C 26.6 8.2 26.5 8.6 26.5 8.6 Z M 27.1 8.3 C 27.1 8.3 27.08 8.28 27.1 8.3 C 27 8.2 27 8.2 27 8.2 C 27 8.1 27.1 8.1 27.1 8 C 27.2 8 27.2 8 27.2 8 C 27.3 8 27.3 8 27.3 8 C 27.3 8 27.3 8 27.4 8 C 27.6 8 27.8 7.9 28 7.9 C 28.2 7.9 28.3 8 28.5 8.1 C 28.6 8.2 28.7 8.3 28.7 8.5 C 28.7 8.6 28.6 8.8 28.5 8.9 C 28.4 9 28.2 9.1 28 9.2 C 28.3 9.5 28.6 9.7 28.8 9.8 C 28.8 9.8 28.9 9.9 28.9 9.9 C 28.9 10 28.8 10 28.8 10 C 28.8 10.1 28.7 10.1 28.7 10.1 C 28.6 10.1 28.5 10.1 28.5 10 C 28.4 10 28.3 9.9 28.2 9.8 C 28 9.7 28 9.6 27.9 9.6 C 27.8 9.5 27.6 9.4 27.5 9.3 C 27.4 9.3 27.4 9.3 27.4 9.1 C 27.4 9.1 27.4 9.1 27.5 9 C 27.5 9 27.6 9 27.6 9 C 27.6 9 27.6 9 27.7 9 C 27.7 9 27.7 9 27.7 9 C 27.8 9 27.9 8.9 28.1 8.8 C 28.2 8.7 28.3 8.6 28.3 8.5 C 28.3 8.4 28.3 8.3 28.2 8.3 C 28.1 8.2 28 8.2 27.9 8.2 C 27.8 8.2 27.7 8.2 27.6 8.2 C 27.5 8.3 27.5 8.3 27.5 8.3 C 27.5 8.3 27.5 8.3 27.5 8.3 C 27.4 8.3 27.4 8.4 27.4 8.6 C 27.4 8.8 27.3 9 27.3 9.2 C 27.3 9.4 27.3 9.6 27.3 9.7 C 27.3 9.7 27.3 9.8 27.3 9.8 C 27.3 9.9 27.3 9.9 27.3 10 C 27.3 10 27.3 10 27.2 10.1 C 27.2 10.1 27.1 10.1 27.1 10.1 C 27 10.1 26.9 10.1 26.9 9.9 C 26.9 9.7 26.9 9.5 26.9 9.2 C 27 9 27 8.7 27.1 8.5 C 27.1 8.5 27.1 8.4 27.1 8.4 C 27.08 8.41 27.1 8.3 27.1 8.3 Z M 31.5 9.7 C 31.5 9.6 31.6 9.6 31.6 9.6 C 31.7 9.6 31.8 9.6 31.8 9.7 C 31.8 9.8 31.7 9.9 31.4 10 C 31.2 10.1 31 10.2 30.8 10.2 C 30.6 10.2 30.5 10.1 30.3 10 C 30.2 9.9 30.1 9.7 30.1 9.5 C 30.1 9.3 30.2 9 30.3 8.8 C 30.5 8.5 30.7 8.3 30.9 8.1 C 31.1 7.9 31.4 7.8 31.6 7.8 C 31.7 7.8 31.8 7.9 31.9 7.9 C 32 8 32 8.1 32 8.2 C 32 8.3 32 8.4 32 8.5 C 32 8.5 31.9 8.6 31.9 8.6 C 31.8 8.6 31.8 8.6 31.7 8.6 C 31.7 8.6 31.7 8.6 31.6 8.6 C 31.6 8.6 31.6 8.5 31.6 8.5 C 31.6 8.5 31.6 8.4 31.6 8.4 C 31.6 8.3 31.7 8.3 31.7 8.2 C 31.7 8.1 31.6 8.1 31.6 8.1 C 31.4 8.1 31.3 8.2 31.1 8.3 C 30.9 8.5 30.8 8.7 30.7 8.9 C 30.5 9.1 30.5 9.3 30.5 9.5 C 30.5 9.6 30.5 9.7 30.6 9.8 C 30.6 9.9 30.7 9.9 30.9 9.9 C 30.9 9.9 31 9.9 31.1 9.8 C 31.3 9.8 31.4 9.7 31.5 9.7 C 31.5 9.7 31.5 9.7 31.5 9.7 Z M 32.8 10.2 C 32.6 10.2 32.5 10.1 32.3 9.9 C 32.2 9.8 32.1 9.6 32.1 9.4 C 32.1 9.2 32.2 9 32.3 8.8 C 32.4 8.5 32.6 8.3 32.8 8.2 C 33 8 33.2 7.9 33.4 7.9 C 33.6 7.9 33.7 8 33.8 8 C 33.9 8 34 8.1 34.1 8.2 C 34.2 8.2 34.2 8.3 34.3 8.4 C 34.3 8.5 34.3 8.6 34.3 8.7 C 34.3 8.9 34.3 9 34.2 9.2 C 34.1 9.4 34 9.5 33.8 9.7 C 33.7 9.8 33.5 10 33.4 10 C 33.2 10.1 33 10.2 32.8 10.2 Z M 32.5 9.4 C 32.5 9.6 32.5 9.7 32.6 9.7 C 32.7 9.8 32.8 9.9 32.9 9.9 C 33.1 9.9 33.4 9.7 33.6 9.5 C 33.8 9.2 33.9 9 33.9 8.7 C 33.9 8.6 33.9 8.5 33.9 8.4 C 33.8 8.4 33.8 8.3 33.7 8.3 C 33.6 8.2 33.5 8.2 33.4 8.2 C 33.2 8.2 33 8.4 32.8 8.6 C 32.6 8.9 32.5 9.2 32.5 9.4 Z M 35.9 8.9 C 36.1 8.9 36.2 9 36.3 9.1 C 36.3 9.2 36.4 9.3 36.4 9.4 C 36.4 9.6 36.3 9.8 36 10 C 35.8 10.2 35.5 10.2 35.3 10.2 C 35.1 10.2 35 10.2 35 10.1 C 35 10 35.1 9.9 35.3 9.9 C 35.3 9.9 35.4 9.9 35.4 9.9 C 35.5 9.9 35.6 9.8 35.8 9.7 C 35.9 9.6 36 9.5 36 9.4 C 36 9.3 36 9.3 35.9 9.2 C 35.9 9.2 35.8 9.1 35.7 9.1 C 35.7 9.1 35.6 9.1 35.6 9.2 C 35.5 9.2 35.4 9.2 35.4 9.2 C 35.3 9.2 35.3 9.2 35.2 9.2 C 35.2 9.2 35.2 9.1 35.2 9 C 35.2 9 35.3 8.9 35.5 8.9 C 35.6 8.8 35.7 8.7 35.8 8.6 C 35.9 8.5 36 8.4 36 8.3 C 36 8.3 35.9 8.2 35.8 8.2 C 35.6 8.2 35.5 8.2 35.4 8.2 C 35.3 8.3 35.2 8.3 35.2 8.4 C 35.2 8.4 35.1 8.6 35.1 9 C 35 9.4 35 9.7 35 9.7 C 35 9.7 35 9.9 35 9.9 C 35 10 34.9 10.1 34.9 10.1 C 34.9 10.1 34.8 10.2 34.8 10.2 C 34.6 10.2 34.6 10.1 34.6 9.9 C 34.6 9.9 34.6 9.8 34.6 9.8 C 34.6 9.6 34.7 9.3 34.7 9 C 34.8 8.7 34.8 8.5 34.8 8.5 C 34.8 8.5 34.8 8.4 34.8 8.4 C 34.8 8.4 34.7 8.4 34.7 8.4 C 34.7 8.4 34.7 8.4 34.6 8.4 C 34.6 8.4 34.6 8.4 34.6 8.4 C 34.6 8.3 34.6 8.3 34.6 8.3 C 34.6 8.2 34.7 8.1 35 8 C 35.3 7.9 35.5 7.9 35.8 7.9 C 36 7.9 36.1 7.9 36.2 8 C 36.3 8.1 36.4 8.2 36.4 8.3 C 36.4 8.4 36.4 8.5 36.3 8.6 C 36.2 8.6 36.1 8.8 35.9 8.9 Z M 36.9 8.3 C 36.9 8.3 36.85 8.28 36.9 8.3 C 36.8 8.2 36.8 8.2 36.8 8.2 C 36.8 8.1 36.8 8.1 36.9 8 C 36.9 8 37 8 37 8 C 37 8 37 8 37.1 8 C 37.1 8 37.1 8 37.1 8 C 37.4 8 37.6 7.9 37.7 7.9 C 38 7.9 38.1 8 38.2 8.1 C 38.4 8.2 38.4 8.3 38.4 8.5 C 38.4 8.6 38.4 8.8 38.3 8.9 C 38.1 9 38 9.1 37.8 9.2 C 38.1 9.5 38.4 9.7 38.5 9.8 C 38.6 9.8 38.6 9.9 38.6 9.9 C 38.6 10 38.6 10 38.6 10 C 38.5 10.1 38.5 10.1 38.4 10.1 C 38.4 10.1 38.3 10.1 38.3 10 C 38.2 10 38.1 9.9 37.9 9.8 C 37.8 9.7 37.7 9.6 37.7 9.6 C 37.5 9.5 37.4 9.4 37.3 9.3 C 37.2 9.3 37.2 9.3 37.2 9.1 C 37.2 9.1 37.2 9.1 37.2 9 C 37.3 9 37.3 9 37.4 9 C 37.4 9 37.4 9 37.4 9 C 37.5 9 37.5 9 37.5 9 C 37.5 9 37.7 8.9 37.8 8.8 C 38 8.7 38.1 8.6 38.1 8.5 C 38.1 8.4 38 8.3 38 8.3 C 37.9 8.2 37.8 8.2 37.7 8.2 C 37.6 8.2 37.5 8.2 37.4 8.2 C 37.3 8.3 37.3 8.3 37.3 8.3 C 37.3 8.3 37.2 8.3 37.2 8.3 C 37.2 8.3 37.2 8.4 37.2 8.6 C 37.1 8.8 37.1 9 37.1 9.2 C 37.1 9.4 37 9.6 37 9.7 C 37 9.7 37 9.8 37.1 9.8 C 37.1 9.9 37.1 9.9 37.1 10 C 37.1 10 37 10 37 10.1 C 37 10.1 36.9 10.1 36.9 10.1 C 36.7 10.1 36.7 10.1 36.7 9.9 C 36.7 9.7 36.7 9.5 36.7 9.2 C 36.7 9 36.8 8.7 36.8 8.5 C 36.8 8.5 36.8 8.4 36.9 8.4 C 36.85 8.41 36.9 8.3 36.9 8.3 Z M 39.3 9.6 C 39.2 9.6 39.2 9.6 39.2 9.6 C 39.2 9.6 39.1 9.7 39 9.9 C 38.9 10 38.9 10.1 38.8 10.1 C 38.8 10.1 38.8 10.1 38.8 10.1 C 38.7 10.1 38.7 10.1 38.6 10.1 C 38.6 10 38.6 10 38.6 10 C 38.6 9.9 38.7 9.7 38.9 9.3 C 39.1 9.1 39.2 8.9 39.3 8.7 C 39.5 8.3 39.6 8.1 39.7 8 C 39.7 8 39.8 7.9 39.9 7.9 C 39.9 7.9 40 7.9 40 8 C 40 8 40.1 8 40.1 8.1 C 40.1 8.1 40.1 8.2 40 8.2 C 40.2 8.7 40.4 9.1 40.5 9.3 C 40.6 9.6 40.7 9.7 40.8 9.8 C 40.8 9.9 40.9 9.9 40.9 9.9 C 40.9 9.9 40.9 10 40.9 10 C 40.9 10.1 40.9 10.1 40.8 10.1 C 40.8 10.2 40.7 10.2 40.7 10.2 C 40.6 10.2 40.5 10.1 40.5 10.1 C 40.4 10 40.3 9.9 40.2 9.7 C 40.2 9.6 40.1 9.5 40.1 9.5 C 40.1 9.5 40.1 9.4 40.1 9.4 C 40.1 9.4 40 9.5 39.8 9.5 C 39.6 9.5 39.5 9.6 39.3 9.6 C 39.3 9.6 39.3 9.6 39.3 9.6 C 39.3 9.6 39.3 9.6 39.3 9.6 Z M 39.9 9.2 C 39.9 9.2 40 9.2 40 9.2 C 40 9.1 39.9 8.9 39.8 8.5 C 39.8 8.5 39.8 8.5 39.8 8.5 C 39.8 8.5 39.4 9.3 39.4 9.3 C 39.4 9.3 39.5 9.2 39.6 9.2 C 39.6 9.2 39.7 9.2 39.9 9.2 C 39.9 9.2 39.9 9.2 39.9 9.2 Z M 41.3 8.3 C 41.3 8.3 41.24 8.28 41.2 8.3 C 41.2 8.2 41.2 8.2 41.2 8.2 C 41.2 8.1 41.2 8.1 41.3 8 C 41.3 8 41.4 8 41.4 8 C 41.4 8 41.4 8 41.5 8 C 41.5 8 41.5 8 41.5 8 C 41.8 8 42 7.9 42.1 7.9 C 42.3 7.9 42.5 8 42.6 8.1 C 42.8 8.2 42.8 8.3 42.8 8.5 C 42.8 8.6 42.8 8.8 42.6 8.9 C 42.5 9 42.3 9.1 42.1 9.2 C 42.5 9.5 42.8 9.7 42.9 9.8 C 43 9.8 43 9.9 43 9.9 C 43 10 43 10 43 10 C 42.9 10.1 42.9 10.1 42.8 10.1 C 42.8 10.1 42.7 10.1 42.6 10 C 42.6 10 42.5 9.9 42.3 9.8 C 42.2 9.7 42.1 9.6 42.1 9.6 C 41.9 9.5 41.8 9.4 41.7 9.3 C 41.6 9.3 41.5 9.3 41.5 9.1 C 41.5 9.1 41.6 9.1 41.6 9 C 41.7 9 41.7 9 41.8 9 C 41.8 9 41.8 9 41.8 9 C 41.8 9 41.9 9 41.9 9 C 41.9 9 42 8.9 42.2 8.8 C 42.4 8.7 42.5 8.6 42.5 8.5 C 42.5 8.4 42.4 8.3 42.4 8.3 C 42.3 8.2 42.2 8.2 42.1 8.2 C 42 8.2 41.9 8.2 41.8 8.2 C 41.7 8.3 41.7 8.3 41.6 8.3 C 41.6 8.3 41.6 8.3 41.6 8.3 C 41.6 8.3 41.6 8.4 41.6 8.6 C 41.5 8.8 41.5 9 41.5 9.2 C 41.4 9.4 41.4 9.6 41.4 9.7 C 41.4 9.7 41.4 9.8 41.4 9.8 C 41.4 9.9 41.5 9.9 41.5 10 C 41.5 10 41.4 10 41.4 10.1 C 41.3 10.1 41.3 10.1 41.3 10.1 C 41.1 10.1 41.1 10.1 41.1 9.9 C 41.1 9.7 41.1 9.5 41.1 9.2 C 41.1 9 41.2 8.7 41.2 8.5 C 41.2 8.5 41.2 8.4 41.2 8.4 C 41.24 8.41 41.3 8.3 41.3 8.3 Z M 44.9 10.2 C 44.7 10.2 44.6 10.1 44.5 9.9 C 44.3 9.8 44.3 9.6 44.3 9.4 C 44.3 9.2 44.3 9 44.4 8.8 C 44.6 8.5 44.7 8.3 44.9 8.2 C 45.1 8 45.3 7.9 45.5 7.9 C 45.7 7.9 45.8 8 45.9 8 C 46 8 46.1 8.1 46.2 8.2 C 46.3 8.2 46.4 8.3 46.4 8.4 C 46.4 8.5 46.4 8.6 46.4 8.7 C 46.4 8.9 46.4 9 46.3 9.2 C 46.2 9.4 46.1 9.5 46 9.7 C 45.8 9.8 45.7 10 45.5 10 C 45.4 10.1 45.1 10.2 44.9 10.2 Z M 44.6 9.4 C 44.6 9.6 44.7 9.7 44.7 9.7 C 44.8 9.8 44.9 9.9 45 9.9 C 45.2 9.9 45.5 9.7 45.7 9.5 C 46 9.2 46.1 9 46.1 8.7 C 46.1 8.6 46 8.5 46 8.4 C 46 8.4 45.9 8.3 45.8 8.3 C 45.7 8.2 45.6 8.2 45.5 8.2 C 45.3 8.2 45.1 8.4 44.9 8.6 C 44.7 8.9 44.6 9.2 44.6 9.4 Z M 48.5 9.4 C 48.4 9.4 48.3 9.4 48.3 9.4 C 48.2 9.6 48.2 9.8 48.2 10 C 48.2 10 48.2 10.1 48.2 10.1 C 48.2 10.1 48.1 10.2 48.1 10.2 C 47.9 10.2 47.9 10.1 47.9 10 C 47.9 9.9 47.9 9.6 48 9.2 C 48 8.8 48 8.6 48 8.5 C 48 8.4 48 8.4 48 8.4 C 48 8.4 47.9 8.3 47.9 8.2 C 47.9 8.1 48.1 8.1 48.3 8 C 48.6 7.9 48.8 7.9 49 7.9 C 49.2 7.9 49.4 8 49.5 8 C 49.7 8.1 49.7 8.3 49.7 8.4 C 49.7 8.6 49.6 8.8 49.4 9 C 49.1 9.2 48.8 9.3 48.5 9.4 C 48.5 9.4 48.5 9.4 48.5 9.4 Z M 49 8.2 C 48.8 8.2 48.6 8.2 48.4 8.3 C 48.4 8.3 48.3 9.1 48.3 9.1 C 48.6 9 48.8 9 49.1 8.8 C 49.3 8.7 49.4 8.6 49.4 8.4 C 49.4 8.3 49.2 8.2 49 8.2 C 49 8.2 49 8.2 49 8.2 Z M 50.4 10.2 C 50.3 10.2 50.1 10.1 50 9.9 C 49.9 9.8 49.8 9.6 49.8 9.4 C 49.8 9.2 49.9 9 50 8.8 C 50.1 8.5 50.3 8.3 50.5 8.2 C 50.6 8 50.9 7.9 51.1 7.9 C 51.2 7.9 51.4 8 51.5 8 C 51.6 8 51.7 8.1 51.8 8.2 C 51.8 8.2 51.9 8.3 51.9 8.4 C 52 8.5 52 8.6 52 8.7 C 52 8.9 51.9 9 51.9 9.2 C 51.8 9.4 51.7 9.5 51.5 9.7 C 51.4 9.8 51.2 10 51 10 C 50.9 10.1 50.7 10.2 50.4 10.2 Z M 50.2 9.4 C 50.2 9.6 50.2 9.7 50.3 9.7 C 50.3 9.8 50.4 9.9 50.5 9.9 C 50.8 9.9 51 9.7 51.3 9.5 C 51.5 9.2 51.6 9 51.6 8.7 C 51.6 8.6 51.6 8.5 51.5 8.4 C 51.5 8.4 51.4 8.3 51.4 8.3 C 51.3 8.2 51.2 8.2 51.1 8.2 C 50.9 8.2 50.7 8.4 50.5 8.6 C 50.3 8.9 50.2 9.2 50.2 9.4 Z M 53.6 10 C 53.6 10 53.6 10 53.5 10 C 53.4 10 53.4 10 53.4 10 C 53.1 10 52.8 10 52.6 10.1 C 52.5 10.1 52.4 10.2 52.4 10.2 C 52.3 10.2 52.3 10.1 52.2 10.1 C 52.2 10 52.2 10 52.2 10 C 52.2 9.9 52.2 9.9 52.2 9.8 C 52.2 9.7 52.3 9.6 52.3 9.5 C 52.3 9.5 52.4 8.3 52.4 8.3 C 52.4 8.2 52.4 8.1 52.4 8.1 C 52.4 8 52.5 8 52.5 8 C 52.5 8 52.6 7.9 52.6 7.9 C 52.7 7.9 52.7 8 52.8 8 C 52.8 8 52.8 8.1 52.8 8.1 C 52.8 8.1 52.8 8.2 52.8 8.3 C 52.8 8.4 52.7 8.7 52.7 9.1 C 52.6 9.5 52.6 9.7 52.6 9.7 C 52.6 9.7 52.6 9.8 52.6 9.8 C 52.7 9.8 52.8 9.7 52.9 9.7 C 53 9.7 53.1 9.7 53.2 9.7 C 53.4 9.7 53.5 9.7 53.6 9.6 C 53.7 9.6 53.7 9.6 53.7 9.6 C 53.8 9.6 53.8 9.6 53.8 9.7 C 53.9 9.7 53.9 9.7 53.9 9.8 C 53.9 9.9 53.8 9.9 53.8 9.9 C 53.7 10 53.7 10 53.6 10 Z M 54.5 8.6 C 54.5 8.7 54.5 8.8 54.5 8.8 C 54.5 8.9 54.5 8.9 54.5 9.1 C 54.4 9.3 54.4 9.4 54.4 9.5 C 54.4 9.6 54.4 9.7 54.4 9.9 C 54.5 10 54.4 10 54.4 10.1 C 54.3 10.1 54.3 10.1 54.2 10.1 C 54.2 10.1 54.1 10.1 54.1 10 C 54.1 10 54.1 9.9 54.1 9.7 C 54.1 9.6 54.1 9.4 54.1 9.1 C 54.1 9.1 54.2 8.5 54.2 8.5 C 54.2 8.4 54.2 8.3 54.2 8.3 C 54.3 8.1 54.3 8.1 54.3 8.1 C 54.3 8 54.3 8 54.4 8 C 54.4 8 54.5 7.9 54.5 7.9 C 54.5 7.9 54.6 8 54.6 8 C 54.6 8.1 54.6 8.1 54.6 8.2 C 54.6 8.2 54.5 8.6 54.5 8.6 Z M 55 7.2 C 55 7.3 54.9 7.3 54.8 7.4 C 54.8 7.4 54.8 7.4 54.8 7.4 C 54.8 7.4 54.7 7.5 54.5 7.6 C 54.5 7.6 54.5 7.6 54.4 7.6 C 54.4 7.6 54.4 7.6 54.4 7.6 C 54.4 7.6 54.3 7.6 54.3 7.6 C 54.3 7.6 54.3 7.6 54.3 7.5 C 54.3 7.5 54.4 7.4 54.5 7.3 C 54.5 7.3 54.5 7.3 54.5 7.3 C 54.5 7.2 54.6 7.2 54.6 7.2 C 54.8 7.1 54.9 7 54.9 6.9 C 55 6.9 55 6.9 55 6.9 C 55 6.9 55.1 6.9 55.1 7 C 55.1 7 55.2 7.1 55.2 7.1 C 55.2 7.1 55.1 7.1 55.1 7.2 C 55.1 7.2 55.1 7.2 55 7.2 C 55 7.2 55 7.2 55 7.2 Z M 56.5 8.3 C 56.3 8.3 56.1 8.3 56 8.3 C 56 8.3 56 8.4 56 8.4 C 56 8.4 56 8.6 55.9 8.9 C 55.9 9.2 55.9 9.4 55.9 9.6 C 55.9 9.7 55.9 9.8 55.9 9.9 C 55.9 9.9 55.9 9.9 55.9 9.9 C 55.9 10 55.9 10 55.9 10.1 C 55.8 10.1 55.8 10.1 55.8 10.1 C 55.7 10.1 55.7 10.1 55.6 10.1 C 55.6 10 55.6 10 55.6 9.9 C 55.5 9.8 55.5 9.7 55.5 9.6 C 55.5 9.5 55.6 9.2 55.6 8.9 C 55.6 8.5 55.7 8.4 55.7 8.4 C 55.6 8.4 55.5 8.4 55.3 8.4 C 55.1 8.4 55 8.4 55 8.4 C 54.9 8.4 54.8 8.4 54.8 8.4 C 54.8 8.3 54.7 8.3 54.7 8.3 C 54.7 8.2 54.8 8.2 54.8 8.1 C 54.8 8.1 54.9 8.1 55.1 8.1 C 55.4 8.1 55.7 8.1 55.9 8 C 56.2 8 56.5 8 56.6 8 C 56.8 8 56.9 8 57 8 C 57 8.1 57 8.1 57 8.2 C 57 8.3 57 8.3 56.9 8.3 C 56.9 8.3 56.8 8.3 56.8 8.3 C 56.7 8.3 56.6 8.3 56.5 8.3 C 56.5 8.3 56.5 8.3 56.5 8.3 Z M 57.4 8.6 C 57.4 8.7 57.3 8.8 57.3 8.8 C 57.3 8.9 57.3 8.9 57.3 9.1 C 57.3 9.3 57.3 9.4 57.3 9.5 C 57.3 9.6 57.3 9.7 57.3 9.9 C 57.3 10 57.3 10 57.2 10.1 C 57.2 10.1 57.1 10.1 57.1 10.1 C 57 10.1 57 10.1 56.9 10 C 56.9 10 56.9 9.9 56.9 9.7 C 56.9 9.6 56.9 9.4 57 9.1 C 57 9.1 57 8.5 57 8.5 C 57.1 8.4 57.1 8.3 57.1 8.3 C 57.1 8.1 57.1 8.1 57.1 8.1 C 57.1 8 57.2 8 57.2 8 C 57.3 8 57.3 7.9 57.3 7.9 C 57.4 7.9 57.4 8 57.4 8 C 57.5 8.1 57.5 8.1 57.5 8.2 C 57.5 8.2 57.4 8.6 57.4 8.6 Z M 59 9.7 C 59.1 9.6 59.2 9.6 59.2 9.6 C 59.3 9.6 59.3 9.6 59.3 9.7 C 59.3 9.8 59.2 9.9 59 10 C 58.8 10.1 58.6 10.2 58.4 10.2 C 58.2 10.2 58.1 10.1 57.9 10 C 57.8 9.9 57.7 9.7 57.7 9.5 C 57.7 9.3 57.8 9 57.9 8.8 C 58.1 8.5 58.3 8.3 58.5 8.1 C 58.7 7.9 59 7.8 59.2 7.8 C 59.3 7.8 59.4 7.9 59.5 7.9 C 59.6 8 59.6 8.1 59.6 8.2 C 59.6 8.3 59.6 8.4 59.6 8.5 C 59.6 8.5 59.5 8.6 59.5 8.6 C 59.4 8.6 59.4 8.6 59.3 8.6 C 59.3 8.6 59.3 8.6 59.2 8.6 C 59.2 8.6 59.2 8.5 59.2 8.5 C 59.2 8.5 59.2 8.4 59.2 8.4 C 59.2 8.3 59.2 8.3 59.2 8.2 C 59.2 8.1 59.2 8.1 59.2 8.1 C 59 8.1 58.9 8.2 58.7 8.3 C 58.5 8.5 58.4 8.7 58.2 8.9 C 58.1 9.1 58.1 9.3 58.1 9.5 C 58.1 9.6 58.1 9.7 58.2 9.8 C 58.2 9.9 58.3 9.9 58.4 9.9 C 58.5 9.9 58.6 9.9 58.7 9.8 C 58.8 9.8 58.9 9.7 59 9.7 C 59 9.7 59 9.7 59 9.7 Z M 60.4 10.2 C 60.2 10.2 60 10.1 59.9 9.9 C 59.8 9.8 59.7 9.6 59.7 9.4 C 59.7 9.2 59.8 9 59.9 8.8 C 60 8.5 60.2 8.3 60.4 8.2 C 60.6 8 60.8 7.9 61 7.9 C 61.1 7.9 61.3 8 61.4 8 C 61.5 8 61.6 8.1 61.7 8.2 C 61.8 8.2 61.8 8.3 61.9 8.4 C 61.9 8.5 61.9 8.6 61.9 8.7 C 61.9 8.9 61.9 9 61.8 9.2 C 61.7 9.4 61.6 9.5 61.4 9.7 C 61.3 9.8 61.1 10 61 10 C 60.8 10.1 60.6 10.2 60.4 10.2 Z M 60.1 9.4 C 60.1 9.6 60.1 9.7 60.2 9.7 C 60.3 9.8 60.3 9.9 60.4 9.9 C 60.7 9.9 61 9.7 61.2 9.5 C 61.4 9.2 61.5 9 61.5 8.7 C 61.5 8.6 61.5 8.5 61.5 8.4 C 61.4 8.4 61.4 8.3 61.3 8.3 C 61.2 8.2 61.1 8.2 61 8.2 C 60.8 8.2 60.6 8.4 60.4 8.6 C 60.2 8.9 60.1 9.2 60.1 9.4 Z M 64.9 8.2 C 65 8.3 65.1 8.4 65.2 8.5 C 65.3 8.7 65.3 8.8 65.3 9 C 65.3 9.1 65.3 9.3 65.2 9.4 C 65.1 9.6 64.9 9.7 64.8 9.9 C 65 10.1 65.1 10.2 65.1 10.3 C 65.1 10.3 65.2 10.4 65.2 10.4 C 65.2 10.4 65.1 10.4 65.1 10.5 C 65 10.5 65 10.6 64.9 10.6 C 64.9 10.6 64.8 10.5 64.8 10.5 C 64.8 10.4 64.7 10.3 64.6 10.2 C 64.5 10.1 64.5 10 64.5 10 C 64.5 10 64.4 10 64.4 10 C 64.2 10.1 64.1 10.1 63.9 10.1 C 63.7 10.1 63.6 10 63.4 9.9 C 63.3 9.8 63.2 9.7 63.2 9.5 C 63.2 9.2 63.3 9 63.4 8.8 C 63.6 8.5 63.8 8.3 64 8.1 C 64.2 8 64.5 7.9 64.6 7.9 C 64.7 7.9 64.8 7.9 64.8 8 C 64.9 8 64.9 8.1 64.9 8.2 Z M 63.9 9.8 C 64 9.8 64.1 9.8 64.2 9.8 C 64.2 9.7 64.2 9.7 64.2 9.7 C 64.1 9.6 64.1 9.5 64.1 9.5 C 64.1 9.5 64.1 9.5 64.1 9.4 C 64.2 9.4 64.3 9.3 64.3 9.3 C 64.4 9.3 64.4 9.4 64.4 9.4 C 64.5 9.5 64.5 9.5 64.5 9.6 C 64.5 9.6 64.6 9.6 64.6 9.6 C 64.6 9.6 64.7 9.6 64.8 9.4 C 64.9 9.3 65 9.1 65 9 C 65 8.8 64.9 8.6 64.8 8.5 C 64.7 8.3 64.6 8.2 64.5 8.2 C 64.4 8.2 64.3 8.3 64.1 8.4 C 64 8.6 63.8 8.7 63.7 8.9 C 63.6 9.1 63.6 9.3 63.6 9.4 C 63.6 9.6 63.6 9.6 63.7 9.7 C 63.7 9.8 63.8 9.8 63.9 9.8 C 63.9 9.8 63.9 9.8 63.9 9.8 Z M 66.5 10.2 C 66.4 10.2 66.2 10.1 66.1 10.1 C 66 10 65.8 9.9 65.8 9.7 C 65.7 9.6 65.7 9.4 65.7 9.2 C 65.7 9.1 65.7 9 65.7 8.9 C 65.7 8.9 65.7 8.6 65.7 8.6 C 65.8 8.5 65.8 8.5 65.8 8.5 C 65.8 8.4 65.8 8.3 65.8 8.3 C 65.8 8.2 65.8 8.1 65.9 8 C 65.9 8 66 7.9 66 7.9 C 66.1 7.9 66.1 8 66.1 8 C 66.2 8.1 66.2 8.1 66.2 8.2 C 66.2 8.2 66.2 8.3 66.1 8.5 C 66.1 8.5 66.1 8.6 66.1 8.8 C 66 9 66 9.1 66 9.2 C 66 9.5 66.1 9.6 66.2 9.7 C 66.3 9.8 66.4 9.9 66.5 9.9 C 66.7 9.9 66.9 9.8 67 9.7 C 67.1 9.6 67.1 9.4 67.2 9.2 C 67.2 9.1 67.2 9.1 67.2 9 C 67.2 8.9 67.2 8.9 67.2 8.8 C 67.2 8.4 67.3 8.2 67.3 8.1 C 67.3 8 67.4 8 67.5 8 C 67.6 8 67.6 8.1 67.6 8.2 C 67.6 8.3 67.6 8.4 67.6 8.6 C 67.6 8.7 67.5 8.9 67.5 9 C 67.5 9.3 67.5 9.5 67.4 9.6 C 67.4 9.8 67.2 9.9 67.1 10 C 66.9 10.1 66.7 10.2 66.5 10.2 Z M 69.5 8.3 C 69.5 8.3 69.1 8.3 69.1 8.3 C 68.9 8.3 68.8 8.3 68.7 8.3 C 68.6 8.3 68.5 8.4 68.5 8.4 C 68.5 8.4 68.5 8.4 68.5 8.5 C 68.5 8.5 68.5 8.6 68.4 8.7 C 68.4 8.8 68.4 8.9 68.4 8.9 C 68.5 8.9 68.5 8.9 68.7 8.9 C 68.8 8.9 68.9 8.9 68.9 8.9 C 69.1 8.9 69.2 8.8 69.2 8.8 C 69.4 8.8 69.5 8.9 69.5 9 C 69.5 9 69.4 9.1 69.4 9.1 C 69.4 9.1 69.3 9.2 69.2 9.2 C 69.1 9.2 69.1 9.2 69 9.2 C 69 9.2 68.9 9.2 68.9 9.2 C 68.6 9.2 68.4 9.3 68.4 9.3 C 68.4 9.3 68.4 9.3 68.4 9.3 C 68.4 9.3 68.4 9.3 68.4 9.3 C 68.3 9.3 68.3 9.4 68.3 9.5 C 68.3 9.7 68.3 9.8 68.3 9.8 C 68.3 9.8 68.3 9.9 68.3 9.9 C 68.4 9.9 68.5 9.8 68.7 9.8 C 68.9 9.8 69 9.8 69.1 9.8 C 69.2 9.7 69.3 9.7 69.3 9.7 C 69.5 9.7 69.5 9.8 69.5 9.9 C 69.5 9.9 69.5 10 69.5 10 C 69.4 10 69.3 10.1 69.1 10.1 C 69 10.1 68.8 10.1 68.6 10.1 C 68.4 10.2 68.3 10.2 68.1 10.2 C 68 10.2 68 10.2 67.9 10.1 C 67.9 10.1 67.9 10 67.9 10 C 67.9 10 67.9 9.9 67.9 9.9 C 67.9 9.9 67.9 9.9 67.9 9.8 C 67.9 9.7 68 9.5 68 9 C 68.1 8.6 68.1 8.4 68.1 8.3 C 68.1 8.3 68.1 8.3 68.1 8.3 C 68.1 8.3 68.1 8.3 68.1 8.3 C 68.1 8.2 68.1 8.2 68.1 8.2 C 68.1 8.2 68.1 8.1 68.1 8.1 C 68.1 8.1 68.1 8.1 68.1 8.1 C 68.2 8.1 68.2 8 68.2 8 C 68.3 8 68.3 8 68.4 8.1 C 68.5 8.1 68.7 8 69.2 8 C 69.3 7.9 69.4 7.9 69.4 7.9 C 69.4 7.9 69.4 7.9 69.4 7.9 C 69.6 7.9 69.7 8 69.7 8.1 C 69.7 8.1 69.7 8.2 69.6 8.2 C 69.6 8.2 69.6 8.2 69.5 8.3 Z M 71.5 9.6 C 71.4 9.6 71.4 9.6 71.4 9.6 C 71.4 9.6 71.3 9.7 71.2 9.9 C 71.2 10 71.1 10.1 71.1 10.1 C 71 10.1 71 10.1 71 10.1 C 70.9 10.1 70.9 10.1 70.8 10.1 C 70.8 10 70.8 10 70.8 10 C 70.8 9.9 70.9 9.7 71.1 9.3 C 71.3 9.1 71.4 8.9 71.5 8.7 C 71.7 8.3 71.9 8.1 71.9 8 C 72 8 72 7.9 72.1 7.9 C 72.1 7.9 72.2 7.9 72.2 8 C 72.3 8 72.3 8 72.3 8.1 C 72.3 8.1 72.3 8.2 72.3 8.2 C 72.4 8.7 72.6 9.1 72.7 9.3 C 72.8 9.6 72.9 9.7 73 9.8 C 73 9.9 73.1 9.9 73.1 9.9 C 73.1 9.9 73.1 10 73.1 10 C 73.1 10.1 73.1 10.1 73 10.1 C 73 10.2 73 10.2 72.9 10.2 C 72.8 10.2 72.8 10.1 72.7 10.1 C 72.6 10 72.5 9.9 72.5 9.7 C 72.4 9.6 72.4 9.5 72.4 9.5 C 72.4 9.5 72.4 9.4 72.3 9.4 C 72.3 9.4 72.2 9.5 72 9.5 C 71.8 9.5 71.7 9.6 71.6 9.6 C 71.5 9.6 71.5 9.6 71.5 9.6 C 71.5 9.6 71.5 9.6 71.5 9.6 Z M 72.1 9.2 C 72.2 9.2 72.2 9.2 72.2 9.2 C 72.2 9.1 72.1 8.9 72 8.5 C 72 8.5 72 8.5 72 8.5 C 72 8.5 71.6 9.3 71.6 9.3 C 71.7 9.3 71.7 9.2 71.8 9.2 C 71.8 9.2 71.9 9.2 72.1 9.2 C 72.1 9.2 72.1 9.2 72.1 9.2 Z " stroke="none" fill="#000"/>  </g>  <g id="Polygon14270">    <path d="M 6.8 5.1 C 6.7 5.2 6.7 5.3 6.7 5.4 C 6.7 5.4 6.7 5.4 6.7 5.4 C 6.7 5.4 6.7 5.5 6.6 5.7 C 6.6 5.8 6.6 5.9 6.6 6 C 6.6 6.1 6.6 6.2 6.6 6.2 C 6.6 6.2 6.6 6.3 6.6 6.3 C 6.6 6.3 6.5 6.4 6.5 6.4 C 6.5 6.4 6.4 6.4 6.4 6.4 C 6.4 6.4 6.3 6.4 6.3 6.3 C 6.2 6.3 6.2 6.3 6.2 6.2 C 6.2 6.2 6.2 6.1 6.2 6 C 6.3 5.9 6.3 5.8 6.3 5.7 C 6 5.9 5.7 6.1 5.4 6.1 C 5.2 6.1 5.1 6 5 5.9 C 4.9 5.8 4.9 5.7 4.9 5.5 C 4.9 5.2 4.9 4.9 5.1 4.7 C 5.1 4.7 5.1 4.7 5.1 4.7 C 5.3 4.4 5.5 4.2 5.7 4.1 C 6 3.9 6.2 3.8 6.5 3.8 C 6.6 3.8 6.7 3.9 6.8 3.9 C 6.8 3.9 6.9 4 6.9 4.1 C 6.9 4.1 6.9 4.2 6.8 4.3 C 6.8 4.3 6.7 4.4 6.6 4.4 C 6.6 4.4 6.6 4.4 6.6 4.4 C 6.6 4.3 6.5 4.3 6.5 4.3 C 6.5 4.2 6.5 4.2 6.5 4.2 C 6.4 4.2 6.4 4.2 6.4 4.2 C 6.2 4.2 6 4.2 5.9 4.4 C 5.7 4.5 5.5 4.7 5.4 4.9 C 5.3 5.1 5.2 5.3 5.2 5.5 C 5.2 5.7 5.3 5.8 5.5 5.8 C 5.5 5.8 5.6 5.7 5.8 5.7 C 5.9 5.7 6 5.6 6.1 5.5 C 6.3 5.4 6.4 5.3 6.4 5.2 C 6.4 5.2 6.4 5.1 6.4 5 C 6.4 4.9 6.5 4.9 6.5 4.9 C 6.5 4.8 6.6 4.8 6.6 4.8 C 6.8 4.8 6.8 4.9 6.8 5 C 6.8 5 6.8 5.1 6.8 5.1 C 6.8 5.1 6.8 5.1 6.8 5.1 Z M 7.7 6.2 C 7.6 6.2 7.4 6.1 7.3 5.9 C 7.2 5.8 7.1 5.6 7.1 5.4 C 7.1 5.2 7.2 5 7.3 4.8 C 7.4 4.5 7.6 4.3 7.8 4.2 C 8 4 8.2 3.9 8.4 3.9 C 8.5 3.9 8.7 4 8.8 4 C 8.9 4 9 4.1 9.1 4.2 C 9.2 4.2 9.2 4.3 9.2 4.4 C 9.3 4.5 9.3 4.6 9.3 4.7 C 9.3 4.9 9.2 5 9.2 5.2 C 9.1 5.4 9 5.5 8.8 5.7 C 8.7 5.8 8.5 6 8.4 6 C 8.2 6.1 8 6.2 7.7 6.2 Z M 7.5 5.4 C 7.5 5.6 7.5 5.7 7.6 5.7 C 7.7 5.8 7.7 5.9 7.8 5.9 C 8.1 5.9 8.3 5.7 8.6 5.5 C 8.8 5.2 8.9 5 8.9 4.7 C 8.9 4.6 8.9 4.5 8.9 4.4 C 8.8 4.4 8.8 4.3 8.7 4.3 C 8.6 4.2 8.5 4.2 8.4 4.2 C 8.2 4.2 8 4.4 7.8 4.6 C 7.6 4.9 7.5 5.2 7.5 5.4 Z M 11.1 4.2 C 11.1 4.4 11 4.5 10.9 4.5 C 10.9 4.4 10.8 4.3 10.8 4.3 C 10.7 4.3 10.7 4.2 10.6 4.2 C 10.4 4.2 10.2 4.3 10.1 4.4 C 10 4.4 9.9 4.5 9.9 4.6 C 9.9 4.7 9.9 4.7 10 4.8 C 10 4.8 10.2 4.9 10.4 4.9 C 10.6 5 10.8 5.1 10.9 5.2 C 11 5.2 11.1 5.3 11.1 5.5 C 11.1 5.6 10.9 5.8 10.6 6 C 10.4 6.1 10.1 6.2 9.7 6.2 C 9.6 6.2 9.6 6.2 9.5 6.2 C 9.4 6.1 9.4 6.1 9.4 6 C 9.4 5.9 9.4 5.9 9.5 5.9 C 9.5 5.8 9.5 5.8 9.6 5.8 C 9.6 5.8 9.6 5.8 9.6 5.8 C 9.7 5.9 9.8 5.9 9.9 5.9 C 10.1 5.9 10.2 5.8 10.4 5.7 C 10.6 5.7 10.7 5.6 10.7 5.5 C 10.7 5.5 10.7 5.4 10.6 5.4 C 10.6 5.4 10.5 5.3 10.3 5.3 C 10.1 5.2 10 5.1 9.9 5.1 C 9.8 5.1 9.7 5 9.6 4.9 C 9.6 4.9 9.5 4.8 9.5 4.7 C 9.5 4.5 9.6 4.3 9.9 4.2 C 10.1 4 10.3 3.9 10.6 3.9 C 10.8 3.9 10.9 4 11 4 C 11.1 4.1 11.1 4.2 11.1 4.2 C 11.1 4.2 11.1 4.2 11.1 4.2 Z M 13 4.3 C 12.7 4.3 12.6 4.3 12.5 4.3 C 12.5 4.3 12.5 4.4 12.5 4.4 C 12.4 4.4 12.4 4.6 12.4 4.9 C 12.4 5.2 12.3 5.4 12.3 5.6 C 12.3 5.7 12.4 5.8 12.4 5.9 C 12.4 5.9 12.4 5.9 12.4 5.9 C 12.4 6 12.4 6 12.3 6.1 C 12.3 6.1 12.3 6.1 12.2 6.1 C 12.2 6.1 12.1 6.1 12.1 6.1 C 12 6 12 6 12 5.9 C 12 5.8 12 5.7 12 5.6 C 12 5.5 12 5.2 12 4.9 C 12.1 4.5 12.1 4.4 12.1 4.4 C 12.1 4.4 12 4.4 11.8 4.4 C 11.6 4.4 11.5 4.4 11.5 4.4 C 11.4 4.4 11.3 4.4 11.2 4.4 C 11.2 4.3 11.2 4.3 11.2 4.3 C 11.2 4.2 11.2 4.2 11.2 4.1 C 11.3 4.1 11.4 4.1 11.6 4.1 C 11.8 4.1 12.1 4.1 12.4 4 C 12.7 4 12.9 4 13.1 4 C 13.3 4 13.4 4 13.4 4 C 13.4 4.1 13.5 4.1 13.5 4.2 C 13.5 4.3 13.4 4.3 13.3 4.3 C 13.3 4.3 13.3 4.3 13.2 4.3 C 13.1 4.3 13.1 4.3 13 4.3 C 13 4.3 13 4.3 13 4.3 Z M 15 4.3 C 15 4.3 14.5 4.3 14.5 4.3 C 14.4 4.3 14.2 4.3 14.1 4.3 C 14 4.3 13.9 4.4 13.9 4.4 C 13.9 4.4 13.9 4.4 13.9 4.5 C 13.9 4.5 13.9 4.6 13.9 4.7 C 13.8 4.8 13.8 4.9 13.8 4.9 C 13.9 4.9 14 4.9 14.1 4.9 C 14.2 4.9 14.3 4.9 14.3 4.9 C 14.5 4.9 14.6 4.8 14.7 4.8 C 14.8 4.8 14.9 4.9 14.9 5 C 14.9 5 14.9 5.1 14.8 5.1 C 14.8 5.1 14.7 5.2 14.6 5.2 C 14.6 5.2 14.5 5.2 14.4 5.2 C 14.4 5.2 14.4 5.2 14.3 5.2 C 14 5.2 13.9 5.3 13.8 5.3 C 13.8 5.3 13.8 5.3 13.8 5.3 C 13.8 5.3 13.8 5.3 13.8 5.3 C 13.8 5.3 13.8 5.4 13.7 5.5 C 13.7 5.7 13.7 5.8 13.7 5.8 C 13.7 5.8 13.7 5.9 13.8 5.9 C 13.8 5.9 13.9 5.8 14.1 5.8 C 14.3 5.8 14.5 5.8 14.5 5.8 C 14.6 5.7 14.7 5.7 14.8 5.7 C 14.9 5.7 15 5.8 15 5.9 C 15 5.9 14.9 6 14.9 6 C 14.8 6 14.7 6.1 14.5 6.1 C 14.4 6.1 14.2 6.1 14 6.1 C 13.9 6.2 13.7 6.2 13.5 6.2 C 13.5 6.2 13.4 6.2 13.4 6.1 C 13.3 6.1 13.3 6 13.3 6 C 13.3 6 13.3 5.9 13.3 5.9 C 13.3 5.9 13.3 5.9 13.3 5.8 C 13.4 5.7 13.4 5.5 13.5 5 C 13.5 4.6 13.6 4.4 13.6 4.3 C 13.6 4.3 13.6 4.3 13.6 4.3 C 13.5 4.3 13.5 4.3 13.5 4.3 C 13.5 4.2 13.5 4.2 13.5 4.2 C 13.5 4.2 13.5 4.1 13.5 4.1 C 13.5 4.1 13.5 4.1 13.6 4.1 C 13.6 4.1 13.6 4 13.7 4 C 13.7 4 13.8 4 13.8 4.1 C 13.9 4.1 14.2 4 14.6 4 C 14.7 3.9 14.8 3.9 14.8 3.9 C 14.8 3.9 14.9 3.9 14.9 3.9 C 15 3.9 15.1 4 15.1 4.1 C 15.1 4.1 15.1 4.2 15.1 4.2 C 15 4.2 15 4.2 15 4.3 Z M 15.8 4.6 C 15.8 4.7 15.8 4.8 15.8 4.8 C 15.8 4.9 15.8 4.9 15.7 5.1 C 15.7 5.3 15.7 5.4 15.7 5.5 C 15.7 5.6 15.7 5.7 15.7 5.9 C 15.7 6 15.7 6 15.7 6.1 C 15.6 6.1 15.6 6.1 15.5 6.1 C 15.4 6.1 15.4 6.1 15.4 6 C 15.3 6 15.3 5.9 15.3 5.7 C 15.3 5.6 15.3 5.4 15.4 5.1 C 15.4 5.1 15.5 4.5 15.5 4.5 C 15.5 4.4 15.5 4.3 15.5 4.3 C 15.5 4.1 15.5 4.1 15.6 4.1 C 15.6 4 15.6 4 15.6 4 C 15.7 4 15.7 3.9 15.7 3.9 C 15.8 3.9 15.8 4 15.9 4 C 15.9 4.1 15.9 4.1 15.9 4.2 C 15.9 4.2 15.8 4.6 15.8 4.6 Z M 17.4 5.8 C 17.4 5.8 17.4 5.7 17.4 5.6 C 17.4 5.2 17.5 4.9 17.5 4.5 C 17.6 4.4 17.6 4.4 17.6 4.3 C 17.6 4.3 17.6 4.3 17.5 4.3 C 17.4 4.3 17.4 4.2 17.4 4.2 C 17.4 4.1 17.4 4.1 17.5 4 C 17.5 4 17.5 4 17.6 4 C 17.6 4 17.8 4 17.8 4 C 17.9 4 18 4 18.2 4 C 18.3 3.9 18.4 3.9 18.5 3.9 C 18.8 3.9 19 4 19.1 4.2 C 19.3 4.3 19.4 4.5 19.4 4.8 C 19.4 5.1 19.3 5.3 19 5.5 C 18.8 5.8 18.4 5.9 18.1 6 C 18 6 17.9 6 17.9 6.1 C 17.8 6.1 17.8 6.1 17.7 6.1 C 17.7 6.2 17.6 6.2 17.5 6.2 C 17.5 6.2 17.4 6.2 17.4 6.1 C 17.4 6.1 17.3 6 17.3 6 C 17.3 6 17.3 6 17.4 5.9 C 17.4 5.9 17.4 5.8 17.4 5.8 Z M 17.8 5.7 C 17.8 5.7 17.8 5.7 17.8 5.8 C 17.8 5.8 18 5.7 18.2 5.7 C 18.5 5.6 18.7 5.5 18.8 5.3 C 19 5.1 19 5 19 4.8 C 19 4.6 19 4.5 18.9 4.4 C 18.8 4.3 18.6 4.2 18.4 4.2 C 18.3 4.2 18.2 4.2 18 4.3 C 18 4.3 17.9 4.3 17.9 4.3 C 17.8 4.9 17.8 5.4 17.8 5.7 C 17.8 5.7 17.8 5.7 17.8 5.7 Z M 21.3 4.3 C 21.3 4.3 20.9 4.3 20.9 4.3 C 20.7 4.3 20.6 4.3 20.4 4.3 C 20.3 4.3 20.3 4.4 20.3 4.4 C 20.3 4.4 20.2 4.4 20.2 4.5 C 20.2 4.5 20.2 4.6 20.2 4.7 C 20.2 4.8 20.2 4.9 20.1 4.9 C 20.2 4.9 20.3 4.9 20.4 4.9 C 20.5 4.9 20.6 4.9 20.7 4.9 C 20.8 4.9 20.9 4.8 21 4.8 C 21.1 4.8 21.2 4.9 21.2 5 C 21.2 5 21.2 5.1 21.2 5.1 C 21.1 5.1 21.1 5.2 21 5.2 C 20.9 5.2 20.8 5.2 20.8 5.2 C 20.7 5.2 20.7 5.2 20.6 5.2 C 20.4 5.2 20.2 5.3 20.2 5.3 C 20.2 5.3 20.1 5.3 20.1 5.3 C 20.1 5.3 20.1 5.3 20.1 5.3 C 20.1 5.3 20.1 5.4 20.1 5.5 C 20 5.7 20 5.8 20 5.8 C 20 5.8 20.1 5.9 20.1 5.9 C 20.1 5.9 20.3 5.8 20.5 5.8 C 20.7 5.8 20.8 5.8 20.8 5.8 C 21 5.7 21.1 5.7 21.1 5.7 C 21.2 5.7 21.3 5.8 21.3 5.9 C 21.3 5.9 21.3 6 21.2 6 C 21.1 6 21 6.1 20.8 6.1 C 20.7 6.1 20.5 6.1 20.4 6.1 C 20.2 6.2 20 6.2 19.9 6.2 C 19.8 6.2 19.7 6.2 19.7 6.1 C 19.7 6.1 19.6 6 19.6 6 C 19.6 6 19.6 5.9 19.6 5.9 C 19.6 5.9 19.6 5.9 19.7 5.8 C 19.7 5.7 19.7 5.5 19.8 5 C 19.9 4.6 19.9 4.4 19.9 4.3 C 19.9 4.3 19.9 4.3 19.9 4.3 C 19.9 4.3 19.9 4.3 19.8 4.3 C 19.8 4.2 19.8 4.2 19.8 4.2 C 19.8 4.2 19.8 4.1 19.8 4.1 C 19.8 4.1 19.9 4.1 19.9 4.1 C 19.9 4.1 20 4 20 4 C 20 4 20.1 4 20.1 4.1 C 20.2 4.1 20.5 4 20.9 4 C 21.1 3.9 21.2 3.9 21.2 3.9 C 21.2 3.9 21.2 3.9 21.2 3.9 C 21.4 3.9 21.4 4 21.4 4.1 C 21.4 4.1 21.4 4.2 21.4 4.2 C 21.4 4.2 21.3 4.2 21.3 4.3 Z M 23.3 4.2 C 23.3 4.4 23.2 4.5 23 4.5 C 23 4.4 22.9 4.3 22.9 4.3 C 22.8 4.3 22.8 4.2 22.7 4.2 C 22.5 4.2 22.4 4.3 22.2 4.4 C 22.1 4.4 22 4.5 22 4.6 C 22 4.7 22 4.7 22.1 4.8 C 22.1 4.8 22.3 4.9 22.5 4.9 C 22.7 5 22.9 5.1 23 5.2 C 23.1 5.2 23.2 5.3 23.2 5.5 C 23.2 5.6 23 5.8 22.8 6 C 22.5 6.1 22.2 6.2 21.9 6.2 C 21.8 6.2 21.7 6.2 21.6 6.2 C 21.6 6.1 21.5 6.1 21.5 6 C 21.5 5.9 21.5 5.9 21.6 5.9 C 21.6 5.8 21.6 5.8 21.7 5.8 C 21.7 5.8 21.7 5.8 21.7 5.8 C 21.8 5.9 21.9 5.9 22 5.9 C 22.2 5.9 22.3 5.8 22.5 5.7 C 22.7 5.7 22.8 5.6 22.8 5.5 C 22.8 5.5 22.8 5.4 22.7 5.4 C 22.7 5.4 22.6 5.3 22.5 5.3 C 22.2 5.2 22.1 5.1 22 5.1 C 21.9 5.1 21.8 5 21.7 4.9 C 21.7 4.9 21.7 4.8 21.7 4.7 C 21.7 4.5 21.8 4.3 22 4.2 C 22.2 4 22.4 3.9 22.7 3.9 C 22.9 3.9 23 4 23.1 4 C 23.2 4.1 23.3 4.2 23.3 4.2 C 23.3 4.2 23.3 4.2 23.3 4.2 Z M 25.1 4.2 C 25.1 4.4 25 4.5 24.8 4.5 C 24.8 4.4 24.8 4.3 24.7 4.3 C 24.7 4.3 24.6 4.2 24.5 4.2 C 24.4 4.2 24.2 4.3 24.1 4.4 C 23.9 4.4 23.9 4.5 23.9 4.6 C 23.9 4.7 23.9 4.7 23.9 4.8 C 24 4.8 24.1 4.9 24.3 4.9 C 24.6 5 24.8 5.1 24.9 5.2 C 25 5.2 25 5.3 25 5.5 C 25 5.6 24.9 5.8 24.6 6 C 24.3 6.1 24 6.2 23.7 6.2 C 23.6 6.2 23.5 6.2 23.5 6.2 C 23.4 6.1 23.4 6.1 23.4 6 C 23.4 5.9 23.4 5.9 23.4 5.9 C 23.4 5.8 23.5 5.8 23.5 5.8 C 23.5 5.8 23.6 5.8 23.6 5.8 C 23.7 5.9 23.8 5.9 23.9 5.9 C 24 5.9 24.2 5.8 24.4 5.7 C 24.6 5.7 24.7 5.6 24.7 5.5 C 24.7 5.5 24.6 5.4 24.6 5.4 C 24.5 5.4 24.4 5.3 24.3 5.3 C 24.1 5.2 23.9 5.1 23.8 5.1 C 23.7 5.1 23.6 5 23.6 4.9 C 23.5 4.9 23.5 4.8 23.5 4.7 C 23.5 4.5 23.6 4.3 23.8 4.2 C 24 4 24.3 3.9 24.6 3.9 C 24.7 3.9 24.9 4 25 4 C 25.1 4.1 25.1 4.2 25.1 4.2 C 25.1 4.2 25.1 4.2 25.1 4.2 Z M 27 4.3 C 27 4.3 26.5 4.3 26.5 4.3 C 26.4 4.3 26.2 4.3 26.1 4.3 C 26 4.3 26 4.4 26 4.4 C 25.9 4.4 25.9 4.4 25.9 4.5 C 25.9 4.5 25.9 4.6 25.9 4.7 C 25.9 4.8 25.8 4.9 25.8 4.9 C 25.9 4.9 26 4.9 26.1 4.9 C 26.2 4.9 26.3 4.9 26.4 4.9 C 26.5 4.9 26.6 4.8 26.7 4.8 C 26.8 4.8 26.9 4.9 26.9 5 C 26.9 5 26.9 5.1 26.8 5.1 C 26.8 5.1 26.7 5.2 26.6 5.2 C 26.6 5.2 26.5 5.2 26.5 5.2 C 26.4 5.2 26.4 5.2 26.3 5.2 C 26 5.2 25.9 5.3 25.8 5.3 C 25.8 5.3 25.8 5.3 25.8 5.3 C 25.8 5.3 25.8 5.3 25.8 5.3 C 25.8 5.3 25.8 5.4 25.8 5.5 C 25.7 5.7 25.7 5.8 25.7 5.8 C 25.7 5.8 25.7 5.9 25.8 5.9 C 25.8 5.9 26 5.8 26.2 5.8 C 26.4 5.8 26.5 5.8 26.5 5.8 C 26.7 5.7 26.8 5.7 26.8 5.7 C 26.9 5.7 27 5.8 27 5.9 C 27 5.9 27 6 26.9 6 C 26.8 6 26.7 6.1 26.5 6.1 C 26.4 6.1 26.2 6.1 26 6.1 C 25.9 6.2 25.7 6.2 25.6 6.2 C 25.5 6.2 25.4 6.2 25.4 6.1 C 25.4 6.1 25.3 6 25.3 6 C 25.3 6 25.3 5.9 25.3 5.9 C 25.3 5.9 25.3 5.9 25.3 5.8 C 25.4 5.7 25.4 5.5 25.5 5 C 25.5 4.6 25.6 4.4 25.6 4.3 C 25.6 4.3 25.6 4.3 25.6 4.3 C 25.6 4.3 25.5 4.3 25.5 4.3 C 25.5 4.2 25.5 4.2 25.5 4.2 C 25.5 4.2 25.5 4.1 25.5 4.1 C 25.5 4.1 25.5 4.1 25.6 4.1 C 25.6 4.1 25.7 4 25.7 4 C 25.7 4 25.8 4 25.8 4.1 C 25.9 4.1 26.2 4 26.6 4 C 26.8 3.9 26.8 3.9 26.8 3.9 C 26.8 3.9 26.9 3.9 26.9 3.9 C 27 3.9 27.1 4 27.1 4.1 C 27.1 4.1 27.1 4.2 27.1 4.2 C 27.1 4.2 27 4.2 27 4.3 Z M 30.1 4.3 C 29.8 4.3 29.7 4.3 29.6 4.3 C 29.6 4.3 29.5 4.4 29.5 4.4 C 29.5 4.4 29.5 4.6 29.5 4.9 C 29.4 5.2 29.4 5.4 29.4 5.6 C 29.4 5.7 29.4 5.8 29.5 5.9 C 29.5 5.9 29.5 5.9 29.5 5.9 C 29.5 6 29.5 6 29.4 6.1 C 29.4 6.1 29.4 6.1 29.3 6.1 C 29.3 6.1 29.2 6.1 29.2 6.1 C 29.1 6 29.1 6 29.1 5.9 C 29.1 5.8 29.1 5.7 29.1 5.6 C 29.1 5.5 29.1 5.2 29.1 4.9 C 29.2 4.5 29.2 4.4 29.2 4.4 C 29.2 4.4 29.1 4.4 28.9 4.4 C 28.7 4.4 28.6 4.4 28.5 4.4 C 28.4 4.4 28.4 4.4 28.3 4.4 C 28.3 4.3 28.3 4.3 28.3 4.3 C 28.3 4.2 28.3 4.2 28.3 4.1 C 28.4 4.1 28.5 4.1 28.7 4.1 C 28.9 4.1 29.2 4.1 29.5 4 C 29.8 4 30 4 30.2 4 C 30.3 4 30.5 4 30.5 4 C 30.5 4.1 30.6 4.1 30.6 4.2 C 30.6 4.3 30.5 4.3 30.4 4.3 C 30.4 4.3 30.4 4.3 30.3 4.3 C 30.2 4.3 30.2 4.3 30.1 4.3 C 30.1 4.3 30.1 4.3 30.1 4.3 Z M 30.8 5.6 C 30.7 5.6 30.7 5.6 30.7 5.6 C 30.7 5.6 30.6 5.7 30.5 5.9 C 30.4 6 30.4 6.1 30.3 6.1 C 30.3 6.1 30.3 6.1 30.3 6.1 C 30.2 6.1 30.2 6.1 30.1 6.1 C 30.1 6 30 6 30 6 C 30 5.9 30.2 5.7 30.4 5.3 C 30.6 5.1 30.7 4.9 30.8 4.7 C 31 4.3 31.1 4.1 31.2 4 C 31.2 4 31.3 3.9 31.3 3.9 C 31.4 3.9 31.5 3.9 31.5 4 C 31.5 4 31.5 4 31.5 4.1 C 31.5 4.1 31.5 4.2 31.5 4.2 C 31.7 4.7 31.9 5.1 32 5.3 C 32.1 5.6 32.2 5.7 32.3 5.8 C 32.3 5.9 32.3 5.9 32.4 5.9 C 32.4 5.9 32.4 6 32.4 6 C 32.4 6.1 32.4 6.1 32.3 6.1 C 32.3 6.2 32.2 6.2 32.2 6.2 C 32.1 6.2 32 6.1 31.9 6.1 C 31.9 6 31.8 5.9 31.7 5.7 C 31.7 5.6 31.6 5.5 31.6 5.5 C 31.6 5.5 31.6 5.4 31.6 5.4 C 31.6 5.4 31.5 5.5 31.3 5.5 C 31.1 5.5 30.9 5.6 30.8 5.6 C 30.8 5.6 30.8 5.6 30.8 5.6 C 30.8 5.6 30.8 5.6 30.8 5.6 Z M 31.4 5.2 C 31.4 5.2 31.5 5.2 31.5 5.2 C 31.5 5.1 31.4 4.9 31.3 4.5 C 31.3 4.5 31.3 4.5 31.3 4.5 C 31.3 4.5 30.9 5.3 30.9 5.3 C 30.9 5.3 31 5.2 31.1 5.2 C 31.1 5.2 31.2 5.2 31.4 5.2 C 31.4 5.2 31.4 5.2 31.4 5.2 Z M 34 6 C 33.9 6 33.9 6 33.8 6 C 33.8 6 33.7 6 33.7 6 C 33.4 6 33.2 6 32.9 6.1 C 32.8 6.1 32.8 6.2 32.7 6.2 C 32.7 6.2 32.6 6.1 32.6 6.1 C 32.5 6 32.5 6 32.5 6 C 32.5 5.9 32.5 5.9 32.6 5.8 C 32.6 5.7 32.6 5.6 32.6 5.5 C 32.6 5.5 32.7 4.3 32.7 4.3 C 32.8 4.2 32.8 4.1 32.8 4.1 C 32.8 4 32.8 4 32.8 4 C 32.9 4 32.9 3.9 33 3.9 C 33 3.9 33.1 4 33.1 4 C 33.1 4 33.1 4.1 33.1 4.1 C 33.1 4.1 33.1 4.2 33.1 4.3 C 33.1 4.4 33.1 4.7 33 5.1 C 33 5.5 32.9 5.7 32.9 5.7 C 32.9 5.7 33 5.8 33 5.8 C 33 5.8 33.1 5.7 33.3 5.7 C 33.3 5.7 33.4 5.7 33.5 5.7 C 33.7 5.7 33.9 5.7 34 5.6 C 34 5.6 34 5.6 34.1 5.6 C 34.1 5.6 34.1 5.6 34.2 5.7 C 34.2 5.7 34.2 5.7 34.2 5.8 C 34.2 5.9 34.2 5.9 34.1 5.9 C 34.1 6 34 6 34 6 Z M 35.6 5.8 C 35.6 5.8 35.6 5.7 35.6 5.6 C 35.6 5.2 35.7 4.9 35.7 4.5 C 35.8 4.4 35.8 4.4 35.8 4.3 C 35.8 4.3 35.8 4.3 35.7 4.3 C 35.6 4.3 35.6 4.2 35.6 4.2 C 35.6 4.1 35.6 4.1 35.6 4 C 35.7 4 35.7 4 35.8 4 C 35.8 4 36 4 36 4 C 36.1 4 36.2 4 36.4 4 C 36.5 3.9 36.6 3.9 36.7 3.9 C 36.9 3.9 37.2 4 37.3 4.2 C 37.5 4.3 37.6 4.5 37.6 4.8 C 37.6 5.1 37.5 5.3 37.2 5.5 C 36.9 5.8 36.6 5.9 36.3 6 C 36.2 6 36.1 6 36.1 6.1 C 36 6.1 36 6.1 35.9 6.1 C 35.8 6.2 35.8 6.2 35.7 6.2 C 35.7 6.2 35.6 6.2 35.6 6.1 C 35.5 6.1 35.5 6 35.5 6 C 35.5 6 35.5 6 35.6 5.9 C 35.6 5.9 35.6 5.8 35.6 5.8 Z M 36 5.7 C 36 5.7 36 5.7 36 5.8 C 36 5.8 36.2 5.7 36.4 5.7 C 36.7 5.6 36.9 5.5 37 5.3 C 37.2 5.1 37.2 5 37.2 4.8 C 37.2 4.6 37.2 4.5 37.1 4.4 C 37 4.3 36.8 4.2 36.6 4.2 C 36.5 4.2 36.4 4.2 36.2 4.3 C 36.2 4.3 36.1 4.3 36.1 4.3 C 36 4.9 36 5.4 36 5.7 C 36 5.7 36 5.7 36 5.7 Z M 39.5 4.3 C 39.5 4.3 39 4.3 39 4.3 C 38.9 4.3 38.8 4.3 38.6 4.3 C 38.5 4.3 38.5 4.4 38.5 4.4 C 38.4 4.4 38.4 4.4 38.4 4.5 C 38.4 4.5 38.4 4.6 38.4 4.7 C 38.4 4.8 38.3 4.9 38.3 4.9 C 38.4 4.9 38.5 4.9 38.6 4.9 C 38.7 4.9 38.8 4.9 38.9 4.9 C 39 4.9 39.1 4.8 39.2 4.8 C 39.3 4.8 39.4 4.9 39.4 5 C 39.4 5 39.4 5.1 39.4 5.1 C 39.3 5.1 39.2 5.2 39.1 5.2 C 39.1 5.2 39 5.2 39 5.2 C 38.9 5.2 38.9 5.2 38.8 5.2 C 38.5 5.2 38.4 5.3 38.3 5.3 C 38.3 5.3 38.3 5.3 38.3 5.3 C 38.3 5.3 38.3 5.3 38.3 5.3 C 38.3 5.3 38.3 5.4 38.3 5.5 C 38.2 5.7 38.2 5.8 38.2 5.8 C 38.2 5.8 38.3 5.9 38.3 5.9 C 38.3 5.9 38.5 5.8 38.7 5.8 C 38.9 5.8 39 5.8 39 5.8 C 39.2 5.7 39.3 5.7 39.3 5.7 C 39.4 5.7 39.5 5.8 39.5 5.9 C 39.5 5.9 39.5 6 39.4 6 C 39.3 6 39.2 6.1 39 6.1 C 38.9 6.1 38.7 6.1 38.5 6.1 C 38.4 6.2 38.2 6.2 38.1 6.2 C 38 6.2 37.9 6.2 37.9 6.1 C 37.9 6.1 37.8 6 37.8 6 C 37.8 6 37.8 5.9 37.8 5.9 C 37.8 5.9 37.8 5.9 37.9 5.8 C 37.9 5.7 37.9 5.5 38 5 C 38.1 4.6 38.1 4.4 38.1 4.3 C 38.1 4.3 38.1 4.3 38.1 4.3 C 38.1 4.3 38.1 4.3 38 4.3 C 38 4.2 38 4.2 38 4.2 C 38 4.2 38 4.1 38 4.1 C 38 4.1 38 4.1 38.1 4.1 C 38.1 4.1 38.2 4 38.2 4 C 38.2 4 38.3 4 38.3 4.1 C 38.4 4.1 38.7 4 39.1 4 C 39.3 3.9 39.3 3.9 39.4 3.9 C 39.4 3.9 39.4 3.9 39.4 3.9 C 39.5 3.9 39.6 4 39.6 4.1 C 39.6 4.1 39.6 4.2 39.6 4.2 C 39.6 4.2 39.5 4.2 39.5 4.3 Z M 43.1 4.1 C 43.1 4.1 43.1 4.1 43.1 4.1 C 43.1 4.1 43.1 4.1 43 4.2 C 42.9 4.4 42.8 4.5 42.7 4.6 C 42.7 4.7 42.6 5 42.4 5.3 C 42.3 5.4 42.2 5.6 42.2 5.6 C 42.1 5.7 42 5.9 42 5.9 C 42 6 41.9 6 41.9 6 C 41.8 6.1 41.8 6.1 41.7 6.1 C 41.7 6.1 41.6 6.1 41.6 6 C 41.6 6 41.5 5.9 41.5 5.7 C 41.4 5.6 41.3 5.4 41.2 5.1 C 41 4.5 40.9 4.2 40.9 4.2 C 40.9 4.2 40.9 4.1 40.9 4.1 C 41 4 41 4 41.1 4 C 41.1 4 41.2 4 41.2 4 C 41.3 4.1 41.3 4.2 41.3 4.3 C 41.3 4.4 41.4 4.6 41.5 4.9 C 41.7 5.2 41.7 5.5 41.8 5.6 C 41.8 5.6 41.9 5.5 41.9 5.4 C 41.9 5.4 41.9 5.4 41.9 5.4 C 42.1 5.2 42.2 5 42.3 4.8 C 42.4 4.5 42.6 4.3 42.7 4.1 C 42.8 4 42.9 3.9 43 3.9 C 43.1 3.9 43.1 3.9 43.1 4 C 43.12 4.04 43.1 4.1 43.1 4.1 C 43.1 4.1 43.12 4.05 43.1 4.1 Z M 43.6 6.2 C 43.4 6.2 43.3 6.1 43.1 5.9 C 43 5.8 43 5.6 43 5.4 C 43 5.2 43 5 43.1 4.8 C 43.3 4.5 43.4 4.3 43.6 4.2 C 43.8 4 44 3.9 44.2 3.9 C 44.4 3.9 44.5 4 44.6 4 C 44.7 4 44.8 4.1 44.9 4.2 C 45 4.2 45.1 4.3 45.1 4.4 C 45.1 4.5 45.1 4.6 45.1 4.7 C 45.1 4.9 45.1 5 45 5.2 C 44.9 5.4 44.8 5.5 44.7 5.7 C 44.5 5.8 44.4 6 44.2 6 C 44 6.1 43.8 6.2 43.6 6.2 Z M 43.3 5.4 C 43.3 5.6 43.4 5.7 43.4 5.7 C 43.5 5.8 43.6 5.9 43.7 5.9 C 43.9 5.9 44.2 5.7 44.4 5.5 C 44.6 5.2 44.8 5 44.8 4.7 C 44.8 4.6 44.7 4.5 44.7 4.4 C 44.7 4.4 44.6 4.3 44.5 4.3 C 44.4 4.2 44.3 4.2 44.2 4.2 C 44 4.2 43.8 4.4 43.6 4.6 C 43.4 4.9 43.3 5.2 43.3 5.4 Z M 47 4.3 C 46.7 4.3 46.6 4.3 46.5 4.3 C 46.5 4.3 46.5 4.4 46.5 4.4 C 46.4 4.4 46.4 4.6 46.4 4.9 C 46.4 5.2 46.3 5.4 46.3 5.6 C 46.3 5.7 46.4 5.8 46.4 5.9 C 46.4 5.9 46.4 5.9 46.4 5.9 C 46.4 6 46.4 6 46.3 6.1 C 46.3 6.1 46.3 6.1 46.2 6.1 C 46.2 6.1 46.1 6.1 46.1 6.1 C 46 6 46 6 46 5.9 C 46 5.8 46 5.7 46 5.6 C 46 5.5 46 5.2 46 4.9 C 46.1 4.5 46.1 4.4 46.1 4.4 C 46.1 4.4 46 4.4 45.8 4.4 C 45.6 4.4 45.5 4.4 45.5 4.4 C 45.4 4.4 45.3 4.4 45.2 4.4 C 45.2 4.3 45.2 4.3 45.2 4.3 C 45.2 4.2 45.2 4.2 45.3 4.1 C 45.3 4.1 45.4 4.1 45.6 4.1 C 45.8 4.1 46.1 4.1 46.4 4 C 46.7 4 46.9 4 47.1 4 C 47.3 4 47.4 4 47.4 4 C 47.4 4.1 47.5 4.1 47.5 4.2 C 47.5 4.3 47.4 4.3 47.3 4.3 C 47.3 4.3 47.3 4.3 47.2 4.3 C 47.1 4.3 47.1 4.3 47 4.3 C 47 4.3 47 4.3 47 4.3 Z M 47.9 6.2 C 47.7 6.2 47.6 6.1 47.4 5.9 C 47.3 5.8 47.3 5.6 47.3 5.4 C 47.3 5.2 47.3 5 47.4 4.8 C 47.6 4.5 47.7 4.3 47.9 4.2 C 48.1 4 48.3 3.9 48.5 3.9 C 48.7 3.9 48.8 4 48.9 4 C 49 4 49.1 4.1 49.2 4.2 C 49.3 4.2 49.4 4.3 49.4 4.4 C 49.4 4.5 49.4 4.6 49.4 4.7 C 49.4 4.9 49.4 5 49.3 5.2 C 49.2 5.4 49.1 5.5 49 5.7 C 48.8 5.8 48.7 6 48.5 6 C 48.3 6.1 48.1 6.2 47.9 6.2 Z M 47.6 5.4 C 47.6 5.6 47.7 5.7 47.7 5.7 C 47.8 5.8 47.9 5.9 48 5.9 C 48.2 5.9 48.5 5.7 48.7 5.5 C 48.9 5.2 49.1 5 49.1 4.7 C 49.1 4.6 49 4.5 49 4.4 C 49 4.4 48.9 4.3 48.8 4.3 C 48.7 4.2 48.6 4.2 48.5 4.2 C 48.3 4.2 48.1 4.4 47.9 4.6 C 47.7 4.9 47.6 5.2 47.6 5.4 Z M 50.9 5.8 C 50.9 5.8 50.9 5.7 50.9 5.6 C 50.9 5.2 51 4.9 51 4.5 C 51 4.4 51 4.4 51 4.3 C 51 4.3 51 4.3 51 4.3 C 50.9 4.3 50.9 4.2 50.9 4.2 C 50.9 4.1 50.9 4.1 50.9 4 C 51 4 51 4 51.1 4 C 51.1 4 51.3 4 51.3 4 C 51.4 4 51.5 4 51.6 4 C 51.8 3.9 51.9 3.9 52 3.9 C 52.2 3.9 52.5 4 52.6 4.2 C 52.8 4.3 52.9 4.5 52.9 4.8 C 52.9 5.1 52.7 5.3 52.5 5.5 C 52.2 5.8 51.9 5.9 51.5 6 C 51.4 6 51.4 6 51.3 6.1 C 51.3 6.1 51.3 6.1 51.2 6.1 C 51.1 6.2 51.1 6.2 51 6.2 C 51 6.2 50.9 6.2 50.9 6.1 C 50.8 6.1 50.8 6 50.8 6 C 50.8 6 50.8 6 50.8 5.9 C 50.8 5.9 50.9 5.8 50.9 5.8 Z M 51.2 5.7 C 51.2 5.7 51.3 5.7 51.3 5.8 C 51.3 5.8 51.5 5.7 51.7 5.7 C 51.9 5.6 52.1 5.5 52.3 5.3 C 52.4 5.1 52.5 5 52.5 4.8 C 52.5 4.6 52.5 4.5 52.4 4.4 C 52.2 4.3 52.1 4.2 51.9 4.2 C 51.8 4.2 51.6 4.2 51.5 4.3 C 51.4 4.3 51.4 4.3 51.4 4.3 C 51.3 4.9 51.2 5.4 51.2 5.7 C 51.2 5.7 51.2 5.7 51.2 5.7 Z M 53.6 4.6 C 53.6 4.7 53.6 4.8 53.6 4.8 C 53.6 4.9 53.6 4.9 53.6 5.1 C 53.5 5.3 53.5 5.4 53.5 5.5 C 53.5 5.6 53.5 5.7 53.5 5.9 C 53.6 6 53.5 6 53.5 6.1 C 53.4 6.1 53.4 6.1 53.3 6.1 C 53.3 6.1 53.2 6.1 53.2 6 C 53.2 6 53.1 5.9 53.1 5.7 C 53.1 5.6 53.2 5.4 53.2 5.1 C 53.2 5.1 53.3 4.5 53.3 4.5 C 53.3 4.4 53.3 4.3 53.3 4.3 C 53.3 4.1 53.4 4.1 53.4 4.1 C 53.4 4 53.4 4 53.5 4 C 53.5 4 53.5 3.9 53.6 3.9 C 53.6 3.9 53.7 4 53.7 4 C 53.7 4.1 53.7 4.1 53.7 4.2 C 53.7 4.2 53.6 4.6 53.6 4.6 Z M 55.6 4.2 C 55.6 4.4 55.5 4.5 55.3 4.5 C 55.3 4.4 55.3 4.3 55.3 4.3 C 55.2 4.3 55.1 4.2 55.1 4.2 C 54.9 4.2 54.7 4.3 54.6 4.4 C 54.5 4.4 54.4 4.5 54.4 4.6 C 54.4 4.7 54.4 4.7 54.5 4.8 C 54.5 4.8 54.7 4.9 54.9 4.9 C 55.1 5 55.3 5.1 55.4 5.2 C 55.5 5.2 55.6 5.3 55.6 5.5 C 55.6 5.6 55.4 5.8 55.1 6 C 54.8 6.1 54.5 6.2 54.2 6.2 C 54.1 6.2 54.1 6.2 54 6.2 C 53.9 6.1 53.9 6.1 53.9 6 C 53.9 5.9 53.9 5.9 53.9 5.9 C 54 5.8 54 5.8 54 5.8 C 54.1 5.8 54.1 5.8 54.1 5.8 C 54.2 5.9 54.3 5.9 54.4 5.9 C 54.5 5.9 54.7 5.8 54.9 5.7 C 55.1 5.7 55.2 5.6 55.2 5.5 C 55.2 5.5 55.2 5.4 55.1 5.4 C 55.1 5.4 55 5.3 54.8 5.3 C 54.6 5.2 54.5 5.1 54.4 5.1 C 54.2 5.1 54.2 5 54.1 4.9 C 54.1 4.9 54 4.8 54 4.7 C 54 4.5 54.1 4.3 54.3 4.2 C 54.6 4 54.8 3.9 55.1 3.9 C 55.3 3.9 55.4 4 55.5 4 C 55.6 4.1 55.6 4.2 55.6 4.2 C 55.6 4.2 55.6 4.2 55.6 4.2 Z M 57.5 4.3 C 57.2 4.3 57.1 4.3 57 4.3 C 57 4.3 56.9 4.4 56.9 4.4 C 56.9 4.4 56.9 4.6 56.9 4.9 C 56.9 5.2 56.8 5.4 56.8 5.6 C 56.8 5.7 56.8 5.8 56.9 5.9 C 56.9 5.9 56.9 5.9 56.9 5.9 C 56.9 6 56.9 6 56.8 6.1 C 56.8 6.1 56.8 6.1 56.7 6.1 C 56.7 6.1 56.6 6.1 56.6 6.1 C 56.5 6 56.5 6 56.5 5.9 C 56.5 5.8 56.5 5.7 56.5 5.6 C 56.5 5.5 56.5 5.2 56.5 4.9 C 56.6 4.5 56.6 4.4 56.6 4.4 C 56.6 4.4 56.5 4.4 56.3 4.4 C 56.1 4.4 56 4.4 55.9 4.4 C 55.8 4.4 55.8 4.4 55.7 4.4 C 55.7 4.3 55.7 4.3 55.7 4.3 C 55.7 4.2 55.7 4.2 55.7 4.1 C 55.8 4.1 55.9 4.1 56.1 4.1 C 56.3 4.1 56.6 4.1 56.9 4 C 57.2 4 57.4 4 57.6 4 C 57.7 4 57.9 4 57.9 4 C 57.9 4.1 58 4.1 58 4.2 C 58 4.3 57.9 4.3 57.8 4.3 C 57.8 4.3 57.8 4.3 57.7 4.3 C 57.6 4.3 57.6 4.3 57.5 4.3 C 57.5 4.3 57.5 4.3 57.5 4.3 Z M 58 4.3 C 58 4.3 57.98 4.28 58 4.3 C 58 4.2 57.9 4.2 57.9 4.2 C 57.9 4.1 58 4.1 58 4 C 58.1 4 58.1 4 58.1 4 C 58.2 4 58.2 4 58.2 4 C 58.2 4 58.3 4 58.3 4 C 58.5 4 58.7 3.9 58.9 3.9 C 59.1 3.9 59.3 4 59.4 4.1 C 59.5 4.2 59.6 4.3 59.6 4.5 C 59.6 4.6 59.5 4.8 59.4 4.9 C 59.3 5 59.1 5.1 58.9 5.2 C 59.2 5.5 59.5 5.7 59.7 5.8 C 59.7 5.8 59.8 5.9 59.8 5.9 C 59.8 6 59.7 6 59.7 6 C 59.7 6.1 59.6 6.1 59.6 6.1 C 59.5 6.1 59.5 6.1 59.4 6 C 59.3 6 59.2 5.9 59.1 5.8 C 58.9 5.7 58.9 5.6 58.8 5.6 C 58.7 5.5 58.5 5.4 58.4 5.3 C 58.3 5.3 58.3 5.3 58.3 5.1 C 58.3 5.1 58.3 5.1 58.4 5 C 58.4 5 58.5 5 58.5 5 C 58.5 5 58.6 5 58.6 5 C 58.6 5 58.6 5 58.6 5 C 58.7 5 58.8 4.9 59 4.8 C 59.1 4.7 59.2 4.6 59.2 4.5 C 59.2 4.4 59.2 4.3 59.1 4.3 C 59 4.2 58.9 4.2 58.8 4.2 C 58.7 4.2 58.6 4.2 58.5 4.2 C 58.4 4.3 58.4 4.3 58.4 4.3 C 58.4 4.3 58.4 4.3 58.4 4.3 C 58.4 4.3 58.3 4.4 58.3 4.6 C 58.3 4.8 58.2 5 58.2 5.2 C 58.2 5.4 58.2 5.6 58.2 5.7 C 58.2 5.7 58.2 5.8 58.2 5.8 C 58.2 5.9 58.2 5.9 58.2 6 C 58.2 6 58.2 6 58.1 6.1 C 58.1 6.1 58 6.1 58 6.1 C 57.9 6.1 57.8 6.1 57.8 5.9 C 57.8 5.7 57.8 5.5 57.8 5.2 C 57.9 5 57.9 4.7 58 4.5 C 58 4.5 58 4.4 58 4.4 C 57.98 4.41 58 4.3 58 4.3 Z M 60.4 4.6 C 60.4 4.7 60.4 4.8 60.4 4.8 C 60.4 4.9 60.4 4.9 60.4 5.1 C 60.3 5.3 60.3 5.4 60.3 5.5 C 60.3 5.6 60.3 5.7 60.3 5.9 C 60.4 6 60.3 6 60.3 6.1 C 60.2 6.1 60.2 6.1 60.1 6.1 C 60.1 6.1 60 6.1 60 6 C 60 6 60 5.9 60 5.7 C 60 5.6 60 5.4 60 5.1 C 60 5.1 60.1 4.5 60.1 4.5 C 60.1 4.4 60.1 4.3 60.1 4.3 C 60.2 4.1 60.2 4.1 60.2 4.1 C 60.2 4 60.2 4 60.3 4 C 60.3 4 60.4 3.9 60.4 3.9 C 60.4 3.9 60.5 4 60.5 4 C 60.5 4.1 60.5 4.1 60.5 4.2 C 60.5 4.2 60.4 4.6 60.4 4.6 Z M 62.4 4.3 C 62.2 4.3 62 4.3 61.9 4.3 C 61.9 4.3 61.9 4.4 61.9 4.4 C 61.9 4.4 61.9 4.6 61.8 4.9 C 61.8 5.2 61.8 5.4 61.8 5.6 C 61.8 5.7 61.8 5.8 61.8 5.9 C 61.8 5.9 61.8 5.9 61.8 5.9 C 61.8 6 61.8 6 61.8 6.1 C 61.7 6.1 61.7 6.1 61.7 6.1 C 61.6 6.1 61.6 6.1 61.5 6.1 C 61.5 6 61.5 6 61.4 5.9 C 61.4 5.8 61.4 5.7 61.4 5.6 C 61.4 5.5 61.5 5.2 61.5 4.9 C 61.5 4.5 61.6 4.4 61.6 4.4 C 61.5 4.4 61.4 4.4 61.2 4.4 C 61 4.4 60.9 4.4 60.9 4.4 C 60.8 4.4 60.7 4.4 60.7 4.4 C 60.7 4.3 60.6 4.3 60.6 4.3 C 60.6 4.2 60.7 4.2 60.7 4.1 C 60.7 4.1 60.8 4.1 61 4.1 C 61.3 4.1 61.6 4.1 61.8 4 C 62.1 4 62.4 4 62.5 4 C 62.7 4 62.8 4 62.9 4 C 62.9 4.1 62.9 4.1 62.9 4.2 C 62.9 4.3 62.9 4.3 62.8 4.3 C 62.8 4.3 62.7 4.3 62.6 4.3 C 62.6 4.3 62.5 4.3 62.4 4.3 C 62.4 4.3 62.4 4.3 62.4 4.3 Z M 63.1 5.6 C 63.1 5.6 63 5.6 63 5.6 C 63 5.6 63 5.7 62.9 5.9 C 62.8 6 62.7 6.1 62.7 6.1 C 62.7 6.1 62.6 6.1 62.6 6.1 C 62.6 6.1 62.5 6.1 62.5 6.1 C 62.4 6 62.4 6 62.4 6 C 62.4 5.9 62.5 5.7 62.8 5.3 C 62.9 5.1 63 4.9 63.1 4.7 C 63.4 4.3 63.5 4.1 63.5 4 C 63.6 4 63.6 3.9 63.7 3.9 C 63.8 3.9 63.8 3.9 63.9 4 C 63.9 4 63.9 4 63.9 4.1 C 63.9 4.1 63.9 4.2 63.9 4.2 C 64.1 4.7 64.2 5.1 64.3 5.3 C 64.4 5.6 64.5 5.7 64.6 5.8 C 64.7 5.9 64.7 5.9 64.7 5.9 C 64.7 5.9 64.7 6 64.7 6 C 64.7 6.1 64.7 6.1 64.7 6.1 C 64.6 6.2 64.6 6.2 64.5 6.2 C 64.5 6.2 64.4 6.1 64.3 6.1 C 64.2 6 64.2 5.9 64.1 5.7 C 64 5.6 64 5.5 64 5.5 C 64 5.5 64 5.4 64 5.4 C 63.9 5.4 63.8 5.5 63.6 5.5 C 63.4 5.5 63.3 5.6 63.2 5.6 C 63.2 5.6 63.1 5.6 63.1 5.6 C 63.1 5.6 63.1 5.6 63.1 5.6 Z M 63.7 5.2 C 63.8 5.2 63.8 5.2 63.9 5.2 C 63.8 5.1 63.8 4.9 63.7 4.5 C 63.7 4.5 63.6 4.5 63.6 4.5 C 63.6 4.5 63.2 5.3 63.2 5.3 C 63.3 5.3 63.3 5.2 63.4 5.2 C 63.5 5.2 63.6 5.2 63.7 5.2 C 63.7 5.2 63.7 5.2 63.7 5.2 Z M 66.3 6 C 66.3 6 66.3 6 66.2 6 C 66.1 6 66.1 6 66.1 6 C 65.8 6 65.5 6 65.3 6.1 C 65.2 6.1 65.1 6.2 65.1 6.2 C 65 6.2 65 6.1 64.9 6.1 C 64.9 6 64.9 6 64.9 6 C 64.9 5.9 64.9 5.9 64.9 5.8 C 64.9 5.7 65 5.6 65 5.5 C 65 5.5 65.1 4.3 65.1 4.3 C 65.1 4.2 65.1 4.1 65.1 4.1 C 65.1 4 65.2 4 65.2 4 C 65.2 4 65.3 3.9 65.3 3.9 C 65.4 3.9 65.4 4 65.5 4 C 65.5 4 65.5 4.1 65.5 4.1 C 65.5 4.1 65.5 4.2 65.5 4.3 C 65.5 4.4 65.4 4.7 65.4 5.1 C 65.3 5.5 65.3 5.7 65.3 5.7 C 65.3 5.7 65.3 5.8 65.3 5.8 C 65.4 5.8 65.5 5.7 65.6 5.7 C 65.7 5.7 65.8 5.7 65.9 5.7 C 66.1 5.7 66.3 5.7 66.3 5.6 C 66.4 5.6 66.4 5.6 66.4 5.6 C 66.5 5.6 66.5 5.6 66.5 5.7 C 66.6 5.7 66.6 5.7 66.6 5.8 C 66.6 5.9 66.6 5.9 66.5 5.9 C 66.4 6 66.4 6 66.3 6 Z M 67.1 5.2 C 67.1 5.3 67.1 5.3 67.1 5.4 C 67 5.4 66.9 5.4 66.8 5.3 C 66.8 5.1 66.8 4.9 66.9 4.7 C 66.9 4.5 66.9 4.3 66.9 4.2 C 66.9 4.2 66.9 4.2 67 4.1 C 67 4 67 4 67 4 C 67.1 3.9 67.1 3.9 67.2 3.9 C 67.2 3.9 67.3 3.9 67.3 3.9 C 67.3 4 67.3 4 67.3 4 C 67.3 4.1 67.3 4.2 67.3 4.3 C 67.2 4.5 67.2 4.7 67.2 4.8 C 67.1 5 67.1 5.1 67.1 5.2 C 67.1 5.2 67.1 5.2 67.1 5.2 Z M 66.8 6 C 66.7 6 66.7 6 66.7 5.9 C 66.7 5.8 66.7 5.8 66.7 5.7 C 66.8 5.7 66.8 5.6 66.9 5.6 C 66.9 5.6 67 5.6 67 5.7 C 67.1 5.7 67.1 5.7 67.1 5.8 C 67.1 5.8 67.1 5.8 67.1 5.8 C 67.1 5.9 67 6 67 6 C 66.9 6 66.9 6 66.8 6 Z M 68 5.2 C 68 5.3 68 5.3 68 5.4 C 67.9 5.4 67.8 5.4 67.7 5.3 C 67.7 5.1 67.7 4.9 67.8 4.7 C 67.8 4.5 67.8 4.3 67.8 4.2 C 67.8 4.2 67.9 4.2 67.9 4.1 C 67.9 4 67.9 4 68 4 C 68 3.9 68 3.9 68.1 3.9 C 68.1 3.9 68.2 3.9 68.2 3.9 C 68.2 4 68.3 4 68.3 4 C 68.3 4.1 68.2 4.2 68.2 4.3 C 68.2 4.5 68.1 4.7 68.1 4.8 C 68 5 68 5.1 68 5.2 C 68 5.2 68 5.2 68 5.2 Z M 67.8 6 C 67.6 6 67.6 6 67.6 5.9 C 67.6 5.8 67.6 5.8 67.7 5.7 C 67.7 5.7 67.7 5.6 67.8 5.6 C 67.8 5.6 67.9 5.6 67.9 5.7 C 68 5.7 68 5.7 68 5.8 C 68 5.8 68 5.8 68 5.8 C 68 5.9 67.9 6 67.9 6 C 67.8 6 67.8 6 67.8 6 Z M 68.9 5.2 C 68.9 5.3 68.9 5.3 68.9 5.4 C 68.8 5.4 68.7 5.4 68.6 5.3 C 68.6 5.1 68.6 4.9 68.7 4.7 C 68.7 4.5 68.8 4.3 68.8 4.2 C 68.8 4.2 68.8 4.2 68.8 4.1 C 68.8 4 68.8 4 68.9 4 C 68.9 3.9 69 3.9 69 3.9 C 69 3.9 69.1 3.9 69.1 3.9 C 69.1 4 69.2 4 69.2 4 C 69.2 4.1 69.1 4.2 69.1 4.3 C 69.1 4.5 69 4.7 69 4.8 C 68.9 5 68.9 5.1 68.9 5.2 C 68.9 5.2 68.9 5.2 68.9 5.2 Z M 68.7 6 C 68.6 6 68.5 6 68.5 5.9 C 68.5 5.8 68.5 5.8 68.6 5.7 C 68.6 5.7 68.7 5.6 68.7 5.6 C 68.7 5.6 68.8 5.6 68.8 5.7 C 68.9 5.7 68.9 5.7 68.9 5.8 C 68.9 5.8 68.9 5.8 68.9 5.8 C 68.9 5.9 68.8 6 68.8 6 C 68.7 6 68.7 6 68.7 6 Z " stroke="none" fill="#000"/>  </g></svg>