<?xml version="1.0" standalone="no"?><!DOCTYPE svg PUBLIC "-//W3C//DTD SVG 1.1//EN" "http://www.w3.org/Graphics/SVG/1.1/DTD/svg11.dtd"><svg xmlns="http://www.w3.org/2000/svg" version="1.1" width="85px" height="22.9px" viewBox="0 -1 85 22.9" style="top:-1px">  <desc>POXA... A GENTE TRABALHA, BATALHA TODO M S E N O SOBRA QUASE NADA NO FIM DO M S... ISSO D UM DES NIMO!</desc>  <defs/>  <g id="Polygon14007">    <path d="M 27.5 14.8 C 27.5 14.8 27.5 14.7 27.5 14.6 C 27.6 14.2 27.6 13.9 27.7 13.5 C 27.7 13.4 27.7 13.4 27.7 13.3 C 27.7 13.3 27.7 13.3 27.7 13.3 C 27.6 13.3 27.5 13.2 27.5 13.2 C 27.5 13.1 27.5 13.1 27.6 13 C 27.6 13 27.7 13 27.7 13 C 27.7 13 27.9 13 27.9 13 C 28 13 28.1 13 28.3 13 C 28.4 12.9 28.5 12.9 28.6 12.9 C 28.9 12.9 29.1 13 29.3 13.2 C 29.4 13.3 29.5 13.5 29.5 13.8 C 29.5 14.1 29.4 14.3 29.1 14.5 C 28.9 14.8 28.6 14.9 28.2 15 C 28.1 15 28 15 28 15.1 C 27.9 15.1 27.9 15.1 27.8 15.1 C 27.8 15.2 27.7 15.2 27.6 15.2 C 27.6 15.2 27.6 15.2 27.5 15.1 C 27.5 15.1 27.5 15 27.5 15 C 27.5 15 27.5 15 27.5 14.9 C 27.5 14.9 27.5 14.8 27.5 14.8 Z M 27.9 14.7 C 27.9 14.7 27.9 14.7 27.9 14.8 C 28 14.8 28.1 14.7 28.3 14.7 C 28.6 14.6 28.8 14.5 28.9 14.3 C 29.1 14.1 29.2 14 29.2 13.8 C 29.2 13.6 29.1 13.5 29 13.4 C 28.9 13.3 28.7 13.2 28.6 13.2 C 28.4 13.2 28.3 13.2 28.1 13.3 C 28.1 13.3 28.1 13.3 28.1 13.3 C 27.9 13.9 27.9 14.4 27.9 14.7 C 27.9 14.7 27.9 14.7 27.9 14.7 Z M 30.1 14.6 C 30.1 14.6 30 14.6 30 14.6 C 30 14.6 30 14.7 29.9 14.9 C 29.8 15 29.7 15.1 29.7 15.1 C 29.7 15.1 29.6 15.1 29.6 15.1 C 29.6 15.1 29.5 15.1 29.5 15.1 C 29.4 15 29.4 15 29.4 15 C 29.4 14.9 29.5 14.7 29.8 14.3 C 29.9 14.1 30 13.9 30.1 13.7 C 30.4 13.3 30.5 13.1 30.5 13 C 30.6 13 30.6 12.9 30.7 12.9 C 30.8 12.9 30.8 12.9 30.9 13 C 30.9 13 30.9 13 30.9 13.1 C 30.9 13.1 30.9 13.2 30.9 13.2 C 31.1 13.7 31.2 14.1 31.3 14.3 C 31.4 14.6 31.5 14.7 31.6 14.8 C 31.7 14.9 31.7 14.9 31.7 14.9 C 31.7 14.9 31.7 15 31.7 15 C 31.7 15.1 31.7 15.1 31.7 15.1 C 31.6 15.2 31.6 15.2 31.5 15.2 C 31.5 15.2 31.4 15.1 31.3 15.1 C 31.2 15 31.2 14.9 31.1 14.7 C 31 14.6 31 14.5 31 14.5 C 31 14.5 31 14.4 31 14.4 C 30.9 14.4 30.8 14.5 30.6 14.5 C 30.4 14.5 30.3 14.6 30.2 14.6 C 30.2 14.6 30.1 14.6 30.1 14.6 C 30.1 14.6 30.1 14.6 30.1 14.6 Z M 30.7 14.2 C 30.8 14.2 30.8 14.2 30.9 14.2 C 30.8 14.1 30.8 13.9 30.7 13.5 C 30.7 13.5 30.6 13.5 30.6 13.5 C 30.6 13.5 30.2 14.3 30.2 14.3 C 30.3 14.3 30.3 14.2 30.4 14.2 C 30.5 14.2 30.6 14.2 30.7 14.2 C 30.7 14.2 30.7 14.2 30.7 14.2 Z M 31.3 12.2 C 31.3 12.3 31.2 12.3 31.1 12.4 C 31.1 12.4 31.1 12.4 31.1 12.4 C 31 12.4 31 12.5 30.8 12.6 C 30.8 12.6 30.8 12.6 30.7 12.6 C 30.7 12.6 30.7 12.6 30.7 12.6 C 30.7 12.6 30.6 12.6 30.6 12.6 C 30.6 12.6 30.6 12.5 30.6 12.5 C 30.6 12.5 30.6 12.4 30.8 12.3 C 30.8 12.3 30.8 12.3 30.8 12.3 C 30.8 12.2 30.9 12.2 30.9 12.2 C 31.1 12 31.2 12 31.2 11.9 C 31.3 11.9 31.3 11.9 31.3 11.9 C 31.3 11.9 31.4 11.9 31.4 12 C 31.4 12 31.4 12 31.4 12.1 C 31.4 12.1 31.4 12.1 31.4 12.2 C 31.4 12.2 31.3 12.2 31.3 12.2 C 31.3 12.2 31.3 12.2 31.3 12.2 Z M 33.9 15.2 C 33.8 15.2 33.7 15.1 33.5 15.1 C 33.4 15 33.3 14.9 33.2 14.7 C 33.1 14.6 33.1 14.4 33.1 14.2 C 33.1 14.1 33.1 14 33.1 13.9 C 33.1 13.9 33.2 13.6 33.2 13.6 C 33.2 13.5 33.2 13.5 33.2 13.5 C 33.2 13.4 33.2 13.3 33.2 13.3 C 33.2 13.2 33.3 13.1 33.3 13 C 33.3 13 33.4 12.9 33.5 12.9 C 33.5 12.9 33.5 13 33.6 13 C 33.6 13.1 33.6 13.1 33.6 13.2 C 33.6 13.2 33.6 13.3 33.5 13.5 C 33.5 13.5 33.5 13.6 33.5 13.8 C 33.5 14 33.4 14.1 33.4 14.2 C 33.4 14.5 33.5 14.6 33.6 14.7 C 33.7 14.8 33.8 14.9 33.9 14.9 C 34.1 14.9 34.3 14.8 34.4 14.7 C 34.5 14.6 34.6 14.4 34.6 14.2 C 34.6 14.1 34.6 14.1 34.6 14 C 34.6 13.9 34.6 13.9 34.6 13.8 C 34.6 13.4 34.7 13.2 34.7 13.1 C 34.8 13 34.8 13 34.9 13 C 35 13 35.1 13.1 35.1 13.2 C 35.1 13.3 35 13.4 35 13.6 C 35 13.7 35 13.9 35 14 C 34.9 14.3 34.9 14.5 34.8 14.6 C 34.8 14.8 34.7 14.9 34.5 15 C 34.3 15.1 34.1 15.2 33.9 15.2 Z M 37.4 13.6 C 37.4 13.5 37.4 13.5 37.4 13.5 C 37.4 13.5 36.9 14.1 36.9 14.1 C 36.7 14.4 36.5 14.6 36.4 14.6 C 36.3 14.6 36.3 14.6 36.2 14.5 C 36.2 14.4 36.1 14.3 36.1 14.2 C 36 14.1 36 14 36 13.9 C 35.9 13.7 35.9 13.6 35.9 13.6 C 35.9 13.6 35.8 14 35.8 14 C 35.8 14.1 35.8 14.2 35.8 14.3 C 35.7 14.5 35.7 14.6 35.7 14.7 C 35.6 14.9 35.6 15 35.6 15 C 35.6 15.1 35.6 15.1 35.5 15.1 C 35.5 15.2 35.5 15.2 35.4 15.2 C 35.4 15.2 35.4 15.1 35.3 15.1 C 35.3 15.1 35.3 15 35.3 15 C 35.3 14.9 35.3 14.8 35.3 14.6 C 35.5 14 35.6 13.7 35.6 13.5 C 35.6 13.3 35.6 13.2 35.6 13.1 C 35.6 13.1 35.6 13 35.7 13 C 35.7 13 35.8 13 35.9 13 C 35.9 13 36 13 36 13 C 36 13.1 36.1 13.1 36.1 13.2 C 36.07 13.18 36.1 13.2 36.1 13.2 C 36.1 13.2 36.27 13.75 36.3 13.7 C 36.4 14 36.4 14.1 36.4 14.2 C 36.5 14.1 36.7 13.9 36.9 13.6 C 37.1 13.3 37.3 13.1 37.3 13 C 37.4 13 37.5 12.9 37.5 12.9 C 37.5 12.9 37.6 12.9 37.7 13 C 37.7 13 37.7 13.1 37.7 13.1 C 37.7 13.1 37.7 13.3 37.7 13.5 C 37.7 13.7 37.6 13.9 37.6 14.2 C 37.6 14.4 37.6 14.5 37.6 14.6 C 37.6 14.6 37.6 14.7 37.6 14.8 C 37.6 14.8 37.6 14.8 37.6 14.9 C 37.6 15 37.6 15 37.6 15.1 C 37.5 15.1 37.5 15.1 37.4 15.1 C 37.3 15.1 37.2 15 37.2 14.8 C 37.2 14.7 37.2 14.4 37.3 14.2 C 37.3 13.9 37.3 13.7 37.4 13.6 C 37.4 13.6 37.4 13.6 37.4 13.6 Z M 39.3 14.8 C 39.3 14.8 39.3 14.7 39.3 14.6 C 39.3 14.2 39.4 13.9 39.4 13.5 C 39.5 13.4 39.5 13.4 39.5 13.3 C 39.5 13.3 39.5 13.3 39.4 13.3 C 39.3 13.3 39.3 13.2 39.3 13.2 C 39.3 13.1 39.3 13.1 39.4 13 C 39.4 13 39.4 13 39.5 13 C 39.5 13 39.7 13 39.7 13 C 39.8 13 39.9 13 40.1 13 C 40.2 12.9 40.3 12.9 40.4 12.9 C 40.7 12.9 40.9 13 41 13.2 C 41.2 13.3 41.3 13.5 41.3 13.8 C 41.3 14.1 41.2 14.3 40.9 14.5 C 40.7 14.8 40.3 14.9 40 15 C 39.9 15 39.8 15 39.8 15.1 C 39.7 15.1 39.7 15.1 39.6 15.1 C 39.6 15.2 39.5 15.2 39.4 15.2 C 39.4 15.2 39.3 15.2 39.3 15.1 C 39.3 15.1 39.2 15 39.2 15 C 39.2 15 39.2 15 39.3 14.9 C 39.3 14.9 39.3 14.8 39.3 14.8 Z M 39.7 14.7 C 39.7 14.7 39.7 14.7 39.7 14.8 C 39.7 14.8 39.9 14.7 40.1 14.7 C 40.4 14.6 40.6 14.5 40.7 14.3 C 40.9 14.1 40.9 14 40.9 13.8 C 40.9 13.6 40.9 13.5 40.8 13.4 C 40.7 13.3 40.5 13.2 40.3 13.2 C 40.2 13.2 40.1 13.2 39.9 13.3 C 39.9 13.3 39.8 13.3 39.8 13.3 C 39.7 13.9 39.7 14.4 39.7 14.7 C 39.7 14.7 39.7 14.7 39.7 14.7 Z M 43.2 13.3 C 43.2 13.3 42.8 13.3 42.8 13.3 C 42.6 13.3 42.5 13.3 42.3 13.3 C 42.2 13.3 42.2 13.4 42.2 13.4 C 42.2 13.4 42.1 13.4 42.1 13.5 C 42.1 13.5 42.1 13.6 42.1 13.7 C 42.1 13.8 42.1 13.9 42 13.9 C 42.1 13.9 42.2 13.9 42.3 13.9 C 42.4 13.9 42.5 13.9 42.6 13.9 C 42.7 13.9 42.8 13.8 42.9 13.8 C 43 13.8 43.1 13.9 43.1 14 C 43.1 14 43.1 14.1 43.1 14.1 C 43 14.1 43 14.2 42.9 14.2 C 42.8 14.2 42.7 14.2 42.7 14.2 C 42.6 14.2 42.6 14.2 42.5 14.2 C 42.3 14.2 42.1 14.3 42 14.3 C 42 14.3 42 14.3 42 14.3 C 42 14.3 42 14.3 42 14.3 C 42 14.3 42 14.4 42 14.5 C 41.9 14.7 41.9 14.8 41.9 14.8 C 41.9 14.8 42 14.9 42 14.9 C 42 14.9 42.2 14.8 42.4 14.8 C 42.6 14.8 42.7 14.8 42.7 14.8 C 42.9 14.7 43 14.7 43 14.7 C 43.1 14.7 43.2 14.8 43.2 14.9 C 43.2 14.9 43.2 15 43.1 15 C 43 15 42.9 15.1 42.7 15.1 C 42.6 15.1 42.4 15.1 42.3 15.1 C 42.1 15.2 41.9 15.2 41.8 15.2 C 41.7 15.2 41.6 15.2 41.6 15.1 C 41.6 15.1 41.5 15 41.5 15 C 41.5 15 41.5 14.9 41.5 14.9 C 41.5 14.9 41.5 14.9 41.6 14.8 C 41.6 14.7 41.6 14.5 41.7 14 C 41.8 13.6 41.8 13.4 41.8 13.3 C 41.8 13.3 41.8 13.3 41.8 13.3 C 41.8 13.3 41.8 13.3 41.7 13.3 C 41.7 13.2 41.7 13.2 41.7 13.2 C 41.7 13.2 41.7 13.1 41.7 13.1 C 41.7 13.1 41.8 13.1 41.8 13.1 C 41.8 13.1 41.9 13 41.9 13 C 41.9 13 42 13 42 13.1 C 42.1 13.1 42.4 13 42.8 13 C 43 12.9 43.1 12.9 43.1 12.9 C 43.1 12.9 43.1 12.9 43.1 12.9 C 43.3 12.9 43.3 13 43.3 13.1 C 43.3 13.1 43.3 13.2 43.3 13.2 C 43.3 13.2 43.2 13.2 43.2 13.3 Z M 45.2 13.2 C 45.2 13.4 45.1 13.5 44.9 13.5 C 44.9 13.4 44.8 13.3 44.8 13.3 C 44.7 13.3 44.7 13.2 44.6 13.2 C 44.4 13.2 44.3 13.3 44.1 13.4 C 44 13.4 43.9 13.5 43.9 13.6 C 43.9 13.7 43.9 13.7 44 13.8 C 44 13.8 44.2 13.9 44.4 13.9 C 44.6 14 44.8 14.1 44.9 14.2 C 45 14.2 45.1 14.3 45.1 14.5 C 45.1 14.6 44.9 14.8 44.7 15 C 44.4 15.1 44.1 15.2 43.8 15.2 C 43.7 15.2 43.6 15.2 43.5 15.2 C 43.5 15.1 43.4 15.1 43.4 15 C 43.4 14.9 43.4 14.9 43.5 14.9 C 43.5 14.8 43.5 14.8 43.6 14.8 C 43.6 14.8 43.6 14.8 43.6 14.8 C 43.7 14.9 43.8 14.9 43.9 14.9 C 44.1 14.9 44.2 14.8 44.4 14.7 C 44.6 14.7 44.7 14.6 44.7 14.5 C 44.7 14.5 44.7 14.4 44.6 14.4 C 44.6 14.4 44.5 14.3 44.4 14.3 C 44.1 14.2 44 14.1 43.9 14.1 C 43.8 14.1 43.7 14 43.6 13.9 C 43.6 13.9 43.5 13.8 43.5 13.7 C 43.5 13.5 43.7 13.3 43.9 13.2 C 44.1 13 44.3 12.9 44.6 12.9 C 44.8 12.9 44.9 13 45 13 C 45.1 13.1 45.2 13.2 45.2 13.2 C 45.2 13.2 45.2 13.2 45.2 13.2 Z M 45.8 14.6 C 45.8 14.6 45.8 14.6 45.8 14.6 C 45.7 14.6 45.7 14.7 45.6 14.9 C 45.5 15 45.5 15.1 45.4 15.1 C 45.4 15.1 45.4 15.1 45.3 15.1 C 45.3 15.1 45.3 15.1 45.2 15.1 C 45.2 15 45.1 15 45.1 15 C 45.1 14.9 45.3 14.7 45.5 14.3 C 45.6 14.1 45.8 13.9 45.9 13.7 C 46.1 13.3 46.2 13.1 46.3 13 C 46.3 13 46.4 12.9 46.4 12.9 C 46.5 12.9 46.6 12.9 46.6 13 C 46.6 13 46.6 13 46.6 13.1 C 46.6 13.1 46.6 13.2 46.6 13.2 C 46.8 13.7 46.9 14.1 47 14.3 C 47.1 14.6 47.3 14.7 47.4 14.8 C 47.4 14.9 47.4 14.9 47.4 14.9 C 47.5 14.9 47.5 15 47.5 15 C 47.5 15.1 47.4 15.1 47.4 15.1 C 47.4 15.2 47.3 15.2 47.3 15.2 C 47.2 15.2 47.1 15.1 47 15.1 C 47 15 46.9 14.9 46.8 14.7 C 46.8 14.6 46.7 14.5 46.7 14.5 C 46.7 14.5 46.7 14.4 46.7 14.4 C 46.7 14.4 46.5 14.5 46.4 14.5 C 46.2 14.5 46 14.6 45.9 14.6 C 45.9 14.6 45.9 14.6 45.8 14.6 C 45.8 14.6 45.8 14.6 45.8 14.6 Z M 46.5 14.2 C 46.5 14.2 46.6 14.2 46.6 14.2 C 46.6 14.1 46.5 13.9 46.4 13.5 C 46.4 13.5 46.4 13.5 46.4 13.5 C 46.4 13.5 46 14.3 46 14.3 C 46 14.3 46.1 14.2 46.1 14.2 C 46.2 14.2 46.3 14.2 46.5 14.2 C 46.5 14.2 46.5 14.2 46.5 14.2 Z M 46.6 12.5 C 46.6 12.4 46.5 12.3 46.5 12.3 C 46.5 12.3 46.4 12.3 46.4 12.4 C 46.4 12.4 46.4 12.4 46.3 12.4 C 46.3 12.4 46.3 12.4 46.3 12.4 C 46.3 12.5 46.3 12.5 46.3 12.5 C 46.2 12.5 46.2 12.6 46.1 12.7 C 46.1 12.7 46 12.7 46 12.7 C 45.9 12.7 45.9 12.7 45.9 12.7 C 45.9 12.7 45.9 12.6 45.9 12.6 C 45.9 12.5 45.9 12.5 46 12.4 C 46 12.4 46 12.4 46 12.4 C 46 12.4 46.1 12.3 46.1 12.3 C 46.2 12.2 46.2 12.2 46.3 12.1 C 46.4 12 46.5 11.9 46.5 11.9 C 46.6 11.9 46.7 12 46.8 12.2 C 46.8 12.2 46.8 12.3 46.9 12.3 C 46.9 12.3 46.9 12.3 46.9 12.3 C 46.9 12.4 47 12.4 47 12.5 C 47.1 12.5 47.1 12.5 47.1 12.6 C 47.1 12.6 47.1 12.6 47.1 12.6 C 47.1 12.7 47.1 12.7 47.1 12.7 C 47 12.8 47 12.8 46.9 12.8 C 46.9 12.8 46.8 12.7 46.7 12.6 C 46.7 12.6 46.7 12.5 46.6 12.5 C 46.6 12.5 46.6 12.5 46.6 12.5 Z M 47.7 14.6 C 47.7 14.6 47.8 14.1 47.8 14.1 C 47.9 13.7 47.9 13.4 47.9 13.3 C 47.9 13.2 47.9 13.2 47.9 13.1 C 48 13.1 48 13.1 48 13.1 C 48 13 48.1 13 48.1 13 C 48.2 13 48.2 13 48.2 13 C 48.3 13.1 48.3 13.1 48.3 13.2 C 48.4 13.4 48.5 13.6 48.7 13.9 C 48.8 14.2 49 14.4 49.1 14.6 C 49.2 14.4 49.2 14.2 49.2 13.9 C 49.3 13.7 49.3 13.6 49.3 13.4 C 49.4 13.3 49.4 13.2 49.4 13.1 C 49.4 13 49.4 13 49.4 12.9 C 49.5 12.9 49.5 12.9 49.6 12.9 C 49.6 12.9 49.7 12.9 49.7 13 C 49.7 13 49.7 13.1 49.7 13.1 C 49.7 13.2 49.7 13.3 49.7 13.4 C 49.6 13.6 49.6 13.9 49.5 14.2 C 49.5 14.6 49.4 14.8 49.4 14.8 C 49.4 14.8 49.4 14.9 49.4 14.9 C 49.4 14.9 49.4 15 49.4 15 C 49.4 15 49.4 15.1 49.3 15.1 C 49.3 15.1 49.3 15.1 49.2 15.1 C 49.2 15.1 49.1 15.1 49.1 15.1 C 49.1 15.1 49.1 15.1 49 15 C 49 15 49 15 49 14.9 C 48.9 14.8 48.9 14.8 48.9 14.7 C 48.6 14.5 48.4 14.1 48.2 13.7 C 48.2 13.8 48.1 14.1 48 14.6 C 48 14.6 48 14.7 48 14.7 C 48 14.7 48 14.8 48 14.9 C 48 15 48 15.1 47.9 15.1 C 47.9 15.2 47.8 15.2 47.8 15.2 C 47.7 15.2 47.7 15.2 47.7 15.1 C 47.6 15.1 47.6 15 47.6 14.9 C 47.6 14.9 47.7 14.7 47.7 14.6 C 47.69 14.6 47.7 14.6 47.7 14.6 Z M 50.5 13.6 C 50.5 13.7 50.5 13.8 50.5 13.8 C 50.5 13.9 50.5 13.9 50.4 14.1 C 50.4 14.3 50.4 14.4 50.4 14.5 C 50.4 14.6 50.4 14.7 50.4 14.9 C 50.4 15 50.4 15 50.4 15.1 C 50.3 15.1 50.3 15.1 50.2 15.1 C 50.2 15.1 50.1 15.1 50.1 15 C 50 15 50 14.9 50 14.7 C 50 14.6 50.1 14.4 50.1 14.1 C 50.1 14.1 50.2 13.5 50.2 13.5 C 50.2 13.4 50.2 13.3 50.2 13.3 C 50.2 13.1 50.2 13.1 50.3 13.1 C 50.3 13 50.3 13 50.3 13 C 50.4 13 50.4 12.9 50.4 12.9 C 50.5 12.9 50.5 13 50.6 13 C 50.6 13.1 50.6 13.1 50.6 13.2 C 50.6 13.2 50.5 13.6 50.5 13.6 Z M 52.9 13.6 C 52.9 13.5 52.9 13.5 53 13.5 C 53 13.5 52.5 14.1 52.5 14.1 C 52.2 14.4 52.1 14.6 51.9 14.6 C 51.9 14.6 51.8 14.6 51.8 14.5 C 51.7 14.4 51.7 14.3 51.7 14.2 C 51.6 14.1 51.6 14 51.6 13.9 C 51.5 13.7 51.5 13.6 51.5 13.6 C 51.5 13.6 51.4 14 51.4 14 C 51.4 14.1 51.4 14.2 51.3 14.3 C 51.3 14.5 51.3 14.6 51.2 14.7 C 51.2 14.9 51.2 15 51.2 15 C 51.2 15.1 51.2 15.1 51.1 15.1 C 51.1 15.2 51 15.2 51 15.2 C 51 15.2 50.9 15.1 50.9 15.1 C 50.9 15.1 50.8 15 50.8 15 C 50.8 14.9 50.8 14.8 50.9 14.6 C 51.1 14 51.1 13.7 51.2 13.5 C 51.2 13.3 51.2 13.2 51.2 13.1 C 51.2 13.1 51.2 13 51.3 13 C 51.3 13 51.4 13 51.4 13 C 51.5 13 51.5 13 51.6 13 C 51.6 13.1 51.6 13.1 51.6 13.2 C 51.65 13.18 51.6 13.2 51.6 13.2 C 51.6 13.2 51.85 13.75 51.8 13.7 C 51.9 14 52 14.1 52 14.2 C 52.1 14.1 52.3 13.9 52.5 13.6 C 52.7 13.3 52.8 13.1 52.9 13 C 53 13 53 12.9 53.1 12.9 C 53.1 12.9 53.2 12.9 53.2 13 C 53.3 13 53.3 13.1 53.3 13.1 C 53.3 13.1 53.3 13.3 53.3 13.5 C 53.2 13.7 53.2 13.9 53.2 14.2 C 53.2 14.4 53.2 14.5 53.2 14.6 C 53.2 14.6 53.2 14.7 53.2 14.8 C 53.2 14.8 53.2 14.8 53.2 14.9 C 53.2 15 53.2 15 53.1 15.1 C 53.1 15.1 53.1 15.1 53 15.1 C 52.9 15.1 52.8 15 52.8 14.8 C 52.8 14.7 52.8 14.4 52.8 14.2 C 52.9 13.9 52.9 13.7 52.9 13.6 C 52.9 13.6 52.9 13.6 52.9 13.6 Z M 54.2 15.2 C 54.1 15.2 53.9 15.1 53.8 14.9 C 53.7 14.8 53.6 14.6 53.6 14.4 C 53.6 14.2 53.7 14 53.8 13.8 C 53.9 13.5 54.1 13.3 54.3 13.2 C 54.4 13 54.6 12.9 54.9 12.9 C 55 12.9 55.2 13 55.3 13 C 55.4 13 55.5 13.1 55.6 13.2 C 55.6 13.2 55.7 13.3 55.7 13.4 C 55.8 13.5 55.8 13.6 55.8 13.7 C 55.8 13.9 55.7 14 55.7 14.2 C 55.6 14.4 55.5 14.5 55.3 14.7 C 55.2 14.8 55 15 54.8 15 C 54.7 15.1 54.5 15.2 54.2 15.2 Z M 54 14.4 C 54 14.6 54 14.7 54.1 14.7 C 54.1 14.8 54.2 14.9 54.3 14.9 C 54.6 14.9 54.8 14.7 55.1 14.5 C 55.3 14.2 55.4 14 55.4 13.7 C 55.4 13.6 55.4 13.5 55.3 13.4 C 55.3 13.4 55.2 13.3 55.2 13.3 C 55.1 13.2 55 13.2 54.9 13.2 C 54.7 13.2 54.5 13.4 54.3 13.6 C 54.1 13.9 54 14.2 54 14.4 Z M 56.4 14.2 C 56.4 14.3 56.4 14.3 56.3 14.4 C 56.2 14.4 56.2 14.4 56.1 14.3 C 56.1 14.1 56.1 13.9 56.1 13.7 C 56.2 13.5 56.2 13.3 56.2 13.2 C 56.2 13.2 56.2 13.2 56.2 13.1 C 56.2 13 56.3 13 56.3 13 C 56.4 12.9 56.4 12.9 56.5 12.9 C 56.5 12.9 56.5 12.9 56.6 12.9 C 56.6 13 56.6 13 56.6 13 C 56.6 13.1 56.6 13.2 56.6 13.3 C 56.5 13.5 56.5 13.7 56.4 13.8 C 56.4 14 56.4 14.1 56.4 14.2 C 56.4 14.2 56.4 14.2 56.4 14.2 Z M 56.1 15 C 56 15 56 15 56 14.9 C 56 14.8 56 14.8 56 14.7 C 56.1 14.7 56.1 14.6 56.2 14.6 C 56.2 14.6 56.2 14.6 56.3 14.7 C 56.3 14.7 56.4 14.7 56.4 14.8 C 56.4 14.8 56.4 14.8 56.4 14.8 C 56.3 14.9 56.3 15 56.3 15 C 56.2 15 56.2 15 56.1 15 Z " stroke="none" fill="#000"/>  </g>  <g id="Polygon14006">    <path d="M 3.8 9.3 C 3.8 9.3 3.4 9.3 3.4 9.3 C 3.2 9.3 3.1 9.3 3 9.3 C 2.9 9.3 2.8 9.4 2.8 9.4 C 2.8 9.4 2.8 9.4 2.8 9.5 C 2.8 9.5 2.7 9.6 2.7 9.7 C 2.7 9.8 2.7 9.9 2.7 9.9 C 2.7 9.9 2.8 9.9 2.9 9.9 C 3.1 9.9 3.1 9.9 3.2 9.9 C 3.3 9.9 3.4 9.8 3.5 9.8 C 3.7 9.8 3.7 9.9 3.7 10 C 3.7 10 3.7 10.1 3.7 10.1 C 3.6 10.1 3.6 10.2 3.5 10.2 C 3.4 10.2 3.4 10.2 3.3 10.2 C 3.3 10.2 3.2 10.2 3.1 10.2 C 2.9 10.2 2.7 10.3 2.7 10.3 C 2.7 10.3 2.7 10.3 2.7 10.3 C 2.7 10.3 2.6 10.3 2.6 10.3 C 2.6 10.3 2.6 10.4 2.6 10.5 C 2.6 10.7 2.6 10.8 2.6 10.8 C 2.6 10.8 2.6 10.9 2.6 10.9 C 2.7 10.9 2.8 10.8 3 10.8 C 3.2 10.8 3.3 10.8 3.4 10.8 C 3.5 10.7 3.6 10.7 3.6 10.7 C 3.7 10.7 3.8 10.8 3.8 10.9 C 3.8 10.9 3.8 11 3.8 11 C 3.7 11 3.5 11.1 3.4 11.1 C 3.2 11.1 3.1 11.1 2.9 11.1 C 2.7 11.2 2.5 11.2 2.4 11.2 C 2.3 11.2 2.3 11.2 2.2 11.1 C 2.2 11.1 2.2 11 2.2 11 C 2.2 11 2.2 10.9 2.2 10.9 C 2.2 10.9 2.2 10.9 2.2 10.8 C 2.2 10.7 2.3 10.5 2.3 10 C 2.4 9.6 2.4 9.4 2.4 9.3 C 2.4 9.3 2.4 9.3 2.4 9.3 C 2.4 9.3 2.4 9.3 2.4 9.3 C 2.4 9.2 2.3 9.2 2.3 9.2 C 2.3 9.2 2.3 9.1 2.3 9.1 C 2.4 9.1 2.4 9.1 2.4 9.1 C 2.4 9.1 2.5 9 2.5 9 C 2.6 9 2.6 9 2.7 9.1 C 2.7 9.1 3 9 3.4 9 C 3.6 8.9 3.7 8.9 3.7 8.9 C 3.7 8.9 3.7 8.9 3.7 8.9 C 3.9 8.9 4 9 4 9.1 C 4 9.1 3.9 9.2 3.9 9.2 C 3.9 9.2 3.9 9.2 3.8 9.3 Z M 5.3 10.6 C 5.3 10.6 5.44 10.1 5.4 10.1 C 5.5 9.7 5.6 9.4 5.6 9.3 C 5.6 9.2 5.6 9.2 5.6 9.1 C 5.6 9.1 5.6 9.1 5.7 9.1 C 5.7 9 5.7 9 5.8 9 C 5.8 9 5.8 9 5.9 9 C 5.9 9.1 6 9.1 6 9.2 C 6 9.4 6.1 9.6 6.3 9.9 C 6.5 10.2 6.6 10.4 6.8 10.6 C 6.8 10.4 6.8 10.2 6.9 9.9 C 6.9 9.7 6.9 9.6 7 9.4 C 7 9.3 7 9.2 7 9.1 C 7 9 7 9 7.1 8.9 C 7.1 8.9 7.2 8.9 7.2 8.9 C 7.3 8.9 7.3 8.9 7.3 9 C 7.4 9 7.4 9.1 7.4 9.1 C 7.4 9.2 7.4 9.3 7.3 9.4 C 7.3 9.6 7.2 9.9 7.2 10.2 C 7.1 10.6 7.1 10.8 7.1 10.8 C 7.1 10.8 7.1 10.9 7.1 10.9 C 7.1 10.9 7.1 11 7.1 11 C 7 11 7 11.1 7 11.1 C 6.9 11.1 6.9 11.1 6.8 11.1 C 6.8 11.1 6.8 11.1 6.8 11.1 C 6.7 11.1 6.7 11.1 6.7 11 C 6.7 11 6.6 11 6.6 10.9 C 6.6 10.8 6.5 10.8 6.5 10.7 C 6.3 10.5 6 10.1 5.8 9.7 C 5.8 9.8 5.8 10.1 5.7 10.6 C 5.7 10.6 5.7 10.7 5.7 10.7 C 5.7 10.7 5.7 10.8 5.7 10.9 C 5.6 11 5.6 11.1 5.6 11.1 C 5.5 11.2 5.5 11.2 5.5 11.2 C 5.4 11.2 5.3 11.2 5.3 11.1 C 5.3 11.1 5.3 11 5.3 10.9 C 5.3 10.9 5.3 10.7 5.3 10.6 C 5.34 10.6 5.3 10.6 5.3 10.6 Z M 8.1 10.6 C 8.1 10.6 8 10.6 8 10.6 C 8 10.6 8 10.7 7.9 10.9 C 7.8 11 7.7 11.1 7.7 11.1 C 7.7 11.1 7.6 11.1 7.6 11.1 C 7.6 11.1 7.5 11.1 7.5 11.1 C 7.4 11 7.4 11 7.4 11 C 7.4 10.9 7.5 10.7 7.8 10.3 C 7.9 10.1 8 9.9 8.1 9.7 C 8.4 9.3 8.5 9.1 8.5 9 C 8.6 9 8.6 8.9 8.7 8.9 C 8.8 8.9 8.8 8.9 8.9 9 C 8.9 9 8.9 9 8.9 9.1 C 8.9 9.1 8.9 9.2 8.9 9.2 C 9.1 9.7 9.2 10.1 9.3 10.3 C 9.4 10.6 9.5 10.7 9.6 10.8 C 9.7 10.9 9.7 10.9 9.7 10.9 C 9.7 10.9 9.7 11 9.7 11 C 9.7 11.1 9.7 11.1 9.7 11.1 C 9.6 11.2 9.6 11.2 9.5 11.2 C 9.5 11.2 9.4 11.1 9.3 11.1 C 9.2 11 9.2 10.9 9.1 10.7 C 9 10.6 9 10.5 9 10.5 C 9 10.5 9 10.4 9 10.4 C 8.9 10.4 8.8 10.5 8.6 10.5 C 8.4 10.5 8.3 10.6 8.2 10.6 C 8.2 10.6 8.1 10.6 8.1 10.6 C 8.1 10.6 8.1 10.6 8.1 10.6 Z M 8.7 10.2 C 8.8 10.2 8.8 10.2 8.9 10.2 C 8.8 10.1 8.8 9.9 8.7 9.5 C 8.7 9.5 8.6 9.5 8.6 9.5 C 8.6 9.5 8.2 10.3 8.2 10.3 C 8.3 10.3 8.3 10.2 8.4 10.2 C 8.5 10.2 8.6 10.2 8.7 10.2 C 8.7 10.2 8.7 10.2 8.7 10.2 Z M 9.1 8.6 C 9 8.6 8.9 8.6 8.9 8.6 C 8.9 8.6 8.8 8.5 8.8 8.5 C 8.8 8.5 8.7 8.5 8.7 8.5 C 8.7 8.5 8.7 8.5 8.7 8.4 C 8.6 8.4 8.6 8.4 8.6 8.4 C 8.5 8.4 8.5 8.4 8.4 8.5 C 8.4 8.5 8.4 8.5 8.4 8.5 C 8.3 8.6 8.3 8.6 8.3 8.6 C 8.2 8.6 8.2 8.7 8.2 8.7 C 8.1 8.7 8.1 8.6 8.1 8.5 C 8.1 8.5 8.1 8.4 8.2 8.2 C 8.3 8.1 8.4 8.1 8.5 8.1 C 8.6 8.1 8.7 8.1 8.7 8.1 C 8.7 8.1 8.8 8.1 8.8 8.2 C 8.9 8.3 8.9 8.3 9 8.3 C 9 8.4 9 8.4 9.1 8.4 C 9.1 8.4 9.1 8.3 9.2 8.3 C 9.2 8.2 9.2 8.2 9.2 8.2 C 9.2 8.2 9.2 8.2 9.2 8.2 C 9.3 8.1 9.3 8.1 9.3 8.1 C 9.4 8.1 9.5 8.2 9.5 8.2 C 9.5 8.3 9.4 8.4 9.3 8.5 C 9.3 8.6 9.2 8.6 9.1 8.6 C 9.1 8.6 9.1 8.6 9.1 8.6 Z M 10.5 11.2 C 10.3 11.2 10.1 11.1 10 10.9 C 9.9 10.8 9.8 10.6 9.8 10.4 C 9.8 10.2 9.9 10 10 9.8 C 10.1 9.5 10.3 9.3 10.5 9.2 C 10.7 9 10.9 8.9 11.1 8.9 C 11.2 8.9 11.4 9 11.5 9 C 11.6 9 11.7 9.1 11.8 9.2 C 11.9 9.2 11.9 9.3 12 9.4 C 12 9.5 12 9.6 12 9.7 C 12 9.9 12 10 11.9 10.2 C 11.8 10.4 11.7 10.5 11.5 10.7 C 11.4 10.8 11.2 11 11.1 11 C 10.9 11.1 10.7 11.2 10.5 11.2 Z M 10.2 10.4 C 10.2 10.6 10.2 10.7 10.3 10.7 C 10.4 10.8 10.5 10.9 10.5 10.9 C 10.8 10.9 11.1 10.7 11.3 10.5 C 11.5 10.2 11.6 10 11.6 9.7 C 11.6 9.6 11.6 9.5 11.6 9.4 C 11.5 9.4 11.5 9.3 11.4 9.3 C 11.3 9.2 11.2 9.2 11.1 9.2 C 10.9 9.2 10.7 9.4 10.5 9.6 C 10.3 9.9 10.2 10.2 10.2 10.4 Z M 15 9.2 C 15 9.4 14.9 9.5 14.7 9.5 C 14.7 9.4 14.7 9.3 14.6 9.3 C 14.6 9.3 14.5 9.2 14.4 9.2 C 14.3 9.2 14.1 9.3 14 9.4 C 13.8 9.4 13.7 9.5 13.7 9.6 C 13.7 9.7 13.8 9.7 13.8 9.8 C 13.9 9.8 14 9.9 14.2 9.9 C 14.5 10 14.6 10.1 14.8 10.2 C 14.9 10.2 14.9 10.3 14.9 10.5 C 14.9 10.6 14.8 10.8 14.5 11 C 14.2 11.1 13.9 11.2 13.6 11.2 C 13.5 11.2 13.4 11.2 13.4 11.2 C 13.3 11.1 13.3 11.1 13.3 11 C 13.3 10.9 13.3 10.9 13.3 10.9 C 13.3 10.8 13.4 10.8 13.4 10.8 C 13.4 10.8 13.5 10.8 13.5 10.8 C 13.6 10.9 13.7 10.9 13.8 10.9 C 13.9 10.9 14.1 10.8 14.3 10.7 C 14.5 10.7 14.6 10.6 14.6 10.5 C 14.6 10.5 14.5 10.4 14.5 10.4 C 14.4 10.4 14.3 10.3 14.2 10.3 C 14 10.2 13.8 10.1 13.7 10.1 C 13.6 10.1 13.5 10 13.5 9.9 C 13.4 9.9 13.4 9.8 13.4 9.7 C 13.4 9.5 13.5 9.3 13.7 9.2 C 13.9 9 14.2 8.9 14.5 8.9 C 14.6 8.9 14.8 9 14.9 9 C 14.9 9.1 15 9.2 15 9.2 C 15 9.2 15 9.2 15 9.2 Z M 15.8 11.2 C 15.6 11.2 15.5 11.1 15.3 10.9 C 15.2 10.8 15.2 10.6 15.2 10.4 C 15.2 10.2 15.2 10 15.3 9.8 C 15.5 9.5 15.6 9.3 15.8 9.2 C 16 9 16.2 8.9 16.4 8.9 C 16.6 8.9 16.7 9 16.8 9 C 16.9 9 17 9.1 17.1 9.2 C 17.2 9.2 17.3 9.3 17.3 9.4 C 17.3 9.5 17.3 9.6 17.3 9.7 C 17.3 9.9 17.3 10 17.2 10.2 C 17.1 10.4 17 10.5 16.9 10.7 C 16.7 10.8 16.6 11 16.4 11 C 16.2 11.1 16 11.2 15.8 11.2 Z M 15.5 10.4 C 15.5 10.6 15.6 10.7 15.6 10.7 C 15.7 10.8 15.8 10.9 15.9 10.9 C 16.1 10.9 16.4 10.7 16.6 10.5 C 16.8 10.2 17 10 17 9.7 C 17 9.6 16.9 9.5 16.9 9.4 C 16.9 9.4 16.8 9.3 16.7 9.3 C 16.6 9.2 16.5 9.2 16.4 9.2 C 16.2 9.2 16 9.4 15.8 9.6 C 15.6 9.9 15.5 10.2 15.5 10.4 Z M 19 9.9 C 19.1 9.9 19.3 10 19.3 10.1 C 19.4 10.2 19.4 10.3 19.4 10.4 C 19.4 10.6 19.3 10.8 19 11 C 18.8 11.2 18.6 11.2 18.3 11.2 C 18.1 11.2 18.1 11.2 18.1 11.1 C 18.1 11 18.2 10.9 18.4 10.9 C 18.4 10.9 18.4 10.9 18.4 10.9 C 18.5 10.9 18.7 10.8 18.8 10.7 C 19 10.6 19 10.5 19 10.4 C 19 10.3 19 10.3 18.9 10.2 C 18.9 10.2 18.8 10.1 18.7 10.1 C 18.7 10.1 18.7 10.1 18.6 10.2 C 18.5 10.2 18.5 10.2 18.4 10.2 C 18.3 10.2 18.3 10.2 18.2 10.2 C 18.2 10.2 18.2 10.1 18.2 10 C 18.2 10 18.3 9.9 18.5 9.9 C 18.6 9.8 18.7 9.7 18.8 9.6 C 19 9.5 19 9.4 19 9.3 C 19 9.3 18.9 9.2 18.8 9.2 C 18.7 9.2 18.5 9.2 18.4 9.2 C 18.3 9.3 18.2 9.3 18.2 9.4 C 18.2 9.4 18.2 9.6 18.1 10 C 18 10.4 18 10.7 18 10.7 C 18 10.7 18 10.9 18 10.9 C 18 11 18 11.1 17.9 11.1 C 17.9 11.1 17.8 11.2 17.8 11.2 C 17.7 11.2 17.6 11.1 17.6 10.9 C 17.6 10.9 17.6 10.8 17.6 10.8 C 17.7 10.6 17.7 10.3 17.7 10 C 17.8 9.7 17.8 9.5 17.8 9.5 C 17.8 9.5 17.8 9.4 17.8 9.4 C 17.8 9.4 17.7 9.4 17.7 9.4 C 17.7 9.4 17.7 9.4 17.7 9.4 C 17.6 9.4 17.6 9.4 17.6 9.4 C 17.6 9.3 17.6 9.3 17.6 9.3 C 17.6 9.2 17.7 9.1 18 9 C 18.3 8.9 18.6 8.9 18.9 8.9 C 19 8.9 19.2 8.9 19.3 9 C 19.4 9.1 19.4 9.2 19.4 9.3 C 19.4 9.4 19.4 9.5 19.3 9.6 C 19.2 9.6 19.1 9.8 19 9.9 Z M 19.9 9.3 C 19.9 9.3 19.88 9.28 19.9 9.3 C 19.8 9.2 19.8 9.2 19.8 9.2 C 19.8 9.1 19.9 9.1 19.9 9 C 20 9 20 9 20 9 C 20.1 9 20.1 9 20.1 9 C 20.1 9 20.1 9 20.2 9 C 20.4 9 20.6 8.9 20.8 8.9 C 21 8.9 21.1 9 21.3 9.1 C 21.4 9.2 21.5 9.3 21.5 9.5 C 21.5 9.6 21.4 9.8 21.3 9.9 C 21.2 10 21 10.1 20.8 10.2 C 21.1 10.5 21.4 10.7 21.6 10.8 C 21.6 10.8 21.7 10.9 21.7 10.9 C 21.7 11 21.6 11 21.6 11 C 21.6 11.1 21.5 11.1 21.5 11.1 C 21.4 11.1 21.4 11.1 21.3 11 C 21.2 11 21.1 10.9 21 10.8 C 20.8 10.7 20.8 10.6 20.7 10.6 C 20.6 10.5 20.4 10.4 20.3 10.3 C 20.2 10.3 20.2 10.3 20.2 10.1 C 20.2 10.1 20.2 10.1 20.3 10 C 20.3 10 20.4 10 20.4 10 C 20.4 10 20.4 10 20.5 10 C 20.5 10 20.5 10 20.5 10 C 20.6 10 20.7 9.9 20.9 9.8 C 21 9.7 21.1 9.6 21.1 9.5 C 21.1 9.4 21.1 9.3 21 9.3 C 20.9 9.2 20.8 9.2 20.7 9.2 C 20.6 9.2 20.5 9.2 20.4 9.2 C 20.3 9.3 20.3 9.3 20.3 9.3 C 20.3 9.3 20.3 9.3 20.3 9.3 C 20.2 9.3 20.2 9.4 20.2 9.6 C 20.2 9.8 20.1 10 20.1 10.2 C 20.1 10.4 20.1 10.6 20.1 10.7 C 20.1 10.7 20.1 10.8 20.1 10.8 C 20.1 10.9 20.1 10.9 20.1 11 C 20.1 11 20.1 11 20 11.1 C 20 11.1 19.9 11.1 19.9 11.1 C 19.8 11.1 19.7 11.1 19.7 10.9 C 19.7 10.7 19.7 10.5 19.7 10.2 C 19.8 10 19.8 9.7 19.9 9.5 C 19.9 9.5 19.9 9.4 19.9 9.4 C 19.88 9.41 19.9 9.3 19.9 9.3 Z M 22.3 10.6 C 22.3 10.6 22.2 10.6 22.2 10.6 C 22.2 10.6 22.1 10.7 22.1 10.9 C 22 11 21.9 11.1 21.9 11.1 C 21.8 11.1 21.8 11.1 21.8 11.1 C 21.8 11.1 21.7 11.1 21.7 11.1 C 21.6 11 21.6 11 21.6 11 C 21.6 10.9 21.7 10.7 22 10.3 C 22.1 10.1 22.2 9.9 22.3 9.7 C 22.5 9.3 22.7 9.1 22.7 9 C 22.8 9 22.8 8.9 22.9 8.9 C 23 8.9 23 8.9 23.1 9 C 23.1 9 23.1 9 23.1 9.1 C 23.1 9.1 23.1 9.2 23.1 9.2 C 23.3 9.7 23.4 10.1 23.5 10.3 C 23.6 10.6 23.7 10.7 23.8 10.8 C 23.8 10.9 23.9 10.9 23.9 10.9 C 23.9 10.9 23.9 11 23.9 11 C 23.9 11.1 23.9 11.1 23.8 11.1 C 23.8 11.2 23.8 11.2 23.7 11.2 C 23.6 11.2 23.6 11.1 23.5 11.1 C 23.4 11 23.3 10.9 23.3 10.7 C 23.2 10.6 23.2 10.5 23.2 10.5 C 23.2 10.5 23.2 10.4 23.2 10.4 C 23.1 10.4 23 10.5 22.8 10.5 C 22.6 10.5 22.5 10.6 22.4 10.6 C 22.3 10.6 22.3 10.6 22.3 10.6 C 22.3 10.6 22.3 10.6 22.3 10.6 Z M 22.9 10.2 C 23 10.2 23 10.2 23 10.2 C 23 10.1 23 9.9 22.8 9.5 C 22.8 9.5 22.8 9.5 22.8 9.5 C 22.8 9.5 22.4 10.3 22.4 10.3 C 22.5 10.3 22.5 10.2 22.6 10.2 C 22.6 10.2 22.7 10.2 22.9 10.2 C 22.9 10.2 22.9 10.2 22.9 10.2 Z M 26.9 9.2 C 27 9.3 27.1 9.4 27.2 9.5 C 27.2 9.7 27.3 9.8 27.3 10 C 27.3 10.1 27.2 10.3 27.1 10.4 C 27 10.6 26.9 10.7 26.7 10.9 C 26.9 11.1 27 11.2 27.1 11.3 C 27.1 11.3 27.1 11.4 27.1 11.4 C 27.1 11.4 27.1 11.4 27 11.5 C 27 11.5 26.9 11.6 26.9 11.6 C 26.8 11.6 26.8 11.5 26.8 11.5 C 26.7 11.4 26.7 11.3 26.6 11.2 C 26.5 11.1 26.4 11 26.4 11 C 26.4 11 26.4 11 26.4 11 C 26.2 11.1 26.1 11.1 25.9 11.1 C 25.7 11.1 25.5 11 25.4 10.9 C 25.2 10.8 25.2 10.7 25.2 10.5 C 25.2 10.2 25.2 10 25.4 9.8 C 25.5 9.5 25.7 9.3 26 9.1 C 26.2 9 26.4 8.9 26.6 8.9 C 26.7 8.9 26.7 8.9 26.8 9 C 26.8 9 26.9 9.1 26.9 9.2 Z M 25.9 10.8 C 26 10.8 26.1 10.8 26.2 10.8 C 26.2 10.7 26.2 10.7 26.1 10.7 C 26.1 10.6 26 10.5 26 10.5 C 26 10.5 26 10.5 26.1 10.4 C 26.2 10.4 26.2 10.3 26.3 10.3 C 26.4 10.3 26.4 10.4 26.4 10.4 C 26.4 10.5 26.4 10.5 26.5 10.6 C 26.5 10.6 26.5 10.6 26.5 10.6 C 26.6 10.6 26.7 10.6 26.8 10.4 C 26.9 10.3 26.9 10.1 26.9 10 C 26.9 9.8 26.9 9.6 26.8 9.5 C 26.6 9.3 26.5 9.2 26.5 9.2 C 26.4 9.2 26.2 9.3 26.1 9.4 C 25.9 9.6 25.8 9.7 25.7 9.9 C 25.6 10.1 25.5 10.3 25.5 10.4 C 25.5 10.6 25.6 10.6 25.6 10.7 C 25.7 10.8 25.8 10.8 25.9 10.8 C 25.9 10.8 25.9 10.8 25.9 10.8 Z M 28.4 11.2 C 28.3 11.2 28.2 11.1 28.1 11.1 C 27.9 11 27.8 10.9 27.7 10.7 C 27.7 10.6 27.6 10.4 27.6 10.2 C 27.6 10.1 27.6 10 27.7 9.9 C 27.7 9.9 27.7 9.6 27.7 9.6 C 27.7 9.5 27.7 9.5 27.7 9.5 C 27.7 9.4 27.8 9.3 27.8 9.3 C 27.8 9.2 27.8 9.1 27.8 9 C 27.9 9 27.9 8.9 28 8.9 C 28 8.9 28.1 9 28.1 9 C 28.1 9.1 28.2 9.1 28.2 9.2 C 28.2 9.2 28.1 9.3 28.1 9.5 C 28.1 9.5 28.1 9.6 28 9.8 C 28 10 28 10.1 28 10.2 C 28 10.5 28 10.6 28.1 10.7 C 28.3 10.8 28.3 10.9 28.4 10.9 C 28.7 10.9 28.8 10.8 28.9 10.7 C 29 10.6 29.1 10.4 29.1 10.2 C 29.1 10.1 29.1 10.1 29.1 10 C 29.1 9.9 29.2 9.9 29.2 9.8 C 29.2 9.4 29.2 9.2 29.3 9.1 C 29.3 9 29.4 9 29.5 9 C 29.6 9 29.6 9.1 29.6 9.2 C 29.6 9.3 29.6 9.4 29.5 9.6 C 29.5 9.7 29.5 9.9 29.5 10 C 29.5 10.3 29.4 10.5 29.4 10.6 C 29.3 10.8 29.2 10.9 29 11 C 28.9 11.1 28.7 11.2 28.4 11.2 Z M 30.3 10.6 C 30.3 10.6 30.2 10.6 30.2 10.6 C 30.2 10.6 30.1 10.7 30.1 10.9 C 30 11 29.9 11.1 29.9 11.1 C 29.8 11.1 29.8 11.1 29.8 11.1 C 29.8 11.1 29.7 11.1 29.7 11.1 C 29.6 11 29.6 11 29.6 11 C 29.6 10.9 29.7 10.7 30 10.3 C 30.1 10.1 30.2 9.9 30.3 9.7 C 30.5 9.3 30.7 9.1 30.7 9 C 30.8 9 30.8 8.9 30.9 8.9 C 31 8.9 31 8.9 31.1 9 C 31.1 9 31.1 9 31.1 9.1 C 31.1 9.1 31.1 9.2 31.1 9.2 C 31.3 9.7 31.4 10.1 31.5 10.3 C 31.6 10.6 31.7 10.7 31.8 10.8 C 31.9 10.9 31.9 10.9 31.9 10.9 C 31.9 10.9 31.9 11 31.9 11 C 31.9 11.1 31.9 11.1 31.9 11.1 C 31.8 11.2 31.8 11.2 31.7 11.2 C 31.6 11.2 31.6 11.1 31.5 11.1 C 31.4 11 31.3 10.9 31.3 10.7 C 31.2 10.6 31.2 10.5 31.2 10.5 C 31.2 10.5 31.2 10.4 31.2 10.4 C 31.1 10.4 31 10.5 30.8 10.5 C 30.6 10.5 30.5 10.6 30.4 10.6 C 30.3 10.6 30.3 10.6 30.3 10.6 C 30.3 10.6 30.3 10.6 30.3 10.6 Z M 30.9 10.2 C 31 10.2 31 10.2 31.1 10.2 C 31 10.1 31 9.9 30.8 9.5 C 30.8 9.5 30.8 9.5 30.8 9.5 C 30.8 9.5 30.4 10.3 30.4 10.3 C 30.5 10.3 30.5 10.2 30.6 10.2 C 30.6 10.2 30.7 10.2 30.9 10.2 C 30.9 10.2 30.9 10.2 30.9 10.2 Z M 33.7 9.2 C 33.7 9.4 33.6 9.5 33.4 9.5 C 33.4 9.4 33.4 9.3 33.4 9.3 C 33.3 9.3 33.2 9.2 33.1 9.2 C 33 9.2 32.8 9.3 32.7 9.4 C 32.5 9.4 32.5 9.5 32.5 9.6 C 32.5 9.7 32.5 9.7 32.5 9.8 C 32.6 9.8 32.7 9.9 33 9.9 C 33.2 10 33.4 10.1 33.5 10.2 C 33.6 10.2 33.6 10.3 33.6 10.5 C 33.6 10.6 33.5 10.8 33.2 11 C 32.9 11.1 32.6 11.2 32.3 11.2 C 32.2 11.2 32.1 11.2 32.1 11.2 C 32 11.1 32 11.1 32 11 C 32 10.9 32 10.9 32 10.9 C 32.1 10.8 32.1 10.8 32.1 10.8 C 32.2 10.8 32.2 10.8 32.2 10.8 C 32.3 10.9 32.4 10.9 32.5 10.9 C 32.6 10.9 32.8 10.8 33 10.7 C 33.2 10.7 33.3 10.6 33.3 10.5 C 33.3 10.5 33.3 10.4 33.2 10.4 C 33.2 10.4 33.1 10.3 32.9 10.3 C 32.7 10.2 32.5 10.1 32.4 10.1 C 32.3 10.1 32.3 10 32.2 9.9 C 32.1 9.9 32.1 9.8 32.1 9.7 C 32.1 9.5 32.2 9.3 32.4 9.2 C 32.6 9 32.9 8.9 33.2 8.9 C 33.3 8.9 33.5 9 33.6 9 C 33.7 9.1 33.7 9.2 33.7 9.2 C 33.7 9.2 33.7 9.2 33.7 9.2 Z M 35.6 9.3 C 35.6 9.3 35.2 9.3 35.2 9.3 C 35 9.3 34.9 9.3 34.8 9.3 C 34.6 9.3 34.6 9.4 34.6 9.4 C 34.6 9.4 34.6 9.4 34.5 9.5 C 34.5 9.5 34.5 9.6 34.5 9.7 C 34.5 9.8 34.5 9.9 34.4 9.9 C 34.5 9.9 34.6 9.9 34.7 9.9 C 34.8 9.9 34.9 9.9 35 9.9 C 35.1 9.9 35.2 9.8 35.3 9.8 C 35.4 9.8 35.5 9.9 35.5 10 C 35.5 10 35.5 10.1 35.5 10.1 C 35.4 10.1 35.4 10.2 35.3 10.2 C 35.2 10.2 35.1 10.2 35.1 10.2 C 35 10.2 35 10.2 34.9 10.2 C 34.7 10.2 34.5 10.3 34.5 10.3 C 34.5 10.3 34.4 10.3 34.4 10.3 C 34.4 10.3 34.4 10.3 34.4 10.3 C 34.4 10.3 34.4 10.4 34.4 10.5 C 34.3 10.7 34.3 10.8 34.3 10.8 C 34.3 10.8 34.4 10.9 34.4 10.9 C 34.4 10.9 34.6 10.8 34.8 10.8 C 35 10.8 35.1 10.8 35.1 10.8 C 35.3 10.7 35.4 10.7 35.4 10.7 C 35.5 10.7 35.6 10.8 35.6 10.9 C 35.6 10.9 35.6 11 35.5 11 C 35.5 11 35.3 11.1 35.1 11.1 C 35 11.1 34.8 11.1 34.7 11.1 C 34.5 11.2 34.3 11.2 34.2 11.2 C 34.1 11.2 34 11.2 34 11.1 C 34 11.1 33.9 11 33.9 11 C 33.9 11 33.9 10.9 33.9 10.9 C 33.9 10.9 33.9 10.9 34 10.8 C 34 10.7 34 10.5 34.1 10 C 34.2 9.6 34.2 9.4 34.2 9.3 C 34.2 9.3 34.2 9.3 34.2 9.3 C 34.2 9.3 34.2 9.3 34.1 9.3 C 34.1 9.2 34.1 9.2 34.1 9.2 C 34.1 9.2 34.1 9.1 34.1 9.1 C 34.1 9.1 34.2 9.1 34.2 9.1 C 34.2 9.1 34.3 9 34.3 9 C 34.3 9 34.4 9 34.4 9.1 C 34.5 9.1 34.8 9 35.2 9 C 35.4 8.9 35.5 8.9 35.5 8.9 C 35.5 8.9 35.5 8.9 35.5 8.9 C 35.7 8.9 35.7 9 35.7 9.1 C 35.7 9.1 35.7 9.2 35.7 9.2 C 35.7 9.2 35.6 9.2 35.6 9.3 Z M 37.1 10.6 C 37.1 10.6 37.22 10.1 37.2 10.1 C 37.3 9.7 37.3 9.4 37.4 9.3 C 37.4 9.2 37.4 9.2 37.4 9.1 C 37.4 9.1 37.4 9.1 37.4 9.1 C 37.5 9 37.5 9 37.6 9 C 37.6 9 37.6 9 37.7 9 C 37.7 9.1 37.7 9.1 37.8 9.2 C 37.8 9.4 37.9 9.6 38.1 9.9 C 38.3 10.2 38.4 10.4 38.5 10.6 C 38.6 10.4 38.6 10.2 38.7 9.9 C 38.7 9.7 38.7 9.6 38.8 9.4 C 38.8 9.3 38.8 9.2 38.8 9.1 C 38.8 9 38.8 9 38.9 8.9 C 38.9 8.9 39 8.9 39 8.9 C 39.1 8.9 39.1 8.9 39.1 9 C 39.1 9 39.2 9.1 39.2 9.1 C 39.2 9.2 39.1 9.3 39.1 9.4 C 39.1 9.6 39 9.9 38.9 10.2 C 38.9 10.6 38.8 10.8 38.8 10.8 C 38.8 10.8 38.8 10.9 38.8 10.9 C 38.8 10.9 38.8 11 38.8 11 C 38.8 11 38.8 11.1 38.8 11.1 C 38.7 11.1 38.7 11.1 38.6 11.1 C 38.6 11.1 38.6 11.1 38.5 11.1 C 38.5 11.1 38.5 11.1 38.5 11 C 38.4 11 38.4 11 38.4 10.9 C 38.3 10.8 38.3 10.8 38.3 10.7 C 38 10.5 37.8 10.1 37.6 9.7 C 37.6 9.8 37.5 10.1 37.5 10.6 C 37.5 10.6 37.5 10.7 37.5 10.7 C 37.4 10.7 37.4 10.8 37.4 10.9 C 37.4 11 37.4 11.1 37.4 11.1 C 37.3 11.2 37.3 11.2 37.2 11.2 C 37.2 11.2 37.1 11.2 37.1 11.1 C 37.1 11.1 37.1 11 37.1 10.9 C 37.1 10.9 37.1 10.7 37.1 10.6 C 37.12 10.6 37.1 10.6 37.1 10.6 Z M 39.9 10.6 C 39.9 10.6 39.8 10.6 39.8 10.6 C 39.8 10.6 39.7 10.7 39.7 10.9 C 39.6 11 39.5 11.1 39.5 11.1 C 39.4 11.1 39.4 11.1 39.4 11.1 C 39.4 11.1 39.3 11.1 39.3 11.1 C 39.2 11 39.2 11 39.2 11 C 39.2 10.9 39.3 10.7 39.6 10.3 C 39.7 10.1 39.8 9.9 39.9 9.7 C 40.1 9.3 40.3 9.1 40.3 9 C 40.4 9 40.4 8.9 40.5 8.9 C 40.6 8.9 40.6 8.9 40.7 9 C 40.7 9 40.7 9 40.7 9.1 C 40.7 9.1 40.7 9.2 40.7 9.2 C 40.9 9.7 41 10.1 41.1 10.3 C 41.2 10.6 41.3 10.7 41.4 10.8 C 41.5 10.9 41.5 10.9 41.5 10.9 C 41.5 10.9 41.5 11 41.5 11 C 41.5 11.1 41.5 11.1 41.5 11.1 C 41.4 11.2 41.4 11.2 41.3 11.2 C 41.2 11.2 41.2 11.1 41.1 11.1 C 41 11 40.9 10.9 40.9 10.7 C 40.8 10.6 40.8 10.5 40.8 10.5 C 40.8 10.5 40.8 10.4 40.8 10.4 C 40.7 10.4 40.6 10.5 40.4 10.5 C 40.2 10.5 40.1 10.6 40 10.6 C 39.9 10.6 39.9 10.6 39.9 10.6 C 39.9 10.6 39.9 10.6 39.9 10.6 Z M 40.5 10.2 C 40.6 10.2 40.6 10.2 40.7 10.2 C 40.6 10.1 40.6 9.9 40.4 9.5 C 40.4 9.5 40.4 9.5 40.4 9.5 C 40.4 9.5 40 10.3 40 10.3 C 40.1 10.3 40.1 10.2 40.2 10.2 C 40.2 10.2 40.3 10.2 40.5 10.2 C 40.5 10.2 40.5 10.2 40.5 10.2 Z M 41.8 10.8 C 41.8 10.8 41.8 10.7 41.8 10.6 C 41.8 10.2 41.9 9.9 41.9 9.5 C 41.9 9.4 41.9 9.4 41.9 9.3 C 41.9 9.3 41.9 9.3 41.9 9.3 C 41.8 9.3 41.8 9.2 41.8 9.2 C 41.8 9.1 41.8 9.1 41.8 9 C 41.9 9 41.9 9 42 9 C 42 9 42.2 9 42.2 9 C 42.2 9 42.4 9 42.5 9 C 42.7 8.9 42.8 8.9 42.9 8.9 C 43.1 8.9 43.3 9 43.5 9.2 C 43.7 9.3 43.8 9.5 43.8 9.8 C 43.8 10.1 43.6 10.3 43.4 10.5 C 43.1 10.8 42.8 10.9 42.4 11 C 42.3 11 42.3 11 42.2 11.1 C 42.2 11.1 42.1 11.1 42.1 11.1 C 42 11.2 42 11.2 41.9 11.2 C 41.8 11.2 41.8 11.2 41.8 11.1 C 41.7 11.1 41.7 11 41.7 11 C 41.7 11 41.7 11 41.7 10.9 C 41.7 10.9 41.8 10.8 41.8 10.8 Z M 42.1 10.7 C 42.1 10.7 42.1 10.7 42.1 10.8 C 42.2 10.8 42.3 10.7 42.6 10.7 C 42.8 10.6 43 10.5 43.2 10.3 C 43.3 10.1 43.4 10 43.4 9.8 C 43.4 9.6 43.4 9.5 43.2 9.4 C 43.1 9.3 43 9.2 42.8 9.2 C 42.7 9.2 42.5 9.2 42.4 9.3 C 42.3 9.3 42.3 9.3 42.3 9.3 C 42.2 9.9 42.1 10.4 42.1 10.7 C 42.1 10.7 42.1 10.7 42.1 10.7 Z M 44.4 10.6 C 44.3 10.6 44.3 10.6 44.3 10.6 C 44.3 10.6 44.2 10.7 44.1 10.9 C 44 11 44 11.1 43.9 11.1 C 43.9 11.1 43.9 11.1 43.9 11.1 C 43.8 11.1 43.8 11.1 43.7 11.1 C 43.7 11 43.7 11 43.7 11 C 43.7 10.9 43.8 10.7 44 10.3 C 44.2 10.1 44.3 9.9 44.4 9.7 C 44.6 9.3 44.7 9.1 44.8 9 C 44.8 9 44.9 8.9 44.9 8.9 C 45 8.9 45.1 8.9 45.1 9 C 45.1 9 45.2 9 45.2 9.1 C 45.2 9.1 45.2 9.2 45.1 9.2 C 45.3 9.7 45.5 10.1 45.6 10.3 C 45.7 10.6 45.8 10.7 45.9 10.8 C 45.9 10.9 46 10.9 46 10.9 C 46 10.9 46 11 46 11 C 46 11.1 46 11.1 45.9 11.1 C 45.9 11.2 45.8 11.2 45.8 11.2 C 45.7 11.2 45.6 11.1 45.6 11.1 C 45.5 11 45.4 10.9 45.3 10.7 C 45.3 10.6 45.2 10.5 45.2 10.5 C 45.2 10.5 45.2 10.4 45.2 10.4 C 45.2 10.4 45.1 10.5 44.9 10.5 C 44.7 10.5 44.5 10.6 44.4 10.6 C 44.4 10.6 44.4 10.6 44.4 10.6 C 44.4 10.6 44.4 10.6 44.4 10.6 Z M 45 10.2 C 45 10.2 45.1 10.2 45.1 10.2 C 45.1 10.1 45 9.9 44.9 9.5 C 44.9 9.5 44.9 9.5 44.9 9.5 C 44.9 9.5 44.5 10.3 44.5 10.3 C 44.5 10.3 44.6 10.2 44.7 10.2 C 44.7 10.2 44.8 10.2 45 10.2 C 45 10.2 45 10.2 45 10.2 Z M 47.3 10.6 C 47.3 10.6 47.46 10.1 47.5 10.1 C 47.5 9.7 47.6 9.4 47.6 9.3 C 47.6 9.2 47.6 9.2 47.6 9.1 C 47.6 9.1 47.6 9.1 47.7 9.1 C 47.7 9 47.7 9 47.8 9 C 47.8 9 47.9 9 47.9 9 C 47.9 9.1 48 9.1 48 9.2 C 48 9.4 48.1 9.6 48.3 9.9 C 48.5 10.2 48.6 10.4 48.8 10.6 C 48.8 10.4 48.9 10.2 48.9 9.9 C 48.9 9.7 49 9.6 49 9.4 C 49 9.3 49 9.2 49 9.1 C 49 9 49.1 9 49.1 8.9 C 49.1 8.9 49.2 8.9 49.2 8.9 C 49.3 8.9 49.3 8.9 49.3 9 C 49.4 9 49.4 9.1 49.4 9.1 C 49.4 9.2 49.4 9.3 49.3 9.4 C 49.3 9.6 49.2 9.9 49.2 10.2 C 49.1 10.6 49.1 10.8 49.1 10.8 C 49.1 10.8 49.1 10.9 49.1 10.9 C 49.1 10.9 49.1 11 49.1 11 C 49.1 11 49 11.1 49 11.1 C 49 11.1 48.9 11.1 48.8 11.1 C 48.8 11.1 48.8 11.1 48.8 11.1 C 48.8 11.1 48.7 11.1 48.7 11 C 48.7 11 48.6 11 48.6 10.9 C 48.6 10.8 48.5 10.8 48.5 10.7 C 48.3 10.5 48.1 10.1 47.8 9.7 C 47.8 9.8 47.8 10.1 47.7 10.6 C 47.7 10.6 47.7 10.7 47.7 10.7 C 47.7 10.7 47.7 10.8 47.7 10.9 C 47.7 11 47.6 11.1 47.6 11.1 C 47.5 11.2 47.5 11.2 47.5 11.2 C 47.4 11.2 47.4 11.2 47.3 11.1 C 47.3 11.1 47.3 11 47.3 10.9 C 47.3 10.9 47.3 10.7 47.3 10.6 C 47.35 10.6 47.3 10.6 47.3 10.6 Z M 50.2 11.2 C 50.1 11.2 49.9 11.1 49.8 10.9 C 49.7 10.8 49.6 10.6 49.6 10.4 C 49.6 10.2 49.7 10 49.8 9.8 C 49.9 9.5 50.1 9.3 50.3 9.2 C 50.4 9 50.6 8.9 50.9 8.9 C 51 8.9 51.2 9 51.3 9 C 51.4 9 51.5 9.1 51.6 9.2 C 51.6 9.2 51.7 9.3 51.7 9.4 C 51.8 9.5 51.8 9.6 51.8 9.7 C 51.8 9.9 51.7 10 51.7 10.2 C 51.6 10.4 51.5 10.5 51.3 10.7 C 51.2 10.8 51 11 50.8 11 C 50.7 11.1 50.5 11.2 50.2 11.2 Z M 50 10.4 C 50 10.6 50 10.7 50.1 10.7 C 50.1 10.8 50.2 10.9 50.3 10.9 C 50.6 10.9 50.8 10.7 51.1 10.5 C 51.3 10.2 51.4 10 51.4 9.7 C 51.4 9.6 51.4 9.5 51.3 9.4 C 51.3 9.4 51.2 9.3 51.2 9.3 C 51.1 9.2 51 9.2 50.9 9.2 C 50.7 9.2 50.5 9.4 50.3 9.6 C 50.1 9.9 50 10.2 50 10.4 Z M 54.7 9.2 C 54.7 9.3 54.7 9.3 54.6 9.3 C 54.6 9.3 54.6 9.3 54.6 9.3 C 54.6 9.3 54.5 9.3 54.5 9.3 C 54.4 9.3 54.2 9.3 54.1 9.3 C 53.9 9.3 53.8 9.3 53.7 9.3 C 53.7 9.5 53.6 9.8 53.6 10 C 53.7 10 53.7 10 53.7 10 C 53.9 10 54 10 54.2 9.9 C 54.3 9.9 54.4 9.9 54.4 9.9 C 54.6 9.9 54.7 10 54.7 10.1 C 54.7 10.1 54.6 10.1 54.6 10.1 C 54.6 10.2 54.6 10.2 54.5 10.2 C 54.5 10.2 54.4 10.2 54.3 10.2 C 54.3 10.2 53.9 10.3 53.9 10.3 C 53.8 10.3 53.7 10.3 53.6 10.3 C 53.6 10.3 53.6 10.4 53.6 10.4 C 53.6 10.4 53.6 10.4 53.6 10.5 C 53.6 10.7 53.5 10.8 53.5 10.8 C 53.5 10.8 53.6 11 53.6 11 C 53.6 11.1 53.5 11.2 53.4 11.2 C 53.3 11.2 53.3 11.2 53.2 11.1 C 53.2 11.1 53.2 11 53.2 11 C 53.2 10.8 53.2 10.7 53.2 10.4 C 53.2 10.4 53.3 10.1 53.4 9.3 C 53.4 9.3 53.4 9.3 53.3 9.3 C 53.3 9.2 53.3 9.2 53.3 9.2 C 53.3 9.1 53.3 9.1 53.4 9.1 C 53.4 9 53.5 9 53.5 9 C 53.5 9 53.5 9 53.6 9 C 53.6 9 53.6 9 53.7 9 C 53.7 9 53.9 9 54.2 9 C 54.3 8.9 54.5 8.9 54.6 8.9 C 54.6 8.9 54.7 9 54.8 9 C 54.8 9 54.8 9 54.8 9.1 C 54.8 9.1 54.8 9.2 54.7 9.2 C 54.7 9.2 54.7 9.2 54.7 9.2 Z M 55.4 9.6 C 55.3 9.7 55.3 9.8 55.3 9.8 C 55.3 9.9 55.3 9.9 55.3 10.1 C 55.3 10.3 55.3 10.4 55.3 10.5 C 55.3 10.6 55.3 10.7 55.3 10.9 C 55.3 11 55.3 11 55.2 11.1 C 55.2 11.1 55.1 11.1 55.1 11.1 C 55 11.1 55 11.1 54.9 11 C 54.9 11 54.9 10.9 54.9 10.7 C 54.9 10.6 54.9 10.4 55 10.1 C 55 10.1 55 9.5 55 9.5 C 55 9.4 55.1 9.3 55.1 9.3 C 55.1 9.1 55.1 9.1 55.1 9.1 C 55.1 9 55.2 9 55.2 9 C 55.2 9 55.3 8.9 55.3 8.9 C 55.4 8.9 55.4 9 55.4 9 C 55.5 9.1 55.5 9.1 55.5 9.2 C 55.5 9.2 55.4 9.6 55.4 9.6 Z M 57.8 9.6 C 57.8 9.5 57.8 9.5 57.8 9.5 C 57.8 9.5 57.3 10.1 57.3 10.1 C 57.1 10.4 56.9 10.6 56.8 10.6 C 56.7 10.6 56.7 10.6 56.6 10.5 C 56.6 10.4 56.6 10.3 56.5 10.2 C 56.5 10.1 56.4 10 56.4 9.9 C 56.4 9.7 56.3 9.6 56.3 9.6 C 56.3 9.6 56.3 10 56.3 10 C 56.2 10.1 56.2 10.2 56.2 10.3 C 56.2 10.5 56.1 10.6 56.1 10.7 C 56.1 10.9 56.1 11 56 11 C 56 11.1 56 11.1 56 11.1 C 55.9 11.2 55.9 11.2 55.9 11.2 C 55.8 11.2 55.8 11.1 55.7 11.1 C 55.7 11.1 55.7 11 55.7 11 C 55.7 10.9 55.7 10.8 55.7 10.6 C 55.9 10 56 9.7 56 9.5 C 56 9.3 56.1 9.2 56.1 9.1 C 56.1 9.1 56.1 9 56.1 9 C 56.2 9 56.2 9 56.3 9 C 56.3 9 56.4 9 56.4 9 C 56.5 9.1 56.5 9.1 56.5 9.2 C 56.5 9.18 56.5 9.2 56.5 9.2 C 56.5 9.2 56.7 9.75 56.7 9.7 C 56.8 10 56.8 10.1 56.9 10.2 C 57 10.1 57.1 9.9 57.3 9.6 C 57.5 9.3 57.7 9.1 57.8 9 C 57.8 9 57.9 8.9 57.9 8.9 C 58 8.9 58 8.9 58.1 9 C 58.1 9 58.2 9.1 58.2 9.1 C 58.2 9.1 58.1 9.3 58.1 9.5 C 58.1 9.7 58.1 9.9 58 10.2 C 58 10.4 58 10.5 58 10.6 C 58 10.6 58 10.7 58 10.8 C 58 10.8 58 10.8 58 10.9 C 58 11 58 11 58 11.1 C 58 11.1 57.9 11.1 57.8 11.1 C 57.7 11.1 57.6 11 57.6 10.8 C 57.6 10.7 57.7 10.4 57.7 10.2 C 57.7 9.9 57.8 9.7 57.8 9.6 C 57.8 9.6 57.8 9.6 57.8 9.6 Z M 59.7 10.8 C 59.7 10.8 59.7 10.7 59.8 10.6 C 59.8 10.2 59.8 9.9 59.9 9.5 C 59.9 9.4 59.9 9.4 59.9 9.3 C 59.9 9.3 59.9 9.3 59.9 9.3 C 59.8 9.3 59.7 9.2 59.7 9.2 C 59.7 9.1 59.7 9.1 59.8 9 C 59.8 9 59.9 9 59.9 9 C 59.9 9 60.1 9 60.1 9 C 60.2 9 60.3 9 60.5 9 C 60.6 8.9 60.7 8.9 60.8 8.9 C 61.1 8.9 61.3 9 61.5 9.2 C 61.6 9.3 61.7 9.5 61.7 9.8 C 61.7 10.1 61.6 10.3 61.3 10.5 C 61.1 10.8 60.8 10.9 60.4 11 C 60.3 11 60.2 11 60.2 11.1 C 60.1 11.1 60.1 11.1 60 11.1 C 60 11.2 59.9 11.2 59.9 11.2 C 59.8 11.2 59.8 11.2 59.7 11.1 C 59.7 11.1 59.7 11 59.7 11 C 59.7 11 59.7 11 59.7 10.9 C 59.7 10.9 59.7 10.8 59.7 10.8 Z M 60.1 10.7 C 60.1 10.7 60.1 10.7 60.1 10.8 C 60.2 10.8 60.3 10.7 60.6 10.7 C 60.8 10.6 61 10.5 61.1 10.3 C 61.3 10.1 61.4 10 61.4 9.8 C 61.4 9.6 61.3 9.5 61.2 9.4 C 61.1 9.3 60.9 9.2 60.8 9.2 C 60.6 9.2 60.5 9.2 60.3 9.3 C 60.3 9.3 60.3 9.3 60.3 9.3 C 60.2 9.9 60.1 10.4 60.1 10.7 C 60.1 10.7 60.1 10.7 60.1 10.7 Z M 62.5 11.2 C 62.4 11.2 62.2 11.1 62.1 10.9 C 62 10.8 61.9 10.6 61.9 10.4 C 61.9 10.2 62 10 62.1 9.8 C 62.2 9.5 62.4 9.3 62.6 9.2 C 62.8 9 63 8.9 63.2 8.9 C 63.3 8.9 63.5 9 63.6 9 C 63.7 9 63.8 9.1 63.9 9.2 C 64 9.2 64 9.3 64 9.4 C 64.1 9.5 64.1 9.6 64.1 9.7 C 64.1 9.9 64 10 64 10.2 C 63.9 10.4 63.8 10.5 63.6 10.7 C 63.5 10.8 63.3 11 63.2 11 C 63 11.1 62.8 11.2 62.5 11.2 Z M 62.3 10.4 C 62.3 10.6 62.3 10.7 62.4 10.7 C 62.5 10.8 62.5 10.9 62.6 10.9 C 62.9 10.9 63.1 10.7 63.4 10.5 C 63.6 10.2 63.7 10 63.7 9.7 C 63.7 9.6 63.7 9.5 63.7 9.4 C 63.6 9.4 63.6 9.3 63.5 9.3 C 63.4 9.2 63.3 9.2 63.2 9.2 C 63 9.2 62.8 9.4 62.6 9.6 C 62.4 9.9 62.3 10.2 62.3 10.4 Z M 67.5 9.6 C 67.5 9.5 67.5 9.5 67.5 9.5 C 67.5 9.5 67 10.1 67 10.1 C 66.8 10.4 66.6 10.6 66.5 10.6 C 66.5 10.6 66.4 10.6 66.4 10.5 C 66.3 10.4 66.3 10.3 66.2 10.2 C 66.2 10.1 66.1 10 66.1 9.9 C 66.1 9.7 66.1 9.6 66 9.6 C 66 9.6 66 10 66 10 C 65.9 10.1 65.9 10.2 65.9 10.3 C 65.9 10.5 65.8 10.6 65.8 10.7 C 65.8 10.9 65.8 11 65.8 11 C 65.8 11.1 65.7 11.1 65.7 11.1 C 65.6 11.2 65.6 11.2 65.6 11.2 C 65.5 11.2 65.5 11.1 65.5 11.1 C 65.4 11.1 65.4 11 65.4 11 C 65.4 10.9 65.4 10.8 65.5 10.6 C 65.6 10 65.7 9.7 65.7 9.5 C 65.8 9.3 65.8 9.2 65.8 9.1 C 65.8 9.1 65.8 9 65.8 9 C 65.9 9 65.9 9 66 9 C 66.1 9 66.1 9 66.1 9 C 66.2 9.1 66.2 9.1 66.2 9.2 C 66.22 9.18 66.2 9.2 66.2 9.2 C 66.2 9.2 66.42 9.75 66.4 9.7 C 66.5 10 66.6 10.1 66.6 10.2 C 66.7 10.1 66.8 9.9 67 9.6 C 67.3 9.3 67.4 9.1 67.5 9 C 67.6 9 67.6 8.9 67.6 8.9 C 67.7 8.9 67.7 8.9 67.8 9 C 67.9 9 67.9 9.1 67.9 9.1 C 67.9 9.1 67.9 9.3 67.8 9.5 C 67.8 9.7 67.8 9.9 67.8 10.2 C 67.7 10.4 67.7 10.5 67.7 10.6 C 67.7 10.6 67.7 10.7 67.7 10.8 C 67.8 10.8 67.8 10.8 67.8 10.9 C 67.8 11 67.7 11 67.7 11.1 C 67.7 11.1 67.6 11.1 67.6 11.1 C 67.4 11.1 67.4 11 67.4 10.8 C 67.4 10.7 67.4 10.4 67.4 10.2 C 67.4 9.9 67.5 9.7 67.5 9.6 C 67.5 9.6 67.5 9.6 67.5 9.6 Z M 69.9 9.3 C 69.9 9.3 69.4 9.3 69.4 9.3 C 69.3 9.3 69.1 9.3 69 9.3 C 68.9 9.3 68.9 9.4 68.9 9.4 C 68.8 9.4 68.8 9.4 68.8 9.5 C 68.8 9.5 68.8 9.6 68.8 9.7 C 68.8 9.8 68.7 9.9 68.7 9.9 C 68.8 9.9 68.9 9.9 69 9.9 C 69.1 9.9 69.2 9.9 69.3 9.9 C 69.4 9.9 69.5 9.8 69.6 9.8 C 69.7 9.8 69.8 9.9 69.8 10 C 69.8 10 69.8 10.1 69.7 10.1 C 69.7 10.1 69.6 10.2 69.5 10.2 C 69.5 10.2 69.4 10.2 69.4 10.2 C 69.3 10.2 69.3 10.2 69.2 10.2 C 68.9 10.2 68.8 10.3 68.7 10.3 C 68.7 10.3 68.7 10.3 68.7 10.3 C 68.7 10.3 68.7 10.3 68.7 10.3 C 68.7 10.3 68.7 10.4 68.7 10.5 C 68.6 10.7 68.6 10.8 68.6 10.8 C 68.6 10.8 68.6 10.9 68.7 10.9 C 68.7 10.9 68.9 10.8 69.1 10.8 C 69.3 10.8 69.4 10.8 69.4 10.8 C 69.6 10.7 69.6 10.7 69.7 10.7 C 69.8 10.7 69.9 10.8 69.9 10.9 C 69.9 10.9 69.9 11 69.8 11 C 69.7 11 69.6 11.1 69.4 11.1 C 69.3 11.1 69.1 11.1 68.9 11.1 C 68.8 11.2 68.6 11.2 68.5 11.2 C 68.4 11.2 68.3 11.2 68.3 11.1 C 68.3 11.1 68.2 11 68.2 11 C 68.2 11 68.2 10.9 68.2 10.9 C 68.2 10.9 68.2 10.9 68.2 10.8 C 68.3 10.7 68.3 10.5 68.4 10 C 68.4 9.6 68.5 9.4 68.5 9.3 C 68.5 9.3 68.5 9.3 68.5 9.3 C 68.5 9.3 68.4 9.3 68.4 9.3 C 68.4 9.2 68.4 9.2 68.4 9.2 C 68.4 9.2 68.4 9.1 68.4 9.1 C 68.4 9.1 68.4 9.1 68.5 9.1 C 68.5 9.1 68.6 9 68.6 9 C 68.6 9 68.7 9 68.7 9.1 C 68.8 9.1 69.1 9 69.5 9 C 69.7 8.9 69.7 8.9 69.7 8.9 C 69.7 8.9 69.8 8.9 69.8 8.9 C 69.9 8.9 70 9 70 9.1 C 70 9.1 70 9.2 70 9.2 C 70 9.2 69.9 9.2 69.9 9.3 Z M 69.5 8.4 C 69.4 8.4 69.4 8.3 69.4 8.2 C 69.3 8.3 69.3 8.3 69.3 8.3 C 69.2 8.4 69.2 8.4 69.2 8.4 C 69.2 8.4 69.2 8.4 69.2 8.4 C 69.2 8.4 69.2 8.4 69.1 8.5 C 69.1 8.5 69 8.6 69 8.6 C 68.9 8.7 68.9 8.7 68.8 8.7 C 68.8 8.7 68.8 8.7 68.8 8.7 C 68.8 8.7 68.7 8.6 68.7 8.5 C 68.7 8.5 68.8 8.4 68.8 8.4 C 68.8 8.4 68.9 8.4 68.9 8.4 C 68.9 8.4 69 8.2 69 8.2 C 69 8.2 69.1 8.1 69.2 8.1 C 69.3 7.9 69.3 7.9 69.4 7.9 C 69.5 7.9 69.6 8 69.6 8.1 C 69.7 8.2 69.7 8.2 69.7 8.3 C 69.7 8.3 69.7 8.3 69.8 8.3 C 69.8 8.4 69.8 8.4 69.9 8.5 C 69.9 8.5 69.9 8.5 69.9 8.5 C 70 8.6 70 8.6 70 8.6 C 70 8.6 69.9 8.7 69.9 8.7 C 69.9 8.7 69.9 8.7 69.8 8.7 C 69.7 8.7 69.7 8.7 69.6 8.6 C 69.6 8.5 69.6 8.5 69.5 8.4 C 69.5 8.4 69.5 8.4 69.5 8.4 Z M 71.8 9.2 C 71.8 9.4 71.7 9.5 71.6 9.5 C 71.6 9.4 71.5 9.3 71.5 9.3 C 71.4 9.3 71.4 9.2 71.3 9.2 C 71.1 9.2 70.9 9.3 70.8 9.4 C 70.7 9.4 70.6 9.5 70.6 9.6 C 70.6 9.7 70.6 9.7 70.7 9.8 C 70.7 9.8 70.9 9.9 71.1 9.9 C 71.3 10 71.5 10.1 71.6 10.2 C 71.7 10.2 71.8 10.3 71.8 10.5 C 71.8 10.6 71.6 10.8 71.3 11 C 71.1 11.1 70.8 11.2 70.4 11.2 C 70.3 11.2 70.3 11.2 70.2 11.2 C 70.1 11.1 70.1 11.1 70.1 11 C 70.1 10.9 70.1 10.9 70.2 10.9 C 70.2 10.8 70.2 10.8 70.3 10.8 C 70.3 10.8 70.3 10.8 70.3 10.8 C 70.4 10.9 70.5 10.9 70.6 10.9 C 70.8 10.9 70.9 10.8 71.1 10.7 C 71.3 10.7 71.4 10.6 71.4 10.5 C 71.4 10.5 71.4 10.4 71.3 10.4 C 71.3 10.4 71.2 10.3 71 10.3 C 70.8 10.2 70.7 10.1 70.6 10.1 C 70.5 10.1 70.4 10 70.3 9.9 C 70.3 9.9 70.2 9.8 70.2 9.7 C 70.2 9.5 70.3 9.3 70.6 9.2 C 70.8 9 71 8.9 71.3 8.9 C 71.5 8.9 71.6 9 71.7 9 C 71.8 9.1 71.8 9.2 71.8 9.2 C 71.8 9.2 71.8 9.2 71.8 9.2 Z M 72.2 11 C 72.1 11 72.1 11 72 11 C 72 11 72 10.9 72 10.8 C 72 10.8 72 10.7 72 10.7 C 72 10.7 72 10.6 72.1 10.6 C 72.1 10.6 72.2 10.6 72.3 10.6 C 72.3 10.6 72.4 10.6 72.4 10.6 C 72.4 10.7 72.4 10.7 72.4 10.7 C 72.4 10.8 72.4 10.8 72.4 10.9 C 72.4 10.9 72.4 10.9 72.3 11 C 72.2 11 72.2 11 72.2 11 Z M 72.9 11 C 72.8 11 72.8 11 72.7 11 C 72.7 11 72.7 10.9 72.7 10.8 C 72.7 10.8 72.7 10.7 72.7 10.7 C 72.7 10.7 72.7 10.6 72.8 10.6 C 72.8 10.6 72.9 10.6 72.9 10.6 C 73 10.6 73 10.6 73.1 10.6 C 73.1 10.7 73.1 10.7 73.1 10.7 C 73.1 10.8 73.1 10.8 73.1 10.9 C 73.1 10.9 73 10.9 73 11 C 72.9 11 72.9 11 72.9 11 Z M 73.5 11 C 73.5 11 73.4 11 73.4 11 C 73.4 11 73.4 10.9 73.4 10.8 C 73.4 10.8 73.4 10.7 73.4 10.7 C 73.4 10.7 73.4 10.6 73.4 10.6 C 73.5 10.6 73.6 10.6 73.6 10.6 C 73.7 10.6 73.7 10.6 73.8 10.6 C 73.8 10.7 73.8 10.7 73.8 10.7 C 73.8 10.8 73.8 10.8 73.8 10.9 C 73.8 10.9 73.7 10.9 73.7 11 C 73.6 11 73.6 11 73.5 11 Z M 75.8 9.6 C 75.8 9.7 75.7 9.8 75.7 9.8 C 75.7 9.9 75.7 9.9 75.7 10.1 C 75.7 10.3 75.7 10.4 75.7 10.5 C 75.7 10.6 75.7 10.7 75.7 10.9 C 75.7 11 75.7 11 75.6 11.1 C 75.6 11.1 75.5 11.1 75.5 11.1 C 75.4 11.1 75.4 11.1 75.3 11 C 75.3 11 75.3 10.9 75.3 10.7 C 75.3 10.6 75.3 10.4 75.4 10.1 C 75.4 10.1 75.4 9.5 75.4 9.5 C 75.5 9.4 75.5 9.3 75.5 9.3 C 75.5 9.1 75.5 9.1 75.5 9.1 C 75.5 9 75.6 9 75.6 9 C 75.7 9 75.7 8.9 75.7 8.9 C 75.8 8.9 75.8 9 75.8 9 C 75.9 9.1 75.9 9.1 75.9 9.2 C 75.9 9.2 75.8 9.6 75.8 9.6 Z M 77.8 9.2 C 77.8 9.4 77.7 9.5 77.5 9.5 C 77.5 9.4 77.5 9.3 77.4 9.3 C 77.4 9.3 77.3 9.2 77.2 9.2 C 77 9.2 76.9 9.3 76.7 9.4 C 76.6 9.4 76.5 9.5 76.5 9.6 C 76.5 9.7 76.6 9.7 76.6 9.8 C 76.7 9.8 76.8 9.9 77 9.9 C 77.3 10 77.4 10.1 77.5 10.2 C 77.7 10.2 77.7 10.3 77.7 10.5 C 77.7 10.6 77.6 10.8 77.3 11 C 77 11.1 76.7 11.2 76.4 11.2 C 76.3 11.2 76.2 11.2 76.1 11.2 C 76.1 11.1 76 11.1 76 11 C 76 10.9 76.1 10.9 76.1 10.9 C 76.1 10.8 76.1 10.8 76.2 10.8 C 76.2 10.8 76.2 10.8 76.3 10.8 C 76.4 10.9 76.5 10.9 76.5 10.9 C 76.7 10.9 76.9 10.8 77.1 10.7 C 77.2 10.7 77.3 10.6 77.3 10.5 C 77.3 10.5 77.3 10.4 77.3 10.4 C 77.2 10.4 77.1 10.3 77 10.3 C 76.8 10.2 76.6 10.1 76.5 10.1 C 76.4 10.1 76.3 10 76.3 9.9 C 76.2 9.9 76.2 9.8 76.2 9.7 C 76.2 9.5 76.3 9.3 76.5 9.2 C 76.7 9 77 8.9 77.2 8.9 C 77.4 8.9 77.5 9 77.6 9 C 77.7 9.1 77.8 9.2 77.8 9.2 C 77.8 9.2 77.8 9.2 77.8 9.2 Z M 79.6 9.2 C 79.6 9.4 79.5 9.5 79.3 9.5 C 79.3 9.4 79.3 9.3 79.3 9.3 C 79.2 9.3 79.1 9.2 79 9.2 C 78.9 9.2 78.7 9.3 78.6 9.4 C 78.4 9.4 78.4 9.5 78.4 9.6 C 78.4 9.7 78.4 9.7 78.5 9.8 C 78.5 9.8 78.6 9.9 78.9 9.9 C 79.1 10 79.3 10.1 79.4 10.2 C 79.5 10.2 79.6 10.3 79.6 10.5 C 79.6 10.6 79.4 10.8 79.1 11 C 78.8 11.1 78.5 11.2 78.2 11.2 C 78.1 11.2 78.1 11.2 78 11.2 C 77.9 11.1 77.9 11.1 77.9 11 C 77.9 10.9 77.9 10.9 77.9 10.9 C 78 10.8 78 10.8 78 10.8 C 78.1 10.8 78.1 10.8 78.1 10.8 C 78.2 10.9 78.3 10.9 78.4 10.9 C 78.5 10.9 78.7 10.8 78.9 10.7 C 79.1 10.7 79.2 10.6 79.2 10.5 C 79.2 10.5 79.2 10.4 79.1 10.4 C 79.1 10.4 79 10.3 78.8 10.3 C 78.6 10.2 78.5 10.1 78.3 10.1 C 78.2 10.1 78.2 10 78.1 9.9 C 78.1 9.9 78 9.8 78 9.7 C 78 9.5 78.1 9.3 78.3 9.2 C 78.6 9 78.8 8.9 79.1 8.9 C 79.3 8.9 79.4 9 79.5 9 C 79.6 9.1 79.6 9.2 79.6 9.2 C 79.6 9.2 79.6 9.2 79.6 9.2 Z M 80.4 11.2 C 80.3 11.2 80.1 11.1 80 10.9 C 79.9 10.8 79.8 10.6 79.8 10.4 C 79.8 10.2 79.9 10 80 9.8 C 80.1 9.5 80.3 9.3 80.4 9.2 C 80.6 9 80.8 8.9 81 8.9 C 81.2 8.9 81.3 9 81.5 9 C 81.6 9 81.7 9.1 81.7 9.2 C 81.8 9.2 81.9 9.3 81.9 9.4 C 82 9.5 82 9.6 82 9.7 C 82 9.9 81.9 10 81.9 10.2 C 81.8 10.4 81.7 10.5 81.5 10.7 C 81.4 10.8 81.2 11 81 11 C 80.9 11.1 80.7 11.2 80.4 11.2 Z M 80.2 10.4 C 80.2 10.6 80.2 10.7 80.3 10.7 C 80.3 10.8 80.4 10.9 80.5 10.9 C 80.8 10.9 81 10.7 81.3 10.5 C 81.5 10.2 81.6 10 81.6 9.7 C 81.6 9.6 81.6 9.5 81.5 9.4 C 81.5 9.4 81.4 9.3 81.3 9.3 C 81.3 9.2 81.2 9.2 81 9.2 C 80.9 9.2 80.7 9.4 80.5 9.6 C 80.3 9.9 80.2 10.2 80.2 10.4 Z " stroke="none" fill="#000"/>  </g>  <g id="Polygon14005">    <path d="M 3.3 6.4 C 3.2 6.4 3.1 6.4 3.1 6.4 C 3.1 6.6 3 6.8 3 7 C 3 7 3 7.1 3 7.1 C 3 7.1 2.9 7.2 2.9 7.2 C 2.7 7.2 2.7 7.1 2.7 7 C 2.7 6.9 2.7 6.6 2.8 6.2 C 2.8 5.8 2.8 5.6 2.8 5.5 C 2.8 5.4 2.8 5.4 2.8 5.4 C 2.8 5.4 2.7 5.3 2.7 5.2 C 2.7 5.1 2.9 5.1 3.1 5 C 3.4 4.9 3.6 4.9 3.8 4.9 C 4 4.9 4.2 5 4.3 5 C 4.5 5.1 4.5 5.3 4.5 5.4 C 4.5 5.6 4.4 5.8 4.2 6 C 3.9 6.2 3.6 6.3 3.3 6.4 C 3.3 6.4 3.3 6.4 3.3 6.4 Z M 3.8 5.2 C 3.6 5.2 3.4 5.2 3.2 5.3 C 3.2 5.3 3.1 6.1 3.1 6.1 C 3.4 6 3.7 6 3.9 5.8 C 4.1 5.7 4.2 5.6 4.2 5.4 C 4.2 5.3 4.1 5.2 3.8 5.2 C 3.8 5.2 3.8 5.2 3.8 5.2 Z M 5.2 7.2 C 5.1 7.2 4.9 7.1 4.8 6.9 C 4.7 6.8 4.6 6.6 4.6 6.4 C 4.6 6.2 4.7 6 4.8 5.8 C 4.9 5.5 5.1 5.3 5.3 5.2 C 5.5 5 5.7 4.9 5.9 4.9 C 6 4.9 6.2 5 6.3 5 C 6.4 5 6.5 5.1 6.6 5.2 C 6.7 5.2 6.7 5.3 6.8 5.4 C 6.8 5.5 6.8 5.6 6.8 5.7 C 6.8 5.9 6.8 6 6.7 6.2 C 6.6 6.4 6.5 6.5 6.3 6.7 C 6.2 6.8 6 7 5.9 7 C 5.7 7.1 5.5 7.2 5.2 7.2 Z M 5 6.4 C 5 6.6 5 6.7 5.1 6.7 C 5.2 6.8 5.2 6.9 5.3 6.9 C 5.6 6.9 5.8 6.7 6.1 6.5 C 6.3 6.2 6.4 6 6.4 5.7 C 6.4 5.6 6.4 5.5 6.4 5.4 C 6.3 5.4 6.3 5.3 6.2 5.3 C 6.1 5.2 6 5.2 5.9 5.2 C 5.7 5.2 5.5 5.4 5.3 5.6 C 5.1 5.9 5 6.2 5 6.4 Z M 7.5 5.1 C 7.6 5.3 7.7 5.5 7.9 5.7 C 7.9 5.7 7.9 5.7 7.9 5.7 C 8.3 5.3 8.6 5 8.6 5 C 8.7 4.9 8.7 4.9 8.8 4.9 C 8.8 4.9 8.8 4.9 8.9 5 C 8.9 5 9 5 9 5.1 C 9 5.1 8.9 5.2 8.8 5.3 C 8.7 5.3 8.6 5.4 8.5 5.6 C 8.5 5.6 8.4 5.6 8.4 5.6 C 8.2 5.8 8.1 6 8.1 6 C 8.1 6 8.2 6.1 8.3 6.3 C 8.5 6.4 8.6 6.6 8.6 6.6 C 8.7 6.6 8.8 6.7 8.8 6.8 C 8.9 6.8 8.9 6.8 8.9 6.9 C 8.9 6.9 8.9 6.9 8.8 7 C 8.8 7 8.8 7 8.7 7 C 8.6 7 8.5 7 8.5 6.9 C 8.4 6.8 8.3 6.7 8.1 6.5 C 8 6.4 7.9 6.3 7.9 6.2 C 7.8 6.2 7.8 6.3 7.7 6.4 C 7.4 6.7 7.3 6.9 7.2 7 C 7.2 7.1 7.2 7.1 7.2 7.2 C 7.1 7.2 7.1 7.2 7.1 7.2 C 7 7.2 7 7.3 6.9 7.3 C 6.8 7.3 6.8 7.2 6.8 7.1 C 6.8 7 6.8 6.9 6.9 6.8 C 7.1 6.6 7.2 6.4 7.5 6.2 C 7.5 6.2 7.6 6 7.6 6 C 7.7 6 7.7 6 7.7 6 C 7.7 5.9 7.6 5.9 7.6 5.9 C 7.5 5.8 7.4 5.7 7.3 5.5 C 7.2 5.3 7.1 5.2 7.1 5.1 C 7.1 5.1 7.1 5 7.1 5 C 7.2 4.9 7.2 4.9 7.3 4.9 C 7.3 4.9 7.3 4.9 7.4 4.9 C 7.4 4.9 7.4 5 7.5 5.1 C 7.5 5.1 7.5 5.1 7.5 5.1 Z M 9.6 6.6 C 9.6 6.6 9.6 6.6 9.5 6.6 C 9.5 6.6 9.5 6.7 9.4 6.9 C 9.3 7 9.2 7.1 9.2 7.1 C 9.2 7.1 9.1 7.1 9.1 7.1 C 9.1 7.1 9 7.1 9 7.1 C 8.9 7 8.9 7 8.9 7 C 8.9 6.9 9 6.7 9.3 6.3 C 9.4 6.1 9.5 5.9 9.7 5.7 C 9.9 5.3 10 5.1 10.1 5 C 10.1 5 10.2 4.9 10.2 4.9 C 10.3 4.9 10.4 4.9 10.4 5 C 10.4 5 10.4 5 10.4 5.1 C 10.4 5.1 10.4 5.2 10.4 5.2 C 10.6 5.7 10.7 6.1 10.8 6.3 C 10.9 6.6 11 6.7 11.1 6.8 C 11.2 6.9 11.2 6.9 11.2 6.9 C 11.2 6.9 11.2 7 11.2 7 C 11.2 7.1 11.2 7.1 11.2 7.1 C 11.1 7.2 11.1 7.2 11 7.2 C 11 7.2 10.9 7.1 10.8 7.1 C 10.7 7 10.7 6.9 10.6 6.7 C 10.5 6.6 10.5 6.5 10.5 6.5 C 10.5 6.5 10.5 6.4 10.5 6.4 C 10.4 6.4 10.3 6.5 10.1 6.5 C 10 6.5 9.8 6.6 9.7 6.6 C 9.7 6.6 9.6 6.6 9.6 6.6 C 9.6 6.6 9.6 6.6 9.6 6.6 Z M 10.3 6.2 C 10.3 6.2 10.3 6.2 10.4 6.2 C 10.4 6.1 10.3 5.9 10.2 5.5 C 10.2 5.5 10.2 5.5 10.2 5.5 C 10.2 5.5 9.7 6.3 9.7 6.3 C 9.8 6.3 9.9 6.2 9.9 6.2 C 10 6.2 10.1 6.2 10.3 6.2 C 10.3 6.2 10.3 6.2 10.3 6.2 Z M 11.6 7 C 11.5 7 11.5 7 11.5 7 C 11.4 7 11.4 6.9 11.4 6.8 C 11.4 6.8 11.4 6.7 11.4 6.7 C 11.4 6.7 11.5 6.6 11.5 6.6 C 11.5 6.6 11.6 6.6 11.7 6.6 C 11.7 6.6 11.8 6.6 11.8 6.6 C 11.8 6.7 11.9 6.7 11.9 6.7 C 11.9 6.8 11.9 6.8 11.8 6.9 C 11.8 6.9 11.8 6.9 11.7 7 C 11.7 7 11.6 7 11.6 7 Z M 12.3 7 C 12.2 7 12.2 7 12.1 7 C 12.1 7 12.1 6.9 12.1 6.8 C 12.1 6.8 12.1 6.7 12.1 6.7 C 12.1 6.7 12.1 6.6 12.2 6.6 C 12.2 6.6 12.3 6.6 12.4 6.6 C 12.4 6.6 12.5 6.6 12.5 6.6 C 12.5 6.7 12.6 6.7 12.6 6.7 C 12.6 6.8 12.5 6.8 12.5 6.9 C 12.5 6.9 12.5 6.9 12.4 7 C 12.4 7 12.3 7 12.3 7 Z M 13 7 C 12.9 7 12.9 7 12.8 7 C 12.8 7 12.8 6.9 12.8 6.8 C 12.8 6.8 12.8 6.7 12.8 6.7 C 12.8 6.7 12.8 6.6 12.9 6.6 C 12.9 6.6 13 6.6 13.1 6.6 C 13.1 6.6 13.2 6.6 13.2 6.6 C 13.2 6.7 13.2 6.7 13.2 6.7 C 13.2 6.8 13.2 6.8 13.2 6.9 C 13.2 6.9 13.2 6.9 13.1 7 C 13 7 13 7 13 7 Z M 15.2 6.6 C 15.1 6.6 15.1 6.6 15.1 6.6 C 15.1 6.6 15 6.7 14.9 6.9 C 14.8 7 14.8 7.1 14.7 7.1 C 14.7 7.1 14.7 7.1 14.7 7.1 C 14.6 7.1 14.6 7.1 14.5 7.1 C 14.5 7 14.5 7 14.5 7 C 14.5 6.9 14.6 6.7 14.8 6.3 C 15 6.1 15.1 5.9 15.2 5.7 C 15.4 5.3 15.5 5.1 15.6 5 C 15.6 5 15.7 4.9 15.7 4.9 C 15.8 4.9 15.9 4.9 15.9 5 C 15.9 5 16 5 16 5.1 C 16 5.1 15.9 5.2 15.9 5.2 C 16.1 5.7 16.3 6.1 16.4 6.3 C 16.5 6.6 16.6 6.7 16.7 6.8 C 16.7 6.9 16.7 6.9 16.8 6.9 C 16.8 6.9 16.8 7 16.8 7 C 16.8 7.1 16.8 7.1 16.7 7.1 C 16.7 7.2 16.6 7.2 16.6 7.2 C 16.5 7.2 16.4 7.1 16.4 7.1 C 16.3 7 16.2 6.9 16.1 6.7 C 16.1 6.6 16 6.5 16 6.5 C 16 6.5 16 6.4 16 6.4 C 16 6.4 15.9 6.5 15.7 6.5 C 15.5 6.5 15.3 6.6 15.2 6.6 C 15.2 6.6 15.2 6.6 15.2 6.6 C 15.2 6.6 15.2 6.6 15.2 6.6 Z M 15.8 6.2 C 15.8 6.2 15.9 6.2 15.9 6.2 C 15.9 6.1 15.8 5.9 15.7 5.5 C 15.7 5.5 15.7 5.5 15.7 5.5 C 15.7 5.5 15.3 6.3 15.3 6.3 C 15.3 6.3 15.4 6.2 15.5 6.2 C 15.5 6.2 15.6 6.2 15.8 6.2 C 15.8 6.2 15.8 6.2 15.8 6.2 Z M 20 6.1 C 19.9 6.2 19.9 6.3 19.9 6.4 C 19.9 6.4 19.9 6.4 19.9 6.4 C 19.9 6.4 19.8 6.5 19.8 6.7 C 19.8 6.8 19.8 6.9 19.8 7 C 19.8 7.1 19.8 7.2 19.8 7.2 C 19.8 7.2 19.8 7.3 19.8 7.3 C 19.7 7.3 19.7 7.4 19.7 7.4 C 19.7 7.4 19.6 7.4 19.6 7.4 C 19.6 7.4 19.5 7.4 19.5 7.3 C 19.4 7.3 19.4 7.3 19.4 7.2 C 19.4 7.2 19.4 7.1 19.4 7 C 19.5 6.9 19.5 6.8 19.5 6.7 C 19.2 6.9 18.9 7.1 18.6 7.1 C 18.4 7.1 18.3 7 18.2 6.9 C 18.1 6.8 18 6.7 18 6.5 C 18 6.2 18.1 5.9 18.3 5.7 C 18.3 5.7 18.3 5.7 18.3 5.7 C 18.5 5.4 18.7 5.2 18.9 5.1 C 19.2 4.9 19.4 4.8 19.7 4.8 C 19.8 4.8 19.9 4.9 20 4.9 C 20 4.9 20.1 5 20.1 5.1 C 20.1 5.1 20 5.2 20 5.3 C 19.9 5.3 19.9 5.4 19.8 5.4 C 19.8 5.4 19.8 5.4 19.8 5.4 C 19.8 5.3 19.7 5.3 19.7 5.3 C 19.7 5.2 19.7 5.2 19.7 5.2 C 19.6 5.2 19.6 5.2 19.5 5.2 C 19.4 5.2 19.2 5.2 19 5.4 C 18.8 5.5 18.7 5.7 18.6 5.9 C 18.5 6.1 18.4 6.3 18.4 6.5 C 18.4 6.7 18.5 6.8 18.6 6.8 C 18.7 6.8 18.8 6.7 18.9 6.7 C 19.1 6.7 19.2 6.6 19.3 6.5 C 19.5 6.4 19.5 6.3 19.6 6.2 C 19.6 6.2 19.6 6.1 19.6 6 C 19.6 5.9 19.7 5.9 19.7 5.9 C 19.7 5.8 19.8 5.8 19.8 5.8 C 20 5.8 20 5.9 20 6 C 20 6 20 6.1 20 6.1 C 20 6.1 20 6.1 20 6.1 Z M 22 5.3 C 22 5.3 21.6 5.3 21.6 5.3 C 21.4 5.3 21.3 5.3 21.2 5.3 C 21.1 5.3 21 5.4 21 5.4 C 21 5.4 21 5.4 21 5.5 C 21 5.5 20.9 5.6 20.9 5.7 C 20.9 5.8 20.9 5.9 20.9 5.9 C 20.9 5.9 21 5.9 21.1 5.9 C 21.3 5.9 21.3 5.9 21.4 5.9 C 21.5 5.9 21.6 5.8 21.7 5.8 C 21.9 5.8 21.9 5.9 21.9 6 C 21.9 6 21.9 6.1 21.9 6.1 C 21.8 6.1 21.8 6.2 21.7 6.2 C 21.6 6.2 21.6 6.2 21.5 6.2 C 21.4 6.2 21.4 6.2 21.3 6.2 C 21.1 6.2 20.9 6.3 20.9 6.3 C 20.9 6.3 20.9 6.3 20.9 6.3 C 20.8 6.3 20.8 6.3 20.8 6.3 C 20.8 6.3 20.8 6.4 20.8 6.5 C 20.8 6.7 20.7 6.8 20.7 6.8 C 20.8 6.8 20.8 6.9 20.8 6.9 C 20.9 6.9 21 6.8 21.2 6.8 C 21.4 6.8 21.5 6.8 21.6 6.8 C 21.7 6.7 21.8 6.7 21.8 6.7 C 21.9 6.7 22 6.8 22 6.9 C 22 6.9 22 7 22 7 C 21.9 7 21.7 7.1 21.6 7.1 C 21.4 7.1 21.3 7.1 21.1 7.1 C 20.9 7.2 20.7 7.2 20.6 7.2 C 20.5 7.2 20.5 7.2 20.4 7.1 C 20.4 7.1 20.4 7 20.4 7 C 20.4 7 20.4 6.9 20.4 6.9 C 20.4 6.9 20.4 6.9 20.4 6.8 C 20.4 6.7 20.5 6.5 20.5 6 C 20.6 5.6 20.6 5.4 20.6 5.3 C 20.6 5.3 20.6 5.3 20.6 5.3 C 20.6 5.3 20.6 5.3 20.6 5.3 C 20.5 5.2 20.5 5.2 20.5 5.2 C 20.5 5.2 20.5 5.1 20.5 5.1 C 20.5 5.1 20.6 5.1 20.6 5.1 C 20.6 5.1 20.7 5 20.7 5 C 20.8 5 20.8 5 20.9 5.1 C 20.9 5.1 21.2 5 21.6 5 C 21.8 4.9 21.9 4.9 21.9 4.9 C 21.9 4.9 21.9 4.9 21.9 4.9 C 22.1 4.9 22.2 5 22.2 5.1 C 22.2 5.1 22.1 5.2 22.1 5.2 C 22.1 5.2 22.1 5.2 22 5.3 Z M 22.4 6.6 C 22.4 6.6 22.5 6.1 22.5 6.1 C 22.6 5.7 22.6 5.4 22.6 5.3 C 22.6 5.2 22.6 5.2 22.6 5.1 C 22.7 5.1 22.7 5.1 22.7 5.1 C 22.7 5 22.8 5 22.8 5 C 22.9 5 22.9 5 22.9 5 C 23 5.1 23 5.1 23 5.2 C 23.1 5.4 23.2 5.6 23.4 5.9 C 23.5 6.2 23.7 6.4 23.8 6.6 C 23.9 6.4 23.9 6.2 23.9 5.9 C 24 5.7 24 5.6 24 5.4 C 24.1 5.3 24.1 5.2 24.1 5.1 C 24.1 5 24.1 5 24.1 4.9 C 24.2 4.9 24.2 4.9 24.3 4.9 C 24.3 4.9 24.4 4.9 24.4 5 C 24.4 5 24.4 5.1 24.4 5.1 C 24.4 5.2 24.4 5.3 24.4 5.4 C 24.3 5.6 24.3 5.9 24.2 6.2 C 24.2 6.6 24.1 6.8 24.1 6.8 C 24.1 6.8 24.1 6.9 24.1 6.9 C 24.1 6.9 24.1 7 24.1 7 C 24.1 7 24.1 7.1 24 7.1 C 24 7.1 23.9 7.1 23.9 7.1 C 23.9 7.1 23.8 7.1 23.8 7.1 C 23.8 7.1 23.8 7.1 23.7 7 C 23.7 7 23.7 7 23.7 6.9 C 23.6 6.8 23.6 6.8 23.6 6.7 C 23.3 6.5 23.1 6.1 22.9 5.7 C 22.9 5.8 22.8 6.1 22.7 6.6 C 22.7 6.6 22.7 6.7 22.7 6.7 C 22.7 6.7 22.7 6.8 22.7 6.9 C 22.7 7 22.7 7.1 22.6 7.1 C 22.6 7.2 22.5 7.2 22.5 7.2 C 22.4 7.2 22.4 7.2 22.4 7.1 C 22.3 7.1 22.3 7 22.3 6.9 C 22.3 6.9 22.4 6.7 22.4 6.6 C 22.39 6.6 22.4 6.6 22.4 6.6 Z M 26.3 5.3 C 26.1 5.3 25.9 5.3 25.8 5.3 C 25.8 5.3 25.8 5.4 25.8 5.4 C 25.8 5.4 25.8 5.6 25.7 5.9 C 25.7 6.2 25.7 6.4 25.7 6.6 C 25.7 6.7 25.7 6.8 25.7 6.9 C 25.7 6.9 25.7 6.9 25.7 6.9 C 25.7 7 25.7 7 25.7 7.1 C 25.6 7.1 25.6 7.1 25.6 7.1 C 25.5 7.1 25.5 7.1 25.4 7.1 C 25.4 7 25.3 7 25.3 6.9 C 25.3 6.8 25.3 6.7 25.3 6.6 C 25.3 6.5 25.3 6.2 25.4 5.9 C 25.4 5.5 25.4 5.4 25.5 5.4 C 25.4 5.4 25.3 5.4 25.1 5.4 C 24.9 5.4 24.8 5.4 24.8 5.4 C 24.7 5.4 24.6 5.4 24.6 5.4 C 24.5 5.3 24.5 5.3 24.5 5.3 C 24.5 5.2 24.5 5.2 24.6 5.1 C 24.6 5.1 24.7 5.1 24.9 5.1 C 25.2 5.1 25.5 5.1 25.7 5 C 26 5 26.3 5 26.4 5 C 26.6 5 26.7 5 26.7 5 C 26.8 5.1 26.8 5.1 26.8 5.2 C 26.8 5.3 26.8 5.3 26.7 5.3 C 26.6 5.3 26.6 5.3 26.5 5.3 C 26.5 5.3 26.4 5.3 26.3 5.3 C 26.3 5.3 26.3 5.3 26.3 5.3 Z M 28.3 5.3 C 28.3 5.3 27.9 5.3 27.9 5.3 C 27.7 5.3 27.6 5.3 27.5 5.3 C 27.3 5.3 27.3 5.4 27.3 5.4 C 27.3 5.4 27.3 5.4 27.3 5.5 C 27.3 5.5 27.2 5.6 27.2 5.7 C 27.2 5.8 27.2 5.9 27.2 5.9 C 27.2 5.9 27.3 5.9 27.4 5.9 C 27.5 5.9 27.6 5.9 27.7 5.9 C 27.8 5.9 27.9 5.8 28 5.8 C 28.2 5.8 28.2 5.9 28.2 6 C 28.2 6 28.2 6.1 28.2 6.1 C 28.1 6.1 28.1 6.2 28 6.2 C 27.9 6.2 27.8 6.2 27.8 6.2 C 27.7 6.2 27.7 6.2 27.6 6.2 C 27.4 6.2 27.2 6.3 27.2 6.3 C 27.2 6.3 27.2 6.3 27.2 6.3 C 27.1 6.3 27.1 6.3 27.1 6.3 C 27.1 6.3 27.1 6.4 27.1 6.5 C 27.1 6.7 27 6.8 27 6.8 C 27 6.8 27.1 6.9 27.1 6.9 C 27.2 6.9 27.3 6.8 27.5 6.8 C 27.7 6.8 27.8 6.8 27.9 6.8 C 28 6.7 28.1 6.7 28.1 6.7 C 28.2 6.7 28.3 6.8 28.3 6.9 C 28.3 6.9 28.3 7 28.3 7 C 28.2 7 28 7.1 27.9 7.1 C 27.7 7.1 27.6 7.1 27.4 7.1 C 27.2 7.2 27 7.2 26.9 7.2 C 26.8 7.2 26.7 7.2 26.7 7.1 C 26.7 7.1 26.7 7 26.7 7 C 26.7 7 26.6 6.9 26.6 6.9 C 26.6 6.9 26.7 6.9 26.7 6.8 C 26.7 6.7 26.8 6.5 26.8 6 C 26.9 5.6 26.9 5.4 26.9 5.3 C 26.9 5.3 26.9 5.3 26.9 5.3 C 26.9 5.3 26.9 5.3 26.9 5.3 C 26.8 5.2 26.8 5.2 26.8 5.2 C 26.8 5.2 26.8 5.1 26.8 5.1 C 26.8 5.1 26.9 5.1 26.9 5.1 C 26.9 5.1 27 5 27 5 C 27.1 5 27.1 5 27.1 5.1 C 27.2 5.1 27.5 5 27.9 5 C 28.1 4.9 28.2 4.9 28.2 4.9 C 28.2 4.9 28.2 4.9 28.2 4.9 C 28.4 4.9 28.5 5 28.5 5.1 C 28.5 5.1 28.4 5.2 28.4 5.2 C 28.4 5.2 28.3 5.2 28.3 5.3 Z M 31.4 5.3 C 31.2 5.3 31 5.3 30.9 5.3 C 30.9 5.3 30.9 5.4 30.9 5.4 C 30.9 5.4 30.8 5.6 30.8 5.9 C 30.8 6.2 30.8 6.4 30.8 6.6 C 30.8 6.7 30.8 6.8 30.8 6.9 C 30.8 6.9 30.8 6.9 30.8 6.9 C 30.8 7 30.8 7 30.7 7.1 C 30.7 7.1 30.7 7.1 30.6 7.1 C 30.6 7.1 30.6 7.1 30.5 7.1 C 30.5 7 30.4 7 30.4 6.9 C 30.4 6.8 30.4 6.7 30.4 6.6 C 30.4 6.5 30.4 6.2 30.5 5.9 C 30.5 5.5 30.5 5.4 30.5 5.4 C 30.5 5.4 30.4 5.4 30.2 5.4 C 30 5.4 29.9 5.4 29.9 5.4 C 29.8 5.4 29.7 5.4 29.7 5.4 C 29.6 5.3 29.6 5.3 29.6 5.3 C 29.6 5.2 29.6 5.2 29.7 5.1 C 29.7 5.1 29.8 5.1 30 5.1 C 30.3 5.1 30.5 5.1 30.8 5 C 31.1 5 31.3 5 31.5 5 C 31.7 5 31.8 5 31.8 5 C 31.9 5.1 31.9 5.1 31.9 5.2 C 31.9 5.3 31.8 5.3 31.7 5.3 C 31.7 5.3 31.7 5.3 31.6 5.3 C 31.6 5.3 31.5 5.3 31.4 5.3 C 31.4 5.3 31.4 5.3 31.4 5.3 Z M 31.9 5.3 C 31.9 5.3 31.91 5.28 31.9 5.3 C 31.9 5.2 31.9 5.2 31.9 5.2 C 31.9 5.1 31.9 5.1 31.9 5 C 32 5 32 5 32.1 5 C 32.1 5 32.1 5 32.1 5 C 32.2 5 32.2 5 32.2 5 C 32.5 5 32.7 4.9 32.8 4.9 C 33 4.9 33.2 5 33.3 5.1 C 33.4 5.2 33.5 5.3 33.5 5.5 C 33.5 5.6 33.4 5.8 33.3 5.9 C 33.2 6 33 6.1 32.8 6.2 C 33.2 6.5 33.4 6.7 33.6 6.8 C 33.7 6.8 33.7 6.9 33.7 6.9 C 33.7 7 33.7 7 33.6 7 C 33.6 7.1 33.5 7.1 33.5 7.1 C 33.4 7.1 33.4 7.1 33.3 7 C 33.2 7 33.1 6.9 33 6.8 C 32.9 6.7 32.8 6.6 32.8 6.6 C 32.6 6.5 32.5 6.4 32.4 6.3 C 32.3 6.3 32.2 6.3 32.2 6.1 C 32.2 6.1 32.2 6.1 32.3 6 C 32.3 6 32.4 6 32.4 6 C 32.5 6 32.5 6 32.5 6 C 32.5 6 32.5 6 32.5 6 C 32.6 6 32.7 5.9 32.9 5.8 C 33 5.7 33.1 5.6 33.1 5.5 C 33.1 5.4 33.1 5.3 33 5.3 C 33 5.2 32.9 5.2 32.8 5.2 C 32.6 5.2 32.5 5.2 32.4 5.2 C 32.4 5.3 32.3 5.3 32.3 5.3 C 32.3 5.3 32.3 5.3 32.3 5.3 C 32.3 5.3 32.3 5.4 32.2 5.6 C 32.2 5.8 32.2 6 32.1 6.2 C 32.1 6.4 32.1 6.6 32.1 6.7 C 32.1 6.7 32.1 6.8 32.1 6.8 C 32.1 6.9 32.1 6.9 32.1 7 C 32.1 7 32.1 7 32.1 7.1 C 32 7.1 32 7.1 31.9 7.1 C 31.8 7.1 31.7 7.1 31.7 6.9 C 31.7 6.7 31.7 6.5 31.8 6.2 C 31.8 6 31.8 5.7 31.9 5.5 C 31.9 5.5 31.9 5.4 31.9 5.4 C 31.9 5.41 31.9 5.3 31.9 5.3 Z M 34.3 6.6 C 34.3 6.6 34.3 6.6 34.2 6.6 C 34.2 6.6 34.2 6.7 34.1 6.9 C 34 7 33.9 7.1 33.9 7.1 C 33.9 7.1 33.8 7.1 33.8 7.1 C 33.8 7.1 33.7 7.1 33.7 7.1 C 33.6 7 33.6 7 33.6 7 C 33.6 6.9 33.7 6.7 34 6.3 C 34.1 6.1 34.2 5.9 34.3 5.7 C 34.6 5.3 34.7 5.1 34.8 5 C 34.8 5 34.9 4.9 34.9 4.9 C 35 4.9 35 4.9 35.1 5 C 35.1 5 35.1 5 35.1 5.1 C 35.1 5.1 35.1 5.2 35.1 5.2 C 35.3 5.7 35.4 6.1 35.5 6.3 C 35.6 6.6 35.7 6.7 35.8 6.8 C 35.9 6.9 35.9 6.9 35.9 6.9 C 35.9 6.9 35.9 7 35.9 7 C 35.9 7.1 35.9 7.1 35.9 7.1 C 35.8 7.2 35.8 7.2 35.7 7.2 C 35.7 7.2 35.6 7.1 35.5 7.1 C 35.4 7 35.4 6.9 35.3 6.7 C 35.2 6.6 35.2 6.5 35.2 6.5 C 35.2 6.5 35.2 6.4 35.2 6.4 C 35.1 6.4 35 6.5 34.8 6.5 C 34.7 6.5 34.5 6.6 34.4 6.6 C 34.4 6.6 34.3 6.6 34.3 6.6 C 34.3 6.6 34.3 6.6 34.3 6.6 Z M 34.9 6.2 C 35 6.2 35 6.2 35.1 6.2 C 35.1 6.1 35 5.9 34.9 5.5 C 34.9 5.5 34.8 5.5 34.8 5.5 C 34.8 5.5 34.4 6.3 34.4 6.3 C 34.5 6.3 34.6 6.2 34.6 6.2 C 34.7 6.2 34.8 6.2 34.9 6.2 C 34.9 6.2 34.9 6.2 34.9 6.2 Z M 37.5 5.9 C 37.7 5.9 37.8 6 37.9 6.1 C 37.9 6.2 38 6.3 38 6.4 C 38 6.6 37.8 6.8 37.6 7 C 37.4 7.2 37.1 7.2 36.8 7.2 C 36.7 7.2 36.6 7.2 36.6 7.1 C 36.6 7 36.7 6.9 36.9 6.9 C 36.9 6.9 37 6.9 37 6.9 C 37.1 6.9 37.2 6.8 37.4 6.7 C 37.5 6.6 37.6 6.5 37.6 6.4 C 37.6 6.3 37.5 6.3 37.5 6.2 C 37.4 6.2 37.3 6.1 37.3 6.1 C 37.2 6.1 37.2 6.1 37.1 6.2 C 37.1 6.2 37 6.2 37 6.2 C 36.9 6.2 36.8 6.2 36.8 6.2 C 36.8 6.2 36.8 6.1 36.8 6 C 36.8 6 36.9 5.9 37.1 5.9 C 37.2 5.8 37.3 5.7 37.4 5.6 C 37.5 5.5 37.6 5.4 37.6 5.3 C 37.6 5.3 37.5 5.2 37.4 5.2 C 37.2 5.2 37.1 5.2 37 5.2 C 36.8 5.3 36.8 5.3 36.8 5.4 C 36.7 5.4 36.7 5.6 36.6 6 C 36.6 6.4 36.6 6.7 36.6 6.7 C 36.6 6.7 36.5 6.9 36.5 6.9 C 36.5 7 36.5 7.1 36.5 7.1 C 36.4 7.1 36.4 7.2 36.3 7.2 C 36.2 7.2 36.2 7.1 36.2 6.9 C 36.2 6.9 36.2 6.8 36.2 6.8 C 36.2 6.6 36.3 6.3 36.3 6 C 36.3 5.7 36.4 5.5 36.4 5.5 C 36.4 5.5 36.4 5.4 36.3 5.4 C 36.3 5.4 36.3 5.4 36.3 5.4 C 36.3 5.4 36.2 5.4 36.2 5.4 C 36.2 5.4 36.2 5.4 36.2 5.4 C 36.2 5.3 36.2 5.3 36.2 5.3 C 36.2 5.2 36.3 5.1 36.6 5 C 36.8 4.9 37.1 4.9 37.4 4.9 C 37.6 4.9 37.7 4.9 37.8 5 C 37.9 5.1 38 5.2 38 5.3 C 38 5.4 37.9 5.5 37.9 5.6 C 37.8 5.6 37.7 5.8 37.5 5.9 Z M 38.7 6.6 C 38.7 6.6 38.7 6.6 38.6 6.6 C 38.6 6.6 38.6 6.7 38.5 6.9 C 38.4 7 38.3 7.1 38.3 7.1 C 38.3 7.1 38.2 7.1 38.2 7.1 C 38.2 7.1 38.1 7.1 38.1 7.1 C 38 7 38 7 38 7 C 38 6.9 38.1 6.7 38.4 6.3 C 38.5 6.1 38.6 5.9 38.7 5.7 C 39 5.3 39.1 5.1 39.2 5 C 39.2 5 39.3 4.9 39.3 4.9 C 39.4 4.9 39.4 4.9 39.5 5 C 39.5 5 39.5 5 39.5 5.1 C 39.5 5.1 39.5 5.2 39.5 5.2 C 39.7 5.7 39.8 6.1 39.9 6.3 C 40 6.6 40.1 6.7 40.2 6.8 C 40.3 6.9 40.3 6.9 40.3 6.9 C 40.3 6.9 40.3 7 40.3 7 C 40.3 7.1 40.3 7.1 40.3 7.1 C 40.2 7.2 40.2 7.2 40.1 7.2 C 40.1 7.2 40 7.1 39.9 7.1 C 39.8 7 39.8 6.9 39.7 6.7 C 39.6 6.6 39.6 6.5 39.6 6.5 C 39.6 6.5 39.6 6.4 39.6 6.4 C 39.5 6.4 39.4 6.5 39.2 6.5 C 39.1 6.5 38.9 6.6 38.8 6.6 C 38.8 6.6 38.7 6.6 38.7 6.6 C 38.7 6.6 38.7 6.6 38.7 6.6 Z M 39.3 6.2 C 39.4 6.2 39.4 6.2 39.5 6.2 C 39.5 6.1 39.4 5.9 39.3 5.5 C 39.3 5.5 39.3 5.5 39.2 5.5 C 39.2 5.5 38.8 6.3 38.8 6.3 C 38.9 6.3 39 6.2 39 6.2 C 39.1 6.2 39.2 6.2 39.3 6.2 C 39.3 6.2 39.3 6.2 39.3 6.2 Z M 41.9 7 C 41.9 7 41.9 7 41.8 7 C 41.8 7 41.7 7 41.7 7 C 41.4 7 41.2 7 40.9 7.1 C 40.8 7.1 40.7 7.2 40.7 7.2 C 40.6 7.2 40.6 7.1 40.5 7.1 C 40.5 7 40.5 7 40.5 7 C 40.5 6.9 40.5 6.9 40.5 6.8 C 40.5 6.7 40.6 6.6 40.6 6.5 C 40.6 6.5 40.7 5.3 40.7 5.3 C 40.7 5.2 40.7 5.1 40.7 5.1 C 40.7 5 40.8 5 40.8 5 C 40.8 5 40.9 4.9 40.9 4.9 C 41 4.9 41 5 41.1 5 C 41.1 5 41.1 5.1 41.1 5.1 C 41.1 5.1 41.1 5.2 41.1 5.3 C 41.1 5.4 41 5.7 41 6.1 C 40.9 6.5 40.9 6.7 40.9 6.7 C 40.9 6.7 40.9 6.8 40.9 6.8 C 41 6.8 41.1 6.7 41.2 6.7 C 41.3 6.7 41.4 6.7 41.5 6.7 C 41.7 6.7 41.9 6.7 42 6.6 C 42 6.6 42 6.6 42 6.6 C 42.1 6.6 42.1 6.6 42.1 6.7 C 42.2 6.7 42.2 6.7 42.2 6.8 C 42.2 6.9 42.2 6.9 42.1 6.9 C 42.1 7 42 7 41.9 7 Z M 42.8 6.3 C 42.8 6.3 42.8 6.4 42.7 6.7 C 42.7 6.8 42.7 6.9 42.7 7 C 42.7 7.1 42.6 7.2 42.6 7.2 C 42.5 7.2 42.4 7.2 42.4 7.1 C 42.4 7.1 42.3 7 42.3 7 C 42.3 6.9 42.4 6.8 42.4 6.7 C 42.4 6.4 42.5 5.9 42.6 5.1 C 42.6 5 42.6 5 42.7 5 C 42.7 5 42.7 4.9 42.8 4.9 C 42.9 4.9 43 5 43 5.2 C 43 5.2 42.9 5.4 42.9 5.5 C 42.9 5.7 42.9 5.8 42.9 5.9 C 42.9 5.9 42.9 5.9 43 5.9 C 43.1 5.9 43.3 5.9 43.5 5.9 C 43.8 5.9 43.9 5.8 44 5.8 C 44 5.8 44 5.7 44 5.5 C 44 5.4 44 5.2 44 5 C 44 5 44.1 4.9 44.1 4.9 C 44.1 4.9 44.2 4.8 44.2 4.8 C 44.3 4.8 44.3 4.9 44.4 4.9 C 44.4 4.9 44.4 5 44.4 5 C 44.4 5.1 44.4 5.2 44.4 5.4 C 44.3 5.6 44.3 5.9 44.3 6.2 C 44.2 6.6 44.2 6.8 44.2 6.9 C 44.2 7 44.2 7 44.1 7.1 C 44.1 7.1 44.1 7.2 44 7.2 C 44 7.2 43.9 7.1 43.9 7.1 C 43.8 7.1 43.8 7 43.8 7 C 43.8 6.9 43.8 6.8 43.9 6.6 C 43.9 6.4 43.9 6.3 43.9 6.2 C 43.9 6.2 43.9 6.2 43.9 6.2 C 43.8 6.2 43.7 6.2 43.6 6.2 C 43.5 6.2 43.4 6.2 43.3 6.2 C 43.3 6.2 43.2 6.2 43 6.2 C 42.9 6.2 42.8 6.2 42.8 6.3 Z M 45.2 6.6 C 45.1 6.6 45.1 6.6 45.1 6.6 C 45.1 6.6 45 6.7 44.9 6.9 C 44.8 7 44.8 7.1 44.7 7.1 C 44.7 7.1 44.7 7.1 44.7 7.1 C 44.6 7.1 44.6 7.1 44.5 7.1 C 44.5 7 44.5 7 44.5 7 C 44.5 6.9 44.6 6.7 44.8 6.3 C 45 6.1 45.1 5.9 45.2 5.7 C 45.4 5.3 45.5 5.1 45.6 5 C 45.6 5 45.7 4.9 45.7 4.9 C 45.8 4.9 45.9 4.9 45.9 5 C 45.9 5 46 5 46 5.1 C 46 5.1 46 5.2 45.9 5.2 C 46.1 5.7 46.3 6.1 46.4 6.3 C 46.5 6.6 46.6 6.7 46.7 6.8 C 46.7 6.9 46.7 6.9 46.8 6.9 C 46.8 6.9 46.8 7 46.8 7 C 46.8 7.1 46.8 7.1 46.7 7.1 C 46.7 7.2 46.6 7.2 46.6 7.2 C 46.5 7.2 46.4 7.1 46.4 7.1 C 46.3 7 46.2 6.9 46.1 6.7 C 46.1 6.6 46 6.5 46 6.5 C 46 6.5 46 6.4 46 6.4 C 46 6.4 45.9 6.5 45.7 6.5 C 45.5 6.5 45.3 6.6 45.2 6.6 C 45.2 6.6 45.2 6.6 45.2 6.6 C 45.2 6.6 45.2 6.6 45.2 6.6 Z M 45.8 6.2 C 45.8 6.2 45.9 6.2 45.9 6.2 C 45.9 6.1 45.8 5.9 45.7 5.5 C 45.7 5.5 45.7 5.5 45.7 5.5 C 45.7 5.5 45.3 6.3 45.3 6.3 C 45.3 6.3 45.4 6.2 45.5 6.2 C 45.5 6.2 45.6 6.2 45.8 6.2 C 45.8 6.2 45.8 6.2 45.8 6.2 Z M 47 7.3 C 47 7.3 47 7.3 47 7.3 C 47.1 7.3 47.1 7.2 47.2 7.2 C 47.3 7.1 47.3 7.1 47.4 7 C 47.4 7 47.4 6.9 47.4 6.9 C 47.4 6.9 47.4 6.8 47.4 6.8 C 47.4 6.7 47.3 6.7 47.3 6.7 C 47.3 6.7 47.4 6.6 47.4 6.6 C 47.4 6.6 47.4 6.5 47.5 6.5 C 47.5 6.5 47.5 6.6 47.6 6.6 C 47.6 6.6 47.7 6.6 47.7 6.6 C 47.7 6.7 47.7 6.7 47.7 6.8 C 47.7 6.8 47.7 6.9 47.7 6.9 C 47.7 6.9 47.7 7 47.7 7.1 C 47.6 7.2 47.6 7.2 47.5 7.3 C 47.5 7.3 47.4 7.4 47.3 7.4 C 47.3 7.4 47.3 7.4 47.3 7.4 C 47.2 7.4 47.1 7.4 47.1 7.4 C 47 7.4 47 7.4 47 7.3 C 47 7.3 47 7.3 47 7.3 Z M 50.5 5.9 C 50.7 5.9 50.8 6 50.9 6.1 C 50.9 6.2 51 6.3 51 6.4 C 51 6.6 50.8 6.8 50.6 7 C 50.4 7.2 50.1 7.2 49.8 7.2 C 49.7 7.2 49.6 7.2 49.6 7.1 C 49.6 7 49.7 6.9 49.9 6.9 C 49.9 6.9 50 6.9 50 6.9 C 50.1 6.9 50.2 6.8 50.4 6.7 C 50.5 6.6 50.6 6.5 50.6 6.4 C 50.6 6.3 50.6 6.3 50.5 6.2 C 50.4 6.2 50.4 6.1 50.3 6.1 C 50.3 6.1 50.2 6.1 50.1 6.2 C 50.1 6.2 50 6.2 50 6.2 C 49.9 6.2 49.8 6.2 49.8 6.2 C 49.8 6.2 49.8 6.1 49.8 6 C 49.8 6 49.9 5.9 50.1 5.9 C 50.2 5.8 50.3 5.7 50.4 5.6 C 50.5 5.5 50.6 5.4 50.6 5.3 C 50.6 5.3 50.5 5.2 50.4 5.2 C 50.2 5.2 50.1 5.2 50 5.2 C 49.8 5.3 49.8 5.3 49.8 5.4 C 49.8 5.4 49.7 5.6 49.7 6 C 49.6 6.4 49.6 6.7 49.6 6.7 C 49.6 6.7 49.6 6.9 49.6 6.9 C 49.5 7 49.5 7.1 49.5 7.1 C 49.4 7.1 49.4 7.2 49.4 7.2 C 49.2 7.2 49.2 7.1 49.2 6.9 C 49.2 6.9 49.2 6.8 49.2 6.8 C 49.2 6.6 49.3 6.3 49.3 6 C 49.3 5.7 49.4 5.5 49.4 5.5 C 49.4 5.5 49.4 5.4 49.3 5.4 C 49.3 5.4 49.3 5.4 49.3 5.4 C 49.3 5.4 49.2 5.4 49.2 5.4 C 49.2 5.4 49.2 5.4 49.2 5.4 C 49.2 5.3 49.2 5.3 49.2 5.3 C 49.2 5.2 49.3 5.1 49.6 5 C 49.8 4.9 50.1 4.9 50.4 4.9 C 50.6 4.9 50.7 4.9 50.8 5 C 50.9 5.1 51 5.2 51 5.3 C 51 5.4 50.9 5.5 50.9 5.6 C 50.8 5.6 50.7 5.8 50.5 5.9 Z M 51.7 6.6 C 51.7 6.6 51.7 6.6 51.6 6.6 C 51.6 6.6 51.6 6.7 51.5 6.9 C 51.4 7 51.3 7.1 51.3 7.1 C 51.3 7.1 51.2 7.1 51.2 7.1 C 51.2 7.1 51.1 7.1 51.1 7.1 C 51 7 51 7 51 7 C 51 6.9 51.1 6.7 51.4 6.3 C 51.5 6.1 51.6 5.9 51.8 5.7 C 52 5.3 52.1 5.1 52.2 5 C 52.2 5 52.3 4.9 52.3 4.9 C 52.4 4.9 52.5 4.9 52.5 5 C 52.5 5 52.5 5 52.5 5.1 C 52.5 5.1 52.5 5.2 52.5 5.2 C 52.7 5.7 52.8 6.1 52.9 6.3 C 53 6.6 53.1 6.7 53.2 6.8 C 53.3 6.9 53.3 6.9 53.3 6.9 C 53.3 6.9 53.3 7 53.3 7 C 53.3 7.1 53.3 7.1 53.3 7.1 C 53.2 7.2 53.2 7.2 53.1 7.2 C 53.1 7.2 53 7.1 52.9 7.1 C 52.8 7 52.8 6.9 52.7 6.7 C 52.6 6.6 52.6 6.5 52.6 6.5 C 52.6 6.5 52.6 6.4 52.6 6.4 C 52.5 6.4 52.4 6.5 52.2 6.5 C 52.1 6.5 51.9 6.6 51.8 6.6 C 51.8 6.6 51.8 6.6 51.7 6.6 C 51.7 6.6 51.7 6.6 51.7 6.6 Z M 52.4 6.2 C 52.4 6.2 52.4 6.2 52.5 6.2 C 52.5 6.1 52.4 5.9 52.3 5.5 C 52.3 5.5 52.3 5.5 52.3 5.5 C 52.3 5.5 51.8 6.3 51.8 6.3 C 51.9 6.3 52 6.2 52 6.2 C 52.1 6.2 52.2 6.2 52.4 6.2 C 52.4 6.2 52.4 6.2 52.4 6.2 Z M 55 5.3 C 54.7 5.3 54.6 5.3 54.5 5.3 C 54.5 5.3 54.4 5.4 54.4 5.4 C 54.4 5.4 54.4 5.6 54.4 5.9 C 54.3 6.2 54.3 6.4 54.3 6.6 C 54.3 6.7 54.3 6.8 54.4 6.9 C 54.4 6.9 54.4 6.9 54.4 6.9 C 54.4 7 54.3 7 54.3 7.1 C 54.3 7.1 54.2 7.1 54.2 7.1 C 54.2 7.1 54.1 7.1 54.1 7.1 C 54 7 54 7 54 6.9 C 54 6.8 54 6.7 54 6.6 C 54 6.5 54 6.2 54 5.9 C 54.1 5.5 54.1 5.4 54.1 5.4 C 54.1 5.4 54 5.4 53.8 5.4 C 53.6 5.4 53.5 5.4 53.4 5.4 C 53.3 5.4 53.3 5.4 53.2 5.4 C 53.2 5.3 53.2 5.3 53.2 5.3 C 53.2 5.2 53.2 5.2 53.2 5.1 C 53.3 5.1 53.4 5.1 53.5 5.1 C 53.8 5.1 54.1 5.1 54.4 5 C 54.7 5 54.9 5 55.1 5 C 55.2 5 55.4 5 55.4 5 C 55.4 5.1 55.4 5.1 55.4 5.2 C 55.4 5.3 55.4 5.3 55.3 5.3 C 55.3 5.3 55.2 5.3 55.2 5.3 C 55.1 5.3 55.1 5.3 55 5.3 C 55 5.3 55 5.3 55 5.3 Z M 55.7 6.6 C 55.6 6.6 55.6 6.6 55.6 6.6 C 55.5 6.6 55.5 6.7 55.4 6.9 C 55.3 7 55.3 7.1 55.2 7.1 C 55.2 7.1 55.2 7.1 55.1 7.1 C 55.1 7.1 55.1 7.1 55 7.1 C 55 7 54.9 7 54.9 7 C 54.9 6.9 55.1 6.7 55.3 6.3 C 55.4 6.1 55.6 5.9 55.7 5.7 C 55.9 5.3 56 5.1 56.1 5 C 56.1 5 56.2 4.9 56.2 4.9 C 56.3 4.9 56.4 4.9 56.4 5 C 56.4 5 56.4 5 56.4 5.1 C 56.4 5.1 56.4 5.2 56.4 5.2 C 56.6 5.7 56.8 6.1 56.9 6.3 C 57 6.6 57.1 6.7 57.2 6.8 C 57.2 6.9 57.2 6.9 57.3 6.9 C 57.3 6.9 57.3 7 57.3 7 C 57.3 7.1 57.2 7.1 57.2 7.1 C 57.2 7.2 57.1 7.2 57.1 7.2 C 57 7.2 56.9 7.1 56.8 7.1 C 56.8 7 56.7 6.9 56.6 6.7 C 56.6 6.6 56.5 6.5 56.5 6.5 C 56.5 6.5 56.5 6.4 56.5 6.4 C 56.5 6.4 56.3 6.5 56.2 6.5 C 56 6.5 55.8 6.6 55.7 6.6 C 55.7 6.6 55.7 6.6 55.7 6.6 C 55.7 6.6 55.7 6.6 55.7 6.6 Z M 56.3 6.2 C 56.3 6.2 56.4 6.2 56.4 6.2 C 56.4 6.1 56.3 5.9 56.2 5.5 C 56.2 5.5 56.2 5.5 56.2 5.5 C 56.2 5.5 55.8 6.3 55.8 6.3 C 55.8 6.3 55.9 6.2 56 6.2 C 56 6.2 56.1 6.2 56.3 6.2 C 56.3 6.2 56.3 6.2 56.3 6.2 Z M 58.9 7 C 58.8 7 58.8 7 58.7 7 C 58.7 7 58.6 7 58.6 7 C 58.3 7 58.1 7 57.8 7.1 C 57.7 7.1 57.7 7.2 57.6 7.2 C 57.6 7.2 57.5 7.1 57.5 7.1 C 57.4 7 57.4 7 57.4 7 C 57.4 6.9 57.4 6.9 57.5 6.8 C 57.5 6.7 57.5 6.6 57.5 6.5 C 57.5 6.5 57.6 5.3 57.6 5.3 C 57.6 5.2 57.7 5.1 57.7 5.1 C 57.7 5 57.7 5 57.7 5 C 57.8 5 57.8 4.9 57.9 4.9 C 57.9 4.9 58 5 58 5 C 58 5 58 5.1 58 5.1 C 58 5.1 58 5.2 58 5.3 C 58 5.4 58 5.7 57.9 6.1 C 57.9 6.5 57.8 6.7 57.8 6.7 C 57.8 6.7 57.8 6.8 57.9 6.8 C 57.9 6.8 58 6.7 58.2 6.7 C 58.2 6.7 58.3 6.7 58.4 6.7 C 58.6 6.7 58.8 6.7 58.9 6.6 C 58.9 6.6 58.9 6.6 58.9 6.6 C 59 6.6 59 6.6 59.1 6.7 C 59.1 6.7 59.1 6.7 59.1 6.8 C 59.1 6.9 59.1 6.9 59 6.9 C 59 7 58.9 7 58.9 7 Z M 59.7 6.3 C 59.7 6.3 59.7 6.4 59.7 6.7 C 59.7 6.8 59.7 6.9 59.6 7 C 59.6 7.1 59.5 7.2 59.5 7.2 C 59.4 7.2 59.4 7.2 59.3 7.1 C 59.3 7.1 59.3 7 59.3 7 C 59.3 6.9 59.3 6.8 59.3 6.7 C 59.4 6.4 59.4 5.9 59.5 5.1 C 59.5 5 59.5 5 59.6 5 C 59.6 5 59.7 4.9 59.7 4.9 C 59.8 4.9 59.9 5 59.9 5.2 C 59.9 5.2 59.9 5.4 59.8 5.5 C 59.8 5.7 59.8 5.8 59.8 5.9 C 59.8 5.9 59.8 5.9 59.9 5.9 C 60 5.9 60.2 5.9 60.5 5.9 C 60.7 5.9 60.9 5.8 60.9 5.8 C 60.9 5.8 60.9 5.7 60.9 5.5 C 61 5.4 61 5.2 61 5 C 61 5 61 4.9 61 4.9 C 61.1 4.9 61.1 4.8 61.2 4.8 C 61.2 4.8 61.3 4.9 61.3 4.9 C 61.3 4.9 61.4 5 61.4 5 C 61.4 5.1 61.3 5.2 61.3 5.4 C 61.3 5.6 61.2 5.9 61.2 6.2 C 61.2 6.6 61.2 6.8 61.2 6.9 C 61.2 7 61.1 7 61.1 7.1 C 61 7.1 61 7.2 60.9 7.2 C 60.9 7.2 60.9 7.1 60.8 7.1 C 60.8 7.1 60.8 7 60.8 7 C 60.8 6.9 60.8 6.8 60.8 6.6 C 60.8 6.4 60.8 6.3 60.8 6.2 C 60.8 6.2 60.8 6.2 60.8 6.2 C 60.8 6.2 60.7 6.2 60.5 6.2 C 60.4 6.2 60.3 6.2 60.3 6.2 C 60.2 6.2 60.1 6.2 60 6.2 C 59.8 6.2 59.7 6.2 59.7 6.3 Z M 62.1 6.6 C 62.1 6.6 62 6.6 62 6.6 C 62 6.6 61.9 6.7 61.9 6.9 C 61.8 7 61.7 7.1 61.7 7.1 C 61.6 7.1 61.6 7.1 61.6 7.1 C 61.6 7.1 61.5 7.1 61.5 7.1 C 61.4 7 61.4 7 61.4 7 C 61.4 6.9 61.5 6.7 61.8 6.3 C 61.9 6.1 62 5.9 62.1 5.7 C 62.3 5.3 62.5 5.1 62.5 5 C 62.6 5 62.6 4.9 62.7 4.9 C 62.8 4.9 62.8 4.9 62.9 5 C 62.9 5 62.9 5 62.9 5.1 C 62.9 5.1 62.9 5.2 62.9 5.2 C 63.1 5.7 63.2 6.1 63.3 6.3 C 63.4 6.6 63.5 6.7 63.6 6.8 C 63.6 6.9 63.7 6.9 63.7 6.9 C 63.7 6.9 63.7 7 63.7 7 C 63.7 7.1 63.7 7.1 63.7 7.1 C 63.6 7.2 63.6 7.2 63.5 7.2 C 63.4 7.2 63.4 7.1 63.3 7.1 C 63.2 7 63.1 6.9 63.1 6.7 C 63 6.6 63 6.5 63 6.5 C 63 6.5 63 6.4 63 6.4 C 62.9 6.4 62.8 6.5 62.6 6.5 C 62.4 6.5 62.3 6.6 62.2 6.6 C 62.1 6.6 62.1 6.6 62.1 6.6 C 62.1 6.6 62.1 6.6 62.1 6.6 Z M 62.7 6.2 C 62.8 6.2 62.8 6.2 62.8 6.2 C 62.8 6.1 62.8 5.9 62.6 5.5 C 62.6 5.5 62.6 5.5 62.6 5.5 C 62.6 5.5 62.2 6.3 62.2 6.3 C 62.3 6.3 62.3 6.2 62.4 6.2 C 62.4 6.2 62.5 6.2 62.7 6.2 C 62.7 6.2 62.7 6.2 62.7 6.2 Z M 66.7 5.3 C 66.4 5.3 66.2 5.3 66.1 5.3 C 66.1 5.3 66.1 5.4 66.1 5.4 C 66.1 5.4 66.1 5.6 66.1 5.9 C 66 6.2 66 6.4 66 6.6 C 66 6.7 66 6.8 66 6.9 C 66 6.9 66 6.9 66 6.9 C 66 7 66 7 66 7.1 C 66 7.1 65.9 7.1 65.9 7.1 C 65.8 7.1 65.8 7.1 65.8 7.1 C 65.7 7 65.7 7 65.7 6.9 C 65.7 6.8 65.7 6.7 65.7 6.6 C 65.7 6.5 65.7 6.2 65.7 5.9 C 65.7 5.5 65.8 5.4 65.8 5.4 C 65.8 5.4 65.6 5.4 65.5 5.4 C 65.3 5.4 65.1 5.4 65.1 5.4 C 65 5.4 64.9 5.4 64.9 5.4 C 64.9 5.3 64.8 5.3 64.8 5.3 C 64.8 5.2 64.9 5.2 64.9 5.1 C 65 5.1 65.1 5.1 65.2 5.1 C 65.5 5.1 65.8 5.1 66.1 5 C 66.4 5 66.6 5 66.7 5 C 66.9 5 67 5 67.1 5 C 67.1 5.1 67.1 5.1 67.1 5.2 C 67.1 5.3 67.1 5.3 67 5.3 C 67 5.3 66.9 5.3 66.9 5.3 C 66.8 5.3 66.7 5.3 66.7 5.3 C 66.7 5.3 66.7 5.3 66.7 5.3 Z M 67.5 7.2 C 67.4 7.2 67.2 7.1 67.1 6.9 C 67 6.8 66.9 6.6 66.9 6.4 C 66.9 6.2 67 6 67.1 5.8 C 67.2 5.5 67.4 5.3 67.6 5.2 C 67.8 5 68 4.9 68.2 4.9 C 68.3 4.9 68.5 5 68.6 5 C 68.7 5 68.8 5.1 68.9 5.2 C 69 5.2 69 5.3 69.1 5.4 C 69.1 5.5 69.1 5.6 69.1 5.7 C 69.1 5.9 69.1 6 69 6.2 C 68.9 6.4 68.8 6.5 68.6 6.7 C 68.5 6.8 68.3 7 68.2 7 C 68 7.1 67.8 7.2 67.5 7.2 Z M 67.3 6.4 C 67.3 6.6 67.3 6.7 67.4 6.7 C 67.5 6.8 67.5 6.9 67.6 6.9 C 67.9 6.9 68.1 6.7 68.4 6.5 C 68.6 6.2 68.7 6 68.7 5.7 C 68.7 5.6 68.7 5.5 68.7 5.4 C 68.6 5.4 68.6 5.3 68.5 5.3 C 68.4 5.2 68.3 5.2 68.2 5.2 C 68 5.2 67.8 5.4 67.6 5.6 C 67.4 5.9 67.3 6.2 67.3 6.4 Z M 69.4 6.8 C 69.4 6.8 69.4 6.7 69.4 6.6 C 69.4 6.2 69.5 5.9 69.5 5.5 C 69.6 5.4 69.6 5.4 69.6 5.3 C 69.6 5.3 69.6 5.3 69.5 5.3 C 69.4 5.3 69.4 5.2 69.4 5.2 C 69.4 5.1 69.4 5.1 69.5 5 C 69.5 5 69.5 5 69.6 5 C 69.6 5 69.8 5 69.8 5 C 69.9 5 70 5 70.2 5 C 70.3 4.9 70.4 4.9 70.5 4.9 C 70.8 4.9 71 5 71.1 5.2 C 71.3 5.3 71.4 5.5 71.4 5.8 C 71.4 6.1 71.3 6.3 71 6.5 C 70.8 6.8 70.4 6.9 70.1 7 C 70 7 69.9 7 69.9 7.1 C 69.8 7.1 69.8 7.1 69.7 7.1 C 69.7 7.2 69.6 7.2 69.5 7.2 C 69.5 7.2 69.4 7.2 69.4 7.1 C 69.4 7.1 69.3 7 69.3 7 C 69.3 7 69.3 7 69.4 6.9 C 69.4 6.9 69.4 6.8 69.4 6.8 Z M 69.8 6.7 C 69.8 6.7 69.8 6.7 69.8 6.8 C 69.8 6.8 70 6.7 70.2 6.7 C 70.5 6.6 70.7 6.5 70.8 6.3 C 71 6.1 71 6 71 5.8 C 71 5.6 71 5.5 70.9 5.4 C 70.8 5.3 70.6 5.2 70.4 5.2 C 70.3 5.2 70.2 5.2 70 5.3 C 70 5.3 69.9 5.3 69.9 5.3 C 69.8 5.9 69.8 6.4 69.8 6.7 C 69.8 6.7 69.8 6.7 69.8 6.7 Z M 72.2 7.2 C 72 7.2 71.9 7.1 71.8 6.9 C 71.6 6.8 71.6 6.6 71.6 6.4 C 71.6 6.2 71.6 6 71.8 5.8 C 71.9 5.5 72 5.3 72.2 5.2 C 72.4 5 72.6 4.9 72.8 4.9 C 73 4.9 73.1 5 73.2 5 C 73.3 5 73.4 5.1 73.5 5.2 C 73.6 5.2 73.7 5.3 73.7 5.4 C 73.7 5.5 73.8 5.6 73.8 5.7 C 73.8 5.9 73.7 6 73.6 6.2 C 73.6 6.4 73.4 6.5 73.3 6.7 C 73.1 6.8 73 7 72.8 7 C 72.7 7.1 72.5 7.2 72.2 7.2 Z M 72 6.4 C 72 6.6 72 6.7 72.1 6.7 C 72.1 6.8 72.2 6.9 72.3 6.9 C 72.6 6.9 72.8 6.7 73 6.5 C 73.3 6.2 73.4 6 73.4 5.7 C 73.4 5.6 73.4 5.5 73.3 5.4 C 73.3 5.4 73.2 5.3 73.1 5.3 C 73 5.2 72.9 5.2 72.8 5.2 C 72.7 5.2 72.5 5.4 72.3 5.6 C 72.1 5.9 72 6.2 72 6.4 Z M 77.2 5.6 C 77.2 5.5 77.2 5.5 77.2 5.5 C 77.2 5.5 76.7 6.1 76.7 6.1 C 76.5 6.4 76.3 6.6 76.2 6.6 C 76.1 6.6 76.1 6.6 76 6.5 C 76 6.4 75.9 6.3 75.9 6.2 C 75.8 6.1 75.8 6 75.8 5.9 C 75.8 5.7 75.7 5.6 75.7 5.6 C 75.7 5.6 75.6 6 75.6 6 C 75.6 6.1 75.6 6.2 75.6 6.3 C 75.5 6.5 75.5 6.6 75.5 6.7 C 75.5 6.9 75.4 7 75.4 7 C 75.4 7.1 75.4 7.1 75.4 7.1 C 75.3 7.2 75.3 7.2 75.3 7.2 C 75.2 7.2 75.2 7.1 75.1 7.1 C 75.1 7.1 75.1 7 75.1 7 C 75.1 6.9 75.1 6.8 75.1 6.6 C 75.3 6 75.4 5.7 75.4 5.5 C 75.4 5.3 75.4 5.2 75.4 5.1 C 75.4 5.1 75.5 5 75.5 5 C 75.6 5 75.6 5 75.7 5 C 75.7 5 75.8 5 75.8 5 C 75.8 5.1 75.9 5.1 75.9 5.2 C 75.89 5.18 75.9 5.2 75.9 5.2 C 75.9 5.2 76.09 5.75 76.1 5.7 C 76.2 6 76.2 6.1 76.3 6.2 C 76.4 6.1 76.5 5.9 76.7 5.6 C 76.9 5.3 77.1 5.1 77.1 5 C 77.2 5 77.3 4.9 77.3 4.9 C 77.4 4.9 77.4 4.9 77.5 5 C 77.5 5 77.6 5.1 77.6 5.1 C 77.6 5.1 77.5 5.3 77.5 5.5 C 77.5 5.7 77.4 5.9 77.4 6.2 C 77.4 6.4 77.4 6.5 77.4 6.6 C 77.4 6.6 77.4 6.7 77.4 6.8 C 77.4 6.8 77.4 6.8 77.4 6.9 C 77.4 7 77.4 7 77.4 7.1 C 77.3 7.1 77.3 7.1 77.2 7.1 C 77.1 7.1 77 7 77 6.8 C 77 6.7 77 6.4 77.1 6.2 C 77.1 5.9 77.1 5.7 77.2 5.6 C 77.2 5.6 77.2 5.6 77.2 5.6 Z M 79.6 5.3 C 79.6 5.3 79.1 5.3 79.1 5.3 C 79 5.3 78.8 5.3 78.7 5.3 C 78.6 5.3 78.5 5.4 78.5 5.4 C 78.5 5.4 78.5 5.4 78.5 5.5 C 78.5 5.5 78.5 5.6 78.4 5.7 C 78.4 5.8 78.4 5.9 78.4 5.9 C 78.5 5.9 78.6 5.9 78.7 5.9 C 78.8 5.9 78.9 5.9 78.9 5.9 C 79.1 5.9 79.2 5.8 79.2 5.8 C 79.4 5.8 79.5 5.9 79.5 6 C 79.5 6 79.5 6.1 79.4 6.1 C 79.4 6.1 79.3 6.2 79.2 6.2 C 79.2 6.2 79.1 6.2 79 6.2 C 79 6.2 78.9 6.2 78.9 6.2 C 78.6 6.2 78.5 6.3 78.4 6.3 C 78.4 6.3 78.4 6.3 78.4 6.3 C 78.4 6.3 78.4 6.3 78.4 6.3 C 78.4 6.3 78.3 6.4 78.3 6.5 C 78.3 6.7 78.3 6.8 78.3 6.8 C 78.3 6.8 78.3 6.9 78.4 6.9 C 78.4 6.9 78.5 6.8 78.7 6.8 C 78.9 6.8 79.1 6.8 79.1 6.8 C 79.2 6.7 79.3 6.7 79.4 6.7 C 79.5 6.7 79.5 6.8 79.5 6.9 C 79.5 6.9 79.5 7 79.5 7 C 79.4 7 79.3 7.1 79.1 7.1 C 79 7.1 78.8 7.1 78.6 7.1 C 78.4 7.2 78.3 7.2 78.1 7.2 C 78.1 7.2 78 7.2 78 7.1 C 77.9 7.1 77.9 7 77.9 7 C 77.9 7 77.9 6.9 77.9 6.9 C 77.9 6.9 77.9 6.9 77.9 6.8 C 78 6.7 78 6.5 78.1 6 C 78.1 5.6 78.1 5.4 78.1 5.3 C 78.1 5.3 78.1 5.3 78.1 5.3 C 78.1 5.3 78.1 5.3 78.1 5.3 C 78.1 5.2 78.1 5.2 78.1 5.2 C 78.1 5.2 78.1 5.1 78.1 5.1 C 78.1 5.1 78.1 5.1 78.1 5.1 C 78.2 5.1 78.2 5 78.3 5 C 78.3 5 78.3 5 78.4 5.1 C 78.5 5.1 78.7 5 79.2 5 C 79.3 4.9 79.4 4.9 79.4 4.9 C 79.4 4.9 79.4 4.9 79.4 4.9 C 79.6 4.9 79.7 5 79.7 5.1 C 79.7 5.1 79.7 5.2 79.7 5.2 C 79.6 5.2 79.6 5.2 79.6 5.3 Z M 79.2 4.4 C 79.1 4.4 79.1 4.3 79 4.2 C 79 4.3 79 4.3 78.9 4.3 C 78.9 4.4 78.9 4.4 78.9 4.4 C 78.9 4.4 78.9 4.4 78.9 4.4 C 78.9 4.4 78.8 4.4 78.8 4.5 C 78.8 4.5 78.7 4.6 78.6 4.6 C 78.6 4.7 78.6 4.7 78.5 4.7 C 78.5 4.7 78.5 4.7 78.4 4.7 C 78.4 4.7 78.4 4.6 78.4 4.5 C 78.4 4.5 78.4 4.4 78.5 4.4 C 78.5 4.4 78.5 4.4 78.5 4.4 C 78.5 4.4 78.7 4.2 78.7 4.2 C 78.7 4.2 78.8 4.1 78.8 4.1 C 78.9 3.9 79 3.9 79.1 3.9 C 79.1 3.9 79.2 4 79.3 4.1 C 79.3 4.2 79.4 4.2 79.4 4.3 C 79.4 4.3 79.4 4.3 79.4 4.3 C 79.5 4.4 79.5 4.4 79.6 4.5 C 79.6 4.5 79.6 4.5 79.6 4.5 C 79.6 4.6 79.6 4.6 79.6 4.6 C 79.6 4.6 79.6 4.7 79.6 4.7 C 79.6 4.7 79.5 4.7 79.5 4.7 C 79.4 4.7 79.3 4.7 79.3 4.6 C 79.3 4.5 79.2 4.5 79.2 4.4 C 79.2 4.4 79.2 4.4 79.2 4.4 Z M 81.5 5.2 C 81.5 5.4 81.4 5.5 81.2 5.5 C 81.2 5.4 81.2 5.3 81.2 5.3 C 81.1 5.3 81 5.2 80.9 5.2 C 80.8 5.2 80.6 5.3 80.5 5.4 C 80.3 5.4 80.3 5.5 80.3 5.6 C 80.3 5.7 80.3 5.7 80.3 5.8 C 80.4 5.8 80.5 5.9 80.8 5.9 C 81 6 81.2 6.1 81.3 6.2 C 81.4 6.2 81.4 6.3 81.4 6.5 C 81.4 6.6 81.3 6.8 81 7 C 80.7 7.1 80.4 7.2 80.1 7.2 C 80 7.2 79.9 7.2 79.9 7.2 C 79.8 7.1 79.8 7.1 79.8 7 C 79.8 6.9 79.8 6.9 79.8 6.9 C 79.9 6.8 79.9 6.8 79.9 6.8 C 79.9 6.8 80 6.8 80 6.8 C 80.1 6.9 80.2 6.9 80.3 6.9 C 80.4 6.9 80.6 6.8 80.8 6.7 C 81 6.7 81.1 6.6 81.1 6.5 C 81.1 6.5 81 6.4 81 6.4 C 81 6.4 80.9 6.3 80.7 6.3 C 80.5 6.2 80.3 6.1 80.2 6.1 C 80.1 6.1 80 6 80 5.9 C 79.9 5.9 79.9 5.8 79.9 5.7 C 79.9 5.5 80 5.3 80.2 5.2 C 80.4 5 80.7 4.9 81 4.9 C 81.1 4.9 81.3 5 81.4 5 C 81.5 5.1 81.5 5.2 81.5 5.2 C 81.5 5.2 81.5 5.2 81.5 5.2 Z " stroke="none" fill="#000"/>  </g></svg>