<?xml version="1.0" standalone="no"?><!DOCTYPE svg PUBLIC "-//W3C//DTD SVG 1.1//EN" "http://www.w3.org/Graphics/SVG/1.1/DTD/svg11.dtd"><svg xmlns="http://www.w3.org/2000/svg" version="1.1" width="320px" height="174.2px" viewBox="0 -14 320 174.2" style="top:-14px">  <desc>VOTO DISTRITAL PURO A VERDADEIRA DEMOCRACIA</desc>  <defs/>  <g id="Polygon12402">    <path d="M 7.3 120.2 C 7.1 120.2 6.9 120.2 6.8 120 C 6.6 120.3 6.3 120.9 5.7 121.8 C 5.2 122.8 4.8 123.3 4.6 123.4 C 4.3 123.5 4.1 123.6 4 123.6 C 3.7 123.6 3.4 123.4 3.1 123.2 C 2.8 122.9 2.6 122.7 2.6 122.4 C 2.6 122.1 3.4 120.8 5.1 118.3 C 6 116.9 6.8 115.6 7.5 114.2 C 9 111.5 9.9 110 10.2 109.5 C 10.6 109.1 10.9 108.9 11.2 108.9 C 11.8 108.9 12.2 109 12.4 109.3 C 12.6 109.4 12.6 109.6 12.6 110 C 12.6 110.2 12.6 110.4 12.6 110.6 C 13.8 114.2 14.7 116.8 15.4 118.3 C 16 119.8 16.7 120.9 17.4 121.6 C 17.7 121.9 17.9 122.1 18 122.2 C 18.1 122.4 18.1 122.5 18.1 122.7 C 18.1 123.1 18 123.4 17.7 123.6 C 17.5 123.9 17.2 124 16.8 124 C 16.3 124 15.8 123.7 15.3 123.1 C 14.8 122.5 14.3 121.8 13.8 120.8 C 13.4 119.8 13.2 119.2 13.2 119.1 C 13.2 119 13.1 119 13.1 119 C 12.8 119 12 119.2 10.8 119.4 C 9.6 119.6 8.6 119.9 7.8 120.1 C 7.7 120.2 7.5 120.2 7.3 120.2 C 7.3 120.2 7.3 120.2 7.3 120.2 Z M 11.5 117.2 C 11.8 117.1 12.1 117.1 12.4 117 C 12.2 116.7 11.8 115.3 11 112.9 C 10.9 112.7 10.9 112.6 10.8 112.5 C 10.8 112.5 8.1 117.8 8.1 117.8 C 8.5 117.7 8.9 117.7 9.3 117.6 C 9.6 117.6 10.4 117.4 11.5 117.2 C 11.5 117.2 11.5 117.2 11.5 117.2 Z M 42.1 109.7 C 42.1 109.7 42.1 109.8 42.1 109.8 C 42.2 109.8 41.9 110.2 41.4 110.9 C 40.7 112 40.1 112.9 39.6 113.6 C 39.2 114.3 38.3 115.7 37.1 117.7 C 36.4 119 35.9 119.8 35.7 120.1 C 35.1 121 34.7 121.7 34.6 122.2 C 34.5 122.5 34.2 122.8 33.9 123 C 33.5 123.2 33.1 123.3 32.6 123.3 C 32.4 123.3 32.2 123.1 32 122.8 C 31.8 122.4 31.6 121.8 31.2 120.9 C 30.8 119.8 30.3 118.4 29.6 116.6 C 28 112.8 27.3 110.9 27.3 110.7 C 27.3 110.5 27.4 110.2 27.6 109.8 C 27.9 109.4 28.2 109.2 28.6 109.2 C 28.9 109.2 29.2 109.3 29.5 109.5 C 29.7 109.8 29.9 110.4 30.1 111.5 C 30.3 112.2 30.8 113.6 31.5 115.6 C 32.3 117.6 32.9 119.1 33.4 120.1 C 33.5 119.9 33.7 119.6 34 118.9 C 34.1 118.8 34.2 118.7 34.2 118.7 C 35.1 117.2 35.8 115.9 36.4 114.8 C 37.5 112.7 38.5 111.1 39.2 110.1 C 39.9 109.1 40.6 108.6 41.1 108.6 C 41.8 108.6 42.1 108.9 42.1 109.6 C 42.15 109.63 42.1 109.7 42.1 109.7 C 42.1 109.7 42.15 109.71 42.1 109.7 Z M 53.1 111.1 C 53.1 111.1 50.1 111.2 50.1 111.2 C 49.1 111.3 48.2 111.4 47.4 111.5 C 46.6 111.6 46.2 111.7 46.2 111.8 C 46.1 111.9 46.1 112.1 46 112.4 C 46 112.7 45.9 113.3 45.7 114.1 C 45.5 114.8 45.4 115.3 45.4 115.7 C 45.8 115.7 46.4 115.6 47.2 115.5 C 48 115.4 48.5 115.4 48.9 115.3 C 49.8 115.1 50.5 114.9 51 114.9 C 52.1 114.9 52.6 115.3 52.6 115.9 C 52.6 116.3 52.4 116.6 52.1 116.8 C 51.9 117 51.4 117.1 50.8 117.2 C 50.4 117.2 50 117.3 49.5 117.3 C 49.3 117.4 49 117.4 48.6 117.4 C 46.8 117.7 45.7 117.8 45.4 117.9 C 45.4 117.9 45.4 117.9 45.4 117.9 C 45.3 118 45.2 118 45.2 118.2 C 45.1 118.3 45 118.8 44.9 119.6 C 44.7 120.5 44.6 121.1 44.6 121.4 C 44.7 121.6 44.8 121.8 45.1 121.8 C 45.4 121.8 46.2 121.7 47.6 121.5 C 48.9 121.3 49.7 121.2 50 121.1 C 50.9 120.9 51.5 120.9 51.8 120.9 C 52.6 121 53 121.4 53 122 C 53 122.3 52.9 122.5 52.7 122.7 C 52.1 123 51.2 123.2 50 123.2 C 49.1 123.3 48 123.4 46.8 123.6 C 45.6 123.8 44.6 123.9 43.6 123.9 C 43 123.9 42.7 123.8 42.4 123.6 C 42.2 123.4 42.1 123 42 122.5 C 42 122.5 42 122.2 42 122.2 C 42 122.2 42 122 42.1 121.6 C 42.4 120.8 42.7 119 43.1 116.3 C 43.5 113.5 43.7 112 43.7 111.7 C 43.7 111.7 43.7 111.6 43.6 111.6 C 43.6 111.6 43.5 111.4 43.4 111.2 C 43.3 111 43.2 110.8 43.2 110.6 C 43.2 110.5 43.2 110.4 43.3 110.3 C 43.3 110.2 43.4 110 43.7 109.9 C 43.9 109.7 44.2 109.7 44.4 109.7 C 44.7 109.7 45 109.7 45.3 109.7 C 45.9 109.7 47.6 109.5 50.6 109.1 C 51.6 109 52.1 108.9 52.1 108.9 C 52.1 108.9 52.3 108.9 52.3 108.9 C 53.5 108.9 54 109.2 54 110.1 C 54 110.2 53.9 110.4 53.7 110.7 C 53.5 110.9 53.3 111 53.1 111.1 Z M 57 111.4 C 57 111.4 56.86 111.2 56.9 111.2 C 56.6 110.9 56.5 110.6 56.5 110.5 C 56.5 110.2 56.7 109.9 57 109.7 C 57.3 109.4 57.6 109.3 57.9 109.3 C 58 109.3 58.2 109.3 58.3 109.3 C 58.5 109.4 58.6 109.4 58.7 109.4 C 60.6 109.1 61.9 108.9 62.7 108.9 C 64.2 108.9 65.3 109.3 66.2 110 C 67 110.6 67.4 111.5 67.4 112.5 C 67.4 113.5 67 114.4 66.2 115.2 C 65.3 116.1 64.2 116.8 62.8 117.4 C 65.2 119.3 66.9 120.5 68.1 121.2 C 68.5 121.5 68.8 121.8 68.8 122.2 C 68.8 122.5 68.6 122.7 68.3 123 C 68 123.3 67.7 123.4 67.5 123.4 C 67.1 123.4 66.7 123.2 66.2 122.9 C 65.7 122.6 65 122.1 64.1 121.4 C 63.3 120.7 62.8 120.2 62.6 120.1 C 61.4 119.1 60.5 118.4 59.9 118.1 C 59.3 118.1 58.9 117.7 58.9 117 C 58.9 116.7 59.1 116.4 59.4 116.2 C 59.7 116 60 115.9 60.4 115.9 C 60.5 115.9 60.6 115.9 60.8 115.9 C 60.9 115.9 61 116 61 116 C 61.5 116 62.2 115.6 63.3 114.9 C 64.5 114.2 65 113.4 65 112.5 C 65 112 64.8 111.7 64.3 111.3 C 63.9 111 63.3 110.8 62.5 110.8 C 61.7 110.8 61 110.9 60.4 111 C 59.9 111.1 59.6 111.2 59.6 111.2 C 59.5 111.3 59.5 111.4 59.4 111.5 C 59.3 111.7 59.2 112.4 59 113.5 C 58.7 114.7 58.5 116 58.4 117.4 C 58.2 118.8 58.1 119.8 58.1 120.5 C 58.1 120.9 58.1 121.3 58.2 121.6 C 58.2 122 58.3 122.3 58.3 122.5 C 58.3 122.8 58.1 123 57.9 123.3 C 57.6 123.6 57.3 123.7 57 123.7 C 56 123.7 55.6 123.1 55.6 121.8 C 55.6 120.8 55.7 119.4 55.9 117.5 C 56.2 115.7 56.4 114.1 56.7 112.7 C 56.8 112.5 56.8 112.3 56.8 112.1 C 56.85 112.12 57 111.4 57 111.4 Z M 70.7 121.6 C 70.8 121.3 70.8 120.7 70.8 119.9 C 71 117.6 71.3 115.3 71.7 112.8 C 71.8 112.3 71.8 111.9 71.8 111.6 C 71.8 111.5 71.8 111.4 71.7 111.4 C 71 111.2 70.7 110.9 70.7 110.5 C 70.7 110.2 70.8 109.9 71.1 109.6 C 71.4 109.3 71.7 109.2 72 109.2 C 72 109.2 73.3 109.2 73.3 109.2 C 73.9 109.2 74.7 109.2 75.8 109.1 C 76.7 109 77.4 109 77.9 109 C 79.8 109 81.2 109.5 82.4 110.5 C 83.5 111.5 84 112.9 84 114.5 C 84 116.4 83.2 118.1 81.4 119.6 C 79.7 121.1 77.6 122.2 75.2 122.7 C 74.5 122.9 74 123 73.8 123.1 C 73.5 123.2 73.2 123.4 72.8 123.6 C 72.4 123.9 72 124.1 71.5 124.1 C 71.2 124.1 70.9 123.9 70.6 123.6 C 70.4 123.3 70.3 123 70.3 122.8 C 70.3 122.7 70.3 122.5 70.5 122.2 C 70.5 122.2 70.7 121.6 70.7 121.6 Z M 73.2 120.4 C 73.2 120.8 73.2 121 73.2 121.1 C 73.6 121.1 74.6 120.9 76.2 120.4 C 77.8 119.9 79.2 119.1 80.2 118 C 81.2 117 81.7 115.8 81.7 114.5 C 81.7 113.4 81.3 112.5 80.6 111.9 C 79.8 111.3 78.8 110.9 77.6 110.9 C 76.8 110.9 75.8 111 74.6 111.2 C 74.4 111.2 74.3 111.2 74.2 111.2 C 73.5 115.6 73.2 118.6 73.2 120.4 C 73.2 120.4 73.2 120.4 73.2 120.4 Z M 88.4 120.2 C 88.2 120.2 88 120.2 87.8 120 C 87.7 120.3 87.4 120.9 86.8 121.8 C 86.2 122.8 85.8 123.3 85.6 123.4 C 85.4 123.5 85.2 123.6 85 123.6 C 84.8 123.6 84.5 123.4 84.2 123.2 C 83.9 122.9 83.7 122.7 83.7 122.4 C 83.7 122.1 84.5 120.8 86.1 118.3 C 87 116.9 87.8 115.6 88.6 114.2 C 90.1 111.5 91 110 91.3 109.5 C 91.6 109.1 92 108.9 92.3 108.9 C 92.9 108.9 93.3 109 93.5 109.3 C 93.6 109.4 93.7 109.6 93.7 110 C 93.7 110.2 93.7 110.4 93.6 110.6 C 94.8 114.2 95.7 116.8 96.4 118.3 C 97.1 119.8 97.8 120.9 98.4 121.6 C 98.8 121.9 99 122.1 99.1 122.2 C 99.1 122.4 99.2 122.5 99.2 122.7 C 99.2 123.1 99 123.4 98.8 123.6 C 98.5 123.9 98.2 124 97.9 124 C 97.4 124 96.9 123.7 96.4 123.1 C 95.8 122.5 95.4 121.8 94.9 120.8 C 94.5 119.8 94.2 119.2 94.2 119.1 C 94.2 119 94.2 119 94.2 119 C 93.8 119 93 119.2 91.8 119.4 C 90.6 119.6 89.6 119.9 88.9 120.1 C 88.7 120.2 88.6 120.2 88.4 120.2 C 88.4 120.2 88.4 120.2 88.4 120.2 Z M 92.6 117.2 C 92.9 117.1 93.2 117.1 93.4 117 C 93.3 116.7 92.8 115.3 92.1 112.9 C 92 112.7 91.9 112.6 91.9 112.5 C 91.9 112.5 89.1 117.8 89.1 117.8 C 89.6 117.7 90 117.7 90.4 117.6 C 90.7 117.6 91.4 117.4 92.6 117.2 C 92.6 117.2 92.6 117.2 92.6 117.2 Z M 101.3 121.6 C 101.3 121.3 101.4 120.7 101.4 119.9 C 101.6 117.6 101.9 115.3 102.3 112.8 C 102.4 112.3 102.4 111.9 102.4 111.6 C 102.4 111.5 102.4 111.4 102.3 111.4 C 101.6 111.2 101.2 110.9 101.2 110.5 C 101.2 110.2 101.4 109.9 101.7 109.6 C 101.9 109.3 102.2 109.2 102.6 109.2 C 102.6 109.2 103.9 109.2 103.9 109.2 C 104.5 109.2 105.3 109.2 106.3 109.1 C 107.2 109 108 109 108.5 109 C 110.3 109 111.8 109.5 112.9 110.5 C 114.1 111.5 114.6 112.9 114.6 114.5 C 114.6 116.4 113.8 118.1 112 119.6 C 110.3 121.1 108.2 122.2 105.7 122.7 C 105.1 122.9 104.6 123 104.4 123.1 C 104.1 123.2 103.8 123.4 103.4 123.6 C 103 123.9 102.5 124.1 102.1 124.1 C 101.8 124.1 101.5 123.9 101.2 123.6 C 101 123.3 100.8 123 100.8 122.8 C 100.8 122.7 100.9 122.5 101 122.2 C 101 122.2 101.3 121.6 101.3 121.6 Z M 103.8 120.4 C 103.8 120.8 103.8 121 103.8 121.1 C 104.2 121.1 105.1 120.9 106.8 120.4 C 108.4 119.9 109.7 119.1 110.7 118 C 111.8 117 112.3 115.8 112.3 114.5 C 112.3 113.4 111.9 112.5 111.1 111.9 C 110.4 111.3 109.4 110.9 108.2 110.9 C 107.4 110.9 106.3 111 105.2 111.2 C 105 111.2 104.9 111.2 104.8 111.2 C 104.1 115.6 103.8 118.6 103.8 120.4 C 103.8 120.4 103.8 120.4 103.8 120.4 Z M 127.7 111.1 C 127.7 111.1 124.7 111.2 124.7 111.2 C 123.7 111.3 122.8 111.4 122 111.5 C 121.3 111.6 120.8 111.7 120.8 111.8 C 120.7 111.9 120.7 112.1 120.7 112.4 C 120.6 112.7 120.5 113.3 120.3 114.1 C 120.1 114.8 120 115.3 120 115.7 C 120.4 115.7 121 115.6 121.8 115.5 C 122.6 115.4 123.1 115.4 123.5 115.3 C 124.4 115.1 125.1 114.9 125.6 114.9 C 126.7 114.9 127.2 115.3 127.2 115.9 C 127.2 116.3 127 116.6 126.8 116.8 C 126.5 117 126 117.1 125.4 117.2 C 125 117.2 124.6 117.3 124.1 117.3 C 123.9 117.4 123.6 117.4 123.2 117.4 C 121.4 117.7 120.3 117.8 120 117.9 C 120 117.9 120 117.9 120 117.9 C 119.9 118 119.8 118 119.8 118.2 C 119.7 118.3 119.6 118.8 119.5 119.6 C 119.3 120.5 119.2 121.1 119.2 121.4 C 119.3 121.6 119.4 121.8 119.7 121.8 C 120 121.8 120.8 121.7 122.2 121.5 C 123.5 121.3 124.3 121.2 124.6 121.1 C 125.5 120.9 126.1 120.9 126.4 120.9 C 127.2 121 127.6 121.4 127.6 122 C 127.6 122.3 127.5 122.5 127.3 122.7 C 126.7 123 125.8 123.2 124.6 123.2 C 123.7 123.3 122.7 123.4 121.4 123.6 C 120.3 123.8 119.2 123.9 118.2 123.9 C 117.7 123.9 117.3 123.8 117 123.6 C 116.8 123.4 116.7 123 116.6 122.5 C 116.6 122.5 116.6 122.2 116.6 122.2 C 116.6 122.2 116.6 122 116.8 121.6 C 117 120.8 117.3 119 117.7 116.3 C 118.1 113.5 118.3 112 118.3 111.7 C 118.3 111.7 118.3 111.6 118.2 111.6 C 118.2 111.6 118.1 111.4 118 111.2 C 117.9 111 117.8 110.8 117.8 110.6 C 117.8 110.5 117.8 110.4 117.9 110.3 C 117.9 110.2 118 110 118.3 109.9 C 118.5 109.7 118.8 109.7 119 109.7 C 119.3 109.7 119.6 109.7 119.9 109.7 C 120.5 109.7 122.2 109.5 125.2 109.1 C 126.2 109 126.7 108.9 126.8 108.9 C 126.8 108.9 126.9 108.9 126.9 108.9 C 128.1 108.9 128.7 109.2 128.7 110.1 C 128.7 110.2 128.5 110.4 128.3 110.7 C 128.1 110.9 127.9 111 127.7 111.1 Z M 133.7 113.5 C 133.6 114.1 133.5 114.6 133.4 114.9 C 133.4 115.1 133.4 115.6 133.2 116.4 C 133 117.8 132.9 118.7 132.9 119.2 C 132.9 120.1 133 120.9 133.1 121.8 C 133.2 122.4 133 122.8 132.7 123.1 C 132.4 123.4 132.1 123.5 131.7 123.5 C 131.3 123.5 130.9 123.3 130.7 122.9 C 130.5 122.5 130.4 121.8 130.4 120.8 C 130.4 120.2 130.6 118.7 130.9 116.4 C 130.9 116.4 131.4 112.6 131.4 112.6 C 131.6 112.1 131.6 111.5 131.7 111.1 C 131.8 110.3 131.9 109.9 132 109.7 C 132.1 109.6 132.3 109.4 132.6 109.2 C 132.9 109 133.1 108.9 133.3 108.9 C 133.6 108.9 133.9 109.1 134.1 109.4 C 134.3 109.7 134.4 110.1 134.4 110.5 C 134.4 110.5 133.7 113.5 133.7 113.5 Z M 137.9 111.4 C 137.9 111.4 137.76 111.2 137.8 111.2 C 137.6 110.9 137.5 110.6 137.5 110.5 C 137.5 110.2 137.6 109.9 137.9 109.7 C 138.2 109.4 138.5 109.3 138.8 109.3 C 138.9 109.3 139.1 109.3 139.2 109.3 C 139.4 109.4 139.5 109.4 139.6 109.4 C 141.5 109.1 142.8 108.9 143.6 108.9 C 145.1 108.9 146.2 109.3 147.1 110 C 147.9 110.6 148.3 111.5 148.3 112.5 C 148.3 113.5 147.9 114.4 147.1 115.2 C 146.3 116.1 145.1 116.8 143.8 117.4 C 146.1 119.3 147.8 120.5 149 121.2 C 149.4 121.5 149.7 121.8 149.7 122.2 C 149.7 122.5 149.5 122.7 149.2 123 C 148.9 123.3 148.6 123.4 148.4 123.4 C 148 123.4 147.6 123.2 147.1 122.9 C 146.6 122.6 145.9 122.1 145 121.4 C 144.2 120.7 143.7 120.2 143.5 120.1 C 142.3 119.1 141.4 118.4 140.8 118.1 C 140.2 118.1 139.8 117.7 139.8 117 C 139.8 116.7 140 116.4 140.3 116.2 C 140.6 116 140.9 115.9 141.3 115.9 C 141.4 115.9 141.5 115.9 141.7 115.9 C 141.8 115.9 141.9 116 141.9 116 C 142.4 116 143.1 115.6 144.3 114.9 C 145.4 114.2 145.9 113.4 145.9 112.5 C 145.9 112 145.7 111.7 145.2 111.3 C 144.8 111 144.2 110.8 143.4 110.8 C 142.6 110.8 141.9 110.9 141.3 111 C 140.8 111.1 140.5 111.2 140.5 111.2 C 140.4 111.3 140.4 111.4 140.3 111.5 C 140.2 111.7 140.1 112.4 139.9 113.5 C 139.6 114.7 139.4 116 139.3 117.4 C 139.1 118.8 139 119.8 139 120.5 C 139 120.9 139 121.3 139.1 121.6 C 139.2 122 139.2 122.3 139.2 122.5 C 139.2 122.8 139 123 138.8 123.3 C 138.5 123.6 138.2 123.7 137.9 123.7 C 137 123.7 136.5 123.1 136.5 121.8 C 136.5 120.8 136.6 119.4 136.8 117.5 C 137.1 115.7 137.3 114.1 137.6 112.7 C 137.7 112.5 137.7 112.3 137.8 112.1 C 137.75 112.12 137.9 111.4 137.9 111.4 Z M 154.2 120.2 C 154 120.2 153.8 120.2 153.7 120 C 153.6 120.3 153.2 120.9 152.6 121.8 C 152.1 122.8 151.7 123.3 151.5 123.4 C 151.2 123.5 151 123.6 150.9 123.6 C 150.6 123.6 150.4 123.4 150 123.2 C 149.7 122.9 149.5 122.7 149.5 122.4 C 149.5 122.1 150.3 120.8 152 118.3 C 152.9 116.9 153.7 115.6 154.4 114.2 C 155.9 111.5 156.8 110 157.1 109.5 C 157.5 109.1 157.8 108.9 158.1 108.9 C 158.7 108.9 159.1 109 159.3 109.3 C 159.5 109.4 159.5 109.6 159.5 110 C 159.5 110.2 159.5 110.4 159.5 110.6 C 160.7 114.2 161.6 116.8 162.3 118.3 C 162.9 119.8 163.6 120.9 164.3 121.6 C 164.6 121.9 164.8 122.1 164.9 122.2 C 165 122.4 165 122.5 165 122.7 C 165 123.1 164.9 123.4 164.6 123.6 C 164.4 123.9 164.1 124 163.7 124 C 163.2 124 162.7 123.7 162.2 123.1 C 161.7 122.5 161.2 121.8 160.7 120.8 C 160.3 119.8 160.1 119.2 160.1 119.1 C 160.1 119 160.1 119 160 119 C 159.7 119 158.9 119.2 157.7 119.4 C 156.5 119.6 155.5 119.9 154.7 120.1 C 154.6 120.2 154.4 120.2 154.2 120.2 C 154.2 120.2 154.2 120.2 154.2 120.2 Z M 158.4 117.2 C 158.7 117.1 159 117.1 159.3 117 C 159.1 116.7 158.7 115.3 157.9 112.9 C 157.8 112.7 157.8 112.6 157.8 112.5 C 157.8 112.5 155 117.8 155 117.8 C 155.4 117.7 155.8 117.7 156.2 117.6 C 156.5 117.6 157.3 117.4 158.4 117.2 C 158.4 117.2 158.4 117.2 158.4 117.2 Z M 175.1 121.6 C 175.2 121.3 175.2 120.7 175.3 119.9 C 175.4 117.6 175.7 115.3 176.1 112.8 C 176.2 112.3 176.3 111.9 176.3 111.6 C 176.3 111.5 176.2 111.4 176.1 111.4 C 175.4 111.2 175.1 110.9 175.1 110.5 C 175.1 110.2 175.2 109.9 175.5 109.6 C 175.8 109.3 176.1 109.2 176.4 109.2 C 176.4 109.2 177.7 109.2 177.7 109.2 C 178.3 109.2 179.1 109.2 180.2 109.1 C 181.1 109 181.8 109 182.4 109 C 184.2 109 185.6 109.5 186.8 110.5 C 187.9 111.5 188.5 112.9 188.5 114.5 C 188.5 116.4 187.6 118.1 185.9 119.6 C 184.1 121.1 182 122.2 179.6 122.7 C 178.9 122.9 178.5 123 178.2 123.1 C 177.9 123.2 177.6 123.4 177.3 123.6 C 176.8 123.9 176.4 124.1 175.9 124.1 C 175.6 124.1 175.3 123.9 175.1 123.6 C 174.8 123.3 174.7 123 174.7 122.8 C 174.7 122.7 174.7 122.5 174.9 122.2 C 174.9 122.2 175.1 121.6 175.1 121.6 Z M 177.6 120.4 C 177.6 120.8 177.6 121 177.6 121.1 C 178 121.1 179 120.9 180.6 120.4 C 182.2 119.9 183.6 119.1 184.6 118 C 185.6 117 186.1 115.8 186.1 114.5 C 186.1 113.4 185.7 112.5 185 111.9 C 184.2 111.3 183.2 110.9 182 110.9 C 181.2 110.9 180.2 111 179 111.2 C 178.9 111.2 178.7 111.2 178.7 111.2 C 177.9 115.6 177.6 118.6 177.6 120.4 C 177.6 120.4 177.6 120.4 177.6 120.4 Z M 201.6 111.1 C 201.6 111.1 198.6 111.2 198.6 111.2 C 197.5 111.3 196.6 111.4 195.8 111.5 C 195.1 111.6 194.7 111.7 194.6 111.8 C 194.6 111.9 194.5 112.1 194.5 112.4 C 194.5 112.7 194.3 113.3 194.1 114.1 C 194 114.8 193.9 115.3 193.8 115.7 C 194.3 115.7 194.9 115.6 195.6 115.5 C 196.4 115.4 197 115.4 197.3 115.3 C 198.2 115.1 199 114.9 199.5 114.9 C 200.5 114.9 201 115.3 201 115.9 C 201 116.3 200.9 116.6 200.6 116.8 C 200.3 117 199.9 117.1 199.2 117.2 C 198.9 117.2 198.4 117.3 198 117.3 C 197.7 117.4 197.4 117.4 197.1 117.4 C 195.2 117.7 194.2 117.8 193.9 117.9 C 193.9 117.9 193.8 117.9 193.8 117.9 C 193.7 118 193.7 118 193.6 118.2 C 193.5 118.3 193.4 118.8 193.3 119.6 C 193.2 120.5 193.1 121.1 193.1 121.4 C 193.1 121.6 193.3 121.8 193.5 121.8 C 193.8 121.8 194.7 121.7 196 121.5 C 197.3 121.3 198.2 121.2 198.5 121.1 C 199.4 120.9 200 120.9 200.2 120.9 C 201.1 121 201.5 121.4 201.5 122 C 201.5 122.3 201.4 122.5 201.2 122.7 C 200.5 123 199.6 123.2 198.5 123.2 C 197.6 123.3 196.5 123.4 195.2 123.6 C 194.1 123.8 193 123.9 192 123.9 C 191.5 123.9 191.1 123.8 190.9 123.6 C 190.6 123.4 190.5 123 190.5 122.5 C 190.5 122.5 190.4 122.2 190.4 122.2 C 190.4 122.2 190.5 122 190.6 121.6 C 190.9 120.8 191.2 119 191.6 116.3 C 191.9 113.5 192.1 112 192.1 111.7 C 192.1 111.7 192.1 111.6 192.1 111.6 C 192 111.6 191.9 111.4 191.8 111.2 C 191.7 111 191.7 110.8 191.7 110.6 C 191.7 110.5 191.7 110.4 191.7 110.3 C 191.7 110.2 191.9 110 192.1 109.9 C 192.4 109.7 192.6 109.7 192.8 109.7 C 193.1 109.7 193.5 109.7 193.8 109.7 C 194.3 109.7 196.1 109.5 199 109.1 C 200 109 200.6 108.9 200.6 108.9 C 200.6 108.9 200.7 108.9 200.7 108.9 C 201.9 108.9 202.5 109.2 202.5 110.1 C 202.5 110.2 202.4 110.4 202.2 110.7 C 202 110.9 201.8 111 201.6 111.1 Z M 217.7 113.1 C 217.8 112.8 217.8 112.6 217.9 112.4 C 217.9 112.4 214.6 116.8 214.6 116.8 C 213.1 118.9 211.9 120 211.1 120 C 210.8 120 210.4 119.8 210.1 119.3 C 209.8 118.9 209.5 118.2 209.2 117.4 C 208.9 116.5 208.7 115.8 208.6 115.3 C 208.3 114.3 208.1 113.7 208 113.5 C 208 113.5 207.5 116.1 207.5 116.1 C 207.4 116.9 207.2 117.7 207 118.3 C 206.9 119 206.7 119.9 206.5 120.8 C 206.3 121.8 206.2 122.5 206.2 123 C 206.1 123.2 206 123.3 205.7 123.5 C 205.4 123.7 205.2 123.8 205 123.8 C 204.7 123.8 204.4 123.7 204.1 123.4 C 203.9 123.1 203.7 122.8 203.7 122.5 C 203.7 121.9 203.9 121.1 204.1 120.2 C 205.2 116.2 205.8 113.7 206 112.7 C 206.1 111.7 206.2 110.8 206.2 110.2 C 206.2 109.8 206.3 109.5 206.7 109.3 C 207 109.2 207.4 109.1 207.9 109.1 C 208.1 109.1 208.4 109.2 208.7 109.6 C 208.9 109.9 209.1 110.3 209.2 110.6 C 209.18 110.57 209.2 110.6 209.2 110.6 C 209.2 110.6 210.53 114.35 210.5 114.3 C 211.1 115.9 211.4 116.8 211.6 117.2 C 212.3 116.5 213.4 115.2 214.7 113.3 C 216.1 111.4 217.1 110.2 217.6 109.6 C 218.1 109.1 218.4 108.8 218.6 108.8 C 219 108.8 219.3 109 219.7 109.2 C 220.1 109.5 220.3 109.7 220.3 109.9 C 220.3 110 220.2 111 219.9 112.8 C 219.7 114.1 219.6 115.6 219.4 117.2 C 219.3 118.7 219.2 119.7 219.2 120 C 219.2 120.3 219.3 120.7 219.4 121 C 219.4 121.3 219.5 121.6 219.5 121.9 C 219.5 122.5 219.3 122.9 219.1 123.2 C 218.9 123.4 218.5 123.5 218.1 123.5 C 217.2 123.5 216.8 122.9 216.8 121.6 C 216.8 120.4 216.9 118.9 217.1 117.2 C 217.4 115.4 217.6 114.1 217.7 113.1 C 217.7 113.1 217.7 113.1 217.7 113.1 Z M 226.8 123.9 C 225.7 123.9 224.7 123.3 223.9 122.3 C 223 121.2 222.6 120.1 222.6 119 C 222.6 117.7 223 116.2 223.8 114.5 C 224.6 112.9 225.7 111.5 227 110.5 C 228.2 109.4 229.6 108.9 231 108.9 C 232.1 108.9 233 109 233.7 109.3 C 234.4 109.6 235 109.9 235.6 110.4 C 236.2 110.9 236.6 111.5 236.8 112 C 237 112.5 237.1 113.3 237.1 114.2 C 237.1 115 236.9 116 236.3 117.2 C 235.8 118.4 235 119.5 234 120.6 C 233 121.6 232 122.4 230.9 123 C 229.9 123.6 228.5 123.9 226.8 123.9 Z M 225.1 118.9 C 225.1 119.7 225.3 120.4 225.8 120.9 C 226.2 121.4 226.8 121.7 227.4 121.7 C 229.2 121.7 230.8 120.9 232.3 119.2 C 233.9 117.5 234.6 115.7 234.6 113.9 C 234.6 113.2 234.5 112.7 234.2 112.3 C 234 111.8 233.6 111.5 232.9 111.2 C 232.3 111 231.7 110.8 231 110.8 C 229.7 110.8 228.4 111.7 227.1 113.6 C 225.7 115.4 225.1 117.2 225.1 118.9 Z M 247.6 120.5 C 248.3 120 248.7 119.8 249 119.8 C 249.4 119.8 249.7 120 249.7 120.5 C 249.7 121.1 249 121.9 247.5 122.7 C 246.1 123.6 244.7 124 243.4 124 C 242.2 124 241.1 123.7 240.1 122.9 C 239.1 122.1 238.6 121 238.6 119.5 C 238.6 118 239.1 116.3 240.2 114.5 C 241.2 112.6 242.5 111.1 244 110 C 245.6 108.8 247.1 108.2 248.6 108.2 C 249.4 108.2 250.1 108.5 250.6 109 C 251.2 109.5 251.4 110.1 251.4 110.8 C 251.4 111.6 251.4 112.1 251.3 112.5 C 251.1 112.8 250.9 113.1 250.5 113.3 C 250.1 113.5 249.8 113.7 249.6 113.7 C 249.3 113.7 249.1 113.6 248.9 113.4 C 248.7 113.2 248.6 113 248.6 112.7 C 248.6 112.5 248.7 112.2 248.8 111.8 C 248.9 111.4 249 111 249 110.8 C 249 110.3 248.8 110.1 248.5 110.1 C 247.6 110.1 246.5 110.6 245.4 111.6 C 244.2 112.6 243.2 113.9 242.4 115.3 C 241.5 116.8 241.1 118.1 241.1 119.3 C 241.1 120 241.3 120.7 241.8 121.2 C 242.2 121.7 242.8 122 243.7 122 C 244.2 122 244.8 121.8 245.6 121.6 C 246.3 121.3 247 120.9 247.6 120.5 C 247.6 120.5 247.6 120.5 247.6 120.5 Z M 254.3 111.4 C 254.3 111.4 254.17 111.2 254.2 111.2 C 254 110.9 253.9 110.6 253.9 110.5 C 253.9 110.2 254 109.9 254.3 109.7 C 254.7 109.4 254.9 109.3 255.2 109.3 C 255.3 109.3 255.5 109.3 255.7 109.3 C 255.8 109.4 255.9 109.4 256 109.4 C 257.9 109.1 259.3 108.9 260 108.9 C 261.5 108.9 262.6 109.3 263.5 110 C 264.3 110.6 264.7 111.5 264.7 112.5 C 264.7 113.5 264.3 114.4 263.5 115.2 C 262.7 116.1 261.5 116.8 260.2 117.4 C 262.5 119.3 264.2 120.5 265.4 121.2 C 265.9 121.5 266.1 121.8 266.1 122.2 C 266.1 122.5 265.9 122.7 265.6 123 C 265.3 123.3 265 123.4 264.8 123.4 C 264.4 123.4 264 123.2 263.5 122.9 C 263 122.6 262.3 122.1 261.5 121.4 C 260.6 120.7 260.1 120.2 259.9 120.1 C 258.7 119.1 257.8 118.4 257.3 118.1 C 256.6 118.1 256.2 117.7 256.2 117 C 256.2 116.7 256.4 116.4 256.7 116.2 C 257 116 257.3 115.9 257.7 115.9 C 257.8 115.9 258 115.9 258.1 115.9 C 258.2 115.9 258.3 116 258.3 116 C 258.8 116 259.5 115.6 260.7 114.9 C 261.8 114.2 262.4 113.4 262.4 112.5 C 262.4 112 262.1 111.7 261.6 111.3 C 261.2 111 260.6 110.8 259.8 110.8 C 259 110.8 258.3 110.9 257.7 111 C 257.2 111.1 256.9 111.2 256.9 111.2 C 256.8 111.3 256.8 111.4 256.7 111.5 C 256.6 111.7 256.5 112.4 256.3 113.5 C 256.1 114.7 255.9 116 255.7 117.4 C 255.5 118.8 255.4 119.8 255.4 120.5 C 255.4 120.9 255.4 121.3 255.5 121.6 C 255.6 122 255.6 122.3 255.6 122.5 C 255.6 122.8 255.4 123 255.2 123.3 C 254.9 123.6 254.6 123.7 254.3 123.7 C 253.4 123.7 252.9 123.1 252.9 121.8 C 252.9 120.8 253 119.4 253.2 117.5 C 253.5 115.7 253.7 114.1 254 112.7 C 254.1 112.5 254.1 112.3 254.2 112.1 C 254.16 112.12 254.3 111.4 254.3 111.4 Z M 270.7 120.2 C 270.4 120.2 270.2 120.2 270.1 120 C 270 120.3 269.6 120.9 269 121.8 C 268.5 122.8 268.1 123.3 267.9 123.4 C 267.6 123.5 267.4 123.6 267.3 123.6 C 267 123.6 266.8 123.4 266.4 123.2 C 266.1 122.9 265.9 122.7 265.9 122.4 C 265.9 122.1 266.8 120.8 268.4 118.3 C 269.3 116.9 270.1 115.6 270.8 114.2 C 272.3 111.5 273.2 110 273.5 109.5 C 273.9 109.1 274.2 108.9 274.6 108.9 C 275.1 108.9 275.5 109 275.8 109.3 C 275.9 109.4 275.9 109.6 275.9 110 C 275.9 110.2 275.9 110.4 275.9 110.6 C 277.1 114.2 278 116.8 278.7 118.3 C 279.3 119.8 280 120.9 280.7 121.6 C 281 121.9 281.2 122.1 281.3 122.2 C 281.4 122.4 281.4 122.5 281.4 122.7 C 281.4 123.1 281.3 123.4 281 123.6 C 280.8 123.9 280.5 124 280.1 124 C 279.6 124 279.1 123.7 278.6 123.1 C 278.1 122.5 277.6 121.8 277.2 120.8 C 276.7 119.8 276.5 119.2 276.5 119.1 C 276.5 119 276.5 119 276.4 119 C 276.1 119 275.3 119.2 274.1 119.4 C 272.9 119.6 271.9 119.9 271.2 120.1 C 271 120.2 270.8 120.2 270.7 120.2 C 270.7 120.2 270.7 120.2 270.7 120.2 Z M 274.8 117.2 C 275.1 117.1 275.4 117.1 275.7 117 C 275.5 116.7 275.1 115.3 274.3 112.9 C 274.2 112.7 274.2 112.6 274.2 112.5 C 274.2 112.5 271.4 117.8 271.4 117.8 C 271.8 117.7 272.2 117.7 272.6 117.6 C 272.9 117.6 273.7 117.4 274.8 117.2 C 274.8 117.2 274.8 117.2 274.8 117.2 Z M 291.4 120.5 C 292.1 120 292.5 119.8 292.8 119.8 C 293.2 119.8 293.5 120 293.5 120.5 C 293.5 121.1 292.8 121.9 291.3 122.7 C 289.9 123.6 288.5 124 287.2 124 C 286 124 284.9 123.7 283.9 122.9 C 282.9 122.1 282.4 121 282.4 119.5 C 282.4 118 282.9 116.3 284 114.5 C 285 112.6 286.3 111.1 287.8 110 C 289.4 108.8 290.9 108.2 292.4 108.2 C 293.2 108.2 293.9 108.5 294.4 109 C 295 109.5 295.2 110.1 295.2 110.8 C 295.2 111.6 295.2 112.1 295 112.5 C 294.9 112.8 294.7 113.1 294.3 113.3 C 293.9 113.5 293.6 113.7 293.4 113.7 C 293.1 113.7 292.9 113.6 292.7 113.4 C 292.5 113.2 292.4 113 292.4 112.7 C 292.4 112.5 292.5 112.2 292.6 111.8 C 292.7 111.4 292.8 111 292.8 110.8 C 292.8 110.3 292.6 110.1 292.3 110.1 C 291.4 110.1 290.3 110.6 289.2 111.6 C 288 112.6 287 113.9 286.2 115.3 C 285.3 116.8 284.9 118.1 284.9 119.3 C 284.9 120 285.1 120.7 285.6 121.2 C 286 121.7 286.6 122 287.5 122 C 288 122 288.6 121.8 289.4 121.6 C 290.1 121.3 290.8 120.9 291.4 120.5 C 291.4 120.5 291.4 120.5 291.4 120.5 Z M 300.2 113.5 C 300.1 114.1 300 114.6 299.9 114.9 C 299.9 115.1 299.9 115.6 299.7 116.4 C 299.5 117.8 299.4 118.7 299.4 119.2 C 299.4 120.1 299.5 120.9 299.6 121.8 C 299.7 122.4 299.5 122.8 299.2 123.1 C 298.9 123.4 298.6 123.5 298.2 123.5 C 297.8 123.5 297.4 123.3 297.2 122.9 C 297.1 122.5 297 121.8 297 120.8 C 297 120.2 297.1 118.7 297.4 116.4 C 297.4 116.4 297.9 112.6 297.9 112.6 C 298.1 112.1 298.1 111.5 298.2 111.1 C 298.3 110.3 298.4 109.9 298.5 109.7 C 298.6 109.6 298.8 109.4 299.1 109.2 C 299.4 109 299.6 108.9 299.8 108.9 C 300.1 108.9 300.4 109.1 300.6 109.4 C 300.8 109.7 300.9 110.1 300.9 110.5 C 300.9 110.5 300.2 113.5 300.2 113.5 Z M 306.2 120.2 C 306 120.2 305.8 120.2 305.6 120 C 305.5 120.3 305.2 120.9 304.6 121.8 C 304 122.8 303.6 123.3 303.4 123.4 C 303.2 123.5 303 123.6 302.8 123.6 C 302.6 123.6 302.3 123.4 302 123.2 C 301.7 122.9 301.5 122.7 301.5 122.4 C 301.5 122.1 302.3 120.8 303.9 118.3 C 304.8 116.9 305.7 115.6 306.4 114.2 C 307.9 111.5 308.8 110 309.1 109.5 C 309.4 109.1 309.8 108.9 310.1 108.9 C 310.7 108.9 311.1 109 311.3 109.3 C 311.4 109.4 311.5 109.6 311.5 110 C 311.5 110.2 311.5 110.4 311.4 110.6 C 312.6 114.2 313.5 116.8 314.2 118.3 C 314.9 119.8 315.6 120.9 316.3 121.6 C 316.6 121.9 316.8 122.1 316.9 122.2 C 316.9 122.4 317 122.5 317 122.7 C 317 123.1 316.9 123.4 316.6 123.6 C 316.3 123.9 316 124 315.7 124 C 315.2 124 314.7 123.7 314.2 123.1 C 313.6 122.5 313.2 121.8 312.7 120.8 C 312.3 119.8 312 119.2 312 119.1 C 312 119 312 119 312 119 C 311.6 119 310.8 119.2 309.6 119.4 C 308.4 119.6 307.4 119.9 306.7 120.1 C 306.5 120.2 306.4 120.2 306.2 120.2 C 306.2 120.2 306.2 120.2 306.2 120.2 Z M 310.4 117.2 C 310.7 117.1 311 117.1 311.3 117 C 311.1 116.7 310.6 115.3 309.9 112.9 C 309.8 112.7 309.7 112.6 309.7 112.5 C 309.7 112.5 306.9 117.8 306.9 117.8 C 307.4 117.7 307.8 117.7 308.2 117.6 C 308.5 117.6 309.2 117.4 310.4 117.2 C 310.4 117.2 310.4 117.2 310.4 117.2 Z " stroke="none" fill="#fff"/>  </g>  <g id="Polygon12401">    <path d="M 121.4 67.6 C 120 67.9 119.2 68 119.1 68.1 C 118.8 70.5 118.7 72.5 118.7 73.9 C 118.7 74.5 118.5 75 118.1 75.5 C 117.8 75.9 117.3 76.1 116.7 76.1 C 115.5 76.1 114.8 75.4 114.8 73.9 C 114.8 73.1 115.1 70.3 115.7 65.5 C 116.2 61.7 116.5 59.4 116.5 58.7 C 116.5 57.8 116.4 57.4 116.4 57.3 C 115.7 56.9 115.3 56.3 115.3 55.4 C 115.3 54.5 116.7 53.8 119.6 53.1 C 122.4 52.5 124.8 52.1 126.8 52.1 C 129.2 52.1 131 52.6 132.4 53.6 C 133.8 54.5 134.5 55.9 134.5 57.5 C 134.5 59.9 133.3 62 130.7 63.8 C 128.1 65.6 125 66.8 121.4 67.6 C 121.4 67.6 121.4 67.6 121.4 67.6 Z M 126.7 55.2 C 124.8 55.2 122.7 55.6 120.4 56.4 C 120.4 56.4 119.5 64.6 119.5 64.6 C 122.5 64.1 125.2 63.2 127.4 61.9 C 129.7 60.7 130.8 59.3 130.8 57.8 C 130.8 56.1 129.5 55.2 126.7 55.2 C 126.7 55.2 126.7 55.2 126.7 55.2 Z M 145.6 76.2 C 144.5 76.2 143.2 75.9 141.7 75.2 C 140.2 74.5 139 73.3 138.2 71.6 C 137.4 70 137 68.2 137 66.2 C 137 65.2 137.2 63.9 137.5 62.3 C 137.5 62.3 138 59.4 138 59.4 C 138 58.9 138.1 58.4 138.2 58 C 138.3 57.3 138.4 56.6 138.5 55.9 C 138.7 54.7 138.9 53.9 139.3 53.3 C 139.7 52.7 140.2 52.4 141 52.4 C 141.4 52.4 141.7 52.7 142.1 53.3 C 142.5 53.9 142.7 54.4 142.7 54.7 C 142.7 54.9 142.5 56 142 58.1 C 141.8 58.6 141.6 59.9 141.3 61.9 C 141 64 140.9 65.3 140.9 66 C 140.9 68.7 141.4 70.5 142.6 71.4 C 143.8 72.3 144.7 72.8 145.5 72.8 C 148.2 72.8 150 72.2 151 71.1 C 152 70 152.7 68.1 153 65.6 C 153 65.1 153.1 64.7 153.1 64.3 C 153.3 63.2 153.3 62.2 153.4 61.2 C 153.7 57.5 154 55.2 154.5 54.3 C 155 53.4 155.6 52.9 156.5 52.9 C 157.6 52.9 158.1 53.6 158.1 55 C 158.1 55.8 157.9 57.4 157.5 59.7 C 157.3 61 157.1 62.4 157.1 63.7 C 156.9 66.8 156.4 69.2 155.8 70.6 C 155.1 72.1 153.9 73.4 152.1 74.5 C 150.3 75.7 148.1 76.2 145.6 76.2 Z M 163.5 56.4 C 163.5 56.4 163.32 56 163.3 56 C 163 55.5 162.8 55.1 162.8 54.8 C 162.8 54.3 163.1 53.9 163.6 53.5 C 164.1 53.2 164.6 53 165 53 C 165.2 53 165.4 53 165.7 53 C 166 53.1 166.2 53.1 166.2 53.1 C 169.3 52.6 171.5 52.4 172.7 52.4 C 175 52.4 176.9 52.9 178.2 54 C 179.6 55.1 180.2 56.5 180.2 58.1 C 180.2 59.6 179.6 61.1 178.2 62.5 C 176.9 63.9 175.1 65 172.9 65.9 C 176.6 68.9 179.4 71 181.3 72.1 C 182 72.5 182.4 73 182.4 73.6 C 182.4 74.1 182.1 74.5 181.6 74.9 C 181.2 75.3 180.7 75.5 180.3 75.5 C 179.7 75.5 179 75.3 178.2 74.7 C 177.5 74.2 176.4 73.4 175 72.3 C 173.6 71.2 172.8 70.5 172.5 70.3 C 170.6 68.6 169.1 67.5 168.3 67 C 167.2 67 166.6 66.4 166.6 65.3 C 166.6 64.8 166.8 64.4 167.3 64 C 167.8 63.6 168.4 63.5 169 63.5 C 169.2 63.5 169.4 63.5 169.6 63.5 C 169.8 63.6 169.9 63.6 170 63.6 C 170.7 63.6 171.9 63.1 173.7 62 C 175.5 60.8 176.4 59.6 176.4 58.1 C 176.4 57.4 176 56.7 175.3 56.2 C 174.5 55.7 173.6 55.4 172.4 55.4 C 171 55.4 169.9 55.5 169 55.7 C 168.2 55.9 167.7 56 167.7 56 C 167.6 56.1 167.5 56.3 167.4 56.5 C 167.3 56.8 167 57.9 166.7 59.7 C 166.3 61.6 166 63.7 165.7 65.9 C 165.4 68.2 165.3 69.8 165.3 70.9 C 165.3 71.6 165.3 72.2 165.4 72.7 C 165.5 73.3 165.6 73.7 165.6 74.1 C 165.6 74.5 165.4 74.9 164.9 75.3 C 164.5 75.8 164 76 163.5 76 C 162 76 161.3 75 161.3 73 C 161.3 71.4 161.5 69.1 161.8 66.2 C 162.2 63.2 162.6 60.7 163.1 58.4 C 163.2 58.1 163.3 57.8 163.3 57.5 C 163.3 57.48 163.5 56.4 163.5 56.4 Z M 190.8 76.3 C 189 76.3 187.4 75.4 186.1 73.7 C 184.7 72 184 70.3 184 68.5 C 184 66.4 184.7 64 186 61.3 C 187.3 58.7 189 56.5 191 54.8 C 193.1 53.2 195.2 52.3 197.5 52.3 C 199.2 52.3 200.6 52.5 201.8 53 C 202.9 53.4 203.9 54 204.9 54.8 C 205.8 55.6 206.5 56.4 206.8 57.3 C 207.1 58.1 207.3 59.3 207.3 60.8 C 207.3 62.2 206.8 63.8 206 65.6 C 205.2 67.5 203.9 69.3 202.3 71 C 200.7 72.7 199 74 197.4 74.9 C 195.7 75.8 193.5 76.3 190.8 76.3 Z M 188 68.3 C 188 69.6 188.4 70.7 189.1 71.5 C 189.9 72.4 190.8 72.8 191.7 72.8 C 194.5 72.8 197.2 71.5 199.6 68.8 C 202 66.1 203.3 63.3 203.3 60.3 C 203.3 59.2 203.1 58.3 202.7 57.7 C 202.3 57 201.6 56.5 200.6 56.1 C 199.6 55.6 198.6 55.4 197.5 55.4 C 195.5 55.4 193.4 56.9 191.2 59.8 C 189.1 62.7 188 65.5 188 68.3 Z " stroke="none" fill="#fff"/>  </g>  <g id="Polygon12400">    <path d="M 43.4 5.6 C 43.4 5.7 43.4 5.7 43.4 5.7 C 43.4 5.8 43 6.5 42.2 7.6 C 41 9.3 40 10.7 39.3 11.9 C 38.6 13 37.3 15.2 35.3 18.5 C 34.2 20.5 33.4 21.7 33 22.3 C 32.1 23.7 31.5 24.8 31.3 25.6 C 31.1 26.1 30.7 26.5 30.2 26.8 C 29.6 27.1 28.9 27.3 28.2 27.3 C 27.8 27.3 27.5 27 27.2 26.5 C 26.9 26 26.5 25 25.9 23.6 C 25.3 21.8 24.4 19.5 23.2 16.6 C 20.8 10.6 19.6 7.5 19.6 7.3 C 19.6 6.9 19.8 6.4 20.2 5.8 C 20.5 5.1 21 4.8 21.7 4.8 C 22.2 4.8 22.7 5 23.1 5.4 C 23.5 5.7 23.9 6.8 24.2 8.5 C 24.4 9.7 25.2 11.9 26.4 15.1 C 27.7 18.3 28.7 20.7 29.4 22.2 C 29.5 22 29.9 21.4 30.4 20.4 C 30.5 20.2 30.6 20 30.7 20 C 32.1 17.7 33.3 15.6 34.3 13.8 C 36 10.4 37.5 7.9 38.7 6.3 C 39.9 4.6 40.9 3.8 41.7 3.8 C 42.8 3.8 43.4 4.4 43.4 5.5 C 43.39 5.5 43.4 5.6 43.4 5.6 C 43.4 5.6 43.39 5.63 43.4 5.6 Z M 49 28.3 C 47.2 28.3 45.6 27.4 44.3 25.7 C 42.9 24 42.2 22.3 42.2 20.5 C 42.2 18.4 42.9 16 44.2 13.3 C 45.5 10.7 47.2 8.5 49.2 6.8 C 51.3 5.2 53.4 4.3 55.7 4.3 C 57.4 4.3 58.8 4.5 60 5 C 61.1 5.4 62.1 6 63.1 6.8 C 64 7.6 64.7 8.4 65 9.3 C 65.3 10.1 65.5 11.3 65.5 12.8 C 65.5 14.2 65 15.8 64.2 17.6 C 63.3 19.5 62.1 21.3 60.5 23 C 58.9 24.7 57.2 26 55.5 26.9 C 53.9 27.8 51.7 28.3 49 28.3 Z M 46.2 20.3 C 46.2 21.6 46.6 22.7 47.3 23.5 C 48.1 24.4 48.9 24.8 49.9 24.8 C 52.7 24.8 55.3 23.5 57.8 20.8 C 60.2 18.1 61.5 15.3 61.5 12.3 C 61.5 11.2 61.3 10.3 60.9 9.7 C 60.5 9 59.8 8.5 58.8 8.1 C 57.8 7.6 56.8 7.4 55.7 7.4 C 53.6 7.4 51.6 8.9 49.4 11.8 C 47.3 14.7 46.2 17.5 46.2 20.3 Z M 85.9 8.1 C 83.3 8.1 81.5 8.3 80.5 8.7 C 80.4 8.7 80.3 9 80.2 9.4 C 80.1 9.7 79.9 11.5 79.6 14.7 C 79.2 17.9 79 20.5 79 22.4 C 79 23.2 79.1 24.1 79.3 25.1 C 79.4 25.2 79.4 25.4 79.4 25.6 C 79.4 26.1 79.2 26.6 78.9 27.1 C 78.6 27.5 78.2 27.8 77.7 27.8 C 77.3 27.8 76.9 27.6 76.4 27.2 C 75.8 26.9 75.5 26.3 75.4 25.5 C 75.3 24.7 75.3 23.6 75.3 22.3 C 75.3 20.6 75.5 17.9 75.9 14.4 C 76.3 10.9 76.5 9.1 76.6 9 C 76.3 9 75.2 9.1 73.1 9.2 C 71.1 9.4 69.9 9.5 69.5 9.5 C 68.5 9.5 67.7 9.3 67.3 9.1 C 66.9 8.8 66.7 8.3 66.7 7.8 C 66.7 7.2 66.9 6.8 67.4 6.5 C 67.8 6.3 68.9 6.1 70.7 6.1 C 73.7 6.1 76.7 5.9 79.5 5.5 C 82.8 5 85.3 4.8 86.9 4.8 C 88.8 4.8 90 5 90.4 5.4 C 90.8 5.9 91 6.3 91 6.8 C 91 7.8 90.5 8.3 89.6 8.3 C 89.3 8.3 88.9 8.2 88.2 8.2 C 87.6 8.1 86.8 8.1 85.9 8.1 C 85.9 8.1 85.9 8.1 85.9 8.1 Z M 96.1 28.3 C 94.4 28.3 92.8 27.4 91.4 25.7 C 90.1 24 89.4 22.3 89.4 20.5 C 89.4 18.4 90 16 91.3 13.3 C 92.6 10.7 94.3 8.5 96.4 6.8 C 98.4 5.2 100.6 4.3 102.8 4.3 C 104.6 4.3 106 4.5 107.1 5 C 108.3 5.4 109.3 6 110.3 6.8 C 111.2 7.6 111.8 8.4 112.2 9.3 C 112.5 10.1 112.6 11.3 112.6 12.8 C 112.6 14.2 112.2 15.8 111.4 17.6 C 110.5 19.5 109.3 21.3 107.7 23 C 106 24.7 104.4 26 102.7 26.9 C 101 27.8 98.8 28.3 96.1 28.3 Z M 93.3 20.3 C 93.3 21.6 93.7 22.7 94.5 23.5 C 95.2 24.4 96.1 24.8 97.1 24.8 C 99.9 24.8 102.5 23.5 105 20.8 C 107.4 18.1 108.6 15.3 108.6 12.3 C 108.6 11.2 108.4 10.3 108 9.7 C 107.6 9 106.9 8.5 106 8.1 C 105 7.6 103.9 7.4 102.8 7.4 C 100.8 7.4 98.7 8.9 96.6 11.8 C 94.4 14.7 93.3 17.5 93.3 20.3 Z M 129.3 24.7 C 129.4 24.2 129.5 23.2 129.5 21.9 C 129.8 18.3 130.2 14.5 130.9 10.5 C 131 9.7 131.1 9.1 131.1 8.6 C 131.1 8.5 131 8.3 130.9 8.3 C 129.8 8 129.2 7.5 129.2 6.8 C 129.2 6.3 129.4 5.9 129.9 5.4 C 130.4 5 130.8 4.8 131.3 4.8 C 131.3 4.8 133.5 4.8 133.5 4.8 C 134.4 4.8 135.7 4.8 137.4 4.6 C 138.8 4.5 140 4.4 140.9 4.4 C 143.8 4.4 146.1 5.3 147.9 6.9 C 149.7 8.5 150.6 10.7 150.6 13.4 C 150.6 16.4 149.3 19.1 146.5 21.5 C 143.7 23.9 140.4 25.6 136.4 26.5 C 135.4 26.7 134.6 26.9 134.2 27 C 133.8 27.2 133.3 27.5 132.7 27.8 C 132 28.3 131.3 28.6 130.6 28.6 C 130.1 28.6 129.6 28.3 129.2 27.8 C 128.8 27.3 128.6 26.9 128.6 26.6 C 128.6 26.3 128.7 26 128.9 25.6 C 128.9 25.6 129.3 24.7 129.3 24.7 Z M 133.3 22.8 C 133.3 23.3 133.3 23.7 133.3 23.9 C 133.9 23.9 135.5 23.5 138.1 22.7 C 140.7 21.9 142.8 20.6 144.4 19 C 146.1 17.3 146.9 15.4 146.9 13.2 C 146.9 11.5 146.3 10.1 145.1 9.1 C 143.9 8.1 142.3 7.6 140.3 7.6 C 139 7.6 137.4 7.7 135.5 8 C 135.3 8 135.1 8 135 8 C 133.8 15 133.3 19.9 133.3 22.8 C 133.3 22.8 133.3 22.8 133.3 22.8 Z M 159.4 11.7 C 159.1 12.6 159 13.4 158.9 14 C 158.9 14.3 158.8 15 158.6 16.3 C 158.3 18.5 158.1 20 158.1 20.8 C 158.1 22.2 158.2 23.6 158.3 24.9 C 158.5 25.9 158.3 26.6 157.8 27 C 157.2 27.5 156.7 27.7 156.2 27.7 C 155.4 27.7 154.9 27.4 154.6 26.7 C 154.3 26.1 154.1 25 154.1 23.4 C 154.1 22.4 154.4 20.1 154.9 16.4 C 154.9 16.4 155.7 10.3 155.7 10.3 C 155.9 9.4 156 8.6 156.1 7.8 C 156.3 6.6 156.4 5.9 156.6 5.7 C 156.8 5.4 157.1 5.1 157.6 4.8 C 158 4.5 158.4 4.4 158.6 4.4 C 159.2 4.4 159.7 4.6 160 5.1 C 160.3 5.6 160.5 6.2 160.5 6.9 C 160.5 6.9 159.4 11.7 159.4 11.7 Z M 181.3 7.6 C 181.3 9.5 180.3 10.4 178.3 10.4 C 178.3 9.4 178 8.6 177.5 8.2 C 176.9 7.8 176.1 7.6 175.1 7.6 C 173.3 7.6 171.7 8.1 170.2 8.9 C 168.7 9.8 168 10.7 168 11.8 C 168 12.4 168.2 13 168.8 13.4 C 169.4 13.9 170.8 14.5 173.2 15.2 C 175.7 15.9 177.5 16.7 178.7 17.5 C 179.9 18.4 180.5 19.4 180.5 20.6 C 180.5 22.7 179 24.5 175.9 26.2 C 172.9 27.8 169.7 28.7 166.4 28.7 C 165.3 28.7 164.5 28.4 163.8 28 C 163.2 27.6 162.8 27 162.8 26.3 C 162.8 25.8 163 25.3 163.3 24.9 C 163.6 24.4 163.9 24.2 164.3 24.2 C 164.6 24.2 164.8 24.3 165 24.3 C 166.1 24.8 167.1 25 168.1 25 C 169.7 25 171.5 24.6 173.6 23.7 C 175.6 22.8 176.6 21.9 176.6 21 C 176.6 20.6 176.3 20.3 175.8 19.9 C 175.3 19.6 174.3 19.2 172.8 18.7 C 170.5 17.9 168.8 17.3 167.6 16.8 C 166.5 16.4 165.6 15.7 165.1 15 C 164.5 14.2 164.2 13.3 164.2 12.2 C 164.2 10.2 165.3 8.4 167.6 6.7 C 169.8 5 172.5 4.2 175.6 4.2 C 177.3 4.2 178.7 4.6 179.7 5.3 C 180.8 5.9 181.3 6.7 181.3 7.6 C 181.3 7.6 181.3 7.6 181.3 7.6 Z M 201.6 8.1 C 199 8.1 197.2 8.3 196.2 8.7 C 196.1 8.7 196 9 195.9 9.4 C 195.8 9.7 195.6 11.5 195.3 14.7 C 194.9 17.9 194.8 20.5 194.8 22.4 C 194.8 23.2 194.8 24.1 195 25.1 C 195.1 25.2 195.1 25.4 195.1 25.6 C 195.1 26.1 194.9 26.6 194.6 27.1 C 194.3 27.5 193.9 27.8 193.4 27.8 C 193 27.8 192.6 27.6 192.1 27.2 C 191.5 26.9 191.2 26.3 191.1 25.5 C 191 24.7 191 23.6 191 22.3 C 191 20.6 191.2 17.9 191.6 14.4 C 192 10.9 192.2 9.1 192.3 9 C 192 9 190.9 9.1 188.8 9.2 C 186.8 9.4 185.6 9.5 185.3 9.5 C 184.2 9.5 183.4 9.3 183 9.1 C 182.6 8.8 182.4 8.3 182.4 7.8 C 182.4 7.2 182.6 6.8 183.1 6.5 C 183.5 6.3 184.6 6.1 186.4 6.1 C 189.4 6.1 192.4 5.9 195.3 5.5 C 198.5 5 201 4.8 202.6 4.8 C 204.5 4.8 205.7 5 206.1 5.4 C 206.5 5.9 206.7 6.3 206.7 6.8 C 206.7 7.8 206.2 8.3 205.3 8.3 C 205 8.3 204.6 8.2 203.9 8.2 C 203.3 8.1 202.5 8.1 201.6 8.1 C 201.6 8.1 201.6 8.1 201.6 8.1 Z M 207.9 8.4 C 207.9 8.4 207.66 8 207.7 8 C 207.3 7.5 207.2 7.1 207.2 6.8 C 207.2 6.3 207.4 5.9 207.9 5.5 C 208.4 5.2 208.9 5 209.3 5 C 209.5 5 209.7 5 210 5 C 210.3 5.1 210.5 5.1 210.6 5.1 C 213.6 4.6 215.8 4.4 217 4.4 C 219.4 4.4 221.2 4.9 222.5 6 C 223.9 7.1 224.6 8.5 224.6 10.1 C 224.6 11.6 223.9 13.1 222.6 14.5 C 221.2 15.9 219.5 17 217.2 17.9 C 220.9 20.9 223.8 23 225.7 24.1 C 226.3 24.5 226.7 25 226.7 25.6 C 226.7 26.1 226.5 26.5 226 26.9 C 225.5 27.3 225.1 27.5 224.6 27.5 C 224 27.5 223.3 27.3 222.6 26.7 C 221.8 26.2 220.7 25.4 219.3 24.3 C 217.9 23.2 217.1 22.5 216.9 22.3 C 214.9 20.6 213.5 19.5 212.6 19 C 211.5 19 210.9 18.4 210.9 17.3 C 210.9 16.8 211.2 16.4 211.7 16 C 212.2 15.6 212.7 15.5 213.3 15.5 C 213.5 15.5 213.7 15.5 213.9 15.5 C 214.1 15.6 214.3 15.6 214.3 15.6 C 215 15.6 216.2 15.1 218 14 C 219.8 12.8 220.8 11.6 220.8 10.1 C 220.8 9.4 220.4 8.7 219.6 8.2 C 218.9 7.7 217.9 7.4 216.7 7.4 C 215.3 7.4 214.2 7.5 213.4 7.7 C 212.5 7.9 212.1 8 212 8 C 211.9 8.1 211.8 8.3 211.7 8.5 C 211.6 8.8 211.4 9.9 211 11.7 C 210.7 13.6 210.4 15.7 210.1 17.9 C 209.8 20.2 209.6 21.8 209.6 22.9 C 209.6 23.6 209.7 24.2 209.8 24.7 C 209.9 25.3 209.9 25.7 209.9 26.1 C 209.9 26.5 209.7 26.9 209.3 27.3 C 208.8 27.8 208.3 28 207.8 28 C 206.4 28 205.6 27 205.6 25 C 205.6 23.4 205.8 21.1 206.2 18.2 C 206.5 15.2 207 12.7 207.5 10.4 C 207.5 10.1 207.6 9.8 207.6 9.5 C 207.64 9.48 207.9 8.4 207.9 8.4 Z M 234.5 11.7 C 234.3 12.6 234.1 13.4 234.1 14 C 234.1 14.3 234 15 233.8 16.3 C 233.4 18.5 233.3 20 233.3 20.8 C 233.3 22.2 233.3 23.6 233.5 24.9 C 233.6 25.9 233.4 26.6 232.9 27 C 232.4 27.5 231.9 27.7 231.3 27.7 C 230.6 27.7 230.1 27.4 229.8 26.7 C 229.5 26.1 229.3 25 229.3 23.4 C 229.3 22.4 229.5 20.1 230 16.4 C 230 16.4 230.9 10.3 230.9 10.3 C 231.1 9.4 231.2 8.6 231.3 7.8 C 231.4 6.6 231.6 5.9 231.7 5.7 C 231.9 5.4 232.3 5.1 232.7 4.8 C 233.2 4.5 233.5 4.4 233.8 4.4 C 234.4 4.4 234.8 4.6 235.2 5.1 C 235.5 5.6 235.6 6.2 235.6 6.9 C 235.6 6.9 234.5 11.7 234.5 11.7 Z M 256.4 8.1 C 253.8 8.1 251.9 8.3 250.9 8.7 C 250.8 8.7 250.8 9 250.7 9.4 C 250.6 9.7 250.4 11.5 250.1 14.7 C 249.7 17.9 249.5 20.5 249.5 22.4 C 249.5 23.2 249.6 24.1 249.8 25.1 C 249.9 25.2 249.9 25.4 249.9 25.6 C 249.9 26.1 249.7 26.6 249.4 27.1 C 249.1 27.5 248.7 27.8 248.1 27.8 C 247.8 27.8 247.4 27.6 246.8 27.2 C 246.3 26.9 246 26.3 245.9 25.5 C 245.8 24.7 245.7 23.6 245.7 22.3 C 245.7 20.6 245.9 17.9 246.4 14.4 C 246.8 10.9 247 9.1 247.1 9 C 246.8 9 245.7 9.1 243.6 9.2 C 241.6 9.4 240.4 9.5 240 9.5 C 239 9.5 238.2 9.3 237.8 9.1 C 237.4 8.8 237.2 8.3 237.2 7.8 C 237.2 7.2 237.4 6.8 237.8 6.5 C 238.3 6.3 239.4 6.1 241.2 6.1 C 244.2 6.1 247.1 5.9 250 5.5 C 253.3 5 255.7 4.8 257.4 4.8 C 259.3 4.8 260.4 5 260.8 5.4 C 261.3 5.9 261.5 6.3 261.5 6.8 C 261.5 7.8 261 8.3 260.1 8.3 C 259.8 8.3 259.3 8.2 258.7 8.2 C 258 8.1 257.3 8.1 256.4 8.1 C 256.4 8.1 256.4 8.1 256.4 8.1 Z M 264.3 22.4 C 263.9 22.4 263.6 22.3 263.4 22.1 C 263.2 22.6 262.6 23.5 261.7 25 C 260.8 26.5 260.2 27.4 259.8 27.5 C 259.5 27.7 259.2 27.8 258.9 27.8 C 258.5 27.8 258.1 27.6 257.5 27.2 C 257 26.8 256.8 26.3 256.8 25.9 C 256.8 25.5 258.1 23.3 260.7 19.3 C 262.1 17.2 263.4 15 264.6 12.9 C 266.9 8.5 268.4 6 268.9 5.3 C 269.4 4.6 270 4.3 270.5 4.3 C 271.4 4.3 272.1 4.5 272.5 5 C 272.7 5.1 272.8 5.5 272.8 6 C 272.8 6.4 272.7 6.8 272.6 7 C 274.5 12.8 276 16.9 277.1 19.3 C 278.2 21.7 279.3 23.5 280.4 24.6 C 280.9 25.1 281.2 25.5 281.4 25.7 C 281.5 25.9 281.5 26.1 281.5 26.4 C 281.5 27 281.3 27.5 280.9 27.9 C 280.5 28.3 280 28.5 279.4 28.5 C 278.6 28.5 277.8 28 277 27.1 C 276.2 26.2 275.4 24.9 274.7 23.3 C 274 21.7 273.6 20.8 273.6 20.6 C 273.6 20.6 273.6 20.5 273.5 20.5 C 273 20.5 271.7 20.7 269.8 21.1 C 267.8 21.5 266.3 21.9 265.1 22.3 C 264.8 22.4 264.5 22.4 264.3 22.4 C 264.3 22.4 264.3 22.4 264.3 22.4 Z M 271 17.6 C 271.4 17.5 271.9 17.4 272.4 17.4 C 272.1 16.7 271.4 14.6 270.1 10.8 C 270 10.5 269.9 10.2 269.9 10.1 C 269.9 10.1 265.5 18.6 265.5 18.6 C 266.1 18.5 266.8 18.4 267.5 18.3 C 267.9 18.2 269.1 18 271 17.6 C 271 17.6 271 17.6 271 17.6 Z M 299.2 26.4 C 298.9 26.4 298.5 26.4 297.9 26.3 C 297.2 26.3 296.8 26.3 296.5 26.3 C 293.7 26.3 290.9 26.7 288.2 27.5 C 287.1 27.9 286.3 28.1 285.9 28.1 C 285.2 28.1 284.7 27.8 284.4 27.3 C 284 26.8 283.8 26.3 283.8 25.9 C 283.8 25.7 283.9 25.2 284.1 24.4 C 284.4 23.5 284.6 22.4 284.7 21.2 C 284.7 21.2 286.1 8.2 286.1 8.2 C 286.2 7 286.3 6.2 286.4 5.8 C 286.5 5.4 286.7 5.1 287.1 4.8 C 287.5 4.5 288 4.4 288.6 4.4 C 289.1 4.4 289.5 4.6 289.9 5 C 290.3 5.3 290.5 5.7 290.5 6.2 C 290.5 6.6 290.4 7.3 290.2 8.3 C 289.9 9.8 289.5 12.6 289 16.7 C 288.5 20.8 288.3 23 288.3 23.3 C 288.3 23.6 288.3 23.7 288.5 23.7 C 288.8 23.7 289.9 23.6 291.7 23.3 C 292.6 23.2 293.4 23.1 294.3 23 C 296.7 22.9 298.4 22.8 299.4 22.5 C 299.7 22.4 299.9 22.4 300.1 22.4 C 300.6 22.4 301.1 22.6 301.4 22.9 C 301.7 23.3 301.9 23.7 301.9 24.1 C 301.9 24.8 301.6 25.4 301.1 25.8 C 300.5 26.2 299.9 26.4 299.2 26.4 Z " stroke="none" fill="#fff"/>  </g></svg>