<?xml version="1.0" standalone="no"?><!DOCTYPE svg PUBLIC "-//W3C//DTD SVG 1.1//EN" "http://www.w3.org/Graphics/SVG/1.1/DTD/svg11.dtd"><svg xmlns="http://www.w3.org/2000/svg" version="1.1" width="72px" height="34.5px" viewBox="0 -2 72 34.5" style="top:-2px">  <desc>Voto DistritaL O brasileiro ter condi es e poder para mudar a sua situa o econ mica pela diminui o dr stica da co...</desc>  <defs/>  <g id="Polygon16598">    <path d="M 24.3 23 C 24.3 23.3 24.2 23.4 23.9 23.4 C 23.9 23.3 23.8 23.2 23.8 23.1 C 23.7 23 23.6 23 23.4 23 C 23.2 23 22.9 23.1 22.7 23.2 C 22.5 23.3 22.4 23.5 22.4 23.6 C 22.4 23.7 22.4 23.8 22.5 23.9 C 22.6 23.9 22.8 24 23.1 24.1 C 23.5 24.2 23.8 24.3 24 24.5 C 24.1 24.6 24.2 24.8 24.2 24.9 C 24.2 25.2 24 25.5 23.5 25.8 C 23.1 26 22.6 26.1 22.1 26.1 C 22 26.1 21.8 26.1 21.7 26 C 21.6 26 21.6 25.9 21.6 25.8 C 21.6 25.7 21.6 25.6 21.7 25.6 C 21.7 25.5 21.8 25.5 21.8 25.5 C 21.9 25.5 21.9 25.5 21.9 25.5 C 22.1 25.6 22.2 25.6 22.4 25.6 C 22.6 25.6 22.9 25.5 23.2 25.4 C 23.5 25.2 23.6 25.1 23.6 25 C 23.6 24.9 23.6 24.9 23.5 24.8 C 23.4 24.8 23.3 24.7 23.1 24.6 C 22.7 24.5 22.5 24.4 22.3 24.4 C 22.1 24.3 22 24.2 21.9 24.1 C 21.8 24 21.8 23.8 21.8 23.7 C 21.8 23.4 22 23.1 22.3 22.9 C 22.6 22.6 23 22.5 23.5 22.5 C 23.7 22.5 24 22.6 24.1 22.7 C 24.3 22.8 24.3 22.9 24.3 23 C 24.3 23 24.3 23 24.3 23 Z M 25.4 25.2 C 25.4 25.2 25.3 25.2 25.3 25.2 C 25.3 25.2 25.2 25.4 25 25.6 C 24.9 25.8 24.8 25.9 24.8 26 C 24.7 26 24.7 26 24.6 26 C 24.6 26 24.5 26 24.4 25.9 C 24.3 25.8 24.3 25.8 24.3 25.7 C 24.3 25.7 24.5 25.3 24.9 24.7 C 25.1 24.4 25.3 24.1 25.5 23.8 C 25.8 23.1 26 22.8 26.1 22.7 C 26.2 22.6 26.3 22.5 26.4 22.5 C 26.5 22.5 26.6 22.5 26.6 22.6 C 26.7 22.6 26.7 22.7 26.7 22.8 C 26.7 22.8 26.7 22.9 26.7 22.9 C 26.9 23.8 27.2 24.4 27.3 24.7 C 27.5 25.1 27.6 25.4 27.8 25.5 C 27.9 25.6 27.9 25.7 28 25.7 C 28 25.7 28 25.7 28 25.8 C 28 25.9 27.9 25.9 27.9 26 C 27.8 26.1 27.8 26.1 27.7 26.1 C 27.6 26.1 27.4 26 27.3 25.9 C 27.2 25.8 27.1 25.6 27 25.3 C 26.9 25.1 26.8 25 26.8 24.9 C 26.8 24.9 26.8 24.9 26.8 24.9 C 26.7 24.9 26.5 24.9 26.2 25 C 26 25.1 25.7 25.1 25.5 25.2 C 25.5 25.2 25.5 25.2 25.4 25.2 C 25.4 25.2 25.4 25.2 25.4 25.2 Z M 26.4 24.5 C 26.5 24.5 26.6 24.5 26.6 24.4 C 26.6 24.4 26.5 24 26.3 23.5 C 26.3 23.4 26.3 23.4 26.3 23.4 C 26.3 23.4 25.6 24.6 25.6 24.6 C 25.7 24.6 25.8 24.6 25.9 24.6 C 26 24.6 26.1 24.5 26.4 24.5 C 26.4 24.5 26.4 24.5 26.4 24.5 Z M 29.1 23.6 C 29 23.7 29 23.9 29 23.9 C 29 24 29 24.1 29 24.3 C 28.9 24.6 28.9 24.8 28.9 25 C 28.9 25.2 28.9 25.4 28.9 25.6 C 28.9 25.7 28.9 25.8 28.8 25.9 C 28.8 25.9 28.7 26 28.6 26 C 28.5 26 28.4 25.9 28.4 25.8 C 28.3 25.7 28.3 25.6 28.3 25.3 C 28.3 25.2 28.3 24.9 28.4 24.3 C 28.4 24.3 28.5 23.4 28.5 23.4 C 28.6 23.3 28.6 23.1 28.6 23 C 28.6 22.9 28.6 22.8 28.7 22.7 C 28.7 22.7 28.7 22.6 28.8 22.6 C 28.9 22.5 28.9 22.5 29 22.5 C 29.1 22.5 29.1 22.6 29.2 22.6 C 29.2 22.7 29.2 22.8 29.2 22.9 C 29.2 22.9 29.1 23.6 29.1 23.6 Z M 31.9 24 C 32.2 24.1 32.4 24.2 32.4 24.4 C 32.5 24.5 32.6 24.7 32.6 24.8 C 32.6 25.1 32.4 25.4 32 25.7 C 31.6 26 31.2 26.2 30.8 26.2 C 30.6 26.2 30.5 26.1 30.5 26 C 30.5 25.7 30.6 25.6 30.9 25.6 C 30.9 25.6 31.1 25.6 31.1 25.6 C 31.2 25.6 31.4 25.5 31.6 25.4 C 31.9 25.2 32 25 32 24.8 C 32 24.7 31.9 24.6 31.8 24.5 C 31.7 24.4 31.6 24.4 31.5 24.4 C 31.4 24.4 31.4 24.4 31.3 24.5 C 31.2 24.5 31.1 24.6 31 24.6 C 30.9 24.6 30.8 24.5 30.7 24.5 C 30.7 24.5 30.7 24.4 30.7 24.3 C 30.7 24.2 30.8 24.1 31.2 24 C 31.3 23.9 31.5 23.8 31.7 23.6 C 31.9 23.4 32 23.3 32 23.2 C 32 23 31.8 22.9 31.6 22.9 C 31.4 22.9 31.2 23 31 23 C 30.8 23.1 30.7 23.1 30.7 23.2 C 30.7 23.3 30.6 23.6 30.5 24.2 C 30.4 24.9 30.4 25.3 30.4 25.4 C 30.4 25.4 30.3 25.7 30.3 25.7 C 30.3 25.8 30.3 25.9 30.2 26 C 30.2 26 30.1 26 30 26 C 29.8 26 29.7 25.9 29.7 25.6 C 29.7 25.6 29.7 25.5 29.8 25.4 C 29.8 25.1 29.9 24.7 30 24.2 C 30 23.7 30.1 23.5 30.1 23.4 C 30.1 23.4 30 23.3 30 23.3 C 30 23.3 29.9 23.3 29.9 23.3 C 29.9 23.3 29.9 23.3 29.8 23.3 C 29.8 23.3 29.8 23.2 29.8 23.2 C 29.7 23.2 29.7 23.1 29.7 23.1 C 29.7 23 29.9 22.8 30.4 22.7 C 30.8 22.5 31.3 22.5 31.7 22.5 C 32 22.5 32.2 22.5 32.3 22.7 C 32.5 22.8 32.6 23 32.6 23.1 C 32.6 23.3 32.5 23.4 32.4 23.5 C 32.3 23.7 32.1 23.8 31.9 24 Z M 33.8 25.2 C 33.7 25.2 33.7 25.2 33.6 25.2 C 33.6 25.2 33.5 25.4 33.4 25.6 C 33.3 25.8 33.2 25.9 33.1 26 C 33.1 26 33 26 33 26 C 32.9 26 32.9 26 32.8 25.9 C 32.7 25.8 32.7 25.8 32.7 25.7 C 32.7 25.7 32.9 25.3 33.2 24.7 C 33.5 24.4 33.6 24.1 33.8 23.8 C 34.2 23.1 34.4 22.8 34.5 22.7 C 34.5 22.6 34.6 22.5 34.7 22.5 C 34.8 22.5 34.9 22.5 35 22.6 C 35 22.6 35 22.7 35 22.8 C 35 22.8 35 22.9 35 22.9 C 35.3 23.8 35.5 24.4 35.7 24.7 C 35.8 25.1 36 25.4 36.2 25.5 C 36.2 25.6 36.3 25.7 36.3 25.7 C 36.3 25.7 36.3 25.7 36.3 25.8 C 36.3 25.9 36.3 25.9 36.2 26 C 36.2 26.1 36.1 26.1 36 26.1 C 35.9 26.1 35.8 26 35.7 25.9 C 35.5 25.8 35.4 25.6 35.3 25.3 C 35.2 25.1 35.2 25 35.2 24.9 C 35.2 24.9 35.2 24.9 35.1 24.9 C 35.1 24.9 34.9 24.9 34.6 25 C 34.3 25.1 34.1 25.1 33.9 25.2 C 33.9 25.2 33.8 25.2 33.8 25.2 C 33.8 25.2 33.8 25.2 33.8 25.2 Z M 34.8 24.5 C 34.8 24.5 34.9 24.5 35 24.4 C 34.9 24.4 34.8 24 34.6 23.5 C 34.6 23.4 34.6 23.4 34.6 23.4 C 34.6 23.4 34 24.6 34 24.6 C 34.1 24.6 34.2 24.6 34.3 24.6 C 34.3 24.6 34.5 24.5 34.8 24.5 C 34.8 24.5 34.8 24.5 34.8 24.5 Z M 41.6 23.5 C 41.7 23.4 41.7 23.4 41.7 23.4 C 41.7 23.4 40.9 24.4 40.9 24.4 C 40.6 24.9 40.3 25.1 40.1 25.1 C 40 25.1 39.9 25.1 39.8 25 C 39.8 24.9 39.7 24.7 39.6 24.5 C 39.6 24.3 39.5 24.2 39.5 24 C 39.4 23.8 39.4 23.7 39.3 23.6 C 39.3 23.6 39.2 24.2 39.2 24.2 C 39.2 24.4 39.2 24.6 39.1 24.8 C 39.1 24.9 39 25.1 39 25.3 C 38.9 25.6 38.9 25.7 38.9 25.9 C 38.9 25.9 38.9 25.9 38.8 26 C 38.7 26 38.7 26.1 38.6 26.1 C 38.6 26.1 38.5 26 38.4 25.9 C 38.4 25.9 38.3 25.8 38.3 25.8 C 38.3 25.6 38.4 25.4 38.4 25.2 C 38.7 24.3 38.8 23.7 38.9 23.4 C 38.9 23.2 38.9 23 38.9 22.8 C 38.9 22.7 38.9 22.7 39 22.6 C 39.1 22.6 39.2 22.6 39.3 22.6 C 39.4 22.6 39.4 22.6 39.5 22.7 C 39.6 22.8 39.6 22.8 39.6 22.9 C 39.62 22.91 39.6 22.9 39.6 22.9 C 39.6 22.9 39.94 23.81 39.9 23.8 C 40.1 24.2 40.2 24.4 40.2 24.5 C 40.4 24.3 40.6 24 40.9 23.6 C 41.3 23.1 41.5 22.8 41.6 22.7 C 41.7 22.6 41.8 22.5 41.9 22.5 C 41.9 22.5 42 22.5 42.1 22.6 C 42.2 22.7 42.3 22.7 42.3 22.8 C 42.3 22.8 42.2 23 42.2 23.5 C 42.1 23.8 42.1 24.1 42.1 24.5 C 42 24.9 42 25.1 42 25.1 C 42 25.2 42 25.3 42 25.4 C 42 25.5 42.1 25.5 42.1 25.6 C 42.1 25.7 42 25.8 42 25.9 C 41.9 26 41.8 26 41.7 26 C 41.5 26 41.4 25.8 41.4 25.5 C 41.4 25.2 41.5 24.9 41.5 24.5 C 41.6 24.1 41.6 23.7 41.6 23.5 C 41.6 23.5 41.6 23.5 41.6 23.5 Z M 43.5 25.2 C 43.5 25.2 43.4 25.2 43.4 25.2 C 43.4 25.2 43.3 25.4 43.2 25.6 C 43 25.8 42.9 25.9 42.9 26 C 42.8 26 42.8 26 42.7 26 C 42.7 26 42.6 26 42.5 25.9 C 42.5 25.8 42.4 25.8 42.4 25.7 C 42.4 25.7 42.6 25.3 43 24.7 C 43.2 24.4 43.4 24.1 43.6 23.8 C 43.9 23.1 44.1 22.8 44.2 22.7 C 44.3 22.6 44.4 22.5 44.5 22.5 C 44.6 22.5 44.7 22.5 44.8 22.6 C 44.8 22.6 44.8 22.7 44.8 22.8 C 44.8 22.8 44.8 22.9 44.8 22.9 C 45.1 23.8 45.3 24.4 45.4 24.7 C 45.6 25.1 45.8 25.4 45.9 25.5 C 46 25.6 46.1 25.7 46.1 25.7 C 46.1 25.7 46.1 25.7 46.1 25.8 C 46.1 25.9 46.1 25.9 46 26 C 45.9 26.1 45.9 26.1 45.8 26.1 C 45.7 26.1 45.5 26 45.4 25.9 C 45.3 25.8 45.2 25.6 45.1 25.3 C 45 25.1 44.9 25 44.9 24.9 C 44.9 24.9 44.9 24.9 44.9 24.9 C 44.8 24.9 44.6 24.9 44.4 25 C 44.1 25.1 43.8 25.1 43.7 25.2 C 43.6 25.2 43.6 25.2 43.5 25.2 C 43.5 25.2 43.5 25.2 43.5 25.2 Z M 44.5 24.5 C 44.6 24.5 44.7 24.5 44.7 24.4 C 44.7 24.4 44.6 24 44.4 23.5 C 44.4 23.4 44.4 23.4 44.4 23.4 C 44.4 23.4 43.7 24.6 43.7 24.6 C 43.8 24.6 43.9 24.6 44 24.6 C 44.1 24.6 44.3 24.5 44.5 24.5 C 44.5 24.5 44.5 24.5 44.5 24.5 Z M 47.2 23.6 C 47.2 23.7 47.1 23.9 47.1 23.9 C 47.1 24 47.1 24.1 47.1 24.3 C 47 24.6 47 24.8 47 25 C 47 25.2 47 25.4 47 25.6 C 47.1 25.7 47 25.8 47 25.9 C 46.9 25.9 46.8 26 46.7 26 C 46.6 26 46.5 25.9 46.5 25.8 C 46.4 25.7 46.4 25.6 46.4 25.3 C 46.4 25.2 46.5 24.9 46.5 24.3 C 46.5 24.3 46.7 23.4 46.7 23.4 C 46.7 23.3 46.7 23.1 46.7 23 C 46.7 22.9 46.8 22.8 46.8 22.7 C 46.8 22.7 46.9 22.6 46.9 22.6 C 47 22.5 47.1 22.5 47.1 22.5 C 47.2 22.5 47.2 22.6 47.3 22.6 C 47.3 22.7 47.4 22.8 47.4 22.9 C 47.4 22.9 47.2 23.6 47.2 23.6 Z M 50.3 23 C 50.3 23.3 50.2 23.4 49.9 23.4 C 49.9 23.3 49.9 23.2 49.8 23.1 C 49.7 23 49.6 23 49.4 23 C 49.2 23 48.9 23.1 48.7 23.2 C 48.5 23.3 48.4 23.5 48.4 23.6 C 48.4 23.7 48.4 23.8 48.5 23.9 C 48.6 23.9 48.8 24 49.2 24.1 C 49.5 24.2 49.8 24.3 50 24.5 C 50.1 24.6 50.2 24.8 50.2 24.9 C 50.2 25.2 50 25.5 49.6 25.8 C 49.1 26 48.6 26.1 48.1 26.1 C 48 26.1 47.9 26.1 47.8 26 C 47.7 26 47.6 25.9 47.6 25.8 C 47.6 25.7 47.6 25.6 47.7 25.6 C 47.7 25.5 47.8 25.5 47.8 25.5 C 47.9 25.5 47.9 25.5 47.9 25.5 C 48.1 25.6 48.3 25.6 48.4 25.6 C 48.6 25.6 48.9 25.5 49.2 25.4 C 49.5 25.2 49.7 25.1 49.7 25 C 49.7 24.9 49.6 24.9 49.5 24.8 C 49.5 24.8 49.3 24.7 49.1 24.6 C 48.7 24.5 48.5 24.4 48.3 24.4 C 48.2 24.3 48 24.2 47.9 24.1 C 47.9 24 47.8 23.8 47.8 23.7 C 47.8 23.4 48 23.1 48.3 22.9 C 48.7 22.6 49 22.5 49.5 22.5 C 49.8 22.5 50 22.6 50.1 22.7 C 50.3 22.8 50.3 22.9 50.3 23 C 50.3 23 50.3 23 50.3 23 Z " stroke="none" fill="#000"/>  </g>  <g id="Polygon16597">    <path d="M 27.9 17.8 C 27.9 17.8 27.9 17.7 27.9 17.7 C 27.8 17.9 27.7 18 27.5 18.1 C 27.4 18.2 27.3 18.3 27.2 18.3 C 27.1 18.3 27 18.2 27 18.2 C 26.9 18.1 26.9 18 26.9 17.9 C 26.9 17.7 27 17.5 27.2 17.2 C 27.4 17 27.6 16.9 27.8 16.9 C 27.9 16.9 27.9 16.9 28 17 C 28 17 28.2 16.1 28.2 16.1 C 28.2 16 28.3 16 28.3 16 C 28.3 16 28.4 16 28.4 16 C 28.4 16 28.5 16 28.5 16.1 C 28.5 16.1 28.4 16.2 28.4 16.3 C 28.3 16.5 28.3 16.8 28.2 17.1 C 28.2 17.4 28.1 17.6 28.1 17.8 C 28.1 17.9 28.2 18 28.2 18 C 28.3 18 28.3 18 28.4 18 C 28.4 18 28.4 17.9 28.5 17.9 C 28.5 17.9 28.5 18 28.5 18 C 28.5 18 28.5 18.1 28.4 18.2 C 28.3 18.2 28.2 18.3 28.1 18.3 C 28 18.3 27.9 18.1 27.9 17.8 C 27.9 17.8 27.9 17.8 27.9 17.8 Z M 27.8 17.1 C 27.6 17.1 27.5 17.2 27.3 17.3 C 27.2 17.5 27.1 17.7 27.1 17.9 C 27.1 18 27.1 18.1 27.2 18.1 C 27.3 18.1 27.4 18 27.5 17.9 C 27.6 17.9 27.7 17.8 27.8 17.6 C 27.9 17.4 27.9 17.3 27.9 17.2 C 27.9 17.2 27.9 17.2 27.9 17.1 C 27.9 17.1 27.8 17.1 27.8 17.1 Z M 29.6 17.7 C 29.5 17.9 29.4 18 29.3 18.1 C 29.1 18.2 29 18.3 28.9 18.3 C 28.9 18.3 28.8 18.2 28.7 18.2 C 28.7 18.1 28.7 18 28.7 17.9 C 28.7 17.7 28.8 17.5 29 17.2 C 29.2 16.9 29.4 16.8 29.6 16.8 C 29.7 16.8 29.7 16.8 29.8 16.9 C 29.8 16.9 29.8 16.9 29.8 16.9 C 29.9 16.9 29.9 17 29.9 17 C 29.9 17.1 29.9 17.1 29.9 17.1 C 29.9 17.4 29.9 17.6 29.9 17.7 C 29.9 17.9 29.9 18 30 18.1 C 30 18.1 30 18.1 30 18.2 C 30 18.2 30 18.2 30 18.3 C 29.9 18.3 29.9 18.3 29.9 18.3 C 29.8 18.3 29.7 18.2 29.7 18.2 C 29.7 18.1 29.6 17.9 29.6 17.7 Z M 29.7 17.2 C 29.7 17.1 29.6 17 29.5 17 C 29.4 17 29.3 17.1 29.1 17.3 C 29 17.5 28.9 17.7 28.9 17.9 C 28.9 18 28.9 18 29 18 C 29.1 18 29.2 17.9 29.4 17.7 C 29.6 17.5 29.7 17.4 29.7 17.2 C 29.7 17.2 29.7 17.2 29.7 17.2 Z M 31.7 18.3 C 31.6 18.3 31.4 18.3 31.4 18.2 C 31.3 18.1 31.3 18 31.3 17.9 C 31.3 17.6 31.4 17.4 31.5 17.1 C 31.7 16.9 31.9 16.7 32.1 16.7 C 32.1 16.7 32.2 16.8 32.2 16.9 C 32.3 16.9 32.3 17 32.3 17.1 C 32.3 17.2 32.3 17.2 32.3 17.3 C 32.3 17.3 32.2 17.3 32.2 17.3 C 32.2 17.3 32.1 17.3 32.1 17.2 C 32.1 17 32.1 17 32 17 C 31.9 17 31.8 17.1 31.7 17.3 C 31.6 17.5 31.5 17.7 31.5 17.9 C 31.5 18 31.6 18.1 31.7 18.1 C 31.9 18.1 32 18 32.2 17.9 C 32.3 17.9 32.3 17.8 32.3 17.8 C 32.4 17.8 32.4 17.9 32.4 17.9 C 32.4 18 32.3 18.1 32.2 18.2 C 32 18.3 31.8 18.3 31.7 18.3 Z M 33 18.3 C 32.9 18.3 32.8 18.3 32.7 18.2 C 32.7 18.1 32.6 18 32.6 17.8 C 32.6 17.6 32.7 17.4 32.9 17.1 C 33 16.9 33.2 16.8 33.4 16.8 C 33.6 16.8 33.7 16.9 33.8 17 C 33.8 17.1 33.9 17.2 33.9 17.4 C 33.9 17.6 33.8 17.8 33.6 18 C 33.4 18.2 33.2 18.3 33 18.3 Z M 32.9 17.8 C 32.9 17.9 32.9 17.9 32.9 18 C 33 18.1 33 18.1 33.1 18.1 C 33.2 18.1 33.3 18 33.5 17.9 C 33.6 17.7 33.7 17.6 33.7 17.4 C 33.7 17.3 33.6 17.2 33.6 17.1 C 33.5 17 33.5 17 33.4 17 C 33.2 17 33.1 17.1 33 17.3 C 32.9 17.5 32.9 17.6 32.9 17.8 Z M 34.4 17.7 C 34.4 17.7 34.4 17.7 34.4 17.6 C 34.5 17.5 34.6 17.4 34.6 17.3 C 34.7 17.2 34.7 17.2 34.8 17.1 C 34.8 17 34.9 17 35 16.9 C 35 16.9 35 16.9 35.1 16.8 C 35.1 16.8 35.2 16.8 35.2 16.8 C 35.3 16.8 35.3 16.8 35.4 16.9 C 35.4 16.9 35.5 17 35.5 17.1 C 35.5 17.1 35.5 17.1 35.4 17.1 C 35.4 17.1 35.4 17.2 35.4 17.2 C 35.3 17.2 35.3 17.1 35.3 17.1 C 35.2 17.1 35.2 17.1 35.2 17.1 C 35.1 17.1 34.9 17.2 34.8 17.4 C 34.6 17.6 34.5 17.9 34.5 18.1 C 34.5 18.2 34.5 18.3 34.4 18.3 C 34.4 18.3 34.4 18.3 34.3 18.3 C 34.3 18.3 34.2 18.3 34.2 18.2 C 34.2 18.1 34.2 18 34.2 17.9 C 34.2 17.8 34.2 17.8 34.2 17.6 C 34.2 17.4 34.2 17.3 34.2 17.2 C 34.2 17.2 34.2 17.1 34.2 17.1 C 34.3 17 34.3 17 34.3 16.9 C 34.3 16.9 34.3 16.9 34.3 16.9 C 34.4 16.8 34.4 16.8 34.4 16.8 C 34.5 16.8 34.5 16.8 34.5 16.9 C 34.5 16.9 34.5 16.9 34.5 16.9 C 34.5 17 34.5 17 34.5 17.1 C 34.5 17.1 34.5 17.2 34.5 17.2 C 34.5 17.3 34.5 17.3 34.4 17.3 C 34.4 17.4 34.4 17.5 34.4 17.6 C 34.42 17.62 34.4 17.7 34.4 17.7 C 34.4 17.7 34.42 17.7 34.4 17.7 Z M 35.8 17.7 C 35.8 17.7 35.8 17.7 35.8 17.6 C 35.9 17.5 35.9 17.4 36 17.3 C 36 17.2 36.1 17.2 36.2 17.1 C 36.2 17 36.3 17 36.3 16.9 C 36.4 16.9 36.4 16.9 36.5 16.8 C 36.5 16.8 36.5 16.8 36.6 16.8 C 36.7 16.8 36.7 16.8 36.8 16.9 C 36.8 16.9 36.8 17 36.8 17.1 C 36.8 17.1 36.8 17.1 36.8 17.1 C 36.8 17.1 36.8 17.2 36.7 17.2 C 36.7 17.2 36.7 17.1 36.6 17.1 C 36.6 17.1 36.6 17.1 36.5 17.1 C 36.4 17.1 36.3 17.2 36.1 17.4 C 36 17.6 35.9 17.9 35.8 18.1 C 35.8 18.2 35.8 18.3 35.8 18.3 C 35.8 18.3 35.7 18.3 35.7 18.3 C 35.6 18.3 35.6 18.3 35.6 18.2 C 35.6 18.1 35.6 18 35.6 17.9 C 35.6 17.8 35.6 17.8 35.6 17.6 C 35.6 17.4 35.6 17.3 35.6 17.2 C 35.6 17.2 35.6 17.1 35.6 17.1 C 35.6 17 35.6 17 35.6 16.9 C 35.6 16.9 35.7 16.9 35.7 16.9 C 35.7 16.8 35.8 16.8 35.8 16.8 C 35.8 16.8 35.8 16.8 35.9 16.9 C 35.9 16.9 35.9 16.9 35.9 16.9 C 35.9 17 35.9 17 35.9 17.1 C 35.8 17.1 35.8 17.2 35.8 17.2 C 35.8 17.3 35.8 17.3 35.8 17.3 C 35.8 17.4 35.8 17.5 35.8 17.6 C 35.79 17.62 35.8 17.7 35.8 17.7 C 35.8 17.7 35.78 17.7 35.8 17.7 Z M 37.8 17.7 C 37.8 17.7 37.8 17.7 37.8 17.7 C 37.7 17.8 37.6 18 37.5 18.1 C 37.4 18.2 37.2 18.3 37.1 18.3 C 37.1 18.3 37 18.2 37 18.2 C 36.9 18.1 36.9 18 36.9 17.8 C 36.9 17.7 36.9 17.5 37 17.3 C 37 17.1 37 17 37 16.9 C 37.1 16.9 37.1 16.8 37.1 16.8 C 37.2 16.8 37.2 16.9 37.2 16.9 C 37.3 16.9 37.3 16.9 37.3 17 C 37.3 17 37.2 17.1 37.2 17.2 C 37.1 17.5 37.1 17.6 37.1 17.8 C 37.1 17.9 37.1 18 37.2 18 C 37.3 18 37.4 17.9 37.5 17.8 C 37.6 17.7 37.8 17.4 37.9 17.2 C 37.9 17.1 37.9 17 37.9 17 C 38 16.9 38 16.9 38 16.9 C 38.1 16.9 38.1 17 38.1 17.1 C 38.1 17.1 38.1 17.1 38.1 17.2 C 38.1 17.3 38 17.5 38 17.7 C 38 17.9 38.1 18 38.1 18.1 C 38.2 18.1 38.2 18.2 38.2 18.2 C 38.2 18.2 38.2 18.2 38.1 18.3 C 38.1 18.3 38.1 18.3 38 18.3 C 38 18.3 37.9 18.2 37.9 18.2 C 37.8 18.1 37.8 17.9 37.8 17.7 C 37.82 17.74 37.8 17.7 37.8 17.7 C 37.8 17.7 37.82 17.7 37.8 17.7 Z M 38.8 18.1 C 38.7 18.2 38.7 18.5 38.6 18.8 C 38.6 18.8 38.6 19 38.6 19 C 38.6 19 38.6 19.1 38.5 19.1 C 38.5 19.1 38.5 19.2 38.5 19.2 C 38.4 19.2 38.4 19.2 38.4 19.1 C 38.3 19.1 38.3 19.1 38.3 19.1 C 38.3 19 38.3 18.9 38.4 18.9 C 38.5 18.2 38.6 17.6 38.6 17.1 C 38.6 17.1 38.6 17 38.6 17 C 38.6 16.9 38.6 16.8 38.7 16.8 C 38.7 16.8 38.7 16.7 38.8 16.7 C 38.8 16.7 38.8 16.7 38.8 16.8 C 38.9 16.8 38.9 16.9 38.9 16.9 C 38.9 17 38.9 17.1 38.8 17.2 C 38.8 17.4 38.8 17.5 38.8 17.5 C 38.9 17.3 39.1 17.1 39.2 17 C 39.4 16.8 39.5 16.8 39.6 16.8 C 39.7 16.8 39.8 16.8 39.9 16.9 C 39.9 16.9 40 17 40 17.1 C 40 17.4 39.9 17.7 39.6 17.9 C 39.4 18.1 39.2 18.3 39 18.3 C 38.9 18.3 38.9 18.3 38.9 18.2 C 38.8 18.2 38.8 18.1 38.8 18.1 Z M 39.6 17 C 39.5 17 39.3 17.1 39.1 17.4 C 38.9 17.6 38.8 17.8 38.8 17.9 C 38.8 17.9 38.9 18 38.9 18 C 38.9 18 39 18 39 18 C 39.2 18 39.3 17.9 39.5 17.8 C 39.6 17.6 39.7 17.4 39.7 17.2 C 39.7 17.1 39.7 17.1 39.7 17.1 C 39.7 17 39.6 17 39.6 17 Z M 40.6 18.3 C 40.6 18.3 40.5 18.3 40.5 18.3 C 40.5 18.3 40.5 18.4 40.5 18.4 C 40.5 18.4 40.6 18.4 40.6 18.4 C 40.7 18.4 40.7 18.4 40.7 18.5 C 40.8 18.5 40.8 18.5 40.8 18.5 C 40.8 18.6 40.8 18.6 40.8 18.7 C 40.8 18.8 40.8 18.8 40.7 18.9 C 40.6 19 40.5 19 40.4 19 C 40.4 19 40.3 19 40.3 19 C 40.2 19 40.2 19 40.2 19 C 40.2 18.9 40.2 18.9 40.2 18.9 C 40.1 18.9 40.1 18.9 40.1 18.9 C 40.1 18.8 40.1 18.8 40.1 18.8 C 40.1 18.8 40.2 18.7 40.2 18.7 C 40.2 18.7 40.2 18.8 40.3 18.8 C 40.3 18.8 40.4 18.8 40.4 18.8 C 40.5 18.8 40.5 18.8 40.6 18.8 C 40.6 18.8 40.6 18.7 40.6 18.7 C 40.6 18.6 40.6 18.6 40.6 18.6 C 40.6 18.6 40.5 18.6 40.5 18.6 C 40.5 18.6 40.5 18.6 40.4 18.6 C 40.4 18.6 40.4 18.6 40.4 18.6 C 40.3 18.6 40.3 18.6 40.3 18.5 C 40.3 18.5 40.3 18.4 40.4 18.4 C 40.4 18.3 40.4 18.3 40.4 18.3 C 40.2 18.2 40.2 18.1 40.2 17.9 C 40.2 17.6 40.3 17.4 40.4 17.1 C 40.6 16.9 40.8 16.7 41 16.7 C 41 16.7 41.1 16.8 41.1 16.9 C 41.2 16.9 41.2 17 41.2 17.1 C 41.2 17.2 41.2 17.2 41.2 17.3 C 41.2 17.3 41.1 17.3 41.1 17.3 C 41.1 17.3 41 17.3 41 17.2 C 41 17 40.9 17 40.9 17 C 40.8 17 40.7 17.1 40.6 17.3 C 40.4 17.5 40.4 17.7 40.4 17.9 C 40.4 18 40.5 18.1 40.6 18.1 C 40.8 18.1 40.9 18 41.1 17.9 C 41.2 17.9 41.2 17.8 41.2 17.8 C 41.3 17.8 41.3 17.9 41.3 17.9 C 41.3 18 41.2 18.1 41 18.2 C 40.9 18.3 40.7 18.3 40.6 18.3 C 40.57 18.31 40.6 18.3 40.6 18.3 C 40.6 18.3 40.56 18.31 40.6 18.3 Z M 42.4 17.7 C 42.3 17.9 42.2 18 42.1 18.1 C 42 18.2 41.8 18.3 41.7 18.3 C 41.7 18.3 41.6 18.2 41.6 18.2 C 41.5 18.1 41.5 18 41.5 17.9 C 41.5 17.7 41.6 17.5 41.8 17.2 C 42 16.9 42.2 16.8 42.4 16.8 C 42.5 16.8 42.6 16.8 42.6 16.9 C 42.6 16.9 42.6 16.9 42.7 16.9 C 42.7 16.9 42.8 17 42.8 17 C 42.8 17.1 42.8 17.1 42.7 17.1 C 42.7 17.4 42.7 17.6 42.7 17.7 C 42.7 17.9 42.7 18 42.8 18.1 C 42.8 18.1 42.9 18.1 42.9 18.2 C 42.9 18.2 42.8 18.2 42.8 18.3 C 42.8 18.3 42.7 18.3 42.7 18.3 C 42.6 18.3 42.6 18.2 42.5 18.2 C 42.5 18.1 42.4 17.9 42.4 17.7 Z M 42.5 17.2 C 42.5 17.1 42.5 17 42.4 17 C 42.2 17 42.1 17.1 42 17.3 C 41.8 17.5 41.7 17.7 41.7 17.9 C 41.7 18 41.8 18 41.8 18 C 41.9 18 42.1 17.9 42.2 17.7 C 42.4 17.5 42.5 17.4 42.5 17.2 C 42.5 17.2 42.5 17.2 42.5 17.2 Z M 42.4 16.5 C 42.4 16.5 42.4 16.5 42.4 16.5 C 42.4 16.5 42.4 16.5 42.4 16.5 C 42.3 16.4 42.3 16.4 42.3 16.4 C 42.2 16.4 42.2 16.4 42.2 16.4 C 42.1 16.5 42.1 16.5 42.1 16.6 C 42 16.6 42 16.6 42 16.7 C 41.9 16.7 41.9 16.7 41.9 16.7 C 41.8 16.7 41.8 16.7 41.8 16.6 C 41.8 16.6 41.9 16.5 42 16.4 C 42.1 16.3 42.1 16.2 42.2 16.2 C 42.3 16.2 42.3 16.2 42.3 16.2 C 42.4 16.3 42.4 16.3 42.5 16.3 C 42.5 16.4 42.5 16.4 42.5 16.4 C 42.6 16.4 42.6 16.4 42.6 16.4 C 42.6 16.5 42.7 16.5 42.7 16.5 C 42.7 16.5 42.8 16.5 42.8 16.5 C 42.8 16.5 42.8 16.4 42.9 16.3 C 42.9 16.3 42.9 16.3 43 16.3 C 43 16.3 43 16.3 43 16.3 C 43 16.4 43 16.4 42.9 16.5 C 42.9 16.6 42.8 16.7 42.7 16.7 C 42.7 16.7 42.6 16.7 42.6 16.6 C 42.5 16.6 42.5 16.6 42.4 16.5 C 42.4 16.5 42.4 16.5 42.4 16.5 Z M 43.5 18.3 C 43.4 18.3 43.3 18.3 43.2 18.2 C 43.1 18.1 43.1 18 43.1 17.8 C 43.1 17.6 43.1 17.4 43.3 17.1 C 43.5 16.9 43.6 16.8 43.9 16.8 C 44 16.8 44.1 16.9 44.2 17 C 44.3 17.1 44.3 17.2 44.3 17.4 C 44.3 17.6 44.2 17.8 44.1 18 C 43.9 18.2 43.7 18.3 43.5 18.3 Z M 43.3 17.8 C 43.3 17.9 43.3 17.9 43.4 18 C 43.4 18.1 43.4 18.1 43.5 18.1 C 43.6 18.1 43.8 18 43.9 17.9 C 44 17.7 44.1 17.6 44.1 17.4 C 44.1 17.3 44.1 17.2 44 17.1 C 44 17 43.9 17 43.8 17 C 43.7 17 43.6 17.1 43.5 17.3 C 43.4 17.5 43.3 17.6 43.3 17.8 Z M 44.8 17.9 C 44.8 17.9 44.8 17.9 44.8 17.9 C 44.8 17.9 44.9 17.9 44.9 17.9 C 44.9 17.9 44.9 17.9 44.9 18 C 44.9 18 44.9 18 44.9 18.1 C 44.9 18.1 44.8 18.1 44.8 18.2 C 44.7 18.2 44.7 18.2 44.7 18.2 C 44.7 18.2 44.6 18.2 44.6 18.2 C 44.6 18.2 44.6 18.1 44.6 18 C 44.6 18 44.6 17.9 44.6 17.9 C 44.6 17.9 44.6 17.9 44.7 17.9 C 44.7 17.9 44.7 17.9 44.8 17.9 Z " stroke="none" fill="#000"/>  </g>  <g id="Polygon16596">    <path d="M 4.6 14.1 C 4.6 14 4.5 14 4.4 13.9 C 4.2 13.8 4.1 13.7 4 13.7 C 3.9 13.6 3.9 13.6 3.9 13.5 C 3.9 13.3 4 13.2 4.2 13 C 4.3 12.9 4.5 12.9 4.6 12.9 C 4.7 12.9 4.7 12.9 4.8 12.9 C 4.8 12.9 4.8 13 4.8 13 C 4.8 13.1 4.8 13.1 4.8 13.1 C 4.7 13.1 4.7 13.1 4.7 13.1 C 4.7 13.1 4.7 13.1 4.7 13.1 C 4.6 13.1 4.6 13.1 4.6 13.1 C 4.6 13.1 4.5 13.1 4.3 13.2 C 4.2 13.3 4.1 13.3 4.1 13.4 C 4.1 13.5 4.1 13.5 4.2 13.6 C 4.2 13.6 4.3 13.6 4.5 13.7 C 4.6 13.7 4.6 13.8 4.7 13.9 C 4.8 13.9 4.8 14 4.8 14 C 4.8 14.2 4.7 14.3 4.5 14.4 C 4.3 14.4 4.1 14.5 4 14.5 C 3.8 14.5 3.7 14.4 3.7 14.3 C 3.7 14.3 3.8 14.3 3.8 14.3 C 3.8 14.2 3.9 14.2 3.9 14.2 C 3.9 14.2 3.9 14.2 4 14.3 C 4 14.3 4 14.3 4 14.3 C 4.1 14.3 4.2 14.2 4.4 14.2 C 4.5 14.2 4.5 14.1 4.6 14.1 Z M 5.9 13.9 C 5.9 13.8 5.9 13.8 5.9 13.8 C 5.8 14 5.7 14.2 5.6 14.3 C 5.5 14.4 5.4 14.4 5.3 14.4 C 5.2 14.4 5.1 14.4 5.1 14.3 C 5 14.2 5 14.1 5 14 C 5 13.9 5 13.7 5.1 13.5 C 5.1 13.3 5.1 13.2 5.1 13.1 C 5.2 13 5.2 13 5.3 13 C 5.3 13 5.3 13 5.4 13 C 5.4 13.1 5.4 13.1 5.4 13.1 C 5.4 13.2 5.4 13.3 5.3 13.4 C 5.2 13.6 5.2 13.8 5.2 14 C 5.2 14.1 5.2 14.2 5.3 14.2 C 5.4 14.2 5.5 14.1 5.6 14 C 5.8 13.8 5.9 13.6 6 13.4 C 6 13.2 6 13.2 6.1 13.1 C 6.1 13.1 6.1 13.1 6.2 13.1 C 6.2 13.1 6.3 13.1 6.3 13.2 C 6.3 13.2 6.2 13.3 6.2 13.3 C 6.2 13.5 6.2 13.7 6.2 13.9 C 6.2 14.1 6.2 14.2 6.3 14.3 C 6.3 14.3 6.3 14.3 6.3 14.4 C 6.3 14.4 6.3 14.4 6.3 14.4 C 6.2 14.4 6.2 14.5 6.2 14.5 C 6.1 14.5 6 14.4 6 14.3 C 6 14.2 5.9 14.1 5.9 13.9 C 5.95 13.91 5.9 13.9 5.9 13.9 C 5.9 13.9 5.95 13.86 5.9 13.9 Z M 7.5 13.9 C 7.4 14.1 7.3 14.2 7.2 14.3 C 7 14.4 6.9 14.4 6.8 14.4 C 6.7 14.4 6.7 14.4 6.6 14.3 C 6.6 14.3 6.6 14.2 6.6 14.1 C 6.6 13.9 6.7 13.6 6.9 13.3 C 7.1 13.1 7.3 12.9 7.5 12.9 C 7.6 12.9 7.6 13 7.7 13.1 C 7.7 13.1 7.7 13.1 7.7 13.1 C 7.8 13.1 7.8 13.1 7.8 13.2 C 7.8 13.2 7.8 13.3 7.8 13.3 C 7.8 13.6 7.7 13.8 7.7 13.9 C 7.7 14.1 7.8 14.2 7.9 14.3 C 7.9 14.3 7.9 14.3 7.9 14.3 C 7.9 14.4 7.9 14.4 7.9 14.4 C 7.8 14.4 7.8 14.5 7.8 14.5 C 7.7 14.5 7.6 14.4 7.6 14.3 C 7.5 14.2 7.5 14.1 7.5 13.9 Z M 7.6 13.4 C 7.6 13.2 7.5 13.2 7.4 13.2 C 7.3 13.2 7.2 13.3 7 13.5 C 6.9 13.7 6.8 13.9 6.8 14 C 6.8 14.1 6.8 14.2 6.9 14.2 C 7 14.2 7.1 14.1 7.3 13.9 C 7.5 13.7 7.6 13.5 7.6 13.4 C 7.6 13.4 7.6 13.4 7.6 13.4 Z M 9.9 14.1 C 9.9 14 9.8 14 9.7 13.9 C 9.5 13.8 9.4 13.7 9.3 13.7 C 9.2 13.6 9.2 13.6 9.2 13.5 C 9.2 13.3 9.3 13.2 9.5 13 C 9.7 12.9 9.8 12.9 9.9 12.9 C 10 12.9 10 12.9 10.1 12.9 C 10.1 12.9 10.1 13 10.1 13 C 10.1 13.1 10.1 13.1 10.1 13.1 C 10.1 13.1 10 13.1 10 13.1 C 10 13.1 10 13.1 10 13.1 C 9.9 13.1 9.9 13.1 9.9 13.1 C 9.9 13.1 9.8 13.1 9.6 13.2 C 9.5 13.3 9.4 13.3 9.4 13.4 C 9.4 13.5 9.5 13.5 9.5 13.6 C 9.6 13.6 9.6 13.6 9.8 13.7 C 9.9 13.7 10 13.8 10 13.9 C 10.1 13.9 10.1 14 10.1 14 C 10.1 14.2 10 14.3 9.8 14.4 C 9.6 14.4 9.5 14.5 9.3 14.5 C 9.1 14.5 9.1 14.4 9.1 14.3 C 9.1 14.3 9.1 14.3 9.1 14.3 C 9.1 14.2 9.2 14.2 9.2 14.2 C 9.2 14.2 9.2 14.2 9.3 14.3 C 9.3 14.3 9.3 14.3 9.4 14.3 C 9.5 14.3 9.6 14.2 9.7 14.2 C 9.8 14.2 9.9 14.1 9.9 14.1 Z M 10.8 12.6 C 10.7 12.6 10.7 12.6 10.7 12.5 C 10.7 12.5 10.7 12.5 10.7 12.5 C 10.7 12.4 10.7 12.4 10.7 12.4 C 10.7 12.3 10.7 12.3 10.7 12.2 C 10.8 12.2 10.8 12.2 10.9 12.2 C 10.9 12.2 10.9 12.2 11 12.2 C 11 12.2 11 12.3 11 12.3 C 11 12.3 11 12.4 11 12.4 C 10.9 12.5 10.9 12.5 10.9 12.6 C 10.8 12.6 10.8 12.6 10.8 12.6 Z M 10.6 14.1 C 10.6 14.2 10.6 14.2 10.6 14.3 C 10.6 14.3 10.6 14.4 10.6 14.4 C 10.6 14.4 10.6 14.4 10.6 14.4 C 10.5 14.5 10.5 14.5 10.5 14.5 C 10.4 14.5 10.3 14.4 10.3 14.2 C 10.3 14.1 10.4 13.8 10.4 13.5 C 10.5 13.3 10.5 13.3 10.5 13.2 C 10.5 13.2 10.5 13.1 10.5 13.1 C 10.5 13 10.6 13 10.6 13 C 10.6 13 10.7 13 10.7 13.1 C 10.7 13.1 10.7 13.1 10.7 13.1 C 10.7 13.2 10.7 13.2 10.7 13.2 C 10.7 13.5 10.6 13.6 10.6 13.7 C 10.6 13.8 10.6 14 10.6 14.1 Z M 11.6 13 C 11.7 13 11.8 13 11.9 13 C 11.9 13 12 13 12.1 13 C 12.1 13 12.2 13 12.2 13 C 12.2 13 12.2 13.1 12.2 13.1 C 12.2 13.2 12.2 13.2 12.1 13.2 C 11.9 13.2 11.8 13.2 11.7 13.2 C 11.6 13.3 11.5 13.3 11.5 13.3 C 11.5 13.3 11.5 13.4 11.5 13.6 C 11.4 13.8 11.4 13.9 11.4 14 C 11.4 14.1 11.4 14.2 11.4 14.2 C 11.4 14.2 11.5 14.2 11.5 14.2 C 11.6 14.2 11.7 14.2 11.9 14.1 C 11.9 14 12 14 12 14 C 12 14 12 14 12 14.1 C 12 14.1 12 14.2 11.9 14.3 C 11.7 14.4 11.6 14.5 11.5 14.5 C 11.3 14.5 11.2 14.3 11.2 14.1 C 11.2 14 11.2 13.8 11.2 13.7 C 11.3 13.5 11.3 13.3 11.3 13.3 C 11.3 13.3 11.3 13.3 11.3 13.3 C 11.3 13.3 11.1 13.3 11.1 13.3 C 11 13.3 10.9 13.3 10.9 13.2 C 10.9 13.1 11 13.1 11 13.1 C 11 13.1 11.3 13.1 11.3 13.1 C 11.3 13.1 11.3 13.1 11.3 13.1 C 11.4 13 11.4 13 11.4 12.9 C 11.4 12.8 11.5 12.7 11.5 12.6 C 11.5 12.5 11.5 12.5 11.6 12.5 C 11.6 12.5 11.7 12.5 11.7 12.5 C 11.7 12.5 11.7 12.6 11.7 12.6 C 11.7 12.6 11.7 12.7 11.7 12.8 C 11.7 12.8 11.6 13 11.6 13 Z M 13.2 13.9 C 13.2 13.8 13.2 13.8 13.2 13.8 C 13.1 14 13 14.2 12.9 14.3 C 12.8 14.4 12.7 14.4 12.5 14.4 C 12.5 14.4 12.4 14.4 12.4 14.3 C 12.3 14.2 12.3 14.1 12.3 14 C 12.3 13.9 12.3 13.7 12.4 13.5 C 12.4 13.3 12.4 13.2 12.4 13.1 C 12.5 13 12.5 13 12.6 13 C 12.6 13 12.6 13 12.6 13 C 12.7 13.1 12.7 13.1 12.7 13.1 C 12.7 13.2 12.7 13.3 12.6 13.4 C 12.5 13.6 12.5 13.8 12.5 14 C 12.5 14.1 12.5 14.2 12.6 14.2 C 12.7 14.2 12.8 14.1 12.9 14 C 13.1 13.8 13.2 13.6 13.3 13.4 C 13.3 13.2 13.3 13.2 13.4 13.1 C 13.4 13.1 13.4 13.1 13.5 13.1 C 13.5 13.1 13.5 13.1 13.5 13.2 C 13.5 13.2 13.5 13.3 13.5 13.3 C 13.5 13.5 13.4 13.7 13.4 13.9 C 13.4 14.1 13.5 14.2 13.5 14.3 C 13.6 14.3 13.6 14.3 13.6 14.4 C 13.6 14.4 13.6 14.4 13.5 14.4 C 13.5 14.4 13.5 14.5 13.4 14.5 C 13.4 14.5 13.3 14.4 13.3 14.3 C 13.3 14.2 13.2 14.1 13.2 13.9 C 13.23 13.91 13.2 13.9 13.2 13.9 C 13.2 13.9 13.23 13.86 13.2 13.9 Z M 14.8 13.9 C 14.7 14.1 14.6 14.2 14.4 14.3 C 14.3 14.4 14.2 14.4 14.1 14.4 C 14 14.4 14 14.4 13.9 14.3 C 13.9 14.3 13.8 14.2 13.8 14.1 C 13.8 13.9 14 13.6 14.2 13.3 C 14.4 13.1 14.6 12.9 14.8 12.9 C 14.9 12.9 14.9 13 15 13.1 C 15 13.1 15 13.1 15 13.1 C 15.1 13.1 15.1 13.1 15.1 13.2 C 15.1 13.2 15.1 13.3 15.1 13.3 C 15.1 13.6 15 13.8 15 13.9 C 15 14.1 15.1 14.2 15.2 14.3 C 15.2 14.3 15.2 14.3 15.2 14.3 C 15.2 14.4 15.2 14.4 15.2 14.4 C 15.1 14.4 15.1 14.5 15 14.5 C 15 14.5 14.9 14.4 14.9 14.3 C 14.8 14.2 14.8 14.1 14.8 13.9 Z M 14.8 13.4 C 14.8 13.2 14.8 13.2 14.7 13.2 C 14.6 13.2 14.5 13.3 14.3 13.5 C 14.2 13.7 14.1 13.9 14.1 14 C 14.1 14.1 14.1 14.2 14.2 14.2 C 14.3 14.2 14.4 14.1 14.6 13.9 C 14.8 13.7 14.8 13.5 14.8 13.4 C 14.8 13.4 14.8 13.4 14.8 13.4 Z M 15.8 14.5 C 15.8 14.5 15.8 14.5 15.8 14.5 C 15.8 14.5 15.8 14.5 15.8 14.6 C 15.8 14.6 15.8 14.6 15.9 14.6 C 15.9 14.6 16 14.6 16 14.6 C 16 14.6 16 14.7 16.1 14.7 C 16.1 14.7 16.1 14.8 16.1 14.9 C 16.1 14.9 16 15 16 15.1 C 15.9 15.1 15.8 15.2 15.6 15.2 C 15.6 15.2 15.6 15.2 15.5 15.2 C 15.5 15.1 15.5 15.1 15.4 15.1 C 15.4 15.1 15.4 15.1 15.4 15.1 C 15.4 15.1 15.3 15.1 15.3 15 C 15.3 15 15.4 15 15.4 14.9 C 15.4 14.9 15.4 14.9 15.4 14.9 C 15.4 14.9 15.5 14.9 15.5 14.9 C 15.6 15 15.6 15 15.6 15 C 15.7 15 15.8 15 15.8 15 C 15.8 14.9 15.9 14.9 15.9 14.8 C 15.9 14.8 15.9 14.8 15.8 14.8 C 15.8 14.7 15.8 14.7 15.7 14.7 C 15.7 14.7 15.7 14.7 15.7 14.7 C 15.7 14.7 15.6 14.8 15.6 14.8 C 15.6 14.8 15.5 14.7 15.5 14.7 C 15.6 14.6 15.6 14.6 15.6 14.5 C 15.6 14.5 15.6 14.5 15.6 14.4 C 15.5 14.4 15.4 14.2 15.4 14 C 15.4 13.8 15.5 13.6 15.7 13.3 C 15.9 13 16 12.9 16.2 12.9 C 16.3 12.9 16.3 13 16.4 13 C 16.4 13.1 16.5 13.2 16.5 13.3 C 16.5 13.3 16.4 13.4 16.4 13.4 C 16.4 13.5 16.4 13.5 16.4 13.5 C 16.3 13.5 16.3 13.4 16.2 13.3 C 16.2 13.2 16.2 13.1 16.1 13.1 C 16 13.1 15.9 13.3 15.8 13.5 C 15.7 13.7 15.6 13.9 15.6 14 C 15.6 14.2 15.7 14.3 15.9 14.3 C 16 14.3 16.2 14.2 16.3 14.1 C 16.4 14 16.5 14 16.5 14 C 16.5 14 16.5 14 16.5 14.1 C 16.5 14.1 16.4 14.2 16.3 14.3 C 16.1 14.4 16 14.5 15.8 14.5 C 15.82 14.48 15.8 14.5 15.8 14.5 C 15.8 14.5 15.8 14.48 15.8 14.5 Z M 17.7 13.9 C 17.6 14.1 17.4 14.2 17.3 14.3 C 17.2 14.4 17.1 14.4 17 14.4 C 16.9 14.4 16.9 14.4 16.8 14.3 C 16.8 14.3 16.7 14.2 16.7 14.1 C 16.7 13.9 16.8 13.6 17 13.3 C 17.3 13.1 17.5 12.9 17.7 12.9 C 17.7 12.9 17.8 13 17.8 13.1 C 17.9 13.1 17.9 13.1 17.9 13.1 C 18 13.1 18 13.1 18 13.2 C 18 13.2 18 13.3 18 13.3 C 17.9 13.6 17.9 13.8 17.9 13.9 C 17.9 14.1 18 14.2 18 14.3 C 18.1 14.3 18.1 14.3 18.1 14.3 C 18.1 14.4 18.1 14.4 18 14.4 C 18 14.4 18 14.5 17.9 14.5 C 17.9 14.5 17.8 14.4 17.8 14.3 C 17.7 14.2 17.7 14.1 17.7 13.9 Z M 17.7 13.4 C 17.7 13.2 17.7 13.2 17.6 13.2 C 17.5 13.2 17.4 13.3 17.2 13.5 C 17 13.7 17 13.9 17 14 C 17 14.1 17 14.2 17.1 14.2 C 17.2 14.2 17.3 14.1 17.5 13.9 C 17.6 13.7 17.7 13.5 17.7 13.4 C 17.7 13.4 17.7 13.4 17.7 13.4 Z M 17.7 12.7 C 17.7 12.7 17.7 12.7 17.7 12.7 C 17.6 12.7 17.6 12.7 17.6 12.6 C 17.6 12.6 17.5 12.6 17.5 12.6 C 17.5 12.6 17.4 12.6 17.4 12.6 C 17.4 12.6 17.3 12.7 17.3 12.7 C 17.3 12.8 17.2 12.8 17.2 12.8 C 17.2 12.8 17.2 12.9 17.1 12.9 C 17.1 12.9 17.1 12.8 17.1 12.8 C 17.1 12.7 17.1 12.6 17.2 12.5 C 17.3 12.4 17.4 12.4 17.5 12.4 C 17.5 12.4 17.6 12.4 17.6 12.4 C 17.6 12.4 17.7 12.4 17.7 12.5 C 17.7 12.5 17.8 12.5 17.8 12.6 C 17.8 12.6 17.8 12.6 17.8 12.6 C 17.9 12.6 17.9 12.7 18 12.7 C 18 12.7 18 12.7 18 12.6 C 18 12.6 18.1 12.6 18.1 12.5 C 18.2 12.5 18.2 12.4 18.2 12.4 C 18.3 12.4 18.3 12.5 18.3 12.5 C 18.3 12.5 18.2 12.6 18.2 12.7 C 18.1 12.8 18 12.8 18 12.8 C 17.9 12.8 17.8 12.8 17.8 12.8 C 17.8 12.8 17.7 12.7 17.7 12.7 C 17.7 12.7 17.7 12.7 17.7 12.7 Z M 18.7 14.5 C 18.6 14.5 18.5 14.4 18.4 14.3 C 18.4 14.2 18.3 14.1 18.3 14 C 18.3 13.8 18.4 13.5 18.5 13.3 C 18.7 13.1 18.9 13 19.1 13 C 19.2 13 19.4 13 19.4 13.1 C 19.5 13.2 19.6 13.4 19.6 13.5 C 19.6 13.8 19.5 14 19.3 14.2 C 19.1 14.4 18.9 14.5 18.7 14.5 Z M 18.5 13.9 C 18.5 14 18.6 14.1 18.6 14.2 C 18.6 14.2 18.7 14.3 18.8 14.3 C 18.9 14.3 19 14.2 19.2 14 C 19.3 13.9 19.4 13.7 19.4 13.5 C 19.4 13.4 19.3 13.4 19.3 13.3 C 19.2 13.2 19.2 13.2 19.1 13.2 C 18.9 13.2 18.8 13.3 18.7 13.4 C 18.6 13.6 18.5 13.8 18.5 13.9 Z M 22 13.9 C 22 13.9 22 13.9 22 13.9 C 22 14 21.9 14.1 21.8 14.3 C 21.6 14.4 21.5 14.5 21.3 14.5 C 21.1 14.5 21 14.4 21 14.3 C 20.9 14.3 20.8 14.1 20.8 14 C 20.8 13.7 20.9 13.5 21.1 13.3 C 21.3 13 21.5 12.9 21.7 12.9 C 21.7 12.9 21.8 12.9 21.8 13 C 21.9 13 21.9 13.1 21.9 13.1 C 21.9 13.3 21.8 13.4 21.7 13.5 C 21.5 13.7 21.4 13.8 21.1 13.9 C 21.1 13.9 21.1 14 21.1 14 C 21.1 14.1 21.1 14.1 21.1 14.2 C 21.2 14.2 21.2 14.2 21.3 14.2 C 21.5 14.2 21.7 14.1 21.9 13.9 C 21.9 13.9 22 13.9 22 13.9 C 22 13.9 22 13.9 22 13.9 Z M 21.1 13.7 C 21.5 13.5 21.7 13.3 21.7 13.2 C 21.7 13.1 21.6 13.1 21.6 13.1 C 21.5 13.1 21.4 13.2 21.3 13.3 C 21.2 13.4 21.1 13.6 21.1 13.7 Z M 22.6 14.5 C 22.5 14.5 22.4 14.4 22.3 14.4 C 22.2 14.3 22.2 14.2 22.2 14 C 22.2 13.8 22.3 13.6 22.5 13.3 C 22.7 13 22.8 12.9 23 12.9 C 23.1 12.9 23.1 13 23.2 13 C 23.2 13.1 23.3 13.2 23.3 13.3 C 23.3 13.3 23.2 13.4 23.2 13.4 C 23.2 13.5 23.2 13.5 23.2 13.5 C 23.1 13.5 23.1 13.4 23 13.3 C 23 13.2 23 13.1 22.9 13.1 C 22.8 13.1 22.7 13.3 22.6 13.5 C 22.5 13.7 22.4 13.9 22.4 14 C 22.4 14.2 22.5 14.3 22.7 14.3 C 22.8 14.3 23 14.2 23.1 14.1 C 23.2 14 23.2 14 23.3 14 C 23.3 14 23.3 14 23.3 14.1 C 23.3 14.1 23.2 14.2 23.1 14.3 C 22.9 14.4 22.8 14.5 22.6 14.5 Z M 24 14.5 C 23.8 14.5 23.7 14.4 23.7 14.3 C 23.6 14.2 23.6 14.1 23.6 14 C 23.6 13.8 23.6 13.5 23.8 13.3 C 23.9 13.1 24.1 13 24.3 13 C 24.5 13 24.6 13 24.7 13.1 C 24.8 13.2 24.8 13.4 24.8 13.5 C 24.8 13.8 24.7 14 24.5 14.2 C 24.4 14.4 24.2 14.5 24 14.5 Z M 23.8 13.9 C 23.8 14 23.8 14.1 23.8 14.2 C 23.9 14.2 23.9 14.3 24 14.3 C 24.1 14.3 24.3 14.2 24.4 14 C 24.5 13.9 24.6 13.7 24.6 13.5 C 24.6 13.4 24.6 13.4 24.5 13.3 C 24.5 13.2 24.4 13.2 24.3 13.2 C 24.2 13.2 24 13.3 23.9 13.4 C 23.8 13.6 23.8 13.8 23.8 13.9 Z M 26.1 13.8 C 26.1 13.5 26.1 13.4 26 13.4 C 25.9 13.4 25.9 13.4 25.8 13.5 C 25.8 13.5 25.7 13.7 25.6 13.9 C 25.4 14.2 25.3 14.3 25.3 14.4 C 25.3 14.4 25.2 14.4 25.2 14.4 C 25.1 14.4 25 14.4 25 14.3 C 25 14.2 25 14.2 25.1 14.1 C 25.1 13.8 25.1 13.5 25.1 13.2 C 25.1 13.2 25.1 13.2 25.2 13.1 C 25.2 13.1 25.2 13.1 25.3 13.1 C 25.3 13.1 25.3 13.1 25.4 13.1 C 25.4 13.1 25.4 13.2 25.4 13.3 C 25.4 13.4 25.4 13.5 25.3 13.8 C 25.3 13.9 25.3 14 25.3 14 C 25.3 14 25.3 14 25.3 14 C 25.3 14 25.4 13.9 25.5 13.7 C 25.6 13.5 25.7 13.3 25.8 13.2 C 25.8 13.2 25.9 13.1 26 13.1 C 26.1 13.1 26.2 13.1 26.2 13.2 C 26.3 13.3 26.3 13.4 26.3 13.6 C 26.4 13.8 26.4 14 26.4 14 C 26.4 14.1 26.5 14.1 26.5 14.1 C 26.5 14.1 26.6 14.1 26.6 14.1 C 26.6 14.1 26.6 14.1 26.6 14.1 C 26.7 14.1 26.7 14.1 26.7 14.1 C 26.7 14.2 26.7 14.2 26.6 14.3 C 26.6 14.3 26.5 14.3 26.4 14.3 C 26.3 14.3 26.3 14.3 26.2 14.2 C 26.2 14.2 26.2 14 26.1 13.8 C 26.1 13.8 26.1 13.8 26.1 13.8 Z M 27.2 14.5 C 27.1 14.5 27 14.4 26.9 14.3 C 26.8 14.2 26.8 14.1 26.8 14 C 26.8 13.8 26.9 13.5 27 13.3 C 27.2 13.1 27.4 13 27.6 13 C 27.7 13 27.9 13 27.9 13.1 C 28 13.2 28.1 13.4 28.1 13.5 C 28.1 13.8 28 14 27.8 14.2 C 27.6 14.4 27.4 14.5 27.2 14.5 Z M 27 13.9 C 27 14 27.1 14.1 27.1 14.2 C 27.1 14.2 27.2 14.3 27.2 14.3 C 27.4 14.3 27.5 14.2 27.6 14 C 27.8 13.9 27.8 13.7 27.8 13.5 C 27.8 13.4 27.8 13.4 27.8 13.3 C 27.7 13.2 27.7 13.2 27.6 13.2 C 27.4 13.2 27.3 13.3 27.2 13.4 C 27.1 13.6 27 13.8 27 13.9 Z M 27.9 12.4 C 27.9 12.5 28 12.5 28 12.5 C 28 12.5 28 12.5 28 12.5 C 28 12.6 28 12.6 28.1 12.6 C 28.1 12.7 28.1 12.7 28.2 12.7 C 28.2 12.8 28.2 12.8 28.2 12.8 C 28.2 12.8 28.2 12.8 28.1 12.9 C 28.1 12.9 28.1 12.9 28.1 12.9 C 28 12.9 28 12.8 27.9 12.7 C 27.9 12.7 27.9 12.7 27.8 12.6 C 27.8 12.6 27.8 12.5 27.7 12.5 C 27.7 12.4 27.7 12.4 27.7 12.4 C 27.6 12.4 27.6 12.4 27.5 12.6 C 27.4 12.7 27.3 12.7 27.3 12.8 C 27.2 12.8 27.2 12.8 27.2 12.8 C 27.1 12.8 27.1 12.8 27.1 12.7 C 27.1 12.7 27.1 12.6 27.1 12.6 C 27.1 12.6 27.3 12.5 27.3 12.5 C 27.3 12.5 27.3 12.4 27.4 12.4 C 27.4 12.3 27.5 12.3 27.6 12.2 C 27.6 12.2 27.7 12.1 27.7 12.1 C 27.7 12.1 27.7 12.1 27.8 12.2 C 27.8 12.2 27.8 12.3 27.9 12.4 C 27.9 12.4 27.9 12.4 27.9 12.4 Z M 29.4 13.8 C 29.4 13.6 29.4 13.4 29.3 13.3 C 29.3 13.3 29.1 13.6 28.8 14.1 C 28.7 14.2 28.7 14.3 28.6 14.3 C 28.6 14.4 28.6 14.4 28.6 14.4 C 28.5 14.4 28.5 14.4 28.5 14.4 C 28.4 14.4 28.4 14.3 28.4 14.1 C 28.4 13.9 28.4 13.7 28.5 13.3 C 28.5 13.2 28.5 13.1 28.5 13 C 28.5 13 28.5 13 28.6 13 C 28.7 13 28.7 13 28.7 13.2 C 28.7 13.2 28.7 13.4 28.7 13.6 C 28.6 13.8 28.6 13.9 28.6 14 C 28.7 13.9 28.7 13.8 28.9 13.6 C 29 13.4 29.1 13.2 29.2 13.1 C 29.3 13.1 29.3 13 29.4 13 C 29.5 13 29.5 13.1 29.6 13.2 C 29.6 13.2 29.6 13.4 29.6 13.7 C 29.6 13.8 29.6 13.8 29.6 13.9 C 29.6 13.9 29.7 13.9 29.7 13.9 C 29.7 13.9 29.8 13.8 29.9 13.5 C 30 13.4 30.1 13.2 30.2 13.2 C 30.2 13.1 30.3 13 30.4 13 C 30.5 13 30.5 13.1 30.5 13.2 C 30.6 13.2 30.6 13.3 30.6 13.5 C 30.6 13.6 30.6 13.8 30.7 13.9 C 30.7 14 30.8 14.1 30.8 14.1 C 30.9 14.2 30.9 14.2 30.9 14.2 C 30.9 14.2 30.9 14.3 30.8 14.3 C 30.8 14.3 30.8 14.4 30.7 14.4 C 30.7 14.4 30.6 14.3 30.5 14.2 C 30.5 14.1 30.4 14 30.4 13.7 C 30.4 13.5 30.4 13.5 30.4 13.4 C 30.4 13.4 30.3 13.3 30.3 13.3 C 30.3 13.3 30.2 13.4 30.2 13.4 C 30.1 13.5 30 13.7 29.9 13.9 C 29.8 14.1 29.8 14.2 29.7 14.2 C 29.7 14.3 29.6 14.3 29.6 14.3 C 29.6 14.3 29.5 14.3 29.5 14.3 C 29.5 14.2 29.4 14.2 29.4 14.2 C 29.4 14.1 29.4 14 29.4 13.8 C 29.4 13.8 29.4 13.8 29.4 13.8 Z M 31.5 12.6 C 31.5 12.6 31.5 12.6 31.5 12.5 C 31.5 12.5 31.5 12.5 31.5 12.5 C 31.4 12.4 31.4 12.4 31.4 12.4 C 31.4 12.3 31.4 12.3 31.5 12.2 C 31.5 12.2 31.6 12.2 31.6 12.2 C 31.7 12.2 31.7 12.2 31.7 12.2 C 31.8 12.2 31.8 12.3 31.8 12.3 C 31.8 12.3 31.8 12.4 31.7 12.4 C 31.7 12.5 31.7 12.5 31.6 12.6 C 31.6 12.6 31.5 12.6 31.5 12.6 Z M 31.3 14.1 C 31.3 14.2 31.4 14.2 31.4 14.3 C 31.4 14.3 31.4 14.4 31.4 14.4 C 31.4 14.4 31.4 14.4 31.3 14.4 C 31.3 14.5 31.3 14.5 31.2 14.5 C 31.2 14.5 31.1 14.4 31.1 14.2 C 31.1 14.1 31.1 13.8 31.2 13.5 C 31.2 13.3 31.2 13.3 31.2 13.2 C 31.2 13.2 31.3 13.1 31.3 13.1 C 31.3 13 31.3 13 31.4 13 C 31.4 13 31.4 13 31.5 13.1 C 31.5 13.1 31.5 13.1 31.5 13.1 C 31.5 13.2 31.5 13.2 31.5 13.2 C 31.4 13.5 31.4 13.6 31.4 13.7 C 31.4 13.8 31.3 14 31.3 14.1 Z M 32.2 14.5 C 32.1 14.5 32 14.4 31.9 14.4 C 31.8 14.3 31.8 14.2 31.8 14 C 31.8 13.8 31.9 13.6 32.1 13.3 C 32.2 13 32.4 12.9 32.6 12.9 C 32.6 12.9 32.7 13 32.8 13 C 32.8 13.1 32.8 13.2 32.8 13.3 C 32.8 13.3 32.8 13.4 32.8 13.4 C 32.8 13.5 32.8 13.5 32.7 13.5 C 32.7 13.5 32.6 13.4 32.6 13.3 C 32.6 13.2 32.6 13.1 32.5 13.1 C 32.4 13.1 32.3 13.3 32.2 13.5 C 32.1 13.7 32 13.9 32 14 C 32 14.2 32.1 14.3 32.3 14.3 C 32.4 14.3 32.5 14.2 32.7 14.1 C 32.8 14 32.8 14 32.9 14 C 32.9 14 32.9 14 32.9 14.1 C 32.9 14.1 32.8 14.2 32.7 14.3 C 32.5 14.4 32.3 14.5 32.2 14.5 Z M 34.1 13.9 C 33.9 14.1 33.8 14.2 33.7 14.3 C 33.6 14.4 33.5 14.4 33.4 14.4 C 33.3 14.4 33.2 14.4 33.2 14.3 C 33.1 14.3 33.1 14.2 33.1 14.1 C 33.1 13.9 33.2 13.6 33.4 13.3 C 33.6 13.1 33.8 12.9 34 12.9 C 34.1 12.9 34.2 13 34.2 13.1 C 34.2 13.1 34.2 13.1 34.3 13.1 C 34.3 13.1 34.4 13.1 34.4 13.2 C 34.4 13.2 34.4 13.3 34.4 13.3 C 34.3 13.6 34.3 13.8 34.3 13.9 C 34.3 14.1 34.3 14.2 34.4 14.3 C 34.4 14.3 34.5 14.3 34.5 14.3 C 34.5 14.4 34.4 14.4 34.4 14.4 C 34.4 14.4 34.3 14.5 34.3 14.5 C 34.2 14.5 34.2 14.4 34.1 14.3 C 34.1 14.2 34.1 14.1 34.1 13.9 Z M 34.1 13.4 C 34.1 13.2 34.1 13.2 34 13.2 C 33.9 13.2 33.7 13.3 33.6 13.5 C 33.4 13.7 33.3 13.9 33.3 14 C 33.3 14.1 33.4 14.2 33.4 14.2 C 33.5 14.2 33.7 14.1 33.8 13.9 C 34 13.7 34.1 13.5 34.1 13.4 C 34.1 13.4 34.1 13.4 34.1 13.4 Z M 36 14.2 C 36 14.4 35.9 14.6 35.9 14.9 C 35.9 14.9 35.9 15.2 35.9 15.2 C 35.8 15.2 35.8 15.2 35.8 15.3 C 35.8 15.3 35.8 15.3 35.7 15.3 C 35.7 15.3 35.7 15.3 35.6 15.3 C 35.6 15.3 35.6 15.2 35.6 15.2 C 35.6 15.2 35.6 15.1 35.6 15 C 35.8 14.4 35.9 13.8 35.9 13.3 C 35.9 13.3 35.9 13.2 35.9 13.2 C 35.9 13.1 35.9 13 35.9 13 C 35.9 12.9 36 12.9 36 12.9 C 36.1 12.9 36.1 12.9 36.1 12.9 C 36.1 13 36.1 13 36.1 13.1 C 36.1 13.2 36.1 13.3 36.1 13.4 C 36.1 13.6 36.1 13.6 36.1 13.7 C 36.2 13.4 36.3 13.3 36.5 13.1 C 36.6 13 36.8 12.9 36.9 12.9 C 37 12.9 37.1 13 37.1 13 C 37.2 13.1 37.2 13.2 37.2 13.3 C 37.2 13.6 37.1 13.8 36.9 14.1 C 36.7 14.3 36.4 14.4 36.2 14.4 C 36.2 14.4 36.1 14.4 36.1 14.4 C 36.1 14.4 36 14.3 36 14.2 Z M 36.8 13.2 C 36.7 13.2 36.6 13.3 36.4 13.5 C 36.2 13.8 36.1 13.9 36.1 14.1 C 36.1 14.1 36.1 14.1 36.2 14.2 C 36.2 14.2 36.2 14.2 36.3 14.2 C 36.4 14.2 36.6 14.1 36.7 13.9 C 36.9 13.7 37 13.6 37 13.4 C 37 13.3 37 13.3 36.9 13.2 C 36.9 13.2 36.9 13.2 36.8 13.2 Z M 38.6 13.9 C 38.6 13.9 38.6 13.9 38.6 13.9 C 38.6 14 38.5 14.1 38.4 14.3 C 38.2 14.4 38 14.5 37.9 14.5 C 37.7 14.5 37.6 14.4 37.5 14.3 C 37.5 14.3 37.4 14.1 37.4 14 C 37.4 13.7 37.5 13.5 37.7 13.3 C 37.9 13 38 12.9 38.2 12.9 C 38.3 12.9 38.4 12.9 38.4 13 C 38.5 13 38.5 13.1 38.5 13.1 C 38.5 13.3 38.4 13.4 38.3 13.5 C 38.1 13.7 38 13.8 37.7 13.9 C 37.7 13.9 37.7 14 37.7 14 C 37.7 14.1 37.7 14.1 37.7 14.2 C 37.8 14.2 37.8 14.2 37.9 14.2 C 38.1 14.2 38.3 14.1 38.5 13.9 C 38.5 13.9 38.6 13.9 38.6 13.9 C 38.6 13.9 38.6 13.9 38.6 13.9 Z M 37.7 13.7 C 38.1 13.5 38.3 13.3 38.3 13.2 C 38.3 13.1 38.2 13.1 38.2 13.1 C 38.1 13.1 38 13.2 37.9 13.3 C 37.8 13.4 37.7 13.6 37.7 13.7 Z M 39.3 12.1 C 39.4 12.1 39.4 12.2 39.4 12.3 C 39.4 12.3 39.4 12.5 39.3 12.8 C 39.2 13 39.2 13.1 39.2 13.4 C 39.1 13.6 39.1 13.7 39.1 13.8 C 39.1 14 39.1 14.1 39.2 14.3 C 39.2 14.3 39.2 14.3 39.2 14.3 C 39.2 14.4 39.2 14.4 39.1 14.5 C 39.1 14.5 39.1 14.5 39 14.5 C 39 14.5 38.9 14.5 38.9 14.4 C 38.9 14.4 38.9 14.3 38.9 14.1 C 38.9 13.8 38.9 13.5 39 13 C 39.1 12.6 39.1 12.3 39.2 12.2 C 39.2 12.2 39.3 12.1 39.3 12.1 Z M 40.5 13.9 C 40.3 14.1 40.2 14.2 40.1 14.3 C 40 14.4 39.9 14.4 39.8 14.4 C 39.7 14.4 39.6 14.4 39.6 14.3 C 39.5 14.3 39.5 14.2 39.5 14.1 C 39.5 13.9 39.6 13.6 39.8 13.3 C 40 13.1 40.2 12.9 40.5 12.9 C 40.5 12.9 40.6 13 40.6 13.1 C 40.6 13.1 40.6 13.1 40.7 13.1 C 40.7 13.1 40.8 13.1 40.8 13.2 C 40.8 13.2 40.8 13.3 40.8 13.3 C 40.7 13.6 40.7 13.8 40.7 13.9 C 40.7 14.1 40.7 14.2 40.8 14.3 C 40.9 14.3 40.9 14.3 40.9 14.3 C 40.9 14.4 40.9 14.4 40.8 14.4 C 40.8 14.4 40.7 14.5 40.7 14.5 C 40.6 14.5 40.6 14.4 40.5 14.3 C 40.5 14.2 40.5 14.1 40.5 13.9 Z M 40.5 13.4 C 40.5 13.2 40.5 13.2 40.4 13.2 C 40.3 13.2 40.1 13.3 40 13.5 C 39.8 13.7 39.7 13.9 39.7 14 C 39.7 14.1 39.8 14.2 39.8 14.2 C 39.9 14.2 40.1 14.1 40.3 13.9 C 40.4 13.7 40.5 13.5 40.5 13.4 C 40.5 13.4 40.5 13.4 40.5 13.4 Z M 43.1 14 C 43.1 13.9 43.1 13.9 43.1 13.8 C 43 14 42.9 14.2 42.7 14.3 C 42.6 14.4 42.5 14.4 42.4 14.4 C 42.3 14.4 42.2 14.4 42.2 14.3 C 42.1 14.3 42.1 14.2 42.1 14.1 C 42.1 13.9 42.2 13.6 42.4 13.4 C 42.6 13.1 42.7 13 43 13 C 43.1 13 43.1 13.1 43.2 13.1 C 43.2 13.1 43.4 12.3 43.4 12.3 C 43.4 12.2 43.4 12.2 43.5 12.2 C 43.5 12.1 43.5 12.1 43.6 12.1 C 43.6 12.1 43.7 12.2 43.7 12.3 C 43.7 12.3 43.6 12.4 43.6 12.5 C 43.5 12.7 43.5 12.9 43.4 13.2 C 43.4 13.5 43.3 13.7 43.3 13.9 C 43.3 14.1 43.4 14.2 43.4 14.2 C 43.5 14.2 43.5 14.2 43.6 14.1 C 43.6 14.1 43.6 14.1 43.7 14.1 C 43.7 14.1 43.7 14.1 43.7 14.2 C 43.7 14.2 43.7 14.3 43.6 14.3 C 43.5 14.4 43.4 14.4 43.3 14.4 C 43.2 14.4 43.1 14.3 43.1 14 C 43.1 14 43.1 14 43.1 14 Z M 42.9 13.2 C 42.8 13.2 42.7 13.3 42.5 13.5 C 42.4 13.7 42.3 13.9 42.3 14.1 C 42.3 14.2 42.3 14.2 42.4 14.2 C 42.5 14.2 42.6 14.2 42.7 14.1 C 42.8 14 42.9 13.9 43 13.8 C 43.1 13.6 43.1 13.5 43.1 13.4 C 43.1 13.4 43.1 13.3 43.1 13.3 C 43 13.2 43 13.2 42.9 13.2 Z M 44.4 12.6 C 44.3 12.6 44.3 12.6 44.3 12.5 C 44.3 12.5 44.3 12.5 44.3 12.5 C 44.3 12.4 44.3 12.4 44.3 12.4 C 44.3 12.3 44.3 12.3 44.3 12.2 C 44.4 12.2 44.4 12.2 44.5 12.2 C 44.5 12.2 44.5 12.2 44.5 12.2 C 44.6 12.2 44.6 12.3 44.6 12.3 C 44.6 12.3 44.6 12.4 44.6 12.4 C 44.5 12.5 44.5 12.5 44.5 12.6 C 44.4 12.6 44.4 12.6 44.4 12.6 Z M 44.2 14.1 C 44.2 14.2 44.2 14.2 44.2 14.3 C 44.2 14.3 44.2 14.4 44.2 14.4 C 44.2 14.4 44.2 14.4 44.2 14.4 C 44.1 14.5 44.1 14.5 44.1 14.5 C 44 14.5 43.9 14.4 43.9 14.2 C 43.9 14.1 44 13.8 44 13.5 C 44.1 13.3 44.1 13.3 44.1 13.2 C 44.1 13.2 44.1 13.1 44.1 13.1 C 44.1 13 44.2 13 44.2 13 C 44.2 13 44.3 13 44.3 13.1 C 44.3 13.1 44.3 13.1 44.3 13.1 C 44.3 13.2 44.3 13.2 44.3 13.2 C 44.3 13.5 44.2 13.6 44.2 13.7 C 44.2 13.8 44.2 14 44.2 14.1 Z M 45.7 13.8 C 45.7 13.6 45.7 13.4 45.7 13.3 C 45.6 13.3 45.4 13.6 45.1 14.1 C 45 14.2 45 14.3 45 14.3 C 45 14.4 44.9 14.4 44.9 14.4 C 44.8 14.4 44.8 14.4 44.8 14.4 C 44.7 14.4 44.7 14.3 44.7 14.1 C 44.7 13.9 44.7 13.7 44.8 13.3 C 44.8 13.2 44.8 13.1 44.8 13 C 44.8 13 44.8 13 44.9 13 C 45 13 45 13 45 13.2 C 45 13.2 45 13.4 45 13.6 C 45 13.8 44.9 13.9 44.9 14 C 45 13.9 45.1 13.8 45.2 13.6 C 45.3 13.4 45.4 13.2 45.5 13.1 C 45.6 13.1 45.7 13 45.7 13 C 45.8 13 45.8 13.1 45.9 13.2 C 45.9 13.2 45.9 13.4 45.9 13.7 C 45.9 13.8 45.9 13.8 46 13.9 C 46 13.9 46 13.9 46 13.9 C 46 13.9 46.1 13.8 46.3 13.5 C 46.3 13.4 46.4 13.2 46.5 13.2 C 46.5 13.1 46.6 13 46.7 13 C 46.8 13 46.8 13.1 46.9 13.2 C 46.9 13.2 46.9 13.3 46.9 13.5 C 47 13.6 47 13.8 47 13.9 C 47 14 47.1 14.1 47.2 14.1 C 47.2 14.2 47.2 14.2 47.2 14.2 C 47.2 14.2 47.2 14.3 47.2 14.3 C 47.1 14.3 47.1 14.4 47.1 14.4 C 47 14.4 46.9 14.3 46.9 14.2 C 46.8 14.1 46.8 14 46.7 13.7 C 46.7 13.5 46.7 13.5 46.7 13.4 C 46.7 13.4 46.7 13.3 46.6 13.3 C 46.6 13.3 46.6 13.4 46.5 13.4 C 46.5 13.5 46.4 13.7 46.3 13.9 C 46.2 14.1 46.1 14.2 46.1 14.2 C 46 14.3 46 14.3 45.9 14.3 C 45.9 14.3 45.9 14.3 45.8 14.3 C 45.8 14.2 45.8 14.2 45.8 14.2 C 45.8 14.1 45.7 14 45.7 13.8 C 45.7 13.8 45.7 13.8 45.7 13.8 Z M 47.8 12.6 C 47.8 12.6 47.8 12.6 47.8 12.5 C 47.8 12.5 47.8 12.5 47.8 12.5 C 47.8 12.4 47.8 12.4 47.8 12.4 C 47.8 12.3 47.8 12.3 47.8 12.2 C 47.9 12.2 47.9 12.2 48 12.2 C 48 12.2 48 12.2 48 12.2 C 48.1 12.2 48.1 12.3 48.1 12.3 C 48.1 12.3 48.1 12.4 48.1 12.4 C 48 12.5 48 12.5 48 12.6 C 47.9 12.6 47.9 12.6 47.8 12.6 Z M 47.7 14.1 C 47.7 14.2 47.7 14.2 47.7 14.3 C 47.7 14.3 47.7 14.4 47.7 14.4 C 47.7 14.4 47.7 14.4 47.7 14.4 C 47.6 14.5 47.6 14.5 47.6 14.5 C 47.5 14.5 47.4 14.4 47.4 14.2 C 47.4 14.1 47.5 13.8 47.5 13.5 C 47.6 13.3 47.6 13.3 47.6 13.2 C 47.6 13.2 47.6 13.1 47.6 13.1 C 47.6 13 47.7 13 47.7 13 C 47.7 13 47.8 13 47.8 13.1 C 47.8 13.1 47.8 13.1 47.8 13.1 C 47.8 13.2 47.8 13.2 47.8 13.2 C 47.8 13.5 47.7 13.6 47.7 13.7 C 47.7 13.8 47.7 14 47.7 14.1 Z M 49.2 13.8 C 49.2 13.5 49.1 13.4 49.1 13.4 C 49 13.4 49 13.4 48.9 13.5 C 48.9 13.5 48.8 13.7 48.7 13.9 C 48.5 14.2 48.4 14.3 48.4 14.4 C 48.3 14.4 48.3 14.4 48.3 14.4 C 48.2 14.4 48.1 14.4 48.1 14.3 C 48.1 14.2 48.1 14.2 48.1 14.1 C 48.2 13.8 48.2 13.5 48.2 13.2 C 48.2 13.2 48.2 13.2 48.2 13.1 C 48.3 13.1 48.3 13.1 48.3 13.1 C 48.4 13.1 48.4 13.1 48.4 13.1 C 48.4 13.1 48.5 13.2 48.5 13.3 C 48.5 13.4 48.4 13.5 48.4 13.8 C 48.4 13.9 48.4 14 48.4 14 C 48.4 14 48.4 14 48.4 14 C 48.4 14 48.4 13.9 48.5 13.7 C 48.7 13.5 48.8 13.3 48.8 13.2 C 48.9 13.2 49 13.1 49.1 13.1 C 49.2 13.1 49.3 13.1 49.3 13.2 C 49.4 13.3 49.4 13.4 49.4 13.6 C 49.5 13.8 49.5 14 49.5 14 C 49.5 14.1 49.5 14.1 49.6 14.1 C 49.6 14.1 49.7 14.1 49.7 14.1 C 49.7 14.1 49.7 14.1 49.7 14.1 C 49.7 14.1 49.8 14.1 49.8 14.1 C 49.8 14.2 49.7 14.2 49.7 14.3 C 49.6 14.3 49.6 14.3 49.5 14.3 C 49.4 14.3 49.4 14.3 49.3 14.2 C 49.3 14.2 49.2 14 49.2 13.8 C 49.2 13.8 49.2 13.8 49.2 13.8 Z M 50.9 13.9 C 50.9 13.8 50.9 13.8 50.9 13.8 C 50.7 14 50.6 14.2 50.5 14.3 C 50.4 14.4 50.3 14.4 50.2 14.4 C 50.1 14.4 50.1 14.4 50 14.3 C 49.9 14.2 49.9 14.1 49.9 14 C 49.9 13.9 49.9 13.7 50 13.5 C 50 13.3 50.1 13.2 50.1 13.1 C 50.1 13 50.1 13 50.2 13 C 50.2 13 50.2 13 50.3 13 C 50.3 13.1 50.3 13.1 50.3 13.1 C 50.3 13.2 50.3 13.3 50.2 13.4 C 50.2 13.6 50.1 13.8 50.1 14 C 50.1 14.1 50.1 14.2 50.2 14.2 C 50.3 14.2 50.4 14.1 50.5 14 C 50.7 13.8 50.8 13.6 50.9 13.4 C 50.9 13.2 51 13.2 51 13.1 C 51 13.1 51 13.1 51.1 13.1 C 51.1 13.1 51.2 13.1 51.2 13.2 C 51.2 13.2 51.2 13.3 51.1 13.3 C 51.1 13.5 51.1 13.7 51.1 13.9 C 51.1 14.1 51.1 14.2 51.2 14.3 C 51.2 14.3 51.2 14.3 51.2 14.4 C 51.2 14.4 51.2 14.4 51.2 14.4 C 51.1 14.4 51.1 14.5 51.1 14.5 C 51 14.5 51 14.4 50.9 14.3 C 50.9 14.2 50.9 14.1 50.9 13.9 C 50.86 13.91 50.9 13.9 50.9 13.9 C 50.9 13.9 50.86 13.86 50.9 13.9 Z M 52 12.6 C 51.9 12.6 51.9 12.6 51.9 12.5 C 51.9 12.5 51.9 12.5 51.9 12.5 C 51.9 12.4 51.9 12.4 51.9 12.4 C 51.9 12.3 51.9 12.3 51.9 12.2 C 52 12.2 52 12.2 52.1 12.2 C 52.1 12.2 52.1 12.2 52.2 12.2 C 52.2 12.2 52.2 12.3 52.2 12.3 C 52.2 12.3 52.2 12.4 52.2 12.4 C 52.2 12.5 52.1 12.5 52.1 12.6 C 52 12.6 52 12.6 52 12.6 Z M 51.8 14.1 C 51.8 14.2 51.8 14.2 51.8 14.3 C 51.8 14.3 51.8 14.4 51.8 14.4 C 51.8 14.4 51.8 14.4 51.8 14.4 C 51.7 14.5 51.7 14.5 51.7 14.5 C 51.6 14.5 51.6 14.4 51.6 14.2 C 51.6 14.1 51.6 13.8 51.7 13.5 C 51.7 13.3 51.7 13.3 51.7 13.2 C 51.7 13.2 51.7 13.1 51.7 13.1 C 51.7 13 51.8 13 51.8 13 C 51.9 13 51.9 13 51.9 13.1 C 51.9 13.1 52 13.1 52 13.1 C 52 13.2 51.9 13.2 51.9 13.2 C 51.9 13.5 51.8 13.6 51.8 13.7 C 51.8 13.8 51.8 14 51.8 14.1 Z M 52.6 14.5 C 52.6 14.5 52.6 14.5 52.6 14.5 C 52.6 14.5 52.6 14.5 52.6 14.6 C 52.6 14.6 52.6 14.6 52.7 14.6 C 52.7 14.6 52.8 14.6 52.8 14.6 C 52.8 14.6 52.9 14.7 52.9 14.7 C 52.9 14.7 52.9 14.8 52.9 14.9 C 52.9 14.9 52.9 15 52.8 15.1 C 52.7 15.1 52.6 15.2 52.4 15.2 C 52.4 15.2 52.4 15.2 52.3 15.2 C 52.3 15.1 52.3 15.1 52.2 15.1 C 52.2 15.1 52.2 15.1 52.2 15.1 C 52.2 15.1 52.2 15.1 52.2 15 C 52.2 15 52.2 15 52.2 14.9 C 52.2 14.9 52.2 14.9 52.2 14.9 C 52.3 14.9 52.3 14.9 52.3 14.9 C 52.4 15 52.4 15 52.4 15 C 52.5 15 52.6 15 52.6 15 C 52.7 14.9 52.7 14.9 52.7 14.8 C 52.7 14.8 52.7 14.8 52.6 14.8 C 52.6 14.7 52.6 14.7 52.6 14.7 C 52.5 14.7 52.5 14.7 52.5 14.7 C 52.5 14.7 52.4 14.8 52.4 14.8 C 52.4 14.8 52.4 14.7 52.4 14.7 C 52.4 14.6 52.4 14.6 52.4 14.5 C 52.4 14.5 52.4 14.5 52.4 14.4 C 52.3 14.4 52.2 14.2 52.2 14 C 52.2 13.8 52.3 13.6 52.5 13.3 C 52.7 13 52.8 12.9 53 12.9 C 53.1 12.9 53.1 13 53.2 13 C 53.2 13.1 53.3 13.2 53.3 13.3 C 53.3 13.3 53.3 13.4 53.2 13.4 C 53.2 13.5 53.2 13.5 53.2 13.5 C 53.1 13.5 53.1 13.4 53.1 13.3 C 53 13.2 53 13.1 53 13.1 C 52.9 13.1 52.8 13.3 52.6 13.5 C 52.5 13.7 52.4 13.9 52.4 14 C 52.4 14.2 52.5 14.3 52.7 14.3 C 52.8 14.3 53 14.2 53.2 14.1 C 53.2 14 53.3 14 53.3 14 C 53.3 14 53.3 14 53.3 14.1 C 53.3 14.1 53.3 14.2 53.1 14.3 C 52.9 14.4 52.8 14.5 52.6 14.5 C 52.63 14.48 52.6 14.5 52.6 14.5 C 52.6 14.5 52.61 14.48 52.6 14.5 Z M 54.5 13.9 C 54.4 14.1 54.3 14.2 54.1 14.3 C 54 14.4 53.9 14.4 53.8 14.4 C 53.7 14.4 53.7 14.4 53.6 14.3 C 53.6 14.3 53.5 14.2 53.5 14.1 C 53.5 13.9 53.6 13.6 53.9 13.3 C 54.1 13.1 54.3 12.9 54.5 12.9 C 54.6 12.9 54.6 13 54.7 13.1 C 54.7 13.1 54.7 13.1 54.7 13.1 C 54.8 13.1 54.8 13.1 54.8 13.2 C 54.8 13.2 54.8 13.3 54.8 13.3 C 54.8 13.6 54.7 13.8 54.7 13.9 C 54.7 14.1 54.8 14.2 54.9 14.3 C 54.9 14.3 54.9 14.3 54.9 14.3 C 54.9 14.4 54.9 14.4 54.9 14.4 C 54.8 14.4 54.8 14.5 54.7 14.5 C 54.7 14.5 54.6 14.4 54.6 14.3 C 54.5 14.2 54.5 14.1 54.5 13.9 Z M 54.5 13.4 C 54.5 13.2 54.5 13.2 54.4 13.2 C 54.3 13.2 54.2 13.3 54 13.5 C 53.9 13.7 53.8 13.9 53.8 14 C 53.8 14.1 53.8 14.2 53.9 14.2 C 54 14.2 54.1 14.1 54.3 13.9 C 54.5 13.7 54.5 13.5 54.5 13.4 C 54.5 13.4 54.5 13.4 54.5 13.4 Z M 54.5 12.7 C 54.5 12.7 54.5 12.7 54.5 12.7 C 54.5 12.7 54.4 12.7 54.4 12.6 C 54.4 12.6 54.3 12.6 54.3 12.6 C 54.3 12.6 54.2 12.6 54.2 12.6 C 54.2 12.6 54.2 12.7 54.1 12.7 C 54.1 12.8 54 12.8 54 12.8 C 54 12.8 54 12.9 53.9 12.9 C 53.9 12.9 53.9 12.8 53.9 12.8 C 53.9 12.7 53.9 12.6 54 12.5 C 54.1 12.4 54.2 12.4 54.3 12.4 C 54.3 12.4 54.4 12.4 54.4 12.4 C 54.4 12.4 54.5 12.4 54.5 12.5 C 54.5 12.5 54.6 12.5 54.6 12.6 C 54.6 12.6 54.6 12.6 54.6 12.6 C 54.7 12.6 54.7 12.7 54.8 12.7 C 54.8 12.7 54.8 12.7 54.8 12.6 C 54.9 12.6 54.9 12.6 54.9 12.5 C 55 12.5 55 12.4 55 12.4 C 55.1 12.4 55.1 12.5 55.1 12.5 C 55.1 12.5 55.1 12.6 55 12.7 C 54.9 12.8 54.9 12.8 54.8 12.8 C 54.7 12.8 54.7 12.8 54.6 12.8 C 54.6 12.8 54.5 12.7 54.5 12.7 C 54.5 12.7 54.5 12.7 54.5 12.7 Z M 55.5 14.5 C 55.4 14.5 55.3 14.4 55.2 14.3 C 55.2 14.2 55.1 14.1 55.1 14 C 55.1 13.8 55.2 13.5 55.4 13.3 C 55.5 13.1 55.7 13 55.9 13 C 56.1 13 56.2 13 56.3 13.1 C 56.3 13.2 56.4 13.4 56.4 13.5 C 56.4 13.8 56.3 14 56.1 14.2 C 55.9 14.4 55.7 14.5 55.5 14.5 Z M 55.4 13.9 C 55.4 14 55.4 14.1 55.4 14.2 C 55.5 14.2 55.5 14.3 55.6 14.3 C 55.7 14.3 55.8 14.2 56 14 C 56.1 13.9 56.2 13.7 56.2 13.5 C 56.2 13.4 56.1 13.4 56.1 13.3 C 56 13.2 56 13.2 55.9 13.2 C 55.7 13.2 55.6 13.3 55.5 13.4 C 55.4 13.6 55.4 13.8 55.4 13.9 Z M 58.6 14 C 58.6 13.9 58.6 13.9 58.6 13.8 C 58.5 14 58.4 14.2 58.3 14.3 C 58.1 14.4 58 14.4 57.9 14.4 C 57.8 14.4 57.7 14.4 57.7 14.3 C 57.6 14.3 57.6 14.2 57.6 14.1 C 57.6 13.9 57.7 13.6 57.9 13.4 C 58.1 13.1 58.3 13 58.5 13 C 58.6 13 58.7 13.1 58.7 13.1 C 58.7 13.1 58.9 12.3 58.9 12.3 C 58.9 12.2 59 12.2 59 12.2 C 59 12.1 59.1 12.1 59.1 12.1 C 59.2 12.1 59.2 12.2 59.2 12.3 C 59.2 12.3 59.2 12.4 59.1 12.5 C 59.1 12.7 59 12.9 58.9 13.2 C 58.9 13.5 58.9 13.7 58.9 13.9 C 58.9 14.1 58.9 14.2 59 14.2 C 59 14.2 59.1 14.2 59.1 14.1 C 59.1 14.1 59.2 14.1 59.2 14.1 C 59.2 14.1 59.2 14.1 59.2 14.2 C 59.2 14.2 59.2 14.3 59.1 14.3 C 59 14.4 58.9 14.4 58.9 14.4 C 58.7 14.4 58.6 14.3 58.6 14 C 58.6 14 58.6 14 58.6 14 Z M 58.5 13.2 C 58.3 13.2 58.2 13.3 58 13.5 C 57.9 13.7 57.8 13.9 57.8 14.1 C 57.8 14.2 57.9 14.2 57.9 14.2 C 58 14.2 58.1 14.2 58.2 14.1 C 58.3 14 58.4 13.9 58.5 13.8 C 58.6 13.6 58.7 13.5 58.7 13.4 C 58.7 13.4 58.6 13.3 58.6 13.3 C 58.6 13.2 58.5 13.2 58.5 13.2 Z M 59.7 13.9 C 59.7 13.9 59.7 13.8 59.7 13.8 C 59.8 13.7 59.9 13.6 59.9 13.5 C 60 13.4 60 13.3 60.1 13.2 C 60.1 13.2 60.2 13.1 60.3 13.1 C 60.3 13 60.3 13 60.4 13 C 60.4 13 60.5 13 60.5 13 C 60.6 13 60.6 13 60.7 13.1 C 60.7 13.1 60.8 13.2 60.8 13.2 C 60.8 13.2 60.8 13.3 60.7 13.3 C 60.7 13.3 60.7 13.3 60.7 13.3 C 60.6 13.3 60.6 13.3 60.6 13.3 C 60.5 13.2 60.5 13.2 60.5 13.2 C 60.4 13.2 60.2 13.3 60.1 13.6 C 59.9 13.8 59.8 14 59.8 14.3 C 59.8 14.4 59.8 14.4 59.7 14.4 C 59.7 14.5 59.7 14.5 59.6 14.5 C 59.6 14.5 59.5 14.4 59.5 14.4 C 59.5 14.3 59.5 14.2 59.5 14.1 C 59.5 14 59.5 13.9 59.5 13.8 C 59.5 13.6 59.5 13.5 59.5 13.4 C 59.5 13.3 59.5 13.3 59.5 13.2 C 59.6 13.2 59.6 13.1 59.6 13.1 C 59.6 13.1 59.6 13.1 59.6 13 C 59.7 13 59.7 13 59.7 13 C 59.8 13 59.8 13 59.8 13 C 59.8 13 59.8 13.1 59.8 13.1 C 59.8 13.1 59.8 13.2 59.8 13.2 C 59.8 13.3 59.8 13.4 59.8 13.4 C 59.8 13.4 59.8 13.4 59.7 13.5 C 59.7 13.5 59.7 13.6 59.7 13.8 C 59.72 13.78 59.7 13.8 59.7 13.8 C 59.7 13.8 59.72 13.87 59.7 13.9 Z M 61.7 13.9 C 61.6 14.1 61.4 14.2 61.3 14.3 C 61.2 14.4 61.1 14.4 61 14.4 C 60.9 14.4 60.9 14.4 60.8 14.3 C 60.8 14.3 60.7 14.2 60.7 14.1 C 60.7 13.9 60.8 13.6 61 13.3 C 61.3 13.1 61.5 12.9 61.7 12.9 C 61.7 12.9 61.8 13 61.8 13.1 C 61.8 13.1 61.9 13.1 61.9 13.1 C 62 13.1 62 13.1 62 13.2 C 62 13.2 62 13.3 62 13.3 C 61.9 13.6 61.9 13.8 61.9 13.9 C 61.9 14.1 62 14.2 62 14.3 C 62.1 14.3 62.1 14.3 62.1 14.3 C 62.1 14.4 62.1 14.4 62 14.4 C 62 14.4 62 14.5 61.9 14.5 C 61.9 14.5 61.8 14.4 61.8 14.3 C 61.7 14.2 61.7 14.1 61.7 13.9 Z M 61.7 13.4 C 61.7 13.2 61.7 13.2 61.6 13.2 C 61.5 13.2 61.4 13.3 61.2 13.5 C 61 13.7 61 13.9 61 14 C 61 14.1 61 14.2 61.1 14.2 C 61.2 14.2 61.3 14.1 61.5 13.9 C 61.6 13.7 61.7 13.5 61.7 13.4 C 61.7 13.4 61.7 13.4 61.7 13.4 Z M 62 12.4 C 62 12.4 62 12.4 62 12.4 C 62 12.4 62 12.4 62 12.4 C 61.9 12.5 61.8 12.5 61.6 12.7 C 61.6 12.8 61.5 12.8 61.5 12.8 C 61.5 12.8 61.4 12.8 61.4 12.8 C 61.4 12.8 61.4 12.8 61.4 12.8 C 61.3 12.8 61.3 12.8 61.3 12.7 C 61.3 12.7 61.4 12.6 61.5 12.5 C 61.7 12.4 61.8 12.3 61.9 12.3 C 62 12.2 62 12.2 62 12.2 C 62 12.2 62 12.2 62 12.2 C 62 12.2 62.1 12.2 62.1 12.2 C 62.1 12.3 62.1 12.3 62.1 12.3 C 62.1 12.3 62.1 12.3 62.1 12.4 C 62.1 12.4 62.1 12.4 62 12.4 Z M 63 14.1 C 63 14 62.9 14 62.8 13.9 C 62.6 13.8 62.5 13.7 62.4 13.7 C 62.4 13.6 62.3 13.6 62.3 13.5 C 62.3 13.3 62.4 13.2 62.6 13 C 62.8 12.9 62.9 12.9 63 12.9 C 63.1 12.9 63.2 12.9 63.2 12.9 C 63.2 12.9 63.2 13 63.2 13 C 63.2 13.1 63.2 13.1 63.2 13.1 C 63.2 13.1 63.2 13.1 63.2 13.1 C 63.1 13.1 63.1 13.1 63.1 13.1 C 63.1 13.1 63 13.1 63 13.1 C 63 13.1 62.9 13.1 62.8 13.2 C 62.6 13.3 62.6 13.3 62.6 13.4 C 62.6 13.5 62.6 13.5 62.6 13.6 C 62.7 13.6 62.8 13.6 62.9 13.7 C 63 13.7 63.1 13.8 63.1 13.9 C 63.2 13.9 63.2 14 63.2 14 C 63.2 14.2 63.1 14.3 62.9 14.4 C 62.8 14.4 62.6 14.5 62.4 14.5 C 62.3 14.5 62.2 14.4 62.2 14.3 C 62.2 14.3 62.2 14.3 62.2 14.3 C 62.3 14.2 62.3 14.2 62.3 14.2 C 62.3 14.2 62.4 14.2 62.4 14.3 C 62.4 14.3 62.5 14.3 62.5 14.3 C 62.6 14.3 62.7 14.2 62.8 14.2 C 62.9 14.2 63 14.1 63 14.1 Z M 64 13 C 64.1 13 64.2 13 64.3 13 C 64.3 13 64.4 13 64.5 13 C 64.5 13 64.6 13 64.6 13 C 64.6 13 64.6 13.1 64.6 13.1 C 64.6 13.2 64.6 13.2 64.5 13.2 C 64.3 13.2 64.2 13.2 64.1 13.2 C 64 13.3 63.9 13.3 63.9 13.3 C 63.9 13.3 63.9 13.4 63.8 13.6 C 63.8 13.8 63.8 13.9 63.8 14 C 63.8 14.1 63.8 14.2 63.8 14.2 C 63.8 14.2 63.9 14.2 63.9 14.2 C 64 14.2 64.1 14.2 64.2 14.1 C 64.3 14 64.3 14 64.4 14 C 64.4 14 64.4 14 64.4 14.1 C 64.4 14.1 64.4 14.2 64.2 14.3 C 64.1 14.4 64 14.5 63.9 14.5 C 63.6 14.5 63.5 14.3 63.5 14.1 C 63.5 14 63.6 13.8 63.6 13.7 C 63.6 13.5 63.7 13.3 63.7 13.3 C 63.7 13.3 63.7 13.3 63.6 13.3 C 63.6 13.3 63.5 13.3 63.5 13.3 C 63.4 13.3 63.3 13.3 63.3 13.2 C 63.3 13.1 63.4 13.1 63.4 13.1 C 63.4 13.1 63.7 13.1 63.7 13.1 C 63.7 13.1 63.7 13.1 63.7 13.1 C 63.7 13 63.8 13 63.8 12.9 C 63.8 12.8 63.8 12.7 63.9 12.6 C 63.9 12.5 63.9 12.5 64 12.5 C 64 12.5 64.1 12.5 64.1 12.5 C 64.1 12.5 64.1 12.6 64.1 12.6 C 64.1 12.6 64.1 12.7 64.1 12.8 C 64.1 12.8 64 13 64 13 Z M 65.1 12.6 C 65.1 12.6 65.1 12.6 65.1 12.5 C 65.1 12.5 65.1 12.5 65 12.5 C 65 12.4 65 12.4 65 12.4 C 65 12.3 65 12.3 65.1 12.2 C 65.1 12.2 65.2 12.2 65.2 12.2 C 65.2 12.2 65.3 12.2 65.3 12.2 C 65.3 12.2 65.4 12.3 65.4 12.3 C 65.4 12.3 65.3 12.4 65.3 12.4 C 65.3 12.5 65.3 12.5 65.2 12.6 C 65.2 12.6 65.1 12.6 65.1 12.6 Z M 64.9 14.1 C 64.9 14.2 64.9 14.2 65 14.3 C 65 14.3 65 14.4 65 14.4 C 65 14.4 65 14.4 64.9 14.4 C 64.9 14.5 64.9 14.5 64.8 14.5 C 64.7 14.5 64.7 14.4 64.7 14.2 C 64.7 14.1 64.7 13.8 64.8 13.5 C 64.8 13.3 64.8 13.3 64.8 13.2 C 64.8 13.2 64.8 13.1 64.9 13.1 C 64.9 13 64.9 13 65 13 C 65 13 65 13 65.1 13.1 C 65.1 13.1 65.1 13.1 65.1 13.1 C 65.1 13.2 65.1 13.2 65.1 13.2 C 65 13.5 65 13.6 65 13.7 C 64.9 13.8 64.9 14 64.9 14.1 Z M 65.8 14.5 C 65.6 14.5 65.5 14.4 65.5 14.4 C 65.4 14.3 65.4 14.2 65.4 14 C 65.4 13.8 65.5 13.6 65.6 13.3 C 65.8 13 66 12.9 66.2 12.9 C 66.2 12.9 66.3 13 66.3 13 C 66.4 13.1 66.4 13.2 66.4 13.3 C 66.4 13.3 66.4 13.4 66.4 13.4 C 66.4 13.5 66.3 13.5 66.3 13.5 C 66.3 13.5 66.2 13.4 66.2 13.3 C 66.2 13.2 66.1 13.1 66.1 13.1 C 66 13.1 65.9 13.3 65.8 13.5 C 65.6 13.7 65.6 13.9 65.6 14 C 65.6 14.2 65.7 14.3 65.8 14.3 C 66 14.3 66.1 14.2 66.3 14.1 C 66.4 14 66.4 14 66.4 14 C 66.5 14 66.5 14 66.5 14.1 C 66.5 14.1 66.4 14.2 66.2 14.3 C 66.1 14.4 65.9 14.5 65.8 14.5 Z M 67.6 13.9 C 67.5 14.1 67.4 14.2 67.3 14.3 C 67.2 14.4 67 14.4 66.9 14.4 C 66.9 14.4 66.8 14.4 66.8 14.3 C 66.7 14.3 66.7 14.2 66.7 14.1 C 66.7 13.9 66.8 13.6 67 13.3 C 67.2 13.1 67.4 12.9 67.6 12.9 C 67.7 12.9 67.8 13 67.8 13.1 C 67.8 13.1 67.8 13.1 67.8 13.1 C 67.9 13.1 68 13.1 68 13.2 C 68 13.2 68 13.3 67.9 13.3 C 67.9 13.6 67.9 13.8 67.9 13.9 C 67.9 14.1 67.9 14.2 68 14.3 C 68 14.3 68.1 14.3 68.1 14.3 C 68.1 14.4 68 14.4 68 14.4 C 68 14.4 67.9 14.5 67.9 14.5 C 67.8 14.5 67.8 14.4 67.7 14.3 C 67.7 14.2 67.6 14.1 67.6 13.9 Z M 67.7 13.4 C 67.7 13.2 67.7 13.2 67.6 13.2 C 67.4 13.2 67.3 13.3 67.2 13.5 C 67 13.7 66.9 13.9 66.9 14 C 66.9 14.1 67 14.2 67 14.2 C 67.1 14.2 67.3 14.1 67.4 13.9 C 67.6 13.7 67.7 13.5 67.7 13.4 C 67.7 13.4 67.7 13.4 67.7 13.4 Z " stroke="none" fill="#000"/>  </g>  <g id="Polygon16595">    <path d="M 3.6 10.7 C 3.5 10.7 3.4 10.6 3.3 10.4 C 3.1 10.3 3.1 10.2 3.1 10 C 3.1 9.8 3.1 9.6 3.3 9.4 C 3.4 9.2 3.5 9 3.7 8.8 C 3.9 8.7 4 8.6 4.2 8.6 C 4.4 8.6 4.5 8.6 4.6 8.7 C 4.7 8.7 4.8 8.7 4.9 8.8 C 4.9 8.9 5 9 5 9 C 5 9.1 5.1 9.2 5.1 9.3 C 5.1 9.4 5 9.6 4.9 9.7 C 4.9 9.9 4.8 10.1 4.6 10.2 C 4.4 10.4 4.3 10.5 4.2 10.6 C 4 10.6 3.8 10.7 3.6 10.7 Z M 3.3 10 C 3.3 10.1 3.4 10.2 3.5 10.3 C 3.5 10.4 3.6 10.4 3.7 10.4 C 4 10.4 4.2 10.3 4.5 10.1 C 4.7 9.8 4.8 9.6 4.8 9.3 C 4.8 9.2 4.8 9.1 4.7 9 C 4.7 9 4.6 8.9 4.5 8.9 C 4.4 8.8 4.3 8.8 4.2 8.8 C 4 8.8 3.8 8.9 3.6 9.2 C 3.4 9.5 3.3 9.7 3.3 10 Z M 6.8 8.8 C 6.7 9 6.6 9.3 6.5 9.8 C 6.7 9.6 6.8 9.4 7 9.3 C 7.1 9.2 7.3 9.1 7.4 9.1 C 7.5 9.1 7.5 9.1 7.6 9.2 C 7.6 9.3 7.6 9.3 7.6 9.4 C 7.6 9.7 7.5 10 7.3 10.2 C 7.1 10.5 6.9 10.6 6.7 10.6 C 6.6 10.6 6.5 10.6 6.5 10.5 C 6.4 10.5 6.4 10.5 6.4 10.4 C 6.4 10.4 6.4 10.3 6.4 10.3 C 6.3 10.3 6.3 10.2 6.3 10.2 C 6.3 10.1 6.3 9.9 6.4 9.7 C 6.4 9.7 6.5 8.9 6.5 8.9 C 6.6 8.6 6.6 8.4 6.6 8.4 C 6.6 8.3 6.7 8.3 6.7 8.2 C 6.7 8.2 6.7 8.2 6.8 8.2 C 6.8 8.2 6.9 8.3 6.9 8.4 C 6.9 8.5 6.8 8.6 6.8 8.8 C 6.8 8.8 6.8 8.8 6.8 8.8 Z M 6.5 10.2 C 6.6 10.3 6.6 10.4 6.7 10.4 C 6.8 10.4 6.9 10.3 7 10.3 C 7.1 10.2 7.2 10 7.3 9.9 C 7.4 9.7 7.4 9.6 7.4 9.5 C 7.4 9.5 7.4 9.4 7.4 9.4 C 7.4 9.4 7.4 9.3 7.3 9.3 C 7.2 9.3 7.1 9.4 6.9 9.6 C 6.7 9.8 6.6 10 6.5 10.2 Z M 8.1 10 C 8.1 10 8.1 10 8.1 10 C 8.2 9.8 8.3 9.7 8.3 9.6 C 8.4 9.6 8.4 9.5 8.5 9.4 C 8.5 9.3 8.6 9.3 8.6 9.2 C 8.7 9.2 8.7 9.2 8.8 9.2 C 8.8 9.2 8.9 9.1 8.9 9.1 C 9 9.1 9 9.2 9.1 9.2 C 9.1 9.3 9.2 9.3 9.2 9.4 C 9.2 9.4 9.2 9.4 9.1 9.5 C 9.1 9.5 9.1 9.5 9.1 9.5 C 9 9.5 9 9.5 9 9.4 C 8.9 9.4 8.9 9.4 8.9 9.4 C 8.8 9.4 8.6 9.5 8.5 9.7 C 8.3 10 8.2 10.2 8.2 10.5 C 8.2 10.5 8.1 10.6 8.1 10.6 C 8.1 10.6 8.1 10.6 8 10.6 C 8 10.6 7.9 10.6 7.9 10.5 C 7.9 10.5 7.9 10.4 7.9 10.2 C 7.9 10.2 7.9 10.1 7.9 9.9 C 7.9 9.8 7.9 9.6 7.9 9.5 C 7.9 9.5 7.9 9.5 7.9 9.4 C 8 9.3 8 9.3 8 9.3 C 8 9.2 8 9.2 8 9.2 C 8.1 9.2 8.1 9.2 8.1 9.2 C 8.2 9.2 8.2 9.2 8.2 9.2 C 8.2 9.2 8.2 9.2 8.2 9.3 C 8.2 9.3 8.2 9.3 8.2 9.4 C 8.2 9.5 8.2 9.5 8.2 9.6 C 8.2 9.6 8.1 9.6 8.1 9.6 C 8.1 9.7 8.1 9.8 8.1 9.9 C 8.11 9.95 8.1 10 8.1 10 C 8.1 10 8.11 10.03 8.1 10 Z M 10.1 10.1 C 10 10.2 9.8 10.4 9.7 10.5 C 9.6 10.5 9.5 10.6 9.4 10.6 C 9.3 10.6 9.3 10.6 9.2 10.5 C 9.2 10.4 9.1 10.4 9.1 10.3 C 9.1 10 9.2 9.8 9.4 9.5 C 9.6 9.2 9.9 9.1 10.1 9.1 C 10.1 9.1 10.2 9.1 10.2 9.2 C 10.2 9.3 10.3 9.3 10.3 9.3 C 10.4 9.3 10.4 9.3 10.4 9.4 C 10.4 9.4 10.4 9.4 10.4 9.5 C 10.3 9.7 10.3 9.9 10.3 10 C 10.3 10.2 10.3 10.4 10.4 10.4 C 10.5 10.4 10.5 10.5 10.5 10.5 C 10.5 10.5 10.5 10.6 10.4 10.6 C 10.4 10.6 10.4 10.6 10.3 10.6 C 10.3 10.6 10.2 10.6 10.2 10.5 C 10.1 10.4 10.1 10.3 10.1 10.1 Z M 10.1 9.5 C 10.1 9.4 10.1 9.3 10 9.3 C 9.9 9.3 9.7 9.4 9.6 9.7 C 9.4 9.9 9.4 10.1 9.4 10.2 C 9.4 10.3 9.4 10.4 9.5 10.4 C 9.6 10.4 9.7 10.3 9.9 10.1 C 10 9.9 10.1 9.7 10.1 9.5 C 10.1 9.5 10.1 9.5 10.1 9.5 Z M 11.4 10.3 C 11.4 10.2 11.3 10.1 11.2 10.1 C 11 10 10.9 9.9 10.8 9.8 C 10.8 9.8 10.7 9.7 10.7 9.7 C 10.7 9.5 10.8 9.3 11 9.2 C 11.2 9.1 11.3 9 11.4 9 C 11.5 9 11.6 9 11.6 9.1 C 11.6 9.1 11.6 9.1 11.6 9.2 C 11.6 9.2 11.6 9.3 11.6 9.3 C 11.6 9.3 11.6 9.3 11.5 9.3 C 11.5 9.3 11.5 9.3 11.5 9.3 C 11.5 9.3 11.4 9.3 11.4 9.3 C 11.4 9.3 11.3 9.3 11.2 9.4 C 11 9.4 11 9.5 11 9.6 C 11 9.6 11 9.7 11 9.7 C 11.1 9.8 11.2 9.8 11.3 9.9 C 11.4 9.9 11.5 10 11.5 10 C 11.6 10.1 11.6 10.1 11.6 10.2 C 11.6 10.4 11.5 10.5 11.3 10.5 C 11.2 10.6 11 10.6 10.8 10.6 C 10.7 10.6 10.6 10.6 10.6 10.5 C 10.6 10.5 10.6 10.4 10.6 10.4 C 10.7 10.4 10.7 10.4 10.7 10.4 C 10.7 10.4 10.8 10.4 10.8 10.4 C 10.8 10.4 10.9 10.4 10.9 10.4 C 11 10.4 11.1 10.4 11.2 10.4 C 11.3 10.3 11.4 10.3 11.4 10.3 Z M 12.3 8.8 C 12.3 8.8 12.2 8.8 12.2 8.7 C 12.2 8.7 12.2 8.7 12.2 8.7 C 12.2 8.6 12.2 8.6 12.2 8.5 C 12.2 8.5 12.2 8.4 12.2 8.4 C 12.3 8.4 12.3 8.4 12.4 8.4 C 12.4 8.4 12.4 8.4 12.5 8.4 C 12.5 8.4 12.5 8.4 12.5 8.4 C 12.5 8.5 12.5 8.5 12.5 8.6 C 12.5 8.7 12.4 8.7 12.4 8.7 C 12.3 8.8 12.3 8.8 12.3 8.8 Z M 12.1 10.3 C 12.1 10.3 12.1 10.4 12.1 10.5 C 12.1 10.5 12.1 10.5 12.1 10.5 C 12.1 10.6 12.1 10.6 12.1 10.6 C 12.1 10.6 12 10.6 12 10.6 C 11.9 10.6 11.9 10.6 11.9 10.4 C 11.9 10.2 11.9 10 12 9.6 C 12 9.5 12 9.4 12 9.4 C 12 9.3 12 9.3 12 9.2 C 12.1 9.2 12.1 9.2 12.1 9.2 C 12.2 9.2 12.2 9.2 12.2 9.2 C 12.3 9.2 12.3 9.3 12.3 9.3 C 12.3 9.3 12.3 9.4 12.2 9.4 C 12.2 9.6 12.1 9.8 12.1 9.9 C 12.1 10 12.1 10.1 12.1 10.3 Z M 13 8.3 C 13.1 8.3 13.1 8.3 13.1 8.4 C 13.1 8.5 13.1 8.7 13 8.9 C 13 9.1 12.9 9.3 12.9 9.5 C 12.9 9.7 12.9 9.9 12.9 10 C 12.9 10.2 12.9 10.3 12.9 10.4 C 12.9 10.5 12.9 10.5 12.9 10.5 C 12.9 10.6 12.9 10.6 12.9 10.6 C 12.8 10.7 12.8 10.7 12.8 10.7 C 12.7 10.7 12.7 10.6 12.7 10.6 C 12.6 10.5 12.6 10.4 12.6 10.3 C 12.6 10 12.7 9.6 12.7 9.2 C 12.8 8.7 12.9 8.5 12.9 8.4 C 13 8.3 13 8.3 13 8.3 Z M 14.4 10 C 14.4 10 14.5 10.1 14.5 10.1 C 14.5 10.2 14.4 10.3 14.2 10.4 C 14.1 10.6 13.9 10.6 13.7 10.6 C 13.6 10.6 13.5 10.6 13.4 10.5 C 13.3 10.4 13.3 10.3 13.3 10.2 C 13.3 9.9 13.4 9.7 13.5 9.4 C 13.7 9.2 13.9 9.1 14.1 9.1 C 14.2 9.1 14.2 9.1 14.3 9.1 C 14.3 9.2 14.3 9.2 14.3 9.3 C 14.3 9.4 14.2 9.6 14.1 9.7 C 14 9.8 13.8 9.9 13.6 10.1 C 13.5 10.1 13.5 10.1 13.5 10.2 C 13.5 10.2 13.5 10.3 13.6 10.3 C 13.6 10.4 13.7 10.4 13.8 10.4 C 13.9 10.4 14.1 10.3 14.3 10.1 C 14.4 10.1 14.4 10 14.4 10 C 14.4 10 14.4 10 14.4 10 Z M 13.5 9.9 C 13.9 9.7 14.1 9.5 14.1 9.4 C 14.1 9.3 14.1 9.3 14 9.3 C 13.9 9.3 13.8 9.3 13.7 9.5 C 13.6 9.6 13.6 9.7 13.5 9.9 Z M 15.1 8.8 C 15.1 8.8 15.1 8.8 15.1 8.7 C 15.1 8.7 15.1 8.7 15.1 8.7 C 15 8.6 15 8.6 15 8.5 C 15 8.5 15 8.4 15.1 8.4 C 15.1 8.4 15.2 8.4 15.2 8.4 C 15.2 8.4 15.3 8.4 15.3 8.4 C 15.3 8.4 15.4 8.4 15.4 8.4 C 15.4 8.5 15.3 8.5 15.3 8.6 C 15.3 8.7 15.3 8.7 15.2 8.7 C 15.2 8.8 15.1 8.8 15.1 8.8 Z M 14.9 10.3 C 14.9 10.3 14.9 10.4 15 10.5 C 15 10.5 15 10.5 15 10.5 C 15 10.6 15 10.6 14.9 10.6 C 14.9 10.6 14.9 10.6 14.8 10.6 C 14.7 10.6 14.7 10.6 14.7 10.4 C 14.7 10.2 14.7 10 14.8 9.6 C 14.8 9.5 14.8 9.4 14.8 9.4 C 14.8 9.3 14.8 9.3 14.9 9.2 C 14.9 9.2 14.9 9.2 15 9.2 C 15 9.2 15 9.2 15.1 9.2 C 15.1 9.2 15.1 9.3 15.1 9.3 C 15.1 9.3 15.1 9.4 15.1 9.4 C 15 9.6 15 9.8 15 9.9 C 14.9 10 14.9 10.1 14.9 10.3 Z M 15.7 10 C 15.7 10 15.7 10 15.7 10 C 15.8 9.8 15.8 9.7 15.9 9.6 C 15.9 9.6 16 9.5 16.1 9.4 C 16.1 9.3 16.2 9.3 16.2 9.2 C 16.3 9.2 16.3 9.2 16.4 9.2 C 16.4 9.2 16.4 9.1 16.5 9.1 C 16.6 9.1 16.6 9.2 16.7 9.2 C 16.7 9.3 16.7 9.3 16.7 9.4 C 16.7 9.4 16.7 9.4 16.7 9.5 C 16.7 9.5 16.7 9.5 16.6 9.5 C 16.6 9.5 16.6 9.5 16.5 9.4 C 16.5 9.4 16.5 9.4 16.4 9.4 C 16.3 9.4 16.2 9.5 16 9.7 C 15.9 10 15.8 10.2 15.7 10.5 C 15.7 10.5 15.7 10.6 15.7 10.6 C 15.7 10.6 15.6 10.6 15.6 10.6 C 15.5 10.6 15.5 10.6 15.5 10.5 C 15.5 10.5 15.5 10.4 15.5 10.2 C 15.5 10.2 15.5 10.1 15.5 9.9 C 15.5 9.8 15.5 9.6 15.5 9.5 C 15.5 9.5 15.5 9.5 15.5 9.4 C 15.5 9.3 15.5 9.3 15.5 9.3 C 15.6 9.2 15.6 9.2 15.6 9.2 C 15.6 9.2 15.7 9.2 15.7 9.2 C 15.7 9.2 15.8 9.2 15.8 9.2 C 15.8 9.2 15.8 9.2 15.8 9.3 C 15.8 9.3 15.8 9.3 15.8 9.4 C 15.7 9.5 15.7 9.5 15.7 9.6 C 15.7 9.6 15.7 9.6 15.7 9.6 C 15.7 9.7 15.7 9.8 15.7 9.9 C 15.69 9.95 15.7 10 15.7 10 C 15.7 10 15.69 10.03 15.7 10 Z M 17.1 10.6 C 17 10.6 16.9 10.6 16.8 10.5 C 16.8 10.4 16.7 10.3 16.7 10.1 C 16.7 9.9 16.8 9.7 17 9.5 C 17.1 9.2 17.3 9.1 17.5 9.1 C 17.7 9.1 17.8 9.2 17.9 9.3 C 17.9 9.4 18 9.5 18 9.7 C 18 9.9 17.9 10.1 17.7 10.3 C 17.5 10.5 17.3 10.6 17.1 10.6 Z M 17 10.1 C 17 10.2 17 10.3 17 10.3 C 17.1 10.4 17.1 10.4 17.2 10.4 C 17.3 10.4 17.4 10.3 17.6 10.2 C 17.7 10.1 17.8 9.9 17.8 9.7 C 17.8 9.6 17.7 9.5 17.7 9.4 C 17.6 9.4 17.6 9.3 17.5 9.3 C 17.3 9.3 17.2 9.4 17.1 9.6 C 17 9.8 17 10 17 10.1 Z M 19.8 9.2 C 19.9 9.2 20 9.2 20.1 9.2 C 20.2 9.2 20.2 9.2 20.3 9.2 C 20.4 9.2 20.4 9.2 20.4 9.2 C 20.4 9.2 20.5 9.2 20.5 9.3 C 20.5 9.3 20.4 9.4 20.3 9.4 C 20.2 9.4 20.1 9.4 19.9 9.4 C 19.8 9.4 19.8 9.4 19.8 9.4 C 19.8 9.5 19.7 9.6 19.7 9.8 C 19.6 10 19.6 10.1 19.6 10.2 C 19.6 10.3 19.6 10.3 19.7 10.4 C 19.7 10.4 19.7 10.4 19.8 10.4 C 19.8 10.4 20 10.3 20.1 10.2 C 20.1 10.2 20.2 10.2 20.2 10.2 C 20.3 10.2 20.3 10.2 20.3 10.2 C 20.3 10.3 20.2 10.4 20.1 10.5 C 20 10.6 19.8 10.6 19.7 10.6 C 19.5 10.6 19.4 10.5 19.4 10.2 C 19.4 10.2 19.4 10 19.5 9.8 C 19.5 9.6 19.5 9.5 19.5 9.5 C 19.5 9.5 19.5 9.5 19.5 9.5 C 19.5 9.5 19.3 9.5 19.3 9.5 C 19.2 9.5 19.2 9.4 19.2 9.3 C 19.2 9.3 19.2 9.3 19.3 9.3 C 19.3 9.3 19.5 9.3 19.5 9.3 C 19.5 9.3 19.6 9.2 19.6 9.2 C 19.6 9.2 19.6 9.2 19.6 9.1 C 19.7 9 19.7 8.9 19.7 8.8 C 19.7 8.7 19.8 8.6 19.8 8.6 C 19.9 8.6 19.9 8.6 19.9 8.7 C 20 8.7 20 8.7 20 8.7 C 20 8.8 19.9 8.8 19.9 8.9 C 19.9 8.9 19.8 9.2 19.8 9.2 Z M 21.6 10 C 21.7 10 21.7 10.1 21.7 10.1 C 21.7 10.2 21.6 10.3 21.4 10.4 C 21.3 10.6 21.1 10.6 20.9 10.6 C 20.8 10.6 20.7 10.6 20.6 10.5 C 20.5 10.4 20.5 10.3 20.5 10.2 C 20.5 9.9 20.6 9.7 20.7 9.4 C 20.9 9.2 21.1 9.1 21.3 9.1 C 21.4 9.1 21.4 9.1 21.5 9.1 C 21.5 9.2 21.5 9.2 21.5 9.3 C 21.5 9.4 21.5 9.6 21.3 9.7 C 21.2 9.8 21 9.9 20.8 10.1 C 20.7 10.1 20.7 10.1 20.7 10.2 C 20.7 10.2 20.7 10.3 20.8 10.3 C 20.8 10.4 20.9 10.4 21 10.4 C 21.2 10.4 21.4 10.3 21.6 10.1 C 21.6 10.1 21.6 10 21.6 10 C 21.6 10 21.6 10 21.6 10 Z M 20.7 9.9 C 21.1 9.7 21.3 9.5 21.3 9.4 C 21.3 9.3 21.3 9.3 21.2 9.3 C 21.1 9.3 21.1 9.3 21 9.5 C 20.8 9.6 20.8 9.7 20.7 9.9 Z M 22.2 10 C 22.2 10 22.2 10 22.2 10 C 22.3 9.8 22.3 9.7 22.4 9.6 C 22.4 9.6 22.5 9.5 22.5 9.4 C 22.6 9.3 22.6 9.3 22.7 9.2 C 22.7 9.2 22.8 9.2 22.8 9.2 C 22.9 9.2 22.9 9.1 23 9.1 C 23 9.1 23.1 9.2 23.1 9.2 C 23.2 9.3 23.2 9.3 23.2 9.4 C 23.2 9.4 23.2 9.4 23.2 9.5 C 23.2 9.5 23.1 9.5 23.1 9.5 C 23.1 9.5 23 9.5 23 9.4 C 23 9.4 22.9 9.4 22.9 9.4 C 22.8 9.4 22.7 9.5 22.5 9.7 C 22.4 10 22.3 10.2 22.2 10.5 C 22.2 10.5 22.2 10.6 22.2 10.6 C 22.1 10.6 22.1 10.6 22.1 10.6 C 22 10.6 22 10.6 22 10.5 C 21.9 10.5 21.9 10.4 21.9 10.2 C 21.9 10.2 21.9 10.1 21.9 9.9 C 22 9.8 22 9.6 22 9.5 C 22 9.5 22 9.5 22 9.4 C 22 9.3 22 9.3 22 9.3 C 22 9.2 22 9.2 22.1 9.2 C 22.1 9.2 22.1 9.2 22.2 9.2 C 22.2 9.2 22.2 9.2 22.2 9.2 C 22.3 9.2 22.3 9.2 22.3 9.3 C 22.3 9.3 22.3 9.3 22.2 9.4 C 22.2 9.5 22.2 9.5 22.2 9.6 C 22.2 9.6 22.2 9.6 22.2 9.6 C 22.2 9.7 22.2 9.8 22.2 9.9 C 22.16 9.95 22.2 10 22.2 10 C 22.2 10 22.16 10.03 22.2 10 Z M 24.1 10.1 C 24 10.2 23.9 10.4 23.8 10.5 C 23.6 10.5 23.5 10.6 23.4 10.6 C 23.4 10.6 23.3 10.6 23.2 10.5 C 23.2 10.4 23.2 10.4 23.2 10.3 C 23.2 10 23.3 9.8 23.5 9.5 C 23.7 9.2 23.9 9.1 24.1 9.1 C 24.2 9.1 24.2 9.1 24.3 9.2 C 24.3 9.3 24.3 9.3 24.3 9.3 C 24.4 9.3 24.4 9.3 24.4 9.4 C 24.4 9.4 24.4 9.4 24.4 9.5 C 24.4 9.7 24.4 9.9 24.4 10 C 24.4 10.2 24.4 10.4 24.5 10.4 C 24.5 10.4 24.5 10.5 24.5 10.5 C 24.5 10.5 24.5 10.6 24.5 10.6 C 24.4 10.6 24.4 10.6 24.4 10.6 C 24.3 10.6 24.2 10.6 24.2 10.5 C 24.2 10.4 24.1 10.3 24.1 10.1 Z M 24.2 9.5 C 24.2 9.4 24.1 9.3 24 9.3 C 23.9 9.3 23.8 9.4 23.6 9.7 C 23.5 9.9 23.4 10.1 23.4 10.2 C 23.4 10.3 23.4 10.4 23.5 10.4 C 23.6 10.4 23.7 10.3 23.9 10.1 C 24.1 9.9 24.2 9.7 24.2 9.5 C 24.2 9.5 24.2 9.5 24.2 9.5 Z M 24.5 8.6 C 24.5 8.6 24.5 8.6 24.5 8.6 C 24.5 8.6 24.5 8.6 24.5 8.6 C 24.4 8.6 24.3 8.7 24.1 8.9 C 24 8.9 23.9 9 23.9 9 C 23.9 9 23.9 9 23.9 9 C 23.8 9 23.8 9 23.8 9 C 23.8 8.9 23.8 8.9 23.8 8.9 C 23.8 8.9 23.9 8.8 24 8.7 C 24.1 8.6 24.2 8.5 24.4 8.4 C 24.4 8.4 24.4 8.4 24.4 8.4 C 24.5 8.4 24.5 8.4 24.5 8.4 C 24.5 8.4 24.5 8.4 24.5 8.4 C 24.5 8.4 24.6 8.5 24.6 8.5 C 24.6 8.5 24.5 8.5 24.5 8.5 C 24.5 8.6 24.5 8.6 24.5 8.6 Z M 26.2 10.6 C 26.1 10.6 26 10.6 25.9 10.5 C 25.8 10.4 25.8 10.3 25.8 10.2 C 25.8 10 25.9 9.7 26 9.5 C 26.2 9.2 26.4 9.1 26.6 9.1 C 26.6 9.1 26.7 9.1 26.8 9.2 C 26.8 9.3 26.8 9.4 26.8 9.4 C 26.8 9.5 26.8 9.5 26.8 9.6 C 26.8 9.6 26.7 9.6 26.7 9.6 C 26.7 9.6 26.6 9.6 26.6 9.5 C 26.6 9.4 26.6 9.3 26.5 9.3 C 26.4 9.3 26.3 9.4 26.2 9.6 C 26.1 9.9 26 10 26 10.2 C 26 10.4 26.1 10.4 26.3 10.4 C 26.4 10.4 26.5 10.4 26.7 10.2 C 26.8 10.2 26.8 10.2 26.9 10.2 C 26.9 10.2 26.9 10.2 26.9 10.2 C 26.9 10.3 26.8 10.4 26.7 10.5 C 26.5 10.6 26.3 10.6 26.2 10.6 Z M 27.5 10.6 C 27.4 10.6 27.3 10.6 27.2 10.5 C 27.2 10.4 27.1 10.3 27.1 10.1 C 27.1 9.9 27.2 9.7 27.4 9.5 C 27.5 9.2 27.7 9.1 27.9 9.1 C 28.1 9.1 28.2 9.2 28.3 9.3 C 28.3 9.4 28.4 9.5 28.4 9.7 C 28.4 9.9 28.3 10.1 28.1 10.3 C 27.9 10.5 27.7 10.6 27.5 10.6 Z M 27.4 10.1 C 27.4 10.2 27.4 10.3 27.4 10.3 C 27.5 10.4 27.5 10.4 27.6 10.4 C 27.7 10.4 27.8 10.3 28 10.2 C 28.1 10.1 28.2 9.9 28.2 9.7 C 28.2 9.6 28.1 9.5 28.1 9.4 C 28 9.4 28 9.3 27.9 9.3 C 27.7 9.3 27.6 9.4 27.5 9.6 C 27.4 9.8 27.4 10 27.4 10.1 Z M 29.7 9.9 C 29.7 9.7 29.6 9.5 29.6 9.5 C 29.5 9.5 29.5 9.6 29.4 9.6 C 29.4 9.7 29.3 9.8 29.2 10 C 29 10.3 28.9 10.5 28.9 10.5 C 28.8 10.6 28.8 10.6 28.8 10.6 C 28.7 10.6 28.6 10.5 28.6 10.4 C 28.6 10.4 28.6 10.3 28.6 10.2 C 28.7 10 28.7 9.7 28.7 9.4 C 28.7 9.4 28.7 9.3 28.7 9.3 C 28.8 9.2 28.8 9.2 28.8 9.2 C 28.9 9.2 28.9 9.2 28.9 9.3 C 28.9 9.3 29 9.3 29 9.4 C 29 9.5 28.9 9.7 28.9 10 C 28.9 10.1 28.8 10.1 28.8 10.2 C 28.8 10.2 28.9 10.2 28.9 10.2 C 28.9 10.2 28.9 10.1 29 9.9 C 29.2 9.6 29.3 9.5 29.3 9.4 C 29.4 9.3 29.5 9.3 29.6 9.3 C 29.7 9.3 29.8 9.3 29.8 9.4 C 29.9 9.5 29.9 9.6 29.9 9.8 C 29.9 10 30 10.1 30 10.2 C 30 10.3 30 10.3 30.1 10.3 C 30.1 10.3 30.1 10.3 30.2 10.2 C 30.2 10.2 30.2 10.2 30.2 10.2 C 30.2 10.2 30.3 10.3 30.3 10.3 C 30.3 10.3 30.2 10.4 30.2 10.4 C 30.1 10.5 30.1 10.5 30 10.5 C 29.9 10.5 29.9 10.5 29.8 10.4 C 29.8 10.4 29.7 10.2 29.7 9.9 C 29.7 9.9 29.7 9.9 29.7 9.9 Z M 31.4 10.2 C 31.4 10.1 31.4 10.1 31.4 10 C 31.3 10.2 31.1 10.4 31 10.5 C 30.9 10.6 30.7 10.6 30.6 10.6 C 30.5 10.6 30.5 10.6 30.4 10.5 C 30.4 10.4 30.3 10.4 30.3 10.2 C 30.3 10 30.4 9.8 30.6 9.6 C 30.8 9.3 31 9.2 31.2 9.2 C 31.3 9.2 31.4 9.2 31.5 9.3 C 31.5 9.3 31.7 8.4 31.7 8.4 C 31.7 8.4 31.7 8.3 31.7 8.3 C 31.8 8.3 31.8 8.3 31.8 8.3 C 31.9 8.3 31.9 8.3 31.9 8.5 C 31.9 8.5 31.9 8.5 31.8 8.7 C 31.8 8.9 31.7 9.1 31.7 9.4 C 31.6 9.7 31.6 9.9 31.6 10.1 C 31.6 10.3 31.6 10.4 31.7 10.4 C 31.7 10.4 31.8 10.3 31.8 10.3 C 31.9 10.3 31.9 10.3 31.9 10.3 C 31.9 10.3 32 10.3 32 10.3 C 32 10.4 31.9 10.4 31.8 10.5 C 31.8 10.6 31.7 10.6 31.6 10.6 C 31.4 10.6 31.4 10.4 31.4 10.2 C 31.4 10.2 31.4 10.2 31.4 10.2 Z M 31.2 9.4 C 31.1 9.4 30.9 9.5 30.8 9.7 C 30.6 9.9 30.6 10.1 30.6 10.2 C 30.6 10.3 30.6 10.4 30.7 10.4 C 30.7 10.4 30.8 10.4 30.9 10.3 C 31 10.2 31.1 10.1 31.2 9.9 C 31.3 9.8 31.4 9.6 31.4 9.6 C 31.4 9.5 31.4 9.5 31.3 9.4 C 31.3 9.4 31.2 9.4 31.2 9.4 Z M 32.6 8.8 C 32.6 8.8 32.6 8.8 32.6 8.7 C 32.6 8.7 32.5 8.7 32.5 8.7 C 32.5 8.6 32.5 8.6 32.5 8.5 C 32.5 8.5 32.5 8.4 32.6 8.4 C 32.6 8.4 32.7 8.4 32.7 8.4 C 32.7 8.4 32.8 8.4 32.8 8.4 C 32.8 8.4 32.8 8.4 32.8 8.4 C 32.8 8.5 32.8 8.5 32.8 8.6 C 32.8 8.7 32.8 8.7 32.7 8.7 C 32.7 8.8 32.6 8.8 32.6 8.8 Z M 32.4 10.3 C 32.4 10.3 32.4 10.4 32.5 10.5 C 32.5 10.5 32.5 10.5 32.5 10.5 C 32.5 10.6 32.4 10.6 32.4 10.6 C 32.4 10.6 32.4 10.6 32.3 10.6 C 32.2 10.6 32.2 10.6 32.2 10.4 C 32.2 10.2 32.2 10 32.3 9.6 C 32.3 9.5 32.3 9.4 32.3 9.4 C 32.3 9.3 32.3 9.3 32.4 9.2 C 32.4 9.2 32.4 9.2 32.4 9.2 C 32.5 9.2 32.5 9.2 32.6 9.2 C 32.6 9.2 32.6 9.3 32.6 9.3 C 32.6 9.3 32.6 9.4 32.6 9.4 C 32.5 9.6 32.5 9.8 32.4 9.9 C 32.4 10 32.4 10.1 32.4 10.3 Z M 33.3 10.6 C 33.2 10.6 33.2 10.6 33.2 10.6 C 33.2 10.7 33.2 10.7 33.2 10.7 C 33.2 10.7 33.3 10.8 33.3 10.8 C 33.4 10.8 33.4 10.8 33.4 10.8 C 33.5 10.8 33.5 10.8 33.5 10.9 C 33.5 10.9 33.5 11 33.5 11.1 C 33.5 11.1 33.5 11.2 33.4 11.2 C 33.3 11.3 33.2 11.3 33.1 11.3 C 33 11.3 33 11.3 33 11.3 C 32.9 11.3 32.9 11.3 32.9 11.3 C 32.9 11.3 32.9 11.3 32.9 11.3 C 32.8 11.3 32.8 11.2 32.8 11.2 C 32.8 11.2 32.8 11.1 32.8 11.1 C 32.8 11.1 32.9 11.1 32.9 11.1 C 32.9 11.1 32.9 11.1 33 11.1 C 33 11.2 33 11.2 33.1 11.2 C 33.2 11.2 33.2 11.2 33.3 11.1 C 33.3 11.1 33.3 11.1 33.3 11 C 33.3 11 33.3 10.9 33.3 10.9 C 33.3 10.9 33.2 10.9 33.2 10.9 C 33.2 10.9 33.2 10.9 33.1 10.9 C 33.1 10.9 33.1 10.9 33.1 10.9 C 33 10.9 33 10.9 33 10.8 C 33 10.8 33 10.8 33 10.7 C 33.1 10.7 33.1 10.6 33.1 10.6 C 32.9 10.6 32.9 10.4 32.9 10.2 C 32.9 10 32.9 9.7 33.1 9.5 C 33.3 9.2 33.5 9.1 33.6 9.1 C 33.7 9.1 33.8 9.1 33.8 9.2 C 33.9 9.3 33.9 9.4 33.9 9.4 C 33.9 9.5 33.9 9.5 33.9 9.6 C 33.9 9.6 33.8 9.6 33.8 9.6 C 33.8 9.6 33.7 9.6 33.7 9.5 C 33.7 9.4 33.6 9.3 33.6 9.3 C 33.5 9.3 33.4 9.4 33.3 9.6 C 33.1 9.9 33.1 10 33.1 10.2 C 33.1 10.4 33.2 10.4 33.3 10.4 C 33.5 10.4 33.6 10.4 33.8 10.2 C 33.9 10.2 33.9 10.2 33.9 10.2 C 34 10.2 34 10.2 34 10.2 C 34 10.3 33.9 10.4 33.7 10.5 C 33.6 10.6 33.4 10.6 33.3 10.6 C 33.27 10.64 33.3 10.6 33.3 10.6 C 33.3 10.6 33.25 10.64 33.3 10.6 Z M 34.6 10.6 C 34.5 10.6 34.4 10.6 34.3 10.5 C 34.2 10.4 34.2 10.3 34.2 10.1 C 34.2 9.9 34.3 9.7 34.4 9.5 C 34.6 9.2 34.8 9.1 35 9.1 C 35.1 9.1 35.3 9.2 35.3 9.3 C 35.4 9.4 35.5 9.5 35.5 9.7 C 35.5 9.9 35.4 10.1 35.2 10.3 C 35 10.5 34.8 10.6 34.6 10.6 Z M 34.4 10.1 C 34.4 10.2 34.5 10.3 34.5 10.3 C 34.5 10.4 34.6 10.4 34.7 10.4 C 34.8 10.4 34.9 10.3 35.1 10.2 C 35.2 10.1 35.3 9.9 35.3 9.7 C 35.3 9.6 35.2 9.5 35.2 9.4 C 35.1 9.4 35.1 9.3 35 9.3 C 34.8 9.3 34.7 9.4 34.6 9.6 C 34.5 9.8 34.4 10 34.4 10.1 Z M 35.1 8.8 C 35.1 8.8 35.1 8.8 35.1 8.8 C 35 8.8 35 8.8 35 8.8 C 35 8.7 34.9 8.7 34.9 8.7 C 34.9 8.7 34.8 8.7 34.8 8.7 C 34.8 8.8 34.8 8.8 34.7 8.9 C 34.7 8.9 34.6 9 34.6 9 C 34.6 9 34.6 9 34.5 9 C 34.5 9 34.5 9 34.5 8.9 C 34.5 8.9 34.5 8.8 34.6 8.7 C 34.7 8.6 34.8 8.5 34.9 8.5 C 34.9 8.5 35 8.5 35 8.5 C 35 8.6 35.1 8.6 35.1 8.6 C 35.1 8.7 35.2 8.7 35.2 8.7 C 35.2 8.7 35.2 8.7 35.2 8.7 C 35.3 8.8 35.3 8.8 35.4 8.8 C 35.4 8.8 35.4 8.8 35.4 8.8 C 35.4 8.8 35.5 8.7 35.5 8.7 C 35.6 8.6 35.6 8.6 35.6 8.6 C 35.7 8.6 35.7 8.6 35.7 8.6 C 35.7 8.7 35.6 8.7 35.6 8.8 C 35.5 8.9 35.4 9 35.4 9 C 35.3 9 35.2 9 35.2 8.9 C 35.2 8.9 35.1 8.9 35.1 8.8 C 35.1 8.8 35.1 8.8 35.1 8.8 Z M 36.8 10 C 36.9 10 36.9 10.1 36.9 10.1 C 36.9 10.2 36.8 10.3 36.6 10.4 C 36.5 10.6 36.3 10.6 36.1 10.6 C 36 10.6 35.9 10.6 35.8 10.5 C 35.7 10.4 35.7 10.3 35.7 10.2 C 35.7 9.9 35.8 9.7 35.9 9.4 C 36.1 9.2 36.3 9.1 36.5 9.1 C 36.6 9.1 36.6 9.1 36.7 9.1 C 36.7 9.2 36.7 9.2 36.7 9.3 C 36.7 9.4 36.7 9.6 36.5 9.7 C 36.4 9.8 36.2 9.9 36 10.1 C 36 10.1 35.9 10.1 35.9 10.2 C 35.9 10.2 35.9 10.3 36 10.3 C 36 10.4 36.1 10.4 36.2 10.4 C 36.4 10.4 36.6 10.3 36.8 10.1 C 36.8 10.1 36.8 10 36.8 10 C 36.8 10 36.8 10 36.8 10 Z M 35.9 9.9 C 36.3 9.7 36.5 9.5 36.5 9.4 C 36.5 9.3 36.5 9.3 36.4 9.3 C 36.4 9.3 36.3 9.3 36.2 9.5 C 36.1 9.6 36 9.7 35.9 9.9 Z M 37.8 10.3 C 37.8 10.2 37.7 10.1 37.6 10.1 C 37.4 10 37.3 9.9 37.2 9.8 C 37.1 9.8 37.1 9.7 37.1 9.7 C 37.1 9.5 37.2 9.3 37.4 9.2 C 37.5 9.1 37.7 9 37.8 9 C 37.9 9 37.9 9 38 9.1 C 38 9.1 38 9.1 38 9.2 C 38 9.2 38 9.3 38 9.3 C 37.9 9.3 37.9 9.3 37.9 9.3 C 37.9 9.3 37.9 9.3 37.9 9.3 C 37.8 9.3 37.8 9.3 37.8 9.3 C 37.8 9.3 37.7 9.3 37.5 9.4 C 37.4 9.4 37.3 9.5 37.3 9.6 C 37.3 9.6 37.4 9.7 37.4 9.7 C 37.4 9.8 37.5 9.8 37.7 9.9 C 37.8 9.9 37.8 10 37.9 10 C 38 10.1 38 10.1 38 10.2 C 38 10.4 37.9 10.5 37.7 10.5 C 37.5 10.6 37.3 10.6 37.2 10.6 C 37 10.6 37 10.6 37 10.5 C 37 10.5 37 10.4 37 10.4 C 37 10.4 37.1 10.4 37.1 10.4 C 37.1 10.4 37.1 10.4 37.2 10.4 C 37.2 10.4 37.2 10.4 37.2 10.4 C 37.3 10.4 37.5 10.4 37.6 10.4 C 37.7 10.3 37.7 10.3 37.8 10.3 Z M 40.4 10 C 40.4 10 40.4 10.1 40.4 10.1 C 40.4 10.2 40.3 10.3 40.2 10.4 C 40 10.6 39.8 10.6 39.7 10.6 C 39.5 10.6 39.4 10.6 39.3 10.5 C 39.2 10.4 39.2 10.3 39.2 10.2 C 39.2 9.9 39.3 9.7 39.5 9.4 C 39.6 9.2 39.8 9.1 40 9.1 C 40.1 9.1 40.2 9.1 40.2 9.1 C 40.2 9.2 40.3 9.2 40.3 9.3 C 40.3 9.4 40.2 9.6 40.1 9.7 C 39.9 9.8 39.7 9.9 39.5 10.1 C 39.5 10.1 39.4 10.1 39.4 10.2 C 39.4 10.2 39.5 10.3 39.5 10.3 C 39.6 10.4 39.6 10.4 39.7 10.4 C 39.9 10.4 40.1 10.3 40.3 10.1 C 40.3 10.1 40.3 10 40.4 10 C 40.4 10 40.4 10 40.4 10 Z M 39.5 9.9 C 39.8 9.7 40 9.5 40 9.4 C 40 9.3 40 9.3 40 9.3 C 39.9 9.3 39.8 9.3 39.7 9.5 C 39.6 9.6 39.5 9.7 39.5 9.9 Z M 41.9 10.4 C 41.9 10.6 41.8 10.8 41.8 11.1 C 41.8 11.1 41.8 11.3 41.8 11.3 C 41.8 11.4 41.7 11.4 41.7 11.4 C 41.7 11.5 41.7 11.5 41.6 11.5 C 41.6 11.5 41.6 11.5 41.5 11.5 C 41.5 11.4 41.5 11.4 41.5 11.4 C 41.5 11.3 41.5 11.3 41.5 11.2 C 41.7 10.5 41.8 9.9 41.8 9.4 C 41.8 9.4 41.8 9.3 41.8 9.3 C 41.8 9.2 41.8 9.2 41.8 9.1 C 41.9 9.1 41.9 9.1 41.9 9.1 C 42 9.1 42 9.1 42 9.1 C 42 9.1 42 9.2 42 9.3 C 42 9.3 42 9.4 42 9.6 C 42 9.7 42 9.8 42 9.8 C 42.1 9.6 42.2 9.4 42.4 9.3 C 42.5 9.2 42.7 9.1 42.8 9.1 C 42.9 9.1 43 9.1 43 9.2 C 43.1 9.3 43.1 9.3 43.1 9.4 C 43.1 9.7 43 10 42.8 10.2 C 42.6 10.5 42.4 10.6 42.1 10.6 C 42.1 10.6 42 10.6 42 10.6 C 42 10.5 42 10.5 41.9 10.4 Z M 42.8 9.3 C 42.6 9.3 42.5 9.5 42.3 9.7 C 42.1 9.9 42 10.1 42 10.2 C 42 10.3 42 10.3 42.1 10.3 C 42.1 10.4 42.1 10.4 42.2 10.4 C 42.3 10.4 42.5 10.3 42.6 10.1 C 42.8 9.9 42.9 9.7 42.9 9.5 C 42.9 9.5 42.9 9.4 42.8 9.4 C 42.8 9.4 42.8 9.3 42.8 9.3 Z M 43.8 10.6 C 43.6 10.6 43.5 10.6 43.5 10.5 C 43.4 10.4 43.3 10.3 43.3 10.1 C 43.3 9.9 43.4 9.7 43.6 9.5 C 43.7 9.2 43.9 9.1 44.1 9.1 C 44.3 9.1 44.4 9.2 44.5 9.3 C 44.6 9.4 44.6 9.5 44.6 9.7 C 44.6 9.9 44.5 10.1 44.3 10.3 C 44.2 10.5 44 10.6 43.8 10.6 Z M 43.6 10.1 C 43.6 10.2 43.6 10.3 43.6 10.3 C 43.7 10.4 43.7 10.4 43.8 10.4 C 43.9 10.4 44.1 10.3 44.2 10.2 C 44.3 10.1 44.4 9.9 44.4 9.7 C 44.4 9.6 44.4 9.5 44.3 9.4 C 44.3 9.4 44.2 9.3 44.1 9.3 C 44 9.3 43.8 9.4 43.7 9.6 C 43.6 9.8 43.6 10 43.6 10.1 Z M 45.8 10.2 C 45.8 10.1 45.8 10.1 45.8 10 C 45.7 10.2 45.6 10.4 45.5 10.5 C 45.3 10.6 45.2 10.6 45.1 10.6 C 45 10.6 44.9 10.6 44.9 10.5 C 44.8 10.4 44.8 10.4 44.8 10.2 C 44.8 10 44.9 9.8 45.1 9.6 C 45.3 9.3 45.5 9.2 45.7 9.2 C 45.8 9.2 45.8 9.2 45.9 9.3 C 45.9 9.3 46.1 8.4 46.1 8.4 C 46.1 8.4 46.2 8.3 46.2 8.3 C 46.2 8.3 46.3 8.3 46.3 8.3 C 46.3 8.3 46.4 8.3 46.4 8.5 C 46.4 8.5 46.3 8.5 46.3 8.7 C 46.2 8.9 46.2 9.1 46.1 9.4 C 46.1 9.7 46 9.9 46 10.1 C 46 10.3 46.1 10.4 46.1 10.4 C 46.2 10.4 46.3 10.3 46.3 10.3 C 46.3 10.3 46.3 10.3 46.4 10.3 C 46.4 10.3 46.4 10.3 46.4 10.3 C 46.4 10.4 46.4 10.4 46.3 10.5 C 46.2 10.6 46.1 10.6 46 10.6 C 45.9 10.6 45.8 10.4 45.8 10.2 C 45.8 10.2 45.8 10.2 45.8 10.2 Z M 45.7 9.4 C 45.5 9.4 45.4 9.5 45.2 9.7 C 45.1 9.9 45 10.1 45 10.2 C 45 10.3 45.1 10.4 45.1 10.4 C 45.2 10.4 45.3 10.4 45.4 10.3 C 45.5 10.2 45.6 10.1 45.7 9.9 C 45.8 9.8 45.8 9.6 45.8 9.6 C 45.8 9.5 45.8 9.5 45.8 9.4 C 45.8 9.4 45.7 9.4 45.7 9.4 Z M 47.7 10 C 47.8 10 47.8 10.1 47.8 10.1 C 47.8 10.2 47.7 10.3 47.5 10.4 C 47.4 10.6 47.2 10.6 47 10.6 C 46.9 10.6 46.8 10.6 46.7 10.5 C 46.6 10.4 46.6 10.3 46.6 10.2 C 46.6 9.9 46.7 9.7 46.8 9.4 C 47 9.2 47.2 9.1 47.4 9.1 C 47.5 9.1 47.5 9.1 47.6 9.1 C 47.6 9.2 47.6 9.2 47.6 9.3 C 47.6 9.4 47.6 9.6 47.4 9.7 C 47.3 9.8 47.1 9.9 46.9 10.1 C 46.8 10.1 46.8 10.1 46.8 10.2 C 46.8 10.2 46.8 10.3 46.9 10.3 C 46.9 10.4 47 10.4 47.1 10.4 C 47.3 10.4 47.5 10.3 47.7 10.1 C 47.7 10.1 47.7 10 47.7 10 C 47.7 10 47.7 10 47.7 10 Z M 46.8 9.9 C 47.2 9.7 47.4 9.5 47.4 9.4 C 47.4 9.3 47.4 9.3 47.3 9.3 C 47.3 9.3 47.2 9.3 47.1 9.5 C 47 9.6 46.9 9.7 46.8 9.9 Z M 48.3 10 C 48.3 10 48.3 10 48.3 10 C 48.4 9.8 48.4 9.7 48.5 9.6 C 48.5 9.6 48.6 9.5 48.6 9.4 C 48.7 9.3 48.8 9.3 48.8 9.2 C 48.9 9.2 48.9 9.2 48.9 9.2 C 49 9.2 49 9.1 49.1 9.1 C 49.1 9.1 49.2 9.2 49.2 9.2 C 49.3 9.3 49.3 9.3 49.3 9.4 C 49.3 9.4 49.3 9.4 49.3 9.5 C 49.3 9.5 49.3 9.5 49.2 9.5 C 49.2 9.5 49.1 9.5 49.1 9.4 C 49.1 9.4 49 9.4 49 9.4 C 48.9 9.4 48.8 9.5 48.6 9.7 C 48.5 10 48.4 10.2 48.3 10.5 C 48.3 10.5 48.3 10.6 48.3 10.6 C 48.3 10.6 48.2 10.6 48.2 10.6 C 48.1 10.6 48.1 10.6 48.1 10.5 C 48.1 10.5 48 10.4 48 10.2 C 48 10.2 48 10.1 48.1 9.9 C 48.1 9.8 48.1 9.6 48.1 9.5 C 48.1 9.5 48.1 9.5 48.1 9.4 C 48.1 9.3 48.1 9.3 48.1 9.3 C 48.1 9.2 48.2 9.2 48.2 9.2 C 48.2 9.2 48.2 9.2 48.3 9.2 C 48.3 9.2 48.3 9.2 48.3 9.2 C 48.4 9.2 48.4 9.2 48.4 9.3 C 48.4 9.3 48.4 9.3 48.3 9.4 C 48.3 9.5 48.3 9.5 48.3 9.6 C 48.3 9.6 48.3 9.6 48.3 9.6 C 48.3 9.7 48.3 9.8 48.3 9.9 C 48.27 9.95 48.3 10 48.3 10 C 48.3 10 48.27 10.03 48.3 10 Z M 50.9 10.6 C 50.8 10.6 50.7 10.6 50.7 10.5 C 50.6 10.5 50.6 10.6 50.6 10.8 C 50.6 10.8 50.6 11.3 50.6 11.3 C 50.5 11.4 50.5 11.4 50.5 11.5 C 50.5 11.5 50.4 11.5 50.4 11.5 C 50.3 11.5 50.3 11.5 50.3 11.5 C 50.2 11.4 50.2 11.4 50.2 11.4 C 50.2 11.3 50.2 11.2 50.2 11.1 C 50.4 10.6 50.4 10 50.5 9.5 C 50.5 9.5 50.5 9.4 50.5 9.4 C 50.5 9.3 50.5 9.2 50.5 9.2 C 50.5 9.2 50.5 9.1 50.5 9.1 C 50.6 9.1 50.6 9 50.7 9 C 50.8 9 50.8 9.1 50.8 9.3 C 50.8 9.3 50.8 9.4 50.8 9.6 C 50.8 9.6 50.8 9.7 50.8 9.7 C 50.9 9.5 51 9.4 51.1 9.2 C 51.3 9.1 51.4 9.1 51.5 9.1 C 51.6 9.1 51.7 9.1 51.8 9.2 C 51.8 9.3 51.9 9.3 51.9 9.5 C 51.9 9.7 51.7 10 51.5 10.2 C 51.3 10.5 51.1 10.6 50.9 10.6 C 50.9 10.6 50.9 10.6 50.9 10.6 Z M 51.4 9.4 C 51.3 9.4 51.2 9.5 51 9.7 C 50.9 9.9 50.8 10.1 50.8 10.2 C 50.8 10.2 50.8 10.3 50.8 10.3 C 50.8 10.3 50.9 10.3 50.9 10.3 C 51 10.3 51.2 10.2 51.3 10.1 C 51.5 9.9 51.5 9.7 51.5 9.5 C 51.5 9.5 51.5 9.4 51.5 9.4 C 51.5 9.4 51.5 9.4 51.4 9.4 Z M 53.2 10.6 C 53 10.6 53 10.5 53 10.1 C 52.7 10.4 52.5 10.6 52.3 10.6 C 52.2 10.6 52.1 10.5 52.1 10.5 C 52 10.4 52 10.3 52 10.2 C 52 10 52.1 9.8 52.3 9.5 C 52.5 9.2 52.7 9.1 53 9.1 C 53.1 9.1 53.1 9.1 53.2 9.3 C 53.3 9.3 53.3 9.3 53.3 9.4 C 53.3 9.4 53.3 9.5 53.3 9.6 C 53.3 9.8 53.2 9.9 53.2 10 C 53.2 10.1 53.2 10.2 53.3 10.3 C 53.3 10.3 53.3 10.3 53.3 10.3 C 53.3 10.4 53.3 10.4 53.4 10.4 C 53.4 10.4 53.4 10.4 53.4 10.5 C 53.4 10.5 53.4 10.5 53.3 10.6 C 53.3 10.6 53.3 10.6 53.2 10.6 C 53.2 10.6 53.2 10.6 53.2 10.6 Z M 52.9 9.4 C 52.8 9.4 52.7 9.5 52.5 9.7 C 52.4 9.9 52.3 10 52.3 10.2 C 52.3 10.3 52.3 10.3 52.4 10.3 C 52.5 10.3 52.6 10.2 52.8 10 C 52.9 9.8 53 9.7 53 9.5 C 53 9.5 53 9.4 53 9.4 C 52.9 9.4 52.9 9.4 52.9 9.4 Z M 53.9 9.9 C 53.9 9.9 53.97 9.86 54 9.9 C 54.1 9.6 54.2 9.5 54.3 9.3 C 54.4 9.2 54.6 9.1 54.7 9.1 C 54.8 9.1 54.8 9.2 54.9 9.2 C 55 9.3 55 9.3 55 9.4 C 55 9.4 55 9.5 55 9.5 C 54.9 9.5 54.9 9.5 54.9 9.5 C 54.8 9.5 54.8 9.5 54.7 9.5 C 54.7 9.4 54.7 9.4 54.7 9.4 C 54.6 9.4 54.5 9.5 54.3 9.7 C 54.2 9.9 54.1 10.2 54 10.4 C 54 10.5 54 10.6 54 10.6 C 53.9 10.6 53.9 10.6 53.8 10.6 C 53.8 10.6 53.7 10.6 53.7 10.5 C 53.7 10.5 53.7 10.3 53.7 10.2 C 53.7 10.1 53.7 10 53.7 9.9 C 53.7 9.8 53.7 9.7 53.7 9.5 C 53.7 9.5 53.7 9.5 53.7 9.5 C 53.7 9.4 53.7 9.3 53.7 9.3 C 53.7 9.2 53.8 9.2 53.8 9.2 C 53.8 9.2 53.9 9.1 53.9 9.1 C 54 9.1 54 9.2 54 9.2 C 54.1 9.2 54.1 9.2 54.1 9.3 C 54.1 9.3 54.1 9.4 54 9.5 C 54 9.6 54 9.6 54 9.7 C 53.98 9.69 53.9 9.9 53.9 9.9 Z M 56.1 10.6 C 55.9 10.6 55.8 10.5 55.9 10.1 C 55.6 10.4 55.4 10.6 55.2 10.6 C 55.1 10.6 55 10.5 55 10.5 C 54.9 10.4 54.9 10.3 54.9 10.2 C 54.9 10 55 9.8 55.2 9.5 C 55.4 9.2 55.6 9.1 55.8 9.1 C 55.9 9.1 56 9.1 56.1 9.3 C 56.2 9.3 56.2 9.3 56.2 9.4 C 56.2 9.4 56.2 9.5 56.2 9.6 C 56.1 9.8 56.1 9.9 56.1 10 C 56.1 10.1 56.1 10.2 56.1 10.3 C 56.2 10.3 56.2 10.3 56.2 10.3 C 56.2 10.4 56.2 10.4 56.2 10.4 C 56.3 10.4 56.3 10.4 56.3 10.5 C 56.3 10.5 56.3 10.5 56.2 10.6 C 56.2 10.6 56.1 10.6 56.1 10.6 C 56.1 10.6 56.1 10.6 56.1 10.6 Z M 55.8 9.4 C 55.7 9.4 55.6 9.5 55.4 9.7 C 55.3 9.9 55.2 10 55.2 10.2 C 55.2 10.3 55.2 10.3 55.3 10.3 C 55.4 10.3 55.5 10.2 55.6 10 C 55.8 9.8 55.9 9.7 55.9 9.5 C 55.9 9.5 55.9 9.4 55.8 9.4 C 55.8 9.4 55.8 9.4 55.8 9.4 Z M 57.9 10.5 C 57.9 10.6 57.8 10.6 57.7 10.6 C 57.6 10.6 57.6 10.5 57.6 10.4 C 57.6 10.1 57.6 9.9 57.6 9.7 C 57.6 9.5 57.6 9.4 57.6 9.2 C 57.6 9.2 57.6 9.2 57.7 9.1 C 57.7 9.1 57.7 9.1 57.8 9.1 C 57.9 9.1 58 9.2 58 9.3 C 58 9.4 57.9 9.5 57.9 9.7 C 57.9 9.9 57.8 10 57.8 10 C 58.1 9.5 58.3 9.2 58.5 9.2 C 58.6 9.2 58.7 9.2 58.7 9.3 C 58.8 9.4 58.8 9.5 58.8 9.7 C 58.8 9.9 58.8 10 58.9 10 C 58.9 10 58.9 9.9 59 9.7 C 59.1 9.5 59.2 9.4 59.3 9.3 C 59.4 9.2 59.4 9.2 59.5 9.2 C 59.6 9.2 59.7 9.2 59.7 9.3 C 59.8 9.4 59.8 9.5 59.8 9.7 C 59.8 9.9 59.9 10 59.9 10.1 C 59.9 10.2 60 10.2 60 10.3 C 60.1 10.3 60.1 10.3 60.1 10.4 C 60.1 10.4 60 10.4 60 10.5 C 59.9 10.5 59.9 10.5 59.8 10.5 C 59.8 10.5 59.7 10.5 59.6 10.4 C 59.6 10.3 59.5 10.1 59.5 9.9 C 59.5 9.7 59.5 9.7 59.5 9.6 C 59.5 9.6 59.5 9.5 59.4 9.5 C 59.4 9.5 59.4 9.6 59.4 9.6 C 59.3 9.7 59.3 9.8 59.2 10 C 59.1 10.2 59 10.3 59 10.4 C 58.9 10.5 58.8 10.5 58.8 10.5 C 58.7 10.5 58.7 10.5 58.6 10.4 C 58.6 10.4 58.5 10.2 58.5 9.9 C 58.5 9.7 58.5 9.6 58.5 9.6 C 58.4 9.6 58.4 9.7 58.2 9.9 C 58.1 10.1 58 10.3 57.9 10.5 Z M 61.2 10.1 C 61.1 10.2 61 10.4 60.9 10.4 C 60.7 10.5 60.6 10.6 60.5 10.6 C 60.4 10.6 60.4 10.5 60.3 10.5 C 60.2 10.4 60.2 10.3 60.2 10.1 C 60.2 10 60.2 9.9 60.3 9.7 C 60.3 9.5 60.4 9.4 60.4 9.3 C 60.4 9.2 60.4 9.1 60.5 9.1 C 60.6 9.1 60.6 9.2 60.6 9.2 C 60.7 9.2 60.7 9.3 60.7 9.3 C 60.7 9.4 60.7 9.5 60.6 9.6 C 60.6 9.6 60.6 9.7 60.5 9.9 C 60.5 10 60.5 10.1 60.5 10.1 C 60.5 10.2 60.5 10.3 60.6 10.3 C 60.6 10.3 60.8 10.2 60.9 10.1 C 61 9.9 61.1 9.8 61.1 9.6 C 61.2 9.5 61.2 9.4 61.2 9.3 C 61.3 9.3 61.3 9.2 61.4 9.2 C 61.5 9.2 61.5 9.3 61.5 9.4 C 61.5 9.4 61.5 9.4 61.5 9.5 C 61.4 9.6 61.4 9.8 61.4 10 C 61.4 10.3 61.5 10.4 61.5 10.4 C 61.6 10.4 61.6 10.5 61.6 10.5 C 61.6 10.5 61.6 10.6 61.5 10.6 C 61.5 10.6 61.4 10.6 61.4 10.6 C 61.3 10.6 61.3 10.6 61.2 10.5 C 61.2 10.4 61.2 10.2 61.2 10.1 Z M 62.8 10.1 C 62.5 10.4 62.3 10.6 62.1 10.6 C 62 10.6 61.9 10.6 61.8 10.5 C 61.8 10.4 61.8 10.3 61.8 10.2 C 61.8 10 61.9 9.7 62 9.5 C 62.2 9.3 62.4 9.2 62.6 9.2 C 62.7 9.2 62.8 9.2 62.9 9.3 C 62.9 9 63 8.8 63 8.7 C 63 8.6 63 8.5 63.1 8.4 C 63.1 8.4 63.1 8.4 63.1 8.3 C 63.2 8.3 63.2 8.3 63.2 8.3 C 63.3 8.3 63.3 8.3 63.3 8.4 C 63.4 8.4 63.4 8.4 63.4 8.5 C 63.4 8.5 63.3 8.6 63.3 8.7 C 63.2 8.9 63.2 9.1 63.1 9.4 C 63.1 9.7 63 9.9 63 10.1 C 63 10.2 63.1 10.3 63.1 10.3 C 63.2 10.3 63.2 10.3 63.3 10.3 C 63.3 10.3 63.3 10.2 63.3 10.2 C 63.4 10.2 63.4 10.3 63.4 10.3 C 63.4 10.4 63.4 10.4 63.3 10.5 C 63.2 10.6 63.1 10.6 63 10.6 C 62.9 10.6 62.9 10.5 62.8 10.5 C 62.8 10.4 62.8 10.3 62.8 10.1 Z M 62.6 9.4 C 62.5 9.4 62.4 9.5 62.3 9.7 C 62.1 9.9 62.1 10 62.1 10.2 C 62.1 10.3 62.1 10.3 62.2 10.3 C 62.3 10.3 62.4 10.2 62.6 10 C 62.7 9.8 62.8 9.7 62.8 9.6 C 62.8 9.5 62.8 9.5 62.7 9.5 C 62.7 9.4 62.7 9.4 62.6 9.4 Z M 64.7 10.6 C 64.6 10.6 64.5 10.5 64.5 10.1 C 64.3 10.4 64 10.6 63.8 10.6 C 63.7 10.6 63.7 10.5 63.6 10.5 C 63.5 10.4 63.5 10.3 63.5 10.2 C 63.5 10 63.6 9.8 63.8 9.5 C 64 9.2 64.3 9.1 64.5 9.1 C 64.6 9.1 64.7 9.1 64.7 9.3 C 64.8 9.3 64.8 9.3 64.8 9.4 C 64.8 9.4 64.8 9.5 64.8 9.6 C 64.8 9.8 64.8 9.9 64.8 10 C 64.8 10.1 64.8 10.2 64.8 10.3 C 64.8 10.3 64.8 10.3 64.8 10.3 C 64.8 10.4 64.8 10.4 64.9 10.4 C 64.9 10.4 64.9 10.4 64.9 10.5 C 64.9 10.5 64.9 10.5 64.9 10.6 C 64.8 10.6 64.8 10.6 64.7 10.6 C 64.7 10.6 64.7 10.6 64.7 10.6 Z M 64.4 9.4 C 64.3 9.4 64.2 9.5 64.1 9.7 C 63.9 9.9 63.8 10 63.8 10.2 C 63.8 10.3 63.9 10.3 63.9 10.3 C 64 10.3 64.1 10.2 64.3 10 C 64.4 9.8 64.5 9.7 64.5 9.5 C 64.5 9.5 64.5 9.4 64.5 9.4 C 64.5 9.4 64.4 9.4 64.4 9.4 Z M 65.5 9.9 C 65.5 9.9 65.48 9.86 65.5 9.9 C 65.6 9.6 65.7 9.5 65.8 9.3 C 66 9.2 66.1 9.1 66.2 9.1 C 66.3 9.1 66.4 9.2 66.4 9.2 C 66.5 9.3 66.5 9.3 66.5 9.4 C 66.5 9.4 66.5 9.5 66.5 9.5 C 66.5 9.5 66.4 9.5 66.4 9.5 C 66.3 9.5 66.3 9.5 66.2 9.5 C 66.2 9.4 66.2 9.4 66.2 9.4 C 66.1 9.4 66 9.5 65.8 9.7 C 65.7 9.9 65.6 10.2 65.5 10.4 C 65.5 10.5 65.5 10.6 65.5 10.6 C 65.4 10.6 65.4 10.6 65.3 10.6 C 65.3 10.6 65.2 10.6 65.2 10.5 C 65.2 10.5 65.2 10.3 65.2 10.2 C 65.2 10.1 65.2 10 65.2 9.9 C 65.2 9.8 65.2 9.7 65.2 9.5 C 65.2 9.5 65.2 9.5 65.2 9.5 C 65.2 9.4 65.2 9.3 65.2 9.3 C 65.3 9.2 65.3 9.2 65.3 9.2 C 65.4 9.2 65.4 9.1 65.4 9.1 C 65.5 9.1 65.5 9.2 65.6 9.2 C 65.6 9.2 65.6 9.2 65.6 9.3 C 65.6 9.3 65.6 9.4 65.5 9.5 C 65.5 9.6 65.5 9.6 65.5 9.7 C 65.49 9.69 65.5 9.9 65.5 9.9 Z M 68.4 10.1 C 68.3 10.2 68.2 10.4 68.1 10.5 C 67.9 10.5 67.8 10.6 67.7 10.6 C 67.7 10.6 67.6 10.6 67.5 10.5 C 67.5 10.4 67.5 10.4 67.5 10.3 C 67.5 10 67.6 9.8 67.8 9.5 C 68 9.2 68.2 9.1 68.4 9.1 C 68.5 9.1 68.5 9.1 68.6 9.2 C 68.6 9.3 68.6 9.3 68.6 9.3 C 68.7 9.3 68.7 9.3 68.7 9.4 C 68.7 9.4 68.7 9.4 68.7 9.5 C 68.7 9.7 68.7 9.9 68.7 10 C 68.7 10.2 68.7 10.4 68.8 10.4 C 68.8 10.4 68.8 10.5 68.8 10.5 C 68.8 10.5 68.8 10.6 68.8 10.6 C 68.7 10.6 68.7 10.6 68.7 10.6 C 68.6 10.6 68.5 10.6 68.5 10.5 C 68.5 10.4 68.4 10.3 68.4 10.1 Z M 68.5 9.5 C 68.5 9.4 68.4 9.3 68.3 9.3 C 68.2 9.3 68.1 9.4 67.9 9.7 C 67.8 9.9 67.7 10.1 67.7 10.2 C 67.7 10.3 67.7 10.4 67.8 10.4 C 67.9 10.4 68 10.3 68.2 10.1 C 68.4 9.9 68.5 9.7 68.5 9.5 C 68.5 9.5 68.5 9.5 68.5 9.5 Z " stroke="none" fill="#000"/>  </g>  <g id="Polygon16594">    <path d="M 20.5 2.8 C 20.5 2.8 20.5 2.8 20.5 2.8 C 20.5 2.8 20.5 2.9 20.3 3.2 C 20.1 3.5 19.9 3.7 19.8 3.9 C 19.7 4.1 19.4 4.5 19.1 5.1 C 18.8 5.5 18.7 5.7 18.6 5.8 C 18.5 6.1 18.4 6.3 18.3 6.4 C 18.3 6.5 18.2 6.6 18.1 6.7 C 18 6.7 17.9 6.7 17.8 6.7 C 17.7 6.7 17.6 6.7 17.6 6.6 C 17.5 6.5 17.4 6.3 17.3 6.1 C 17.2 5.8 17.1 5.3 16.9 4.8 C 16.4 3.7 16.2 3.1 16.2 3.1 C 16.2 3 16.2 2.9 16.3 2.8 C 16.4 2.7 16.5 2.6 16.6 2.6 C 16.7 2.6 16.8 2.7 16.8 2.8 C 16.9 2.8 17 3 17 3.3 C 17.1 3.5 17.2 3.9 17.4 4.5 C 17.7 5.1 17.8 5.5 18 5.8 C 18 5.8 18.1 5.7 18.2 5.5 C 18.2 5.4 18.2 5.4 18.2 5.4 C 18.5 5 18.7 4.6 18.9 4.3 C 19.2 3.7 19.5 3.2 19.7 2.9 C 19.9 2.6 20.1 2.5 20.2 2.5 C 20.4 2.5 20.5 2.6 20.5 2.8 C 20.53 2.77 20.5 2.8 20.5 2.8 C 20.5 2.8 20.53 2.8 20.5 2.8 Z M 22.8 5.3 C 22.7 5.7 22.4 6.1 22.1 6.4 C 21.7 6.7 21.3 6.9 21 6.9 C 20.7 6.9 20.5 6.8 20.3 6.6 C 20.1 6.4 20 6.1 20 5.8 C 20 5.3 20.2 4.8 20.5 4.4 C 20.9 3.9 21.3 3.6 21.7 3.6 C 22.1 3.6 22.3 3.8 22.5 4 C 22.7 4.2 22.8 4.5 22.8 4.9 C 22.8 5 22.8 5.1 22.8 5.3 C 22.8 5.3 22.8 5.3 22.8 5.3 Z M 21.3 4.4 C 21.2 4.5 21 4.7 20.9 4.9 C 20.8 5.2 20.7 5.5 20.7 5.7 C 20.7 5.9 20.8 6 20.8 6.1 C 20.9 6.2 20.9 6.3 21 6.3 C 21.3 6.3 21.5 6.1 21.8 5.9 C 22 5.6 22.2 5.3 22.2 4.9 C 22.2 4.7 22.1 4.6 22 4.4 C 21.9 4.3 21.8 4.2 21.7 4.2 C 21.5 4.2 21.4 4.3 21.3 4.4 C 21.3 4.4 21.3 4.4 21.3 4.4 Z M 24.4 4.4 C 24.4 4.4 24.4 4.6 24.3 5.1 C 24.2 5.5 24.1 5.7 24.1 5.8 C 24.1 6 24.1 6.1 24.2 6.1 C 24.2 6.2 24.3 6.2 24.3 6.2 C 24.5 6.2 24.6 6.2 24.7 6.2 C 24.7 6.1 24.9 6.1 25 5.9 C 25.1 5.9 25.2 5.8 25.3 5.8 C 25.3 5.8 25.4 5.8 25.4 5.9 C 25.5 5.9 25.5 5.9 25.5 6 C 25.5 6.1 25.3 6.3 25.1 6.5 C 24.8 6.7 24.5 6.9 24.2 6.9 C 24 6.9 23.8 6.8 23.6 6.6 C 23.5 6.5 23.4 6.3 23.4 6 C 23.4 5.7 23.5 5.2 23.7 4.5 C 23.6 4.5 23.5 4.5 23.5 4.5 C 23.5 4.5 23.4 4.5 23.4 4.5 C 23.3 4.5 23.2 4.5 23.1 4.4 C 23.1 4.3 23 4.2 23 4.1 C 23 4 23.1 3.9 23.3 3.9 C 23.3 3.9 23.9 3.9 23.9 3.9 C 24 3.6 24.1 3.3 24.1 3 C 24.2 2.7 24.3 2.6 24.5 2.6 C 24.6 2.6 24.7 2.6 24.8 2.7 C 24.8 2.8 24.8 2.8 24.8 2.9 C 24.8 2.9 24.8 3.2 24.6 3.8 C 25.2 3.7 25.5 3.7 25.6 3.7 C 25.7 3.7 25.8 3.7 25.8 3.8 C 25.8 3.8 25.8 3.8 25.8 3.9 C 25.8 4.1 25.7 4.2 25.4 4.3 C 25.4 4.3 24.4 4.4 24.4 4.4 Z M 28.6 5.3 C 28.4 5.7 28.2 6.1 27.8 6.4 C 27.5 6.7 27.1 6.9 26.8 6.9 C 26.5 6.9 26.3 6.8 26.1 6.6 C 25.9 6.4 25.8 6.1 25.8 5.8 C 25.8 5.3 26 4.8 26.3 4.4 C 26.6 3.9 27 3.6 27.5 3.6 C 27.8 3.6 28.1 3.8 28.3 4 C 28.5 4.2 28.6 4.5 28.6 4.9 C 28.6 5 28.6 5.1 28.6 5.3 C 28.6 5.3 28.6 5.3 28.6 5.3 Z M 27.1 4.4 C 26.9 4.5 26.8 4.7 26.7 4.9 C 26.6 5.2 26.5 5.5 26.5 5.7 C 26.5 5.9 26.5 6 26.6 6.1 C 26.6 6.2 26.7 6.3 26.8 6.3 C 27.1 6.3 27.3 6.1 27.6 5.9 C 27.8 5.6 27.9 5.3 27.9 4.9 C 27.9 4.7 27.9 4.6 27.8 4.4 C 27.7 4.3 27.6 4.2 27.5 4.2 C 27.3 4.2 27.2 4.3 27.1 4.4 C 27.1 4.4 27.1 4.4 27.1 4.4 Z M 31.5 6.3 C 31.5 6.2 31.5 6 31.5 5.8 C 31.6 5.1 31.7 4.4 31.8 3.7 C 31.8 3.5 31.8 3.4 31.8 3.3 C 31.8 3.3 31.8 3.3 31.8 3.3 C 31.6 3.2 31.5 3.1 31.5 3 C 31.5 2.9 31.5 2.8 31.6 2.8 C 31.7 2.7 31.8 2.6 31.9 2.6 C 31.9 2.6 32.2 2.7 32.2 2.7 C 32.4 2.7 32.7 2.6 33 2.6 C 33.2 2.6 33.4 2.6 33.6 2.6 C 34.1 2.6 34.6 2.7 34.9 3 C 35.2 3.3 35.4 3.7 35.4 4.2 C 35.4 4.8 35.1 5.2 34.6 5.7 C 34.1 6.1 33.5 6.4 32.8 6.6 C 32.6 6.6 32.5 6.7 32.4 6.7 C 32.3 6.7 32.2 6.8 32.1 6.8 C 32 6.9 31.9 7 31.7 7 C 31.6 7 31.5 6.9 31.5 6.8 C 31.4 6.8 31.4 6.7 31.4 6.6 C 31.4 6.6 31.4 6.5 31.4 6.4 C 31.4 6.4 31.5 6.3 31.5 6.3 Z M 32.2 5.9 C 32.2 6 32.2 6.1 32.2 6.1 C 32.3 6.1 32.6 6.1 33.1 5.9 C 33.6 5.8 34 5.5 34.3 5.2 C 34.5 4.9 34.7 4.6 34.7 4.2 C 34.7 3.9 34.6 3.6 34.4 3.4 C 34.1 3.2 33.9 3.2 33.5 3.2 C 33.3 3.2 33 3.2 32.6 3.2 C 32.6 3.2 32.5 3.2 32.5 3.2 C 32.3 4.5 32.2 5.4 32.2 5.9 C 32.2 5.9 32.2 5.9 32.2 5.9 Z M 37.3 2.5 C 37.3 2.6 37.3 2.7 37.2 2.9 C 37 3 36.9 3 36.8 3 C 36.7 3 36.6 3 36.5 2.9 C 36.5 2.8 36.4 2.7 36.4 2.6 C 36.4 2.4 36.5 2.3 36.5 2.2 C 36.6 2.2 36.8 2.1 36.9 2.1 C 37 2.1 37.1 2.2 37.2 2.2 C 37.3 2.3 37.3 2.4 37.3 2.5 Z M 35.9 5.1 C 35.9 5 36 4.9 36 4.8 C 36 4.8 36 4.8 36 4.8 C 36 4.5 36.1 4.3 36.1 4.2 C 36.1 4.1 36.1 4 36.2 3.9 C 36.2 3.8 36.3 3.8 36.4 3.8 C 36.5 3.8 36.6 3.8 36.7 3.8 C 36.8 3.9 36.8 4 36.8 4 C 36.8 4.1 36.8 4.3 36.7 4.5 C 36.7 4.5 36.7 4.6 36.7 4.6 C 36.6 4.9 36.5 5.2 36.5 5.5 C 36.5 5.7 36.5 5.9 36.5 6 C 36.5 6.2 36.5 6.3 36.5 6.5 C 36.5 6.5 36.5 6.6 36.5 6.6 C 36.5 6.6 36.5 6.7 36.4 6.8 C 36.3 6.8 36.3 6.9 36.2 6.9 C 35.9 6.9 35.8 6.7 35.8 6.3 C 35.8 6 35.8 5.6 35.9 5.1 C 35.9 5.1 35.9 5.1 35.9 5.1 Z M 38.7 6 C 38.7 5.9 38.5 5.8 38.2 5.6 C 37.8 5.4 37.5 5.3 37.4 5.1 C 37.3 5 37.3 4.9 37.3 4.7 C 37.3 4.4 37.5 4.1 37.8 3.8 C 38.2 3.6 38.6 3.4 38.9 3.4 C 39.2 3.4 39.4 3.6 39.4 3.9 C 39.4 3.9 39.3 4 39.3 4.1 C 39.2 4.1 39.1 4.1 39.1 4.1 C 39.1 4.1 39 4.1 39 4.1 C 38.9 4.1 38.9 4.1 38.8 4.1 C 38.7 4.1 38.5 4.1 38.3 4.2 C 38.1 4.4 38 4.5 38 4.6 C 38 4.7 38 4.8 38.1 4.9 C 38.2 4.9 38.3 5 38.5 5.1 C 38.9 5.3 39.1 5.4 39.2 5.5 C 39.3 5.7 39.3 5.8 39.3 6 C 39.3 6.2 39.1 6.5 38.8 6.6 C 38.4 6.8 38 6.9 37.5 6.9 C 37.2 6.9 37 6.8 37 6.5 C 37 6.5 37 6.4 37.1 6.3 C 37.2 6.3 37.3 6.2 37.3 6.2 C 37.4 6.2 37.4 6.2 37.5 6.3 C 37.6 6.3 37.7 6.3 37.7 6.3 C 37.9 6.3 38.1 6.3 38.3 6.2 C 38.5 6.2 38.6 6.1 38.7 6 Z M 40.8 4.4 C 40.8 4.4 40.8 4.6 40.7 5.1 C 40.6 5.5 40.5 5.7 40.5 5.8 C 40.5 6 40.6 6.1 40.6 6.1 C 40.6 6.2 40.7 6.2 40.8 6.2 C 40.9 6.2 41 6.2 41.1 6.2 C 41.2 6.1 41.3 6.1 41.4 5.9 C 41.5 5.9 41.6 5.8 41.7 5.8 C 41.8 5.8 41.8 5.8 41.8 5.9 C 41.9 5.9 41.9 5.9 41.9 6 C 41.9 6.1 41.7 6.3 41.5 6.5 C 41.2 6.7 40.9 6.9 40.6 6.9 C 40.4 6.9 40.2 6.8 40 6.6 C 39.9 6.5 39.8 6.3 39.8 6 C 39.8 5.7 39.9 5.2 40.1 4.5 C 40 4.5 39.9 4.5 39.9 4.5 C 39.9 4.5 39.8 4.5 39.8 4.5 C 39.7 4.5 39.6 4.5 39.6 4.4 C 39.5 4.3 39.4 4.2 39.4 4.1 C 39.4 4 39.5 3.9 39.7 3.9 C 39.7 3.9 40.3 3.9 40.3 3.9 C 40.4 3.6 40.5 3.3 40.6 3 C 40.6 2.7 40.7 2.6 40.9 2.6 C 41 2.6 41.1 2.6 41.2 2.7 C 41.2 2.8 41.2 2.8 41.2 2.9 C 41.2 2.9 41.2 3.2 41 3.8 C 41.6 3.7 41.9 3.7 42 3.7 C 42.1 3.7 42.2 3.7 42.2 3.8 C 42.2 3.8 42.2 3.8 42.2 3.9 C 42.2 4.1 42.1 4.2 41.8 4.3 C 41.8 4.3 40.8 4.4 40.8 4.4 Z M 43 5.3 C 43 5.3 43.04 5.23 43 5.2 C 43.3 4.8 43.5 4.4 43.8 4.1 C 44 3.8 44.3 3.7 44.6 3.7 C 44.8 3.7 44.9 3.7 45 3.8 C 45.2 3.9 45.2 4.1 45.2 4.2 C 45.2 4.3 45.2 4.4 45.2 4.4 C 45.1 4.5 45.1 4.5 45 4.5 C 44.9 4.5 44.8 4.5 44.7 4.4 C 44.6 4.3 44.5 4.3 44.5 4.3 C 44.4 4.3 44.1 4.5 43.8 5 C 43.4 5.4 43.2 5.9 43.2 6.5 C 43.2 6.6 43.1 6.7 43 6.8 C 43 6.9 42.9 6.9 42.7 6.9 C 42.6 6.9 42.5 6.8 42.5 6.7 C 42.4 6.5 42.4 6.3 42.4 5.9 C 42.4 5.8 42.4 5.6 42.4 5.4 C 42.4 5.2 42.4 4.9 42.5 4.6 C 42.5 4.5 42.5 4.4 42.5 4.4 C 42.5 4.2 42.5 4 42.5 4 C 42.6 3.9 42.6 3.8 42.7 3.8 C 42.8 3.7 42.9 3.7 43 3.7 C 43.1 3.7 43.1 3.7 43.2 3.8 C 43.2 3.8 43.3 3.9 43.3 4 C 43.3 4.1 43.2 4.2 43.1 4.5 C 43.1 4.6 43.1 4.7 43.1 4.9 C 43.06 4.88 43 5.3 43 5.3 Z M 46.8 2.5 C 46.8 2.6 46.7 2.7 46.6 2.9 C 46.5 3 46.3 3 46.3 3 C 46.1 3 46 3 46 2.9 C 45.9 2.8 45.8 2.7 45.8 2.6 C 45.8 2.4 45.9 2.3 46 2.2 C 46 2.2 46.2 2.1 46.3 2.1 C 46.5 2.1 46.6 2.2 46.6 2.2 C 46.7 2.3 46.8 2.4 46.8 2.5 Z M 45.3 5.1 C 45.4 5 45.4 4.9 45.4 4.8 C 45.4 4.8 45.4 4.8 45.4 4.8 C 45.4 4.5 45.5 4.3 45.5 4.2 C 45.5 4.1 45.5 4 45.6 3.9 C 45.6 3.8 45.7 3.8 45.8 3.8 C 46 3.8 46.1 3.8 46.1 3.8 C 46.2 3.9 46.2 4 46.2 4 C 46.2 4.1 46.2 4.3 46.1 4.5 C 46.1 4.5 46.1 4.6 46.1 4.6 C 46 4.9 45.9 5.2 45.9 5.5 C 45.9 5.7 45.9 5.9 45.9 6 C 45.9 6.2 45.9 6.3 46 6.5 C 46 6.5 46 6.6 46 6.6 C 46 6.6 45.9 6.7 45.8 6.8 C 45.8 6.8 45.7 6.9 45.6 6.9 C 45.3 6.9 45.2 6.7 45.2 6.3 C 45.2 6 45.2 5.6 45.3 5.1 C 45.3 5.1 45.3 5.1 45.3 5.1 Z M 47.9 4.4 C 47.9 4.4 47.8 4.6 47.7 5.1 C 47.7 5.5 47.6 5.7 47.6 5.8 C 47.6 6 47.6 6.1 47.7 6.1 C 47.7 6.2 47.7 6.2 47.8 6.2 C 47.9 6.2 48 6.2 48.1 6.2 C 48.2 6.1 48.4 6.1 48.5 5.9 C 48.6 5.9 48.7 5.8 48.8 5.8 C 48.8 5.8 48.9 5.8 48.9 5.9 C 48.9 5.9 48.9 5.9 48.9 6 C 48.9 6.1 48.8 6.3 48.5 6.5 C 48.3 6.7 48 6.9 47.7 6.9 C 47.4 6.9 47.2 6.8 47.1 6.6 C 47 6.5 46.9 6.3 46.9 6 C 46.9 5.7 47 5.2 47.2 4.5 C 47.1 4.5 47 4.5 46.9 4.5 C 46.9 4.5 46.9 4.5 46.9 4.5 C 46.8 4.5 46.7 4.5 46.6 4.4 C 46.5 4.3 46.5 4.2 46.5 4.1 C 46.5 4 46.6 3.9 46.8 3.9 C 46.8 3.9 47.4 3.9 47.4 3.9 C 47.4 3.6 47.5 3.3 47.6 3 C 47.7 2.7 47.8 2.6 48 2.6 C 48.1 2.6 48.2 2.6 48.2 2.7 C 48.3 2.8 48.3 2.8 48.3 2.9 C 48.3 2.9 48.2 3.2 48.1 3.8 C 48.7 3.7 49 3.7 49.1 3.7 C 49.2 3.7 49.2 3.7 49.3 3.8 C 49.3 3.8 49.3 3.8 49.3 3.9 C 49.3 4.1 49.2 4.2 48.9 4.3 C 48.9 4.3 47.9 4.4 47.9 4.4 Z M 51.8 6.8 C 51.4 6.8 51.3 6.5 51.3 5.8 C 50.8 6.4 50.3 6.8 49.9 6.8 C 49.7 6.8 49.5 6.7 49.4 6.6 C 49.3 6.4 49.2 6.3 49.2 6 C 49.2 5.5 49.4 5 49.9 4.4 C 50.3 3.9 50.8 3.6 51.3 3.6 C 51.5 3.6 51.6 3.7 51.7 3.9 C 51.9 3.9 52 4 52 4.2 C 52 4.3 52 4.4 52 4.6 C 51.9 5 51.9 5.3 51.9 5.6 C 51.9 5.8 51.9 6 51.9 6.1 C 51.9 6.2 52 6.2 52 6.3 C 52 6.3 52 6.3 52.1 6.4 C 52.2 6.4 52.2 6.4 52.2 6.5 C 52.2 6.6 52.2 6.7 52.1 6.8 C 52 6.8 51.9 6.8 51.8 6.8 C 51.8 6.8 51.8 6.8 51.8 6.8 Z M 51.1 4.2 C 50.9 4.2 50.7 4.4 50.4 4.8 C 50.1 5.3 49.9 5.6 49.9 5.9 C 49.9 6.1 50 6.1 50 6.1 C 50.2 6.1 50.5 5.9 50.8 5.5 C 51.2 5.2 51.3 4.8 51.3 4.5 C 51.3 4.4 51.3 4.3 51.3 4.3 C 51.2 4.2 51.2 4.2 51.1 4.2 Z M 55.5 6.6 C 55.4 6.6 55.4 6.6 55.2 6.6 C 55.1 6.6 55 6.6 55 6.6 C 54.5 6.6 54 6.6 53.5 6.8 C 53.3 6.9 53.1 6.9 53.1 6.9 C 52.9 6.9 52.8 6.8 52.8 6.8 C 52.7 6.7 52.7 6.6 52.7 6.5 C 52.7 6.5 52.7 6.4 52.7 6.2 C 52.8 6.1 52.8 5.9 52.8 5.6 C 52.8 5.6 53.1 3.3 53.1 3.3 C 53.1 3 53.1 2.9 53.2 2.8 C 53.2 2.8 53.2 2.7 53.3 2.7 C 53.3 2.6 53.4 2.6 53.5 2.6 C 53.6 2.6 53.7 2.6 53.8 2.7 C 53.9 2.7 53.9 2.8 53.9 2.9 C 53.9 3 53.9 3.1 53.8 3.3 C 53.8 3.6 53.7 4.1 53.6 4.8 C 53.5 5.6 53.5 6 53.5 6 C 53.5 6.1 53.5 6.1 53.5 6.1 C 53.6 6.1 53.8 6.1 54.1 6 C 54.3 6 54.4 6 54.6 6 C 55 6 55.3 5.9 55.5 5.9 C 55.6 5.9 55.6 5.9 55.6 5.9 C 55.7 5.9 55.8 5.9 55.9 6 C 55.9 6 56 6.1 56 6.2 C 56 6.3 55.9 6.4 55.8 6.5 C 55.7 6.6 55.6 6.6 55.5 6.6 Z " stroke="none" fill="#000"/>  </g></svg>