<?xml version="1.0" standalone="no"?><!DOCTYPE svg PUBLIC "-//W3C//DTD SVG 1.1//EN" "http://www.w3.org/Graphics/SVG/1.1/DTD/svg11.dtd"><svg xmlns="http://www.w3.org/2000/svg" version="1.1" width="235px" height="88.2px" viewBox="0 -9 235 88.2" style="top:-9px">  <desc>Voto Distrital Puro</desc>  <defs/>  <g id="Polygon16710">    <path d="M 181.1 50.6 C 180 50.9 179.3 51 179.2 51.1 C 179 53 178.9 54.6 178.9 55.8 C 178.9 56.3 178.7 56.7 178.4 57.1 C 178.2 57.4 177.8 57.6 177.3 57.6 C 176.2 57.6 175.7 57 175.7 55.8 C 175.7 55.1 176 52.8 176.5 49 C 176.9 45.8 177.1 43.9 177.1 43.3 C 177.1 42.7 177 42.3 177 42.2 C 176.4 41.9 176.1 41.4 176.1 40.6 C 176.1 39.9 177.3 39.3 179.6 38.8 C 181.9 38.2 183.9 38 185.5 38 C 187.5 38 189 38.4 190.1 39.2 C 191.3 40 191.9 41 191.9 42.4 C 191.9 44.3 190.8 46 188.7 47.5 C 186.6 49 184.1 50 181.1 50.6 C 181.1 50.6 181.1 50.6 181.1 50.6 Z M 185.4 40.5 C 183.9 40.5 182.2 40.8 180.3 41.4 C 180.3 41.4 179.6 48.2 179.6 48.2 C 182 47.8 184.2 47 186 46 C 187.9 45 188.8 43.8 188.8 42.6 C 188.8 41.2 187.7 40.5 185.4 40.5 C 185.4 40.5 185.4 40.5 185.4 40.5 Z M 201.5 52.2 C 200.6 53.7 199.7 54.8 198.6 55.7 C 197.5 56.6 196.4 57 195.3 57 C 194.7 57 194 56.7 193.3 56 C 192.7 55.3 192.3 54.3 192.3 52.8 C 192.3 51.8 192.6 50.3 193.1 48.2 C 193.6 46.5 193.8 45.3 193.8 44.4 C 194.1 43.7 194.7 43.3 195.4 43.3 C 195.9 43.3 196.3 43.5 196.6 43.8 C 196.9 44.1 197 44.5 197 44.8 C 197 45.4 196.8 46.3 196.4 47.4 C 196.1 48 195.8 49 195.6 50.2 C 195.3 51.4 195.1 52.2 195.1 52.5 C 195.1 53.7 195.4 54.2 195.8 54.2 C 196.6 54.2 197.6 53.5 198.8 52.1 C 200.1 50.7 200.9 49.2 201.3 47.7 C 201.7 46.3 202 45.3 202.3 44.9 C 202.6 44.4 203.1 44.2 203.6 44.2 C 204.5 44.2 204.9 44.7 204.9 45.7 C 204.9 45.8 204.9 46.1 204.7 46.5 C 204.2 48 204 49.7 204 51.6 C 204 53.9 204.3 55.2 205.1 55.6 C 205.3 55.8 205.5 55.9 205.5 56.1 C 205.5 56.5 205.2 56.7 204.8 57 C 204.4 57.3 204 57.4 203.6 57.4 C 202.9 57.4 202.4 57 202 56 C 201.6 55.1 201.5 53.8 201.5 52.2 Z M 211.6 50.5 C 211.6 50.5 211.8 50.1 211.8 50.1 C 212.8 48 213.9 46.3 215.1 45.1 C 216.3 43.8 217.5 43.1 218.6 43.1 C 219.5 43.1 220.2 43.4 220.8 43.8 C 221.3 44.3 221.6 44.9 221.6 45.5 C 221.6 45.9 221.5 46.3 221.3 46.6 C 221.1 46.9 220.8 47 220.5 47 C 220 47 219.5 46.8 219.1 46.4 C 218.8 46.1 218.5 46 218.3 46 C 217.7 46 216.6 46.9 215.1 48.9 C 213.6 50.9 212.7 53.2 212.4 55.6 C 212.3 56.4 212.1 56.9 211.8 57.1 C 211.5 57.4 211 57.6 210.5 57.6 C 209.9 57.6 209.5 57.2 209.2 56.6 C 209 55.9 208.8 54.8 208.8 53.3 C 208.8 52.7 208.9 51.8 208.9 50.8 C 208.9 49.8 209 48.5 209.2 47.1 C 209.2 46.7 209.3 46.4 209.3 46.2 C 209.4 45.4 209.4 44.8 209.5 44.5 C 209.6 44.2 209.9 43.9 210.2 43.6 C 210.6 43.4 211 43.2 211.4 43.2 C 211.9 43.2 212.2 43.3 212.5 43.6 C 212.7 43.9 212.8 44.2 212.8 44.5 C 212.8 44.9 212.6 45.7 212.3 47 C 212.1 47.4 212 47.9 211.9 48.5 C 211.91 48.54 211.6 50.5 211.6 50.5 Z M 233.8 50.4 C 233.2 52.4 232.1 54 230.5 55.4 C 228.9 56.8 227.3 57.5 225.7 57.5 C 224.5 57.5 223.4 57 222.6 56.1 C 221.8 55.2 221.4 54 221.4 52.7 C 221.4 50.5 222.1 48.3 223.6 46.2 C 225.1 44 226.9 43 229.1 43 C 230.5 43 231.7 43.5 232.6 44.6 C 233.5 45.7 234 47 234 48.4 C 234 49.1 233.9 49.7 233.8 50.4 C 233.8 50.4 233.8 50.4 233.8 50.4 Z M 227.1 46.3 C 226.5 46.9 225.9 47.7 225.4 48.9 C 224.8 50 224.5 51.2 224.5 52.3 C 224.5 53.1 224.6 53.6 224.9 54.1 C 225.2 54.6 225.5 54.8 225.9 54.8 C 227 54.8 228.1 54.2 229.2 52.9 C 230.4 51.7 230.9 50.3 230.9 48.7 C 230.9 47.8 230.8 47.1 230.4 46.5 C 230 46 229.5 45.7 228.8 45.7 C 228.2 45.7 227.6 45.9 227.1 46.3 C 227.1 46.3 227.1 46.3 227.1 46.3 Z " stroke="none" fill="#fff"/>  </g>  <g id="Polygon16709">    <path d="M 78 7.8 C 78 7.8 78 7.8 78 7.8 C 78 7.9 77.7 8.4 77 9.4 C 76 10.7 75.2 11.9 74.7 12.9 C 74.1 13.8 73 15.6 71.4 18.3 C 70.4 19.9 69.8 20.9 69.5 21.4 C 68.7 22.6 68.2 23.5 68.1 24.1 C 67.9 24.5 67.6 24.9 67.2 25.1 C 66.7 25.4 66.2 25.5 65.5 25.5 C 65.2 25.5 65 25.3 64.7 24.9 C 64.5 24.4 64.1 23.6 63.7 22.4 C 63.2 21 62.4 19.1 61.5 16.7 C 59.5 11.8 58.5 9.3 58.5 9.1 C 58.5 8.8 58.7 8.4 59 7.9 C 59.3 7.3 59.7 7.1 60.2 7.1 C 60.6 7.1 61 7.2 61.4 7.5 C 61.7 7.9 62 8.7 62.3 10.1 C 62.4 11.1 63.1 12.9 64.1 15.5 C 65.1 18.1 65.9 20.1 66.5 21.3 C 66.6 21.2 66.9 20.6 67.4 19.8 C 67.5 19.7 67.5 19.5 67.6 19.5 C 68.7 17.6 69.7 15.9 70.5 14.4 C 71.9 11.7 73.2 9.6 74.1 8.3 C 75.1 6.9 75.9 6.2 76.6 6.2 C 77.5 6.2 78 6.7 78 7.7 C 77.99 7.65 78 7.8 78 7.8 C 78 7.8 77.99 7.75 78 7.8 Z M 88.6 18.9 C 88.1 20.9 87 22.6 85.4 24 C 83.8 25.3 82.2 26 80.6 26 C 79.3 26 78.3 25.6 77.5 24.6 C 76.6 23.7 76.2 22.6 76.2 21.2 C 76.2 19 77 16.9 78.5 14.7 C 80 12.6 81.8 11.5 83.9 11.5 C 85.4 11.5 86.6 12.1 87.5 13.1 C 88.4 14.2 88.8 15.5 88.8 17 C 88.8 17.7 88.8 18.3 88.6 18.9 C 88.6 18.9 88.6 18.9 88.6 18.9 Z M 82 14.9 C 81.4 15.4 80.8 16.3 80.2 17.4 C 79.7 18.6 79.4 19.7 79.4 20.9 C 79.4 21.6 79.5 22.2 79.8 22.7 C 80 23.1 80.4 23.3 80.8 23.3 C 81.8 23.3 82.9 22.7 84.1 21.5 C 85.2 20.2 85.8 18.8 85.8 17.2 C 85.8 16.4 85.6 15.6 85.2 15.1 C 84.9 14.5 84.4 14.2 83.7 14.2 C 83.1 14.2 82.5 14.4 82 14.9 C 82 14.9 82 14.9 82 14.9 Z M 96.5 15 C 96.4 15 96.2 16 95.8 17.9 C 95.4 19.8 95.2 20.9 95.2 21.3 C 95.2 22 95.3 22.5 95.4 22.8 C 95.6 23.1 95.8 23.2 96.2 23.2 C 96.6 23.2 97.1 23.1 97.5 23 C 98 22.8 98.5 22.4 99.3 21.8 C 99.7 21.5 100.1 21.3 100.4 21.3 C 100.6 21.3 100.8 21.4 101 21.5 C 101.1 21.6 101.2 21.8 101.2 22 C 101.2 22.7 100.6 23.6 99.4 24.5 C 98.2 25.5 96.9 26 95.6 26 C 94.4 26 93.6 25.6 93 25 C 92.4 24.3 92.1 23.4 92.1 22.1 C 92.1 21 92.5 18.7 93.4 15.2 C 92.8 15.3 92.5 15.3 92.2 15.3 C 92.2 15.3 92 15.3 92 15.3 C 91.6 15.3 91.2 15.2 90.8 14.9 C 90.4 14.7 90.2 14.3 90.2 13.7 C 90.2 13 90.6 12.6 91.4 12.6 C 91.4 12.6 94.1 12.5 94.1 12.5 C 94.5 11.5 94.9 10.1 95.3 8.5 C 95.5 7.4 96 6.9 96.9 6.9 C 97.4 6.9 97.7 7 98 7.3 C 98.2 7.6 98.4 7.9 98.4 8.3 C 98.4 8.4 98 9.7 97.3 12.2 C 100 12 101.5 11.9 101.8 11.9 C 102.2 11.9 102.5 11.9 102.7 12.1 C 102.8 12.2 102.9 12.5 102.9 12.8 C 102.9 13.6 102.2 14.1 100.9 14.3 C 100.9 14.3 96.5 15 96.5 15 Z M 115.6 18.9 C 115.1 20.9 114 22.6 112.4 24 C 110.8 25.3 109.2 26 107.6 26 C 106.3 26 105.3 25.6 104.5 24.6 C 103.6 23.7 103.2 22.6 103.2 21.2 C 103.2 19 104 16.9 105.5 14.7 C 107 12.6 108.8 11.5 110.9 11.5 C 112.4 11.5 113.6 12.1 114.5 13.1 C 115.4 14.2 115.8 15.5 115.8 17 C 115.8 17.7 115.8 18.3 115.6 18.9 C 115.6 18.9 115.6 18.9 115.6 18.9 Z M 109 14.9 C 108.4 15.4 107.8 16.3 107.2 17.4 C 106.6 18.6 106.4 19.7 106.4 20.9 C 106.4 21.6 106.5 22.2 106.8 22.7 C 107 23.1 107.4 23.3 107.8 23.3 C 108.8 23.3 109.9 22.7 111.1 21.5 C 112.2 20.2 112.8 18.8 112.8 17.2 C 112.8 16.4 112.6 15.6 112.2 15.1 C 111.9 14.5 111.4 14.2 110.7 14.2 C 110.1 14.2 109.5 14.4 109 14.9 C 109 14.9 109 14.9 109 14.9 Z M 129.8 23.3 C 129.9 22.9 130 22.2 130 21.1 C 130.2 18.1 130.6 15 131.1 11.8 C 131.2 11.1 131.3 10.6 131.3 10.2 C 131.3 10.1 131.2 10 131.1 9.9 C 130.2 9.7 129.8 9.3 129.8 8.8 C 129.8 8.3 129.9 8 130.3 7.6 C 130.7 7.2 131.1 7 131.5 7 C 131.5 7 133.2 7.1 133.2 7.1 C 134 7.1 135.1 7 136.5 6.9 C 137.6 6.8 138.6 6.8 139.3 6.8 C 141.7 6.8 143.6 7.4 145.1 8.8 C 146.6 10.1 147.3 11.9 147.3 14.1 C 147.3 16.5 146.2 18.8 143.9 20.7 C 141.6 22.7 138.9 24.1 135.7 24.8 C 134.8 25 134.2 25.2 133.8 25.3 C 133.5 25.4 133.1 25.6 132.6 25.9 C 132 26.3 131.5 26.5 130.9 26.5 C 130.5 26.5 130.1 26.3 129.7 25.9 C 129.4 25.5 129.2 25.2 129.2 24.9 C 129.2 24.7 129.3 24.5 129.5 24.1 C 129.5 24.1 129.8 23.3 129.8 23.3 Z M 133.1 21.8 C 133.1 22.2 133.1 22.5 133.1 22.7 C 133.6 22.7 134.9 22.4 137 21.7 C 139.1 21.1 140.9 20 142.2 18.7 C 143.5 17.3 144.2 15.7 144.2 14 C 144.2 12.6 143.7 11.4 142.7 10.6 C 141.7 9.8 140.5 9.4 138.9 9.4 C 137.8 9.4 136.5 9.5 134.9 9.7 C 134.7 9.7 134.6 9.7 134.4 9.7 C 133.5 15.4 133.1 19.4 133.1 21.8 C 133.1 21.8 133.1 21.8 133.1 21.8 Z M 156.6 6.4 C 156.6 7 156.4 7.5 155.8 8 C 155.3 8.4 154.8 8.7 154.4 8.7 C 153.9 8.7 153.4 8.5 153 8 C 152.6 7.6 152.4 7.2 152.4 6.8 C 152.4 6.1 152.6 5.6 153 5.3 C 153.4 4.9 154 4.7 154.7 4.7 C 155.3 4.7 155.7 4.9 156.1 5.2 C 156.5 5.5 156.6 5.9 156.6 6.4 Z M 150.2 18.2 C 150.3 17.8 150.4 17.3 150.5 16.9 C 150.5 16.9 150.5 16.9 150.5 16.9 C 150.7 15.4 150.9 14.5 150.9 14.3 C 150.9 13.6 151 13.1 151.3 12.7 C 151.6 12.3 151.9 12 152.4 12 C 153 12 153.5 12.2 153.8 12.4 C 154.1 12.7 154.3 13 154.3 13.4 C 154.3 13.7 154.1 14.4 153.8 15.5 C 153.8 15.5 153.7 15.8 153.7 15.8 C 153.3 17.4 153 18.8 152.9 19.8 C 152.8 20.8 152.7 21.7 152.7 22.3 C 152.7 22.8 152.8 23.5 153 24.4 C 153 24.6 153.1 24.7 153.1 24.8 C 153.1 25 152.9 25.2 152.5 25.6 C 152.1 25.9 151.7 26.1 151.3 26.1 C 150.2 26.1 149.6 25.2 149.6 23.5 C 149.6 22.1 149.8 20.3 150.2 18.2 C 150.2 18.2 150.2 18.2 150.2 18.2 Z M 163.1 22.2 C 163.1 21.7 162.3 21.1 160.9 20.5 C 159.1 19.6 158 18.9 157.5 18.3 C 157 17.7 156.8 17 156.8 16.3 C 156.8 14.8 157.6 13.5 159.3 12.3 C 161 11.2 162.6 10.6 164.1 10.6 C 165.5 10.6 166.2 11.3 166.2 12.5 C 166.2 12.9 166.1 13.2 165.7 13.4 C 165.4 13.7 165.1 13.8 164.9 13.8 C 164.8 13.8 164.7 13.8 164.4 13.6 C 164.2 13.5 164 13.5 163.9 13.5 C 163.1 13.5 162.3 13.7 161.4 14.2 C 160.4 14.7 160 15.3 160 16 C 160 16.4 160.1 16.7 160.5 17 C 160.8 17.3 161.5 17.7 162.5 18.2 C 163.9 18.9 164.9 19.5 165.4 20 C 165.8 20.6 166.1 21.2 166.1 21.9 C 166.1 23.2 165.2 24.2 163.5 25 C 161.9 25.9 160 26.3 157.9 26.3 C 156.3 26.3 155.6 25.7 155.6 24.6 C 155.6 24.2 155.7 23.8 156 23.6 C 156.4 23.3 156.7 23.1 157.1 23.1 C 157.3 23.1 157.5 23.2 157.9 23.3 C 158.2 23.4 158.5 23.5 158.8 23.5 C 159.6 23.5 160.5 23.4 161.4 23.1 C 162.2 22.9 162.8 22.5 163.1 22.2 Z M 173.4 15 C 173.3 15 173 16 172.6 17.9 C 172.2 19.8 172 20.9 172 21.3 C 172 22 172.1 22.5 172.2 22.8 C 172.4 23.1 172.6 23.2 173 23.2 C 173.5 23.2 173.9 23.1 174.4 23 C 174.8 22.8 175.4 22.4 176.1 21.8 C 176.5 21.5 176.9 21.3 177.2 21.3 C 177.5 21.3 177.7 21.4 177.8 21.5 C 178 21.6 178 21.8 178 22 C 178 22.7 177.4 23.6 176.2 24.5 C 175 25.5 173.7 26 172.4 26 C 171.3 26 170.4 25.6 169.8 25 C 169.2 24.3 168.9 23.4 168.9 22.1 C 168.9 21 169.3 18.7 170.2 15.2 C 169.7 15.3 169.3 15.3 169.1 15.3 C 169.1 15.3 168.8 15.3 168.8 15.3 C 168.4 15.3 168 15.2 167.6 14.9 C 167.2 14.7 167 14.3 167 13.7 C 167 13 167.4 12.6 168.2 12.6 C 168.2 12.6 171 12.5 171 12.5 C 171.3 11.5 171.7 10.1 172.1 8.5 C 172.3 7.4 172.9 6.9 173.7 6.9 C 174.2 6.9 174.5 7 174.8 7.3 C 175.1 7.6 175.2 7.9 175.2 8.3 C 175.2 8.4 174.8 9.7 174.1 12.2 C 176.8 12 178.3 11.9 178.6 11.9 C 179 11.9 179.3 11.9 179.5 12.1 C 179.6 12.2 179.7 12.5 179.7 12.8 C 179.7 13.6 179.1 14.1 177.8 14.3 C 177.8 14.3 173.4 15 173.4 15 Z M 183.6 19.1 C 183.6 19.1 183.78 18.65 183.8 18.7 C 184.8 16.6 185.9 14.9 187.1 13.6 C 188.3 12.3 189.5 11.7 190.6 11.7 C 191.5 11.7 192.2 11.9 192.7 12.4 C 193.3 12.9 193.6 13.4 193.6 14.1 C 193.6 14.5 193.5 14.8 193.3 15.1 C 193.1 15.4 192.8 15.6 192.5 15.6 C 192 15.6 191.5 15.4 191.1 14.9 C 190.7 14.6 190.5 14.5 190.3 14.5 C 189.7 14.5 188.6 15.5 187.1 17.5 C 185.6 19.5 184.7 21.7 184.4 24.2 C 184.3 24.9 184.1 25.4 183.8 25.7 C 183.4 26 183 26.1 182.5 26.1 C 181.9 26.1 181.4 25.8 181.2 25.1 C 181 24.5 180.8 23.4 180.8 21.8 C 180.8 21.2 180.8 20.4 180.9 19.3 C 180.9 18.3 181 17.1 181.2 15.7 C 181.2 15.3 181.2 15 181.3 14.8 C 181.3 13.9 181.4 13.4 181.5 13.1 C 181.6 12.7 181.9 12.5 182.2 12.2 C 182.6 11.9 183 11.8 183.4 11.8 C 183.9 11.8 184.2 11.9 184.4 12.2 C 184.7 12.4 184.8 12.7 184.8 13 C 184.8 13.4 184.6 14.3 184.2 15.5 C 184.1 16 184 16.5 183.9 17.1 C 183.89 17.09 183.6 19.1 183.6 19.1 Z M 201 6.4 C 201 7 200.7 7.5 200.2 8 C 199.6 8.4 199.2 8.7 198.8 8.7 C 198.3 8.7 197.8 8.5 197.4 8 C 197 7.6 196.8 7.2 196.8 6.8 C 196.8 6.1 197 5.6 197.4 5.3 C 197.8 4.9 198.4 4.7 199.1 4.7 C 199.7 4.7 200.1 4.9 200.5 5.2 C 200.8 5.5 201 5.9 201 6.4 Z M 194.6 18.2 C 194.7 17.8 194.8 17.3 194.8 16.9 C 194.8 16.9 194.8 16.9 194.8 16.9 C 195.1 15.4 195.2 14.5 195.2 14.3 C 195.2 13.6 195.4 13.1 195.7 12.7 C 195.9 12.3 196.3 12 196.8 12 C 197.4 12 197.8 12.2 198.2 12.4 C 198.5 12.7 198.7 13 198.7 13.4 C 198.7 13.7 198.5 14.4 198.2 15.5 C 198.2 15.5 198.1 15.8 198.1 15.8 C 197.6 17.4 197.3 18.8 197.3 19.8 C 197.2 20.8 197.1 21.7 197.1 22.3 C 197.1 22.8 197.2 23.5 197.4 24.4 C 197.4 24.6 197.4 24.7 197.4 24.8 C 197.4 25 197.2 25.2 196.9 25.6 C 196.5 25.9 196.1 26.1 195.7 26.1 C 194.5 26.1 194 25.2 194 23.5 C 194 22.1 194.2 20.3 194.6 18.2 C 194.6 18.2 194.6 18.2 194.6 18.2 Z M 206.7 15 C 206.6 15 206.3 16 205.9 17.9 C 205.5 19.8 205.3 20.9 205.3 21.3 C 205.3 22 205.4 22.5 205.6 22.8 C 205.7 23.1 205.9 23.2 206.3 23.2 C 206.8 23.2 207.2 23.1 207.7 23 C 208.1 22.8 208.7 22.4 209.4 21.8 C 209.8 21.5 210.2 21.3 210.5 21.3 C 210.8 21.3 211 21.4 211.1 21.5 C 211.3 21.6 211.3 21.8 211.3 22 C 211.3 22.7 210.7 23.6 209.5 24.5 C 208.3 25.5 207 26 205.7 26 C 204.6 26 203.7 25.6 203.1 25 C 202.5 24.3 202.2 23.4 202.2 22.1 C 202.2 21 202.7 18.7 203.5 15.2 C 203 15.3 202.6 15.3 202.4 15.3 C 202.4 15.3 202.1 15.3 202.1 15.3 C 201.7 15.3 201.3 15.2 200.9 14.9 C 200.5 14.7 200.3 14.3 200.3 13.7 C 200.3 13 200.7 12.6 201.5 12.6 C 201.5 12.6 204.3 12.5 204.3 12.5 C 204.6 11.5 205 10.1 205.4 8.5 C 205.6 7.4 206.2 6.9 207 6.9 C 207.5 6.9 207.9 7 208.1 7.3 C 208.4 7.6 208.5 7.9 208.5 8.3 C 208.5 8.4 208.2 9.7 207.4 12.2 C 210.1 12 211.6 11.9 211.9 11.9 C 212.3 11.9 212.6 11.9 212.8 12.1 C 212.9 12.2 213 12.5 213 12.8 C 213 13.6 212.4 14.1 211.1 14.3 C 211.1 14.3 206.7 15 206.7 15 Z M 224.6 25.9 C 223 25.9 222.3 24.3 222.4 21.1 C 220.2 24.1 218 25.6 215.9 25.6 C 215.2 25.6 214.5 25.3 214 24.7 C 213.4 24 213.1 23.3 213.1 22.3 C 213.1 20.1 214.1 17.7 216.1 15.1 C 218.2 12.6 220.2 11.3 222.2 11.3 C 223.3 11.3 224 11.8 224.3 12.9 C 225.3 12.9 225.7 13.2 225.7 14 C 225.7 14.3 225.7 15 225.5 15.9 C 225.1 17.7 225 19.1 225 20.1 C 225 21.2 225 22 225.2 22.4 C 225.3 22.9 225.4 23.2 225.5 23.3 C 225.6 23.4 225.8 23.6 226.1 23.7 C 226.5 23.9 226.6 24.1 226.6 24.4 C 226.6 24.9 226.4 25.2 226 25.5 C 225.5 25.8 225.1 25.9 224.6 25.9 C 224.6 25.9 224.6 25.9 224.6 25.9 Z M 221.7 14 C 220.8 14 219.7 15 218.3 16.9 C 216.9 18.8 216.2 20.4 216.2 21.7 C 216.2 22.4 216.4 22.8 216.7 22.8 C 217.7 22.8 218.9 21.9 220.4 20.1 C 221.9 18.3 222.6 16.8 222.6 15.4 C 222.6 15 222.5 14.7 222.3 14.4 C 222.1 14.1 221.9 14 221.7 14 Z M 233.7 3.7 C 234.6 3.7 235.1 4.3 235.1 5.3 C 235.1 5.7 235 6.2 234.9 6.7 C 234.7 7.3 234.4 8.6 233.8 10.7 C 233.4 12.2 233.1 13.9 232.9 15.7 C 232.7 17.5 232.5 18.9 232.5 19.9 C 232.5 21 232.6 22.3 232.8 23.8 C 232.8 24.2 232.9 24.4 232.9 24.6 C 232.9 25.1 232.7 25.5 232.3 25.9 C 231.9 26.2 231.5 26.4 231.1 26.4 C 230.5 26.4 230 26.1 229.8 25.6 C 229.5 25 229.4 24 229.4 22.6 C 229.4 19.6 229.8 16.1 230.5 12 C 231.2 8 231.7 5.6 232.2 4.8 C 232.6 4.1 233.1 3.7 233.7 3.7 Z " stroke="none" fill="#fff"/>  </g></svg>