<?xml version="1.0" standalone="no"?><!DOCTYPE svg PUBLIC "-//W3C//DTD SVG 1.1//EN" "http://www.w3.org/Graphics/SVG/1.1/DTD/svg11.dtd"><svg xmlns="http://www.w3.org/2000/svg" version="1.1" width="235px" height="87.2px" viewBox="0 -8 235 87.2" style="top:-8px">  <desc>Voto Distrital Puro</desc>  <defs/>  <g id="Polygon12515">    <path d="M 176.9 41.7 C 176.4 41.6 176.1 41.1 176.1 40.4 C 176.1 39.9 177.3 39.3 179.5 38.8 C 181.8 38.3 183.8 38 185.4 38 C 187.3 38 188.8 38.4 189.9 39.2 C 191 39.9 191.5 41 191.5 42.2 C 191.5 44.1 190.5 45.8 188.4 47.3 C 186.3 48.8 183.5 49.9 180 50.6 C 179.1 50.8 178.5 50.9 178.4 51.1 C 178.3 51.2 178.2 51.9 178.1 53.3 C 178.1 54.7 178.1 55.7 178.1 56.2 C 178.1 56.6 177.9 57 177.7 57.3 C 177.4 57.6 177.2 57.7 176.8 57.7 C 176.1 57.7 175.7 57.2 175.7 56.2 C 175.7 55.7 175.9 54.1 176.2 51.6 C 176.2 51.6 177.1 44 177.1 44 C 177.1 43.9 177.1 43.5 177.1 42.9 C 177.1 42.3 177 41.9 176.9 41.7 Z M 185.3 39.9 C 183.6 39.9 181.6 40.3 179.5 41 C 179.5 41.3 179.4 41.7 179.4 42.4 C 179.2 43.6 179.1 44.9 178.9 46.3 C 178.8 47.1 178.7 47.9 178.6 48.8 C 181.4 48.4 183.9 47.6 186.1 46.4 C 188.3 45.2 189.4 43.9 189.4 42.5 C 189.4 40.8 188 39.9 185.3 39.9 C 185.3 39.9 185.3 39.9 185.3 39.9 Z M 201.6 51.8 C 201.6 51.7 201.6 51.5 201.6 51.4 C 200.5 53.2 199.4 54.6 198.2 55.6 C 197.1 56.6 196 57.1 195.1 57.1 C 194.5 57.1 193.9 56.8 193.3 56.2 C 192.8 55.5 192.5 54.5 192.5 53.1 C 192.5 52 192.7 50.4 193.3 48.2 C 193.7 46.4 193.9 45.1 193.9 44.4 C 194.2 43.8 194.6 43.6 195.1 43.6 C 195.5 43.6 195.8 43.7 196 44 C 196.2 44.2 196.3 44.5 196.3 44.8 C 196.3 45.4 196.1 46.2 195.7 47.3 C 194.9 49.4 194.5 51.3 194.5 52.8 C 194.5 54.2 194.8 54.9 195.4 54.9 C 196.3 54.9 197.3 54.2 198.6 52.8 C 199.9 51.4 201 49.4 201.9 46.9 C 202.2 45.9 202.5 45.3 202.8 45 C 203 44.7 203.3 44.5 203.7 44.5 C 204.3 44.5 204.5 44.9 204.5 45.7 C 204.5 45.7 204.5 46.1 204.3 46.6 C 203.8 48.5 203.5 50.2 203.5 51.9 C 203.5 53.9 203.9 55.2 204.5 55.8 C 204.9 56.1 205 56.3 205 56.5 C 205 56.8 204.9 57 204.5 57.2 C 204.2 57.4 203.9 57.5 203.6 57.5 C 203 57.5 202.5 57 202.1 56.1 C 201.8 55.3 201.6 53.9 201.6 52.2 C 201.58 52.22 201.6 51.8 201.6 51.8 C 201.6 51.8 201.58 51.79 201.6 51.8 Z M 211.1 51.9 C 211.2 51.7 211.3 51.5 211.4 51.2 C 212 49.9 212.5 48.8 213 48.1 C 213.5 47.3 214.1 46.6 214.6 45.9 C 215.2 45.2 215.8 44.7 216.2 44.3 C 216.7 44 217.2 43.7 217.5 43.6 C 217.9 43.5 218.3 43.4 218.7 43.4 C 219.4 43.4 220 43.6 220.5 44.1 C 221 44.5 221.2 45 221.2 45.6 C 221.2 45.9 221.1 46.1 221 46.3 C 220.8 46.6 220.5 46.7 220.2 46.7 C 219.8 46.7 219.5 46.5 219.2 46.2 C 218.9 45.9 218.6 45.7 218.3 45.7 C 217.4 45.7 216.1 46.8 214.6 48.9 C 213 51.1 212 53.5 211.7 56 C 211.6 56.7 211.5 57.1 211.2 57.4 C 211 57.6 210.6 57.7 210.2 57.7 C 209.8 57.7 209.5 57.4 209.3 56.7 C 209.1 56.1 209 55.1 209 53.6 C 209 53.2 209 52.3 209.1 50.9 C 209.1 49.3 209.2 48 209.4 47 C 209.4 46.9 209.5 46.5 209.5 45.9 C 209.6 45.3 209.6 44.8 209.7 44.5 C 209.8 44.3 210 44 210.3 43.8 C 210.6 43.6 210.9 43.5 211.2 43.5 C 211.5 43.5 211.7 43.6 211.9 43.8 C 212.1 44 212.1 44.2 212.1 44.4 C 212.1 44.8 212.1 45.2 211.9 45.8 C 211.7 46.5 211.6 47 211.5 47.2 C 211.5 47.5 211.5 47.8 211.4 48.1 C 211.3 48.5 211.2 49.5 211.1 51 C 211.14 51.04 211.1 51.5 211.1 51.5 C 211.1 51.5 211.13 51.86 211.1 51.9 Z M 225.6 57.6 C 224.5 57.6 223.5 57.1 222.7 56.2 C 222 55.4 221.6 54.3 221.6 53 C 221.6 50.8 222.3 48.6 223.8 46.5 C 225.3 44.3 227.1 43.2 229.1 43.2 C 230.5 43.2 231.6 43.8 232.4 44.8 C 233.3 45.9 233.7 47.1 233.7 48.6 C 233.7 50.8 232.8 52.8 231.1 54.7 C 229.3 56.6 227.5 57.6 225.6 57.6 Z M 223.8 52.6 C 223.8 53.5 224 54.2 224.4 54.7 C 224.7 55.3 225.2 55.6 225.8 55.6 C 227.1 55.6 228.4 54.9 229.7 53.5 C 230.9 52.1 231.6 50.5 231.6 48.8 C 231.6 47.8 231.3 46.9 230.8 46.3 C 230.3 45.6 229.7 45.3 228.9 45.3 C 227.5 45.3 226.3 46.1 225.3 47.8 C 224.3 49.5 223.8 51.1 223.8 52.6 Z " stroke="none" fill="#fff"/>  </g>  <g id="Polygon12514">    <path d="M 59.6 13.1 C 58.5 10.4 58 9 58 8.9 C 58.1 8.5 58.2 8 58.5 7.7 C 58.7 7.3 59 7.2 59.4 7.2 C 60.1 7.2 60.6 8 60.8 9.7 C 61.1 11.3 62.7 15.6 65.7 22.4 C 66 21.8 66.4 21.3 66.8 20.7 C 68.5 18 69.7 16 70.4 14.6 C 73.4 9.1 75.3 6.3 76.3 6.3 C 76.9 6.3 77.2 6.7 77.2 7.4 C 77.2 7.5 77.2 7.6 77.1 7.7 C 77.1 7.8 76.8 8.2 76.3 9 C 74.6 11.4 73 13.9 71.5 16.5 C 70.3 18.6 69.3 20.2 68.5 21.4 C 67.6 22.8 67.1 23.8 66.9 24.4 C 66.8 24.8 66.6 25 66.2 25.3 C 65.8 25.5 65.3 25.6 64.8 25.6 C 64.5 25.6 64 24.5 63.2 22.3 C 62.8 21.3 61.7 18.3 59.6 13.1 C 59.6 13.1 59.6 13.1 59.6 13.1 Z M 79.9 26.1 C 78.7 26.1 77.8 25.7 77 24.8 C 76.3 23.9 75.9 22.8 75.9 21.5 C 75.9 19.3 76.6 17.1 78.1 15 C 79.6 12.9 81.4 11.8 83.4 11.8 C 84.8 11.8 85.9 12.3 86.7 13.4 C 87.6 14.4 88 15.7 88 17.1 C 88 19.3 87.1 21.4 85.4 23.3 C 83.6 25.2 81.8 26.1 79.9 26.1 Z M 78.1 21.2 C 78.1 22 78.3 22.7 78.7 23.3 C 79 23.8 79.5 24.1 80.1 24.1 C 81.4 24.1 82.7 23.4 83.9 22 C 85.2 20.6 85.9 19.1 85.9 17.4 C 85.9 16.3 85.6 15.5 85.1 14.8 C 84.6 14.2 84 13.8 83.2 13.8 C 81.8 13.8 80.6 14.7 79.6 16.4 C 78.6 18 78.1 19.7 78.1 21.2 Z M 96.2 12.6 C 97.1 12.5 97.9 12.4 98.7 12.3 C 99.5 12.3 100.1 12.2 100.6 12.2 C 101.3 12.2 101.7 12.3 101.8 12.4 C 102 12.5 102.1 12.7 102.1 13 C 102.1 13.7 101.6 14.1 100.6 14.1 C 99.4 14.2 98.3 14.3 97.2 14.5 C 96.2 14.6 95.6 14.7 95.5 14.8 C 95.5 14.9 95.2 15.9 94.8 17.8 C 94.3 19.8 94.1 21 94.1 21.6 C 94.1 22.6 94.2 23.2 94.5 23.5 C 94.7 23.8 95.1 24 95.6 24 C 96.3 24 97.4 23.4 98.7 22.3 C 99.2 21.9 99.6 21.6 99.8 21.6 C 100.2 21.6 100.4 21.8 100.4 22.2 C 100.4 22.8 99.8 23.6 98.6 24.6 C 97.4 25.6 96.2 26.1 95 26.1 C 92.9 26.1 91.9 24.9 91.9 22.4 C 91.9 21.6 92.1 20.2 92.5 18.4 C 92.9 16.5 93.1 15.4 93.1 15.1 C 93.1 14.9 93 14.9 92.8 14.9 C 92.8 14.9 91.5 15 91.5 15 C 90.4 15 89.9 14.5 89.9 13.7 C 89.9 13.2 90.1 12.9 90.6 12.9 C 90.6 12.9 93.3 12.9 93.3 12.9 C 93.4 12.9 93.6 12.8 93.7 12.7 C 93.9 12.5 94.1 12 94.3 11.1 C 94.6 10.1 94.8 9.2 95 8.3 C 95.2 7.4 95.6 7 96.2 7 C 96.6 7 96.9 7.1 97.1 7.3 C 97.3 7.6 97.4 7.8 97.4 8.1 C 97.4 8.2 97.3 8.8 96.9 9.9 C 96.9 9.9 96.2 12.6 96.2 12.6 Z M 107 26.1 C 105.8 26.1 104.9 25.7 104.1 24.8 C 103.4 23.9 103 22.8 103 21.5 C 103 19.3 103.7 17.1 105.2 15 C 106.7 12.9 108.5 11.8 110.5 11.8 C 111.9 11.8 113 12.3 113.8 13.4 C 114.7 14.4 115.1 15.7 115.1 17.1 C 115.1 19.3 114.2 21.4 112.5 23.3 C 110.7 25.2 108.9 26.1 107 26.1 Z M 105.2 21.2 C 105.2 22 105.4 22.7 105.8 23.3 C 106.1 23.8 106.6 24.1 107.2 24.1 C 108.5 24.1 109.8 23.4 111 22 C 112.3 20.6 113 19.1 113 17.4 C 113 16.3 112.7 15.5 112.2 14.8 C 111.7 14.2 111.1 13.8 110.3 13.8 C 108.9 13.8 107.7 14.7 106.7 16.4 C 105.7 18 105.2 19.7 105.2 21.2 Z M 130.9 11.7 C 131 10.9 131.1 10.4 131.1 10 C 131.1 9.7 130.9 9.5 130.5 9.4 C 129.8 9.2 129.5 8.9 129.5 8.5 C 129.5 8.2 129.6 7.9 129.9 7.6 C 130.2 7.3 130.5 7.1 130.8 7.1 C 130.8 7.1 132.6 7.2 132.6 7.2 C 133.4 7.2 134.5 7.1 135.9 7 C 137.2 6.9 138.2 6.9 138.9 6.9 C 141.3 6.9 143.2 7.5 144.6 8.8 C 146 10.2 146.7 11.9 146.7 14.1 C 146.7 16.5 145.7 18.6 143.7 20.6 C 141.6 22.5 138.7 24 134.9 24.9 C 133.4 25.2 132.4 25.6 131.9 26 C 131.2 26.4 130.6 26.7 130.2 26.7 C 129.8 26.7 129.5 26.5 129.3 26.2 C 129 25.8 128.9 25.5 128.9 25.3 C 128.9 25.3 129 25 129.2 24.7 C 129.4 24.3 129.5 23.9 129.6 23.5 C 129.6 23.1 129.7 22.4 129.7 21.4 C 129.8 20.4 129.9 18.8 130.2 16.5 C 130.5 14.3 130.7 12.7 130.9 11.7 C 130.9 11.7 130.9 11.7 130.9 11.7 Z M 134.4 9.1 C 134.1 9.1 133.8 9.2 133.4 9.2 C 132.4 15.3 131.9 19.6 131.9 22.1 C 131.9 22.7 131.9 23.1 132.1 23.4 C 132.1 23.4 132.3 23.4 132.5 23.4 C 133 23.4 134.4 23.1 136.7 22.4 C 139 21.7 140.9 20.5 142.4 19.1 C 143.8 17.6 144.5 15.9 144.5 14 C 144.5 12.4 144 11.1 142.9 10.2 C 141.7 9.2 140.3 8.8 138.5 8.8 C 137.3 8.8 136 8.9 134.4 9.1 C 134.4 9.1 134.4 9.1 134.4 9.1 Z M 153.5 8.4 C 153.3 8.4 153.2 8.2 153.1 7.8 C 153.1 7.7 153 7.5 153 7.4 C 152.7 6.8 152.6 6.4 152.6 5.9 C 152.6 5.6 152.8 5.3 153.2 4.9 C 153.6 4.5 154.1 4.4 154.6 4.4 C 154.8 4.4 155.1 4.5 155.4 4.7 C 155.7 4.8 155.9 5 155.9 5.2 C 155.9 5.5 155.8 6 155.6 6.6 C 155.3 7.3 155 7.8 154.6 8 C 154.1 8.2 153.8 8.4 153.5 8.4 Z M 151.8 22.7 C 151.8 23.3 151.9 24 152.1 24.8 C 152.1 25 152.2 25.1 152.2 25.2 C 152.2 25.4 152 25.6 151.7 25.8 C 151.5 26.1 151.2 26.2 150.8 26.2 C 150 26.2 149.6 25.4 149.6 23.9 C 149.6 22.3 149.9 19.9 150.6 16.5 C 150.8 15.3 150.9 14.5 150.9 14.3 C 150.9 13.7 151 13.3 151.2 12.9 C 151.4 12.5 151.7 12.3 152 12.3 C 152.5 12.3 152.8 12.4 153.1 12.6 C 153.3 12.8 153.4 13.1 153.4 13.3 C 153.4 13.6 153.4 13.9 153.3 14.3 C 152.6 16.6 152.2 18.2 152.1 19.2 C 151.9 20.2 151.8 21.3 151.8 22.7 Z M 163.4 22.6 C 163.4 22 162.7 21.4 161.4 20.7 C 159.6 19.8 158.5 19.1 157.8 18.5 C 157.2 18 156.9 17.4 156.9 16.8 C 156.9 15.1 157.8 13.6 159.5 12.5 C 161.2 11.4 162.6 10.9 163.6 10.9 C 164.3 10.9 164.8 11 165.1 11.2 C 165.5 11.5 165.6 11.9 165.6 12.5 C 165.6 12.7 165.5 12.9 165.3 13.1 C 165 13.3 164.9 13.4 164.7 13.4 C 164.7 13.4 164.5 13.4 164.2 13.2 C 163.9 13.1 163.7 13 163.7 13 C 163.2 13 162.4 13.4 161.1 14 C 159.8 14.6 159.1 15.3 159.1 16.1 C 159.1 16.6 159.3 17 159.8 17.4 C 160.3 17.8 161.1 18.3 162.3 18.8 C 163.2 19.3 164 19.8 164.6 20.3 C 165.2 20.8 165.4 21.4 165.4 22.1 C 165.4 23.4 164.5 24.5 162.7 25.2 C 160.9 25.9 159.2 26.3 157.6 26.3 C 156.2 26.3 155.5 25.8 155.5 24.9 C 155.5 24.6 155.7 24.3 156 24.2 C 156.3 24 156.6 24 156.9 24 C 157.1 24 157.3 24 157.7 24.1 C 158 24.2 158.2 24.2 158.3 24.2 C 159.3 24.2 160.3 24.1 161.4 23.7 C 162.5 23.4 163.1 23 163.4 22.6 Z M 173.3 12.6 C 174.2 12.5 175 12.4 175.8 12.3 C 176.5 12.3 177.2 12.2 177.7 12.2 C 178.3 12.2 178.8 12.3 178.9 12.4 C 179.1 12.5 179.2 12.7 179.2 13 C 179.2 13.7 178.7 14.1 177.7 14.1 C 176.5 14.2 175.4 14.3 174.3 14.5 C 173.3 14.6 172.7 14.7 172.6 14.8 C 172.6 14.9 172.3 15.9 171.9 17.8 C 171.4 19.8 171.2 21 171.2 21.6 C 171.2 22.6 171.3 23.2 171.6 23.5 C 171.8 23.8 172.2 24 172.7 24 C 173.4 24 174.4 23.4 175.7 22.3 C 176.3 21.9 176.6 21.6 176.9 21.6 C 177.3 21.6 177.5 21.8 177.5 22.2 C 177.5 22.8 176.9 23.6 175.7 24.6 C 174.5 25.6 173.3 26.1 172.1 26.1 C 170 26.1 169 24.9 169 22.4 C 169 21.6 169.2 20.2 169.6 18.4 C 170 16.5 170.2 15.4 170.2 15.1 C 170.2 14.9 170.1 14.9 169.9 14.9 C 169.9 14.9 168.6 15 168.6 15 C 167.5 15 167 14.5 167 13.7 C 167 13.2 167.2 12.9 167.7 12.9 C 167.7 12.9 170.3 12.9 170.3 12.9 C 170.5 12.9 170.7 12.8 170.8 12.7 C 171 12.5 171.2 12 171.4 11.1 C 171.7 10.1 171.9 9.2 172.1 8.3 C 172.3 7.4 172.7 7 173.3 7 C 173.7 7 174 7.1 174.2 7.3 C 174.4 7.6 174.5 7.8 174.5 8.1 C 174.5 8.2 174.3 8.8 174 9.9 C 174 9.9 173.3 12.6 173.3 12.6 Z M 183 20.4 C 183 20.3 183.1 20 183.3 19.8 C 183.8 18.4 184.4 17.4 184.9 16.6 C 185.3 15.9 185.9 15.2 186.5 14.5 C 187 13.8 187.6 13.3 188.1 12.9 C 188.5 12.5 189 12.3 189.4 12.2 C 189.8 12 190.1 11.9 190.5 11.9 C 191.3 11.9 191.9 12.2 192.3 12.6 C 192.8 13.1 193 13.6 193 14.2 C 193 14.4 193 14.7 192.8 14.9 C 192.6 15.1 192.4 15.2 192 15.2 C 191.7 15.2 191.3 15.1 191 14.7 C 190.7 14.4 190.4 14.3 190.1 14.3 C 189.2 14.3 188 15.3 186.4 17.5 C 184.8 19.6 183.9 22 183.5 24.6 C 183.4 25.3 183.3 25.7 183 25.9 C 182.8 26.1 182.5 26.2 182 26.2 C 181.6 26.2 181.3 25.9 181.1 25.3 C 180.9 24.7 180.8 23.6 180.8 22.2 C 180.8 21.8 180.9 20.9 180.9 19.5 C 181 17.9 181.1 16.6 181.2 15.6 C 181.2 15.4 181.3 15.1 181.3 14.5 C 181.4 13.8 181.5 13.4 181.6 13.1 C 181.7 12.8 181.8 12.6 182.1 12.4 C 182.4 12.2 182.7 12 183 12 C 183.3 12 183.6 12.1 183.7 12.3 C 183.9 12.5 184 12.8 184 13 C 184 13.3 183.9 13.8 183.7 14.4 C 183.5 15.1 183.4 15.5 183.4 15.8 C 183.3 16.1 183.3 16.4 183.2 16.7 C 183.1 17.1 183 18 183 19.6 C 182.96 19.59 183 20.1 183 20.1 C 183 20.1 182.95 20.41 183 20.4 Z M 198.1 8.4 C 197.9 8.4 197.8 8.2 197.7 7.8 C 197.6 7.7 197.6 7.5 197.5 7.4 C 197.3 6.8 197.2 6.4 197.2 5.9 C 197.2 5.6 197.4 5.3 197.8 4.9 C 198.2 4.5 198.7 4.4 199.1 4.4 C 199.4 4.4 199.7 4.5 200 4.7 C 200.3 4.8 200.4 5 200.4 5.2 C 200.4 5.5 200.3 6 200.1 6.6 C 199.9 7.3 199.6 7.8 199.1 8 C 198.7 8.2 198.3 8.4 198.1 8.4 Z M 196.4 22.7 C 196.4 23.3 196.5 24 196.7 24.8 C 196.7 25 196.7 25.1 196.7 25.2 C 196.7 25.4 196.6 25.6 196.3 25.8 C 196 26.1 195.7 26.2 195.4 26.2 C 194.6 26.2 194.2 25.4 194.2 23.9 C 194.2 22.3 194.5 19.9 195.1 16.5 C 195.4 15.3 195.5 14.5 195.5 14.3 C 195.5 13.7 195.6 13.3 195.8 12.9 C 196 12.5 196.2 12.3 196.6 12.3 C 197 12.3 197.4 12.4 197.6 12.6 C 197.9 12.8 198 13.1 198 13.3 C 198 13.6 198 13.9 197.8 14.3 C 197.2 16.6 196.8 18.2 196.6 19.2 C 196.5 20.2 196.4 21.3 196.4 22.7 Z M 206.7 12.6 C 207.6 12.5 208.5 12.4 209.2 12.3 C 210 12.3 210.6 12.2 211.2 12.2 C 211.8 12.2 212.2 12.3 212.4 12.4 C 212.5 12.5 212.6 12.7 212.6 13 C 212.6 13.7 212.2 14.1 211.2 14.1 C 210 14.2 208.8 14.3 207.8 14.5 C 206.7 14.6 206.2 14.7 206.1 14.8 C 206 14.9 205.8 15.9 205.3 17.8 C 204.9 19.8 204.7 21 204.7 21.6 C 204.7 22.6 204.8 23.2 205 23.5 C 205.3 23.8 205.7 24 206.1 24 C 206.9 24 207.9 23.4 209.2 22.3 C 209.7 21.9 210.1 21.6 210.4 21.6 C 210.7 21.6 210.9 21.8 210.9 22.2 C 210.9 22.8 210.3 23.6 209.1 24.6 C 208 25.6 206.8 26.1 205.5 26.1 C 203.5 26.1 202.4 24.9 202.4 22.4 C 202.4 21.6 202.6 20.2 203.1 18.4 C 203.5 16.5 203.7 15.4 203.7 15.1 C 203.7 14.9 203.6 14.9 203.4 14.9 C 203.4 14.9 202.1 15 202.1 15 C 201 15 200.4 14.5 200.4 13.7 C 200.4 13.2 200.7 12.9 201.2 12.9 C 201.2 12.9 203.8 12.9 203.8 12.9 C 204 12.9 204.1 12.8 204.3 12.7 C 204.4 12.5 204.6 12 204.9 11.1 C 205.1 10.1 205.4 9.2 205.6 8.3 C 205.8 7.4 206.2 7 206.8 7 C 207.2 7 207.4 7.1 207.6 7.3 C 207.8 7.6 208 7.8 208 8.1 C 208 8.2 207.8 8.8 207.5 9.9 C 207.5 9.9 206.7 12.6 206.7 12.6 Z M 222.4 20.8 C 221.3 22.4 220.1 23.6 218.9 24.4 C 217.7 25.2 216.7 25.6 215.7 25.6 C 215 25.6 214.5 25.4 214 24.8 C 213.5 24.3 213.3 23.5 213.3 22.7 C 213.3 20.4 214.3 18 216.3 15.4 C 218.3 12.8 220.3 11.5 222.3 11.5 C 223 11.5 223.5 12 223.9 12.8 C 224 13 224.1 13.2 224.4 13.2 C 225.1 13.2 225.4 13.4 225.4 14 C 225.4 14.2 225.4 14.6 225.3 15.1 C 224.8 17.6 224.6 19.4 224.6 20.4 C 224.6 22.5 225 23.7 225.8 24.1 C 226.1 24.3 226.3 24.6 226.3 24.9 C 226.3 25.1 226.1 25.4 225.8 25.7 C 225.4 25.9 225.1 26.1 224.7 26.1 C 224.1 26.1 223.5 25.6 223.1 24.7 C 222.7 23.8 222.4 22.5 222.4 20.8 Z M 222.9 15.5 C 222.9 14.2 222.5 13.6 221.7 13.6 C 220.5 13.6 219.2 14.7 217.7 16.8 C 216.2 18.9 215.5 20.7 215.5 22.1 C 215.5 23 215.8 23.5 216.5 23.5 C 217.4 23.5 218.7 22.6 220.4 20.7 C 222 18.8 222.9 17 222.9 15.5 C 222.9 15.5 222.9 15.5 222.9 15.5 Z M 233.7 3.8 C 234.3 3.8 234.6 4.2 234.6 5 C 234.6 5.7 234.2 7.4 233.5 10 C 233 11.7 232.7 13.5 232.4 15.5 C 232.1 17.5 232 19 232 20.2 C 232 21.6 232.1 23 232.3 24.4 C 232.3 24.6 232.3 24.8 232.3 24.9 C 232.3 25.4 232.2 25.7 231.9 26 C 231.6 26.3 231.3 26.5 231 26.5 C 230.5 26.5 230.2 26.2 230 25.7 C 229.9 25.1 229.8 24.2 229.8 22.9 C 229.8 20.1 230.1 16.5 230.8 12.3 C 231.5 8.1 232 5.6 232.4 4.9 C 232.9 4.2 233.3 3.8 233.7 3.8 Z " stroke="none" fill="#fff"/>  </g></svg>