<?xml version="1.0" standalone="no"?><!DOCTYPE svg PUBLIC "-//W3C//DTD SVG 1.1//EN" "http://www.w3.org/Graphics/SVG/1.1/DTD/svg11.dtd"><svg xmlns="http://www.w3.org/2000/svg" version="1.1" width="72px" height="22.9px" viewBox="0 -1 72 22.9" style="top:-1px">  <desc>SIM, PORQUE FAVORECE PRIVIL GIOS PARA POUCOS, ENQUANTO O VOTO DISTRITAL FAVORECE A IGUALDADE DE INTERESSES, COMO N S</desc>  <defs/>  <g id="Polygon14645">    <path d="M 17.1 15.6 C 17.1 15.7 17.1 15.8 17.1 15.8 C 17.1 15.9 17.1 15.9 17.1 16.1 C 17 16.3 17 16.4 17 16.5 C 17 16.6 17 16.7 17 16.9 C 17.1 17 17 17 17 17.1 C 16.9 17.1 16.9 17.1 16.8 17.1 C 16.8 17.1 16.7 17.1 16.7 17 C 16.7 17 16.6 16.9 16.6 16.7 C 16.6 16.6 16.7 16.4 16.7 16.1 C 16.7 16.1 16.8 15.5 16.8 15.5 C 16.8 15.4 16.8 15.3 16.8 15.3 C 16.8 15.1 16.9 15.1 16.9 15.1 C 16.9 15 16.9 15 17 15 C 17 15 17 14.9 17.1 14.9 C 17.1 14.9 17.2 15 17.2 15 C 17.2 15.1 17.2 15.1 17.2 15.2 C 17.2 15.2 17.1 15.6 17.1 15.6 Z M 17.6 16.6 C 17.6 16.6 17.66 16.1 17.7 16.1 C 17.7 15.7 17.8 15.4 17.8 15.3 C 17.8 15.2 17.8 15.2 17.8 15.1 C 17.8 15.1 17.8 15.1 17.9 15.1 C 17.9 15 18 15 18 15 C 18 15 18.1 15 18.1 15 C 18.1 15.1 18.2 15.1 18.2 15.2 C 18.2 15.4 18.4 15.6 18.5 15.9 C 18.7 16.2 18.8 16.4 19 16.6 C 19 16.4 19.1 16.2 19.1 15.9 C 19.1 15.7 19.2 15.6 19.2 15.4 C 19.2 15.3 19.2 15.2 19.2 15.1 C 19.2 15 19.3 15 19.3 14.9 C 19.4 14.9 19.4 14.9 19.5 14.9 C 19.5 14.9 19.5 14.9 19.6 15 C 19.6 15 19.6 15.1 19.6 15.1 C 19.6 15.2 19.6 15.3 19.6 15.4 C 19.5 15.6 19.4 15.9 19.4 16.2 C 19.3 16.6 19.3 16.8 19.3 16.8 C 19.3 16.8 19.3 16.9 19.3 16.9 C 19.3 16.9 19.3 17 19.3 17 C 19.3 17 19.2 17.1 19.2 17.1 C 19.2 17.1 19.1 17.1 19.1 17.1 C 19 17.1 19 17.1 19 17.1 C 19 17.1 18.9 17.1 18.9 17 C 18.9 17 18.9 17 18.8 16.9 C 18.8 16.8 18.7 16.8 18.7 16.7 C 18.5 16.5 18.3 16.1 18 15.7 C 18 15.8 18 16.1 17.9 16.6 C 17.9 16.6 17.9 16.7 17.9 16.7 C 17.9 16.7 17.9 16.8 17.9 16.9 C 17.9 17 17.8 17.1 17.8 17.1 C 17.8 17.2 17.7 17.2 17.7 17.2 C 17.6 17.2 17.6 17.2 17.5 17.1 C 17.5 17.1 17.5 17 17.5 16.9 C 17.5 16.9 17.5 16.7 17.6 16.6 C 17.56 16.6 17.6 16.6 17.6 16.6 Z M 21.5 15.3 C 21.2 15.3 21.1 15.3 21 15.3 C 21 15.3 21 15.4 21 15.4 C 20.9 15.4 20.9 15.6 20.9 15.9 C 20.9 16.2 20.8 16.4 20.8 16.6 C 20.8 16.7 20.9 16.8 20.9 16.9 C 20.9 16.9 20.9 16.9 20.9 16.9 C 20.9 17 20.9 17 20.8 17.1 C 20.8 17.1 20.8 17.1 20.7 17.1 C 20.7 17.1 20.6 17.1 20.6 17.1 C 20.5 17 20.5 17 20.5 16.9 C 20.5 16.8 20.5 16.7 20.5 16.6 C 20.5 16.5 20.5 16.2 20.5 15.9 C 20.6 15.5 20.6 15.4 20.6 15.4 C 20.6 15.4 20.5 15.4 20.3 15.4 C 20.1 15.4 20 15.4 20 15.4 C 19.9 15.4 19.8 15.4 19.7 15.4 C 19.7 15.3 19.7 15.3 19.7 15.3 C 19.7 15.2 19.7 15.2 19.7 15.1 C 19.8 15.1 19.9 15.1 20.1 15.1 C 20.3 15.1 20.6 15.1 20.9 15 C 21.2 15 21.4 15 21.6 15 C 21.8 15 21.9 15 21.9 15 C 21.9 15.1 22 15.1 22 15.2 C 22 15.3 21.9 15.3 21.8 15.3 C 21.8 15.3 21.8 15.3 21.7 15.3 C 21.6 15.3 21.6 15.3 21.5 15.3 C 21.5 15.3 21.5 15.3 21.5 15.3 Z M 23.5 15.3 C 23.5 15.3 23 15.3 23 15.3 C 22.9 15.3 22.7 15.3 22.6 15.3 C 22.5 15.3 22.4 15.4 22.4 15.4 C 22.4 15.4 22.4 15.4 22.4 15.5 C 22.4 15.5 22.4 15.6 22.4 15.7 C 22.3 15.8 22.3 15.9 22.3 15.9 C 22.4 15.9 22.5 15.9 22.6 15.9 C 22.7 15.9 22.8 15.9 22.8 15.9 C 23 15.9 23.1 15.8 23.2 15.8 C 23.3 15.8 23.4 15.9 23.4 16 C 23.4 16 23.4 16.1 23.3 16.1 C 23.3 16.1 23.2 16.2 23.1 16.2 C 23.1 16.2 23 16.2 22.9 16.2 C 22.9 16.2 22.9 16.2 22.8 16.2 C 22.5 16.2 22.4 16.3 22.3 16.3 C 22.3 16.3 22.3 16.3 22.3 16.3 C 22.3 16.3 22.3 16.3 22.3 16.3 C 22.3 16.3 22.3 16.4 22.2 16.5 C 22.2 16.7 22.2 16.8 22.2 16.8 C 22.2 16.8 22.2 16.9 22.3 16.9 C 22.3 16.9 22.4 16.8 22.6 16.8 C 22.8 16.8 23 16.8 23 16.8 C 23.2 16.7 23.2 16.7 23.3 16.7 C 23.4 16.7 23.5 16.8 23.5 16.9 C 23.5 16.9 23.5 17 23.4 17 C 23.3 17 23.2 17.1 23 17.1 C 22.9 17.1 22.7 17.1 22.5 17.1 C 22.4 17.2 22.2 17.2 22 17.2 C 22 17.2 21.9 17.2 21.9 17.1 C 21.8 17.1 21.8 17 21.8 17 C 21.8 17 21.8 16.9 21.8 16.9 C 21.8 16.9 21.8 16.9 21.8 16.8 C 21.9 16.7 21.9 16.5 22 16 C 22 15.6 22.1 15.4 22.1 15.3 C 22.1 15.3 22.1 15.3 22.1 15.3 C 22 15.3 22 15.3 22 15.3 C 22 15.2 22 15.2 22 15.2 C 22 15.2 22 15.1 22 15.1 C 22 15.1 22 15.1 22.1 15.1 C 22.1 15.1 22.1 15 22.2 15 C 22.2 15 22.3 15 22.3 15.1 C 22.4 15.1 22.7 15 23.1 15 C 23.3 14.9 23.3 14.9 23.3 14.9 C 23.3 14.9 23.4 14.9 23.4 14.9 C 23.5 14.9 23.6 15 23.6 15.1 C 23.6 15.1 23.6 15.2 23.6 15.2 C 23.5 15.2 23.5 15.2 23.5 15.3 Z M 24 15.3 C 24 15.3 23.98 15.28 24 15.3 C 24 15.2 23.9 15.2 23.9 15.2 C 23.9 15.1 24 15.1 24 15 C 24.1 15 24.1 15 24.1 15 C 24.2 15 24.2 15 24.2 15 C 24.2 15 24.2 15 24.3 15 C 24.5 15 24.7 14.9 24.9 14.9 C 25.1 14.9 25.3 15 25.4 15.1 C 25.5 15.2 25.6 15.3 25.6 15.5 C 25.6 15.6 25.5 15.8 25.4 15.9 C 25.3 16 25.1 16.1 24.9 16.2 C 25.2 16.5 25.5 16.7 25.7 16.8 C 25.7 16.8 25.8 16.9 25.8 16.9 C 25.8 17 25.7 17 25.7 17 C 25.7 17.1 25.6 17.1 25.6 17.1 C 25.5 17.1 25.5 17.1 25.4 17 C 25.3 17 25.2 16.9 25.1 16.8 C 24.9 16.7 24.9 16.6 24.8 16.6 C 24.7 16.5 24.5 16.4 24.4 16.3 C 24.3 16.3 24.3 16.3 24.3 16.1 C 24.3 16.1 24.3 16.1 24.4 16 C 24.4 16 24.5 16 24.5 16 C 24.5 16 24.5 16 24.6 16 C 24.6 16 24.6 16 24.6 16 C 24.7 16 24.8 15.9 25 15.8 C 25.1 15.7 25.2 15.6 25.2 15.5 C 25.2 15.4 25.2 15.3 25.1 15.3 C 25 15.2 24.9 15.2 24.8 15.2 C 24.7 15.2 24.6 15.2 24.5 15.2 C 24.4 15.3 24.4 15.3 24.4 15.3 C 24.4 15.3 24.4 15.3 24.4 15.3 C 24.4 15.3 24.3 15.4 24.3 15.6 C 24.3 15.8 24.2 16 24.2 16.2 C 24.2 16.4 24.2 16.6 24.2 16.7 C 24.2 16.7 24.2 16.8 24.2 16.8 C 24.2 16.9 24.2 16.9 24.2 17 C 24.2 17 24.2 17 24.1 17.1 C 24.1 17.1 24 17.1 24 17.1 C 23.9 17.1 23.8 17.1 23.8 16.9 C 23.8 16.7 23.8 16.5 23.8 16.2 C 23.9 16 23.9 15.7 24 15.5 C 24 15.5 24 15.4 24 15.4 C 23.98 15.41 24 15.3 24 15.3 Z M 27.6 15.3 C 27.6 15.3 27.1 15.3 27.1 15.3 C 27 15.3 26.8 15.3 26.7 15.3 C 26.6 15.3 26.6 15.4 26.5 15.4 C 26.5 15.4 26.5 15.4 26.5 15.5 C 26.5 15.5 26.5 15.6 26.5 15.7 C 26.5 15.8 26.4 15.9 26.4 15.9 C 26.5 15.9 26.6 15.9 26.7 15.9 C 26.8 15.9 26.9 15.9 26.9 15.9 C 27.1 15.9 27.2 15.8 27.3 15.8 C 27.4 15.8 27.5 15.9 27.5 16 C 27.5 16 27.5 16.1 27.4 16.1 C 27.4 16.1 27.3 16.2 27.2 16.2 C 27.2 16.2 27.1 16.2 27.1 16.2 C 27 16.2 27 16.2 26.9 16.2 C 26.6 16.2 26.5 16.3 26.4 16.3 C 26.4 16.3 26.4 16.3 26.4 16.3 C 26.4 16.3 26.4 16.3 26.4 16.3 C 26.4 16.3 26.4 16.4 26.3 16.5 C 26.3 16.7 26.3 16.8 26.3 16.8 C 26.3 16.8 26.3 16.9 26.4 16.9 C 26.4 16.9 26.6 16.8 26.8 16.8 C 27 16.8 27.1 16.8 27.1 16.8 C 27.3 16.7 27.3 16.7 27.4 16.7 C 27.5 16.7 27.6 16.8 27.6 16.9 C 27.6 16.9 27.6 17 27.5 17 C 27.4 17 27.3 17.1 27.1 17.1 C 27 17.1 26.8 17.1 26.6 17.1 C 26.5 17.2 26.3 17.2 26.2 17.2 C 26.1 17.2 26 17.2 26 17.1 C 26 17.1 25.9 17 25.9 17 C 25.9 17 25.9 16.9 25.9 16.9 C 25.9 16.9 25.9 16.9 25.9 16.8 C 26 16.7 26 16.5 26.1 16 C 26.1 15.6 26.2 15.4 26.2 15.3 C 26.2 15.3 26.2 15.3 26.2 15.3 C 26.2 15.3 26.1 15.3 26.1 15.3 C 26.1 15.2 26.1 15.2 26.1 15.2 C 26.1 15.2 26.1 15.1 26.1 15.1 C 26.1 15.1 26.1 15.1 26.2 15.1 C 26.2 15.1 26.2 15 26.3 15 C 26.3 15 26.4 15 26.4 15.1 C 26.5 15.1 26.8 15 27.2 15 C 27.4 14.9 27.4 14.9 27.4 14.9 C 27.4 14.9 27.5 14.9 27.5 14.9 C 27.6 14.9 27.7 15 27.7 15.1 C 27.7 15.1 27.7 15.2 27.7 15.2 C 27.6 15.2 27.6 15.2 27.6 15.3 Z M 29.5 15.2 C 29.5 15.4 29.4 15.5 29.3 15.5 C 29.3 15.4 29.2 15.3 29.2 15.3 C 29.1 15.3 29.1 15.2 29 15.2 C 28.8 15.2 28.6 15.3 28.5 15.4 C 28.4 15.4 28.3 15.5 28.3 15.6 C 28.3 15.7 28.3 15.7 28.4 15.8 C 28.4 15.8 28.6 15.9 28.8 15.9 C 29 16 29.2 16.1 29.3 16.2 C 29.4 16.2 29.5 16.3 29.5 16.5 C 29.5 16.6 29.3 16.8 29 17 C 28.7 17.1 28.4 17.2 28.1 17.2 C 28 17.2 28 17.2 27.9 17.2 C 27.8 17.1 27.8 17.1 27.8 17 C 27.8 16.9 27.8 16.9 27.8 16.9 C 27.9 16.8 27.9 16.8 27.9 16.8 C 28 16.8 28 16.8 28 16.8 C 28.1 16.9 28.2 16.9 28.3 16.9 C 28.5 16.9 28.6 16.8 28.8 16.7 C 29 16.7 29.1 16.6 29.1 16.5 C 29.1 16.5 29.1 16.4 29 16.4 C 29 16.4 28.9 16.3 28.7 16.3 C 28.5 16.2 28.4 16.1 28.3 16.1 C 28.2 16.1 28.1 16 28 15.9 C 28 15.9 27.9 15.8 27.9 15.7 C 27.9 15.5 28 15.3 28.3 15.2 C 28.5 15 28.7 14.9 29 14.9 C 29.2 14.9 29.3 15 29.4 15 C 29.5 15.1 29.5 15.2 29.5 15.2 C 29.5 15.2 29.5 15.2 29.5 15.2 Z M 31.4 15.2 C 31.4 15.4 31.3 15.5 31.1 15.5 C 31.1 15.4 31.1 15.3 31 15.3 C 31 15.3 30.9 15.2 30.8 15.2 C 30.6 15.2 30.5 15.3 30.3 15.4 C 30.2 15.4 30.1 15.5 30.1 15.6 C 30.1 15.7 30.2 15.7 30.2 15.8 C 30.3 15.8 30.4 15.9 30.6 15.9 C 30.9 16 31 16.1 31.1 16.2 C 31.3 16.2 31.3 16.3 31.3 16.5 C 31.3 16.6 31.2 16.8 30.9 17 C 30.6 17.1 30.3 17.2 30 17.2 C 29.9 17.2 29.8 17.2 29.7 17.2 C 29.7 17.1 29.7 17.1 29.7 17 C 29.7 16.9 29.7 16.9 29.7 16.9 C 29.7 16.8 29.8 16.8 29.8 16.8 C 29.8 16.8 29.8 16.8 29.9 16.8 C 30 16.9 30.1 16.9 30.1 16.9 C 30.3 16.9 30.5 16.8 30.7 16.7 C 30.9 16.7 30.9 16.6 30.9 16.5 C 30.9 16.5 30.9 16.4 30.9 16.4 C 30.8 16.4 30.7 16.3 30.6 16.3 C 30.4 16.2 30.2 16.1 30.1 16.1 C 30 16.1 29.9 16 29.9 15.9 C 29.8 15.9 29.8 15.8 29.8 15.7 C 29.8 15.5 29.9 15.3 30.1 15.2 C 30.3 15 30.6 14.9 30.9 14.9 C 31 14.9 31.1 15 31.2 15 C 31.3 15.1 31.4 15.2 31.4 15.2 C 31.4 15.2 31.4 15.2 31.4 15.2 Z M 33.3 15.3 C 33.3 15.3 32.8 15.3 32.8 15.3 C 32.7 15.3 32.5 15.3 32.4 15.3 C 32.3 15.3 32.2 15.4 32.2 15.4 C 32.2 15.4 32.2 15.4 32.2 15.5 C 32.2 15.5 32.2 15.6 32.2 15.7 C 32.1 15.8 32.1 15.9 32.1 15.9 C 32.2 15.9 32.3 15.9 32.4 15.9 C 32.5 15.9 32.6 15.9 32.6 15.9 C 32.8 15.9 32.9 15.8 33 15.8 C 33.1 15.8 33.2 15.9 33.2 16 C 33.2 16 33.2 16.1 33.1 16.1 C 33.1 16.1 33 16.2 32.9 16.2 C 32.9 16.2 32.8 16.2 32.7 16.2 C 32.7 16.2 32.7 16.2 32.6 16.2 C 32.3 16.2 32.2 16.3 32.1 16.3 C 32.1 16.3 32.1 16.3 32.1 16.3 C 32.1 16.3 32.1 16.3 32.1 16.3 C 32.1 16.3 32.1 16.4 32 16.5 C 32 16.7 32 16.8 32 16.8 C 32 16.8 32 16.9 32.1 16.9 C 32.1 16.9 32.2 16.8 32.4 16.8 C 32.6 16.8 32.8 16.8 32.8 16.8 C 32.9 16.7 33 16.7 33.1 16.7 C 33.2 16.7 33.3 16.8 33.3 16.9 C 33.3 16.9 33.2 17 33.2 17 C 33.1 17 33 17.1 32.8 17.1 C 32.7 17.1 32.5 17.1 32.3 17.1 C 32.2 17.2 32 17.2 31.8 17.2 C 31.8 17.2 31.7 17.2 31.7 17.1 C 31.6 17.1 31.6 17 31.6 17 C 31.6 17 31.6 16.9 31.6 16.9 C 31.6 16.9 31.6 16.9 31.6 16.8 C 31.7 16.7 31.7 16.5 31.8 16 C 31.8 15.6 31.9 15.4 31.9 15.3 C 31.9 15.3 31.9 15.3 31.8 15.3 C 31.8 15.3 31.8 15.3 31.8 15.3 C 31.8 15.2 31.8 15.2 31.8 15.2 C 31.8 15.2 31.8 15.1 31.8 15.1 C 31.8 15.1 31.8 15.1 31.9 15.1 C 31.9 15.1 31.9 15 32 15 C 32 15 32.1 15 32.1 15.1 C 32.2 15.1 32.5 15 32.9 15 C 33 14.9 33.1 14.9 33.1 14.9 C 33.1 14.9 33.2 14.9 33.2 14.9 C 33.3 14.9 33.4 15 33.4 15.1 C 33.4 15.1 33.4 15.2 33.4 15.2 C 33.3 15.2 33.3 15.2 33.3 15.3 Z M 35.2 15.2 C 35.2 15.4 35.1 15.5 34.9 15.5 C 34.9 15.4 34.9 15.3 34.9 15.3 C 34.8 15.3 34.7 15.2 34.6 15.2 C 34.5 15.2 34.3 15.3 34.2 15.4 C 34 15.4 34 15.5 34 15.6 C 34 15.7 34 15.7 34.1 15.8 C 34.1 15.8 34.2 15.9 34.5 15.9 C 34.7 16 34.9 16.1 35 16.2 C 35.1 16.2 35.2 16.3 35.2 16.5 C 35.2 16.6 35 16.8 34.7 17 C 34.4 17.1 34.1 17.2 33.8 17.2 C 33.7 17.2 33.6 17.2 33.6 17.2 C 33.5 17.1 33.5 17.1 33.5 17 C 33.5 16.9 33.5 16.9 33.5 16.9 C 33.6 16.8 33.6 16.8 33.6 16.8 C 33.7 16.8 33.7 16.8 33.7 16.8 C 33.8 16.9 33.9 16.9 34 16.9 C 34.1 16.9 34.3 16.8 34.5 16.7 C 34.7 16.7 34.8 16.6 34.8 16.5 C 34.8 16.5 34.8 16.4 34.7 16.4 C 34.7 16.4 34.6 16.3 34.4 16.3 C 34.2 16.2 34.1 16.1 33.9 16.1 C 33.8 16.1 33.8 16 33.7 15.9 C 33.6 15.9 33.6 15.8 33.6 15.7 C 33.6 15.5 33.7 15.3 33.9 15.2 C 34.2 15 34.4 14.9 34.7 14.9 C 34.9 14.9 35 15 35.1 15 C 35.2 15.1 35.2 15.2 35.2 15.2 C 35.2 15.2 35.2 15.2 35.2 15.2 Z M 35.4 17.3 C 35.4 17.3 35.4 17.3 35.4 17.3 C 35.5 17.3 35.5 17.2 35.6 17.2 C 35.7 17.1 35.8 17.1 35.8 17 C 35.8 17 35.8 16.9 35.8 16.9 C 35.8 16.9 35.8 16.8 35.8 16.8 C 35.8 16.7 35.8 16.7 35.8 16.7 C 35.8 16.7 35.8 16.6 35.8 16.6 C 35.8 16.6 35.8 16.5 35.9 16.5 C 35.9 16.5 36 16.6 36 16.6 C 36.1 16.6 36.1 16.6 36.1 16.6 C 36.1 16.7 36.1 16.7 36.1 16.8 C 36.2 16.8 36.2 16.9 36.2 16.9 C 36.2 16.9 36.1 17 36.1 17.1 C 36.1 17.2 36 17.2 35.9 17.3 C 35.9 17.3 35.8 17.4 35.8 17.4 C 35.7 17.4 35.7 17.4 35.7 17.4 C 35.6 17.4 35.5 17.4 35.5 17.4 C 35.4 17.4 35.4 17.4 35.4 17.3 C 35.4 17.3 35.4 17.3 35.4 17.3 Z M 38.8 16.7 C 38.9 16.6 39 16.6 39 16.6 C 39.1 16.6 39.1 16.6 39.1 16.7 C 39.1 16.8 39 16.9 38.8 17 C 38.6 17.1 38.4 17.2 38.2 17.2 C 38 17.2 37.9 17.1 37.7 17 C 37.6 16.9 37.5 16.7 37.5 16.5 C 37.5 16.3 37.6 16 37.7 15.8 C 37.9 15.5 38.1 15.3 38.3 15.1 C 38.5 14.9 38.8 14.8 39 14.8 C 39.1 14.8 39.2 14.9 39.3 14.9 C 39.4 15 39.4 15.1 39.4 15.2 C 39.4 15.3 39.4 15.4 39.4 15.5 C 39.4 15.5 39.3 15.6 39.3 15.6 C 39.2 15.6 39.2 15.6 39.1 15.6 C 39.1 15.6 39.1 15.6 39 15.6 C 39 15.6 39 15.5 39 15.5 C 39 15.5 39 15.4 39 15.4 C 39 15.3 39 15.3 39 15.2 C 39 15.1 39 15.1 39 15.1 C 38.8 15.1 38.7 15.2 38.5 15.3 C 38.3 15.5 38.2 15.7 38 15.9 C 37.9 16.1 37.9 16.3 37.9 16.5 C 37.9 16.6 37.9 16.7 38 16.8 C 38 16.9 38.1 16.9 38.2 16.9 C 38.3 16.9 38.4 16.9 38.5 16.8 C 38.6 16.8 38.7 16.7 38.8 16.7 C 38.8 16.7 38.8 16.7 38.8 16.7 Z M 40.1 17.2 C 40 17.2 39.8 17.1 39.7 16.9 C 39.6 16.8 39.5 16.6 39.5 16.4 C 39.5 16.2 39.6 16 39.7 15.8 C 39.8 15.5 40 15.3 40.2 15.2 C 40.4 15 40.6 14.9 40.8 14.9 C 40.9 14.9 41.1 15 41.2 15 C 41.3 15 41.4 15.1 41.5 15.2 C 41.6 15.2 41.6 15.3 41.7 15.4 C 41.7 15.5 41.7 15.6 41.7 15.7 C 41.7 15.9 41.7 16 41.6 16.2 C 41.5 16.4 41.4 16.5 41.2 16.7 C 41.1 16.8 40.9 17 40.8 17 C 40.6 17.1 40.4 17.2 40.1 17.2 Z M 39.9 16.4 C 39.9 16.6 39.9 16.7 40 16.7 C 40.1 16.8 40.1 16.9 40.2 16.9 C 40.5 16.9 40.7 16.7 41 16.5 C 41.2 16.2 41.3 16 41.3 15.7 C 41.3 15.6 41.3 15.5 41.3 15.4 C 41.2 15.4 41.2 15.3 41.1 15.3 C 41 15.2 40.9 15.2 40.8 15.2 C 40.6 15.2 40.4 15.4 40.2 15.6 C 40 15.9 39.9 16.2 39.9 16.4 Z M 44 15.6 C 44 15.5 44 15.5 44 15.5 C 44 15.5 43.5 16.1 43.5 16.1 C 43.3 16.4 43.1 16.6 43 16.6 C 42.9 16.6 42.9 16.6 42.8 16.5 C 42.8 16.4 42.7 16.3 42.7 16.2 C 42.6 16.1 42.6 16 42.6 15.9 C 42.6 15.7 42.5 15.6 42.5 15.6 C 42.5 15.6 42.4 16 42.4 16 C 42.4 16.1 42.4 16.2 42.4 16.3 C 42.3 16.5 42.3 16.6 42.3 16.7 C 42.3 16.9 42.2 17 42.2 17 C 42.2 17.1 42.2 17.1 42.2 17.1 C 42.1 17.2 42.1 17.2 42.1 17.2 C 42 17.2 42 17.1 41.9 17.1 C 41.9 17.1 41.9 17 41.9 17 C 41.9 16.9 41.9 16.8 41.9 16.6 C 42.1 16 42.2 15.7 42.2 15.5 C 42.2 15.3 42.2 15.2 42.2 15.1 C 42.2 15.1 42.3 15 42.3 15 C 42.4 15 42.4 15 42.5 15 C 42.5 15 42.6 15 42.6 15 C 42.6 15.1 42.7 15.1 42.7 15.2 C 42.68 15.18 42.7 15.2 42.7 15.2 C 42.7 15.2 42.89 15.75 42.9 15.7 C 43 16 43 16.1 43 16.2 C 43.2 16.1 43.3 15.9 43.5 15.6 C 43.7 15.3 43.9 15.1 43.9 15 C 44 15 44.1 14.9 44.1 14.9 C 44.2 14.9 44.2 14.9 44.3 15 C 44.3 15 44.4 15.1 44.4 15.1 C 44.4 15.1 44.3 15.3 44.3 15.5 C 44.3 15.7 44.2 15.9 44.2 16.2 C 44.2 16.4 44.2 16.5 44.2 16.6 C 44.2 16.6 44.2 16.7 44.2 16.8 C 44.2 16.8 44.2 16.8 44.2 16.9 C 44.2 17 44.2 17 44.2 17.1 C 44.1 17.1 44.1 17.1 44 17.1 C 43.9 17.1 43.8 17 43.8 16.8 C 43.8 16.7 43.8 16.4 43.9 16.2 C 43.9 15.9 43.9 15.7 44 15.6 C 44 15.6 44 15.6 44 15.6 Z M 45.3 17.2 C 45.1 17.2 45 17.1 44.8 16.9 C 44.7 16.8 44.6 16.6 44.6 16.4 C 44.6 16.2 44.7 16 44.8 15.8 C 44.9 15.5 45.1 15.3 45.3 15.2 C 45.5 15 45.7 14.9 45.9 14.9 C 46.1 14.9 46.2 15 46.3 15 C 46.4 15 46.5 15.1 46.6 15.2 C 46.7 15.2 46.7 15.3 46.8 15.4 C 46.8 15.5 46.8 15.6 46.8 15.7 C 46.8 15.9 46.8 16 46.7 16.2 C 46.6 16.4 46.5 16.5 46.3 16.7 C 46.2 16.8 46 17 45.9 17 C 45.7 17.1 45.5 17.2 45.3 17.2 Z M 45 16.4 C 45 16.6 45 16.7 45.1 16.7 C 45.2 16.8 45.3 16.9 45.4 16.9 C 45.6 16.9 45.9 16.7 46.1 16.5 C 46.3 16.2 46.4 16 46.4 15.7 C 46.4 15.6 46.4 15.5 46.4 15.4 C 46.3 15.4 46.3 15.3 46.2 15.3 C 46.1 15.2 46 15.2 45.9 15.2 C 45.7 15.2 45.5 15.4 45.3 15.6 C 45.1 15.9 45 16.2 45 16.4 Z M 48.2 16.6 C 48.2 16.6 48.34 16.1 48.3 16.1 C 48.4 15.7 48.5 15.4 48.5 15.3 C 48.5 15.2 48.5 15.2 48.5 15.1 C 48.5 15.1 48.5 15.1 48.5 15.1 C 48.6 15 48.6 15 48.7 15 C 48.7 15 48.7 15 48.8 15 C 48.8 15.1 48.9 15.1 48.9 15.2 C 48.9 15.4 49 15.6 49.2 15.9 C 49.4 16.2 49.5 16.4 49.7 16.6 C 49.7 16.4 49.7 16.2 49.8 15.9 C 49.8 15.7 49.8 15.6 49.9 15.4 C 49.9 15.3 49.9 15.2 49.9 15.1 C 49.9 15 49.9 15 50 14.9 C 50 14.9 50.1 14.9 50.1 14.9 C 50.2 14.9 50.2 14.9 50.2 15 C 50.3 15 50.3 15.1 50.3 15.1 C 50.3 15.2 50.3 15.3 50.2 15.4 C 50.2 15.6 50.1 15.9 50 16.2 C 50 16.6 50 16.8 50 16.8 C 50 16.8 50 16.9 50 16.9 C 50 16.9 50 17 49.9 17 C 49.9 17 49.9 17.1 49.9 17.1 C 49.8 17.1 49.8 17.1 49.7 17.1 C 49.7 17.1 49.7 17.1 49.6 17.1 C 49.6 17.1 49.6 17.1 49.6 17 C 49.6 17 49.5 17 49.5 16.9 C 49.5 16.8 49.4 16.8 49.4 16.7 C 49.2 16.5 48.9 16.1 48.7 15.7 C 48.7 15.8 48.6 16.1 48.6 16.6 C 48.6 16.6 48.6 16.7 48.6 16.7 C 48.6 16.7 48.6 16.8 48.5 16.9 C 48.5 17 48.5 17.1 48.5 17.1 C 48.4 17.2 48.4 17.2 48.3 17.2 C 48.3 17.2 48.2 17.2 48.2 17.1 C 48.2 17.1 48.2 17 48.2 16.9 C 48.2 16.9 48.2 16.7 48.2 16.6 C 48.23 16.6 48.2 16.6 48.2 16.6 Z M 51.1 17.2 C 50.9 17.2 50.8 17.1 50.7 16.9 C 50.5 16.8 50.5 16.6 50.5 16.4 C 50.5 16.2 50.5 16 50.7 15.8 C 50.8 15.5 50.9 15.3 51.1 15.2 C 51.3 15 51.5 14.9 51.7 14.9 C 51.9 14.9 52 15 52.1 15 C 52.2 15 52.3 15.1 52.4 15.2 C 52.5 15.2 52.6 15.3 52.6 15.4 C 52.6 15.5 52.7 15.6 52.7 15.7 C 52.7 15.9 52.6 16 52.5 16.2 C 52.5 16.4 52.3 16.5 52.2 16.7 C 52 16.8 51.9 17 51.7 17 C 51.6 17.1 51.4 17.2 51.1 17.2 Z M 50.8 16.4 C 50.8 16.6 50.9 16.7 51 16.7 C 51 16.8 51.1 16.9 51.2 16.9 C 51.5 16.9 51.7 16.7 51.9 16.5 C 52.2 16.2 52.3 16 52.3 15.7 C 52.3 15.6 52.3 15.5 52.2 15.4 C 52.2 15.4 52.1 15.3 52 15.3 C 51.9 15.2 51.8 15.2 51.7 15.2 C 51.5 15.2 51.4 15.4 51.2 15.6 C 50.9 15.9 50.8 16.2 50.8 16.4 Z M 52.4 14.3 C 52.3 14.3 52.3 14.4 52.2 14.5 C 52.2 14.5 52.2 14.5 52.2 14.5 C 52.1 14.5 52.1 14.5 51.9 14.6 C 51.9 14.7 51.8 14.7 51.8 14.7 C 51.8 14.7 51.8 14.7 51.8 14.7 C 51.8 14.7 51.7 14.7 51.7 14.7 C 51.7 14.6 51.7 14.6 51.7 14.6 C 51.7 14.5 51.7 14.4 51.9 14.3 C 51.9 14.3 51.9 14.3 51.9 14.3 C 51.9 14.3 51.9 14.3 52 14.3 C 52.1 14.1 52.3 14 52.3 14 C 52.3 14 52.4 14 52.4 14 C 52.4 14 52.5 14 52.5 14 C 52.5 14.1 52.5 14.1 52.5 14.1 C 52.5 14.2 52.5 14.2 52.5 14.2 C 52.5 14.3 52.4 14.3 52.4 14.3 C 52.4 14.3 52.4 14.3 52.4 14.3 Z M 54.5 15.2 C 54.5 15.4 54.4 15.5 54.2 15.5 C 54.2 15.4 54.2 15.3 54.2 15.3 C 54.1 15.3 54 15.2 53.9 15.2 C 53.8 15.2 53.6 15.3 53.5 15.4 C 53.3 15.4 53.3 15.5 53.3 15.6 C 53.3 15.7 53.3 15.7 53.3 15.8 C 53.4 15.8 53.5 15.9 53.8 15.9 C 54 16 54.2 16.1 54.3 16.2 C 54.4 16.2 54.4 16.3 54.4 16.5 C 54.4 16.6 54.3 16.8 54 17 C 53.7 17.1 53.4 17.2 53.1 17.2 C 53 17.2 52.9 17.2 52.9 17.2 C 52.8 17.1 52.8 17.1 52.8 17 C 52.8 16.9 52.8 16.9 52.8 16.9 C 52.9 16.8 52.9 16.8 52.9 16.8 C 52.9 16.8 53 16.8 53 16.8 C 53.1 16.9 53.2 16.9 53.3 16.9 C 53.4 16.9 53.6 16.8 53.8 16.7 C 54 16.7 54.1 16.6 54.1 16.5 C 54.1 16.5 54 16.4 54 16.4 C 54 16.4 53.9 16.3 53.7 16.3 C 53.5 16.2 53.3 16.1 53.2 16.1 C 53.1 16.1 53 16 53 15.9 C 52.9 15.9 52.9 15.8 52.9 15.7 C 52.9 15.5 53 15.3 53.2 15.2 C 53.4 15 53.7 14.9 54 14.9 C 54.1 14.9 54.3 15 54.4 15 C 54.5 15.1 54.5 15.2 54.5 15.2 C 54.5 15.2 54.5 15.2 54.5 15.2 Z " stroke="none" fill="#000"/>  </g>  <g id="Polygon14644">    <path d="M 4.9 12.8 C 4.9 12.8 4.9 12.7 5 12.6 C 5 12.2 5 11.9 5.1 11.5 C 5.1 11.4 5.1 11.4 5.1 11.3 C 5.1 11.3 5.1 11.3 5.1 11.3 C 5 11.3 4.9 11.2 4.9 11.2 C 4.9 11.1 4.9 11.1 5 11 C 5 11 5.1 11 5.1 11 C 5.1 11 5.3 11 5.3 11 C 5.4 11 5.5 11 5.7 11 C 5.8 10.9 5.9 10.9 6 10.9 C 6.3 10.9 6.5 11 6.7 11.2 C 6.8 11.3 6.9 11.5 6.9 11.8 C 6.9 12.1 6.8 12.3 6.5 12.5 C 6.3 12.8 6 12.9 5.6 13 C 5.5 13 5.4 13 5.4 13.1 C 5.4 13.1 5.3 13.1 5.3 13.1 C 5.2 13.2 5.1 13.2 5.1 13.2 C 5 13.2 5 13.2 4.9 13.1 C 4.9 13.1 4.9 13 4.9 13 C 4.9 13 4.9 13 4.9 12.9 C 4.9 12.9 4.9 12.8 4.9 12.8 Z M 5.3 12.7 C 5.3 12.7 5.3 12.7 5.3 12.8 C 5.4 12.8 5.5 12.7 5.8 12.7 C 6 12.6 6.2 12.5 6.4 12.3 C 6.5 12.1 6.6 12 6.6 11.8 C 6.6 11.6 6.5 11.5 6.4 11.4 C 6.3 11.3 6.1 11.2 6 11.2 C 5.8 11.2 5.7 11.2 5.5 11.3 C 5.5 11.3 5.5 11.3 5.5 11.3 C 5.4 11.9 5.3 12.4 5.3 12.7 C 5.3 12.7 5.3 12.7 5.3 12.7 Z M 7.7 11.6 C 7.7 11.7 7.7 11.8 7.6 11.8 C 7.6 11.9 7.6 11.9 7.6 12.1 C 7.6 12.3 7.6 12.4 7.6 12.5 C 7.6 12.6 7.6 12.7 7.6 12.9 C 7.6 13 7.6 13 7.5 13.1 C 7.5 13.1 7.4 13.1 7.4 13.1 C 7.3 13.1 7.3 13.1 7.2 13 C 7.2 13 7.2 12.9 7.2 12.7 C 7.2 12.6 7.2 12.4 7.3 12.1 C 7.3 12.1 7.3 11.5 7.3 11.5 C 7.4 11.4 7.4 11.3 7.4 11.3 C 7.4 11.1 7.4 11.1 7.4 11.1 C 7.4 11 7.5 11 7.5 11 C 7.6 11 7.6 10.9 7.6 10.9 C 7.7 10.9 7.7 11 7.8 11 C 7.8 11.1 7.8 11.1 7.8 11.2 C 7.8 11.2 7.7 11.6 7.7 11.6 Z M 9.7 11.2 C 9.7 11.4 9.6 11.5 9.4 11.5 C 9.4 11.4 9.4 11.3 9.3 11.3 C 9.3 11.3 9.2 11.2 9.1 11.2 C 8.9 11.2 8.8 11.3 8.6 11.4 C 8.5 11.4 8.4 11.5 8.4 11.6 C 8.4 11.7 8.5 11.7 8.5 11.8 C 8.6 11.8 8.7 11.9 8.9 11.9 C 9.2 12 9.3 12.1 9.4 12.2 C 9.6 12.2 9.6 12.3 9.6 12.5 C 9.6 12.6 9.5 12.8 9.2 13 C 8.9 13.1 8.6 13.2 8.3 13.2 C 8.2 13.2 8.1 13.2 8 13.2 C 8 13.1 8 13.1 8 13 C 8 12.9 8 12.9 8 12.9 C 8 12.8 8.1 12.8 8.1 12.8 C 8.1 12.8 8.1 12.8 8.2 12.8 C 8.3 12.9 8.4 12.9 8.4 12.9 C 8.6 12.9 8.8 12.8 9 12.7 C 9.2 12.7 9.2 12.6 9.2 12.5 C 9.2 12.5 9.2 12.4 9.2 12.4 C 9.1 12.4 9 12.3 8.9 12.3 C 8.7 12.2 8.5 12.1 8.4 12.1 C 8.3 12.1 8.2 12 8.2 11.9 C 8.1 11.9 8.1 11.8 8.1 11.7 C 8.1 11.5 8.2 11.3 8.4 11.2 C 8.6 11 8.9 10.9 9.2 10.9 C 9.3 10.9 9.4 11 9.5 11 C 9.6 11.1 9.7 11.2 9.7 11.2 C 9.7 11.2 9.7 11.2 9.7 11.2 Z M 11.5 11.3 C 11.3 11.3 11.1 11.3 11 11.3 C 11 11.3 11 11.4 11 11.4 C 11 11.4 11 11.6 10.9 11.9 C 10.9 12.2 10.9 12.4 10.9 12.6 C 10.9 12.7 10.9 12.8 10.9 12.9 C 10.9 12.9 10.9 12.9 10.9 12.9 C 10.9 13 10.9 13 10.9 13.1 C 10.8 13.1 10.8 13.1 10.8 13.1 C 10.7 13.1 10.7 13.1 10.6 13.1 C 10.6 13 10.6 13 10.5 12.9 C 10.5 12.8 10.5 12.7 10.5 12.6 C 10.5 12.5 10.6 12.2 10.6 11.9 C 10.6 11.5 10.7 11.4 10.7 11.4 C 10.6 11.4 10.5 11.4 10.3 11.4 C 10.1 11.4 10 11.4 10 11.4 C 9.9 11.4 9.8 11.4 9.8 11.4 C 9.7 11.3 9.7 11.3 9.7 11.3 C 9.7 11.2 9.7 11.2 9.8 11.1 C 9.8 11.1 9.9 11.1 10.1 11.1 C 10.4 11.1 10.7 11.1 10.9 11 C 11.2 11 11.5 11 11.6 11 C 11.8 11 11.9 11 11.9 11 C 12 11.1 12 11.1 12 11.2 C 12 11.3 12 11.3 11.9 11.3 C 11.9 11.3 11.8 11.3 11.7 11.3 C 11.7 11.3 11.6 11.3 11.5 11.3 C 11.5 11.3 11.5 11.3 11.5 11.3 Z M 12.1 11.3 C 12.1 11.3 12.04 11.28 12 11.3 C 12 11.2 12 11.2 12 11.2 C 12 11.1 12 11.1 12.1 11 C 12.1 11 12.2 11 12.2 11 C 12.2 11 12.2 11 12.3 11 C 12.3 11 12.3 11 12.3 11 C 12.6 11 12.8 10.9 12.9 10.9 C 13.1 10.9 13.3 11 13.4 11.1 C 13.6 11.2 13.6 11.3 13.6 11.5 C 13.6 11.6 13.6 11.8 13.4 11.9 C 13.3 12 13.1 12.1 12.9 12.2 C 13.3 12.5 13.5 12.7 13.7 12.8 C 13.8 12.8 13.8 12.9 13.8 12.9 C 13.8 13 13.8 13 13.8 13 C 13.7 13.1 13.7 13.1 13.6 13.1 C 13.6 13.1 13.5 13.1 13.4 13 C 13.4 13 13.3 12.9 13.1 12.8 C 13 12.7 12.9 12.6 12.9 12.6 C 12.7 12.5 12.6 12.4 12.5 12.3 C 12.4 12.3 12.3 12.3 12.3 12.1 C 12.3 12.1 12.4 12.1 12.4 12 C 12.5 12 12.5 12 12.6 12 C 12.6 12 12.6 12 12.6 12 C 12.6 12 12.7 12 12.7 12 C 12.7 12 12.8 11.9 13 11.8 C 13.2 11.7 13.3 11.6 13.3 11.5 C 13.3 11.4 13.2 11.3 13.2 11.3 C 13.1 11.2 13 11.2 12.9 11.2 C 12.8 11.2 12.7 11.2 12.6 11.2 C 12.5 11.3 12.5 11.3 12.4 11.3 C 12.4 11.3 12.4 11.3 12.4 11.3 C 12.4 11.3 12.4 11.4 12.4 11.6 C 12.3 11.8 12.3 12 12.3 12.2 C 12.2 12.4 12.2 12.6 12.2 12.7 C 12.2 12.7 12.2 12.8 12.2 12.8 C 12.2 12.9 12.3 12.9 12.3 13 C 12.3 13 12.2 13 12.2 13.1 C 12.1 13.1 12.1 13.1 12.1 13.1 C 11.9 13.1 11.8 13.1 11.8 12.9 C 11.8 12.7 11.9 12.5 11.9 12.2 C 11.9 12 12 11.7 12 11.5 C 12 11.5 12 11.4 12 11.4 C 12.04 11.41 12.1 11.3 12.1 11.3 Z M 14.5 11.6 C 14.5 11.7 14.5 11.8 14.5 11.8 C 14.5 11.9 14.4 11.9 14.4 12.1 C 14.4 12.3 14.4 12.4 14.4 12.5 C 14.4 12.6 14.4 12.7 14.4 12.9 C 14.4 13 14.4 13 14.3 13.1 C 14.3 13.1 14.2 13.1 14.2 13.1 C 14.1 13.1 14.1 13.1 14.1 13 C 14 13 14 12.9 14 12.7 C 14 12.6 14 12.4 14.1 12.1 C 14.1 12.1 14.2 11.5 14.2 11.5 C 14.2 11.4 14.2 11.3 14.2 11.3 C 14.2 11.1 14.2 11.1 14.2 11.1 C 14.3 11 14.3 11 14.3 11 C 14.4 11 14.4 10.9 14.4 10.9 C 14.5 10.9 14.5 11 14.6 11 C 14.6 11.1 14.6 11.1 14.6 11.2 C 14.6 11.2 14.5 11.6 14.5 11.6 Z M 16.5 11.3 C 16.2 11.3 16.1 11.3 16 11.3 C 16 11.3 16 11.4 16 11.4 C 15.9 11.4 15.9 11.6 15.9 11.9 C 15.9 12.2 15.8 12.4 15.8 12.6 C 15.8 12.7 15.9 12.8 15.9 12.9 C 15.9 12.9 15.9 12.9 15.9 12.9 C 15.9 13 15.9 13 15.8 13.1 C 15.8 13.1 15.8 13.1 15.7 13.1 C 15.7 13.1 15.6 13.1 15.6 13.1 C 15.5 13 15.5 13 15.5 12.9 C 15.5 12.8 15.5 12.7 15.5 12.6 C 15.5 12.5 15.5 12.2 15.5 11.9 C 15.6 11.5 15.6 11.4 15.6 11.4 C 15.6 11.4 15.5 11.4 15.3 11.4 C 15.1 11.4 15 11.4 15 11.4 C 14.9 11.4 14.8 11.4 14.7 11.4 C 14.7 11.3 14.7 11.3 14.7 11.3 C 14.7 11.2 14.7 11.2 14.7 11.1 C 14.8 11.1 14.9 11.1 15.1 11.1 C 15.3 11.1 15.6 11.1 15.9 11 C 16.2 11 16.4 11 16.6 11 C 16.8 11 16.9 11 16.9 11 C 16.9 11.1 17 11.1 17 11.2 C 17 11.3 16.9 11.3 16.8 11.3 C 16.8 11.3 16.8 11.3 16.7 11.3 C 16.6 11.3 16.6 11.3 16.5 11.3 C 16.5 11.3 16.5 11.3 16.5 11.3 Z M 17.2 12.6 C 17.1 12.6 17.1 12.6 17.1 12.6 C 17.1 12.6 17 12.7 16.9 12.9 C 16.8 13 16.8 13.1 16.7 13.1 C 16.7 13.1 16.7 13.1 16.7 13.1 C 16.6 13.1 16.6 13.1 16.5 13.1 C 16.5 13 16.5 13 16.5 13 C 16.5 12.9 16.6 12.7 16.8 12.3 C 17 12.1 17.1 11.9 17.2 11.7 C 17.4 11.3 17.6 11.1 17.6 11 C 17.6 11 17.7 10.9 17.8 10.9 C 17.8 10.9 17.9 10.9 17.9 11 C 18 11 18 11 18 11.1 C 18 11.1 18 11.2 17.9 11.2 C 18.1 11.7 18.3 12.1 18.4 12.3 C 18.5 12.6 18.6 12.7 18.7 12.8 C 18.7 12.9 18.8 12.9 18.8 12.9 C 18.8 12.9 18.8 13 18.8 13 C 18.8 13.1 18.8 13.1 18.7 13.1 C 18.7 13.2 18.6 13.2 18.6 13.2 C 18.5 13.2 18.4 13.1 18.4 13.1 C 18.3 13 18.2 12.9 18.1 12.7 C 18.1 12.6 18 12.5 18 12.5 C 18 12.5 18 12.4 18 12.4 C 18 12.4 17.9 12.5 17.7 12.5 C 17.5 12.5 17.4 12.6 17.2 12.6 C 17.2 12.6 17.2 12.6 17.2 12.6 C 17.2 12.6 17.2 12.6 17.2 12.6 Z M 17.8 12.2 C 17.8 12.2 17.9 12.2 17.9 12.2 C 17.9 12.1 17.8 11.9 17.7 11.5 C 17.7 11.5 17.7 11.5 17.7 11.5 C 17.7 11.5 17.3 12.3 17.3 12.3 C 17.3 12.3 17.4 12.2 17.5 12.2 C 17.5 12.2 17.6 12.2 17.8 12.2 C 17.8 12.2 17.8 12.2 17.8 12.2 Z M 20.4 13 C 20.4 13 20.3 13 20.3 13 C 20.2 13 20.2 13 20.1 13 C 19.9 13 19.6 13 19.4 13.1 C 19.2 13.1 19.2 13.2 19.1 13.2 C 19.1 13.2 19 13.1 19 13.1 C 19 13 18.9 13 18.9 13 C 18.9 12.9 18.9 12.9 19 12.8 C 19 12.7 19 12.6 19 12.5 C 19 12.5 19.2 11.3 19.2 11.3 C 19.2 11.2 19.2 11.1 19.2 11.1 C 19.2 11 19.2 11 19.2 11 C 19.3 11 19.3 10.9 19.4 10.9 C 19.4 10.9 19.5 11 19.5 11 C 19.5 11 19.6 11.1 19.6 11.1 C 19.6 11.1 19.6 11.2 19.5 11.3 C 19.5 11.4 19.5 11.7 19.4 12.1 C 19.4 12.5 19.4 12.7 19.4 12.7 C 19.4 12.7 19.4 12.8 19.4 12.8 C 19.4 12.8 19.5 12.7 19.7 12.7 C 19.8 12.7 19.8 12.7 19.9 12.7 C 20.1 12.7 20.3 12.7 20.4 12.6 C 20.4 12.6 20.4 12.6 20.5 12.6 C 20.5 12.6 20.6 12.6 20.6 12.7 C 20.6 12.7 20.6 12.7 20.6 12.8 C 20.6 12.9 20.6 12.9 20.6 12.9 C 20.5 13 20.4 13 20.4 13 Z M 23.5 11.2 C 23.5 11.3 23.5 11.3 23.4 11.3 C 23.4 11.3 23.4 11.3 23.4 11.3 C 23.4 11.3 23.3 11.3 23.3 11.3 C 23.1 11.3 23 11.3 22.8 11.3 C 22.7 11.3 22.6 11.3 22.5 11.3 C 22.5 11.5 22.4 11.8 22.4 12 C 22.4 12 22.5 12 22.5 12 C 22.7 12 22.8 12 22.9 11.9 C 23.1 11.9 23.1 11.9 23.2 11.9 C 23.4 11.9 23.4 12 23.4 12.1 C 23.4 12.1 23.4 12.1 23.4 12.1 C 23.4 12.2 23.3 12.2 23.3 12.2 C 23.3 12.2 23.2 12.2 23.1 12.2 C 23.1 12.2 22.7 12.3 22.7 12.3 C 22.6 12.3 22.5 12.3 22.4 12.3 C 22.4 12.3 22.4 12.4 22.4 12.4 C 22.4 12.4 22.4 12.4 22.3 12.5 C 22.3 12.7 22.3 12.8 22.3 12.8 C 22.3 12.8 22.3 13 22.3 13 C 22.3 13.1 22.3 13.2 22.2 13.2 C 22.1 13.2 22.1 13.2 22 13.1 C 22 13.1 21.9 13 21.9 13 C 21.9 12.8 22 12.7 22 12.4 C 22 12.4 22 12.1 22.1 11.3 C 22.1 11.3 22.1 11.3 22.1 11.3 C 22.1 11.2 22.1 11.2 22.1 11.2 C 22.1 11.1 22.1 11.1 22.2 11.1 C 22.2 11 22.2 11 22.3 11 C 22.3 11 22.3 11 22.4 11 C 22.4 11 22.4 11 22.5 11 C 22.5 11 22.7 11 22.9 11 C 23.1 10.9 23.2 10.9 23.3 10.9 C 23.4 10.9 23.5 11 23.6 11 C 23.6 11 23.6 11 23.6 11.1 C 23.6 11.1 23.6 11.2 23.5 11.2 C 23.5 11.2 23.5 11.2 23.5 11.2 Z M 24 12.6 C 24 12.6 24 12.6 24 12.6 C 23.9 12.6 23.9 12.7 23.8 12.9 C 23.7 13 23.7 13.1 23.6 13.1 C 23.6 13.1 23.6 13.1 23.5 13.1 C 23.5 13.1 23.5 13.1 23.4 13.1 C 23.4 13 23.3 13 23.3 13 C 23.3 12.9 23.5 12.7 23.7 12.3 C 23.8 12.1 24 11.9 24.1 11.7 C 24.3 11.3 24.4 11.1 24.5 11 C 24.5 11 24.6 10.9 24.6 10.9 C 24.7 10.9 24.8 10.9 24.8 11 C 24.8 11 24.8 11 24.8 11.1 C 24.8 11.1 24.8 11.2 24.8 11.2 C 25 11.7 25.2 12.1 25.3 12.3 C 25.4 12.6 25.5 12.7 25.6 12.8 C 25.6 12.9 25.6 12.9 25.6 12.9 C 25.7 12.9 25.7 13 25.7 13 C 25.7 13.1 25.6 13.1 25.6 13.1 C 25.6 13.2 25.5 13.2 25.5 13.2 C 25.4 13.2 25.3 13.1 25.2 13.1 C 25.2 13 25.1 12.9 25 12.7 C 25 12.6 24.9 12.5 24.9 12.5 C 24.9 12.5 24.9 12.4 24.9 12.4 C 24.9 12.4 24.7 12.5 24.6 12.5 C 24.4 12.5 24.2 12.6 24.1 12.6 C 24.1 12.6 24.1 12.6 24 12.6 C 24 12.6 24 12.6 24 12.6 Z M 24.7 12.2 C 24.7 12.2 24.8 12.2 24.8 12.2 C 24.8 12.1 24.7 11.9 24.6 11.5 C 24.6 11.5 24.6 11.5 24.6 11.5 C 24.6 11.5 24.2 12.3 24.2 12.3 C 24.2 12.3 24.3 12.2 24.3 12.2 C 24.4 12.2 24.5 12.2 24.7 12.2 C 24.7 12.2 24.7 12.2 24.7 12.2 Z M 27.9 11.1 C 27.9 11.1 27.9 11.1 27.9 11.1 C 27.9 11.1 27.9 11.1 27.8 11.2 C 27.7 11.4 27.6 11.5 27.5 11.6 C 27.5 11.7 27.3 12 27.2 12.3 C 27 12.4 27 12.6 26.9 12.6 C 26.8 12.7 26.8 12.9 26.8 12.9 C 26.8 13 26.7 13 26.7 13 C 26.6 13.1 26.6 13.1 26.5 13.1 C 26.4 13.1 26.4 13.1 26.4 13 C 26.4 13 26.3 12.9 26.3 12.7 C 26.2 12.6 26.1 12.4 26 12.1 C 25.8 11.5 25.7 11.2 25.7 11.2 C 25.7 11.2 25.7 11.1 25.7 11.1 C 25.8 11 25.8 11 25.9 11 C 25.9 11 26 11 26 11 C 26 11.1 26.1 11.2 26.1 11.3 C 26.1 11.4 26.2 11.6 26.3 11.9 C 26.4 12.2 26.5 12.5 26.6 12.6 C 26.6 12.6 26.6 12.5 26.7 12.4 C 26.7 12.4 26.7 12.4 26.7 12.4 C 26.9 12.2 27 12 27.1 11.8 C 27.2 11.5 27.4 11.3 27.5 11.1 C 27.6 11 27.7 10.9 27.7 10.9 C 27.9 10.9 27.9 10.9 27.9 11 C 27.91 11.04 27.9 11.1 27.9 11.1 C 27.9 11.1 27.91 11.05 27.9 11.1 Z M 28.4 13.2 C 28.2 13.2 28.1 13.1 27.9 12.9 C 27.8 12.8 27.7 12.6 27.7 12.4 C 27.7 12.2 27.8 12 27.9 11.8 C 28 11.5 28.2 11.3 28.4 11.2 C 28.6 11 28.8 10.9 29 10.9 C 29.2 10.9 29.3 11 29.4 11 C 29.5 11 29.6 11.1 29.7 11.2 C 29.8 11.2 29.8 11.3 29.9 11.4 C 29.9 11.5 29.9 11.6 29.9 11.7 C 29.9 11.9 29.9 12 29.8 12.2 C 29.7 12.4 29.6 12.5 29.5 12.7 C 29.3 12.8 29.1 13 29 13 C 28.8 13.1 28.6 13.2 28.4 13.2 Z M 28.1 12.4 C 28.1 12.6 28.1 12.7 28.2 12.7 C 28.3 12.8 28.4 12.9 28.5 12.9 C 28.7 12.9 29 12.7 29.2 12.5 C 29.4 12.2 29.5 12 29.5 11.7 C 29.5 11.6 29.5 11.5 29.5 11.4 C 29.4 11.4 29.4 11.3 29.3 11.3 C 29.2 11.2 29.1 11.2 29 11.2 C 28.8 11.2 28.6 11.4 28.4 11.6 C 28.2 11.9 28.1 12.2 28.1 12.4 Z M 30.3 11.3 C 30.3 11.3 30.32 11.28 30.3 11.3 C 30.3 11.2 30.3 11.2 30.3 11.2 C 30.3 11.1 30.3 11.1 30.3 11 C 30.4 11 30.4 11 30.5 11 C 30.5 11 30.5 11 30.5 11 C 30.6 11 30.6 11 30.6 11 C 30.9 11 31.1 10.9 31.2 10.9 C 31.4 10.9 31.6 11 31.7 11.1 C 31.8 11.2 31.9 11.3 31.9 11.5 C 31.9 11.6 31.8 11.8 31.7 11.9 C 31.6 12 31.4 12.1 31.2 12.2 C 31.6 12.5 31.8 12.7 32 12.8 C 32.1 12.8 32.1 12.9 32.1 12.9 C 32.1 13 32.1 13 32 13 C 32 13.1 32 13.1 31.9 13.1 C 31.9 13.1 31.8 13.1 31.7 13 C 31.7 13 31.5 12.9 31.4 12.8 C 31.3 12.7 31.2 12.6 31.2 12.6 C 31 12.5 30.9 12.4 30.8 12.3 C 30.7 12.3 30.6 12.3 30.6 12.1 C 30.6 12.1 30.7 12.1 30.7 12 C 30.7 12 30.8 12 30.9 12 C 30.9 12 30.9 12 30.9 12 C 30.9 12 30.9 12 31 12 C 31 12 31.1 11.9 31.3 11.8 C 31.5 11.7 31.6 11.6 31.6 11.5 C 31.6 11.4 31.5 11.3 31.4 11.3 C 31.4 11.2 31.3 11.2 31.2 11.2 C 31 11.2 30.9 11.2 30.9 11.2 C 30.8 11.3 30.7 11.3 30.7 11.3 C 30.7 11.3 30.7 11.3 30.7 11.3 C 30.7 11.3 30.7 11.4 30.6 11.6 C 30.6 11.8 30.6 12 30.5 12.2 C 30.5 12.4 30.5 12.6 30.5 12.7 C 30.5 12.7 30.5 12.8 30.5 12.8 C 30.5 12.9 30.5 12.9 30.5 13 C 30.5 13 30.5 13 30.5 13.1 C 30.4 13.1 30.4 13.1 30.3 13.1 C 30.2 13.1 30.1 13.1 30.1 12.9 C 30.1 12.7 30.2 12.5 30.2 12.2 C 30.2 12 30.3 11.7 30.3 11.5 C 30.3 11.5 30.3 11.4 30.3 11.4 C 30.32 11.41 30.3 11.3 30.3 11.3 Z M 33.9 11.3 C 33.9 11.3 33.5 11.3 33.5 11.3 C 33.3 11.3 33.2 11.3 33.1 11.3 C 33 11.3 32.9 11.4 32.9 11.4 C 32.9 11.4 32.9 11.4 32.9 11.5 C 32.9 11.5 32.8 11.6 32.8 11.7 C 32.8 11.8 32.8 11.9 32.8 11.9 C 32.8 11.9 32.9 11.9 33 11.9 C 33.2 11.9 33.2 11.9 33.3 11.9 C 33.4 11.9 33.5 11.8 33.6 11.8 C 33.8 11.8 33.8 11.9 33.8 12 C 33.8 12 33.8 12.1 33.8 12.1 C 33.7 12.1 33.7 12.2 33.6 12.2 C 33.5 12.2 33.5 12.2 33.4 12.2 C 33.4 12.2 33.3 12.2 33.3 12.2 C 33 12.2 32.8 12.3 32.8 12.3 C 32.8 12.3 32.8 12.3 32.8 12.3 C 32.8 12.3 32.7 12.3 32.7 12.3 C 32.7 12.3 32.7 12.4 32.7 12.5 C 32.7 12.7 32.7 12.8 32.7 12.8 C 32.7 12.8 32.7 12.9 32.7 12.9 C 32.8 12.9 32.9 12.8 33.1 12.8 C 33.3 12.8 33.4 12.8 33.5 12.8 C 33.6 12.7 33.7 12.7 33.7 12.7 C 33.9 12.7 33.9 12.8 33.9 12.9 C 33.9 12.9 33.9 13 33.9 13 C 33.8 13 33.6 13.1 33.5 13.1 C 33.3 13.1 33.2 13.1 33 13.1 C 32.8 13.2 32.6 13.2 32.5 13.2 C 32.4 13.2 32.4 13.2 32.3 13.1 C 32.3 13.1 32.3 13 32.3 13 C 32.3 13 32.3 12.9 32.3 12.9 C 32.3 12.9 32.3 12.9 32.3 12.8 C 32.3 12.7 32.4 12.5 32.4 12 C 32.5 11.6 32.5 11.4 32.5 11.3 C 32.5 11.3 32.5 11.3 32.5 11.3 C 32.5 11.3 32.5 11.3 32.5 11.3 C 32.5 11.2 32.4 11.2 32.4 11.2 C 32.4 11.2 32.4 11.1 32.5 11.1 C 32.5 11.1 32.5 11.1 32.5 11.1 C 32.6 11.1 32.6 11 32.6 11 C 32.7 11 32.7 11 32.8 11.1 C 32.8 11.1 33.1 11 33.6 11 C 33.7 10.9 33.8 10.9 33.8 10.9 C 33.8 10.9 33.8 10.9 33.8 10.9 C 34 10.9 34.1 11 34.1 11.1 C 34.1 11.1 34.1 11.2 34 11.2 C 34 11.2 34 11.2 33.9 11.3 Z M 35.5 12.7 C 35.6 12.6 35.7 12.6 35.7 12.6 C 35.8 12.6 35.9 12.6 35.9 12.7 C 35.9 12.8 35.7 12.9 35.5 13 C 35.3 13.1 35.1 13.2 34.9 13.2 C 34.7 13.2 34.6 13.1 34.4 13 C 34.3 12.9 34.2 12.7 34.2 12.5 C 34.2 12.3 34.3 12 34.4 11.8 C 34.6 11.5 34.8 11.3 35 11.1 C 35.2 10.9 35.5 10.8 35.7 10.8 C 35.8 10.8 35.9 10.9 36 10.9 C 36.1 11 36.1 11.1 36.1 11.2 C 36.1 11.3 36.1 11.4 36.1 11.5 C 36.1 11.5 36 11.6 36 11.6 C 35.9 11.6 35.9 11.6 35.8 11.6 C 35.8 11.6 35.8 11.6 35.7 11.6 C 35.7 11.6 35.7 11.5 35.7 11.5 C 35.7 11.5 35.7 11.4 35.7 11.4 C 35.7 11.3 35.7 11.3 35.7 11.2 C 35.7 11.1 35.7 11.1 35.7 11.1 C 35.5 11.1 35.4 11.2 35.2 11.3 C 35 11.5 34.9 11.7 34.8 11.9 C 34.6 12.1 34.6 12.3 34.6 12.5 C 34.6 12.6 34.6 12.7 34.7 12.8 C 34.7 12.9 34.8 12.9 34.9 12.9 C 35 12.9 35.1 12.9 35.2 12.8 C 35.3 12.8 35.4 12.7 35.5 12.7 C 35.5 12.7 35.5 12.7 35.5 12.7 Z M 37.9 11.3 C 37.9 11.3 37.5 11.3 37.5 11.3 C 37.3 11.3 37.2 11.3 37.1 11.3 C 37 11.3 36.9 11.4 36.9 11.4 C 36.9 11.4 36.9 11.4 36.9 11.5 C 36.9 11.5 36.9 11.6 36.8 11.7 C 36.8 11.8 36.8 11.9 36.8 11.9 C 36.9 11.9 36.9 11.9 37.1 11.9 C 37.2 11.9 37.3 11.9 37.3 11.9 C 37.5 11.9 37.6 11.8 37.6 11.8 C 37.8 11.8 37.9 11.9 37.9 12 C 37.9 12 37.8 12.1 37.8 12.1 C 37.8 12.1 37.7 12.2 37.6 12.2 C 37.5 12.2 37.5 12.2 37.4 12.2 C 37.4 12.2 37.3 12.2 37.3 12.2 C 37 12.2 36.8 12.3 36.8 12.3 C 36.8 12.3 36.8 12.3 36.8 12.3 C 36.8 12.3 36.8 12.3 36.8 12.3 C 36.7 12.3 36.7 12.4 36.7 12.5 C 36.7 12.7 36.7 12.8 36.7 12.8 C 36.7 12.8 36.7 12.9 36.7 12.9 C 36.8 12.9 36.9 12.8 37.1 12.8 C 37.3 12.8 37.4 12.8 37.5 12.8 C 37.6 12.7 37.7 12.7 37.7 12.7 C 37.9 12.7 37.9 12.8 37.9 12.9 C 37.9 12.9 37.9 13 37.9 13 C 37.8 13 37.7 13.1 37.5 13.1 C 37.4 13.1 37.2 13.1 37 13.1 C 36.8 13.2 36.7 13.2 36.5 13.2 C 36.4 13.2 36.4 13.2 36.3 13.1 C 36.3 13.1 36.3 13 36.3 13 C 36.3 13 36.3 12.9 36.3 12.9 C 36.3 12.9 36.3 12.9 36.3 12.8 C 36.3 12.7 36.4 12.5 36.4 12 C 36.5 11.6 36.5 11.4 36.5 11.3 C 36.5 11.3 36.5 11.3 36.5 11.3 C 36.5 11.3 36.5 11.3 36.5 11.3 C 36.5 11.2 36.5 11.2 36.5 11.2 C 36.5 11.2 36.5 11.1 36.5 11.1 C 36.5 11.1 36.5 11.1 36.5 11.1 C 36.6 11.1 36.6 11 36.6 11 C 36.7 11 36.7 11 36.8 11.1 C 36.9 11.1 37.1 11 37.6 11 C 37.7 10.9 37.8 10.9 37.8 10.9 C 37.8 10.9 37.8 10.9 37.8 10.9 C 38 10.9 38.1 11 38.1 11.1 C 38.1 11.1 38.1 11.2 38 11.2 C 38 11.2 38 11.2 37.9 11.3 Z M 39.9 12.6 C 39.8 12.6 39.8 12.6 39.8 12.6 C 39.8 12.6 39.7 12.7 39.6 12.9 C 39.6 13 39.5 13.1 39.5 13.1 C 39.4 13.1 39.4 13.1 39.4 13.1 C 39.3 13.1 39.3 13.1 39.2 13.1 C 39.2 13 39.2 13 39.2 13 C 39.2 12.9 39.3 12.7 39.5 12.3 C 39.7 12.1 39.8 11.9 39.9 11.7 C 40.1 11.3 40.3 11.1 40.3 11 C 40.4 11 40.4 10.9 40.5 10.9 C 40.5 10.9 40.6 10.9 40.6 11 C 40.7 11 40.7 11 40.7 11.1 C 40.7 11.1 40.7 11.2 40.7 11.2 C 40.8 11.7 41 12.1 41.1 12.3 C 41.2 12.6 41.3 12.7 41.4 12.8 C 41.4 12.9 41.5 12.9 41.5 12.9 C 41.5 12.9 41.5 13 41.5 13 C 41.5 13.1 41.5 13.1 41.4 13.1 C 41.4 13.2 41.4 13.2 41.3 13.2 C 41.2 13.2 41.1 13.1 41.1 13.1 C 41 13 40.9 12.9 40.9 12.7 C 40.8 12.6 40.8 12.5 40.8 12.5 C 40.8 12.5 40.8 12.4 40.7 12.4 C 40.7 12.4 40.6 12.5 40.4 12.5 C 40.2 12.5 40.1 12.6 40 12.6 C 39.9 12.6 39.9 12.6 39.9 12.6 C 39.9 12.6 39.9 12.6 39.9 12.6 Z M 40.5 12.2 C 40.6 12.2 40.6 12.2 40.6 12.2 C 40.6 12.1 40.5 11.9 40.4 11.5 C 40.4 11.5 40.4 11.5 40.4 11.5 C 40.4 11.5 40 12.3 40 12.3 C 40.1 12.3 40.1 12.2 40.2 12.2 C 40.2 12.2 40.3 12.2 40.5 12.2 C 40.5 12.2 40.5 12.2 40.5 12.2 Z M 43.3 11.6 C 43.3 11.7 43.3 11.8 43.3 11.8 C 43.3 11.9 43.3 11.9 43.3 12.1 C 43.2 12.3 43.2 12.4 43.2 12.5 C 43.2 12.6 43.2 12.7 43.2 12.9 C 43.2 13 43.2 13 43.2 13.1 C 43.1 13.1 43.1 13.1 43 13.1 C 43 13.1 42.9 13.1 42.9 13 C 42.9 13 42.8 12.9 42.8 12.7 C 42.8 12.6 42.9 12.4 42.9 12.1 C 42.9 12.1 43 11.5 43 11.5 C 43 11.4 43 11.3 43 11.3 C 43 11.1 43.1 11.1 43.1 11.1 C 43.1 11 43.1 11 43.2 11 C 43.2 11 43.2 10.9 43.3 10.9 C 43.3 10.9 43.4 11 43.4 11 C 43.4 11.1 43.4 11.1 43.4 11.2 C 43.4 11.2 43.3 11.6 43.3 11.6 Z M 45.6 12.1 C 45.5 12.2 45.5 12.3 45.5 12.4 C 45.5 12.4 45.5 12.4 45.5 12.4 C 45.5 12.4 45.5 12.5 45.4 12.7 C 45.4 12.8 45.4 12.9 45.4 13 C 45.4 13.1 45.4 13.2 45.4 13.2 C 45.4 13.2 45.4 13.3 45.4 13.3 C 45.3 13.3 45.3 13.4 45.3 13.4 C 45.3 13.4 45.2 13.4 45.2 13.4 C 45.2 13.4 45.1 13.4 45.1 13.3 C 45 13.3 45 13.3 45 13.2 C 45 13.2 45 13.1 45 13 C 45.1 12.9 45.1 12.8 45.1 12.7 C 44.8 12.9 44.5 13.1 44.2 13.1 C 44 13.1 43.9 13 43.8 12.9 C 43.7 12.8 43.6 12.7 43.6 12.5 C 43.6 12.2 43.7 11.9 43.9 11.7 C 43.9 11.7 43.9 11.7 43.9 11.7 C 44.1 11.4 44.3 11.2 44.5 11.1 C 44.8 10.9 45 10.8 45.3 10.8 C 45.4 10.8 45.5 10.9 45.6 10.9 C 45.6 10.9 45.7 11 45.7 11.1 C 45.7 11.1 45.6 11.2 45.6 11.3 C 45.5 11.3 45.5 11.4 45.4 11.4 C 45.4 11.4 45.4 11.4 45.4 11.4 C 45.4 11.3 45.3 11.3 45.3 11.3 C 45.3 11.2 45.3 11.2 45.3 11.2 C 45.2 11.2 45.2 11.2 45.2 11.2 C 45 11.2 44.8 11.2 44.6 11.4 C 44.5 11.5 44.3 11.7 44.2 11.9 C 44.1 12.1 44 12.3 44 12.5 C 44 12.7 44.1 12.8 44.3 12.8 C 44.3 12.8 44.4 12.7 44.6 12.7 C 44.7 12.7 44.8 12.6 44.9 12.5 C 45.1 12.4 45.1 12.3 45.2 12.2 C 45.2 12.2 45.2 12.1 45.2 12 C 45.2 11.9 45.3 11.9 45.3 11.9 C 45.3 11.8 45.4 11.8 45.4 11.8 C 45.6 11.8 45.6 11.9 45.6 12 C 45.6 12 45.6 12.1 45.6 12.1 C 45.6 12.1 45.6 12.1 45.6 12.1 Z M 46.8 13.2 C 46.7 13.2 46.6 13.1 46.4 13.1 C 46.3 13 46.2 12.9 46.1 12.7 C 46 12.6 46 12.4 46 12.2 C 46 12.1 46 12 46 11.9 C 46 11.9 46.1 11.6 46.1 11.6 C 46.1 11.5 46.1 11.5 46.1 11.5 C 46.1 11.4 46.1 11.3 46.1 11.3 C 46.1 11.2 46.2 11.1 46.2 11 C 46.2 11 46.3 10.9 46.4 10.9 C 46.4 10.9 46.4 11 46.5 11 C 46.5 11.1 46.5 11.1 46.5 11.2 C 46.5 11.2 46.5 11.3 46.5 11.5 C 46.4 11.5 46.4 11.6 46.4 11.8 C 46.4 12 46.4 12.1 46.4 12.2 C 46.4 12.5 46.4 12.6 46.5 12.7 C 46.6 12.8 46.7 12.9 46.8 12.9 C 47 12.9 47.2 12.8 47.3 12.7 C 47.4 12.6 47.5 12.4 47.5 12.2 C 47.5 12.1 47.5 12.1 47.5 12 C 47.5 11.9 47.5 11.9 47.5 11.8 C 47.6 11.4 47.6 11.2 47.6 11.1 C 47.7 11 47.7 11 47.8 11 C 47.9 11 48 11.1 48 11.2 C 48 11.3 48 11.4 47.9 11.6 C 47.9 11.7 47.9 11.9 47.9 12 C 47.9 12.3 47.8 12.5 47.8 12.6 C 47.7 12.8 47.6 12.9 47.4 13 C 47.2 13.1 47 13.2 46.8 13.2 Z M 48.7 12.6 C 48.6 12.6 48.6 12.6 48.6 12.6 C 48.6 12.6 48.5 12.7 48.4 12.9 C 48.3 13 48.3 13.1 48.3 13.1 C 48.2 13.1 48.2 13.1 48.2 13.1 C 48.1 13.1 48.1 13.1 48 13.1 C 48 13 48 13 48 13 C 48 12.9 48.1 12.7 48.3 12.3 C 48.5 12.1 48.6 11.9 48.7 11.7 C 48.9 11.3 49.1 11.1 49.1 11 C 49.2 11 49.2 10.9 49.3 10.9 C 49.3 10.9 49.4 10.9 49.4 11 C 49.5 11 49.5 11 49.5 11.1 C 49.5 11.1 49.5 11.2 49.5 11.2 C 49.6 11.7 49.8 12.1 49.9 12.3 C 50 12.6 50.1 12.7 50.2 12.8 C 50.2 12.9 50.3 12.9 50.3 12.9 C 50.3 12.9 50.3 13 50.3 13 C 50.3 13.1 50.3 13.1 50.2 13.1 C 50.2 13.2 50.1 13.2 50.1 13.2 C 50 13.2 49.9 13.1 49.9 13.1 C 49.8 13 49.7 12.9 49.6 12.7 C 49.6 12.6 49.5 12.5 49.5 12.5 C 49.5 12.5 49.5 12.4 49.5 12.4 C 49.5 12.4 49.4 12.5 49.2 12.5 C 49 12.5 48.9 12.6 48.7 12.6 C 48.7 12.6 48.7 12.6 48.7 12.6 C 48.7 12.6 48.7 12.6 48.7 12.6 Z M 49.3 12.2 C 49.3 12.2 49.4 12.2 49.4 12.2 C 49.4 12.1 49.3 11.9 49.2 11.5 C 49.2 11.5 49.2 11.5 49.2 11.5 C 49.2 11.5 48.8 12.3 48.8 12.3 C 48.8 12.3 48.9 12.2 49 12.2 C 49 12.2 49.1 12.2 49.3 12.2 C 49.3 12.2 49.3 12.2 49.3 12.2 Z M 51.9 13 C 51.9 13 51.8 13 51.8 13 C 51.7 13 51.7 13 51.6 13 C 51.4 13 51.1 13 50.9 13.1 C 50.7 13.1 50.7 13.2 50.6 13.2 C 50.6 13.2 50.5 13.1 50.5 13.1 C 50.5 13 50.4 13 50.4 13 C 50.4 12.9 50.5 12.9 50.5 12.8 C 50.5 12.7 50.5 12.6 50.5 12.5 C 50.5 12.5 50.7 11.3 50.7 11.3 C 50.7 11.2 50.7 11.1 50.7 11.1 C 50.7 11 50.7 11 50.7 11 C 50.8 11 50.8 10.9 50.9 10.9 C 50.9 10.9 51 11 51 11 C 51 11 51.1 11.1 51.1 11.1 C 51.1 11.1 51.1 11.2 51 11.3 C 51 11.4 51 11.7 50.9 12.1 C 50.9 12.5 50.9 12.7 50.9 12.7 C 50.9 12.7 50.9 12.8 50.9 12.8 C 50.9 12.8 51 12.7 51.2 12.7 C 51.3 12.7 51.3 12.7 51.4 12.7 C 51.6 12.7 51.8 12.7 51.9 12.6 C 51.9 12.6 51.9 12.6 52 12.6 C 52 12.6 52.1 12.6 52.1 12.7 C 52.1 12.7 52.1 12.7 52.1 12.8 C 52.1 12.9 52.1 12.9 52.1 12.9 C 52 13 51.9 13 51.9 13 Z M 52.4 12.8 C 52.4 12.8 52.4 12.7 52.4 12.6 C 52.4 12.2 52.4 11.9 52.5 11.5 C 52.5 11.4 52.5 11.4 52.5 11.3 C 52.5 11.3 52.5 11.3 52.5 11.3 C 52.4 11.3 52.4 11.2 52.4 11.2 C 52.4 11.1 52.4 11.1 52.4 11 C 52.5 11 52.5 11 52.6 11 C 52.6 11 52.8 11 52.8 11 C 52.8 11 53 11 53.1 11 C 53.3 10.9 53.4 10.9 53.5 10.9 C 53.7 10.9 53.9 11 54.1 11.2 C 54.3 11.3 54.4 11.5 54.4 11.8 C 54.4 12.1 54.2 12.3 54 12.5 C 53.7 12.8 53.4 12.9 53 13 C 52.9 13 52.9 13 52.8 13.1 C 52.8 13.1 52.7 13.1 52.7 13.1 C 52.6 13.2 52.6 13.2 52.5 13.2 C 52.4 13.2 52.4 13.2 52.4 13.1 C 52.3 13.1 52.3 13 52.3 13 C 52.3 13 52.3 13 52.3 12.9 C 52.3 12.9 52.4 12.8 52.4 12.8 Z M 52.7 12.7 C 52.7 12.7 52.7 12.7 52.7 12.8 C 52.8 12.8 52.9 12.7 53.2 12.7 C 53.4 12.6 53.6 12.5 53.8 12.3 C 53.9 12.1 54 12 54 11.8 C 54 11.6 54 11.5 53.8 11.4 C 53.7 11.3 53.6 11.2 53.4 11.2 C 53.3 11.2 53.1 11.2 52.9 11.3 C 52.9 11.3 52.9 11.3 52.9 11.3 C 52.8 11.9 52.7 12.4 52.7 12.7 C 52.7 12.7 52.7 12.7 52.7 12.7 Z M 55 12.6 C 54.9 12.6 54.9 12.6 54.9 12.6 C 54.9 12.6 54.8 12.7 54.7 12.9 C 54.6 13 54.6 13.1 54.5 13.1 C 54.5 13.1 54.5 13.1 54.5 13.1 C 54.4 13.1 54.4 13.1 54.3 13.1 C 54.3 13 54.3 13 54.3 13 C 54.3 12.9 54.4 12.7 54.6 12.3 C 54.8 12.1 54.9 11.9 55 11.7 C 55.2 11.3 55.3 11.1 55.4 11 C 55.4 11 55.5 10.9 55.5 10.9 C 55.6 10.9 55.7 10.9 55.7 11 C 55.7 11 55.8 11 55.8 11.1 C 55.8 11.1 55.7 11.2 55.7 11.2 C 55.9 11.7 56.1 12.1 56.2 12.3 C 56.3 12.6 56.4 12.7 56.5 12.8 C 56.5 12.9 56.5 12.9 56.6 12.9 C 56.6 12.9 56.6 13 56.6 13 C 56.6 13.1 56.6 13.1 56.5 13.1 C 56.5 13.2 56.4 13.2 56.4 13.2 C 56.3 13.2 56.2 13.1 56.2 13.1 C 56.1 13 56 12.9 55.9 12.7 C 55.9 12.6 55.8 12.5 55.8 12.5 C 55.8 12.5 55.8 12.4 55.8 12.4 C 55.8 12.4 55.7 12.5 55.5 12.5 C 55.3 12.5 55.1 12.6 55 12.6 C 55 12.6 55 12.6 55 12.6 C 55 12.6 55 12.6 55 12.6 Z M 55.6 12.2 C 55.6 12.2 55.7 12.2 55.7 12.2 C 55.7 12.1 55.6 11.9 55.5 11.5 C 55.5 11.5 55.5 11.5 55.5 11.5 C 55.5 11.5 55.1 12.3 55.1 12.3 C 55.1 12.3 55.2 12.2 55.3 12.2 C 55.3 12.2 55.4 12.2 55.6 12.2 C 55.6 12.2 55.6 12.2 55.6 12.2 Z M 56.8 12.8 C 56.8 12.8 56.8 12.7 56.9 12.6 C 56.9 12.2 56.9 11.9 57 11.5 C 57 11.4 57 11.4 57 11.3 C 57 11.3 57 11.3 57 11.3 C 56.9 11.3 56.8 11.2 56.8 11.2 C 56.8 11.1 56.8 11.1 56.9 11 C 56.9 11 57 11 57 11 C 57 11 57.2 11 57.2 11 C 57.3 11 57.4 11 57.6 11 C 57.7 10.9 57.8 10.9 57.9 10.9 C 58.2 10.9 58.4 11 58.6 11.2 C 58.7 11.3 58.8 11.5 58.8 11.8 C 58.8 12.1 58.7 12.3 58.4 12.5 C 58.2 12.8 57.9 12.9 57.5 13 C 57.4 13 57.3 13 57.3 13.1 C 57.3 13.1 57.2 13.1 57.2 13.1 C 57.1 13.2 57 13.2 57 13.2 C 56.9 13.2 56.9 13.2 56.8 13.1 C 56.8 13.1 56.8 13 56.8 13 C 56.8 13 56.8 13 56.8 12.9 C 56.8 12.9 56.8 12.8 56.8 12.8 Z M 57.2 12.7 C 57.2 12.7 57.2 12.7 57.2 12.8 C 57.3 12.8 57.4 12.7 57.7 12.7 C 57.9 12.6 58.1 12.5 58.2 12.3 C 58.4 12.1 58.5 12 58.5 11.8 C 58.5 11.6 58.4 11.5 58.3 11.4 C 58.2 11.3 58 11.2 57.9 11.2 C 57.7 11.2 57.6 11.2 57.4 11.3 C 57.4 11.3 57.4 11.3 57.4 11.3 C 57.3 11.9 57.2 12.4 57.2 12.7 C 57.2 12.7 57.2 12.7 57.2 12.7 Z M 60.7 11.3 C 60.7 11.3 60.3 11.3 60.3 11.3 C 60.1 11.3 60 11.3 59.9 11.3 C 59.8 11.3 59.7 11.4 59.7 11.4 C 59.7 11.4 59.7 11.4 59.7 11.5 C 59.7 11.5 59.7 11.6 59.6 11.7 C 59.6 11.8 59.6 11.9 59.6 11.9 C 59.6 11.9 59.7 11.9 59.8 11.9 C 60 11.9 60 11.9 60.1 11.9 C 60.2 11.9 60.3 11.8 60.4 11.8 C 60.6 11.8 60.7 11.9 60.7 12 C 60.7 12 60.6 12.1 60.6 12.1 C 60.5 12.1 60.5 12.2 60.4 12.2 C 60.3 12.2 60.3 12.2 60.2 12.2 C 60.2 12.2 60.1 12.2 60.1 12.2 C 59.8 12.2 59.6 12.3 59.6 12.3 C 59.6 12.3 59.6 12.3 59.6 12.3 C 59.6 12.3 59.6 12.3 59.5 12.3 C 59.5 12.3 59.5 12.4 59.5 12.5 C 59.5 12.7 59.5 12.8 59.5 12.8 C 59.5 12.8 59.5 12.9 59.5 12.9 C 59.6 12.9 59.7 12.8 59.9 12.8 C 60.1 12.8 60.2 12.8 60.3 12.8 C 60.4 12.7 60.5 12.7 60.5 12.7 C 60.7 12.7 60.7 12.8 60.7 12.9 C 60.7 12.9 60.7 13 60.7 13 C 60.6 13 60.4 13.1 60.3 13.1 C 60.1 13.1 60 13.1 59.8 13.1 C 59.6 13.2 59.5 13.2 59.3 13.2 C 59.2 13.2 59.2 13.2 59.1 13.1 C 59.1 13.1 59.1 13 59.1 13 C 59.1 13 59.1 12.9 59.1 12.9 C 59.1 12.9 59.1 12.9 59.1 12.8 C 59.1 12.7 59.2 12.5 59.2 12 C 59.3 11.6 59.3 11.4 59.3 11.3 C 59.3 11.3 59.3 11.3 59.3 11.3 C 59.3 11.3 59.3 11.3 59.3 11.3 C 59.3 11.2 59.3 11.2 59.3 11.2 C 59.3 11.2 59.3 11.1 59.3 11.1 C 59.3 11.1 59.3 11.1 59.3 11.1 C 59.4 11.1 59.4 11 59.4 11 C 59.5 11 59.5 11 59.6 11.1 C 59.6 11.1 59.9 11 60.4 11 C 60.5 10.9 60.6 10.9 60.6 10.9 C 60.6 10.9 60.6 10.9 60.6 10.9 C 60.8 10.9 60.9 11 60.9 11.1 C 60.9 11.1 60.9 11.2 60.8 11.2 C 60.8 11.2 60.8 11.2 60.7 11.3 Z M 62.3 12.8 C 62.3 12.8 62.3 12.7 62.3 12.6 C 62.3 12.2 62.4 11.9 62.4 11.5 C 62.4 11.4 62.4 11.4 62.4 11.3 C 62.4 11.3 62.4 11.3 62.4 11.3 C 62.3 11.3 62.3 11.2 62.3 11.2 C 62.3 11.1 62.3 11.1 62.3 11 C 62.4 11 62.4 11 62.5 11 C 62.5 11 62.7 11 62.7 11 C 62.8 11 62.9 11 63 11 C 63.2 10.9 63.3 10.9 63.4 10.9 C 63.6 10.9 63.9 11 64 11.2 C 64.2 11.3 64.3 11.5 64.3 11.8 C 64.3 12.1 64.1 12.3 63.9 12.5 C 63.6 12.8 63.3 12.9 62.9 13 C 62.8 13 62.8 13 62.7 13.1 C 62.7 13.1 62.6 13.1 62.6 13.1 C 62.5 13.2 62.5 13.2 62.4 13.2 C 62.3 13.2 62.3 13.2 62.3 13.1 C 62.2 13.1 62.2 13 62.2 13 C 62.2 13 62.2 13 62.2 12.9 C 62.2 12.9 62.3 12.8 62.3 12.8 Z M 62.6 12.7 C 62.6 12.7 62.6 12.7 62.7 12.8 C 62.7 12.8 62.9 12.7 63.1 12.7 C 63.3 12.6 63.5 12.5 63.7 12.3 C 63.8 12.1 63.9 12 63.9 11.8 C 63.9 11.6 63.9 11.5 63.8 11.4 C 63.6 11.3 63.5 11.2 63.3 11.2 C 63.2 11.2 63 11.2 62.9 11.3 C 62.8 11.3 62.8 11.3 62.8 11.3 C 62.7 11.9 62.6 12.4 62.6 12.7 C 62.6 12.7 62.6 12.7 62.6 12.7 Z M 66.2 11.3 C 66.2 11.3 65.7 11.3 65.7 11.3 C 65.6 11.3 65.4 11.3 65.3 11.3 C 65.2 11.3 65.1 11.4 65.1 11.4 C 65.1 11.4 65.1 11.4 65.1 11.5 C 65.1 11.5 65.1 11.6 65.1 11.7 C 65 11.8 65 11.9 65 11.9 C 65.1 11.9 65.2 11.9 65.3 11.9 C 65.4 11.9 65.5 11.9 65.5 11.9 C 65.7 11.9 65.8 11.8 65.9 11.8 C 66 11.8 66.1 11.9 66.1 12 C 66.1 12 66.1 12.1 66 12.1 C 66 12.1 65.9 12.2 65.8 12.2 C 65.8 12.2 65.7 12.2 65.6 12.2 C 65.6 12.2 65.6 12.2 65.5 12.2 C 65.2 12.2 65.1 12.3 65 12.3 C 65 12.3 65 12.3 65 12.3 C 65 12.3 65 12.3 65 12.3 C 65 12.3 65 12.4 64.9 12.5 C 64.9 12.7 64.9 12.8 64.9 12.8 C 64.9 12.8 64.9 12.9 65 12.9 C 65 12.9 65.1 12.8 65.3 12.8 C 65.5 12.8 65.7 12.8 65.7 12.8 C 65.9 12.7 65.9 12.7 66 12.7 C 66.1 12.7 66.2 12.8 66.2 12.9 C 66.2 12.9 66.2 13 66.1 13 C 66 13 65.9 13.1 65.7 13.1 C 65.6 13.1 65.4 13.1 65.2 13.1 C 65.1 13.2 64.9 13.2 64.7 13.2 C 64.7 13.2 64.6 13.2 64.6 13.1 C 64.5 13.1 64.5 13 64.5 13 C 64.5 13 64.5 12.9 64.5 12.9 C 64.5 12.9 64.5 12.9 64.5 12.8 C 64.6 12.7 64.6 12.5 64.7 12 C 64.7 11.6 64.8 11.4 64.8 11.3 C 64.8 11.3 64.8 11.3 64.8 11.3 C 64.7 11.3 64.7 11.3 64.7 11.3 C 64.7 11.2 64.7 11.2 64.7 11.2 C 64.7 11.2 64.7 11.1 64.7 11.1 C 64.7 11.1 64.7 11.1 64.8 11.1 C 64.8 11.1 64.8 11 64.9 11 C 64.9 11 65 11 65 11.1 C 65.1 11.1 65.4 11 65.8 11 C 66 10.9 66 10.9 66 10.9 C 66 10.9 66.1 10.9 66.1 10.9 C 66.2 10.9 66.3 11 66.3 11.1 C 66.3 11.1 66.3 11.2 66.3 11.2 C 66.2 11.2 66.2 11.2 66.2 11.3 Z " stroke="none" fill="#000"/>  </g>  <g id="Polygon14643">    <path d="M 8.4 8.4 C 8.3 8.4 8.2 8.4 8.2 8.4 C 8.2 8.6 8.1 8.8 8.1 9 C 8.1 9 8.1 9.1 8.1 9.1 C 8.1 9.1 8 9.2 8 9.2 C 7.8 9.2 7.8 9.1 7.8 9 C 7.8 8.9 7.8 8.6 7.9 8.2 C 7.9 7.8 7.9 7.6 7.9 7.5 C 7.9 7.4 7.9 7.4 7.9 7.4 C 7.9 7.4 7.8 7.3 7.8 7.2 C 7.8 7.1 8 7.1 8.2 7 C 8.5 6.9 8.7 6.9 8.9 6.9 C 9.1 6.9 9.3 7 9.4 7 C 9.6 7.1 9.6 7.3 9.6 7.4 C 9.6 7.6 9.5 7.8 9.3 8 C 9 8.2 8.7 8.3 8.4 8.4 C 8.4 8.4 8.4 8.4 8.4 8.4 Z M 8.9 7.2 C 8.7 7.2 8.5 7.2 8.3 7.3 C 8.3 7.3 8.2 8.1 8.2 8.1 C 8.5 8 8.8 8 9 7.8 C 9.2 7.7 9.3 7.6 9.3 7.4 C 9.3 7.3 9.2 7.2 8.9 7.2 C 8.9 7.2 8.9 7.2 8.9 7.2 Z M 10.1 8.6 C 10.1 8.6 10.1 8.6 10.1 8.6 C 10 8.6 10 8.7 9.9 8.9 C 9.8 9 9.8 9.1 9.7 9.1 C 9.7 9.1 9.7 9.1 9.6 9.1 C 9.6 9.1 9.6 9.1 9.5 9.1 C 9.5 9 9.4 9 9.4 9 C 9.4 8.9 9.6 8.7 9.8 8.3 C 9.9 8.1 10.1 7.9 10.2 7.7 C 10.4 7.3 10.5 7.1 10.6 7 C 10.6 7 10.7 6.9 10.7 6.9 C 10.8 6.9 10.9 6.9 10.9 7 C 10.9 7 10.9 7 10.9 7.1 C 10.9 7.1 10.9 7.2 10.9 7.2 C 11.1 7.7 11.2 8.1 11.3 8.3 C 11.4 8.6 11.5 8.7 11.6 8.8 C 11.7 8.9 11.7 8.9 11.7 8.9 C 11.8 8.9 11.8 9 11.8 9 C 11.8 9.1 11.7 9.1 11.7 9.1 C 11.7 9.2 11.6 9.2 11.6 9.2 C 11.5 9.2 11.4 9.1 11.3 9.1 C 11.3 9 11.2 8.9 11.1 8.7 C 11 8.6 11 8.5 11 8.5 C 11 8.5 11 8.4 11 8.4 C 11 8.4 10.8 8.5 10.7 8.5 C 10.5 8.5 10.3 8.6 10.2 8.6 C 10.2 8.6 10.2 8.6 10.1 8.6 C 10.1 8.6 10.1 8.6 10.1 8.6 Z M 10.8 8.2 C 10.8 8.2 10.9 8.2 10.9 8.2 C 10.9 8.1 10.8 7.9 10.7 7.5 C 10.7 7.5 10.7 7.5 10.7 7.5 C 10.7 7.5 10.3 8.3 10.3 8.3 C 10.3 8.3 10.4 8.2 10.4 8.2 C 10.5 8.2 10.6 8.2 10.8 8.2 C 10.8 8.2 10.8 8.2 10.8 8.2 Z M 12.1 7.3 C 12.1 7.3 12.12 7.28 12.1 7.3 C 12.1 7.2 12.1 7.2 12.1 7.2 C 12.1 7.1 12.1 7.1 12.1 7 C 12.2 7 12.2 7 12.3 7 C 12.3 7 12.3 7 12.3 7 C 12.4 7 12.4 7 12.4 7 C 12.7 7 12.9 6.9 13 6.9 C 13.2 6.9 13.4 7 13.5 7.1 C 13.6 7.2 13.7 7.3 13.7 7.5 C 13.7 7.6 13.6 7.8 13.5 7.9 C 13.4 8 13.2 8.1 13 8.2 C 13.4 8.5 13.6 8.7 13.8 8.8 C 13.9 8.8 13.9 8.9 13.9 8.9 C 13.9 9 13.9 9 13.8 9 C 13.8 9.1 13.7 9.1 13.7 9.1 C 13.7 9.1 13.6 9.1 13.5 9 C 13.4 9 13.3 8.9 13.2 8.8 C 13.1 8.7 13 8.6 13 8.6 C 12.8 8.5 12.7 8.4 12.6 8.3 C 12.5 8.3 12.4 8.3 12.4 8.1 C 12.4 8.1 12.4 8.1 12.5 8 C 12.5 8 12.6 8 12.6 8 C 12.7 8 12.7 8 12.7 8 C 12.7 8 12.7 8 12.7 8 C 12.8 8 12.9 7.9 13.1 7.8 C 13.3 7.7 13.3 7.6 13.3 7.5 C 13.3 7.4 13.3 7.3 13.2 7.3 C 13.2 7.2 13.1 7.2 13 7.2 C 12.8 7.2 12.7 7.2 12.7 7.2 C 12.6 7.3 12.5 7.3 12.5 7.3 C 12.5 7.3 12.5 7.3 12.5 7.3 C 12.5 7.3 12.5 7.4 12.4 7.6 C 12.4 7.8 12.4 8 12.3 8.2 C 12.3 8.4 12.3 8.6 12.3 8.7 C 12.3 8.7 12.3 8.8 12.3 8.8 C 12.3 8.9 12.3 8.9 12.3 9 C 12.3 9 12.3 9 12.3 9.1 C 12.2 9.1 12.2 9.1 12.1 9.1 C 12 9.1 11.9 9.1 11.9 8.9 C 11.9 8.7 11.9 8.5 12 8.2 C 12 8 12.1 7.7 12.1 7.5 C 12.1 7.5 12.1 7.4 12.1 7.4 C 12.11 7.41 12.1 7.3 12.1 7.3 Z M 14.5 8.6 C 14.5 8.6 14.5 8.6 14.4 8.6 C 14.4 8.6 14.4 8.7 14.3 8.9 C 14.2 9 14.1 9.1 14.1 9.1 C 14.1 9.1 14 9.1 14 9.1 C 14 9.1 13.9 9.1 13.9 9.1 C 13.8 9 13.8 9 13.8 9 C 13.8 8.9 13.9 8.7 14.2 8.3 C 14.3 8.1 14.4 7.9 14.6 7.7 C 14.8 7.3 14.9 7.1 15 7 C 15 7 15.1 6.9 15.1 6.9 C 15.2 6.9 15.3 6.9 15.3 7 C 15.3 7 15.3 7 15.3 7.1 C 15.3 7.1 15.3 7.2 15.3 7.2 C 15.5 7.7 15.6 8.1 15.7 8.3 C 15.8 8.6 15.9 8.7 16 8.8 C 16.1 8.9 16.1 8.9 16.1 8.9 C 16.1 8.9 16.1 9 16.1 9 C 16.1 9.1 16.1 9.1 16.1 9.1 C 16 9.2 16 9.2 15.9 9.2 C 15.9 9.2 15.8 9.1 15.7 9.1 C 15.6 9 15.6 8.9 15.5 8.7 C 15.4 8.6 15.4 8.5 15.4 8.5 C 15.4 8.5 15.4 8.4 15.4 8.4 C 15.3 8.4 15.2 8.5 15 8.5 C 14.9 8.5 14.7 8.6 14.6 8.6 C 14.6 8.6 14.5 8.6 14.5 8.6 C 14.5 8.6 14.5 8.6 14.5 8.6 Z M 15.2 8.2 C 15.2 8.2 15.2 8.2 15.3 8.2 C 15.3 8.1 15.2 7.9 15.1 7.5 C 15.1 7.5 15.1 7.5 15.1 7.5 C 15.1 7.5 14.6 8.3 14.6 8.3 C 14.7 8.3 14.8 8.2 14.8 8.2 C 14.9 8.2 15 8.2 15.2 8.2 C 15.2 8.2 15.2 8.2 15.2 8.2 Z M 18.1 8.4 C 18 8.4 17.9 8.4 17.9 8.4 C 17.9 8.6 17.9 8.8 17.9 9 C 17.9 9 17.9 9.1 17.8 9.1 C 17.8 9.1 17.8 9.2 17.7 9.2 C 17.6 9.2 17.5 9.1 17.5 9 C 17.5 8.9 17.6 8.6 17.6 8.2 C 17.7 7.8 17.7 7.6 17.7 7.5 C 17.7 7.4 17.7 7.4 17.7 7.4 C 17.6 7.4 17.6 7.3 17.6 7.2 C 17.6 7.1 17.7 7.1 18 7 C 18.2 6.9 18.5 6.9 18.7 6.9 C 18.9 6.9 19 7 19.2 7 C 19.3 7.1 19.4 7.3 19.4 7.4 C 19.4 7.6 19.3 7.8 19 8 C 18.8 8.2 18.5 8.3 18.1 8.4 C 18.1 8.4 18.1 8.4 18.1 8.4 Z M 18.6 7.2 C 18.5 7.2 18.3 7.2 18.1 7.3 C 18.1 7.3 18 8.1 18 8.1 C 18.3 8 18.5 8 18.7 7.8 C 18.9 7.7 19 7.6 19 7.4 C 19 7.3 18.9 7.2 18.6 7.2 C 18.6 7.2 18.6 7.2 18.6 7.2 Z M 20.1 9.2 C 19.9 9.2 19.8 9.1 19.6 8.9 C 19.5 8.8 19.5 8.6 19.5 8.4 C 19.5 8.2 19.5 8 19.6 7.8 C 19.8 7.5 19.9 7.3 20.1 7.2 C 20.3 7 20.5 6.9 20.7 6.9 C 20.9 6.9 21 7 21.1 7 C 21.2 7 21.3 7.1 21.4 7.2 C 21.5 7.2 21.6 7.3 21.6 7.4 C 21.6 7.5 21.6 7.6 21.6 7.7 C 21.6 7.9 21.6 8 21.5 8.2 C 21.4 8.4 21.3 8.5 21.2 8.7 C 21 8.8 20.9 9 20.7 9 C 20.5 9.1 20.3 9.2 20.1 9.2 Z M 19.8 8.4 C 19.8 8.6 19.9 8.7 19.9 8.7 C 20 8.8 20.1 8.9 20.2 8.9 C 20.4 8.9 20.7 8.7 20.9 8.5 C 21.1 8.2 21.3 8 21.3 7.7 C 21.3 7.6 21.2 7.5 21.2 7.4 C 21.2 7.4 21.1 7.3 21 7.3 C 20.9 7.2 20.8 7.2 20.7 7.2 C 20.5 7.2 20.3 7.4 20.1 7.6 C 19.9 7.9 19.8 8.2 19.8 8.4 Z M 22.7 9.2 C 22.6 9.2 22.5 9.1 22.3 9.1 C 22.2 9 22.1 8.9 22 8.7 C 21.9 8.6 21.9 8.4 21.9 8.2 C 21.9 8.1 21.9 8 21.9 7.9 C 21.9 7.9 22 7.6 22 7.6 C 22 7.5 22 7.5 22 7.5 C 22 7.4 22 7.3 22 7.3 C 22 7.2 22.1 7.1 22.1 7 C 22.1 7 22.2 6.9 22.3 6.9 C 22.3 6.9 22.3 7 22.4 7 C 22.4 7.1 22.4 7.1 22.4 7.2 C 22.4 7.2 22.4 7.3 22.4 7.5 C 22.3 7.5 22.3 7.6 22.3 7.8 C 22.3 8 22.3 8.1 22.3 8.2 C 22.3 8.5 22.3 8.6 22.4 8.7 C 22.5 8.8 22.6 8.9 22.7 8.9 C 22.9 8.9 23.1 8.8 23.2 8.7 C 23.3 8.6 23.4 8.4 23.4 8.2 C 23.4 8.1 23.4 8.1 23.4 8 C 23.4 7.9 23.4 7.9 23.4 7.8 C 23.5 7.4 23.5 7.2 23.5 7.1 C 23.6 7 23.6 7 23.7 7 C 23.8 7 23.9 7.1 23.9 7.2 C 23.9 7.3 23.9 7.4 23.8 7.6 C 23.8 7.7 23.8 7.9 23.8 8 C 23.8 8.3 23.7 8.5 23.7 8.6 C 23.6 8.8 23.5 8.9 23.3 9 C 23.1 9.1 22.9 9.2 22.7 9.2 Z M 25.4 8.7 C 25.5 8.6 25.6 8.6 25.6 8.6 C 25.7 8.6 25.7 8.6 25.7 8.7 C 25.7 8.8 25.6 8.9 25.4 9 C 25.2 9.1 25 9.2 24.8 9.2 C 24.6 9.2 24.4 9.1 24.3 9 C 24.1 8.9 24.1 8.7 24.1 8.5 C 24.1 8.3 24.1 8 24.3 7.8 C 24.4 7.5 24.6 7.3 24.9 7.1 C 25.1 6.9 25.3 6.8 25.5 6.8 C 25.7 6.8 25.8 6.9 25.9 6.9 C 25.9 7 26 7.1 26 7.2 C 26 7.3 26 7.4 26 7.5 C 25.9 7.5 25.9 7.6 25.8 7.6 C 25.8 7.6 25.7 7.6 25.7 7.6 C 25.7 7.6 25.6 7.6 25.6 7.6 C 25.6 7.6 25.6 7.5 25.6 7.5 C 25.6 7.5 25.6 7.4 25.6 7.4 C 25.6 7.3 25.6 7.3 25.6 7.2 C 25.6 7.1 25.6 7.1 25.5 7.1 C 25.4 7.1 25.2 7.2 25.1 7.3 C 24.9 7.5 24.7 7.7 24.6 7.9 C 24.5 8.1 24.4 8.3 24.4 8.5 C 24.4 8.6 24.5 8.7 24.5 8.8 C 24.6 8.9 24.7 8.9 24.8 8.9 C 24.9 8.9 25 8.9 25.1 8.8 C 25.2 8.8 25.3 8.7 25.4 8.7 C 25.4 8.7 25.4 8.7 25.4 8.7 Z M 26.7 9.2 C 26.6 9.2 26.4 9.1 26.3 8.9 C 26.2 8.8 26.1 8.6 26.1 8.4 C 26.1 8.2 26.2 8 26.3 7.8 C 26.4 7.5 26.6 7.3 26.7 7.2 C 26.9 7 27.1 6.9 27.4 6.9 C 27.5 6.9 27.6 7 27.8 7 C 27.9 7 28 7.1 28 7.2 C 28.1 7.2 28.2 7.3 28.2 7.4 C 28.3 7.5 28.3 7.6 28.3 7.7 C 28.3 7.9 28.2 8 28.2 8.2 C 28.1 8.4 28 8.5 27.8 8.7 C 27.7 8.8 27.5 9 27.3 9 C 27.2 9.1 27 9.2 26.7 9.2 Z M 26.5 8.4 C 26.5 8.6 26.5 8.7 26.6 8.7 C 26.6 8.8 26.7 8.9 26.8 8.9 C 27.1 8.9 27.3 8.7 27.6 8.5 C 27.8 8.2 27.9 8 27.9 7.7 C 27.9 7.6 27.9 7.5 27.8 7.4 C 27.8 7.4 27.7 7.3 27.6 7.3 C 27.6 7.2 27.5 7.2 27.4 7.2 C 27.2 7.2 27 7.4 26.8 7.6 C 26.6 7.9 26.5 8.2 26.5 8.4 Z M 30.1 7.2 C 30.1 7.4 30 7.5 29.8 7.5 C 29.8 7.4 29.8 7.3 29.8 7.3 C 29.7 7.3 29.6 7.2 29.5 7.2 C 29.4 7.2 29.2 7.3 29.1 7.4 C 28.9 7.4 28.9 7.5 28.9 7.6 C 28.9 7.7 28.9 7.7 29 7.8 C 29 7.8 29.1 7.9 29.4 7.9 C 29.6 8 29.8 8.1 29.9 8.2 C 30 8.2 30.1 8.3 30.1 8.5 C 30.1 8.6 29.9 8.8 29.6 9 C 29.3 9.1 29 9.2 28.7 9.2 C 28.6 9.2 28.5 9.2 28.5 9.2 C 28.4 9.1 28.4 9.1 28.4 9 C 28.4 8.9 28.4 8.9 28.4 8.9 C 28.5 8.8 28.5 8.8 28.5 8.8 C 28.6 8.8 28.6 8.8 28.6 8.8 C 28.7 8.9 28.8 8.9 28.9 8.9 C 29 8.9 29.2 8.8 29.4 8.7 C 29.6 8.7 29.7 8.6 29.7 8.5 C 29.7 8.5 29.7 8.4 29.6 8.4 C 29.6 8.4 29.5 8.3 29.3 8.3 C 29.1 8.2 29 8.1 28.8 8.1 C 28.7 8.1 28.7 8 28.6 7.9 C 28.5 7.9 28.5 7.8 28.5 7.7 C 28.5 7.5 28.6 7.3 28.8 7.2 C 29.1 7 29.3 6.9 29.6 6.9 C 29.8 6.9 29.9 7 30 7 C 30.1 7.1 30.1 7.2 30.1 7.2 C 30.1 7.2 30.1 7.2 30.1 7.2 Z M 30.3 9.3 C 30.3 9.3 30.3 9.3 30.3 9.3 C 30.4 9.3 30.4 9.2 30.5 9.2 C 30.6 9.1 30.7 9.1 30.7 9 C 30.7 9 30.7 8.9 30.7 8.9 C 30.7 8.9 30.7 8.8 30.7 8.8 C 30.7 8.7 30.7 8.7 30.7 8.7 C 30.7 8.7 30.7 8.6 30.7 8.6 C 30.7 8.6 30.8 8.5 30.8 8.5 C 30.8 8.5 30.9 8.6 30.9 8.6 C 31 8.6 31 8.6 31 8.6 C 31 8.7 31 8.7 31 8.8 C 31.1 8.8 31.1 8.9 31.1 8.9 C 31.1 8.9 31 9 31 9.1 C 31 9.2 30.9 9.2 30.8 9.3 C 30.8 9.3 30.7 9.4 30.7 9.4 C 30.6 9.4 30.6 9.4 30.6 9.4 C 30.5 9.4 30.4 9.4 30.4 9.4 C 30.3 9.4 30.3 9.4 30.3 9.3 C 30.3 9.3 30.3 9.3 30.3 9.3 Z M 34.1 7.3 C 34.1 7.3 33.7 7.3 33.7 7.3 C 33.5 7.3 33.4 7.3 33.3 7.3 C 33.1 7.3 33.1 7.4 33.1 7.4 C 33.1 7.4 33.1 7.4 33.1 7.5 C 33 7.5 33 7.6 33 7.7 C 33 7.8 33 7.9 33 7.9 C 33 7.9 33.1 7.9 33.2 7.9 C 33.3 7.9 33.4 7.9 33.5 7.9 C 33.6 7.9 33.7 7.8 33.8 7.8 C 34 7.8 34 7.9 34 8 C 34 8 34 8.1 34 8.1 C 33.9 8.1 33.9 8.2 33.8 8.2 C 33.7 8.2 33.6 8.2 33.6 8.2 C 33.5 8.2 33.5 8.2 33.4 8.2 C 33.2 8.2 33 8.3 33 8.3 C 33 8.3 33 8.3 33 8.3 C 32.9 8.3 32.9 8.3 32.9 8.3 C 32.9 8.3 32.9 8.4 32.9 8.5 C 32.9 8.7 32.8 8.8 32.8 8.8 C 32.8 8.8 32.9 8.9 32.9 8.9 C 33 8.9 33.1 8.8 33.3 8.8 C 33.5 8.8 33.6 8.8 33.6 8.8 C 33.8 8.7 33.9 8.7 33.9 8.7 C 34 8.7 34.1 8.8 34.1 8.9 C 34.1 8.9 34.1 9 34.1 9 C 34 9 33.8 9.1 33.6 9.1 C 33.5 9.1 33.4 9.1 33.2 9.1 C 33 9.2 32.8 9.2 32.7 9.2 C 32.6 9.2 32.5 9.2 32.5 9.1 C 32.5 9.1 32.5 9 32.4 9 C 32.4 9 32.4 8.9 32.4 8.9 C 32.4 8.9 32.4 8.9 32.5 8.8 C 32.5 8.7 32.6 8.5 32.6 8 C 32.7 7.6 32.7 7.4 32.7 7.3 C 32.7 7.3 32.7 7.3 32.7 7.3 C 32.7 7.3 32.7 7.3 32.7 7.3 C 32.6 7.2 32.6 7.2 32.6 7.2 C 32.6 7.2 32.6 7.1 32.6 7.1 C 32.6 7.1 32.7 7.1 32.7 7.1 C 32.7 7.1 32.8 7 32.8 7 C 32.8 7 32.9 7 32.9 7.1 C 33 7.1 33.3 7 33.7 7 C 33.9 6.9 34 6.9 34 6.9 C 34 6.9 34 6.9 34 6.9 C 34.2 6.9 34.3 7 34.3 7.1 C 34.3 7.1 34.2 7.2 34.2 7.2 C 34.2 7.2 34.1 7.2 34.1 7.3 Z M 34.5 8.6 C 34.5 8.6 34.59 8.1 34.6 8.1 C 34.7 7.7 34.7 7.4 34.7 7.3 C 34.7 7.2 34.7 7.2 34.7 7.1 C 34.7 7.1 34.8 7.1 34.8 7.1 C 34.8 7 34.9 7 34.9 7 C 35 7 35 7 35 7 C 35.1 7.1 35.1 7.1 35.1 7.2 C 35.2 7.4 35.3 7.6 35.4 7.9 C 35.6 8.2 35.8 8.4 35.9 8.6 C 35.9 8.4 36 8.2 36 7.9 C 36.1 7.7 36.1 7.6 36.1 7.4 C 36.1 7.3 36.2 7.2 36.2 7.1 C 36.2 7 36.2 7 36.2 6.9 C 36.3 6.9 36.3 6.9 36.4 6.9 C 36.4 6.9 36.5 6.9 36.5 7 C 36.5 7 36.5 7.1 36.5 7.1 C 36.5 7.2 36.5 7.3 36.5 7.4 C 36.4 7.6 36.4 7.9 36.3 8.2 C 36.2 8.6 36.2 8.8 36.2 8.8 C 36.2 8.8 36.2 8.9 36.2 8.9 C 36.2 8.9 36.2 9 36.2 9 C 36.2 9 36.2 9.1 36.1 9.1 C 36.1 9.1 36 9.1 36 9.1 C 35.9 9.1 35.9 9.1 35.9 9.1 C 35.9 9.1 35.9 9.1 35.8 9 C 35.8 9 35.8 9 35.7 8.9 C 35.7 8.8 35.7 8.8 35.6 8.7 C 35.4 8.5 35.2 8.1 35 7.7 C 34.9 7.8 34.9 8.1 34.8 8.6 C 34.8 8.6 34.8 8.7 34.8 8.7 C 34.8 8.7 34.8 8.8 34.8 8.9 C 34.8 9 34.8 9.1 34.7 9.1 C 34.7 9.2 34.6 9.2 34.6 9.2 C 34.5 9.2 34.5 9.2 34.5 9.1 C 34.4 9.1 34.4 9 34.4 8.9 C 34.4 8.9 34.4 8.7 34.5 8.6 C 34.48 8.6 34.5 8.6 34.5 8.6 Z M 38.4 7.2 C 38.6 7.3 38.7 7.4 38.7 7.5 C 38.8 7.7 38.8 7.8 38.8 8 C 38.8 8.1 38.8 8.3 38.7 8.4 C 38.6 8.6 38.5 8.7 38.3 8.9 C 38.5 9.1 38.6 9.2 38.6 9.3 C 38.7 9.3 38.7 9.4 38.7 9.4 C 38.7 9.4 38.6 9.4 38.6 9.5 C 38.5 9.5 38.5 9.6 38.5 9.6 C 38.4 9.6 38.4 9.5 38.3 9.5 C 38.3 9.4 38.2 9.3 38.1 9.2 C 38 9.1 38 9 38 9 C 38 9 38 9 37.9 9 C 37.8 9.1 37.6 9.1 37.5 9.1 C 37.3 9.1 37.1 9 36.9 8.9 C 36.8 8.8 36.7 8.7 36.7 8.5 C 36.7 8.2 36.8 8 37 7.8 C 37.1 7.5 37.3 7.3 37.5 7.1 C 37.8 7 38 6.9 38.2 6.9 C 38.2 6.9 38.3 6.9 38.4 7 C 38.4 7 38.4 7.1 38.4 7.2 Z M 37.5 8.8 C 37.6 8.8 37.7 8.8 37.8 8.8 C 37.7 8.7 37.7 8.7 37.7 8.7 C 37.6 8.6 37.6 8.5 37.6 8.5 C 37.6 8.5 37.6 8.5 37.7 8.4 C 37.7 8.4 37.8 8.3 37.9 8.3 C 37.9 8.3 38 8.4 38 8.4 C 38 8.5 38 8.5 38 8.6 C 38.1 8.6 38.1 8.6 38.1 8.6 C 38.2 8.6 38.3 8.6 38.4 8.4 C 38.5 8.3 38.5 8.1 38.5 8 C 38.5 7.8 38.4 7.6 38.3 7.5 C 38.2 7.3 38.1 7.2 38 7.2 C 37.9 7.2 37.8 7.3 37.6 7.4 C 37.5 7.6 37.3 7.7 37.2 7.9 C 37.1 8.1 37.1 8.3 37.1 8.4 C 37.1 8.6 37.1 8.6 37.2 8.7 C 37.3 8.8 37.4 8.8 37.5 8.8 C 37.5 8.8 37.5 8.8 37.5 8.8 Z M 40 9.2 C 39.9 9.2 39.8 9.1 39.6 9.1 C 39.5 9 39.4 8.9 39.3 8.7 C 39.2 8.6 39.2 8.4 39.2 8.2 C 39.2 8.1 39.2 8 39.2 7.9 C 39.2 7.9 39.3 7.6 39.3 7.6 C 39.3 7.5 39.3 7.5 39.3 7.5 C 39.3 7.4 39.3 7.3 39.3 7.3 C 39.3 7.2 39.4 7.1 39.4 7 C 39.4 7 39.5 6.9 39.6 6.9 C 39.6 6.9 39.6 7 39.7 7 C 39.7 7.1 39.7 7.1 39.7 7.2 C 39.7 7.2 39.7 7.3 39.6 7.5 C 39.6 7.5 39.6 7.6 39.6 7.8 C 39.6 8 39.5 8.1 39.5 8.2 C 39.5 8.5 39.6 8.6 39.7 8.7 C 39.8 8.8 39.9 8.9 40 8.9 C 40.2 8.9 40.4 8.8 40.5 8.7 C 40.6 8.6 40.7 8.4 40.7 8.2 C 40.7 8.1 40.7 8.1 40.7 8 C 40.7 7.9 40.7 7.9 40.7 7.8 C 40.7 7.4 40.8 7.2 40.8 7.1 C 40.9 7 40.9 7 41 7 C 41.1 7 41.2 7.1 41.2 7.2 C 41.2 7.3 41.1 7.4 41.1 7.6 C 41.1 7.7 41.1 7.9 41.1 8 C 41 8.3 41 8.5 40.9 8.6 C 40.9 8.8 40.8 8.9 40.6 9 C 40.4 9.1 40.2 9.2 40 9.2 Z M 41.9 8.6 C 41.8 8.6 41.8 8.6 41.8 8.6 C 41.8 8.6 41.7 8.7 41.6 8.9 C 41.5 9 41.5 9.1 41.4 9.1 C 41.4 9.1 41.4 9.1 41.4 9.1 C 41.3 9.1 41.3 9.1 41.2 9.1 C 41.2 9 41.2 9 41.2 9 C 41.2 8.9 41.3 8.7 41.5 8.3 C 41.7 8.1 41.8 7.9 41.9 7.7 C 42.1 7.3 42.2 7.1 42.3 7 C 42.3 7 42.4 6.9 42.4 6.9 C 42.5 6.9 42.6 6.9 42.6 7 C 42.6 7 42.7 7 42.7 7.1 C 42.7 7.1 42.7 7.2 42.6 7.2 C 42.8 7.7 43 8.1 43.1 8.3 C 43.2 8.6 43.3 8.7 43.4 8.8 C 43.4 8.9 43.4 8.9 43.5 8.9 C 43.5 8.9 43.5 9 43.5 9 C 43.5 9.1 43.5 9.1 43.4 9.1 C 43.4 9.2 43.3 9.2 43.3 9.2 C 43.2 9.2 43.1 9.1 43.1 9.1 C 43 9 42.9 8.9 42.8 8.7 C 42.8 8.6 42.7 8.5 42.7 8.5 C 42.7 8.5 42.7 8.4 42.7 8.4 C 42.7 8.4 42.6 8.5 42.4 8.5 C 42.2 8.5 42 8.6 41.9 8.6 C 41.9 8.6 41.9 8.6 41.9 8.6 C 41.9 8.6 41.9 8.6 41.9 8.6 Z M 42.5 8.2 C 42.5 8.2 42.6 8.2 42.6 8.2 C 42.6 8.1 42.5 7.9 42.4 7.5 C 42.4 7.5 42.4 7.5 42.4 7.5 C 42.4 7.5 42 8.3 42 8.3 C 42 8.3 42.1 8.2 42.2 8.2 C 42.2 8.2 42.3 8.2 42.5 8.2 C 42.5 8.2 42.5 8.2 42.5 8.2 Z M 43.7 8.6 C 43.7 8.6 43.81 8.1 43.8 8.1 C 43.9 7.7 43.9 7.4 43.9 7.3 C 43.9 7.2 43.9 7.2 44 7.1 C 44 7.1 44 7.1 44 7.1 C 44.1 7 44.1 7 44.2 7 C 44.2 7 44.2 7 44.3 7 C 44.3 7.1 44.3 7.1 44.4 7.2 C 44.4 7.4 44.5 7.6 44.7 7.9 C 44.8 8.2 45 8.4 45.1 8.6 C 45.2 8.4 45.2 8.2 45.3 7.9 C 45.3 7.7 45.3 7.6 45.3 7.4 C 45.4 7.3 45.4 7.2 45.4 7.1 C 45.4 7 45.4 7 45.5 6.9 C 45.5 6.9 45.6 6.9 45.6 6.9 C 45.6 6.9 45.7 6.9 45.7 7 C 45.7 7 45.7 7.1 45.7 7.1 C 45.7 7.2 45.7 7.3 45.7 7.4 C 45.6 7.6 45.6 7.9 45.5 8.2 C 45.5 8.6 45.4 8.8 45.4 8.8 C 45.4 8.8 45.4 8.9 45.4 8.9 C 45.4 8.9 45.4 9 45.4 9 C 45.4 9 45.4 9.1 45.3 9.1 C 45.3 9.1 45.3 9.1 45.2 9.1 C 45.2 9.1 45.1 9.1 45.1 9.1 C 45.1 9.1 45.1 9.1 45.1 9 C 45 9 45 9 45 8.9 C 44.9 8.8 44.9 8.8 44.9 8.7 C 44.6 8.5 44.4 8.1 44.2 7.7 C 44.2 7.8 44.1 8.1 44.1 8.6 C 44.1 8.6 44 8.7 44 8.7 C 44 8.7 44 8.8 44 8.9 C 44 9 44 9.1 43.9 9.1 C 43.9 9.2 43.9 9.2 43.8 9.2 C 43.8 9.2 43.7 9.2 43.7 9.1 C 43.7 9.1 43.6 9 43.6 8.9 C 43.6 8.9 43.7 8.7 43.7 8.6 C 43.7 8.6 43.7 8.6 43.7 8.6 Z M 47.6 7.3 C 47.4 7.3 47.2 7.3 47.1 7.3 C 47.1 7.3 47.1 7.4 47.1 7.4 C 47.1 7.4 47.1 7.6 47 7.9 C 47 8.2 47 8.4 47 8.6 C 47 8.7 47 8.8 47 8.9 C 47 8.9 47 8.9 47 8.9 C 47 9 47 9 47 9.1 C 47 9.1 46.9 9.1 46.9 9.1 C 46.8 9.1 46.8 9.1 46.7 9.1 C 46.7 9 46.7 9 46.7 8.9 C 46.6 8.8 46.6 8.7 46.6 8.6 C 46.6 8.5 46.7 8.2 46.7 7.9 C 46.7 7.5 46.8 7.4 46.8 7.4 C 46.7 7.4 46.6 7.4 46.4 7.4 C 46.2 7.4 46.1 7.4 46.1 7.4 C 46 7.4 45.9 7.4 45.9 7.4 C 45.9 7.3 45.8 7.3 45.8 7.3 C 45.8 7.2 45.9 7.2 45.9 7.1 C 45.9 7.1 46 7.1 46.2 7.1 C 46.5 7.1 46.8 7.1 47 7 C 47.3 7 47.6 7 47.7 7 C 47.9 7 48 7 48.1 7 C 48.1 7.1 48.1 7.1 48.1 7.2 C 48.1 7.3 48.1 7.3 48 7.3 C 48 7.3 47.9 7.3 47.9 7.3 C 47.8 7.3 47.7 7.3 47.6 7.3 C 47.6 7.3 47.6 7.3 47.6 7.3 Z M 48.5 9.2 C 48.4 9.2 48.2 9.1 48.1 8.9 C 48 8.8 47.9 8.6 47.9 8.4 C 47.9 8.2 48 8 48.1 7.8 C 48.2 7.5 48.4 7.3 48.6 7.2 C 48.8 7 49 6.9 49.2 6.9 C 49.3 6.9 49.5 7 49.6 7 C 49.7 7 49.8 7.1 49.9 7.2 C 49.9 7.2 50 7.3 50 7.4 C 50.1 7.5 50.1 7.6 50.1 7.7 C 50.1 7.9 50 8 50 8.2 C 49.9 8.4 49.8 8.5 49.6 8.7 C 49.5 8.8 49.3 9 49.2 9 C 49 9.1 48.8 9.2 48.5 9.2 Z M 48.3 8.4 C 48.3 8.6 48.3 8.7 48.4 8.7 C 48.5 8.8 48.5 8.9 48.6 8.9 C 48.9 8.9 49.1 8.7 49.4 8.5 C 49.6 8.2 49.7 8 49.7 7.7 C 49.7 7.6 49.7 7.5 49.7 7.4 C 49.6 7.4 49.5 7.3 49.5 7.3 C 49.4 7.2 49.3 7.2 49.2 7.2 C 49 7.2 48.8 7.4 48.6 7.6 C 48.4 7.9 48.3 8.2 48.3 8.4 Z M 52 9.2 C 51.9 9.2 51.7 9.1 51.6 8.9 C 51.5 8.8 51.4 8.6 51.4 8.4 C 51.4 8.2 51.4 8 51.6 7.8 C 51.7 7.5 51.9 7.3 52 7.2 C 52.2 7 52.4 6.9 52.6 6.9 C 52.8 6.9 52.9 7 53.1 7 C 53.2 7 53.3 7.1 53.3 7.2 C 53.4 7.2 53.5 7.3 53.5 7.4 C 53.6 7.5 53.6 7.6 53.6 7.7 C 53.6 7.9 53.5 8 53.4 8.2 C 53.4 8.4 53.3 8.5 53.1 8.7 C 53 8.8 52.8 9 52.6 9 C 52.5 9.1 52.3 9.2 52 9.2 Z M 51.8 8.4 C 51.8 8.6 51.8 8.7 51.9 8.7 C 51.9 8.8 52 8.9 52.1 8.9 C 52.4 8.9 52.6 8.7 52.8 8.5 C 53.1 8.2 53.2 8 53.2 7.7 C 53.2 7.6 53.2 7.5 53.1 7.4 C 53.1 7.4 53 7.3 52.9 7.3 C 52.9 7.2 52.8 7.2 52.6 7.2 C 52.5 7.2 52.3 7.4 52.1 7.6 C 51.9 7.9 51.8 8.2 51.8 8.4 Z M 57.1 7.1 C 57.1 7.1 57.1 7.1 57.1 7.1 C 57.1 7.1 57.1 7.1 57 7.2 C 56.9 7.4 56.8 7.5 56.7 7.6 C 56.7 7.7 56.5 8 56.3 8.3 C 56.2 8.4 56.2 8.6 56.1 8.6 C 56 8.7 56 8.9 56 8.9 C 55.9 9 55.9 9 55.9 9 C 55.8 9.1 55.7 9.1 55.7 9.1 C 55.6 9.1 55.6 9.1 55.6 9 C 55.6 9 55.5 8.9 55.5 8.7 C 55.4 8.6 55.3 8.4 55.2 8.1 C 55 7.5 54.9 7.2 54.9 7.2 C 54.9 7.2 54.9 7.1 54.9 7.1 C 55 7 55 7 55.1 7 C 55.1 7 55.2 7 55.2 7 C 55.2 7.1 55.3 7.2 55.3 7.3 C 55.3 7.4 55.4 7.6 55.5 7.9 C 55.6 8.2 55.7 8.5 55.8 8.6 C 55.8 8.6 55.8 8.5 55.9 8.4 C 55.9 8.4 55.9 8.4 55.9 8.4 C 56 8.2 56.2 8 56.2 7.8 C 56.4 7.5 56.5 7.3 56.7 7.1 C 56.8 7 56.9 6.9 56.9 6.9 C 57 6.9 57.1 6.9 57.1 7 C 57.1 7.04 57.1 7.1 57.1 7.1 C 57.1 7.1 57.1 7.05 57.1 7.1 Z M 57.6 9.2 C 57.4 9.2 57.3 9.1 57.1 8.9 C 57 8.8 56.9 8.6 56.9 8.4 C 56.9 8.2 57 8 57.1 7.8 C 57.2 7.5 57.4 7.3 57.6 7.2 C 57.8 7 58 6.9 58.2 6.9 C 58.4 6.9 58.5 7 58.6 7 C 58.7 7 58.8 7.1 58.9 7.2 C 59 7.2 59 7.3 59.1 7.4 C 59.1 7.5 59.1 7.6 59.1 7.7 C 59.1 7.9 59.1 8 59 8.2 C 58.9 8.4 58.8 8.5 58.6 8.7 C 58.5 8.8 58.3 9 58.2 9 C 58 9.1 57.8 9.2 57.6 9.2 Z M 57.3 8.4 C 57.3 8.6 57.3 8.7 57.4 8.7 C 57.5 8.8 57.6 8.9 57.7 8.9 C 57.9 8.9 58.2 8.7 58.4 8.5 C 58.6 8.2 58.7 8 58.7 7.7 C 58.7 7.6 58.7 7.5 58.7 7.4 C 58.6 7.4 58.6 7.3 58.5 7.3 C 58.4 7.2 58.3 7.2 58.2 7.2 C 58 7.2 57.8 7.4 57.6 7.6 C 57.4 7.9 57.3 8.2 57.3 8.4 Z M 61 7.3 C 60.7 7.3 60.5 7.3 60.5 7.3 C 60.4 7.3 60.4 7.4 60.4 7.4 C 60.4 7.4 60.4 7.6 60.4 7.9 C 60.3 8.2 60.3 8.4 60.3 8.6 C 60.3 8.7 60.3 8.8 60.3 8.9 C 60.4 8.9 60.4 8.9 60.4 8.9 C 60.4 9 60.3 9 60.3 9.1 C 60.3 9.1 60.2 9.1 60.2 9.1 C 60.2 9.1 60.1 9.1 60.1 9.1 C 60 9 60 9 60 8.9 C 60 8.8 60 8.7 60 8.6 C 60 8.5 60 8.2 60 7.9 C 60.1 7.5 60.1 7.4 60.1 7.4 C 60.1 7.4 60 7.4 59.8 7.4 C 59.6 7.4 59.5 7.4 59.4 7.4 C 59.3 7.4 59.3 7.4 59.2 7.4 C 59.2 7.3 59.2 7.3 59.2 7.3 C 59.2 7.2 59.2 7.2 59.2 7.1 C 59.3 7.1 59.4 7.1 59.5 7.1 C 59.8 7.1 60.1 7.1 60.4 7 C 60.7 7 60.9 7 61.1 7 C 61.2 7 61.3 7 61.4 7 C 61.4 7.1 61.4 7.1 61.4 7.2 C 61.4 7.3 61.4 7.3 61.3 7.3 C 61.3 7.3 61.2 7.3 61.2 7.3 C 61.1 7.3 61 7.3 61 7.3 C 61 7.3 61 7.3 61 7.3 Z M 61.9 9.2 C 61.7 9.2 61.6 9.1 61.4 8.9 C 61.3 8.8 61.2 8.6 61.2 8.4 C 61.2 8.2 61.3 8 61.4 7.8 C 61.5 7.5 61.7 7.3 61.9 7.2 C 62.1 7 62.3 6.9 62.5 6.9 C 62.7 6.9 62.8 7 62.9 7 C 63 7 63.1 7.1 63.2 7.2 C 63.3 7.2 63.3 7.3 63.4 7.4 C 63.4 7.5 63.4 7.6 63.4 7.7 C 63.4 7.9 63.4 8 63.3 8.2 C 63.2 8.4 63.1 8.5 62.9 8.7 C 62.8 8.8 62.6 9 62.5 9 C 62.3 9.1 62.1 9.2 61.9 9.2 Z M 61.6 8.4 C 61.6 8.6 61.6 8.7 61.7 8.7 C 61.8 8.8 61.9 8.9 62 8.9 C 62.2 8.9 62.5 8.7 62.7 8.5 C 62.9 8.2 63 8 63 7.7 C 63 7.6 63 7.5 63 7.4 C 62.9 7.4 62.9 7.3 62.8 7.3 C 62.7 7.2 62.6 7.2 62.5 7.2 C 62.3 7.2 62.1 7.4 61.9 7.6 C 61.7 7.9 61.6 8.2 61.6 8.4 Z " stroke="none" fill="#000"/>  </g>  <g id="Polygon14642">    <path d="M 8 3.2 C 8 3.4 7.9 3.5 7.8 3.5 C 7.8 3.4 7.7 3.3 7.7 3.3 C 7.6 3.3 7.6 3.2 7.5 3.2 C 7.3 3.2 7.1 3.3 7 3.4 C 6.9 3.4 6.8 3.5 6.8 3.6 C 6.8 3.7 6.8 3.7 6.9 3.8 C 6.9 3.8 7.1 3.9 7.3 3.9 C 7.5 4 7.7 4.1 7.8 4.2 C 7.9 4.2 8 4.3 8 4.5 C 8 4.6 7.8 4.8 7.5 5 C 7.2 5.1 6.9 5.2 6.6 5.2 C 6.5 5.2 6.5 5.2 6.4 5.2 C 6.3 5.1 6.3 5.1 6.3 5 C 6.3 4.9 6.3 4.9 6.3 4.9 C 6.4 4.8 6.4 4.8 6.4 4.8 C 6.5 4.8 6.5 4.8 6.5 4.8 C 6.6 4.9 6.7 4.9 6.8 4.9 C 7 4.9 7.1 4.8 7.3 4.7 C 7.5 4.7 7.6 4.6 7.6 4.5 C 7.6 4.5 7.6 4.4 7.5 4.4 C 7.5 4.4 7.4 4.3 7.2 4.3 C 7 4.2 6.9 4.1 6.8 4.1 C 6.7 4.1 6.6 4 6.5 3.9 C 6.5 3.9 6.4 3.8 6.4 3.7 C 6.4 3.5 6.5 3.3 6.8 3.2 C 7 3 7.2 2.9 7.5 2.9 C 7.7 2.9 7.8 3 7.9 3 C 8 3.1 8 3.2 8 3.2 C 8 3.2 8 3.2 8 3.2 Z M 8.8 3.6 C 8.8 3.7 8.7 3.8 8.7 3.8 C 8.7 3.9 8.7 3.9 8.7 4.1 C 8.7 4.3 8.7 4.4 8.7 4.5 C 8.7 4.6 8.7 4.7 8.7 4.9 C 8.7 5 8.7 5 8.6 5.1 C 8.6 5.1 8.5 5.1 8.5 5.1 C 8.4 5.1 8.4 5.1 8.3 5 C 8.3 5 8.3 4.9 8.3 4.7 C 8.3 4.6 8.3 4.4 8.4 4.1 C 8.4 4.1 8.4 3.5 8.4 3.5 C 8.5 3.4 8.5 3.3 8.5 3.3 C 8.5 3.1 8.5 3.1 8.5 3.1 C 8.5 3 8.6 3 8.6 3 C 8.7 3 8.7 2.9 8.7 2.9 C 8.8 2.9 8.8 3 8.8 3 C 8.9 3.1 8.9 3.1 8.9 3.2 C 8.9 3.2 8.8 3.6 8.8 3.6 Z M 11.2 3.6 C 11.2 3.5 11.2 3.5 11.2 3.5 C 11.2 3.5 10.7 4.1 10.7 4.1 C 10.5 4.4 10.3 4.6 10.2 4.6 C 10.1 4.6 10.1 4.6 10 4.5 C 10 4.4 10 4.3 9.9 4.2 C 9.9 4.1 9.8 4 9.8 3.9 C 9.8 3.7 9.7 3.6 9.7 3.6 C 9.7 3.6 9.7 4 9.7 4 C 9.6 4.1 9.6 4.2 9.6 4.3 C 9.6 4.5 9.5 4.6 9.5 4.7 C 9.5 4.9 9.5 5 9.5 5 C 9.4 5.1 9.4 5.1 9.4 5.1 C 9.3 5.2 9.3 5.2 9.3 5.2 C 9.2 5.2 9.2 5.1 9.1 5.1 C 9.1 5.1 9.1 5 9.1 5 C 9.1 4.9 9.1 4.8 9.1 4.6 C 9.3 4 9.4 3.7 9.4 3.5 C 9.4 3.3 9.5 3.2 9.5 3.1 C 9.5 3.1 9.5 3 9.5 3 C 9.6 3 9.6 3 9.7 3 C 9.7 3 9.8 3 9.8 3 C 9.9 3.1 9.9 3.1 9.9 3.2 C 9.9 3.18 9.9 3.2 9.9 3.2 C 9.9 3.2 10.11 3.75 10.1 3.7 C 10.2 4 10.2 4.1 10.3 4.2 C 10.4 4.1 10.5 3.9 10.7 3.6 C 10.9 3.3 11.1 3.1 11.2 3 C 11.2 3 11.3 2.9 11.3 2.9 C 11.4 2.9 11.4 2.9 11.5 3 C 11.5 3 11.6 3.1 11.6 3.1 C 11.6 3.1 11.6 3.3 11.5 3.5 C 11.5 3.7 11.5 3.9 11.4 4.2 C 11.4 4.4 11.4 4.5 11.4 4.6 C 11.4 4.6 11.4 4.7 11.4 4.8 C 11.4 4.8 11.4 4.8 11.4 4.9 C 11.4 5 11.4 5 11.4 5.1 C 11.4 5.1 11.3 5.1 11.2 5.1 C 11.1 5.1 11 5 11 4.8 C 11 4.7 11.1 4.4 11.1 4.2 C 11.1 3.9 11.2 3.7 11.2 3.6 C 11.2 3.6 11.2 3.6 11.2 3.6 Z M 11.9 5.3 C 11.9 5.3 11.9 5.3 11.9 5.3 C 12 5.3 12 5.2 12.1 5.2 C 12.2 5.1 12.2 5.1 12.3 5 C 12.3 5 12.3 4.9 12.3 4.9 C 12.3 4.9 12.3 4.8 12.3 4.8 C 12.2 4.7 12.2 4.7 12.2 4.7 C 12.2 4.7 12.2 4.6 12.3 4.6 C 12.3 4.6 12.3 4.5 12.4 4.5 C 12.4 4.5 12.4 4.6 12.5 4.6 C 12.5 4.6 12.6 4.6 12.6 4.6 C 12.6 4.7 12.6 4.7 12.6 4.8 C 12.6 4.8 12.6 4.9 12.6 4.9 C 12.6 4.9 12.6 5 12.6 5.1 C 12.5 5.2 12.5 5.2 12.4 5.3 C 12.4 5.3 12.3 5.4 12.2 5.4 C 12.2 5.4 12.2 5.4 12.2 5.4 C 12.1 5.4 12 5.4 12 5.4 C 11.9 5.4 11.9 5.4 11.9 5.3 C 11.9 5.3 11.9 5.3 11.9 5.3 Z M 14.7 4.4 C 14.6 4.4 14.5 4.4 14.5 4.4 C 14.5 4.6 14.4 4.8 14.4 5 C 14.4 5 14.4 5.1 14.4 5.1 C 14.4 5.1 14.3 5.2 14.3 5.2 C 14.1 5.2 14.1 5.1 14.1 5 C 14.1 4.9 14.1 4.6 14.2 4.2 C 14.2 3.8 14.2 3.6 14.2 3.5 C 14.2 3.4 14.2 3.4 14.2 3.4 C 14.2 3.4 14.1 3.3 14.1 3.2 C 14.1 3.1 14.3 3.1 14.5 3 C 14.8 2.9 15 2.9 15.2 2.9 C 15.4 2.9 15.6 3 15.7 3 C 15.9 3.1 15.9 3.3 15.9 3.4 C 15.9 3.6 15.8 3.8 15.6 4 C 15.3 4.2 15 4.3 14.7 4.4 C 14.7 4.4 14.7 4.4 14.7 4.4 Z M 15.2 3.2 C 15 3.2 14.8 3.2 14.6 3.3 C 14.6 3.3 14.5 4.1 14.5 4.1 C 14.8 4 15.1 4 15.3 3.8 C 15.5 3.7 15.6 3.6 15.6 3.4 C 15.6 3.3 15.5 3.2 15.2 3.2 C 15.2 3.2 15.2 3.2 15.2 3.2 Z M 16.6 5.2 C 16.5 5.2 16.3 5.1 16.2 4.9 C 16.1 4.8 16 4.6 16 4.4 C 16 4.2 16.1 4 16.2 3.8 C 16.3 3.5 16.5 3.3 16.7 3.2 C 16.9 3 17.1 2.9 17.3 2.9 C 17.4 2.9 17.6 3 17.7 3 C 17.8 3 17.9 3.1 18 3.2 C 18.1 3.2 18.1 3.3 18.1 3.4 C 18.2 3.5 18.2 3.6 18.2 3.7 C 18.2 3.9 18.1 4 18.1 4.2 C 18 4.4 17.9 4.5 17.7 4.7 C 17.6 4.8 17.4 5 17.3 5 C 17.1 5.1 16.9 5.2 16.6 5.2 Z M 16.4 4.4 C 16.4 4.6 16.4 4.7 16.5 4.7 C 16.6 4.8 16.6 4.9 16.7 4.9 C 17 4.9 17.2 4.7 17.5 4.5 C 17.7 4.2 17.8 4 17.8 3.7 C 17.8 3.6 17.8 3.5 17.8 3.4 C 17.7 3.4 17.7 3.3 17.6 3.3 C 17.5 3.2 17.4 3.2 17.3 3.2 C 17.1 3.2 16.9 3.4 16.7 3.6 C 16.5 3.9 16.4 4.2 16.4 4.4 Z M 18.6 3.3 C 18.6 3.3 18.59 3.28 18.6 3.3 C 18.6 3.2 18.5 3.2 18.5 3.2 C 18.5 3.1 18.6 3.1 18.6 3 C 18.7 3 18.7 3 18.7 3 C 18.8 3 18.8 3 18.8 3 C 18.8 3 18.9 3 18.9 3 C 19.2 3 19.4 2.9 19.5 2.9 C 19.7 2.9 19.9 3 20 3.1 C 20.1 3.2 20.2 3.3 20.2 3.5 C 20.2 3.6 20.1 3.8 20 3.9 C 19.9 4 19.7 4.1 19.5 4.2 C 19.8 4.5 20.1 4.7 20.3 4.8 C 20.3 4.8 20.4 4.9 20.4 4.9 C 20.4 5 20.4 5 20.3 5 C 20.3 5.1 20.2 5.1 20.2 5.1 C 20.1 5.1 20.1 5.1 20 5 C 19.9 5 19.8 4.9 19.7 4.8 C 19.6 4.7 19.5 4.6 19.5 4.6 C 19.3 4.5 19.1 4.4 19.1 4.3 C 19 4.3 18.9 4.3 18.9 4.1 C 18.9 4.1 18.9 4.1 19 4 C 19 4 19.1 4 19.1 4 C 19.1 4 19.2 4 19.2 4 C 19.2 4 19.2 4 19.2 4 C 19.3 4 19.4 3.9 19.6 3.8 C 19.7 3.7 19.8 3.6 19.8 3.5 C 19.8 3.4 19.8 3.3 19.7 3.3 C 19.6 3.2 19.6 3.2 19.4 3.2 C 19.3 3.2 19.2 3.2 19.1 3.2 C 19.1 3.3 19 3.3 19 3.3 C 19 3.3 19 3.3 19 3.3 C 19 3.3 18.9 3.4 18.9 3.6 C 18.9 3.8 18.8 4 18.8 4.2 C 18.8 4.4 18.8 4.6 18.8 4.7 C 18.8 4.7 18.8 4.8 18.8 4.8 C 18.8 4.9 18.8 4.9 18.8 5 C 18.8 5 18.8 5 18.7 5.1 C 18.7 5.1 18.7 5.1 18.6 5.1 C 18.5 5.1 18.4 5.1 18.4 4.9 C 18.4 4.7 18.4 4.5 18.5 4.2 C 18.5 4 18.5 3.7 18.6 3.5 C 18.6 3.5 18.6 3.4 18.6 3.4 C 18.59 3.41 18.6 3.3 18.6 3.3 Z M 22.2 3.2 C 22.3 3.3 22.4 3.4 22.5 3.5 C 22.6 3.7 22.6 3.8 22.6 4 C 22.6 4.1 22.5 4.3 22.4 4.4 C 22.3 4.6 22.2 4.7 22 4.9 C 22.2 5.1 22.3 5.2 22.4 5.3 C 22.4 5.3 22.4 5.4 22.4 5.4 C 22.4 5.4 22.4 5.4 22.3 5.5 C 22.3 5.5 22.2 5.6 22.2 5.6 C 22.2 5.6 22.1 5.5 22.1 5.5 C 22 5.4 22 5.3 21.9 5.2 C 21.8 5.1 21.7 5 21.7 5 C 21.7 5 21.7 5 21.7 5 C 21.5 5.1 21.4 5.1 21.2 5.1 C 21 5.1 20.8 5 20.7 4.9 C 20.5 4.8 20.5 4.7 20.5 4.5 C 20.5 4.2 20.5 4 20.7 3.8 C 20.9 3.5 21 3.3 21.3 3.1 C 21.5 3 21.7 2.9 21.9 2.9 C 22 2.9 22 2.9 22.1 3 C 22.2 3 22.2 3.1 22.2 3.2 Z M 21.2 4.8 C 21.3 4.8 21.4 4.8 21.5 4.8 C 21.5 4.7 21.5 4.7 21.5 4.7 C 21.4 4.6 21.3 4.5 21.3 4.5 C 21.3 4.5 21.4 4.5 21.4 4.4 C 21.5 4.4 21.5 4.3 21.6 4.3 C 21.7 4.3 21.7 4.4 21.7 4.4 C 21.7 4.5 21.7 4.5 21.8 4.6 C 21.8 4.6 21.8 4.6 21.8 4.6 C 21.9 4.6 22 4.6 22.1 4.4 C 22.2 4.3 22.3 4.1 22.3 4 C 22.3 3.8 22.2 3.6 22.1 3.5 C 21.9 3.3 21.9 3.2 21.8 3.2 C 21.7 3.2 21.5 3.3 21.4 3.4 C 21.2 3.6 21.1 3.7 21 3.9 C 20.9 4.1 20.8 4.3 20.8 4.4 C 20.8 4.6 20.9 4.6 20.9 4.7 C 21 4.8 21.1 4.8 21.2 4.8 C 21.2 4.8 21.2 4.8 21.2 4.8 Z M 23.7 5.2 C 23.6 5.2 23.5 5.1 23.4 5.1 C 23.2 5 23.1 4.9 23 4.7 C 23 4.6 22.9 4.4 22.9 4.2 C 22.9 4.1 22.9 4 23 3.9 C 23 3.9 23 3.6 23 3.6 C 23 3.5 23 3.5 23 3.5 C 23.1 3.4 23.1 3.3 23.1 3.3 C 23.1 3.2 23.1 3.1 23.1 3 C 23.2 3 23.2 2.9 23.3 2.9 C 23.3 2.9 23.4 3 23.4 3 C 23.4 3.1 23.5 3.1 23.5 3.2 C 23.5 3.2 23.4 3.3 23.4 3.5 C 23.4 3.5 23.4 3.6 23.3 3.8 C 23.3 4 23.3 4.1 23.3 4.2 C 23.3 4.5 23.3 4.6 23.5 4.7 C 23.6 4.8 23.7 4.9 23.7 4.9 C 24 4.9 24.1 4.8 24.2 4.7 C 24.3 4.6 24.4 4.4 24.4 4.2 C 24.4 4.1 24.4 4.1 24.4 4 C 24.5 3.9 24.5 3.9 24.5 3.8 C 24.5 3.4 24.5 3.2 24.6 3.1 C 24.6 3 24.7 3 24.8 3 C 24.9 3 24.9 3.1 24.9 3.2 C 24.9 3.3 24.9 3.4 24.9 3.6 C 24.8 3.7 24.8 3.9 24.8 4 C 24.8 4.3 24.8 4.5 24.7 4.6 C 24.6 4.8 24.5 4.9 24.3 5 C 24.2 5.1 24 5.2 23.7 5.2 Z M 26.8 3.3 C 26.8 3.3 26.4 3.3 26.4 3.3 C 26.2 3.3 26.1 3.3 26 3.3 C 25.9 3.3 25.8 3.4 25.8 3.4 C 25.8 3.4 25.8 3.4 25.8 3.5 C 25.8 3.5 25.7 3.6 25.7 3.7 C 25.7 3.8 25.7 3.9 25.7 3.9 C 25.7 3.9 25.8 3.9 25.9 3.9 C 26.1 3.9 26.1 3.9 26.2 3.9 C 26.3 3.9 26.4 3.8 26.5 3.8 C 26.7 3.8 26.7 3.9 26.7 4 C 26.7 4 26.7 4.1 26.7 4.1 C 26.6 4.1 26.6 4.2 26.5 4.2 C 26.4 4.2 26.4 4.2 26.3 4.2 C 26.2 4.2 26.2 4.2 26.1 4.2 C 25.9 4.2 25.7 4.3 25.7 4.3 C 25.7 4.3 25.7 4.3 25.7 4.3 C 25.6 4.3 25.6 4.3 25.6 4.3 C 25.6 4.3 25.6 4.4 25.6 4.5 C 25.6 4.7 25.5 4.8 25.5 4.8 C 25.6 4.8 25.6 4.9 25.6 4.9 C 25.7 4.9 25.8 4.8 26 4.8 C 26.2 4.8 26.3 4.8 26.4 4.8 C 26.5 4.7 26.6 4.7 26.6 4.7 C 26.7 4.7 26.8 4.8 26.8 4.9 C 26.8 4.9 26.8 5 26.8 5 C 26.7 5 26.5 5.1 26.4 5.1 C 26.2 5.1 26.1 5.1 25.9 5.1 C 25.7 5.2 25.5 5.2 25.4 5.2 C 25.3 5.2 25.3 5.2 25.2 5.1 C 25.2 5.1 25.2 5 25.2 5 C 25.2 5 25.2 4.9 25.2 4.9 C 25.2 4.9 25.2 4.9 25.2 4.8 C 25.2 4.7 25.3 4.5 25.3 4 C 25.4 3.6 25.4 3.4 25.4 3.3 C 25.4 3.3 25.4 3.3 25.4 3.3 C 25.4 3.3 25.4 3.3 25.4 3.3 C 25.3 3.2 25.3 3.2 25.3 3.2 C 25.3 3.2 25.3 3.1 25.3 3.1 C 25.3 3.1 25.4 3.1 25.4 3.1 C 25.4 3.1 25.5 3 25.5 3 C 25.6 3 25.6 3 25.7 3.1 C 25.7 3.1 26 3 26.4 3 C 26.6 2.9 26.7 2.9 26.7 2.9 C 26.7 2.9 26.7 2.9 26.7 2.9 C 26.9 2.9 27 3 27 3.1 C 27 3.1 26.9 3.2 26.9 3.2 C 26.9 3.2 26.9 3.2 26.8 3.3 Z M 29.9 3.2 C 29.9 3.3 29.8 3.3 29.8 3.3 C 29.8 3.3 29.8 3.3 29.7 3.3 C 29.7 3.3 29.7 3.3 29.6 3.3 C 29.5 3.3 29.4 3.3 29.2 3.3 C 29 3.3 28.9 3.3 28.9 3.3 C 28.8 3.5 28.8 3.8 28.8 4 C 28.8 4 28.8 4 28.9 4 C 29 4 29.2 4 29.3 3.9 C 29.4 3.9 29.5 3.9 29.6 3.9 C 29.7 3.9 29.8 4 29.8 4.1 C 29.8 4.1 29.8 4.1 29.8 4.1 C 29.7 4.2 29.7 4.2 29.7 4.2 C 29.6 4.2 29.6 4.2 29.5 4.2 C 29.5 4.2 29.1 4.3 29.1 4.3 C 28.9 4.3 28.8 4.3 28.7 4.3 C 28.7 4.3 28.7 4.4 28.7 4.4 C 28.7 4.4 28.7 4.4 28.7 4.5 C 28.7 4.7 28.7 4.8 28.7 4.8 C 28.7 4.8 28.7 5 28.7 5 C 28.7 5.1 28.6 5.2 28.5 5.2 C 28.5 5.2 28.4 5.2 28.4 5.1 C 28.3 5.1 28.3 5 28.3 5 C 28.3 4.8 28.3 4.7 28.3 4.4 C 28.3 4.4 28.4 4.1 28.5 3.3 C 28.5 3.3 28.5 3.3 28.5 3.3 C 28.5 3.2 28.5 3.2 28.5 3.2 C 28.5 3.1 28.5 3.1 28.5 3.1 C 28.6 3 28.6 3 28.6 3 C 28.7 3 28.7 3 28.7 3 C 28.8 3 28.8 3 28.8 3 C 28.9 3 29 3 29.3 3 C 29.5 2.9 29.6 2.9 29.7 2.9 C 29.8 2.9 29.9 3 29.9 3 C 30 3 30 3 30 3.1 C 30 3.1 30 3.2 29.9 3.2 C 29.9 3.2 29.9 3.2 29.9 3.2 Z M 30.4 4.6 C 30.4 4.6 30.3 4.6 30.3 4.6 C 30.3 4.6 30.3 4.7 30.2 4.9 C 30.1 5 30 5.1 30 5.1 C 30 5.1 29.9 5.1 29.9 5.1 C 29.9 5.1 29.8 5.1 29.8 5.1 C 29.7 5 29.7 5 29.7 5 C 29.7 4.9 29.8 4.7 30.1 4.3 C 30.2 4.1 30.3 3.9 30.4 3.7 C 30.7 3.3 30.8 3.1 30.8 3 C 30.9 3 30.9 2.9 31 2.9 C 31.1 2.9 31.1 2.9 31.2 3 C 31.2 3 31.2 3 31.2 3.1 C 31.2 3.1 31.2 3.2 31.2 3.2 C 31.4 3.7 31.5 4.1 31.6 4.3 C 31.7 4.6 31.8 4.7 31.9 4.8 C 32 4.9 32 4.9 32 4.9 C 32 4.9 32 5 32 5 C 32 5.1 32 5.1 32 5.1 C 31.9 5.2 31.9 5.2 31.8 5.2 C 31.8 5.2 31.7 5.1 31.6 5.1 C 31.5 5 31.5 4.9 31.4 4.7 C 31.3 4.6 31.3 4.5 31.3 4.5 C 31.3 4.5 31.3 4.4 31.3 4.4 C 31.2 4.4 31.1 4.5 30.9 4.5 C 30.7 4.5 30.6 4.6 30.5 4.6 C 30.5 4.6 30.4 4.6 30.4 4.6 C 30.4 4.6 30.4 4.6 30.4 4.6 Z M 31 4.2 C 31.1 4.2 31.1 4.2 31.2 4.2 C 31.1 4.1 31.1 3.9 31 3.5 C 30.9 3.5 30.9 3.5 30.9 3.5 C 30.9 3.5 30.5 4.3 30.5 4.3 C 30.6 4.3 30.6 4.2 30.7 4.2 C 30.7 4.2 30.9 4.2 31 4.2 C 31 4.2 31 4.2 31 4.2 Z M 34.3 3.1 C 34.3 3.1 34.3 3.1 34.3 3.1 C 34.3 3.1 34.2 3.1 34.2 3.2 C 34 3.4 34 3.5 33.9 3.6 C 33.8 3.7 33.7 4 33.5 4.3 C 33.4 4.4 33.3 4.6 33.3 4.6 C 33.2 4.7 33.1 4.9 33.1 4.9 C 33.1 5 33.1 5 33 5 C 33 5.1 32.9 5.1 32.8 5.1 C 32.8 5.1 32.8 5.1 32.7 5 C 32.7 5 32.7 4.9 32.6 4.7 C 32.6 4.6 32.5 4.4 32.4 4.1 C 32.2 3.5 32 3.2 32 3.2 C 32 3.2 32.1 3.1 32.1 3.1 C 32.1 3 32.2 3 32.2 3 C 32.3 3 32.3 3 32.4 3 C 32.4 3.1 32.4 3.2 32.5 3.3 C 32.5 3.4 32.6 3.6 32.7 3.9 C 32.8 4.2 32.9 4.5 33 4.6 C 33 4.6 33 4.5 33 4.4 C 33.1 4.4 33.1 4.4 33.1 4.4 C 33.2 4.2 33.3 4 33.4 3.8 C 33.6 3.5 33.7 3.3 33.8 3.1 C 33.9 3 34 2.9 34.1 2.9 C 34.2 2.9 34.3 2.9 34.3 3 C 34.27 3.04 34.3 3.1 34.3 3.1 C 34.3 3.1 34.27 3.05 34.3 3.1 Z M 34.7 5.2 C 34.6 5.2 34.4 5.1 34.3 4.9 C 34.2 4.8 34.1 4.6 34.1 4.4 C 34.1 4.2 34.2 4 34.3 3.8 C 34.4 3.5 34.6 3.3 34.8 3.2 C 34.9 3 35.1 2.9 35.4 2.9 C 35.5 2.9 35.7 3 35.8 3 C 35.9 3 36 3.1 36.1 3.2 C 36.1 3.2 36.2 3.3 36.2 3.4 C 36.3 3.5 36.3 3.6 36.3 3.7 C 36.3 3.9 36.2 4 36.2 4.2 C 36.1 4.4 36 4.5 35.8 4.7 C 35.7 4.8 35.5 5 35.3 5 C 35.2 5.1 35 5.2 34.7 5.2 Z M 34.5 4.4 C 34.5 4.6 34.5 4.7 34.6 4.7 C 34.6 4.8 34.7 4.9 34.8 4.9 C 35.1 4.9 35.3 4.7 35.6 4.5 C 35.8 4.2 35.9 4 35.9 3.7 C 35.9 3.6 35.9 3.5 35.8 3.4 C 35.8 3.4 35.7 3.3 35.6 3.3 C 35.6 3.2 35.5 3.2 35.4 3.2 C 35.2 3.2 35 3.4 34.8 3.6 C 34.6 3.9 34.5 4.2 34.5 4.4 Z M 36.7 3.3 C 36.7 3.3 36.68 3.28 36.7 3.3 C 36.7 3.2 36.6 3.2 36.6 3.2 C 36.6 3.1 36.7 3.1 36.7 3 C 36.8 3 36.8 3 36.8 3 C 36.9 3 36.9 3 36.9 3 C 36.9 3 36.9 3 37 3 C 37.2 3 37.4 2.9 37.6 2.9 C 37.8 2.9 38 3 38.1 3.1 C 38.2 3.2 38.3 3.3 38.3 3.5 C 38.3 3.6 38.2 3.8 38.1 3.9 C 38 4 37.8 4.1 37.6 4.2 C 37.9 4.5 38.2 4.7 38.4 4.8 C 38.4 4.8 38.5 4.9 38.5 4.9 C 38.5 5 38.4 5 38.4 5 C 38.4 5.1 38.3 5.1 38.3 5.1 C 38.2 5.1 38.2 5.1 38.1 5 C 38 5 37.9 4.9 37.8 4.8 C 37.6 4.7 37.6 4.6 37.5 4.6 C 37.4 4.5 37.2 4.4 37.1 4.3 C 37 4.3 37 4.3 37 4.1 C 37 4.1 37 4.1 37.1 4 C 37.1 4 37.2 4 37.2 4 C 37.2 4 37.2 4 37.3 4 C 37.3 4 37.3 4 37.3 4 C 37.4 4 37.5 3.9 37.7 3.8 C 37.8 3.7 37.9 3.6 37.9 3.5 C 37.9 3.4 37.9 3.3 37.8 3.3 C 37.7 3.2 37.6 3.2 37.5 3.2 C 37.4 3.2 37.3 3.2 37.2 3.2 C 37.1 3.3 37.1 3.3 37.1 3.3 C 37.1 3.3 37.1 3.3 37.1 3.3 C 37.1 3.3 37 3.4 37 3.6 C 37 3.8 36.9 4 36.9 4.2 C 36.9 4.4 36.9 4.6 36.9 4.7 C 36.9 4.7 36.9 4.8 36.9 4.8 C 36.9 4.9 36.9 4.9 36.9 5 C 36.9 5 36.9 5 36.8 5.1 C 36.8 5.1 36.7 5.1 36.7 5.1 C 36.6 5.1 36.5 5.1 36.5 4.9 C 36.5 4.7 36.5 4.5 36.5 4.2 C 36.6 4 36.6 3.7 36.7 3.5 C 36.7 3.5 36.7 3.4 36.7 3.4 C 36.68 3.41 36.7 3.3 36.7 3.3 Z M 40.3 3.3 C 40.3 3.3 39.8 3.3 39.8 3.3 C 39.7 3.3 39.5 3.3 39.4 3.3 C 39.3 3.3 39.3 3.4 39.2 3.4 C 39.2 3.4 39.2 3.4 39.2 3.5 C 39.2 3.5 39.2 3.6 39.2 3.7 C 39.2 3.8 39.1 3.9 39.1 3.9 C 39.2 3.9 39.3 3.9 39.4 3.9 C 39.5 3.9 39.6 3.9 39.6 3.9 C 39.8 3.9 39.9 3.8 40 3.8 C 40.1 3.8 40.2 3.9 40.2 4 C 40.2 4 40.2 4.1 40.1 4.1 C 40.1 4.1 40 4.2 39.9 4.2 C 39.9 4.2 39.8 4.2 39.8 4.2 C 39.7 4.2 39.7 4.2 39.6 4.2 C 39.3 4.2 39.2 4.3 39.1 4.3 C 39.1 4.3 39.1 4.3 39.1 4.3 C 39.1 4.3 39.1 4.3 39.1 4.3 C 39.1 4.3 39.1 4.4 39 4.5 C 39 4.7 39 4.8 39 4.8 C 39 4.8 39 4.9 39.1 4.9 C 39.1 4.9 39.3 4.8 39.5 4.8 C 39.7 4.8 39.8 4.8 39.8 4.8 C 40 4.7 40 4.7 40.1 4.7 C 40.2 4.7 40.3 4.8 40.3 4.9 C 40.3 4.9 40.3 5 40.2 5 C 40.1 5 40 5.1 39.8 5.1 C 39.7 5.1 39.5 5.1 39.3 5.1 C 39.2 5.2 39 5.2 38.9 5.2 C 38.8 5.2 38.7 5.2 38.7 5.1 C 38.7 5.1 38.6 5 38.6 5 C 38.6 5 38.6 4.9 38.6 4.9 C 38.6 4.9 38.6 4.9 38.6 4.8 C 38.7 4.7 38.7 4.5 38.8 4 C 38.8 3.6 38.9 3.4 38.9 3.3 C 38.9 3.3 38.9 3.3 38.9 3.3 C 38.9 3.3 38.8 3.3 38.8 3.3 C 38.8 3.2 38.8 3.2 38.8 3.2 C 38.8 3.2 38.8 3.1 38.8 3.1 C 38.8 3.1 38.8 3.1 38.9 3.1 C 38.9 3.1 38.9 3 39 3 C 39 3 39.1 3 39.1 3.1 C 39.2 3.1 39.5 3 39.9 3 C 40.1 2.9 40.1 2.9 40.1 2.9 C 40.1 2.9 40.2 2.9 40.2 2.9 C 40.3 2.9 40.4 3 40.4 3.1 C 40.4 3.1 40.4 3.2 40.4 3.2 C 40.3 3.2 40.3 3.2 40.3 3.3 Z M 41.9 4.7 C 42 4.6 42.1 4.6 42.1 4.6 C 42.2 4.6 42.2 4.6 42.2 4.7 C 42.2 4.8 42.1 4.9 41.9 5 C 41.7 5.1 41.5 5.2 41.3 5.2 C 41.1 5.2 40.9 5.1 40.8 5 C 40.6 4.9 40.5 4.7 40.5 4.5 C 40.5 4.3 40.6 4 40.8 3.8 C 40.9 3.5 41.1 3.3 41.4 3.1 C 41.6 2.9 41.8 2.8 42 2.8 C 42.2 2.8 42.3 2.9 42.4 2.9 C 42.4 3 42.5 3.1 42.5 3.2 C 42.5 3.3 42.5 3.4 42.4 3.5 C 42.4 3.5 42.4 3.6 42.3 3.6 C 42.3 3.6 42.2 3.6 42.2 3.6 C 42.2 3.6 42.1 3.6 42.1 3.6 C 42.1 3.6 42.1 3.5 42.1 3.5 C 42.1 3.5 42.1 3.4 42.1 3.4 C 42.1 3.3 42.1 3.3 42.1 3.2 C 42.1 3.1 42.1 3.1 42 3.1 C 41.9 3.1 41.7 3.2 41.6 3.3 C 41.4 3.5 41.2 3.7 41.1 3.9 C 41 4.1 40.9 4.3 40.9 4.5 C 40.9 4.6 41 4.7 41 4.8 C 41.1 4.9 41.2 4.9 41.3 4.9 C 41.4 4.9 41.5 4.9 41.6 4.8 C 41.7 4.8 41.8 4.7 41.9 4.7 C 41.9 4.7 41.9 4.7 41.9 4.7 Z M 44.3 3.3 C 44.3 3.3 43.9 3.3 43.9 3.3 C 43.7 3.3 43.6 3.3 43.4 3.3 C 43.3 3.3 43.3 3.4 43.3 3.4 C 43.3 3.4 43.2 3.4 43.2 3.5 C 43.2 3.5 43.2 3.6 43.2 3.7 C 43.2 3.8 43.2 3.9 43.1 3.9 C 43.2 3.9 43.3 3.9 43.4 3.9 C 43.5 3.9 43.6 3.9 43.7 3.9 C 43.8 3.9 43.9 3.8 44 3.8 C 44.1 3.8 44.2 3.9 44.2 4 C 44.2 4 44.2 4.1 44.2 4.1 C 44.1 4.1 44.1 4.2 44 4.2 C 43.9 4.2 43.8 4.2 43.8 4.2 C 43.7 4.2 43.7 4.2 43.6 4.2 C 43.4 4.2 43.2 4.3 43.2 4.3 C 43.2 4.3 43.1 4.3 43.1 4.3 C 43.1 4.3 43.1 4.3 43.1 4.3 C 43.1 4.3 43.1 4.4 43.1 4.5 C 43 4.7 43 4.8 43 4.8 C 43 4.8 43.1 4.9 43.1 4.9 C 43.1 4.9 43.3 4.8 43.5 4.8 C 43.7 4.8 43.8 4.8 43.8 4.8 C 44 4.7 44.1 4.7 44.1 4.7 C 44.2 4.7 44.3 4.8 44.3 4.9 C 44.3 4.9 44.3 5 44.2 5 C 44.1 5 44 5.1 43.8 5.1 C 43.7 5.1 43.5 5.1 43.4 5.1 C 43.2 5.2 43 5.2 42.9 5.2 C 42.8 5.2 42.7 5.2 42.7 5.1 C 42.7 5.1 42.6 5 42.6 5 C 42.6 5 42.6 4.9 42.6 4.9 C 42.6 4.9 42.6 4.9 42.7 4.8 C 42.7 4.7 42.7 4.5 42.8 4 C 42.9 3.6 42.9 3.4 42.9 3.3 C 42.9 3.3 42.9 3.3 42.9 3.3 C 42.9 3.3 42.9 3.3 42.8 3.3 C 42.8 3.2 42.8 3.2 42.8 3.2 C 42.8 3.2 42.8 3.1 42.8 3.1 C 42.8 3.1 42.9 3.1 42.9 3.1 C 42.9 3.1 43 3 43 3 C 43 3 43.1 3 43.1 3.1 C 43.2 3.1 43.5 3 43.9 3 C 44.1 2.9 44.2 2.9 44.2 2.9 C 44.2 2.9 44.2 2.9 44.2 2.9 C 44.4 2.9 44.4 3 44.4 3.1 C 44.4 3.1 44.4 3.2 44.4 3.2 C 44.4 3.2 44.3 3.2 44.3 3.3 Z M 46.4 4.4 C 46.3 4.4 46.2 4.4 46.2 4.4 C 46.2 4.6 46.2 4.8 46.2 5 C 46.2 5 46.2 5.1 46.1 5.1 C 46.1 5.1 46.1 5.2 46 5.2 C 45.9 5.2 45.8 5.1 45.8 5 C 45.8 4.9 45.9 4.6 45.9 4.2 C 46 3.8 46 3.6 46 3.5 C 46 3.4 46 3.4 46 3.4 C 45.9 3.4 45.9 3.3 45.9 3.2 C 45.9 3.1 46 3.1 46.3 3 C 46.5 2.9 46.8 2.9 47 2.9 C 47.2 2.9 47.4 3 47.5 3 C 47.6 3.1 47.7 3.3 47.7 3.4 C 47.7 3.6 47.6 3.8 47.3 4 C 47.1 4.2 46.8 4.3 46.4 4.4 C 46.4 4.4 46.4 4.4 46.4 4.4 Z M 46.9 3.2 C 46.8 3.2 46.6 3.2 46.4 3.3 C 46.4 3.3 46.3 4.1 46.3 4.1 C 46.6 4 46.8 4 47 3.8 C 47.2 3.7 47.3 3.6 47.3 3.4 C 47.3 3.3 47.2 3.2 46.9 3.2 C 46.9 3.2 46.9 3.2 46.9 3.2 Z M 48 3.3 C 48 3.3 48 3.28 48 3.3 C 48 3.2 48 3.2 48 3.2 C 48 3.1 48 3.1 48 3 C 48.1 3 48.1 3 48.2 3 C 48.2 3 48.2 3 48.2 3 C 48.3 3 48.3 3 48.3 3 C 48.6 3 48.8 2.9 48.9 2.9 C 49.1 2.9 49.3 3 49.4 3.1 C 49.5 3.2 49.6 3.3 49.6 3.5 C 49.6 3.6 49.5 3.8 49.4 3.9 C 49.3 4 49.1 4.1 48.9 4.2 C 49.2 4.5 49.5 4.7 49.7 4.8 C 49.8 4.8 49.8 4.9 49.8 4.9 C 49.8 5 49.8 5 49.7 5 C 49.7 5.1 49.6 5.1 49.6 5.1 C 49.5 5.1 49.5 5.1 49.4 5 C 49.3 5 49.2 4.9 49.1 4.8 C 49 4.7 48.9 4.6 48.9 4.6 C 48.7 4.5 48.5 4.4 48.5 4.3 C 48.4 4.3 48.3 4.3 48.3 4.1 C 48.3 4.1 48.3 4.1 48.4 4 C 48.4 4 48.5 4 48.5 4 C 48.6 4 48.6 4 48.6 4 C 48.6 4 48.6 4 48.6 4 C 48.7 4 48.8 3.9 49 3.8 C 49.1 3.7 49.2 3.6 49.2 3.5 C 49.2 3.4 49.2 3.3 49.1 3.3 C 49.1 3.2 49 3.2 48.9 3.2 C 48.7 3.2 48.6 3.2 48.5 3.2 C 48.5 3.3 48.4 3.3 48.4 3.3 C 48.4 3.3 48.4 3.3 48.4 3.3 C 48.4 3.3 48.3 3.4 48.3 3.6 C 48.3 3.8 48.3 4 48.2 4.2 C 48.2 4.4 48.2 4.6 48.2 4.7 C 48.2 4.7 48.2 4.8 48.2 4.8 C 48.2 4.9 48.2 4.9 48.2 5 C 48.2 5 48.2 5 48.2 5.1 C 48.1 5.1 48.1 5.1 48 5.1 C 47.9 5.1 47.8 5.1 47.8 4.9 C 47.8 4.7 47.8 4.5 47.9 4.2 C 47.9 4 47.9 3.7 48 3.5 C 48 3.5 48 3.4 48 3.4 C 48 3.41 48 3.3 48 3.3 Z M 50.5 3.6 C 50.4 3.7 50.4 3.8 50.4 3.8 C 50.4 3.9 50.4 3.9 50.4 4.1 C 50.4 4.3 50.3 4.4 50.3 4.5 C 50.3 4.6 50.3 4.7 50.4 4.9 C 50.4 5 50.4 5 50.3 5.1 C 50.3 5.1 50.2 5.1 50.2 5.1 C 50.1 5.1 50 5.1 50 5 C 50 5 50 4.9 50 4.7 C 50 4.6 50 4.4 50 4.1 C 50 4.1 50.1 3.5 50.1 3.5 C 50.1 3.4 50.1 3.3 50.2 3.3 C 50.2 3.1 50.2 3.1 50.2 3.1 C 50.2 3 50.2 3 50.3 3 C 50.3 3 50.4 2.9 50.4 2.9 C 50.4 2.9 50.5 3 50.5 3 C 50.5 3.1 50.6 3.1 50.6 3.2 C 50.6 3.2 50.5 3.6 50.5 3.6 Z M 53 3.1 C 53 3.1 53 3.1 53 3.1 C 53 3.1 53 3.1 52.9 3.2 C 52.8 3.4 52.7 3.5 52.6 3.6 C 52.5 3.7 52.4 4 52.2 4.3 C 52.1 4.4 52.1 4.6 52 4.6 C 51.9 4.7 51.9 4.9 51.9 4.9 C 51.8 5 51.8 5 51.8 5 C 51.7 5.1 51.6 5.1 51.6 5.1 C 51.5 5.1 51.5 5.1 51.5 5 C 51.4 5 51.4 4.9 51.4 4.7 C 51.3 4.6 51.2 4.4 51.1 4.1 C 50.9 3.5 50.8 3.2 50.8 3.2 C 50.8 3.2 50.8 3.1 50.8 3.1 C 50.8 3 50.9 3 51 3 C 51 3 51.1 3 51.1 3 C 51.1 3.1 51.2 3.2 51.2 3.3 C 51.2 3.4 51.3 3.6 51.4 3.9 C 51.5 4.2 51.6 4.5 51.7 4.6 C 51.7 4.6 51.7 4.5 51.8 4.4 C 51.8 4.4 51.8 4.4 51.8 4.4 C 51.9 4.2 52 4 52.1 3.8 C 52.3 3.5 52.4 3.3 52.6 3.1 C 52.7 3 52.8 2.9 52.8 2.9 C 52.9 2.9 53 2.9 53 3 C 52.99 3.04 53 3.1 53 3.1 C 53 3.1 52.99 3.05 53 3.1 Z M 53.4 3.6 C 53.4 3.7 53.4 3.8 53.4 3.8 C 53.4 3.9 53.4 3.9 53.4 4.1 C 53.3 4.3 53.3 4.4 53.3 4.5 C 53.3 4.6 53.3 4.7 53.3 4.9 C 53.3 5 53.3 5 53.3 5.1 C 53.2 5.1 53.2 5.1 53.1 5.1 C 53.1 5.1 53 5.1 53 5 C 53 5 52.9 4.9 52.9 4.7 C 52.9 4.6 53 4.4 53 4.1 C 53 4.1 53.1 3.5 53.1 3.5 C 53.1 3.4 53.1 3.3 53.1 3.3 C 53.1 3.1 53.2 3.1 53.2 3.1 C 53.2 3 53.2 3 53.3 3 C 53.3 3 53.3 2.9 53.4 2.9 C 53.4 2.9 53.5 3 53.5 3 C 53.5 3.1 53.5 3.1 53.5 3.2 C 53.5 3.2 53.4 3.6 53.4 3.6 Z M 55.2 5 C 55.2 5 55.1 5 55.1 5 C 55 5 55 5 55 5 C 54.7 5 54.4 5 54.2 5.1 C 54.1 5.1 54 5.2 54 5.2 C 53.9 5.2 53.9 5.1 53.8 5.1 C 53.8 5 53.8 5 53.8 5 C 53.8 4.9 53.8 4.9 53.8 4.8 C 53.8 4.7 53.8 4.6 53.9 4.5 C 53.9 4.5 54 3.3 54 3.3 C 54 3.2 54 3.1 54 3.1 C 54 3 54 3 54.1 3 C 54.1 3 54.2 2.9 54.2 2.9 C 54.3 2.9 54.3 3 54.3 3 C 54.4 3 54.4 3.1 54.4 3.1 C 54.4 3.1 54.4 3.2 54.4 3.3 C 54.3 3.4 54.3 3.7 54.3 4.1 C 54.2 4.5 54.2 4.7 54.2 4.7 C 54.2 4.7 54.2 4.8 54.2 4.8 C 54.2 4.8 54.3 4.7 54.5 4.7 C 54.6 4.7 54.7 4.7 54.8 4.7 C 55 4.7 55.1 4.7 55.2 4.6 C 55.3 4.6 55.3 4.6 55.3 4.6 C 55.3 4.6 55.4 4.6 55.4 4.7 C 55.5 4.7 55.5 4.7 55.5 4.8 C 55.5 4.9 55.4 4.9 55.4 4.9 C 55.3 5 55.3 5 55.2 5 Z M 57.3 3.3 C 57.3 3.3 56.8 3.3 56.8 3.3 C 56.7 3.3 56.5 3.3 56.4 3.3 C 56.3 3.3 56.3 3.4 56.2 3.4 C 56.2 3.4 56.2 3.4 56.2 3.5 C 56.2 3.5 56.2 3.6 56.2 3.7 C 56.1 3.8 56.1 3.9 56.1 3.9 C 56.2 3.9 56.3 3.9 56.4 3.9 C 56.5 3.9 56.6 3.9 56.6 3.9 C 56.8 3.9 56.9 3.8 57 3.8 C 57.1 3.8 57.2 3.9 57.2 4 C 57.2 4 57.2 4.1 57.1 4.1 C 57.1 4.1 57 4.2 56.9 4.2 C 56.9 4.2 56.8 4.2 56.7 4.2 C 56.7 4.2 56.7 4.2 56.6 4.2 C 56.3 4.2 56.2 4.3 56.1 4.3 C 56.1 4.3 56.1 4.3 56.1 4.3 C 56.1 4.3 56.1 4.3 56.1 4.3 C 56.1 4.3 56.1 4.4 56 4.5 C 56 4.7 56 4.8 56 4.8 C 56 4.8 56 4.9 56.1 4.9 C 56.1 4.9 56.2 4.8 56.4 4.8 C 56.6 4.8 56.8 4.8 56.8 4.8 C 57 4.7 57 4.7 57.1 4.7 C 57.2 4.7 57.3 4.8 57.3 4.9 C 57.3 4.9 57.3 5 57.2 5 C 57.1 5 57 5.1 56.8 5.1 C 56.7 5.1 56.5 5.1 56.3 5.1 C 56.2 5.2 56 5.2 55.9 5.2 C 55.8 5.2 55.7 5.2 55.7 5.1 C 55.6 5.1 55.6 5 55.6 5 C 55.6 5 55.6 4.9 55.6 4.9 C 55.6 4.9 55.6 4.9 55.6 4.8 C 55.7 4.7 55.7 4.5 55.8 4 C 55.8 3.6 55.9 3.4 55.9 3.3 C 55.9 3.3 55.9 3.3 55.9 3.3 C 55.9 3.3 55.8 3.3 55.8 3.3 C 55.8 3.2 55.8 3.2 55.8 3.2 C 55.8 3.2 55.8 3.1 55.8 3.1 C 55.8 3.1 55.8 3.1 55.9 3.1 C 55.9 3.1 55.9 3 56 3 C 56 3 56.1 3 56.1 3.1 C 56.2 3.1 56.5 3 56.9 3 C 57.1 2.9 57.1 2.9 57.1 2.9 C 57.1 2.9 57.2 2.9 57.2 2.9 C 57.3 2.9 57.4 3 57.4 3.1 C 57.4 3.1 57.4 3.2 57.4 3.2 C 57.3 3.2 57.3 3.2 57.3 3.3 Z M 57.2 2.3 C 57.2 2.4 57.1 2.4 57 2.5 C 57 2.5 57 2.5 57 2.5 C 57 2.5 56.9 2.6 56.8 2.7 C 56.7 2.7 56.7 2.7 56.7 2.7 C 56.7 2.8 56.6 2.8 56.6 2.8 C 56.6 2.8 56.6 2.7 56.5 2.7 C 56.5 2.7 56.5 2.7 56.5 2.6 C 56.5 2.6 56.6 2.5 56.7 2.4 C 56.7 2.4 56.7 2.4 56.7 2.4 C 56.7 2.4 56.8 2.3 56.8 2.3 C 57 2.2 57.1 2.1 57.1 2.1 C 57.2 2 57.2 2 57.2 2 C 57.3 2 57.3 2 57.3 2.1 C 57.4 2.1 57.4 2.2 57.4 2.2 C 57.4 2.2 57.4 2.2 57.3 2.3 C 57.3 2.3 57.3 2.3 57.2 2.3 C 57.2 2.3 57.2 2.3 57.2 2.3 Z M 59.5 4.1 C 59.5 4.2 59.4 4.3 59.4 4.4 C 59.4 4.4 59.4 4.4 59.4 4.4 C 59.4 4.4 59.4 4.5 59.3 4.7 C 59.3 4.8 59.3 4.9 59.3 5 C 59.3 5.1 59.3 5.2 59.3 5.2 C 59.3 5.2 59.3 5.3 59.3 5.3 C 59.3 5.3 59.2 5.4 59.2 5.4 C 59.2 5.4 59.1 5.4 59.1 5.4 C 59.1 5.4 59 5.4 59 5.3 C 58.9 5.3 58.9 5.3 58.9 5.2 C 58.9 5.2 58.9 5.1 58.9 5 C 59 4.9 59 4.8 59 4.7 C 58.7 4.9 58.4 5.1 58.1 5.1 C 57.9 5.1 57.8 5 57.7 4.9 C 57.6 4.8 57.6 4.7 57.6 4.5 C 57.6 4.2 57.6 3.9 57.8 3.7 C 57.8 3.7 57.8 3.7 57.8 3.7 C 58 3.4 58.2 3.2 58.4 3.1 C 58.7 2.9 58.9 2.8 59.2 2.8 C 59.3 2.8 59.4 2.9 59.5 2.9 C 59.5 2.9 59.6 3 59.6 3.1 C 59.6 3.1 59.6 3.2 59.5 3.3 C 59.5 3.3 59.4 3.4 59.4 3.4 C 59.3 3.4 59.3 3.4 59.3 3.4 C 59.3 3.3 59.2 3.3 59.2 3.3 C 59.2 3.2 59.2 3.2 59.2 3.2 C 59.1 3.2 59.1 3.2 59.1 3.2 C 58.9 3.2 58.7 3.2 58.6 3.4 C 58.4 3.5 58.2 3.7 58.1 3.9 C 58 4.1 57.9 4.3 57.9 4.5 C 57.9 4.7 58 4.8 58.2 4.8 C 58.2 4.8 58.3 4.7 58.5 4.7 C 58.6 4.7 58.7 4.6 58.8 4.5 C 59 4.4 59.1 4.3 59.1 4.2 C 59.1 4.2 59.1 4.1 59.1 4 C 59.1 3.9 59.2 3.9 59.2 3.9 C 59.2 3.8 59.3 3.8 59.3 3.8 C 59.5 3.8 59.5 3.9 59.5 4 C 59.5 4 59.5 4.1 59.5 4.1 C 59.5 4.1 59.5 4.1 59.5 4.1 Z M 60.4 3.6 C 60.4 3.7 60.3 3.8 60.3 3.8 C 60.3 3.9 60.3 3.9 60.3 4.1 C 60.3 4.3 60.3 4.4 60.3 4.5 C 60.3 4.6 60.3 4.7 60.3 4.9 C 60.3 5 60.3 5 60.2 5.1 C 60.2 5.1 60.1 5.1 60.1 5.1 C 60 5.1 60 5.1 59.9 5 C 59.9 5 59.9 4.9 59.9 4.7 C 59.9 4.6 59.9 4.4 60 4.1 C 60 4.1 60 3.5 60 3.5 C 60.1 3.4 60.1 3.3 60.1 3.3 C 60.1 3.1 60.1 3.1 60.1 3.1 C 60.1 3 60.2 3 60.2 3 C 60.3 3 60.3 2.9 60.3 2.9 C 60.4 2.9 60.4 3 60.4 3 C 60.5 3.1 60.5 3.1 60.5 3.2 C 60.5 3.2 60.4 3.6 60.4 3.6 Z M 61.3 5.2 C 61.2 5.2 61 5.1 60.9 4.9 C 60.8 4.8 60.7 4.6 60.7 4.4 C 60.7 4.2 60.8 4 60.9 3.8 C 61 3.5 61.2 3.3 61.3 3.2 C 61.5 3 61.7 2.9 62 2.9 C 62.1 2.9 62.2 3 62.4 3 C 62.5 3 62.6 3.1 62.6 3.2 C 62.7 3.2 62.8 3.3 62.8 3.4 C 62.9 3.5 62.9 3.6 62.9 3.7 C 62.9 3.9 62.8 4 62.8 4.2 C 62.7 4.4 62.6 4.5 62.4 4.7 C 62.3 4.8 62.1 5 61.9 5 C 61.8 5.1 61.6 5.2 61.3 5.2 Z M 61.1 4.4 C 61.1 4.6 61.1 4.7 61.2 4.7 C 61.2 4.8 61.3 4.9 61.4 4.9 C 61.7 4.9 61.9 4.7 62.2 4.5 C 62.4 4.2 62.5 4 62.5 3.7 C 62.5 3.6 62.5 3.5 62.4 3.4 C 62.4 3.4 62.3 3.3 62.2 3.3 C 62.2 3.2 62.1 3.2 62 3.2 C 61.8 3.2 61.6 3.4 61.4 3.6 C 61.2 3.9 61.1 4.2 61.1 4.4 Z M 64.7 3.2 C 64.7 3.4 64.6 3.5 64.4 3.5 C 64.4 3.4 64.4 3.3 64.4 3.3 C 64.3 3.3 64.2 3.2 64.1 3.2 C 64 3.2 63.8 3.3 63.7 3.4 C 63.5 3.4 63.5 3.5 63.5 3.6 C 63.5 3.7 63.5 3.7 63.6 3.8 C 63.6 3.8 63.7 3.9 64 3.9 C 64.2 4 64.4 4.1 64.5 4.2 C 64.6 4.2 64.7 4.3 64.7 4.5 C 64.7 4.6 64.5 4.8 64.2 5 C 63.9 5.1 63.6 5.2 63.3 5.2 C 63.2 5.2 63.1 5.2 63.1 5.2 C 63 5.1 63 5.1 63 5 C 63 4.9 63 4.9 63 4.9 C 63.1 4.8 63.1 4.8 63.1 4.8 C 63.2 4.8 63.2 4.8 63.2 4.8 C 63.3 4.9 63.4 4.9 63.5 4.9 C 63.6 4.9 63.8 4.8 64 4.7 C 64.2 4.7 64.3 4.6 64.3 4.5 C 64.3 4.5 64.3 4.4 64.2 4.4 C 64.2 4.4 64.1 4.3 63.9 4.3 C 63.7 4.2 63.6 4.1 63.4 4.1 C 63.3 4.1 63.3 4 63.2 3.9 C 63.1 3.9 63.1 3.8 63.1 3.7 C 63.1 3.5 63.2 3.3 63.4 3.2 C 63.7 3 63.9 2.9 64.2 2.9 C 64.4 2.9 64.5 3 64.6 3 C 64.7 3.1 64.7 3.2 64.7 3.2 C 64.7 3.2 64.7 3.2 64.7 3.2 Z " stroke="none" fill="#000"/>  </g></svg>